<?xml version="1.0" encoding="iso-8859-1"?>
<!-- Generator: Adobe Illustrator 16.0.0, SVG Export Plug-In . SVG Version: 6.00 Build 0)  -->
<!DOCTYPE svg PUBLIC "-//W3C//DTD SVG 1.1//EN" "http://www.w3.org/Graphics/SVG/1.1/DTD/svg11.dtd">
<svg version="1.1" id="Layer_1" xmlns="http://www.w3.org/2000/svg" xmlns:xlink="http://www.w3.org/1999/xlink" x="0px" y="0px"
	 width="647px" height="109px" viewBox="0 0 647 109" style="enable-background:new 0 0 647 109;" xml:space="preserve">
<symbol  id="ground_x5F_03" viewBox="1343.85 -161 643.95 105">
	<g id="Layer_3_1_">
		<path style="fill-rule:evenodd;clip-rule:evenodd;fill:#4D6724;" d="M1440.35-89.05l0.025,0.025
			c-0.183-0.013-0.374-0.021-0.575-0.025H1440.35z M1947.6-74.3c0.167-0.434,0.25-0.833,0.25-1.2c0.933,0,2.267,0.25,4,0.75
			c2.466,0.733,3.8,1.65,4,2.75c0.533-0.3,2.367-1.8,5.5-4.5V-77c-0.222-0.185-0.439-0.335-0.65-0.45
			c-0.136-0.084-0.252-0.159-0.35-0.225c0.272,0.117,0.606,0.175,1,0.175v0.5c0.164,0.149,0.33,0.316,0.5,0.5h3.5l0.05-0.25
			c0.099-0.164,0.249-0.248,0.45-0.25c-0.173-0.003-0.423-0.086-0.75-0.25c-0.333-0.167-0.583-0.25-0.75-0.25
			c0-0.5,0.083-1.167,0.25-2s0.25-1.5,0.25-2c1,0,1.5,0.167,1.5,0.5c1.066-0.9,1.816-1.5,2.25-1.8c1.167-0.8,2.083-1.2,2.75-1.2
			c0.767,0,1.183,0.033,1.25,0.1c0.042,0.025,0.101,0.076,0.175,0.15c0.941-0.665,2.283-1.415,4.025-2.25
			c2.967-1.467,4.95-2.533,5.95-3.2c0.995-0.666,1.82-1.382,2.475-2.15c2.252-2.633,2.46-5.849,0.625-9.65
			c0.667,0,1.133-0.05,1.4-0.15c0.285-0.095,0.468-0.27,0.55-0.525v-0.35c-1.348-0.71-2.631-2.169-3.85-4.375
			c-1.634-3.067-3.05-5.283-4.25-6.65c-0.748-0.843-1.598-1.66-2.55-2.45c-2.551-2.11-5.834-4.01-9.85-5.7
			c-5.458-2.321-12.274-4.254-20.45-5.8c-13.867-2.567-26.867-3.917-39-4.05c-12.849-0.125-25.083-1-36.7-2.625
			c-0.769-0.103-1.536-0.211-2.3-0.325c-2.728-0.407-5.419-0.815-8.075-1.225c-38.605-5.995-69.23-12.469-91.875-19.425
			c-8.2-2.5-14.833-4.1-19.9-4.8c-6.57-0.909-16.17-1.417-28.8-1.525c-1.638,1.521-2.488,2.313-2.55,2.375
			c-0.177-0.982-0.552-1.782-1.125-2.4c-0.557,0-1.115,0-1.675,0c-9.067,0-15.684,0.517-19.85,1.55
			c-1.667,0.434-4.267,1.583-7.8,3.45c-6.3,3.333-20.583,5-42.85,5c-13.5,0-28.867,0.867-46.1,2.6
			c-7.767,0.8-23.283,2.683-46.55,5.65c-19.767,2.5-35.8,4.25-48.1,5.25c-18.133,1.433-35.05,1.933-50.75,1.5
			c-27.367-0.733-45.667,0.717-54.9,4.35c-4.034,2.033-7.05,3.5-9.05,4.4c-3.5,1.633-7.85,2.717-13.05,3.25
			c-0.934,0.067-2.85,0.517-5.75,1.35c-3.934,1.133-7.567,2.483-10.9,4.05c-5.006,2.332-8.79,4.882-11.35,7.65
			c-0.953,1.04-1.736,2.106-2.35,3.2c-0.78,1.409-1.28,2.867-1.5,4.375c-0.1,0.616-0.15,1.241-0.15,1.875
			c0,2.592,1.333,5.083,4,7.475c1.294,1.156,2.903,2.289,4.825,3.4l0.025-0.025c0.028,0.021,0.053,0.046,0.075,0.075
			c1.395,1.069,2.37,2.078,2.925,3.025h1.5v-0.8c2.275,1.037,6.009,2.554,11.2,4.55c3.688,1.404,6.688,2.62,9,3.65v-0.35
			c1.4,0.367,3.167,0.233,5.3-0.4c1.167-0.367,2.733-0.9,4.7-1.6c0.167,0.333,0.333,0.917,0.5,1.75s0.333,1.417,0.5,1.75h3.5
			c0.3,0.867-0.2,1.533-1.5,2v0.5c1.333,0,3.75-0.167,7.25-0.5c2.9,0,4.5,0.083,4.8,0.25c0.6,0.367,0.583,1.617-0.05,3.75v2.5
			c0.867,0.067,2.133-0.25,3.8-0.95c1.667-0.7,2.733-1.05,3.2-1.05c0.3,0.9,0.934,1.717,1.9,2.45c0.934,0.7,1.8,1.05,2.6,1.05
			c0.434,0,0.85-0.167,1.25-0.5c0.434-0.333,0.85-0.5,1.25-0.5c8.4,2.333,12.65,3.5,12.75,3.5c0.2,0,0.667,0.017,1.4,0.05
			c0.7-0.133,1.15-0.65,1.35-1.55c1.067,0.5,2.483,0.95,4.25,1.35c1.767,0.433,3.267,0.65,4.5,0.65c0.233,0,0.7-0.25,1.4-0.75
			c1-0.5,2.284-0.75,3.85-0.75c7.3,0,12.3,2.833,15,8.5c0.934,0.167,1.833-0.017,2.7-0.55c1.033-0.633,2.3-0.95,3.8-0.95
			c2.767,0,6.083,0.5,9.95,1.5c3.4,0.867,5.75,1.2,7.05,1c1.567-0.2,3.833,0.067,6.8,0.8c3.267,0.8,5.083,1.2,5.45,1.2
			c1.367,0,3.217-0.333,5.55-1c2.333-0.667,3.983-1,4.95-1c1.434,0,2.284,0.017,2.55,0.05c0.767,0.167,1.5,0.65,2.2,1.45
			c0.333,0,0.5-0.5,0.5-1.5c0.733,0.167,2.067-0.033,4-0.6c2.167-0.6,3.583-0.9,4.25-0.9c1.233,0,2.517,0.25,3.85,0.75
			s2.133,0.75,2.4,0.75c0.467,0,1.517-0.5,3.15-1.5c1.634-1,3.417-1.5,5.35-1.5c3.534,0,6.367,0.133,8.5,0.4
			c1.934,0.233,4.6,0.767,8,1.6c0-1.667-0.167-2.833-0.5-3.5c0.167,0.167,0.833,0.667,2,1.5c0.333,0,0.5-0.5,0.5-1.5l6.95,1.5
			c4.633,1,8.4,1.5,11.3,1.5c0.2,0,2.45-0.35,6.75-1.05c4.6-0.7,7.267-1.184,8-1.45c0-0.333-0.083-0.833-0.25-1.5
			s-0.25-1.167-0.25-1.5l0.05-0.25c0.1-0.167,0.417-0.25,0.95-0.25c0.434,0,0.934,0.167,1.5,0.5c0.6,0.333,1.1,0.5,1.5,0.5
			c0.9,0,1.5-0.417,1.8-1.25c0.3-0.833,0.783-1.25,1.45-1.25c2.833,0,4.25,1,4.25,3c0,0.233-0.25,0.6-0.75,1.1s-0.75,1.133-0.75,1.9
			h3.5c10.1-3,15.434-4.5,16-4.5c0.3,1.2,0.617,2.017,0.95,2.45c0.533,0.7,1.383,1.05,2.55,1.05c0.434,0,0.767-0.167,1-0.5
			s0.55-0.5,0.95-0.5c0.466,0,1.5,0.417,3.1,1.25c1.6,0.833,2.9,1.25,3.9,1.25c-0.367-0.633-0.833-1.183-1.4-1.65
			c-0.567-0.5-1.1-0.783-1.6-0.85c0.367,0,1.35,0.25,2.95,0.75c1.6,0.5,2.45,0.75,2.55,0.75c0-0.167-0.083-0.5-0.25-1
			s-0.25-0.833-0.25-1h6.5c1.867,0.533,4.783,1.367,8.75,2.5c3.2,1.167,5.117,2.667,5.75,4.5c0.767-2.067,0.933-3.567,0.5-4.5
			c1.333,0.667,2.667,1,4,1v-1.5c0.466,0,1.617,0.25,3.45,0.75c1.8,0.5,2.817,0.75,3.05,0.75c-0.367-1.267-0.15-2.05,0.65-2.35
			c0.3-0.1,1.417-0.15,3.35-0.15c0.433,0,2.667,0.25,6.7,0.75c4.7,0.5,8.967,0.75,12.8,0.75c3.867,0,7.8-0.333,11.8-1
			s6.317-1,6.95-1c0.302,0,0.594,0.008,0.875,0.025c-0.534-0.25-0.909-0.425-1.125-0.525c1.333,0,3.667,0.333,7,1
			c0-1-0.167-1.5-0.5-1.5v-1c2.267,0.567,5.517,0.717,9.75,0.45c3.633,0.233,6.55,1.917,8.75,5.05c0.1-0.8,0.133-1.767,0.1-2.9
			c0.233-0.733,1.2-1.1,2.9-1.1c0.433,0,0.983,0.167,1.65,0.5s1.2,0.5,1.6,0.5c0.433,0,0.733-0.167,0.9-0.5s0.45-0.5,0.85-0.5
			c1.033,0,2.367,0.233,4,0.7c0.979,0.293,2.753,0.876,5.325,1.75c-0.166-0.295-0.458-0.612-0.875-0.95
			c-0.866-0.7-1.517-1.2-1.95-1.5l-1-0.5c1.267,0.6,3.183,1.1,5.75,1.5c0.433,0,1.066-0.167,1.9-0.5s1.45-0.5,1.85-0.5
			c1,0,2.5,0.917,4.5,2.75s3.5,2.75,4.5,2.75c0.1,0,0.983-0.333,2.65-1s3.283-1,4.85-1c4.533,0,6.7,1.167,6.5,3.5
			c0.066-0.067,1.017-0.75,2.85-2.05c2.033-1.3,3.667-1.95,4.9-1.95c1.033,0,1.716,0.233,2.05,0.7
			c0.167,0.267,0.417,0.783,0.75,1.55c1.1,1.5,4.75,2.25,10.95,2.25c0.833,0,3.5-0.167,8-0.5V-57c-0.767,0-1.867-0.367-3.3-1.1
			c-1.233-0.633-1.966-1.1-2.2-1.4V-60l4.5,1.5c0-0.367-0.6-1.333-1.8-2.9c-0.993-1.324-1.685-2.158-2.075-2.5
			c-0.228-0.063-0.428-0.096-0.6-0.1h0.475c0.036,0.026,0.077,0.059,0.125,0.1c0.302,0.078,0.661,0.211,1.075,0.4
			c1.9,0.867,3,1.367,3.3,1.5h4l0.05-0.25c0.1-0.167,0.25-0.25,0.45-0.25c0-0.667-0.267-1.35-0.8-2.05c-0.6-0.733-1-1.217-1.2-1.45
			c1.233-0.267,2.85-1.117,4.85-2.55c2.767-1.3,6.983-1.95,12.65-1.95c5.233,0,8.45,0.067,9.65,0.2
			c3.367,0.333,5.983,1.267,7.85,2.8V-69c0-0.4-0.417-1.067-1.25-2c-0.867-1-1.784-1.833-2.75-2.5c0.733,0,2-0.167,3.8-0.5
			c1.767-0.333,2.833-0.5,3.2-0.5c1.1,0,2.017,0.35,2.75,1.05c1.2,1.167,2.617,2.15,4.25,2.95c0.966-1.067,1.6-1.7,1.9-1.9
			c0.767-0.633,1.633-1,2.6-1.1c0.1,0.933,0.5,2,1.2,3.2c0.733,1.2,1.333,1.8,1.8,1.8c0.733,0,1.417-0.333,2.05-1s1.284-1,1.95-1
			c0.466,0,4.816,0.833,13.05,2.5c7.081,1.215,11.014,1.348,11.8,0.4c-0.175,0.162-0.508,0.179-1,0.05c-1.3-0.3-2-0.45-2.1-0.45
			h9.75c-0.934-0.2-2.633-1.15-5.1-2.85c-2.6-1.767-3.9-2.983-3.9-3.65c0.733,0.2,2.066,0.7,4,1.5c1.867,0.667,3.367,1,4.5,1
			c0.433,0,1.35-0.167,2.75-0.5c1.433-0.333,2.35-0.5,2.75-0.5l3.45,1.5c2.267,1,4.117,1.5,5.55,1.5
			c0.133-0.667,0.883-1.583,2.25-2.75c1.333-1.167,2.333-1.75,3-1.75c0.566,0,1.133,0.333,1.7,1c0.634,0.767,1.65,1.267,3.05,1.5
			c1.167-1.167,2-1.917,2.5-2.25c1.333-0.833,2.917-1.25,4.75-1.25c2,0,3.433,0.5,4.3,1.5c0.633,0.8,0.95,1.967,0.95,3.5
			c0,0.262,0,0.496,0,0.7c0.459-0.545,0.726-0.845,0.8-0.9c1.133-1.1,2.367-1.7,3.7-1.8c1.6-0.067,2.733-0.283,3.4-0.65
			c1.133-0.633,1.333-1.75,0.6-3.35c0.5,0.133,1.683,0.567,3.55,1.3c1.833,0.733,3.15,1.3,3.95,1.7
			C1947.35-73.633,1947.434-73.9,1947.6-74.3z"/>
		<g>
			<g>
				<path style="fill-rule:evenodd;clip-rule:evenodd;fill:#3A560C;" d="M1789.55-98.75c-1.767,0.033-3.533,0.017-5.3-0.05
					c-0.267,0-0.533-0.017-0.8-0.05c-1.867-0.066-2.867-1-3-2.8c-0.034-0.833-0.417-1.283-1.15-1.35
					c-0.233-0.033-0.483-0.05-0.75-0.05c-1.233-0.1-2.483-0.167-3.75-0.2c-1.667-0.067-3.3-0.217-4.9-0.45
					c-0.133-0.033-0.283-0.1-0.45-0.2c-1.167-0.867-2.667-1.25-4.5-1.15c1.1-0.467,2-0.95,2.7-1.45
					c0.233-0.167,0.467-0.283,0.7-0.35c0.633-0.133,1.017-0.417,1.15-0.85c-2.333,0.4-4.733,0.667-7.2,0.8
					c-2.366,0.1-4.65-0.133-6.85-0.7c-2.167-0.566-4.15-0.467-5.95,0.3l-0.8,0.35c0.4-0.433,1.033-0.933,1.9-1.5
					c1.9-1.267,3.917-2.15,6.05-2.65c-0.233,0-0.483-0.033-0.75-0.1c-0.6-0.167-1.233-0.25-1.9-0.25c-2.267-0.033-4.533-0.1-6.8-0.2
					c-2.4-0.1-4.55,0.333-6.45,1.3c0.4-0.267,0.533-0.65,0.4-1.15c-0.867-0.5-1.867-0.6-3-0.3c-1.1,0.333-2.233,0.6-3.4,0.8
					c-0.7,0.1-1.033-0.183-1-0.85c0.033-0.133-0.017-0.267-0.15-0.4c-0.434-0.5-0.9-0.467-1.4,0.1c-0.5,0.6-1.15,0.683-1.95,0.25
					c-0.167-0.1-0.333-0.184-0.5-0.25c-2.667-1.033-5.417-1.95-8.25-2.75c-0.767-0.2-1.533-0.417-2.3-0.65
					c-1.267-0.367-2.267-0.784-3-1.25c-0.1,0.9-0.35,1.85-0.75,2.85c-1.067-0.066-1.867-0.466-2.4-1.2
					c-0.433-0.633-0.783-0.817-1.05-0.55c-0.867,0.733-1.816,1.667-2.85,2.8c-0.533,0.566-0.816,0.667-0.85,0.3
					c0-0.133,0-0.267,0-0.4c-0.033-0.767,0.217-1.4,0.75-1.9c-0.233,0.133-0.466,0.283-0.7,0.45c-1.9,1.7-4.05,2.983-6.45,3.85
					c-0.833,0.3-1.733,0.483-2.7,0.55c-2.634,0.167-5.15,0.05-7.55-0.35c-1.933-0.3-3.183,0.066-3.75,1.1
					c0.1-0.233,0.217-0.467,0.35-0.7s0.233-0.483,0.3-0.75c0.3-0.967-0.05-1.367-1.05-1.2c-0.434,0.067-0.867,0.15-1.3,0.25
					c-0.067,0.034-0.117,0.05-0.15,0.05c-1.866,0.566-3.783,1.133-5.75,1.7c-0.5,0.133-1,0.184-1.5,0.15
					c-3.833-0.133-7.483,0.433-10.95,1.7c-0.3,0.1-0.567,0.233-0.8,0.4c-0.233,0.133-0.45,0.284-0.65,0.45
					c-1.133,0.9-1.95,0.767-2.45-0.4v-0.05c-0.067-0.133-0.167-0.216-0.3-0.25c-0.8-0.3-1.267-0.216-1.4,0.25
					c-0.167,0.534-0.316,0.534-0.45,0c-0.333-0.233-0.566-0.733-0.7-1.5c-0.034-0.267-0.083-0.517-0.15-0.75c-0.3-1.1-0.7-2.1-1.2-3
					c-0.5-0.933-1.2-1.7-2.1-2.3c0.9,0.667,1.417,1.667,1.55,3c0.167,1.533-0.35,2.55-1.55,3.05c-0.267,0.1-0.483,0.233-0.65,0.4
					c-0.566,0.6-0.967,0.716-1.2,0.35c0.134-0.8,0-1.316-0.4-1.55c-0.533,0.267-1.033,0.55-1.5,0.85
					c-0.133,0.1-0.25,0.217-0.35,0.35c-0.233,0.4-0.45,0.767-0.65,1.1c-0.2,0.3-0.383,0.55-0.55,0.75
					c-0.067-0.233-0.15-0.483-0.25-0.75c-0.133-0.3-0.284-0.617-0.45-0.95c-2.167,0.367-4.316,0.517-6.45,0.45
					c-0.034,0,0.216-0.216,0.75-0.65c0.167-0.667-0.1-0.917-0.8-0.75c-0.5,0.133-1,0.283-1.5,0.45
					c-0.633,0.233-1.25,0.483-1.85,0.75c-0.5,0.267-1.017,0.5-1.55,0.7c-0.867,0.333-1.75,0.583-2.65,0.75
					c0.367-0.233,0.7-0.483,1-0.75c1.9-1.6,2.95-3.75,3.15-6.45c-0.6,0.267-1.2,0.55-1.8,0.85c-0.167,0.066-0.333,0.117-0.5,0.15
					c-0.767,0.133-0.867-0.067-0.3-0.6c-0.267,0-0.517,0.033-0.75,0.1c-2.333,0.733-4.483,1.45-6.45,2.15
					c0.767-0.633,1.3-1.25,1.6-1.85c0.2-0.367,0.45-0.717,0.75-1.05c0.534-0.533,0.884-1.333,1.05-2.4
					c-0.333,0.3-0.717,0.55-1.15,0.75c-1.6,0.7-3.217,1.383-4.85,2.05c-2.633,1.033-5.317,1.95-8.05,2.75
					c-0.333,0.1-0.65,0.217-0.95,0.35c-0.767,0.433-1.2,0.333-1.3-0.3c0.467-0.233,0.733-0.7,0.8-1.4
					c-0.467,0.233-0.967,0.383-1.5,0.45c-0.934,0.133-1.75,0.333-2.45,0.6c-0.767,0.3-1.383,0.667-1.85,1.1
					c1.034-1.3,1.583-2.783,1.65-4.45c-1.5,1.667-3.4,3.15-5.7,4.45c-2.833,1.567-5.733,2.8-8.7,3.7c-0.966,0.3-1.966,0.483-3,0.55
					c-0.566,0.034-0.933,0.083-1.1,0.15c0-0.167,0.017-0.35,0.05-0.55c0.167-0.933,0.017-1.55-0.45-1.85
					c-0.1,0.133-0.216,0.25-0.35,0.35c-0.134,0.133-0.284,0.25-0.45,0.35c-0.2,0.167-0.383,0.333-0.55,0.5
					c-0.6,0.9-0.95,1.083-1.05,0.55c0.1-0.167,0.184-0.367,0.25-0.6c0.2-0.667,0.45-1.15,0.75-1.45c0.5-0.433,0.467-0.85-0.1-1.25
					c-2.1,0.567-4.083,1.5-5.95,2.8c-1.434,0.967-2.633,1.717-3.6,2.25c-0.367-0.3-0.583-0.85-0.65-1.65
					c-0.133,0.133-0.217,0.283-0.25,0.45c-0.233,0.967-0.65,1.583-1.25,1.85c-0.467-0.6-0.883-1.35-1.25-2.25
					c-0.1-0.267-0.133-0.534-0.1-0.8c0.033-0.733-0.283-1.1-0.95-1.1c-0.133,1.534-0.85,2.717-2.15,3.55
					c-1.533,0.967-3.083,1.667-4.65,2.1c0-0.233,0.017-0.483,0.05-0.75c0.134-0.767,0-1.267-0.4-1.5
					c-0.133,0.133-0.267,0.25-0.4,0.35c-0.4,0.367-0.9,0.75-1.5,1.15c0-0.133-0.017-0.267-0.05-0.4c-0.1-0.733-0.367-1.133-0.8-1.2
					c-0.466,0.566-0.683,1.217-0.65,1.95c-0.133-0.233-0.25-0.483-0.35-0.75c-0.233-0.566-0.533-1.3-0.9-2.2
					c-0.066-0.167-0.117-0.333-0.15-0.5c-0.233-1.2-0.784-2.05-1.65-2.55c0.466,2.7-0.184,4.95-1.95,6.75
					c-0.566,0.6-1.15,1.15-1.75,1.65c-0.333,0.267-0.717,0.316-1.15,0.15c-0.167-0.033-0.284-0.133-0.35-0.3
					c-0.066-0.2-0.15-0.333-0.25-0.4c-0.533-0.3-1.033-0.183-1.5,0.35c-0.133,0.2-0.283,0.383-0.45,0.55
					c-0.833,0.967-1.433,2.05-1.8,3.25c-0.2,0.7-0.333,0.983-0.4,0.85c0.033-0.9-0.2-1.566-0.7-2c-0.433,0.467-0.767,1.133-1,2
					c-0.133-0.833-0.5-1.617-1.1-2.35c-0.167-0.2-0.35-0.383-0.55-0.55c-0.167-0.1-0.316-0.217-0.45-0.35
					c-0.3-0.333-0.75-0.733-1.35-1.2c-1-0.733-1.9-0.617-2.7,0.35c-0.367-0.367-0.717-0.9-1.05-1.6c-0.867,1.8-2.134,3.316-3.8,4.55
					c-0.5,0.333-0.983,0.65-1.45,0.95c-0.667,0.6-1.367,1.167-2.1,1.7c1.833-0.7,4.033-1.066,6.6-1.1c1,0,2,0,3,0
					c1.033,0,2.033,0.284,3,0.85c3.566,2.1,6.733,2.3,9.5,0.6c0.767-0.467,1.6-0.85,2.5-1.15c0.9-3.9,2.6-5,5.1-3.3
					c0.733,0.467,1.55,0.85,2.45,1.15c0.6,0.233,1.15,0.6,1.65,1.1c1.667-0.333,2.434-1.867,2.3-4.6
					c5.133-1.233,8.9-0.717,11.3,1.55c1.667-0.333,2.434-1.85,2.3-4.55c2.634-0.633,3.9-0.117,3.8,1.55c-0.034,0.5-0.05,1-0.05,1.5
					c0.967,0.6,3.134-0.183,6.5-2.35c0.7-0.467,1.5-0.85,2.4-1.15c0.633-0.2,1.25-0.45,1.85-0.75c0.467,1.067,0.65,1.967,0.55,2.7
					c1.9-1.567,4.633-2.8,8.2-3.7c1.6-0.4,3.2-0.8,4.8-1.2c0.533-0.133,1.066-0.267,1.6-0.4c1.9-0.467,3.833-0.816,5.8-1.05
					c2.566-0.267,5.083-0.7,7.55-1.3c2.167-0.533,3.184,0.017,3.05,1.65c-0.833,0.367-1.684,0.733-2.55,1.1
					c-5,2.034-10.667,3.8-17,5.3c-1.066,0.267-2.1,0.65-3.1,1.15c3.733,0,7.3-0.35,10.7-1.05c1.434-0.3,2.85-0.633,4.25-1
					c0.6-0.133,1.2-0.267,1.8-0.4c2.6-0.566,4.667-0.45,6.2,0.35c0.833,0.4,1.733,0.5,2.7,0.3c1.533-0.333,3.083-0.633,4.65-0.9
					c2.667-0.433,4.316,0.417,4.95,2.55c0.167,0.6,0.5,1.15,1,1.65c0.633-3.067,2.15-4.567,4.55-4.5c2.934,0.067,4.95,1.067,6.05,3
					c3.434-3.533,6.85-3.883,10.25-1.05c2.134-1.733,4.784-2.75,7.95-3.05c3-0.3,5.85,0,8.55,0.9c0.3,0.133,0.45,0.7,0.45,1.7
					c2.066-1.467,4.55-2.583,7.45-3.35c1.1-0.3,2.167-0.633,3.2-1c2.1-0.767,3.467-0.55,4.1,0.65c0.267,0.434,0.9,0.6,1.9,0.5
					c1.7-0.2,2.7-1.15,3-2.85c1.667,0.333,2.217,1.85,1.65,4.55c-0.1,0.5-0.15,1-0.15,1.5c2.767-1.567,4.034-4.6,3.8-9.1
					c3.466-0.433,4.783,1.1,3.95,4.6c1.633-1.267,4.2-2.5,7.7-3.7c2.167,2.067,3.066,4.8,2.7,8.2c2.5-5.067,8-6.833,16.5-5.3
					c0.233,2.1-0.233,3.683-1.4,4.75c0.567-0.133,1.1-0.233,1.6-0.3c4.5-0.467,9.017-0.7,13.55-0.7c-0.366,1.466-1.2,2.617-2.5,3.45
					c0.8-0.267,1.634-0.4,2.5-0.4c4.034,0,7.817,0.25,11.35,0.75c-0.533,1-0.8,1.75-0.8,2.25h3.05c3.5,0,7.017,0,10.55,0
					c-4,0.833-3.5,1.1,1.5,0.8c0.533,0,1.1-0.1,1.7-0.3C1787.1-98.117,1788.316-98.45,1789.55-98.75z"/>
				<path style="fill-rule:evenodd;clip-rule:evenodd;fill:#3F5B12;" d="M1543.95-96.55c0.466-0.3,0.95-0.617,1.45-0.95
					c1.667-1.233,2.934-2.75,3.8-4.55c0.333,0.7,0.683,1.233,1.05,1.6c0.8-0.966,1.7-1.083,2.7-0.35c0.6,0.466,1.05,0.867,1.35,1.2
					c0.134,0.133,0.284,0.25,0.45,0.35c0.2,0.167,0.383,0.35,0.55,0.55c0.6,0.733,0.967,1.517,1.1,2.35c0.233-0.867,0.567-1.533,1-2
					c0.5,0.434,0.733,1.1,0.7,2c0.066,0.133,0.2-0.15,0.4-0.85c0.367-1.2,0.967-2.283,1.8-3.25c0.167-0.167,0.317-0.35,0.45-0.55
					c0.467-0.533,0.967-0.65,1.5-0.35c0.1,0.067,0.184,0.2,0.25,0.4c0.066,0.167,0.184,0.267,0.35,0.3
					c0.433,0.167,0.816,0.117,1.15-0.15c0.6-0.5,1.184-1.05,1.75-1.65c1.767-1.8,2.417-4.05,1.95-6.75
					c0.866,0.5,1.417,1.35,1.65,2.55c0.033,0.167,0.083,0.333,0.15,0.5c0.367,0.9,0.667,1.633,0.9,2.2
					c0.1,0.267,0.217,0.517,0.35,0.75c-0.033-0.733,0.184-1.383,0.65-1.95c0.434,0.066,0.7,0.467,0.8,1.2
					c0.033,0.133,0.05,0.267,0.05,0.4c0.6-0.4,1.1-0.784,1.5-1.15c0.133-0.1,0.267-0.216,0.4-0.35c0.4,0.233,0.534,0.733,0.4,1.5
					c-0.033,0.267-0.05,0.517-0.05,0.75c1.566-0.434,3.117-1.133,4.65-2.1c1.3-0.833,2.017-2.017,2.15-3.55
					c0.667,0,0.983,0.367,0.95,1.1c-0.033,0.267,0,0.533,0.1,0.8c0.367,0.9,0.783,1.65,1.25,2.25c0.6-0.267,1.017-0.883,1.25-1.85
					c0.033-0.167,0.117-0.317,0.25-0.45c0.066,0.8,0.283,1.35,0.65,1.65c0.967-0.533,2.167-1.283,3.6-2.25
					c1.867-1.3,3.85-2.233,5.95-2.8c0.567,0.4,0.6,0.817,0.1,1.25c-0.3,0.3-0.55,0.783-0.75,1.45c-0.066,0.233-0.15,0.433-0.25,0.6
					c0.1,0.534,0.45,0.35,1.05-0.55c0.167-0.167,0.35-0.333,0.55-0.5c0.167-0.1,0.316-0.217,0.45-0.35
					c0.133-0.1,0.25-0.217,0.35-0.35c0.467,0.3,0.617,0.917,0.45,1.85c-0.033,0.2-0.05,0.383-0.05,0.55
					c0.167-0.067,0.533-0.117,1.1-0.15c1.034-0.066,2.034-0.25,3-0.55c2.967-0.9,5.867-2.133,8.7-3.7c2.3-1.3,4.2-2.783,5.7-4.45
					c-0.067,1.667-0.617,3.15-1.65,4.45c0.467-0.433,1.083-0.8,1.85-1.1c0.7-0.267,1.517-0.467,2.45-0.6
					c0.533-0.067,1.033-0.217,1.5-0.45c-0.067,0.7-0.333,1.167-0.8,1.4c0.1,0.633,0.534,0.733,1.3,0.3
					c0.3-0.133,0.617-0.25,0.95-0.35c2.733-0.8,5.417-1.717,8.05-2.75c1.633-0.667,3.25-1.35,4.85-2.05
					c0.433-0.2,0.816-0.45,1.15-0.75c-0.167,1.066-0.517,1.867-1.05,2.4c-0.3,0.333-0.55,0.683-0.75,1.05
					c-0.3,0.6-0.833,1.217-1.6,1.85c1.966-0.7,4.116-1.417,6.45-2.15c0.233-0.067,0.483-0.1,0.75-0.1
					c-0.566,0.533-0.466,0.733,0.3,0.6c0.167-0.033,0.333-0.083,0.5-0.15c0.6-0.3,1.2-0.583,1.8-0.85c-0.2,2.7-1.25,4.85-3.15,6.45
					c-0.3,0.267-0.633,0.517-1,0.75c0.9-0.167,1.783-0.417,2.65-0.75c0.533-0.2,1.05-0.433,1.55-0.7
					c0.6-0.267,1.217-0.517,1.85-0.75c0.5-0.167,1-0.317,1.5-0.45c0.7-0.167,0.967,0.083,0.8,0.75
					c-0.534,0.434-0.784,0.65-0.75,0.65c2.133,0.067,4.283-0.083,6.45-0.45c0.167,0.333,0.317,0.65,0.45,0.95
					c0.1,0.267,0.183,0.517,0.25,0.75c0.167-0.2,0.35-0.45,0.55-0.75c0.2-0.333,0.417-0.7,0.65-1.1c0.1-0.133,0.217-0.25,0.35-0.35
					c0.467-0.3,0.967-0.583,1.5-0.85c0.4,0.233,0.534,0.75,0.4,1.55c0.233,0.367,0.634,0.25,1.2-0.35
					c0.167-0.167,0.383-0.3,0.65-0.4c1.2-0.5,1.717-1.517,1.55-3.05c-0.134-1.333-0.65-2.333-1.55-3c0.9,0.6,1.6,1.367,2.1,2.3
					c0.5,0.9,0.9,1.9,1.2,3c0.066,0.233,0.116,0.483,0.15,0.75c0.133,0.767,0.367,1.267,0.7,1.5c0.134,0.534,0.284,0.534,0.45,0
					c0.133-0.466,0.6-0.55,1.4-0.25c0.133,0.034,0.233,0.117,0.3,0.25v0.05c0.5,1.167,1.316,1.3,2.45,0.4
					c0.2-0.167,0.417-0.317,0.65-0.45c0.233-0.167,0.5-0.3,0.8-0.4c3.466-1.267,7.117-1.833,10.95-1.7c0.5,0.033,1-0.017,1.5-0.15
					c1.967-0.566,3.884-1.133,5.75-1.7c0.034,0,0.083-0.017,0.15-0.05c0.433-0.1,0.866-0.183,1.3-0.25c1-0.167,1.35,0.233,1.05,1.2
					c-0.066,0.267-0.167,0.517-0.3,0.75s-0.25,0.467-0.35,0.7c0.567-1.034,1.817-1.4,3.75-1.1c2.4,0.4,4.917,0.517,7.55,0.35
					c0.966-0.067,1.866-0.25,2.7-0.55c2.4-0.867,4.55-2.15,6.45-3.85c0.233-0.167,0.466-0.316,0.7-0.45
					c-0.533,0.5-0.783,1.133-0.75,1.9c0,0.133,0,0.267,0,0.4c0.034,0.367,0.317,0.267,0.85-0.3c1.034-1.133,1.983-2.067,2.85-2.8
					c0.267-0.267,0.617-0.083,1.05,0.55c0.534,0.733,1.333,1.133,2.4,1.2c0.4-1,0.65-1.95,0.75-2.85c0.733,0.466,1.733,0.883,3,1.25
					c0.767,0.233,1.533,0.45,2.3,0.65c2.833,0.8,5.583,1.717,8.25,2.75c0.167,0.066,0.333,0.15,0.5,0.25
					c0.8,0.433,1.45,0.35,1.95-0.25c0.5-0.567,0.966-0.6,1.4-0.1c0.133,0.133,0.183,0.267,0.15,0.4c-0.033,0.667,0.3,0.95,1,0.85
					c1.167-0.2,2.3-0.467,3.4-0.8c1.133-0.3,2.133-0.2,3,0.3c0.133,0.5,0,0.883-0.4,1.15c1.9-0.967,4.05-1.4,6.45-1.3
					c2.267,0.1,4.533,0.167,6.8,0.2c0.667,0,1.3,0.083,1.9,0.25c0.267,0.067,0.517,0.1,0.75,0.1c-2.133,0.5-4.15,1.383-6.05,2.65
					c-0.867,0.567-1.5,1.067-1.9,1.5l0.8-0.35c1.8-0.767,3.783-0.867,5.95-0.3c2.2,0.567,4.483,0.8,6.85,0.7
					c2.467-0.133,4.867-0.4,7.2-0.8c-0.133,0.434-0.517,0.717-1.15,0.85c-0.233,0.067-0.467,0.184-0.7,0.35
					c-0.7,0.5-1.6,0.983-2.7,1.45c1.833-0.1,3.333,0.283,4.5,1.15c0.167,0.1,0.316,0.167,0.45,0.2c1.6,0.233,3.233,0.383,4.9,0.45
					c1.267,0.033,2.517,0.1,3.75,0.2c0.267,0,0.517,0.017,0.75,0.05c0.733,0.067,1.117,0.517,1.15,1.35c0.133,1.8,1.133,2.733,3,2.8
					c0.267,0.033,0.533,0.05,0.8,0.05c1.767,0.066,3.533,0.083,5.3,0.05c5.067-1.333,10.317-2.383,15.75-3.15
					c0.567-0.067,1.134-0.133,1.7-0.2c2.967-0.433,5.934-0.483,8.9-0.15c2.733,0.333,4.267-0.783,4.6-3.35c0-0.133,0.5-0.2,1.5-0.2
					c5.033,0,10.083,0,15.15,0c-3.433-0.867-3.9-1.667-1.4-2.4c1.4-0.4,2.867-0.533,4.4-0.4c2.133,0.167,4,0.083,5.6-0.25
					c-5.434-0.467-10.833-0.95-16.2-1.45c-6.4-1.167-12.95-1.7-19.65-1.6c-1,0.033-1.9,0.25-2.7,0.65c-3.733,1.8-7.4,1.65-11-0.45
					c-2.867-1.667-6.85-2.333-11.95-2c-2.4,0.133-3.9,0.233-4.5,0.3c0.5-0.467,1-0.733,1.5-0.8c2.2-0.233,3.2-1.466,3-3.7
					c-0.5,0-1.017,0.05-1.55,0.15c-2.333,0.4-4.717,0.733-7.15,1c-0.066,0-0.116,0-0.15,0c-1.566,0.167-3.15,0.3-4.75,0.4
					c2.233-0.9,3.733-1.917,4.5-3.05c-10.066,0-20.133,0-30.2,0c-1,0-1.617-0.217-1.85-0.65c-0.833-1.534-2.117-3.034-3.85-4.5
					c-1.533,0.6-3.633,0.617-6.3,0.05c-0.567-0.133-1.067-0.167-1.5-0.1c-3.6,0.467-7.684,1.117-12.25,1.95
					c-0.967,0.167-1.733,0-2.3-0.5c-2.3-2.2-6.066-3.117-11.3-2.75c-2.333,0.167-3.8,0.3-4.4,0.4c2.433-2.533,5.933-4.017,10.5-4.45
					c-0.5,0-1.017-0.017-1.55-0.05c-8.667-0.733-15.716,0.783-21.15,4.55c0.667-2.667,0.167-4.1-1.5-4.3
					c-0.467-0.067-0.9-0.083-1.3-0.05c-3.167,0.066-5.25,2.017-6.25,5.85c-0.5-1-1.117-1.883-1.85-2.65
					c-2.5-2.667-3.983-2.283-4.45,1.15c-0.167,3.2-2.1,4.733-5.8,4.6c-1-0.033-1.817-0.283-2.45-0.75c-1.7-1.233-4.367-1.333-8-0.3
					c-0.6,0.167-1.133,0.233-1.6,0.2c-0.267,0-0.533,0-0.8,0c1-0.9,1.75-2.15,2.25-3.75c-0.5,0-1,0-1.5,0
					c-4.4,0.034-8.05,0.917-10.95,2.65c1.233-1.267,2.367-2.65,3.4-4.15c-6.333-0.533-11.483,0.25-15.45,2.35
					c-0.767,0.434-1.417,0.4-1.95-0.1c-0.5-0.5-0.95-0.85-1.35-1.05c-0.6-0.3-1.417-0.4-2.45-0.3c-4.8,0.367-8.5,1.633-11.1,3.8
					c-0.966,0.833-1.783,1.783-2.45,2.85c0.633-2.167,0.15-3.367-1.45-3.6c-5.667-0.867-8.7,0.7-9.1,4.7
					c-0.233-2.267-1.333-4.034-3.3-5.3c-3.367-2.233-6.9-4.167-10.6-5.8c-0.833-0.367-1.633-0.75-2.4-1.15
					c-1.867-1-4.517-1.317-7.95-0.95c3.067,2.533,4.1,5.967,3.1,10.3c-0.033,0.2-0.533,0.2-1.5,0c-2.2-0.433-3.233,0.167-3.1,1.8
					s-0.883,2.3-3.05,2c-4.267-0.567-7.333,0.233-9.2,2.4c-1.466,1.667-3.45,2.367-5.95,2.1c-2.5-0.3-5-0.45-7.5-0.45
					c-2.434,1.767-4.95,2.783-7.55,3.05c-3.167,0.333-5.683-0.684-7.55-3.05c0.433,4.467-2.117,6.167-7.65,5.1
					c-1.934-0.367-3.9-0.4-5.9-0.1c-2.167,0.333-3.566-0.1-4.2-1.3c-0.233-0.434-0.867-0.633-1.9-0.6
					c-6.134,0.133-12.15,0.8-18.05,2c3.633-0.033,5.617,0.783,5.95,2.45c-0.333,1.667-1.85,2.433-4.55,2.3c-0.466,0-1,0.033-1.6,0.1
					c-2.467,0.433-4.917,0.467-7.35,0.1c-1.067-0.133-2.117-0.267-3.15-0.4c-4-0.4-8-0.45-12-0.15c-4.333,0.3-5.867,1.167-4.6,2.6
					c3.7,0.3,4.117,1.1,1.25,2.4c-2.7,1.233-5.6,2.117-8.7,2.65c-1.066,0.167-2.117,0.317-3.15,0.45
					c-2.5,0.367-5.017,0.55-7.55,0.55c2.066,1.467,5.1,2.217,9.1,2.25c0.5,0,1.034,0.05,1.6,0.15c1.967,0.4,3.95,0.6,5.95,0.6
					c-8.733,3.333-18.3,4.717-28.7,4.15c-7.033-0.4-13.583,0.233-19.65,1.9c5.533,0,11.05,0.233,16.55,0.7
					c0.534,0.034,1.067,0.284,1.6,0.75c2.7,2.367,6.717,3.45,12.05,3.25c3.033-0.1,6.033,0.067,9,0.5
					c0.566,0.067,1.133,0.15,1.7,0.25c1.9,0.367,3.4,0.083,4.5-0.85c3.267-2.8,7.233-3.7,11.9-2.7c1.1,0.233,2.034,0.233,2.8,0
					c0.733-0.233,1.433-0.8,2.1-1.7c2.7-3.433,5.133-4,7.3-1.7c0.533-2,1.45-3.617,2.75-4.85c2.667-2.5,4.267-1.383,4.8,3.35
					c-0.267-3.3,1.233-5.05,4.5-5.25c0.534-0.033,1.05-0.3,1.55-0.8c1.667,0.333,2.216,1.867,1.65,4.6
					c3.1-1.767,7.167-3.566,12.2-5.4c1.366-0.467,2.767-0.85,4.2-1.15c1.067-0.2,2.133-0.4,3.2-0.6c1.966-0.333,3.95-0.5,5.95-0.5
					c-1.533,3-4,5.15-7.4,6.45c-0.6,0.267-1.15,0.65-1.65,1.15c7.467-4.467,15.533-7.5,24.2-9.1
					C1546.05-98.583,1545.05-97.517,1543.95-96.55z M1651.2-119.4c0.3-1.5,1.566-2.267,3.8-2.3c-0.6,0.534-1.3,0.934-2.1,1.2
					C1652.3-120.267,1651.733-119.9,1651.2-119.4z M1779.75-113.4l-0.05,0.05C1779.333-113.35,1779.35-113.367,1779.75-113.4z
					 M1701.1-125.45c-0.363,0-0.337-0.017,0.075-0.05C1701.154-125.495,1701.129-125.479,1701.1-125.45z"/>
			</g>
		</g>
		<g>
			<path style="fill-rule:evenodd;clip-rule:evenodd;fill:#3D531A;" d="M1872.95-90.55c0-0.267,0-0.517,0-0.75
				c0.767,0.1,1.316,0.466,1.65,1.1c-0.034-0.5,0.15-0.8,0.55-0.9c3.833,2.233,8,3.817,12.5,4.75c-0.667-0.8-1.383-1.833-2.15-3.1
				c-0.566-0.933-0.55-1.767,0.05-2.5c0.467-0.6,0.85-0.667,1.15-0.2c0.167,0.2,0.35,0.383,0.55,0.55
				c0.167,0.067,0.283,0.167,0.35,0.3c0.966,1.367,2.5,1.917,4.6,1.65c0.5-0.067,1-0.15,1.5-0.25c0.267-0.033,0.517-0.117,0.75-0.25
				c1.267-0.6,2.683-0.633,4.25-0.1c2.4,0.833,4.267,1.867,5.6,3.1c0.067-0.867-0.15-1.633-0.65-2.3
				c0.934,0.567,1.75,0.55,2.45-0.05c0.466-0.433,1.117-0.417,1.95,0.05c0.867,0.467,1.733,0.917,2.6,1.35
				c0.3,0.133,0.583,0.317,0.85,0.55c0.233,0.133,0.467,0.283,0.7,0.45c0.966,0.6,1.35,0.333,1.15-0.8c0.5,0.267,1,0.367,1.5,0.3
				c0.6-0.066,1.117,0.083,1.55,0.45c0.567-0.233,0.6-0.517,0.1-0.85c1.7,0.3,3.45,0.8,5.25,1.5c0.6,0.2,1.184,0.4,1.75,0.6
				c2.133,0.633,4.417,0.85,6.85,0.65c1.667-0.133,3.216,0.2,4.65,1c0.434,0.233,0.883,0.45,1.35,0.65
				c0.167,0.033,0.316,0.117,0.45,0.25c0.134,0.133,0.25,0.267,0.35,0.4c-1.167-1.767-2.4-2.933-3.7-3.5
				c0.466-0.066,0.833-0.066,1.1,0c1.134,0.3,2.25,0.583,3.35,0.85c-1.3-1.3-2.7-2.55-4.2-3.75c-0.5-0.4-1-0.767-1.5-1.1
				c-0.567-0.367-1.167-0.683-1.8-0.95c-0.9-0.4-1.8-0.7-2.7-0.9c-0.333-0.1-0.7-0.167-1.1-0.2c-0.4-0.067-0.784-0.15-1.15-0.25
				c-2.567-0.6-4.7-1.25-6.4-1.95c0.067,0.233,0.1,0.434,0.1,0.6c0.034,0.6-0.233,0.867-0.8,0.8c-0.167-0.034-0.317-0.05-0.45-0.05
				c-0.7-0.1-1.333-0.3-1.9-0.6c-1-0.533-1.917-1.066-2.75-1.6c-0.367-0.233-0.7-0.45-1-0.65c0.233,0.9-0.033,1.284-0.8,1.15
				c-0.867-0.133-1.733-0.284-2.6-0.45c-0.034,0-0.05-0.017-0.05-0.05c-0.6-0.1-1.183-0.217-1.75-0.35c-0.8-0.2-1.6-0.4-2.4-0.6
				c-0.133,0.7-0.633,0.933-1.5,0.7c-1.1-0.3-1.983-0.684-2.65-1.15c0,0.133,0.017,0.267,0.05,0.4c0.067,0.267,0.034,0.45-0.1,0.55
				c-0.134,0.1-0.35,0.133-0.65,0.1c-0.366-0.167-0.733-0.3-1.1-0.4c-0.4-0.1-0.8-0.184-1.2-0.25c0.267,0.1,0.467,0.25,0.6,0.45
				c0.133,0.167,0.25,0.317,0.35,0.45c0.267,0.433,0.45,0.883,0.55,1.35c-0.3-0.1-0.583-0.217-0.85-0.35
				c-1.2-0.434-2.417-0.833-3.65-1.2c-1.633-0.5-3.3-0.967-5-1.4c-1.8-0.433-3.667-0.65-5.6-0.65c-0.233,0-0.483-0.033-0.75-0.1
				c-1-0.167-1.633-0.567-1.9-1.2c0.167,0.7,0.383,1.467,0.65,2.3c0.233,0.667,0.133,1-0.3,1c-1.067-0.033-2.05-0.283-2.95-0.75
				c-0.167-0.067-0.3-0.184-0.4-0.35c-0.4-0.8-0.667-1.033-0.8-0.7c0,0.4,0,0.784,0,1.15c0,0.233-0.117,0.417-0.35,0.55
				c-0.534,1.133-1.417,1.3-2.65,0.5c-0.134-0.1-0.233-0.217-0.3-0.35c-0.066-0.233-0.1,0.217-0.1,1.35
				c-1-1.033-2.216-1.917-3.65-2.65c0.167,2.467-0.117,4.667-0.85,6.6c-0.133,0.367-0.316,0.716-0.55,1.05
				c-0.767,1.1-1.55,2.183-2.35,3.25c1.067-0.6,2.117-1.433,3.15-2.5c1.367-1.367,2.167-1.2,2.4,0.5
				C1872.633-88.783,1872.883-89.55,1872.95-90.55z M1866.2-98.35c-0.567-0.433-1.134-0.8-1.7-1.1c-2.733,0.1-5.434,0.034-8.1-0.2
				c-1.767-0.167-3.5-0.417-5.2-0.75c-0.2-0.033-0.384-0.067-0.55-0.1c-0.533-0.133-1.083-0.233-1.65-0.3
				c-0.2-0.034-0.4-0.083-0.6-0.15c-0.3-0.066-0.566-0.183-0.8-0.35c-0.833-0.534-1.8-0.75-2.9-0.65c0.167,0.1,0.283,0.233,0.35,0.4
				c0.267,0.566,0.517,1.167,0.75,1.8c-0.233,0.033-0.483,0.067-0.75,0.1c-1.833,0.267-3.616,0.25-5.35-0.05
				c0.133,0.1,0.25,0.217,0.35,0.35c0.067,0.2,0.15,0.434,0.25,0.7c0.134,0.733-0.233,0.983-1.1,0.75
				c-1.5-0.434-2.983-0.967-4.45-1.6c-0.867-0.367-1.8-0.567-2.8-0.6c-0.6,0-1.2-0.033-1.8-0.1c-2.466-0.1-5,0.133-7.6,0.7
				c-0.133,0-0.267,0.017-0.4,0.05c-0.233,0.034-0.483,0-0.75-0.1c-0.233-0.1-0.433-0.184-0.6-0.25c-0.267-0.1-0.35-0.083-0.25,0.05
				c0.467,0.267,0.884,0.6,1.25,1c0.6,0.633,0.7,1.117,0.3,1.45c-1.534-0.8-3.184-1.467-4.95-2c-1.466-0.467-3.017-0.883-4.65-1.25
				c-1-0.2-1.917-0.517-2.75-0.95c-0.133-0.1-0.267-0.167-0.4-0.2c-0.4-0.2-0.55-0.183-0.45,0.05c0.133,0.1,0.25,0.217,0.35,0.35
				c0.2,0.2,0.333,0.417,0.4,0.65c0.167,0.767,0.333,1.533,0.5,2.3c0.067,0.233,0.117,0.467,0.15,0.7c0.2,0.9-0.017,1.383-0.65,1.45
				c-1,0.1-1.8-0.133-2.4-0.7c0,0.566-0.167,1-0.5,1.3c-0.167,0.133-0.3,0.184-0.4,0.15h-1.2c-0.133,0.833-0.433,1.35-0.9,1.55
				c-0.2,0.1-0.417,0.117-0.65,0.05c-0.233-0.133-0.45-0.267-0.65-0.4c-0.2-0.2-0.35-0.367-0.45-0.5c-0.267-0.6-0.383-0.7-0.35-0.3
				c0.233,0.9,0.3,1.816,0.2,2.75c-0.067,0.333-0.184,0.65-0.35,0.95c-0.767,1.333-1.65,2.434-2.65,3.3c0.333-0.067,0.6-0.2,0.8-0.4
				c0.167-0.167,0.35-0.3,0.55-0.4c1.8-0.7,3.466-1.633,5-2.8c0.167,0.767,0.7,1.033,1.6,0.8c1.1-0.233,1.517-1.017,1.25-2.35
				c0.9,0.367,1.733,0.7,2.5,1c0.233,0.067,0.45,0.067,0.65,0c0.8-0.133,1.033-0.8,0.7-2c-0.033-0.233-0.017-0.466,0.05-0.7
				c1,0.267,2.017,0.717,3.05,1.35c0.167,0.1,0.316,0.083,0.45-0.05c0.2-0.2,0.316-0.417,0.35-0.65c0.034-0.7-0.133-1.183-0.5-1.45
				c3.3,0.133,6.317,1.034,9.05,2.7c0.233,0.1,0.383,0.283,0.45,0.55c0.233,1.034,0.417,2.05,0.55,3.05
				c-0.133-1.2-0.184-2.35-0.15-3.45c0-0.267-0.017-0.517-0.05-0.75c0.267,0.067,0.517,0.133,0.75,0.2c0.167,0,0.317,0,0.45,0
				c-0.067-0.5-0.133-0.983-0.2-1.45c-0.033-0.267-0.066-0.517-0.1-0.75c0.567,0.8,1.6,1.083,3.1,0.85c0.2-0.5,0.333-0.933,0.4-1.3
				c0-0.167,0.067-0.333,0.2-0.5c5.2,2.767,10.867,4.3,17,4.6c-1.167-0.4-2.217-1.267-3.15-2.6c-0.1-0.167-0.184-0.317-0.25-0.45
				c-0.267-0.333-0.467-0.667-0.6-1c1,0.667,2.083,1.15,3.25,1.45c0.533,0.133,0.816-0.017,0.85-0.45c0-0.167,0.017-0.333,0.05-0.5
				c0.167-1,0.817-1.233,1.95-0.7c0.367,0.133,0.75,0.25,1.15,0.35c2.133,0.5,4.15,1.233,6.05,2.2c0.467,0.267,0.9,0.717,1.3,1.35
				c-0.333-0.7-0.767-1.3-1.3-1.8c-0.267-0.267-0.517-0.533-0.75-0.8c-0.6-0.633-1.083-1.184-1.45-1.65
				c0.2,0.066,0.517,0.133,0.95,0.2c0.167,0,0.333,0,0.5,0c0.5,0.033,1,0.017,1.5-0.05c-0.233-0.434-0.5-0.7-0.8-0.8
				c1.967-0.133,3.983-0.25,6.05-0.35c1.233-0.034,2.483-0.05,3.75-0.05C1866.767-97.7,1866.733-97.95,1866.2-98.35z M1786.95-86.2
				c0.3,0.034,0.583,0.034,0.85,0c-0.4-1.3-0.25-2.167,0.45-2.6c0.2-0.133,0.417-0.2,0.65-0.2c1.1-0.1,1.417-0.817,0.95-2.15
				c-0.267-0.733,0.017-1.184,0.85-1.35c0.133-0.033,0.267-0.067,0.4-0.1c0.9-0.233,1.767-0.4,2.6-0.5
				c0.366-0.066,0.683-0.066,0.95,0c0-0.033,0-0.066,0-0.1c-0.033-1.066-0.417-1.5-1.15-1.3c-0.5,0.133-1,0.283-1.5,0.45
				c-0.2,0.066-0.35,0.05-0.45-0.05c-0.366-0.533-0.966-0.617-1.8-0.25c-0.167,0.033-0.333,0.1-0.5,0.2c-0.2,0.1-0.333,0.2-0.4,0.3
				c-0.167,0.4-0.467,0.6-0.9,0.6c-0.567-0.033-1.2,0.033-1.9,0.2c-0.1,0-0.233,0.05-0.4,0.15c-0.2,0.1-0.367,0.233-0.5,0.4
				c-0.466,0.5-1.05,0.5-1.75,0c-0.1-0.1-0.216-0.15-0.35-0.15c-0.267,0.033-0.45,0.167-0.55,0.4c-0.1,0.167-0.167,0.367-0.2,0.6
				c-0.1,0.333-0.216,0.733-0.35,1.2c-0.2-0.167-0.417-0.316-0.65-0.45c-1.3-0.6-2.25-0.4-2.85,0.6c-0.134,0.167-0.267,0.3-0.4,0.4
				c-0.2,0.2-0.433,0.35-0.7,0.45c-0.167,0.067-0.333,0.05-0.5-0.05c-0.167-0.133-0.317-0.217-0.45-0.25
				c-0.433-0.3-0.683-0.167-0.75,0.4c-0.867-0.533-1.566-0.383-2.1,0.45c-0.167,0.2-0.383,0.333-0.65,0.4c-0.2,0.1-0.4,0.1-0.6,0
				c-0.433-0.267-1.066-0.267-1.9,0c0.467,1,0.7,1.617,0.7,1.85c0.1,1.9-0.117,3.717-0.65,5.45c-0.333,1.034-0.784,2.017-1.35,2.95
				c-0.067,0.167-0.15,0.3-0.25,0.4c-0.2,0.3-0.4,0.567-0.6,0.8c0.267,0,0.5,0,0.7,0c0.466,0,0.833-0.017,1.1-0.05
				c0.934,0,1.517-0.133,1.75-0.4c0.767-0.867,1.417-1.617,1.95-2.25c0.333,0.3,0.583,0.783,0.75,1.45c0,0.133,0.083,0.25,0.25,0.35
				c0.267-0.466,0.566-0.917,0.9-1.35c0.167-0.233,0.317-0.417,0.45-0.55c0.5,0.167,0.883,0.3,1.15,0.4c0.4-0.6,0.6-1.383,0.6-2.35
				c0-0.133,0.05-0.284,0.15-0.45c1.6,1.167,3.617,2.033,6.05,2.6c-0.1-0.733-0.267-1.467-0.5-2.2c-0.5-1.3-0.5-2.566,0-3.8
				c0.434-1.067,0.967-1.883,1.6-2.45c-0.033,0.133-0.033,0.367,0,0.7c0.034,0.733,0.383,1.117,1.05,1.15
				C1786.467-86.25,1786.717-86.233,1786.95-86.2z M1742-146.45c-0.167,0.333-0.517,0.4-1.05,0.2c-1.1-0.4-2.233-0.767-3.4-1.1
				c1.8,1.3,3.434,2.684,4.9,4.15c-0.767,0.067-1.517-0.05-2.25-0.35c-1.967-0.833-4-1.534-6.1-2.1
				c-0.833-0.267-1.667-0.533-2.5-0.8c-3.5-1.133-7.05-1.5-10.65-1.1c0.4,0.1,0.517,0.417,0.35,0.95
				c-1.167-0.033-2.283-0.2-3.35-0.5c-0.167-0.033-0.333-0.083-0.5-0.15c-0.7-0.267-1.05-0.3-1.05-0.1
				c1.534,0.567,2.417,1.567,2.65,3c-2.433-0.2-4.966-0.816-7.6-1.85c-0.367-0.133-0.733-0.25-1.1-0.35
				c-0.934-0.233-1.7-0.5-2.3-0.8c0,0.4,0,0.9,0,1.5c-0.833,0.033-1.216,0.417-1.15,1.15c0.2,1.434-0.017,2.55-0.65,3.35
				c-0.4-0.233-0.783-0.35-1.15-0.35c0.233,1.133-0.034,1.9-0.8,2.3c-0.3-0.633-0.55-1.267-0.75-1.9c-0.2,1.667-0.667,2.833-1.4,3.5
				c-0.2,0.167-0.4,0.3-0.6,0.4c-0.8,0.4-1.366,1.033-1.7,1.9c1.1-0.533,2.333-0.767,3.7-0.7c0.267,0,0.467-0.1,0.6-0.3
				c0.267-0.367,0.667-0.767,1.2-1.2c0.633-0.433,1.117-0.483,1.45-0.15c0.1,0.067,0.233,0.017,0.4-0.15
				c0.466-0.467,0.75-1.183,0.85-2.15c0.467,0.1,0.833,0.417,1.1,0.95c0.067,0.1,0.217,0.117,0.45,0.05
				c0.566-0.133,0.816-0.6,0.75-1.4c0-0.267,0-0.517,0-0.75c0.533,0.233,0.95,0.716,1.25,1.45c0.6-0.033,0.933-0.383,1-1.05
				c0.033-0.033,0.167-0.033,0.4,0c0.8,0.066,1.533,0.233,2.2,0.5c0.433,0.133,0.85,0.3,1.25,0.5c0.933,0.467,1.9,0.816,2.9,1.05
				c0.533,0.1,1.05,0.283,1.55,0.55c1.5,0.667,2.133,1.8,1.9,3.4c0.6-1.167,0.583-2.4-0.05-3.7c0-0.033,0-0.066,0-0.1
				c0.1,0.067,0.233,0.117,0.4,0.15c0.167,0.033,0.317,0.083,0.45,0.15c0.633,0.233,1,0.15,1.1-0.25
				c0.066-0.833-0.317-1.267-1.15-1.3c3.367-0.033,6.35,0.967,8.95,3c0.367,0.233,0.7,0.517,1,0.85c0.967,0.967,1.434,2.25,1.4,3.85
				c0.267-2.433-0.233-4.567-1.5-6.4c0.9,0.566,1.817,1.15,2.75,1.75c0.3,0.2,0.617,0.4,0.95,0.6c1.633,0.767,3.417,1.233,5.35,1.4
				c-0.4-0.667-1.034-1.184-1.9-1.55c-0.533-0.233-1.15-0.6-1.85-1.1c2.1,1.133,4.483,1.65,7.15,1.55
				c-0.8-0.633-1.684-1.15-2.65-1.55c0.933,0.167,1.55,0.033,1.85-0.4c0.333-0.433,0.983-0.533,1.95-0.3
				c1.566,0.367,3.1,0.833,4.6,1.4c1.367,0.567,2.733,1.1,4.1,1.6c-1.9-2.133-4.05-3.65-6.45-4.55c0.467-0.4,1.233-0.567,2.3-0.5
				c2.634,0.2,4.983,0.917,7.05,2.15c1.233,0.7,2.267,1.316,3.1,1.85c0.433,0.267,0.75,0.6,0.95,1c-0.133-0.8-0.183-1.667-0.15-2.6
				c0-0.133,0-0.267,0-0.4c2.367,0.767,4.883,1.15,7.55,1.15c-0.033-0.667-0.417-0.983-1.15-0.95c-0.133-0.467,0.367-0.65,1.5-0.55
				c2.967,0.233,5.883,0.767,8.75,1.6c-0.167-0.1-0.333-0.233-0.5-0.4c-0.167-0.2-0.383-0.35-0.65-0.45
				c-2.6-1.467-5.383-2.733-8.35-3.8c-0.667-0.233-1.417-0.367-2.25-0.4h-0.4c-0.133,0-0.25-0.017-0.35-0.05
				c-1.633-0.033-3.267-0.133-4.9-0.3c0.2,0.467,0.316,0.967,0.35,1.5c-0.767-0.133-1.4-0.4-1.9-0.8c-0.934-0.733-1.934-1.233-3-1.5
				c-3.567-0.967-7.217-1.933-10.95-2.9c-1.2-0.3-2.467-0.45-3.8-0.45C1742.217-146.6,1742.066-146.55,1742-146.45z M1722.75-138.7
				c-0.5-0.133-0.6-0.25-0.3-0.35C1722.55-138.95,1722.65-138.833,1722.75-138.7z"/>
		</g>
	</g>
</symbol>
<use xlink:href="#ground_x5F_03"  width="643.95" height="105" x="1343.85" y="-161" transform="matrix(1 0 0 -1 -1343.8501 -56)" style="overflow:visible;"/>
</svg>
