<?xml version="1.0" encoding="iso-8859-1"?>
<!-- Generator: Adobe Illustrator 16.0.0, SVG Export Plug-In . SVG Version: 6.00 Build 0)  -->
<!DOCTYPE svg PUBLIC "-//W3C//DTD SVG 1.1//EN" "http://www.w3.org/Graphics/SVG/1.1/DTD/svg11.dtd">
<svg version="1.1" id="Layer_1" xmlns="http://www.w3.org/2000/svg" xmlns:xlink="http://www.w3.org/1999/xlink" x="0px" y="0px"
	 width="557px" height="134px" viewBox="0 0 557 134" style="enable-background:new 0 0 557 134;" xml:space="preserve">
<symbol  id="ground_x5F_04" viewBox="2892.043 -244.7 553.145 130.2">
	<g id="Layer_3_1_">
		<g>
			<path style="fill-rule:evenodd;clip-rule:evenodd;fill:#547028;" d="M3106.25-223.15c-0.485-0.207-0.977-0.44-1.475-0.7
				c-0.073,0.169-0.148,0.336-0.225,0.5c-0.049,0.12-0.099,0.237-0.15,0.35c-0.533,1.167-0.966,2.433-1.3,3.8
				c-0.2,0.767-0.35,1.55-0.45,2.35c-0.07,0.58-0.103,1.146-0.1,1.7c1.337-0.167,2.521-0.25,3.55-0.25c0.5,0,0.95,0.25,1.35,0.75
				c0.233,0.3,0.65,0.867,1.25,1.7c1.467,1.633,3.883,2.45,7.25,2.45c0.733,0,1.183-0.017,1.35-0.05c0.367-0.1,0.733-0.333,1.1-0.7
				c1.467,1.433,2.867,2.517,4.2,3.25c1.3,0.767,2.55,1.2,3.75,1.3c1.5,0.133,3.95,0,7.35-0.4c1.066,0,1.85,0.317,2.35,0.95
				c0.467,0.6,1,1.917,1.6,3.95c0.267,0,0.4-0.367,0.4-1.1c0.667,0.6,1.8,1.85,3.4,3.75h0.75c0-1-0.117-1.633-0.35-1.9v-0.35
				c0.6,0.066,1.583,0.55,2.95,1.45c0.767,0.5,1.917,1.267,3.45,2.3h0.4c-0.2-0.5-0.383-0.983-0.55-1.45
				c-0.2-0.333-0.65-0.85-1.35-1.55c0.767,0.6,1.367,1.05,1.8,1.35c0.267,0.167,0.467,0.3,0.6,0.4c1.1,0.7,2.183,1,3.25,0.9
				l0.05-0.2c0.066-0.133,0.183-0.2,0.35-0.2c0-0.534-0.417-1.3-1.25-2.3l14.35,7.7c-0.367-0.367-0.817-0.8-1.35-1.3
				c-0.6-0.566-1.1-0.966-1.5-1.2c3.5,1.2,6.717,2.483,9.65,3.85c3,1.433,5.3,2.767,6.9,4c0.8,0.1,1.583,0.483,2.35,1.15
				c1.1,1,2.283,1.867,3.55,2.6c0.233,0.133,0.45,0.2,0.65,0.2c0.4,0,0.8-0.017,1.2-0.05c1.3-0.067,2.233-0.45,2.8-1.15
				c0.167-0.2,0.45-0.3,0.85-0.3c1,0,1.95,0.167,2.85,0.5c0.133,0.067,0.2,0.3,0.2,0.7c0.2-0.4,0.434-0.783,0.7-1.15
				c0.167-0.233,0.35-0.45,0.55-0.65c1.167,3,3.217,5.15,6.15,6.45c0.767,0.333,1.5,0.417,2.2,0.25
				c0.733,0.833,1.567,1.583,2.5,2.25c2.633,1.9,6.1,3.05,10.4,3.45c0.233,0.033,0.434,0.167,0.6,0.4c1.067,1.333,2.1,2.85,3.1,4.55
				v4.9c-0.733-0.6-1.533-1.167-2.4-1.7c-0.233-0.133-0.467-0.233-0.7-0.3c-1.867-0.466-3.067-1.333-3.6-2.6
				c0,0.6-0.033,1.2-0.1,1.8c-0.267,1.6-0.85,3.017-1.75,4.25c-0.333-1.2-0.95-2.4-1.85-3.6c-0.167-0.233-0.367-0.417-0.6-0.55
				c-1.767-1.033-3.367-2.1-4.8-3.2c-0.233-0.167-0.417-0.367-0.55-0.6c-0.5-0.9-1.317-1.75-2.45-2.55
				c-0.367-0.267-0.65-0.4-0.85-0.4c-0.167,0.033-0.284,0.1-0.35,0.2c-1.2,0.8-2.383,1.55-3.55,2.25
				c-2.4-0.667-4.717-1.483-6.95-2.45c-0.566-0.233-1.1-0.517-1.6-0.85c-0.8-0.5-1.233-0.317-1.3,0.55
				c0.633,0.3,1.017,0.784,1.15,1.45c-0.2,0.2-0.383,0.283-0.55,0.25c-3.3-0.767-6.55-1.5-9.75-2.2c-0.434-0.1-0.8-0.3-1.1-0.6
				c-1-1.1-2.083-1.667-3.25-1.7c0.233,0.2,0.45,0.4,0.65,0.6c0.2,0.2,0.417,0.367,0.65,0.5c1.4,0.6,2.2,1.65,2.4,3.15
				c-2.267-0.3-4.483-0.733-6.65-1.3c-1.767-0.467-3.15-1.184-4.15-2.15c0.133,0.167,0.217,0.333,0.25,0.5
				c0.133,0.367,0.3,0.633,0.5,0.8c0.467,0.367,0.566,1.083,0.3,2.15c-1.133,0.1-2.15-0.1-3.05-0.6c-0.4-0.2-0.75-0.45-1.05-0.75
				c-1.1-0.967-1.767-1.117-2-0.45c0.2,0.2,0.4,0.4,0.6,0.6c0.434,0.4,0.867,0.784,1.3,1.15c2.767,2.133,4.167,4.8,4.2,8
				c-0.866-1.534-1.717-3.15-2.55-4.85c-0.333-0.633-0.75-1.2-1.25-1.7c-1.566-1.467-3.333-2.583-5.3-3.35
				c-3.567-1.433-7.434-2.3-11.6-2.6c-1.5-0.1-2.517,0.2-3.05,0.9c0.167,0.433,0.367,0.85,0.6,1.25c0.833,1.6,2.05,2.816,3.65,3.65
				c-0.4,0-0.8-0.033-1.2-0.1c-2.5-0.467-4.617-1.55-6.35-3.25c0.066,0.1,0.15,0.2,0.25,0.3c0.2,0.2,0.417,0.383,0.65,0.55
				c1.267,0.9,1.867,2.133,1.8,3.7c-0.2-0.2-0.417-0.383-0.65-0.55c-1.233-0.867-2.65-2.1-4.25-3.7
				c0.767,2.133,2.017,4.15,3.75,6.05c1.233,1.333,2.384,2.883,3.45,4.65c-0.267,0-0.533-0.017-0.8-0.05
				c-0.833-0.267-1.533-0.567-2.1-0.9c-0.4-0.2-0.767-0.45-1.1-0.75c-1.2-1.034-1.9-1.35-2.1-0.95c0.667,0.7,1.1,1.5,1.3,2.4
				c-0.934-0.033-1.833-0.066-2.7-0.1c-0.767-0.767-1.45-1.6-2.05-2.5c-0.233-0.367-0.5-0.7-0.8-1c-1.633-1.7-3.817-2.383-6.55-2.05
				c-0.4,0.033-0.767-0.033-1.1-0.2c-1.3-0.667-2.566-1.383-3.8-2.15c0,0.2,0.017,0.4,0.05,0.6c0.233,1.067,0.017,1.667-0.65,1.8
				c-0.2-0.2-0.417-0.383-0.65-0.55c-0.567-0.467-1.167-0.883-1.8-1.25c0.2,0.9,0.583,1.733,1.15,2.5
				c0.9,1.333,0.934,2.317,0.1,2.95c-1-0.034-1.7-0.6-2.1-1.7c-0.233-0.7-0.583-1.317-1.05-1.85c-3.167-3.566-6.767-6.25-10.8-8.05
				c-0.767-0.367-1.6-0.5-2.5-0.4c-0.8,0.1-1.617,0.216-2.45,0.35c-0.4,0.067-0.767,0.017-1.1-0.15
				c-0.267-0.133-0.567-0.283-0.9-0.45c-0.4,0.267-0.684,0.45-0.85,0.55c0-0.333-0.15-0.65-0.45-0.95
				c-0.233-0.2-0.434-0.383-0.6-0.55c-0.133-0.033-0.25-0.083-0.35-0.15c0,0.4,0.033,0.8,0.1,1.2c0.2,1.3-0.034,2.117-0.7,2.45
				c-0.233-0.333-0.433-0.733-0.6-1.2c-0.8,0.7-1.2,1.383-1.2,2.05c0,0.933,0.433,1.733,1.3,2.4c0.433,0.333,1.133,0.867,2.1,1.6
				c-0.7-0.2-1.417-0.383-2.15-0.55c-0.3-0.133-0.6-0.283-0.9-0.45c-1.434-0.867-2.434-1.434-3-1.7l0.4,0.4
				c0.2,0.2,0.317,0.567,0.35,1.1c-0.634-0.1-1.283-0.183-1.95-0.25c-0.5-0.2-0.983-0.433-1.45-0.7c-0.1,0.167-0.183,0.333-0.25,0.5
				c-3.333-0.3-6.95-0.35-10.85-0.15l-0.05-0.05c-0.367,0-0.733,0.033-1.1,0.1c-2.967,0.2-6.1,0.55-9.4,1.05
				c-0.733-0.133-1.483-0.333-2.25-0.6c-0.433-0.167-0.867-0.3-1.3-0.4c-0.5-0.1-0.867-0.167-1.1-0.2c2.2-0.9,4.267-2.284,6.2-4.15
				c-0.134,0.034-0.25,0.067-0.35,0.1c-0.9,0.233-1.667,0.417-2.3,0.55c0.6-0.467,1.283-1.05,2.05-1.75
				c1.867-1.733,2.966-3.284,3.3-4.65c0.034-0.233,0.05-0.6,0.05-1.1l0.3-0.3c0.033-0.066,0.05-0.333,0.05-0.8
				c0-0.4-0.25-0.8-0.75-1.2c-0.5-0.433-1-0.667-1.5-0.7h1.9c-0.967-0.5-1.733-1-2.3-1.5v-0.4h5.3c2.633,0.934,4.116,1.45,4.45,1.55
				c0.833,0.233,1.617,0.35,2.35,0.35c0.333,0,0.717-0.133,1.15-0.4c0.4-0.233,0.767-0.35,1.1-0.35c0.8,0,1.7,0.216,2.7,0.65h0.05
				c-0.1-1.767-0.217-3.533-0.35-5.3c-0.033-0.2-0.15-0.4-0.35-0.6c-0.4-0.434-0.8-0.85-1.2-1.25c2.966,2.133,6.617,3.55,10.95,4.25
				c0.2,0.033,0.4,0.05,0.6,0.05c0-0.067,0-0.133,0-0.2c-0.067-0.1-0.15-0.183-0.25-0.25c-0.8-0.833-1.7-1.466-2.7-1.9
				c0.467,0.167,1.283,0.417,2.45,0.75c-0.2-0.267-0.45-0.517-0.75-0.75c0.433-0.066,0.85-0.066,1.25,0
				c0.867,0.167,1.267-0.066,1.2-0.7c-1.067-0.767-1.267-1.15-0.6-1.15c4.467-0.133,8.733,0.434,12.8,1.7
				c2.333,0.733,4.65,1.483,6.95,2.25c-0.167-0.633-0.45-1.383-0.85-2.25c-0.667-1.633-1.45-2.667-2.35-3.1
				c0.767,0.267,2.017,0.6,3.75,1c0.134-0.133,0.233-0.217,0.3-0.25c0.033-0.033,0.05-0.267,0.05-0.7c0-1.934-2.05-3.317-6.15-4.15
				c-5.3-0.667-9.167-1.233-11.6-1.7c0.467,0,1.133-0.133,2-0.4c1.1-0.3,1.817-0.684,2.15-1.15c-0.366-0.933-1.05-1.783-2.05-2.55
				c-0.566-0.433-1.233-0.833-2-1.2c-2.267-1.1-4.316-1.35-6.15-0.75v-0.4c0.233,0,1.05-0.2,2.45-0.6
				c1.367-0.367,2.184-0.55,2.45-0.55c-0.502-1.034-1.452-1.542-2.85-1.525c-0.127,0.414-0.361,0.705-0.7,0.875
				c0-0.233-0.05-0.434-0.15-0.6c-0.1-0.233-0.183-0.467-0.25-0.7c-0.337-0.995-0.712-1.978-1.125-2.95
				c-0.686,0.047-1.478,0.198-2.375,0.45c-1.167,0.3-1.95,0.65-2.35,1.05c0.572-0.746,2.063-1.438,4.475-2.075
				c-0.38-0.833-0.788-1.658-1.225-2.475c-0.233-0.433-0.434-0.633-0.6-0.6c-0.567,0.066-1.4,0.05-2.5-0.05
				c-0.1-1.6,0.5-2.65,1.8-3.15c0.233-0.133,0.383-0.317,0.45-0.55c0.133-0.367,0.267-0.583,0.4-0.65
				c1.21-0.556,1.359-1.322,0.45-2.3c-0.015-0.014-0.032-0.031-0.05-0.05c-0.382,0-0.749,0.042-1.1,0.125
				c-0.017,0.012-0.033,0.02-0.05,0.025c-0.434,0.1-0.883,0.2-1.35,0.3c-0.567,0.133-1.133,0.283-1.7,0.45
				c-2.107,0.563-4.207,0.646-6.3,0.25c-4.583,0.688-9.482,1.654-14.7,2.9c-8.033,2.5-14.934,4.167-20.7,5
				c-10.333,1.433-21.733,0.667-34.2-2.3c-13.167-3.133-25.717-3.65-37.65-1.55c-2.38,0.425-4.68,0.941-6.9,1.55
				c-6.127,1.655-11.627,3.988-16.5,7c-1.425,0.877-4.617,2.302-9.575,4.275c-1.078,0.437-2.236,0.895-3.475,1.375
				c-8.333,3.167-14.667,5.783-19,7.85c-1.528,0.73-2.995,1.472-4.4,2.225c-4.186,2.228-7.827,4.536-10.925,6.925
				c-7.228,5.562-11.52,11.562-12.875,18c-0.525,2.543-0.051,5.093,1.425,7.65c0.274,0.963,0.508,1.838,0.7,2.625
				c0.149,0.611,0.274,1.169,0.375,1.675c0.132,0.658,0.223,1.275,0.275,1.85c0.092,1.256-0.016,2.323-0.325,3.2
				c0.076-0.11,0.226-0.243,0.45-0.4c0.333-0.267,0.5-0.583,0.5-0.95h1c0,1,0.333,2.167,1,3.5c0.5-0.167,0.833-0.5,1-1l0.25-0.05
				c0.167-0.1,0.25-0.25,0.25-0.45c0.6,0.6,3.1,3.433,7.5,8.5h0.5c-0.167-0.5-0.4-1.167-0.7-2c-0.099-0.344-0.174-0.677-0.225-1
				c1.56-0.16,2.652-0.026,3.275,0.4c0.667,0.434,1.217,1.467,1.65,3.1l1.05-0.7c0.3-0.2,0.7-0.3,1.2-0.3
				c0.933,0,1.683,0.833,2.25,2.5c0.967-0.9,1.917-0.867,2.85,0.1c0.867,0.9,1.25,1.867,1.15,2.9c0.323,0,0.49,0.158,0.5,0.475
				v-0.975l0.25-0.05c0.167-0.1,0.25-0.25,0.25-0.45c0.433,0.433,1.317,1.15,2.65,2.15c1.7,1.233,2.817,1.85,3.35,1.85
				c0.433,0,0.767-0.167,1-0.5c0.267-0.333,0.6-0.5,1-0.5c1.167,0,2.083,0.383,2.75,1.15c0.467,0.533,1.55,1.817,3.25,3.85
				c0.3-0.2,0.817-0.433,1.55-0.7c0.6-0.267,0.917-0.7,0.95-1.3c1.2,0.8,4.534,1.233,10,1.3c4.6,0.667,6.433,3.067,5.5,7.2l1.5-3
				c0.534,0,1.383,0.45,2.55,1.35c1.267,0.967,2.417,1.517,3.45,1.65v-2c1.2,1,2.183,1.683,2.95,2.05
				c0.8,0.434,2.15,0.917,4.05,1.45v-1.5c1.7,0,3.633,0.667,5.8,2c2.167,1.333,3.4,2,3.7,2c0.534,0,0.85-0.1,0.95-0.3
				c0.033-0.067,0.05-0.3,0.05-0.7c0.233,0.133,0.75,0.45,1.55,0.95c0.667,0.6,0.816,1.45,0.45,2.55c0.767,0,1.633-0.15,2.6-0.45
				c1.2-0.4,2-0.917,2.4-1.55c0.6,1.2,2.367,2.2,5.3,3c2.4,0.667,4.467,1,6.2,1c0.534,0,0.85-0.1,0.95-0.3
				c0.033-0.067,0.05-0.3,0.05-0.7c1.057,0.835,2.624,1.668,4.7,2.5c0.393-0.195,0.826-0.362,1.3-0.5
				c1.215-0.363,2.699-0.546,4.45-0.55c-0.262-0.004-0.471-0.038-0.625-0.1c-0.049,0.029-0.074,0.062-0.075,0.1
				c0-0.04,0-0.082,0-0.125c-0.259-0.106-0.359-0.297-0.3-0.575c0.053-0.308,0.103-0.517,0.15-0.625c0.038-0.131,0.071-0.131,0.1,0
				c0.625,0.017,1.324,0.042,2.1,0.075c2.933-0.1,4.667-0.667,5.2-1.7c0.167,0.067,0.667,0.367,1.5,0.9c0.667,0.4,1.167,0.6,1.5,0.6
				c0.534,0,0.967-0.1,1.3-0.3c0.066-0.067,0.3-0.3,0.7-0.7c0.7,0.533,1.3,1.067,1.8,1.6c0.333,0.267,0.983,0.4,1.95,0.4
				c1.867,0,3.034-0.05,3.5-0.15c1.467-0.3,2.717-1.083,3.75-2.35v2h4c0.3-0.267,0.833-0.7,1.6-1.3c0.667-0.667,1.133-1.4,1.4-2.2
				c0.167-0.033,1.1,0.267,2.8,0.9c1.667,0.6,2.566,0.967,2.7,1.1h2.6l-1.475-1.475c0.565,0.033,1.273,0.125,2.125,0.275
				c0.667,0.133,1.784,0.367,3.35,0.7h4c-0.4-0.367-1.367-0.95-2.9-1.75c-1.6-0.833-2.633-1.25-3.1-1.25v-0.5
				c0.4-0.1,2.233-1.133,5.5-3.1c3.667-1.933,6.75-2.9,9.25-2.9c0.6,0,0.95,0.033,1.05,0.1c0.267,0.167,0.333,0.633,0.2,1.4
				c0.233-0.333,0.533-0.833,0.9-1.5c0.396-0.758,0.596-1.258,0.6-1.5c0.001,0.338,0.085,0.838,0.25,1.5
				c0.167,0.667,0.25,1.167,0.25,1.5c0.6-0.967,1-1.75,1.2-2.35c0.1-0.1,0.7-0.15,1.8-0.15c0.566,0,1.667-0.65,3.3-1.95
				c0.765-0.625,1.373-1.158,1.825-1.6c-0.106-0.229-0.182-0.413-0.225-0.55c-0.3-0.933-0.367-1.633-0.2-2.1
				c0.7,0.167,1.967,0.333,3.8,0.5c1.667,0.167,2.8,0.25,3.4,0.25c2.534,0,4.883-0.2,7.05-0.6c0.916-0.155,1.833-0.28,2.75-0.375
				l0.8-1.575c0-0.2-0.2-0.367-0.6-0.5c-0.767-0.267-1.233-0.433-1.4-0.5c0.333-0.067,2.583-0.833,6.75-2.3
				c2.733-0.934,4.983-1.333,6.75-1.2v-2.5c0.533,0.767,0.95,1.4,1.25,1.9c0.1,0.067,0.517,0.1,1.25,0.1c0.566,0,0.934-0.1,1.1-0.3
				c0.064-0.107,0.214-0.308,0.45-0.6c-0.033-0.258-0.05-0.708-0.05-1.35c0-1.8,0.383-2.933,1.15-3.4
				c0.267-0.167,1.55-0.45,3.85-0.85c-0.233,0.233-0.383,0.517-0.45,0.85c-0.033,0.233-0.05,0.7-0.05,1.4s0.017,1.167,0.05,1.4
				c0.067,0.333,0.217,0.617,0.45,0.85c0-0.333,0.083-0.833,0.25-1.5s0.25-1.167,0.25-1.5l0.25-0.05c0.167-0.1,0.25-0.25,0.25-0.45
				c0.934,0.267,1.75,0.783,2.45,1.55c0.566,0.6,1.417,0.917,2.55,0.95c0-2.333-0.167-4-0.5-5c0.3,0,0.934-0.083,1.9-0.25
				c0.967-0.167,1.667-0.25,2.1-0.25c1.566,0,3.017,0.367,4.35,1.1c1.466,0.8,2.183,1.767,2.15,2.9h0.5v-5.5h5.5l2.5,2v-2.5
				c0.333,0,0.5,0.167,0.5,0.5c1,0,2.15-0.35,3.45-1.05c0.261-0.133,0.527-0.284,0.8-0.45c1.667-1,2.917-1.5,3.75-1.5
				c0.434,0,0.6,0.167,0.5,0.5c-0.066,0.333,0.1,0.5,0.5,0.5c0.5,0,0.867-0.1,1.1-0.3c0.433-0.4,0.733-0.633,0.9-0.7
				c0.167,0.6,0.667,1.25,1.5,1.95c0.8,0.7,1.383,1.05,1.75,1.05c0.533,0,0.816-0.183,0.85-0.55c0.033-0.233,0-0.55-0.1-0.95
				c0.233,0.4,1.117,0.9,2.65,1.5c0.112,0.043,0.229,0.085,0.35,0.125c0.853,0.336,2.02,0.794,3.5,1.375v-2l0.25-0.05
				c0.167-0.1,0.25-0.25,0.25-0.45c0.559,0.046,1.217,0.222,1.975,0.525c0.321,0.136,0.663,0.294,1.025,0.475
				c1.833,0.933,2.833,1.433,3,1.5l-2-3.5h5.5c1.767,0.7,3.483,1.383,5.15,2.05c0.833,0.4,1.45,1.05,1.85,1.95h1
				c0.3-0.767,0.15-1.417-0.45-1.95c-0.866-0.767-1.383-1.45-1.55-2.05c0.333,0,1.517,0.25,3.55,0.75c2,0.5,3.233,0.75,3.7,0.75
				c0.167,0,0.583-0.167,1.25-0.5c0.7-0.333,1.117-0.5,1.25-0.5c1.434,0,2.883,0.383,4.35,1.15c1.833,1,2.8,2.283,2.9,3.85
				c0.267-0.4,0.75-0.883,1.45-1.45c0.833-0.7,1.517-1.05,2.05-1.05l5.25,0.5c1.2,0,2.117,0.5,2.75,1.5c0.6,1,1.517,1.5,2.75,1.5
				c0.934,0,1.45-0.017,1.55-0.05c0.1-0.034,0.333-0.35,0.7-0.95c0.733,1.5,3.9,3.5,9.5,6h0.5c0-0.633-0.267-1.317-0.8-2.05
				c-0.634-0.733-1.033-1.217-1.2-1.45v-0.5c2.233,0.9,6,1.683,11.3,2.35c4.367,1.066,6.934,3.45,7.7,7.15
				c0.434-0.4,1.25-0.9,2.45-1.5c0.667-0.333,1.683-0.833,3.05-1.5c0.767,1.467,1.467,2.15,2.1,2.05
				c0.333-0.033,0.633-0.216,0.9-0.55c0.033,0,0.95,0.667,2.75,2c1.934,1.333,3.35,2,4.25,2c0-0.667-0.333-2-1-4
				c0.967,0.967,2.4,1.983,4.3,3.05c2.3,1.3,4.2,1.95,5.7,1.95c0.434,0,0.6-0.167,0.5-0.5c-0.066-0.333,0.1-0.5,0.5-0.5
				c0.066,0,1.367,0.4,3.9,1.2c0.279,0.131,0.537,0.265,0.775,0.4c1.054,0.624,1.704,1.323,1.95,2.1
				c0.125,0.428,0.134,0.878,0.025,1.35c0.162-0.377,0.445-0.735,0.85-1.075c0.203-0.183,0.436-0.358,0.7-0.525
				c0.533-0.333,1.133-0.65,1.8-0.95c0.033,0.4,0.35,0.9,0.95,1.5c0.195,0.195,0.453,0.445,0.775,0.75
				c0.226,0.223,0.484,0.473,0.775,0.75c0.2,0,0.367-0.183,0.5-0.55c0.007-0.018,0.016-0.035,0.025-0.05
				c0.188-0.471,0.347-0.771,0.475-0.9c0.085,0,0.769,0.358,2.05,1.075c0.741,0.408,1.675,0.933,2.8,1.575
				c3.367,1.934,6.417,3.217,9.15,3.85c-0.6-0.3-1.3-0.9-2.1-1.8l-2.4-2.7c0.467,0.133,2.1,0.767,4.9,1.9
				c2.867,1.067,4.9,1.6,6.1,1.6c2,0,3.8,0.25,5.4,0.75c1.7,0.567,3.4,1.483,5.1,2.75c0-0.333-0.083-0.75-0.25-1.25
				s-0.25-0.917-0.25-1.25l2,2c0-0.167,0.083-0.417,0.25-0.75s0.25-0.583,0.25-0.75c0.566,0,1.7,0.333,3.4,1
				c1.733,0.667,2.767,1,3.1,1c0-0.167-0.083-0.333-0.25-0.5s-0.25-0.333-0.25-0.5c0.9,0.133,1.75,0.45,2.55,0.95
				c1,0.566,1.65,1.25,1.95,2.05c0.533-1,1.65-1.917,3.35-2.75c1.033-0.5,2.75-1.25,5.15-2.25c0.333,0,0.5,0.5,0.5,1.5
				c0.233,0,1.5-0.4,3.8-1.2c2.333-0.8,3.9-1.233,4.7-1.3c0.333,1.1,0.783,1.75,1.35,1.95c0.133,0.033,0.767,0.05,1.9,0.05
				c0.434,0,1.233-0.167,2.4-0.5s1.95-0.5,2.35-0.5c0.533,0,0.967,0.1,1.3,0.3c0.067,0.034,0.3,0.267,0.7,0.7h4l-4-3v-0.5
				c0.5,0.233,1.3,0.467,2.4,0.7c1.067,0.2,1.933,0.3,2.6,0.3c0.867,0,1.667-0.3,2.4-0.9c0.433-0.367,1.117-0.983,2.05-1.85
				c1.725-1.259,4.408-1.651,8.05-1.175c0.785,0.099,1.619,0.24,2.5,0.425h0.5l-2.5-2.5h6c0-0.33-0.325-0.822-0.975-1.475
				l-0.025-0.025c1.833-0.367,5.733-1.717,11.7-4.05c3.633-1.434,7.566-1.75,11.8-0.95c-0.066-1.1,0-1.733,0.2-1.9
				c0.066-0.067,0.583-0.1,1.55-0.1c0.6,0,0.95,0.017,1.05,0.05c0.267,0.167,0.333,0.65,0.2,1.45h1.5
				c0.367-2.133,0.583-3.2,0.65-3.2c0.167,0.034,0.784,0.267,1.85,0.7c1.367,0,5.283-1.667,11.75-5
				c1.161-0.602,2.244-1.151,3.25-1.65c2.569-1.253,4.645-2.153,6.225-2.7c1.226-0.433,2.151-0.65,2.775-0.65
				c0.289,0,0.547,0.075,0.775,0.225c0.117,0.072,0.225,0.164,0.325,0.275c0.3,0.333,0.6,0.5,0.9,0.5h0.5
				c0-0.311-0.033-0.602-0.1-0.875c-0.141-0.622-0.441-1.164-0.9-1.625c0.344,0.333,1.177,0.5,2.5,0.5l0.05-0.25
				c0.1-0.167,0.25-0.25,0.45-0.25c0-0.333-0.083-0.75-0.25-1.25s-0.25-0.917-0.25-1.25c0.733-0.367,2.033-0.8,3.9-1.3
				c1.833-0.5,3.034-0.9,3.6-1.2c-0.934-0.667-1.6-1.167-2-1.5c0.084-0.228,0.292-0.503,0.625-0.825
				c0.941-0.617,1.841-1.292,2.7-2.025c0.077-0.053,0.152-0.104,0.225-0.15c1.967-1.3,2.95-2.3,2.95-3v-0.05
				c0.647-0.777,1.265-1.593,1.85-2.45c0.179-0.26,0.354-0.519,0.525-0.775c2.653-4.106,4.261-8.665,4.825-13.675
				c0.633-5.333,0-10.267-1.9-14.8c-1.552-3.688-3.776-6.688-6.675-9c-1.146-0.18-2.321-0.313-3.525-0.4
				c-1.5-0.1-2.517,0.2-3.05,0.9c0.167,0.433,0.367,0.85,0.6,1.25c0.833,1.6,2.05,2.817,3.65,3.65c-0.4,0-0.8-0.033-1.2-0.1
				c-2.5-0.466-4.617-1.55-6.35-3.25c0.066,0.1,0.15,0.2,0.25,0.3c0.2,0.2,0.417,0.383,0.65,0.55c1.267,0.9,1.867,2.133,1.8,3.7
				c-0.2-0.2-0.417-0.383-0.65-0.55c-1.233-0.867-2.65-2.1-4.25-3.7c0.767,2.133,2.017,4.15,3.75,6.05c1.3,1.4,2.5,3.033,3.6,4.9
				c-1.267-0.333-2.283-0.733-3.05-1.2c-0.4-0.2-0.767-0.45-1.1-0.75c-1.2-1.033-1.9-1.35-2.1-0.95c1.034,1.1,1.483,2.467,1.35,4.1
				c-0.4,0-0.733-0.1-1-0.3c-1.533-1.133-2.8-2.467-3.8-4c-0.233-0.367-0.5-0.7-0.8-1c-1.633-1.7-3.817-2.383-6.55-2.05
				c-0.4,0.033-0.767-0.033-1.1-0.2c-1.3-0.667-2.566-1.383-3.8-2.15c0,0.2,0.017,0.4,0.05,0.6c0.233,1.067,0.017,1.667-0.65,1.8
				c-0.2-0.2-0.417-0.383-0.65-0.55c-0.567-0.467-1.167-0.883-1.8-1.25c0.2,0.9,0.583,1.733,1.15,2.5
				c0.9,1.333,0.934,2.317,0.1,2.95c-1-0.033-1.7-0.6-2.1-1.7c-0.233-0.7-0.583-1.316-1.05-1.85c-3.167-3.566-6.767-6.25-10.8-8.05
				c-0.767-0.367-1.6-0.5-2.5-0.4c-0.8,0.1-1.617,0.217-2.45,0.35c-0.4,0.066-0.767,0.017-1.1-0.15
				c-0.867-0.4-1.917-0.917-3.15-1.55c0,0.4,0.033,0.8,0.1,1.2c0.2,1.3-0.034,2.117-0.7,2.45c-0.433-0.633-0.783-1.467-1.05-2.5
				c-0.1-0.367-0.35-0.55-0.75-0.55s-0.683-0.1-0.85-0.3c-0.267-0.4-0.4-0.917-0.4-1.55c0-1.333-0.133-1.683-0.4-1.05
				c-0.333,0.5-0.617,1.05-0.85,1.65c-0.933,2.566-2,5.183-3.2,7.85c-0.533,1.167-0.966,2.433-1.3,3.8
				c-0.2,0.767-0.35,1.55-0.45,2.35c-0.333,2.767,0.133,5.2,1.4,7.3c0.9,1.467,1.483,2.9,1.75,4.3c-0.7-0.3-1.45-0.967-2.25-2
				c-2.133-2.6-4.017-4.583-5.65-5.95c-0.367,0.433-0.5,1.05-0.4,1.85c0.133,1.3-0.133,2.117-0.8,2.45c0-0.233-0.05-0.433-0.15-0.6
				c-0.1-0.233-0.183-0.467-0.25-0.7c-0.7-2.067-1.566-4.067-2.6-6c-0.233-0.433-0.434-0.633-0.6-0.6
				c-0.567,0.067-1.4,0.05-2.5-0.05c-0.1-1.6,0.5-2.65,1.8-3.15c0.233-0.133,0.383-0.317,0.45-0.55
				c0.133-0.367,0.267-0.583,0.4-0.65c1.233-0.567,1.367-1.35,0.4-2.35c-0.4,0-0.783,0.05-1.15,0.15c-0.434,0.1-0.883,0.2-1.35,0.3
				c-0.567,0.133-1.133,0.283-1.7,0.45c-2.867,0.767-5.717,0.65-8.55-0.35c-0.433-0.167-0.867-0.3-1.3-0.4
				c-0.5-0.1-0.867-0.167-1.1-0.2c2.967-1.2,5.684-3.283,8.15-6.25c0.4-0.467,0.75-0.983,1.05-1.55c0.5-0.966,0.65-2,0.45-3.1
				c1.167,0.733,2.4,1.2,3.7,1.4c0.6,0.1,1.133-0.033,1.6-0.4c0.333-0.267,0.55-0.617,0.65-1.05c0.1-0.566,0.15-1.15,0.15-1.75
				c0.533,0.233,1.15,0.633,1.85,1.2c0.2,0.2,0.4,0.4,0.6,0.6c0.633-0.633,0.85-1.434,0.65-2.4c-0.034-0.2-0.05-0.4-0.05-0.6
				c0.767,0.867,1.983,1.433,3.65,1.7c0.9,0.133,1.333-0.233,1.3-1.1c-0.066-2.033-0.184-4.066-0.35-6.1
				c-0.033-0.2-0.15-0.4-0.35-0.6c-0.4-0.434-0.8-0.85-1.2-1.25c2.966,2.133,6.617,3.55,10.95,4.25c0.2,0.033,0.4,0.05,0.6,0.05
				c0-0.967-0.417-1.75-1.25-2.35c0.433-0.066,0.85-0.066,1.25,0c0.867,0.167,1.267-0.066,1.2-0.7c-1.067-0.767-1.267-1.15-0.6-1.15
				c0.624-0.019,1.241-0.027,1.85-0.025c-0.262-0.055-0.529-0.113-0.8-0.175c-22.366-5.067-37.767-7.317-46.2-6.75
				c-4.633,0.288-17.75-0.696-39.35-2.95c-0.934-0.098-1.884-0.197-2.85-0.3c-10.976-1.17-20.41-2.028-28.3-2.575
				c-9.195-0.632-16.295-0.84-21.3-0.625c-10.433,0.434-19.1,2.733-26,6.9c-0.563,0.425-1.121,0.842-1.675,1.25
				c-1.909,1.399-3.759,2.683-5.55,3.85c-0.136,0.018-0.244,0.093-0.325,0.225c-0.041,0.087-0.074,0.195-0.1,0.325
				c0.2,0.2,0.383,0.417,0.55,0.65c0.467,0.6,0.9,1.4,1.3,2.4c-1.813-0.304-3.579-0.688-5.3-1.15c-2.612,1.557-5.079,2.841-7.4,3.85
				c-7.667,3.333-22.267,4.583-43.8,3.75c-0.085-0.003-0.168-0.003-0.25,0c0.049,0.08,0.099,0.163,0.15,0.25
				c-0.342-0.09-0.667-0.182-0.975-0.275c-1.362-0.066-2.696-0.132-4-0.2c0.099,0.527,0.123,1.085,0.075,1.675
				c-0.4,0-0.733-0.1-1-0.3c-0.635-0.47-1.227-0.97-1.775-1.5c-16.51-0.947-28.186-2.797-35.025-5.55
				c-1.027-0.418-2.102-0.793-3.225-1.125c0.135,0.103,0.277,0.211,0.425,0.325c-0.718-0.128-1.568-0.428-2.55-0.9
				c-1.018-0.241-2.068-0.449-3.15-0.625c0,0.115,0,0.24,0,0.375C3107.565-222.663,3106.915-222.879,3106.25-223.15z M3285.3-146.35
				c-0.967-0.133-1.8-0.217-2.5-0.25c0,0.133,0.067,0.317,0.2,0.55c0.133,0.267,0.2,0.466,0.2,0.6h-1.9
				c-1.167-0.4-2.116-0.667-2.85-0.8c-0.767-0.1-1.333-0.217-1.7-0.35v0.4c0.2,0.167,0.383,0.417,0.55,0.75
				c0.134,0.3,0.2,0.55,0.2,0.75c-0.333-0.267-0.95-0.633-1.85-1.1c-1-0.534-1.633-0.8-1.9-0.8c-0.367,0-0.95,0.117-1.75,0.35
				c-0.833,0.267-1.767,0.4-2.8,0.4c0.5,0.133,1.2,0.783,2.1,1.95c0.867,1.133,1.3,1.883,1.3,2.25c-2.7-1.434-4.25-2.233-4.65-2.4
				c-2.634-1.2-4.867-1.8-6.7-1.8c-1.7,0-3.434,0.434-5.2,1.3c-1.467,0.9-2.316,1.35-2.55,1.35c-0.367,0-0.867-0.133-1.5-0.4
				c-0.633-0.233-1.066-0.35-1.3-0.35v2.65h-0.4l-1.5-2.25v0.75c0,0.433,0.083,0.833,0.25,1.2c0.233,0.434,0.4,0.783,0.5,1.05h0.4
				c-2.134,0.367-3.783-0.767-4.95-3.4c-0.6-1.367-1.1-3.383-1.5-6.05l-0.75,0.75c0-2-0.117-3.383-0.35-4.15
				c-0.3,0-0.667,0.066-1.1,0.2c-0.167,0.034-0.3,0.067-0.4,0.1l1.1-1.8h-0.4c-0.5-0.033-1.733,0.15-3.7,0.55
				c-0.133,0.033-0.267,0.05-0.4,0.05l-0.1-0.65c0.367-0.3,0.767-0.617,1.2-0.95c2.6-1.8,4.716-2.6,6.35-2.4l0.5-0.05
				c0.167,1.5,0.65,2.9,1.45,4.2h0.4c0-0.267,0.067-0.65,0.2-1.15c0.1-0.5,0.15-0.867,0.15-1.1c0.667,0.066,1.433,0.367,2.3,0.9
				c0.5,0.3,1.25,0.75,2.25,1.35v-1.5c0.833,0,1.65,0.15,2.45,0.45c0.733,0.3,1.3,0.65,1.7,1.05c0-0.633-0.6-2-1.8-4.1
				c-1.2-2.067-2.3-3.55-3.3-4.45c0.467,0.4,1,0.684,1.6,0.85c0.167,0.033,1.216,0.217,3.15,0.55c-0.333-0.633-0.917-1.2-1.75-1.7
				l-1.65-0.95h9.8c0.534,0.233,2.483,0.983,5.85,2.25c3.6,1.333,5.684,2.083,6.25,2.25h0.35c-0.167-0.6-0.833-1.35-2-2.25
				c-1.867-1.433-2.833-2.183-2.9-2.25c0.8,0,2.25,0.367,4.35,1.1c0.2,0,0.95-0.133,2.25-0.4c1.267-0.233,3.35-0.35,6.25-0.35
				c0-0.5-0.116-0.867-0.35-1.1c0.733,0.233,2.233,0.35,4.5,0.35c-0.667-1-1.283-1.5-1.85-1.5v-0.4c0.8,0.467,1.667,0.85,2.6,1.15
				h3.05c0-0.367-0.184-1-0.55-1.9c-0.467-1.067-0.783-1.95-0.95-2.65c0.233,0,0.6,0.25,1.1,0.75v-1.5c0.4,0.2,1.333,0.967,2.8,2.3
				c1.667,1.333,3.25,2.2,4.75,2.6h2.3c-0.2-0.3-0.567-0.683-1.1-1.15c-0.567-0.467-0.95-0.833-1.15-1.1c0.967,0.1,1.967,0.6,3,1.5
				h4.9v-1.85c0.9-0.1,2.35,0.184,4.35,0.85c2.033,0.7,3.483,1.417,4.35,2.15c0-0.367-0.083-0.816-0.25-1.35
				c-0.066-0.267-0.15-0.5-0.25-0.7c0.367,0.333,0.684,0.566,0.95,0.7c0.8,0.4,1.9,0.6,3.3,0.6c0.667,0,1.3-0.133,1.9-0.4
				c0-1-0.117-1.617-0.35-1.85c4.133,0.3,8.833,2.017,14.1,5.15c5,2.967,7.65,5.85,7.95,8.65c-2.167-1.7-5.267-3.034-9.3-4
				c-3.233-0.767-6.1-1.15-8.6-1.15c0.233,0.267,0.45,0.5,0.65,0.7c0.133,0.167,0.3,0.45,0.5,0.85c-4.966-1.267-8.317-1.9-10.05-1.9
				l-13.05-0.4c-2,0-3.116,0.133-3.35,0.4c-0.1,0.533-0.033,0.983,0.2,1.35c0.1,0.133,0.4,0.434,0.9,0.9
				c-2.366,0.367-4,0.633-4.9,0.8c-1.466,0.3-2.6,0.667-3.4,1.1c0.1,0.233,0.383,0.8,0.85,1.7c0.367,0.633,0.583,1.2,0.65,1.7
				c-0.233,0-0.6,0.067-1.1,0.2s-0.883,0.2-1.15,0.2c0.1,0.233,0.483,0.983,1.15,2.25c-0.167,0-0.283,0.05-0.35,0.15l-0.05,0.2
				h-1.15v0.4c0.133,0.1,0.767,0.483,1.9,1.15c-1,0-1.75,0.117-2.25,0.35c0.066,0.033,1,0.417,2.8,1.15
				c1.1,0.467,2.05,0.717,2.85,0.75v0.4h-6.05C3288.5-145.617,3287.066-146.05,3285.3-146.35z M3410.125-217.25
				c1.5,0.583,2.992,1.184,4.475,1.8c1.033,0.4,2.067,0.767,3.1,1.1c-0.303-0.267-0.603-0.534-0.9-0.8
				C3414.708-215.846,3412.482-216.545,3410.125-217.25z M3016-192.75c0-0.699-0.117-0.849-0.35-0.45
				C3015.517-192.933,3015.633-192.783,3016-192.75z M2932.45-190.5c1.366-1.167,2.3-1.75,2.8-1.75c0.434,0,0.733,0.167,0.9,0.5
				s0.45,0.5,0.85,0.5c0.033,0,0.684-0.417,1.95-1.25c1.366-0.833,2.3-1.25,2.8-1.25c0.467,0,1.383,0.25,2.75,0.75
				s2.2,0.75,2.5,0.75c0-0.333,0.083-0.75,0.25-1.25s0.25-0.917,0.25-1.25c1,0.333,2.5,0.5,4.5,0.5c0-0.167-0.083-0.417-0.25-0.75
				s-0.25-0.583-0.25-0.75h5.5c-0.167-1.067-0.667-1.9-1.5-2.5c0.4,0.167,0.9,0.1,1.5-0.2c0.333-0.167,0.833-0.433,1.5-0.8
				c0-0.267-0.1-0.6-0.3-1c-0.2-0.433-0.434-0.767-0.7-1c1.566,0.067,4.667,0.317,9.3,0.75c4.667,0.1,7.233-0.817,7.7-2.75h5.5
				c2,0.667,3.5,1,4.5,1h0.5c-0.066-0.4-0.4-0.9-1-1.5c-0.253-0.253-0.487-0.462-0.7-0.625c-0.302-0.211-0.569-0.336-0.8-0.375v-0.5
				h8c0.834,0.208,1.692,0.4,2.575,0.575c1.149,0.24,2.341,0.457,3.575,0.65c0.524,0.078,1.057,0.153,1.6,0.225
				c0.928,0.134,1.786,0.242,2.575,0.325c1.354,0.15,2.495,0.225,3.425,0.225c0.667,0,1.5-0.167,2.5-0.5s1.667-0.5,2-0.5
				c0.167,0,0.934,0.333,2.3,1c0.434,0.2,0.917,0.433,1.45,0.7c2.267,1.133,4.1,1.733,5.5,1.8c0.767,0.067,1.867,0,3.3-0.2
				c1.533-0.2,2.434-0.3,2.7-0.3c1.3,0,2.184,0.367,2.65,1.1c0.167,0.233,0.383,0.983,0.65,2.25c0.434,2,2.333,2.717,5.7,2.15
				c2.1-0.333,4.517-0.033,7.25,0.9c3,1.067,5,1.6,6,1.6c0.934,0,2.783-0.617,5.55-1.85c1.833-0.6,3.767-0.933,5.8-1
				c-2.1,0.533-3.467,1.317-4.1,2.35c0.533-0.233,1.2,0.267,2,1.5c-1.434,0.7-4.15,1.167-8.15,1.4c-0.3,0-0.633,0.017-1,0.05
				c-1.333,0.033-3.117,0.05-5.35,0.05c0.767,0.067,1.45,0.4,2.05,1c0.467,0.467,0.783,0.967,0.95,1.5c-4.4-2-7.15-3-8.25-3
				c-0.4,0-0.816,0.167-1.25,0.5c-0.4,0.333-0.816,0.5-1.25,0.5c-0.7,0-1.9-0.1-3.6-0.3c-1.833-0.233-3.216-0.467-4.15-0.7
				c1.1,0.333,1.934,0.983,2.5,1.95c0.3,0.466,0.633,1.267,1,2.4c-0.167-0.267-0.633-0.867-1.4-1.8c-1-1.167-1.7-1.85-2.1-2.05
				c-1.133-0.5-2.95-1.05-5.45-1.65c-2.69-0.631-4.04-0.748-4.05-0.35c-0.531,0.04-1.397,0.207-2.6,0.5
				c-1.5,0.333-2.466,0.5-2.9,0.5c-2.8,0-5.3-1.167-7.5-3.5v0.5c0.667,0.667,2.833,2.667,6.5,6c-2.133-0.167-5.184-0.767-9.15-1.8
				c-3.267-0.833-5.217-1.4-5.85-1.7v0.5c0.967,0.833,1.633,1.833,2,3h-2.5c-0.467-0.433-1.367-0.933-2.7-1.5
				c-1.4-0.567-2.167-0.9-2.3-1c0.033,0.833,0,1.4-0.1,1.7c-0.233,0.633-0.867,1.066-1.9,1.3c-0.3-1.3-0.967-2.55-2-3.75
				c-0.233-0.2-0.467-0.417-0.7-0.65c-1.433-1.4-2.783-2.1-4.05-2.1c-1,0-1.783,0.35-2.35,1.05c-0.567,0.733-0.7,1.55-0.4,2.45
				c-0.333,0-0.833-0.333-1.5-1v2c-0.333,0-0.75-0.083-1.25-0.25s-0.917-0.25-1.25-0.25c-0.333,0.733-0.833,1.417-1.5,2.05
				s-1.167,1.284-1.5,1.95c0-1.433-0.633-2.7-1.9-3.8c-0.967-0.867-2-1.434-3.1-1.7v2h-3.5c-0.867-0.167-2.133,0.35-3.8,1.55
				c-1.667,1.2-2.9,2.517-3.7,3.95c0.566-1.333,0.35-2.467-0.65-3.4c-0.767-0.733-1.55-1.1-2.35-1.1c-0.133,0-1.083,0.167-2.85,0.5
				c-0.433,0.1-0.867,0.167-1.3,0.2c-1.333,0.2-2.617,0.3-3.85,0.3c0,0.767-0.167,1.45-0.5,2.05c-0.333,0.6-0.5,1.417-0.5,2.45
				c0,0.467,0.083,0.817,0.25,1.05c0.167,0.2,0.25,0.35,0.25,0.45c-0.3,0-0.934-0.167-1.9-0.5c-0.967-0.333-1.667-0.5-2.1-0.5
				c-0.8,0-1.483,0.067-2.05,0.2C2932.983-187.117,2931.483-189.6,2932.45-190.5z M2966.15-144.6c-3.7-1.367-6.417-2.533-8.15-3.5
				c-2.267-1.2-3.533-2.267-3.8-3.2l-0.55,3c-0.667-0.467-1.083-0.95-1.25-1.45l-0.45,2.2l-0.75-0.15c-0.467-0.566-0.917-0.9-1.35-1
				l-0.35,1.85l-0.75-0.15c0.033-0.167,0-0.317-0.1-0.45c-0.233-0.167-0.4-0.316-0.5-0.45c0.167,0.566,0.183,1.233,0.05,2
				l-0.75-0.15c-0.233-0.3-0.4-0.517-0.5-0.65c-0.134-0.267-0.233-0.633-0.3-1.1l-0.1,0.4c0.233,0.533,0.384,1.3,0.45,2.3
				c0,0.8-0.05,1.467-0.15,2c-0.067,0.333-0.217,0.767-0.45,1.3c-0.267,0.6-0.417,1.017-0.45,1.25c0.133-1.833-1.067-3.65-3.6-5.45
				c-2.767-1.6-4.333-2.65-4.7-3.15l-0.3,1.45c-0.633,0-1.233-0.4-1.8-1.2c-0.667-0.767-0.983-1.55-0.95-2.35
				c-0.067,0.2-0.217,0.617-0.45,1.25c-0.267,0.6-0.433,1.083-0.5,1.45c-0.233,1.167-0.083,2.4,0.45,3.7
				c-0.6-0.1-1.75-0.883-3.45-2.35c-1.7-1.433-2.75-2.483-3.15-3.15c-0.833,1.833-1.767,2.567-2.8,2.2c0.1-0.434,0.116-0.8,0.05-1.1
				c-0.066-0.2-0.283-0.65-0.65-1.35c-0.367,0.367-0.817,0.6-1.35,0.7c-0.667,0.133-1.066,0.25-1.2,0.35
				c0.134-0.767,0.083-1.184-0.15-1.25c-0.433,0.3-2.083,0.75-4.95,1.35c-2.733,0.534-4.167,0.784-4.3,0.75
				c0.467-0.3,2.117-1.3,4.95-3c2.733-1.8,4.35-3.117,4.85-3.95l0.4,0.15c0.466-0.767,0.933-1.183,1.4-1.25
				c0.7-0.067,1.95,0.283,3.75,1.05c0.8,0.133,2.267-0.233,4.4-1.1c1.9-0.7,3.267-1.333,4.1-1.9c0,0.1,0.05,0.233,0.15,0.4
				c0.067,0.167,0.1,0.316,0.1,0.45c0.667,0,1.2-0.133,1.6-0.4c0.2-0.167,0.667-0.617,1.4-1.35c0.833,0.667,1.517,1.05,2.05,1.15
				c0.867,0.167,1.417,0.217,1.65,0.15c0.433-0.1,0.633-0.65,0.6-1.65c0.4,0.1,1.117,0.367,2.15,0.8c1,0.467,1.667,0.733,2,0.8
				c1.767,0.333,2.783-0.267,3.05-1.8c0.133-0.867,0.2-2.25,0.2-4.15c0.066,0,0.9,0.483,2.5,1.45c1.566,0.967,3.45,1.667,5.65,2.1
				c1.267,0.233,2.2,0.167,2.8-0.2c0.367-0.233,0.717-0.683,1.05-1.35c0.4,0.3,1.15,0.55,2.25,0.75c0.533,0.1,1.467,0.117,2.8,0.05
				c1.333-0.133,2.083-0.183,2.25-0.15c0.267,0.066,0.733,0.35,1.4,0.85c0.7,0.466,1.217,0.733,1.55,0.8
				c0.633,0.133,1.65-0.2,3.05-1c1.434-0.833,2.5-1.233,3.2-1.2l-0.2,1.1c0.167,0.033,0.35-0.017,0.55-0.15
				c0.2-0.133,0.317-0.283,0.35-0.45c0.467,0.1,0.85,0.367,1.15,0.8c0.267,0.467,0.767,0.767,1.5,0.9
				c0.934,0.167,1.567,0.083,1.9-0.25c0.3-0.333,0.616-0.467,0.95-0.4c0.067,0.033,1.183,0.517,3.35,1.45
				c2.367,0.967,4.05,1.55,5.05,1.75c1.6,0.3,2.533,0.434,2.8,0.4c0.633-0.1,0.883-0.65,0.75-1.65l0.55,0.1
				c0.067,0.033,0.417,0.317,1.05,0.85c0.733,0.567,3.233,3.633,7.5,9.2c-0.833,0.133-1.45,0.167-1.85,0.1
				c-0.467-0.1-0.933-0.383-1.4-0.85c-0.367-0.467-0.583-0.7-0.65-0.7c-0.5-0.1-1.05,0.117-1.65,0.65
				c-0.633,0.5-1.05,0.733-1.25,0.7c-0.267-0.033-0.6-0.333-1-0.9c-0.333-0.567-0.533-0.867-0.6-0.9l-0.1,0.4
				c0.866,2.767,1.566,4.55,2.1,5.35l-1.85-0.35c-1.833-0.667-3.684-1.684-5.55-3.05c-1.5-1-2.517-1.833-3.05-2.5l-0.45,2.25
				l-1.1-0.2c-0.366-0.3-0.633-0.6-0.8-0.9c-0.167-0.367-0.434-0.683-0.8-0.95c-0.5,0.4-1.1,0.917-1.8,1.55
				c-0.167-0.433-0.6-0.9-1.3-1.4c0,0.167-0.067,0.267-0.2,0.3h-0.2l-0.2,1.15c-1.133-0.767-1.983-1.333-2.55-1.7
				c-1.033-0.667-1.917-1.083-2.65-1.25c-1.333-0.233-3.1-0.217-5.3,0.05c-2.267,0.367-4.233,0.4-5.9,0.1
				c-0.767,1.3-1.183,2.117-1.25,2.45c-0.567-0.167-1.083-0.517-1.55-1.05c-0.566-0.6-0.9-1.183-1-1.75c0,2.034,0.533,3.867,1.6,5.5
				C2965-145.55,2965.583-144.933,2966.15-144.6z M3166.4-192.75v-0.35l-0.5-0.3C3166.1-193.167,3166.267-192.95,3166.4-192.75z
				 M3097.55-211.05c0.033-0.067,0.05-0.317,0.05-0.75c-0.084,0.155-0.118,0.305-0.1,0.45c0.012,0.117,0.021,0.233,0.025,0.35
				L3097.55-211.05z M3162.9-125.75c0.167,0.067,0.333,0.133,0.5,0.2c-0.033-0.067-0.067-0.133-0.1-0.2H3162.9z M3180.4-244.4
				l-0.5-0.3c0.2,0.233,0.367,0.45,0.5,0.65V-244.4z"/>
			<path style="fill-rule:evenodd;clip-rule:evenodd;fill:#486616;" d="M3416.8-215.15c0.298,0.266,0.598,0.533,0.9,0.8
				c-1.033-0.333-2.067-0.7-3.1-1.1c-1.483-0.616-2.975-1.216-4.475-1.8c-4.113-1.583-8.305-3.032-12.575-4.35
				c-3.498-1.09-7.148-1.665-10.95-1.725c-0.609-0.002-1.226,0.006-1.85,0.025c-0.667,0-0.467,0.383,0.6,1.15
				c0.067,0.633-0.333,0.867-1.2,0.7c-0.4-0.066-0.817-0.066-1.25,0c0.833,0.6,1.25,1.383,1.25,2.35c-0.2,0-0.4-0.017-0.6-0.05
				c-4.333-0.7-7.983-2.117-10.95-4.25c0.4,0.4,0.8,0.816,1.2,1.25c0.2,0.2,0.317,0.4,0.35,0.6c0.167,2.033,0.284,4.066,0.35,6.1
				c0.033,0.867-0.4,1.233-1.3,1.1c-1.667-0.267-2.884-0.833-3.65-1.7c0,0.2,0.017,0.4,0.05,0.6c0.2,0.967-0.017,1.767-0.65,2.4
				c-0.2-0.2-0.4-0.4-0.6-0.6c-0.7-0.567-1.317-0.967-1.85-1.2c0,0.6-0.05,1.184-0.15,1.75c-0.1,0.434-0.317,0.783-0.65,1.05
				c-0.467,0.367-1,0.5-1.6,0.4c-1.3-0.2-2.534-0.667-3.7-1.4c0.2,1.1,0.05,2.133-0.45,3.1c-0.3,0.567-0.65,1.083-1.05,1.55
				c-2.466,2.967-5.183,5.05-8.15,6.25c0.233,0.033,0.6,0.1,1.1,0.2c0.433,0.1,0.867,0.233,1.3,0.4c2.833,1,5.683,1.117,8.55,0.35
				c0.566-0.167,1.133-0.316,1.7-0.45c0.467-0.1,0.917-0.2,1.35-0.3c0.367-0.1,0.75-0.15,1.15-0.15c0.967,1,0.833,1.783-0.4,2.35
				c-0.133,0.067-0.267,0.283-0.4,0.65c-0.067,0.233-0.217,0.417-0.45,0.55c-1.3,0.5-1.9,1.55-1.8,3.15
				c1.1,0.1,1.933,0.117,2.5,0.05c0.167-0.033,0.367,0.167,0.6,0.6c1.033,1.933,1.9,3.933,2.6,6c0.067,0.233,0.15,0.467,0.25,0.7
				c0.1,0.167,0.15,0.367,0.15,0.6c0.667-0.333,0.933-1.15,0.8-2.45c-0.1-0.8,0.033-1.417,0.4-1.85
				c1.633,1.367,3.517,3.35,5.65,5.95c0.8,1.033,1.55,1.7,2.25,2c-0.267-1.4-0.85-2.833-1.75-4.3c-1.267-2.1-1.733-4.533-1.4-7.3
				c0.1-0.8,0.25-1.583,0.45-2.35c0.333-1.367,0.767-2.633,1.3-3.8c1.2-2.667,2.267-5.284,3.2-7.85c0.233-0.6,0.517-1.15,0.85-1.65
				c0.267-0.633,0.4-0.284,0.4,1.05c0,0.633,0.133,1.15,0.4,1.55c0.167,0.2,0.45,0.3,0.85,0.3s0.65,0.183,0.75,0.55
				c0.267,1.033,0.617,1.867,1.05,2.5c0.667-0.333,0.9-1.15,0.7-2.45c-0.067-0.4-0.1-0.8-0.1-1.2c1.233,0.633,2.283,1.15,3.15,1.55
				c0.333,0.167,0.7,0.217,1.1,0.15c0.833-0.133,1.65-0.25,2.45-0.35c0.9-0.1,1.733,0.033,2.5,0.4c4.033,1.8,7.633,4.483,10.8,8.05
				c0.467,0.534,0.816,1.15,1.05,1.85c0.4,1.1,1.1,1.667,2.1,1.7c0.833-0.633,0.8-1.617-0.1-2.95c-0.566-0.767-0.95-1.6-1.15-2.5
				c0.633,0.367,1.233,0.783,1.8,1.25c0.233,0.167,0.45,0.35,0.65,0.55c0.667-0.133,0.883-0.733,0.65-1.8
				c-0.033-0.2-0.05-0.4-0.05-0.6c1.233,0.767,2.5,1.483,3.8,2.15c0.333,0.167,0.7,0.233,1.1,0.2c2.733-0.333,4.917,0.35,6.55,2.05
				c0.3,0.3,0.567,0.633,0.8,1c1,1.533,2.267,2.867,3.8,4c0.267,0.2,0.6,0.3,1,0.3c0.133-1.633-0.316-3-1.35-4.1
				c0.2-0.4,0.9-0.083,2.1,0.95c0.333,0.3,0.7,0.55,1.1,0.75c0.767,0.467,1.783,0.867,3.05,1.2c-1.1-1.867-2.3-3.5-3.6-4.9
				c-1.733-1.9-2.983-3.917-3.75-6.05c1.6,1.6,3.017,2.833,4.25,3.7c0.233,0.167,0.45,0.35,0.65,0.55c0.066-1.567-0.533-2.8-1.8-3.7
				c-0.233-0.167-0.45-0.35-0.65-0.55c-0.1-0.1-0.184-0.2-0.25-0.3c1.733,1.7,3.85,2.784,6.35,3.25c0.4,0.067,0.8,0.1,1.2,0.1
				c-1.6-0.833-2.816-2.05-3.65-3.65c-0.233-0.4-0.433-0.817-0.6-1.25c0.533-0.7,1.55-1,3.05-0.9c1.204,0.086,2.378,0.22,3.525,0.4
				c-0.891-0.716-1.849-1.366-2.875-1.95C3429.488-210.484,3423.921-212.8,3416.8-215.15z M3285.3-146.35
				c1.767,0.3,3.2,0.733,4.3,1.3h6.05v-0.4c-0.8-0.033-1.75-0.283-2.85-0.75c-1.8-0.733-2.733-1.117-2.8-1.15
				c0.5-0.233,1.25-0.35,2.25-0.35c-1.133-0.667-1.767-1.05-1.9-1.15v-0.4h1.15l0.05-0.2c0.067-0.1,0.184-0.15,0.35-0.15
				c-0.667-1.267-1.05-2.017-1.15-2.25c0.267,0,0.65-0.066,1.15-0.2s0.867-0.2,1.1-0.2c-0.066-0.5-0.283-1.067-0.65-1.7
				c-0.467-0.9-0.75-1.466-0.85-1.7c0.8-0.434,1.934-0.8,3.4-1.1c0.9-0.167,2.534-0.433,4.9-0.8c-0.5-0.467-0.8-0.767-0.9-0.9
				c-0.233-0.367-0.3-0.816-0.2-1.35c0.233-0.267,1.35-0.4,3.35-0.4l13.05,0.4c1.733,0,5.083,0.633,10.05,1.9
				c-0.2-0.4-0.367-0.684-0.5-0.85c-0.2-0.2-0.417-0.433-0.65-0.7c2.5,0,5.367,0.383,8.6,1.15c4.033,0.966,7.133,2.3,9.3,4
				c-0.3-2.8-2.95-5.684-7.95-8.65c-5.267-3.133-9.967-4.85-14.1-5.15c0.233,0.233,0.35,0.85,0.35,1.85
				c-0.6,0.267-1.233,0.4-1.9,0.4c-1.4,0-2.5-0.2-3.3-0.6c-0.267-0.133-0.583-0.367-0.95-0.7c0.1,0.2,0.184,0.433,0.25,0.7
				c0.167,0.534,0.25,0.983,0.25,1.35c-0.866-0.733-2.316-1.45-4.35-2.15c-2-0.667-3.45-0.95-4.35-0.85v1.85h-4.9
				c-1.033-0.9-2.033-1.4-3-1.5c0.2,0.267,0.583,0.633,1.15,1.1c0.533,0.467,0.9,0.85,1.1,1.15h-2.3c-1.5-0.4-3.083-1.267-4.75-2.6
				c-1.466-1.333-2.4-2.1-2.8-2.3v1.5c-0.5-0.5-0.867-0.75-1.1-0.75c0.167,0.7,0.483,1.583,0.95,2.65c0.366,0.9,0.55,1.533,0.55,1.9
				h-3.05c-0.934-0.3-1.8-0.683-2.6-1.15v0.4c0.567,0,1.183,0.5,1.85,1.5c-2.267,0-3.767-0.117-4.5-0.35
				c0.233,0.233,0.35,0.6,0.35,1.1c-2.9,0-4.983,0.117-6.25,0.35c-1.3,0.267-2.05,0.4-2.25,0.4c-2.1-0.733-3.55-1.1-4.35-1.1
				c0.066,0.067,1.033,0.817,2.9,2.25c1.167,0.9,1.833,1.65,2,2.25h-0.35c-0.566-0.167-2.65-0.917-6.25-2.25
				c-3.367-1.267-5.316-2.017-5.85-2.25h-9.8l1.65,0.95c0.833,0.5,1.417,1.067,1.75,1.7c-1.934-0.333-2.983-0.517-3.15-0.55
				c-0.6-0.167-1.133-0.45-1.6-0.85c1,0.9,2.1,2.383,3.3,4.45c1.2,2.1,1.8,3.467,1.8,4.1c-0.4-0.4-0.967-0.75-1.7-1.05
				c-0.8-0.3-1.617-0.45-2.45-0.45v1.5c-1-0.6-1.75-1.05-2.25-1.35c-0.867-0.533-1.634-0.833-2.3-0.9c0,0.233-0.05,0.6-0.15,1.1
				c-0.133,0.5-0.2,0.883-0.2,1.15h-0.4c-0.8-1.3-1.283-2.7-1.45-4.2l-0.5,0.05c-1.634-0.2-3.75,0.6-6.35,2.4
				c-0.433,0.333-0.833,0.65-1.2,0.95l0.1,0.65c0.133,0,0.267-0.017,0.4-0.05c1.967-0.4,3.2-0.583,3.7-0.55h0.4l-1.1,1.8
				c0.1-0.033,0.233-0.066,0.4-0.1c0.434-0.133,0.8-0.2,1.1-0.2c0.233,0.767,0.35,2.15,0.35,4.15l0.75-0.75
				c0.4,2.667,0.9,4.683,1.5,6.05c1.167,2.633,2.816,3.767,4.95,3.4h-0.4c-0.1-0.267-0.267-0.617-0.5-1.05
				c-0.167-0.367-0.25-0.767-0.25-1.2v-0.75l1.5,2.25h0.4v-2.65c0.233,0,0.667,0.117,1.3,0.35c0.633,0.267,1.133,0.4,1.5,0.4
				c0.233,0,1.083-0.45,2.55-1.35c1.767-0.867,3.5-1.3,5.2-1.3c1.833,0,4.066,0.6,6.7,1.8c0.4,0.167,1.95,0.966,4.65,2.4
				c0-0.367-0.433-1.117-1.3-2.25c-0.9-1.167-1.6-1.817-2.1-1.95c1.033,0,1.967-0.133,2.8-0.4c0.8-0.233,1.383-0.35,1.75-0.35
				c0.267,0,0.9,0.267,1.9,0.8c0.9,0.466,1.517,0.833,1.85,1.1c0-0.2-0.066-0.45-0.2-0.75c-0.167-0.333-0.35-0.583-0.55-0.75v-0.4
				c0.367,0.133,0.934,0.25,1.7,0.35c0.733,0.133,1.683,0.4,2.85,0.8h1.9c0-0.133-0.067-0.333-0.2-0.6
				c-0.133-0.233-0.2-0.417-0.2-0.55C3283.5-146.567,3284.333-146.483,3285.3-146.35z M3214.25-224.475
				c-1.209,0.793-2.393,1.535-3.55,2.225c1.721,0.462,3.487,0.846,5.3,1.15c-0.4-1-0.833-1.8-1.3-2.4
				c-0.167-0.233-0.35-0.45-0.55-0.65C3214.176-224.28,3214.209-224.388,3214.25-224.475z M3166.4-192.75
				c-0.133-0.2-0.3-0.417-0.5-0.65l0.5,0.3V-192.75z M2966.15-144.6c-0.567-0.333-1.15-0.95-1.75-1.85
				c-1.067-1.633-1.6-3.466-1.6-5.5c0.1,0.567,0.434,1.15,1,1.75c0.467,0.534,0.983,0.883,1.55,1.05
				c0.067-0.333,0.483-1.15,1.25-2.45c1.667,0.3,3.633,0.267,5.9-0.1c2.2-0.267,3.967-0.283,5.3-0.05
				c0.733,0.167,1.617,0.583,2.65,1.25c0.566,0.367,1.417,0.933,2.55,1.7l0.2-1.15h0.2c0.133-0.033,0.2-0.133,0.2-0.3
				c0.7,0.5,1.133,0.967,1.3,1.4c0.7-0.633,1.3-1.15,1.8-1.55c0.366,0.267,0.633,0.583,0.8,0.95c0.167,0.3,0.434,0.6,0.8,0.9
				l1.1,0.2l0.45-2.25c0.533,0.667,1.55,1.5,3.05,2.5c1.867,1.367,3.717,2.383,5.55,3.05l1.85,0.35c-0.533-0.8-1.233-2.583-2.1-5.35
				l0.1-0.4c0.067,0.034,0.267,0.333,0.6,0.9c0.4,0.566,0.733,0.867,1,0.9c0.2,0.033,0.617-0.2,1.25-0.7
				c0.6-0.533,1.15-0.75,1.65-0.65c0.067,0,0.283,0.233,0.65,0.7c0.467,0.466,0.933,0.75,1.4,0.85c0.4,0.067,1.017,0.034,1.85-0.1
				c-4.267-5.567-6.767-8.633-7.5-9.2c-0.634-0.533-0.983-0.817-1.05-0.85l-0.55-0.1c0.133,1-0.117,1.55-0.75,1.65
				c-0.267,0.033-1.2-0.1-2.8-0.4c-1-0.2-2.683-0.783-5.05-1.75c-2.167-0.933-3.283-1.417-3.35-1.45
				c-0.333-0.067-0.65,0.066-0.95,0.4c-0.333,0.333-0.967,0.417-1.9,0.25c-0.733-0.133-1.233-0.433-1.5-0.9
				c-0.3-0.434-0.683-0.7-1.15-0.8c-0.033,0.167-0.15,0.317-0.35,0.45c-0.2,0.133-0.383,0.183-0.55,0.15l0.2-1.1
				c-0.7-0.033-1.767,0.367-3.2,1.2c-1.4,0.8-2.417,1.133-3.05,1c-0.333-0.067-0.85-0.333-1.55-0.8c-0.667-0.5-1.133-0.784-1.4-0.85
				c-0.167-0.033-0.917,0.017-2.25,0.15c-1.333,0.067-2.267,0.05-2.8-0.05c-1.1-0.2-1.85-0.45-2.25-0.75
				c-0.333,0.667-0.684,1.117-1.05,1.35c-0.6,0.367-1.533,0.434-2.8,0.2c-2.2-0.433-4.083-1.133-5.65-2.1
				c-1.6-0.967-2.434-1.45-2.5-1.45c0,1.9-0.067,3.283-0.2,4.15c-0.267,1.533-1.283,2.133-3.05,1.8c-0.333-0.066-1-0.333-2-0.8
				c-1.033-0.434-1.75-0.7-2.15-0.8c0.033,1-0.167,1.55-0.6,1.65c-0.233,0.066-0.783,0.017-1.65-0.15
				c-0.533-0.1-1.217-0.483-2.05-1.15c-0.733,0.733-1.2,1.184-1.4,1.35c-0.4,0.267-0.933,0.4-1.6,0.4c0-0.133-0.033-0.283-0.1-0.45
				c-0.1-0.167-0.15-0.3-0.15-0.4c-0.833,0.567-2.2,1.2-4.1,1.9c-2.133,0.867-3.6,1.233-4.4,1.1c-1.8-0.767-3.05-1.117-3.75-1.05
				c-0.467,0.067-0.934,0.483-1.4,1.25l-0.4-0.15c-0.5,0.833-2.117,2.15-4.85,3.95c-2.833,1.7-4.483,2.7-4.95,3
				c0.133,0.034,1.567-0.216,4.3-0.75c2.866-0.6,4.517-1.05,4.95-1.35c0.233,0.066,0.284,0.483,0.15,1.25
				c0.134-0.1,0.533-0.217,1.2-0.35c0.533-0.1,0.983-0.333,1.35-0.7c0.367,0.7,0.583,1.15,0.65,1.35c0.066,0.3,0.05,0.667-0.05,1.1
				c1.033,0.367,1.967-0.367,2.8-2.2c0.4,0.667,1.45,1.717,3.15,3.15c1.7,1.467,2.85,2.25,3.45,2.35
				c-0.534-1.3-0.683-2.533-0.45-3.7c0.067-0.367,0.233-0.85,0.5-1.45c0.233-0.633,0.383-1.05,0.45-1.25
				c-0.034,0.8,0.283,1.583,0.95,2.35c0.567,0.8,1.167,1.2,1.8,1.2l0.3-1.45c0.367,0.5,1.933,1.55,4.7,3.15
				c2.533,1.8,3.733,3.617,3.6,5.45c0.033-0.233,0.183-0.65,0.45-1.25c0.233-0.534,0.383-0.967,0.45-1.3c0.1-0.533,0.15-1.2,0.15-2
				c-0.066-1-0.217-1.767-0.45-2.3l0.1-0.4c0.067,0.466,0.167,0.833,0.3,1.1c0.1,0.133,0.267,0.35,0.5,0.65l0.75,0.15
				c0.133-0.767,0.116-1.434-0.05-2c0.1,0.133,0.267,0.283,0.5,0.45c0.1,0.133,0.133,0.284,0.1,0.45l0.75,0.15l0.35-1.85
				c0.433,0.1,0.883,0.434,1.35,1l0.75,0.15l0.45-2.2c0.167,0.5,0.583,0.983,1.25,1.45l0.55-3c0.267,0.933,1.533,2,3.8,3.2
				C2959.733-147.133,2962.45-145.967,2966.15-144.6z M2932.45-190.5c-0.967,0.9,0.533,3.383,4.5,7.45
				c0.566-0.133,1.25-0.2,2.05-0.2c0.434,0,1.133,0.167,2.1,0.5c0.966,0.333,1.6,0.5,1.9,0.5c0-0.1-0.083-0.25-0.25-0.45
				c-0.167-0.233-0.25-0.583-0.25-1.05c0-1.033,0.167-1.85,0.5-2.45c0.333-0.6,0.5-1.283,0.5-2.05c1.233,0,2.517-0.1,3.85-0.3
				c0.433-0.034,0.867-0.1,1.3-0.2c1.767-0.333,2.717-0.5,2.85-0.5c0.8,0,1.583,0.367,2.35,1.1c1,0.933,1.216,2.066,0.65,3.4
				c0.8-1.433,2.033-2.75,3.7-3.95c1.667-1.2,2.933-1.716,3.8-1.55h3.5v-2c1.1,0.267,2.133,0.833,3.1,1.7
				c1.267,1.1,1.9,2.367,1.9,3.8c0.333-0.667,0.833-1.317,1.5-1.95s1.167-1.316,1.5-2.05c0.333,0,0.75,0.083,1.25,0.25
				s0.917,0.25,1.25,0.25v-2c0.667,0.667,1.167,1,1.5,1c-0.3-0.9-0.167-1.717,0.4-2.45c0.567-0.7,1.35-1.05,2.35-1.05
				c1.267,0,2.617,0.7,4.05,2.1c0.233,0.233,0.467,0.45,0.7,0.65c1.033,1.2,1.7,2.45,2,3.75c1.033-0.233,1.667-0.667,1.9-1.3
				c0.1-0.3,0.133-0.867,0.1-1.7c0.133,0.1,0.9,0.433,2.3,1c1.333,0.567,2.233,1.067,2.7,1.5h2.5c-0.367-1.167-1.033-2.167-2-3v-0.5
				c0.633,0.3,2.583,0.867,5.85,1.7c3.966,1.033,7.017,1.633,9.15,1.8c-3.667-3.333-5.833-5.333-6.5-6v-0.5
				c2.2,2.333,4.7,3.5,7.5,3.5c0.434,0,1.4-0.167,2.9-0.5c1.203-0.293,2.069-0.46,2.6-0.5c0.01-0.398,1.359-0.281,4.05,0.35
				c2.5,0.6,4.317,1.15,5.45,1.65c0.4,0.2,1.1,0.883,2.1,2.05c0.767,0.934,1.233,1.534,1.4,1.8c-0.367-1.133-0.7-1.934-1-2.4
				c-0.566-0.967-1.4-1.617-2.5-1.95c0.934,0.233,2.316,0.467,4.15,0.7c1.7,0.2,2.9,0.3,3.6,0.3c0.434,0,0.85-0.167,1.25-0.5
				c0.434-0.333,0.85-0.5,1.25-0.5c1.1,0,3.85,1,8.25,3c-0.167-0.533-0.483-1.033-0.95-1.5c-0.6-0.6-1.283-0.933-2.05-1
				c2.233,0,4.017-0.017,5.35-0.05c0.367-0.034,0.7-0.05,1-0.05c4-0.233,6.716-0.7,8.15-1.4c-0.8-1.233-1.467-1.733-2-1.5
				c0.633-1.033,2-1.817,4.1-2.35c-2.034,0.067-3.967,0.4-5.8,1c-2.767,1.233-4.616,1.85-5.55,1.85c-1,0-3-0.533-6-1.6
				c-2.733-0.933-5.15-1.233-7.25-0.9c-3.367,0.567-5.267-0.15-5.7-2.15c-0.267-1.267-0.483-2.017-0.65-2.25
				c-0.466-0.733-1.35-1.1-2.65-1.1c-0.267,0-1.167,0.1-2.7,0.3c-1.433,0.2-2.533,0.267-3.3,0.2c-1.4-0.067-3.233-0.667-5.5-1.8
				c-0.533-0.267-1.017-0.5-1.45-0.7c-1.366-0.667-2.133-1-2.3-1c-0.333,0-1,0.167-2,0.5s-1.833,0.5-2.5,0.5
				c-0.93,0-2.071-0.075-3.425-0.225c-0.789-0.083-1.647-0.19-2.575-0.325c-0.543-0.072-1.076-0.147-1.6-0.225
				c-1.233-0.193-2.425-0.41-3.575-0.65c-0.883-0.175-1.741-0.367-2.575-0.575h-8v0.5c0.231,0.039,0.498,0.164,0.8,0.375
				c0.213,0.163,0.447,0.372,0.7,0.625c0.6,0.6,0.934,1.1,1,1.5h-0.5c-1,0-2.5-0.333-4.5-1h-5.5c-0.467,1.933-3.033,2.85-7.7,2.75
				c-4.633-0.433-7.733-0.683-9.3-0.75c0.267,0.233,0.5,0.567,0.7,1c0.2,0.4,0.3,0.733,0.3,1c-0.667,0.367-1.167,0.633-1.5,0.8
				c-0.6,0.3-1.1,0.367-1.5,0.2c0.833,0.6,1.333,1.433,1.5,2.5h-5.5c0,0.167,0.083,0.417,0.25,0.75s0.25,0.583,0.25,0.75
				c-2,0-3.5-0.167-4.5-0.5c0,0.333-0.083,0.75-0.25,1.25s-0.25,0.917-0.25,1.25c-0.3,0-1.133-0.25-2.5-0.75s-2.283-0.75-2.75-0.75
				c-0.5,0-1.434,0.417-2.8,1.25c-1.267,0.833-1.917,1.25-1.95,1.25c-0.4,0-0.684-0.167-0.85-0.5s-0.466-0.5-0.9-0.5
				C2934.75-192.25,2933.816-191.667,2932.45-190.5z M3016-192.75c-0.367-0.033-0.483-0.183-0.35-0.45
				C3015.883-193.599,3016-193.449,3016-192.75z M3158.425-214.675c0.308,0.093,0.633,0.185,0.975,0.275
				c-0.051-0.087-0.101-0.17-0.15-0.25C3158.975-214.662,3158.7-214.67,3158.425-214.675z M3154.425-214.875
				c-0.916-0.036-1.816-0.078-2.7-0.125c0.548,0.53,1.14,1.03,1.775,1.5c0.267,0.2,0.6,0.3,1,0.3
				C3154.548-213.79,3154.523-214.348,3154.425-214.875z M3111.35-222.25c0.982,0.472,1.832,0.772,2.55,0.9
				c-0.148-0.114-0.29-0.222-0.425-0.325C3112.784-221.884,3112.076-222.076,3111.35-222.25z M3097.55-211.05l-0.025,0.05
				c-0.004-0.117-0.013-0.233-0.025-0.35c-0.018-0.145,0.016-0.295,0.1-0.45C3097.6-211.367,3097.583-211.117,3097.55-211.05z
				 M3083.15-222.4c2.093,0.396,4.193,0.313,6.3-0.25c0.566-0.167,1.133-0.317,1.7-0.45c0.467-0.1,0.917-0.2,1.35-0.3
				c0.017-0.005,0.033-0.013,0.05-0.025C3089.582-223.226,3086.448-222.884,3083.15-222.4z M3106.25-223.15
				c0.665,0.271,1.315,0.487,1.95,0.65c0-0.135,0-0.26,0-0.375C3107.559-222.981,3106.909-223.073,3106.25-223.15z M3073.375-132.55
				c0.424-0.394,0.715-0.711,0.875-0.95c0.167,0.067,0.983,0.667,2.45,1.8c1.3,1,2.483,1.567,3.55,1.7c0-0.333,0.083-0.833,0.25-1.5
				c0.165-0.662,0.249-1.162,0.25-1.5c0.003,0.169,0.086,0.336,0.25,0.5c0.167,0.167,0.25,0.333,0.25,0.5l3.2-1.6
				c1.833-0.9,3.433-1.033,4.8-0.4l0.7-1.425c-0.917,0.095-1.834,0.22-2.75,0.375c-2.167,0.4-4.517,0.6-7.05,0.6
				c-0.6,0-1.733-0.083-3.4-0.25c-1.833-0.167-3.1-0.333-3.8-0.5c-0.167,0.467-0.1,1.167,0.2,2.1
				C3073.193-132.963,3073.269-132.779,3073.375-132.55z M3093.7-223.5c0.909,0.978,0.76,1.744-0.45,2.3
				c-0.133,0.067-0.267,0.284-0.4,0.65c-0.067,0.233-0.217,0.417-0.45,0.55c-1.3,0.5-1.9,1.55-1.8,3.15
				c1.1,0.1,1.933,0.117,2.5,0.05c0.167-0.034,0.367,0.167,0.6,0.6c0.437,0.817,0.845,1.642,1.225,2.475
				c-2.411,0.637-3.903,1.329-4.475,2.075c0.4-0.4,1.183-0.75,2.35-1.05c0.897-0.252,1.689-0.402,2.375-0.45
				c0.413,0.972,0.788,1.955,1.125,2.95c0.067,0.233,0.15,0.467,0.25,0.7c0.1,0.167,0.15,0.367,0.15,0.6
				c0.339-0.17,0.572-0.461,0.7-0.875c1.398-0.018,2.348,0.491,2.85,1.525c-0.267,0-1.083,0.183-2.45,0.55
				c-1.4,0.4-2.217,0.6-2.45,0.6v0.4c1.833-0.6,3.883-0.35,6.15,0.75c0.767,0.367,1.434,0.767,2,1.2c1,0.767,1.684,1.617,2.05,2.55
				c-0.333,0.467-1.05,0.85-2.15,1.15c-0.867,0.267-1.533,0.4-2,0.4c2.433,0.467,6.3,1.033,11.6,1.7c4.1,0.833,6.15,2.217,6.15,4.15
				c0,0.433-0.017,0.667-0.05,0.7c-0.067,0.033-0.167,0.117-0.3,0.25c-1.733-0.4-2.983-0.733-3.75-1c0.9,0.434,1.684,1.467,2.35,3.1
				c0.4,0.867,0.683,1.617,0.85,2.25c-2.3-0.767-4.617-1.517-6.95-2.25c-4.066-1.267-8.333-1.833-12.8-1.7
				c-0.667,0-0.467,0.383,0.6,1.15c0.067,0.633-0.333,0.867-1.2,0.7c-0.4-0.066-0.817-0.066-1.25,0c0.3,0.233,0.55,0.483,0.75,0.75
				c-1.167-0.333-1.983-0.583-2.45-0.75c1,0.434,1.9,1.067,2.7,1.9c0.1,0.067,0.183,0.15,0.25,0.25c0,0.067,0,0.133,0,0.2
				c-0.2,0-0.4-0.017-0.6-0.05c-4.333-0.7-7.983-2.117-10.95-4.25c0.4,0.4,0.8,0.816,1.2,1.25c0.2,0.2,0.317,0.4,0.35,0.6
				c0.133,1.767,0.25,3.534,0.35,5.3h-0.05c-1-0.434-1.9-0.65-2.7-0.65c-0.333,0-0.7,0.117-1.1,0.35
				c-0.433,0.267-0.817,0.4-1.15,0.4c-0.733,0-1.517-0.117-2.35-0.35c-0.333-0.1-1.817-0.617-4.45-1.55h-5.3v0.4
				c0.567,0.5,1.333,1,2.3,1.5h-1.9c0.5,0.033,1,0.267,1.5,0.7c0.5,0.4,0.75,0.8,0.75,1.2c0,0.467-0.017,0.733-0.05,0.8l-0.3,0.3
				c0,0.5-0.017,0.867-0.05,1.1c-0.333,1.367-1.433,2.917-3.3,4.65c-0.767,0.7-1.45,1.283-2.05,1.75c0.634-0.133,1.4-0.317,2.3-0.55
				c0.1-0.033,0.216-0.066,0.35-0.1c-1.934,1.867-4,3.25-6.2,4.15c0.233,0.033,0.6,0.1,1.1,0.2c0.433,0.1,0.867,0.233,1.3,0.4
				c0.767,0.267,1.517,0.467,2.25,0.6c3.3-0.5,6.433-0.85,9.4-1.05c0.367-0.067,0.733-0.1,1.1-0.1l0.05,0.05
				c3.9-0.2,7.517-0.15,10.85,0.15c0.067-0.167,0.15-0.333,0.25-0.5c0.467,0.267,0.95,0.5,1.45,0.7
				c0.667,0.067,1.316,0.15,1.95,0.25c-0.033-0.533-0.15-0.9-0.35-1.1l-0.4-0.4c0.566,0.267,1.566,0.833,3,1.7
				c0.3,0.167,0.6,0.316,0.9,0.45c0.733,0.167,1.45,0.35,2.15,0.55c-0.967-0.733-1.667-1.267-2.1-1.6
				c-0.867-0.667-1.3-1.467-1.3-2.4c0-0.667,0.4-1.35,1.2-2.05c0.167,0.467,0.367,0.867,0.6,1.2c0.667-0.333,0.9-1.15,0.7-2.45
				c-0.067-0.4-0.1-0.8-0.1-1.2c0.1,0.066,0.217,0.117,0.35,0.15c0.167,0.167,0.367,0.35,0.6,0.55c0.3,0.3,0.45,0.617,0.45,0.95
				c0.167-0.1,0.45-0.283,0.85-0.55c0.333,0.167,0.633,0.316,0.9,0.45c0.333,0.167,0.7,0.217,1.1,0.15
				c0.833-0.133,1.65-0.25,2.45-0.35c0.9-0.1,1.733,0.033,2.5,0.4c4.033,1.8,7.633,4.483,10.8,8.05
				c0.467,0.533,0.816,1.15,1.05,1.85c0.4,1.1,1.1,1.667,2.1,1.7c0.833-0.633,0.8-1.617-0.1-2.95c-0.566-0.767-0.95-1.6-1.15-2.5
				c0.633,0.367,1.233,0.783,1.8,1.25c0.233,0.167,0.45,0.35,0.65,0.55c0.667-0.133,0.883-0.733,0.65-1.8
				c-0.033-0.2-0.05-0.4-0.05-0.6c1.233,0.767,2.5,1.483,3.8,2.15c0.333,0.167,0.7,0.233,1.1,0.2c2.733-0.333,4.917,0.35,6.55,2.05
				c0.3,0.3,0.567,0.633,0.8,1c0.6,0.9,1.283,1.733,2.05,2.5c0.867,0.034,1.767,0.067,2.7,0.1c-0.2-0.9-0.634-1.7-1.3-2.4
				c0.2-0.4,0.9-0.083,2.1,0.95c0.333,0.3,0.7,0.55,1.1,0.75c0.567,0.333,1.267,0.633,2.1,0.9c0.267,0.033,0.533,0.05,0.8,0.05
				c-1.066-1.767-2.217-3.316-3.45-4.65c-1.733-1.9-2.983-3.917-3.75-6.05c1.6,1.6,3.017,2.833,4.25,3.7
				c0.233,0.167,0.45,0.35,0.65,0.55c0.066-1.567-0.533-2.8-1.8-3.7c-0.233-0.167-0.45-0.35-0.65-0.55c-0.1-0.1-0.184-0.2-0.25-0.3
				c1.733,1.7,3.85,2.783,6.35,3.25c0.4,0.067,0.8,0.1,1.2,0.1c-1.6-0.833-2.816-2.05-3.65-3.65c-0.233-0.4-0.433-0.817-0.6-1.25
				c0.533-0.7,1.55-1,3.05-0.9c4.167,0.3,8.033,1.167,11.6,2.6c1.967,0.767,3.733,1.883,5.3,3.35c0.5,0.5,0.917,1.067,1.25,1.7
				c0.833,1.7,1.684,3.316,2.55,4.85c-0.033-3.2-1.433-5.867-4.2-8c-0.433-0.367-0.867-0.75-1.3-1.15c-0.2-0.2-0.4-0.4-0.6-0.6
				c0.233-0.667,0.9-0.517,2,0.45c0.3,0.3,0.65,0.55,1.05,0.75c0.9,0.5,1.917,0.7,3.05,0.6c0.267-1.067,0.167-1.783-0.3-2.15
				c-0.2-0.167-0.367-0.434-0.5-0.8c-0.033-0.167-0.117-0.333-0.25-0.5c1,0.967,2.383,1.684,4.15,2.15c2.167,0.566,4.383,1,6.65,1.3
				c-0.2-1.5-1-2.55-2.4-3.15c-0.233-0.133-0.45-0.3-0.65-0.5c-0.2-0.2-0.417-0.4-0.65-0.6c1.167,0.033,2.25,0.6,3.25,1.7
				c0.3,0.3,0.667,0.5,1.1,0.6c3.2,0.7,6.45,1.434,9.75,2.2c0.167,0.033,0.35-0.05,0.55-0.25c-0.133-0.667-0.517-1.15-1.15-1.45
				c0.067-0.867,0.5-1.05,1.3-0.55c0.5,0.333,1.034,0.617,1.6,0.85c2.233,0.967,4.55,1.783,6.95,2.45c1.167-0.7,2.35-1.45,3.55-2.25
				c0.066-0.1,0.184-0.167,0.35-0.2c0.2,0,0.483,0.133,0.85,0.4c1.133,0.8,1.95,1.65,2.45,2.55c0.133,0.233,0.317,0.434,0.55,0.6
				c1.433,1.1,3.033,2.167,4.8,3.2c0.233,0.133,0.434,0.316,0.6,0.55c0.9,1.2,1.517,2.4,1.85,3.6c0.9-1.233,1.483-2.65,1.75-4.25
				c0.066-0.6,0.1-1.2,0.1-1.8c0.533,1.267,1.733,2.133,3.6,2.6c0.233,0.067,0.467,0.167,0.7,0.3c0.867,0.533,1.667,1.1,2.4,1.7
				v-4.9c-1-1.7-2.033-3.217-3.1-4.55c-0.167-0.233-0.367-0.367-0.6-0.4c-4.3-0.4-7.767-1.55-10.4-3.45
				c-0.933-0.667-1.767-1.417-2.5-2.25c-0.7,0.167-1.433,0.083-2.2-0.25c-2.934-1.3-4.983-3.45-6.15-6.45
				c-0.2,0.2-0.383,0.417-0.55,0.65c-0.267,0.367-0.5,0.75-0.7,1.15c0-0.4-0.066-0.633-0.2-0.7c-0.9-0.333-1.85-0.5-2.85-0.5
				c-0.4,0-0.684,0.1-0.85,0.3c-0.567,0.7-1.5,1.083-2.8,1.15c-0.4,0.033-0.8,0.05-1.2,0.05c-0.2,0-0.417-0.066-0.65-0.2
				c-1.267-0.733-2.45-1.6-3.55-2.6c-0.767-0.667-1.55-1.05-2.35-1.15c-1.6-1.233-3.9-2.567-6.9-4c-2.934-1.367-6.15-2.65-9.65-3.85
				c0.4,0.233,0.9,0.633,1.5,1.2c0.533,0.5,0.983,0.934,1.35,1.3l-14.35-7.7c0.833,1,1.25,1.767,1.25,2.3
				c-0.167,0-0.283,0.066-0.35,0.2l-0.05,0.2c-1.067,0.1-2.15-0.2-3.25-0.9c-0.133-0.1-0.333-0.233-0.6-0.4
				c-0.433-0.3-1.033-0.75-1.8-1.35c0.7,0.7,1.15,1.216,1.35,1.55c0.167,0.467,0.35,0.95,0.55,1.45h-0.4
				c-1.533-1.034-2.684-1.8-3.45-2.3c-1.366-0.9-2.35-1.383-2.95-1.45v0.35c0.233,0.267,0.35,0.9,0.35,1.9h-0.75
				c-1.6-1.9-2.733-3.15-3.4-3.75c0,0.733-0.133,1.1-0.4,1.1c-0.6-2.033-1.133-3.35-1.6-3.95c-0.5-0.633-1.283-0.95-2.35-0.95
				c-3.4,0.4-5.85,0.533-7.35,0.4c-1.2-0.1-2.45-0.533-3.75-1.3c-1.333-0.733-2.733-1.817-4.2-3.25c-0.367,0.367-0.733,0.6-1.1,0.7
				c-0.167,0.033-0.616,0.05-1.35,0.05c-3.367,0-5.783-0.817-7.25-2.45c-0.6-0.833-1.017-1.4-1.25-1.7c-0.4-0.5-0.85-0.75-1.35-0.75
				c-1.03,0-2.213,0.083-3.55,0.25c-0.003-0.554,0.03-1.121,0.1-1.7c0.1-0.8,0.25-1.583,0.45-2.35c0.333-1.367,0.767-2.633,1.3-3.8
				c0.051-0.113,0.101-0.23,0.15-0.35C3101.225-223.653,3097.608-223.703,3093.7-223.5z"/>
		</g>
	</g>
</symbol>
<use xlink:href="#ground_x5F_04"  width="553.145" height="130.2" x="2892.043" y="-244.7" transform="matrix(1 0 0 -1 -2892.0498 -114.5)" style="overflow:visible;"/>
</svg>
