<?xml version="1.0" encoding="iso-8859-1"?>
<!-- Generator: Adobe Illustrator 16.0.0, SVG Export Plug-In . SVG Version: 6.00 Build 0)  -->
<!DOCTYPE svg PUBLIC "-//W3C//DTD SVG 1.1//EN" "http://www.w3.org/Graphics/SVG/1.1/DTD/svg11.dtd">
<svg version="1.1" id="Layer_1" xmlns="http://www.w3.org/2000/svg" xmlns:xlink="http://www.w3.org/1999/xlink" x="0px" y="0px"
	 width="427px" height="171px" viewBox="0 0 427 171" style="enable-background:new 0 0 427 171;" xml:space="preserve">
<symbol  id="ground" viewBox="-316.191 -229 423.088 167">
	<g id="Layer_3_1_">
		<g>
			<path style="fill-rule:evenodd;clip-rule:evenodd;fill:#577820;" d="M15.075-125.65c2.466-0.9,4.525-1.35,6.175-1.35
				c1.9,0,5.117-1.217,9.65-3.65c2.367-1.267,5.067-2.717,8.1-4.35c1.567-0.567,4.567-2.333,9-5.3
				c0.315-0.212,0.64-0.421,0.975-0.625c2.332-1.357,5.207-2.374,8.625-3.05c14.377-5.68,26.527-13.072,36.45-22.175
				c6.891-6.331,11.008-12.123,12.35-17.375c-0.111-0.439-0.312-0.731-0.6-0.875c-0.333,0.033-0.6,0.267-0.8,0.7
				c-0.1,0.167-0.233,0.3-0.4,0.4c-0.833,0.566-1.667,1.133-2.5,1.7c-0.833,0.567-1.75,0.85-2.75,0.85
				c-0.688,0-1.321,0.142-1.9,0.425c0.046-0.83,0.279-1.472,0.7-1.925c0.6-0.667,1.15-1.117,1.65-1.35
				c1.233-0.5,1.733-1.65,1.5-3.45c-0.066-0.367,0.167-0.5,0.7-0.4c1.8,0.333,2.8-0.267,3-1.8c0.033-0.033,0.167-0.05,0.4-0.05
				c0.451,0,0.901,0.008,1.35,0.025c-0.313-1.962-1.081-3.837-2.3-5.625c-6.287-9.201-14.529-16.309-24.725-21.325
				c-16.689-8.198-38.614-10.79-65.775-7.775c0.027,0.228,0.044,0.461,0.05,0.7c-0.133-0.133-0.267-0.25-0.4-0.35
				c-0.114-0.093-0.222-0.185-0.325-0.275c-0.401,0.044-0.801,0.094-1.2,0.15c-0.042,0.003-0.083,0.003-0.125,0
				c-0.2,0.025-0.4,0.05-0.6,0.075c-12.593,1.537-25.66,4.203-39.2,8c-2.912,0.813-5.845,1.68-8.8,2.6
				c-11.934,3.733-21.233,7.217-27.9,10.45c-11.034,5.2-19.383,9.217-25.05,12.05c-9.833,4.9-18.367,9.684-25.6,14.35
				c-8.033,5.167-22.433,10.4-43.2,15.7c-19.067,4.9-35.867,8.05-50.4,9.45c-14.101,1.333-29.017,4.917-44.75,10.75
				c-3.176,1.169-6.893,2.627-11.15,4.375c-2.174,0.901-4.491,1.876-6.95,2.925c-2.529,1.073-4.779,2.023-6.75,2.85
				c-4.043,1.685-6.926,2.851-8.649,3.5c-4.601,1.767-7.983,4.05-10.15,6.85c-2.1,2.8-2.833,5.833-2.2,9.1
				c0.333,1.631,0.949,3.223,1.851,4.775c0.283,0.479,0.592,0.954,0.925,1.425c0.111,0.64,0.22,1.374,0.325,2.2
				c0.122,1.041,0.205,1.89,0.25,2.55c0.033,0.428,0.05,0.778,0.05,1.05c0,0.633-0.1,1.567-0.3,2.8
				c-0.233,1.233-0.467,2.217-0.7,2.95v0.5c0.2,0,0.783-0.25,1.75-0.75s1.467-0.75,1.5-0.75c0.533,0,0.816,0.1,0.85,0.3
				c-0.066,0.3-0.1,0.534-0.1,0.7c0.5-0.167,0.833-0.5,1-1h0.5c-0.5,2,0.5,4,3,6c0.434-0.2,0.767-0.7,1-1.5
				c0.533,0.233,2.217,1.517,5.05,3.85c3,2.433,5.15,4.316,6.45,5.65l0.5,0.5c-0.2-0.7-0.7-1.6-1.5-2.7c-0.6-0.9-0.934-1.833-1-2.8
				c1.833,0,3.267,0.25,4.3,0.75c1,0.5,1.65,0.75,1.95,0.75c1.167,0,2.616,0.7,4.35,2.1c1.934,1.533,2.733,3,2.4,4.4
				c2.066-1.667,3.15-2.5,3.25-2.5c0.267,0,0.5,0.167,0.7,0.5c0.333,0.567,0.533,0.883,0.6,0.95c0.634,0.7,1.95,0.55,3.95-0.45
				c2.6,2.6,4.6,3.767,6,3.5v-2c0.7,0.7,2.667,1.733,5.9,3.1c2.833,1.167,4.533,1.8,5.1,1.9h0.5c-0.9-0.033-1.483-0.35-1.75-0.95
				c-0.467-1-0.717-1.517-0.75-1.55V-75c0.2,0.067,0.934,0.567,2.2,1.5c0.899,0.667,1.916,1,3.05,1c0.434,0,1.35-0.167,2.75-0.5
				c1.434-0.333,2.35-0.5,2.75-0.5c2.833,0,5.4,1.167,7.7,3.5s3.733,3.5,4.3,3.5c0.434,0,1.083-0.35,1.95-1.05
				c1.2-0.934,2.133-1.583,2.8-1.95c0.667,0.733,1.117,1.2,1.35,1.4c0.867,0.733,1.75,1.1,2.65,1.1c0.4,0,0.65-0.033,0.75-0.1
				c0.267-0.2,0.517-0.667,0.75-1.4c1.467,0.433,3.3,1.1,5.5,2h2.5v-2c0.8,0.6,1.8,1.033,3,1.3c1.333,0.267,2.333,0.5,3,0.7h0.5
				c0-0.267-0.1-0.6-0.3-1c-0.2-0.433-0.434-0.767-0.7-1c0.367,0.167,3.667,1.017,9.9,2.55c5.333,1.3,8.533,2.617,9.6,3.95
				c0-0.533,0.333-2.033,1-4.5c0.633,0.5,1.717,0.817,3.25,0.95c0.533,0.033,1.7,0.05,3.5,0.05c2.967,0,5.017-0.25,6.15-0.75
				c1.1-0.5,3.717-0.75,7.85-0.75c0.333,0,1-0.333,2-1s1.833-1,2.5-1c6.5,1,10.417,1.833,11.75,2.5c1.467-2.133,2.933-3.2,4.4-3.2
				c2.133,0.467,4.167,0.7,6.1,0.7c0.4,0,1.033-0.283,1.9-0.85c0.9-0.6,1.767-1.316,2.6-2.15h3c0.305,0.915,0.472,2.248,0.5,4
				c1.767-0.267,3.35-0.65,4.75-1.15c2.8-0.967,3.383-2.083,1.75-3.35c0.667,0,1.4,0.25,2.2,0.75c0.8,0.5,1.4,0.75,1.8,0.75
				c1.2,0,2.2-0.833,3-2.5c0.467,0,1.3,0.183,2.5,0.55c1.467,0.467,2.633,0.784,3.5,0.95h4.5c-0.2-0.4-0.717-0.917-1.55-1.55
				C-97.683-74.35-98.5-75-99-75.5v-1c2.9,0.333,4.917-0.383,6.05-2.15c1.233-1.9,3.05-2.85,5.45-2.85c0.8,0,1.817,0.333,3.05,1
				c0.2,0.1,1.017,0.6,2.45,1.5c-0.067-2.033-0.017-3.317,0.15-3.85C-81.617-83.617-81-84-80-84c3.067,1.067,4.9,1.9,5.5,2.5
				c0.167-1.233,0.817-2.4,1.95-3.5c0.667-0.667,1.85-1.667,3.55-3c1.267,0,2.433,0.417,3.5,1.25c1.1,0.833,2.017,1.25,2.75,1.25
				c1.833,0,4.417-0.333,7.75-1c-0.633,0.067-1.95-0.4-3.95-1.4c-1.133-0.567-2.816-1.434-5.05-2.6V-91
				c0.668,0.122,1.435,0.038,2.3-0.25c1.027-0.341,2.194-0.975,3.5-1.9c2.667-1.9,5.817-2.85,9.45-2.85c0.633,0,1.167,0.067,1.6,0.2
				c1.167,0.367,2.217,1.133,3.15,2.3c-0.667-1-1.5-2.833-2.5-5.5c0.1,0,0.25,0.083,0.45,0.25c0.233,0.167,0.583,0.25,1.05,0.25
				c0.433,0,0.933-0.167,1.5-0.5c0.6-0.333,1.1-0.5,1.5-0.5c1,0,1.833,0.333,2.5,1c0.733-2.2,1.867-3.983,3.4-5.35
				c0.918-0.822,1.901-1.406,2.95-1.75c-0.252-0.449-0.536-0.782-0.85-1c-1.767-1.233-3.667-2.233-5.7-3
				c-0.367-0.133-0.716-0.3-1.05-0.5c-1.1-0.667-1.8-0.517-2.1,0.45c-0.033,0.167-0.066,0.333-0.1,0.5c-0.066,0.4-0.367,0.5-0.9,0.3
				c-1.1-0.433-2.1-1.05-3-1.85c0.1,0.367,0.25,0.717,0.45,1.05c0.066,0.167,0.133,0.333,0.2,0.5c0.733,1.433,1.65,2.417,2.75,2.95
				c-6.033-1.1-11.45-3.367-16.25-6.8c-0.133,0.133-0.216,0.283-0.25,0.45c-0.1,0.367-0.283,0.8-0.55,1.3c-1.5,0-2.5-0.45-3-1.35
				c0,0.233,0,0.483,0,0.75c0,0.5,0,1,0,1.5c-0.133,0-0.267-0.017-0.4-0.05c-0.233-0.1-0.483-0.2-0.75-0.3
				c0,0.233-0.017,0.483-0.05,0.75c-0.167,1.1-0.267,2.233-0.3,3.4c0-1-0.05-2.017-0.15-3.05c-0.033-0.267-0.15-0.467-0.35-0.6
				c-2.5-2.033-5.367-3.333-8.6-3.9c0.333,0.3,0.434,0.8,0.3,1.5c-0.067,0.233-0.2,0.434-0.4,0.6c-0.167,0.1-0.333,0.083-0.5-0.05
				c-0.933-0.733-1.883-1.3-2.85-1.7c-0.067,0.233-0.1,0.467-0.1,0.7c0.167,1.233-0.15,1.867-0.95,1.9c-0.233,0.033-0.45,0-0.65-0.1
				c-0.733-0.433-1.533-0.883-2.4-1.35c0.1,1.367-0.4,2.1-1.5,2.2c-0.934,0.1-1.434-0.25-1.5-1.05c-1.7,0.967-3.467,1.684-5.3,2.15
				c-0.233,0.066-0.433,0.167-0.6,0.3c-0.218,0.181-0.518,0.281-0.9,0.3c1.136-0.734,2.169-1.717,3.1-2.95
				c0.2-0.267,0.35-0.567,0.45-0.9c0.233-0.9,0.3-1.8,0.2-2.7c0-0.4,0.1-0.3,0.3,0.3c0.066,0.167,0.183,0.35,0.35,0.55
				c0.2,0.167,0.4,0.333,0.6,0.5c0.2,0.1,0.417,0.117,0.65,0.05c0.5-0.133,0.883-0.6,1.15-1.4c-0.067-0.033,0.316,0.017,1.15,0.15
				c0.1,0.033,0.233,0,0.4-0.1c0.367-0.267,0.6-0.667,0.7-1.2c0.5,0.633,1.25,0.967,2.25,1c0.667,0,0.967-0.45,0.9-1.35
				c-0.067-1.033-0.15-2.05-0.25-3.05c-0.033-0.267-0.133-0.5-0.3-0.7c-0.1-0.167-0.217-0.3-0.35-0.4
				c-0.1-0.3,0.183-0.217,0.85,0.25c0.767,0.533,1.633,0.967,2.6,1.3c3.367,1.2,6.383,2.7,9.05,4.5c0.467-0.267,0.433-0.75-0.1-1.45
				c-0.3-0.434-0.65-0.833-1.05-1.2c-0.167-0.2,0.1-0.1,0.8,0.3c0.233,0.133,0.467,0.217,0.7,0.25c0.133,0,0.267,0,0.4,0
				c2.667-0.233,5.2-0.117,7.6,0.35c0.6,0.133,1.2,0.25,1.8,0.35c1,0.167,1.9,0.483,2.7,0.95c1.333,0.8,2.733,1.517,4.2,2.15
				c0.833,0.333,1.217,0.133,1.15-0.6c-0.033-0.267-0.083-0.5-0.15-0.7c-0.066-0.167-0.167-0.3-0.3-0.4
				c1.667,0.533,3.433,0.783,5.3,0.75c0.267,0,0.517,0,0.75,0c-0.133-0.633-0.3-1.25-0.5-1.85c-0.033-0.167-0.117-0.316-0.25-0.45
				c1.067,0.033,1.983,0.383,2.75,1.05c0.4,0.3,0.85,0.517,1.35,0.65c0.533,0.133,1.067,0.3,1.6,0.5
				c4.37,1.513,8.879,2.505,13.525,2.975c0.11,0.071,0.218,0.146,0.325,0.225c2.927-0.072,4.994-0.822,6.2-2.25
				c1.267-1.5,2.883-2.25,4.85-2.25c0.8,0,2.367-0.833,4.7-2.5c2.333-1.667,4.433-2.5,6.3-2.5c0.567,0,1.767,0.333,3.6,1
				c0.167,0.061,0.333,0.119,0.5,0.175c0.471-1.674,0.638-3.523,0.5-5.55c1.417,0.708,2.634,1.583,3.65,2.625
				c0-1.133,0.033-1.583,0.1-1.35c0.066,0.133,0.167,0.25,0.3,0.35c1.233,0.8,2.117,0.633,2.65-0.5
				c0.233-0.133,0.35-0.317,0.35-0.55c0-0.367,0-0.75,0-1.15c0.133-0.333,0.4-0.1,0.8,0.7c0.1,0.167,0.233,0.283,0.4,0.35
				c0.338,0.175,0.688,0.317,1.05,0.425c0.601,0.196,1.234,0.304,1.9,0.325c0.434,0,0.534-0.333,0.3-1
				c-0.021-0.064-0.037-0.131-0.05-0.2c-0.246-0.754-0.446-1.454-0.6-2.1c0.267,0.633,0.9,1.034,1.9,1.2
				C14.61-125.685,14.852-125.652,15.075-125.65z M15-181.15c-0.233-0.033-0.483-0.067-0.75-0.1c-3.133-0.3-5.267-1.483-6.4-3.55
				c0.2,2.7,1.033,4.667,2.5,5.9c-0.1-0.033-0.2-0.067-0.3-0.1c-1.133-0.433-2.383-0.967-3.75-1.6c-1.5-0.7-2.683-1.583-3.55-2.65
				c0.033,0.8-0.167,1.3-0.6,1.5c-0.467-0.467-0.816-1.1-1.05-1.9c-0.267-1.133-0.417-1.25-0.45-0.35
				c0.033,0.133-0.2-0.017-0.7-0.45c-0.767-0.7-1.65-1.233-2.65-1.6c-1.066-0.4-2.216-0.583-3.45-0.55
				c-1.333,0.033-2.6,0.383-3.8,1.05c0,0.233,0.067,0.417,0.2,0.55c0.433,0.467,0.633,1.167,0.6,2.1
				c-0.267-0.1-0.517-0.233-0.75-0.4c-0.667-0.434-0.967-0.383-0.9,0.15c0.667,0.566,1.216,1.15,1.65,1.75
				c-1.767-0.267-3.467-0.833-5.1-1.7c-0.133,0.133-0.233,0.217-0.3,0.25c-0.733,0.167-1.467,0.15-2.2-0.05
				c0,0.5-0.1,0.883-0.3,1.15c-0.833,1.167-1.867,1.917-3.1,2.25c0-0.267,0.066-0.433,0.2-0.5c0.3-0.233,0.383-0.7,0.25-1.4
				c-0.033-0.267-0.117-0.45-0.25-0.55c-0.233-0.233-0.517-0.466-0.85-0.7c-0.5-0.333-1.034-0.5-1.6-0.5
				c-0.567,0-0.95,0.217-1.15,0.65c-0.367,0.9-0.9,1.05-1.6,0.45c-0.633-0.534-0.967-0.684-1-0.45c0,0.367,0,0.733,0,1.1
				c0,0.267-0.05,0.5-0.15,0.7c-0.233,0.467-0.8,0.583-1.7,0.35c-0.167-0.066-0.333-0.117-0.5-0.15c-0.2-0.067-0.35-0.15-0.45-0.25
				c-0.267-0.433-0.6-0.767-1-1c-0.433,1.567-1.816,2.2-4.15,1.9c-0.566-0.066-1.117-0.133-1.65-0.2
				c0.567-0.434,1.083-0.817,1.55-1.15c0.2-0.133,0.3-0.316,0.3-0.55c0.133-1.033,0.066-1.917-0.2-2.65c0.5,0.133,1,0.25,1.5,0.35
				c1.067,0.2,1.45-0.3,1.15-1.5c0.633-0.133,1.167-0.034,1.6,0.3c0.767-0.5,0.9-1.233,0.4-2.2c0.7,0.467,1.534,0.833,2.5,1.1
				c1.267,0.3,1.95-0.05,2.05-1.05c0.033-0.133,0.066-0.267,0.1-0.4c0.2-1.567-0.1-2.917-0.9-4.05
				c1.133,1.533,2.617,2.417,4.45,2.65c0.267,0.034,0.517,0.083,0.75,0.15c0.833,0.167,1.467,0.083,1.9-0.25
				c0-1.067-0.35-1.867-1.05-2.4c1.633,0.133,3.367,0.25,5.2,0.35c1.333,0.1,2.583-0.117,3.75-0.65c2.534-1.1,5.083-1.133,7.65-0.1
				c0.566,0.233,1.167,0.4,1.8,0.5c-0.3-1.133-0.117-1.333,0.55-0.6c0.133,0.133,0.233,0.317,0.3,0.55
				c0.066,0.167,0.183,0.3,0.35,0.4c1.3,0.7,2.883,0.85,4.75,0.45c0.2-0.167,0.367-0.184,0.5-0.05c0.767,1.067,1.883,1.767,3.35,2.1
				c1.067,0.233,2.217,0.4,3.45,0.5c0.633,0.033,1.267,0.05,1.9,0.05c-0.433-0.633-1.066-1.133-1.9-1.5
				c-0.067-0.033-0.117-0.066-0.15-0.1c0.933,0.4,2.1,0.733,3.5,1c3,0.566,6.033,0.75,9.1,0.55c1.233-0.067,2.4,0.15,3.5,0.65
				c0.566,0.233,1.167,0.45,1.8,0.65c2.433,0.667,4.667,1.7,6.7,3.1c-0.833-0.1-1.684-0.2-2.55-0.3c-2.267-0.3-4.65-0.383-7.15-0.25
				c1.3,0.467,2.3,1.1,3,1.9c-0.133,0-0.267-0.017-0.4-0.05c-0.233-0.1-0.483-0.2-0.75-0.3c-0.5-0.167-1-0.25-1.5-0.25
				c-0.767,0-1.517,0.05-2.25,0.15c-0.233,0.034-0.434,0.117-0.6,0.25c-0.333,0.267-0.833,0.35-1.5,0.25
				c0.033,0.034,0.067,0.067,0.1,0.1c0.7,0.467,1.117,1.05,1.25,1.75c-0.367,0-0.75-0.033-1.15-0.1c-0.5-0.066-1-0.167-1.5-0.3
				c0.267,0.233,0.517,0.483,0.75,0.75c0.267,0.233,0.433,0.5,0.5,0.8c0.167,0.467,0.283,0.95,0.35,1.45
				c0.133,0.833-0.033,1.35-0.5,1.55c-0.1-0.367-0.233-0.75-0.4-1.15c-0.367-1-1-1.717-1.9-2.15
				C18.683-180.55,16.933-181.017,15-181.15z M36.3-151.9c0.267,0.1,0.483,0.25,0.65,0.45c0.15,0.156,0.309,0.297,0.475,0.425
				c-2.849-0.838-5.757-1.38-8.725-1.625c-1.133-0.1-1.633,0.083-1.5,0.55c0.733-0.033,1.117,0.283,1.15,0.95
				c-2.667,0-5.184-0.383-7.55-1.15c0,0.133,0,0.267,0,0.4c-0.045,0.917-0.004,1.792,0.125,2.625
				c-0.19-0.406-0.499-0.747-0.925-1.025c-0.833-0.534-1.867-1.15-3.1-1.85c-2.066-1.233-4.417-1.95-7.05-2.15
				c-1.067-0.067-1.833,0.1-2.3,0.5c2.4,0.9,4.55,2.417,6.45,4.55c-1.367-0.5-2.733-1.033-4.1-1.6c-1.5-0.566-3.033-1.033-4.6-1.4
				c-0.966-0.233-1.617-0.133-1.95,0.3c-0.3,0.434-0.917,0.567-1.85,0.4c0.967,0.4,1.85,0.917,2.65,1.55
				c-2.667,0.1-5.05-0.417-7.15-1.55c0.7,0.5,1.317,0.867,1.85,1.1c0.867,0.367,1.5,0.883,1.9,1.55
				c-1.933-0.167-3.717-0.633-5.35-1.4c-0.333-0.2-0.65-0.4-0.95-0.6c-0.934-0.6-1.85-1.184-2.75-1.75
				c1.267,1.833,1.767,3.967,1.5,6.4c0.033-1.6-0.434-2.883-1.4-3.85c-0.3-0.333-0.633-0.617-1-0.85c-2.6-2.033-5.583-3.033-8.95-3
				c0.833,0.034,1.217,0.467,1.15,1.3c-0.1,0.4-0.467,0.483-1.1,0.25c-0.133-0.067-0.283-0.117-0.45-0.15
				c-0.167-0.041-0.309-0.082-0.425-0.125c0.008,0.027,0.016,0.053,0.025,0.075c0.633,1.3,0.65,2.533,0.05,3.7
				c0.233-1.6-0.4-2.733-1.9-3.4c-0.5-0.267-1.017-0.45-1.55-0.55c-1-0.233-1.967-0.583-2.9-1.05c-0.4-0.2-0.817-0.367-1.25-0.5
				c-0.667-0.267-1.4-0.434-2.2-0.5c-0.233-0.033-0.367-0.033-0.4,0c-0.066,0.667-0.4,1.017-1,1.05
				c-0.3-0.733-0.717-1.217-1.25-1.45c0,0.233,0,0.483,0,0.75c0.067,0.8-0.183,1.267-0.75,1.4c-0.233,0.066-0.383,0.05-0.45-0.05
				c-0.267-0.533-0.633-0.85-1.1-0.95c-0.1,0.967-0.383,1.683-0.85,2.15c-0.167,0.167-0.3,0.217-0.4,0.15
				c-0.333-0.333-0.817-0.283-1.45,0.15c-0.533,0.434-0.933,0.833-1.2,1.2c-0.133,0.2-0.333,0.3-0.6,0.3
				c-1.381-0.059-2.623,0.183-3.725,0.725c0.35-0.883,0.925-1.525,1.725-1.925c0.2-0.1,0.4-0.233,0.6-0.4
				c0.733-0.667,1.2-1.833,1.4-3.5c0.2,0.633,0.45,1.267,0.75,1.9c0.767-0.4,1.033-1.167,0.8-2.3c0.367,0,0.75,0.117,1.15,0.35
				c0.633-0.8,0.85-1.917,0.65-3.35c-0.067-0.733,0.316-1.117,1.15-1.15c0-0.6,0-1.1,0-1.5c0.6,0.3,1.367,0.567,2.3,0.8
				c0.367,0.1,0.733,0.216,1.1,0.35c2.633,1.034,5.167,1.65,7.6,1.85c-0.233-1.433-1.117-2.433-2.65-3c0-0.2,0.35-0.167,1.05,0.1
				c0.167,0.067,0.333,0.117,0.5,0.15c1.067,0.3,2.183,0.467,3.35,0.5c0.167-0.533,0.05-0.85-0.35-0.95
				c3.6-0.4,7.15-0.034,10.65,1.1c0.833,0.267,1.667,0.534,2.5,0.8c2.1,0.566,4.133,1.267,6.1,2.1c0.733,0.3,1.483,0.417,2.25,0.35
				c-1.467-1.466-3.1-2.85-4.9-4.15c1.167,0.333,2.3,0.7,3.4,1.1c0.533,0.2,0.883,0.133,1.05-0.2c0.067-0.1,0.217-0.15,0.45-0.15
				c1.333,0,2.6,0.15,3.8,0.45c3.733,0.967,7.383,1.933,10.95,2.9c1.067,0.267,2.067,0.767,3,1.5c0.5,0.4,1.133,0.667,1.9,0.8
				c-0.033-0.533-0.15-1.033-0.35-1.5c1.618,0.156,3.251,0.264,4.9,0.325c0.116,0.012,0.232,0.021,0.35,0.025h0.4
				c0.848,0.034,1.598,0.167,2.25,0.4C30.917-154.633,33.7-153.367,36.3-151.9z M4.925-118.825c-0.232-0.113-0.49-0.188-0.775-0.225
				c0,0.157,0,0.323,0,0.5c0.304,0.033,0.588,0.05,0.85,0.05C5-118.638,4.975-118.747,4.925-118.825z M-33.1-105.625
				c0.751-0.25,1.534-0.375,2.35-0.375c1.4,0,2.983,0.5,4.75,1.5c0.013-1.932,0.097-3.573,0.25-4.925
				c-2.652-0.289-5.252-0.514-7.8-0.675c0.267,0.133,0.483,0.434,0.65,0.9c-0.5,0-0.983-0.05-1.45-0.15
				c-0.167-0.033-0.333-0.066-0.5-0.1c-0.423-0.102-0.731-0.194-0.925-0.275c0.301,0.495,0.709,1.087,1.225,1.775
				c0.2,0.3,0.417,0.6,0.65,0.9C-33.58-106.631-33.313-106.156-33.1-105.625z M-117.55-122.4c-0.1-0.367-0.233-0.75-0.4-1.15
				c-0.367-1-1-1.717-1.9-2.15c-1.566-0.8-3.316-1.267-5.25-1.4c-0.233-0.033-0.483-0.066-0.75-0.1c-3.133-0.3-5.267-1.483-6.4-3.55
				c0.193,2.702,1.026,4.677,2.5,5.925c-0.098-0.063-0.198-0.104-0.3-0.125c-1.133-0.433-2.383-0.966-3.75-1.6
				c-1.5-0.7-2.684-1.583-3.55-2.65c0.033,0.8-0.167,1.3-0.6,1.5c-0.466-0.466-0.816-1.1-1.05-1.9
				c-0.267-1.133-0.417-1.25-0.45-0.35c0.034,0.133-0.2-0.017-0.7-0.45c-0.767-0.7-1.65-1.233-2.65-1.6
				c-1.067-0.4-2.217-0.583-3.45-0.55c-1.333,0.033-2.6,0.383-3.8,1.05c0,0.233,0.066,0.417,0.2,0.55
				c0.434,0.467,0.633,1.167,0.6,2.1c-0.267-0.1-0.517-0.233-0.75-0.4c-0.667-0.433-0.967-0.383-0.9,0.15
				c0.667,0.567,1.217,1.15,1.65,1.75c-1.767-0.267-3.467-0.833-5.1-1.7c-0.133,0.133-0.233,0.216-0.3,0.25
				c-0.733,0.167-1.467,0.15-2.2-0.05c0,0.5-0.1,0.883-0.3,1.15c-0.833,1.167-1.867,1.917-3.1,2.25c0-0.267,0.067-0.433,0.2-0.5
				c0.3-0.233,0.383-0.7,0.25-1.4c-0.034-0.267-0.117-0.45-0.25-0.55c-0.233-0.233-0.517-0.467-0.85-0.7
				c-0.5-0.333-1.033-0.5-1.6-0.5s-0.95,0.217-1.15,0.65c-0.367,0.9-0.9,1.05-1.6,0.45c-0.633-0.533-0.967-0.683-1-0.45
				c0,0.367,0,0.733,0,1.1c0,0.267-0.05,0.5-0.15,0.7c-0.233,0.467-0.8,0.583-1.7,0.35c-0.167-0.067-0.333-0.117-0.5-0.15
				c-0.2-0.066-0.35-0.15-0.45-0.25c-0.267-0.433-0.6-0.767-1-1c-0.434,1.567-1.817,2.2-4.15,1.9
				c-0.558-0.066-1.116-0.132-1.675-0.2c0.573-0.448,1.098-0.832,1.575-1.15c0.2-0.133,0.3-0.317,0.3-0.55
				c0.133-1.033,0.067-1.917-0.2-2.65c0.5,0.133,1,0.25,1.5,0.35c1.067,0.2,1.45-0.3,1.15-1.5c0.633-0.133,1.167-0.033,1.6,0.3
				c0.767-0.5,0.9-1.233,0.4-2.2c0.7,0.467,1.533,0.833,2.5,1.1c1.267,0.3,1.95-0.05,2.05-1.05c0.033-0.133,0.067-0.267,0.1-0.4
				c0.194-1.55-0.115-2.9-0.925-4.05c1.16,1.539,2.651,2.422,4.475,2.65c0.267,0.033,0.517,0.083,0.75,0.15
				c0.833,0.167,1.467,0.083,1.9-0.25c0-1.067-0.35-1.867-1.05-2.4c1.633,0.133,3.367,0.25,5.2,0.35
				c1.333,0.1,2.583-0.117,3.75-0.65c2.533-1.1,5.083-1.133,7.65-0.1c0.566,0.233,1.167,0.4,1.8,0.5
				c-0.3-1.133-0.117-1.333,0.55-0.6c0.133,0.133,0.233,0.316,0.3,0.55c0.067,0.167,0.183,0.3,0.35,0.4
				c1.3,0.7,2.883,0.85,4.75,0.45c0.2-0.167,0.367-0.183,0.5-0.05c0.767,1.066,1.883,1.767,3.35,2.1c1.066,0.233,2.216,0.4,3.45,0.5
				c0.633,0.034,1.267,0.05,1.9,0.05c-0.433-0.633-1.066-1.133-1.9-1.5c-0.055-0.032-0.114-0.065-0.175-0.1
				c0.951,0.393,2.126,0.726,3.525,1c3,0.567,6.033,0.75,9.1,0.55c1.233-0.066,2.4,0.15,3.5,0.65c0.566,0.233,1.167,0.45,1.8,0.65
				c2.423,0.671,4.656,1.705,6.7,3.1c-0.837-0.104-1.687-0.205-2.55-0.3c-2.267-0.3-4.65-0.383-7.15-0.25c1.3,0.467,2.3,1.1,3,1.9
				c-0.133,0-0.267-0.017-0.4-0.05c-0.233-0.1-0.483-0.2-0.75-0.3c-0.5-0.167-1-0.25-1.5-0.25c-0.767,0-1.517,0.05-2.25,0.15
				c-0.233,0.033-0.433,0.117-0.6,0.25c-0.325,0.271-0.833,0.362-1.525,0.275c0.042,0.025,0.083,0.05,0.125,0.075
				c0.7,0.466,1.117,1.05,1.25,1.75c-0.367,0-0.75-0.034-1.15-0.1c-0.5-0.067-1-0.167-1.5-0.3c0.267,0.233,0.517,0.483,0.75,0.75
				c0.267,0.233,0.433,0.5,0.5,0.8c0.167,0.467,0.283,0.95,0.35,1.45C-116.917-123.117-117.083-122.6-117.55-122.4z M11.55-228.1
				c-0.233-0.266-0.433-0.566-0.6-0.9C10.556-228.697,10.756-228.397,11.55-228.1z M-95.4-114.35
				c-0.267-0.086-0.583-0.136-0.95-0.15c-0.867,0-1.75,0.05-2.65,0.15c-0.133,0.033-0.267,0.05-0.4,0.05
				c-0.833,0.066-1.167,0.483-1,1.25c0.267,1.4-0.15,2.066-1.25,2c-0.233-0.034-0.467,0-0.7,0.1c-0.733,0.333-1,1.167-0.8,2.5
				c-0.267,0-0.533-0.033-0.8-0.1c-0.233-0.067-0.483-0.117-0.75-0.15c-0.667-0.133-0.966-0.55-0.9-1.25
				c0.037-0.321,0.07-0.555,0.1-0.7c-0.684,0.462-1.317,1.196-1.9,2.2c-0.667,1.133-0.85,2.383-0.55,3.75
				c0.167,0.767,0.25,1.517,0.25,2.25c-2.333-0.867-4.233-1.983-5.7-3.35c-0.1,0.133-0.167,0.267-0.2,0.4
				c-0.133,0.967-0.433,1.717-0.9,2.25c-0.233-0.133-0.583-0.317-1.05-0.55c-0.167,0.1-0.35,0.25-0.55,0.45
				c-0.367,0.4-0.717,0.817-1.05,1.25c-0.133-0.133-0.2-0.267-0.2-0.4c-0.066-0.667-0.25-1.167-0.55-1.5
				c-0.633,0.533-1.383,1.183-2.25,1.95c-0.263,0.199-0.872,0.257-1.825,0.175c-0.383-0.031-0.958-0.106-1.725-0.225
				c0.351-0.295,0.684-0.645,1-1.05c0.667-0.867,1.233-1.784,1.7-2.75c0.767-1.667,1.217-3.434,1.35-5.3
				c0.023-0.261-0.118-0.902-0.425-1.925c0.899-0.17,1.541-0.095,1.925,0.225c0.167,0.133,0.367,0.167,0.6,0.1
				c0.267-0.033,0.5-0.15,0.7-0.35c0.633-0.733,1.333-0.784,2.1-0.15c0.133-0.533,0.4-0.633,0.8-0.3
				c0.133,0.067,0.267,0.167,0.4,0.3s0.316,0.184,0.55,0.15c0.267-0.067,0.517-0.184,0.75-0.35c0.133-0.1,0.267-0.217,0.4-0.35
				c0.733-0.9,1.7-0.967,2.9-0.2c0.2,0.133,0.4,0.3,0.6,0.5c0.167-0.433,0.333-0.8,0.5-1.1c0.1-0.233,0.2-0.434,0.3-0.6
				c0.133-0.2,0.333-0.3,0.6-0.3c0.133,0,0.25,0.067,0.35,0.2c0.6,0.567,1.167,0.633,1.7,0.2c0.167-0.133,0.35-0.233,0.55-0.3
				c0.167-0.066,0.3-0.1,0.4-0.1c0.7-0.066,1.35-0.05,1.95,0.05c0.433,0.066,0.75-0.083,0.95-0.45c0.1-0.1,0.25-0.183,0.45-0.25
				c0.167-0.066,0.333-0.117,0.5-0.15c0.867-0.233,1.45-0.067,1.75,0.5c0.067,0.1,0.217,0.133,0.45,0.1
				c0.5-0.1,1.017-0.184,1.55-0.25c0.767-0.1,1.083,0.383,0.95,1.45C-95.4-114.42-95.4-114.387-95.4-114.35z M-18.975-152.675
				c-0.068-0.135-0.159-0.26-0.275-0.375C-19.543-152.943-19.452-152.818-18.975-152.675z M-246-105.8
				c-0.467-0.467-0.816-1.1-1.05-1.9c-0.267-1.133-0.417-1.25-0.45-0.35c0.033,0.133-0.2-0.017-0.7-0.45
				c-0.767-0.7-1.649-1.233-2.649-1.6c-1.067-0.4-2.217-0.583-3.45-0.55c-1.334,0.033-2.601,0.383-3.8,1.05
				c0,0.233,0.066,0.417,0.199,0.55c0.434,0.466,0.634,1.167,0.601,2.1c-0.267-0.1-0.517-0.233-0.75-0.4
				c-0.667-0.433-0.967-0.383-0.9,0.15c0.667,0.567,1.217,1.15,1.65,1.75c-1.767-0.267-3.467-0.833-5.101-1.7
				c-0.133,0.133-0.233,0.217-0.3,0.25c-0.733,0.167-1.467,0.15-2.2-0.05c0,0.5-0.1,0.883-0.3,1.15
				c-0.833,1.167-1.866,1.917-3.1,2.25c0-0.267,0.066-0.434,0.2-0.5c0.3-0.233,0.383-0.7,0.25-1.4
				c-0.034-0.267-0.117-0.45-0.25-0.55c-0.233-0.233-0.517-0.467-0.851-0.7c-0.5-0.333-1.033-0.5-1.6-0.5s-0.95,0.217-1.15,0.65
				c-0.366,0.9-0.899,1.05-1.6,0.45c-0.634-0.533-0.967-0.683-1-0.45c0,0.367,0,0.733,0,1.1c0,0.267-0.05,0.5-0.15,0.7
				c-0.233,0.467-0.8,0.583-1.7,0.35c-0.166-0.067-0.333-0.117-0.5-0.15c-0.199-0.067-0.35-0.15-0.449-0.25
				c-0.267-0.434-0.601-0.767-1-1c-0.434,1.566-1.817,2.2-4.15,1.9c-0.566-0.067-1.116-0.133-1.65-0.2
				c0.567-0.433,1.084-0.816,1.551-1.15c0.199-0.133,0.3-0.317,0.3-0.55c0.133-1.034,0.066-1.917-0.2-2.65
				c0.5,0.133,1,0.25,1.5,0.35c1.066,0.2,1.45-0.3,1.15-1.5c0.633-0.133,1.166-0.033,1.6,0.3c0.767-0.5,0.9-1.233,0.4-2.2
				c0.699,0.467,1.533,0.833,2.5,1.1c1.267,0.3,1.949-0.05,2.05-1.05c0.033-0.133,0.066-0.267,0.1-0.4
				c0.2-1.566-0.1-2.917-0.899-4.05c1.133,1.533,2.616,2.417,4.449,2.65c0.267,0.033,0.517,0.083,0.75,0.15
				c0.834,0.167,1.467,0.083,1.9-0.25c0-1.066-0.35-1.867-1.05-2.4c1.633,0.133,3.366,0.25,5.2,0.35
				c1.333,0.1,2.583-0.117,3.75-0.65c2.533-1.1,5.083-1.133,7.649-0.1c0.566,0.233,1.167,0.4,1.8,0.5
				c-0.3-1.133-0.116-1.333,0.551-0.6c0.133,0.133,0.233,0.317,0.3,0.55c0.066,0.167,0.184,0.3,0.35,0.4
				c1.3,0.7,2.884,0.85,4.75,0.45c0.2-0.167,0.367-0.183,0.5-0.05c0.767,1.066,1.884,1.767,3.351,2.1
				c1.066,0.233,2.216,0.4,3.449,0.5c0.634,0.033,1.267,0.05,1.9,0.05c-0.434-0.633-1.066-1.133-1.9-1.5
				c-0.066-0.033-0.116-0.067-0.149-0.1c0.934,0.4,2.1,0.733,3.5,1c3,0.567,6.033,0.75,9.1,0.55c1.233-0.067,2.4,0.15,3.5,0.65
				c0.566,0.233,1.167,0.45,1.8,0.65c2.434,0.667,4.667,1.7,6.7,3.1c-0.833-0.1-1.684-0.2-2.55-0.3c-2.267-0.3-4.65-0.383-7.15-0.25
				c1.301,0.467,2.301,1.1,3,1.9c-0.133,0-0.267-0.017-0.399-0.05c-0.233-0.1-0.483-0.2-0.75-0.3c-0.5-0.167-1-0.25-1.5-0.25
				c-0.767,0-1.517,0.05-2.25,0.15c-0.233,0.033-0.434,0.117-0.601,0.25c-0.333,0.267-0.833,0.35-1.5,0.25
				c0.034,0.033,0.067,0.067,0.101,0.1c0.7,0.467,1.116,1.05,1.25,1.75c-0.367,0-0.75-0.033-1.15-0.1c-0.5-0.067-1-0.167-1.5-0.3
				c0.267,0.233,0.517,0.483,0.75,0.75c0.267,0.233,0.434,0.5,0.5,0.8c0.167,0.467,0.283,0.95,0.351,1.45
				c0.133,0.833-0.034,1.35-0.5,1.55c-0.101-0.367-0.233-0.75-0.4-1.15c-0.366-1-1-1.717-1.9-2.15c-1.566-0.8-3.316-1.267-5.25-1.4
				c-0.233-0.033-0.483-0.066-0.75-0.1c-3.133-0.3-5.267-1.483-6.399-3.55c0.2,2.7,1.033,4.667,2.5,5.9
				c-0.101-0.033-0.2-0.066-0.3-0.1c-1.134-0.434-2.384-0.967-3.75-1.6c-1.5-0.7-2.684-1.583-3.551-2.65
				C-245.366-106.5-245.566-106-246-105.8z M-315.9-135.3c-0.418,0-0.385,0.033,0.101,0.1
				C-315.83-135.234-315.863-135.268-315.9-135.3z M-30.2-224.45c-0.466,0.067-0.433,0.3,0.1,0.7
				C-30.167-223.983-30.2-224.217-30.2-224.45z"/>
			<path style="fill-rule:evenodd;clip-rule:evenodd;fill:#486616;" d="M106.4-183.525c0.512-1.993,0.629-3.909,0.35-5.75
				c-0.449-0.017-0.899-0.025-1.35-0.025c-0.233,0-0.367,0.017-0.4,0.05c-0.2,1.533-1.2,2.133-3,1.8c-0.533-0.1-0.767,0.034-0.7,0.4
				c0.233,1.8-0.267,2.95-1.5,3.45c-0.5,0.233-1.05,0.684-1.65,1.35c-0.42,0.453-0.654,1.095-0.7,1.925
				c0.579-0.283,1.212-0.425,1.9-0.425c1,0,1.917-0.283,2.75-0.85c0.833-0.566,1.667-1.133,2.5-1.7c0.167-0.1,0.3-0.233,0.4-0.4
				c0.2-0.433,0.467-0.667,0.8-0.7C106.088-184.256,106.289-183.964,106.4-183.525z M1.1-119.325
				c-0.106,0.349-0.223,0.691-0.35,1.025c-0.133,0.367-0.317,0.716-0.55,1.05c-0.78,1.086-1.572,2.169-2.375,3.25
				c1.097-0.588,2.155-1.422,3.175-2.5c1.367-1.367,2.167-1.2,2.4,0.5c0.434-0.533,0.684-1.3,0.75-2.3c0-0.088,0-0.171,0-0.25
				c0-0.177,0-0.343,0-0.5c0.285,0.037,0.543,0.112,0.775,0.225C4.837-118.942,4.695-119,4.5-119v-2.5
				c0.849-0.247,2.982-1.071,6.4-2.475c-0.361-0.108-0.711-0.25-1.05-0.425c-0.167-0.067-0.3-0.184-0.4-0.35
				c-0.4-0.8-0.667-1.033-0.8-0.7c0,0.4,0,0.784,0,1.15c0,0.233-0.117,0.417-0.35,0.55c-0.533,1.133-1.417,1.3-2.65,0.5
				c-0.133-0.1-0.233-0.217-0.3-0.35c-0.067-0.233-0.1,0.217-0.1,1.35c-1.016-1.042-2.232-1.917-3.65-2.625
				C1.738-122.849,1.571-120.999,1.1-119.325z M15.075-125.65c-0.224-0.002-0.465-0.035-0.725-0.1c-1-0.167-1.633-0.567-1.9-1.2
				c0.154,0.646,0.354,1.346,0.6,2.1c0.079-0.03,0.163-0.063,0.25-0.1C13.916-125.208,14.507-125.441,15.075-125.65z M36.3-151.9
				c-2.6-1.467-5.383-2.733-8.35-3.8c-0.652-0.232-1.402-0.366-2.25-0.4h-0.4c-0.117-0.004-0.234-0.013-0.35-0.025
				c-1.649-0.061-3.282-0.169-4.9-0.325c0.2,0.467,0.317,0.967,0.35,1.5c-0.767-0.133-1.4-0.4-1.9-0.8
				c-0.933-0.733-1.933-1.233-3-1.5c-3.567-0.967-7.217-1.933-10.95-2.9c-1.2-0.3-2.466-0.45-3.8-0.45
				c-0.233,0-0.383,0.05-0.45,0.15c-0.167,0.333-0.517,0.4-1.05,0.2c-1.1-0.4-2.233-0.767-3.4-1.1c1.8,1.3,3.433,2.684,4.9,4.15
				c-0.767,0.067-1.517-0.05-2.25-0.35c-1.967-0.833-4-1.534-6.1-2.1c-0.833-0.267-1.667-0.533-2.5-0.8
				c-3.5-1.133-7.05-1.5-10.65-1.1c0.4,0.1,0.517,0.417,0.35,0.95c-1.167-0.033-2.283-0.2-3.35-0.5
				c-0.167-0.033-0.333-0.083-0.5-0.15c-0.7-0.267-1.05-0.3-1.05-0.1c1.533,0.567,2.417,1.567,2.65,3
				c-2.434-0.2-4.967-0.816-7.6-1.85c-0.367-0.133-0.733-0.25-1.1-0.35c-0.933-0.233-1.7-0.5-2.3-0.8c0,0.4,0,0.9,0,1.5
				c-0.833,0.033-1.217,0.417-1.15,1.15c0.2,1.434-0.017,2.55-0.65,3.35c-0.4-0.233-0.783-0.35-1.15-0.35
				c0.233,1.133-0.033,1.9-0.8,2.3c-0.3-0.633-0.55-1.267-0.75-1.9c-0.2,1.667-0.667,2.833-1.4,3.5c-0.2,0.167-0.4,0.3-0.6,0.4
				c-0.8,0.4-1.375,1.042-1.725,1.925c1.102-0.542,2.344-0.784,3.725-0.725c0.267,0,0.467-0.1,0.6-0.3
				c0.267-0.367,0.667-0.767,1.2-1.2c0.633-0.433,1.117-0.483,1.45-0.15c0.1,0.067,0.233,0.017,0.4-0.15
				c0.467-0.467,0.75-1.183,0.85-2.15c0.467,0.1,0.833,0.417,1.1,0.95c0.066,0.1,0.216,0.117,0.45,0.05
				c0.567-0.133,0.817-0.6,0.75-1.4c0-0.267,0-0.517,0-0.75c0.533,0.233,0.95,0.716,1.25,1.45c0.6-0.033,0.934-0.383,1-1.05
				c0.033-0.033,0.167-0.033,0.4,0c0.8,0.066,1.534,0.233,2.2,0.5c0.433,0.133,0.85,0.3,1.25,0.5c0.933,0.467,1.9,0.816,2.9,1.05
				c0.533,0.1,1.05,0.283,1.55,0.55c1.5,0.667,2.133,1.8,1.9,3.4c0.6-1.167,0.583-2.4-0.05-3.7
				c-0.009-0.022-0.017-0.047-0.025-0.075c0.117,0.043,0.258,0.084,0.425,0.125c0.167,0.033,0.316,0.083,0.45,0.15
				c0.633,0.233,1,0.15,1.1-0.25c0.067-0.833-0.317-1.267-1.15-1.3c3.367-0.033,6.35,0.967,8.95,3c0.367,0.233,0.7,0.517,1,0.85
				c0.967,0.967,1.434,2.25,1.4,3.85c0.267-2.433-0.233-4.567-1.5-6.4c0.9,0.566,1.816,1.15,2.75,1.75c0.3,0.2,0.617,0.4,0.95,0.6
				c1.633,0.767,3.417,1.233,5.35,1.4c-0.4-0.667-1.033-1.184-1.9-1.55c-0.533-0.233-1.15-0.6-1.85-1.1
				c2.1,1.133,4.483,1.65,7.15,1.55c-0.8-0.633-1.683-1.15-2.65-1.55c0.933,0.167,1.55,0.033,1.85-0.4
				c0.333-0.433,0.983-0.533,1.95-0.3c1.567,0.367,3.1,0.833,4.6,1.4c1.367,0.567,2.733,1.1,4.1,1.6c-1.9-2.133-4.05-3.65-6.45-4.55
				c0.467-0.4,1.233-0.567,2.3-0.5c2.633,0.2,4.983,0.917,7.05,2.15c1.233,0.7,2.267,1.316,3.1,1.85
				c0.426,0.278,0.734,0.619,0.925,1.025c-0.129-0.833-0.17-1.708-0.125-2.625c0-0.133,0-0.267,0-0.4
				c2.367,0.767,4.883,1.15,7.55,1.15c-0.033-0.667-0.417-0.983-1.15-0.95c-0.133-0.467,0.367-0.65,1.5-0.55
				c2.967,0.245,5.875,0.787,8.725,1.625c-0.166-0.128-0.324-0.27-0.475-0.425C36.783-151.65,36.567-151.8,36.3-151.9z M15-181.15
				c1.933,0.133,3.683,0.6,5.25,1.4c0.9,0.433,1.533,1.15,1.9,2.15c0.167,0.4,0.3,0.783,0.4,1.15c0.467-0.2,0.633-0.716,0.5-1.55
				c-0.066-0.5-0.183-0.983-0.35-1.45c-0.067-0.3-0.233-0.566-0.5-0.8c-0.233-0.267-0.483-0.517-0.75-0.75
				c0.5,0.133,1,0.233,1.5,0.3c0.4,0.067,0.783,0.1,1.15,0.1c-0.133-0.7-0.55-1.283-1.25-1.75c-0.033-0.033-0.067-0.066-0.1-0.1
				c0.667,0.1,1.167,0.017,1.5-0.25c0.167-0.133,0.367-0.216,0.6-0.25c0.733-0.1,1.483-0.15,2.25-0.15c0.5,0,1,0.083,1.5,0.25
				c0.267,0.1,0.517,0.2,0.75,0.3c0.133,0.033,0.267,0.05,0.4,0.05c-0.7-0.8-1.7-1.433-3-1.9c2.5-0.133,4.883-0.05,7.15,0.25
				c0.867,0.1,1.717,0.2,2.55,0.3c-2.034-1.4-4.267-2.433-6.7-3.1c-0.633-0.2-1.233-0.417-1.8-0.65c-1.1-0.5-2.267-0.717-3.5-0.65
				c-3.067,0.2-6.1,0.017-9.1-0.55c-1.4-0.267-2.567-0.6-3.5-1c0.033,0.033,0.083,0.066,0.15,0.1c0.833,0.367,1.467,0.867,1.9,1.5
				c-0.633,0-1.267-0.017-1.9-0.05c-1.233-0.1-2.383-0.267-3.45-0.5c-1.466-0.333-2.583-1.033-3.35-2.1
				c-0.133-0.133-0.3-0.117-0.5,0.05c-1.867,0.4-3.45,0.25-4.75-0.45c-0.167-0.1-0.284-0.233-0.35-0.4
				c-0.067-0.233-0.167-0.417-0.3-0.55c-0.667-0.733-0.85-0.533-0.55,0.6c-0.633-0.1-1.233-0.267-1.8-0.5
				c-2.567-1.033-5.117-1-7.65,0.1c-1.167,0.533-2.417,0.75-3.75,0.65c-1.833-0.1-3.566-0.217-5.2-0.35
				c0.7,0.534,1.05,1.333,1.05,2.4c-0.433,0.333-1.066,0.417-1.9,0.25c-0.233-0.067-0.483-0.117-0.75-0.15
				c-1.833-0.233-3.317-1.117-4.45-2.65c0.8,1.133,1.1,2.483,0.9,4.05c-0.034,0.133-0.067,0.267-0.1,0.4
				c-0.1,1-0.783,1.35-2.05,1.05c-0.966-0.267-1.8-0.633-2.5-1.1c0.5,0.967,0.367,1.7-0.4,2.2c-0.433-0.333-0.967-0.433-1.6-0.3
				c0.3,1.2-0.083,1.7-1.15,1.5c-0.5-0.1-1-0.217-1.5-0.35c0.267,0.733,0.333,1.617,0.2,2.65c0,0.233-0.1,0.417-0.3,0.55
				c-0.466,0.333-0.983,0.717-1.55,1.15c0.533,0.066,1.083,0.133,1.65,0.2c2.333,0.3,3.717-0.333,4.15-1.9
				c0.4,0.233,0.733,0.567,1,1c0.1,0.1,0.25,0.183,0.45,0.25c0.167,0.033,0.333,0.083,0.5,0.15c0.9,0.233,1.467,0.117,1.7-0.35
				c0.1-0.2,0.15-0.433,0.15-0.7c0-0.367,0-0.733,0-1.1c0.033-0.233,0.367-0.083,1,0.45c0.7,0.6,1.233,0.45,1.6-0.45
				c0.2-0.433,0.583-0.65,1.15-0.65c0.566,0,1.1,0.167,1.6,0.5c0.333,0.233,0.617,0.467,0.85,0.7c0.133,0.1,0.217,0.284,0.25,0.55
				c0.133,0.7,0.05,1.167-0.25,1.4c-0.133,0.067-0.2,0.233-0.2,0.5c1.233-0.333,2.267-1.083,3.1-2.25c0.2-0.267,0.3-0.65,0.3-1.15
				c0.733,0.2,1.467,0.217,2.2,0.05c0.066-0.033,0.167-0.117,0.3-0.25c1.633,0.867,3.333,1.434,5.1,1.7
				c-0.434-0.6-0.983-1.184-1.65-1.75c-0.067-0.533,0.233-0.583,0.9-0.15c0.233,0.167,0.483,0.3,0.75,0.4
				c0.033-0.934-0.167-1.633-0.6-2.1c-0.133-0.133-0.2-0.317-0.2-0.55c1.2-0.667,2.467-1.017,3.8-1.05
				c1.233-0.033,2.383,0.15,3.45,0.55c1,0.367,1.883,0.9,2.65,1.6c0.5,0.434,0.733,0.583,0.7,0.45c0.033-0.9,0.184-0.783,0.45,0.35
				c0.233,0.8,0.583,1.433,1.05,1.9c0.434-0.2,0.633-0.7,0.6-1.5c0.867,1.067,2.05,1.95,3.55,2.65c1.367,0.633,2.617,1.167,3.75,1.6
				c0.1,0.033,0.2,0.067,0.3,0.1c-1.467-1.233-2.3-3.2-2.5-5.9c1.133,2.066,3.267,3.25,6.4,3.55
				C14.517-181.217,14.767-181.183,15-181.15z M13.275-223.925c0.103,0.09,0.211,0.182,0.325,0.275c0.133,0.1,0.267,0.217,0.4,0.35
				c-0.006-0.239-0.022-0.472-0.05-0.7C13.722-223.975,13.497-223.95,13.275-223.925z M-117.55-122.4
				c0.466-0.2,0.633-0.717,0.5-1.55c-0.067-0.5-0.184-0.983-0.35-1.45c-0.067-0.3-0.233-0.567-0.5-0.8
				c-0.233-0.267-0.483-0.517-0.75-0.75c0.5,0.133,1,0.233,1.5,0.3c0.4,0.066,0.783,0.1,1.15,0.1c-0.133-0.7-0.55-1.284-1.25-1.75
				c-0.042-0.025-0.083-0.05-0.125-0.075c0.692,0.087,1.2-0.004,1.525-0.275c0.167-0.133,0.367-0.217,0.6-0.25
				c0.733-0.1,1.483-0.15,2.25-0.15c0.5,0,1,0.083,1.5,0.25c0.267,0.1,0.517,0.2,0.75,0.3c0.133,0.033,0.267,0.05,0.4,0.05
				c-0.7-0.8-1.7-1.433-3-1.9c2.5-0.133,4.883-0.05,7.15,0.25c0.863,0.096,1.713,0.196,2.55,0.3c-2.044-1.396-4.277-2.429-6.7-3.1
				c-0.633-0.2-1.233-0.417-1.8-0.65c-1.1-0.5-2.267-0.717-3.5-0.65c-3.067,0.2-6.1,0.017-9.1-0.55
				c-1.399-0.274-2.574-0.607-3.525-1c0.061,0.035,0.12,0.068,0.175,0.1c0.833,0.367,1.467,0.867,1.9,1.5
				c-0.633,0-1.267-0.017-1.9-0.05c-1.233-0.1-2.383-0.267-3.45-0.5c-1.467-0.333-2.583-1.033-3.35-2.1
				c-0.133-0.133-0.3-0.117-0.5,0.05c-1.867,0.4-3.45,0.25-4.75-0.45c-0.167-0.1-0.283-0.233-0.35-0.4
				c-0.067-0.233-0.167-0.417-0.3-0.55c-0.667-0.733-0.85-0.533-0.55,0.6c-0.633-0.1-1.233-0.267-1.8-0.5
				c-2.567-1.034-5.117-1-7.65,0.1c-1.167,0.534-2.417,0.75-3.75,0.65c-1.833-0.1-3.567-0.217-5.2-0.35
				c0.7,0.533,1.05,1.333,1.05,2.4c-0.433,0.333-1.066,0.417-1.9,0.25c-0.233-0.067-0.483-0.117-0.75-0.15
				c-1.824-0.228-3.315-1.111-4.475-2.65c0.811,1.15,1.119,2.5,0.925,4.05c-0.033,0.133-0.067,0.267-0.1,0.4
				c-0.1,1-0.783,1.35-2.05,1.05c-0.967-0.267-1.8-0.633-2.5-1.1c0.5,0.967,0.367,1.7-0.4,2.2c-0.433-0.333-0.966-0.433-1.6-0.3
				c0.3,1.2-0.083,1.7-1.15,1.5c-0.5-0.1-1-0.217-1.5-0.35c0.267,0.733,0.333,1.617,0.2,2.65c0,0.233-0.1,0.417-0.3,0.55
				c-0.478,0.318-1.002,0.702-1.575,1.15c0.559,0.068,1.117,0.134,1.675,0.2c2.333,0.3,3.717-0.333,4.15-1.9
				c0.4,0.233,0.733,0.567,1,1c0.1,0.1,0.25,0.184,0.45,0.25c0.167,0.034,0.333,0.083,0.5,0.15c0.9,0.233,1.467,0.117,1.7-0.35
				c0.1-0.2,0.15-0.434,0.15-0.7c0-0.367,0-0.733,0-1.1c0.033-0.233,0.367-0.083,1,0.45c0.7,0.6,1.233,0.45,1.6-0.45
				c0.2-0.433,0.583-0.65,1.15-0.65s1.1,0.167,1.6,0.5c0.333,0.233,0.617,0.467,0.85,0.7c0.133,0.1,0.216,0.283,0.25,0.55
				c0.133,0.7,0.05,1.167-0.25,1.4c-0.133,0.067-0.2,0.233-0.2,0.5c1.233-0.333,2.267-1.083,3.1-2.25c0.2-0.267,0.3-0.65,0.3-1.15
				c0.733,0.2,1.467,0.217,2.2,0.05c0.066-0.034,0.167-0.117,0.3-0.25c1.633,0.867,3.333,1.433,5.1,1.7
				c-0.433-0.6-0.983-1.183-1.65-1.75c-0.067-0.533,0.233-0.583,0.9-0.15c0.233,0.167,0.483,0.3,0.75,0.4
				c0.033-0.933-0.167-1.633-0.6-2.1c-0.133-0.133-0.2-0.316-0.2-0.55c1.2-0.667,2.466-1.017,3.8-1.05
				c1.233-0.034,2.383,0.15,3.45,0.55c1,0.367,1.883,0.9,2.65,1.6c0.5,0.433,0.733,0.583,0.7,0.45c0.034-0.9,0.184-0.783,0.45,0.35
				c0.233,0.8,0.583,1.434,1.05,1.9c0.434-0.2,0.633-0.7,0.6-1.5c0.867,1.067,2.05,1.95,3.55,2.65c1.367,0.633,2.617,1.167,3.75,1.6
				c0.102,0.021,0.202,0.063,0.3,0.125c-1.474-1.248-2.307-3.223-2.5-5.925c1.133,2.067,3.267,3.25,6.4,3.55
				c0.267,0.034,0.517,0.067,0.75,0.1c1.934,0.133,3.684,0.6,5.25,1.4c0.9,0.434,1.533,1.15,1.9,2.15
				C-117.783-123.15-117.65-122.767-117.55-122.4z M-33.1-105.625c-0.213-0.531-0.479-1.006-0.8-1.425c-0.233-0.3-0.45-0.6-0.65-0.9
				c-0.516-0.688-0.924-1.28-1.225-1.775c0.193,0.081,0.501,0.173,0.925,0.275c0.167,0.034,0.333,0.067,0.5,0.1
				c0.467,0.1,0.95,0.15,1.45,0.15c-0.167-0.466-0.383-0.767-0.65-0.9c2.548,0.161,5.148,0.386,7.8,0.675
				c0.649,0.072,1.299,0.146,1.95,0.225c0.466-0.033,0.466-0.283,0-0.75c-0.394-0.393-0.811-0.743-1.25-1.05
				c-0.107-0.079-0.215-0.154-0.325-0.225c-4.646-0.47-9.155-1.462-13.525-2.975c-0.533-0.2-1.067-0.367-1.6-0.5
				c-0.5-0.133-0.95-0.35-1.35-0.65c-0.767-0.667-1.683-1.017-2.75-1.05c0.133,0.133,0.217,0.283,0.25,0.45
				c0.2,0.6,0.367,1.217,0.5,1.85c-0.233,0-0.483,0-0.75,0c-1.867,0.033-3.633-0.217-5.3-0.75c0.133,0.1,0.233,0.233,0.3,0.4
				c0.067,0.2,0.117,0.434,0.15,0.7c0.067,0.733-0.316,0.933-1.15,0.6c-1.467-0.633-2.867-1.35-4.2-2.15
				c-0.8-0.467-1.7-0.784-2.7-0.95c-0.6-0.1-1.2-0.217-1.8-0.35c-2.4-0.467-4.934-0.583-7.6-0.35c-0.133,0-0.267,0-0.4,0
				c-0.233-0.033-0.467-0.117-0.7-0.25c-0.7-0.4-0.967-0.5-0.8-0.3c0.4,0.367,0.75,0.767,1.05,1.2c0.533,0.7,0.567,1.183,0.1,1.45
				c-2.667-1.8-5.684-3.3-9.05-4.5c-0.966-0.333-1.833-0.767-2.6-1.3c-0.667-0.467-0.95-0.55-0.85-0.25
				c0.133,0.1,0.25,0.233,0.35,0.4c0.167,0.2,0.267,0.433,0.3,0.7c0.1,1,0.183,2.017,0.25,3.05c0.067,0.9-0.233,1.35-0.9,1.35
				c-1-0.033-1.75-0.367-2.25-1c-0.1,0.533-0.333,0.933-0.7,1.2c-0.167,0.1-0.3,0.133-0.4,0.1c-0.833-0.133-1.217-0.183-1.15-0.15
				c-0.267,0.8-0.65,1.267-1.15,1.4c-0.233,0.067-0.45,0.05-0.65-0.05c-0.2-0.167-0.4-0.333-0.6-0.5
				c-0.167-0.2-0.284-0.383-0.35-0.55c-0.2-0.6-0.3-0.7-0.3-0.3c0.1,0.9,0.034,1.8-0.2,2.7c-0.1,0.333-0.25,0.633-0.45,0.9
				c-0.931,1.232-1.964,2.216-3.1,2.95c0.382-0.019,0.683-0.119,0.9-0.3c0.167-0.133,0.367-0.233,0.6-0.3
				c1.833-0.467,3.6-1.184,5.3-2.15c0.066,0.8,0.566,1.15,1.5,1.05c1.1-0.1,1.6-0.833,1.5-2.2c0.867,0.467,1.667,0.917,2.4,1.35
				c0.2,0.1,0.417,0.133,0.65,0.1c0.8-0.033,1.117-0.667,0.95-1.9c0-0.233,0.033-0.467,0.1-0.7c0.966,0.4,1.917,0.967,2.85,1.7
				c0.167,0.133,0.333,0.15,0.5,0.05c0.2-0.167,0.333-0.367,0.4-0.6c0.133-0.7,0.033-1.2-0.3-1.5c3.233,0.567,6.1,1.867,8.6,3.9
				c0.2,0.133,0.317,0.333,0.35,0.6c0.1,1.033,0.15,2.05,0.15,3.05c0.033-1.167,0.133-2.3,0.3-3.4c0.034-0.267,0.05-0.517,0.05-0.75
				c0.267,0.1,0.517,0.2,0.75,0.3c0.133,0.033,0.267,0.05,0.4,0.05c0-0.5,0-1,0-1.5c0-0.267,0-0.517,0-0.75c0.5,0.9,1.5,1.35,3,1.35
				c0.267-0.5,0.45-0.933,0.55-1.3c0.034-0.167,0.117-0.317,0.25-0.45c4.8,3.433,10.217,5.7,16.25,6.8
				c-1.1-0.533-2.017-1.517-2.75-2.95c-0.066-0.167-0.133-0.333-0.2-0.5c-0.2-0.333-0.35-0.684-0.45-1.05c0.9,0.8,1.9,1.417,3,1.85
				c0.533,0.2,0.833,0.1,0.9-0.3c0.034-0.167,0.067-0.333,0.1-0.5c0.3-0.967,1-1.117,2.1-0.45c0.333,0.2,0.683,0.367,1.05,0.5
				c2.034,0.767,3.934,1.767,5.7,3c0.314,0.218,0.598,0.551,0.85,1c0.084,0.166,0.167,0.349,0.25,0.55
				C-32.961-105.25-33.028-105.442-33.1-105.625z M-95.4-114.35c0-0.037,0-0.07,0-0.1c0.133-1.066-0.184-1.55-0.95-1.45
				c-0.533,0.066-1.05,0.15-1.55,0.25c-0.233,0.033-0.383,0-0.45-0.1c-0.3-0.567-0.883-0.733-1.75-0.5
				c-0.167,0.033-0.333,0.083-0.5,0.15c-0.2,0.067-0.35,0.15-0.45,0.25c-0.2,0.367-0.517,0.517-0.95,0.45
				c-0.6-0.1-1.25-0.117-1.95-0.05c-0.1,0-0.233,0.034-0.4,0.1c-0.2,0.067-0.383,0.167-0.55,0.3c-0.533,0.433-1.1,0.367-1.7-0.2
				c-0.1-0.133-0.217-0.2-0.35-0.2c-0.267,0-0.466,0.1-0.6,0.3c-0.1,0.167-0.2,0.367-0.3,0.6c-0.167,0.3-0.333,0.667-0.5,1.1
				c-0.2-0.2-0.4-0.367-0.6-0.5c-1.2-0.767-2.167-0.7-2.9,0.2c-0.133,0.133-0.267,0.25-0.4,0.35c-0.233,0.167-0.483,0.283-0.75,0.35
				c-0.233,0.033-0.417-0.017-0.55-0.15s-0.267-0.233-0.4-0.3c-0.4-0.333-0.667-0.233-0.8,0.3c-0.767-0.633-1.467-0.583-2.1,0.15
				c-0.2,0.2-0.433,0.316-0.7,0.35c-0.233,0.067-0.434,0.034-0.6-0.1c-0.384-0.32-1.026-0.395-1.925-0.225
				c0.307,1.022,0.449,1.664,0.425,1.925c-0.133,1.867-0.583,3.633-1.35,5.3c-0.467,0.966-1.033,1.883-1.7,2.75
				c-0.316,0.405-0.649,0.755-1,1.05c0.768,0.119,1.342,0.194,1.725,0.225c0.954,0.082,1.562,0.023,1.825-0.175
				c0.867-0.767,1.617-1.417,2.25-1.95c0.3,0.333,0.483,0.833,0.55,1.5c0,0.133,0.067,0.267,0.2,0.4
				c0.333-0.433,0.683-0.85,1.05-1.25c0.2-0.2,0.383-0.35,0.55-0.45c0.466,0.233,0.816,0.417,1.05,0.55
				c0.467-0.533,0.767-1.283,0.9-2.25c0.033-0.133,0.1-0.267,0.2-0.4c1.467,1.367,3.367,2.483,5.7,3.35
				c0-0.733-0.083-1.483-0.25-2.25c-0.3-1.367-0.117-2.617,0.55-3.75c0.583-1.004,1.216-1.737,1.9-2.2
				c-0.03,0.145-0.063,0.378-0.1,0.7c-0.066,0.7,0.233,1.117,0.9,1.25c0.267,0.034,0.517,0.083,0.75,0.15
				c0.267,0.066,0.534,0.1,0.8,0.1c-0.2-1.333,0.066-2.167,0.8-2.5c0.233-0.1,0.467-0.133,0.7-0.1c1.1,0.066,1.517-0.6,1.25-2
				c-0.167-0.767,0.167-1.184,1-1.25c0.133,0,0.267-0.017,0.4-0.05c0.9-0.1,1.783-0.15,2.65-0.15
				C-95.983-114.486-95.667-114.437-95.4-114.35z M-18.975-152.675c-0.477-0.144-0.568-0.269-0.275-0.375
				C-19.134-152.935-19.043-152.81-18.975-152.675z M-246-105.8c0.434-0.2,0.634-0.7,0.6-1.5c0.867,1.066,2.051,1.95,3.551,2.65
				c1.366,0.633,2.616,1.167,3.75,1.6c0.1,0.033,0.199,0.066,0.3,0.1c-1.467-1.233-2.3-3.2-2.5-5.9
				c1.133,2.067,3.267,3.25,6.399,3.55c0.267,0.033,0.517,0.066,0.75,0.1c1.934,0.133,3.684,0.6,5.25,1.4
				c0.9,0.433,1.534,1.15,1.9,2.15c0.167,0.4,0.3,0.783,0.4,1.15c0.466-0.2,0.633-0.717,0.5-1.55c-0.067-0.5-0.184-0.983-0.351-1.45
				c-0.066-0.3-0.233-0.567-0.5-0.8c-0.233-0.267-0.483-0.517-0.75-0.75c0.5,0.133,1,0.233,1.5,0.3c0.4,0.067,0.783,0.1,1.15,0.1
				c-0.134-0.7-0.55-1.283-1.25-1.75c-0.033-0.033-0.066-0.067-0.101-0.1c0.667,0.1,1.167,0.017,1.5-0.25
				c0.167-0.133,0.367-0.217,0.601-0.25c0.733-0.1,1.483-0.15,2.25-0.15c0.5,0,1,0.083,1.5,0.25c0.267,0.1,0.517,0.2,0.75,0.3
				c0.133,0.033,0.267,0.05,0.399,0.05c-0.699-0.8-1.699-1.434-3-1.9c2.5-0.133,4.884-0.05,7.15,0.25c0.866,0.1,1.717,0.2,2.55,0.3
				c-2.033-1.4-4.267-2.434-6.7-3.1c-0.633-0.2-1.233-0.417-1.8-0.65c-1.1-0.5-2.267-0.717-3.5-0.65c-3.066,0.2-6.1,0.017-9.1-0.55
				c-1.4-0.267-2.566-0.6-3.5-1c0.033,0.033,0.083,0.067,0.149,0.1c0.834,0.367,1.467,0.867,1.9,1.5c-0.634,0-1.267-0.017-1.9-0.05
				c-1.233-0.1-2.383-0.267-3.449-0.5c-1.467-0.333-2.584-1.034-3.351-2.1c-0.133-0.133-0.3-0.117-0.5,0.05
				c-1.866,0.4-3.45,0.25-4.75-0.45c-0.166-0.1-0.283-0.233-0.35-0.4c-0.066-0.233-0.167-0.417-0.3-0.55
				c-0.667-0.733-0.851-0.533-0.551,0.6c-0.633-0.1-1.233-0.267-1.8-0.5c-2.566-1.033-5.116-1-7.649,0.1
				c-1.167,0.533-2.417,0.75-3.75,0.65c-1.834-0.1-3.567-0.217-5.2-0.35c0.7,0.533,1.05,1.333,1.05,2.4
				c-0.434,0.333-1.066,0.417-1.9,0.25c-0.233-0.066-0.483-0.117-0.75-0.15c-1.833-0.233-3.316-1.117-4.449-2.65
				c0.8,1.133,1.1,2.483,0.899,4.05c-0.033,0.133-0.066,0.267-0.1,0.4c-0.101,1-0.783,1.35-2.05,1.05
				c-0.967-0.267-1.801-0.633-2.5-1.1c0.5,0.967,0.366,1.7-0.4,2.2c-0.434-0.333-0.967-0.434-1.6-0.3c0.3,1.2-0.084,1.7-1.15,1.5
				c-0.5-0.1-1-0.217-1.5-0.35c0.267,0.733,0.333,1.617,0.2,2.65c0,0.233-0.101,0.417-0.3,0.55c-0.467,0.333-0.983,0.717-1.551,1.15
				c0.534,0.067,1.084,0.133,1.65,0.2c2.333,0.3,3.717-0.333,4.15-1.9c0.399,0.233,0.733,0.566,1,1c0.1,0.1,0.25,0.183,0.449,0.25
				c0.167,0.033,0.334,0.083,0.5,0.15c0.9,0.233,1.467,0.117,1.7-0.35c0.101-0.2,0.15-0.433,0.15-0.7c0-0.367,0-0.733,0-1.1
				c0.033-0.233,0.366-0.083,1,0.45c0.7,0.6,1.233,0.45,1.6-0.45c0.2-0.434,0.584-0.65,1.15-0.65s1.1,0.167,1.6,0.5
				c0.334,0.233,0.617,0.467,0.851,0.7c0.133,0.1,0.216,0.283,0.25,0.55c0.133,0.7,0.05,1.167-0.25,1.4
				c-0.134,0.066-0.2,0.233-0.2,0.5c1.233-0.333,2.267-1.083,3.1-2.25c0.2-0.267,0.3-0.65,0.3-1.15c0.733,0.2,1.467,0.217,2.2,0.05
				c0.066-0.033,0.167-0.117,0.3-0.25c1.634,0.867,3.334,1.433,5.101,1.7c-0.434-0.6-0.983-1.183-1.65-1.75
				c-0.066-0.533,0.233-0.583,0.9-0.15c0.233,0.167,0.483,0.3,0.75,0.4c0.033-0.933-0.167-1.633-0.601-2.1
				c-0.133-0.133-0.199-0.317-0.199-0.55c1.199-0.667,2.466-1.017,3.8-1.05c1.233-0.033,2.383,0.15,3.45,0.55
				c1,0.367,1.883,0.9,2.649,1.6c0.5,0.433,0.733,0.583,0.7,0.45c0.033-0.9,0.184-0.784,0.45,0.35
				C-246.816-106.9-246.467-106.267-246-105.8z"/>
		</g>
	</g>
</symbol>
<use xlink:href="#ground"  width="423.088" height="167" x="-316.191" y="-229" transform="matrix(1 0 0 -1 316.2002 -62)" style="overflow:visible;"/>
</svg>
