<?xml version="1.0" encoding="iso-8859-1"?>
<!-- Generator: Adobe Illustrator 16.0.0, SVG Export Plug-In . SVG Version: 6.00 Build 0)  -->
<!DOCTYPE svg PUBLIC "-//W3C//DTD SVG 1.1//EN" "http://www.w3.org/Graphics/SVG/1.1/DTD/svg11.dtd">
<svg version="1.1" id="Layer_1" xmlns="http://www.w3.org/2000/svg" xmlns:xlink="http://www.w3.org/1999/xlink" x="0px" y="0px"
	 width="666px" height="156px" viewBox="0 0 666 156" style="enable-background:new 0 0 666 156;" xml:space="preserve">
<symbol  id="ground_x5F_05" viewBox="188.68 -250.259 662.57 152.782">
	<g id="Layer_3_1_">
		<g>
			<path style="fill-rule:evenodd;clip-rule:evenodd;fill:#577820;" d="M560.25-242.25l-0.6-0.875
				c-6.573-0.453-14.073-0.961-22.5-1.525c-27.267-1.8-48.233-3.25-62.9-4.35c-8.923-0.668-19.256-1.068-31-1.2
				c-8.313-0.103-17.33-0.07-27.05,0.1c-6.001,0.097-12.268,0.247-18.8,0.45c-30.467,0.967-52.85,2.517-67.15,4.65
				c-10.533,1.567-25.95,5.6-46.25,12.1c-4.934,1.586-9.576,3.078-13.925,4.475c-11.104,3.553-20.304,6.478-27.6,8.775
				c-1.494,0.479-2.91,0.929-4.25,1.35c-3.226,1.013-5.984,1.871-8.275,2.575c-2.433,0.753-4.333,1.328-5.7,1.725
				c-1.277,0.37-2.519,0.753-3.725,1.15c-12.969,4.292-21.978,10.292-27.025,18c-0.649,0.988-1.232,2.005-1.75,3.05
				c-0.755,1.537-1.372,3.137-1.85,4.8c-0.503,1.732-0.854,3.491-1.05,5.275c0.308,0.242,0.591,0.5,0.85,0.775
				c0.125,0.908-0.009,1.524-0.4,1.85c-0.023-0.498-0.207-0.981-0.55-1.45c-0.38,5.624,0.786,11.474,3.5,17.55
				c0.742,1.677,2,3.535,3.775,5.575C196.008-157.301,196-157.16,196-157c1,1.8,1.967,3.7,2.9,5.7c1.8,3.966,2.5,6.566,2.1,7.8v0.5
				c0.6-1.267,1.1-2.1,1.5-2.5h0.5c0.167,0.433,0.333,1.167,0.5,2.2c0.167,0.833,0.333,1.433,0.5,1.8c0.667,0,1-0.167,1-0.5
				c0.2,0.2,1.083,1.533,2.65,4c1.074,1.414,2.232,2.647,3.475,3.7c1.061,0.9,2.186,1.667,3.375,2.3c-0.3-0.667-0.817-1.667-1.55-3
				c-0.042-0.084-0.084-0.168-0.125-0.25c-0.519-1.09-0.794-2.006-0.825-2.75l0.25-0.05c0.167-0.1,0.25-0.25,0.25-0.45
				c0.577,0.731,1.544,1.59,2.9,2.575c0.991,0.724,2.191,1.516,3.6,2.375c1.351,0.83,2.309,1.771,2.875,2.825
				c0.417,0.766,0.625,1.59,0.625,2.475c0,0.368-0.008,0.668-0.025,0.9c-0.09,0.028-0.182,0.061-0.275,0.1
				c-0.367,0.167-0.6,0.25-0.7,0.25v1c0.333,0,0.5-0.167,0.5-0.5c0.233,0,0.383-0.133,0.45-0.4c0.016-0.095,0.024-0.245,0.025-0.45
				c0.326-0.1,0.667-0.15,1.025-0.15c0.367,0,1.3,0.25,2.8,0.75s3.067,0.75,4.7,0.75c1.167,2.233,3.283,3.85,6.35,4.85
				c1.767,0.566,4.816,1.45,9.15,2.65c0.133-0.4,0.05-0.9-0.25-1.5c-0.467-0.933-0.717-1.433-0.75-1.5
				c0.167,0.133,1.033,0.867,2.6,2.2c1.667,1.267,2.967,1.867,3.9,1.8c-0.067-1.133-0.017-1.767,0.15-1.9
				c0.1-0.067,0.717-0.1,1.85-0.1c0.9,0,2.467,0.383,4.7,1.15c3.066,1.067,4.833,2.35,5.3,3.85c0.333,0,0.5,0.167,0.5,0.5
				c0.233-1.167,1.067-2.167,2.5-3c0.167,0,4.667,1.15,13.5,3.45c9.667,2.566,15.517,4.083,17.55,4.55h0.5
				c-1.1-0.833-1.933-1.667-2.5-2.5c0.034,0.067,1.45,0.5,4.25,1.3c2.9,0.8,4.65,1.2,5.25,1.2c1.867-0.033,4.95,0.617,9.25,1.95
				c2.167,0.667,4.167,1.35,6,2.05c0.1,0,0.567-0.5,1.4-1.5c1.033-1,1.983-1.5,2.85-1.5c0.5,0,1.25,0.333,2.25,1
				c0.967,0.667,1.8,1,2.5,1c0.434,0,0.733-0.167,0.9-0.5c0.167-0.333,0.45-0.5,0.85-0.5c0.467,0,4.133,0.517,11,1.55
				c7.833,1.2,13.333,2.184,16.5,2.95h0.5c-0.4-0.4-1.1-0.833-2.1-1.3c-1.333-0.633-2.133-1.034-2.4-1.2v-0.5h6
				c0.534,0.3,2.833,0.533,6.9,0.7c3.966,0.533,6.333,1.966,7.1,4.3c0.233-0.9,0.8-1.5,1.7-1.8c1.467-0.434,2.233-0.667,2.3-0.7
				c0.233,0.5,0.417,0.933,0.55,1.3c0.1,0.133,0.417,0.2,0.95,0.2c1.381-0.457,2.532-0.832,3.45-1.125
				c1.779-0.583,2.712-0.875,2.8-0.875c0.233,0,1.333,0.333,3.3,1c1.065,0.3,2.106,0.533,3.125,0.7c1.228,0.2,2.42,0.3,3.575,0.3
				h8.75c-0.966-0.167-1.7-0.35-2.2-0.55c-0.238-0.132-0.48-0.266-0.725-0.4c-0.355-0.186-0.713-0.369-1.075-0.55v-0.5h3.5
				c0.28,0.093,0.588,0.168,0.925,0.225c0.877,0.155,1.952,0.197,3.225,0.125c0.966-0.067,2.466-0.167,4.5-0.3h0.05
				c3.607-0.02,6.208,1.464,7.8,4.45h0.5c-0.1-0.433-0.35-1-0.75-1.7c-0.333-0.667-0.583-1.1-0.75-1.3v-0.5
				c0.333,0.167,0.717,0.4,1.15,0.7c0.4,0.2,0.85,0.3,1.35,0.3c0.4,0,0.667-0.033,0.8-0.1c0.333-0.2,0.4-0.667,0.2-1.4
				c0.275,0,0.617,0.042,1.025,0.125c0.382,0.088,0.824,0.213,1.325,0.375c1.033,0.333,1.75,0.5,2.15,0.5
				c0.434,0,1.067-0.167,1.9-0.5c0.833-0.333,1.45-0.5,1.85-0.5c1.067,0,2.717,0.4,4.95,1.2c2.333,0.867,3.883,1.533,4.65,2
				l-0.025-0.025c-0.1-0.121-0.175-0.212-0.225-0.275c-0.162-0.227-0.337-0.677-0.525-1.35c1.517,0.233,3.675,1.05,6.475,2.45
				c-0.133-0.2-0.383-0.683-0.75-1.45c-0.3-0.6-0.717-1.283-1.25-2.05c0.333,0.333,1.133,0.75,2.4,1.25c1.233,0.5,2.1,0.75,2.6,0.75
				c0.3,0,0.783-0.167,1.45-0.5c0.59-0.311,1.44-0.477,2.55-0.5c0,0.5,1.233,0.733,3.7,0.7c1.367,0,3.467-0.067,6.3-0.2
				c1.467,0,2.85,0.167,4.15,0.5s2.167,0.5,2.6,0.5c0.6,0,1.2-0.183,1.8-0.55c0.333-0.233,0.817-0.55,1.45-0.95
				c0,1.1,0.316,2.017,0.95,2.75c0.067,0.067,0.583,0.483,1.55,1.25c0.1-0.067,0.35-0.183,0.75-0.35
				c0.333-0.233,0.417-0.617,0.25-1.15c0.233,0,1.533,0.283,3.9,0.85c2.267,0.533,3.8,0.75,4.6,0.65l-1.5-2v-1
				c2.167,0,6.083,0.167,11.75,0.5c0.566,0,1.433,0.133,2.6,0.4c1.733,0.367,2.95,0.9,3.65,1.6c-0.567-1.767-1.733-2.767-3.5-3v-0.5
				c2.033,0,4.267-0.083,6.7-0.25c2.434-0.167,3.867-0.25,4.3-0.25c0.467,0,1.867,0.317,4.2,0.95c2.4,0.667,4,1.017,4.8,1.05
				c-0.167-0.167-0.333-0.5-0.5-1s-0.333-0.833-0.5-1h3c0.167,0.167,0.667,0.333,1.5,0.5s1.333,0.333,1.5,0.5h2.5l-0.35-0.7
				c-0.233-0.333-0.617-0.6-1.15-0.8v-0.5c2.367,0,4.633,0.5,6.8,1.5c1.1,0.5,2.167,1,3.2,1.5c0.867,0,1.783-0.333,2.75-1
				c0.966-0.667,1.966-1,3-1c0.566,0,0.85,0.033,0.85,0.1c-0.067,0.8-0.1,1.267-0.1,1.4c0.833,0.133,1.767,0.033,2.8-0.3
				c1.034-0.3,1.767-0.7,2.2-1.2c0.466,0.833,1.667,1.517,3.6,2.05c1.167,0.333,3.3,0.817,6.4,1.45h3.5c-1.367-0.633-3.7-1.8-7-3.5
				v-0.5c0.733,0,2.083,0.167,4.05,0.5c1.934,0.333,3.083,0.5,3.45,0.5c0.867,0,1.767-0.417,2.7-1.25c0.9-0.833,2.333-1.25,4.3-1.25
				c2.733,0,5.333,0.35,7.8,1.05c0.667,0.2,2.9,1.017,6.7,2.45c0-1-0.167-1.833-0.5-2.5c0.667,0,2,0.133,4,0.4
				c1.867,0.1,3.2-0.2,4-0.9c-0.167,0-0.417-0.083-0.75-0.25s-0.583-0.25-0.75-0.25v-0.5c1.333,0,3.833,0.167,7.5,0.5
				c0.441,0,0.917-0.125,1.425-0.375c0.551-0.27,1.143-0.695,1.775-1.275c0.733-0.667,1.833-1.783,3.3-3.35
				c0.466,0.7,0.816,1.133,1.05,1.3c0.233,0.133,0.633,0.2,1.2,0.2c1.167,0,3.233-0.517,6.2-1.55c0.667-0.233,1.308-0.466,1.925-0.7
				c1.949-0.741,3.657-1.491,5.125-2.25h2.5c0.333,0.333,0.5,1.333,0.5,3c0.466-0.667,2.167-1.9,5.1-3.7
				c2.633-1.566,4.116-3,4.45-4.3c0.7,0.3,1.184,0.567,1.45,0.8c0.133,0.1,0.316,0.333,0.55,0.7h8c-1.566-1-2.566-1.5-3-1.5v-0.5
				c2.167,0.5,3.85,0.417,5.05-0.25c0.633-0.367,1.483-1.25,2.55-2.65c2.022-2.656,5.056-4.031,9.1-4.125
				c0.734,0.53,1.234,1.005,1.5,1.425v-2c0.367,0.133,0.767,0.4,1.2,0.8c0.4,0.433,0.667,0.833,0.8,1.2
				c0.433,0,0.733-0.217,0.9-0.65c0.066-0.233,0.1-0.683,0.1-1.35l0.5-0.15c0.328-0.164,0.495-0.439,0.5-0.825
				c0.01,0.488,0.427,0.93,1.25,1.325c0.833,0.433,1.75,0.65,2.75,0.65v-3c0.9,0.533,2.083,1.133,3.55,1.8
				c1.867,0.8,3.184,1.2,3.95,1.2c0.833,0,1.417-0.333,1.75-1c0.333-0.667,0.917-1,1.75-1c2.033,0,4.45,0.6,7.25,1.8
				c2.466,1.1,4.433,1.5,5.9,1.2v-3h8c0.133,0,3.184-0.667,9.15-2c2.658-0.45,4.716-0.634,6.175-0.55
				c-1.845-0.706-2.945-1.189-3.3-1.45c2.721,0.071,4.379,0.404,4.975,1c0-0.333-0.167-0.833-0.5-1.5
				c-0.333-0.667-0.5-1.167-0.5-1.5c1.767,0,3.617-0.167,5.55-0.5c1.934-0.333,3.75-0.5,5.45-0.5c0.1,0,1.184,0.5,3.25,1.5
				c2.033,1,3.117,1.5,3.25,1.5c0.833,0,1.583-0.333,2.25-1c0.667-0.667,1.417-1,2.25-1c1.633,0,2.517,0.05,2.65,0.15
				c0.467,0.267,0.583,1.217,0.35,2.85c1.033,0,3.05-0.167,6.05-0.5c3.034-0.333,5.35-0.5,6.95-0.5v-3
				c0.434,0.434,1.35,0.717,2.75,0.85c0.833,0.1,2.25,0.15,4.25,0.15c0-0.667-0.033-1.133-0.1-1.4
				c-0.162-0.388-0.445-0.587-0.85-0.6c2.682-0.005,5.481-0.505,8.4-1.5c2.933-1,4.783-1.5,5.55-1.5c1.133,0,2.25,0.317,3.35,0.95
				c1,0.6,2.216,1.617,3.65,3.05c1.667-1.7,2.783-2.75,3.35-3.15c1.867-1.267,3.783-1.55,5.75-0.85c0-1.333-0.333-2-1-2
				c-0.167,0-0.333-0.05-0.5-0.15c-0.333-0.167-0.5-0.45-0.5-0.85c2.667,1.333,5.167,2,7.5,2c3.667,0,7.6-1.233,11.8-3.7
				c1.967-1.133,5.567-3.667,10.8-7.6c4.333-3.267,7.783-5.434,10.35-6.5c3.767-1.533,7.284-1.6,10.55-0.2v-4h15.15l0.15-0.5
				c0.167-0.333,0.45-0.5,0.85-0.5c-2.633-0.533-6.117-3.783-10.45-9.75c-4.833-6.667-8.184-10.8-10.05-12.4
				c-1.866-1.6-3.891-3.075-6.075-4.425c-2.185-1.349-10.468-5.257-24.85-11.725c-14.382-6.469-23.44-10.585-27.175-12.35
				c-3.733-1.758-16.941-3.592-39.625-5.5c-22.69-1.911-37.698-2.619-45.025-2.125c-15.413-1.976-25.013-3.601-28.8-4.875
				c0.633,0.3,1.017,0.783,1.15,1.45c-0.2,0.2-0.383,0.283-0.55,0.25c-3.3-0.767-6.55-1.5-9.75-2.2c-0.433-0.1-0.8-0.3-1.1-0.6
				c-1-1.1-2.083-1.667-3.25-1.7c0.233,0.2,0.45,0.4,0.65,0.6c0.2,0.2,0.417,0.367,0.65,0.5c1.137,0.488,1.879,1.271,2.225,2.35
				c0.079,0.252,0.137,0.519,0.175,0.8c-2.267-0.3-4.483-0.733-6.65-1.3c-1.778-0.468-3.162-1.185-4.15-2.15
				c0.121,0.151,0.205,0.318,0.25,0.5c0.133,0.367,0.3,0.633,0.5,0.8c0.466,0.367,0.566,1.083,0.3,2.15
				c-1.133,0.1-2.15-0.1-3.05-0.6c-0.4-0.2-0.75-0.45-1.05-0.75c-1.1-0.967-1.767-1.117-2-0.45c0.2,0.2,0.4,0.4,0.6,0.6
				c0.434,0.4,0.867,0.783,1.3,1.15c2.767,2.133,4.167,4.8,4.2,8c-0.867-1.533-1.716-3.15-2.55-4.85c-0.333-0.633-0.75-1.2-1.25-1.7
				c-1.567-1.467-3.333-2.583-5.3-3.35c-3.566-1.433-7.433-2.3-11.6-2.6c-1.5-0.1-2.517,0.2-3.05,0.9
				c0.167,0.434,0.367,0.85,0.6,1.25c0.833,1.6,2.05,2.817,3.65,3.65c-0.4,0-0.8-0.034-1.2-0.1c-2.509-0.47-4.634-1.545-6.375-3.225
				c0.092,0.092,0.183,0.184,0.275,0.275c0.2,0.2,0.417,0.383,0.65,0.55c1.267,0.9,1.867,2.133,1.8,3.7
				c-0.2-0.2-0.417-0.383-0.65-0.55c-1.233-0.867-2.65-2.1-4.25-3.7c0.767,2.133,2.017,4.15,3.75,6.05c1.3,1.4,2.5,3.033,3.6,4.9
				c-1.267-0.333-2.283-0.733-3.05-1.2c-0.4-0.2-0.767-0.45-1.1-0.75c-1.2-1.033-1.9-1.35-2.1-0.95c1.033,1.1,1.483,2.466,1.35,4.1
				c-0.4,0-0.733-0.1-1-0.3c-1.534-1.133-2.8-2.467-3.8-4c-0.233-0.367-0.5-0.7-0.8-1c-1.633-1.7-3.816-2.383-6.55-2.05
				c-0.4,0.033-0.767-0.034-1.1-0.2c-1.3-0.667-2.567-1.383-3.8-2.15c0,0.2,0.017,0.4,0.05,0.6c0.233,1.066,0.017,1.667-0.65,1.8
				c-0.2-0.2-0.417-0.383-0.65-0.55c-0.566-0.467-1.167-0.883-1.8-1.25c0.2,0.9,0.583,1.733,1.15,2.5
				c0.9,1.333,0.934,2.316,0.1,2.95c-1-0.033-1.7-0.6-2.1-1.7c-0.233-0.7-0.583-1.317-1.05-1.85c-3.167-3.567-6.767-6.25-10.8-8.05
				c-0.767-0.367-1.6-0.5-2.5-0.4c-0.8,0.1-1.616,0.217-2.45,0.35c-0.4,0.067-0.767,0.017-1.1-0.15
				c-0.867-0.4-1.917-0.917-3.15-1.55c0,0.4,0.033,0.8,0.1,1.2c0.2,1.3-0.034,2.117-0.7,2.45c-0.434-0.633-0.783-1.467-1.05-2.5
				c-0.1-0.367-0.35-0.55-0.75-0.55c-0.4,0-0.684-0.1-0.85-0.3c-0.267-0.4-0.4-0.917-0.4-1.55c0-1.333-0.134-1.683-0.4-1.05
				c-0.333,0.5-0.616,1.05-0.85,1.65c-0.934,2.567-2,5.184-3.2,7.85c-0.533,1.167-0.967,2.433-1.3,3.8
				c-0.2,0.767-0.35,1.55-0.45,2.35c-0.333,2.767,0.133,5.2,1.4,7.3c0.9,1.466,1.483,2.9,1.75,4.3c-0.7-0.3-1.45-0.967-2.25-2
				c-2.133-2.6-4.017-4.583-5.65-5.95c-0.367,0.434-0.5,1.05-0.4,1.85c0.133,1.3-0.133,2.117-0.8,2.45c0-0.233-0.05-0.434-0.15-0.6
				c-0.1-0.233-0.183-0.467-0.25-0.7c-0.7-2.066-1.566-4.066-2.6-6c-0.233-0.433-0.433-0.633-0.6-0.6
				c-0.567,0.066-1.4,0.05-2.5-0.05c-0.1-1.6,0.5-2.65,1.8-3.15c0.233-0.133,0.383-0.317,0.45-0.55
				c0.133-0.367,0.267-0.583,0.4-0.65c1.233-0.566,1.367-1.35,0.4-2.35c-0.4,0-0.783,0.05-1.15,0.15c-0.434,0.1-0.883,0.2-1.35,0.3
				c-0.566,0.133-1.133,0.283-1.7,0.45c-2.866,0.767-5.716,0.65-8.55-0.35c-0.434-0.167-0.867-0.3-1.3-0.4
				c-0.492-0.112-0.859-0.17-1.1-0.175c2.978-1.229,5.694-3.321,8.15-6.275c0.4-0.467,0.75-0.983,1.05-1.55
				c0.5-0.967,0.65-2,0.45-3.1c1.167,0.733,2.4,1.2,3.7,1.4c0.6,0.1,1.133-0.033,1.6-0.4c0.333-0.267,0.55-0.617,0.65-1.05
				c0.1-0.567,0.15-1.15,0.15-1.75c0.533,0.233,1.15,0.633,1.85,1.2c0.2,0.2,0.4,0.4,0.6,0.6c0.634-0.633,0.85-1.433,0.65-2.4
				c-0.034-0.2-0.05-0.4-0.05-0.6c0.767,0.867,1.983,1.433,3.65,1.7c0.9,0.133,1.333-0.233,1.3-1.1
				C560.533-238.183,560.417-240.217,560.25-242.25z M600.775-239.65c-4.025-0.677-7.534-1.127-10.525-1.35
				c-0.933-0.07-2.025-0.154-3.275-0.25c4.674,1.54,9.249,3.239,13.725,5.1c1.033,0.4,2.066,0.767,3.1,1.1
				c-1.433-1.267-2.733-2.6-3.9-4c0.333-0.3,0.617-0.383,0.85-0.25C600.755-239.42,600.763-239.537,600.775-239.65z M560.25-243.075
				c2.663,1.568,5.796,2.643,9.4,3.225c0.2,0.033,0.4,0.05,0.6,0.05c0-0.967-0.417-1.75-1.25-2.35c0.434-0.067,0.85-0.067,1.25,0
				c0.568,0.109,0.935,0.051,1.1-0.175C568.012-242.558,564.312-242.808,560.25-243.075z M495.675-116.675
				c1.344,0.406,2.469,1.031,3.375,1.875c0.467,0.433,1.133,0.667,2,0.7c-0.4,0-0.783-0.017-1.15-0.05c-1.133-0.1-2.267-0.2-3.4-0.3
				c-1.133-0.066-1.183,0.1-0.15,0.5c-0.8,0.133-1.633,0.15-2.5,0.05c-1.033-0.133-2.033-0.333-3-0.6c0.5,0.3,0.717,0.683,0.65,1.15
				c-0.067,0.5-0.15,1-0.25,1.5c-0.133-0.133-0.267-0.267-0.4-0.4c-0.4-0.367-0.9-0.617-1.5-0.75c-0.312-0.06-0.628-0.11-0.95-0.15
				c-0.4-0.222-0.851-0.405-1.35-0.55c-0.667-0.2-1.167-0.3-1.5-0.3c-0.533,0-0.867,0.033-1,0.1l-0.05,0.15
				c-0.247-0.274-0.389-0.149-0.425,0.375c-0.017,0.103-0.025,0.228-0.025,0.375c0,0.43,0.075,0.789,0.225,1.075
				c-0.725-0.063-1.433-0.171-2.125-0.325c1.033,0.333,1.8,0.967,2.3,1.9c-0.5,0-1.017,0-1.55,0c-1,0-1.367,0.067-1.1,0.2
				c1.167-0.033,1.667,0.533,1.5,1.7c-2.9-0.933-5.3-2.316-7.2-4.15c-0.1,0.1-0.184,0.233-0.25,0.4c-0.067,0.2-0.133,0.317-0.2,0.35
				c-1.066,0.4-2.05,0.4-2.95,0c0.133-0.367,0.2-0.75,0.2-1.15c0.033-0.867-0.283-0.983-0.95-0.35c0-0.267,0.066-0.45,0.2-0.55
				c0.4-0.467,0.833-0.917,1.3-1.35c-1.9-0.233-3.784-0.5-5.65-0.8c-1.033-0.133-1.75,0.083-2.15,0.65
				c0.367,0.167,0.583,0.467,0.65,0.9c-0.5-0.133-1-0.283-1.5-0.45c-0.833-0.233-1.233-0.183-1.2,0.15c1,0.633,1.767,1.367,2.3,2.2
				c-0.233,0-0.467-0.033-0.7-0.1c-0.133-0.066-0.267-0.1-0.4-0.1c-1.167-0.1-2.283-0.434-3.35-1c-0.4-0.233-0.817-0.434-1.25-0.6
				c-0.467-0.2-0.95-0.367-1.45-0.5c0.133,0.133,0.25,0.267,0.35,0.4c0.133,0.133,0.267,0.25,0.4,0.35
				c0.8,0.6,0.917,0.983,0.35,1.15c-0.1-0.133-0.233-0.217-0.4-0.25c-0.2-0.067-0.417-0.133-0.65-0.2
				c-1.767-0.667-3.283-1.417-4.55-2.25c0.1,0.167,0.15,0.317,0.15,0.45c0.033,0.467,0.233,0.833,0.6,1.1
				c0.433,0.333,0.667,0.85,0.7,1.55c-2.6-0.4-4.483-1.533-5.65-3.4c-0.533-0.167-0.833-0.067-0.9,0.3
				c-0.033,0.167-0.05,0.317-0.05,0.45c-0.033,0.733-0.517,0.883-1.45,0.45c-0.267-0.333-0.483-0.733-0.65-1.2
				c-0.733,0.667-1.867,1.15-3.4,1.45c-0.233,0.033-0.467,0.083-0.7,0.15l-0.8,0.3c0.133-0.267,0.3-0.5,0.5-0.7
				c0.2-0.2,0.4-0.367,0.6-0.5c0.767-0.5,1.15-1.367,1.15-2.6c-0.867,0.367-1.733,0.75-2.6,1.15c0-0.133,0-0.267,0-0.4
				c0-0.049,0-0.099,0-0.15c0-0.582,0-1.166,0-1.75c-0.2,0.6-0.583,0.733-1.15,0.4c0-0.733,0-1.483,0-2.25
				c-0.5,0.833-1.383,1.583-2.65,2.25c-0.377,0.188-0.744,0.347-1.1,0.475c1.6-0.65,2.816-1.592,3.65-2.825
				c0.333-0.5,0.483-1.1,0.45-1.8v-0.025c0.004-0.219,0.071,0.156,0.2,1.125c0.5,0.267,0.95,0.4,1.35,0.4
				c0.1-0.267,0.183-0.534,0.25-0.8c0.067-0.233,0.1-0.467,0.1-0.7c0.533,0.466,1.033,0.966,1.5,1.5
				c0.133,0.133,0.267,0.267,0.4,0.4c0.467-0.233,0.817-0.517,1.05-0.85c0.6,0.367,1.367,0.783,2.3,1.25
				c0.167,0.1,0.333,0.167,0.5,0.2c0.7,0.1,1.417,0.1,2.15,0c0.1-0.833,0.5-1.217,1.2-1.15c0.867,0.1,1.65,0.317,2.35,0.65
				c0.333,0.167,0.667,0.3,1,0.4c0.733,0.267,1.5,0.35,2.3,0.25c0.066-0.7-0.1-1.3-0.5-1.8c0-0.633,0.333-0.583,1,0.15
				c0.2,0.2,0.417,0.316,0.65,0.35c0.733,0.1,1.483,0.184,2.25,0.25c0.663,0.03,0.929-0.303,0.8-1c0.245,0.822,0.978,1.172,2.2,1.05
				c1.133-0.1,2.267-0.184,3.4-0.25c1.167-0.067,2.05,0.1,2.65,0.5c0.133-1.133,0.684-1.45,1.65-0.95c0.2,0.1,0.417,0.15,0.65,0.15
				c1.333,0.067,2.583,0.067,3.75,0c-0.1,0.4-0.217,0.667-0.35,0.8c0.2,0.167,0.833,0.066,1.9-0.3c0.233-0.066,0.483-0.1,0.75-0.1
				c-0.333,0.6-0.783,1.167-1.35,1.7c-0.133,0.1-0.2,0.283-0.2,0.55c0.3,0.466,0.933,0.566,1.9,0.3c0.733-0.167,1.383-0.3,1.95-0.4
				c0.233-0.067,0.433,0,0.6,0.2c0.167,0.2,0.367,0.367,0.6,0.5c0.2,0.1,0.417,0.184,0.65,0.25c1.167,0.233,1.8-0.05,1.9-0.85
				c0.203,0.135,0.403,0.252,0.6,0.35c0.002,0.436,0.02,0.669,0.05,0.7c0.066,0.033,0.133,0.167,0.2,0.4c0.5,0,0.75,0.033,0.75,0.1
				h4.55c0.233-0.1,0.483-0.167,0.75-0.2c0.167-0.1,0.25-0.417,0.25-0.95c0-0.207-0.059-0.423-0.175-0.65
				c0.059-0.004,0.118-0.004,0.175,0c1.133,0.066,2.15-0.1,3.05-0.5c-0.933-1.1-2.45-1.85-4.55-2.25c2,0,4.017-0.067,6.05-0.2
				c0.097,0,0.181-0.042,0.25-0.125c0.03,0.006,0.063,0.014,0.1,0.025c0.667,0.167,1.417,0.533,2.25,1.1
				c0.167,0.1,0.317,0.2,0.45,0.3c0.966,0.567,1.833,1.1,2.6,1.6c0.133,0.067,0.284,0.133,0.45,0.2
				c0.106,0.028,0.206,0.053,0.3,0.075c-1.881,0.391-3.764,0.782-5.65,1.175c0.133,0.133,0.267,0.217,0.4,0.25
				c0.625,0.104,1.142,0.313,1.55,0.625c0.105,0.081,0.205,0.173,0.3,0.275c-0.233,0-0.483,0-0.75,0c-0.761,0-1.519,0-2.275,0
				c-0.244,0-0.486,0-0.725,0C495.491-116.725,495.583-116.7,495.675-116.675z M684.875-214.425
				c-0.234,0.483-0.509,0.942-0.825,1.375c-0.198-0.714-0.498-1.431-0.9-2.15C683.739-214.938,684.314-214.679,684.875-214.425z
				 M687.7-161.7c-0.5-0.033-1-0.05-1.5-0.05c1-2.367,2.3-2.617,3.9-0.75c0.033,0.038,0.066,0.071,0.1,0.1
				c-0.253,0.323-0.512,0.648-0.775,0.975C688.898-161.564,688.323-161.655,687.7-161.7z M702-146.1v1c1.333,0.667,3,1,5,1v1h-13
				c-3.434-0.6-6-1.066-7.7-1.4c-3.033-0.6-4.8-1.467-5.3-2.6v5c-0.667,0-1.5-0.167-2.5-0.5c-1.025-0.331-1.9-0.497-2.625-0.5
				c0.75,0.021,1.125,1.354,1.125,4c-1.043-1.121-2.851-2.246-5.425-3.375c-0.995,0.896-2.037,1.779-3.125,2.65
				c-0.388-0.053-0.771-0.12-1.15-0.2c-0.15-0.032-0.3-0.066-0.45-0.1c-1.68-0.411-3.296-1.069-4.85-1.975
				c0.5,0.5,0.833,1.05,1,1.65c0.867,3.467,0.017,5.367-2.55,5.7c-0.967,0.133-1.8-0.033-2.5-0.5c-3.6-2.5-7.4-4.45-11.4-5.85
				c-0.354,0.266-0.671,0.507-0.95,0.725c0.038-1.75-1.063-2.475-3.3-2.175c-2.167,0.267-4.216,0.033-6.15-0.7
				c-3.667-1.4-7.633-1.833-11.9-1.3c-1.033,0.133-2.066,0.267-3.1,0.4c-4.267,0.533-8.233,0.083-11.9-1.35
				c-0.6-0.233-1.184-0.383-1.75-0.45c-3.3-0.433-4.2-0.367-2.7,0.2c4.034,1.767,7.483,4,10.35,6.7c-3.267,0.5-6.267-0.05-9-1.65
				c-1.533-0.933-3.133-1.65-4.8-2.15c-1.867-0.533-3.317-1.283-4.35-2.25c-1.7-1.633-2.316-1.517-1.85,0.35
				c1.233,1.267,2.35,2.65,3.35,4.15c-0.5,0-1-0.017-1.5-0.05c-7.2-0.5-12.233-3-15.1-7.5c-0.5,0.5-1.033,0.8-1.6,0.9
				c-2.966,0.433-5.966,0.65-9,0.65c-1,0-1.5-0.05-1.5-0.15c-0.183-1.911-0.625-3.386-1.325-4.425
				c-0.454-0.671-1.012-1.163-1.675-1.475c-1,0.5-1.983,1.066-2.95,1.7c-0.567,0.367-1.15,0.633-1.75,0.8
				c-0.72,0.18-1.429,0.38-2.125,0.6c2.052-1.672,4.244-3.339,6.575-5c1.054-0.744,1.628-1.994,1.725-3.75
				c-0.024-0.163-0.049-0.33-0.075-0.5c-0.034-0.233-0.083-0.467-0.15-0.7c-0.133-0.367-0.3-0.667-0.5-0.9
				c-0.667-0.8-1.233-1.684-1.7-2.65c-0.7-1.467-1.517-2.85-2.45-4.15c-0.566-0.867-1.316-0.9-2.25-0.1
				c-0.2,0.167-0.417,0.267-0.65,0.3c-1,0.167-1.983,0.167-2.95,0c-0.233-0.033-0.466-0.133-0.7-0.3c-0.6-0.434-1-1.067-1.2-1.9
				c-0.2,0.2-0.417,0.383-0.65,0.55c-0.9,0.6-1.667,1.1-2.3,1.5c-0.7,0.433-1.134,1.183-1.3,2.25c0-0.633-0.15-1.1-0.45-1.4
				c-1.9-1.934-4.384-3.284-7.45-4.05c-1-0.267-2.017-0.683-3.05-1.25c0,0.2,0,0.4,0,0.6c0,0.8,0,1.617,0,2.45
				c-1.434-0.833-3.05-1.467-4.85-1.9c-0.6-0.167-1.15-0.433-1.65-0.8c-0.833-0.633-1.717-0.95-2.65-0.95
				c0.233,0.2,0.384,0.417,0.45,0.65c0.133,0.367,0.1,0.683-0.1,0.95c-0.867,1.1-1.583,0.967-2.15-0.4c0,0.6-0.066,1.183-0.2,1.75
				c-0.267,1.067-0.6,2.1-1,3.1c-2.033-2.567-4.883-3.934-8.55-4.1c-1.833-0.1-3.65-0.2-5.45-0.3c-3.4-0.233-5.716,1-6.95,3.7
				c-0.233,0.5-0.567,0.934-1,1.3c-0.2-0.2-0.417-0.383-0.65-0.55c-0.367-0.233-0.667-0.517-0.9-0.85c-0.5-0.733-1.2-1.267-2.1-1.6
				c0.333,2.2,0.8,4.4,1.4,6.6c0.1,0.434,0.316,0.784,0.65,1.05c1.233,0.867,2.183,1.75,2.85,2.65c-1.1-0.233-2.133-0.617-3.1-1.15
				c-0.833-0.467-1.55-1.133-2.15-2c-1.467-2.133-2.75-4.133-3.85-6c-0.233-0.367-0.367-0.767-0.4-1.2
				c-0.167-1.333-0.25-1.733-0.25-1.2c-0.733,1.233-1.733,2.267-3,3.1c-0.233,0.167-0.4,0.367-0.5,0.6
				c-0.233,0.667-0.684,1.033-1.35,1.1c-0.4,0.067-0.783,0.017-1.15-0.15c-0.733-0.367-1.033-1.3-0.9-2.8
				c0.053-0.541,0.094-0.933,0.125-1.175c-0.174,0.178-0.35,0.37-0.525,0.575c-0.4,0.4-0.6,1-0.6,1.8c-0.4,0-0.75-0.1-1.05-0.3
				c-0.333-0.2-0.633-0.483-0.9-0.85c-0.467-0.633-1.167-1.55-2.1-2.75c-0.833,0.566-1.717,0.85-2.65,0.85
				c-0.4,0-0.633-0.067-0.7-0.2c-0.367-1.1-0.733-2.217-1.1-3.35c-1.382,0.429-2.815,0.637-4.3,0.625
				c2.367-1.35,4.267-2.958,5.7-4.825c0.566,1.9,1.9,2.583,4,2.05c0.233-0.067,0.367-0.217,0.4-0.45
				c0.167-0.966,0.25-1.95,0.25-2.95c0.133,0.667,0.75,0.967,1.85,0.9c0.2,0,0.4,0,0.6,0c0.2,0,0.417-0.05,0.65-0.15
				c0.633-0.233,0.816-0.9,0.55-2c0.567,0.867,1.617,1.617,3.15,2.25c0.333,0.133,0.7,0.2,1.1,0.2c0.667,0.034,0.9-0.383,0.7-1.25
				c-0.067-0.4-0.1-0.8-0.1-1.2c1.233,0.6,2.483,1.15,3.75,1.65c0.367,0.133,0.733,0.267,1.1,0.4c1.433,0.5,2.85,0.65,4.25,0.45
				c0.233-0.033,0.467-0.233,0.7-0.6c0.167-0.233,0.3-0.467,0.4-0.7c0.1-0.2,0.15-0.4,0.15-0.6c1,0.233,2,0.667,3,1.3
				c0.233,0.167,0.467,0.317,0.7,0.45c2.333,1.133,4.567,0.783,6.7-1.05c0.566-0.467,1.117-0.95,1.65-1.45
				c0.3-0.3,0.517-0.667,0.65-1.1c0.7,0.033,1.2,0.633,1.5,1.8c0.067,0.233,0.217,0.434,0.45,0.6c1.066,0.6,2.217,0.65,3.45,0.15
				c0.133-0.066,0.2-0.3,0.2-0.7c0-0.6,0-1.2,0-1.8c0.833,1.633,1.233,1.434,1.2-0.6c0-0.433,0-0.85,0-1.25
				c0.566,0.667,1.383,1.034,2.45,1.1c5.667,0.233,10.733,2.1,15.2,5.6c0.233-1.2,0.066-2.233-0.5-3.1
				c-0.267-0.367-0.5-0.75-0.7-1.15c0.833,1.3,2.217,1.733,4.15,1.3c0.267-0.066,0.466-0.316,0.6-0.75
				c1.833,0.1,3.467,0.75,4.9,1.95c1.466,1.267,3.116,2.05,4.95,2.35c0-0.415-0.033-0.823-0.1-1.225
				c0.191,0.076,0.408,0.151,0.65,0.225c0.233,0.066,0.433,0.217,0.6,0.45c0.767,0.9,1.95,1.133,3.55,0.7c0.3-0.1,0.6-0.3,0.9-0.6
				c0.867-0.867,1.983-0.85,3.35,0.05c0.7,0.5,1.333,1.083,1.9,1.75c0.267,0.333,0.434,0.716,0.5,1.15c0.1,0.6,0.566,0.9,1.4,0.9
				c0.2-0.033,0.417,0.033,0.65,0.2c1.233,0.833,2.3,1.8,3.2,2.9c0.533,0.633,0.667,0.9,0.4,0.8l0.2,0.6
				c0.5,1.567,1.4,3.05,2.7,4.45c1.534,1.667,3.567,3.7,6.1,6.1c0.597,0.567,1.222,1.092,1.875,1.575
				c0.165-0.278,0.307-0.703,0.425-1.275c0.533-2.333,2.116-2.583,4.75-0.75c0.7,0.467,1.517,0.816,2.45,1.05
				c1.067,0.267,2.133,0.517,3.2,0.75c6.333,1.4,12.85,2.05,19.55,1.95c2.5-0.033,4.983-0.25,7.45-0.65c0.566-0.1,1-0.45,1.3-1.05
				c-4.7-1.933-4.617-2.7,0.25-2.3c1.567,0.1,3.117,0.316,4.65,0.65c5.8,1.2,11.833,1.8,18.1,1.8c3.034,0,5.9-0.45,8.6-1.35
				c0.3-0.1,0.45-0.65,0.45-1.65c4.486,1.562,9.145,2.711,13.975,3.45c3.772-0.174,6.748-0.124,8.925,0.15c5.3,0.667,8.183,1,8.65,1
				c0.533,0,3.184-0.333,7.95-1c4.733-0.667,8.25-1,10.55-1l-2,1.9c-0.467,0.434-0.8,0.8-1,1.1h1c3.033-0.433,5.417-0.066,7.15,1.1
				l4.85,4.9C712.667-146.433,708-146.1,702-146.1z M491.075-169.125c0.025-0.026,0.05-0.051,0.075-0.075
				C491.15-169.522,491.125-169.497,491.075-169.125z M408.2-195.425c1.146-0.738,2.246-1.463,3.3-2.175l0.675-0.525
				c0.88,1.182,1.938,2.207,3.175,3.075c0.667-0.133,0.917-0.6,0.75-1.4c-0.033-0.267-0.05-0.517-0.05-0.75
				c0.867,0.633,1.733,1.284,2.6,1.95c0.267,0.2,0.65,0.3,1.15,0.3c-0.133-1.233,0.383-1.5,1.55-0.8c0.933,0.567,1.8,1.333,2.6,2.3
				c0.133,0.133,0.25,0.284,0.35,0.45c0.4,0.767,0.8,1.367,1.2,1.8c-0.033,0.3,0.183,0.034,0.65-0.8
				c0.233-0.433,0.517-0.667,0.85-0.7c0.5,0.767,1,1.267,1.5,1.5c0.267,0.133,0.517,0.25,0.75,0.35c0.133,0.033,0.267,0.05,0.4,0.05
				c0.367-0.733,0.467-1.733,0.3-3c-0.167-1.233-0.317-2.5-0.45-3.8c-0.033-0.133-0.117-0.267-0.25-0.4
				c0.133-0.2,0.417,0.05,0.85,0.75c0.066,0.133,0.15,0.283,0.25,0.45c1.333,1.6,2.7,3,4.1,4.2c0.433,0.333,0.583,0.05,0.45-0.85
				c1.2,1.767,2.283,3.333,3.25,4.7c0.133,0.133,0.184,0.333,0.15,0.6c-0.1,0.9-0.083,1.4,0.05,1.5c0.733,0.1,1.017-0.283,0.85-1.15
				c-0.067-0.367-0.1-0.733-0.1-1.1c0.9-0.067,1.7,0.267,2.4,1c0.467,0.5,1.033,0.85,1.7,1.05c0.5,0.133,1.017,0.217,1.55,0.25
				c0.567,0.033,0.8-0.233,0.7-0.8c-0.059-0.32-0.208-0.679-0.45-1.075c0.055,0.073,0.121,0.165,0.2,0.275
				c0.566,0.667,1.417,1.067,2.55,1.2c0.433-0.067,0.533-0.433,0.3-1.1c-0.066-0.167-0.167-0.316-0.3-0.45
				c0.1-0.167,0.45,0.017,1.05,0.55c1.133,1,2.667,1.767,4.6,2.3c0.4,0.1,0.783,0.284,1.15,0.55c0.7,0.467,1.117,0.483,1.25,0.05
				c0.1-0.267,0.2-0.533,0.3-0.8c1.1,0.333,2.117,0.95,3.05,1.85c1.359,1.338,2.625,2.738,3.8,4.2c0.412,0.509,0.812,1.025,1.2,1.55
				l-1.95,1.7c-2.367-0.733-4.75-1.233-7.15-1.5c0.667,0.4,1.133,0.833,1.4,1.3c-1.534,0.1-2.917-0.184-4.15-0.85
				c-0.867-0.467-1.466-0.367-1.8,0.3c0.7,0.333,1.183,0.767,1.45,1.3c-2.767-0.434-5.4-1.1-7.9-2
				c-0.167-0.067-0.316-0.117-0.45-0.15c-0.833-0.1-1.067-0.083-0.7,0.05c0.7,0.167,1.067,0.617,1.1,1.35
				c-2.467-0.367-4.883-0.95-7.25-1.75c-0.933-0.3-1.767-0.767-2.5-1.4c-1.367-1.167-2.783-2.133-4.25-2.9
				c0.133,0.1,0.25,0.233,0.35,0.4c0.3,0.333,0.617,0.65,0.95,0.95c0.667,0.567,1,1.25,1,2.05c-2.6-0.6-4.867-1.867-6.8-3.8
				c-0.8-0.8-1.533-1.483-2.2-2.05c-0.167-0.167-0.35-0.317-0.55-0.45c-0.633-0.533-0.983-0.7-1.05-0.5
				c0,1.267-0.633,1.517-1.9,0.75c-0.367-0.267-0.75-0.483-1.15-0.65c-1-0.434-1.75-1.1-2.25-2c-0.733-1.267-1.483-2.15-2.25-2.65
				c-0.133,0.133-0.2,0.267-0.2,0.4c0.033,0.733-0.284,1.1-0.95,1.1c-0.1-0.367-0.233-0.733-0.4-1.1
				c-0.233-0.5-0.467-1.017-0.7-1.55c-0.133,0.133-0.283,0.25-0.45,0.35c-0.5,0.3-0.733,0.317-0.7,0.05
				c0.133-0.133,0.267-0.233,0.4-0.3c0.467-0.233,0.717-0.517,0.75-0.85c-0.267-0.133-0.533-0.2-0.8-0.2
				c-1.9-0.1-3.783-0.15-5.65-0.15c-0.5,0-0.967-0.083-1.4-0.25h-0.025c0.894-0.298,1.769-0.699,2.625-1.2
				c0.333-0.2,0.65-0.383,0.95-0.55C407.799-195.176,407.999-195.301,408.2-195.425z M383.9-129.6c-0.1,0.1-0.233,0.184-0.4,0.25
				c-0.2,0.067-0.333,0.05-0.4-0.05c-0.567-1.233-1.184-2.184-1.85-2.85c0,0.367-0.05,0.717-0.15,1.05c0,0.167-0.083,0.267-0.25,0.3
				c-0.807,0.134-1.523,0.026-2.15-0.325c0.091,0.201,0.091,0.493,0,0.875c-0.034,0.233-0.083,0.367-0.15,0.4
				c-2.5,0.633-4.617,0.117-6.35-1.55c-0.034,0.5-0.184,0.85-0.45,1.05c-1.2,0.767-1.933,0.534-2.2-0.7
				c-0.4,0.6-1.017,1.133-1.85,1.6c-0.133,0.066-0.284,0.117-0.45,0.15c-1.167,0.3-1.65-0.15-1.45-1.35
				c-0.9,0.4-2.033,0.617-3.4,0.65c-1.019,0.024-2.019-0.01-3-0.1c0.178-0.611,0.795-0.811,1.85-0.6
				c0.567,0.133,1.083,0.05,1.55-0.25c1.067-0.667,1.684-1.567,1.85-2.7c0.067,0.867,0.417,0.95,1.05,0.25
				c0.2-0.2,0.383-0.383,0.55-0.55c0.333,0.933,0.9,1.3,1.7,1.1c0.2-0.066,0.316-0.216,0.35-0.45c0.067-0.633,0.1-1.267,0.1-1.9
				c0.067-0.167,0.333-0.034,0.8,0.4c0.133,0.1,0.267,0.167,0.4,0.2c1,0.2,1.533-0.117,1.6-0.95c0.033-0.133,0.1-0.283,0.2-0.45
				c0.167-0.2,0.3-0.433,0.4-0.7c0.934,1.133,2.067,1.7,3.4,1.7c1-0.033,1.716-0.267,2.15-0.7c0.2-0.167,0.4-0.3,0.6-0.4
				c1.2,0.467,2.433,0.883,3.7,1.25c0.867,0.267,1.383,0.083,1.55-0.55l0.35,0.25c0.233,0.133,0.483,0.233,0.75,0.3
				c1.233,0.367,2.467,0.333,3.7-0.1c1.6-0.6,3.383-0.867,5.35-0.8c0.4,0,0.783-0.017,1.15-0.05c2-0.1,4.017-0.083,6.05,0.05
				c0.5,0.033,0.85-0.05,1.05-0.25c0.2-0.2,0.483-0.333,0.85-0.4c1.033-0.2,1.583,0.083,1.65,0.85c1.267,0.233,2.467,0.3,3.6,0.2
				c0.7-0.066,1.05-0.05,1.05,0.05c0.1,0.2,0.267,0.367,0.5,0.5c0.733,0.367,1.7,0.367,2.9,0c0.333-0.267,0.6-0.367,0.8-0.3
				c0.167,0.067,0.333,0.15,0.5,0.25c0.935,0.68,1.968,1.122,3.1,1.325c0.195,0.03,0.395,0.055,0.6,0.075
				c0.467,0.033,1.434,0.533,2.9,1.5c0.034-0.3,1.2-0.2,3.5,0.3c1.133,0.233,2.284,0.367,3.45,0.4c0.7,0.033,1.333-0.167,1.9-0.6
				c0.056-0.14,0.089-0.265,0.1-0.375c0.191,0.133,0.525,0.291,1,0.475c0.267,0.1,0.517,0.2,0.75,0.3c1.3,0.5,2.567,0.883,3.8,1.15
				c0.957,0.191,1.79,0.133,2.5-0.175c0.273,0.177,0.574,0.369,0.9,0.575c0.267,0.133,0.517,0.217,0.75,0.25
				c0.5,0.1,0.95,0.25,1.35,0.45c1.633,0.767,2.95,1.55,3.95,2.35c-1.133-0.1-2.267-0.216-3.4-0.35c-0.233-0.034-0.45-0.1-0.65-0.2
				c-0.934-0.467-1.6-0.417-2,0.15c1.1,0.633,2.1,1.133,3,1.5c-1.5-0.1-2.983-0.283-4.45-0.55c-1.467-0.233-2.883-0.5-4.25-0.8
				c-0.467-0.1-0.967-0.283-1.5-0.55c0.133,0.133,0.233,0.283,0.3,0.45c0.233,0.5,0.133,0.7-0.3,0.6
				c-0.233-0.066-0.483-0.15-0.75-0.25c-0.733-0.267-1.483-0.533-2.25-0.8c0.167,0.633,0.033,1.15-0.4,1.55
				c-1.1-0.133-2.1-0.517-3-1.15c0.267,1.4-0.217,1.983-1.45,1.75c-0.167-0.033-0.333-0.083-0.5-0.15
				c-0.2-0.067-0.316-0.15-0.35-0.25c-0.053-0.126-0.103-0.234-0.15-0.325c0.196-0.326,0.213-0.784,0.05-1.375
				c-0.034-0.167-0.083-0.316-0.15-0.45c-0.1-0.3-0.4-0.483-0.9-0.55c-1.695-0.272-3.379-0.789-5.05-1.55
				c-0.166-0.084-0.332-0.167-0.5-0.25c-0.814-0.407-1.498-0.465-2.05-0.175l-0.025,0.025c-0.253,0.121-0.479,0.321-0.675,0.6
				c-0.1,0.167-0.217,0.25-0.35,0.25c-1.533,0.066-2.917-0.383-4.15-1.35c0.3,0.6,0.7,1.1,1.2,1.5c1.667,1.3,3.4,2.2,5.2,2.7
				c-3-0.1-5.883-0.333-8.65-0.7c-0.367-0.067-0.733-0.15-1.1-0.25c-2.733-0.8-4.983-2.15-6.75-4.05c-0.2-0.233-0.367-0.333-0.5-0.3
				c-0.333,0-0.683,0.133-1.05,0.4c-0.267,0.2-0.55,0.4-0.85,0.6c-1.033,0.667-1.867,0.567-2.5-0.3
				c-0.333-0.467-0.833-0.567-1.5-0.3c-0.2,0.967-0.617,1.583-1.25,1.85c-0.567-0.567-0.95-1.067-1.15-1.5
				c-0.9,0.133-1.25,0.767-1.05,1.9c0.067,0.533-0.066,0.733-0.4,0.6c-0.3-0.133-0.6-0.217-0.9-0.25
				c-0.033,0.267-0.083,0.533-0.15,0.8c-0.1,0.367-0.184,0.733-0.25,1.1c-0.133,0.733-0.35,1.233-0.65,1.5
				c-0.4-0.066-0.55-0.433-0.45-1.1c0.066-0.533,0.15-1.033,0.25-1.5c0.033-0.167,0.05-0.3,0.05-0.4
				C385.75-130.417,385.167-130.667,383.9-129.6z M443.4-103.75l-3.35-1.375c0.059-0.001,0.118-0.001,0.175,0L443.4-103.75z
				 M417.95-112.525c0.102-0.166,0.168-0.374,0.2-0.625c0.033-0.133,0.1-0.25,0.2-0.35c0.167-0.167,0.217-0.367,0.15-0.6
				c0.167,0,0.25,0.117,0.25,0.35c-0.033,0.3,0.133,0.4,0.5,0.3c0.367-0.133,0.617-0.35,0.75-0.65c-0.067-0.133,0.067-0.033,0.4,0.3
				c0.1,0.1,0.217,0.167,0.35,0.2c0.467,0.133,0.783,0.083,0.95-0.15c0.233-0.4,0.316-0.9,0.25-1.5
				c-0.034-0.167-0.05-0.35-0.05-0.55c0.9,0.667,1.9,1.183,3,1.55c0.4,0.133,0.783,0.283,1.15,0.45
				c0.864,0.345,1.748,0.562,2.65,0.65c0.257,0.028,0.516,0.045,0.775,0.05c0.088,0.001,0.18,0.001,0.275,0h0.075
				c0.305-0.001,0.613-0.018,0.925-0.05c-0.165-0.165-0.356-0.323-0.575-0.475c-0.019-0.013-0.035-0.03-0.05-0.05
				c-0.081-0.045-0.164-0.095-0.25-0.15c-0.188-0.108-0.396-0.217-0.625-0.325l-0.025-0.025c-0.164-0.089-0.355-0.181-0.575-0.275
				c-0.233-0.1-0.483-0.167-0.75-0.2c0.167-0.3,0.45-0.333,0.85-0.1c0.1,0.067,0.2,0.1,0.3,0.1c0-0.367-0.183-0.617-0.55-0.75
				c-0.267-0.1-0.4-0.233-0.4-0.4c-0.133-0.067,0.017-0.034,0.45,0.1c0.614,0.235,1.256,0.41,1.925,0.525
				c0.573,0.083,1.164,0.125,1.775,0.125c1.733,0,3.417-0.284,5.05-0.85c0.12-0.034,0.236-0.076,0.35-0.125
				c0.371,0.151,0.721,0.343,1.05,0.575c0.133,0.067,0.25,0.117,0.35,0.15c0.4,0.167,0.717,0.383,0.95,0.65h-0.75
				c-0.833-0.033-1.65,0.017-2.45,0.15c-1.167,0.167-2.117,0.617-2.85,1.35c0.733,0.167,1.25,0.417,1.55,0.75
				c-0.367,0-0.75,0-1.15,0h-0.55c0.067,0.066,0.117,0.117,0.15,0.15c0.433,0.133,0.7,0.4,0.8,0.8c-0.133,0-0.267,0-0.4,0
				c-0.6,0-1.167-0.066-1.7-0.2c0.388,0.119,0.563,0.436,0.525,0.95c-1.545-0.533-2.503-0.8-2.875-0.8
				c-1.259,0-2.159,0.225-2.7,0.675l-0.025,0.025c-0.026,0.01-0.051,0.027-0.075,0.05l-0.175,0.275
				c-0.759-0.202-1.5-0.41-2.225-0.625c0.133,0.133,0.267,0.217,0.4,0.25c0.4,0.1,0.767,0.333,1.1,0.7
				c0.133,0.133,0.267,0.267,0.4,0.4c0.022,0.029,0.048,0.054,0.075,0.075c0.034,0.3,0.125,0.475,0.275,0.525
				c0.102,0.051,0.26,0.093,0.475,0.125c0.051,0.025,0.101,0.051,0.15,0.075c-0.027,0.016-0.052,0.032-0.075,0.05
				c-0.11-0.036-0.227-0.069-0.35-0.1c-0.233-0.067-0.483-0.117-0.75-0.15c-1.5-0.133-2.75-0.733-3.75-1.8
				c-0.433-0.4-0.633-0.566-0.6-0.5c0,0.067,0.017,0.133,0.05,0.2c0.267,0.767,0.5,1.517,0.7,2.25
				c-0.067-0.067-0.133-0.117-0.2-0.15c-0.367-0.167-0.733-0.367-1.1-0.6c-0.066-0.067-0.1-0.133-0.1-0.2
				c-0.066-0.4-0.1-0.533-0.1-0.4c0,0.067,0,0.133,0,0.2c0,0.333,0,0.65,0,0.95c-0.133-0.066-0.267-0.117-0.4-0.15
				c-0.1-0.033-0.183-0.083-0.25-0.15c-0.233-0.367-0.466-0.65-0.7-0.85c-0.033,0.067-0.083,0.133-0.15,0.2
				c-0.3,0.467-0.75,0.85-1.35,1.15c-0.067-0.067-0.1-0.133-0.1-0.2c0-0.367-0.083-0.617-0.25-0.75c-0.3,0.567-0.817,1.067-1.55,1.5
				c-0.167,0.133-0.367,0.233-0.6,0.3c-0.667,0.233-1.267,0.533-1.8,0.9c-0.267,0.167-0.533,0.233-0.8,0.2
				c-0.4-0.034-0.5-0.1-0.3-0.2c0.167-0.1,0.316-0.2,0.45-0.3c0.5-0.3,1-0.55,1.5-0.75c0.667-0.267,1.15-0.617,1.45-1.05
				c0.133-0.167,0.267-0.35,0.4-0.55c0.233-0.367,0.283-0.75,0.15-1.15c-0.333,0.267-0.733,0.45-1.2,0.55
				c-0.034-0.433,0.1-0.683,0.4-0.75c-0.067,0-0.133,0.017-0.2,0.05c-0.595,0.307-1.162,0.641-1.7,1
				c0.196-0.21,0.379-0.444,0.55-0.7c0.106-0.165,0.215-0.331,0.325-0.5c0.594-0.964,1.119-1.931,1.575-2.9c-0.1,0.5-0.2,1-0.3,1.5
				c-0.033,0.233-0.05,0.483-0.05,0.75c0.125,0.01,0.242,0.01,0.35,0C417.516-112.086,417.782-112.245,417.95-112.525z
				 M215.75-172.3c-0.362-0.966-0.812-1.708-1.35-2.225c0.06-0.183,0.135-0.341,0.225-0.475c0.079-0.12,0.171-0.22,0.275-0.3
				c0.233-0.233,0.684-0.55,1.35-0.95l0.5-0.15c0.328-0.164,0.495-0.439,0.5-0.825c0.006,0.329,0.173,0.821,0.5,1.475
				c0.333,0.667,0.5,1.167,0.5,1.5c1.1-0.233,2.183-0.783,3.25-1.65c1.033-0.867,1.617-1.65,1.75-2.35l3,3c0.667,0,1-1,1-3
				c0.667,0,1.667,0.167,3,0.5s2.333,0.5,3,0.5c0.433-0.433,0.733-1.15,0.9-2.15c0.067-0.567,0.1-1.517,0.1-2.85
				c3.867,0,7.317,0.167,10.35,0.5s4.75,0.5,5.15,0.5c1.1,0,4.567,0.667,10.4,2c3.835,0.872,6.902,1.455,9.2,1.75
				c-1.701,0.532-3.618,1.266-5.75,2.2c-3.133,1.367-5.083,2.05-5.85,2.05c-3.167-0.667-6.4-1.333-9.7-2
				c-6.533-1.333-10.466-2-11.8-2v4c-2.7,0-6.233,0.5-10.6,1.5c-4.333,1-6.633,1.5-6.9,1.5
				C217.283-170.25,216.283-170.933,215.75-172.3z M289.75-189.55c-0.337-0.213-0.67-0.421-1-0.625c0.386-0.186,0.71-0.186,0.975,0
				C289.542-189.999,289.55-189.79,289.75-189.55z M262.1-203.525c-0.057-0.04-0.116-0.081-0.175-0.125
				c0.11,0.034,0.219,0.067,0.325,0.1C262.198-203.542,262.147-203.533,262.1-203.525z M286.65-195.8
				c-0.076,0.047-0.151,0.097-0.225,0.15c-0.07-0.06-0.079-0.093-0.025-0.1C286.486-195.766,286.57-195.783,286.65-195.8z"/>
			<path style="fill-rule:evenodd;clip-rule:evenodd;fill:#486616;" d="M659.2-224.25c-1.716-0.577-3.483-1.16-5.3-1.75
				c-12.033-3.9-23.95-7.25-35.75-10.05c-6.587-1.55-12.378-2.75-17.375-3.6c-0.012,0.113-0.02,0.23-0.025,0.35
				c-0.233-0.133-0.517-0.05-0.85,0.25c1.167,1.4,2.467,2.733,3.9,4c-1.033-0.333-2.066-0.7-3.1-1.1
				c-4.477-1.861-9.051-3.561-13.725-5.1c-3.769-0.266-8.977-0.625-15.625-1.075c-0.166,0.226-0.532,0.284-1.1,0.175
				c-0.4-0.067-0.816-0.067-1.25,0c0.833,0.6,1.25,1.383,1.25,2.35c-0.2,0-0.4-0.017-0.6-0.05c-3.604-0.582-6.737-1.657-9.4-3.225
				c-0.534-0.324-1.051-0.666-1.55-1.025c0.313,0.313,0.629,0.638,0.95,0.975c0.079,0.089,0.163,0.18,0.25,0.275
				c0.2,0.2,0.317,0.4,0.35,0.6c0.167,2.033,0.283,4.067,0.35,6.1c0.033,0.867-0.4,1.233-1.3,1.1c-1.667-0.267-2.883-0.833-3.65-1.7
				c0,0.2,0.017,0.4,0.05,0.6c0.2,0.967-0.017,1.767-0.65,2.4c-0.2-0.2-0.4-0.4-0.6-0.6c-0.7-0.566-1.317-0.967-1.85-1.2
				c0,0.6-0.05,1.183-0.15,1.75c-0.1,0.433-0.317,0.783-0.65,1.05c-0.466,0.367-1,0.5-1.6,0.4c-1.3-0.2-2.534-0.667-3.7-1.4
				c0.2,1.1,0.05,2.133-0.45,3.1c-0.3,0.566-0.65,1.083-1.05,1.55c-2.456,2.954-5.172,5.045-8.15,6.275
				c0.241,0.005,0.608,0.063,1.1,0.175c0.433,0.1,0.866,0.233,1.3,0.4c2.833,1,5.684,1.117,8.55,0.35
				c0.567-0.167,1.134-0.317,1.7-0.45c0.467-0.1,0.917-0.2,1.35-0.3c0.367-0.1,0.75-0.15,1.15-0.15c0.967,1,0.833,1.783-0.4,2.35
				c-0.133,0.067-0.267,0.284-0.4,0.65c-0.067,0.233-0.217,0.417-0.45,0.55c-1.3,0.5-1.9,1.55-1.8,3.15
				c1.1,0.1,1.933,0.117,2.5,0.05c0.167-0.034,0.366,0.167,0.6,0.6c1.034,1.934,1.9,3.934,2.6,6c0.067,0.233,0.15,0.467,0.25,0.7
				c0.1,0.167,0.15,0.367,0.15,0.6c0.667-0.333,0.934-1.15,0.8-2.45c-0.1-0.8,0.033-1.417,0.4-1.85
				c1.633,1.367,3.517,3.35,5.65,5.95c0.8,1.033,1.55,1.7,2.25,2c-0.267-1.4-0.85-2.833-1.75-4.3c-1.267-2.1-1.733-4.534-1.4-7.3
				c0.1-0.8,0.25-1.583,0.45-2.35c0.333-1.367,0.767-2.633,1.3-3.8c1.2-2.667,2.267-5.283,3.2-7.85c0.233-0.6,0.517-1.15,0.85-1.65
				c0.267-0.633,0.4-0.283,0.4,1.05c0,0.633,0.133,1.15,0.4,1.55c0.167,0.2,0.45,0.3,0.85,0.3c0.4,0,0.65,0.184,0.75,0.55
				c0.267,1.033,0.616,1.867,1.05,2.5c0.667-0.333,0.9-1.15,0.7-2.45c-0.067-0.4-0.1-0.8-0.1-1.2c1.233,0.633,2.283,1.15,3.15,1.55
				c0.333,0.167,0.7,0.217,1.1,0.15c0.833-0.133,1.65-0.25,2.45-0.35c0.9-0.1,1.733,0.033,2.5,0.4c4.034,1.8,7.634,4.483,10.8,8.05
				c0.466,0.533,0.816,1.15,1.05,1.85c0.4,1.1,1.1,1.667,2.1,1.7c0.833-0.633,0.8-1.617-0.1-2.95c-0.566-0.767-0.95-1.6-1.15-2.5
				c0.633,0.367,1.233,0.783,1.8,1.25c0.233,0.167,0.45,0.35,0.65,0.55c0.667-0.133,0.883-0.733,0.65-1.8
				c-0.034-0.2-0.05-0.4-0.05-0.6c1.233,0.767,2.5,1.483,3.8,2.15c0.333,0.167,0.7,0.233,1.1,0.2c2.733-0.333,4.917,0.35,6.55,2.05
				c0.3,0.3,0.566,0.633,0.8,1c1,1.533,2.267,2.867,3.8,4c0.267,0.2,0.6,0.3,1,0.3c0.133-1.633-0.317-3-1.35-4.1
				c0.2-0.4,0.9-0.083,2.1,0.95c0.333,0.3,0.7,0.55,1.1,0.75c0.767,0.467,1.783,0.867,3.05,1.2c-1.1-1.867-2.3-3.5-3.6-4.9
				c-1.733-1.9-2.983-3.917-3.75-6.05c1.6,1.6,3.017,2.833,4.25,3.7c0.233,0.167,0.45,0.35,0.65,0.55c0.067-1.566-0.533-2.8-1.8-3.7
				c-0.233-0.167-0.45-0.35-0.65-0.55c-0.092-0.091-0.183-0.183-0.275-0.275c1.741,1.68,3.866,2.755,6.375,3.225
				c0.4,0.066,0.8,0.1,1.2,0.1c-1.6-0.833-2.816-2.05-3.65-3.65c-0.233-0.4-0.434-0.816-0.6-1.25c0.534-0.7,1.55-1,3.05-0.9
				c4.167,0.3,8.033,1.167,11.6,2.6c1.967,0.767,3.733,1.883,5.3,3.35c0.5,0.5,0.917,1.066,1.25,1.7
				c0.833,1.7,1.683,3.317,2.55,4.85c-0.033-3.2-1.433-5.867-4.2-8c-0.434-0.367-0.867-0.75-1.3-1.15c-0.2-0.2-0.4-0.4-0.6-0.6
				c0.233-0.667,0.9-0.517,2,0.45c0.3,0.3,0.65,0.55,1.05,0.75c0.9,0.5,1.917,0.7,3.05,0.6c0.267-1.067,0.167-1.784-0.3-2.15
				c-0.2-0.167-0.367-0.433-0.5-0.8c-0.045-0.182-0.129-0.349-0.25-0.5c0.988,0.965,2.372,1.682,4.15,2.15
				c2.167,0.567,4.383,1,6.65,1.3c-0.038-0.282-0.096-0.548-0.175-0.8c-0.346-1.079-1.088-1.862-2.225-2.35
				c-0.233-0.133-0.45-0.3-0.65-0.5c-0.2-0.2-0.417-0.4-0.65-0.6c1.167,0.033,2.25,0.6,3.25,1.7c0.3,0.3,0.667,0.5,1.1,0.6
				c3.2,0.7,6.45,1.433,9.75,2.2c0.167,0.033,0.35-0.05,0.55-0.25C660.217-223.467,659.833-223.95,659.2-224.25z M188.75-180.55
				c0.343,0.468,0.526,0.952,0.55,1.45c0.392-0.326,0.525-0.942,0.4-1.85c-0.259-0.274-0.542-0.533-0.85-0.775
				C188.808-181.333,188.775-180.941,188.75-180.55z M702-146.1c6,0,10.667-0.333,14-1l-4.85-4.9c-1.733-1.167-4.117-1.533-7.15-1.1
				h-1c0.2-0.3,0.533-0.667,1-1.1l2-1.9c-2.3,0-5.816,0.333-10.55,1c-4.767,0.667-7.417,1-7.95,1c-0.467,0-3.35-0.333-8.65-1
				c-2.178-0.274-5.153-0.324-8.925-0.15c-4.83-0.739-9.488-1.889-13.975-3.45c0,1-0.15,1.55-0.45,1.65
				c-2.7,0.9-5.566,1.35-8.6,1.35c-6.267,0-12.3-0.6-18.1-1.8c-1.533-0.333-3.083-0.55-4.65-0.65c-4.867-0.4-4.95,0.367-0.25,2.3
				c-0.3,0.6-0.733,0.95-1.3,1.05c-2.467,0.4-4.95,0.617-7.45,0.65c-6.7,0.1-13.216-0.55-19.55-1.95
				c-1.067-0.233-2.133-0.483-3.2-0.75c-0.933-0.233-1.75-0.583-2.45-1.05c-2.634-1.833-4.217-1.583-4.75,0.75
				c-0.119,0.572-0.26,0.997-0.425,1.275c-0.653-0.483-1.278-1.008-1.875-1.575c-2.533-2.4-4.566-4.433-6.1-6.1
				c-1.3-1.4-2.2-2.883-2.7-4.45l-0.2-0.6c0.267,0.1,0.133-0.167-0.4-0.8c-0.9-1.1-1.967-2.067-3.2-2.9
				c-0.233-0.167-0.45-0.233-0.65-0.2c-0.833,0-1.3-0.3-1.4-0.9c-0.066-0.434-0.233-0.817-0.5-1.15c-0.566-0.667-1.2-1.25-1.9-1.75
				c-1.367-0.9-2.483-0.917-3.35-0.05c-0.3,0.3-0.6,0.5-0.9,0.6c-1.6,0.433-2.784,0.2-3.55-0.7c-0.167-0.233-0.366-0.383-0.6-0.45
				c-0.243-0.074-0.459-0.149-0.65-0.225c0.067,0.402,0.1,0.81,0.1,1.225c-1.833-0.3-3.483-1.083-4.95-2.35
				c-1.434-1.2-3.067-1.85-4.9-1.95c-0.133,0.434-0.333,0.684-0.6,0.75c-1.934,0.434-3.317,0-4.15-1.3c0.2,0.4,0.434,0.783,0.7,1.15
				c0.566,0.867,0.733,1.9,0.5,3.1c-4.467-3.5-9.533-5.367-15.2-5.6c-1.066-0.066-1.883-0.433-2.45-1.1c0,0.4,0,0.817,0,1.25
				c0.033,2.034-0.367,2.233-1.2,0.6c0,0.6,0,1.2,0,1.8c0,0.4-0.066,0.633-0.2,0.7c-1.233,0.5-2.384,0.45-3.45-0.15
				c-0.233-0.167-0.383-0.367-0.45-0.6c-0.3-1.167-0.8-1.767-1.5-1.8c-0.133,0.433-0.35,0.8-0.65,1.1
				c-0.533,0.5-1.083,0.983-1.65,1.45c-2.133,1.833-4.367,2.184-6.7,1.05c-0.233-0.133-0.466-0.284-0.7-0.45c-1-0.633-2-1.067-3-1.3
				c0,0.2-0.05,0.4-0.15,0.6c-0.1,0.233-0.233,0.467-0.4,0.7c-0.233,0.367-0.466,0.567-0.7,0.6c-1.4,0.2-2.817,0.05-4.25-0.45
				c-0.367-0.133-0.733-0.267-1.1-0.4c-1.267-0.5-2.517-1.05-3.75-1.65c0,0.4,0.033,0.8,0.1,1.2c0.2,0.867-0.033,1.284-0.7,1.25
				c-0.4,0-0.767-0.066-1.1-0.2c-1.533-0.633-2.583-1.383-3.15-2.25c0.267,1.1,0.083,1.767-0.55,2c-0.233,0.1-0.45,0.15-0.65,0.15
				c-0.2,0-0.4,0-0.6,0c-1.1,0.067-1.717-0.233-1.85-0.9c0,1-0.083,1.983-0.25,2.95c-0.033,0.233-0.167,0.383-0.4,0.45
				c-2.1,0.533-3.434-0.15-4-2.05c-1.434,1.867-3.333,3.475-5.7,4.825c1.485,0.012,2.918-0.196,4.3-0.625
				c0.367,1.133,0.733,2.25,1.1,3.35c0.067,0.133,0.3,0.2,0.7,0.2c0.933,0,1.817-0.284,2.65-0.85c0.934,1.2,1.633,2.117,2.1,2.75
				c0.267,0.367,0.567,0.65,0.9,0.85c0.3,0.2,0.65,0.3,1.05,0.3c0-0.8,0.2-1.4,0.6-1.8c0.176-0.205,0.351-0.397,0.525-0.575
				c-0.031,0.242-0.072,0.634-0.125,1.175c-0.133,1.5,0.167,2.434,0.9,2.8c0.367,0.167,0.75,0.217,1.15,0.15
				c0.667-0.067,1.117-0.433,1.35-1.1c0.1-0.233,0.267-0.433,0.5-0.6c1.267-0.833,2.267-1.867,3-3.1c0-0.534,0.083-0.133,0.25,1.2
				c0.033,0.434,0.167,0.833,0.4,1.2c1.1,1.867,2.383,3.867,3.85,6c0.6,0.867,1.316,1.533,2.15,2c0.967,0.533,2,0.917,3.1,1.15
				c-0.667-0.9-1.617-1.783-2.85-2.65c-0.333-0.267-0.55-0.617-0.65-1.05c-0.6-2.2-1.067-4.4-1.4-6.6c0.9,0.333,1.6,0.867,2.1,1.6
				c0.233,0.333,0.534,0.617,0.9,0.85c0.233,0.167,0.45,0.35,0.65,0.55c0.433-0.367,0.767-0.8,1-1.3c1.233-2.7,3.55-3.933,6.95-3.7
				c1.8,0.1,3.617,0.2,5.45,0.3c3.667,0.167,6.517,1.533,8.55,4.1c0.4-1,0.733-2.033,1-3.1c0.134-0.567,0.2-1.15,0.2-1.75
				c0.566,1.367,1.283,1.5,2.15,0.4c0.2-0.267,0.233-0.583,0.1-0.95c-0.066-0.233-0.217-0.45-0.45-0.65
				c0.934,0,1.817,0.317,2.65,0.95c0.5,0.367,1.05,0.633,1.65,0.8c1.8,0.434,3.417,1.067,4.85,1.9c0-0.833,0-1.65,0-2.45
				c0-0.2,0-0.4,0-0.6c1.033,0.567,2.05,0.983,3.05,1.25c3.066,0.767,5.55,2.117,7.45,4.05c0.3,0.3,0.45,0.767,0.45,1.4
				c0.167-1.067,0.6-1.817,1.3-2.25c0.633-0.4,1.4-0.9,2.3-1.5c0.233-0.167,0.45-0.35,0.65-0.55c0.2,0.833,0.6,1.467,1.2,1.9
				c0.233,0.167,0.466,0.267,0.7,0.3c0.967,0.167,1.95,0.167,2.95,0c0.233-0.033,0.45-0.133,0.65-0.3
				c0.934-0.8,1.684-0.767,2.25,0.1c0.934,1.3,1.75,2.684,2.45,4.15c0.466,0.966,1.033,1.85,1.7,2.65c0.2,0.233,0.367,0.533,0.5,0.9
				c0.067,0.233,0.117,0.467,0.15,0.7c0.026,0.17,0.051,0.337,0.075,0.5c-0.097,1.756-0.671,3.006-1.725,3.75
				c-2.331,1.661-4.523,3.328-6.575,5c0.696-0.22,1.405-0.42,2.125-0.6c0.6-0.167,1.183-0.434,1.75-0.8
				c0.966-0.633,1.95-1.2,2.95-1.7c0.664,0.312,1.222,0.804,1.675,1.475c0.7,1.039,1.142,2.514,1.325,4.425c0,0.1,0.5,0.15,1.5,0.15
				c3.034,0,6.034-0.217,9-0.65c0.567-0.1,1.1-0.4,1.6-0.9c2.867,4.5,7.9,7,15.1,7.5c0.5,0.033,1,0.05,1.5,0.05
				c-1-1.5-2.117-2.883-3.35-4.15c-0.466-1.867,0.15-1.983,1.85-0.35c1.033,0.967,2.483,1.717,4.35,2.25
				c1.667,0.5,3.267,1.217,4.8,2.15c2.733,1.6,5.733,2.15,9,1.65c-2.867-2.7-6.316-4.934-10.35-6.7c-1.5-0.567-0.6-0.633,2.7-0.2
				c0.566,0.067,1.15,0.217,1.75,0.45c3.667,1.433,7.633,1.883,11.9,1.35c1.034-0.133,2.067-0.267,3.1-0.4
				c4.267-0.534,8.233-0.1,11.9,1.3c1.934,0.733,3.983,0.967,6.15,0.7c2.238-0.3,3.338,0.425,3.3,2.175
				c0.279-0.218,0.596-0.459,0.95-0.725c4,1.4,7.8,3.35,11.4,5.85c0.7,0.467,1.533,0.633,2.5,0.5c2.566-0.333,3.417-2.233,2.55-5.7
				c-0.167-0.6-0.5-1.15-1-1.65c1.554,0.906,3.17,1.564,4.85,1.975c0.15,0.034,0.3,0.068,0.45,0.1c0.379,0.08,0.763,0.146,1.15,0.2
				c1.088-0.871,2.13-1.754,3.125-2.65c2.574,1.129,4.382,2.254,5.425,3.375c0-2.646-0.375-3.979-1.125-4
				c0.725,0.003,1.6,0.169,2.625,0.5c1,0.333,1.833,0.5,2.5,0.5v-5c0.5,1.133,2.267,2,5.3,2.6c1.7,0.333,4.267,0.8,7.7,1.4h13v-1
				c-2,0-3.667-0.333-5-1V-146.1z M687.7-161.7c0.623,0.045,1.198,0.136,1.725,0.275c0.264-0.327,0.522-0.652,0.775-0.975
				c-0.034-0.029-0.067-0.062-0.1-0.1c-1.6-1.867-2.9-1.617-3.9,0.75C686.7-161.75,687.2-161.733,687.7-161.7z M684.875-214.425
				c-0.561-0.254-1.136-0.513-1.725-0.775c0.402,0.719,0.702,1.436,0.9,2.15C684.366-213.483,684.641-213.941,684.875-214.425z
				 M495.675-116.675c-0.092-0.025-0.184-0.05-0.275-0.075c0.239,0,0.481,0,0.725,0c0.756,0,1.514,0,2.275,0c0.267,0,0.517,0,0.75,0
				c-0.095-0.102-0.195-0.194-0.3-0.275c-0.409-0.313-0.925-0.521-1.55-0.625c-0.133-0.033-0.267-0.117-0.4-0.25
				c1.886-0.393,3.769-0.785,5.65-1.175c-0.094-0.021-0.194-0.046-0.3-0.075c-0.167-0.067-0.317-0.133-0.45-0.2
				c-0.767-0.5-1.633-1.033-2.6-1.6c-0.133-0.1-0.284-0.2-0.45-0.3c-0.833-0.567-1.583-0.933-2.25-1.1
				c-0.037-0.011-0.07-0.019-0.1-0.025c-0.069,0.083-0.153,0.125-0.25,0.125c-2.033,0.133-4.05,0.2-6.05,0.2
				c2.1,0.4,3.617,1.15,4.55,2.25c-0.9,0.4-1.917,0.566-3.05,0.5c-0.058-0.004-0.116-0.004-0.175,0
				c0.117,0.227,0.175,0.443,0.175,0.65c0,0.533-0.083,0.85-0.25,0.95c-0.267,0.034-0.517,0.1-0.75,0.2h-4.55
				c0-0.067-0.25-0.1-0.75-0.1c-0.066-0.233-0.133-0.367-0.2-0.4c-0.031-0.031-0.048-0.264-0.05-0.7
				c-0.197-0.098-0.397-0.214-0.6-0.35c-0.1,0.8-0.733,1.083-1.9,0.85c-0.233-0.066-0.45-0.15-0.65-0.25
				c-0.233-0.133-0.433-0.3-0.6-0.5c-0.167-0.2-0.367-0.267-0.6-0.2c-0.567,0.1-1.217,0.233-1.95,0.4
				c-0.967,0.267-1.6,0.167-1.9-0.3c0-0.267,0.066-0.45,0.2-0.55c0.567-0.533,1.017-1.1,1.35-1.7c-0.267,0-0.517,0.033-0.75,0.1
				c-1.066,0.367-1.7,0.467-1.9,0.3c0.133-0.133,0.25-0.4,0.35-0.8c-1.167,0.067-2.417,0.067-3.75,0c-0.233,0-0.45-0.05-0.65-0.15
				c-0.967-0.5-1.517-0.183-1.65,0.95c-0.6-0.4-1.483-0.567-2.65-0.5c-1.133,0.066-2.267,0.15-3.4,0.25
				c-1.222,0.122-1.956-0.228-2.2-1.05c0.129,0.697-0.137,1.03-0.8,1c-0.767-0.066-1.517-0.15-2.25-0.25
				c-0.233-0.033-0.45-0.15-0.65-0.35c-0.667-0.733-1-0.784-1-0.15c0.4,0.5,0.566,1.1,0.5,1.8c-0.8,0.1-1.567,0.017-2.3-0.25
				c-0.333-0.1-0.667-0.233-1-0.4c-0.7-0.333-1.483-0.55-2.35-0.65c-0.7-0.066-1.1,0.317-1.2,1.15c-0.733,0.1-1.45,0.1-2.15,0
				c-0.167-0.034-0.333-0.1-0.5-0.2c-0.934-0.467-1.7-0.883-2.3-1.25c-0.233,0.333-0.583,0.617-1.05,0.85
				c-0.133-0.133-0.267-0.267-0.4-0.4c-0.467-0.534-0.967-1.034-1.5-1.5c0,0.233-0.033,0.466-0.1,0.7
				c-0.067,0.267-0.15,0.533-0.25,0.8c-0.4,0-0.85-0.133-1.35-0.4c-0.129-0.969-0.196-1.344-0.2-1.125v0.025
				c0.033,0.7-0.117,1.3-0.45,1.8c-0.833,1.233-2.05,2.175-3.65,2.825c0.356-0.128,0.723-0.287,1.1-0.475
				c1.267-0.667,2.15-1.417,2.65-2.25c0,0.767,0,1.517,0,2.25c0.566,0.333,0.95,0.2,1.15-0.4c0,0.584,0,1.168,0,1.75
				c1.399-0.298,2.716-0.815,3.95-1.55c0,0.233,0,0.483,0,0.75c0,0.067,0,0.133,0,0.2c0.367-0.033,0.633-0.2,0.8-0.5
				c0.267,0.167,0.367,0.467,0.3,0.9c0,0.067,0,0.133,0,0.2c0.467,0.066,0.75-0.067,0.85-0.4c0.8,0.733,1.65,1.25,2.55,1.55
				c0.133,0.033,0.267,0.083,0.4,0.15c0.233,0.133,0.483,0.2,0.75,0.2c0.033-0.4-0.083-0.717-0.35-0.95
				c-0.467-0.4-0.833-0.967-1.1-1.7c-0.033-0.066-0.05-0.133-0.05-0.2c0.467,0.467,1.017,1.05,1.65,1.75
				c0.2,0.2,0.417,0.35,0.65,0.45c0.1,0.034,0.217,0.067,0.35,0.1s0.25,0.083,0.35,0.15c0.033-0.5-0.067-0.883-0.3-1.15
				c-0.1-0.1-0.183-0.217-0.25-0.35c0.5,0.434,1.217,0.833,2.15,1.2c0.167,0.067,0.333,0.117,0.5,0.15
				c1.133,0.2,2.333,0.267,3.6,0.2c0.5-0.033,1-0.067,1.5-0.1c0.367-0.033,0.583-0.267,0.65-0.7c0.033-0.233,0.133-0.367,0.3-0.4
				c0.067-0.033,0.133-0.066,0.2-0.1c0.1-0.233,0.133-0.133,0.1,0.3c0,0.066-0.033,0.133-0.1,0.2c-0.067,0.067-0.133,0.133-0.2,0.2
				c0.3-0.133,0.683-0.317,1.15-0.55c0.133-0.067,0.25-0.133,0.35-0.2c0.233,0.1,0.333,0.35,0.3,0.75
				c-0.033,0.2,0.117,0.283,0.45,0.25c0.333-0.067,0.667-0.067,1,0c0.233,0.067,0.467,0.117,0.7,0.15
				c0.367,0.033,0.633-0.066,0.8-0.3c0.033-0.067,0.017-0.167-0.05-0.3c0.433,0.367,0.95,0.517,1.55,0.45
				c0.267-0.033,0.517-0.05,0.75-0.05c0-0.5-0.15-0.867-0.45-1.1c-0.133-0.133-0.033-0.1,0.3,0.1c0.333,0.167,0.7,0.3,1.1,0.4
				c0.6,0.1,1.216,0.133,1.85,0.1c0.4,0,0.467-0.15,0.2-0.45c0.533-0.033,1.033,0,1.5,0.1c0.333,0.066,0.65,0.083,0.95,0.05
				c0.2-0.033,0.383-0.1,0.55-0.2c0.2-0.1,0.383,0,0.55,0.3c0.034,0.067,0.067,0.167,0.1,0.3c0.1,0.7-0.033,1.167-0.4,1.4
				c-0.1,0.066-0.167,0.167-0.2,0.3c0.133,0.233,0.434,0.317,0.9,0.25c0.267-0.033,0.533-0.083,0.8-0.15
				c0.267-0.033,0.45,0.066,0.55,0.3c0.267,0.5,0.767,0.817,1.5,0.95c0.8,0.1,1.617,0.15,2.45,0.15c-0.333-0.367-0.667-0.667-1-0.9
				c0.133-0.1,0.4,0.017,0.8,0.35c0.067,0.066,0.133,0.117,0.2,0.15c0.5,0.333,1.067,0.517,1.7,0.55c0.2,0.033,0.4,0.05,0.6,0.05
				c0.067-0.133,0.067-0.217,0-0.25c-0.2-0.333-0.466-0.617-0.8-0.85c-0.4-0.3-0.767-0.617-1.1-0.95c1.167,0.6,2.483,0.85,3.95,0.75
				c0.133,0,0.267-0.017,0.4-0.05c0.067-0.033,0.133-0.083,0.2-0.15c-0.2-0.333-0.517-0.583-0.95-0.75
				c0.603-0.039,1.194-0.055,1.775-0.05c0.188,0.009,0.371,0.017,0.55,0.025c1.274,0.059,2.516,0.233,3.725,0.525
				c0.133,0.033,0.25,0.05,0.35,0.05c-0.367-0.333-0.867-0.7-1.5-1.1c-0.133-0.1-0.267-0.167-0.4-0.2
				c1.033,0.2,2.117,0.283,3.25,0.25c0.3,0,0.6,0.017,0.9,0.05c0.567,0.1,1.033,0.067,1.4-0.1c0.1-0.033,0.2-0.066,0.3-0.1
				C494.952-116.533,495.311-116.608,495.675-116.675z M491.075-169.125c0.05-0.372,0.075-0.397,0.075-0.075
				C491.125-169.176,491.101-169.151,491.075-169.125z M383.9-129.6c1.267-1.066,1.85-0.816,1.75,0.75c0,0.1-0.017,0.233-0.05,0.4
				c-0.1,0.467-0.184,0.967-0.25,1.5c-0.1,0.667,0.05,1.034,0.45,1.1c0.3-0.267,0.517-0.767,0.65-1.5
				c0.066-0.367,0.15-0.733,0.25-1.1c0.066-0.267,0.117-0.533,0.15-0.8c0.3,0.033,0.6,0.117,0.9,0.25
				c0.333,0.133,0.467-0.067,0.4-0.6c-0.2-1.133,0.15-1.767,1.05-1.9c0.2,0.433,0.583,0.933,1.15,1.5
				c0.633-0.267,1.05-0.883,1.25-1.85c0.667-0.267,1.167-0.167,1.5,0.3c0.633,0.867,1.467,0.966,2.5,0.3c0.3-0.2,0.583-0.4,0.85-0.6
				c0.367-0.267,0.716-0.4,1.05-0.4c0.133-0.033,0.3,0.067,0.5,0.3c1.767,1.9,4.017,3.25,6.75,4.05c0.367,0.1,0.733,0.183,1.1,0.25
				c2.767,0.367,5.65,0.6,8.65,0.7c-1.8-0.5-3.533-1.4-5.2-2.7c-0.5-0.4-0.9-0.9-1.2-1.5c1.233,0.967,2.617,1.417,4.15,1.35
				c0.133,0,0.25-0.083,0.35-0.25c0.196-0.279,0.421-0.479,0.675-0.6l0.025-0.025c0.553-0.291,1.236-0.232,2.05,0.175
				c0.168,0.083,0.334,0.166,0.5,0.25c1.671,0.761,3.354,1.277,5.05,1.55c0.5,0.067,0.8,0.25,0.9,0.55
				c0.067,0.133,0.117,0.283,0.15,0.45c0.163,0.591,0.146,1.049-0.05,1.375c0.047,0.091,0.097,0.199,0.15,0.325
				c0.034,0.1,0.15,0.183,0.35,0.25c0.167,0.067,0.333,0.117,0.5,0.15c1.233,0.233,1.717-0.35,1.45-1.75c0.9,0.633,1.9,1.017,3,1.15
				c0.433-0.4,0.566-0.917,0.4-1.55c0.767,0.267,1.517,0.533,2.25,0.8c0.267,0.1,0.517,0.184,0.75,0.25c0.433,0.1,0.533-0.1,0.3-0.6
				c-0.066-0.167-0.167-0.317-0.3-0.45c0.533,0.267,1.033,0.45,1.5,0.55c1.367,0.3,2.783,0.567,4.25,0.8
				c1.467,0.267,2.95,0.45,4.45,0.55c-0.9-0.367-1.9-0.867-3-1.5c0.4-0.566,1.066-0.617,2-0.15c0.2,0.1,0.417,0.167,0.65,0.2
				c1.133,0.133,2.267,0.25,3.4,0.35c-1-0.8-2.317-1.583-3.95-2.35c-0.4-0.2-0.85-0.35-1.35-0.45
				c-0.233-0.033-0.483-0.117-0.75-0.25c-0.327-0.207-0.627-0.398-0.9-0.575c-0.71,0.308-1.543,0.367-2.5,0.175
				c-1.233-0.267-2.5-0.65-3.8-1.15c-0.233-0.1-0.483-0.2-0.75-0.3c-0.475-0.184-0.809-0.342-1-0.475
				c-0.011,0.11-0.044,0.235-0.1,0.375c-0.566,0.434-1.2,0.633-1.9,0.6c-1.167-0.033-2.317-0.167-3.45-0.4
				c-2.3-0.5-3.466-0.6-3.5-0.3c-1.466-0.967-2.433-1.467-2.9-1.5c-0.205-0.02-0.405-0.045-0.6-0.075
				c-1.132-0.204-2.165-0.645-3.1-1.325c-0.167-0.1-0.333-0.183-0.5-0.25c-0.2-0.066-0.467,0.034-0.8,0.3
				c-1.2,0.367-2.167,0.367-2.9,0c-0.233-0.133-0.4-0.3-0.5-0.5c0-0.1-0.35-0.117-1.05-0.05c-1.133,0.1-2.333,0.034-3.6-0.2
				c-0.067-0.767-0.617-1.05-1.65-0.85c-0.367,0.067-0.65,0.2-0.85,0.4c-0.2,0.2-0.55,0.283-1.05,0.25
				c-2.033-0.133-4.05-0.15-6.05-0.05c-0.367,0.033-0.75,0.05-1.15,0.05c-1.967-0.066-3.75,0.2-5.35,0.8
				c-1.233,0.433-2.467,0.466-3.7,0.1c-0.267-0.066-0.517-0.167-0.75-0.3l-0.35-0.25c-0.167,0.633-0.684,0.817-1.55,0.55
				c-1.267-0.367-2.5-0.783-3.7-1.25c-0.2,0.1-0.4,0.233-0.6,0.4c-0.434,0.433-1.15,0.667-2.15,0.7c-1.333,0-2.467-0.566-3.4-1.7
				c-0.1,0.267-0.233,0.5-0.4,0.7c-0.1,0.167-0.167,0.317-0.2,0.45c-0.067,0.833-0.6,1.15-1.6,0.95c-0.133-0.033-0.267-0.1-0.4-0.2
				c-0.467-0.434-0.733-0.567-0.8-0.4c0,0.633-0.033,1.267-0.1,1.9c-0.033,0.233-0.15,0.383-0.35,0.45c-0.8,0.2-1.367-0.167-1.7-1.1
				c-0.167,0.167-0.35,0.35-0.55,0.55c-0.633,0.7-0.983,0.617-1.05-0.25c-0.167,1.133-0.783,2.033-1.85,2.7
				c-0.466,0.3-0.983,0.383-1.55,0.25c-1.055-0.211-1.672-0.011-1.85,0.6c0.981,0.09,1.981,0.124,3,0.1
				c1.367-0.033,2.5-0.25,3.4-0.65c-0.2,1.2,0.284,1.65,1.45,1.35c0.167-0.033,0.317-0.083,0.45-0.15c0.833-0.467,1.45-1,1.85-1.6
				c0.267,1.233,1,1.467,2.2,0.7c0.267-0.2,0.417-0.55,0.45-1.05c1.733,1.667,3.85,2.183,6.35,1.55
				c0.067-0.033,0.117-0.167,0.15-0.4c0.091-0.382,0.091-0.674,0-0.875c0.626,0.351,1.343,0.459,2.15,0.325
				c0.167-0.033,0.25-0.133,0.25-0.3c0.1-0.333,0.15-0.683,0.15-1.05c0.667,0.667,1.283,1.617,1.85,2.85
				c0.066,0.1,0.2,0.117,0.4,0.05C383.667-129.417,383.8-129.5,383.9-129.6z M408.2-195.425c-0.201,0.124-0.401,0.249-0.6,0.375
				c-0.3,0.167-0.617,0.35-0.95,0.55c-0.856,0.501-1.731,0.902-2.625,1.2h0.025c0.434,0.167,0.9,0.25,1.4,0.25
				c1.867,0,3.75,0.05,5.65,0.15c0.267,0,0.533,0.066,0.8,0.2c-0.033,0.333-0.283,0.617-0.75,0.85c-0.133,0.067-0.267,0.167-0.4,0.3
				c-0.033,0.267,0.2,0.25,0.7-0.05c0.167-0.1,0.316-0.217,0.45-0.35c0.233,0.534,0.467,1.05,0.7,1.55
				c0.167,0.367,0.3,0.733,0.4,1.1c0.667,0,0.983-0.367,0.95-1.1c0-0.133,0.066-0.267,0.2-0.4c0.767,0.5,1.517,1.383,2.25,2.65
				c0.5,0.9,1.25,1.566,2.25,2c0.4,0.167,0.783,0.383,1.15,0.65c1.267,0.767,1.9,0.517,1.9-0.75c0.066-0.2,0.417-0.033,1.05,0.5
				c0.2,0.133,0.383,0.283,0.55,0.45c0.667,0.566,1.4,1.25,2.2,2.05c1.933,1.933,4.2,3.2,6.8,3.8c0-0.8-0.333-1.483-1-2.05
				c-0.333-0.3-0.65-0.617-0.95-0.95c-0.1-0.167-0.217-0.3-0.35-0.4c1.467,0.767,2.883,1.733,4.25,2.9
				c0.733,0.633,1.567,1.1,2.5,1.4c2.367,0.8,4.783,1.383,7.25,1.75c-0.033-0.733-0.4-1.184-1.1-1.35
				c-0.367-0.133-0.133-0.15,0.7-0.05c0.133,0.034,0.283,0.083,0.45,0.15c2.5,0.9,5.133,1.566,7.9,2
				c-0.267-0.534-0.75-0.967-1.45-1.3c0.333-0.667,0.933-0.767,1.8-0.3c1.233,0.667,2.617,0.95,4.15,0.85
				c-0.267-0.467-0.733-0.9-1.4-1.3c2.4,0.267,4.784,0.767,7.15,1.5l1.95-1.7c-0.388-0.525-0.788-1.042-1.2-1.55
				c-1.282-0.648-2.582-1.265-3.9-1.85c-0.333-0.167-0.667-0.35-1-0.55c-0.667-0.467-1.216-0.433-1.65,0.1
				c-0.1,0.133-0.217,0.217-0.35,0.25c-1.867,0.333-3.483,0-4.85-1c-1.133-0.833-2.034-1.583-2.7-2.25c0,0.233-0.05,0.4-0.15,0.5
				c-0.3,0.167-0.367,0.517-0.2,1.05c-0.267,0-0.617-0.05-1.05-0.15c-0.767,0.333-1.3,0.883-1.6,1.65c0-0.267-0.033-0.5-0.1-0.7
				c-0.3-0.867-0.883-1.2-1.75-1c-0.967,0.2-1.867-0.117-2.7-0.95c-0.633-0.667-1.35-1.067-2.15-1.2
				c0.434,0.567,0.65,1.217,0.65,1.95c-0.267-0.1-0.467-0.267-0.6-0.5c-0.633-0.967-1.283-1.833-1.95-2.6
				c-0.967-1.133-2.133-1.733-3.5-1.8c-0.233,0-0.383,0.05-0.45,0.15c-0.333,0.9-1.067,1.233-2.2,1
				c-0.233-0.033-0.433-0.117-0.6-0.25c-0.7-0.6-1-0.783-0.9-0.55c0,0.133,0.017,0.267,0.05,0.4c0.2,1.033,0.434,2.033,0.7,3
				c-0.733-0.4-1.367-0.767-1.9-1.1c-2.434-1.533-4.25-3.183-5.45-4.95c0.033,0.833-0.25,1.317-0.85,1.45
				c-0.566-0.767-0.983-1.617-1.25-2.55c-0.167,0.233-0.283,0.483-0.35,0.75c-0.367,1.133-1.267,1.883-2.7,2.25
				c0-0.267,0.033-0.5,0.1-0.7c0.066-0.167,0.117-0.317,0.15-0.45c0.3-0.933,0.217-1.55-0.25-1.85c-0.1,0.1-0.167,0.216-0.2,0.35
				c-0.066,0.434-0.367,0.567-0.9,0.4c0-0.267-0.017-0.517-0.05-0.75c-0.1-0.5-0.3-0.9-0.6-1.2c-0.2-0.233-0.35-0.333-0.45-0.3
				c-0.566,0.1-1.083,0.35-1.55,0.75c-0.133-0.267-0.233-0.55-0.3-0.85c-0.133-0.4-0.467-0.567-1-0.5
				c-0.133-0.367-0.317-0.85-0.55-1.45C410.669-195.659,409.437-195.517,408.2-195.425z M430.475-115.175
				c0.353,0.257,0.761,0.432,1.225,0.525c0.833,0.2,1.6,0.45,2.3,0.75c-0.067,0.3-0.2,0.6-0.4,0.9c-0.067,0.067-0.133,0.1-0.2,0.1
				c-0.9,0.066-1.783,0.1-2.65,0.1c-0.372,0-0.73-0.034-1.075-0.1c-0.017-0.005-0.033-0.014-0.05-0.025
				c-0.042-0.006-0.084-0.015-0.125-0.025c-0.032-0.007-0.065-0.015-0.1-0.025c-0.237-0.051-0.479-0.102-0.725-0.15
				c-1.231-0.229-2.49-0.37-3.775-0.425c1.147,0.334,2.289,0.718,3.425,1.15c0.207,0.083,0.415,0.166,0.625,0.25
				c0.035,0.021,0.077,0.038,0.125,0.05l0.025,0.025c0.186,0.073,0.369,0.148,0.55,0.225c-0.222,0-0.455,0-0.7,0h-0.05
				c-0.044,0-0.086,0-0.125,0c-0.23-0.005-0.464-0.022-0.7-0.05c-0.109-0.016-0.218-0.032-0.325-0.05
				c-1.6-0.233-3.183-0.533-4.75-0.9c-0.167-0.066-0.333-0.15-0.5-0.25c-0.433-0.267-0.7-0.283-0.8-0.05
				c0.133,0.033,0.233,0.1,0.3,0.2c0.2,0.3,0.283,0.667,0.25,1.1c-0.1,0-0.217-0.017-0.35-0.05c-0.733-0.167-1.3-0.467-1.7-0.9
				c0,0.066-0.017,0.133-0.05,0.2c-0.033,0.067-0.05,0.133-0.05,0.2c0,0.367-0.167,0.55-0.5,0.55c-0.1-0.2-0.217-0.383-0.35-0.55
				c-0.067-0.067-0.117-0.133-0.15-0.2c-0.1-0.3-0.25-0.55-0.45-0.75c-0.154,0.309-0.388,0.584-0.7,0.825
				c-0.168,0.28-0.435,0.438-0.8,0.475c-0.108,0.01-0.225,0.01-0.35,0c0-0.267,0.017-0.517,0.05-0.75c0.1-0.5,0.2-1,0.3-1.5
				c-0.456,0.969-0.981,1.936-1.575,2.9c-0.11,0.169-0.219,0.335-0.325,0.5c-0.171,0.256-0.354,0.489-0.55,0.7
				c0.538-0.359,1.104-0.693,1.7-1c0.067-0.033,0.133-0.05,0.2-0.05c-0.3,0.067-0.434,0.317-0.4,0.75
				c0.466-0.1,0.867-0.283,1.2-0.55c0.133,0.4,0.083,0.783-0.15,1.15c-0.133,0.2-0.267,0.383-0.4,0.55
				c-0.3,0.434-0.783,0.783-1.45,1.05c-0.5,0.2-1,0.45-1.5,0.75c-0.133,0.1-0.283,0.2-0.45,0.3c-0.2,0.1-0.1,0.167,0.3,0.2
				c0.267,0.033,0.533-0.034,0.8-0.2c0.534-0.367,1.133-0.667,1.8-0.9c0.233-0.067,0.433-0.167,0.6-0.3
				c0.733-0.433,1.25-0.933,1.55-1.5c0.167,0.133,0.25,0.383,0.25,0.75c0,0.067,0.033,0.133,0.1,0.2c0.6-0.3,1.05-0.683,1.35-1.15
				c0.066-0.067,0.117-0.133,0.15-0.2c0.233,0.2,0.467,0.483,0.7,0.85c0.067,0.067,0.15,0.117,0.25,0.15
				c0.133,0.033,0.267,0.083,0.4,0.15c0-0.3,0-0.617,0-0.95c0-0.067,0-0.133,0-0.2c0-0.133,0.033,0,0.1,0.4
				c0,0.067,0.034,0.133,0.1,0.2c0.367,0.233,0.733,0.433,1.1,0.6c0.067,0.033,0.133,0.083,0.2,0.15
				c-0.2-0.733-0.434-1.483-0.7-2.25c-0.033-0.067-0.05-0.133-0.05-0.2c-0.034-0.066,0.167,0.1,0.6,0.5c1,1.067,2.25,1.667,3.75,1.8
				c0.267,0.033,0.517,0.083,0.75,0.15c0.124,0.031,0.24,0.064,0.35,0.1c0.023-0.018,0.048-0.035,0.075-0.05
				c-0.049-0.024-0.099-0.049-0.15-0.075c-0.215-0.032-0.373-0.074-0.475-0.125c-0.149-0.05-0.241-0.225-0.275-0.525
				c-0.027-0.021-0.053-0.046-0.075-0.075c-0.133-0.133-0.267-0.267-0.4-0.4c-0.333-0.367-0.7-0.6-1.1-0.7
				c-0.133-0.033-0.267-0.117-0.4-0.25c0.725,0.215,1.466,0.423,2.225,0.625l0.175-0.275c0.024-0.022,0.049-0.04,0.075-0.05
				l-0.05-0.05l0.075,0.025c0.541-0.45,1.44-0.675,2.7-0.675c0.372,0,1.33,0.267,2.875,0.8c0.038-0.514-0.137-0.831-0.525-0.95
				c0.533,0.133,1.1,0.2,1.7,0.2c0.133,0,0.267,0,0.4,0c-0.1-0.4-0.367-0.667-0.8-0.8c-0.034-0.033-0.083-0.083-0.15-0.15h0.55
				c0.4,0,0.783,0,1.15,0c-0.3-0.333-0.817-0.583-1.55-0.75c0.733-0.733,1.683-1.184,2.85-1.35c0.8-0.133,1.617-0.183,2.45-0.15H440
				c-0.233-0.267-0.55-0.483-0.95-0.65c-0.1-0.034-0.216-0.083-0.35-0.15c-0.329-0.232-0.679-0.424-1.05-0.575
				c-0.114,0.049-0.23,0.091-0.35,0.125c-1.633,0.566-3.316,0.85-5.05,0.85C431.639-115.05,431.048-115.092,430.475-115.175z
				 M289.75-189.55c-0.2-0.24-0.208-0.449-0.025-0.625c-0.265-0.186-0.589-0.186-0.975,0
				C289.08-189.971,289.413-189.763,289.75-189.55z M215.75-172.3c0.533,1.367,1.533,2.05,3,2.05c0.267,0,2.567-0.5,6.9-1.5
				c4.367-1,7.9-1.5,10.6-1.5v-4c1.333,0,5.267,0.667,11.8,2c3.3,0.667,6.534,1.333,9.7,2c0.767,0,2.717-0.683,5.85-2.05
				c2.132-0.935,4.049-1.668,5.75-2.2c-2.298-0.295-5.365-0.878-9.2-1.75c-5.833-1.333-9.3-2-10.4-2c-0.4,0-2.117-0.167-5.15-0.5
				s-6.483-0.5-10.35-0.5c0,1.333-0.033,2.283-0.1,2.85c-0.167,1-0.467,1.717-0.9,2.15c-0.667,0-1.667-0.167-3-0.5s-2.333-0.5-3-0.5
				c0,2-0.333,3-1,3l-3-3c-0.133,0.7-0.717,1.483-1.75,2.35c-1.067,0.867-2.15,1.417-3.25,1.65c0-0.333-0.167-0.833-0.5-1.5
				c-0.327-0.654-0.494-1.146-0.5-1.475c-0.005,0.386-0.172,0.661-0.5,0.825l-0.5,0.15c-0.667,0.4-1.117,0.717-1.35,0.95
				c-0.104,0.08-0.196,0.18-0.275,0.3c-0.09,0.134-0.165,0.292-0.225,0.475C214.938-174.008,215.388-173.266,215.75-172.3z"/>
			<path style="fill-rule:evenodd;clip-rule:evenodd;fill:#3A560C;" d="M484.05-113c-0.233-0.133-0.483-0.25-0.75-0.35
				c0.256-0.016,0.515-0.024,0.775-0.025c0.036-0.524,0.178-0.649,0.425-0.375l0.05-0.15c0.133-0.067,0.467-0.1,1-0.1
				c0.333,0,0.833,0.1,1.5,0.3c0.5,0.145,0.95,0.329,1.35,0.55c0.322,0.04,0.639,0.09,0.95,0.15c0.6,0.133,1.1,0.383,1.5,0.75
				c0.133,0.133,0.267,0.267,0.4,0.4c0.1-0.5,0.183-1,0.25-1.5c0.067-0.467-0.15-0.85-0.65-1.15c0.967,0.267,1.967,0.467,3,0.6
				c0.867,0.1,1.7,0.083,2.5-0.05c-1.033-0.4-0.983-0.566,0.15-0.5c1.133,0.1,2.267,0.2,3.4,0.3c0.367,0.033,0.75,0.05,1.15,0.05
				c-0.867-0.033-1.533-0.267-2-0.7c-0.906-0.844-2.031-1.469-3.375-1.875c-0.364,0.067-0.723,0.142-1.075,0.225
				c-0.1,0.034-0.2,0.067-0.3,0.1c-0.367,0.167-0.833,0.2-1.4,0.1c-0.3-0.033-0.6-0.05-0.9-0.05c-1.133,0.033-2.217-0.05-3.25-0.25
				c0.133,0.033,0.267,0.1,0.4,0.2c0.633,0.4,1.133,0.767,1.5,1.1c-0.1,0-0.217-0.017-0.35-0.05
				c-1.208-0.292-2.45-0.467-3.725-0.525c-0.179-0.008-0.362-0.016-0.55-0.025c-0.581-0.005-1.172,0.012-1.775,0.05
				c0.433,0.167,0.75,0.417,0.95,0.75c-0.067,0.066-0.133,0.117-0.2,0.15c-0.133,0.033-0.267,0.05-0.4,0.05
				c-1.467,0.1-2.783-0.15-3.95-0.75c0.333,0.333,0.7,0.65,1.1,0.95c0.333,0.233,0.6,0.517,0.8,0.85c0.067,0.033,0.067,0.117,0,0.25
				c-0.2,0-0.4-0.017-0.6-0.05c-0.633-0.033-1.2-0.217-1.7-0.55c-0.067-0.033-0.133-0.083-0.2-0.15c-0.4-0.333-0.667-0.45-0.8-0.35
				c0.333,0.233,0.667,0.533,1,0.9c-0.833,0-1.65-0.05-2.45-0.15c-0.733-0.133-1.233-0.45-1.5-0.95c-0.1-0.233-0.283-0.333-0.55-0.3
				c-0.267,0.066-0.533,0.117-0.8,0.15c-0.467,0.067-0.767-0.017-0.9-0.25c0.034-0.133,0.1-0.233,0.2-0.3
				c0.367-0.233,0.5-0.7,0.4-1.4c-0.033-0.133-0.066-0.233-0.1-0.3c-0.167-0.3-0.35-0.4-0.55-0.3c-0.167,0.1-0.35,0.167-0.55,0.2
				c-0.3,0.033-0.617,0.017-0.95-0.05c-0.467-0.1-0.967-0.133-1.5-0.1c0.267,0.3,0.2,0.45-0.2,0.45c-0.633,0.033-1.25,0-1.85-0.1
				c-0.4-0.1-0.767-0.233-1.1-0.4c-0.333-0.2-0.434-0.233-0.3-0.1c0.3,0.233,0.45,0.6,0.45,1.1c-0.233,0-0.483,0.017-0.75,0.05
				c-0.6,0.067-1.117-0.083-1.55-0.45c0.066,0.133,0.083,0.233,0.05,0.3c-0.167,0.233-0.433,0.333-0.8,0.3
				c-0.233-0.033-0.467-0.083-0.7-0.15c-0.333-0.067-0.667-0.067-1,0c-0.333,0.033-0.483-0.05-0.45-0.25
				c0.034-0.4-0.066-0.65-0.3-0.75c-0.1,0.067-0.217,0.133-0.35,0.2c-0.467,0.233-0.85,0.417-1.15,0.55
				c0.067-0.067,0.133-0.133,0.2-0.2c0.066-0.066,0.1-0.133,0.1-0.2c0.034-0.434,0-0.533-0.1-0.3c-0.067,0.034-0.133,0.067-0.2,0.1
				c-0.167,0.033-0.267,0.167-0.3,0.4c-0.067,0.434-0.284,0.667-0.65,0.7c-0.5,0.033-1,0.067-1.5,0.1c-1.267,0.066-2.466,0-3.6-0.2
				c-0.167-0.033-0.333-0.083-0.5-0.15c-0.934-0.367-1.65-0.767-2.15-1.2c0.067,0.133,0.15,0.25,0.25,0.35
				c0.233,0.267,0.333,0.65,0.3,1.15c-0.1-0.066-0.217-0.117-0.35-0.15s-0.25-0.066-0.35-0.1c-0.233-0.1-0.45-0.25-0.65-0.45
				c-0.633-0.7-1.183-1.283-1.65-1.75c0,0.066,0.017,0.133,0.05,0.2c0.267,0.733,0.633,1.3,1.1,1.7
				c0.267,0.233,0.383,0.55,0.35,0.95c-0.267,0-0.517-0.067-0.75-0.2c-0.133-0.067-0.267-0.117-0.4-0.15
				c-0.9-0.3-1.75-0.817-2.55-1.55c-0.1,0.333-0.383,0.467-0.85,0.4c0-0.067,0-0.133,0-0.2c0.067-0.433-0.033-0.733-0.3-0.9
				c-0.167,0.3-0.433,0.467-0.8,0.5c0-0.067,0-0.133,0-0.2c0-0.267,0-0.517,0-0.75c-1.234,0.735-2.551,1.252-3.95,1.55
				c0,0.051,0,0.101,0,0.15c0,0.133,0,0.267,0,0.4c0.867-0.4,1.733-0.783,2.6-1.15c0,1.233-0.383,2.1-1.15,2.6
				c-0.2,0.133-0.4,0.3-0.6,0.5c-0.2,0.2-0.367,0.433-0.5,0.7l0.8-0.3c0.233-0.067,0.467-0.117,0.7-0.15
				c1.533-0.3,2.667-0.784,3.4-1.45c0.167,0.467,0.383,0.867,0.65,1.2c0.934,0.433,1.417,0.283,1.45-0.45
				c0-0.133,0.017-0.283,0.05-0.45c0.067-0.367,0.367-0.466,0.9-0.3c1.167,1.867,3.05,3,5.65,3.4c-0.034-0.7-0.267-1.217-0.7-1.55
				c-0.367-0.267-0.567-0.633-0.6-1.1c0-0.133-0.05-0.283-0.15-0.45c1.267,0.833,2.783,1.583,4.55,2.25
				c0.233,0.067,0.45,0.133,0.65,0.2c0.167,0.033,0.3,0.117,0.4,0.25c0.566-0.167,0.45-0.55-0.35-1.15
				c-0.133-0.1-0.267-0.217-0.4-0.35c-0.1-0.133-0.217-0.267-0.35-0.4c0.5,0.133,0.983,0.3,1.45,0.5
				c0.433,0.167,0.85,0.367,1.25,0.6c1.066,0.566,2.183,0.9,3.35,1c0.133,0,0.267,0.033,0.4,0.1c0.233,0.067,0.466,0.1,0.7,0.1
				c-0.533-0.833-1.3-1.566-2.3-2.2c-0.033-0.333,0.367-0.383,1.2-0.15c0.5,0.167,1,0.317,1.5,0.45
				c-0.066-0.433-0.283-0.733-0.65-0.9c0.4-0.567,1.117-0.783,2.15-0.65c1.867,0.3,3.75,0.566,5.65,0.8
				c-0.467,0.433-0.9,0.883-1.3,1.35c-0.133,0.1-0.2,0.283-0.2,0.55c0.667-0.633,0.983-0.517,0.95,0.35c0,0.4-0.066,0.783-0.2,1.15
				c0.9,0.4,1.883,0.4,2.95,0c0.067-0.033,0.133-0.15,0.2-0.35c0.066-0.167,0.15-0.3,0.25-0.4c1.9,1.833,4.3,3.217,7.2,4.15
				c0.167-1.167-0.333-1.733-1.5-1.7c-0.267-0.133,0.1-0.2,1.1-0.2c0.533,0,1.05,0,1.55,0c-0.5-0.933-1.267-1.566-2.3-1.9
				c0.692,0.154,1.4,0.262,2.125,0.325C484.125-112.211,484.05-112.57,484.05-113z M430.475-115.175
				c-0.669-0.115-1.311-0.291-1.925-0.525c-0.433-0.133-0.583-0.167-0.45-0.1c0,0.167,0.133,0.3,0.4,0.4
				c0.367,0.133,0.55,0.383,0.55,0.75c-0.1,0-0.2-0.033-0.3-0.1c-0.4-0.233-0.683-0.2-0.85,0.1c0.267,0.033,0.517,0.1,0.75,0.2
				c0.22,0.094,0.412,0.186,0.575,0.275l0.025,0.025c0.229,0.108,0.437,0.216,0.625,0.325c0.086,0.056,0.169,0.105,0.25,0.15
				c0.015,0.02,0.031,0.037,0.05,0.05c0.219,0.152,0.41,0.31,0.575,0.475c-0.312,0.032-0.62,0.048-0.925,0.05h-0.075
				c-0.095,0.001-0.187,0.001-0.275,0c-0.259-0.005-0.518-0.021-0.775-0.05c-0.903-0.088-1.786-0.305-2.65-0.65
				c-0.367-0.167-0.75-0.317-1.15-0.45c-1.1-0.367-2.1-0.883-3-1.55c0,0.2,0.017,0.383,0.05,0.55c0.066,0.6-0.017,1.1-0.25,1.5
				c-0.167,0.233-0.483,0.283-0.95,0.15c-0.133-0.033-0.25-0.1-0.35-0.2c-0.333-0.333-0.467-0.434-0.4-0.3
				c-0.133,0.3-0.383,0.517-0.75,0.65c-0.367,0.1-0.533,0-0.5-0.3c0-0.233-0.083-0.35-0.25-0.35c0.067,0.233,0.017,0.434-0.15,0.6
				c-0.1,0.1-0.167,0.217-0.2,0.35c-0.031,0.251-0.098,0.459-0.2,0.625c0.312-0.241,0.545-0.517,0.7-0.825
				c0.2,0.2,0.35,0.45,0.45,0.75c0.033,0.067,0.083,0.133,0.15,0.2c0.133,0.167,0.25,0.35,0.35,0.55c0.333,0,0.5-0.183,0.5-0.55
				c0-0.067,0.017-0.133,0.05-0.2c0.033-0.066,0.05-0.133,0.05-0.2c0.4,0.433,0.966,0.733,1.7,0.9c0.133,0.033,0.25,0.05,0.35,0.05
				c0.033-0.433-0.05-0.8-0.25-1.1c-0.067-0.1-0.167-0.167-0.3-0.2c0.1-0.233,0.367-0.217,0.8,0.05c0.167,0.1,0.333,0.184,0.5,0.25
				c1.567,0.367,3.15,0.667,4.75,0.9c0.107,0.018,0.216,0.035,0.325,0.05c0.236,0.028,0.469,0.044,0.7,0.05c0.039,0,0.081,0,0.125,0
				h0.05c0.245,0,0.478,0,0.7,0c-0.181-0.077-0.364-0.152-0.55-0.225l-0.025-0.025c-0.048-0.012-0.09-0.028-0.125-0.05
				c-0.21-0.084-0.418-0.167-0.625-0.25c-1.137-0.432-2.278-0.815-3.425-1.15c1.285,0.055,2.543,0.196,3.775,0.425
				c0.246,0.048,0.488,0.099,0.725,0.15c0.035,0.01,0.068,0.018,0.1,0.025c0.041,0.01,0.083,0.019,0.125,0.025
				c0.017,0.011,0.033,0.02,0.05,0.025c0.345,0.066,0.703,0.1,1.075,0.1c0.867,0,1.75-0.034,2.65-0.1c0.067,0,0.133-0.033,0.2-0.1
				c0.2-0.3,0.333-0.6,0.4-0.9c-0.7-0.3-1.467-0.55-2.3-0.75C431.236-114.743,430.828-114.917,430.475-115.175z M408.2-195.425
				c1.236-0.092,2.469-0.234,3.7-0.425c0.233,0.6,0.417,1.083,0.55,1.45c0.533-0.067,0.867,0.1,1,0.5
				c0.066,0.3,0.167,0.583,0.3,0.85c0.467-0.4,0.983-0.65,1.55-0.75c0.1-0.034,0.25,0.066,0.45,0.3c0.3,0.3,0.5,0.7,0.6,1.2
				c0.033,0.233,0.05,0.483,0.05,0.75c0.533,0.167,0.833,0.033,0.9-0.4c0.034-0.133,0.1-0.25,0.2-0.35
				c0.467,0.3,0.55,0.917,0.25,1.85c-0.033,0.133-0.083,0.284-0.15,0.45c-0.067,0.2-0.1,0.433-0.1,0.7
				c1.433-0.367,2.333-1.117,2.7-2.25c0.066-0.267,0.183-0.517,0.35-0.75c0.267,0.933,0.684,1.783,1.25,2.55
				c0.6-0.133,0.883-0.617,0.85-1.45c1.2,1.767,3.017,3.417,5.45,4.95c0.533,0.333,1.167,0.7,1.9,1.1c-0.267-0.967-0.5-1.967-0.7-3
				c-0.033-0.133-0.05-0.267-0.05-0.4c-0.1-0.233,0.2-0.05,0.9,0.55c0.167,0.133,0.367,0.217,0.6,0.25c1.133,0.233,1.867-0.1,2.2-1
				c0.066-0.1,0.216-0.15,0.45-0.15c1.367,0.066,2.533,0.667,3.5,1.8c0.667,0.767,1.317,1.633,1.95,2.6
				c0.133,0.233,0.333,0.4,0.6,0.5c0-0.733-0.217-1.383-0.65-1.95c0.8,0.133,1.517,0.534,2.15,1.2c0.833,0.833,1.733,1.15,2.7,0.95
				c0.867-0.2,1.45,0.133,1.75,1c0.067,0.2,0.1,0.433,0.1,0.7c0.3-0.767,0.833-1.316,1.6-1.65c0.433,0.1,0.783,0.15,1.05,0.15
				c-0.167-0.533-0.1-0.883,0.2-1.05c0.1-0.1,0.15-0.267,0.15-0.5c0.667,0.667,1.567,1.417,2.7,2.25c1.367,1,2.983,1.333,4.85,1
				c0.133-0.033,0.25-0.117,0.35-0.25c0.434-0.533,0.983-0.567,1.65-0.1c0.333,0.2,0.667,0.383,1,0.55
				c1.318,0.585,2.618,1.202,3.9,1.85c-1.175-1.461-2.441-2.861-3.8-4.2c-0.933-0.9-1.95-1.517-3.05-1.85
				c-0.1,0.267-0.2,0.533-0.3,0.8c-0.133,0.434-0.55,0.417-1.25-0.05c-0.367-0.267-0.75-0.45-1.15-0.55
				c-1.933-0.533-3.467-1.3-4.6-2.3c-0.6-0.533-0.95-0.717-1.05-0.55c0.133,0.133,0.233,0.283,0.3,0.45
				c0.233,0.667,0.133,1.033-0.3,1.1c-1.133-0.133-1.983-0.533-2.55-1.2c-0.079-0.11-0.146-0.202-0.2-0.275
				c0.242,0.396,0.392,0.755,0.45,1.075c0.1,0.566-0.133,0.833-0.7,0.8c-0.533-0.033-1.05-0.117-1.55-0.25
				c-0.667-0.2-1.233-0.55-1.7-1.05c-0.7-0.733-1.5-1.067-2.4-1c0,0.367,0.033,0.733,0.1,1.1c0.167,0.867-0.117,1.25-0.85,1.15
				c-0.133-0.1-0.15-0.6-0.05-1.5c0.034-0.267-0.017-0.467-0.15-0.6c-0.967-1.367-2.05-2.933-3.25-4.7
				c0.133,0.9-0.017,1.184-0.45,0.85c-1.4-1.2-2.767-2.6-4.1-4.2c-0.1-0.167-0.184-0.317-0.25-0.45c-0.434-0.7-0.717-0.95-0.85-0.75
				c0.133,0.133,0.217,0.267,0.25,0.4c0.133,1.3,0.283,2.567,0.45,3.8c0.167,1.267,0.066,2.267-0.3,3c-0.133,0-0.267-0.017-0.4-0.05
				c-0.233-0.1-0.483-0.217-0.75-0.35c-0.5-0.233-1-0.733-1.5-1.5c-0.333,0.034-0.617,0.267-0.85,0.7
				c-0.467,0.833-0.683,1.1-0.65,0.8c-0.4-0.433-0.8-1.033-1.2-1.8c-0.1-0.167-0.216-0.317-0.35-0.45
				c-0.8-0.966-1.667-1.733-2.6-2.3c-1.167-0.7-1.684-0.433-1.55,0.8c-0.5,0-0.883-0.1-1.15-0.3c-0.867-0.667-1.733-1.317-2.6-1.95
				c0,0.233,0.017,0.483,0.05,0.75c0.167,0.8-0.083,1.267-0.75,1.4c-1.237-0.868-2.295-1.893-3.175-3.075L411.5-197.6
				C410.446-196.888,409.346-196.163,408.2-195.425z"/>
		</g>
	</g>
</symbol>
<use xlink:href="#ground_x5F_05"  width="662.57" height="152.782" x="188.68" y="-250.259" transform="matrix(1 0 0 -1 -188.7002 -97.5)" style="overflow:visible;"/>
</svg>
