<?xml version="1.0" encoding="iso-8859-1"?>
<!-- Generator: Adobe Illustrator 16.0.0, SVG Export Plug-In . SVG Version: 6.00 Build 0)  -->
<!DOCTYPE svg PUBLIC "-//W3C//DTD SVG 1.1//EN" "http://www.w3.org/Graphics/SVG/1.1/DTD/svg11.dtd">
<svg version="1.1" id="Layer_1" xmlns="http://www.w3.org/2000/svg" xmlns:xlink="http://www.w3.org/1999/xlink" x="0px" y="0px"
	 width="849px" height="125px" viewBox="0 0 849 125" style="enable-background:new 0 0 849 125;" xml:space="preserve">
<symbol  id="bg_x5F_hill_x5F_05" viewBox="0 -121.75 845.426 121.753">
	<g id="Layer_3_1_">
		<path style="fill-rule:evenodd;clip-rule:evenodd;fill:#383820;" d="M779.85-118.1c-11.585,3.587-20.335,6.42-26.25,8.5
			c-4.934,1.733-12.067,4.5-21.4,8.3c-8.467,3.433-15.017,5.917-19.65,7.45C697.583-88.883,681.4-86.4,664-86.4
			c-19.367,0-37.75-2.667-55.15-8c-19.567-6.011-29.942-13.669-31.125-22.975C564.685-116.458,552.376-116,540.8-116
			c-1.298,0-21.565-0.508-60.8-1.525c-1.041-0.023-2.091-0.048-3.15-0.075c0.443,0.02,5.677,0.77,15.7,2.25
			c-6.401-0.733-13.426-1.158-21.075-1.275c-6.146-0.095-26.012,1.671-59.6,5.3L336.8-108.8c-7.367-0.333-17.283-1.45-29.75-3.35
			c-15.033-2.434-26.566-4.267-34.6-5.5c-12.274-1.858-23.558-3.225-33.85-4.1l-22.65,0.05c6.433,4.389,9.65,7.889,9.65,10.5
			c0,2.7-4.25,5.367-12.75,8c-8.7,2.667-17.783,4-27.25,4c-3.4,0-8.583-0.8-15.55-2.4c-8.566-1.967-17.25-4.633-26.05-8
			c-12.333-3.9-20.783-6.816-25.35-8.75c-2.229-0.943-4.155-1.976-5.775-3.1L0-121.2c14.588,6.896,28.479,13.446,41.675,19.65
			c-0.05-0.301-0.075-0.584-0.075-0.85c0-2.833,1.333-4.7,4-5.6c1.6-0.533,4.533-0.8,8.8-0.8c20.667,0,41.2,8,61.6,24
			c7.667,6.033,14.083,12.3,19.25,18.8c3.741,4.683,6.016,8.4,6.825,11.15c46.592,21.336,74.35,33.32,83.275,35.95
			c14.616,4.367,29.408,7.992,44.375,10.875c0.982-3.545,8.407-5.937,22.275-7.175c7.533-0.667,15.4-0.933,23.6-0.8
			c23.133,0,41.667,2.133,55.6,6.4c7.886,2.408,13.527,5.257,16.925,8.55c6.151-0.403,12.292-0.92,18.425-1.55
			c20.733-2.3,41.367-5.2,61.9-8.7c0.932-0.166,1.874-0.333,2.825-0.5c-3.031-0.91-5.656-2.126-7.875-3.65
			c-3.333-2.267-5-4.85-5-7.75c0-3.8,4.55-7.533,13.65-11.2c9.2-3.733,18.784-5.6,28.75-5.6c13.034,0,24.767,1.85,35.2,5.55
			c4.856,1.746,8.606,3.612,11.25,5.6c30.968-7.733,55.784-11.617,74.45-11.65c5.984-0.011,12.768-0.394,20.35-1.15
			c-0.833-1.881-1.25-3.864-1.25-5.95c0-8.433,13.867-14.983,41.6-19.65c22.033-3.706,49.708-5.79,83.025-6.25
			c22.964-9.878,49.564-22.762,79.8-38.65c1.047-2.052-1.995-3.785-9.125-5.2c-7.135-1.415-22.102-1.498-44.9-0.25
			C791.2-118.048,787.417-118.215,779.85-118.1z M622.075-118.95c0.706,2.733,2.164,4.783,4.375,6.15c4.267,2.667,12.517,4,24.75,4
			c27.704,0,52.503-2.325,74.4-6.975c-17.258,0.917-25.925,1.375-26,1.375c-12.6,0-28.184-0.8-46.75-2.4
			C640.155-117.894,629.896-118.611,622.075-118.95z M670.7-45.6c9.607-1.625,20.058-3.642,31.35-6.05
			c8.014-1.701,17.089-4.285,27.225-7.75c-6.984-0.934-11.409-1.4-13.275-1.4c-11.4,0-22.6,1.6-33.6,4.8
			c-9.6,2.833-14.4,5.1-14.4,6.8c0,0.367,0.267,0.883,0.8,1.55C669.265-47.02,669.898-46.336,670.7-45.6z M577.85-57.3
			c-5.8,0.333-12.733,0.283-20.8-0.15c-6.372-0.423-10.255-0.206-11.65,0.65h-3.8c-14.934-3.5-22.4-8.3-22.4-14.4
			c0-3.2,4.533-5.6,13.6-7.2c6-1.067,11.867-1.6,17.6-1.6c13.1,0,24.85,0.8,35.25,2.4C597.883-75.7,604-73.167,604-70
			C604-62.5,595.283-58.267,577.85-57.3z M568-62.4c4.267-0.8,6.4-2,6.4-3.6c0-2-2.133-3.75-6.4-5.25
			c-4.566-1.567-10.3-2.35-17.2-2.35c-2.8,0-6.083,0.4-9.85,1.2c-3.767,0.8-5.95,1.2-6.55,1.2c-0.2,2.6,1.55,4.8,5.25,6.6
			c0.678,0.332,1.386,0.64,2.125,0.925c0.52,0.194,1.053,0.377,1.6,0.55c1.763,0.108,4.354,0.35,7.775,0.725
			c4.867,0.533,7.55,0.8,8.05,0.8C562.167-61.6,565.1-61.867,568-62.4z M480.55-13.575c11.34-2.231,24.082-5.006,38.225-8.325
			c-2.225-1.829-5.15-3.329-8.775-4.5c-4.933-1.6-10.667-2.4-17.2-2.4c-3.267,0-6.983,0.267-11.15,0.8
			c-6.967,0.867-10.45,2.2-10.45,4c0,4.267,2.15,7.367,6.45,9.3C478.479-14.338,479.446-13.963,480.55-13.575z M428.8-37.6
			c0,7.867-9.35,12.367-28.05,13.5c-9.713,0.605-21.805,0.247-36.275-1.075c-1.392-0.394-2.783-0.819-4.175-1.275
			c-11.4-3.667-17.1-7.383-17.1-11.15c0-3.233,5.867-6.167,17.6-8.8c9.467-2.133,16.934-3.2,22.4-3.2
			c14.367,0,25.85,1.317,34.45,3.95C425.083-43.317,428.8-40.633,428.8-37.6z M427.2-71.2c0,1.567,1.883,3.067,5.65,4.5
			c4.413,1.686,7.463,3.261,9.15,4.725c0.141,0.124,0.274,0.249,0.4,0.375h2.8c0.605,0,1.514-0.125,2.725-0.375
			c1.927-0.381,4.619-1.073,8.075-2.075c6.4-1.833,9.6-3.417,9.6-4.75c0-1.133-1.583-2.467-4.75-4c-4.4-2.133-10.15-3.2-17.25-3.2
			C432.667-76,427.2-74.4,427.2-71.2z M406.4-32v-5.6c-1.3-1.3-4.367-2.55-9.2-3.75c-5-1.233-9.667-1.85-14-1.85
			c-2.267,0-7.034,0.6-14.3,1.8c-6.9,1.167-10.667,1.9-11.3,2.2c-1.033,2.434,0.467,4.633,4.5,6.6
			c1.664,0.803,3.489,1.478,5.475,2.025c3.103,0.224,7.945,0.34,14.525,0.35C393.334-30.208,401.434-30.8,406.4-32z M427.2-61.1
			c-12.8-4.033-19.2-9.4-19.2-16.1c0-2.966,4.267-4.983,12.8-6.05c4.233-0.5,9.967-0.75,17.2-0.75c14.1,0,26.233,1.067,36.4,3.2
			c11.733,2.433,17.6,5.767,17.6,10c0,6-6.9,10.133-20.7,12.4c-4.3,0.7-9.05,1.183-14.25,1.45c-4.367,0.1-6.583,0.15-6.65,0.15
			c-0.687,0-1.929-0.067-3.725-0.2c-1.452-0.154-3.243-0.404-5.375-0.75C436.2-58.617,431.5-59.733,427.2-61.1z M305.45-2.65
			C318.557-1.209,331.74-0.359,345-0.1c3.074,0.065,6.149,0.098,9.225,0.1c-1.355-1.675-3.963-3.042-7.825-4.1
			c-5.566-1.533-13.167-2.3-22.8-2.3c-1.5,0-4.633,0.4-9.4,1.2c-4.8,0.8-7.667,1.2-8.6,1.2C305.518-3.507,305.468-3.057,305.45-2.65
			z M333.6-72c0-3.3-3.184-6.5-9.55-9.6c-8.767-4.267-21.316-6.4-37.65-6.4c-3.5,0-9.733,0.633-18.7,1.9
			c-7.833,1.1-12.267,1.8-13.3,2.1c1.533,5.333,5.133,8.983,10.8,10.95c0.606,0.209,1.248,0.401,1.925,0.575
			c1.354,0.349,2.846,0.625,4.475,0.825c0.102,0.01,0.202,0.019,0.3,0.025c1.424,0.347,2.749,0.655,3.975,0.925
			c3.997,0.903,6.989,1.437,8.975,1.6c2.133,0.2,10.383,0.3,24.75,0.3c8.733,0,13.267-0.017,13.6-0.05
			C330.133-69.183,333.6-70.233,333.6-72z M363.2-71.6c0,4.633-9.333,8.483-28,11.55c-5.833,0.966-12.25,1.8-19.25,2.5l-8.75,0.75
			c-7.733,0-12.617-0.067-14.65-0.2c-0.658-0.039-1.366-0.088-2.125-0.15c-2.225-0.199-4.875-0.516-7.95-0.95
			c-2.456-0.434-4.864-0.893-7.225-1.375c-7.294-1.511-14.111-3.269-20.45-5.275C234.267-71.25,224-79.4,224-89.2
			c0-3.933,5.883-6.733,17.65-8.4c7.333-1.066,15.85-1.6,25.55-1.6c26.767,0,49.7,2.917,68.8,8.75c8.567,2.633,15.233,5.6,20,8.9
			C360.8-78.25,363.2-74.933,363.2-71.6z M263.2-32.4c0,2.467-3.233,4.2-9.7,5.2c-6.5,0.534-9.8,0.8-9.9,0.8
			c-5.6,0-12.483-1.033-20.65-3.1c-1.83-0.472-3.563-0.947-5.2-1.425c-1.622-0.464-3.147-0.931-4.575-1.4
			c-1.192-0.559-2.317-1.117-3.375-1.675c-3.111-1.657-5.594-3.307-7.45-4.95c-3.267-2.933-5.917-7.017-7.95-12.25
			c1.6-0.533,6.133-0.8,13.6-0.8c15.2,0,28.533,2.383,40,7.15c4.733,1.967,8.483,4.117,11.25,6.45
			C261.883-36.2,263.2-34.2,263.2-32.4z M213.725-37.025c0.512,0.271,1.045,0.529,1.6,0.775c2.294,0.717,4.136,1.275,5.525,1.675
			c1.485,0.439,2.452,0.698,2.9,0.775c0.8,0.133,3.283,0.2,7.45,0.2c3.7,0,5.583,0,5.65,0c2.1-0.3,3.15-1.233,3.15-2.8
			c0-2.367-2.4-4.383-7.2-6.05c-4.5-1.566-9.566-2.35-15.2-2.35c-0.633,0-2.184,0.133-4.65,0.4c-2.467,0.267-4.117,0.4-4.95,0.4
			c-0.267,2.4,1.4,4.6,5,6.6C213.234-37.271,213.476-37.146,213.725-37.025z M178.4-67.2c-0.633,1.567-3,2.567-7.1,3
			c-1.367,0.133-4.2,0.2-8.5,0.2c-1.908,0-3.391-0.033-4.45-0.1c-1.458-1.075-2.992-2.116-4.6-3.125
			c-3.046-1.929-6.296-4.587-9.75-7.975c0.8-1,1.517-1.917,2.15-2.75c0.567-0.3,2.383-0.45,5.45-0.45
			c5.667,0,11.417,1.133,17.25,3.4C174.983-72.633,178.167-70.033,178.4-67.2z M155.7-121.55c3.252,2.797,8.236,5.43,14.95,7.9
			c5.833,2.133,13.75,4.283,23.75,6.45h9.6c0-0.167,0.133-0.617,0.4-1.35c0.267-0.733,0.4-1.483,0.4-2.25c0-1-1.283-2.817-3.85-5.45
			c-2.041-2.078-4.433-3.877-7.175-5.4L155.7-121.55z M63.9-91.125c16.75,7.852,32.225,15.068,46.425,21.65
			c-3.549-3.571-8.074-7.262-13.575-11.075C85.75-88.183,76.7-92,69.6-92c-2.6,0-4.45,0.267-5.55,0.8
			C63.996-91.175,63.946-91.15,63.9-91.125z"/>
		<path style="fill-rule:evenodd;clip-rule:evenodd;fill:#313119;" d="M670.7-45.6c-0.802-0.736-1.436-1.419-1.9-2.05
			c-0.533-0.667-0.8-1.184-0.8-1.55c0-1.7,4.8-3.966,14.4-6.8c11-3.2,22.2-4.8,33.6-4.8c1.866,0,6.291,0.466,13.275,1.4
			c10.837-3.692,22.887-8.392,36.15-14.1c-33.317,0.46-60.992,2.544-83.025,6.25c-27.733,4.667-41.6,11.217-41.6,19.65
			c0,2.086,0.417,4.069,1.25,5.95C650.585-42.495,660.135-43.812,670.7-45.6z M354.225,0c11.323,0.037,22.623-0.313,33.9-1.05
			c-3.397-3.293-9.039-6.143-16.925-8.55c-13.934-4.267-32.467-6.4-55.6-6.4c-8.2-0.133-16.067,0.133-23.6,0.8
			c-13.868,1.238-21.293,3.63-22.275,7.175c4.787,0.915,9.595,1.756,14.425,2.525c7.078,1.127,14.178,2.077,21.3,2.85
			c0.018-0.407,0.068-0.857,0.15-1.35c0.933,0,3.8-0.4,8.6-1.2c4.767-0.8,7.9-1.2,9.4-1.2c9.633,0,17.233,0.767,22.8,2.3
			C350.262-3.042,352.87-1.675,354.225,0z M471.275-11.8c2.977-0.545,6.068-1.137,9.275-1.775c-1.104-0.388-2.07-0.763-2.9-1.125
			c-4.3-1.933-6.45-5.033-6.45-9.3c0-1.8,3.483-3.133,10.45-4c4.167-0.533,7.883-0.8,11.15-0.8c6.534,0,12.267,0.8,17.2,2.4
			c3.625,1.171,6.55,2.671,8.775,4.5c8.637-2.034,17.795-4.268,27.475-6.7c0.335-0.084,0.668-0.167,1-0.25
			c-2.644-1.988-6.394-3.854-11.25-5.6c-10.434-3.7-22.167-5.55-35.2-5.55c-9.966,0-19.55,1.867-28.75,5.6
			c-9.1,3.667-13.65,7.4-13.65,11.2c0,2.9,1.667,5.483,5,7.75C465.619-13.926,468.244-12.709,471.275-11.8z M142.075-54.85
			c-0.809-2.75-3.084-6.467-6.825-11.15c-5.167-6.5-11.583-12.767-19.25-18.8c-20.4-16-40.933-24-61.6-24
			c-4.267,0-7.2,0.267-8.8,0.8c-2.667,0.9-4,2.767-4,5.6c0,0.266,0.025,0.549,0.075,0.85c7.64,3.592,15.048,7.067,22.225,10.425
			c0.046-0.025,0.096-0.05,0.15-0.075C65.15-91.733,67-92,69.6-92c7.1,0,16.15,3.817,27.15,11.45
			c5.501,3.813,10.026,7.504,13.575,11.075C121.732-64.192,132.316-59.317,142.075-54.85z M112.875-121.45
			c1.62,1.124,3.545,2.157,5.775,3.1c4.567,1.934,13.017,4.85,25.35,8.75c8.8,3.367,17.483,6.033,26.05,8
			c6.967,1.6,12.15,2.4,15.55,2.4c9.467,0,18.55-1.333,27.25-4c8.5-2.633,12.75-5.3,12.75-8c0-2.611-3.217-6.111-9.65-10.5
			l-22.175,0.05c2.743,1.522,5.134,3.322,7.175,5.4c2.566,2.633,3.85,4.45,3.85,5.45c0,0.767-0.133,1.517-0.4,2.25
			c-0.267,0.733-0.4,1.183-0.4,1.35h-9.6c-10-2.167-17.917-4.316-23.75-6.45c-6.714-2.47-11.697-5.103-14.95-7.9L112.875-121.45z
			 M178.4-67.2c-0.233-2.833-3.417-5.433-9.55-7.8c-5.833-2.267-11.583-3.4-17.25-3.4c-3.067,0-4.883,0.15-5.45,0.45
			c-0.633,0.833-1.35,1.75-2.15,2.75c3.454,3.388,6.704,6.046,9.75,7.975c1.608,1.009,3.142,2.05,4.6,3.125
			c1.059,0.067,2.542,0.1,4.45,0.1c4.3,0,7.133-0.067,8.5-0.2C175.4-64.633,177.767-65.633,178.4-67.2z M622.075-118.95
			c-3.611-0.167-6.703-0.25-9.275-0.25c-7.1,0-17.75,0.534-31.95,1.6c-1.049,0.079-2.091,0.154-3.125,0.225
			c1.183,9.306,11.558,16.964,31.125,22.975c17.4,5.333,35.783,8,55.15,8c17.4,0,33.583-2.483,48.55-7.45
			c4.634-1.533,11.184-4.017,19.65-7.45c9.333-3.8,16.466-6.567,21.4-8.3c5.915-2.08,14.665-4.913,26.25-8.5
			c-7.617,0.131-19.067,0.548-34.35,1.25c-7.573,0.406-14.206,0.764-19.9,1.075c-21.896,4.65-46.696,6.975-74.4,6.975
			c-12.233,0-20.483-1.333-24.75-4C624.239-114.167,622.781-116.217,622.075-118.95z M577.85-57.3C595.283-58.267,604-62.5,604-70
			c0-3.167-6.117-5.7-18.35-7.6c-10.4-1.6-22.15-2.4-35.25-2.4c-5.733,0-11.6,0.533-17.6,1.6c-9.066,1.6-13.6,4-13.6,7.2
			c0,6.1,7.466,10.9,22.4,14.4h3.8c1.395-0.856,5.278-1.073,11.65-0.65C565.117-57.017,572.05-56.967,577.85-57.3z M568-62.4
			c-2.9,0.533-5.833,0.8-8.8,0.8c-0.5,0-3.184-0.267-8.05-0.8c-3.42-0.375-6.012-0.617-7.775-0.725
			c-0.547-0.173-1.08-0.356-1.6-0.55c-0.739-0.285-1.447-0.593-2.125-0.925c-3.7-1.8-5.45-4-5.25-6.6c0.6,0,2.784-0.4,6.55-1.2
			c3.767-0.8,7.05-1.2,9.85-1.2c6.9,0,12.634,0.783,17.2,2.35c4.267,1.5,6.4,3.25,6.4,5.25C574.4-64.4,572.267-63.2,568-62.4z
			 M428.8-37.6c0-3.033-3.716-5.717-11.15-8.05c-8.6-2.633-20.083-3.95-34.45-3.95c-5.467,0-12.934,1.067-22.4,3.2
			c-11.733,2.633-17.6,5.566-17.6,8.8c0,3.767,5.7,7.483,17.1,11.15c1.392,0.457,2.784,0.881,4.175,1.275
			c14.47,1.322,26.562,1.68,36.275,1.075C419.45-25.233,428.8-29.733,428.8-37.6z M406.4-32c-4.966,1.2-13.065,1.792-24.3,1.775
			c-6.58-0.01-11.422-0.126-14.525-0.35c-1.986-0.547-3.811-1.222-5.475-2.025c-4.033-1.967-5.533-4.167-4.5-6.6
			c0.633-0.3,4.4-1.033,11.3-2.2c7.267-1.2,12.033-1.8,14.3-1.8c4.333,0,9,0.617,14,1.85c4.833,1.2,7.9,2.45,9.2,3.75V-32z
			 M427.2-71.2c0-3.2,5.466-4.8,16.4-4.8c7.1,0,12.85,1.067,17.25,3.2c3.167,1.533,4.75,2.867,4.75,4c0,1.333-3.2,2.917-9.6,4.75
			c-3.457,1.002-6.148,1.694-8.075,2.075c-1.211,0.25-2.12,0.375-2.725,0.375h-2.8c-0.126-0.126-0.259-0.251-0.4-0.375
			c-1.687-1.464-4.737-3.04-9.15-4.725C429.083-68.133,427.2-69.633,427.2-71.2z M427.2-61.1c4.3,1.367,9,2.483,14.1,3.35
			c2.132,0.346,3.923,0.596,5.375,0.75c1.796,0.133,3.038,0.2,3.725,0.2c0.067,0,2.283-0.05,6.65-0.15
			c5.2-0.267,9.95-0.75,14.25-1.45c13.8-2.267,20.7-6.4,20.7-12.4c0-4.233-5.867-7.567-17.6-10C464.233-82.933,452.1-84,438-84
			c-7.233,0-12.967,0.25-17.2,0.75c-8.533,1.067-12.8,3.083-12.8,6.05C408-70.5,414.4-65.133,427.2-61.1z M333.6-72
			c0,1.767-3.467,2.817-10.4,3.15c-0.333,0.033-4.867,0.05-13.6,0.05c-14.367,0-22.617-0.1-24.75-0.3
			c-1.986-0.164-4.978-0.697-8.975-1.6c-1.226-0.27-2.551-0.578-3.975-0.925c-0.098-0.006-0.198-0.015-0.3-0.025
			c-1.629-0.201-3.121-0.476-4.475-0.825c-0.677-0.174-1.319-0.366-1.925-0.575c-5.667-1.967-9.267-5.617-10.8-10.95
			c1.033-0.3,5.467-1,13.3-2.1c8.966-1.267,15.2-1.9,18.7-1.9c16.333,0,28.883,2.133,37.65,6.4C330.417-78.5,333.6-75.3,333.6-72z
			 M363.2-71.6c0-3.333-2.4-6.65-7.2-9.95c-4.767-3.3-11.433-6.267-20-8.9c-19.1-5.833-42.033-8.75-68.8-8.75
			c-9.7,0-18.217,0.534-25.55,1.6C229.883-95.933,224-93.133,224-89.2c0,9.8,10.267,17.95,30.8,24.45
			c6.339,2.006,13.156,3.764,20.45,5.275c2.361,0.482,4.77,0.941,7.225,1.375c3.075,0.435,5.725,0.751,7.95,0.95
			c0.759,0.062,1.467,0.111,2.125,0.15c2.034,0.133,6.917,0.2,14.65,0.2l8.75-0.75c7-0.7,13.417-1.534,19.25-2.5
			C353.867-63.117,363.2-66.967,363.2-71.6z M263.2-32.4c0-1.8-1.317-3.8-3.95-6c-2.767-2.333-6.517-4.483-11.25-6.45
			C236.533-49.617,223.2-52,208-52c-7.467,0-12,0.267-13.6,0.8c2.033,5.233,4.684,9.317,7.95,12.25
			c1.856,1.644,4.339,3.293,7.45,4.95c1.058,0.558,2.183,1.116,3.375,1.675c1.428,0.47,2.954,0.937,4.575,1.4
			c1.637,0.478,3.37,0.953,5.2,1.425c8.167,2.067,15.05,3.1,20.65,3.1c0.1,0,3.4-0.267,9.9-0.8
			C259.967-28.2,263.2-29.933,263.2-32.4z M213.725-37.025c-0.25-0.121-0.491-0.246-0.725-0.375c-3.6-2-5.267-4.2-5-6.6
			c0.833,0,2.483-0.133,4.95-0.4c2.466-0.267,4.017-0.4,4.65-0.4c5.633,0,10.7,0.783,15.2,2.35c4.8,1.667,7.2,3.684,7.2,6.05
			c0,1.566-1.05,2.5-3.15,2.8c-0.067,0-1.95,0-5.65,0c-4.167,0-6.65-0.066-7.45-0.2c-0.448-0.078-1.415-0.336-2.9-0.775
			c-1.389-0.4-3.231-0.958-5.525-1.675C214.77-36.496,214.237-36.754,213.725-37.025z"/>
	</g>
</symbol>
<use xlink:href="#bg_x5F_hill_x5F_05"  width="845.426" height="121.753" y="-121.75" transform="matrix(1 0 0 -1 0 0)" style="overflow:visible;"/>
</svg>
