<?xml version="1.0" encoding="iso-8859-1"?>
<!-- Generator: Adobe Illustrator 16.0.0, SVG Export Plug-In . SVG Version: 6.00 Build 0)  -->
<!DOCTYPE svg PUBLIC "-//W3C//DTD SVG 1.1//EN" "http://www.w3.org/Graphics/SVG/1.1/DTD/svg11.dtd">
<svg version="1.1" id="Layer_1" xmlns="http://www.w3.org/2000/svg" xmlns:xlink="http://www.w3.org/1999/xlink" x="0px" y="0px"
	 width="688px" height="84px" viewBox="0 0 688 84" style="enable-background:new 0 0 688 84;" xml:space="preserve">
<symbol  id="bg_x5F_hill_x5F_01" viewBox="0 -80.5 684 80.503">
	<g id="Layer_3_1_">
		<g>
			<linearGradient id="SVGID_1_" gradientUnits="userSpaceOnUse" x1="342.7778" y1="28.4209" x2="342.2466" y2="-33.404">
				<stop  offset="0" style="stop-color:#878970"/>
				<stop  offset="1" style="stop-color:#353215"/>
			</linearGradient>
			<path style="fill-rule:evenodd;clip-rule:evenodd;fill:url(#SVGID_1_);" d="M646.5-61.95c-5.467,2.7-12.566,5.317-21.3,7.85
				c-20.333,5.867-38.4,8.8-54.2,8.8c-11.833,0-20.833-0.934-27-2.8c-5.333-1.6-8-3.667-8-6.2c0-3.534,1.45-6.217,4.35-8.05
				c1.4-0.9,3.767-1.883,7.1-2.95c-22.867-0.067-49.983-2.35-81.35-6.85c-11.934-1.767-19.2-2.85-21.8-3.25
				c-8.566-1.533-17.8-2.35-27.7-2.45c-9.9-0.066-15.65-0.083-17.25-0.05l-3.75,0.05c-9.2,0.233-21.95,0.4-38.25,0.5
				c-37.833,0.033-57.083,0.05-57.75,0.05c-5.067,0-17.15-0.534-36.25-1.6c-19.133-1.067-36.65-1.6-52.55-1.6
				c-23.2,0-50.733,0.633-82.6,1.9c4.133,1.467,8.15,3.167,12.05,5.1c3.367,1.633,7.2,3.767,11.5,6.4c0.367,0.2,0.717,0.4,1.05,0.6
				c1.767,0.633,3.6,1.317,5.5,2.05c5.633,2.1,10.534,4.184,14.7,6.25c6.5-0.167,13.017-0.167,19.55,0
				c6.367,0.167,12.7,0.434,19,0.8c1.267-0.167,2.633-0.317,4.1-0.45c6.633-0.667,13.3-1,20-1c10.9,0,21.9,1.167,33,3.5
				c7.167,1.5,12.45,3.217,15.85,5.15c14.5,1.3,29.033,1.517,43.6,0.65c6.1,0.033,12.15-0.15,18.15-0.55
				c4.3-0.4,8.617-0.717,12.95-0.95c-0.034-0.2-0.05-0.383-0.05-0.55c0-3.133,3.5-5.217,10.5-6.25c4.434-0.667,12.017-1,22.75-1
				c11.2,0,20.783,1.167,28.75,3.5c5.7,1.667,9.283,3.517,10.75,5.55c10.367,0.966,20.684,1.983,30.95,3.05
				c8.8,0.733,17.6,1.333,26.4,1.8c9.667,1.8,20.45,3.75,32.35,5.85s24.267,4.35,37.1,6.75c12.833,2.434,24.4,4.583,34.7,6.45
				c1.467,0.267,2.967,0.467,4.5,0.6c4.4-1.467,8.633-2.9,12.7-4.3c7.3-0.967,18.267-3.767,32.9-8.4
				c20.367-6.467,33.867-12.1,40.5-16.9C674.833-57.9,662.333-60.25,646.5-61.95z M93.85-77.1C56.383-75.233,25.1-73.167,0-70.9v1.6
				c0.2,0.133,1.15,0.517,2.85,1.15c0.533,0.233,7.333,1.6,20.4,4.1c23.7,5.367,42.483,8.867,56.35,10.5
				c13.867,1.667,22.017,2.75,24.45,3.25c6.434-1.167,12.9-2.25,19.4-3.25c-10.9-3.4-20.067-7.684-27.5-12.85
				c-0.267-0.167-0.534-0.35-0.8-0.55h0.25c-0.2-0.233-0.383-0.45-0.55-0.65c-1.1-1.333-1.65-3.167-1.65-5.5
				c0-1.833,0.133-3.033,0.4-3.6C93.667-76.833,93.75-76.967,93.85-77.1z M623.2-63.8c-14.1-0.767-32.134-1.25-54.1-1.45
				c-3.133,1.433-4.7,3.417-4.7,5.95c0,1.733,1.333,3.066,4,4c2.267,0.8,5.133,1.2,8.6,1.2c3.233,0,8.6-0.467,16.1-1.4
				c8.4-1.067,14.833-2.2,19.3-3.4c5.434-1.467,8.733-2.65,9.9-3.55C622.7-62.75,623-63.2,623.2-63.8z M407.3-52.05
				c-1.267-0.434-3.333-1.117-6.2-2.05c-2.867-0.933-7.167-1.4-12.9-1.4c-5.767,0.033-9.7,1.117-11.8,3.25
				C386.6-52.883,396.9-52.817,407.3-52.05z M142.7-56.1c1.033-0.133,2.05-0.25,3.05-0.35c2.633-0.267,5.267-0.517,7.9-0.75v-0.6
				c-0.833-0.467-2.933-2.2-6.3-5.2c-2-1.433-4.184-2.633-6.55-3.6c-1.033-0.2-4.417-0.833-10.15-1.9s-9.467-1.333-11.2-0.8
				c-1.733,0.533-2.717,0.983-2.95,1.35c-0.267,0.367-0.567,0.767-0.9,1.2c1.133,0.867,1.833,1.383,2.1,1.55
				c1.466,0.967,3.617,2.1,6.45,3.4c6.3,2.9,11.283,4.683,14.95,5.35C140.367-56.35,141.567-56.233,142.7-56.1z"/>
			<linearGradient id="SVGID_2_" gradientUnits="userSpaceOnUse" x1="351.543" y1="28.3457" x2="351.0117" y2="-33.4792">
				<stop  offset="0" style="stop-color:#878970"/>
				<stop  offset="1" style="stop-color:#3F3D27"/>
			</linearGradient>
			<path style="fill-rule:evenodd;clip-rule:evenodd;fill:url(#SVGID_2_);" d="M256.15-39.85c5-0.633,7.5-1.8,7.5-3.5
				c0-1.933-3-4.1-9-6.5c-6.7-2.667-13.95-4-21.75-4c-0.967,0-3.1,0.1-6.4,0.3c-3.8,0.233-6.25,0.466-7.35,0.7v2.5
				c0.733,2.1,6.317,5.6,16.75,10.5c4.567,0.333,8.233,0.5,11,0.5C250.467-39.35,253.55-39.517,256.15-39.85z M284.5-50.2
				c3.1,1.767,4.65,3.717,4.65,5.85c0,4.567-3.833,7.6-11.5,9.1c-7.7,1.5-14.5,2.533-20.4,3.1c-5.933,0.566-11.667,0.283-17.2-0.85
				c-5.566-1.133-8.667-1.75-9.3-1.85c-1.033-0.133-2-0.283-2.9-0.45c-3.033-1.133-7.25-3.133-12.65-6
				c-9.367-5-14.05-9.1-14.05-12.3c0-1.566,3.467-2.833,10.4-3.8c-6.3-0.367-12.633-0.633-19-0.8c-6.533-0.167-13.05-0.167-19.55,0
				c0.867,0.434,1.717,0.867,2.55,1.3c4.733,2.5,7.1,4.283,7.1,5.35c0,1.3-1.167,2.367-3.5,3.2c-2.8,1.033-6.967,1.55-12.5,1.55
				c-14.4,0-28.5-2.15-42.3-6.45c-0.3-0.1-0.6-0.2-0.9-0.3c-6.5,1-12.967,2.083-19.4,3.25c3.3,0.667,6.583,1.333,9.85,2
				c7.467,1.3,14.95,2.583,22.45,3.85c37.767,6.934,75.45,14.017,113.05,21.25c16.133,3.167,32.3,6.15,48.5,8.95
				c-0.367-0.167-0.75-0.333-1.15-0.5c-0.4-0.333-0.6-1.033-0.6-2.1c0-5.267,8.417-9.033,25.25-11.3c8.1-1.1,16.184-1.667,24.25-1.7
				h0.1c0.3,0,0.6,0,0.9,0c28.367,0.1,49.867,3.934,64.5,11.5c5.533,2.867,9.717,6.1,12.55,9.7c2.3,2.9,3.45,5.583,3.45,8.05
				c0,0.233-0.05,0.434-0.15,0.6c13.067,0,26.15-0.517,39.25-1.55c37.167-2.6,73.934-8.083,110.3-16.45
				c1.6-0.567,3.25-1.133,4.95-1.7c5.667-1.933,11.133-3.8,16.4-5.6c-1.533-0.133-3.033-0.333-4.5-0.6
				c-10.3-1.867-21.867-4.017-34.7-6.45c-12.833-2.4-25.2-4.65-37.1-6.75s-22.684-4.05-32.35-5.85c-8.8-0.466-17.6-1.066-26.4-1.8
				c-10.267-1.067-20.583-2.083-30.95-3.05c0.5,0.466,0.717,1.933,0.65,4.4c-0.066,2.5-4.2,4.717-12.4,6.65
				c-8.233,1.933-13.717,2.783-16.45,2.55c-2.767-0.233-4.617-0.367-5.55-0.4c-0.333,0-0.6-0.017-0.8-0.05
				c-0.467-0.033-1.4-0.067-2.8-0.1c-1.433-0.033-2.517-0.083-3.25-0.15c-0.733-0.067-2.383-0.283-4.95-0.65l-1.2-0.3
				c-1.2-0.3-2.367-0.617-3.5-0.95c-2.566-0.733-5.033-1.5-7.4-2.3c-9.567-3.3-14.583-6.617-15.05-9.95
				c-4.333,0.233-8.65,0.55-12.95,0.95c-6,0.4-12.05,0.583-18.15,0.55C313.533-48.683,299-48.9,284.5-50.2z M515.55-23.75
				c0.167-0.1,0.333-0.217,0.5-0.35l-0.3-3c0.1-0.267-0.9-1.25-3-2.95c-2.1-1.7-9.433-2.8-22-3.3s-19.4,0.117-20.5,1.85
				c-1.1,1.767-1.75,2.7-1.95,2.8c3.667,5,8.75,7.6,15.25,7.8c4.733,0.267,9.55,0.417,14.45,0.45l-0.6,0.3
				c2.3,0.066,4.65-0.083,7.05-0.45C508.283-21.133,511.983-22.183,515.55-23.75z M491.35-15.6c-17.7,1.167-28.533-1.383-32.5-7.65
				s-2.217-11.383,5.25-15.35s17.933-5.05,31.4-3.25c8.833,1.067,17.55,2.767,26.15,5.1c9.434,2.633,12.45,7.55,9.05,14.75
				c-0.733,1.6-4.333,3.05-10.8,4.35C513.434-16.317,503.917-15.633,491.35-15.6z M456.65-7.3c-2.833,0-4.65-0.034-5.45-0.1
				c-2.367-0.167-4.45-0.55-6.25-1.15c-0.2-0.167-0.417-0.35-0.65-0.55c-1.433-1.267-2.15-2.083-2.15-2.45
				c0-1.067,1.517-1.983,4.55-2.75c2.6-0.667,5.167-1,7.7-1c3,0,5.917,0.333,8.75,1c3.667,0.867,5.5,2.033,5.5,3.5c0,1.4-2,2.4-6,3
				L456.65-7.3z M407.3-52.05c-10.4-0.767-20.7-0.833-30.9-0.2c-1.066,2.233-0.283,4.117,2.35,5.65
				c4.233,2.333,8.683,4.133,13.35,5.4c3.267,0.6,6.117,0.883,8.55,0.85c2.4,0,5.517-0.267,9.35-0.8c2.667-0.1,4.617-1.167,5.85-3.2
				c0.167-0.267,0.183-0.533,0.05-0.8C413.967-48.517,411.1-50.817,407.3-52.05z M448.65-12.3v1.5c0.3,0.167,0.8,0.316,1.5,0.45
				c0.533,0.167,1.05,0.283,1.55,0.35c0.133,0.033,0.3,0.067,0.5,0.1c1.167,0.167,2.167,0.183,3,0.05
				c1.6-0.267,2.917-1.083,3.95-2.45c-1-0.333-2.75-0.5-5.25-0.5S449.65-12.633,448.65-12.3z M314.85-11.35
				C328.417-9.083,342-6.933,355.6-4.9c3.133,0.333,6.316,0.667,9.55,1c-2.233-0.167-4.433-0.35-6.6-0.55
				c13.9,1.867,27.817,3.133,41.75,3.8c0.9-0.7,1.35-1.684,1.35-2.95c0-5-5.333-8.917-16-11.75c-10.1-2.667-23.517-4-40.25-4
				c-8.733,0-15.483,0.333-20.25,1c-7.333,1.033-11,2.867-11,5.5C314.15-12.45,314.383-11.95,314.85-11.35z M328.65-44.3
				c0,2.233-2.283,3.65-6.85,4.25c-4.033,0.533-6.75,0.45-8.15-0.25c-0.733-0.167-1.566-0.483-2.5-0.95c-1.2-0.6-2.2-1.283-3-2.05
				c2.133-1.167,3.833-2.1,5.1-2.8c0.467-0.133,2.933-0.2,7.4-0.2c3.133,0,5.3,0.167,6.5,0.5C328.15-45.5,328.65-45,328.65-44.3z
				 M142.7-56.1c2.066,0.233,3.883,0.5,5.45,0.8h5.5v-1.9c-2.633,0.233-5.267,0.483-7.9,0.75
				C144.75-56.35,143.733-56.233,142.7-56.1z"/>
			<linearGradient id="SVGID_3_" gradientUnits="userSpaceOnUse" x1="370.6724" y1="28.1812" x2="370.1411" y2="-33.6438">
				<stop  offset="0" style="stop-color:#7A7C65"/>
				<stop  offset="0.9922" style="stop-color:#29270F"/>
			</linearGradient>
			<path style="fill-rule:evenodd;clip-rule:evenodd;fill:url(#SVGID_3_);" d="M359.2-51.05c2.3-0.133,4.617-0.233,6.95-0.3
				c3.4-0.367,6.817-0.667,10.25-0.9c2.1-2.133,6.033-3.217,11.8-3.25c5.733,0,10.033,0.467,12.9,1.4
				c2.867,0.934,4.933,1.617,6.2,2.05c2.133,0.167,4.267,0.367,6.4,0.6c6.066,0.534,12.133,1.083,18.2,1.65
				c-1.467-2.034-5.05-3.883-10.75-5.55c-7.967-2.333-17.55-3.5-28.75-3.5c-10.733,0-18.316,0.333-22.75,1
				c-7,1.033-10.5,3.117-10.5,6.25C359.15-51.433,359.167-51.25,359.2-51.05z M211.55-57.4c8.067,0.5,16.117,1.15,24.15,1.95
				c14.9,1.434,29.75,3.05,44.55,4.85c1.433,0.133,2.85,0.267,4.25,0.4c-3.4-1.933-8.683-3.65-15.85-5.15
				c-11.1-2.333-22.1-3.5-33-3.5c-6.7,0-13.367,0.333-20,1C214.183-57.717,212.817-57.567,211.55-57.4z M123.45-53.55
				c6.4-0.934,12.816-1.784,19.25-2.55c-1.133-0.133-2.333-0.25-3.6-0.35c-3.667-0.667-8.65-2.45-14.95-5.35
				c-2.833-1.3-4.983-2.434-6.45-3.4c-0.267-0.167-0.967-0.683-2.1-1.55c0.333-0.433,0.633-0.833,0.9-1.2
				c0.233-0.367,1.217-0.816,2.95-1.35c1.733-0.534,5.466-0.267,11.2,0.8s9.117,1.7,10.15,1.9c2.367,0.967,4.55,2.167,6.55,3.6
				c3.367,3,5.467,4.733,6.3,5.2v0.6c6.434-0.5,12.883-0.833,19.35-1c-4.167-2.066-9.067-4.15-14.7-6.25
				c-1.9-0.733-3.733-1.417-5.5-2.05c-0.333-0.2-0.683-0.4-1.05-0.6c-4.3-2.633-8.133-4.767-11.5-6.4
				c-3.9-1.933-7.917-3.633-12.05-5.1c-8.6,0.333-17.5,0.717-26.7,1.15c-2.6,0.133-5.15,0.25-7.65,0.35
				c-0.1,0.133-0.184,0.267-0.25,0.4c-0.267,0.567-0.4,1.767-0.4,3.6c0,2.333,0.55,4.167,1.65,5.5c0.167,0.2,0.35,0.417,0.55,0.65
				h-0.25c0.267,0.2,0.533,0.383,0.8,0.55C103.383-61.233,112.55-56.95,123.45-53.55z M569.1-65.25
				c-6.667-0.033-13.7-0.05-21.1-0.05c-0.2,0-0.383,0-0.55,0c-3.333,1.066-5.7,2.05-7.1,2.95c-2.9,1.833-4.35,4.517-4.35,8.05
				c0,2.533,2.667,4.6,8,6.2c6.167,1.867,15.167,2.8,27,2.8c15.8,0,33.867-2.934,54.2-8.8c8.733-2.533,15.833-5.15,21.3-7.85
				c-6.467-0.667-13.5-1.233-21.1-1.7c-0.733-0.033-1.466-0.083-2.2-0.15c-0.2,0.6-0.5,1.05-0.9,1.35
				c-1.167,0.9-4.466,2.083-9.9,3.55c-4.466,1.2-10.9,2.333-19.3,3.4c-7.5,0.933-12.867,1.4-16.1,1.4c-3.467,0-6.333-0.4-8.6-1.2
				c-2.667-0.934-4-2.267-4-4C564.4-61.833,565.967-63.817,569.1-65.25z"/>
			<linearGradient id="SVGID_4_" gradientUnits="userSpaceOnUse" x1="328.3433" y1="28.5449" x2="327.812" y2="-33.28">
				<stop  offset="0" style="stop-color:#7E8063"/>
				<stop  offset="1" style="stop-color:#363520"/>
			</linearGradient>
			<path style="fill-rule:evenodd;clip-rule:evenodd;fill:url(#SVGID_4_);" d="M400.3-0.65C409.167-0.183,418.067,0.033,427,0
				c0.1-0.167,0.15-0.367,0.15-0.6c0-2.467-1.15-5.15-3.45-8.05c-2.833-3.6-7.017-6.833-12.55-9.7
				c-14.633-7.566-36.133-11.4-64.5-11.5c-0.3,0-0.6,0-0.9,0h-0.1c-8.066,0.033-16.15,0.6-24.25,1.7
				c-16.833,2.267-25.25,6.033-25.25,11.3c0,1.067,0.2,1.767,0.6,2.1c0.4,0.167,0.783,0.333,1.15,0.5
				c0.267,0.067,0.533,0.117,0.8,0.15c5.367,0.934,10.75,1.85,16.15,2.75c-0.467-0.6-0.7-1.1-0.7-1.5c0-2.633,3.667-4.467,11-5.5
				c4.767-0.667,11.517-1,20.25-1c16.733,0,30.15,1.333,40.25,4c10.667,2.833,16,6.75,16,11.75C401.65-2.333,401.2-1.35,400.3-0.65z
				 M142.7-56.1c-6.434,0.767-12.85,1.617-19.25,2.55c0.3,0.1,0.6,0.2,0.9,0.3c13.8,4.3,27.9,6.45,42.3,6.45
				c5.533,0,9.7-0.517,12.5-1.55c2.333-0.833,3.5-1.9,3.5-3.2c0-1.067-2.367-2.85-7.1-5.35c-0.833-0.434-1.683-0.867-2.55-1.3
				c-6.467,0.167-12.917,0.5-19.35,1v1.9h-5.5C146.583-55.6,144.767-55.867,142.7-56.1z M515.55-23.75
				c-3.566,1.567-7.267,2.617-11.1,3.15c-2.4,0.367-4.75,0.517-7.05,0.45l0.6-0.3c-4.9-0.033-9.717-0.183-14.45-0.45
				c-6.5-0.2-11.583-2.8-15.25-7.8c0.2-0.1,0.85-1.033,1.95-2.8c1.1-1.733,7.933-2.35,20.5-1.85s19.9,1.6,22,3.3
				c2.1,1.7,3.1,2.683,3,2.95l0.3,3C515.883-23.967,515.717-23.85,515.55-23.75z M456.65-7.3l6-0.5c4-0.6,6-1.6,6-3
				c0-1.467-1.833-2.633-5.5-3.5c-2.833-0.667-5.75-1-8.75-1c-2.533,0-5.1,0.333-7.7,1c-3.034,0.767-4.55,1.683-4.55,2.75
				c0,0.367,0.717,1.183,2.15,2.45c0.233,0.2,0.45,0.383,0.65,0.55c1.8,0.6,3.883,0.983,6.25,1.15C452-7.333,453.817-7.3,456.65-7.3
				z M491.35-15.6c12.566-0.033,22.083-0.717,28.55-2.05c6.467-1.3,10.067-2.75,10.8-4.35c3.4-7.2,0.383-12.117-9.05-14.75
				c-8.6-2.333-17.316-4.033-26.15-5.1c-13.467-1.8-23.933-0.717-31.4,3.25s-9.217,9.083-5.25,15.35S473.65-14.433,491.35-15.6z
				 M448.65-12.3c1-0.333,2.75-0.5,5.25-0.5s4.25,0.167,5.25,0.5c-1.033,1.367-2.35,2.183-3.95,2.45
				c-0.833,0.133-1.833,0.117-3-0.05c-0.2-0.033-0.367-0.067-0.5-0.1c-0.5-0.067-1.017-0.183-1.55-0.35
				c-0.7-0.133-1.2-0.283-1.5-0.45V-12.3z M407.3-52.05c3.8,1.233,6.667,3.533,8.6,6.9c0.133,0.267,0.117,0.533-0.05,0.8
				c-1.233,2.033-3.184,3.1-5.85,3.2c-3.833,0.533-6.95,0.8-9.35,0.8c-2.433,0.033-5.283-0.25-8.55-0.85
				c-4.667-1.267-9.117-3.066-13.35-5.4c-2.633-1.533-3.417-3.417-2.35-5.65c-3.433,0.233-6.85,0.533-10.25,0.9
				c-2.333,0.067-4.65,0.167-6.95,0.3c0.466,3.333,5.483,6.65,15.05,9.95c2.367,0.8,4.833,1.567,7.4,2.3
				c1.133,0.333,2.3,0.65,3.5,0.95l1.2,0.3c2.566,0.367,4.217,0.583,4.95,0.65c0.733,0.066,1.817,0.117,3.25,0.15
				c1.4,0.033,2.333,0.067,2.8,0.1c0.2,0.033,0.467,0.05,0.8,0.05c0.934,0.033,2.783,0.167,5.55,0.4
				c2.733,0.233,8.216-0.617,16.45-2.55c8.2-1.933,12.333-4.15,12.4-6.65c0.067-2.467-0.15-3.934-0.65-4.4
				c-6.066-0.567-12.133-1.117-18.2-1.65C411.567-51.683,409.433-51.883,407.3-52.05z M328.65-44.3c0-0.7-0.5-1.2-1.5-1.5
				c-1.2-0.333-3.367-0.5-6.5-0.5c-4.467,0-6.933,0.066-7.4,0.2c-1.267,0.7-2.967,1.633-5.1,2.8c0.8,0.767,1.8,1.45,3,2.05
				c0.934,0.467,1.767,0.783,2.5,0.95c1.4,0.7,4.117,0.783,8.15,0.25C326.367-40.65,328.65-42.067,328.65-44.3z M284.5-50.2
				c-1.4-0.133-2.817-0.267-4.25-0.4c-14.8-1.8-29.65-3.417-44.55-4.85c-8.034-0.8-16.083-1.45-24.15-1.95
				c-6.933,0.967-10.4,2.233-10.4,3.8c0,3.2,4.684,7.3,14.05,12.3c5.4,2.867,9.617,4.867,12.65,6c0.9,0.167,1.867,0.316,2.9,0.45
				c0.633,0.1,3.733,0.717,9.3,1.85c5.534,1.133,11.267,1.417,17.2,0.85c5.9-0.567,12.7-1.6,20.4-3.1c7.667-1.5,11.5-4.533,11.5-9.1
				C289.15-46.483,287.6-48.433,284.5-50.2z M256.15-39.85c-2.6,0.333-5.683,0.5-9.25,0.5c-2.767,0-6.433-0.167-11-0.5
				c-10.433-4.9-16.017-8.4-16.75-10.5v-2.5c1.1-0.233,3.55-0.467,7.35-0.7c3.3-0.2,5.433-0.3,6.4-0.3c7.8,0,15.05,1.333,21.75,4
				c6,2.4,9,4.567,9,6.5C263.65-41.65,261.15-40.483,256.15-39.85z"/>
		</g>
	</g>
</symbol>
<use xlink:href="#bg_x5F_hill_x5F_01"  width="684" height="80.503" y="-80.5" transform="matrix(1 0 0 -1 0 0)" style="overflow:visible;"/>
</svg>
