<?xml version="1.0" encoding="iso-8859-1"?>
<!-- Generator: Adobe Illustrator 16.0.0, SVG Export Plug-In . SVG Version: 6.00 Build 0)  -->
<!DOCTYPE svg PUBLIC "-//W3C//DTD SVG 1.1//EN" "http://www.w3.org/Graphics/SVG/1.1/DTD/svg11.dtd">
<svg version="1.1" id="Layer_1" xmlns="http://www.w3.org/2000/svg" xmlns:xlink="http://www.w3.org/1999/xlink" x="0px" y="0px"
	 width="757.4px" height="88.55px" viewBox="0 0 757.4 88.55" style="enable-background:new 0 0 757.4 88.55;" xml:space="preserve"
	>
<g>
	<g>
		<path style="fill-rule:evenodd;clip-rule:evenodd;fill:#262620;" d="M757.4,74.45h-3.7c-2.867-0.634-4.917-0.9-6.15-0.8
			c-3.033,0.3-6.05,0.566-9.05,0.8c-1.833,0.133-3.684,0.267-5.55,0.399c-1.767,0.334-3.267,0.617-4.5,0.851
			c-5.967,1.1-11.584,1.649-16.851,1.649c-12.333,0-32.35,1.733-60.05,5.2c-27.733,3.467-49.717,5.2-65.95,5.2
			c-15.566,0-37.733,0.134-66.5,0.4C493,88.417,478.9,88.55,476.8,88.55c-12.333,0-19.233-0.083-20.7-0.25
			c-4.866-0.566-7.566-2.35-8.1-5.35c-0.5-0.4-2.634-0.816-6.4-1.25c-3.866-0.467-8.666-0.851-14.399-1.15
			c-4.334-0.267-12.101-0.267-23.3,0c-7.834,0.2-11.801-0.05-11.9-0.75c0.094-0.031,0.186-0.048,0.275-0.05c-0.09,0-0.182,0-0.275,0
			c-14.7,0-37.567,0.4-68.6,1.2c-31.267,0.8-50.533,1.2-57.8,1.2c-4.934,0-22.55-1.733-52.85-5.2c-8.633-1.033-16-1.9-22.1-2.601
			H143.2c-2.534,0.233-5.05,0.467-7.55,0.7c-21.3,1.967-36.383,2.467-45.25,1.5c-15.967-1.833-31.483-1.866-46.55-0.1
			c-7.467,1-12.85,1.717-16.15,2.149c-5.7,0.767-10.4,1.15-14.1,1.15c-3.3,0-6.15-0.533-8.55-1.6c-2.233-1.233-3.917-2.034-5.05-2.4
			c1.3-0.634,5.15-2.184,11.55-4.65c3.367-1.333,8.9-3.233,16.6-5.699c1.467-0.467,3.017-0.95,4.65-1.45
			c0.3-0.367,2.917-1.283,7.85-2.75c39.267-18.733,83.667-33.534,133.2-44.4C224.883,5.6,274.2,0,321.8,0
			c21.567,0,48.733,1.417,81.5,4.25C414.667,5.217,425.9,6.3,437,7.5c11.634,0.833,46.45,3.633,104.45,8.4
			C596.083,20.367,663.1,37.933,742.5,68.6C747.434,70.5,752.4,72.45,757.4,74.45z M86,66.75c0-0.833-1.333-1.55-4-2.15
			c-2.667-0.566-5.867-0.85-9.6-0.85c-3.767,0-6.983,0.283-9.65,0.85c-2.633,0.601-3.95,1.317-3.95,2.15c0,0.8,1.317,1.5,3.95,2.1
			c2.667,0.601,5.883,0.9,9.65,0.9c3.733,0,6.934-0.3,9.6-0.9C84.667,68.25,86,67.55,86,66.75z M118,57.75
			c-3.767,0-6.983,0.283-9.65,0.85c-2.633,0.601-3.95,1.317-3.95,2.15c0,0.8,1.317,1.5,3.95,2.1c2.667,0.601,5.883,0.9,9.65,0.9
			c3.733,0,6.933-0.3,9.6-0.9c2.667-0.6,4-1.3,4-2.1c0-0.833-1.333-1.55-4-2.15C124.933,58.033,121.733,57.75,118,57.75z
			 M89.95,45.4C87.317,46,86,46.717,86,47.55c0,0.8,1.317,1.5,3.95,2.101c2.667,0.6,5.883,0.899,9.65,0.899
			c3.733,0,6.933-0.3,9.6-0.899c2.667-0.601,4-1.301,4-2.101c0-0.833-1.333-1.55-4-2.149c-2.667-0.567-5.867-0.851-9.6-0.851
			C95.833,44.55,92.617,44.833,89.95,45.4z M182.75,45.25c2.667,0.6,5.883,0.9,9.65,0.9c3.733,0,6.934-0.301,9.6-0.9
			c2.667-0.6,4-1.3,4-2.1c0-0.833-1.333-1.55-4-2.15c-2.667-0.567-5.867-0.85-9.6-0.85c-3.767,0-6.983,0.283-9.65,0.85
			c-2.633,0.6-3.95,1.317-3.95,2.15C178.8,43.95,180.117,44.65,182.75,45.25z M164.4,43.65c2.667-0.6,4-1.3,4-2.1
			c0-0.833-1.333-1.55-4-2.15c-2.633-0.566-5.833-0.85-9.6-0.85c-0.8,0-1.583,0.017-2.35,0.05c-2.767,0.1-5.2,0.367-7.3,0.8
			c-2.167,0.5-3.433,1.083-3.8,1.75c-0.1,0.133-0.15,0.267-0.15,0.4c0,0.8,1.316,1.5,3.95,2.1c2.667,0.6,5.883,0.9,9.65,0.9
			C158.567,44.55,161.767,44.25,164.4,43.65z M206.85,31.5c1.833-0.433,2.75-0.95,2.75-1.55c0-0.6-0.917-1.117-2.75-1.55
			c-1.833-0.433-4.05-0.65-6.65-0.65c-2.6,0-4.817,0.217-6.65,0.65c-1.833,0.434-2.75,0.95-2.75,1.55c0,0.6,0.917,1.117,2.75,1.55
			c1.833,0.433,4.05,0.65,6.65,0.65C202.8,32.15,205.017,31.933,206.85,31.5z M242.05,10.8c-1.833-0.433-4.05-0.65-6.65-0.65
			s-4.816,0.217-6.65,0.65c-1.833,0.434-2.75,0.95-2.75,1.55s0.917,1.117,2.75,1.55c1.833,0.434,4.05,0.65,6.65,0.65
			s4.817-0.216,6.65-0.65c1.833-0.433,2.75-0.95,2.75-1.55S243.883,11.233,242.05,10.8z M248,72.55c3.733,0,6.933-0.3,9.6-0.899
			c2.667-0.601,4-1.301,4-2.101c0-0.833-1.333-1.55-4-2.149c-2.667-0.567-5.867-0.851-9.6-0.851c-3.767,0-6.983,0.283-9.65,0.851
			c-2.633,0.6-3.95,1.316-3.95,2.149c0,0.8,1.317,1.5,3.95,2.101C241.017,72.25,244.233,72.55,248,72.55z M261.15,47
			c-2.633,0.6-3.95,1.316-3.95,2.15c0,0.8,1.316,1.5,3.95,2.1c2.667,0.6,5.883,0.9,9.65,0.9c3.733,0,6.934-0.301,9.6-0.9
			c2.667-0.6,4-1.3,4-2.1c0-0.834-1.333-1.551-4-2.15c-2.667-0.566-5.867-0.85-9.6-0.85C267.033,46.15,263.817,46.434,261.15,47z
			 M247.55,29.1c1.833,0.433,4.05,0.65,6.65,0.65c2.6,0,4.816-0.217,6.65-0.65c1.833-0.434,2.75-0.95,2.75-1.55
			c0-0.6-0.917-1.117-2.75-1.55c-1.833-0.433-4.05-0.65-6.65-0.65c-2.6,0-4.817,0.217-6.65,0.65c-1.833,0.433-2.75,0.95-2.75,1.55
			C244.8,28.15,245.717,28.667,247.55,29.1z M279.65,9.5c1.833-0.433,2.75-0.95,2.75-1.55c0-0.6-0.917-1.117-2.75-1.55
			c-1.833-0.433-4.05-0.65-6.65-0.65s-4.817,0.217-6.65,0.65c-1.833,0.434-2.75,0.95-2.75,1.55c0,0.6,0.917,1.117,2.75,1.55
			c1.833,0.433,4.05,0.65,6.65,0.65S277.817,9.933,279.65,9.5z M291.8,14.55c2.6,0,4.817-0.216,6.65-0.65
			c1.833-0.433,2.75-0.95,2.75-1.55s-0.917-1.117-2.75-1.55c-1.833-0.433-4.05-0.65-6.65-0.65c-2.6,0-4.816,0.217-6.65,0.65
			c-1.833,0.434-2.75,0.95-2.75,1.55s0.917,1.117,2.75,1.55C286.983,14.333,289.2,14.55,291.8,14.55z M303.95,9.5
			c1.833,0.433,4.05,0.65,6.65,0.65s4.816-0.217,6.65-0.65S320,8.55,320,7.95c0-0.6-0.917-1.117-2.75-1.55
			c-1.833-0.433-4.05-0.65-6.65-0.65s-4.817,0.217-6.65,0.65c-1.833,0.434-2.75,0.95-2.75,1.55C301.2,8.55,302.117,9.067,303.95,9.5
			z M337.2,66.75c0-0.833-1.333-1.55-4-2.15c-2.667-0.566-5.867-0.85-9.6-0.85c-3.767,0-6.983,0.283-9.65,0.85
			c-2.633,0.601-3.95,1.317-3.95,2.15c0,0.8,1.317,1.5,3.95,2.1c2.667,0.601,5.883,0.9,9.65,0.9c3.733,0,6.933-0.3,9.6-0.9
			C335.867,68.25,337.2,67.55,337.2,66.75z M328.8,29.95c0-0.6-0.917-1.117-2.75-1.55c-1.833-0.433-4.05-0.65-6.65-0.65
			s-4.816,0.217-6.65,0.65c-1.833,0.434-2.75,0.95-2.75,1.55c0,0.6,0.917,1.117,2.75,1.55s4.05,0.65,6.65,0.65
			s4.817-0.217,6.65-0.65C327.883,31.067,328.8,30.55,328.8,29.95z M350.45,11.5c1.833-0.433,2.75-0.95,2.75-1.55
			c0-0.6-0.917-1.117-2.75-1.55c-1.833-0.433-4.05-0.65-6.65-0.65c-2.6,0-4.816,0.217-6.65,0.65c-1.833,0.434-2.75,0.95-2.75,1.55
			c0,0.6,0.917,1.117,2.75,1.55c1.833,0.433,4.05,0.65,6.65,0.65C346.4,12.15,348.617,11.933,350.45,11.5z M369,35.75
			c2.6,0,4.817-0.217,6.65-0.65c1.833-0.434,2.75-0.95,2.75-1.55c0-0.6-0.917-1.117-2.75-1.55c-1.833-0.433-4.05-0.65-6.65-0.65
			s-4.817,0.217-6.65,0.65c-1.833,0.433-2.75,0.95-2.75,1.55c0,0.6,0.917,1.117,2.75,1.55C364.183,35.533,366.4,35.75,369,35.75z
			 M372,18.75c0-0.6-0.917-1.117-2.75-1.55c-1.833-0.434-4.05-0.65-6.65-0.65s-4.817,0.217-6.65,0.65
			c-1.833,0.433-2.75,0.95-2.75,1.55s0.917,1.117,2.75,1.55c1.833,0.434,4.05,0.65,6.65,0.65s4.816-0.217,6.65-0.65
			C371.083,19.867,372,19.35,372,18.75z M394.45,12.8c-1.834-0.433-4.05-0.65-6.65-0.65c-2.6,0-4.816,0.217-6.649,0.65
			c-1.834,0.434-2.75,0.95-2.75,1.55s0.916,1.117,2.75,1.55c1.833,0.434,4.05,0.65,6.649,0.65c2.601,0,4.816-0.216,6.65-0.65
			c1.833-0.433,2.75-0.95,2.75-1.55S396.283,13.233,394.45,12.8z M416,54.95c3.733,0,6.934-0.3,9.6-0.9c2.667-0.6,4-1.3,4-2.1
			c0-0.834-1.333-1.55-4-2.15c-2.666-0.566-5.866-0.85-9.6-0.85c-3.767,0-6.983,0.283-9.65,0.85
			c-2.633,0.601-3.949,1.316-3.949,2.15c0,0.8,1.316,1.5,3.949,2.1C409.017,54.65,412.233,54.95,416,54.95z M409.6,31.95
			c0-0.6-0.916-1.117-2.75-1.55c-1.833-0.433-4.05-0.65-6.649-0.65c-2.601,0-4.816,0.217-6.65,0.65
			c-1.833,0.434-2.75,0.95-2.75,1.55c0,0.6,0.917,1.117,2.75,1.55c1.834,0.433,4.05,0.65,6.65,0.65c2.6,0,4.816-0.217,6.649-0.65
			C408.684,33.067,409.6,32.55,409.6,31.95z M429.25,20.3c1.833-0.433,2.75-0.95,2.75-1.55s-0.917-1.117-2.75-1.55
			c-1.833-0.434-4.05-0.65-6.65-0.65c-2.6,0-4.816,0.217-6.649,0.65c-1.834,0.433-2.75,0.95-2.75,1.55s0.916,1.117,2.75,1.55
			c1.833,0.434,4.05,0.65,6.649,0.65C425.2,20.95,427.417,20.733,429.25,20.3z M454.8,32.75c0-0.833-1.333-1.55-4-2.15
			c-2.666-0.567-5.866-0.85-9.6-0.85c-3.767,0-6.983,0.283-9.65,0.85c-2.633,0.6-3.95,1.316-3.95,2.15c0,0.8,1.317,1.5,3.95,2.1
			c2.667,0.6,5.884,0.9,9.65,0.9c3.733,0,6.934-0.3,9.6-0.9C453.467,34.25,454.8,33.55,454.8,32.75z M485.65,19.6
			c-1.834-0.434-4.051-0.65-6.65-0.65s-4.816,0.216-6.65,0.65c-1.833,0.433-2.75,0.95-2.75,1.55s0.917,1.117,2.75,1.55
			c1.834,0.433,4.051,0.65,6.65,0.65s4.816-0.217,6.65-0.65c1.833-0.434,2.75-0.95,2.75-1.55S487.483,20.033,485.65,19.6z
			 M551.6,66.75c0-0.833-1.333-1.55-4-2.15c-2.666-0.566-5.866-0.85-9.6-0.85c-3.767,0-6.983,0.283-9.65,0.85
			c-2.633,0.601-3.949,1.317-3.949,2.15c0,0.8,1.316,1.5,3.949,2.1c2.667,0.601,5.884,0.9,9.65,0.9c3.733,0,6.934-0.3,9.6-0.9
			C550.267,68.25,551.6,67.55,551.6,66.75z M490.4,72.55c3.733,0,6.933-0.3,9.6-0.899c2.667-0.601,4-1.301,4-2.101
			c0-0.833-1.333-1.55-4-2.149c-2.667-0.567-5.866-0.851-9.6-0.851c-3.767,0-6.983,0.283-9.65,0.851
			c-2.634,0.6-3.95,1.316-3.95,2.149c0,0.8,1.316,1.5,3.95,2.101C483.417,72.25,486.634,72.55,490.4,72.55z M502,46.15
			c-3.767,0-6.983,0.283-9.65,0.85c-2.633,0.6-3.949,1.316-3.949,2.15c0,0.8,1.316,1.5,3.949,2.1c2.667,0.6,5.884,0.9,9.65,0.9
			c3.733,0,6.934-0.301,9.6-0.9c2.667-0.6,4-1.3,4-2.1c0-0.834-1.333-1.551-4-2.15C508.934,46.434,505.733,46.15,502,46.15z
			 M504,29.95c0-0.6-0.917-1.117-2.75-1.55c-1.833-0.433-4.05-0.65-6.65-0.65c-2.6,0-4.816,0.217-6.649,0.65
			c-1.834,0.434-2.75,0.95-2.75,1.55c0,0.6,0.916,1.117,2.75,1.55c1.833,0.433,4.05,0.65,6.649,0.65c2.601,0,4.817-0.217,6.65-0.65
			S504,30.55,504,29.95z M543.25,24c-1.833-0.433-4.05-0.65-6.65-0.65c-2.6,0-4.816,0.217-6.649,0.65
			c-1.834,0.433-2.75,0.95-2.75,1.55c0,0.6,0.916,1.117,2.75,1.55c1.833,0.433,4.05,0.65,6.649,0.65c2.601,0,4.817-0.217,6.65-0.65
			c1.833-0.434,2.75-0.95,2.75-1.55C546,24.95,545.083,24.433,543.25,24z M644,60.75c0-0.833-1.333-1.55-4-2.15
			c-2.667-0.566-5.866-0.85-9.6-0.85c-3.767,0-6.983,0.283-9.65,0.85c-2.634,0.601-3.95,1.317-3.95,2.15c0,0.8,1.316,1.5,3.95,2.1
			c2.667,0.601,5.884,0.9,9.65,0.9c3.733,0,6.933-0.3,9.6-0.9C642.667,62.25,644,61.55,644,60.75z M578.4,71.65
			c2.666-0.601,4-1.301,4-2.101c0-0.833-1.334-1.55-4-2.149c-2.667-0.567-5.867-0.851-9.601-0.851c-3.767,0-6.983,0.283-9.649,0.851
			c-2.634,0.6-3.95,1.316-3.95,2.149c0,0.8,1.316,1.5,3.95,2.101c2.666,0.6,5.883,0.899,9.649,0.899
			C572.533,72.55,575.733,72.25,578.4,71.65z M573.2,49.15c0-0.834-1.334-1.551-4-2.15c-2.667-0.566-5.867-0.85-9.601-0.85
			c-3.767,0-6.983,0.283-9.649,0.85c-2.634,0.6-3.95,1.316-3.95,2.15c0,0.8,1.316,1.5,3.95,2.1c2.666,0.6,5.883,0.9,9.649,0.9
			c3.733,0,6.934-0.301,9.601-0.9C571.866,50.65,573.2,49.95,573.2,49.15z M617.55,41c-2.633,0.6-3.95,1.317-3.95,2.15
			c0,0.8,1.317,1.5,3.95,2.1c2.667,0.6,5.884,0.9,9.65,0.9c3.733,0,6.934-0.301,9.6-0.9c2.667-0.6,4-1.3,4-2.1
			c0-0.833-1.333-1.55-4-2.15c-2.666-0.567-5.866-0.85-9.6-0.85C623.434,40.15,620.217,40.433,617.55,41z"/>
		<path style="fill-rule:evenodd;clip-rule:evenodd;fill:#303028;" d="M617.55,41c2.667-0.567,5.884-0.85,9.65-0.85
			c3.733,0,6.934,0.283,9.6,0.85c2.667,0.6,4,1.317,4,2.15c0,0.8-1.333,1.5-4,2.1c-2.666,0.6-5.866,0.9-9.6,0.9
			c-3.767,0-6.983-0.301-9.65-0.9c-2.633-0.6-3.95-1.3-3.95-2.1C613.6,42.317,614.917,41.6,617.55,41z M573.2,49.15
			c0,0.8-1.334,1.5-4,2.1c-2.667,0.6-5.867,0.9-9.601,0.9c-3.767,0-6.983-0.301-9.649-0.9c-2.634-0.6-3.95-1.3-3.95-2.1
			c0-0.834,1.316-1.551,3.95-2.15c2.666-0.566,5.883-0.85,9.649-0.85c3.733,0,6.934,0.283,9.601,0.85
			C571.866,47.6,573.2,48.316,573.2,49.15z M578.4,71.65c-2.667,0.6-5.867,0.899-9.601,0.899c-3.767,0-6.983-0.3-9.649-0.899
			c-2.634-0.601-3.95-1.301-3.95-2.101c0-0.833,1.316-1.55,3.95-2.149c2.666-0.567,5.883-0.851,9.649-0.851
			c3.733,0,6.934,0.283,9.601,0.851c2.666,0.6,4,1.316,4,2.149C582.4,70.35,581.066,71.05,578.4,71.65z M644,60.75
			c0,0.8-1.333,1.5-4,2.1c-2.667,0.601-5.866,0.9-9.6,0.9c-3.767,0-6.983-0.3-9.65-0.9c-2.634-0.6-3.95-1.3-3.95-2.1
			c0-0.833,1.316-1.55,3.95-2.15c2.667-0.566,5.884-0.85,9.65-0.85c3.733,0,6.933,0.283,9.6,0.85C642.667,59.2,644,59.917,644,60.75
			z M543.25,24c1.833,0.433,2.75,0.95,2.75,1.55c0,0.6-0.917,1.117-2.75,1.55c-1.833,0.433-4.05,0.65-6.65,0.65
			c-2.6,0-4.816-0.217-6.649-0.65c-1.834-0.434-2.75-0.95-2.75-1.55c0-0.6,0.916-1.117,2.75-1.55c1.833-0.433,4.05-0.65,6.649-0.65
			C539.2,23.35,541.417,23.567,543.25,24z M504,29.95c0,0.6-0.917,1.117-2.75,1.55s-4.05,0.65-6.65,0.65
			c-2.6,0-4.816-0.217-6.649-0.65c-1.834-0.433-2.75-0.95-2.75-1.55c0-0.6,0.916-1.117,2.75-1.55c1.833-0.433,4.05-0.65,6.649-0.65
			c2.601,0,4.817,0.217,6.65,0.65C503.083,28.833,504,29.35,504,29.95z M502,46.15c3.733,0,6.934,0.283,9.6,0.85
			c2.667,0.6,4,1.316,4,2.15c0,0.8-1.333,1.5-4,2.1c-2.666,0.6-5.866,0.9-9.6,0.9c-3.767,0-6.983-0.301-9.65-0.9
			c-2.633-0.6-3.949-1.3-3.949-2.1c0-0.834,1.316-1.551,3.949-2.15C495.017,46.434,498.233,46.15,502,46.15z M490.4,72.55
			c-3.767,0-6.983-0.3-9.65-0.899c-2.634-0.601-3.95-1.301-3.95-2.101c0-0.833,1.316-1.55,3.95-2.149
			c2.667-0.567,5.884-0.851,9.65-0.851c3.733,0,6.933,0.283,9.6,0.851c2.667,0.6,4,1.316,4,2.149c0,0.8-1.333,1.5-4,2.101
			C497.333,72.25,494.134,72.55,490.4,72.55z M551.6,66.75c0,0.8-1.333,1.5-4,2.1c-2.666,0.601-5.866,0.9-9.6,0.9
			c-3.767,0-6.983-0.3-9.65-0.9c-2.633-0.6-3.949-1.3-3.949-2.1c0-0.833,1.316-1.55,3.949-2.15c2.667-0.566,5.884-0.85,9.65-0.85
			c3.733,0,6.934,0.283,9.6,0.85C550.267,65.2,551.6,65.917,551.6,66.75z M485.65,19.6c1.833,0.433,2.75,0.95,2.75,1.55
			s-0.917,1.117-2.75,1.55c-1.834,0.433-4.051,0.65-6.65,0.65s-4.816-0.217-6.65-0.65c-1.833-0.434-2.75-0.95-2.75-1.55
			s0.917-1.117,2.75-1.55c1.834-0.434,4.051-0.65,6.65-0.65S483.816,19.167,485.65,19.6z M454.8,32.75c0,0.8-1.333,1.5-4,2.1
			c-2.666,0.6-5.866,0.9-9.6,0.9c-3.767,0-6.983-0.3-9.65-0.9c-2.633-0.6-3.95-1.3-3.95-2.1c0-0.833,1.317-1.55,3.95-2.15
			c2.667-0.567,5.884-0.85,9.65-0.85c3.733,0,6.934,0.283,9.6,0.85C453.467,31.2,454.8,31.917,454.8,32.75z M429.25,20.3
			c-1.833,0.434-4.05,0.65-6.65,0.65c-2.6,0-4.816-0.217-6.649-0.65c-1.834-0.433-2.75-0.95-2.75-1.55s0.916-1.117,2.75-1.55
			c1.833-0.434,4.05-0.65,6.649-0.65c2.601,0,4.817,0.217,6.65,0.65c1.833,0.433,2.75,0.95,2.75,1.55S431.083,19.867,429.25,20.3z
			 M409.6,31.95c0,0.6-0.916,1.117-2.75,1.55c-1.833,0.433-4.05,0.65-6.649,0.65c-2.601,0-4.816-0.217-6.65-0.65
			c-1.833-0.433-2.75-0.95-2.75-1.55c0-0.6,0.917-1.117,2.75-1.55c1.834-0.433,4.05-0.65,6.65-0.65c2.6,0,4.816,0.217,6.649,0.65
			C408.684,30.833,409.6,31.35,409.6,31.95z M416,54.95c-3.767,0-6.983-0.3-9.65-0.9c-2.633-0.6-3.949-1.3-3.949-2.1
			c0-0.834,1.316-1.55,3.949-2.15c2.667-0.566,5.884-0.85,9.65-0.85c3.733,0,6.934,0.283,9.6,0.85c2.667,0.601,4,1.316,4,2.15
			c0,0.8-1.333,1.5-4,2.1C422.934,54.65,419.733,54.95,416,54.95z M394.45,12.8c1.833,0.434,2.75,0.95,2.75,1.55
			s-0.917,1.117-2.75,1.55c-1.834,0.434-4.05,0.65-6.65,0.65c-2.6,0-4.816-0.216-6.649-0.65c-1.834-0.433-2.75-0.95-2.75-1.55
			s0.916-1.117,2.75-1.55c1.833-0.433,4.05-0.65,6.649-0.65C390.4,12.15,392.616,12.367,394.45,12.8z M372,18.75
			c0,0.6-0.917,1.117-2.75,1.55c-1.833,0.434-4.05,0.65-6.65,0.65s-4.817-0.217-6.65-0.65c-1.833-0.433-2.75-0.95-2.75-1.55
			s0.917-1.117,2.75-1.55c1.833-0.434,4.05-0.65,6.65-0.65s4.816,0.217,6.65,0.65C371.083,17.633,372,18.15,372,18.75z M369,35.75
			c-2.6,0-4.817-0.217-6.65-0.65c-1.833-0.434-2.75-0.95-2.75-1.55c0-0.6,0.917-1.117,2.75-1.55c1.833-0.433,4.05-0.65,6.65-0.65
			s4.817,0.217,6.65,0.65c1.833,0.433,2.75,0.95,2.75,1.55c0,0.6-0.917,1.117-2.75,1.55C373.817,35.533,371.6,35.75,369,35.75z
			 M350.45,11.5c-1.833,0.433-4.05,0.65-6.65,0.65c-2.6,0-4.816-0.217-6.65-0.65c-1.833-0.433-2.75-0.95-2.75-1.55
			c0-0.6,0.917-1.117,2.75-1.55c1.833-0.433,4.05-0.65,6.65-0.65c2.6,0,4.817,0.217,6.65,0.65c1.833,0.434,2.75,0.95,2.75,1.55
			C353.2,10.55,352.283,11.067,350.45,11.5z M328.8,29.95c0,0.6-0.917,1.117-2.75,1.55c-1.833,0.433-4.05,0.65-6.65,0.65
			s-4.816-0.217-6.65-0.65S310,30.55,310,29.95c0-0.6,0.917-1.117,2.75-1.55c1.833-0.433,4.05-0.65,6.65-0.65s4.817,0.217,6.65,0.65
			C327.883,28.833,328.8,29.35,328.8,29.95z M337.2,66.75c0,0.8-1.333,1.5-4,2.1c-2.667,0.601-5.867,0.9-9.6,0.9
			c-3.767,0-6.983-0.3-9.65-0.9c-2.633-0.6-3.95-1.3-3.95-2.1c0-0.833,1.317-1.55,3.95-2.15c2.667-0.566,5.883-0.85,9.65-0.85
			c3.733,0,6.933,0.283,9.6,0.85C335.867,65.2,337.2,65.917,337.2,66.75z M303.95,9.5c-1.833-0.433-2.75-0.95-2.75-1.55
			c0-0.6,0.917-1.117,2.75-1.55c1.833-0.433,4.05-0.65,6.65-0.65s4.816,0.217,6.65,0.65c1.833,0.434,2.75,0.95,2.75,1.55
			c0,0.6-0.917,1.117-2.75,1.55s-4.05,0.65-6.65,0.65S305.783,9.933,303.95,9.5z M291.8,14.55c-2.6,0-4.816-0.216-6.65-0.65
			c-1.833-0.433-2.75-0.95-2.75-1.55s0.917-1.117,2.75-1.55c1.833-0.433,4.05-0.65,6.65-0.65c2.6,0,4.817,0.217,6.65,0.65
			c1.833,0.434,2.75,0.95,2.75,1.55s-0.917,1.117-2.75,1.55C296.617,14.333,294.4,14.55,291.8,14.55z M279.65,9.5
			c-1.833,0.433-4.05,0.65-6.65,0.65s-4.817-0.217-6.65-0.65c-1.833-0.433-2.75-0.95-2.75-1.55c0-0.6,0.917-1.117,2.75-1.55
			c1.833-0.433,4.05-0.65,6.65-0.65s4.817,0.217,6.65,0.65c1.833,0.434,2.75,0.95,2.75,1.55C282.4,8.55,281.483,9.067,279.65,9.5z
			 M247.55,29.1c-1.833-0.434-2.75-0.95-2.75-1.55c0-0.6,0.917-1.117,2.75-1.55c1.833-0.433,4.05-0.65,6.65-0.65
			c2.6,0,4.816,0.217,6.65,0.65c1.833,0.433,2.75,0.95,2.75,1.55c0,0.6-0.917,1.117-2.75,1.55c-1.833,0.433-4.05,0.65-6.65,0.65
			C251.6,29.75,249.383,29.533,247.55,29.1z M261.15,47c2.667-0.566,5.883-0.85,9.65-0.85c3.733,0,6.934,0.283,9.6,0.85
			c2.667,0.6,4,1.316,4,2.15c0,0.8-1.333,1.5-4,2.1c-2.667,0.6-5.867,0.9-9.6,0.9c-3.767,0-6.983-0.301-9.65-0.9
			c-2.633-0.6-3.95-1.3-3.95-2.1C257.2,48.316,258.517,47.6,261.15,47z M248,72.55c-3.767,0-6.983-0.3-9.65-0.899
			c-2.633-0.601-3.95-1.301-3.95-2.101c0-0.833,1.317-1.55,3.95-2.149c2.667-0.567,5.883-0.851,9.65-0.851
			c3.733,0,6.933,0.283,9.6,0.851c2.667,0.6,4,1.316,4,2.149c0,0.8-1.333,1.5-4,2.101C254.933,72.25,251.733,72.55,248,72.55z
			 M242.05,10.8c1.833,0.434,2.75,0.95,2.75,1.55s-0.917,1.117-2.75,1.55c-1.833,0.434-4.05,0.65-6.65,0.65s-4.816-0.216-6.65-0.65
			c-1.833-0.433-2.75-0.95-2.75-1.55s0.917-1.117,2.75-1.55c1.833-0.433,4.05-0.65,6.65-0.65S240.217,10.367,242.05,10.8z
			 M206.85,31.5c-1.833,0.433-4.05,0.65-6.65,0.65c-2.6,0-4.817-0.217-6.65-0.65c-1.833-0.433-2.75-0.95-2.75-1.55
			c0-0.6,0.917-1.117,2.75-1.55c1.833-0.433,4.05-0.65,6.65-0.65c2.6,0,4.816,0.217,6.65,0.65c1.833,0.434,2.75,0.95,2.75,1.55
			C209.6,30.55,208.683,31.067,206.85,31.5z M164.4,43.65c-2.633,0.6-5.833,0.9-9.6,0.9c-3.767,0-6.983-0.3-9.65-0.9
			c-2.633-0.6-3.95-1.3-3.95-2.1c0-0.133,0.05-0.267,0.15-0.4c0.367-0.667,1.633-1.25,3.8-1.75c2.1-0.433,4.533-0.7,7.3-0.8
			c0.767-0.033,1.55-0.05,2.35-0.05c3.767,0,6.967,0.284,9.6,0.85c2.667,0.6,4,1.317,4,2.15C168.4,42.35,167.067,43.05,164.4,43.65z
			 M182.75,45.25c-2.633-0.6-3.95-1.3-3.95-2.1c0-0.833,1.317-1.55,3.95-2.15c2.667-0.567,5.883-0.85,9.65-0.85
			c3.733,0,6.934,0.283,9.6,0.85c2.667,0.6,4,1.317,4,2.15c0,0.8-1.333,1.5-4,2.1c-2.667,0.6-5.867,0.9-9.6,0.9
			C188.633,46.15,185.417,45.85,182.75,45.25z M89.95,45.4c2.667-0.567,5.883-0.851,9.65-0.851c3.733,0,6.933,0.284,9.6,0.851
			c2.667,0.6,4,1.316,4,2.149c0,0.8-1.333,1.5-4,2.101c-2.667,0.6-5.867,0.899-9.6,0.899c-3.767,0-6.983-0.3-9.65-0.899
			C87.317,49.05,86,48.35,86,47.55C86,46.717,87.317,46,89.95,45.4z M118,57.75c3.733,0,6.933,0.283,9.6,0.85
			c2.667,0.601,4,1.317,4,2.15c0,0.8-1.333,1.5-4,2.1c-2.667,0.601-5.867,0.9-9.6,0.9c-3.767,0-6.983-0.3-9.65-0.9
			c-2.633-0.6-3.95-1.3-3.95-2.1c0-0.833,1.317-1.55,3.95-2.15C111.017,58.033,114.233,57.75,118,57.75z M86,66.75
			c0,0.8-1.333,1.5-4,2.1c-2.667,0.601-5.867,0.9-9.6,0.9c-3.767,0-6.983-0.3-9.65-0.9c-2.633-0.6-3.95-1.3-3.95-2.1
			c0-0.833,1.317-1.55,3.95-2.15c2.667-0.566,5.883-0.85,9.65-0.85c3.733,0,6.934,0.283,9.6,0.85C84.667,65.2,86,65.917,86,66.75z"
			/>
	</g>
</g>
</svg>
