<?xml version="1.0" encoding="iso-8859-1"?>
<!-- Generator: Adobe Illustrator 16.0.0, SVG Export Plug-In . SVG Version: 6.00 Build 0)  -->
<!DOCTYPE svg PUBLIC "-//W3C//DTD SVG 1.1//EN" "http://www.w3.org/Graphics/SVG/1.1/DTD/svg11.dtd">
<svg version="1.1" id="Layer_1" xmlns="http://www.w3.org/2000/svg" xmlns:xlink="http://www.w3.org/1999/xlink" x="0px" y="0px"
	 width="967px" height="83px" viewBox="0 0 967 83" style="enable-background:new 0 0 967 83;" xml:space="preserve">
<symbol  id="bg_x5F_hill_x5F_02" viewBox="-0.013 -79.9 963.763 79.9">
	<g id="Layer_3_1_">
		<g>
			<linearGradient id="SVGID_1_" gradientUnits="userSpaceOnUse" x1="485.5562" y1="44.4004" x2="484.9738" y2="-23.4495">
				<stop  offset="0.0039" style="stop-color:#797B63"/>
				<stop  offset="1" style="stop-color:#1A1A0D"/>
			</linearGradient>
			<path style="fill-rule:evenodd;clip-rule:evenodd;fill:url(#SVGID_1_);" d="M899.2-46.8c-0.367-0.2-0.733-0.4-1.1-0.6
				c-3.1-1.7-4.65-3.4-4.65-5.1c0-1.5,0.8-2.5,2.4-3c1.633-0.533,4.833-0.8,9.6-0.8c3.466,0,5.866,0.133,7.2,0.4l5.6,1.15
				c1.8-0.733,3.617-1.5,5.45-2.3c-0.567-0.233-1.167-0.467-1.8-0.7c-4.533-1.7-9.083-2.55-13.65-2.55c-7.633,0-13.767,0.667-18.4,2
				c-4,1.167-6,2.5-6,4c0,1.966,2.117,4.2,6.35,6.7c1.5,0.9,3.1,1.717,4.8,2.45C896.4-45.683,897.8-46.233,899.2-46.8z M806.1-15.1
				c-0.3-0.1-0.534-0.183-0.7-0.25c-3.7-1.5-5.55-3.283-5.55-5.35c0-3.5,6.667-5.75,20-6.75c6.466-0.5,12.917-0.783,19.35-0.85
				c0.066,0,0.133,0,0.2,0c0.133,0,0.284,0,0.45,0c2.333,0.066,4.867,0.316,7.6,0.75c6.966-2.333,14.1-4.833,21.4-7.5
				c-4.233-1.1-10.9-1.65-20-1.65c-15.434,0-29.767,1.6-43,4.8c-13.333,3.233-20,6.767-20,10.6c0,3.133,1.466,5.833,4.4,8.1
				c0.633,0.5,1.4,1,2.3,1.5C796.883-12.7,801.4-13.833,806.1-15.1z M716.9-75.1c1.733,2.434,3.267,4.3,4.6,5.6
				c0.3,0.3,1.217,1,2.75,2.1l1.45,1.05c5.267,3.8,11.066,6.9,17.4,9.3c11.9,4.5,25.75,6.75,41.55,6.75
				c7.567,0,13.167-0.934,16.8-2.8c2.667-1.367,4-2.967,4-4.8c0-0.434-0.067-0.883-0.2-1.35c-0.5-1.633-1.867-3.333-4.1-5.1
				c-1.667-1.733-3.4-3.3-5.2-4.7c-4.434-3.434-10.85-7.034-19.25-10.8c-2.4-0.033-4.617-0.05-6.65-0.05
				c-2.8,0-6.083,0.183-9.85,0.55c5.066,2.233,10,5.05,14.8,8.45c1.1,0.8,2.167,1.583,3.2,2.35h-0.5c0.566,0.4,1.15,0.816,1.75,1.25
				c0.733,0.533,1.4,1.017,2,1.45c2.667,2.1,4,3.483,4,4.15c0,1.133-0.534,1.867-1.6,2.2c-0.833,0.267-2.633,0.4-5.4,0.4
				c-2.5,0-8.95-1.167-19.35-3.5c-9.867-2.233-15.967-4.2-18.3-5.9h-0.95c-0.6-0.5-1.167-1.017-1.7-1.55
				c-1.933-1.934-2.9-3.684-2.9-5.25c0-0.3,0.1-0.583,0.3-0.85C729.35-75.517,723.133-75.167,716.9-75.1z M608.45-32.6
				c-4.634-1.933-6.967-3.566-7-4.9c0.767-0.767,1.8-1.25,3.1-1.45c0.634-0.1,2.067-0.15,4.3-0.15c6.1,0,12.15,0.934,18.15,2.8
				c6.566,2.066,9.65,3.933,9.25,5.6c0.6,1.667,0.233,2.567-1.1,2.7c-0.5,0.067-1.867,0.1-4.1,0.1c-3.767,0-8.683-0.717-14.75-2.15
				c-0.966-0.2-1.95-0.434-2.95-0.7C611.95-31.217,610.316-31.833,608.45-32.6z M473.7-77.65c0.3,2.7,2.55,6.233,6.75,10.6
				c1.167,1.233,2.783,2.583,4.85,4.05c2.833,3.167,8.35,6.2,16.55,9.1c12.1,4.267,24.433,6.4,37,6.4c14.9,0,28.7-0.933,41.4-2.8
				c14.333-2.1,21.783-4.833,22.35-8.2c0.033-0.133,0.05-0.267,0.05-0.4c0-0.533-0.466-1.133-1.4-1.8
				c-2.3-2.367-7.383-5.066-15.25-8.1c-5.434-2.067-10.4-3.65-14.9-4.75c-8.067,0-15.333-0.05-21.8-0.15
				c3.5,1.567,6.817,3.383,9.95,5.45c5.6,3.667,8.4,6.25,8.4,7.75c0,0.433-0.05,0.833-0.15,1.2c-0.7,1.033-2.316,1.9-4.85,2.6
				c-3,0.8-6.6,1.2-10.8,1.2c-9.434,0-18.617-0.95-27.55-2.85c-6.633-1.4-13.4-3.816-20.3-7.25c-1.367-1.167-2.483-2.133-3.35-2.9
				c-1.3-1.133-2.6-2.867-3.9-5.2c-0.833-1.533-1.433-2.85-1.8-3.95c-0.333-0.067-0.667-0.15-1-0.25c-0.034,0-0.067,0-0.1,0
				C489.55-77.9,482.833-77.817,473.7-77.65z M45.5-76.9c3.667,3.4,7.367,6.316,11.1,8.75h-1.55c0.133,0.1,0.284,0.183,0.45,0.25
				c1.7,0.8,5.817,2.8,12.35,6c9.566,4.933,21.033,8.417,34.4,10.45c8.433,1.3,16.967,1.95,25.6,1.95c7.7,0,13.167-0.8,16.4-2.4
				c2.667-1.333,4-3.333,4-6c0.133-2.633-2.083-5.983-6.65-10.05c-3.833-3.433-8.783-6.566-14.85-9.4
				c-0.267,0.033-0.55,0.05-0.85,0.05c-8.033,0.433-15.566,0.767-22.6,1c6.567,2.267,12.15,4.966,16.75,8.1h-0.25
				c0.567,0.333,1.117,0.65,1.65,0.95c3.133,1.9,4.95,3.55,5.45,4.95c0.1,0.267,0.15,0.533,0.15,0.8c0,1.167-0.4,1.967-1.2,2.4
				c-1,0.533-3,0.8-6,0.8c-7.267,0-17.417-1.95-30.45-5.85c-3.4-1.167-6.316-2.167-8.75-3c-1.433-0.867-2.767-1.833-4-2.9
				c-2.7-2.7-5.017-4.767-6.95-6.2L45.5-76.9z M85.65-37.8c5.033,1.533,10.117,3.05,15.25,4.55c0.434-0.167,0.917-0.317,1.45-0.45
				c2.5-0.667,5.667-1,9.5-1c7.2,0,13.867,1.067,20,3.2c5.867,2,8.8,4.067,8.8,6.2c0,0.867-0.683,1.55-2.05,2.05
				c-0.2,0.067-0.417,0.133-0.65,0.2c1.966,0.533,3.933,1.05,5.9,1.55c3.566,0.933,7.117,1.833,10.65,2.7
				c0.367-0.8,0.55-1.633,0.55-2.5c0-5.034-4.267-9.5-12.8-13.4c-9.267-4.267-20.867-6.4-34.8-6.4c-6.4,0-11.733,0.4-16,1.2
				C88.117-39.3,86.183-38.6,85.65-37.8z M237.8-35.25c8.833-2.833,13.25-5.583,13.25-8.25s-4.417-4.45-13.25-5.35
				c-8.833-0.9-19.483-0.65-31.95,0.75c-12.467,1.367-23.117,3.467-31.95,6.3c-8.833,2.867-13.25,5.633-13.25,8.3
				s4.417,4.433,13.25,5.3c8.833,0.9,19.483,0.667,31.95-0.7C218.317-30.3,228.967-32.417,237.8-35.25z M221.55-5.4
				c0.5-2.8,4.2-4.7,11.1-5.7c5.633-0.8,15.833-1.2,30.6-1.2c13.8,0,25.2,1.2,34.2,3.6c8.1,2.167,12.483,4.817,13.15,7.95
				c8.8-0.233,18.017-0.633,27.65-1.2c0-0.233,0-0.483,0-0.75c0-5.3-6.667-9.833-20-13.6c-13.267-3.733-29.267-5.6-48-5.6
				c-17.133,0-31.533,0.933-43.2,2.8c-14.4,2.3-21.6,5.7-21.6,10.2c0,0.367,0.017,0.667,0.05,0.9
				C210.9-7.033,216.25-6.167,221.55-5.4z M460.65-13.3c4.6-0.5,9.35-1.034,14.25-1.6c-1.566-0.9-2.767-1.633-3.6-2.2
				c-1.767-1.233-2.65-2.5-2.65-3.8c0-1.733,4.8-3.133,14.4-4.2c7-0.8,13-1.2,18-1.2c5.267,0,9.4,0.667,12.4,2
				c2.833,1.233,4.417,2.983,4.75,5.25c5.466-0.467,10.783-0.917,15.95-1.35c-0.167-0.2-0.35-0.434-0.55-0.7
				c-1.333-1.6-3.117-3.066-5.35-4.4c-6.667-4-15.867-6-27.6-6c-10.967,0-20.433,0.667-28.4,2c-10.667,1.8-16,4.533-16,8.2
				c0,3.633,1.35,6.25,4.05,7.85C460.367-13.417,460.483-13.367,460.65-13.3z M449.85-39.9c-1.7,0-4.633-0.233-8.8-0.7
				c-0.433-0.367-0.833-0.667-1.2-0.9v-1.2c1.1-0.167,2.717-0.35,4.85-0.55c1.9-0.167,3.15-0.25,3.75-0.25c3,0,4.783,0.067,5.35,0.2
				c1.467,0.333,2.417,1.333,2.85,3C455.317-40.033,453.05-39.9,449.85-39.9z M765.05-25.7c0-4.5-6.6-7.517-19.8-9.05
				c-4.267-0.5-8.8-0.8-13.6-0.9c-2.933-0.033-4.833-0.033-5.7,0c0.125,0.094,0.283,0.144,0.475,0.15c-0.329,0-0.654,0-0.975,0
				c-8.4,0.033-14.934,0.433-19.6,1.2c-9.067,1.533-13.6,4.466-13.6,8.8c0,1.967,1.184,3.65,3.55,5.05
				c1.634,0.934,4.917,2.25,9.85,3.95c0.2,0,0.417,0.017,0.65,0.05c1.934,0.167,3.917,0.417,5.95,0.75c4.066,0.667,8.4,1,13,1
				c0.333,0,2.667,0.017,7,0.05c5.033-0.067,9.566-0.35,13.6-0.85C758.65-17.067,765.05-20.467,765.05-25.7z M729.05-19.5
				c-6.733,0-11.383-0.083-13.95-0.25c-1.9-0.133-4.417-0.433-7.55-0.9c-1.033-0.333-1.95-0.667-2.75-1
				c-3.566-1.4-5.35-2.817-5.35-4.25c0-1.667,3.066-3.017,9.2-4.05c4.767-0.767,9.5-1.15,14.2-1.15c7.633,0,13.583,0.533,17.85,1.6
				c4.767,1.167,7.15,2.967,7.15,5.4c0,1.8-2,3.067-6,3.8C738.883-19.767,734.617-19.5,729.05-19.5z M664.65-47.5
				c0.934,0.933,3.684,2.383,8.25,4.35c1.767,0.467,3.434,0.85,5,1.15c3.067,0.6,5.784,0.9,8.15,0.9c0.667,0,2.467-0.133,5.4-0.4
				c-1-2.433-3.85-4.367-8.55-5.8c-3.966-1.2-8.117-1.8-12.45-1.8c-3.067,0.267-5,0.4-5.8,0.4V-47.5z M653.45-24.7
				c2.667-0.466,4-1.533,4-3.2c0-3.3-6.4-6.9-19.2-10.8c-12.2-3.733-22.467-5.6-30.8-5.6c-4.567,0-8.567,0.4-12,1.2
				c-4.267,0.967-6.4,2.367-6.4,4.2c0,3.3,3.017,6.133,9.05,8.5c0.5,0.2,2.75,0.867,6.75,2c4.533,0.867,9.833,1.65,15.9,2.35
				c9.633,1.167,17.6,1.75,23.9,1.75C649.05-24.3,651.983-24.433,653.45-24.7z M417.85-24.7c0-2.1-3.333-3.7-10-4.8
				c-6.367-1.067-15.3-1.6-26.8-1.6c-4.267,0-8.933,0.533-14,1.6c-6.133,1.3-9.2,2.833-9.2,4.6c0,1.733,1.433,3.45,4.3,5.15
				c4.233,1.433,7.967,2.3,11.2,2.6c3.2,0.3,6.633,0.45,10.3,0.45c5.567,0,11.5-0.417,17.8-1.25
				C412.383-19.35,417.85-21.6,417.85-24.7z M450.05-37.9c3.133,0,6.4-0.267,9.8-0.8c5.333-0.833,8-2.1,8-3.8
				c0-3.6-6.6-5.4-19.8-5.4c-5.767,0-9.816,0.267-12.15,0.8c-2.433,0.533-3.65,1.467-3.65,2.8c0,1.533,0.683,3.05,2.05,4.55
				c1.833,0.867,4.217,1.417,7.15,1.65C442.783-37.967,445.65-37.9,450.05-37.9z M384.85-19.1c-1.7,0-4.8-0.183-9.3-0.55
				c-0.6-0.033-1.15-0.083-1.65-0.15c-0.8,0.233-1.6,0.167-2.4-0.2c-0.267-0.133-0.533-0.283-0.8-0.45c-1.1-0.7-1.65-1.45-1.65-2.25
				c0-1.2,1.733-2.133,5.2-2.8c2.733-0.533,5.767-0.95,9.1-1.25c3.3-0.267,7.933,0.017,13.9,0.85c5.967,0.867,8.7,1.8,8.2,2.8
				c-0.9,1.434-4.3,2.517-10.2,3.25C391.317-19.35,387.85-19.1,384.85-19.1z M369.45-39.5l-7.2,0.4c-3.567-0.4-6.5-0.75-8.8-1.05
				c-0.367-0.067-0.7-0.117-1-0.15h-2.2c-0.133-0.133-0.267-0.267-0.4-0.4c-0.633-0.566-1.533-1.3-2.7-2.2
				c-0.867-0.667-1.3-1.2-1.3-1.6c0-1.733,5.867-2.6,17.6-2.6c5.1,0,8.7,0.533,10.8,1.6c1.6,0.8,2.4,2,2.4,3.6
				C376.65-40.8,374.25-40,369.45-39.5z M391.45-41.7c0-2.966-0.784-5.033-2.35-6.2c-3.2-2.4-9.95-3.6-20.25-3.6
				c-8.667,0-16.6,0.533-23.8,1.6c-8.533,1.267-12.8,2.933-12.8,5c0,2.167,2.983,4.283,8.95,6.35c2.1,0.733,5.85,1.783,11.25,3.15
				c4.633,0.467,8.167,0.7,10.6,0.7c0.067,0,4.817-0.4,14.25-1.2C386.733-37.233,391.45-39.167,391.45-41.7z M328.25-29.7
				c-1.1-0.4-1.767-0.6-2-0.6c-1.3,0-2.633,0.133-4,0.4c-2.4,0.433-3.6,1.167-3.6,2.2c0,0.6,0.184,1.067,0.55,1.4
				c3.9,0.3,6.083,0.433,6.55,0.4c2.633-0.2,4.267-1.267,4.9-3.2C330.15-29.1,329.35-29.3,328.25-29.7z M285.3-47.5
				c1.434,0.267,2.284,0.4,2.55,0.4c3.3,0,6.767-0.267,10.4-0.8c5.867-0.867,8.8-2.2,8.8-4c0-1.633-2.4-3.233-7.2-4.8
				c-5.733-1.867-12.934-2.8-21.6-2.8c-4.567,0-7.767,0.133-9.6,0.4c-2.933,0.434-4.4,1.3-4.4,2.6c0,2.567,2.533,4.867,7.6,6.9
				C279.683-48.4,284.167-47.7,285.3-47.5z M279.4-51.35c-0.933-0.1-1.683-0.483-2.25-1.15c-0.066,0-0.117-0.017-0.15-0.05
				c-1.267-0.733-2.317-1.583-3.15-2.55v-1.2c0.8,0,3.333-0.133,7.6-0.4c3.3,0,5.433,0.067,6.4,0.2c2.933,0.467,5.066,1.6,6.4,3.4v2
				c-0.4,0-1.417,0.133-3.05,0.4c-1.633,0.267-2.617,0.4-2.95,0.4c-0.633,0-2.467-0.2-5.5-0.6C281.317-51.1,280.2-51.25,279.4-51.35
				z M236.4-41.55c0,1.5-3.017,3.1-9.05,4.8c-6.067,1.733-13.367,3.067-21.9,4c-8.534,0.933-15.817,1.217-21.85,0.85
				c-6.067-0.367-9.1-1.3-9.1-2.8c0-1.466,3.033-3.05,9.1-4.75c6.033-1.7,13.316-3.017,21.85-3.95
				c8.533-0.934,15.833-1.233,21.9-0.9C233.383-43.933,236.4-43.017,236.4-41.55z"/>
			<linearGradient id="SVGID_2_" gradientUnits="userSpaceOnUse" x1="482.8975" y1="44.4238" x2="482.3151" y2="-23.4261">
				<stop  offset="0" style="stop-color:#878970"/>
				<stop  offset="1" style="stop-color:#272614"/>
			</linearGradient>
			<path style="fill-rule:evenodd;clip-rule:evenodd;fill:url(#SVGID_2_);" d="M899.2-46.8c6.233-2.534,12.583-5.184,19.05-7.95
				l-5.6-1.15c-1.333-0.267-3.733-0.4-7.2-0.4c-4.767,0-7.967,0.267-9.6,0.8c-1.6,0.5-2.4,1.5-2.4,3c0,1.7,1.55,3.4,4.65,5.1
				C898.467-47.2,898.833-47,899.2-46.8z M449.85-39.9c3.2,0,5.467-0.133,6.8-0.4c-0.433-1.667-1.383-2.667-2.85-3
				c-0.566-0.133-2.35-0.2-5.35-0.2c-0.6,0-1.85,0.083-3.75,0.25c-2.133,0.2-3.75,0.383-4.85,0.55v1.2
				c0.367,0.233,0.767,0.533,1.2,0.9C445.217-40.133,448.15-39.9,449.85-39.9z M518.2-19.05c-0.333-2.267-1.917-4.017-4.75-5.25
				c-3-1.333-7.133-2-12.4-2c-5,0-11,0.4-18,1.2c-9.6,1.067-14.4,2.467-14.4,4.2c0,1.3,0.883,2.566,2.65,3.8
				c0.833,0.567,2.034,1.3,3.6,2.2c0.4-0.033,0.8-0.067,1.2-0.1C491-16.533,505.033-17.883,518.2-19.05z M460.65-13.3
				c-0.167-0.067-0.283-0.117-0.35-0.15c-2.7-1.6-4.05-4.216-4.05-7.85c0-3.667,5.333-6.4,16-8.2c7.967-1.333,17.433-2,28.4-2
				c11.733,0,20.934,2,27.6,6c2.233,1.333,4.017,2.8,5.35,4.4c0.2,0.267,0.383,0.5,0.55,0.7c9.034-0.7,17.617-1.3,25.75-1.8
				c41.567,0.5,79.483,3.633,113.75,9.4c34.233,5.767,59.917,8.333,77.05,7.7c10.933-0.367,24.883-2.566,41.85-6.6
				c-0.9-0.5-1.667-1-2.3-1.5c-2.934-2.267-4.4-4.966-4.4-8.1c0-3.833,6.667-7.367,20-10.6c13.233-3.2,27.566-4.8,43-4.8
				c9.1,0,15.767,0.55,20,1.65c8.466-3.133,17.183-6.5,26.15-10.1c-1.7-0.733-3.3-1.55-4.8-2.45c-4.233-2.5-6.35-4.733-6.35-6.7
				c0-1.5,2-2.833,6-4c4.633-1.333,10.767-2,18.4-2c4.566,0,9.117,0.85,13.65,2.55c0.633,0.233,1.233,0.467,1.8,0.7
				c7.366-3.167,14.866-6.5,22.5-10c1.267-0.367,4.133-1.667,8.6-3.9c1.6-0.8,4.583-2.15,8.95-4.05c-0.467-0.8-3.533-1.283-9.2-1.45
				c-6.033-0.167-13.233-0.117-21.6,0.15c-6.767,0.2-16.467,0.316-29.1,0.35c-0.267,0-0.517,0-0.75,0
				c-0.733,0.167-1.95,0.233-3.65,0.2c-0.067,0-0.15,0-0.25,0c-1.8,0.033-4.134,0.05-7,0.05c-9.434-0.133-15.817-0.2-19.15-0.2
				c-9.3,0.033-15.366,0.05-18.2,0.05c-4.233,0-9.233-0.283-15-0.85c-3.2-0.3-12.083-0.85-26.65-1.65
				c-15-0.833-27.167-1.333-36.5-1.5c8.4,3.767,14.816,7.367,19.25,10.8c1.8,1.4,3.533,2.966,5.2,4.7c2.233,1.767,3.6,3.467,4.1,5.1
				c0.133,0.467,0.2,0.917,0.2,1.35c0,1.833-1.333,3.433-4,4.8c-3.634,1.867-9.233,2.8-16.8,2.8c-15.8,0-29.65-2.25-41.55-6.75
				c-6.333-2.4-12.133-5.5-17.4-9.3l-1.45-1.05c-1.533-1.1-2.45-1.8-2.75-2.1c-1.333-1.3-2.867-3.167-4.6-5.6
				c-0.566,0-1.117,0-1.65,0l-43.8-0.8c-11.767,0-24.333,0.4-37.7,1.2c-13.333,0.8-27.767,1.2-43.3,1.2
				c-6.9,0-13.35-0.017-19.35-0.05c4.5,1.1,9.466,2.683,14.9,4.75c7.867,3.033,12.95,5.733,15.25,8.1c0.934,0.667,1.4,1.267,1.4,1.8
				c0,0.133-0.017,0.267-0.05,0.4c-0.567,3.367-8.017,6.1-22.35,8.2c-12.7,1.867-26.5,2.8-41.4,2.8c-12.567,0-24.9-2.133-37-6.4
				c-8.2-2.9-13.717-5.934-16.55-9.1c-2.066-1.467-3.683-2.817-4.85-4.05c-4.2-4.367-6.45-7.9-6.75-10.6
				c-2.867,0.033-5.967,0.083-9.3,0.15c-15.066,0.267-25.983,0.4-32.75,0.4c-6.433,0-22.517-0.333-48.25-1
				c-25.767-0.667-42.55-1-50.35-1c-15.667,0-29.883,0.6-42.65,1.8c-12.767,1.2-25.483,1.8-38.15,1.8
				c-7.767,0-20.283-0.533-37.55-1.6c-17.3-1.066-31.25-1.6-41.85-1.6c-14.1,0-29.467,0.45-46.1,1.35
				c6.067,2.833,11.017,5.967,14.85,9.4c4.566,4.067,6.783,7.417,6.65,10.05c0,2.667-1.333,4.667-4,6c-3.233,1.6-8.7,2.4-16.4,2.4
				c-8.633,0-17.167-0.65-25.6-1.95c-13.367-2.033-24.833-5.517-34.4-10.45c-6.533-3.2-10.65-5.2-12.35-6
				c-0.167-0.067-0.317-0.15-0.45-0.25h1.55c-3.733-2.434-7.434-5.35-11.1-8.75l-23.85-0.6c-7.133,0-13.15,0.133-18.05,0.4
				s-4.817,1.6,0.25,4c1.967,1.5,3.783,2.6,5.45,3.3c1.633,0.733,3.4,1.333,5.3,1.8c1.867,0.5,4.6,1.467,8.2,2.9
				c3.6,1.467,7.733,4.333,12.4,8.6c1.966,1.8,3.7,3.2,5.2,4.2c1.267,0.9,2.367,1.5,3.3,1.8c0.267,0.133,0.55,0.267,0.85,0.4
				c11.034,5.5,24.733,9.6,41.1,12.3c0.533-0.8,2.467-1.5,5.8-2.1c4.267-0.8,9.6-1.2,16-1.2c13.933,0,25.533,2.133,34.8,6.4
				c8.533,3.9,12.8,8.367,12.8,13.4c0,0.867-0.183,1.7-0.55,2.5c17.667,4.367,34.667,7.966,51,10.8
				c-0.033-0.233-0.05-0.533-0.05-0.9c0-4.5,7.2-7.9,21.6-10.2c11.667-1.867,26.067-2.8,43.2-2.8c18.733,0,34.733,1.867,48,5.6
				c13.333,3.767,20,8.3,20,13.6c0,0.267,0,0.517,0,0.75c13.333-0.767,27.483-1.816,42.45-3.15
				C398.867-6.733,425.517-9.467,460.65-13.3z M847.45-27.55c-2.733-0.434-5.267-0.684-7.6-0.75c-0.167,0-0.317,0-0.45,0
				c-0.066,0-0.133,0-0.2,0c-6.434,0.066-12.884,0.35-19.35,0.85c-13.333,1-20,3.25-20,6.75c0,2.067,1.85,3.85,5.55,5.35
				c0.167,0.067,0.4,0.15,0.7,0.25c5.8-1.533,11.9-3.25,18.3-5.15C831.867-22.45,839.55-24.883,847.45-27.55z M608.45-32.6
				c1.866,0.767,3.5,1.383,4.9,1.85c1,0.267,1.983,0.5,2.95,0.7c6.067,1.433,10.983,2.15,14.75,2.15c2.233,0,3.6-0.033,4.1-0.1
				c1.333-0.133,1.7-1.033,1.1-2.7c0.4-1.667-2.684-3.533-9.25-5.6c-6-1.867-12.05-2.8-18.15-2.8c-2.233,0-3.667,0.05-4.3,0.15
				c-1.3,0.2-2.333,0.684-3.1,1.45C601.483-36.167,603.816-34.533,608.45-32.6z M735.55-76.15c-0.2,0.267-0.3,0.55-0.3,0.85
				c0,1.566,0.967,3.316,2.9,5.25c0.534,0.533,1.1,1.05,1.7,1.55h0.95c2.333,1.7,8.434,3.667,18.3,5.9
				c10.4,2.333,16.85,3.5,19.35,3.5c2.767,0,4.566-0.133,5.4-0.4c1.066-0.333,1.6-1.067,1.6-2.2c0-0.667-1.333-2.05-4-4.15
				c-0.6-0.433-1.267-0.917-2-1.45c-0.6-0.434-1.184-0.85-1.75-1.25h0.5c-1.034-0.767-2.1-1.55-3.2-2.35
				c-4.8-3.4-9.733-6.217-14.8-8.45c-4.134,0.4-8.85,1.017-14.15,1.85c-0.833,0.133-1.667,0.25-2.5,0.35
				C740.883-76.75,738.217-76.417,735.55-76.15z M494.95-77.65c0.367,1.1,0.966,2.417,1.8,3.95c1.3,2.333,2.6,4.067,3.9,5.2
				c0.867,0.767,1.983,1.733,3.35,2.9c6.9,3.434,13.667,5.85,20.3,7.25c8.934,1.9,18.117,2.85,27.55,2.85c4.2,0,7.8-0.4,10.8-1.2
				c2.534-0.7,4.15-1.566,4.85-2.6c0.1-0.367,0.15-0.767,0.15-1.2c0-1.5-2.8-4.083-8.4-7.75c-3.133-2.067-6.45-3.883-9.95-5.45
				c-15.133-0.133-25.95-0.383-32.45-0.75C509.95-74.85,502.65-75.917,494.95-77.65z M69.7-76.25c1.933,1.433,4.25,3.5,6.95,6.2
				c1.233,1.066,2.567,2.033,4,2.9c2.434,0.833,5.35,1.833,8.75,3c13.033,3.9,23.184,5.85,30.45,5.85c3,0,5-0.267,6-0.8
				c0.8-0.433,1.2-1.233,1.2-2.4c0-0.267-0.05-0.533-0.15-0.8c-0.5-1.4-2.316-3.05-5.45-4.95c-0.534-0.3-1.083-0.617-1.65-0.95h0.25
				c-4.6-3.133-10.183-5.833-16.75-8.1c-7.267,0.233-14.017,0.367-20.25,0.4L69.7-76.25z M100.9-33.25
				c12.167,3.533,24.517,6.933,37.05,10.2c0.233-0.067,0.45-0.133,0.65-0.2c1.367-0.5,2.05-1.183,2.05-2.05
				c0-2.133-2.933-4.2-8.8-6.2c-6.133-2.133-12.8-3.2-20-3.2c-3.833,0-7,0.333-9.5,1C101.817-33.567,101.333-33.417,100.9-33.25z
				 M237.8-35.25c-8.833,2.833-19.483,4.95-31.95,6.35c-12.467,1.367-23.117,1.6-31.95,0.7c-8.833-0.867-13.25-2.633-13.25-5.3
				s4.417-5.433,13.25-8.3c8.833-2.833,19.483-4.934,31.95-6.3c12.467-1.4,23.117-1.65,31.95-0.75c8.833,0.9,13.25,2.684,13.25,5.35
				S246.633-38.083,237.8-35.25z M310.6-0.75c-0.667-3.133-5.05-5.783-13.15-7.95c-9-2.4-20.4-3.6-34.2-3.6
				c-14.767,0-24.967,0.4-30.6,1.2c-6.9,1-10.6,2.9-11.1,5.7c21.667,3.2,42.05,5,61.15,5.4l10.4-0.4
				C298.733-0.433,304.567-0.55,310.6-0.75z M765.05-25.7c0,5.233-6.4,8.633-19.2,10.2c-4.034,0.5-8.567,0.783-13.6,0.85
				c-4.333-0.033-6.667-0.05-7-0.05c-4.6,0-8.934-0.333-13-1c-2.033-0.333-4.017-0.583-5.95-0.75c-0.233-0.033-0.45-0.05-0.65-0.05
				c-4.933-1.7-8.216-3.017-9.85-3.95c-2.366-1.4-3.55-3.083-3.55-5.05c0-4.333,4.533-7.267,13.6-8.8
				c4.667-0.767,11.2-1.167,19.6-1.2c0.321,0,0.646,0,0.975,0c-0.191-0.006-0.35-0.056-0.475-0.15c0.866-0.033,2.767-0.033,5.7,0
				c4.8,0.1,9.333,0.4,13.6,0.9C758.45-33.217,765.05-30.2,765.05-25.7z M729.05-19.5c5.567,0,9.833-0.267,12.8-0.8
				c4-0.733,6-2,6-3.8c0-2.433-2.383-4.233-7.15-5.4c-4.267-1.067-10.217-1.6-17.85-1.6c-4.7,0-9.434,0.383-14.2,1.15
				c-6.133,1.034-9.2,2.383-9.2,4.05c0,1.433,1.783,2.85,5.35,4.25c0.8,0.333,1.717,0.667,2.75,1c3.134,0.467,5.65,0.767,7.55,0.9
				C717.667-19.583,722.316-19.5,729.05-19.5z M653.45-24.7c-1.467,0.267-4.4,0.4-8.8,0.4c-6.3,0-14.267-0.583-23.9-1.75
				c-6.066-0.7-11.367-1.483-15.9-2.35c-4-1.133-6.25-1.8-6.75-2c-6.034-2.367-9.05-5.2-9.05-8.5c0-1.833,2.134-3.233,6.4-4.2
				c3.433-0.8,7.433-1.2,12-1.2c8.333,0,18.6,1.867,30.8,5.6c12.8,3.9,19.2,7.5,19.2,10.8C657.45-26.233,656.117-25.167,653.45-24.7
				z M664.65-47.5v-1.2c0.8,0,2.733-0.133,5.8-0.4c4.333,0,8.483,0.6,12.45,1.8c4.7,1.433,7.55,3.367,8.55,5.8
				c-2.934,0.267-4.733,0.4-5.4,0.4c-2.366,0-5.083-0.3-8.15-0.9c-1.566-0.3-3.233-0.683-5-1.15
				C668.333-45.117,665.583-46.567,664.65-47.5z M450.05-37.9c-4.4,0-7.267-0.067-8.6-0.2c-2.934-0.233-5.317-0.783-7.15-1.65
				c-1.367-1.5-2.05-3.017-2.05-4.55c0-1.333,1.217-2.267,3.65-2.8c2.333-0.533,6.383-0.8,12.15-0.8c13.2,0,19.8,1.8,19.8,5.4
				c0,1.7-2.667,2.967-8,3.8C456.45-38.167,453.183-37.9,450.05-37.9z M417.85-24.7c0,3.1-5.467,5.35-16.4,6.75
				c-6.3,0.833-12.233,1.25-17.8,1.25c-3.667,0-7.1-0.15-10.3-0.45c-3.233-0.3-6.967-1.167-11.2-2.6c-2.867-1.7-4.3-3.417-4.3-5.15
				c0-1.767,3.066-3.3,9.2-4.6c5.067-1.067,9.733-1.6,14-1.6c11.5,0,20.434,0.533,26.8,1.6C414.517-28.4,417.85-26.8,417.85-24.7z
				 M369.45-39.5c4.8-0.5,7.2-1.3,7.2-2.4c0-1.6-0.8-2.8-2.4-3.6c-2.1-1.067-5.7-1.6-10.8-1.6c-11.733,0-17.6,0.867-17.6,2.6
				c0,0.4,0.433,0.933,1.3,1.6c1.167,0.9,2.067,1.633,2.7,2.2c0.133,0.133,0.267,0.267,0.4,0.4h2.2c0.3,0.033,0.633,0.083,1,0.15
				c2.3,0.3,5.233,0.65,8.8,1.05L369.45-39.5z M384.85-19.1c3,0,6.467-0.25,10.4-0.75c5.9-0.733,9.3-1.816,10.2-3.25
				c0.5-1-2.233-1.933-8.2-2.8c-5.967-0.833-10.6-1.117-13.9-0.85c-3.333,0.3-6.367,0.717-9.1,1.25c-3.467,0.667-5.2,1.6-5.2,2.8
				c0,0.8,0.55,1.55,1.65,2.25c0.267,0.167,0.533,0.317,0.8,0.45c0.8,0.367,1.6,0.433,2.4,0.2c0.5,0.066,1.05,0.117,1.65,0.15
				C380.05-19.283,383.15-19.1,384.85-19.1z M391.45-41.7c0,2.534-4.717,4.467-14.15,5.8c-9.433,0.8-14.183,1.2-14.25,1.2
				c-2.433,0-5.966-0.233-10.6-0.7c-5.4-1.367-9.15-2.417-11.25-3.15c-5.967-2.067-8.95-4.184-8.95-6.35c0-2.067,4.267-3.733,12.8-5
				c7.2-1.067,15.133-1.6,23.8-1.6c10.3,0,17.05,1.2,20.25,3.6C390.667-46.733,391.45-44.667,391.45-41.7z M328.25-29.7
				c1.1,0.4,1.9,0.6,2.4,0.6c-0.633,1.934-2.267,3-4.9,3.2c-0.467,0.033-2.65-0.1-6.55-0.4c-0.367-0.333-0.55-0.8-0.55-1.4
				c0-1.033,1.2-1.767,3.6-2.2c1.367-0.267,2.7-0.4,4-0.4C326.483-30.3,327.15-30.1,328.25-29.7z M285.3-47.5
				c-1.133-0.2-5.617-0.9-13.45-2.1c-5.067-2.033-7.6-4.333-7.6-6.9c0-1.3,1.467-2.167,4.4-2.6c1.833-0.267,5.033-0.4,9.6-0.4
				c8.667,0,15.867,0.933,21.6,2.8c4.8,1.567,7.2,3.167,7.2,4.8c0,1.8-2.933,3.133-8.8,4c-3.633,0.533-7.1,0.8-10.4,0.8
				C287.583-47.1,286.733-47.233,285.3-47.5z M279.4-51.35c0.8,0.1,1.917,0.25,3.35,0.45c3.033,0.4,4.867,0.6,5.5,0.6
				c0.333,0,1.317-0.133,2.95-0.4c1.633-0.267,2.65-0.4,3.05-0.4v-2c-1.333-1.8-3.467-2.933-6.4-3.4c-0.967-0.133-3.1-0.2-6.4-0.2
				c-4.267,0.267-6.8,0.4-7.6,0.4v1.2c0.833,0.967,1.883,1.817,3.15,2.55c0.033,0.033,0.083,0.05,0.15,0.05
				C277.717-51.833,278.467-51.45,279.4-51.35z M236.4-41.55c0-1.467-3.017-2.383-9.05-2.75c-6.067-0.333-13.367-0.034-21.9,0.9
				c-8.534,0.933-15.817,2.25-21.85,3.95c-6.067,1.7-9.1,3.284-9.1,4.75c0,1.5,3.033,2.434,9.1,2.8
				c6.033,0.367,13.316,0.083,21.85-0.85c8.533-0.933,15.833-2.267,21.9-4C233.383-38.45,236.4-40.05,236.4-41.55z M83.05-75.9
				c0,0.367-0.1,0.483-0.3,0.35c-0.459-0.23-0.792-0.347-1-0.35C82.154-75.9,82.587-75.9,83.05-75.9z"/>
		</g>
	</g>
</symbol>
<use xlink:href="#bg_x5F_hill_x5F_02"  width="963.763" height="79.9" x="-0.013" y="-79.9" transform="matrix(1 0 0 -1 0 0)" style="overflow:visible;"/>
</svg>
