<?xml version="1.0" encoding="iso-8859-1"?>
<!-- Generator: Adobe Illustrator 16.0.0, SVG Export Plug-In . SVG Version: 6.00 Build 0)  -->
<!DOCTYPE svg PUBLIC "-//W3C//DTD SVG 1.1//EN" "http://www.w3.org/Graphics/SVG/1.1/DTD/svg11.dtd">
<svg version="1.1" id="Layer_1" xmlns="http://www.w3.org/2000/svg" xmlns:xlink="http://www.w3.org/1999/xlink" x="0px" y="0px"
	 width="830px" height="94px" viewBox="0 0 830 94" style="enable-background:new 0 0 830 94;" xml:space="preserve">
<symbol  id="bg_x5F_hill_x5F_04" viewBox="0 -90.7 826.65 90.713">
	<g id="Layer_3_1_">
		<path style="fill-rule:evenodd;clip-rule:evenodd;fill:#32320E;" d="M673.4-52.2c17.667-4.433,35.333-8.917,53-13.45
			c17.267-4.4,34.55-8.767,51.85-13.1c16.133-4.1,32.267-8.083,48.4-11.95H0C132.9-31.033,208.617-1.767,227.15-2.9
			c19.333-1.167,39.45-3.267,60.35-6.3c29.1-2,52.533-0.716,70.3,3.85c17.767,4.567,37.45,6.217,59.05,4.95
			c18.633-0.9,37.167-2.717,55.6-5.45c11.966-2.733,23.917-5.383,35.85-7.95c19.567-4.1,39.034-8.367,58.4-12.8
			c17.9-4,35.75-8.15,53.55-12.45C638.017-43.45,655.733-47.833,673.4-52.2z"/>
		<g>
			<path style="fill-rule:evenodd;clip-rule:evenodd;fill:#282809;" d="M276.05-55.25c0,0.567,1.267,1.05,3.8,1.45
				c2.533,0.367,5.6,0.55,9.2,0.55c3.6,0,6.667-0.183,9.2-0.55c2.533-0.4,3.8-0.883,3.8-1.45s-1.267-1.033-3.8-1.4
				c-2.533-0.4-5.6-0.6-9.2-0.6c-3.6,0-6.667,0.2-9.2,0.6C277.317-56.283,276.05-55.817,276.05-55.25z"/>
		</g>
		<g>
			<path style="fill-rule:evenodd;clip-rule:evenodd;fill:#282809;" d="M216.45-11.2c0,0.567,1.267,1.05,3.8,1.45
				c2.533,0.367,5.6,0.55,9.2,0.55c3.6,0,6.667-0.183,9.2-0.55c2.533-0.4,3.8-0.883,3.8-1.45c0-0.566-1.267-1.033-3.8-1.4
				c-2.533-0.4-5.6-0.6-9.2-0.6c-3.6,0-6.667,0.2-9.2,0.6C217.717-12.233,216.45-11.767,216.45-11.2z"/>
		</g>
		<g>
			<path style="fill-rule:evenodd;clip-rule:evenodd;fill:#282809;" d="M206.85-26c0-0.567-1.267-1.033-3.8-1.4
				c-2.533-0.4-5.6-0.6-9.2-0.6s-6.667,0.2-9.2,0.6c-2.533,0.367-3.8,0.833-3.8,1.4s1.267,1.05,3.8,1.45
				c2.533,0.367,5.6,0.55,9.2,0.55s6.667-0.183,9.2-0.55C205.583-24.95,206.85-25.433,206.85-26z"/>
		</g>
		<g>
			<path style="fill-rule:evenodd;clip-rule:evenodd;fill:#282809;" d="M255.65-28.8c0-0.567-1.267-1.034-3.8-1.4
				c-2.533-0.4-5.6-0.6-9.2-0.6s-6.667,0.2-9.2,0.6c-2.534,0.367-3.8,0.833-3.8,1.4c0,0.566,1.267,1.05,3.8,1.45
				c2.533,0.367,5.6,0.55,9.2,0.55s6.667-0.184,9.2-0.55C254.383-27.75,255.65-28.233,255.65-28.8z"/>
		</g>
		<g>
			<path style="fill-rule:evenodd;clip-rule:evenodd;fill:#282809;" d="M170.25-49.8c2.533,0.367,5.6,0.55,9.2,0.55
				c3.6,0,6.667-0.183,9.2-0.55c2.533-0.4,3.8-0.883,3.8-1.45s-1.267-1.033-3.8-1.4c-2.533-0.4-5.6-0.6-9.2-0.6
				c-3.6,0-6.667,0.2-9.2,0.6c-2.533,0.367-3.8,0.833-3.8,1.4S167.717-50.2,170.25-49.8z"/>
		</g>
		<g>
			<path style="fill-rule:evenodd;clip-rule:evenodd;fill:#282809;" d="M215.85-56.65c-2.533,0.367-3.8,0.833-3.8,1.4
				s1.267,1.05,3.8,1.45c2.533,0.367,5.6,0.55,9.2,0.55c3.6,0,6.667-0.183,9.2-0.55c2.533-0.4,3.8-0.883,3.8-1.45
				s-1.267-1.033-3.8-1.4c-2.533-0.4-5.6-0.6-9.2-0.6C221.45-57.25,218.383-57.05,215.85-56.65z"/>
		</g>
		<g>
			<path style="fill-rule:evenodd;clip-rule:evenodd;fill:#282809;" d="M105.4-73.3c-3.566,0.7-5.35,1.583-5.35,2.65
				c0,1.066,1.784,1.983,5.35,2.75c3.533,0.7,7.817,1.05,12.85,1.05s9.333-0.35,12.9-1.05c3.533-0.767,5.3-1.684,5.3-2.75
				c0-1.067-1.767-1.95-5.3-2.65c-3.566-0.767-7.867-1.15-12.9-1.15S108.933-74.067,105.4-73.3z"/>
		</g>
		<g>
			<path style="fill-rule:evenodd;clip-rule:evenodd;fill:#282809;" d="M147.25-51.25c0-0.567-1.267-1.033-3.8-1.4
				c-2.534-0.4-5.6-0.6-9.2-0.6s-6.667,0.2-9.2,0.6c-2.533,0.367-3.8,0.833-3.8,1.4s1.267,1.05,3.8,1.45
				c2.534,0.367,5.6,0.55,9.2,0.55s6.667-0.183,9.2-0.55C145.983-50.2,147.25-50.683,147.25-51.25z"/>
		</g>
		<g>
			<path style="fill-rule:evenodd;clip-rule:evenodd;fill:#282809;" d="M58.25-75c2.533,0.367,5.6,0.55,9.2,0.55
				c3.6,0,6.667-0.183,9.2-0.55c2.533-0.4,3.8-0.883,3.8-1.45c0-0.566-1.267-1.033-3.8-1.4c-2.533-0.4-5.6-0.6-9.2-0.6
				c-3.6,0-6.667,0.2-9.2,0.6c-2.533,0.367-3.8,0.833-3.8,1.4C54.45-75.883,55.717-75.4,58.25-75z"/>
		</g>
		<g>
			<path style="fill-rule:evenodd;clip-rule:evenodd;fill:#282809;" d="M252.85-39c1.9,0.367,4.167,0.55,6.8,0.55
				c2.667,0,4.934-0.183,6.8-0.55c1.867-0.4,2.8-0.883,2.8-1.45c0-0.566-0.933-1.033-2.8-1.4c-1.867-0.4-4.133-0.6-6.8-0.6
				c-2.633,0-4.9,0.2-6.8,0.6c-1.867,0.367-2.8,0.833-2.8,1.4C250.05-39.883,250.983-39.4,252.85-39z"/>
		</g>
		<g>
			<path style="fill-rule:evenodd;clip-rule:evenodd;fill:#282809;" d="M271.25-13.2c2.667,0,4.933-0.183,6.8-0.55
				c1.867-0.4,2.8-0.883,2.8-1.45c0-0.566-0.934-1.033-2.8-1.4c-1.867-0.4-4.133-0.6-6.8-0.6c-2.633,0-4.9,0.2-6.8,0.6
				c-1.867,0.367-2.8,0.833-2.8,1.4c0,0.567,0.934,1.05,2.8,1.45C266.35-13.383,268.617-13.2,271.25-13.2z"/>
		</g>
		<g>
			<path style="fill-rule:evenodd;clip-rule:evenodd;fill:#282809;" d="M353.25-28.8c0-0.567-0.933-1.034-2.8-1.4
				c-1.867-0.4-4.133-0.6-6.8-0.6c-2.633,0-4.9,0.2-6.8,0.6c-1.867,0.367-2.8,0.833-2.8,1.4c0,0.566,0.934,1.05,2.8,1.45
				c1.9,0.367,4.167,0.55,6.8,0.55c2.667,0,4.934-0.184,6.8-0.55C352.317-27.75,353.25-28.233,353.25-28.8z"/>
		</g>
		<g>
			<path style="fill-rule:evenodd;clip-rule:evenodd;fill:#282809;" d="M347.65-44.45c0-0.566-0.933-1.033-2.8-1.4
				c-1.867-0.4-4.133-0.6-6.8-0.6c-2.633,0-4.9,0.2-6.8,0.6c-1.867,0.367-2.8,0.833-2.8,1.4c0,0.567,0.933,1.05,2.8,1.45
				c1.9,0.367,4.167,0.55,6.8,0.55c2.667,0,4.934-0.183,6.8-0.55C346.717-43.4,347.65-43.883,347.65-44.45z"/>
		</g>
		<g>
			<path style="fill-rule:evenodd;clip-rule:evenodd;fill:#282809;" d="M412.45-43c1.9,0.367,4.167,0.55,6.8,0.55
				c2.667,0,4.933-0.183,6.8-0.55c1.867-0.4,2.8-0.883,2.8-1.45c0-0.566-0.934-1.033-2.8-1.4c-1.867-0.4-4.133-0.6-6.8-0.6
				c-2.633,0-4.9,0.2-6.8,0.6c-1.867,0.367-2.8,0.833-2.8,1.4C409.65-43.883,410.583-43.4,412.45-43z"/>
		</g>
		<g>
			<path style="fill-rule:evenodd;clip-rule:evenodd;fill:#282809;" d="M416.45-20.55c1.9,0.367,4.167,0.55,6.8,0.55
				c2.667,0,4.933-0.183,6.8-0.55c1.867-0.4,2.8-0.883,2.8-1.45s-0.934-1.033-2.8-1.4c-1.867-0.4-4.133-0.6-6.8-0.6
				c-2.633,0-4.9,0.2-6.8,0.6c-1.867,0.367-2.8,0.833-2.8,1.4S414.583-20.95,416.45-20.55z"/>
		</g>
		<g>
			<path style="fill-rule:evenodd;clip-rule:evenodd;fill:#282809;" d="M390.05-34.45c2.667,0,4.934-0.183,6.8-0.55
				c1.867-0.4,2.8-0.883,2.8-1.45c0-0.566-0.933-1.033-2.8-1.4c-1.867-0.4-4.133-0.6-6.8-0.6c-2.633,0-4.9,0.2-6.8,0.6
				c-1.867,0.367-2.8,0.833-2.8,1.4c0,0.567,0.933,1.05,2.8,1.45C385.15-34.633,387.417-34.45,390.05-34.45z"/>
		</g>
		<g>
			<path style="fill-rule:evenodd;clip-rule:evenodd;fill:#282809;" d="M412.05-9.25c0-0.567-0.933-1.033-2.8-1.4
				c-1.867-0.4-4.133-0.6-6.8-0.6c-2.633,0-4.9,0.2-6.8,0.6c-1.867,0.367-2.8,0.833-2.8,1.4s0.933,1.05,2.8,1.45
				c1.9,0.367,4.167,0.55,6.8,0.55c2.667,0,4.933-0.183,6.8-0.55C411.117-8.2,412.05-8.683,412.05-9.25z"/>
		</g>
		<g>
			<path style="fill-rule:evenodd;clip-rule:evenodd;fill:#282809;" d="M307.25-34.45c-2.633,0-4.9,0.2-6.8,0.6
				c-1.867,0.367-2.8,0.833-2.8,1.4c0,0.567,0.934,1.05,2.8,1.45c1.9,0.367,4.167,0.55,6.8,0.55c2.667,0,4.933-0.183,6.8-0.55
				c1.867-0.4,2.8-0.883,2.8-1.45c0-0.566-0.934-1.033-2.8-1.4C312.183-34.25,309.917-34.45,307.25-34.45z"/>
		</g>
		<g>
			<path style="fill-rule:evenodd;clip-rule:evenodd;fill:#282809;" d="M515.25-36.45c0-0.566-0.934-1.033-2.8-1.4
				c-1.867-0.4-4.133-0.6-6.8-0.6c-2.633,0-4.9,0.2-6.8,0.6c-1.867,0.367-2.8,0.833-2.8,1.4c0,0.567,0.934,1.05,2.8,1.45
				c1.9,0.367,4.167,0.55,6.8,0.55c2.667,0,4.934-0.183,6.8-0.55C514.316-35.4,515.25-35.883,515.25-36.45z"/>
		</g>
		<g>
			<path style="fill-rule:evenodd;clip-rule:evenodd;fill:#282809;" d="M265.45-71c2.533,0.367,5.6,0.55,9.2,0.55
				s6.667-0.183,9.2-0.55c2.533-0.4,3.8-0.883,3.8-1.45c0-0.566-1.267-1.033-3.8-1.4c-2.533-0.4-5.6-0.6-9.2-0.6s-6.667,0.2-9.2,0.6
				c-2.534,0.367-3.8,0.833-3.8,1.4C261.65-71.883,262.917-71.4,265.45-71z"/>
		</g>
		<g>
			<path style="fill-rule:evenodd;clip-rule:evenodd;fill:#282809;" d="M190.45-76.45c0,0.567,1.267,1.05,3.8,1.45
				c2.533,0.367,5.6,0.55,9.2,0.55c3.6,0,6.667-0.183,9.2-0.55c2.533-0.4,3.8-0.883,3.8-1.45c0-0.566-1.267-1.033-3.8-1.4
				c-2.533-0.4-5.6-0.6-9.2-0.6c-3.6,0-6.667,0.2-9.2,0.6C191.717-77.483,190.45-77.017,190.45-76.45z"/>
		</g>
		<g>
			<path style="fill-rule:evenodd;clip-rule:evenodd;fill:#282809;" d="M358.05-70.65c0-1.067-1.767-1.95-5.3-2.65
				c-3.567-0.767-7.867-1.15-12.9-1.15s-9.317,0.383-12.85,1.15c-3.567,0.7-5.35,1.583-5.35,2.65c0,1.066,1.783,1.983,5.35,2.75
				c3.533,0.7,7.817,1.05,12.85,1.05s9.333-0.35,12.9-1.05C356.283-68.667,358.05-69.583,358.05-70.65z"/>
		</g>
		<g>
			<path style="fill-rule:evenodd;clip-rule:evenodd;fill:#282809;" d="M496.05-78.25c0-1.067-1.767-1.95-5.3-2.65
				c-3.567-0.767-7.867-1.15-12.9-1.15s-9.317,0.383-12.85,1.15c-3.567,0.7-5.35,1.583-5.35,2.65s1.783,1.983,5.35,2.75
				c3.533,0.7,7.817,1.05,12.85,1.05s9.333-0.35,12.9-1.05C494.283-76.267,496.05-77.183,496.05-78.25z"/>
		</g>
		<g>
			<path style="fill-rule:evenodd;clip-rule:evenodd;fill:#282809;" d="M412.45-66.25c-1.867-0.4-4.133-0.6-6.8-0.6
				c-2.633,0-4.9,0.2-6.8,0.6c-1.867,0.367-2.8,0.833-2.8,1.4c0,0.567,0.934,1.05,2.8,1.45c1.9,0.367,4.167,0.55,6.8,0.55
				c2.667,0,4.934-0.183,6.8-0.55c1.867-0.4,2.8-0.883,2.8-1.45C415.25-65.417,414.317-65.883,412.45-66.25z"/>
		</g>
		<g>
			<path style="fill-rule:evenodd;clip-rule:evenodd;fill:#282809;" d="M468.45-51.25c0,0.567,0.933,1.05,2.8,1.45
				c1.9,0.367,4.167,0.55,6.8,0.55c2.667,0,4.934-0.183,6.8-0.55c1.867-0.4,2.8-0.883,2.8-1.45s-0.933-1.033-2.8-1.4
				c-1.867-0.4-4.133-0.6-6.8-0.6c-2.633,0-4.9,0.2-6.8,0.6C469.383-52.283,468.45-51.817,468.45-51.25z"/>
		</g>
		<g>
			<path style="fill-rule:evenodd;clip-rule:evenodd;fill:#282809;" d="M541.25-60.85c0,0.567,1.267,1.05,3.8,1.45
				c2.534,0.367,5.6,0.55,9.2,0.55s6.667-0.183,9.2-0.55c2.533-0.4,3.8-0.883,3.8-1.45c0-0.566-1.267-1.033-3.8-1.4
				c-2.534-0.4-5.6-0.6-9.2-0.6s-6.667,0.2-9.2,0.6C542.517-61.883,541.25-61.417,541.25-60.85z"/>
		</g>
		<g>
			<path style="fill-rule:evenodd;clip-rule:evenodd;fill:#282809;" d="M490.45-32.8c0-0.567-1.267-1.034-3.8-1.4
				c-2.533-0.4-5.6-0.6-9.2-0.6c-3.6,0-6.667,0.2-9.2,0.6c-2.533,0.367-3.8,0.833-3.8,1.4c0,0.566,1.267,1.05,3.8,1.45
				c2.533,0.367,5.6,0.55,9.2,0.55c3.6,0,6.667-0.184,9.2-0.55C489.183-31.75,490.45-32.233,490.45-32.8z"/>
		</g>
		<g>
			<path style="fill-rule:evenodd;clip-rule:evenodd;fill:#282809;" d="M446.65-20c-3.6,0-6.667,0.2-9.2,0.6
				c-2.534,0.367-3.8,0.833-3.8,1.4s1.267,1.05,3.8,1.45c2.533,0.367,5.6,0.55,9.2,0.55s6.667-0.183,9.2-0.55
				c2.533-0.4,3.8-0.883,3.8-1.45s-1.267-1.033-3.8-1.4C453.317-19.8,450.25-20,446.65-20z"/>
		</g>
		<g>
			<path style="fill-rule:evenodd;clip-rule:evenodd;fill:#282809;" d="M599.25-55.25c0,0.567,1.267,1.05,3.8,1.45
				c2.534,0.367,5.6,0.55,9.2,0.55s6.667-0.183,9.2-0.55c2.533-0.4,3.8-0.883,3.8-1.45s-1.267-1.033-3.8-1.4
				c-2.534-0.4-5.6-0.6-9.2-0.6s-6.667,0.2-9.2,0.6C600.517-56.283,599.25-55.817,599.25-55.25z"/>
		</g>
		<g>
			<path style="fill-rule:evenodd;clip-rule:evenodd;fill:#282809;" d="M673.45-71c2.533,0.367,5.6,0.55,9.2,0.55
				s6.667-0.183,9.2-0.55c2.533-0.4,3.8-0.883,3.8-1.45c0-0.566-1.267-1.033-3.8-1.4c-2.534-0.4-5.6-0.6-9.2-0.6s-6.667,0.2-9.2,0.6
				c-2.534,0.367-3.8,0.833-3.8,1.4C669.65-71.883,670.917-71.4,673.45-71z"/>
		</g>
		<g>
			<path style="fill-rule:evenodd;clip-rule:evenodd;fill:#282809;" d="M557.65-38.2c-1.867-0.4-4.133-0.6-6.8-0.6
				c-2.633,0-4.9,0.2-6.8,0.6c-1.866,0.367-2.8,0.833-2.8,1.4c0,0.566,0.934,1.05,2.8,1.45c1.9,0.367,4.167,0.55,6.8,0.55
				c2.667,0,4.933-0.184,6.8-0.55c1.867-0.4,2.8-0.883,2.8-1.45C560.45-37.367,559.517-37.833,557.65-38.2z"/>
		</g>
		<g>
			<path style="fill-rule:evenodd;clip-rule:evenodd;fill:#282809;" d="M509.65-22c0-0.567-0.933-1.033-2.8-1.4
				c-1.867-0.4-4.133-0.6-6.8-0.6c-2.633,0-4.9,0.2-6.8,0.6c-1.867,0.367-2.8,0.833-2.8,1.4s0.933,1.05,2.8,1.45
				c1.9,0.367,4.167,0.55,6.8,0.55c2.667,0,4.934-0.183,6.8-0.55C508.717-20.95,509.65-21.433,509.65-22z"/>
		</g>
		<g>
			<path style="fill-rule:evenodd;clip-rule:evenodd;fill:#282809;" d="M570.45-47.25c0,0.567,0.933,1.05,2.8,1.45
				c1.9,0.367,4.167,0.55,6.8,0.55c2.667,0,4.934-0.183,6.8-0.55c1.867-0.4,2.8-0.883,2.8-1.45s-0.933-1.033-2.8-1.4
				c-1.867-0.4-4.133-0.6-6.8-0.6c-2.633,0-4.9,0.2-6.8,0.6C571.383-48.283,570.45-47.817,570.45-47.25z"/>
		</g>
		<g>
			<path style="fill-rule:evenodd;clip-rule:evenodd;fill:#282809;" d="M504.6-59.7c-3.567,0.7-5.35,1.583-5.35,2.65
				c0,1.066,1.783,1.983,5.35,2.75c3.533,0.7,7.816,1.05,12.85,1.05c5.033,0,9.333-0.35,12.9-1.05c3.533-0.767,5.3-1.684,5.3-2.75
				c0-1.067-1.767-1.95-5.3-2.65c-3.567-0.767-7.867-1.15-12.9-1.15C512.417-60.85,508.133-60.467,504.6-59.7z"/>
		</g>
		<g>
			<path style="fill-rule:evenodd;clip-rule:evenodd;fill:#282809;" d="M588.85-70.65c0,1.066,1.783,1.983,5.35,2.75
				c3.533,0.7,7.816,1.05,12.85,1.05c5.034,0,9.333-0.35,12.9-1.05c3.533-0.767,5.3-1.684,5.3-2.75c0-1.067-1.767-1.95-5.3-2.65
				c-3.567-0.767-7.867-1.15-12.9-1.15c-5.033,0-9.316,0.383-12.85,1.15C590.633-72.6,588.85-71.717,588.85-70.65z"/>
		</g>
	</g>
</symbol>
<use xlink:href="#bg_x5F_hill_x5F_04"  width="826.65" height="90.713" y="-90.7" transform="matrix(1 0 0 -1 0 1)" style="overflow:visible;"/>
</svg>
