<?xml version="1.0" encoding="iso-8859-1"?>
<!-- Generator: Adobe Illustrator 16.0.0, SVG Export Plug-In . SVG Version: 6.00 Build 0)  -->
<!DOCTYPE svg PUBLIC "-//W3C//DTD SVG 1.1//EN" "http://www.w3.org/Graphics/SVG/1.1/DTD/svg11.dtd">
<svg version="1.1" id="Layer_1" xmlns="http://www.w3.org/2000/svg" xmlns:xlink="http://www.w3.org/1999/xlink" x="0px" y="0px"
	 width="840px" height="94.4px" viewBox="0 0 840 94.4" style="enable-background:new 0 0 840 94.4;" xml:space="preserve">
<symbol  id="bg_x5F_hill_x5F_06" viewBox="-12.8 -94.4 840 94.376">
	<linearGradient id="SVGID_1_" gradientUnits="userSpaceOnUse" x1="415.0527" y1="45.7866" x2="410.878" y2="-21.9134">
		<stop  offset="0" style="stop-color:#555744"/>
		<stop  offset="1" style="stop-color:#0B0B02"/>
	</linearGradient>
	<path style="fill-rule:evenodd;clip-rule:evenodd;fill:url(#SVGID_1_);" d="M826.5-86.7c-0.066-0.2-0.1-0.367-0.1-0.5
		c-2.133-0.533-9.466-1.4-22-2.6c-15.533-1.467-28.733-2.2-39.6-2.2c-6.167,0-16.667,0.933-31.5,2.8
		c-14.8,1.867-28.167,2.8-40.1,2.8c-6.067,0-16.083-0.667-30.05-2c-14-1.333-23.45-2-28.35-2c-5.2,0-28.933,0.8-71.2,2.4
		s-65.867,2.4-70.8,2.4c-5.433,0-10.75-0.467-15.95-1.4c-6.367-1.267-11.967-2.267-16.8-3c-19.367-2.933-49.783-4.4-91.25-4.4
		c-10.033,0-31.7,0.8-65,2.4c-33.267,1.6-50.8,2.4-52.6,2.4c-14.233,0.133-35.633,0.717-64.2,1.75
		c-27.033,0.967-43.5,1.45-49.4,1.45c-3.9,0-10.383-0.667-19.45-2c-9.066-1.333-16.316-2-21.75-2c-7.967,0-16.617,1.066-25.95,3.2
		c-6.477,1.48-12.702,2.447-18.675,2.9h-14.55c-2.601-0.127-5.942-0.293-10.025-0.5c-10.534-0.534-16.133-0.8-16.8-0.8
		c-15.467,0-23.2,2.667-23.2,8c0,2.1,2.216,3.967,6.65,5.6c3.066,1.1,9.5,2.767,19.3,5c19.091,4.343,44.699,11.359,76.825,21.05
		c1.637,0.771,11.178,4.321,28.625,10.65c17.452,6.332,35.252,12.407,53.4,18.225c18.142,5.816,34.317,8.742,48.525,8.775
		C234.739-8.267,250.564-7.9,268-7.2c9.467,0.434,16.583,0.8,21.35,1.1c4.767,0.267,8.167,0.65,10.2,1.15
		c1.967,0.534,10.883,1.434,26.75,2.7c15.867,1.3,30.417,2.033,43.65,2.2c13.2,0.133,26.45-0.25,39.75-1.15
		c13.3-0.867,26.55-1.583,39.75-2.15c10.8-0.433,21.533-1.033,32.2-1.8c3.9-0.3,7.8-0.617,11.7-0.95
		C506.217-7.233,519.1-8.383,532-9.55c12.233-1.133,24.367-2.684,36.4-4.65c10.1-1.633,20.133-3.583,30.1-5.85
		c3.167-0.733,6.333-1.367,9.5-1.9c13.566-2.233,27.133-4.4,40.7-6.5c5.4-0.867,10.8-1.683,16.2-2.45h0.05
		c0.9-0.133,1.816-0.267,2.75-0.4c11.733-1.7,23.483-3.534,35.25-5.5c0.9-0.133,1.8-0.284,2.7-0.45c0.467-0.067,0.95-0.15,1.45-0.25
		c27.681-7.86,59.948-21.76,96.8-41.7c1.594-0.242,3.261-0.475,5-0.7c6.434-0.833,12.534-2.733,18.3-5.7
		C826.867-85.933,826.633-86.3,826.5-86.7z"/>
</symbol>
<use xlink:href="#bg_x5F_hill_x5F_06"  width="840" height="94.376" x="-12.8" y="-94.4" transform="matrix(1 0 0 -1 12.7998 0)" style="overflow:visible;"/>
</svg>
