<?xml version="1.0" encoding="iso-8859-1"?>
<!-- Generator: Adobe Illustrator 16.0.0, SVG Export Plug-In . SVG Version: 6.00 Build 0)  -->
<!DOCTYPE svg PUBLIC "-//W3C//DTD SVG 1.1//EN" "http://www.w3.org/Graphics/SVG/1.1/DTD/svg11.dtd">
<svg version="1.1" id="Layer_1" xmlns="http://www.w3.org/2000/svg" xmlns:xlink="http://www.w3.org/1999/xlink" x="0px" y="0px"
	 width="168px" height="398px" viewBox="0 0 168 398" style="enable-background:new 0 0 168 398;" xml:space="preserve">
<symbol  id="red_x5F_tree_x5F_03" viewBox="0.016 -197.55 82.034 197.55">
	<g id="Layer_3_1_">
		<g>
			<g>
				<path style="fill-rule:evenodd;clip-rule:evenodd;fill:#39020E;" d="M75.3-66.05c-0.233-0.034-0.45-0.067-0.65-0.1
					c-0.566-0.067-1.066,0.017-1.5,0.25c-0.066,0.033-0.133,0.05-0.2,0.05c-0.833-0.133-1.233,0.167-1.2,0.9
					c0-0.033-0.017-0.083-0.05-0.15c-0.4-0.566-0.75-0.983-1.05-1.25c-0.066-0.066-0.117-0.133-0.15-0.2
					c-0.033-0.6-0.367-0.85-1-0.75c-0.133,0-0.2,0.017-0.2,0.05c-0.133,0.433-0.267,0.55-0.4,0.35c-0.133-0.233-0.2-0.483-0.2-0.75
					c-0.067-0.4-0.267-0.767-0.6-1.1C67.933-68.917,67.75-69,67.55-69c-0.833,0.033-1.4-0.15-1.7-0.55
					c-0.133-0.1-0.217-0.184-0.25-0.25c-0.267-0.5-0.6-0.967-1-1.4c-0.633-0.566-1.367-0.917-2.2-1.05c-0.133,0-0.25,0.033-0.35,0.1
					c-0.433,0.2-0.767,0.033-1-0.5c-0.233-0.5-0.667-0.783-1.3-0.85c-0.467-0.067-0.917-0.067-1.35,0c-0.133,0-0.25,0.017-0.35,0.05
					c-0.367,0.067-0.6,0-0.7-0.2c-0.2-0.267-0.483-0.5-0.85-0.7c-0.067,0.067-0.117,0.117-0.15,0.15c-0.133,0.434-0.333,0.7-0.6,0.8
					c-0.067-0.133-0.133-0.267-0.2-0.4c-0.066-0.067-0.117-0.133-0.15-0.2c-0.1-0.467-0.383-0.533-0.85-0.2
					c0-0.167-0.017-0.333-0.05-0.5c-0.1-0.367-0.117-0.75-0.05-1.15c0.133-0.8-0.067-1.4-0.6-1.8c-0.533-0.367-1.117-0.567-1.75-0.6
					c-0.067-0.033-0.133-0.067-0.2-0.1c-0.5-0.267-1.066-0.6-1.7-1c-0.467-0.267-1.017-0.35-1.65-0.25
					c-0.867-0.566-1.917-0.767-3.15-0.6c-0.1,0-0.2,0.05-0.3,0.15c-0.2,0.2-0.417,0.316-0.65,0.35c-0.467,0-0.917,0-1.35,0
					c-0.333,0.067-0.567,0.217-0.7,0.45c-0.1,0.067-0.2,0.117-0.3,0.15c-0.733,0.167-1.25,0.467-1.55,0.9
					c0.067-0.433,0.067-0.867,0-1.3c-0.066-0.733-0.517-1.033-1.35-0.9c-0.067-0.033-0.117-0.1-0.15-0.2
					c-0.1-0.233-0.2-0.467-0.3-0.7c-0.167-0.4-0.5-0.534-1-0.4c-0.033,0-0.083,0-0.15,0c-0.133,0.034-0.25,0.034-0.35,0
					c-0.467-0.433-0.983-0.816-1.55-1.15c-0.333-0.2-0.684-0.4-1.05-0.6c-0.633-0.433-1.3-0.783-2-1.05l-0.05-0.05
					c-0.4-0.067-0.8-0.067-1.2,0l-0.35,0.05c-1,0.433-2.183,0.583-3.55,0.45c-0.133,0-0.25,0.017-0.35,0.05
					c-0.5,0.233-0.967,0.433-1.4,0.6c-0.1,0-0.167,0.033-0.2,0.1c-0.1,0.267-0.267,0.383-0.5,0.35c-0.233,0-0.517-0.033-0.85-0.1
					c-0.534-0.034-1.017,0.05-1.45,0.25c-0.1,0.033-0.183,0.05-0.25,0.05c-0.433,0.233-0.933,0.317-1.5,0.25
					c-0.733-0.1-1.25,0.017-1.55,0.35c0.3,0.267,0.7,0.467,1.2,0.6c0.067,0,0.117,0,0.15,0c0.3,0,0.467,0.083,0.5,0.25
					c-0.367,0.233-0.867,0.367-1.5,0.4c-0.066,0-0.117,0-0.15,0c-0.233,0-0.467-0.017-0.7-0.05c0.1,0.367,0.05,0.7-0.15,1
					c0,0.067-0.017,0.1-0.05,0.1c-0.033,0.1-0.067,0.2-0.1,0.3c-0.033,0.066-0.167,0.133-0.4,0.2c-0.833,0.167-1.467,0.633-1.9,1.4
					c-0.133,0.267-0.45,0.383-0.95,0.35c-0.467-0.033-0.867,0.033-1.2,0.2c-0.3,0.167-0.5,0.333-0.6,0.5
					c-0.367,0.633-0.8,1.1-1.3,1.4c-0.033,0.033-0.083,0.1-0.15,0.2c-0.1,0.2-0.233,0.3-0.4,0.3s-0.317,0.017-0.45,0.05
					c-0.1,0-0.216,0.05-0.35,0.15c-0.2,0.833-0.55,1.55-1.05,2.15c-0.2,0.267-0.316,0.566-0.35,0.9
					C9.517-71.717,9.5-71.667,9.5-71.6c-0.1,0.5-0.333,0.917-0.7,1.25c-0.2,0.167-0.367,0.3-0.5,0.4
					c-0.133,0.167-0.267,0.317-0.4,0.45c-0.1,0.067-0.15,0.167-0.15,0.3c-0.067,0.1-0.067,0.2,0,0.3c0.033,0.1,0.067,0.2,0.1,0.3
					c0.1,0,0.2,0,0.3,0c0.8,0,1.5-0.2,2.1-0.6c0.3-0.167,0.55-0.283,0.75-0.35c0.533-0.1,0.717,0.133,0.55,0.7
					c0.5-0.333,1.034-0.7,1.6-1.1c0.3-0.233,0.567-0.466,0.8-0.7c0.466-0.434,1.017-0.65,1.65-0.65c0.133,0,0.2,0.017,0.2,0.05
					c0.034,0.367,0.15,0.6,0.35,0.7c0.233-0.167,0.483-0.267,0.75-0.3c0.733-0.066,1.467-0.183,2.2-0.35
					c0.167,0.067,0.35,0.15,0.55,0.25c0.3,0.167,0.6,0.317,0.9,0.45c0.333,0.133,0.633,0.333,0.9,0.6
					c0.133,0.133,0.216,0.3,0.25,0.5c0.1,0.133,0.167,0.267,0.2,0.4c0.233,0.1,0.317,0.35,0.25,0.75
					c-0.033,0.133-0.05,0.267-0.05,0.4c0.333-0.267,0.717-0.417,1.15-0.45c0.2,0,0.267,0.15,0.2,0.45c0,0.133,0,0.25,0,0.35
					c0.167-0.167,0.333-0.433,0.5-0.8c0.066-0.2,0.2-0.317,0.4-0.35c0.1-0.067,0.167-0.133,0.2-0.2c0.333-0.5,0.75-0.983,1.25-1.45
					c0.067-0.034,0.167-0.034,0.3,0c0.133,0,0.267,0.017,0.4,0.05c0.233,0.033,0.4-0.033,0.5-0.2c0.033-0.133,0.1-0.25,0.2-0.35
					c0.3-0.167,0.566-0.133,0.8,0.1c0.067,0.1,0.15,0.184,0.25,0.25c0.1,0.067,0.2,0.067,0.3,0c0.4-0.133,0.867-0.133,1.4,0
					c0.133,0.333,0.2,0.617,0.2,0.85c0.533-0.433,1.15-0.467,1.85-0.1c0.167,0.067,0.317,0.167,0.45,0.3
					c0.367,0.433,0.917,0.6,1.65,0.5c0.133,0,0.25,0.05,0.35,0.15c0.033,0.1,0.05,0.217,0.05,0.35c-0.033,0.667-0.267,1.233-0.7,1.7
					c-0.066,0.1-0.133,0.217-0.2,0.35c-0.033,0.2-0.05,0.4-0.05,0.6s-0.033,0.35-0.1,0.45c0.1,0,0.2,0,0.3,0c0.067,0,0.133,0,0.2,0
					c0.233,0.066,0.4,0.033,0.5-0.1c0.3-0.434,0.767-0.633,1.4-0.6c0.433,0.033,0.733-0.1,0.9-0.4c0.133-0.233,0.417-0.333,0.85-0.3
					c0.4,0.1,0.767,0.233,1.1,0.4c0.1,0.033,0.167,0.066,0.2,0.1c0.2,0.067,0.3-0.05,0.3-0.35c0.466-0.1,0.833-0.05,1.1,0.15
					c0.1,0.033,0.217,0.066,0.35,0.1c0.067,0.033,0.117,0.066,0.15,0.1c0.233,0,0.383-0.117,0.45-0.35
					c0.067-0.267,0.3-0.383,0.7-0.35c0.3,0.066,0.566,0.167,0.8,0.3c0.167,0.1,0.35,0.2,0.55,0.3c0.267,0.1,0.583,0.183,0.95,0.25
					c0.167,0.033,0.317-0.05,0.45-0.25c0.167-0.233,0.4-0.317,0.7-0.25c0.267,0.066,0.517,0.2,0.75,0.4
					c0.233-0.033,0.35-0.217,0.35-0.55c0-0.133,0.033-0.25,0.1-0.35c0.167-0.2,0.467-0.284,0.9-0.25c0.733,0,1.433,0.017,2.1,0.05
					c0.2,0,0.4-0.017,0.6-0.05c1.1-0.367,2.183-0.184,3.25,0.55c0.6,0.4,1.117,0.7,1.55,0.9c0.267,0.133,0.433,0.133,0.5,0
					c0.033-0.066,0.117-0.117,0.25-0.15c0.833-0.267,1.483,0.067,1.95,1c0.033,0.033,0.083,0.05,0.15,0.05c0.066,0,0.133,0,0.2,0
					c0.267-0.233,0.7-0.35,1.3-0.35c0.433,0,0.833,0.1,1.2,0.3c0.467,0.233,0.85,0.6,1.15,1.1c0.1,0.167,0.2,0.333,0.3,0.5
					c0.1,0.133,0.167,0.3,0.2,0.5c0.066,0.267,0.267,0.417,0.6,0.45c0.133,0,0.233,0.05,0.3,0.15c0.167,0.2,0.316,0.417,0.45,0.65
					c0.067,0.3,0.083,0.65,0.05,1.05c-0.1,0.733-0.367,1.233-0.8,1.5c0.167,0.233,0.483,0.35,0.95,0.35
					c0.133-0.033,0.267-0.033,0.4,0c0.5,0.2,0.75,0.533,0.75,1c0,0.133,0,0.267,0,0.4c0.267-0.233,0.6-0.467,1-0.7
					c0.1-0.034,0.217-0.05,0.35-0.05c0.467,0,0.9,0.017,1.3,0.05c0.167,0,0.3-0.017,0.4-0.05c0.233-0.2,0.6-0.283,1.1-0.25
					c0.233,0.2,0.434,0.533,0.6,1c0,0.133,0.033,0.25,0.1,0.35c0.1,0.167,0.117,0.433,0.05,0.8c-0.033,0.4,0.034,0.733,0.2,1
					c0.033,0.1,0.083,0.167,0.15,0.2c0.3,0.2,0.483,0.5,0.55,0.9c0.033,0.133,0.05,0.25,0.05,0.35c0.067,0.2,0.117,0.367,0.15,0.5
					c0.133,0.2,0.167,0.433,0.1,0.7c-0.067,0.267,0,0.383,0.2,0.35c0.2,0,0.283,0.133,0.25,0.4c-0.034,0.1-0.034,0.216,0,0.35
					c0.1,0.167,0.167,0.434,0.2,0.8c0.033,0.133,0.033,0.267,0,0.4c-0.033,0.4,0.167,0.65,0.6,0.75
					c0.133,0.533,0.283,1.033,0.45,1.5c0,0.133,0.033,0.2,0.1,0.2c0.3,0.1,0.45,0.3,0.45,0.6c0.033,0.867,0.017,1.75-0.05,2.65
					c0,0.033,0,0.1,0,0.2c-0.133,0.767-0.217,1.533-0.25,2.3c0,0.633-0.034,1.267-0.1,1.9c0,0.167-0.067,0.333-0.2,0.5
					c-0.267,0.267-0.35,0.6-0.25,1c0.133,0.566,0.184,1.15,0.15,1.75c0,0.133-0.033,0.233-0.1,0.3c-0.233,0.2-0.333,0.55-0.3,1.05
					c0,0.133,0.033,0.233,0.1,0.3c0.167,0.2,0.217,0.533,0.15,1c-0.1,0.7-0.083,1.35,0.05,1.95c0.267,1,0.35,2.083,0.25,3.25
					c0,0.1,0.033,0.183,0.1,0.25c0.4,0.267,0.367,0.6-0.1,1c-0.534,0.466-0.8,1.066-0.8,1.8c0,0.1-0.033,0.217-0.1,0.35
					c-0.167,0.433-0.55,0.633-1.15,0.6c0.267,0.033,0.383,0.216,0.35,0.55c-0.067,1.1-0.383,2.117-0.95,3.05
					c-0.3,0.5-0.517,1.034-0.65,1.6c-0.2,0.533-0.383,1.083-0.55,1.65c-0.1,0.2-0.184,0.417-0.25,0.65
					c-0.033,0.1-0.083,0.167-0.15,0.2c-0.167,0.067-0.217,0.233-0.15,0.5c0.034,0.3,0.067,0.617,0.1,0.95c0.1,0.6-0.1,0.867-0.6,0.8
					c-0.533-0.1-0.867-0.033-1,0.2c0.133,0.1,0.267,0.15,0.4,0.15c0.433,0.033,0.683,0.233,0.75,0.6c-0.667,0-1.367,0-2.1,0
					c-0.633,0-1.267-0.033-1.9-0.1c-0.5-0.033-0.784,0.067-0.85,0.3c0.133,0.1,0.25,0.184,0.35,0.25
					c0.133,0.133,0.167,0.35,0.1,0.65c-0.133,0-0.25,0-0.35,0c-1.034-0.167-1.55,0.167-1.55,1c0,0.133-0.017,0.233-0.05,0.3
					c-0.167,0.2-0.467,0.3-0.9,0.3c-0.367,0-0.567,0.167-0.6,0.5c0,0.133-0.017,0.25-0.05,0.35c-0.1,0.267-0.267,0.383-0.5,0.35
					c-0.333,0-0.583,0.033-0.75,0.1c-0.1,0.033-0.167,0.1-0.2,0.2c0.066,0.133,0.133,0.25,0.2,0.35c0.167,0.2,0.284,0.4,0.35,0.6
					c0,0.2-0.017,0.367-0.05,0.5h0.45v0.35c0.333,0.033,0.667,0.083,1,0.15c0.133,0,0.25,0.017,0.35,0.05
					c0.333,0.1,0.5,0.05,0.5-0.15c-0.367-0.133-0.717-0.417-1.05-0.85c-0.1-0.133-0.15-0.316-0.15-0.55s0.183-0.383,0.55-0.45
					c0.3-0.066,0.517-0.2,0.65-0.4c0.233-0.4,0.55-0.816,0.95-1.25c0.066-0.1,0.15-0.183,0.25-0.25c0.3-0.233,0.617-0.433,0.95-0.6
					c0.167,0.133,0.35,0.267,0.55,0.4c0-0.133,0.017-0.35,0.05-0.65h0.15c1.034-0.167,2.083-0.35,3.15-0.55
					c1.3-0.167,2.517-0.583,3.65-1.25c0.066-0.067,0.117-0.133,0.15-0.2c0.1-0.6-0.017-1.117-0.35-1.55
					c-0.133-0.167-0.183-0.35-0.15-0.55c0.4,0.133,0.8,0.167,1.2,0.1c0.333,0,0.5-0.2,0.5-0.6c0-0.267,0.05-0.517,0.15-0.75
					c0.033-0.067,0.05-0.15,0.05-0.25c0.033-0.5,0.383-0.717,1.05-0.65c0.167,0,0.333-0.017,0.5-0.05c0.167,0,0.35,0,0.55,0
					c0.6-0.1,1.033-0.433,1.3-1c0.034-0.033,0.067-0.083,0.1-0.15c0.067-0.033,0.133-0.1,0.2-0.2c0-0.1,0-0.167,0-0.2
					c0.1-0.534,0.25-1.034,0.45-1.5c0.2-0.4,0.367-0.85,0.5-1.35c0.1-0.667,0.233-1.3,0.4-1.9c0.066-0.267,0.117-0.5,0.15-0.7
					c0.233-0.967,0.7-1.817,1.4-2.55c0.167-0.167,0.3-0.333,0.4-0.5c0.667-0.967,1.317-1.883,1.95-2.75
					c-0.667-0.1-1.35-0.15-2.05-0.15h-0.1c-0.2-0.1-0.3-0.3-0.3-0.6c0.033-0.267,0.117-0.3,0.25-0.1c0.067,0.066,0.15,0.1,0.25,0.1
					c0-0.034,0-0.067,0-0.1c0-1.067,0.033-2.117,0.1-3.15c0-0.034,0-0.1,0-0.2c0.333-0.467,0.75-0.75,1.25-0.85
					c0-0.3-0.083-0.583-0.25-0.85c-0.067-0.1-0.117-0.2-0.15-0.3c0-0.067-0.033-0.133-0.1-0.2c-0.067-0.1-0.1-0.2-0.1-0.3
					c0-0.033,0-0.083,0-0.15c-0.066-0.067-0.033-0.117,0.1-0.15c0.533-0.267,1.05-0.284,1.55-0.05c-0.367-0.6-0.7-1.183-1-1.75
					C81.017-40.7,81-40.817,81-40.95l0.05-0.15c0.034-0.3,0.017-0.6-0.05-0.9c0-0.133-0.017-0.283-0.05-0.45
					c-0.067-0.167-0.1-0.333-0.1-0.5c-0.133-0.633-0.3-1.267-0.5-1.9c-0.133-0.5-0.2-1-0.2-1.5c0-0.233,0-0.467,0-0.7
					c0.333,0.1,0.617,0.167,0.85,0.2c0.4-0.4,0.4-0.75,0-1.05c-0.033-0.067-0.083-0.117-0.15-0.15c-0.067-0.067-0.133-0.133-0.2-0.2
					c0.067-0.2,0.117-0.417,0.15-0.65c0.133-0.567,0.1-1.033-0.1-1.4c-0.034-0.1-0.067-0.2-0.1-0.3
					c-0.233-0.533-0.467-1.017-0.7-1.45c-0.066-0.067-0.066-0.117,0-0.15c0.067-0.1,0.15-0.167,0.25-0.2
					c0.067,0,0.133-0.017,0.2-0.05c0.1-0.033,0.183-0.066,0.25-0.1c0.033-0.1,0.033-0.2,0-0.3c0-0.133-0.05-0.25-0.15-0.35
					c-0.067-0.033-0.117-0.066-0.15-0.1c-0.367-0.233-0.383-0.417-0.05-0.55c0.067,0,0.1-0.083,0.1-0.25
					c0-0.267-0.184-0.467-0.55-0.6c-0.367-0.167-0.7-0.35-1-0.55c-0.066-0.067-0.1-0.117-0.1-0.15c-0.034-0.6-0.034-1.233,0-1.9
					c0-0.034,0.017-0.1,0.05-0.2c0.133-0.2,0.317-0.383,0.55-0.55c0.133-0.1,0.25-0.184,0.35-0.25c-0.267-0.034-0.467-0.133-0.6-0.3
					c-0.233-0.1-0.4-0.267-0.5-0.5c-0.1-0.233-0.25-0.433-0.45-0.6c-0.067-0.1-0.117-0.2-0.15-0.3c-0.233-0.5-0.583-0.933-1.05-1.3
					c-0.267-0.233-0.517-0.583-0.75-1.05c0-0.1-0.017-0.15-0.05-0.15c-0.067,0-0.133-0.017-0.2-0.05c0.167-0.034,0.2-0.2,0.1-0.5
					c0-0.067-0.017-0.133-0.05-0.2c-0.3-0.433-0.6-0.783-0.9-1.05c-0.167-0.2-0.216-0.417-0.15-0.65C74.933-64.983,74.967-65,75-65
					c0.567-0.133,0.683-0.45,0.35-0.95C75.317-65.983,75.3-66.017,75.3-66.05z M58.85-9.85v-0.2c0.033,0.066,0.066,0.133,0.1,0.2
					H58.85z M75.9-62.55c-0.033,0-0.1,0-0.2,0c0-0.067,0.05-0.167,0.15-0.3C75.817-62.717,75.833-62.617,75.9-62.55z"/>
				<path style="fill-rule:evenodd;clip-rule:evenodd;fill:#500B1A;" d="M59.1-8.5c0.033-0.133,0.05-0.3,0.05-0.5
					c-0.066-0.2-0.183-0.4-0.35-0.6c-0.066-0.1-0.133-0.217-0.2-0.35c0.033-0.1,0.1-0.167,0.2-0.2c0.167-0.067,0.417-0.1,0.75-0.1
					c0.233,0.033,0.4-0.083,0.5-0.35c0.034-0.1,0.05-0.217,0.05-0.35c0.033-0.333,0.233-0.5,0.6-0.5c0.433,0,0.733-0.1,0.9-0.3
					c0.033-0.067,0.05-0.167,0.05-0.3c0-0.833,0.517-1.167,1.55-1c0.1,0,0.216,0,0.35,0c0.067-0.3,0.034-0.517-0.1-0.65
					c-0.1-0.066-0.217-0.15-0.35-0.25c0.066-0.233,0.35-0.333,0.85-0.3c0.633,0.067,1.267,0.1,1.9,0.1c0.733,0,1.433,0,2.1,0
					c-0.067-0.367-0.317-0.567-0.75-0.6c-0.133,0-0.267-0.05-0.4-0.15c0.133-0.233,0.467-0.3,1-0.2c0.5,0.067,0.7-0.2,0.6-0.8
					c-0.033-0.333-0.066-0.65-0.1-0.95c-0.066-0.267-0.017-0.433,0.15-0.5c0.066-0.033,0.117-0.1,0.15-0.2
					c0.066-0.233,0.15-0.45,0.25-0.65c0.167-0.566,0.35-1.117,0.55-1.65c0.133-0.566,0.35-1.1,0.65-1.6
					c0.567-0.933,0.883-1.95,0.95-3.05c0.033-0.333-0.083-0.517-0.35-0.55c0.6,0.033,0.983-0.167,1.15-0.6
					c0.067-0.133,0.1-0.25,0.1-0.35c0-0.733,0.267-1.333,0.8-1.8c0.466-0.4,0.5-0.733,0.1-1c-0.066-0.067-0.1-0.15-0.1-0.25
					c0.1-1.167,0.017-2.25-0.25-3.25c-0.133-0.6-0.15-1.25-0.05-1.95c0.067-0.467,0.017-0.8-0.15-1c-0.067-0.067-0.1-0.167-0.1-0.3
					c-0.033-0.5,0.067-0.85,0.3-1.05c0.066-0.066,0.1-0.167,0.1-0.3c0.034-0.6-0.017-1.184-0.15-1.75c-0.1-0.4-0.017-0.733,0.25-1
					c0.133-0.167,0.2-0.333,0.2-0.5c0.066-0.633,0.1-1.267,0.1-1.9c0.033-0.767,0.117-1.534,0.25-2.3c0-0.1,0-0.167,0-0.2
					c0.066-0.9,0.083-1.784,0.05-2.65c0-0.3-0.15-0.5-0.45-0.6c-0.066,0-0.1-0.067-0.1-0.2c-0.167-0.467-0.317-0.967-0.45-1.5
					c-0.433-0.1-0.633-0.35-0.6-0.75c0.033-0.133,0.033-0.267,0-0.4c-0.033-0.367-0.1-0.633-0.2-0.8c-0.034-0.133-0.034-0.25,0-0.35
					c0.033-0.267-0.05-0.4-0.25-0.4c-0.2,0.034-0.267-0.083-0.2-0.35c0.067-0.267,0.033-0.5-0.1-0.7
					c-0.033-0.133-0.083-0.3-0.15-0.5c0-0.1-0.017-0.217-0.05-0.35c-0.067-0.4-0.25-0.7-0.55-0.9c-0.066-0.033-0.117-0.1-0.15-0.2
					c-0.167-0.267-0.233-0.6-0.2-1c0.067-0.367,0.05-0.633-0.05-0.8c-0.067-0.1-0.1-0.217-0.1-0.35c-0.167-0.467-0.367-0.8-0.6-1
					c-0.5-0.033-0.867,0.05-1.1,0.25c-0.1,0.033-0.233,0.05-0.4,0.05c-0.4-0.034-0.833-0.05-1.3-0.05c-0.133,0-0.25,0.017-0.35,0.05
					c-0.4,0.233-0.733,0.466-1,0.7c0-0.133,0-0.267,0-0.4c0-0.467-0.25-0.8-0.75-1c-0.133-0.033-0.267-0.033-0.4,0
					c-0.467,0-0.783-0.117-0.95-0.35c0.434-0.267,0.7-0.767,0.8-1.5c0.033-0.4,0.017-0.75-0.05-1.05
					c-0.133-0.233-0.283-0.45-0.45-0.65c-0.067-0.1-0.167-0.15-0.3-0.15c-0.333-0.033-0.533-0.183-0.6-0.45
					c-0.034-0.2-0.1-0.367-0.2-0.5c-0.1-0.167-0.2-0.333-0.3-0.5c-0.3-0.5-0.684-0.867-1.15-1.1c-0.367-0.2-0.767-0.3-1.2-0.3
					c-0.6,0-1.033,0.117-1.3,0.35c-0.066,0-0.133,0-0.2,0c-0.067,0-0.117-0.017-0.15-0.05c-0.467-0.933-1.117-1.267-1.95-1
					c-0.133,0.033-0.217,0.083-0.25,0.15c-0.067,0.133-0.233,0.133-0.5,0c-0.433-0.2-0.95-0.5-1.55-0.9
					c-1.067-0.733-2.15-0.917-3.25-0.55c-0.2,0.033-0.4,0.05-0.6,0.05c-0.667-0.033-1.367-0.05-2.1-0.05
					c-0.433-0.034-0.733,0.05-0.9,0.25c-0.067,0.1-0.1,0.216-0.1,0.35c0,0.333-0.117,0.517-0.35,0.55
					c-0.233-0.2-0.483-0.333-0.75-0.4c-0.3-0.067-0.533,0.017-0.7,0.25c-0.133,0.2-0.284,0.283-0.45,0.25
					c-0.367-0.067-0.683-0.15-0.95-0.25c-0.2-0.1-0.383-0.2-0.55-0.3c-0.233-0.133-0.5-0.233-0.8-0.3
					c-0.4-0.033-0.633,0.083-0.7,0.35c-0.067,0.233-0.217,0.35-0.45,0.35c-0.033-0.033-0.083-0.066-0.15-0.1
					c-0.133-0.034-0.25-0.067-0.35-0.1c-0.267-0.2-0.633-0.25-1.1-0.15c0,0.3-0.1,0.417-0.3,0.35c-0.033-0.033-0.1-0.066-0.2-0.1
					c-0.333-0.167-0.7-0.3-1.1-0.4c-0.434-0.033-0.717,0.067-0.85,0.3c-0.167,0.3-0.467,0.433-0.9,0.4
					c-0.633-0.033-1.1,0.167-1.4,0.6c-0.1,0.133-0.267,0.167-0.5,0.1c-0.067,0-0.133,0-0.2,0c-0.1,0-0.2,0-0.3,0
					c0.066-0.1,0.1-0.25,0.1-0.45s0.017-0.4,0.05-0.6c0.066-0.133,0.133-0.25,0.2-0.35c0.434-0.466,0.667-1.033,0.7-1.7
					c0-0.133-0.017-0.25-0.05-0.35c-0.1-0.1-0.217-0.15-0.35-0.15c-0.733,0.1-1.283-0.067-1.65-0.5
					c-0.133-0.133-0.284-0.233-0.45-0.3c-0.7-0.367-1.317-0.333-1.85,0.1c0-0.233-0.066-0.517-0.2-0.85c-0.534-0.133-1-0.133-1.4,0
					c-0.1,0.067-0.2,0.067-0.3,0c-0.1-0.066-0.183-0.15-0.25-0.25c-0.233-0.233-0.5-0.267-0.8-0.1c-0.1,0.1-0.167,0.216-0.2,0.35
					c-0.1,0.167-0.267,0.233-0.5,0.2c-0.133-0.033-0.267-0.05-0.4-0.05c-0.133-0.034-0.233-0.034-0.3,0
					c-0.5,0.466-0.917,0.95-1.25,1.45c-0.033,0.067-0.1,0.133-0.2,0.2c-0.2,0.033-0.333,0.15-0.4,0.35
					c-0.167,0.367-0.333,0.633-0.5,0.8c0-0.1,0-0.217,0-0.35c0.066-0.3,0-0.45-0.2-0.45c-0.433,0.033-0.817,0.183-1.15,0.45
					c0-0.133,0.017-0.267,0.05-0.4c0.067-0.4-0.017-0.65-0.25-0.75c-0.033-0.133-0.1-0.267-0.2-0.4c-0.034-0.2-0.117-0.367-0.25-0.5
					c-0.267-0.267-0.567-0.467-0.9-0.6c-0.3-0.133-0.6-0.283-0.9-0.45c-0.2-0.1-0.383-0.183-0.55-0.25
					c-0.733,0.167-1.467,0.284-2.2,0.35c-0.267,0.033-0.517,0.133-0.75,0.3c-0.2-0.1-0.316-0.333-0.35-0.7
					c0-0.033-0.066-0.05-0.2-0.05c-0.633,0-1.184,0.216-1.65,0.65c-0.233,0.233-0.5,0.467-0.8,0.7c-0.566,0.4-1.1,0.767-1.6,1.1
					c0.167-0.566-0.017-0.8-0.55-0.7c-0.2,0.066-0.45,0.183-0.75,0.35c-0.6,0.4-1.3,0.6-2.1,0.6c-0.1,0-0.2,0-0.3,0
					c0.066,0.3,0,0.55-0.2,0.75c-0.3,0.333-0.683,0.633-1.15,0.9c-0.2,0.1-0.433,0.2-0.7,0.3c0.133,0,0.25,0,0.35,0
					c0.133,0,0.217-0.033,0.25-0.1c0.067-0.1,0.117-0.15,0.15-0.15l0.1,0.25c0,0.033-0.017,0.066-0.05,0.1
					c-0.033,0.1-0.067,0.15-0.1,0.15c-0.233,0.1-0.35,0.3-0.35,0.6c0.067,0.3,0.233,0.466,0.5,0.5c0,0.1-0.033,0.2-0.1,0.3
					c-0.1,0.1-0.183,0.233-0.25,0.4c-0.033,0.167-0.083,0.317-0.15,0.45c-0.233,0.333-0.517,0.7-0.85,1.1
					c-0.167,0.2-0.417,0.383-0.75,0.55c-0.1,0-0.183,0.05-0.25,0.15c-0.3,0.267-0.6,0.533-0.9,0.8c0.2,0,0.383,0,0.55,0
					c0.2,0,0.4,0,0.6,0c0.133,0,0.267,0,0.4,0c-0.034,0.1-0.067,0.216-0.1,0.35L4.8-61.05c0.3,0.066,0.467,0.183,0.5,0.35
					c-0.333,0.133-0.566,0.367-0.7,0.7c-0.033,0.067-0.083,0.117-0.15,0.15C4.217-59.817,4.1-59.7,4.1-59.5
					c0.066,0.233,0.183,0.417,0.35,0.55c0.133,0.067,0.216,0.117,0.25,0.15c0.033,0.033,0,0.033-0.1,0
					c-0.1,0.066-0.2,0.117-0.3,0.15c-0.133,0.033-0.2,0.1-0.2,0.2c-0.033,0.333-0.15,0.567-0.35,0.7c-0.033,0-0.05,0.067-0.05,0.2
					c-0.067,0.167-0.05,0.3,0.05,0.4c0.133,0,0.233,0.05,0.3,0.15c0.267,0.133,0.267,0.317,0,0.55c-0.233,0.233-0.533,0.534-0.9,0.9
					c-0.167,0.133-0.316,0.3-0.45,0.5c-0.4,0.5-0.617,1.117-0.65,1.85c-0.033,0.567,0.083,0.983,0.35,1.25
					c0.333,0.3,0.667,0.517,1,0.65c-0.133,0.133-0.25,0.3-0.35,0.5c-0.033,0.167-0.1,0.35-0.2,0.55c-0.367,0.833-0.8,1.55-1.3,2.15
					v0.05C1.583-48.017,1.65-48,1.75-48c0.267-0.033,0.433,0.067,0.5,0.3c-0.1,0-0.233,0.1-0.4,0.3c-0.067,0.133-0.1,0.3-0.1,0.5
					c0.067,0.233,0.117,0.467,0.15,0.7c-0.1,0.067-0.217,0.133-0.35,0.2c-0.033,0.1-0.1,0.167-0.2,0.2
					c-0.367,0.333-0.517,0.733-0.45,1.2c0,0.067,0.017,0.133,0.05,0.2c0.2,0.333,0.183,0.667-0.05,1
					c-0.066,0.133-0.15,0.25-0.25,0.35C0.417-42.883,0.3-42.567,0.3-42.1c0.034,0.233,0,0.417-0.1,0.55
					c-0.3,0.333-0.233,0.65,0.2,0.95c-0.066,0.233-0.1,0.583-0.1,1.05c0,0.033,0.017,0.066,0.05,0.1c0,0.034,0.033,0.067,0.1,0.1
					c0.133,0.1,0.167,0.267,0.1,0.5c-0.033,0.267-0.033,0.55,0,0.85c0.067,0.1,0.1,0.217,0.1,0.35c0.033,0.367,0.083,0.75,0.15,1.15
					c0,0.267,0.034,0.5,0.1,0.7c0.1,0.3,0.217,0.533,0.35,0.7c0.033,0.133,0.067,0.25,0.1,0.35c0.133,0.467,0.183,0.967,0.15,1.5
					c-0.033,0.433,0.05,0.717,0.25,0.85c0.067-0.033,0.117-0.067,0.15-0.1c0.4-0.233,0.783-0.483,1.15-0.75c0,0.633,0,1.267,0,1.9
					c0,0.267-0.017,0.55-0.05,0.85c-0.1,0.567,0.1,0.85,0.6,0.85c0.1,0,0.15,0.017,0.15,0.05c0.133,0.233,0.2,0.517,0.2,0.85
					c0,0.067,0.017,0.15,0.05,0.25c0.067,0.167,0.1,0.283,0.1,0.35c0.133-0.067,0.283-0.15,0.45-0.25c0.167-0.1,0.267-0.05,0.3,0.15
					s0.066,0.417,0.1,0.65c0.133,0.667,0.316,1.217,0.55,1.65c0.067,0.067,0.117,0.15,0.15,0.25c0,0.067,0.017,0.167,0.05,0.3
					c0.066,0.5,0.333,0.85,0.8,1.05c0.033,0.033,0.05,0.1,0.05,0.2c0.067,0.066,0.117,0.183,0.15,0.35c0.1,0.5,0.2,1,0.3,1.5
					c0.067,0.6,0.35,0.917,0.85,0.95c0.167,0.033,0.267,0.083,0.3,0.15c0.434,0.3,0.733,0.784,0.9,1.45
					c0.067,0.1,0.167,0.183,0.3,0.25c0.133,0.233,0.25,0.483,0.35,0.75c0.033,0.133,0.066,0.233,0.1,0.3
					c0.2,0.167,0.3,0.417,0.3,0.75c0.033-0.7,0.417-1.167,1.15-1.4c-0.033,0.233,0,0.383,0.1,0.45c0.066,0.066,0.117,0.15,0.15,0.25
					c0.5,0.867,0.983,1.9,1.45,3.1c0-0.434,0-0.85,0-1.25c0-0.034,0-0.083,0-0.15c0.033-0.2,0.2-0.167,0.5,0.1
					c0.033,0.033,0.1,0.033,0.2,0c0.1,0.033,0.184,0.083,0.25,0.15c0.067,0.067,0.167,0.117,0.3,0.15c0.6,0.066,1,0.383,1.2,0.95
					c0.1,0.167,0.184,0.4,0.25,0.7c0.067-0.4,0.167-0.35,0.3,0.15c0.033,0.067,0.05,0.133,0.05,0.2
					c0.133,0.233,0.25,0.417,0.35,0.55c0.1,0.067,0.183,0.167,0.25,0.3c0.033,0.034,0.083,0.083,0.15,0.15v-0.35c0-0.3,0-0.633,0-1
					c0.167,0,0.25,0.167,0.25,0.5c0,0.066,0,0.133,0,0.2c0.1,0.233,0.183,0.217,0.25-0.05c0-0.2,0.033-0.3,0.1-0.3
					c0.033,0,0.117,0.1,0.25,0.3c0.133,0.367,0.417,0.617,0.85,0.75c0.066,0.033,0.117,0.067,0.15,0.1
					c0.8,0.533,1.383,1.05,1.75,1.55c0.2,0.267,0.417,0.55,0.65,0.85h0.15c0-0.067,0-0.133,0-0.2c0.3,0.133,0.5,0.3,0.6,0.5
					c0.067,0.034,0.15,0.05,0.25,0.05c0.333,0.033,0.583,0.2,0.75,0.5c0.067,0.1,0.133,0.183,0.2,0.25
					c0.167,0.167,0.316,0.367,0.45,0.6c0.267,0.566,0.733,0.933,1.4,1.1c0.067,0,0.15,0.05,0.25,0.15
					c0.167,0.133,0.333,0.25,0.5,0.35c0-0.333,0-0.633,0-0.9c0-0.1,0-0.2,0-0.3c0.3,0.3,0.617,0.667,0.95,1.1
					c0.233-0.034,0.417,0.017,0.55,0.15c0.067,0.033,0.15,0.05,0.25,0.05c0.467,0.033,0.934,0.117,1.4,0.25
					C28.767-7.067,28.867-7.033,29-7v0.05c0.433,0.267,0.767,0.55,1,0.85c0.333,0.4,0.617,0.917,0.85,1.55
					c0.033,0.1,0.05,0.2,0.05,0.3c0,0.226,0,0.468,0,0.725c0.007-0.378,0.174-0.436,0.5-0.175c0.1,0.1,0.167,0.233,0.2,0.4
					c0-0.467,0.1-0.6,0.3-0.4c0.067,0.034,0.133,0.083,0.2,0.15c0.1,0.267,0.267,0.433,0.5,0.5C32.667-3.017,32.75-3,32.85-3
					c0.1-0.033,0.167-0.117,0.2-0.25c0.034-0.1,0.067-0.2,0.1-0.3c0.033-0.067,0.083-0.117,0.15-0.15c0.034-0.1,0.133-0.05,0.3,0.15
					c0.066,0.1,0.15,0.2,0.25,0.3C33.917-3.083,34-2.9,34.1-2.7c0.3,0.034,0.5-0.083,0.6-0.35c0.4,0.167,0.667,0.45,0.8,0.85
					c0.133,0.3,0.383,0.617,0.75,0.95C36.317-1.217,36.4-1.2,36.5-1.2c0.167,0,0.25-0.117,0.25-0.35c0-0.1,0.033-0.2,0.1-0.3
					c0.3,0.2,0.667,0.45,1.1,0.75c0.066,0.067,0.15,0.117,0.25,0.15c0.233,0.067,0.45,0.1,0.65,0.1c0.367,0,0.617,0.05,0.75,0.15
					c0.1,0.034,0.2,0.067,0.3,0.1c0.167,0.1,0.383,0.217,0.65,0.35l0.1,0.1c0.033,0,0.067,0.017,0.1,0.05
					c0.067,0,0.133,0.033,0.2,0.1c0.033-0.1,0.066-0.217,0.1-0.35c0.067-0.066,0.133-0.15,0.2-0.25c0.1-0.033,0.2-0.083,0.3-0.15
					L41.6-0.6c0.767-0.533,1.633-0.833,2.6-0.9v-0.2h0.3l0.2,0.15c1.3-0.1,2.55-0.067,3.75,0.1c0.466,0.067,0.783-0.017,0.95-0.25
					c0.033-0.033,0.05-0.117,0.05-0.25c-0.133-0.667,0-1.05,0.4-1.15c0.133-0.033,0.283-0.066,0.45-0.1
					c0.067-0.033,0.133-0.066,0.2-0.1c0.5-0.4,1.05-0.95,1.65-1.65c0.067-0.1,0.133-0.2,0.2-0.3c0.1-0.133,0.267-0.3,0.5-0.5
					c0.2-0.167,0.4-0.433,0.6-0.8c0.1-0.2,0.25-0.333,0.45-0.4c0.333-0.1,0.684-0.183,1.05-0.25c0.633-0.1,1.15-0.35,1.55-0.75
					c0.133-0.133,0.35-0.2,0.65-0.2c0.067,0,0.133,0,0.2,0c0.367-0.067,0.717-0.1,1.05-0.1c0.067,0,0.133,0,0.2,0V-8.5H59.1z"/>
				<path style="fill-rule:evenodd;clip-rule:evenodd;fill:#2E000A;" d="M32.6-84.55l0.05,0.05c0.7,0.267,1.367,0.617,2,1.05
					c0.367,0.2,0.717,0.4,1.05,0.6c0.566,0.333,1.083,0.717,1.55,1.15c0.1,0.034,0.217,0.034,0.35,0c0.066,0,0.117,0,0.15,0
					c0.5-0.133,0.833,0,1,0.4c0.1,0.233,0.2,0.466,0.3,0.7c0.034,0.1,0.083,0.167,0.15,0.2c0.833-0.133,1.283,0.167,1.35,0.9
					c0.067,0.433,0.067,0.867,0,1.3c0.3-0.433,0.817-0.733,1.55-0.9c0.1-0.033,0.2-0.083,0.3-0.15c0.133-0.233,0.367-0.383,0.7-0.45
					c0.433,0,0.883,0,1.35,0c0.233-0.033,0.45-0.15,0.65-0.35c0.1-0.1,0.2-0.15,0.3-0.15c1.233-0.167,2.283,0.034,3.15,0.6
					c0.633-0.1,1.184-0.017,1.65,0.25c0.633,0.4,1.2,0.733,1.7,1c0.067,0.033,0.133,0.067,0.2,0.1c0.633,0.033,1.217,0.233,1.75,0.6
					c0.533,0.4,0.733,1,0.6,1.8c-0.067,0.4-0.05,0.783,0.05,1.15c0.033,0.167,0.05,0.333,0.05,0.5c0.467-0.333,0.75-0.267,0.85,0.2
					c0.033,0.067,0.083,0.133,0.15,0.2c0.067,0.133,0.133,0.267,0.2,0.4c0.267-0.1,0.467-0.367,0.6-0.8
					c0.033-0.033,0.083-0.083,0.15-0.15c0.367,0.2,0.65,0.434,0.85,0.7c0.1,0.2,0.333,0.267,0.7,0.2c0.1-0.033,0.217-0.05,0.35-0.05
					c0.434-0.067,0.883-0.067,1.35,0c0.633,0.067,1.067,0.35,1.3,0.85c0.233,0.533,0.567,0.7,1,0.5c0.1-0.067,0.217-0.1,0.35-0.1
					c0.833,0.133,1.567,0.483,2.2,1.05c0.4,0.434,0.733,0.9,1,1.4c0.033,0.066,0.117,0.15,0.25,0.25c0.3,0.4,0.867,0.583,1.7,0.55
					c0.2,0,0.383,0.083,0.55,0.25c0.333,0.333,0.533,0.7,0.6,1.1c0,0.267,0.066,0.517,0.2,0.75c0.133,0.2,0.267,0.083,0.4-0.35
					c0-0.033,0.067-0.05,0.2-0.05c0.633-0.1,0.967,0.15,1,0.75c0.033,0.066,0.083,0.133,0.15,0.2c0.3,0.267,0.65,0.684,1.05,1.25
					c0.033,0.067,0.05,0.117,0.05,0.15c-0.033-0.733,0.367-1.033,1.2-0.9c0.066,0,0.133-0.017,0.2-0.05
					c0.434-0.233,0.934-0.317,1.5-0.25c0.2,0.033,0.417,0.066,0.65,0.1c-0.133-0.2-0.183-0.4-0.15-0.6c0.067-0.4-0.017-0.7-0.25-0.9
					c-0.066-0.1-0.117-0.184-0.15-0.25c-0.2-0.4-0.3-0.867-0.3-1.4c0-0.066-0.05-0.133-0.15-0.2c-0.367-0.4-0.733-0.75-1.1-1.05
					c-0.1-0.066-0.184-0.15-0.25-0.25c-0.4-0.367-0.9-0.767-1.5-1.2c-0.133-0.1-0.217-0.184-0.25-0.25
					c-0.233-0.2-0.417-0.417-0.55-0.65c-0.033-0.133-0.05-0.25-0.05-0.35c-0.067-0.133-0.133-0.233-0.2-0.3
					c-0.133-0.133-0.35-0.216-0.65-0.25c-0.067,0-0.133-0.033-0.2-0.1c-0.533-0.2-1.1-0.583-1.7-1.15c-0.1-0.1-0.2-0.183-0.3-0.25
					c-0.233-0.267-0.25-0.6-0.05-1c0.033-0.133,0.05-0.25,0.05-0.35c-0.4,0.066-0.8,0.066-1.2,0c-0.067,0-0.117-0.05-0.15-0.15
					c0-0.133,0-0.25,0-0.35c-0.067-0.233-0.167-0.184-0.3,0.15c-0.2-0.233-0.333-0.567-0.4-1c0-0.067-0.067-0.1-0.2-0.1
					c-0.3-0.1-0.466-0.017-0.5,0.25c-0.433-0.167-0.7-0.55-0.8-1.15c0-0.067-0.017-0.15-0.05-0.25c-0.133-0.367-0.3-0.75-0.5-1.15
					c-0.267,0.3-0.567,0.5-0.9,0.6c-0.1,0.067-0.2,0.117-0.3,0.15c-0.633,0.066-1.117-0.05-1.45-0.35
					c-0.033-0.1-0.117-0.15-0.25-0.15c-0.3-0.133-0.417-0.434-0.35-0.9c-0.2,0.133-0.483,0.217-0.85,0.25
					c-0.067,0-0.133,0.017-0.2,0.05c-0.367,0.033-0.617-0.067-0.75-0.3c-0.033-0.066-0.083-0.15-0.15-0.25
					c-0.233-0.233-0.5-0.433-0.8-0.6c-0.2-0.067-0.35-0.05-0.45,0.05c0,0.067-0.067,0.083-0.2,0.05c-0.433,0-0.733,0.05-0.9,0.15
					c-0.066,0.066-0.183,0.117-0.35,0.15H55.5l0.05,0.1c-0.1,0-0.183,0-0.25,0c-3.767-1.3-8.033-2.233-12.8-2.8
					c-0.333,0-0.65-0.033-0.95-0.1c-0.1,0-0.2,0-0.3,0v-0.1c-0.567-0.267-1.3-0.4-2.2-0.4c-0.133,0-0.233-0.033-0.3-0.1
					c-0.167-0.1-0.417-0.15-0.75-0.15c-0.033,0-0.083-0.017-0.15-0.05c-0.1-0.033-0.167-0.067-0.2-0.1c-0.033-0.133-0.2-0.2-0.5-0.2
					c-0.267,0.066-0.533,0.066-0.8,0c-0.067,0-0.133,0-0.2,0c-0.566-0.067-0.9,0.183-1,0.75c0,0.133,0.017,0.216,0.05,0.25
					c0.066,0.066,0.1,0.133,0.1,0.2c-0.167,0.033-0.367,0.067-0.6,0.1c-0.067,0-0.133,0-0.2,0l-0.05-0.1
					c-0.333-0.066-0.684-0.15-1.05-0.25C33.133-84.45,32.867-84.517,32.6-84.55z"/>
			</g>
			<g>
				<g>
					<path style="fill-rule:evenodd;clip-rule:evenodd;fill:#947446;" d="M51.15-11.1c-0.333,0-0.583,0.133-0.75,0.4l-0.1,0.4
						c0,0.233,0.233,0.35,0.7,0.35c0.5,0.034,0.75-0.15,0.75-0.55S51.55-11.1,51.15-11.1z M54.7-8.9c0,0.267,0.15,0.417,0.45,0.45
						c0.267,0,0.4-0.15,0.4-0.45c0-0.167-0.033-0.317-0.1-0.45c-0.067-0.167-0.133-0.25-0.2-0.25C54.883-9.6,54.7-9.367,54.7-8.9z
						 M41.75-10.1c0.5,0.067,0.75-0.083,0.75-0.45S42.333-11.1,42-11.1c-0.167,0.1-0.517,0.15-1.05,0.15
						c-0.034,0-0.05,0.067-0.05,0.2C40.9-10.417,41.183-10.2,41.75-10.1z M44.15-11.8v-0.15c-0.133,0-0.2-0.05-0.2-0.15
						c-0.233,0.033-0.35,0.133-0.35,0.3c0,0.2,0.083,0.316,0.25,0.35C44.05-11.45,44.15-11.567,44.15-11.8z M45.9-13.65
						c0,0.167,0.05,0.333,0.15,0.5c-0.233,0.066-0.35,0.133-0.35,0.2c0,0.367,0.233,0.45,0.7,0.25c0.5-0.133,0.75-0.367,0.75-0.7
						c0-0.3-0.167-0.45-0.5-0.45c-0.233,0-0.4,0.033-0.5,0.1C46.083-13.683,46-13.65,45.9-13.65z M47.45-16.65
						c0,0.267,0.133,0.417,0.4,0.45c0.333,0.034,0.5-0.1,0.5-0.4c0-0.066-0.05-0.133-0.15-0.2c-0.1-0.1-0.217-0.15-0.35-0.15
						C47.583-16.95,47.45-16.85,47.45-16.65z M46.55-18.4c-0.198,0.231-0.298,0.315-0.3,0.25c0,0.4,0.201,0.55,0.6,0.45
						c0.333-0.066,0.5-0.3,0.5-0.7c0-0.333-0.133-0.5-0.4-0.5c-0.2,0-0.3,0.083-0.3,0.25v0.25H46.55z M43.95-14.9
						c0,0.2,0.167,0.4,0.5,0.6c0.333,0.1,0.5-0.017,0.5-0.35c0-0.133-0.067-0.283-0.2-0.45c-0.133-0.1-0.233-0.15-0.3-0.15
						C44.117-15.25,43.95-15.133,43.95-14.9z M43.35-13.9c-0.067-0.2-0.184-0.3-0.35-0.3c-0.333,0-0.5,0.133-0.5,0.4
						c0.067,0.2,0.1,0.316,0.1,0.35c0,0.034-0.133,0.167-0.4,0.4c0,0.333,0.183,0.45,0.55,0.35c0.4-0.133,0.6-0.417,0.6-0.85
						C43.35-13.617,43.35-13.733,43.35-13.9z M42-15c0,0.167,0.217,0.35,0.65,0.55c0.367,0.2,0.55,0.05,0.55-0.45
						c0-0.367-0.167-0.55-0.5-0.55C42.233-15.45,42-15.3,42-15z M40.5-14.5c-0.333,0-0.533,0.083-0.6,0.25
						c-0.066,0.133-0.1,0.217-0.1,0.25c0,0.3,0.167,0.467,0.5,0.5c0.3,0.033,0.45-0.133,0.45-0.5
						C40.75-14.333,40.667-14.5,40.5-14.5z M41.55-17.7c-0.066,0.067-0.1,0.133-0.1,0.2c0,0.2,0.133,0.3,0.4,0.3
						c0.333,0,0.5-0.05,0.5-0.15c-0.1-0.367-0.217-0.55-0.35-0.55C41.767-17.9,41.617-17.833,41.55-17.7z M44.05-17.2
						c0.034,0,0.117,0,0.25,0c0.267,0,0.5,0.05,0.7,0.15c0.1-0.034,0.15-0.25,0.15-0.65c0-0.267-0.15-0.4-0.45-0.4
						c-0.333,0-0.55,0.1-0.65,0.3c-0.133,0.1-0.2,0.2-0.2,0.3C43.85-17.3,43.917-17.2,44.05-17.2z M44.95-19.75
						c-0.034,0.067-0.05,0.15-0.05,0.25c0,0.3,0.167,0.5,0.5,0.6c0.4,0.066,0.6-0.133,0.6-0.6c0-0.267-0.15-0.4-0.45-0.4
						C45.283-19.9,45.083-19.85,44.95-19.75z M42.6-19.25l-0.05,0.3c0,0.3,0.15,0.417,0.45,0.35c0.3-0.133,0.45-0.316,0.45-0.55
						c0-0.333-0.15-0.5-0.45-0.5C42.833-19.65,42.7-19.517,42.6-19.25z M29.4-15.45c0-0.167-0.083-0.333-0.25-0.5
						c-0.233-0.2-0.55-0.3-0.95-0.3c-0.567,0-0.85,0.217-0.85,0.65c0,0.4,0.333,0.6,1,0.6c0.3,0,0.583,0.05,0.85,0.15
						C29.333-14.85,29.4-15.05,29.4-15.45z M27.9-14.15c-0.233,0-0.4,0.083-0.5,0.25l-0.05,0.25c0,0.2,0.233,0.367,0.7,0.5
						c0.434,0.133,0.65,0.066,0.65-0.2c0-0.1-0.117-0.25-0.35-0.45C28.15-14.033,28-14.15,27.9-14.15z M26.25-15.1
						c0-0.4-0.1-0.6-0.3-0.6c-0.333,0-0.55,0.083-0.65,0.25c0,0.133,0,0.217,0,0.25c0,0.934,0.15,1.284,0.45,1.05
						C26.083-14.317,26.25-14.633,26.25-15.1z M27.75-18.1c0.1,0,0.283,0.083,0.55,0.25c0.2,0.1,0.3-0.05,0.3-0.45
						c0-0.3-0.083-0.483-0.25-0.55h-1C27.117-18.583,27-18.4,27-18.3c0,0.267,0.067,0.4,0.2,0.4c0.1,0,0.183-0.05,0.25-0.15
						C27.583-18.083,27.683-18.1,27.75-18.1z M25.8-17.3c0-0.2-0.117-0.3-0.35-0.3c-0.167,0-0.284,0.067-0.35,0.2
						c-0.033,0.033-0.05,0.066-0.05,0.1c0,0.167,0.067,0.267,0.2,0.3c0.033,0.033,0.083,0.05,0.15,0.05
						C25.667-16.95,25.8-17.067,25.8-17.3z M23.65-23.75h0.75c0-0.033,0.017-0.1,0.05-0.2c0-0.066-0.017-0.117-0.05-0.15
						s-0.066-0.05-0.1-0.05c0.067-0.1,0.1-0.2,0.1-0.3c0-0.033-0.017-0.1-0.05-0.2c0-0.033-0.067-0.05-0.2-0.05
						c-0.2,0-0.316,0.083-0.35,0.25l-0.1,0.2v0.1c-0.067,0-0.1,0.066-0.1,0.2C23.6-23.917,23.617-23.85,23.65-23.75z M29.55-22.5
						c0.233,0.033,0.35-0.033,0.35-0.2c0-0.1-0.066-0.183-0.2-0.25c-0.1-0.066-0.167-0.117-0.2-0.15c-0.2,0.033-0.3,0.133-0.3,0.3
						C29.2-22.633,29.317-22.533,29.55-22.5z M27-24.05c0.4-0.133,0.6-0.35,0.6-0.65c0-0.367-0.167-0.55-0.5-0.55
						c-0.333,0-0.55,0.133-0.65,0.4l-0.1,0.4C26.35-24.117,26.567-23.983,27-24.05z M33.35-15.25c-0.233,0-0.417,0.083-0.55,0.25
						c-0.066,0.1-0.1,0.183-0.1,0.25c0.267,0.167,0.4,0.317,0.4,0.45c0,0.333,0.167,0.433,0.5,0.3c0.3-0.133,0.45-0.35,0.45-0.65
						c0-0.133-0.066-0.267-0.2-0.4C33.75-15.183,33.583-15.25,33.35-15.25z M31.15-14.15c-0.733,0-1.1,0.117-1.1,0.35
						c0,0.267,0.233,0.433,0.7,0.5c0.433,0.1,0.65-0.017,0.65-0.35C31.4-13.983,31.317-14.15,31.15-14.15z M31.05-17.05h-0.5
						c-0.233,0.233-0.35,0.383-0.35,0.45c0,0.434,0.233,0.684,0.7,0.75c0.4,0.067,0.6-0.1,0.6-0.5c0-0.2,0-0.316,0-0.35
						C31.433-16.767,31.283-16.883,31.05-17.05z M33.75-18.05c0.367,0,0.55-0.2,0.55-0.6c0-0.167-0.066-0.3-0.2-0.4
						c-0.1-0.067-0.233-0.1-0.4-0.1c-0.3,0-0.483,0.1-0.55,0.3v0.3C33.15-18.25,33.35-18.083,33.75-18.05z M35.3-16.8
						c0.267,0,0.4-0.083,0.4-0.25c0-0.233-0.117-0.35-0.35-0.35c-0.3,0-0.45,0.083-0.45,0.25C34.9-16.917,35.033-16.8,35.3-16.8z
						 M35.15-20.15c0.333-0.133,0.5-0.283,0.5-0.45c0-0.267-0.133-0.4-0.4-0.4c-0.233,0-0.417,0.083-0.55,0.25v0.3
						C34.7-20.05,34.85-19.95,35.15-20.15z M33.15-22.2c-0.267,0-0.467,0.167-0.6,0.5l-0.15,0.45c0,0.533,0.184,0.633,0.55,0.3
						c0.4-0.333,0.6-0.617,0.6-0.85C33.55-22.067,33.417-22.2,33.15-22.2z M34.65-22.1c0,0.067,0,0.2,0,0.4c0,0.4,0.1,0.567,0.3,0.5
						c0.133-0.066,0.367-0.183,0.7-0.35c0.167,0,0.367-0.167,0.6-0.5c-0.333-0.233-0.533-0.35-0.6-0.35h-0.6
						C34.817-22.267,34.683-22.167,34.65-22.1z M36.7-19.25c0,0.167,0.216,0.333,0.65,0.5c0.433,0.133,0.65-0.067,0.65-0.6
						c0-0.1-0.1-0.233-0.3-0.4l-0.5-0.05C36.867-19.667,36.7-19.483,36.7-19.25z M36.15-24.65c0-0.333-0.133-0.5-0.4-0.5
						c-0.233,0-0.35,0.133-0.35,0.4c0,0.5,0.117,0.75,0.35,0.75C36.017-24.033,36.15-24.25,36.15-24.65z M37.05-22.1
						c0,0.267,0.267,0.483,0.8,0.65c0.5,0.233,0.75,0.034,0.75-0.6c0-0.1-0.05-0.217-0.15-0.35c-0.1-0.2-0.233-0.3-0.4-0.3
						c-0.4,0-0.7,0.1-0.9,0.3L37.05-22.1z M14.9-36.15c0.267,0,0.4-0.1,0.4-0.3c0-0.233-0.117-0.35-0.35-0.35
						c-0.3,0-0.45,0.15-0.45,0.45C14.5-36.217,14.633-36.15,14.9-36.15z M11.05-31.35c0,0.2,0.25,0.4,0.75,0.6
						c0.567,0.167,0.85-0.017,0.85-0.55c0-0.167-0.017-0.267-0.05-0.3c-0.2-0.133-0.583-0.2-1.15-0.2c-0.233,0-0.367,0.083-0.4,0.25
						V-31.35z M18.2-31.2c-0.034,0-0.05,0.067-0.05,0.2c0,0.333,0.184,0.467,0.55,0.4c0.333-0.066,0.5-0.2,0.5-0.4
						c0-0.067-0.034-0.15-0.1-0.25c-0.033-0.067-0.083-0.1-0.15-0.1C18.55-31.35,18.3-31.3,18.2-31.2z M15.85-33.7
						c-0.267,0.1-0.4,0.2-0.4,0.3c0,0.233,0.233,0.383,0.7,0.45c0.4,0.067,0.6-0.083,0.6-0.45c0-0.1-0.033-0.2-0.1-0.3
						c-0.066-0.133-0.133-0.2-0.2-0.2C16.317-33.9,16.117-33.833,15.85-33.7z M17.25-36.15c0-0.2-0.133-0.3-0.4-0.3
						s-0.434,0.067-0.5,0.2l-0.1,0.2c0,0.233,0.167,0.35,0.5,0.35S17.25-35.85,17.25-36.15z M18.35-35.3
						c0,0.267,0.25,0.433,0.75,0.5c0.467,0.1,0.7-0.05,0.7-0.45c0-0.167-0.083-0.3-0.25-0.4h-1
						C18.417-35.55,18.35-35.433,18.35-35.3z M16.05-38.05C16.017-37.983,16-37.9,16-37.8c0,0.2,0.017,0.316,0.05,0.35
						c0.1,0.034,0.284,0.05,0.55,0.05c0.3,0,0.467-0.017,0.5-0.05c0.033,0,0.05-0.083,0.05-0.25c0-0.4-0.183-0.6-0.55-0.6
						C16.333-38.3,16.15-38.217,16.05-38.05z M14.05-38.5c0-0.133-0.1-0.267-0.3-0.4H13.2c-0.233,0.133-0.383,0.25-0.45,0.35
						c-0.067,0.033-0.1,0.1-0.1,0.2c0,0.367,0.25,0.55,0.75,0.55C13.833-37.8,14.05-38.033,14.05-38.5z M10.4-38
						c-0.066,0.033-0.1,0.1-0.1,0.2l0.05,0.25c0.1,0.1,0.267,0.133,0.5,0.1c0.333,0.467,0.65,0.667,0.95,0.6
						c0.3-0.033,0.45-0.217,0.45-0.55c0-0.167-0.083-0.3-0.25-0.4c-0.167-0.2-0.417-0.3-0.75-0.3h-0.7
						C10.483-38.1,10.433-38.067,10.4-38z M12-40.7c0.267,0.133,0.483,0.2,0.65,0.2l0.05-0.2c0-0.1-0.034-0.216-0.1-0.35
						c-0.067-0.1-0.117-0.15-0.15-0.15c-0.067,0-0.217,0.017-0.45,0.05V-40.7z M37.5-29.65l-0.55,0.05
						c-0.2,0.133-0.3,0.283-0.3,0.45c0,0.3,0.2,0.433,0.6,0.4c0.4,0,0.6-0.15,0.6-0.45C37.85-29.333,37.733-29.483,37.5-29.65z
						 M33.6-26.8c0.4,0.133,0.6-0.083,0.6-0.65c0-0.133-0.034-0.25-0.1-0.35c-0.1-0.233-0.267-0.35-0.5-0.35S33.183-28,33.05-27.7
						c-0.133,0.167-0.2,0.3-0.2,0.4C32.85-27.067,33.1-26.9,33.6-26.8z M27.1-26.8c-0.067,0.133-0.1,0.25-0.1,0.35
						c0,0.467,0.183,0.667,0.55,0.6c0.367,0,0.55-0.2,0.55-0.6c0.066-0.333-0.15-0.5-0.65-0.5C27.317-26.95,27.2-26.9,27.1-26.8z
						 M27.1-27.45c0.233,0,0.35-0.083,0.35-0.25c0-0.3-0.117-0.45-0.35-0.45l-0.25,0.1v0.25C26.85-27.633,26.933-27.517,27.1-27.45z
						 M25.4-26.85c-0.433,0.267-0.717,0.483-0.85,0.65c-0.033,0.167-0.083,0.284-0.15,0.35c0.434,0.133,0.767,0.184,1,0.15
						c0.267-0.033,0.483-0.283,0.65-0.75C26.017-26.65,25.8-26.783,25.4-26.85z M23.45-27.4l-0.9,0.1c-0.066,0-0.1,0.066-0.1,0.2
						c0,0.267,0.4,0.267,1.2,0v-0.2C23.583-27.367,23.517-27.4,23.45-27.4z M21.85-27.25c0.267,0.1,0.4,0.017,0.4-0.25
						c0-0.033-0.05-0.133-0.15-0.3c-0.1-0.167-0.184-0.25-0.25-0.25c-0.167,0-0.283,0.066-0.35,0.2c-0.1,0.033-0.15,0.083-0.15,0.15
						C21.35-27.533,21.517-27.383,21.85-27.25z M24.3-28.4c0,0.467,0.2,0.7,0.6,0.7c0.4-0.066,0.6-0.3,0.6-0.7
						c0-0.434-0.2-0.65-0.6-0.65c-0.333,0-0.533,0.117-0.6,0.35V-28.4z M22.25-35.95c0-0.066-0.067-0.15-0.2-0.25
						c-0.133-0.1-0.25-0.15-0.35-0.15c-0.133,0-0.233,0.05-0.3,0.15c0,0.034,0,0.1,0,0.2c0,0.267,0.15,0.383,0.45,0.35
						C22.117-35.683,22.25-35.783,22.25-35.95z M23.35-42L23-41.35c0,0.4,0.35,0.617,1.05,0.65c0.667,0,1-0.316,1-0.95
						s-0.233-0.95-0.7-0.95C23.983-42.6,23.65-42.4,23.35-42z M27.25-44.8c0.067-0.034,0.1-0.133,0.1-0.3c0-0.533-0.267-0.8-0.8-0.8
						c-0.167,0-0.283,0.033-0.35,0.1l-0.05,0.1c-0.033,0.034-0.066,0.05-0.1,0.05c-0.033,0.033-0.05,0.133-0.05,0.3
						c0,0.2,0.05,0.367,0.15,0.5c0.2,0.233,0.55,0.283,1.05,0.15C27.2-44.733,27.217-44.767,27.25-44.8z M35.05-56.55
						c0-0.667-0.2-1-0.6-1c-0.7,0-1.15,0.133-1.35,0.4l-0.05,0.35c0,0.5,0.333,0.8,1,0.9C34.717-55.767,35.05-55.983,35.05-56.55z
						 M24.05-50.55l-0.7,0.05c-0.067,0-0.1,0.133-0.1,0.4c0,0.233,0.083,0.367,0.25,0.4c0.2,0.067,0.433,0.067,0.7,0
						c0-0.1,0.033-0.316,0.1-0.65v-0.1C24.3-50.517,24.217-50.55,24.05-50.55z M11.8-59.6c0.733,0.1,1.1-0.183,1.1-0.85
						c0-0.2-0.083-0.4-0.25-0.6c-0.2-0.233-0.45-0.35-0.75-0.35c-0.767,0-1.15,0.233-1.15,0.7C10.75-59.967,11.1-59.6,11.8-59.6z
						 M6.1-58.8c-0.233,0.267-0.35,0.433-0.35,0.5c0,0.767,0.267,0.983,0.8,0.65c0.467-0.233,0.817-0.617,1.05-1.15
						c-0.067-0.3-0.333-0.45-0.8-0.45C6.567-59.25,6.333-59.1,6.1-58.8z M12.9-63.45L12.85-63c0,0.467,0.217,0.7,0.65,0.7
						c0.367,0,0.55-0.233,0.55-0.7c0-0.233-0.2-0.45-0.6-0.65L12.9-63.45z M51.4-57.75c0.267-0.1,0.45-0.267,0.55-0.5
						c-0.034-0.133-0.083-0.25-0.15-0.35c-0.066-0.133-0.183-0.2-0.35-0.2c-0.3,0-0.517,0.117-0.65,0.35l-0.15,0.3
						c0,0.167,0,0.267,0,0.3c0.033,0,0.067,0.033,0.1,0.1C50.917-57.683,51.133-57.683,51.4-57.75z M52.5-60.1
						c0,0.5,0.367,0.9,1.1,1.2c0.7,0.3,1.05-0.017,1.05-0.95c0-0.3-0.066-0.517-0.2-0.65c-0.167-0.2-0.534-0.3-1.1-0.3
						c-0.434,0-0.717,0.1-0.85,0.3V-60.1z M56.55-61.75c-0.133,0.067-0.216,0.1-0.25,0.1c-0.066,0.066-0.1,0.183-0.1,0.35
						c0,0.167,0.033,0.3,0.1,0.4c0.034,0,0.117,0.033,0.25,0.1l0.3-0.1c0.066-0.1,0.1-0.233,0.1-0.4v-0.2L56.55-61.75z M52.85-62.5
						c0.667,0.1,1-0.2,1-0.9c0-0.667-0.35-1-1.05-1c-0.6,0-0.9,0.333-0.9,1C51.9-62.9,52.217-62.6,52.85-62.5z"/>
					<path style="fill-rule:evenodd;clip-rule:evenodd;fill:#931834;" d="M46.4-30.3c0,0.333,0.25,0.483,0.75,0.45
						c0.467-0.033,0.7-0.283,0.7-0.75c0-0.267,0-0.433,0-0.5c-0.067-0.167-0.2-0.25-0.4-0.25c-0.467,0-0.784,0.2-0.95,0.6L46.4-30.3
						z M47.85-25.85c-0.4,0-0.684,0.117-0.85,0.35c-0.033,0.067-0.05,0.183-0.05,0.35c0,0.7,0.316,1.1,0.95,1.2
						c0.633,0.1,0.95-0.2,0.95-0.9C48.55-25.517,48.217-25.85,47.85-25.85z M41.5-36.25c-0.067-0.067-0.183-0.1-0.35-0.1
						c-0.667,0-1.083,0.067-1.25,0.2l-0.1,0.3c0,0.467,0.284,0.783,0.85,0.95c0.6,0.2,0.9-0.083,0.9-0.85
						C41.55-36.017,41.533-36.183,41.5-36.25z M44.45-32.65c0-0.467-0.284-0.7-0.85-0.7c-0.467,0-0.783,0.15-0.95,0.45
						c-0.066,0.3-0.1,0.467-0.1,0.5c0,0.633,0.333,0.9,1,0.8C44.15-31.733,44.45-32.083,44.45-32.65z M18.3-16.15
						c0,0.367,0.267,0.6,0.8,0.7c0.533,0.034,0.8-0.216,0.8-0.75c0-0.167-0.1-0.3-0.3-0.4c-0.167-0.133-0.333-0.2-0.5-0.2
						c-0.2,0-0.45,0.066-0.75,0.2C18.317-16.6,18.3-16.45,18.3-16.15z M17.65-21.45c-0.033-0.633-0.333-0.95-0.9-0.95
						c-0.4,0-0.7,0.15-0.9,0.45c-0.1,0.133-0.15,0.3-0.15,0.5c0,0.5,0.35,0.817,1.05,0.95C17.35-20.4,17.65-20.717,17.65-21.45z
						 M15.65-19.35c-0.1,0.267-0.15,0.417-0.15,0.45c0,0.467,0.467,0.867,1.4,1.2c0.867,0.333,1.3-0.017,1.3-1.05
						c0-0.667-0.483-1-1.45-1C16.15-19.75,15.783-19.617,15.65-19.35z M7.9-25.65c0-0.067,0.083-0.184,0.25-0.35
						c0-0.133-0.083-0.267-0.25-0.4c-0.267,0.2-0.45,0.433-0.55,0.7L7.9-25.65z M6.95-34.4c0-0.267-0.167-0.55-0.5-0.85H5.2
						c-0.167,0.167-0.25,0.383-0.25,0.65c0,0.4,0.333,0.717,1,0.95C6.617-33.417,6.95-33.667,6.95-34.4z M5.6-39.15
						c-0.367,0-0.633,0.15-0.8,0.45c-0.133,0.167-0.2,0.35-0.2,0.55c0,0.5,0.35,0.816,1.05,0.95c0.633,0.067,0.95-0.25,0.95-0.95
						C6.567-38.817,6.233-39.15,5.6-39.15z M32-32.7c-0.967,0-1.45,0.284-1.45,0.85c0,0.4,0.35,0.6,1.05,0.6
						c0.733,0,1.1-0.233,1.1-0.7C32.7-32.45,32.467-32.7,32-32.7z M33.75-36.2c-0.2,0-0.317,0.017-0.35,0.05
						c-0.066,0.066-0.117,0.133-0.15,0.2c-0.233,0.333-0.183,0.65,0.15,0.95c0.367,0.267,0.75,0.167,1.15-0.3
						C34.25-35.9,33.983-36.2,33.75-36.2z M38.35-35.45c-0.033-0.133-0.2-0.2-0.5-0.2c-0.267,0-0.467,0.15-0.6,0.45l-0.15,0.45
						c0,0.433,0.217,0.55,0.65,0.35c0.433-0.167,0.65-0.4,0.65-0.7C38.4-35.367,38.383-35.483,38.35-35.45z M31.15-53.55
						c0-0.133-0.05-0.25-0.15-0.35c-0.133-0.133-0.317-0.2-0.55-0.2c-0.167,0-0.45,0.15-0.85,0.45c0.2,0.467,0.517,0.7,0.95,0.7
						C30.95-52.95,31.15-53.15,31.15-53.55z M32.95-53.65c0,0.167,0,0.283,0,0.35c0,0.367,0.25,0.55,0.75,0.55
						c0.466,0,0.7-0.183,0.7-0.55c0-0.434-0.25-0.65-0.75-0.65C33.283-53.95,33.05-53.85,32.95-53.65z M28.6-55.45
						c0-0.066,0.033-0.117,0.1-0.15c0-0.066,0-0.167,0-0.3c0-0.333-0.133-0.633-0.4-0.9c-0.466,0.3-0.7,0.55-0.7,0.75
						c0,0.233,0.05,0.4,0.15,0.5C27.85-55.35,28.133-55.317,28.6-55.45z M21-54.7c0,0.833,0.283,1.2,0.85,1.1
						c0.6,0,0.9-0.417,0.9-1.25c0-0.4-0.267-0.6-0.8-0.6c-0.4,0-0.7,0.133-0.9,0.4L21-54.7z M16.55-53.75
						c0,0.433,0.35,0.683,1.05,0.75c0.7,0.067,1.05-0.2,1.05-0.8c0-0.534-0.383-0.8-1.15-0.8c-0.267,0-0.5,0.15-0.7,0.45
						L16.55-53.75z"/>
				</g>
			</g>
		</g>
		<g>
			<g>
				<path style="fill-rule:evenodd;clip-rule:evenodd;fill:#614E37;" d="M36.25-42.55l-0.2,1.75c0,0.066-0.017,0.133-0.05,0.2
					c-0.033,0.5-0.067,1.017-0.1,1.55c-0.033,0.167-0.15,1.633-0.35,4.4c0.133-1.233,0.333-2.65,0.6-4.25
					c0.367-2.3,0.767-4.583,1.2-6.85c0.233-1.033,0.483-1.95,0.75-2.75c0.167-0.533,0.367-0.983,0.6-1.35
					c0.033,0.633,0.066,1.3,0.1,2c0.1,1.733,0.184,3.617,0.25,5.65l0.3,1.4c-0.033,0.133-0.033,0.267,0,0.4l1.45,16.2
					c-0.367-10.066-0.633-17.6-0.8-22.6c-0.067-1.567-0.117-2.883-0.15-3.95c-0.067-1.267-0.1-2.2-0.1-2.8
					c0.867,0.6,1.8,1.35,2.8,2.25c0.667,0.633,1.35,1.483,2.05,2.55c0.332,0.53,0.682,1.081,1.05,1.65
					c-0.134-0.196-0.217-0.18-0.25,0.05c-0.066,1.066-0.1,2.267-0.1,3.6c-0.033,0.167-0.05,0.333-0.05,0.5
					c0.033,0.333,0.067,0.633,0.1,0.9c-0.033,0.066-0.033,0.133,0,0.2c0,1.033,0.066,1.85,0.2,2.45c0,0.066,0.017,0.1,0.05,0.1h0.05
					c0.033-0.934,0.067-1.717,0.1-2.35c0.1-1.133,0.15-1.733,0.15-1.8v-0.1c0.033-0.7,0.117-1.5,0.25-2.4V-46
					c0.033-0.167,0.067-0.35,0.1-0.55c1.033,1.8,2.017,3.716,2.95,5.75c0,0.033,0.483,1.283,1.45,3.75
					c0.167,0.4,0.35,0.833,0.55,1.3c0.133,0.333,0.267,0.683,0.4,1.05c0.267,0.667,0.533,1.367,0.8,2.1
					c-0.133-0.6-0.267-1.15-0.4-1.65c-0.133-0.433-0.25-0.867-0.35-1.3c-0.133-0.267-0.233-0.567-0.3-0.9
					c-1-3.267-1.85-5.733-2.55-7.4c-0.533-0.667-0.9-1.133-1.1-1.4c-0.367-0.467-0.917-1.167-1.65-2.1
					c-0.033,0.3-0.083,0.45-0.15,0.45c-0.233-0.6-0.45-1.133-0.65-1.6c-0.367-0.733-0.683-1.35-0.95-1.85
					c-0.566-0.967-1.216-1.9-1.95-2.8c-1.233-1.167-2.05-2.033-2.45-2.6c-0.633-0.833-1.05-2.15-1.25-3.95
					c-0.033-0.267-0.683-3-1.95-8.2c-0.6-2.434-0.934-4.684-1-6.75c-0.067-1.2-0.05-2.317,0.05-3.35c0.033-0.267,0.1-0.667,0.2-1.2
					c0.033-0.3,0.083-0.566,0.15-0.8c0-0.133,0.033-0.283,0.1-0.45c0.033,0,0.1-0.033,0.2-0.1c0.2-0.167,0.333-0.25,0.4-0.25
					c0.7,0,1.934,0.617,3.7,1.85c0.2,0.133,0.417,0.284,0.65,0.45c0.233,0.2,0.467,0.383,0.7,0.55c1.033,0.733,1.95,1.7,2.75,2.9
					c0.533,0.966,1.017,2.066,1.45,3.3c-0.833,2.267-1.55,4.267-2.15,6c-0.367,1.2-0.7,2.233-1,3.1c-0.033,0.3-0.05,0.55-0.05,0.75
					c0,0.367,0.017,0.7,0.05,1c-0.033,1.7-0.066,2.85-0.1,3.45c0.1-1.066,0.25-2.117,0.45-3.15c0.067-0.267,0.133-0.55,0.2-0.85
					c0.233-1.033,0.517-2.05,0.85-3.05c0.067-0.167,0.133-0.333,0.2-0.5s0.133-0.333,0.2-0.5c0.633-1.633,1.367-2.85,2.2-3.65
					c0.267-0.267,0.567-0.5,0.9-0.7c1.667,4.267,2.583,7.417,2.75,9.45c0.1,1.2,0.3,2.4,0.6,3.6c0.033,0.333,0.1,0.65,0.2,0.95
					c-0.033-0.267-0.05-0.55-0.05-0.85c-0.867-7.333-2.167-12.917-3.9-16.75c-0.6-1.3-1.35-2.533-2.25-3.7c-0.8-1-1.7-1.934-2.7-2.8
					c-0.733-0.633-1.383-1.316-1.95-2.05c-1-1.167-1.717-2.417-2.15-3.75c-0.7-2.033-0.85-4.833-0.45-8.4
					c0.067-0.567,0.133-1.1,0.2-1.6c0.3-2.467,0.583-3.65,0.85-3.55c0.267,0.133,0.483,0.2,0.65,0.2c0.7,0,1.267,0.817,1.7,2.45
					c0.233,0.867,0.467,1.9,0.7,3.1c0.067,0.6,0.15,1.367,0.25,2.3c0.067,0.7,0.15,1.467,0.25,2.3c0.167,1.3,0.3,2.517,0.4,3.65
					c0.033-0.633,0.05-1.367,0.05-2.2c0-0.933-0.034-1.983-0.1-3.15c0.333,0.3,0.7,0.767,1.1,1.4c0.133,0.167,0.25,0.333,0.35,0.5
					c0.034,3.433,0.4,5.783,1.1,7.05c-0.367-0.867-0.533-1.8-0.5-2.8c0-1.6,0.017-2.667,0.05-3.2c0.367,0.7,1.933,3.483,4.7,8.35
					c-1.133-3.533-2.417-6.367-3.85-8.5c-1.433-2.133-2.45-3.566-3.05-4.3c-0.067-0.233-0.133-0.633-0.2-1.2
					c-0.033-0.5-0.1-0.933-0.2-1.3c-0.3-0.967-0.483-1.667-0.55-2.1c0.3,0.1,0.733,0.183,1.3,0.25c0.4,0.067,0.75,0.117,1.05,0.15
					c1.567,0.3,2.434,0.483,2.6,0.55c0.2,0.167,0.4,0.316,0.6,0.45c0.2,0.2,0.433,0.417,0.7,0.65c1.233,1.167,2.083,2.117,2.55,2.85
					c0.066,0.067,0.15,0.184,0.25,0.35c0.167,0.367,0.45,0.917,0.85,1.65c0,0.434,0.033,1.1,0.1,2c0.1,1.867,0.2,3.4,0.3,4.6
					c0.1,1.3,0.316,2.65,0.65,4.05c0.1,0.434,0.2,0.833,0.3,1.2c-0.233-1.233-0.433-2.883-0.6-4.95
					c-0.034-0.867-0.133-2.833-0.3-5.9c0.167,0.4,0.367,0.833,0.6,1.3c0.567,1.267,1.017,2.267,1.35,3
					c-1-2.733-1.767-4.817-2.3-6.25c-0.466-1.2-0.767-1.967-0.9-2.3v-0.05c-1.2-2.7-2.267-4.233-3.2-4.6
					c-0.534-0.2-1.317-0.767-2.35-1.7c-1.067-0.966-1.9-1.533-2.5-1.7c-0.6-0.167-1.25-0.684-1.95-1.55
					c-0.066-0.033-0.117-0.1-0.15-0.2c-0.733-0.934-1.083-1.667-1.05-2.2c0.066-0.467,0.283-1.65,0.65-3.55
					c0.267-1.434,0.417-2.817,0.45-4.15c0-0.067,0.017-0.133,0.05-0.2c-0.033-0.133-0.05-0.283-0.05-0.45h0.15
					c0.033-0.233,0.117-0.65,0.25-1.25c0.167-1.7,0.3-3.75,0.4-6.15c0.033-0.367-0.1-1.316-0.4-2.85c-0.3-1.5-0.417-2.6-0.35-3.3
					c0.033-0.1,0.117-0.333,0.25-0.7c0.1-0.333,0.167-0.683,0.2-1.05c0.034-0.4,0.017-2.65-0.05-6.75c0.067,0.967,0.167,2,0.3,3.1
					c0.3,2.367,0.617,3.55,0.95,3.55c0.2,0,0.367-0.183,0.5-0.55c0.067-0.6,0.05-1.833-0.05-3.7c-0.167-2.1-0.383-3.983-0.65-5.65
					c-0.267-1.267-0.367-2.55-0.3-3.85c0.033-1.566,0.033-2.767,0-3.6c-0.1-0.733-0.2-1.466-0.3-2.2
					c-0.167-1.533-0.383-2.983-0.65-4.35c0-0.033-0.333-1.8-1-5.3c0.267,0.267,0.534,0.75,0.8,1.45h1
					c-0.067-0.633,0.05-2.433,0.35-5.4c0.3-3.033,0.433-5.283,0.4-6.75c-0.067-1.167-0.35-2.983-0.85-5.45
					c-0.067-0.367-0.133-0.7-0.2-1c-0.3-0.867-0.433-1.367-0.4-1.5c0.067-0.2,0.267-0.65,0.6-1.35c0.367-0.633,0.567-1.117,0.6-1.45
					l0.05-0.75c1.133-1.233,1.783-2.467,1.95-3.7c0.133-0.6,0.316-1.083,0.55-1.45c0.4-0.6,0.95-0.9,1.65-0.9
					c0.767,0,1.517-0.317,2.25-0.95c0.7-0.6,1.284-0.9,1.75-0.9c0.233,0,0.467,0.083,0.7,0.25c0.233,0.167,0.5,0.25,0.8,0.25
					c0.133,0,0.25-0.05,0.35-0.15c0.1-0.067,0.2-0.1,0.3-0.1c-0.367-0.6-1.617-0.9-3.75-0.9c-0.8,0-1.383-0.317-1.75-0.95
					c-0.1-0.167-0.184-0.3-0.25-0.4c-0.167-0.267-0.65-0.517-1.45-0.75c0.333-0.367,0.7-0.6,1.1-0.7c0.267-0.1,0.733-0.183,1.4-0.25
					c0.333,0,0.733-0.117,1.2-0.35c0.167-0.1,0.333-0.167,0.5-0.2c0.066,0,0.333-0.067,0.8-0.2h0.05c0.733,0,1.383-0.083,1.95-0.25
					h0.05c0.067,0,0.133,0,0.2,0c0.167,0,0.45,0.017,0.85,0.05c0.267,0.033,0.533,0.066,0.8,0.1c-0.133,0.034-0.283,0.083-0.45,0.15
					c1-0.3,1.617-0.467,1.85-0.5c0.4-0.034,0.883-0.3,1.45-0.8c0.533-0.433,1.133-0.667,1.8-0.7c0,0.066,0.684,0.15,2.05,0.25
					c0.667,0.066,1.35,0.117,2.05,0.15c0.667,0,1.55-0.117,2.65-0.35c-0.533,0.067-0.733,0.083-0.6,0.05
					c0.064-0.021,0.131-0.046,0.2-0.075c-2.137-0.14-4.586-0.398-7.35-0.775c-1.066,0.167-1.816,0.25-2.25,0.25
					c-0.233,0.767-0.966,1.233-2.2,1.4c-2.033,0.3-3.083,0.467-3.15,0.5c-3.233,1.1-5.483,1.717-6.75,1.85c-0.167,0-0.317,0-0.45,0
					c-0.667,0-1.9-0.383-3.7-1.15c-1.933-0.8-3.183-1.25-3.75-1.35c-0.4-0.067-1.867-0.6-4.4-1.6c-2.2-0.867-4.467-1.434-6.8-1.7
					c-0.1,0.067-0.2,0.133-0.3,0.2c3.367,0.6,6.083,1.55,8.15,2.85c0.333,0.2,1.6,0.617,3.8,1.25c1.067,0.3,1.917,0.583,2.55,0.85
					c0.3-0.066,0.55-0.117,0.75-0.15h0.05c0.066,0.067,0.15,0.133,0.25,0.2h0.05c0.2,0.167,0.417,0.35,0.65,0.55l0.4,0.3
					c0.066,0.1,0.167,0.2,0.3,0.3c0.267,0.233,0.383,0.417,0.35,0.55c0.767,0.7,1.217,1.083,1.35,1.15H40.8
					c-1.966-0.4-4.383-1.034-7.25-1.9c-2.233-0.7-3.383-1.066-3.45-1.1c0.063,0,0.121,0,0.175,0c-0.084-0.003-0.143-0.037-0.175-0.1
					c-0.033-0.033-0.05,0-0.05,0.1c-0.6,0-0.966,0.017-1.1,0.05c-0.3,0.133-0.467,0.45-0.5,0.95c-0.267-0.034-1.167-0.317-2.7-0.85
					c-0.933-0.333-1.783-0.417-2.55-0.25v-0.25c0.133-0.067,0.216-0.15,0.25-0.25c-0.367-0.2-1.367-0.417-3-0.65
					c-1.633-0.233-2.9-0.35-3.8-0.35c-0.467,0-0.85,0.017-1.15,0.05c0.367,0.4,1.25,0.667,2.65,0.8c1,0.133,2.3,0.267,3.9,0.4
					c0.667,0.133,1.517,0.5,2.55,1.1c0.833,0.466,1.783,0.716,2.85,0.75c2.267,0.1,4.383,2.483,6.35,7.15
					c1.5,3.4,2.3,8.983,2.4,16.75c0.1,6.2,0.466,10.533,1.1,13c0.1,0.3,0.383,2.917,0.85,7.85c0.434,4.9,0.65,7.617,0.65,8.15
					l-0.25,6.5c0,0.767,0.067,1.517,0.2,2.25c0.1,0.467,0.15,1.8,0.15,4c-0.066,1.167-0.15,2.316-0.25,3.45
					c-0.333,3.5-0.75,7.117-1.25,10.85c-0.367,2.833-0.783,5.7-1.25,8.6c-0.467,2.8-0.967,5.667-1.5,8.6
					c0.033,0.333,0.033,0.55,0,0.65c-0.2,1.833-0.85,4.217-1.95,7.15c-0.767,1.833-1.333,3.217-1.7,4.15
					c-0.1,0.233-0.183,0.434-0.25,0.6c0.033-0.133,0.067-0.267,0.1-0.4l0.05-0.3c-0.233,0.2-1.1,1.233-2.6,3.1
					c-1.066,1.4-2.033,2.434-2.9,3.1c-0.4,0.3-0.783,0.633-1.15,1c-0.233,0.233-0.4,0.417-0.5,0.55c-0.233,0.233-0.4,0.383-0.5,0.45
					c-0.3,0.267-0.733,0.867-1.3,1.8c-0.333,0.533-0.617,0.933-0.85,1.2c-0.467,1.1-0.983,2.434-1.55,4
					c-0.367,0.9-0.667,1.7-0.9,2.4c-0.167,0.367-0.316,0.717-0.45,1.05c-1,2.667-1.483,3.983-1.45,3.95
					c0.733-1.7,1.45-3.283,2.15-4.75c0.2-0.433,0.417-0.867,0.65-1.3c0.667-1.4,1.333-2.65,2-3.75c0.067-0.133,0.15-0.267,0.25-0.4
					c0,0.033,0.017,0.05,0.05,0.05c-0.033,1.133-0.05,2.45-0.05,3.95v0.1c0,0.267,0,0.533,0,0.8c0,0.1-0.2,1.517-0.6,4.25
					c-0.1,0.9-0.184,1.6-0.25,2.1c-0.133,1.167-0.15,1.483-0.05,0.95c0.167-0.8,0.45-2.183,0.85-4.15c0.333-2,0.517-3.05,0.55-3.15
					c0-0.267,0.017-0.533,0.05-0.8c0-0.067,0.017-0.117,0.05-0.15c0.133-1.167,0.267-2.583,0.4-4.25c-0.033-0.133-0.033-0.267,0-0.4
					c0-0.233,0-0.467,0-0.7c0.233-0.333,0.467-0.667,0.7-1c0.3-0.434,0.617-0.85,0.95-1.25c1.7-2.267,3.283-3.833,4.75-4.7
					c-0.133,0.333-0.25,0.683-0.35,1.05c-1.067,3.367-1.65,5.284-1.75,5.75c-0.1,0.333-0.184,0.633-0.25,0.9v0.05
					c-0.267,1.067-0.5,2.117-0.7,3.15c-0.5,2.367-1,4.75-1.5,7.15l-0.05,0.1c-0.467,2.267-0.85,4.517-1.15,6.75
					c0,0.033-0.083,0.667-0.25,1.9c-0.133,1-0.35,2.4-0.65,4.2c-0.1,0.833-0.216,1.717-0.35,2.65c-0.133,1.067-0.2,1.667-0.2,1.8
					c0.233-1.667,0.45-3.184,0.65-4.55c0.233-1.566,0.434-2.9,0.6-4c0.233-1.433,0.417-2.5,0.55-3.2
					c0.7-3.767,1.684-7.55,2.95-11.35H27c-0.033,0.8-0.217,2.65-0.55,5.55c-0.067,0.6-0.133,1.233-0.2,1.9c0,0.467,0,0.983,0,1.55
					c0,0.066-0.017,0.117-0.05,0.15v0.05c0,0.3,0,0.55,0,0.75L26.15-55c-0.033,2.2-0.1,4.733-0.2,7.6
					c-0.034,0.433-0.05,0.867-0.05,1.3c-0.033,0.233-0.05,0.467-0.05,0.7c-0.167,3.8-0.233,5.917-0.2,6.35
					c0.033,0.433,0.067,0.316,0.1-0.35c0.267-3.633,0.417-5.483,0.45-5.55h0.05c0-0.267,0.017-0.533,0.05-0.8
					c0-0.367,0.017-0.75,0.05-1.15c0.066-1.4,0.133-2.55,0.2-3.45c0.034-1.1,0.15-2.633,0.35-4.6c0.934,0.7,1.617,1.317,2.05,1.85
					c0.033,0,0.133,0.184,0.3,0.55c0.2,0.4,0.567,1.2,1.1,2.4c0.133,0.333,0.283,1.35,0.45,3.05l-0.1-3.05
					c-0.467-1.367-0.983-2.467-1.55-3.3l-1.55-1.8c-0.467-0.533-0.733-1.233-0.8-2.1c-0.133-1.133-0.066-2.967,0.2-5.5
					c0.067-0.633,0.267-1.433,0.6-2.4c0.066-0.633,0.133-1.3,0.2-2l1.35-4.8c0.434-1.2,0.833-2.284,1.2-3.25
					c0.633-2.034,1.183-3.583,1.65-4.65c0.467-1.233,0.817-1.85,1.05-1.85c0.4,0,0.7,0.533,0.9,1.6c0.167,0.934,0.216,1.8,0.15,2.6
					c-0.033,0.267-0.067,0.517-0.1,0.75c-0.2,1.6-0.55,3.35-1.05,5.25c-0.1,0.333-0.184,0.65-0.25,0.95
					c-0.067,0.233-0.117,0.483-0.15,0.75c0,0.066,0,0.117,0,0.15c-0.167,0.367-0.316,0.75-0.45,1.15c-0.233,0.6-0.45,1.267-0.65,2
					c0,0.033-0.017,0.083-0.05,0.15c-0.133,0.5-0.517,1.934-1.15,4.3c0.667-2.133,1.033-3.3,1.1-3.5c0.4-1.233,0.717-2.067,0.95-2.5
					c-0.133,0.6-0.216,1.1-0.25,1.5c0.1-0.6,0.25-1.184,0.45-1.75c0.4-1.367,0.783-2.067,1.15-2.1c0.233,0.033,0.4,0.933,0.5,2.7
					c0.1,1.633,0.117,2.733,0.05,3.3c-0.434,4.433-0.667,6.833-0.7,7.2c-0.133,1.4-0.25,2.566-0.35,3.5
					c-0.033,0.333-0.066,0.617-0.1,0.85c-0.1,1.034-0.167,1.717-0.2,2.05c-0.333,2.667-0.733,4.783-1.2,6.35
					c-0.333,1.2-0.6,2.167-0.8,2.9c-0.367,1.267-0.75,2.35-1.15,3.25c-0.367,0.833-0.95,1.483-1.75,1.95
					c-0.034,0-0.067,0.017-0.1,0.05c-0.434,0.833-0.983,1.483-1.65,1.95c-0.167,0.133-0.333,0.25-0.5,0.35
					c-0.367,0.333-0.75,0.667-1.15,1c-0.1,0.067-0.167,0.117-0.2,0.15c-0.167,0.167-0.317,0.3-0.45,0.4
					C23.667-32.317,23.367-32,23-31.6c-0.233,0.3-0.4,0.5-0.5,0.6c0.033,0,0.083-0.017,0.15-0.05c0.5-0.5,1.267-1.067,2.3-1.7
					c0.1-0.067,0.2-0.133,0.3-0.2c1.233-0.667,1.867-1.017,1.9-1.05c0.3-0.367,0.667-0.9,1.1-1.6c0.467-0.533,0.983-1.2,1.55-2
					c0.133-0.033,0.233-0.066,0.3-0.1c0.467,0.034,0.733,0.4,0.8,1.1c0.067,1.9,0.133,3.033,0.2,3.4
					c0.033,0.133,0.133,0.534,0.3,1.2c0.2,0.6,0.333,1.233,0.4,1.9c0.1,1.333,0.184,2.184,0.25,2.55c0.034,0.6,0.133,1,0.3,1.2
					c0.433,0.533,0.85,1.067,1.25,1.6c0.566,0.8,1.117,1.583,1.65,2.35c-0.167-0.434-0.283-0.867-0.35-1.3v-0.05
					c-0.2-1.1-0.633-2.117-1.3-3.05c-0.6-0.833-0.917-1.717-0.95-2.65c-0.033-0.466-0.217-2.35-0.55-5.65
					c-0.267-2.333-0.317-4.2-0.15-5.6c0.1-1.066,0.4-2.767,0.9-5.1c0.5-2.267,0.833-4.167,1-5.7c0-0.233,0.017-0.467,0.05-0.7
					c0.033-0.4,0.05-0.8,0.05-1.2c0.167-1.767,0.3-3.684,0.4-5.75c0.133-2.7,0.2-4.833,0.2-6.4l0.3-3.3c0.1,0,0.25-0.083,0.45-0.25
					c0.133-0.1,0.25-0.167,0.35-0.2c0.367,0.033,1.067,2.733,2.1,8.1c0.267,1.333,0.517,3.05,0.75,5.15c0.2,2,0.283,3.183,0.25,3.55
					c-0.033,0.3-0.117,0.7-0.25,1.2c-0.167,0.633-0.433,1.466-0.8,2.5c-0.034,0.066-0.067,0.133-0.1,0.2
					C37-47.033,36.55-45.017,36.25-42.55z M51.25-92.95c0.267,0.6,0.483,1.067,0.65,1.4c0,0.033,0.067,0.183,0.2,0.45v0.05
					c0.1,0.267,0.167,0.433,0.2,0.5c0.034,0.066,0.067,0.133,0.1,0.2c4.133,2.6,7.117,5.767,8.95,9.5
					c1.867,3.833,3.483,7.717,4.85,11.65c0.133,0.367,0.25,0.717,0.35,1.05c-1.733-7.667-4.633-13.967-8.7-18.9
					c-1.533-1.9-3.15-3.483-4.85-4.75C52.267-92.3,51.683-92.683,51.25-92.95z M27.15-192.8c0.267,0,0.633-0.034,1.1-0.1
					c0.167-0.033,0.333-0.067,0.5-0.1c-0.433,0-0.867,0-1.3,0C27.317-192.967,27.217-192.9,27.15-192.8z M30.5-80.2l0.05-0.15
					c0.034-0.1,0.067-0.183,0.1-0.25C30.583-80.4,30.533-80.267,30.5-80.2z"/>
				<path style="fill-rule:evenodd;clip-rule:evenodd;fill:#4E3D28;" d="M41.85-77.95c-0.233-0.167-0.467-0.35-0.7-0.55
					c-0.233-0.167-0.45-0.317-0.65-0.45c-1.767-1.233-3-1.85-3.7-1.85c-0.066,0-0.2,0.083-0.4,0.25c-0.1,0.066-0.167,0.1-0.2,0.1
					c-0.067,0.167-0.1,0.317-0.1,0.45c-0.067,0.233-0.117,0.5-0.15,0.8c-0.1,0.534-0.167,0.934-0.2,1.2
					c-0.1,1.033-0.117,2.15-0.05,3.35c0.066,2.066,0.4,4.316,1,6.75c1.267,5.2,1.917,7.933,1.95,8.2c0.2,1.8,0.617,3.117,1.25,3.95
					c0.4,0.567,1.217,1.433,2.45,2.6c0.733,0.9,1.383,1.833,1.95,2.8c0.267,0.5,0.583,1.117,0.95,1.85c0.2,0.467,0.417,1,0.65,1.6
					c0.067,0,0.117-0.15,0.15-0.45c0.733,0.934,1.284,1.633,1.65,2.1c0.2,0.267,0.566,0.733,1.1,1.4c-0.233-0.467-0.45-0.9-0.65-1.3
					c-0.8-1.367-1.3-2.283-1.5-2.75c-0.1-0.133-0.15-0.233-0.15-0.3c-1.4-2.233-2.65-3.85-3.75-4.85c-0.967-0.9-2.1-2.85-3.4-5.85
					c-0.267-2.1-0.617-4.033-1.05-5.8c-0.033-0.2-0.083-0.45-0.15-0.75c-0.1-0.733-0.333-1.716-0.7-2.95
					c-0.5-1.667-0.833-3.217-1-4.65c0-0.167,0-0.367,0-0.6c-0.067-1.133,0-3.033,0.2-5.7c1.7,0,3.2,0.333,4.5,1
					C41.383-78.217,41.617-78.083,41.85-77.95z M42.5-88.95c-0.1-0.833-0.183-1.6-0.25-2.3c-0.1-0.933-0.183-1.7-0.25-2.3
					c-0.233-1.2-0.467-2.233-0.7-3.1c-0.433-1.633-1-2.45-1.7-2.45c-0.167,0-0.383-0.066-0.65-0.2c-0.267-0.1-0.55,1.083-0.85,3.55
					c-0.067,0.5-0.133,1.033-0.2,1.6c-0.4,3.566-0.25,6.367,0.45,8.4c0.433,1.333,1.15,2.583,2.15,3.75
					c0.567,0.733,1.217,1.417,1.95,2.05c1,0.867,1.9,1.8,2.7,2.8c0.9,1.167,1.65,2.4,2.25,3.7c1.733,3.833,3.033,9.417,3.9,16.75
					c0,0.3,0.017,0.583,0.05,0.85c0.033,0.1,0.066,0.2,0.1,0.3c0.1,0.367,0.216,0.733,0.35,1.1c0,0.034,0,0.083,0,0.15
					c0.034,0.066,0.067,0.133,0.1,0.2c0-0.066,0-0.133,0-0.2c-0.033,0-0.033-0.017,0-0.05c-0.066-0.6-0.133-1.3-0.2-2.1
					c-0.233-1.633-0.534-3.767-0.9-6.4C49.9-69.183,49.067-72.9,48.3-74c-1.167-1.7-2.316-3.283-3.45-4.75
					c-1.4-1.667-2.8-3.167-4.2-4.5c-0.2-0.233-0.383-0.467-0.55-0.7c-1-1.333-1.45-3.15-1.35-5.45c0.033-0.4,0.067-0.8,0.1-1.2
					c0.267-3.1,0.517-5.566,0.75-7.4l0.9,1c0.6,1.1,1.167,3.167,1.7,6.2C42.3-90.133,42.4-89.517,42.5-88.95z M53.95-192.55
					c0.167-0.067,0.316-0.117,0.45-0.15c-0.267-0.033-0.533-0.066-0.8-0.1c-0.4-0.034-0.684-0.05-0.85-0.05c-0.067,0-0.133,0-0.2,0
					H52.5c-0.567,0.167-1.217,0.25-1.95,0.25H50.5c-0.467,0.133-0.733,0.2-0.8,0.2c-0.167,0.033-0.333,0.1-0.5,0.2
					c-0.467,0.233-0.867,0.35-1.2,0.35c-0.667,0.067-1.133,0.15-1.4,0.25c-0.4,0.1-0.767,0.333-1.1,0.7
					c0.8,0.233,1.283,0.483,1.45,0.75c0.066,0.1,0.15,0.233,0.25,0.4c0.367,0.633,0.95,0.95,1.75,0.95c2.133,0,3.383,0.3,3.75,0.9
					c-0.1,0-0.2,0.033-0.3,0.1c-0.1,0.1-0.217,0.15-0.35,0.15c-0.3,0-0.566-0.083-0.8-0.25c-0.233-0.167-0.467-0.25-0.7-0.25
					c-0.466,0-1.05,0.3-1.75,0.9c-0.733,0.633-1.483,0.95-2.25,0.95c-0.7,0-1.25,0.3-1.65,0.9c-0.233,0.367-0.417,0.85-0.55,1.45
					c-0.167,1.233-0.817,2.467-1.95,3.7l-0.05,0.75c-0.033,0.333-0.233,0.817-0.6,1.45c-0.333,0.7-0.533,1.15-0.6,1.35
					c-0.033,0.133,0.1,0.633,0.4,1.5c0.067,0.3,0.133,0.633,0.2,1c0.5,2.467,0.783,4.284,0.85,5.45c0.033,1.467-0.1,3.717-0.4,6.75
					c-0.3,2.967-0.417,4.767-0.35,5.4h-1c-0.267-0.7-0.533-1.183-0.8-1.45c0.667,3.5,1,5.267,1,5.3
					c0.267,1.367,0.483,2.817,0.65,4.35c0.1,0.733,0.2,1.467,0.3,2.2c0.033,0.833,0.033,2.034,0,3.6
					c-0.067,1.3,0.033,2.583,0.3,3.85c0.267,1.667,0.483,3.55,0.65,5.65c0.1,1.867,0.117,3.1,0.05,3.7
					c-0.133,0.367-0.3,0.55-0.5,0.55c-0.333,0-0.65-1.183-0.95-3.55c-0.133-1.1-0.233-2.133-0.3-3.1c0.067,4.1,0.083,6.35,0.05,6.75
					c-0.033,0.367-0.1,0.717-0.2,1.05c-0.133,0.367-0.217,0.6-0.25,0.7c-0.067,0.7,0.05,1.8,0.35,3.3
					c0.3,1.534,0.433,2.483,0.4,2.85c-0.1,2.4-0.233,4.45-0.4,6.15c-0.133,0.6-0.217,1.017-0.25,1.25H40.8
					c0,0.167,0.017,0.317,0.05,0.45c-0.033,0.067-0.05,0.133-0.05,0.2c-0.033,1.333-0.183,2.716-0.45,4.15
					c-0.367,1.9-0.583,3.083-0.65,3.55c-0.034,0.533,0.316,1.267,1.05,2.2c0.033,0.1,0.083,0.167,0.15,0.2
					c0.7,0.867,1.35,1.383,1.95,1.55c0.6,0.167,1.433,0.733,2.5,1.7c1.033,0.934,1.816,1.5,2.35,1.7c0.933,0.367,2,1.9,3.2,4.6v0.05
					c0.133,0.333,0.434,1.1,0.9,2.3c0.534,1.433,1.3,3.517,2.3,6.25c0.167,0.4,0.283,0.716,0.35,0.95
					c0.066,0.133,1.3,2.517,3.7,7.15L57.2-79.4c-2.2-4.833-3.8-8.483-4.8-10.95c-0.033-0.066-0.066-0.133-0.1-0.2
					c-0.033-0.067-0.1-0.233-0.2-0.5c-0.033-0.067-0.067-0.133-0.1-0.2l0.1,0.15c-0.133-0.267-0.2-0.417-0.2-0.45
					c-0.167-0.333-0.383-0.8-0.65-1.4C50.917-93.683,50.5-94.6,50-95.7c-0.033-0.066-0.083-0.167-0.15-0.3
					c-0.4-0.933-0.7-1.65-0.9-2.15c-0.434-0.867-0.784-1.35-1.05-1.45c-0.733-0.1-1.45-0.316-2.15-0.65
					c-0.267-0.267-0.517-0.517-0.75-0.75c-0.433-0.433-0.8-0.8-1.1-1.1c-0.233-0.2-0.433-0.367-0.6-0.5
					c-0.133-0.167-0.267-0.367-0.4-0.6c-0.667-0.867-0.967-1.6-0.9-2.2c0.033-0.4,0-1.45-0.1-3.15c0-1.067,0-2.25,0-3.55
					c0-0.233-0.017-0.517-0.05-0.85c0-0.033,0-0.083,0-0.15c0-0.066,0-0.133,0-0.2c0.2-1.633,0.65-5.083,1.35-10.35
					c0.167-1.3,0.3-2.467,0.4-3.5c0.066-0.833,0.15-1.583,0.25-2.25c0.066-1,0.133-3.567,0.2-7.7c0.034-0.167,0.05-0.367,0.05-0.6
					c0-2.966,0-6.683,0-11.15c0.033-2.066,0.05-4.267,0.05-6.6c0-3.867,0.017-8.05,0.05-12.55c0-0.133,0.05-2.033,0.15-5.7
					c0.5-1.767,1.167-3.55,2-5.35c1.6-3.4,3.133-5.35,4.6-5.85c0.233-0.1,1.133-0.317,2.7-0.65c1.567-0.4,2.5-0.733,2.8-1
					c0.367-0.3,2.05-1.117,5.05-2.45c3.1-1.367,4.7-2.083,4.8-2.15h-4.5c-1.633,0.833-2.633,1.35-3,1.55
					c-0.433,0.2-0.95,0.3-1.55,0.3c-0.967,0-1.583,0-1.85,0c-0.7-0.067-1.267-0.184-1.7-0.35c-0.7-0.3-1.317-0.7-1.85-1.2
					c-0.4-0.333-0.717-0.583-0.95-0.75c0.633-0.167,1.367-0.383,2.2-0.65C53.4-192.35,53.683-192.45,53.95-192.55z M24.6-197.1
					c2.333,0.267,4.6,0.833,6.8,1.7c2.533,1,4,1.533,4.4,1.6c0.567,0.1,1.817,0.55,3.75,1.35c1.8,0.767,3.034,1.15,3.7,1.15
					c0.133,0,0.283,0,0.45,0c1.267-0.133,3.517-0.75,6.75-1.85c0.066-0.033,1.117-0.2,3.15-0.5c1.233-0.167,1.967-0.633,2.2-1.4
					c0.434,0,1.184-0.083,2.25-0.25c2.764,0.376,5.213,0.635,7.35,0.775c0.163-0.06,0.346-0.135,0.55-0.225
					c-0.737-0.2-1.712-0.391-2.925-0.575c-1.206-0.184-1.914-0.342-2.125-0.475c-0.211-0.133-0.944-0.224-2.2-0.275
					c-1.263-0.05-2.03-0.075-2.3-0.075c-0.3,0-1.3,0.267-3,0.8c-1.7,0.567-2.65,0.883-2.85,0.95c-1.2,0.233-3,0.35-5.4,0.35
					c-1.967-0.067-3.25-0.1-3.85-0.1c-0.267,0-0.783,0.083-1.55,0.25l-1.1,0.25c-0.333,0-1.983-0.65-4.95-1.95
					c-3-1.3-4.883-1.95-5.65-1.95c-1.133,0-1.75,0-1.85,0C25.5-197.483,24.967-197.333,24.6-197.1z M27.45-193
					c0.433,0,0.867,0,1.3,0c-0.167,0.033-0.333,0.067-0.5,0.1c-0.467,0.066-0.833,0.1-1.1,0.1c-0.066,0-0.133,0-0.2,0
					c-0.367,0-1.233-0.2-2.6-0.6c-1.333-0.434-2.017-0.65-2.05-0.65c-0.633,0.033-1.483-0.017-2.55-0.15
					c-1.133-0.133-1.833-0.2-2.1-0.2c-0.3,0-0.683,0.05-1.15,0.15c-0.5,0.133-0.9,0.2-1.2,0.2c0,0.167,0.067,0.316,0.2,0.45
					c0.3-0.033,0.683-0.05,1.15-0.05c0.9,0,2.167,0.117,3.8,0.35c1.633,0.233,2.633,0.45,3,0.65c-0.034,0.1-0.117,0.183-0.25,0.25
					v0.25c0.767-0.167,1.617-0.083,2.55,0.25c1.533,0.533,2.433,0.816,2.7,0.85c0.033-0.5,0.2-0.817,0.5-0.95
					c0.133-0.033,0.5-0.05,1.1-0.05c0-0.1,0.017-0.133,0.05-0.1c0.032,0.063,0.09,0.097,0.175,0.1c-0.054,0-0.112,0-0.175,0
					c0.066,0.033,1.217,0.4,3.45,1.1c2.867,0.867,5.284,1.5,7.25,1.9h2.15c-0.133-0.067-0.583-0.45-1.35-1.15
					c0.033-0.133-0.083-0.316-0.35-0.55c-0.133-0.1-0.233-0.2-0.3-0.3l-0.4-0.3c-0.233-0.2-0.45-0.383-0.65-0.55h-0.05
					c-0.1-0.067-0.184-0.133-0.25-0.2h-0.05c-0.2,0.033-0.45,0.083-0.75,0.15c0,0.034-0.017,0.05-0.05,0.05
					c-0.467,0.167-0.883,0.233-1.25,0.2c-0.9,0.034-2.25-0.233-4.05-0.8c-0.333-0.1-0.667-0.2-1-0.3c-0.067,0-0.117,0-0.15,0
					c-0.9-0.233-1.75-0.4-2.55-0.5c-0.367-0.034-0.733-0.05-1.1-0.05c-0.333,0-0.583,0.033-0.75,0.1
					C27.733-193.183,27.583-193.1,27.45-193z M30.7-50.15v-0.7c-0.467-1.2-0.883-2.133-1.25-2.8c-0.034-0.033-0.067-0.05-0.1-0.05
					v-0.05l-0.05-0.1c-0.966-1.4-1.65-2.483-2.05-3.25c-0.033-2.4,0.083-5.117,0.35-8.15c-0.333,0.967-0.533,1.767-0.6,2.4
					c-0.267,2.533-0.333,4.367-0.2,5.5c0.067,0.867,0.333,1.567,0.8,2.1l1.55,1.8C29.717-52.617,30.233-51.517,30.7-50.15z
					 M21.1-70.35c0.233-0.267,0.517-0.667,0.85-1.2c0.566-0.934,1-1.534,1.3-1.8c0.1-0.066,0.267-0.217,0.5-0.45
					c0.1-0.133,0.267-0.317,0.5-0.55c0.367-0.367,0.75-0.7,1.15-1c0.867-0.667,1.833-1.7,2.9-3.1c1.5-1.867,2.367-2.9,2.6-3.1
					l-0.05,0.3c-0.033,0.133-0.067,0.267-0.1,0.4c0.067-0.167,0.15-0.367,0.25-0.6c0.367-0.933,0.933-2.316,1.7-4.15
					c1.1-2.933,1.75-5.316,1.95-7.15c0.033-0.1,0.033-0.317,0-0.65c-0.066,0.333-0.117,0.65-0.15,0.95
					c-1.467,4.1-2.517,7.05-3.15,8.85c-0.367,0.434-0.717,0.833-1.05,1.2c-2.333,2.7-4.083,4.8-5.25,6.3
					c-0.533,0.667-1.1,1.25-1.7,1.75c-0.3,0.3-0.633,0.567-1,0.8C22.017-72.783,21.6-71.717,21.1-70.35z M22-42.05
					c0,0.2,0.1-0.267,0.3-1.4c0.2-1.2,0.417-2.383,0.65-3.55c0.133-0.8,0.283-1.65,0.45-2.55c0.033-0.267,0.067-0.534,0.1-0.8
					c0.233-1.4,0.367-2.117,0.4-2.15c0.267-1.067,0.767-3.3,1.5-6.7c0.033,0,0.05-0.033,0.05-0.1c0.233-1,0.483-2.133,0.75-3.4
					c0.066,1.067,0.083,2.733,0.05,5c0.067-0.667,0.133-1.3,0.2-1.9c0.333-2.9,0.517-4.75,0.55-5.55h-0.25
					c-1.267,3.8-2.25,7.583-2.95,11.35c-0.133,0.7-0.316,1.767-0.55,3.2c-0.167,1.1-0.367,2.434-0.6,4
					C22.45-45.233,22.233-43.717,22-42.05z M27.85-36.4c0.033-0.033,0.066-0.05,0.1-0.05c0.8-0.466,1.383-1.117,1.75-1.95
					c0.4-0.9,0.783-1.983,1.15-3.25c0.2-0.733,0.467-1.7,0.8-2.9c0.467-1.567,0.867-3.684,1.2-6.35c0.033-0.333,0.1-1.017,0.2-2.05
					c0.034-0.233,0.067-0.517,0.1-0.85c0.1-0.934,0.217-2.1,0.35-3.5c0.033-0.367,0.267-2.767,0.7-7.2
					c0.066-0.567,0.05-1.667-0.05-3.3c-0.1-1.767-0.267-2.667-0.5-2.7c-0.367,0.033-0.75,0.733-1.15,2.1
					c-0.2,0.566-0.35,1.15-0.45,1.75c-0.066,0.533-0.133,0.933-0.2,1.2c-0.2,2.167-0.3,4.05-0.3,5.65c0.034-0.467,0.1-1.233,0.2-2.3
					c0.167-1.5,0.283-2.467,0.35-2.9c0.167-1.2,0.383-2.283,0.65-3.25c0.1-0.367,0.217-0.65,0.35-0.85c0.1-0.233,0.25,0,0.45,0.7
					c0,4.367-0.35,9.117-1.05,14.25c-0.033,0.2-0.067,0.4-0.1,0.6c-0.1,0.6-0.2,1.216-0.3,1.85c-0.233,2.4-0.55,4.4-0.95,6
					c-0.2,0.833-0.35,1.4-0.45,1.7c-0.133,0.533-0.233,1.05-0.3,1.55c-0.133,1.233-0.4,2.15-0.8,2.75
					c-0.367,0.6-0.917,1.633-1.65,3.1C27.883-36.5,27.85-36.433,27.85-36.4z M36.25-42.55c0.3-2.467,0.75-4.483,1.35-6.05
					c0.033-0.066,0.066-0.133,0.1-0.2c0.367-1.034,0.633-1.867,0.8-2.5c0.133-0.5,0.217-0.9,0.25-1.2
					c0.033-0.367-0.05-1.55-0.25-3.55c-0.233-2.1-0.483-3.817-0.75-5.15c-1.033-5.367-1.733-8.066-2.1-8.1
					c-0.1,0.033-0.217,0.1-0.35,0.2c-0.2,0.167-0.35,0.25-0.45,0.25l-0.3,3.3c0,1.566-0.066,3.7-0.2,6.4
					c-0.1,2.066-0.233,3.983-0.4,5.75c0,0.4-0.017,0.8-0.05,1.2c-0.033,0.233-0.05,0.467-0.05,0.7c-0.167,1.533-0.5,3.433-1,5.7
					c-0.5,2.333-0.8,4.033-0.9,5.1c-0.167,1.4-0.117,3.267,0.15,5.6c0.333,3.3,0.517,5.184,0.55,5.65
					c0.033,0.934,0.35,1.817,0.95,2.65c0.667,0.933,1.1,1.95,1.3,3.05v0.05c0.067,0.434,0.184,0.867,0.35,1.3
					c0.9,1.4,1.683,2.75,2.35,4.05c0.367,0.7,0.667,1.383,0.9,2.05c-0.5-1.567-1.033-3.017-1.6-4.35
					c-0.133-0.233-0.25-0.483-0.35-0.75c-0.267-0.533-0.5-1.05-0.7-1.55c-0.833-1.8-1.483-3.267-1.95-4.4
					c-0.2-0.5-0.5-3.367-0.9-8.6c-0.033-0.533-0.067-1.117-0.1-1.75c-0.2-2-0.3-3.033-0.3-3.1c0-0.567,0-1.167,0-1.8
					c0.066-0.167,0.133-0.383,0.2-0.65c0.633-2.833,1.167-5.683,1.6-8.55c0.067-0.434,0.133-0.867,0.2-1.3
					c0.6-4.4,0.917-8.816,0.95-13.25c0-0.433,0.133-0.65,0.4-0.65c1.033,2.633,1.783,6.35,2.25,11.15c0.1,1.3,0.183,2.133,0.25,2.5
					c-0.167,0.6-0.333,1.184-0.5,1.75c-0.3,0.833-0.517,1.633-0.65,2.4c-0.233,0.767-0.4,1.5-0.5,2.2
					C36.667-46.467,36.483-44.983,36.25-42.55z M32.7-70.65c0.066-0.3,0.15-0.617,0.25-0.95c0.5-1.9,0.85-3.65,1.05-5.25
					c0.033-0.233,0.067-0.483,0.1-0.75c0.066-0.8,0.017-1.667-0.15-2.6c-0.2-1.066-0.5-1.6-0.9-1.6c-0.233,0-0.583,0.617-1.05,1.85
					c-0.467,1.067-1.017,2.617-1.65,4.65c0.9-2.233,1.583-3.583,2.05-4.05c0.3-0.333,0.5-0.233,0.6,0.3
					c0.167,0.133,0.267,0.517,0.3,1.15c0.034,0.9-0.033,2.316-0.2,4.25C33-72.883,32.867-71.883,32.7-70.65z M29.15-53.85v-0.05
					l0.1,0.05H29.15z M30.5-80.2c0.033-0.066,0.083-0.2,0.15-0.4c-0.033,0.067-0.066,0.15-0.1,0.25L30.5-80.2z M33.9-89.3v-0.2
					l0.05-0.05C33.919-89.456,33.902-89.373,33.9-89.3z"/>
			</g>
		</g>
	</g>
</symbol>
<g>
	<g>
		<path style="fill-rule:evenodd;clip-rule:evenodd;fill-opacity:0.2;" d="M30.775,388.3c1,0.177,2.558,0.477,4.675,0.9
			c0.2,0.033,1.383,0.05,3.55,0.05c2.033,0,4.533-0.366,7.5-1.1c2.967-0.767,5.417-1.15,7.35-1.15c0.433,0,1.566,0.167,3.4,0.5
			c0.033,0,2.95-0.583,8.75-1.75c4.914-0.898,7.755-1.273,8.525-1.125c-0.105,0.078-0.238,0.12-0.4,0.125h0.625h0.75
			c-0.322,0.066-0.639,0.267-0.95,0.6c-0.5,0.467-0.6,0.851-0.3,1.15c-0.915,0.312-2.957,1.129-6.125,2.45
			c0.083-0.14,0.125-0.289,0.125-0.45c0-0.267-0.033-0.434-0.1-0.5h-1.9c-15.333,1.667-24.633,2.5-27.9,2.5
			c-2.4,0-3.85-0.033-4.35-0.1c-1.1-0.101-2.683-0.483-4.75-1.15c0.188-0.26,0.388-0.468,0.6-0.625c0.114-0.08,0.23-0.147,0.35-0.2
			L30.775,388.3z M109.475,389.05c-0.156-0.079-0.314-0.162-0.475-0.25c-2.767-1.533-4.684-2.467-5.75-2.8
			c-0.112-1.314,0.571-2.681,2.05-4.1c1.475-1.426,3.116-2.143,4.925-2.15c1.813-0.003,3.996,0.205,6.551,0.625
			c2.551,0.416,3.918,0.958,4.1,1.625c0.106,0.389,0.731,0.639,1.875,0.75c-1.165-0.011-2.298-0.211-3.4-0.6
			c-1.133-0.434-2.216-0.65-3.25-0.65c-0.966,0-2.267,0.167-3.899,0.5c-1.7,0.333-2.851,0.5-3.45,0.5
			c-0.066,0.333-0.333,0.85-0.8,1.55c-0.467,0.634-0.7,0.983-0.7,1.05C107.25,385.194,107.991,386.511,109.475,389.05z
			 M117.525,393.3c-0.576,0.218-1.067,0.435-1.476,0.65c-0.733,0.366-2.717,0.55-5.95,0.55c-0.267,0-5.283-0.583-15.05-1.75
			S79.133,391,76.6,391c-2.633,0-6.1,0.884-10.4,2.65c-4.333,1.733-7.534,2.6-9.6,2.6c-1.567,0-2.517-0.017-2.85-0.05
			c-0.468-0.05-1.093-0.191-1.875-0.425c1.128,0.149,2.586,0.225,4.375,0.225c1.1,0,4.65-1.283,10.65-3.85
			c6-2.601,9.283-3.9,9.85-3.9c0.267,0,1.883,0.15,4.85,0.45c3.1,0.333,5.067,0.517,5.9,0.55c1.733,0.066,3.65,0.116,5.75,0.15
			c1.5,0.066,2.917,0.267,4.25,0.6c3.5,0.9,6.75,1.816,9.75,2.75c2,0.5,4.917,0.75,8.75,0.75
			C116.329,393.5,116.837,393.434,117.525,393.3z"/>
		<path style="fill-rule:evenodd;clip-rule:evenodd;fill-opacity:0.451;" d="M68.125,388.95c3.168-1.321,5.21-2.139,6.125-2.45
			c-0.3-0.3-0.2-0.684,0.3-1.15c0.312-0.333,0.628-0.533,0.95-0.6h-0.75c0-0.2-0.034-0.283-0.1-0.25
			c-0.036,0.045-0.077,0.086-0.125,0.125c-0.77-0.148-3.611,0.227-8.525,1.125c-5.8,1.167-8.717,1.75-8.75,1.75
			c-1.833-0.333-2.967-0.5-3.4-0.5c-1.934,0-4.383,0.384-7.35,1.15c-2.967,0.733-5.467,1.1-7.5,1.1c-2.167,0-3.35-0.017-3.55-0.05
			c-2.118-0.424-3.676-0.724-4.675-0.9c-0.053-0.01-0.103-0.019-0.15-0.024c-0.044-0.011-0.086-0.019-0.125-0.025v-0.5
			c0.319,0,0.794-0.15,1.425-0.45c2.516-0.439,6.075-1.056,10.675-1.85c6.566-1.2,12.95-2.517,19.15-3.95
			c2.6-0.634,5.9-1.15,9.9-1.55c2.467-0.267,6.833-0.667,13.1-1.2c5.767-0.5,9.35-0.917,10.75-1.25c0.066,0,1.134-0.583,3.2-1.75
			c1.8-1,3.517-1.5,5.149-1.5c3.767,0,7.9,0.816,12.4,2.45c7,2.566,11.75,4.166,14.25,4.8v0.75c-1.667,0.333-3.167,0.5-4.5,0.5
			c-0.354,0.019-0.688,0.035-1,0.05c-0.895,0.021-1.645,0.005-2.25-0.05c-1.144-0.111-1.769-0.361-1.875-0.75
			c-0.182-0.667-1.549-1.209-4.1-1.625c-2.555-0.42-4.738-0.628-6.551-0.625c-1.809,0.008-3.45,0.725-4.925,2.15
			c-1.479,1.419-2.162,2.785-2.05,4.1c1.066,0.333,2.983,1.267,5.75,2.8c0.16,0.088,0.318,0.171,0.475,0.25
			c1.652,0.8,3.494,1.2,5.525,1.2c0.733,0,2.434-0.1,5.1-0.3c2.667-0.2,4.301-0.351,4.9-0.45h5.5v0.25
			c-1.9,0.577-3.617,1.085-5.15,1.525c-3.602,1.041-6.21,1.716-7.824,2.024c-0.688,0.134-1.196,0.2-1.525,0.2
			c-3.833,0-6.75-0.25-8.75-0.75c-3-0.934-6.25-1.85-9.75-2.75c-1.333-0.333-2.75-0.533-4.25-0.6c-2.1-0.034-4.017-0.084-5.75-0.15
			c-0.833-0.033-2.8-0.217-5.9-0.55c-2.967-0.3-4.583-0.45-4.85-0.45c-0.567,0-3.85,1.3-9.85,3.9c-6,2.566-9.55,3.85-10.65,3.85
			c-1.789,0-3.247-0.075-4.375-0.225c-0.329-0.043-0.629-0.093-0.9-0.15c-0.509-0.101-0.917-0.226-1.225-0.375v-0.5
			c3.333-0.066,7.15-1.017,11.45-2.85c1.257-0.539,2.424-1.039,3.5-1.5C65.963,389.864,67.105,389.381,68.125,388.95z"/>
	</g>
</g>
<use xlink:href="#red_x5F_tree_x5F_03"  width="82.034" height="197.55" x="0.016" y="-197.55" transform="matrix(2 0 0 -2 0 0)" style="overflow:visible;"/>
</svg>
