<?xml version="1.0" encoding="iso-8859-1"?>
<!-- Generator: Adobe Illustrator 16.0.0, SVG Export Plug-In . SVG Version: 6.00 Build 0)  -->
<!DOCTYPE svg PUBLIC "-//W3C//DTD SVG 1.1//EN" "http://www.w3.org/Graphics/SVG/1.1/DTD/svg11.dtd">
<svg version="1.1" id="Layer_1" xmlns="http://www.w3.org/2000/svg" xmlns:xlink="http://www.w3.org/1999/xlink" x="0px" y="0px"
	 width="122px" height="176px" viewBox="0 0 122 176" style="enable-background:new 0 0 122 176;" xml:space="preserve">
<symbol  id="red_x5F_tree_x5F_05" viewBox="0 -86.4 59.517 86.4">
	<g id="Layer_3_1_">
		<g>
			<path style="fill-rule:evenodd;clip-rule:evenodd;fill:#170E04;" d="M36.275-84.875c0.154-0.058,0.313-0.116,0.475-0.175
				c-0.233,0-0.467,0-0.7,0c-0.31,0.07-0.601,0.137-0.875,0.2c-2.667,0.578-3.425,0.595-2.275,0.05
				c-0.153,0-0.328-0.025-0.525-0.075c-0.102-0.038-0.21-0.079-0.325-0.125c-0.034-0.014-0.067-0.03-0.1-0.05
				c-0.294-0.1-0.561-0.15-0.8-0.15c-0.192,0.125-0.367,0.234-0.525,0.325c-0.45,0.283-0.725,0.425-0.825,0.425
				c-0.667,0-1.833-0.417-3.5-1.25c-0.226-0.11-0.426-0.21-0.6-0.3c-0.738-0.332-1.088-0.44-1.05-0.325
				c0.013,0.03,0.047,0.072,0.1,0.125c0.136,0.122,0.311,0.264,0.525,0.425c0.171,0.132,0.363,0.274,0.575,0.425
				c0.215,0.135,0.448,0.285,0.7,0.45c0.067,0.1,0.117,0.183,0.15,0.25c0.005,0.05,0.014,0.1,0.025,0.15
				c0.022,0.216,0.047,0.367,0.075,0.45c-1.1,0.066-1.65,0.066-1.65,0c-0.033-0.067-0.733-0.3-2.1-0.7s-2.433-0.6-3.2-0.6
				c-0.8,0.033-1.617,0.133-2.45,0.3h0.05c0.182-0.025,0.365-0.042,0.55-0.05c0.15-0.01,0.3-0.019,0.45-0.025
				c0.605,0.001,1.206,0.076,1.8,0.225c0.767,0.2,1.7,0.6,2.8,1.2c0.1,0.067,0.3,0.3,0.6,0.7c0.233,0.3,0.533,0.45,0.9,0.45
				c0.067,0,0.15,0,0.25,0c1.067,0.566,1.9,1.533,2.5,2.9c0,0.066,0.017,0.117,0.05,0.15c0.167,1.8,0.267,3.333,0.3,4.6
				c0.1,2.133,0.15,5.333,0.15,9.6c0,4.3-0.133,7.05-0.4,8.25c-0.059,0.271-0.125,0.545-0.2,0.825
				c-0.339,0.663-0.706,1.238-1.1,1.725c-0.867,1.133-1.317,2.267-1.35,3.4l-0.25,1.8c-0.067,0.167-0.167,0.367-0.3,0.6
				c-0.133,0.167-0.2,0.35-0.2,0.55c-0.11,1.195-0.227,2.17-0.35,2.925c-0.083,0.349-0.167,0.708-0.25,1.075
				c-0.028,0.093-0.053,0.193-0.075,0.3c-0.069,0.255-0.127,0.538-0.175,0.85v0.05c-0.066,0.367-0.15,0.767-0.25,1.2
				c-0.967,0.467-1.95,1.1-2.95,1.9c-1.034,0.8-2.217,2.1-3.55,3.9c-0.033,0.034-0.066,0.067-0.1,0.1
				c-0.1,0.133-0.183,0.267-0.25,0.4c-0.066,0.1-0.133,0.2-0.2,0.3c-0.767,1.167-1.783,3-3.05,5.5l0.15-0.2
				c0,0.033,0.017,0.067,0.05,0.1c0.9-1.3,2.017-2.85,3.35-4.65c0,0.133,0,0.283,0,0.45c0.066,0.767,0.083,1.434,0.05,2v0.05
				c0,0.1-0.017,0.217-0.05,0.35c0,0.1,0,0.183,0,0.25c-0.967,1.033-1.883,2.267-2.75,3.7c-1.167,1.967-2.2,4.317-3.1,7.05
				C9.567-17.717,8.917-15.2,8.55-13c0.6-2.567,1.534-5.45,2.8-8.65c0.8-2.1,1.717-3.983,2.75-5.65
				c0.533-0.867,1.117-1.684,1.75-2.45c0,0.067,0,0.133,0,0.2c0.133,0.633,0.217,0.966,0.25,1c0,0.066-0.033,0.533-0.1,1.4
				c0,0.2-0.017,0.383-0.05,0.55c0,0.133-0.017,0.25-0.05,0.35c-0.033,0.567-0.083,1.083-0.15,1.55c-0.1,0.7,0.017,0.2,0.35-1.5
				c0-0.066,0.017-0.133,0.05-0.2v-0.05c0.033-0.2,0.067-0.383,0.1-0.55c0.267-1.567,0.433-2.667,0.5-3.3
				c0.033-0.1,0.05-0.184,0.05-0.25c0.067-0.3,0.117-0.617,0.15-0.95c0-0.133,0.017-0.267,0.05-0.4c0.1-1.067,0.15-2.05,0.15-2.95
				c0-0.167-0.033-0.316-0.1-0.45c0.133-0.167,0.25-0.317,0.35-0.45c0.9-1.033,1.767-1.9,2.6-2.6c0.967-0.8,1.883-1.45,2.75-1.95
				c-0.1,0.667-0.233,1.783-0.4,3.35c-0.167,1.7-0.367,3.917-0.6,6.65c-0.033,0.433-0.067,0.883-0.1,1.35
				c-0.033,0.034-0.05,0.083-0.05,0.15c-0.167,1.8-0.333,3.816-0.5,6.05l1.25-7.85l0.05-0.2c0.3-2,0.583-3.85,0.85-5.55
				c0.033-0.267,0.083-0.533,0.15-0.8c0.1,0.267,0.217,0.583,0.35,0.95c0.167,0.667,0.3,1.483,0.4,2.45
				c0.1,0.767,0.184,1.45,0.25,2.05c0.133,1.167,0.233,2.067,0.3,2.7c0,0.067,0.017,0.133,0.05,0.2h0.1c0.1,0,0.167-0.017,0.2-0.05
				c0.034-0.066,0.05-0.133,0.05-0.2v-0.05c0-0.9,0-1.717,0-2.45c-0.067-1.333-0.15-2.434-0.25-3.3
				c-0.133-1.133-0.383-2.167-0.75-3.1c-0.133-0.3-0.283-0.6-0.45-0.9c0.233-1.133,0.45-2.25,0.65-3.35
				c0.028-0.143,0.053-0.284,0.075-0.425c0.027-0.125,0.052-0.25,0.075-0.375c0.331-1.893,0.522-3.151,0.575-3.775
				c0.051-0.618,0.226-1.176,0.525-1.675c0.367-0.6,0.617-1.183,0.75-1.75c0.068-0.4,0.435-0.825,1.1-1.275
				c0.088-0.059,0.171-0.118,0.25-0.175c-0.02,0.167-0.036,0.333-0.05,0.5c-0.567,6.566-0.417,13.05,0.45,19.45
				c0.067,0.233,0.117,0.483,0.15,0.75c0.033,0.534-0.034,1.1-0.2,1.7c-0.365,1.991-0.798,3.816-1.3,5.475
				c-0.197,0.146-0.431,0.254-0.7,0.325c-0.767,0.133-1.367,0.3-1.8,0.5c-0.534,0.233-0.95,0.517-1.25,0.85
				c-0.467,0.467-0.8,0.767-1,0.9c-0.043,0.033-0.084,0.066-0.125,0.1c-1.298,0.977-2.173,1.627-2.625,1.95
				c-0.575,0.424-1.316,0.841-2.225,1.25c-3.55,2.643-6.208,5.426-7.975,8.35c0.733-0.833,1.367-1.55,1.9-2.15
				c1.767-1.867,3.4-3.3,4.9-4.3c-0.033,0.7-0.216,1.5-0.55,2.4c-0.267,0.7-0.767,1.883-1.5,3.55c-0.233,0.533-0.6,1.45-1.1,2.75
				c-0.066,0.167-0.133,0.35-0.2,0.55c0.667-1.367,1.417-2.933,2.25-4.7c1.111-2.353,1.903-4.111,2.375-5.275
				c0.35-0.217,1.091-0.675,2.225-1.375c0.221-0.134,0.429-0.267,0.625-0.4c0.574-0.34,1.566-0.94,2.975-1.8l1.5-0.95
				c0.086,0.023,0.169,0.048,0.25,0.075c0.452,0.13,0.818,0.264,1.1,0.4c-0.144,0.44-0.294,0.865-0.45,1.275
				c-0.066,0.167-0.133,0.333-0.2,0.5c-0.767,1.9-1.617,3.533-2.55,4.9c-0.066,0.067-0.1,0.133-0.1,0.2
				c0,0.066,0.033,0.117,0.1,0.15c0.067,0.067,0.117,0.1,0.15,0.1c0.066,0,0.1-0.033,0.1-0.1c1.2-1.467,2.2-2.867,3-4.2
				c0.267,0.367,0.55,0.967,0.85,1.8c0.3,0.9,0.45,1.583,0.45,2.05l-0.05,1.3c-0.633,0.333-1.55,1.283-2.75,2.85
				c-1.566,2-2.65,3.883-3.25,5.65c0.1-0.034,0.217-0.05,0.35-0.05c0.7-1.533,1.417-2.8,2.15-3.8c0.934-1.2,1.733-1.8,2.4-1.8
				c0.333,0,0.5,0.383,0.5,1.15c0,0.367-0.05,0.933-0.15,1.7c-0.1,0.633-0.183,1.1-0.25,1.4c0.034,0,0.083,0,0.15,0
				c0.066-0.3,0.15-0.6,0.25-0.9c0.667-2.5,1-4.467,1-5.9c0-0.133,0-0.283,0-0.45c-0.034-1.633-0.167-3.117-0.4-4.45
				c-0.167-0.934-0.283-1.667-0.35-2.2c0.5-0.933,0.867-1.833,1.1-2.7c0.767-2.267,1.317-4.25,1.65-5.95c1,1.6,1.85,2.75,2.55,3.45
				c-0.167,1.566-0.333,3.05-0.5,4.45c-0.6,5.667-0.917,9.85-0.95,12.55c0.2-0.1,0.383-0.2,0.55-0.3c0.066-1.5,0.1-3.267,0.1-5.3
				c0.133-1.934,0.45-3.55,0.95-4.85c0.733,0.067,1.633,0.883,2.7,2.45c0.367,0.5,0.667,0.983,0.9,1.45
				c-0.3-0.9-0.617-1.633-0.95-2.2c-0.6-1.067-1.483-2.15-2.65-3.25l-0.05,0.05v-0.95c0.233-1,0.533-2.15,0.9-3.45
				c0.067,0.066,0.15,0.1,0.25,0.1c0.067,0.033,0.117,0.017,0.15-0.05c0.023-0.023,0.04-0.057,0.05-0.1
				c0.159,0.067,0.342,0.134,0.55,0.2h0.25c-0.567-0.533-1-0.95-1.3-1.25c-0.5-0.567-0.733-1.083-0.7-1.55
				c0.067-0.934-0.167-1.733-0.7-2.4c-0.5-0.7-0.733-1.183-0.7-1.45c0.033-0.434-0.067-1.033-0.3-1.8c-0.3-1-0.483-1.683-0.55-2.05
				l-0.45-2.2c-0.504-6.345-0.287-12.745,0.65-19.2c0.5-3.867,0.833-7.767,1-11.7c1.633,3.467,3,8.467,4.1,15
				c0.034,0.6,0.083,1.133,0.15,1.6c0,0.067,0,0.117,0,0.15c-0.333,1.233-0.667,3.983-1,8.25c-0.567,0.233-1.333,0.934-2.3,2.1
				l0.05-0.05c-0.034,0.035-0.05,0.068-0.05,0.1H32.1c-0.033,0.034-0.067,0.067-0.1,0.1c-0.733,0.967-1.267,1.733-1.6,2.3V-38
				c-0.033,0.067-0.05,0.133-0.05,0.2c0,0.066,0.017,0.117,0.05,0.15c0.067,0.033,0.133,0.05,0.2,0.05c0.033,0,0.066-0.033,0.1-0.1
				c0.233-0.433,0.583-0.95,1.05-1.55c0.167-0.2,0.367-0.417,0.6-0.65h0.05c0.8-0.8,1.45-1.317,1.95-1.55c0,0.1,0,0.184,0,0.25
				c0.066-0.033,0.133-0.066,0.2-0.1c-0.033,0.566-0.066,1.083-0.1,1.55c-0.034,0.467-0.067,0.9-0.1,1.3c0,0.333,0,0.633,0,0.9
				c-0.133,1.333-0.25,2.733-0.35,4.2v0.05c0,0.033,0.017,0.083,0.05,0.15c0.034,0.066,0.067,0.1,0.1,0.1
				c0.067,0,0.133-0.034,0.2-0.1c0.033,0,0.05-0.033,0.05-0.1v-0.05c0.133-1.733,0.25-3.317,0.35-4.75c1.1,1.1,2.4,3.566,3.9,7.4
				c0.033,0,0.05,0.033,0.05,0.1c-0.4,0.867-0.75,2.233-1.05,4.1c-0.367,2.067-0.55,3.9-0.55,5.5c0,0.467,0.05,1.2,0.15,2.2
				c0.133,1.1,0.267,1.883,0.4,2.35c-0.033-0.434-0.083-1.167-0.15-2.2c-0.067-1-0.1-1.8-0.1-2.4c0-1.067,0.033-1.7,0.1-1.9
				c0.033-0.3,0.25-1.133,0.65-2.5c0.133-0.434,0.367-1.05,0.7-1.85c0.267-0.567,0.467-1.017,0.6-1.35
				c1.333,3.767,2.167,7.25,2.5,10.45c0.033-0.067,0.066-0.133,0.1-0.2c0.067-0.333,0.05-0.917-0.05-1.75
				c-0.367-3.533-1.033-6.75-2-9.65c-1-2.9-2.067-5.233-3.2-7c-0.7-1.1-1.35-1.967-1.95-2.6c0.066-0.733,0.133-1.45,0.2-2.15
				c0-0.033,0-0.083,0-0.15c0.034-0.2,0.05-0.434,0.05-0.7c0-0.033,0-0.066,0-0.1c0.3-2.667,0.533-4.55,0.7-5.65
				c0.167,1.1,0.284,2.083,0.35,2.95c0,0.033,0.017,0.066,0.05,0.1c0.333,2.833,0.566,4.7,0.7,5.6c0,0.1,0.017,0.184,0.05,0.25
				c0.066,0,0.117,0,0.15,0c0.066,0,0.117-0.033,0.15-0.1c0-0.034,0-0.083,0-0.15v-0.05c-0.033-1.9-0.15-3.783-0.35-5.65v-0.1
				c-0.233-2.067-0.467-4.1-0.7-6.1c-0.1-1.233-0.233-2.45-0.4-3.65c-0.066-0.433-0.417-2.117-1.05-5.05
				c-0.067-0.333-0.15-0.667-0.25-1c1.467,0.966,3.033,2.75,4.7,5.35c0.2,0.267,0.367,0.534,0.5,0.8c0,0.3,0,0.65,0,1.05
				c-0.133,1.434-0.2,2.667-0.2,3.7v0.05c0,0.267,0.017,0.5,0.05,0.7c0,0.066,0.017,0.133,0.05,0.2
				c0.066,0.034,0.117,0.05,0.15,0.05s0.067-0.017,0.1-0.05c0.066-0.066,0.1-0.133,0.1-0.2c0.033-0.2,0.05-0.434,0.05-0.7v-0.05
				c0.133-0.833,0.233-1.583,0.3-2.25c0.067-0.434,0.117-0.833,0.15-1.2c0.233,0.4,0.45,0.8,0.65,1.2
				c0.6,1.267,1.117,2.533,1.55,3.8c-0.733,0.9-1.217,1.95-1.45,3.15c-0.3,1.767-0.383,3.567-0.25,5.4c0.167,2,0.4,3.966,0.7,5.9
				c0.2,1.1,0.434,2.183,0.7,3.25c0.667,2.867,1.4,5.767,2.2,8.7c0.034-0.066,0.067-0.117,0.1-0.15c-0.767-2.4-1.5-6.267-2.2-11.6
				c0.466,0.133,1,0.3,1.6,0.5c1.833,0.733,3.184,1.667,4.05,2.8c0.033-0.067,0.05-0.15,0.05-0.25
				c-0.033-0.333-0.517-0.917-1.45-1.75c-0.833-0.733-1.45-1.2-1.85-1.4c-0.333-0.167-0.833-0.45-1.5-0.85
				c-0.4-0.2-0.767-0.367-1.1-0.5c-0.2-1.533-0.383-3.167-0.55-4.9c-0.2-2.367,0.216-4.8,1.25-7.3c0.2,0.8,0.383,1.6,0.55,2.4
				l0.05,0.1c0.034,0.1,0.05,0.184,0.05,0.25c0,0.067,0.05,0.25,0.15,0.55c0.1,0.267,0.467,2.066,1.1,5.4
				c0.633,3.333,0.767,3.483,0.4,0.45c-0.1-1-0.2-1.867-0.3-2.6c0.8,0.267,2.183,1.233,4.15,2.9c1,0.833,1.8,1.55,2.4,2.15
				c-0.933-1.333-1.883-2.383-2.85-3.15c-1-0.767-2.283-1.75-3.85-2.95c0-0.033,0-0.066,0-0.1c-0.133-0.733-0.216-1.2-0.25-1.4
				c-0.167-0.4-0.383-1.35-0.65-2.85s-0.733-3.233-1.4-5.2c1.233,0.3,2.733,0.833,4.5,1.6c0.267,0.1,0.517,0.2,0.75,0.3
				c1.2,0.533,3.2,2,6,4.4c-2.1-1.867-3.15-2.833-3.15-2.9c-0.367-0.367-0.883-0.767-1.55-1.2c0.267-0.066,0.767-0.1,1.5-0.1
				c0.8,0,2.4,0.183,4.8,0.55c-1.7-0.567-2.983-0.883-3.85-0.95c-0.867-0.033-1.917-0.017-3.15,0.05
				c-0.467-0.267-0.983-0.533-1.55-0.8c-1.633-0.8-3.15-1.316-4.55-1.55c-0.433-1.3-0.95-2.517-1.55-3.65
				c-0.4-0.8-0.867-1.567-1.4-2.3c-2.033-3-3.45-4.583-4.25-4.75c-0.7-0.2-1.2-0.833-1.5-1.9c-0.333-1.033-1.017-2.583-2.05-4.65
				c-0.033-0.2-0.05-0.4-0.05-0.6c-0.1-0.867-0.3-2.55-0.6-5.05c-0.033-0.3-0.067-0.617-0.1-0.95c0.1-0.467,0.2-1,0.3-1.6
				c0.1-0.733,0.184-1.733,0.25-3c0.034-0.5,0.233-0.95,0.6-1.35c0.2-0.2,0.583-0.5,1.15-0.9c1.167-0.8,2.05-1.35,2.65-1.65
				c0.17-0.085,0.345-0.168,0.525-0.25C36.241-84.856,36.257-84.865,36.275-84.875z M34.45-41.5c0.033-0.033,0.083-0.05,0.15-0.05
				c0,0.066,0,0.133,0,0.2L34.45-41.5z"/>
			<path style="fill-rule:evenodd;clip-rule:evenodd;fill:#192D30;" d="M24.1-37.95c0.367,0.934,0.617,1.967,0.75,3.1
				c0.1,0.867,0.183,1.967,0.25,3.3c0.033,0,0.05,0.033,0.05,0.1c0.167-0.1,0.4-0.2,0.7-0.3c0.167-0.067,0.35-0.217,0.55-0.45
				c0.067-0.066,0.2-0.3,0.4-0.7c0.167-0.367,0.284-0.583,0.35-0.65c-0.267,0.2-0.433,0.316-0.5,0.35H26.4
				c0-0.167,0.05-0.466,0.15-0.9c0-0.933-0.1-1.467-0.3-1.6c-0.333-0.2-0.65-0.983-0.95-2.35c-0.367,0.233-0.6,0.35-0.7,0.35
				c-0.133,0-0.233-0.017-0.3-0.05c-0.033-0.1-0.083-0.167-0.15-0.2H24.1z M24.4-31.7c-0.066-0.6-0.15-1.283-0.25-2.05
				c-0.1-0.967-0.233-1.783-0.4-2.45c-0.067,0.034-0.1,0.083-0.1,0.15c-0.066-0.067-0.2-0.167-0.4-0.3
				c-0.267,1.7-0.55,3.55-0.85,5.55l-0.05,0.2c0.3-0.1,0.7-0.217,1.2-0.35l-0.4-0.5c0.133-0.066,0.417-0.117,0.85-0.15
				C24.133-31.633,24.267-31.667,24.4-31.7z M15.9-26.25c0.033-0.1,0.05-0.217,0.05-0.35c-0.067-0.066-0.117-0.1-0.15-0.1v-0.6
				l0.2,0.15c0.067-0.867,0.1-1.333,0.1-1.4c-0.033-0.034-0.117-0.367-0.25-1c0-0.067,0-0.133,0-0.2
				c-0.633,0.767-1.217,1.583-1.75,2.45c0.133,0.1,0.283,0.216,0.45,0.35C15.117-26.617,15.567-26.383,15.9-26.25z M16.25-27
				l0.3,0.2h0.6c0-0.367,0.1-0.65,0.3-0.85c0.2-0.2,0.45-0.3,0.75-0.3c0.233,0,0.8,0.083,1.7,0.25c0.533,0,0.817-0.083,0.85-0.25
				c0.033-0.133,0.083-0.417,0.15-0.85h0.7c0-0.067,0.017-0.117,0.05-0.15c-0.533-0.066-0.95-0.1-1.25-0.1
				c0.1-0.034,0.233-0.083,0.4-0.15c0.267-0.167,0.517-0.25,0.75-0.25c0-0.066-0.05-0.117-0.15-0.15c-0.1-0.066-0.183-0.1-0.25-0.1
				c0.1-0.233,0.3-0.433,0.6-0.6c0.233-2.733,0.433-4.95,0.6-6.65c-0.367-0.233-0.617-0.35-0.75-0.35c-0.434,0-0.8,0.167-1.1,0.5
				c-0.3,0.333-0.367,0.617-0.2,0.85v0.15c-0.167-0.133-0.3-0.3-0.4-0.5l-0.05-0.05c-0.033,0-0.05-0.033-0.05-0.1
				c-0.001,0.104-0.085,0.32-0.25,0.65c-0.167,0.333-0.25,0.533-0.25,0.6c-0.1-0.066-0.167-0.117-0.2-0.15
				c-0.067-0.066-0.133-0.183-0.2-0.35c-0.066,0-0.1,0.083-0.1,0.25c-0.233-0.033-0.7,0.05-1.4,0.25v-0.55
				c-0.1,0.133-0.217,0.283-0.35,0.45c0.067,0.133,0.1,0.283,0.1,0.45c0,0.9-0.05,1.883-0.15,2.95c-0.033,0.133-0.05,0.267-0.05,0.4
				c-0.034,0.333-0.083,0.65-0.15,0.95c0,0.066-0.017,0.15-0.05,0.25C16.683-29.667,16.517-28.567,16.25-27z M15.85-35.15
				c-0.233-0.233-0.417-0.417-0.55-0.55c0.034-0.1,0.067-0.2,0.1-0.3c0.067-0.3-0.033-0.517-0.3-0.65
				c-0.533-0.233-0.85-0.45-0.95-0.65c0-0.8,0-1.233,0-1.3c-0.033-0.367-0.15-0.767-0.35-1.2c0,0.033-0.017,0.066-0.05,0.1h-0.1
				c-0.066,0.233-0.133,0.4-0.2,0.5c-0.067,0.167-0.167,0.25-0.3,0.25c-0.1,0-0.217-0.017-0.35-0.05
				c-0.1-0.033-0.183-0.05-0.25-0.05c-0.066-0.133-0.017-0.333,0.15-0.6l0.2-0.4c0-0.1-0.033-0.233-0.1-0.4
				c-0.1-0.167-0.15-0.3-0.15-0.4c0-0.133,0.05-0.283,0.15-0.45c0.067-0.2,0.1-0.35,0.1-0.45c0-0.867-0.55-1.533-1.65-2
				c-1.867-0.8-2.9-1.283-3.1-1.45C8.017-45,7.933-44.9,7.9-44.9c-0.033-0.033-0.066-0.05-0.1-0.05
				c-0.066-0.2-0.117-0.483-0.15-0.85c-0.4,0.167-0.667,0.517-0.8,1.05c-0.1,0.4-0.117,0.833-0.05,1.3
				c-0.433,0-0.816-0.083-1.15-0.25v0.65c-0.066,0-0.1-0.083-0.1-0.25c-0.001,0.034-0.018,0.067-0.05,0.1H5.4
				c-0.167,0.434-0.3,0.767-0.4,1c-0.233,0.4-0.55,0.483-0.95,0.25c0.067,0.333-0.033,0.7-0.3,1.1c-0.3,0.434-0.45,0.767-0.45,1
				c0,0.167,0.467,0.467,1.4,0.9c0.466,0.2,0.95,0.417,1.45,0.65v0.6h-1.1v0.15c0.434,0,0.85,0.35,1.25,1.05
				c0,0.167-0.133,0.317-0.4,0.45c0-0.1-0.033-0.15-0.1-0.15v1.5c0.267,0.6,0.55,0.917,0.85,0.95C6.817-33.717,6.9-33.5,6.9-33.1
				c0,0.1-0.017,0.184-0.05,0.25C6.817-32.783,6.8-32.733,6.8-32.7H6.15c0.367,0.434,0.95,0.833,1.75,1.2
				c0.8,0.367,1.35,0.55,1.65,0.55v0.4c-0.167,0-0.25,0.033-0.25,0.1c0.067,0,0.1,0.05,0.1,0.15h0.65v0.5
				c-0.267,0-0.4,0.083-0.4,0.25c0.367-0.034,0.717,0.1,1.05,0.4c0.3,0.3,0.55,0.45,0.75,0.45c0.1,0,0.167,0,0.2,0
				c-0.2,0.2-0.35,0.367-0.45,0.5c-0.233,0.3-0.333,0.6-0.3,0.9c0.1,0,0.2-0.05,0.3-0.15c0.1-0.066,0.216-0.1,0.35-0.1
				c0.1,0,0.167,0,0.2,0c0.067,0.066,0.117,0.183,0.15,0.35c0.033-0.033,0.1-0.083,0.2-0.15c0.066-0.066,0.083-0.183,0.05-0.35h0.65
				c0,0.034,0.05,0.083,0.15,0.15c0.066,0.033,0.099,0.066,0.1,0.1c0-0.167,0.117-0.25,0.35-0.25l0.2,0.1
				c0.867-1.433,1.783-2.667,2.75-3.7c0-0.067,0-0.15,0-0.25c0.033-0.133,0.05-0.25,0.05-0.35v-0.05c0.033-0.566,0.017-1.233-0.05-2
				c0-0.167,0-0.316,0-0.45c-1.333,1.8-2.45,3.35-3.35,4.65c-0.033-0.033-0.05-0.067-0.05-0.1l-0.15,0.2
				C14.067-32.15,15.083-33.983,15.85-35.15z M11.7-28.7h-0.05c0.033-0.033,0.083-0.066,0.15-0.1
				C11.767-28.733,11.733-28.7,11.7-28.7z"/>
			<path style="fill-rule:evenodd;clip-rule:evenodd;fill:#170E04;fill-opacity:0.451;" d="M26.725-84.5
				c-0.028-0.003-0.053-0.003-0.075,0c-0.566,0.067-0.9,0.1-1,0.1c-0.433,0-1.25-0.217-2.45-0.65c-1.059-0.353-1.842-0.553-2.35-0.6
				H20.8c-0.055,0-0.105,0-0.15,0c-0.137,0.014-0.271,0.03-0.4,0.05c-1.792,0.18-2.858,0.364-3.2,0.55h0.35
				c0.833-0.167,1.65-0.267,2.45-0.3c0.767,0,1.833,0.2,3.2,0.6s2.067,0.633,2.1,0.7c0,0.066,0.55,0.066,1.65,0
				C26.772-84.133,26.747-84.284,26.725-84.5z M30.625-84.875c-0.229,0.017-0.47,0.025-0.725,0.025c-0.6,0-1-0.033-1.2-0.1
				c-0.333-0.2-0.733-0.417-1.2-0.65c-0.233-0.133-0.667-0.267-1.3-0.4c-0.067-0.017-0.134-0.034-0.2-0.05
				c-0.557-0.144-0.94-0.26-1.15-0.35H24.5v0.05c0.058,0,0.108,0.008,0.15,0.025C24.612-86.44,24.962-86.332,25.7-86
				c0.174,0.09,0.374,0.19,0.6,0.3c1.667,0.833,2.833,1.25,3.5,1.25C29.9-84.45,30.175-84.592,30.625-84.875z M35.175-84.85
				L33.9-84.8c-0.587-0.042-1.095-0.067-1.525-0.075c0.197,0.05,0.372,0.075,0.525,0.075C31.75-84.255,32.508-84.272,35.175-84.85z"
				/>
			<path style="fill-rule:evenodd;clip-rule:evenodd;fill:#170E04;fill-opacity:0.2;" d="M25.85-85.35
				c-0.256,0.1-0.623,0.15-1.1,0.15c-0.567,0-1.283-0.083-2.15-0.25c-0.867-0.133-1.45-0.2-1.75-0.2
				c0.508,0.047,1.291,0.247,2.35,0.6c1.2,0.433,2.017,0.65,2.45,0.65c0.1,0,0.434-0.033,1-0.1c0.022-0.003,0.047-0.003,0.075,0
				c-0.011-0.05-0.02-0.1-0.025-0.15c-0.034-0.067-0.083-0.15-0.15-0.25C26.298-85.065,26.065-85.215,25.85-85.35z M26-86.05
				c0.066,0.016,0.133,0.033,0.2,0.05c0.633,0.133,1.066,0.267,1.3,0.4c0.467,0.233,0.867,0.45,1.2,0.65c0.2,0.067,0.6,0.1,1.2,0.1
				c0.255,0,0.497-0.008,0.725-0.025c0.158-0.091,0.333-0.2,0.525-0.325c0.239,0,0.506,0.05,0.8,0.15
				c0.032,0.02,0.065,0.036,0.1,0.05c0.115,0.046,0.223,0.087,0.325,0.125c0.43,0.008,0.938,0.033,1.525,0.075l1.275-0.05
				c0.274-0.063,0.565-0.129,0.875-0.2c0.233,0,0.467,0,0.7,0c-0.163,0.059-0.321,0.117-0.475,0.175
				c0.75-0.05,1.242-0.158,1.475-0.325l-4.05,0.1c-0.534,0-0.867-0.066-1-0.2c-0.133-0.1-0.383-0.15-0.75-0.15s-0.8,0.034-1.3,0.1
				c-0.5,0.1-0.917,0.15-1.25,0.15c-0.133,0-0.633-0.15-1.5-0.45c-0.867-0.267-1.483-0.4-1.85-0.4H26z"/>
		</g>
		<g>
			<path style="fill-rule:evenodd;clip-rule:evenodd;fill:#1E3235;" d="M43.25-2.85c0-0.367-0.033-0.717-0.1-1.05
				c-0.033-0.233-0.05-0.434-0.05-0.6l-0.3-0.05c0.9-0.067,1.9-0.5,3-1.3c1-0.867,1.633-1.383,1.9-1.55c-0.1,0-0.284-0.033-0.55-0.1
				c-0.3,0-0.533-0.017-0.7-0.05L47.15-8l-0.3-0.1c0-0.233,0.217-0.467,0.65-0.7c-0.1-0.034-0.317,0.017-0.65,0.15
				c0.133-0.2,0.45-0.4,0.95-0.6c0.633-0.233,1.184-0.55,1.65-0.95c0.767-0.667,1.4-1.3,1.9-1.9c0.233-0.4,0.383-0.667,0.45-0.8
				l0.2-0.75c-0.133,0.2-0.317,0.367-0.55,0.5c-0.1,0.066-0.217,0.117-0.35,0.15l0.45-1.7c0.167,0.067,0.3-0.05,0.4-0.35
				c0.033-0.2-0.067-0.467-0.3-0.8c-0.167-0.367-0.233-0.65-0.2-0.85c0.066-0.2,0.25-0.483,0.55-0.85c-0.1,0-0.167,0.05-0.2,0.15
				l-0.25-0.1c0.167-0.5,0.817-1.65,1.95-3.45l-0.6-0.2c0.3-0.434,0.75-0.934,1.35-1.5c0.333-0.3,0.617-0.867,0.85-1.7L55.55-26
				l-0.75,0.55l-0.3-0.1c0.1-0.267,0.183-0.717,0.25-1.35c0.133-0.5,0.233-0.817,0.3-0.95c0.1-0.267,0.284-0.517,0.55-0.75
				l-0.25-0.1l0.15-0.55c-0.2-0.067-0.3-0.05-0.3,0.05c-0.034-0.1-0.15-0.267-0.35-0.5c-0.133-0.233-0.167-0.45-0.1-0.65
				c0.033-0.066,0.25-0.35,0.65-0.85c0.033-0.1,0.05-0.283,0.05-0.55c0.066-0.267,0.1-0.45,0.1-0.55c-0.033-0.034-0.1,0-0.2,0.1
				c-0.067,0.1-0.117,0.167-0.15,0.2l-0.45-0.1c0.567-0.667,0.917-1.083,1.05-1.25c0.333-0.5,0.583-1.033,0.75-1.6
				c0.067-0.267,0.034-0.7-0.1-1.3c0.233-0.167,0.55-0.25,0.95-0.25s0.65-0.05,0.75-0.15l-0.8-0.25c0.2,0,0.383,0.017,0.55,0.05
				c0.033-0.1,0-0.167-0.1-0.2c-0.1-0.133-0.216-0.2-0.35-0.2c0.333-0.433,0.65-0.617,0.95-0.55l-0.6-0.15
				c0.067-0.267,0.317-0.6,0.75-1c0.467-0.433,0.767-0.917,0.9-1.45c0.066-0.267,0.083-0.4,0.05-0.4c0-0.067-0.05-0.2-0.15-0.4
				l-0.25-0.1l-0.2,0.7c-0.1-0.033-0.15,0-0.15,0.1l-0.25-0.05c0-0.034,0-0.067,0-0.1c0.067-0.167,0.133-0.4,0.2-0.7
				c0.033-0.333,0.083-0.583,0.15-0.75l-0.5-0.15c0.1-0.433,0.217-0.75,0.35-0.95c-0.367-0.1-0.583-0.183-0.65-0.25
				c0.034-0.4,0.217-0.583,0.55-0.55c0.4,0.033,0.633-0.083,0.7-0.35c-1.3-2.733-1.966-4.1-2-4.1c-0.033,0,0-0.3,0.1-0.9
				c-0.167-0.633-0.95-1.15-2.35-1.55h-0.1c0.1-0.233,0.15-0.45,0.15-0.65c0-0.267-0.083-0.467-0.25-0.6
				c-0.1,0.1-0.167,0.167-0.2,0.2c-0.1,0.3-0.183,0.733-0.25,1.3c-0.133,0.633-0.2,0.983-0.2,1.05
				c-0.567,1.434-0.883,2.267-0.95,2.5c-0.067,0.267-0.033,0.517,0.1,0.75c-0.167-0.066-0.25-0.133-0.25-0.2l-0.1,0.3
				c0,0.067,0.017,0.217,0.05,0.45c0,0.1,0,0.183,0,0.25l0.1,0.05l-0.05,0.2c0-0.067-0.017-0.15-0.05-0.25
				C53.017-45.583,53-45.633,53-45.7c-0.1,0.2-0.217,0.567-0.35,1.1c-0.1,0.533-0.167,0.867-0.2,1c-0.1,0.367-0.233,0.617-0.4,0.75
				c-0.167,0.133-0.3,0.4-0.4,0.8c-0.233,0.8-0.3,1.45-0.2,1.95c0.233,0.7,0.466,1.467,0.7,2.3c-0.1-0.034-0.217-0.167-0.35-0.4
				l-0.7-0.2l-0.05,0.15H50.9c-0.066,0.233-0.117,0.417-0.15,0.55c-0.1,0.267-0.15,0.5-0.15,0.7l-0.25,0.8
				c-0.267,0-0.434-0.083-0.5-0.25c0-0.033,0-0.183,0-0.45L49.7-37l-0.2,0.55c-0.033-0.1-0.033-0.233,0-0.4
				c-0.2,0.333-0.333,0.633-0.4,0.9c-0.1,0-0.217-0.117-0.35-0.35c-0.333,0.2-0.7,1.05-1.1,2.55c-0.3,1.2-0.45,1.817-0.45,1.85
				c0.033,0.467,0.517,0.883,1.45,1.25c-0.033,0.066-0.083,0.133-0.15,0.2c-0.067,0.067-0.15,0.083-0.25,0.05l-0.7-0.5
				c-0.066-0.033-0.1,0-0.1,0.1c0,0.066-0.15,0.066-0.45,0l-0.1-0.05c0.233,0.333,0.317,0.55,0.25,0.65
				c-0.066,0.1-0.1,0.167-0.1,0.2c-0.167-0.267-0.3-0.433-0.4-0.5l-0.2,0.8c-0.4-0.066-0.733,0.1-1,0.5
				c-0.333,0.5-0.684,1.417-1.05,2.75c-0.1,0.333-0.083,0.75,0.05,1.25c0.1,0.534,0.117,0.917,0.05,1.15
				c-0.067-0.067-0.117-0.15-0.15-0.25c-0.033-0.1-0.067-0.167-0.1-0.2H44.2l-0.1,0.25c0-0.033-0.033-0.067-0.1-0.1
				c-0.1-0.066-0.167-0.117-0.2-0.15c0,0.2-0.367,0.783-1.1,1.75c-0.867,1.2-1.333,1.85-1.4,1.95c0.034-0.333,0-0.717-0.1-1.15
				c-0.1,0.1-0.184,0.184-0.25,0.25l-0.2-0.3c0.1,0.333-0.2,0.567-0.9,0.7c-1.033,0.167-1.9,0.55-2.6,1.15
				c-0.767,0.667-1.417,1.7-1.95,3.1c-0.3,0.8-0.5,1.5-0.6,2.1c0-0.066-0.034-0.183-0.1-0.35c-0.067,0-0.117,0-0.15,0
				c-0.133,0.033-0.2,0.117-0.2,0.25l-0.1-0.25c-0.066,0-0.167,0.117-0.3,0.35c-0.067,0-0.15-0.05-0.25-0.15
				c-2.2,0.667-3.633,1.4-4.3,2.2l-0.2-0.35c-0.233,0.1-0.367,0.267-0.4,0.5c-0.1-0.1-0.15-0.183-0.15-0.25l-0.15-0.05
				c-0.1,0.133-0.183,0.383-0.25,0.75c-0.033,0-0.233-0.15-0.6-0.45c-0.167-0.033-0.433,0.1-0.8,0.4c-0.3,0.333-0.6,0.45-0.9,0.35
				c-0.2-0.033-0.367-0.2-0.5-0.5c-0.133-0.4-0.35-0.733-0.65-1l-0.35-0.1c-0.067,0.133-0.067,0.217,0,0.25
				c0.1,0.067,0.117,0.184,0.05,0.35c0,0.067-0.133,0.133-0.4,0.2c-0.267,0.033-0.417,0.05-0.45,0.05L23.5-12.8
				c-0.1,0.033-0.25,0.083-0.45,0.15c-0.2,0.066-0.433,0.183-0.7,0.35l0.05-0.1l-0.05-0.1c-0.167,0-0.317,0.067-0.45,0.2
				c-0.167,0.2-0.267,0.35-0.3,0.45l-0.4-0.5c-0.1-0.033-0.184-0.017-0.25,0.05c-0.067-0.167-0.117-0.317-0.15-0.45
				c0,0.1-0.1,0.267-0.3,0.5l-0.05,0.1c0-0.1,0.033-0.317,0.1-0.65c-0.2,0.167-0.417,0.216-0.65,0.15
				c0.033-0.1,0.117-0.35,0.25-0.75c-0.033-0.033-0.1-0.017-0.2,0.05c-0.067,0-0.15,0.033-0.25,0.1c0.133-0.5,0.2-0.867,0.2-1.1
				h-0.05c-0.067,0.167-0.167,0.317-0.3,0.45c-0.133,0.167-0.283,0.25-0.45,0.25l0.05-0.3c-0.767,0.534-1.3,0.75-1.6,0.65
				c-0.066-0.034-0.233-0.117-0.5-0.25c-0.267-0.133-0.533-0.233-0.8-0.3c-0.367-0.1-0.8-0.1-1.3,0
				c-0.367,0.133-0.633,0.233-0.8,0.3c0.067-0.1,0.167-0.284,0.3-0.55l0.05-0.1l-0.4,0.25c-0.067-0.033-0.133-0.117-0.2-0.25
				c0-0.1-0.05-0.15-0.15-0.15c-0.133-0.066-0.25-0.066-0.35,0c-0.066,0.067-0.15,0.15-0.25,0.25c-0.1-0.167-0.267-0.417-0.5-0.75
				c-0.167-0.267-0.267-0.517-0.3-0.75c-0.767,0.5-1.483,0.717-2.15,0.65h-0.05c0-0.066,0.067-0.183,0.2-0.35
				c-0.033,0-0.2,0.05-0.5,0.15c-0.333,0.1-0.567,0.133-0.7,0.1c-0.033,0-0.117-0.117-0.25-0.35c-0.1-0.267-0.25-0.417-0.45-0.45
				c-0.2-0.066-0.333-0.1-0.4-0.1c-0.1,0.034-0.3,0.15-0.6,0.35l-0.4-1c-0.233,0.1-0.466,0.217-0.7,0.35
				c-0.1,0.067-0.233,0.083-0.4,0.05c-0.2-0.066-0.367-0.183-0.5-0.35l-0.25-0.3c-0.067,0-0.35,0.05-0.85,0.15
				c-0.133-0.033-0.233-0.117-0.3-0.25C3.983-17.017,3.9-17.167,3.8-17.4c-0.1,0-0.333,0.15-0.7,0.45
				c0.066-0.233,0.133-0.55,0.2-0.95c0.067-0.2,0.15-0.383,0.25-0.55c0.034-0.066,0.184-0.267,0.45-0.6
				c-0.033,0.033-0.317,0.117-0.85,0.25c0.033-0.034,0.067-0.067,0.1-0.1L3.1-18.95c-0.033,0.067-0.15,0.15-0.35,0.25
				c-0.067,0.067-0.183,0.133-0.35,0.2H2.3c-0.333,0.133-0.566,0.183-0.7,0.15c0.066-0.233,0.1-0.55,0.1-0.95l-0.45,1.7
				c-0.167,0.867-0.217,1.417-0.15,1.65l-0.15,0.7c-0.3-0.067-0.617-0.2-0.95-0.4c0.133,0.467,0.283,0.9,0.45,1.3
				c0.633,2.2,1.1,3.9,1.4,5.1C1.817-9.283,1.767-9.333,1.7-9.4C1.633-9.433,1.6-9.367,1.6-9.2C1.533-9,1.517-8.8,1.55-8.6
				c-0.233,0-0.433,0.033-0.6,0.1C0.85-8.467,0.733-8.433,0.6-8.4c1.333,0.167,2.267,0.65,2.8,1.45c0.5,0.9,1.067,1.434,1.7,1.6
				v0.15c-0.5,0.167-0.833,0.284-1,0.35c0.233,0.067,0.5,0.167,0.8,0.3c0.233,0.066,0.467,0.167,0.7,0.3
				c0.566,0.3,1.05,0.5,1.45,0.6c0,0.267,0.133,0.483,0.4,0.65C7.65-2.867,7.833-2.8,8-2.8c0,0.333,0.083,0.5,0.25,0.5
				c0.2-0.067,0.333-0.083,0.4-0.05c-0.1,0.067-0.233,0.217-0.4,0.45c-0.233,0.3-0.367,0.533-0.4,0.7C8.25-1.533,9-1.733,10.1-1.8
				c1.167-0.1,2.267,0,3.3,0.3c0.4,0.067,0.667,0.167,0.8,0.3c0.133,0.167,0.267,0.25,0.4,0.25c0.1,0.067,0.25,0.067,0.45,0
				c0.2-0.066,0.35-0.066,0.45,0c0.067-0.1,0.4-0.066,1,0.1l-0.15,0.4c0.767-0.233,2.1-0.283,4-0.15
				c1.8,0.067,3.017-0.017,3.65-0.25L23.75,0c1.233-0.4,1.917-0.633,2.05-0.7c0.5-0.233,0.8-0.566,0.9-1
				c0.133-0.167,0.6-0.2,1.4-0.1c0.633,0.1,0.917-0.217,0.85-0.95l0.4,0.1c0,0.066,0.017,0.15,0.05,0.25
				c0.033,0.133,0.067,0.2,0.1,0.2c0.1-0.066,0.25-0.133,0.45-0.2c0.167-0.067,0.316-0.184,0.45-0.35
				c0.133,0.233,0.184,0.417,0.15,0.55c0.534-0.333,1.517-0.45,2.95-0.35c1.533,0.1,2.6,0.033,3.2-0.2l-0.15,0.8l-0.2,0.2
				c1.333-0.6,2.117-0.95,2.35-1.05c0.6-0.3,1.133-0.534,1.6-0.7l0.3,0.55c0.066-0.1,0.383-0.216,0.95-0.35
				c0.567-0.133,0.95-0.184,1.15-0.15c0.066,0.034,0.167,0.167,0.3,0.4l0.2,0.3L43.25-2.85z M15.2-11.15
				c0.029,0,0.045-0.017,0.05-0.05c-0.004,0.038-0.021,0.071-0.05,0.1V-11.15z"/>
		</g>
	</g>
</symbol>
<use xlink:href="#red_x5F_tree_x5F_05"  width="59.517" height="86.4" y="-86.4" transform="matrix(2 0 0 -2 0 0)" style="overflow:visible;"/>
</svg>
