<?xml version="1.0" encoding="iso-8859-1"?>
<!-- Generator: Adobe Illustrator 16.0.0, SVG Export Plug-In . SVG Version: 6.00 Build 0)  -->
<!DOCTYPE svg PUBLIC "-//W3C//DTD SVG 1.1//EN" "http://www.w3.org/Graphics/SVG/1.1/DTD/svg11.dtd">
<svg version="1.1" id="Layer_1" xmlns="http://www.w3.org/2000/svg" xmlns:xlink="http://www.w3.org/1999/xlink" x="0px" y="0px"
	 width="117px" height="163px" viewBox="0 0 117 163" style="enable-background:new 0 0 117 163;" xml:space="preserve">
<symbol  id="blue_x5F_tree_x5F_05" viewBox="0 -80.1 56.863 80.025">
	<g id="Layer_3_1_">
		<g>
			<path style="fill-rule:evenodd;clip-rule:evenodd;fill:#170E04;" d="M43.3-22.35c0.034-0.066,0.067-0.117,0.1-0.15
				c-0.7-2.167-1.367-5.65-2-10.45c0.467,0.133,0.95,0.3,1.45,0.5c1.667,0.633,2.883,1.467,3.65,2.5
				c0.033-0.066,0.067-0.15,0.1-0.25c-0.067-0.3-0.5-0.816-1.3-1.55c-0.767-0.667-1.333-1.083-1.7-1.25
				c-0.3-0.167-0.767-0.433-1.4-0.8c-0.333-0.167-0.65-0.317-0.95-0.45c-0.167-1.367-0.333-2.833-0.5-4.4
				c-0.167-2.133,0.217-4.317,1.15-6.55c0.167,0.7,0.333,1.417,0.5,2.15v0.1c0.033,0.067,0.05,0.133,0.05,0.2s0.05,0.95,0.15,2.65
				c0.1,1.733,0.15,1.8,0.15,0.2c0-1.567,0.017-2.434,0.05-2.6c0.034-0.167,0.05-0.283,0.05-0.35C42.817-42.917,42.8-43,42.8-43.1
				c-0.267-2.066-0.7-3.983-1.3-5.75c1.067,0.267,2.417,0.733,4.05,1.4c0.625,0.259,1.316,0.634,2.075,1.125
				c0.882,0.594,1.857,1.353,2.925,2.275c-1.167-1.1-1.75-1.684-1.75-1.75h-0.05c-0.361-0.38-0.886-0.789-1.575-1.225L46.5-47.7
				c-0.401-0.23-0.801-0.48-1.2-0.75c-0.397-0.275-0.889-0.467-1.475-0.575c-0.585-0.106-1.135-0.24-1.65-0.4
				c-0.519-0.157-0.877-0.299-1.075-0.425c-0.052-0.142-0.102-0.284-0.15-0.425c-0.283-0.712-0.591-1.404-0.925-2.075
				c-0.069-0.192-0.161-0.409-0.275-0.65c-0.167-0.334-0.425-0.826-0.775-1.475c-0.349-0.647-0.582-0.981-0.7-1
				c-0.123-0.018-0.498-0.435-1.125-1.25c-0.62-0.815-0.97-1.291-1.05-1.425c-0.08-0.129-0.23-0.288-0.45-0.475
				c-0.227-0.194-0.402-0.302-0.525-0.325c-1.319-2.231-2.01-3.681-2.075-4.35c-0.066-0.233-0.2-0.483-0.4-0.75
				c-0.233-0.3-0.4-0.583-0.5-0.85c-0.133-0.233-0.15-0.733-0.05-1.5l-0.35-1.85c0-0.633-0.067-1.05-0.2-1.25
				c-0.037-0.047-0.07-0.097-0.1-0.15c0.086-0.749,0.203-1.749,0.35-3c0.034-0.3,0.034-0.817,0-1.55
				c-0.033-0.466,0.034-0.833,0.2-1.1c0.3-0.467,0.817-1.267,1.55-2.4c0.211-0.31,0.402-0.577,0.575-0.8
				c0.194-0.07,0.385-0.137,0.575-0.2c0.133,0,0.367,0.034,0.7,0.1c0.333,0.1,0.55,0.15,0.65,0.15c0.434,0,1.083-0.117,1.95-0.35
				c0.122-0.028,0.239-0.053,0.35-0.075c0.227-0.069,0.419-0.136,0.575-0.2C38.952-79.082,38.977-79.09,39-79.1
				c-1.2-0.267-2.083-0.417-2.65-0.45c-0.2-0.034-0.667-0.05-1.4-0.05c-0.767,0-1.75,0.1-2.95,0.3c-1,0.233-1.533,0.35-1.6,0.35
				c-2.267-0.6-3.583-0.983-3.95-1.15h-1.5c0.04,0.04,0.082,0.082,0.125,0.125c0.059,0.053,0.126,0.111,0.2,0.175l0.025,0.025
				c0.09,0.072,0.19,0.146,0.3,0.225c0.213,0.166,0.463,0.349,0.75,0.55l-0.025,0.025c-0.352,0.184-0.56,0.275-0.625,0.275
				c-0.233,0-0.833-0.2-1.8-0.6c-0.533-0.2-1.05-0.417-1.55-0.65H21.2c0,0.034,0.033,0.067,0.1,0.1
				c0.014,0.014,0.022,0.031,0.025,0.05c0.017,0.027,0.025,0.061,0.025,0.1c0.533,0.067,1.083,0.333,1.65,0.8
				c0.767,0.566,1.217,0.883,1.35,0.95c0.133,0.034,0.467,0.05,1,0.05c0.5,0.066,0.833,0.25,1,0.55c0.133,0.233,0.433,0.667,0.9,1.3
				c0.2,0.267,0.35,0.466,0.45,0.6c0,0.2,0.017,0.4,0.05,0.6c0.124,1.483,0.224,2.784,0.3,3.9c0.016,0.389,0.033,0.756,0.05,1.1
				c0.066,1.934,0.1,4.833,0.1,8.7c0.033,3.867-0.083,6.333-0.35,7.4c-0.233,1.133-0.633,2.35-1.2,3.65
				c-0.533,1.367-0.867,2.35-1,2.95c-0.5,1.5-0.967,3.183-1.4,5.05c-0.061,0.275-0.12,0.592-0.175,0.95
				c-0.159,0.176-0.301,0.326-0.425,0.45c-0.533,0.534-1.017,0.75-1.45,0.65c-0.133,0.4-0.4,0.767-0.8,1.1
				c-0.467,0.367-0.783,0.633-0.95,0.8c-0.133,0.133-0.434,0.566-0.9,1.3c-0.108,0.167-0.208,0.317-0.3,0.45
				c-0.2,0.239-0.408,0.489-0.625,0.75c-0.232,0.317-0.474,0.651-0.725,1h-0.05c-0.067,0.133-0.133,0.25-0.2,0.35
				c-0.7,1.033-1.35,2-1.95,2.9c-3.167,0-5.667,0.283-7.5,0.85c0.633-0.067,1.066-0.117,1.3-0.15c0.9-0.1,1.783-0.15,2.65-0.15
				c1.467,0,2.35,0.033,2.65,0.1c0.034,0,0.284,0,0.75,0c-0.267,0.5-0.483,0.933-0.65,1.3c0.233-0.267,0.5-0.583,0.8-0.95
				c0.167-0.267,0.367-0.533,0.6-0.8c0.467-0.633,1-1.35,1.6-2.15c0,0.133,0.017,0.267,0.05,0.4c0.033,0.7,0.033,1.3,0,1.8v0.05
				c0,0.1,0,0.217,0,0.35c0,0.1,0,0.167,0,0.2c-1.967,2-3.65,4.983-5.05,8.95c-0.1,0.233-0.183,0.483-0.25,0.75
				c-0.867,2.533-1.45,4.8-1.75,6.8c0.633-2.034,1-3.45,1.1-4.25c0.1-0.8,0.667-2.4,1.7-4.8c1.033-2.367,2.383-4.367,4.05-6
				c-0.139,0.636-0.272,1.286-0.4,1.95c-0.237,1.25-0.454,2.55-0.65,3.9c0.686-2.633,1.102-4.191,1.25-4.675
				c0.234-0.439,0.484-1.031,0.75-1.775l-0.1-0.95c0-0.6,0.083-1.467,0.25-2.6l-0.1-0.8c0-0.135,0.008-0.268,0.025-0.4
				c0.094-0.118,0.186-0.234,0.275-0.35c0.234-0.3,0.434-0.567,0.6-0.8c0.271-0.375,0.455-0.633,0.55-0.775
				c0.099-0.149,0.333-0.407,0.7-0.775c0.366-0.366,0.549-0.566,0.55-0.6c0.867-0.433,1.367-0.7,1.5-0.8l0.625,0.625
				c-0.264,2.271-0.722,7.296-1.375,15.075l1.15-7.25c0.333-2.133,0.633-4.05,0.9-5.75c0.3,0.7,0.533,1.733,0.7,3.1
				c0.2,2,0.367,3.433,0.5,4.3c0,0.034,0.017,0.083,0.05,0.15h0.1c0.066,0,0.117,0,0.15,0c0.033-0.067,0.05-0.133,0.05-0.2v-0.05
				c0-1.717-0.042-3.142-0.125-4.275c-0.021-0.311-0.045-0.603-0.075-0.875v-0.1l-0.1-1.15l0.1-1c0-0.167-0.067-0.316-0.2-0.45
				c-0.2-0.2-0.333-0.367-0.4-0.5l-0.325-1.325c0.035-0.181,0.068-0.364,0.1-0.55c0.109-0.531,0.218-1.056,0.325-1.575
				c0.7-3.7,1.717-6.75,3.05-9.15c-0.033,0.367-0.066,0.717-0.1,1.05c-0.5,5.934-0.35,11.784,0.45,17.55
				c0.033,0.2,0.067,0.417,0.1,0.65c0.033,0.5-0.033,1.017-0.2,1.55c-0.333,1.8-0.717,3.45-1.15,4.95
				c-0.367,0.233-1.2,0.667-2.5,1.3c-1.967,1.067-3.75,2.167-5.35,3.3c-0.767,0.533-1.483,1.083-2.15,1.65
				c-2.6,2.1-4.583,4.283-5.95,6.55c0.633-0.767,1.2-1.417,1.7-1.95c1.6-1.7,3.067-2.983,4.4-3.85c-0.033,0.633-0.2,1.35-0.5,2.15
				c-0.233,0.633-0.683,1.7-1.35,3.2c-0.2,0.467-0.517,1.283-0.95,2.45c-0.067,0.133-0.117,0.284-0.15,0.45c0.6-1.2,1.267-2.6,2-4.2
				c0.633-1.3,1.15-2.417,1.55-3.35c0.233-0.567,0.433-1.05,0.6-1.45c1.867-1.167,3.267-2.017,4.2-2.55
				c2.034-1.167,3.317-1.784,3.85-1.85c-0.2,0.7-0.417,1.35-0.65,1.95c-0.067,0.167-0.133,0.333-0.2,0.5
				c-0.7,1.7-1.466,3.167-2.3,4.4c-0.033,0.066-0.05,0.133-0.05,0.2c0,0.033,0.017,0.083,0.05,0.15
				c0.033,0.034,0.083,0.05,0.15,0.05c0.033,0,0.067-0.017,0.1-0.05v-0.05c1.067-1.333,1.95-2.583,2.65-3.75
				c0.267,0.333,0.533,0.867,0.8,1.6c0.267,0.8,0.4,1.417,0.4,1.85l-0.05,1.15c-0.3,0.167-0.683,0.5-1.15,1
				c-0.367,0.4-0.8,0.933-1.3,1.6c-1.4,1.8-2.383,3.5-2.95,5.1c0.1-0.033,0.2-0.066,0.3-0.1c0.633-1.367,1.283-2.5,1.95-3.4
				c0.833-1.066,1.567-1.6,2.2-1.6c0.267,0,0.4,0.35,0.4,1.05c0,0.333-0.033,0.833-0.1,1.5c-0.1,0.6-0.183,1.033-0.25,1.3
				c0.033,0,0.083-0.017,0.15-0.05C26.867-7.733,26.933-8,27-8.3c0.6-2.233,0.9-4,0.9-5.3c0-0.133,0-0.267,0-0.4
				c-0.033-1.467-0.15-2.817-0.35-4.05c-0.133-0.833-0.233-1.483-0.3-1.95c0.433-0.833,0.767-1.65,1-2.45
				c0.667-2.033,1.15-3.816,1.45-5.35c0.9,1.433,1.667,2.466,2.3,3.1c-0.133,1.434-0.283,2.784-0.45,4.05
				c-0.533,5.1-0.816,8.867-0.85,11.3c0.167-0.1,0.333-0.2,0.5-0.3c0.066-1.333,0.1-2.934,0.1-4.8c0.1-1.733,0.383-3.183,0.85-4.35
				c0.633,0.066,1.45,0.8,2.45,2.2c0.333,0.467,0.6,0.917,0.8,1.35c-0.267-0.833-0.55-1.5-0.85-2c-0.533-0.967-1.333-1.933-2.4-2.9
				H32.1V-21c0.2-0.9,0.467-1.933,0.8-3.1c0.067,0.067,0.15,0.1,0.25,0.1c0.067,0,0.1-0.017,0.1-0.05
				c0.033-0.034,0.05-0.083,0.05-0.15c0.058-0.029,0.066-0.07,0.025-0.125c0.049-0.049,0.107-0.124,0.175-0.225
				c-0.333-0.434-0.667-0.883-1-1.35c-0.7-0.934-1.05-1.5-1.05-1.7l0.15-0.5c0-0.167-0.3-0.967-0.9-2.4
				c-0.133-0.6-0.284-1.467-0.45-2.6c-0.1-0.3-0.183-1.316-0.25-3.05c-0.033-0.4-0.117-1.083-0.25-2.05c-0.1-0.8-0.15-1.466-0.15-2
				c0-0.4,0.066-1.083,0.2-2.05c0.1-0.933,0.15-1.8,0.15-2.6l-0.175-2.475c0.126-1.785,0.318-3.576,0.575-5.375
				c0.5-3.5,0.816-7.017,0.95-10.55c1.467,3.1,2.684,7.617,3.65,13.55c0.066,0.534,0.133,1,0.2,1.4c0,0.066,0,0.117,0,0.15
				c-0.261,0.956-0.536,2.948-0.825,5.975c-0.027,0.044-0.069,0.177-0.125,0.4c-0.051,0.223-0.126,0.473-0.225,0.75
				c-0.105,0.278-0.339,0.537-0.7,0.775c-0.354,0.235-0.562,0.468-0.625,0.7c-0.023,0.069-0.115,0.21-0.275,0.425
				c-0.07,0.088-0.146,0.18-0.225,0.275l0.1-0.05v0.05c-0.033,0-0.067,0.017-0.1,0.05H32.1c-0.033,0.066-0.067,0.1-0.1,0.1
				c-0.178,0.244-0.345,0.477-0.5,0.7c-0.394,0.55-0.71,1.017-0.95,1.4c-0.033,0.067-0.05,0.133-0.05,0.2
				c0,0.066,0.017,0.117,0.05,0.15h0.05c0.467-0.567,0.867-1.05,1.2-1.45c0.133-0.167,0.317-0.367,0.55-0.6l0.8-0.85
				c0.375-0.398,0.759-0.74,1.15-1.025c0,0.172,0,0.297,0,0.375c-0.033,0.833-0.066,1.383-0.1,1.65c-0.034,0.4-0.05,0.8-0.05,1.2
				c0,0.267-0.017,0.534-0.05,0.8c-0.1,1.167-0.184,2.433-0.25,3.8c0,0.033,0,0.083,0,0.15c0.033,0.067,0.066,0.1,0.1,0.1
				c0.066,0,0.117-0.033,0.15-0.1c0.033-0.033,0.05-0.066,0.05-0.1v-0.05c0.133-1.533,0.25-2.95,0.35-4.25
				c0.967,1,2.133,3.217,3.5,6.65c0.033,0,0.05,0.017,0.05,0.05c-0.367,0.8-0.683,2.033-0.95,3.7c-0.333,1.867-0.5,3.517-0.5,4.95
				c0,0.433,0.05,1.1,0.15,2c0.1,1,0.217,1.717,0.35,2.15c-0.033-0.4-0.067-1.066-0.1-2c-0.067-0.9-0.1-1.617-0.1-2.15
				c0-0.967,0.017-1.55,0.05-1.75c0.033-0.267,0.233-1.017,0.6-2.25c0.1-0.4,0.317-0.95,0.65-1.65c0.233-0.5,0.4-0.9,0.5-1.2
				c1.233,3.4,1.983,6.533,2.25,9.4c0.066-0.033,0.117-0.083,0.15-0.15c0.033-0.333,0.017-0.867-0.05-1.6
				c-0.333-3.2-0.95-6.1-1.85-8.7c-0.867-2.6-1.817-4.7-2.85-6.3c-0.633-1-1.217-1.783-1.75-2.35c0.066-0.667,0.117-1.3,0.15-1.9
				v-0.15c0.033-0.2,0.05-0.417,0.05-0.65c0-0.033,0-0.067,0-0.1c0.139-1.246,0.264-2.304,0.375-3.175
				c0.104-0.802,0.195-1.444,0.275-1.925c0.133,1,0.233,1.9,0.3,2.7c0,0.033,0.017,0.067,0.05,0.1c0.3,2.533,0.5,4.217,0.6,5.05
				c0.033,0.067,0.083,0.417,0.15,1.05c0.067,0.667,0.133,0.483,0.2-0.55c0.033-1-0.083-2.9-0.35-5.7v-0.05
				c-0.167-1.867-0.367-3.7-0.6-5.5c-0.1-1.1-0.216-2.2-0.35-3.3c-0.067-0.367-0.383-1.883-0.95-4.55c-0.067-0.3-0.133-0.6-0.2-0.9
				c1.3,0.867,2.7,2.467,4.2,4.8c0.167,0.267,0.317,0.517,0.45,0.75c0,0.267,0,0.583,0,0.95c-0.1,1.3-0.15,2.4-0.15,3.3
				c0,0.033,0,0.066,0,0.1c0,0.2,0,0.467,0,0.8c0,0.3,0.034,0.533,0.1,0.7c0.033,0.167,0.117,1.1,0.25,2.8
				c0.133,1.7,0.184,1.533,0.15-0.5c-0.066-2.067-0.1-3.133-0.1-3.2c0-0.2,0.017-0.4,0.05-0.6v-0.05c0.1-0.767,0.183-1.45,0.25-2.05
				c0.067-0.4,0.117-0.767,0.15-1.1c0.167,0.367,0.35,0.733,0.55,1.1c0.566,1.133,1.033,2.283,1.4,3.45
				c-0.633,0.8-1.067,1.733-1.3,2.8c-0.267,1.6-0.35,3.233-0.25,4.9c0.167,1.8,0.383,3.566,0.65,5.3c0.2,0.967,0.417,1.95,0.65,2.95
				C41.95-27.583,42.6-24.983,43.3-22.35z"/>
			<polygon style="fill-rule:evenodd;clip-rule:evenodd;fill:#614E37;" points="32.4,-38.1 32.35,-38.05 32.4,-38.05 			"/>
		</g>
		<g>
			<path style="fill-rule:evenodd;clip-rule:evenodd;fill:#1E3235;" d="M51-43.4l0.1,0.05v0.1C51.099-43.284,51.065-43.334,51-43.4z
				 M42.75-4.45c0.1-0.267,0.383-0.466,0.85-0.6c0.733-0.267,1.117-0.4,1.15-0.4c-0.2-0.333-0.567-0.6-1.1-0.8
				c-0.333-0.133-0.533-0.317-0.6-0.55c0.434-0.2,0.917-0.483,1.45-0.85c0.9-0.8,1.467-1.267,1.7-1.4c-0.067,0-0.233-0.017-0.5-0.05
				c-0.233,0-0.434-0.033-0.6-0.1l0.6-0.4l-0.25-0.1c0-0.2,0.2-0.4,0.6-0.6c-0.1-0.034-0.3,0.017-0.6,0.15
				c0.133-0.2,0.417-0.383,0.85-0.55c0.567-0.2,1.067-0.483,1.5-0.85c0.7-0.6,1.267-1.184,1.7-1.75c0.233-0.333,0.367-0.567,0.4-0.7
				l0.15-0.65c-0.1,0.167-0.25,0.316-0.45,0.45c-0.1,0.034-0.217,0.083-0.35,0.15l0.4-1.55c0.167,0.033,0.3-0.083,0.4-0.35
				c0.034-0.167-0.066-0.4-0.3-0.7c-0.167-0.333-0.217-0.6-0.15-0.8c0.033-0.133,0.183-0.383,0.45-0.75
				c-0.066,0-0.117,0.05-0.15,0.15l-0.25-0.05c0.167-0.5,0.75-1.55,1.75-3.15l-0.5-0.15c0.267-0.434,0.667-0.883,1.2-1.35
				c0.3-0.267,0.55-0.8,0.75-1.6l0.4-1.45l-0.65,0.5l-0.25-0.1c0.066-0.233,0.133-0.633,0.2-1.2c0.1-0.467,0.184-0.75,0.25-0.85
				c0.1-0.267,0.267-0.5,0.5-0.7l-0.2-0.1l0.15-0.45c-0.2-0.066-0.3-0.05-0.3,0.05c-0.034-0.1-0.133-0.267-0.3-0.5
				c-0.133-0.2-0.167-0.383-0.1-0.55c0.034-0.066,0.233-0.333,0.6-0.8c0.033-0.067,0.05-0.217,0.05-0.45
				c0.033-0.267,0.066-0.45,0.1-0.55c-0.033,0-0.1,0.033-0.2,0.1c-0.067,0.1-0.117,0.167-0.15,0.2l-0.4-0.1
				c0.534-0.6,0.85-0.983,0.95-1.15c0.3-0.433,0.517-0.9,0.65-1.4c0.1-0.233,0.083-0.633-0.05-1.2c0.2-0.133,0.483-0.2,0.85-0.2
				c0.333,0,0.566-0.05,0.7-0.15l-0.75-0.2c0.2-0.033,0.367-0.033,0.5,0c0.033-0.066,0-0.117-0.1-0.15
				c-0.066-0.1-0.167-0.167-0.3-0.2c0.3-0.367,0.583-0.533,0.85-0.5l-0.55-0.1c0.067-0.233,0.3-0.534,0.7-0.9
				c0.4-0.4,0.65-0.833,0.75-1.3c0.1-0.233,0.133-0.367,0.1-0.4c0-0.067-0.05-0.184-0.15-0.35l-0.25-0.05l-0.15,0.6
				c-0.066-0.033-0.1,0-0.1,0.1l-0.3-0.05c0-0.033,0-0.067,0-0.1c0.1-0.133,0.167-0.35,0.2-0.65c0.033-0.3,0.083-0.517,0.15-0.65
				l-0.45-0.15c0.067-0.4,0.167-0.667,0.3-0.8c-0.333-0.1-0.517-0.2-0.55-0.3c0.034-0.333,0.2-0.5,0.5-0.5
				c0.333,0.033,0.534-0.05,0.6-0.25c-1.167-2.467-1.767-3.7-1.8-3.7c-0.033-0.033,0-0.3,0.1-0.8c-0.167-0.6-0.883-1.083-2.15-1.45
				h-0.05c0.1-0.167,0.15-0.367,0.15-0.6c-0.033-0.233-0.117-0.4-0.25-0.5c-0.1,0.1-0.167,0.15-0.2,0.15
				c-0.067,0.3-0.133,0.7-0.2,1.2c-0.033,0.067-0.05,0.133-0.05,0.2c-0.1,0.433-0.15,0.683-0.15,0.75c0,0.033,0,0.066,0,0.1H52
				l-0.25-0.25v-0.05c-0.133-0.067-0.217-0.117-0.25-0.15c-0.1-0.033-0.483-0.05-1.15-0.05c-0.4,0-1.1,0.167-2.1,0.5
				c0.033,0.034,0.283,0.4,0.75,1.1c0.3,0.467,0.467,0.85,0.5,1.15H48c0.2,0.633,0.083,1.233-0.35,1.8
				c-0.433,0.6-0.983,0.833-1.65,0.7c0.833,0.833,1.25,2.034,1.25,3.6c0,0.3-0.25,0.684-0.75,1.15c0.2,0.067,0.617,0.317,1.25,0.75
				c0.667,0.434,1,0.684,1,0.75c0,0.233-0.05,0.4-0.15,0.5c-0.067,0.1-0.1,0.184-0.1,0.25l-0.35,0.05v-0.05c0-0.033,0-0.183,0-0.45
				L48-35.7l-0.15,0.5c-0.067-0.1-0.083-0.233-0.05-0.4c-0.167,0.333-0.267,0.617-0.3,0.85c-0.1-0.033-0.217-0.133-0.35-0.3
				c-0.3,0.167-0.617,0.933-0.95,2.3l-0.45,1.6c0.033,0.433,0.483,0.833,1.35,1.2c-0.033,0.034-0.083,0.083-0.15,0.15
				c-0.067,0.033-0.15,0.05-0.25,0.05l-0.6-0.45c-0.067-0.033-0.1,0-0.1,0.1c0,0.067-0.15,0.05-0.45-0.05H45.5
				c0.2,0.267,0.267,0.45,0.2,0.55c-0.034,0.1-0.05,0.167-0.05,0.2c-0.167-0.233-0.3-0.383-0.4-0.45L45.1-29.1
				c-0.367-0.066-0.667,0.067-0.9,0.4c-0.333,0.467-0.65,1.284-0.95,2.45c-0.067,0.233-0.083,0.517-0.05,0.85
				c-0.333,0.1-0.917,0.333-1.75,0.7c-1.1,0.5-1.667,0.75-1.7,0.75c-0.5,0-0.917-0.167-1.25-0.5v0.25
				c0.133,0.867-0.117,1.367-0.75,1.5c0-0.333-0.083-0.5-0.25-0.5c-0.267,0.367-0.417,0.583-0.45,0.65
				c-0.133,0.3-0.233,0.667-0.3,1.1c-0.633-0.267-1.183-0.15-1.65,0.35c-0.5,0.567-1.033,0.783-1.6,0.65v0.25
				c0.233,0,0.467,0.05,0.7,0.15c0.2,0.1,0.3,0.216,0.3,0.35c-0.1,0-0.183,0.034-0.25,0.1v0.15h-1c0,0.034,0.117,0.15,0.35,0.35
				c0.167,0.133,0.217,0.35,0.15,0.65H32c0,0.034,0.117,0.15,0.35,0.35c0.167,0.133,0.217,0.35,0.15,0.65
				c-0.267,0-0.55,0.083-0.85,0.25c-0.333,0.167-0.6,0.25-0.8,0.25c-0.267,0-0.567-0.15-0.9-0.45
				c-0.267-0.233-0.417-0.417-0.45-0.55c0,0.1-0.05,0.167-0.15,0.2l-0.1,0.05c0,0.233-0.05,0.417-0.15,0.55s-0.217,0.2-0.35,0.2
				c-0.033-0.033-0.167-0.167-0.4-0.4c-0.133-0.167-0.333-0.2-0.6-0.1c0.067,0.167,0,0.417-0.2,0.75c-0.2,0.3-0.3,0.467-0.3,0.5
				l-0.5-0.5c0.033,0.167,0.05,0.284,0.05,0.35c-0.033,0.1-0.183,0.15-0.45,0.15c-0.3,0-0.65-0.233-1.05-0.7
				c0.133,0.167,0.2,0.483,0.2,0.95h-1.25c0-0.066-0.05-0.167-0.15-0.3L24-16.2h-0.4c-0.5,0-0.867-0.083-1.1-0.25
				C22.167-16.683,22-17.1,22-17.7c0-0.233,0.033-0.466,0.1-0.7c0.1-0.233,0.15-0.417,0.15-0.55H22c-0.2,0-0.467,0.117-0.8,0.35
				c-0.267,0.267-0.417,0.4-0.45,0.4c-0.233,0-0.417-0.083-0.55-0.25c-0.1-0.167-0.167-0.25-0.2-0.25c0,0.5-0.083,0.833-0.25,1
				c-0.233-0.233-0.567-0.483-1-0.75c0.067,0.2,0.1,0.35,0.1,0.45c0.033,0.2-0.083,0.3-0.35,0.3c-0.233,0-0.417-0.05-0.55-0.15
				c-0.1-0.066-0.167-0.1-0.2-0.1v-0.4c-0.033,0.567-0.067,1.05-0.1,1.45c-0.133-0.2-0.267-0.4-0.4-0.6
				c-0.2-0.2-0.417-0.383-0.65-0.55c-0.567-0.434-1.184-0.733-1.85-0.9v-1.5c-0.5,0.034-0.95-0.15-1.35-0.55
				c-0.033,0-0.05-0.017-0.05-0.05c-0.167-0.167-0.317-0.35-0.45-0.55c-0.167-0.267-0.3-0.55-0.4-0.85
				c-0.833,0.367-1.417,0.117-1.75-0.75c-0.167-0.433-0.25-0.933-0.25-1.5h-0.25c0,0.333-0.083,0.5-0.25,0.5
				c-0.3-0.566-0.517-1.35-0.65-2.35c-0.067-0.5-0.1-0.967-0.1-1.4c0-0.2,0.033-0.566,0.1-1.1c0.1-0.498,0.149-0.881,0.15-1.15
				c-0.005,0.167-0.338,0.25-1,0.25c0-0.433-0.05-1.017-0.15-1.75c-0.067-0.733-0.1-1.316-0.1-1.75c-0.1,0.4-0.433,0.733-1,1
				c-0.333-0.333-0.5-0.75-0.5-1.25c-0.467,0.467-0.783,0.267-0.95-0.6c-0.1-0.534-0.133-1-0.1-1.4
				c-0.067,0.067-0.184,0.184-0.35,0.35c-0.133,0.167-0.333,0.3-0.6,0.4c-0.067-0.233-0.117-0.367-0.15-0.4L4-35.7
				c-0.533,0.5-0.883,1.117-1.05,1.85c-0.133,0.8-0.217,1.35-0.25,1.65c-0.167,1.067-1.067,1.483-2.7,1.25v0.25
				c1.167,0.1,1.8,1.034,1.9,2.8c0.133,2.066,0.5,3.3,1.1,3.7c-0.333,0.333-0.5,0.75-0.5,1.25c0.133,0.034,0.317,0.184,0.55,0.45
				c0.233,0.267,0.383,0.533,0.45,0.8c-0.1,0-0.183,0.034-0.25,0.1v0.15c-0.667,0-1.083-0.083-1.25-0.25v1.75
				c0.567,0.6,0.867,0.9,0.9,0.9c0.233,0.3,0.35,0.583,0.35,0.85c0,0.367-0.017,0.567-0.05,0.6c-0.067,0.1-0.3,0.233-0.7,0.4
				c0.133,0.133,0.383,0.317,0.75,0.55c0.1,0.1,0.2,0.2,0.3,0.3c-0.1-0.033-0.2-0.083-0.3-0.15c0.1,0.433,0.217,0.833,0.35,1.2
				c-0.5,0.233-0.95,0.35-1.35,0.35C2.383-14.483,2.767-14,3.4-13.5c0.267,0.233,0.583,0.467,0.95,0.7c0,0.033,0.017,0.066,0.05,0.1
				c0.2,0.767,0.367,1.417,0.5,1.95c-0.033,0-0.066-0.033-0.1-0.1c-0.066,0-0.117,0.067-0.15,0.2c-0.033,0.167-0.033,0.333,0,0.5
				c-0.2,0.033-0.383,0.066-0.55,0.1C4-10.017,3.9-9.983,3.8-9.95c1.167,0.133,2,0.567,2.5,1.3C6.767-7.817,7.283-7.333,7.85-7.2
				L7.8-7.05c-0.433,0.133-0.716,0.233-0.85,0.3c0.2,0.067,0.433,0.15,0.7,0.25c0.2,0.1,0.4,0.2,0.6,0.3
				c0.533,0.267,0.967,0.45,1.3,0.55c0.034,0.233,0.167,0.417,0.4,0.55c0.167,0.133,0.316,0.2,0.45,0.2c0,0.3,0.083,0.45,0.25,0.45
				C10.85-4.483,10.967-4.5,11-4.5c-0.067,0.067-0.183,0.2-0.35,0.4c-0.2,0.3-0.316,0.517-0.35,0.65c0.367-0.3,1.034-0.483,2-0.55
				c0.667-0.067,1.3-0.05,1.9,0.05c0.2,0.233,0.3,0.4,0.3,0.5c0,0.267-0.05,0.45-0.15,0.55C14.183-2.833,14.067-2.767,14-2.7v0.5
				c0.133,0,0.45-0.033,0.95-0.1c0.5,0,0.933,0.2,1.3,0.6c0.167,0,0.25-0.167,0.25-0.5h0.1c0.1-0.066,0.15-0.15,0.15-0.25
				c0.433,0.667,1.05,1.1,1.85,1.3c0.967,0.233,1.6,0.467,1.9,0.7c-0.433-0.5-0.683-0.833-0.75-1h3
				c0.326,0.62,0.493,1.078,0.5,1.375V-0.7c0.033,0,0.083-0.033,0.15-0.1c0.067-0.1,0.217-0.15,0.45-0.15
				c0.267,0,0.566,0.133,0.9,0.4c0.333,0.233,0.583,0.35,0.75,0.35c0.267,0,0.417-0.083,0.45-0.25C25.983-0.483,26-0.649,26-0.95
				c0.002,0.102,0.036,0.186,0.1,0.25c0.1,0.1,0.15,0.184,0.15,0.25c0.033-0.033,0.15-0.083,0.35-0.15
				c0.167-0.133,0.217-0.333,0.15-0.6H28c0,0.1,0.083,0.233,0.25,0.4c0.167,0.167,0.25,0.283,0.25,0.35
				c0.164,0,0.248,0.067,0.25,0.2v-0.7C28.917-0.95,29-0.867,29-0.7c0.033-0.033,0.15-0.083,0.35-0.15
				c0.167-0.133,0.217-0.333,0.15-0.6c0.167,0,0.367,0.05,0.6,0.15c0.267,0.066,0.483,0.1,0.65,0.1c0-0.066-0.05-0.183-0.15-0.35
				c-0.067-0.167-0.1-0.3-0.1-0.4c0.7,0,1.333-0.033,1.9-0.1c0.3-0.067,0.583-0.117,0.85-0.15c0.467,0,0.867,0.15,1.2,0.45
				c-0.067-0.1-0.133-0.283-0.2-0.55c-0.1-0.333-0.183-0.55-0.25-0.65c0.5,0,1.017,0.184,1.55,0.55c0.667,0.5,0.733,1.066,0.2,1.7
				c0.6-0.167,1.167-0.417,1.7-0.75c0.7-0.433,1.05-0.85,1.05-1.25c0.167-0.066,0.367-0.133,0.6-0.2
				c0.133-0.1,0.183-0.283,0.15-0.55c0.833,0.367,1.65,0.4,2.45,0.1c0.5-0.167,1.35-0.533,2.55-1.1H42.75z"/>
		</g>
	</g>
</symbol>
<use xlink:href="#blue_x5F_tree_x5F_05"  width="56.863" height="80.025" y="-80.1" transform="matrix(2 0 0 -2 0 -0.2002)" style="overflow:visible;"/>
<g>
	<g>
		<path style="fill-rule:evenodd;clip-rule:evenodd;fill-opacity:0.451;" d="M52.1,158.05c0.077-0.047,0.161-0.098,0.25-0.149
			c-0.196,0.01-0.388,0.026-0.575,0.05c-1.064,0.105-2.089,0.355-3.075,0.75c-1.9,0.866-3.483,1.3-4.75,1.3l-2.3-0.1v-0.15v-0.1
			l1.05-0.351h0.1l-0.1,0.101c-0.084,0.027-0.134,0.069-0.15,0.125v0.024h0.25c0.19-0.006,0.457-0.056,0.8-0.149
			c0.333-0.067,0.617-0.101,0.85-0.101c0.4,0,0.966-0.267,1.7-0.8c2.423-1.242,4.006-1.876,4.75-1.9l0.15-0.05l4.15,1.95
			c0.1,0,0.233-0.05,0.4-0.15c0.167-0.133,0.35-0.216,0.55-0.25c0.133-0.033,0.567-0.133,1.3-0.3c0.767-0.133,1.217-0.2,1.35-0.2
			c0.3-0.033,0.9-0.149,1.8-0.35c0.667-0.167,1.167-0.25,1.5-0.25l3.95,0.9c2.284,0.424,4.484,0.698,6.601,0.824
			c1-0.134,2.267-0.359,3.8-0.675l0.125-0.024c0.65-0.151,1.375-0.127,2.175,0.074L78,158.7l-7.9,0.8
			c0.191,0.018,0.441,0.051,0.75,0.1l-1.649-0.05c-1.066-0.066-4.334-0.383-9.8-0.95l-6.75,1.5l-2.775-0.074
			c0.684-0.303,1.192-0.527,1.525-0.676c0.767-0.333,1.184-0.733,1.25-1.199C52.424,158.122,52.241,158.089,52.1,158.05z"/>
		<path style="fill-rule:evenodd;clip-rule:evenodd;fill-opacity:0.2;" d="M49.875,160.025l2.775,0.074l6.75-1.5
			c5.466,0.567,8.733,0.884,9.8,0.95l1.649,0.05c-0.309-0.049-0.559-0.082-0.75-0.1l7.9-0.8l0.75-0.601
			c0.72,0.234,1.353,0.443,1.9,0.625c-0.742,0.386-1.875,0.711-3.4,0.976c-1.53,0.266-2.914,0.399-4.15,0.399
			c-4.066-0.433-8.066-0.649-12-0.649c-2.333,0-3.95,0.184-4.85,0.55c-0.9,0.3-1.5,0.45-1.8,0.45c-1.333,0.066-2.35,0.1-3.05,0.1
			c-0.822,0-1.43-0.092-1.825-0.274L49.875,160.025z M41.65,159.75v0.15l2.3,0.1c1.267,0,2.85-0.434,4.75-1.3
			c0.986-0.395,2.011-0.645,3.075-0.75c0.187-0.023,0.379-0.04,0.575-0.05c-0.089,0.052-0.173,0.103-0.25,0.149
			c0.304,0.405,0.246,0.688-0.175,0.851c-0.418,0.167-0.868,0.3-1.35,0.399c-0.483,0.099-0.875,0.183-1.175,0.25
			c-0.066,0-0.733,0.117-2,0.351c-1.8,0.3-3.267,0.449-4.4,0.449l-2.5-0.149V160l0.8-0.25H41.65z"/>
	</g>
</g>
</svg>
