<?xml version="1.0" encoding="iso-8859-1"?>
<!-- Generator: Adobe Illustrator 16.0.0, SVG Export Plug-In . SVG Version: 6.00 Build 0)  -->
<!DOCTYPE svg PUBLIC "-//W3C//DTD SVG 1.1//EN" "http://www.w3.org/Graphics/SVG/1.1/DTD/svg11.dtd">
<svg version="1.1" id="Layer_1" xmlns="http://www.w3.org/2000/svg" xmlns:xlink="http://www.w3.org/1999/xlink" x="0px" y="0px"
	 width="133px" height="192px" viewBox="0 0 133 192" style="enable-background:new 0 0 133 192;" xml:space="preserve">
<symbol  id="bluetree_x5F_cluster_x5F_02" viewBox="0 -94.25 65.15 94.25">
	<g id="Layer_3_1_">
		<path style="fill-rule:evenodd;clip-rule:evenodd;fill:#2D3F42;" d="M65.15-23.3c-0.233-0.267-0.417-0.55-0.55-0.85
			c-0.033-0.133-0.05-0.267-0.05-0.4c0.067-0.267,0.1-0.55,0.1-0.85c0-0.067-0.033-0.133-0.1-0.2
			c-0.233-0.333-0.316-0.816-0.25-1.45c0.067-1.133-0.05-2.2-0.35-3.2c-0.034-0.167-0.034-0.367,0-0.6
			c0.033-0.267,0.066-0.55,0.1-0.85c0.067-0.566,0.067-1.117,0-1.65c0-0.2-0.066-0.4-0.2-0.6c-0.3-0.433-0.483-0.867-0.55-1.3
			c-0.066-0.7-0.117-1.4-0.15-2.1c-0.033-0.367-0.1-0.65-0.2-0.85c-0.067-0.133-0.117-0.25-0.15-0.35
			c-0.167-0.534-0.233-1.1-0.2-1.7c0.1-1,0.2-1.983,0.3-2.95c0.033-0.133,0.05-0.283,0.05-0.45c0.1-0.567-0.067-0.934-0.5-1.1
			c-0.067-0.033-0.133-0.067-0.2-0.1c-0.4-0.367-0.733-0.683-1-0.95c-0.067-0.1-0.083-0.217-0.05-0.35
			c0.066-0.267,0.1-0.533,0.1-0.8c0-0.167-0.066-0.3-0.2-0.4c-0.5-0.367-1.017-0.683-1.55-0.95c-0.1-0.034-0.167-0.1-0.2-0.2
			c-0.133-0.267-0.417-0.483-0.85-0.65c-0.133-0.067-0.233-0.167-0.3-0.3c-0.1-0.1-0.15-0.267-0.15-0.5
			c-0.066-0.433-0.05-0.8,0.05-1.1c-0.533-0.2-0.9-0.583-1.1-1.15c-0.1-0.3-0.05-0.5,0.15-0.6c0.033-0.034,0.05-0.117,0.05-0.25
			c-0.067-0.133-0.15-0.25-0.25-0.35c-0.233-0.167-0.3-0.467-0.2-0.9c0.167-0.767-0.1-1.267-0.8-1.5
			c-0.967-0.333-1.6-0.883-1.9-1.65c-0.267-0.633-0.883-0.95-1.85-0.95c-0.133,0-0.267-0.017-0.4-0.05
			c0.167-0.433,0.25-0.783,0.25-1.05c-0.433,0-0.883-0.167-1.35-0.5c-0.5-0.333-0.917-0.5-1.25-0.5c-0.934,0-1.8-0.167-2.6-0.5
			c-1.2-0.533-2.383-0.95-3.55-1.25V-62h-1.5c-0.1-0.133-0.216-0.3-0.35-0.5c-0.1-0.2-0.15-0.367-0.15-0.5
			c-0.1,0.167-0.167,0.283-0.2,0.35c-0.1,0.1-0.283,0.15-0.55,0.15c-1.9-0.533-2.983-0.867-3.25-1c0.167,0,0.25-0.083,0.25-0.25
			c0.1,0,0.233-0.033,0.4-0.1c0.164-0.098,0.281-0.148,0.35-0.15c-0.335,0-0.802-0.034-1.4-0.1c-0.6-0.1-0.967-0.15-1.1-0.15
			c-0.2,0-0.383,0.083-0.55,0.25s-0.35,0.25-0.55,0.25c-0.367,0-0.7-0.117-1-0.35L32.8-65c-0.133,0.233-0.216,0.383-0.25,0.45
			c-0.066,0.033-0.183,0.05-0.35,0.05c-0.667,0-1.217-0.25-1.65-0.75c0.067,0.567-0.3,1.017-1.1,1.35c-0.9,0.2-1.45,0.333-1.65,0.4
			c0-0.067-0.033-0.183-0.1-0.35c-0.1-0.167-0.15-0.3-0.15-0.4c-0.033,0.2-0.2,0.45-0.5,0.75c-0.3,0.333-0.55,0.5-0.75,0.5
			c-0.433,0-1.267-0.25-2.5-0.75c0,0.2-0.033,0.4-0.1,0.6c-0.1,0.2-0.15,0.333-0.15,0.4c-0.333,0-0.583-0.083-0.75-0.25v0.5
			c-0.5,0.167-0.917,0.25-1.25,0.25c0,0.1,0.05,0.267,0.15,0.5c0.066,0.267,0.1,0.433,0.1,0.5c-0.267-0.1-0.633,0-1.1,0.3
			c-0.567,0.3-0.9,0.45-1,0.45c-0.167,0-0.284-0.017-0.35-0.05c-0.2-0.1-0.383-0.333-0.55-0.7c-0.966,1.067-1.65,1.8-2.05,2.2
			c-0.7,0.7-1.6,1.05-2.7,1.05c-0.5,0-1.066,0.083-1.7,0.25c-0.567,0.167-1.083,0.25-1.55,0.25c0.333,0.333,0.5,0.583,0.5,0.75
			c-0.267,0.167-0.6,0.25-1,0.25l1,1.25H9.8c-0.433-0.433-0.75-0.717-0.95-0.85c-0.267-0.233-0.533-0.367-0.8-0.4
			c-0.233,0.3-0.433,0.75-0.6,1.35C7.283-54.583,7.233-54.2,7.3-54h-1v0.75c-0.167,0-0.367-0.033-0.6-0.1
			c-0.267-0.1-0.483-0.15-0.65-0.15c0.167,0.333,0.25,1,0.25,2c0.067,0,0.117,0,0.15,0C5.083-51,4.667-50.617,4.2-50.35
			c0.1,0.4,0.15,0.817,0.15,1.25c-0.2,0-0.383,0.033-0.55,0.1c-0.566,0.133-1.083,0.25-1.55,0.35c0,0.066,0,0.133,0,0.2
			c0,0.133,0.033,0.25,0.1,0.35c0.2,0.267,0.4,0.567,0.6,0.9c0.333,0.567,0.283,1.217-0.15,1.95c-0.066,0.1-0.133,0.2-0.2,0.3
			c-0.3,0.534-0.45,1.117-0.45,1.75c0,0.567,0.25,0.883,0.75,0.95c0.233,0.033,0.3,0.2,0.2,0.5c-0.067,0-0.133,0.017-0.2,0.05
			c-0.133,0.034-0.267,0.133-0.4,0.3c0.267,0.066,0.4,0.233,0.4,0.5c-0.133,0.066-0.3,0.167-0.5,0.3
			c0.233,0.233,0.217,0.434-0.05,0.6c-0.133,0.1-0.2,0.217-0.2,0.35c0.133,0.367,0.117,0.566-0.05,0.6
			c-0.567,0.1-0.917,0.4-1.05,0.9C1.017-38.017,0.967-37.9,0.9-37.8c-0.467,0.566-0.75,1.133-0.85,1.7c-0.066,0.167-0.066,0.3,0,0.4
			c0.167,0.167,0.4,0.417,0.7,0.75c0.467,0.434,0.833,0.967,1.1,1.6c0.1,0.2,0.167,0.417,0.2,0.65c0.067,0.567,0.284,1.05,0.65,1.45
			c-0.067,0-0.133,0-0.2,0c-0.133,0-0.25,0.033-0.35,0.1C2.05-31.083,1.933-31,1.8-30.9c-0.233,0.2-0.35,0.5-0.35,0.9
			c0,0.133-0.017,0.217-0.05,0.25C0.967-29.65,0.833-29.6,1-29.6c-0.033,0.367,0.1,0.684,0.4,0.95c0.3,0.233,0.333,0.433,0.1,0.6
			c-0.1,0.1-0.167,0.216-0.2,0.35c-0.033,0.767-0.033,1.534,0,2.3c0.034,0.066,0.034,0.15,0,0.25c0,0.367,0.083,0.65,0.25,0.85
			c0.034,0.3,0.067,0.483,0.1,0.55c-0.066-0.033-0.133-0.083-0.2-0.15c-0.333-0.333-0.75-0.467-1.25-0.4c0,0.2,0.017,0.4,0.05,0.6
			c0.033,0.133,0.05,0.267,0.05,0.4c0.067,0.233,0.117,0.433,0.15,0.6c0.1,0.233,0.183,0.467,0.25,0.7
			c0.3,0.867,0.833,1.483,1.6,1.85c0.4,0.167,0.8,0.3,1.2,0.4c0.167,0,0.267,0.033,0.3,0.1c0.167,0.233,0.35,0.433,0.55,0.6
			C4.583-18.883,4.7-18.7,4.7-18.5s-0.117,0.417-0.35,0.65c0.267,0.1,0.583,0.367,0.95,0.8c-0.233,0.333-0.183,0.617,0.15,0.85
			c0.533,0.333,0.45,0.567-0.25,0.7c0.133,0.133,0.367,0.233,0.7,0.3c0.7,0.133,0.967,0.534,0.8,1.2
			c-0.133,0.1-0.317,0.217-0.55,0.35c0.3,0,0.467,0.15,0.5,0.45c-0.066,0.034-0.133,0.067-0.2,0.1C5.783-12.967,5.3-12.667,5-12.2
			c0.233,0.3,0.517,0.517,0.85,0.65c0.433,0.133,0.85,0.3,1.25,0.5c0.267,0.133,0.55,0.233,0.85,0.3c0.033,0,0.083,0,0.15,0
			c0.066,0.033,0.117,0.067,0.15,0.1c0.233,0.1,0.267,0.217,0.1,0.35c0.1,0.4,0.133,0.816,0.1,1.25c-0.034,0.7,0.2,1.183,0.7,1.45
			C9.117-7.667,9.1-7.783,9.1-7.95c0-0.1-0.017-0.183-0.05-0.25C8.983-8.4,8.967-8.6,9-8.8c0.367,0.167,0.767,0.3,1.2,0.4
			c0.033,0,0.066,0.066,0.1,0.2c0.333,0.7,0.817,0.867,1.45,0.5c0.1-0.066,0.217-0.066,0.35,0c0.933,0.333,1.717,0.867,2.35,1.6
			c0.367,0.467,0.617,0.967,0.75,1.5c0.066,0.133,0.133,0.25,0.2,0.35c0.033,0.2,0.133,0.35,0.3,0.45c0.2-0.2,0.367-0.467,0.5-0.8
			c0.367,0.267,0.617,0.667,0.75,1.2c0.233-0.167,0.45-0.434,0.65-0.8c0.333,0.367,0.733,0.717,1.2,1.05
			c0.1,0.066,0.184,0.133,0.25,0.2c0.367,0.434,0.867,0.767,1.5,1c0.434,0.167,0.917,0.3,1.45,0.4c1.2,0.2,2.383,0.35,3.55,0.45
			c1.5,0.133,2.833,0.5,4,1.1c-0.1-0.6-0.017-1,0.25-1.2c0.1-0.033,0.217-0.05,0.35-0.05c0.434,0.067,0.867,0.15,1.3,0.25
			c0.133,0.033,0.233,0,0.3-0.1c0.167-0.167,0.367-0.333,0.6-0.5c0.1-0.133,0.233-0.217,0.4-0.25s0.35-0.033,0.55,0
			c0.167,0.033,0.3,0.083,0.4,0.15c0.4,0.3,0.816,0.434,1.25,0.4c0.566-0.034,1.083-0.217,1.55-0.55c0.4-0.3,0.933-0.533,1.6-0.7
			C39-2.817,39.917-3.1,40.85-3.4c0.167-0.033,0.3-0.1,0.4-0.2c0.3-0.167,0.633-0.3,1-0.4c0.333-0.1,0.7-0.167,1.1-0.2
			C43.983-4.267,44.2-3.917,44-3.15c0.233-0.2,0.367-0.55,0.4-1.05c0-0.066,0-0.133,0-0.2c0.4-0.033,0.7,0,0.9,0.1
			c0.133,0.066,0.25,0.083,0.35,0.05c0.167-0.033,0.317-0.1,0.45-0.2c0.6-0.433,1.367-0.85,2.3-1.25c0.267-0.1,0.533-0.233,0.8-0.4
			c1.7-1,3.316-2.333,4.85-4c0.167-0.2,0.3-0.4,0.4-0.6c0.1-0.133,0.2-0.25,0.3-0.35c0.367-0.434,0.817-0.733,1.35-0.9
			c0.033,0,0.033-0.083,0-0.25c-0.067-0.267,0.017-0.4,0.25-0.4c0.2,0,0.333-0.133,0.4-0.4c0.067-0.3,0.183-0.533,0.35-0.7
			c0.066-0.1,0.117-0.216,0.15-0.35c0.133-0.233,0.283-0.434,0.45-0.6c0.233-0.233,0.55-0.383,0.95-0.45l0.05-0.25
			c0.066-0.566,0.417-0.8,1.05-0.7c0.333-0.434,0.5-0.883,0.5-1.35c0-0.1,0.033-0.167,0.1-0.2c0.433-0.3,0.733-0.85,0.9-1.65
			c0.033-0.1,0.083-0.183,0.15-0.25c0.4-0.333,0.7-0.817,0.9-1.45c0.133-0.367,0.3-0.617,0.5-0.75c0.2-0.167,0.35-0.367,0.45-0.6
			C63.55-22.867,64.183-23.2,65.15-23.3z"/>
		<g>
			<path style="fill-rule:evenodd;clip-rule:evenodd;fill:#26211A;" d="M39.05-41.45l-0.15-0.1c0.033,0,0.083-0.017,0.15-0.05v0.05
				C39.05-41.517,39.05-41.483,39.05-41.45z M12.25-30.4c-0.033,0-0.05,0.017-0.05,0.05c-0.333,0.4-0.65,0.8-0.95,1.2l2.3-2.5
				c0.034-0.033,0.067-0.067,0.1-0.1C13.283-31.417,12.817-30.967,12.25-30.4z M47.45-24.1c0.033-0.066,0.066-0.117,0.1-0.15
				c0.1-0.267,0.083-0.717-0.05-1.35c-0.367-2.6-1.117-4.983-2.25-7.15S42.9-36.667,41.6-38c-0.8-0.8-1.533-1.45-2.2-1.95
				c0.1-0.533,0.184-1.066,0.25-1.6c0-0.034,0-0.067,0-0.1c0-0.167,0.017-0.333,0.05-0.5v-0.1c0.3-2,0.55-3.4,0.75-4.2
				c0.167,0.8,0.316,1.534,0.45,2.2c0,0.033,0,0.067,0,0.1c0.434,2.1,0.7,3.483,0.8,4.15c0,0.067,0.033,0.117,0.1,0.15
				c0.034,0,0.067,0,0.1,0c0.1,0,0.167-0.017,0.2-0.05c0-0.033,0-0.067,0-0.1c-0.033-1.433-0.167-2.85-0.4-4.25v-0.1
				c-0.233-1.5-0.483-3.017-0.75-4.55c-0.1-0.9-0.267-1.817-0.5-2.75c-0.067-0.267-0.467-1.5-1.2-3.7
				c-0.067-0.233-0.15-0.483-0.25-0.75c1.7,0.7,3.483,2.017,5.35,3.95c0.2,0.2,0.383,0.4,0.55,0.6c0,0.233,0,0.483,0,0.75
				c-0.133,1.1-0.2,2.033-0.2,2.8v0.05c0,0.2,0,0.383,0,0.55c0,0.033,0.05,0.066,0.15,0.1c0.033,0.033,0.066,0.05,0.1,0.05
				c0.033,0,0.083-0.017,0.15-0.05c0.033-0.034,0.066-0.067,0.1-0.1c0.033-0.167,0.066-0.35,0.1-0.55V-48c0.1-0.6,0.2-1.167,0.3-1.7
				c0.066-0.3,0.133-0.6,0.2-0.9c0.2,0.333,0.434,0.633,0.7,0.9c0.667,0.967,1.25,1.934,1.75,2.9c-0.8,0.633-1.333,1.4-1.6,2.3
				c-0.4,1.3-0.517,2.65-0.35,4.05c0.2,1.5,0.483,2.967,0.85,4.4c0.2,0.8,0.45,1.617,0.75,2.45c0.8,2.1,1.633,4.267,2.5,6.5
				c0.067-0.066,0.1-0.117,0.1-0.15c-0.9-1.8-1.733-4.7-2.5-8.7c0.533,0.133,1.15,0.284,1.85,0.45
				c2.133,0.533,3.683,1.217,4.65,2.05c0.033-0.066,0.05-0.133,0.05-0.2c-0.1-0.233-0.633-0.65-1.6-1.25
				c-1-0.567-1.733-0.917-2.2-1.05c-0.367-0.167-0.95-0.383-1.75-0.65c-0.4-0.167-0.8-0.3-1.2-0.4c-0.233-1.133-0.45-2.35-0.65-3.65
				c-0.2-1.767,0.3-3.567,1.5-5.4c0.2,0.566,0.417,1.15,0.65,1.75v0.1c0.034,0.067,0.067,0.133,0.1,0.2v0.1
				c0.1,0.033,0.184,0.033,0.25,0c0.067,0,0.1-0.033,0.1-0.1c0.067,0,0.1-0.033,0.1-0.1c0-0.066-0.033-0.133-0.1-0.2
				c-0.333-1.733-0.9-3.333-1.7-4.8c1.434,0.233,3.15,0.633,5.15,1.2c1.767,0.467,3.133,0.95,4.1,1.45c0-0.033,0-0.066,0-0.1
				c-0.8-0.567-2.25-1.184-4.35-1.85c-1.833-0.6-3.534-1-5.1-1.2c-0.5-0.933-1.117-1.833-1.85-2.7c-0.433-0.6-0.95-1.167-1.55-1.7
				c-2.3-2.2-3.9-3.383-4.8-3.55c-0.8-0.133-1.383-0.6-1.75-1.4c-0.367-0.8-1.15-1.966-2.35-3.5c0-0.133-0.017-0.283-0.05-0.45
				c-0.133-0.633-0.35-1.883-0.65-3.75c-0.333-1.867-0.567-5.317-0.7-10.35c-0.066-4.467,0.8-8.75,2.6-12.85
				c1.033-0.6,2.417-1.083,4.15-1.45c1.667-0.4,4.217-0.883,7.65-1.45c-1.933-0.233-4.083-0.267-6.45-0.1
				c-1.2-0.433-2.633-0.65-4.3-0.65c-0.933,0-1.816,0.133-2.65,0.4c-0.8,0.233-1.533,0.35-2.2,0.35c-0.9,0-1.55-0.117-1.95-0.35
				c-0.533-0.4-1.183-0.783-1.95-1.15H26.3V-94c0.9,0.267,1.95,0.883,3.15,1.85c-1.034,0.2-2.25,0.066-3.65-0.4
				c-1.867-0.633-3.15-0.95-3.85-0.95c-0.934,0-1.65,0.083-2.15,0.25h0.25c0.767,0.333,1.95,0.717,3.55,1.15
				c1.533,0.367,2.633,0.7,3.3,1c2,0.9,3.184,2.583,3.55,5.05c-0.5,2.233-0.75,4.583-0.75,7.05c0,1.2,0.233,3.2,0.7,6
				c0.434,2.767,0.7,4.95,0.8,6.55c0.1,1.467,0.15,3.617,0.15,6.45c-0.3,0.133-0.617,0.267-0.95,0.4
				c-2.833,1.267-5.183,2.467-7.05,3.6c-1.033,0.667-3.117,2.35-6.25,5.05c-1.867,1.633-3.517,3.267-4.95,4.9
				c0.7-0.534,1.95-1.45,3.75-2.75c1.434-1.034,2.667-1.917,3.7-2.65c0,0.434-0.35,1.684-1.05,3.75
				c-0.667,1.934-1.167,3.383-1.5,4.35c0.4-1.033,1.117-2.566,2.15-4.6c0.9-1.733,1.4-3.15,1.5-4.25c0.633-0.433,1.183-0.8,1.65-1.1
				c1.833-1.233,3.833-2.383,6-3.45c0.433-0.2,1.217-0.383,2.35-0.55c0.2-0.034,0.4-0.067,0.6-0.1c-0.033,2.133-0.167,3.55-0.4,4.25
				c-0.3,0.933-0.8,1.95-1.5,3.05c-0.7,1.1-1.117,1.9-1.25,2.4c-0.7,1.233-1.3,2.633-1.8,4.2c-0.1,0.233-0.2,0.517-0.3,0.85
				c-0.066,0.3-0.15,0.6-0.25,0.9c-1.133,0.367-2.267,0.833-3.4,1.4c-1.233,0.633-2.6,1.65-4.1,3.05h-0.1
				c-0.034,0.1-0.117,0.183-0.25,0.25c-1.1,1.033-2.717,2.883-4.85,5.55c-0.162,0.162-0.345,0.345-0.55,0.55
				c0.15-0.142,0.3-0.275,0.45-0.4c-0.133,0.167-0.267,0.333-0.4,0.5c0.367-0.367,0.8-0.783,1.3-1.25
				c0.033-0.1,0.083-0.183,0.15-0.25c1.867-1.7,3.284-3,4.25-3.9c0,0.1,0,0.2,0,0.3v0.05c0.067,0.566,0.083,1.066,0.05,1.5
				c0,0.1-0.017,0.2-0.05,0.3c0,0.067,0,0.133,0,0.2c-1.133,0.767-2.2,1.7-3.2,2.8c-0.033,0.033-0.083,0.083-0.15,0.15
				c-1.2,1.4-2.3,3.067-3.3,5c-0.433,0.833-0.8,1.617-1.1,2.35c0.333-0.633,0.733-1.35,1.2-2.15c1-1.8,2.067-3.3,3.2-4.5
				c0.3-0.3,0.6-0.583,0.9-0.85c0.733-0.667,1.5-1.2,2.3-1.6c-0.133,0.367-0.2,0.6-0.2,0.7c0,0.033,0,0.067,0,0.1
				c0.066,0.066-0.367,1.566-1.3,4.5c-0.967,2.967-1.033,3.3-0.2,1c0.8-2.333,1.367-3.917,1.7-4.75
				c0.333-0.833,0.55-1.517,0.65-2.05c0.034-0.066,0.05-0.133,0.05-0.2c0.066-0.2,0.1-0.417,0.1-0.65c0.066-0.133,0.1-0.25,0.1-0.35
				c0.1-0.8,0.15-1.533,0.15-2.2c0-0.133-0.017-0.25-0.05-0.35c1.1-0.9,2.2-1.65,3.3-2.25c1.1-0.566,2.15-1.05,3.15-1.45
				c-0.3,1.5-0.934,5.867-1.9,13.1l1.5-6c0.367-1.767,0.75-3.35,1.15-4.75c0.367,0.566,0.667,1.417,0.9,2.55
				c0.233,1.667,0.417,2.85,0.55,3.55c0,0.034,0.034,0.083,0.1,0.15H28c0.1,0,0.167-0.017,0.2-0.05c0.066-0.033,0.1-0.083,0.1-0.15
				v-0.05c0-1.833-0.1-3.25-0.3-4.25c-0.267-1.167-0.7-2.184-1.3-3.05c0.233-0.833,0.466-1.65,0.7-2.45
				c0.9-3.034,2.184-5.55,3.85-7.55c-0.033,0.3-0.067,0.583-0.1,0.85c-0.667,4.9-0.483,9.733,0.55,14.5c0,0.167,0.033,0.367,0.1,0.6
				c0.067,0.4,0,0.816-0.2,1.25c-0.434,1.467-0.934,2.833-1.5,4.1c-0.467,0.2-1.517,0.566-3.15,1.1c-2.467,0.867-4.7,1.767-6.7,2.7
				c-4.7,2.167-8.15,4.433-10.35,6.8c0.833-0.633,1.567-1.167,2.2-1.6c2.033-1.434,3.9-2.5,5.6-3.2
				c-0.067,0.533-0.284,1.133-0.65,1.8c-0.3,0.5-0.867,1.367-1.7,2.6c-0.267,0.434-0.667,1.117-1.2,2.05
				c-0.066,0.1-0.133,0.2-0.2,0.3c0.733-0.967,1.566-2.1,2.5-3.4c1.267-1.8,2.167-3.133,2.7-4c2.4-0.967,4.184-1.667,5.35-2.1
				c2.567-0.967,4.2-1.467,4.9-1.5c-0.267,0.533-0.566,1.067-0.9,1.6c-0.067,0.133-0.15,0.267-0.25,0.4
				c-0.867,1.4-1.817,2.617-2.85,3.65c-0.1,0.067-0.15,0.117-0.15,0.15c0,0.067,0.05,0.1,0.15,0.1c0.033,0.067,0.067,0.1,0.1,0.1
				c0.067,0,0.117-0.033,0.15-0.1c1.367-1.1,2.5-2.15,3.4-3.15c0.333,0.3,0.667,0.75,1,1.35c0.3,0.7,0.45,1.217,0.45,1.55
				l-0.05,0.95c-0.633,0.267-1.65,0.983-3.05,2.15c-1.6,1.3-2.75,2.533-3.45,3.7c1.1-1.067,1.95-1.85,2.55-2.35
				c1.033-0.934,2.2-1.65,3.5-2.15c-0.133,0.5-0.2,1.05-0.2,1.65c0,0.267-0.05,0.7-0.15,1.3c-0.1,0.467-0.2,0.817-0.3,1.05
				c0.1-0.034,0.167-0.05,0.2-0.05c0.067-0.2,0.15-0.417,0.25-0.65c0.767-1.867,1.15-3.317,1.15-4.35c0-0.133,0-0.267,0-0.4
				c-0.034-1.233-0.2-2.333-0.5-3.3c-0.167-0.7-0.267-1.267-0.3-1.7c0.533-0.667,0.934-1.317,1.2-1.95c0.867-1.7,1.5-3.183,1.9-4.45
				c1.1,1.2,2.067,2.066,2.9,2.6c-0.2,1.133-0.4,2.233-0.6,3.3c-0.7,4.233-1.05,7.35-1.05,9.35c0.2-0.1,0.4-0.167,0.6-0.2
				c0.1-1.133,0.15-2.467,0.15-4c0.1-1.433,0.467-2.65,1.1-3.65c0.8,0.067,1.816,0.683,3.05,1.85c0.4,0.4,0.733,0.767,1,1.1
				c-0.333-0.667-0.7-1.217-1.1-1.65c-0.633-0.767-1.617-1.566-2.95-2.4L36.2-25.3v-0.75c0.267-0.733,0.617-1.567,1.05-2.5
				c0.067,0,0.167,0.017,0.3,0.05c0.067,0,0.117-0.017,0.15-0.05c0.066-0.034,0.1-0.083,0.1-0.15c0.034-0.033,0.034-0.066,0-0.1
				c-0.066-0.034-0.117-0.067-0.15-0.1c-0.066-0.033-0.133-0.067-0.2-0.1c-0.333-0.233-0.7-0.567-1.1-1
				c-0.3-0.4-0.65-0.917-1.05-1.55c-0.566-0.934-0.95-1.684-1.15-2.25c-0.1-0.2-0.167-0.383-0.2-0.55c0-0.033-0.017-0.083-0.05-0.15
				h0.05c-1.267-5.867-1.233-11.8,0.1-17.8c0.4-1.934,0.717-3.9,0.95-5.9c0.1-0.933,0.183-1.867,0.25-2.8
				c1.867,2.567,3.4,6.3,4.6,11.2c0.1,0.433,0.183,0.816,0.25,1.15c0,0.066,0,0.117,0,0.15c-0.4,0.9-0.8,2.933-1.2,6.1
				c-0.633,0.167-1.483,0.7-2.55,1.6l0.1-0.05v0.05c-0.067,0-0.133,0.017-0.2,0.05H36.2c0,0.033-0.017,0.05-0.05,0.05
				c-0.867,0.733-1.483,1.317-1.85,1.75c-0.066,0.034-0.1,0.083-0.1,0.15c0,0.066,0.05,0.117,0.15,0.15c0.033,0,0.083,0,0.15,0
				s0.117-0.017,0.15-0.05c0.3-0.3,0.7-0.683,1.2-1.15c0.2-0.133,0.417-0.3,0.65-0.5c0.033,0,0.067,0,0.1,0
				c0.933-0.6,1.667-0.983,2.2-1.15c0,0.067,0,0.133,0,0.2c0.067-0.034,0.133-0.05,0.2-0.05c-0.033,0.4-0.067,0.767-0.1,1.1
				c0,0.333-0.033,0.667-0.1,1c0,0.233,0,0.45,0,0.65c-0.133,0.967-0.25,2.017-0.35,3.15c0,0.067,0,0.117,0,0.15
				c0.066,0.033,0.133,0.05,0.2,0.05c0.067,0,0.117-0.017,0.15-0.05c0.067-0.034,0.1-0.067,0.1-0.1v-0.05
				c0.1-1.267,0.233-2.433,0.4-3.5c1.2,0.833,2.684,2.667,4.45,5.5l0.05,0.05c-0.466,0.667-0.9,1.683-1.3,3.05
				c-0.4,1.567-0.6,2.95-0.6,4.15c0,0.333,0.067,0.867,0.2,1.6c0.133,0.833,0.267,1.434,0.4,1.8c0-0.333-0.017-0.883-0.05-1.65
				c-0.1-0.767-0.15-1.367-0.15-1.8c0-0.8,0.017-1.283,0.05-1.45c0.066-0.2,0.333-0.8,0.8-1.8c0.133-0.333,0.383-0.8,0.75-1.4
				c0.3-0.434,0.533-0.783,0.7-1.05C46.167-29.117,47.117-26.5,47.45-24.1z"/>
		</g>
	</g>
</symbol>
<g>
	<g>
		<path style="fill-rule:evenodd;clip-rule:evenodd;fill-opacity:0.2;" d="M53.9,188.725c0.802,0.028,1.835,0.104,3.1,0.226
			c2.067,0,3.767-0.434,5.1-1.3c1.3-0.867,2.717-1.301,4.25-1.301c1.334,0,3.517,0.233,6.551,0.7c3.033,0.434,5,0.65,5.899,0.65
			c1.267,0,2.634-0.184,4.101-0.55c1.466-0.367,2.566-0.551,3.3-0.551c0.429,0,2.204-0.058,5.325-0.175
			c3.129-0.116,4.962-0.133,5.5-0.05c0.425,0.066,0.933,0.024,1.524-0.125c0.094-0.033,0.193-0.066,0.3-0.1v0.199l-9.6,0.75
			c-2.634,0.2-4.217,0.4-4.75,0.601c-0.934,0.399-1.583,0.666-1.95,0.8c-0.566,0.233-1.35,0.35-2.35,0.35
			c-1.601,0-3.634-0.25-6.101-0.75c-2.466-0.5-4.483-0.75-6.05-0.75c-1.467,0-3.283,0.301-5.45,0.9
			c-2.133,0.566-3.85,0.85-5.15,0.85C55.527,189.1,54.344,188.975,53.9,188.725z M57.575,186.45H56.1
			c-6.867,1.166-10.533,1.75-11,1.75c-0.434,0-1.583-0.184-3.45-0.55L38.6,187.1l0.15-0.149c0.433-0.167,0.7-0.25,0.8-0.25
			c0.035,0,0.068,0,0.1,0c-0.149,0.113-0.249,0.247-0.3,0.399c0.467,0.067,1.35,0.167,2.65,0.301c1.3,0.133,2.067,0.199,2.3,0.199
			c1.4,0,4.15-0.566,8.25-1.699c3.046-0.826,5.363-1.143,6.95-0.95C59.027,185.517,58.386,186.017,57.575,186.45z"/>
		<path style="fill-rule:evenodd;clip-rule:evenodd;fill-opacity:0.451;" d="M98.85,186.15c-0.106,0.033-0.206,0.066-0.3,0.1
			c-0.592,0.149-1.1,0.191-1.524,0.125c-0.538-0.083-2.371-0.066-5.5,0.05c-3.121,0.117-4.896,0.175-5.325,0.175
			c-0.733,0-1.834,0.184-3.3,0.551c-1.467,0.366-2.834,0.55-4.101,0.55c-0.899,0-2.866-0.217-5.899-0.65
			c-3.034-0.467-5.217-0.7-6.551-0.7c-1.533,0-2.95,0.434-4.25,1.301c-1.333,0.866-3.033,1.3-5.1,1.3
			c-1.265-0.122-2.298-0.197-3.1-0.226c-0.299-0.017-0.566-0.024-0.8-0.024v-0.351c0.2-0.1,1.333-0.566,3.4-1.399
			c0.388-0.155,0.747-0.322,1.075-0.5c0.811-0.434,1.452-0.934,1.925-1.5c-1.587-0.192-3.904,0.124-6.95,0.95
			c-4.1,1.133-6.85,1.699-8.25,1.699c-0.233,0-1-0.066-2.3-0.199c-1.3-0.134-2.183-0.233-2.65-0.301
			c0.051-0.152,0.151-0.286,0.3-0.399c0.026-0.019,0.051-0.035,0.075-0.05c0.325-0.188,0.833-0.287,1.525-0.301
			c0.069,0.061,0.244,0.069,0.525,0.025c1.213-0.19,4.854-1.007,10.925-2.45c6.069-1.442,10.036-1.684,11.9-0.725
			c0.085,0,0.168,0,0.25,0c-0.05-0.001-0.1-0.018-0.15-0.05c0.377-0.068,1.727-0.019,4.05,0.149c0.934,0.033,3.967,0.25,9.1,0.65
			c3.233,0.233,6.784,0.483,10.65,0.75c2.1,0.2,4.333,0.383,6.7,0.55c1.467,0.167,2.733,0.45,3.8,0.85
			C98.949,186.117,98.899,186.134,98.85,186.15z"/>
	</g>
</g>
<use xlink:href="#bluetree_x5F_cluster_x5F_02"  width="65.15" height="94.25" y="-94.25" transform="matrix(2 0 0 -2 0.8999 0)" style="overflow:visible;"/>
</svg>
