<?xml version="1.0" encoding="iso-8859-1"?>
<!-- Generator: Adobe Illustrator 16.0.0, SVG Export Plug-In . SVG Version: 6.00 Build 0)  -->
<!DOCTYPE svg PUBLIC "-//W3C//DTD SVG 1.1//EN" "http://www.w3.org/Graphics/SVG/1.1/DTD/svg11.dtd">
<svg version="1.1" id="Layer_1" xmlns="http://www.w3.org/2000/svg" xmlns:xlink="http://www.w3.org/1999/xlink" x="0px" y="0px"
	 width="166px" height="330px" viewBox="0 0 166 330" style="enable-background:new 0 0 166 330;" xml:space="preserve">
<symbol  id="red_x5F_tree_x5F_02" viewBox="0.007 -163.5 81.493 163.5">
	<g id="Layer_3_1_">
		<g>
			<g>
				<path style="fill-rule:evenodd;clip-rule:evenodd;fill:#39020E;" d="M74.8-65.65c-0.233-0.033-0.466-0.067-0.7-0.1
					c-0.533-0.067-1.017,0.017-1.45,0.25c-0.066,0.033-0.133,0.05-0.2,0.05c-0.8-0.1-1.184,0.2-1.15,0.9
					c-0.033-0.067-0.05-0.117-0.05-0.15c-0.4-0.566-0.767-0.966-1.1-1.2c-0.033-0.1-0.066-0.184-0.1-0.25
					C69.983-66.75,69.633-67,69-66.9c-0.133,0-0.2,0.017-0.2,0.05c-0.1,0.434-0.216,0.55-0.35,0.35
					c-0.133-0.233-0.217-0.483-0.25-0.75c-0.034-0.367-0.217-0.733-0.55-1.1c-0.167-0.133-0.35-0.2-0.55-0.2
					c-0.833,0-1.417-0.184-1.75-0.55c-0.1-0.1-0.167-0.2-0.2-0.3c-0.267-0.5-0.6-0.95-1-1.35c-0.633-0.567-1.35-0.9-2.15-1
					c-0.133-0.033-0.25-0.033-0.35,0c-0.467,0.233-0.8,0.083-1-0.45c-0.267-0.5-0.7-0.783-1.3-0.85c-0.467-0.067-0.917-0.067-1.35,0
					c-0.133,0-0.267,0.017-0.4,0.05c-0.3,0.067-0.517,0-0.65-0.2c-0.167-0.267-0.45-0.5-0.85-0.7c-0.067,0.066-0.1,0.133-0.1,0.2
					c-0.133,0.4-0.35,0.65-0.65,0.75c-0.067-0.133-0.133-0.267-0.2-0.4c-0.033-0.066-0.066-0.117-0.1-0.15
					c-0.1-0.5-0.383-0.567-0.85-0.2c0-0.2-0.034-0.383-0.1-0.55C54-74.617,54-75,54.1-75.4c0.1-0.767-0.1-1.35-0.6-1.75
					c-0.533-0.4-1.117-0.617-1.75-0.65c-0.067,0-0.133-0.017-0.2-0.05c-0.5-0.267-1.066-0.6-1.7-1c-0.467-0.3-1.017-0.4-1.65-0.3
					c-0.833-0.567-1.867-0.75-3.1-0.55c-0.133,0-0.233,0.05-0.3,0.15c-0.2,0.2-0.417,0.316-0.65,0.35c-0.467,0-0.9,0.017-1.3,0.05
					c-0.367,0-0.617,0.117-0.75,0.35c-0.067,0.1-0.15,0.167-0.25,0.2c-0.767,0.133-1.3,0.417-1.6,0.85c0.067-0.4,0.067-0.817,0-1.25
					c-0.067-0.733-0.5-1.033-1.3-0.9c-0.1-0.067-0.167-0.15-0.2-0.25c-0.067-0.2-0.15-0.4-0.25-0.6c-0.2-0.467-0.533-0.617-1-0.45
					c-0.067,0-0.133,0-0.2,0c-0.133,0.034-0.233,0.034-0.3,0c-0.467-0.433-0.983-0.816-1.55-1.15c-0.333-0.2-0.684-0.4-1.05-0.6
					c-0.633-0.4-1.3-0.75-2-1.05c-0.4-0.067-0.8-0.067-1.2,0l-0.35,0.05c-1,0.4-2.184,0.534-3.55,0.4c-0.133,0-0.233,0.017-0.3,0.05
					c-0.567,0.267-1.05,0.467-1.45,0.6c-0.1,0.033-0.15,0.066-0.15,0.1c-0.1,0.267-0.267,0.383-0.5,0.35
					c-0.267,0-0.566-0.017-0.9-0.05c-0.533-0.067-1,0-1.4,0.2c-0.133,0.033-0.233,0.066-0.3,0.1c-0.433,0.2-0.917,0.267-1.45,0.2
					c-0.733-0.1-1.25,0.017-1.55,0.35c0.3,0.233,0.7,0.433,1.2,0.6c0.067,0,0.117,0,0.15,0c0.3,0,0.467,0.1,0.5,0.3
					c-0.367,0.2-0.867,0.317-1.5,0.35c-0.033,0-0.083,0-0.15,0c-0.267,0-0.517-0.017-0.75-0.05c0.1,0.367,0.067,0.684-0.1,0.95
					c-0.033,0.067-0.05,0.133-0.05,0.2c-0.033,0.066-0.067,0.15-0.1,0.25c-0.033,0.066-0.15,0.133-0.35,0.2
					c-0.867,0.167-1.5,0.633-1.9,1.4c-0.167,0.267-0.5,0.367-1,0.3c-0.433,0-0.833,0.083-1.2,0.25
					c-0.267,0.167-0.45,0.316-0.55,0.45c-0.4,0.633-0.833,1.1-1.3,1.4c-0.034,0.066-0.083,0.133-0.15,0.2
					c-0.1,0.2-0.216,0.3-0.35,0.3c-0.2,0-0.367,0.033-0.5,0.1c-0.1,0-0.217,0.034-0.35,0.1c-0.2,0.833-0.55,1.55-1.05,2.15
					c-0.2,0.267-0.316,0.567-0.35,0.9c-0.034,0.033-0.05,0.083-0.05,0.15c-0.066,0.467-0.3,0.883-0.7,1.25
					c-0.2,0.133-0.367,0.267-0.5,0.4c-0.1,0.167-0.217,0.3-0.35,0.4c-0.1,0.1-0.167,0.2-0.2,0.3c-0.033,0.1-0.033,0.2,0,0.3
					c0.067,0.1,0.1,0.2,0.1,0.3c0.1,0,0.2,0,0.3,0c0.833,0,1.534-0.2,2.1-0.6c0.3-0.167,0.567-0.267,0.8-0.3
					c0.5-0.1,0.683,0.133,0.55,0.7c0.467-0.367,0.983-0.733,1.55-1.1c0.3-0.233,0.567-0.483,0.8-0.75c0.433-0.4,0.983-0.6,1.65-0.6
					h0.15c0.067,0.4,0.2,0.65,0.4,0.75c0.233-0.2,0.483-0.3,0.75-0.3c0.7-0.1,1.4-0.217,2.1-0.35c0.2,0.033,0.4,0.1,0.6,0.2
					c0.3,0.167,0.6,0.316,0.9,0.45c0.333,0.167,0.633,0.383,0.9,0.65c0.1,0.133,0.184,0.3,0.25,0.5c0.067,0.1,0.133,0.233,0.2,0.4
					c0.233,0.1,0.3,0.35,0.2,0.75c0,0.1,0,0.216,0,0.35c0.3-0.233,0.667-0.383,1.1-0.45c0.2,0,0.284,0.15,0.25,0.45
					c-0.033,0.133-0.05,0.267-0.05,0.4c0.167-0.2,0.333-0.483,0.5-0.85c0.067-0.2,0.217-0.317,0.45-0.35
					c0.1-0.067,0.15-0.117,0.15-0.15c0.333-0.533,0.75-1.017,1.25-1.45c0.066-0.033,0.183-0.033,0.35,0c0.1,0,0.216,0.017,0.35,0.05
					c0.233,0.033,0.4-0.034,0.5-0.2c0.034-0.167,0.1-0.267,0.2-0.3c0.3-0.2,0.55-0.184,0.75,0.05c0.1,0.1,0.2,0.183,0.3,0.25
					c0.1,0.067,0.2,0.067,0.3,0c0.4-0.167,0.85-0.167,1.35,0c0.133,0.3,0.2,0.583,0.2,0.85c0.533-0.434,1.15-0.467,1.85-0.1
					c0.167,0.067,0.3,0.167,0.4,0.3c0.4,0.4,0.983,0.55,1.75,0.45c0.1,0,0.2,0.05,0.3,0.15c0.033,0.1,0.05,0.2,0.05,0.3
					c0,0.7-0.233,1.283-0.7,1.75c-0.066,0.1-0.117,0.233-0.15,0.4c-0.066,0.167-0.1,0.35-0.1,0.55c0,0.2-0.033,0.367-0.1,0.5
					c0.1-0.033,0.2-0.05,0.3-0.05c0.067,0,0.133,0.017,0.2,0.05c0.233,0.033,0.417-0.017,0.55-0.15c0.267-0.4,0.717-0.6,1.35-0.6
					c0.433,0.033,0.717-0.083,0.85-0.35c0.167-0.267,0.45-0.383,0.85-0.35c0.4,0.1,0.784,0.233,1.15,0.4
					c0.066,0.033,0.133,0.066,0.2,0.1c0.2,0.066,0.3-0.05,0.3-0.35c0.433-0.1,0.8-0.05,1.1,0.15c0.067,0.067,0.167,0.1,0.3,0.1
					c0.066,0.033,0.133,0.066,0.2,0.1c0.2,0.033,0.333-0.083,0.4-0.35c0.1-0.267,0.35-0.367,0.75-0.3c0.267,0,0.517,0.083,0.75,0.25
					c0.2,0.1,0.383,0.2,0.55,0.3c0.233,0.1,0.55,0.2,0.95,0.3c0.167,0,0.316-0.1,0.45-0.3c0.167-0.2,0.4-0.283,0.7-0.25
					c0.267,0.066,0.517,0.2,0.75,0.4c0.2-0.033,0.3-0.217,0.3-0.55c0-0.133,0.033-0.25,0.1-0.35c0.2-0.2,0.5-0.283,0.9-0.25
					c0.733,0,1.434,0.033,2.1,0.1c0.2,0,0.4-0.034,0.6-0.1c1.1-0.367,2.183-0.184,3.25,0.55c0.566,0.4,1.083,0.7,1.55,0.9
					c0.233,0.133,0.383,0.133,0.45,0c0.033-0.066,0.117-0.117,0.25-0.15c0.833-0.233,1.483,0.083,1.95,0.95
					c0.034,0.066,0.083,0.1,0.15,0.1c0.066,0,0.117,0,0.15,0c0.3-0.233,0.75-0.333,1.35-0.3c0.433,0,0.816,0.083,1.15,0.25
					c0.467,0.233,0.85,0.6,1.15,1.1c0.1,0.167,0.2,0.317,0.3,0.45c0.1,0.167,0.167,0.35,0.2,0.55c0.067,0.267,0.267,0.417,0.6,0.45
					c0.133,0,0.25,0.05,0.35,0.15c0.167,0.167,0.3,0.367,0.4,0.6c0.066,0.3,0.083,0.65,0.05,1.05c-0.066,0.733-0.333,1.25-0.8,1.55
					c0.167,0.233,0.483,0.333,0.95,0.3c0.133-0.033,0.267-0.017,0.4,0.05c0.5,0.167,0.75,0.5,0.75,1c0,0.1,0,0.217,0,0.35
					c0.267-0.233,0.6-0.467,1-0.7c0.1-0.033,0.216-0.05,0.35-0.05c0.434,0,0.867,0.017,1.3,0.05c0.133,0,0.267-0.017,0.4-0.05
					c0.233-0.2,0.583-0.283,1.05-0.25c0.267,0.2,0.467,0.533,0.6,1c0.033,0.133,0.067,0.25,0.1,0.35c0.1,0.167,0.133,0.433,0.1,0.8
					c-0.067,0.367-0.017,0.7,0.15,1c0.033,0.1,0.083,0.15,0.15,0.15c0.3,0.2,0.5,0.5,0.6,0.9c0,0.133,0.017,0.267,0.05,0.4
					c0.034,0.2,0.083,0.367,0.15,0.5c0.133,0.167,0.167,0.383,0.1,0.65c-0.1,0.267-0.05,0.383,0.15,0.35c0.2,0,0.283,0.133,0.25,0.4
					c-0.034,0.133-0.017,0.25,0.05,0.35c0.1,0.167,0.15,0.433,0.15,0.8c0.067,0.133,0.067,0.25,0,0.35c0,0.433,0.2,0.7,0.6,0.8
					c0.1,0.534,0.25,1.034,0.45,1.5c0,0.133,0.033,0.2,0.1,0.2c0.3,0.1,0.45,0.283,0.45,0.55c0.033,0.9,0.033,1.784,0,2.65
					c0,0.066-0.017,0.133-0.05,0.2c-0.133,0.767-0.217,1.517-0.25,2.25c0,0.667-0.034,1.3-0.1,1.9c0,0.2-0.067,0.383-0.2,0.55
					c-0.267,0.267-0.35,0.6-0.25,1c0.167,0.533,0.217,1.1,0.15,1.7c0,0.133-0.017,0.233-0.05,0.3c-0.267,0.2-0.367,0.55-0.3,1.05
					c0,0.133,0.017,0.233,0.05,0.3c0.167,0.2,0.217,0.533,0.15,1c-0.1,0.7-0.066,1.35,0.1,1.95c0.233,1,0.3,2.067,0.2,3.2
					c0,0.1,0.033,0.183,0.1,0.25c0.4,0.3,0.367,0.65-0.1,1.05c-0.534,0.4-0.8,0.983-0.8,1.75c0,0.1-0.033,0.217-0.1,0.35
					c-0.167,0.433-0.55,0.617-1.15,0.55c0.267,0.067,0.4,0.267,0.4,0.6c-0.066,1.067-0.4,2.083-1,3.05
					c-0.3,0.466-0.517,0.983-0.65,1.55c-0.167,0.533-0.35,1.067-0.55,1.6c-0.067,0.233-0.133,0.45-0.2,0.65
					c-0.066,0.133-0.117,0.2-0.15,0.2c-0.167,0.1-0.217,0.283-0.15,0.55c0.033,0.3,0.066,0.617,0.1,0.95
					c0.1,0.6-0.117,0.85-0.65,0.75c-0.466-0.1-0.783-0.034-0.95,0.2c0.133,0.133,0.267,0.2,0.4,0.2c0.4,0,0.65,0.183,0.75,0.55
					c-0.7,0-1.4,0-2.1,0c-0.633,0-1.267-0.033-1.9-0.1c-0.467-0.033-0.733,0.067-0.8,0.3c0.1,0.1,0.2,0.183,0.3,0.25
					c0.167,0.133,0.217,0.367,0.15,0.7c-0.133,0-0.267-0.017-0.4-0.05c-1-0.133-1.5,0.2-1.5,1c0,0.1-0.033,0.2-0.1,0.3
					c-0.133,0.2-0.433,0.3-0.9,0.3c-0.333,0-0.517,0.183-0.55,0.55c0,0.1-0.017,0.2-0.05,0.3c-0.1,0.267-0.283,0.383-0.55,0.35
					c-0.3-0.033-0.55,0-0.75,0.1c-0.033,0.033-0.083,0.083-0.15,0.15c0.066,0.167,0.15,0.3,0.25,0.4c0.133,0.2,0.233,0.4,0.3,0.6
					c0,0.2-0.033,0.35-0.1,0.45h0.45v0.35c0.367,0.066,0.717,0.117,1.05,0.15c0.1,0,0.2,0.033,0.3,0.1
					c0.333,0.066,0.517,0.017,0.55-0.15c-0.4-0.167-0.75-0.45-1.05-0.85c-0.1-0.133-0.15-0.3-0.15-0.5c0-0.267,0.167-0.45,0.5-0.55
					c0.333-0.033,0.55-0.15,0.65-0.35c0.233-0.4,0.55-0.817,0.95-1.25c0.067-0.1,0.15-0.2,0.25-0.3c0.3-0.2,0.633-0.383,1-0.55
					c0.133,0.133,0.3,0.267,0.5,0.4c0-0.133,0.017-0.333,0.05-0.6v-0.05l0.2,0.05c0.967-0.2,1.983-0.4,3.05-0.6
					c1.3-0.167,2.517-0.583,3.65-1.25c0.066-0.033,0.117-0.1,0.15-0.2c0.1-0.6-0.017-1.1-0.35-1.5c-0.1-0.167-0.133-0.35-0.1-0.55
					c0.367,0.1,0.75,0.133,1.15,0.1c0.3-0.033,0.45-0.233,0.45-0.6c0-0.3,0.05-0.55,0.15-0.75c0.067-0.066,0.1-0.167,0.1-0.3
					c0.033-0.467,0.383-0.667,1.05-0.6c0.167,0,0.35-0.017,0.55-0.05c0.133,0,0.283,0,0.45,0c0.633-0.1,1.083-0.417,1.35-0.95
					c0-0.066,0.034-0.117,0.1-0.15c0.033-0.067,0.083-0.15,0.15-0.25c0-0.067,0.017-0.133,0.05-0.2
					c0.066-0.533,0.217-1.017,0.45-1.45c0.167-0.4,0.317-0.867,0.45-1.4c0.1-0.633,0.233-1.25,0.4-1.85c0.1-0.267,0.167-0.5,0.2-0.7
					c0.2-0.967,0.667-1.816,1.4-2.55c0.133-0.167,0.25-0.333,0.35-0.5c0.667-0.934,1.316-1.833,1.95-2.7c-0.7-0.1-1.367-0.15-2-0.15
					c-0.033,0-0.083-0.017-0.15-0.05c-0.2-0.067-0.3-0.25-0.3-0.55c0.033-0.267,0.117-0.3,0.25-0.1c0.066,0.067,0.15,0.1,0.25,0.1
					c0-0.033,0-0.066,0-0.1c0-1.066,0.033-2.117,0.1-3.15c0-0.033,0-0.1,0-0.2c0.333-0.434,0.75-0.7,1.25-0.8
					c0-0.3-0.083-0.6-0.25-0.9c-0.067-0.1-0.117-0.183-0.15-0.25c-0.033-0.1-0.066-0.167-0.1-0.2c-0.067-0.133-0.1-0.25-0.1-0.35
					c0-0.034,0-0.067,0-0.1c-0.067-0.067-0.033-0.133,0.1-0.2c0.533-0.233,1.05-0.25,1.55-0.05c-0.367-0.567-0.7-1.15-1-1.75
					c-0.033-0.1-0.05-0.2-0.05-0.3l0.05-0.15c0.033-0.3,0.017-0.6-0.05-0.9c0-0.167-0.017-0.317-0.05-0.45
					c-0.066-0.167-0.1-0.333-0.1-0.5c-0.1-0.633-0.25-1.267-0.45-1.9c-0.133-0.467-0.217-0.967-0.25-1.5c0-0.2,0-0.433,0-0.7
					c0.367,0.133,0.65,0.216,0.85,0.25c0.4-0.4,0.4-0.767,0-1.1c-0.034-0.033-0.083-0.083-0.15-0.15
					c-0.066-0.067-0.133-0.117-0.2-0.15c0.066-0.2,0.117-0.417,0.15-0.65c0.133-0.6,0.1-1.066-0.1-1.4c-0.033-0.1-0.066-0.2-0.1-0.3
					c-0.233-0.5-0.466-0.983-0.7-1.45c-0.067-0.067-0.067-0.117,0-0.15c0.066-0.1,0.15-0.15,0.25-0.15
					c0.066-0.034,0.15-0.067,0.25-0.1c0.066-0.033,0.117-0.067,0.15-0.1c0.067-0.067,0.083-0.15,0.05-0.25
					c-0.033-0.167-0.083-0.3-0.15-0.4c-0.033-0.033-0.083-0.05-0.15-0.05c-0.367-0.267-0.383-0.45-0.05-0.55
					c0.066-0.033,0.1-0.117,0.1-0.25c0-0.3-0.183-0.517-0.55-0.65c-0.333-0.133-0.65-0.317-0.95-0.55
					c-0.1-0.033-0.15-0.083-0.15-0.15c-0.033-0.6-0.033-1.2,0-1.8c0-0.067,0.033-0.15,0.1-0.25c0.133-0.2,0.3-0.4,0.5-0.6
					c0.133-0.067,0.25-0.133,0.35-0.2c-0.233-0.033-0.434-0.117-0.6-0.25c-0.2-0.133-0.367-0.316-0.5-0.55
					c-0.1-0.2-0.233-0.383-0.4-0.55c-0.1-0.133-0.167-0.25-0.2-0.35c-0.2-0.5-0.533-0.934-1-1.3c-0.3-0.233-0.55-0.583-0.75-1.05
					c-0.033-0.067-0.066-0.1-0.1-0.1c-0.066,0-0.117-0.017-0.15-0.05c0.167-0.033,0.2-0.2,0.1-0.5c-0.033-0.1-0.067-0.167-0.1-0.2
					c-0.3-0.433-0.583-0.783-0.85-1.05c-0.133-0.2-0.183-0.417-0.15-0.65c0.033-0.067,0.067-0.1,0.1-0.1
					c0.533-0.1,0.633-0.4,0.3-0.9C74.8-65.583,74.8-65.617,74.8-65.65z M58.45-10c0.033,0.033,0.083,0.1,0.15,0.2h-0.15V-10z
					 M75.4-62.15c-0.033,0-0.1,0-0.2,0c0-0.067,0.033-0.167,0.1-0.3C75.267-62.317,75.3-62.217,75.4-62.15z"/>
				<path style="fill-rule:evenodd;clip-rule:evenodd;fill:#4C0716;" d="M58.65-8.5c0.067-0.1,0.1-0.25,0.1-0.45
					c-0.067-0.2-0.167-0.4-0.3-0.6c-0.1-0.1-0.184-0.233-0.25-0.4c0.066-0.066,0.117-0.117,0.15-0.15c0.2-0.1,0.45-0.133,0.75-0.1
					c0.267,0.034,0.45-0.083,0.55-0.35c0.033-0.1,0.05-0.2,0.05-0.3c0.033-0.367,0.216-0.55,0.55-0.55c0.467,0,0.767-0.1,0.9-0.3
					c0.067-0.1,0.1-0.2,0.1-0.3c0-0.8,0.5-1.133,1.5-1c0.133,0.033,0.267,0.05,0.4,0.05c0.067-0.333,0.017-0.566-0.15-0.7
					c-0.1-0.067-0.2-0.15-0.3-0.25c0.066-0.233,0.333-0.333,0.8-0.3c0.633,0.067,1.267,0.1,1.9,0.1c0.7,0,1.4,0,2.1,0
					c-0.1-0.367-0.35-0.55-0.75-0.55c-0.133,0-0.267-0.067-0.4-0.2c0.167-0.233,0.483-0.3,0.95-0.2c0.534,0.1,0.75-0.15,0.65-0.75
					c-0.034-0.333-0.067-0.65-0.1-0.95c-0.067-0.267-0.017-0.45,0.15-0.55c0.033,0,0.083-0.067,0.15-0.2
					c0.067-0.2,0.133-0.417,0.2-0.65c0.2-0.533,0.383-1.067,0.55-1.6c0.133-0.567,0.35-1.083,0.65-1.55
					c0.6-0.967,0.934-1.983,1-3.05c0-0.333-0.133-0.533-0.4-0.6c0.6,0.067,0.983-0.117,1.15-0.55c0.067-0.133,0.1-0.25,0.1-0.35
					c0-0.767,0.267-1.35,0.8-1.75c0.466-0.4,0.5-0.75,0.1-1.05c-0.066-0.067-0.1-0.15-0.1-0.25c0.1-1.133,0.033-2.2-0.2-3.2
					c-0.167-0.6-0.2-1.25-0.1-1.95c0.067-0.467,0.017-0.8-0.15-1c-0.033-0.067-0.05-0.167-0.05-0.3c-0.067-0.5,0.033-0.85,0.3-1.05
					c0.033-0.067,0.05-0.167,0.05-0.3c0.067-0.6,0.017-1.167-0.15-1.7c-0.1-0.4-0.017-0.733,0.25-1c0.133-0.167,0.2-0.35,0.2-0.55
					c0.066-0.6,0.1-1.233,0.1-1.9c0.033-0.733,0.117-1.483,0.25-2.25c0.033-0.066,0.05-0.133,0.05-0.2
					c0.033-0.867,0.033-1.75,0-2.65c0-0.267-0.15-0.45-0.45-0.55c-0.066,0-0.1-0.067-0.1-0.2c-0.2-0.466-0.35-0.966-0.45-1.5
					c-0.4-0.1-0.6-0.367-0.6-0.8c0.067-0.1,0.067-0.217,0-0.35c0-0.367-0.05-0.633-0.15-0.8c-0.067-0.1-0.083-0.217-0.05-0.35
					c0.033-0.267-0.05-0.4-0.25-0.4c-0.2,0.033-0.25-0.083-0.15-0.35c0.067-0.267,0.034-0.483-0.1-0.65
					c-0.067-0.133-0.117-0.3-0.15-0.5c-0.033-0.133-0.05-0.267-0.05-0.4c-0.1-0.4-0.3-0.7-0.6-0.9c-0.066,0-0.117-0.05-0.15-0.15
					c-0.167-0.3-0.217-0.633-0.15-1c0.033-0.367,0-0.633-0.1-0.8c-0.033-0.1-0.067-0.217-0.1-0.35c-0.133-0.467-0.333-0.8-0.6-1
					c-0.466-0.033-0.816,0.05-1.05,0.25c-0.133,0.033-0.267,0.05-0.4,0.05c-0.434-0.033-0.867-0.05-1.3-0.05
					c-0.133,0-0.25,0.017-0.35,0.05c-0.4,0.233-0.733,0.467-1,0.7c0-0.133,0-0.25,0-0.35c0-0.5-0.25-0.833-0.75-1
					c-0.133-0.066-0.267-0.083-0.4-0.05c-0.466,0.033-0.783-0.067-0.95-0.3c0.467-0.3,0.733-0.816,0.8-1.55
					c0.033-0.4,0.017-0.75-0.05-1.05c-0.1-0.233-0.233-0.434-0.4-0.6c-0.1-0.1-0.217-0.15-0.35-0.15
					c-0.333-0.034-0.533-0.184-0.6-0.45c-0.033-0.2-0.1-0.383-0.2-0.55c-0.1-0.133-0.2-0.284-0.3-0.45
					c-0.3-0.5-0.683-0.867-1.15-1.1c-0.333-0.167-0.717-0.25-1.15-0.25c-0.6-0.033-1.05,0.067-1.35,0.3c-0.033,0-0.083,0-0.15,0
					c-0.067,0-0.117-0.034-0.15-0.1c-0.466-0.867-1.117-1.184-1.95-0.95c-0.133,0.033-0.217,0.083-0.25,0.15
					c-0.067,0.133-0.217,0.133-0.45,0c-0.467-0.2-0.983-0.5-1.55-0.9c-1.067-0.733-2.15-0.917-3.25-0.55c-0.2,0.066-0.4,0.1-0.6,0.1
					c-0.667-0.067-1.367-0.1-2.1-0.1c-0.4-0.033-0.7,0.05-0.9,0.25c-0.067,0.1-0.1,0.217-0.1,0.35c0,0.333-0.1,0.517-0.3,0.55
					c-0.233-0.2-0.483-0.333-0.75-0.4c-0.3-0.033-0.533,0.05-0.7,0.25c-0.133,0.2-0.283,0.3-0.45,0.3c-0.4-0.1-0.717-0.2-0.95-0.3
					c-0.167-0.1-0.35-0.2-0.55-0.3c-0.233-0.167-0.483-0.25-0.75-0.25c-0.4-0.066-0.65,0.034-0.75,0.3
					c-0.067,0.267-0.2,0.383-0.4,0.35c-0.066-0.034-0.133-0.067-0.2-0.1c-0.133,0-0.233-0.033-0.3-0.1c-0.3-0.2-0.667-0.25-1.1-0.15
					c0,0.3-0.1,0.417-0.3,0.35c-0.066-0.034-0.133-0.067-0.2-0.1c-0.367-0.167-0.75-0.3-1.15-0.4c-0.4-0.034-0.683,0.083-0.85,0.35
					c-0.133,0.267-0.417,0.383-0.85,0.35c-0.633,0-1.083,0.2-1.35,0.6c-0.133,0.133-0.317,0.183-0.55,0.15
					c-0.067-0.033-0.133-0.05-0.2-0.05c-0.1,0-0.2,0.017-0.3,0.05c0.066-0.133,0.1-0.3,0.1-0.5c0-0.2,0.034-0.383,0.1-0.55
					c0.033-0.167,0.083-0.3,0.15-0.4c0.467-0.467,0.7-1.05,0.7-1.75c0-0.1-0.017-0.2-0.05-0.3c-0.1-0.1-0.2-0.15-0.3-0.15
					c-0.767,0.1-1.35-0.05-1.75-0.45c-0.1-0.133-0.233-0.233-0.4-0.3c-0.7-0.367-1.317-0.333-1.85,0.1c0-0.267-0.066-0.55-0.2-0.85
					c-0.5-0.167-0.95-0.167-1.35,0c-0.1,0.067-0.2,0.067-0.3,0c-0.1-0.067-0.2-0.15-0.3-0.25c-0.2-0.233-0.45-0.25-0.75-0.05
					c-0.1,0.033-0.167,0.133-0.2,0.3c-0.1,0.167-0.267,0.233-0.5,0.2c-0.133-0.034-0.25-0.05-0.35-0.05
					c-0.167-0.033-0.284-0.033-0.35,0c-0.5,0.434-0.917,0.917-1.25,1.45c0,0.033-0.05,0.083-0.15,0.15
					c-0.233,0.033-0.383,0.15-0.45,0.35c-0.167,0.367-0.333,0.65-0.5,0.85c0-0.133,0.017-0.267,0.05-0.4
					c0.034-0.3-0.05-0.45-0.25-0.45c-0.433,0.066-0.8,0.217-1.1,0.45c0-0.133,0-0.25,0-0.35c0.1-0.4,0.033-0.65-0.2-0.75
					c-0.067-0.167-0.133-0.3-0.2-0.4c-0.066-0.2-0.15-0.367-0.25-0.5c-0.267-0.267-0.566-0.483-0.9-0.65
					c-0.3-0.133-0.6-0.283-0.9-0.45c-0.2-0.1-0.4-0.167-0.6-0.2c-0.7,0.133-1.4,0.25-2.1,0.35c-0.267,0-0.517,0.1-0.75,0.3
					c-0.2-0.1-0.333-0.35-0.4-0.75H15.5c-0.667,0-1.217,0.2-1.65,0.6c-0.233,0.267-0.5,0.517-0.8,0.75
					c-0.566,0.367-1.083,0.733-1.55,1.1c0.133-0.567-0.05-0.8-0.55-0.7c-0.233,0.033-0.5,0.133-0.8,0.3
					c-0.566,0.4-1.267,0.6-2.1,0.6c-0.1,0-0.2,0-0.3,0c0.1,0.3,0.05,0.55-0.15,0.75c-0.333,0.333-0.733,0.617-1.2,0.85
					c-0.167,0.167-0.383,0.3-0.65,0.4c0.1,0,0.217,0,0.35,0s0.217-0.05,0.25-0.15c0.033-0.066,0.083-0.1,0.15-0.1l0.1,0.25
					l-0.05,0.05c-0.033,0.1-0.083,0.167-0.15,0.2c-0.233,0.067-0.333,0.25-0.3,0.55c0.033,0.267,0.2,0.433,0.5,0.5
					c0,0.1-0.033,0.183-0.1,0.25c-0.1,0.1-0.183,0.25-0.25,0.45c-0.067,0.167-0.133,0.317-0.2,0.45
					c-0.233,0.333-0.517,0.683-0.85,1.05c-0.133,0.233-0.383,0.417-0.75,0.55c-0.067,0.033-0.133,0.083-0.2,0.15
					c-0.3,0.267-0.6,0.533-0.9,0.8c0.167,0,0.35,0,0.55,0c0.2,0,0.4,0,0.6,0c0.133,0,0.267,0,0.4,0
					c-0.033,0.133-0.066,0.267-0.1,0.4l-0.05,0.15c0.3,0.033,0.45,0.15,0.45,0.35c-0.3,0.133-0.517,0.35-0.65,0.65
					c-0.033,0.066-0.083,0.117-0.15,0.15c-0.2,0.033-0.3,0.167-0.3,0.4c0.033,0.2,0.15,0.367,0.35,0.5
					c0.1,0.067,0.167,0.117,0.2,0.15H4.6c-0.1,0.067-0.217,0.117-0.35,0.15c-0.133,0.066-0.2,0.133-0.2,0.2
					c-0.033,0.333-0.133,0.55-0.3,0.65C3.65-57.383,3.6-57.3,3.6-57.2c-0.033,0.2,0.017,0.333,0.15,0.4
					c0.1,0.033,0.183,0.083,0.25,0.15c0.267,0.133,0.267,0.3,0,0.5c-0.267,0.267-0.567,0.566-0.9,0.9
					c-0.167,0.167-0.3,0.35-0.4,0.55C2.233-54.2,2-53.6,2-52.9c-0.033,0.566,0.067,0.983,0.3,1.25c0.367,0.3,0.717,0.517,1.05,0.65
					C3.217-50.867,3.1-50.683,3-50.45C2.967-50.317,2.917-50.167,2.85-50c-0.4,0.867-0.833,1.6-1.3,2.2H1.5
					c0.033,0.066,0.1,0.1,0.2,0.1c0.3-0.066,0.45,0.034,0.45,0.3c-0.1,0-0.217,0.083-0.35,0.25c-0.066,0.133-0.1,0.316-0.1,0.55
					c0.066,0.233,0.117,0.467,0.15,0.7c-0.1,0.033-0.2,0.1-0.3,0.2c-0.066,0.1-0.15,0.167-0.25,0.2
					c-0.333,0.3-0.483,0.683-0.45,1.15c0,0.067,0.033,0.15,0.1,0.25c0.2,0.3,0.183,0.617-0.05,0.95
					c-0.066,0.133-0.167,0.25-0.3,0.35c-0.233,0.2-0.35,0.517-0.35,0.95c0.067,0.233,0.05,0.417-0.05,0.55
					c-0.3,0.3-0.25,0.6,0.15,0.9c-0.067,0.267-0.1,0.617-0.1,1.05c0,0.067,0.033,0.1,0.1,0.1c0,0.067,0.017,0.117,0.05,0.15
					c0.133,0.1,0.184,0.25,0.15,0.45c-0.033,0.3-0.033,0.583,0,0.85c0.034,0.1,0.05,0.216,0.05,0.35
					c0.066,0.367,0.117,0.75,0.15,1.15c0.033,0.267,0.083,0.5,0.15,0.7c0.067,0.3,0.167,0.533,0.3,0.7
					c0.033,0.133,0.066,0.25,0.1,0.35c0.133,0.466,0.184,0.966,0.15,1.5C1.417-32.617,1.5-32.333,1.7-32.2
					c0.066-0.033,0.117-0.066,0.15-0.1c0.4-0.233,0.783-0.483,1.15-0.75c0,0.6,0,1.233,0,1.9c0,0.267,0,0.533,0,0.8
					c-0.1,0.567,0.083,0.85,0.55,0.85c0.133,0,0.2,0.017,0.2,0.05c0.1,0.233,0.15,0.517,0.15,0.85c0,0.067,0,0.15,0,0.25
					C4-28.15,4.067-28.033,4.1-28c0.1-0.067,0.217-0.15,0.35-0.25c0.2-0.1,0.316-0.05,0.35,0.15c0.034,0.2,0.067,0.417,0.1,0.65
					c0.133,0.667,0.317,1.217,0.55,1.65c0.033,0.066,0.066,0.15,0.1,0.25c0.034,0.066,0.067,0.167,0.1,0.3
					c0.067,0.467,0.317,0.8,0.75,1c0.067,0.033,0.1,0.1,0.1,0.2c0.067,0.1,0.117,0.216,0.15,0.35c0.1,0.5,0.2,1,0.3,1.5
					c0.066,0.6,0.333,0.917,0.8,0.95c0.167,0.033,0.267,0.083,0.3,0.15C8.483-20.8,8.8-20.317,9-19.65
					c0.033,0.1,0.117,0.183,0.25,0.25c0.133,0.233,0.25,0.5,0.35,0.8c0.033,0.1,0.083,0.184,0.15,0.25
					C9.917-18.183,10-17.933,10-17.6c0.033-0.667,0.417-1.133,1.15-1.4c-0.033,0.233,0,0.383,0.1,0.45
					c0.067,0.066,0.117,0.15,0.15,0.25c0.5,0.867,0.983,1.883,1.45,3.05c0-0.4,0-0.8,0-1.2c0-0.066,0-0.117,0-0.15
					c0.033-0.2,0.183-0.183,0.45,0.05c0.067,0.066,0.15,0.083,0.25,0.05c0.1,0.033,0.184,0.067,0.25,0.1
					c0.067,0.1,0.15,0.15,0.25,0.15c0.6,0.1,1,0.433,1.2,1c0.1,0.167,0.183,0.4,0.25,0.7c0.1-0.4,0.2-0.367,0.3,0.1
					c0.034,0.067,0.067,0.15,0.1,0.25c0.133,0.2,0.25,0.383,0.35,0.55c0.067,0.033,0.133,0.133,0.2,0.3
					c0.033,0,0.083,0.05,0.15,0.15v-0.4c0-0.3,0-0.633,0-1c0.167,0.033,0.25,0.217,0.25,0.55c0,0.066,0,0.117,0,0.15
					c0.1,0.267,0.183,0.267,0.25,0c0-0.2,0.05-0.3,0.15-0.3c0.033,0,0.1,0.1,0.2,0.3c0.167,0.367,0.45,0.6,0.85,0.7
					c0.067,0.034,0.117,0.083,0.15,0.15c0.8,0.5,1.383,1,1.75,1.5c0.2,0.267,0.417,0.55,0.65,0.85H21c0-0.066,0-0.117,0-0.15
					c0.3,0.1,0.5,0.25,0.6,0.45c0.066,0.033,0.15,0.05,0.25,0.05c0.333,0.033,0.583,0.184,0.75,0.45
					c0.066,0.133,0.117,0.217,0.15,0.25c0.2,0.2,0.35,0.417,0.45,0.65c0.267,0.533,0.733,0.883,1.4,1.05
					c0.1,0.034,0.183,0.083,0.25,0.15c0.167,0.133,0.35,0.25,0.55,0.35c0-0.3,0-0.6,0-0.9c0-0.1,0-0.2,0-0.3
					c0.267,0.3,0.583,0.667,0.95,1.1c0.233-0.034,0.4,0.033,0.5,0.2C26.917-7.317,27-7.3,27.1-7.3c0.433,0.033,0.883,0.1,1.35,0.2
					c0.1,0.033,0.216,0.083,0.35,0.15v0.05c0.434,0.233,0.767,0.5,1,0.8c0.3,0.4,0.583,0.917,0.85,1.55c0,0.1,0,0.2,0,0.3
					c0,0.233,0,0.5,0,0.8c0.033-0.433,0.217-0.517,0.55-0.25c0.066,0.067,0.133,0.2,0.2,0.4c0-0.467,0.1-0.617,0.3-0.45
					c0.066,0.067,0.117,0.133,0.15,0.2c0.1,0.267,0.283,0.433,0.55,0.5C32.433-3.017,32.5-3,32.6-3c0.1-0.033,0.183-0.117,0.25-0.25
					c0-0.1,0.017-0.2,0.05-0.3c0.067-0.067,0.117-0.133,0.15-0.2c0.034-0.067,0.133,0,0.3,0.2c0.066,0.1,0.15,0.2,0.25,0.3
					c0.066,0.167,0.15,0.35,0.25,0.55c0.3,0.034,0.5-0.083,0.6-0.35c0.4,0.167,0.667,0.45,0.8,0.85
					c0.133,0.267,0.383,0.583,0.75,0.95c0.067,0.033,0.15,0.05,0.25,0.05c0.167,0,0.25-0.117,0.25-0.35c0-0.1,0.033-0.2,0.1-0.3
					c0.3,0.2,0.65,0.45,1.05,0.75c0.1,0.033,0.184,0.083,0.25,0.15c0.233,0.067,0.467,0.083,0.7,0.05c0.333,0,0.583,0.05,0.75,0.15
					c0.1,0.033,0.2,0.067,0.3,0.1c0.167,0.1,0.367,0.233,0.6,0.4c0.067,0.033,0.117,0.05,0.15,0.05c0,0.034,0.017,0.067,0.05,0.1
					c0.066,0,0.133,0.033,0.2,0.1c0.033-0.1,0.067-0.217,0.1-0.35c0.067-0.1,0.133-0.2,0.2-0.3c0.1-0.033,0.2-0.083,0.3-0.15
					l0.05,0.15c0.767-0.5,1.633-0.8,2.6-0.9V-1.7h0.3l0.2,0.15c1.267-0.1,2.517-0.067,3.75,0.1c0.434,0.034,0.733-0.05,0.9-0.25
					c0.034-0.066,0.05-0.15,0.05-0.25c-0.133-0.667,0-1.05,0.4-1.15c0.133-0.033,0.3-0.066,0.5-0.1
					c0.033-0.033,0.083-0.066,0.15-0.1c0.5-0.4,1.033-0.95,1.6-1.65c0.1-0.1,0.167-0.2,0.2-0.3c0.133-0.133,0.316-0.283,0.55-0.45
					c0.2-0.2,0.4-0.483,0.6-0.85c0.1-0.2,0.233-0.317,0.4-0.35c0.333-0.1,0.7-0.184,1.1-0.25c0.633-0.1,1.133-0.35,1.5-0.75
					c0.133-0.167,0.35-0.25,0.65-0.25c0.067,0,0.133,0,0.2,0C57.317-8.183,57.667-8.2,58-8.2c0.1,0,0.167,0,0.2,0v-0.3H58.65z
					 M53.25-7.75V-7.8l0.1,0.2L53.25-7.75z M46.95-3.95V-4l0.1,0.3L46.95-3.95z"/>
				<path style="fill-rule:evenodd;clip-rule:evenodd;fill:#2E000A;" d="M32.4-84c0.7,0.3,1.367,0.65,2,1.05
					c0.367,0.2,0.717,0.4,1.05,0.6c0.566,0.333,1.083,0.717,1.55,1.15c0.067,0.034,0.167,0.034,0.3,0c0.067,0,0.133,0,0.2,0
					c0.467-0.167,0.8-0.017,1,0.45c0.1,0.2,0.183,0.4,0.25,0.6c0.033,0.1,0.1,0.183,0.2,0.25c0.8-0.133,1.233,0.167,1.3,0.9
					c0.067,0.433,0.067,0.85,0,1.25c0.3-0.433,0.833-0.717,1.6-0.85c0.1-0.033,0.183-0.1,0.25-0.2c0.133-0.233,0.383-0.35,0.75-0.35
					c0.4-0.033,0.833-0.05,1.3-0.05c0.233-0.033,0.45-0.15,0.65-0.35c0.067-0.1,0.167-0.15,0.3-0.15c1.233-0.2,2.267-0.017,3.1,0.55
					c0.633-0.1,1.183,0,1.65,0.3c0.633,0.4,1.2,0.733,1.7,1c0.067,0.033,0.133,0.05,0.2,0.05c0.633,0.033,1.217,0.25,1.75,0.65
					c0.5,0.4,0.7,0.983,0.6,1.75c-0.1,0.4-0.1,0.783,0,1.15c0.066,0.167,0.1,0.35,0.1,0.55c0.466-0.367,0.75-0.3,0.85,0.2
					c0.034,0.033,0.067,0.083,0.1,0.15c0.067,0.133,0.133,0.267,0.2,0.4c0.3-0.1,0.517-0.35,0.65-0.75c0-0.066,0.033-0.133,0.1-0.2
					c0.4,0.2,0.683,0.433,0.85,0.7c0.133,0.2,0.35,0.267,0.65,0.2c0.133-0.033,0.267-0.05,0.4-0.05c0.433-0.067,0.883-0.067,1.35,0
					c0.6,0.066,1.033,0.35,1.3,0.85c0.2,0.534,0.533,0.684,1,0.45c0.1-0.033,0.217-0.033,0.35,0c0.8,0.1,1.517,0.433,2.15,1
					c0.4,0.4,0.733,0.85,1,1.35c0.033,0.1,0.1,0.2,0.2,0.3c0.333,0.367,0.917,0.55,1.75,0.55c0.2,0,0.383,0.066,0.55,0.2
					c0.333,0.367,0.517,0.733,0.55,1.1c0.033,0.267,0.117,0.517,0.25,0.75c0.133,0.2,0.25,0.083,0.35-0.35
					c0-0.033,0.067-0.05,0.2-0.05c0.633-0.1,0.983,0.15,1.05,0.75c0.034,0.066,0.067,0.15,0.1,0.25c0.333,0.233,0.7,0.633,1.1,1.2
					c0,0.034,0.017,0.083,0.05,0.15c-0.033-0.7,0.35-1,1.15-0.9c0.066,0,0.133-0.017,0.2-0.05c0.434-0.233,0.917-0.317,1.45-0.25
					c0.233,0.033,0.467,0.067,0.7,0.1c-0.133-0.167-0.183-0.35-0.15-0.55c0.067-0.4-0.017-0.716-0.25-0.95
					c-0.1-0.1-0.167-0.184-0.2-0.25c-0.167-0.434-0.25-0.9-0.25-1.4c0-0.067-0.05-0.117-0.15-0.15
					c-0.367-0.433-0.733-0.783-1.1-1.05c-0.1-0.1-0.184-0.183-0.25-0.25c-0.4-0.4-0.9-0.8-1.5-1.2c-0.1-0.1-0.184-0.183-0.25-0.25
					c-0.2-0.2-0.383-0.417-0.55-0.65c-0.033-0.1-0.05-0.2-0.05-0.3c-0.033-0.167-0.083-0.283-0.15-0.35
					c-0.167-0.133-0.4-0.217-0.7-0.25c-0.033,0-0.083-0.033-0.15-0.1c-0.533-0.2-1.117-0.583-1.75-1.15
					c-0.1-0.067-0.184-0.15-0.25-0.25c-0.233-0.233-0.25-0.567-0.05-1c0-0.1,0-0.2,0-0.3c-0.4,0.033-0.783,0.033-1.15,0
					c-0.066,0-0.117-0.067-0.15-0.2c0-0.133,0-0.233,0-0.3c-0.067-0.233-0.15-0.2-0.25,0.1c-0.233-0.233-0.383-0.55-0.45-0.95
					c0-0.067-0.066-0.117-0.2-0.15c-0.3-0.067-0.45,0.033-0.45,0.3c-0.467-0.2-0.733-0.583-0.8-1.15c0-0.1-0.017-0.184-0.05-0.25
					c-0.167-0.367-0.35-0.767-0.55-1.2c-0.267,0.3-0.55,0.533-0.85,0.7c-0.1,0.033-0.2,0.066-0.3,0.1
					c-0.667,0.066-1.15-0.05-1.45-0.35c-0.066-0.1-0.167-0.15-0.3-0.15c-0.267-0.133-0.367-0.434-0.3-0.9
					c-0.2,0.133-0.483,0.217-0.85,0.25c-0.1,0-0.167,0.017-0.2,0.05c-0.367,0-0.617-0.1-0.75-0.3c-0.033-0.066-0.083-0.15-0.15-0.25
					c-0.233-0.233-0.5-0.433-0.8-0.6c-0.2-0.1-0.35-0.1-0.45,0c0,0.1-0.067,0.133-0.2,0.1c-0.4,0-0.683,0.05-0.85,0.15
					c-0.1,0.066-0.216,0.117-0.35,0.15c-0.034,0-0.067,0-0.1,0l0.05,0.15c-0.066,0-0.133-0.017-0.2-0.05
					c-3.767-1.3-8.017-2.217-12.75-2.75c-0.333,0-0.65-0.034-0.95-0.1c-0.067,0-0.15-0.017-0.25-0.05v-0.1
					c-0.6-0.267-1.333-0.4-2.2-0.4c-0.133,0-0.233-0.017-0.3-0.05c-0.2-0.1-0.45-0.15-0.75-0.15c-0.033,0-0.083-0.017-0.15-0.05
					l-0.2-0.1c-0.066-0.167-0.217-0.233-0.45-0.2c-0.3,0.033-0.583,0.017-0.85-0.05c-0.067,0-0.133,0-0.2,0
					c-0.566-0.034-0.9,0.233-1,0.8c0,0.1,0.017,0.167,0.05,0.2c0.066,0.1,0.1,0.183,0.1,0.25c-0.167,0-0.367,0.017-0.6,0.05
					c-0.067,0-0.133,0-0.2,0v-0.05c-0.367-0.067-0.733-0.15-1.1-0.25C32.917-83.9,32.667-83.967,32.4-84z"/>
			</g>
			<g>
				<g>
					<path style="fill-rule:evenodd;clip-rule:evenodd;fill:#947446;" d="M55.45-8.6c0-0.167-0.05-0.316-0.15-0.45
						c-0.033-0.2-0.1-0.3-0.2-0.3c-0.367,0-0.55,0.25-0.55,0.75c0,0.233,0.15,0.367,0.45,0.4C55.3-8.2,55.45-8.333,55.45-8.6z
						 M51-10.8c-0.3,0-0.533,0.133-0.7,0.4L50.25-10c0,0.2,0.217,0.3,0.65,0.3c0.5,0.034,0.75-0.133,0.75-0.5
						C51.65-10.6,51.433-10.8,51-10.8z M41.7-9.85c0.533,0.1,0.8-0.033,0.8-0.4s-0.183-0.55-0.55-0.55
						c-0.167,0.1-0.517,0.15-1.05,0.15v0.2C40.9-10.15,41.167-9.95,41.7-9.85z M44.05-11.5v-0.15c-0.1,0-0.15-0.05-0.15-0.15
						c-0.233,0.033-0.35,0.133-0.35,0.3c0,0.2,0.083,0.317,0.25,0.35C43.967-11.15,44.05-11.267,44.05-11.5z M46.1-13.45
						c-0.1,0.067-0.2,0.1-0.3,0.1c0,0.167,0.05,0.333,0.15,0.5c-0.2,0.1-0.3,0.167-0.3,0.2c0,0.367,0.233,0.45,0.7,0.25
						c0.467-0.133,0.7-0.367,0.7-0.7c0-0.3-0.15-0.45-0.45-0.45C46.367-13.55,46.2-13.517,46.1-13.45z M47.4-16.35
						c0,0.3,0.133,0.467,0.4,0.5c0.3,0,0.45-0.133,0.45-0.4c0-0.067-0.033-0.15-0.1-0.25c-0.1-0.1-0.217-0.15-0.35-0.15
						C47.533-16.65,47.4-16.55,47.4-16.35z M46.75-17.35c0.367-0.066,0.55-0.3,0.55-0.7c0-0.333-0.133-0.5-0.4-0.5
						c-0.2,0-0.3,0.083-0.3,0.25v0.25h-0.15c-0.166,0.199-0.25,0.282-0.25,0.25C46.2-17.433,46.383-17.283,46.75-17.35z M43.3-13.6
						c-0.066-0.2-0.183-0.3-0.35-0.3c-0.3,0-0.45,0.133-0.45,0.4l0.05,0.3c0,0.067-0.117,0.217-0.35,0.45
						c0,0.333,0.167,0.45,0.5,0.35c0.4-0.133,0.6-0.417,0.6-0.85C43.3-13.317,43.3-13.433,43.3-13.6z M44.4-14
						c0.3,0.133,0.45,0.017,0.45-0.35c0-0.133-0.05-0.283-0.15-0.45c-0.133-0.1-0.233-0.15-0.3-0.15c-0.333,0-0.5,0.117-0.5,0.35
						C43.9-14.4,44.067-14.2,44.4-14z M42.6-14.1c0.367,0.2,0.55,0.033,0.55-0.5c0-0.367-0.167-0.55-0.5-0.55
						c-0.433,0-0.65,0.167-0.65,0.5C42-14.517,42.2-14.333,42.6-14.1z M41.5-17.35c-0.067,0.033-0.1,0.1-0.1,0.2
						c0,0.2,0.15,0.3,0.45,0.3c0.3,0,0.45-0.066,0.45-0.2c-0.066-0.367-0.167-0.55-0.3-0.55C41.767-17.6,41.6-17.517,41.5-17.35z
						 M43.8-17.15c0,0.167,0.05,0.267,0.15,0.3c0.066,0,0.167,0,0.3,0c0.267,0,0.5,0.033,0.7,0.1c0.066-0.033,0.1-0.25,0.1-0.65
						c0-0.233-0.133-0.35-0.4-0.35c-0.333,0-0.566,0.1-0.7,0.3C43.85-17.35,43.8-17.25,43.8-17.15z M42.55-18.9l-0.05,0.3
						c0,0.3,0.15,0.417,0.45,0.35c0.333-0.133,0.5-0.317,0.5-0.55c0-0.333-0.167-0.5-0.5-0.5C42.783-19.3,42.65-19.167,42.55-18.9z
						 M44.9-19.4c-0.033,0.066-0.05,0.15-0.05,0.25c0,0.3,0.167,0.5,0.5,0.6c0.4,0.066,0.6-0.133,0.6-0.6c0-0.3-0.15-0.45-0.45-0.45
						C45.233-19.6,45.033-19.533,44.9-19.4z M28.4-13.5c-0.2-0.233-0.35-0.35-0.45-0.35c-0.233,0-0.383,0.083-0.45,0.25l-0.1,0.25
						c0,0.2,0.233,0.367,0.7,0.5c0.433,0.133,0.65,0.067,0.65-0.2C28.75-13.15,28.633-13.3,28.4-13.5z M29.45-15.15
						c0-0.167-0.083-0.333-0.25-0.5c-0.233-0.2-0.55-0.3-0.95-0.3c-0.6,0-0.9,0.217-0.9,0.65c0,0.4,0.35,0.6,1.05,0.6
						c0.3,0,0.583,0.05,0.85,0.15C29.383-14.55,29.45-14.75,29.45-15.15z M25.4-15.15l-0.05,0.25c0,0.933,0.15,1.3,0.45,1.1
						c0.333-0.2,0.5-0.534,0.5-1c0-0.4-0.1-0.6-0.3-0.6C25.7-15.4,25.5-15.317,25.4-15.15z M27.8-17.75c0.1,0,0.284,0.083,0.55,0.25
						c0.2,0.1,0.3-0.05,0.3-0.45c0-0.3-0.083-0.5-0.25-0.6h-1c-0.233,0.3-0.35,0.483-0.35,0.55c0,0.267,0.067,0.4,0.2,0.4
						c0.067,0,0.15-0.033,0.25-0.1C27.633-17.733,27.733-17.75,27.8-17.75z M25.85-16.95c0-0.233-0.117-0.35-0.35-0.35
						c-0.133,0-0.25,0.066-0.35,0.2c0,0.033,0,0.083,0,0.15c0,0.133,0.05,0.233,0.15,0.3c0.034,0,0.083,0,0.15,0
						C25.717-16.65,25.85-16.75,25.85-16.95z M23.8-23.85v0.05c-0.066,0.033-0.1,0.1-0.1,0.2c0,0.067,0,0.15,0,0.25h0.8
						c0-0.066,0-0.15,0-0.25c0-0.066,0-0.117,0-0.15c-0.067,0-0.117-0.017-0.15-0.05c0.1-0.067,0.15-0.15,0.15-0.25
						c0-0.067-0.017-0.133-0.05-0.2c0-0.067-0.083-0.1-0.25-0.1c-0.2,0-0.317,0.1-0.35,0.3L23.8-23.85z M29.25-22.45
						c0,0.2,0.117,0.3,0.35,0.3c0.2,0.033,0.3-0.033,0.3-0.2c0-0.1-0.066-0.183-0.2-0.25c-0.067-0.066-0.117-0.117-0.15-0.15
						C29.35-22.683,29.25-22.583,29.25-22.45z M26.4-24.05c0,0.3,0.217,0.417,0.65,0.35c0.4-0.1,0.6-0.316,0.6-0.65
						c0-0.333-0.15-0.5-0.45-0.5c-0.367,0-0.6,0.117-0.7,0.35L26.4-24.05z M40.3-13.2c0.3,0,0.45-0.167,0.45-0.5
						c0-0.3-0.1-0.45-0.3-0.45c-0.333,0-0.534,0.066-0.6,0.2c-0.033,0.133-0.05,0.217-0.05,0.25C39.8-13.4,39.967-13.233,40.3-13.2z
						 M33.6-13.7c0.3-0.133,0.45-0.35,0.45-0.65c0-0.133-0.066-0.267-0.2-0.4c-0.1-0.133-0.267-0.2-0.5-0.2
						c-0.2,0-0.367,0.083-0.5,0.25c-0.1,0.1-0.15,0.184-0.15,0.25c0.267,0.2,0.4,0.367,0.4,0.5C33.1-13.65,33.267-13.567,33.6-13.7z
						 M31.45-13.35c0-0.333-0.1-0.5-0.3-0.5c-0.733,0-1.1,0.117-1.1,0.35c0,0.267,0.233,0.433,0.7,0.5
						C31.217-12.9,31.45-13.017,31.45-13.35z M31.1-16.7h-0.55c-0.233,0.233-0.35,0.383-0.35,0.45c0,0.433,0.233,0.667,0.7,0.7
						c0.434,0.1,0.65-0.05,0.65-0.45c0-0.233-0.017-0.35-0.05-0.35C31.467-16.45,31.333-16.567,31.1-16.7z M33.2-18.2
						c0,0.3,0.183,0.45,0.55,0.45s0.55-0.2,0.55-0.6c0-0.133-0.05-0.25-0.15-0.35c-0.133-0.1-0.283-0.15-0.45-0.15
						c-0.3,0-0.467,0.1-0.5,0.3V-18.2z M34.9-16.8c0,0.2,0.133,0.3,0.4,0.3c0.267,0,0.4-0.083,0.4-0.25
						c0-0.233-0.117-0.35-0.35-0.35C35.05-17.1,34.9-17,34.9-16.8z M34.95-20.85c0.133-0.066,0.367-0.183,0.7-0.35
						c0.133,0,0.317-0.167,0.55-0.5c-0.3-0.233-0.483-0.35-0.55-0.35L35.1-22c-0.233,0.1-0.383,0.2-0.45,0.3
						c-0.033,0.034-0.05,0.15-0.05,0.35C34.6-20.95,34.717-20.783,34.95-20.85z M35.15-19.8c0.333-0.133,0.5-0.3,0.5-0.5
						c0-0.233-0.133-0.35-0.4-0.35c-0.233,0-0.4,0.083-0.5,0.25l-0.05,0.3C34.7-19.7,34.85-19.6,35.15-19.8z M33.55-21.45
						c0-0.267-0.117-0.4-0.35-0.4c-0.3,0-0.517,0.167-0.65,0.5L32.4-20.9c0,0.533,0.2,0.633,0.6,0.3
						C33.367-20.933,33.55-21.217,33.55-21.45z M37.7-19.4l-0.5-0.05c-0.333,0.133-0.5,0.317-0.5,0.55c0,0.133,0.216,0.3,0.65,0.5
						c0.4,0.133,0.6-0.067,0.6-0.6C37.95-19.1,37.867-19.233,37.7-19.4z M36.15-24.25c0-0.333-0.133-0.5-0.4-0.5
						c-0.233,0-0.35,0.117-0.35,0.35c0,0.5,0.117,0.75,0.35,0.75C36.017-23.683,36.15-23.883,36.15-24.25z M37.05-21.7
						c0,0.233,0.267,0.45,0.8,0.65c0.5,0.2,0.75-0.017,0.75-0.65c0-0.1-0.05-0.216-0.15-0.35c-0.133-0.2-0.267-0.3-0.4-0.3
						c-0.4,0-0.7,0.117-0.9,0.35L37.05-21.7z M19.3-30.55c0-0.1-0.017-0.2-0.05-0.3c-0.067-0.066-0.133-0.1-0.2-0.1
						c-0.4,0-0.65,0.05-0.75,0.15c-0.033,0.033-0.05,0.117-0.05,0.25c0,0.3,0.183,0.417,0.55,0.35
						C19.133-30.267,19.3-30.383,19.3-30.55z M12-30.35c0.567,0.2,0.85,0.033,0.85-0.5c0-0.167-0.05-0.267-0.15-0.3
						c-0.167-0.133-0.534-0.2-1.1-0.2c-0.233,0-0.35,0.067-0.35,0.2c-0.033,0.033-0.05,0.117-0.05,0.25
						C11.2-30.733,11.467-30.55,12-30.35z M14.65-35.9c0,0.133,0.133,0.2,0.4,0.2c0.267,0,0.4-0.1,0.4-0.3
						c0-0.233-0.117-0.35-0.35-0.35C14.8-36.35,14.65-36.2,14.65-35.9z M12.35-36.95c0-0.133-0.067-0.267-0.2-0.4
						c-0.167-0.2-0.417-0.3-0.75-0.3h-0.7c-0.067,0-0.117,0.033-0.15,0.1c-0.066,0.033-0.1,0.117-0.1,0.25l0.05,0.2
						c0.1,0.133,0.267,0.167,0.5,0.1c0.333,0.467,0.667,0.667,1,0.6C12.233-36.433,12.35-36.617,12.35-36.95z M16.25-32.5
						c0.4,0.033,0.6-0.133,0.6-0.5c0-0.067-0.033-0.15-0.1-0.25c-0.033-0.133-0.083-0.2-0.15-0.2c-0.133,0-0.333,0.067-0.6,0.2
						c-0.267,0.1-0.4,0.183-0.4,0.25C15.6-32.733,15.817-32.567,16.25-32.5z M17.35-35.7c0-0.2-0.133-0.3-0.4-0.3
						c-0.233,0-0.4,0.067-0.5,0.2l-0.05,0.2c0,0.233,0.15,0.35,0.45,0.35C17.183-35.25,17.35-35.4,17.35-35.7z M17.25-37v-0.25
						c0-0.367-0.167-0.55-0.5-0.55c-0.3,0-0.5,0.066-0.6,0.2c-0.033,0.067-0.05,0.167-0.05,0.3c0,0.167,0.033,0.267,0.1,0.3
						c0.066,0.067,0.25,0.1,0.55,0.1C17.017-36.9,17.183-36.933,17.25-37z M19.6-35.2h-0.95c-0.1,0.067-0.15,0.184-0.15,0.35
						c0,0.233,0.233,0.4,0.7,0.5c0.466,0.1,0.7-0.05,0.7-0.45C19.9-35,19.8-35.133,19.6-35.2z M13.95-38.45H13.3
						c-0.2,0.133-0.333,0.25-0.4,0.35c-0.033,0.033-0.05,0.1-0.05,0.2c0,0.367,0.233,0.55,0.7,0.55c0.434,0,0.65-0.233,0.65-0.7
						C14.2-38.183,14.117-38.317,13.95-38.45z M12.2-40.65v0.45c0.233,0.133,0.45,0.2,0.65,0.2v-0.25c0-0.067-0.033-0.167-0.1-0.3
						c-0.067-0.1-0.117-0.15-0.15-0.15C12.533-40.7,12.4-40.683,12.2-40.65z M36.65-28.75c0,0.3,0.2,0.433,0.6,0.4
						c0.4,0,0.6-0.15,0.6-0.45c0-0.1-0.117-0.25-0.35-0.45l-0.55,0.05C36.75-29.033,36.65-28.883,36.65-28.75z M34.15-27.4
						c-0.133-0.2-0.3-0.3-0.5-0.3c-0.267,0-0.467,0.133-0.6,0.4c-0.133,0.167-0.2,0.3-0.2,0.4c0,0.2,0.25,0.367,0.75,0.5
						c0.433,0.133,0.65-0.083,0.65-0.65C34.25-27.15,34.217-27.267,34.15-27.4z M27.6-25.45c0.367,0,0.55-0.216,0.55-0.65
						c0.067-0.333-0.15-0.5-0.65-0.5c-0.1,0-0.2,0.067-0.3,0.2c-0.1,0.133-0.15,0.233-0.15,0.3
						C27.05-25.633,27.233-25.417,27.6-25.45z M26.1-26.1c-0.033-0.167-0.25-0.283-0.65-0.35c-0.434,0.267-0.7,0.483-0.8,0.65
						c-0.066,0.167-0.117,0.267-0.15,0.3c0.433,0.167,0.75,0.217,0.95,0.15C25.717-25.383,25.933-25.633,26.1-26.1z M27.2-27.05
						c0.2,0,0.3-0.1,0.3-0.3c0-0.233-0.1-0.35-0.3-0.35l-0.3,0.05c-0.033,0-0.05,0.083-0.05,0.25
						C26.85-27.233,26.967-27.117,27.2-27.05z M23.55-27l-0.95,0.1c-0.033,0-0.05,0.066-0.05,0.2c0,0.267,0.383,0.267,1.15,0v-0.2
						C23.667-26.967,23.617-27,23.55-27z M21.55-27.45c-0.066,0.034-0.1,0.083-0.1,0.15c0,0.167,0.15,0.316,0.45,0.45
						c0.267,0.1,0.4,0.017,0.4-0.25c0-0.066-0.033-0.167-0.1-0.3c-0.1-0.167-0.2-0.25-0.3-0.25
						C21.767-27.65,21.65-27.583,21.55-27.45z M24.35-28c0,0.467,0.217,0.7,0.65,0.7c0.4-0.067,0.6-0.3,0.6-0.7
						c0-0.433-0.2-0.65-0.6-0.65c-0.333,0-0.55,0.117-0.65,0.35V-28z M21.5-35.55c0,0.267,0.133,0.383,0.4,0.35
						c0.267-0.033,0.4-0.133,0.4-0.3c0-0.067-0.05-0.15-0.15-0.25c-0.133-0.1-0.25-0.15-0.35-0.15c-0.133,0-0.233,0.05-0.3,0.15
						C21.5-35.717,21.5-35.65,21.5-35.55z M23.1-40.9c0,0.4,0.35,0.617,1.05,0.65c0.633,0,0.95-0.3,0.95-0.9
						c0-0.633-0.217-0.95-0.65-0.95c-0.4,0-0.75,0.2-1.05,0.6L23.1-40.9z M24.3-49.15c0-0.1,0.017-0.317,0.05-0.65v-0.15
						c0-0.033-0.067-0.05-0.2-0.05l-0.75,0.05c-0.066,0-0.1,0.133-0.1,0.4c0,0.2,0.083,0.333,0.25,0.4
						C23.75-49.083,24-49.083,24.3-49.15z M27.3-44.3c0.034-0.034,0.05-0.133,0.05-0.3c0-0.5-0.25-0.75-0.75-0.75
						c-0.133,0-0.25,0.033-0.35,0.1L26.2-45.2c-0.034,0.034-0.067,0.05-0.1,0.05c0,0.033,0,0.133,0,0.3c0,0.2,0.033,0.367,0.1,0.5
						c0.2,0.267,0.55,0.317,1.05,0.15C27.25-44.233,27.267-44.267,27.3-44.3z M34.45-56.95c-0.7,0-1.133,0.117-1.3,0.35
						c-0.066,0.233-0.1,0.367-0.1,0.4c0,0.5,0.333,0.8,1,0.9c0.7,0.1,1.05-0.117,1.05-0.65C35.1-56.617,34.883-56.95,34.45-56.95z
						 M12.85-60.4c-0.233-0.233-0.5-0.35-0.8-0.35c-0.733,0-1.1,0.217-1.1,0.65c0,0.733,0.35,1.117,1.05,1.15
						c0.7,0.067,1.05-0.233,1.05-0.9C13.05-60.05,12.983-60.233,12.85-60.4z M7-58.65c-0.233,0-0.467,0.15-0.7,0.45
						c-0.233,0.267-0.35,0.434-0.35,0.5c0,0.767,0.267,0.983,0.8,0.65c0.467-0.233,0.817-0.617,1.05-1.15
						C7.7-58.5,7.433-58.65,7-58.65z M13-62.35c0,0.467,0.2,0.7,0.6,0.7c0.4-0.033,0.6-0.267,0.6-0.7c0-0.233-0.2-0.467-0.6-0.7
						l-0.55,0.2L13-62.35z M51.7-58c-0.067-0.133-0.184-0.2-0.35-0.2c-0.3,0-0.517,0.117-0.65,0.35l-0.15,0.3c0,0.167,0,0.267,0,0.3
						c0.034,0,0.067,0.033,0.1,0.1c0.133,0.066,0.35,0.066,0.65,0c0.267-0.1,0.45-0.283,0.55-0.55C51.817-57.8,51.767-57.9,51.7-58z
						 M52.45-59.5c0,0.467,0.35,0.867,1.05,1.2c0.667,0.3,1-0.017,1-0.95c0-0.3-0.05-0.517-0.15-0.65c-0.167-0.2-0.533-0.3-1.1-0.3
						c-0.433,0-0.7,0.1-0.8,0.3V-59.5z M56.4-60.2l0.3-0.1c0.1-0.067,0.15-0.2,0.15-0.4v-0.2l-0.45-0.25
						c-0.133,0.1-0.217,0.15-0.25,0.15c-0.066,0.033-0.1,0.133-0.1,0.3c0,0.2,0.034,0.333,0.1,0.4
						C56.183-60.3,56.267-60.267,56.4-60.2z M52.75-61.9c0.633,0.1,0.95-0.2,0.95-0.9c0-0.633-0.333-0.95-1-0.95
						c-0.6,0-0.9,0.333-0.9,1C51.8-62.25,52.117-61.967,52.75-61.9z"/>
					<path style="fill-rule:evenodd;clip-rule:evenodd;fill:#931834;" d="M48.8-24.45c-0.3-0.667-0.633-1-1-1
						c-0.4,0-0.683,0.1-0.85,0.3c-0.034,0.1-0.05,0.233-0.05,0.4c0,0.667,0.317,1.05,0.95,1.15S48.8-23.783,48.8-24.45z M47.8-30.2
						c0-0.233-0.017-0.4-0.05-0.5c-0.033-0.133-0.15-0.2-0.35-0.2c-0.5,0-0.816,0.183-0.95,0.55L46.3-29.9
						c0,0.333,0.25,0.483,0.75,0.45C47.55-29.483,47.8-29.733,47.8-30.2z M42.5-31.95c0,0.633,0.317,0.883,0.95,0.75
						s0.95-0.466,0.95-1c0-0.466-0.267-0.7-0.8-0.7c-0.5,0-0.833,0.15-1,0.45C42.533-32.15,42.5-31.983,42.5-31.95z M41.45-35.8
						c-0.067-0.067-0.184-0.1-0.35-0.1c-0.633,0-1.05,0.066-1.25,0.2l-0.05,0.3c0,0.467,0.267,0.767,0.8,0.9
						c0.6,0.233,0.9-0.033,0.9-0.8C41.5-35.567,41.483-35.733,41.45-35.8z M17-17.4c0.9,0.367,1.35,0.033,1.35-1
						c0-0.667-0.5-1-1.5-1c-0.567,0-0.934,0.133-1.1,0.4c-0.067,0.267-0.1,0.417-0.1,0.45C15.65-18.117,16.1-17.733,17-17.4z
						 M18.5-16.3c-0.067,0.033-0.1,0.183-0.1,0.45c0,0.4,0.283,0.633,0.85,0.7c0.467,0.066,0.7-0.167,0.7-0.7
						c0-0.167-0.083-0.316-0.25-0.45c-0.167-0.1-0.317-0.15-0.45-0.15C19.017-16.45,18.767-16.4,18.5-16.3z M16.85-20.15
						c0.633,0.1,0.95-0.217,0.95-0.95c-0.066-0.633-0.383-0.95-0.95-0.95c-0.4,0-0.684,0.15-0.85,0.45c-0.1,0.133-0.15,0.3-0.15,0.5
						C15.85-20.6,16.183-20.283,16.85-20.15z M8.1-26c-0.3,0.2-0.483,0.417-0.55,0.65l0.55,0.1c0-0.067,0.066-0.2,0.2-0.4
						C8.3-25.75,8.233-25.867,8.1-26z M7.15-33.95c0-0.267-0.167-0.55-0.5-0.85H5.4c-0.167,0.133-0.25,0.35-0.25,0.65
						c0,0.4,0.333,0.717,1,0.95C6.817-32.967,7.15-33.217,7.15-33.95z M4.95-38.25c-0.1,0.2-0.15,0.383-0.15,0.55
						c0,0.534,0.35,0.85,1.05,0.95C6.483-36.683,6.8-37,6.8-37.7c-0.033-0.667-0.367-1-1-1C5.433-38.7,5.15-38.55,4.95-38.25z
						 M33.4-35.7c-0.033,0.067-0.083,0.133-0.15,0.2c-0.233,0.333-0.183,0.633,0.15,0.9c0.367,0.3,0.75,0.217,1.15-0.25
						c-0.267-0.6-0.533-0.9-0.8-0.9C33.583-35.75,33.467-35.733,33.4-35.7z M32.05-32.25c-1,0-1.5,0.267-1.5,0.8
						c0,0.4,0.35,0.6,1.05,0.6c0.733,0,1.1-0.233,1.1-0.7C32.7-32.017,32.483-32.25,32.05-32.25z M37.85-35.2
						c-0.267,0-0.467,0.15-0.6,0.45l-0.15,0.4c0,0.467,0.217,0.6,0.65,0.4c0.433-0.167,0.65-0.4,0.65-0.7
						c0-0.3-0.017-0.417-0.05-0.35C38.283-35.133,38.117-35.2,37.85-35.2z M33.7-52.2c0.466,0,0.7-0.2,0.7-0.6
						c0-0.4-0.25-0.6-0.75-0.6c-0.333,0-0.55,0.1-0.65,0.3v0.3C33-52.4,33.233-52.2,33.7-52.2z M30.5-53.55
						c-0.2,0-0.483,0.15-0.85,0.45c0.2,0.467,0.5,0.7,0.9,0.7c0.4,0,0.6-0.184,0.6-0.55c0-0.133-0.05-0.267-0.15-0.4
						C30.867-53.483,30.7-53.55,30.5-53.55z M28.75-55.3c0-0.333-0.133-0.633-0.4-0.9c-0.467,0.267-0.7,0.517-0.7,0.75
						c0,0.233,0.05,0.383,0.15,0.45c0.1,0.2,0.383,0.233,0.85,0.1c0-0.033,0.033-0.067,0.1-0.1
						C28.75-55.067,28.75-55.167,28.75-55.3z M21.95-53c0.566-0.033,0.85-0.467,0.85-1.3c0-0.367-0.25-0.55-0.75-0.55
						c-0.4,0-0.683,0.117-0.85,0.35l-0.1,0.4C21.1-53.3,21.383-52.933,21.95-53z M18.75-53.25c0-0.533-0.367-0.8-1.1-0.8
						c-0.267,0-0.5,0.15-0.7,0.45l-0.25,0.45c0,0.4,0.333,0.633,1,0.7C18.4-52.35,18.75-52.617,18.75-53.25z"/>
				</g>
			</g>
		</g>
		<g>
			<g>
				<path style="fill-rule:evenodd;clip-rule:evenodd;fill:#4E3D28;" d="M45.2-41.35c0.066-1.733,0.4-3.1,1-4.1
					c0.033-0.066,0.066-0.117,0.1-0.15c0.367-0.6,0.617-1.083,0.75-1.45c0.1-0.3,0.15-0.534,0.15-0.7c0-0.233-0.25-0.933-0.75-2.1
					c-0.534-1.233-1.034-2.25-1.5-3.05c-2.034-3.233-3.284-4.85-3.75-4.85c-0.1,0-0.25,0.033-0.45,0.1
					c-0.233,0.1-0.417,0.15-0.55,0.15v2c0.233,0.933,0.433,2.217,0.6,3.85c0.133,1.2,0.217,2.316,0.25,3.35
					c0.034,0.233,0.05,0.466,0.05,0.7c0,0.133,0,0.267,0,0.4c0,0.9-0.167,2.017-0.5,3.35c-0.333,1.333-0.5,2.3-0.5,2.9
					c0,0.8,0.283,1.85,0.85,3.15c0.833,1.833,1.3,2.883,1.4,3.15c0.133,0.533,0.6,1.017,1.4,1.45c0.933,0.534,1.583,1.1,1.95,1.7
					h0.05c0.133,0.233,0.317,0.467,0.55,0.7c1.3,0.767,2.417,1.5,3.35,2.2c0.5,0.4,0.934,0.767,1.3,1.1c-0.8-0.833-1.6-1.6-2.4-2.3
					c-0.2-0.133-0.383-0.284-0.55-0.45c-0.367-0.3-0.7-0.583-1-0.85c-1.2-0.967-2.15-1.767-2.85-2.4
					c-0.333-0.267-1.066-1.85-2.2-4.75c-0.1-0.3-0.217-0.633-0.35-1c-0.467-1.133-0.7-1.717-0.7-1.75
					c-0.1-0.333-0.167-0.683-0.2-1.05c0.033-0.1,0.083-0.217,0.15-0.35c0.433-1.633,0.75-3.283,0.95-4.95
					c0.034-0.233,0.05-0.483,0.05-0.75c0.233-2.6,0.1-5.233-0.4-7.9c-0.034-0.267,0.133-0.4,0.5-0.4c1.633,1.6,3.017,3.833,4.15,6.7
					c0.3,0.767,0.5,1.25,0.6,1.45c-0.167,0.333-0.317,0.667-0.45,1c-0.2,0.5-0.367,0.967-0.5,1.4c-0.167,0.467-0.3,0.9-0.4,1.3
					C45.283-44.217,45.233-43.15,45.2-41.35z M48.2-63.1c-0.333-0.133-0.667-0.25-1-0.35c-0.3-0.1-0.6-0.2-0.9-0.3
					c-2.466-0.767-4.15-1.15-5.05-1.15c-0.1,0-0.25,0.05-0.45,0.15c-0.133,0.033-0.25,0.067-0.35,0.1c0,0.066-0.017,0.15-0.05,0.25
					c-0.033,0.133-0.066,0.3-0.1,0.5c-0.066,0.333-0.1,0.583-0.1,0.75c0,0.667,0.117,1.367,0.35,2.1c0.4,1.267,1.133,2.633,2.2,4.1
					c2.233,3.133,3.383,4.784,3.45,4.95c0.5,1.067,1.2,1.85,2.1,2.35c0.6,0.333,1.733,0.833,3.4,1.5
					c1.033,0.533,1.95,1.083,2.75,1.65c0.4,0.3,0.85,0.667,1.35,1.1c0.333,0.267,0.684,0.566,1.05,0.9c0.066,0,0.1-0.083,0.1-0.25
					c1.066,0.533,1.85,0.933,2.35,1.2c0.233,0.133,0.717,0.4,1.45,0.8c-0.333-0.267-0.633-0.517-0.9-0.75
					c-1.133-0.8-1.867-1.333-2.2-1.6c-0.133-0.066-0.2-0.117-0.2-0.15c-2-1.3-3.733-2.25-5.2-2.85c-1.333-0.5-3-1.633-5-3.4
					c-0.6-1.267-1.3-2.433-2.1-3.5c-0.033-0.133-0.1-0.283-0.2-0.45c-0.267-0.433-0.717-1.033-1.35-1.8
					c-0.833-1.033-1.434-1.983-1.8-2.85c-0.066-0.1-0.117-0.217-0.15-0.35c-0.233-0.7-0.383-1.883-0.45-3.55
					c2.267,0,4.283,0.217,6.05,0.65C47.583-63.283,47.9-63.2,48.2-63.1z M63.55-67.25c0.233,0.233,0.434,0.433,0.6,0.6
					c0.1,0.133,0.184,0.233,0.25,0.3h0.05c-0.934-1.5-2.184-3.033-3.75-4.6c-0.067-0.066-0.117-0.117-0.15-0.15
					c-0.066-0.066-0.233-0.217-0.5-0.45c-0.533-0.5-1.566-1.45-3.1-2.85c-0.1-0.067-0.184-0.133-0.25-0.2
					c-0.633-0.633-1.133-1.117-1.5-1.45c-0.633-0.567-1.133-0.883-1.5-0.95c-1-0.067-1.983-0.2-2.95-0.4
					c-0.4-0.2-0.767-0.367-1.1-0.5c-0.633-0.3-1.2-0.55-1.7-0.75c-0.3-0.133-0.583-0.25-0.85-0.35c-0.167-0.1-0.367-0.217-0.6-0.35
					c-1-0.6-1.5-1.083-1.5-1.45c0-0.3-0.167-1.017-0.5-2.15c-0.133-0.733-0.3-1.533-0.5-2.4c-0.033-0.167-0.083-0.35-0.15-0.55
					c0-0.033-0.017-0.083-0.05-0.15c0-0.034,0-0.067,0-0.1c0.067-1.133,0.217-3.533,0.45-7.2c0.067-0.9,0.117-1.717,0.15-2.45
					c0-0.6,0-1.133,0-1.6c0-0.7-0.217-2.533-0.65-5.5c-0.033-0.167-0.067-0.317-0.1-0.45c-0.367-2.2-0.85-4.967-1.45-8.3
					c-0.267-1.567-0.567-3.233-0.9-5c-0.566-3-1.167-6.25-1.8-9.75c0-0.167-0.483-3.967-1.45-11.4c-0.033-0.167-0.066-0.35-0.1-0.55
					c-0.534-4.1-1.017-7.633-1.45-10.6c-0.133-0.8-0.25-1.583-0.35-2.35c-0.066-0.233-0.117-0.45-0.15-0.65
					c0.067-1.367,0.833-2.633,2.3-3.8c1.4-1.1,2.817-1.767,4.25-2c1.3-0.233,2.9-0.733,4.8-1.5c0.733-0.267,1.367-0.517,1.9-0.75
					c-0.367-0.067-0.8-0.117-1.3-0.15c-0.567-0.067-1-0.1-1.3-0.1c-0.1,0-0.2,0-0.3,0H46.3c-0.833,0.3-1.833,0.467-3,0.5
					c-0.033,0-0.066,0-0.1,0c-0.667,0.167-1.05,0.25-1.15,0.25c-0.267,0.067-0.517,0.183-0.75,0.35c-0.667,0.4-1.25,0.617-1.75,0.65
					c-1,0.067-1.7,0.183-2.1,0.35c-0.633,0.233-1.184,0.7-1.65,1.4c-0.066,0.1-0.25,0.183-0.55,0.25c-0.333,0.1-0.833,0.15-1.5,0.15
					c-0.967-0.033-1.583,0.25-1.85,0.85c0,0.067,0,0.133,0,0.2c0.133,2.033,0.233,3.167,0.3,3.4c-0.067,0-0.133-0.017-0.2-0.05
					c-0.233-0.033-0.533-0.05-0.9-0.05c0,0.233,0.15,0.883,0.45,1.95c0.267,1.066,0.4,1.833,0.4,2.3c0,0.2-0.05,0.717-0.15,1.55
					c-0.1,0.934-0.167,1.45-0.2,1.55v2c0.1-0.167,0.233-0.417,0.4-0.75c0.2-0.567,0.433-1.367,0.7-2.4
					c0.167-0.567,0.3-1.05,0.4-1.45c0.167,0.767,0.333,1.617,0.5,2.55c0.633,3.934,0.95,5.917,0.95,5.95
					c0,0.467-0.167,1.217-0.5,2.25c-0.333,1-0.5,1.667-0.5,2c0,0.3,0.483,1.333,1.45,3.1c1.1,2,1.783,3.467,2.05,4.4
					c0.3,1.133,0.45,2.9,0.45,5.3c0,2.3,0.1,3.7,0.3,4.2h-1.45c-0.5-0.533-0.967-0.917-1.4-1.15c1.5,2.667,2.25,4.017,2.25,4.05
					c0.533,1.033,1.066,2.133,1.6,3.3c0.233,0.533,0.45,1.083,0.65,1.65c0.233,0.6,0.417,1.483,0.55,2.65
					c0.1,0.967,0.417,1.917,0.95,2.85c0.667,1.2,1.233,2.566,1.7,4.1c0.434,1.333,0.633,2.216,0.6,2.65
					c-0.133,0.267-0.333,0.4-0.6,0.4c-0.467,0-1.083-0.85-1.85-2.55c-0.333-0.767-0.617-1.5-0.85-2.2c0.667,2.9,1,4.5,1,4.8
					c0,0.267-0.05,0.517-0.15,0.75c-0.133,0.267-0.2,0.434-0.2,0.5c0,0.5,0.3,1.267,0.9,2.3c0.6,1.066,0.917,1.733,0.95,2
					c0.167,1.667,0.25,3.083,0.25,4.25c-0.067,0.433-0.1,0.733-0.1,0.9h-0.25c0,0.1,0.017,0.2,0.05,0.3
					c0,0.034,0.017,0.083,0.05,0.15c0.1,0.867,0.083,1.8-0.05,2.8c-0.3,1.267-0.45,2.05-0.45,2.35c0,0.367,0.566,0.867,1.7,1.5
					c0.067,0.033,0.15,0.066,0.25,0.1c1.033,0.6,1.967,0.95,2.8,1.05c0.867,0.1,2.05,0.467,3.55,1.1s2.617,1.017,3.35,1.15
					c1.333,0.233,2.933,1.233,4.8,3c0.2,0.2,0.684,0.7,1.45,1.5C60.717-70.317,61.95-68.983,63.55-67.25z M47.7-70.05
					c-0.233-0.567-0.434-1.067-0.6-1.5c-0.233-0.6-0.45-1.083-0.65-1.45c-0.4-0.8-0.8-1.483-1.2-2.05
					c-0.867-1.067-1.75-1.6-2.65-1.6c-0.233,0-0.55-0.033-0.95-0.1c-0.333-0.067-0.55,0.7-0.65,2.3c0,0.3-0.017,0.633-0.05,1
					c-0.067,2.333,0.5,4.15,1.7,5.45c0.733,0.833,1.817,1.617,3.25,2.35c0.833,0.433,1.783,0.867,2.85,1.3
					c1.433,0.533,2.717,1.117,3.85,1.75c1.3,0.7,2.417,1.467,3.35,2.3c2.667,2.333,4.9,5.7,6.7,10.1
					c0.067,0.167,0.133,0.317,0.2,0.45c0.033,0.067,0.083,0.133,0.15,0.2c0.167,0.233,0.35,0.45,0.55,0.65
					c0,0.033,0.017,0.066,0.05,0.1c0.033,0.033,0.066,0.066,0.1,0.1c0-0.033,0-0.066,0-0.1c-0.034,0-0.05-0.017-0.05-0.05
					c-0.1-0.333-0.25-0.733-0.45-1.2c-0.434-1-1.017-2.284-1.75-3.85c-1.8-3.833-3.25-6.1-4.35-6.8c-1.733-1.033-3.45-2-5.15-2.9
					C49.983-64.667,48-65.617,46-66.45c-0.3-0.133-0.567-0.283-0.8-0.45c-1.5-0.833-2.333-1.983-2.5-3.45c0-0.267,0-0.533,0-0.8
					c-0.034-2-0.034-3.583,0-4.75l1.4,0.65c0.933,0.7,1.933,2.033,3,4C47.3-70.85,47.5-70.45,47.7-70.05z M39.4-160.15
					c-0.1-0.033-0.217-0.067-0.35-0.1c-1.7-0.5-2.667-0.75-2.9-0.75c-0.3,0-0.783,0.05-1.45,0.15
					c-0.534,0.133-1.184,0.283-1.95,0.45c-0.433,0.133-0.817,0.233-1.15,0.3l-1.25,0.35c-0.7,0-1.35-0.25-1.95-0.75
					c-0.133-0.1-0.3-0.2-0.5-0.3c-0.6-0.3-1.367-0.45-2.3-0.45c-0.233,0-0.467-0.017-0.7-0.05c0.833,0.4,1.633,0.9,2.4,1.5
					c1.3,1.033,2.55,1.55,3.75,1.55c0.034,0,2.117-0.483,6.25-1.45C38.067-159.867,38.767-160.017,39.4-160.15z M7-160.5
					c4.067,0.033,7.7,0.65,10.9,1.85c0.833,0.333,1.867,0.767,3.1,1.3c0.933,0.4,1.667,0.6,2.2,0.6c0.966-0.5,1.517-0.75,1.65-0.75
					c0.733,0,1.75,0.25,3.05,0.75c0.267,0.1,1,0.433,2.2,1c0-0.267-0.233-0.6-0.7-1c-0.233-0.167-0.433-0.317-0.6-0.45
					c-0.433-0.367-0.667-0.55-0.7-0.55c-0.434-0.3-0.833-0.583-1.2-0.85l-0.1-0.05c-0.167-0.1-0.333-0.217-0.5-0.35h-0.05
					c-0.3,0.067-0.683,0.183-1.15,0.35c-0.667,0.267-1.3,0.4-1.9,0.4c-1.367,0-3.55-0.467-6.55-1.4c-2.967-0.9-5.566-1.35-7.8-1.35
					c-0.533,0-0.934,0.033-1.2,0.1C7.417-160.8,7.2-160.667,7-160.5z M22.2-58.45c0.267-0.133,0.583-0.367,0.95-0.7
					c0.633-0.567,1.117-0.934,1.45-1.1c0.1-0.067,0.283-0.167,0.55-0.3c0.167-0.067,0.367-0.167,0.6-0.3
					c0.433-0.267,0.883-0.483,1.35-0.65c1.033-0.4,2.167-1.033,3.4-1.9c1.667-1.2,2.617-1.867,2.85-2v0.2
					c0,0.2-0.083,0.383-0.25,0.55v0.15c0.066-0.167,0.217-0.433,0.45-0.8c0.367-0.6,0.917-1.467,1.65-2.6
					c1.1-1.9,1.65-3.434,1.65-4.6c0-0.067-0.033-0.217-0.1-0.45c-0.033,0.233-0.067,0.45-0.1,0.65
					c-1.367,2.633-2.333,4.517-2.9,5.65c-0.433,0.267-0.833,0.517-1.2,0.75c-2.733,1.7-4.75,3.017-6.05,3.95
					c-0.567,0.4-1.2,0.767-1.9,1.1c-0.367,0.167-0.767,0.317-1.2,0.45C23.1-59.933,22.7-59.283,22.2-58.45z M36.9-56.15
					c-0.033,0.3-0.05,0.533-0.05,0.7c0,1.367,0.117,2.55,0.35,3.55c-0.034-0.267-0.05-0.783-0.05-1.55c0-0.9,0-1.466,0-1.7
					c0.067-0.733,0.217-1.4,0.45-2c0.066-0.2,0.167-0.367,0.3-0.5s0.367,0,0.7,0.4c0.566,2.633,0.717,5.483,0.45,8.55
					c0,0.1,0,0.2,0,0.3c-0.033,0.367-0.066,0.733-0.1,1.1c-0.034,1.4-0.2,2.566-0.5,3.5c-0.167,0.466-0.267,0.783-0.3,0.95
					c-0.1,0.3-0.167,0.6-0.2,0.9c-0.034,0.7-0.267,1.233-0.7,1.6c-0.367,0.3-0.917,0.867-1.65,1.7
					c-0.033,0.066-0.067,0.117-0.1,0.15c0.067-0.033,0.133-0.05,0.2-0.05c0.933-0.267,1.566-0.633,1.9-1.1
					c0.367-0.5,0.7-1.117,1-1.85c0.133-0.4,0.333-0.95,0.6-1.65c0.4-0.9,0.65-2.117,0.75-3.65c0-0.233,0-0.65,0-1.25
					c0-0.133,0-0.284,0-0.45c0-0.567,0-1.25,0-2.05c0-0.233,0-1.684,0-4.35c0-0.333-0.167-0.983-0.5-1.95
					c-0.367-1.1-0.7-1.65-1-1.65c-0.434,0-0.833,0.417-1.2,1.25C37.083-56.883,36.967-56.517,36.9-56.15z M30.7-50.8
					c-0.034-0.4-0.05-0.784-0.05-1.15c0.033-1.733,0.017-2.833-0.05-3.3h-0.25c-1.1,2.267-1.85,4.517-2.25,6.75
					c-0.067,0.4-0.133,1.017-0.2,1.85c-0.066,0.633-0.15,1.4-0.25,2.3c-0.066,0.8-0.133,1.684-0.2,2.65c0.033,0.1,0.1-0.167,0.2-0.8
					c0.1-0.7,0.2-1.383,0.3-2.05c0.066-0.467,0.133-0.95,0.2-1.45c0.033-0.167,0.067-0.333,0.1-0.5c0.1-0.8,0.15-1.217,0.15-1.25
					c0.167-0.633,0.5-1.95,1-3.95c0.033,0,0.05-0.017,0.05-0.05c0.133-0.6,0.283-1.283,0.45-2.05
					C30.167-53.167,30.433-52.167,30.7-50.8z M31.4-55.3c-0.3,0.566-0.45,1.033-0.45,1.4c0,1.533,0.15,2.633,0.45,3.3
					c0.267,0.5,0.717,0.917,1.35,1.25l2.2,1.05c0.8,0.466,1.6,1.117,2.4,1.95L37.2-46.8c-0.7-0.7-1.35-1.233-1.95-1.6
					c0-0.033-0.033-0.05-0.1-0.05v-0.05l-0.05-0.05c-1.4-0.833-2.417-1.467-3.05-1.9C31.683-51.883,31.467-53.5,31.4-55.3z
					 M37.2-58.6c0.066-0.2,0.133-0.4,0.2-0.6c0.4-1.167,0.633-2.25,0.7-3.25c0-0.133,0-0.283,0-0.45c0-0.5-0.167-1.033-0.5-1.6
					c-0.4-0.667-0.867-1-1.4-1c-0.3,0-0.684,0.383-1.15,1.15c-0.433,0.667-0.917,1.633-1.45,2.9c0.867-1.4,1.55-2.25,2.05-2.55
					c0.367-0.2,0.65-0.133,0.85,0.2c0.233,0.066,0.417,0.3,0.55,0.7c0.167,0.567,0.25,1.45,0.25,2.65
					C37.3-59.983,37.267-59.367,37.2-58.6z M36.3-70.25v-0.15l0.05-0.05C36.318-70.386,36.302-70.32,36.3-70.25z"/>
				<path style="fill-rule:evenodd;clip-rule:evenodd;fill:#614E37;" d="M7-160.5c-0.167,0.133-0.3,0.3-0.4,0.5
					c0.167,0,0.25,0.083,0.25,0.25c3.3-0.067,5.733,0.283,7.3,1.05c0.767,0.434,1.367,0.767,1.8,1c0.733,0.4,1.533,0.717,2.4,0.95
					c0.033,0,0.633,0.117,1.8,0.35c1.367,0.3,2.6,0.65,3.7,1.05c2.566,1,4.2,2.233,4.9,3.7c0.033,0.767,0.083,1.533,0.15,2.3
					c0.5,5.7,1.2,11.35,2.1,16.95c1.133,6.9,2.567,13.667,4.3,20.3c1.467,5.567,2.383,10.95,2.75,16.15
					c0.1,1.4,0.167,2.784,0.2,4.15c0.067,2.433,0.017,4.917-0.15,7.45c-0.133,1.9-0.317,3.833-0.55,5.8
					c-0.233,1.833-0.5,3.7-0.8,5.6c0.067,0.233,0.1,0.383,0.1,0.45c0,1.167-0.55,2.7-1.65,4.6c-0.733,1.133-1.284,2-1.65,2.6
					c-0.233,0.367-0.383,0.633-0.45,0.8v-0.15c0.167-0.167,0.25-0.35,0.25-0.55v-0.2c-0.233,0.133-1.184,0.8-2.85,2
					c-1.233,0.867-2.367,1.5-3.4,1.9c-0.467,0.167-0.917,0.383-1.35,0.65c-0.233,0.133-0.433,0.233-0.6,0.3
					c-0.267,0.133-0.45,0.233-0.55,0.3c-0.333,0.167-0.817,0.533-1.45,1.1c-0.367,0.333-0.683,0.566-0.95,0.7
					c-0.4,0.7-0.85,1.517-1.35,2.45c-0.3,0.533-0.567,1.017-0.8,1.45c-0.133,0.233-0.25,0.45-0.35,0.65l-1.3,2.35
					c0.7-1.034,1.383-1.983,2.05-2.85c0.2-0.267,0.4-0.517,0.6-0.75c0.7-0.867,1.367-1.633,2-2.3c0.1-0.066,0.2-0.15,0.3-0.25v0.05
					c0.167,0.667,0.367,1.467,0.6,2.4v0.05c0.066,0.167,0.1,0.333,0.1,0.5c0,0.034-0.033,0.883-0.1,2.55c0,0.5,0,0.9,0,1.2
					c-0.034,0.7-0.017,0.9,0.05,0.6c0.1-0.467,0.233-1.3,0.4-2.5c0.167-1.2,0.25-1.816,0.25-1.85c0-0.167,0-0.333,0-0.5
					c0-0.033,0-0.066,0-0.1c0-0.7-0.033-1.55-0.1-2.55c0-0.1-0.017-0.183-0.05-0.25c-0.033-0.167-0.067-0.316-0.1-0.45
					c0.267-0.2,0.517-0.4,0.75-0.6c0.333-0.267,0.684-0.533,1.05-0.8c1.933-1.367,3.767-2.333,5.5-2.9
					c-0.067,0.233-0.15,0.467-0.25,0.7c-0.934,2.033-1.45,3.2-1.55,3.5c-0.033,0.2-0.083,0.383-0.15,0.55v0.05
					c-0.167,0.667-0.317,1.3-0.45,1.9c-0.3,1.433-0.6,2.867-0.9,4.3v0.05c-0.3,1.333-0.483,2.667-0.55,4l-0.05,1.1
					c-0.066,0.567-0.133,1.383-0.2,2.45c-0.033,0.467-0.083,0.967-0.15,1.5c0,0.6,0,0.95,0,1.05c0.066-0.966,0.133-1.85,0.2-2.65
					c0.1-0.9,0.184-1.667,0.25-2.3c0.067-0.833,0.133-1.45,0.2-1.85c0.4-2.233,1.15-4.483,2.25-6.75h0.25
					c0.066,0.467,0.083,1.567,0.05,3.3c0,0.367,0.017,0.75,0.05,1.15c0.066,0.267,0.117,0.566,0.15,0.9c0,0.033,0,0.066,0,0.1
					c0.066,0.2,0.1,0.35,0.1,0.45v0.15c0.267,1.267,0.517,2.733,0.75,4.4c0.033,0.267,0.066,0.517,0.1,0.75
					c0.034,0.133,0.05,0.267,0.05,0.4c0.3,2.167,0.5,3.383,0.6,3.65c0.1,0.233,0.117,0.167,0.05-0.2c-0.133-2.1-0.167-3.15-0.1-3.15
					v-0.05c0-0.133-0.017-0.283-0.05-0.45c0-0.2-0.017-0.417-0.05-0.65c-0.1-0.8-0.183-1.467-0.25-2c-0.1-0.633-0.15-1.533-0.15-2.7
					c1.267,0.434,2.2,0.8,2.8,1.1c0.033,0,0.2,0.1,0.5,0.3c0.267,0.233,0.816,0.7,1.65,1.4c0.233,0.2,0.55,0.8,0.95,1.8l-0.1-0.6
					l-0.35-1.15c-0.8-0.833-1.6-1.483-2.4-1.95l-2.2-1.05c-0.633-0.333-1.083-0.75-1.35-1.25c-0.3-0.667-0.45-1.767-0.45-3.3
					c0-0.367,0.15-0.833,0.45-1.4c-0.033-0.4-0.05-0.817-0.05-1.25l1.05-2.9c0.434-0.767,0.833-1.433,1.2-2
					c0.533-1.267,1.017-2.233,1.45-2.9c0.467-0.767,0.85-1.15,1.15-1.15c0.533,0,1,0.333,1.4,1c0.333,0.567,0.5,1.1,0.5,1.6
					c0,0.167,0,0.316,0,0.45c-0.067,1-0.3,2.083-0.7,3.25c-0.066,0.2-0.133,0.4-0.2,0.6c-0.034,0.133-0.067,0.283-0.1,0.45
					c0,0.033,0,0.066,0,0.1c-0.133,0.233-0.267,0.466-0.4,0.7c-0.2,0.367-0.383,0.767-0.55,1.2c0,0.033-0.017,0.066-0.05,0.1
					c-0.1,0.3-0.4,1.15-0.9,2.55c0.566-1.267,0.883-1.95,0.95-2.05c0.333-0.767,0.617-1.267,0.85-1.5
					c-0.067,0.333-0.1,0.633-0.1,0.9c0.067-0.367,0.184-0.733,0.35-1.1c0.367-0.833,0.767-1.25,1.2-1.25c0.3,0,0.633,0.55,1,1.65
					c0.333,0.967,0.5,1.617,0.5,1.95c0,2.667,0,4.117,0,4.35c0,0.8,0,1.483,0,2.05c0,0.167,0,0.317,0,0.45c0,0.6,0,1.017,0,1.25
					c-0.1,1.533-0.35,2.75-0.75,3.65c-0.267,0.7-0.467,1.25-0.6,1.65c-0.3,0.733-0.633,1.35-1,1.85
					c-0.333,0.467-0.967,0.833-1.9,1.1c-0.067,0-0.133,0.017-0.2,0.05c-0.4,0.433-0.983,0.783-1.75,1.05
					c-0.167,0.067-0.35,0.133-0.55,0.2c-0.434,0.2-0.883,0.383-1.35,0.55c-0.067,0.034-0.15,0.067-0.25,0.1
					c-0.133,0.1-0.283,0.184-0.45,0.25c-0.267,0.1-0.6,0.267-1,0.5c-0.267,0.167-0.45,0.283-0.55,0.35c0.066,0,0.133-0.017,0.2-0.05
					c0.534-0.267,1.383-0.583,2.55-0.95c0.133-0.033,0.267-0.067,0.4-0.1c1.467-0.367,2.2-0.566,2.2-0.6
					c0.333-0.2,0.716-0.483,1.15-0.85c0.533-0.3,1.117-0.684,1.75-1.15c0.1-0.033,0.2-0.05,0.3-0.05c0.6,0,0.967,0.2,1.1,0.6
					c0.367,1.066,0.6,1.7,0.7,1.9c0.066,0.1,0.25,0.333,0.55,0.7c0.3,0.333,0.533,0.683,0.7,1.05c0.3,0.733,0.5,1.2,0.6,1.4
					c0.133,0.333,0.317,0.55,0.55,0.65c0.566,0.3,1.133,0.6,1.7,0.9c0.8,0.433,1.55,0.85,2.25,1.25
					c-0.233-0.233-0.417-0.467-0.55-0.7H45.7c-0.367-0.6-1.017-1.167-1.95-1.7c-0.8-0.433-1.267-0.917-1.4-1.45
					c-0.1-0.267-0.567-1.317-1.4-3.15c-0.567-1.3-0.85-2.35-0.85-3.15c0-0.6,0.167-1.566,0.5-2.9c0.333-1.333,0.5-2.45,0.5-3.35
					c0-0.133,0-0.267,0-0.4c0-0.233-0.017-0.467-0.05-0.7c-0.033-1.034-0.117-2.15-0.25-3.35c-0.167-1.633-0.367-2.917-0.6-3.85v-2
					c0.133,0,0.316-0.05,0.55-0.15c0.2-0.067,0.35-0.1,0.45-0.1c0.466,0,1.716,1.617,3.75,4.85c0.466,0.8,0.966,1.816,1.5,3.05
					c0.5,1.167,0.75,1.867,0.75,2.1c0,0.167-0.05,0.4-0.15,0.7c-0.133,0.367-0.383,0.85-0.75,1.45
					c-0.033,0.033-0.066,0.083-0.1,0.15c-0.6,1-0.934,2.367-1,4.1V-41c0,0.033,0,0.067,0,0.1c-0.034,0.3-0.05,0.6-0.05,0.9
					c0,0.1,0.05,0.917,0.15,2.45v0.25c0.034-0.733,0.117-1.6,0.25-2.6c0.2-1.333,0.45-2.65,0.75-3.95
					c0.133-0.6,0.317-1.117,0.55-1.55c0.167-0.333,0.35-0.6,0.55-0.8c0.133,0.367,0.267,0.75,0.4,1.15c0.333,1,0.667,2.083,1,3.25
					c0.333,0.566,0.5,0.833,0.5,0.8c0,0.067,0.017,0.15,0.05,0.25l2.8,7.1c-0.533-1.5-0.967-2.783-1.3-3.85l2.1,5.75
					c-1.567-5.6-2.733-9.833-3.5-12.7c-0.267-0.9-0.483-1.667-0.65-2.3c-0.2-0.733-0.35-1.283-0.45-1.65
					c1.167,0.367,2.45,0.816,3.85,1.35c0.867,0.367,1.8,0.867,2.8,1.5c0.446,0.287,0.905,0.579,1.375,0.875
					C56.258-44.739,56.2-44.714,56.2-44.6c0,0.633,0.066,1.317,0.2,2.05c0,0.1,0,0.2,0,0.3c0.1,0.2,0.167,0.383,0.2,0.55
					c0,0.034,0.017,0.067,0.05,0.1c0.133,0.6,0.3,1.067,0.5,1.4c0.033,0.034,0.083,0.05,0.15,0.05
					c-0.033-0.533-0.05-0.983-0.05-1.35c-0.033-0.633-0.05-0.983-0.05-1.05c-0.034-0.434,0-0.9,0.1-1.4V-44c0-0.1,0-0.2,0-0.3
					c1.5,1.033,2.934,2.133,4.3,3.3l2.2,2.1c0.233,0.233,0.483,0.483,0.75,0.75c0.2,0.2,0.417,0.4,0.65,0.6
					c0.367,0.367,0.75,0.75,1.15,1.15c-0.233-0.333-0.467-0.633-0.7-0.9c-0.2-0.267-0.383-0.517-0.55-0.75
					c-0.167-0.167-0.317-0.333-0.45-0.5c-1.533-1.833-2.833-3.233-3.9-4.2c-0.733-0.4-1.217-0.667-1.45-0.8
					c-0.5-0.267-1.283-0.667-2.35-1.2c0,0.167-0.034,0.25-0.1,0.25c-0.367-0.333-0.717-0.633-1.05-0.9c-0.5-0.434-0.95-0.8-1.35-1.1
					c-0.8-0.567-1.717-1.117-2.75-1.65c-1.667-0.667-2.8-1.167-3.4-1.5c-0.9-0.5-1.6-1.283-2.1-2.35
					c-0.067-0.167-1.217-1.817-3.45-4.95c-1.067-1.466-1.8-2.833-2.2-4.1c-0.233-0.733-0.35-1.434-0.35-2.1
					c0-0.167,0.033-0.417,0.1-0.75c0.034-0.2,0.067-0.367,0.1-0.5c0.033-0.1,0.05-0.184,0.05-0.25c0.1-0.033,0.216-0.067,0.35-0.1
					c0.2-0.1,0.35-0.15,0.45-0.15c0.9,0,2.583,0.383,5.05,1.15c0.3,0.1,0.6,0.2,0.9,0.3c0.333,0.1,0.667,0.217,1,0.35
					c1.466,0.434,2.767,1.033,3.9,1.8c0.833,0.566,1.583,1.233,2.25,2c-0.8,1.4-1.483,2.617-2.05,3.65v0.05
					c-0.367,0.7-0.7,1.317-1,1.85c0.034,0.167,0.067,0.317,0.1,0.45c0.033,0.2,0.067,0.4,0.1,0.6c0.167,1,0.267,1.684,0.3,2.05
					c0-0.633,0.083-1.267,0.25-1.9c0.034-0.167,0.067-0.333,0.1-0.5c0.2-0.633,0.467-1.25,0.8-1.85c0.033-0.1,0.083-0.2,0.15-0.3
					c0.066-0.1,0.133-0.2,0.2-0.3c0.667-0.967,1.483-1.7,2.45-2.2c0.333-0.167,0.7-0.3,1.1-0.4c2.6,2.567,4.117,4.45,4.55,5.65
					c0.233,0.733,0.583,1.467,1.05,2.2c0.133,0.167,0.267,0.333,0.4,0.5c-0.067-0.133-0.133-0.283-0.2-0.45
					c-1.8-4.4-4.033-7.767-6.7-10.1c-0.934-0.833-2.05-1.6-3.35-2.3c-1.133-0.633-2.417-1.217-3.85-1.75
					c-1.067-0.433-2.017-0.867-2.85-1.3c-1.433-0.733-2.517-1.517-3.25-2.35c-1.2-1.3-1.767-3.117-1.7-5.45
					c0.033-0.367,0.05-0.7,0.05-1c0.1-1.6,0.317-2.367,0.65-2.3c0.4,0.067,0.717,0.1,0.95,0.1c0.9,0,1.783,0.533,2.65,1.6
					c0.4,0.566,0.8,1.25,1.2,2.05c0.2,0.367,0.417,0.85,0.65,1.45c0.167,0.433,0.367,0.933,0.6,1.5c0.4,0.833,0.733,1.617,1,2.35
					v-0.05c0-0.4-0.05-0.867-0.15-1.4c-0.133-0.6-0.333-1.267-0.6-2c0.466,0.2,1.033,0.5,1.7,0.9c1.267,0.767,2.2,1.533,2.8,2.3
					c-0.4-0.833-1.167-1.683-2.3-2.55c-0.767-0.6-1.6-1.133-2.5-1.6c-0.1-0.167-0.217-0.433-0.35-0.8
					c-0.133-0.333-0.3-0.617-0.5-0.85c-0.5-0.633-0.816-1.083-0.95-1.35c0.433,0.067,1.017,0.117,1.75,0.15
					c0.533,0.034,1.017,0.067,1.45,0.1c2.133,0.2,3.284,0.317,3.45,0.35c0.3,0.1,0.6,0.2,0.9,0.3c0.3,0.133,0.65,0.284,1.05,0.45
					c1.767,0.733,3.017,1.333,3.75,1.8c0.066,0.067,0.167,0.15,0.3,0.25c0.3,0.233,0.733,0.583,1.3,1.05
					c0.067,0.3,0.184,0.733,0.35,1.3c0.333,1.167,0.617,2.133,0.85,2.9c0.267,0.833,0.683,1.684,1.25,2.55
					c0.2,0.267,0.383,0.517,0.55,0.75c-0.4-0.767-0.816-1.8-1.25-3.1c-0.167-0.533-0.517-1.783-1.05-3.75
					c0.3,0.267,0.617,0.55,0.95,0.85c0.9,0.8,1.6,1.433,2.1,1.9c-1.6-1.733-2.833-3.067-3.7-4c-0.767-0.8-1.25-1.3-1.45-1.5
					c-1.867-1.767-3.467-2.767-4.8-3c-0.733-0.133-1.85-0.517-3.35-1.15s-2.683-1-3.55-1.1c-0.833-0.1-1.767-0.45-2.8-1.05
					c-0.1-0.034-0.183-0.067-0.25-0.1c-1.133-0.633-1.7-1.133-1.7-1.5c0-0.3,0.15-1.083,0.45-2.35c0.133-1,0.15-1.933,0.05-2.8
					c-0.034-0.067-0.05-0.117-0.05-0.15c-0.033-0.1-0.05-0.2-0.05-0.3h0.25c0-0.167,0.033-0.467,0.1-0.9
					c0-1.167-0.083-2.583-0.25-4.25c-0.034-0.267-0.35-0.934-0.95-2c-0.6-1.033-0.9-1.8-0.9-2.3c0-0.066,0.066-0.233,0.2-0.5
					c0.1-0.233,0.15-0.483,0.15-0.75c0-0.3-0.333-1.9-1-4.8c0.233,0.7,0.517,1.433,0.85,2.2c0.767,1.7,1.383,2.55,1.85,2.55
					c0.267,0,0.467-0.133,0.6-0.4c0.033-0.434-0.167-1.317-0.6-2.65c-0.467-1.534-1.033-2.9-1.7-4.1
					c-0.534-0.934-0.85-1.883-0.95-2.85c-0.133-1.167-0.317-2.05-0.55-2.65c-0.2-0.567-0.417-1.117-0.65-1.65
					c-0.533-1.167-1.066-2.267-1.6-3.3c0-0.033-0.75-1.383-2.25-4.05c0.433,0.233,0.9,0.617,1.4,1.15h1.45c-0.2-0.5-0.3-1.9-0.3-4.2
					c0-2.4-0.15-4.167-0.45-5.3c-0.267-0.933-0.95-2.4-2.05-4.4c-0.967-1.767-1.45-2.8-1.45-3.1c0-0.333,0.167-1,0.5-2
					c0.333-1.033,0.5-1.783,0.5-2.25c0-0.033-0.316-2.017-0.95-5.95c-0.167-0.933-0.333-1.783-0.5-2.55
					c-0.1,0.4-0.233,0.883-0.4,1.45c-0.267,1.033-0.5,1.833-0.7,2.4c-0.167,0.333-0.3,0.583-0.4,0.75v-2
					c0.033-0.1,0.1-0.617,0.2-1.55c0.1-0.833,0.15-1.35,0.15-1.55c0-0.467-0.133-1.233-0.4-2.3c-0.3-1.067-0.45-1.717-0.45-1.95
					c0.367,0,0.667,0.017,0.9,0.05c0.067,0.034,0.133,0.05,0.2,0.05c-0.067-0.233-0.167-1.367-0.3-3.4c0-0.067,0-0.133,0-0.2
					c0.267-0.6,0.883-0.883,1.85-0.85c0.667,0,1.167-0.05,1.5-0.15c0.3-0.067,0.483-0.15,0.55-0.25c0.467-0.7,1.017-1.167,1.65-1.4
					c0.4-0.167,1.1-0.283,2.1-0.35c0.5-0.033,1.083-0.25,1.75-0.65c0.233-0.167,0.483-0.283,0.75-0.35
					c-0.267,0-1.15-0.217-2.65-0.65c-0.633,0.133-1.333,0.283-2.1,0.45c-4.133,0.967-6.216,1.45-6.25,1.45
					c-1.2,0-2.45-0.517-3.75-1.55c-0.767-0.6-1.566-1.1-2.4-1.5c-0.167,0-0.316-0.017-0.45-0.05c-1.3,0.067-2.284-0.133-2.95-0.6
					c-0.667-0.5-1.083-0.816-1.25-0.95c-0.067-0.033-0.117-0.067-0.15-0.1h-0.25c-1.133-0.333-1.867-0.5-2.2-0.5
					c-0.333,0-0.733,0.033-1.2,0.1c-0.467,0.1-0.8,0.183-1,0.25c0.267,0.233,0.716,0.45,1.35,0.65c0.967,0.267,1.517,0.433,1.65,0.5
					c0.167,0.067,0.533,0.333,1.1,0.8c0.467,0.4,0.9,0.633,1.3,0.7c1.1,0.167,2.167,0.4,3.2,0.7c0.967,0.267,1.7,0.533,2.2,0.8h0.05
					c0.167,0.133,0.333,0.25,0.5,0.35l0.1,0.05c0.367,0.267,0.767,0.55,1.2,0.85c0.033,0,0.267,0.183,0.7,0.55
					c0.167,0.133,0.367,0.284,0.6,0.45c0.467,0.4,0.7,0.733,0.7,1c-1.2-0.567-1.934-0.9-2.2-1c-1.3-0.5-2.316-0.75-3.05-0.75
					c-0.133,0-0.684,0.25-1.65,0.75c-0.534,0-1.267-0.2-2.2-0.6c-1.233-0.533-2.267-0.967-3.1-1.3
					C14.7-159.85,11.067-160.467,7-160.5z"/>
			</g>
		</g>
	</g>
</symbol>
<g>
	<g>
		<path style="fill-rule:evenodd;clip-rule:evenodd;fill-opacity:0.451;" d="M101.55,320.475c-2.039,0.316-4.239,0.458-6.6,0.426
			l-2.625-0.051c-0.085-0.003-0.144-0.036-0.175-0.1v0.1c-0.811-0.025-2.061-0.192-3.75-0.5c-1.834-0.333-3.284-0.5-4.351-0.5
			l-5.3,1.601c-2.533,0.666-4.517,1.083-5.95,1.25c-1.267,0.133-1.9,0.05-1.9-0.25c0.112,0,0.229,0,0.35,0
			c-0.07-0.002-0.153-0.035-0.25-0.101c-0.067-0.033-0.1,0-0.1,0.101c-1.183-0.006-2.033-0.039-2.55-0.101
			c-0.067,0-1.55-0.216-4.45-0.649c-1.367-0.233-2.45-0.45-3.25-0.65c-0.433-0.133-0.9-0.2-1.4-0.2c-0.667,0-1.7,0.25-3.1,0.75
			c-1.933,0.7-2.983,1.067-3.15,1.101c-1.167,0.3-2.45,0.383-3.85,0.25c-1.367-0.101-2.533-0.017-3.5,0.25
			c-0.7,0.166-1.517,0.649-2.45,1.45c-1.034,0.866-1.934,1.433-2.7,1.699c-1.133,0.367-2.267,0.567-3.4,0.601
			c-1.9,0.033-3.434,0.116-4.6,0.25H31c-0.067,0-0.1-0.084-0.1-0.25c0-0.134,1.333-0.684,4-1.65
			c1.708-0.596,3.166-1.054,4.375-1.375c0.824-0.222,1.532-0.381,2.125-0.475c0.5-0.101,1.4-0.483,2.7-1.15
			c1.533-0.767,2.55-1.25,3.05-1.45c0.633-0.233,1.583-0.55,2.85-0.949c0.837-0.329,1.296-0.755,1.375-1.275
			c-1.212-0.198-2.304-0.373-3.275-0.525c-2.1-0.333-3.467-0.5-4.1-0.5c-0.42,0-1.579,0.2-3.475,0.601
			c-0.191,0.04-0.392,0.082-0.6,0.125c-1.96,0.425-4.602,1.033-7.925,1.825c-7.167,1.699-11.767,2.55-13.8,2.55
			c-0.833,0-2.65-0.2-5.45-0.601V321.7c0.467-0.2,1.05-0.367,1.75-0.5h0.9c0.038,0.057,0.113,0.098,0.225,0.125
			c0.087,0.017,0.195,0.024,0.325,0.024c0.966,0,3.2-0.35,6.7-1.05c3.8-0.767,6.55-1.467,8.25-2.1c1.867-0.733,4.95-1.717,9.25-2.95
			c4.916-1.396,7.491-1.887,7.725-1.475c-0.032,0.048-0.09,0.073-0.175,0.074c0.348,0.004,1.498,0.221,3.45,0.65
			c2.4,0.533,4.567,0.934,6.5,1.2c3.7,0.5,7.5,0.866,11.4,1.1c3.354,0.21,5.196,0.234,5.525,0.075l0.075-0.025
			c1.339-0.016,2.39-0.049,3.15-0.1c1.034-0.1,1.833-0.15,2.4-0.15c3.166,0,6.3,0.417,9.399,1.25
			c4.271,1.146,8.037,1.971,11.301,2.476L101.55,320.475z M51.75,318.7c-0.034-0.006-0.067-0.015-0.1-0.025v0.025H51.75z"/>
		<path style="fill-rule:evenodd;clip-rule:evenodd;fill-opacity:0.2;" d="M39.275,323.925c0.461-0.223,1.037-0.498,1.725-0.825
			c0.6-0.3,1.433-0.899,2.5-1.8c1.167-0.934,1.75-1.533,1.75-1.8c0-0.3-0.367-0.517-1.1-0.65c-1.667-0.366-2.633-0.583-2.9-0.649
			h-0.725c1.896-0.4,3.055-0.601,3.475-0.601c0.633,0,2,0.167,4.1,0.5c0.971,0.152,2.063,0.327,3.275,0.525
			c-0.079,0.521-0.538,0.946-1.375,1.275c-1.267,0.399-2.217,0.716-2.85,0.949c-0.5,0.2-1.517,0.684-3.05,1.45
			c-1.3,0.667-2.2,1.05-2.7,1.15C40.807,323.544,40.099,323.703,39.275,323.925z M92.15,320.85h0.175l2.625,0.051
			c2.36,0.032,4.561-0.109,6.6-0.426l2.7,0.476l-0.1,0.5c-4.601,0.434-7.733,0.649-9.4,0.649c-1.467,0-2.934-0.116-4.4-0.35
			c-1.433-0.267-2.949-0.4-4.55-0.4c-1.5,0-3.833,0.351-7,1.051c-3.133,0.699-5.767,1.05-7.9,1.05c-1,0-2.583-0.184-4.75-0.55
			c-2.167-0.367-3.917-0.551-5.25-0.551c-1.2,0-2.667,0.267-4.4,0.801c-1.967,0.6-5,1-9.1,1.199c-0.867,0.034-1.633,0.367-2.3,1
			c-0.8,0.733-1.367,1.15-1.7,1.25c-0.9,0.301-1.633,0.534-2.2,0.7c-1.067,0.267-2.15,0.4-3.25,0.4c-0.667,0-1.55-0.084-2.65-0.25
			c-1.1-0.167-1.933-0.25-2.5-0.25c-0.079,0-0.179,0-0.3,0c1.167-0.134,2.7-0.217,4.6-0.25c1.133-0.033,2.267-0.233,3.4-0.601
			c0.767-0.267,1.667-0.833,2.7-1.699c0.933-0.801,1.75-1.284,2.45-1.45c0.967-0.267,2.133-0.351,3.5-0.25
			c1.4,0.133,2.684,0.05,3.85-0.25c0.167-0.033,1.217-0.4,3.15-1.101c1.4-0.5,2.434-0.75,3.1-0.75c0.5,0,0.967,0.067,1.4,0.2
			c0.8,0.2,1.883,0.417,3.25,0.65c2.9,0.434,4.383,0.649,4.45,0.649c0.517,0.062,1.367,0.095,2.55,0.101c0,0.3,0.633,0.383,1.9,0.25
			c1.434-0.167,3.417-0.584,5.95-1.25l5.3-1.601c1.066,0,2.517,0.167,4.351,0.5C90.09,320.657,91.34,320.824,92.15,320.85z"/>
	</g>
</g>
<use xlink:href="#red_x5F_tree_x5F_02"  width="81.493" height="163.5" x="0.007" y="-163.5" transform="matrix(2 0 0 -2 0 0)" style="overflow:visible;"/>
</svg>
