<?xml version="1.0" encoding="iso-8859-1"?>
<!-- Generator: Adobe Illustrator 16.0.0, SVG Export Plug-In . SVG Version: 6.00 Build 0)  -->
<!DOCTYPE svg PUBLIC "-//W3C//DTD SVG 1.1//EN" "http://www.w3.org/Graphics/SVG/1.1/DTD/svg11.dtd">
<svg version="1.1" id="Layer_1" xmlns="http://www.w3.org/2000/svg" xmlns:xlink="http://www.w3.org/1999/xlink" x="0px" y="0px"
	 width="153px" height="390px" viewBox="0 0 153 390" style="enable-background:new 0 0 153 390;" xml:space="preserve">
<symbol  id="blue_x5F_tree_x5F_02" viewBox="0 -193.85 75.25 193.85">
	<g id="Layer_3_1_">
		<g>
			<path style="fill-rule:evenodd;clip-rule:evenodd;fill:#483217;" d="M47.25-36.55l1.25,8c-1.067-12.333-1.75-19.75-2.05-22.25
				c1.066,0.667,2.216,1.466,3.45,2.4c1.2,1,2.434,2.3,3.7,3.9c-0.067,0.167-0.1,0.35-0.1,0.55c0,1.133,0.067,2.383,0.2,3.75
				c0,0.167,0.017,0.367,0.05,0.6c0.067,0.367,0.117,0.733,0.15,1.1c0.033,0.1,0.05,0.2,0.05,0.3c0.1,0.934,0.233,1.65,0.4,2.15
				c0.033,0.066,0.767,3.617,2.2,10.65c-0.433-3.3-0.683-5.617-0.75-6.95c-0.066-1.3-0.333-2.983-0.8-5.05
				c0.433,0.6,0.717,0.983,0.85,1.15c1,1.267,2.517,4.3,4.55,9.1c1.667,4.066,2.967,7.683,3.9,10.85
				c-0.466-2.1-1.383-5.167-2.75-9.2c0.2-0.133,0.367-0.133,0.5,0c0.167,0.133,0.367,0.25,0.6,0.35c0.1,0.033,0.2,0.083,0.3,0.15
				c1.367,0.867,2.716,1.767,4.05,2.7c0.733,0.533,1.467,1.083,2.2,1.65c0.133,0.133,0.283,0.25,0.45,0.35
				c0.267,0.167,0.533,0.333,0.8,0.5c-0.133-0.133-0.267-0.267-0.4-0.4c-0.466-0.5-0.816-0.85-1.05-1.05
				c-0.267-0.167-0.617-0.45-1.05-0.85c-0.434-0.367-0.883-0.783-1.35-1.25c-0.5-0.467-0.783-0.733-0.85-0.8
				c-0.133-0.2-0.333-0.317-0.6-0.35c-0.066-0.033-0.15-0.067-0.25-0.1c-0.8-0.367-1.6-0.767-2.4-1.2
				c-0.467-0.267-0.917-0.534-1.35-0.8c-1.566-4.433-3.55-8.75-5.95-12.95l-0.45-3.55c1.333,1.934,2.65,3.833,3.95,5.7
				c0.033,0,0.083,0.083,0.15,0.25c0.1,0.2,0.233,0.483,0.4,0.85c0.067,0.167,0.4,0.583,1,1.25c-0.1-0.167-0.183-0.317-0.25-0.45
				c-1.3-2.667-2.45-4.867-3.45-6.6c-0.167-0.3-0.333-0.583-0.5-0.85c-0.5-0.833-0.95-1.583-1.35-2.25
				c-1.767-1.4-3.184-2.566-4.25-3.5c-1.633-1.433-3.167-2.483-4.6-3.15c-0.133-2-0.733-4.333-1.8-7c-0.6-1.5-1.5-3.583-2.7-6.25
				c-0.3,0.133-0.5,0.25-0.6,0.35c-0.233,0.233-0.367,0.533-0.4,0.9H40.1c0.066-0.733,0.033-1.483-0.1-2.25
				c-0.133-0.8-0.35-1.467-0.65-2v-0.25l0.75,0.75v-2c-0.167-0.933-0.684-2.617-1.55-5.05c-0.667-2.333-0.733-4.233-0.2-5.7v-3.5
				c-0.367,0.167-0.767,0.434-1.2,0.8c-0.2,0.167-0.633,0.566-1.3,1.2c0.033-0.167,0.517-1.75,1.45-4.75
				c0.6-1.933,0.867-3.933,0.8-6c-0.033-1.533,0.017-3.583,0.15-6.15c0.1-1.4,0.217-3.433,0.35-6.1v0.25
				c1.066-0.233,1.566-1.15,1.5-2.75c-0.067-0.8-0.233-1.633-0.5-2.5c0-2.867,0-4.517,0-4.95c-0.1-2.034-0.35-3.883-0.75-5.55v-2
				c0.167,0,0.25,0.083,0.25,0.25c0.533-0.033,0.85-0.35,0.95-0.95c0.034-0.167,0.05-0.717,0.05-1.65c0-0.533-0.7-3.367-2.1-8.5
				c-0.8-2.9-1.417-5.1-1.85-6.6c0.167,0.133,0.35,0.267,0.55,0.4c0.8,0.467,1.433,0.65,1.9,0.55c0-0.267,0.05-0.583,0.15-0.95
				c0.067-0.4,0.1-0.7,0.1-0.9c0-5.233-0.25-12.45-0.75-21.65c-0.067-1.433-0.367-3.316-0.9-5.65c-0.467-1.967-0.667-3.667-0.6-5.1
				c0.133-1.967-0.067-3.95-0.6-5.95c-0.6-2.167-0.9-3.383-0.9-3.65c0-0.233,0.25-0.7,0.75-1.4c0.233-0.4,0.4-0.85,0.5-1.35
				c0,0.133,0,0.25,0,0.35c0,0.767,0.033,1.283,0.1,1.55c0.1,0.566,0.316,0.966,0.65,1.2h1.75c0.033-0.633,0.35-1.367,0.95-2.2
				c0.633-0.867,1.2-1.3,1.7-1.3c0.033,0,0.083,0.033,0.15,0.1c0.3-0.433,0.65-0.767,1.05-1c0.633-0.333,1.85-0.783,3.65-1.35
				c0.333-0.1,0.683-0.4,1.05-0.9s0.767-0.867,1.2-1.1c1.7-0.767,2.783-1.183,3.25-1.25v-0.25c-0.5-0.233-2.2-0.5-5.1-0.8
				c-0.6,0.033-1.2,0.05-1.8,0.05c-0.067,0.1-0.133,0.184-0.2,0.25c-0.2,0.133-0.4,0.233-0.6,0.3c-0.367,0.133-0.8,0.283-1.3,0.45
				c-0.2,0.133-0.4,0.283-0.6,0.45c-0.867,0.733-1.4,1.133-1.6,1.2c-0.033,0-0.75,0.2-2.15,0.6c-0.367,0.1-0.533,0.25-0.5,0.45h-0.3
				c-0.534-0.067-1.317-0.317-2.35-0.75c-1.067-0.467-1.75-0.75-2.05-0.85c-0.433-0.167-0.816-0.25-1.15-0.25c-0.3,0-0.533,0-0.7,0
				c-0.434-0.033-0.934-0.15-1.5-0.35c-0.534-0.167-0.95-0.25-1.25-0.25c-0.333,0-0.567,0.083-0.7,0.25
				c-0.1,0.133-0.25,0.2-0.45,0.2c-0.267,0-0.433-0.067-0.5-0.2l0.35-0.25c-0.267-0.6-1.25-1.1-2.95-1.5
				c-0.833-0.2-2.034-0.383-3.6-0.55c-0.067,0.033-0.15,0.066-0.25,0.1c1.066,0.2,2.066,0.533,3,1c0.4,0.2,0.833,0.35,1.3,0.45
				c0.434,0.1,0.9,0.3,1.4,0.6c0.133,0.467,0.45,0.75,0.95,0.85c0.567,0,1.117,0.017,1.65,0.05c0.1,0.033,0.217,0.05,0.35,0.05
				c0.2,0.066,0.383,0.117,0.55,0.15c0.267,0.133,0.534,0.267,0.8,0.4c0.066,0,0.15,0,0.25,0c1.033,0.4,1.767,0.767,2.2,1.1
				c0.667,0.467,1.317,1.25,1.95,2.35c-0.233-0.2-0.617-0.417-1.15-0.65c-0.633-0.3-0.983-0.466-1.05-0.5
				c-0.1-0.133-0.216-0.267-0.35-0.4c-0.233-0.2-0.483-0.333-0.75-0.4c-0.5-0.133-1.05-0.2-1.65-0.2c-0.267,0-0.466,0-0.6,0H29.4
				c-0.066,0-0.1,0.017-0.1,0.05c-0.8,0-1.25,0.033-1.35,0.1c-0.2,0.333-0.5,0.783-0.9,1.35c-0.1-0.5-0.35-0.783-0.75-0.85
				l-0.6-0.15c0-0.1,0.033-0.2,0.1-0.3c0-0.133-0.566-0.3-1.7-0.5c-1.233-0.233-1.867-0.367-1.9-0.4c-0.7-0.233-1.25-0.5-1.65-0.8
				c-0.2,0.4-0.3,0.633-0.3,0.7c-0.267-0.967-1.533-1.467-3.8-1.5c-0.091,0.068-0.166,0.151-0.225,0.25c0.039,0,0.081,0,0.125,0
				c0.733,0.004,1.649,0.295,2.75,0.875c1.104,0.577,2.229,1.019,3.375,1.325c1.145,0.305,1.903,0.588,2.275,0.85
				c0.369,0.265,0.668,0.449,0.9,0.55c0.767,0.3,1.35,0.8,1.75,1.5c0.233,0.433,0.383,0.867,0.45,1.3
				c0.033,0.133,0.083,0.267,0.15,0.4c0.233,0.5,0.5,0.967,0.8,1.4c0.2,0.267,0.4,0.5,0.6,0.7c0.1,0.067,0.184,0.133,0.25,0.2
				c0.067,0.033,0.133,0.05,0.2,0.05c0.133,0.233,0.25,0.467,0.35,0.7c0.4,1.066,0.683,2.15,0.85,3.25
				c0.2,1.533,0.417,3.05,0.65,4.55c0.033,0.133,0.05,0.267,0.05,0.4c0,0.1,0,0.217,0,0.35c0.067,1.467,0.283,2.883,0.65,4.25
				c0.067,0.333,0.117,0.667,0.15,1c0.067,1.434,0.067,2.85,0,4.25c-0.033,0.167-0.05,0.333-0.05,0.5c-0.067,1.5-0.1,3-0.1,4.5
				c0,1.667,0.033,3.333,0.1,5c0,0.333,0.017,0.667,0.05,1c0.034,1.633,0.25,3.217,0.65,4.75c0.4,1.567,0.7,3.15,0.9,4.75
				c0.167,1.567,0.25,3.15,0.25,4.75c0.033,3.267,0.083,6.517,0.15,9.75c0.033,1.1,0.067,2.184,0.1,3.25
				c0.033,0.434,0.1,0.85,0.2,1.25c0.167,0.7,0.25,1.45,0.25,2.25c-0.033,0.833,0.05,1.6,0.25,2.3
				c0.067,0.133,0.117,0.283,0.15,0.45c0.3,0.767,0.45,1.6,0.45,2.5c0,1.667,0.033,3.333,0.1,5c0,0.167,0,0.333,0,0.5
				c0.1,2.1,0.133,4.184,0.1,6.25c-0.033,0.9,0.083,1.65,0.35,2.25c0.033,0.1,0.066,0.2,0.1,0.3L36.6-101
				c-0.133,2.633-0.283,4.683-0.45,6.15c-0.033,0.434-0.083,0.867-0.15,1.3c-0.033,0.267-0.067,0.533-0.1,0.8
				c-0.967,3.367-2.333,6.65-4.1,9.85c-0.2,0.4-0.417,0.783-0.65,1.15c-1.6,2.333-3.5,5.083-5.7,8.25
				c-0.633,0.967-1.217,1.95-1.75,2.95c-0.4,0.8-0.8,1.65-1.2,2.55c-0.067,0.367-0.083,0.767-0.05,1.2
				c0.033,0.333,0.017,0.533-0.05,0.6c-0.066,0.034-0.25,0.067-0.55,0.1c-0.367,0.033-0.583,0.067-0.65,0.1l-1.8,0.65
				c-0.566,0.2-1.483,0.6-2.75,1.2c-1.433,0.7-2.95,1.35-4.55,1.95c-0.033,0.034-0.067,0.067-0.1,0.1
				c-0.167,0.133-0.35,0.233-0.55,0.3c-0.233,0.1-0.4,0.267-0.5,0.5c-0.167,0.333-0.383,0.617-0.65,0.85
				c-0.2,0.167-0.367,0.35-0.5,0.55c-0.3,0.433-0.633,0.85-1,1.25c-0.066,0.066-0.133,0.117-0.2,0.15
				c-0.133,0.133-0.233,0.317-0.3,0.55c0.3-0.2,0.6-0.433,0.9-0.7c0.333-0.333,0.617-0.65,0.85-0.95
				c0.034-0.033,0.083-0.083,0.15-0.15c0.066,0.133,0.1,0.3,0.1,0.5c0,0.033,0,0.067,0,0.1c0.034,0.667,0.017,1.333-0.05,2
				c-0.033,0.233-0.067,0.45-0.1,0.65c0,0.133-0.033,0.233-0.1,0.3c-0.033,0-0.05,0.034-0.05,0.1c0,0.367-0.05,0.717-0.15,1.05
				c-0.167,0.5-0.333,0.983-0.5,1.45c0,0.033,0,0.067,0,0.1c-0.067,0.3-0.133,0.567-0.2,0.8c0.2-0.1,0.3-0.3,0.3-0.6
				c0.033-0.034,0.05-0.067,0.05-0.1c0.067-0.233,0.133-0.467,0.2-0.7c0.066-0.133,0.1-0.267,0.1-0.4
				c0.034-0.233,0.1-0.417,0.2-0.55c0-0.034,0-0.067,0-0.1c0.067-0.233,0.15-0.467,0.25-0.7c0.067-0.1,0.117-0.2,0.15-0.3
				c0.033-0.133,0.083-0.267,0.15-0.4c0-0.067,0-0.133,0-0.2c0-0.467,0.017-0.933,0.05-1.4c0-0.033,0-0.067,0-0.1
				c0-0.133,0.05-0.267,0.15-0.4c0-0.033,0-0.067,0-0.1c0.067-0.2,0.15-0.383,0.25-0.55c0-0.034,0.017-0.067,0.05-0.1
				c0.034-0.133,0.067-0.267,0.1-0.4c-0.133-0.167,0.15-0.6,0.85-1.3c0.7-0.733,1.417-1.233,2.15-1.5
				c0.733-0.233,1.283-0.467,1.65-0.7c0.2-0.1,0.367-0.184,0.5-0.25c0.633-0.2,1.284-0.45,1.95-0.75c0.067-0.034,0.267-0.1,0.6-0.2
				c0.333-0.1,1.133-0.117,2.4-0.05c0,0.033-0.017,0.05-0.05,0.05v0.05c-0.067,0.233-0.15,0.45-0.25,0.65
				c-0.133,0.233-0.217,0.483-0.25,0.75c0,0.1,0,0.216,0,0.35c-0.167,0.667-0.317,1.333-0.45,2c-0.033,0.067-0.067,0.117-0.1,0.15
				c-0.133,0.433-0.233,0.9-0.3,1.4c-0.033,0.066-0.05,0.117-0.05,0.15c0,0.067,0,0.117,0,0.15c-0.033,0.067-0.05,0.133-0.05,0.2
				c0,0.433-0.05,0.867-0.15,1.3c0,0.1-0.017,0.2-0.05,0.3c0,0.1,0,0.183,0,0.25c0,0.033-0.017,0.066-0.05,0.1
				c0,0.067,0.017,0.117,0.05,0.15c-0.033,0.133-0.05,0.267-0.05,0.4c-0.033,0.267-0.05,0.533-0.05,0.8
				c0,0.067-0.017,0.133-0.05,0.2c0,0.164,0,0.33,0,0.5c0.001-0.07,0.019-0.137,0.05-0.2c0-0.133,0.017-0.233,0.05-0.3
				c0-0.067,0.017-0.133,0.05-0.2c0.034-0.267,0.05-0.517,0.05-0.75c0.033-0.066,0.066-0.15,0.1-0.25
				c0.033-0.133,0.066-0.267,0.1-0.4c0.067-0.2,0.133-0.383,0.2-0.55c0.133-0.333,0.267-0.684,0.4-1.05
				c0.033-0.133,0.083-0.25,0.15-0.35c0.034-0.066,0.067-0.133,0.1-0.2c0.067-0.167,0.133-0.317,0.2-0.45
				c0.133,0.033,0.217,0.1,0.25,0.2c0.1,0.2,0.2,0.4,0.3,0.6c0,0.033,0.017,0.066,0.05,0.1c0.867,2.6,1.2,5.15,1,7.65
				c-0.067,2.833-0.184,4.65-0.35,5.45c-0.133,0.167-0.233,0.283-0.3,0.35c-0.066,0.067-0.15,0.133-0.25,0.2
				c-0.1,0.066-0.167,0.15-0.2,0.25L21.3-44.5c0,0.067-0.017,0.1-0.05,0.1c-0.233,0.167-0.483,0.35-0.75,0.55
				c-0.333,0.267-0.75,0.5-1.25,0.7c-0.2,0.066-0.4,0.167-0.6,0.3c-0.033,0-0.066,0.017-0.1,0.05c-0.233,0.1-0.45,0.233-0.65,0.4
				c-0.033,0.033-0.083,0.066-0.15,0.1c-0.067,0.033-0.117,0.066-0.15,0.1c-0.333,0.233-0.65,0.434-0.95,0.6
				c-0.2,0.167-0.4,0.333-0.6,0.5c-1.133,1.033-1.733,1.75-1.8,2.15c0.033,0.133,0.067,0.25,0.1,0.35c1.033-1.566,2.3-2.7,3.8-3.4
				c0.033,0,0.067-0.017,0.1-0.05c0.633-0.267,1.2-0.5,1.7-0.7l0.95-0.15l0.4,0.3l-0.1,0.95c0,0.133,0.017,0.283,0.05,0.45
				c0,0.167,0,0.567,0,1.2c-0.033,0.633-0.167,1.4-0.4,2.3c-0.7,4.2-1.4,7.4-2.1,9.6c0.033,0.033,0.067,0.1,0.1,0.2
				c0.667-2.567,1.316-5.1,1.95-7.6c0.067-0.267,0.133-0.55,0.2-0.85c0.233-0.833,0.45-1.683,0.65-2.55
				c0.033-0.1,0.067-0.217,0.1-0.35l0.85-3.35c0-0.033,0-0.083,0-0.15c0-0.1,0.017-0.217,0.05-0.35
				c0.067-0.467,0.117-0.816,0.15-1.05c0.034-0.667,0.083-1.333,0.15-2c0.066-1,0.183-1.967,0.35-2.9
				c0.034-0.267,0.067-0.55,0.1-0.85c0.167-0.934,0.2-1.85,0.1-2.75c-0.1-0.867-0.167-1.684-0.2-2.45c0.034-0.467,0.034-0.933,0-1.4
				c-0.066-0.133-0.133-0.283-0.2-0.45c-0.033-0.1-0.067-0.216-0.1-0.35l-0.05-0.3c-0.034-0.1-0.083-0.633-0.15-1.6
				c0-0.289-0.017-0.53-0.05-0.725c0.009,0.017,0.025,0.025,0.05,0.025c0-0.033-0.017-0.067-0.05-0.1c0-0.033,0-0.067,0-0.1
				c-0.167-0.433-0.25-0.667-0.25-0.7c-0.033-0.233-0.1-0.417-0.2-0.55c-0.1-0.2-0.183-0.383-0.25-0.55
				C22.017-61.967,22-62.017,22-62.05c-0.067-0.267-0.117-0.534-0.15-0.8c0.367-1,0.833-2.083,1.4-3.25
				c0.233-0.533,0.6-1.267,1.1-2.2c0.267,1.9,0.483,3.483,0.65,4.75c0.1-0.133,0.15-0.35,0.15-0.65c0-0.867-0.117-1.933-0.35-3.2
				c-0.233-1.267-0.35-1.95-0.35-2.05l1.35-2.05c1-1.467,1.667-2.533,2-3.2c0.667-1.3,1.383-2.083,2.15-2.35
				c0.433-0.2,1.167-0.434,2.2-0.7h0.25v0.25c-0.367,0.2-0.7,0.55-1,1.05c-0.066,0.233-0.117,0.45-0.15,0.65
				c-0.833,3.733-1.283,5.85-1.35,6.35c-0.2,1.567-0.383,3.117-0.55,4.65c-0.267,2.566-0.533,5.15-0.8,7.75v0.1
				c-0.267,2.4-0.433,4.8-0.5,7.2c0,0.1-0.033,0.65-0.1,1.65c-0.067,1.033-0.05,1.383,0.05,1.05c0.1-0.367,0.217-0.867,0.35-1.5
				c0.1-0.667,0.167-1.05,0.2-1.15c0.133-1.167,0.434-3.517,0.9-7.05c0-0.067,0-0.133,0-0.2c0.133-1.1,0.283-2.333,0.45-3.7
				c0.233,1.367,0.517,3.733,0.85,7.1c0,0.033,0,0.083,0,0.15c0.033,0.333,0.067,0.633,0.1,0.9c0,0.067,0,0.117,0,0.15v0.05
				c0.066,0.8,0.15,1.65,0.25,2.55c-0.3,0.433-0.8,1.233-1.5,2.4c-0.6,0.9-1.15,1.85-1.65,2.85c-0.133,0.133-0.233,0.267-0.3,0.4
				c-0.133,0.3-0.316,0.567-0.55,0.8c-0.033,0.033-0.067,0.066-0.1,0.1c-0.2,0.367-0.417,0.784-0.65,1.25
				c-0.2,0.4-0.417,0.767-0.65,1.1c-0.133,0.2-0.25,0.417-0.35,0.65c-0.067,0.2-0.117,0.383-0.15,0.55c0,0.033-0.017,0.066-0.05,0.1
				c0,0.167-0.033,0.316-0.1,0.45c-0.066,0.233-0.133,0.467-0.2,0.7c0,0.066-0.017,0.133-0.05,0.2c-0.1,0.4-0.216,0.784-0.35,1.15
				c0,0.033-0.017,0.066-0.05,0.1c-0.167,0.467-0.333,0.917-0.5,1.35c-0.1,0.2-0.15,0.383-0.15,0.55c0,0.233-0.033,0.45-0.1,0.65
				c-0.1,0.2-0.167,0.433-0.2,0.7c-0.133,0.434-0.284,0.883-0.45,1.35c0,0.033,0,0.083,0,0.15c-0.033,0.067-0.067,0.133-0.1,0.2
				c-0.066,0.2-0.117,0.417-0.15,0.65c-0.067,0.367-0.117,0.717-0.15,1.05c0,0.066,0,0.133,0,0.2c0,0.233-0.017,0.467-0.05,0.7
				c-0.033,0.267-0.05,0.55-0.05,0.85c-0.067,0.267-0.1,0.517-0.1,0.75c-0.333,2.733-0.467,4.333-0.4,4.8
				c0.033,0.067,0.083,0.133,0.15,0.2c0.033-1.467,0.167-2.967,0.4-4.5c0.4-2.534,1.1-5.133,2.1-7.8c0.033-0.1,0.067-0.217,0.1-0.35
				c0.133-0.2,0.267-0.417,0.4-0.65c0.033-0.033,0.05-0.066,0.05-0.1c0.1-0.133,0.216-0.167,0.35-0.1c0.1-0.067,0.15-0.15,0.15-0.25
				h0.05c0.067,0.167,0.133,0.367,0.2,0.6c0.033,0.1,0.066,0.2,0.1,0.3c0.434,1.5,0.817,2.917,1.15,4.25
				c0.333,1.333,0.517,2.183,0.55,2.55c0.1,0.267,0.15,1.083,0.15,2.45c0,0.733-0.05,1.733-0.15,3c-0.1,1.333-0.15,2.283-0.15,2.85
				c0.133-0.6,0.283-1.6,0.45-3c0.167-1.267,0.217-2.717,0.15-4.35c-0.034-0.233-0.05-0.467-0.05-0.7c-0.033-0.1-0.05-0.2-0.05-0.3
				c0-0.2,0.033-0.383,0.1-0.55c0-0.133,0.017-0.267,0.05-0.4c0-0.4-0.067-0.733-0.2-1c-0.033-0.033-0.05-0.066-0.05-0.1
				c-0.167-0.333-0.317-0.7-0.45-1.1v-0.05c-0.066-0.267-0.15-0.533-0.25-0.8c-0.5-1.733-1.017-3.55-1.55-5.45
				c0.2-0.767,0.6-1.75,1.2-2.95c0.7-1.434,1.45-2.784,2.25-4.05c0.133-0.167,0.25-0.35,0.35-0.55c0.133-0.167,0.25-0.333,0.35-0.5
				c0.033-0.033,0.083-0.067,0.15-0.1c0.034,0,0.05-0.017,0.05-0.05c0.033-0.1,0.1-0.167,0.2-0.2c0.034-0.033,0.083-0.05,0.15-0.05
				c0.1-0.034,0.167-0.083,0.2-0.15c0.033,0,0.067-0.017,0.1-0.05c0.033,0,0.05-0.017,0.05-0.05c0.034-0.133,0.15-0.2,0.35-0.2
				c0.033,0,0.067-0.017,0.1-0.05h0.05c0.1,1.7,0.233,3.483,0.4,5.35v0.05c0,0.066,0.033,0.283,0.1,0.65
				c0.067,0.4,0.15,1.25,0.25,2.55c0.133,1.267,0.184,1.05,0.15-0.65c-0.034-1.667-0.05-2.533-0.05-2.6
				c-0.1-1.933-0.233-3.733-0.4-5.4c0-0.1,0-0.217,0-0.35c-0.033-0.233-0.05-0.483-0.05-0.75c0-0.533-0.034-1.1-0.1-1.7
				c-0.033-0.6-0.1-1.4-0.2-2.4c0.2-0.1,1.05,0.483,2.55,1.75l2.8,2.85c-0.133-0.633-0.85-1.7-2.15-3.2l-2-1.95
				c-0.367-0.3-0.7-0.517-1-0.65c-0.4-5.367-0.817-8.833-1.25-10.4c0-0.033,0-0.1,0-0.2c0.066-0.6,0.133-1.267,0.2-2
				C31.517-72.117,32.667-76.6,34-79.8c0.033-0.067,0.067-0.117,0.1-0.15c0.2-0.167,0.417-0.3,0.65-0.4
				c0.067-0.033,0.117-0.066,0.15-0.1c0.067-0.167,0.233-0.3,0.5-0.4c0,0.7,0.017,1.417,0.05,2.15c0.033,0.067,0.05,0.15,0.05,0.25
				c0.033,0.2,0.067,0.4,0.1,0.6c0,0.033,0.017,0.083,0.05,0.15c0.167,0.434,0.267,0.883,0.3,1.35c0.033,0.1,0.05,0.184,0.05,0.25
				c0.2,0.8,0.183,1.567-0.05,2.3c-0.034,0.1-0.05,0.216-0.05,0.35c-0.033,0.167-0.083,0.333-0.15,0.5
				c0,0.034-0.017,0.083-0.05,0.15c0.167,0.167,0.35,0.367,0.55,0.6c0.7,0.767,1.067,1.3,1.1,1.6c0.1,0.533,0.117,1.417,0.05,2.65
				c-0.033,1.067,0.033,1.85,0.2,2.35c0.867,2.333,1.383,4.2,1.55,5.6c0.133,0.867,0.2,2.467,0.2,4.8c0,0.667-0.217,3.034-0.65,7.1
				c-0.4,3.567-0.517,5.983-0.35,7.25c0.267,1.8-0.35,3.783-1.85,5.95c-1.733,2.1-2.9,3.633-3.5,4.6
				c0.033,0.066,0.067,0.083,0.1,0.05c0.133,0,0.267-0.05,0.4-0.15c0.433,1.667,0.8,3.117,1.1,4.35v1.25l-0.1-0.1
				c-1.5,1.4-2.617,2.767-3.35,4.1c-0.4,0.7-0.8,1.633-1.2,2.8c0.3-0.567,0.683-1.183,1.15-1.85c1.367-1.967,2.5-3,3.4-3.1
				c0.633,1.633,1.033,3.684,1.2,6.15c0.033,2.6,0.083,4.816,0.15,6.65c0.233,0.167,0.467,0.316,0.7,0.45
				c-0.033-3.433-0.433-8.716-1.2-15.85c-0.2-1.8-0.417-3.7-0.65-5.7c0.9-0.833,1.966-2.267,3.2-4.3
				c0.434,2.133,1.133,4.633,2.1,7.5c0.333,1.1,0.8,2.233,1.4,3.4c-0.066,0.667-0.217,1.583-0.45,2.75
				c-0.267,1.7-0.417,3.6-0.45,5.7c0,0.2,0,0.383,0,0.55c0,1.833,0.417,4.316,1.25,7.45c0.1,0.4,0.2,0.767,0.3,1.1
				c0.067,0.033,0.133,0.05,0.2,0.05c-0.1-0.367-0.2-0.967-0.3-1.8c-0.133-0.933-0.2-1.65-0.2-2.15c0-1,0.2-1.5,0.6-1.5
				c0.867,0,1.883,0.783,3.05,2.35c0.934,1.267,1.833,2.85,2.7,4.75c0.167,0.033,0.316,0.066,0.45,0.1
				c-0.767-2.233-2.133-4.617-4.1-7.15c-1.534-2-2.7-3.216-3.5-3.65l-0.05-1.55c0-0.6,0.2-1.467,0.6-2.6
				c0.367-1.067,0.717-1.833,1.05-2.3c1,1.667,2.25,3.433,3.75,5.3c0.034,0.067,0.083,0.1,0.15,0.1c0.066,0,0.133-0.033,0.2-0.1
				c0.067-0.033,0.1-0.1,0.1-0.2c0-0.033-0.017-0.1-0.05-0.2h-0.05c-1.167-1.767-2.233-3.833-3.2-6.2
				c-0.1-0.233-0.184-0.467-0.25-0.7c-0.367-0.867-0.7-1.784-1-2.75c0.733,0.1,2.333,0.633,4.8,1.6l6.55,4.6
				c0.6,1.467,1.6,3.717,3,6.75c1.067,2.233,2.034,4.217,2.9,5.95c-0.1-0.233-0.2-0.467-0.3-0.7c-0.633-1.633-1.083-2.783-1.35-3.45
				c-0.933-2.1-1.583-3.6-1.95-4.5c-0.367-1.133-0.583-2.133-0.65-3c1.867,1.2,3.917,3,6.15,5.4c0.733,0.733,1.566,1.633,2.5,2.7
				c-2.467-4.033-6.283-7.867-11.45-11.5c-1.267-0.9-2.9-2.2-4.9-3.9c-1.433-0.566-3.133-1.183-5.1-1.85
				c-1.1-2.233-2.017-5.716-2.75-10.45c0-0.1,0.017-0.2,0.05-0.3c0.9-6.633,1.183-13.35,0.85-20.15c0.167-0.3,0.25-0.667,0.25-1.1
				h0.1c0.267-0.033,0.417,0.083,0.45,0.35c0,0.033,0.017,0.117,0.05,0.25c0,0.133,0.15,0.5,0.45,1.1c0.3,0.6,0.566,1.1,0.8,1.5
				c0.2,0.4,0.5,0.95,0.9,1.65c0.067,0.067,0.117,0.133,0.15,0.2c0.4,1.633,0.7,3.233,0.9,4.8c0.033,0.267,0.05,0.517,0.05,0.75
				c-0.4,2.9-0.7,5.133-0.9,6.7c-0.233,1.7-0.35,4.117-0.35,7.25v0.05c0,0.067,0.017,0.333,0.05,0.8c0-2.9,0.117-4.983,0.35-6.25
				c0.167-0.934,0.717-2.983,1.65-6.15c0.3,0,0.6,1,0.9,3c0.267,1.133,0.417,1.784,0.45,1.95c0.067,0.433,0.1,1.1,0.1,2
				C47.033-39.317,47.15-37.75,47.25-36.55z M22.5-43.1v-0.05c0-0.033,0.017-0.067,0.05-0.1L22.5-43.1z M27.4-191.1
				c0.032,0.032,0.049,0.066,0.05,0.1v-0.1H27.4z"/>
			<path style="fill-rule:evenodd;clip-rule:evenodd;fill:#342109;" d="M54.7-45.2c-0.333-0.566-0.633-1.083-0.9-1.55
				c-0.167-0.233-0.367-0.45-0.6-0.65c-0.4-0.434-0.817-0.833-1.25-1.2c-0.267-0.267-0.517-0.517-0.75-0.75
				c-0.8-0.733-1.633-1.4-2.5-2c-0.2-0.133-0.4-0.283-0.6-0.45c-0.4-0.367-0.717-0.817-0.95-1.35c-0.267-0.533-0.566-1.05-0.9-1.55
				l-1.45-5.65c-0.033-0.133-0.066-0.267-0.1-0.4c-0.367-1.133-0.6-1.95-0.7-2.45c-0.067-0.233-0.1-0.65-0.1-1.25
				c0-0.566-0.1-0.833-0.3-0.8c-0.2,0.033-0.517-0.35-0.95-1.15c-0.433-0.767-0.75-1.483-0.95-2.15c-0.233-0.667-0.5-1.317-0.8-1.95
				c-0.133-0.5-0.25-1-0.35-1.5c-0.367-1.5-0.533-4.967-0.5-10.4c0-5.4,0.05-9.467,0.15-12.2c0.1-2.7,0.4-6.383,0.9-11.05
				c0.267-2.533,0.467-4.667,0.6-6.4c0.1-3.7,0.15-6.684,0.15-8.95c0-9.967-0.283-19.517-0.85-28.65
				c-0.333-5.567-0.367-12.95-0.1-22.15c0.033-1.367,0.083-2.784,0.15-4.25c0.333-2.833,1.117-5.317,2.35-7.45
				c1.967-3.367,5.083-5.867,9.35-7.5c0.733-0.267,1.517-0.5,2.35-0.7c1.533-0.267,2.783-0.983,3.75-2.15
				c-3.6,0.467-7.25,0.934-10.95,1.4c-0.367,0.034-0.75,0.05-1.15,0.05c2.9,0.3,4.6,0.566,5.1,0.8v0.25
				c-0.467,0.067-1.55,0.483-3.25,1.25c-0.434,0.233-0.833,0.6-1.2,1.1s-0.717,0.8-1.05,0.9c-1.8,0.567-3.017,1.017-3.65,1.35
				c-0.4,0.233-0.75,0.567-1.05,1c-0.066-0.067-0.117-0.1-0.15-0.1c-0.5,0-1.067,0.434-1.7,1.3c-0.6,0.833-0.917,1.566-0.95,2.2
				H37.1c-0.333-0.233-0.55-0.633-0.65-1.2c-0.067-0.267-0.1-0.784-0.1-1.55c0-0.1,0-0.217,0-0.35c-0.1,0.5-0.267,0.95-0.5,1.35
				c-0.5,0.7-0.75,1.167-0.75,1.4c0,0.267,0.3,1.483,0.9,3.65c0.533,2,0.733,3.983,0.6,5.95c-0.067,1.434,0.133,3.133,0.6,5.1
				c0.533,2.333,0.833,4.217,0.9,5.65c0.5,9.2,0.75,16.417,0.75,21.65c0,0.2-0.033,0.5-0.1,0.9c-0.1,0.367-0.15,0.683-0.15,0.95
				c-0.467,0.1-1.1-0.083-1.9-0.55c-0.2-0.133-0.383-0.267-0.55-0.4c0.434,1.5,1.05,3.7,1.85,6.6c1.4,5.133,2.1,7.967,2.1,8.5
				c0,0.934-0.017,1.483-0.05,1.65c-0.1,0.6-0.417,0.917-0.95,0.95c0-0.167-0.083-0.25-0.25-0.25v2c0.4,1.667,0.65,3.517,0.75,5.55
				c0,0.433,0,2.083,0,4.95c0.267,0.867,0.433,1.7,0.5,2.5c0.066,1.6-0.434,2.517-1.5,2.75v-0.25c-0.133,2.667-0.25,4.7-0.35,6.1
				c-0.133,2.567-0.183,4.617-0.15,6.15c0.066,2.067-0.2,4.067-0.8,6c-0.933,3-1.417,4.583-1.45,4.75c0.667-0.633,1.1-1.033,1.3-1.2
				c0.434-0.367,0.833-0.633,1.2-0.8v3.5c-0.533,1.467-0.467,3.367,0.2,5.7c0.867,2.433,1.383,4.117,1.55,5.05v2l-0.75-0.75v0.25
				c0.3,0.533,0.517,1.2,0.65,2c0.133,0.767,0.167,1.517,0.1,2.25h0.25c0.033-0.367,0.167-0.667,0.4-0.9c0.1-0.1,0.3-0.217,0.6-0.35
				c1.2,2.667,2.1,4.75,2.7,6.25c1.067,2.667,1.667,5,1.8,7c1.433,0.667,2.967,1.717,4.6,3.15C51.517-47.767,52.933-46.6,54.7-45.2z
				 M47.25-36.55c-0.1-1.2-0.217-2.767-0.35-4.7c0-0.9-0.033-1.567-0.1-2c-0.033-0.167-0.183-0.817-0.45-1.95c-0.3-2-0.6-3-0.9-3
				c-0.934,3.167-1.483,5.217-1.65,6.15c-0.233,1.267-0.35,3.35-0.35,6.25c0.033,0.367,0.083,0.867,0.15,1.5
				c0.1,1.4,0.167,1.833,0.2,1.3c0.034-0.567,0.067-1.267,0.1-2.1c0-0.867,0.017-1.333,0.05-1.4c0.133-1.2,0.35-3.2,0.65-6
				c0.233-1.967,0.566-3.417,1-4.35c0.4,2.367,0.816,5.067,1.25,8.1L47.25-36.55z M12.1-62.2c1.6-0.6,3.117-1.25,4.55-1.95
				c1.267-0.6,2.184-1,2.75-1.2L21.2-66c0.066-0.033,0.283-0.067,0.65-0.1c0.3-0.033,0.483-0.066,0.55-0.1
				c0.067-0.066,0.083-0.267,0.05-0.6c-0.034-0.434-0.017-0.833,0.05-1.2c-0.2,0.367-0.383,0.733-0.55,1.1
				c-0.3,0.167-0.833,0.417-1.6,0.75c-1.233,0.566-1.967,0.867-2.2,0.9c-0.033,0-0.066,0-0.1,0c-0.2,0.033-0.383,0.1-0.55,0.2
				C17.467-65.017,17.433-65,17.4-65c-0.233,0.1-0.433,0.2-0.6,0.3c-0.033,0-0.066,0.017-0.1,0.05c-0.133,0.1-0.284,0.2-0.45,0.3
				c-0.133,0.1-0.25,0.184-0.35,0.25c-0.3,0.133-0.633,0.283-1,0.45C13.167-62.75,12.233-62.267,12.1-62.2z M31.4-76.45
				c0.3-0.5,0.633-0.85,1-1.05v-0.25h-0.25c-1.033,0.267-1.767,0.5-2.2,0.7c-0.767,0.267-1.483,1.05-2.15,2.35
				c-0.333,0.667-1,1.733-2,3.2l-1.35,2.05c0,0.1,0.117,0.784,0.35,2.05c0.233,1.267,0.35,2.333,0.35,3.2
				c0,0.3-0.05,0.517-0.15,0.65c0.077,0.638,0.135,1.188,0.175,1.65c-0.017-0.244-0.025-0.377-0.025-0.4
				c0.033-0.267,0.05-0.567,0.05-0.9c0-0.033,0-0.066,0-0.1c0-1.3-0.067-2.867-0.2-4.7c-0.033-0.467-0.05-0.883-0.05-1.25
				c0.2-0.333,0.417-0.7,0.65-1.1c2.1-3.233,4.066-5.45,5.9-6.65C31.467-76.8,31.433-76.617,31.4-76.45z M33-30.3
				c0.6-0.967,1.767-2.5,3.5-4.6c1.5-2.167,2.117-4.15,1.85-5.95c-0.167-1.267-0.05-3.683,0.35-7.25
				c0.433-4.066,0.65-6.433,0.65-7.1c0-2.333-0.067-3.933-0.2-4.8c-0.167-1.4-0.683-3.267-1.55-5.6c-0.167-0.5-0.233-1.283-0.2-2.35
				c0.067-1.233,0.05-2.117-0.05-2.65c-0.033-0.3-0.4-0.833-1.1-1.6c-0.2-0.233-0.383-0.433-0.55-0.6
				c-0.067,0.267-0.083,0.583-0.05,0.95c0,0.1,0.017,0.184,0.05,0.25c0.033,0.1,0.05,0.184,0.05,0.25
				c0.067,0.167,0.117,0.333,0.15,0.5c0.067,0.4,0.167,0.767,0.3,1.1c0.133,0.367,0.25,0.75,0.35,1.15
				c0.133,0.867,0.267,1.75,0.4,2.65c0,0.2,0.017,0.4,0.05,0.6c0.033,0.467,0.067,0.934,0.1,1.4c0,0.034,0,0.067,0,0.1
				c0.033,0.2,0.066,0.417,0.1,0.65c0.033,0.034,0.05,0.083,0.05,0.15c0.167,0.433,0.283,0.883,0.35,1.35
				c0.033,0.167,0.083,0.367,0.15,0.6c0.133,0.467,0.2,0.934,0.2,1.4c0.033,0.167,0.066,0.333,0.1,0.5c0,0.034,0,0.067,0,0.1
				c0.267,6.267-0.033,12.5-0.9,18.7h0.05c-0.034,0.1-0.05,0.2-0.05,0.3c-0.066,0.267-0.133,0.567-0.2,0.9v0.05
				c-0.233,0.933-0.684,2.183-1.35,3.75c-0.4,1.066-0.783,1.95-1.15,2.65c-0.434,0.767-0.833,1.317-1.2,1.65
				c-0.1,0.1-0.183,0.184-0.25,0.25c-0.067,0-0.117,0.033-0.15,0.1s-0.033,0.133,0,0.2c0,0.1,0.033,0.167,0.1,0.2
				C32.95-30.317,32.967-30.3,33-30.3z"/>
			<path style="fill-rule:evenodd;clip-rule:evenodd;fill:#3B270F;" d="M30.6-189.5c-0.367,0.067-0.783,0.167-1.25,0.3
				c-0.033,0-0.083,0-0.15,0c-0.867-0.033-1.733,0.034-2.6,0.2c-0.7-0.167-1.8-0.417-3.3-0.75c-2.767-0.633-4-0.867-3.7-0.7l-2-0.3
				c-0.067,0-0.133,0.017-0.2,0.05c-0.4-0.066-0.717,0-0.95,0.2c2.267,0.033,3.533,0.533,3.8,1.5c0-0.067,0.1-0.3,0.3-0.7
				c0.4,0.3,0.95,0.567,1.65,0.8c0.033,0.033,0.667,0.167,1.9,0.4c1.133,0.2,1.7,0.367,1.7,0.5c-0.066,0.1-0.1,0.2-0.1,0.3l0.6,0.15
				c0.4,0.066,0.65,0.35,0.75,0.85c0.4-0.566,0.7-1.017,0.9-1.35c0.1-0.067,0.55-0.1,1.35-0.1c0-0.033,0.034-0.05,0.1-0.05h0.05
				c0.133,0,0.333,0,0.6,0c0.6,0,1.15,0.067,1.65,0.2c0.267,0.067,0.517,0.2,0.75,0.4c0.133,0.133,0.25,0.267,0.35,0.4
				c0.067,0.034,0.417,0.2,1.05,0.5c0.533,0.233,0.917,0.45,1.15,0.65c-0.633-1.1-1.283-1.883-1.95-2.35
				c-0.433-0.333-1.167-0.7-2.2-1.1C30.75-189.5,30.667-189.5,30.6-189.5z M20.85-193.15c1.566,0.167,2.767,0.35,3.6,0.55
				c1.7,0.4,2.683,0.9,2.95,1.5l-0.35,0.25c0.067,0.133,0.233,0.2,0.5,0.2c0.2,0,0.35-0.067,0.45-0.2
				c0.133-0.167,0.367-0.25,0.7-0.25c0.3,0,0.716,0.083,1.25,0.25c0.566,0.2,1.066,0.317,1.5,0.35c0.167,0,0.4,0,0.7,0
				c0.333,0,0.717,0.083,1.15,0.25c0.3,0.1,0.983,0.383,2.05,0.85c1.033,0.433,1.816,0.683,2.35,0.75H38
				c-0.033-0.2,0.133-0.35,0.5-0.45c1.4-0.4,2.117-0.6,2.15-0.6c0.2-0.066,0.733-0.466,1.6-1.2c0.2-0.167,0.4-0.317,0.6-0.45
				c-0.767,0.267-1.667,0.567-2.7,0.9c-1.066,0.067-1.867,0.1-2.4,0.1c-1.033-0.033-2.067-0.066-3.1-0.1c-0.1,0-0.2-0.017-0.3-0.05
				c-0.3-0.033-0.6-0.117-0.9-0.25c-0.2-0.067-0.4-0.15-0.6-0.25c-0.133-0.067-0.267-0.133-0.4-0.2
				c-0.133-0.066-0.317-0.133-0.55-0.2c-0.633-0.1-1.217-0.1-1.75,0c-0.4-0.067-0.783-0.15-1.15-0.25
				c-0.667,0.033-1.15-0.2-1.45-0.7c-0.433-0.1-0.85-0.117-1.25-0.05c-0.867,0-1.683-0.167-2.45-0.5c-0.3-0.1-0.6-0.2-0.9-0.3
				C22.25-193.467,21.55-193.45,20.85-193.15z M27.4-191.1h0.05v0.1C27.449-191.034,27.432-191.068,27.4-191.1z"/>
		</g>
		<g>
			<g>
				<path style="fill-rule:evenodd;clip-rule:evenodd;fill:#05484F;" d="M74.7-18.05c-1.267,0.4-2.7,0.933-4.3,1.6
					c-2.133,0.867-3.333,1.333-3.6,1.4c-0.133,0.033-1.517,0.3-4.15,0.8c-0.533,0.1-0.867,0.483-1,1.15
					c-0.1-0.3-0.25-0.45-0.45-0.45c-0.1,0-0.25,0.033-0.45,0.1c-0.233,0.034-0.55,0.417-0.95,1.15
					c0.067-1.333-1.017-1.983-3.25-1.95c-0.233,0-0.433,0.033-0.6,0.1c0,0.032,0.017,0.049,0.05,0.05c-0.134,0-0.268-0.017-0.4-0.05
					c-2.067,0.2-3.434,0.233-4.1,0.1l-0.85,0.25l0.15,0.5c-0.3,0.1-0.683,0.083-1.15-0.05c-0.5-0.1-0.883-0.183-1.15-0.25l0.2,0.1
					c0.133,0.167,0.433,0.383,0.9,0.65c0.5,0.233,0.767,0.367,0.8,0.4C46.6-12.817,44.683-13,44.65-13
					c-0.367,0.1-0.583,0.2-0.65,0.3c-0.033,0.067-0.15,0.317-0.35,0.75c-0.033-0.133-0.183-0.283-0.45-0.45
					c-0.3-0.167-0.517-0.233-0.65-0.2c-0.1,0.033-0.25,0.184-0.45,0.45c-0.133,0.2-0.2,0.35-0.2,0.45
					c-0.133-0.167-0.233-0.3-0.3-0.4c-0.133-0.1-0.367-0.117-0.7-0.05c-0.533,0.5-0.867,0.767-1,0.8l-0.05-0.15
					c-0.367-1.167-0.8-1.933-1.3-2.3c-0.867-0.4-1.733-0.85-2.6-1.35c-0.4-0.233-1.133-0.55-2.2-0.95
					c-1.2-0.467-2.05-0.783-2.55-0.95c0,0.033-0.017,0.1-0.05,0.2L31.1-16.7c-0.3-0.133-0.633-0.367-1-0.7
					c-0.4-0.333-0.633-0.517-0.7-0.55c0,0.034,0,0.133,0,0.3c0,0.1-0.083,0.167-0.25,0.2c-0.033,0-0.316-0.183-0.85-0.55
					c-0.5-0.333-0.917-0.467-1.25-0.4c-0.566,0.066-0.983,0.017-1.25-0.15c-0.1-0.067-0.267-0.3-0.5-0.7
					c-0.133,0.1-0.267,0.2-0.4,0.3l-0.6,0.45l-0.05,0.05L24.2-18.6c-0.067-0.2-0.15-0.4-0.25-0.6c-0.5-0.1-1.017-0.216-1.55-0.35
					c-0.033,0-0.066,0-0.1,0c-0.433-0.067-0.9-0.167-1.4-0.3c-0.267,0-0.533-0.033-0.8-0.1c0.2-0.066,0.383-0.1,0.55-0.1
					c0.133,0,0.267,0.017,0.4,0.05l0.75-0.2c-0.233-0.333-0.483-0.5-0.75-0.5c-0.3,0-0.517-0.083-0.65-0.25l0.9-0.25
					c-0.133-0.4-0.8-1.05-2-1.95c-0.633-0.467-1.167-0.867-1.6-1.2c-0.067-0.066-0.133-0.133-0.2-0.2c-0.4-0.3-0.65-0.534-0.75-0.7
					l-0.1-0.15c0.167,0.2,0.55,0.433,1.15,0.7c0.633,0.233,1.133,0.333,1.5,0.3c-0.566-0.867-1.716-1.9-3.45-3.1
					c-1.567-1.367-2.6-3.25-3.1-5.65c0.2,0.333,0.35,0.566,0.45,0.7c0.167,0.3,0.45,0.517,0.85,0.65l0.15-0.1
					c-0.2-0.467-0.517-1.2-0.95-2.2c-0.533-0.833-1.383-1.4-2.55-1.7V-36l1.4-0.35l-0.35-1.35c-0.167-0.233-0.45-0.533-0.85-0.9
					l-0.25-0.9c0.133-0.067,0.35-0.083,0.65-0.05c0.267,0.066,0.517,0.15,0.75,0.25c-0.267-0.2-0.667-0.7-1.2-1.5
					c-0.733-1-1.217-1.967-1.45-2.9c-0.033-0.1-0.05-0.2-0.05-0.3l-0.2,0.05c0.033,0.067,0.017,0.117-0.05,0.15L9-43.75l-0.25-1
					L8.6-44.7c0.066,0.133,0.05,0.3-0.05,0.5c-0.033,0.133-0.066,0.233-0.1,0.3c0.033-0.3,0.066-0.767,0.1-1.4
					c0.067-0.867,0.067-1.4,0-1.6C8.35-47.633,8-48.4,7.5-49.2c-0.4-0.667-0.7-1.066-0.9-1.2c0.033,0.267,0,0.417-0.1,0.45
					l-0.25-1.1c-0.067,0.767-0.05,1.333,0.05,1.7H6.15c-0.3-0.667-0.633-1.683-1-3.05l-0.6,0.2c0.1-0.466-0.167-0.716-0.8-0.75
					c-0.733,0-1.15-0.017-1.25-0.05c0.067,0.2-0.033,0.733-0.3,1.6c0-0.233-0.233-0.434-0.7-0.6c0,0.233-0.067,0.467-0.2,0.7v0.05
					l-0.35,0.1c0-0.1-0.05-0.133-0.15-0.1L0.55-52.1L0.2-52.05C0.067-51.783,0-51.617,0-51.55c0,0.033,0.033,0.216,0.1,0.55
					c0.167,0.667,0.55,1.267,1.15,1.8c0.567,0.534,0.883,0.967,0.95,1.3l-0.8,0.2c0.367-0.1,0.767,0.117,1.2,0.65
					c-0.167,0.033-0.3,0.1-0.4,0.2c-0.167,0.133-0.233,0.233-0.2,0.3c0.233-0.034,0.483-0.034,0.75,0L1.7-46.3
					c0.167,0.133,0.483,0.2,0.95,0.2c0.5,0,0.917,0.117,1.25,0.35c-0.2,0.733-0.233,1.283-0.1,1.65c0.167,0.7,0.467,1.35,0.9,1.95
					c0.167,0.267,0.617,0.816,1.35,1.65L5.5-40.4c-0.067-0.033-0.167-0.117-0.3-0.25C5.133-40.783,5.067-40.833,5-40.8
					c0.033,0.133,0.067,0.383,0.1,0.75c0.033,0.333,0.066,0.566,0.1,0.7C5.733-38.75,6-38.4,6-38.3c0.1,0.267,0.05,0.533-0.15,0.8
					c-0.2,0.333-0.317,0.55-0.35,0.65c0-0.1-0.133-0.117-0.4-0.05l0.15,0.7l-0.3,0.05c0.367,0.333,0.617,0.667,0.75,1
					C5.767-34.983,5.867-34.6,6-34c0.133,0.833,0.25,1.433,0.35,1.8l-0.4,0.05l-0.9-0.65l0.1,0.3c1.1,0.967,1.9,1.767,2.4,2.4
					l-0.1-0.55C7.583-30.517,7.9-30.2,8.4-29.7c0.367,0.333,0.684,0.784,0.95,1.35c0.233,0.267,0.6,0.733,1.1,1.4
					c0.466,0.567,1.017,0.934,1.65,1.1c-0.367,0.067-0.7,0.017-1-0.15l-0.4,0.1c0.1,0.333,0.167,0.767,0.2,1.3
					c0,0.533,0.017,0.85,0.05,0.95c0.1,0.4,0.3,0.9,0.6,1.5c0.367,0.6,0.75,1.15,1.15,1.65l0.05,0.2c-0.067,0-0.133-0.017-0.2-0.05
					c-0.1-0.033-0.216-0.033-0.35,0l0.35,1.3c-0.033,0-0.066,0-0.1,0c-0.067,0-0.117-0.05-0.15-0.15l-0.35,0.1
					c0.1,0.367,0.15,0.783,0.15,1.25c0,0.5,0.017,0.867,0.05,1.1c0.267,0.933,0.783,1.733,1.55,2.4c0.5,0.434,1.966,1.467,4.4,3.1
					c-0.033-0.067-0.1-0.15-0.2-0.25c-0.133-0.133-0.217-0.183-0.25-0.15L17.6-11.8c0.2,0.167,0.566,0.45,1.1,0.85
					c0.5,0.467,0.983,1.05,1.45,1.75c0.4,1.067,0.667,1.767,0.8,2.1c0.233,0.533,0.716,0.7,1.45,0.5
					c0.233-0.033,0.333-0.066,0.3-0.1l0.05-0.05c0.867,0.667,1.6,1.117,2.2,1.35c0.433,0.133,1.466,0.433,3.1,0.9
					c-0.1-0.333-0.183-0.483-0.25-0.45l0.25-0.1L28.6-4.7h0.2c-0.233-0.333-0.383-0.55-0.45-0.65C28.217-5.483,28-5.617,27.7-5.75
					V-5.9c0.1,0.2,0.65,0.4,1.65,0.6c1.033,0.233,1.566,0.367,1.6,0.4C31.083-4.933,31.1-5.117,31-5.45
					c0.467,0.067,1.7,0.284,3.7,0.65c1.966,0.367,3.517,0.533,4.65,0.5c-0.1-0.1-0.184-0.184-0.25-0.25l-0.2-0.8
					c0.434,0.167,1.633,0.883,3.6,2.15c1.133,0.767,2.183,1.017,3.15,0.75c0.233-0.066,0.45-0.167,0.65-0.3
					c0.167-0.1,0.317-0.2,0.45-0.3c-0.233,0.267-0.383,0.466-0.45,0.6c0.434-0.1,1.067-0.216,1.9-0.35
					c0.233-0.034,0.417-0.167,0.55-0.4c0.133-0.133,0.283-0.316,0.45-0.55c0.333,0.367,0.6,0.917,0.8,1.65
					c0.367-0.2,1.433-0.316,3.2-0.35c1.633,0,2.6,0.017,2.9,0.05l-0.25-0.85c0.6-0.033,1.433,0.117,2.5,0.45h0.2
					C58.483-3.067,58.3-3.283,58-3.45c0.1-0.033,0.8-0.033,2.1,0c-0.167-0.1-0.5-0.2-1-0.3C58.6-3.883,58.3-4,58.2-4.1
					c0.533-0.133,1.45-0.433,2.75-0.9c2.167-0.567,4.4-0.833,6.7-0.8c0.5,0.033,0.983,0.066,1.45,0.1c0.367-0.167,0.7-0.283,1-0.35
					c-0.2-0.133-0.617-0.284-1.25-0.45L68.8-6.65c0.767-0.233,1.5-0.917,2.2-2.05c0.633-1.066,1.783-1.683,3.45-1.85
					c-0.133-0.067-0.267-0.117-0.4-0.15c-0.2-0.033-0.45-0.066-0.75-0.1c0.067-0.233,0.05-0.483-0.05-0.75
					c-0.033-0.2-0.083-0.284-0.15-0.25c-0.1,0.066-0.167,0.1-0.2,0.1C73.3-13.167,73.9-15.283,74.7-18.05z M20-11.75l0.1,0.2
					l-0.15,0.05C19.95-11.633,19.967-11.717,20-11.75z M35.6-13.6c-0.033,0-0.083-0.017-0.15-0.05c-0.2-0.133-0.417-0.267-0.65-0.4
					c-0.133-0.034-0.3-0.067-0.5-0.1v-0.2c0.2,0.133,0.367,0.233,0.5,0.3C35.2-13.883,35.467-13.733,35.6-13.6z M25.95-13.3
					c-0.067,0.033-0.117,0.017-0.15-0.05l-0.05-0.1L25.7-13.5C25.833-13.433,25.917-13.367,25.95-13.3z"/>
				<path style="fill-rule:evenodd;clip-rule:evenodd;fill:#23848E;" d="M5.15-32.5l0.45,1.75c0.267,1.067,0.617,1.8,1.05,2.2
					c0.767,0.667,1.333,1.3,1.7,1.9l-0.7,0.25c1.4,2.233,2.217,3.683,2.45,4.35l-0.35,0.1c-0.033-0.133-0.1-0.183-0.2-0.15
					c0.367,0.467,0.583,0.8,0.65,1c0.066,0.3-0.017,0.667-0.25,1.1c-0.3,0.433-0.417,0.767-0.35,1c0.1,0.4,0.267,0.567,0.5,0.5
					l0.55,2.15c-0.133-0.066-0.283-0.133-0.45-0.2c-0.3-0.167-0.517-0.383-0.65-0.65l0.25,1c0.034,0.133,0.217,0.45,0.55,0.95
					c0.6,0.767,1.4,1.583,2.4,2.45c0.567,0.5,1.25,0.9,2.05,1.2c0.633,0.233,1.034,0.467,1.2,0.7c-0.433-0.167-0.7-0.233-0.8-0.2
					c0.533,0.3,0.8,0.6,0.8,0.9l-0.3,0.1l0.85,0.55c-0.267,0.1-0.566,0.15-0.9,0.15c-0.367,0.033-0.6,0.083-0.7,0.15
					c0.367,0.167,1.183,0.8,2.45,1.9c1.367,1.033,2.6,1.583,3.7,1.65l-0.35,0.1c0.033,0.2,0,0.45-0.1,0.75
					c-0.066,0.4-0.083,0.833-0.05,1.3l0.05,0.15l0.2-0.45c0.167-0.267,0.316-0.417,0.45-0.45c0.233-0.034,0.717,0.033,1.45,0.2
					c0.7,0.167,1.083,0.317,1.15,0.45l0.4-0.7c0.6,0.2,1.284,0.483,2.05,0.85c0.333,0.133,1.316,0.583,2.95,1.35
					c-0.2-0.167-0.267-0.267-0.2-0.3l-0.3-1c0.8,0.367,2.167,0.467,4.1,0.3c1.8-0.133,3.05,0,3.75,0.4
					c-0.033-0.1,0.033-0.317,0.2-0.65c0.133,0.233,0.316,0.4,0.55,0.5c0.267,0.033,0.434,0.1,0.5,0.2
					c0.1-0.033,0.167-0.117,0.2-0.25c0.066-0.133,0.083-0.25,0.05-0.35l0.5-0.15c-0.066,0.934,0.3,1.35,1.1,1.25
					c1-0.167,1.583-0.117,1.75,0.15c0.133,0.5,0.517,0.9,1.15,1.2c0.167,0.067,1.033,0.35,2.6,0.85l-0.3-1
					c0.767,0.3,2.283,0.4,4.55,0.3c2.433-0.133,4.133-0.066,5.1,0.2l-0.2-0.55c0.767-0.167,1.2-0.2,1.3-0.1
					c0.133-0.033,0.316-0.033,0.55,0c0.233,0.066,0.417,0.083,0.55,0.05s0.3-0.133,0.5-0.3c0.167-0.2,0.5-0.35,1-0.45
					c1.3-0.367,2.7-0.483,4.2-0.35c1.4,0.1,2.333,0.333,2.8,0.7c-0.033-0.167-0.183-0.45-0.45-0.85c-0.233-0.3-0.4-0.483-0.5-0.55
					c0.066,0,0.233,0.033,0.5,0.1c0.233,0,0.35-0.233,0.35-0.7c0.167,0.033,0.383-0.033,0.65-0.2c0.333-0.233,0.5-0.5,0.5-0.8
					c0.5-0.167,1.117-0.433,1.85-0.8c0.3-0.167,0.6-0.3,0.9-0.4c-0.467-0.033-0.95-0.066-1.45-0.1c-2.3-0.034-4.533,0.233-6.7,0.8
					c-1.3,0.467-2.217,0.767-2.75,0.9c0.1,0.1,0.4,0.217,0.9,0.35c0.5,0.1,0.833,0.2,1,0.3c-1.3-0.033-2-0.033-2.1,0
					c0.3,0.167,0.483,0.383,0.55,0.65h-0.2c-1.067-0.333-1.9-0.483-2.5-0.45L56.1-2.4c-0.3-0.033-1.267-0.05-2.9-0.05
					C51.433-2.417,50.367-2.3,50-2.1c-0.2-0.733-0.467-1.283-0.8-1.65c-0.167,0.233-0.317,0.417-0.45,0.55
					c-0.133,0.233-0.317,0.367-0.55,0.4c-0.833,0.133-1.467,0.25-1.9,0.35c0.067-0.133,0.217-0.333,0.45-0.6
					c-0.133,0.1-0.283,0.2-0.45,0.3c-0.2,0.133-0.417,0.233-0.65,0.3c-0.967,0.267-2.017,0.017-3.15-0.75
					c-1.967-1.267-3.167-1.983-3.6-2.15l0.2,0.8c0.066,0.066,0.15,0.15,0.25,0.25c-1.133,0.033-2.684-0.133-4.65-0.5
					c-2-0.367-3.233-0.583-3.7-0.65c0.1,0.333,0.083,0.517-0.05,0.55c-0.034-0.033-0.567-0.167-1.6-0.4c-1-0.2-1.55-0.4-1.65-0.6
					v0.15c0.3,0.133,0.517,0.267,0.65,0.4c0.066,0.1,0.217,0.317,0.45,0.65h-0.2l-0.55-0.35l-0.25,0.1
					c0.067-0.033,0.15,0.117,0.25,0.45c-1.633-0.467-2.667-0.767-3.1-0.9c-0.6-0.233-1.333-0.684-2.2-1.35L22.7-6.7
					c0.033,0.034-0.067,0.067-0.3,0.1c-0.733,0.2-1.217,0.033-1.45-0.5c-0.133-0.333-0.4-1.033-0.8-2.1
					c-0.467-0.7-0.95-1.283-1.45-1.75c-0.534-0.4-0.9-0.683-1.1-0.85l0.05,0.15c0.033-0.033,0.117,0.017,0.25,0.15
					c0.1,0.1,0.167,0.183,0.2,0.25c-2.434-1.633-3.9-2.667-4.4-3.1c-0.767-0.667-1.284-1.467-1.55-2.4
					c-0.033-0.233-0.05-0.6-0.05-1.1c0-0.467-0.05-0.883-0.15-1.25l0.35-0.1c0.034,0.1,0.083,0.15,0.15,0.15c0.033,0,0.066,0,0.1,0
					l-0.35-1.3c0.133-0.033,0.25-0.033,0.35,0c0.067,0.033,0.133,0.05,0.2,0.05l-0.05-0.2c-0.4-0.5-0.784-1.05-1.15-1.65
					c-0.3-0.6-0.5-1.1-0.6-1.5c-0.034-0.1-0.05-0.417-0.05-0.95c-0.033-0.533-0.1-0.967-0.2-1.3l0.4-0.1
					c0.3,0.167,0.633,0.217,1,0.15c-0.633-0.167-1.184-0.533-1.65-1.1c-0.5-0.667-0.867-1.133-1.1-1.4
					c-0.267-0.566-0.583-1.017-0.95-1.35c-0.5-0.5-0.816-0.816-0.95-0.95l0.1,0.55C7.05-30.733,6.25-31.533,5.15-32.5z"/>
				<path style="fill-rule:evenodd;clip-rule:evenodd;fill:#002C30;" d="M74.7-18.05c0.2-0.534,0.383-1.1,0.55-1.7
					c-0.433,0.267-0.817,0.45-1.15,0.55l-0.25-0.85c0.066-0.333,0-1.05-0.2-2.15l-0.55-2.15c0.033,0.5,0.083,0.917,0.15,1.25
					c-0.167,0.033-0.467-0.033-0.9-0.2c-0.033,0-0.067-0.034-0.1-0.1c-0.2-0.033-0.35-0.1-0.45-0.2c-0.267-0.1-0.433-0.183-0.5-0.25
					h-0.1c0.033,0.067,0.066,0.117,0.1,0.15c-0.667-0.2-1.033-0.316-1.1-0.35c0.333,0.433,0.533,0.7,0.6,0.8
					c0.133,0.2,0.25,0.433,0.35,0.7c0.067,0.5,0.117,0.9,0.15,1.2c-0.433-0.367-0.716-0.566-0.85-0.6c-0.1,0.3-0.2,0.5-0.3,0.6
					c-0.1,0.167-0.217,0.267-0.35,0.3c-0.667-0.133-1.033-0.2-1.1-0.2l-0.3,0.4c-0.2,0.233-0.417,0.367-0.65,0.4
					c-0.2,0.067-0.367,0.05-0.5-0.05c-0.333-0.167-0.617-0.3-0.85-0.4l-0.55,1.25c-0.4-0.233-0.65-0.367-0.75-0.4
					c-0.067,0-0.233,0.033-0.5,0.1c-0.233,0.067-0.434,0.25-0.6,0.55c-0.167,0.267-0.267,0.4-0.3,0.4c-0.2,0.067-0.5,0.05-0.9-0.05
					c-0.367-0.133-0.583-0.2-0.65-0.2c0.2,0.2,0.3,0.333,0.3,0.4l-0.1,0.05c-0.833,0.033-1.733-0.25-2.7-0.85
					c-0.033,0.3-0.15,0.6-0.35,0.9c-0.3,0.433-0.517,0.767-0.65,1c-0.167-0.167-0.283-0.267-0.35-0.3
					c-0.133-0.1-0.267-0.117-0.4-0.05c-0.133,0-0.217,0.083-0.25,0.25c-0.033,0.133-0.1,0.233-0.2,0.3l-0.5-0.3l0.05,0.1
					c0.167,0.3,0.283,0.533,0.35,0.7c-0.2-0.133-0.533-0.267-1-0.4c-0.6-0.133-1.15-0.133-1.65,0c-0.333,0.067-0.684,0.2-1.05,0.4
					c-0.3,0.167-0.483,0.267-0.55,0.3c-0.367,0.1-1.067-0.167-2.1-0.8l0.1,0.3c-0.2,0.033-0.383-0.05-0.55-0.25
					c-0.2-0.167-0.316-0.367-0.35-0.6l-0.1,0.05c0,0.267,0.083,0.716,0.25,1.35c-0.133-0.1-0.233-0.15-0.3-0.15
					c-0.1-0.033-0.2-0.033-0.3,0c0.167,0.467,0.283,0.783,0.35,0.95c-0.267,0.066-0.533-0.017-0.8-0.25
					c0.067,0.433,0.1,0.717,0.1,0.85c-0.033-0.067-0.066-0.1-0.1-0.1c-0.233-0.3-0.35-0.517-0.35-0.65
					c-0.034,0.167-0.083,0.35-0.15,0.55c-0.1-0.067-0.2-0.083-0.3-0.05l-0.55,0.6c-0.034-0.133-0.15-0.3-0.35-0.5
					c-0.2-0.2-0.4-0.3-0.6-0.3l-0.05,0.15L47-15.45c-0.333-0.233-0.617-0.4-0.85-0.5c-0.333-0.1-0.566-0.167-0.7-0.2l0.1,0.05
					c0.034,0.033,0.017,0.067-0.05,0.1c-0.033,0-0.233-0.05-0.6-0.15c-0.3-0.067-0.467-0.15-0.5-0.25
					c-0.066-0.2-0.033-0.333,0.1-0.4c0.067-0.067,0.067-0.167,0-0.3L44.05-17c-0.4,0.333-0.683,0.75-0.85,1.25
					c-0.133,0.367-0.35,0.583-0.65,0.65c-0.4,0.1-0.767-0.05-1.1-0.45c-0.434-0.4-0.784-0.567-1.05-0.5
					c-0.433,0.367-0.667,0.55-0.7,0.55c-0.133-0.467-0.25-0.783-0.35-0.95L39.2-16.4c-0.034,0.1-0.1,0.217-0.2,0.35
					c-0.067-0.267-0.233-0.467-0.5-0.6l-0.25,0.45c-0.867-1-2.683-1.933-5.45-2.8c-0.167,0.067-0.267,0.117-0.3,0.15
					c-0.2-0.267-0.333-0.4-0.4-0.4L31.95-19c0-0.133-0.067-0.217-0.2-0.25c-0.1-0.033-0.167-0.05-0.2-0.05
					c-0.066,0.133-0.1,0.233-0.1,0.3c-0.133-0.7-0.4-1.533-0.8-2.5c-0.667-1.733-1.5-3.033-2.5-3.9c-0.867-0.8-1.95-1.3-3.25-1.5
					c-0.9-0.133-1.3-0.4-1.2-0.8l-0.25,0.3c-0.034-0.1-0.117-0.2-0.25-0.3c-0.133,0.534-0.2,1.017-0.2,1.45
					c-0.067-0.1-0.65-0.9-1.75-2.4c-0.933-1.233-1.4-1.983-1.4-2.25c-0.033,0.033-0.1,0.083-0.2,0.15
					c-0.066,0.067-0.117,0.1-0.15,0.1l-0.1-0.3h-0.1c-0.066,0.1-0.117,0.2-0.15,0.3c-0.033,0.133-0.083,0.25-0.15,0.35
					c-0.067-0.333-0.033-0.833,0.1-1.5c0.133-0.667,0.15-1.2,0.05-1.6c-0.467-1.7-0.933-2.85-1.4-3.45
					c-0.333-0.5-0.733-0.717-1.2-0.65l-0.3-1c-0.1,0.067-0.267,0.283-0.5,0.65c0-0.066-0.05-0.15-0.15-0.25
					c-0.033-0.167,0.083-0.433,0.35-0.8H15.9c-0.4,0.1-0.6,0.117-0.6,0.05c-0.033-0.133-0.1-0.167-0.2-0.1l-0.8,0.55
					c-0.133,0.033-0.25,0.017-0.35-0.05c-0.1-0.066-0.184-0.133-0.25-0.2c1.2-0.5,1.833-1.033,1.9-1.6c0-0.033-0.2-0.817-0.6-2.35
					c-0.5-1.933-0.967-3-1.4-3.2c-0.167,0.267-0.3,0.4-0.4,0.4c-0.133-0.333-0.317-0.717-0.55-1.15c0.067,0.233,0.067,0.417,0,0.55
					l-0.2-0.65L12.2-46.6c0,0.333,0,0.533,0,0.6c-0.067,0.2-0.267,0.3-0.6,0.3l-0.3-1.05c0-0.233-0.066-0.517-0.2-0.85
					c-0.033-0.167-0.1-0.4-0.2-0.7h-0.2l-0.05-0.2L9.8-48.25c-0.167,0.3-0.316,0.467-0.45,0.5c0.267-1.033,0.55-2,0.85-2.9
					c0.133-0.633,0.066-1.467-0.2-2.5c-0.133-0.5-0.317-0.817-0.55-0.95c-0.233-0.167-0.4-0.5-0.5-1
					c-0.034-0.133-0.117-0.533-0.25-1.2c-0.133-0.667-0.284-1.133-0.45-1.4c0,0.067-0.017,0.133-0.05,0.2H8.15
					c0-0.1,0.017-0.217,0.05-0.35c0.066-0.267,0.083-0.467,0.05-0.6l-0.1-0.4c0,0.1-0.117,0.2-0.35,0.3
					c0.2-0.267,0.25-0.583,0.15-0.95c-0.067-0.3-0.483-1.35-1.25-3.15c0-0.067-0.067-0.5-0.2-1.3c-0.1-0.733-0.2-1.3-0.3-1.7
					c-0.067-0.033-0.184-0.1-0.35-0.2c-0.167,0.133-0.267,0.367-0.3,0.7c0.034,0.3,0.1,0.583,0.2,0.85H5.7
					c-1.767,0.5-2.784,1.167-3.05,2c0.133,0.733,0.184,1.1,0.15,1.1c-0.033,0-0.883,1.733-2.55,5.2c0.1,0.333,0.4,0.467,0.9,0.4
					c0.434,0,0.667,0.233,0.7,0.7c-0.067,0.133-0.333,0.267-0.8,0.4c0.167,0.2,0.333,0.583,0.5,1.15l-0.7,0.15
					c0.1,0.233,0.167,0.567,0.2,1c0.067,0.367,0.15,0.667,0.25,0.9c0.133-0.233,0.2-0.467,0.2-0.7c0.467,0.167,0.7,0.367,0.7,0.6
					c0.267-0.867,0.367-1.4,0.3-1.6c0.1,0.033,0.517,0.05,1.25,0.05c0.633,0.034,0.9,0.284,0.8,0.75l0.6-0.2
					c0.367,1.367,0.7,2.383,1,3.05H6.3c-0.1-0.367-0.117-0.933-0.05-1.7l0.25,1.1c0.1-0.033,0.133-0.183,0.1-0.45
					c0.2,0.133,0.5,0.533,0.9,1.2c0.5,0.8,0.85,1.567,1.05,2.3c0.067,0.2,0.067,0.733,0,1.6c-0.033,0.633-0.066,1.1-0.1,1.4
					c0.033-0.067,0.066-0.167,0.1-0.3c0.1-0.2,0.117-0.367,0.05-0.5l0.15-0.05l0.25,1l0.1-0.05c0.066-0.034,0.083-0.083,0.05-0.15
					L9.35-44c0,0.1,0.017,0.2,0.05,0.3c0.233,0.934,0.717,1.9,1.45,2.9c0.533,0.8,0.933,1.3,1.2,1.5
					c-0.233-0.1-0.483-0.184-0.75-0.25c-0.3-0.034-0.517-0.017-0.65,0.05l0.25,0.9c0.4,0.367,0.684,0.667,0.85,0.9l0.35,1.35
					L10.7-36v0.2c1.167,0.3,2.017,0.867,2.55,1.7c0.433,1,0.75,1.733,0.95,2.2l-0.15,0.1c-0.4-0.133-0.683-0.35-0.85-0.65
					c-0.1-0.133-0.25-0.367-0.45-0.7c0.5,2.4,1.533,4.283,3.1,5.65c1.733,1.2,2.883,2.233,3.45,3.1
					c-0.367,0.033-0.867-0.067-1.5-0.3c-0.6-0.267-0.983-0.5-1.15-0.7l0.1,0.15c0.1,0.167,0.35,0.4,0.75,0.7
					c0.067,0.066,0.133,0.133,0.2,0.2c0.433,0.333,0.966,0.733,1.6,1.2c1.2,0.9,1.867,1.55,2,1.95l-0.9,0.25
					c0.133,0.167,0.35,0.25,0.65,0.25c0.267,0,0.517,0.167,0.75,0.5L21.05-20c-0.133-0.033-0.267-0.05-0.4-0.05
					c-0.167,0-0.35,0.033-0.55,0.1c0.267,0.067,0.533,0.1,0.8,0.1c0.5,0.133,0.967,0.233,1.4,0.3c0.034,0,0.067,0,0.1,0
					c0.533,0.133,1.05,0.25,1.55,0.35c0.1,0.2,0.183,0.4,0.25,0.6l0.05,0.15l0.05-0.05l0.6-0.45c0.133-0.1,0.267-0.2,0.4-0.3
					c0.233,0.4,0.4,0.633,0.5,0.7c0.267,0.167,0.684,0.216,1.25,0.15c0.333-0.067,0.75,0.066,1.25,0.4
					c0.534,0.367,0.817,0.55,0.85,0.55c0.167-0.033,0.25-0.1,0.25-0.2c0-0.167,0-0.267,0-0.3c0.067,0.034,0.3,0.217,0.7,0.55
					c0.367,0.333,0.7,0.566,1,0.7l0.05-0.15c0.033-0.1,0.05-0.167,0.05-0.2c0.5,0.167,1.35,0.483,2.55,0.95
					c1.067,0.4,1.8,0.717,2.2,0.95c0.867,0.5,1.733,0.95,2.6,1.35c0.5,0.367,0.934,1.133,1.3,2.3l0.05,0.15
					c0.133-0.033,0.467-0.3,1-0.8c0.333-0.067,0.567-0.05,0.7,0.05c0.066,0.1,0.167,0.233,0.3,0.4c0-0.1,0.067-0.25,0.2-0.45
					c0.2-0.267,0.35-0.417,0.45-0.45c0.133-0.033,0.35,0.033,0.65,0.2c0.267,0.167,0.417,0.316,0.45,0.45
					c0.2-0.433,0.317-0.683,0.35-0.75c0.067-0.1,0.283-0.2,0.65-0.3c0.033,0,1.95,0.183,5.75,0.55c-0.033-0.033-0.3-0.167-0.8-0.4
					c-0.467-0.267-0.767-0.483-0.9-0.65l-0.2-0.1c0.267,0.067,0.65,0.15,1.15,0.25c0.467,0.133,0.85,0.15,1.15,0.05l-0.15-0.5
					l0.85-0.25c0.667,0.133,2.033,0.1,4.1-0.1c0.132,0.033,0.266,0.05,0.4,0.05c-0.033-0.001-0.05-0.018-0.05-0.05
					c0.167-0.067,0.367-0.1,0.6-0.1c2.233-0.033,3.317,0.617,3.25,1.95c0.4-0.733,0.717-1.117,0.95-1.15
					c0.2-0.066,0.35-0.1,0.45-0.1c0.2,0,0.35,0.15,0.45,0.45c0.133-0.667,0.467-1.05,1-1.15c2.633-0.5,4.017-0.767,4.15-0.8
					c0.267-0.067,1.467-0.534,3.6-1.4C72-17.117,73.433-17.65,74.7-18.05z M13.2-36.8c-0.1-0.1-0.167-0.217-0.2-0.35l0.05-0.15
					c0.067,0.066,0.117,0.15,0.15,0.25C13.233-36.95,13.233-36.867,13.2-36.8z M8.15-57.5c-0.02,0.04-0.028,0.073-0.025,0.1
					L8.1-57.45L8.15-57.5z"/>
				<path style="fill-rule:evenodd;clip-rule:evenodd;fill:#001F41;" d="M25.95-13.3c-0.034-0.067-0.117-0.133-0.25-0.2l0.05,0.05
					l0.05,0.1C25.833-13.283,25.883-13.267,25.95-13.3z M35.6-13.6c-0.133-0.133-0.4-0.283-0.8-0.45c-0.133-0.067-0.3-0.167-0.5-0.3
					v0.2c0.2,0.033,0.367,0.066,0.5,0.1c0.233,0.133,0.45,0.267,0.65,0.4C35.517-13.617,35.567-13.6,35.6-13.6z M20-11.75
					c-0.033,0.033-0.05,0.117-0.05,0.25l0.15-0.05L20-11.75z"/>
				<path style="fill-rule:evenodd;clip-rule:evenodd;fill:#00162E;" d="M13.2-36.8c0.033-0.067,0.033-0.15,0-0.25
					c-0.034-0.1-0.083-0.184-0.15-0.25L13-37.15C13.033-37.017,13.1-36.9,13.2-36.8z"/>
			</g>
		</g>
	</g>
</symbol>
<g>
	<g>
		<path style="fill-rule:evenodd;clip-rule:evenodd;fill-opacity:0.451;" d="M114.35,387.6c-2.31-0.351-7.026-0.734-14.149-1.149
			c-7.434-0.5-12.15-1.3-14.15-2.4c-2.033-1.1-4.333-1.816-6.899-2.149c-2.601-0.334-5.284-0.5-8.05-0.5s-4.617,0.267-5.55,0.8
			c-1,0.533-2.1,0.85-3.3,0.95c-1.533,0.066-2.633,0.116-3.3,0.149c-1.1,0.101-2.083,0.334-2.95,0.7c-0.667,0.467-1.417,0.8-2.25,1
			c-1.533,0.066-2.533,0.15-3,0.25c-0.833,0.167-2.083,0.517-3.75,1.05c-1.4,0.467-2.4,0.7-3,0.7c-0.46-0.104-0.877-0.18-1.25-0.225
			c-0.214-0.017-0.414-0.025-0.6-0.025c0-0.066-0.05-0.1-0.15-0.1v-0.25c2.433-0.4,5.683-1.15,9.75-2.25
			c0.833-0.233,1.7-0.667,2.6-1.301c0.582-0.431,1.074-0.747,1.475-0.949c0.218-0.12,0.41-0.203,0.575-0.25
			c0.332-0.102,0.641-0.201,0.925-0.301c1.321-0.491,2.146-1.024,2.475-1.6c-0.466-0.066-1.183-0.184-2.15-0.35L55.7,379
			c-3.133,0-7.05,0.483-11.75,1.45c-4.667,0.967-7.583,1.45-8.75,1.45c-0.604-0.127-1.104-0.252-1.5-0.375
			c-1.065-0.352-1.315-0.702-0.75-1.051c0.096-0.026,0.196-0.051,0.3-0.074h0.65c0.167,0,0.333-0.017,0.5-0.051
			c1-0.066,1.767-0.133,2.3-0.199c1.133-0.134,2.617-0.434,4.45-0.9c0.434-0.134,2.583-0.684,6.45-1.65
			c4.267-1.066,6.667-1.6,7.2-1.6c0.8,0,2.534,0.217,5.2,0.65c3.533,0.533,6.117,0.899,7.75,1.1c1.433,0.167,3.45,0.233,6.05,0.2
			c3-0.033,4.983-0.017,5.95,0.05c3.5,0.167,6.066,0.467,7.7,0.9c1.899,0.533,5.333,1.949,10.3,4.25c2.366,1.066,4.533,1.6,6.5,1.6
			c1.066,0,3.283,0.384,6.65,1.15c3.314,0.74,5.448,1.182,6.399,1.324c0.036,0.013,0.069,0.021,0.101,0.025v0.4h-2.75
			C114.559,387.635,114.458,387.618,114.35,387.6z"/>
		<path style="fill-rule:evenodd;clip-rule:evenodd;fill-opacity:0.2;" d="M42.75,386.775c0.373,0.045,0.79,0.12,1.25,0.225
			c0.6,0,1.6-0.233,3-0.7c1.667-0.533,2.917-0.883,3.75-1.05c0.467-0.1,1.467-0.184,3-0.25c0.833-0.2,1.583-0.533,2.25-1
			c0.867-0.366,1.85-0.6,2.95-0.7c0.667-0.033,1.767-0.083,3.3-0.149c1.2-0.101,2.3-0.417,3.3-0.95c0.934-0.533,2.784-0.8,5.55-0.8
			s5.45,0.166,8.05,0.5c2.566,0.333,4.866,1.05,6.899,2.149c2,1.101,6.717,1.9,14.15,2.4c7.123,0.415,11.84,0.799,14.149,1.149
			c-0.962-0.066-1.679-0.1-2.149-0.1l-3.45,0.1c-1.333,0-2.434-0.083-3.3-0.25c-0.834-0.166-1.434-0.25-1.8-0.25
			c-7.967,0-14.184-0.767-18.65-2.3c-4.5-1.533-8.85-2.3-13.05-2.3c-1.367,0-2.717,0.217-4.05,0.65
			c-1.667,0.533-3.467,0.899-5.4,1.1c-2.4,0.2-4.1,0.45-5.1,0.75c-0.533,0.134-1.467,0.467-2.8,1c-0.9,0.366-1.35,0.45-1.35,0.25
			c-0.033,0-0.066,0-0.1,0c-1.077,0.011-2.327,0.194-3.75,0.55c-1.433,0.367-2.933,0.55-4.5,0.55
			C43.9,387.35,43.183,387.158,42.75,386.775z M57.325,381.35c0.774-0.362,1.216-0.729,1.325-1.1l-2-0.15
			c-4.538,0.002-7.455,0.168-8.75,0.5c-2.8,0.667-5.333,1.134-7.6,1.4c-2.033,0.233-3.05,0.233-3.05,0h-0.025
			c-1.451,0-2.259,0-2.425,0c-0.583-0.056-0.95-0.214-1.1-0.475c0.396,0.123,0.896,0.248,1.5,0.375c1.167,0,4.083-0.483,8.75-1.45
			c4.7-0.967,8.617-1.45,11.75-1.45l1.95,0.4c0.967,0.166,1.684,0.283,2.15,0.35C59.471,380.325,58.646,380.858,57.325,381.35z"/>
	</g>
</g>
<use xlink:href="#blue_x5F_tree_x5F_02"  width="75.25" height="193.85" y="-193.85" transform="matrix(2 0 0 -2 0 0)" style="overflow:visible;"/>
</svg>
