<?xml version="1.0" encoding="iso-8859-1"?>
<!-- Generator: Adobe Illustrator 16.0.0, SVG Export Plug-In . SVG Version: 6.00 Build 0)  -->
<!DOCTYPE svg PUBLIC "-//W3C//DTD SVG 1.1//EN" "http://www.w3.org/Graphics/SVG/1.1/DTD/svg11.dtd">
<svg version="1.1" id="Layer_1" xmlns="http://www.w3.org/2000/svg" xmlns:xlink="http://www.w3.org/1999/xlink" x="0px" y="0px"
	 width="192px" height="445px" viewBox="0 0 192 445" style="enable-background:new 0 0 192 445;" xml:space="preserve">
<symbol  id="blue_x5F_tree_x5F_06" viewBox="0 -220.8 94.262 220.8">
	<g id="Layer_3_1_">
		<g>
			<g>
				<g>
					<path style="fill-rule:evenodd;clip-rule:evenodd;fill:#1A3450;" d="M35.55-13.65c1.467,0.967,2.233,1.467,2.3,1.5
						c0.1,0.3,0.3,0.617,0.6,0.95l-0.8-0.3l-0.35,0.1c0.167,0.667,0.25,1.183,0.25,1.55c-0.3,0.067-0.733,0.033-1.3-0.1
						c-0.567-0.167-0.917-0.233-1.05-0.2c0.1,0.333,0.2,0.483,0.3,0.45l0.05,0.2c-0.733-0.433-1.233-0.667-1.5-0.7l0.15,0.5
						c-1.5-0.667-3.25-1.466-5.25-2.4c-1.8-0.9-2.95-1.433-3.45-1.6c0,0.023,0.008,0.04,0.025,0.05
						c-0.162-0.035-0.354-0.068-0.575-0.1c-0.667-0.133-1.083-0.25-1.25-0.35c-0.034,0.1-0.05,0.184-0.05,0.25
						c-0.033-0.167-0.1-0.25-0.2-0.25c-0.367-0.033-0.633-0.183-0.8-0.45c-0.297,0.396-0.414,0.664-0.35,0.8
						c-0.134-0.267-0.267-0.467-0.4-0.6c-0.2-0.133-0.333-0.267-0.4-0.4c-0.5,0.833-0.833,1.417-1,1.75
						c-0.2,0.433-0.35,0.8-0.45,1.1c-0.4-0.633-0.75-0.95-1.05-0.95c0-0.033-0.05-0.066-0.15-0.1c-0.067-0.066-0.1-0.117-0.1-0.15
						l0.9-0.25l-0.1-0.55l-0.95,0.25c-0.2-0.333-0.1-0.717,0.3-1.15l-0.1-0.4l-1.45,0.4c0.033-0.034,0.117-0.167,0.25-0.4
						c0.167-0.167,0.333-0.267,0.5-0.3v-0.15c0-0.033,0.033-0.067,0.1-0.1C17.9-15.917,17.4-16,16.7-16c-0.6,0-1.067,0.067-1.4,0.2
						c0.034-0.067,0.267-0.35,0.7-0.85c0.433-0.434,0.717-0.767,0.85-1c0-0.067-0.067-0.434-0.2-1.1
						c-0.167-0.567-0.066-0.95,0.3-1.15c-0.167-0.6-0.483-1.583-0.95-2.95l0.05-0.05c0.067-0.033,0.1-0.083,0.1-0.15
						c0.233,0.066,0.533,0.25,0.9,0.55l0.2-0.1l-0.4-1.35c-0.167-0.3-0.333-0.6-0.5-0.9c-0.133-0.233-0.367-0.517-0.7-0.85l-0.4-1.4
						c0.4,0.167,0.783,0.783,1.15,1.85c0.367,1,0.8,1.583,1.3,1.75l-0.25-1.05h0.05c-0.4-0.333-0.667-0.567-0.8-0.7l-0.05-0.15
						c0.167,0.167,0.55,0.383,1.15,0.65c0.633,0.233,1.133,0.35,1.5,0.35c-0.566-0.867-1.716-1.9-3.45-3.1
						c-1.567-1.4-2.6-3.283-3.1-5.65c0.2,0.3,0.35,0.533,0.45,0.7c0.167,0.267,0.45,0.467,0.85,0.6l0.15-0.05
						c-0.2-0.467-0.517-1.217-0.95-2.25c-0.533-0.833-1.383-1.383-2.55-1.65V-36l1.4-0.35l-0.35-1.4c-0.167-0.2-0.45-0.5-0.85-0.9
						l-0.25-0.85c0.133-0.1,0.35-0.117,0.65-0.05c0.267,0.066,0.517,0.15,0.75,0.25c-0.3-0.233-0.7-0.733-1.2-1.5
						c-0.733-1-1.217-1.967-1.45-2.9c-0.033-0.1-0.05-0.216-0.05-0.35l-0.2,0.1c0.033,0.067,0.017,0.1-0.05,0.1L9-43.75L8.75-44.8
						L8.6-44.75c0.033,0.167,0.017,0.35-0.05,0.55c-0.033,0.1-0.066,0.2-0.1,0.3c0.033-0.3,0.066-0.767,0.1-1.4
						c0.067-0.9,0.067-1.434,0-1.6C8.35-47.633,8-48.4,7.5-49.2c-0.4-0.667-0.7-1.083-0.9-1.25c0.033,0.267,0,0.417-0.1,0.45
						l-0.25-1.05C6.183-50.283,6.2-49.733,6.3-49.4l-0.2,0.05c-0.3-0.667-0.617-1.683-0.95-3.05l-0.6,0.15
						c0.1-0.433-0.167-0.683-0.8-0.75c-0.733,0-1.15-0.017-1.25-0.05c0.067,0.233-0.033,0.783-0.3,1.65c0-0.233-0.233-0.434-0.7-0.6
						c0,0.2-0.067,0.433-0.2,0.7v0.05l-0.35,0.1c0-0.133-0.05-0.184-0.15-0.15l-0.25-0.85l-0.35,0.1C0.067-51.817,0-51.667,0-51.6
						c0,0.033,0.033,0.233,0.1,0.6c0.167,0.667,0.533,1.267,1.1,1.8c0.566,0.534,0.9,0.95,1,1.25l-0.8,0.2
						c0.367-0.067,0.767,0.15,1.2,0.65c-0.167,0.033-0.3,0.117-0.4,0.25c-0.167,0.1-0.233,0.2-0.2,0.3
						c0.233-0.067,0.467-0.083,0.7-0.05l-1,0.3c0.167,0.133,0.483,0.2,0.95,0.2c0.5,0,0.917,0.1,1.25,0.3
						c-0.2,0.767-0.25,1.316-0.15,1.65c0.2,0.733,0.517,1.4,0.95,2c0.167,0.267,0.617,0.8,1.35,1.6L5.5-40.4
						c-0.067-0.033-0.167-0.133-0.3-0.3c-0.067-0.1-0.133-0.133-0.2-0.1c0.033,0.133,0.067,0.383,0.1,0.75
						c0.033,0.3,0.066,0.517,0.1,0.65C5.733-38.767,6-38.417,6-38.35c0.1,0.267,0.05,0.533-0.15,0.8
						c-0.2,0.333-0.317,0.566-0.35,0.7c-0.033-0.133-0.167-0.167-0.4-0.1l0.15,0.7l-0.3,0.1c0.333,0.333,0.583,0.667,0.75,1
						C5.767-35.017,5.867-34.633,6-34c0.133,0.8,0.233,1.383,0.3,1.75l-0.35,0.1l-0.9-0.7l0.1,0.35c1.1,0.933,1.9,1.733,2.4,2.4
						l-0.1-0.6c0.133,0.167,0.45,0.5,0.95,1c0.367,0.3,0.684,0.75,0.95,1.35c0.233,0.267,0.6,0.733,1.1,1.4
						c0.466,0.567,1,0.917,1.6,1.05c-0.333,0.1-0.65,0.066-0.95-0.1l-0.4,0.1c0.1,0.3,0.167,0.733,0.2,1.3
						c0,0.533,0.017,0.85,0.05,0.95c0.1,0.4,0.3,0.883,0.6,1.45c0.333,0.633,0.717,1.2,1.15,1.7l0.05,0.15
						c-0.067,0.033-0.133,0.033-0.2,0c-0.1-0.033-0.216-0.033-0.35,0l0.35,1.25c-0.033,0-0.066,0-0.1,0
						c-0.067,0-0.133-0.033-0.2-0.1l-0.3,0.1c0.066,0.367,0.1,0.783,0.1,1.25s0.034,0.833,0.1,1.1c0.267,0.9,0.783,1.683,1.55,2.35
						c0.5,0.433,1.966,1.483,4.4,3.15c-0.033-0.1-0.1-0.2-0.2-0.3c-0.133-0.1-0.217-0.133-0.25-0.1l-0.1-0.2
						c0.233,0.2,0.617,0.5,1.15,0.9c0.5,0.434,0.983,1.017,1.45,1.75c0.4,1.067,0.667,1.767,0.8,2.1c0.233,0.533,0.716,0.7,1.45,0.5
						l0.3-0.1l0.05-0.05c0.867,0.667,1.6,1.1,2.2,1.3c0.433,0.167,1.466,0.467,3.1,0.9c-0.1-0.3-0.2-0.45-0.3-0.45l0.3-0.05
						L28.6-4.7l0.2-0.05c-0.267-0.333-0.417-0.533-0.45-0.6C28.217-5.483,28-5.633,27.7-5.8v-0.1c0.1,0.2,0.65,0.4,1.65,0.6
						c1.033,0.233,1.566,0.35,1.6,0.35c0.133,0,0.15-0.183,0.05-0.55c0.467,0.1,1.7,0.333,3.7,0.7
						c1.966,0.367,3.517,0.517,4.65,0.45c-0.1-0.066-0.184-0.15-0.25-0.25l-0.2-0.75c0.434,0.167,1.633,0.883,3.6,2.15
						c1.133,0.733,2.183,0.967,3.15,0.7c0.233-0.033,0.45-0.117,0.65-0.25C46.467-2.883,46.6-3,46.7-3.1c-0.2,0.3-0.333,0.5-0.4,0.6
						c0.434-0.067,1.067-0.167,1.9-0.3c0.233-0.067,0.417-0.2,0.55-0.4c0.133-0.133,0.283-0.316,0.45-0.55
						c0.333,0.333,0.6,0.883,0.8,1.65c0.333-0.233,1.4-0.35,3.2-0.35c1.6-0.033,2.566-0.017,2.9,0.05l-0.25-0.85
						c0.6-0.067,1.433,0.083,2.5,0.45l0.2-0.05C58.483-3.083,58.3-3.283,58-3.45c0.1-0.033,0.8-0.033,2.1,0
						c-0.167-0.1-0.5-0.216-1-0.35s-0.8-0.233-0.9-0.3c0.533-0.167,1.45-0.467,2.75-0.9c2.167-0.567,4.4-0.833,6.7-0.8
						c0.5,0,0.983,0.033,1.45,0.1c0.367-0.167,0.683-0.283,0.95-0.35c-0.167-0.133-0.566-0.284-1.2-0.45L68.8-6.7
						c0.767-0.2,1.5-0.867,2.2-2c0.633-1.066,1.783-1.7,3.45-1.9c-0.133-0.033-0.267-0.066-0.4-0.1c-0.2-0.066-0.45-0.1-0.75-0.1
						c0.067-0.267,0.05-0.534-0.05-0.8c-0.033-0.167-0.1-0.25-0.2-0.25c-0.066,0.067-0.117,0.117-0.15,0.15
						c0.4-1.5,1-3.617,1.8-6.35c-1.267,0.4-2.7,0.917-4.3,1.55c-2.133,0.867-3.333,1.35-3.6,1.45c-0.133,0.033-1.517,0.3-4.15,0.8
						c-0.533,0.1-0.867,0.467-1,1.1c-0.1-0.267-0.267-0.4-0.5-0.4c-0.066,0-0.217,0.017-0.45,0.05c-0.2,0.067-0.5,0.467-0.9,1.2
						c0.034-1.333-1.05-1.983-3.25-1.95c-0.233,0-0.433,0.017-0.6,0.05c0,0.034,0.017,0.067,0.05,0.1
						c-0.133-0.033-0.267-0.066-0.4-0.1c-2.067,0.2-3.434,0.25-4.1,0.15l-0.85,0.25l0.15,0.45c-0.333,0.133-0.716,0.133-1.15,0
						c-0.5-0.133-0.883-0.217-1.15-0.25l0.2,0.1c0.133,0.133,0.433,0.333,0.9,0.6c0.5,0.267,0.767,0.417,0.8,0.45
						C46.6-12.817,44.683-13,44.65-13c-0.367,0.1-0.583,0.2-0.65,0.3c-0.067,0.034-0.183,0.267-0.35,0.7
						c-0.033-0.133-0.183-0.267-0.45-0.4c-0.3-0.167-0.517-0.233-0.65-0.2c-0.1,0-0.25,0.133-0.45,0.4
						c-0.133,0.233-0.2,0.383-0.2,0.45c-0.133-0.167-0.233-0.283-0.3-0.35c-0.167-0.133-0.4-0.167-0.7-0.1
						c-0.533,0.534-0.867,0.817-1,0.85l-0.05-0.2c-0.367-1.167-0.8-1.917-1.3-2.25c-0.867-0.4-1.733-0.867-2.6-1.4
						c-0.4-0.2-1.133-0.5-2.2-0.9c-1.2-0.467-2.067-0.8-2.6-1c0.033,0.067,0.033,0.15,0,0.25l-0.05,0.1
						c-0.3-0.133-0.633-0.35-1-0.65c-0.434-0.367-0.667-0.55-0.7-0.55v0.25c0,0.1-0.083,0.167-0.25,0.2
						c-0.066,0.033-0.35-0.133-0.85-0.5s-0.917-0.517-1.25-0.45c-0.566,0.1-0.983,0.067-1.25-0.1c-0.1-0.067-0.267-0.317-0.5-0.75
						c-0.133,0.133-0.267,0.233-0.4,0.3c-0.4,0.3-0.6,0.467-0.6,0.5c1.833,1.067,2.967,1.65,3.4,1.75
						c-0.034-0.1-0.133-0.25-0.3-0.45l-0.2-0.15c0.066,0,1.25,0.567,3.55,1.7c2.3,1.066,3.85,1.717,4.65,1.95
						c-0.167-0.1-0.367-0.233-0.6-0.4C35.153-13.923,35.403-13.773,35.55-13.65z M34.8-14.1c-0.133-0.033-0.3-0.066-0.5-0.1v-0.15
						C34.467-14.25,34.633-14.167,34.8-14.1z M25.75-13.45c0-0.033-0.017-0.066-0.05-0.1c0.1,0.066,0.183,0.15,0.25,0.25
						c-0.067,0-0.117-0.017-0.15-0.05L25.75-13.45z M20-11.8l0.1,0.2l-0.2,0.05C19.933-11.65,19.967-11.733,20-11.8z"/>
					<path style="fill-rule:evenodd;clip-rule:evenodd;fill:#24476B;" d="M69.1-5.7c-0.467-0.066-0.95-0.1-1.45-0.1
						c-2.3-0.034-4.533,0.233-6.7,0.8c-1.3,0.433-2.217,0.733-2.75,0.9c0.1,0.067,0.4,0.167,0.9,0.3s0.833,0.25,1,0.35
						c-1.3-0.033-2-0.033-2.1,0c0.3,0.167,0.483,0.367,0.55,0.6l-0.2,0.05c-1.067-0.367-1.9-0.517-2.5-0.45L56.1-2.4
						c-0.333-0.067-1.3-0.083-2.9-0.05c-1.8,0-2.867,0.117-3.2,0.35c-0.2-0.767-0.467-1.316-0.8-1.65
						c-0.167,0.233-0.317,0.417-0.45,0.55C48.617-3,48.433-2.867,48.2-2.8c-0.833,0.133-1.467,0.233-1.9,0.3
						c0.067-0.1,0.2-0.3,0.4-0.6c-0.1,0.1-0.233,0.217-0.4,0.35c-0.2,0.133-0.417,0.217-0.65,0.25
						c-0.967,0.267-2.017,0.033-3.15-0.7c-1.967-1.267-3.167-1.983-3.6-2.15l0.2,0.75c0.066,0.1,0.15,0.184,0.25,0.25
						c-1.133,0.067-2.684-0.083-4.65-0.45c-2-0.367-3.233-0.6-3.7-0.7c0.1,0.367,0.083,0.55-0.05,0.55
						c-0.034,0-0.567-0.117-1.6-0.35c-1-0.2-1.55-0.4-1.65-0.6v0.1c0.3,0.167,0.517,0.316,0.65,0.45
						c0.033,0.067,0.183,0.267,0.45,0.6L28.6-4.7l-0.55-0.35L27.75-5c0.1,0,0.2,0.15,0.3,0.45c-1.633-0.434-2.667-0.733-3.1-0.9
						c-0.6-0.2-1.333-0.633-2.2-1.3L22.7-6.7l-0.3,0.1c-0.733,0.2-1.217,0.033-1.45-0.5c-0.133-0.333-0.4-1.033-0.8-2.1
						c-0.467-0.733-0.95-1.316-1.45-1.75c-0.534-0.4-0.917-0.7-1.15-0.9l0.1,0.2c0.033-0.033,0.117,0,0.25,0.1
						c0.1,0.1,0.167,0.2,0.2,0.3c-2.434-1.667-3.9-2.717-4.4-3.15c-0.767-0.667-1.284-1.45-1.55-2.35
						c-0.066-0.267-0.1-0.633-0.1-1.1s-0.033-0.883-0.1-1.25l0.3-0.1c0.067,0.067,0.133,0.1,0.2,0.1c0.033,0,0.066,0,0.1,0
						l-0.35-1.25c0.133-0.033,0.25-0.033,0.35,0c0.067,0.033,0.133,0.033,0.2,0L12.7-20.5c-0.434-0.5-0.817-1.067-1.15-1.7
						c-0.3-0.566-0.5-1.05-0.6-1.45c-0.034-0.1-0.05-0.417-0.05-0.95c-0.033-0.566-0.1-1-0.2-1.3l0.4-0.1
						c0.3,0.167,0.617,0.2,0.95,0.1c-0.6-0.133-1.133-0.483-1.6-1.05c-0.5-0.667-0.867-1.133-1.1-1.4
						c-0.267-0.6-0.583-1.05-0.95-1.35c-0.5-0.5-0.816-0.833-0.95-1l0.1,0.6c-0.5-0.667-1.3-1.467-2.4-2.4l0.45,1.75
						c0.267,1.067,0.617,1.8,1.05,2.2c0.767,0.667,1.333,1.3,1.7,1.9l-0.7,0.2c1.367,2.267,2.184,3.733,2.45,4.4L9.75-22
						c-0.033-0.1-0.117-0.133-0.25-0.1c0.4,0.467,0.633,0.8,0.7,1c0.066,0.267-0.034,0.633-0.3,1.1c-0.267,0.4-0.367,0.733-0.3,1
						c0.066,0.4,0.233,0.567,0.5,0.5l0.55,2.15c-0.133-0.066-0.283-0.133-0.45-0.2c-0.3-0.2-0.534-0.417-0.7-0.65l0.3,0.95
						c0.034,0.167,0.217,0.5,0.55,1c0.6,0.767,1.4,1.567,2.4,2.4c0.567,0.533,1.25,0.95,2.05,1.25c0.633,0.233,1.034,0.467,1.2,0.7
						c-0.433-0.167-0.7-0.233-0.8-0.2c0.533,0.3,0.8,0.6,0.8,0.9l-0.35,0.1l0.85,0.55c-0.233,0.066-0.517,0.117-0.85,0.15
						c-0.367,0.033-0.6,0.066-0.7,0.1c0.333,0.2,1.133,0.85,2.4,1.95c1.4,1,2.65,1.55,3.75,1.65l-0.35,0.05
						c0.033,0.233,0,0.5-0.1,0.8c-0.066,0.4-0.1,0.833-0.1,1.3l0.1,0.15l0.2-0.45c0.167-0.267,0.316-0.417,0.45-0.45
						c0.2-0.067,0.684-0.017,1.45,0.15c0.7,0.167,1.083,0.316,1.15,0.45l0.4-0.65c0.6,0.167,1.284,0.434,2.05,0.8
						c0.333,0.167,1.333,0.633,3,1.4L29.3-2.2c-0.2-0.133-0.283-0.216-0.25-0.25l-0.25-1c0.8,0.333,2.167,0.434,4.1,0.3
						c1.8-0.133,3.05,0,3.75,0.4c-0.033-0.133,0.033-0.35,0.2-0.65c0.133,0.2,0.316,0.35,0.55,0.45c0.233,0.067,0.4,0.15,0.5,0.25
						c0.1-0.033,0.167-0.117,0.2-0.25c0.066-0.133,0.083-0.25,0.05-0.35l0.5-0.15c-0.066,0.934,0.3,1.333,1.1,1.2
						c1-0.133,1.583-0.083,1.75,0.15c0.133,0.533,0.517,0.95,1.15,1.25C42.783-0.783,43.633-0.5,45.2,0l-0.25-1
						c0.767,0.3,2.283,0.383,4.55,0.25c2.433-0.133,4.117-0.067,5.05,0.2l-0.15-0.5c0.767-0.2,1.2-0.25,1.3-0.15
						c0.133-0.033,0.316-0.033,0.55,0c0.233,0.1,0.417,0.117,0.55,0.05c0.133-0.033,0.3-0.133,0.5-0.3c0.167-0.167,0.5-0.3,1-0.4
						c1.3-0.367,2.7-0.5,4.2-0.4c1.367,0.1,2.3,0.333,2.8,0.7C65.267-1.717,65.117-2,64.85-2.4c-0.233-0.267-0.4-0.434-0.5-0.5
						c0.066-0.033,0.233-0.017,0.5,0.05c0.2,0,0.3-0.217,0.3-0.65c0.167,0,0.383-0.083,0.65-0.25c0.367-0.2,0.55-0.467,0.55-0.8
						c0.5-0.133,1.117-0.383,1.85-0.75C68.5-5.467,68.8-5.6,69.1-5.7z"/>
					<path style="fill-rule:evenodd;clip-rule:evenodd;fill:#0F2338;" d="M1.3-51.3c0.133-0.267,0.2-0.5,0.2-0.7
						c0.467,0.167,0.7,0.367,0.7,0.6c0.267-0.867,0.367-1.417,0.3-1.65C2.6-53.017,3.017-53,3.75-53c0.633,0.067,0.9,0.317,0.8,0.75
						l0.6-0.15c0.333,1.367,0.65,2.383,0.95,3.05l0.2-0.05c-0.1-0.333-0.117-0.883-0.05-1.65L6.5-50c0.1-0.033,0.133-0.183,0.1-0.45
						c0.2,0.167,0.5,0.583,0.9,1.25c0.5,0.8,0.85,1.567,1.05,2.3c0.067,0.167,0.067,0.7,0,1.6c-0.033,0.633-0.066,1.1-0.1,1.4
						c0.033-0.1,0.066-0.2,0.1-0.3c0.067-0.2,0.083-0.383,0.05-0.55l0.15-0.05L9-43.75l0.1-0.1c0.066,0,0.083-0.033,0.05-0.1
						l0.2-0.1c0,0.133,0.017,0.25,0.05,0.35c0.233,0.934,0.717,1.9,1.45,2.9c0.5,0.767,0.9,1.267,1.2,1.5
						c-0.233-0.1-0.483-0.184-0.75-0.25c-0.3-0.067-0.517-0.05-0.65,0.05l0.25,0.85c0.4,0.4,0.684,0.7,0.85,0.9l0.35,1.4L10.7-36
						v0.2c1.167,0.267,2.017,0.816,2.55,1.65c0.433,1.033,0.75,1.783,0.95,2.25l-0.15,0.05c-0.4-0.133-0.683-0.333-0.85-0.6
						c-0.1-0.167-0.25-0.4-0.45-0.7c0.5,2.367,1.533,4.25,3.1,5.65c1.733,1.2,2.883,2.233,3.45,3.1c-0.367,0-0.867-0.117-1.5-0.35
						c-0.6-0.267-0.983-0.483-1.15-0.65l0.05,0.15c0.133,0.133,0.4,0.367,0.8,0.7c0.067,0.033,0.133,0.1,0.2,0.2
						c0.433,0.333,0.966,0.733,1.6,1.2c1.2,0.867,1.867,1.517,2,1.95l-0.9,0.25c0.133,0.133,0.35,0.2,0.65,0.2
						c0.267,0.033,0.517,0.2,0.75,0.5l-0.75,0.2c-0.133-0.034-0.267-0.034-0.4,0c-0.167,0-0.35,0.033-0.55,0.1
						c0.267,0.034,0.533,0.067,0.8,0.1c0.467,0.1,0.934,0.2,1.4,0.3c0.034,0,0.067,0,0.1,0c0.533,0.1,1.05,0.2,1.55,0.3
						c0.1,0.233,0.183,0.433,0.25,0.6l0.05,0.2l0.05-0.05c0-0.033,0.2-0.2,0.6-0.5c0.133-0.067,0.267-0.167,0.4-0.3
						c0.233,0.433,0.4,0.683,0.5,0.75c0.267,0.167,0.684,0.2,1.25,0.1c0.333-0.066,0.75,0.083,1.25,0.45s0.784,0.533,0.85,0.5
						c0.167-0.033,0.25-0.1,0.25-0.2v-0.25c0.033,0,0.267,0.184,0.7,0.55c0.367,0.3,0.7,0.517,1,0.65l0.05-0.1
						c0.033-0.1,0.033-0.183,0-0.25c0.533,0.2,1.4,0.533,2.6,1c1.067,0.4,1.8,0.7,2.2,0.9c0.867,0.534,1.733,1,2.6,1.4
						c0.5,0.333,0.934,1.083,1.3,2.25l0.05,0.2c0.133-0.033,0.467-0.316,1-0.85c0.3-0.066,0.533-0.033,0.7,0.1
						c0.066,0.067,0.167,0.184,0.3,0.35c0-0.067,0.067-0.217,0.2-0.45c0.2-0.267,0.35-0.4,0.45-0.4c0.133-0.033,0.35,0.033,0.65,0.2
						c0.267,0.133,0.417,0.267,0.45,0.4c0.167-0.433,0.283-0.667,0.35-0.7c0.067-0.1,0.283-0.2,0.65-0.3
						c0.033,0,1.95,0.183,5.75,0.55c-0.033-0.033-0.3-0.183-0.8-0.45c-0.467-0.267-0.767-0.467-0.9-0.6l-0.2-0.1
						c0.267,0.033,0.65,0.117,1.15,0.25c0.434,0.133,0.817,0.133,1.15,0l-0.15-0.45l0.85-0.25c0.667,0.1,2.033,0.05,4.1-0.15
						c0.133,0.034,0.267,0.067,0.4,0.1c-0.033-0.033-0.05-0.066-0.05-0.1c0.167-0.033,0.367-0.05,0.6-0.05
						c2.2-0.033,3.284,0.617,3.25,1.95c0.4-0.733,0.7-1.133,0.9-1.2c0.233-0.033,0.383-0.05,0.45-0.05c0.233,0,0.4,0.133,0.5,0.4
						c0.133-0.633,0.467-1,1-1.1c2.633-0.5,4.017-0.767,4.15-0.8c0.267-0.1,1.467-0.583,3.6-1.45c1.6-0.633,3.033-1.15,4.3-1.55
						c0.2-0.534,0.383-1.1,0.55-1.7c-0.433,0.233-0.817,0.4-1.15,0.5l-0.25-0.85c0.066-0.3,0-1-0.2-2.1l-0.6-2.15
						c0.067,0.467,0.133,0.883,0.2,1.25c-0.167,0-0.467-0.083-0.9-0.25c-0.033,0-0.067-0.017-0.1-0.05
						c-0.2-0.067-0.367-0.133-0.5-0.2c-0.233-0.1-0.383-0.2-0.45-0.3l-0.1,0.05c0.026,0.052,0.051,0.086,0.075,0.1
						c-0.684-0.167-1.042-0.267-1.075-0.3c0.333,0.4,0.533,0.65,0.6,0.75c0.133,0.233,0.233,0.483,0.3,0.75
						c0.1,0.466,0.167,0.85,0.2,1.15c-0.433-0.367-0.716-0.55-0.85-0.55c-0.133,0.267-0.233,0.45-0.3,0.55
						c-0.1,0.167-0.217,0.267-0.35,0.3c-0.667-0.1-1.033-0.15-1.1-0.15l-0.35,0.35c-0.167,0.233-0.367,0.383-0.6,0.45
						c-0.2,0.067-0.367,0.05-0.5-0.05c-0.333-0.2-0.617-0.35-0.85-0.45c-0.367,0.833-0.566,1.267-0.6,1.3
						c-0.367-0.267-0.6-0.417-0.7-0.45c-0.1,0-0.283,0.05-0.55,0.15c-0.2,0.034-0.383,0.2-0.55,0.5L63.7-19
						c-0.2,0.067-0.5,0.033-0.9-0.1c-0.4-0.1-0.617-0.15-0.65-0.15c0.167,0.2,0.267,0.333,0.3,0.4h-0.1
						c-0.833,0.067-1.733-0.217-2.7-0.85c-0.033,0.3-0.15,0.617-0.35,0.95c-0.333,0.4-0.55,0.733-0.65,1
						c-0.167-0.167-0.283-0.267-0.35-0.3c-0.133-0.1-0.267-0.133-0.4-0.1s-0.217,0.133-0.25,0.3c-0.033,0.133-0.1,0.233-0.2,0.3
						l-0.5-0.3L57-17.8c0.167,0.333,0.267,0.583,0.3,0.75c-0.167-0.133-0.483-0.267-0.95-0.4c-0.633-0.167-1.184-0.183-1.65-0.05
						c-0.333,0.1-0.684,0.233-1.05,0.4c-0.3,0.2-0.483,0.317-0.55,0.35c-0.367,0.067-1.067-0.2-2.1-0.8l0.1,0.3
						c-0.2,0.033-0.4-0.067-0.6-0.3c-0.167-0.167-0.267-0.35-0.3-0.55l-0.1,0.05c0,0.233,0.066,0.667,0.2,1.3
						c-0.133-0.067-0.216-0.1-0.25-0.1c-0.133-0.066-0.233-0.083-0.3-0.05c0.167,0.5,0.283,0.833,0.35,1
						c-0.3,0.033-0.583-0.05-0.85-0.25c0.1,0.433,0.15,0.717,0.15,0.85c-0.033-0.067-0.066-0.1-0.1-0.1
						c-0.233-0.333-0.35-0.55-0.35-0.65c-0.034,0.167-0.083,0.35-0.15,0.55c-0.1-0.1-0.2-0.133-0.3-0.1l-0.55,0.65
						c-0.034-0.133-0.15-0.3-0.35-0.5c-0.2-0.233-0.4-0.35-0.6-0.35l-0.05,0.15l0.05,0.2c-0.367-0.233-0.65-0.4-0.85-0.5
						c-0.367-0.1-0.6-0.167-0.7-0.2l0.1,0.05c0.034,0.033,0.017,0.05-0.05,0.05s-0.267-0.034-0.6-0.1c-0.3-0.1-0.467-0.184-0.5-0.25
						c-0.066-0.2-0.033-0.35,0.1-0.45c0.067-0.033,0.067-0.133,0-0.3L44.05-17c-0.4,0.3-0.683,0.7-0.85,1.2
						c-0.133,0.4-0.35,0.633-0.65,0.7c-0.4,0.1-0.767-0.066-1.1-0.5c-0.467-0.367-0.817-0.517-1.05-0.45
						c-0.433,0.367-0.667,0.55-0.7,0.55c-0.133-0.467-0.25-0.783-0.35-0.95H39.2c-0.034,0.133-0.1,0.267-0.2,0.4
						c-0.067-0.3-0.233-0.517-0.5-0.65l-0.3,0.45c-0.867-1-2.667-1.933-5.4-2.8c-0.167,0.1-0.283,0.167-0.35,0.2
						c-0.167-0.3-0.284-0.45-0.35-0.45L31.95-19c0-0.167-0.067-0.267-0.2-0.3c-0.1,0-0.167,0-0.2,0c-0.1,0.167-0.15,0.283-0.15,0.35
						c-0.133-0.733-0.383-1.6-0.75-2.6c-0.667-1.733-1.5-3.034-2.5-3.9c-0.867-0.767-1.95-1.25-3.25-1.45
						c-0.9-0.167-1.3-0.45-1.2-0.85l-0.25,0.35c-0.034-0.1-0.117-0.2-0.25-0.3c-0.133,0.534-0.2,1.017-0.2,1.45
						c-0.067-0.133-0.65-0.933-1.75-2.4c-0.933-1.267-1.4-2.017-1.4-2.25c-0.033,0-0.1,0.05-0.2,0.15
						c-0.066,0.033-0.117,0.067-0.15,0.1l-0.1-0.3h-0.1c-0.066,0.1-0.117,0.184-0.15,0.25c-0.033,0.133-0.083,0.25-0.15,0.35
						c-0.067-0.3-0.05-0.783,0.05-1.45c0.133-0.667,0.167-1.2,0.1-1.6c-0.467-1.7-0.933-2.867-1.4-3.5
						c-0.333-0.467-0.75-0.667-1.25-0.6l-0.25-1.05c-0.1,0.1-0.267,0.316-0.5,0.65c0-0.033-0.05-0.117-0.15-0.25
						c-0.033-0.133,0.083-0.4,0.35-0.8l-0.1,0.05c-0.367,0.1-0.55,0.117-0.55,0.05c-0.033-0.133-0.1-0.183-0.2-0.15l-0.8,0.6
						c-0.133,0.033-0.25,0.017-0.35-0.05c-0.1-0.066-0.184-0.133-0.25-0.2c1.2-0.533,1.833-1.083,1.9-1.65c0-0.034-0.2-0.8-0.6-2.3
						c-0.5-1.933-0.967-3.017-1.4-3.25c-0.167,0.267-0.3,0.417-0.4,0.45c-0.133-0.333-0.317-0.717-0.55-1.15
						c0.067,0.2,0.067,0.383,0,0.55l-0.2-0.7l-0.25,0.05c0,0.367,0,0.583,0,0.65c-0.067,0.2-0.267,0.283-0.6,0.25l-0.3-1
						c0-0.233-0.066-0.517-0.2-0.85c-0.033-0.2-0.1-0.45-0.2-0.75l-0.2,0.05l-0.05-0.2L9.8-48.25c-0.2,0.3-0.35,0.467-0.45,0.5
						c0.233-1.033,0.517-2.017,0.85-2.95c0.1-0.6,0.033-1.417-0.2-2.45c-0.133-0.5-0.317-0.817-0.55-0.95
						c-0.233-0.167-0.4-0.5-0.5-1c-0.067-0.167-0.167-0.566-0.3-1.2C8.55-57,8.4-57.467,8.2-57.7c0.033,0.067,0.033,0.117,0,0.15
						H8.15c0-0.067,0.017-0.184,0.05-0.35c0.066-0.267,0.066-0.45,0-0.55l-0.05-0.4c0,0.1-0.117,0.184-0.35,0.25
						c0.2-0.267,0.25-0.566,0.15-0.9c-0.067-0.3-0.483-1.35-1.25-3.15c0-0.1-0.067-0.533-0.2-1.3c-0.133-0.733-0.233-1.3-0.3-1.7
						c-0.067-0.033-0.184-0.1-0.35-0.2c-0.167,0.133-0.267,0.367-0.3,0.7c0.034,0.3,0.1,0.583,0.2,0.85c-0.033,0-0.067,0-0.1,0
						c-1.733,0.5-2.733,1.15-3,1.95c0.133,0.767,0.184,1.15,0.15,1.15c-0.033,0-0.883,1.733-2.55,5.2c0.067,0.3,0.367,0.433,0.9,0.4
						c0.434-0.033,0.667,0.2,0.7,0.7C1.783-54.8,1.5-54.683,1-54.55c0.2,0.2,0.383,0.583,0.55,1.15l-0.7,0.2
						c0.1,0.233,0.167,0.567,0.2,1C1.117-51.833,1.2-51.533,1.3-51.3z M16.55-30.05c-0.1-0.067-0.267-0.167-0.5-0.3v-0.15l0.2-0.05
						C16.417-30.35,16.517-30.183,16.55-30.05z M13.2-36.85c-0.1-0.066-0.167-0.167-0.2-0.3l0.05-0.2c0.034,0.1,0.083,0.2,0.15,0.3
						C13.233-36.983,13.233-36.917,13.2-36.85z M8.15-57.4L8.1-57.5l0.05-0.05C8.15-57.483,8.15-57.433,8.15-57.4z"/>
					<path style="fill-rule:evenodd;clip-rule:evenodd;fill:#172C42;" d="M35.55-13.65H35.5l-0.05-0.05H35.4
						c-0.8-0.233-2.35-0.883-4.65-1.95c-2.3-1.133-3.483-1.7-3.55-1.7l0.2,0.15c0.167,0.2,0.267,0.35,0.3,0.45
						c-0.434-0.1-1.567-0.683-3.4-1.75l-0.05,0.05l-0.05-0.2c-0.067-0.167-0.15-0.367-0.25-0.6c-0.5-0.1-1.017-0.2-1.55-0.3
						c-0.033,0-0.066,0-0.1,0c-0.466-0.1-0.933-0.2-1.4-0.3c-0.267-0.033-0.533-0.066-0.8-0.1c0.2-0.066,0.383-0.1,0.55-0.1
						c0.133-0.034,0.267-0.034,0.4,0l0.75-0.2c-0.233-0.3-0.483-0.467-0.75-0.5c-0.3,0-0.517-0.067-0.65-0.2l0.9-0.25
						c-0.133-0.433-0.8-1.083-2-1.95c-0.633-0.467-1.167-0.867-1.6-1.2c-0.067-0.1-0.133-0.167-0.2-0.2h-0.05l0.25,1.05
						c-0.5-0.167-0.934-0.75-1.3-1.75c-0.367-1.067-0.75-1.683-1.15-1.85l0.4,1.4c0.333,0.333,0.567,0.617,0.7,0.85
						c0.167,0.3,0.333,0.6,0.5,0.9l0.4,1.35l-0.2,0.1c-0.367-0.3-0.667-0.483-0.9-0.55c0,0.066-0.033,0.117-0.1,0.15L16-22.85
						c0.467,1.367,0.783,2.35,0.95,2.95c-0.367,0.2-0.467,0.583-0.3,1.15c0.133,0.667,0.2,1.033,0.2,1.1
						c-0.133,0.233-0.417,0.566-0.85,1c-0.433,0.5-0.667,0.783-0.7,0.85c0.333-0.133,0.8-0.2,1.4-0.2c0.7,0,1.2,0.083,1.5,0.25
						c-0.067,0.033-0.1,0.067-0.1,0.1v0.15c-0.167,0.033-0.333,0.133-0.5,0.3c-0.133,0.233-0.217,0.367-0.25,0.4l1.45-0.4l0.1,0.4
						c-0.4,0.433-0.5,0.816-0.3,1.15l0.95-0.25l0.1,0.55l-0.9,0.25c0,0.033,0.033,0.083,0.1,0.15c0.1,0.034,0.15,0.067,0.15,0.1
						c0.3,0,0.65,0.317,1.05,0.95c0.1-0.3,0.25-0.667,0.45-1.1c0.167-0.333,0.5-0.917,1-1.75c0.067,0.133,0.2,0.267,0.4,0.4
						c0.133,0.133,0.266,0.333,0.4,0.6c-0.064-0.136,0.053-0.403,0.35-0.8c0.167,0.267,0.434,0.417,0.8,0.45
						c0.1,0,0.167,0.083,0.2,0.25c0-0.066,0.017-0.15,0.05-0.25c0.167,0.1,0.583,0.217,1.25,0.35c0.221,0.032,0.413,0.065,0.575,0.1
						c-0.017-0.011-0.025-0.027-0.025-0.05c0.5,0.167,1.65,0.7,3.45,1.6c2,0.934,3.75,1.733,5.25,2.4l-0.15-0.5
						c0.267,0.034,0.767,0.267,1.5,0.7L35.5-9.7c-0.1,0.034-0.2-0.117-0.3-0.45c0.133-0.033,0.483,0.033,1.05,0.2
						c0.567,0.133,1,0.167,1.3,0.1c0-0.367-0.083-0.883-0.25-1.55l0.35-0.1l0.8,0.3c-0.3-0.333-0.5-0.65-0.6-0.95
						C37.783-12.183,37.017-12.683,35.55-13.65z"/>
					<path style="fill-rule:evenodd;clip-rule:evenodd;fill:#001F41;" d="M25.75-13.45l0.05,0.1c0.034,0.033,0.083,0.05,0.15,0.05
						c-0.067-0.1-0.15-0.184-0.25-0.25C25.733-13.517,25.75-13.483,25.75-13.45z M34.8-14.1c-0.167-0.066-0.333-0.15-0.5-0.25v0.15
						C34.5-14.167,34.667-14.133,34.8-14.1z M35.55-13.65c-0.146-0.123-0.396-0.273-0.75-0.45c0.233,0.167,0.434,0.3,0.6,0.4h0.05
						l0.05,0.05H35.55z M20-11.8c-0.033,0.066-0.067,0.15-0.1,0.25l0.2-0.05L20-11.8z"/>
					<path style="fill-rule:evenodd;clip-rule:evenodd;fill:#00162E;" d="M16.55-30.05c-0.033-0.133-0.133-0.3-0.3-0.5l-0.2,0.05
						v0.15C16.283-30.217,16.45-30.117,16.55-30.05z M13.2-36.85c0.033-0.066,0.033-0.133,0-0.2c-0.067-0.1-0.117-0.2-0.15-0.3
						L13-37.15C13.033-37.017,13.1-36.917,13.2-36.85z"/>
				</g>
			</g>
			<g>
				<g>
					<path style="fill-rule:evenodd;clip-rule:evenodd;fill:#483217;" d="M47.55-36.6l1.3,7.95c-1.067-12.3-1.767-19.717-2.1-22.25
						c1.1,0.667,2.25,1.483,3.45,2.45c1.2,1,2.433,2.284,3.7,3.85c-0.066,0.2-0.1,0.383-0.1,0.55c0,1.133,0.067,2.383,0.2,3.75
						c0.033,0.2,0.05,0.4,0.05,0.6c0.067,0.367,0.133,0.733,0.2,1.1c0,0.133,0.017,0.233,0.05,0.3c0.1,0.966,0.233,1.683,0.4,2.15
						c0,0.066,0.733,3.633,2.2,10.7c-0.433-3.333-0.683-5.65-0.75-6.95c-0.066-1.3-0.333-2.983-0.8-5.05
						c0.4,0.567,0.667,0.934,0.8,1.1c1,1.267,2.517,4.317,4.55,9.15c1.667,4.034,2.983,7.65,3.95,10.85
						c-0.467-2.133-1.383-5.2-2.75-9.2c0.167-0.167,0.333-0.184,0.5-0.05c0.133,0.133,0.317,0.25,0.55,0.35
						c0.1,0.067,0.2,0.133,0.3,0.2c1.4,0.833,2.767,1.733,4.1,2.7c0.733,0.5,1.467,1.05,2.2,1.65c0.133,0.1,0.284,0.2,0.45,0.3
						c0.267,0.167,0.533,0.35,0.8,0.55c-0.167-0.133-0.316-0.283-0.45-0.45c-0.434-0.5-0.783-0.833-1.05-1
						c-0.233-0.167-0.566-0.45-1-0.85c-0.433-0.4-0.9-0.833-1.4-1.3c-0.467-0.433-0.733-0.7-0.8-0.8
						c-0.133-0.167-0.333-0.283-0.6-0.35c-0.1,0-0.183-0.017-0.25-0.05c-0.833-0.4-1.633-0.817-2.4-1.25
						c-0.5-0.233-0.95-0.5-1.35-0.8c-1.567-4.433-3.567-8.75-6-12.95l-0.4-3.5c1.3,1.9,2.6,3.8,3.9,5.7l0.05-0.05l0.15,0.3
						c0.1,0.167,0.233,0.45,0.4,0.85c0.066,0.133,0.383,0.533,0.95,1.2c-0.066-0.133-0.133-0.283-0.2-0.45
						c-1.3-2.633-2.45-4.816-3.45-6.55c-0.2-0.3-0.383-0.6-0.55-0.9c-0.5-0.833-0.934-1.567-1.3-2.2c-1.767-1.4-3.2-2.583-4.3-3.55
						c-1.633-1.4-3.15-2.434-4.55-3.1c-0.167-2-0.784-4.35-1.85-7.05c-0.6-1.5-1.483-3.566-2.65-6.2
						c-0.3,0.133-0.517,0.25-0.65,0.35c-0.233,0.2-0.35,0.5-0.35,0.9h-0.25c0.066-0.733,0.033-1.483-0.1-2.25
						c-0.133-0.833-0.35-1.5-0.65-2v-0.25l0.75,0.75v-2c-0.2-0.934-0.733-2.633-1.6-5.1c-0.633-2.3-0.684-4.183-0.15-5.65v-3.5
						c-0.367,0.133-0.767,0.383-1.2,0.75c-0.233,0.2-0.667,0.617-1.3,1.25c0.033-0.2,0.5-1.783,1.4-4.75
						c0.1-0.333,0.2-0.684,0.3-1.05c0.033-0.1,0.067-0.2,0.1-0.3c0.267-0.5,0.383-0.817,0.35-0.95c0-0.1,0-0.333,0-0.7
						c0-2.3,0.816-5.467,2.45-9.5c0.034-0.033,0.05-0.067,0.05-0.1c1.733-4.2,3.066-5.95,4-5.25c0.167-0.3,0.95-1.75,2.35-4.35
						c0.966-1.8,2.033-3.267,3.2-4.4c0.267,0.2,0.483,0.35,0.65,0.45c0.067,0.066,0.1,0.25,0.1,0.55
						c0.533-1.567,1.133-2.783,1.8-3.65c0.167-0.2,0.7-0.717,1.6-1.55c1.067-1,1.6-3.066,1.6-6.2c0-1.4-0.217-2.5-0.65-3.3
						c-0.133-0.267-1.417,0.667-3.85,2.8c-0.566,0.733-1.05,1.35-1.45,1.85c-0.534,0.7-0.9,1.216-1.1,1.55
						c-0.934,1.367-2.517,3.95-4.75,7.75c-1.434,2.367-2.684,4.167-3.75,5.4c-0.7,0.8-1.317,2-1.85,3.6
						c-0.133,0.433-0.617,2.267-1.45,5.5c-1.6,6.267-3.833,12.183-6.7,17.75l0.25-0.15c-1.467,2.133-3.15,4.583-5.05,7.35
						c-0.667,0.933-1.25,1.917-1.75,2.95c-0.433,0.8-0.85,1.633-1.25,2.5c-0.033,0.4-0.033,0.8,0,1.2c0,0.367-0.033,0.566-0.1,0.6
						c-0.034,0.033-0.2,0.066-0.5,0.1c-0.367,0.067-0.583,0.1-0.65,0.1c-1.2,0.467-1.816,0.7-1.85,0.7c-0.534,0.2-1.45,0.6-2.75,1.2
						c-1.434,0.667-2.934,1.3-4.5,1.9l-0.05,0.05c-0.033,0.033-0.066,0.05-0.1,0.05c-0.167,0.133-0.35,0.233-0.55,0.3
						c-0.233,0.1-0.4,0.283-0.5,0.55c-0.133,0.333-0.35,0.617-0.65,0.85c-0.167,0.167-0.317,0.333-0.45,0.5
						c-0.3,0.467-0.65,0.9-1.05,1.3c-0.033,0.034-0.083,0.083-0.15,0.15c-0.133,0.1-0.233,0.267-0.3,0.5
						c0.267-0.2,0.55-0.434,0.85-0.7c0.333-0.3,0.617-0.6,0.85-0.9c0.066-0.067,0.117-0.133,0.15-0.2
						c0.1,0.133,0.133,0.317,0.1,0.55v0.05c0.033,0.667,0.017,1.333-0.05,2c-0.033,0.267-0.05,0.5-0.05,0.7
						c0,0.133-0.05,0.216-0.15,0.25c0,0.033,0,0.066,0,0.1c-0.033,0.4-0.1,0.767-0.2,1.1c-0.133,0.5-0.283,0.967-0.45,1.4
						c0,0.034-0.017,0.083-0.05,0.15c-0.066,0.267-0.117,0.533-0.15,0.8c0.2-0.133,0.3-0.333,0.3-0.6c0-0.066,0-0.117,0-0.15
						c0.067-0.233,0.15-0.467,0.25-0.7c0.034-0.1,0.067-0.216,0.1-0.35c0-0.233,0.05-0.434,0.15-0.6
						c0.034-0.033,0.05-0.067,0.05-0.1c0.033-0.233,0.117-0.467,0.25-0.7c0.066-0.1,0.117-0.2,0.15-0.3
						c0.033-0.133,0.067-0.25,0.1-0.35c0.033-0.066,0.05-0.133,0.05-0.2c0-0.467,0-0.95,0-1.45l0.05-0.05c0-0.167,0.033-0.3,0.1-0.4
						c0.034-0.033,0.05-0.066,0.05-0.1c0.033-0.2,0.1-0.4,0.2-0.6c0.034-0.033,0.05-0.067,0.05-0.1c0.033-0.1,0.066-0.217,0.1-0.35
						c-0.1-0.167,0.2-0.617,0.9-1.35c0.7-0.7,1.417-1.183,2.15-1.45s1.283-0.5,1.65-0.7c0.167-0.133,0.333-0.217,0.5-0.25
						c0.633-0.2,1.283-0.467,1.95-0.8c0.066-0.033,0.267-0.1,0.6-0.2c0.3-0.066,1.083-0.083,2.35-0.05c0,0.033,0,0.066,0,0.1v0.05
						c-0.1,0.233-0.2,0.45-0.3,0.65c-0.133,0.233-0.2,0.483-0.2,0.75c0,0.1,0,0.2,0,0.3c-0.2,0.667-0.367,1.35-0.5,2.05
						c-0.033,0.033-0.05,0.083-0.05,0.15c-0.167,0.4-0.283,0.85-0.35,1.35c0,0.067,0,0.133,0,0.2c0,0.033-0.017,0.066-0.05,0.1
						c0,0.067,0,0.133,0,0.2c0,0.467-0.05,0.9-0.15,1.3c-0.034,0.1-0.05,0.217-0.05,0.35c0,0.067,0,0.15,0,0.25
						c-0.033,0.033-0.05,0.067-0.05,0.1c-0.033,0.033-0.033,0.067,0,0.1c0,0.133-0.017,0.267-0.05,0.4c0,0.267-0.017,0.533-0.05,0.8
						c0,0.067,0,0.133,0,0.2c0,0.2-0.017,0.383-0.05,0.55c0.033-0.1,0.05-0.183,0.05-0.25c0.033-0.1,0.05-0.2,0.05-0.3
						c0.034-0.067,0.05-0.133,0.05-0.2c0.033-0.267,0.066-0.517,0.1-0.75c0-0.066,0.017-0.133,0.05-0.2
						c0.033-0.133,0.067-0.267,0.1-0.4c0.1-0.233,0.183-0.417,0.25-0.55c0.133-0.367,0.267-0.733,0.4-1.1
						c0.033-0.1,0.067-0.2,0.1-0.3s0.066-0.183,0.1-0.25c0.066-0.133,0.133-0.283,0.2-0.45c0.133,0.034,0.233,0.117,0.3,0.25
						c0.1,0.167,0.183,0.367,0.25,0.6c0.033,0.033,0.066,0.067,0.1,0.1c0.867,2.6,1.2,5.133,1,7.6c-0.066,2.867-0.183,4.7-0.35,5.5
						c-0.167,0.133-0.284,0.233-0.35,0.3c-0.067,0.1-0.133,0.184-0.2,0.25c-0.1,0.067-0.183,0.15-0.25,0.25v0.05
						c-0.033,0.033-0.066,0.066-0.1,0.1c-0.2,0.133-0.433,0.3-0.7,0.5c-0.367,0.267-0.783,0.5-1.25,0.7c-0.2,0.1-0.417,0.2-0.65,0.3
						c0,0.034-0.017,0.05-0.05,0.05c-0.267,0.1-0.5,0.233-0.7,0.4c-0.034,0.033-0.067,0.067-0.1,0.1
						c-0.067,0.033-0.133,0.066-0.2,0.1c-0.3,0.267-0.6,0.483-0.9,0.65c-0.2,0.133-0.4,0.3-0.6,0.5c-1.133,1-1.733,1.717-1.8,2.15
						c0,0.133,0.017,0.233,0.05,0.3c1.067-1.533,2.35-2.65,3.85-3.35c0.033-0.034,0.067-0.05,0.1-0.05c0.6-0.3,1.15-0.55,1.65-0.75
						l0.95-0.1l0.4,0.3l-0.1,0.9c0,0.133,0.017,0.283,0.05,0.45c0.034,0.2,0.034,0.617,0,1.25c0,0.633-0.117,1.383-0.35,2.25
						c-0.733,4.233-1.45,7.433-2.15,9.6c0.034,0.067,0.067,0.15,0.1,0.25c0.7-2.6,1.367-5.15,2-7.65
						c0.067-0.267,0.133-0.533,0.2-0.8c0.2-0.867,0.4-1.717,0.6-2.55c0.033-0.133,0.066-0.267,0.1-0.4l0.9-3.35
						c-0.034-0.033-0.05-0.066-0.05-0.1c0.033-0.1,0.067-0.217,0.1-0.35c0.067-0.5,0.1-0.867,0.1-1.1c0.066-0.633,0.117-1.3,0.15-2
						c0.067-0.967,0.183-1.917,0.35-2.85c0.066-0.3,0.117-0.583,0.15-0.85c0.133-0.933,0.15-1.867,0.05-2.8
						c-0.1-0.833-0.15-1.65-0.15-2.45c0-0.433,0-0.883,0-1.35c-0.1-0.167-0.167-0.317-0.2-0.45c-0.067-0.133-0.1-0.267-0.1-0.4
						l-0.05-0.3c-0.033-0.1-0.083-0.633-0.15-1.6c-0.033-0.267-0.05-0.5-0.05-0.7v-0.05c0-0.1,0-0.184,0-0.25
						c-0.033,0-0.05,0.017-0.05,0.05v0.05l-0.2-0.65c-0.033-0.233-0.1-0.433-0.2-0.6c-0.1-0.2-0.2-0.383-0.3-0.55
						c0-0.033-0.017-0.067-0.05-0.1c-0.066-0.267-0.1-0.55-0.1-0.85c0.333-1,0.783-2.066,1.35-3.2c0.267-0.533,0.633-1.283,1.1-2.25
						c0.267,1.933,0.483,3.517,0.65,4.75c0.1-0.133,0.15-0.333,0.15-0.6c0-0.867-0.117-1.933-0.35-3.2
						c-0.233-1.267-0.35-1.95-0.35-2.05l1.4-2.05c0.967-1.5,1.633-2.567,2-3.2c0.667-1.3,1.367-2.1,2.1-2.4
						c0.467-0.167,1.2-0.4,2.2-0.7h0.25v0.25c-0.333,0.233-0.667,0.6-1,1.1c-0.034,0.2-0.067,0.4-0.1,0.6
						c-0.833,3.767-1.3,5.9-1.4,6.4c-0.2,1.533-0.367,3.067-0.5,4.6c-0.267,2.566-0.55,5.15-0.85,7.75v0.1
						c-0.233,2.4-0.4,4.8-0.5,7.2v0.05c0,0.066-0.017,0.617-0.05,1.65c-0.066,1.033-0.05,1.367,0.05,1
						c0.066-0.333,0.167-0.833,0.3-1.5c0.133-0.633,0.2-1.017,0.2-1.15c0.167-1.133,0.467-3.483,0.9-7.05
						c0.033-0.033,0.05-0.083,0.05-0.15c0.1-1.133,0.233-2.383,0.4-3.75c0.267,1.367,0.55,3.75,0.85,7.15c0,0.033,0,0.067,0,0.1
						v0.05c0.034,0.333,0.067,0.617,0.1,0.85c0,0.067,0,0.133,0,0.2c0.067,0.833,0.167,1.7,0.3,2.6
						c-0.3,0.433-0.817,1.216-1.55,2.35c-0.566,0.9-1.117,1.867-1.65,2.9c-0.1,0.1-0.183,0.233-0.25,0.4
						c-0.167,0.3-0.367,0.566-0.6,0.8l-0.05,0.05c-0.233,0.4-0.467,0.816-0.7,1.25c-0.2,0.4-0.417,0.783-0.65,1.15
						c-0.1,0.167-0.2,0.383-0.3,0.65c-0.067,0.167-0.133,0.333-0.2,0.5c0,0.033,0,0.083,0,0.15c-0.033,0.133-0.067,0.283-0.1,0.45
						c-0.066,0.2-0.133,0.417-0.2,0.65c-0.034,0.067-0.05,0.133-0.05,0.2c-0.1,0.433-0.233,0.833-0.4,1.2v0.05
						c-0.2,0.466-0.383,0.933-0.55,1.4c-0.067,0.167-0.1,0.35-0.1,0.55c-0.033,0.2-0.083,0.4-0.15,0.6
						c-0.067,0.233-0.133,0.467-0.2,0.7c-0.1,0.466-0.233,0.933-0.4,1.4c-0.033,0.033-0.05,0.066-0.05,0.1
						c0,0.1-0.017,0.183-0.05,0.25c-0.1,0.2-0.167,0.417-0.2,0.65c-0.033,0.333-0.066,0.683-0.1,1.05c0,0.067,0,0.133,0,0.2
						c-0.034,0.233-0.05,0.45-0.05,0.65c-0.033,0.3-0.066,0.583-0.1,0.85c-0.033,0.267-0.066,0.533-0.1,0.8
						c-0.3,2.733-0.434,4.317-0.4,4.75c0.034,0.067,0.083,0.15,0.15,0.25c0.066-1.5,0.216-3,0.45-4.5
						c0.4-2.566,1.083-5.167,2.05-7.8c0.033-0.133,0.083-0.267,0.15-0.4c0.1-0.2,0.217-0.4,0.35-0.6
						c0.033-0.067,0.066-0.117,0.1-0.15c0.067-0.133,0.167-0.167,0.3-0.1c0.1-0.033,0.15-0.1,0.15-0.2c0.033,0,0.067-0.017,0.1-0.05
						c0.033,0.167,0.083,0.367,0.15,0.6c0.033,0.1,0.067,0.2,0.1,0.3c0.433,1.533,0.816,2.967,1.15,4.3
						c0.333,1.333,0.533,2.167,0.6,2.5c0.066,0.3,0.1,1.117,0.1,2.45c0,0.767-0.05,1.783-0.15,3.05c-0.066,1.3-0.117,2.233-0.15,2.8
						c0.167-0.6,0.317-1.6,0.45-3c0.167-1.267,0.217-2.7,0.15-4.3c0-0.233-0.017-0.466-0.05-0.7c0-0.1,0-0.217,0-0.35
						c0-0.167,0.017-0.35,0.05-0.55c0.033-0.1,0.05-0.217,0.05-0.35c0.034-0.4-0.033-0.75-0.2-1.05c0-0.033-0.017-0.066-0.05-0.1
						c-0.167-0.333-0.3-0.684-0.4-1.05c-0.033-0.033-0.05-0.066-0.05-0.1c-0.067-0.233-0.133-0.5-0.2-0.8
						c-0.5-1.7-1.033-3.5-1.6-5.4c0.233-0.767,0.633-1.75,1.2-2.95c0.7-1.467,1.467-2.816,2.3-4.05c0.1-0.2,0.217-0.383,0.35-0.55
						c0.1-0.167,0.217-0.333,0.35-0.5c0.033-0.066,0.083-0.1,0.15-0.1l0.05-0.05c0.033-0.1,0.083-0.183,0.15-0.25
						c0.033,0,0.083-0.017,0.15-0.05c0.1,0,0.183-0.033,0.25-0.1c0.033-0.033,0.067-0.05,0.1-0.05c0-0.034,0.017-0.05,0.05-0.05
						c0.033-0.133,0.133-0.2,0.3-0.2c0.066-0.034,0.117-0.05,0.15-0.05c0.133,1.7,0.267,3.483,0.4,5.35c0,0.067,0.033,0.3,0.1,0.7
						c0.066,0.4,0.167,1.233,0.3,2.5c0.1,1.3,0.15,1.1,0.15-0.6c-0.033-1.7-0.05-2.567-0.05-2.6v-0.05
						c-0.133-1.9-0.283-3.684-0.45-5.35c0-0.133,0-0.267,0-0.4c0-0.233,0-0.467,0-0.7c-0.033-0.567-0.066-1.133-0.1-1.7
						c-0.034-0.6-0.1-1.4-0.2-2.4c0.167-0.133,1,0.45,2.5,1.75l2.8,2.8c-0.1-0.6-0.8-1.667-2.1-3.2l-2-1.9
						c-0.367-0.333-0.7-0.55-1-0.65c-0.434-5.4-0.867-8.883-1.3-10.45c0-0.033,0-0.083,0-0.15c0.1-0.6,0.184-1.267,0.25-2
						c0.934-5.8,2.083-10.3,3.45-13.5c0-0.033,0.017-0.083,0.05-0.15c0.233-0.167,0.467-0.3,0.7-0.4c0.066-0.033,0.1-0.066,0.1-0.1
						c0.1-0.167,0.283-0.284,0.55-0.35c0,0.7,0.017,1.4,0.05,2.1c0,0.1,0,0.183,0,0.25c0.034,0.2,0.067,0.417,0.1,0.65
						c0.033,0.033,0.05,0.083,0.05,0.15c0.167,0.4,0.283,0.85,0.35,1.35c0,0.066,0.017,0.15,0.05,0.25
						c0.167,0.767,0.15,1.517-0.05,2.25c-0.033,0.1-0.066,0.217-0.1,0.35c0,0.167-0.034,0.333-0.1,0.5
						c-0.033,0.066-0.05,0.117-0.05,0.15c0.133,0.2,0.3,0.4,0.5,0.6c0.7,0.8,1.083,1.35,1.15,1.65c0.1,0.5,0.117,1.367,0.05,2.6
						c-0.067,1.1,0,1.9,0.2,2.4c0.833,2.333,1.35,4.183,1.55,5.55c0.133,0.9,0.2,2.5,0.2,4.8c0,0.7-0.233,3.083-0.7,7.15
						c-0.367,3.566-0.467,5.983-0.3,7.25c0.233,1.8-0.4,3.783-1.9,5.95c-1.7,2.1-2.867,3.633-3.5,4.6
						c0.034,0.033,0.083,0.05,0.15,0.05c0.1-0.034,0.216-0.083,0.35-0.15c0.467,1.633,0.833,3.067,1.1,4.3v1.25l-0.05-0.05
						c-1.5,1.4-2.617,2.75-3.35,4.05c-0.433,0.733-0.85,1.667-1.25,2.8c0.333-0.566,0.717-1.167,1.15-1.8
						c1.367-2,2.517-3.05,3.45-3.15c0.633,1.667,1.017,3.716,1.15,6.15c0.067,2.6,0.133,4.833,0.2,6.7
						c0.2,0.133,0.417,0.267,0.65,0.4c0-3.4-0.4-8.684-1.2-15.85c-0.2-1.8-0.417-3.684-0.65-5.65c0.9-0.867,1.983-2.3,3.25-4.3
						c0.433,2.1,1.117,4.583,2.05,7.45c0.333,1.1,0.8,2.233,1.4,3.4c-0.067,0.7-0.2,1.633-0.4,2.8c-0.3,1.7-0.466,3.583-0.5,5.65
						c0,0.2,0,0.4,0,0.6c0,1.8,0.417,4.267,1.25,7.4c0.1,0.4,0.2,0.783,0.3,1.15c0.066,0,0.133,0.017,0.2,0.05
						c-0.066-0.4-0.167-1-0.3-1.8c-0.133-0.967-0.2-1.7-0.2-2.2c0-0.967,0.2-1.45,0.6-1.45c0.9,0,1.917,0.767,3.05,2.3
						c0.966,1.267,1.867,2.867,2.7,4.8c0.167,0.034,0.333,0.067,0.5,0.1c-0.767-2.233-2.133-4.633-4.1-7.2
						c-1.566-1.967-2.733-3.167-3.5-3.6l-0.05-1.55c0-0.633,0.183-1.517,0.55-2.65c0.367-1.066,0.733-1.833,1.1-2.3
						c1,1.7,2.233,3.467,3.7,5.3v0.05c0.066,0.066,0.133,0.1,0.2,0.1c0.067,0,0.133-0.033,0.2-0.1c0.033-0.034,0.05-0.1,0.05-0.2
						c0-0.067-0.017-0.15-0.05-0.25c-1.2-1.733-2.283-3.8-3.25-6.2c-0.1-0.233-0.183-0.45-0.25-0.65
						c-0.367-0.9-0.683-1.816-0.95-2.75c0.733,0.067,2.333,0.6,4.8,1.6l6.5,4.55c0.633,1.467,1.65,3.717,3.05,6.75
						c1.033,2.267,1.983,4.25,2.85,5.95c-0.067-0.2-0.15-0.433-0.25-0.7c-0.633-1.633-1.1-2.783-1.4-3.45
						c-0.9-2.1-1.533-3.583-1.9-4.45c-0.4-1.133-0.617-2.15-0.65-3.05c1.833,1.233,3.883,3.033,6.15,5.4
						c0.7,0.767,1.517,1.683,2.45,2.75c-2.433-4.033-6.25-7.867-11.45-11.5c-1.267-0.9-2.9-2.2-4.9-3.9
						c-1.433-0.6-3.117-1.217-5.05-1.85c-1.133-2.267-2.067-5.75-2.8-10.45C39.983-39.8,40-39.9,40-40
						c0.933-6.667,1.233-13.383,0.9-20.15c0.167-0.3,0.233-0.684,0.2-1.15h0.15c0.267,0,0.4,0.133,0.4,0.4
						c0.033,0.033,0.05,0.1,0.05,0.2c0.033,0.133,0.2,0.5,0.5,1.1c0.267,0.633,0.517,1.133,0.75,1.5c0.233,0.4,0.55,0.95,0.95,1.65
						c0.033,0.1,0.083,0.184,0.15,0.25c0.367,1.6,0.65,3.2,0.85,4.8c0.033,0.233,0.067,0.467,0.1,0.7
						c-0.433,2.934-0.75,5.167-0.95,6.7c-0.2,1.7-0.3,4.133-0.3,7.3v0.05c0,0.066,0.017,0.333,0.05,0.8c0-2.933,0.1-5.033,0.3-6.3
						c0.167-0.9,0.733-2.95,1.7-6.15c0.3,0.033,0.583,1.033,0.85,3c0.267,1.133,0.417,1.8,0.45,2c0.066,0.4,0.1,1.05,0.1,1.95
						C47.333-39.417,47.45-37.833,47.55-36.6z"/>
					<path style="fill-rule:evenodd;clip-rule:evenodd;fill:#342109;" d="M55.05-45.25c-0.367-0.6-0.683-1.117-0.95-1.55
						c-0.167-0.233-0.35-0.45-0.55-0.65c-0.4-0.433-0.833-0.85-1.3-1.25c-0.233-0.233-0.483-0.483-0.75-0.75
						c-0.767-0.733-1.6-1.383-2.5-1.95c-0.2-0.167-0.383-0.333-0.55-0.5c-0.4-0.367-0.733-0.8-1-1.3
						c-0.233-0.566-0.517-1.1-0.85-1.6l-1.45-5.65c-0.066-0.1-0.117-0.216-0.15-0.35c-0.333-1.167-0.55-1.983-0.65-2.45
						c-0.067-0.233-0.1-0.65-0.1-1.25s-0.1-0.883-0.3-0.85c-0.2,0.067-0.517-0.3-0.95-1.1c-0.433-0.8-0.767-1.533-1-2.2
						c-0.2-0.667-0.45-1.3-0.75-1.9c-0.167-0.534-0.3-1.034-0.4-1.5c-0.333-1.534-0.5-5.017-0.5-10.45c0-4.233,0.05-7.667,0.15-10.3
						c0.567-2.1,1.433-4.833,2.6-8.2c0.267-0.8,1.15-2.017,2.65-3.65c1.8-1.9,2.767-2.934,2.9-3.1c0.2-0.3,0.667-0.617,1.4-0.95
						c0.867-0.333,1.483-0.683,1.85-1.05c0.3-0.333,0.6-0.9,0.9-1.7c0.333-0.9,0.617-1.5,0.85-1.8c0.3-0.433,0.75-0.933,1.35-1.5
						c0.733-0.667,1.45-1.417,2.15-2.25c0.3-0.367,0.55-1.133,0.75-2.3c0.167-0.9,0.25-1.633,0.25-2.2c0-0.067-0.133-1.317-0.4-3.75
						c-0.267-2.4-0.383-3.817-0.35-4.25c0-0.767-0.083-1.533-0.25-2.3c-0.066-0.2-0.133-0.383-0.2-0.55
						c-0.034-0.3-0.067-0.667-0.1-1.1c-0.233-1.2-0.667-1.8-1.3-1.8c-0.5,0-0.75,0.333-0.75,1c0,1.267-0.017,2.1-0.05,2.5
						c-0.067,0.433-0.117,0.717-0.15,0.85s-0.35,0.933-0.95,2.4c-0.6,1.5-1.183,2.583-1.75,3.25c-0.6,0.667-1.05,1.333-1.35,2
						c-0.1,0.167-0.216,0.483-0.35,0.95c0.4-0.5,0.883-1.117,1.45-1.85c2.434-2.133,3.717-3.067,3.85-2.8
						c0.433,0.8,0.65,1.9,0.65,3.3c0,3.133-0.533,5.2-1.6,6.2c-0.9,0.833-1.433,1.35-1.6,1.55c-0.667,0.867-1.267,2.083-1.8,3.65
						c0-0.3-0.033-0.483-0.1-0.55c-0.167-0.1-0.383-0.25-0.65-0.45c-1.167,1.133-2.233,2.6-3.2,4.4c-1.4,2.6-2.184,4.05-2.35,4.35
						c-0.934-0.7-2.267,1.05-4,5.25c0,0.033-0.017,0.067-0.05,0.1c-1.633,4.033-2.45,7.2-2.45,9.5c0,0.367,0,0.6,0,0.7
						C38.383-88.817,38.267-88.5,38-88c-0.033,0.1-0.067,0.2-0.1,0.3c-0.1,0.367-0.2,0.717-0.3,1.05c-0.9,2.967-1.367,4.55-1.4,4.75
						c0.633-0.633,1.066-1.05,1.3-1.25c0.433-0.367,0.833-0.617,1.2-0.75v3.5c-0.534,1.467-0.483,3.35,0.15,5.65
						c0.867,2.467,1.4,4.167,1.6,5.1v2L39.7-68.4v0.25c0.3,0.5,0.517,1.167,0.65,2c0.133,0.767,0.167,1.517,0.1,2.25h0.25
						c0-0.4,0.117-0.7,0.35-0.9c0.133-0.1,0.35-0.217,0.65-0.35c1.167,2.633,2.05,4.7,2.65,6.2c1.066,2.7,1.683,5.05,1.85,7.05
						c1.4,0.667,2.917,1.7,4.55,3.1C51.85-47.833,53.283-46.65,55.05-45.25z M22.8-68.1c-0.167,0.367-0.333,0.733-0.5,1.1
						c-0.333,0.167-0.883,0.433-1.65,0.8c-1.2,0.567-1.933,0.85-2.2,0.85L18.4-65.3c-0.233,0-0.417,0.066-0.55,0.2
						c-0.033,0-0.083,0.017-0.15,0.05c-0.2,0.066-0.383,0.15-0.55,0.25c-0.033,0.033-0.066,0.066-0.1,0.1
						c-0.167,0.1-0.316,0.184-0.45,0.25c-0.167,0.1-0.3,0.184-0.4,0.25c-0.267,0.133-0.583,0.3-0.95,0.5
						c-1.767,0.867-2.7,1.333-2.8,1.4c1.566-0.6,3.066-1.233,4.5-1.9c1.3-0.6,2.216-1,2.75-1.2c0.033,0,0.65-0.233,1.85-0.7
						c0.067,0,0.284-0.033,0.65-0.1c0.3-0.033,0.466-0.066,0.5-0.1c0.066-0.034,0.1-0.233,0.1-0.6
						C22.767-67.3,22.767-67.7,22.8-68.1z M25.3-63.65c0.1,0.967,0.184,1.75,0.25,2.35c-0.033-0.667-0.05-1.017-0.05-1.05
						c0-0.3,0-0.617,0-0.95v-0.05c0-1.3-0.05-2.867-0.15-4.7c-0.033-0.467-0.05-0.883-0.05-1.25c0.167-0.367,0.383-0.733,0.65-1.1
						c2.1-3.267,4.066-5.5,5.9-6.7c-0.067,0.2-0.117,0.4-0.15,0.6c0.333-0.5,0.667-0.867,1-1.1v-0.25h-0.25
						c-1,0.3-1.733,0.533-2.2,0.7c-0.733,0.3-1.433,1.1-2.1,2.4c-0.367,0.633-1.033,1.7-2,3.2l-1.4,2.05
						c0,0.1,0.117,0.783,0.35,2.05c0.233,1.267,0.35,2.333,0.35,3.2C25.45-63.983,25.4-63.783,25.3-63.65z M33.3-30.35
						c0.633-0.967,1.8-2.5,3.5-4.6c1.5-2.167,2.133-4.15,1.9-5.95c-0.167-1.267-0.067-3.684,0.3-7.25c0.467-4.067,0.7-6.45,0.7-7.15
						c0-2.3-0.067-3.9-0.2-4.8c-0.2-1.367-0.717-3.217-1.55-5.55c-0.2-0.5-0.267-1.3-0.2-2.4c0.067-1.233,0.05-2.1-0.05-2.6
						c-0.067-0.3-0.45-0.85-1.15-1.65c-0.2-0.2-0.367-0.4-0.5-0.6c-0.1,0.267-0.117,0.6-0.05,1c0,0.066,0,0.15,0,0.25
						c0.033,0.066,0.067,0.15,0.1,0.25c0.066,0.167,0.117,0.333,0.15,0.5c0.033,0.367,0.133,0.733,0.3,1.1
						c0.133,0.333,0.233,0.716,0.3,1.15c0.133,0.833,0.267,1.7,0.4,2.6c0.033,0.233,0.05,0.45,0.05,0.65
						c0.034,0.433,0.067,0.883,0.1,1.35c0.033,0.033,0.05,0.083,0.05,0.15c0.033,0.2,0.066,0.4,0.1,0.6
						c0,0.033,0.017,0.083,0.05,0.15c0.133,0.433,0.233,0.883,0.3,1.35c0.033,0.167,0.1,0.383,0.2,0.65
						c0.133,0.433,0.2,0.883,0.2,1.35c0,0.167,0.017,0.333,0.05,0.5c0.033,0.033,0.05,0.066,0.05,0.1
						c0.233,6.3-0.066,12.55-0.9,18.75l0.05-0.05c-0.066,0.133-0.1,0.233-0.1,0.3c-0.034,0.267-0.1,0.583-0.2,0.95
						c-0.233,0.933-0.667,2.183-1.3,3.75c-0.434,1.1-0.817,1.983-1.15,2.65c-0.433,0.767-0.833,1.317-1.2,1.65
						c-0.1,0.1-0.2,0.184-0.3,0.25c-0.033,0.034-0.066,0.067-0.1,0.1c-0.034,0.1-0.034,0.167,0,0.2c0,0.1,0.033,0.183,0.1,0.25
						V-30.35z M47.55-36.6c-0.1-1.233-0.216-2.816-0.35-4.75c0-0.9-0.034-1.55-0.1-1.95c-0.033-0.2-0.184-0.867-0.45-2
						c-0.267-1.967-0.55-2.967-0.85-3c-0.966,3.2-1.533,5.25-1.7,6.15c-0.2,1.267-0.3,3.367-0.3,6.3
						c0.034,0.367,0.067,0.85,0.1,1.45c0.1,1.4,0.167,1.833,0.2,1.3s0.066-1.233,0.1-2.1c0.033-0.833,0.05-1.3,0.05-1.4
						c0.133-1.167,0.35-3.167,0.65-6c0.233-1.933,0.567-3.367,1-4.3c0.434,2.367,0.867,5.05,1.3,8.05L47.55-36.6z"/>
				</g>
			</g>
		</g>
		<g>
			<path style="fill-rule:evenodd;clip-rule:evenodd;fill:#614E37;" d="M60.05-89.65L59.9-89.6H60
				C60.033-89.6,60.05-89.617,60.05-89.65z"/>
			<g>
				<g>
					<path style="fill-rule:evenodd;clip-rule:evenodd;fill:#24476B;" d="M89.15-72.05c-1.1,0.933-1.917,1.716-2.45,2.35l0.15-0.55
						c-0.133,0.133-0.467,0.45-1,0.95c-0.333,0.333-0.65,0.783-0.95,1.35c-0.2,0.267-0.55,0.733-1.05,1.4
						c-0.5,0.566-1.05,0.933-1.65,1.1c0.367,0.067,0.7,0.017,1-0.15l0.35,0.1c-0.1,0.333-0.15,0.767-0.15,1.3
						c0,0.567-0.017,0.883-0.05,0.95c-0.1,0.4-0.317,0.9-0.65,1.5c-0.333,0.633-0.7,1.183-1.1,1.65l-0.05,0.2
						c0.034,0,0.083-0.017,0.15-0.05c0.1-0.033,0.233-0.033,0.4,0l-0.35,1.3c0.033,0,0.067,0,0.1,0c0.066,0,0.117-0.05,0.15-0.15
						l0.35,0.1c-0.1,0.367-0.15,0.8-0.15,1.3c0,0.467-0.034,0.816-0.1,1.05c-0.267,0.934-0.783,1.733-1.55,2.4
						c-0.466,0.434-1.933,1.483-4.4,3.15c0.033-0.1,0.1-0.2,0.2-0.3c0.133-0.1,0.233-0.15,0.3-0.15l0.05-0.15
						c-0.2,0.167-0.567,0.45-1.1,0.85c-0.533,0.466-1.017,1.05-1.45,1.75c-0.4,1.066-0.667,1.767-0.8,2.1
						c-0.233,0.534-0.733,0.717-1.5,0.55c-0.2-0.067-0.283-0.117-0.25-0.15l-0.05-0.05c-0.9,0.7-1.633,1.15-2.2,1.35
						c-0.467,0.133-1.517,0.433-3.15,0.9c0.1-0.333,0.2-0.483,0.3-0.45l-0.25-0.1l-0.55,0.4l-0.2-0.05
						c0.233-0.333,0.383-0.55,0.45-0.65c0.1-0.1,0.3-0.233,0.6-0.4l0.05-0.15c-0.133,0.2-0.684,0.417-1.65,0.65
						c-1.067,0.2-1.6,0.317-1.6,0.35c-0.133-0.033-0.167-0.217-0.1-0.55c-0.467,0.066-1.7,0.283-3.7,0.65
						c-1.933,0.367-3.466,0.533-4.6,0.5c0.066-0.1,0.133-0.184,0.2-0.25l0.2-0.8c-0.434,0.2-1.633,0.934-3.6,2.2
						c-1.133,0.733-2.167,0.967-3.1,0.7c-0.233-0.067-0.45-0.167-0.65-0.3c-0.2-0.1-0.35-0.2-0.45-0.3
						c0.233,0.267,0.383,0.467,0.45,0.6c-0.467-0.1-1.1-0.217-1.9-0.35c-0.233-0.033-0.434-0.15-0.6-0.35
						c-0.1-0.133-0.233-0.333-0.4-0.6c-0.333,0.367-0.6,0.917-0.8,1.65c-0.367-0.2-1.45-0.316-3.25-0.35
						c-1.6,0-2.566,0.017-2.9,0.05l0.3-0.85c-0.633-0.033-1.467,0.117-2.5,0.45h-0.2c0.033-0.233,0.2-0.45,0.5-0.65
						c-0.067-0.034-0.75-0.034-2.05,0c0.167-0.067,0.5-0.167,1-0.3s0.8-0.25,0.9-0.35c-0.533-0.133-1.45-0.433-2.75-0.9
						c-2.2-0.566-4.434-0.833-6.7-0.8c-0.5,0.033-0.983,0.066-1.45,0.1c0.267,0.133,0.55,0.283,0.85,0.45
						c0.767,0.333,1.383,0.583,1.85,0.75c0.033,0.333,0.217,0.6,0.55,0.8c0.267,0.167,0.483,0.233,0.65,0.2
						c0,0.467,0.117,0.7,0.35,0.7c0.267-0.067,0.433-0.1,0.5-0.1c-0.1,0.067-0.267,0.25-0.5,0.55c-0.3,0.4-0.467,0.684-0.5,0.85
						c0.5-0.367,1.433-0.6,2.8-0.7c1.5-0.133,2.9-0.017,4.2,0.35c0.533,0.133,0.883,0.284,1.05,0.45s0.333,0.267,0.5,0.3
						c0.1,0.034,0.283,0.017,0.55-0.05c0.233-0.033,0.417-0.033,0.55,0c0.1-0.1,0.517-0.05,1.25,0.15l-0.15,0.5
						c0.966-0.267,2.65-0.333,5.05-0.2c2.267,0.1,3.8,0,4.6-0.3l-0.3,1.05c1.567-0.534,2.434-0.833,2.6-0.9
						c0.633-0.267,1.017-0.667,1.15-1.2c0.133-0.267,0.717-0.317,1.75-0.15c0.8,0.1,1.167-0.317,1.1-1.25l0.45,0.15
						c0,0.1,0.017,0.217,0.05,0.35c0.067,0.167,0.133,0.25,0.2,0.25c0.1-0.1,0.267-0.167,0.5-0.2c0.233-0.1,0.433-0.25,0.6-0.45
						c0.133,0.3,0.183,0.517,0.15,0.65c0.7-0.434,1.967-0.583,3.8-0.45c1.9,0.167,3.25,0.067,4.05-0.3l-0.25,1
						c0.033,0.033-0.05,0.133-0.25,0.3c-0.034,0.033-0.05,0.067-0.05,0.1c1.7-0.833,2.717-1.317,3.05-1.45
						c0.767-0.367,1.433-0.65,2-0.85l0.45,0.7c0.067-0.133,0.434-0.283,1.1-0.45c0.767-0.167,1.267-0.233,1.5-0.2
						c0.1,0.066,0.233,0.233,0.4,0.5l0.25,0.45l0.05-0.2c0.033-0.434,0-0.867-0.1-1.3c-0.1-0.3-0.117-0.55-0.05-0.75l-0.4-0.1
						c1.1-0.067,2.35-0.617,3.75-1.65c1.267-1.1,2.067-1.733,2.4-1.9c-0.1-0.033-0.316-0.083-0.65-0.15
						c-0.367,0-0.667-0.033-0.9-0.1l0.85-0.6l-0.35-0.05c0-0.3,0.283-0.617,0.85-0.95c-0.133-0.033-0.417,0.034-0.85,0.2
						c0.2-0.233,0.617-0.467,1.25-0.7c0.767-0.3,1.45-0.7,2.05-1.2c0.967-0.867,1.767-1.684,2.4-2.45
						c0.333-0.5,0.517-0.816,0.55-0.95l0.25-1c-0.167,0.267-0.4,0.483-0.7,0.65c-0.133,0.066-0.267,0.133-0.4,0.2l0.55-2.1
						c0.233,0.033,0.4-0.15,0.5-0.55c0.066-0.233-0.05-0.55-0.35-0.95c-0.233-0.467-0.317-0.85-0.25-1.15
						c0.066-0.2,0.283-0.533,0.65-1c-0.1-0.033-0.183,0.017-0.25,0.15l-0.35-0.1c0.267-0.667,1.083-2.117,2.45-4.35l-0.65-0.25
						c0.367-0.6,0.917-1.233,1.65-1.9c0.433-0.4,0.783-1.133,1.05-2.2L89.15-72.05z"/>
					<path style="fill-rule:evenodd;clip-rule:evenodd;fill:#1A3450;" d="M58.85-53.25c-0.067,0.033-0.133,0.05-0.2,0.05
						c0.167-0.133,0.45-0.283,0.85-0.45c0.133-0.067,0.3-0.167,0.5-0.3l-0.05,0.2c-0.167,0.033-0.317,0.067-0.45,0.1
						C59.267-53.517,59.05-53.383,58.85-53.25c0.8-0.233,2.35-0.883,4.65-1.95c2.333-1.133,3.533-1.716,3.6-1.75l-0.25,0.15
						c-0.133,0.2-0.217,0.367-0.25,0.5c0.4-0.1,1.533-0.684,3.4-1.75c-0.033-0.034-0.25-0.2-0.65-0.5c-0.1-0.1-0.233-0.2-0.4-0.3
						c-0.2,0.4-0.367,0.633-0.5,0.7c-0.267,0.2-0.684,0.25-1.25,0.15c-0.3-0.067-0.717,0.067-1.25,0.4
						c-0.5,0.4-0.784,0.583-0.85,0.55c-0.133-0.034-0.2-0.1-0.2-0.2c0-0.167,0-0.267,0-0.3c-0.066,0.033-0.3,0.216-0.7,0.55
						c-0.4,0.333-0.733,0.567-1,0.7l-0.05-0.15c-0.033-0.066-0.05-0.133-0.05-0.2c-0.533,0.2-1.383,0.517-2.55,0.95
						c-1.066,0.4-1.816,0.717-2.25,0.95c-0.867,0.5-1.733,0.967-2.6,1.4c-0.5,0.333-0.934,1.083-1.3,2.25v0.15
						c-0.133-0.033-0.483-0.3-1.05-0.8c-0.3-0.067-0.517-0.033-0.65,0.1c-0.1,0.066-0.2,0.183-0.3,0.35c0-0.1-0.083-0.25-0.25-0.45
						c-0.167-0.267-0.316-0.417-0.45-0.45c-0.133-0.033-0.35,0.034-0.65,0.2c-0.233,0.167-0.383,0.317-0.45,0.45
						c-0.167-0.434-0.283-0.684-0.35-0.75c-0.067-0.1-0.267-0.2-0.6-0.3c-0.033,0-1.967,0.184-5.8,0.55
						c0.033-0.034,0.316-0.167,0.85-0.4c0.433-0.267,0.716-0.483,0.85-0.65l0.25-0.1c-0.267,0.067-0.65,0.15-1.15,0.25
						c-0.467,0.133-0.85,0.15-1.15,0.05l0.15-0.5l-0.9-0.2c-0.633,0.1-1.983,0.05-4.05-0.15c-0.132,0.033-0.266,0.05-0.4,0.05
						c0,0.067-0.017,0.117-0.05,0.15v-0.1c0.032,0,0.049-0.017,0.05-0.05c0.034-0.001,0.05-0.018,0.05-0.05
						c-0.167-0.033-0.367-0.05-0.6-0.05c-2.233-0.067-3.317,0.566-3.25,1.9c-0.433-0.7-0.75-1.083-0.95-1.15
						c-0.233-0.067-0.383-0.1-0.45-0.1c-0.2,0-0.367,0.15-0.5,0.45c-0.133-0.667-0.45-1.033-0.95-1.1
						c-2.633-0.534-4.033-0.817-4.2-0.85c-0.267-0.067-1.467-0.533-3.6-1.4c-1.6-0.633-3.033-1.167-4.3-1.6
						c0.833,2.767,1.45,4.9,1.85,6.4c-0.066-0.033-0.133-0.083-0.2-0.15c-0.067-0.033-0.117,0.05-0.15,0.25
						c-0.1,0.267-0.133,0.517-0.1,0.75c-0.267,0.033-0.517,0.066-0.75,0.1c-0.1,0.066-0.233,0.117-0.4,0.15
						c1.667,0.167,2.817,0.783,3.45,1.85c0.7,1.133,1.45,1.816,2.25,2.05l-0.1,0.15c-0.6,0.167-1,0.317-1.2,0.45
						c0.3,0.1,0.633,0.217,1,0.35c0.466-0.034,0.95-0.067,1.45-0.1c2.267-0.033,4.5,0.233,6.7,0.8c1.3,0.467,2.217,0.767,2.75,0.9
						c-0.1,0.1-0.4,0.217-0.9,0.35s-0.833,0.233-1,0.3c1.3-0.034,1.983-0.034,2.05,0c-0.3,0.2-0.467,0.417-0.5,0.65h0.2
						c1.033-0.333,1.867-0.483,2.5-0.45L38.15-42c0.333-0.033,1.3-0.05,2.9-0.05c1.8,0.033,2.883,0.15,3.25,0.35
						c0.2-0.733,0.467-1.283,0.8-1.65c0.167,0.267,0.3,0.467,0.4,0.6c0.167,0.2,0.367,0.317,0.6,0.35c0.8,0.133,1.433,0.25,1.9,0.35
						c-0.067-0.133-0.217-0.333-0.45-0.6c0.1,0.1,0.25,0.2,0.45,0.3c0.2,0.133,0.417,0.233,0.65,0.3
						c0.934,0.267,1.967,0.033,3.1-0.7c1.967-1.267,3.167-2,3.6-2.2l-0.2,0.8c-0.066,0.066-0.133,0.15-0.2,0.25
						c1.133,0.033,2.667-0.133,4.6-0.5c2-0.367,3.233-0.583,3.7-0.65c-0.067,0.333-0.033,0.517,0.1,0.55
						c0-0.033,0.533-0.15,1.6-0.35c0.966-0.233,1.517-0.45,1.65-0.65l-0.05,0.15c-0.3,0.167-0.5,0.3-0.6,0.4
						c-0.067,0.1-0.217,0.317-0.45,0.65l0.2,0.05l0.55-0.4l0.25,0.1c-0.1-0.034-0.2,0.117-0.3,0.45
						c1.633-0.467,2.683-0.767,3.15-0.9c0.566-0.2,1.3-0.65,2.2-1.35l0.05,0.05c-0.033,0.033,0.05,0.083,0.25,0.15
						c0.767,0.167,1.267-0.017,1.5-0.55c0.133-0.333,0.4-1.033,0.8-2.1c0.434-0.7,0.917-1.284,1.45-1.75
						c0.533-0.4,0.9-0.684,1.1-0.85l-0.05,0.15c-0.066,0-0.167,0.05-0.3,0.15c-0.1,0.1-0.167,0.2-0.2,0.3
						c2.467-1.667,3.934-2.717,4.4-3.15c0.767-0.667,1.284-1.466,1.55-2.4c0.066-0.233,0.1-0.583,0.1-1.05
						c0-0.5,0.05-0.934,0.15-1.3L82-58.8c-0.033,0.1-0.083,0.15-0.15,0.15c-0.033,0-0.067,0-0.1,0l0.35-1.3
						c-0.167-0.033-0.3-0.033-0.4,0c-0.067,0.034-0.117,0.05-0.15,0.05l0.05-0.2c0.4-0.467,0.767-1.017,1.1-1.65
						c0.333-0.6,0.55-1.1,0.65-1.5c0.033-0.067,0.05-0.383,0.05-0.95c0-0.533,0.05-0.966,0.15-1.3l-0.35-0.1
						c-0.3,0.167-0.633,0.217-1,0.15c0.6-0.167,1.15-0.533,1.65-1.1c0.5-0.667,0.85-1.133,1.05-1.4c0.3-0.566,0.617-1.017,0.95-1.35
						c0.533-0.5,0.867-0.817,1-0.95L86.7-69.7c0.533-0.633,1.35-1.417,2.45-2.35l0.1-0.35l-0.95,0.65l-0.35-0.05
						c0.1-0.367,0.2-0.95,0.3-1.75c0.167-0.633,0.283-1.034,0.35-1.2c0.133-0.333,0.367-0.65,0.7-0.95l-0.25-0.1l0.15-0.7
						c-0.267-0.067-0.417-0.05-0.45,0.05c0-0.1-0.117-0.316-0.35-0.65c-0.2-0.267-0.25-0.533-0.15-0.8
						c0.033-0.067,0.317-0.417,0.85-1.05c0.033-0.133,0.05-0.367,0.05-0.7c0.067-0.333,0.117-0.583,0.15-0.75
						c-0.066-0.033-0.15,0.017-0.25,0.15c-0.133,0.133-0.233,0.233-0.3,0.3L88.2-80.1c0.767-0.833,1.216-1.383,1.35-1.65
						c0.434-0.6,0.75-1.25,0.95-1.95c0.1-0.333,0.067-0.883-0.1-1.65c0.3-0.233,0.7-0.35,1.2-0.35s0.816-0.066,0.95-0.2l-1-0.25
						c0.233-0.033,0.467-0.017,0.7,0.05c0.033-0.1-0.017-0.217-0.15-0.35c-0.133-0.1-0.283-0.167-0.45-0.2
						c0.421-0.519,0.83-0.736,1.225-0.65l-0.825-0.2c0.1-0.333,0.434-0.767,1-1.3c0.6-0.534,0.967-1.117,1.1-1.75
						c0.1-0.367,0.133-0.567,0.1-0.6c0-0.067-0.067-0.217-0.2-0.45l-0.3-0.1l-0.25,0.85c-0.1-0.033-0.167,0-0.2,0.1l-0.35-0.1v-0.05
						c-0.1-0.233-0.167-0.467-0.2-0.7c-0.467,0.167-0.683,0.367-0.65,0.6c-0.3-0.833-0.4-1.367-0.3-1.6
						c-0.1,0.033-0.517,0.05-1.25,0.05c-0.667,0.066-0.95,0.316-0.85,0.75L89.15-92c-0.367,1.4-0.7,2.417-1,3.05H88
						c0.067-0.367,0.083-0.933,0.05-1.7l-0.25,1.1c-0.133-0.034-0.167-0.184-0.1-0.45c-0.2,0.133-0.517,0.533-0.95,1.2
						c-0.467,0.8-0.817,1.566-1.05,2.3c-0.034,0.2-0.034,0.733,0,1.6c0.066,0.633,0.117,1.1,0.15,1.4
						c-0.033-0.067-0.067-0.15-0.1-0.25c-0.1-0.233-0.117-0.417-0.05-0.55l-0.2-0.05l-0.25,1L85.2-83.4
						c-0.1-0.033-0.133-0.083-0.1-0.15l-0.2-0.05c0,0.1-0.017,0.2-0.05,0.3c-0.233,0.966-0.7,1.95-1.4,2.95
						c-0.534,0.767-0.934,1.267-1.2,1.5c0.2-0.133,0.45-0.217,0.75-0.25c0.3-0.066,0.5-0.066,0.6,0l-0.25,0.9
						c-0.367,0.4-0.65,0.7-0.85,0.9l-0.35,1.4l1.45,0.3l-0.05,0.2c-1.133,0.3-1.966,0.867-2.5,1.7c-0.433,1-0.75,1.75-0.95,2.25
						l0.15,0.05c0.4-0.133,0.667-0.35,0.8-0.65c0.1-0.133,0.25-0.367,0.45-0.7c-0.5,2.4-1.517,4.283-3.05,5.65
						c-1.733,1.233-2.883,2.267-3.45,3.1c0.367,0.033,0.867-0.067,1.5-0.3c0.6-0.267,0.967-0.5,1.1-0.7l-0.05,0.15
						c-0.133,0.167-0.383,0.4-0.75,0.7h0.05l-0.3,1.1c0.534-0.167,0.967-0.767,1.3-1.8c0.367-1.066,0.767-1.667,1.2-1.8l-0.4,1.4
						c-0.333,0.333-0.583,0.6-0.75,0.8c-0.167,0.3-0.333,0.6-0.5,0.9l-0.35,1.4l0.15,0.05c0.4-0.3,0.716-0.483,0.95-0.55
						c-0.033,0.1-0.017,0.167,0.05,0.2l0.1,0.05c-0.5,1.367-0.816,2.35-0.95,2.95c0.333,0.167,0.433,0.534,0.3,1.1
						c-0.167,0.7-0.233,1.083-0.2,1.15c0.133,0.2,0.417,0.534,0.85,1c0.4,0.467,0.633,0.75,0.7,0.85
						c-0.333-0.133-0.817-0.2-1.45-0.2c-0.667,0-1.167,0.083-1.5,0.25c0.067,0,0.1,0.033,0.1,0.1v0.1
						c0.2,0.067,0.383,0.184,0.55,0.35c0.1,0.2,0.183,0.317,0.25,0.35l-1.45-0.35l-0.15,0.35c0.4,0.467,0.5,0.85,0.3,1.15l-0.9-0.2
						l-0.1,0.5l0.9,0.25c-0.033,0.067-0.083,0.117-0.15,0.15c-0.066,0.066-0.1,0.117-0.1,0.15c-0.3-0.033-0.65,0.283-1.05,0.95
						c-0.133-0.3-0.283-0.683-0.45-1.15c-0.2-0.333-0.533-0.9-1-1.7c-0.1,0.1-0.233,0.216-0.4,0.35
						c-0.133,0.167-0.283,0.367-0.45,0.6c0.1-0.133,0-0.383-0.3-0.75c-0.167,0.267-0.433,0.417-0.8,0.45
						c-0.133,0-0.217,0.066-0.25,0.2c0-0.066-0.017-0.15-0.05-0.25c-0.167,0.133-0.566,0.25-1.2,0.35
						c-0.3,0.067-0.567,0.15-0.8,0.25c0.034-0.033,0.067-0.05,0.1-0.05c0.067-0.033,0.117-0.083,0.15-0.15
						c-0.5,0.167-1.65,0.7-3.45,1.6c-2.033,0.967-3.8,1.784-5.3,2.45l0.2-0.55c-0.267,0.033-0.767,0.267-1.5,0.7v-0.15
						c0.133,0,0.25-0.167,0.35-0.5c-0.167-0.033-0.533,0.05-1.1,0.25c-0.533,0.133-0.95,0.167-1.25,0.1
						C56.717-49.767,56.8-50.3,57-51l-0.35-0.05l-0.85,0.3c0.333-0.367,0.55-0.7,0.65-1C56.517-51.783,57.317-52.283,58.85-53.25z
						 M68.55-53.1v0.05l-0.05,0.1c-0.033,0.067-0.1,0.083-0.2,0.05C68.367-52.967,68.45-53.033,68.55-53.1z M74.35-51.1l-0.15-0.05
						l0.1-0.2C74.3-51.283,74.317-51.2,74.35-51.1z"/>
					<path style="fill-rule:evenodd;clip-rule:evenodd;fill:#0F2338;" d="M70-58.05l0.05-0.15c0.067-0.2,0.167-0.4,0.3-0.6
						c0.5-0.1,1-0.2,1.5-0.3c0.033,0,0.066-0.017,0.1-0.05c0.466-0.067,0.933-0.167,1.4-0.3c0.3,0,0.583-0.033,0.85-0.1
						c-0.2-0.067-0.4-0.1-0.6-0.1c-0.133,0-0.267,0.017-0.4,0.05l-0.7-0.2c0.2-0.333,0.433-0.5,0.7-0.5c0.3,0,0.517-0.083,0.65-0.25
						l-0.9-0.25c0.167-0.4,0.85-1.034,2.05-1.9c0.633-0.5,1.15-0.917,1.55-1.25c0.1-0.066,0.184-0.133,0.25-0.2
						c0.367-0.3,0.617-0.533,0.75-0.7L77.6-65c-0.133,0.2-0.5,0.433-1.1,0.7c-0.633,0.233-1.133,0.333-1.5,0.3
						c0.567-0.833,1.717-1.867,3.45-3.1c1.533-1.367,2.55-3.25,3.05-5.65c-0.2,0.333-0.35,0.567-0.45,0.7
						c-0.133,0.3-0.4,0.517-0.8,0.65l-0.15-0.05c0.2-0.5,0.517-1.25,0.95-2.25c0.534-0.833,1.367-1.4,2.5-1.7l0.05-0.2l-1.45-0.3
						l0.35-1.4c0.2-0.2,0.483-0.5,0.85-0.9l0.25-0.9c-0.1-0.066-0.3-0.066-0.6,0c-0.3,0.033-0.55,0.117-0.75,0.25
						c0.267-0.233,0.667-0.733,1.2-1.5c0.7-1,1.167-1.983,1.4-2.95c0.033-0.1,0.05-0.2,0.05-0.3l0.2,0.05
						c-0.033,0.066,0,0.117,0.1,0.15l0.05,0.05l0.25-1l0.2,0.05c-0.067,0.133-0.05,0.316,0.05,0.55c0.033,0.1,0.067,0.183,0.1,0.25
						c-0.033-0.3-0.083-0.767-0.15-1.4c-0.034-0.867-0.034-1.4,0-1.6c0.233-0.733,0.583-1.5,1.05-2.3
						c0.433-0.667,0.75-1.067,0.95-1.2c-0.067,0.267-0.034,0.417,0.1,0.45l0.25-1.1c0.034,0.767,0.017,1.333-0.05,1.7h0.15
						c0.3-0.633,0.633-1.65,1-3.05l0.55,0.2c-0.1-0.434,0.183-0.684,0.85-0.75c0.733,0,1.15-0.017,1.25-0.05
						c-0.1,0.233,0,0.767,0.3,1.6c-0.033-0.233,0.183-0.433,0.65-0.6c0.033,0.233,0.1,0.467,0.2,0.7c0.133-0.2,0.216-0.5,0.25-0.9
						c0.066-0.434,0.15-0.767,0.25-1l-0.7-0.15c0.167-0.566,0.333-0.95,0.5-1.15c-0.467-0.133-0.733-0.267-0.8-0.4
						c0.033-0.467,0.267-0.7,0.7-0.7c0.5,0.067,0.783-0.066,0.85-0.4c-1.667-3.433-2.517-5.15-2.55-5.15
						c-0.034-0.033,0.017-0.417,0.15-1.15c-0.233-0.833-1.233-1.5-3-2h-0.1c0.133-0.267,0.2-0.55,0.2-0.85
						c-0.034-0.3-0.133-0.533-0.3-0.7c-0.133,0.133-0.233,0.217-0.3,0.25c-0.1,0.4-0.2,0.967-0.3,1.7
						c-0.133,0.767-0.216,1.183-0.25,1.25c-0.767,1.833-1.183,2.883-1.25,3.15c-0.066,0.367,0,0.684,0.2,0.95
						c-0.233-0.1-0.35-0.184-0.35-0.25l-0.1,0.4c-0.033,0.1-0.017,0.283,0.05,0.55c0,0.133,0,0.25,0,0.35l0.1,0.05l-0.05,0.2
						c0-0.066-0.017-0.15-0.05-0.25c-0.033-0.033-0.05-0.1-0.05-0.2c-0.167,0.267-0.316,0.733-0.45,1.4
						c-0.133,0.667-0.217,1.066-0.25,1.2c-0.1,0.5-0.267,0.833-0.5,1c-0.233,0.133-0.417,0.467-0.55,1
						c-0.267,1-0.35,1.817-0.25,2.45c0.333,0.9,0.617,1.867,0.85,2.9c-0.1-0.033-0.233-0.183-0.4-0.45l-0.9-0.3v0.2h-0.2
						c-0.133,0.3-0.217,0.533-0.25,0.7c-0.1,0.333-0.15,0.633-0.15,0.9l-0.3,1c-0.367,0.033-0.583-0.067-0.65-0.3
						c0-0.033,0-0.233,0-0.6l-0.2-0.05l-0.2,0.65c-0.1-0.133-0.117-0.3-0.05-0.5c-0.233,0.434-0.4,0.8-0.5,1.1
						c-0.1,0-0.233-0.133-0.4-0.4c-0.434,0.233-0.9,1.3-1.4,3.2c-0.4,1.534-0.6,2.317-0.6,2.35c0.033,0.567,0.667,1.1,1.9,1.6
						c-0.1,0.067-0.184,0.133-0.25,0.2c-0.1,0.066-0.217,0.083-0.35,0.05l-0.85-0.55c-0.066-0.067-0.117-0.034-0.15,0.1
						c0,0.067-0.2,0.067-0.6,0l-0.1-0.05c0.267,0.367,0.383,0.633,0.35,0.8c-0.1,0.1-0.15,0.184-0.15,0.25
						c-0.2-0.367-0.367-0.583-0.5-0.65l-0.25,1c-0.5-0.066-0.9,0.15-1.2,0.65c-0.466,0.6-0.933,1.75-1.4,3.45
						c-0.1,0.4-0.083,0.933,0.05,1.6c0.1,0.7,0.117,1.2,0.05,1.5c-0.067-0.1-0.117-0.217-0.15-0.35c-0.033-0.1-0.067-0.2-0.1-0.3
						h-0.15l-0.05,0.3c-0.033,0-0.083-0.033-0.15-0.1c-0.1-0.066-0.183-0.117-0.25-0.15c0,0.267-0.467,1.017-1.4,2.25
						c-1.067,1.5-1.65,2.3-1.75,2.4c0.033-0.433-0.017-0.917-0.15-1.45c-0.167,0.1-0.267,0.216-0.3,0.35l-0.25-0.35
						c0.133,0.4-0.25,0.667-1.15,0.8c-1.3,0.2-2.383,0.7-3.25,1.5c-1,0.867-1.833,2.167-2.5,3.9c-0.4,1-0.667,1.867-0.8,2.6
						c0-0.1-0.033-0.233-0.1-0.4c-0.033,0-0.1,0.017-0.2,0.05c-0.133,0.033-0.216,0.117-0.25,0.25l-0.1-0.25
						c-0.1,0-0.233,0.133-0.4,0.4c-0.066,0-0.183-0.05-0.35-0.15c-2.733,0.867-4.534,1.8-5.4,2.8l-0.25-0.45
						c-0.3,0.133-0.466,0.333-0.5,0.6c-0.133-0.133-0.2-0.25-0.2-0.35l-0.2-0.05c-0.066,0.167-0.167,0.5-0.3,1
						c-0.033-0.034-0.267-0.233-0.7-0.6c-0.267-0.033-0.617,0.133-1.05,0.5c-0.367,0.4-0.75,0.566-1.15,0.5
						c-0.267-0.1-0.483-0.333-0.65-0.7c-0.167-0.5-0.433-0.9-0.8-1.2L49.8-56.7c-0.066,0.133-0.066,0.233,0,0.3
						c0.133,0.066,0.15,0.2,0.05,0.4c0,0.1-0.167,0.2-0.5,0.3c-0.333,0.067-0.517,0.1-0.55,0.1c-0.066-0.033-0.083-0.066-0.05-0.1
						l0.1-0.05c-0.133,0.033-0.367,0.117-0.7,0.25c-0.233,0.067-0.533,0.217-0.9,0.45l0.05-0.15l-0.05-0.15
						c-0.167,0-0.367,0.1-0.6,0.3c-0.167,0.2-0.267,0.367-0.3,0.5l-0.55-0.6c-0.133-0.033-0.233-0.017-0.3,0.05
						c-0.067-0.2-0.117-0.383-0.15-0.55c-0.033,0.133-0.167,0.35-0.4,0.65c-0.034,0-0.05,0.033-0.05,0.1c-0.033-0.133,0-0.4,0.1-0.8
						c-0.267,0.2-0.533,0.267-0.8,0.2c0.033-0.167,0.133-0.483,0.3-0.95c-0.067-0.033-0.15-0.033-0.25,0
						c-0.067,0-0.167,0.05-0.3,0.15c0.167-0.633,0.25-1.083,0.25-1.35l-0.1-0.05c-0.067,0.233-0.184,0.434-0.35,0.6
						c-0.2,0.2-0.383,0.283-0.55,0.25l0.05-0.3c-1,0.633-1.683,0.9-2.05,0.8c-0.067,0-0.267-0.1-0.6-0.3
						c-0.367-0.2-0.717-0.333-1.05-0.4c-0.466-0.133-1-0.117-1.6,0.05c-0.5,0.1-0.833,0.217-1,0.35c0.033-0.167,0.15-0.4,0.35-0.7
						v-0.1l-0.5,0.3c-0.066-0.033-0.133-0.133-0.2-0.3c-0.033-0.167-0.1-0.25-0.2-0.25c-0.167-0.066-0.316-0.05-0.45,0.05
						c-0.034,0.033-0.15,0.133-0.35,0.3c-0.1-0.233-0.317-0.566-0.65-1c-0.2-0.3-0.3-0.6-0.3-0.9c-1,0.6-1.917,0.883-2.75,0.85
						l-0.05-0.05c0-0.066,0.083-0.2,0.25-0.4c-0.033,0-0.233,0.067-0.6,0.2c-0.433,0.1-0.733,0.117-0.9,0.05
						c-0.033,0-0.133-0.133-0.3-0.4c-0.167-0.3-0.367-0.483-0.6-0.55c-0.267-0.067-0.434-0.1-0.5-0.1
						c-0.1,0.033-0.35,0.167-0.75,0.4L27.9-60.5c-0.267,0.1-0.55,0.233-0.85,0.4c-0.133,0.1-0.3,0.117-0.5,0.05
						c-0.267-0.034-0.483-0.167-0.65-0.4c-0.2-0.233-0.316-0.35-0.35-0.35c-0.033-0.034-0.383,0.017-1.05,0.15
						c-0.167-0.033-0.3-0.133-0.4-0.3c-0.067-0.1-0.167-0.3-0.3-0.6c-0.133,0.033-0.417,0.233-0.85,0.6
						c0.066-0.3,0.133-0.683,0.2-1.15c0.067-0.3,0.184-0.55,0.35-0.75c0.067-0.1,0.25-0.367,0.55-0.8
						c-0.033,0.066-0.383,0.183-1.05,0.35c0.033-0.034,0.067-0.083,0.1-0.15h-0.15c-0.067,0.067-0.217,0.167-0.45,0.3
						c-0.1,0.066-0.267,0.133-0.5,0.2l-0.05,0.05c-0.467,0.167-0.767,0.233-0.9,0.2c0.067-0.333,0.117-0.75,0.15-1.25l-0.6,2.15
						c-0.2,1.1-0.267,1.816-0.2,2.15l-0.2,0.85c-0.333-0.1-0.717-0.267-1.15-0.5c0.133,0.566,0.3,1.117,0.5,1.65
						c1.267,0.433,2.7,0.967,4.3,1.6c2.133,0.867,3.333,1.333,3.6,1.4c0.167,0.033,1.566,0.316,4.2,0.85
						c0.5,0.066,0.817,0.433,0.95,1.1c0.133-0.3,0.3-0.45,0.5-0.45c0.066,0,0.217,0.033,0.45,0.1c0.2,0.066,0.517,0.45,0.95,1.15
						c-0.067-1.333,1.017-1.967,3.25-1.9c0.233,0,0.433,0.017,0.6,0.05c0,0.032-0.017,0.049-0.05,0.05c0.135,0,0.268-0.017,0.4-0.05
						c2.066,0.2,3.417,0.25,4.05,0.15l0.9,0.2l-0.15,0.5c0.3,0.1,0.683,0.083,1.15-0.05c0.5-0.1,0.883-0.183,1.15-0.25l-0.25,0.1
						c-0.133,0.167-0.417,0.383-0.85,0.65c-0.534,0.233-0.817,0.367-0.85,0.4c3.833-0.367,5.767-0.55,5.8-0.55
						c0.333,0.1,0.533,0.2,0.6,0.3c0.067,0.066,0.183,0.316,0.35,0.75c0.066-0.133,0.217-0.284,0.45-0.45
						c0.3-0.167,0.517-0.233,0.65-0.2c0.133,0.034,0.283,0.184,0.45,0.45c0.167,0.2,0.25,0.35,0.25,0.45
						c0.1-0.167,0.2-0.284,0.3-0.35c0.133-0.133,0.35-0.167,0.65-0.1c0.566,0.5,0.917,0.767,1.05,0.8v-0.15
						c0.367-1.167,0.8-1.917,1.3-2.25c0.867-0.433,1.733-0.9,2.6-1.4c0.434-0.233,1.184-0.55,2.25-0.95
						c1.167-0.433,2.017-0.75,2.55-0.95c0,0.066,0.017,0.133,0.05,0.2l0.05,0.15c0.267-0.133,0.6-0.367,1-0.7
						c0.4-0.333,0.633-0.517,0.7-0.55c0,0.033,0,0.133,0,0.3c0,0.1,0.067,0.167,0.2,0.2c0.066,0.033,0.35-0.15,0.85-0.55
						c0.533-0.333,0.95-0.467,1.25-0.4c0.566,0.1,0.983,0.05,1.25-0.15c0.133-0.067,0.3-0.3,0.5-0.7c0.167,0.1,0.3,0.2,0.4,0.3
						C69.75-58.25,69.967-58.083,70-58.05z M81.25-76.75c-0.033,0.133-0.083,0.25-0.15,0.35c-0.067-0.067-0.083-0.15-0.05-0.25
						c0.067-0.067,0.133-0.15,0.2-0.25V-76.75z M78.2-69.95c-0.2,0.167-0.367,0.267-0.5,0.3c0.033-0.1,0.133-0.25,0.3-0.45l0.2,0.05
						V-69.95z"/>
					<path style="fill-rule:evenodd;clip-rule:evenodd;fill:#00162E;" d="M81.25-76.75v-0.15c-0.067,0.1-0.133,0.183-0.2,0.25
						c-0.033,0.1-0.017,0.183,0.05,0.25C81.167-76.5,81.217-76.617,81.25-76.75z M78.2-69.95v-0.1L78-70.1
						c-0.167,0.2-0.267,0.35-0.3,0.45C77.833-69.683,78-69.783,78.2-69.95z"/>
					<path style="fill-rule:evenodd;clip-rule:evenodd;fill:#172C42;" d="M76.8-64.15c-0.066,0.066-0.15,0.133-0.25,0.2
						c-0.4,0.333-0.917,0.75-1.55,1.25c-1.2,0.867-1.883,1.5-2.05,1.9l0.9,0.25c-0.133,0.167-0.35,0.25-0.65,0.25
						c-0.267,0-0.5,0.167-0.7,0.5l0.7,0.2c0.133-0.033,0.267-0.05,0.4-0.05c0.2,0,0.4,0.033,0.6,0.1c-0.267,0.066-0.55,0.1-0.85,0.1
						c-0.467,0.133-0.934,0.233-1.4,0.3c-0.034,0.033-0.067,0.05-0.1,0.05c-0.5,0.1-1,0.2-1.5,0.3c-0.133,0.2-0.233,0.4-0.3,0.6
						L70-58.05c-1.867,1.066-3,1.65-3.4,1.75c0.033-0.133,0.117-0.3,0.25-0.5l0.25-0.15c-0.067,0.034-1.267,0.617-3.6,1.75
						c-2.3,1.067-3.85,1.717-4.65,1.95c-1.533,0.967-2.333,1.467-2.4,1.5c-0.1,0.3-0.317,0.633-0.65,1l0.85-0.3L57-51
						c-0.2,0.7-0.283,1.233-0.25,1.6c0.3,0.066,0.717,0.033,1.25-0.1c0.567-0.2,0.933-0.283,1.1-0.25c-0.1,0.333-0.217,0.5-0.35,0.5
						v0.15c0.733-0.433,1.233-0.667,1.5-0.7l-0.2,0.55c1.5-0.667,3.267-1.483,5.3-2.45c1.8-0.9,2.95-1.433,3.45-1.6
						c-0.033,0.066-0.083,0.117-0.15,0.15c-0.033,0-0.066,0.017-0.1,0.05c0.233-0.1,0.5-0.183,0.8-0.25
						c0.633-0.1,1.033-0.217,1.2-0.35c0.034,0.1,0.05,0.184,0.05,0.25c0.033-0.133,0.117-0.2,0.25-0.2
						c0.367-0.033,0.633-0.184,0.8-0.45c0.3,0.367,0.4,0.617,0.3,0.75c0.167-0.233,0.316-0.433,0.45-0.6
						c0.167-0.133,0.3-0.25,0.4-0.35c0.467,0.8,0.8,1.367,1,1.7c0.167,0.467,0.317,0.85,0.45,1.15c0.4-0.667,0.75-0.983,1.05-0.95
						c0-0.033,0.034-0.083,0.1-0.15c0.067-0.034,0.117-0.083,0.15-0.15l-0.9-0.25l0.1-0.5l0.9,0.2c0.2-0.3,0.1-0.683-0.3-1.15
						l0.15-0.35l1.45,0.35c-0.067-0.033-0.15-0.15-0.25-0.35c-0.167-0.167-0.35-0.283-0.55-0.35v-0.1c0-0.066-0.033-0.1-0.1-0.1
						c0.333-0.167,0.833-0.25,1.5-0.25c0.633,0,1.117,0.066,1.45,0.2c-0.067-0.1-0.3-0.383-0.7-0.85c-0.433-0.466-0.716-0.8-0.85-1
						c-0.034-0.066,0.033-0.45,0.2-1.15c0.133-0.566,0.033-0.933-0.3-1.1c0.133-0.6,0.45-1.583,0.95-2.95l-0.1-0.05
						c-0.067-0.033-0.083-0.1-0.05-0.2c-0.233,0.066-0.55,0.25-0.95,0.55l-0.15-0.05l0.35-1.4c0.167-0.3,0.333-0.6,0.5-0.9
						c0.167-0.2,0.417-0.466,0.75-0.8l0.4-1.4c-0.433,0.133-0.833,0.733-1.2,1.8c-0.333,1.033-0.767,1.633-1.3,1.8l0.3-1.1H76.8z"/>
					<path style="fill-rule:evenodd;clip-rule:evenodd;fill:#001F41;" d="M68.55-53.1c-0.1,0.067-0.183,0.133-0.25,0.2
						c0.1,0.033,0.167,0.017,0.2-0.05l0.05-0.1V-53.1z M58.85-53.25c0.2-0.133,0.417-0.267,0.65-0.4
						c0.133-0.033,0.283-0.067,0.45-0.1l0.05-0.2c-0.2,0.133-0.367,0.233-0.5,0.3c-0.4,0.167-0.683,0.316-0.85,0.45
						C58.717-53.2,58.783-53.217,58.85-53.25z M74.35-51.1c-0.033-0.1-0.05-0.183-0.05-0.25l-0.1,0.2L74.35-51.1z"/>
				</g>
			</g>
			<g>
				<g>
					<path style="fill-rule:evenodd;clip-rule:evenodd;fill:#483217;" d="M81.85-101.85c-1.6-0.6-3.117-1.25-4.55-1.95
						c-1.267-0.6-2.183-1-2.75-1.2l-1.8-0.65c-0.067-0.033-0.283-0.067-0.65-0.1h-0.05c-0.267-0.033-0.433-0.067-0.5-0.1
						c-0.066-0.066-0.083-0.267-0.05-0.6c0.033-0.333,0.033-0.65,0-0.95c0-0.1-0.017-0.184-0.05-0.25
						c-0.067-0.167-0.133-0.317-0.2-0.45c-0.267-0.8-0.583-1.8-0.95-3c-0.767-2.267-1.566-4.316-2.4-6.15
						c-0.3-0.633-0.867-1.533-1.7-2.7c-1.167-1.6-1.9-2.633-2.2-3.1c-0.733-1.133-1.267-2.2-1.6-3.2
						c-0.033-0.8-0.05-1.717-0.05-2.75c-0.033-1.067-0.033-2.283,0-3.65c0-1.633,0.017-3.467,0.05-5.5c0-0.867-0.167-1.867-0.5-3
						c-0.333-1.133-0.5-2.05-0.5-2.75c0-2.1,0.65-11.033,1.95-26.8c1.4-17.1,2.167-26.867,2.3-29.3
						c0.167-2.967,1.233-5.517,3.2-7.65c1.133-1.233,2.9-2.767,5.3-4.6c0.767-0.733,1.717-1.717,2.85-2.95
						c1.167-0.867,2.883-1.3,5.15-1.3c1.8,0,3.783-0.6,5.95-1.8c-3.767,0.033-7.05,0.283-9.85,0.75v0.25
						c0.167,0.167,0.333,0.383,0.5,0.65c-0.033,0-0.067,0.017-0.1,0.05v0.05c-1.467,0.233-2.6,0.433-3.4,0.6
						c-0.533,0.1-1.017,0.217-1.45,0.35c-0.033,0.067-0.066,0.133-0.1,0.2l-0.05-0.15c-0.6,0.2-1.066,0.45-1.4,0.75
						c-0.033,0.667-0.45,1.183-1.25,1.55c-0.933,0.3-1.55,0.5-1.85,0.6c-0.667,0.2-1.316,0.6-1.95,1.2
						c-0.5,0.434-1.083,0.65-1.75,0.65c-0.267,0-0.45-0.05-0.55-0.15c-0.1-0.066-0.15-0.2-0.15-0.4c0-0.1,0.05-0.267,0.15-0.5
						c0.067-0.233,0.1-0.4,0.1-0.5c0-0.333-0.117-0.517-0.35-0.55c-0.367,0-0.667,0-0.9,0c-0.8,0-1.383,0.083-1.75,0.25
						c-0.733,0.367-1.683,0.7-2.85,1v-0.25c0.233-0.567,0.383-1,0.45-1.3c-0.267,0.133-0.483,0.25-0.65,0.35
						c0.633-0.933,1.283-1.6,1.95-2c0.434-0.3,1.167-0.617,2.2-0.95c0.1,0,0.183,0,0.25,0c0.267-0.133,0.533-0.233,0.8-0.3
						c0.167-0.066,0.35-0.117,0.55-0.15c0.133-0.033,0.25-0.05,0.35-0.05c0.534-0.034,1.083-0.05,1.65-0.05
						c0.5-0.1,0.816-0.333,0.95-0.7c0.5-0.267,0.967-0.45,1.4-0.55c0.467-0.066,0.9-0.183,1.3-0.35c0.933-0.433,1.933-0.716,3-0.85
						c-0.1-0.067-0.184-0.1-0.25-0.1c-1.567,0.133-2.767,0.283-3.6,0.45c-1.7,0.333-2.683,0.767-2.95,1.3l0.35,0.2
						c-0.066,0.1-0.233,0.15-0.5,0.15c-0.2,0-0.35-0.05-0.45-0.15c-0.133-0.133-0.367-0.2-0.7-0.2c-0.3,0-0.717,0.066-1.25,0.2
						c-0.567,0.167-1.067,0.267-1.5,0.3c-0.167,0-0.4,0-0.7,0c-0.066,0-0.133,0-0.2,0c-1.133,0.833-2.217,1.6-3.25,2.3
						c-2.033,1.367-3.4,2.05-4.1,2.05c-0.467,0-1.017-0.517-1.65-1.55c-0.733-1.2-1.267-1.883-1.6-2.05
						c-0.6-0.333-1.85-0.767-3.75-1.3c-1.2-0.333-2.25-0.583-3.15-0.75c-0.833,0.1-1.434,0.2-1.8,0.3
						c-0.066,0.033-0.133,0.05-0.2,0.05v0.25c0.2,0,0.5,0.067,0.9,0.2c0.567,0.167,1.35,0.45,2.35,0.85
						c0.333,0.133,0.65,0.35,0.95,0.65c-0.433-0.067-0.95-0.15-1.55-0.25c-0.1,0-0.2-0.017-0.3-0.05c0.6,0.567,1.1,1.15,1.5,1.75
						c0.433,0.633,1.017,1.567,1.75,2.8c0.733,1.066,1.633,2.033,2.7,2.9c0.7,0.533,1.733,0.783,3.1,0.75
						c0.767,0,1.817-0.083,3.15-0.25c0.434-0.033,0.983-0.033,1.65,0c-0.066,0.233-0.133,0.483-0.2,0.75c-0.033,0-0.067,0-0.1,0
						c-0.467,0-1.583,1.167-3.35,3.5c-2,2.6-3,4.767-3,6.5c0,0.067,0.25,1.083,0.75,3.05c0.5,2,0.75,4.017,0.75,6.05
						c0,2.566-0.25,5.167-0.75,7.8c-0.5,2.667-0.75,4.117-0.75,4.35c0,0.8,0.5,1.65,1.5,2.55c0.667,0.567,1.8,0.684,3.4,0.35
						c-0.133,0.233,0.1,0.217,0.7-0.05c0.067-0.067,0.15-0.117,0.25-0.15c0.1-0.067,0.2-0.133,0.3-0.2c0,0.033,0,0.067,0,0.1
						c-0.466,1.267-1.083,3.1-1.85,5.5c-1.4,4.367-2.1,6.783-2.1,7.25c0,0.8,0.017,1.267,0.05,1.4c0.1,0.5,0.417,0.783,0.95,0.85
						c0-0.167,0.083-0.25,0.25-0.25v1.7c-0.4,1.434-0.65,3-0.75,4.7c0,0.067,0,0.183,0,0.35c0,0.566,0,1.75,0,3.55
						c-0.267,0.667-0.434,1.3-0.5,1.9c-0.033,0.833,0.183,1.434,0.65,1.8c0.233,0.2,0.517,0.333,0.85,0.4v-0.25
						c0.133,2.667,0.25,4.7,0.35,6.1c0.1,2.333,0.15,4.25,0.15,5.75c0,0.133,0,0.267,0,0.4c-0.067,2.067,0.2,4.067,0.8,6
						c0.934,3,1.417,4.583,1.45,4.75c-0.667-0.633-1.1-1.033-1.3-1.2c-0.433-0.367-0.833-0.633-1.2-0.8v3.5
						c0.533,1.467,0.467,3.367-0.2,5.7c-0.867,2.433-1.383,4.117-1.55,5.05v2L54.6-108v0.25c-0.3,0.533-0.517,1.2-0.65,2
						c-0.133,0.767-0.167,1.517-0.1,2.25H53.6c-0.033-0.367-0.167-0.667-0.4-0.9c-0.1-0.1-0.3-0.217-0.6-0.35
						c-1.2,2.667-2.1,4.75-2.7,6.25c-1.066,2.667-1.667,5-1.8,7c-1.434,0.667-2.967,1.717-4.6,3.15c-1.067,0.934-2.483,2.1-4.25,3.5
						c-0.4,0.667-0.85,1.417-1.35,2.25c-0.167,0.267-0.333,0.55-0.5,0.85c-1,1.733-2.15,3.933-3.45,6.6
						c-0.067,0.133-0.15,0.283-0.25,0.45c0.6-0.667,0.933-1.083,1-1.25c0.167-0.367,0.3-0.65,0.4-0.85
						c0.066-0.167,0.117-0.25,0.15-0.25c1.3-1.867,2.617-3.767,3.95-5.7l-0.45,3.55c-2.4,4.2-4.383,8.517-5.95,12.95
						c-0.433,0.267-0.883,0.533-1.35,0.8c-0.8,0.434-1.6,0.833-2.4,1.2c-0.1,0.033-0.183,0.067-0.25,0.1
						c-0.267,0.033-0.466,0.15-0.6,0.35c-0.067,0.066-0.35,0.333-0.85,0.8c-0.467,0.467-0.917,0.883-1.35,1.25
						c-0.433,0.4-0.783,0.683-1.05,0.85c-0.233,0.2-0.583,0.55-1.05,1.05c-0.133,0.133-0.267,0.267-0.4,0.4
						c0.267-0.167,0.533-0.333,0.8-0.5c0.167-0.1,0.317-0.216,0.45-0.35c0.733-0.567,1.467-1.117,2.2-1.65
						c1.333-0.933,2.683-1.833,4.05-2.7c0.1-0.067,0.2-0.117,0.3-0.15c0.233-0.1,0.434-0.217,0.6-0.35c0.133-0.133,0.3-0.133,0.5,0
						c-1.367,4.033-2.283,7.1-2.75,9.2c0.934-3.167,2.233-6.783,3.9-10.85c2.034-4.8,3.55-7.833,4.55-9.1
						c0.133-0.167,0.417-0.55,0.85-1.15c-0.467,2.066-0.733,3.75-0.8,5.05c-0.066,1.333-0.316,3.65-0.75,6.95
						c1.434-7.034,2.167-10.583,2.2-10.65c0.167-0.5,0.3-1.216,0.4-2.15c0-0.1,0.017-0.2,0.05-0.3c0.034-0.367,0.083-0.733,0.15-1.1
						c0.033-0.233,0.05-0.433,0.05-0.6c0.133-1.367,0.2-2.617,0.2-3.75c0-0.2-0.034-0.383-0.1-0.55c1.267-1.6,2.5-2.9,3.7-3.9
						c1.233-0.934,2.383-1.733,3.45-2.4c-0.3,2.5-0.983,9.917-2.05,22.25l1.25-8c0.1-1.2,0.216-2.767,0.35-4.7
						c0-0.9,0.034-1.567,0.1-2c0.033-0.167,0.184-0.817,0.45-1.95c0.3-2,0.6-3,0.9-3c0.933,3.167,1.483,5.217,1.65,6.15
						c0.233,1.267,0.35,3.35,0.35,6.25c0.033-0.466,0.05-0.733,0.05-0.8v-0.05c0-3.133-0.117-5.55-0.35-7.25
						c-0.2-1.567-0.5-3.8-0.9-6.7c0-0.233,0.017-0.483,0.05-0.75c0.2-1.567,0.5-3.167,0.9-4.8c0.033-0.067,0.083-0.133,0.15-0.2
						c0.4-0.7,0.7-1.25,0.9-1.65c0.233-0.4,0.5-0.9,0.8-1.5c0.3-0.6,0.45-0.967,0.45-1.1c0.034-0.133,0.05-0.217,0.05-0.25
						c0.033-0.267,0.183-0.383,0.45-0.35h0.1c0,0.434,0.083,0.8,0.25,1.1c-0.333,6.8-0.05,13.517,0.85,20.15
						c0.033,0.1,0.05,0.2,0.05,0.3c-0.733,4.733-1.65,8.216-2.75,10.45c-1.966,0.667-3.667,1.283-5.1,1.85c-2,1.7-3.633,3-4.9,3.9
						c-5.167,3.633-8.983,7.467-11.45,11.5c0.933-1.066,1.767-1.967,2.5-2.7c2.233-2.4,4.283-4.2,6.15-5.4
						c-0.067,0.867-0.283,1.867-0.65,3c-0.367,0.9-1.017,2.4-1.95,4.5c-0.267,0.667-0.717,1.817-1.35,3.45
						c-0.1,0.233-0.2,0.467-0.3,0.7c0.867-1.733,1.833-3.717,2.9-5.95c1.4-3.033,2.4-5.283,3-6.75l6.55-4.6
						c2.466-0.967,4.066-1.5,4.8-1.6c-0.3,0.967-0.633,1.883-1,2.75c-0.067,0.233-0.15,0.467-0.25,0.7
						c-0.967,2.367-2.033,4.433-3.2,6.2h-0.05c-0.033,0.1-0.05,0.167-0.05,0.2c0,0.1,0.033,0.167,0.1,0.2
						c0.067,0.066,0.133,0.1,0.2,0.1s0.117-0.034,0.15-0.1c1.5-1.867,2.75-3.633,3.75-5.3c0.333,0.467,0.684,1.233,1.05,2.3
						c0.4,1.133,0.6,2,0.6,2.6L53-55.75c-0.8,0.433-1.967,1.65-3.5,3.65c-1.967,2.533-3.333,4.917-4.1,7.15
						c0.133-0.033,0.283-0.066,0.45-0.1c0.867-1.9,1.767-3.483,2.7-4.75c1.167-1.567,2.184-2.35,3.05-2.35c0.4,0,0.6,0.5,0.6,1.5
						c0,0.5-0.067,1.217-0.2,2.15c-0.1,0.833-0.2,1.433-0.3,1.8c0.066,0,0.133-0.017,0.2-0.05c0.1-0.333,0.2-0.7,0.3-1.1
						c0.833-3.133,1.25-5.617,1.25-7.45c0-0.167,0-0.35,0-0.55c-0.034-2.1-0.184-4-0.45-5.7c-0.233-1.167-0.383-2.083-0.45-2.75
						c0.6-1.167,1.067-2.3,1.4-3.4c0.966-2.867,1.667-5.367,2.1-7.5c1.233,2.034,2.3,3.467,3.2,4.3c-0.233,2-0.45,3.9-0.65,5.7
						c-0.767,7.133-1.167,12.417-1.2,15.85c0.233-0.133,0.467-0.283,0.7-0.45c0.066-1.833,0.117-4.05,0.15-6.65
						c0.167-2.466,0.567-4.517,1.2-6.15c0.9,0.1,2.033,1.133,3.4,3.1c0.467,0.667,0.85,1.283,1.15,1.85c-0.4-1.167-0.8-2.1-1.2-2.8
						c-0.733-1.333-1.85-2.7-3.35-4.1l-0.1,0.1v-1.25c0.3-1.233,0.667-2.683,1.1-4.35c0.133,0.1,0.267,0.15,0.4,0.15
						c0.033,0.033,0.066,0.017,0.1-0.05c-0.6-0.966-1.767-2.5-3.5-4.6c-1.5-2.167-2.117-4.15-1.85-5.95
						c0.167-1.267,0.05-3.683-0.35-7.25c-0.433-4.067-0.65-6.433-0.65-7.1c0-2.333,0.066-3.933,0.2-4.8
						c0.167-1.4,0.684-3.267,1.55-5.6c0.167-0.5,0.233-1.283,0.2-2.35c-0.066-1.233-0.05-2.117,0.05-2.65
						c0.033-0.3,0.4-0.833,1.1-1.6c0.2-0.233,0.383-0.433,0.55-0.6c-0.033-0.066-0.05-0.117-0.05-0.15
						c-0.067-0.167-0.117-0.333-0.15-0.5c0-0.133-0.017-0.25-0.05-0.35c-0.233-0.733-0.25-1.5-0.05-2.3
						c0-0.067,0.017-0.15,0.05-0.25c0.033-0.467,0.133-0.917,0.3-1.35c0.034-0.066,0.05-0.117,0.05-0.15
						c0.033-0.2,0.066-0.4,0.1-0.6c0-0.1,0.017-0.183,0.05-0.25c0.033-0.733,0.05-1.45,0.05-2.15c0.267,0.1,0.434,0.233,0.5,0.4
						c0.034,0.033,0.083,0.067,0.15,0.1c0.233,0.1,0.45,0.233,0.65,0.4c0.033,0.033,0.066,0.083,0.1,0.15
						c1.333,3.2,2.483,7.684,3.45,13.45c0.067,0.733,0.133,1.4,0.2,2c0,0.1,0,0.167,0,0.2c-0.434,1.566-0.85,5.033-1.25,10.4
						c-0.3,0.133-0.633,0.35-1,0.65l-2,1.95c-1.3,1.5-2.017,2.566-2.15,3.2l2.8-2.85c1.5-1.267,2.35-1.85,2.55-1.75
						c-0.1,1-0.167,1.8-0.2,2.4c-0.067,0.6-0.1,1.167-0.1,1.7c0,0.267-0.017,0.517-0.05,0.75c0,0.133,0,0.25,0,0.35
						c-0.167,1.667-0.3,3.467-0.4,5.4c0,0.067-0.017,0.934-0.05,2.6c-0.033,1.7,0.017,1.917,0.15,0.65c0.1-1.3,0.184-2.15,0.25-2.55
						c0.067-0.367,0.1-0.583,0.1-0.65v-0.05c0.167-1.867,0.3-3.65,0.4-5.35h0.05c0.033,0.034,0.066,0.05,0.1,0.05
						c0.2,0,0.317,0.066,0.35,0.2c0,0.034,0.017,0.05,0.05,0.05c0.033,0.033,0.066,0.05,0.1,0.05c0.034,0.067,0.1,0.117,0.2,0.15
						c0.067,0,0.117,0.017,0.15,0.05c0.1,0.033,0.167,0.1,0.2,0.2c0,0.034,0.017,0.05,0.05,0.05c0.067,0.033,0.117,0.066,0.15,0.1
						c0.1,0.167,0.217,0.333,0.35,0.5c0.1,0.2,0.217,0.383,0.35,0.55c0.8,1.267,1.55,2.617,2.25,4.05c0.6,1.2,1,2.184,1.2,2.95
						c-0.534,1.9-1.05,3.717-1.55,5.45c-0.1,0.267-0.183,0.533-0.25,0.8v0.05c-0.133,0.4-0.283,0.767-0.45,1.1
						c0,0.033-0.017,0.067-0.05,0.1c-0.133,0.267-0.2,0.6-0.2,1c0.033,0.133,0.05,0.267,0.05,0.4c0.067,0.167,0.1,0.35,0.1,0.55
						c0,0.1-0.017,0.2-0.05,0.3c0,0.233-0.017,0.467-0.05,0.7c-0.067,1.633-0.017,3.083,0.15,4.35c0.167,1.4,0.317,2.4,0.45,3
						c0-0.566-0.05-1.517-0.15-2.85c-0.1-1.267-0.15-2.267-0.15-3c0-1.367,0.05-2.184,0.15-2.45c0.033-0.367,0.216-1.217,0.55-2.55
						c0.333-1.333,0.717-2.75,1.15-4.25c0.033-0.1,0.067-0.2,0.1-0.3c0.067-0.233,0.133-0.433,0.2-0.6h0.05
						c0,0.1,0.05,0.184,0.15,0.25c0.133-0.066,0.25-0.033,0.35,0.1c0,0.033,0.017,0.067,0.05,0.1c0.133,0.233,0.267,0.45,0.4,0.65
						c0.033,0.133,0.066,0.25,0.1,0.35c1,2.667,1.7,5.267,2.1,7.8c0.233,1.534,0.367,3.034,0.4,4.5
						c0.067-0.066,0.117-0.133,0.15-0.2c0.066-0.467-0.067-2.067-0.4-4.8c0-0.233-0.033-0.483-0.1-0.75c0-0.3-0.017-0.583-0.05-0.85
						c-0.033-0.233-0.05-0.467-0.05-0.7c0-0.067,0-0.133,0-0.2c-0.033-0.333-0.083-0.683-0.15-1.05
						c-0.034-0.233-0.083-0.45-0.15-0.65c-0.033-0.067-0.066-0.133-0.1-0.2c0-0.066,0-0.117,0-0.15
						c-0.167-0.467-0.317-0.917-0.45-1.35c-0.033-0.267-0.1-0.5-0.2-0.7c-0.066-0.2-0.1-0.417-0.1-0.65c0-0.167-0.05-0.35-0.15-0.55
						c-0.167-0.433-0.333-0.883-0.5-1.35c-0.033-0.033-0.05-0.066-0.05-0.1c-0.133-0.367-0.25-0.75-0.35-1.15
						c-0.033-0.066-0.05-0.133-0.05-0.2c-0.067-0.233-0.133-0.467-0.2-0.7c-0.066-0.133-0.1-0.283-0.1-0.45
						c-0.033-0.033-0.05-0.066-0.05-0.1c-0.033-0.167-0.083-0.35-0.15-0.55c-0.1-0.233-0.217-0.45-0.35-0.65
						c-0.233-0.333-0.45-0.7-0.65-1.1c-0.233-0.467-0.45-0.883-0.65-1.25c-0.034-0.033-0.067-0.066-0.1-0.1
						c-0.233-0.233-0.417-0.5-0.55-0.8c-0.066-0.133-0.167-0.267-0.3-0.4c-0.5-1-1.05-1.95-1.65-2.85c-0.7-1.167-1.2-1.967-1.5-2.4
						c0.1-0.9,0.183-1.75,0.25-2.55V-92c0-0.033,0-0.083,0-0.15c0.033-0.267,0.066-0.567,0.1-0.9c0-0.067,0-0.117,0-0.15
						c0.333-3.367,0.617-5.733,0.85-7.1c0.167,1.367,0.317,2.6,0.45,3.7c0,0.067,0,0.133,0,0.2c0.467,3.533,0.767,5.883,0.9,7.05
						c0.033,0.1,0.1,0.483,0.2,1.15c0.133,0.633,0.25,1.133,0.35,1.5c0.1,0.333,0.117-0.017,0.05-1.05c-0.067-1-0.1-1.55-0.1-1.65
						c-0.066-2.4-0.233-4.8-0.5-7.2v-0.1c-0.267-2.6-0.533-5.183-0.8-7.75c-0.167-1.533-0.35-3.083-0.55-4.65
						c-0.066-0.5-0.517-2.617-1.35-6.35c-0.034-0.2-0.083-0.417-0.15-0.65c-0.3-0.5-0.633-0.85-1-1.05v-0.25h0.25
						c1.034,0.267,1.767,0.5,2.2,0.7c0.767,0.267,1.483,1.05,2.15,2.35c0.333,0.667,1,1.733,2,3.2l1.35,2.05
						c0,0.1-0.117,0.783-0.35,2.05c-0.233,1.267-0.35,2.333-0.35,3.2c0,0.3,0.05,0.517,0.15,0.65c0.167-1.267,0.383-2.85,0.65-4.75
						c0.5,0.934,0.867,1.667,1.1,2.2c0.566,1.167,1.033,2.25,1.4,3.25c-0.033,0.267-0.083,0.533-0.15,0.8
						c0,0.034-0.017,0.083-0.05,0.15c-0.066,0.167-0.15,0.35-0.25,0.55c-0.1,0.133-0.167,0.317-0.2,0.55
						c0,0.034-0.083,0.267-0.25,0.7c0,0.033,0,0.067,0,0.1c-0.034,0.033-0.05,0.066-0.05,0.1c0.024,0,0.041-0.008,0.05-0.025
						c-0.034,0.195-0.05,0.437-0.05,0.725c-0.066,0.967-0.117,1.5-0.15,1.6l-0.05,0.3c-0.034,0.133-0.067,0.25-0.1,0.35
						c-0.067,0.167-0.133,0.317-0.2,0.45c-0.033,0.467-0.033,0.933,0,1.4c-0.033,0.767-0.1,1.583-0.2,2.45
						c-0.1,0.9-0.067,1.816,0.1,2.75c0.034,0.3,0.067,0.583,0.1,0.85c0.167,0.934,0.283,1.9,0.35,2.9
						c0.067,0.667,0.117,1.333,0.15,2c0.033,0.233,0.083,0.583,0.15,1.05c0.034,0.133,0.05,0.25,0.05,0.35c0,0.066,0,0.117,0,0.15
						l0.85,3.35c0.033,0.133,0.066,0.25,0.1,0.35c0.2,0.867,0.417,1.716,0.65,2.55c0.066,0.3,0.133,0.583,0.2,0.85
						c0.633,2.5,1.283,5.033,1.95,7.6c0.033-0.1,0.066-0.167,0.1-0.2c-0.7-2.2-1.4-5.4-2.1-9.6c-0.233-0.9-0.367-1.667-0.4-2.3
						c0-0.633,0-1.033,0-1.2c0.033-0.167,0.05-0.316,0.05-0.45l-0.1-0.95l0.4-0.3L74-82.4c0.5,0.2,1.067,0.433,1.7,0.7
						c0.033,0.034,0.066,0.05,0.1,0.05c1.5,0.7,2.767,1.833,3.8,3.4c0.033-0.1,0.066-0.217,0.1-0.35
						c-0.067-0.4-0.667-1.117-1.8-2.15c-0.2-0.167-0.4-0.333-0.6-0.5c-0.3-0.167-0.617-0.367-0.95-0.6
						c-0.033-0.033-0.083-0.066-0.15-0.1c-0.067-0.033-0.117-0.066-0.15-0.1c-0.2-0.167-0.417-0.3-0.65-0.4
						c-0.033-0.033-0.066-0.05-0.1-0.05c-0.2-0.133-0.4-0.233-0.6-0.3c-0.5-0.2-0.917-0.434-1.25-0.7
						c-0.267-0.2-0.517-0.383-0.75-0.55c-0.034,0-0.05-0.034-0.05-0.1L72.6-84.2c-0.033-0.1-0.1-0.183-0.2-0.25
						c-0.1-0.066-0.183-0.133-0.25-0.2c-0.066-0.067-0.167-0.184-0.3-0.35c-0.167-0.8-0.283-2.617-0.35-5.45
						c-0.2-2.5,0.133-5.05,1-7.65c0.033-0.033,0.05-0.066,0.05-0.1c0.1-0.2,0.2-0.4,0.3-0.6c0.033-0.1,0.117-0.167,0.25-0.2
						c0.066,0.133,0.133,0.283,0.2,0.45c0.034,0.066,0.067,0.133,0.1,0.2c0.067,0.1,0.117,0.217,0.15,0.35
						c0.133,0.367,0.267,0.717,0.4,1.05c0.066,0.167,0.133,0.35,0.2,0.55c0.033,0.133,0.067,0.267,0.1,0.4
						c0.033,0.1,0.067,0.183,0.1,0.25c0,0.233,0.017,0.483,0.05,0.75c0.033,0.067,0.05,0.133,0.05,0.2
						c0.033,0.066,0.05,0.167,0.05,0.3c0.032,0.063,0.048,0.13,0.05,0.2c0-0.17,0-0.336,0-0.5c-0.033-0.067-0.05-0.133-0.05-0.2
						c0-0.267-0.017-0.533-0.05-0.8c0-0.133-0.017-0.267-0.05-0.4c0.033-0.033,0.05-0.083,0.05-0.15
						c-0.034-0.033-0.05-0.066-0.05-0.1c0-0.066,0-0.15,0-0.25c-0.033-0.1-0.05-0.2-0.05-0.3c-0.1-0.433-0.15-0.867-0.15-1.3
						c0-0.067-0.017-0.133-0.05-0.2c0-0.033,0-0.083,0-0.15c0-0.033-0.017-0.083-0.05-0.15c-0.067-0.5-0.167-0.967-0.3-1.4
						c-0.033-0.033-0.066-0.083-0.1-0.15c-0.133-0.667-0.284-1.333-0.45-2c0-0.133,0-0.25,0-0.35
						c-0.033-0.267-0.117-0.517-0.25-0.75c-0.1-0.2-0.183-0.417-0.25-0.65v-0.05c-0.033,0-0.05-0.017-0.05-0.05
						c1.267-0.066,2.066-0.05,2.4,0.05c0.333,0.1,0.533,0.167,0.6,0.2c0.667,0.3,1.316,0.55,1.95,0.75
						c0.133,0.067,0.3,0.15,0.5,0.25c0.367,0.233,0.917,0.467,1.65,0.7c0.733,0.267,1.45,0.767,2.15,1.5
						c0.7,0.7,0.983,1.133,0.85,1.3c0.034,0.133,0.067,0.267,0.1,0.4c0.033,0.033,0.05,0.066,0.05,0.1
						c0.1,0.167,0.183,0.35,0.25,0.55c0,0.033,0,0.066,0,0.1c0.1,0.133,0.15,0.267,0.15,0.4c0,0.033,0,0.066,0,0.1
						c0.033,0.466,0.05,0.933,0.05,1.4c0,0.066,0,0.133,0,0.2c0.067,0.133,0.117,0.267,0.15,0.4c0.034,0.1,0.083,0.2,0.15,0.3
						c0.1,0.233,0.183,0.467,0.25,0.7c0,0.033,0,0.066,0,0.1c0.1,0.133,0.167,0.317,0.2,0.55c0,0.133,0.033,0.267,0.1,0.4
						c0.067,0.233,0.133,0.467,0.2,0.7c0,0.033,0.017,0.066,0.05,0.1c0,0.3,0.1,0.5,0.3,0.6c-0.066-0.233-0.133-0.5-0.2-0.8
						c0-0.033,0-0.067,0-0.1c-0.167-0.467-0.333-0.95-0.5-1.45c-0.1-0.333-0.15-0.683-0.15-1.05c0-0.067-0.017-0.1-0.05-0.1
						c-0.066-0.066-0.1-0.167-0.1-0.3c-0.033-0.2-0.066-0.417-0.1-0.65c-0.067-0.667-0.083-1.333-0.05-2c0-0.034,0-0.067,0-0.1
						c0-0.2,0.033-0.367,0.1-0.5c0.067,0.066,0.117,0.117,0.15,0.15c0.233,0.3,0.517,0.617,0.85,0.95c0.3,0.267,0.6,0.5,0.9,0.7
						c-0.066-0.233-0.167-0.417-0.3-0.55c-0.067-0.033-0.133-0.083-0.2-0.15c-0.367-0.4-0.7-0.817-1-1.25
						c-0.133-0.2-0.3-0.383-0.5-0.55c-0.267-0.233-0.483-0.517-0.65-0.85c-0.1-0.233-0.267-0.4-0.5-0.5
						c-0.2-0.066-0.383-0.167-0.55-0.3C81.917-101.783,81.883-101.817,81.85-101.85z M71.45-82.8v0.05L71.4-82.9
						C71.433-82.867,71.45-82.833,71.45-82.8z M59.35-156.7c-0.567,10.034-0.883,9.217-0.95-2.45c-0.467-2.633-0.783-3.8-0.95-3.5
						c-0.1,0.2-0.167,0.417-0.2,0.65c-0.1-0.233-0.217-0.517-0.35-0.85c0-0.333,0.25-1.167,0.75-2.5c0.5-1.367,0.75-2.25,0.75-2.65
						c0-0.433,0.133-0.95,0.4-1.55c0.367-0.733,0.6-1.3,0.7-1.7c0.167-0.733,0.25-2.1,0.25-4.1c0-1.633-0.017-2.6-0.05-2.9
						c-0.067-0.233-0.467-1.533-1.2-3.9v-1.5h0.15c0.133,0.367,0.3,1.2,0.5,2.5c0.1,0.933,0.267,1.583,0.5,1.95
						c0,0.434,0.083,1.034,0.25,1.8c0.167,0.8,0.25,1.5,0.25,2.1C60.15-172.9,59.883-166.7,59.35-156.7z M57.65-197.9
						c-0.233,0-0.433,0.167-0.6,0.5c-0.133-1.033-0.35-1.934-0.65-2.7l1.05-1.65c0.767-1.2,1.25-2.033,1.45-2.5
						c0.133-0.333,0.3-1.017,0.5-2.05c0.167-0.767,0.45-1.434,0.85-2c0,0.5,0.117,1.617,0.35,3.35c0.2,1.733,0.3,2.85,0.3,3.35
						c0,0.033-0.217,2.45-0.65,7.25c0,0.833,0.15,2.033,0.45,3.6c0.3,1.567,0.45,2.483,0.45,2.75c0,0.967,0.05,2.017,0.15,3.15
						c0.267,2.3,0.417,3.7,0.45,4.2v1.9c-0.5-1.033-1.033-3.25-1.6-6.65c-0.3-1.733-0.6-3.65-0.9-5.75
						c-0.033-0.367-0.133-1.633-0.3-3.8C58.683-196.917,58.25-197.9,57.65-197.9z M66.5-217.1l0.05-0.05H66.5V-217.1z"/>
					<path style="fill-rule:evenodd;clip-rule:evenodd;fill:#342109;" d="M68.95-103.2c-0.1-0.133-0.15-0.35-0.15-0.65
						c0-0.867,0.117-1.933,0.35-3.2c0.233-1.267,0.35-1.95,0.35-2.05l-1.35-2.05c-1-1.467-1.667-2.533-2-3.2
						c-0.667-1.3-1.383-2.083-2.15-2.35c-0.433-0.2-1.167-0.433-2.2-0.7h-0.25v0.25c0.367,0.2,0.7,0.55,1,1.05
						c-0.033-0.167-0.066-0.35-0.1-0.55c1.833,1.2,3.8,3.417,5.9,6.65c0.233,0.4,0.45,0.767,0.65,1.1c0,0.367-0.017,0.783-0.05,1.25
						c-0.133,1.833-0.2,3.4-0.2,4.7c0,0.034,0,0.067,0,0.1c0,0.333,0.017,0.633,0.05,0.9c0,0.029,0,0.238,0,0.625
						C68.811-101.831,68.861-102.456,68.95-103.2z M81.85-101.85c-0.133-0.066-1.067-0.55-2.8-1.45c-0.367-0.167-0.7-0.317-1-0.45
						c-0.1-0.067-0.216-0.15-0.35-0.25c-0.167-0.1-0.317-0.2-0.45-0.3c-0.033-0.034-0.067-0.05-0.1-0.05
						c-0.167-0.1-0.367-0.2-0.6-0.3c-0.033,0-0.066-0.017-0.1-0.05c-0.167-0.1-0.35-0.167-0.55-0.2c-0.033,0-0.066,0-0.1,0
						c-0.233-0.033-0.966-0.333-2.2-0.9c-0.767-0.333-1.3-0.583-1.6-0.75c-0.167-0.367-0.35-0.733-0.55-1.1
						c0.033,0.066,0.05,0.15,0.05,0.25c0.033,0.3,0.033,0.617,0,0.95c-0.033,0.333-0.017,0.534,0.05,0.6
						c0.067,0.033,0.233,0.067,0.5,0.1h0.05c0.367,0.033,0.583,0.067,0.65,0.1l1.8,0.65c0.567,0.2,1.483,0.6,2.75,1.2
						C78.733-103.1,80.25-102.45,81.85-101.85z M50.5-75.45c0-2.9-0.117-4.983-0.35-6.25c-0.167-0.933-0.717-2.983-1.65-6.15
						c-0.3,0-0.6,1-0.9,3c-0.267,1.133-0.417,1.783-0.45,1.95c-0.066,0.433-0.1,1.1-0.1,2c-0.133,1.933-0.25,3.5-0.35,4.7l0.4-2.2
						c0.433-3.033,0.85-5.733,1.25-8.1c0.433,0.933,0.767,2.383,1,4.35c0.3,2.8,0.517,4.8,0.65,6c0.033,0.066,0.05,0.533,0.05,1.4
						c0.034,0.833,0.067,1.533,0.1,2.1c0.033,0.533,0.1,0.1,0.2-1.3C50.417-74.583,50.467-75.083,50.5-75.45z M60.95-69.95
						c0.033,0,0.05-0.017,0.05-0.05c0.067-0.033,0.1-0.1,0.1-0.2c0.033-0.066,0.033-0.133,0-0.2c-0.033-0.067-0.083-0.1-0.15-0.1
						c-0.067-0.067-0.15-0.15-0.25-0.25c-0.367-0.333-0.767-0.883-1.2-1.65c-0.367-0.7-0.75-1.583-1.15-2.65
						c-0.667-1.567-1.117-2.817-1.35-3.75v-0.05c-0.067-0.333-0.133-0.633-0.2-0.9c0-0.1-0.017-0.2-0.05-0.3h0.05
						c-0.867-6.2-1.167-12.434-0.9-18.7c0-0.033,0-0.067,0-0.1c0.033-0.167,0.067-0.333,0.1-0.5c0-0.467,0.067-0.933,0.2-1.4
						c0.066-0.233,0.117-0.433,0.15-0.6c0.066-0.467,0.183-0.917,0.35-1.35c0-0.066,0.017-0.117,0.05-0.15
						c0.033-0.233,0.067-0.45,0.1-0.65c0-0.033,0-0.067,0-0.1c0.033-0.467,0.066-0.933,0.1-1.4c0.033-0.2,0.05-0.4,0.05-0.6
						c0.133-0.9,0.267-1.783,0.4-2.65c0.1-0.4,0.217-0.783,0.35-1.15c0.133-0.333,0.233-0.7,0.3-1.1
						c0.034-0.167,0.083-0.333,0.15-0.5c0-0.067,0.017-0.15,0.05-0.25c0.033-0.067,0.05-0.15,0.05-0.25
						c0.034-0.367,0.017-0.683-0.05-0.95c-0.167,0.167-0.35,0.367-0.55,0.6c-0.7,0.767-1.067,1.3-1.1,1.6
						c-0.1,0.533-0.117,1.417-0.05,2.65c0.034,1.067-0.033,1.85-0.2,2.35c-0.867,2.333-1.383,4.2-1.55,5.6
						c-0.133,0.867-0.2,2.467-0.2,4.8c0,0.667,0.217,3.033,0.65,7.1c0.4,3.567,0.517,5.983,0.35,7.25
						c-0.267,1.8,0.35,3.783,1.85,5.95C59.183-72.45,60.35-70.917,60.95-69.95z M44.1-217.95c0.8-0.1,1.833-0.2,3.1-0.3
						c-0.4,0-0.784-0.017-1.15-0.05c-1.933-0.2-3.85-0.417-5.75-0.65c-1.767-0.167-3.5-0.35-5.2-0.55c0.967,1,2.217,1.6,3.75,1.8
						c0.833,0.2,1.617,0.4,2.35,0.6c1,0.333,1.933,0.7,2.8,1.1c-1.133-0.167-1.983-0.25-2.55-0.25c-0.1,0-0.383,0.017-0.85,0.05
						c-0.267-0.066-0.55-0.133-0.85-0.2c-6.233-1.333-10.633-2.267-13.2-2.8c-2.566-0.533-5.017-0.883-7.35-1.05
						c-2.633-0.2-4.333-0.383-5.1-0.55h-2.5v0.5c2.5,0.667,6.15,1.483,10.95,2.45c4.633,0.967,7.15,1.5,7.55,1.6
						c1.433,0.367,3.083,1.15,4.95,2.35c0.867,0.566,1.967,1.367,3.3,2.4c0.333,0.267,0.816,0.45,1.45,0.55
						c0.7,0.167,1.167,0.3,1.4,0.4c1.066,0.566,1.867,2.333,2.4,5.3c0.233,1.4,1.05,5.55,2.45,12.45
						c0.733,3.466,1.267,7.316,1.6,11.55c0.4,5.4,0.783,11.167,1.15,17.3c0.567,9.133,0.85,15.2,0.85,18.2
						c0,5.967-0.017,10.333-0.05,13.1c0,1.5-0.017,2.517-0.05,3.05c-0.167,5.633-0.667,9.233-1.5,10.8
						c1.333-0.3,2.567,0.05,3.7,1.05c0.967,0.867,1.633,1.983,2,3.35c-0.1,1.233-0.217,2.15-0.35,2.75c-0.1,0.5-0.217,1-0.35,1.5
						c-0.3,0.633-0.566,1.283-0.8,1.95c-0.2,0.667-0.517,1.383-0.95,2.15c-0.433,0.8-0.75,1.183-0.95,1.15
						c-0.2-0.033-0.3,0.233-0.3,0.8c0,0.6-0.033,1.017-0.1,1.25c-0.1,0.5-0.333,1.317-0.7,2.45c-0.033,0.133-0.067,0.267-0.1,0.4
						l-1.45,5.65c-0.333,0.5-0.633,1.017-0.9,1.55c-0.233,0.533-0.55,0.983-0.95,1.35c-0.2,0.167-0.4,0.317-0.6,0.45
						c-0.867,0.6-1.7,1.267-2.5,2c-0.233,0.233-0.483,0.483-0.75,0.75c-0.433,0.367-0.85,0.767-1.25,1.2
						c-0.233,0.2-0.433,0.417-0.6,0.65c-0.267,0.467-0.566,0.983-0.9,1.55c1.767-1.4,3.183-2.566,4.25-3.5
						c1.633-1.433,3.167-2.483,4.6-3.15c0.133-2,0.733-4.333,1.8-7c0.6-1.5,1.5-3.583,2.7-6.25c0.3,0.133,0.5,0.25,0.6,0.35
						c0.233,0.233,0.367,0.533,0.4,0.9h0.25c-0.067-0.733-0.033-1.483,0.1-2.25c0.133-0.8,0.35-1.467,0.65-2V-108l-0.75,0.75v-2
						c0.167-0.933,0.683-2.617,1.55-5.05c0.667-2.333,0.733-4.233,0.2-5.7v-3.5c0.367,0.167,0.767,0.433,1.2,0.8
						c0.2,0.167,0.633,0.567,1.3,1.2c-0.033-0.167-0.517-1.75-1.45-4.75c-0.6-1.933-0.867-3.933-0.8-6c0-0.133,0-0.267,0-0.4
						c0-1.5-0.05-3.417-0.15-5.75c-0.1-1.4-0.217-3.434-0.35-6.1v0.25c-0.333-0.067-0.617-0.2-0.85-0.4
						c-0.467-0.367-0.683-0.967-0.65-1.8c0.066-0.6,0.233-1.233,0.5-1.9c0-1.8,0-2.983,0-3.55c0-0.167,0-0.283,0-0.35
						c0.1-1.7,0.35-3.267,0.75-4.7v-1.7c-0.167,0-0.25,0.083-0.25,0.25c-0.533-0.067-0.85-0.35-0.95-0.85
						c-0.033-0.133-0.05-0.6-0.05-1.4c0-0.467,0.7-2.883,2.1-7.25c0.767-2.4,1.383-4.233,1.85-5.5c0-0.033,0-0.067,0-0.1
						c-0.1,0.067-0.2,0.133-0.3,0.2c-0.1,0.033-0.183,0.083-0.25,0.15c-0.6,0.267-0.833,0.283-0.7,0.05
						c-1.6,0.333-2.733,0.217-3.4-0.35c-1-0.9-1.5-1.75-1.5-2.55c0-0.233,0.25-1.683,0.75-4.35c0.5-2.633,0.75-5.233,0.75-7.8
						c0-2.033-0.25-4.05-0.75-6.05c-0.5-1.966-0.75-2.983-0.75-3.05c0-1.733,1-3.9,3-6.5c1.767-2.333,2.883-3.5,3.35-3.5
						c0.033,0,0.067,0,0.1,0c0.066-0.267,0.133-0.517,0.2-0.75c-0.667-0.033-1.216-0.033-1.65,0c-1.333,0.167-2.383,0.25-3.15,0.25
						c-1.367,0.033-2.4-0.217-3.1-0.75c-1.066-0.867-1.967-1.833-2.7-2.9c-0.733-1.233-1.317-2.167-1.75-2.8
						c-0.4-0.6-0.9-1.183-1.5-1.75c0.1,0.034,0.2,0.05,0.3,0.05c0.6,0.1,1.117,0.183,1.55,0.25c-0.3-0.3-0.617-0.517-0.95-0.65
						c-1-0.4-1.783-0.684-2.35-0.85c-0.4-0.133-0.7-0.2-0.9-0.2v-0.25c0.066,0,0.133-0.017,0.2-0.05
						C42.667-217.75,43.267-217.85,44.1-217.95z M59.35-156.7c0.533-10,0.8-16.2,0.8-18.6c0-0.6-0.083-1.3-0.25-2.1
						c-0.167-0.767-0.25-1.367-0.25-1.8c-0.233-0.367-0.4-1.017-0.5-1.95c-0.2-1.3-0.367-2.133-0.5-2.5H58.5v1.5
						c0.733,2.367,1.133,3.667,1.2,3.9c0.033,0.3,0.05,1.267,0.05,2.9c0,2-0.083,3.367-0.25,4.1c-0.1,0.4-0.333,0.967-0.7,1.7
						c-0.267,0.6-0.4,1.117-0.4,1.55c0,0.4-0.25,1.283-0.75,2.65c-0.5,1.333-0.75,2.167-0.75,2.5c0.133,0.333,0.25,0.617,0.35,0.85
						c0.033-0.233,0.1-0.45,0.2-0.65c0.167-0.3,0.483,0.867,0.95,3.5C58.467-147.483,58.783-146.667,59.35-156.7z M57.65-197.9
						c0.6,0,1.033,0.983,1.3,2.95c0.167,2.167,0.267,3.434,0.3,3.8c0.3,2.1,0.6,4.017,0.9,5.75c0.567,3.4,1.1,5.617,1.6,6.65v-1.9
						c-0.033-0.5-0.183-1.9-0.45-4.2c-0.1-1.133-0.15-2.183-0.15-3.15c0-0.267-0.15-1.183-0.45-2.75c-0.3-1.567-0.45-2.767-0.45-3.6
						c0.433-4.8,0.65-7.217,0.65-7.25c0-0.5-0.1-1.617-0.3-3.35c-0.233-1.733-0.35-2.85-0.35-3.35c-0.4,0.566-0.683,1.233-0.85,2
						c-0.2,1.033-0.367,1.716-0.5,2.05c-0.2,0.467-0.683,1.3-1.45,2.5l-1.05,1.65c0.3,0.767,0.517,1.667,0.65,2.7
						C57.217-197.733,57.417-197.9,57.65-197.9z"/>
					<path style="fill-rule:evenodd;clip-rule:evenodd;fill:#3B270F;" d="M47.2-218.25c-1.267,0.1-2.3,0.2-3.1,0.3
						c0.9,0.167,1.95,0.417,3.15,0.75c1.9,0.534,3.15,0.967,3.75,1.3c0.333,0.167,0.867,0.85,1.6,2.05
						c0.633,1.033,1.183,1.55,1.65,1.55c0.7,0,2.067-0.684,4.1-2.05c1.033-0.7,2.117-1.467,3.25-2.3c0.066,0,0.133,0,0.2,0
						c0.3,0,0.534,0,0.7,0c0.433-0.033,0.933-0.133,1.5-0.3c0.533-0.133,0.95-0.2,1.25-0.2c0.333,0,0.567,0.066,0.7,0.2
						c0.1,0.1,0.25,0.15,0.45,0.15c0.267,0,0.434-0.05,0.5-0.15l-0.35-0.2c0.267-0.533,1.25-0.967,2.95-1.3
						c0.833-0.167,2.033-0.316,3.6-0.45c-0.7-0.267-1.4-0.283-2.1-0.05c-0.3,0.1-0.6,0.184-0.9,0.25c-0.633,0.267-1.3,0.417-2,0.45
						c-0.133,0-0.283,0-0.45,0c-0.4-0.067-0.816-0.05-1.25,0.05c-0.3,0.4-0.783,0.583-1.45,0.55c-0.367,0.1-0.75,0.183-1.15,0.25
						c-0.533-0.067-1.117-0.067-1.75,0c-0.233,0.033-0.417,0.1-0.55,0.2c-0.133,0.034-0.267,0.083-0.4,0.15
						c-0.2,0.066-0.4,0.133-0.6,0.2c-0.3,0.1-0.6,0.167-0.9,0.2c-0.1,0.033-0.2,0.05-0.3,0.05c-1.033,0.033-2.066,0.05-3.1,0.05
						c-0.534,0.033-1.333,0.017-2.4-0.05c-0.367-0.1-0.733-0.2-1.1-0.3c-0.6-0.167-1.133-0.317-1.6-0.45
						c-0.5-0.167-0.934-0.3-1.3-0.4c-0.2-0.067-0.4-0.15-0.6-0.25c-0.067-0.067-0.133-0.133-0.2-0.2
						C48.4-218.233,47.8-218.25,47.2-218.25z M88.1-218.3c0.066-0.034,0.133-0.067,0.2-0.1c0.434-0.233,0.917-0.517,1.45-0.85
						c-0.633,0.1-1.3,0.217-2,0.35c-3.233,0.566-5.233,0.85-6,0.85c-2.367-0.267-4.2-0.35-5.5-0.25
						c-2.067,0.167-4.15,0.966-6.25,2.4c-1.167,0.233-2.05,0.4-2.65,0.5c-0.867-0.133-1.733-0.184-2.6-0.15c-0.067,0-0.117,0-0.15,0
						c-0.467-0.1-0.883-0.184-1.25-0.25c-0.067,0-0.15,0-0.25,0c-1.033,0.333-1.767,0.65-2.2,0.95c-0.667,0.4-1.316,1.067-1.95,2
						c0.167-0.1,0.383-0.217,0.65-0.35c-0.067,0.3-0.217,0.733-0.45,1.3v0.25c1.167-0.3,2.117-0.633,2.85-1
						c0.367-0.167,0.95-0.25,1.75-0.25c0.233,0,0.533,0,0.9,0c0.233,0.033,0.35,0.217,0.35,0.55c0,0.1-0.033,0.267-0.1,0.5
						c-0.1,0.233-0.15,0.4-0.15,0.5c0,0.2,0.05,0.333,0.15,0.4c0.1,0.1,0.283,0.15,0.55,0.15c0.667,0,1.25-0.217,1.75-0.65
						c0.633-0.6,1.283-1,1.95-1.2c0.3-0.1,0.917-0.3,1.85-0.6c0.8-0.367,1.217-0.883,1.25-1.55c0.333-0.3,0.8-0.55,1.4-0.75
						l0.05,0.15c0.033-0.067,0.066-0.133,0.1-0.2c0.434-0.133,0.917-0.25,1.45-0.35c0.8-0.167,1.933-0.367,3.4-0.6v-0.05
						c0.033-0.033,0.067-0.05,0.1-0.05c-0.167-0.267-0.333-0.483-0.5-0.65v-0.25C81.05-218.017,84.333-218.267,88.1-218.3z
						 M66.5-217.1v-0.05h0.05L66.5-217.1z"/>
				</g>
			</g>
		</g>
	</g>
</symbol>
<g>
	<g>
		<path style="fill-rule:evenodd;clip-rule:evenodd;fill-opacity:0.2;" d="M23.3,442.675c1.465,0.027,3.524,0.027,6.175,0
			c5.312-0.062,14.262-1.495,26.85-4.3c12.59-2.801,21.648-4.51,27.175-5.125H88l0.05,0.15c0.034,0.066,0.1,0.1,0.2,0.1
			c-0.633,0.533-1.667,1.134-3.1,1.8c-0.994,0.456-3.285,1.139-6.875,2.05c0.05-0.133,0.242-0.35,0.575-0.649
			c0.2-0.167,0.417-0.4,0.65-0.7c-13.501,2.334-24.501,4.292-33,5.875c-5.75,1.07-11.675,1.479-17.775,1.225
			c-1.15-0.039-2.309-0.105-3.475-0.199c-0.044-0.005-0.085-0.014-0.125-0.025L23.3,442.675z M142.4,437.475
			c1.851,0.185,3.134,0.326,3.85,0.426c0.934,0.199,1.767,0.483,2.5,0.85H135.5c-0.866-0.1-4.033-0.616-9.5-1.55
			c-2.767-0.467-6.934-0.7-12.5-0.7c-3.566,0-8.733,0.634-15.5,1.9c-6.767,1.233-12.6,1.85-17.5,1.85c-1.7,0-3.283-0.116-4.75-0.35
			c-1.467-0.267-2.383-0.4-2.75-0.4c-0.3,0-0.467,0.017-0.5,0.05L72,439.4c3.901,0.159,10.651-0.457,20.25-1.851
			c0.049-0.003,0.099-0.011,0.15-0.024c0.025,0.004,0.05,0.004,0.075,0c0.693-0.045,1.46-0.12,2.3-0.226
			c2.269-0.303,5.061-0.845,8.375-1.625c4.779-1.12,7.296-1.687,7.55-1.7c0.254-0.018,3.021,0.216,8.3,0.7
			c5.272,0.488,8.439,1.105,9.5,1.851c1.067,0.745,3.459,1.137,7.175,1.175c3.717,0.034,6.241,0.218,7.575,0.55h2V438
			C144.227,437.817,143.276,437.643,142.4,437.475z M179.95,439c0.313,0.096,0.729,0.212,1.25,0.35
			c1.133,0.367,1.816,0.75,2.05,1.15h-3c-4.467-0.967-7.267-1.517-8.4-1.65c-0.633-0.066-2.716-0.1-6.25-0.1
			c-6.3,0-11.899-0.616-16.8-1.85c-4.934-1.267-7.866-1.9-8.8-1.9c-0.267,0-0.7,0.083-1.3,0.25c-0.601,0.2-1,0.366-1.2,0.5
			l0.475,0.725c-0.145-0.044-0.286-0.086-0.425-0.125c-3.166-0.866-5.35-2.149-6.55-3.85c0.833,0,1.95-0.083,3.35-0.25
			c1.467,0,5.051,0.917,10.75,2.75c5.7,1.833,10.117,2.75,13.25,2.75c2.834,0,5.634-0.116,8.4-0.35c2.333,0,5.917,0.533,10.75,1.6
			H179.95z"/>
		<path style="fill-rule:evenodd;clip-rule:evenodd;fill-opacity:0.451;" d="M179.95,439h-2.45c-4.833-1.066-8.417-1.6-10.75-1.6
			c-2.767,0.233-5.566,0.35-8.4,0.35c-3.133,0-7.55-0.917-13.25-2.75c-5.699-1.833-9.283-2.75-10.75-2.75
			c-1.399,0.167-2.517,0.25-3.35,0.25c1.2,1.7,3.384,2.983,6.55,3.85c0.139,0.039,0.28,0.081,0.425,0.125
			c0.676,0.176,1.45,0.359,2.325,0.551c0.645,0.148,1.345,0.298,2.101,0.449c0.876,0.168,1.826,0.343,2.85,0.525v0.25h-2
			c-1.334-0.332-3.858-0.516-7.575-0.55c-3.716-0.038-6.107-0.43-7.175-1.175c-1.061-0.745-4.228-1.362-9.5-1.851
			c-5.279-0.484-8.046-0.718-8.3-0.7c-0.254,0.014-2.771,0.58-7.55,1.7c-3.314,0.78-6.106,1.322-8.375,1.625
			c-0.84,0.105-1.606,0.181-2.3,0.226c-0.025,0.004-0.05,0.004-0.075,0c-0.051,0.014-0.101,0.021-0.15,0.024
			c-9.599,1.394-16.349,2.01-20.25,1.851c-0.667-0.028-1.251-0.078-1.75-0.15c0.246-0.056,0.488-0.114,0.725-0.175
			c2.845-0.646,5.278-1.221,7.3-1.726c3.59-0.911,5.881-1.594,6.875-2.05c1.434-0.666,2.467-1.267,3.1-1.8
			c-0.1,0-0.167-0.033-0.2-0.1L88,433.25h-4.5c-5.527,0.615-14.585,2.324-27.175,5.125c-12.588,2.805-21.539,4.238-26.85,4.3
			c-2.651,0.027-4.71,0.027-6.175,0l-1.85-0.2c-0.231-0.024-0.465-0.049-0.7-0.074V442c7.767-1.5,13.683-2.5,17.75-3
			c3.533-0.467,8.85-1.6,15.95-3.4c3.18-0.831,5.872-1.48,8.075-1.949c1.249-0.267,2.34-0.475,3.275-0.625
			c0.772-0.122,1.439-0.205,2-0.25c0.068-0.013,0.135-0.021,0.2-0.025c5.13-0.654,13.581-1.654,25.35-3
			c18.766-2.167,29.067-3.25,30.9-3.25c0.9,0,2.434,0.033,4.6,0.1c3.167,0.101,5.801,0.233,7.9,0.4c2.2,0.134,3.95,0.517,5.25,1.15
			c0.733,0.366,1.65,0.899,2.75,1.6c1.5,0.667,3.783,1.583,6.85,2.75c4.2,1.634,6.584,2.384,7.15,2.25
			c4.479-1.023,11.338,0.243,20.575,3.8C179.365,438.737,179.573,438.888,179.95,439z M20.75,442.5v-0.075
			c0.646,0.084,1.288,0.159,1.925,0.226C21.604,442.622,20.962,442.572,20.75,442.5z"/>
	</g>
</g>
<use xlink:href="#blue_x5F_tree_x5F_06"  width="94.262" height="220.8" y="-220.8" transform="matrix(2 0 0 -2 0 0)" style="overflow:visible;"/>
</svg>
