<?xml version="1.0" encoding="iso-8859-1"?>
<!-- Generator: Adobe Illustrator 16.0.0, SVG Export Plug-In . SVG Version: 6.00 Build 0)  -->
<!DOCTYPE svg PUBLIC "-//W3C//DTD SVG 1.1//EN" "http://www.w3.org/Graphics/SVG/1.1/DTD/svg11.dtd">
<svg version="1.1" id="Layer_1" xmlns="http://www.w3.org/2000/svg" xmlns:xlink="http://www.w3.org/1999/xlink" x="0px" y="0px"
	 width="253px" height="334px" viewBox="0 0 253 334" style="enable-background:new 0 0 253 334;" xml:space="preserve">
<symbol  id="redtree_x5F_cluster_x5F_02" viewBox="0 -165.95 124.874 165.95">
	<g id="Layer_3_1_">
		<g>
			<path style="fill-rule:evenodd;clip-rule:evenodd;fill:#26211A;" d="M35.75-95.6c0.067-0.5,0.133-0.75,0.2-0.75
				c0.066-0.233,0.133-0.5,0.2-0.8c0.367-1.434,0.617-2.667,0.75-3.7c0.067-0.566,0.1-1.066,0.1-1.5c0-0.133,0-0.267,0-0.4v-0.05
				c0.067-0.467,0.1-0.9,0.1-1.3c0-0.1,0.017-0.4,0.05-0.9c-0.1-0.2-0.233-0.883-0.4-2.05c-0.067-0.567-0.15-1.2-0.25-1.9
				c0.367-0.733,0.667-1.433,0.9-2.1c0.133-0.5,0.267-0.967,0.4-1.4c0.133-0.5,0.267-0.983,0.4-1.45c0.1-0.3,0.2-0.617,0.3-0.95
				c0.167-0.5,0.283-1.017,0.35-1.55c0.367,0.566,0.683,1.05,0.95,1.45c0.434,0.6,0.8,1.167,1.1,1.7
				c0.067,0.1,0.117,0.217,0.15,0.35c-0.1,1.1-0.233,2.267-0.4,3.5c-0.267,2.7-0.467,4.983-0.6,6.85
				c-0.133,1.5-0.216,2.733-0.25,3.7c0.4-1.633,0.617-3.083,0.65-4.35c0.066-1.733,0.333-3.183,0.8-4.35
				c0.333,0.033,0.683,0.233,1.05,0.6c0.434,0.367,0.9,0.917,1.4,1.65c0.3,0.466,0.55,0.867,0.75,1.2c-0.133-0.3-0.233-0.633-0.3-1
				c-0.2-0.3-0.367-0.6-0.5-0.9c-0.5-0.867-1.3-1.75-2.4-2.65l-0.05-1.05c0.2-0.867,0.45-1.867,0.75-3c0.1,0,0.183,0.034,0.25,0.1
				c0.066,0,0.316,0.083,0.75,0.25c0.4,0.2,1,0.517,1.8,0.95c0.733,0.4,0.533,0.217-0.6-0.55c-1.167-0.733-1.783-1.1-1.85-1.1
				c-0.066-0.067-0.133-0.117-0.2-0.15c-0.233-0.3-0.517-0.7-0.85-1.2c-0.233-0.5-0.5-1.283-0.8-2.35
				c-0.333-1.067-0.483-3.183-0.45-6.35c0.1-1.467,0.267-2.933,0.5-4.4c0.467-3.4,0.767-6.2,0.9-8.4c1.5,1.7,2.717,5.483,3.65,11.35
				c0.067,0.5,0.133,0.95,0.2,1.35c0,0.067-0.033,0.6-0.1,1.6c-0.066,1-0.083,3.267-0.05,6.8l0.35-3.35
				c0.566,1.267,0.95,2.117,1.15,2.55c0.433,1.1,0.65,1.883,0.65,2.35c0,0.2-0.017,0.783-0.05,1.75
				c-0.034,0.367-0.05,0.667-0.05,0.9c0.2-0.767,0.3-1.933,0.3-3.5c0-0.333-0.333-1.5-1-3.5c-0.367-1.033-0.633-1.833-0.8-2.4
				l0.35-2.9c-0.033-0.167-0.067-0.333-0.1-0.5c-0.066-1.067-0.183-2.167-0.35-3.3c-0.066-0.333-0.367-1.8-0.9-4.4
				c-0.033,0-0.05-0.033-0.05-0.1c-0.067-0.167-0.1-0.333-0.1-0.5v-0.05c-0.033,0-0.05-0.017-0.05-0.05
				c1.667,1.267,3.05,2.75,4.15,4.45c0.133,0.267,0.283,0.517,0.45,0.75c0,0.267-0.017,0.55-0.05,0.85c0,0.333-0.017,0.65-0.05,0.95
				c0.066,0.233,0.05,0.433-0.05,0.6c0,0.667,0,1.267,0,1.8v0.05c0,0.233,0,0.434,0,0.6c0,0.067,0.05,1.083,0.15,3.05
				c0-0.167,0.017-0.35,0.05-0.55c0.133-1.833,0.2-2.867,0.2-3.1v-0.05c0.1-0.733,0.184-1.4,0.25-2c0.034-0.367,0.1-0.717,0.2-1.05
				c0.167,0.333,0.333,0.684,0.5,1.05c0.567,1.1,0.9,1.933,1,2.5c-0.033,0.967-0.15,1.683-0.35,2.15c-0.233,0.467-0.4,0.967-0.5,1.5
				c-0.233,1.167-0.333,2.367-0.3,3.6c-0.033,0-0.033,0.05,0,0.15c0,0.333,0.033,0.683,0.1,1.05c0.1,1.767,0.283,3.5,0.55,5.2
				c0.2,0.967,0.417,1.967,0.65,3c0.367,1.467,0.767,2.967,1.2,4.5c0.1,0.433,0.2,0.85,0.3,1.25c-0.267-1.3-0.617-3.267-1.05-5.9
				c-0.133-0.833-0.267-1.717-0.4-2.65c0.333,0.033,0.966,0.183,1.9,0.45c0.367,0.1,0.816,0.4,1.35,0.9
				c0.7,0.667,1.517,1.65,2.45,2.95c0.133,0.133,0.267,0.3,0.4,0.5c-0.633-1.3-1.083-2.117-1.35-2.45
				c-0.3-0.267-0.733-0.716-1.3-1.35c-0.566-0.567-1.017-0.95-1.35-1.15c-0.333-0.167-0.966-0.45-1.9-0.85
				c-0.133-0.067-0.25-0.117-0.35-0.15c-0.2-0.833-0.35-2.066-0.45-3.7c-0.2-1.867-0.1-3.45,0.3-4.75
				c0.4-1.267,0.667-2.083,0.8-2.45c0.167,0.7,0.333,1.417,0.5,2.15l0.45,1.9l-0.3-1.6c0.033,0.167,0.2,0.9,0.5,2.2
				c0.3,1.467,0.367,1.733,0.2,0.8c-0.133-0.934-0.333-2.283-0.6-4.05c-0.233-1.633-0.534-3.083-0.9-4.35
				c-0.033-0.1-0.066-0.217-0.1-0.35c0.767,0.133,1.15,0.233,1.15,0.3c0,0.067,0.5,0.217,1.5,0.45s2.283,1.083,3.85,2.55
				c0.167-0.066,1.316,2.367,3.45,7.3c-1.533-4.667-2.433-7.2-2.7-7.6c-0.233-0.367-0.417-0.617-0.55-0.75
				c-0.233-0.4-0.933-0.934-2.1-1.6l-1.55-0.8c-1.033-0.267-2.25-0.75-3.65-1.45c-0.167-0.6-0.35-1.117-0.55-1.55
				c-0.2-0.434-0.45-1.067-0.75-1.9c-0.733-0.833-1.517-1.65-2.35-2.45c-0.833-0.767-1.517-1.434-2.05-2
				c-0.533-0.567-0.833-0.967-0.9-1.2c-0.167-0.133-0.267-0.316-0.3-0.55c-0.7-2.434-1.3-4.6-1.8-6.5c-0.433-1.1-0.8-2.083-1.1-2.95
				c-0.133-0.3-0.25-0.583-0.35-0.85c-0.167-1.767-0.3-4.35-0.4-7.75c-0.033-3.6,0.434-6.7,1.4-9.3c0.7-1.033,1.333-1.583,1.9-1.65
				c0.1-0.033,0.183-0.05,0.25-0.05c0.7-0.2,1.45-0.283,2.25-0.25c0.367,0.034,0.717,0.1,1.05,0.2c0.067,0,0.133,0,0.2,0
				c0.5,0.033,0.967-0.05,1.4-0.25c0.867-0.367,1.8-0.55,2.8-0.55c-0.066-0.2-0.25-0.284-0.55-0.25c-0.4,0.033-0.817,0.05-1.25,0.05
				c-0.1,0-0.183-0.017-0.25-0.05c-0.3-0.067-0.683-0.083-1.15-0.05c-0.067,0-0.133,0.017-0.2,0.05
				c-0.233,0.167-0.533,0.25-0.9,0.25c-0.1,0-0.167,0.017-0.2,0.05c-0.133,0.033-0.283,0.05-0.45,0.05
				c-0.434-0.066-0.883-0.133-1.35-0.2c-0.1-0.033-0.183-0.05-0.25-0.05c-0.533-0.1-1.033-0.2-1.5-0.3
				c-0.267-0.033-0.517-0.033-0.75,0c0.033-0.067,0.067-0.15,0.1-0.25c-0.434,0.1-1.017,0.183-1.75,0.25c-0.067,0-0.133,0-0.2,0
				c-0.2-0.067-0.383-0.1-0.55-0.1c-1.434,0-2.55-0.15-3.35-0.45c-0.8-0.267-1.367-0.4-1.7-0.4c-0.3,0-0.533,0.034-0.7,0.1
				c0.167,0.067,0.833,0.283,2,0.65c0.633,0.3,1.083,0.583,1.35,0.85c0,0.167,0,0.35,0,0.55c-0.2,0-0.4,0-0.6,0
				c-0.067,0-0.133,0-0.2,0c-0.1,0.033-0.2,0.066-0.3,0.1c-0.733,0.067-1.434,0.05-2.1-0.05c-0.1-0.033-0.183-0.05-0.25-0.05
				c-0.367-0.133-0.7-0.317-1-0.55c-0.2-0.167-0.45-0.267-0.75-0.3c-0.3,0-0.6-0.017-0.9-0.05c-0.1,0-0.217,0-0.35,0
				c-0.333-0.033-0.667-0.033-1,0c-0.967,0.034-1.85-0.033-2.65-0.2c-0.067,0-0.133-0.017-0.2-0.05c-0.3-0.1-0.633-0.2-1-0.3
				c-0.367-0.067-0.75-0.083-1.15-0.05c-0.1,0-0.183,0.017-0.25,0.05s-0.15,0.05-0.25,0.05c-0.067,0-0.15,0-0.25,0
				c0,0.067,0.017,0.1,0.05,0.1c0.267,0.067,0.534,0.133,0.8,0.2c0.633,0.1,1.217,0.183,1.75,0.25c0.1,0.033,0.183,0.066,0.25,0.1
				c0.1,0,0.167,0.017,0.2,0.05c0.133,0.1,0.367,0.15,0.7,0.15c0.067,0,0.133,0,0.2,0c0.1,0.067,0.283,0.1,0.55,0.1
				c0.4-0.033,0.767-0.017,1.1,0.05c0.267,0.067,0.533,0.117,0.8,0.15c0.8,0.133,1.5,0.333,2.1,0.6c0.033,0.034,0.067,0.05,0.1,0.05
				c0.633,0.267,1.183,0.617,1.65,1.05c0.033,0.033,0.05,0.067,0.05,0.1c0.034,0.133,0.133,0.2,0.3,0.2
				c0.267,0,0.483,0.033,0.65,0.1c0.333,0.167,0.65,0.4,0.95,0.7c0.066,0.067,0.133,0.117,0.2,0.15c0.067,0.033,0.133,0.333,0.2,0.9
				c-0.367,1.833-0.55,3.75-0.55,5.75c0,1.067,0.167,2.817,0.5,5.25c0.333,2.067,0.55,3.767,0.65,5.1c0,0.2,0.017,0.4,0.05,0.6
				c0.033,0.633,0.05,1.417,0.05,2.35c0.034,1.5,0.05,3.267,0.05,5.3c0,2.367-0.033,4.2-0.1,5.5c-0.1,0.8-0.183,1.4-0.25,1.8
				c-0.1,0.433-0.2,0.867-0.3,1.3c-0.833,0.4-1.733,0.883-2.7,1.45h0.1c-2.733,1.4-4.383,2.2-4.95,2.4
				c-1.267,1.3-2.316,2.367-3.15,3.2c-1.133,1.167-2.4,2.833-3.8,5c-0.4,0.7-1.034,3.483-1.9,8.35c1.2-5.233,2.35-8.583,3.45-10.05
				c1.433-1.934,2.733-3.117,3.9-3.55c0.067-0.033,0.133-0.066,0.2-0.1c0.1,0,0.15,0.1,0.15,0.3c0,0.867-0.55,1.933-1.65,3.2
				c-1.067,1.233-1.883,2.233-2.45,3c0.5-0.567,1-1.1,1.5-1.6c0.267-0.267,0.633-0.583,1.1-0.95c0.267,0.4,0.4,0.833,0.4,1.3
				c0,0.533-0.083,1.066-0.25,1.6c-0.033,0.133-0.083,0.284-0.15,0.45c0.2-0.4,0.4-0.75,0.6-1.05c0.2-0.233,0.3-0.817,0.3-1.75
				c0-0.233-0.033-0.517-0.1-0.85l2.8-4.9c0.967-0.633,1.6-1.05,1.9-1.25c0.767-0.434,1.75-0.7,2.95-0.8
				c0.167,0,0.316-0.017,0.45-0.05c0.533-0.033,1.083-0.067,1.65-0.1c0-0.033,0.067-0.033,0.2,0c-0.033,0.233-0.067,0.467-0.1,0.7
				c0,0.1,0,0.2,0,0.3c-0.066,0.9-0.117,1.817-0.15,2.75c-0.233,1.833-0.383,2.833-0.45,3c-0.1,0.533-0.2,1.083-0.3,1.65
				c-0.3,1.033-0.55,2-0.75,2.9c-0.067,0.1-0.117,0.217-0.15,0.35c-0.033,0.067-0.1,0.1-0.2,0.1c-0.433,0.267-1.183,0.667-2.25,1.2
				c-0.633,0.333-1.217,0.65-1.75,0.95c-1.3,0.733-2.483,1.483-3.55,2.25c-2.867,1.967-5.117,4.017-6.75,6.15
				c-0.533,0.633-0.983,1.267-1.35,1.9c0.633-0.733,1.217-1.367,1.75-1.9c1.567-1.667,3-2.917,4.3-3.75c0,0.6-0.133,1.3-0.4,2.1
				c-0.267,0.6-0.733,1.633-1.4,3.1c-0.233,0.5-0.55,1.3-0.95,2.4c-0.033,0.1-0.066,0.233-0.1,0.4c0.566-1.2,1.2-2.55,1.9-4.05
				c0.7-1.433,1.25-2.633,1.65-3.6c0.2-0.433,0.367-0.8,0.5-1.1c2.167-1.7,4.017-2.933,5.55-3.7c1.5-0.733,2.434-1.1,2.8-1.1
				c-0.4,0.967-0.733,1.75-1,2.35c-0.033,0.167-0.267,0.767-0.7,1.8c-0.467,1.033-0.917,1.867-1.35,2.5
				c-0.367,0.5-0.833,1.067-1.4,1.7c-0.066,0.033-0.133,0.1-0.2,0.2c-0.1,0.067-0.2,0.167-0.3,0.3c-0.867,0.867-1.267,1.3-1.2,1.3
				H30c0.2-0.133,0.667-0.566,1.4-1.3c0.967-0.9,1.467-1.35,1.5-1.35v-0.05c1.033-1.267,1.917-2.483,2.65-3.65l0.05,0.05
				c0.033,0.033,0.066,0.066,0.1,0.1c0.167,0.233,0.316,0.566,0.45,1c0.1,0.333,0.167,0.583,0.2,0.75c0.1,0.267,0.15,0.767,0.15,1.5
				l-0.05,1.2c-0.067,0.1-0.117,0.15-0.15,0.15c-0.533,0.434-1.216,1.217-2.05,2.35c-1.233,1.5-2.183,3.167-2.85,5
				c0.867-1.566,1.567-2.7,2.1-3.4c0.833-1.1,1.817-2.167,2.95-3.2c0.1,0.833,0.117,1.517,0.05,2.05c-0.1,0.6-0.217,1.233-0.35,1.9
				C35.95-97.05,35.817-96.333,35.75-95.6z"/>
		</g>
		<g>
			<path style="fill-rule:evenodd;clip-rule:evenodd;fill:#492A31;" d="M102.5-16.3c0.233,0.167,0.433,0.333,0.6,0.5
				c0.1-0.1,0.267-0.284,0.5-0.55c0.767-0.933,0.733-1.833-0.1-2.7c1.267,0.8,1.7,0.2,1.3-1.8c0.633-1,0.917-2.167,0.85-3.5
				c0-0.167,0.1-0.333,0.3-0.5c0.833-0.7,1.117-1.183,0.85-1.45c0.133-0.8,0.6-1.083,1.4-0.85c0.066-0.633-0.284-1.017-1.05-1.15
				c-0.033,0-0.033-0.184,0-0.55c0.367-2.5-0.367-4.017-2.2-4.55c-0.1-0.033-0.15-0.233-0.15-0.6c0-1.3-0.267-2.333-0.8-3.1
				c0.133-0.967,0.083-1.8-0.15-2.5c-0.1-0.433-0.333-0.767-0.7-1c-0.2-0.667-0.433-1.333-0.7-2l0.05-0.05
				c1.2-1.067,1.733-1.684,1.6-1.85c-0.1-0.233-0.133-0.55-0.1-0.95c0.267-2-0.033-3.517-0.9-4.55c-0.767,0.2-1.533,0.4-2.3,0.6
				c0,0.5-0.167,0.167-0.5-1c-0.033-0.1-0.2-0.233-0.5-0.4c-0.466-0.233-0.7-0.733-0.7-1.5c0-0.567,0-1.133,0-1.7
				c-1.633,1.233-2.934,1.217-3.9-0.05c-0.233-0.333-0.5-0.65-0.8-0.95c-0.667-0.733-1.55-0.917-2.65-0.55
				c-0.867-0.567-1.767-1.083-2.7-1.55c0.267-0.533,0.75-0.9,1.45-1.1c0.233-0.033,0.383-0.167,0.45-0.4
				c0.3-0.8,0.667-0.883,1.1-0.25c0.133,0.2,0.367,0.233,0.7,0.1c0.233-0.067,0.433-0.2,0.6-0.4c0.233-0.367,0.433-0.75,0.6-1.15
				c0.733,1.4,2.117,1.683,4.15,0.85c0.933-0.433,1.3-0.133,1.1,0.9c-0.333,1.6,0.367,2.117,2.1,1.55
				c0.233-0.1,0.467-0.183,0.7-0.25c0.367-0.1,0.733-0.15,1.1-0.15c0.167,0.8,0.133,1.517-0.1,2.15c0.167-0.2,0.333-0.4,0.5-0.6
				c0.4,0.5,0.867,1.283,1.4,2.35c0.367,0.7,0.934,1.467,1.7,2.3c0.6,0.667,1.517,0.983,2.75,0.95c0.2,0,0.367-0.117,0.5-0.35
				c1.233,0,2.083,0.35,2.55,1.05c0.067-0.667,0.017-1.383-0.15-2.15c1.633,0.067,2.967,0.383,4,0.95
				c-1.567-0.933-1.533-1.75,0.1-2.45c0.3-0.133,0.566-0.3,0.8-0.5c0.333-0.2,0.65-0.4,0.95-0.6c0.267-0.167,0.6-0.25,1-0.25
				c-0.4-0.4-0.55-0.784-0.45-1.15c0.1-0.4,0.3-0.733,0.6-1c0.3-0.3,0.6-0.566,0.9-0.8c0.6-0.5,1.233-0.983,1.9-1.45
				c0.6-0.433,0.917-0.883,0.95-1.35c0.067-1.3-0.083-2.567-0.45-3.8c-0.033-0.1-0.25-0.15-0.65-0.15
				c0.4-0.567,0.883-1.083,1.45-1.55c0.2-0.133,0.283-0.383,0.25-0.75c-0.2-1.934,0.083-3.4,0.85-4.4
				c0.4-0.533,0.517-1.15,0.35-1.85c-1.3,0.333-2.066-0.017-2.3-1.05c-0.167-0.233-0.3-0.45-0.4-0.65c-0.033-0.6-0.1-1.217-0.2-1.85
				c0.067-0.467,0.184-0.85,0.35-1.15c0.367-0.667,0.617-1.4,0.75-2.2c0.133-1.033,0.05-1.833-0.25-2.4
				c-0.167-0.267-0.25-0.6-0.25-1c0.067-0.633-0.333-0.917-1.2-0.85c-0.267-1.233-0.716-2.183-1.35-2.85
				c-0.167-0.167-0.434-0.317-0.8-0.45c-0.7-0.2-1.017-0.917-0.95-2.15c0.033-0.167,0-0.367-0.1-0.6
				c-0.1-0.533-0.184-1.083-0.25-1.65c-0.067-0.633-0.617-0.934-1.65-0.9c-0.367-0.934-0.617-1.767-0.75-2.5
				c-0.034-0.233-0.167-0.35-0.4-0.35c-1-0.167-1.883-0.184-2.65-0.05c-0.566-0.8-1.383-1.617-2.45-2.45
				c-1.233-0.934-2.633-1.9-4.2-2.9v0.75h-0.5c-0.133-0.1-0.583-0.267-1.35-0.5c-0.6-0.167-0.9-0.5-0.9-1
				c0.267-0.067,0.517-0.217,0.75-0.45c0.3-0.3,0.467-0.65,0.5-1.05c-0.1,0-0.167-0.034-0.2-0.1c-0.033-0.067-0.05-0.117-0.05-0.15
				h-1.75c-0.9,0.5-1.483,0.833-1.75,1l-0.75-1.25v0.5c-1.267-1.167-2.183-1.833-2.75-2v0.25c0.5,0.466,0.75,0.966,0.75,1.5
				c0,0.233-0.033,0.45-0.1,0.65c-0.1,0.2-0.15,0.316-0.15,0.35H97c0-0.2-0.05-0.4-0.15-0.6c-0.067-0.133-0.184-0.35-0.35-0.65
				c-0.067,0.5-0.483,1-1.25,1.5c-0.067-0.067-0.133-0.184-0.2-0.35c-0.1-0.1-0.283-0.15-0.55-0.15c-0.433,0-0.733,0.133-0.9,0.4
				c-0.133,0.233-0.367,0.35-0.7,0.35c-0.2,0-0.583-0.083-1.15-0.25c-0.533-0.167-0.9-0.25-1.1-0.25c-0.194,0-0.311,0-0.35,0
				c0.133,0.002,0.2,0.169,0.2,0.5c-0.467,0.066-0.8,0.033-1-0.1c-0.167-0.067-0.5-0.283-1-0.65c0,0.333-0.133,0.683-0.4,1.05
				c-0.233,0.3-0.383,0.45-0.45,0.45c-0.566,0-1-0.15-1.3-0.45c-0.167-0.2-0.533-0.633-1.1-1.3c0.333,0,0.5-0.25,0.5-0.75
				c0-0.4-0.083-0.567-0.25-0.5h-1.25c0.2-0.9-0.2-1.467-1.2-1.7c-1.133-0.267-1.733-0.7-1.8-1.3c-0.033-0.567-0.4-1.317-1.1-2.25
				c-0.433-0.667-0.9-1.25-1.4-1.75c-0.333,0.333-0.5,0.75-0.5,1.25c-0.467-0.1-0.867-0.383-1.2-0.85
				c-0.333-0.434-0.517-0.9-0.55-1.4c-0.433-0.034-0.883,0.083-1.35,0.35c-0.5,0.267-0.883,0.4-1.15,0.4
				c-0.367-0.867-1.5-1.434-3.4-1.7c-2.267-0.367-3.717-0.8-4.35-1.3c0,0.233-0.167,0.55-0.5,0.95c-0.3,0.367-0.5,0.55-0.6,0.55
				c-0.2,0-0.383-0.083-0.55-0.25c-0.033-0.034-0.15-0.2-0.35-0.5c-0.233,0.233-0.75,0.466-1.55,0.7c-0.767,0.2-1.333,0.3-1.7,0.3
				c-0.233,0-0.383-0.017-0.45-0.05c-0.167-0.1-0.35-0.333-0.55-0.7c0.367-0.2,0.7-0.45,1-0.75c0.467-0.467,0.717-0.717,0.75-0.75
				c-0.667,0-1.5,0.167-2.5,0.5c-0.167-0.333-0.25-0.917-0.25-1.75c-1.033,0.4-1.75,0.216-2.15-0.55c-0.5-1-1.2-1.566-2.1-1.7
				c0,0.533-0.25,0.95-0.75,1.25c-0.2-0.3-0.517-0.5-0.95-0.6c-0.466-0.067-0.9-0.283-1.3-0.65c-0.233-0.2-0.717-0.383-1.45-0.55
				c-0.7-0.2-1.216-0.267-1.55-0.2c0.233-0.967-0.017-1.617-0.75-1.95c-0.4-0.2-1.15-0.3-2.25-0.3v0.75
				c-1.033-0.267-1.8-0.534-2.3-0.8c-0.934-0.433-1.333-1.083-1.2-1.95L42-123.05v1.25c-0.633,0-1.217,0.133-1.75,0.4
				c-0.567,0.233-0.9,0.35-1,0.35c-0.267,0-0.483-0.05-0.65-0.15c0-0.033-0.117-0.15-0.35-0.35c-0.033,0.3-0.2,0.517-0.5,0.65
				c-0.267,0.133-0.517,0.167-0.75,0.1c0-0.067-0.033-0.15-0.1-0.25c-0.054-0.027-0.087-0.069-0.1-0.125
				c0.057,0.558-0.126,1.016-0.55,1.375c0,0.333-0.033,0.683-0.1,1.05c-0.566-0.067-1.15-0.083-1.75-0.05
				c-0.2,0-0.333,0.05-0.4,0.15c-0.1,0.1-0.183,0.217-0.25,0.35c-0.267,0.6-0.95,0.8-2.05,0.6c-0.167-0.033-0.3,0-0.4,0.1
				c-0.233,0.267-0.533,0.5-0.9,0.7c-0.1,0.066-0.167,0.15-0.2,0.25c-0.3,0.6-0.767,0.883-1.4,0.85c-0.433-0.067-0.933,0-1.5,0.2
				c0,0.934-0.4,1.533-1.2,1.8c-0.167,0.033-0.25,0.066-0.25,0.1c-0.1,0.9-0.633,1.317-1.6,1.25c-0.733-0.1-0.983,0.267-0.75,1.1
				c0.1,0.367,0,0.533-0.3,0.5c-0.367-0.1-0.583,0-0.65,0.3c0,0.167-0.083,0.3-0.25,0.4c-0.3,0.267-0.55,0.55-0.75,0.85
				c-0.367,0.533-0.966,0.933-1.8,1.2c-0.2,0.067-0.383,0.1-0.55,0.1l-0.8,0.1c0.133,0.267,0.383,0.55,0.75,0.85
				c0.333,0.233,0.517,0.583,0.55,1.05c0.033,0.167,0,0.317-0.1,0.45s-0.233,0.2-0.4,0.2c-1.367-0.066-1.9,0.6-1.6,2
				c-0.167,0-0.267-0.033-0.3-0.1c-0.133-0.2-0.383-0.25-0.75-0.15c0.1,0.067,0.15,0.15,0.15,0.25c0.066,0.167,0.133,0.283,0.2,0.35
				c0.333,0.167,0.483,0.5,0.45,1c-0.267,0-0.533,0-0.8,0c-0.2,0-0.333-0.05-0.4-0.15c-0.3-0.4-0.7-0.717-1.2-0.95
				c0,0.1,0,0.184,0,0.25c0.033,1.267,0.483,2.35,1.35,3.25c-0.1,0-0.2,0.017-0.3,0.05c-0.1,0.033-0.183,0.033-0.25,0
				c-0.733-0.067-1.1,0.167-1.1,0.7c0,0.2,0.05,0.333,0.15,0.4c0.233,0.3,0.367,0.7,0.4,1.2c-0.267,0-0.534,0.017-0.8,0.05
				c-0.433,0.034-0.683,0.2-0.75,0.5c-0.066,0.767,0.1,1.3,0.5,1.6c0.4,0.333,0.8,0.3,1.2-0.1c0.233,0.467,0.717,0.717,1.45,0.75
				c0.1,0,0.2,0.034,0.3,0.1c0.233,0.133,0.45,0.267,0.65,0.4c0.4,0.333,0.883,0.483,1.45,0.45c0.767-0.133,1.183,0.05,1.25,0.55
				c0.033,0.233,0.1,0.483,0.2,0.75c0.033,0.1,0.067,0.2,0.1,0.3c0.133,0.167,0.217,0.3,0.25,0.4c0.133,0.333-0.033,0.55-0.5,0.65
				c-0.333,0.1-0.617,0.267-0.85,0.5c-0.367,0.3-0.367,0.6,0,0.9c0.533,0.367,1.167,0.717,1.9,1.05c0.1,0.066,0.15,0.15,0.15,0.25
				c0,0.167,0.033,0.333,0.1,0.5c0.067,0.4,0.35,0.667,0.85,0.8c-0.066,0.1-0.15,0.2-0.25,0.3c-0.1,0.167-0.2,0.333-0.3,0.5
				c0.433,0.233,0.867,0.533,1.3,0.9c0.133,0.133,0.217,0.283,0.25,0.45c0,0.467,0.133,0.784,0.4,0.95
				c0.3,0.233,0.55,0.533,0.75,0.9c-0.6-0.033-0.833,0.317-0.7,1.05c-0.067,0.2-0.267,0.25-0.6,0.15c-0.6-0.1-1.283-0.05-2.05,0.15
				c0.033,0.467-0.167,0.617-0.6,0.45c-0.1-0.067-0.217-0.1-0.35-0.1c-0.167-0.067-0.333-0.117-0.5-0.15c-0.1-0.067-0.2-0.1-0.3-0.1
				c-0.8-0.2-1.15,0.117-1.05,0.95c0,0.167-0.017,0.267-0.05,0.3c-0.434,0.133-0.75,0.316-0.95,0.55c-0.133,0.133-0.2,0.3-0.2,0.5
				c-0.034,0.167-0.1,0.3-0.2,0.4c-0.1,0.067-0.25,0.083-0.45,0.05c-0.267-0.033-0.533-0.083-0.8-0.15
				c-1.1-0.167-1.85,0.05-2.25,0.65c-0.167,0.333-0.4,0.633-0.7,0.9c-0.066,0.067-0.133,0.1-0.2,0.1
				c-0.633-0.067-1.017,0.217-1.15,0.85c-0.767,0.167-1.367,0.117-1.8-0.15c0.167,0.8,0,1.35-0.5,1.65
				c-0.233,0.133-0.483,0.216-0.75,0.25c-0.233,0.533-0.633,0.783-1.2,0.75c-0.167,0-0.25,0.017-0.25,0.05
				c-0.1,1.233-0.517,2.033-1.25,2.4c-0.133,0.067-0.2,0.15-0.2,0.25c-0.167,1.033-0.467,2-0.9,2.9c-0.1,0.167-0.217,0.3-0.35,0.4
				c-0.133,0.1-0.25,0.183-0.35,0.25c-0.167,0.267-0.283,0.583-0.35,0.95c-0.033,0.167-0.083,0.317-0.15,0.45
				c-0.2,0.233-0.267,0.517-0.2,0.85c0.133,0.4,0.05,0.566-0.25,0.5c-0.367-0.067-0.534,0.05-0.5,0.35
				c0.4,0.133,0.55,0.55,0.45,1.25c0.1,0.434,0.2,0.9,0.3,1.4c-0.067,0-0.15,0-0.25,0c-0.567,0.066-1.067,0.05-1.5-0.05
				c0.033,0.1,0.066,0.217,0.1,0.35c0.067,0.233,0.117,0.483,0.15,0.75c0.1,0.667-0.083,1.15-0.55,1.45
				c-0.3-0.1-0.433-0.034-0.4,0.2c0.067,0.333,0.067,0.667,0,1c-0.033,0.2-0.067,0.4-0.1,0.6c-0.133,0.767,0.017,1.283,0.45,1.55
				c-0.1,0.1-0.184,0.15-0.25,0.15c-0.4-0.034-0.567,0.167-0.5,0.6c0.066,0.133,0.15,0.217,0.25,0.25c0.6,0.267,0.85,0.733,0.75,1.4
				c-0.167,0-0.333,0-0.5,0c-0.367,0-0.733,0-1.1,0c0,0.5,0.183,0.95,0.55,1.35c0.1,0.067,0.167,0.15,0.2,0.25
				c0.267,0.467,0.583,0.983,0.95,1.55c0.033,0.133,0.083,0.25,0.15,0.35c0.3,0.533,0.65,0.917,1.05,1.15
				c0.2,0.1,0.283,0.316,0.25,0.65c-0.033,0.1-0.066,0.2-0.1,0.3C2.983-47.783,3-47.633,3.1-47.5c0.066,0.133,0.183,0.267,0.35,0.4
				c0.133,0.133,0.216,0.3,0.25,0.5c0.167,0.567,0.517,0.983,1.05,1.25c-0.267,0.167-0.417,0.367-0.45,0.6
				c0.067,0.067,0.15,0.1,0.25,0.1c0.534-0.033,0.8,0.2,0.8,0.7c-0.167,0-0.317,0.034-0.45,0.1c-0.133,0.1-0.25,0.233-0.35,0.4
				c0.1,0.1,0.2,0.15,0.3,0.15c0.733-0.034,1.083,0.267,1.05,0.9c0,0.2,0.017,0.3,0.05,0.3c0.933,0.133,1.883,0.217,2.85,0.25
				c0.034,0,0.067,0,0.1,0v0.05c0.067,0.333-0.017,0.566-0.25,0.7c-0.066,0.033-0.117,0.133-0.15,0.3
				c-0.067,1.6-0.133,3.216-0.2,4.85c0,0.333,0.083,0.583,0.25,0.75c0.5-0.167,0.717-0.7,0.65-1.6c0-0.067,0.033-0.15,0.1-0.25
				c0.4-0.233,0.717-0.184,0.95,0.15c0.4-0.367,0.717-0.583,0.95-0.65c0.033,0.433,0.2,0.716,0.5,0.85
				c0.833-0.633,2.083-0.783,3.75-0.45c0.267,0.066,0.55,0.167,0.85,0.3c1,0.5,1.75,1.25,2.25,2.25c0.067,0.133,0.1,0.3,0.1,0.5
				c0,0.367,0,0.717,0,1.05c0.167-0.467,0.417-0.767,0.75-0.9c0.333-0.066,0.467,0.15,0.4,0.65c-0.033,0.167-0.05,0.333-0.05,0.5
				c0.5,0,0.983-0.117,1.45-0.35c0.2,0.867,0.6,1.316,1.2,1.35c0.367,0.066,0.65,0.05,0.85-0.05c0.133-0.066,0.3-0.1,0.5-0.1
				c0.067,1.667,0.667,3,1.8,4c0.2,0.167,0.383,0.333,0.55,0.5c0.767,0.8,1.65,1.15,2.65,1.05c0.033,0,0.05-0.083,0.05-0.25
				c0-0.1,0-0.2,0-0.3c0.067-0.066,0.333,0.117,0.8,0.55c0.333,0.333,0.6,0.333,0.8,0c0.067-0.167,0.15-0.35,0.25-0.55
				c0.767,0.733,1.733,1.15,2.9,1.25c0.567,0.067,1.1,0.15,1.6,0.25c0.3,0.067,0.583,0.167,0.85,0.3c0.433,0.2,0.833,0.383,1.2,0.55
				c0.333,0.167,0.65,0.333,0.95,0.5c0.167,0.067,0.317,0.133,0.45,0.2c0.1,0.033,0.2,0.05,0.3,0.05c1.467,0.1,2.1,0.934,1.9,2.5
				c0.667-0.133,1.367-0.133,2.1,0c0.1,0,0.15,0.1,0.15,0.3c0.067,0.233,0.167,0.45,0.3,0.65c0.033,0.1,0.133,0.167,0.3,0.2
				c0.434,0.1,0.7,0.417,0.8,0.95c0.033,0.033,0.133,0.05,0.3,0.05c0.633,0,1.25,0.034,1.85,0.1c0.1,0.033,0.2,0.067,0.3,0.1
				c0.167,0.033,0.333,0.067,0.5,0.1c0.333,0.033,0.517,0.283,0.55,0.75h0.3c0.333,0,0.617-0.15,0.85-0.45
				c0.133-0.133,0.283-0.25,0.45-0.35c0.1,0.367,0.167,0.717,0.2,1.05c0.067,0.2,0.117,0.367,0.15,0.5s0.067,0.25,0.1,0.35
				c0.233,0.633,0.317,1.333,0.25,2.1c-0.033,0.8,0.05,1.534,0.25,2.2c0.067,0.233,0.133,0.467,0.2,0.7c0.133,0.6,0.466,1.133,1,1.6
				c0.767,0.633,1.483,0.733,2.15,0.3c-0.067,0.733,0.033,1.05,0.3,0.95c0.633,0.467,1.117,0.883,1.45,1.25
				c0.233,0.2,0.517,0.383,0.85,0.55c0.133,0.033,0.216,0.1,0.25,0.2c0.566,0.867,1.017,1.65,1.35,2.35
				c0.534-0.566,1.25-0.867,2.15-0.9c0.167,0,0.333,0.05,0.5,0.15c0.4,0.267,0.816,0.55,1.25,0.85c0.066,0.033,0.2,0.033,0.4,0
				c0.867-0.267,1.333-0.033,1.4,0.7c0.033,0.1,0.083,0.2,0.15,0.3c0.2-0.167,0.35-0.367,0.45-0.6c0.133-0.267,0.45-0.367,0.95-0.3
				c0.5,0.066,0.883,0.233,1.15,0.5C66.55-4.05,66.7-4,66.9-4c0.833,0.033,1.633-0.033,2.4-0.2c0.333-0.066,0.684-0.1,1.05-0.1
				c0.467,0,0.917,0.066,1.35,0.2c0.466,0.133,0.917,0.317,1.35,0.55c0.4,0.233,0.817,0.45,1.25,0.65
				c0.667,0.367,1.15,0.867,1.45,1.5c0.1,0.2,0.217,0.417,0.35,0.65S76.35-0.267,76.45,0c0.167-0.2,0.316-0.4,0.45-0.6
				c0.167-0.4,0.467-0.75,0.9-1.05c0.534-0.4,1.133-0.533,1.8-0.4c0.133,0,0.25,0.033,0.35,0.1c0.867,0.333,1.833,0.45,2.9,0.35
				c0.6,0,1.217-0.05,1.85-0.15c0.167-0.033,0.367-0.067,0.6-0.1c-0.433-0.367-0.85-0.767-1.25-1.2c-0.1-0.1-0.15-0.25-0.15-0.45
				c0.867-0.033,1.667,0.033,2.4,0.2c0.8,0.133,1.417,0.066,1.85-0.2c0.4-0.333,0.667-0.75,0.8-1.25c0-0.133,0.083-0.25,0.25-0.35
				c0.5-0.333,0.983-0.667,1.45-1c0.867-0.633,1.9-0.9,3.1-0.8c0.7,0.033,1.283-0.117,1.75-0.45c0.1-0.1,0.117-0.217,0.05-0.35
				c-0.033-0.133-0.066-0.25-0.1-0.35c-0.233-0.833-0.083-1.367,0.45-1.6C96-9.717,96.083-9.8,96.15-9.9
				c0.167-0.333,0.533-0.65,1.1-0.95c0.367-0.2,0.583-0.517,0.65-0.95c0.067-0.4,0.15-0.817,0.25-1.25c0-0.1,0.05-0.2,0.15-0.3
				c0.6-0.667,0.717-1.383,0.35-2.15c-0.033-0.1-0.05-0.183-0.05-0.25s0-0.15,0-0.25c0.033-0.067,0.066-0.133,0.1-0.2
				c0.1-0.133,0.216-0.3,0.35-0.5c0.067-0.066,0.133-0.133,0.2-0.2c0.467-0.2,1.167-0.167,2.1,0.1
				C101.75-16.667,102.133-16.5,102.5-16.3z"/>
		</g>
		<g>
			<path style="fill-rule:evenodd;clip-rule:evenodd;fill:#26211A;" d="M81.7-46.8c-0.034-0.267-0.05-0.55-0.05-0.85
				c-0.2-2.934-0.267-5.2-0.2-6.8c-1.233-2.533-2.55-5.083-3.95-7.65c-1.333-2.533-2.417-4.283-3.25-5.25
				c-0.933-1-1.783-2.117-2.55-3.35c-0.633-0.3-1.4-0.883-2.3-1.75l-0.2-3.85c0-0.034,0-0.1,0-0.2c0-0.233,0.033-0.517,0.1-0.85
				v-0.15c0.5-3.5,0.95-5.95,1.35-7.35c0.2,1.4,0.417,2.684,0.65,3.85v0.1c0.333,1.867,0.617,3.433,0.85,4.7L72.2-76
				c0,0.167,0,0.3,0,0.4c0,0.233,0.017,0.434,0.05,0.6c0.133,0.3,0.1,1.417-0.1,3.35l0.5-1.9c0.033-0.1,0.083-0.284,0.15-0.55
				c0.034-0.267,0.083-0.6,0.15-1l0.1-1.1c-0.066-1.633-0.25-3.25-0.55-4.85v-0.15c-0.333-2.633-0.717-5.233-1.15-7.8
				c-0.133-1.567-0.367-3.183-0.7-4.85c-0.133-0.467-0.767-2.6-1.9-6.4v-0.1c-0.133-0.233-0.233-0.5-0.3-0.8v-0.05
				c-0.034,0-0.05-0.017-0.05-0.05c3.4,1.833,6.2,4,8.4,6.5c0.267,0.4,0.583,0.767,0.95,1.1c0,0.4-0.033,0.816-0.1,1.25
				c-0.033,0.467-0.083,0.917-0.15,1.35c0.167,0.367,0.15,0.667-0.05,0.9c-0.034,0.967-0.05,1.85-0.05,2.65v0.05
				c0,0.333,0.017,0.633,0.05,0.9c0,0.1,0.1,1.566,0.3,4.4c0-0.2,0.033-0.45,0.1-0.75c0.3-2.7,0.45-4.217,0.45-4.55v-0.05
				c0.2-1.1,0.367-2.067,0.5-2.9c0.067-0.533,0.2-1.067,0.4-1.6c0.3,0.533,0.617,1.067,0.95,1.6c1.2,1.6,1.883,2.8,2.05,3.6
				c-0.067,1.433-0.3,2.483-0.7,3.15c-0.467,0.7-0.8,1.433-1,2.2c-0.5,1.7-0.7,3.45-0.6,5.25c-0.1,0-0.1,0.067,0,0.2
				c0,0.5,0.05,1.033,0.15,1.6c0.233,2.566,0.633,5.1,1.2,7.6c0.367,1.4,0.783,2.85,1.25,4.35c0.767,2.167,1.567,4.35,2.4,6.55
				c0.233,0.633,0.467,1.25,0.7,1.85c-0.567-1.9-1.283-4.784-2.15-8.65c-0.3-1.2-0.55-2.483-0.75-3.85
				c0.633,0.033,1.9,0.25,3.8,0.65c0.733,0.167,1.65,0.617,2.75,1.35c1.4,0.966,3.067,2.383,5,4.25c0.2,0.233,0.45,0.5,0.75,0.8
				c-1.267-1.933-2.167-3.133-2.7-3.6c-0.633-0.433-1.5-1.1-2.6-2c-1.233-0.833-2.184-1.383-2.85-1.65
				C86.183-67.017,84.9-67.433,83-68c-0.2-0.1-0.433-0.167-0.7-0.2c-0.433-1.267-0.75-3.066-0.95-5.4c-0.367-2.767-0.133-5.1,0.7-7
				c0.767-1.867,1.3-3.05,1.6-3.55c0.3,1.033,0.65,2.066,1.05,3.1l0.85,2.8L84.9-80.6c0.1,0.267,0.45,1.35,1.05,3.25
				c0.6,2.167,0.767,2.55,0.5,1.15c-0.333-1.333-0.767-3.316-1.3-5.95c-0.433-2.367-1.033-4.483-1.8-6.35
				c-0.1-0.133-0.167-0.283-0.2-0.45c1.633,0.034,3.7,0.284,6.2,0.75c0.233,0,0.7,0.067,1.4,0.2c0.7,0.167,1.483,0.5,2.35,1
				c1.833,0.767,4.15,2.35,6.95,4.75c-0.9-0.967-1.617-1.75-2.15-2.35c-0.5-0.533-0.867-0.917-1.1-1.15
				c-0.5-0.533-1.95-1.3-4.35-2.3L89.4-89.2c-2.133-0.4-4.617-1.1-7.45-2.1c-0.4-0.867-0.784-1.633-1.15-2.3
				c-0.433-0.633-0.933-1.55-1.5-2.75c-1.533-1.233-3.15-2.433-4.85-3.6c-1.667-1.1-3.05-2.083-4.15-2.95
				c-1.033-0.8-1.65-1.367-1.85-1.7c-0.3-0.2-0.5-0.467-0.6-0.8c-2.867-7.467-5.067-13.184-6.6-17.15c-0.3-3.467-0.55-8.6-0.75-15.4
				c-0.1-7.533,0.983-13.233,3.25-17.1c0.233-0.534,0.45-1.034,0.65-1.5c0.467-0.233,0.917-0.517,1.35-0.85
				c0.333-0.233,0.7-0.434,1.1-0.6c1.033-0.367,1.9-0.767,2.6-1.2c0.1-0.033,0.2-0.066,0.3-0.1c0.333-0.1,0.583-0.184,0.75-0.25
				c0.467-0.167,0.883-0.167,1.25,0c0.1,0.033,0.217,0.05,0.35,0.05c0.5,0.1,1,0.2,1.5,0.3c0.566,0.133,1.167,0.184,1.8,0.15
				c0.267-0.034,0.517-0.083,0.75-0.15c0.1-0.033,0.167-0.083,0.2-0.15c0.167-0.167,0.433-0.3,0.8-0.4
				c0.333-0.033,0.65-0.067,0.95-0.1c0.9-0.167,1.733-0.383,2.5-0.65c-0.333,0.067-0.567,0.05-0.7-0.05
				c-0.033-0.034-0.117-0.05-0.25-0.05c-0.733,0.033-1.383-0.05-1.95-0.25c-0.133-0.033-0.25-0.066-0.35-0.1
				c-0.467-0.066-0.7,0.05-0.7,0.35c0,0.033-0.017,0.083-0.05,0.15c-0.267,0.434-0.717,0.5-1.35,0.2
				c-0.267-0.133-0.55-0.25-0.85-0.35c-0.1-0.066-0.217-0.117-0.35-0.15c-0.533-0.067-1.066-0.117-1.6-0.15
				c-0.2-0.067-0.45-0.117-0.75-0.15c-0.367-0.067-0.75-0.117-1.15-0.15c-0.4-0.066-0.683-0.033-0.85,0.1
				c-0.067,0.033-0.167,0.067-0.3,0.1c-0.7,0.1-1.417,0.117-2.15,0.05c-0.4-0.033-0.783-0.066-1.15-0.1
				c-0.133-0.067-0.267-0.1-0.4-0.1c-0.133-0.033-0.267-0.083-0.4-0.15c0.333-0.1,0.733-0.184,1.2-0.25
				c0.833-0.1,1.667-0.184,2.5-0.25c0.633-0.067,1.217-0.067,1.75,0c0.333,0.033,0.65,0.066,0.95,0.1c1.133,0.133,2.3,0.15,3.5,0.05
				c0.133-0.033,0.267-0.05,0.4-0.05c0.833-0.233,1.683-0.55,2.55-0.95c0.167-0.1,0.35-0.167,0.55-0.2
				c1.233-0.167,2.45-0.333,3.65-0.5c0.9-0.066,1.816-0.083,2.75-0.05c-0.067-0.167-0.267-0.25-0.6-0.25c-0.067,0-0.133,0-0.2,0
				c-0.9-0.067-1.8-0.1-2.7-0.1c-0.333,0-0.6,0.05-0.8,0.15c-0.133,0.033-0.25,0.033-0.35,0c-0.333-0.033-0.567-0.017-0.7,0.05
				c-0.167,0-0.333,0-0.5,0c-0.933,0.066-1.9,0.133-2.9,0.2c-1.033,0.1-2,0.2-2.9,0.3c-0.5,0.033-1.017,0.066-1.55,0.1
				c-0.5,0-0.95-0.05-1.35-0.15c-0.633-0.167-1.283-0.316-1.95-0.45c-0.667-0.133-1.367-0.167-2.1-0.1
				c-0.467,0.033-0.933,0.05-1.4,0.05c-0.1,0.033-0.217,0.067-0.35,0.1c-0.767,0.233-1.667,0.5-2.7,0.8
				c-0.066,0.034-0.133,0.05-0.2,0.05c-0.4,0.1-0.75,0.1-1.05,0c-1.033-0.467-1.95-0.967-2.75-1.5c-0.2-0.133-0.417-0.217-0.65-0.25
				c-0.066-0.033-0.133-0.05-0.2-0.05c-0.434-0.066-0.833-0.15-1.2-0.25c-0.133-0.033-0.25-0.05-0.35-0.05
				c-0.5-0.1-0.833-0.067-1,0.1c0.267,0.1,0.6,0.217,1,0.35c0.1,0.033,0.217,0.066,0.35,0.1c0.5,0.233,0.95,0.633,1.35,1.2v0.05
				c-0.233-0.066-0.483-0.117-0.75-0.15c-0.367-0.033-0.684-0.083-0.95-0.15c-0.133-0.067-0.267-0.1-0.4-0.1
				c-1-0.033-1.967,0-2.9,0.1c-0.533,0.033-1,0-1.4-0.1c-0.1-0.033-0.2-0.066-0.3-0.1c-1.633-0.733-3.467-1.083-5.5-1.05
				c-0.7,0-1.4,0.017-2.1,0.05c-0.133,0-0.267,0-0.4,0c-0.267,0-0.4,0.067-0.4,0.2c0.1,0.033,0.167,0.067,0.2,0.1
				c0.533,0,1.05,0.1,1.55,0.3c0.2,0.067,0.4,0.117,0.6,0.15c0.967,0.1,1.933,0.217,2.9,0.35c1.2,0.2,2.233,0.517,3.1,0.95
				c0.066,0,0.117,0.033,0.15,0.1c0.033,0.1,0.067,0.183,0.1,0.25c0.2,0.233,0.566,0.333,1.1,0.3c0.633-0.067,1.216-0.017,1.75,0.15
				c0.133,0.033,0.267,0.067,0.4,0.1c0.367,0.067,0.5,2.933,0.4,8.6c-0.8,3.7-1.2,7.533-1.2,11.5c0,2.066,0.367,5.533,1.1,10.4
				c0.733,4.8,1.184,8.617,1.35,11.45c0.167,2.733,0.25,6.85,0.25,12.35c0,0.7,0,1.367,0,2c-1.833,1.9-3.633,3.4-5.4,4.5
				c-1,0.233-1.783,0.35-2.35,0.35c-4.367,0-8.417,0.317-12.15,0.95c-3.533,0.633-7.184,1.6-10.95,2.9
				c1.434-0.233,3.184-0.633,5.25-1.2c2.934-0.733,4.633-1.1,5.1-1.1c0.833,0.066,2.1,0,3.8-0.2c1.934-0.233,3.434-0.35,4.5-0.35
				c0.333,0,0.8,0.05,1.4,0.15c0.233,0.067,0.583,0.217,1.05,0.45c-2.033,0.7-3.617,1.333-4.75,1.9c-1,0.5-2.533,1.833-4.6,4
				c-3.467,3.733-5.3,5.7-5.5,5.9c-1.167,1.133-2.383,2.75-3.65,4.85c-0.833,1.367-1.45,2.35-1.85,2.95
				c0.733-1.033,1.717-2.217,2.95-3.55c0.833-0.9,1.95-2.083,3.35-3.55c0.033-0.067,0.1-0.15,0.2-0.25
				c0.767,0.967,1.333,1.733,1.7,2.3c0.633,1,0.967,1.983,1,2.95c0,0.033,0,0.083,0,0.15c0,0.467-0.267,1.667-0.8,3.6
				c-0.133,0.5-0.25,0.967-0.35,1.4l1.55-4.05c0.7,0.367,1.317,0.9,1.85,1.6c0.233,0.3,0.55,0.767,0.95,1.4
				c-0.267-0.467-0.583-1.067-0.95-1.8c-0.434-0.867-1-1.533-1.7-2c0-1.167-0.15-2.15-0.45-2.95c-0.267-0.733-0.534-1.783-0.8-3.15
				c-0.167-0.767,0.317-1.667,1.45-2.7c0.2-0.167,0.633-0.717,1.3-1.65c0.7-0.867,1.3-1.417,1.8-1.65c0.533-0.2,1.25-0.633,2.15-1.3
				c0.9-0.633,1.783-1.117,2.65-1.45c0.833-0.333,1.617-0.583,2.35-0.75c0.467-0.1,1.316-0.284,2.55-0.55
				c0.7-0.167,2.383-0.983,5.05-2.45c0.833-0.467,1.55-0.867,2.15-1.2c-0.033,0.6-0.067,1.133-0.1,1.6
				c-0.167,1.167-0.333,2.05-0.5,2.65c-0.4,1.6-1.183,3.367-2.35,5.3c-1.167,1.967-1.833,3.367-2,4.2
				c-1.167,2.1-2.117,4.517-2.85,7.25c-0.167,0.4-0.316,0.9-0.45,1.5v0.05c-0.133,0.467-0.317,0.983-0.55,1.55
				c-1.633,0.566-3.316,1.316-5.05,2.25c-0.1,0.066-0.2,0.117-0.3,0.15c-1.967,1.133-4.2,2.917-6.7,5.35h-0.05
				c-0.034,0.133-0.184,0.267-0.45,0.4c-2.2,2.267-4,4.533-5.4,6.8c1.4-1.267,3.433-3.083,6.1-5.45c0,0.233,0,0.433,0,0.6v0.05
				c0.1,0.933,0.1,1.8,0,2.6v0.05c0,0.1,0,0.25,0,0.45c0,0.1,0,0.2,0,0.3c-1.167,0.833-2.217,1.75-3.15,2.75
				c-2.1,2.1-4,4.633-5.7,7.6c-0.033,0.067-0.067,0.133-0.1,0.2c-0.6,1.066-1.183,2.183-1.75,3.35c-1.033,2.333-1.9,4.517-2.6,6.55
				c0.567-1.133,1.317-2.567,2.25-4.3c1.9-3.633,3.617-6.466,5.15-8.5c0.7-0.966,1.367-1.733,2-2.3
				c1.967-1.867,3.317-3.233,4.05-4.1c-0.467,1.333-0.9,3.033-1.3,5.1c-0.133,0.433-0.216,0.85-0.25,1.25
				c0.333-1.033,0.633-1.883,0.9-2.55c0.333-0.934,0.617-1.567,0.85-1.9c0.2-0.333,0.434-0.917,0.7-1.75l0.85-1.8
				c0-0.067,0-0.167,0-0.3v-1.25c0.066-1.733,0.217-3.067,0.45-4c0-0.067,0-0.117,0-0.15c1.367-1.167,2.784-2.183,4.25-3.05
				c1.6-0.867,3.05-1.633,4.35-2.3c0.167-0.067,0.333-0.15,0.5-0.25c-0.066,0.6-0.117,1.383-0.15,2.35
				c-0.4,2.5-0.95,6.467-1.65,11.9l-0.05,1c-0.233,1.466-0.466,3.066-0.7,4.8c0,0.133,0,0.267,0,0.4c-0.1,0.8-0.217,1.617-0.35,2.45
				l2.4-10.5c0.567-3.1,1.2-5.867,1.9-8.3c0.034,0.1,0.067,0.184,0.1,0.25c0.533,0.967,0.967,2.383,1.3,4.25
				c0,0.167,0.05,0.3,0.15,0.4c0.267,2.633,0.5,4.517,0.7,5.65c0,0.1,0.083,0.2,0.25,0.3h0.1c0.167,0,0.283,0,0.35,0
				c0.067-0.1,0.1-0.2,0.1-0.3c0-3.3-0.15-5.8-0.45-7.5c-0.2-0.833-0.417-1.617-0.65-2.35c-0.367-0.967-0.783-1.817-1.25-2.55
				c-0.1-0.133-0.167-0.25-0.2-0.35c0.034-0.333,0.1-0.667,0.2-1c0.3-1.1,0.617-2.2,0.95-3.3c0.2-0.8,0.4-1.6,0.6-2.4
				c0.167-0.467,0.367-0.95,0.6-1.45c1.233-3.633,2.85-6.733,4.85-9.3c0,0.133,0,0.233,0,0.3c0,0.4-0.033,0.816-0.1,1.25
				c-0.333,2.833-0.517,5.683-0.55,8.55c0,0.333,0,0.65,0,0.95c-0.133,2.066-0.083,4.2,0.15,6.4c0.033,0.7,0.117,1.417,0.25,2.15
				c0.167,2.367,0.5,4.75,1,7.15c0.067,0.333,0.167,0.65,0.3,0.95c0.034,0.733-0.1,1.467-0.4,2.2c-0.233,0.833-0.45,1.65-0.65,2.45
				c-0.567,1.5-1.067,2.917-1.5,4.25c-0.133,0.133-0.233,0.283-0.3,0.45c-0.067,0.133-0.2,0.2-0.4,0.2c-0.867,0.4-2.4,0.967-4.6,1.7
				c-1.267,0.5-2.45,0.967-3.55,1.4c-2.6,1.1-5,2.2-7.2,3.3c-5.833,2.9-10.417,5.9-13.75,9c-1.067,0.934-1.967,1.867-2.7,2.8
				c1.3-1.1,2.483-2.033,3.55-2.8c3.167-2.433,6.1-4.267,8.8-5.5c0,0.9-0.3,1.934-0.9,3.1c-0.534,0.867-1.483,2.383-2.85,4.55
				c-0.434,0.733-1.067,1.9-1.9,3.5c-0.067,0.167-0.133,0.35-0.2,0.55c1.133-1.733,2.433-3.7,3.9-5.9c1.4-2.1,2.5-3.85,3.3-5.25
				c0.4-0.633,0.75-1.184,1.05-1.65c4.4-2.467,8.167-4.267,11.3-5.4c3.034-1.066,4.9-1.583,5.6-1.55c-0.767,1.4-1.433,2.55-2,3.45
				c-0.033,0.233-0.5,1.1-1.4,2.6c-0.933,1.467-1.85,2.667-2.75,3.6c-0.733,0.733-1.683,1.567-2.85,2.5
				c-0.133,0.067-0.267,0.167-0.4,0.3c-0.2,0.133-0.417,0.283-0.65,0.45c-1.767,1.267-2.583,1.9-2.45,1.9h0.15
				c0.434-0.167,1.4-0.8,2.9-1.9c1.933-1.3,2.933-1.967,3-2v-0.05c2.133-1.867,3.933-3.65,5.4-5.35l0.1,0.05
				c0.033,0.067,0.1,0.133,0.2,0.2c0.3,0.333,0.6,0.817,0.9,1.45c0.2,0.5,0.333,0.85,0.4,1.05c0.2,0.433,0.3,1.167,0.3,2.2l-0.1,1.8
				c-0.133,0.133-0.25,0.217-0.35,0.25c-1.033,0.6-2.4,1.733-4.1,3.4c-2.534,2.2-4.45,4.617-5.75,7.25
				c1.733-2.267,3.133-3.917,4.2-4.95c1.733-1.6,3.733-3.15,6-4.65c0.2,1.233,0.233,2.233,0.1,3c-0.2,0.9-0.433,1.817-0.7,2.75
				c-0.367,1.034-0.633,2.083-0.8,3.15c0.167-0.733,0.283-1.1,0.35-1.1c0.133-0.333,0.283-0.717,0.45-1.15
				c0.733-2.067,1.267-3.867,1.6-5.4c0.1-0.833,0.15-1.566,0.15-2.2c0-0.167,0-0.35,0-0.55v-0.1c0.133-0.667,0.2-1.284,0.2-1.85
				c0-0.167,0.05-0.617,0.15-1.35c-0.233-0.3-0.517-1.3-0.85-3c-0.167-0.833-0.35-1.767-0.55-2.8c0.767-1.034,1.367-2.067,1.8-3.1
				c0.3-0.733,0.583-1.4,0.85-2c0.3-0.733,0.583-1.434,0.85-2.1c0.167-0.467,0.383-0.933,0.65-1.4
				c0.267-0.733,0.483-1.483,0.65-2.25c0.733,0.8,1.383,1.5,1.95,2.1c0.867,0.867,1.6,1.7,2.2,2.5c0.133,0.133,0.25,0.283,0.35,0.45
				c-0.233,1.667-0.517,3.4-0.85,5.2c-0.567,3.9-0.983,7.233-1.25,10c-0.267,2.133-0.417,3.933-0.45,5.4
				c0.567-1.733,0.95-3.317,1.15-4.75c2.267,1.467,4.367,3.15,6.3,5.05c2.667,2.667,4.783,5.45,6.35,8.35
				c-1.533-3.066-3.017-5.467-4.45-7.2c-1.7-2.133-4.383-4.633-8.05-7.5c0-0.1,0-0.2,0-0.3c0.167-2.533,0.717-4.667,1.65-6.4
				c0.667,0.067,1.383,0.367,2.15,0.9c0.833,0.533,1.767,1.317,2.8,2.35c0.6,0.7,1.117,1.317,1.55,1.85c-0.267-0.5-0.5-1-0.7-1.5
				c-0.367-0.467-0.7-0.9-1-1.3c-1-1.3-2.6-2.6-4.8-3.9L63.8-49.4c0.4-1.267,0.934-2.717,1.6-4.35c0.167,0,0.333,0.033,0.5,0.1
				c0.133,0,0.617,0.133,1.45,0.4c0.867,0.3,2.1,0.75,3.7,1.35c1.5,0.6,1.083,0.35-1.25-0.75c-2.333-1.067-3.566-1.6-3.7-1.6
				c-0.133-0.133-0.283-0.217-0.45-0.25c-0.467-0.4-1.033-0.983-1.7-1.75c-0.5-0.733-1.034-1.633-1.6-2.7
				c-0.9-1.6-1.517-2.883-1.85-3.85c-0.2-0.333-0.317-0.667-0.35-1c0-0.067-0.017-0.167-0.05-0.3h0.05v-0.05
				c-0.333-1.467-0.566-2.934-0.7-4.4c-0.133-0.867-0.267-1.767-0.4-2.7c0-0.067,0-0.133,0-0.2c-0.3-2.533-0.45-5.1-0.45-7.7
				c0-0.1,0-0.25,0-0.45c0.133-5.1,0.7-10.217,1.7-15.35c0.967-5,1.6-9.1,1.9-12.3c3.033,2.5,5.5,8.033,7.4,16.6
				c0.1,0.733,0.233,1.4,0.4,2c0,0.1,0,0.183,0,0.25c-0.567,1.467-1.2,4.767-1.9,9.9c0,0.167,0,0.283,0,0.35
				c-0.167,0.167-0.3,0.35-0.4,0.55c-0.333,0.333-0.617,0.6-0.85,0.8c-1.4,0.733-2.417,1.233-3.05,1.5
				c-0.633,0.533-1.033,0.883-1.2,1.05c-0.434,0.967-0.717,1.517-0.85,1.65c-0.067,0.2-0.2,0.417-0.4,0.65
				c-0.3,0.5-0.65,1.1-1.05,1.8c0.9-1.233,1.733-2.2,2.5-2.9c0.3-0.333,0.583-0.65,0.85-0.95c0.2-0.267,0.45-0.5,0.75-0.7
				c0.1-0.133,0.383-0.316,0.85-0.55c0.067,0,0.267-0.067,0.6-0.2c0.733-0.2,1.45-0.233,2.15-0.1c0.067,0.367,0.1,0.683,0.1,0.95
				c0,0.133,0,0.25,0,0.35c0,0.067,0,0.15,0,0.25c0,0.067,0,0.117,0,0.15c-0.033,0.533-0.067,1.067-0.1,1.6c0,0.133,0,0.3,0,0.5
				c0,0.133-0.067,1.233-0.2,3.3c-0.066,0.733-0.283,3.4-0.65,8c0.467-3.633,0.9-6.35,1.3-8.15c0.066-0.333,0.133-0.633,0.2-0.9
				c0.167-0.833,0.317-1.367,0.45-1.6c1.467,0.767,3.4,3.2,5.8,7.3c0.233,0.466,0.5,0.917,0.8,1.35
				c-0.167,1.267-0.45,2.45-0.85,3.55c-0.4,1.066-0.833,2.35-1.3,3.85c-0.466,1.5-0.7,3.283-0.7,5.35c0,0.667,0.15,1.617,0.45,2.85
				c0.167,1.4,0.367,2.434,0.6,3.1c0-0.533-0.066-1.483-0.2-2.85c0-0.566,0-1.117,0-1.65c-0.1-0.667-0.1-1.317,0-1.95
				c0.066-1.066,0.133-1.767,0.2-2.1c0.033-0.333,0.267-1.067,0.7-2.2c0.333-1.167,0.783-2.65,1.35-4.45l0.9-2.9
				c1.133,2.733,2.383,5.267,3.75,7.6C81-51.45,81.367-48.967,81.7-46.8z"/>
		</g>
		<g>
			<path style="fill-rule:evenodd;clip-rule:evenodd;fill:#26211A;" d="M107.05-67.9c0.1,0.467,0.2,0.95,0.3,1.45
				c-0.3-1.933-0.684-4.716-1.15-8.35c-0.167-1.233-0.333-2.55-0.5-3.95c0.4,0.033,1.167,0.25,2.3,0.65c0.4,0.2,0.933,0.667,1.6,1.4
				c0.8,1,1.767,2.45,2.9,4.35c0.133,0.233,0.283,0.483,0.45,0.75c-0.733-1.933-1.267-3.133-1.6-3.6
				c-0.367-0.433-0.883-1.117-1.55-2.05c-0.667-0.867-1.2-1.433-1.6-1.7c-0.4-0.233-1.15-0.65-2.25-1.25
				c-0.167-0.1-0.317-0.167-0.45-0.2c-0.233-1.267-0.417-3.117-0.55-5.55c-0.2-2.8-0.067-5.15,0.4-7.05s0.783-3.117,0.95-3.65
				c0.2,1.066,0.4,2.133,0.6,3.2l0.5,2.8l-0.35-2.3c0.067,0.3,0.267,1.383,0.6,3.25c0.367,2.167,0.45,2.55,0.25,1.15
				c-0.167-1.367-0.417-3.383-0.75-6.05c-0.233-2.433-0.566-4.583-1-6.45c-0.066-0.167-0.117-0.333-0.15-0.5
				c0.933,0.2,1.4,0.333,1.4,0.4c0,0.1,0.583,0.333,1.75,0.7c1.167,0.367,2.7,1.633,4.6,3.8c0.167-0.1,1.517,3.517,4.05,10.85
				c-1.8-6.934-2.85-10.7-3.15-11.3c-0.3-0.533-0.517-0.917-0.65-1.15c-0.3-0.567-1.15-1.35-2.55-2.35l-1.8-1.15
				c-1.233-0.433-2.683-1.15-4.35-2.15c-0.233-0.9-0.466-1.684-0.7-2.35s-0.517-1.6-0.85-2.8c-0.9-1.233-1.833-2.45-2.8-3.65
				c-1-1.133-1.817-2.133-2.45-3c-0.6-0.833-0.95-1.417-1.05-1.75c-0.2-0.2-0.333-0.466-0.4-0.8c-0.8-3.667-1.5-6.9-2.1-9.7
				c-0.5-1.667-0.934-3.117-1.3-4.35c-0.167-0.467-0.316-0.917-0.45-1.35c-0.167-2.6-0.317-6.417-0.45-11.45
				c-0.033-5.4,0.517-10.017,1.65-13.85c0.833-1.533,1.6-2.367,2.3-2.5c0.1,0,0.2-0.017,0.3-0.05c0.833-0.3,1.717-0.417,2.65-0.35
				c0.434,0.067,0.833,0.15,1.2,0.25c0.1,0.033,0.2,0.05,0.3,0.05c0.6,0.033,1.15-0.083,1.65-0.35c1.034-0.567,2.15-0.85,3.35-0.85
				c-0.1-0.3-0.333-0.417-0.7-0.35c-0.467,0.033-0.967,0.05-1.5,0.05c-0.1,0-0.184-0.017-0.25-0.05c-0.367-0.1-0.817-0.133-1.35-0.1
				c-0.1,0-0.184,0.034-0.25,0.1c-0.3,0.233-0.667,0.35-1.1,0.35c-0.1,0-0.183,0.017-0.25,0.05c-0.133,0.067-0.3,0.1-0.5,0.1
				c-0.533-0.1-1.083-0.2-1.65-0.3c-0.1-0.067-0.2-0.1-0.3-0.1c-0.633-0.133-1.216-0.267-1.75-0.4c-0.333-0.067-0.617-0.067-0.85,0
				c0.033-0.133,0.066-0.267,0.1-0.4c-0.533,0.133-1.233,0.25-2.1,0.35c-0.067,0.034-0.133,0.05-0.2,0.05
				c-0.267-0.133-0.5-0.2-0.7-0.2c-1.7,0-3.017-0.2-3.95-0.6c-0.967-0.4-1.65-0.6-2.05-0.6c-0.333,0-0.6,0.05-0.8,0.15
				c0.167,0.066,0.95,0.383,2.35,0.95c0.767,0.434,1.3,0.85,1.6,1.25c0,0.267,0,0.534,0,0.8c-0.233,0-0.467,0-0.7,0
				c-0.1,0-0.183,0.017-0.25,0.05c-0.133,0.033-0.25,0.067-0.35,0.1c-0.867,0.1-1.7,0.067-2.5-0.1c-0.1,0-0.2-0.017-0.3-0.05
				c-0.434-0.2-0.833-0.483-1.2-0.85c-0.2-0.233-0.5-0.367-0.9-0.4c-0.333,0-0.683-0.017-1.05-0.05
				c-0.133-0.033-0.267-0.05-0.4-0.05c-0.4-0.033-0.8-0.033-1.2,0c-1.133,0.067-2.184-0.033-3.15-0.3c-0.1,0-0.184-0.017-0.25-0.05
				c-0.333-0.133-0.733-0.283-1.2-0.45c-0.4-0.1-0.85-0.133-1.35-0.1c-0.1,0.033-0.183,0.066-0.25,0.1c-0.1,0.033-0.2,0.066-0.3,0.1
				c-0.1,0-0.217,0-0.35,0c0,0.067,0.017,0.117,0.05,0.15c0.333,0.1,0.667,0.183,1,0.25c0.733,0.167,1.417,0.3,2.05,0.4
				c0.1,0.033,0.2,0.083,0.3,0.15c0.1,0,0.184,0.017,0.25,0.05c0.167,0.133,0.434,0.2,0.8,0.2c0.1,0,0.183,0.017,0.25,0.05
				c0.133,0.1,0.35,0.15,0.65,0.15c0.467-0.034,0.917,0,1.35,0.1c0.3,0.067,0.6,0.133,0.9,0.2c0.967,0.2,1.8,0.5,2.5,0.9
				c0.066,0.033,0.117,0.05,0.15,0.05c0.767,0.4,1.417,0.917,1.95,1.55c0.033,0.033,0.05,0.083,0.05,0.15
				c0.033,0.233,0.167,0.35,0.4,0.35c0.3,0,0.55,0.05,0.75,0.15c0.4,0.233,0.783,0.567,1.15,1c0.067,0.1,0.133,0.167,0.2,0.2
				c0.1,0.066,0.183,0.533,0.25,1.4c-0.467,2.7-0.7,5.55-0.7,8.55c0,1.567,0.217,4.15,0.65,7.75c0.367,3.067,0.617,5.617,0.75,7.65
				c0,0.267,0.017,0.55,0.05,0.85c0.033,0.967,0.067,2.133,0.1,3.5c0,2.2,0,4.833,0,7.9c0,3.5-0.033,6.216-0.1,8.15
				c-0.1,1.167-0.2,2.066-0.3,2.7c-0.1,0.633-0.217,1.284-0.35,1.95c-0.967,0.6-2.033,1.317-3.2,2.15h0.15
				c-3.267,2.067-5.25,3.233-5.95,3.5c-1.467,1.934-2.7,3.533-3.7,4.8c-1.333,1.733-2.833,4.216-4.5,7.45
				c-0.5,1.033-1.25,5.167-2.25,12.4c1.434-7.767,2.783-12.75,4.05-14.95c1.7-2.867,3.25-4.617,4.65-5.25
				c0.066-0.067,0.15-0.117,0.25-0.15c0.133-0.034,0.2,0.1,0.2,0.4c0,1.3-0.65,2.883-1.95,4.75c-1.267,1.833-2.25,3.333-2.95,4.5
				c0.6-0.867,1.184-1.65,1.75-2.35c0.333-0.4,0.783-0.883,1.35-1.45c0.3,0.6,0.45,1.233,0.45,1.9c0,0.833-0.1,1.65-0.3,2.45
				c-0.033,0.2-0.083,0.4-0.15,0.6c0.233-0.6,0.467-1.1,0.7-1.5c0.233-0.367,0.35-1.25,0.35-2.65c0-0.333-0.033-0.75-0.1-1.25
				l3.3-7.3c1.167-0.933,1.933-1.55,2.3-1.85c0.9-0.633,2.067-1.017,3.5-1.15c0.167-0.033,0.35-0.066,0.55-0.1
				c0.6-0.067,1.233-0.117,1.9-0.15c0.033-0.033,0.117-0.033,0.25,0c-0.033,0.367-0.067,0.717-0.1,1.05c0,0.167,0,0.3,0,0.4
				c-0.1,1.367-0.167,2.733-0.2,4.1c-0.267,2.767-0.434,4.25-0.5,4.45c-0.133,0.833-0.267,1.667-0.4,2.5
				c-0.333,1.534-0.633,2.967-0.9,4.3c-0.066,0.133-0.117,0.3-0.15,0.5C87.717-85.05,87.633-85,87.5-85
				c-0.5,0.433-1.383,1.033-2.65,1.8c-0.733,0.5-1.434,0.967-2.1,1.4c-1.533,1.1-2.933,2.216-4.2,3.35
				c-3.433,2.934-6.117,6-8.05,9.2c-0.633,0.933-1.15,1.867-1.55,2.8c0.733-1.1,1.417-2.033,2.05-2.8
				c1.867-2.5,3.583-4.383,5.15-5.65c0,0.9-0.183,1.967-0.55,3.2c-0.3,0.867-0.85,2.4-1.65,4.6c-0.267,0.733-0.633,1.917-1.1,3.55
				c-0.033,0.167-0.067,0.35-0.1,0.55c0.633-1.767,1.383-3.75,2.25-5.95c0.833-2.167,1.483-3.966,1.95-5.4
				c0.233-0.633,0.433-1.183,0.6-1.65c2.567-2.5,4.767-4.333,6.6-5.5c1.767-1.1,2.867-1.633,3.3-1.6c-0.467,1.434-0.867,2.6-1.2,3.5
				c0,0.233-0.267,1.117-0.8,2.65c-0.567,1.534-1.1,2.767-1.6,3.7c-0.434,0.733-1,1.583-1.7,2.55c-0.066,0.067-0.133,0.167-0.2,0.3
				c-0.133,0.1-0.267,0.25-0.4,0.45c-1.033,1.267-1.5,1.917-1.4,1.95l0.1-0.05c0.233-0.167,0.783-0.8,1.65-1.9
				c1.133-1.333,1.717-2.017,1.75-2.05c1.233-1.933,2.283-3.767,3.15-5.5l0.1,0.1c0,0.033,0.033,0.083,0.1,0.15
				c0.167,0.367,0.333,0.85,0.5,1.45c0.133,0.533,0.217,0.917,0.25,1.15c0.1,0.4,0.15,1.133,0.15,2.2l-0.05,1.85
				c-0.067,0.133-0.117,0.2-0.15,0.2c-0.633,0.667-1.434,1.816-2.4,3.45c-1.5,2.267-2.633,4.75-3.4,7.45
				c1.033-2.333,1.85-4.017,2.45-5.05c1-1.633,2.167-3.2,3.5-4.7C87.983-68.017,88-67,87.9-66.2c-0.1,0.867-0.233,1.784-0.4,2.75
				c-0.2,1.067-0.35,2.133-0.45,3.2c0.1-0.733,0.167-1.1,0.2-1.1c0.1-0.333,0.183-0.717,0.25-1.15c0.433-2.133,0.75-3.967,0.95-5.5
				c0.066-0.833,0.1-1.583,0.1-2.25c0-0.2,0-0.4,0-0.6v-0.1c0.067-0.667,0.1-1.3,0.1-1.9c0-0.167,0.017-0.617,0.05-1.35
				c-0.1-0.267-0.25-1.283-0.45-3.05c-0.1-0.867-0.2-1.817-0.3-2.85c0.433-1.066,0.783-2.1,1.05-3.1
				c0.167-0.767,0.317-1.466,0.45-2.1c0.2-0.733,0.367-1.434,0.5-2.1c0.1-0.467,0.233-0.95,0.4-1.45c0.167-0.733,0.283-1.5,0.35-2.3
				c0.466,0.833,0.85,1.55,1.15,2.15c0.5,0.9,0.95,1.75,1.35,2.55c0.033,0.167,0.083,0.333,0.15,0.5
				c-0.1,1.667-0.25,3.417-0.45,5.25c-0.333,3.967-0.583,7.35-0.75,10.15c-0.167,2.2-0.267,4.033-0.3,5.5
				c0.467-2.434,0.717-4.583,0.75-6.45c0.1-2.567,0.433-4.717,1-6.45c0.367,0.034,0.783,0.317,1.25,0.85
				c0.5,0.533,1.05,1.35,1.65,2.45c0.333,0.7,0.633,1.3,0.9,1.8c-0.167-0.467-0.3-0.967-0.4-1.5c-0.233-0.467-0.433-0.9-0.6-1.3
				c-0.566-1.333-1.5-2.667-2.8-4l-0.1-1.55c0.233-1.3,0.55-2.783,0.95-4.45c0.1,0,0.183,0.05,0.25,0.15c0.1,0,0.4,0.117,0.9,0.35
				c0.5,0.333,1.217,0.8,2.15,1.4c0.867,0.6,0.617,0.35-0.75-0.75s-2.083-1.65-2.15-1.65c-0.1-0.133-0.184-0.217-0.25-0.25
				c-0.267-0.434-0.6-1.033-1-1.8c-0.267-0.733-0.6-1.9-1-3.5c-0.367-1.566-0.533-4.7-0.5-9.4c0.133-2.167,0.316-4.35,0.55-6.55
				c0.567-5.067,0.934-9.233,1.1-12.5c1.767,2.533,3.217,8.167,4.35,16.9c0.066,0.733,0.133,1.4,0.2,2c0,0.1-0.033,0.9-0.1,2.4
				c-0.067,1.467-0.083,4.833-0.05,10.1l0.45-5c0.667,1.867,1.1,3.133,1.3,3.8c0.567,1.6,0.85,2.767,0.85,3.5
				c0,0.3-0.033,1.15-0.1,2.55c-0.033,0.566-0.05,1.033-0.05,1.4c0.233-1.133,0.35-2.867,0.35-5.2c0-0.5-0.4-2.233-1.2-5.2
				c-0.433-1.533-0.75-2.733-0.95-3.6l0.4-4.35c-0.034-0.233-0.067-0.483-0.1-0.75c-0.067-1.566-0.2-3.2-0.4-4.9
				c-0.067-0.5-0.434-2.683-1.1-6.55v-0.1c-0.1-0.233-0.15-0.483-0.15-0.75v-0.1c1.933,1.867,3.55,4.067,4.85,6.6
				c0.167,0.4,0.35,0.75,0.55,1.05c0,0.434-0.017,0.867-0.05,1.3c0,0.466-0.033,0.933-0.1,1.4c0.1,0.333,0.1,0.633,0,0.9
				c-0.034,0.967-0.05,1.867-0.05,2.7v0.05c0,0.367,0.017,0.667,0.05,0.9c0,0.1,0.05,1.6,0.15,4.5c0-0.2,0.017-0.45,0.05-0.75
				c0.167-2.733,0.25-4.283,0.25-4.65v-0.05c0.133-1.1,0.233-2.1,0.3-3c0.033-0.534,0.117-1.067,0.25-1.6
				c0.167,0.533,0.35,1.066,0.55,1.6c0.7,1.667,1.1,2.917,1.2,3.75c-0.034,1.433-0.167,2.5-0.4,3.2c-0.3,0.7-0.5,1.434-0.6,2.2
				c-0.3,1.733-0.417,3.517-0.35,5.35c-0.067,0-0.067,0.066,0,0.2c0,0.5,0.033,1.033,0.1,1.6c0.133,2.633,0.367,5.217,0.7,7.75
				c0.2,1.433,0.45,2.9,0.75,4.4C106.083-72.4,106.55-70.167,107.05-67.9z"/>
		</g>
	</g>
</symbol>
<g>
	<g>
		<path style="fill-rule:evenodd;clip-rule:evenodd;fill-opacity:0.2;" d="M174.45,329.55c1.091-0.202,2.874-0.535,5.35-1
			c4.434-0.8,7.184-1.2,8.25-1.2c0.3,0,0.934,0.084,1.9,0.25c0.934,0.167,1.616,0.25,2.05,0.25c0.366,0,0.85-0.133,1.45-0.399
			c0.666-0.3,1.434-0.5,2.3-0.601c1.833-0.233,3.733-0.483,5.7-0.75c0.399,0,0.899,0.084,1.5,0.25c0.6,0.167,1.083,0.25,1.45,0.25
			c0.333,0,1.383-0.1,3.149-0.3c1.834-0.166,3.033-0.316,3.601-0.45h0.1c-0.245-0.026-0.486-0.051-0.725-0.074l2.125,0.074
			c-2.667,0.767-4.551,1.15-5.65,1.15l-3.25-0.25c-0.566,0-1.4,0.15-2.5,0.45c-1.033,0.267-2.116,0.366-3.25,0.3
			c-0.333,0-1.233,0.184-2.7,0.55c-1.5,0.367-2.434,0.55-2.8,0.55c-0.5,0-1.434-0.1-2.8-0.3c-1.334-0.2-2.066-0.3-2.2-0.3l-4.9,0.8
			c-3.233,0.533-5.433,0.8-6.6,0.8L174.45,329.55z M180.275,324.75c-0.915-0.167-1.773-0.25-2.575-0.25
			c-2.967,0-4.733,0.033-5.3,0.1c-1.934,0.2-2.9,0.767-2.9,1.7c0,0.334,0.1,0.566,0.3,0.7c0.134,0.066,0.417,0.184,0.851,0.35
			c-0.301,0.101-1.434,0.284-3.4,0.551c-2.167,0.3-3.717,0.449-4.65,0.449c-1.233,0-3.333-0.083-6.3-0.25
			c-1.98-0.103-3.339-0.178-4.075-0.225c0.345-0.043,0.72-0.102,1.125-0.175c1.101-0.233,1.834-0.351,2.2-0.351
			c0.2,0,2.7,0.167,7.5,0.5c1.066,0,2.5-0.083,4.3-0.25c1.567-0.166,2.45-0.283,2.65-0.35v-0.15
			c-2.167,0.101-3.917,0.134-5.25,0.101c-2.533,0-4.233-0.233-5.1-0.7c0.899-0.2,2.399-0.283,4.5-0.25
			c1.933,0.066,3.383-0.066,4.35-0.4c0.134-0.066,0.65-0.383,1.55-0.949c0.733-0.5,1.351-0.767,1.851-0.801
			c0.399-0.033,1.283-0.183,2.649-0.449c1.167-0.2,2.134-0.301,2.9-0.301c0.934,0,1.6,0.184,2,0.551
			C179.63,324.06,179.905,324.343,180.275,324.75z M151.5,327.225c-0.781-0.149-1.548-0.225-2.3-0.225c-1.033,0-3.05,0.25-6.05,0.75
			c-2.534,0.434-4.4,0.75-5.601,0.95c-1.742,0.249-2.759,0.299-3.05,0.149c0.023,0.011,0.057,0.011,0.1,0
			c0.197-0.065,0.313-0.099,0.351-0.1c-0.165,0-0.348,0-0.55,0c-1.279-0.046-3.33-0.212-6.15-0.5c-3.333-0.366-5-0.616-5-0.75
			c-0.033,0-0.067,0-0.1,0c-0.887,0.029-2.42,0.413-4.6,1.15c-2.233,0.733-3.767,1.1-4.6,1.1c-1.277,0-2.228-0.066-2.85-0.2
			c0.419,0.014,0.911,0.03,1.475,0.05c1.786,0.058,3.953-0.567,6.5-1.875c2.547-1.307,3.905-1.965,4.075-1.975
			c0.042-0.001,0.117,0.024,0.225,0.075c0.103,0.041,0.236,0.107,0.4,0.2c1.197,0.527,2.722,0.986,4.575,1.375
			c0.521,0.105,1.037,0.197,1.551,0.274c1.408,0.217,2.775,0.325,4.1,0.325c0.033,0,2.417-0.3,7.15-0.9
			c3.872-0.498,6.039-0.715,6.5-0.649c-0.034,0.033-0.084,0.05-0.15,0.05l6.15,0.25c0,0.066,0.083,0.1,0.25,0.1
			C153.552,326.913,152.752,327.038,151.5,327.225z M159.875,320.875c1.041,0.081,1.583,0.289,1.625,0.625
			c-1.6,0.366-3.767,0.733-6.5,1.1h-3.6v-0.25l0.25-0.5c-0.134,0-0.267-0.033-0.4-0.1c-0.167-0.1-0.35-0.15-0.55-0.15
			c-0.667,0-1.351,0.167-2.05,0.5c-0.934,0.467-2.267,0.851-4,1.15c-0.2,0.033-1.584,0.2-4.15,0.5c-0.379,0.04-0.713,0.148-1,0.325
			c-1.194-0.077-2.562-0.102-4.1-0.075c-0.101-0.147-0.15-0.313-0.15-0.5c0.167-0.333,0.25-0.634,0.25-0.9h0.9
			c0.133,0.067,0.566,0.167,1.3,0.301c0.767,0.133,1.35,0.199,1.75,0.199c1.833,0,3.916-0.283,6.25-0.85
			c3.434-0.833,5.416-1.3,5.95-1.4h1.25v1.4h1.25c0.233-0.134,1.066-0.366,2.5-0.7c1.333-0.267,2.333-0.45,3-0.55L159.875,320.875z
			 M114.4,327.1h-0.15l-11.85,1.5v0.25c0.067,0,0.1,0.051,0.1,0.15c0.133,0.033,0.383,0.083,0.75,0.15c0.3,0.1,0.467,0.25,0.5,0.449
			c-0.2,0.034-0.683,0.217-1.45,0.551c-0.337,0.122-0.97,0.188-1.9,0.199c0-0.066-0.017-0.1-0.05-0.1l-0.025,0.05
			c-0.27-0.072-1.128-0.122-2.575-0.149c-1.8-0.034-2.75-0.051-2.85-0.051c-0.933,0-2.316,0.25-4.15,0.75
			c-1.867,0.5-3.067,0.75-3.6,0.75c-3.733-0.399-5.883-0.6-6.45-0.6c-1.467,0.167-2.917,0.333-4.35,0.5
			c-2.9,0.366-4.35,0.616-4.35,0.75c-0.27-0.002-0.645-0.068-1.125-0.2c0.145,0.018,0.303,0.034,0.475,0.05
			c0.6,0,1.333-0.133,2.2-0.399c1.034-0.334,2.184-0.566,3.45-0.7c2.267-0.267,4.15-0.4,5.65-0.4c0.967,0,1.767,0.067,2.4,0.2
			c0.633,0.134,1.217,0.2,1.75,0.2c0.4,0,1.25-0.233,2.55-0.7c1.733-0.467,3.883-0.7,6.45-0.7c0.4,0,1.483,0.084,3.25,0.25
			c1.4,0,2.6-0.166,3.6-0.5c-2.904-0.135-4.538-0.302-4.9-0.5c1.533-0.866,3.833-1.366,6.9-1.5c2.434-0.166,4.267-0.25,5.5-0.25
			c0.2,0,1.333-0.25,3.4-0.75c0.167,0,0.534,0.084,1.1,0.25C114.584,326.776,114.5,326.943,114.4,327.1z M76.85,328.725
			c-0.731-0.083-1.698-0.125-2.9-0.125c-0.756,0-1.623,0.067-2.6,0.2c-1.414,0.469-2.431,0.785-3.05,0.95
			c-1.367,0.4-2.966,0.6-4.8,0.6c-0.567,0-1.092-0.017-1.575-0.05c-0.811,0.087-2.236,0.254-4.275,0.5
			c-3.033,0.367-4.833,0.55-5.4,0.55c-1.333,0-2.5-0.25-3.5-0.75c0.267,0,0.433-0.033,0.5-0.1h0.1c-0.022,0.037-0.055,0.07-0.1,0.1
			c1.1,0.167,2.283,0.25,3.55,0.25c0.9,0,1.617-0.1,2.15-0.3c0.7-0.233,1.633-0.416,2.8-0.55c0.438-0.046,0.988-0.071,1.65-0.075
			c0.294,0.007,0.611,0.015,0.95,0.025l3.05,0.149c0.439,0,0.864-0.017,1.275-0.05c0.617-0.063,1.201-0.171,1.75-0.325
			c0.695-0.187,1.336-0.444,1.925-0.774c1.367-0.8,2.8-1.2,4.3-1.2c0.723,0,1.29,0.009,1.7,0.025c0.333,0.001,0.567,0.01,0.7,0.024
			c1.167,0.033,1.983,0.184,2.45,0.45C77.282,328.417,77.066,328.575,76.85,328.725z"/>
		<path style="fill-rule:evenodd;clip-rule:evenodd;fill-opacity:0.451;" d="M159.875,320.875L159.65,321
			c-0.667,0.1-1.667,0.283-3,0.55c-1.434,0.334-2.267,0.566-2.5,0.7h-1.25v-1.4h-1.25c-0.534,0.101-2.517,0.567-5.95,1.4
			c-2.334,0.566-4.417,0.85-6.25,0.85c-0.4,0-0.983-0.066-1.75-0.199c-0.733-0.134-1.167-0.233-1.3-0.301h-0.9
			c0,0.267-0.083,0.567-0.25,0.9c0,0.187,0.05,0.353,0.15,0.5c1.538-0.026,2.905-0.002,4.1,0.075c0.172,0.005,0.339,0.013,0.5,0.024
			c4.2,0.301,7.816,0.684,10.85,1.15c2.167,0.333,4.117,0.5,5.851,0.5c2.399,0,4.25-0.134,5.55-0.4
			c1.467-0.333,2.934-0.949,4.4-1.85c1-0.634,2.783-1.316,5.35-2.05c2.8-0.8,5.116-1.2,6.95-1.2c0.434,0,1.316,0.184,2.649,0.55
			c2.4,0.634,3.917,1.033,4.551,1.2c0.566,0.134,2.116,0.384,4.649,0.75c2.8,0.4,5,0.767,6.601,1.1
			c3.267,0.634,5.783,1.067,7.55,1.301c0.436,0.062,2.294,0.271,5.575,0.625c0.238,0.023,0.479,0.048,0.725,0.074h-0.1
			c-0.567,0.134-1.767,0.284-3.601,0.45c-1.767,0.2-2.816,0.3-3.149,0.3c-0.367,0-0.851-0.083-1.45-0.25
			c-0.601-0.166-1.101-0.25-1.5-0.25c-1.967,0.267-3.867,0.517-5.7,0.75c-0.866,0.101-1.634,0.301-2.3,0.601
			c-0.601,0.267-1.084,0.399-1.45,0.399c-0.434,0-1.116-0.083-2.05-0.25c-0.967-0.166-1.601-0.25-1.9-0.25
			c-1.066,0-3.816,0.4-8.25,1.2c-2.476,0.465-4.259,0.798-5.35,1c-0.403,0.069-0.711,0.119-0.925,0.15
			c-0.19,0.033-0.299,0.05-0.325,0.05c-0.367-0.1-0.634-0.15-0.8-0.15c0.066-0.066,0.1-0.149,0.1-0.25
			c0.967-0.199,2.35-0.716,4.15-1.55c2.6-1.2,4.1-1.883,4.5-2.05c-0.334-0.388-0.626-0.721-0.875-1
			c-0.37-0.407-0.646-0.69-0.825-0.85c-0.4-0.367-1.066-0.551-2-0.551c-0.767,0-1.733,0.101-2.9,0.301
			c-1.366,0.267-2.25,0.416-2.649,0.449c-0.5,0.034-1.117,0.301-1.851,0.801c-0.899,0.566-1.416,0.883-1.55,0.949
			c-0.967,0.334-2.417,0.467-4.35,0.4c-2.101-0.033-3.601,0.05-4.5,0.25c0.866,0.467,2.566,0.7,5.1,0.7
			c1.333,0.033,3.083,0,5.25-0.101v0.15c-0.2,0.066-1.083,0.184-2.65,0.35c-1.8,0.167-3.233,0.25-4.3,0.25
			c-4.8-0.333-7.3-0.5-7.5-0.5c-0.366,0-1.1,0.117-2.2,0.351c-0.405,0.073-0.78,0.132-1.125,0.175
			c-0.162,0.023-0.321,0.04-0.475,0.05c-0.362,0.05-0.68,0.075-0.95,0.075c-1.033,0-1.8-0.083-2.3-0.25v-0.15
			c0.333,0,1.267-0.116,2.8-0.35c0.068-0.01,0.135-0.019,0.2-0.025c1.252-0.187,2.052-0.312,2.4-0.375c-0.167,0-0.25-0.033-0.25-0.1
			l-6.15-0.25c0.066,0,0.116-0.017,0.15-0.05c0.065,0.013,0.099,0.029,0.1,0.05c0-0.066-0.017-0.1-0.05-0.1
			c-0.012,0.022-0.028,0.039-0.05,0.05c-0.461-0.065-2.628,0.151-6.5,0.649c-4.733,0.601-7.117,0.9-7.15,0.9
			c-1.324,0-2.691-0.108-4.1-0.325c-0.514-0.077-1.03-0.169-1.551-0.274c-1.853-0.389-3.378-0.848-4.575-1.375
			c-0.164-0.093-0.297-0.159-0.4-0.2c-0.108-0.051-0.184-0.076-0.225-0.075c-0.169,0.01-1.528,0.668-4.075,1.975
			c-2.547,1.308-4.714,1.933-6.5,1.875c-0.564-0.02-1.056-0.036-1.475-0.05c-0.222-0.008-0.422-0.016-0.6-0.024
			c-0.562-0.016-0.928-0.023-1.1-0.025c0.067-0.1,0.1-0.184,0.1-0.25c1.867-0.467,2.9-0.75,3.1-0.85
			c0.832-0.313,1.432-0.745,1.8-1.301c0.101-0.156,0.184-0.323,0.25-0.5c-0.566-0.166-0.933-0.25-1.1-0.25
			c-2.066,0.5-3.2,0.75-3.4,0.75c-1.233,0-3.066,0.084-5.5,0.25c-3.066,0.134-5.367,0.634-6.9,1.5c0.362,0.198,1.996,0.365,4.9,0.5
			c-1,0.334-2.2,0.5-3.6,0.5c-1.767-0.166-2.85-0.25-3.25-0.25c-2.566,0-4.716,0.233-6.45,0.7c-1.3,0.467-2.15,0.7-2.55,0.7
			c-0.533,0-1.117-0.066-1.75-0.2c-0.633-0.133-1.433-0.2-2.4-0.2c-1.5,0-3.383,0.134-5.65,0.4c-1.267,0.134-2.417,0.366-3.45,0.7
			c-0.867,0.267-1.6,0.399-2.2,0.399c-0.172-0.016-0.33-0.032-0.475-0.05c-0.495-0.033-0.87-0.05-1.125-0.05
			c0.1-0.1,0.15-0.184,0.15-0.25c0.234-0.008,0.484-0.033,0.75-0.075c0.835-0.139,1.802-0.464,2.9-0.975
			c1.11-0.527,2.21-1.186,3.3-1.976c0.216-0.149,0.432-0.308,0.65-0.475c-0.467-0.267-1.283-0.417-2.45-0.45
			c-0.133-0.015-0.366-0.023-0.7-0.024c-0.41-0.017-0.977-0.025-1.7-0.025c-1.5,0-2.933,0.4-4.3,1.2
			c-0.589,0.33-1.23,0.588-1.925,0.774c-0.549,0.154-1.133,0.263-1.75,0.325c-0.411,0.033-0.836,0.05-1.275,0.05l-3.05-0.149
			c-0.339-0.011-0.656-0.019-0.95-0.025c-0.662,0.004-1.211,0.029-1.65,0.075c-1.167,0.134-2.1,0.316-2.8,0.55
			c-0.534,0.2-1.25,0.3-2.15,0.3c-1.267,0-2.45-0.083-3.55-0.25c0.045-0.029,0.078-0.063,0.1-0.1c0.033-0.045,0.05-0.095,0.05-0.15
			c0.031,0,0.064,0,0.1,0c0.19-0.005,0.398-0.021,0.625-0.05c0.021-0.012,0.046-0.02,0.075-0.024
			c0.709,0.002,1.368-0.031,1.975-0.101c0.632-0.068,1.207-0.177,1.725-0.325c0.367-0.1,1.017-0.166,1.95-0.199
			c1.1-0.034,2.4-0.217,3.9-0.551c1.333-0.3,3.717-0.75,7.15-1.35c0.434-0.066,1.783-0.5,4.05-1.3c1.767-0.634,3.45-0.95,5.05-0.95
			c1.333,0,2.15,0.25,2.45,0.75c0.333,0.6,1.183,0.967,2.55,1.1c3.267,0.334,4.983,0.5,5.15,0.5c0.5,0.034,1.767,0.034,3.8,0
			c1.867,0,2.983-0.017,3.35-0.05c0.6-0.033,1.3-0.184,2.1-0.45c0.633-0.199,1.267-0.483,1.9-0.85c0.733-0.233,2.133-0.4,4.2-0.5
			c1.567-0.1,3.867-0.616,6.9-1.55c2.8-0.9,5.434-1.351,7.9-1.351c2.267,0,4.083,0.167,5.45,0.5c1.5,0.367,3.717,0.584,6.65,0.65
			c0.159,0,0.359,0,0.6,0c-0.066-0.381-0.1-0.581-0.1-0.6c0-1.101,0.933-1.851,2.8-2.25c1.233-0.267,3.217-0.4,5.95-0.4
			c2.066,0,4.35-0.333,6.85-1s4-1,4.5-1c2.7,0.934,4.116,1.434,4.25,1.5c0.366,0.134,1.45,0.217,3.25,0.25
			c0.312,0.011,0.645,0.02,1,0.025c0.551,0.021,1.15,0.038,1.8,0.05c0.199,0.012,0.398,0.02,0.601,0.024L159.875,320.875z"/>
	</g>
</g>
<use xlink:href="#redtree_x5F_cluster_x5F_02"  width="124.874" height="165.95" y="-165.95" transform="matrix(2 0 0 -2 0 0)" style="overflow:visible;"/>
</svg>
