<?xml version="1.0" encoding="iso-8859-1"?>
<!-- Generator: Adobe Illustrator 16.0.0, SVG Export Plug-In . SVG Version: 6.00 Build 0)  -->
<!DOCTYPE svg PUBLIC "-//W3C//DTD SVG 1.1//EN" "http://www.w3.org/Graphics/SVG/1.1/DTD/svg11.dtd">
<svg version="1.1" id="Layer_1" xmlns="http://www.w3.org/2000/svg" xmlns:xlink="http://www.w3.org/1999/xlink" x="0px" y="0px"
	 width="354px" height="186px" viewBox="0 0 354 186" style="enable-background:new 0 0 354 186;" xml:space="preserve">
<symbol  id="redtree_x5F_cluster_x5F_03" viewBox="-0.022 -91.55 175.735 91.55">
	<g id="Layer_3_1_">
		<g>
			<path style="fill-rule:evenodd;clip-rule:evenodd;fill:#492A31;" d="M167.3-11.7c0.034-0.133,0.067-0.283,0.1-0.45
				c0.033-0.167,0.15-0.283,0.35-0.35c0.333-0.233,0.567-0.65,0.7-1.25c0.1-0.233,0.183-0.483,0.25-0.75
				c0.267-1.033,0.633-1.8,1.1-2.3c0.167-0.167,0.317-0.317,0.45-0.45c0.067-0.133,0.117-0.283,0.15-0.45
				c0.133-0.333,0.4-0.65,0.8-0.95c0.133-0.067,0.233-0.1,0.3-0.1c0.967-0.067,1.583-0.567,1.85-1.5c0.133-0.3,0.25-0.733,0.35-1.3
				c0.066-0.467,0.1-0.934,0.1-1.4c0-0.667,0.15-1.167,0.45-1.5c0.1-0.167,0.15-0.35,0.15-0.55c0-0.933,0.033-1.883,0.1-2.85
				c0.033-0.133,0.1-0.217,0.2-0.25c0.633-0.3,0.75-0.75,0.35-1.35c-0.233-0.367-0.35-0.733-0.35-1.1c0-0.333,0.083-0.7,0.25-1.1
				c0.6-1.167,0.816-2.617,0.65-4.35c-0.133-1-0.1-1.983,0.1-2.95c0.033-0.167,0-0.333-0.1-0.5c-0.367-1.267-0.85-2.45-1.45-3.55
				v-0.05c0.033-0.067,0.083-0.133,0.15-0.2c0.667-0.767,1-1.483,1-2.15c0-0.4-0.333-0.883-1-1.45c-0.667-0.566-1-1.05-1-1.45
				c0.434,0,0.833-0.15,1.2-0.45c0.367-0.267,0.55-0.533,0.55-0.8c0-0.167-0.55-0.75-1.65-1.75c-1.333-1.233-2.367-2.4-3.1-3.5
				l1.5-0.75c-0.466-0.2-0.983-0.534-1.55-1c-0.6-0.5-1-0.917-1.2-1.25h0.5c-0.733-0.2-1.333-0.6-1.8-1.2
				c-0.133-0.133-0.283-0.333-0.45-0.6c-0.233-0.267-0.483-0.583-0.75-0.95c0.067,0,0.184-0.034,0.35-0.1
				c0.167-0.1,0.3-0.15,0.4-0.15c-0.1-0.067-0.216-0.133-0.35-0.2c-0.1-0.1-0.15-0.283-0.15-0.55c0-0.934-0.066-1.45-0.2-1.55
				c-0.1-0.1-1.033-0.333-2.8-0.7c0.333-0.967-0.15-1.667-1.45-2.1c-1.033-0.333-1.717-0.767-2.05-1.3v0.4
				c-0.767,0-1.3-0.317-1.6-0.95c-0.233-0.467-0.284-0.983-0.15-1.55h-0.5c-0.133,0.133-0.383,0.333-0.75,0.6
				c-0.3,0.233-0.466,0.367-0.5,0.4c0-0.167-0.083-0.25-0.25-0.25v-2c-0.566,0-1.283-0.083-2.15-0.25
				c-0.867-0.167-1.367-0.25-1.5-0.25L152-70.8c-0.567,0.167-0.967,0.25-1.2,0.25c-0.033-0.4-0.167-0.75-0.4-1.05
				c-0.1-0.167-0.217-0.316-0.35-0.45h-1.5c0,0.1-0.05,0.233-0.15,0.4c-0.066,0.167-0.1,0.283-0.1,0.35
				c-0.167-0.034-0.5-0.233-1-0.6c-0.433-0.267-0.85-0.4-1.25-0.4c0,0.367-0.017,0.55-0.05,0.55c-0.033,0.133-0.183,0.2-0.45,0.2
				c-0.066,0-0.733-0.25-2-0.75c-1.262-0.499-2.262-0.749-3-0.75c0.172,0.005,0.422,0.172,0.75,0.5v1.5h-1.5l-1-1
				c-0.2,0.367-0.383,0.6-0.55,0.7c-0.067,0.033-0.217,0.05-0.45,0.05c-0.167,0-0.417-0.1-0.75-0.3
				c-0.433-0.267-0.683-0.417-0.75-0.45c0,0.133-0.05,0.3-0.15,0.5c-0.133,0.167-0.25,0.25-0.35,0.25
				c-0.167-0.233-0.267-0.383-0.3-0.45c-0.067-0.033-0.133-0.05-0.2-0.05c-0.667,0.367-1.433,0.75-2.3,1.15
				c-1.8,0.733-3.533,1.1-5.2,1.1v0.75c-0.333-0.067-0.833-0.15-1.5-0.25c-0.566-0.067-0.983-0.15-1.25-0.25
				c0.5,0.466,0.75,0.767,0.75,0.9c0,0.267-0.017,0.417-0.05,0.45c-0.067,0.034-0.133,0.083-0.2,0.15c-1,0-1.583,0.083-1.75,0.25
				h-1.25c0.167-0.167,0.25-0.667,0.25-1.5c-0.1,0-0.183,0.05-0.25,0.15c-0.1,0.066-0.183,0.1-0.25,0.1
				c-0.167,0.4-0.316,0.7-0.45,0.9c-0.067,0.1-0.2,0.25-0.4,0.45c-0.267-0.066-0.567-0.1-0.9-0.1v1.75
				c-0.5-0.167-1.083-0.25-1.75-0.25c0,0.1,0.034,0.233,0.1,0.4c0.1,0.167,0.15,0.283,0.15,0.35h-0.5l-0.25-0.25
				c0.233,0.333,0.567,0.667,1,1c-0.1,0-0.183,0.05-0.25,0.15v0.1c-0.8,0.466-1.716,0.833-2.75,1.1c-1.033,0.233-1.867,0.3-2.5,0.2
				c0.034,0.133,0.284,0.2,0.75,0.2v0.75c-0.1,0-0.183,0.05-0.25,0.15c-0.1,0.066-0.183,0.1-0.25,0.1c0.3,0.167,0.5,0.316,0.6,0.45
				c0.033,0.033,0.083,0.133,0.15,0.3h-0.25c-0.1,0-0.183-0.034-0.25-0.1c-0.1-0.1-0.183-0.15-0.25-0.15
				c0.067,0.133,0.2,0.333,0.4,0.6c0.1,0.133,0.216,0.35,0.35,0.65c-0.167,0-0.55,0.05-1.15,0.15c-0.633,0.066-1,0.1-1.1,0.1v0.25
				l1,1h-0.25c-1.1,0-2.117,0.083-3.05,0.25c-0.7,0.167-1.1,0.25-1.2,0.25c-0.167,0-0.35-0.15-0.55-0.45
				c-0.2-0.233-0.35-0.5-0.45-0.8v0.75c-0.5,0-1.216-0.233-2.15-0.7l-1.6-0.8c0.3,0.733,0.467,1.233,0.5,1.5h-0.25
				c0.067,0.133,0.067,0.3,0,0.5c-0.667-0.333-1.333-0.5-2-0.5c0.133,0.133,0.25,0.3,0.35,0.5c0.1,0.2,0.15,0.367,0.15,0.5h-1.25
				c-1.066-0.3-1.883-0.3-2.45,0c-0.467,0.2-0.817,0.617-1.05,1.25c-0.167-0.233-0.566-0.617-1.2-1.15
				c-0.667-0.533-1.017-0.816-1.05-0.85v1.25c-0.6-0.3-1.017-0.65-1.25-1.05c-0.167-0.3-0.383-0.45-0.65-0.45
				c-0.233,0.167-0.433,0.25-0.6,0.25c-0.333,0.033-0.5-0.3-0.5-1c0-0.233,0.034-0.45,0.1-0.65c0.1-0.167,0.15-0.283,0.15-0.35h-0.5
				c0,0.1,0.034,0.183,0.1,0.25h0.15c-0.133,0.133-0.3,0.216-0.5,0.25c-0.133,0-0.383,0-0.75,0c-0.933,0-2.083-0.184-3.45-0.55
				c-1.333-0.333-2.1-0.65-2.3-0.95c-0.133,0.167-0.233,0.283-0.3,0.35c-0.133,0.1-0.333,0.15-0.6,0.15c-0.433,0-0.967-0.333-1.6-1
				v1.5h-0.5c-0.333-0.333-0.6-0.667-0.8-1v0.75h-0.5c-0.267-0.2-0.483-0.45-0.65-0.75c-0.067-0.167-0.184-0.417-0.35-0.75
				c-0.167,0.267-0.517,0.3-1.05,0.1c-0.5-0.167-0.9-0.45-1.2-0.85c-0.133-0.167-0.45-0.333-0.95-0.5c-0.433-0.167-0.783-0.5-1.05-1
				c0.5,0,0.75-0.083,0.75-0.25c-1-0.367-1.95-0.6-2.85-0.7c-0.333-0.033-1.3-0.05-2.9-0.05c-0.3,0-0.783,0.083-1.45,0.25
				c-0.566,0.167-0.867,0.25-0.9,0.25c-0.433,0-0.967-0.284-1.6-0.85c-0.667-0.6-1.267-0.9-1.8-0.9c-0.2,0-0.467,0.083-0.8,0.25
				c-0.333,0.167-0.6,0.25-0.8,0.25c-0.3,0-0.667-0.05-1.1-0.15c-0.367-0.066-0.667-0.167-0.9-0.3c0.067,0.133,0.1,0.367,0.1,0.7
				h-1.5c0,0.167-0.2,0.25-0.6,0.25c-0.433,0-0.816-0.167-1.15-0.5c0.167,0,0.25-0.083,0.25-0.25h0.25c-1.533-0.1-2.583-0.1-3.15,0
				c-0.934,0.133-1.3,0.716-1.1,1.75c-0.5-0.167-1.167-0.25-2-0.25c0,0.167-0.05,0.367-0.15,0.6c-0.133,0.267-0.283,0.4-0.45,0.4
				c-2.267-0.167-3.733-0.25-4.4-0.25c0.1,0.033,0.333,0.117,0.7,0.25c0.2,0.066,0.3,0.15,0.3,0.25c-0.8,0-1.217,0-1.25,0
				c-0.467,0.1-0.883,0.433-1.25,1h-1.5v-0.5c-0.167,0.267-0.267,0.417-0.3,0.45c-0.034,0.033-0.1,0.05-0.2,0.05
				c-0.733,0-1.283-0.184-1.65-0.55c-0.434-0.367-0.55-0.85-0.35-1.45c-0.167,0-0.4-0.034-0.7-0.1c-0.333-0.1-0.716-0.15-1.15-0.15
				c-0.2,0-1.083,0.25-2.65,0.75c-0.4,0-1-0.167-1.8-0.5c-0.733-0.3-1.55-0.467-2.45-0.5c0.033,0.033,0.083,0.083,0.15,0.15
				c0.167,0.133,0.2,0.333,0.1,0.6c-0.233,0-0.517-0.05-0.85-0.15c-0.3-0.1-0.517-0.216-0.65-0.35
				c-0.167,0.433-0.283,0.667-0.35,0.7c-0.033,0.033-0.283,0.05-0.75,0.05c-0.4,0-0.9-0.117-1.5-0.35c-0.833-0.3-1.3-0.684-1.4-1.15
				H23.5c-0.4,0.333-0.733,0.35-1,0.05c-0.433-0.467-0.767-0.733-1-0.8c-0.1,0.133-0.283,0.417-0.55,0.85
				c-0.167,0.267-0.35,0.4-0.55,0.4c-0.433,0-0.983-0.167-1.65-0.5c-0.633-0.333-1.133-0.5-1.5-0.5c-0.4,0.3-0.817,0.466-1.25,0.5
				c0.2,0.8-0.167,1.216-1.1,1.25c-1.333,0.066-2.3,0.4-2.9,1c-0.067-0.067-0.167-0.184-0.3-0.35c-0.1-0.1-0.284-0.15-0.55-0.15
				c-0.133,0-0.783,0.417-1.95,1.25c-1.167,0.833-2.067,1.25-2.7,1.25c0.3,0.1,0.533,0.267,0.7,0.5c0.1,0.167,0.117,0.333,0.05,0.5
				c-0.4,0.066-0.733,0.283-1,0.65c-0.2,0.3-0.367,0.7-0.5,1.2c-0.333,1.3-0.75,2.1-1.25,2.4v-1.75c0,0.2-0.367,0.883-1.1,2.05
				c-0.767,1.1-1.15,1.667-1.15,1.7c0,0.2,0.083,0.35,0.25,0.45c0.167,0.067,0.25,0.217,0.25,0.45c0,0.467-0.017,0.717-0.05,0.75
				c-0.1,0.133-0.5,0.167-1.2,0.1v0.25c0.467,0.167,0.8,0.5,1,1H1.25c1,0.3,1.633,0.8,1.9,1.5c-0.2,0.233-0.5,0.417-0.9,0.55
				c-0.5,0.167-0.8,0.45-0.9,0.85c0,0.867-0.25,1.583-0.75,2.15c-0.067,0.1-0.1,0.25-0.1,0.45c-0.333,0-0.233,0.033,0.3,0.1
				c0.4,0.067,0.583,0.333,0.55,0.8c0,0.066-0.033,0.133-0.1,0.2c-0.167,0.733-0.5,1.45-1,2.15C0.017-41.9-0.067-41.433,0-40.9
				c0.033,0.167,0.1,0.35,0.2,0.55c0.267,0.533,0.367,0.983,0.3,1.35c0.333-0.133,0.467,0,0.4,0.4c0,0.2,0.033,0.383,0.1,0.55
				c0.1,0.733,0.367,0.917,0.8,0.55l0.1,0.35C2-36.75,2.083-36.367,2.15-36c0.067,0.3,0.133,0.583,0.2,0.85
				c0.133,0.2,0.283,0.4,0.45,0.6c1,0.9,1.434,2.066,1.3,3.5c-0.033,0.3,0.117,0.483,0.45,0.55c0.434,0.1,0.75,0.383,0.95,0.85
				c0.067,0.133,0.1,0.25,0.1,0.35c0.2,0.367,0.4,0.7,0.6,1c0,0.033,0.017,0.05,0.05,0.05c0.1,0.067,0.217,0.117,0.35,0.15
				c0.6,0.033,1.033,0.3,1.3,0.8c0.1,0.167,0.2,0.466,0.3,0.9c0.066,0.267,0.1,0.55,0.1,0.85c0.833-0.467,1.434-0.284,1.8,0.55
				c0.1,0.1,0.183,0.15,0.25,0.15c0.1,0,0.2,0,0.3,0c1.167-0.233,2.05,0,2.65,0.7c0.467,0.5,0.967,0.55,1.5,0.15
				c0.133-0.067,0.284-0.117,0.45-0.15c0.733-0.1,1.367-0.1,1.9,0s1,0.267,1.4,0.5c0.233,0.167,0.483,0.316,0.75,0.45
				c0.867,0.3,1.85,0.45,2.95,0.45c0.2-0.033,0.383,0,0.55,0.1c0.567,0.333,0.95,0.417,1.15,0.25c0.233-0.233,0.533-0.434,0.9-0.6
				c0.8-0.267,1.667-0.4,2.6-0.4c0.3,0,0.55-0.083,0.75-0.25c0.367-0.233,0.716-0.434,1.05-0.6c0.333-0.2,0.533-0.15,0.6,0.15
				c0.033,0.467,0.167,0.5,0.4,0.1c0.133,0.5,0.25,0.85,0.35,1.05c0.533,0.067,0.95,0,1.25-0.2c0.066,0.867,0.25,1.7,0.55,2.5
				c0.133,0.433,0.283,0.95,0.45,1.55c0.066,0.333,0.133,0.684,0.2,1.05c0.167,1.033,0.517,1.9,1.05,2.6
				c0.3-0.267,0.4-0.733,0.3-1.4c0-0.133,0-0.233,0-0.3c0.8-0.1,1.283,0.167,1.45,0.8c0.033,0.133,0.117,0.267,0.25,0.4
				c0.467,0.467,0.967,1,1.5,1.6c0.467,0.633,1,1.367,1.6,2.2c0.1,0.133,0.15,0.316,0.15,0.55c0.2,1.3,0,2.25-0.6,2.85
				C39.417-9.183,40.167-9.3,41-9.1c0.233,0.067,0.433,0.217,0.6,0.45c0.167,0.233,0.283,0.5,0.35,0.8
				c0.2-0.2,0.417-0.383,0.65-0.55c0.633,0.367,1.316,0.9,2.05,1.6c0.333,0.367,0.8,0.55,1.4,0.55c0.2-0.033,0.383,0.017,0.55,0.15
				c0.933,0.567,1.983,0.9,3.15,1C50.817-5,51.8-4.783,52.7-4.45c0.633,0.233,1.3,0.383,2,0.45c0.2,0,0.383,0.067,0.55,0.2
				c0.7,0.333,1.217,0.417,1.55,0.25C57-3.617,57.2-3.6,57.4-3.5c0.033,0.033,0.067,0.067,0.1,0.1c0.5,0.333,1,0.617,1.5,0.85
				c0.233,0.1,0.433,0.267,0.6,0.5c0.267,0.3,0.667,0.517,1.2,0.65c0.167,0.033,0.35,0.083,0.55,0.15
				c0.5,0.133,0.783-0.017,0.85-0.45c0.033-0.033,0.133-0.066,0.3-0.1c0.867-0.167,1.4,0.133,1.6,0.9c0,0.167,0.05,0.35,0.15,0.55
				c0.467-0.566,1.25-0.8,2.35-0.7c0.467,0,0.933,0.05,1.4,0.15c0.4,0.1,0.8,0.167,1.2,0.2c0.233,0,0.45-0.133,0.65-0.4
				c0.333-0.4,0.783-0.566,1.35-0.5c0.966,0.067,1.933,0.15,2.9,0.25c0.4,0,0.633-0.117,0.7-0.35c0.034-0.167,0.1-0.283,0.2-0.35
				c0.467-0.333,1.15-0.467,2.05-0.4c0.233,0,0.467-0.117,0.7-0.35c0.167-0.2,0.383-0.4,0.65-0.6c0.167-0.1,0.317-0.217,0.45-0.35
				c0.167-0.167,0.316-0.3,0.45-0.4c0.7-0.567,1.483-0.934,2.35-1.1C82.15-5.383,82.433-5.3,82.5-5
				c-0.067-0.967,0.233-1.617,0.9-1.95c0.067-0.066,0.184-0.133,0.35-0.2c0.067,0,0.15,0.066,0.25,0.2
				c0.3,0.367,0.683,0.383,1.15,0.05c0.6-0.333,1.25-0.417,1.95-0.25c0.133,0,0.25,0.066,0.35,0.2c0.5,0.434,0.867,1,1.1,1.7
				c0.167,0.567,0.483,0.883,0.95,0.95c0.1,0.033,0.2,0.017,0.3-0.05c0.067,0.567,0.2,0.983,0.4,1.25c0.1,0.1,0.15,0.25,0.15,0.45
				c0.533-0.233,0.9-0.684,1.1-1.35c0.033-0.167,0.117-0.317,0.25-0.45c0.066-0.133,0.133-0.3,0.2-0.5c0.033-0.1,0.05-0.2,0.05-0.3
				c-0.1-0.9,0.2-1.533,0.9-1.9c0.167-0.1,0.267-0.25,0.3-0.45c0.2-0.667,0.133-1.25-0.2-1.75c1.167-0.066,1.75-0.633,1.75-1.7
				c-0.034-0.367-0.233-0.667-0.6-0.9c0.933,0.167,1.316-0.2,1.15-1.1c-0.067-0.3-0.133-0.6-0.2-0.9c-0.066-0.3,0.1-0.45,0.5-0.45
				c0.1,0,0.184-0.067,0.25-0.2c0.367-0.667,0.367-1.3,0-1.9c-0.3-0.433-0.466-0.933-0.5-1.5c0-0.033-0.083-0.067-0.25-0.1
				c-0.133-0.033-0.25-0.05-0.35-0.05c-0.6,0.033-1.083-0.117-1.45-0.45c-0.267-0.233-0.367-0.483-0.3-0.75
				c0-0.267,0.15-0.566,0.45-0.9c0.467-0.6,0.9-1.1,1.3-1.5c0.1-0.133,0.216-0.2,0.35-0.2c0.3-0.133,0.467-0.45,0.5-0.95
				c0.034-0.033,0.133-0.067,0.3-0.1c0.6-0.033,0.783-0.483,0.55-1.35c0.3,0.567,0.883,0.85,1.75,0.85
				c0.133-0.033,0.217-0.133,0.25-0.3c0.033-0.5,0.15-0.95,0.35-1.35c0.167-0.267,0.25-0.5,0.25-0.7c-0.1-0.8,0.2-1.233,0.9-1.3
				c0.6,0,0.833-0.333,0.7-1c-0.067-0.5-0.1-0.983-0.1-1.45c0.633,0.167,1.067,0.133,1.3-0.1c0.1-0.133,0.184-0.267,0.25-0.4
				c0.133-0.066,0.267-0.133,0.4-0.2c0.433-0.1,0.833-0.117,1.2-0.05c0.033,0,0.067,0,0.1,0c0.267,0.133,0.567,0.217,0.9,0.25
				c0.167,0.1,0.317,0.184,0.45,0.25c0.333,0.133,0.583,0.267,0.75,0.4c0.133,0.067,0.283,0.1,0.45,0.1c0.667,0,1.083,0.4,1.25,1.2
				c0.034,0.167,0.067,0.35,0.1,0.55c0.167,0.367,0.317,0.75,0.45,1.15h0.05c-0.1,0.1-0.167,0.284-0.2,0.55
				c-0.133,0.533-0.25,0.95-0.35,1.25c-0.1,0.267-0.15,0.55-0.15,0.85c0,0.933,0.1,1.883,0.3,2.85c0.167,0.2,0.25,0.4,0.25,0.6
				c0.9,0.4,1.45,1,1.65,1.8c0.1,0.433,0.15,0.9,0.15,1.4s0,0.983,0,1.45c0.5,0.133,0.833,0.05,1-0.25c0.267,0.4,0.467,0.8,0.6,1.2
				c0.067,0.2,0.1-0.033,0.1-0.7c0.533,0,0.833,0.117,0.9,0.35c0.167-0.233,0.35-0.35,0.55-0.35c0.6,0.767,1.517,1.133,2.75,1.1
				c0.466,0.533,0.95,1.067,1.45,1.6c0.533,0.533,1.067,1.017,1.6,1.45c0,1.433,0.05,2.883,0.15,4.35c0,0.067,0.033,0.15,0.1,0.25
				c0.433,0.2,0.767,0.233,1,0.1c0.367-0.2,0.533-0.133,0.5,0.2c0.3,0,0.4-0.184,0.3-0.55c0-0.133,0-0.25,0-0.35
				c0.767,0.4,1.45,0.883,2.05,1.45c0.267,0.267,0.733,0.4,1.4,0.4c1.033-0.066,2.017,0.15,2.95,0.65
				c0.367,0.167,0.733,0.333,1.1,0.5c0.3,0.133,0.6,0.3,0.9,0.5c1.667,1,3.017,2.267,4.05,3.8c-0.267-0.5-0.467-1-0.6-1.5
				c0.767-0.233,1.283-0.167,1.55,0.2c0.167,0.167,0.333,0.283,0.5,0.35c0.533,0.267,1.133,0.35,1.8,0.25
				c0.167-0.033,0.35-0.05,0.55-0.05c0.2,0,0.383-0.017,0.55-0.05c0.867-0.067,1.733-0.117,2.6-0.15
				c0.367-0.033,0.633-0.167,0.8-0.4c0.033-0.1,0.167-0.15,0.4-0.15c0.867,0,1.717,0.083,2.55,0.25c0.1,0.033,0.2,0.15,0.3,0.35
				c0.767-0.867,1.733-1.55,2.9-2.05c0.333,0.167,0.45,0.567,0.35,1.2c0.233-0.367,0.517-0.633,0.85-0.8
				c1.2-0.567,2.55-0.883,4.05-0.95c0.2-0.033,0.4-0.083,0.6-0.15c1.1-0.467,2.267-0.95,3.5-1.45c0.367-0.1,0.733-0.183,1.1-0.25
				c0.267-0.066,0.55-0.1,0.85-0.1c0.667-0.066,0.966,0.3,0.9,1.1c0.4-1.867,1.45-3.15,3.15-3.85c0.2-0.066,0.4-0.133,0.6-0.2
				c0.833-0.167,1.683-0.4,2.55-0.7c0.633-0.233,1.1-0.533,1.4-0.9c0.1-0.133,0.15-0.283,0.15-0.45
				C167.2-10.883,167.233-11.3,167.3-11.7z"/>
		</g>
		<g>
			<path style="fill-rule:evenodd;clip-rule:evenodd;fill:#26211A;" d="M51.1-36.65c-0.067,0.867-0.117,1.6-0.15,2.2
				c0.233-1,0.367-1.867,0.4-2.6c0.033-1.067,0.2-1.95,0.5-2.65c0.167,0,0.367,0.117,0.6,0.35c0.267,0.233,0.55,0.567,0.85,1
				c0.167,0.267,0.317,0.517,0.45,0.75c-0.067-0.2-0.133-0.4-0.2-0.6c-0.1-0.2-0.2-0.383-0.3-0.55c-0.3-0.533-0.767-1.083-1.4-1.65
				l-0.05-0.65c0.1-0.5,0.25-1.083,0.45-1.75c0.067,0,0.117,0,0.15,0s0.184,0.066,0.45,0.2c0.233,0.133,0.583,0.317,1.05,0.55
				c0.467,0.233,0.35,0.133-0.35-0.3c-0.7-0.467-1.066-0.7-1.1-0.7c-0.034-0.034-0.067-0.067-0.1-0.1c-0.133-0.167-0.3-0.4-0.5-0.7
				c-0.167-0.3-0.333-0.683-0.5-1.15c-0.267-0.633-0.45-1.167-0.55-1.6c-0.033-0.133-0.066-0.267-0.1-0.4c0-0.033,0-0.067,0-0.1
				v-0.05c-0.1-0.6-0.167-1.2-0.2-1.8c-0.033-0.367-0.067-0.75-0.1-1.15v-0.05c-0.1-1.067-0.15-2.133-0.15-3.2c0-0.033,0-0.1,0-0.2
				c0.033-2.1,0.2-4.217,0.5-6.35c0.3-2.067,0.483-3.767,0.55-5.1c0.9,1.033,1.633,3.333,2.2,6.9c0.033,0.3,0.067,0.567,0.1,0.8
				c0,0.033,0,0.066,0,0.1c-0.167,0.633-0.35,2-0.55,4.1c0,0.067,0,0.117,0,0.15c-0.033,0.1-0.066,0.184-0.1,0.25
				c-0.1,0.133-0.184,0.233-0.25,0.3c-0.434,0.333-0.733,0.55-0.9,0.65c-0.2,0.233-0.316,0.383-0.35,0.45
				c-0.133,0.4-0.217,0.617-0.25,0.65c-0.034,0.1-0.083,0.2-0.15,0.3c-0.066,0.2-0.167,0.45-0.3,0.75
				c0.267-0.533,0.517-0.933,0.75-1.2c0.1-0.133,0.183-0.267,0.25-0.4s0.133-0.233,0.2-0.3c0.033-0.067,0.117-0.133,0.25-0.2
				c0.033-0.033,0.1-0.066,0.2-0.1c0.2-0.1,0.4-0.117,0.6-0.05c0.033,0.133,0.05,0.267,0.05,0.4c0,0.034,0,0.083,0,0.15v0.15
				c0,0.233-0.017,0.45-0.05,0.65c0,0.067,0,0.133,0,0.2c0,0.066-0.017,0.533-0.05,1.4c0,0.3-0.067,1.4-0.2,3.3
				c0.167-1.5,0.3-2.633,0.4-3.4c0.033-0.133,0.05-0.25,0.05-0.35c0.066-0.333,0.117-0.55,0.15-0.65c0.433,0.3,1,1.3,1.7,3
				c0.067,0.2,0.15,0.383,0.25,0.55c-0.066,0.534-0.15,1.034-0.25,1.5c-0.133,0.434-0.267,0.967-0.4,1.6s-0.2,1.367-0.2,2.2
				c0,0.267,0.05,0.667,0.15,1.2c0.033,0.567,0.083,1,0.15,1.3c0-0.233-0.017-0.633-0.05-1.2c0-0.233,0-0.467,0-0.7
				c-0.034-0.267-0.034-0.534,0-0.8c0.033-0.433,0.05-0.717,0.05-0.85c0.033-0.133,0.1-0.45,0.2-0.95
				c0.133-0.467,0.283-1.083,0.45-1.85l0.25-1.2c0.333,1.133,0.7,2.184,1.1,3.15c0.098,1.013,0.198,1.929,0.3,2.75
				c-0.066-1.2-0.083-2.133-0.05-2.8c-0.367-1.066-0.75-2.133-1.15-3.2c-0.4-1.034-0.733-1.75-1-2.15
				c-0.267-0.4-0.517-0.867-0.75-1.4c-0.167-0.133-0.383-0.367-0.65-0.7l-0.05-1.5c0-0.034,0-0.067,0-0.1s0-0.067,0-0.1
				c0-0.1,0-0.217,0-0.35v-0.05c0.167-1.467,0.3-2.483,0.4-3.05c0.067,0.567,0.133,1.1,0.2,1.6v0.05c0.1,0.767,0.183,1.4,0.25,1.9
				c0,0.033,0,0.066,0,0.1c0,0.066,0,0.117,0,0.15c0,0.1,0.017,0.183,0.05,0.25c0.034,0.133,0.017,0.6-0.05,1.4L54.4-51
				c0-0.067,0.017-0.15,0.05-0.25c0-0.1,0.017-0.233,0.05-0.4c0-0.3,0-0.467,0-0.5c0-0.667-0.05-1.333-0.15-2v-0.05
				c-0.1-1.1-0.217-2.183-0.35-3.25c-0.033-0.633-0.1-1.3-0.2-2c-0.033-0.2-0.216-1.083-0.55-2.65v-0.05
				c-0.033-0.1-0.067-0.2-0.1-0.3v-0.05c1,0.767,1.817,1.667,2.45,2.7c0.1,0.133,0.2,0.283,0.3,0.45c0,0.167-0.017,0.333-0.05,0.5
				c0,0.333-0.017,0.65-0.05,0.95c0,0.4,0,0.767,0,1.1c0,0.167,0,0.3,0,0.4c0,0.033,0.034,0.633,0.1,1.8c0-0.1,0.017-0.2,0.05-0.3
				c0.066-1.1,0.1-1.733,0.1-1.9c0.067-0.467,0.117-0.867,0.15-1.2c0.033-0.233,0.066-0.467,0.1-0.7c0.1,0.233,0.2,0.467,0.3,0.7
				c0.367,0.667,0.566,1.167,0.6,1.5c0,0.567-0.067,1-0.2,1.3c-0.133,0.267-0.233,0.567-0.3,0.9c-0.133,0.7-0.184,1.417-0.15,2.15
				c-0.033,0.033-0.033,0.066,0,0.1c0,0.2,0,0.417,0,0.65c0.1,1.066,0.233,2.117,0.4,3.15c0.1,0.6,0.216,1.2,0.35,1.8
				c0.233,0.9,0.467,1.817,0.7,2.75c0.067,0.267,0.133,0.517,0.2,0.75c-0.167-0.767-0.367-1.966-0.6-3.6
				c-0.1-0.5-0.184-1.034-0.25-1.6c0.2,0.033,0.583,0.133,1.15,0.3c0.2,0.067,0.467,0.25,0.8,0.55c0.4,0.4,0.883,0.983,1.45,1.75
				c0.067,0.1,0.15,0.216,0.25,0.35c-0.367-0.8-0.633-1.3-0.8-1.5c-0.2-0.167-0.467-0.433-0.8-0.8c-0.333-0.367-0.6-0.6-0.8-0.7
				c-0.2-0.1-0.583-0.283-1.15-0.55c-0.067-0.033-0.133-0.05-0.2-0.05c-0.133-0.534-0.233-1.284-0.3-2.25
				c-0.1-1.133-0.034-2.1,0.2-2.9c0.233-0.767,0.4-1.267,0.5-1.5c0.1,0.434,0.2,0.867,0.3,1.3l0.35,1.55
				c0.2,0.9,0.25,1.067,0.15,0.5c-0.1-0.566-0.217-1.4-0.35-2.5c-0.133-0.967-0.317-1.833-0.55-2.6
				c-0.033-0.066-0.05-0.133-0.05-0.2c0.467,0,1.067,0.1,1.8,0.3c0.067,0,0.217,0.033,0.45,0.1c0.2,0.067,0.433,0.2,0.7,0.4
				c0.533,0.333,1.2,0.983,2,1.95c-0.267-0.4-0.467-0.717-0.6-0.95c-0.167-0.233-0.283-0.4-0.35-0.5
				c-0.133-0.2-0.55-0.517-1.25-0.95l-0.9-0.45c-0.633-0.167-1.367-0.467-2.2-0.9c-0.133-0.367-0.25-0.684-0.35-0.95
				c-0.133-0.267-0.283-0.65-0.45-1.15c-0.434-0.5-0.9-0.983-1.4-1.45c-0.5-0.466-0.917-0.883-1.25-1.25
				c-0.3-0.333-0.483-0.566-0.55-0.7c-0.1-0.067-0.15-0.184-0.15-0.35c-0.867-3.067-1.517-5.433-1.95-7.1
				c-0.1-1.433-0.183-3.55-0.25-6.35c-0.033-2.933,0.3-5.75,1-8.45c0.233-0.267,0.534-0.483,0.9-0.65c0.6-0.3,1.183-0.383,1.75-0.25
				c0.233,0.066,0.483,0.033,0.75-0.1c0.433-0.2,0.933-0.35,1.5-0.45l2.85-0.35L59.6-88c-0.133-0.2-0.3-0.317-0.5-0.35
				c-0.033,0-0.283,0-0.75,0c-0.233,0-0.65,0.017-1.25,0.05c-0.667,0.066-1.133,0.133-1.4,0.2c-0.633,0.067-1.133,0.217-1.5,0.45
				c-0.1,0.066-0.3,0.1-0.6,0.1c-0.367-0.034-0.617-0.05-0.75-0.05c-0.167,0-0.383,0.017-0.65,0.05
				c-0.267,0.033-0.583,0.066-0.95,0.1l-1.1,0.1c-0.1,0-0.35-0.066-0.75-0.2c-0.233-0.067-0.5-0.167-0.8-0.3
				c-0.767-0.3-1.217-0.483-1.35-0.55H46.4v0.15c0.167,0.067,0.783,0.267,1.85,0.6c0.2,0.066,0.383,0.167,0.55,0.3
				c-0.167,0.033-0.683,0-1.55-0.1c-0.933-0.066-1.533-0.117-1.8-0.15c-0.434-0.033-0.95-0.167-1.55-0.4
				c-0.5-0.167-0.9-0.25-1.2-0.25c-0.233,0-0.367,0-0.4,0v0.1c1.1,0.2,3.034,0.883,5.8,2.05c0,0.233,0.2,0.533,0.6,0.9
				c0.2,0.2,0.35,0.383,0.45,0.55c-0.033,0.133-0.05,0.267-0.05,0.4c-0.267,1.633-0.4,3.333-0.4,5.1c0,0.867,0.1,2.3,0.3,4.3
				c0.233,2,0.367,3.583,0.4,4.75c0.067,1.133,0.1,2.85,0.1,5.15c0,1.434-0.033,2.534-0.1,3.3c-0.033,0.5-0.083,0.867-0.15,1.1
				c-0.1,0.667-0.333,1.4-0.7,2.2c-0.333,0.8-0.517,1.383-0.55,1.75c-0.367,0.867-0.65,1.867-0.85,3
				c-0.066,0.167-0.117,0.367-0.15,0.6v0.05c-0.033,0.2-0.083,0.417-0.15,0.65c-0.5,0.233-1.033,0.566-1.6,1
				c-0.567,0.466-1.217,1.2-1.95,2.2c-0.033,0.067-0.083,0.117-0.15,0.15c-0.633,0.934-1.167,1.883-1.6,2.85
				c0.434-0.533,1.034-1.283,1.8-2.25c0,0.067,0,0.133,0,0.2v0.05c0.033,0.4,0.033,0.75,0,1.05V-47c0,0.033,0,0.1,0,0.2
				c0,0.033,0,0.066,0,0.1c-0.333,0.333-0.65,0.717-0.95,1.15c-0.833,1.2-1.566,2.733-2.2,4.6c-0.3,0.967-0.55,1.867-0.75,2.7
				c0.167-0.467,0.383-1.05,0.65-1.75c0.566-1.5,1.066-2.667,1.5-3.5c0.233-0.4,0.433-0.733,0.6-1c0.566-0.767,0.966-1.333,1.2-1.7
				c-0.133,0.567-0.267,1.284-0.4,2.15c-0.033,0.167-0.05,0.333-0.05,0.5c0.1-0.434,0.183-0.784,0.25-1.05
				c0.1-0.4,0.183-0.667,0.25-0.8c0.066-0.133,0.133-0.367,0.2-0.7l0.25-0.75c0-0.033,0-0.083,0-0.15v-0.25
				c0.033-0.867,0.083-1.5,0.15-1.9c0-0.033,0-0.067,0-0.1c0.4-0.467,0.817-0.883,1.25-1.25c0.467-0.333,0.9-0.65,1.3-0.95
				c0.033-0.033,0.083-0.066,0.15-0.1C46.717-51.317,46.7-51,46.7-50.6c-0.133,1.067-0.3,2.717-0.5,4.95v0.4
				c-0.067,0.633-0.133,1.3-0.2,2c0,0.067,0,0.133,0,0.2c-0.033,0.3-0.067,0.633-0.1,1l0.7-4.35c0.167-1.3,0.35-2.45,0.55-3.45
				c0,0.033,0.017,0.067,0.05,0.1c0.133,0.4,0.25,0.983,0.35,1.75c0,0.067,0.017,0.133,0.05,0.2c0.066,1.1,0.133,1.883,0.2,2.35
				c0,0.034,0.034,0.067,0.1,0.1H48c0.033-0.033,0.05-0.066,0.05-0.1v-0.05c0-1.333-0.05-2.367-0.15-3.1
				c-0.033-0.333-0.1-0.65-0.2-0.95c-0.1-0.4-0.217-0.75-0.35-1.05c-0.033-0.066-0.05-0.117-0.05-0.15
				c0-0.133,0.017-0.283,0.05-0.45c0.1-0.433,0.2-0.883,0.3-1.35c0.033-0.333,0.083-0.667,0.15-1c0.067-0.2,0.133-0.4,0.2-0.6
				c0.367-1.5,0.833-2.783,1.4-3.85c0,0.067,0,0.117,0,0.15c0,0.167,0,0.333,0,0.5c-0.1,1.167-0.167,2.35-0.2,3.55
				c0,0.133,0,0.267,0,0.4c-0.034,0.867-0.017,1.75,0.05,2.65c0.033,0.267,0.067,0.567,0.1,0.9c0.033,0.967,0.133,1.95,0.3,2.95
				c0,0.133,0.017,0.267,0.05,0.4c0.033,0.3,0,0.6-0.1,0.9c-0.067,0.333-0.133,0.667-0.2,1c-0.167,0.633-0.316,1.233-0.45,1.8
				c-0.034,0.033-0.05,0.083-0.05,0.15c-0.033,0.066-0.083,0.1-0.15,0.1c-0.233,0.167-0.683,0.4-1.35,0.7
				c-0.367,0.2-0.717,0.4-1.05,0.6c-0.767,0.433-1.467,0.883-2.1,1.35c-1.733,1.2-3.083,2.45-4.05,3.75
				c-0.333,0.367-0.6,0.75-0.8,1.15c0.367-0.467,0.717-0.85,1.05-1.15c0.933-1.033,1.8-1.8,2.6-2.3c0,0.367-0.1,0.8-0.3,1.3
				c-0.133,0.333-0.4,0.95-0.8,1.85c-0.133,0.3-0.333,0.783-0.6,1.45c0,0.067-0.017,0.15-0.05,0.25
				c0.333-0.733,0.717-1.55,1.15-2.45c0.4-0.867,0.733-1.583,1-2.15c0.1-0.267,0.2-0.5,0.3-0.7c1.3-1.033,2.4-1.783,3.3-2.25
				c0.9-0.434,1.467-0.65,1.7-0.65c-0.233,0.6-0.433,1.083-0.6,1.45c-0.033,0.1-0.183,0.45-0.45,1.05
				c-0.267,0.633-0.534,1.133-0.8,1.5c-0.2,0.3-0.483,0.65-0.85,1.05c-0.033,0.033-0.066,0.067-0.1,0.1
				c-0.067,0.066-0.133,0.133-0.2,0.2c-0.5,0.534-0.733,0.8-0.7,0.8h0.05c0.1-0.067,0.383-0.333,0.85-0.8l0.85-0.8v-0.05
				c0.633-0.767,1.167-1.5,1.6-2.2h0.05c0,0.033,0.017,0.067,0.05,0.1c0.1,0.133,0.183,0.333,0.25,0.6
				c0.067,0.2,0.117,0.35,0.15,0.45c0.033,0.167,0.05,0.467,0.05,0.9v0.75c-0.034,0.034-0.067,0.067-0.1,0.1
				c-0.3,0.267-0.7,0.733-1.2,1.4c-0.767,0.934-1.333,1.934-1.7,3c0.5-0.933,0.917-1.617,1.25-2.05c0.5-0.667,1.083-1.3,1.75-1.9
				c0.066,0.5,0.066,0.917,0,1.25c-0.034,0.333-0.1,0.7-0.2,1.1c-0.1,0.433-0.167,0.867-0.2,1.3c0.034-0.3,0.067-0.45,0.1-0.45
				c0.033-0.133,0.067-0.283,0.1-0.45c0.233-0.867,0.4-1.617,0.5-2.25c0.033-0.333,0.05-0.633,0.05-0.9c0-0.067,0-0.15,0-0.25v-0.05
				c0.034-0.267,0.05-0.517,0.05-0.75c0-0.066,0.017-0.25,0.05-0.55c-0.066-0.133-0.15-0.55-0.25-1.25
				c-0.066-0.367-0.117-0.75-0.15-1.15c0.2-0.434,0.367-0.867,0.5-1.3c0.1-0.3,0.183-0.583,0.25-0.85c0.1-0.3,0.183-0.583,0.25-0.85
				c0.067-0.2,0.133-0.383,0.2-0.55c0.066-0.333,0.133-0.65,0.2-0.95c0.2,0.333,0.383,0.617,0.55,0.85
				c0.267,0.367,0.483,0.717,0.65,1.05c0.033,0.066,0.066,0.133,0.1,0.2c-0.067,0.667-0.15,1.383-0.25,2.15
				C51.283-39.2,51.167-37.817,51.1-36.65z"/>
		</g>
		<g>
			<path style="fill-rule:evenodd;clip-rule:evenodd;fill:#26211A;" d="M81.55-44.75c-0.2-0.3-0.35-0.517-0.45-0.65
				c-0.2-0.3-0.8-0.733-1.8-1.3l-1.25-0.65C77.183-47.583,76.167-48,75-48.6c-0.133-0.5-0.283-0.933-0.45-1.3
				c-0.167-0.367-0.367-0.9-0.6-1.6c-0.633-0.7-1.3-1.383-2-2.05c-0.667-0.633-1.233-1.2-1.7-1.7c-0.433-0.467-0.683-0.8-0.75-1
				c-0.133-0.1-0.217-0.25-0.25-0.45c-1.167-4.267-2.067-7.55-2.7-9.85c-0.133-2-0.233-4.95-0.3-8.85
				c-0.033-4.233,0.467-8.317,1.5-12.25c0.167-0.2,1.2-0.5,3.1-0.9c0.967-0.2,1.767-0.333,2.4-0.4c0.6-0.1,1.05-0.15,1.35-0.15
				c0.1,0,0.183,0,0.25,0c0.267,0,0.533-0.05,0.8-0.15c0.6-0.2,1.167-0.367,1.7-0.5v-0.1l-0.8-0.05c-0.466,0-0.933,0.033-1.4,0.1
				c-0.1,0.033-0.2,0.05-0.3,0.05c-0.4,0.067-0.684,0.1-0.85,0.1c-0.333,0-0.567,0-0.7,0h-0.1c-0.267-0.067-0.534-0.1-0.8-0.1
				c-0.066,0-0.5,0-1.3,0c-0.333,0-0.633,0-0.9,0c0.1-0.033,0.2-0.067,0.3-0.1c0.7-0.333,1.25-0.55,1.65-0.65v-0.1l-1.8-0.05
				c-0.2,0-0.517,0.05-0.95,0.15c-0.433,0.1-0.717,0.15-0.85,0.15c-0.1,0-0.65,0.167-1.65,0.5c-1,0.333-1.55,0.5-1.65,0.5
				c-0.7-0.066-1.467-0.033-2.3,0.1c-0.5,0.067-0.9,0.117-1.2,0.15c-0.233-0.033-0.45-0.066-0.65-0.1
				c-0.167-0.033-0.317-0.066-0.45-0.1c-0.9-0.133-1.6-0.2-2.1-0.2c-1.2,0.067-1.9,0.1-2.1,0.1v0.05c0.466,0,1.033,0.1,1.7,0.3
				c0.633,0.233,1.1,0.35,1.4,0.35c0.3,0.034,0.583,0.067,0.85,0.1c0.233,0.033,0.467,0.133,0.7,0.3c0.233,0.2,0.583,0.35,1.05,0.45
				c0.833,0.233,1.5,0.567,2,1c-0.066,0.7-0.167,1.5-0.3,2.4c-0.367,2.267-0.55,4.617-0.55,7.05c0,1.2,0.15,3.2,0.45,6
				c0.3,2.767,0.483,4.95,0.55,6.55c0.067,1.6,0.1,3.983,0.1,7.15c0,2-0.033,3.534-0.1,4.6c-0.066,0.667-0.133,1.184-0.2,1.55
				c-0.167,0.9-0.483,1.9-0.95,3c-0.467,1.133-0.733,1.95-0.8,2.45c-0.5,1.2-0.9,2.583-1.2,4.15c-0.066,0.233-0.117,0.517-0.15,0.85
				v0.05c-0.067,0.267-0.15,0.566-0.25,0.9c-0.7,0.333-1.433,0.8-2.2,1.4c-0.8,0.633-1.7,1.65-2.7,3.05H55.8
				c0,0.067-0.05,0.133-0.15,0.2c-0.9,1.3-1.65,2.617-2.25,3.95c0.6-0.733,1.434-1.784,2.5-3.15c0,0.133,0,0.25,0,0.35
				c0.033,0.567,0.033,1.067,0,1.5v0.05c0,0.066,0,0.15,0,0.25c0,0.066,0,0.133,0,0.2c-0.467,0.467-0.9,0.983-1.3,1.55
				c-1.167,1.667-2.184,3.8-3.05,6.4c-0.433,1.367-0.783,2.617-1.05,3.75c0.2-0.633,0.5-1.45,0.9-2.45
				c0.767-2.066,1.467-3.683,2.1-4.85c0.3-0.566,0.567-1.017,0.8-1.35c0.8-1.067,1.35-1.85,1.65-2.35
				c-0.167,0.767-0.333,1.75-0.5,2.95c-0.067,0.233-0.1,0.467-0.1,0.7c0.133-0.6,0.25-1.1,0.35-1.5
				c0.133-0.533,0.25-0.883,0.35-1.05c0.067-0.2,0.167-0.534,0.3-1l0.35-1.05c0-0.033,0-0.083,0-0.15v-0.75
				c0.033-1,0.083-1.767,0.15-2.3c0-0.034,0.017-0.067,0.05-0.1c0.533-0.667,1.1-1.25,1.7-1.75c0.667-0.467,1.267-0.9,1.8-1.3
				c0.067-0.033,0.133-0.083,0.2-0.15c-0.033,0.333-0.05,0.783-0.05,1.35c-0.167,1.433-0.4,3.717-0.7,6.85v0.55
				c-0.1,0.867-0.2,1.8-0.3,2.8c0,0.066,0,0.133,0,0.2c-0.033,0.467-0.083,0.934-0.15,1.4l1-6.05c0.233-1.767,0.483-3.35,0.75-4.75
				c0.033,0.067,0.05,0.117,0.05,0.15c0.233,0.567,0.417,1.383,0.55,2.45c0,0.1,0.017,0.183,0.05,0.25c0.1,1.5,0.2,2.583,0.3,3.25
				c0,0.033,0.033,0.083,0.1,0.15h0.15c0.033-0.067,0.05-0.117,0.05-0.15v-0.05c0-1.867-0.05-3.3-0.15-4.3
				c-0.1-0.467-0.2-0.917-0.3-1.35c-0.133-0.566-0.3-1.05-0.5-1.45c-0.034-0.067-0.067-0.133-0.1-0.2c0.033-0.2,0.066-0.4,0.1-0.6
				c0.133-0.633,0.267-1.25,0.4-1.85c0.066-0.466,0.15-0.933,0.25-1.4c0.066-0.267,0.15-0.55,0.25-0.85
				c0.5-2.066,1.15-3.85,1.95-5.35c0,0.1,0,0.167,0,0.2c0,0.233-0.017,0.467-0.05,0.7c-0.133,1.633-0.2,3.267-0.2,4.9
				c0,0.2,0,0.383,0,0.55C63.983-40.5,64-39.267,64.1-38c0.033,0.4,0.066,0.817,0.1,1.25c0.066,1.367,0.2,2.733,0.4,4.1
				c0.033,0.167,0.083,0.35,0.15,0.55c0,0.4-0.05,0.817-0.15,1.25c-0.1,0.467-0.2,0.934-0.3,1.4c-0.233,0.867-0.433,1.684-0.6,2.45
				c-0.067,0.067-0.1,0.15-0.1,0.25c-0.033,0.067-0.1,0.1-0.2,0.1c-0.333,0.233-0.95,0.566-1.85,1c-0.533,0.3-1.017,0.566-1.45,0.8
				c-1.067,0.633-2.05,1.267-2.95,1.9c-2.4,1.667-4.283,3.4-5.65,5.2c-0.433,0.533-0.8,1.067-1.1,1.6
				c0.533-0.633,1.017-1.167,1.45-1.6c1.3-1.4,2.5-2.467,3.6-3.2c0,0.534-0.117,1.133-0.35,1.8c-0.233,0.5-0.617,1.367-1.15,2.6
				c-0.2,0.433-0.467,1.1-0.8,2c-0.033,0.1-0.05,0.216-0.05,0.35c0.433-1,0.95-2.133,1.55-3.4c0.567-1.2,1.017-2.2,1.35-3
				c0.167-0.367,0.317-0.683,0.45-0.95c1.8-1.434,3.333-2.467,4.6-3.1c1.233-0.633,2-0.934,2.3-0.9c-0.3,0.8-0.567,1.45-0.8,1.95
				c-0.033,0.133-0.233,0.633-0.6,1.5s-0.733,1.567-1.1,2.1c-0.3,0.4-0.7,0.867-1.2,1.4c-0.033,0.067-0.083,0.133-0.15,0.2
				c-0.067,0.066-0.15,0.15-0.25,0.25c-0.733,0.733-1.067,1.1-1,1.1h0.05c0.167-0.1,0.567-0.467,1.2-1.1
				c0.767-0.733,1.167-1.117,1.2-1.15c0.867-1.1,1.6-2.133,2.2-3.1l0.05,0.05c0.033,0.033,0.066,0.067,0.1,0.1
				c0.133,0.2,0.25,0.467,0.35,0.8c0.1,0.3,0.167,0.517,0.2,0.65c0.066,0.233,0.1,0.65,0.1,1.25l-0.05,1.05
				c-0.033,0.067-0.083,0.1-0.15,0.1c-0.4,0.367-0.95,1.017-1.65,1.95c-1.033,1.3-1.817,2.7-2.35,4.2c0.7-1.3,1.267-2.25,1.7-2.85
				c0.7-0.933,1.517-1.816,2.45-2.65c0.1,0.7,0.117,1.267,0.05,1.7c-0.067,0.5-0.167,1.033-0.3,1.6
				c-0.133,0.567-0.233,1.167-0.3,1.8c0.066-0.434,0.117-0.65,0.15-0.65c0.033-0.2,0.083-0.417,0.15-0.65
				c0.3-1.2,0.517-2.233,0.65-3.1c0.067-0.467,0.1-0.883,0.1-1.25c0-0.1,0-0.217,0-0.35v-0.05c0.033-0.367,0.05-0.716,0.05-1.05
				c0-0.1,0.017-0.367,0.05-0.8c-0.067-0.167-0.167-0.733-0.3-1.7c-0.1-0.5-0.184-1.033-0.25-1.6c0.3-0.6,0.55-1.2,0.75-1.8
				c0.1-0.4,0.216-0.783,0.35-1.15c0.1-0.434,0.217-0.833,0.35-1.2c0.067-0.267,0.15-0.533,0.25-0.8c0.1-0.434,0.184-0.867,0.25-1.3
				c0.3,0.467,0.567,0.867,0.8,1.2c0.367,0.5,0.667,0.983,0.9,1.45c0.066,0.067,0.117,0.15,0.15,0.25c-0.1,0.967-0.217,1.967-0.35,3
				c-0.233,2.233-0.4,4.15-0.5,5.75c-0.1,1.233-0.167,2.267-0.2,3.1c0.333-1.4,0.517-2.617,0.55-3.65
				c0.067-1.467,0.283-2.7,0.65-3.7c0.267,0.034,0.567,0.2,0.9,0.5c0.333,0.333,0.717,0.8,1.15,1.4c0.233,0.4,0.45,0.75,0.65,1.05
				c-0.133-0.3-0.233-0.583-0.3-0.85c-0.167-0.267-0.3-0.517-0.4-0.75c-0.433-0.767-1.1-1.517-2-2.25l-0.05-0.9
				c0.167-0.733,0.383-1.567,0.65-2.5c0.067,0,0.133,0.017,0.2,0.05c0.066,0,0.267,0.083,0.6,0.25c0.367,0.167,0.867,0.417,1.5,0.75
				c0.633,0.367,0.467,0.233-0.5-0.4c-0.966-0.633-1.466-0.95-1.5-0.95c-0.066-0.067-0.133-0.117-0.2-0.15
				c-0.167-0.233-0.4-0.566-0.7-1c-0.2-0.4-0.417-0.917-0.65-1.55c-0.367-0.9-0.617-1.633-0.75-2.2
				c-0.067-0.2-0.117-0.383-0.15-0.55c0-0.067,0-0.133,0-0.2V-33c-0.133-0.833-0.233-1.667-0.3-2.5
				c-0.033-0.5-0.083-1.017-0.15-1.55c0-0.034,0-0.083,0-0.15c-0.1-1.433-0.15-2.9-0.15-4.4c0-0.066,0-0.15,0-0.25
				c0.033-2.933,0.267-5.883,0.7-8.85c0.367-2.867,0.617-5.216,0.75-7.05c1.233,1.433,2.233,4.617,3,9.55
				c0.066,0.4,0.133,0.784,0.2,1.15c0,0.033,0,0.083,0,0.15c-0.233,0.833-0.5,2.717-0.8,5.65c0,0.1,0,0.183,0,0.25
				c-0.067,0.1-0.117,0.2-0.15,0.3c-0.133,0.2-0.25,0.35-0.35,0.45c-0.567,0.433-0.983,0.717-1.25,0.85
				c-0.267,0.333-0.434,0.55-0.5,0.65c-0.167,0.533-0.283,0.833-0.35,0.9c-0.033,0.133-0.083,0.267-0.15,0.4
				c-0.133,0.267-0.267,0.617-0.4,1.05c0.367-0.733,0.7-1.3,1-1.7c0.133-0.167,0.25-0.35,0.35-0.55c0.067-0.167,0.167-0.3,0.3-0.4
				c0.033-0.067,0.15-0.167,0.35-0.3c0.033,0,0.117-0.033,0.25-0.1c0.3-0.133,0.583-0.167,0.85-0.1
				c0.034,0.233,0.05,0.417,0.05,0.55c0,0.067,0,0.15,0,0.25v0.1c0,0.033,0,0.066,0,0.1c0,0.3-0.017,0.6-0.05,0.9c0,0.1,0,0.2,0,0.3
				s-0.017,0.733-0.05,1.9c-0.033,0.434-0.133,1.967-0.3,4.6c0.2-2.1,0.383-3.667,0.55-4.7c0.033-0.167,0.067-0.333,0.1-0.5
				c0.066-0.467,0.117-0.767,0.15-0.9c0.6,0.434,1.4,1.833,2.4,4.2c0.1,0.233,0.2,0.483,0.3,0.75
				c-0.067,0.733-0.184,1.417-0.35,2.05c-0.167,0.6-0.333,1.333-0.5,2.2c-0.2,0.867-0.3,1.9-0.3,3.1c0,0.367,0.067,0.9,0.2,1.6
				c0.067,0.833,0.15,1.433,0.25,1.8c0-0.3-0.033-0.85-0.1-1.65c0-0.333,0-0.65,0-0.95c-0.033-0.367-0.033-0.733,0-1.1
				c0.033-0.6,0.067-1,0.1-1.2c0-0.2,0.083-0.633,0.25-1.3c0.167-0.667,0.367-1.517,0.6-2.55l0.3-1.5l0.05-0.15
				c0.466,1.566,0.966,3.017,1.5,4.35c0.167,1.533,0.316,2.9,0.45,4.1c0-0.1,0-0.2,0-0.3c-0.066-1.667-0.1-2.967-0.1-3.9
				c-0.5-1.467-1.033-2.934-1.6-4.4c-0.534-1.467-0.983-2.467-1.35-3c-0.367-0.567-0.7-1.217-1-1.95c-0.267-0.167-0.583-0.5-0.95-1
				l-0.1-2.2c0-0.033,0-0.083,0-0.15c0-0.133,0.017-0.283,0.05-0.45v-0.1c0.2-2,0.383-3.4,0.55-4.2c0.067,0.8,0.15,1.533,0.25,2.2
				v0.05c0.133,1.067,0.25,1.967,0.35,2.7l0.05,0.1c0,0.1,0,0.183,0,0.25c0,0.133,0,0.25,0,0.35c0.067,0.167,0.05,0.8-0.05,1.9
				l0.2-1.05c0.033-0.066,0.066-0.183,0.1-0.35c0-0.133,0.017-0.316,0.05-0.55l0.05-0.65c-0.033-0.934-0.117-1.867-0.25-2.8v-0.1
				c-0.133-1.5-0.283-2.983-0.45-4.45c-0.067-0.9-0.167-1.833-0.3-2.8c-0.066-0.267-0.316-1.5-0.75-3.7
				c-0.033,0-0.05-0.017-0.05-0.05c-0.033-0.133-0.067-0.284-0.1-0.45v-0.05c1.367,1.066,2.5,2.316,3.4,3.75
				c0.133,0.2,0.267,0.4,0.4,0.6c0,0.233-0.017,0.483-0.05,0.75c0,0.267-0.017,0.517-0.05,0.75c0.066,0.2,0.066,0.383,0,0.55
				c-0.034,0.533-0.05,1.033-0.05,1.5v0.05c0,0.2,0.017,0.367,0.05,0.5c0,0.067,0.033,0.917,0.1,2.55c0-0.133,0.017-0.284,0.05-0.45
				c0.133-1.533,0.2-2.4,0.2-2.6v-0.05c0.067-0.633,0.133-1.184,0.2-1.65c0-0.333,0.05-0.65,0.15-0.95
				c0.133,0.3,0.267,0.617,0.4,0.95c0.467,0.9,0.75,1.583,0.85,2.05c-0.033,0.833-0.133,1.433-0.3,1.8
				c-0.2,0.4-0.333,0.817-0.4,1.25c-0.233,1-0.317,2.017-0.25,3.05c-0.067,0-0.067,0.033,0,0.1c0,0.3,0.017,0.6,0.05,0.9
				c0.1,1.5,0.267,2.967,0.5,4.4c0.133,0.8,0.3,1.633,0.5,2.5c0.3,1.233,0.633,2.483,1,3.75c0.065,0.194,0.115,0.37,0.15,0.525
				c-0.201-1.058-0.451-2.533-0.75-4.425c-0.133-0.7-0.25-1.434-0.35-2.2c0.267,0,0.8,0.117,1.6,0.35c0.3,0.1,0.667,0.367,1.1,0.8
				c0.567,0.534,1.25,1.35,2.05,2.45c0.1,0.133,0.2,0.283,0.3,0.45c-0.5-1.133-0.867-1.817-1.1-2.05
				c-0.267-0.267-0.617-0.65-1.05-1.15c-0.5-0.5-0.883-0.817-1.15-0.95c-0.3-0.167-0.833-0.417-1.6-0.75
				c-0.1-0.033-0.2-0.066-0.3-0.1c-0.167-0.733-0.283-1.767-0.35-3.1c-0.167-1.6-0.083-2.934,0.25-4c0.333-1.1,0.55-1.8,0.65-2.1
				c0.133,0.6,0.283,1.2,0.45,1.8l0.35,1.6l-0.25-1.3c0.033,0.133,0.167,0.75,0.4,1.85c0.267,1.233,0.333,1.45,0.2,0.65
				c-0.133-0.767-0.3-1.9-0.5-3.4c-0.2-1.367-0.45-2.583-0.75-3.65c-0.033-0.1-0.067-0.2-0.1-0.3c0.667,0.033,1.517,0.183,2.55,0.45
				c0.1,0,0.3,0.033,0.6,0.1c0.267,0.1,0.583,0.3,0.95,0.6c0.733,0.434,1.667,1.333,2.8,2.7C82.033-43.933,81.75-44.383,81.55-44.75
				z"/>
		</g>
		<g>
			<path style="fill-rule:evenodd;clip-rule:evenodd;fill:#26211A;" d="M27.3-54.2c0.034-0.033,0.067-0.05,0.1-0.05v0.15l-0.05-0.1
				H27.3z M17.6-26.55c0.5-1.133,1.017-2.067,1.55-2.8c0.7-0.9,1.317-1.35,1.85-1.35c0.233,0,0.35,0.284,0.35,0.85
				c0,0.267-0.033,0.7-0.1,1.3c-0.067,0.466-0.133,0.816-0.2,1.05c0.034-0.033,0.083-0.05,0.15-0.05
				c0.033-0.2,0.083-0.417,0.15-0.65c0.5-1.833,0.75-3.283,0.75-4.35c0-0.1,0-0.2,0-0.3v-0.05c-0.033-1.233-0.133-2.35-0.3-3.35
				c-0.133-0.7-0.216-1.25-0.25-1.65c0.367-0.667,0.633-1.333,0.8-2c0.3-0.833,0.55-1.617,0.75-2.35
				c0.066-0.267,0.133-0.533,0.2-0.8c0.133-0.434,0.233-0.867,0.3-1.3c0.3,0.467,0.566,0.883,0.8,1.25
				c0.4,0.567,0.767,1.017,1.1,1.35c-0.133,1.133-0.267,2.233-0.4,3.3c-0.233,2.233-0.4,4.167-0.5,5.8
				c-0.133,1.433-0.2,2.617-0.2,3.55c0.133-0.066,0.283-0.133,0.45-0.2c0.033-1.1,0.05-2.417,0.05-3.95
				c0.067-1.467,0.3-2.683,0.7-3.65c0.533,0.066,1.217,0.683,2.05,1.85c0.267,0.367,0.483,0.716,0.65,1.05
				c-0.1-0.3-0.216-0.583-0.35-0.85c-0.1-0.3-0.217-0.55-0.35-0.75c-0.434-0.8-1.1-1.6-2-2.4h-0.05v-0.75
				c0.167-0.733,0.383-1.567,0.65-2.5c0.066,0.033,0.15,0.05,0.25,0.05c0.033,0,0.066,0,0.1,0c0.034-0.066,0.05-0.133,0.05-0.2
				c0-0.033,0-0.067,0-0.1c-0.033-0.033-0.067-0.05-0.1-0.05c-0.033-0.067-0.083-0.117-0.15-0.15c-0.233-0.2-0.467-0.517-0.7-0.95
				c-0.2-0.434-0.433-0.967-0.7-1.6c-0.367-0.9-0.633-1.633-0.8-2.2c-0.033-0.2-0.066-0.383-0.1-0.55c0-0.067-0.017-0.133-0.05-0.2
				h0.05v-0.05c-0.2-1.333-0.35-2.7-0.45-4.1v-0.05c-0.1-1.467-0.15-2.95-0.15-4.45c0-0.066,0-0.167,0-0.3
				c0.033-2.9,0.267-5.833,0.7-8.8c0.367-2.9,0.617-5.816,0.75-8.75c1.233,2.567,2.233,6.3,3,11.2c0.067,0.433,0.117,0.833,0.15,1.2
				v0.1c-0.233,0.9-0.466,2.8-0.7,5.7c0,0.133-0.017,0.267-0.05,0.4v0.05c-0.4,0.167-0.966,0.683-1.7,1.55h0.1
				c-0.067,0.002-0.1,0.019-0.1,0.05l-0.05,0.05c-0.033,0-0.05,0.017-0.05,0.05c-0.567,0.7-0.967,1.267-1.2,1.7
				c-0.033,0.066-0.05,0.133-0.05,0.2v0.05l0.05,0.05c0.034,0.033,0.067,0.05,0.1,0.05c0.067,0,0.1-0.034,0.1-0.1h0.1
				c0.133-0.333,0.367-0.717,0.7-1.15c0.133-0.133,0.284-0.3,0.45-0.5h0.05l0.05-0.05c0.1-0.1,0.2-0.183,0.3-0.25
				c0.434-0.433,0.8-0.717,1.1-0.85c0,0.067,0,0.133,0,0.2c0.033,0,0.083-0.017,0.15-0.05c-0.033,0.3-0.05,0.566-0.05,0.8
				c-0.033,0.067-0.05,0.133-0.05,0.2c0,0.033,0,0.083,0,0.15c0,0.033,0,0.066,0,0.1c0,0.3-0.017,0.6-0.05,0.9c0,0.1,0,0.2,0,0.3
				s0,0.2,0,0.3c-0.1,1-0.183,2.066-0.25,3.2c0,0.033,0.017,0.067,0.05,0.1c0,0.067,0.017,0.1,0.05,0.1
				c0.066,0,0.117-0.033,0.15-0.1c0.033,0,0.05-0.033,0.05-0.1c0.067-1.3,0.15-2.483,0.25-3.55c0.8,0.833,1.767,2.667,2.9,5.5
				c0.033,0.033,0.05,0.066,0.05,0.1c-0.267,0.6-0.517,1.533-0.75,2.8c-0.033,0.067-0.067,0.15-0.1,0.25
				c-0.267,1.533-0.4,2.9-0.4,4.1c0,0.367,0.05,0.917,0.15,1.65c0.1,0.8,0.184,1.4,0.25,1.8c0-0.333-0.017-0.9-0.05-1.7
				c-0.067-0.733-0.1-1.317-0.1-1.75c0-0.8,0.033-1.283,0.1-1.45c0.033-0.233,0.2-0.85,0.5-1.85c0.066-0.333,0.233-0.8,0.5-1.4
				c0.167-0.4,0.3-0.733,0.4-1c1.033,2.833,1.667,5.434,1.9,7.8c0.033-0.067,0.05-0.117,0.05-0.15c0.066-0.233,0.066-0.683,0-1.35
				c-0.133-1.3-0.317-2.55-0.55-3.75c-0.267-1.2-0.583-2.333-0.95-3.4c-0.733-2.133-1.534-3.867-2.4-5.2
				c-0.5-0.833-0.966-1.483-1.4-1.95c0-0.066,0-0.15,0-0.25c0-0.033,0-0.066,0-0.1c0.033-0.1,0.05-0.216,0.05-0.35
				c0.033-0.267,0.066-0.517,0.1-0.75v-0.15c0-0.033,0-0.083,0-0.15c0-0.133,0-0.3,0-0.5c0-0.033,0-0.066,0-0.1
				c0.233-1.966,0.4-3.367,0.5-4.2c0.133,0.833,0.233,1.583,0.3,2.25v0.05c0.133,1.067,0.25,1.95,0.35,2.65
				c0,0.067,0.017,0.117,0.05,0.15c0,0.066,0,0.15,0,0.25c0,0.133,0.017,0.25,0.05,0.35c0,0.167,0.017,0.317,0.05,0.45
				c0,0.133,0.017,0.25,0.05,0.35c0,0.066,0.017,0.1,0.05,0.1h0.05v0.05c0.067,0,0.117-0.017,0.15-0.05c0-0.067,0-0.117,0-0.15
				c0-0.1,0-0.183,0-0.25V-53c0-0.233,0-0.483,0-0.75c-0.033-0.1-0.05-0.2-0.05-0.3c0-0.034,0-0.083,0-0.15
				c-0.033-0.9-0.1-1.816-0.2-2.75v-0.1c-0.167-1.5-0.333-3-0.5-4.5c-0.066-0.9-0.183-1.817-0.35-2.75
				c-0.033-0.3-0.283-1.55-0.75-3.75c-0.066-0.233-0.117-0.483-0.15-0.75c1.067,0.7,2.217,2.017,3.45,3.95
				c0.133,0.2,0.267,0.417,0.4,0.65c0,0.233-0.017,0.483-0.05,0.75c-0.067,1.067-0.1,2-0.1,2.8c0,0.2,0,0.383,0,0.55
				c0,0.033,0.033,0.083,0.1,0.15c0.033,0,0.066,0,0.1,0h0.05c0.033-0.066,0.066-0.117,0.1-0.15c0-0.167,0.017-0.35,0.05-0.55
				c0.067-0.633,0.133-1.2,0.2-1.7c0.033-0.333,0.066-0.633,0.1-0.9c0.167,0.3,0.333,0.6,0.5,0.9c0.434,0.934,0.8,1.883,1.1,2.85
				c-0.233,0.333-0.433,0.683-0.6,1.05c-0.2,0.4-0.333,0.833-0.4,1.3c-0.2,0.967-0.3,1.95-0.3,2.95c0,0.067,0,0.117,0,0.15
				c0,0.3,0.017,0.6,0.05,0.9c0.133,1.5,0.317,2.967,0.55,4.4c0.133,0.833,0.3,1.65,0.5,2.45c0.3,1.267,0.617,2.533,0.95,3.8
				c0.233,0.9,0.467,1.8,0.7,2.7c0.033-0.034,0.05-0.083,0.05-0.15c-0.566-1.8-1.117-4.683-1.65-8.65
				c0.367,0.1,0.783,0.25,1.25,0.45c1.367,0.5,2.367,1.167,3,2c0.033-0.033,0.05-0.083,0.05-0.15c-0.066-0.267-0.417-0.7-1.05-1.3
				c-0.667-0.533-1.133-0.883-1.4-1.05c-0.267-0.133-0.667-0.35-1.2-0.65c-0.267-0.133-0.517-0.267-0.75-0.4
				c-0.167-1.133-0.316-2.35-0.45-3.65c-0.1-1.467,0.1-2.967,0.6-4.5c0.133-0.3,0.25-0.6,0.35-0.9c0.167,0.6,0.317,1.183,0.45,1.75
				c0,0.033,0,0.067,0,0.1c0.033,0.066,0.05,0.133,0.05,0.2c0,0.034,0.017,0.067,0.05,0.1c0.033,0.033,0.083,0.05,0.15,0.05
				c0.033-0.034,0.05-0.067,0.05-0.1c0.067-0.033,0.083-0.083,0.05-0.15c0-0.067-0.017-0.133-0.05-0.2
				c-0.233-1.7-0.6-3.283-1.1-4.75c0.934,0.2,2.05,0.583,3.35,1.15c1.167,0.467,2.067,0.967,2.7,1.5c0-0.066,0-0.117,0-0.15
				c-0.533-0.567-1.467-1.183-2.8-1.85c-1.233-0.6-2.367-0.983-3.4-1.15c-0.333-0.967-0.733-1.867-1.2-2.7
				c-0.267-0.633-0.6-1.216-1-1.75c-1.534-2.2-2.583-3.367-3.15-3.5c-0.533-0.167-0.917-0.65-1.15-1.45
				c-0.233-0.8-0.75-1.967-1.55-3.5c0-0.1,0-0.233,0-0.4c-0.1-0.667-0.25-1.917-0.45-3.75c-0.1-0.833-0.183-1.967-0.25-3.4
				c0.467-2.2,1.35-3.45,2.65-3.75c0.534-0.1,1.417-0.267,2.65-0.5c0.433-0.1,0.85-0.216,1.25-0.35c-1.333-0.133-2.167-0.2-2.5-0.2
				c-0.6,0-1.267,0.05-2,0.15c-0.767,0.133-1.267,0.2-1.5,0.2c-0.233,0-0.45-0.067-0.65-0.2c-0.2-0.133-0.417-0.2-0.65-0.2
				c-0.467,0.2-0.783,0.3-0.95,0.3c-0.667,0-1.483-0.117-2.45-0.35c-0.933-0.233-1.817-0.417-2.65-0.55l0.3,0.25
				c0.067,0.033,0.467,0.283,1.2,0.75c-2.033-0.133-3.2-0.2-3.5-0.2c-0.367,0-0.567,0.017-0.6,0.05c1.567,0.6,2.967,1.117,4.2,1.55
				c0.4,0.133,1.033,0.583,1.9,1.35c0.267,0.2,0.583,0.883,0.95,2.05c0.1,1.233,0.167,2.3,0.2,3.2c0.067,1.6,0.1,3.983,0.1,7.15
				c0,3.233-0.1,5.3-0.3,6.2c-0.167,0.9-0.483,1.9-0.95,3c-0.467,1.1-0.75,1.917-0.85,2.45c-0.433,1.233-0.833,2.617-1.2,4.15
				c-0.033,0.267-0.083,0.55-0.15,0.85v0.05c-0.066,0.267-0.117,0.55-0.15,0.85c-0.733,0.367-1.483,0.85-2.25,1.45
				c-0.8,0.633-1.7,1.633-2.7,3h-0.05c-0.033,0.1-0.1,0.2-0.2,0.3c-0.9,1.3-1.65,2.633-2.25,4v0.05
				c-0.033,0.033-0.05,0.066-0.05,0.1c0.033,0.066,0.067,0.117,0.1,0.15s0.066,0.05,0.1,0.05c0.033-0.033,0.066-0.066,0.1-0.1
				c0.733-1.233,1.483-2.4,2.25-3.5c0,0.133,0,0.25,0,0.35c0.067,0.567,0.083,1.067,0.05,1.5v0.05c0,0.066-0.017,0.15-0.05,0.25
				c0,0.066,0,0.133,0,0.2c-0.433,0.467-0.85,0.983-1.25,1.55c-1.2,1.667-2.233,3.816-3.1,6.45c-0.7,2.1-1.184,3.983-1.45,5.65
				c0.567-1.9,1.35-4.033,2.35-6.4s1.95-4.167,2.85-5.4c0.167-0.233,0.333-0.45,0.5-0.65c-0.067,0.4-0.1,0.633-0.1,0.7
				c-0.033,0.067-0.033,0.1,0,0.1c0.033,0.067,0.083,0.1,0.15,0.1c0.033,0.033,0.05,0.033,0.05,0c0.034,0,0.067-0.033,0.1-0.1
				c0.1-0.3,0.184-0.733,0.25-1.3c0-0.033,0-0.083,0-0.15c0.067-0.233,0.1-0.45,0.1-0.65c0.033-0.133,0.05-0.25,0.05-0.35
				c0.067-0.833,0.1-1.567,0.1-2.2c0-0.133-0.017-0.25-0.05-0.35c0.733-0.933,1.45-1.7,2.15-2.3c0.767-0.567,1.45-1.05,2.05-1.45
				c-0.033,0.333-0.066,0.783-0.1,1.35c-0.233,2.133-0.6,6.067-1.1,11.8l0.95-6c0.267-1.8,0.517-3.383,0.75-4.75
				c0.267,0.534,0.467,1.383,0.6,2.55c0.167,1.633,0.3,2.8,0.4,3.5c0,0.033,0.017,0.083,0.05,0.15h0.05c0.067,0,0.117,0,0.15,0
				c0.034-0.067,0.05-0.133,0.05-0.2c0-1.867-0.067-3.3-0.2-4.3c-0.033-0.467-0.117-0.917-0.25-1.35
				c-0.133-0.533-0.3-1.017-0.5-1.45c-0.066-0.067-0.1-0.133-0.1-0.2c0.133-0.833,0.284-1.667,0.45-2.5c0.1-0.467,0.2-0.933,0.3-1.4
				c0.067-0.267,0.133-0.55,0.2-0.85c0.533-2.033,1.217-3.8,2.05-5.3c-0.033,0.3-0.066,0.6-0.1,0.9
				c-0.133,1.633-0.217,3.267-0.25,4.9c0,0.2,0,0.383,0,0.55c0,1.233,0.033,2.467,0.1,3.7c0.034,0.4,0.05,0.8,0.05,1.2
				c0.133,1.4,0.283,2.783,0.45,4.15c0.034,0.167,0.067,0.35,0.1,0.55c0.033,0.4,0,0.817-0.1,1.25c-0.133,0.5-0.233,0.983-0.3,1.45
				c-0.2,0.833-0.417,1.633-0.65,2.4c-0.033,0.1-0.05,0.2-0.05,0.3c-0.066,0.034-0.133,0.067-0.2,0.1c-0.367,0.2-0.983,0.533-1.85,1
				c-0.5,0.267-0.983,0.533-1.45,0.8c-1.066,0.6-2.05,1.233-2.95,1.9c-2.4,1.633-4.3,3.367-5.7,5.2c-0.4,0.5-0.767,1.017-1.1,1.55
				c0.567-0.633,1.05-1.167,1.45-1.6c1.333-1.4,2.55-2.467,3.65-3.2c0,0.534-0.133,1.133-0.4,1.8c-0.2,0.5-0.583,1.367-1.15,2.6
				c-0.167,0.433-0.417,1.117-0.75,2.05c-0.067,0.1-0.117,0.217-0.15,0.35c0.5-1,1.05-2.133,1.65-3.4c0.833-1.8,1.417-3.133,1.75-4
				c1.566-0.967,2.75-1.667,3.55-2.1c1.5-0.867,2.517-1.367,3.05-1.5c0.033-0.033,0.083-0.05,0.15-0.05
				c-0.2,0.567-0.4,1.117-0.6,1.65c-0.067,0.1-0.117,0.216-0.15,0.35c-0.567,1.434-1.2,2.667-1.9,3.7
				c-0.034,0.033-0.05,0.067-0.05,0.1c0,0.066,0.017,0.117,0.05,0.15c0.033,0.033,0.066,0.05,0.1,0.05c0.034,0,0.067-0.017,0.1-0.05
				v-0.05c0.867-1.1,1.6-2.133,2.2-3.1c0.233,0.3,0.45,0.75,0.65,1.35c0.2,0.667,0.3,1.183,0.3,1.55v0.9
				c-0.466,0.267-1.15,0.983-2.05,2.15c-1.167,1.5-1.983,2.917-2.45,4.25C17.4-26.483,17.5-26.517,17.6-26.55z"/>
		</g>
		<g>
			<path style="fill-rule:evenodd;clip-rule:evenodd;fill:#26211A;" d="M155.45-51.65v0.15l-0.05-0.1h-0.05
				C155.383-51.633,155.417-51.65,155.45-51.65z M162.9-37.2c0.033-0.033,0.067-0.083,0.1-0.15c-0.6-1.8-1.167-4.683-1.7-8.65
				c0.367,0.1,0.784,0.25,1.25,0.45c1.367,0.5,2.367,1.167,3,2c0.034-0.034,0.067-0.083,0.1-0.15c-0.066-0.267-0.433-0.7-1.1-1.3
				c-0.633-0.533-1.1-0.883-1.4-1.05c-0.267-0.133-0.65-0.35-1.15-0.65c-0.3-0.133-0.567-0.267-0.8-0.4
				c-0.133-1.133-0.267-2.35-0.4-3.65c-0.133-1.467,0.067-2.967,0.6-4.5c0.1-0.3,0.217-0.6,0.35-0.9c0.133,0.6,0.267,1.183,0.4,1.75
				c0,0.033,0,0.066,0,0.1c0.033,0.066,0.067,0.133,0.1,0.2c0,0.033,0,0.067,0,0.1c0.067,0.033,0.117,0.05,0.15,0.05
				c0.033-0.033,0.067-0.066,0.1-0.1c0.033-0.034,0.033-0.083,0-0.15c0-0.066-0.017-0.133-0.05-0.2c-0.2-1.7-0.55-3.283-1.05-4.75
				c0.9,0.2,2,0.583,3.3,1.15c1.167,0.467,2.066,0.967,2.7,1.5c0-0.067,0-0.117,0-0.15c-0.5-0.567-1.433-1.184-2.8-1.85
				c-1.233-0.6-2.35-0.983-3.35-1.15c-0.367-0.967-0.767-1.867-1.2-2.7c-0.3-0.633-0.65-1.217-1.05-1.75
				c-1.5-2.2-2.55-3.367-3.15-3.5c-0.533-0.167-0.917-0.65-1.15-1.45c-0.233-0.8-0.733-1.967-1.5-3.5c0-0.1-0.017-0.233-0.05-0.4
				c-0.1-0.667-0.25-1.917-0.45-3.75c-0.133-1.233-0.1-2.883,0.1-4.95c0.667-1.633,1.917-2.633,3.75-3
				c0.633-0.1,1.717-0.267,3.25-0.5c1.1-0.2,2.117-0.417,3.05-0.65c-0.967,0-1.817-0.034-2.55-0.1c-0.2-0.033-0.883,0.066-2.05,0.3
				c-1.167,0.2-1.833,0.3-2,0.3c-0.533,0-0.95-0.067-1.25-0.2c0.333-0.167,0.75-0.367,1.25-0.6c0.433-0.2,0.8-0.35,1.1-0.45
				c-2.467,0.5-3.8,0.75-4,0.75c-0.667-0.233-1.033-0.35-1.1-0.35l-1.1,0.5c0-0.133-0.033-0.184-0.1-0.15
				c-0.133,0.1-0.233,0.15-0.3,0.15c-0.133,0-0.517-0.133-1.15-0.4c-0.7-0.233-1.184-0.434-1.45-0.6
				c-0.367-0.267-0.833-0.417-1.4-0.45c-0.933-0.1-1.633-0.2-2.1-0.3h-1.35v0.25c0.067,0,0.1,0.033,0.1,0.1
				c1.7-0.034,2.95,0.3,3.75,1h-0.1c-0.133,0-0.316,0.05-0.55,0.15c-0.233,0.066-0.4,0.1-0.5,0.1s-0.35-0.083-0.75-0.25
				c-0.5-0.2-0.817-0.317-0.95-0.35h-1.25v0.25c0.6,0.1,1.25,0.3,1.95,0.6c0.8,0.367,1.433,0.617,1.9,0.75s1.017,0.433,1.65,0.9
				c0.167,0.1,0.483,0.467,0.95,1.1c0.133,0.2,0.233,0.583,0.3,1.15c0.267,1.967,0.434,3.667,0.5,5.1c0.067,1.6,0.1,3.983,0.1,7.15
				c0,3.233-0.083,5.3-0.25,6.2c-0.2,0.9-0.533,1.9-1,3c-0.467,1.1-0.75,1.917-0.85,2.45c-0.433,1.233-0.816,2.617-1.15,4.15
				c-0.066,0.267-0.133,0.55-0.2,0.85v0.05c-0.034,0.267-0.083,0.55-0.15,0.85c-0.733,0.367-1.483,0.85-2.25,1.45
				c-0.8,0.633-1.7,1.633-2.7,3h-0.05c-0.033,0.1-0.083,0.2-0.15,0.3c-0.933,1.3-1.7,2.633-2.3,4v0.05c0,0.033,0,0.066,0,0.1
				c0,0.067,0.017,0.117,0.05,0.15c0.033,0.033,0.067,0.05,0.1,0.05c0.033-0.033,0.067-0.067,0.1-0.1c0.733-1.233,1.5-2.4,2.3-3.5
				c0,0.133,0,0.25,0,0.35c0.033,0.567,0.033,1.067,0,1.5v0.05c0,0.067,0,0.15,0,0.25c0,0.067,0,0.133,0,0.2
				c-0.467,0.467-0.9,0.983-1.3,1.55c-1.167,1.667-2.2,3.817-3.1,6.45c-0.667,2.1-1.15,3.983-1.45,5.65
				c0.567-1.9,1.35-4.033,2.35-6.4s1.95-4.167,2.85-5.4c0.167-0.233,0.333-0.45,0.5-0.65c-0.067,0.4-0.1,0.633-0.1,0.7v0.1
				c0.067,0.067,0.117,0.1,0.15,0.1c0.034,0.033,0.067,0.033,0.1,0l0.05-0.1c0.1-0.3,0.183-0.733,0.25-1.3
				c0.033-0.034,0.05-0.083,0.05-0.15c0.033-0.233,0.067-0.45,0.1-0.65c0-0.133,0-0.25,0-0.35c0.066-0.833,0.1-1.566,0.1-2.2
				c0-0.133-0.017-0.25-0.05-0.35c0.733-0.933,1.467-1.7,2.2-2.3c0.733-0.567,1.417-1.05,2.05-1.45
				c-0.066,0.333-0.117,0.783-0.15,1.35c-0.233,2.133-0.583,6.066-1.05,11.8l0.95-6c0.233-1.8,0.483-3.383,0.75-4.75
				c0.233,0.533,0.434,1.383,0.6,2.55c0.167,1.633,0.283,2.8,0.35,3.5c0,0.033,0.033,0.083,0.1,0.15h0.15
				c0.066-0.067,0.1-0.133,0.1-0.2c0-1.867-0.067-3.3-0.2-4.3c-0.067-0.467-0.15-0.917-0.25-1.35c-0.167-0.533-0.35-1.017-0.55-1.45
				c-0.034-0.066-0.067-0.133-0.1-0.2c0.167-0.833,0.333-1.667,0.5-2.5c0.066-0.467,0.15-0.934,0.25-1.4
				c0.066-0.267,0.15-0.55,0.25-0.85c0.5-2.033,1.167-3.8,2-5.3c-0.033,0.3-0.05,0.6-0.05,0.9c-0.167,1.633-0.25,3.267-0.25,4.9
				c0,0.2,0,0.383,0,0.55c-0.033,1.233,0,2.467,0.1,3.7c0,0.4,0.017,0.8,0.05,1.2c0.1,1.4,0.25,2.784,0.45,4.15
				c0,0.167,0.017,0.35,0.05,0.55c0.066,0.4,0.033,0.817-0.1,1.25c-0.1,0.5-0.2,0.983-0.3,1.45c-0.2,0.833-0.4,1.633-0.6,2.4
				c-0.067,0.1-0.1,0.2-0.1,0.3c-0.033,0.033-0.1,0.067-0.2,0.1c-0.367,0.2-0.983,0.533-1.85,1c-0.5,0.267-0.983,0.533-1.45,0.8
				c-1.067,0.6-2.05,1.233-2.95,1.9c-2.4,1.633-4.283,3.367-5.65,5.2c-0.433,0.5-0.8,1.017-1.1,1.55
				c0.533-0.633,1.017-1.167,1.45-1.6c1.3-1.4,2.517-2.467,3.65-3.2c-0.033,0.533-0.183,1.133-0.45,1.8
				c-0.2,0.5-0.566,1.367-1.1,2.6c-0.167,0.434-0.434,1.117-0.8,2.05c0.454-0.908,0.954-1.925,1.5-3.05
				c0.833-1.8,1.417-3.133,1.75-4c1.6-0.966,2.783-1.667,3.55-2.1c1.5-0.867,2.517-1.367,3.05-1.5c0.067-0.034,0.117-0.05,0.15-0.05
				c-0.2,0.567-0.4,1.117-0.6,1.65c-0.033,0.1-0.083,0.217-0.15,0.35c-0.566,1.434-1.2,2.667-1.9,3.7
				c-0.033,0.033-0.05,0.066-0.05,0.1c0,0.066,0.017,0.117,0.05,0.15s0.067,0.05,0.1,0.05s0.066-0.017,0.1-0.05v-0.05
				c0.867-1.1,1.617-2.133,2.25-3.1c0.2,0.3,0.4,0.75,0.6,1.35c0.2,0.667,0.3,1.184,0.3,1.55v0.9c-0.434,0.267-1.1,0.983-2,2.15
				c-1.2,1.5-2.017,2.917-2.45,4.25c0.1-0.033,0.184-0.066,0.25-0.1c0.5-1.133,1.033-2.066,1.6-2.8c0.667-0.9,1.267-1.35,1.8-1.35
				c0.233,0,0.35,0.283,0.35,0.85c0,0.267-0.033,0.7-0.1,1.3c-0.066,0.467-0.133,0.817-0.2,1.05c0.066-0.033,0.117-0.05,0.15-0.05
				c0.033-0.2,0.083-0.417,0.15-0.65c0.5-1.833,0.75-3.283,0.75-4.35c0-0.1,0-0.2,0-0.3v-0.05c0-1.233-0.1-2.35-0.3-3.35
				c-0.1-0.7-0.184-1.25-0.25-1.65c0.367-0.667,0.65-1.333,0.85-2c0.267-0.833,0.5-1.617,0.7-2.35c0.067-0.267,0.15-0.533,0.25-0.8
				c0.1-0.433,0.184-0.867,0.25-1.3c0.3,0.467,0.583,0.883,0.85,1.25c0.4,0.567,0.75,1.017,1.05,1.35
				c-0.133,1.133-0.25,2.233-0.35,3.3c-0.267,2.233-0.45,4.167-0.55,5.8c-0.1,1.433-0.15,2.617-0.15,3.55
				c0.1-0.067,0.233-0.133,0.4-0.2c0.033-1.1,0.067-2.417,0.1-3.95c0.067-1.467,0.3-2.684,0.7-3.65c0.5,0.066,1.167,0.683,2,1.85
				c0.267,0.367,0.483,0.717,0.65,1.05c-0.1-0.3-0.2-0.583-0.3-0.85c-0.133-0.3-0.267-0.55-0.4-0.75c-0.433-0.8-1.083-1.6-1.95-2.4
				h-0.1v-0.75c0.167-0.733,0.4-1.567,0.7-2.5c0.034,0.033,0.1,0.05,0.2,0.05c0.033,0,0.067,0,0.1,0
				c0.033-0.066,0.05-0.133,0.05-0.2c0.033-0.034,0.033-0.067,0-0.1s-0.066-0.05-0.1-0.05c-0.033-0.066-0.083-0.117-0.15-0.15
				c-0.2-0.2-0.433-0.517-0.7-0.95c-0.2-0.434-0.434-0.967-0.7-1.6c-0.367-0.9-0.617-1.633-0.75-2.2
				c-0.067-0.2-0.117-0.383-0.15-0.55c0-0.067,0-0.133,0-0.2v-0.05c-0.2-1.333-0.35-2.7-0.45-4.1v-0.05
				c-0.1-1.467-0.15-2.95-0.15-4.45c0-0.067,0-0.167,0-0.3c0.033-2.9,0.267-5.833,0.7-8.8c0.367-2.9,0.617-5.816,0.75-8.75
				c1.233,2.567,2.25,6.3,3.05,11.2c0.033,0.433,0.083,0.833,0.15,1.2v0.1c-0.233,0.9-0.483,2.8-0.75,5.7c0,0.133,0,0.267,0,0.4
				v0.05c-0.433,0.167-1,0.684-1.7,1.55h0.05c-0.034,0.001-0.068,0.018-0.1,0.05l-0.1,0.1c-0.533,0.7-0.933,1.267-1.2,1.7
				c-0.033,0.066-0.05,0.133-0.05,0.2c0,0.033,0.017,0.05,0.05,0.05c0,0.033,0.017,0.05,0.05,0.05c0,0.033,0.033,0.05,0.1,0.05
				c0.033,0,0.067-0.033,0.1-0.1h0.05c0.133-0.333,0.367-0.717,0.7-1.15c0.133-0.133,0.283-0.3,0.45-0.5h0.05l0.05-0.05
				c0.1-0.1,0.2-0.183,0.3-0.25c0.433-0.433,0.8-0.717,1.1-0.85c0,0.067,0,0.133,0,0.2c0.067,0,0.117-0.017,0.15-0.05
				c-0.034,0.3-0.05,0.567-0.05,0.8c0,0.066,0,0.133,0,0.2c0,0.034,0,0.083,0,0.15c0,0.033,0,0.066,0,0.1
				c-0.033,0.3-0.066,0.6-0.1,0.9c0,0.1,0,0.2,0,0.3s0,0.2,0,0.3c-0.1,1-0.183,2.067-0.25,3.2c0,0.033,0.017,0.067,0.05,0.1
				c0.033,0.066,0.066,0.1,0.1,0.1c0.033,0,0.066-0.034,0.1-0.1c0.034,0,0.05-0.033,0.05-0.1c0.066-1.3,0.167-2.483,0.3-3.55
				c0.767,0.833,1.717,2.667,2.85,5.5c0.033,0.033,0.05,0.066,0.05,0.1c-0.267,0.6-0.517,1.534-0.75,2.8
				c-0.033,0.066-0.05,0.15-0.05,0.25c-0.267,1.533-0.4,2.9-0.4,4.1c0,0.367,0.05,0.917,0.15,1.65c0.067,0.8,0.15,1.4,0.25,1.8
				c0-0.333-0.033-0.9-0.1-1.7c-0.033-0.733-0.05-1.317-0.05-1.75c0-0.8,0.017-1.284,0.05-1.45c0.033-0.233,0.2-0.85,0.5-1.85
				c0.067-0.333,0.233-0.8,0.5-1.4c0.2-0.4,0.35-0.733,0.45-1c1.033,2.833,1.667,5.433,1.9,7.8c0-0.066,0.017-0.117,0.05-0.15
				c0.067-0.233,0.05-0.683-0.05-1.35c-0.133-1.3-0.317-2.55-0.55-3.75c-0.267-1.2-0.567-2.333-0.9-3.4
				c-0.767-2.133-1.566-3.867-2.4-5.2c-0.533-0.833-1.017-1.483-1.45-1.95c0-0.067,0-0.15,0-0.25c0-0.033,0-0.067,0-0.1
				c0.033-0.1,0.05-0.217,0.05-0.35c0.033-0.267,0.067-0.517,0.1-0.75v-0.15c0-0.033,0-0.083,0-0.15c0-0.133,0.017-0.3,0.05-0.5
				c0-0.033,0-0.067,0-0.1c0.2-1.967,0.367-3.367,0.5-4.2c0.1,0.833,0.184,1.583,0.25,2.25v0.05c0.167,1.067,0.283,1.95,0.35,2.65
				c0,0.067,0.017,0.117,0.05,0.15c0,0.067,0.017,0.15,0.05,0.25c0,0.133,0,0.25,0,0.35c0.033,0.167,0.05,0.317,0.05,0.45
				s0.017,0.25,0.05,0.35c0,0.066,0.017,0.1,0.05,0.1h0.05c0,0.034,0.017,0.05,0.05,0.05s0.066-0.017,0.1-0.05
				c0.033-0.066,0.05-0.117,0.05-0.15c0-0.1,0-0.183,0-0.25v-0.05c-0.033-0.233-0.05-0.483-0.05-0.75c-0.034-0.1-0.05-0.2-0.05-0.3
				c0-0.033,0-0.083,0-0.15c-0.033-0.9-0.1-1.816-0.2-2.75v-0.1c-0.167-1.5-0.333-3-0.5-4.5c-0.067-0.9-0.167-1.816-0.3-2.75
				c-0.066-0.3-0.333-1.55-0.8-3.75c-0.033-0.233-0.083-0.483-0.15-0.75c1.1,0.7,2.267,2.017,3.5,3.95
				c0.1,0.2,0.216,0.417,0.35,0.65c0,0.233,0,0.483,0,0.75c-0.1,1.067-0.15,2-0.15,2.8c0,0.2,0.017,0.383,0.05,0.55
				c0,0.033,0.017,0.083,0.05,0.15c0.033,0,0.067,0,0.1,0h0.1c0-0.066,0.017-0.117,0.05-0.15c0.033-0.167,0.05-0.35,0.05-0.55
				c0.067-0.633,0.133-1.2,0.2-1.7c0.033-0.333,0.083-0.633,0.15-0.9c0.133,0.3,0.283,0.6,0.45,0.9
				c0.433,0.933,0.816,1.883,1.15,2.85c-0.267,0.333-0.483,0.683-0.65,1.05c-0.2,0.4-0.333,0.833-0.4,1.3
				c-0.2,0.966-0.284,1.95-0.25,2.95c-0.034,0.067-0.034,0.117,0,0.15c0,0.3,0,0.6,0,0.9c0.133,1.5,0.316,2.966,0.55,4.4
				c0.167,0.833,0.333,1.65,0.5,2.45c0.333,1.267,0.667,2.534,1,3.8C162.45-39,162.667-38.1,162.9-37.2z"/>
			<g>
				<path style="fill-rule:evenodd;clip-rule:evenodd;fill:#26211A;" d="M123.5-21.1c-0.067-0.2-0.15-0.5-0.25-0.9
					c-0.167-0.533-0.267-0.933-0.3-1.2c-0.067-0.5,0-0.75,0.2-0.75c0.467-0.066,1.083,0.25,1.85,0.95c0.6,0.6,1.2,1.383,1.8,2.35
					c0.067,0,0.15,0,0.25,0c-0.6-1.1-1.533-2.25-2.8-3.45c-0.933-0.967-1.633-1.533-2.1-1.7l-0.1-0.85c-0.033-0.3,0-0.767,0.1-1.4
					c0.1-0.6,0.233-1.05,0.4-1.35c0.633,0.833,1.434,1.683,2.4,2.55c0.033,0.067,0.066,0.1,0.1,0.1l0.05-0.1
					c0.066-0.033,0.083-0.083,0.05-0.15c0-0.033-0.017-0.067-0.05-0.1c-0.767-0.8-1.5-1.816-2.2-3.05c-0.066-0.1-0.117-0.2-0.15-0.3
					c-0.267-0.466-0.517-0.933-0.75-1.4c0.033,0,0.083,0,0.15,0c0.467,0.033,1.45,0.35,2.95,0.95c0.733,0.3,1.867,0.783,3.4,1.45
					c0.433,0.733,1.15,1.867,2.15,3.4c0.667,1.066,1.283,2.017,1.85,2.85c0-0.066-0.033-0.15-0.1-0.25
					c-0.467-0.833-0.8-1.417-1-1.75c-0.667-1.066-1.117-1.8-1.35-2.2c-0.3-0.567-0.5-1.1-0.6-1.6c1.1,0.5,2.333,1.317,3.7,2.45
					c0.4,0.333,0.9,0.75,1.5,1.25c-0.367-0.434-0.767-0.867-1.2-1.3c-1.467-1.467-3.383-2.783-5.75-3.95
					c-0.9-0.467-1.867-0.917-2.9-1.35c-0.466-0.167-0.95-0.35-1.45-0.55c-0.833-0.333-1.434-0.566-1.8-0.7
					c-0.066,0-0.117-0.017-0.15-0.05c-0.033-0.066-0.066-0.15-0.1-0.25c-0.3-0.667-0.6-1.367-0.9-2.1c-0.133-0.4-0.283-0.8-0.45-1.2
					c-0.167-0.4-0.25-0.8-0.25-1.2c0-0.167,0-0.333,0-0.5c0-1.233-0.05-2.5-0.15-3.8c-0.033-0.367-0.066-0.717-0.1-1.05
					c-0.067-1.167-0.184-2.284-0.35-3.35c-0.033-0.167-0.067-0.35-0.1-0.55c-0.233-1.466-0.517-2.933-0.85-4.4
					c-0.033-0.267-0.083-0.533-0.15-0.8c0.933,1.267,1.75,2.8,2.45,4.6c0.133,0.233,0.25,0.466,0.35,0.7
					c0.133,0.4,0.267,0.817,0.4,1.25c0.267,0.7,0.533,1.434,0.8,2.2c0,0.033-0.033,0.083-0.1,0.15c-0.133,0.4-0.233,0.867-0.3,1.4
					c-0.033,0.4-0.05,0.817-0.05,1.25c0,0.934,0.133,2.233,0.4,3.9v0.05c0,0.033,0.017,0.083,0.05,0.15c0.033,0,0.083,0,0.15,0h0.05
					c0.033-0.067,0.05-0.117,0.05-0.15c-0.033-0.667-0.067-1.75-0.1-3.25c-0.033-1.067,0.017-1.867,0.15-2.4
					c0.434,1.2,0.883,2.6,1.35,4.2l1.6,5.3c-1.167-5.1-2-8.6-2.5-10.5c-0.1-0.5-0.183-0.883-0.25-1.15c0.6,0.267,1.267,0.617,2,1.05
					c0.733,0.4,1.5,0.983,2.3,1.75c0,0.1,0,0.2,0,0.3c0.067,0.567,0.184,1.217,0.35,1.95c0.033,0.133,0.067,0.25,0.1,0.35
					c0.033,0.167,0.083,0.35,0.15,0.55c0,0.067,0.017,0.133,0.05,0.2c0.133,0.5,0.267,0.85,0.4,1.05c0,0.067,0.017,0.117,0.05,0.15
					s0.067,0.017,0.1-0.05c0.067,0,0.1-0.033,0.1-0.1c0.033,0,0.033-0.017,0-0.05c0-0.067-0.067-0.284-0.2-0.65
					c0.167,0.167,0.333,0.333,0.5,0.5c1,1.034,2.117,2.55,3.35,4.55c1.167,2.033,2.117,3.85,2.85,5.45c-0.434-1.433-1.1-3.066-2-4.9
					c-1.133-2.233-2.333-4.017-3.6-5.35c-0.433-0.5-0.883-0.933-1.35-1.3c0-0.067-0.017-0.133-0.05-0.2
					c-0.033-0.066-0.05-0.15-0.05-0.25c-0.066-0.4-0.117-0.85-0.15-1.35c-0.033-0.1-0.05-0.2-0.05-0.3
					c0.833,0.867,1.667,1.833,2.5,2.9c0.033,0,0.066,0,0.1,0c0.033,0,0.066,0,0.1,0c0-0.033,0-0.083,0-0.15c0-0.033,0-0.066,0-0.1
					v-0.05c-0.733-1.167-1.583-2.283-2.55-3.35c-0.1-0.066-0.183-0.15-0.25-0.25c-1.1-1.1-2.05-1.883-2.85-2.35
					c-0.733-0.466-1.45-0.8-2.15-1c-0.133-0.3-0.233-0.566-0.3-0.8v-0.05c-0.1-0.233-0.184-0.467-0.25-0.7
					c-0.534-1.367-1.067-2.583-1.6-3.65c-0.167-0.467-0.517-1.15-1.05-2.05c-0.6-0.966-1.033-1.85-1.3-2.65
					c-0.3-0.767-0.65-2.617-1.05-5.55c-0.367-2.867-0.633-5.017-0.8-6.45c-0.133-1.467-0.25-3.467-0.35-6
					c-0.066-2.566-0.183-4.383-0.35-5.45c-0.3-2.233-0.75-4.333-1.35-6.3c-0.4-1.3-0.684-2.367-0.85-3.2
					c-0.033-0.1-0.05-0.217-0.05-0.35c0.533-0.733,1.633-1.267,3.3-1.6c0.867-0.2,1.6-0.367,2.2-0.5c-0.767,0-1.65,0.033-2.65,0.1
					c-0.4,0.033-0.833,0.066-1.3,0.1c-1.6,0.167-2.417,0.25-2.45,0.25c-0.233,0-0.466-0.1-0.7-0.3c-0.267-0.2-0.417-0.3-0.45-0.3
					c-1.967,0.4-3.167,0.6-3.6,0.6c-0.533,0-1.083-0.083-1.65-0.25c-1-0.333-1.867-0.583-2.6-0.75h-2.5v0.15
					c1.4,0.633,3.333,1.283,5.8,1.95c1.633,0.534,2.9,1.3,3.8,2.3c1.3,3.233,2.184,6.667,2.65,10.3
					c0.567,4.533,0.883,7.667,0.95,9.4c0.033,1.7,0.05,2.833,0.05,3.4c0.034,0.167,0.05,0.316,0.05,0.45
					c-0.533,1.467-0.867,2.567-1,3.3c-0.1,0.767-0.367,1.25-0.8,1.45c-0.5,0.2-1.316,1.4-2.45,3.6c-0.267,0.533-0.5,1.1-0.7,1.7
					c-0.3,0.833-0.55,1.683-0.75,2.55c-0.9,0.333-1.85,0.833-2.85,1.5c-1.133,0.767-1.917,1.45-2.35,2.05
					c0,0.067,0.017,0.117,0.05,0.15c0.5-0.567,1.25-1.133,2.25-1.7c1.067-0.7,2-1.2,2.8-1.5c-0.233,1.4-0.35,2.9-0.35,4.5
					c0,0.033,0,0.083,0,0.15c-0.034,0.067-0.017,0.1,0.05,0.1c0,0.067,0.017,0.1,0.05,0.1c0.067,0,0.117-0.017,0.15-0.05
					c0.033-0.033,0.033-0.066,0-0.1c0.033-0.067,0.05-0.133,0.05-0.2v-0.05c0.033-0.567,0.083-1.117,0.15-1.65
					c0.167,0.233,0.317,0.467,0.45,0.7c0.667,1.367,1.033,2.717,1.1,4.05c0.033,1.2,0.066,2.333,0.1,3.4
					c-0.233,0.1-0.466,0.233-0.7,0.4c-0.434,0.333-0.75,0.583-0.95,0.75c-0.233,0.167-0.617,0.533-1.15,1.1
					c-0.5,0.633-0.767,1.066-0.8,1.3c0.033,0.067,0.066,0.133,0.1,0.2c0.434-0.867,1.25-1.633,2.45-2.3c0.4-0.2,0.75-0.367,1.05-0.5
					c0.034,3.667-0.083,6.35-0.35,8.05c0,0.033,0.017,0.066,0.05,0.1c0.1-0.867,0.183-1.7,0.25-2.5c0.133-1.2,0.267-2.383,0.4-3.55
					c0.067-0.8,0.117-1.567,0.15-2.3c0.034-1.333,0.017-2.684-0.05-4.05c-0.033-0.3-0.067-0.583-0.1-0.85
					c0.033-0.033,0.033-0.066,0-0.1c-0.133-0.934-0.333-1.833-0.6-2.7c-0.133-0.4-0.316-0.767-0.55-1.1
					c-0.2-0.3-0.433-0.566-0.7-0.8c0.133-0.934,0.367-1.85,0.7-2.75c0.1-0.3,0.183-0.6,0.25-0.9c0.1,0.267,0.183,0.533,0.25,0.8
					c0.133,0.467,0.267,0.983,0.4,1.55c0.033,0.167,0.067,0.333,0.1,0.5c0.033,0.034,0.067,0.05,0.1,0.05
					c0.033,0.033,0.066,0.05,0.1,0.05l0.05-0.05c0.033-0.033,0.05-0.083,0.05-0.15c0-0.133-0.017-0.284-0.05-0.45v-0.05
					c-0.1-0.733-0.25-1.55-0.45-2.45c-0.033-0.267-0.066-0.5-0.1-0.7c0.033-0.233,0.117-0.45,0.25-0.65c0.867-1.867,1.733-3.2,2.6-4
					c-0.033,0.233-0.05,0.45-0.05,0.65c-0.133,2.067-0.2,3.233-0.2,3.5c-0.033,0.867-0.017,1.7,0.05,2.5
					c0.033,1.4,0.083,2.8,0.15,4.2v0.1c0,0.833,0.05,1.667,0.15,2.5c0,0.033,0,0.066,0,0.1c0,0.1,0,0.2,0,0.3
					c0.067,0.233,0.1,0.467,0.1,0.7V-43c0,0.067,0.017,0.15,0.05,0.25v0.05c0,0.034,0.034,0.05,0.1,0.05
					c0.033,0,0.05-0.017,0.05-0.05H113c0.033,0,0.05-0.033,0.05-0.1c0-0.1-0.017-0.2-0.05-0.3c0-0.133,0-0.283,0-0.45
					c0.033-0.1,0.033-0.2,0-0.3c0-0.066,0-0.133,0-0.2c0-0.034,0-0.083,0-0.15c0-0.667,0-1.483,0-2.45v-0.05
					c-0.033-0.633-0.033-1.316,0-2.05c0.167,0.7,0.483,1.933,0.95,3.7c0,0.033,0,0.066,0,0.1c0.033,0.167,0.066,0.317,0.1,0.45
					c0,0.033,0,0.067,0,0.1l0.05,0.05c0,0.033,0,0.067,0,0.1v0.05c0.066,0.233,0.117,0.45,0.15,0.65
					c0.033,0.133,0.067,0.233,0.1,0.3c0,0.033,0,0.067,0,0.1c0.066,0.1,0.1,0.167,0.1,0.2c-0.367,0.534-0.733,1.184-1.1,1.95
					c-0.6,1.3-1.1,2.983-1.5,5.05c-0.2,1-0.333,2.05-0.4,3.15c-0.067,1.1-0.083,2.267-0.05,3.5c0,0.566,0.05,0.966,0.15,1.2
					c0,0.033,0.034,0.083,0.1,0.15c-0.133-2.2,0.083-4.65,0.65-7.35c0.167,0.233,0.35,0.533,0.55,0.9c0.333,0.5,0.55,0.9,0.65,1.2
					c0.4,0.867,0.633,1.383,0.7,1.55c0.033,0.167,0.117,0.617,0.25,1.35c0.033,0.4,0.066,0.933,0.1,1.6
					c0.067,0.7,0.117,1.217,0.15,1.55c0.033-0.367,0.05-0.934,0.05-1.7c-0.033-0.667-0.067-1.15-0.1-1.45
					c-0.133-1.1-0.433-2.333-0.9-3.7c-0.033-0.067-0.05-0.133-0.05-0.2c-0.4-1.133-0.75-1.95-1.05-2.45v-0.05
					c0.667-2.733,1.317-4.533,1.95-5.4c0.2,0.967,0.433,2.017,0.7,3.15v0.05c0,0.033,0.017,0.066,0.05,0.1
					c0,0.033,0.033,0.033,0.1,0c0.033,0,0.066-0.017,0.1-0.05c0-0.033,0-0.066,0-0.1c-0.233-1.033-0.45-1.983-0.65-2.85
					c0-0.1-0.017-0.2-0.05-0.3c0-0.1,0-0.183,0-0.25c-0.067-0.267-0.133-0.533-0.2-0.8c0-0.033,0-0.083,0-0.15
					c-0.033,0-0.05-0.017-0.05-0.05c0-0.066-0.017-0.133-0.05-0.2c-0.033-0.233-0.066-0.483-0.1-0.75
					c0.033,0.033,0.066,0.05,0.1,0.05c0-0.033,0-0.083,0-0.15c0.267,0.066,0.633,0.267,1.1,0.6c0.1,0.066,0.2,0.133,0.3,0.2
					l0.05,0.05h0.05c0.167,0.167,0.317,0.283,0.45,0.35c0.367,0.4,0.633,0.717,0.8,0.95h0.1c0,0.067,0.033,0.083,0.1,0.05
					c0.033,0,0.05-0.017,0.05-0.05h0.05c0.033-0.033,0.033-0.067,0-0.1c0-0.066-0.017-0.117-0.05-0.15
					c-0.3-0.333-0.733-0.783-1.3-1.35c-0.033-0.033-0.05-0.066-0.05-0.1h-0.05c-0.033-0.033-0.083-0.033-0.15,0V-44h0.1
					c-0.767-0.7-1.35-1.117-1.75-1.25c-0.033-0.1-0.067-0.2-0.1-0.3c-0.567-2.6-1.017-4.3-1.35-5.1c0-0.033,0-0.067,0-0.1
					c0-0.333,0-0.7,0-1.1c0.067-4.5,0.5-8,1.3-10.5c0.5,2.667,1.1,5.267,1.8,7.8c0.767,2.633,1.35,5.267,1.75,7.9c0,0.1,0,0.2,0,0.3
					c0.2,1.3,0.35,2.617,0.45,3.95v0.05c0.066,1.3,0.117,2.567,0.15,3.8v0.05c0,0.033,0,0.083,0,0.15c0,0.167,0,0.333,0,0.5
					c-0.067,0.533-0.217,1.233-0.45,2.1c-0.167,0.633-0.316,1.15-0.45,1.55c-0.167,0.434-0.333,0.75-0.5,0.95
					c-0.067,0.067-0.117,0.117-0.15,0.15c0,0.033-0.017,0.067-0.05,0.1s-0.033,0.05,0,0.05c0,0.067,0.033,0.133,0.1,0.2h0.05
					c0.1-0.033,0.184-0.067,0.25-0.1c0.333,0.8,0.633,1.533,0.9,2.2l0.1,0.7L118.1-30c-0.7,0.867-1.217,1.667-1.55,2.4
					c-0.066,0.233-0.133,0.483-0.2,0.75c-0.067,0.267-0.117,0.533-0.15,0.8c0.1-0.3,0.25-0.65,0.45-1.05
					c0.567-1.167,1.083-1.816,1.55-1.95c0.5,0.867,0.867,1.95,1.1,3.25c0.2,1.4,0.4,2.583,0.6,3.55
					c0.133,0.067,0.267,0.117,0.4,0.15c-0.133-0.833-0.333-1.9-0.6-3.2c-0.3-1.434-0.7-3.15-1.2-5.15
					c-0.267-0.933-0.517-1.9-0.75-2.9c0.233-0.333,0.483-0.816,0.75-1.45c0.167-0.333,0.367-0.733,0.6-1.2
					c0.1,0.4,0.233,0.783,0.4,1.15c0.1,0.267,0.2,0.517,0.3,0.75c0.267,0.6,0.583,1.25,0.95,1.95c0.267,0.6,0.6,1.183,1,1.75
					c0.033,0.333,0.033,0.833,0,1.5c-0.033,0.933,0.017,1.95,0.15,3.05v0.05c0,0.1,0.017,0.2,0.05,0.3
					c0.133,0.967,0.533,2.25,1.2,3.85c0.1,0.2,0.184,0.383,0.25,0.55C123.433-21.1,123.467-21.1,123.5-21.1z M114.4-44.4l-0.05-0.05
					v-0.05c0.066,0.033,0.117,0.05,0.15,0.05l-0.1,0.1V-44.4z"/>
			</g>
		</g>
		<g>
			<path style="fill-rule:evenodd;clip-rule:evenodd;fill:#26211A;" d="M94.7-37.1c0.3-0.433,0.566-0.767,0.8-1s0.45-0.35,0.65-0.35
				c0.267,0.7,0.434,1.583,0.5,2.65c0,0.733,0.117,1.6,0.35,2.6c0-0.6-0.033-1.333-0.1-2.2c-0.1-1.167-0.233-2.55-0.4-4.15
				c-0.1-0.767-0.183-1.483-0.25-2.15c0.033-0.066,0.067-0.133,0.1-0.2c0.2-0.333,0.417-0.684,0.65-1.05
				c0.167-0.233,0.367-0.517,0.6-0.85c0.033,0.3,0.1,0.617,0.2,0.95c0.067,0.167,0.117,0.35,0.15,0.55
				c0.1,0.267,0.183,0.55,0.25,0.85c0.1,0.267,0.183,0.55,0.25,0.85c0.133,0.434,0.316,0.867,0.55,1.3
				c-0.067,0.4-0.117,0.783-0.15,1.15c-0.1,0.7-0.184,1.117-0.25,1.25c0.033,0.3,0.05,0.483,0.05,0.55
				c0,0.233,0.017,0.483,0.05,0.75v0.05c0,0.1,0,0.183,0,0.25c0,0.267,0.017,0.566,0.05,0.9c0.1,0.633,0.25,1.383,0.45,2.25
				c0.066,0.167,0.117,0.316,0.15,0.45l0.1,0.45c-0.067-0.433-0.15-0.867-0.25-1.3c-0.067-0.4-0.133-0.767-0.2-1.1
				c-0.033-0.333-0.017-0.75,0.05-1.25c0.667,0.6,1.25,1.233,1.75,1.9c0.3,0.433,0.717,1.117,1.25,2.05
				c-0.4-1.066-0.966-2.066-1.7-3c-0.5-0.667-0.9-1.133-1.2-1.4c-0.033-0.033-0.066-0.066-0.1-0.1L99-36.2
				c0-0.433,0.033-0.733,0.1-0.9c0-0.1,0.033-0.25,0.1-0.45c0.1-0.267,0.2-0.467,0.3-0.6c0-0.033,0.017-0.067,0.05-0.1
				c0.434,0.7,0.967,1.433,1.6,2.2V-36c0.033,0,0.333,0.267,0.9,0.8c0.434,0.467,0.717,0.733,0.85,0.8h0.05
				c0.033,0-0.217-0.267-0.75-0.8c-0.067-0.066-0.133-0.133-0.2-0.2c-0.033-0.033-0.067-0.067-0.1-0.1
				c-0.333-0.4-0.617-0.75-0.85-1.05c-0.267-0.367-0.533-0.867-0.8-1.5c-0.267-0.6-0.4-0.95-0.4-1.05
				c-0.167-0.367-0.367-0.85-0.6-1.45c0.2,0,0.75,0.216,1.65,0.65c0.934,0.467,2.05,1.217,3.35,2.25c0.067,0.2,0.167,0.433,0.3,0.7
				c0.233,0.567,0.55,1.284,0.95,2.15c0.433,0.9,0.817,1.716,1.15,2.45c0-0.1-0.017-0.183-0.05-0.25
				c-0.233-0.667-0.417-1.15-0.55-1.45c-0.4-0.9-0.683-1.517-0.85-1.85c-0.167-0.5-0.25-0.934-0.25-1.3c0.8,0.5,1.667,1.267,2.6,2.3
				c0.3,0.3,0.65,0.683,1.05,1.15c-0.233-0.4-0.5-0.783-0.8-1.15c-1-1.3-2.35-2.55-4.05-3.75c-0.667-0.467-1.383-0.917-2.15-1.35
				c-0.333-0.2-0.684-0.4-1.05-0.6c-0.633-0.3-1.083-0.533-1.35-0.7c-0.067,0-0.1-0.034-0.1-0.1c-0.033-0.067-0.067-0.117-0.1-0.15
				c-0.133-0.567-0.283-1.167-0.45-1.8c-0.066-0.333-0.133-0.667-0.2-1c-0.067-0.3-0.1-0.6-0.1-0.9c0.033-0.133,0.067-0.267,0.1-0.4
				c0.133-1,0.233-1.983,0.3-2.95c0.033-0.333,0.05-0.633,0.05-0.9c0.066-0.9,0.083-1.783,0.05-2.65c0-0.133,0-0.267,0-0.4
				c0-1.2-0.05-2.383-0.15-3.55c-0.033-0.167-0.05-0.333-0.05-0.5c0-0.033,0-0.083,0-0.15c0.6,1.067,1.083,2.35,1.45,3.85
				c0.067,0.2,0.117,0.4,0.15,0.6c0.067,0.333,0.133,0.667,0.2,1c0.1,0.466,0.183,0.917,0.25,1.35c0.033,0.167,0.066,0.317,0.1,0.45
				c-0.034,0.033-0.05,0.083-0.05,0.15c-0.167,0.3-0.3,0.65-0.4,1.05c-0.067,0.3-0.133,0.617-0.2,0.95
				c-0.066,0.733-0.1,1.767-0.1,3.1v0.05c0,0.034,0,0.067,0,0.1c0.033,0,0.066,0,0.1,0h0.05c0.033-0.033,0.05-0.066,0.05-0.1
				c0.067-0.466,0.15-1.25,0.25-2.35c0-0.067,0-0.133,0-0.2c0.1-0.767,0.233-1.35,0.4-1.75c0-0.033,0.017-0.067,0.05-0.1
				c0.2,1,0.383,2.15,0.55,3.45l0.7,4.35c-0.033-0.367-0.067-0.7-0.1-1c0-0.067,0-0.133,0-0.2c-0.067-0.7-0.133-1.367-0.2-2
				l-0.05-0.4c-0.2-2.233-0.35-3.883-0.45-4.95c-0.033-0.4-0.05-0.717-0.05-0.95c0.033,0.033,0.083,0.066,0.15,0.1
				c0.367,0.3,0.783,0.617,1.25,0.95c0.434,0.367,0.85,0.783,1.25,1.25c0.033,0.033,0.05,0.067,0.05,0.1
				c0.066,0.4,0.1,1.033,0.1,1.9v0.25c0,0.067,0,0.117,0,0.15l0.25,0.75c0.1,0.333,0.167,0.567,0.2,0.7
				c0.067,0.133,0.15,0.4,0.25,0.8c0.1,0.267,0.2,0.617,0.3,1.05c-0.033-0.167-0.066-0.333-0.1-0.5
				c-0.1-0.867-0.217-1.583-0.35-2.15c0.2,0.367,0.583,0.934,1.15,1.7c0.2,0.267,0.4,0.6,0.6,1c0.467,0.833,0.983,2,1.55,3.5
				c0.267,0.7,0.483,1.283,0.65,1.75c-0.2-0.833-0.466-1.733-0.8-2.7c-0.633-1.867-1.367-3.4-2.2-4.6
				c-0.267-0.434-0.583-0.817-0.95-1.15c0-0.033,0-0.066,0-0.1c0-0.1,0-0.167,0-0.2v-0.05c0-0.3,0-0.65,0-1.05v-0.05
				c0-0.067,0-0.133,0-0.2c0.8,0.967,1.4,1.717,1.8,2.25c-0.4-0.967-0.933-1.917-1.6-2.85c-0.066-0.033-0.1-0.083-0.1-0.15h-0.05
				c-0.733-1-1.383-1.733-1.95-2.2c-0.534-0.434-1.067-0.767-1.6-1c-0.033-0.233-0.083-0.45-0.15-0.65v-0.05
				c-0.034-0.233-0.067-0.433-0.1-0.6c-0.233-1.133-0.517-2.133-0.85-3c-0.067-0.367-0.267-0.95-0.6-1.75
				c-0.333-0.8-0.566-1.533-0.7-2.2c-0.034-0.233-0.083-0.6-0.15-1.1c-0.033-0.767-0.05-1.867-0.05-3.3c0-2.3,0.017-4.017,0.05-5.15
				c0.067-1.167,0.2-2.75,0.4-4.75c0.233-2,0.35-3.433,0.35-4.3c0-1.767-0.133-3.467-0.4-5.1c-0.033-0.133-0.05-0.267-0.05-0.4
				c0.1-0.167,0.25-0.35,0.45-0.55c0.4-0.367,0.6-0.667,0.6-0.9c2.767-1.167,4.7-1.85,5.8-2.05V-87c-0.067,0-0.2,0-0.4,0
				c-0.333,0-0.75,0.083-1.25,0.25c-0.566,0.233-1.083,0.367-1.55,0.4c-0.233,0.033-0.833,0.083-1.8,0.15
				c-0.867,0.1-1.383,0.133-1.55,0.1c0.2-0.133,0.4-0.233,0.6-0.3c1.033-0.333,1.633-0.533,1.8-0.6v-0.15h-0.8
				c-0.167,0.066-0.617,0.25-1.35,0.55c-0.333,0.133-0.617,0.233-0.85,0.3c-0.367,0.133-0.6,0.2-0.7,0.2l-1.15-0.1
				c-0.333-0.033-0.633-0.066-0.9-0.1c-0.3-0.034-0.533-0.05-0.7-0.05c-0.133,0-0.367,0.017-0.7,0.05c-0.333,0-0.55-0.034-0.65-0.1
				c-0.367-0.233-0.867-0.383-1.5-0.45c-0.267-0.066-0.717-0.133-1.35-0.2c-0.633-0.034-1.066-0.05-1.3-0.05
				c-0.434,0-0.684,0-0.75,0c-0.167,0.033-0.333,0.15-0.5,0.35l0.1,0.05l2.8,0.35c0.6,0.1,1.1,0.25,1.5,0.45
				c0.3,0.133,0.55,0.167,0.75,0.1c0.6-0.133,1.2-0.05,1.8,0.25c0.367,0.167,0.667,0.383,0.9,0.65c0.667,2.7,0.983,5.517,0.95,8.45
				c-0.033,2.8-0.1,4.917-0.2,6.35c-0.467,1.667-1.117,4.033-1.95,7.1c-0.033,0.167-0.1,0.283-0.2,0.35
				c-0.033,0.133-0.216,0.367-0.55,0.7c-0.3,0.367-0.7,0.784-1.2,1.25c-0.5,0.467-0.983,0.95-1.45,1.45
				c-0.167,0.5-0.3,0.883-0.4,1.15c-0.133,0.267-0.25,0.583-0.35,0.95c-0.833,0.433-1.567,0.733-2.2,0.9l-0.9,0.45
				c-0.7,0.433-1.133,0.75-1.3,0.95c-0.067,0.1-0.167,0.267-0.3,0.5c-0.167,0.233-0.383,0.55-0.65,0.95
				c0.833-0.967,1.517-1.617,2.05-1.95c0.267-0.2,0.5-0.333,0.7-0.4s0.333-0.1,0.4-0.1c0.733-0.2,1.35-0.3,1.85-0.3
				c-0.033,0.066-0.067,0.133-0.1,0.2c-0.2,0.767-0.367,1.633-0.5,2.6c-0.167,1.1-0.3,1.934-0.4,2.5
				c-0.067,0.567-0.017,0.4,0.15-0.5l0.3-1.35c0.033-0.033,0,0.2-0.1,0.7l0.2-0.9c0.1-0.434,0.2-0.867,0.3-1.3
				c0.066,0.233,0.217,0.733,0.45,1.5c0.233,0.8,0.3,1.767,0.2,2.9c-0.067,0.966-0.15,1.716-0.25,2.25
				c-0.067,0-0.15,0.017-0.25,0.05c-0.533,0.267-0.9,0.45-1.1,0.55c-0.2,0.1-0.483,0.333-0.85,0.7
				c-0.333,0.367-0.583,0.633-0.75,0.8c-0.167,0.2-0.433,0.7-0.8,1.5c0.067-0.133,0.133-0.25,0.2-0.35
				c0.566-0.767,1.066-1.35,1.5-1.75c0.3-0.3,0.566-0.483,0.8-0.55c0.567-0.167,0.95-0.267,1.15-0.3c-0.1,0.566-0.183,1.1-0.25,1.6
				c-0.267,1.633-0.483,2.833-0.65,3.6c0.067-0.233,0.133-0.483,0.2-0.75c0.267-0.933,0.517-1.85,0.75-2.75
				c0.133-0.6,0.25-1.2,0.35-1.8c0.167-1.033,0.284-2.083,0.35-3.15c0.033-0.233,0.05-0.45,0.05-0.65c0.033-0.034,0.033-0.067,0-0.1
				c0.033-0.733-0.034-1.45-0.2-2.15c-0.033-0.333-0.133-0.633-0.3-0.9c-0.1-0.3-0.167-0.733-0.2-1.3
				c0.067-0.333,0.267-0.833,0.6-1.5c0.1-0.233,0.2-0.467,0.3-0.7c0.067,0.233,0.1,0.467,0.1,0.7c0.033,0.333,0.083,0.733,0.15,1.2
				c0,0.167,0.05,0.8,0.15,1.9c0,0.1,0,0.2,0,0.3c0.067-1.167,0.1-1.767,0.1-1.8c0.033-0.1,0.05-0.233,0.05-0.4
				c0-0.333-0.017-0.7-0.05-1.1c0-0.3-0.017-0.617-0.05-0.95c-0.033-0.167-0.05-0.333-0.05-0.5c0.133-0.167,0.233-0.316,0.3-0.45
				c0.667-1.034,1.5-1.934,2.5-2.7L94.8-61.2c0,0.1-0.017,0.2-0.05,0.3c0,0.033-0.017,0.05-0.05,0.05
				c-0.3,1.567-0.467,2.45-0.5,2.65c-0.133,0.7-0.217,1.367-0.25,2c-0.133,1.067-0.25,2.15-0.35,3.25v0.05
				c-0.067,0.667-0.117,1.333-0.15,2c0,0.033,0.017,0.2,0.05,0.5c0,0.167,0.017,0.3,0.05,0.4c0,0.1,0.017,0.183,0.05,0.25L93.75-49
				c-0.067-0.8-0.083-1.267-0.05-1.4c0-0.067,0-0.15,0-0.25c0-0.033,0-0.083,0-0.15c0.033-0.034,0.05-0.067,0.05-0.1
				c0.067-0.5,0.15-1.133,0.25-1.9v-0.05c0.067-0.5,0.133-1.033,0.2-1.6c0.1,0.567,0.216,1.583,0.35,3.05v0.05
				c0.034,0.133,0.05,0.25,0.05,0.35c0,0.033,0,0.067,0,0.1s0,0.066,0,0.1l-0.05,1.5c-0.267,0.333-0.5,0.566-0.7,0.7
				c-0.233,0.533-0.483,1-0.75,1.4c-0.233,0.4-0.55,1.117-0.95,2.15c-0.4,1.066-0.783,2.133-1.15,3.2c0,0.667-0.033,1.6-0.1,2.8
				c0,0.167,0,0.316,0,0.45c0.1-0.933,0.217-2,0.35-3.2c0.4-0.967,0.767-2.017,1.1-3.15l0.25,1.2c0.167,0.767,0.3,1.383,0.4,1.85
				c0.133,0.5,0.2,0.816,0.2,0.95c0.033,0.133,0.066,0.417,0.1,0.85c0,0.267,0,0.533,0,0.8c0,0.233-0.017,0.466-0.05,0.7
				c-0.033,0.567-0.05,0.967-0.05,1.2c0.066-0.3,0.133-0.733,0.2-1.3c0.067-0.533,0.1-0.933,0.1-1.2c0-0.833-0.067-1.567-0.2-2.2
				s-0.25-1.167-0.35-1.6c-0.133-0.466-0.217-0.966-0.25-1.5c0.066-0.167,0.133-0.35,0.2-0.55c0.733-1.7,1.317-2.7,1.75-3
				c0.033,0.1,0.067,0.317,0.1,0.65c0.033,0.1,0.05,0.217,0.05,0.35c0.133,0.767,0.267,1.9,0.4,3.4c-0.1-1.9-0.167-3-0.2-3.3
				c-0.033-0.867-0.05-1.333-0.05-1.4c0-0.067,0-0.133,0-0.2c0-0.2-0.017-0.417-0.05-0.65v-0.15c0-0.067,0-0.117,0-0.15
				c0-0.133,0.017-0.267,0.05-0.4c0.2-0.066,0.417-0.05,0.65,0.05c0.1,0.033,0.15,0.066,0.15,0.1c0.133,0.067,0.217,0.133,0.25,0.2
				c0.1,0.067,0.183,0.167,0.25,0.3s0.15,0.267,0.25,0.4c0.2,0.267,0.433,0.667,0.7,1.2c-0.1-0.3-0.2-0.55-0.3-0.75
				c-0.033-0.1-0.066-0.2-0.1-0.3c-0.033-0.033-0.117-0.25-0.25-0.65c-0.066-0.067-0.183-0.217-0.35-0.45
				c-0.2-0.1-0.5-0.317-0.9-0.65c-0.066-0.067-0.15-0.167-0.25-0.3c-0.033-0.066-0.083-0.15-0.15-0.25c0-0.033,0-0.083,0-0.15
				c-0.2-2.1-0.383-3.467-0.55-4.1c0-0.033,0-0.066,0-0.1c0.066-0.233,0.117-0.5,0.15-0.8c0.533-3.566,1.25-5.867,2.15-6.9
				c0.1,1.333,0.283,3.033,0.55,5.1c0.3,2.133,0.466,4.25,0.5,6.35c0,0.1,0,0.167,0,0.2c0,1.067-0.034,2.133-0.1,3.2v0.05
				c-0.033,0.4-0.067,0.783-0.1,1.15c-0.067,0.6-0.15,1.2-0.25,1.8v0.05h0.05c-0.033,0.033-0.05,0.067-0.05,0.1
				c0,0.133-0.033,0.267-0.1,0.4c-0.1,0.434-0.283,0.967-0.55,1.6c-0.167,0.467-0.317,0.85-0.45,1.15c-0.2,0.3-0.367,0.533-0.5,0.7
				c-0.066,0.033-0.117,0.066-0.15,0.1c-0.033,0-0.4,0.233-1.1,0.7c-0.667,0.434-0.783,0.533-0.35,0.3
				c0.467-0.233,0.833-0.417,1.1-0.55c0.233-0.133,0.367-0.2,0.4-0.2c0.067,0,0.117,0,0.15,0c0.2,0.667,0.367,1.25,0.5,1.75
				l-0.05,0.65c-0.667,0.566-1.15,1.117-1.45,1.65c-0.067,0.167-0.15,0.35-0.25,0.55c-0.067,0.2-0.15,0.4-0.25,0.6
				C94.333-36.583,94.5-36.833,94.7-37.1z"/>
		</g>
	</g>
</symbol>
<g>
	<g>
		<path style="fill-rule:evenodd;clip-rule:evenodd;fill-opacity:0.451;" d="M177.025,174.05c-0.044-0.031-0.086-0.064-0.125-0.1
			c-0.018-0.017-0.034-0.033-0.05-0.05l-0.025-0.025c-0.026-0.024-0.051-0.049-0.075-0.075c0.049,0,0.19,0,0.425,0
			c0.036,0,0.078,0,0.125,0s0.098,0,0.15,0c0.061,0,0.119,0,0.175,0c0.061-0.008,0.119-0.017,0.175-0.024
			c0.203,0.011,0.445-0.014,0.726-0.075c0.127-0.028,0.261-0.062,0.399-0.101c0.628-0.136,1.402-0.319,2.325-0.55
			c1.634-0.366,3.3-0.6,5-0.7c0.733-0.033,2.75-0.267,6.05-0.699c2.7-0.367,4.95-0.551,6.75-0.551s4.084,0.417,6.851,1.25
			c1.388,0.388,2.904,0.871,4.55,1.45c0.046,0.015,0.096,0.031,0.149,0.05v0.051h-1.25h-0.3c-3.233-0.434-6.233-0.867-9-1.301h-1.75
			l0.05,0.101c0.167,0.133,0.784,0.399,1.851,0.8c0.744,0.293,1.311,0.493,1.7,0.6c0.192,0.057,0.342,0.09,0.449,0.101h-0.1
			c-0.038-0.008-0.088-0.016-0.15-0.025h-0.05h-0.024c-0.484-0.122-1.543-0.381-3.176-0.774c-1.633-0.4-2.699-0.601-3.199-0.601
			c-0.467,0-0.851,0.066-1.15,0.2c-0.324,0.162-0.949,0.279-1.875,0.35c-0.024-0.001-0.05-0.001-0.075,0c-2,0-3.333,0.034-4,0.101
			c-0.229,0.025-0.904,0.2-2.024,0.524c-0.351,0.091-0.742,0.199-1.176,0.325c-0.419,0.105-0.844,0.197-1.274,0.275
			c-0.428,0.063-0.861,0.112-1.3,0.149c-0.489-0.018-1.239-0.025-2.25-0.024c-0.663-0.005-1.438-0.005-2.325,0l-0.101-0.2
			C177.675,174.425,177.317,174.275,177.025,174.05z M325.1,171.625c-3.701,0.35-5.618,0.525-5.75,0.525
			c-0.3,0-1.316-0.15-3.05-0.45c-1.767-0.334-3.05-0.5-3.85-0.5c-0.2,0-0.5,0.033-0.9,0.1c-0.434,0.066-0.684,0.117-0.75,0.15v0.25
			c0.255,0.223,0.588,0.397,1,0.524l0.025,0.025h0.024c0.233,0.1,0.7,0.25,1.4,0.45h-0.7c-2.533-0.434-4.283-0.65-5.25-0.65
			c-0.733,0-1.217,0.066-1.45,0.2s-0.483,0.2-0.75,0.2l-3.1-0.325c0-0.039-0.017-0.064-0.05-0.075c-0.096-0.051-0.362-0.051-0.8,0
			c-0.601,0.066-1.084,0.2-1.45,0.4c-1.634,0.633-2.667,1.083-3.101,1.35c-0.267,0.134-0.783,0.25-1.55,0.351
			c-0.866,0.1-1.45,0.199-1.75,0.3c-1.967,0.434-3.267,0.649-3.899,0.649c-0.996,0-1.796-0.091-2.4-0.274
			c-0.186-0.047-0.353-0.105-0.5-0.175c-0.073-0.032-0.14-0.065-0.2-0.101c0.7-0.1,2.233-0.283,4.601-0.55
			c0.215-0.028,0.415-0.054,0.6-0.075c1.185-0.19,1.942-0.407,2.275-0.649c0.116-0.085,0.175-0.177,0.175-0.275
			c0-0.366-0.434-0.55-1.3-0.55c-0.467,0-1.217,0.116-2.25,0.35c-1,0.233-1.7,0.351-2.101,0.351c-0.467,0-0.967-0.034-1.5-0.101
			c-0.539-0.085-0.889-0.185-1.05-0.3c-0.019-0.014-0.035-0.03-0.05-0.05l2.35-0.5c0.276-0.083,1.451-0.475,3.525-1.175
			c0.089-0.035,0.181-0.068,0.274-0.101c3.346-0.154,6.313-0.313,8.9-0.475c1.533-0.066,3.934-0.101,7.2-0.101
			c2.533,0,6.7,0.267,12.5,0.801c0.491,0.029,0.991,0.063,1.5,0.1c0.636,0.03,1.285,0.063,1.95,0.1
			c0.733,0.034,1.183,0.117,1.35,0.25C325.198,171.605,325.148,171.613,325.1,171.625z M235.175,182
			c0.395,0.097,0.703,0.196,0.925,0.3h-1c-5-0.5-8.316-0.75-9.949-0.75c-0.834,0-1.434,0.184-1.801,0.55
			c-0.366,0.367-0.783,0.551-1.25,0.551c-0.433,0-1.649-0.184-3.649-0.551c-2-0.366-3.05-0.55-3.15-0.55c-1.133,0-3.066,0.334-5.8,1
			c-2.733,0.634-4.35,0.95-4.85,0.95l-4.101-0.3v-0.05c0.03-0.01,0.063-0.019,0.101-0.025c0.195-0.058,0.504-0.133,0.925-0.225
			c0.746-0.187,1.846-0.437,3.3-0.75c0.728-0.158,1.544-0.334,2.45-0.525c0.384-0.135,0.742-0.26,1.075-0.375
			c1.25-0.42,2.149-0.687,2.699-0.8c1.134-0.2,3.534-0.3,7.2-0.3c1.934,0,3.55,0.083,4.851,0.25c0.866,0.1,2.75,0.316,5.649,0.649
			C231.796,181.354,233.921,181.671,235.175,182z M29.5,174.85c0.233-0.063,0.667-0.163,1.3-0.3c0.151-0.029,0.318-0.063,0.5-0.1
			c0.287-0.05,0.545-0.1,0.775-0.15c0.463-0.12,0.83-0.254,1.1-0.399c0.447-0.104,1.005-0.236,1.675-0.4
			c1.856-0.32,4.423-0.486,7.7-0.5h0.15c0.033,0,0.066,0,0.1,0c3.042,0.067,4.708,0.117,5,0.15l7.25,1
			c1.733,0.199,3.267,0.316,4.6,0.35c0.054,0.002,0.104,0.002,0.15,0c0.987,0.037,1.67,0.087,2.05,0.15v0.1
			c-0.436,0.067-0.853,0.126-1.25,0.175c-1.333,0.184-2.399,0.275-3.2,0.275c-0.333,0-0.733-0.033-1.2-0.101
			c-0.467-0.1-0.784-0.149-0.95-0.149l-4.8-0.05c-0.633,0-1.067,0.083-1.3,0.25c-0.233,0.166-0.517,0.25-0.85,0.25
			c-0.367,0-0.883-0.101-1.55-0.301c-0.667-0.199-1.15-0.3-1.45-0.3c-0.9,0-1.583,0.134-2.05,0.4c-0.467,0.3-1.267,0.467-2.4,0.5
			c-0.867,0.033-1.967,0.184-3.3,0.45c-1.267,0.267-2,0.399-2.2,0.399l-0.2-0.075l-0.1-0.024c0.205-0.091,0.405-0.183,0.6-0.275
			c0.624-0.274,1.19-0.532,1.7-0.774c0.444-0.216,0.844-0.416,1.2-0.601c-0.4-0.1-0.816-0.149-1.25-0.149
			c-3.667,0.199-6.05,0.3-7.15,0.3c-0.4,0-0.683-0.017-0.85-0.05h0.05C29.383,174.887,29.433,174.87,29.5,174.85z M84.2,176.525
			c-0.018-0.008-0.035-0.017-0.05-0.025c0.47-0.089,0.936-0.188,1.4-0.3c0.77-0.16,1.536-0.344,2.3-0.55
			c1.733-0.515,3.633-1.04,5.7-1.575c0.473-0.125,0.957-0.25,1.45-0.375l0.4-0.075c0.239-0.013,0.473-0.005,0.7,0.025
			c0.733-0.167,1.55-0.25,2.45-0.25c0.967,0,2.117,0.116,3.45,0.35c0.9,0.134,2.75,0.467,5.55,1c1.5,0.267,3.917,0.65,7.25,1.15
			c2.233,0.333,3.684,0.583,4.35,0.75l-0.05,0.05c-0.359,0.033-0.709,0.066-1.05,0.1c-1.366,0.101-2.583,0.15-3.65,0.15
			c-0.5,0-2.6-0.25-6.3-0.75c-3.667-0.533-5.934-0.8-6.8-0.8c-1,0-2.233,0.267-3.7,0.8c-1.427,0.486-2.443,0.736-3.05,0.75H94.5
			c-0.372,0-0.664-0.009-0.875-0.025c-0.115-0.005-0.206-0.014-0.275-0.024c0.233-0.067,0.75-0.301,1.55-0.7
			c0.362-0.174,0.703-0.315,1.025-0.425c0.291-0.114,0.566-0.197,0.825-0.25c0.101-0.034,0.201-0.059,0.3-0.075H96.9
			c0-0.066-0.017-0.084-0.05-0.05c-0.066,0.032-0.116,0.049-0.15,0.05c-3.089,0.037-5.139,0.137-6.15,0.3
			c-2.7,0.634-4.483,0.95-5.35,0.95C84.765,176.7,84.432,176.642,84.2,176.525z M113.55,178.775c2.373-0.335,4.765-0.61,7.175-0.825
			c1.23-0.344,2.589-0.527,4.075-0.55c10.034,0.699,15.434,1.083,16.2,1.149c0.7,0.033,2.117,0.033,4.25,0
			c1.467,0,2.867,0.084,4.2,0.25c1.585,0.198,2.81,0.398,3.675,0.601h0.025c0.567,0.133,1,0.199,1.3,0.199v0.101
			c-0.434,0.1-0.784,0.149-1.05,0.149c-0.6-0.066-1.066-0.083-1.4-0.05c-1.033,0.066-1.583,0.101-1.65,0.101l-2.15-0.101
			c-0.4,0-0.883,0.05-1.45,0.15c-0.567,0.066-1.667,0.116-3.3,0.149l-3.5-0.05c0.533,0.3,1.383,0.55,2.55,0.75
			c1,0.167,1.583,0.351,1.75,0.55c-1.469,0.337-2.502,0.521-3.1,0.551c0,0.133-1.483-0.101-4.45-0.7c-1.534-0.5-2.633-0.8-3.3-0.9
			c-2.467-0.434-4.267-0.75-5.4-0.95c-1.967-0.333-3.383-0.5-4.25-0.5c-1.3,0-2.367,0.084-3.2,0.25c-0.8,0.167-1.517,0.25-2.15,0.25
			c-3.467-0.3-5.25-0.449-5.35-0.449v-0.051C113.217,178.825,113.383,178.801,113.55,178.775z"/>
		<path style="fill-rule:evenodd;clip-rule:evenodd;fill-opacity:0.2;" d="M285.75,172.75c0.161,0.115,0.511,0.215,1.05,0.3
			c0.533,0.066,1.033,0.101,1.5,0.101c0.4,0,1.101-0.117,2.101-0.351c1.033-0.233,1.783-0.35,2.25-0.35c0.866,0,1.3,0.184,1.3,0.55
			c0,0.099-0.059,0.19-0.175,0.275c-0.412-0.15-0.937-0.226-1.575-0.226c-0.667,0-1.3,0.084-1.9,0.25
			c-0.633,0.167-1.116,0.25-1.45,0.25c-0.5,0-1.166-0.1-2-0.3c-0.767-0.167-1.267-0.316-1.5-0.45
			C285.455,172.8,285.589,172.783,285.75,172.75z M325.1,171.625c-0.756,0.122-1.806,0.28-3.149,0.475l-3.65,0.551
			c-3.633-0.667-5.616-1-5.95-1c-0.333,0-0.517,0.033-0.55,0.1c-0.03,0.062-0.03,0.22,0,0.475c-0.412-0.127-0.745-0.302-1-0.524
			v-0.25c0.066-0.033,0.316-0.084,0.75-0.15c0.4-0.066,0.7-0.1,0.9-0.1c0.8,0,2.083,0.166,3.85,0.5c1.733,0.3,2.75,0.45,3.05,0.45
			C319.481,172.15,321.398,171.975,325.1,171.625z M313.25,172.7h0.6l-0.05,0.35h-0.85c-0.434-0.1-1.117-0.149-2.05-0.149
			c-0.601-0.067-1.184-0.15-1.75-0.25c-1.067-0.134-1.601-0.167-1.601-0.101h-0.05c-0.335,0.003-0.519,0.037-0.55,0.101
			c0.066,0,0.1,0.05,0.1,0.149h-2.2c-1.866-0.333-2.85-0.5-2.949-0.5c-5.733,2.167-9.5,3.25-11.301,3.25
			c-0.333,0-1.149-0.116-2.449-0.35c-1.301-0.233-1.983-0.351-2.051-0.351V174.7l0.051-0.05h0.35c0.147,0.069,0.314,0.128,0.5,0.175
			c0.604,0.184,1.404,0.274,2.4,0.274c0.633,0,1.933-0.216,3.899-0.649c0.3-0.101,0.884-0.2,1.75-0.3
			c0.767-0.101,1.283-0.217,1.55-0.351c0.434-0.267,1.467-0.717,3.101-1.35c0.366-0.2,0.85-0.334,1.45-0.4
			c0.438-0.051,0.704-0.051,0.8,0c0.033,0.011,0.05,0.036,0.05,0.075l3.1,0.325c0.267,0,0.517-0.066,0.75-0.2s0.717-0.2,1.45-0.2
			c0.967,0,2.717,0.217,5.25,0.65H313.25z M235.175,182l1.025,0.15c0.066,0.3-0.167,0.449-0.7,0.449c-4.434-0.5-7-0.75-7.7-0.75
			c-2.333,0-3.533,0.217-3.6,0.65s-0.733,0.65-2,0.65c-0.634,0-2.033-0.2-4.2-0.601c-2.2-0.434-3.6-0.649-4.2-0.649
			c-0.6,0-2.066,0.333-4.399,1c-2.334,0.633-3.767,0.949-4.301,0.949c-1,0-1.933-0.05-2.8-0.149
			c-0.899-0.167-1.684-0.283-2.35-0.351v-0.05c0.143-0.054,0.343-0.104,0.6-0.149v0.05l4.101,0.3c0.5,0,2.116-0.316,4.85-0.95
			c2.733-0.666,4.667-1,5.8-1c0.101,0,1.15,0.184,3.15,0.55c2,0.367,3.217,0.551,3.649,0.551c0.467,0,0.884-0.184,1.25-0.551
			c0.367-0.366,0.967-0.55,1.801-0.55c1.633,0,4.949,0.25,9.949,0.75h1C235.878,182.196,235.569,182.097,235.175,182z
			 M177.025,174.05c0.292,0.226,0.649,0.375,1.074,0.45l0.101,0.2c0.887-0.005,1.662-0.005,2.325,0
			c1.011-0.001,1.761,0.007,2.25,0.024c0.438-0.037,0.872-0.087,1.3-0.149c0.431-0.078,0.855-0.17,1.274-0.275
			c0.434-0.126,0.825-0.234,1.176-0.325c1.12-0.324,1.796-0.499,2.024-0.524c0.667-0.066,2-0.101,4-0.101
			c0.025-0.001,0.051-0.001,0.075,0c0.926-0.07,1.551-0.188,1.875-0.35c0.3-0.134,0.684-0.2,1.15-0.2c0.5,0,1.566,0.2,3.199,0.601
			c1.633,0.394,2.691,0.652,3.176,0.774h0.024l-0.1,0.275c-0.5,0-1.4-0.134-2.7-0.4c-1.267-0.267-2.566-0.399-3.9-0.399
			c-0.367,0-0.793,0.008-1.274,0.024l-0.65,0.025c-0.25,0.017-0.508,0.033-0.774,0.05c-0.759,0.047-1.276,0.08-1.551,0.1
			c-1.088,0.09-1.938,0.156-2.55,0.2c-0.286,0.078-0.595,0.153-0.925,0.226c-0.451,0.097-0.942,0.188-1.475,0.274
			c-0.77,0.108-1.462,0.2-2.075,0.275c-0.502,0.07-0.952,0.128-1.351,0.175c-1.306,0.158-2.047,0.217-2.225,0.175l-0.05-0.024
			c-0.745-0.005-1.503-0.113-2.275-0.325c-0.042-0.006-0.084-0.014-0.125-0.025c-0.7-0.233-1.216-0.483-1.55-0.75H177.025z
			 M201.9,174.1c-0.39-0.106-0.956-0.307-1.7-0.6c-1.066-0.4-1.684-0.667-1.851-0.8l-0.05-0.101h1.75
			c2.767,0.434,5.767,0.867,9,1.301h0.3c-0.38,0.033-0.746,0.05-1.1,0.05c-1.134-0.134-2.05-0.217-2.75-0.25
			c-0.132-0.033-1.115-0.116-2.95-0.25h-0.05c-0.638,0.001-1.038,0.018-1.2,0.05c-0.033,0.167,0.033,0.3,0.2,0.4
			C201.634,173.967,201.767,174.033,201.9,174.1z M29.5,174.85c-0.067,0.021-0.117,0.037-0.15,0.051H29.3
			c0.167,0.033,0.45,0.05,0.85,0.05c1.1,0,3.483-0.101,7.15-0.3c0.434,0,0.85,0.05,1.25,0.149c-0.356,0.185-0.756,0.385-1.2,0.601
			c-0.12-0.141-0.22-0.224-0.3-0.25l-1.65,0.1c-0.133,0-2.417-0.116-6.85-0.35C28.676,174.868,28.993,174.852,29.5,174.85z
			 M35.15,176.475l0.2,0.075c0.2,0,0.933-0.133,2.2-0.399c1.333-0.267,2.434-0.417,3.3-0.45c1.133-0.033,1.933-0.2,2.4-0.5
			c0.467-0.267,1.15-0.4,2.05-0.4c0.3,0,0.784,0.101,1.45,0.3c0.667,0.2,1.183,0.301,1.55,0.301c0.333,0,0.617-0.084,0.85-0.25
			c0.233-0.167,0.667-0.25,1.3-0.25l4.8,0.05c0.167,0,0.483,0.05,0.95,0.149c0.466,0.067,0.867,0.101,1.2,0.101
			c0.801,0,1.867-0.092,3.2-0.275c-0.511,0.377-2.311,0.519-5.4,0.425c-1.8-0.066-3.3-0.017-4.5,0.15c-1.3,0.2-2,0.3-2.1,0.3
			c-0.5,0-0.983-0.066-1.45-0.2c-0.467-0.166-1.167-0.25-2.1-0.25c-0.466,0-0.917,0.184-1.35,0.551
			c-0.4,0.333-1.267,0.466-2.6,0.399c-1.2-0.066-2.25-0.033-3.15,0.101c-1.034,0.166-1.6,0.25-1.7,0.25L35,176.6v-0.05
			C35.048,176.525,35.099,176.501,35.15,176.475z M84.2,176.525c0.231,0.116,0.564,0.175,1,0.175c0.867,0,2.65-0.316,5.35-0.95
			c1.011-0.163,3.062-0.263,6.15-0.3c0.034-0.001,0.084-0.018,0.15-0.05c0.033-0.034,0.05-0.017,0.05,0.05h0.15
			c-0.099,0.017-0.199,0.041-0.3,0.075c-0.259,0.053-0.534,0.136-0.825,0.25c-0.605,0.008-1.397,0.033-2.375,0.074
			c-1.633,0.101-2.55,0.167-2.75,0.2c-0.133,0.033-0.966,0.217-2.5,0.55c-1.066,0.267-2.2,0.4-3.4,0.4c-1,0-1.55-0.05-1.65-0.15
			C83.46,176.71,83.777,176.602,84.2,176.525z M118.05,176.8c1.256,0.156,2.04,0.322,2.35,0.5l-3.35,0.05
			c-1.533,0.034-2.633,0.051-3.3,0.051c-1-0.067-2.317-0.267-3.95-0.601c-1.733-0.399-2.767-0.616-3.1-0.649
			c-1.133-0.2-2.383-0.301-3.75-0.301c-0.8,0-2.2,0.233-4.2,0.7c-1.967,0.467-3.333,0.7-4.1,0.7c-0.9-0.1-1.5-0.15-1.8-0.15
			c0.271-0.029,0.529-0.088,0.775-0.175c0.211,0.017,0.503,0.025,0.875,0.025h0.05c0.607-0.014,1.624-0.264,3.05-0.75
			c1.467-0.533,2.7-0.8,3.7-0.8c0.867,0,3.133,0.267,6.8,0.8c3.7,0.5,5.8,0.75,6.3,0.75C115.467,176.95,116.684,176.9,118.05,176.8z
			 M153.15,179.4c0.444-0.088,1.244,0.028,2.4,0.35v0.15c-0.4,0.199-1.767,0.333-4.1,0.399c-3.2,0.134-5.017,0.217-5.45,0.25
			c0.167,0.367-0.05,0.65-0.65,0.851c-0.967,0.3-1.483,0.466-1.55,0.5c-0.466,0.267-1.483,0.399-3.05,0.399
			c-0.833,0-3.517-0.517-8.05-1.55c-4.567-1.066-7.55-1.6-8.95-1.6c-1,0-1.783,0.1-2.35,0.3c-0.533,0.2-1.217,0.3-2.05,0.3
			c-1.367,0-2.65-0.05-3.85-0.15c-1.833-0.133-2.9-0.366-3.2-0.699l0.05-0.101l0.95-0.05l0.25,0.025
			c-0.167,0.025-0.333,0.05-0.5,0.074v0.051c0.1,0,1.883,0.149,5.35,0.449c0.633,0,1.35-0.083,2.15-0.25
			c0.833-0.166,1.9-0.25,3.2-0.25c0.867,0,2.283,0.167,4.25,0.5c1.133,0.2,2.933,0.517,5.4,0.95c0.667,0.101,1.767,0.4,3.3,0.9
			c2.966,0.6,4.45,0.833,4.45,0.7c0.598-0.03,1.631-0.214,3.1-0.551c-0.167-0.199-0.75-0.383-1.75-0.55
			c-1.167-0.2-2.017-0.45-2.55-0.75l3.5,0.05c1.633-0.033,2.733-0.083,3.3-0.149c0.567-0.101,1.05-0.15,1.45-0.15l2.15,0.101
			c0.066,0,0.617-0.034,1.65-0.101c0.333-0.033,0.8-0.017,1.4,0.05c0.267,0,0.617-0.05,1.05-0.149V179.6
			C154.15,179.6,153.717,179.533,153.15,179.4z"/>
		
			<path style="fill-rule:evenodd;clip-rule:evenodd;fill:none;stroke:#000000;stroke-linecap:round;stroke-linejoin:round;stroke-miterlimit:3;" d="
			M286.5,174.65c0.147,0.069,0.314,0.128,0.5,0.175 M286.5,174.65h-0.35l-0.051,0.05v0.149"/>
	</g>
</g>
<use xlink:href="#redtree_x5F_cluster_x5F_03"  width="175.735" height="91.55" x="-0.022" y="-91.55" transform="matrix(2 0 0 -2 0 0)" style="overflow:visible;"/>
</svg>
