<?xml version="1.0" encoding="iso-8859-1"?>
<!-- Generator: Adobe Illustrator 16.0.0, SVG Export Plug-In . SVG Version: 6.00 Build 0)  -->
<!DOCTYPE svg PUBLIC "-//W3C//DTD SVG 1.1//EN" "http://www.w3.org/Graphics/SVG/1.1/DTD/svg11.dtd">
<svg version="1.1" id="Layer_1" xmlns="http://www.w3.org/2000/svg" xmlns:xlink="http://www.w3.org/1999/xlink" x="0px" y="0px"
	 width="135px" height="318px" viewBox="0 0 135 318" style="enable-background:new 0 0 135 318;" xml:space="preserve">
<symbol  id="tree_x5F_bare_x5F_bg" viewBox="0 -158.15 66.2 158.15">
	<g id="Layer_3_1_">
		<g>
			<path style="fill-rule:evenodd;clip-rule:evenodd;fill-opacity:0.2;" d="M23.325-156.5c0.344,0.101,0.886,0.284,1.625,0.55
				c0.733,0.3,1.316,0.6,1.75,0.9c0.233,0.2,0.8,0.583,1.7,1.15c0.934,0.566,1.483,0.85,1.65,0.85c0.067,0,0.483-0.133,1.25-0.4
				c0.867-0.233,1.583-0.35,2.15-0.35c0.533,0,1.117,0.083,1.75,0.25c0.367,0,1.033-0.133,2-0.4c0.867-0.233,1.417-0.417,1.65-0.55
				c0.533-0.2,1.2-0.367,2-0.5c0.462-0.07,1.004-0.162,1.625-0.275c0.629-0.108,1.396-0.217,2.3-0.325
				c0.905-0.112,1.563-0.154,1.975-0.125c0.402,0.035,1.06-0.182,1.975-0.65c0.524-0.269,1.108-0.494,1.75-0.675
				c-1.19,0.107-2.315,0.307-3.375,0.6c-1.733,0.5-3.434,0.8-5.1,0.9c-1.233,0.066-2.517,0.283-3.85,0.65
				c-1.167,0.367-1.883,0.566-2.15,0.6h-2.1c-1,0.033-1.717,0.1-2.15,0.2c-0.367,0.067-0.8,0.1-1.3,0.1
				c-0.833,0-2.017-0.417-3.55-1.25C25.333-156.117,24.142-156.533,23.325-156.5z M23.85-155.65c0.184,0.149,0.35,0.332,0.5,0.55
				c0.133,0.133,0.267,0.45,0.4,0.95c0.1,0.4,0.15,0.683,0.15,0.85c0,0.4-0.3,0.633-0.9,0.7c-0.984,0-1.892,0-2.725,0
				c-0.029,0.008-0.071,0.017-0.125,0.025c-0.21,0.029-0.61,0.054-1.2,0.075c-0.934,0-1.617-0.033-2.05-0.1
				c-0.4-0.066-1.217-0.4-2.45-1c-1.867-1.033-3.483-1.8-4.85-2.3c-1.133-0.4-2.817-0.883-5.05-1.45c-2.033-0.533-3.167-0.8-3.4-0.8
				c-1.01,0-1.618,0.1-1.825,0.3c0.47-0.133,0.928-0.2,1.375-0.2c0.633,0,1.05,0.033,1.25,0.1c0.333,0.2,0.8,0.417,1.4,0.65
				c0.133,0.066,0.433,0.158,0.9,0.275s1.1,0.258,1.9,0.425c0.467,0.167,1.467,0.6,3,1.3c1.4,0.667,2.517,1.133,3.35,1.4
				c0.233,0.066,0.7,0.267,1.4,0.6c0.533,0.233,1.017,0.4,1.45,0.5c0.066,0.033,0.25,0.133,0.55,0.3
				c0.233,0.133,0.434,0.217,0.6,0.25c0.3,0.067,0.917,0.1,1.85,0.1c0.467,0.033,1.566,0.066,3.3,0.1c1.6,0.033,2.767,0.1,3.5,0.2
				c-0.133-0.033-0.217-0.1-0.25-0.2v-0.1h1.25v-0.45c-0.2-0.133-0.517-0.483-0.95-1.05c-0.434-0.6-0.867-1.067-1.3-1.4
				C24.602-155.263,24.251-155.463,23.85-155.65z M64.4-153.65c-1.194-0.3-1.844-0.45-1.95-0.45c-0.7,0-1.517,0.117-2.45,0.35
				c-1.467,0.367-2.417,0.6-2.85,0.7c-0.366,0.103-0.982,0.195-1.85,0.275c-0.87,0.074-1.686,0.174-2.45,0.3
				s-1.372,0.234-1.825,0.325c-0.451,0.097-0.726,0.13-0.825,0.1c-0.2-0.034-0.534-0.2-1-0.5c-0.567-0.333-1.467-0.4-2.7-0.2
				c-1.333,0.033-2.233,0.033-2.7,0c-0.667-0.029-1.034-0.262-1.1-0.7c-0.298,0.241-0.648,0.591-1.05,1.05
				c0.2,0.233,0.85,0.35,1.95,0.35c0.6,0,1.4-0.017,2.4-0.05c0.867,0.033,1.533,0.1,2,0.2c0.312,0.057,0.879,0.09,1.7,0.1
				c0,0.113,0.15,0.171,0.45,0.175c0.655,0.034,2.056-0.191,4.2-0.675c0.9-0.167,1.483-0.267,1.75-0.3c0.2,0,0.617,0.017,1.25,0.05
				c0.066,0,0.683-0.2,1.85-0.6c1.167-0.4,2-0.6,2.5-0.6C61.776-153.75,62.677-153.717,64.4-153.65z"/>
			<path style="fill-rule:evenodd;clip-rule:evenodd;fill-opacity:0.451;" d="M42.7-153.45c0.053-0.034,0.104-0.067,0.15-0.1
				c0.5-0.4,1.133-0.684,1.9-0.85c1.9-0.4,3.017-0.65,3.35-0.75c0.2-0.067,0.733-0.25,1.6-0.55c1.033-0.367,1.783-0.667,2.25-0.9
				l3.25-0.65c-0.802-0.307-1.853-0.356-3.15-0.15c-0.557,0.091-1.082,0.208-1.575,0.35c-0.642,0.181-1.226,0.406-1.75,0.675
				c-0.915,0.468-1.573,0.685-1.975,0.65c-0.412-0.029-1.07,0.013-1.975,0.125c-0.904,0.108-1.671,0.217-2.3,0.325
				c-0.621,0.113-1.163,0.205-1.625,0.275c-0.8,0.133-1.467,0.3-2,0.5c-0.233,0.133-0.783,0.317-1.65,0.55
				c-0.967,0.267-1.633,0.4-2,0.4c-0.633-0.167-1.217-0.25-1.75-0.25c-0.567,0-1.284,0.117-2.15,0.35
				c-0.767,0.267-1.183,0.4-1.25,0.4c-0.167,0-0.716-0.284-1.65-0.85c-0.9-0.567-1.467-0.95-1.7-1.15c-0.434-0.3-1.017-0.6-1.75-0.9
				c-0.739-0.266-1.281-0.449-1.625-0.55c-0.046-0.022-0.087-0.039-0.125-0.05h-1.25v0.15l0.05,0.05
				c0.346,0.103,0.671,0.211,0.975,0.325c0.314,0.119,0.606,0.244,0.875,0.375c0.401,0.187,0.751,0.387,1.05,0.6
				c0.434,0.333,0.867,0.8,1.3,1.4c0.433,0.566,0.75,0.917,0.95,1.05v0.45H25.9v0.1c0.033,0.1,0.117,0.167,0.25,0.2
				c-0.733-0.1-1.9-0.167-3.5-0.2c-1.733-0.034-2.833-0.067-3.3-0.1c-0.934,0-1.55-0.033-1.85-0.1
				c-0.167-0.033-0.367-0.117-0.6-0.25c-0.3-0.167-0.483-0.267-0.55-0.3c-0.434-0.1-0.917-0.267-1.45-0.5
				c-0.7-0.333-1.167-0.534-1.4-0.6c-0.833-0.267-1.95-0.733-3.35-1.4c-1.533-0.7-2.533-1.133-3-1.3
				c-0.8-0.167-1.433-0.308-1.9-0.425s-0.767-0.208-0.9-0.275c-0.6-0.233-1.067-0.45-1.4-0.65c-0.2-0.066-0.617-0.1-1.25-0.1
				c-0.447,0-0.905,0.066-1.375,0.2c-0.06,0.016-0.119,0.032-0.175,0.05v0.15c1.6,0.3,2.883,0.55,3.85,0.75
				c0.074,0.012,0.149,0.029,0.225,0.05c0.288,0.048,0.597,0.115,0.925,0.2c0.3,0.069,0.617,0.153,0.95,0.25
				c0.4,0.133,0.983,0.467,1.75,1c1.767,1.1,3.417,2.033,4.95,2.8c1.94,0.896,3.791,1.779,5.55,2.65
				c0.2,0.04,0.409,0.081,0.625,0.125c0.56,0.11,1.185,0.235,1.875,0.375c2.8,0.467,6.15,0.7,10.05,0.7c4.2,0,12.767-0.85,25.7-2.55
				c3.942-0.475,6.909-1.133,8.9-1.975c0.249-0.106,0.482-0.214,0.7-0.325c-0.679-0.023-1.279-0.04-1.8-0.05
				c-1.723-0.067-2.624-0.1-2.7-0.1c-0.5,0-1.333,0.2-2.5,0.6c-1.167,0.4-1.784,0.6-1.85,0.6c-0.633-0.034-1.05-0.05-1.25-0.05
				c-0.267,0.033-0.85,0.133-1.75,0.3c-2.145,0.484-3.545,0.709-4.2,0.675c-0.3-0.003-0.45-0.062-0.45-0.175
				c-0.821-0.01-1.388-0.043-1.7-0.1c-0.467-0.1-1.133-0.167-2-0.2c-1,0.033-1.8,0.05-2.4,0.05c-1.1,0-1.75-0.117-1.95-0.35
				C42.052-152.859,42.402-153.209,42.7-153.45z"/>
		</g>
	</g>
	<g>
		<g>
			<path style="fill-rule:evenodd;clip-rule:evenodd;fill:#241E02;" d="M29.6-55.7c2,1.333,3.15,2.583,3.45,3.75
				c-0.233-1.233-0.6-2.283-1.1-3.15c-0.534-0.933-1.25-1.833-2.15-2.7c-0.4-0.4-0.833-0.784-1.3-1.15
				c0.467,0.367,0.9,0.75,1.3,1.15c0-1.267,0-2.917,0-4.95c-0.033-2.7,0.133-4.6,0.5-5.7c0.3-1,0.6-1.45,0.9-1.35
				c0.033-0.133,0.267-0.167,0.7-0.1c0.467,0.367,0.934,0.75,1.4,1.15c-0.233,0.567-0.466,1.4-0.7,2.5
				c-0.3,1.6-0.45,3.283-0.45,5.05c0,1.034,0.083,2.133,0.25,3.3c0.133,0.867,0.3,1.767,0.5,2.7c0.4,1.5,0.75,2.85,1.05,4.05
				c-0.434,0.566-0.817,1.417-1.15,2.55c-0.433,1.367-0.566,2.667-0.4,3.9c0-0.8,0.05-1.517,0.15-2.15c0.1-0.633,0.3-1.283,0.6-1.95
				c0.267-0.667,0.6-1.2,1-1.6c0.1,0.566,0.217,1.1,0.35,1.6v0.05c0,0.033,0.017,0.05,0.05,0.05c-0.033-0.233-0.133-0.85-0.3-1.85
				c-0.033-0.233-0.067-0.483-0.1-0.75c-0.167-0.934-0.383-2.083-0.65-3.45c-0.067-0.467-0.133-0.9-0.2-1.3
				c0.767,0.6,1.633,1.316,2.6,2.15c0.5,0.566,0.983,1.1,1.45,1.6c-0.1,0.167-0.15,0.267-0.15,0.3c-0.2,0.533-0.3,1.133-0.3,1.8
				c0,1.133,0.2,2.233,0.6,3.3c0.125,0.25,0.267,0.533,0.425,0.85c-0.126-0.271-0.251-0.638-0.375-1.1
				c-0.1-0.434-0.167-1.067-0.2-1.9c1.1,0.767,1.816,1.6,2.15,2.5c-0.133-0.5-0.317-0.95-0.55-1.35
				c-0.333-0.467-0.883-0.967-1.65-1.5c0-0.033,0-0.067,0-0.1c-0.033-1.067,0.217-1.733,0.75-2c1.9,2.167,3.2,3.767,3.9,4.8
				c0.167,0.3,0.3,0.55,0.4,0.75c-0.067-0.333-0.167-0.7-0.3-1.1c-0.5-0.9-1.633-2.45-3.4-4.65c-0.333-0.367-0.667-0.75-1-1.15
				c-1.5-1.7-3.033-3.217-4.6-4.55c-0.2-1.333-0.3-2.35-0.3-3.05c0-1.233,0.183-2.566,0.55-4c0.034-0.133,0.067-0.267,0.1-0.4
				L35-62.9c1.133,1.867,1.8,2.967,2,3.3c-0.1-0.933-0.6-2.133-1.5-3.6c-0.667-1.1-1.217-2.017-1.65-2.75
				c0.133-0.533,0.367-1.083,0.7-1.65c0.934,0.9,1.833,1.883,2.7,2.95c2.767,3.367,4.717,7.833,5.85,13.4
				c0.033-0.067,0.05-0.133,0.05-0.2c-0.7-5.533-1.417-8.8-2.15-9.8c-0.233-0.467-0.45-0.917-0.65-1.35
				c0.433,0.267,0.85,0.583,1.25,0.95c1.2,0.967,2.233,2.217,3.1,3.75c0-0.033,0-0.067,0-0.1c-0.067-0.267-0.15-0.583-0.25-0.95
				c-0.2-0.7-0.534-1.316-1-1.85c-0.667-0.767-1.534-1.617-2.6-2.55c-0.733-0.633-1.267-1.066-1.6-1.3
				c-0.833-1.4-1.65-2.583-2.45-3.55c-0.066-0.033-0.117-0.083-0.15-0.15c0.833,0.167,1.4,0.3,1.7,0.4
				c0.6,0.167,1.167,0.35,1.7,0.55c0.034,0.033,0.067,0.05,0.1,0.05c0.533,0.8,1.483,2.184,2.85,4.15l-2.2-3.85
				c0.934,0.533,2.35,1.7,4.25,3.5c-1.1-1.733-2.466-3.05-4.1-3.95c-0.667-0.367-2.55-1.15-5.65-2.35
				c-1.267-1.367-2.867-3.017-4.8-4.95c0-3.034,0.017-7.034,0.05-12c0-0.233,0-0.483,0-0.75c0-2.2-0.017-4.233-0.05-6.1
				c1.933,0.767,3.983,2.183,6.15,4.25c0,0.133,0,0.25,0,0.35c-0.667,0.3-1.35,0.867-2.05,1.7c-1.033,1.267-1.55,2.55-1.55,3.85
				c0,0.2,0.034,0.533,0.1,1v0.05c0.3-1.4,0.717-2.45,1.25-3.15c0.6-0.8,1.233-1.2,1.9-1.2c0.1,0,0.2,0,0.3,0
				c0.033,1.167,0.25,2.433,0.65,3.8c0.233,0.833,0.533,1.717,0.9,2.65c0.033,0.133,0.167,0.467,0.4,1c-0.1,0.2-0.2,0.483-0.3,0.85
				c-0.133,0.433-0.2,0.733-0.2,0.9c0.567,3.2,0.917,5.3,1.05,6.3c0.066-0.267,0-1.217-0.2-2.85c-0.233-1.6-0.35-2.567-0.35-2.9
				c0-0.567,0.017-0.9,0.05-1c0.033-0.167,0.117-0.333,0.25-0.5c0.5,1.433,1.3,3.633,2.4,6.6c-0.067-0.3-0.133-0.583-0.2-0.85
				c-0.533-2.133-0.983-3.767-1.35-4.9c-0.467-1.233-0.983-2.75-1.55-4.55c0.8,0.733,1.717,1.617,2.75,2.65
				c2.233,2.3,3.6,4.117,4.1,5.45c-0.4-1.667-1.4-3.467-3-5.4c-1.3-1.6-2.65-2.917-4.05-3.95c-0.167-1.4-0.25-2.75-0.25-4.05
				c0-0.167,0.033-0.4,0.1-0.7c1.167,1.233,2.383,2.65,3.65,4.25c2.2,2.833,3.767,5.183,4.7,7.05c-2.467-7.3-5.566-12.716-9.3-16.25
				c-0.867-0.833-1.633-1.566-2.3-2.2c0.233,0,0.483,0,0.75,0c1.967,0,3.75,0.2,5.35,0.6c0.267,0.066,0.533,0.133,0.8,0.2
				c0.367,1,0.7,1.8,1,2.4c0.5,1.034,1.117,1.833,1.85,2.4c-1.066-1.367-1.716-2.867-1.95-4.5c1.467,0.5,3.066,1.183,4.8,2.05
				c-1.3-1.2-3.417-2.25-6.35-3.15c-2.433-0.733-5.066-1.25-7.9-1.55c-1.333-1.267-2.15-2.05-2.45-2.35c0-0.133,0-0.267,0-0.4
				c-0.034-1.267-0.05-2.417-0.05-3.45c-0.066-3.567,0.083-6.567,0.45-9l-0.2,1c0.033-1.733,0.184-2.717,0.45-2.95
				c0.4-0.3,1.233-0.117,2.5,0.55c0.167,0.867,0.75,2.566,1.75,5.1c0.1,0.333,0.233,0.684,0.4,1.05c1.2,3,2.233,5.066,3.1,6.2
				c-0.767-1.1-1.434-2.433-2-4c-0.267-0.7-0.483-1.4-0.65-2.1c0.833,0.267,2.033,0.816,3.6,1.65c0.167,1.133,0.517,2.033,1.05,2.7
				c-0.067-0.1-0.117-0.216-0.15-0.35c-0.167-0.467-0.25-0.883-0.25-1.25c0-0.2,0.05-0.434,0.15-0.7c2.066,1.233,3.583,2.6,4.55,4.1
				c-0.566-1.333-1.8-2.7-3.7-4.1c-1.767-1.3-3.6-2.3-5.5-3c-0.233-1.067-0.4-2.167-0.5-3.3v-0.85c0.633,0.433,1.333,0.95,2.1,1.55
				c4.934,3.8,8.05,6.633,9.35,8.5c-0.033-0.233-0.05-0.467-0.05-0.7c-1.067-1.867-2.9-4.05-5.5-6.55
				c-0.733-0.733-1.467-1.417-2.2-2.05c0.733-0.033,1.4-0.017,2,0.05c1.333,0.1,2.917,0.45,4.75,1.05c1.2,0.367,2.5,0.833,3.9,1.4
				c-1.333-0.667-2.65-1.267-3.95-1.8c-0.167-0.033-0.333-0.083-0.5-0.15c-2.5-0.9-5.15-1.566-7.95-2c-2-1.5-3.967-2.717-5.9-3.65
				c0.3-2.367,0.733-5.067,1.3-8.1c0.434,0.1,1.1,0.4,2,0.9c0.1,1.5,0.45,3.083,1.05,4.75c0.566,1.7,1.283,3.017,2.15,3.95
				c-0.2-0.5-0.55-1.383-1.05-2.65c-0.5-1.4-0.75-2.583-0.75-3.55c0-0.6,0.066-1.1,0.2-1.5c1.867,1.2,3.434,2.383,4.7,3.55
				c1.5,1.433,2.283,2.167,2.35,2.2c0.267,0.2,0.517,0.417,0.75,0.65c-0.067-0.133-0.117-0.267-0.15-0.4
				c-1.667-2.267-3.583-4.383-5.75-6.35c-0.4-0.367-0.783-0.7-1.15-1c-1.8-1.5-3.233-2.367-4.3-2.6c0.1-0.7,0.183-1.317,0.25-1.85
				c0.1-0.867,0.167-1.5,0.2-1.9l-0.15-0.1c0.333-0.833,0.517-1.733,0.55-2.7c0-0.167,0.017-0.333,0.05-0.5
				c0.133-0.9,0.2-1.816,0.2-2.75c0-1.066,0.117-1.983,0.35-2.75c0.133-0.466,0.25-0.95,0.35-1.45c0.033-0.1,0.1-0.184,0.2-0.25
				c0.7-0.533,1.133-1.283,1.3-2.25c0.033-0.1,0.05-0.2,0.05-0.3c0.167-0.767,0.4-1.45,0.7-2.05c0.5-0.233,1.017-0.5,1.55-0.8
				c0.733-0.4,1.5-0.817,2.3-1.25c0.2-0.1,0.4-0.2,0.6-0.3c0.867-0.533,1.767-0.833,2.7-0.9c0.434-0.033,0.85-0.083,1.25-0.15
				c1.7-0.267,3.3-0.483,4.8-0.65c0.633-0.1,1.283-0.167,1.95-0.2c0.367-0.033,0.7-0.067,1-0.1c0.5-0.066,1-0.133,1.5-0.2
				c0.167,0,0.333-0.05,0.5-0.15c0.934-0.4,1.917-0.617,2.95-0.65c0.333-0.033,0.683-0.033,1.05,0c0.333,0.033,0.667,0.017,1-0.05
				c1.067-0.233,2.133-0.467,3.2-0.7c0.2-0.066,0.383-0.183,0.55-0.35c0.633-0.533,1.3-0.867,2-1v-0.25c-1.066,0-2.15,0-3.25,0
				c-0.333,0-0.767,0-1.3,0s-1.267,0.233-2.2,0.7c-0.466,0.233-0.85,0.383-1.15,0.45c-0.333,0.066-0.583,0.066-0.75,0
				c-0.367-0.133-0.983-0.034-1.85,0.3c-0.867,0.3-1.783,0.517-2.75,0.65c-0.966,0.1-2.05,0.133-3.25,0.1c-0.5,0-1-0.033-1.5-0.1
				c-0.333-0.066-0.65-0.133-0.95-0.2c-0.733-0.133-1.5-0.15-2.3-0.05c-0.167,0-0.35,0.017-0.55,0.05
				c-1.033,0.1-2.083,0.15-3.15,0.15c0.5-0.367,0.983-0.717,1.45-1.05c0.5-0.333,1-0.667,1.5-1c0.6-0.433,1.35-0.617,2.25-0.55
				c0.6,0.033,1.2,0.033,1.8,0c0.4,0,0.8-0.017,1.2-0.05c0.167,0,0.35-0.034,0.55-0.1c0.333-0.1,0.667-0.2,1-0.3
				c0.3-0.1,0.617-0.216,0.95-0.35c0.833-0.3,1.7-0.733,2.6-1.3c0.133-0.1,0.317-0.267,0.55-0.5c0.167-0.167,0.367-0.3,0.6-0.4
				c0.434-0.233,0.934-0.383,1.5-0.45h-0.5c-1.733,0.067-3.1,0.167-4.1,0.3s-1.467,0.25-1.4,0.35c0.034,0.1-0.117,0.267-0.45,0.5
				c-0.367,0.233-0.817,0.417-1.35,0.55c-0.567,0.167-0.95,0.283-1.15,0.35c-0.233,0.033-0.5,0.033-0.8,0
				c-0.066-0.033-0.133-0.05-0.2-0.05c-0.167,0-0.35,0-0.55,0c-0.1,0.034-0.2,0.05-0.3,0.05h-0.05
				c-0.867,0.033-1.733,0.117-2.6,0.25c-0.2,0.033-0.383,0.066-0.55,0.1c-1.2,0.267-2.35,0.566-3.45,0.9
				c-0.2,0.066-0.383,0.117-0.55,0.15c-0.367,0.033-0.683,0.167-0.95,0.4c-0.567,0.434-1.333,0.65-2.3,0.65
				c-0.167,0-0.283-0.033-0.35-0.1c-0.133-0.133-0.35-0.233-0.65-0.3c-1.267-0.3-2.35-0.083-3.25,0.65
				c-0.066,0.1-0.15,0.15-0.25,0.15c-0.4,0.066-0.8,0.066-1.2,0c-0.3-0.034-0.633-0.217-1-0.55c-0.033,0-0.067-0.017-0.1-0.05
				c-0.067-0.067-0.133-0.133-0.2-0.2H28.5c-0.4-0.333-0.783-0.633-1.15-0.9c-0.8-0.633-1.55-1.05-2.25-1.25
				c-0.2-0.067-0.35-0.167-0.45-0.3c-0.4-0.4-1.017-0.633-1.85-0.7c-0.433,0-0.65,0.183-0.65,0.55
				c0.033,0.167,0.117,0.284,0.25,0.35c0.1,0.1,0.233,0.167,0.4,0.2c0.467,0.1,0.817,0.217,1.05,0.35
				c0.133,0.066,0.233,0.133,0.3,0.2c0.2,0.267,0.35,0.567,0.45,0.9c0.267,0.7,0.667,1.2,1.2,1.5c0.1,0.034,0.2,0.083,0.3,0.15
				c0.066,0.033,0.133,0.083,0.2,0.15c0.267,0.167,0.517,0.367,0.75,0.6c-0.466,0.133-0.95,0.133-1.45,0
				c-1.133-0.267-2.317-0.4-3.55-0.4c-0.066,0-0.15,0-0.25,0c-0.066,0.034-0.133,0.05-0.2,0.05h-0.05
				c-0.066,0.033-0.133,0.05-0.2,0.05c-0.6,0.233-1.283,0.3-2.05,0.2c-0.4-0.033-0.8-0.083-1.2-0.15
				c-0.767-0.1-1.533-0.383-2.3-0.85c-0.167-0.1-0.333-0.167-0.5-0.2c-1-0.1-1.917-0.383-2.75-0.85c-1.033-0.533-2.05-1.1-3.05-1.7
				c-0.9-0.5-1.8-0.883-2.7-1.15c-0.566-0.167-1.15-0.267-1.75-0.3c-0.466-0.033-0.883-0.167-1.25-0.4
				c-0.466-0.267-0.966-0.417-1.5-0.45c-0.5,0-1-0.033-1.5-0.1c-0.1,0-0.2,0-0.3,0c-0.333,0-0.5,0.133-0.5,0.4
				c0.1,0.033,0.2,0.066,0.3,0.1c0.067,0.033,0.133,0.066,0.2,0.1c1.133,0.434,2.317,0.85,3.55,1.25c0.2,0.067,0.383,0.133,0.55,0.2
				c1.533,0.5,3.017,1.083,4.45,1.75c0.233,0.133,0.467,0.267,0.7,0.4c0.267,0.2,0.533,0.417,0.8,0.65c0.8,0.7,1.567,1.517,2.3,2.45
				c0.8,1.067,1.95,1.75,3.45,2.05c0.633,0.133,1.133,0.383,1.5,0.75c0.1,0.1,0.167,0.2,0.2,0.3c0.033,0.133,0.1,0.233,0.2,0.3
				c0.8,0.533,1.45,1.15,1.95,1.85c0.1,0.133,0.217,0.267,0.35,0.4c0.3,0.367,0.783,0.45,1.45,0.25c0.7-0.2,1.533,0.533,2.5,2.2
				c0.966,1.667,1.5,3.933,1.6,6.8c0.034,2.133,0.15,4.283,0.35,6.45c0,0.133,0.017,0.267,0.05,0.4c0.033,0.667,0.1,1.317,0.2,1.95
				v1.75c-0.8,0.566-1.566,1.117-2.3,1.65c-0.2-0.033-0.35-0.05-0.45-0.05c-2.867,0-5.467,0.467-7.8,1.4
				c-0.467,0.2-0.934,0.4-1.4,0.6c-1.833,0.934-3.017,1.833-3.55,2.7c1.934-1.367,3.467-2.283,4.6-2.75
				c0.2-0.1,0.383-0.167,0.55-0.2c0.434-0.133,1.4-0.2,2.9-0.2c1.3,0,2.017,0.017,2.15,0.05c0.233,0.033,0.45,0.117,0.65,0.25
				c-1.633,1.333-3.083,2.633-4.35,3.9c-0.267,0.267-0.533,0.55-0.8,0.85c-2.467,2.633-4.483,5.7-6.05,9.2
				c0,0.133-0.017,0.267-0.05,0.4c0.033-0.067,0.067-0.15,0.1-0.25c1.233-2.533,2.9-4.867,5-7c0.8-0.767,1.583-1.483,2.35-2.15
				c0.033,0.133,0.083,0.283,0.15,0.45c0.4,0.967,0.6,1.65,0.6,2.05c0,1.133-0.15,2.283-0.45,3.45c-0.4,1.733-0.65,2.9-0.75,3.5
				c0.367-0.933,0.833-2.15,1.4-3.65c0.233-0.633,0.4-1.25,0.5-1.85c0.3,0.034,0.85,0.6,1.65,1.7c0.333,0.467,0.6,0.85,0.8,1.15
				c-0.2-0.667-0.55-1.367-1.05-2.1c-0.5-0.667-0.933-1.15-1.3-1.45c0.033-0.3,0.05-0.6,0.05-0.9c0-0.8-0.05-1.434-0.15-1.9
				c-0.133-0.5-0.316-0.917-0.55-1.25c0.967-0.733,1.9-1.383,2.8-1.95c1.567-0.9,3-1.117,4.3-0.65c0.267,1.7-0.117,3.8-1.15,6.3
				c-1.033,2.533-1.7,4.417-2,5.65c0.567-1.066,1.05-1.833,1.45-2.3c0.467-0.367,0.733-0.4,0.8-0.1c0,0.1,0,0.5,0,1.2
				c0,0.7-0.083,1.566-0.25,2.6c-0.2,1.2-0.45,2.133-0.75,2.8c0.534-0.633,0.9-1.417,1.1-2.35c0.2-0.833,0.3-1.867,0.3-3.1
				c0-0.2-0.083-1.033-0.25-2.5c0-0.2,0.033-0.35,0.1-0.45c0.434-0.667,0.934-1.434,1.5-2.3v10.25c-0.6,0.2-1.233,0.45-1.9,0.75
				c-1.5,0.7-3,1.533-4.5,2.5c-0.533-0.333-1.167-0.65-1.9-0.95c-1.2-0.5-2.183-0.75-2.95-0.75c-0.4,0-0.683,0.05-0.85,0.15
				c1.033,0.066,1.716,0.217,2.05,0.45c0.1,0.067,0.35,0.383,0.75,0.95c-1.2-0.133-2.3-0.167-3.3-0.1c-1.534,0.1-3,0.434-4.4,1
				c-1.267,0.5-2.466,1.184-3.6,2.05c1.2-0.567,2.316-1,3.35-1.3c0.067,0,0.133-0.017,0.2-0.05c0.8-0.233,1.7-0.383,2.7-0.45
				c-0.4,0.533-1.034,1.25-1.9,2.15c-0.2,0.2-0.517,0.534-0.95,1c-0.567,0.567-1.3,1.3-2.2,2.2c0.633-0.267,1.35-0.733,2.15-1.4
				c0.467-0.367,0.967-0.8,1.5-1.3c1.067-0.933,1.684-1.483,1.85-1.65c0.4-0.4,0.7-0.767,0.9-1.1c0.167,0,0.333,0,0.5,0
				c0.8,0,2.133,0.2,4,0.6c-4.867,3.733-7.816,7.617-8.85,11.65v0.05c0.5-2.067,2.95-4.783,7.35-8.15
				c1.167-0.867,2.267-1.617,3.3-2.25c-0.067,0.267-0.117,0.583-0.15,0.95c-0.133,1.067-0.217,1.717-0.25,1.95
				c-0.1,0.533-0.267,1.1-0.5,1.7c-0.2,0.567-0.45,1.167-0.75,1.8c-0.333,0.667-0.617,1.233-0.85,1.7c-1.167-0.066-2.2,0.267-3.1,1
				c-0.267,0.2-0.6,0.55-1,1.05c0.467-0.367,1-0.7,1.6-1c1-0.467,1.75-0.667,2.25-0.6c-0.2,0.367-0.367,0.667-0.5,0.9
				c-0.4,0.7-0.85,1.3-1.35,1.8c0.9-0.867,1.733-1.883,2.5-3.05c0.567-0.867,1.1-1.816,1.6-2.85c0.167,0.467,0.283,0.95,0.35,1.45
				c0.066,0.467,0.1,1.233,0.1,2.3c0.167-0.566,0.25-1.017,0.25-1.35c0-0.5-0.083-1.25-0.25-2.25v-1.25h0.1
				c0.867-1.967,1.4-3.7,1.6-5.2c2.167-1.133,4.017-1.633,5.55-1.5c-0.033,0.3-0.066,0.583-0.1,0.85
				c-0.267,2.233-0.417,4.183-0.45,5.85c0,0.533,0,1.066,0,1.6c-0.033,1.4-0.05,2.817-0.05,4.25c-1.867,1.7-3.6,3.633-5.2,5.8
				c-0.3-0.033-0.633-0.067-1-0.1c-1.133-0.1-1.9-0.15-2.3-0.15c-0.5,0-1.217,0.083-2.15,0.25c-0.233,0.033-0.483,0.083-0.75,0.15
				c-1.066-0.5-1.683-0.783-1.85-0.85c-0.5-0.167-1.05-0.25-1.65-0.25c-0.333,0-0.933,0.067-1.8,0.2
				c-0.167,0.033-0.317,0.05-0.45,0.05c0,0.067,0,0.117,0,0.15c1.267-0.066,2.2,0.017,2.8,0.25c0.367,0.167,0.667,0.483,0.9,0.95
				c-0.067,0.033-0.15,0.05-0.25,0.05c-1.3,0.367-2.417,0.733-3.35,1.1c-1.4,0.567-2.4,1.184-3,1.85c0.7-0.5,1.7-0.983,3-1.45
				c0.467-0.167,1-0.333,1.6-0.5c1.667-0.5,3.25-0.8,4.75-0.9c-0.033,0.4-0.1,0.9-0.2,1.5c-1.3,1.067-2.417,2.5-3.35,4.3
				c-0.367,0.7-0.7,1.466-1,2.3c0.433-0.8,0.833-1.483,1.2-2.05c0.167,0.566,0.25,0.9,0.25,1c0.033,0.066,0.05,0.35,0.05,0.85
				l-0.1,0.95c0.033-0.1,0.083-0.283,0.15-0.55c0.067-0.3,0.1-0.534,0.1-0.7c0-0.567-0.1-1.183-0.3-1.85
				c0.567-0.9,1.017-1.533,1.35-1.9c0.2-0.2,0.65-0.483,1.35-0.85c-0.4,1.9-0.883,3.3-1.45,4.2c0.934-0.833,1.65-2.233,2.15-4.2
				c0.267-1,0.45-2,0.55-3c0.1,0,0.217,0,0.35,0c1.133,0,1.833,0,2.1,0c0.267,0.033,0.783,0.117,1.55,0.25
				c-1.467,2.133-2.833,4.467-4.1,7c-1.167,2.4-2.3,5.117-3.4,8.15c-1.033,2.934-1.767,4.934-2.2,6
				c0.434-0.833,1.233-2.617,2.4-5.35c0.6-1.467,1.2-2.784,1.8-3.95c0.6,1.5,0.9,2.783,0.9,3.85l-0.05,0.45
				c-0.6,1.233-1.067,2.25-1.4,3.05c-0.567,1.433-0.817,2.717-0.75,3.85c0.066-1.1,0.383-2.383,0.95-3.85
				c0.333-0.867,0.717-1.667,1.15-2.4l-0.3,2.8c0.1-0.233,0.233-0.867,0.4-1.9c0.133-1.033,0.2-1.983,0.2-2.85
				c-0.033-0.633-0.15-1.533-0.35-2.7c0.167,0.133,0.367,0.35,0.6,0.65c0.267,0.3,0.517,0.6,0.75,0.9
				c-0.167-0.333-0.383-0.667-0.65-1c0-0.033-0.267-0.35-0.8-0.95c-0.033-0.2-0.083-0.417-0.15-0.65v-0.15
				c0.2-0.4,0.4-0.783,0.6-1.15c0.733-1.3,1.583-2.583,2.55-3.85c0.434,1.133,0.7,2.467,0.8,4c0.066,0.7,0.1,2.117,0.1,4.25
				c0,0.9,0,1.7,0,2.4c0,0.067,0,0.117,0,0.15c-1.367,2.033-2.2,3.684-2.5,4.95c0,0.033,0,0.066,0,0.1
				c-0.1,0.466-0.35,1.117-0.75,1.95c-0.1,0.2-0.2,0.417-0.3,0.65c-0.467,0.934-0.817,1.7-1.05,2.3
				c0.333-0.633,0.783-1.567,1.35-2.8c0,1.2,0.083,2.1,0.25,2.7c0.034,0.133,0.067,0.25,0.1,0.35c0-0.033,0-0.383,0-1.05
				c-0.2-1.333-0.1-2.45,0.3-3.35c0.033-0.067,0.05-0.117,0.05-0.15c0.133-0.3,0.283-0.617,0.45-0.95
				c0.833-1.867,1.517-3.05,2.05-3.55c-0.033,0.5-0.067,0.917-0.1,1.25c-0.1,1-0.383,2.684-0.85,5.05
				c0.333-1.2,0.717-3.317,1.15-6.35c0-0.033,0.017-0.083,0.05-0.15c0.367-2.767,0.55-4.567,0.55-5.4c0-0.767,0.067-1.233,0.2-1.4
				c0.567,0.934,1.133,2.117,1.7,3.55c0.466,1.233,0.816,2.283,1.05,3.15c-0.267-1.433-0.55-2.633-0.85-3.6
				c-0.6-1.967-1.333-3.566-2.2-4.8c-0.067-0.667-0.133-1.283-0.2-1.85c-0.167-1.067-0.367-1.867-0.6-2.4
				c1.367-1.733,2.934-3.467,4.7-5.2c0.033,0.3,0.05,0.7,0.05,1.2c0,0.667-0.05,1.5-0.15,2.5c-0.067,0.867-0.133,1.45-0.2,1.75
				c0.1-0.2,0.333-0.9,0.7-2.1c0.433-1.467,0.65-2.617,0.65-3.45c0-0.367,0-0.65,0-0.85c0.4-0.367,0.817-0.75,1.25-1.15
				c-0.033,2.867-0.05,5.75-0.05,8.65c-0.033,1.8-0.05,3.583-0.05,5.35c0,2.3,0,4.6,0,6.9c0,0.4,0,0.783,0,1.15
				c-0.167,0.2-0.35,0.433-0.55,0.7c-0.6,0.034-1.383,0.1-2.35,0.2c-0.367,0.067-0.833,0.267-1.4,0.6c-0.667,0.4-1,0.733-1,1
				c0.3-0.167,0.833-0.367,1.6-0.6c0.9-0.233,1.35-0.283,1.35-0.15l0.8,0.1c-0.2,0.233-0.433,0.483-0.7,0.75
				c-0.367,0.433-0.9,1.216-1.6,2.35c-0.1,0.167-0.2,0.317-0.3,0.45c-0.667,1.1-1.15,2.017-1.45,2.75c-1.133,0.933-2.083,2-2.85,3.2
				c-0.733,1.2-1.417,2.833-2.05,4.9c1.167-3.033,2.65-5.333,4.45-6.9c-0.333,0.9-0.65,1.9-0.95,3c-0.3,1.033-0.566,2.167-0.8,3.4
				c1.133-3.267,2.25-5.883,3.35-7.85c0.066-0.133,0.133-0.267,0.2-0.4c0.167,0.267,0.267,0.617,0.3,1.05c0,0.067,0,0.45,0,1.15
				c0,0.8-0.083,2.05-0.25,3.75c-0.1,1.133-0.2,1.934-0.3,2.4c0.3-1.1,0.55-2.2,0.75-3.3c0.367-2,0.35-3.933-0.05-5.8
				c1.233-1.934,2.5-3.283,3.8-4.05c0,0.767,0,1.534,0,2.3v0.05c-0.367,3.3-0.833,6.617-1.4,9.95c-0.033,0.1-0.066,0.2-0.1,0.3
				c-0.167,1.067-0.3,2.117-0.4,3.15c-0.033,0.1-0.066,0.2-0.1,0.3c-2.4,1.233-4.267,2.433-5.6,3.6c-1.067,0.9-1.9,1.833-2.5,2.8
				c-0.467,0.767-0.75,1.55-0.85,2.35c0.1-0.267,0.483-0.883,1.15-1.85c0.733-1,1.35-1.733,1.85-2.2c0.5-0.433,0.9-0.75,1.2-0.95
				c-0.333,2.033-0.85,3.933-1.55,5.7c0.367-0.733,0.683-1.433,0.95-2.1c0.233,0.3,0.367,0.733,0.4,1.3c0,0.533,0,0.95,0,1.25
				c0.033-0.133,0.066-0.333,0.1-0.6c0.033-0.533,0.05-0.883,0.05-1.05c0-0.333-0.05-0.65-0.15-0.95c-0.1-0.233-0.15-0.45-0.15-0.65
				c0.267-0.767,0.45-1.467,0.55-2.1c0.1-0.4,0.15-0.75,0.15-1.05c0.967-0.633,2.15-1.1,3.55-1.4c-1.233,3.267-2.067,6.133-2.5,8.6
				c-0.534,3.067-0.784,5.767-0.75,8.1c0.033,2.367,0.1,3.95,0.2,4.75c0.067,0.4,0.167,0.8,0.3,1.2c0-1.5,0-2.983,0-4.45
				c0-2.3,0.367-4.933,1.1-7.9c0.367,0.667,0.667,1.567,0.9,2.7c0.4,2.1,0.683,3.633,0.85,4.6c-0.066-1.267-0.15-2.383-0.25-3.35
				c0.4,0.4,0.767,0.833,1.1,1.3c0.2,0.267,0.35,0.517,0.45,0.75c-0.067-0.5-0.333-1.067-0.8-1.7c-0.233-0.333-0.5-0.667-0.8-1
				c0-0.066,0-0.117,0-0.15c-0.067-0.367-0.117-0.7-0.15-1c-0.267-1.467-0.617-2.5-1.05-3.1c0.034-0.1,0.067-0.216,0.1-0.35
				c0.667-2.3,1.45-4.4,2.35-6.3c0.033,0.533,0.083,1.067,0.15,1.6c0.067,0.367,0.117,0.75,0.15,1.15c0,0.1,0.017,0.2,0.05,0.3
				c0.3,3.667,0.583,7.35,0.85,11.05c0.066,1,0.1,1.983,0.1,2.95c-0.4,0.233-0.917,0.85-1.55,1.85c-0.867,1.367-1.7,3.15-2.5,5.35
				c-0.133,0.333-0.267,0.684-0.4,1.05c0.033,0,0.183-0.267,0.45-0.8c0.367-0.633,0.934-1.65,1.7-3.05
				c0.367,0.533,0.55,1.417,0.55,2.65l-0.4,5.05c0.2-0.367,0.367-1.15,0.5-2.35c0.167-1.233,0.233-2.4,0.2-3.5
				c0-1.1-0.05-1.85-0.15-2.25l-0.15-0.6c0.567-0.9,1.15-1.667,1.75-2.3c0,0.367-0.017,0.733-0.05,1.1
				c0.067-0.133,0.133-0.3,0.2-0.5c0.133-0.333,0.283-0.667,0.45-1c0-0.033,0.017-0.066,0.05-0.1c0.033-0.066,0.05-0.133,0.05-0.2
				h0.05c0.867,1.566,1.6,3.066,2.2,4.5c-1,1.8-1.817,3.85-2.45,6.15s-1.083,4.85-1.35,7.65c0,0.067,0,0.117,0,0.15
				c0.2-1.1,0.483-2.316,0.85-3.65c0.233,0.067,0.667,0.75,1.3,2.05C28.233-2.467,28.7-1.2,29,0v-0.05c-0.533-3.1-1.333-5.4-2.4-6.9
				c0.133-0.5,0.283-1.017,0.45-1.55c0.333-1.133,0.667-2.15,1-3.05c0.367,1.433,0.583,2.6,0.65,3.5c0-0.4-0.017-0.883-0.05-1.45
				c-0.033-0.4-0.066-0.8-0.1-1.2c0.233,0.133,0.583,0.483,1.05,1.05c0.533,0.7,0.983,1.417,1.35,2.15
				c-0.567-1.267-0.85-1.917-0.85-1.95c-0.4-0.7-0.95-1.333-1.65-1.9c-0.067-0.267-0.133-0.55-0.2-0.85c0.5-1.333,0.933-2.3,1.3-2.9
				c0.133,0.567,0.35,1.417,0.65,2.55c0.3,1.133,0.667,2.966,1.1,5.5c0.034-0.067,0.05-0.133,0.05-0.2
				c-0.133-0.933-0.283-2.033-0.45-3.3c-0.167-1.3-0.4-2.5-0.7-3.6c-0.133-0.367-0.367-1.25-0.7-2.65
				c-0.167-0.633-0.35-1.383-0.55-2.25c0.5,0.233,0.95,0.483,1.35,0.75c0.534,0.4,0.967,0.733,1.3,1c0.867,0.733,1.45,1.3,1.75,1.7
				c-0.2-0.333-0.467-0.717-0.8-1.15c-0.667-0.833-1.283-1.483-1.85-1.95c-1-0.767-1.7-1.267-2.1-1.5
				c-0.367-1.267-0.75-2.333-1.15-3.2c0-0.167,0-0.317,0-0.45c0-0.066,0-0.117,0-0.15v-0.05c0.066-2.167,0.066-4.333,0-6.5
				c0-0.133-0.017-0.284-0.05-0.45c-0.333-1.6-0.5-3.233-0.5-4.9c0.033-1.3,0-2.583-0.1-3.85c-0.033-0.233-0.05-0.45-0.05-0.65
				c0.133-0.567,0.233-1.067,0.3-1.5v-0.05c0.333-1.566,0.5-2.633,0.5-3.2c0-0.033,0.017-0.083,0.05-0.15
				c0-0.167,0.017-0.333,0.05-0.5c0.333,0.367,0.667,0.716,1,1.05c-0.2,0.467-0.35,1.117-0.45,1.95c-0.1,0.867-0.267,3.4-0.5,7.6
				c-0.034,0.833-0.017,1.684,0.05,2.55c0.267,3.233,1.383,6.5,3.35,9.8c-0.6-1.433-1.184-2.983-1.75-4.65
				c-0.6-1.633-0.883-2.883-0.85-3.75c0.167-0.1,0.7,0.317,1.6,1.25c0.933,0.967,1.483,1.6,1.65,1.9
				c0.033,0.033,0.167,0.233,0.4,0.6c0.167,0.267,0.4,0.65,0.7,1.15c-0.167-0.433-0.35-0.85-0.55-1.25
				c0.133-0.066,0.233-0.1,0.3-0.1c0.433,0,1.167,0.333,2.2,1c0.6,0.434,1.05,0.75,1.35,0.95c-0.533-0.567-1.183-1.083-1.95-1.55
				c-0.8-0.534-1.383-0.8-1.75-0.8c-0.133,0-0.284-0.033-0.45-0.1c-0.533-0.9-1.1-1.7-1.7-2.4c-0.566-0.633-1.133-1.15-1.7-1.55
				c-0.133-0.833-0.2-1.583-0.2-2.25c0-1.4,0.117-2.833,0.35-4.3c0.1-0.733,0.233-1.417,0.4-2.05c0.267,0.433,0.583,1.183,0.95,2.25
				c0.4,1.4,0.6,2.117,0.6,2.15c0.033-0.733-0.034-1.533-0.2-2.4c-0.133-0.867-0.467-1.983-1-3.35c0.133-0.4,0.283-0.8,0.45-1.2
				c1.466,1.733,2.733,3.533,3.8,5.4c-0.233,0.467-0.433,0.95-0.6,1.45c-0.433,0.167-0.8,0.4-1.1,0.7c-0.2,0.2-0.45,0.55-0.75,1.05
				c0.5-0.5,0.883-0.833,1.15-1c0.066-0.033,0.233-0.083,0.5-0.15c-0.233,0.934-0.35,1.95-0.35,3.05c0,0.767,0.05,1.367,0.15,1.8
				c0.033,0.233,0.117,0.517,0.25,0.85c-0.067-0.8-0.1-1.5-0.1-2.1s0.133-1.5,0.4-2.7c0.267-1.033,0.55-1.767,0.85-2.2
				c1.233,2.3,2.2,4.717,2.9,7.25l0.15-0.15c-0.267-1.867-0.8-3.717-1.6-5.55c-0.133-0.3-0.9-1.816-2.3-4.55
				c-0.267-0.567-0.617-1.2-1.05-1.9c0.433,0.2,0.917,0.466,1.45,0.8c1.566,1,3.15,2.267,4.75,3.8
				c-1.233-1.533-1.917-2.367-2.05-2.5c-0.066-0.066-0.15-0.15-0.25-0.25c0.267,0.034,0.767,0.2,1.5,0.5
				c0.867,0.367,1.567,0.733,2.1,1.1c0-0.033,0.017-0.083,0.05-0.15c-0.4-0.3-0.933-0.633-1.6-1c-1.2-0.667-2.083-1-2.65-1
				c-0.033-0.033-0.066-0.067-0.1-0.1c-1.133-0.933-2.467-1.783-4-2.55c-0.367-0.5-0.75-1.05-1.15-1.65
				c-0.533-0.767-1.25-1.8-2.15-3.1c0.067-0.2,0.133-0.383,0.2-0.55c0.033-0.2,0.017-0.283-0.05-0.25
				C28.233-48.917,28.667-51.167,29.6-55.7c-0.033-0.033-0.067-0.05-0.1-0.05c-0.133,0-0.267,0.033-0.4,0.1
				c0.133-0.067,0.267-0.1,0.4-0.1C29.533-55.75,29.567-55.733,29.6-55.7z"/>
			
				<path style="fill-rule:evenodd;clip-rule:evenodd;fill:none;stroke:#000000;stroke-linecap:round;stroke-linejoin:round;stroke-miterlimit:3;" d="
				M29.8-57.8c-0.4-0.4-0.833-0.784-1.3-1.15 M33.05-51.95c0.034,0.133,0.067,0.267,0.1,0.4 M33.05-51.95
				c-0.233-1.233-0.6-2.283-1.1-3.15c-0.534-0.933-1.25-1.833-2.15-2.7 M29.1-55.65c0.133-0.067,0.267-0.1,0.4-0.1
				c0.033,0,0.067,0.017,0.1,0.05c2,1.333,3.15,2.583,3.45,3.75"/>
		</g>
	</g>
</symbol>
<use xlink:href="#tree_x5F_bare_x5F_bg"  width="66.2" height="158.15" y="-158.15" transform="matrix(2 0 0 -2 0 0)" style="overflow:visible;"/>
</svg>
