<?xml version="1.0" encoding="iso-8859-1"?>
<!-- Generator: Adobe Illustrator 16.0.0, SVG Export Plug-In . SVG Version: 6.00 Build 0)  -->
<!DOCTYPE svg PUBLIC "-//W3C//DTD SVG 1.1//EN" "http://www.w3.org/Graphics/SVG/1.1/DTD/svg11.dtd">
<svg version="1.1" id="Layer_1" xmlns="http://www.w3.org/2000/svg" xmlns:xlink="http://www.w3.org/1999/xlink" x="0px" y="0px"
	 width="192px" height="225px" viewBox="0 0 192 225" style="enable-background:new 0 0 192 225;" xml:space="preserve">
<symbol  id="blue_x5F_tree" viewBox="0 -219.368 186.35 219.368">
	<g id="Layer_3_1_">
		<path style="fill-rule:evenodd;clip-rule:evenodd;fill:#0A4483;" d="M179.65-36.15c-0.833,0.2-1.733,0.467-2.7,0.8
			c-4.233,1.434-8.167,3.383-11.8,5.85c-2.1,1.667-3.583,2.817-4.45,3.45c0.233,0.1,0.85,0.083,1.85-0.05c1-0.066,1.667-0.066,2,0
			c-2.367,0.8-3.633,1.267-3.8,1.4c0.667,0.133,1.117,0.4,1.35,0.8l-0.25,0.15c-2.2,0.067-3.833,0.35-4.9,0.85l0.95,1.4
			c-0.6,0.1-2.383,0.7-5.35,1.8c-3.233,1.2-5.133,2.1-5.7,2.7c-0.833-1.2-1.684-2.033-2.55-2.5c-0.133,0.567-0.25,1.017-0.35,1.35
			c-0.167,0.467-0.434,0.833-0.8,1.1c-1.433,0.8-2.533,1.417-3.3,1.85c0.033-0.233,0.15-0.7,0.35-1.4
			c-0.1,0.233-0.284,0.517-0.55,0.85c-0.3,0.4-0.633,0.717-1,0.95c-1.6,1.1-3.683,1.367-6.25,0.8c-4.433-1.033-7.133-1.583-8.1-1.65
			l0.9,1.3c0.2,0.067,0.4,0.184,0.6,0.35c-2.1,0.8-5.05,1.5-8.85,2.1c-3.9,0.667-6.3,1.083-7.2,1.25c0.367,0.6,0.45,0.95,0.25,1.05
			c-0.033-0.033-1.117,0.083-3.25,0.35c-1.933,0.3-3.067,0.283-3.4-0.05L103.5-9c0.633,0.067,1.083,0.183,1.35,0.35
			c0.2,0.066,0.633,0.367,1.3,0.9L105.8-7.6l-1.3-0.3l-0.35,0.25c0.133-0.067,0.383,0.15,0.75,0.65
			c-3.3,0.267-5.417,0.417-6.35,0.45c-1.233,0-2.867-0.333-4.9-1l-0.05,0.1c0.066,0.034-0.067,0.15-0.4,0.35
			c-1.267,0.867-2.3,0.9-3.1,0.1c-0.467-0.567-1.434-1.683-2.9-3.35c-1.267-1-2.55-1.75-3.85-2.25c-1.233-0.4-2.083-0.7-2.55-0.9
			l0.2,0.3c0.133-0.1,0.333-0.083,0.6,0.05c0.267,0.1,0.467,0.217,0.6,0.35c-5.633-1.434-9.034-2.383-10.2-2.85
			c-1.867-0.7-3.333-1.817-4.4-3.35c-0.267-0.4-0.567-1.05-0.9-1.95c-0.3-0.867-0.667-1.617-1.1-2.25l0.6-0.4
			c0.1,0.133,0.216,0.167,0.35,0.1c0.067-0.033,0.117-0.05,0.15-0.05l-1.4-2.1c0.233-0.133,0.45-0.2,0.65-0.2
			c0.167,0,0.283-0.033,0.35-0.1l-0.15-0.3c-1.1-0.633-2.2-1.4-3.3-2.3c-0.934-0.9-1.617-1.667-2.05-2.3
			c-0.167-0.167-0.433-0.75-0.8-1.75c-0.4-1-0.767-1.767-1.1-2.3l0.6-0.4c0.667,0.133,1.317-0.017,1.95-0.45
			c-1.233,0.133-2.5-0.183-3.8-0.95c-1.333-0.867-2.3-1.466-2.9-1.8c-0.867-0.9-1.733-1.517-2.6-1.85c-1.3-0.533-2.1-0.917-2.4-1.15
			l0.6,0.95c-1.4-0.833-3.434-1.767-6.1-2.8l2.05,2.9c1.233,1.8,2.367,2.917,3.4,3.35c1.833,0.733,3.283,1.533,4.35,2.4l-1.2,0.85
			c4.066,3.233,6.55,5.383,7.45,6.45l-0.6,0.35c-0.133-0.167-0.3-0.2-0.5-0.1c1,0.633,1.633,1.133,1.9,1.5
			c0.3,0.433,0.383,1.15,0.25,2.15c-0.267,0.967-0.267,1.667,0,2.1c0.433,0.633,0.85,0.816,1.25,0.55l2.45,3.6
			c-0.3-0.033-0.617-0.05-0.95-0.05c-0.667-0.167-1.217-0.434-1.65-0.8l1.1,1.6c0.2,0.267,0.767,0.75,1.7,1.45
			c1.633,1.033,3.633,2,6,2.9c1.4,0.566,2.917,0.85,4.55,0.85c1.3,0.033,2.217,0.216,2.75,0.55c-0.9-0.033-1.433,0.033-1.6,0.2
			c1.167,0.167,1.867,0.533,2.1,1.1l-0.6,0.4l1.9,0.45c-0.367,0.333-0.867,0.633-1.5,0.9c-0.633,0.3-1.033,0.5-1.2,0.6
			c0.733,0.133,2.65,0.783,5.75,1.95c3.233,1,5.867,1.2,7.9,0.6L90.75-4.2c0.167,0.367,0.283,0.867,0.35,1.5
			c0.133,0.8,0.367,1.617,0.7,2.45L92,0l0.15-0.95c0.1-0.6,0.25-0.983,0.45-1.15c0.4-0.233,1.333-0.45,2.8-0.65
			c1.4-0.1,2.2-0.067,2.4,0.1l0.3-1.5c1.233-0.033,2.667,0.017,4.3,0.15c0.685,0.065,2.843,0.257,6.475,0.575
			c-0.05-0.006-0.091-0.014-0.125-0.025c-0.467-0.133-0.683-0.25-0.65-0.35L107-5.5c1.7,0.1,4.267-0.617,7.7-2.15
			c3.267-1.434,5.683-2,7.25-1.7c-0.167-0.2-0.217-0.633-0.15-1.3c0.434,0.267,0.883,0.417,1.35,0.45c0.5-0.066,0.867-0.05,1.1,0.05
			c0.167-0.067,0.217-0.25,0.15-0.55c0.033-0.267,0-0.483-0.1-0.65l0.8-0.6c0.467,1.733,1.383,2.25,2.75,1.55
			c1.8-0.967,2.917-1.283,3.35-0.95c0.633,0.9,1.633,1.417,3,1.55c0.3,0.033,2.066,0,5.3-0.1l-1.2-1.7
			c1.6,0.033,4.467-0.783,8.6-2.45c4.367-1.867,7.517-2.883,9.45-3.05l-0.6-0.8c1.233-0.867,1.967-1.233,2.2-1.1
			c0.233-0.2,0.583-0.317,1.05-0.35c0.533-0.033,0.883-0.133,1.05-0.3c0.233-0.133,0.483-0.434,0.75-0.9
			c0.2-0.434,0.717-0.917,1.55-1.45c2.167-1.5,4.65-2.65,7.45-3.45c2.633-0.733,4.534-0.9,5.7-0.5c-0.2-0.3-0.683-0.716-1.45-1.25
			c-0.6-0.4-1.033-0.633-1.3-0.7c0.133-0.067,0.45-0.117,0.95-0.15c0.433-0.167,0.517-0.667,0.25-1.5
			c0.3-0.067,0.617-0.35,0.95-0.85c0.533-0.567,0.7-1.167,0.5-1.8c0.8-0.566,1.767-1.45,2.9-2.65
			C178.733-35.35,179.183-35.783,179.65-36.15z"/>
		<path style="fill-rule:evenodd;clip-rule:evenodd;fill:#05284F;" d="M181.9-62.65c-2.066,1.6-4.367,3.533-6.9,5.8
			c-3.367,2.967-5.267,4.617-5.7,4.95c-0.233,0.167-2.6,1.583-7.1,4.25c-0.133,0.1-0.25,0.167-0.35,0.2
			c-0.133,0.167-0.283,0.35-0.45,0.55c-0.333,0.5-0.45,1.15-0.35,1.95c-0.367-0.466-0.75-0.617-1.15-0.45
			c-0.133,0.033-0.383,0.183-0.75,0.45c-0.367,0.233-0.683,1.133-0.95,2.7c-0.667-2.2-2.684-2.8-6.05-1.8
			c-0.267,0.1-0.533,0.2-0.8,0.3c-0.133,0.033-0.283,0.083-0.45,0.15c-0.433,0.167-0.767,0.333-1,0.5
			c0.033,0.067,0.083,0.1,0.15,0.1c-0.267,0.067-0.533,0.1-0.8,0.1c-3.7,1.733-6.183,2.733-7.45,3l-1.45,0.95l0.55,0.85
			c-0.467,0.367-1.15,0.6-2.05,0.7c-1.033,0.1-1.817,0.183-2.35,0.25l0.55,0.05c0.333,0.2,1,0.383,2,0.55
			c1.1,0.133,1.7,0.233,1.8,0.3c-7.3,1.8-10.983,2.717-11.05,2.75c-0.2,0.2-0.383,0.367-0.55,0.5c-0.2,0.167-0.333,0.317-0.4,0.45
			c-0.067,0.167-0.1,0.617-0.1,1.35c-0.033,0.067-0.05,0.15-0.05,0.25c-0.133-0.167-0.333-0.283-0.6-0.35
			c-0.167-0.067-0.333-0.133-0.5-0.2c-0.633-0.1-1.067-0.05-1.3,0.15c-0.033,0-0.083,0.033-0.15,0.1
			c-0.133,0.167-0.283,0.483-0.45,0.95c-0.133,0.433-0.167,0.733-0.1,0.9c-0.3-0.2-0.55-0.333-0.75-0.4
			c-0.367-0.167-0.783-0.083-1.25,0.25l-0.05,0.05c-0.7,1.3-1.15,2.017-1.35,2.15l-0.15-0.25c-1.466-1.9-2.767-3.017-3.9-3.35
			c-1.533-0.133-3.1-0.35-4.7-0.65c-0.333-0.033-0.667-0.1-1-0.2c-0.1,0-0.217-0.017-0.35-0.05c-0.934-0.1-2.383-0.167-4.35-0.2
			c-2.5-0.034-4.3-0.067-5.4-0.1c0.066,0.1,0.1,0.267,0.1,0.5l-0.05,0.2c-0.6-0.066-1.35-0.267-2.25-0.6
			c-0.933-0.333-1.483-0.483-1.65-0.45c0.033,0.033,0.1,0.183,0.2,0.45c0.066,0.2-0.034,0.383-0.3,0.55
			c-0.1,0.067-0.733-0.083-1.9-0.45c-1.167-0.3-2.017-0.3-2.55,0c-1,0.567-1.817,0.784-2.45,0.65c-0.233-0.067-0.7-0.417-1.4-1.05
			c-0.2,0.333-0.367,0.633-0.5,0.9c-0.533,0.8-0.817,1.217-0.85,1.25l-0.05,0.05l-0.2-0.25c-0.233-0.3-0.517-0.617-0.85-0.95
			c-1,0.167-2,0.317-3,0.45c-0.066,0.033-0.133,0.05-0.2,0.05c-0.9,0.167-1.833,0.3-2.8,0.4c-0.533,0.133-1.05,0.233-1.55,0.3
			c0.267-0.2,0.583-0.367,0.95-0.5c0.267-0.133,0.517-0.2,0.75-0.2l1.2-0.9c-0.6-0.433-1.167-0.567-1.7-0.4
			c-0.533,0.167-0.983,0.15-1.35-0.05l1.55-1c-0.567-0.667-2.217-1.433-4.95-2.3c-1.533-0.433-2.767-0.817-3.7-1.15
			c-0.233-0.1-0.434-0.184-0.6-0.25c-0.9-0.3-1.517-0.55-1.85-0.75l-0.2-0.25c0.4,0.267,1.233,0.45,2.5,0.55
			c1.267,0,2.267-0.15,3-0.45c-1.6-1.2-4.417-2.333-8.45-3.4c-3.733-1.533-6.85-4.333-9.35-8.4c0.6,0.434,1.017,0.767,1.25,1
			c0.5,0.434,1.133,0.633,1.9,0.6l0.3-0.2c-0.7-0.733-1.783-1.9-3.25-3.5c-1.5-1.167-3.4-1.633-5.7-1.4l-0.2-0.35l2.4-1.6l-1.55-2.3
			c-0.5-0.267-1.216-0.633-2.15-1.1l-1.05-1.5c0.1-0.2,0.483-0.35,1.15-0.45c0.533-0.067,1.05-0.067,1.55,0
			c-0.7-0.233-1.8-0.883-3.3-1.95c-1.967-1.4-3.467-2.883-4.5-4.45c-0.133-0.133-0.233-0.3-0.3-0.5l-0.3,0.2
			c0.1,0.133,0.1,0.233,0,0.3L44-66.65l-1.1-1.7l-0.35,0.25c0.2,0.233,0.284,0.567,0.25,1c0.034,0.233,0.05,0.434,0.05,0.6
			c-0.167-0.6-0.4-1.483-0.7-2.65c-0.5-1.7-0.85-2.7-1.05-3c-0.867-1.233-2.017-2.4-3.45-3.5c-1.233-0.967-2.083-1.517-2.55-1.65
			c0.333,0.466,0.383,0.767,0.15,0.9l-1.2-1.8c0.4,1.4,0.817,2.417,1.25,3.05L34.95-75c-0.967-1.033-2.233-2.7-3.8-5l-0.95,0.65
			c-0.1-0.833-0.784-1.1-2.05-0.8c-1.333,0.467-2.083,0.7-2.25,0.7c0.267,0.4,0.417,1.467,0.45,3.2c-0.1-0.4-0.65-0.617-1.65-0.65
			c0.133,0.467,0.2,0.95,0.2,1.45c0,0.034,0,0.067,0,0.1l-0.6,0.4c-0.1-0.2-0.233-0.233-0.4-0.1l-0.95-1.4l-0.6,0.35
			c-0.1,0.567-0.133,0.9-0.1,1c0,0.1,0.2,0.434,0.6,1c0.733,1.133,1.8,2,3.2,2.6c1.434,0.567,2.317,1.133,2.65,1.7l-1.35,0.9
			c0.667-0.4,1.55-0.267,2.65,0.4c-0.267,0.167-0.483,0.4-0.65,0.7c-0.167,0.267-0.184,0.466-0.05,0.6c0.367-0.233,0.8-0.4,1.3-0.5
			l-1.75,1.2c0.367,0.133,1,0.05,1.9-0.25c0.933-0.333,1.75-0.4,2.45-0.2c0.167,1.5,0.466,2.517,0.9,3.05c0.8,1.233,1.8,2.267,3,3.1
			c0.467,0.367,1.65,1.033,3.55,2l-0.95,0.7c-0.1-0.033-0.3-0.15-0.6-0.35c-0.3-0.167-0.483-0.2-0.55-0.1
			c0.167,0.233,0.4,0.683,0.7,1.35c0.233,0.534,0.45,0.917,0.65,1.15c1.367,0.8,2.1,1.283,2.2,1.45c0.3,0.4,0.367,0.917,0.2,1.55
			c-0.2,0.733-0.283,1.233-0.25,1.5c-0.1-0.233-0.367-0.217-0.8,0.05l0.8,1.2l-0.5,0.4c0.833,0.333,1.517,0.767,2.05,1.3
			c0.167,0.233,0.617,0.883,1.35,1.95c0.7,1.433,1.267,2.45,1.7,3.05l-0.6,0.35L43.9-43.9l0.35,0.55c2.667,1.033,4.7,1.967,6.1,2.8
			l-0.6-0.95c0.3,0.233,1.1,0.617,2.4,1.15c0.867,0.333,1.733,0.95,2.6,1.85c0.6,0.333,1.567,0.933,2.9,1.8
			c1.3,0.767,2.567,1.083,3.8,0.95c-0.633,0.433-1.284,0.583-1.95,0.45l-0.6,0.4c0.333,0.533,0.7,1.3,1.1,2.3
			c0.367,1,0.633,1.583,0.8,1.75c0.434,0.633,1.117,1.4,2.05,2.3c1.1,0.9,2.2,1.667,3.3,2.3l0.15,0.3
			c-0.066,0.067-0.183,0.1-0.35,0.1c-0.2,0-0.417,0.067-0.65,0.2l1.4,2.1c-0.034,0-0.083,0.017-0.15,0.05
			c-0.133,0.067-0.25,0.033-0.35-0.1l-0.6,0.4c0.433,0.633,0.8,1.383,1.1,2.25c0.333,0.9,0.633,1.55,0.9,1.95
			c1.066,1.533,2.533,2.65,4.4,3.35c1.167,0.467,4.567,1.417,10.2,2.85c-0.133-0.133-0.333-0.25-0.6-0.35
			c-0.267-0.133-0.467-0.15-0.6-0.05l-0.2-0.3c0.467,0.2,1.317,0.5,2.55,0.9c1.3,0.5,2.583,1.25,3.85,2.25
			c1.466,1.667,2.433,2.783,2.9,3.35c0.8,0.8,1.833,0.767,3.1-0.1c0.333-0.2,0.466-0.316,0.4-0.35l0.05-0.1
			c2.033,0.667,3.667,1,4.9,1c0.934-0.034,3.05-0.184,6.35-0.45c-0.367-0.5-0.617-0.717-0.75-0.65l0.35-0.25l1.3,0.3l0.35-0.15
			c-0.667-0.533-1.1-0.833-1.3-0.9c-0.267-0.167-0.717-0.283-1.35-0.35l-0.15-0.3c0.333,0.333,1.467,0.35,3.4,0.05
			c2.133-0.267,3.217-0.383,3.25-0.35c0.2-0.1,0.117-0.45-0.25-1.05c0.9-0.167,3.3-0.583,7.2-1.25c3.8-0.6,6.75-1.3,8.85-2.1
			c-0.2-0.167-0.4-0.283-0.6-0.35l-0.9-1.3c0.967,0.066,3.667,0.617,8.1,1.65c2.567,0.567,4.65,0.3,6.25-0.8
			c0.367-0.233,0.7-0.55,1-0.95c0.267-0.333,0.45-0.617,0.55-0.85c-0.2,0.7-0.317,1.167-0.35,1.4c0.767-0.433,1.867-1.05,3.3-1.85
			c0.367-0.267,0.633-0.633,0.8-1.1c0.1-0.333,0.216-0.783,0.35-1.35c0.867,0.467,1.717,1.3,2.55,2.5c0.566-0.6,2.467-1.5,5.7-2.7
			c2.967-1.1,4.75-1.7,5.35-1.8l-0.95-1.4c1.066-0.5,2.7-0.783,4.9-0.85l0.25-0.15c-0.233-0.4-0.684-0.667-1.35-0.8
			c0.167-0.133,1.433-0.6,3.8-1.4c-0.333-0.066-1-0.066-2,0c-1,0.133-1.617,0.15-1.85,0.05c0.867-0.633,2.35-1.784,4.45-3.45
			c3.633-2.467,7.567-4.417,11.8-5.85c0.966-0.333,1.867-0.6,2.7-0.8c0.567-0.567,1.1-1.017,1.6-1.35
			c-0.433-0.1-1.283-0.083-2.55,0.05l-0.2-0.35c1.267-0.9,2.167-2.617,2.7-5.15c0.5-2.367,2.216-4.283,5.15-5.75
			c-0.333,0.034-0.6,0.05-0.8,0.05c-0.466,0.033-0.983,0.133-1.55,0.3c-0.033-0.467-0.217-0.933-0.55-1.4
			c-0.2-0.3-0.35-0.4-0.45-0.3c-0.1,0.167-0.2,0.3-0.3,0.4C182.467-52.717,182.2-57.05,181.9-62.65z M94.75-21.85
			c-0.033-0.033-0.083-0.083-0.15-0.15c0.3,0.067,0.517,0.167,0.65,0.3c-0.133,0.067-0.25,0.067-0.35,0L94.75-21.85z M85.35-14.5
			c-0.033-0.2-0.05-0.35-0.05-0.45l0.3,0.2L85.35-14.5z M112.85-28.7c-0.1,0.067-0.25,0.083-0.45,0.05
			c-0.433-0.1-0.883-0.2-1.35-0.3c-0.267,0-0.6,0.034-1,0.1l-0.15-0.3c0.434,0.066,0.817,0.133,1.15,0.2
			C111.883-28.917,112.483-28.833,112.85-28.7z"/>
		<path style="fill-rule:evenodd;clip-rule:evenodd;fill:#001125;" d="M31.85-94.55L29.1-91.7c0.933-1.1,1.8-2.167,2.6-3.2
			l-0.05-0.05c-0.3-0.466-1.733-2.133-4.3-5c-0.1-0.1-0.533-0.833-1.3-2.2c-0.667-1.233-1.233-2.184-1.7-2.85
			c-0.133-0.033-0.367-0.117-0.7-0.25c-0.2,0.4-0.233,0.9-0.1,1.5c0.233,0.533,0.534,1.017,0.9,1.45
			c-0.067,0.033-0.117,0.05-0.15,0.05c-2.933,2.067-4.35,3.933-4.25,5.6c0.767,1.267,1.117,1.933,1.05,2
			c-0.067,0.033-0.483,3.783-1.25,11.25c0.333,0.533,0.95,0.583,1.85,0.15c0.8-0.333,1.383-0.05,1.75,0.85
			c-0.034,0.267-0.45,0.65-1.25,1.15c0.466,0.3,1.017,0.917,1.65,1.85l-1.15,0.8c0.367,0.333,0.733,0.883,1.1,1.65
			c0.333,0.667,0.7,1.167,1.1,1.5c0-0.5-0.066-0.983-0.2-1.45c1,0.033,1.55,0.25,1.65,0.65c-0.033-1.733-0.184-2.8-0.45-3.2
			c0.167,0,0.917-0.233,2.25-0.7c1.267-0.3,1.95-0.033,2.05,0.8L31.15-80c1.567,2.3,2.833,3.967,3.8,5l0.35-0.15
			c-0.433-0.633-0.85-1.65-1.25-3.05l1.2,1.8c0.233-0.133,0.183-0.434-0.15-0.9c0.467,0.133,1.316,0.683,2.55,1.65
			c1.434,1.1,2.583,2.267,3.45,3.5c0.2,0.3,0.55,1.3,1.05,3c0.3,1.167,0.533,2.05,0.7,2.65c0-0.167-0.017-0.367-0.05-0.6
			c0.034-0.433-0.05-0.767-0.25-1l0.35-0.25l1.1,1.7l0.15-0.15c0.1-0.067,0.1-0.167,0-0.3l0.3-0.2c0.066,0.2,0.167,0.367,0.3,0.5
			c1.033,1.566,2.533,3.05,4.5,4.45c1.5,1.067,2.6,1.717,3.3,1.95c-0.5-0.067-1.017-0.067-1.55,0c-0.667,0.1-1.05,0.25-1.15,0.45
			l1.05,1.5c0.934,0.467,1.65,0.833,2.15,1.1l1.55,2.3l-2.4,1.6l0.2,0.35c2.3-0.233,4.2,0.233,5.7,1.4
			c1.467,1.6,2.55,2.767,3.25,3.5l-0.3,0.2c-0.767,0.033-1.4-0.167-1.9-0.6c-0.233-0.233-0.65-0.566-1.25-1
			c2.5,4.067,5.617,6.867,9.35,8.4c4.033,1.067,6.85,2.2,8.45,3.4c-0.733,0.3-1.733,0.45-3,0.45c-1.267-0.1-2.1-0.283-2.5-0.55
			l0.2,0.25c0.333,0.2,0.95,0.45,1.85,0.75c0.167,0.066,0.367,0.15,0.6,0.25c0.933,0.333,2.167,0.717,3.7,1.15
			c2.733,0.867,4.383,1.633,4.95,2.3l-1.55,1c0.367,0.2,0.816,0.217,1.35,0.05c0.534-0.167,1.1-0.033,1.7,0.4l-1.2,0.9
			c-0.233,0-0.483,0.067-0.75,0.2c-0.367,0.133-0.683,0.3-0.95,0.5c0.5-0.067,1.017-0.167,1.55-0.3c0.967-0.1,1.9-0.233,2.8-0.4
			c0.066,0,0.133-0.017,0.2-0.05c1-0.133,2-0.283,3-0.45c0.333,0.333,0.617,0.65,0.85,0.95l0.2,0.25l0.05-0.05
			c0.033-0.033,0.317-0.45,0.85-1.25c0.133-0.267,0.3-0.566,0.5-0.9c0.7,0.633,1.167,0.983,1.4,1.05
			c0.633,0.133,1.45-0.083,2.45-0.65c0.533-0.3,1.383-0.3,2.55,0c1.167,0.367,1.8,0.517,1.9,0.45c0.267-0.167,0.367-0.35,0.3-0.55
			c-0.1-0.267-0.167-0.417-0.2-0.45c0.167-0.033,0.717,0.117,1.65,0.45c0.9,0.333,1.65,0.533,2.25,0.6l0.05-0.2
			c0-0.233-0.034-0.4-0.1-0.5c1.1,0.033,2.9,0.066,5.4,0.1c1.967,0.033,3.417,0.1,4.35,0.2c0.133,0.033,0.25,0.05,0.35,0.05
			c0.333,0.1,0.667,0.167,1,0.2c1.6,0.3,3.167,0.517,4.7,0.65c1.133,0.333,2.434,1.45,3.9,3.35l0.15,0.25
			c0.2-0.133,0.65-0.85,1.35-2.15l0.05-0.05c0.467-0.333,0.883-0.417,1.25-0.25c0.2,0.066,0.45,0.2,0.75,0.4
			c-0.067-0.167-0.033-0.467,0.1-0.9c0.167-0.467,0.316-0.784,0.45-0.95c0.067-0.067,0.117-0.1,0.15-0.1
			c0.233-0.2,0.667-0.25,1.3-0.15c0.167,0.067,0.333,0.133,0.5,0.2c0.267,0.066,0.467,0.183,0.6,0.35c0-0.1,0.017-0.183,0.05-0.25
			c0-0.733,0.033-1.183,0.1-1.35c0.066-0.133,0.2-0.284,0.4-0.45c0.167-0.133,0.35-0.3,0.55-0.5c0.067-0.033,3.75-0.95,11.05-2.75
			c-0.1-0.067-0.7-0.167-1.8-0.3c-1-0.167-1.667-0.35-2-0.55l-0.55-0.05c0.533-0.067,1.317-0.15,2.35-0.25
			c0.9-0.1,1.583-0.333,2.05-0.7l-0.55-0.85l1.45-0.95c1.267-0.267,3.75-1.267,7.45-3c0.267,0,0.533-0.033,0.8-0.1
			c-0.066,0-0.117-0.033-0.15-0.1c0.233-0.167,0.567-0.333,1-0.5c0.167-0.066,0.317-0.117,0.45-0.15c0.267-0.1,0.533-0.2,0.8-0.3
			c3.367-1,5.383-0.4,6.05,1.8c0.267-1.567,0.583-2.467,0.95-2.7c0.367-0.267,0.617-0.417,0.75-0.45
			c0.4-0.167,0.783-0.017,1.15,0.45c-0.1-0.8,0.017-1.45,0.35-1.95c0.167-0.2,0.317-0.383,0.45-0.55c0.1-0.033,0.217-0.1,0.35-0.2
			c4.5-2.667,6.867-4.083,7.1-4.25c0.434-0.333,2.333-1.983,5.7-4.95c2.533-2.267,4.833-4.2,6.9-5.8
			c-0.033-1.067-0.083-2.184-0.15-3.35c-0.667,0.7-1.267,1.25-1.8,1.65L179-65.8c-0.1-0.633-0.7-1.883-1.8-3.75l-2.45-3.55
			c0.4,0.867,0.767,1.583,1.1,2.15c-0.267,0.133-0.867,0.184-1.8,0.15c-0.033,0-0.083,0-0.15,0c-0.467,0.033-0.833,0.017-1.1-0.05
			c-0.5-0.066-0.833-0.15-1-0.25l-0.3,0.15c0.167,0.067,0.283,0.1,0.35,0.1c-1.4,0.167-2.133,0.233-2.2,0.2
			c0.867,0.533,1.383,0.867,1.55,1c0.4,0.3,0.75,0.683,1.05,1.15c0.5,0.833,0.9,1.5,1.2,2c-1.034-0.333-1.667-0.5-1.9-0.5
			c-0.1,0.633-0.183,1.067-0.25,1.3c-0.066,0.367-0.216,0.633-0.45,0.8c-1.333,0.167-2.033,0.3-2.1,0.4
			c-0.067,0-0.183,0.283-0.35,0.85c-0.2,0.533-0.5,0.95-0.9,1.25c-0.333,0.233-0.667,0.3-1,0.2c-0.7-0.133-1.317-0.216-1.85-0.25
			c-0.1,1.8-0.167,2.733-0.2,2.8c-0.867-0.233-1.417-0.35-1.65-0.35c-0.133,0.067-0.4,0.25-0.8,0.55
			c-0.4,0.233-0.667,0.684-0.8,1.35c-0.034,0.2-0.05,0.333-0.05,0.4c-0.066,0.4-0.117,0.6-0.15,0.6
			c-0.067,0.067-0.133,0.117-0.2,0.15c-0.367,0.167-0.883,0.25-1.55,0.25c-0.767,0.067-1.183,0.117-1.25,0.15
			c0.433,0.267,0.683,0.45,0.75,0.55l-0.1,0.1c-1.5,0.667-3.367,0.75-5.6,0.25c0.167,0.533,0.167,1.183,0,1.95
			c-0.1,0.434-0.233,0.833-0.4,1.2c-0.066,0.433-0.117,0.767-0.15,1c-0.367-0.2-0.633-0.317-0.8-0.35c-0.267-0.033-0.5,0-0.7,0.1
			c-0.067,0.067-0.117,0.1-0.15,0.1c-0.2,0.1-0.283,0.3-0.25,0.6c0,0.3-0.05,0.55-0.15,0.75l-1.15-0.25l0.1,0.1
			c0.6,0.467,0.983,0.833,1.15,1.1c-0.4-0.066-1.1-0.066-2.1,0c-0.367,0.033-0.717,0.067-1.05,0.1
			c-0.367,0.133-0.717,0.267-1.05,0.4c-0.333,0.167-0.65,0.333-0.95,0.5c-0.533,0.367-1.066,0.833-1.6,1.4
			c-0.5,0.567-0.783,0.883-0.85,0.95c-0.633,0.433-2.1,0.417-4.4-0.05l0.4,0.55c-0.367,0.167-0.767,0.1-1.2-0.2
			c-0.467-0.233-0.817-0.5-1.05-0.8l-0.15,0.1c0.167,0.467,0.6,1.233,1.3,2.3c-0.3-0.066-0.5-0.066-0.6,0
			c-0.267-0.066-0.45-0.033-0.55,0.1c0.633,0.767,1.05,1.283,1.25,1.55c-0.467,0.3-1.017,0.35-1.65,0.15
			c0.467,0.667,0.717,1.133,0.75,1.4c-0.066-0.1-0.133-0.133-0.2-0.1c-0.633-0.433-1-0.75-1.1-0.95c0.067,0.367,0.1,0.717,0.1,1.05
			c-0.233-0.033-0.434,0.017-0.6,0.15l-0.6,1.5c-0.167-0.233-0.5-0.467-1-0.7c-0.467-0.233-0.883-0.3-1.25-0.2v0.3l0.2,0.25
			c-0.8-0.167-1.45-0.267-1.95-0.3c-0.7,0.033-1.167,0.05-1.4,0.05l0.2,0.05c0.1,0.033,0.066,0.1-0.1,0.2
			c-0.067,0-0.417,0.05-1.05,0.15c-0.667,0.034-1.05,0-1.15-0.1c-0.233-0.367-0.267-0.65-0.1-0.85c0.1-0.167,0.034-0.35-0.2-0.55
			l-0.75,0.5c-0.467,0.833-0.7,1.767-0.7,2.8c-0.066,0.8-0.316,1.367-0.75,1.7c-0.1,0.067-0.2,0.117-0.3,0.15
			c-0.6,0.267-1.3,0.167-2.1-0.3c-0.833-0.333-1.467-0.45-1.9-0.35c-0.133,0.034-0.25,0.083-0.35,0.15
			c-0.6,0.933-0.917,1.417-0.95,1.45c-0.5-0.767-0.9-1.267-1.2-1.5l-0.3,0.2c0.034,0.167-0.017,0.417-0.15,0.75
			c-0.267-0.467-0.7-0.733-1.3-0.8l-0.2,0.95c-1.133-0.633-2.683-1.083-4.65-1.35c-0.367-0.033-0.733-0.066-1.1-0.1
			c-1.733-0.133-3.75-0.15-6.05-0.05c-0.233,0.267-0.4,0.433-0.5,0.5c-0.533-0.433-0.883-0.617-1.05-0.55v0.65
			c-0.167-0.3-0.367-0.434-0.6-0.4c-0.167,0.033-0.3,0.05-0.4,0.05c-0.03,0.388,0.003,0.664,0.1,0.825
			c-0.316-0.507-0.699-1.099-1.15-1.775c-0.233-0.267-0.45-0.533-0.65-0.8c-0.467-0.533-0.934-1.1-1.4-1.7
			c-2.267-2.6-4.534-4.4-6.8-5.4c-0.1-0.033-0.233-0.083-0.4-0.15c-0.133-0.1-0.283-0.167-0.45-0.2c-1.966-0.7-4.133-0.816-6.5-0.35
			c-1.733,0.3-2.633,0.033-2.7-0.8L81.4-46c-0.133-0.167-0.367-0.317-0.7-0.45c0.066,1.1,0.283,2.034,0.65,2.8
			c-0.1-0.067-0.35-0.25-0.75-0.55c-0.3-0.167-0.684-0.4-1.15-0.7c-0.767-0.533-1.75-1.2-2.95-2c-2.533-1.7-3.883-2.783-4.05-3.25
			c-0.1,0.066-0.2,0.2-0.3,0.4c0,0.033-0.017,0.05-0.05,0.05c-0.067,0.167-0.117,0.267-0.15,0.3l-0.4-0.55L71.4-49.9
			c-0.033,0.267-0.05,0.483-0.05,0.65c0,0.3-0.033,0.533-0.1,0.7c-0.333-0.467-0.633-1.367-0.9-2.7c-0.133-1.3-0.434-2.3-0.9-3
			c-1.934-2.8-3.534-4.617-4.8-5.45c-0.967-0.667-1.867-0.783-2.7-0.35l-1.15-1.7c-0.133,0.2-0.3,0.7-0.5,1.5
			c-0.066-0.1-0.216-0.233-0.45-0.4c-0.167-0.233-0.117-0.783,0.15-1.65l-0.2,0.1c-0.633,0.434-0.983,0.583-1.05,0.45
			c-0.1-0.233-0.233-0.267-0.4-0.1l-1.1,1.6c-0.267,0.133-0.5,0.167-0.7,0.1c-0.167-0.033-0.367-0.1-0.6-0.2
			c0.367-0.333,0.7-0.667,1-1c0.433-0.467,0.783-0.917,1.05-1.35c0.1-0.233,0.217-0.466,0.35-0.7c0.133-0.434,0.15-0.817,0.05-1.15
			c-0.033-0.034-0.133-0.217-0.3-0.55c-0.434-0.566-1.217-1.683-2.35-3.35c-2.2-3.233-3.767-4.917-4.7-5.05
			c-0.133,0.633-0.3,1-0.5,1.1c-0.367-0.567-0.917-1.167-1.65-1.8c0.267,0.367,0.35,0.7,0.25,1l-0.8-1.1L48-74.05
			c0.267,0.7,0.4,1.083,0.4,1.15c0.033,0.433-0.3,0.75-1,0.95l-1.15-1.7c-0.167-0.434-0.483-0.9-0.95-1.4
			c-0.167-0.333-0.466-0.75-0.9-1.25l-0.3,0.2l-0.15-0.35l-1.5,1.05c-0.1,0.633-0.267,1.033-0.5,1.2c-0.2-2.066-0.3-4.05-0.3-5.95
			c-0.2-1.233-0.883-2.684-2.05-4.35c-0.6-0.867-1.15-1.35-1.65-1.45c-0.5-0.167-1.017-0.667-1.55-1.5
			c-0.2-0.267-0.633-0.95-1.3-2.05c-0.7-1.2-1.283-1.967-1.75-2.3c0.1,0.133,0.117,0.25,0.05,0.35h-0.05
			c-0.033-0.167-0.083-0.367-0.15-0.6c-0.067-0.534-0.184-0.9-0.35-1.1L32.5-93.8c0.033,0.167-0.133,0.4-0.5,0.7
			C32.133-93.6,32.083-94.083,31.85-94.55z M33.55-90.85l-0.3-0.45l0.1-0.15C33.383-91.217,33.45-91.017,33.55-90.85z M66.9-46.35
			c-0.267-0.066-0.633-0.167-1.1-0.3l-0.05-0.15l0.3-0.25C66.483-46.817,66.767-46.583,66.9-46.35z M56.1-57.05
			c0.133,0.1,0.183,0.25,0.15,0.45c-0.167-0.133-0.333-0.316-0.5-0.55L55.7-57.5C55.833-57.333,55.967-57.183,56.1-57.05z"/>
		<path style="fill-rule:evenodd;clip-rule:evenodd;fill:#170E04;" d="M160.8-56.95c0.067-0.033,0.133-0.083,0.2-0.15
			c0.033,0,0.083-0.2,0.15-0.6c-2.233-3.5-4.85-7.183-7.85-11.05c-7.767-9.833-15.316-16.517-22.65-20.05
			c-0.066-0.167-0.133-0.367-0.2-0.6v-0.05c-0.133-0.233-0.267-0.517-0.4-0.85v-0.05c-0.533-1.3-1.066-2.85-1.6-4.65l-0.05-0.05
			c-0.066-0.333-0.167-0.667-0.3-1c4.7,3.1,8.617,5.7,11.75,7.8l0.1,0.1c0.066,0.066,0.133,0.117,0.2,0.15l-0.6-0.8
			c-3.333-3.6-7.2-6.95-11.6-10.05c-0.267-0.167-0.567-0.383-0.9-0.65L127-99.45c-1.88-1.267-3.639-2.367-5.275-3.3
			c-0.552-0.485-1.627-1.251-3.225-2.3c-0.749-0.495-1.866-1.245-3.35-2.25c0.065,0.285-0.227,0.335-0.875,0.15
			c-1.23-0.346-2.788-0.738-4.675-1.175c-1.88-0.441-3.63-1.792-5.25-4.05c-1.617-2.257-2.75-3.79-3.4-4.6
			c-1.871-2.789-3.737-5.331-5.6-7.625c-0.533-0.867-1.367-2-2.5-3.4c-0.2-1.267-0.667-2.383-1.4-3.35
			c-0.403-0.521-0.77-1.088-1.1-1.7c-0.142-0.24-0.275-0.49-0.4-0.75c-0.534-1.034-1.067-2.05-1.6-3.05
			c-0.267-0.566-0.633-0.983-1.1-1.25c-1.433-0.8-2.35-1.9-2.75-3.3c-0.4-1.233-0.783-2.4-1.15-3.5
			c-0.011-0.032-0.019-0.066-0.025-0.1c-0.05-0.915-0.075-1.865-0.075-2.85c0-0.5,0.467-2.083,1.4-4.75
			c0.9-2.667,1.35-5.083,1.35-7.25c0-0.199,0.092-0.849,0.275-1.95c-0.09-0.149-0.182-0.308-0.275-0.475V-172
			c-6.067-12.933-10.15-20.35-12.25-22.25c-1.167-1.033-2.483-2.15-3.95-3.35c-0.933-0.933-1.617-2.066-2.05-3.4
			c-0.201-0.603-0.526-1.628-0.975-3.075c0.161-0.052,0.32-0.11,0.475-0.175c0.133-0.033,0.283-0.05,0.45-0.05
			c0.966-0.233,1.867-0.267,2.7-0.1c0.233,0.066,0.467,0.1,0.7,0.1c0.4,0.033,0.566-0.117,0.5-0.45c0-0.1,0.066-0.183,0.2-0.25
			c0.233-0.267,0.483-0.517,0.75-0.75c0.3-0.2,0.583-0.367,0.85-0.5c1.533-0.8,3.067-1.583,4.6-2.35
			c-0.767,0.2-1.483,0.25-2.15,0.15c-0.333-0.066-0.667-0.083-1-0.05c-1.3,0.067-2.5,0.367-3.6,0.9c-0.5,0.267-0.9,0.467-1.2,0.6
			c-0.133,0.133-0.267,0.217-0.4,0.25c-1.133,0.267-2.117,0.083-2.95-0.55c0.233-0.034,0.483-0.15,0.75-0.35
			c0.466-0.4,1.017-0.733,1.65-1c0.066-0.067,0.133-0.1,0.2-0.1c0.534-0.267,0.95-0.5,1.25-0.7c0.133-0.066,0.284-0.15,0.45-0.25
			c0.167-0.1,0.333-0.216,0.5-0.35s0.317-0.217,0.45-0.25c0.6-0.267,1.233-0.4,1.9-0.4c0.867,0,1.683,0.067,2.45,0.2
			c1.233,0.267,2.517,0.133,3.85-0.4c0.167-0.067,0.333-0.167,0.5-0.3c0.533-0.433,1.067-0.7,1.6-0.8
			c0.233-0.033,0.4-0.117,0.5-0.25c0.333-0.233,0.683-0.467,1.05-0.7c0.633-0.4,1.333-0.65,2.1-0.75c0.2-0.033,0.45-0.066,0.75-0.1
			c0.633-0.167,1.267-0.284,1.9-0.35c1.067-0.167,2.1-0.45,3.1-0.85c-0.5-0.433-1.233-0.533-2.2-0.3
			c-0.567,0.1-1.133,0.117-1.7,0.05c-0.267,0-0.583,0-0.95,0c-1.867,0.2-3.7,0.65-5.5,1.35c-0.233,0.066-0.45,0.066-0.65,0
			c-0.367-0.033-0.65,0.066-0.85,0.3c-0.167,0.133-0.367,0.25-0.6,0.35c-0.267,0.033-0.534,0.083-0.8,0.15
			c-0.066,0-0.133,0.017-0.2,0.05c-0.4-0.067-0.767-0.15-1.1-0.25c-0.633-0.1-1.317-0.133-2.05-0.1c-0.6,0.066-1.25,0.083-1.95,0.05
			c-0.667,0.033-1.217,0.217-1.65,0.55c-0.167,0.133-0.333,0.216-0.5,0.25c-1.767,0.233-3.434,0.533-5,0.9c-0.167,0-0.317,0-0.45,0
			c-0.3-0.167-0.633-0.25-1-0.25c-0.633,0.167-1.2,0.017-1.7-0.45c-0.167-0.167-0.367-0.283-0.6-0.35
			c-1.333-0.633-2.65-0.983-3.95-1.05c-0.233-0.1-0.4-0.15-0.5-0.15c-0.933-0.167-1.917-0.15-2.95,0.05
			c-0.5,0.133-0.8,0.017-0.9-0.35c0-0.133-0.05-0.283-0.15-0.45c-0.1-0.167-0.217-0.35-0.35-0.55c-0.1-0.133-0.233-0.216-0.4-0.25
			c-0.667-0.333-1.367-0.7-2.1-1.1c-0.4-0.267-0.566-0.817-0.5-1.65c0-0.2-0.05-0.35-0.15-0.45c-0.133-0.133-0.3-0.25-0.5-0.35
			c-0.733-0.3-1.467-0.417-2.2-0.35c-0.833,0-1.65,0.067-2.45,0.2c0.1,0.033,0.183,0.1,0.25,0.2c0.033,0.167,0.066,0.317,0.1,0.45
			c0.066,0.167,0.133,0.3,0.2,0.4c0.4,0.1,0.783,0.35,1.15,0.75c0.133,0.167,0.25,0.317,0.35,0.45c0.167,0.2,0.35,0.433,0.55,0.7
			c-0.233-0.1-0.45-0.167-0.65-0.2c-0.233-0.133-0.466-0.184-0.7-0.15c-0.167-0.067-0.35-0.083-0.55-0.05
			c-0.566-0.066-0.983-0.217-1.25-0.45c-0.2-0.133-0.316-0.3-0.35-0.5c-0.034-0.367-0.067-0.717-0.1-1.05
			c-0.033-0.1-0.083-0.15-0.15-0.15c-0.333,0-0.667-0.017-1-0.05c-0.167-0.034-0.333-0.067-0.5-0.1c-0.567-0.167-1.2-0.184-1.9-0.05
			c-0.4,0.034-0.783,0.067-1.15,0.1c-1.367-0.133-2.75-0.05-4.15,0.25c0.067,0,0.117,0,0.15,0c0.3,0.067,0.583,0.184,0.85,0.35
			c0.4,0.167,0.767,0.333,1.1,0.5c0.566,0.367,1.1,0.6,1.6,0.7c0.433,0.1,0.9,0.367,1.4,0.8c0.1,0.067,0.183,0.117,0.25,0.15
			c-0.233,0.067-0.467,0.117-0.7,0.15c-0.267,0.067-0.517,0.133-0.75,0.2c-1.3,0.2-2.583,0.4-3.85,0.6
			c-1.9,0.267-3.733,0.15-5.5-0.35c-0.333-0.1-0.65-0.167-0.95-0.2c-1.233-0.167-2.467-0.167-3.7,0c-0.066,0-0.133,0.017-0.2,0.05
			c-0.267-0.067-0.517-0.167-0.75-0.3c-0.167-0.1-0.317-0.15-0.45-0.15c-1.167-0.066-2.35-0.1-3.55-0.1c-0.967,0-1.867,0.2-2.7,0.6
			c-0.1,0.033-0.2,0.067-0.3,0.1c-1.467,0.433-2.95,0.45-4.45,0.05c-0.3-0.066-0.567-0.1-0.8-0.1c-0.767-0.1-1.517-0.267-2.25-0.5
			c-0.7-0.2-1.45-0.367-2.25-0.5c-1.1-0.2-2.167-0.434-3.2-0.7c-0.1-0.033-0.2-0.05-0.3-0.05c-0.567-0.034-1.15-0.067-1.75-0.1
			c-0.2-0.033-0.317,0-0.35,0.1c-0.233,0.367-0.45,0.633-0.65,0.8c-0.067,0.1-0.167,0.167-0.3,0.2
			c-0.467,0.066-0.767,0.283-0.9,0.65c0.633,0.633,1.617,0.95,2.95,0.95c0.8,0,1.55,0.034,2.25,0.1c0.267,0.033,0.5,0.067,0.7,0.1
			c0.3,0.067,0.567,0.1,0.8,0.1c1,0.1,2,0.267,3,0.5c0.367,0.066,0.7,0.117,1,0.15c0.4,0,0.8,0.033,1.2,0.1
			c0.3,0.033,0.583,0.066,0.85,0.1c0.5,0.033,0.983,0.1,1.45,0.2c2.966,0.533,5.783,1.417,8.45,2.65c0.267,0.133,0.567,0.2,0.9,0.2
			c1.2,0.067,2.434,0.1,3.7,0.1c0.267,0,0.5,0.033,0.7,0.1c0.1,0.033,0.2,0.05,0.3,0.05c1.5,0,2.983,0.167,4.45,0.5
			c0.1,0,0.216,0.017,0.35,0.05c0.333,0.2,0.733,0.4,1.2,0.6c0.167,0.1,0.333,0.217,0.5,0.35c0.333,0.167,0.633,0.3,0.9,0.4
			c0.733,0.367,1.45,0.733,2.15,1.1c0.633,0.367,1.25,0.75,1.85,1.15c0.9,0.6,1.667,1.317,2.3,2.15
			c0.133,0.167,0.25,0.317,0.35,0.45c0.2,0.2,0.4,0.417,0.6,0.65c0.233,0.333,0.6,0.633,1.1,0.9c1.333,0.733,2.567,1.684,3.7,2.85
			c0.1,0.133,0.167,0.283,0.2,0.45c0.13,0.577,0.289,1.143,0.475,1.7c0.055,0.049,0.113,0.099,0.175,0.15
			c1.667,1.367,2.9,2.55,3.7,3.55c0.167,0.2,1,1.283,2.5,3.25c0.867,1.167,1.7,2.167,2.5,3s2.15,1.683,4.05,2.55
			c0.679,0.313,1.337,0.654,1.975,1.025c0.14,0.25,0.281,0.509,0.425,0.775c3.03,5.537,4.63,9.646,4.8,12.325
			c0.175,2.674-0.142,4.999-0.95,6.975c-0.811,1.976-1.811,2.534-3,1.675c-0.495,0.25-1.011,0.833-1.55,1.75
			c-0.305,3.094-0.405,5.519-0.3,7.275c0.167,2.767-0.483,4.65-1.95,5.65c-1.7,1.133-3.667,6-5.9,14.6
			c-0.6,2.167-1.033,4.35-1.3,6.55c-0.433,3.167-0.667,6.434-0.7,9.8c-3,1.667-6.067,4.117-9.2,7.35c-2.967,3.1-6.95,7.7-11.95,13.8
			c-0.8,1.033-1.667,2.1-2.6,3.2l2.75-2.85l5.5-5.5c1.5-2.133,3.617-4.45,6.35-6.95c3.5-3.233,6.55-5.7,9.15-7.4
			c0.1,5.167,0.5,9.333,1.2,12.5c0.5,2.467,1.083,5.233,1.75,8.3c0,0.233,0.25,1.25,0.75,3.05l-0.1-1.05
			c-0.4-4.2-0.583-6.433-0.55-6.7c0-0.034-0.017-0.067-0.05-0.1c0-0.033,0-0.1,0-0.2c-0.267-1.967-0.467-3.967-0.6-6
			c4.433,4.934,7.417,10.233,8.95,15.9c1,4.2,1.917,8.15,2.75,11.85c-0.667,0.533-1.35,1.217-2.05,2.05
			c-1.267,1.533-2.217,2.633-2.85,3.3c-0.767,0.833-1.833,2.45-3.2,4.85c-0.3,0.566-0.55,1.083-0.75,1.55
			c0.167,0.333,0.267,0.517,0.3,0.55c0.1,0.333,0.083,0.716-0.05,1.15c1.267-2.5,3.3-4.934,6.1-7.3c1.2-1.066,2.3-1.95,3.3-2.65
			c2.2,9.934,3.6,17.917,4.2,23.95c0.033-0.033,0.083-0.133,0.15-0.3c0.033,0,0.05-0.017,0.05-0.05c-0.5-5.6-1.033-11.083-1.6-16.45
			c-0.333-2.767-0.733-5.517-1.2-8.25c-0.833-4.733-1.9-9.5-3.2-14.3c-1.2-4.4-2.917-8.5-5.15-12.3c-1.5-2.633-3.467-4.667-5.9-6.1
			c-0.067-3.367,0.066-6.767,0.4-10.2c0.133-1.133,0.3-2.267,0.5-3.4c0.4,0.833,0.85,1.733,1.35,2.7c0.767,1.533,1.6,3.216,2.5,5.05
			v0.1c0.3,0.6,0.583,1.183,0.85,1.75c0.267,0.667,1.55,3.9,3.85,9.7c2.267,5.867,2.684,6.684,1.25,2.45
			c-1.367-4.167-2.267-6.967-2.7-8.4c-0.434-1.4-0.817-2.583-1.15-3.55c-0.367-0.966-0.667-1.75-0.9-2.35c0-0.067,0-0.117,0-0.15
			c-0.867-2.4-2.017-5.25-3.45-8.55c-0.4-0.833-0.717-1.583-0.95-2.25c0.133-0.8,0.3-1.617,0.5-2.45
			c1.7-7.367,3.85-12.767,6.45-16.2c0.1,0.833,0.217,1.633,0.35,2.4c0.933,7.433,1.5,11.65,1.7,12.65c0.6,3,1.3,5.95,2.1,8.85
			c1.133,4.9,2.3,9.833,3.5,14.8l0.1,0.2c1.1,4.567,2.383,9.067,3.85,13.5v0.05c0.033,0.167,0.117,0.284,0.25,0.35
			c0.133,0.167,0.283,0.217,0.45,0.15c0.067-0.033,0.133-0.1,0.2-0.2c0.066-0.133,0.066-0.317,0-0.55
			c-0.467-2.167-1.467-6.683-3-13.55c0-0.133-0.017-0.233-0.05-0.3c-0.533-2.167-1.083-4.567-1.65-7.2
			c1.333,2.367,3.417,6.567,6.25,12.6c0.033,0.066,0.05,0.133,0.05,0.2l0.05,0.05c0.3,0.566,0.55,1.083,0.75,1.55
			c0.067,0.133,0.117,0.233,0.15,0.3V-97c0.7,1.567,1.45,3.183,2.25,4.85c-0.833,2.333-1.633,6.417-2.4,12.25
			c-0.733,5.833-1.083,11.5-1.05,17c0,5.533,0.667,11.533,2,18c0.466,0.3,0.85,0.533,1.15,0.7c-0.967-5.833-1.434-12.216-1.4-19.15
			c0.633,0.733,1.45,1.633,2.45,2.7c1.5,1.533,2.567,2.767,3.2,3.7c2.066,2.8,3.267,4.534,3.6,5.2c0.3,0.467,0.9,1.95,1.8,4.45
			c0.167,0.5,0.35,1.033,0.55,1.6c0.167,0.034,0.317,0.1,0.45,0.2c0.167,0.067,0.3,0.117,0.4,0.15c-0.2-0.9-0.4-1.633-0.6-2.2
			c-1.333-3.733-3.167-7.184-5.5-10.35c-2.3-3.1-3.883-5.417-4.75-6.95c-0.9-1.5-1.267-5.05-1.1-10.65
			c0.066-5.633,0.983-9.55,2.75-11.75c1.3,1.967,2.833,4.883,4.6,8.75l-0.8-1.2c0.833,1.367,2.3,3.833,4.4,7.4
			c2.333,4,3,4.983,2,2.95c-0.967-2-2-4.05-3.1-6.15c-1.066-2.1-1.617-3.2-1.65-3.3l-0.05-0.05c-1-2.8-1.5-4.383-1.5-4.75
			c-0.033-0.333-0.55-1.433-1.55-3.3s-1.883-3.667-2.65-5.4c-0.8-1.7-1.316-3.434-1.55-5.2c1.333,0.267,3.183,0.933,5.55,2
			c0.033,0,0.083-0.017,0.15-0.05c0.7,0.4,1.333,0.733,1.9,1c1.633,1.033,2.867,1.966,3.7,2.8h0.05c0.133,0.1,0.267,0.133,0.4,0.1
			c0.133-0.067,0.233-0.15,0.3-0.25c0.067-0.167,0.067-0.317,0-0.45c-0.066-0.167-0.15-0.316-0.25-0.45v-0.05
			c-1.148-0.942-2.748-2.108-4.8-3.5c-0.278-0.176-0.562-0.359-0.85-0.55c-0.133-0.033-0.233-0.067-0.3-0.1c-0.034,0-0.083,0-0.15,0
			c-0.033-0.033-0.066-0.067-0.1-0.1c-1.116-0.686-2.125-1.252-3.025-1.7c-1.706-0.857-3.048-1.307-4.025-1.35
			c-4.333-9.633-7.417-15.733-9.25-18.3c-0.033-0.066-0.066-0.183-0.1-0.35c-0.233-1.167-0.533-2.434-0.9-3.8
			c-1.618-8.833-2.417-15.791-2.4-20.875c0.212-0.361,0.429-0.786,0.65-1.275c0.4-0.967,0.6-1.717,0.6-2.25
			c2.333-1.067,4.883,0.117,7.65,3.55c2.365,2.896,4.031,5.954,5,9.175c0.815,2.711,1.756,4.994,2.825,6.85
			c0.025,0.004,0.101,0.07,0.225,0.2c0.01,0.084,0.019,0.167,0.025,0.25c0.123,0.19,0.248,0.374,0.375,0.55v0.025
			c1.325,2.023,1.467,2.265,0.425,0.725c-0.162-0.24-0.303-0.457-0.425-0.65c-0.142-0.213-0.258-0.396-0.35-0.55
			c0.098,0.727,0.198,1.26,0.3,1.6c-0.033,0.779-0.05,1.712-0.05,2.8c-0.004,1.081,1.029,3.381,3.1,6.9
			c2.074,3.521,4.324,7.538,6.75,12.05c2.429,4.515,3.646,8.107,3.65,10.775c0,0.7-0.117,2.483-0.35,5.35
			c-0.063,0.689-0.122,1.322-0.175,1.9c0.509,2.073,0.984,4.157,1.425,6.25l0.1-0.1c-0.033,0.267-0.017,0.483,0.05,0.65
			c0.067,0.534,0.15,1.15,0.25,1.85v0.05c0.167,1.9,0.184,4.483,0.05,7.75c-0.1,2.3-0.233,4.2-0.4,5.7
			c-0.3,1.667-0.65,2.917-1.05,3.75c-0.167,0.267-0.3,0.483-0.4,0.65c-0.067,0.067-0.133,0.167-0.2,0.3c0,0.167,0.05,0.3,0.15,0.4
			c0.066,0.167,0.183,0.3,0.35,0.4c0.1,0.067,0.217,0.05,0.35-0.05c0.2-0.1,0.383-0.233,0.55-0.4c1.9,2.667,3.533,5.066,4.9,7.2
			l0.8,2.25l-0.15-0.05c-1.833,3.533-3,6.75-3.5,9.65c-0.067,0.333-0.117,0.667-0.15,1c0.2,0.267,0.417,0.533,0.65,0.8
			c1.233-4.5,2.65-7.15,4.25-7.95c1.933,2.233,3.733,5.133,5.4,8.7c0.367,0.034,0.733,0.067,1.1,0.1
			c-1.9-4.133-4.15-8.85-6.75-14.15c-1.533-3.167-3.167-6.483-4.9-9.95c1.1-2.167,2.15-5.533,3.15-10.1
			c2.167,3.633,5.067,7.783,8.7,12.45c1.367,1.8,2.966,3.567,4.8,5.3c0.333,1.3,0.7,3.1,1.1,5.4c0.6,3.3,1.55,6.867,2.85,10.7
			c0.033,0.167,0.083,0.333,0.15,0.5c0.433-0.1,1.066,0.017,1.9,0.35c0.8,0.467,1.5,0.567,2.1,0.3
			c-1.333-0.667-2.383-1.05-3.15-1.15l-1.15-2.85c-0.4-1.133-0.617-2.867-0.65-5.2c-0.033-2.2,0.117-3.85,0.45-4.95
			c2.933,2.4,6.383,4.833,10.35,7.3v0.05c0.133,0.133,0.283,0.167,0.45,0.1c0.1-0.033,0.167-0.15,0.2-0.35
			c0.1-0.1,0.117-0.233,0.05-0.4c-0.033-0.1-0.117-0.233-0.25-0.4h-0.05c-3.333-2.434-6.667-5.533-10-9.3
			c-0.3-0.333-0.617-0.683-0.95-1.05c-1.2-1.367-2.383-2.85-3.55-4.45c1.4-0.3,5.283,0.1,11.65,1.2
			c2.867,0.567,7.283,1.483,13.25,2.75c1.3,1.433,3.083,3.317,5.35,5.65c0.333-0.133,0.683-0.267,1.05-0.4
			c-1.2-1.567-2.083-3.067-2.65-4.5c1.933,0.533,4.017,1.2,6.25,2c0.2-0.1,0.433-0.133,0.7-0.1c0.167,0.033,0.433,0.15,0.8,0.35
			c0.033-0.233,0.083-0.567,0.15-1c-4.566-2.133-9.667-3.983-15.3-5.55c-1.913-0.527-3.88-1.019-5.9-1.475
			c-1.142-0.385-2.092-0.76-2.85-1.125c-0.765-0.363-1.448-0.588-2.05-0.675c-0.596-0.088-2.038-0.213-4.325-0.375
			c-2.292-0.162-5.217-0.662-8.775-1.5c-0.937-1.889-1.961-3.047-3.075-3.475c-0.33-0.398-0.638-0.773-0.925-1.125
			c-0.22-0.272-0.429-0.539-0.625-0.8c-0.599-0.918-1.199-1.86-1.8-2.825c-0.35-0.715-0.525-1.323-0.525-1.825
			c0-0.967-0.367-2.033-1.1-3.2c-0.767-1-1.15-1.55-1.15-1.65c0-0.199-0.033-0.432-0.1-0.7c-0.078-0.303-0.203-0.653-0.375-1.05
			c-0.229-0.976-0.637-2.576-1.225-4.8c-0.833-3.333-1.267-5.7-1.3-7.1c-0.097-3.239-0.472-5.689-1.125-7.35
			c-0.661-1.654-2.536-6.212-5.625-13.675c-2.239-5.428-3.389-9.17-3.45-11.225c0.722,0.946,1.272,1.529,1.65,1.75
			c3.5,4.067,6.966,8.95,10.4,14.65c1.367,2.333,2.783,4.733,4.25,7.2c-0.467,3.066-0.267,6.533,0.6,10.4
			c0.733,3.3,2.133,7.833,4.2,13.6c0,0.033,0,0.066,0,0.1c0.067,0.2,0.184,0.333,0.35,0.4c0.1,0.066,0.25,0.066,0.45,0
			c0.033-0.033,0.083-0.083,0.15-0.15c0.066-0.167,0.083-0.333,0.05-0.5c-0.5-2.267-1.417-6.083-2.75-11.45
			c-0.833-3.767-1.167-6.65-1-8.65c2.333,4.1,4.883,8.767,7.65,14l9.75,17.75c-10.033-22-16.183-35.2-18.45-39.6
			c2.433,0.467,5.083,1.2,7.95,2.2c2.867,1.066,5.983,2.633,9.35,4.7c0,0.367,0.067,0.717,0.2,1.05c0.767,2.1,1.7,4.35,2.8,6.75
			c0.167,0.367,0.333,0.733,0.5,1.1c0.367,0.633,0.717,1.267,1.05,1.9c0.1,0.2,0.216,0.4,0.35,0.6c0.8,1.667,1.517,2.883,2.15,3.65
			c0.1,0.167,0.216,0.267,0.35,0.3c0.1,0.067,0.217,0.017,0.35-0.15c0.1-0.033,0.167-0.133,0.2-0.3c0-0.133-0.033-0.267-0.1-0.4
			c-0.1-0.2-0.45-0.9-1.05-2.1c4.566,2.534,10.283,7.567,17.15,15.1C153.867-65.433,157.6-61.05,160.8-56.95z M85.95-97.1l-0.15-0.1
			l0.3,0.05C86.033-97.15,85.983-97.133,85.95-97.1z M141.05-86.75c-0.025-0.025-0.05-0.05-0.075-0.075
			c0.042,0.044,0.083,0.094,0.125,0.15L141.05-86.75z M58-62.7c-0.267,0.434-0.617,0.883-1.05,1.35c0.1,0.2,0.216,0.35,0.35,0.45
			C57.467-61.5,57.7-62.1,58-62.7z M79.7-97.55c0.033,0,0.066-0.034,0.1-0.1l0.05,0.5c-0.033-0.133-0.083-0.25-0.15-0.35V-97.55z
			 M80.4-97.5c0,0.1,0.017,0.2,0.05,0.3c-0.067-0.1-0.117-0.2-0.15-0.3C80.333-97.5,80.367-97.5,80.4-97.5z"/>
		<path style="fill-rule:evenodd;clip-rule:evenodd;fill:#001F41;" d="M85.35-14.5l0.25-0.25l-0.3-0.2
			C85.3-14.85,85.317-14.7,85.35-14.5z M94.75-21.85l0.15,0.15c0.1,0.067,0.217,0.067,0.35,0c-0.133-0.133-0.35-0.233-0.65-0.3
			C94.667-21.933,94.717-21.883,94.75-21.85z M112.85-28.7c-0.367-0.133-0.967-0.216-1.8-0.25c-0.333-0.066-0.716-0.133-1.15-0.2
			l0.15,0.3c0.4-0.066,0.733-0.1,1-0.1c0.467,0.1,0.917,0.2,1.35,0.3C112.6-28.617,112.75-28.633,112.85-28.7z"/>
		<path style="fill-rule:evenodd;clip-rule:evenodd;fill:#614E37;" d="M86.35-94.9c0.033,0.033,0.083,0.033,0.15,0h-0.3
			C86.267-94.867,86.317-94.867,86.35-94.9z"/>
		<path style="fill-rule:evenodd;clip-rule:evenodd;fill:#00162E;" d="M66.9-46.35c-0.133-0.233-0.417-0.467-0.85-0.7l-0.3,0.25
			l0.05,0.15C66.267-46.517,66.633-46.417,66.9-46.35z M56.1-57.05c-0.133-0.133-0.267-0.284-0.4-0.45l0.05,0.35
			c0.167,0.233,0.333,0.417,0.5,0.55C56.283-56.8,56.233-56.95,56.1-57.05z"/>
	</g>
</symbol>
<symbol  id="blue_x5F_tree_x5F_01" viewBox="0 -109.684 93.175 109.684">
	
		<use xlink:href="#blue_x5F_tree"  width="186.35" height="219.368" y="-219.368" transform="matrix(0.5 0 0 0.5 0 0)" style="overflow:visible;"/>
</symbol>
<g id="Layer_2">
	<g>
		<path style="fill-rule:evenodd;clip-rule:evenodd;fill-opacity:0.451;" d="M81.325,208.8c-0.482,0.033-0.99,0.05-1.525,0.05
			c-0.3,0-0.783-0.1-1.45-0.3c-0.6-0.2-0.917-0.3-0.95-0.3c-0.233,0.167-0.433,0.25-0.6,0.25c-0.033,0-0.367-0.116-1-0.35
			c-0.6-0.267-1.133-0.4-1.6-0.4c-0.7,0-1.15,0.2-1.35,0.6c0.1,0.067,0.683,0.551,1.75,1.45c1.133,0.9,1.933,1.417,2.4,1.55
			c0.341,0.081,0.816,0.172,1.425,0.275c1.417,0.233,3.559,0.525,6.425,0.875c1.3,0.3,3.267,0.866,5.9,1.7
			c0.95,0.268,1.842,0.459,2.675,0.575c0.106,0.016,0.215,0.032,0.325,0.05c1.106,0.145,2.106,0.152,3,0.024V215
			c-1.533,0.333-2.733,0.5-3.6,0.5c-2.1,0-3.967-0.283-5.6-0.85c-0.149-0.055-0.299-0.104-0.45-0.15c-1.543-0.5-3.21-0.75-5-0.75
			L79.2,214c-1,0-1.967-0.2-2.9-0.6c-0.933-0.434-2.333-0.65-4.2-0.65c-0.467,0-1.067,0.2-1.8,0.6c-0.9,0.434-1.75,0.733-2.55,0.9
			c-0.667,0.134-1.95,0.25-3.85,0.35c-1.733,0.101-2.667,0.184-2.8,0.25c-0.367,0.134-0.817,0.45-1.35,0.95
			c-0.333,0.3-0.75,0.7-1.25,1.2c-0.133,0.066-0.383,0.233-0.75,0.5c-0.467,0.3-0.717,0.5-0.75,0.6c-0.533,0.667-0.983,1-1.35,1
			c-1.833-0.399-3.133-0.6-3.9-0.6v-0.25c0.02-0.014,0.036-0.03,0.05-0.05c-0.595-0.006-0.995,0.095-1.2,0.3
			c-0.633,0.566-1.117,0.9-1.45,1c-0.2,0.066-0.783,0.1-1.75,0.1c-0.833,0-1.917-0.066-3.25-0.199
			c-0.711-0.073-1.302-0.131-1.775-0.176c-0.624-0.064-1.049-0.105-1.275-0.125v-0.25c0.1,0,0.15-0.033,0.15-0.1
			c0.164-0.035,0.405-0.068,0.725-0.1c0.591-0.08,1.449-0.164,2.575-0.25c1.215-0.139,1.923-0.446,2.125-0.926
			c-0.334,0.058-0.726,0.133-1.175,0.226c-0.057,0.02-0.116,0.036-0.175,0.05c-0.145,0.032-0.295,0.065-0.45,0.1
			c-0.32,0.076-0.661,0.159-1.025,0.25H42.5v-0.25c0.1-0.233,0.383-0.449,0.85-0.649c0.211-0.093,0.403-0.192,0.575-0.3
			c0.243-0.166,0.435-0.35,0.575-0.551c-0.333-0.066-1.083-0.1-2.25-0.1l-8.25,0.1c-4.856,0.405-7.606,0.622-8.25,0.65
			c-0.054,0-0.104,0-0.15,0c-0.975-0.011-1.542-0.128-1.7-0.35c-0.167-0.267-0.75-0.4-1.75-0.4c-2.066,0-4.833,0.316-8.3,0.95
			c-1.733,0.3-3.383,0.6-4.95,0.899c-0.4,0-0.767-0.083-1.1-0.25c-0.184-0.085-0.334-0.177-0.45-0.274
			c-0.147-0.145-0.231-0.303-0.25-0.476c-0.027-0.127-0.061-0.243-0.1-0.35c-0.063-0.125-0.139-0.233-0.225-0.325
			c-0.057-0.057-0.123-0.107-0.2-0.149c0.858-0.248,1.667-0.474,2.425-0.676c1.933-0.433,3.55-0.633,4.85-0.6
			c1.767,0.033,4.017-0.066,6.75-0.3c1.467-0.134,3.433-0.334,5.9-0.601c1.167-0.1,4.65-0.683,10.45-1.75c7.2-1.3,12-2.133,14.4-2.5
			c0.8-0.133,5.467-0.833,14-2.1c1.333-0.267,2.717-0.767,4.15-1.5c0.5-0.333,0.95-0.634,1.35-0.9c0.8-0.5,1.3-0.75,1.5-0.75
			c1.566,0,3.566,0.467,6,1.4c1.3,0.533,2.933,1.233,4.9,2.1v0.4C82.671,208.64,82.029,208.739,81.325,208.8z"/>
		<path style="fill-rule:evenodd;clip-rule:evenodd;fill-opacity:0.2;" d="M43.925,216.9c-0.136-0.034-0.244-0.051-0.325-0.051
			c-2.833,0.2-5.417,0.367-7.75,0.5c-4.6,0.601-7.45,0.9-8.55,0.9c-0.7,0-1.65-0.1-2.85-0.3c-1.14-0.216-2.124-0.332-2.95-0.351
			v-0.1c-0.02,0.039-0.053,0.064-0.1,0.075c-0.634-0.021-4.567,0.287-11.8,0.925c-0.433,0-1.033-0.217-1.8-0.65
			c0.333,0.167,0.7,0.25,1.1,0.25c1.567-0.3,3.217-0.6,4.95-0.899c3.467-0.634,6.233-0.95,8.3-0.95c1,0,1.583,0.134,1.75,0.4
			c0.159,0.222,0.726,0.339,1.7,0.35c0.046,0,0.096,0,0.15,0c0.644-0.028,3.394-0.245,8.25-0.65l8.25-0.1
			c1.167,0,1.917,0.033,2.25,0.1C44.359,216.551,44.167,216.734,43.925,216.9z M87.1,214.5l-2.95-0.25l-5,0.35
			c-0.933,0-1.883-0.116-2.85-0.35c-1-0.267-1.65-0.4-1.95-0.4c-0.3,0-1.184,0.217-2.65,0.65c-1.6,0.434-2.583,0.684-2.95,0.75
			c-0.6,0.066-1.717,0.1-3.35,0.1c-1.066,0-1.95,0.167-2.65,0.5c-0.567,0.267-2.05,1.117-4.45,2.551
			c-2.367,1.3-4.117,1.949-5.25,1.949c-0.267,0-0.65-0.05-1.15-0.149c-0.5-0.134-0.9-0.2-1.2-0.2c-2.067,0.033-3.517,0.033-4.35,0
			c-2.038-0.153-3.363-0.411-3.975-0.775c0.473,0.045,1.064,0.103,1.775,0.176c1.333,0.133,2.417,0.199,3.25,0.199
			c0.967,0,1.55-0.033,1.75-0.1c0.333-0.1,0.817-0.434,1.45-1c0.205-0.205,0.605-0.306,1.2-0.3c-0.014,0.02-0.03,0.036-0.05,0.05
			v0.25c0.767,0,2.067,0.2,3.9,0.6c0.367,0,0.817-0.333,1.35-1c0.033-0.1,0.283-0.3,0.75-0.6c0.367-0.267,0.617-0.434,0.75-0.5
			c0.5-0.5,0.917-0.9,1.25-1.2c0.533-0.5,0.983-0.816,1.35-0.95c0.133-0.066,1.066-0.149,2.8-0.25c1.9-0.1,3.184-0.216,3.85-0.35
			c0.8-0.167,1.65-0.467,2.55-0.9c0.733-0.399,1.333-0.6,1.8-0.6c1.867,0,3.267,0.217,4.2,0.65c0.934,0.399,1.9,0.6,2.9,0.6
			l2.9-0.25C83.89,213.75,85.557,214,87.1,214.5z M81.325,208.8c-0.38,0.095-0.821,0.161-1.325,0.2c-0.167,0-1.05,0-2.65,0
			c-0.567,0-0.9,0.033-1,0.1c-0.167,0.101-0.25,0.367-0.25,0.801c0,0.551,0.775,1.126,2.325,1.725
			c-0.609-0.104-1.084-0.194-1.425-0.275c-0.467-0.133-1.267-0.649-2.4-1.55c-1.067-0.899-1.65-1.383-1.75-1.45
			c0.2-0.399,0.65-0.6,1.35-0.6c0.466,0,1,0.134,1.6,0.4c0.633,0.233,0.967,0.35,1,0.35c0.167,0,0.367-0.083,0.6-0.25
			c0.033,0,0.35,0.1,0.95,0.3c0.667,0.2,1.15,0.3,1.45,0.3C80.335,208.85,80.843,208.833,81.325,208.8z"/>
	</g>
</g>
<use xlink:href="#blue_x5F_tree_x5F_01"  width="93.175" height="109.684" y="-109.684" transform="matrix(2 0 0 -2 5.6001 0)" style="overflow:visible;"/>
</svg>
