<?xml version="1.0" encoding="iso-8859-1"?>
<!-- Generator: Adobe Illustrator 16.0.0, SVG Export Plug-In . SVG Version: 6.00 Build 0)  -->
<!DOCTYPE svg PUBLIC "-//W3C//DTD SVG 1.1//EN" "http://www.w3.org/Graphics/SVG/1.1/DTD/svg11.dtd">
<svg version="1.1" id="Layer_1" xmlns="http://www.w3.org/2000/svg" xmlns:xlink="http://www.w3.org/1999/xlink" x="0px" y="0px"
	 width="262px" height="308px" viewBox="0 0 262 308" style="enable-background:new 0 0 262 308;" xml:space="preserve">
<symbol  id="bluetree_x5F_cluster_x5F_03" viewBox="0 -152.575 129.55 152.588">
	<g id="Layer_3_1_">
		<path style="fill-rule:evenodd;clip-rule:evenodd;fill:#384D51;" d="M91.15-8.35c-0.066-0.533-0.4-0.867-1-1
			c0.167-0.167,0.367-0.433,0.6-0.8c0.267-0.3,0.4-0.467,0.4-0.5c0-0.2-0.217-0.4-0.65-0.6c-0.067,0.233-0.133,0.383-0.2,0.45
			c-0.133,0.133-0.35,0.167-0.65,0.1c0.067-0.267,0.333-0.566,0.8-0.9c0.4-0.333,0.917-0.633,1.55-0.9
			c0.167-0.067,0.35-0.133,0.55-0.2c0-0.133-0.033-0.267-0.1-0.4c0.033,0,0.066-0.017,0.1-0.05c0.1-0.067,0.217-0.133,0.35-0.2
			c0.033-0.033,0.083-0.066,0.15-0.1c0.2-0.167,0.4-0.367,0.6-0.6c0.267-0.133,0.633-0.4,1.1-0.8v-0.25
			c-0.1-0.033-0.217-0.017-0.35,0.05c-0.1,0.033-0.167,0.066-0.2,0.1c-0.1,0.067-0.167,0.1-0.2,0.1h-0.85
			c0.033-0.133,0.133-0.267,0.3-0.4c0.333-0.3,0.517-0.467,0.55-0.5l-0.2-0.15c-0.066-0.1-0.167-0.133-0.3-0.1
			c0.133-0.133,0.433-0.533,0.9-1.2c0.1-0.1,0.2-0.183,0.3-0.25c0.466-0.4,0.983-0.533,1.55-0.4c-0.2-0.167-0.483-0.3-0.85-0.4v-0.1
			c0.5-0.167,0.867-0.25,1.1-0.25L96.15-19v-0.25h1.35c0.266,0.233,0.399,0.449,0.4,0.65c0-0.034,0.017-0.084,0.05-0.15
			C97.983-18.883,98-19,98-19.1c0-0.433-0.083-0.816-0.25-1.15c0.167,0,0.383,0.05,0.65,0.15c0.067-0.233,0.017-0.383-0.15-0.45
			c-0.2-0.067-0.317-0.217-0.35-0.45c0.133,0,0.317-0.05,0.55-0.15c0.3-0.133,0.45-0.283,0.45-0.45c0-0.066-0.083-0.15-0.25-0.25
			c0-0.167,0.15-0.35,0.45-0.55c0.367-0.233,0.667-0.6,0.9-1.1v-0.1c-0.1,0-0.35,0.1-0.75,0.3c-0.4,0.2-0.683,0.3-0.85,0.3
			c0-0.067,0.15-0.267,0.45-0.6c0.267-0.333,0.4-0.517,0.4-0.55c0-0.133-0.033-0.25-0.1-0.35c-0.033-0.033-0.05-0.067-0.05-0.1
			l0.05-0.05c0.067-0.233,0.133-0.45,0.2-0.65c0.033-0.034,0.1-0.083,0.2-0.15c0.4-0.233,0.8-0.333,1.2-0.3h0.15
			c0-0.033-0.1-0.2-0.3-0.5c-0.2-0.333-0.317-0.583-0.35-0.75h0.25l0.05-0.05c0-0.034,0.034-0.05,0.1-0.05
			c-0.1-0.1-0.183-0.183-0.25-0.25c-0.133-0.1-0.217-0.15-0.25-0.15c0.067-0.3,0.5-0.583,1.3-0.85c0.733-0.267,1.417-0.4,2.05-0.4
			c-0.033-0.133-0.483-0.633-1.35-1.5c0-0.033,0.05-0.067,0.15-0.1c0.2-0.066,0.317-0.117,0.35-0.15
			c-0.066-0.267-0.167-0.433-0.3-0.5c-0.167-0.1-0.317-0.183-0.45-0.25c0.1-0.133,0.283-0.4,0.55-0.8
			c0.233-0.367,0.333-0.717,0.3-1.05c-0.033,0-0.2,0.133-0.5,0.4c-0.233,0.2-0.567,0.317-1,0.35c0.2-0.1,0.633-0.55,1.3-1.35
			c0.167,0.067,0.333,0.133,0.5,0.2c0.067-0.233,0.184-0.55,0.35-0.95c0.4-0.267,0.85-0.316,1.35-0.15l0.1-0.1
			c0.033,0,0.05-0.066,0.05-0.2s-0.167-0.283-0.5-0.45c-0.367-0.2-0.583-0.333-0.65-0.4v-0.1c0.2-0.1,0.55-0.233,1.05-0.4
			c0.467-0.167,0.784-0.283,0.95-0.35c-0.1-0.4-0.55-0.783-1.35-1.15c0.233,0,0.667-0.183,1.3-0.55c0.5-0.267,0.9-0.534,1.2-0.8
			c-0.267,0.033-0.65,0.117-1.15,0.25c0.067-0.133,0.25-0.333,0.55-0.6c0.367-0.267,0.6-0.483,0.7-0.65v-0.75
			c-0.233,0-0.5-0.1-0.8-0.3c-0.3-0.2-0.45-0.317-0.45-0.35c0.267-0.533,0.567-0.95,0.9-1.25c0.233-0.2,0.45-0.3,0.65-0.3
			c-0.333-0.233-0.75-0.6-1.25-1.1c0.333-0.4,0.667-0.684,1-0.85l-0.75-1.25c0.733-0.667,1.233-1.083,1.5-1.25h0.5v1.25
			c0.667-0.467,0.917-0.967,0.75-1.5c0.067,0,0.2-0.033,0.4-0.1c0.2-0.1,0.4-0.15,0.6-0.15c0-0.5-0.083-0.833-0.25-1
			c0.667-0.1,1.133-0.233,1.4-0.4c0.4-0.3,0.6-0.75,0.6-1.35h2.75v0.15c0.001-0.071,0.035-0.204,0.1-0.4c0.1-0.2,0.15-0.4,0.15-0.6
			c0-0.233-0.083-0.483-0.25-0.75c-0.167-0.267-0.25-0.483-0.25-0.65c1-0.333,1.917-0.5,2.75-0.5c0-0.833,0.083-1.5,0.25-2
			c0.534,0.067,0.883,0.05,1.05-0.05c0.267-0.133,0.417-0.45,0.45-0.95c0.233-0.033,0.417-0.017,0.55,0.05
			c0.066-0.167,0.133-0.45,0.2-0.85c0.133-0.567,0.133-0.967,0-1.2c0.833,0,1.333,0.083,1.5,0.25c0.167,0,0.25-0.333,0.25-1
			c0.2-0.067,0.45-0.017,0.75,0.15c0.467,0.233,0.717,0.35,0.75,0.35c0-0.433,0.05-0.85,0.15-1.25c0.066-0.4,0.1-0.817,0.1-1.25
			c0.267,0,0.65-0.033,1.15-0.1c0.5-0.1,0.867-0.15,1.1-0.15h0.15c0.066-0.067,0.1-0.233,0.1-0.5c0-0.233-0.05-0.35-0.15-0.35
			c-0.133,0.067-0.25,0.1-0.35,0.1c0.4-0.367,0.9-0.783,1.5-1.25h-0.75c0.034-0.4,0.367-0.933,1-1.6c0.367-0.333,0.867-0.8,1.5-1.4
			v-0.25c-0.333,0.333-0.783,0.5-1.35,0.5c-0.267,0-0.45-0.033-0.55-0.1l-0.1-0.15v-1.1c0-0.833,0.2-1.483,0.6-1.95
			c0.467-0.5,1.267-0.9,2.4-1.2c-0.267,0-0.566-0.067-0.9-0.2c-0.433-0.2-0.8-0.466-1.1-0.8c0.333-0.5,0.883-0.767,1.65-0.8
			c-0.1-0.3-0.233-0.8-0.4-1.5c-0.2-0.934-0.367-1.5-0.5-1.7h1.5c-0.133-0.3-0.283-0.5-0.45-0.6c-0.067-0.033-0.333-0.167-0.8-0.4
			c0.034-0.333,0.2-0.667,0.5-1c0.333-0.3,0.5-0.667,0.5-1.1c0-0.267-0.083-0.55-0.25-0.85c-0.167-0.3-0.25-0.65-0.25-1.05
			c-0.466,0.233-0.767,0.483-0.9,0.75c-0.167,0.467-0.367,0.8-0.6,1h-0.5c0-0.267,0.05-0.65,0.15-1.15c0.066-0.533,0.1-0.9,0.1-1.1
			c0-0.7-0.117-1.2-0.35-1.5c-0.267-0.3-0.4-0.717-0.4-1.25c0-0.5,0.167-1.083,0.5-1.75c-0.167,0.167-0.667,0.25-1.5,0.25
			c0-0.333,0.167-0.667,0.5-1c-1.1,0.033-1.633-0.433-1.6-1.4c0-0.567,0.117-1.517,0.35-2.85h-1c-0.033-0.033-0.133-0.717-0.3-2.05
			c-0.133-0.967-0.617-1.284-1.45-0.95c0.2-0.6,0.034-1.4-0.5-2.4c-0.667-1.133-1-2.25-1-3.35c-0.1-0.133-0.3-0.2-0.6-0.2
			c-0.3,0-0.517,0.067-0.65,0.2c-0.333-0.667-0.5-1.283-0.5-1.85c0-0.167,0.017-0.3,0.05-0.4v-0.15c0-0.033,0.1-0.233,0.3-0.6
			c-0.066,0-0.133,0-0.2,0c-0.7,0-1.117-0.017-1.25-0.05c-0.367-0.1-0.833-0.417-1.4-0.95c0.534,0,0.85-0.15,0.95-0.45
			c0.033-0.1,0.05-0.367,0.05-0.8c0-0.767-0.4-1.317-1.2-1.65c-1.133-0.5-1.733-0.783-1.8-0.85c0.034,0.433,0,0.767-0.1,1
			c-0.133,0.333-0.434,0.5-0.9,0.5c-0.267,0-0.65-0.333-1.15-1c-0.467-0.733-0.75-1.15-0.85-1.25c-0.066,0.133-0.233,0.267-0.5,0.4
			c-0.333,0.167-0.583,0.2-0.75,0.1c-0.733-0.1-1.75-0.667-3.05-1.7c-1.4-1.1-2.467-1.783-3.2-2.05l-0.35,0.55
			c-0.133,0.2-0.35,0.35-0.65,0.45c-0.033-0.333-0.367-0.467-1-0.4c-0.733,0.1-1.233,0.15-1.5,0.15c0-0.5-0.167-0.917-0.5-1.25
			c-0.566,0-1-0.083-1.3-0.25s-0.617-0.25-0.95-0.25c-0.533,0.367-0.933,0.617-1.2,0.75c0.066,0.533-0.033,0.85-0.3,0.95
			c0,0.033-0.333,0.05-1,0.05v-0.75c-0.267-0.1-0.65,0-1.15,0.3l-0.85,0.45c-0.2,0-0.367-0.083-0.5-0.25S92-111,91.8-111
			c-0.3,0-0.75,0.167-1.35,0.5c-0.6,0.333-1.15,0.5-1.65,0.5v1.25c-0.133-0.133-0.367-0.25-0.7-0.35c-0.333-0.1-0.65-0.15-0.95-0.15
			c-0.167,0-0.717,0.083-1.65,0.25s-1.583,0.25-1.95,0.25v0.5c0.034,0.067,0.184,0.2,0.45,0.4c0.233,0.133,0.417,0.333,0.55,0.6
			H82.8c-0.133-0.1-0.3-0.167-0.5-0.2c0.667,0.6,1,0.967,1,1.1c0,0.333-0.2,0.633-0.6,0.9c-0.434,0.267-1.067,0.417-1.9,0.45
			c0,0.1,0.034,0.183,0.1,0.25c0.1,0.1,0.15,0.183,0.15,0.25h-1.5c-0.233-0.333-0.4-0.667-0.5-1c0.067-0.067,0.217-0.15,0.45-0.25
			c0.2-0.067,0.3-0.15,0.3-0.25h-0.25c-0.433,0.1-0.783,0.2-1.05,0.3c-0.467,0.167-0.7,0.483-0.7,0.95c0,0.233,0.034,0.5,0.1,0.8
			c0.1,0.267,0.15,0.417,0.15,0.45h-1c0.167,0.004,0.25,0.254,0.25,0.75h-0.5c-0.367-0.267-0.783-0.517-1.25-0.75
			c0.233,0.3,0.417,0.65,0.55,1.05c0.133,0.333,0.2,0.567,0.2,0.7c0,0.4-0.033,0.667-0.1,0.8c-0.7,0.467-1.583,0.733-2.65,0.8
			c-0.167,0.033-0.25-0.15-0.25-0.55c-0.033-1.267-0.767-1.667-2.2-1.2c-0.434,0.167-0.867,0.25-1.3,0.25
			c-0.9,0.066-1.5-0.417-1.8-1.45c-0.033-0.1-0.233-0.217-0.6-0.35c-0.167-0.066-0.316-0.167-0.45-0.3c-0.1-0.1-0.2-0.217-0.3-0.35
			c-0.167-0.3-0.217-0.65-0.15-1.05c0-0.2,0-0.383,0-0.55c0-0.933-0.283-1.566-0.85-1.9c0.033-0.1,0.117-0.183,0.25-0.25
			c0.267-0.167,0.4-0.417,0.4-0.75c0-0.333-0.483-0.75-1.45-1.25c-0.934-0.5-1.367-0.967-1.3-1.4c-0.066,0.2-0.216,0.417-0.45,0.65
			c-0.2,0.233-0.383,0.35-0.55,0.35c-0.367,0-0.883-0.267-1.55-0.8c-0.767-0.6-1.167-0.917-1.2-0.95c0,0.1-0.05,0.183-0.15,0.25
			h-0.1c-0.066-0.567-0.466-1.367-1.2-2.4c-0.533-0.733-0.967-1.267-1.3-1.6c0,0.667-0.083,1.083-0.25,1.25
			c-0.033,0-0.517-0.2-1.45-0.6c-0.5-0.2-0.85-0.35-1.05-0.45c-0.033,0.133-0.083,0.267-0.15,0.4c-0.066,0.2-0.1,0.333-0.1,0.4
			c-1.933-0.567-2.767-1.317-2.5-2.25c0.167-0.167,0.583-0.25,1.25-0.25v-0.5h-2.25c-0.267,0.267-0.6,0.483-1,0.65
			c-0.133,0.067-0.267,0.117-0.4,0.15c0.1-0.1,0.15-0.2,0.15-0.3c-0.667,0.2-1.683-0.067-3.05-0.8c-1.333-0.667-2.067-1.233-2.2-1.7
			c-0.233,0.5-0.417,0.817-0.55,0.95c-0.067,0.033-0.217,0.05-0.45,0.05c-0.233,0-0.383-0.017-0.45-0.05
			c-0.167-0.1-0.35-0.333-0.55-0.7c-0.066,0.1-0.316,0.367-0.75,0.8c-0.4,0.4-0.65,0.633-0.75,0.7c-0.167-0.3-0.3-0.533-0.4-0.7
			c-0.167-0.133-0.283-0.233-0.35-0.3h-1.75c0.034,0.4,0,0.633-0.1,0.7c-0.034,0.033-0.3,0.05-0.8,0.05c-0.4,0-0.767-0.167-1.1-0.5
			c0.034,0.167,0.05,0.283,0.05,0.35c-0.033,0.1-0.184,0.15-0.45,0.15c-0.733,0-1.15-0.167-1.25-0.5c-0.2-0.633-0.4-1.05-0.6-1.25
			c0.167,0,0.25-0.083,0.25-0.25c-0.733,0.1-1.316,0.433-1.75,1c-0.4,0.533-0.483,1.117-0.25,1.75H30.3c0-0.2-0.017-0.317-0.05-0.35
			c-0.033-0.1-0.183-0.15-0.45-0.15c-0.933,0.5-1.433,0.75-1.5,0.75c-0.167,0-0.383-0.067-0.65-0.2c-0.367-0.2-0.733-0.466-1.1-0.8
			c0,0.833-0.083,1.417-0.25,1.75c-1.333-0.333-2.333-0.5-3-0.5c-0.9,0-1.65,0.167-2.25,0.5c-0.633,0.333-1.383,0.5-2.25,0.5
			c0,0.6-0.233,1.067-0.7,1.4c-0.6,0.3-1.033,0.583-1.3,0.85c0-0.333-0.083-0.5-0.25-0.5c-0.4,0.4-0.767,0.867-1.1,1.4
			c-0.434,0.733-0.65,1.35-0.65,1.85c-0.1-0.067-0.267-0.15-0.5-0.25c-0.267-0.067-0.433-0.15-0.5-0.25h-1.5
			c0.367,0.6,0.7,1.35,1,2.25v2c-0.3,0.067-0.617,0.017-0.95-0.15c-0.333-0.133-0.6-0.333-0.8-0.6c0,0.2-0.133,0.633-0.4,1.3
			c-0.231,0.629-0.348,1.029-0.35,1.2c-0.001-0.167-0.084-0.25-0.25-0.25c0-0.133-0.05-0.25-0.15-0.35s-0.217-0.15-0.35-0.15v1.5h-1
			c0,0.167,0.083,0.45,0.25,0.85c0.167,0.4,0.25,0.7,0.25,0.9c-0.066,0.133-0.117,0.267-0.15,0.4c-0.033,0.067-0.066,0.15-0.1,0.25
			c-0.2,0.133-0.483,0.267-0.85,0.4c-0.233,0.067-0.434,0.133-0.6,0.2h0.2c-0.2,0.167-0.466,0.317-0.8,0.45
			c-0.467,0.2-0.867,0.3-1.2,0.3c0.233,0.4,0.35,0.617,0.35,0.65c0.067,0.033,0.2,0.067,0.4,0.1v0.5c-0.6,0.033-1.033,0.2-1.3,0.5
			C5.233-98.883,5-98.633,4.8-98.5v1.25c0.167,0,0.25,0.083,0.25,0.25c0.267-0.5,0.5-0.8,0.7-0.9c0.167-0.067,0.6-0.184,1.3-0.35
			c-0.033,0.3-0.2,0.517-0.5,0.65c-0.367,0.133-0.617,0.25-0.75,0.35c0.4,0.167,0.633,0.283,0.7,0.35
			c0.033,0.066,0.05,0.283,0.05,0.65c0,0.267-0.45,0.767-1.35,1.5c-1.3,1-2.034,1.583-2.2,1.75c0.333,0,0.6,0.083,0.8,0.25
			c0,0.145-0.1,0.228-0.3,0.25l0.05,0.15c0.034,0.067,0.117,0.1,0.25,0.1c0,0.6-0.05,0.983-0.15,1.15
			c-0.1,0.067-0.15,0.15-0.15,0.25c0,0.167-0.117,0.5-0.35,1c-0.267,0.5-0.4,0.783-0.4,0.85c0,0.633-0.667,0.883-2,0.75
			c0.2,0.267,0.467,0.467,0.8,0.6c0.333,0.167,0.65,0.217,0.95,0.15c-0.2,0.4-0.533,0.833-1,1.3c-0.6,0.6-1.1,1.083-1.5,1.45v0.5
			h1.5c-0.033,0.133-0.283,0.45-0.75,0.95L0-82.5v1.5h0.15c0.067-0.067,0.1-0.15,0.1-0.25h0.5c0,0.267,0.083,0.7,0.25,1.3
			c0.167,0.6,0.25,1,0.25,1.2c0,0.4-0.017,0.667-0.05,0.8c-0.133,0.3-0.45,0.45-0.95,0.45c0.167,0.267,0.333,0.583,0.5,0.95
			c0.167,0.233,0.5,0.25,1,0.05c0,0.167-0.033,0.383-0.1,0.65c-0.1,0.233-0.15,0.434-0.15,0.6h0.75c0,0.667,0.167,1.25,0.5,1.75h1.3
			v-0.75h0.1c0.1-0.067,0.15-0.15,0.15-0.25h0.5c0,0.267,0.034,0.667,0.1,1.2c0.1,0.5,0.15,0.85,0.15,1.05
			c0,0.433-0.183,0.783-0.55,1.05C4.1-70.9,3.6-70.833,3-71c0,0.933,0.267,1.567,0.8,1.9c0.5,0.367,0.75,0.867,0.75,1.5
			c0,0.733-0.017,1.184-0.05,1.35C4.433-65.617,4.283-65.2,4.05-65c0.067,0,0.184-0.033,0.35-0.1c0.167-0.1,0.3-0.15,0.4-0.15
			c0.1,0.3,0.133,0.867,0.1,1.7C4.833-62.717,4.8-62.2,4.8-62s0.083,0.617,0.25,1.25C5.217-60.117,5.3-59.7,5.3-59.5
			c0,0.233-0.05,0.5-0.15,0.8c-0.066,0.333-0.1,0.567-0.1,0.7H3.8c0.233,0.133,0.934,0.567,2.1,1.3C6.633-56.233,7.217-56,7.65-56
			c0.434,0,0.817-0.167,1.15-0.5c-0.2,0.4-0.133,0.75,0.2,1.05c0.167,0.167,0.433,0.317,0.8,0.45c0.034,0.733-0.033,1.3-0.2,1.7
			c-0.267,0.767-0.867,1.117-1.8,1.05c0.367,0.233,0.883,0.383,1.55,0.45c0.633,0.033,1.117-0.034,1.45-0.2
			c0.067,0.6,0.383,1.25,0.95,1.95c0.733,0.933,1.5,1.283,2.3,1.05c0-0.167-0.05-0.417-0.15-0.75c-0.066-0.333-0.1-0.583-0.1-0.75
			c0.133,0,0.25,0.067,0.35,0.2s0.15,0.316,0.15,0.55c0.5,0,1.083-0.167,1.75-0.5c0.333,0.333,0.5,0.717,0.5,1.15
			c0,0.434-0.017,0.684-0.05,0.75c-0.233,0.133-0.55,0.333-0.95,0.6l1.1,0.1c0.467,0.033,0.85,0,1.15-0.1c0,0.5,0.083,0.833,0.25,1
			h0.1c0.1-0.067,0.15-0.15,0.15-0.25c0.9,0.6,1.7,0.983,2.4,1.15c0.267,0.067,0.633,0.1,1.1,0.1c0.4,0,0.867,0.117,1.4,0.35
			c-0.1-0.2-0.15-0.483-0.15-0.85h2.75l0.15,0.15c0.133,0.067,0.25,0.1,0.35,0.1c0.067,0.267,0.034,0.533-0.1,0.8
			c-0.167,0.3-0.383,0.45-0.65,0.45v0.25c0.267,0,0.617-0.083,1.05-0.25c0.433-0.167,0.75-0.25,0.95-0.25c0.2,0,0.4,0.083,0.6,0.25
			c0.233,0.167,0.45,0.25,0.65,0.25c0.5,0,0.75-0.167,0.75-0.5c0.1,0.1,0.35,0.3,0.75,0.6c0.434,0.267,0.684,0.4,0.75,0.4
			c0.2,0,0.4-0.083,0.6-0.25c0.233-0.167,0.45-0.25,0.65-0.25c0.267,0,0.467,0.167,0.6,0.5s0.35,0.5,0.65,0.5
			c0.2,0,0.483-0.083,0.85-0.25c0.4-0.167,0.7-0.25,0.9-0.25c0.233,0,0.383,0.133,0.45,0.4c0.1,0.233,0.367,0.35,0.8,0.35
			c-0.066,0.333-0.233,0.55-0.5,0.65c-0.367,0.133-0.7,0.25-1,0.35c0.2,0,0.75,0.067,1.65,0.2c0.733-0.034,1.1-0.367,1.1-1
			c0.034,0.4,0.133,0.85,0.3,1.35c0.233,0.633,0.383,1.034,0.45,1.2h0.75c-0.333-0.333-0.5-0.833-0.5-1.5
			c0.333,0,0.5-0.083,0.5-0.25c0.333,0.667,0.5,1.333,0.5,2c0,0.433-0.017,0.7-0.05,0.8c-0.1,0.3-0.333,0.45-0.7,0.45v0.5
			c1.333,0,2.25-0.083,2.75-0.25v1.25c0.333-0.333,0.75-0.5,1.25-0.5c0.133,0.133,0.2,0.217,0.2,0.25c0.033,0.033,0.05,0.2,0.05,0.5
			c0,0.267-0.05,0.45-0.15,0.55c-0.167,0.067-0.283,0.133-0.35,0.2h1.5c-0.133,0.567-0.5,1.05-1.1,1.45
			c-0.6,0.433-1.233,0.617-1.9,0.55c0.233,0.1,0.767,0.367,1.6,0.8c0.8,0.333,1.35,0.317,1.65-0.05c0.167,0,0.25,0.25,0.25,0.75
			c0.167,0,0.417-0.167,0.75-0.5c0.034,0.067,0.233,0.367,0.6,0.9c0.267,0.4,0.483,0.6,0.65,0.6c0.267,0,0.417-0.05,0.45-0.15
			c0.033,0.6,0.417,0.95,1.15,1.05c0.033,0,0.067,0,0.1,0c0.133,0.133,0.2,0.217,0.2,0.25c0.033,0.033,0.05,0.217,0.05,0.55
			c0,0.367,0,0.6,0,0.7c-0.067,0.267-0.2,0.483-0.4,0.65c0.066-0.033,0.217-0.117,0.45-0.25c0.3-0.167,0.5-0.267,0.6-0.3
			c-0.066,0.233,0.033,0.4,0.3,0.5c0.2,0.067,0.383,0.033,0.55-0.1c0,0.4,0.05,0.684,0.15,0.85c0.133-0.1,0.233-0.167,0.3-0.2
			l0.05-0.15c0.033,0,0.1,0.033,0.2,0.1c0.066,0.033,0.083,0.117,0.05,0.25h0.25c-0.067-0.233-0.033-0.383,0.1-0.45
			c0.1-0.033,0.283-0.083,0.55-0.15c0.033,0.133,0.267,0.383,0.7,0.75c0.333,0.3,0.467,0.583,0.4,0.85c-0.1,0-0.45,0.1-1.05,0.3
			c-0.567,0.167-0.883,0.233-0.95,0.2c0.133,0.167,0.317,0.35,0.55,0.55c0.3,0.267,0.534,0.417,0.7,0.45
			c-0.167,0.5-0.317,0.933-0.45,1.3c-0.267,0.633-0.533,1.034-0.8,1.2V-23c0.167,0,0.417-0.033,0.75-0.1
			c0.067,0.133,0.133,0.25,0.2,0.35C51.983-22.717,52-22.667,52-22.6c0,0.1-0.2,0.517-0.6,1.25c-0.433,0.767-0.65,1.417-0.65,1.95
			c0,0.433,0.083,0.783,0.25,1.05c-0.067-0.2-0.017-0.433,0.15-0.7c0.267-0.434,0.434-0.75,0.5-0.95h0.1v0.9
			c-0.167,0.333-0.25,0.583-0.25,0.75L52-17.5c0.1,0.167,0.183,0.333,0.25,0.5c0,0.933,0.017,1.85,0.05,2.75
			c0,0.067-0.017,0.117-0.05,0.15c-0.167,0.4-0.367,0.6-0.6,0.6c-0.133,0-0.2-0.017-0.2-0.05c0-0.034,0.017-0.05,0.05-0.05v-0.15
			c-0.2,0.5,0.05,0.783,0.75,0.85c0.033,0,0.067,0,0.1,0c0.633,0.066,0.85,0.333,0.65,0.8c0.067,0,0.133-0.05,0.2-0.15
			c0.1-0.067,0.167-0.1,0.2-0.1c0.033,0.267,0.133,0.55,0.3,0.85c0.233,0.467,0.55,0.717,0.95,0.75v0.05
			c0.333,0.7,0.5,1.217,0.5,1.55c0,0.333-0.017,0.517-0.05,0.55c-0.033,0.1-0.184,0.217-0.45,0.35c0.167,0.1,0.417,0.067,0.75-0.1
			c0.167-0.066,0.367-0.2,0.6-0.4c0.067,0.067,0.183,0.283,0.35,0.65c0.167,0.3,0.433,0.583,0.8,0.85
			c0.043,0.495,0.276,1.045,0.7,1.65c0.533,0.833,1.133,1.333,1.8,1.5c-0.2-0.2-0.4-0.483-0.6-0.85
			c-0.233-0.433-0.367-0.867-0.4-1.3c0.267,0.533,0.6,1,1,1.4h0.25V-5.5c0.033,0.1,0.45,0.35,1.25,0.75
			c0.567,0.367,0.817,0.8,0.75,1.3c-0.066-0.033-0.117-0.05-0.15-0.05v0.4c0.067-0.133,0.117-0.25,0.15-0.35
			c0.333,0.1,0.667,0.3,1,0.6c0.167,0,0.25-0.133,0.25-0.4c0.033,0.1,0.15,0.233,0.35,0.4c0.2,0.167,0.333,0.25,0.4,0.25
			C63.967-2.6,64-2.733,64-3c0.033,0.067,1.2,0.45,3.5,1.15c-0.3-0.233-0.517-0.433-0.65-0.6c0.066,0.067,0.15,0.133,0.25,0.2
			c0.4,0.233,0.75,0.317,1.05,0.25l-0.4-0.5c0.9,0,1.783,0.25,2.65,0.75c-0.267,0.5-0.517,0.883-0.75,1.15
			c0.733,0.233,1.15,0.35,1.25,0.35H72c0-0.133-0.017-0.233-0.05-0.3c0.133,0.066,0.316,0.133,0.55,0.2h0.75l-0.5-0.4
			c0.133,0,0.45,0.1,0.95,0.3c0.466,0.167,1.066,0.233,1.8,0.2c0-0.064-0.033-0.098-0.1-0.1h0.35c0,0.1,0.483,0.133,1.45,0.1
			c0.966,0,1.45,0.05,1.45,0.15H78.3c0.07,0.002,0.153,0.036,0.25,0.1c0.067,0.033,0.1,0,0.1-0.1h0.25
			c-1.4-0.367-2.45-0.667-3.15-0.9v-0.25c0.333,0,0.733-0.067,1.2-0.2c0.433-0.1,0.883-0.15,1.35-0.15c0.2,0,0.617,0.133,1.25,0.4
			C80.217-0.9,80.7-0.75,81-0.75c-0.167-0.267-0.367-0.483-0.6-0.65c-0.2-0.167-0.533-0.367-1-0.6c0.133,0,0.483-0.017,1.05-0.05
			c0.566,0.033,0.966,0.133,1.2,0.3c0.133-0.133,0.583-0.3,1.35-0.5c0.667-0.133,1-0.317,1-0.55c0-0.2-0.033-0.434-0.1-0.7
			c-0.066,0-0.117,0.033-0.15,0.1l-0.1,0.15H83.4c0-0.067,0.033-0.183,0.1-0.35c-0.26-0.098-0.46-0.147-0.6-0.15
			c0.277-0.002,0.843-0.103,1.7-0.3c0.933-0.2,1.417-0.3,1.45-0.3c0.167,0,0.317-0.167,0.45-0.5V-5.5c-0.1,0-0.283,0.05-0.55,0.15
			c-0.258,0.064-0.45,0.098-0.575,0.1c0.231-0.008,0.756-0.242,1.575-0.7C87.817-6.383,88.3-6.6,88.4-6.6h-0.15
			c0-0.267,0.05-0.65,0.15-1.15c0.333,0.2,0.667,0.5,1,0.9h0.25V-7.6c-0.1,0-0.233-0.083-0.4-0.25h0.9
			c0.033,0.067,0.4,0.317,1.1,0.75C91.15-7.333,91.117-7.75,91.15-8.35z M49.15-116.9c-0.1,0.1-0.217,0.15-0.35,0.15
			c0.034-0.033,0.15-0.1,0.35-0.2V-116.9z"/>
		<g>
			<path style="fill-rule:evenodd;clip-rule:evenodd;fill:#26211A;" d="M85.05-46.125c0-0.058,0-0.116,0-0.175
				c-0.133-2.633-0.183-4.667-0.15-6.1c-0.767-2.3-1.6-4.6-2.5-6.9c-0.867-2.267-1.583-3.833-2.15-4.7c-0.567-0.9-1.1-1.9-1.6-3
				c-0.433-0.3-0.933-0.833-1.5-1.6L77-72.05c0-0.034,0-0.1,0-0.2c0-0.2,0.033-0.45,0.1-0.75v-0.1c0.3-3.167,0.583-5.367,0.85-6.6
				c0.133,1.233,0.267,2.383,0.4,3.45c0,0.033,0,0.067,0,0.1c0.233,1.667,0.417,3.066,0.55,4.2l0.05,0.15c0,0.167,0,0.283,0,0.35
				c0,0.233,0.017,0.417,0.05,0.55c0.067,0.3,0.033,1.316-0.1,3.05l0.35-1.7c0-0.1,0.033-0.284,0.1-0.55
				c0.033-0.2,0.066-0.483,0.1-0.85l0.05-1c-0.033-1.466-0.15-2.917-0.35-4.35v-0.15c-0.2-2.367-0.45-4.7-0.75-7
				c-0.066-1.4-0.217-2.85-0.45-4.35c-0.1-0.434-0.5-2.35-1.2-5.75c-0.033,0-0.05-0.034-0.05-0.1c-0.067-0.2-0.117-0.434-0.15-0.7
				v-0.05c-0.033,0-0.05-0.017-0.05-0.05c2.2,1.667,4,3.617,5.4,5.85c0.2,0.333,0.417,0.65,0.65,0.95c0,0.367-0.033,0.75-0.1,1.15
				c0,0.433-0.017,0.833-0.05,1.2c0.1,0.333,0.083,0.617-0.05,0.85c-0.033,0.833-0.05,1.617-0.05,2.35v0.05
				c0,0.3,0.017,0.566,0.05,0.8c0,0.1,0.066,1.417,0.2,3.95c0-0.2,0.017-0.434,0.05-0.7c0.2-2.4,0.3-3.75,0.3-4.05v-0.05
				c0.133-0.967,0.233-1.833,0.3-2.6c0.033-0.5,0.117-0.983,0.25-1.45c0.2,0.467,0.417,0.95,0.65,1.45
				c0.767,1.434,1.2,2.517,1.3,3.25c-0.033,1.267-0.183,2.2-0.45,2.8c-0.3,0.633-0.517,1.283-0.65,1.95
				c-0.333,1.567-0.45,3.15-0.35,4.75c-0.1,0-0.1,0.05,0,0.15c0,0.466,0.017,0.95,0.05,1.45c0.167,2.3,0.433,4.567,0.8,6.8
				c0.233,1.267,0.5,2.566,0.8,3.9c0.5,1.967,1.017,3.933,1.55,5.9c0.167,0.567,0.317,1.133,0.45,1.7c-0.367-1.7-0.833-4.3-1.4-7.8
				c-0.167-1.066-0.333-2.217-0.5-3.45c0.433,0.033,1.267,0.233,2.5,0.6c0.466,0.133,1.05,0.534,1.75,1.2
				c0.9,0.867,1.983,2.133,3.25,3.8c0.133,0.233,0.283,0.467,0.45,0.7c-0.8-1.733-1.367-2.8-1.7-3.2c-0.434-0.367-1-0.966-1.7-1.8
				c-0.8-0.733-1.417-1.217-1.85-1.45c-0.433-0.233-1.25-0.617-2.45-1.15c-0.167-0.066-0.333-0.133-0.5-0.2
				c-0.267-1.1-0.467-2.717-0.6-4.85c-0.233-2.467-0.083-4.55,0.45-6.25c0.5-1.667,0.85-2.733,1.05-3.2
				c0.2,0.934,0.417,1.867,0.65,2.8l0.55,2.5l-0.4-2.1c0.067,0.233,0.3,1.2,0.7,2.9c0.367,1.933,0.467,2.283,0.3,1.05
				c-0.2-1.2-0.483-2.983-0.85-5.35c-0.267-2.133-0.65-4.034-1.15-5.7c-0.066-0.133-0.117-0.267-0.15-0.4
				c1.067,0.033,2.4,0.25,4,0.65c0.167,0.033,0.483,0.1,0.95,0.2c0.433,0.167,0.933,0.466,1.5,0.9c1.167,0.7,2.65,2.117,4.45,4.25
				c-0.566-0.867-1.017-1.567-1.35-2.1c-0.333-0.467-0.583-0.8-0.75-1c-0.3-0.5-1.233-1.2-2.8-2.1l-1.95-1
				c-1.367-0.367-2.966-1-4.8-1.9c-0.267-0.8-0.517-1.5-0.75-2.1c-0.267-0.566-0.583-1.383-0.95-2.45c-1-1.1-2.05-2.167-3.15-3.2
				c-1.066-1-1.95-1.883-2.65-2.65c-0.7-0.733-1.1-1.25-1.2-1.55c-0.2-0.167-0.333-0.4-0.4-0.7c-1.867-6.7-3.283-11.833-4.25-15.4
				c-0.2-3.133-0.367-7.733-0.5-13.8c-0.066-6.767,0.633-11.883,2.1-15.35c0.133-0.5,0.267-0.95,0.4-1.35c0.3-0.233,0.6-0.5,0.9-0.8
				c0.2-0.2,0.434-0.367,0.7-0.5c0.667-0.333,1.233-0.7,1.7-1.1c0.033-0.033,0.083-0.066,0.15-0.1c0.233-0.067,0.4-0.133,0.5-0.2
				c0.3-0.167,0.566-0.183,0.8-0.05c0.067,0.033,0.15,0.066,0.25,0.1c0.3,0.067,0.617,0.15,0.95,0.25c0.367,0.1,0.75,0.133,1.15,0.1
				c0.167,0,0.333-0.033,0.5-0.1c0.067-0.033,0.117-0.083,0.15-0.15c0.1-0.167,0.267-0.283,0.5-0.35c0.2-0.033,0.4-0.066,0.6-0.1
				c0.6-0.167,1.15-0.35,1.65-0.55c-0.233,0.033-0.383,0-0.45-0.1c-0.034-0.033-0.1-0.05-0.2-0.05
				c-0.467,0.033-0.883-0.033-1.25-0.2c-0.067-0.033-0.15-0.05-0.25-0.05c-0.267-0.067-0.4,0.017-0.4,0.25
				c0,0.033-0.017,0.083-0.05,0.15c-0.167,0.4-0.466,0.467-0.9,0.2c-0.167-0.133-0.333-0.25-0.5-0.35
				c-0.1-0.033-0.183-0.067-0.25-0.1c-0.333-0.066-0.683-0.117-1.05-0.15c-0.133-0.067-0.283-0.117-0.45-0.15
				c-0.233-0.033-0.483-0.067-0.75-0.1c-0.267-0.067-0.45-0.033-0.55,0.1c-0.067,0.033-0.133,0.05-0.2,0.05
				c-0.467,0.1-0.933,0.133-1.4,0.1c-0.233-0.033-0.483-0.083-0.75-0.15c-0.067-0.033-0.15-0.05-0.25-0.05
				c-0.067-0.033-0.15-0.083-0.25-0.15c0.233-0.1,0.483-0.167,0.75-0.2c0.567-0.1,1.117-0.184,1.65-0.25
				c0.4-0.067,0.767-0.067,1.1,0c0.233,0.033,0.45,0.066,0.65,0.1c0.733,0.133,1.483,0.15,2.25,0.05
				c0.067-0.033,0.15-0.05,0.25-0.05c0.533-0.233,1.083-0.517,1.65-0.85c0.1-0.1,0.217-0.15,0.35-0.15
				c0.8-0.167,1.583-0.316,2.35-0.45c0.567-0.1,1.15-0.133,1.75-0.1c-0.033-0.133-0.15-0.2-0.35-0.2c-0.033,0-0.083,0-0.15,0
				c-0.567-0.066-1.15-0.1-1.75-0.1c-0.2,0-0.367,0.05-0.5,0.15c-0.067,0.033-0.15,0.033-0.25,0c-0.2-0.033-0.35-0.017-0.45,0.05
				c-0.1,0-0.2,0-0.3,0c-0.6,0.033-1.217,0.1-1.85,0.2c-0.667,0.066-1.3,0.15-1.9,0.25c-0.333,0.033-0.667,0.05-1,0.05
				c-0.3,0.033-0.583,0-0.85-0.1c-0.4-0.167-0.816-0.3-1.25-0.4c-0.433-0.133-0.9-0.167-1.4-0.1c-0.3,0.034-0.583,0.05-0.85,0.05
				c-0.1,0.033-0.183,0.066-0.25,0.1c-0.5,0.2-1.083,0.433-1.75,0.7c-0.033,0.033-0.083,0.05-0.15,0.05c-0.233,0.1-0.45,0.1-0.65,0
				c-0.667-0.434-1.267-0.883-1.8-1.35c-0.1-0.1-0.233-0.184-0.4-0.25c-0.033-0.033-0.083-0.05-0.15-0.05
				c-0.267-0.033-0.517-0.1-0.75-0.2c-0.067-0.033-0.15-0.05-0.25-0.05c-0.3-0.1-0.5-0.066-0.6,0.1c0.167,0.1,0.383,0.2,0.65,0.3
				c0.067,0.033,0.133,0.066,0.2,0.1c0.333,0.2,0.617,0.567,0.85,1.1l0.05,0.05c-0.167-0.067-0.333-0.117-0.5-0.15
				c-0.233-0.033-0.45-0.083-0.65-0.15c-0.067-0.066-0.15-0.1-0.25-0.1c-0.633,0-1.25,0.034-1.85,0.1c-0.333,0.033-0.633,0-0.9-0.1
				c-0.067-0.033-0.133-0.066-0.2-0.1c-1.066-0.633-2.25-0.95-3.55-0.95c-0.433,0-0.883,0.017-1.35,0.05c-0.1,0-0.183,0-0.25,0
				c-0.167,0-0.25,0.067-0.25,0.2c0.033,0.033,0.067,0.067,0.1,0.1c0.367,0,0.7,0.083,1,0.25c0.133,0.066,0.267,0.117,0.4,0.15
				c0.633,0.1,1.25,0.217,1.85,0.35c0.8,0.167,1.467,0.433,2,0.8c0.067,0.033,0.1,0.067,0.1,0.1c0.033,0.1,0.066,0.183,0.1,0.25
				c0.1,0.2,0.333,0.283,0.7,0.25c0.4-0.067,0.767-0.017,1.1,0.15c0.1,0.033,0.183,0.067,0.25,0.1c0.267,0.067,0.367,2.633,0.3,7.7
				c-0.533,3.3-0.8,6.733-0.8,10.3c0,1.867,0.233,4.983,0.7,9.35c0.5,4.3,0.8,7.717,0.9,10.25c0.1,2.467,0.15,6.183,0.15,11.15
				c0,0.6,0,1.183,0,1.75c-1.167,1.7-2.333,3.05-3.5,4.05c-0.633,0.233-1.133,0.35-1.5,0.35c-2.833,0-5.45,0.283-7.85,0.85
				c-2.267,0.533-4.617,1.4-7.05,2.6c0.933-0.233,2.066-0.6,3.4-1.1c1.867-0.667,2.95-1,3.25-1c0.567,0.067,1.4,0,2.5-0.2
				c1.233-0.2,2.2-0.3,2.9-0.3c0.2,0,0.5,0.05,0.9,0.15c0.133,0.067,0.35,0.2,0.65,0.4c-1.3,0.633-2.317,1.2-3.05,1.7
				c-0.667,0.433-1.65,1.633-2.95,3.6c-2.233,3.367-3.417,5.133-3.55,5.3c-0.767,1.033-1.566,2.483-2.4,4.35
				c-0.533,1.233-0.917,2.117-1.15,2.65c0.467-0.933,1.1-2,1.9-3.2c0.533-0.8,1.25-1.867,2.15-3.2c0.033-0.067,0.083-0.133,0.15-0.2
				c0.467,0.867,0.817,1.55,1.05,2.05c0.433,0.9,0.65,1.783,0.65,2.65c0,0.033,0,0.083,0,0.15c0,0.4-0.167,1.467-0.5,3.2
				c-0.1,0.467-0.183,0.9-0.25,1.3l1-3.65c0.467,0.333,0.867,0.8,1.2,1.4c0.14,0.224,0.306,0.541,0.5,0.95
				c-0.17-0.377-0.337-0.811-0.5-1.3c-0.267-0.767-0.617-1.35-1.05-1.75c-0.033-1.066-0.133-1.95-0.3-2.65
				c-0.2-0.667-0.383-1.617-0.55-2.85c-0.1-0.7,0.217-1.5,0.95-2.4c0.133-0.167,0.417-0.667,0.85-1.5
				c0.433-0.767,0.816-1.25,1.15-1.45c0.333-0.2,0.8-0.6,1.4-1.2c0.567-0.567,1.133-1,1.7-1.3c0.533-0.3,1.033-0.517,1.5-0.65
				c0.3-0.1,0.85-0.283,1.65-0.55c0.467-0.133,1.55-0.867,3.25-2.2c0.533-0.4,1-0.75,1.4-1.05c0,0.533-0.017,1.017-0.05,1.45
				c-0.1,1.033-0.217,1.833-0.35,2.4c-0.233,1.433-0.733,3-1.5,4.7c-0.733,1.767-1.167,3.034-1.3,3.8
				c-0.733,1.9-1.35,4.066-1.85,6.5c-0.1,0.367-0.184,0.816-0.25,1.35v0.05c-0.1,0.433-0.217,0.9-0.35,1.4
				c-1.133,0.533-2.3,1.25-3.5,2.15c-1.267,1-2.7,2.6-4.3,4.8H54.9c0,0.133-0.083,0.25-0.25,0.35c-1.433,2.033-2.6,4.066-3.5,6.1
				c0.9-1.133,2.217-2.75,3.95-4.85c0,0.167,0,0.333,0,0.5v0.05c0.033,0.833,0.033,1.617,0,2.35c0,0.1,0,0.25,0,0.45
				c0,0.067,0,0.15,0,0.25c-0.767,0.733-1.45,1.567-2.05,2.5c-1.867,2.567-3.483,5.883-4.85,9.95c-0.7,2.133-1.267,4.1-1.7,5.9
				c0.367-1.033,0.85-2.316,1.45-3.85c1.233-3.267,2.333-5.8,3.3-7.6c0.467-0.867,0.9-1.567,1.3-2.1c1.267-1.667,2.133-2.9,2.6-3.7
				c-0.267,1.233-0.533,2.767-0.8,4.6c-0.1,0.367-0.15,0.733-0.15,1.1c0.2-0.9,0.383-1.667,0.55-2.3
				c0.233-0.833,0.417-1.383,0.55-1.65c0.133-0.3,0.284-0.833,0.45-1.6l0.55-1.6c0-0.067,0-0.15,0-0.25v-1.15
				c0.067-1.566,0.167-2.767,0.3-3.6c0-0.067,0-0.117,0-0.15c0.867-1.033,1.783-1.933,2.75-2.7c1.033-0.767,1.967-1.45,2.8-2.05
				c0.1-0.066,0.2-0.15,0.3-0.25c-0.034,0.534-0.05,1.233-0.05,2.1c-0.267,2.267-0.633,5.833-1.1,10.7v0.9
				c-0.167,1.3-0.316,2.733-0.45,4.3c0,0.1,0,0.217,0,0.35c-0.1,0.7-0.184,1.434-0.25,2.2l1.55-9.45
				c0.367-2.767,0.767-5.233,1.2-7.4c0.033,0.067,0.066,0.133,0.1,0.2c0.333,0.867,0.617,2.133,0.85,3.8c0,0.167,0.017,0.3,0.05,0.4
				c0.2,2.367,0.367,4.05,0.5,5.05c0,0.1,0.05,0.2,0.15,0.3h0.05c0.1,0,0.167-0.017,0.2-0.05c0.067-0.067,0.1-0.15,0.1-0.25
				c0-2.967-0.1-5.217-0.3-6.75c-0.133-0.733-0.267-1.434-0.4-2.1c-0.233-0.867-0.517-1.633-0.85-2.3c-0.066-0.1-0.1-0.2-0.1-0.3
				c0-0.3,0.05-0.6,0.15-0.9c0.167-1,0.367-1.983,0.6-2.95c0.133-0.733,0.267-1.45,0.4-2.15c0.1-0.433,0.217-0.867,0.35-1.3
				c0.8-3.267,1.85-6.05,3.15-8.35c0,0.133,0,0.217,0,0.25c0,0.367-0.033,0.733-0.1,1.1c-0.2,2.566-0.317,5.133-0.35,7.7
				c0,0.3,0,0.583,0,0.85c-0.066,1.867-0.033,3.783,0.1,5.75c0.033,0.633,0.1,1.283,0.2,1.95c0.1,2.133,0.3,4.267,0.6,6.4
				c0.067,0.3,0.133,0.583,0.2,0.85c0.033,0.667-0.05,1.333-0.25,2c-0.133,0.733-0.267,1.466-0.4,2.2c-0.367,1.333-0.7,2.6-1,3.8
				c-0.067,0.1-0.117,0.233-0.15,0.4c-0.067,0.1-0.167,0.15-0.3,0.15c-0.533,0.367-1.517,0.883-2.95,1.55
				c-0.8,0.467-1.567,0.883-2.3,1.25c-1.667,1-3.217,2-4.65,3c-3.767,2.567-6.717,5.25-8.85,8.05c-0.7,0.833-1.283,1.667-1.75,2.5
				c0.833-0.967,1.6-1.8,2.3-2.5c2.033-2.167,3.917-3.817,5.65-4.95c0,0.8-0.184,1.733-0.55,2.8c-0.367,0.767-0.983,2.133-1.85,4.1
				c-0.267,0.633-0.684,1.667-1.25,3.1c-0.034,0.167-0.067,0.333-0.1,0.5c0.733-1.566,1.566-3.316,2.5-5.25
				c0.9-1.9,1.617-3.483,2.15-4.75c0.267-0.566,0.483-1.05,0.65-1.45c2.833-2.233,5.267-3.85,7.3-4.85
				c1.966-0.967,3.183-1.434,3.65-1.4c-0.5,1.267-0.934,2.283-1.3,3.05c-0.033,0.233-0.333,1.017-0.9,2.35
				c-0.633,1.333-1.233,2.417-1.8,3.25c-0.467,0.667-1.083,1.417-1.85,2.25c-0.067,0.066-0.15,0.15-0.25,0.25
				c-0.133,0.133-0.267,0.283-0.4,0.45c-1.133,1.1-1.667,1.667-1.6,1.7l0.1-0.05c0.267-0.133,0.883-0.684,1.85-1.65
				c1.267-1.2,1.917-1.8,1.95-1.8v-0.05c1.367-1.7,2.533-3.317,3.5-4.85l0.05,0.1c0.033,0.033,0.083,0.083,0.15,0.15
				c0.2,0.3,0.383,0.733,0.55,1.3c0.133,0.467,0.233,0.783,0.3,0.95c0.1,0.4,0.15,1.066,0.15,2l-0.05,1.6
				c-0.066,0.1-0.133,0.167-0.2,0.2c-0.667,0.567-1.55,1.583-2.65,3.05c-1.633,2-2.883,4.183-3.75,6.55
				c1.133-2.067,2.05-3.55,2.75-4.45c1.1-1.466,2.383-2.867,3.85-4.2c0.133,1.1,0.15,2,0.05,2.7c-0.1,0.8-0.25,1.617-0.45,2.45
				c-0.233,0.933-0.4,1.883-0.5,2.85c0.1-0.667,0.184-1,0.25-1c0.067-0.3,0.15-0.633,0.25-1c0.5-1.867,0.85-3.483,1.05-4.85
				c0.066-0.767,0.1-1.433,0.1-2c0-0.167,0-0.333,0-0.5v-0.1c0.1-0.6,0.15-1.15,0.15-1.65c0-0.167,0.017-0.567,0.05-1.2
				c-0.133-0.267-0.3-1.167-0.5-2.7c-0.133-0.767-0.25-1.6-0.35-2.5c0.467-0.934,0.85-1.867,1.15-2.8
				c0.167-0.633,0.35-1.233,0.55-1.8c0.167-0.667,0.35-1.283,0.55-1.85c0.1-0.433,0.233-0.85,0.4-1.25
				c0.167-0.667,0.3-1.35,0.4-2.05c0.5,0.7,0.933,1.333,1.3,1.9c0.533,0.767,1,1.5,1.4,2.2c0.067,0.133,0.133,0.283,0.2,0.45
				c-0.133,1.467-0.3,3.017-0.5,4.65c-0.367,3.5-0.65,6.483-0.85,8.95c-0.167,1.933-0.25,3.55-0.25,4.85
				c0.5-2.167,0.767-4.067,0.8-5.7c0.1-2.267,0.467-4.167,1.1-5.7c0.4,0.033,0.85,0.283,1.35,0.75c0.567,0.5,1.167,1.216,1.8,2.15
				c0.4,0.633,0.75,1.183,1.05,1.65c-0.2-0.433-0.35-0.883-0.45-1.35c-0.267-0.4-0.483-0.783-0.65-1.15
				c-0.667-1.167-1.7-2.333-3.1-3.5l-0.1-1.4c0.233-1.133,0.567-2.434,1-3.9c0.133,0,0.25,0.033,0.35,0.1
				c0.067,0,0.383,0.117,0.95,0.35c0.533,0.267,1.316,0.667,2.35,1.2c0.966,0.533,0.7,0.316-0.8-0.65c-1.5-0.967-2.3-1.45-2.4-1.45
				c-0.067-0.1-0.15-0.183-0.25-0.25c-0.3-0.367-0.667-0.883-1.1-1.55c-0.333-0.667-0.683-1.467-1.05-2.4
				c-0.567-1.433-0.967-2.6-1.2-3.5c-0.133-0.3-0.2-0.583-0.2-0.85c0-0.067-0.017-0.167-0.05-0.3h0.05v-0.05
				c-0.233-1.3-0.4-2.617-0.5-3.95c-0.067-0.767-0.15-1.566-0.25-2.4c0-0.067,0-0.133,0-0.2c-0.167-2.267-0.25-4.566-0.25-6.9
				c0-0.1,0-0.233,0-0.4c0.066-4.567,0.433-9.167,1.1-13.8c0.6-4.467,1-8.133,1.2-11c1.967,2.233,3.55,7.183,4.75,14.85
				c0.1,0.667,0.2,1.267,0.3,1.8c0,0.1,0,0.183,0,0.25c-0.367,1.333-0.783,4.283-1.25,8.85c0,0.167,0,0.283,0,0.35
				c-0.1,0.167-0.183,0.333-0.25,0.5c-0.233,0.3-0.417,0.534-0.55,0.7c-0.9,0.667-1.55,1.117-1.95,1.35
				c-0.433,0.5-0.7,0.816-0.8,0.95c-0.267,0.867-0.45,1.35-0.55,1.45c-0.034,0.2-0.117,0.4-0.25,0.6
				c-0.2,0.433-0.417,0.983-0.65,1.65c0.567-1.133,1.1-2,1.6-2.6c0.2-0.3,0.383-0.6,0.55-0.9c0.133-0.233,0.283-0.433,0.45-0.6
				c0.067-0.133,0.25-0.3,0.55-0.5c0.066,0,0.2-0.05,0.4-0.15c0.467-0.2,0.933-0.25,1.4-0.15c0.033,0.333,0.05,0.617,0.05,0.85
				c0,0.133,0,0.25,0,0.35c0,0.034,0,0.1,0,0.2c0,0.067,0,0.117,0,0.15c-0.033,0.5-0.05,0.983-0.05,1.45c0,0.1,0,0.25,0,0.45
				c0,0.133-0.05,1.117-0.15,2.95c-0.033,0.667-0.167,3.05-0.4,7.15c0.3-3.233,0.583-5.667,0.85-7.3
				c0.034-0.267,0.067-0.533,0.1-0.8c0.1-0.733,0.2-1.2,0.3-1.4c0.933,0.667,2.183,2.85,3.75,6.55c0.167,0.4,0.333,0.783,0.5,1.15
				c-0.1,1.167-0.284,2.233-0.55,3.2c-0.267,0.967-0.55,2.133-0.85,3.5c-0.267,1.333-0.4,2.934-0.4,4.8
				c0,0.566,0.083,1.417,0.25,2.55c0.1,1.267,0.233,2.2,0.4,2.8c0-0.5-0.033-1.367-0.1-2.6c-0.034-0.5-0.05-0.983-0.05-1.45
				c-0.066-0.6-0.066-1.2,0-1.8c0.067-0.934,0.117-1.55,0.15-1.85c0.034-0.3,0.184-0.967,0.45-2c0.233-1.033,0.533-2.35,0.9-3.95
				l0.55-2.65c0.733,2.467,1.533,4.75,2.4,6.85C84.6-50.005,84.833-47.963,85.05-46.125z"/>
		</g>
		<g>
			<path style="fill-rule:evenodd;clip-rule:evenodd;fill:#26211A;" d="M31.3-73.55c-0.2,0.7-0.333,1.417-0.4,2.15
				c0.067-0.5,0.133-0.75,0.2-0.75c0.066-0.233,0.133-0.5,0.2-0.8c0.367-1.433,0.617-2.667,0.75-3.7c0.067-0.567,0.1-1.067,0.1-1.5
				c0-0.133,0-0.267,0-0.4v-0.05c0.067-0.467,0.1-0.9,0.1-1.3c0-0.1,0.017-0.4,0.05-0.9c-0.1-0.2-0.233-0.883-0.4-2.05
				c-0.066-0.566-0.15-1.2-0.25-1.9c0.367-0.733,0.667-1.433,0.9-2.1c0.133-0.5,0.267-0.967,0.4-1.4c0.133-0.5,0.267-0.983,0.4-1.45
				c0.1-0.3,0.2-0.617,0.3-0.95c0.167-0.5,0.283-1.017,0.35-1.55c0.367,0.567,0.683,1.05,0.95,1.45c0.433,0.6,0.8,1.167,1.1,1.7
				c0.067,0.1,0.117,0.216,0.15,0.35c-0.1,1.1-0.233,2.267-0.4,3.5c-0.267,2.7-0.466,4.983-0.6,6.85
				c-0.133,1.5-0.217,2.733-0.25,3.7c0.4-1.633,0.617-3.083,0.65-4.35c0.066-1.733,0.333-3.183,0.8-4.35
				c0.333,0.033,0.684,0.233,1.05,0.6c0.433,0.367,0.9,0.917,1.4,1.65c0.3,0.467,0.55,0.867,0.75,1.2c-0.133-0.3-0.233-0.633-0.3-1
				c-0.2-0.3-0.367-0.6-0.5-0.9c-0.5-0.867-1.3-1.75-2.4-2.65l-0.05-1.05c0.2-0.867,0.45-1.867,0.75-3c0.1,0,0.183,0.033,0.25,0.1
				c0.066,0,0.316,0.083,0.75,0.25c0.4,0.2,1,0.517,1.8,0.95c0.733,0.4,0.533,0.217-0.6-0.55c-1.167-0.733-1.783-1.1-1.85-1.1
				c-0.067-0.066-0.133-0.117-0.2-0.15c-0.233-0.3-0.517-0.7-0.85-1.2c-0.233-0.5-0.5-1.283-0.8-2.35
				c-0.333-1.067-0.483-3.184-0.45-6.35c0.1-1.467,0.267-2.934,0.5-4.4c0.467-3.4,0.767-6.2,0.9-8.4c1.5,1.7,2.717,5.483,3.65,11.35
				c0.066,0.5,0.133,0.95,0.2,1.35c0,0.067-0.033,0.6-0.1,1.6c-0.066,1-0.083,3.267-0.05,6.8l0.35-3.35
				c0.566,1.267,0.95,2.117,1.15,2.55c0.433,1.1,0.65,1.883,0.65,2.35c0,0.2-0.017,0.783-0.05,1.75
				c-0.033,0.367-0.05,0.667-0.05,0.9c0.2-0.767,0.3-1.934,0.3-3.5c0-0.333-0.333-1.5-1-3.5c-0.367-1.033-0.633-1.833-0.8-2.4
				l0.35-2.9c-0.033-0.167-0.066-0.333-0.1-0.5c-0.066-1.066-0.183-2.167-0.35-3.3c-0.067-0.333-0.367-1.8-0.9-4.4
				c-0.033,0-0.05-0.033-0.05-0.1c-0.067-0.167-0.1-0.333-0.1-0.5v-0.05c-0.033,0-0.05-0.017-0.05-0.05
				c1.667,1.267,3.05,2.75,4.15,4.45c0.133,0.267,0.283,0.517,0.45,0.75c0,0.267-0.017,0.55-0.05,0.85c0,0.333-0.017,0.65-0.05,0.95
				c0.066,0.233,0.05,0.434-0.05,0.6c0,0.667,0,1.267,0,1.8v0.05c0,0.233,0,0.433,0,0.6c0,0.066,0.05,1.083,0.15,3.05
				c0-0.167,0.017-0.35,0.05-0.55c0.133-1.833,0.2-2.867,0.2-3.1v-0.05c0.1-0.733,0.183-1.4,0.25-2c0.033-0.367,0.1-0.716,0.2-1.05
				c0.167,0.333,0.333,0.683,0.5,1.05c0.567,1.1,0.9,1.934,1,2.5c-0.033,0.967-0.15,1.684-0.35,2.15c-0.233,0.466-0.4,0.966-0.5,1.5
				c-0.233,1.167-0.333,2.367-0.3,3.6c-0.033,0-0.033,0.05,0,0.15c0,0.333,0.033,0.683,0.1,1.05c0.1,1.767,0.283,3.5,0.55,5.2
				c0.2,0.966,0.417,1.966,0.65,3c0.367,1.466,0.767,2.966,1.2,4.5c0.1,0.433,0.2,0.85,0.3,1.25c-0.267-1.3-0.617-3.267-1.05-5.9
				c-0.133-0.833-0.267-1.716-0.4-2.65c0.333,0.033,0.967,0.184,1.9,0.45c0.367,0.1,0.817,0.4,1.35,0.9
				c0.7,0.667,1.517,1.65,2.45,2.95c0.133,0.133,0.267,0.3,0.4,0.5c-0.633-1.3-1.083-2.117-1.35-2.45
				c-0.3-0.267-0.733-0.717-1.3-1.35c-0.566-0.566-1.017-0.95-1.35-1.15c-0.333-0.167-0.967-0.45-1.9-0.85
				c-0.133-0.066-0.25-0.117-0.35-0.15c-0.2-0.833-0.35-2.067-0.45-3.7c-0.2-1.867-0.1-3.45,0.3-4.75
				c0.4-1.267,0.667-2.083,0.8-2.45c0.167,0.7,0.333,1.417,0.5,2.15l0.45,1.9l-0.3-1.6c0.033,0.167,0.2,0.9,0.5,2.2
				c0.3,1.467,0.367,1.733,0.2,0.8c-0.133-0.933-0.333-2.283-0.6-4.05c-0.233-1.633-0.533-3.083-0.9-4.35
				c-0.034-0.1-0.067-0.217-0.1-0.35c0.8,0.034,1.816,0.217,3.05,0.55c0.1,0,0.333,0.033,0.7,0.1c0.333,0.133,0.717,0.367,1.15,0.7
				c0.9,0.533,2.033,1.617,3.4,3.25c-0.433-0.667-0.783-1.2-1.05-1.6c-0.233-0.367-0.417-0.617-0.55-0.75
				c-0.233-0.4-0.933-0.933-2.1-1.6l-1.55-0.8c-1.033-0.267-2.25-0.75-3.65-1.45c-0.167-0.6-0.35-1.117-0.55-1.55
				c-0.2-0.433-0.45-1.066-0.75-1.9c-0.733-0.833-1.517-1.65-2.35-2.45c-0.833-0.767-1.517-1.433-2.05-2
				c-0.533-0.566-0.833-0.966-0.9-1.2c-0.167-0.133-0.267-0.317-0.3-0.55c-1.434-5.1-2.517-9-3.25-11.7
				c-0.167-2.4-0.3-5.917-0.4-10.55c-0.034-4.933,0.433-9.15,1.4-12.65c0.7-1.433,1.333-2.2,1.9-2.3c0.1-0.033,0.183-0.05,0.25-0.05
				c0.7-0.267,1.45-0.367,2.25-0.3c0.367,0.033,0.717,0.1,1.05,0.2c0.067,0.033,0.133,0.05,0.2,0.05c0.5,0.033,0.967-0.083,1.4-0.35
				c0.867-0.5,1.8-0.75,2.8-0.75c-0.067-0.267-0.25-0.383-0.55-0.35c-0.4,0.067-0.816,0.1-1.25,0.1c-0.1,0-0.183-0.017-0.25-0.05
				c-0.3-0.1-0.683-0.133-1.15-0.1c-0.067,0-0.133,0.017-0.2,0.05c-0.233,0.233-0.533,0.35-0.9,0.35c-0.1,0-0.167,0.017-0.2,0.05
				c-0.133,0.066-0.284,0.083-0.45,0.05c-0.433-0.067-0.883-0.15-1.35-0.25c-0.1-0.033-0.183-0.067-0.25-0.1
				c-0.533-0.1-1.033-0.217-1.5-0.35c-0.267-0.033-0.517-0.033-0.75,0c0.033-0.1,0.067-0.216,0.1-0.35
				c-0.433,0.1-1.017,0.2-1.75,0.3c-0.067,0.033-0.133,0.05-0.2,0.05c-0.2-0.1-0.383-0.15-0.55-0.15c-1.433,0-2.55-0.2-3.35-0.6
				c-0.8-0.367-1.367-0.55-1.7-0.55c-0.3,0-0.534,0.05-0.7,0.15c0.167,0.067,0.833,0.367,2,0.9c0.633,0.367,1.083,0.75,1.35,1.15
				c0,0.2,0,0.433,0,0.7c-0.2,0-0.4,0-0.6,0c-0.067,0-0.133,0.017-0.2,0.05c-0.1,0.033-0.2,0.066-0.3,0.1
				c-0.733,0.067-1.433,0.034-2.1-0.1c-0.1,0-0.183-0.017-0.25-0.05c-0.367-0.2-0.7-0.45-1-0.75c-0.2-0.233-0.45-0.35-0.75-0.35
				c-0.3-0.033-0.6-0.066-0.9-0.1c-0.1,0-0.217,0-0.35,0c-0.333-0.034-0.667-0.034-1,0c-0.967,0.066-1.85-0.034-2.65-0.3
				c-0.067,0-0.133-0.017-0.2-0.05c-0.3-0.133-0.633-0.267-1-0.4c-0.367-0.1-0.75-0.133-1.15-0.1c-0.1,0.033-0.183,0.066-0.25,0.1
				c-0.066,0.033-0.15,0.05-0.25,0.05c-0.066,0-0.15,0-0.25,0c0,0.1,0.017,0.15,0.05,0.15c0.267,0.1,0.533,0.184,0.8,0.25
				c0.633,0.133,1.217,0.267,1.75,0.4c0.1,0,0.183,0.017,0.25,0.05c0.1,0.033,0.167,0.066,0.2,0.1c0.133,0.133,0.367,0.2,0.7,0.2
				c0.067,0,0.133,0.017,0.2,0.05c0.1,0.1,0.283,0.133,0.55,0.1c0.4-0.033,0.767,0,1.1,0.1c0.267,0.067,0.533,0.133,0.8,0.2
				c0.8,0.167,1.5,0.433,2.1,0.8c0.033,0.033,0.067,0.067,0.1,0.1c0.633,0.333,1.183,0.8,1.65,1.4c0.033,0.033,0.05,0.067,0.05,0.1
				c0.033,0.233,0.133,0.35,0.3,0.35c0.267-0.033,0.483,0,0.65,0.1c0.333,0.233,0.65,0.55,0.95,0.95
				c0.066,0.067,0.133,0.133,0.2,0.2c0.067,0.066,0.133,0.483,0.2,1.25c-0.367,2.5-0.55,5.117-0.55,7.85c0,1.4,0.167,3.767,0.5,7.1
				c0.367,3.267,0.6,5.867,0.7,7.8c0.067,1.9,0.1,4.733,0.1,8.5c0,2.367-0.033,4.2-0.1,5.5c-0.1,0.8-0.183,1.4-0.25,1.8
				c-0.1,0.434-0.2,0.867-0.3,1.3c-0.9,0.466-1.9,1.017-3,1.65c-1.1-0.033-1.867-0.133-2.3-0.3c-0.466-0.167-0.816-0.3-1.05-0.4
				s-0.617-0.15-1.15-0.15c-0.233,0-1.217,0.117-2.95,0.35c-1.633,0.233-2.583,0.367-2.85,0.4c0.633-0.033,2.15,0.017,4.55,0.15
				l1.8,0.2l2.5,1.05c-1.5,0.4-2.533,0.7-3.1,0.9c-1.267,1.3-2.316,2.367-3.15,3.2c-1.133,1.167-2.4,2.833-3.8,5
				c-0.4,0.7-0.733,1.267-1,1.7c0.6-0.8,1.45-1.934,2.55-3.4c1.434-1.933,2.733-3.117,3.9-3.55c0.067-0.033,0.133-0.067,0.2-0.1
				c0.1,0,0.15,0.1,0.15,0.3c0,0.867-0.55,1.933-1.65,3.2c-1.067,1.233-1.883,2.233-2.45,3c0.5-0.566,1-1.1,1.5-1.6
				c0.267-0.267,0.633-0.583,1.1-0.95c0.267,0.4,0.4,0.833,0.4,1.3c0,0.533-0.083,1.067-0.25,1.6
				c-0.033,0.133-0.083,0.283-0.15,0.45c0.2-0.4,0.4-0.75,0.6-1.05c0.2-0.233,0.3-0.816,0.3-1.75c0-0.233-0.033-0.517-0.1-0.85
				l2.8-4.9c0.967-0.633,1.6-1.05,1.9-1.25c0.767-0.433,1.75-0.7,2.95-0.8c0.167,0,0.316-0.017,0.45-0.05
				c0.534-0.033,1.083-0.066,1.65-0.1c0-0.034,0.066-0.034,0.2,0c-0.033,0.233-0.066,0.466-0.1,0.7c0,0.1,0,0.2,0,0.3
				c-0.066,0.9-0.117,1.816-0.15,2.75c-0.233,1.833-0.383,2.833-0.45,3c-0.1,0.533-0.2,1.083-0.3,1.65c-0.3,1.033-0.55,2-0.75,2.9
				c-0.066,0.1-0.117,0.217-0.15,0.35c-0.033,0.066-0.1,0.1-0.2,0.1c-0.433,0.267-1.183,0.667-2.25,1.2
				c-0.633,0.333-1.216,0.65-1.75,0.95c-1.3,0.733-2.483,1.483-3.55,2.25c-2.867,1.967-5.117,4.017-6.75,6.15
				c-0.533,0.633-0.983,1.267-1.35,1.9c0.633-0.733,1.217-1.367,1.75-1.9c1.567-1.667,3-2.917,4.3-3.75c0,0.6-0.133,1.3-0.4,2.1
				c-0.267,0.6-0.733,1.633-1.4,3.1c-0.233,0.5-0.55,1.3-0.95,2.4c-0.034,0.1-0.067,0.233-0.1,0.4c0.566-1.2,1.2-2.55,1.9-4.05
				c0.7-1.434,1.25-2.633,1.65-3.6c0.2-0.434,0.367-0.8,0.5-1.1c2.167-1.7,4.017-2.933,5.55-3.7c1.5-0.733,2.433-1.1,2.8-1.1
				c-0.4,0.966-0.733,1.75-1,2.35c-0.033,0.167-0.267,0.767-0.7,1.8c-0.466,1.033-0.917,1.867-1.35,2.5
				c-0.367,0.5-0.833,1.066-1.4,1.7c-0.066,0.034-0.133,0.1-0.2,0.2c-0.1,0.067-0.2,0.167-0.3,0.3c-0.867,0.867-1.267,1.3-1.2,1.3
				h0.05c0.2-0.133,0.667-0.567,1.4-1.3c0.967-0.9,1.467-1.35,1.5-1.35v-0.05c1.034-1.267,1.917-2.483,2.65-3.65l0.05,0.05
				c0.033,0.034,0.067,0.067,0.1,0.1c0.167,0.233,0.316,0.567,0.45,1c0.1,0.333,0.167,0.583,0.2,0.75c0.1,0.267,0.15,0.767,0.15,1.5
				l-0.05,1.2c-0.067,0.1-0.117,0.15-0.15,0.15c-0.534,0.433-1.217,1.217-2.05,2.35c-1.233,1.5-2.183,3.167-2.85,5
				c0.867-1.567,1.567-2.7,2.1-3.4c0.833-1.1,1.817-2.167,2.95-3.2c0.1,0.833,0.117,1.517,0.05,2.05
				C31.55-74.85,31.433-74.217,31.3-73.55z"/>
		</g>
		<g>
			<path style="fill-rule:evenodd;clip-rule:evenodd;fill:#26211A;" d="M96.75-77.35c0.067-0.233,0.133-0.483,0.2-0.75
				c0.333-1.367,0.583-2.533,0.75-3.5c0.033-0.566,0.05-1.05,0.05-1.45c0-0.133,0-0.267,0-0.4v-0.05c0.067-0.433,0.1-0.85,0.1-1.25
				c0-0.1,0.017-0.383,0.05-0.85c-0.1-0.167-0.217-0.816-0.35-1.95c-0.1-0.567-0.183-1.184-0.25-1.85
				c0.333-0.667,0.617-1.333,0.85-2c0.1-0.467,0.217-0.917,0.35-1.35c0.167-0.467,0.3-0.917,0.4-1.35c0.1-0.3,0.2-0.6,0.3-0.9
				c0.133-0.467,0.233-0.967,0.3-1.5c0.367,0.533,0.683,1,0.95,1.4c0.4,0.567,0.75,1.117,1.05,1.65
				c0.033,0.067,0.083,0.167,0.15,0.3c-0.1,1.066-0.233,2.183-0.4,3.35c-0.267,2.566-0.467,4.75-0.6,6.55
				c-0.133,1.433-0.2,2.617-0.2,3.55c0.367-1.566,0.566-2.95,0.6-4.15c0.067-1.667,0.333-3.05,0.8-4.15c0.3,0,0.633,0.183,1,0.55
				c0.4,0.333,0.833,0.85,1.3,1.55c0.3,0.433,0.55,0.816,0.75,1.15c-0.133-0.3-0.233-0.617-0.3-0.95c-0.2-0.3-0.367-0.583-0.5-0.85
				c-0.467-0.833-1.217-1.684-2.25-2.55l-0.1-1c0.2-0.833,0.45-1.783,0.75-2.85c0.1,0,0.183,0.034,0.25,0.1
				c0.067,0,0.3,0.067,0.7,0.2c0.4,0.233,0.983,0.533,1.75,0.9c0.7,0.4,0.5,0.233-0.6-0.5c-1.1-0.7-1.684-1.05-1.75-1.05
				c-0.067-0.067-0.133-0.117-0.2-0.15c-0.233-0.267-0.5-0.65-0.8-1.15c-0.233-0.467-0.5-1.217-0.8-2.25
				c-0.3-1-0.45-3.017-0.45-6.05c0.133-1.4,0.3-2.8,0.5-4.2c0.433-3.267,0.717-5.933,0.85-8c1.466,2.4,2.433,4.983,2.9,7.75
				c-0.633,1.3-1.083,2.383-1.35,3.25v3.85c0.1-2.4,0.317-3.967,0.65-4.7c0.467-1.133,0.733-1.733,0.8-1.8
				c0.267,1.967,0.3,4.033,0.1,6.2c0.633-3.4,0.483-6.983-0.45-10.75l0.3,0.1c1.6,1.2,2.917,2.617,3.95,4.25
				c0.133,0.267,0.283,0.5,0.45,0.7c0,0.267-0.033,0.55-0.1,0.85c0,0.3-0.017,0.583-0.05,0.85c0.1,0.233,0.1,0.433,0,0.6
				c-0.033,0.633-0.05,1.217-0.05,1.75v0.05c0,0.2,0.017,0.383,0.05,0.55c0,0.067,0.05,1.033,0.15,2.9c0-0.133,0.017-0.3,0.05-0.5
				c0.133-1.767,0.2-2.75,0.2-2.95v-0.05c0.067-0.7,0.133-1.35,0.2-1.95c0.033-0.333,0.1-0.667,0.2-1
				c0.133,0.333,0.283,0.667,0.45,1c0.567,1.066,0.883,1.867,0.95,2.4c-0.033,0.933-0.133,1.617-0.3,2.05
				c-0.233,0.467-0.383,0.95-0.45,1.45c-0.267,1.1-0.367,2.233-0.3,3.4c-0.066,0.033-0.066,0.083,0,0.15
				c0,0.333,0.017,0.684,0.05,1.05c0.1,1.667,0.283,3.316,0.55,4.95c0.2,0.934,0.4,1.883,0.6,2.85c0.367,1.434,0.75,2.867,1.15,4.3
				c0.1,0.267,0.184,0.517,0.25,0.75c-0.267-1.167-0.583-2.9-0.95-5.2c-0.133-0.8-0.25-1.65-0.35-2.55c0.3,0.033,0.9,0.183,1.8,0.45
				c0.333,0.1,0.767,0.4,1.3,0.9c0.633,0.633,1.417,1.567,2.35,2.8c0.1,0.133,0.217,0.3,0.35,0.5c-0.6-1.267-1.033-2.05-1.3-2.35
				c-0.3-0.267-0.7-0.7-1.2-1.3c-0.566-0.567-1.017-0.934-1.35-1.1c-0.3-0.167-0.9-0.434-1.8-0.8c-0.1-0.066-0.217-0.117-0.35-0.15
				c-0.167-0.8-0.3-1.983-0.4-3.55c-0.2-1.8-0.1-3.317,0.3-4.55c0.367-1.2,0.617-1.983,0.75-2.35c0.167,0.7,0.333,1.383,0.5,2.05
				l0.4,1.85l-0.3-1.55c0.033,0.167,0.2,0.883,0.5,2.15c0.267,1.4,0.333,1.65,0.2,0.75c-0.133-0.9-0.333-2.2-0.6-3.9
				c-0.2-1.566-0.483-2.95-0.85-4.15c-0.033-0.1-0.066-0.2-0.1-0.3c0.767,0.033,1.75,0.2,2.95,0.5c0.1,0,0.317,0.033,0.65,0.1
				c0.333,0.133,0.7,0.35,1.1,0.65c0.867,0.5,1.95,1.533,3.25,3.1c-0.433-0.633-0.767-1.15-1-1.55c-0.233-0.333-0.4-0.566-0.5-0.7
				c-0.267-0.367-0.95-0.867-2.05-1.5l-1.45-0.75c-1-0.267-2.167-0.733-3.5-1.4c-0.167-0.566-0.35-1.066-0.55-1.5
				c-0.2-0.433-0.434-1.033-0.7-1.8c-0.7-0.8-1.45-1.583-2.25-2.35c-0.8-0.733-1.45-1.367-1.95-1.9s-0.8-0.917-0.9-1.15
				c-0.133-0.133-0.217-0.3-0.25-0.5c-1.367-4.9-2.417-8.65-3.15-11.25c-0.133-2.267-0.25-5.617-0.35-10.05
				c-0.033-4.033,0.167-6.983,0.6-8.85c0.533-2.067,0.833-3.167,0.9-3.3c0.367-0.433,0.733-0.816,1.1-1.15
				c0.067-0.067,0.117-0.15,0.15-0.25c0.167-0.3,0.417-0.517,0.75-0.65c0.067-0.033,0.133-0.067,0.2-0.1
				c0.066-0.067,0.133-0.133,0.2-0.2c0.133-0.167,0.333-0.233,0.6-0.2c0.367,0.033,0.733,0.033,1.1,0
				c0.1-0.033,0.183-0.067,0.25-0.1c0.267-0.133,0.6-0.183,1-0.15c0.2,0.033,0.383,0.017,0.55-0.05
				c0.133-0.033,0.284-0.05,0.45-0.05c0.633,0,1.267,0.017,1.9,0.05c0.067,0,0.15,0.017,0.25,0.05c0.367,0.033,0.7-0.017,1-0.15
				c0.267-0.133,0.567-0.25,0.9-0.35c0.1-0.067,0.217-0.117,0.35-0.15c0.033,0,0.067,0,0.1,0c0.267-0.067,0.55-0.133,0.85-0.2
				c-0.033,0-0.067,0-0.1,0c-0.167-0.033-0.333-0.05-0.5-0.05c-0.733-0.034-1.483-0.05-2.25-0.05c-0.267,0-0.55-0.017-0.85-0.05
				c-0.833-0.133-1.667-0.2-2.5-0.2c-0.033,0-0.066,0-0.1,0c-0.066,0-0.117,0.017-0.15,0.05c-0.5,0.2-1.083,0.267-1.75,0.2
				c-0.5-0.066-0.967-0.017-1.4,0.15c-0.067,0-0.15,0.017-0.25,0.05c-0.3,0.033-0.583,0.066-0.85,0.1c-0.367,0.033-0.7,0.1-1,0.2
				c-0.332,0.1-0.598,0.2-0.8,0.3c0.066-0.036,0.1-0.136,0.1-0.3c-0.034-0.167,0.017-0.267,0.15-0.3c0.1-0.067,0.2-0.117,0.3-0.15
				c0.567-0.233,1.067-0.583,1.5-1.05c0.067-0.066,0.133-0.117,0.2-0.15c0.033-0.033,0.066-0.049,0.1-0.05
				c-0.067,0-0.134-0.017-0.2-0.05c-0.4-0.033-0.767,0.017-1.1,0.15c-0.333,0.133-0.667,0.233-1,0.3c-0.3,0.066-0.6,0.167-0.9,0.3
				c-0.2,0.133-0.483,0.167-0.85,0.1c-0.3-0.033-0.566-0.15-0.8-0.35c-0.167-0.133-0.467-0.133-0.9,0c0,0.233-0.133,0.3-0.4,0.2
				c-0.066-0.033-0.117-0.05-0.15-0.05c-0.367-0.033-0.7-0.1-1-0.2c-0.033-0.033-0.083-0.05-0.15-0.05
				C96.517-151.983,96.267-152,96-152c0.033,0.367,0.217,0.6,0.55,0.7c0.367,0.133,0.567,0.367,0.6,0.7
				c-0.267,0-0.517-0.017-0.75-0.05c-0.033-0.033-0.083-0.05-0.15-0.05c-0.267,0-0.517-0.05-0.75-0.15
				c-0.067-0.066-0.15-0.1-0.25-0.1c-0.433-0.133-0.883-0.183-1.35-0.15c-0.1,0-0.183,0.017-0.25,0.05
				c-0.233,0.133-0.533,0.1-0.9-0.1c-0.033-0.033-0.083-0.05-0.15-0.05c-0.733-0.267-1.35-0.55-1.85-0.85
				c-0.1-0.1-0.217-0.167-0.35-0.2c-0.333-0.067-0.717-0.15-1.15-0.25c-0.067-0.033-0.15-0.05-0.25-0.05
				c-0.333-0.034-0.667-0.034-1,0c-0.067,0-0.15,0-0.25,0c-0.167,0-0.25,0.066-0.25,0.2c0.133,0,0.267,0,0.4,0
				c0.5,0.133,1,0.25,1.5,0.35c0.367,0.067,0.7,0.2,1,0.4c0.3,0.2,0.567,0.434,0.8,0.7c0.3,0.367,0.783,0.633,1.45,0.8
				c0.067,0,0.15,0,0.25,0c0.067,0,0.15,0,0.25,0h0.05c0,0.033,0.017,0.05,0.05,0.05c0.433,0.033,0.767,0.183,1,0.45
				c0.067,0.033,0.117,0.067,0.15,0.1c0.533,0.4,1.067,0.75,1.6,1.05c0.333,0.167,0.633,0.317,0.9,0.45
				c0.267,0.1,0.517,0.267,0.75,0.5c0.067,0.033,0.1,0.083,0.1,0.15c0.1,0.733,0.15,1.483,0.15,2.25c0,0.233,0.017,0.483,0.05,0.75
				c0.033,0.4,0.033,1.434,0,3.1c-0.1,0.567-0.15,1.833-0.15,3.8c0,1.333,0.167,3.6,0.5,6.8c0.333,3.133,0.55,5.617,0.65,7.45
				c0.066,1.8,0.1,4.517,0.1,8.15c0,2.233-0.033,3.983-0.1,5.25c-0.1,0.733-0.184,1.3-0.25,1.7c-0.067,0.4-0.167,0.817-0.3,1.25
				c-0.833,0.434-1.783,0.967-2.85,1.6c-1.033-0.033-1.767-0.133-2.2-0.3c-0.434-0.167-0.767-0.3-1-0.4
				c-0.2-0.1-0.567-0.15-1.1-0.15c-0.2,0-1.133,0.117-2.8,0.35c-1.567,0.2-2.483,0.333-2.75,0.4c0.6-0.066,2.066-0.033,4.4,0.1
				l1.7,0.2l2.35,1c-1.433,0.4-2.417,0.683-2.95,0.85c-1.2,1.233-2.2,2.267-3,3.1c-1.067,1.1-2.267,2.684-3.6,4.75
				c-0.4,0.667-0.733,1.217-1,1.65c0.6-0.767,1.417-1.85,2.45-3.25c1.367-1.867,2.6-3,3.7-3.4c0.067-0.033,0.15-0.066,0.25-0.1
				c0.1,0,0.15,0.083,0.15,0.25c0,0.833-0.533,1.85-1.6,3.05c-1.033,1.2-1.816,2.167-2.35,2.9c0.466-0.533,0.933-1.033,1.4-1.5
				c0.267-0.267,0.617-0.583,1.05-0.95c0.267,0.4,0.4,0.817,0.4,1.25c0,0.534-0.083,1.05-0.25,1.55
				c-0.033,0.133-0.083,0.267-0.15,0.4c0.2-0.367,0.4-0.683,0.6-0.95c0.2-0.233,0.3-0.8,0.3-1.7c0-0.233-0.033-0.517-0.1-0.85
				l2.65-4.65c0.933-0.6,1.55-1,1.85-1.2c0.733-0.433,1.667-0.683,2.8-0.75c0.167-0.033,0.317-0.05,0.45-0.05
				c0.5-0.033,1.017-0.067,1.55-0.1c0.033-0.033,0.1-0.033,0.2,0c-0.034,0.233-0.067,0.45-0.1,0.65c0,0.1,0,0.2,0,0.3
				c-0.067,0.867-0.117,1.733-0.15,2.6c-0.233,1.767-0.367,2.733-0.4,2.9c-0.1,0.5-0.2,1.033-0.3,1.6
				c-0.267,0.967-0.517,1.883-0.75,2.75c-0.033,0.067-0.067,0.167-0.1,0.3c0,0.033-0.133,0.6-0.4,1.7c-0.3,0.767-0.567,1.4-0.8,1.9
				c-0.034,0.133-0.25,0.7-0.65,1.7C94.833-86.383,94.4-85.6,94-85c-0.367,0.5-0.817,1.05-1.35,1.65c-0.066,0.033-0.133,0.1-0.2,0.2
				c-0.067,0.066-0.167,0.167-0.3,0.3c-0.833,0.8-1.217,1.217-1.15,1.25l0.1-0.05c0.167-0.1,0.6-0.5,1.3-1.2
				c0.934-0.867,1.417-1.316,1.45-1.35c1-1.233,1.85-2.4,2.55-3.5l0.05,0.05c0,0.033,0.033,0.066,0.1,0.1
				c0.133,0.233,0.267,0.55,0.4,0.95c0.1,0.333,0.167,0.567,0.2,0.7c0.067,0.267,0.1,0.75,0.1,1.45L97.2-83.3
				c-0.034,0.1-0.067,0.15-0.1,0.15c-0.5,0.4-1.15,1.133-1.95,2.2c-1.2,1.467-2.117,3.067-2.75,4.8c0.833-1.5,1.5-2.583,2-3.25
				c0.8-1.067,1.733-2.083,2.8-3.05c0.1,0.8,0.117,1.467,0.05,2c-0.067,0.567-0.167,1.15-0.3,1.75c-0.2,0.667-0.317,1.35-0.35,2.05
				C96.633-77.117,96.683-77.35,96.75-77.35z"/>
		</g>
	</g>
</symbol>
<g>
	<g>
		<path style="fill-rule:evenodd;clip-rule:evenodd;fill-opacity:0.451;" d="M155.325,298.65c1.441,0.091,4.116,0.524,8.024,1.3
			c2.5,0.5,6.167,0.8,11,0.899v0.051c-0.087,0.219-0.479,0.369-1.175,0.449c-0.275,0.026-0.601,0.043-0.975,0.051l-3.601-0.15
			c-0.072-0.01-0.147-0.019-0.225-0.025c-0.692-0.093-1.534-0.185-2.525-0.274c-3.1-0.566-4.983-0.851-5.649-0.851
			c-1.134,0-2.483,0.217-4.05,0.65c-1.567,0.4-3.017,0.6-4.351,0.6c-1.366,0-3.066-0.216-5.1-0.649c-1.767-0.467-2.684-0.7-2.75-0.7
			c-0.134,0-0.351,0.05-0.65,0.15c-0.333,0.133-0.517,0.216-0.55,0.25c-0.2,0.199-0.616,0.466-1.25,0.8
			c-0.566,0.3-0.917,0.517-1.05,0.649c-0.483,0.532-1.35,0.874-2.601,1.025c-0.235,0.024-0.485,0.041-0.75,0.05
			c-0.268,0.017-0.551,0.025-0.85,0.025c-0.5,0-0.816-0.017-0.95-0.05v-0.2c0.641-0.207,1.19-0.398,1.65-0.575
			c0.531-0.221,0.932-0.421,1.2-0.6c0.267-0.177,0.399-0.335,0.399-0.476c0-0.267-0.333-0.399-1-0.399l-2.5,0.449
			c-0.399-0.1-0.833-0.149-1.3-0.149c-1.667,0-3.5,0.35-5.5,1.05c-1.967,0.667-3.867,1-5.7,1c-1.104,0-2.396-0.191-3.875-0.575
			c-0.044-0.006-0.086-0.015-0.125-0.024l0.05-0.15c0.134-0.031,0.293-0.064,0.475-0.1c0.128-0.023,0.27-0.049,0.425-0.075
			c0.031-0.011,0.064-0.019,0.1-0.025c0.086-0.021,0.178-0.047,0.275-0.075c0.229,0.033,0.495,0.05,0.8,0.051l0.65,0.074
			c-0.016-0.014-0.025-0.03-0.025-0.05l-0.375-0.024c1.573-0.05,4.015-0.492,7.325-1.325c0.333-0.167,1.617-0.65,3.85-1.45
			c0.034,0,0.717-0.217,2.051-0.65c0.699-0.233,1.166-0.517,1.399-0.85c0.3-0.533,0.983-0.917,2.05-1.15
			c0.467-0.1,1.351-0.216,2.65-0.35c2.366-0.333,4.8-0.5,7.3-0.5c2.934-0.066,5.667-0.366,8.2-0.9c3.3-0.8,5.116-1.199,5.45-1.199
			c1.267,0,2.017,0.116,2.25,0.35c0.166,0.1,0.416,0.283,0.75,0.55c0.333,0.2,0.767,0.334,1.3,0.4c1,0.1,1.7,0.2,2.1,0.3
			c0.167,0.066,0.483,0.217,0.95,0.45c-0.412,0-0.871,0.033-1.375,0.1c-0.442,0.06-0.917,0.143-1.425,0.25
			c-0.677,0.136-1.077,0.194-1.2,0.175l-0.05-0.024c-0.769-0.008-1.202-0.175-1.3-0.5c-0.134-0.367-0.4-0.55-0.8-0.55
			c-0.034,0-1.034,0.316-3,0.949c-1.967,0.601-3.534,0.9-4.7,0.9l-1.4-0.05c-1.033,0-1.55-0.033-1.55-0.101
			c-0.434,0.001-0.667,0.018-0.7,0.051c-0.033,0-0.2,0.199-0.5,0.6c0.267,0.066,0.816,0.267,1.65,0.6
			c0.967,0.301,1.967,0.483,3,0.551C155.243,298.652,155.285,298.652,155.325,298.65z M94.275,298.25l-0.025,0.05
			c-1.3,0.4-3.167,0.601-5.6,0.601c-0.667,0-1.433-0.134-2.3-0.4c-0.867-0.3-1.483-0.45-1.85-0.45c-0.333,0-0.983,0.117-1.95,0.351
			c-1,0.267-1.85,0.433-2.55,0.5c-1.467,0.1-2.283,0.199-2.45,0.3c-0.167,0.1-0.316,0.25-0.45,0.45c-0.1,0.166-0.267,0.25-0.5,0.25
			l-4.65-0.351c-1.9,0-3.967,0.367-6.2,1.101c-2.233,0.699-3.617,1.05-4.15,1.05c-0.2,0-0.517-0.05-0.95-0.15
			c-0.219-0.031-0.394-0.064-0.525-0.1c-0.148-0.031-0.24-0.064-0.275-0.101c0.333-0.1,0.85-0.216,1.55-0.35
			c0.633-0.134,1.2-0.283,1.7-0.45c1.279-0.66,2.279-1.244,3-1.75c0.373-0.264,0.673-0.505,0.9-0.725
			c0.367-0.359,0.55-0.667,0.55-0.925l-0.05-0.5c-0.367-0.2-0.667-0.301-0.9-0.301l-4.35-0.3c-0.9,0-2.283,0.467-4.15,1.4
			c-1.733,0.866-3.417,1.233-5.05,1.1c-0.933-0.1-2.15-0.1-3.65,0c-1.4,0.101-2.367,0.233-2.9,0.4c-0.967,0.333-1.7,0.566-2.2,0.7
			c-0.867,0.267-1.617,0.399-2.25,0.399c-0.267,0-0.65-0.083-1.15-0.25c-0.42-0.14-0.711-0.257-0.875-0.35
			c-0.028-0.018-0.054-0.034-0.075-0.05l0.75-0.25h0.25l11.4-2.351c1.667-0.366,3.967-0.95,6.9-1.75
			c2.433-0.6,4.317-0.899,5.65-0.899c0.633,0,1.167,0.216,1.6,0.649c0.3,0.3,0.867,0.584,1.7,0.851
			c0.19,0.063,0.357,0.155,0.5,0.274l1.85,0.125c0.733,0.033,2.417,0.066,5.05,0.101c2.767,0.066,5.267,0.233,7.5,0.5
			c4.784,0.523,8.042,0.924,9.775,1.199c0.802,0.127,1.277,0.227,1.425,0.301L94.275,298.25z M68.9,296.125
			c-0.039,0.078,0.003,0.145,0.125,0.2c0.2,0.266,0.341,0.441,0.425,0.524c-0.067-0.233-0.184-0.399-0.35-0.5
			c-0.027-0.011-0.052-0.019-0.075-0.024c-0.04-0.057-0.082-0.115-0.125-0.175V296.125z M192.8,304.125l-0.75-0.075
			c0.014-0.013,0.047-0.046,0.101-0.1c0.085-0.085,0.218-0.219,0.399-0.4c0.2-0.2,0.417-0.333,0.65-0.399
			c1.066-0.467,1.583-0.817,1.55-1.051c-0.066-0.066-0.434-0.1-1.1-0.1c-0.867,0-1.65,0.066-2.351,0.2
			c-0.934,0.166-1.783,0.316-2.55,0.45c-0.366,0.066-1.083,0.133-2.15,0.199c-0.833,0.034-1.533,0.134-2.1,0.301
			c-0.5,0.133-1.684,0.616-3.55,1.449c-1.334,0.601-2.517,0.9-3.55,0.9c-1.667-0.267-2.567-0.4-2.7-0.4l0.05-0.1l0.1-0.025
			l3.351-0.425l3.45-1.25l0.05,0.025l0.05-0.025c0.533-0.267,0.816-0.416,0.85-0.45c0.301-0.399,0.601-0.649,0.9-0.75
			c0.533-0.267,1.05-0.433,1.55-0.5c1.467-0.333,2.566-0.666,3.3-1c0.5-0.267,1.684-0.583,3.551-0.949
			c1.933-0.4,3.399-0.601,4.399-0.601c1.267,0,3.467,0.367,6.601,1.101c3.166,0.733,6.85,1.1,11.05,1.1c2.399,0,4.767-0.066,7.1-0.2
			c1.134,0,2.65,0.134,4.55,0.4c0.406,0.052,0.773,0.102,1.101,0.149c0.92,0.126,1.503,0.227,1.75,0.301v0.149
			c-0.167,0-0.834,0.017-2,0.05c-0.967,0.034-1.867,0.101-2.7,0.2c-2.7,0.5-4.8,0.75-6.3,0.75c-1.033,0-1.783-0.1-2.25-0.3
			c-0.3-0.134-1.45-0.2-3.45-0.2c-1.8,0.101-3.05,0.101-3.75,0c-0.533-0.1-1.066-0.283-1.6-0.55c-0.5-0.233-0.801-0.35-0.9-0.35
			c-0.7,0-1.2,0.083-1.5,0.25c0.066,0.633,0.55,1.199,1.45,1.699c0.233,0.134,0.717,0.351,1.45,0.65c0.5,0.2,0.816,0.366,0.949,0.5
			h-0.05c-0.633-0.167-1.783-0.417-3.45-0.75c-1.733-0.3-2.816-0.45-3.25-0.45c-0.699,0-1.216,0.101-1.55,0.3
			c-0.333,0.2-0.8,0.301-1.399,0.301c-0.267,0-0.717-0.067-1.351-0.2c-0.633-0.134-1.066-0.2-1.3-0.2c-1.2,0.267-2.017,0.4-2.45,0.4
			L192.8,304.125z"/>
		<path style="fill-rule:evenodd;clip-rule:evenodd;fill-opacity:0.2;" d="M155.325,298.65c-0.04,0.002-0.082,0.002-0.125,0
			c-1.033-0.067-2.033-0.25-3-0.551c-0.834-0.333-1.384-0.533-1.65-0.6c0.3-0.4,0.467-0.6,0.5-0.6c0.033-0.033,0.267-0.05,0.7-0.051
			c0,0.067,0.517,0.101,1.55,0.101l1.4,0.05c1.166,0,2.733-0.3,4.7-0.9c1.966-0.633,2.966-0.949,3-0.949
			c0.399,0,0.666,0.183,0.8,0.55c0.098,0.325,0.531,0.492,1.3,0.5l0.05,0.024c0.123,0.02,0.523-0.039,1.2-0.175
			c0.508-0.107,0.982-0.19,1.425-0.25c-0.286,0.217-0.728,0.416-1.325,0.601c-0.733,0.233-1.366,0.35-1.899,0.35
			c-0.467,0-0.783-0.116-0.95-0.35c-0.2-0.267-0.566-0.4-1.1-0.4c-0.967,0.366-1.483,0.566-1.551,0.6l-5.75,1.051
			C154.438,298.035,154.68,298.368,155.325,298.65z M118.675,302.425c1.479,0.384,2.771,0.575,3.875,0.575
			c1.833,0,3.733-0.333,5.7-1c2-0.7,3.833-1.05,5.5-1.05c0.467,0,0.9,0.05,1.3,0.149l2.5-0.449c0.667,0,1,0.133,1,0.399
			c0,0.141-0.133,0.299-0.399,0.476v-0.075l-1.25-0.101c-0.233,0-1.284,0.134-3.15,0.4c-1.9,0.267-3,0.45-3.3,0.55
			c-0.733,0.5-1.9,0.783-3.5,0.851c-0.534,0-1.284,0.083-2.25,0.25l-1.25,0.25h-0.05c-0.73-0.007-1.747-0.14-3.05-0.4
			c-1.333-0.267-2.083-0.483-2.25-0.65L118.675,302.425z M168.375,301.225c-1.018-0.04-2.192-0.115-3.525-0.225
			c-2.066-0.167-3.25-0.25-3.55-0.25c-0.899,0-2.149,0.184-3.75,0.55c-1.58,0.355-3.363,0.538-5.35,0.55
			c0-0.066-0.017-0.083-0.05-0.05c-0.03,0.016-0.056,0.023-0.075,0.025c-0.516-0.05-1.158-0.075-1.925-0.075l-5.5-0.9
			c-0.167,0-0.767,0.15-1.801,0.45c-1.066,0.3-1.716,0.533-1.949,0.7c-0.93,0.547-1.946,0.838-3.051,0.875
			c1.251-0.151,2.117-0.493,2.601-1.025c0.133-0.133,0.483-0.35,1.05-0.649c0.634-0.334,1.05-0.601,1.25-0.8
			c0.033-0.034,0.217-0.117,0.55-0.25c0.3-0.101,0.517-0.15,0.65-0.15c0.066,0,0.983,0.233,2.75,0.7
			c2.033,0.434,3.733,0.649,5.1,0.649c1.334,0,2.783-0.199,4.351-0.6c1.566-0.434,2.916-0.65,4.05-0.65
			c0.666,0,2.55,0.284,5.649,0.851C166.841,301.04,167.683,301.132,168.375,301.225z M60.125,301.45
			c0.131,0.035,0.306,0.068,0.525,0.1c0.434,0.101,0.75,0.15,0.95,0.15c0.533,0,1.917-0.351,4.15-1.05
			c2.233-0.733,4.3-1.101,6.2-1.101l4.65,0.351c0.233,0,0.4-0.084,0.5-0.25c0.133-0.2,0.283-0.351,0.45-0.45
			c0.167-0.101,0.983-0.2,2.45-0.3c0.7-0.067,1.55-0.233,2.55-0.5c0.967-0.233,1.617-0.351,1.95-0.351c0.367,0,0.983,0.15,1.85,0.45
			c0.867,0.267,1.633,0.4,2.3,0.4c2.434,0,4.3-0.2,5.6-0.601l0.025-0.05c0.26,0.082,0.551,0.183,0.875,0.3v0.2
			c-3.433,0.4-5.35,0.6-5.75,0.6c-0.367,0-1.05-0.066-2.05-0.199c-1-0.167-1.55-0.25-1.65-0.25l-5.15,0.6
			c-1.133,0.066-1.816,0.233-2.05,0.5c-0.533,0.434-1.15,0.65-1.85,0.65c-0.733,0-1.467-0.084-2.2-0.25
			c-0.767-0.2-1.35-0.301-1.75-0.301c-0.034,0-1.767,0.233-5.2,0.7c-0.267,0.101-1.017,0.3-2.25,0.601c-1.3,0.333-2.1,0.5-2.4,0.5
			c-0.633,0.033-1.15,0.033-1.55,0C60.619,301.87,60.228,301.721,60.125,301.45z M40.025,299.45c0.164,0.093,0.455,0.21,0.875,0.35
			c0.5,0.167,0.883,0.25,1.15,0.25c0.633,0,1.383-0.133,2.25-0.399c0.5-0.134,1.233-0.367,2.2-0.7c0.533-0.167,1.5-0.3,2.9-0.4
			c1.5-0.1,2.717-0.1,3.65,0c1.633,0.134,3.317-0.233,5.05-1.1c1.867-0.934,3.25-1.4,4.15-1.4l4.35,0.3
			c0.233,0,0.533,0.101,0.9,0.301l0.05,0.5c0,0.258-0.183,0.565-0.55,0.925c-0.007-0.553-0.207-0.911-0.6-1.075
			c-0.3-0.134-0.983-0.2-2.05-0.2c-2.833,0-4.917,0.351-6.25,1.05c-1.8,0.834-3.583,1.233-5.35,1.2
			c-1.467-0.066-3.367,0.117-5.7,0.55c-2.433,0.467-3.816,0.7-4.15,0.7c-0.433,0-0.967-0.083-1.6-0.25
			C40.567,299.884,40.142,299.684,40.025,299.45z M226.7,301.6c0.866,0.034,1.816,0.134,2.85,0.301v0.149
			c-0.5,0.033-1.25,0.15-2.25,0.351c-1.1,0.199-1.916,0.333-2.45,0.399c-4.321,0.438-6.872,0.688-7.649,0.75
			c-0.061-0.002-0.111-0.002-0.15,0l-1.8-0.05v-0.15c-0.6-0.199-0.983-0.3-1.15-0.3c-1.533,0.167-2.649,0.25-3.35,0.25
			c-1.8-0.066-2.7,0.05-2.7,0.351c0,0.199,0.15,0.399,0.45,0.6s0.45,0.366,0.45,0.5c0,0.2-0.101,0.3-0.3,0.3l-6.9-0.899
			c-0.2,0-0.467,0.083-0.8,0.25c-0.334,0.166-0.667,0.25-1,0.25c-0.334,0-0.834-0.051-1.5-0.15c-0.667-0.1-1.101-0.15-1.3-0.15
			c-0.032,0-0.749,0.051-2.15,0.15c-0.05-0.003-0.1-0.003-0.15,0c-0.515-0.021-1.164-0.139-1.949-0.35
			c-0.032-0.009-0.065-0.017-0.101-0.025l0.25,0.025c0.434,0,1.25-0.134,2.45-0.4c0.233,0,0.667,0.066,1.3,0.2
			c0.634,0.133,1.084,0.2,1.351,0.2c0.6,0,1.066-0.101,1.399-0.301c0.334-0.199,0.851-0.3,1.55-0.3c0.434,0,1.517,0.15,3.25,0.45
			c1.667,0.333,2.817,0.583,3.45,0.75h0.05c-0.133-0.134-0.449-0.3-0.949-0.5c-0.733-0.3-1.217-0.517-1.45-0.65
			c-0.9-0.5-1.384-1.066-1.45-1.699c0.3-0.167,0.8-0.25,1.5-0.25c0.1,0,0.4,0.116,0.9,0.35c0.533,0.267,1.066,0.45,1.6,0.55
			c0.7,0.101,1.95,0.101,3.75,0c2,0,3.15,0.066,3.45,0.2c0.467,0.2,1.217,0.3,2.25,0.3c1.5,0,3.6-0.25,6.3-0.75
			c0.833-0.1,1.733-0.166,2.7-0.2c1.166-0.033,1.833-0.05,2-0.05V301.9C228.203,301.826,227.62,301.726,226.7,301.6z M192.15,303.95
			c-0.318-0.093-0.519-0.159-0.601-0.2c0.101-0.066,0.25-0.15,0.45-0.25c0.233-0.134,0.4-0.184,0.5-0.15v-0.1
			c-0.333-0.233-0.583-0.366-0.75-0.4c-0.031,0-0.265,0-0.7,0v-0.05l-0.024,0.025c-0.137-0.157-1.278-0.049-3.426,0.325
			c-2.199,0.399-3.75,0.767-4.649,1.1c-3.134,1.066-4.967,1.6-5.5,1.6c-0.967,0-1.884-0.25-2.75-0.75c0.133,0,1.033,0.134,2.7,0.4
			c1.033,0,2.216-0.3,3.55-0.9c1.866-0.833,3.05-1.316,3.55-1.449c0.566-0.167,1.267-0.267,2.1-0.301
			c1.067-0.066,1.784-0.133,2.15-0.199c0.767-0.134,1.616-0.284,2.55-0.45c0.7-0.134,1.483-0.2,2.351-0.2
			c0.666,0,1.033,0.033,1.1,0.1c0.033,0.233-0.483,0.584-1.55,1.051c-0.233,0.066-0.45,0.199-0.65,0.399
			C192.368,303.731,192.235,303.865,192.15,303.95z"/>
	</g>
</g>
<use xlink:href="#bluetree_x5F_cluster_x5F_03"  width="129.55" height="152.588" y="-152.575" transform="matrix(2 0 0 -2 0 0)" style="overflow:visible;"/>
</svg>
