<?xml version="1.0" encoding="iso-8859-1"?>
<!-- Generator: Adobe Illustrator 16.0.0, SVG Export Plug-In . SVG Version: 6.00 Build 0)  -->
<!DOCTYPE svg PUBLIC "-//W3C//DTD SVG 1.1//EN" "http://www.w3.org/Graphics/SVG/1.1/DTD/svg11.dtd">
<svg version="1.1" id="Layer_1" xmlns="http://www.w3.org/2000/svg" xmlns:xlink="http://www.w3.org/1999/xlink" x="0px" y="0px"
	 width="140px" height="282px" viewBox="0 0 140 282" style="enable-background:new 0 0 140 282;" xml:space="preserve">
<symbol  id="red_x5F_tree_x5F_04" viewBox="-0.019 -139.45 68.418 139.45">
	<g id="Layer_3_1_">
		<g>
			<g>
				<path style="fill-rule:evenodd;clip-rule:evenodd;fill:#39020E;" d="M62.75-55.1c-0.2-0.033-0.367-0.05-0.5-0.05
					c-0.5-0.067-0.933-0.017-1.3,0.15c-0.067,0.033-0.133,0.05-0.2,0.05c-0.667-0.066-0.967,0.2-0.9,0.8
					c-0.067-0.067-0.1-0.117-0.1-0.15c-0.3-0.5-0.6-0.833-0.9-1c-0.033-0.067-0.067-0.133-0.1-0.2c-0.033-0.5-0.317-0.717-0.85-0.65
					c-0.1,0.033-0.15,0.066-0.15,0.1c-0.1,0.333-0.217,0.417-0.35,0.25c-0.1-0.167-0.167-0.383-0.2-0.65
					c0-0.333-0.15-0.65-0.45-0.95c-0.1-0.1-0.25-0.15-0.45-0.15c-0.667,0-1.15-0.15-1.45-0.45c-0.1-0.067-0.167-0.133-0.2-0.2
					c-0.2-0.433-0.483-0.816-0.85-1.15c-0.5-0.5-1.083-0.783-1.75-0.85c-0.133-0.033-0.233-0.033-0.3,0
					c-0.433,0.2-0.733,0.067-0.9-0.4c-0.167-0.4-0.517-0.633-1.05-0.7c-0.4-0.067-0.783-0.067-1.15,0c-0.1,0-0.2,0.033-0.3,0.1
					c-0.267,0-0.467-0.066-0.6-0.2c-0.133-0.233-0.35-0.434-0.65-0.6c-0.067,0.033-0.1,0.083-0.1,0.15c-0.1,0.333-0.3,0.55-0.6,0.65
					c0-0.133-0.05-0.233-0.15-0.3l-0.05-0.15c-0.1-0.434-0.333-0.5-0.7-0.2c0-0.2-0.033-0.35-0.1-0.45c-0.066-0.3-0.066-0.633,0-1
					c0.1-0.6-0.066-1.083-0.5-1.45c-0.467-0.333-0.967-0.5-1.5-0.5c-0.033-0.033-0.083-0.05-0.15-0.05
					c-0.4-0.267-0.883-0.55-1.45-0.85c-0.4-0.267-0.85-0.35-1.35-0.25c-0.7-0.5-1.567-0.65-2.6-0.45c-0.133,0-0.233,0.033-0.3,0.1
					c-0.133,0.167-0.3,0.25-0.5,0.25c-0.4,0-0.783,0.033-1.15,0.1c-0.267,0-0.467,0.083-0.6,0.25c-0.066,0.133-0.133,0.2-0.2,0.2
					c-0.667,0.133-1.1,0.367-1.3,0.7c0-0.333,0-0.683,0-1.05c-0.1-0.6-0.483-0.85-1.15-0.75c-0.066-0.067-0.117-0.133-0.15-0.2
					c-0.067-0.167-0.133-0.333-0.2-0.5c-0.167-0.367-0.45-0.5-0.85-0.4c-0.034,0-0.1,0-0.2,0c-0.1,0.066-0.167,0.066-0.2,0
					c-0.4-0.333-0.833-0.65-1.3-0.95c-0.267-0.167-0.55-0.333-0.85-0.5c-0.533-0.367-1.083-0.667-1.65-0.9h-0.1
					c-0.3-0.067-0.617-0.067-0.95,0l-0.3,0.05c-0.833,0.333-1.833,0.434-3,0.3c-0.133,0-0.217,0.033-0.25,0.1
					c-0.467,0.2-0.867,0.367-1.2,0.5c-0.067,0.033-0.117,0.05-0.15,0.05c-0.1,0.233-0.233,0.333-0.4,0.3
					c-0.233,0-0.483-0.017-0.75-0.05c-0.467-0.033-0.867,0.033-1.2,0.2c-0.1,0-0.184,0.017-0.25,0.05
					c-0.367,0.167-0.75,0.25-1.15,0.25c-0.667-0.133-1.133-0.05-1.4,0.25c0.267,0.167,0.617,0.317,1.05,0.45c0.033,0,0.083,0,0.15,0
					c0.233,0,0.367,0.1,0.4,0.3c-0.333,0.167-0.767,0.267-1.3,0.3h-0.1c-0.233,0-0.45-0.017-0.65-0.05c0.1,0.3,0.083,0.567-0.05,0.8
					c-0.033,0.067-0.066,0.117-0.1,0.15c0,0.033-0.017,0.1-0.05,0.2c-0.033,0.067-0.133,0.117-0.3,0.15
					c-0.733,0.167-1.267,0.567-1.6,1.2c-0.1,0.233-0.367,0.333-0.8,0.3c-0.4-0.033-0.733,0.034-1,0.2c-0.233,0.1-0.4,0.217-0.5,0.35
					c-0.333,0.533-0.683,0.933-1.05,1.2c-0.067,0.034-0.133,0.083-0.2,0.15c-0.066,0.133-0.15,0.2-0.25,0.2
					c-0.167,0-0.316,0.033-0.45,0.1c-0.067,0-0.167,0.033-0.3,0.1c-0.167,0.7-0.433,1.3-0.8,1.8c-0.2,0.233-0.317,0.483-0.35,0.75
					l-0.05,0.1c-0.033,0.433-0.217,0.8-0.55,1.1c-0.167,0.1-0.316,0.217-0.45,0.35c-0.1,0.133-0.2,0.233-0.3,0.3
					c-0.1,0.1-0.15,0.2-0.15,0.3c0,0.1,0,0.184,0,0.25c0.067,0.1,0.1,0.184,0.1,0.25c0.1-0.033,0.183-0.05,0.25-0.05
					c0.7,0,1.283-0.15,1.75-0.45c0.267-0.167,0.483-0.267,0.65-0.3c0.434-0.067,0.6,0.133,0.5,0.6c0.4-0.3,0.833-0.6,1.3-0.9
					c0.233-0.2,0.45-0.417,0.65-0.65c0.367-0.333,0.816-0.5,1.35-0.5h0.2c0.033,0.333,0.133,0.534,0.3,0.6
					c0.2-0.133,0.417-0.217,0.65-0.25c0.566-0.033,1.15-0.133,1.75-0.3c0.167,0.066,0.333,0.15,0.5,0.25
					c0.267,0.1,0.517,0.217,0.75,0.35c0.3,0.133,0.55,0.316,0.75,0.55c0.1,0.1,0.167,0.233,0.2,0.4c0.067,0.1,0.133,0.2,0.2,0.3
					c0.2,0.1,0.25,0.3,0.15,0.6c-0.033,0.133-0.05,0.25-0.05,0.35c0.3-0.233,0.633-0.35,1-0.35c0.167,0,0.233,0.117,0.2,0.35
					c-0.033,0.1-0.05,0.2-0.05,0.3c0.133-0.133,0.267-0.35,0.4-0.65c0.1-0.167,0.217-0.267,0.35-0.3c0.1-0.033,0.167-0.083,0.2-0.15
					c0.267-0.434,0.617-0.833,1.05-1.2c0.067-0.033,0.15-0.05,0.25-0.05c0.1,0.033,0.217,0.066,0.35,0.1
					c0.167,0,0.283-0.067,0.35-0.2c0.066-0.133,0.133-0.217,0.2-0.25c0.233-0.2,0.434-0.183,0.6,0.05
					c0.133,0.067,0.233,0.15,0.3,0.25c0.067,0.034,0.133,0.034,0.2,0c0.367-0.167,0.75-0.183,1.15-0.05c0.133,0.267,0.2,0.5,0.2,0.7
					c0.467-0.333,0.983-0.35,1.55-0.05c0.1,0.033,0.217,0.117,0.35,0.25c0.3,0.3,0.783,0.434,1.45,0.4
					c0.1-0.033,0.183,0.017,0.25,0.15c0.033,0.033,0.05,0.1,0.05,0.2c0,0.6-0.2,1.117-0.6,1.55c-0.066,0.033-0.1,0.117-0.1,0.25
					c-0.066,0.133-0.1,0.283-0.1,0.45c-0.034,0.2-0.05,0.35-0.05,0.45c0.067-0.033,0.133-0.05,0.2-0.05
					c0.066,0,0.117,0.017,0.15,0.05c0.233,0,0.4-0.05,0.5-0.15c0.2-0.333,0.567-0.5,1.1-0.5c0.367,0,0.617-0.1,0.75-0.3
					c0.133-0.2,0.35-0.267,0.65-0.2c0.367,0.033,0.7,0.117,1,0.25c0.067,0.033,0.117,0.066,0.15,0.1
					c0.167,0.034,0.25-0.066,0.25-0.3c0.367-0.1,0.684-0.067,0.95,0.1c0.033,0.066,0.1,0.1,0.2,0.1c0.1,0.033,0.167,0.066,0.2,0.1
					c0.2,0,0.317-0.1,0.35-0.3c0.066-0.233,0.283-0.317,0.65-0.25c0.2,0,0.417,0.067,0.65,0.2c0.133,0.1,0.283,0.183,0.45,0.25
					c0.2,0.1,0.467,0.183,0.8,0.25c0.1,0,0.217-0.083,0.35-0.25c0.133-0.167,0.333-0.233,0.6-0.2c0.233,0.067,0.433,0.183,0.6,0.35
					c0.167-0.033,0.25-0.2,0.25-0.5c0-0.1,0.05-0.184,0.15-0.25c0.1-0.2,0.333-0.283,0.7-0.25c0.6,0.033,1.2,0.066,1.8,0.1
					c0.167,0,0.316-0.017,0.45-0.05c0.934-0.333,1.85-0.183,2.75,0.45c0.5,0.333,0.934,0.583,1.3,0.75c0.2,0.1,0.333,0.083,0.4-0.05
					c0-0.066,0.05-0.1,0.15-0.1c0.733-0.2,1.283,0.066,1.65,0.8c0.034,0.1,0.083,0.15,0.15,0.15c0.066,0,0.117-0.017,0.15-0.05
					c0.267-0.2,0.65-0.283,1.15-0.25c0.333,0,0.65,0.066,0.95,0.2c0.4,0.167,0.716,0.467,0.95,0.9c0.1,0.167,0.184,0.3,0.25,0.4
					c0.1,0.133,0.167,0.267,0.2,0.4c0.033,0.267,0.183,0.417,0.45,0.45c0.133,0,0.25,0.033,0.35,0.1c0.1,0.133,0.2,0.3,0.3,0.5
					c0.066,0.3,0.083,0.6,0.05,0.9c-0.033,0.6-0.267,1.033-0.7,1.3c0.133,0.2,0.417,0.283,0.85,0.25c0.1-0.033,0.2-0.017,0.3,0.05
					c0.433,0.133,0.65,0.4,0.65,0.8c0,0.1,0,0.2,0,0.3c0.2-0.167,0.467-0.35,0.8-0.55c0.1-0.033,0.2-0.05,0.3-0.05
					c0.367,0,0.733,0.017,1.1,0.05c0.1,0,0.2-0.017,0.3-0.05c0.2-0.167,0.5-0.233,0.9-0.2c0.233,0.167,0.417,0.433,0.55,0.8
					c0.034,0.133,0.067,0.233,0.1,0.3c0.067,0.167,0.083,0.4,0.05,0.7c-0.034,0.3,0,0.567,0.1,0.8c0.067,0.1,0.117,0.15,0.15,0.15
					c0.267,0.167,0.433,0.433,0.5,0.8c0,0.1,0.017,0.2,0.05,0.3c0,0.167,0.05,0.316,0.15,0.45c0.1,0.1,0.1,0.267,0,0.5
					c-0.033,0.267,0.033,0.367,0.2,0.3c0.167,0,0.233,0.117,0.2,0.35c-0.033,0.1-0.017,0.2,0.05,0.3c0.066,0.1,0.117,0.3,0.15,0.6
					c0,0.133,0,0.25,0,0.35c-0.033,0.4,0.133,0.617,0.5,0.65c0.067,0.433,0.183,0.85,0.35,1.25l0.05,0.15
					c0.3,0.1,0.45,0.283,0.45,0.55c0,0.733-0.017,1.467-0.05,2.2c0,0.033-0.017,0.083-0.05,0.15c-0.1,0.633-0.167,1.267-0.2,1.9
					c-0.033,0.567-0.066,1.1-0.1,1.6c0,0.167-0.05,0.3-0.15,0.4c-0.233,0.267-0.316,0.567-0.25,0.9c0.133,0.434,0.2,0.9,0.2,1.4
					c0,0.133-0.033,0.216-0.1,0.25c-0.2,0.2-0.283,0.483-0.25,0.85c0,0.1,0.017,0.2,0.05,0.3c0.133,0.167,0.167,0.45,0.1,0.85
					c-0.066,0.566-0.033,1.117,0.1,1.65c0.2,0.833,0.283,1.717,0.25,2.65c0,0.133,0.017,0.2,0.05,0.2c0.333,0.233,0.3,0.533-0.1,0.9
					c-0.467,0.367-0.7,0.85-0.7,1.45c0,0.133-0.017,0.25-0.05,0.35c-0.166,0.298-0.499,0.448-1,0.45
					c0.266,0.004,0.366,0.155,0.3,0.45c0,0.934-0.25,1.784-0.75,2.55c-0.267,0.433-0.467,0.883-0.6,1.35
					c-0.133,0.433-0.283,0.883-0.45,1.35c-0.067,0.167-0.117,0.35-0.15,0.55c-0.067,0.066-0.117,0.117-0.15,0.15
					c-0.133,0.067-0.183,0.217-0.15,0.45c0.033,0.267,0.083,0.533,0.15,0.8c0.067,0.533-0.133,0.75-0.6,0.65
					c-0.367-0.1-0.617-0.05-0.75,0.15c0.1,0.1,0.2,0.15,0.3,0.15c0.367,0.033,0.567,0.2,0.6,0.5c-0.567,0-1.15,0-1.75,0
					c-0.5,0-1.017-0.034-1.55-0.1c-0.433-0.033-0.65,0.066-0.65,0.3c0.067,0.067,0.133,0.117,0.2,0.15c0.167,0.1,0.2,0.3,0.1,0.6
					c-0.1,0-0.2,0-0.3,0c-0.833-0.167-1.25,0.1-1.25,0.8c0,0.1-0.033,0.167-0.1,0.2c-0.133,0.233-0.367,0.35-0.7,0.35
					c-0.333-0.033-0.5,0.1-0.5,0.4c0,0.1-0.017,0.2-0.05,0.3c-0.066,0.2-0.2,0.3-0.4,0.3c-0.3-0.067-0.517-0.067-0.65,0
					c-0.067,0.067-0.117,0.133-0.15,0.2c0.033,0.1,0.1,0.183,0.2,0.25c0.1,0.233,0.184,0.417,0.25,0.55c0,0.167-0.033,0.3-0.1,0.4
					h0.45v0.3c0.267,0.033,0.55,0.066,0.85,0.1c0.067,0,0.15,0.034,0.25,0.1c0.233,0.033,0.383-0.017,0.45-0.15
					c-0.333-0.133-0.633-0.35-0.9-0.65c-0.1-0.133-0.15-0.283-0.15-0.45c0-0.2,0.15-0.35,0.45-0.45c0.233-0.034,0.4-0.133,0.5-0.3
					c0.2-0.367,0.483-0.733,0.85-1.1c0.066-0.1,0.15-0.167,0.25-0.2c0.233-0.2,0.483-0.367,0.75-0.5
					c0.133,0.1,0.283,0.217,0.45,0.35c0-0.133,0.017-0.3,0.05-0.5v-0.05l0.15,0.05c0.833-0.2,1.683-0.367,2.55-0.5
					c1.1-0.167,2.133-0.517,3.1-1.05c0.067-0.066,0.117-0.117,0.15-0.15c0.067-0.533-0.033-0.95-0.3-1.25
					C59-13.7,58.967-13.867,59-14c0.267,0.1,0.6,0.117,1,0.05c0.233,0,0.35-0.15,0.35-0.45c0-0.267,0.05-0.483,0.15-0.65
					c0.033-0.067,0.05-0.15,0.05-0.25c0.034-0.4,0.317-0.567,0.85-0.5c0.167,0,0.317-0.017,0.45-0.05c0.133,0,0.267-0.017,0.4-0.05
					c0.533-0.033,0.917-0.283,1.15-0.75c0.033-0.033,0.067-0.083,0.1-0.15c0.033-0.034,0.067-0.083,0.1-0.15
					c0-0.066,0.017-0.133,0.05-0.2c0.033-0.434,0.167-0.85,0.4-1.25c0.133-0.3,0.25-0.667,0.35-1.1c0.1-0.567,0.233-1.083,0.4-1.55
					c0.034-0.233,0.083-0.45,0.15-0.65c0.167-0.767,0.533-1.483,1.1-2.15c0.133-0.133,0.25-0.267,0.35-0.4
					c0.567-0.8,1.117-1.567,1.65-2.3c-0.6-0.034-1.167-0.05-1.7-0.05c-0.033,0-0.067-0.033-0.1-0.1c-0.2-0.033-0.3-0.183-0.3-0.45
					c0.033-0.2,0.1-0.217,0.2-0.05c0.067,0.034,0.15,0.05,0.25,0.05v-0.05c0-0.9,0.033-1.783,0.1-2.65c0-0.033,0-0.083,0-0.15
					c0.267-0.367,0.6-0.6,1-0.7c0-0.267-0.067-0.517-0.2-0.75c-0.033-0.1-0.083-0.167-0.15-0.2c0-0.067-0.017-0.15-0.05-0.25
					c-0.067-0.067-0.1-0.133-0.1-0.2c0-0.033,0-0.066,0-0.1c-0.033-0.1,0-0.15,0.1-0.15c0.433-0.233,0.867-0.25,1.3-0.05
					c-0.333-0.5-0.6-0.983-0.8-1.45c-0.067-0.1-0.083-0.183-0.05-0.25c0-0.033,0.017-0.083,0.05-0.15c0-0.3-0.017-0.55-0.05-0.75
					c-0.033-0.133-0.066-0.267-0.1-0.4c-0.034-0.133-0.05-0.267-0.05-0.4c-0.1-0.567-0.233-1.1-0.4-1.6
					c-0.1-0.4-0.167-0.833-0.2-1.3c0-0.167,0-0.35,0-0.55c0.3,0.1,0.55,0.167,0.75,0.2c0.333-0.367,0.317-0.667-0.05-0.9
					c-0.033-0.066-0.067-0.117-0.1-0.15c-0.066-0.066-0.117-0.117-0.15-0.15c0.033-0.133,0.067-0.3,0.1-0.5
					c0.1-0.533,0.083-0.95-0.05-1.25c-0.033-0.067-0.083-0.133-0.15-0.2c-0.167-0.4-0.367-0.8-0.6-1.2
					c-0.033-0.033-0.033-0.083,0-0.15c0.1-0.067,0.184-0.117,0.25-0.15c0.067-0.033,0.133-0.05,0.2-0.05s0.117-0.033,0.15-0.1
					c0.067-0.033,0.067-0.1,0-0.2c0-0.1-0.033-0.2-0.1-0.3c-0.033-0.033-0.066-0.066-0.1-0.1c-0.3-0.233-0.317-0.383-0.05-0.45
					c0.033-0.033,0.05-0.1,0.05-0.2c0-0.233-0.15-0.417-0.45-0.55c-0.3-0.1-0.567-0.25-0.8-0.45c-0.067,0-0.1-0.033-0.1-0.1
					c-0.067-0.533-0.067-1.05,0-1.55c0-0.067,0.033-0.117,0.1-0.15c0.066-0.2,0.216-0.383,0.45-0.55c0.067-0.033,0.15-0.1,0.25-0.2
					c-0.233,0-0.417-0.067-0.55-0.2c-0.133-0.1-0.267-0.25-0.4-0.45c-0.067-0.167-0.184-0.317-0.35-0.45
					c-0.033-0.1-0.083-0.183-0.15-0.25c-0.167-0.433-0.45-0.817-0.85-1.15c-0.267-0.2-0.467-0.483-0.6-0.85l-0.05-0.1
					c-0.1,0-0.15-0.033-0.15-0.1c0.133,0,0.15-0.117,0.05-0.35c-0.033-0.067-0.05-0.133-0.05-0.2c-0.267-0.367-0.517-0.667-0.75-0.9
					c-0.1-0.133-0.15-0.283-0.15-0.45c0.033-0.1,0.083-0.15,0.15-0.15c0.434-0.1,0.517-0.367,0.25-0.8
					C62.767-55.05,62.75-55.067,62.75-55.1z M49.15-8.2h-0.1v-0.15C49.051-8.316,49.084-8.266,49.15-8.2z M63.3-52.2
					c-0.037,0-0.087,0-0.15,0l0.05-0.2C63.17-52.27,63.203-52.203,63.3-52.2z"/>
				<path style="fill-rule:evenodd;clip-rule:evenodd;fill:#500B1A;" d="M49.2-7.1c0.066-0.1,0.1-0.233,0.1-0.4
					c-0.066-0.133-0.15-0.317-0.25-0.55c-0.1-0.067-0.167-0.15-0.2-0.25c0.033-0.067,0.083-0.133,0.15-0.2
					c0.133-0.067,0.35-0.067,0.65,0c0.2,0,0.333-0.1,0.4-0.3C50.083-8.9,50.1-9,50.1-9.1c0-0.3,0.167-0.433,0.5-0.4
					c0.333,0,0.566-0.117,0.7-0.35c0.067-0.033,0.1-0.1,0.1-0.2c0-0.7,0.417-0.967,1.25-0.8c0.1,0,0.2,0,0.3,0
					c0.1-0.3,0.066-0.5-0.1-0.6c-0.067-0.033-0.133-0.083-0.2-0.15c0-0.233,0.217-0.333,0.65-0.3c0.534,0.066,1.05,0.1,1.55,0.1
					c0.6,0,1.183,0,1.75,0c-0.033-0.3-0.233-0.467-0.6-0.5c-0.1,0-0.2-0.05-0.3-0.15c0.133-0.2,0.383-0.25,0.75-0.15
					c0.466,0.1,0.667-0.117,0.6-0.65c-0.066-0.267-0.117-0.533-0.15-0.8c-0.033-0.233,0.017-0.383,0.15-0.45
					c0.034-0.033,0.083-0.083,0.15-0.15c0.033-0.2,0.083-0.383,0.15-0.55c0.167-0.466,0.316-0.917,0.45-1.35
					c0.133-0.467,0.333-0.917,0.6-1.35c0.5-0.767,0.75-1.617,0.75-2.55c0.066-0.295-0.034-0.445-0.3-0.45
					c0.501-0.002,0.834-0.152,1-0.45c0.033-0.1,0.05-0.217,0.05-0.35c0-0.6,0.233-1.083,0.7-1.45c0.4-0.367,0.433-0.667,0.1-0.9
					c-0.034,0-0.05-0.067-0.05-0.2c0.033-0.933-0.05-1.817-0.25-2.65c-0.133-0.533-0.167-1.083-0.1-1.65
					c0.067-0.4,0.034-0.684-0.1-0.85c-0.034-0.1-0.05-0.2-0.05-0.3c-0.033-0.367,0.05-0.65,0.25-0.85
					c0.067-0.034,0.1-0.117,0.1-0.25c0-0.5-0.067-0.967-0.2-1.4c-0.066-0.333,0.017-0.633,0.25-0.9c0.1-0.1,0.15-0.233,0.15-0.4
					c0.033-0.5,0.066-1.033,0.1-1.6c0.034-0.633,0.1-1.267,0.2-1.9c0.033-0.067,0.05-0.117,0.05-0.15
					c0.034-0.733,0.05-1.467,0.05-2.2c0-0.267-0.15-0.45-0.45-0.55l-0.05-0.15c-0.167-0.4-0.283-0.817-0.35-1.25
					c-0.367-0.034-0.533-0.25-0.5-0.65c0-0.1,0-0.216,0-0.35c-0.033-0.3-0.083-0.5-0.15-0.6c-0.067-0.1-0.083-0.2-0.05-0.3
					c0.034-0.233-0.033-0.35-0.2-0.35c-0.167,0.066-0.233-0.034-0.2-0.3c0.1-0.233,0.1-0.4,0-0.5C59.05-44.483,59-44.633,59-44.8
					c-0.033-0.1-0.05-0.2-0.05-0.3c-0.067-0.367-0.233-0.633-0.5-0.8c-0.034,0-0.083-0.05-0.15-0.15c-0.1-0.233-0.133-0.5-0.1-0.8
					c0.033-0.3,0.017-0.533-0.05-0.7c-0.033-0.067-0.066-0.167-0.1-0.3c-0.133-0.367-0.316-0.633-0.55-0.8
					c-0.4-0.033-0.7,0.033-0.9,0.2c-0.1,0.034-0.2,0.05-0.3,0.05c-0.367-0.033-0.733-0.05-1.1-0.05c-0.1,0-0.2,0.017-0.3,0.05
					c-0.333,0.2-0.6,0.383-0.8,0.55c0-0.1,0-0.2,0-0.3c0-0.4-0.217-0.667-0.65-0.8c-0.1-0.066-0.2-0.083-0.3-0.05
					c-0.433,0.033-0.717-0.05-0.85-0.25c0.434-0.267,0.667-0.7,0.7-1.3c0.033-0.3,0.017-0.6-0.05-0.9c-0.1-0.2-0.2-0.367-0.3-0.5
					c-0.1-0.066-0.217-0.1-0.35-0.1c-0.267-0.034-0.417-0.184-0.45-0.45c-0.033-0.133-0.1-0.267-0.2-0.4
					c-0.066-0.1-0.15-0.233-0.25-0.4c-0.233-0.434-0.55-0.733-0.95-0.9c-0.3-0.133-0.617-0.2-0.95-0.2
					c-0.5-0.033-0.883,0.05-1.15,0.25c-0.033,0.033-0.083,0.05-0.15,0.05c-0.067,0-0.117-0.05-0.15-0.15
					c-0.367-0.733-0.917-1-1.65-0.8c-0.1,0-0.15,0.033-0.15,0.1c-0.067,0.133-0.2,0.15-0.4,0.05c-0.367-0.167-0.8-0.417-1.3-0.75
					c-0.9-0.633-1.816-0.783-2.75-0.45c-0.133,0.033-0.283,0.05-0.45,0.05c-0.6-0.034-1.2-0.067-1.8-0.1
					c-0.367-0.033-0.6,0.05-0.7,0.25c-0.1,0.066-0.15,0.15-0.15,0.25c0,0.3-0.083,0.467-0.25,0.5c-0.167-0.167-0.367-0.283-0.6-0.35
					c-0.267-0.033-0.467,0.033-0.6,0.2c-0.133,0.167-0.25,0.25-0.35,0.25c-0.333-0.067-0.6-0.15-0.8-0.25
					c-0.167-0.067-0.317-0.15-0.45-0.25c-0.233-0.133-0.45-0.2-0.65-0.2c-0.367-0.067-0.583,0.017-0.65,0.25
					c-0.033,0.2-0.15,0.3-0.35,0.3c-0.033-0.033-0.1-0.066-0.2-0.1c-0.1,0-0.167-0.034-0.2-0.1c-0.267-0.167-0.583-0.2-0.95-0.1
					c0,0.233-0.083,0.333-0.25,0.3c-0.033-0.033-0.083-0.066-0.15-0.1c-0.3-0.133-0.633-0.217-1-0.25c-0.3-0.067-0.517,0-0.65,0.2
					c-0.133,0.2-0.383,0.3-0.75,0.3c-0.533,0-0.9,0.167-1.1,0.5c-0.1,0.1-0.267,0.15-0.5,0.15c-0.033-0.033-0.083-0.05-0.15-0.05
					c-0.067,0-0.133,0.017-0.2,0.05c0-0.1,0.017-0.25,0.05-0.45c0-0.167,0.033-0.316,0.1-0.45c0-0.133,0.034-0.217,0.1-0.25
					c0.4-0.434,0.6-0.95,0.6-1.55c0-0.1-0.017-0.167-0.05-0.2c-0.067-0.133-0.15-0.184-0.25-0.15c-0.667,0.034-1.15-0.1-1.45-0.4
					c-0.133-0.133-0.25-0.217-0.35-0.25c-0.566-0.3-1.083-0.283-1.55,0.05c0-0.2-0.067-0.434-0.2-0.7
					c-0.4-0.133-0.783-0.117-1.15,0.05c-0.067,0.034-0.133,0.034-0.2,0c-0.066-0.1-0.167-0.183-0.3-0.25
					c-0.167-0.233-0.367-0.25-0.6-0.05c-0.066,0.033-0.133,0.117-0.2,0.25c-0.067,0.133-0.184,0.2-0.35,0.2
					c-0.133-0.034-0.25-0.067-0.35-0.1c-0.1,0-0.183,0.017-0.25,0.05c-0.433,0.367-0.783,0.767-1.05,1.2
					c-0.034,0.066-0.1,0.117-0.2,0.15c-0.133,0.033-0.25,0.133-0.35,0.3c-0.133,0.3-0.267,0.517-0.4,0.65c0-0.1,0.017-0.2,0.05-0.3
					c0.034-0.233-0.033-0.35-0.2-0.35c-0.367,0-0.7,0.117-1,0.35c0-0.1,0.017-0.217,0.05-0.35c0.1-0.3,0.05-0.5-0.15-0.6
					c-0.067-0.1-0.133-0.2-0.2-0.3c-0.033-0.167-0.1-0.3-0.2-0.4c-0.2-0.233-0.45-0.417-0.75-0.55
					c-0.233-0.133-0.483-0.25-0.75-0.35c-0.167-0.1-0.333-0.184-0.5-0.25c-0.6,0.167-1.184,0.267-1.75,0.3
					c-0.233,0.033-0.45,0.117-0.65,0.25c-0.167-0.066-0.267-0.267-0.3-0.6h-0.2c-0.534,0-0.983,0.167-1.35,0.5
					c-0.2,0.233-0.417,0.45-0.65,0.65c-0.467,0.3-0.9,0.6-1.3,0.9c0.1-0.467-0.066-0.667-0.5-0.6c-0.167,0.033-0.383,0.133-0.65,0.3
					c-0.467,0.3-1.05,0.45-1.75,0.45c-0.067,0-0.15,0.017-0.25,0.05c0.067,0.233,0.017,0.434-0.15,0.6
					c-0.267,0.267-0.6,0.517-1,0.75c-0.133,0.1-0.317,0.2-0.55,0.3c0.1,0,0.2,0,0.3,0s0.167-0.034,0.2-0.1
					c0.034-0.067,0.067-0.1,0.1-0.1s0.067,0.067,0.1,0.2v0.05c-0.033,0.067-0.083,0.117-0.15,0.15c-0.2,0.067-0.283,0.233-0.25,0.5
					c0.033,0.2,0.167,0.333,0.4,0.4c0,0.1-0.017,0.167-0.05,0.2c-0.1,0.1-0.167,0.217-0.2,0.35c-0.067,0.167-0.133,0.3-0.2,0.4
					c-0.167,0.3-0.4,0.583-0.7,0.85C4.217-52.45,4-52.267,3.7-52.1c-0.067,0-0.117,0.033-0.15,0.1c-0.233,0.2-0.483,0.433-0.75,0.7
					c0.167,0,0.317,0,0.45,0c0.167,0,0.333,0,0.5,0c0.1,0,0.233,0,0.4,0C4.083-51.2,4.033-51.1,4-51s-0.033,0.15,0,0.15
					c0.2,0,0.317,0.083,0.35,0.25c-0.233,0.1-0.417,0.283-0.55,0.55c-0.033,0.033-0.066,0.066-0.1,0.1
					c-0.2,0.067-0.3,0.184-0.3,0.35c0,0.167,0.1,0.3,0.3,0.4c0.1,0.067,0.15,0.117,0.15,0.15c-0.1,0.066-0.2,0.1-0.3,0.1
					c-0.1,0.067-0.15,0.133-0.15,0.2c-0.066,0.267-0.15,0.45-0.25,0.55c-0.066,0.034-0.1,0.1-0.1,0.2
					c-0.066,0.167-0.033,0.283,0.1,0.35c0.067,0,0.133,0.033,0.2,0.1c0.233,0.1,0.217,0.25-0.05,0.45
					c-0.167,0.167-0.4,0.417-0.7,0.75c-0.167,0.167-0.283,0.317-0.35,0.45c-0.367,0.4-0.567,0.917-0.6,1.55
					c0,0.467,0.1,0.817,0.3,1.05c0.267,0.233,0.55,0.4,0.85,0.5c-0.133,0.1-0.233,0.25-0.3,0.45c-0.033,0.133-0.083,0.267-0.15,0.4
					c-0.333,0.7-0.7,1.317-1.1,1.85c0.033,0.033,0.083,0.05,0.15,0.05c0.267-0.034,0.4,0.066,0.4,0.3c-0.066,0-0.167,0.067-0.3,0.2
					c-0.067,0.133-0.083,0.283-0.05,0.45c0.033,0.2,0.066,0.383,0.1,0.55c-0.1,0.066-0.2,0.133-0.3,0.2
					c-0.033,0.067-0.1,0.117-0.2,0.15c-0.3,0.267-0.417,0.583-0.35,0.95c0,0.1,0.017,0.183,0.05,0.25c0.2,0.233,0.2,0.5,0,0.8
					c-0.1,0.1-0.2,0.2-0.3,0.3c-0.133,0.133-0.2,0.4-0.2,0.8c0,0.167-0.033,0.3-0.1,0.4c-0.267,0.3-0.217,0.583,0.15,0.85
					c-0.066,0.2-0.083,0.483-0.05,0.85v0.1c0,0.033,0.017,0.066,0.05,0.1c0.1,0.066,0.15,0.2,0.15,0.4
					c-0.034,0.233-0.034,0.467,0,0.7c0,0.067,0,0.15,0,0.25c0.1,0.333,0.15,0.684,0.15,1.05c0,0.167,0.05,0.35,0.15,0.55
					c0.067,0.2,0.15,0.4,0.25,0.6c0.033,0.1,0.05,0.183,0.05,0.25c0.133,0.4,0.184,0.833,0.15,1.3c0,0.367,0.066,0.6,0.2,0.7
					c0.067-0.033,0.117-0.083,0.15-0.15C1.883-27.317,2.2-27.5,2.5-27.7c0,0.5,0,1.034,0,1.6c0,0.2,0,0.417,0,0.65
					c-0.1,0.434,0.05,0.684,0.45,0.75h0.2c0.067,0.2,0.1,0.434,0.1,0.7c0,0.067,0,0.15,0,0.25c0.1,0.133,0.15,0.233,0.15,0.3
					c0.1-0.1,0.2-0.183,0.3-0.25C3.9-23.8,4-23.767,4-23.6c0.033,0.2,0.083,0.4,0.15,0.6c0.1,0.533,0.233,0.983,0.4,1.35
					c0.034,0.1,0.067,0.167,0.1,0.2C4.683-21.383,4.7-21.3,4.7-21.2c0.066,0.4,0.283,0.684,0.65,0.85c0.066,0.067,0.1,0.133,0.1,0.2
					c0.033,0.1,0.066,0.183,0.1,0.25c0.067,0.433,0.15,0.867,0.25,1.3c0.067,0.533,0.3,0.8,0.7,0.8c0.133,0,0.217,0.05,0.25,0.15
					c0.367,0.233,0.617,0.617,0.75,1.15c0.033,0.1,0.117,0.167,0.25,0.2c0.1,0.233,0.183,0.466,0.25,0.7
					c0.067,0.1,0.117,0.167,0.15,0.2c0.164,0.164,0.248,0.364,0.25,0.6c0.004-0.535,0.321-0.902,0.95-1.1
					c0,0.2,0.017,0.316,0.05,0.35c0.067,0.066,0.117,0.133,0.15,0.2c0.4,0.733,0.817,1.583,1.25,2.55c0-0.333,0-0.667,0-1
					c0-0.034,0-0.083,0-0.15c0-0.133,0.117-0.1,0.35,0.1c0.067,0.033,0.133,0.05,0.2,0.05c0.066,0,0.15,0.033,0.25,0.1
					c0,0.034,0.066,0.067,0.2,0.1c0.5,0.067,0.833,0.333,1,0.8c0.067,0.133,0.133,0.333,0.2,0.6c0.067-0.333,0.15-0.3,0.25,0.1
					c0.033,0.033,0.067,0.1,0.1,0.2c0.1,0.2,0.183,0.35,0.25,0.45c0.066,0.067,0.133,0.15,0.2,0.25c0,0.034,0.05,0.067,0.15,0.1
					v-0.25c0-0.267,0-0.566,0-0.9c0.133,0.033,0.183,0.183,0.15,0.45c0,0.033,0.017,0.1,0.05,0.2c0.067,0.2,0.133,0.184,0.2-0.05
					c0-0.167,0.033-0.25,0.1-0.25c0.033,0,0.083,0.083,0.15,0.25c0.167,0.3,0.417,0.5,0.75,0.6c0.033,0.033,0.083,0.066,0.15,0.1
					c0.633,0.467,1.1,0.883,1.4,1.25c0.2,0.2,0.383,0.45,0.55,0.75h0.15c0-0.066,0-0.117,0-0.15c0.267,0.1,0.417,0.217,0.45,0.35
					c0.1,0.067,0.2,0.1,0.3,0.1C18.583-8.617,18.8-8.5,19-8.3c0,0.1,0.033,0.183,0.1,0.25c0.133,0.133,0.25,0.3,0.35,0.5
					c0.233,0.466,0.617,0.767,1.15,0.9c0.1,0.033,0.183,0.066,0.25,0.1c0.133,0.1,0.283,0.2,0.45,0.3c0-0.233,0-0.483,0-0.75
					c0-0.067,0-0.15,0-0.25c0.233,0.267,0.5,0.583,0.8,0.95c0.2,0,0.35,0.05,0.45,0.15c0.034,0.033,0.083,0.05,0.15,0.05
					c0.367,0,0.75,0.05,1.15,0.15c0.1,0.034,0.2,0.083,0.3,0.15C24.517-5.6,24.8-5.35,25-5.05c0.233,0.3,0.467,0.716,0.7,1.25
					c0,0.066,0,0.133,0,0.2c0,0.233,0,0.483,0,0.75c0.033-0.4,0.2-0.483,0.5-0.25c0.033,0.067,0.083,0.184,0.15,0.35
					c0-0.367,0.066-0.5,0.2-0.4c0.1,0.066,0.15,0.133,0.15,0.2c0.066,0.2,0.216,0.333,0.45,0.4c0.067,0.033,0.133,0.05,0.2,0.05
					c0.066-0.033,0.133-0.083,0.2-0.15c0.034-0.133,0.05-0.233,0.05-0.3c0.033-0.066,0.066-0.133,0.1-0.2
					c0.033-0.033,0.133,0.033,0.3,0.2c0.067,0.067,0.117,0.167,0.15,0.3c0.067,0.1,0.15,0.25,0.25,0.45c0.233,0,0.4-0.117,0.5-0.35
					c0.3,0.167,0.517,0.4,0.65,0.7c0.133,0.233,0.35,0.5,0.65,0.8c0.033,0.066,0.1,0.1,0.2,0.1c0.167,0,0.25-0.117,0.25-0.35
					c0-0.067,0-0.15,0-0.25c0.3,0.167,0.6,0.367,0.9,0.6c0.133,0.067,0.217,0.133,0.25,0.2c0.2,0.033,0.383,0.033,0.55,0
					c0.3,0,0.517,0.05,0.65,0.15c0.067,0,0.15,0.033,0.25,0.1c0.133,0.1,0.317,0.2,0.55,0.3c0,0.034,0.034,0.05,0.1,0.05
					c0,0.033,0.017,0.05,0.05,0.05c0.066,0.033,0.117,0.067,0.15,0.1c0-0.067,0.033-0.167,0.1-0.3c0.033-0.034,0.083-0.1,0.15-0.2
					c0.1-0.067,0.183-0.1,0.25-0.1l0.1,0.1c0.6-0.467,1.316-0.717,2.15-0.75V-1.4h0.2l0.2,0.1c1.067-0.067,2.117-0.034,3.15,0.1
					c0.367,0.034,0.617-0.033,0.75-0.2c0.033-0.067,0.05-0.133,0.05-0.2c-0.1-0.566,0-0.883,0.3-0.95
					c0.167-0.034,0.317-0.067,0.45-0.1c0.033,0,0.083-0.033,0.15-0.1c0.4-0.333,0.833-0.8,1.3-1.4c0.1-0.067,0.15-0.15,0.15-0.25
					c0.133-0.1,0.284-0.217,0.45-0.35c0.2-0.2,0.383-0.45,0.55-0.75c0.067-0.167,0.2-0.267,0.4-0.3c0.233-0.1,0.533-0.15,0.9-0.15
					c0.467-0.1,0.883-0.316,1.25-0.65c0.133-0.133,0.3-0.2,0.5-0.2h0.15c0.333-0.034,0.633-0.05,0.9-0.05c0.067,0,0.133,0,0.2,0
					V-7.1H49.2z M44.75-6.4l-0.1-0.1v-0.05L44.75-6.4z"/>
				<path style="fill-rule:evenodd;clip-rule:evenodd;fill:#2E000A;" d="M27.25-70.5c0.567,0.233,1.117,0.533,1.65,0.9
					c0.3,0.167,0.583,0.333,0.85,0.5c0.467,0.3,0.9,0.617,1.3,0.95c0.034,0.066,0.1,0.066,0.2,0c0.1,0,0.167,0,0.2,0
					c0.4-0.1,0.683,0.033,0.85,0.4c0.067,0.167,0.133,0.333,0.2,0.5c0.033,0.067,0.083,0.133,0.15,0.2
					c0.667-0.1,1.05,0.15,1.15,0.75c0,0.367,0,0.716,0,1.05c0.2-0.333,0.633-0.567,1.3-0.7c0.066,0,0.133-0.066,0.2-0.2
					c0.133-0.167,0.333-0.25,0.6-0.25c0.367-0.067,0.75-0.1,1.15-0.1c0.2,0,0.367-0.083,0.5-0.25c0.067-0.067,0.167-0.1,0.3-0.1
					c1.033-0.2,1.9-0.05,2.6,0.45c0.5-0.1,0.95-0.017,1.35,0.25c0.567,0.3,1.05,0.583,1.45,0.85c0.067,0,0.117,0.017,0.15,0.05
					c0.533,0,1.033,0.167,1.5,0.5c0.434,0.367,0.6,0.85,0.5,1.45c-0.066,0.367-0.066,0.7,0,1c0.067,0.1,0.1,0.25,0.1,0.45
					c0.367-0.3,0.6-0.233,0.7,0.2l0.05,0.15c0.1,0.067,0.15,0.167,0.15,0.3c0.3-0.1,0.5-0.316,0.6-0.65
					c0-0.066,0.033-0.117,0.1-0.15c0.3,0.167,0.517,0.367,0.65,0.6c0.133,0.133,0.333,0.2,0.6,0.2c0.1-0.066,0.2-0.1,0.3-0.1
					c0.367-0.067,0.75-0.067,1.15,0c0.534,0.066,0.883,0.3,1.05,0.7c0.167,0.467,0.467,0.6,0.9,0.4c0.067-0.033,0.167-0.033,0.3,0
					c0.667,0.067,1.25,0.35,1.75,0.85c0.367,0.333,0.65,0.717,0.85,1.15c0.033,0.067,0.1,0.133,0.2,0.2
					c0.3,0.3,0.783,0.45,1.45,0.45c0.2,0,0.35,0.05,0.45,0.15c0.3,0.3,0.45,0.617,0.45,0.95c0.033,0.267,0.1,0.483,0.2,0.65
					c0.133,0.167,0.25,0.083,0.35-0.25c0-0.034,0.05-0.067,0.15-0.1c0.533-0.067,0.817,0.15,0.85,0.65
					c0.033,0.067,0.067,0.133,0.1,0.2c0.3,0.167,0.6,0.5,0.9,1c0,0.033,0.033,0.083,0.1,0.15c-0.067-0.6,0.233-0.867,0.9-0.8
					c0.067,0,0.133-0.017,0.2-0.05c0.367-0.167,0.8-0.217,1.3-0.15c0.133,0,0.3,0.017,0.5,0.05c-0.1-0.133-0.117-0.283-0.05-0.45
					c0-0.333-0.1-0.6-0.3-0.8c-0.033-0.1-0.083-0.167-0.15-0.2c-0.133-0.367-0.2-0.75-0.2-1.15c0-0.1-0.033-0.15-0.1-0.15
					c-0.3-0.367-0.617-0.667-0.95-0.9c-0.1-0.067-0.183-0.133-0.25-0.2c-0.3-0.333-0.7-0.667-1.2-1c-0.1-0.066-0.167-0.15-0.2-0.25
					c-0.2-0.133-0.367-0.316-0.5-0.55c0-0.067,0-0.15,0-0.25c-0.067-0.1-0.117-0.167-0.15-0.2c-0.133-0.167-0.317-0.267-0.55-0.3
					c-0.033,0-0.1,0-0.2,0c-0.434-0.233-0.9-0.583-1.4-1.05c-0.1-0.034-0.183-0.1-0.25-0.2c-0.2-0.2-0.216-0.483-0.05-0.85
					c0.033-0.066,0.05-0.15,0.05-0.25c-0.367,0.067-0.7,0.067-1,0c-0.066,0-0.117-0.05-0.15-0.15c0-0.1,0-0.167,0-0.2
					c-0.066-0.2-0.133-0.183-0.2,0.05c-0.2-0.2-0.317-0.467-0.35-0.8c0-0.066-0.067-0.117-0.2-0.15
					c-0.233-0.033-0.35,0.067-0.35,0.3c-0.4-0.2-0.617-0.534-0.65-1c0-0.067-0.033-0.117-0.1-0.15c-0.1-0.367-0.25-0.716-0.45-1.05
					c-0.2,0.267-0.434,0.467-0.7,0.6c-0.066,0-0.167,0.017-0.3,0.05c-0.5,0.067-0.883-0.033-1.15-0.3
					c-0.067-0.067-0.15-0.1-0.25-0.1c-0.233-0.1-0.333-0.35-0.3-0.75c-0.133,0.133-0.35,0.2-0.65,0.2c-0.1,0-0.167,0-0.2,0
					c-0.3,0.033-0.517-0.034-0.65-0.2c-0.033-0.067-0.066-0.15-0.1-0.25c-0.2-0.2-0.417-0.367-0.65-0.5
					c-0.2-0.033-0.333-0.033-0.4,0c0,0.1-0.067,0.133-0.2,0.1c-0.3,0-0.55,0.05-0.75,0.15c-0.033,0.033-0.117,0.067-0.25,0.1h-0.05
					v0.15c-0.033,0-0.083-0.017-0.15-0.05c-3.167-1.067-6.717-1.85-10.65-2.35c-0.3,0-0.583-0.017-0.85-0.05
					c-0.033,0-0.1-0.017-0.2-0.05v-0.05c-0.5-0.233-1.117-0.35-1.85-0.35c-0.133,0-0.216-0.033-0.25-0.1
					c-0.167-0.067-0.367-0.1-0.6-0.1c-0.067,0-0.117,0-0.15,0c-0.1-0.066-0.167-0.1-0.2-0.1c-0.067-0.133-0.184-0.2-0.35-0.2
					c-0.233,0.066-0.483,0.066-0.75,0c-0.033,0-0.083,0-0.15,0c-0.467-0.067-0.733,0.15-0.8,0.65c0,0.1,0.017,0.167,0.05,0.2
					c0,0.066,0.017,0.117,0.05,0.15c-0.133,0-0.3,0.017-0.5,0.05c-0.066,0.033-0.117,0.05-0.15,0.05v-0.1
					c-0.333-0.033-0.65-0.083-0.95-0.15C27.633-70.4,27.45-70.467,27.25-70.5z"/>
			</g>
			<g>
				<g>
					<path style="fill-rule:evenodd;clip-rule:evenodd;fill:#947446;" d="M42.05-8.75l-0.1,0.35c0,0.2,0.2,0.3,0.6,0.3
						c0.4,0,0.6-0.15,0.6-0.45C43.15-8.85,43-9,42.7-9C42.4-9,42.183-8.917,42.05-8.75z M45.65-7.25c0,0.233,0.117,0.367,0.35,0.4
						c0.233,0,0.35-0.133,0.35-0.4c0-0.1-0.033-0.217-0.1-0.35c-0.033-0.167-0.1-0.25-0.2-0.25C45.783-7.85,45.65-7.65,45.65-7.25z
						 M42.4-48.55l-0.15,0.2c0,0.167,0,0.267,0,0.3c0.033,0,0.067,0.033,0.1,0.1c0.1,0.034,0.267,0.034,0.5,0
						c0.267-0.1,0.433-0.25,0.5-0.45c-0.033-0.1-0.067-0.184-0.1-0.25c-0.067-0.133-0.167-0.2-0.3-0.2
						C42.683-48.85,42.5-48.75,42.4-48.55z M34.2-8.95c-0.034,0-0.05,0.067-0.05,0.2c0,0.233,0.233,0.4,0.7,0.5
						c0.433,0.1,0.65,0,0.65-0.3c0-0.3-0.15-0.45-0.45-0.45C34.917-8.967,34.633-8.95,34.2-8.95z M34.05-11.5
						c0-0.233-0.1-0.35-0.3-0.35c-0.233,0-0.383,0.05-0.45,0.15c-0.066,0.1-0.1,0.167-0.1,0.2c0,0.267,0.133,0.4,0.4,0.4
						C33.9-11.067,34.05-11.2,34.05-11.5z M36.85-9.8c-0.1,0-0.15-0.05-0.15-0.15c-0.2,0.067-0.3,0.167-0.3,0.3
						c0,0.167,0.067,0.267,0.2,0.3c0.167,0,0.25-0.1,0.25-0.3V-9.8z M35.5-11.35c0.067,0.167,0.1,0.267,0.1,0.3
						c0,0.066-0.133,0.183-0.4,0.35c0,0.3,0.15,0.4,0.45,0.3c0.333-0.1,0.5-0.333,0.5-0.7c0-0.066,0-0.167,0-0.3
						c-0.033-0.167-0.133-0.25-0.3-0.25C35.617-11.65,35.5-11.55,35.5-11.35z M36.05-12.2c0-0.333-0.133-0.5-0.4-0.5
						c-0.4,0-0.6,0.133-0.6,0.4c0,0.1,0.184,0.25,0.55,0.45C35.9-11.65,36.05-11.767,36.05-12.2z M37.5-12
						c0-0.133-0.05-0.283-0.15-0.45c-0.1-0.066-0.2-0.1-0.3-0.1c-0.267,0-0.4,0.117-0.4,0.35c0,0.133,0.133,0.284,0.4,0.45
						C37.35-11.617,37.5-11.7,37.5-12z M38.75-10.35c0.4-0.133,0.6-0.333,0.6-0.6c0-0.3-0.133-0.45-0.4-0.45
						c-0.2,0-0.35,0.05-0.45,0.15c-0.067,0.033-0.133,0.05-0.2,0.05c0,0.167,0.034,0.3,0.1,0.4c-0.167,0.1-0.25,0.167-0.25,0.2
						C38.15-10.3,38.35-10.217,38.75-10.35z M23.65-11.3c-0.167-0.2-0.3-0.3-0.4-0.3c-0.167,0-0.283,0.067-0.35,0.2l-0.05,0.2
						c0,0.167,0.183,0.317,0.55,0.45c0.367,0.1,0.55,0.033,0.55-0.2C23.95-11.05,23.85-11.167,23.65-11.3z M24.4-12.2
						c0.1,0,0.15-0.167,0.15-0.5c0-0.1-0.083-0.233-0.25-0.4c-0.2-0.2-0.45-0.3-0.75-0.3c-0.466,0-0.7,0.183-0.7,0.55
						s0.267,0.55,0.8,0.55C23.883-12.3,24.133-12.267,24.4-12.2z M28.4-12c0-0.133-0.05-0.25-0.15-0.35
						c-0.1-0.133-0.233-0.2-0.4-0.2c-0.2,0-0.35,0.083-0.45,0.25c-0.066,0.066-0.1,0.117-0.1,0.15c0.2,0.2,0.3,0.35,0.3,0.45
						c0,0.233,0.15,0.3,0.45,0.2C28.283-11.6,28.4-11.767,28.4-12z M26-11.6c-0.633,0-0.95,0.083-0.95,0.25
						c0,0.267,0.184,0.417,0.55,0.45c0.4,0.1,0.6,0,0.6-0.3C26.2-11.467,26.133-11.6,26-11.6z M29.5-14.35
						c-0.233,0-0.35,0.083-0.35,0.25c0,0.2,0.117,0.3,0.35,0.3c0.167,0,0.25-0.083,0.25-0.25C29.75-14.25,29.667-14.35,29.5-14.35z
						 M28.6-15.4c0-0.1-0.05-0.217-0.15-0.35c-0.1-0.033-0.217-0.05-0.35-0.05c-0.233,0-0.383,0.083-0.45,0.25v0.25
						c0,0.267,0.15,0.417,0.45,0.45C28.433-14.85,28.6-15.033,28.6-15.4z M26.3-13.45c0-0.167-0.017-0.267-0.05-0.3
						s-0.133-0.117-0.3-0.25H25.5c-0.233,0.167-0.35,0.3-0.35,0.4c0,0.333,0.2,0.533,0.6,0.6C26.117-12.967,26.3-13.117,26.3-13.45z
						 M27.15-17.9L27-17.5c0,0.433,0.167,0.5,0.5,0.2c0.367-0.267,0.55-0.5,0.55-0.7s-0.133-0.3-0.4-0.3
						C27.417-18.3,27.25-18.167,27.15-17.9z M28.9-17.9c0,0.333,0.1,0.467,0.3,0.4c0.1-0.067,0.283-0.167,0.55-0.3
						c0.133,0,0.283-0.133,0.45-0.4c-0.233-0.2-0.383-0.3-0.45-0.3H29.3c-0.2,0.133-0.333,0.217-0.4,0.25
						C28.9-18.183,28.9-18.067,28.9-17.9z M29.45-17.35c-0.233,0-0.383,0.083-0.45,0.25l-0.05,0.25c0,0.3,0.133,0.4,0.4,0.3
						c0.267-0.133,0.4-0.3,0.4-0.5C29.75-17.25,29.65-17.35,29.45-17.35z M23.85-15.05c0-0.267-0.067-0.434-0.2-0.5h-0.8
						c-0.2,0.233-0.3,0.383-0.3,0.45c0,0.233,0.05,0.35,0.15,0.35c0.1,0,0.183-0.033,0.25-0.1c0.1-0.033,0.167-0.05,0.2-0.05
						c0.067,0,0.233,0.083,0.5,0.25C23.783-14.583,23.85-14.717,23.85-15.05z M21.65-12.85c-0.233,0-0.4,0.05-0.5,0.15l-0.05,0.2
						c0,0.8,0.117,1.117,0.35,0.95c0.3-0.2,0.45-0.5,0.45-0.9C21.9-12.717,21.817-12.85,21.65-12.85z M21.5-14.2
						c0-0.2-0.1-0.3-0.3-0.3c-0.133,0-0.217,0.05-0.25,0.15c-0.034,0.033-0.05,0.083-0.05,0.15c0,0.1,0.05,0.184,0.15,0.25
						c0.034,0,0.083,0,0.15,0C21.4-13.95,21.5-14.033,21.5-14.2z M24.65-18.6c0.2,0.067,0.3,0.017,0.3-0.15
						c0-0.067-0.067-0.133-0.2-0.2c-0.067-0.066-0.117-0.117-0.15-0.15c-0.167,0.067-0.25,0.167-0.25,0.3S24.45-18.6,24.65-18.6z
						 M20.3-20c0.067-0.033,0.1-0.1,0.1-0.2c0-0.033-0.017-0.083-0.05-0.15c0-0.033-0.083-0.05-0.25-0.05
						c-0.133,0-0.217,0.066-0.25,0.2L19.8-20c-0.066,0.033-0.1,0.117-0.1,0.25c0,0.033,0.017,0.083,0.05,0.15h0.65
						c0-0.033,0-0.083,0-0.15s0-0.117,0-0.15C20.333-19.933,20.3-19.967,20.3-20z M20.4-21.35c0.333,0.1,0.6,0.133,0.8,0.1
						c0.2-0.033,0.383-0.25,0.55-0.65c-0.067-0.133-0.25-0.233-0.55-0.3c-0.367,0.233-0.6,0.417-0.7,0.55
						C20.467-21.517,20.433-21.417,20.4-21.35z M22-20.2c0,0.3,0.183,0.417,0.55,0.35c0.333-0.1,0.5-0.283,0.5-0.55
						c0-0.3-0.133-0.45-0.4-0.45c-0.3,0-0.483,0.1-0.55,0.3L22-20.2z M22.4-23c0,0.167,0.083,0.267,0.25,0.3
						c0.2,0.034,0.3-0.05,0.3-0.25c0-0.233-0.1-0.35-0.3-0.35l-0.25,0.1V-23z M22.55-21.9c0,0.4,0.15,0.6,0.45,0.6
						s0.45-0.2,0.45-0.6c0.066-0.267-0.1-0.4-0.5-0.4c-0.133,0-0.233,0.05-0.3,0.15C22.583-22.017,22.55-21.933,22.55-21.9z
						 M20.3-23.7v0.2c0,0.4,0.167,0.6,0.5,0.6c0.333-0.033,0.5-0.233,0.5-0.6c0-0.333-0.167-0.5-0.5-0.5
						C20.533-24,20.367-23.9,20.3-23.7z M30.15-20.35c0-0.267-0.1-0.4-0.3-0.4c-0.233,0-0.35,0.117-0.35,0.35
						c0,0.367,0.117,0.55,0.35,0.55C30.05-19.85,30.15-20.017,30.15-20.35z M27.4-22.6c0,0.2,0.217,0.35,0.65,0.45
						c0.333,0.133,0.5-0.033,0.5-0.5c0-0.133-0.033-0.25-0.1-0.35c-0.1-0.2-0.233-0.3-0.4-0.3c-0.2,0-0.367,0.133-0.5,0.4
						C27.45-22.767,27.4-22.667,27.4-22.6z M40.25-13.8c-0.1-0.1-0.2-0.15-0.3-0.15c-0.233,0-0.35,0.083-0.35,0.25
						c0,0.267,0.117,0.4,0.35,0.4c0.233,0,0.35-0.1,0.35-0.3C40.3-13.7,40.283-13.767,40.25-13.8z M39.1-14.55
						c0.3-0.067,0.45-0.25,0.45-0.55c0-0.3-0.117-0.45-0.35-0.45c-0.167,0-0.25,0.066-0.25,0.2s0,0.217,0,0.25l-0.15-0.05
						c-0.131,0.197-0.198,0.264-0.2,0.2C38.601-14.65,38.768-14.517,39.1-14.55z M36.75-14.65c-0.1,0.1-0.15,0.183-0.15,0.25
						c0,0.133,0.05,0.233,0.15,0.3H37c0.2,0,0.383,0.017,0.55,0.05c0.067,0,0.1-0.167,0.1-0.5c0-0.233-0.117-0.35-0.35-0.35
						C37.033-14.9,36.85-14.817,36.75-14.65z M35.9-16.15c-0.167,0-0.267,0.1-0.3,0.3l-0.1,0.25c0,0.267,0.117,0.367,0.35,0.3
						c0.3-0.133,0.45-0.284,0.45-0.45C36.3-16.017,36.167-16.15,35.9-16.15z M37.95-15.55c0.267,0.033,0.4-0.133,0.4-0.5
						c0-0.267-0.117-0.4-0.35-0.4c-0.2,0-0.367,0.05-0.5,0.15c0,0.1,0,0.167,0,0.2C37.5-15.867,37.65-15.683,37.95-15.55z
						 M35.05-14.75c-0.167,0-0.3,0.067-0.4,0.2c-0.033,0.033-0.05,0.083-0.05,0.15c0,0.2,0.117,0.3,0.35,0.3
						c0.233,0,0.35-0.066,0.35-0.2C35.233-14.6,35.15-14.75,35.05-14.75z M31.45-16.3h-0.4c-0.267,0.133-0.4,0.283-0.4,0.45
						c0,0.133,0.184,0.267,0.55,0.4c0.333,0.1,0.5-0.066,0.5-0.5C31.7-16.05,31.617-16.167,31.45-16.3z M32.2-18.2
						c0-0.1-0.034-0.2-0.1-0.3c-0.1-0.167-0.217-0.25-0.35-0.25c-0.333,0-0.567,0.083-0.7,0.25l-0.1,0.25
						c0,0.233,0.216,0.433,0.65,0.6C32-17.483,32.2-17.667,32.2-18.2z M31.6-24.15c0-0.1-0.1-0.233-0.3-0.4l-0.5,0.05
						c-0.167,0.133-0.25,0.25-0.25,0.35c0,0.3,0.184,0.433,0.55,0.4C31.433-23.75,31.6-23.883,31.6-24.15z M19.55-22.65l-0.75,0.1
						c-0.033-0.034-0.05,0.017-0.05,0.15c0,0.233,0.333,0.233,1,0c0-0.1,0-0.167,0-0.2C19.717-22.633,19.65-22.65,19.55-22.65z
						 M18.2-22.5c0.233,0.067,0.35-0.017,0.35-0.25c0-0.067-0.033-0.133-0.1-0.2c-0.067-0.167-0.15-0.25-0.25-0.25
						c-0.1,0-0.2,0.05-0.3,0.15c-0.033,0.066-0.05,0.117-0.05,0.15C17.85-22.733,17.967-22.6,18.2-22.5z M16-25.6
						c0-0.133,0-0.217,0-0.25c-0.067-0.066-0.133-0.1-0.2-0.1c-0.333,0-0.533,0.034-0.6,0.1c-0.034,0.033-0.05,0.117-0.05,0.25
						c0,0.233,0.15,0.317,0.45,0.25C15.867-25.383,16-25.467,16-25.6z M16.3-29.5h-0.8c-0.1,0.033-0.15,0.117-0.15,0.25
						c0,0.233,0.2,0.367,0.6,0.4c0.4,0.1,0.6-0.017,0.6-0.35C16.55-29.367,16.467-29.467,16.3-29.5z M18.55-29.8
						c0-0.067-0.066-0.133-0.2-0.2c-0.1-0.1-0.184-0.15-0.25-0.15c-0.1,0-0.167,0.05-0.2,0.15c-0.033,0.033-0.05,0.1-0.05,0.2
						c0,0.2,0.117,0.3,0.35,0.3C18.433-29.567,18.55-29.667,18.55-29.8z M13.45-27.25c0.333,0,0.5-0.15,0.5-0.45
						c0-0.033-0.017-0.1-0.05-0.2c-0.066-0.1-0.117-0.15-0.15-0.15c-0.1,0-0.267,0.05-0.5,0.15s-0.35,0.167-0.35,0.2
						C12.9-27.5,13.083-27.35,13.45-27.25z M10.5-26.15c-0.167-0.1-0.483-0.15-0.95-0.15c-0.167,0-0.267,0.05-0.3,0.15
						C9.217-26.083,9.2-26,9.2-25.9c0,0.133,0.233,0.283,0.7,0.45c0.467,0.167,0.7,0.017,0.7-0.45C10.6-26,10.567-26.083,10.5-26.15
						z M12.15-30.15c0,0.133,0.083,0.2,0.25,0.2c0.267,0,0.4-0.1,0.4-0.3c0-0.167-0.1-0.25-0.3-0.25
						C12.267-30.5,12.15-30.383,12.15-30.15z M14.1-30.25c-0.233,0-0.383,0.067-0.45,0.2l-0.05,0.2c0,0.167,0.117,0.25,0.35,0.25
						c0.267,0,0.4-0.117,0.4-0.35C14.35-30.15,14.267-30.25,14.1-30.25z M13.3-31.3c0,0.133,0.05,0.216,0.15,0.25
						c0.033,0.066,0.183,0.1,0.45,0.1c0.2,0,0.333-0.033,0.4-0.1c0.034,0,0.05-0.067,0.05-0.2c0-0.3-0.15-0.45-0.45-0.45
						c-0.267,0-0.433,0.05-0.5,0.15C13.333-31.45,13.3-31.367,13.3-31.3z M11.75-31.9c0-0.133-0.067-0.267-0.2-0.4H11
						c-0.167,0.133-0.283,0.233-0.35,0.3c-0.033,0.067-0.05,0.133-0.05,0.2c0,0.3,0.2,0.45,0.6,0.45
						C11.567-31.35,11.75-31.533,11.75-31.9z M10.65-33.8c0-0.034-0.05-0.117-0.15-0.25c-0.033-0.067-0.067-0.1-0.1-0.1
						s-0.15,0.017-0.35,0.05v0.35c0.2,0.1,0.383,0.15,0.55,0.15L10.65-33.8z M20.1-33.8c0.5,0,0.75-0.233,0.75-0.7
						c0-0.567-0.167-0.85-0.5-0.85c-0.333,0-0.633,0.184-0.9,0.55l-0.2,0.45C19.25-33.983,19.533-33.8,20.1-33.8z M8.65-31.1
						c0.067,0.1,0.2,0.117,0.4,0.05c0.267,0.4,0.55,0.566,0.85,0.5c0.233-0.034,0.35-0.184,0.35-0.45c0-0.133-0.083-0.25-0.25-0.35
						c-0.133-0.133-0.333-0.2-0.6-0.2H8.8c-0.066,0-0.1,0.017-0.1,0.05c-0.067,0.067-0.1,0.133-0.1,0.2L8.65-31.1z M5.7-49.15
						c-0.2,0-0.4,0.1-0.6,0.3c-0.2,0.233-0.3,0.367-0.3,0.4c0,0.667,0.217,0.85,0.65,0.55c0.433-0.167,0.733-0.483,0.9-0.95
						C6.283-49.05,6.067-49.15,5.7-49.15z M19.45-41.95c-0.034,0-0.05,0.117-0.05,0.35c0,0.167,0.067,0.283,0.2,0.35
						c0.167,0.067,0.367,0.067,0.6,0c0-0.1,0.033-0.283,0.1-0.55v-0.1c0-0.033-0.066-0.05-0.2-0.05H19.45z M21.9-37.95h-0.1
						l-0.05,0.05c0,0.033,0,0.117,0,0.25c0,0.2,0.017,0.35,0.05,0.45c0.2,0.2,0.5,0.25,0.9,0.15c0-0.067,0.017-0.117,0.05-0.15
						c0.067,0,0.1-0.083,0.1-0.25c0-0.433-0.233-0.65-0.7-0.65C22.017-38.1,21.933-38.05,21.9-37.95z M27.55-47.15
						c0,0.4,0.284,0.633,0.85,0.7c0.6,0.133,0.9-0.05,0.9-0.55c0-0.533-0.183-0.8-0.55-0.8c-0.6,0-0.967,0.117-1.1,0.35L27.55-47.15
						z M10.6-50.7c-0.167-0.167-0.383-0.25-0.65-0.25c-0.633,0-0.95,0.167-0.95,0.5c0,0.633,0.3,0.95,0.9,0.95
						c0.6,0.1,0.9-0.15,0.9-0.75C10.8-50.383,10.733-50.533,10.6-50.7z M10.8-52.75l-0.05,0.45c0,0.4,0.167,0.6,0.5,0.6
						c0.333-0.066,0.5-0.267,0.5-0.6c0-0.2-0.167-0.4-0.5-0.6L10.8-52.75z M47.15-51.3l-0.2,0.1c-0.034,0.034-0.05,0.133-0.05,0.3
						c0,0.133,0.017,0.233,0.05,0.3l0.2,0.05l0.25-0.05c0.1-0.066,0.15-0.167,0.15-0.3v-0.25L47.15-51.3z M43.3-52.65
						c0,0.433,0.267,0.667,0.8,0.7c0.533,0.1,0.8-0.15,0.8-0.75c0-0.5-0.283-0.75-0.85-0.75C43.55-53.45,43.3-53.183,43.3-52.65z
						 M44.5-50.55c-0.367,0-0.583,0.1-0.65,0.3v0.3c0,0.4,0.3,0.75,0.9,1.05c0.567,0.233,0.85-0.033,0.85-0.8
						c0-0.267-0.033-0.45-0.1-0.55C45.333-50.45,45-50.55,44.5-50.55z"/>
					<path style="fill-rule:evenodd;clip-rule:evenodd;fill:#931834;" d="M40-19.75c0.5,0.067,0.75-0.183,0.75-0.75
						c-0.233-0.533-0.5-0.8-0.8-0.8c-0.367,0-0.6,0.066-0.7,0.2c-0.033,0.067-0.05,0.184-0.05,0.35
						C39.2-20.183,39.467-19.85,40-19.75z M6.65-21.2c0-0.066,0.05-0.167,0.15-0.3c0-0.1-0.05-0.2-0.15-0.3
						c-0.267,0.133-0.433,0.316-0.5,0.55L6.65-21.2z M15.3-13.3c0,0.333,0.233,0.533,0.7,0.6c0.4,0.034,0.6-0.167,0.6-0.6
						c0-0.133-0.083-0.25-0.25-0.35c-0.133-0.067-0.25-0.1-0.35-0.1c-0.2,0-0.417,0.033-0.65,0.1C15.317-13.617,15.3-13.5,15.3-13.3
						z M14.1-14.55c0.733,0.3,1.1,0,1.1-0.9c0-0.566-0.417-0.85-1.25-0.85c-0.467,0-0.784,0.117-0.95,0.35
						c-0.033,0.233-0.05,0.367-0.05,0.4C12.95-15.183,13.333-14.85,14.1-14.55z M14.75-17.7c-0.033-0.533-0.3-0.8-0.8-0.8
						c-0.333,0-0.567,0.133-0.7,0.4c-0.067,0.133-0.1,0.267-0.1,0.4c0,0.434,0.267,0.7,0.8,0.8C14.483-16.8,14.75-17.067,14.75-17.7
						z M5.4-29.2H4.35c-0.133,0.1-0.2,0.284-0.2,0.55c0,0.333,0.283,0.6,0.85,0.8c0.533,0.167,0.8-0.05,0.8-0.65
						C5.8-28.733,5.667-28.967,5.4-29.2z M4-32.1c-0.1,0.167-0.15,0.317-0.15,0.45c0,0.467,0.3,0.733,0.9,0.8
						c0.533,0.067,0.8-0.2,0.8-0.8c-0.066-0.533-0.35-0.8-0.85-0.8C4.367-32.45,4.133-32.333,4-32.1z M14.05-44.95L13.8-44.6
						c0,0.333,0.3,0.533,0.9,0.6c0.566,0.067,0.85-0.15,0.85-0.65c0-0.467-0.3-0.7-0.9-0.7C14.417-45.35,14.217-45.217,14.05-44.95z
						 M17.55-45.4c0,0.667,0.217,0.983,0.65,0.95c0.5-0.033,0.75-0.4,0.75-1.1c0-0.333-0.2-0.5-0.6-0.5
						c-0.333,0-0.583,0.117-0.75,0.35L17.55-45.4z M38.8-25.45l-0.1,0.4c0,0.267,0.216,0.367,0.65,0.3c0.4,0,0.6-0.2,0.6-0.6
						c0-0.167-0.017-0.316-0.05-0.45c-0.033-0.067-0.133-0.1-0.3-0.1C39.167-25.9,38.9-25.75,38.8-25.45z M35.6-27.25
						c-0.067,0.267-0.1,0.417-0.1,0.45c0,0.5,0.267,0.7,0.8,0.6c0.5-0.1,0.75-0.367,0.75-0.8c0-0.4-0.216-0.6-0.65-0.6
						C36-27.6,35.733-27.483,35.6-27.25z M30.95-28.8c0,0.367,0.183,0.466,0.55,0.3c0.367-0.133,0.55-0.317,0.55-0.55
						c0-0.267-0.017-0.367-0.05-0.3c-0.033-0.1-0.167-0.15-0.4-0.15s-0.4,0.117-0.5,0.35L30.95-28.8z M34.65-29.65
						c0-0.2,0-0.333,0-0.4c-0.1-0.067-0.2-0.1-0.3-0.1c-0.567,0-0.917,0.066-1.05,0.2l-0.1,0.25c0,0.367,0.25,0.633,0.75,0.8
						C34.417-28.733,34.65-28.983,34.65-29.65z M26.7-27.1c-0.8,0-1.2,0.25-1.2,0.75c0,0.333,0.3,0.5,0.9,0.5s0.9-0.217,0.9-0.65
						C27.3-26.9,27.1-27.1,26.7-27.1z M28.1-30c-0.1,0-0.184,0.017-0.25,0.05c-0.033,0.067-0.067,0.117-0.1,0.15
						c-0.2,0.3-0.167,0.55,0.1,0.75c0.3,0.233,0.633,0.167,1-0.2C28.583-29.75,28.333-30,28.1-30z M23.65-47.15
						c-0.4,0.233-0.6,0.433-0.6,0.6c0,0.233,0.034,0.367,0.1,0.4c0.067,0.167,0.3,0.183,0.7,0.05l0.1-0.05c0-0.033,0-0.133,0-0.3
						C23.95-46.683,23.85-46.917,23.65-47.15z M28.1-44.8c-0.3,0-0.5,0.083-0.6,0.25v0.25c0,0.333,0.2,0.5,0.6,0.5
						s0.6-0.167,0.6-0.5C28.7-44.633,28.5-44.8,28.1-44.8z M26-44.45c0-0.1-0.05-0.2-0.15-0.3S25.6-44.9,25.4-44.9
						c-0.167,0-0.383,0.117-0.65,0.35C24.883-44.183,25.133-44,25.5-44C25.833-44,26-44.15,26-44.45z"/>
				</g>
			</g>
		</g>
		<g>
			<g>
				<path style="fill-rule:evenodd;clip-rule:evenodd;fill:#453726;" d="M42.05-47.3c-0.066-0.2-0.15-0.45-0.25-0.75
					c0.233,0.2,0.583,0.633,1.05,1.3c0.066,0.1,0.45,0.683,1.15,1.75c-0.667-1.2-1.067-1.933-1.2-2.2l-0.05-0.05
					C42.517-47.65,42.267-48,42-48.3c-0.133-0.2-0.283-0.4-0.45-0.6c0-0.033,0-0.067,0-0.1c-0.033-0.133-0.083-0.267-0.15-0.4
					c-0.1-0.133-0.2-0.3-0.3-0.5c-0.533-1-0.9-1.917-1.1-2.75c0-0.133-0.017-0.267-0.05-0.4c-0.067-0.434,0.017-0.9,0.25-1.4
					c0.267-0.566,0.65-0.85,1.15-0.85c0.3,0,0.717,0.333,1.25,1c0.533,0.566,1.15,1.383,1.85,2.45c0.433,0.5,0.9,1.083,1.4,1.75
					l1.4,2.5c0.067,0.367,0.117,0.717,0.15,1.05c0.367,0.5,0.567,0.9,0.6,1.2c0.233,1.333,0.25,2.283,0.05,2.85
					c-0.167,0.433-0.533,0.783-1.1,1.05L45-40.55c-0.7,0.433-1.367,1-2,1.7l-0.2,1l-0.05,0.5c0.267-0.867,0.5-1.383,0.7-1.55
					c0.667-0.6,1.133-1,1.4-1.2c0.233-0.167,0.383-0.25,0.45-0.25c0.5-0.267,1.333-0.583,2.5-0.95c0.133,1,0.217,1.783,0.25,2.35
					c0,0.434,0,1,0,1.7c0,0.167,0.017,0.35,0.05,0.55c0,0.133,0,0.267,0,0.4c0.066,0.033,0.2,0.933,0.4,2.7v0.2
					c0.1-0.233,0.133-1.283,0.1-3.15c0-0.1,0-0.2,0-0.3c0-0.233-0.017-0.45-0.05-0.65c0-1.433,0.034-2.7,0.1-3.8v-0.1
					c0-0.1,0.017-0.233,0.05-0.4v-0.1c-0.034-0.267-0.034-0.533,0-0.8c-0.034-0.333-0.083-0.65-0.15-0.95
					c-0.267-1.5-0.4-2.45-0.4-2.85h0.25c1.4,1.967,2.417,3.9,3.05,5.8c0.133,0.333,0.3,0.85,0.5,1.55c0.167,0.566,0.35,1.233,0.55,2
					c0.167,0.7,0.35,1.45,0.55,2.25c0-0.067-0.05-0.367-0.15-0.9c-0.133-0.434-0.25-0.85-0.35-1.25c-0.2-0.9-0.367-1.6-0.5-2.1
					c-0.133-0.633-0.216-0.95-0.25-0.95c-0.233-1.133-0.583-2.267-1.05-3.4v-0.05c-0.5-1.267-1-2.5-1.5-3.7
					c-0.2-0.533-0.433-1.083-0.7-1.65v-0.05c-0.066-0.133-0.133-0.283-0.2-0.45c-0.133-0.267-0.783-1.283-1.95-3.05
					c-0.133-0.2-0.25-0.383-0.35-0.55c1.7,0.467,3.583,1.3,5.65,2.5c0.367,0.2,0.733,0.417,1.1,0.65c0.233,0.167,0.5,0.333,0.8,0.5
					c0,0.133-0.017,0.267-0.05,0.4c0,0.067,0,0.133,0,0.2c0.067,0.867,0.15,1.6,0.25,2.2c0,0.033,0.017,0.066,0.05,0.1
					c0,0.133,0.017,0.267,0.05,0.4c0,0.066,0.167,0.6,0.5,1.6c0.333,1.034,0.583,1.75,0.75,2.15c0.1,0.267,0.1,0.1,0-0.5
					c-0.066-0.267-0.133-0.617-0.2-1.05c-0.3-1.4-0.467-2.133-0.5-2.2c0-0.133,0.017-0.267,0.05-0.4v-0.05
					c0.1-0.8,0.183-1.483,0.25-2.05v-0.05c0.067,0.067,0.167,0.15,0.3,0.25c0.7,0.567,1.434,1.217,2.2,1.95
					c0.267,0.2,0.5,0.417,0.7,0.65c0.767,0.733,1.55,1.55,2.35,2.45c0.034,0-0.483-0.684-1.55-2.05
					c-0.133-0.167-0.267-0.35-0.4-0.55c-0.3-0.367-0.633-0.783-1-1.25c-0.633-0.8-1.184-1.5-1.65-2.1c-0.267-0.133-0.6-0.333-1-0.6
					c-0.667-0.5-1.167-0.816-1.5-0.95c-0.1-0.034-0.284-0.117-0.55-0.25c-0.2-0.067-0.417-0.15-0.65-0.25
					c-0.433-0.233-0.883-0.417-1.35-0.55c-1.066-0.367-2.25-0.917-3.55-1.65c-1.767-1.033-2.767-1.6-3-1.7l0.05,0.15
					c0.033,0.2,0.133,0.367,0.3,0.5l0.05,0.1c-0.1-0.133-0.3-0.367-0.6-0.7c-0.4-0.5-1.033-1.233-1.9-2.2
					c-1.3-1.633-2.033-2.95-2.2-3.95c-0.033-0.067-0.033-0.2,0-0.4c-0.566-1.633-1.083-3.233-1.55-4.8
					c-0.533-1.667-0.983-3.317-1.35-4.95c-0.5-2.2-0.9-4.333-1.2-6.4c-0.167-1.167-0.3-2.367-0.4-3.6v-0.05
					c1.6,1.833,2.784,3.25,3.55,4.25c1.767,2.333,2.983,4.5,3.65,6.5c0.8,2.267,1.483,4.917,2.05,7.95
					c0.467,2.433,0.7,4.133,0.7,5.1c0.167-0.466,0.283-1.033,0.35-1.7c0.1-0.867,0.15-1.767,0.15-2.7c0-0.5-0.183-1.7-0.55-3.6
					c0.767,0.534,1.483,1.767,2.15,3.7c0.467,1.433,0.816,2.867,1.05,4.3c-0.066-2-0.367-3.733-0.9-5.2c-0.5-1.434-1.417-3.1-2.75-5
					c-0.1-0.533-0.217-1.1-0.35-1.7c-0.066-0.233-0.117-0.467-0.15-0.7c-0.067,0.667-0.1,1.017-0.1,1.05
					c-0.7-1.8-1.417-3.383-2.15-4.75c-0.2-0.433-0.9-1.683-2.1-3.75c-0.8-1.4-2.566-3.65-5.3-6.75c-0.267,0-0.583,0.383-0.95,1.15
					c-0.1-0.1-0.183-0.2-0.25-0.3c0.1-0.6,0.3-1.417,0.6-2.45c0.167-0.533,0.383-1.167,0.65-1.9c0.133,0.333,0.283,0.667,0.45,1
					c0.033-2.7,0.217-5.467,0.55-8.3c0.733-5.7,1.15-11.517,1.25-17.45c0.067-4.8-0.066-9.633-0.4-14.5
					c-0.033-0.667-0.083-1.333-0.15-2c0.433-1.267,1.816-2.317,4.15-3.15c1-0.367,2.117-0.684,3.35-0.95
					c1.1-0.167,1.65-0.267,1.65-0.3c0.8-0.167,1.533-0.434,2.2-0.8c0.367-0.2,0.883-0.483,1.55-0.85c1.4-0.667,3.667-0.967,6.8-0.9
					c0-0.167,0.083-0.25,0.25-0.25c-0.167-0.167-0.333-0.3-0.5-0.4c-3.867,0.033-7.233,0.567-10.1,1.6
					c-0.767,0.267-1.7,0.633-2.8,1.1c-0.833,0.333-1.517,0.5-2.05,0.5c-0.967-0.434-1.517-0.65-1.65-0.65
					c-0.7,0-1.633,0.233-2.8,0.7c-0.233,0.067-0.883,0.333-1.95,0.8c-0.034-0.2,0.15-0.467,0.55-0.8c0.2-0.167,0.367-0.316,0.5-0.45
					c0.367-0.3,0.567-0.45,0.6-0.45c0.367-0.233,0.7-0.467,1-0.7l0.1-0.05c0.167-0.1,0.3-0.2,0.4-0.3c0.033,0,0.066,0,0.1,0
					c0.433-0.233,1.083-0.467,1.95-0.7c0.934-0.233,1.917-0.433,2.95-0.6c0.367-0.033,0.75-0.233,1.15-0.6
					c0.467-0.4,0.783-0.633,0.95-0.7c0.1-0.067,0.6-0.217,1.5-0.45c0.566-0.167,0.95-0.333,1.15-0.5
					c-0.167-0.066-0.483-0.15-0.95-0.25c-0.467-0.066-0.85-0.1-1.15-0.1c-0.333,0-1.017,0.15-2.05,0.45H43
					c-0.067,0.033-0.117,0.067-0.15,0.1c-0.133,0.1-0.5,0.367-1.1,0.8c-0.567,0.4-1.467,0.583-2.7,0.55
					c-0.133,0-0.267,0.017-0.4,0.05c-0.767,0.333-1.467,0.75-2.1,1.25c-1.066,0.867-2.183,1.3-3.35,1.3c-0.034,0-2.1-0.4-6.2-1.2
					c-0.733-0.167-1.417-0.3-2.05-0.4c-1.367,0.367-2.167,0.55-2.4,0.55c0.233,0.067,0.483,0.167,0.75,0.3
					c0.667,0.333,1.25,0.517,1.75,0.55c0.967,0.066,1.65,0.167,2.05,0.3c0.633,0.2,1.233,0.6,1.8,1.2
					c0.067,0.1,0.25,0.183,0.55,0.25c0.333,0.066,0.816,0.1,1.45,0.1c0.9,0,1.517,0.25,1.85,0.75c0.033,0.066,0.05,0.133,0.05,0.2
					c0.167,1.7,0.233,2.667,0.2,2.9c0.067-0.033,0.133-0.05,0.2-0.05c0.2-0.033,0.483-0.05,0.85-0.05
					c0.034,0.2-0.017,0.767-0.15,1.7c-0.133,0.9-0.167,1.55-0.1,1.95c0.034,0.167,0.15,0.617,0.35,1.35
					c0.233,0.767,0.383,1.2,0.45,1.3l0.3,1.75c-0.133-0.167-0.3-0.4-0.5-0.7c-0.3-0.466-0.65-1.15-1.05-2.05
					c-0.233-0.467-0.417-0.883-0.55-1.25c-0.033,0.667-0.066,1.417-0.1,2.25c-0.067,3.333-0.1,5.017-0.1,5.05
					c0.066,0.434,0.333,1.083,0.8,1.95s0.717,1.433,0.75,1.7c0.067,0.267-0.25,1.167-0.95,2.7c-0.767,1.7-1.2,2.95-1.3,3.75
					c-0.133,1-0.033,2.517,0.3,4.55c0.333,1.966,0.433,3.167,0.3,3.6h1.4c0.4-0.466,0.783-0.783,1.15-0.95
					c-1.033,2.267-1.566,3.417-1.6,3.45c-0.333,0.9-0.667,1.85-1,2.85c-0.133,0.467-0.284,0.934-0.45,1.4
					c-0.133,0.534-0.183,1.3-0.15,2.3c0.066,0.8-0.1,1.617-0.5,2.45c-0.434,1.034-0.783,2.2-1.05,3.5c-0.2,1.133-0.25,1.9-0.15,2.3
					c0.167,0.2,0.383,0.3,0.65,0.3c0.434,0,0.883-0.733,1.35-2.2c0.233-0.633,0.4-1.267,0.5-1.9c-0.066,0.7-0.117,1.317-0.15,1.85
					c-0.1,1.367-0.133,2.133-0.1,2.3c0.033,0.233,0.117,0.45,0.25,0.65c0.167,0.233,0.25,0.383,0.25,0.45
					c0.067,0.434-0.1,1.083-0.5,1.95c-0.433,0.933-0.65,1.517-0.65,1.75c0.067,1.433,0.183,2.65,0.35,3.65
					c0.133,0.333,0.217,0.583,0.25,0.75h0.25c0,0.067-0.017,0.15-0.05,0.25c0,0.033,0,0.067,0,0.1c0,0.767,0.15,1.583,0.45,2.45
					c0.467,1.066,0.717,1.733,0.75,2c0.033,0.3-0.433,0.733-1.4,1.3c-0.067,0.033-0.15,0.067-0.25,0.1
					c-0.9,0.5-1.733,0.783-2.5,0.85c-0.8,0.1-1.883,0.433-3.25,1c-1.333,0.533-2.333,0.85-3,0.95c-1.267,0.2-2.65,1.05-4.15,2.55
					c-0.2,0.2-0.6,0.633-1.2,1.3c-0.7,0.8-1.683,1.95-2.95,3.45c0.4-0.4,0.983-0.95,1.75-1.65c0.267-0.267,0.517-0.5,0.75-0.7
					c-0.233,1.667-0.383,2.733-0.45,3.2c-0.233,1.133-0.5,2.034-0.8,2.7c0.167-0.2,0.317-0.417,0.45-0.65
					c0.4-0.767,0.667-1.5,0.8-2.2c0.133-0.667,0.284-1.5,0.45-2.5c0.067-0.5,0.117-0.867,0.15-1.1c0.467-0.433,0.817-0.75,1.05-0.95
					c0.133-0.067,0.233-0.117,0.3-0.15c0.633-0.4,1.733-0.934,3.3-1.6c0.333-0.133,0.633-0.25,0.9-0.35
					c0.3-0.1,0.583-0.183,0.85-0.25c0.133-0.067,1.217-0.167,3.25-0.3c0.434-0.034,0.883-0.067,1.35-0.1
					c0.7-0.033,1.25-0.083,1.65-0.15c-0.066,0.233-0.3,0.633-0.7,1.2c-0.167,0.2-0.283,0.434-0.35,0.7
					c-0.1,0.3-0.183,0.533-0.25,0.7c-0.767,0.4-1.483,0.85-2.15,1.35c-0.967,0.733-1.583,1.467-1.85,2.2c0.5-0.667,1.3-1.333,2.4-2
					c0.533-0.333,1.017-0.583,1.45-0.75c-0.133,0.633-0.217,1.217-0.25,1.75c-0.033,0.433-0.017,0.833,0.05,1.2
					c0.167-0.6,0.367-1.267,0.6-2c0.133-0.466,0.25-0.9,0.35-1.3c0.167-0.5,0.3-0.917,0.4-1.25c0.267-0.7,0.567-1.283,0.9-1.75
					c0.667-0.9,1.434-1.35,2.3-1.35c0.233,0,0.517-0.033,0.85-0.1c0.3-0.066,0.617,0.583,0.95,1.95c0.067,0.267,0.133,0.567,0.2,0.9
					c0.4,1.967,0.117,3.517-0.85,4.65c-0.6,0.7-1.517,1.383-2.75,2.05c-0.733,0.367-1.583,0.733-2.55,1.1
					c-1.267,0.466-2.4,0.966-3.4,1.5c-1.167,0.6-2.133,1.25-2.9,1.95c-2.2,2-3.85,4.9-4.95,8.7c-0.033,0.133-0.083,0.267-0.15,0.4
					c0.133-0.167,0.25-0.317,0.35-0.45c0.333-0.633,0.567-1.267,0.7-1.9c0.233-1.033,1.4-2.65,3.5-4.85
					c0.4,0.1,0.767,0.217,1.1,0.35c1.034,0.434,1.934,1.067,2.7,1.9c0.067,0.1,0.133,0.184,0.2,0.25c0.066,0.1,0.133,0.184,0.2,0.25
					c0.4,0.534,0.733,1.067,1,1.6c0.067,0.133,0.133,0.283,0.2,0.45c0.233,0.533,0.4,1.066,0.5,1.6c-0.033-0.3-0.033-0.883,0-1.75
					c0-0.167,0-0.35,0-0.55c0-0.1,0-0.217,0-0.35c-0.333-0.466-0.733-1-1.2-1.6v-0.05c-0.7-0.867-1.517-1.9-2.45-3.1
					c0.5-0.667,1.117-1.25,1.85-1.75c0.967-0.633,2.117-1.15,3.45-1.55c0.3-0.1,0.617-0.2,0.95-0.3
					c0.233-0.067,0.483-0.15,0.75-0.25c2.267-0.633,3.833-0.95,4.7-0.95c0.067,0,0.217,0.033,0.45,0.1
					c0.133,0.033,0.233,0.05,0.3,0.05c0.033,0.1,0.083,0.184,0.15,0.25c0.034,0.133,0.083,0.283,0.15,0.45
					c0.1,0.267,0.167,0.483,0.2,0.65c0.067,0.533,0.05,1.117-0.05,1.75c-0.2,1.1-0.7,2.283-1.5,3.55c-1.7,2.7-2.567,4.117-2.6,4.25
					c-0.333,0.934-0.9,1.6-1.7,2c-0.5,0.3-1.5,0.733-3,1.3c-0.9,0.433-1.7,0.9-2.4,1.4c-0.333,0.267-0.717,0.583-1.15,0.95
					c-0.267,0.233-0.55,0.483-0.85,0.75c-0.066,0-0.117-0.067-0.15-0.2c-0.933,0.467-1.617,0.817-2.05,1.05
					c-0.2,0.133-0.633,0.367-1.3,0.7c-0.9,0.8-1.933,2-3.1,3.6c-0.133,0.133-0.25,0.283-0.35,0.45c-0.133,0.2-0.284,0.4-0.45,0.6
					c-0.167,0.233-0.35,0.483-0.55,0.75c0.333-0.333,0.65-0.65,0.95-0.95c0.2-0.167,0.383-0.35,0.55-0.55
					c0.233-0.2,0.433-0.4,0.6-0.6l1.8-1.8c1.133-1.033,2.35-1.983,3.65-2.85c0,0.1,0.017,0.184,0.05,0.25v0.05
					c0.133,0.433,0.217,0.833,0.25,1.2c0.034,0.067,0.067,0.367,0.1,0.9c0.067,0.333,0.117,0.733,0.15,1.2h0.05
					c0.033,0,0.066-0.033,0.1-0.1c0.133-0.267,0.233-0.667,0.3-1.2c0-0.034,0-0.067,0-0.1c0.033-0.133,0.083-0.283,0.15-0.45
					c-0.033-0.066-0.05-0.15-0.05-0.25c0-0.633-0.033-1.217-0.1-1.75c-0.033-0.1-0.133-0.1-0.3,0c0.433-0.3,0.867-0.583,1.3-0.85
					c0.867-0.5,1.7-0.917,2.5-1.25c1.233-0.466,2.383-0.85,3.45-1.15c-0.034,0.3-0.1,0.767-0.2,1.4c-0.067,0.567-0.167,1.233-0.3,2
					c-0.333,2.434-0.85,6.05-1.55,10.85l1.2-4.9c-0.167,0.9-0.4,2-0.7,3.3l1.65-6.1c0-0.067,0.017-0.133,0.05-0.2l0.35-0.7
					c0.167-1,0.333-1.933,0.5-2.8c0.066-0.333,0.133-0.667,0.2-1c0.2,0.2,0.417,0.433,0.65,0.7c0.267,0.4,0.517,0.85,0.75,1.35
					c0.467,1.1,0.9,2.217,1.3,3.35c0.267,0.867,0.45,1.617,0.55,2.25v-0.2c-0.133-1.333-0.217-2.034-0.25-2.1
					c-0.033-0.267-0.083-0.517-0.15-0.75c0-0.033,0-0.067,0-0.1L36.2-34.6c-0.3-1.467-0.817-2.633-1.55-3.5
					c-0.033-0.033-0.066-0.066-0.1-0.1c-0.433-0.5-0.75-0.917-0.95-1.25c-0.133-0.267-0.2-0.466-0.2-0.6c-0.033-0.2,0.1-0.8,0.4-1.8
					c0.333-1.066,0.667-1.933,1-2.6c1.467-2.8,2.434-4.2,2.9-4.2c0.066,0,0.216,0.033,0.45,0.1c0.233,0.066,0.417,0.1,0.55,0.1
					l0.25,1.75c-0.1,0.8-0.1,1.9,0,3.3c0.033,1.033,0.1,2,0.2,2.9c0.033,0.2,0.067,0.4,0.1,0.6c0,0.1,0.017,0.2,0.05,0.3
					c0.133,0.8,0.45,1.767,0.95,2.9s0.783,1.967,0.85,2.5c0.133,0.667,0.017,1.567-0.35,2.7c-0.567,1.567-0.85,2.467-0.85,2.7
					c-0.1,0.433-0.5,0.85-1.2,1.25c-0.8,0.433-1.333,0.917-1.6,1.45c-0.133,0.2-0.3,0.4-0.5,0.6c0.633-0.367,1.3-0.733,2-1.1
					c0.5-0.233,1-0.483,1.5-0.75c0.2-0.066,0.35-0.25,0.45-0.55c0.067-0.2,0.184-0.6,0.35-1.2c0.1-0.333,0.267-0.65,0.5-0.95
					c0.267-0.3,0.417-0.483,0.45-0.55c0.066-0.167,0.2-0.717,0.4-1.65c0.1-0.333,0.417-0.5,0.95-0.5c0.1,0,0.2,0.017,0.3,0.05
					c0.667,0.367,1.267,0.684,1.8,0.95c0.5,0.333,0.917,0.583,1.25,0.75c0,0.033,0.733,0.2,2.2,0.5c0.133,0.033,0.25,0.067,0.35,0.1
					c1.167,0.3,2.05,0.583,2.65,0.85c0.033,0,0.083,0,0.15,0c-0.133-0.034-0.333-0.133-0.6-0.3c-0.4-0.2-0.733-0.35-1-0.45
					c-0.167-0.034-0.316-0.1-0.45-0.2c-0.1,0-0.2-0.017-0.3-0.05c-0.433-0.167-0.883-0.333-1.35-0.5
					c-0.2-0.034-0.383-0.083-0.55-0.15c-0.733-0.233-1.333-0.55-1.8-0.95c-0.067,0-0.134,0-0.2,0c-0.933-0.233-1.583-0.55-1.95-0.95
					c-0.434-0.433-0.833-0.967-1.2-1.6c-0.2-0.333-0.483-0.8-0.85-1.4c-0.5-0.767-0.9-1.816-1.2-3.15c-0.034-0.2-0.1-0.55-0.2-1.05
					c-0.033-0.133-0.067-0.267-0.1-0.4c-0.066-0.466-0.15-1.05-0.25-1.75c-0.033-0.2-0.25-1.45-0.65-3.75
					c-0.033-0.267,0.033-0.833,0.2-1.7c0.2-0.934,0.45-1.4,0.75-1.4c0.433,0,0.883,0.367,1.35,1.1
					C41.75-47.9,41.917-47.6,42.05-47.3z"/>
				<path style="fill-rule:evenodd;clip-rule:evenodd;fill:#4E3D28;" d="M53.05-34.9c-0.2-0.8-0.383-1.55-0.55-2.25
					c-0.2-0.767-0.383-1.434-0.55-2c-0.2-0.7-0.367-1.217-0.5-1.55c-0.633-1.9-1.65-3.833-3.05-5.8h-0.25c0,0.4,0.133,1.35,0.4,2.85
					c0.067,0.3,0.117,0.617,0.15,0.95c0.066-1.167,0.167-2.017,0.3-2.55c0.3,0.633,0.55,1.217,0.75,1.75
					c0,0.033,0.017,0.05,0.05,0.05c0.733,1.7,1.25,2.833,1.55,3.4l0.3,1.05c0.067,0.133,0.117,0.283,0.15,0.45
					c0.133,0.433,0.267,0.85,0.4,1.25c0.167,0.566,0.35,1.15,0.55,1.75C52.95-35.017,53.05-34.8,53.05-34.9z M47.4-46.55
					c0.2,1.533,0.217,2.917,0.05,4.15C46.883-42,46-41.45,44.8-40.75l-0.05,0.05v0.05H44.7c-0.534,0.333-1.083,0.8-1.65,1.4
					L43-38.85c0.633-0.7,1.3-1.267,2-1.7l1.95-0.9c0.566-0.267,0.933-0.617,1.1-1.05c0.2-0.567,0.184-1.517-0.05-2.85
					C47.967-45.65,47.767-46.05,47.4-46.55z"/>
				<path style="fill-rule:evenodd;clip-rule:evenodd;fill:#382A19;" d="M44.45-51.85c-0.7-1.066-1.317-1.883-1.85-2.45
					c-0.533-0.667-0.95-1-1.25-1c-0.5,0-0.883,0.283-1.15,0.85c-0.233,0.5-0.317,0.967-0.25,1.4c0.033,0.133,0.05,0.267,0.05,0.4
					c0.2,0.833,0.567,1.75,1.1,2.75c0.1,0.2,0.2,0.367,0.3,0.5c-0.2-0.633-0.333-1.15-0.4-1.55c-0.167-1.033-0.2-1.8-0.1-2.3
					c0.1-0.333,0.25-0.533,0.45-0.6c0.1-0.267,0.35-0.316,0.75-0.15C42.633-53.733,43.417-53.017,44.45-51.85z M44.25-70.3
					c-0.3-1.434-0.533-2.4-0.7-2.9c-0.333-0.9-0.85-1.667-1.55-2.3c-1.267-1.2-2.767-3.45-4.5-6.75
					c-0.767-1.433-1.567-3.017-2.4-4.75c-0.167-0.333-0.317-0.667-0.45-1c-0.267,0.733-0.483,1.367-0.65,1.9
					c-0.3,1.033-0.5,1.85-0.6,2.45c0.067,0.1,0.15,0.2,0.25,0.3c0.367-0.767,0.684-1.15,0.95-1.15c2.733,3.1,4.5,5.35,5.3,6.75
					c1.2,2.067,1.9,3.317,2.1,3.75c0.733,1.367,1.45,2.95,2.15,4.75C44.15-69.283,44.183-69.633,44.25-70.3z M22.55-136
					c-0.1,0-0.483-0.067-1.15-0.2c-0.033,0-0.066,0-0.1,0c-1.1-0.033-2.066-0.167-2.9-0.4c-0.033,0-0.066-0.017-0.1-0.05
					c-0.1,0-0.183,0-0.25,0c-0.3,0-0.716,0.033-1.25,0.1c-0.466,0.033-0.883,0.083-1.25,0.15c0.567,0.167,1.217,0.383,1.95,0.65
					c1.933,0.633,3.533,1.05,4.8,1.25c1.4,0.2,2.833,0.783,4.3,1.75c1.566,1,2.483,2.083,2.75,3.25c0,0.167-0.017,0.35-0.05,0.55
					c0.034,0.667,0.05,1.35,0.05,2.05c-0.033,2.533-0.017,5.55,0.05,9.05c0,0.167,0,0.333,0,0.5c0.133,6.367,0.2,9.617,0.2,9.75
					c-0.1,3.033-0.2,5.833-0.3,8.4c-0.066,1.534-0.133,2.967-0.2,4.3c-0.1,2.867-0.167,5.233-0.2,7.1c0,0.133,0,0.267,0,0.4
					c-0.033,2.533,0.017,4.117,0.15,4.75c0.034,0.4,0.117,0.85,0.25,1.35c0.133,0.633,0.284,1.333,0.45,2.1
					c0.733,3.167,1.217,5.217,1.45,6.15v0.1c0,0.067-0.017,0.117-0.05,0.15c0,0.167-0.017,0.316-0.05,0.45
					c-0.033,0.767-0.067,1.467-0.1,2.1c-0.167,0.967-0.233,1.567-0.2,1.8c0.067,0.333-0.333,0.75-1.2,1.25
					c-0.2,0.133-0.383,0.25-0.55,0.35c-0.233,0.067-0.483,0.167-0.75,0.3c-0.433,0.167-0.933,0.367-1.5,0.6
					c-0.3,0.133-0.633,0.284-1,0.45c-0.867,0.167-1.767,0.283-2.7,0.35c-0.367,0.066-0.817,0.333-1.35,0.8
					c-0.3,0.3-0.7,0.717-1.2,1.25c-0.066,0.033-0.133,0.083-0.2,0.15c-1.267,1.2-2.133,2.017-2.6,2.45
					c-0.233,0.2-0.367,0.333-0.4,0.4c-0.033,0.033-0.083,0.067-0.15,0.1c-1.267,1.367-2.233,2.683-2.9,3.95h0.05
					c0.033-0.034,0.1-0.117,0.2-0.25c0.133-0.133,0.3-0.3,0.5-0.5c1.267-1.5,2.25-2.65,2.95-3.45c0.6-0.667,1-1.1,1.2-1.3
					c1.5-1.5,2.883-2.35,4.15-2.55c0.667-0.1,1.667-0.417,3-0.95c1.367-0.567,2.45-0.9,3.25-1c0.767-0.067,1.6-0.35,2.5-0.85
					c0.1-0.033,0.183-0.067,0.25-0.1c0.967-0.567,1.433-1,1.4-1.3c-0.033-0.267-0.283-0.934-0.75-2c-0.3-0.867-0.45-1.684-0.45-2.45
					c0-0.033,0-0.067,0-0.1c0.034-0.1,0.05-0.183,0.05-0.25h-0.25c-0.033-0.167-0.117-0.417-0.25-0.75
					c-0.167-1-0.283-2.217-0.35-3.65c0-0.233,0.217-0.817,0.65-1.75c0.4-0.867,0.567-1.517,0.5-1.95c0-0.066-0.083-0.216-0.25-0.45
					c-0.133-0.2-0.217-0.417-0.25-0.65c-0.033-0.167,0-0.934,0.1-2.3c0.033-0.533,0.083-1.15,0.15-1.85
					c-0.1,0.633-0.267,1.267-0.5,1.9c-0.467,1.466-0.917,2.2-1.35,2.2c-0.267,0-0.483-0.1-0.65-0.3c-0.1-0.4-0.05-1.167,0.15-2.3
					c0.267-1.3,0.617-2.466,1.05-3.5c0.4-0.833,0.566-1.65,0.5-2.45c-0.033-1,0.017-1.767,0.15-2.3
					c0.167-0.466,0.317-0.933,0.45-1.4c0.333-1,0.667-1.95,1-2.85c0.033-0.033,0.566-1.183,1.6-3.45
					c-0.367,0.167-0.75,0.483-1.15,0.95h-1.4c0.133-0.433,0.033-1.633-0.3-3.6c-0.333-2.034-0.434-3.55-0.3-4.55
					c0.1-0.8,0.533-2.05,1.3-3.75c0.7-1.533,1.017-2.433,0.95-2.7c-0.033-0.267-0.283-0.833-0.75-1.7s-0.733-1.517-0.8-1.95
					c0-0.033,0.033-1.716,0.1-5.05c0.033-0.833,0.066-1.583,0.1-2.25c0.133,0.367,0.317,0.783,0.55,1.25
					c0.4,0.9,0.75,1.583,1.05,2.05c0.2,0.3,0.367,0.534,0.5,0.7l-0.3-1.75c-0.067-0.1-0.217-0.533-0.45-1.3
					c-0.2-0.733-0.316-1.184-0.35-1.35c-0.066-0.4-0.033-1.05,0.1-1.95c0.133-0.933,0.184-1.5,0.15-1.7
					c-0.367,0-0.65,0.017-0.85,0.05c-0.067,0-0.133,0.017-0.2,0.05c0.033-0.233-0.033-1.2-0.2-2.9c0-0.066-0.017-0.133-0.05-0.2
					c-0.333-0.5-0.95-0.75-1.85-0.75c-0.633,0-1.117-0.034-1.45-0.1c-0.3-0.067-0.483-0.15-0.55-0.25c-0.566-0.6-1.167-1-1.8-1.2
					c-0.4-0.133-1.083-0.233-2.05-0.3c-0.5-0.033-1.083-0.217-1.75-0.55C23.033-135.833,22.783-135.933,22.55-136z M55.7-49.25
					c-0.567-0.7-1.034-1.25-1.4-1.65c-0.433-0.133-0.833-0.267-1.2-0.4c-0.7-0.3-1.367-0.617-2-0.95c-1.367-0.8-3.467-1.933-6.3-3.4
					c-0.4-0.2-0.816-0.417-1.25-0.65c-0.733-0.967-1.917-2.583-3.55-4.85c-0.067-0.167-0.133-0.35-0.2-0.55
					c-0.033,0.2-0.033,0.333,0,0.4c0.167,1,0.9,2.316,2.2,3.95c0.867,0.967,1.5,1.7,1.9,2.2c0.3,0.333,0.5,0.566,0.6,0.7l-0.05-0.1
					c-0.167-0.133-0.267-0.3-0.3-0.5L44.1-55.2c0.233,0.1,1.233,0.667,3,1.7c1.3,0.733,2.483,1.283,3.55,1.65
					c0.467,0.133,0.917,0.317,1.35,0.55c0.233,0.1,0.45,0.183,0.65,0.25c0.267,0.133,0.45,0.216,0.55,0.25
					c0.333,0.133,0.833,0.45,1.5,0.95C55.1-49.583,55.433-49.383,55.7-49.25z M30.25-53.25c0.3-0.067,0.6-0.133,0.9-0.2
					C32.783-53.817,34.667-54,36.8-54c0.167,1.433,0.184,2.45,0.05,3.05c0,0.1-0.017,0.2-0.05,0.3
					c-0.233,0.733-0.683,1.55-1.35,2.45c-0.467,0.633-0.817,1.15-1.05,1.55c-0.033,0.133-0.066,0.25-0.1,0.35v0.05
					c-0.6,0.9-1.1,1.883-1.5,2.95c-1.667,1.533-3.083,2.517-4.25,2.95c-1.333,0.5-2.867,1.317-4.6,2.45l-0.15,0.15
					c-0.3,0.2-0.917,0.65-1.85,1.35c-0.233,0.2-0.5,0.417-0.8,0.65c0.667-0.333,1.1-0.567,1.3-0.7
					c0.433-0.233,1.117-0.583,2.05-1.05c0.033,0.133,0.083,0.2,0.15,0.2c0.3-0.267,0.583-0.517,0.85-0.75
					c0.433-0.367,0.817-0.684,1.15-0.95c0.7-0.5,1.5-0.967,2.4-1.4c1.5-0.567,2.5-1,3-1.3c0.8-0.4,1.367-1.066,1.7-2
					c0.033-0.133,0.9-1.55,2.6-4.25c0.8-1.267,1.3-2.45,1.5-3.55c0.1-0.633,0.117-1.217,0.05-1.75c-0.033-0.167-0.1-0.383-0.2-0.65
					c-0.067-0.167-0.117-0.317-0.15-0.45c-0.066-0.066-0.117-0.15-0.15-0.25c-0.066,0-0.167-0.017-0.3-0.05
					c-0.233-0.067-0.383-0.1-0.45-0.1c-0.867,0-2.433,0.317-4.7,0.95c-0.267,0.1-0.517,0.183-0.75,0.25
					C30.867-53.45,30.55-53.35,30.25-53.25z M29.75-59.2c0.133-0.333,0.267-0.667,0.4-1c0.733-1.7,1.5-2.867,2.3-3.5l1.25-0.55
					c0.2,1.033,0.417,2.4,0.65,4.1c0.033,0.233,0.066,0.467,0.1,0.7c0.066,1.233-0.55,2.217-1.85,2.95
					c-0.2,0.133-0.45,0.267-0.75,0.4c-1.767,0.7-3.517,1.5-5.25,2.4c-1.5,0.8-2.983,1.65-4.45,2.55c-0.967,0.566-2.05,2.5-3.25,5.8
					c-0.467,1.367-0.833,2.467-1.1,3.3c-0.1,0.4-0.183,0.75-0.25,1.05c0,0.033-0.017,0.05-0.05,0.05c0,0.034,0,0.067,0,0.1
					c0.033-0.066,0.067-0.1,0.1-0.1c0-0.033,0.017-0.066,0.05-0.1c0.133-0.167,0.283-0.35,0.45-0.55
					c0.033-0.066,0.05-0.117,0.05-0.15c0.067-0.133,0.117-0.267,0.15-0.4c1.1-3.8,2.75-6.7,4.95-8.7c0.767-0.7,1.733-1.35,2.9-1.95
					c1-0.534,2.133-1.034,3.4-1.5c0.967-0.367,1.817-0.733,2.55-1.1c1.233-0.667,2.15-1.35,2.75-2.05
					c0.967-1.133,1.25-2.683,0.85-4.65c-0.067-0.333-0.133-0.633-0.2-0.9c-0.333-1.367-0.65-2.017-0.95-1.95
					c-0.333,0.067-0.617,0.1-0.85,0.1c-0.867,0-1.633,0.45-2.3,1.35c-0.333,0.467-0.633,1.05-0.9,1.75
					c-0.1,0.333-0.233,0.75-0.4,1.25C30-60.1,29.883-59.667,29.75-59.2z M36.2-34.6c-0.267-1.5-0.467-2.4-0.6-2.7
					c-0.167-0.367-0.35-0.733-0.55-1.1c-0.2-0.367-0.433-0.767-0.7-1.2c-0.167-0.3-0.35-0.6-0.55-0.9
					c0.067-0.167,0.2-0.583,0.4-1.25c0.633-2.467,1.633-4.367,3-5.7c0.333,0,0.5,0.1,0.5,0.3c-0.1,2.3,0.15,4.566,0.75,6.8
					c0.033,0.2,0.083,0.417,0.15,0.65c0.4,1.434,0.933,2.85,1.6,4.25c0.066,0.1,0.133,0.2,0.2,0.3c0,0.3-0.017,0.6-0.05,0.9
					c0,0.033-0.133,0.533-0.4,1.5c-0.067,0.3-0.15,0.583-0.25,0.85c-0.633,2.467-1.1,3.833-1.4,4.1
					c-0.566,0.533-1.35,1.216-2.35,2.05c-0.267,0.233-0.55,0.467-0.85,0.7c-0.133,0.133-0.283,0.267-0.45,0.4
					c-0.7,0.6-1.367,1.267-2,2c0.3-0.3,0.667-0.617,1.1-0.95c0.8-0.6,1.75-1.233,2.85-1.9c0.2-0.2,0.367-0.4,0.5-0.6
					c0.267-0.533,0.8-1.017,1.6-1.45c0.7-0.4,1.1-0.817,1.2-1.25c0-0.233,0.283-1.133,0.85-2.7c0.367-1.133,0.483-2.033,0.35-2.7
					c-0.067-0.533-0.35-1.367-0.85-2.5s-0.817-2.1-0.95-2.9c-0.033-0.1-0.05-0.2-0.05-0.3c-0.033-0.2-0.067-0.4-0.1-0.6
					c-0.1-0.9-0.167-1.867-0.2-2.9c-0.1-1.4-0.1-2.5,0-3.3l-0.25-1.75c-0.133,0-0.317-0.033-0.55-0.1
					c-0.233-0.067-0.383-0.1-0.45-0.1c-0.467,0-1.434,1.4-2.9,4.2c-0.333,0.667-0.667,1.534-1,2.6c-0.3,1-0.433,1.6-0.4,1.8
					c0,0.133,0.067,0.333,0.2,0.6c0.2,0.333,0.517,0.75,0.95,1.25c0.034,0.034,0.067,0.067,0.1,0.1
					C35.383-37.233,35.9-36.067,36.2-34.6z M24.95-136.55c0.633,0.1,1.316,0.233,2.05,0.4c4.1,0.8,6.167,1.2,6.2,1.2
					c1.167,0,2.283-0.433,3.35-1.3c0.633-0.5,1.333-0.917,2.1-1.25c-0.233,0-0.45,0-0.65,0c-0.933,0-1.65,0.133-2.15,0.4
					c-0.167,0.067-0.317,0.15-0.45,0.25c-0.5,0.434-1.083,0.65-1.75,0.65l-1.25-0.3c-0.3-0.067-0.667-0.15-1.1-0.25
					c-0.767-0.167-1.417-0.3-1.95-0.4c-0.667-0.1-1.15-0.15-1.45-0.15c-0.2,0-1.066,0.216-2.6,0.65
					C25.167-136.617,25.05-136.583,24.95-136.55z M55.8-136.85c-0.2-0.133-0.417-0.25-0.65-0.35c-0.267-0.066-0.65-0.1-1.15-0.1
					c-2.167,0-4.6,0.4-7.3,1.2c-2.7,0.767-4.717,1.15-6.05,1.15c-0.566,0-1.183-0.1-1.85-0.3c-0.466-0.133-0.833-0.233-1.1-0.3
					c-0.034,0-0.067,0-0.1,0c-0.1,0.1-0.233,0.2-0.4,0.3l-0.1,0.05c-0.3,0.233-0.633,0.467-1,0.7c-0.033,0-0.233,0.15-0.6,0.45
					c-0.133,0.133-0.3,0.283-0.5,0.45c-0.4,0.333-0.583,0.6-0.55,0.8c1.066-0.467,1.716-0.733,1.95-0.8c1.167-0.467,2.1-0.7,2.8-0.7
					c0.133,0,0.683,0.216,1.65,0.65c0.533,0,1.217-0.167,2.05-0.5c1.1-0.467,2.033-0.833,2.8-1.1
					C48.567-136.283,51.933-136.817,55.8-136.85z M42.05-47.3c-0.133-0.3-0.3-0.6-0.5-0.9c-0.466-0.733-0.917-1.1-1.35-1.1
					c-0.3,0-0.55,0.466-0.75,1.4c-0.167,0.867-0.233,1.433-0.2,1.7c0.4,2.3,0.617,3.55,0.65,3.75c0.1,0.7,0.184,1.284,0.25,1.75
					c0.033,0.133,0.067,0.267,0.1,0.4c0.1,0.5,0.167,0.85,0.2,1.05c0.3,1.333,0.7,2.383,1.2,3.15c0.367,0.6,0.65,1.067,0.85,1.4
					c0.367,0.633,0.767,1.167,1.2,1.6c0.367,0.4,1.017,0.717,1.95,0.95c0.066,0,0.133,0,0.2,0c-0.035-0.001-0.084-0.035-0.15-0.1
					c-0.8-0.7-1.4-1.183-1.8-1.45c-0.467-0.3-0.75-0.75-0.85-1.35c-0.066-0.267-0.183-0.534-0.35-0.8
					c-0.067-0.167-0.2-0.45-0.4-0.85c-0.433-0.8-0.767-1.8-1-3c-0.066-0.3-0.133-0.6-0.2-0.9c-0.033-0.1-0.067-0.2-0.1-0.3
					c-0.667-2.6-0.917-5.033-0.75-7.3c0.267-0.367,0.467-0.483,0.6-0.35c0.133,0.1,0.267,0.25,0.4,0.45
					c0.3,0.5,0.517,1.067,0.65,1.7c0.067,0.2,0.167,0.683,0.3,1.45c0.1,0.667,0.15,1.117,0.15,1.35c0.1-0.867,0.05-1.883-0.15-3.05
					C42.167-46.783,42.117-47,42.05-47.3z M40.6-59.5l0.05,0.1c-0.033-0.033-0.066-0.083-0.1-0.15L40.6-59.5z"/>
			</g>
		</g>
	</g>
</symbol>
<g>
	<g>
		<path style="fill-rule:evenodd;clip-rule:evenodd;fill-opacity:0.451;" d="M113.75,273.925V274c-0.733,0.267-1.7,0.417-2.9,0.45
			c-0.633,0.033-2.333,0.05-5.1,0.05c-4.467,0-8.917-0.5-13.35-1.5c-4.467-1-7.517-1.5-9.15-1.5c-1.167,0-2.483,0.184-3.95,0.55
			c-1.7,0.434-2.633,0.917-2.8,1.45c0.167,0,0.25,0.083,0.25,0.25c0.922,0.033,1.989,0.208,3.2,0.525
			c0.1,0.024,0.199,0.05,0.3,0.074c1.172,0.309,2.473,0.741,3.9,1.301c0.945,0.37,2.095,0.854,3.449,1.449
			c1.087,0.479,2.304,1.029,3.65,1.65H91c-2.5-0.634-7.45-1.566-14.85-2.8c-6.767-1.134-10.367-1.7-10.8-1.7
			c-2.3,0-4.167,0.25-5.6,0.75s-2.733,0.75-3.9,0.75c-0.8,0-3.033-0.333-6.7-1c-3.5-0.667-5.267-1-5.3-1
			c-0.233,0.033-2.85,0.366-7.85,1h-0.75c-0.567,0.167-1.15,0.25-1.75,0.25c-1.667,0-3.667-0.167-6-0.5v-0.175v-0.075
			c0.733-0.2,1.85-0.583,3.35-1.15c1.367-0.466,2.417-0.666,3.15-0.6v-0.125c3.582-0.578,8.915-1.354,16-2.325
			c11.408-1.563,18.908-2.405,22.5-2.524c0.307-0.017,0.582-0.025,0.825-0.025c-0.158-0.005-0.367-0.089-0.625-0.25l-0.025-0.025
			c0.695-0.432,3.588-0.173,8.675,0.775c3.067,0.566,8.2,1.65,15.4,3.25c2.9,0.634,6,1.15,9.3,1.55
			c1.716,0.219,4.074,0.51,7.075,0.875c0.204,0.024,0.412,0.05,0.625,0.075V273.925z"/>
		<path style="fill-rule:evenodd;clip-rule:evenodd;fill-opacity:0.2;" d="M27.5,274.325v0.175c2.333,0.333,4.333,0.5,6,0.5
			c0.6,0,1.183-0.083,1.75-0.25H36c5-0.634,7.617-0.967,7.85-1c0.033,0,1.8,0.333,5.3,1c3.667,0.667,5.9,1,6.7,1
			c1.167,0,2.467-0.25,3.9-0.75s3.3-0.75,5.6-0.75c0.433,0,4.033,0.566,10.8,1.7c7.399,1.233,12.35,2.166,14.85,2.8h0.25
			c-1.347-0.621-2.563-1.172-3.65-1.65c0.743,0.151,1.743,0.301,3,0.45c0.834,0,1.884,0.066,3.15,0.2c1.866,0.2,2.8,0.483,2.8,0.85
			c0,0.434-1.7,0.733-5.1,0.9c-1.867,0-3.233-0.15-4.101-0.45c-1.233-0.399-2.5-0.684-3.8-0.85c-3.2-0.5-5.783-0.917-7.75-1.25
			c-3.7-0.566-6.7-0.851-9-0.851c-2.433,0-4.167,0.15-5.2,0.45S59.817,277,59.35,277c-2,0-4.7-0.366-8.1-1.1
			c-3.4-0.767-6.067-1.15-8-1.15c-1.433,0-3.4,0.184-5.9,0.55c-2.5,0.334-4.4,0.5-5.7,0.5c-2.133,0-4.417-0.184-6.85-0.55l0.05-0.15
			L27.5,274.325z M113.75,273.925c1.038,0.133,1.654,0.241,1.85,0.325c-0.833,0.2-2.199,0.434-4.1,0.7c-2.733,0.399-4.9,0.6-6.5,0.6
			c-0.9,0-1.816-0.066-2.75-0.2c-1.634-0.267-2.767-0.433-3.4-0.5c-1.566-0.199-2.366-0.3-2.399-0.3c-0.2,0.033-0.384,0-0.55-0.1
			c-0.2-0.134-0.417-0.217-0.65-0.25l-12.7-1.851c-0.434,0-0.95,0.117-1.55,0.351c-0.767,0.3-1.15,0.649-1.15,1.05
			c0,0.201,0.034,0.376,0.101,0.525c-1.211-0.317-2.278-0.492-3.2-0.525c0-0.167-0.083-0.25-0.25-0.25
			c0.167-0.533,1.1-1.017,2.8-1.45c1.467-0.366,2.783-0.55,3.95-0.55c1.634,0,4.684,0.5,9.15,1.5c4.433,1,8.883,1.5,13.35,1.5
			c2.767,0,4.467-0.017,5.1-0.05c1.2-0.033,2.167-0.184,2.9-0.45V273.925z"/>
	</g>
</g>
<use xlink:href="#red_x5F_tree_x5F_04"  width="68.418" height="139.45" x="-0.019" y="-139.45" transform="matrix(2 0 0 -2 0 0)" style="overflow:visible;"/>
</svg>
