<?xml version="1.0" encoding="iso-8859-1"?>
<!-- Generator: Adobe Illustrator 16.0.0, SVG Export Plug-In . SVG Version: 6.00 Build 0)  -->
<!DOCTYPE svg PUBLIC "-//W3C//DTD SVG 1.1//EN" "http://www.w3.org/Graphics/SVG/1.1/DTD/svg11.dtd">
<svg version="1.1" id="Layer_1" xmlns="http://www.w3.org/2000/svg" xmlns:xlink="http://www.w3.org/1999/xlink" x="0px" y="0px"
	 width="153px" height="362px" viewBox="0 0 153 362" style="enable-background:new 0 0 153 362;" xml:space="preserve">
<symbol  id="blue_x5F_tree_x5F_03" viewBox="0 -179.95 75.25 179.95">
	<g id="Layer_3_1_">
		<path style="fill-rule:evenodd;clip-rule:evenodd;fill:#614E37;" d="M41-50.05l0.05-0.05l-0.15,0.05
			C40.933-50.05,40.967-50.05,41-50.05z"/>
		<g>
			<g>
				<path style="fill-rule:evenodd;clip-rule:evenodd;fill:#24476B;" d="M6.15-5.75c0.3,0.133,0.6,0.283,0.9,0.45
					C7.783-4.967,8.4-4.717,8.9-4.55c0,0.333,0.184,0.6,0.55,0.8c0.267,0.167,0.483,0.233,0.65,0.2c0,0.466,0.1,0.7,0.3,0.7
					c0.267-0.066,0.434-0.1,0.5-0.1c-0.1,0.067-0.267,0.25-0.5,0.55C10.133-2,9.983-1.717,9.95-1.55c0.5-0.367,1.433-0.6,2.8-0.7
					c1.5-0.133,2.9-0.017,4.2,0.35c0.5,0.133,0.833,0.283,1,0.45c0.2,0.167,0.367,0.267,0.5,0.3S18.767-1.133,19-1.2
					c0.233-0.033,0.417-0.033,0.55,0c0.1-0.1,0.534-0.05,1.3,0.15l-0.15,0.5c0.933-0.267,2.617-0.333,5.05-0.2
					c2.267,0.1,3.783,0,4.55-0.3L30.05,0c1.567-0.533,2.417-0.833,2.55-0.9c0.633-0.267,1.017-0.667,1.15-1.2
					c0.167-0.267,0.75-0.316,1.75-0.15c0.8,0.1,1.167-0.317,1.1-1.25l0.5,0.15c-0.033,0.1-0.017,0.217,0.05,0.35
					c0.033,0.167,0.1,0.25,0.2,0.25c0.1-0.1,0.267-0.167,0.5-0.2c0.233-0.1,0.417-0.25,0.55-0.45c0.167,0.3,0.233,0.517,0.2,0.65
					c0.7-0.433,1.95-0.583,3.75-0.45c1.933,0.167,3.3,0.067,4.1-0.3l-0.25,1c0.033,0.033-0.05,0.133-0.25,0.3
					c-0.034,0.034-0.067,0.067-0.1,0.1c1.7-0.833,2.717-1.316,3.05-1.45c0.767-0.367,1.45-0.65,2.05-0.85l0.4,0.7
					c0.066-0.133,0.45-0.283,1.15-0.45c0.767-0.167,1.25-0.233,1.45-0.2c0.133,0.067,0.283,0.233,0.45,0.5l0.2,0.45l0.1-0.2
					c0-0.433-0.034-0.867-0.1-1.3c-0.1-0.3-0.133-0.55-0.1-0.75l-0.35-0.1c1.1-0.067,2.35-0.617,3.75-1.65
					c1.267-1.1,2.067-1.733,2.4-1.9c-0.1-0.034-0.333-0.083-0.7-0.15c-0.333,0-0.617-0.033-0.85-0.1l0.85-0.6l-0.35-0.05
					c0-0.3,0.267-0.617,0.8-0.95c-0.1-0.033-0.367,0.033-0.8,0.2c0.167-0.233,0.567-0.466,1.2-0.7c0.8-0.3,1.483-0.7,2.05-1.2
					c1-0.867,1.8-1.683,2.4-2.45c0.333-0.5,0.517-0.817,0.55-0.95l0.3-1c-0.167,0.267-0.4,0.483-0.7,0.65
					c-0.167,0.067-0.316,0.133-0.45,0.2l0.55-2.1c0.267,0.033,0.434-0.15,0.5-0.55c0.067-0.233-0.033-0.55-0.3-0.95
					c-0.267-0.467-0.367-0.85-0.3-1.15c0.067-0.2,0.3-0.533,0.7-1c-0.133-0.033-0.217,0.017-0.25,0.15l-0.35-0.1
					c0.267-0.667,1.083-2.117,2.45-4.35l-0.7-0.25c0.367-0.6,0.934-1.233,1.7-1.9c0.433-0.4,0.783-1.133,1.05-2.2l0.45-1.7
					c-1.1,0.933-1.9,1.717-2.4,2.35l0.1-0.55c-0.133,0.133-0.45,0.45-0.95,0.95c-0.367,0.333-0.684,0.783-0.95,1.35
					c-0.233,0.267-0.6,0.733-1.1,1.4c-0.466,0.567-1,0.933-1.6,1.1c0.333,0.066,0.65,0.017,0.95-0.15l0.4,0.1
					c-0.1,0.333-0.167,0.767-0.2,1.3c0,0.566-0.017,0.883-0.05,0.95c-0.1,0.4-0.3,0.9-0.6,1.5c-0.333,0.633-0.717,1.184-1.15,1.65
					l-0.05,0.2c0.067,0,0.133-0.017,0.2-0.05c0.1-0.033,0.216-0.033,0.35,0l-0.35,1.3c0.033,0,0.066,0,0.1,0
					c0.067,0,0.133-0.05,0.2-0.15l0.3,0.1c-0.066,0.367-0.1,0.8-0.1,1.3c0,0.467-0.034,0.817-0.1,1.05
					c-0.267,0.933-0.783,1.733-1.55,2.4c-0.5,0.433-1.966,1.483-4.4,3.15c0.033-0.1,0.1-0.2,0.2-0.3c0.133-0.1,0.217-0.15,0.25-0.15
					l0.1-0.15c-0.233,0.167-0.617,0.45-1.15,0.85c-0.5,0.467-0.983,1.05-1.45,1.75c-0.4,1.067-0.667,1.767-0.8,2.1
					c-0.233,0.533-0.716,0.717-1.45,0.55c-0.233-0.066-0.333-0.117-0.3-0.15L52.5-6.8c-0.867,0.7-1.6,1.15-2.2,1.35
					c-0.433,0.133-1.466,0.434-3.1,0.9C47.299-4.88,47.399-5.031,47.5-5l-0.3-0.1l-0.55,0.4l-0.2-0.05
					c0.267-0.333,0.417-0.55,0.45-0.65c0.133-0.1,0.35-0.233,0.65-0.4v-0.15c-0.1,0.2-0.65,0.417-1.65,0.65
					c-1.033,0.2-1.566,0.316-1.6,0.35c-0.133-0.033-0.15-0.216-0.05-0.55c-0.467,0.067-1.7,0.283-3.7,0.65
					c-1.966,0.367-3.517,0.533-4.65,0.5c0.1-0.1,0.184-0.183,0.25-0.25l0.2-0.8c-0.434,0.2-1.633,0.933-3.6,2.2
					c-1.133,0.733-2.183,0.967-3.15,0.7c-0.233-0.067-0.45-0.167-0.65-0.3c-0.167-0.1-0.3-0.2-0.4-0.3
					c0.2,0.267,0.333,0.467,0.4,0.6c-0.434-0.1-1.067-0.217-1.9-0.35C26.817-2.883,26.633-3,26.5-3.2
					c-0.133-0.133-0.283-0.333-0.45-0.6c-0.333,0.367-0.6,0.917-0.8,1.65c-0.333-0.2-1.4-0.317-3.2-0.35
					c-1.6,0-2.566,0.017-2.9,0.05L19.4-3.3c-0.6-0.034-1.433,0.117-2.5,0.45h-0.2c0.066-0.233,0.25-0.45,0.55-0.65
					c-0.1-0.033-0.8-0.033-2.1,0c0.167-0.067,0.5-0.167,1-0.3s0.8-0.25,0.9-0.35c-0.533-0.133-1.45-0.434-2.75-0.9
					c-2.167-0.567-4.4-0.833-6.7-0.8C7.1-5.817,6.617-5.783,6.15-5.75z"/>
				<path style="fill-rule:evenodd;clip-rule:evenodd;fill:#1A3450;" d="M0.55-18.1c0.8,2.767,1.4,4.9,1.8,6.4
					c-0.033-0.033-0.083-0.083-0.15-0.15C2.1-11.883,2.033-11.8,2-11.6c-0.1,0.267-0.117,0.517-0.05,0.75
					c-0.3,0.033-0.55,0.067-0.75,0.1c-0.133,0.067-0.267,0.117-0.4,0.15c1.667,0.167,2.817,0.783,3.45,1.85
					c0.7,1.133,1.433,1.817,2.2,2.05L6.4-6.55C5.767-6.383,5.367-6.233,5.2-6.1C5.467-6,5.783-5.883,6.15-5.75
					C6.617-5.783,7.1-5.817,7.6-5.85c2.3-0.033,4.533,0.233,6.7,0.8c1.3,0.466,2.217,0.767,2.75,0.9c-0.1,0.1-0.4,0.217-0.9,0.35
					s-0.833,0.233-1,0.3c1.3-0.033,2-0.033,2.1,0c-0.3,0.2-0.483,0.417-0.55,0.65h0.2c1.067-0.333,1.9-0.483,2.5-0.45l-0.25,0.85
					c0.333-0.033,1.3-0.05,2.9-0.05c1.8,0.033,2.867,0.15,3.2,0.35c0.2-0.733,0.467-1.283,0.8-1.65
					c0.167,0.267,0.317,0.466,0.45,0.6c0.133,0.2,0.317,0.317,0.55,0.35c0.833,0.133,1.467,0.25,1.9,0.35
					c-0.067-0.133-0.2-0.333-0.4-0.6c0.1,0.1,0.233,0.2,0.4,0.3c0.2,0.133,0.417,0.233,0.65,0.3c0.967,0.267,2.017,0.033,3.15-0.7
					c1.967-1.267,3.167-2,3.6-2.2l-0.2,0.8C36.083-4.533,36-4.45,35.9-4.35c1.133,0.033,2.684-0.133,4.65-0.5
					c2-0.367,3.233-0.583,3.7-0.65c-0.1,0.333-0.083,0.517,0.05,0.55c0.034-0.033,0.567-0.15,1.6-0.35c1-0.233,1.55-0.45,1.65-0.65
					v0.15c-0.3,0.167-0.517,0.3-0.65,0.4c-0.033,0.1-0.183,0.316-0.45,0.65l0.2,0.05l0.55-0.4L47.5-5
					c-0.101-0.031-0.201,0.12-0.3,0.45c1.633-0.467,2.667-0.767,3.1-0.9c0.6-0.2,1.333-0.65,2.2-1.35l0.05,0.05
					c-0.033,0.033,0.067,0.083,0.3,0.15c0.733,0.167,1.217-0.017,1.45-0.55c0.133-0.333,0.4-1.033,0.8-2.1
					c0.467-0.7,0.95-1.283,1.45-1.75c0.534-0.4,0.917-0.683,1.15-0.85l-0.1,0.15c-0.033,0-0.117,0.05-0.25,0.15
					c-0.1,0.1-0.167,0.2-0.2,0.3c2.434-1.667,3.9-2.717,4.4-3.15c0.767-0.667,1.284-1.467,1.55-2.4c0.066-0.233,0.1-0.583,0.1-1.05
					c0-0.5,0.033-0.933,0.1-1.3l-0.3-0.1c-0.067,0.1-0.133,0.15-0.2,0.15c-0.033,0-0.066,0-0.1,0l0.35-1.3
					c-0.133-0.033-0.25-0.033-0.35,0c-0.067,0.033-0.133,0.05-0.2,0.05l0.05-0.2c0.434-0.467,0.817-1.017,1.15-1.65
					c0.3-0.6,0.5-1.1,0.6-1.5c0.034-0.066,0.05-0.383,0.05-0.95c0.033-0.533,0.1-0.967,0.2-1.3l-0.4-0.1
					c-0.3,0.167-0.617,0.216-0.95,0.15c0.6-0.167,1.133-0.533,1.6-1.1c0.5-0.667,0.867-1.133,1.1-1.4
					c0.267-0.567,0.583-1.017,0.95-1.35c0.5-0.5,0.816-0.817,0.95-0.95l-0.1,0.55c0.5-0.633,1.3-1.417,2.4-2.35l0.1-0.35l-0.9,0.65
					l-0.35-0.05c0.066-0.367,0.167-0.95,0.3-1.75c0.133-0.633,0.233-1.033,0.3-1.2c0.167-0.333,0.417-0.65,0.75-0.95l-0.3-0.1
					l0.15-0.7c-0.233-0.066-0.367-0.05-0.4,0.05c-0.033-0.1-0.15-0.317-0.35-0.65c-0.2-0.267-0.25-0.534-0.15-0.8
					c0-0.066,0.267-0.417,0.8-1.05c0.034-0.133,0.067-0.367,0.1-0.7c0.033-0.333,0.067-0.583,0.1-0.75
					c-0.067-0.033-0.133,0.017-0.2,0.15c-0.133,0.133-0.233,0.233-0.3,0.3l-0.55-0.15c0.733-0.833,1.183-1.383,1.35-1.65
					c0.434-0.6,0.75-1.25,0.95-1.95c0.1-0.333,0.05-0.883-0.15-1.65c0.333-0.233,0.75-0.35,1.25-0.35c0.467,0,0.783-0.067,0.95-0.2
					l-1-0.25c0.233-0.033,0.467-0.017,0.7,0.05c0.033-0.1-0.033-0.217-0.2-0.35c-0.1-0.1-0.233-0.167-0.4-0.2
					c0.434-0.533,0.833-0.75,1.2-0.65l-0.8-0.2c0.1-0.333,0.434-0.767,1-1.3c0.567-0.533,0.934-1.117,1.1-1.75
					c0.067-0.367,0.1-0.567,0.1-0.6c0-0.066-0.067-0.217-0.2-0.45l-0.35-0.1l-0.25,0.85c-0.1-0.034-0.15,0-0.15,0.1l-0.35-0.1v-0.05
					c-0.133-0.233-0.2-0.467-0.2-0.7c-0.467,0.167-0.7,0.367-0.7,0.6c-0.267-0.833-0.367-1.367-0.3-1.6
					C72.65-53.017,72.233-53,71.5-53c-0.633,0.067-0.9,0.317-0.8,0.75l-0.6-0.2c-0.333,1.4-0.65,2.417-0.95,3.05h-0.2
					c0.1-0.367,0.117-0.934,0.05-1.7L68.75-50c-0.1-0.033-0.133-0.183-0.1-0.45c-0.2,0.133-0.5,0.534-0.9,1.2
					c-0.5,0.8-0.85,1.567-1.05,2.3c-0.067,0.2-0.067,0.733,0,1.6c0.033,0.633,0.066,1.1,0.1,1.4c-0.033-0.066-0.066-0.15-0.1-0.25
					c-0.067-0.233-0.083-0.417-0.05-0.55L66.5-44.8l-0.25,1l-0.1-0.05c-0.066-0.033-0.083-0.083-0.05-0.15l-0.2-0.05
					c0,0.1-0.017,0.2-0.05,0.3c-0.233,0.967-0.717,1.95-1.45,2.95c-0.5,0.767-0.9,1.267-1.2,1.5c0.233-0.133,0.483-0.217,0.75-0.25
					c0.3-0.067,0.517-0.067,0.65,0l-0.25,0.9c-0.4,0.4-0.684,0.7-0.85,0.9l-0.35,1.4l1.4,0.3v0.2c-1.167,0.3-2.017,0.867-2.55,1.7
					c-0.433,1-0.75,1.75-0.95,2.25l0.15,0.05c0.4-0.133,0.683-0.35,0.85-0.65c0.1-0.133,0.25-0.367,0.45-0.7
					c-0.5,2.4-1.533,4.284-3.1,5.65c-1.733,1.233-2.883,2.267-3.45,3.1c0.367,0.034,0.867-0.066,1.5-0.3
					c0.6-0.267,0.983-0.5,1.15-0.7l-0.05,0.15c-0.133,0.167-0.4,0.4-0.8,0.7h0.05l-0.25,1.1c0.5-0.167,0.934-0.767,1.3-1.8
					c0.367-1.067,0.75-1.667,1.15-1.8l-0.4,1.4c-0.333,0.333-0.567,0.6-0.7,0.8c-0.167,0.3-0.333,0.6-0.5,0.9L58-22.6l0.2,0.05
					c0.367-0.3,0.667-0.483,0.9-0.55c0,0.1,0.033,0.167,0.1,0.2l0.05,0.05c-0.467,1.367-0.783,2.35-0.95,2.95
					c0.367,0.167,0.467,0.533,0.3,1.1c-0.133,0.7-0.2,1.083-0.2,1.15c0.133,0.2,0.417,0.533,0.85,1s0.667,0.75,0.7,0.85
					c-0.333-0.133-0.8-0.2-1.4-0.2c-0.7,0-1.2,0.083-1.5,0.25c0.067,0,0.1,0.033,0.1,0.1v0.1c0.167,0.066,0.333,0.183,0.5,0.35
					c0.133,0.233,0.217,0.35,0.25,0.35l-1.45-0.35l-0.1,0.35c0.4,0.467,0.5,0.85,0.3,1.15l-0.95-0.2l-0.1,0.5l0.9,0.25
					c0,0.066-0.033,0.117-0.1,0.15c-0.1,0.067-0.15,0.117-0.15,0.15c-0.3-0.033-0.65,0.283-1.05,0.95c-0.1-0.3-0.25-0.684-0.45-1.15
					c-0.167-0.333-0.5-0.9-1-1.7c-0.067,0.1-0.2,0.217-0.4,0.35c-0.133,0.167-0.267,0.367-0.4,0.6c0.066-0.133-0.05-0.383-0.35-0.75
					c-0.167,0.267-0.434,0.417-0.8,0.45c-0.1,0-0.167,0.067-0.2,0.2c0-0.067-0.017-0.15-0.05-0.25
					c-0.167,0.133-0.583,0.25-1.25,0.35c-0.267,0.066-0.483,0.133-0.65,0.2c0.067-0.033,0.1-0.083,0.1-0.15
					c-0.5,0.167-1.65,0.7-3.45,1.6c-2,0.967-3.75,1.783-5.25,2.45l0.15-0.55c-0.267,0.033-0.767,0.267-1.5,0.7l0.05-0.15
					c0.1,0,0.2-0.167,0.3-0.5c-0.133-0.033-0.483,0.05-1.05,0.25c-0.567,0.133-1,0.167-1.3,0.1c0-0.367,0.083-0.9,0.25-1.6
					L37.6-11.5l-0.8,0.3c0.3-0.367,0.5-0.7,0.6-1c0.067-0.033,0.883-0.533,2.45-1.5c0.8-0.233,2.35-0.883,4.65-1.95
					c2.3-1.133,3.483-1.717,3.55-1.75l-0.2,0.15c-0.167,0.2-0.267,0.367-0.3,0.5c0.434-0.1,1.567-0.683,3.4-1.75
					c0-0.033-0.2-0.2-0.6-0.5c-0.133-0.1-0.267-0.2-0.4-0.3c-0.233,0.4-0.4,0.633-0.5,0.7c-0.267,0.2-0.684,0.25-1.25,0.15
					c-0.333-0.066-0.75,0.067-1.25,0.4c-0.5,0.4-0.784,0.583-0.85,0.55c-0.167-0.033-0.25-0.1-0.25-0.2c0-0.167,0-0.267,0-0.3
					c-0.033,0.033-0.267,0.217-0.7,0.55c-0.367,0.333-0.7,0.567-1,0.7L44.1-16.9c-0.033-0.067-0.033-0.133,0-0.2
					c-0.533,0.2-1.4,0.517-2.6,0.95c-1.067,0.4-1.8,0.717-2.2,0.95c-0.867,0.5-1.733,0.967-2.6,1.4c-0.5,0.333-0.934,1.083-1.3,2.25
					l-0.05,0.15c-0.133-0.033-0.467-0.3-1-0.8c-0.3-0.066-0.533-0.033-0.7,0.1c-0.066,0.067-0.167,0.184-0.3,0.35
					c0-0.1-0.067-0.25-0.2-0.45c-0.2-0.267-0.35-0.417-0.45-0.45c-0.133-0.033-0.35,0.033-0.65,0.2
					c-0.267,0.167-0.417,0.317-0.45,0.45c-0.167-0.433-0.283-0.683-0.35-0.75c-0.067-0.1-0.283-0.2-0.65-0.3
					c-0.033,0-1.95,0.183-5.75,0.55c0.033-0.033,0.3-0.167,0.8-0.4c0.467-0.267,0.767-0.483,0.9-0.65l0.2-0.1
					c-0.267,0.066-0.65,0.15-1.15,0.25c-0.434,0.133-0.817,0.15-1.15,0.05l0.15-0.5l-0.85-0.2c-0.667,0.1-2.033,0.05-4.1-0.15
					c-0.132,0.033-0.266,0.05-0.4,0.05c0.033-0.001,0.05-0.018,0.05-0.05c-0.167-0.033-0.367-0.05-0.6-0.05
					c-2.2-0.067-3.284,0.567-3.25,1.9c-0.4-0.7-0.7-1.083-0.9-1.15c-0.233-0.067-0.383-0.1-0.45-0.1c-0.233,0-0.4,0.15-0.5,0.45
					c-0.133-0.667-0.467-1.033-1-1.1c-2.633-0.533-4.017-0.817-4.15-0.85c-0.267-0.066-1.467-0.533-3.6-1.4
					C3.25-17.133,1.817-17.667,0.55-18.1z M55.25-11.8c0.033,0.066,0.067,0.15,0.1,0.25l-0.2-0.05L55.25-11.8z M49.55-13.55
					L49.5-13.5l-0.05,0.1c-0.034,0.066-0.083,0.083-0.15,0.05C49.367-13.417,49.45-13.483,49.55-13.55z M39.85-13.7
					c-0.1,0.034-0.167,0.05-0.2,0.05c0.133-0.133,0.4-0.283,0.8-0.45c0.167-0.066,0.333-0.167,0.5-0.3v0.2
					c-0.2,0.034-0.367,0.067-0.5,0.1C40.217-13.967,40.017-13.833,39.85-13.7z"/>
				<path style="fill-rule:evenodd;clip-rule:evenodd;fill:#001F41;" d="M55.25-11.8l-0.1,0.2l0.2,0.05
					C55.317-11.65,55.283-11.733,55.25-11.8z M49.55-13.55c-0.1,0.066-0.183,0.133-0.25,0.2c0.067,0.033,0.117,0.017,0.15-0.05
					l0.05-0.1L49.55-13.55z M39.85-13.7c0.167-0.133,0.367-0.267,0.6-0.4c0.133-0.033,0.3-0.066,0.5-0.1v-0.2
					c-0.167,0.133-0.333,0.233-0.5,0.3c-0.4,0.167-0.667,0.317-0.8,0.45C39.683-13.65,39.75-13.667,39.85-13.7z"/>
				<path style="fill-rule:evenodd;clip-rule:evenodd;fill:#172C42;" d="M57.75-24.6c-0.067,0.067-0.133,0.133-0.2,0.2
					c-0.433,0.333-0.966,0.75-1.6,1.25c-1.2,0.867-1.867,1.5-2,1.9l0.9,0.25c-0.133,0.167-0.35,0.25-0.65,0.25
					c-0.267,0-0.517,0.167-0.75,0.5l0.75,0.2c0.133-0.034,0.267-0.05,0.4-0.05c0.167,0,0.35,0.033,0.55,0.1
					c-0.267,0.067-0.533,0.1-0.8,0.1c-0.467,0.133-0.934,0.233-1.4,0.3c-0.034,0.033-0.067,0.05-0.1,0.05
					c-0.533,0.1-1.05,0.2-1.55,0.3c-0.1,0.2-0.183,0.4-0.25,0.6L51-18.5h-0.05c-1.833,1.067-2.967,1.65-3.4,1.75
					c0.034-0.133,0.133-0.3,0.3-0.5l0.2-0.15c-0.066,0.033-1.25,0.617-3.55,1.75c-2.3,1.066-3.85,1.717-4.65,1.95
					c-1.567,0.967-2.383,1.467-2.45,1.5c-0.1,0.3-0.3,0.633-0.6,1l0.8-0.3l0.35,0.05c-0.167,0.7-0.25,1.233-0.25,1.6
					c0.3,0.067,0.733,0.033,1.3-0.1c0.567-0.2,0.917-0.283,1.05-0.25c-0.1,0.333-0.2,0.5-0.3,0.5L39.7-9.55
					c0.733-0.434,1.233-0.667,1.5-0.7L41.05-9.7c1.5-0.667,3.25-1.483,5.25-2.45c1.8-0.9,2.95-1.434,3.45-1.6
					c0,0.067-0.033,0.117-0.1,0.15c0.167-0.066,0.383-0.133,0.65-0.2c0.667-0.1,1.083-0.217,1.25-0.35
					c0.034,0.1,0.05,0.183,0.05,0.25c0.033-0.133,0.1-0.2,0.2-0.2c0.367-0.033,0.633-0.183,0.8-0.45
					c0.3,0.367,0.417,0.617,0.35,0.75c0.133-0.233,0.267-0.434,0.4-0.6c0.2-0.133,0.333-0.25,0.4-0.35c0.5,0.8,0.833,1.367,1,1.7
					c0.2,0.466,0.35,0.85,0.45,1.15c0.4-0.667,0.75-0.983,1.05-0.95c0-0.033,0.05-0.083,0.15-0.15c0.067-0.033,0.1-0.083,0.1-0.15
					l-0.9-0.25l0.1-0.5l0.95,0.2c0.2-0.3,0.1-0.683-0.3-1.15l0.1-0.35l1.45,0.35c-0.033,0-0.117-0.117-0.25-0.35
					c-0.167-0.167-0.333-0.283-0.5-0.35v-0.1c0-0.067-0.033-0.1-0.1-0.1c0.3-0.167,0.8-0.25,1.5-0.25c0.6,0,1.067,0.067,1.4,0.2
					c-0.034-0.1-0.267-0.383-0.7-0.85s-0.717-0.8-0.85-1c0-0.067,0.067-0.45,0.2-1.15c0.167-0.567,0.066-0.934-0.3-1.1
					c0.167-0.6,0.483-1.583,0.95-2.95L59.2-22.9c-0.067-0.033-0.1-0.1-0.1-0.2c-0.233,0.067-0.533,0.25-0.9,0.55L58-22.6l0.4-1.4
					c0.167-0.3,0.333-0.6,0.5-0.9c0.133-0.2,0.367-0.467,0.7-0.8l0.4-1.4c-0.4,0.133-0.783,0.733-1.15,1.8
					c-0.367,1.033-0.8,1.633-1.3,1.8l0.25-1.1H57.75z"/>
				<path style="fill-rule:evenodd;clip-rule:evenodd;fill:#0F2338;" d="M50.95-18.5H51l0.05-0.15c0.067-0.2,0.15-0.4,0.25-0.6
					c0.5-0.1,1.017-0.2,1.55-0.3c0.033,0,0.066-0.017,0.1-0.05c0.466-0.066,0.933-0.167,1.4-0.3c0.267,0,0.533-0.033,0.8-0.1
					c-0.2-0.067-0.383-0.1-0.55-0.1c-0.133,0-0.267,0.017-0.4,0.05l-0.75-0.2c0.233-0.333,0.483-0.5,0.75-0.5
					c0.3,0,0.517-0.083,0.65-0.25l-0.9-0.25c0.133-0.4,0.8-1.033,2-1.9c0.633-0.5,1.167-0.917,1.6-1.25
					c0.067-0.067,0.133-0.133,0.2-0.2c0.4-0.3,0.667-0.533,0.8-0.7l0.05-0.15c-0.167,0.2-0.55,0.434-1.15,0.7
					c-0.633,0.233-1.133,0.333-1.5,0.3c0.566-0.833,1.716-1.867,3.45-3.1c1.567-1.367,2.6-3.25,3.1-5.65
					c-0.2,0.333-0.35,0.567-0.45,0.7c-0.167,0.3-0.45,0.517-0.85,0.65l-0.15-0.05c0.2-0.5,0.517-1.25,0.95-2.25
					c0.533-0.833,1.383-1.4,2.55-1.7v-0.2l-1.4-0.3l0.35-1.4c0.167-0.2,0.45-0.5,0.85-0.9l0.25-0.9c-0.133-0.067-0.35-0.067-0.65,0
					c-0.267,0.033-0.517,0.117-0.75,0.25c0.3-0.233,0.7-0.733,1.2-1.5c0.733-1,1.217-1.983,1.45-2.95c0.033-0.1,0.05-0.2,0.05-0.3
					L66.1-44c-0.033,0.067-0.017,0.117,0.05,0.15l0.1,0.05l0.25-1l0.15,0.05c-0.033,0.133-0.017,0.317,0.05,0.55
					c0.033,0.1,0.066,0.184,0.1,0.25c-0.033-0.3-0.066-0.767-0.1-1.4c-0.067-0.867-0.067-1.4,0-1.6c0.2-0.733,0.55-1.5,1.05-2.3
					c0.4-0.667,0.7-1.067,0.9-1.2c-0.033,0.267,0,0.417,0.1,0.45L69-51.1c0.067,0.767,0.05,1.333-0.05,1.7h0.2
					c0.3-0.633,0.617-1.65,0.95-3.05l0.6,0.2c-0.1-0.433,0.167-0.683,0.8-0.75c0.733,0,1.15-0.017,1.25-0.05
					c-0.067,0.233,0.033,0.767,0.3,1.6c0-0.233,0.233-0.433,0.7-0.6c0,0.233,0.067,0.466,0.2,0.7c0.1-0.2,0.183-0.5,0.25-0.9
					c0.033-0.433,0.1-0.767,0.2-1l-0.7-0.15c0.167-0.567,0.35-0.95,0.55-1.15c-0.5-0.133-0.783-0.267-0.85-0.4
					c0.033-0.466,0.267-0.7,0.7-0.7c0.533,0.066,0.833-0.067,0.9-0.4c-1.667-3.434-2.517-5.15-2.55-5.15
					c-0.034-0.033,0.017-0.417,0.15-1.15c-0.267-0.833-1.267-1.5-3-2c-0.033,0-0.067,0-0.1,0c0.1-0.267,0.167-0.55,0.2-0.85
					c-0.034-0.3-0.133-0.533-0.3-0.7c-0.167,0.133-0.283,0.217-0.35,0.25c-0.066,0.4-0.167,0.967-0.3,1.7
					c-0.133,0.767-0.2,1.184-0.2,1.25c-0.767,1.833-1.183,2.883-1.25,3.15c-0.1,0.367-0.05,0.683,0.15,0.95
					c-0.233-0.1-0.35-0.183-0.35-0.25l-0.05,0.4c-0.066,0.1-0.066,0.284,0,0.55c0.034,0.133,0.05,0.25,0.05,0.35l0.05,0.05v0.1
					c-0.001-0.035-0.018-0.085-0.05-0.15h-0.05c-0.033-0.034-0.033-0.1,0-0.2c-0.2,0.267-0.35,0.733-0.45,1.4
					c-0.133,0.667-0.233,1.067-0.3,1.2c-0.1,0.5-0.267,0.833-0.5,1c-0.233,0.133-0.417,0.467-0.55,1c-0.233,1-0.3,1.816-0.2,2.45
					c0.333,0.9,0.617,1.867,0.85,2.9c-0.1-0.034-0.25-0.184-0.45-0.45l-0.85-0.3l-0.05,0.2h-0.2c-0.1,0.3-0.167,0.533-0.2,0.7
					c-0.133,0.333-0.2,0.633-0.2,0.9l-0.3,1c-0.333,0.033-0.533-0.067-0.6-0.3c0-0.034,0-0.233,0-0.6L62.8-46.7l-0.2,0.65
					c-0.067-0.133-0.067-0.3,0-0.5c-0.233,0.433-0.417,0.8-0.55,1.1c-0.1,0-0.233-0.133-0.4-0.4c-0.433,0.233-0.9,1.3-1.4,3.2
					c-0.4,1.533-0.6,2.316-0.6,2.35c0.067,0.566,0.7,1.1,1.9,1.6c-0.066,0.067-0.15,0.133-0.25,0.2
					c-0.1,0.067-0.216,0.083-0.35,0.05L60.15-39c-0.1-0.067-0.167-0.033-0.2,0.1c0,0.066-0.184,0.066-0.55,0l-0.1-0.05
					c0.267,0.367,0.383,0.633,0.35,0.8c-0.1,0.1-0.15,0.183-0.15,0.25c-0.233-0.367-0.4-0.583-0.5-0.65l-0.25,1
					c-0.5-0.067-0.917,0.15-1.25,0.65c-0.467,0.6-0.933,1.75-1.4,3.45c-0.067,0.4-0.033,0.934,0.1,1.6c0.1,0.7,0.117,1.2,0.05,1.5
					c-0.067-0.1-0.117-0.217-0.15-0.35c-0.033-0.1-0.083-0.2-0.15-0.3h-0.1l-0.1,0.3c-0.033,0-0.083-0.033-0.15-0.1
					c-0.1-0.067-0.167-0.117-0.2-0.15c0,0.267-0.467,1.017-1.4,2.25c-1.1,1.5-1.683,2.3-1.75,2.4c0-0.434-0.067-0.917-0.2-1.45
					c-0.133,0.1-0.216,0.217-0.25,0.35l-0.25-0.35c0.1,0.4-0.3,0.667-1.2,0.8c-1.3,0.2-2.383,0.7-3.25,1.5
					c-1,0.867-1.833,2.167-2.5,3.9c-0.367,1-0.617,1.867-0.75,2.6c0-0.1-0.05-0.233-0.15-0.4c-0.034,0-0.1,0.017-0.2,0.05
					c-0.133,0.033-0.2,0.117-0.2,0.25l-0.15-0.25c-0.066,0-0.183,0.133-0.35,0.4c-0.066,0-0.183-0.05-0.35-0.15
					c-2.733,0.867-4.534,1.8-5.4,2.8l-0.3-0.45c-0.267,0.133-0.433,0.333-0.5,0.6c-0.1-0.133-0.167-0.25-0.2-0.35L35.9-16.5
					c-0.1,0.167-0.217,0.5-0.35,1c-0.033-0.033-0.267-0.233-0.7-0.6c-0.233-0.033-0.583,0.133-1.05,0.5
					c-0.333,0.4-0.7,0.567-1.1,0.5c-0.3-0.1-0.517-0.333-0.65-0.7c-0.167-0.5-0.45-0.9-0.85-1.2l-0.45-0.15
					c-0.067,0.133-0.067,0.233,0,0.3c0.133,0.067,0.167,0.2,0.1,0.4c-0.033,0.1-0.2,0.2-0.5,0.3c-0.333,0.066-0.533,0.1-0.6,0.1
					c-0.067-0.034-0.083-0.067-0.05-0.1l0.1-0.05c-0.1,0.034-0.333,0.117-0.7,0.25c-0.2,0.067-0.483,0.217-0.85,0.45l0.05-0.15
					l-0.05-0.15c-0.2,0-0.4,0.1-0.6,0.3c-0.2,0.2-0.316,0.367-0.35,0.5l-0.55-0.6c-0.1-0.033-0.2-0.017-0.3,0.05
					c-0.067-0.2-0.117-0.383-0.15-0.55c0,0.133-0.117,0.35-0.35,0.65c-0.034,0-0.067,0.034-0.1,0.1c0-0.133,0.05-0.4,0.15-0.8
					c-0.267,0.2-0.55,0.267-0.85,0.2c0.067-0.167,0.184-0.483,0.35-0.95c-0.067-0.033-0.167-0.033-0.3,0
					c-0.034,0-0.117,0.05-0.25,0.15c0.133-0.633,0.2-1.083,0.2-1.35l-0.1-0.05c-0.033,0.233-0.133,0.433-0.3,0.6
					c-0.2,0.2-0.4,0.283-0.6,0.25l0.1-0.3c-1.033,0.633-1.733,0.9-2.1,0.8c-0.066,0-0.25-0.1-0.55-0.3
					c-0.367-0.2-0.717-0.333-1.05-0.4c-0.466-0.133-1.017-0.117-1.65,0.05c-0.467,0.1-0.783,0.217-0.95,0.35
					c0.033-0.167,0.133-0.4,0.3-0.7l0.05-0.1l-0.5,0.3c-0.1-0.033-0.167-0.133-0.2-0.3c-0.033-0.167-0.117-0.25-0.25-0.25
					c-0.133-0.067-0.267-0.05-0.4,0.05c-0.067,0.033-0.184,0.133-0.35,0.3c-0.1-0.233-0.317-0.567-0.65-1
					c-0.2-0.3-0.317-0.6-0.35-0.9c-0.967,0.6-1.867,0.883-2.7,0.85l-0.1-0.05c0.034-0.067,0.133-0.2,0.3-0.4
					c-0.033,0-0.25,0.066-0.65,0.2c-0.4,0.1-0.7,0.117-0.9,0.05l-0.3-0.4c-0.167-0.3-0.35-0.483-0.55-0.55
					c-0.267-0.067-0.45-0.1-0.55-0.1c-0.1,0.033-0.333,0.167-0.7,0.4c-0.034,0-0.233-0.417-0.6-1.25
					c-0.233,0.1-0.517,0.233-0.85,0.4c-0.133,0.1-0.3,0.117-0.5,0.05c-0.233-0.033-0.433-0.167-0.6-0.4l-0.35-0.35
					c-0.066-0.033-0.433,0.017-1.1,0.15c-0.133-0.033-0.25-0.133-0.35-0.3c-0.067-0.1-0.167-0.3-0.3-0.6
					c-0.133,0.033-0.417,0.233-0.85,0.6c0.033-0.3,0.1-0.684,0.2-1.15c0.067-0.3,0.167-0.55,0.3-0.75c0.066-0.1,0.267-0.367,0.6-0.8
					c-0.033,0.067-0.4,0.184-1.1,0.35c0.033-0.033,0.066-0.083,0.1-0.15h-0.1c-0.067,0.066-0.217,0.167-0.45,0.3
					c-0.133,0.067-0.3,0.133-0.5,0.2c-0.033,0.033-0.067,0.05-0.1,0.05c-0.433,0.167-0.733,0.233-0.9,0.2
					c0.067-0.333,0.133-0.75,0.2-1.25l-0.6,2.15c-0.2,1.1-0.267,1.817-0.2,2.15l-0.25,0.85c-0.333-0.1-0.717-0.267-1.15-0.5
					c0.167,0.567,0.35,1.117,0.55,1.65c1.267,0.434,2.7,0.967,4.3,1.6c2.133,0.867,3.333,1.333,3.6,1.4
					c0.133,0.033,1.517,0.317,4.15,0.85c0.533,0.067,0.867,0.433,1,1.1c0.1-0.3,0.267-0.45,0.5-0.45c0.066,0,0.217,0.033,0.45,0.1
					c0.2,0.067,0.5,0.45,0.9,1.15c-0.034-1.333,1.05-1.967,3.25-1.9c0.233,0,0.433,0.017,0.6,0.05c0,0.033-0.017,0.049-0.05,0.05
					c0.134,0,0.268-0.017,0.4-0.05c2.067,0.2,3.434,0.25,4.1,0.15l0.85,0.2l-0.15,0.5c0.333,0.1,0.716,0.083,1.15-0.05
					c0.5-0.1,0.883-0.184,1.15-0.25l-0.2,0.1c-0.133,0.167-0.433,0.383-0.9,0.65c-0.5,0.233-0.767,0.367-0.8,0.4
					c3.8-0.367,5.717-0.55,5.75-0.55c0.367,0.1,0.583,0.2,0.65,0.3c0.067,0.067,0.183,0.317,0.35,0.75
					c0.033-0.133,0.183-0.283,0.45-0.45c0.3-0.167,0.517-0.233,0.65-0.2c0.1,0.033,0.25,0.183,0.45,0.45
					c0.133,0.2,0.2,0.35,0.2,0.45c0.133-0.167,0.233-0.283,0.3-0.35c0.167-0.133,0.4-0.167,0.7-0.1c0.533,0.5,0.867,0.767,1,0.8
					l0.05-0.15c0.367-1.167,0.8-1.917,1.3-2.25c0.867-0.434,1.733-0.9,2.6-1.4c0.4-0.233,1.133-0.55,2.2-0.95
					c1.2-0.434,2.067-0.75,2.6-0.95c-0.033,0.067-0.033,0.133,0,0.2l0.05,0.15c0.3-0.133,0.633-0.367,1-0.7
					c0.434-0.333,0.667-0.517,0.7-0.55c0,0.033,0,0.133,0,0.3c0,0.1,0.083,0.167,0.25,0.2c0.066,0.033,0.35-0.15,0.85-0.55
					c0.5-0.333,0.917-0.467,1.25-0.4c0.566,0.1,0.983,0.05,1.25-0.15c0.1-0.066,0.267-0.3,0.5-0.7c0.133,0.1,0.267,0.2,0.4,0.3
					C50.75-18.7,50.95-18.533,50.95-18.5z M58.7-30.1c0.033-0.1,0.133-0.25,0.3-0.45l0.2,0.05v0.1
					C58.967-30.233,58.8-30.133,58.7-30.1z M62.05-36.85c-0.033-0.066-0.033-0.15,0-0.25c0.067-0.066,0.117-0.15,0.15-0.25
					l0.05,0.15C62.217-37.067,62.15-36.95,62.05-36.85z"/>
				<path style="fill-rule:evenodd;clip-rule:evenodd;fill:#00162E;" d="M58.7-30.1c0.1-0.033,0.267-0.133,0.5-0.3v-0.1L59-30.55
					C58.833-30.35,58.733-30.2,58.7-30.1z M62.05-36.85c0.1-0.1,0.167-0.217,0.2-0.35l-0.05-0.15c-0.034,0.1-0.083,0.184-0.15,0.25
					C62.017-37,62.017-36.917,62.05-36.85z"/>
			</g>
		</g>
		<g>
			<g>
				<path style="fill-rule:evenodd;clip-rule:evenodd;fill:#483217;" d="M43.55-76.55c-0.333-0.5-0.667-0.85-1-1.05v-0.25h0.25
					c1,0.267,1.733,0.5,2.2,0.7c0.733,0.267,1.433,1.05,2.1,2.35c0.367,0.667,1.033,1.733,2,3.2l1.4,2.05
					c0,0.1-0.117,0.783-0.35,2.05s-0.35,2.333-0.35,3.2c0,0.3,0.05,0.517,0.15,0.65c0.167-1.267,0.383-2.85,0.65-4.75
					c0.467,0.933,0.833,1.667,1.1,2.2c0.566,1.167,1.017,2.25,1.35,3.25c0,0.267-0.033,0.534-0.1,0.8
					c-0.034,0.033-0.05,0.083-0.05,0.15c-0.1,0.167-0.2,0.35-0.3,0.55c-0.1,0.133-0.167,0.317-0.2,0.55c0,0.033-0.066,0.267-0.2,0.7
					c0-0.033,0-0.066,0-0.1l-0.05-0.05c0,0.067,0,0.15,0,0.25v0.1c0,0.2-0.017,0.433-0.05,0.7c-0.067,0.966-0.117,1.5-0.15,1.6
					l-0.05,0.3c0,0.133-0.033,0.25-0.1,0.35c-0.033,0.167-0.1,0.316-0.2,0.45c0,0.467,0,0.934,0,1.4c0,0.767-0.05,1.583-0.15,2.45
					c-0.1,0.9-0.083,1.817,0.05,2.75c0.033,0.3,0.083,0.583,0.15,0.85c0.167,0.933,0.283,1.9,0.35,2.9
					c0.033,0.667,0.083,1.333,0.15,2c0,0.233,0.033,0.583,0.1,1.05c0.033,0.133,0.067,0.25,0.1,0.35c0,0.067-0.017,0.117-0.05,0.15
					l0.9,3.35c0.033,0.133,0.066,0.25,0.1,0.35c0.2,0.867,0.4,1.717,0.6,2.55c0.067,0.3,0.133,0.583,0.2,0.85
					c0.633,2.5,1.3,5.033,2,7.6c0.033-0.1,0.066-0.167,0.1-0.2c-0.7-2.2-1.417-5.4-2.15-9.6c-0.233-0.9-0.35-1.667-0.35-2.3
					c-0.034-0.633-0.034-1.033,0-1.2c0.033-0.167,0.05-0.317,0.05-0.45l-0.1-0.95l0.4-0.3L55-42.85c0.5,0.2,1.05,0.434,1.65,0.7
					c0.033,0.033,0.067,0.05,0.1,0.05c1.5,0.7,2.783,1.833,3.85,3.4c0.033-0.1,0.05-0.216,0.05-0.35
					c-0.066-0.4-0.667-1.117-1.8-2.15c-0.2-0.167-0.4-0.333-0.6-0.5c-0.3-0.167-0.6-0.367-0.9-0.6c-0.067-0.034-0.133-0.067-0.2-0.1
					c-0.033-0.033-0.066-0.067-0.1-0.1c-0.2-0.167-0.433-0.3-0.7-0.4l-0.05-0.05c-0.233-0.133-0.45-0.233-0.65-0.3
					c-0.467-0.2-0.883-0.433-1.25-0.7c-0.267-0.2-0.5-0.383-0.7-0.55c-0.034,0-0.067-0.033-0.1-0.1v-0.05
					c-0.067-0.1-0.15-0.184-0.25-0.25c-0.067-0.067-0.133-0.133-0.2-0.2c-0.066-0.066-0.183-0.183-0.35-0.35
					c-0.167-0.8-0.283-2.617-0.35-5.45c-0.2-2.5,0.133-5.05,1-7.65c0.033-0.034,0.066-0.067,0.1-0.1c0.067-0.2,0.15-0.4,0.25-0.6
					c0.067-0.1,0.167-0.167,0.3-0.2c0.066,0.133,0.133,0.284,0.2,0.45c0.034,0.067,0.067,0.133,0.1,0.2
					c0.033,0.1,0.067,0.216,0.1,0.35c0.133,0.367,0.267,0.717,0.4,1.05c0.067,0.167,0.15,0.35,0.25,0.55
					c0.033,0.133,0.067,0.267,0.1,0.4c0.033,0.1,0.05,0.184,0.05,0.25c0.034,0.233,0.067,0.483,0.1,0.75
					c0,0.067,0.017,0.133,0.05,0.2c0,0.067,0.017,0.167,0.05,0.3c0,0.067,0.017,0.133,0.05,0.2c-0.033-0.167-0.05-0.333-0.05-0.5
					c0-0.067,0-0.133,0-0.2c-0.033-0.267-0.05-0.533-0.05-0.8c-0.034-0.133-0.05-0.267-0.05-0.4c0.033-0.033,0.033-0.083,0-0.15
					c0-0.034-0.017-0.067-0.05-0.1c0-0.067,0-0.15,0-0.25s-0.017-0.2-0.05-0.3c-0.1-0.433-0.15-0.867-0.15-1.3
					c0-0.067,0-0.133,0-0.2c-0.033-0.033-0.05-0.083-0.05-0.15c0-0.033,0-0.083,0-0.15c-0.067-0.5-0.184-0.967-0.35-1.4
					c0-0.033-0.017-0.083-0.05-0.15c-0.133-0.667-0.3-1.333-0.5-2c0-0.133,0-0.25,0-0.35c0-0.267-0.067-0.517-0.2-0.75
					c-0.1-0.2-0.2-0.417-0.3-0.65v-0.1c1.267-0.067,2.05-0.05,2.35,0.05c0.333,0.1,0.534,0.167,0.6,0.2
					c0.667,0.3,1.317,0.55,1.95,0.75c0.167,0.066,0.333,0.15,0.5,0.25c0.367,0.233,0.917,0.467,1.65,0.7
					c0.733,0.267,1.45,0.767,2.15,1.5c0.7,0.7,1,1.133,0.9,1.3c0.034,0.133,0.067,0.267,0.1,0.4c0,0.033,0.017,0.067,0.05,0.1
					c0.1,0.167,0.167,0.35,0.2,0.55c0,0.033,0.017,0.067,0.05,0.1c0.066,0.133,0.1,0.267,0.1,0.4c0,0.033,0.017,0.067,0.05,0.1
					c0,0.467,0,0.933,0,1.4c0,0.067,0.017,0.133,0.05,0.2c0.033,0.133,0.067,0.267,0.1,0.4c0.033,0.1,0.083,0.2,0.15,0.3
					c0.133,0.233,0.217,0.467,0.25,0.7c0,0.033,0.017,0.067,0.05,0.1c0.1,0.133,0.15,0.316,0.15,0.55
					c0.033,0.133,0.066,0.267,0.1,0.4c0.1,0.233,0.183,0.467,0.25,0.7c0,0.033,0,0.067,0,0.1c0,0.3,0.1,0.5,0.3,0.6
					c-0.033-0.233-0.083-0.5-0.15-0.8c-0.033-0.033-0.05-0.066-0.05-0.1c-0.167-0.466-0.316-0.95-0.45-1.45
					c-0.1-0.333-0.167-0.684-0.2-1.05v-0.1c-0.1-0.067-0.15-0.167-0.15-0.3c0-0.2-0.017-0.417-0.05-0.65
					c-0.067-0.667-0.083-1.333-0.05-2c0-0.033,0-0.067,0-0.1c-0.033-0.2,0-0.367,0.1-0.5c0.033,0.067,0.083,0.117,0.15,0.15
					c0.233,0.3,0.517,0.617,0.85,0.95c0.3,0.267,0.583,0.5,0.85,0.7c-0.067-0.233-0.167-0.417-0.3-0.55
					c-0.066-0.033-0.117-0.083-0.15-0.15c-0.4-0.4-0.75-0.817-1.05-1.25c-0.133-0.2-0.283-0.383-0.45-0.55
					c-0.3-0.233-0.517-0.517-0.65-0.85c-0.1-0.233-0.267-0.4-0.5-0.5c-0.2-0.067-0.383-0.167-0.55-0.3
					c-0.034-0.033-0.067-0.066-0.1-0.1H62.8c-1.566-0.6-3.066-1.25-4.5-1.95c-1.3-0.6-2.216-1-2.75-1.2
					c-0.033,0-0.65-0.216-1.85-0.65c-0.067-0.033-0.284-0.066-0.65-0.1c-0.3-0.033-0.466-0.066-0.5-0.1
					c-0.066-0.067-0.1-0.267-0.1-0.6c0.033-0.434,0.033-0.833,0-1.2c-0.4-0.9-0.817-1.75-1.25-2.55c-0.5-1-1.083-1.983-1.75-2.95
					c-2.167-3.167-4.067-5.917-5.7-8.25c-0.2-0.367-0.417-0.75-0.65-1.15c-1.733-3.2-3.1-6.483-4.1-9.85
					c-0.033-0.267-0.067-0.533-0.1-0.8c-0.033-0.434-0.083-0.867-0.15-1.3c-0.167-1.466-0.3-3.517-0.4-6.15v-0.05
					c0.033-0.1,0.083-0.2,0.15-0.3c0.233-0.6,0.35-1.35,0.35-2.25c0-0.466,0-0.933,0-1.4c-0.033-1.267-0.017-2.5,0.05-3.7
					c0-0.133,0-0.267,0-0.4c0.067-1.066,0.117-2.117,0.15-3.15c0-0.267,0-0.533,0-0.8c0-0.733,0.133-1.434,0.4-2.1
					c0.066-0.133,0.117-0.267,0.15-0.4c0.2-0.6,0.3-1.25,0.3-1.95c-0.033-0.667,0.05-1.316,0.25-1.95
					c0.1-0.333,0.15-0.684,0.15-1.05c0.034-0.9,0.067-1.816,0.1-2.75c0.1-2.767,0.15-5.533,0.15-8.3c0-1.367,0.1-2.717,0.3-4.05
					c0.167-1.367,0.45-2.716,0.85-4.05c0.4-1.3,0.633-2.633,0.7-4c0-0.3,0.017-0.583,0.05-0.85c0.066-1.433,0.1-2.867,0.1-4.3
					c0-1.267-0.033-2.533-0.1-3.8c-0.034-0.133-0.05-0.283-0.05-0.45c-0.066-1.2-0.066-2.4,0-3.6c0-0.267,0.05-0.55,0.15-0.85
					c0.367-1.167,0.567-2.367,0.6-3.6c0-0.133,0-0.25,0-0.35c0.033-0.1,0.05-0.2,0.05-0.3c0.267-1.267,0.5-2.55,0.7-3.85
					c0.133-0.966,0.417-1.9,0.85-2.8c0.1-0.2,0.2-0.4,0.3-0.6c0.067,0,0.133-0.017,0.2-0.05c0.1-0.067,0.183-0.117,0.25-0.15
					c0.233-0.167,0.433-0.367,0.6-0.6c0.3-0.4,0.566-0.8,0.8-1.2c0.067-0.1,0.117-0.217,0.15-0.35c0.1-0.367,0.267-0.733,0.5-1.1
					c0.4-0.6,0.967-1.034,1.7-1.3c0.267-0.066,0.5-0.183,0.7-0.35c0.3-0.167,0.617-0.283,0.95-0.35c1.167-0.133,2.3-0.383,3.4-0.75
					c0.467-0.167,0.934-0.3,1.4-0.4c1.033-0.267,2.066-0.617,3.1-1.05c-0.1-0.133-0.2-0.25-0.3-0.35
					c-2.267,0.033-3.55,0.434-3.85,1.2c0-0.033-0.1-0.217-0.3-0.55c-0.4,0.3-0.934,0.534-1.6,0.7c-0.033,0.033-0.683,0.15-1.95,0.35
					c-1.133,0.167-1.7,0.3-1.7,0.4c0.1,0.133,0.15,0.217,0.15,0.25l-0.6,0.15c-0.433,0.067-0.7,0.3-0.8,0.7
					c-0.367-0.434-0.667-0.8-0.9-1.1c-0.067-0.067-0.517-0.1-1.35-0.1c0-0.033-0.033-0.05-0.1-0.05h-0.05c-0.1,0-0.3,0-0.6,0
					c-0.6,0-1.133,0.05-1.6,0.15c-0.267,0.067-0.517,0.183-0.75,0.35c-0.133,0.133-0.267,0.25-0.4,0.35
					c-0.067,0.033-0.4,0.167-1,0.4c-0.533,0.233-0.917,0.433-1.15,0.6c0.6-0.934,1.233-1.6,1.9-2c0.467-0.3,1.217-0.617,2.25-0.95
					c0.066,0,0.133,0,0.2,0c0.267-0.133,0.55-0.233,0.85-0.3c0.167-0.067,0.333-0.117,0.5-0.15c0.133-0.033,0.267-0.05,0.4-0.05
					c0.5-0.033,1.034-0.05,1.6-0.05c0.5-0.1,0.833-0.333,1-0.7c0.467-0.267,0.934-0.45,1.4-0.55c0.434-0.067,0.85-0.184,1.25-0.35
					c0.934-0.434,1.934-0.717,3-0.85c-0.066-0.067-0.15-0.1-0.25-0.1c-1.566,0.133-2.767,0.283-3.6,0.45
					c-1.667,0.333-2.65,0.767-2.95,1.3l0.35,0.2c-0.067,0.1-0.233,0.15-0.5,0.15c-0.167,0-0.317-0.05-0.45-0.15
					c-0.1-0.133-0.333-0.2-0.7-0.2c-0.3,0-0.717,0.067-1.25,0.2c-0.534,0.167-1.017,0.267-1.45,0.3c-0.167,0-0.4,0-0.7,0
					c-0.333,0-0.733,0.067-1.2,0.2c-0.267,0.1-0.934,0.333-2,0.7c-1.067,0.4-1.85,0.633-2.35,0.7H36.9
					c0.033-0.2-0.133-0.35-0.5-0.45l-2.1-0.5c-0.2-0.033-0.75-0.35-1.65-0.95c-0.2-0.167-0.4-0.3-0.6-0.4
					c-0.466-0.167-0.9-0.3-1.3-0.4c-0.2-0.066-0.383-0.15-0.55-0.25c-0.067-0.066-0.133-0.133-0.2-0.2
					c-0.6-0.033-1.217-0.05-1.85-0.05c-2.9,0.233-4.6,0.45-5.1,0.65v0.25c0.5,0.033,1.583,0.383,3.25,1.05
					c0.467,0.2,0.883,0.517,1.25,0.95c0.333,0.4,0.667,0.65,1,0.75c1.833,0.5,3.05,0.883,3.65,1.15c0.433,0.2,0.8,0.467,1.1,0.8
					c0.067-0.033,0.117-0.05,0.15-0.05c0.5,0,1.05,0.367,1.65,1.1c0.6,0.733,0.917,1.367,0.95,1.9h1.75c0.367-0.2,0.6-0.55,0.7-1.05
					c0.033-0.233,0.05-0.667,0.05-1.3c0-0.1,0-0.2,0-0.3c0.133,0.433,0.3,0.816,0.5,1.15c0.5,0.6,0.75,0.983,0.75,1.15
					c0,0.267-0.283,1.317-0.85,3.15c-0.567,1.7-0.784,3.383-0.65,5.05c0.1,1.233-0.083,2.683-0.55,4.35
					c-0.533,1.967-0.85,3.567-0.95,4.8c-0.5,7.833-0.75,13.983-0.75,18.45c0,0.167,0.05,0.417,0.15,0.75
					c0.066,0.333,0.1,0.6,0.1,0.8c0.5,0.066,1.133-0.083,1.9-0.45c0.233-0.133,0.433-0.25,0.6-0.35c-0.466,1.267-1.1,3.133-1.9,5.6
					c-1.4,4.367-2.1,6.783-2.1,7.25c0,0.8,0.017,1.267,0.05,1.4c0.133,0.5,0.45,0.784,0.95,0.85c0-0.167,0.083-0.25,0.25-0.25v1.7
					c-0.4,1.433-0.633,3-0.7,4.7c0,0.067,0,0.184,0,0.35c-0.033,0.567-0.05,1.75-0.05,3.55c-0.267,0.667-0.417,1.3-0.45,1.9
					c-0.067,0.833,0.15,1.433,0.65,1.8c0.2,0.2,0.467,0.333,0.8,0.4v-0.25c0.167,2.667,0.284,4.7,0.35,6.1
					c0.133,2.567,0.184,4.617,0.15,6.15c-0.033,2.067,0.25,4.067,0.85,6c0.9,3,1.367,4.583,1.4,4.75
					c-0.633-0.633-1.066-1.033-1.3-1.2c-0.433-0.367-0.833-0.633-1.2-0.8v3.5c0.534,1.467,0.483,3.367-0.15,5.7
					c-0.867,2.433-1.4,4.117-1.6,5.05v2l0.75-0.75v0.25c-0.3,0.534-0.517,1.2-0.65,2c-0.133,0.767-0.167,1.517-0.1,2.25h-0.25
					c0-0.367-0.117-0.667-0.35-0.9c-0.133-0.1-0.35-0.217-0.65-0.35c-1.167,2.667-2.05,4.75-2.65,6.25c-1.066,2.667-1.683,5-1.85,7
					c-1.4,0.667-2.917,1.717-4.55,3.15c-1.1,0.933-2.533,2.1-4.3,3.5c-0.367,0.667-0.8,1.417-1.3,2.25
					c-0.167,0.267-0.35,0.55-0.55,0.85c-1,1.733-2.15,3.934-3.45,6.6c-0.066,0.133-0.133,0.283-0.2,0.45
					c0.566-0.667,0.883-1.083,0.95-1.25c0.167-0.367,0.3-0.65,0.4-0.85l0.15-0.25h0.05c1.3-1.867,2.6-3.767,3.9-5.7l-0.4,3.55
					c-2.433,4.2-4.433,8.517-6,12.95c-0.4,0.267-0.85,0.534-1.35,0.8c-0.767,0.433-1.566,0.833-2.4,1.2
					c-0.067,0.034-0.15,0.067-0.25,0.1c-0.267,0.033-0.467,0.15-0.6,0.35c-0.066,0.067-0.333,0.333-0.8,0.8
					c-0.5,0.467-0.967,0.883-1.4,1.25c-0.434,0.4-0.767,0.684-1,0.85c-0.267,0.2-0.617,0.55-1.05,1.05
					c-0.133,0.133-0.283,0.267-0.45,0.4c0.267-0.167,0.533-0.333,0.8-0.5c0.167-0.1,0.317-0.217,0.45-0.35
					c0.733-0.567,1.466-1.117,2.2-1.65c1.333-0.934,2.7-1.833,4.1-2.7c0.1-0.066,0.2-0.117,0.3-0.15
					c0.233-0.1,0.417-0.217,0.55-0.35c0.167-0.133,0.333-0.133,0.5,0c-1.367,4.033-2.283,7.1-2.75,9.2
					c0.967-3.167,2.283-6.783,3.95-10.85c2.034-4.8,3.55-7.833,4.55-9.1c0.133-0.167,0.4-0.55,0.8-1.15
					c-0.467,2.067-0.733,3.75-0.8,5.05c-0.067,1.333-0.317,3.65-0.75,6.95c1.467-7.033,2.2-10.583,2.2-10.65
					c0.167-0.5,0.3-1.217,0.4-2.15c0.033-0.1,0.05-0.2,0.05-0.3c0.067-0.367,0.133-0.733,0.2-1.1c0-0.233,0.017-0.433,0.05-0.6
					c0.133-1.367,0.2-2.617,0.2-3.75c0-0.2-0.034-0.383-0.1-0.55c1.267-1.6,2.5-2.9,3.7-3.9c1.2-0.933,2.35-1.733,3.45-2.4
					c-0.333,2.5-1.033,9.917-2.1,22.25l1.3-8c0.1-1.2,0.216-2.767,0.35-4.7c0-0.9,0.034-1.566,0.1-2
					c0.033-0.167,0.184-0.816,0.45-1.95c0.267-2,0.55-3,0.85-3c0.966,3.167,1.533,5.216,1.7,6.15c0.2,1.267,0.3,3.35,0.3,6.25
					c0.033-0.467,0.05-0.733,0.05-0.8v-0.05c0-3.133-0.1-5.55-0.3-7.25c-0.2-1.567-0.517-3.8-0.95-6.7
					c0.033-0.233,0.067-0.483,0.1-0.75c0.2-1.566,0.483-3.167,0.85-4.8c0.066-0.067,0.117-0.133,0.15-0.2
					c0.4-0.7,0.717-1.25,0.95-1.65c0.233-0.4,0.483-0.9,0.75-1.5c0.3-0.6,0.467-0.967,0.5-1.1c0-0.133,0.017-0.216,0.05-0.25
					c0-0.267,0.133-0.383,0.4-0.35h0.15c-0.033,0.433,0.033,0.8,0.2,1.1c-0.333,6.8-0.033,13.517,0.9,20.15
					c0,0.1,0.017,0.2,0.05,0.3c-0.733,4.733-1.667,8.217-2.8,10.45c-1.933,0.667-3.617,1.283-5.05,1.85c-2,1.7-3.633,3-4.9,3.9
					c-5.2,3.633-9.017,7.466-11.45,11.5c0.933-1.067,1.75-1.967,2.45-2.7c2.267-2.4,4.317-4.2,6.15-5.4
					c-0.034,0.867-0.25,1.867-0.65,3c-0.367,0.9-1,2.4-1.9,4.5c-0.3,0.667-0.767,1.816-1.4,3.45c-0.1,0.233-0.183,0.467-0.25,0.7
					c0.867-1.733,1.817-3.717,2.85-5.95c1.4-3.033,2.417-5.283,3.05-6.75l6.5-4.6c2.467-0.967,4.067-1.5,4.8-1.6
					c-0.267,0.967-0.583,1.883-0.95,2.75c-0.067,0.233-0.15,0.467-0.25,0.7c-0.967,2.367-2.05,4.434-3.25,6.2
					c-0.033,0.1-0.05,0.167-0.05,0.2c0,0.1,0.017,0.167,0.05,0.2c0.067,0.067,0.133,0.1,0.2,0.1c0.066,0,0.133-0.033,0.2-0.1
					c1.467-1.867,2.7-3.633,3.7-5.3c0.367,0.467,0.733,1.233,1.1,2.3c0.367,1.133,0.55,2,0.55,2.6l-0.05,1.55
					c-0.767,0.434-1.934,1.65-3.5,3.65c-1.967,2.533-3.333,4.917-4.1,7.15c0.167-0.033,0.333-0.067,0.5-0.1
					c0.833-1.9,1.733-3.483,2.7-4.75c1.133-1.567,2.15-2.35,3.05-2.35c0.4,0,0.6,0.5,0.6,1.5c0,0.5-0.067,1.217-0.2,2.15
					c-0.133,0.833-0.233,1.434-0.3,1.8c0.066,0,0.133-0.017,0.2-0.05c0.1-0.333,0.2-0.7,0.3-1.1c0.833-3.133,1.25-5.617,1.25-7.45
					c0-0.167,0-0.35,0-0.55c-0.034-2.1-0.2-4-0.5-5.7c-0.2-1.167-0.333-2.083-0.4-2.75c0.6-1.167,1.067-2.3,1.4-3.4
					c0.933-2.867,1.617-5.367,2.05-7.5c1.267,2.033,2.35,3.467,3.25,4.3c-0.233,2-0.45,3.9-0.65,5.7
					c-0.8,7.133-1.2,12.417-1.2,15.85c0.233-0.133,0.45-0.284,0.65-0.45c0.067-1.833,0.133-4.05,0.2-6.65
					c0.133-2.467,0.517-4.517,1.15-6.15c0.934,0.1,2.083,1.133,3.45,3.1c0.433,0.667,0.816,1.284,1.15,1.85
					c-0.4-1.167-0.817-2.1-1.25-2.8c-0.733-1.333-1.85-2.7-3.35-4.1l-0.05,0.1v-1.25c0.267-1.233,0.633-2.684,1.1-4.35
					c0.133,0.1,0.25,0.15,0.35,0.15c0.067,0.033,0.117,0.017,0.15-0.05c-0.633-0.967-1.8-2.5-3.5-4.6
					c-1.5-2.167-2.133-4.15-1.9-5.95c0.167-1.267,0.067-3.683-0.3-7.25c-0.467-4.066-0.7-6.433-0.7-7.1c0-2.333,0.067-3.934,0.2-4.8
					c0.2-1.4,0.717-3.267,1.55-5.6c0.2-0.5,0.267-1.283,0.2-2.35c-0.067-1.233-0.05-2.117,0.05-2.65c0.067-0.3,0.45-0.833,1.15-1.6
					c0.2-0.233,0.367-0.434,0.5-0.6c0-0.067-0.017-0.117-0.05-0.15c-0.066-0.167-0.1-0.333-0.1-0.5
					c-0.033-0.133-0.066-0.25-0.1-0.35c-0.2-0.733-0.217-1.5-0.05-2.3c0.033-0.066,0.05-0.15,0.05-0.25
					c0.066-0.466,0.183-0.917,0.35-1.35c0-0.067,0.017-0.117,0.05-0.15c0.033-0.2,0.066-0.4,0.1-0.6c0-0.1,0-0.184,0-0.25
					c0.033-0.733,0.05-1.45,0.05-2.15c0.267,0.1,0.45,0.233,0.55,0.4c0,0.033,0.034,0.066,0.1,0.1c0.233,0.1,0.467,0.233,0.7,0.4
					c0.033,0.033,0.05,0.083,0.05,0.15c1.367,3.2,2.517,7.683,3.45,13.45c0.066,0.733,0.15,1.4,0.25,2c0,0.1,0,0.167,0,0.2
					c-0.434,1.567-0.867,5.033-1.3,10.4c-0.3,0.133-0.633,0.35-1,0.65l-2,1.95c-1.3,1.5-2,2.567-2.1,3.2L41-50.9
					c1.5-1.267,2.333-1.85,2.5-1.75c-0.1,1-0.167,1.8-0.2,2.4c-0.033,0.6-0.066,1.167-0.1,1.7c0,0.267,0,0.517,0,0.75
					c0,0.133,0,0.25,0,0.35c-0.167,1.667-0.317,3.467-0.45,5.4c0,0.066-0.017,0.933-0.05,2.6c0,1.7,0.05,1.917,0.15,0.65
					c0.133-1.3,0.233-2.15,0.3-2.55c0.067-0.367,0.1-0.583,0.1-0.65v-0.05c0.133-1.867,0.267-3.65,0.4-5.35
					c0.033,0.033,0.083,0.05,0.15,0.05c0.167,0,0.267,0.067,0.3,0.2l0.05,0.05c0.033,0.033,0.067,0.05,0.1,0.05
					c0.067,0.066,0.15,0.117,0.25,0.15c0.067,0,0.117,0.017,0.15,0.05c0.067,0.033,0.117,0.1,0.15,0.2c0,0.033,0.017,0.05,0.05,0.05
					c0.066,0.033,0.117,0.067,0.15,0.1c0.133,0.167,0.25,0.333,0.35,0.5c0.133,0.2,0.25,0.383,0.35,0.55
					c0.833,1.267,1.6,2.617,2.3,4.05c0.567,1.2,0.967,2.183,1.2,2.95c-0.567,1.9-1.1,3.717-1.6,5.45
					c-0.067,0.267-0.133,0.533-0.2,0.8c0,0.034-0.017,0.05-0.05,0.05c-0.1,0.4-0.233,0.767-0.4,1.1
					c-0.034,0.033-0.05,0.066-0.05,0.1c-0.167,0.267-0.233,0.6-0.2,1c0,0.133,0.017,0.267,0.05,0.4c0.033,0.167,0.05,0.35,0.05,0.55
					c0,0.1,0,0.2,0,0.3c-0.033,0.233-0.05,0.467-0.05,0.7c-0.067,1.633-0.017,3.083,0.15,4.35c0.133,1.4,0.283,2.4,0.45,3
					c-0.033-0.567-0.083-1.517-0.15-2.85c-0.1-1.267-0.15-2.267-0.15-3c0-1.367,0.034-2.183,0.1-2.45
					c0.067-0.367,0.267-1.216,0.6-2.55s0.717-2.75,1.15-4.25c0.033-0.1,0.067-0.2,0.1-0.3c0.067-0.233,0.117-0.434,0.15-0.6
					c0.033,0,0.067,0,0.1,0c0,0.1,0.05,0.183,0.15,0.25c0.133-0.067,0.233-0.033,0.3,0.1c0.033,0.033,0.066,0.066,0.1,0.1
					c0.133,0.233,0.25,0.45,0.35,0.65c0.067,0.133,0.117,0.25,0.15,0.35c0.967,2.667,1.65,5.267,2.05,7.8
					c0.233,1.533,0.383,3.033,0.45,4.5c0.067-0.067,0.117-0.133,0.15-0.2c0.033-0.467-0.1-2.066-0.4-4.8
					c-0.033-0.233-0.066-0.483-0.1-0.75c-0.034-0.3-0.067-0.583-0.1-0.85c0-0.233-0.017-0.467-0.05-0.7c0-0.066,0-0.133,0-0.2
					c-0.033-0.333-0.066-0.684-0.1-1.05c-0.034-0.233-0.1-0.45-0.2-0.65c-0.033-0.066-0.05-0.133-0.05-0.2
					c0-0.067-0.017-0.117-0.05-0.15c-0.167-0.466-0.3-0.917-0.4-1.35c-0.067-0.267-0.133-0.5-0.2-0.7
					c-0.066-0.2-0.117-0.417-0.15-0.65c0-0.167-0.033-0.35-0.1-0.55c-0.167-0.433-0.35-0.883-0.55-1.35c0-0.034,0-0.067,0-0.1
					c-0.167-0.367-0.3-0.75-0.4-1.15c0-0.067-0.017-0.133-0.05-0.2c-0.066-0.233-0.133-0.467-0.2-0.7
					c-0.033-0.133-0.067-0.283-0.1-0.45c0-0.033,0-0.067,0-0.1c-0.067-0.167-0.133-0.35-0.2-0.55c-0.1-0.233-0.2-0.45-0.3-0.65
					c-0.233-0.333-0.45-0.7-0.65-1.1c-0.233-0.467-0.467-0.883-0.7-1.25c-0.033-0.034-0.05-0.067-0.05-0.1
					c-0.233-0.233-0.434-0.5-0.6-0.8c-0.067-0.133-0.15-0.267-0.25-0.4c-0.533-1-1.083-1.95-1.65-2.85
					c-0.733-1.167-1.25-1.966-1.55-2.4c0.133-0.9,0.233-1.75,0.3-2.55v-0.05c0-0.033,0-0.083,0-0.15
					c0.033-0.267,0.066-0.566,0.1-0.9c0-0.067,0-0.117,0-0.15c0.3-3.367,0.583-5.733,0.85-7.1c0.167,1.367,0.3,2.6,0.4,3.7
					c0,0.066,0.017,0.133,0.05,0.2c0.433,3.533,0.733,5.883,0.9,7.05c0,0.1,0.067,0.483,0.2,1.15c0.133,0.633,0.233,1.133,0.3,1.5
					c0.1,0.333,0.117-0.017,0.05-1.05c-0.034-1-0.05-1.55-0.05-1.65c-0.1-2.4-0.267-4.8-0.5-7.2v-0.1
					c-0.3-2.6-0.583-5.184-0.85-7.75c-0.133-1.533-0.3-3.083-0.5-4.65c-0.1-0.5-0.566-2.617-1.4-6.35
					C43.617-76.1,43.583-76.317,43.55-76.55z M62.45-62.05L62.5-62l-0.3-0.2L62.45-62.05z"/>
				<path style="fill-rule:evenodd;clip-rule:evenodd;fill:#342109;" d="M20.2-45.3c1.767-1.4,3.2-2.567,4.3-3.5
					c1.633-1.434,3.15-2.483,4.55-3.15c0.167-2,0.784-4.333,1.85-7c0.6-1.5,1.483-3.583,2.65-6.25c0.3,0.133,0.517,0.25,0.65,0.35
					c0.233,0.233,0.35,0.533,0.35,0.9h0.25c-0.066-0.733-0.033-1.483,0.1-2.25c0.133-0.8,0.35-1.466,0.65-2v-0.25L34.8-67.7v-2
					c0.2-0.933,0.733-2.617,1.6-5.05c0.633-2.333,0.684-4.233,0.15-5.7v-3.5c0.367,0.167,0.767,0.434,1.2,0.8
					c0.233,0.167,0.667,0.566,1.3,1.2c-0.033-0.167-0.5-1.75-1.4-4.75c-0.6-1.933-0.883-3.933-0.85-6
					c0.034-1.533-0.017-3.583-0.15-6.15c-0.066-1.4-0.183-3.433-0.35-6.1v0.25c-0.333-0.066-0.6-0.2-0.8-0.4
					c-0.5-0.367-0.717-0.967-0.65-1.8c0.033-0.6,0.183-1.233,0.45-1.9c0-1.8,0.017-2.983,0.05-3.55c0-0.167,0-0.283,0-0.35
					c0.066-1.7,0.3-3.267,0.7-4.7v-1.7c-0.167,0-0.25,0.083-0.25,0.25c-0.5-0.066-0.816-0.35-0.95-0.85
					c-0.033-0.133-0.05-0.6-0.05-1.4c0-0.467,0.7-2.883,2.1-7.25c0.8-2.467,1.434-4.333,1.9-5.6c-0.167,0.1-0.367,0.217-0.6,0.35
					c-0.767,0.367-1.4,0.517-1.9,0.45c0-0.2-0.033-0.467-0.1-0.8c-0.1-0.333-0.15-0.583-0.15-0.75c0-4.466,0.25-10.617,0.75-18.45
					c0.1-1.233,0.417-2.833,0.95-4.8c0.467-1.667,0.65-3.117,0.55-4.35c-0.133-1.667,0.083-3.35,0.65-5.05
					c0.566-1.833,0.85-2.883,0.85-3.15c0-0.167-0.25-0.55-0.75-1.15c-0.2-0.333-0.367-0.717-0.5-1.15c0,0.1,0,0.2,0,0.3
					c0,0.633-0.017,1.067-0.05,1.3c-0.1,0.5-0.333,0.85-0.7,1.05h-1.75c-0.033-0.533-0.35-1.167-0.95-1.9
					c-0.6-0.733-1.15-1.1-1.65-1.1c-0.034,0-0.083,0.017-0.15,0.05c-0.3-0.333-0.667-0.6-1.1-0.8c-0.6-0.267-1.817-0.65-3.65-1.15
					c-0.333-0.1-0.667-0.35-1-0.75c-0.367-0.434-0.783-0.75-1.25-0.95c-1.667-0.667-2.75-1.017-3.25-1.05v-0.25
					c0.5-0.2,2.2-0.417,5.1-0.65c-0.367,0-0.75-0.017-1.15-0.05c-3.7-0.4-7.35-0.8-10.95-1.2c1,1,2.267,1.6,3.8,1.8
					c0.8,0.2,1.583,0.4,2.35,0.6c4.233,1.4,7.333,3.533,9.3,6.4c1.267,1.833,2.05,3.95,2.35,6.35c0.066,1.233,0.117,2.433,0.15,3.6
					c0.3,7.833,0.283,14.133-0.05,18.9c-0.567,7.767-0.85,15.883-0.85,24.35c0,1.5,0.033,3.367,0.1,5.6
					c0,0.567,0.017,1.167,0.05,1.8c0.133,1.367,0.333,3.017,0.6,4.95c0,0.167,0.017,0.333,0.05,0.5c0.434,4.367,0.7,7.833,0.8,10.4
					c0.133,2.733,0.2,6.8,0.2,12.2c0,5.433-0.167,8.9-0.5,10.4c-0.1,0.5-0.233,1-0.4,1.5c-0.3,0.633-0.55,1.283-0.75,1.95
					c-0.233,0.667-0.567,1.383-1,2.15c-0.433,0.8-0.75,1.183-0.95,1.15c-0.2-0.033-0.3,0.233-0.3,0.8c0,0.6-0.033,1.017-0.1,1.25
					c-0.1,0.5-0.316,1.316-0.65,2.45c-0.033,0.133-0.083,0.267-0.15,0.4l-1.45,5.65c-0.333,0.5-0.617,1.017-0.85,1.55
					c-0.267,0.533-0.6,0.983-1,1.35c-0.167,0.167-0.35,0.316-0.55,0.45c-0.9,0.6-1.733,1.267-2.5,2
					c-0.267,0.233-0.517,0.483-0.75,0.75c-0.467,0.367-0.9,0.767-1.3,1.2c-0.2,0.2-0.383,0.417-0.55,0.65
					C20.883-46.383,20.567-45.867,20.2-45.3z M27.7-36.65l0.35-2.2c0.434-3.033,0.867-5.733,1.3-8.1c0.433,0.934,0.767,2.383,1,4.35
					c0.3,2.8,0.517,4.8,0.65,6c0,0.067,0.017,0.533,0.05,1.4c0.034,0.833,0.067,1.534,0.1,2.1c0.033,0.533,0.1,0.1,0.2-1.3
					c0.033-0.633,0.066-1.133,0.1-1.5c0-2.9-0.1-4.983-0.3-6.25c-0.167-0.934-0.733-2.983-1.7-6.15c-0.3,0-0.583,1-0.85,3
					c-0.267,1.133-0.417,1.783-0.45,1.95c-0.066,0.434-0.1,1.1-0.1,2C27.917-39.417,27.8-37.85,27.7-36.65z M41.95-30.4v-0.05
					c0.066-0.033,0.1-0.1,0.1-0.2c0.034-0.067,0.034-0.133,0-0.2c-0.033-0.066-0.066-0.1-0.1-0.1c-0.1-0.066-0.2-0.15-0.3-0.25
					c-0.367-0.333-0.767-0.883-1.2-1.65c-0.333-0.7-0.717-1.583-1.15-2.65c-0.633-1.567-1.066-2.817-1.3-3.75v-0.05
					c-0.1-0.333-0.167-0.633-0.2-0.9c0-0.1-0.033-0.2-0.1-0.3h0.05c-0.833-6.2-1.133-12.433-0.9-18.7c0-0.033,0.017-0.066,0.05-0.1
					c0.033-0.167,0.05-0.333,0.05-0.5c0-0.467,0.066-0.934,0.2-1.4c0.1-0.233,0.167-0.433,0.2-0.6c0.066-0.467,0.167-0.917,0.3-1.35
					c0.033-0.067,0.05-0.117,0.05-0.15c0.033-0.233,0.066-0.45,0.1-0.65c0-0.033,0.017-0.066,0.05-0.1
					c0.033-0.467,0.066-0.934,0.1-1.4c0-0.2,0.017-0.4,0.05-0.6c0.133-0.9,0.267-1.784,0.4-2.65c0.067-0.4,0.167-0.783,0.3-1.15
					c0.167-0.333,0.267-0.7,0.3-1.1c0.033-0.167,0.083-0.333,0.15-0.5c0.033-0.066,0.067-0.15,0.1-0.25c0-0.066,0-0.15,0-0.25
					c0.067-0.367,0.05-0.683-0.05-0.95c-0.133,0.167-0.3,0.367-0.5,0.6c-0.7,0.767-1.083,1.3-1.15,1.6
					c-0.1,0.534-0.117,1.417-0.05,2.65c0.067,1.066,0,1.85-0.2,2.35c-0.833,2.333-1.35,4.2-1.55,5.6c-0.133,0.867-0.2,2.467-0.2,4.8
					c0,0.667,0.233,3.033,0.7,7.1c0.367,3.567,0.467,5.983,0.3,7.25c-0.233,1.8,0.4,3.784,1.9,5.95
					C40.15-32.9,41.317-31.367,41.95-30.4z M52.45-68.1c0.033,0.367,0.033,0.767,0,1.2c0,0.333,0.033,0.533,0.1,0.6
					c0.034,0.033,0.2,0.066,0.5,0.1c0.367,0.034,0.583,0.067,0.65,0.1c1.2,0.434,1.816,0.65,1.85,0.65c0.534,0.2,1.45,0.6,2.75,1.2
					c1.434,0.7,2.934,1.35,4.5,1.95c-0.1-0.067-1.033-0.55-2.8-1.45c-0.367-0.167-0.683-0.317-0.95-0.45
					c-0.1-0.066-0.233-0.15-0.4-0.25c-0.133-0.1-0.283-0.2-0.45-0.3c-0.034-0.033-0.067-0.05-0.1-0.05c-0.167-0.1-0.35-0.2-0.55-0.3
					c-0.066,0-0.117-0.017-0.15-0.05c-0.133-0.1-0.316-0.167-0.55-0.2H56.8c-0.267-0.033-1-0.333-2.2-0.9
					c-0.767-0.333-1.317-0.583-1.65-0.75C52.783-67.367,52.617-67.733,52.45-68.1z M43.55-76.55c-0.033-0.167-0.083-0.35-0.15-0.55
					c1.833,1.2,3.8,3.417,5.9,6.65c0.267,0.4,0.483,0.767,0.65,1.1c0,0.367-0.017,0.783-0.05,1.25c-0.1,1.833-0.15,3.4-0.15,4.7
					c0,0.033,0,0.066,0,0.1c0,0.333,0,0.633,0,0.9c0,0.033-0.017,0.383-0.05,1.05c0.066-0.566,0.15-1.333,0.25-2.3
					c-0.1-0.133-0.15-0.35-0.15-0.65c0-0.867,0.117-1.934,0.35-3.2s0.35-1.95,0.35-2.05l-1.4-2.05c-0.967-1.467-1.633-2.533-2-3.2
					c-0.667-1.3-1.367-2.083-2.1-2.35c-0.467-0.2-1.2-0.434-2.2-0.7h-0.25v0.25C42.883-77.4,43.217-77.05,43.55-76.55z"/>
				<path style="fill-rule:evenodd;clip-rule:evenodd;fill:#3B270F;" d="M44.3-176.25c-0.066,0-0.133,0-0.2,0
					c-1.033,0.333-1.783,0.65-2.25,0.95c-0.667,0.4-1.3,1.066-1.9,2c0.233-0.167,0.617-0.367,1.15-0.6c0.6-0.233,0.933-0.367,1-0.4
					c0.133-0.1,0.267-0.217,0.4-0.35c0.233-0.167,0.483-0.283,0.75-0.35c0.467-0.1,1-0.15,1.6-0.15c0.3,0,0.5,0,0.6,0h0.05
					c0.067,0,0.1,0.017,0.1,0.05c0.833,0,1.283,0.033,1.35,0.1c0.233,0.3,0.533,0.667,0.9,1.1c0.1-0.4,0.367-0.633,0.8-0.7l0.6-0.15
					c0-0.033-0.05-0.117-0.15-0.25c0-0.1,0.566-0.233,1.7-0.4c1.267-0.2,1.917-0.317,1.95-0.35c0.667-0.167,1.2-0.4,1.6-0.7
					c0.2,0.333,0.3,0.517,0.3,0.55c0.3-0.767,1.583-1.167,3.85-1.2c-0.233-0.167-0.55-0.233-0.95-0.2c-0.1,0-0.183,0-0.25,0l-2,0.25
					c0.333-0.167-0.883,0.017-3.65,0.55c-1.533,0.333-2.633,0.55-3.3,0.65c-0.9-0.133-1.783-0.183-2.65-0.15c-0.034,0-0.067,0-0.1,0
					C45.133-176.1,44.7-176.183,44.3-176.25z M54.05-179.35c-0.667-0.267-1.35-0.283-2.05-0.05c-0.333,0.1-0.65,0.183-0.95,0.25
					c-0.767,0.3-1.566,0.45-2.4,0.45c-0.4-0.066-0.816-0.05-1.25,0.05c-0.333,0.4-0.816,0.583-1.45,0.55
					c-0.367,0.1-0.75,0.184-1.15,0.25c-0.566-0.066-1.15-0.066-1.75,0c-0.233,0.033-0.417,0.1-0.55,0.2
					c-0.133,0.033-0.267,0.083-0.4,0.15c-0.2,0.067-0.417,0.133-0.65,0.2c-0.267,0.1-0.567,0.167-0.9,0.2
					c-0.1,0.033-0.183,0.05-0.25,0.05c-1.033,0.033-2.066,0.05-3.1,0.05c-0.534,0.033-1.35,0.017-2.45-0.05
					c-1.033-0.3-1.933-0.55-2.7-0.75c0.2,0.1,0.4,0.233,0.6,0.4c0.9,0.6,1.45,0.917,1.65,0.95l2.1,0.5
					c0.367,0.1,0.533,0.25,0.5,0.45h0.35c0.5-0.067,1.283-0.3,2.35-0.7c1.066-0.367,1.733-0.6,2-0.7c0.467-0.133,0.867-0.2,1.2-0.2
					c0.3,0,0.534,0,0.7,0c0.433-0.033,0.917-0.133,1.45-0.3c0.533-0.133,0.95-0.2,1.25-0.2c0.367,0,0.6,0.067,0.7,0.2
					c0.133,0.1,0.283,0.15,0.45,0.15c0.267,0,0.433-0.05,0.5-0.15l-0.35-0.2c0.3-0.533,1.283-0.967,2.95-1.3
					C51.283-179.067,52.483-179.217,54.05-179.35z"/>
			</g>
		</g>
	</g>
</symbol>
<g>
	<g>
		<path style="fill-rule:evenodd;clip-rule:evenodd;fill-opacity:0.451;" d="M119.4,354.4c-0.221,0.033-0.396,0.075-0.525,0.125
			l-3.65,0.399c-0.233,0.024-0.449,0.049-0.649,0.075c-1.124-0.01-2.433-0.06-3.925-0.15c-0.698-0.036-1.515-0.17-2.45-0.399
			c-0.941-0.225-1.717-0.416-2.325-0.575s-1.426-0.293-2.45-0.4c-1.02-0.113-1.561-0.172-1.625-0.175
			c-2.166-0.2-3.55-0.399-4.149-0.6c-0.367-0.101-0.784-0.15-1.25-0.15c-1,0-1.817,0.066-2.45,0.2c-0.967,0.2-2.05,0.35-3.25,0.45
			v0.25c1.021,0.424,2.021,0.824,3,1.2c0.136,0.052,0.269,0.103,0.399,0.149c5.466,2.102,10.249,3.485,14.351,4.15v0.149
			l-0.05,0.051c-0.054,0-0.104,0-0.15,0c-0.354,0.013-0.703,0.063-1.05,0.149c-0.175,0.044-0.292,0.069-0.351,0.075l-0.05-0.025
			c-0.891-0.009-2.791-0.242-5.7-0.699c-2.966-0.467-4.6-0.7-4.899-0.7l-0.75,0.1c-0.233,0-0.55-0.133-0.95-0.399
			s-0.667-0.45-0.8-0.551c-0.2-0.133-0.483-0.233-0.851-0.3c-0.6-0.066-1.05-0.133-1.35-0.2c-1-0.3-3.066-0.449-6.2-0.449
			c-0.7,0-1.467-0.217-2.3-0.65c-0.767-0.4-1.583-0.6-2.45-0.6c-0.399,0-2.783-0.25-7.15-0.75c-0.833,0-2.233,0.233-4.2,0.699
			c-2.3,0.534-4.483,1.2-6.55,2c-0.867,0.334-1.483,0.684-1.85,1.051c-0.233,0.267-0.45,0.399-0.65,0.399
			c-1.4,0.134-2.433,0.217-3.1,0.25c-4.667,0.167-9.783,0.483-15.35,0.95c-4.2,0.333-7.217,0.616-9.05,0.85H31.4v-0.05
			c0.05-0.034,0.101-0.067,0.15-0.1c0.172-0.115,0.331-0.216,0.475-0.3c0.128-0.08,0.245-0.146,0.35-0.2l0.775,0.1
			c1.706-0.51,2.864-0.793,3.475-0.85c0.615-0.063,2.756-0.613,6.425-1.65l6.65-2.1c0.267-0.101,1.333-0.517,3.2-1.25
			c1.133-0.467,2.417-0.934,3.85-1.4c1.6-0.566,3.567-1.066,5.9-1.5c2.6-0.5,5.05-0.816,7.35-0.95c1.067-0.1,3.517-0.25,7.35-0.449
			c4-0.233,6.284-0.351,6.851-0.351c1.533,0,4.283,0.233,8.25,0.7c3.2,0.4,5.733,0.75,7.6,1.05c2.267,0.334,5.25,0.851,8.95,1.55
			c2.833,0.534,4.583,0.817,5.25,0.851c1.9,0.033,3.15,0.133,3.75,0.3c0.033,0,0.517,0.217,1.45,0.65H119.4z"/>
		<path style="fill-rule:evenodd;clip-rule:evenodd;fill-opacity:0.2;" d="M93.7,354.65c-0.979-0.376-1.979-0.776-3-1.2v-0.25
			c1.2-0.101,2.283-0.25,3.25-0.45c0.633-0.134,1.45-0.2,2.45-0.2c0.466,0,0.883,0.05,1.25,0.15c0.6,0.2,1.983,0.399,4.149,0.6
			c0.064,0.003,0.605,0.062,1.625,0.175c1.024,0.107,1.842,0.241,2.45,0.4s1.384,0.351,2.325,0.575
			c0.936,0.229,1.752,0.363,2.45,0.399c1.492,0.091,2.801,0.141,3.925,0.15c0.2-0.026,0.416-0.051,0.649-0.075l3.65-0.399
			c0.129-0.05,0.305-0.092,0.525-0.125c0.313,0.114,0.847,0.214,1.6,0.3c0.891,0.393,0.215,0.643-2.025,0.75
			c-2.246,0.103-3.588,0.186-4.024,0.25c-0.4,0.1-1.109,0.149-2.125,0.149s-3.032-0.366-6.05-1.1c-3.019-0.733-5.652-1.1-7.9-1.1
			c-2.249,0-3.642,0.05-4.175,0.149c-0.667,0.134-1,0.367-1,0.7V354.65z M108.25,359.15c-0.366,0.267-1.116,0.399-2.25,0.399
			c-4.467-0.533-7.3-0.816-8.5-0.85c-1.1-0.066-2.517-0.4-4.25-1c-1.55-0.527-2.883-0.811-4-0.851c0-0.066-0.017-0.083-0.05-0.05
			c-0.099,0.033-0.165,0.05-0.2,0.05c-2.363,0.031-3.963,0.015-4.8-0.05c-0.601-0.066-1.134-0.184-1.601-0.35l-1.3-0.5
			c-0.733-0.2-2.1-0.384-4.1-0.55c-1.408-0.12-2.424-0.187-3.05-0.2c0-0.066-0.017-0.083-0.05-0.05l-0.025,0.024
			c-0.245-0.027-1.02,0.08-2.325,0.325c-1.533,0.3-2.483,0.517-2.85,0.65c-1.633,0.333-2.8,0.566-3.5,0.699
			c-1.167,0.267-1.983,0.617-2.45,1.051c-0.5,0.433-1.383,0.767-2.65,1l-5.4,0.5c-3.833,0.267-7.917,0.5-12.25,0.699
			c-1.4,0.034-3.15,0.167-5.25,0.4c-1.933,0.2-3.133,0.3-3.6,0.3c-1.8-0.1-2.883-0.149-3.25-0.149c0.453-0.198,0.786-0.349,1-0.45
			c-0.049,0.032-0.1,0.065-0.15,0.1v0.05h1.25c1.833-0.233,4.85-0.517,9.05-0.85c5.566-0.467,10.683-0.783,15.35-0.95
			c0.667-0.033,1.7-0.116,3.1-0.25c0.2,0,0.417-0.133,0.65-0.399c0.367-0.367,0.983-0.717,1.85-1.051c2.067-0.8,4.25-1.466,6.55-2
			c1.966-0.466,3.367-0.699,4.2-0.699c4.367,0.5,6.75,0.75,7.15,0.75c0.867,0,1.684,0.199,2.45,0.6c0.833,0.434,1.6,0.65,2.3,0.65
			c3.134,0,5.2,0.149,6.2,0.449c0.3,0.067,0.75,0.134,1.35,0.2c0.367,0.066,0.65,0.167,0.851,0.3c0.133,0.101,0.399,0.284,0.8,0.551
			s0.717,0.399,0.95,0.399l0.75-0.1c0.3,0,1.934,0.233,4.899,0.7c2.909,0.457,4.81,0.69,5.7,0.699l0.05,0.025
			c0.059-0.006,0.176-0.031,0.351-0.075C107.547,359.213,107.896,359.163,108.25,359.15z"/>
	</g>
</g>
<use xlink:href="#blue_x5F_tree_x5F_03"  width="75.25" height="179.95" y="-179.95" transform="matrix(2 0 0 -2 0 0)" style="overflow:visible;"/>
</svg>
