<?xml version="1.0" encoding="iso-8859-1"?>
<!-- Generator: Adobe Illustrator 16.0.0, SVG Export Plug-In . SVG Version: 6.00 Build 0)  -->
<!DOCTYPE svg PUBLIC "-//W3C//DTD SVG 1.1//EN" "http://www.w3.org/Graphics/SVG/1.1/DTD/svg11.dtd">
<svg version="1.1" id="Layer_1" xmlns="http://www.w3.org/2000/svg" xmlns:xlink="http://www.w3.org/1999/xlink" x="0px" y="0px"
	 width="217px" height="212px" viewBox="0 0 217 212" style="enable-background:new 0 0 217 212;" xml:space="preserve">
<symbol  id="redtree_x5F_cluster_x5F_01" viewBox="0.009 -104.05 107.241 104.05">
	<g id="Layer_3_1_">
		<g>
			<path style="fill-rule:evenodd;clip-rule:evenodd;fill:#492A31;" d="M81.6-11.25l0.3-0.1c0.533-0.233,0.934-0.733,1.2-1.5
				c0.066-0.133,0.117-0.283,0.15-0.45c0.033-0.133,0.117-0.217,0.25-0.25c0.233-0.2,0.35-0.483,0.35-0.85
				c0-0.9,0.25-1.55,0.75-1.95c0.1-0.066,0.133-0.183,0.1-0.35c0-0.933,0.1-1.816,0.3-2.65c0.2-0.8,0.6-1.45,1.2-1.95
				c0.066-0.067,0.1-0.184,0.1-0.35c0-0.533,0.034-1.05,0.1-1.55c0.033-0.066,0.05-0.167,0.05-0.3c0.066-0.367,0.183-0.7,0.35-1
				c0.167-0.4,0.25-0.833,0.25-1.3c0.034-0.6-0.133-1.117-0.5-1.55c-0.066-0.1-0.1-0.2-0.1-0.3c0-0.067,0.017-0.15,0.05-0.25
				c0.133-0.333,0.083-0.55-0.15-0.65c-0.2-0.067-0.383-0.184-0.55-0.35c0.133-0.3,0.467-0.483,1-0.55c0.1,0,0.167-0.1,0.2-0.3
				c0.133-0.567,0.117-0.933-0.05-1.1c0.167,0.067,0.3,0.1,0.4,0.1c-0.434-0.533-0.867-1.05-1.3-1.55
				c-0.1-0.067-0.183-0.15-0.25-0.25c0.333,0.1,0.667,0.183,1,0.25c0.1,0,0.2,0,0.3,0c-0.2-0.8,0.05-1.15,0.75-1.05
				c0.1,0.033,0.2,0.05,0.3,0.05c-0.5-1.4-1.25-2.5-2.25-3.3c-0.066-0.066-0.083-0.183-0.05-0.35c0.033-0.167,0.1-0.333,0.2-0.5
				c0.1-0.133,0.15-0.25,0.15-0.35c0.066-0.233,0.167-0.434,0.3-0.6c0.033-0.067,0.133-0.117,0.3-0.15c0.5-0.1,0.684-0.534,0.55-1.3
				c0.533,0.367,0.883,0.383,1.05,0.05c0.067-0.1,0.133-0.2,0.2-0.3c0.033-0.167,0.083-0.283,0.15-0.35c0.1-0.1,0.2-0.2,0.3-0.3
				c0.067-0.067,0.083-0.183,0.05-0.35c-0.133-1.066,0.017-1.8,0.45-2.2c0.1-0.1,0.133-0.25,0.1-0.45
				c-0.066-0.333-0.066-0.65,0-0.95c0.2-0.2,0.35-0.35,0.45-0.45c0.066-0.067,0.183-0.1,0.35-0.1c0.267,0.067,0.533,0.133,0.8,0.2
				c0.7,0.2,1.05,0.05,1.05-0.45c0.967-0.4,2-0.583,3.1-0.55c0.267,0,0.483-0.067,0.65-0.2c0.1-0.033,0.133-0.133,0.1-0.3
				c-0.1-0.7,0.05-1.267,0.45-1.7c0.066-0.1,0.183-0.183,0.35-0.25c0.066,0,0.15-0.033,0.25-0.1c0.733-0.367,1.533-0.7,2.4-1
				c0.133-0.066,0.283-0.117,0.45-0.15c0.434-0.167,0.733-0.383,0.9-0.65c0.533-0.767,1.183-1.4,1.95-1.9
				c0.467-0.233,0.867-0.534,1.2-0.9c0.1-0.066,0.15-0.2,0.15-0.4c0-0.6-0.017-1.2-0.05-1.8c0-0.267,0.183-0.4,0.55-0.4
				c0.167,0,0.35-0.05,0.55-0.15c0.5-0.233,0.7-0.833,0.6-1.8c0-0.1,0.05-0.167,0.15-0.2c0.5-0.3,0.717-0.933,0.65-1.9
				c0-0.066,0-0.15,0-0.25c0.066-0.767,0.1-1.533,0.1-2.3c0-0.533,0.034-1.05,0.1-1.55c0.033-0.1,0.067-0.2,0.1-0.3
				c0.167-0.333,0.15-0.617-0.05-0.85c-0.1-0.133-0.117-0.283-0.05-0.45c0.067-0.567,0-0.95-0.2-1.15c-0.1-0.066-0.15-0.2-0.15-0.4
				c-0.066-0.5,0.167-0.833,0.7-1c-0.133-0.267-0.25-0.483-0.35-0.65c-0.267-0.3-0.383-0.7-0.35-1.2
				c0.067-0.466-0.066-0.783-0.4-0.95c-0.066-0.067-0.117-0.167-0.15-0.3c-0.067-0.2-0.133-0.383-0.2-0.55
				c-0.333-0.567-0.783-0.967-1.35-1.2c-0.233-0.1-0.417-0.25-0.55-0.45c-0.167-0.167-0.283-0.4-0.35-0.7
				c-0.066-0.267-0.083-0.517-0.05-0.75c0-0.667-0.183-1.117-0.55-1.35c-0.1-0.066-0.2-0.117-0.3-0.15
				c-0.467-0.033-0.783-0.2-0.95-0.5c-0.034-0.066-0.133-0.133-0.3-0.2c-0.1-0.034-0.2-0.1-0.3-0.2c-0.167-0.233-0.417-0.4-0.75-0.5
				c-0.4-0.133-0.717-0.35-0.95-0.65c-0.066-0.067-0.183-0.133-0.35-0.2c-0.1-0.033-0.167-0.1-0.2-0.2
				c-0.033-0.534-0.417-0.717-1.15-0.55c-0.1,0-0.184,0-0.25,0c-1.6-0.933-3.3-1.566-5.1-1.9c-1.5-0.7-2.684-1.05-3.55-1.05
				c-1.133,0-1.767-0.083-1.9-0.25c-0.367,0.333-1.233,0.617-2.6,0.85c-1.466,0.267-2.35,0.483-2.65,0.65
				c-1.233,0.767-2.033,1.216-2.4,1.35c-0.633,0.267-1.417,0.4-2.35,0.4c0.333,0.333,0.5,0.667,0.5,1c-0.333,0-0.833,0.083-1.5,0.25
				c-0.1,0.9-0.367,1.7-0.8,2.4c-0.533,0.9-1.233,1.35-2.1,1.35c-0.233,0-0.383-0.034-0.45-0.1c-0.066-0.1-0.117-0.15-0.15-0.15
				c0,0.5-0.083,0.917-0.25,1.25h1.25v0.75c-0.233,0.1-0.75,0.25-1.55,0.45c-0.633,0.3-0.95,0.783-0.95,1.45
				c0,0.5,0.017,0.8,0.05,0.9c0.1,0.167,0.316,0.283,0.65,0.35c-0.3,0.033-0.583,0.15-0.85,0.35c-0.633,0.466-0.983,0.716-1.05,0.75
				c0.733-0.133,1.183-0.067,1.35,0.2c0.067,0.1,0.1,0.5,0.1,1.2c0,0.3-0.066,0.55-0.2,0.75c-0.2,0.3-0.383,0.583-0.55,0.85
				c0.133,0,0.25,0.05,0.35,0.15s0.15,0.217,0.15,0.35c-0.2,0.4-0.45,0.75-0.75,1.05c-0.333,0.3-0.583,0.533-0.75,0.7h0.25
				c0-0.167,0.25-0.25,0.75-0.25c0,0.066,0.033,0.083,0.1,0.05c0.1,0,0.15,0.117,0.15,0.35c-0.233,0.066-0.367,0.133-0.4,0.2
				c-0.067,0.167,0.317,0.383,1.15,0.65c-0.6-0.1-0.85-0.05-0.75,0.15c0.233,0.367,0.067,0.733-0.5,1.1v1.25
				c0.167,0.1,0.45,0.183,0.85,0.25c0.433,0.1,0.733,0.183,0.9,0.25v0.25c-0.5,0.1-0.917,0.216-1.25,0.35
				c-0.633,0.267-0.967,0.817-1,1.65c-0.566-0.434-1.167-0.417-1.8,0.05c-0.5,0.4-0.817,0.883-0.95,1.45c0.5,0,0.75,0.083,0.75,0.25
				c-0.167,0-0.25,0.083-0.25,0.25c-0.333,0-0.5,0.083-0.5,0.25c0.133,0.167,0.217,0.3,0.25,0.4c0.1,0.133,0.184,0.333,0.25,0.6
				c-0.167,0-0.383,0.05-0.65,0.15c-0.233,0.066-0.433,0.1-0.6,0.1c0.133,0.167,0.217,0.3,0.25,0.4c0.1,0.133,0.184,0.333,0.25,0.6
				c-0.167,0-0.25,0.083-0.25,0.25h-1.25v-1.75H64.9c-0.033,0.1-0.15,0.3-0.35,0.6c-0.1,0.167-0.15,0.3-0.15,0.4
				c-0.333-0.333-0.583-0.5-0.75-0.5c0,0.233-0.05,0.417-0.15,0.55s-0.217,0.2-0.35,0.2c0,0.1-0.167,0.017-0.5-0.25
				c-0.367-0.333-0.617-0.5-0.75-0.5c-0.2,0-0.35,0.083-0.45,0.25c-0.067,0.167-0.217,0.25-0.45,0.25c-0.067,0-0.25-0.1-0.55-0.3
				c-0.3-0.2-0.483-0.35-0.55-0.45v0.25c0,0.1,0.033,0.183,0.1,0.25c0.1,0.1,0.15,0.183,0.15,0.25c-0.333-0.067-0.833-0.15-1.5-0.25
				c-0.533-0.067-0.95-0.133-1.25-0.2c0,0.1,0.033,0.217,0.1,0.35c0.1,0.167,0.15,0.283,0.15,0.35c-1.333,0-2.083-0.083-2.25-0.25
				v1.25h-2c-0.066-0.1-0.2-0.217-0.4-0.35c-0.1-0.1-0.15-0.25-0.15-0.45c-0.033,0.033-0.067,0.05-0.1,0.05
				c-0.267,0.167-0.433,0.25-0.5,0.25c-0.2,0-0.433-0.083-0.7-0.25c-0.3-0.167-0.517-0.25-0.65-0.25c0,0.233-0.05,0.417-0.15,0.55
				s-0.217,0.2-0.35,0.2c-0.033-0.333-0.2-0.5-0.5-0.5c-0.467,0.033-0.717,0.033-0.75,0c0,0.2-0.05,0.4-0.15,0.6
				c-0.067,0.2-0.1,0.333-0.1,0.4c-0.033,0-0.316-0.167-0.85-0.5c-0.333-0.2-0.633-0.45-0.9-0.75C47.183-52.283,47.133-52.1,47-52
				l-0.6,0.2c0,0.1,0,0.183,0,0.25h-1.25c-0.566-0.267-1.233-0.517-2-0.75c-0.467-0.233-0.633-0.65-0.5-1.25
				c0.5,0,0.75-0.167,0.75-0.5c-0.167,0-0.25-0.083-0.25-0.25c-0.1,0.033-0.5,0.183-1.2,0.45c-0.5,0.167-0.85,0.35-1.05,0.55
				c-0.233-0.2-0.566-0.45-1-0.75c0,0.167-0.167,0.25-0.5,0.25v0.15c-0.033-0.167-0.267-0.45-0.7-0.85c-0.2-0.233-0.5-0.533-0.9-0.9
				c0.067,0.1,0.1,0.267,0.1,0.5c-0.667,1-1,1.533-1,1.6c-0.167-0.167-0.417-0.25-0.75-0.25v1.25c-0.566,0-0.983,0.083-1.25,0.25
				c-0.3,0.167-0.633,0.25-1,0.25c0.333,0.333,0.5,0.75,0.5,1.25c-0.167,0-0.35,0.05-0.55,0.15c-0.167,0.066-0.367,0.1-0.6,0.1
				s-0.417-0.034-0.55-0.1c-0.167-0.1-0.267-0.15-0.3-0.15c0.267-0.267,0.434-0.934,0.5-2c0.033-0.167,0.067-0.333,0.1-0.5
				c0.167-0.034,0.4-0.133,0.7-0.3c0.367-0.2,0.683-0.433,0.95-0.7c-0.2-0.4-0.316-0.633-0.35-0.7c-0.1-0.267-0.15-0.533-0.15-0.8
				c0-0.333,0.167-0.667,0.5-1c0.333-0.3,0.5-0.667,0.5-1.1c0-0.033-0.167-0.3-0.5-0.8c-0.333-0.5-0.5-0.783-0.5-0.85
				c0.333-0.333,0.5-0.667,0.5-1c-0.6-0.133-0.9-0.45-0.9-0.95c0-0.3,0.05-0.65,0.15-1.05c-0.333,0.333-0.583,0.5-0.75,0.5
				c0-0.034,0.083-0.167,0.25-0.4c0.167-0.233,0.25-0.466,0.25-0.7c0-0.033-0.467-0.467-1.4-1.3c-0.9-1.033-1.35-2.066-1.35-3.1
				c-0.066,0-0.1,0.083-0.1,0.25c-0.033,0.167-0.167,0.25-0.4,0.25c-0.167,0-0.5-0.25-1-0.75c-0.5-0.467-0.75-0.75-0.75-0.85
				c0-0.3,0.017-0.483,0.05-0.55c0.1-0.1,0.417-0.216,0.95-0.35c-0.733-0.233-1.683-0.633-2.85-1.2
				c-0.966-0.333-1.933-0.267-2.9,0.2c0.167-0.633-0.25-1-1.25-1.1c-1.1-0.133-1.683-0.517-1.75-1.15
				c-0.267,0.267-0.566,0.316-0.9,0.15c-0.333-0.133-0.617-0.434-0.85-0.9v0.75c-0.3-0.067-0.6-0.267-0.9-0.6
				c-0.367-0.367-0.567-0.75-0.6-1.15c-0.267,0.033-0.65,0.216-1.15,0.55c-0.5,0.3-0.783,0.45-0.85,0.45
				c-0.233,0-0.45-0.083-0.65-0.25c-0.2-0.167-0.317-0.25-0.35-0.25c-0.1,0.4-0.267,0.65-0.5,0.75c-0.333-0.333-0.583-0.5-0.75-0.5
				v0.25c0,0.5-0.083,0.833-0.25,1c-0.233-0.2-0.533-0.35-0.9-0.45s-0.65-0.283-0.85-0.55v0.25c0.5,0.5,0.75,0.833,0.75,1
				c-0.1,0.033-0.2,0.083-0.3,0.15c-0.3,0.133-0.667,0.217-1.1,0.25c-0.267,0-0.533,0.017-0.8,0.05
				c-0.267,0.067-0.567,0.184-0.9,0.35c0,0.367-0.133,0.533-0.4,0.5c-0.633-0.1-1.1,0.033-1.4,0.4c-0.2-0.3-0.333-0.25-0.4,0.15
				c0,0.167-0.05,0.284-0.15,0.35c-0.367,0.233-0.567,0.633-0.6,1.2c0,0.167,0.017,0.267,0.05,0.3c0.467,0.233,0.533,0.567,0.2,1
				c-0.1,0.067-0.2,0.133-0.3,0.2c-0.5,0.1-0.933,0.283-1.3,0.55c-0.167,0.1-0.317,0.233-0.45,0.4c-0.333,0.333-0.767,0.7-1.3,1.1
				c0.133,0.067,0.233,0.133,0.3,0.2c0.1,0.2,0.117,0.417,0.05,0.65c0,0.1,0,0.183,0,0.25c0,0.4-0.184,0.667-0.55,0.8
				c0,0.233-0.033,0.434-0.1,0.6c-0.1,0.167-0.217,0.283-0.35,0.35c-0.1,0.133-0.2,0.283-0.3,0.45c-0.2,0.433-0.5,0.767-0.9,1
				c-0.433,0.3-0.65,0.883-0.65,1.75c0,0.1,0,0.183,0,0.25c-0.067,0.533-0.033,1.066,0.1,1.6c0.1,0.333,0,0.567-0.3,0.7
				c-0.267,0.167-0.35,0.533-0.25,1.1c0.034,0.167,0.1,0.3,0.2,0.4c0.267,0.3,0.4,0.767,0.4,1.4c-0.033,0.2-0.083,0.35-0.15,0.45
				c-0.167,0.233-0.2,0.517-0.1,0.85c0.067,0.167,0.117,0.35,0.15,0.55c0.034,0.167,0.017,0.267-0.05,0.3
				c-0.2,0.1-0.233,0.333-0.1,0.7c0.067,0.1,0.133,0.15,0.2,0.15c0.566-0.033,0.9,0.1,1,0.4c0.033,0.167,0.083,0.317,0.15,0.45
				c0.133,0.267,0.167,0.633,0.1,1.1c-0.167,1.066,0.017,1.767,0.55,2.1c0.1,0.066,0.167,0.15,0.2,0.25
				c0.167,0.733,0.533,1.25,1.1,1.55c0.167,0.067,0.316,0.183,0.45,0.35c0.267,0.333,0.733,0.467,1.4,0.4H5.8
				c-0.033,0.733,0.233,1.067,0.8,1c0.333-0.067,0.5,0.033,0.5,0.3c0,0.267,0.033,0.517,0.1,0.75c0.066,0.333,0.2,0.5,0.4,0.5
				c0.7,0.067,0.95,0.517,0.75,1.35c-0.067,0.367,0.033,0.533,0.3,0.5c0.467,0,0.7,0.184,0.7,0.55C9.317-38.517,9.4-38.067,9.6-37.7
				c0.066,0.167,0.05,0.284-0.05,0.35c-0.2,0.2-0.25,0.583-0.15,1.15c0.067,0.467-0.1,0.684-0.5,0.65c-0.367,0-0.533,0.133-0.5,0.4
				c0.1,0.1,0.184,0.183,0.25,0.25c0.1,0.1,0.233,0.15,0.4,0.15c-0.033,0.6,0.133,1.183,0.5,1.75c-0.066,0.133-0.1,0.333-0.1,0.6
				c0.633,1.1,1.233,2.133,1.8,3.1c2.5,4.333,4.15,7.4,4.95,9.2h0.1c0.267-0.167,0.483-0.333,0.65-0.5c0.1-0.1,0.183-0.2,0.25-0.3
				c0.233-0.367,0.417-0.7,0.55-1c-0.2,0.933,0.067,1.283,0.8,1.05c0.167,0.167,0.333,0.233,0.5,0.2c0.3-0.033,0.517-0.15,0.65-0.35
				c0.7,0.533,1.383,0.533,2.05,0c0.1-0.067,0.233-0.083,0.4-0.05c0.567,0.233,0.9,0.566,1,1c0.1,0.367,0.117,0.667,0.05,0.9
				c0.233-0.233,0.583-0.4,1.05-0.5c0.133-0.667,0.417-0.85,0.85-0.55c0.133,0.067,0.233,0.067,0.3,0c0.1-0.1,0.133-0.233,0.1-0.4
				c0-0.267,0.167-0.333,0.5-0.2c0.133,0.033,0.25,0.066,0.35,0.1c0.566,0.133,0.9,0,1-0.4c0.033-0.167,0.117-0.267,0.25-0.3
				s0.316,0,0.55,0.1c0.067,0.033,0.15,0.1,0.25,0.2c0.267,0.233,0.684,0.283,1.25,0.15c0.1-0.033,0.184-0.1,0.25-0.2
				c0.167-0.3,0.35-0.434,0.55-0.4c0.1,0,0.2,0.017,0.3,0.05c0.6,0.167,0.933,0.033,1-0.4c0.2,0.733,0.717,1.083,1.55,1.05v0.25
				c0,0.267,0.133,0.434,0.4,0.5l-0.15,0.25c-0.167,0.267-0.3,0.633-0.4,1.1c-0.167,0.733,0.133,1.15,0.9,1.25
				c0.034,0,0.05,0.1,0.05,0.3v0.25c0.367-0.7,0.7-0.65,1,0.15c0.033,0.066,0.133,0.133,0.3,0.2c0.133,0,0.233,0.083,0.3,0.25
				c0.1,0.167,0.133,0.383,0.1,0.65c0,0.167,0.034,0.35,0.1,0.55c0.267,0.6,0.583,1.15,0.95,1.65c0.066,0.1,0.133,0.217,0.2,0.35
				c0.233,0.467,0.333,1,0.3,1.6c-0.033,0.566-0.25,0.917-0.65,1.05c0.5,0.067,0.95,0.067,1.35,0c0.067,0,0.133,0.083,0.2,0.25
				c0.2,0.333,0.45,0.733,0.75,1.2c0.033,0.1,0.133,0.117,0.3,0.05c0.1-0.033,0.184-0.05,0.25-0.05c0.1,0,0.167,0.05,0.2,0.15
				c0.233,0.533,0.767,0.833,1.6,0.9h0.05c0,0.3-0.017,0.567-0.05,0.8C41.183-6.633,40.867-6.233,40.4-6h-0.15
				c0.9,0.033,1.7,0.217,2.4,0.55c0.8,0.367,1.717,1.017,2.75,1.95c0-0.067-0.05-0.183-0.15-0.35c-0.067-0.167-0.1-0.3-0.1-0.4h2.5
				c0.667,0.667,1,1.3,1,1.9c0,0.133,0,0.25,0,0.35h0.75c0.267,0.167,0.45,0.283,0.55,0.35c0.2,0.1,0.433,0.15,0.7,0.15
				c0.1,0,0.267-0.167,0.5-0.5c0.367,1.067,0.733,1.6,1.1,1.6c0.533-0.233,1.083-0.35,1.65-0.35c1,0,2.333,0.167,4,0.5L57.15-1
				c0.333,0,0.733-0.033,1.2-0.1c0.6-0.1,0.983-0.15,1.15-0.15c0.867,0,1.35,0.017,1.45,0.05c0.167,0.1,0.316,0.5,0.45,1.2
				c0.633-0.7,1.833-1.133,3.6-1.3c0.1,0.033,0.183,0.05,0.25,0.05c0.967,0.133,1.767,0.3,2.4,0.5c0.267-0.267,0.5-0.483,0.7-0.65
				c0.066-0.067,0.117-0.117,0.15-0.15c0.1-0.067,0.117-0.167,0.05-0.3C68.517-1.983,68.467-2.1,68.4-2.2
				c0.467,0.067,0.9,0.067,1.3,0c0.4-0.033,0.733-0.117,1-0.25c0.1-0.066,0.216-0.117,0.35-0.15c1.167-0.367,1.95-1,2.35-1.9
				c0.033-0.1,0.067-0.2,0.1-0.3c0.033-0.4,0.133-0.8,0.3-1.2c0.034-0.033,0.133-0.033,0.3,0c0.733,0.167,1.15,0,1.25-0.5
				c0.033-0.067,0.117-0.117,0.25-0.15c0.233-0.033,0.4-0.117,0.5-0.25c0.3-0.233,0.617-0.45,0.95-0.65c0.1-0.067,0.2-0.133,0.3-0.2
				C77.417-7.85,77.5-7.933,77.6-8c0.066-0.1,0.2-0.15,0.4-0.15c0.1,0.033,0.217,0.05,0.35,0.05c0.6,0.033,1.066-0.2,1.4-0.7
				c0.033-0.067,0.133-0.133,0.3-0.2c0.434-0.167,0.717-0.383,0.85-0.65c0.067-0.133,0.133-0.217,0.2-0.25
				C81.4-10.167,81.567-10.617,81.6-11.25z"/>
		</g>
		<g>
			<path style="fill-rule:evenodd;clip-rule:evenodd;fill:#26211A;" d="M13.2-47.95c-0.1,0.4-0.184,0.833-0.25,1.3l0.1-0.45
				c0.034-0.167,0.083-0.333,0.15-0.5c0.2-0.867,0.35-1.6,0.45-2.2c0.033-0.367,0.05-0.684,0.05-0.95c0-0.067,0-0.133,0-0.2V-51
				c0.033-0.267,0.05-0.533,0.05-0.8c0-0.067,0.017-0.25,0.05-0.55c-0.066-0.1-0.15-0.517-0.25-1.25
				c-0.033-0.333-0.083-0.717-0.15-1.15c0.233-0.433,0.417-0.85,0.55-1.25c0.066-0.3,0.15-0.583,0.25-0.85
				c0.066-0.3,0.15-0.583,0.25-0.85c0.033-0.2,0.083-0.4,0.15-0.6c0.1-0.3,0.167-0.617,0.2-0.95c0.233,0.333,0.434,0.633,0.6,0.9
				c0.233,0.367,0.45,0.7,0.65,1c0.034,0.067,0.067,0.133,0.1,0.2C16.083-56.45,16-55.733,15.9-55c-0.167,1.633-0.3,3.017-0.4,4.15
				c-0.067,0.9-0.1,1.65-0.1,2.25c0.233-1,0.35-1.883,0.35-2.65c0.067-1.033,0.233-1.917,0.5-2.65c0.2,0.033,0.417,0.15,0.65,0.35
				c0.233,0.233,0.5,0.566,0.8,1c0.2,0.3,0.367,0.55,0.5,0.75c-0.1-0.2-0.184-0.4-0.25-0.6c-0.1-0.2-0.184-0.383-0.25-0.55
				c-0.3-0.533-0.784-1.066-1.45-1.6L16.2-55.2c0.133-0.533,0.3-1.133,0.5-1.8c0.033,0,0.083,0.017,0.15,0.05
				c0.033,0,0.167,0.05,0.4,0.15c0.267,0.133,0.633,0.316,1.1,0.55c0.433,0.267,0.316,0.167-0.35-0.3
				c-0.7-0.434-1.067-0.65-1.1-0.65c-0.033-0.066-0.083-0.1-0.15-0.1c-0.133-0.167-0.3-0.417-0.5-0.75
				c-0.133-0.3-0.283-0.667-0.45-1.1c-0.267-0.667-0.45-1.2-0.55-1.6c-0.067-0.133-0.1-0.267-0.1-0.4c0-0.033-0.017-0.083-0.05-0.15
				h0.05c-0.1-0.6-0.183-1.217-0.25-1.85c-0.033-0.367-0.066-0.733-0.1-1.1c0-0.033,0-0.067,0-0.1c-0.066-1.033-0.1-2.083-0.1-3.15
				c0-0.067,0-0.133,0-0.2c0.033-2.1,0.2-4.233,0.5-6.4c0.267-2.066,0.45-3.75,0.55-5.05c0.9,1.033,1.617,3.316,2.15,6.85
				c0.033,0.3,0.083,0.583,0.15,0.85c0,0.034,0,0.067,0,0.1c-0.167,0.6-0.35,1.967-0.55,4.1c0,0.067,0,0.117,0,0.15
				c-0.067,0.067-0.117,0.133-0.15,0.2c-0.1,0.167-0.184,0.283-0.25,0.35c-0.4,0.3-0.7,0.5-0.9,0.6
				c-0.167,0.233-0.284,0.383-0.35,0.45c-0.133,0.4-0.217,0.633-0.25,0.7c-0.033,0.066-0.067,0.15-0.1,0.25
				c-0.1,0.2-0.2,0.45-0.3,0.75c0.267-0.5,0.5-0.9,0.7-1.2c0.1-0.133,0.184-0.267,0.25-0.4c0.067-0.1,0.15-0.2,0.25-0.3
				c0.033-0.033,0.117-0.1,0.25-0.2L16.8-66c0.233-0.067,0.45-0.083,0.65-0.05c0.033,0.167,0.05,0.3,0.05,0.4
				c0,0.066,0,0.117,0,0.15s0,0.067,0,0.1v0.05c-0.033,0.233-0.05,0.467-0.05,0.7c0,0.033,0,0.1,0,0.2
				c0,0.067-0.017,0.517-0.05,1.35c-0.033,0.3-0.1,1.4-0.2,3.3c0.133-1.5,0.267-2.617,0.4-3.35c0-0.133,0.017-0.267,0.05-0.4
				c0.033-0.333,0.067-0.55,0.1-0.65c0.433,0.333,1.017,1.35,1.75,3.05c0.067,0.167,0.133,0.35,0.2,0.55
				c-0.034,0.533-0.117,1.017-0.25,1.45c-0.1,0.467-0.217,1-0.35,1.6c-0.133,0.633-0.2,1.383-0.2,2.25c0,0.267,0.033,0.65,0.1,1.15
				c0.067,0.6,0.133,1.033,0.2,1.3c0-0.233-0.017-0.633-0.05-1.2c-0.033-0.233-0.05-0.45-0.05-0.65c0-0.3,0-0.583,0-0.85
				c0.033-0.434,0.066-0.717,0.1-0.85c0-0.133,0.066-0.434,0.2-0.9c0.1-0.5,0.233-1.117,0.4-1.85l0.25-1.2
				c0.333,1.133,0.7,2.184,1.1,3.15c0.133,1.2,0.25,2.267,0.35,3.2c0-0.133,0-0.283,0-0.45c-0.067-1.233-0.1-2.183-0.1-2.85
				c-0.367-1.034-0.75-2.083-1.15-3.15c-0.4-1.066-0.717-1.8-0.95-2.2c-0.267-0.4-0.517-0.85-0.75-1.35
				c-0.2-0.133-0.433-0.383-0.7-0.75l-0.05-1.7c0-0.1,0.017-0.216,0.05-0.35v-0.05c0.133-1.433,0.25-2.45,0.35-3.05
				c0.066,0.6,0.133,1.133,0.2,1.6v0.05c0.1,0.767,0.184,1.417,0.25,1.95l0.05,0.1c0,0.067,0,0.117,0,0.15c0,0.1,0,0.183,0,0.25
				c0.033,0.133,0.017,0.6-0.05,1.4l0.15-0.8c0.034-0.033,0.05-0.117,0.05-0.25c0.033-0.1,0.05-0.233,0.05-0.4l0.05-0.45
				c-0.034-0.667-0.083-1.333-0.15-2v-0.1c-0.1-1.067-0.216-2.133-0.35-3.2c-0.034-0.667-0.117-1.333-0.25-2
				c-0.034-0.2-0.2-1.1-0.5-2.7h-0.05c-0.033-0.1-0.05-0.217-0.05-0.35c-0.033,0-0.05-0.017-0.05-0.05c1,0.767,1.833,1.667,2.5,2.7
				c0.067,0.167,0.167,0.317,0.3,0.45c0,0.167-0.017,0.35-0.05,0.55c-0.033,0.333-0.05,0.633-0.05,0.9
				c-0.033,0.4-0.05,0.767-0.05,1.1v0.05c0,0.133,0.017,0.25,0.05,0.35c0,0.033,0.033,0.65,0.1,1.85c0-0.1,0-0.217,0-0.35
				c0.1-1.1,0.15-1.717,0.15-1.85V-71c0.067-0.433,0.117-0.833,0.15-1.2c0-0.233,0.033-0.45,0.1-0.65c0.1,0.2,0.2,0.417,0.3,0.65
				c0.333,0.667,0.534,1.167,0.6,1.5c-0.033,0.6-0.1,1.034-0.2,1.3c-0.167,0.3-0.267,0.6-0.3,0.9c-0.167,0.733-0.233,1.467-0.2,2.2
				c-0.034,0-0.034,0.033,0,0.1c0,0.2,0.017,0.417,0.05,0.65c0.067,1.066,0.183,2.117,0.35,3.15c0.1,0.566,0.217,1.167,0.35,1.8
				c0.233,0.9,0.483,1.8,0.75,2.7c0.066,0.267,0.133,0.533,0.2,0.8c-0.167-0.8-0.383-2-0.65-3.6c-0.067-0.5-0.15-1.033-0.25-1.6
				c0.2,0,0.583,0.083,1.15,0.25c0.233,0.066,0.5,0.25,0.8,0.55c0.433,0.4,0.933,1,1.5,1.8c0.066,0.1,0.133,0.2,0.2,0.3
				c-0.367-0.8-0.633-1.283-0.8-1.45c-0.167-0.2-0.417-0.483-0.75-0.85c-0.367-0.333-0.65-0.566-0.85-0.7
				c-0.2-0.1-0.567-0.267-1.1-0.5c-0.1-0.033-0.183-0.067-0.25-0.1c-0.1-0.5-0.183-1.25-0.25-2.25c-0.1-1.133-0.033-2.083,0.2-2.85
				c0.233-0.8,0.383-1.3,0.45-1.5c0.1,0.434,0.2,0.867,0.3,1.3l0.25,1.15c-0.133-0.7-0.184-1.033-0.15-1c0,0.033,0.1,0.483,0.3,1.35
				c0.167,0.9,0.217,1.066,0.15,0.5c-0.1-0.567-0.233-1.383-0.4-2.45c-0.133-1-0.3-1.883-0.5-2.65c-0.033-0.067-0.067-0.133-0.1-0.2
				c0.5,0.033,1.117,0.133,1.85,0.3c0.067,0.033,0.2,0.066,0.4,0.1c0.2,0.067,0.434,0.2,0.7,0.4c0.533,0.333,1.217,1,2.05,2
				c-0.267-0.4-0.483-0.733-0.65-1c-0.133-0.2-0.233-0.35-0.3-0.45c-0.167-0.233-0.6-0.55-1.3-0.95l-0.9-0.5
				c-0.633-0.167-1.367-0.45-2.2-0.85c-0.1-0.367-0.216-0.684-0.35-0.95c-0.1-0.267-0.233-0.65-0.4-1.15c-0.466-0.5-0.95-1-1.45-1.5
				c-0.5-0.467-0.9-0.867-1.2-1.2c-0.333-0.333-0.517-0.583-0.55-0.75c-0.1-0.066-0.167-0.167-0.2-0.3
				c-0.833-3.1-1.483-5.467-1.95-7.1c-0.1-1.433-0.167-3.567-0.2-6.4c-0.033-2.9,0.283-5.717,0.95-8.45
				c0.233-0.233,0.533-0.45,0.9-0.65c0.6-0.267,1.2-0.333,1.8-0.2c0.2,0.034,0.45-0.017,0.75-0.15c0.4-0.167,0.9-0.3,1.5-0.4
				l2.8-0.4l0.1-0.05c-0.167-0.167-0.333-0.267-0.5-0.3c-0.066,0-0.316,0-0.75,0c-0.233,0-0.667,0.017-1.3,0.05
				c-0.633,0.034-1.083,0.083-1.35,0.15c-0.633,0.066-1.133,0.233-1.5,0.5c-0.1,0.066-0.316,0.1-0.65,0.1
				c-0.333-0.033-0.567-0.05-0.7-0.05c-0.167,0-0.4,0-0.7,0c-0.267,0.033-0.567,0.067-0.9,0.1l-1.15,0.15
				c-0.1,0-0.333-0.067-0.7-0.2c-0.233-0.1-0.517-0.2-0.85-0.3c-0.733-0.3-1.183-0.483-1.35-0.55h-0.8v0.1
				c0.167,0.1,0.767,0.317,1.8,0.65c0.2,0.066,0.4,0.167,0.6,0.3c-0.167,0-0.683-0.033-1.55-0.1c-0.967-0.1-1.567-0.15-1.8-0.15
				c-0.467-0.067-0.983-0.2-1.55-0.4c-0.5-0.2-0.917-0.3-1.25-0.3c-0.2,0-0.333,0.017-0.4,0.05v0.05c1.1,0.2,3.033,0.9,5.8,2.1
				c0,0.2,0.2,0.5,0.6,0.9c0.2,0.2,0.35,0.383,0.45,0.55c0,0.133-0.017,0.267-0.05,0.4c-0.267,1.6-0.4,3.283-0.4,5.05
				c0,0.867,0.117,2.317,0.35,4.35c0.2,1.967,0.333,3.533,0.4,4.7c0.033,1.167,0.05,2.883,0.05,5.15c0,1.433-0.017,2.55-0.05,3.35
				c-0.067,0.466-0.117,0.833-0.15,1.1c-0.133,0.667-0.367,1.383-0.7,2.15c-0.333,0.833-0.533,1.417-0.6,1.75
				c-0.333,0.9-0.617,1.917-0.85,3.05c-0.033,0.167-0.066,0.367-0.1,0.6c-0.067,0.2-0.117,0.417-0.15,0.65
				c-0.533,0.267-1.066,0.6-1.6,1c-0.567,0.467-1.217,1.2-1.95,2.2H7.7c0,0.066-0.034,0.133-0.1,0.2c-0.667,0.934-1.2,1.867-1.6,2.8
				c0.4-0.534,1-1.284,1.8-2.25c0,0.1,0,0.183,0,0.25c0,0.4,0,0.767,0,1.1c0,0.067,0,0.133,0,0.2c0,0.033,0,0.083,0,0.15
				c-0.367,0.333-0.683,0.7-0.95,1.1c-0.833,1.2-1.567,2.75-2.2,4.65c-0.333,0.967-0.6,1.867-0.8,2.7
				c0.167-0.467,0.383-1.067,0.65-1.8c0.567-1.5,1.083-2.667,1.55-3.5c0.2-0.4,0.4-0.716,0.6-0.95c0.567-0.767,0.95-1.333,1.15-1.7
				c-0.133,0.567-0.25,1.267-0.35,2.1c-0.034,0.167-0.067,0.333-0.1,0.5c0.1-0.4,0.2-0.75,0.3-1.05c0.1-0.367,0.184-0.617,0.25-0.75
				c0.033-0.133,0.1-0.383,0.2-0.75l0.25-0.75c0-0.034,0-0.067,0-0.1v-0.3c0-0.833,0.033-1.466,0.1-1.9
				c0-0.033,0.017-0.05,0.05-0.05c0.4-0.5,0.817-0.917,1.25-1.25c0.467-0.367,0.883-0.684,1.25-0.95
				c0.067-0.033,0.117-0.066,0.15-0.1c0,0.233-0.017,0.55-0.05,0.95c-0.1,1.033-0.25,2.683-0.45,4.95l-0.05,0.4
				c-0.067,0.6-0.133,1.267-0.2,2c0,0.033,0,0.083,0,0.15c-0.033,0.333-0.066,0.667-0.1,1L11-60.6c0.167-1.267,0.35-2.4,0.55-3.4
				c0.034,0.033,0.05,0.067,0.05,0.1c0.167,0.4,0.3,0.983,0.4,1.75c0,0.066,0,0.117,0,0.15c0.1,1.1,0.183,1.883,0.25,2.35
				c0,0.033,0.017,0.083,0.05,0.15h0.05c0.033,0,0.066-0.017,0.1-0.05c0-0.034,0-0.067,0-0.1c0-1.367-0.034-2.4-0.1-3.1
				c-0.067-0.367-0.133-0.7-0.2-1c-0.1-0.4-0.233-0.75-0.4-1.05c0-0.034-0.017-0.083-0.05-0.15c0.033-0.133,0.066-0.267,0.1-0.4
				c0.067-0.467,0.15-0.917,0.25-1.35c0.067-0.333,0.133-0.667,0.2-1c0.033-0.2,0.083-0.4,0.15-0.6c0.367-1.5,0.85-2.784,1.45-3.85
				c0,0.033,0,0.066,0,0.1c0,0.167-0.017,0.333-0.05,0.5c-0.1,1.2-0.15,2.383-0.15,3.55c0,0.133,0,0.267,0,0.4
				c-0.033,0.867-0.017,1.75,0.05,2.65c0,0.3,0.017,0.6,0.05,0.9c0.067,1,0.167,1.983,0.3,2.95c0.034,0.133,0.067,0.267,0.1,0.4
				c0,0.3-0.033,0.617-0.1,0.95c-0.066,0.333-0.133,0.667-0.2,1c-0.167,0.633-0.317,1.217-0.45,1.75
				c-0.033,0.067-0.066,0.133-0.1,0.2c0,0.033-0.033,0.05-0.1,0.05c-0.267,0.167-0.717,0.417-1.35,0.75
				c-0.367,0.2-0.717,0.383-1.05,0.55c-0.767,0.467-1.483,0.934-2.15,1.4c-1.7,1.167-3.05,2.4-4.05,3.7
				c-0.3,0.4-0.567,0.783-0.8,1.15c0.4-0.433,0.75-0.816,1.05-1.15c0.933-1,1.8-1.767,2.6-2.3c0,0.4-0.083,0.833-0.25,1.3
				c-0.167,0.367-0.45,1-0.85,1.9C6.217-49.15,6.033-48.667,5.8-48c-0.033,0.067-0.05,0.133-0.05,0.2c0.333-0.7,0.717-1.5,1.15-2.4
				c0.4-0.9,0.717-1.633,0.95-2.2c0.133-0.267,0.233-0.5,0.3-0.7c1.3-1,2.417-1.733,3.35-2.2c0.9-0.467,1.45-0.684,1.65-0.65
				c-0.233,0.567-0.433,1.034-0.6,1.4c0,0.1-0.133,0.466-0.4,1.1c-0.267,0.6-0.533,1.1-0.8,1.5c-0.233,0.3-0.517,0.633-0.85,1
				c-0.033,0.034-0.067,0.083-0.1,0.15c-0.066,0.066-0.133,0.133-0.2,0.2c-0.534,0.5-0.784,0.767-0.75,0.8l0.05-0.05
				c0.133-0.066,0.417-0.316,0.85-0.75c0.566-0.533,0.867-0.816,0.9-0.85c0.633-0.8,1.167-1.55,1.6-2.25v0.05l0.05,0.05
				c0.1,0.167,0.2,0.367,0.3,0.6c0.066,0.233,0.1,0.383,0.1,0.45c0.067,0.2,0.1,0.517,0.1,0.95l-0.05,0.7
				c-0.033,0.066-0.067,0.1-0.1,0.1c-0.3,0.267-0.7,0.733-1.2,1.4c-0.733,0.933-1.3,1.95-1.7,3.05c0.533-0.967,0.95-1.65,1.25-2.05
				c0.5-0.667,1.083-1.317,1.75-1.95c0.066,0.5,0.083,0.917,0.05,1.25C13.333-48.733,13.267-48.35,13.2-47.95z"/>
		</g>
		<g>
			<path style="fill-rule:evenodd;clip-rule:evenodd;fill:#26211A;" d="M42.9-35.5c0.133,1.433,0.283,2.733,0.45,3.9
				c0-0.033,0-0.066,0-0.1c-0.067-1.7-0.1-3-0.1-3.9c-0.5-1.467-1.033-2.95-1.6-4.45c-0.533-1.434-0.983-2.434-1.35-3
				c-0.367-0.567-0.7-1.2-1-1.9c-0.267-0.2-0.583-0.533-0.95-1l-0.1-2.1c0-0.034,0-0.067,0-0.1v-0.15c0-0.133,0.017-0.3,0.05-0.5
				v-0.05c0.2-2.033,0.383-3.45,0.55-4.25c0.066,0.8,0.15,1.533,0.25,2.2c0,0.033,0,0.066,0,0.1c0.133,1.066,0.25,1.95,0.35,2.65
				c0,0.033,0.017,0.083,0.05,0.15c0,0.1,0,0.167,0,0.2c0,0.133,0,0.25,0,0.35c0.067,0.2,0.05,0.85-0.05,1.95l0.2-1.1
				c0.033-0.066,0.067-0.183,0.1-0.35c0-0.133,0.017-0.316,0.05-0.55c0.034-0.4,0.05-0.617,0.05-0.65
				c-0.033-0.934-0.117-1.85-0.25-2.75V-51c-0.133-1.5-0.283-3-0.45-4.5c-0.066-0.9-0.167-1.817-0.3-2.75
				c-0.067-0.3-0.317-1.533-0.75-3.7c-0.033,0-0.05-0.017-0.05-0.05c-0.033-0.133-0.066-0.283-0.1-0.45v-0.1
				c1.367,1.066,2.5,2.316,3.4,3.75c0.133,0.233,0.267,0.45,0.4,0.65c0,0.233-0.017,0.467-0.05,0.7c0,0.267-0.017,0.534-0.05,0.8
				c0.067,0.2,0.067,0.367,0,0.5c-0.033,0.566-0.05,1.083-0.05,1.55c0,0.2,0.017,0.383,0.05,0.55c0,0.033,0.033,0.867,0.1,2.5
				c0-0.133,0.017-0.284,0.05-0.45c0.133-1.533,0.2-2.4,0.2-2.6c0.067-0.633,0.133-1.2,0.2-1.7c0-0.3,0.05-0.6,0.15-0.9
				c0.133,0.3,0.267,0.6,0.4,0.9c0.467,0.933,0.75,1.633,0.85,2.1c-0.033,0.8-0.133,1.4-0.3,1.8c-0.2,0.4-0.333,0.816-0.4,1.25
				c-0.233,1-0.316,2-0.25,3c-0.066,0.033-0.066,0.083,0,0.15c0,0.267,0.017,0.567,0.05,0.9c0.1,1.467,0.267,2.917,0.5,4.35
				c0.133,0.833,0.3,1.667,0.5,2.5c0.3,1.267,0.633,2.533,1,3.8c0.05,0.15,0.091,0.3,0.125,0.45
				c-0.197-1.056-0.439-2.506-0.725-4.35c-0.133-0.7-0.25-1.45-0.35-2.25c0.267,0.033,0.8,0.167,1.6,0.4
				c0.3,0.1,0.667,0.35,1.1,0.75c0.566,0.567,1.25,1.383,2.05,2.45c0.1,0.133,0.2,0.283,0.3,0.45c-0.5-1.1-0.867-1.784-1.1-2.05
				c-0.267-0.233-0.617-0.617-1.05-1.15c-0.5-0.467-0.883-0.783-1.15-0.95c-0.3-0.133-0.833-0.367-1.6-0.7
				c-0.1-0.067-0.2-0.117-0.3-0.15c-0.167-0.7-0.283-1.733-0.35-3.1c-0.167-1.567-0.083-2.9,0.25-4c0.333-1.067,0.55-1.75,0.65-2.05
				c0.133,0.6,0.283,1.2,0.45,1.8l0.35,1.6l-0.25-1.35c0.033,0.133,0.167,0.75,0.4,1.85c0.267,1.233,0.333,1.466,0.2,0.7
				c-0.133-0.8-0.3-1.95-0.5-3.45c-0.2-1.367-0.45-2.583-0.75-3.65c-0.033-0.066-0.066-0.15-0.1-0.25
				c0.667,0.034,1.517,0.167,2.55,0.4c0.1,0.033,0.3,0.083,0.6,0.15c0.267,0.1,0.583,0.283,0.95,0.55
				c0.733,0.467,1.667,1.383,2.8,2.75c-0.367-0.566-0.65-1.017-0.85-1.35c-0.2-0.3-0.35-0.517-0.45-0.65c-0.2-0.3-0.8-0.75-1.8-1.35
				L46.5-55.6c-0.867-0.233-1.883-0.633-3.05-1.2c-0.133-0.5-0.284-0.95-0.45-1.35c-0.167-0.367-0.367-0.883-0.6-1.55
				c-0.633-0.7-1.3-1.383-2-2.05c-0.667-0.667-1.233-1.233-1.7-1.7c-0.434-0.466-0.684-0.8-0.75-1c-0.133-0.1-0.217-0.25-0.25-0.45
				c-1.167-4.3-2.067-7.583-2.7-9.85c-0.067-1.067-0.117-4.85-0.15-11.35c-0.033-1.867-0.05-3.95-0.05-6.25
				c0.167-3.033,0.633-5.983,1.4-8.85c0.167-0.2,1.2-0.433,3.1-0.7c0.967-0.133,1.767-0.233,2.4-0.3c0.6-0.033,1.05-0.033,1.35,0
				c0.1,0,0.184-0.017,0.25-0.05c0.267,0.033,0.534,0.017,0.8-0.05c0.6-0.2,1.167-0.333,1.7-0.4v-0.1l-0.8-0.1
				c-0.467-0.033-0.933-0.033-1.4,0c-0.1,0.033-0.2,0.05-0.3,0.05c-0.4,0.033-0.683,0.033-0.85,0c-0.333,0-0.567,0-0.7,0h-0.1
				c-0.267-0.1-0.533-0.167-0.8-0.2c-0.067,0-0.5-0.017-1.3-0.05c-0.333-0.033-0.633-0.05-0.9-0.05c0.1-0.033,0.2-0.067,0.3-0.1
				c0.7-0.267,1.25-0.45,1.65-0.55v-0.05l-1.8-0.2c-0.2,0-0.517,0.033-0.95,0.1c-0.434,0.1-0.717,0.133-0.85,0.1
				c-0.1,0-0.65,0.133-1.65,0.4c-1,0.267-1.55,0.4-1.65,0.4c-0.7-0.1-1.467-0.117-2.3-0.05c-0.5,0.033-0.9,0.067-1.2,0.1
				c-0.233-0.067-0.45-0.117-0.65-0.15c-0.167-0.033-0.316-0.067-0.45-0.1c-0.9-0.2-1.6-0.317-2.1-0.35c-1.2,0-1.9,0-2.1,0
				c0.467,0.033,1.033,0.184,1.7,0.45c0.633,0.267,1.1,0.417,1.4,0.45c0.3,0.034,0.583,0.067,0.85,0.1
				c0.233,0.033,0.467,0.15,0.7,0.35c0.233,0.2,0.583,0.383,1.05,0.55c0.833,0.267,1.5,0.633,2,1.1c-0.067,0.7-0.167,1.5-0.3,2.4
				c-0.367,2.233-0.55,4.567-0.55,7c0,0.633,0.067,2.284,0.2,4.95H32c0.033,1,0.083,2.117,0.15,3.35
				c0.033,2.033,0.05,3.133,0.05,3.3c0.3,2.733,0.483,4.917,0.55,6.55c0.067,1.566,0.1,3.933,0.1,7.1c0,2-0.033,3.55-0.1,4.65
				c-0.067,0.667-0.133,1.167-0.2,1.5c-0.167,0.933-0.483,1.95-0.95,3.05c-0.467,1.133-0.733,1.933-0.8,2.4
				c-0.5,1.233-0.9,2.633-1.2,4.2c-0.067,0.233-0.117,0.517-0.15,0.85c-0.067,0.3-0.15,0.6-0.25,0.9c-0.7,0.367-1.434,0.833-2.2,1.4
				c-0.8,0.633-1.7,1.65-2.7,3.05h-0.05c0,0.1-0.05,0.184-0.15,0.25c-0.9,1.3-1.65,2.6-2.25,3.9c0.6-0.733,1.433-1.767,2.5-3.1
				c0,0.1,0,0.2,0,0.3v0.05c0.033,0.533,0.033,1.033,0,1.5c0,0.066,0,0.167,0,0.3c0,0.033,0,0.083,0,0.15
				c-0.467,0.467-0.9,1-1.3,1.6c-1.167,1.633-2.183,3.767-3.05,6.4c-0.433,1.333-0.783,2.583-1.05,3.75
				c0.2-0.667,0.5-1.483,0.9-2.45c0.767-2.1,1.467-3.733,2.1-4.9c0.3-0.533,0.566-0.983,0.8-1.35c0.8-1.067,1.35-1.85,1.65-2.35
				c-0.167,0.8-0.333,1.783-0.5,2.95c-0.066,0.233-0.1,0.467-0.1,0.7c0.133-0.567,0.25-1.05,0.35-1.45
				c0.133-0.533,0.25-0.9,0.35-1.1c0.067-0.167,0.167-0.5,0.3-1l0.35-1c0-0.067,0-0.133,0-0.2v-0.7c0.033-1,0.083-1.767,0.15-2.3
				c0-0.067,0.017-0.1,0.05-0.1c0.533-0.667,1.1-1.25,1.7-1.75c0.667-0.5,1.267-0.933,1.8-1.3c0.066-0.067,0.133-0.117,0.2-0.15
				C29.017-46.967,29-46.533,29-46c-0.167,1.467-0.4,3.75-0.7,6.85v0.6c-0.1,0.833-0.2,1.75-0.3,2.75c0,0.066,0,0.15,0,0.25
				c-0.033,0.433-0.083,0.9-0.15,1.4l1-6.05c0.233-1.767,0.483-3.35,0.75-4.75c0.033,0.034,0.05,0.083,0.05,0.15
				c0.233,0.533,0.417,1.333,0.55,2.4c0,0.1,0.017,0.183,0.05,0.25c0.1,1.533,0.2,2.617,0.3,3.25c0,0.066,0.034,0.133,0.1,0.2h0.05
				c0.066,0,0.1-0.017,0.1-0.05c0.034-0.033,0.05-0.083,0.05-0.15c0-1.9-0.05-3.333-0.15-4.3c-0.1-0.5-0.2-0.95-0.3-1.35
				c-0.133-0.567-0.3-1.067-0.5-1.5c-0.033-0.067-0.066-0.133-0.1-0.2c0.034-0.167,0.067-0.35,0.1-0.55
				c0.133-0.633,0.267-1.267,0.4-1.9c0.067-0.466,0.15-0.933,0.25-1.4c0.067-0.267,0.15-0.533,0.25-0.8
				c0.5-2.1,1.15-3.883,1.95-5.35c0,0.067,0,0.117,0,0.15c0,0.233-0.017,0.467-0.05,0.7c-0.133,1.633-0.2,3.283-0.2,4.95
				c0,0.167,0,0.35,0,0.55c-0.067,1.2-0.05,2.417,0.05,3.65c0.034,0.4,0.067,0.817,0.1,1.25c0.067,1.367,0.2,2.733,0.4,4.1
				c0.034,0.2,0.083,0.383,0.15,0.55c0,0.434-0.05,0.867-0.15,1.3c-0.1,0.466-0.2,0.933-0.3,1.4c-0.233,0.867-0.433,1.683-0.6,2.45
				c-0.066,0.067-0.1,0.15-0.1,0.25c-0.033,0.067-0.1,0.1-0.2,0.1c-0.333,0.233-0.95,0.567-1.85,1
				c-0.533,0.267-1.017,0.533-1.45,0.8c-1.066,0.633-2.05,1.267-2.95,1.9c-2.4,1.633-4.283,3.35-5.65,5.15
				c-0.434,0.533-0.8,1.067-1.1,1.6c0.533-0.633,1.017-1.167,1.45-1.6c1.3-1.4,2.5-2.45,3.6-3.15c0,0.5-0.117,1.1-0.35,1.8
				c-0.233,0.467-0.617,1.333-1.15,2.6c-0.2,0.4-0.467,1.067-0.8,2c-0.033,0.1-0.05,0.2-0.05,0.3c0.434-1,0.95-2.117,1.55-3.35
				c0.566-1.233,1.017-2.25,1.35-3.05c0.167-0.367,0.316-0.683,0.45-0.95c1.8-1.4,3.333-2.434,4.6-3.1c1.233-0.6,2-0.9,2.3-0.9
				c-0.3,0.833-0.566,1.5-0.8,2c-0.033,0.133-0.233,0.633-0.6,1.5c-0.367,0.833-0.733,1.517-1.1,2.05c-0.3,0.433-0.7,0.917-1.2,1.45
				c-0.033,0.033-0.083,0.083-0.15,0.15c-0.067,0.1-0.15,0.2-0.25,0.3c-0.733,0.7-1.067,1.067-1,1.1l0.05-0.05
				c0.167-0.1,0.567-0.45,1.2-1.05c0.767-0.767,1.167-1.15,1.2-1.15v-0.05c0.867-1.067,1.6-2.1,2.2-3.1l0.05,0.05
				c0.033,0.033,0.067,0.067,0.1,0.1c0.133,0.2,0.25,0.483,0.35,0.85c0.1,0.3,0.167,0.5,0.2,0.6c0.067,0.267,0.1,0.7,0.1,1.3
				l-0.05,1c-0.033,0.067-0.083,0.117-0.15,0.15c-0.4,0.367-0.95,1.017-1.65,1.95c-1.033,1.267-1.816,2.667-2.35,4.2
				c0.7-1.333,1.267-2.283,1.7-2.85c0.7-0.934,1.517-1.833,2.45-2.7c0.1,0.7,0.117,1.283,0.05,1.75c-0.066,0.5-0.167,1.017-0.3,1.55
				c-0.133,0.6-0.233,1.2-0.3,1.8c0.067-0.4,0.117-0.6,0.15-0.6c0.033-0.2,0.083-0.417,0.15-0.65c0.3-1.2,0.517-2.233,0.65-3.1
				c0.067-0.5,0.1-0.933,0.1-1.3c0-0.1,0-0.2,0-0.3v-0.05c0.033-0.4,0.05-0.767,0.05-1.1c0-0.1,0.017-0.35,0.05-0.75
				c-0.067-0.167-0.167-0.75-0.3-1.75c-0.1-0.467-0.183-1-0.25-1.6c0.3-0.6,0.55-1.183,0.75-1.75c0.1-0.433,0.217-0.833,0.35-1.2
				c0.1-0.4,0.217-0.784,0.35-1.15c0.066-0.3,0.15-0.566,0.25-0.8c0.1-0.433,0.183-0.883,0.25-1.35c0.3,0.467,0.566,0.883,0.8,1.25
				c0.367,0.5,0.667,0.967,0.9,1.4c0.067,0.1,0.117,0.2,0.15,0.3c-0.1,0.933-0.217,1.917-0.35,2.95c-0.233,2.267-0.4,4.184-0.5,5.75
				c-0.1,1.233-0.167,2.267-0.2,3.1c0.333-1.367,0.517-2.583,0.55-3.65c0.066-1.433,0.283-2.65,0.65-3.65
				c0.267,0.033,0.566,0.2,0.9,0.5c0.333,0.3,0.717,0.75,1.15,1.35c0.233,0.4,0.45,0.75,0.65,1.05c-0.133-0.267-0.233-0.55-0.3-0.85
				c-0.167-0.267-0.3-0.517-0.4-0.75c-0.434-0.733-1.1-1.483-2-2.25l-0.05-0.9c0.167-0.7,0.383-1.517,0.65-2.45
				c0.066,0,0.133,0.017,0.2,0.05c0.067,0,0.267,0.066,0.6,0.2c0.367,0.2,0.867,0.467,1.5,0.8c0.633,0.333,0.467,0.183-0.5-0.45
				c-0.967-0.6-1.467-0.9-1.5-0.9c-0.067-0.067-0.133-0.117-0.2-0.15c-0.167-0.233-0.4-0.567-0.7-1c-0.2-0.434-0.417-0.95-0.65-1.55
				c-0.367-0.933-0.617-1.683-0.75-2.25c-0.067-0.167-0.117-0.35-0.15-0.55c0-0.033,0-0.083,0-0.15v-0.05
				c-0.133-0.833-0.233-1.683-0.3-2.55c-0.033-0.5-0.083-1.017-0.15-1.55c0-0.034,0-0.067,0-0.1c-0.1-1.467-0.15-2.934-0.15-4.4
				c0-0.067,0-0.167,0-0.3c0.033-2.9,0.267-5.833,0.7-8.8c0.367-2.867,0.617-5.217,0.75-7.05c1.233,1.434,2.233,4.6,3,9.5
				c0.067,0.434,0.133,0.817,0.2,1.15c0,0.066,0,0.117,0,0.15c-0.233,0.867-0.5,2.767-0.8,5.7c0,0.1,0,0.167,0,0.2
				c-0.066,0.1-0.117,0.2-0.15,0.3c-0.133,0.2-0.25,0.35-0.35,0.45c-0.566,0.433-0.983,0.733-1.25,0.9c-0.267,0.3-0.433,0.5-0.5,0.6
				c-0.167,0.567-0.283,0.883-0.35,0.95c-0.034,0.1-0.083,0.216-0.15,0.35c-0.133,0.3-0.267,0.65-0.4,1.05
				c0.367-0.7,0.7-1.25,1-1.65c0.133-0.2,0.25-0.383,0.35-0.55c0.067-0.167,0.167-0.3,0.3-0.4c0.034-0.1,0.15-0.2,0.35-0.3
				c0.033-0.034,0.117-0.083,0.25-0.15c0.3-0.1,0.583-0.117,0.85-0.05c0.033,0.2,0.05,0.383,0.05,0.55c0,0.067,0,0.133,0,0.2
				c0,0.033,0,0.083,0,0.15v0.05c0,0.333-0.017,0.65-0.05,0.95c0,0.067,0,0.167,0,0.3c0,0.066-0.017,0.7-0.05,1.9
				c-0.034,0.4-0.133,1.917-0.3,4.55c0.2-2.066,0.383-3.617,0.55-4.65c0.033-0.2,0.066-0.383,0.1-0.55
				c0.067-0.467,0.117-0.767,0.15-0.9c0.6,0.434,1.4,1.833,2.4,4.2c0.1,0.267,0.2,0.517,0.3,0.75
				c-0.066,0.733-0.183,1.417-0.35,2.05c-0.167,0.633-0.333,1.383-0.5,2.25c-0.2,0.867-0.3,1.883-0.3,3.05
				c0,0.367,0.067,0.917,0.2,1.65c0.066,0.8,0.15,1.4,0.25,1.8c0-0.333-0.034-0.883-0.1-1.65c0-0.333,0-0.65,0-0.95
				c-0.033-0.4-0.033-0.784,0-1.15c0.033-0.6,0.066-1,0.1-1.2c0-0.167,0.083-0.583,0.25-1.25c0.167-0.667,0.367-1.517,0.6-2.55
				l0.35-1.7C41.867-38.333,42.367-36.867,42.9-35.5z"/>
		</g>
		<g>
			<path style="fill-rule:evenodd;clip-rule:evenodd;fill:#26211A;" d="M100.95-49.4c-0.333-0.833-0.583-1.45-0.75-1.85
				c-0.5-1.133-0.85-1.933-1.05-2.4c-0.233-0.633-0.35-1.184-0.35-1.65c1.034,0.633,2.15,1.6,3.35,2.9c0.4,0.4,0.85,0.9,1.35,1.5
				c-0.3-0.5-0.633-0.983-1-1.45c-1.3-1.667-3.05-3.267-5.25-4.8c-0.833-0.6-1.733-1.184-2.7-1.75
				c-0.433-0.233-0.883-0.467-1.35-0.7c-0.8-0.433-1.367-0.75-1.7-0.95c-0.067-0.034-0.133-0.067-0.2-0.1
				c0-0.067-0.017-0.15-0.05-0.25c-0.2-0.7-0.4-1.434-0.6-2.2c-0.066-0.433-0.15-0.883-0.25-1.35c-0.1-0.4-0.133-0.783-0.1-1.15
				c0.034-0.2,0.05-0.367,0.05-0.5c0.2-1.267,0.35-2.533,0.45-3.8c0-0.4,0.017-0.783,0.05-1.15c0.066-1.133,0.1-2.267,0.1-3.4
				c0-0.133,0-0.3,0-0.5c-0.034-1.5-0.117-3-0.25-4.5c-0.034-0.267-0.05-0.533-0.05-0.8c0.733,1.367,1.35,2.983,1.85,4.85
				c0.067,0.3,0.133,0.566,0.2,0.8c0.1,0.434,0.183,0.867,0.25,1.3c0.167,0.733,0.316,1.483,0.45,2.25
				c-0.033,0.066-0.066,0.133-0.1,0.2c-0.2,0.4-0.367,0.85-0.5,1.35c-0.1,0.4-0.167,0.817-0.2,1.25c-0.133,0.933-0.2,2.25-0.2,3.95
				c0,0.066,0.017,0.117,0.05,0.15c0.033,0.033,0.083,0.05,0.15,0.05h0.05c0.033-0.066,0.05-0.117,0.05-0.15
				c0.066-0.633,0.183-1.717,0.35-3.25c0.133-1.067,0.317-1.85,0.55-2.35c0.233,1.267,0.467,2.733,0.7,4.4l0.85,5.5
				c-0.433-5.267-0.767-8.883-1-10.85c-0.033-0.534-0.066-0.934-0.1-1.2c0.567,0.367,1.2,0.8,1.9,1.3
				c0.633,0.534,1.283,1.233,1.95,2.1c0,0.1,0,0.217,0,0.35c0,0.6,0.033,1.267,0.1,2c0,0.1,0,0.217,0,0.35
				c0.033,0.167,0.067,0.35,0.1,0.55c0,0.067,0.017,0.133,0.05,0.2c0.033,0.5,0.1,0.883,0.2,1.15c0.033,0.067,0.066,0.1,0.1,0.1
				c0,0.033,0.017,0.033,0.05,0c0.033,0,0.083-0.017,0.15-0.05c0-0.033,0-0.066,0-0.1c0-0.1-0.033-0.333-0.1-0.7
				c0.133,0.2,0.284,0.4,0.45,0.6c0.833,1.133,1.7,2.8,2.6,5c0.933,2.2,1.65,4.167,2.15,5.9c-0.233-1.533-0.667-3.267-1.3-5.2
				c-0.8-2.433-1.75-4.417-2.85-5.95c-0.367-0.533-0.75-1-1.15-1.4c0-0.067,0-0.133,0-0.2c-0.034-0.1-0.05-0.183-0.05-0.25v-0.05
				c-0.033-0.367-0.017-0.817,0.05-1.35c0-0.1,0-0.2,0-0.3c0.7,0.967,1.383,2.034,2.05,3.2c0.033,0,0.067,0.017,0.1,0.05
				c0.033,0,0.066-0.017,0.1-0.05c0.033,0,0.05-0.033,0.05-0.1c0-0.033,0-0.066,0-0.1V-65c-0.567-1.233-1.267-2.467-2.1-3.7
				c-0.066-0.066-0.133-0.15-0.2-0.25c-0.934-1.267-1.767-2.183-2.5-2.75c-0.7-0.566-1.383-1.017-2.05-1.35
				c-0.033-0.267-0.083-0.534-0.15-0.8c-0.067-0.3-0.117-0.566-0.15-0.8c-0.333-1.434-0.7-2.717-1.1-3.85
				c-0.067-0.467-0.317-1.2-0.75-2.2c-0.433-1.033-0.733-1.966-0.9-2.8c-0.167-0.833-0.25-2.733-0.25-5.7c0-2.9,0.017-5.1,0.05-6.6
				c0.033-0.8,0.1-1.784,0.2-2.95c0.333-1.033,0.617-1.65,0.85-1.85c0.8-0.733,1.383-1.15,1.75-1.25c1.2-0.4,2.55-0.883,4.05-1.45
				c-0.1,0-0.167,0-0.2,0h-0.55c-0.233,0-1.3,0.05-3.2,0.15c0.7-0.4,1.067-0.617,1.1-0.65l0.3-0.25c-0.767,0.133-1.583,0.3-2.45,0.5
				c-0.9,0.2-1.65,0.3-2.25,0.3c-0.133,0-0.417-0.083-0.85-0.25c-0.233,0-0.45,0.05-0.65,0.15c-0.167,0.133-0.367,0.2-0.6,0.2
				c-0.2,0-0.65-0.05-1.35-0.15c-0.7-0.1-1.316-0.15-1.85-0.15c-0.3,0-1.067,0.067-2.3,0.2c0.367,0.1,0.75,0.2,1.15,0.3
				c1.133,0.2,1.95,0.35,2.45,0.45c1.2,0.3,2,1.45,2.4,3.45c-0.033,1.333-0.1,2.383-0.2,3.15c-0.2,1.7-0.333,2.85-0.4,3.45
				c0,0.133,0,0.25,0,0.35c-0.767,1.434-1.25,2.517-1.45,3.25c-0.2,0.733-0.55,1.167-1.05,1.3c-0.533,0.133-1.5,1.216-2.9,3.25
				c-0.367,0.5-0.683,1.033-0.95,1.6c-0.4,0.767-0.767,1.583-1.1,2.45c-0.934,0.167-1.967,0.533-3.1,1.1
				c-1.233,0.6-2.1,1.167-2.6,1.7c0,0.034,0,0.067,0,0.1c0.6-0.467,1.434-0.917,2.5-1.35c1.2-0.5,2.233-0.85,3.1-1.05
				c-0.467,1.333-0.8,2.783-1,4.35c-0.067,0.066-0.1,0.133-0.1,0.2c0,0.067,0.017,0.1,0.05,0.1c0.033,0.033,0.066,0.067,0.1,0.1
				c0.034,0.033,0.083,0.017,0.15-0.05v-0.05c0-0.066,0.017-0.133,0.05-0.2c0-0.034,0-0.067,0-0.1c0.133-0.533,0.267-1.067,0.4-1.6
				c0.1,0.267,0.217,0.533,0.35,0.8c0.467,1.434,0.65,2.833,0.55,4.2c-0.133,1.167-0.267,2.283-0.4,3.35
				c-0.233,0.1-0.467,0.217-0.7,0.35c-0.5,0.267-0.867,0.466-1.1,0.6c-0.267,0.133-0.7,0.45-1.3,0.95c-0.6,0.567-0.933,0.967-1,1.2
				c0.034,0.066,0.05,0.117,0.05,0.15c0.6-0.767,1.533-1.383,2.8-1.85c0.434-0.2,0.817-0.333,1.15-0.4
				c-0.5,3.667-1.017,6.316-1.55,7.95c0.033,0.067,0.067,0.117,0.1,0.15c0.2-0.833,0.4-1.667,0.6-2.5c0.3-1.167,0.6-2.333,0.9-3.5
				c0.167-0.733,0.316-1.483,0.45-2.25c0.233-1.3,0.4-2.65,0.5-4.05c0.034-0.267,0.05-0.55,0.05-0.85c0-0.033,0-0.066,0-0.1
				c0-0.934-0.083-1.85-0.25-2.75c-0.1-0.434-0.233-0.833-0.4-1.2c-0.133-0.333-0.317-0.65-0.55-0.95c0.3-0.867,0.65-1.75,1.05-2.65
				c0.133-0.233,0.267-0.5,0.4-0.8c0.066,0.267,0.117,0.533,0.15,0.8c0.033,0.467,0.083,1,0.15,1.6c0.033,0.2,0.05,0.367,0.05,0.5
				c0.033,0.033,0.066,0.083,0.1,0.15h0.05c0.033,0,0.066,0,0.1,0c0.033-0.066,0.05-0.117,0.05-0.15c0.033-0.133,0.05-0.3,0.05-0.5
				c0-0.733-0.05-1.6-0.15-2.6c0-0.233,0-0.467,0-0.7c0.1-0.2,0.217-0.383,0.35-0.55c1.133-1.767,2.2-2.983,3.2-3.65
				c-0.067,0.267-0.117,0.5-0.15,0.7c-0.433,2.033-0.667,3.183-0.7,3.45c-0.133,0.833-0.233,1.667-0.3,2.5
				c-0.167,1.4-0.333,2.783-0.5,4.15v0.1c-0.066,0.867-0.133,1.717-0.2,2.55c0,0.033,0,0.066,0,0.1c0,0.1,0,0.2,0,0.3
				c0,0.233-0.017,0.467-0.05,0.7c0,0.1,0,0.184,0,0.25c0,0.034,0.017,0.083,0.05,0.15c0,0.033,0.033,0.05,0.1,0.05
				c0.033,0,0.05-0.017,0.05-0.05h0.05v-0.1c0.034-0.067,0.05-0.167,0.05-0.3c0.033-0.133,0.05-0.283,0.05-0.45
				c0.033-0.067,0.05-0.167,0.05-0.3c0-0.066,0-0.15,0-0.25c0.033-0.033,0.05-0.066,0.05-0.1c0.067-0.633,0.167-1.45,0.3-2.45v-0.05
				c0.067-0.633,0.167-1.317,0.3-2.05c0.1,0.733,0.25,2.017,0.45,3.85c0,0.033,0,0.067,0,0.1c0,0.167,0,0.316,0,0.45v0.15
				c0,0.033,0,0.066,0,0.1c0.034,0.233,0.067,0.483,0.1,0.75c0,0.1,0.017,0.184,0.05,0.25c0,0.067,0,0.117,0,0.15
				c0,0.066,0,0.133,0,0.2c-0.4,0.434-0.833,1.033-1.3,1.8c-0.8,1.233-1.533,2.833-2.2,4.8c-0.333,0.967-0.617,2.017-0.85,3.15
				c-0.233,1.1-0.4,2.25-0.5,3.45c-0.1,0.6-0.117,1-0.05,1.2c0.034,0.034,0.05,0.083,0.05,0.15c0.2-2.2,0.783-4.6,1.75-7.2
				c0.1,0.267,0.233,0.583,0.4,0.95c0.233,0.566,0.383,1,0.45,1.3c0.267,0.9,0.417,1.45,0.45,1.65c0.067,0.167,0.1,0.617,0.1,1.35
				c0,0.4-0.033,0.95-0.1,1.65c-0.033,0.7-0.05,1.217-0.05,1.55c0.066-0.367,0.133-0.934,0.2-1.7c0.1-0.667,0.15-1.15,0.15-1.45
				c0-1.133-0.117-2.4-0.35-3.8c-0.033-0.1-0.067-0.183-0.1-0.25c-0.2-1.167-0.417-2.033-0.65-2.6v-0.05
				c1.033-2.633,1.917-4.317,2.65-5.05c0.1,0.967,0.2,2.05,0.3,3.25v0.1c0.034,0.033,0.083,0.05,0.15,0.05
				c0.033,0,0.05-0.017,0.05-0.05c0.033-0.033,0.05-0.066,0.05-0.1c-0.066-1.066-0.15-2.05-0.25-2.95c0-0.067,0-0.15,0-0.25
				s0-0.2,0-0.3c0-0.267-0.017-0.533-0.05-0.8c0-0.067,0-0.117,0-0.15s0-0.067,0-0.1c0-0.067,0-0.133,0-0.2
				c0-0.2-0.017-0.45-0.05-0.75c0.033,0.034,0.066,0.067,0.1,0.1c0-0.066,0-0.133,0-0.2c0.267,0.133,0.617,0.383,1.05,0.75
				c0.066,0.066,0.15,0.15,0.25,0.25l0.05,0.05h0.05c0.167,0.2,0.3,0.35,0.4,0.45c0.333,0.4,0.55,0.75,0.65,1.05h0.1
				c0,0.067,0.017,0.1,0.05,0.1s0.067-0.017,0.1-0.05c0.033,0,0.05-0.017,0.05-0.05c0.034,0,0.05-0.017,0.05-0.05
				c0-0.067-0.017-0.117-0.05-0.15c-0.233-0.4-0.6-0.933-1.1-1.6c-0.034,0-0.067-0.017-0.1-0.05v-0.05h-0.05
				c-0.633-0.833-1.15-1.317-1.55-1.45v-0.05c0-0.1,0-0.217,0-0.35c-0.233-2.7-0.467-4.45-0.7-5.25v-0.1
				c0.034-0.333,0.083-0.7,0.15-1.1c0.733-4.5,1.667-7.933,2.8-10.3c0.1,2.7,0.333,5.383,0.7,8.05c0.367,2.733,0.566,5.434,0.6,8.1
				c0,0.1,0,0.2,0,0.3c0,1.367-0.05,2.716-0.15,4.05v0.05c-0.1,1.3-0.233,2.567-0.4,3.8v0.05h0.05C89.017-66.317,89-66.267,89-66.2
				c-0.033,0.167-0.067,0.333-0.1,0.5c-0.133,0.534-0.383,1.217-0.75,2.05c-0.233,0.6-0.433,1.083-0.6,1.45
				c-0.233,0.4-0.45,0.7-0.65,0.9c-0.066,0.033-0.117,0.066-0.15,0.1c-0.033,0.034-0.067,0.05-0.1,0.05c0,0.066,0,0.117,0,0.15
				s0.017,0.083,0.05,0.15c0.033,0,0.066,0,0.1,0c0.067,0,0.133-0.017,0.2-0.05c0.267,0.867,0.467,1.633,0.6,2.3v0.7h-0.05
				c-0.8,0.733-1.4,1.467-1.8,2.2c-0.133,0.2-0.25,0.434-0.35,0.7c-0.1,0.233-0.2,0.5-0.3,0.8c0.167-0.3,0.367-0.633,0.6-1
				c0.767-1.066,1.383-1.633,1.85-1.7c0.367,0.9,0.583,2.017,0.65,3.35c0.033,1.4,0.066,2.617,0.1,3.65
				c0.133,0.066,0.25,0.133,0.35,0.2c0-0.867-0.05-1.966-0.15-3.3c-0.1-1.5-0.25-3.283-0.45-5.35c-0.133-0.967-0.25-1.967-0.35-3
				c0.267-0.3,0.583-0.717,0.95-1.25c0.233-0.333,0.483-0.717,0.75-1.15c0.067,0.4,0.167,0.8,0.3,1.2
				c0.066,0.267,0.133,0.517,0.2,0.75c0.167,0.667,0.383,1.383,0.65,2.15c0.167,0.6,0.417,1.2,0.75,1.8
				c-0.033,0.4-0.1,0.917-0.2,1.55c-0.167,0.9-0.267,1.933-0.3,3.1c0,0.133,0,0.233,0,0.3c0,0.967,0.233,2.3,0.7,4
				c0.067,0.2,0.117,0.4,0.15,0.6c0.033,0,0.067,0.017,0.1,0.05c-0.033-0.233-0.083-0.55-0.15-0.95c-0.067-0.566-0.1-0.966-0.1-1.2
				c0-0.533,0.1-0.8,0.3-0.8c0.5,0,1.067,0.417,1.7,1.25c0.5,0.7,0.983,1.567,1.45,2.6c0.066,0,0.15,0.017,0.25,0.05
				c-0.434-1.233-1.184-2.534-2.25-3.9c-0.833-1.066-1.45-1.733-1.85-2L91.05-54c0-0.333,0.1-0.817,0.3-1.45
				c0.2-0.533,0.4-0.95,0.6-1.25c0.533,0.934,1.216,1.9,2.05,2.9c0,0.033,0.033,0.05,0.1,0.05l0.05-0.05
				c0.033,0,0.05-0.034,0.05-0.1c0-0.033-0.017-0.067-0.05-0.1c-0.633-0.967-1.217-2.1-1.75-3.4c-0.033-0.1-0.066-0.217-0.1-0.35
				c-0.2-0.467-0.383-0.967-0.55-1.5c0.033,0,0.067,0.017,0.1,0.05c0.5,0.133,1.45,0.583,2.85,1.35c0.7,0.4,1.767,1.05,3.2,1.95
				c0.333,0.8,0.883,2.033,1.65,3.7c0.567,1.167,1.067,2.2,1.5,3.1C101.017-49.2,100.983-49.3,100.95-49.4z M86.05-72.85L86-72.8
				l-0.1,0.05v-0.1C85.967-72.85,86.017-72.85,86.05-72.85z M87.55-72.15H87.5v-0.05L87.55-72.15z"/>
		</g>
		<g>
			<g>
				<path style="fill-rule:evenodd;clip-rule:evenodd;fill:#26211A;" d="M57.8-101c-0.066-0.1-0.15-0.217-0.25-0.35
					c-0.5-0.566-1.033-0.883-1.6-0.95c-0.167,0-0.3,0-0.4,0c-0.1,0-0.167,0-0.2,0c-0.233,0.033-0.5,0.083-0.8,0.15H54.5
					c-0.167-0.033-0.417-0.05-0.75-0.05c-0.167,0-0.433-0.017-0.8-0.05c-0.1-0.033-0.2-0.05-0.3-0.05c-0.5-0.067-0.983-0.1-1.45-0.1
					l-0.75,0.05v0.1c0.533,0.1,1.1,0.25,1.7,0.45c0.233,0.066,0.5,0.1,0.8,0.1c0.066,0.034,0.133,0.05,0.2,0.05
					c0.333,0,0.783,0.033,1.35,0.1c0.667,0.066,1.483,0.2,2.45,0.4C57.25-101.117,57.533-101.067,57.8-101
					c0.967,0.733,1.5,1.183,1.6,1.35c0.1,0.167,0.467,0.5,1.1,1v0.05h0.05c0.434,2.133,0.733,4.267,0.9,6.4l-0.2,28.25
					c-0.7,4.833-1.617,9.267-2.75,13.3c-0.033,0.2-0.117,0.35-0.25,0.45c-0.067,0.2-0.317,0.534-0.75,1c-0.433,0.5-1,1.067-1.7,1.7
					c-0.7,0.667-1.35,1.35-1.95,2.05c-0.233,0.7-0.434,1.233-0.6,1.6s-0.333,0.8-0.5,1.3c-1.167,0.6-2.183,1.017-3.05,1.25
					l-1.25,0.65c-0.967,0.566-1.55,1-1.75,1.3c-0.1,0.133-0.25,0.35-0.45,0.65c-0.233,0.367-0.533,0.817-0.9,1.35
					c1.133-1.367,2.083-2.267,2.85-2.7c0.367-0.3,0.683-0.5,0.95-0.6c0.3-0.067,0.5-0.1,0.6-0.1c1-0.267,1.833-0.417,2.5-0.45
					c0,0.1-0.033,0.2-0.1,0.3c-0.3,1.066-0.533,2.283-0.7,3.65c-0.233,1.5-0.417,2.633-0.55,3.4c-0.1,0.8-0.033,0.583,0.2-0.65
					c0.267-1.1,0.417-1.717,0.45-1.85l-0.25,1.3l0.35-1.6c0.133-0.6,0.267-1.2,0.4-1.8c0.133,0.3,0.35,1,0.65,2.1
					c0.333,1.067,0.433,2.4,0.3,4c-0.1,1.333-0.233,2.367-0.4,3.1c-0.1,0.033-0.2,0.067-0.3,0.1c-0.767,0.333-1.283,0.583-1.55,0.75
					c-0.267,0.133-0.65,0.45-1.15,0.95c-0.467,0.5-0.833,0.883-1.1,1.15c-0.2,0.233-0.567,0.917-1.1,2.05
					c0.133-0.167,0.233-0.317,0.3-0.45c0.8-1.1,1.483-1.917,2.05-2.45c0.467-0.434,0.85-0.7,1.15-0.8
					c0.767-0.233,1.283-0.35,1.55-0.35c-0.1,0.767-0.2,1.5-0.3,2.2c-0.367,2.233-0.667,3.9-0.9,5c0.1-0.367,0.2-0.733,0.3-1.1
					c0.333-1.267,0.667-2.517,1-3.75c0.167-0.867,0.333-1.7,0.5-2.5c0.233-1.433,0.4-2.9,0.5-4.4c0.034-0.3,0.05-0.6,0.05-0.9
					c0.033-0.067,0.033-0.1,0-0.1c0.033-1.033-0.05-2.05-0.25-3.05c-0.067-0.434-0.2-0.85-0.4-1.25
					c-0.167-0.367-0.267-0.967-0.3-1.8C52.717-40.417,53-41.1,53.5-42c0.133-0.333,0.267-0.65,0.4-0.95
					c0.067,0.3,0.117,0.617,0.15,0.95c0.034,0.467,0.1,1.017,0.2,1.65v0.05c0,0.2,0.05,1.066,0.15,2.6
					c0.033,0.167,0.05,0.317,0.05,0.45c0.1-1.633,0.15-2.483,0.15-2.55c0-0.133,0-0.3,0-0.5v-0.05c0-0.467,0-0.967,0-1.5
					c-0.1-0.167-0.117-0.35-0.05-0.55c0-0.233-0.017-0.483-0.05-0.75s-0.05-0.517-0.05-0.75c0.167-0.2,0.3-0.4,0.4-0.6
					c0.9-1.433,2.05-2.683,3.45-3.75l-0.05,0.05c0,0.167-0.033,0.317-0.1,0.45v0.05c-0.467,2.2-0.717,3.434-0.75,3.7
					c-0.167,0.967-0.267,1.9-0.3,2.8c-0.2,1.467-0.367,2.95-0.5,4.45v0.1c-0.1,0.933-0.167,1.867-0.2,2.8l0.05,0.65
					c0,0.233,0.017,0.417,0.05,0.55c0.033,0.167,0.05,0.283,0.05,0.35l0.2,1.05c-0.067-1.1-0.083-1.733-0.05-1.9
					c0.033-0.1,0.05-0.217,0.05-0.35c0-0.067,0-0.15,0-0.25v-0.1c0.1-0.733,0.217-1.633,0.35-2.7v-0.05c0.1-0.667,0.2-1.4,0.3-2.2
					c0.133,0.8,0.3,2.2,0.5,4.2v0.1c0.033,0.167,0.05,0.317,0.05,0.45c0,0.066,0,0.117,0,0.15l-0.05,2.2
					c-0.367,0.5-0.683,0.833-0.95,1c-0.333,0.733-0.684,1.383-1.05,1.95c-0.333,0.533-0.783,1.533-1.35,3
					c-0.566,1.467-1.1,2.933-1.6,4.4c0.033,0.934,0,2.233-0.1,3.9c0,0.233,0,0.434,0,0.6c0.133-1.267,0.283-2.733,0.45-4.4
					c0.567-1.333,1.083-2.783,1.55-4.35v0.15l0.35,1.5c0.233,1.034,0.417,1.883,0.55,2.55c0.167,0.667,0.267,1.1,0.3,1.3
					c0.034,0.2,0.067,0.6,0.1,1.2c0.033,0.367,0.033,0.733,0,1.1c0,0.3-0.017,0.617-0.05,0.95c-0.033,0.8-0.05,1.35-0.05,1.65
					c0.1-0.367,0.184-0.966,0.25-1.8c0.1-0.7,0.15-1.233,0.15-1.6c0-1.2-0.083-2.233-0.25-3.1c-0.2-0.867-0.383-1.6-0.55-2.2
					c-0.167-0.633-0.283-1.317-0.35-2.05c0.133-0.267,0.25-0.517,0.35-0.75c0.967-2.367,1.75-3.767,2.35-4.2
					c0.067,0.133,0.133,0.433,0.2,0.9c0.033,0.167,0.05,0.333,0.05,0.5c0.167,1.033,0.35,2.6,0.55,4.7
					c-0.133-2.633-0.216-4.167-0.25-4.6c-0.066-1.167-0.1-1.8-0.1-1.9c0-0.1,0-0.2,0-0.3c0-0.3-0.017-0.6-0.05-0.9
					c0-0.033,0-0.067,0-0.1v-0.1c0-0.1,0-0.183,0-0.25c0-0.133,0.017-0.316,0.05-0.55c0.3-0.067,0.6-0.033,0.9,0.1
					c0.133,0.066,0.217,0.1,0.25,0.1c0.167,0.133,0.283,0.233,0.35,0.3c0.1,0.1,0.2,0.233,0.3,0.4c0.1,0.2,0.217,0.383,0.35,0.55
					c0.3,0.4,0.633,0.966,1,1.7c-0.167-0.433-0.3-0.783-0.4-1.05c-0.1-0.133-0.167-0.267-0.2-0.4c-0.033-0.067-0.15-0.367-0.35-0.9
					c-0.066-0.1-0.233-0.316-0.5-0.65c-0.233-0.133-0.65-0.417-1.25-0.85c-0.066-0.1-0.167-0.25-0.3-0.45
					c-0.067-0.1-0.133-0.2-0.2-0.3c0-0.066,0-0.15,0-0.25c-0.267-2.933-0.517-4.816-0.75-5.65c0-0.066,0-0.117,0-0.15
					c0.067-0.367,0.117-0.75,0.15-1.15c0.767-4.934,1.784-8.117,3.05-9.55c0.1,1.833,0.35,4.184,0.75,7.05
					c0.4,2.967,0.633,5.917,0.7,8.85c0,0.1,0,0.183,0,0.25c0,1.5-0.066,2.966-0.2,4.4c0,0.066,0,0.117,0,0.15
					c-0.033,0.533-0.083,1.05-0.15,1.55c-0.067,0.833-0.167,1.667-0.3,2.5v0.05h0.05c-0.034,0.066-0.05,0.133-0.05,0.2
					c0,0.167-0.05,0.35-0.15,0.55c-0.133,0.566-0.383,1.3-0.75,2.2c-0.233,0.633-0.45,1.15-0.65,1.55c-0.267,0.433-0.5,0.767-0.7,1
					c-0.066,0.033-0.117,0.083-0.15,0.15c-0.067,0-0.583,0.317-1.55,0.95c-0.934,0.633-1.1,0.767-0.5,0.4
					c0.667-0.333,1.167-0.583,1.5-0.75c0.367-0.167,0.566-0.25,0.6-0.25c0.067-0.033,0.133-0.05,0.2-0.05
					c0.3,0.934,0.517,1.767,0.65,2.5l-0.05,0.9c-0.9,0.733-1.55,1.483-1.95,2.25c-0.133,0.233-0.267,0.483-0.4,0.75
					c-0.1,0.267-0.2,0.55-0.3,0.85c0.167-0.3,0.383-0.65,0.65-1.05c0.4-0.6,0.783-1.067,1.15-1.4c0.3-0.3,0.583-0.467,0.85-0.5
					c0.4,1,0.633,2.233,0.7,3.7c0.034,1.034,0.2,2.25,0.5,3.65c0-0.833-0.05-1.867-0.15-3.1c-0.133-1.6-0.316-3.517-0.55-5.75
					c-0.133-1.033-0.233-2.033-0.3-3c0.034-0.1,0.067-0.184,0.1-0.25c0.267-0.467,0.567-0.95,0.9-1.45
					c0.233-0.333,0.5-0.733,0.8-1.2c0.066,0.433,0.167,0.867,0.3,1.3c0.1,0.267,0.184,0.533,0.25,0.8
					c0.1,0.367,0.217,0.767,0.35,1.2c0.1,0.367,0.217,0.75,0.35,1.15c0.167,0.6,0.4,1.2,0.7,1.8c-0.066,0.566-0.133,1.1-0.2,1.6
					c-0.133,0.967-0.25,1.534-0.35,1.7c0.033,0.433,0.05,0.7,0.05,0.8c0,0.333,0.034,0.684,0.1,1.05v0.05c0,0.133,0,0.25,0,0.35
					c0,0.367,0.017,0.783,0.05,1.25c0.133,0.867,0.35,1.9,0.65,3.1c0.066,0.233,0.133,0.45,0.2,0.65c0.034,0,0.083,0.217,0.15,0.65
					c-0.067-0.633-0.184-1.233-0.35-1.8c-0.1-0.567-0.184-1.1-0.25-1.6c-0.067-0.433-0.067-1,0-1.7
					c0.933,0.833,1.75,1.717,2.45,2.65c0.434,0.6,1.017,1.55,1.75,2.85c-0.533-1.5-1.316-2.9-2.35-4.2
					c-0.7-0.934-1.267-1.583-1.7-1.95c-0.033,0-0.083-0.033-0.15-0.1v-1.05c0-0.6,0.033-1.017,0.1-1.25
					c0.033-0.133,0.083-0.35,0.15-0.65c0.133-0.333,0.267-0.6,0.4-0.8c0.033-0.033,0.05-0.066,0.05-0.1l0.05-0.05
					c0.6,0.967,1.333,2,2.2,3.1c0.034,0.033,0.45,0.417,1.25,1.15c0.6,0.633,0.983,1,1.15,1.1h0.1c0.034,0-0.3-0.367-1-1.1
					c-0.1-0.1-0.2-0.183-0.3-0.25c-0.033-0.066-0.083-0.133-0.15-0.2c-0.467-0.534-0.85-1-1.15-1.4
					c-0.367-0.533-0.75-1.233-1.15-2.1c-0.367-0.867-0.55-1.367-0.55-1.5c-0.233-0.5-0.517-1.15-0.85-1.95
					c0.3-0.033,1.067,0.267,2.3,0.9c1.3,0.633,2.85,1.667,4.65,3.1c0.1,0.267,0.233,0.583,0.4,0.95c0.333,0.8,0.783,1.8,1.35,3
					c0.6,1.267,1.133,2.4,1.6,3.4c-0.034-0.133-0.05-0.25-0.05-0.35c-0.367-0.9-0.633-1.567-0.8-2c-0.567-1.233-0.95-2.1-1.15-2.6
					c-0.267-0.667-0.4-1.267-0.4-1.8c1.1,0.733,2.3,1.8,3.6,3.2c0.434,0.434,0.917,0.967,1.45,1.6c-0.3-0.533-0.667-1.066-1.1-1.6
					c-1.367-1.8-3.233-3.533-5.6-5.2c-0.9-0.633-1.883-1.267-2.95-1.9c-0.467-0.233-0.95-0.5-1.45-0.8c-0.9-0.433-1.533-0.767-1.9-1
					c-0.067,0-0.117-0.033-0.15-0.1c-0.034-0.1-0.067-0.183-0.1-0.25c-0.2-0.767-0.417-1.583-0.65-2.45
					c-0.067-0.467-0.15-0.934-0.25-1.4c-0.133-0.434-0.184-0.85-0.15-1.25c0.034-0.2,0.067-0.383,0.1-0.55
					c0.2-1.367,0.333-2.733,0.4-4.1c0.067-0.433,0.1-0.85,0.1-1.25c0.1-1.267,0.133-2.5,0.1-3.7c0-0.167,0-0.35,0-0.55
					c-0.033-1.633-0.117-3.267-0.25-4.9c-0.033-0.233-0.05-0.467-0.05-0.7c0-0.034,0-0.1,0-0.2c0.833,1.5,1.5,3.283,2,5.35
					c0.1,0.3,0.183,0.583,0.25,0.85c0.066,0.466,0.15,0.933,0.25,1.4c0.133,0.6,0.25,1.217,0.35,1.85c0.067,0.2,0.1,0.4,0.1,0.6
					c0,0.067-0.017,0.133-0.05,0.2c-0.2,0.4-0.383,0.883-0.55,1.45c-0.1,0.433-0.183,0.883-0.25,1.35c-0.133,1-0.2,2.434-0.2,4.3
					v0.05c0,0.033,0.017,0.083,0.05,0.15c0.033,0,0.083,0,0.15,0h0.05c0.066-0.066,0.1-0.117,0.1-0.15
					c0.066-0.667,0.167-1.75,0.3-3.25c0.033-0.066,0.05-0.15,0.05-0.25c0.133-1.066,0.3-1.883,0.5-2.45
					c0.034-0.034,0.05-0.083,0.05-0.15c0.3,1.4,0.566,2.983,0.8,4.75l0.95,6.05c-0.033-0.467-0.083-0.934-0.15-1.4
					c0-0.067,0-0.133,0-0.2c-0.067-1-0.15-1.933-0.25-2.8l-0.05-0.55c-0.267-3.133-0.483-5.417-0.65-6.85
					c-0.033-0.566-0.05-1.017-0.05-1.35c0.066,0.066,0.133,0.117,0.2,0.15c0.533,0.4,1.117,0.833,1.75,1.3
					c0.6,0.5,1.184,1.083,1.75,1.75c0,0.033,0,0.067,0,0.1c0.1,0.533,0.167,1.3,0.2,2.3v0.75c0,0.067,0,0.117,0,0.15l0.35,1.05
					c0.1,0.467,0.183,0.8,0.25,1c0.1,0.167,0.216,0.517,0.35,1.05c0.133,0.4,0.267,0.9,0.4,1.5c-0.034-0.233-0.067-0.466-0.1-0.7
					c-0.167-1.2-0.35-2.184-0.55-2.95c0.3,0.5,0.85,1.283,1.65,2.35c0.267,0.333,0.55,0.783,0.85,1.35c0.6,1.167,1.3,2.783,2.1,4.85
					c0.367,1,0.667,1.816,0.9,2.45c-0.267-1.133-0.617-2.383-1.05-3.75c-0.9-2.6-1.933-4.733-3.1-6.4
					c-0.367-0.567-0.8-1.083-1.3-1.55c0-0.067,0-0.133,0-0.2c0-0.1,0-0.183,0-0.25v-0.05c-0.033-0.434-0.033-0.934,0-1.5
					c0-0.1,0-0.217,0-0.35c1.1,1.367,1.933,2.417,2.5,3.15c-0.567-1.333-1.3-2.65-2.2-3.95c-0.1-0.066-0.167-0.133-0.2-0.2
					c-1.034-1.4-1.95-2.417-2.75-3.05c-0.733-0.6-1.467-1.066-2.2-1.4c-0.067-0.333-0.133-0.633-0.2-0.9v-0.05
					c-0.066-0.333-0.133-0.617-0.2-0.85c-0.3-1.567-0.684-2.95-1.15-4.15c-0.067-0.5-0.333-1.317-0.8-2.45c-0.5-1.1-0.833-2.1-1-3
					c-0.066-0.367-0.133-0.883-0.2-1.55c-0.067-1.067-0.1-2.6-0.1-4.6c0-3.167,0.033-5.55,0.1-7.15
					c0.033-0.633,0.083-1.35,0.15-2.15c0-0.566,0-1.133,0-1.7c0-0.6,0-1.2,0-1.8c0.033-1.2,0.05-2.4,0.05-3.6c0-1.2,0-2.417,0-3.65
					c0-0.566,0-1.15,0-1.75c0-0.566,0-1.15,0-1.75c-0.033-1.066,0.017-2.117,0.15-3.15c0.1-0.566,0.15-1.15,0.15-1.75
					c0.066-1.467,0.15-2.967,0.25-4.5c0.066-1.267,0.133-2.533,0.2-3.8c0.067-1.233,0.083-2.5,0.05-3.8
					c-0.067-1.566-0.2-3.083-0.4-4.55c0.133-0.633,0.3-1.467,0.5-2.5c0.067-0.3,0.617-0.55,1.65-0.75c1.2-0.167,1.983-0.3,2.35-0.4
					c1.367-0.434,2.633-0.833,3.8-1.2c2.367-0.7,4.017-1.1,4.95-1.2c-0.3-0.233-0.933-0.35-1.9-0.35l-3.25,0.55
					c-0.733,0.167-1.85,0.167-3.35,0c-0.066,0-1.333,0.167-3.8,0.5c-0.4,0.067-0.783,0.133-1.15,0.2c-0.467-0.033-0.9-0.033-1.3,0
					c-0.1,0-0.667-0.15-1.7-0.45c-1-0.3-1.55-0.45-1.65-0.45c-0.133,0-0.417-0.05-0.85-0.15c-0.4-0.1-0.7-0.15-0.9-0.15l-1.8,0.05
					v0.1c0.4,0.1,0.95,0.284,1.65,0.55c0.1,0.066,0.184,0.117,0.25,0.15c-0.267-0.033-0.55-0.05-0.85-0.05c-0.3,0-0.55,0-0.75,0
					c0.566,0.066,1.1,0.383,1.6,0.95C57.65-101.217,57.733-101.1,57.8-101z"/>
				
					<path style="fill-rule:evenodd;clip-rule:evenodd;fill:none;stroke:#000000;stroke-linecap:round;stroke-linejoin:round;stroke-miterlimit:3;" d="
					M55.95-102.3c-0.167,0-0.3,0-0.4,0 M57.8-101c-0.066-0.1-0.15-0.217-0.25-0.35c-0.5-0.566-1.033-0.883-1.6-0.95"/>
			</g>
		</g>
	</g>
</symbol>
<g>
	<g>
		<path style="fill-rule:evenodd;clip-rule:evenodd;fill-opacity:0.451;" d="M150.4,206.55c-0.031-0.008-0.064-0.016-0.101-0.024
			c-0.521-0.138-1.596-0.362-3.225-0.676c-1.621-0.304-3.079-0.454-4.375-0.449c-1.033,0-1.783,0.066-2.25,0.199
			c-0.467,0.134-0.867,0.2-1.2,0.2c-0.6,0-2.267-0.217-5-0.649c-2.733-0.467-4.634-0.7-5.7-0.7c-1.1,0-1.983,0.083-2.649,0.25
			c-1.134,0.3-2.084,0.5-2.851,0.6c-1,0.134-2.434,0.4-4.3,0.8c-1.533,0.301-2.616,0.45-3.25,0.45c-1.563,0-2.771-0.116-3.625-0.35
			c-0.176-0.046-0.334-0.096-0.475-0.15l0.05-0.1c0.346-0.065,0.854-0.165,1.524-0.3c0.065-0.014,0.132-0.03,0.2-0.051
			c0.31-0.057,0.651-0.123,1.025-0.199v-0.051c-0.066,0-0.2-0.066-0.4-0.199c-0.133-0.101-0.399-0.134-0.8-0.101
			c-0.333,0.033-0.7,0.017-1.1-0.05c-0.467-0.033-0.784-0.05-0.95-0.05c-0.4,0-1.066-0.101-2-0.3
			c-0.634-0.167-0.95-0.184-0.95-0.051h-0.05c-0.681,0.007-1.497,0.073-2.45,0.2c-1.033,0.101-2.083,0.15-3.15,0.15l-1.85-0.05h-0.1
			l0.05-0.101l2.325-0.6c5.6-0.48,10.392-0.897,14.375-1.25c3.987-0.355,10.112-0.006,18.375,1.05
			c7.601,0.975,13.833,1.591,18.699,1.85c0.415,0.018,0.824,0.034,1.226,0.051c-0.739,0.082-1.656,0.24-2.75,0.475
			c-0.244,0.052-0.478,0.094-0.7,0.125C151.329,206.608,150.796,206.625,150.4,206.55z M89.25,206.1c-0.094-0.001-0.194-0.001-0.3,0
			c0,0.067-0.633,0.034-1.9-0.1c-1.267-0.167-1.9-0.2-1.9-0.1H85.1c-0.492,0.004-1.109,0.07-1.85,0.199
			c-0.933,0.134-1.55,0.217-1.85,0.25c-2.233,0-3.35,0.167-3.35,0.5l0.15,0.375c0.692,0.192,1.333,0.343,1.925,0.45
			c0.398,0.078,0.773,0.136,1.125,0.175v0.25c-0.052,0.023-0.102,0.049-0.15,0.075c-0.686,0.25-1.735,0.375-3.15,0.375
			c-1.333,0-3.617-0.35-6.85-1.05c-3.2-0.733-5.684-1.1-7.45-1.1c-1.233,0-2.967,0.216-5.2,0.649c-2.233,0.4-3.934,0.601-5.1,0.601
			c-1.567,0-2.667-0.101-3.3-0.301c0.021-0.015,0.047-0.031,0.075-0.05c0.346-0.204,0.971-0.338,1.875-0.399l0.6-0.101
			c0.244-0.038,0.477-0.071,0.7-0.1c2.072-0.333,3.206-0.517,3.4-0.55c0.566-0.233,1.733-0.45,3.5-0.65
			c1.667-0.2,4.383-0.4,8.15-0.6c3.4-0.167,5.9-0.25,7.5-0.25c2.633,0,4.5,0.05,5.6,0.149c2.3,0.233,4.4,0.4,6.3,0.5
			c0.2,0,1.183,0.017,2.95,0.05c0.533,0,0.95,0.101,1.25,0.301l-0.05,0.1c-0.026,0-0.118,0.017-0.275,0.05
			c-0.249,0.032-0.657,0.099-1.225,0.2C90.063,206.048,89.68,206.081,89.25,206.1z M45.6,205.2c-0.069,0-0.136,0-0.2,0
			c-2.333,0-4.9-0.384-7.7-1.15c-0.867-0.233-2.367-0.399-4.5-0.5c-1.967-0.066-2.983-0.1-3.05-0.1c-1.033,0-2.367,0.283-4,0.85
			c-1.16,0.402-2.018,0.661-2.575,0.775c-0.045,0.01-0.087,0.018-0.125,0.024c-0.096,0.02-0.18,0.036-0.25,0.051
			c-0.058,0-0.108,0-0.15,0l-0.525-0.051H22.45l-0.7-0.05V204.9c0.467,0.033,1.167-0.167,2.1-0.601
			c0.103-0.048,0.211-0.098,0.325-0.149c0.469-0.223,1.061-0.507,1.775-0.851H25.7c-2,0.367-4.117,0.584-6.35,0.65
			c-0.4,0-1.1,0.184-2.1,0.55s-1.817,0.55-2.45,0.55l-1.2-0.125l-0.2-0.024v-0.051l0.35-0.149c-0.037,0.062-0.029,0.104,0.025,0.125
			c0.063,0.035,0.205,0.035,0.425,0c0.304-0.044,0.754-0.152,1.35-0.325l2.9-1.1c1.9-0.601,3.183-0.967,3.85-1.101
			c1.348-0.289,3.082-0.438,5.2-0.45c0.083,0,0.166,0,0.25,0c-0.037-0.001-0.103-0.018-0.2-0.05c0.266-0.159,1.832-0.042,4.7,0.351
			c2.667,0.399,5,0.8,7,1.199c1.9,0.367,4.733,0.884,8.5,1.551l-0.05,0.149c-0.123,0.031-0.281,0.056-0.475,0.075
			c-0.221,0.025-0.487,0.042-0.8,0.05h-0.4c-0.026,0.002-0.051,0.002-0.075,0c-0.045,0.005-0.087,0.005-0.125,0
			C45.748,205.185,45.673,205.192,45.6,205.2z M192.8,206.6c-1.1,0.134-1.866,0.2-2.3,0.2c-0.333,0-0.767-0.033-1.3-0.1
			c-0.533-0.101-0.884-0.15-1.05-0.15c-0.434,0-0.7,0.167-0.801,0.5c0.167,0.066,0.567,0.2,1.2,0.4c0.066,0.033,0.134,0.05,0.2,0.05
			c0.533,0.233,0.9,0.467,1.1,0.7c-0.166-0.033-0.333-0.084-0.5-0.15c-1.199-0.267-2.666-0.55-4.399-0.85
			c-2-0.367-3.283-0.55-3.851-0.55c-0.433,0-0.767,0.083-1,0.25c-0.267,0.166-0.55,0.25-0.85,0.25c-0.366,0-0.967-0.15-1.8-0.45
			c-0.834-0.3-1.351-0.45-1.55-0.45c-4.7,0.6-7.2,0.9-7.5,0.9c-1.601-0.301-2.634-0.467-3.101-0.5
			c-0.133-0.034-0.217-0.051-0.25-0.051v-0.05c0.367-0.033,0.75-0.066,1.15-0.1c1.633-0.233,3.6-0.584,5.899-1.05
			c1.867-0.367,3.983-0.551,6.351-0.551c0.1,0,0.184,0,0.25,0l-0.15-0.05c0.533-0.133,3.066,0,7.601,0.4
			c2.033,0.1,3.633,0.25,4.8,0.45c1,0.166,1.816,0.3,2.45,0.399c0.633,0.066,1.033,0.134,1.199,0.2
			C193.934,206.384,193.333,206.5,192.8,206.6z"/>
		<path style="fill-rule:evenodd;clip-rule:evenodd;fill-opacity:0.2;" d="M100.5,204.9l1.85,0.05c1.066,0,2.117-0.05,3.15-0.15
			c0.953-0.127,1.77-0.193,2.45-0.2H108c0-0.133,0.316-0.116,0.95,0.051c0.934,0.199,1.6,0.3,2,0.3c0.166,0,0.483,0.017,0.95,0.05
			c0.399,0.066,0.767,0.083,1.1,0.05c0.4-0.033,0.667,0,0.8,0.101c0.2,0.133,0.334,0.199,0.4,0.199v0.051
			c-0.374,0.076-0.716,0.143-1.025,0.199c-1.393-0.129-2.65-0.278-3.774-0.449c-0.834-0.134-2.017-0.2-3.55-0.2
			c-2.633,0.033-4.417,0.033-5.35,0V204.9z M150.4,206.55c-0.82,0.004-1.503-0.029-2.051-0.1c-0.571-0.075-1.063-0.134-1.475-0.175
			l0.775,0.024c-4.357-0.372-6.749-0.422-7.176-0.149c-0.419,0.269-1.261,0.302-2.524,0.1c-1.568-0.237-2.727-0.42-3.476-0.55
			c-0.749-0.127-1.641-0.285-2.675-0.476c-1.029-0.187-2.146-0.244-3.35-0.175l0.024,0.025c-0.704-0.013-2.262,0.204-4.675,0.649
			c-2.702,0.508-4.577,0.833-5.625,0.976c-1.048,0.135-2.29,0.135-3.725,0c-1.467-0.167-2.325-0.334-2.575-0.5
			c0.854,0.233,2.063,0.35,3.625,0.35c0.634,0,1.717-0.149,3.25-0.45c1.866-0.399,3.3-0.666,4.3-0.8c0.767-0.1,1.717-0.3,2.851-0.6
			c0.666-0.167,1.55-0.25,2.649-0.25c1.066,0,2.967,0.233,5.7,0.7c2.733,0.433,4.4,0.649,5,0.649c0.333,0,0.733-0.066,1.2-0.2
			c0.467-0.133,1.217-0.199,2.25-0.199c1.296-0.005,2.754,0.146,4.375,0.449c1.629,0.313,2.703,0.538,3.225,0.676
			C150.336,206.534,150.369,206.542,150.4,206.55z M50.125,207.3c-0.028,0.019-0.054,0.035-0.075,0.05
			c0.633,0.2,1.733,0.301,3.3,0.301c1.167,0,2.867-0.2,5.1-0.601c2.233-0.434,3.966-0.649,5.2-0.649c1.767,0,4.25,0.366,7.45,1.1
			c3.233,0.7,5.517,1.05,6.85,1.05c1.415,0,2.464-0.125,3.15-0.375l-1.2,0.476c-0.5,0.133-0.95,0.216-1.35,0.25l-0.5-0.051
			c-8.914-1.209-13.98-1.843-15.2-1.899v-0.05c-0.017,0.017-0.033,0.033-0.05,0.05c-0.025-0.001-0.059-0.001-0.1,0
			c-0.437,0.025-1.737,0.226-3.9,0.6c-1.367,0.2-2.2,0.316-2.5,0.351c-0.271,0.03-0.789,0.047-1.55,0.05
			c0-0.066-0.017-0.083-0.05-0.05h-0.025c-0.141-0.025-0.482-0.025-1.025,0c-1,0-1.617,0-1.85,0c-1.4-0.233-2.216-0.351-2.45-0.351
			v-0.1L50.125,207.3z M89.25,206.1c-1.154,0.2-1.888,0.301-2.2,0.301l-1.75-0.2c-1.867,0.399-2.833,0.616-2.9,0.649
			c-0.4,0-0.867,0.034-1.4,0.101c-0.833,0.133-1.25,0.3-1.25,0.5l0.05,0.149l0.325,0.075c-0.591-0.107-1.233-0.258-1.925-0.45
			l-0.15-0.375c0-0.333,1.117-0.5,3.35-0.5c0.3-0.033,0.917-0.116,1.85-0.25c0.741-0.129,1.358-0.195,1.85-0.199h0.05
			c0-0.101,0.633-0.067,1.9,0.1c1.267,0.134,1.9,0.167,1.9,0.1C89.056,206.099,89.156,206.099,89.25,206.1z M13.6,204.925l1.2,0.125
			c0.633,0,1.45-0.184,2.45-0.55s1.7-0.55,2.1-0.55c2.233-0.066,4.35-0.283,6.35-0.65h0.25c-0.715,0.344-1.307,0.628-1.775,0.851
			c-0.146-0.067-0.321-0.101-0.525-0.101c-1.7,0-3.467,0.217-5.3,0.65c-1.833,0.434-2.934,0.649-3.3,0.649
			c-0.066,0-0.767-0.083-2.1-0.25C13.229,205.04,13.446,204.981,13.6,204.925z M45.6,205.2c-0.899,0.071-1.857,0.121-2.875,0.149
			c-1.687,0.044-3.512-0.189-5.475-0.699c-1.964-0.504-3.814-0.754-5.55-0.75c-1.2,0-2.5,0.149-3.9,0.449
			c-0.5,0.067-1.2,0.233-2.1,0.5c-1.08,0.092-1.788,0.167-2.125,0.226c0.557-0.114,1.415-0.373,2.575-0.775
			c1.633-0.566,2.967-0.85,4-0.85c0.067,0,1.083,0.033,3.05,0.1c2.133,0.101,3.633,0.267,4.5,0.5c2.8,0.767,5.367,1.15,7.7,1.15
			C45.464,205.2,45.531,205.2,45.6,205.2z M165.3,206.65c0.467,0.033,1.5,0.199,3.101,0.5c0.3,0,2.8-0.301,7.5-0.9
			c0.199,0,0.716,0.15,1.55,0.45c0.833,0.3,1.434,0.45,1.8,0.45c0.3,0,0.583-0.084,0.85-0.25c0.233-0.167,0.567-0.25,1-0.25
			c0.567,0,1.851,0.183,3.851,0.55c1.733,0.3,3.2,0.583,4.399,0.85c-3.5-0.533-6.149-0.8-7.949-0.8c-0.534,0-0.884,0.083-1.051,0.25
			c-0.166,0.167-0.35,0.25-0.55,0.25c-0.267,0-0.95-0.15-2.05-0.45s-2.15-0.45-3.15-0.45c-3.699,0.434-5.767,0.65-6.199,0.65
			c-2.467-0.5-3.733-0.75-3.801-0.75v-0.05C164.667,206.7,164.9,206.684,165.3,206.65z M192.8,206.6
			c-0.5,0.167-1.217,0.317-2.149,0.45c-1.134,0.101-1.767,0.25-1.9,0.45c-0.066,0-0.134-0.017-0.2-0.05
			c-0.633-0.2-1.033-0.334-1.2-0.4c0.101-0.333,0.367-0.5,0.801-0.5c0.166,0,0.517,0.05,1.05,0.15c0.533,0.066,0.967,0.1,1.3,0.1
			C190.934,206.8,191.7,206.733,192.8,206.6z"/>
		
			<path style="fill-rule:evenodd;clip-rule:evenodd;fill:none;stroke:#000000;stroke-linecap:round;stroke-linejoin:round;stroke-miterlimit:3;" d="
			M46.025,205.175h0.4c0.313-0.008,0.58-0.024,0.8-0.05"/>
	</g>
</g>
<use xlink:href="#redtree_x5F_cluster_x5F_01"  width="107.241" height="104.05" x="0.009" y="-104.05" transform="matrix(2 0 0 -2 0 0)" style="overflow:visible;"/>
</svg>
