<?xml version="1.0" encoding="iso-8859-1"?>
<!-- Generator: Adobe Illustrator 16.0.0, SVG Export Plug-In . SVG Version: 6.00 Build 0)  -->
<!DOCTYPE svg PUBLIC "-//W3C//DTD SVG 1.1//EN" "http://www.w3.org/Graphics/SVG/1.1/DTD/svg11.dtd">
<svg version="1.1" id="Layer_1" xmlns="http://www.w3.org/2000/svg" xmlns:xlink="http://www.w3.org/1999/xlink" x="0px" y="0px"
	 width="215.4px" height="287.7px" viewBox="0 0 215.4 287.7" style="enable-background:new 0 0 215.4 287.7;" xml:space="preserve"
	>
<symbol  id="waterlilies_x5F_leaves_x5F_highest" viewBox="-0.02 -143.05 107.72 143.057">
	<g id="Layer_3_1_">
		<g>
			<g>
				<path style="fill-rule:evenodd;clip-rule:evenodd;fill:#102723;" d="M54.05-40.95c-0.466-0.667-0.783-1.3-0.95-1.9
					c-0.133-0.5-0.434-1.483-0.9-2.95c-0.4-1.434-0.7-2.617-0.9-3.55c-0.433-2.233-0.767-4.367-1-6.4
					c-0.066-0.367-0.117-0.75-0.15-1.15c-0.133-1.333-0.283-3.184-0.45-5.55l0.1,4.1c0.167,1.567,0.267,3.033,0.3,4.4
					c0.066,1.4,0.167,2.7,0.3,3.9c0.1,1.3,0.25,2.466,0.45,3.5c0.066,0.4,0.15,0.8,0.25,1.2c0.405,1.642,0.863,3.208,1.375,4.7H52.5
					c0.267,0.6,0.567,1.167,0.9,1.7c1.1,1.833,2.167,3.05,3.2,3.65v0.4c-0.267,0.066-0.617-0.05-1.05-0.35
					c-0.367-0.267-0.617-0.5-0.75-0.7v0.1c0.067,0.2,0.15,0.383,0.25,0.55c0.333,0.767,0.65,1.283,0.95,1.55l-1.55,0.15
					c-1.034,0-1.7-0.267-2-0.8c-0.167-0.3-0.383-0.7-0.65-1.2v0.45L52-34.5v1.25h-1.8c-0.233-0.067-0.517-0.1-0.85-0.1v0.1H49
					c-1.567,0.233-2.383-0.3-2.45-1.6c-0.033-0.467,0-1.117,0.1-1.95c-0.233,0.633-0.6,1.383-1.1,2.25c-1.033,1.8-1.7,2.7-2,2.7
					c-0.3,0-0.45-0.1-0.45-0.3c0-0.4,0.133-0.917,0.4-1.55v-0.5v-0.1c-0.033,0.033-0.067,0.066-0.1,0.1
					c-0.467,0.567-0.9,1.05-1.3,1.45c-0.033,0-0.05,0.017-0.05,0.05c-0.112,0.154-2.112,1.921-6,5.3C38.289-27.133,39.939-27,41-27
					c0.267,0,1.967-0.283,5.1-0.85c3.233-0.566,4.867-0.85,4.9-0.85c1.2-0.033,2.633-0.183,4.3-0.45c1.767-0.267,3.3-0.583,4.6-0.95
					c1.033-0.267,2.1-0.483,3.2-0.65c0.533-0.067,0.8-0.183,0.8-0.35c0-0.467-0.75-1.133-2.25-2c0.067,0,0.133,0,0.2,0
					c-0.267-0.1-0.517-0.233-0.75-0.4c-3-1.633-5.267-3.917-6.8-6.85c-0.033-0.1-0.066-0.2-0.1-0.3h-0.025
					C54.134-40.75,54.093-40.85,54.05-40.95z M60.85-128.95c-0.934-0.066-1.817-0.066-2.65,0c-1.4-0.333-2.2-0.833-2.4-1.5
					c-0.167-0.466-0.867-0.7-2.1-0.7c-0.267,0-0.567,0-0.9,0c-0.9,0.066-2.033,0.2-3.4,0.4v0.2c1.8,0.233,3.117,0.45,3.95,0.65
					c1.433,0.333,2.05,0.917,1.85,1.75h-1.6c0,0.867-0.233,2.967-0.7,6.3c-0.467,3.333-0.7,5.867-0.7,7.6
					c0.267,2.867,0.4,4.833,0.4,5.9c-0.133-0.367-0.4-0.833-0.8-1.4c-0.4-0.533-0.667-0.8-0.8-0.8c-0.333,0-0.533,0.066-0.6,0.2
					c0,0.8-0.167,1.8-0.5,3c-0.333,1.167-0.5,1.867-0.5,2.1v0.3l0.55-1.25c0.233-0.5,0.65-0.683,1.25-0.55v1
					c-0.934,7.933-1.4,12.867-1.4,14.8c0,1.2,0.133,2.6,0.4,4.2v5.8c-0.833-0.2-1.4-0.783-1.7-1.75
					c-0.233-0.633-0.433-1.167-0.6-1.6c-0.233-0.534-0.4-0.883-0.5-1.05c0.067,0.267,0.133,0.517,0.2,0.75
					c0.867,3.567,1.45,6.033,1.75,7.4c0.566,2.4,0.85,4.35,0.85,5.85c0,1-0.133,2.184-0.4,3.55c-0.3,1.367-0.5,2.316-0.6,2.85h0.4
					c0.333-0.3,0.617-0.767,0.85-1.4c0.433-1.033,0.683-1.633,0.75-1.8c0,0.066,0.033,0.117,0.1,0.15l0.1,0.05
					c0.067,0.8,0.1,2.083,0.1,3.85c0,1.9,0.033,3.35,0.1,4.35c0-0.167,0-0.333,0-0.5c0-0.633,0.1-2.1,0.3-4.4
					c0.2-2.333,0.3-3.8,0.3-4.4l-0.4-6.6c0-3.867,0.167-7.9,0.5-12.1c0-0.167,0-0.333,0-0.5c-0.066-0.3-0.1-0.667-0.1-1.1
					c0-0.066,0-0.133,0-0.2c0-0.6,0.333-2.983,1-7.15c0.667-4.167,1-7.583,1-10.25c0-0.333-0.133-1.667-0.4-4
					c0-1.667,0.383-4,1.15-7c0.6-2.367,1.15-4.167,1.65-5.4c0-0.033,0.117-0.75,0.35-2.15c0.167-0.9,0.483-1.617,0.95-2.15
					C58.9-128.283,59.883-128.717,60.85-128.95z M45-123.15c0.033,0.033,0.05,0.066,0.05,0.1c0.667,3.4,0.917,6.6,0.75,9.6
					c-0.2,3.034-0.183,5.017,0.05,5.95c0.233,0.967,0.45,3.5,0.65,7.6c0.167,4.1,0.217,6.483,0.15,7.15v0.05
					c-0.066,0.5,0.05,1.75,0.35,3.75c0.1,0.767,0.233,1.633,0.4,2.6c0.2-0.8,0.3-1.433,0.3-1.9l-0.3-8c0-1.267,0.1-2.967,0.3-5.1v-1
					c-0.1,0-0.2,0.067-0.3,0.2c0,0.233-0.066,0.467-0.2,0.7c-0.1,0.167-0.167,0.267-0.2,0.3c0-0.4-0.017-1-0.05-1.8
					c-0.034-0.8-0.083-1.816-0.15-3.05c-0.133-2.4-0.2-4.05-0.2-4.95c0-0.933,0.033-2.333,0.1-4.2c0.1-1.867,0.15-3.2,0.15-4
					c0-1.667-0.333-3.383-1-5.15c-0.967-2.567-1.55-4.317-1.75-5.25h-0.3v0.2C43.833-129.217,44.233-127.15,45-123.15z
					 M43.25-135.05c0.033,0.466,0.083,0.833,0.15,1.1c0.033-0.033,0.117-0.066,0.25-0.1c0.3-0.167,0.817-0.5,1.55-1H45
					c0-0.267-0.467-0.233-1.4,0.1C43.5-134.95,43.383-134.983,43.25-135.05z M61.8-135.5c-0.333-0.1-0.7-0.183-1.1-0.25v0.1
					l0.7,0.35C61.533-135.367,61.667-135.433,61.8-135.5z M58.4-136.4c-0.006-0.113-0.04-0.23-0.1-0.35
					c-0.333-0.033-0.733-0.1-1.2-0.2c-0.167,0-0.9,0.017-2.2,0.05c-1.367,0.033-2.333,0.017-2.9-0.05
					c0.033-0.066,0.083-0.15,0.15-0.25c-0.333,0.2-0.65,0.434-0.95,0.7c-0.267,0.233-0.534,0.483-0.8,0.75v0.4
					c0.1-0.033,0.217-0.066,0.35-0.1c1.167-0.2,2.183-0.3,3.05-0.3c1.1,0,1.733,0.017,1.9,0.05c0.433,0.067,1.066,0.317,1.9,0.75
					c0.1,0.367-0.1,0.7-0.6,1v1c1.5-0.833,2.95-1.617,4.35-2.35l-1.45-0.45v0.4c-0.066,0-0.217-0.066-0.45-0.2
					c-0.267-0.133-0.417-0.233-0.45-0.3c-0.067,0.133-0.2,0.233-0.4,0.3c-0.133-0.133-0.2-0.3-0.2-0.5c0-0.067,0-0.167,0-0.3V-136.4
					z M62.25-135.75H62c0.033,0.033,0.067,0.067,0.1,0.1C62.133-135.683,62.183-135.717,62.25-135.75z M65.55-137.45
					c0.167-0.066,0.333-0.133,0.5-0.2H65v0.1L65.55-137.45z M65.05-137.2l-0.15,0.05c0.033,0,0.067,0,0.1,0L65.05-137.2z
					 M64.65-136.95H64.6c-0.067,0-0.1,0.017-0.1,0.05C64.533-136.9,64.583-136.917,64.65-136.95z M63.35-136.3
					c-0.233-0.1-0.4-0.15-0.5-0.15c-0.3,0-0.483,0.034-0.55,0.1c0.2,0.033,0.383,0.133,0.55,0.3
					C63.017-136.15,63.183-136.233,63.35-136.3z M71.65-140.25c-0.133,0.033-0.267,0.067-0.4,0.1
					c-1.202,0.281-2.169,0.506-2.9,0.675c-0.206,0.042-0.389,0.083-0.55,0.125h-0.05c0.367,0.133,0.633,0.3,0.8,0.5
					C69.65-139.35,70.683-139.817,71.65-140.25z M47.3-136.55c0.3-0.2,0.617-0.417,0.95-0.65c0.967-0.6,1.933-1.1,2.9-1.5
					c-0.633,0.034-1.35,0.083-2.15,0.15c-0.367,0.066-1.15,0.417-2.35,1.05c0.056,0.049,0.106,0.099,0.15,0.15
					c0.202,0.189,0.369,0.39,0.5,0.6V-136.55z M46.65-136.05c0.1-0.067,0.217-0.15,0.35-0.25l-0.3-0.15H46v0.1
					c0.167,0,0.317,0.05,0.45,0.15C46.517-136.133,46.583-136.083,46.65-136.05z M45.25-135.1c0.367-0.233,0.8-0.533,1.3-0.9
					c-0.333-0.033-0.816-0.05-1.45-0.05v0.3c0.2,0.067,0.3,0.167,0.3,0.3h-0.6c0.1,0.167,0.217,0.284,0.35,0.35
					C45.183-135.1,45.217-135.1,45.25-135.1z M38.075-135.55c-0.147-0.005-0.297-0.014-0.45-0.025
					c-1.01-0.078-2.235-0.303-3.675-0.675c-0.079-0.015-0.154-0.031-0.225-0.05H33.7c0,0.066,0,0.133,0,0.2
					c0,0.1-0.05,0.25-0.15,0.45c-0.1,0.167-0.183,0.267-0.25,0.3c-0.233-0.233-0.5-0.433-0.8-0.6v0.7c1.3,0.367,2.2,0.6,2.7,0.7
					c1.1,0.066,1.883,0.117,2.35,0.15c0.867,0.033,1.483,0.383,1.85,1.05c1.5,2.533,2.3,3.934,2.4,4.2
					c0.133,0.133,0.267,0.2,0.4,0.2c-0.333-0.667-0.883-2.167-1.65-4.5c-0.167-0.4-0.35-0.783-0.55-1.15
					c-0.233-0.1-0.433-0.283-0.6-0.55l-0.1,0.3h-0.6v-0.4c-0.5,0.267-0.8,0.467-0.9,0.6v-0.1c0.124-0.124,0.208-0.299,0.25-0.525
					c0.025-0.089,0.042-0.181,0.05-0.275H38.075z M20.175-137.675c0.007-0.037,0.016-0.079,0.025-0.125
					c-0.767-0.133-1.617-0.383-2.55-0.75c-1.733-0.667-2.85-1-3.35-1c-0.033,0-0.066,0-0.1,0c0.833,0.233,1.716,0.667,2.65,1.3
					c0.133,0.1,0.267,0.183,0.4,0.25c1.7,1.1,3.083,1.65,4.15,1.65c0.067,0,0.15-0.017,0.25-0.05l-0.85-0.65
					c0.034,0.133,0.034,0.216,0,0.25c-0.1,0.066-0.167,0.117-0.2,0.15c-0.133-0.233-0.233-0.467-0.3-0.7h-0.2
					c-0.067,0.067-0.15,0.117-0.25,0.15c0.104-0.042,0.188-0.133,0.25-0.275C20.13-137.538,20.155-137.604,20.175-137.675z
					 M29.35-136.05c1.167,0.3,2.183,0.566,3.05,0.8c-0.367-0.333-0.7-0.567-1-0.7l0.05,0.15c0.033,0.033,0,0.05-0.1,0.05
					c-0.133,0-0.417-0.167-0.85-0.5c0,0.067,0,0.167,0,0.3h-0.15l-0.2-0.15c-0.133-0.1-0.267-0.15-0.4-0.15
					C29.683-136.25,29.55-136.183,29.35-136.05z M28.75-136.2c0.032,0,0.065,0,0.1,0c-0.033-0.001-0.05-0.018-0.05-0.05L28.75-136.2
					z M26.65-136.75c0.7,0.2,1.383,0.367,2.05,0.5v-0.1c0-0.167-0.034-0.233-0.1-0.2c-0.1-0.034-0.233-0.017-0.4,0.05
					c-0.1,0-0.2-0.083-0.3-0.25H26.65z M23.1-136.7c-0.333,0-0.533-0.05-0.6-0.15l0.15,0.25C22.783-136.6,22.933-136.633,23.1-136.7
					z M22-136.45c0.067,0,0.133-0.017,0.2-0.05c-0.067-0.033-0.133-0.083-0.2-0.15V-136.45z"/>
				<path style="fill-rule:evenodd;clip-rule:evenodd;fill:#1F453E;" d="M33.75-132.6c1.033,0.267,1.75,0.467,2.15,0.6
					c1,0.3,2,0.717,3,1.25h-0.2c-0.333,0-0.883-0.167-1.65-0.5c-0.8-0.333-1.55-0.5-2.25-0.5c-0.167,0-0.517,0.067-1.05,0.2
					c-0.5,0-1.083-0.133-1.75-0.4c-0.867-0.4-2.3-0.733-4.3-1h-1.9v0.4c1.333,0,2.7,0.367,4.1,1.1c1.367,0.733,2.434,1.1,3.2,1.1
					c1.8,0,3.417,0.117,4.85,0.35c1.2,1.033,2.033,1.967,2.5,2.8c1.1,1.9,1.883,5.117,2.35,9.65c0.633,5.867,1.117,13.85,1.45,23.95
					c0.067,1.934,0.117,3.783,0.15,5.55c0,0.267,0,0.533,0,0.8c0,5.067,0.05,7.983,0.15,8.75c0.067,0.533,0.133,1.5,0.2,2.9
					L45-69.95c0,0.4,0.017,0.8,0.05,1.2c0.034,1.7,0.083,3.633,0.15,5.8c0.066,2.1,0.1,6.184,0.1,12.25
					c-0.033,0.333-0.066,0.684-0.1,1.05c-0.333,3.066-0.5,4.767-0.5,5.1c0.191,1.498,0.291,2.798,0.3,3.9c0,0.033,0,0.066,0,0.1
					c0,1.066-0.183,2.25-0.55,3.55c-0.367,1.467-0.817,2.367-1.35,2.7c-0.033,0-0.067,0.017-0.1,0.05
					c-0.167,0.1-0.317,0.283-0.45,0.55c-0.167,0.434-0.316,0.75-0.45,0.95c0.4-0.4,0.833-0.883,1.3-1.45
					c0.033-0.033,0.067-0.066,0.1-0.1v0.1l0.1,0.1c0.367-0.467,0.983-1.4,1.85-2.8c1.033-1.7,1.55-2.717,1.55-3.05
					c0-0.066-0.083-0.3-0.25-0.7c-0.09-0.323-0.207-0.724-0.35-1.2c-0.4-1.3-0.6-2.533-0.6-3.7c-0.267,0.466-0.466,0.8-0.6,1v-1.4
					c0.6-0.566,0.867-1.367,0.8-2.4h0.4c0.133,2.267,0.267,3.934,0.4,5H47c0.3-1.2,0.45-3.383,0.45-6.55
					c0-1.733-0.017-4.35-0.05-7.85c0.934,1.833,1.55,4.633,1.85,8.4c0.1,3.367,0.15,5.067,0.15,5.1c0,0.785-0.183,1.985-0.55,3.6
					c-0.133,0.4-0.283,0.85-0.45,1.35c-0.667,1.667-1,2.55-1,2.65s0.15,0.316,0.45,0.65c0.3,0.267,0.55,0.483,0.75,0.65
					c0.867-0.667,1.433-1,1.7-1c0.333,0,0.55,0.017,0.65,0.05c0.133,0.133,0.283,0.25,0.45,0.35c0.267,0,0.4-0.133,0.4-0.4
					c-0.933-1.867-1.4-2.85-1.4-2.95V-40c0.067,0.067,0.267,0.417,0.6,1.05c0.233,0.434,0.5,0.733,0.8,0.9h0.4
					c-0.034-0.1-0.267-0.967-0.7-2.6h-0.025c-0.24-1.15-0.532-2.566-0.875-4.25c-0.132,1.188-0.232,2.604-0.3,4.25v0.05
					c-0.133,1.6-0.167,2.833-0.1,3.7c-0.4,0-0.733,0.083-1,0.25c-0.034-0.067-0.233-0.267-0.6-0.6c-0.267-0.267-0.4-0.533-0.4-0.8
					c0-0.034,0.35-0.9,1.05-2.6c0.063-0.223,0.13-0.457,0.2-0.7c0.5-1.667,0.867-2.95,1.1-3.85c-0.133-0.566-0.267-1.167-0.4-1.8
					c-1.3-6.7-1.95-10.983-1.95-12.85c0-0.7,0.233-1.283,0.7-1.75c0.333-0.3,0.6-0.583,0.8-0.85c0.233-0.267,0.4-0.5,0.5-0.7v-0.2
					c-0.434,0.033-0.767,0.167-1,0.4c-0.267,0.267-0.5,0.4-0.7,0.4c-0.6,0-0.9-0.233-0.9-0.7c0-0.3,0.133-1,0.4-2.1
					c0.267-1.066,0.4-1.867,0.4-2.4c0-1.2-0.267-3.917-0.8-8.15s-0.8-6.483-0.8-6.75s0.1-0.567,0.3-0.9c0.2-0.367,0.3-0.767,0.3-1.2
					c0.067,0.067,0.133,0.117,0.2,0.15c-0.067-0.233-0.133-0.483-0.2-0.75c0.1,0.167,0.267,0.517,0.5,1.05
					c0.434,0.333,0.8,0.517,1.1,0.55c0.133-0.533,0.2-1.3,0.2-2.3c0-0.767-0.1-2.284-0.3-4.55c-0.2-2.3-0.3-3.917-0.3-4.85
					c0-0.6,0.1-1.7,0.3-3.3c0.2-1.633,0.3-2.667,0.3-3.1c0-1.167-0.133-2-0.4-2.5l-1.25,0.95c0.267-0.333,0.383-0.867,0.35-1.6
					c-0.033-0.633-0.133-1.55-0.3-2.75c0-0.767,0.15-1.583,0.45-2.45c0.3-0.9,0.483-2.083,0.55-3.55c0.033-0.933,0.033-2.167,0-3.7
					c0-0.033,0-0.066,0-0.1c-0.033-0.733-0.067-1.517-0.1-2.35c-0.033-0.7-0.067-1.45-0.1-2.25c0.167,0.433,0.25,1.217,0.25,2.35
					c0,0.3,0,0.583,0,0.85h0.15c0.167-1.1,0.434-2,0.8-2.7c0.267-0.533,0.4-1.367,0.4-2.5c0-1.233-0.15-2.133-0.45-2.7
					c-0.3-0.5-0.883-0.933-1.75-1.3c-0.267-0.1-0.883-0.434-1.85-1c-1-0.533-1.85-0.8-2.55-0.8c0.167-0.233,0.367-0.45,0.6-0.65
					c-0.267-1.3-0.4-2.35-0.4-3.15c0-0.1,0.017-0.2,0.05-0.3c-0.133,0.033-0.217,0.066-0.25,0.1c-0.066-0.267-0.117-0.633-0.15-1.1
					c-0.067-0.034-0.15-0.1-0.25-0.2v0.6h-0.3c0-0.133-0.067-0.2-0.2-0.2c-0.067,0.133-0.15,0.25-0.25,0.35
					c0.333,0.967,0.517,1.55,0.55,1.75c0.133,0.7,0.25,2.067,0.35,4.1c0.2,0.467,0.367,1.066,0.5,1.8c0.3,1.434,0.75,2.667,1.35,3.7
					c-0.767-4-1.167-6.067-1.2-6.2v-0.2h0.3c0.2,0.933,0.783,2.683,1.75,5.25c0.667,1.767,1,3.483,1,5.15c0,0.8-0.05,2.133-0.15,4
					c-0.067,1.867-0.1,3.267-0.1,4.2c0,0.9,0.066,2.55,0.2,4.95c0.067,1.233,0.117,2.25,0.15,3.05c0.033,0.8,0.05,1.4,0.05,1.8
					c0.033-0.033,0.1-0.133,0.2-0.3c0.133-0.233,0.2-0.466,0.2-0.7c0.1-0.133,0.2-0.2,0.3-0.2v1c-0.2,2.133-0.3,3.833-0.3,5.1l0.3,8
					c0,0.467-0.1,1.1-0.3,1.9c-0.167-0.967-0.3-1.833-0.4-2.6c-0.3-2-0.417-3.25-0.35-3.75v-0.05c-0.133-1-0.3-2.167-0.5-3.5
					c-0.6-4.133-0.917-6.3-0.95-6.5c-0.034-0.633-0.184-2.033-0.45-4.2c-0.233-1.733-0.35-3.133-0.35-4.2
					c0-0.333,0.133-1.567,0.4-3.7c0-1.267-0.383-3.9-1.15-7.9H43.6c-0.7-1.5-1.467-3.567-2.3-6.2c-0.9-2.033-2.267-3.3-4.1-3.8
					c-0.667-0.2-2.534-0.95-5.6-2.25c-1.8-0.733-3.45-1.167-4.95-1.3c-0.1,0-0.183-0.017-0.25-0.05c-0.2,0-0.4,0-0.6,0
					c-0.033,0-0.066,0-0.1,0c-0.067,0-0.133,0-0.2,0c-0.367,0.033-0.883,0.117-1.55,0.25c-0.067,0.033-0.133,0.05-0.2,0.05
					c-0.933,0.2-1.65,0.3-2.15,0.3c-0.6,0-1.417-0.317-2.45-0.95c-0.533-0.333-1.167-0.767-1.9-1.3
					c-0.133-0.067-0.267-0.15-0.4-0.25c-0.934-0.633-1.817-1.067-2.65-1.3c-0.451,0.032-1.642,0.215-3.575,0.55
					c-0.078,0.021-0.152,0.037-0.225,0.05c0.141-0.021,0.283-0.037,0.425-0.05c0.25-0.008,0.508,0.008,0.775,0.05
					c1.104,0.134,2.354,0.634,3.75,1.5c2.066,1.267,3.55,1.9,4.45,1.9c0.119,0,0.236,0,0.35,0c0.043,0,0.084,0,0.125,0h0.475
					c2.349,0.003,3.582,0.02,3.7,0.05c0.654,0.17,1.904,0.429,3.75,0.775c0.313,0.053,0.646,0.111,1,0.175
					c2.066,0.367,3.583,0.816,4.55,1.35c0.333,0.267,0.667,0.5,1,0.7C34.45-132.533,34.117-132.567,33.75-132.6z M46.4-64
					c0.033-2.4-0.133-6.1-0.5-11.1c-0.4-4.967-0.65-7.25-0.75-6.85l0.25-1.35c0.194-0.937,0.261-1.604,0.2-2
					c1.6,8.868,2.4,13.918,2.4,15.15c0,0.9-0.283,2.233-0.85,4C46.85-65.25,46.6-64.533,46.4-64z M52.15-137.2
					c0.033-0.066,0.067-0.15,0.1-0.25c0.058-0.092,0.116-0.184,0.175-0.275c0.05-0.075,0.1-0.15,0.15-0.225
					c0.234-0.328,0.476-0.628,0.725-0.9c-0.566,0.333-1.183,0.65-1.85,0.95c-1.9,0.833-3.05,1.417-3.45,1.75
					c-0.5,0.4-1.233,1.383-2.2,2.95c-0.833,1.3-1.383,2.117-1.65,2.45c0.633-0.467,1.4-0.733,2.3-0.8c0.333,0,0.683,0.017,1.05,0.05
					c0.367-0.133,0.8-0.283,1.3-0.45c1.567-0.533,2.4-0.8,2.5-0.8c2.4,1.333,4.133,2,5.2,2c0.7,0,1.283-0.133,1.75-0.4
					c0.767-0.467,1.217-0.733,1.35-0.8c0,0.367-0.017,0.684-0.05,0.95l0.05-0.05c0.5,0.267,1.083,0.083,1.75-0.55
					c0.333-0.333,0.683-0.717,1.05-1.15c0.267-0.267,0.7-0.608,1.3-1.025c0.151-0.103,0.309-0.211,0.475-0.325
					c0.541-0.348,1.183-0.74,1.925-1.175c0.682-0.406,1.449-0.847,2.3-1.325l0.05-0.05c-0.532,0.156-1.065,0.314-1.6,0.475
					c-0.819,0.252-1.636,0.51-2.45,0.775c-3.833,1.2-6.733,2.283-8.7,3.25c-0.5,0-0.934-0.133-1.3-0.4c-0.4-0.267-0.6-0.6-0.6-1
					v-1.25c-0.7,0.5-1.7,0.9-3,1.2c-0.667,0.133-1.216,0.283-1.65,0.45c-0.133,0.033-0.25,0.066-0.35,0.1c-0.433-0.1-1.1-0.2-2-0.3
					l1.8-1.8l1.3,0.8c0.434,0,0.783-0.05,1.05-0.15c0.066-0.033,0.483-0.25,1.25-0.65h1.5c-0.267-0.267-0.8-0.4-1.6-0.4
					c-0.533,0-1,0.066-1.4,0.2l0.05-0.1c-0.133,0.034-0.25,0.067-0.35,0.1v-0.4c0.267-0.267,0.533-0.517,0.8-0.75
					C51.5-136.767,51.817-137,52.15-137.2z M69.05-130c0.867-0.5,1.917-0.817,3.15-0.95c1.14-0.126,3.124-0.193,5.95-0.2
					c0.148,0,0.298,0,0.45,0c-0.1-0.233-0.25-0.45-0.45-0.65c-7.367,0.367-11.05,0.783-11.05,1.25c-0.067,0-0.083-0.05-0.05-0.15
					c0.1-0.033,0.267-0.1,0.5-0.2c0.367-0.167,0.55-0.367,0.55-0.6c0-0.033-0.067-0.117-0.2-0.25s-0.267-0.2-0.4-0.2
					c-0.167,0-0.283,0.083-0.35,0.25c-0.033,0.167-0.15,0.25-0.35,0.25c-0.066,0-0.466-0.133-1.2-0.4c-0.733,0-1.767,0.167-3.1,0.5
					c-1.333,0.333-2.183,0.5-2.55,0.5c-0.167,0-0.3-0.033-0.4-0.1c-0.033,0.233-0.083,0.434-0.15,0.6c0.9,0,2.817,0.067,5.75,0.2
					C66.483-130.083,67.783-130.033,69.05-130z"/>
				<path style="fill-rule:evenodd;clip-rule:evenodd;fill:#163A34;" d="M54.05-40.95c-1.6-4.733-2.417-11-2.45-18.8
					c-0.067-1-0.1-2.45-0.1-4.35c0-1.767-0.033-3.05-0.1-3.85L51.3-68c-0.066-0.033-0.1-0.083-0.1-0.15
					c-0.067,0.167-0.317,0.767-0.75,1.8c-0.233,0.633-0.517,1.1-0.85,1.4h-0.4c0.1-0.533,0.3-1.483,0.6-2.85
					c0.267-1.367,0.4-2.55,0.4-3.55c0-1.5-0.284-3.45-0.85-5.85c-0.3-1.367-0.883-3.833-1.75-7.4c-0.067-0.033-0.133-0.083-0.2-0.15
					c0,0.433-0.1,0.833-0.3,1.2c-0.2,0.333-0.3,0.633-0.3,0.9s0.267,2.517,0.8,6.75s0.8,6.95,0.8,8.15c0,0.533-0.133,1.333-0.4,2.4
					c-0.267,1.1-0.4,1.8-0.4,2.1c0,0.467,0.3,0.7,0.9,0.7c0.2,0,0.433-0.133,0.7-0.4c0.233-0.233,0.566-0.367,1-0.4v0.2
					c-0.1,0.2-0.267,0.433-0.5,0.7c-0.2,0.267-0.467,0.55-0.8,0.85c-0.467,0.467-0.7,1.05-0.7,1.75c0,1.867,0.65,6.15,1.95,12.85
					c0.133,0.633,0.267,1.233,0.4,1.8c0,0.1,0.017,0.2,0.05,0.3c0.343,1.684,0.635,3.1,0.875,4.25H51.5
					c0.433,1.633,0.667,2.5,0.7,2.6h-0.4c-0.3-0.167-0.566-0.467-0.8-0.9c-0.333-0.633-0.533-0.983-0.6-1.05v0.7
					c0,0.1,0.467,1.083,1.4,2.95c0,0.267-0.133,0.4-0.4,0.4c-0.167-0.1-0.316-0.216-0.45-0.35c-0.1-0.034-0.317-0.05-0.65-0.05
					c-0.267,0-0.833,0.333-1.7,1c-0.2-0.167-0.45-0.383-0.75-0.65c-0.3-0.333-0.45-0.55-0.45-0.65s0.333-0.983,1-2.65
					c0.167-0.5,0.317-0.95,0.45-1.35c0.367-1.615,0.55-2.815,0.55-3.6c0-0.033-0.05-1.733-0.15-5.1c-0.3-3.767-0.917-6.566-1.85-8.4
					c0.033,3.5,0.05,6.117,0.05,7.85c0,3.167-0.15,5.35-0.45,6.55h-0.2c-0.133-1.066-0.267-2.733-0.4-5H46
					c0.067,1.033-0.2,1.833-0.8,2.4v1.4c0.133-0.2,0.333-0.534,0.6-1c0,1.167,0.2,2.4,0.6,3.7c0.143,0.477,0.26,0.877,0.35,1.2
					c0.167,0.4,0.25,0.633,0.25,0.7c0,0.333-0.517,1.35-1.55,3.05c-0.867,1.4-1.483,2.333-1.85,2.8l-0.1-0.1v0.5
					c-0.267,0.633-0.4,1.15-0.4,1.55c0,0.2,0.15,0.3,0.45,0.3c0.3,0,0.967-0.9,2-2.7c0.5-0.867,0.867-1.617,1.1-2.25
					c-0.1,0.833-0.133,1.483-0.1,1.95c0.067,1.3,0.883,1.833,2.45,1.6h0.35v-0.1c0.333,0,0.617,0.033,0.85,0.1H52v-1.25l-0.2-0.65
					v-0.45c0.267,0.5,0.483,0.9,0.65,1.2c0.3,0.533,0.966,0.8,2,0.8L56-33.75c-0.3-0.267-0.617-0.783-0.95-1.55
					c-0.1-0.167-0.183-0.35-0.25-0.55v-0.1c0.133,0.2,0.383,0.434,0.75,0.7c0.434,0.3,0.784,0.417,1.05,0.35v-0.4
					c-1.033-0.6-2.1-1.817-3.2-3.65c-0.333-0.533-0.633-1.1-0.9-1.7h-0.025c-0.512-1.492-0.97-3.059-1.375-4.7
					c-0.1-0.4-0.184-0.8-0.25-1.2c-0.2-1.034-0.35-2.2-0.45-3.5c-0.133-1.2-0.233-2.5-0.3-3.9c-0.033-1.367-0.133-2.833-0.3-4.4
					l-0.1-4.1c0.167,2.367,0.316,4.217,0.45,5.55c0.033,0.4,0.083,0.783,0.15,1.15c0.233,2.033,0.567,4.167,1,6.4
					c0.2,0.934,0.5,2.117,0.9,3.55c0.466,1.466,0.767,2.45,0.9,2.95C53.267-42.25,53.583-41.617,54.05-40.95z M60.85-128.95
					c0.566-0.167,1.133-0.25,1.7-0.25c1.633,0.167,2.85,0.25,3.65,0.25c0.8,0,1.617-0.267,2.45-0.8c0.133-0.067,0.267-0.15,0.4-0.25
					c-1.267-0.033-2.566-0.083-3.9-0.15c-2.933-0.133-4.85-0.2-5.75-0.2c0.067-0.167,0.117-0.367,0.15-0.6H59.5l0.05-0.05
					c0.034-0.267,0.05-0.583,0.05-0.95c-0.133,0.067-0.583,0.333-1.35,0.8c-0.467,0.267-1.05,0.4-1.75,0.4c-1.067,0-2.8-0.667-5.2-2
					c-0.1,0-0.933,0.267-2.5,0.8c-0.5,0.167-0.933,0.317-1.3,0.45c-0.757,0.23-1.257,0.347-1.5,0.35
					c0.101,0.002,0.167,0.035,0.2,0.1v0.1c0.633,0.1,1.8,0.6,3.5,1.5c1.8,0.9,2.7,1.5,2.7,1.8c0,0.633-0.133,1.25-0.4,1.85
					c-0.3,0.6-0.5,1.017-0.6,1.25c0-0.133-0.05-0.2-0.15-0.2c0.033,1.133-0.217,2.55-0.75,4.25c-0.8,2.567-1.233,4.017-1.3,4.35H49
					c-0.233-0.5-0.367-0.934-0.4-1.3c0.033,1.534,0.033,2.767,0,3.7c-0.067,1.467-0.25,2.65-0.55,3.55
					c-0.3,0.867-0.45,1.684-0.45,2.45c0.167,1.2,0.267,2.117,0.3,2.75c0.033,0.733-0.083,1.267-0.35,1.6l1.25-0.95
					c0.267,0.5,0.4,1.333,0.4,2.5c0,0.434-0.1,1.467-0.3,3.1c-0.2,1.6-0.3,2.7-0.3,3.3c0,0.934,0.1,2.55,0.3,4.85
					c0.2,2.267,0.3,3.783,0.3,4.55c0,1-0.067,1.767-0.2,2.3c-0.3-0.033-0.667-0.217-1.1-0.55c0.167,0.433,0.367,0.966,0.6,1.6
					c0.3,0.967,0.867,1.55,1.7,1.75v-5.8c-0.267-1.6-0.4-3-0.4-4.2c0-1.933,0.467-6.867,1.4-14.8v-1
					c-0.6-0.133-1.017,0.05-1.25,0.55l-0.55,1.25v-0.3c0-0.233,0.167-0.933,0.5-2.1c0.333-1.2,0.5-2.2,0.5-3
					c0.067-0.133,0.267-0.2,0.6-0.2c0.133,0,0.4,0.267,0.8,0.8c0.4,0.567,0.667,1.033,0.8,1.4c0-1.066-0.133-3.033-0.4-5.9
					c0-1.733,0.233-4.267,0.7-7.6c0.467-3.333,0.7-5.433,0.7-6.3h1.6c0.2-0.833-0.417-1.417-1.85-1.75
					c-0.833-0.2-2.15-0.417-3.95-0.65v-0.2c1.367-0.2,2.5-0.333,3.4-0.4c0.333,0,0.633,0,0.9,0c1.233,0,1.933,0.233,2.1,0.7
					c0.2,0.667,1,1.167,2.4,1.5C59.033-129.017,59.917-129.017,60.85-128.95z M43.15-128.65c0,0.033,0,0.066,0,0.1
					c0.1,1.867,0.317,3.333,0.65,4.4v1.4h-0.15c0.767,4,1.15,6.633,1.15,7.9c-0.267,2.133-0.4,3.367-0.4,3.7
					c0,1.066,0.117,2.467,0.35,4.2c0.267,2.167,0.417,3.567,0.45,4.2c0.033,0.2,0.35,2.367,0.95,6.5c0.2,1.333,0.367,2.5,0.5,3.5
					c0.067-0.667,0.017-3.05-0.15-7.15c-0.2-4.1-0.417-6.633-0.65-7.6c-0.233-0.933-0.25-2.917-0.05-5.95
					c0.167-3-0.083-6.2-0.75-9.6c0-0.034-0.017-0.067-0.05-0.1c-0.6-1.033-1.05-2.267-1.35-3.7
					C43.517-127.583,43.35-128.183,43.15-128.65z M48.6-117.55c0-0.233,0.017-0.7,0.05-1.4c0-0.267,0-0.55,0-0.85
					c0-1.133-0.083-1.917-0.25-2.35c0.033,0.8,0.067,1.55,0.1,2.25C48.533-119.067,48.567-118.283,48.6-117.55z"/>
				<path style="fill-rule:evenodd;clip-rule:evenodd;fill:#2A5950;" d="M50.6-44.9c-0.033-0.1-0.05-0.2-0.05-0.3
					c-0.233,0.9-0.6,2.184-1.1,3.85c-0.07,0.244-0.137,0.477-0.2,0.7c-0.7,1.7-1.05,2.566-1.05,2.6c0,0.267,0.133,0.533,0.4,0.8
					c0.367,0.333,0.566,0.533,0.6,0.6c0.267-0.167,0.6-0.25,1-0.25c-0.067-0.867-0.034-2.1,0.1-3.7v-0.05
					C50.368-42.295,50.468-43.712,50.6-44.9z"/>
				<path style="fill-rule:evenodd;clip-rule:evenodd;fill:#2B5951;" d="M46.4-64c0.2-0.533,0.45-1.25,0.75-2.15
					c0.567-1.767,0.85-3.1,0.85-4c0-1.231-0.8-6.282-2.4-15.15c0.061,0.396-0.006,1.063-0.2,2l-0.25,1.35
					c0.1-0.4,0.35,1.883,0.75,6.85C46.267-70.1,46.433-66.4,46.4-64z M47.5-131.5c-0.367-0.033-0.717-0.05-1.05-0.05
					c-0.9,0.066-1.667,0.333-2.3,0.8c-0.066,0.1-0.117,0.167-0.15,0.2v-0.05c-0.233,0.2-0.433,0.417-0.6,0.65
					c0.7,0,1.55,0.267,2.55,0.8c0.966,0.566,1.583,0.9,1.85,1c0.867,0.367,1.45,0.8,1.75,1.3c0.3,0.567,0.45,1.467,0.45,2.7
					c0,1.133-0.133,1.967-0.4,2.5c-0.367,0.7-0.633,1.6-0.8,2.7h-0.15c-0.033,0.7-0.05,1.167-0.05,1.4c0,0.033,0,0.066,0,0.1
					c0.033,0.367,0.167,0.8,0.4,1.3h0.2c0.066-0.333,0.5-1.783,1.3-4.35c0.533-1.7,0.783-3.117,0.75-4.25c0.1,0,0.15,0.067,0.15,0.2
					c0.1-0.233,0.3-0.65,0.6-1.25c0.267-0.6,0.4-1.217,0.4-1.85c0-0.3-0.9-0.9-2.7-1.8c-1.7-0.9-2.867-1.4-3.5-1.5v-0.1
					c-0.033-0.065-0.099-0.098-0.2-0.1C46.243-131.153,46.743-131.27,47.5-131.5z M53.8-134.8v-0.15
					c-0.033-0.066-0.066-0.133-0.1-0.2h-1.5c-0.767,0.4-1.184,0.617-1.25,0.65c-0.267,0.1-0.617,0.15-1.05,0.15l-1.3-0.8l-1.8,1.8
					c0.9,0.1,1.567,0.2,2,0.3c0.1-0.034,0.217-0.067,0.35-0.1c0.434-0.167,0.983-0.317,1.65-0.45C52.1-133.9,53.1-134.3,53.8-134.8z
					"/>
				<path style="fill-rule:evenodd;clip-rule:evenodd;fill:#193E37;" d="M26.65-136.3c1.5,0.133,3.15,0.566,4.95,1.3
					c3.066,1.3,4.933,2.05,5.6,2.25c1.833,0.5,3.2,1.767,4.1,3.8c0.833,2.633,1.6,4.7,2.3,6.2h0.05h0.15v-1.4
					c-0.333-1.067-0.55-2.533-0.65-4.4c0-0.034,0-0.067,0-0.1c-0.1-2.033-0.217-3.4-0.35-4.1c-0.033-0.2-0.216-0.783-0.55-1.75
					c-0.033-0.033-0.067-0.1-0.1-0.2c-0.033-0.033-0.05-0.1-0.05-0.2c-0.033,0-0.067-0.017-0.1-0.05c-0.1-0.066-0.3-0.133-0.6-0.2
					v0.4h-0.2c-0.167-0.167-0.3-0.267-0.4-0.3v0.3c0.1,0.033,0.217,0.1,0.35,0.2c0.1,0.133,0.15,0.233,0.15,0.3
					c-0.333,0-0.633-0.167-0.9-0.5v0.3c-0.167,0-0.3-0.05-0.4-0.15c0.2,0.367,0.383,0.75,0.55,1.15
					c0.767,2.333,1.317,3.833,1.65,4.5c-0.133,0-0.267-0.066-0.4-0.2c-0.1-0.267-0.9-1.667-2.4-4.2
					c-0.367-0.667-0.983-1.017-1.85-1.05c-0.466-0.033-1.25-0.083-2.35-0.15c-0.5-0.1-1.4-0.333-2.7-0.7c-0.033,0-0.067,0-0.1,0
					c-0.867-0.233-1.883-0.5-3.05-0.8c-0.167-0.034-0.333-0.083-0.5-0.15c-0.035,0-0.068,0-0.1,0c-0.033,0-0.05-0.017-0.05-0.05
					c-0.667-0.133-1.35-0.3-2.05-0.5H26.3v0.2L26.65-136.3z M47-136.3c-0.133,0.1-0.25,0.183-0.35,0.25l-0.1,0.05
					c-0.5,0.367-0.933,0.667-1.3,0.9l-0.05,0.05c-0.733,0.5-1.25,0.833-1.55,1c-0.033,0.1-0.05,0.2-0.05,0.3
					c0,0.8,0.133,1.85,0.4,3.15v0.05c0.033-0.034,0.083-0.1,0.15-0.2c0.267-0.333,0.817-1.15,1.65-2.45
					c0.967-1.566,1.7-2.55,2.2-2.95c0.4-0.333,1.55-0.917,3.45-1.75c0.667-0.3,1.283-0.617,1.85-0.95h-0.05
					c-0.584,0.035-1.285,0.085-2.1,0.15c-0.967,0.4-1.933,0.9-2.9,1.5c-0.333,0.233-0.65,0.45-0.95,0.65
					C47.2-136.45,47.1-136.367,47-136.3z M68.45-136.65c3.066-1.733,4.983-2.7,5.75-2.9c0.466-0.133,2.233-0.267,5.3-0.4
					c1.777-0.087,3.502-0.604,5.175-1.55c0.244-0.145,0.486-0.294,0.725-0.45c-0.052,0.006-0.111,0.015-0.175,0.025
					c-0.897,0.098-2.689,0.256-5.375,0.475c-1.5,0.133-2.65,0.25-3.45,0.35c-0.566,0.067-0.967,0.083-1.2,0.05
					c-0.8,0.133-1.983,0.4-3.55,0.8c-0.967,0.433-2,0.9-3.1,1.4c0,0.067,0.017,0.117,0.05,0.15c0.2,0.4,0.3,0.617,0.3,0.65
					c-0.233,0.2-0.433,0.3-0.6,0.3c-0.267,0-0.533-0.067-0.8-0.2c0,0.367-0.167,0.567-0.5,0.6c0.067-0.1-0.033-0.233-0.3-0.4
					l-0.1,0.1v0.2c-0.002-0.1-0.052-0.15-0.15-0.15c-0.034-0.033-0.15-0.05-0.35-0.05h-0.05c-0.167,0.066-0.333,0.133-0.5,0.2
					c-0.167,0.1-0.333,0.184-0.5,0.25L65-137.15c-0.133,0.066-0.25,0.133-0.35,0.2c-0.066,0.034-0.117,0.05-0.15,0.05v0.05h0.2
					c0,0.033,0,0.1,0,0.2c-0.034,0.033-0.2,0.15-0.5,0.35c-0.167,0.1-0.233,0.2-0.2,0.3c-0.267-0.133-0.483-0.233-0.65-0.3
					c-0.167,0.066-0.333,0.15-0.5,0.25v0.05c0.2,0.2,0.383,0.317,0.55,0.35h-0.1l-1.05-0.1c-0.067,0.033-0.117,0.067-0.15,0.1
					c-0.1,0.066-0.2,0.117-0.3,0.15c-0.133,0.067-0.267,0.133-0.4,0.2h-0.05c-1.4,0.733-2.85,1.517-4.35,2.35v-1
					c0.5-0.3,0.7-0.633,0.6-1c-0.833-0.433-1.467-0.683-1.9-0.75c-0.167-0.033-0.8-0.05-1.9-0.05c-0.867,0-1.883,0.1-3.05,0.3
					l-0.05,0.1c0.4-0.133,0.867-0.2,1.4-0.2c0.8,0,1.333,0.133,1.6,0.4c0.033,0.066,0.066,0.133,0.1,0.2v0.15v1.25
					c0,0.4,0.2,0.733,0.6,1c0.367,0.267,0.8,0.4,1.3,0.4c1.966-0.967,4.867-2.05,8.7-3.25c0.814-0.265,1.631-0.523,2.45-0.775
					C67.385-136.336,67.918-136.494,68.45-136.65z M22-136.45c-0.133,0.034-0.25,0.05-0.35,0.05c-0.1,0.033-0.183,0.05-0.25,0.05
					c-1.066,0-2.45-0.55-4.15-1.65c0.733,0.533,1.367,0.967,1.9,1.3c1.033,0.633,1.85,0.95,2.45,0.95c0.5,0,1.217-0.1,2.15-0.3
					c0.067,0,0.133-0.017,0.2-0.05c0.667-0.133,1.183-0.217,1.55-0.25l-0.7-0.4v0.4h-0.2l-0.4-0.4c-0.133,0.3-0.217,0.517-0.25,0.65
					c0-0.3-0.184-0.483-0.55-0.55c-0.1,0-0.2-0.017-0.3-0.05c-0.167,0.067-0.317,0.1-0.45,0.1c-0.167,0.067-0.316,0.1-0.45,0.1
					C22.133-136.467,22.067-136.45,22-136.45z M26.4-136.35c-0.167-0.066-0.4-0.2-0.7-0.4v0.1c0.033,0.033,0.066,0.133,0.1,0.3
					C26-136.35,26.2-136.35,26.4-136.35z"/>
				<path style="fill-rule:evenodd;clip-rule:evenodd;fill:#17322D;" d="M78.15-131.8c-0.467-0.333-1.133-0.55-2-0.65
					c-0.967-0.133-2.083-0.1-3.35,0.1c-1.033,0.167-2.05,0.083-3.05-0.25c-1.167-0.367-1.95-0.55-2.35-0.55
					c-0.6,0-1.433,0.117-2.5,0.35c-0.767,0.2-1.6,0.216-2.5,0.05c-0.367,0.433-0.717,0.817-1.05,1.15
					c-0.667,0.633-1.25,0.817-1.75,0.55L59.55-131l-0.05,0.05h0.05c0.1,0.067,0.233,0.1,0.4,0.1c0.367,0,1.216-0.167,2.55-0.5
					c1.333-0.333,2.367-0.5,3.1-0.5c0.733,0.267,1.133,0.4,1.2,0.4c0.2,0,0.317-0.083,0.35-0.25c0.067-0.167,0.184-0.25,0.35-0.25
					c0.133,0,0.267,0.067,0.4,0.2s0.2,0.217,0.2,0.25c0,0.233-0.184,0.433-0.55,0.6c-0.233,0.1-0.4,0.167-0.5,0.2
					c-0.033,0.1-0.017,0.15,0.05,0.15C67.1-131.017,70.783-131.433,78.15-131.8z M25.8-132.95h1.9c2,0.267,3.433,0.6,4.3,1
					c0.667,0.267,1.25,0.4,1.75,0.4c0.533-0.133,0.883-0.2,1.05-0.2c0.7,0,1.45,0.167,2.25,0.5c0.767,0.333,1.317,0.5,1.65,0.5h0.2
					c-1-0.533-2-0.95-3-1.25c-0.4-0.133-1.117-0.333-2.15-0.6c-0.133-0.033-0.267-0.05-0.4-0.05c-2.2-0.2-3.65-0.367-4.35-0.5h-0.95
					H25.8V-132.95z"/>
				<path style="fill-rule:evenodd;clip-rule:evenodd;fill-opacity:0.451;" d="M62.4-132.75c0.9,0.167,1.733,0.15,2.5-0.05
					c1.067-0.233,1.9-0.35,2.5-0.35c0.4,0,1.184,0.183,2.35,0.55c1,0.333,2.017,0.417,3.05,0.25c1.267-0.2,2.383-0.233,3.35-0.1
					c0.867,0.1,1.533,0.317,2,0.65c0.2,0.2,0.35,0.417,0.45,0.65h0.95l0.05-0.3c0-0.061-0.008-0.111-0.025-0.15
					c-0.5-0.268-0.966-0.501-1.4-0.7c-0.179-0.077-0.354-0.143-0.525-0.2c-0.867-0.267-1.367-0.4-1.5-0.4c-0.167,0-0.55,0-1.15,0
					c-1,0.1-2.15,0.15-3.45,0.15c-0.933,0-1.683-0.15-2.25-0.45c-0.434-0.217-1.317-0.325-2.65-0.325l0.75-0.025
					c-0.032-0.033-0.065-0.049-0.1-0.05l-1.3,0.1c-0.353,0.029-0.886,0.162-1.6,0.4c-0.033,0-0.3-0.133-0.8-0.4
					c0-0.086,0.033-0.178,0.1-0.275C63.1-133.358,62.667-133.017,62.4-132.75z M67.8-139.35c0.161-0.042,0.345-0.083,0.55-0.125
					c0.731-0.168,1.698-0.394,2.9-0.675c0.133-0.033,0.267-0.067,0.4-0.1c1.567-0.4,2.75-0.667,3.55-0.8
					c0.233,0.033,0.633,0.017,1.2-0.05c0.8-0.1,1.95-0.217,3.45-0.35c2.686-0.218,4.478-0.377,5.375-0.475
					c0.263-0.117,0.404-0.175,0.425-0.175c0.146-0.029,0.354-0.071,0.625-0.125c0.041-0.008,0.082-0.016,0.125-0.025
					c0.267-0.067,0.417-0.183,0.45-0.35h-0.5c-2.767,0.367-4.3,0.55-4.6,0.55c-0.733,0.066-1.733,0.216-3,0.45
					c-0.833,0.167-1.25,0.2-1.25,0.1h0.1l-1.6-0.1c-0.567,0-1.083,0.083-1.55,0.25c-0.633,0.233-1.367,0.417-2.2,0.55
					c-1.7,0.267-3.267,0.667-4.7,1.2v0.05L67.8-139.35z M51.15-138.7c0.815-0.065,1.516-0.115,2.1-0.15
					c0.042-0.038,0.075-0.087,0.1-0.15H53.3c-0.416-0.092-0.899-0.125-1.45-0.1c-0.551,0.021-1.368,0.097-2.45,0.225
					c-1.083,0.137-1.8,0.27-2.15,0.4c-0.466,0.183-0.816,0.375-1.05,0.575c-0.056,0.047-0.106,0.097-0.15,0.15
					c0.067,0.1,0.167,0.167,0.3,0.2c0.2,0.066,0.333,0.133,0.4,0.2h0.05c-0.043-0.051-0.094-0.101-0.15-0.15
					c1.2-0.633,1.983-0.983,2.35-1.05C49.8-138.617,50.517-138.667,51.15-138.7z M52.15-137.2c-0.066,0.1-0.117,0.184-0.15,0.25
					c0.567,0.067,1.533,0.083,2.9,0.05c1.3-0.033,2.033-0.05,2.2-0.05c0.467,0.1,0.867,0.167,1.2,0.2
					c0.061,0.12,0.094,0.237,0.1,0.35c0.167-0.116,0.25-0.249,0.25-0.4c0-0.233-0.183-0.4-0.55-0.5
					c-0.569-0.065-1.094-0.099-1.575-0.1c-0.479-0.007-1.362,0.001-2.65,0.025c-1.021,0.023-1.504-0.094-1.45-0.35
					c-0.059,0.091-0.117,0.183-0.175,0.275C52.217-137.35,52.183-137.267,52.15-137.2z M28.2-134.725
					c0.896,0.313,1.821,0.58,2.775,0.8c0.958,0.23,1.616,0.505,1.975,0.825c0.362,0.31-1.129,0.259-4.475-0.15
					c-0.169,0.032-0.311,0.065-0.425,0.1H29c0.7,0.133,2.15,0.3,4.35,0.5c0.133,0,0.267,0.017,0.4,0.05c0.367,0.033,0.7,0.067,1,0.1
					c-0.333-0.2-0.667-0.433-1-0.7c-0.967-0.533-2.483-0.983-4.55-1.35C28.847-134.614,28.513-134.672,28.2-134.725z M10.625-139
					c1.933-0.334,3.125-0.518,3.575-0.55c0.033,0,0.066,0,0.1,0c0.5,0,1.617,0.333,3.35,1c0.934,0.367,1.783,0.617,2.55,0.75
					c-0.01,0.046-0.018,0.088-0.025,0.125c0.025-0.007,0.092-0.066,0.2-0.175c0.103-0.106-0.223-0.339-0.975-0.7
					c-0.746-0.363-1.954-0.672-3.625-0.925c-1.679-0.251-2.604-0.326-2.775-0.225c-0.233,0.133-0.65,0.25-1.25,0.35
					c-0.4,0.067-0.867,0.1-1.4,0.1L9-139.2v0.1v0.05L10.625-139z M33.725-136.3c0.071,0.019,0.146,0.035,0.225,0.05
					c1.439,0.372,2.665,0.597,3.675,0.675c0.153,0.012,0.303,0.02,0.45,0.025c0.34-0.167,0.432-0.25,0.275-0.25l-4.825-0.7
					c0.039,0.012,0.064,0.028,0.075,0.05C33.632-136.402,33.673-136.352,33.725-136.3z"/>
				<path style="fill-rule:evenodd;clip-rule:evenodd;fill-opacity:0.2;" d="M78.175-132.3c-0.821-0.416-1.496-0.691-2.025-0.825
					c-0.536-0.136-1.453-0.153-2.75-0.05c-1.289,0.103-2.681-0.047-4.175-0.45c-1.502-0.402-2.652-0.561-3.45-0.475
					c-0.792,0.093-0.934-0.049-0.425-0.425c0.514-0.379,0.764-0.629,0.75-0.75c-0.743,0.435-1.384,0.827-1.925,1.175
					c-0.166,0.114-0.324,0.222-0.475,0.325c-0.067,0.097-0.1,0.188-0.1,0.275c0.5,0.267,0.767,0.4,0.8,0.4
					c0.714-0.238,1.248-0.371,1.6-0.4l1.3-0.1c0.035,0.001,0.068,0.018,0.1,0.05l-0.75,0.025c1.333,0,2.216,0.108,2.65,0.325
					c0.567,0.3,1.317,0.45,2.25,0.45c1.3,0,2.45-0.05,3.45-0.15c0.6,0,0.983,0,1.15,0c0.133,0,0.633,0.133,1.5,0.4
					C77.821-132.443,77.996-132.376,78.175-132.3z M53.25-138.85h0.05c-0.249,0.272-0.491,0.572-0.725,0.9
					c-0.051,0.075-0.101,0.15-0.15,0.225c-0.054,0.256,0.429,0.373,1.45,0.35c1.288-0.023,2.171-0.032,2.65-0.025
					c0.481,0.001,1.006,0.035,1.575,0.1c0.367,0.1,0.55,0.267,0.55,0.5c0,0.151-0.083,0.284-0.25,0.4v0.05
					c0.293-0.065,0.593-0.166,0.9-0.3c0.037-0.6-1.004-0.933-3.125-1c-2.128-0.067-3.12-0.225-2.975-0.475
					c0.145-0.25,0.361-0.433,0.65-0.55c0.29-0.117,0.432-0.259,0.425-0.425c-0.001-0.168-0.659-0.268-1.975-0.3
					c-1.316-0.03-2.391,0.07-3.225,0.3c-0.838,0.229-1.447,0.437-1.825,0.625c0.35-0.13,1.067-0.263,2.15-0.4
					c1.083-0.128,1.899-0.204,2.45-0.225c0.551-0.025,1.034,0.008,1.45,0.1h0.05C53.325-138.938,53.292-138.888,53.25-138.85z
					 M86.275-142.225c0.15,0.05,0.425,0.042,0.825-0.025c0.367-0.1,0.617-0.267,0.75-0.5c-0.233-0.167-0.5-0.25-0.8-0.25l-0.45,0.1
					c-0.133-0.1-0.6-0.15-1.4-0.15c-0.567,0-1.684,0.15-3.35,0.45c-1.633,0.333-2.75,0.5-3.35,0.5c-0.6-0.133-1.033-0.2-1.3-0.2
					l-4.4,0.75c-1.233,0.2-2.267,0.4-3.1,0.6c-1.567,0.4-2.35,0.75-2.35,1.05l0.2,0.35v-0.05c1.434-0.533,3-0.933,4.7-1.2
					c0.833-0.133,1.567-0.317,2.2-0.55c0.466-0.167,0.983-0.25,1.55-0.25l1.6,0.1h-0.1c0,0.1,0.417,0.067,1.25-0.1
					c1.267-0.233,2.267-0.383,3-0.45c0.3,0,1.833-0.184,4.6-0.55h0.5c-0.033,0.167-0.184,0.283-0.45,0.35
					C86.357-142.241,86.315-142.233,86.275-142.225z M28.2-134.725c-1.846-0.346-3.096-0.604-3.75-0.775
					c-0.119-0.03-1.352-0.046-3.7-0.05c1.094,0.025,1.994,0.108,2.7,0.25c0.5,0.1,1.2,0.267,2.1,0.5c3.034,0.633,4.7,0.966,5,1
					l-0.05,0.15c-0.884,0.147-1.559,0.281-2.025,0.4c3.346,0.409,4.837,0.459,4.475,0.15c-0.359-0.32-1.018-0.595-1.975-0.825
					C30.021-134.145,29.096-134.412,28.2-134.725z M9-139.1v-0.1l1.35-0.05c0.533,0,1-0.033,1.4-0.1c0.6-0.1,1.017-0.217,1.25-0.35
					c0.171-0.101,1.096-0.026,2.775,0.225c1.671,0.253,2.879,0.562,3.625,0.925c0.752,0.36,1.078,0.594,0.975,0.7
					c-0.108,0.109-0.175,0.168-0.2,0.175c-0.02,0.07-0.045,0.137-0.075,0.2l0.7-0.275c0.261-0.235,0.027-0.501-0.7-0.8
					c-0.729-0.291-1.221-0.491-1.475-0.6c-0.251-0.109-1.184-0.334-2.8-0.675c-1.617-0.347-2.576-0.521-2.875-0.525
					c-1.333,0.434-2.1,0.667-2.3,0.7c-0.833,0.2-1.633,0.3-2.4,0.3v0.05C8.383-139.167,8.633-139.1,9-139.1z M33.525-136.5
					l4.825,0.7c0.157,0,0.065,0.083-0.275,0.25H38.1c-0.009,0.094-0.025,0.186-0.05,0.275c0.407-0.209,0.874-0.384,1.4-0.525
					c0.517-0.143,0.583-0.251,0.2-0.325c-0.374-0.076-1.516-0.193-3.425-0.35c-1.917-0.151-3.017-0.235-3.3-0.25l0.075,0.05
					c0.285,0.103,0.452,0.161,0.5,0.175H33.525z"/>
			</g>
		</g>
		<g>
			<g>
				<path style="fill-rule:evenodd;clip-rule:evenodd;fill:#153A34;" d="M46.2-4.55l0.9,0.2c0.433,0,1.867-0.183,4.3-0.55
					c1.767-0.233,4.067-0.567,6.9-1c4.6-0.733,7.733-1.25,9.4-1.55c0.667-0.1,1.1-0.167,1.3-0.2c1.367-0.267,3.4-0.7,6.1-1.3
					c0.967-0.2,2-0.433,3.1-0.7c0.333-0.067,0.683-0.133,1.05-0.2L79.3-9.9c0.534-0.1,1.1-0.217,1.7-0.35
					c5.8-1.267,9.433-2.117,10.9-2.55c0.167-0.067,0.333-0.117,0.5-0.15c1.233-0.433,2.55-0.933,3.95-1.5
					c0.1-0.033,0.217-0.066,0.35-0.1c1.367-0.534,2.6-1.05,3.7-1.55c1.167-0.533,2.2-1.066,3.1-1.6c0.1-0.033,0.183-0.083,0.25-0.15
					c0.633-0.367,1.2-0.733,1.7-1.1c-0.167-0.233-0.317-0.433-0.45-0.6c0.367-0.367,0.6-0.75,0.7-1.15h0.1
					c0.133-0.133,0.217-0.216,0.25-0.25c0.034-0.066,0.05-0.233,0.05-0.5c0-0.081,0.108-0.164,0.325-0.25
					c0.053-0.014,0.112-0.031,0.175-0.05v0.025l-0.2,1.625c0.533-0.5,0.833-1.083,0.9-1.75c0-0.057,0-0.115,0-0.175
					c-0.405-0.282-0.914-0.532-1.525-0.75L105.75-22.8c-0.045-0.016-0.095-0.033-0.15-0.05c-1.571-0.535-3.779-0.869-6.625-1
					c0.763,0.24,1.454,0.573,2.075,1c0.534,0.367,0.917,0.85,1.15,1.45c-0.267-0.167-0.467-0.317-0.6-0.45
					c-0.065,0.404-0.123,0.763-0.175,1.075c-0.166,0.999-0.274,1.573-0.325,1.725c-0.267-0.034-0.5-0.017-0.7,0.05
					c-0.3,0.1-0.55,0.283-0.75,0.55c-0.233,0.5-0.383,0.767-0.45,0.8c-0.133-0.167-0.534-0.717-1.2-1.65
					c-0.167-0.2-0.3-0.383-0.4-0.55c-0.056-0.065-0.106-0.123-0.15-0.175c-0.355-0.396-0.605-0.638-0.75-0.725l-0.1,0.1
					c0.061,0.274,0.136,0.524,0.225,0.75l0.025,0.05c0.133,0.367,0.283,0.65,0.45,0.85c0.133,0.167,0.2,0.483,0.2,0.95
					c0,1.033-0.7,2.017-2.1,2.95c-0.433,0.267-0.9,0.533-1.4,0.8c-0.667,0.1-1.467,0.216-2.4,0.35
					c-0.133,0.034-0.283,0.067-0.45,0.1c-2.433,0.467-3.65,0.667-3.65,0.6h-0.05c-1-0.033-1.6-0.567-1.8-1.6
					c-0.202-1.213-0.427-2.171-0.675-2.875c-0.12-0.333-0.245-0.607-0.375-0.825c0.02,0.307,0.037,0.599,0.05,0.875
					c0.067,1.137,0.1,2.079,0.1,2.825c0,1.733-0.233,2.6-0.7,2.6c-0.267,0-0.45-0.15-0.55-0.45c-0.2-0.566-0.333-0.917-0.4-1.05
					c0,0.667-0.033,1.167-0.1,1.5h-0.2c-0.066-0.067-0.15-0.333-0.25-0.8c-0.1-0.467-0.216-0.767-0.35-0.9l0.4,2.5
					c0,0.1-0.017,0.184-0.05,0.25c-0.133,0.2-0.383,0.383-0.75,0.55c-0.1,0.033-0.183,0.066-0.25,0.1c-0.3,0.066-0.6,0.133-0.9,0.2
					c-0.433,0.1-0.867,0.184-1.3,0.25c-0.4,0.1-0.783,0.184-1.15,0.25c-1,0.2-2.034,0.4-3.1,0.6c-1.233,0.233-2.533,0.467-3.9,0.7
					c-1.233,0.267-2.4,0.5-3.5,0.7c-3.733,0.8-6.55,1.367-8.45,1.7C56.55-5.683,53.933-5.3,51.4-5C49.633-4.8,47.9-4.65,46.2-4.55z
					 M2.675-4.975C2.668-4.931,2.66-4.89,2.65-4.85C2.35-4.017,2.4-3.333,2.8-2.8c0,0.066,0.017,0.1,0.05,0.1
					C2.91-2.61,2.993-2.535,3.1-2.475L3.15-2.45c0.167,0.1,0.434,0.184,0.8,0.25c1.2,0.434,2.3,0.767,3.3,1
					c0.026,0.026,0.051,0.043,0.075,0.05H7.4c0.167,0,0.333,0.017,0.5,0.05l0.15,0.05c0.4,0.066,0.8,0.117,1.2,0.15
					c1.767,0.167,3.683,0.25,5.75,0.25h1c0.133,0.066,0.533,0.1,1.2,0.1c0.966,0,2.466-0.083,4.5-0.25
					c3.4-0.233,6.633-0.534,9.7-0.9c3.033-0.367,6.667-1.117,10.9-2.25c0.167-0.033,0.35,0.067,0.55,0.3
					C42.95-3.817,43.033-4,43.1-4.2c-4.733,0.7-9.35,1.417-13.85,2.15c-3.3,0.466-6.267,0.7-8.9,0.7c-1.267,0-2.8-0.083-4.6-0.25
					c-1.1,0.033-2.583,0-4.45-0.1C9.4-1.8,8.583-2.083,8.85-2.55C8.937-2.917,9.045-3.268,9.175-3.6
					c0.443-1.223,1.135-2.24,2.075-3.05c0.667-0.567,1.517-1.133,2.55-1.7c0.333-0.2,0.784-0.45,1.35-0.75
					c-0.972-0.129-1.588-0.346-1.85-0.65C13-9.631,12.701-9.514,12.4-9.4C8.007-7.936,4.765-6.46,2.675-4.975z M79.4-10.4
					c0.233-0.067,0.45-0.117,0.65-0.15c-0.3-0.233-0.517-0.7-0.65-1.4c-0.3-1.5-0.5-2.333-0.6-2.5l0.6,3.9V-10.4z M96.35-23.7
					c-0.3,0.3-0.733,0.6-1.3,0.9c-0.033,0.066-0.1,0.117-0.2,0.15c-1.434,0.8-3.633,1.617-6.6,2.45c-0.4,0.1-0.8,0.217-1.2,0.35
					c-1,0.3-2.083,0.583-3.25,0.85c-1.667,0.433-3.483,0.867-5.45,1.3c0.833,0.1,1.45,0.35,1.85,0.75h0.2
					c-0.1-0.367,0-0.617,0.3-0.75c0.267-0.1,0.566-0.083,0.9,0.05h0.6c-0.034-0.233,0.066-0.467,0.3-0.7h0.6L83-17.5
					c0,0.055,0,0.104,0,0.15c0.021,0.621,0.154,1.054,0.4,1.3c-0.123-0.509-0.165-0.958-0.125-1.35
					c0.063-0.462,0.238-0.845,0.525-1.15c0.233-0.233,0.55-0.434,0.95-0.6c0.7-0.267,2.033-0.4,4-0.4c0.667,0,1.05,0.1,1.15,0.3
					c0.067-0.067,0.184-0.25,0.35-0.55c0-0.034,0.017-0.05,0.05-0.05c0.167-0.267,0.367-0.4,0.6-0.4c0.367,0.133,0.633,0.2,0.8,0.2
					c2.167-1.467,3.433-2.233,3.8-2.3c0.433-0.033,0.667-0.217,0.7-0.55C96.267-23.267,96.317-23.533,96.35-23.7z"/>
				<path style="fill-rule:evenodd;clip-rule:evenodd;fill:#224841;" d="M106.35-19.7c0-0.133,0.017-0.267,0.05-0.4l0.2-1.625
					v-0.025c-0.063,0.019-0.122,0.036-0.175,0.05c-0.216,0.086-0.325,0.169-0.325,0.25c0,0.267-0.017,0.434-0.05,0.5
					c-0.033,0.034-0.117,0.117-0.25,0.25h-0.1c-0.1,0.4-0.333,0.784-0.7,1.15c0.133,0.167,0.283,0.367,0.45,0.6
					c0.2-0.167,0.4-0.333,0.6-0.5C106.15-19.517,106.25-19.6,106.35-19.7z M2.95-9.95c0.1,0.067,0.2,0.1,0.3,0.1
					c0.233,0,0.45-0.433,0.65-1.3c0.033-0.033,0.133-0.6,0.3-1.7c0.167-1.066,0.933-2.1,2.3-3.1c0.6-0.267,1.217-0.4,1.85-0.4
					c0.933,0,1.45,0.167,1.55,0.5c0.167,0.667,0.417,1.367,0.75,2.1c0.367-0.367,0.7-1.35,1-2.95c0.434-1.433,1.417-2.15,2.95-2.15
					c0.433,0,2.05-0.283,4.85-0.85c0.267-0.066,0.533-0.117,0.8-0.15c2.233-0.433,3.367-0.65,3.4-0.65c0.233,0,0.65,0.1,1.25,0.3
					c0.533,0.233,0.983,0.35,1.35,0.35h0.05c0.333,0,0.617-0.133,0.85-0.4c0.267-0.267,0.533-0.4,0.8-0.4
					c0.3,0,0.583,0.133,0.85,0.4c0.233,0.267,0.45,0.4,0.65,0.4c5.2-1.867,7.983-2.867,8.35-3c0.034,0,0.067,0,0.1,0
					c0.434-0.167,1.783-0.7,4.05-1.6c2.4-0.966,4.45-1.183,6.15-0.65c1.7,0.567,2.783,1.15,3.25,1.75l0.05-0.05
					c0.033,0,0.05-0.017,0.05-0.05c0.1,0,0.183-0.017,0.25-0.05c0.6-0.933,1.017-1.533,1.25-1.8c0.5-0.567,0.966-0.85,1.4-0.85
					c0.367,0,0.633,0.133,0.8,0.4c0.2,0.267,0.367,0.4,0.5,0.4s0.3-0.05,0.5-0.15c0.2-0.1,0.383-0.15,0.55-0.15
					c0.133,0,0.566,0.1,1.3,0.3c1.6-0.367,3.333-0.75,5.2-1.15c2.5-0.367,3.983-0.55,4.45-0.55c0.767,0,1.317,0.066,1.65,0.2
					c0.333,0.2,0.667,0.367,1,0.5c0.333,0,0.6,0,0.8,0c0.4,0.033,0.633,0.233,0.7,0.6c0.133,0.467,0.35,1,0.65,1.6
					c0.138,0.276,0.271,0.501,0.4,0.675c0.632-0.06,1.266-0.118,1.9-0.175c0.101-1.203,0.184-1.903,0.25-2.1
					c0.033-0.1,0.067-0.183,0.1-0.25c0.233-0.6,0.467-1.283,0.7-2.05c0.333-0.133,0.75-0.25,1.25-0.35c2.767-0.2,4.767-0.434,6-0.7
					c0.233-0.066,0.483-0.133,0.75-0.2c1.667-0.333,3.417-0.65,5.25-0.95c2.333-0.333,4.15-0.5,5.45-0.5c1.367,0,2.1,0.183,2.2,0.55
					c0.667,2.067,1.017,3.117,1.05,3.15c0-0.233-0.05-0.934-0.15-2.1c0.033-1.067,0.283-1.6,0.75-1.6c0.2,0,0.316,0.017,0.35,0.05
					v0.15c0.267,0.7,0.483,1.1,0.65,1.2c0.433-0.833,0.816-1.333,1.15-1.5c0.133-0.066,0.483-0.1,1.05-0.1c0.167,0,0.35,0,0.55,0
					c0.133,0.034,0.283,0.05,0.45,0.05c0.633,0.1,1.467,0.1,2.5,0l-1.15-2.4h-0.1c-0.043,0.004-0.101,0.004-0.175,0
					c-0.147-0.013-0.356-0.046-0.625-0.1c-0.4-0.1-1-0.133-1.8-0.1c0.046,0.008,0.088,0.017,0.125,0.025
					c0.309,0.063,0.55,0.138,0.725,0.225c0.067,0.033,0.133,0.067,0.2,0.1c-0.6,0.066-1.25,0.133-1.95,0.2
					c-0.7,0.1-1.667,0.467-2.9,1.1c-0.066,0-0.183-0.066-0.35-0.2c-0.167-0.133-0.35-0.2-0.55-0.2l-0.1,0.575
					c-0.682-0.65-1.415-1.092-2.2-1.325c-0.049-0.02-0.099-0.036-0.15-0.05c-0.6-0.133-1.75-0.2-3.45-0.2
					c-0.567,0-1.717,0.133-3.45,0.4c-2.066,0.333-3.683,0.7-4.85,1.1c-0.023,0.01-0.057,0.019-0.1,0.025
					c-0.432,0.052-0.874,0.102-1.325,0.15c-0.375,0.029-0.817,0.054-1.325,0.075c-1.8,0.1-2.816,0.167-3.05,0.2
					c-0.334,0.065-0.643,0.165-0.925,0.3c-0.661,0.323-1.161,0.848-1.5,1.575c-0.006,0.021-0.015,0.046-0.025,0.075
					c-0.018,0.028-0.035,0.062-0.05,0.1c-0.055,0.201-0.104,0.518-0.15,0.95c-0.033,0.1-0.05,0.183-0.05,0.25
					c0,1.667-0.033,2.8-0.1,3.4c0-0.067-0.034-0.1-0.1-0.1c-0.195-0.886-0.353-1.728-0.475-2.525
					c-0.027-0.167-0.052-0.333-0.075-0.5c0.048-0.691,0.031-1.266-0.05-1.725c-0.12-0.421-0.378-0.788-0.775-1.1
					c-0.038-0.034-0.08-0.067-0.125-0.1c-0.633-0.1-1.083-0.2-1.35-0.3c-0.167-0.033-0.5-0.167-1-0.4c-0.4-0.2-0.7-0.3-0.9-0.3
					c-1.567,0-3.483,0.167-5.75,0.5c-0.2,0.034-0.583,0.25-1.15,0.65c-0.501,0.343-0.91,0.685-1.225,1.025
					c-0.065,0.075-0.123,0.149-0.175,0.225c-0.02,0.015-0.036,0.032-0.05,0.05c-0.315,0.401-0.632,0.851-0.95,1.35
					c-0.195,0.146-0.311,0.295-0.35,0.45c-0.008,0.04-0.008,0.357,0,0.95c-0.044-0.412-0.078-0.562-0.1-0.45
					c-0.185,0.733-0.402,1.1-0.65,1.1c-0.1,0-0.217-0.083-0.35-0.25c-0.133-0.133-0.267-0.3-0.4-0.5c-0.3-0.5-0.9-0.75-1.8-0.75
					c-1.333,0-2.433,0.317-3.3,0.95c-0.8,0.6-1.2,1.283-1.2,2.05h-0.7c-0.11-0.168-0.218-0.326-0.325-0.475
					c-0.214-0.104-0.39-0.304-0.525-0.6c-0.019-0.04-0.035-0.082-0.05-0.125c-0.307-0.538-0.974-1.087-2-1.65l-4.9-1.1
					c-0.7,0-1.6,0.183-2.7,0.55c-1.767,0.6-3.15,1.033-4.15,1.3c-0.535,0.15-1.26,0.475-2.175,0.975
					c-0.518,0.29-1.093,0.631-1.725,1.025c-0.116,0.058-0.257,0.333-0.425,0.825c-0.024,0.066-0.049,0.142-0.075,0.225
					c-0.2,0.6-0.367,0.9-0.5,0.9c-0.033-0.033-0.083-0.067-0.15-0.1l-0.025-0.025c-0.083-0.059-0.125-0.15-0.125-0.275
					c0-0.267,0.083-0.517,0.25-0.75c0.133-0.2,0.2-0.4,0.2-0.6l-0.05-0.5h-0.6c-0.133,0.067-0.617,0.2-1.45,0.4
					c-0.8,0.2-1.284,0.3-1.45,0.3c-0.433,0.033-0.7,0.233-0.8,0.6c-0.133,0.567-0.2,0.867-0.2,0.9c-0.1-0.034-0.217-0.434-0.35-1.2
					c-0.014-0.097-0.03-0.188-0.05-0.275c-0.127-0.517-0.377-0.775-0.75-0.775c-0.467,0-0.867,0.033-1.2,0.1
					c-0.9,0.233-2.033,0.517-3.4,0.85l-2.95,0.65c-1.233,0.367-2.15,0.667-2.75,0.9c-0.162,0.066-0.32,0.132-0.475,0.2
					c-1.705,0.708-2.864,1.292-3.475,1.75c-0.633,0.467-0.95,1.017-0.95,1.65c-0.042,0.35-0.042,0.767,0,1.25
					c-0.133-0.167-0.417-0.65-0.85-1.45c-0.267-0.567-0.533-0.85-0.8-0.85c-3.3,1.8-5.017,3.1-5.15,3.9
					C3.367-13.117,3.15-11.15,2.95-9.95z M2.55-10.8L2.4-13.1c0-0.267,0.05-0.566,0.15-0.9c0.1-0.333,0.15-0.617,0.15-0.85
					c0-0.267-0.034-0.433-0.1-0.5c-0.1-0.133-0.333-0.2-0.7-0.2c-0.5,0-0.85,0.1-1.05,0.3c-0.2,0.267-0.417,0.55-0.65,0.85
					c-0.133,0.533-0.2,1.2-0.2,2c-0.067,2.733,0.033,5.033,0.3,6.9c0.153,1.019,0.278,1.802,0.375,2.35v0.05
					C0.777-2.613,0.853-2.33,0.9-2.25c0.033,0.033,0.05,0.067,0.05,0.1H1.1c-0.133-0.333-0.2-0.6-0.2-0.8
					c0-0.199,0.075-0.424,0.225-0.675C1.174-3.716,1.233-3.808,1.3-3.9C1.285-3.995,1.268-4.087,1.25-4.175
					C1.017-5.744,0.9-7.235,0.9-8.65c0-0.633,0.083-1.333,0.25-2.1c0.267-1.133,0.65-1.767,1.15-1.9c0.067,0.667,0.133,1.2,0.2,1.6
					C2.5-10.95,2.517-10.867,2.55-10.8z M46.2-4.55c1.7-0.1,3.433-0.25,5.2-0.45c2.533-0.3,5.15-0.683,7.85-1.15
					c1.9-0.333,4.717-0.9,8.45-1.7c1.1-0.2,2.267-0.433,3.5-0.7c1.367-0.233,2.667-0.467,3.9-0.7c1.066-0.2,2.1-0.4,3.1-0.6
					c0.367-0.066,0.75-0.15,1.15-0.25c0.433-0.066,0.867-0.15,1.3-0.25c0.3-0.066,0.6-0.133,0.9-0.2
					c0.067-0.034,0.15-0.067,0.25-0.1c0.367-0.167,0.617-0.35,0.75-0.55c-0.033,0.034-0.066,0.05-0.1,0.05
					c-0.567,0.167-1.367,0.367-2.4,0.6c-0.2,0.033-0.417,0.083-0.65,0.15c-0.4,0.066-0.8,0.15-1.2,0.25
					c-0.9,0.167-1.934,0.35-3.1,0.55c-1.833,0.367-3.967,0.75-6.4,1.15c-0.333,0.067-0.667,0.117-1,0.15
					c-4.5,0.733-9.934,1.583-16.3,2.55c-1.933,0.3-3.95,0.6-6.05,0.9c0.167,0.1,0.367,0.167,0.6,0.2
					c0.033,0.033,0.066,0.05,0.1,0.05L46.2-4.55z M43.3-5.9c-0.133-0.467-0.3-1.117-0.5-1.95c-0.211-0.784-0.411-1.418-0.6-1.9
					c-0.015-0.053-0.031-0.103-0.05-0.15c-0.033,0.033-0.05,0.066-0.05,0.1c0.001,0.022,0.001,0.047,0,0.075
					c0.167,2.493,0.301,4.268,0.4,5.325c-0.967,0.167-1.933,0.3-2.9,0.4c-9.633,1.4-17.367,2.2-23.2,2.4c-0.233,0-0.45,0-0.65,0
					c1.8,0.167,3.333,0.25,4.6,0.25c2.633,0,5.6-0.233,8.9-0.7c4.5-0.733,9.117-1.45,13.85-2.15c0.1-0.333,0.167-0.667,0.2-1
					C43.333-5.433,43.333-5.667,43.3-5.9z M7.325-1.15C7.301-1.157,7.276-1.174,7.25-1.2c-1-0.233-2.1-0.566-3.3-1
					c-0.367-0.066-0.633-0.15-0.8-0.25L3.1-2.475C2.993-2.535,2.91-2.61,2.85-2.7C2.817-2.7,2.8-2.733,2.8-2.8
					C2.4-3.333,2.35-4.017,2.65-4.85c0.01-0.04,0.019-0.081,0.025-0.125c-0.185,0.134-0.36,0.268-0.525,0.4
					C2.014-4.349,1.914-4.124,1.85-3.9C1.683-3.3,1.733-2.867,2-2.6c0.083,0.107,0.158,0.207,0.225,0.3
					C2.368-2.152,2.493-2.036,2.6-1.95C4.325-1.585,5.9-1.318,7.325-1.15z M91.6-13.95c0.933-0.133,1.733-0.25,2.4-0.35
					c0.5-0.267,0.967-0.534,1.4-0.8C94.067-14.7,92.8-14.317,91.6-13.95z M41.95-26.05v0.6c-0.6,0.067-1.184,0.133-1.75,0.2
					c-0.3,0-0.567-0.017-0.8-0.05C40.167-25.5,41.017-25.75,41.95-26.05z"/>
				<path style="fill-rule:evenodd;clip-rule:evenodd;fill:#4F9286;" d="M1.3-3.9C1.233-3.808,1.174-3.716,1.125-3.625
					C0.975-3.375,0.9-3.149,0.9-2.95c0,0.2,0.067,0.467,0.2,0.8H0.95C0.963-2.124,0.98-2.099,1-2.075C1.026-2.045,1.06-2.02,1.1-2
					c0.066,0.1,0.15,0.183,0.25,0.25c0.066,0.1,0.167,0.183,0.3,0.25c0.8,0.567,2.117,0.95,3.95,1.15
					c2.967,0.333,6.55,0.434,10.75,0.3c4.167-0.133,7.5-0.35,10-0.65c2.5-0.3,4.217-0.466,5.15-0.5c0.933,0,2.933-0.383,6-1.15
					c3.033-0.767,4.767-1.1,5.2-1c0.033-0.1,0.083-0.2,0.15-0.3c-0.2-0.233-0.383-0.333-0.55-0.3
					c-4.233,1.133-7.867,1.883-10.9,2.25c-3.066,0.367-6.3,0.667-9.7,0.9c-2.034,0.167-3.534,0.25-4.5,0.25
					c-0.667,0-1.067-0.034-1.2-0.1h-1c-2.067,0-3.983-0.083-5.75-0.25c-0.4-0.033-0.8-0.083-1.2-0.15L7.9-1.1
					C7.733-1.133,7.567-1.15,7.4-1.15H7.325c-1.425-0.168-3-0.435-4.725-0.8C2.493-2.036,2.368-2.152,2.225-2.3
					C2.158-2.393,2.083-2.493,2-2.6C1.733-2.867,1.683-3.3,1.85-3.9c0.064-0.224,0.164-0.449,0.3-0.675
					c0.165-0.132,0.34-0.266,0.525-0.4C4.765-6.46,8.007-7.936,12.4-9.4C12.701-9.514,13-9.631,13.3-9.75
					c2.028-0.754,4.103-1.479,6.225-2.175c4.145-1.361,8.47-2.611,12.975-3.75c3.494-0.881,7.094-1.697,10.8-2.45
					c3.307-0.66,6.699-1.268,10.175-1.825c1.182-0.189,2.374-0.373,3.575-0.55c4.262-0.626,8.654-1.176,13.175-1.65
					c0.231-0.008,0.598-0.05,1.1-0.125c3.702-0.373,7.485-0.697,11.35-0.975c2.8-0.19,5.642-0.356,8.525-0.5
					c0.639-0.033,1.264-0.058,1.875-0.075c1.219-0.05,2.369-0.075,3.45-0.075c0.867,0.004,1.684,0.021,2.45,0.05
					c2.846,0.131,5.054,0.465,6.625,1c0.055,0.017,0.104,0.034,0.15,0.05l0.025,0.025c0.611,0.218,1.12,0.468,1.525,0.75
					c0.012-0.107,0.028-0.216,0.05-0.325c-0.243-0.336-0.551-0.644-0.925-0.925c-1.793-1.022-5.061-1.564-9.8-1.625
					c-1.772-0.014-3.747,0.036-5.925,0.15c-2.518,0.125-5.001,0.267-7.45,0.425c-2.88,0.201-5.714,0.426-8.5,0.675
					c-0.634,0.057-1.268,0.115-1.9,0.175c-1.685,0.168-3.352,0.343-5,0.525c-0.193,0.021-0.385,0.046-0.575,0.075
					c-4.991,0.559-9.825,1.217-14.5,1.975c-0.597,0.096-1.188,0.196-1.775,0.3c-0.575,0.376-1.308,0.593-2.2,0.65
					c-0.267,0.034-0.55,0.067-0.85,0.1c-1.367,0.2-3.15,0.6-5.35,1.2l-9.85,1.9c-0.106,0-0.198-0.008-0.275-0.025
					c-4.997,1.242-9.772,2.625-14.325,4.15c-2.13,0.709-4.213,1.451-6.25,2.225c-0.587,0.195-1.153,0.395-1.7,0.6
					C9.643-9.52,9.093-9.22,8.55-8.9C7.283-8.4,6.2-7.933,5.3-7.5C4.233-6.867,3.483-6.25,3.05-5.65L2.975-5.575
					C2.953-5.558,2.928-5.55,2.9-5.55L2.85-5.5C2.15-4.867,1.633-4.333,1.3-3.9z M43.3-5.9v-0.05c0.233,0.233,0.6,0.75,1.1,1.55
					v0.05c0.233,0.4,0.633,0.6,1.2,0.6c1.167,0,3.1-0.2,5.8-0.6c3.333-0.5,7.867-1.3,13.6-2.4c0.933-0.2,1.833-0.383,2.7-0.55
					c2.867-0.567,5.333-1.067,7.4-1.5c1.167-0.233,2.2-0.45,3.1-0.65c2.5-0.466,4.066-0.767,4.7-0.9c2.5-0.433,5.5-1.25,9-2.45
					c-1.467,0.433-5.1,1.283-10.9,2.55c-0.6,0.133-1.167,0.25-1.7,0.35l-0.05,0.05c-0.367,0.067-0.717,0.133-1.05,0.2
					c-1.1,0.267-2.133,0.5-3.1,0.7c-2.7,0.6-4.733,1.034-6.1,1.3c-0.2,0.033-0.633,0.1-1.3,0.2c-1.667,0.3-4.8,0.817-9.4,1.55
					c-2.833,0.433-5.133,0.767-6.9,1c-2.433,0.367-3.867,0.55-4.3,0.55l-0.9-0.2L46.05-4.6c-0.033,0-0.066-0.017-0.1-0.05
					c-0.233-0.033-0.434-0.1-0.6-0.2c-0.1,0.033-0.184,0.05-0.25,0.05c-0.1,0.033-0.184,0.05-0.25,0.05
					c-0.067-0.067-0.133-0.167-0.2-0.3c-0.3-0.5-0.733-1.417-1.3-2.75c-0.499-1.043-0.841-1.702-1.025-1.975
					C42.229-9.901,42.171-9.942,42.15-9.9c0.019,0.047,0.036,0.097,0.05,0.15c0.188,0.482,0.389,1.116,0.6,1.9
					C43-7.017,43.167-6.367,43.3-5.9z M96.85-24.45c0,0.067-0.033,0.133-0.1,0.2c-0.233-0.033-0.467-0.05-0.7-0.05L96.85-24.45z"/>
				<path style="fill-rule:evenodd;clip-rule:evenodd;fill:#1D4840;" d="M96.525-23.9c-0.053,0.069-0.111,0.136-0.175,0.2
					c-0.033,0.167-0.083,0.434-0.15,0.8c-0.034,0.333-0.267,0.517-0.7,0.55c-0.367,0.067-1.633,0.833-3.8,2.3
					c-0.167,0-0.434-0.067-0.8-0.2c-0.233,0-0.433,0.133-0.6,0.4c-0.033,0-0.05,0.017-0.05,0.05c-0.167,0.3-0.283,0.483-0.35,0.55
					c-0.1-0.2-0.483-0.3-1.15-0.3c-1.967,0-3.3,0.133-4,0.4c-0.4,0.167-0.717,0.367-0.95,0.6c-0.287,0.305-0.461,0.688-0.525,1.15
					c-0.04,0.392,0.002,0.841,0.125,1.35c-0.246-0.246-0.379-0.679-0.4-1.3c0-0.045,0-0.095,0-0.15l0.1-0.85h-0.6
					c-0.233,0.233-0.333,0.467-0.3,0.7h-0.6c-0.333-0.133-0.633-0.15-0.9-0.05c-0.3,0.133-0.4,0.383-0.3,0.75h-0.2
					c-0.4-0.4-1.017-0.65-1.85-0.75c-0.067,0-0.117,0-0.15,0c-1,0.233-2.034,0.467-3.1,0.7c-2.067,0.433-4.283,0.867-6.65,1.3
					c-0.267,0.034-0.517,0.083-0.75,0.15h-0.05c-3.7,0.7-7.167,1.316-10.4,1.85c-2.033,0.367-3.983,0.717-5.85,1.05
					c-9.1,1.533-15.8,2.5-20.1,2.9c-4.6,0.433-8.283,0.7-11.05,0.8c-0.4,0.067-0.9,0.383-1.5,0.95c0.833-0.233,1.583-0.35,2.25-0.35
					c0.333,0,0.533,0.15,0.6,0.45c0,0.4,0,0.717,0,0.95c0.133-0.066,0.4-0.3,0.8-0.7c0,0.633,0.033,1.066,0.1,1.3
					c0.018,0.091,0.043,0.175,0.075,0.25C22.692-5.724,22.9-5.441,23.2-5.25h0.1c0.012-0.387,0.028-0.72,0.05-1
					c0.022-0.523,0.056-0.84,0.1-0.95c0.233-0.7,0.85-1.117,1.85-1.25c0.8-0.066,2.3-0.316,4.5-0.75
					c2.067-0.367,3.167-0.55,3.3-0.55c0.633,0,1.25,0.067,1.85,0.2c0.753,0.211,1.245,0.502,1.475,0.875
					c0.031,0.042,0.056,0.083,0.075,0.125c0.003-0.048,0.011-0.098,0.025-0.15c0.309-1.58,4.267-2.597,11.875-3.05
					c0.167,0,0.333,0.067,0.5,0.2c0.133,0.133,0.3,0.2,0.5,0.2v-0.5c0.1-0.066,0.233-0.1,0.4-0.1c0.383,0,0.75,0.192,1.1,0.575
					c0.099,0.127,0.198,0.269,0.3,0.425c0.066,0.133,0.133,0.267,0.2,0.4c0.3,0.566,0.5,0.966,0.6,1.2h0.2l-0.1-1.55
					c0-0.266,0.2-0.533,0.6-0.8c1.041-0.718,3.457-1.451,7.25-2.2c0.633-0.133,1.267-0.25,1.9-0.35
					c2.233-0.267,4.183-0.45,5.85-0.55c0.66-0.025,1.285-0.042,1.875-0.05c0.174,0,0.35,0,0.525,0c2.167,0,3.833,0.1,5,0.3
					c1.4,0.267,2.1,0.667,2.1,1.2c0,0.667-0.7,1.383-2.1,2.15c-0.6,0.367-1.35,0.733-2.25,1.1c-1.167,0.5-2.55,1.05-4.15,1.65
					c2.433-0.4,4.566-0.783,6.4-1.15c1.167-0.2,2.2-0.383,3.1-0.55c0.4-0.1,0.8-0.184,1.2-0.25v-0.15l-0.6-3.9
					c0.1,0.167,0.3,1,0.6,2.5c0.133,0.7,0.35,1.167,0.65,1.4c1.034-0.233,1.833-0.434,2.4-0.6c0.033,0,0.066-0.017,0.1-0.05
					c0.034-0.066,0.05-0.15,0.05-0.25l-0.4-2.5c0.133,0.133,0.25,0.434,0.35,0.9c0.1,0.466,0.184,0.733,0.25,0.8H83
					c0.067-0.333,0.1-0.833,0.1-1.5c0.066,0.133,0.2,0.483,0.4,1.05c0.1,0.3,0.283,0.45,0.55,0.45c0.467,0,0.7-0.867,0.7-2.6
					c0-0.746-0.033-1.688-0.1-2.825c-0.013-0.276-0.03-0.568-0.05-0.875c0.13,0.217,0.255,0.492,0.375,0.825
					c0.248,0.704,0.473,1.662,0.675,2.875c0.2,1.033,0.8,1.567,1.8,1.6h0.05c0,0.067,1.217-0.133,3.65-0.6
					c0.167-0.033,0.317-0.066,0.45-0.1c1.2-0.367,2.467-0.75,3.8-1.15c1.4-0.933,2.1-1.917,2.1-2.95c0-0.467-0.067-0.784-0.2-0.95
					c-0.167-0.2-0.316-0.483-0.45-0.85l-0.025-0.05c-0.089-0.226-0.164-0.476-0.225-0.75l0.1-0.1
					c0.145,0.087,0.395,0.329,0.75,0.725c0.043,0.052,0.094,0.11,0.15,0.175c0.1,0.167,0.233,0.35,0.4,0.55
					c0.667,0.933,1.067,1.483,1.2,1.65c0.066-0.033,0.216-0.3,0.45-0.8c0.2-0.267,0.45-0.45,0.75-0.55
					c0.2-0.067,0.434-0.083,0.7-0.05c0.05-0.152,0.159-0.727,0.325-1.725c0.052-0.313,0.11-0.671,0.175-1.075
					c0.133,0.133,0.333,0.283,0.6,0.45c-0.233-0.6-0.617-1.083-1.15-1.45c-0.621-0.427-1.312-0.76-2.075-1
					C98.209-23.879,97.392-23.896,96.525-23.9z"/>
				<path style="fill-rule:evenodd;clip-rule:evenodd;fill:#2A5A52;" d="M105.05-30.9c-1.033,0.1-1.867,0.1-2.5,0
					c-0.167,0-0.316-0.017-0.45-0.05c0.2,0.267,0.3,0.65,0.3,1.15c0,2.5-0.8,3.75-2.4,3.75c-0.5,0-0.833-0.067-1-0.2
					c-0.133-0.133-0.367-0.4-0.7-0.8v0.1c0.133,0.267,0.2,0.45,0.2,0.55c0,0.7-1.567,1.05-4.7,1.05c-0.4,0-0.867-0.167-1.4-0.5
					c-0.167,0-0.35,0.067-0.55,0.2c-0.2,0.133-0.417,0.2-0.65,0.2c-0.233,0-0.45-0.1-0.65-0.3c-0.2-0.2-0.333-0.3-0.4-0.3L88.7-25.4
					c-1.067,0.4-1.833,0.617-2.3,0.65c-0.733,0.067-1.6,0.183-2.6,0.35c-0.181,0.027-0.364,0.052-0.55,0.075
					c2.449-0.158,4.932-0.299,7.45-0.425c2.178-0.114,4.152-0.164,5.925-0.15c4.739,0.061,8.006,0.603,9.8,1.625
					c0.374,0.281,0.682,0.589,0.925,0.925c-0.022,0.109-0.039,0.218-0.05,0.325c0,0.06,0,0.118,0,0.175
					c-0.066,0.667-0.367,1.25-0.9,1.75c-0.033,0.133-0.05,0.267-0.05,0.4c0.743-0.715,1.184-1.398,1.325-2.05
					c0.009-0.055,0.018-0.113,0.025-0.175c0-0.066,0-0.133,0-0.2v-0.025c0-0.934-0.4-2.6-1.2-5L105.05-30.9z M53.475-19.95
					c0.845,0.007,1.736,0.124,2.675,0.35c0.064,0.016,0.123,0.032,0.175,0.05c0.529-0.083,1.054-0.167,1.575-0.25
					c0.133,0,0.267-0.017,0.4-0.05c1.567-0.233,3.15-0.467,4.75-0.7c1.534-0.2,3.083-0.417,4.65-0.65
					c1.033-0.133,2.066-0.267,3.1-0.4c1.434-0.167,2.867-0.367,4.3-0.6c1.033-0.133,2.066-0.267,3.1-0.4
					c0.433-0.066,0.883-0.133,1.35-0.2c1.052-0.147,2.094-0.297,3.125-0.45c-3.865,0.278-7.648,0.603-11.35,0.975
					c-0.502,0.075-0.869,0.117-1.1,0.125c-4.521,0.474-8.913,1.024-13.175,1.65C55.849-20.323,54.657-20.139,53.475-19.95z
					 M32.5-15.675c0.52-0.092,1.036-0.184,1.55-0.275c2.535-0.532,5.068-1.007,7.6-1.425c0.421-0.247,0.971-0.497,1.65-0.75
					C39.594-17.372,35.994-16.556,32.5-15.675z M67.85-22.95c-0.042-0.055-0.091-0.122-0.15-0.2c-0.1-0.067-0.2-0.167-0.3-0.3
					c0,0.217-0.042,0.409-0.125,0.575C67.465-22.904,67.657-22.929,67.85-22.95z M51-20.6c0.586-0.104,1.178-0.204,1.775-0.3
					c-0.05-0.047-0.092-0.097-0.125-0.15c-0.2-0.267-0.4-0.4-0.6-0.4c-0.2,0.167-0.417,0.333-0.65,0.5
					c-0.033,0.067-0.083,0.117-0.15,0.15C51.168-20.731,51.084-20.665,51-20.6z M2.9-5.55c0.028,0,0.053-0.008,0.075-0.025
					L3.05-5.65C3.483-6.25,4.233-6.867,5.3-7.5c0.9-0.433,1.983-0.9,3.25-1.4c0.543-0.32,1.093-0.62,1.65-0.9
					c0.546-0.206,1.113-0.405,1.7-0.6c2.037-0.774,4.12-1.516,6.25-2.225c4.553-1.524,9.328-2.908,14.325-4.15
					c-0.182-0.047-0.307-0.139-0.375-0.275c-0.133-0.2-0.25-0.3-0.35-0.3L29.7-16.6c-1.434,0.533-2.333,0.817-2.7,0.85
					c-0.867,0.1-1.983,0.317-3.35,0.65c-1.333,0.333-2.15,0.517-2.45,0.55c-2.9,0.5-4.767,0.9-5.6,1.2
					c-4.133,1.567-6.6,2.583-7.4,3.05C6.602-9.418,5.118-8.185,3.75-6.6C3.46-6.264,3.177-5.914,2.9-5.55z"/>
				<path style="fill-rule:evenodd;clip-rule:evenodd;fill:#3F6D58;" d="M13.3-9.75c0.262,0.304,0.878,0.521,1.85,0.65
					c0.533,0.1,1.167,0.167,1.9,0.2c0.467,0,0.983,0,1.55,0c0.5,0,1.05-0.017,1.65-0.05c2.767-0.1,6.45-0.367,11.05-0.8
					c4.3-0.4,11-1.367,20.1-2.9c1.867-0.333,3.817-0.684,5.85-1.05c3.233-0.533,6.7-1.15,10.4-1.85h0.05
					c0.233-0.067,0.483-0.117,0.75-0.15c2.367-0.433,4.583-0.867,6.65-1.3c1.066-0.233,2.1-0.467,3.1-0.7c0.033,0,0.083,0,0.15,0
					c1.967-0.433,3.783-0.867,5.45-1.3c1.167-0.267,2.25-0.55,3.25-0.85c0.4-0.133,0.8-0.25,1.2-0.35
					c2.967-0.833,5.167-1.65,6.6-2.45c0.1-0.033,0.167-0.083,0.2-0.15v-0.4c-0.033-0.033-0.1-0.066-0.2-0.1
					c-0.333-0.067-0.983-0.1-1.95-0.1c-1.433,0-4.467,0.35-9.1,1.05c-1.3,0.2-2.716,0.434-4.25,0.7c1.534-0.2,2.95-0.333,4.25-0.4
					c0.667-0.034,1.317-0.05,1.95-0.05c0.967-0.1,1.65-0.1,2.05,0c0.534,0.067,0.867,0.25,1,0.55c-0.633,0.3-1.367,0.617-2.2,0.95
					c-2.467,0.967-4.15,1.45-5.05,1.45c-0.2,0-0.367-0.083-0.5-0.25c-0.066-0.067-0.2-0.233-0.4-0.5c-0.3,0.733-1.8,1.283-4.5,1.65
					c-4.767,0.667-7.517,1.083-8.25,1.25c-3.1,0.7-5.867,1.433-8.3,2.2c-0.9,0.267-1.983,0.4-3.25,0.4
					c-0.967,0-1.617-0.033-1.95-0.1c0.567,0.133,0.9,0.383,1,0.75c-0.867,0.2-2.85,0.517-5.95,0.95c-2.7,0.4-4.133,0.667-4.3,0.8
					c-0.367,0.367-2.7,0.733-7,1.1c-0.767,0.066-2.433,0.267-5,0.6c-2,0.233-3.05,0.25-3.15,0.05h-0.1
					c-0.767-0.033-1.367-0.1-1.8-0.2l-0.75-0.2c-0.2,0-0.967,0.3-2.3,0.9l0.1-0.65c-0.267,0-0.483,0.083-0.65,0.25
					c-0.167,0.133-0.567,0.217-1.2,0.25c0,0.1-0.033,0.133-0.1,0.1v-0.05c-0.267,0.067-0.967,0.017-2.1-0.15
					c-0.867-0.133-1.533-0.267-2-0.4c0.767-0.8,2.417-1.6,4.95-2.4c-0.5,0.1-1,0.2-1.5,0.3c-1.013,0.171-2.021,0.362-3.025,0.575
					C17.403-11.229,15.328-10.504,13.3-9.75z M72.5-20.5c-1.167,0.2-2.383,0.417-3.65,0.65c-0.367,0.067-0.75,0.133-1.15,0.2
					c-3,0.533-6.267,1.133-9.8,1.8c-0.867,0.167-1.767,0.333-2.7,0.5c-1.2,0.633-2.4,1.05-3.6,1.25c-0.067,0-0.133,0.017-0.2,0.05
					c-1.867,0.367-3.8,0.667-5.8,0.9c-2.167,0.267-3.45,0.333-3.85,0.2c-0.179-0.051-0.329-0.126-0.45-0.225
					c-0.122-0.117-0.213-0.259-0.275-0.425c-0.035-0.087-0.06-0.188-0.075-0.3c0-0.033,0-0.067,0-0.1l-0.25,0.05l-7.6,1.35
					c1.3-0.1,2.617-0.15,3.95-0.15c1.434,0,2.8,0.1,4.1,0.3c1.3,0.2,2.6,0.3,3.9,0.3c0.833,0,2.95-0.4,6.35-1.2
					c1.8-0.433,3.967-0.967,6.5-1.6c1.434-0.367,2.983-0.767,4.65-1.2c1.8-0.467,3.517-0.9,5.15-1.3c0.6-0.133,1.183-0.267,1.75-0.4
					C70.483-20.083,71.5-20.3,72.5-20.5z"/>
				<path style="fill-rule:evenodd;clip-rule:evenodd;fill:#4D8069;" d="M33.1-14.6l-9.05,1.8c-2.533,0.8-4.183,1.6-4.95,2.4
					c0.467,0.133,1.133,0.267,2,0.4c1.133,0.167,1.833,0.217,2.1,0.15v0.05c0.066,0.033,0.1,0,0.1-0.1
					c0.633-0.033,1.034-0.117,1.2-0.25c0.167-0.167,0.383-0.25,0.65-0.25l-0.1,0.65c1.333-0.6,2.1-0.9,2.3-0.9l0.75,0.2
					c0.433,0.1,1.033,0.167,1.8,0.2H30c0.1,0.2,1.15,0.183,3.15-0.05c2.567-0.333,4.233-0.534,5-0.6c4.3-0.367,6.633-0.733,7-1.1
					c0.167-0.133,1.6-0.4,4.3-0.8c3.1-0.434,5.083-0.75,5.95-0.95c-0.1-0.367-0.433-0.617-1-0.75c0.333,0.067,0.983,0.1,1.95,0.1
					c1.267,0,2.35-0.133,3.25-0.4c2.433-0.767,5.2-1.5,8.3-2.2c0.733-0.167,3.483-0.583,8.25-1.25c2.7-0.367,4.2-0.917,4.5-1.65
					c0.2,0.267,0.333,0.433,0.4,0.5c0.133,0.167,0.3,0.25,0.5,0.25c0.9,0,2.583-0.483,5.05-1.45c0.833-0.333,1.566-0.65,2.2-0.95
					c-0.133-0.3-0.466-0.483-1-0.55c-0.4-0.1-1.083-0.1-2.05,0c-0.633,0-1.283,0.017-1.95,0.05c-1.3,0.066-2.716,0.2-4.25,0.4
					c-0.433,0.066-0.883,0.117-1.35,0.15c-1,0.167-2.034,0.333-3.1,0.5c-0.833,0.167-1.7,0.333-2.6,0.5
					c-1,0.2-2.017,0.417-3.05,0.65c-0.567,0.133-1.15,0.267-1.75,0.4c-1.633,0.4-3.35,0.833-5.15,1.3
					c-1.667,0.433-3.216,0.833-4.65,1.2c-2.533,0.633-4.7,1.167-6.5,1.6c-3.4,0.8-5.517,1.2-6.35,1.2c-1.3,0-2.6-0.1-3.9-0.3
					c-1.3-0.2-2.667-0.3-4.1-0.3C35.717-14.75,34.4-14.7,33.1-14.6z M96.85-24.45l-0.8,0.15c0.233,0,0.467,0.017,0.7,0.05
					C96.817-24.317,96.85-24.383,96.85-24.45z"/>
				<path style="fill-rule:evenodd;clip-rule:evenodd;fill:#31685E;" d="M102.1-30.95c-0.2,0-0.383,0-0.55,0
					c-0.566,0-0.917,0.034-1.05,0.1c-0.333,0.167-0.717,0.667-1.15,1.5c-0.167-0.1-0.383-0.5-0.65-1.2v-0.15
					c-0.034-0.033-0.15-0.05-0.35-0.05c-0.467,0-0.717,0.533-0.75,1.6c0.1,1.167,0.15,1.867,0.15,2.1
					c-0.033-0.034-0.383-1.083-1.05-3.15c-0.1-0.367-0.833-0.55-2.2-0.55c-1.3,0-3.117,0.167-5.45,0.5
					c-1.833,0.3-3.583,0.617-5.25,0.95c-0.267,0.066-0.517,0.133-0.75,0.2c-1.233,0.267-3.233,0.5-6,0.7
					c-0.5,0.1-0.917,0.217-1.25,0.35c-0.233,0.767-0.466,1.45-0.7,2.05c-0.033,0.067-0.067,0.15-0.1,0.25
					c-0.066,0.197-0.149,0.897-0.25,2.1c2.786-0.249,5.62-0.474,8.5-0.675c0.186-0.023,0.369-0.048,0.55-0.075
					c1-0.167,1.867-0.283,2.6-0.35c0.467-0.033,1.233-0.25,2.3-0.65l1.45-0.65c0.067,0,0.2,0.1,0.4,0.3c0.2,0.2,0.417,0.3,0.65,0.3
					c0.233,0,0.45-0.066,0.65-0.2c0.2-0.133,0.383-0.2,0.55-0.2c0.533,0.333,1,0.5,1.4,0.5c3.133,0,4.7-0.35,4.7-1.05
					c0-0.1-0.067-0.283-0.2-0.55v-0.1c0.333,0.4,0.567,0.667,0.7,0.8c0.167,0.133,0.5,0.2,1,0.2c1.6,0,2.4-1.25,2.4-3.75
					C102.4-30.3,102.3-30.683,102.1-30.95z M63.6-23.35l-1.3-0.2c-0.3,0-1.083,0.233-2.35,0.7c-0.067,0-0.117,0.017-0.15,0.05
					c-0.7,0.267-1.25,0.45-1.65,0.55c-0.066-0.033-0.15-0.083-0.25-0.15c-0.2-0.1-0.517-0.25-0.95-0.45
					c-0.1-0.033-0.184-0.066-0.25-0.1h-0.1l5.6-2.1c0.2,0.1,0.4,0.167,0.6,0.2c0.2,0.067,0.367,0.1,0.5,0.1
					c0.2,0,0.434-0.033,0.7-0.1c0.167-0.033,0.333-0.083,0.5-0.15c0.533-0.167,0.9-0.283,1.1-0.35h1.6c0.033,0.133,0,0.3-0.1,0.5
					c-0.1,0.133-0.2,0.267-0.3,0.4c-0.267,0.4-0.4,0.7-0.4,0.9c-0.066-0.034-0.233-0.167-0.5-0.4c-0.167-0.133-0.383-0.2-0.65-0.2
					s-0.567,0.133-0.9,0.4C64.017-23.483,63.767-23.35,63.6-23.35z M72.85-23.475c-0.128-0.174-0.262-0.398-0.4-0.675
					c-0.3-0.6-0.517-1.133-0.65-1.6c-0.066-0.367-0.3-0.567-0.7-0.6c-0.2,0-0.467,0-0.8,0c-0.333-0.133-0.667-0.3-1-0.5
					c-0.333-0.133-0.883-0.2-1.65-0.2c-0.467,0-1.95,0.183-4.45,0.55c-1.867,0.4-3.6,0.783-5.2,1.15c-0.733-0.2-1.167-0.3-1.3-0.3
					c-0.167,0-0.35,0.05-0.55,0.15c-0.2,0.1-0.367,0.15-0.5,0.15s-0.3-0.133-0.5-0.4c-0.167-0.267-0.433-0.4-0.8-0.4
					c-0.434,0-0.9,0.283-1.4,0.85c-0.233,0.267-0.65,0.867-1.25,1.8c-0.067,0.033-0.15,0.05-0.25,0.05c0,0.034-0.017,0.05-0.05,0.05
					l-0.05,0.05c-0.467-0.6-1.55-1.183-3.25-1.75c-1.7-0.533-3.75-0.316-6.15,0.65c-2.267,0.9-3.617,1.434-4.05,1.6
					c-0.033,0-0.066,0-0.1,0c-0.367,0.133-3.15,1.133-8.35,3c-0.2,0-0.417-0.133-0.65-0.4c-0.267-0.267-0.55-0.4-0.85-0.4
					c-0.267,0-0.534,0.133-0.8,0.4c-0.233,0.267-0.517,0.4-0.85,0.4h-0.05c-0.367,0-0.817-0.117-1.35-0.35
					c-0.6-0.2-1.017-0.3-1.25-0.3c-0.033,0-1.167,0.217-3.4,0.65c-0.267,0.033-0.533,0.083-0.8,0.15
					c-2.8,0.567-4.417,0.85-4.85,0.85c-1.533,0-2.517,0.717-2.95,2.15c-0.3,1.6-0.633,2.583-1,2.95
					c-0.333-0.733-0.583-1.433-0.75-2.1c-0.1-0.333-0.617-0.5-1.55-0.5c-0.633,0-1.25,0.133-1.85,0.4c-1.367,1-2.133,2.034-2.3,3.1
					c-0.167,1.1-0.267,1.667-0.3,1.7c-0.2,0.867-0.417,1.3-0.65,1.3c-0.1,0-0.2-0.033-0.3-0.1c-0.034,0.1-0.05,0.2-0.05,0.3
					l-0.3-0.1L2.55-10.8c-0.033-0.067-0.05-0.15-0.05-0.25c-0.067-0.4-0.133-0.934-0.2-1.6c-0.5,0.133-0.883,0.767-1.15,1.9
					C0.983-9.983,0.9-9.283,0.9-8.65c0,1.415,0.117,2.906,0.35,4.475C1.268-4.087,1.285-3.995,1.3-3.9
					c0.333-0.434,0.85-0.967,1.55-1.6L2.9-5.55C3.177-5.914,3.46-6.264,3.75-6.6c1.368-1.584,2.852-2.818,4.45-3.7
					c0.8-0.467,3.267-1.483,7.4-3.05c0.833-0.3,2.7-0.7,5.6-1.2c0.3-0.034,1.117-0.217,2.45-0.55c1.367-0.333,2.483-0.55,3.35-0.65
					c0.367-0.033,1.267-0.317,2.7-0.85l2.05-0.75c0.1,0,0.217,0.1,0.35,0.3c0.068,0.136,0.193,0.228,0.375,0.275
					c0.077,0.017,0.169,0.025,0.275,0.025l9.85-1.9c2.2-0.6,3.983-1,5.35-1.2c0.3-0.033,0.583-0.066,0.85-0.1
					c0.892-0.057,1.625-0.274,2.2-0.65c0.084-0.065,0.168-0.131,0.25-0.2c0.067-0.034,0.117-0.083,0.15-0.15
					c0.233-0.167,0.45-0.333,0.65-0.5c0.2,0,0.4,0.133,0.6,0.4c0.033,0.053,0.075,0.103,0.125,0.15
					c4.675-0.758,9.509-1.416,14.5-1.975c0.083-0.166,0.125-0.358,0.125-0.575c0.1,0.133,0.2,0.233,0.3,0.3
					c0.059,0.078,0.108,0.145,0.15,0.2C69.499-23.132,71.166-23.307,72.85-23.475z M26.55-17.65c-1.2,0.2-1.816,0.633-1.85,1.3h-0.6
					c-0.2-0.2-0.7-0.3-1.5-0.3c-0.1,0-1.567,0.617-4.4,1.85c-2.8,1.233-4.567,1.85-5.3,1.85c-0.033,0-0.066,0-0.1,0l-0.2-1.8
					c0-0.433,0.35-0.783,1.05-1.05c1-0.3,1.783-0.583,2.35-0.85c0.633-0.267,1.283-0.633,1.95-1.1c0.4-0.267,0.917-0.633,1.55-1.1
					c0.267,0.2,0.4,0.4,0.4,0.6c0.4,0,0.65-0.05,0.75-0.15c0.133-0.1,0.383-0.15,0.75-0.15c3.767-0.733,6.317-1.1,7.65-1.1
					c1.567,0.2,2.4,0.3,2.5,0.3c0.567,0,1.267-0.15,2.1-0.45c0.033,0,0.083-0.017,0.15-0.05c0.733-0.267,1.367-0.566,1.9-0.9
					c0.933-0.467,1.933-0.767,3-0.9c0.167-0.033,0.667-0.05,1.5-0.05c0.033,0,0.066,0,0.1,0c-0.533,0.233-1.167,0.75-1.9,1.55
					c-0.1,0.1-0.217,0.2-0.35,0.3c-0.3,0.167-0.683,0.267-1.15,0.3c-0.433,0.066-1.033,0.133-1.8,0.2l-5.9,1.3
					C28.8-17.917,27.917-17.783,26.55-17.65z M4.6-11.9c0-0.2,0.35-0.65,1.05-1.35c0.733-0.7,1.35-1.167,1.85-1.4
					c0.233-0.7,0.483-0.833,0.75-0.4c0.233,0.466,0.45,1.367,0.65,2.7c-0.533,0.333-1.267,0.917-2.2,1.75
					c-0.6,0.567-1.083,0.85-1.45,0.85c-0.1,0-0.167-0.017-0.2-0.05C4.917-9.833,4.817-9.9,4.75-10C4.65-10.567,4.6-11.2,4.6-11.9z"
					/>
				<path style="fill-rule:evenodd;clip-rule:evenodd;fill:#315544;" d="M56.325-19.55c0.599,0.143,0.974,0.259,1.125,0.35
					c0.033,0.333-0.083,0.55-0.35,0.65c-0.033,0.015-0.066,0.031-0.1,0.05c-0.189,0.138-0.38,0.271-0.575,0.4
					c-0.405,0.273-0.813,0.523-1.225,0.75c0.933-0.167,1.833-0.333,2.7-0.5c3.533-0.667,6.8-1.267,9.8-1.8
					c0.4-0.067,0.783-0.133,1.15-0.2c1.267-0.233,2.483-0.45,3.65-0.65c0.9-0.167,1.767-0.333,2.6-0.5
					c1.066-0.167,2.1-0.333,3.1-0.5c0.466-0.033,0.917-0.083,1.35-0.15c1.534-0.267,2.95-0.5,4.25-0.7
					c4.633-0.7,7.667-1.05,9.1-1.05c0.967,0,1.617,0.033,1.95,0.1c0.1,0.033,0.167,0.066,0.2,0.1v0.4c0.567-0.3,1-0.6,1.3-0.9
					c0.063-0.063,0.122-0.13,0.175-0.2c-1.081,0-2.23,0.025-3.45,0.075c-0.611,0.017-1.236,0.042-1.875,0.075
					c-2.884,0.144-5.726,0.31-8.525,0.5c-1.031,0.153-2.073,0.303-3.125,0.45c-0.466,0.066-0.917,0.133-1.35,0.2
					c-1.034,0.133-2.067,0.267-3.1,0.4c-1.434,0.233-2.867,0.434-4.3,0.6c-1.033,0.133-2.066,0.267-3.1,0.4
					c-1.567,0.233-3.117,0.45-4.65,0.65c-1.6,0.233-3.183,0.466-4.75,0.7c-0.133,0.033-0.267,0.05-0.4,0.05
					C57.379-19.717,56.854-19.633,56.325-19.55z M24.05-12.8l9.05-1.8l7.6-1.35c-0.034-0.079-0.05-0.162-0.05-0.25
					c0-0.385,0.333-0.776,1-1.175c-2.532,0.417-5.065,0.893-7.6,1.425c-0.514,0.091-1.03,0.183-1.55,0.275
					c-4.505,1.139-8.831,2.389-12.975,3.75c1.003-0.213,2.012-0.404,3.025-0.575C23.05-12.6,23.55-12.7,24.05-12.8z"/>
				<path style="fill-rule:evenodd;clip-rule:evenodd;fill:#173A33;" d="M0.2-14.4c0.233-0.3,0.45-0.583,0.65-0.85
					c0.2-0.2,0.55-0.3,1.05-0.3c0.367,0,0.6,0.066,0.7,0.2c0.066,0.067,0.1,0.233,0.1,0.5c0,0.233-0.05,0.517-0.15,0.85
					c-0.1,0.333-0.15,0.633-0.15,0.9l0.15,2.3L2.6-9.75l0.3,0.1c0-0.1,0.017-0.2,0.05-0.3c0.2-1.2,0.417-3.167,0.65-5.9
					c0.133-0.8,1.85-2.1,5.15-3.9c0.267,0,0.533,0.283,0.8,0.85c0.434,0.8,0.717,1.283,0.85,1.45c-0.042-0.483-0.042-0.9,0-1.25
					c0-0.633,0.317-1.183,0.95-1.65c0.611-0.458,1.77-1.042,3.475-1.75c0.154-0.067,0.313-0.134,0.475-0.2
					c0.6-0.233,1.517-0.534,2.75-0.9L21-23.85c1.367-0.333,2.5-0.617,3.4-0.85c0.333-0.066,0.733-0.1,1.2-0.1
					c0.373,0,0.623,0.258,0.75,0.775c0.02,0.086,0.036,0.178,0.05,0.275c0.133,0.767,0.25,1.167,0.35,1.2
					c0-0.034,0.067-0.333,0.2-0.9c0.1-0.367,0.367-0.566,0.8-0.6c0.167,0,0.65-0.1,1.45-0.3c0.833-0.2,1.316-0.333,1.45-0.4h0.6
					l0.05,0.5c0,0.2-0.066,0.4-0.2,0.6c-0.167,0.233-0.25,0.483-0.25,0.75c0,0.125,0.042,0.216,0.125,0.275L31-22.6
					c0.067,0.033,0.117,0.067,0.15,0.1c0.133,0,0.3-0.3,0.5-0.9c0.026-0.083,0.051-0.159,0.075-0.225
					c0.167-0.492,0.309-0.767,0.425-0.825c0.632-0.394,1.207-0.735,1.725-1.025c0.915-0.5,1.64-0.825,2.175-0.975
					c1-0.267,2.383-0.7,4.15-1.3c1.1-0.367,2-0.55,2.7-0.55l4.9,1.1c1.026,0.563,1.693,1.113,2,1.65
					c0.015,0.043,0.032,0.085,0.05,0.125c0.135,0.296,0.311,0.496,0.525,0.6c0.107,0.149,0.215,0.307,0.325,0.475h0.7
					c0-0.767,0.4-1.45,1.2-2.05c0.867-0.633,1.967-0.95,3.3-0.95c0.9,0,1.5,0.25,1.8,0.75c0.133,0.2,0.267,0.367,0.4,0.5
					c0.133,0.167,0.25,0.25,0.35,0.25c0.248,0,0.465-0.367,0.65-1.1c0.022-0.112,0.056,0.038,0.1,0.45
					c-0.008-0.593-0.008-0.91,0-0.95c0.039-0.154,0.155-0.304,0.35-0.45c0.318-0.499,0.635-0.949,0.95-1.35
					c0.014-0.018,0.03-0.035,0.05-0.05c0.052-0.076,0.11-0.15,0.175-0.225c0.315-0.34,0.724-0.682,1.225-1.025
					c0.566-0.4,0.95-0.617,1.15-0.65c2.267-0.333,4.183-0.5,5.75-0.5c0.2,0,0.5,0.1,0.9,0.3c0.5,0.233,0.833,0.367,1,0.4
					c0.267,0.1,0.717,0.2,1.35,0.3c0.045,0.033,0.087,0.066,0.125,0.1c0.396,0.312,0.655,0.679,0.775,1.1
					c0.081,0.459,0.098,1.034,0.05,1.725c0.023,0.167,0.048,0.333,0.075,0.5c0.122,0.797,0.28,1.639,0.475,2.525
					c0.066,0,0.1,0.033,0.1,0.1c0.066-0.6,0.1-1.733,0.1-3.4c0-0.067,0.017-0.15,0.05-0.25c0.045-0.432,0.095-0.749,0.15-0.95
					c0.015-0.039,0.032-0.072,0.05-0.1c0.01-0.029,0.019-0.054,0.025-0.075c0.339-0.727,0.839-1.252,1.5-1.575
					c0.282-0.135,0.591-0.235,0.925-0.3c0.233-0.034,1.25-0.1,3.05-0.2c0.508-0.021,0.95-0.046,1.325-0.075
					c0.452-0.048,0.893-0.098,1.325-0.15c0.042-0.006,0.076-0.015,0.1-0.025c1.167-0.4,2.784-0.767,4.85-1.1
					c1.733-0.267,2.883-0.4,3.45-0.4c1.7,0,2.85,0.067,3.45,0.2c0.051,0.014,0.102,0.03,0.15,0.05
					c0.785,0.233,1.518,0.675,2.2,1.325l0.1-0.575c0.2,0,0.383,0.067,0.55,0.2c0.167,0.133,0.284,0.2,0.35,0.2
					c1.233-0.633,2.2-1,2.9-1.1c0.7-0.066,1.35-0.133,1.95-0.2c-0.067-0.033-0.133-0.067-0.2-0.1
					c-0.174-0.087-0.416-0.162-0.725-0.225c-0.037-0.008-0.079-0.017-0.125-0.025c0.8-0.033,1.4,0,1.8,0.1
					c0.269,0.054,0.478,0.087,0.625,0.1c0.074,0.004,0.132,0.004,0.175,0c-0.219-0.133-0.46-0.25-0.725-0.35
					c-1.307-0.554-3.148-0.804-5.525-0.75c-0.63-0.011-1.255-0.011-1.875,0l0.075,0.8l-0.05,0.65c-0.167-0.033-0.417-0.15-0.75-0.35
					c-0.434-0.267-0.717-0.434-0.85-0.5c-0.5-0.2-1.033-0.3-1.6-0.3c-0.7,0-2.283,0.083-4.75,0.25
					c-2.467,0.167-3.817,0.25-4.05,0.25c-2.167,0.033-4.35,0.233-6.55,0.6c-2.2,0.333-3.167,0.633-2.9,0.9
					c-0.467,0.233-0.75,0.417-0.85,0.55c-0.2,0.2-0.25,0.483-0.15,0.85c-0.697-0.503-1.114-0.92-1.25-1.25
					c-0.142-0.323-0.775-0.573-1.9-0.75l-3.9,0.25c-1.633,0.434-2.867,0.717-3.7,0.85c-0.6,0.133-1.583,0.467-2.95,1
					c-1.4,0.533-2.1,0.867-2.1,1c0.075,0.237,0.133,0.445,0.175,0.625c0.083,0.292,0.125,0.5,0.125,0.625l-0.025,0.3l-0.55-0.1
					c-0.222-0.136-0.447-0.345-0.675-0.625c-0.098-0.126-0.198-0.268-0.3-0.425c-0.467-0.733-0.95-1.1-1.45-1.1s-1.2,0.133-2.1,0.4
					c-0.833,0.267-1.35,0.483-1.55,0.65c-0.2,0.2-0.3,0.6-0.3,1.2c0.006,0.105,0.006,0.206,0,0.3c0.006,0.45-0.044,0.742-0.15,0.875
					l-0.4,0.225c-0.019,0-0.127-0.067-0.325-0.2c-0.465-0.17-1.465-0.579-3-1.225c-1.529-0.652-2.554-1.06-3.075-1.225
					c0-0.1-0.917,0-2.75,0.3c-1.8,0.333-3.117,0.6-3.95,0.8c-2.233,0.7-3.517,1.184-3.85,1.45c-0.933,0.967-1.466,1.45-1.6,1.45
					c-0.233,0-0.333-0.217-0.3-0.65c0.033-0.4-0.267-0.6-0.9-0.6c-1,0-1.833,0.167-2.5,0.5c-0.133,0.066-0.317,0.316-0.55,0.75
					c-0.267,0.466-0.45,0.733-0.55,0.8c-0.033-0.167-0.267-0.583-0.7-1.25c-0.151-0.222-0.118-0.622,0.1-1.2
					c-2.211,0.607-4.236,1.191-6.075,1.75c-1.843,0.556-3.209,0.947-4.1,1.175c-0.896,0.235-1.371,0.36-1.425,0.375
					c-1.5,0.4-2.867,0.917-4.1,1.55c-2.954,1.201-4.904,2.31-5.85,3.325c-0.375,0.244-0.708,0.485-1,0.725
					c-0.054,0.043-0.104,0.085-0.15,0.125c-0.142,0.125-0.275,0.25-0.4,0.375c-0.099,0.099-0.424,0.365-0.975,0.8
					c-0.046,0.039-0.097,0.081-0.15,0.125L1.925-16.5c-0.315,0.256-0.69,0.556-1.125,0.9C0.533-15.4,0.333-15,0.2-14.4z"/>
				<path style="fill-rule:evenodd;clip-rule:evenodd;fill:#102E28;" d="M26.3-26.95c-0.217,0.579-0.251,0.979-0.1,1.2
					c0.433,0.667,0.667,1.083,0.7,1.25c0.1-0.067,0.283-0.333,0.55-0.8c0.233-0.434,0.417-0.684,0.55-0.75
					c0.667-0.333,1.5-0.5,2.5-0.5c0.633,0,0.933,0.2,0.9,0.6c-0.033,0.434,0.067,0.65,0.3,0.65c0.133,0,0.667-0.483,1.6-1.45
					c0.333-0.267,1.617-0.75,3.85-1.45c0.833-0.2,2.15-0.466,3.95-0.8c1.833-0.3,2.75-0.4,2.75-0.3
					c0.521,0.165,1.545,0.573,3.075,1.225c1.535,0.646,2.535,1.055,3,1.225c0.198,0.133,0.307,0.2,0.325,0.2l0.4-0.225
					c0.105-0.133,0.156-0.425,0.15-0.875c0.006-0.094,0.006-0.194,0-0.3c0-0.6,0.1-1,0.3-1.2c0.2-0.167,0.717-0.383,1.55-0.65
					c0.9-0.267,1.6-0.4,2.1-0.4s0.983,0.367,1.45,1.1c0.102,0.157,0.202,0.299,0.3,0.425c0.228,0.28,0.453,0.489,0.675,0.625
					l0.55,0.1l0.025-0.3c0-0.125-0.042-0.333-0.125-0.625c-0.042-0.18-0.1-0.388-0.175-0.625c0-0.133,0.7-0.467,2.1-1
					c1.367-0.533,2.35-0.867,2.95-1c0.833-0.133,2.067-0.417,3.7-0.85l3.9-0.25c1.125,0.177,1.758,0.427,1.9,0.75
					c0.136,0.33,0.553,0.747,1.25,1.25c-0.1-0.367-0.05-0.65,0.15-0.85c0.1-0.133,0.383-0.317,0.85-0.55
					c-0.267-0.267,0.7-0.566,2.9-0.9c2.2-0.367,4.383-0.567,6.55-0.6c0.233,0,1.583-0.083,4.05-0.25
					c2.467-0.167,4.05-0.25,4.75-0.25c0.567,0,1.1,0.1,1.6,0.3c0.133,0.066,0.417,0.233,0.85,0.5c0.333,0.2,0.583,0.316,0.75,0.35
					l0.05-0.65l-0.075-0.8c0.62-0.011,1.245-0.011,1.875,0c2.377-0.054,4.219,0.196,5.525,0.75
					c-2.456-1.418-11.348-1.894-26.675-1.425c-15.327,0.47-27.443,1.92-36.35,4.35C31.14-28.295,26.557-27.037,26.3-26.95z"/>
				<path style="fill-rule:evenodd;clip-rule:evenodd;fill:#225249;" d="M18.75-8c-0.433,0.367-0.933,0.867-1.5,1.5
					c-0.529,0.606-0.954,1.148-1.275,1.625C15.458-4.108,15.2-3.5,15.2-3.05c0,0.4,0.316,0.833,0.95,1.3
					c0.067,0.067,0.15,0.117,0.25,0.15c5.833-0.2,13.567-1,23.2-2.4c0.967-0.1,1.933-0.233,2.9-0.4
					c-0.099-1.057-0.232-2.832-0.4-5.325c0.001-0.027,0.001-0.052,0-0.075c0-0.034,0.017-0.067,0.05-0.1
					c0.021-0.042,0.08-0.001,0.175,0.125c0.184,0.273,0.526,0.932,1.025,1.975c0.566,1.333,1,2.25,1.3,2.75
					c0.067,0.133,0.133,0.233,0.2,0.3c0.066,0,0.15-0.017,0.25-0.05c0.066,0,0.15-0.017,0.25-0.05c2.1-0.3,4.117-0.6,6.05-0.9
					c6.367-0.967,11.8-1.817,16.3-2.55c0.333-0.034,0.667-0.083,1-0.15c1.6-0.6,2.983-1.15,4.15-1.65c0.9-0.367,1.65-0.733,2.25-1.1
					c1.4-0.767,2.1-1.483,2.1-2.15c0-0.533-0.7-0.933-2.1-1.2c-1.167-0.2-2.833-0.3-5-0.3c-0.175,0-0.351,0-0.525,0
					c-0.59,0.008-1.215,0.025-1.875,0.05c-1.667,0.1-3.617,0.283-5.85,0.55c-0.633,0.1-1.267,0.217-1.9,0.35
					c-3.793,0.749-6.209,1.482-7.25,2.2c-0.4,0.268-0.6,0.534-0.6,0.8l0.1,1.55H52c-0.1-0.233-0.3-0.633-0.6-1.2
					c-0.066-0.133-0.133-0.267-0.2-0.4c-0.102-0.156-0.202-0.298-0.3-0.425c-0.351-0.383-0.717-0.575-1.1-0.575
					c-0.167,0-0.3,0.034-0.4,0.1v0.5c-0.2,0-0.367-0.066-0.5-0.2c-0.167-0.133-0.333-0.2-0.5-0.2
					c-7.608,0.453-11.566,1.47-11.875,3.05c-0.014,0.052-0.022,0.102-0.025,0.15c-0.019-0.042-0.044-0.083-0.075-0.125
					c-0.229-0.373-0.721-0.664-1.475-0.875c-0.6-0.133-1.217-0.2-1.85-0.2c-0.133,0-1.233,0.183-3.3,0.55
					c-2.2,0.434-3.7,0.684-4.5,0.75c-1,0.133-1.617,0.55-1.85,1.25c-0.044,0.11-0.078,0.427-0.1,0.95
					c-0.022,0.28-0.039,0.613-0.05,1h-0.1c-0.3-0.191-0.508-0.474-0.625-0.85c-0.032-0.075-0.057-0.159-0.075-0.25
					c-0.067-0.233-0.1-0.667-0.1-1.3c-0.4,0.4-0.667,0.633-0.8,0.7c0-0.233,0-0.55,0-0.95c-0.067-0.3-0.267-0.45-0.6-0.45
					C20.333-8.35,19.583-8.233,18.75-8z M31.7-5.05c-0.133,0-0.25,0.083-0.35,0.25c-0.133,0.167-0.283,0.25-0.45,0.25
					c-0.033,0.3-0.167,0.566-0.4,0.8h-0.2c-0.1-0.5-0.3-0.9-0.6-1.2c-0.267,0.233-0.517,0.467-0.75,0.7
					c-0.133,0.1-0.25,0.2-0.35,0.3c0.066-0.2,0.1-0.367,0.1-0.5c0-0.167-0.067-0.566-0.2-1.2l0.5,0.1c0.367,0,0.617-0.383,0.75-1.15
					c0.058-0.232,0.1-0.482,0.125-0.75c0.017-0.19,0.025-0.391,0.025-0.6c0.089,0.152,0.164,0.336,0.225,0.55
					c0.109,0.351,0.184,0.785,0.225,1.3c0.033,0.434,0.333,0.65,0.9,0.65c0.267,0,0.567-0.05,0.9-0.15c0.333-0.1,0.667-0.15,1-0.15
					c0.233,0,0.417,0.033,0.55,0.1c0.033,0.033,0.167,0.167,0.4,0.4v0.2c-0.4,0-0.983,0.133-1.75,0.4L31.7-5.05z M34.4-9.55
					c0.201,0.281,0.393,0.665,0.575,1.15c0.11,0.323,0.219,0.689,0.325,1.1c0.2,0.833,0.3,1.433,0.3,1.8
					c-0.133,0.633-0.2,1.117-0.2,1.45C35.3-5.083,35.1-6.067,34.8-7c-0.172-0.559-0.289-0.992-0.35-1.3
					c-0.034-0.172-0.05-0.306-0.05-0.4V-9.55z"/>
				<path style="fill-rule:evenodd;clip-rule:evenodd;fill:#36776B;" d="M63.6-23.35c0.167,0,0.417-0.133,0.75-0.4
					c0.333-0.267,0.633-0.4,0.9-0.4s0.483,0.066,0.65,0.2c0.267,0.233,0.434,0.367,0.5,0.4c0-0.2,0.133-0.5,0.4-0.9
					c0.1-0.133,0.2-0.267,0.3-0.4c0.1-0.2,0.133-0.367,0.1-0.5h-1.6c-0.2,0.067-0.567,0.184-1.1,0.35
					c-0.167,0.067-0.333,0.117-0.5,0.15c-0.267,0.067-0.5,0.1-0.7,0.1c-0.133,0-0.3-0.033-0.5-0.1c-0.2-0.033-0.4-0.1-0.6-0.2
					l-5.6,2.1h0.1c0.066,0.034,0.15,0.067,0.25,0.1c0.433,0.2,0.75,0.35,0.95,0.45c0.1,0.066,0.184,0.117,0.25,0.15
					c0.4-0.1,0.95-0.283,1.65-0.55c0.034-0.034,0.083-0.05,0.15-0.05c1.267-0.467,2.05-0.7,2.35-0.7L63.6-23.35z M26.55-17.65
					c1.367-0.133,2.25-0.267,2.65-0.4l5.9-1.3c0.767-0.066,1.367-0.133,1.8-0.2c0.467-0.034,0.85-0.133,1.15-0.3
					c0.133-0.1,0.25-0.2,0.35-0.3c0.733-0.8,1.367-1.317,1.9-1.55c-0.033,0-0.066,0-0.1,0c-0.833,0-1.333,0.017-1.5,0.05
					c-1.067,0.133-2.067,0.433-3,0.9c-0.534,0.333-1.167,0.633-1.9,0.9c-0.066,0.033-0.117,0.05-0.15,0.05
					c-0.833,0.3-1.533,0.45-2.1,0.45c-0.1,0-0.933-0.1-2.5-0.3c-1.333,0-3.883,0.367-7.65,1.1c-0.367,0-0.617,0.05-0.75,0.15
					c-0.1,0.1-0.35,0.15-0.75,0.15c0-0.2-0.133-0.4-0.4-0.6c-0.633,0.467-1.15,0.833-1.55,1.1c-0.667,0.467-1.317,0.833-1.95,1.1
					c-0.567,0.267-1.35,0.55-2.35,0.85c-0.7,0.267-1.05,0.617-1.05,1.05l0.2,1.8c0.034,0,0.067,0,0.1,0c0.733,0,2.5-0.617,5.3-1.85
					c2.833-1.233,4.3-1.85,4.4-1.85c0.8,0,1.3,0.1,1.5,0.3h0.6C24.733-17.017,25.35-17.45,26.55-17.65z M4.6-11.9
					c0,0.7,0.05,1.333,0.15,1.9c0.067,0.1,0.167,0.167,0.3,0.2c0.034,0.033,0.1,0.05,0.2,0.05c0.367,0,0.85-0.283,1.45-0.85
					c0.933-0.833,1.667-1.417,2.2-1.75c-0.2-1.333-0.417-2.233-0.65-2.7c-0.267-0.434-0.517-0.3-0.75,0.4
					c-0.5,0.233-1.117,0.7-1.85,1.4C4.95-12.55,4.6-12.1,4.6-11.9z"/>
				<path style="fill-rule:evenodd;clip-rule:evenodd;fill:#62967E;" d="M56.325-19.55c-0.052-0.018-0.111-0.035-0.175-0.05
					c-0.938-0.227-1.83-0.343-2.675-0.35c-3.476,0.557-6.868,1.166-10.175,1.825c-0.679,0.253-1.229,0.503-1.65,0.75
					c-0.667,0.398-1,0.79-1,1.175c0,0.088,0.017,0.171,0.05,0.25L40.95-16c0,0.033,0,0.067,0,0.1c0.015,0.112,0.04,0.212,0.075,0.3
					c0.062,0.167,0.153,0.308,0.275,0.425c0.121,0.099,0.271,0.174,0.45,0.225c0.4,0.133,1.683,0.067,3.85-0.2
					c2-0.233,3.933-0.533,5.8-0.9c0.067-0.034,0.133-0.05,0.2-0.05c1.2-0.2,2.4-0.617,3.6-1.25c0.412-0.227,0.82-0.477,1.225-0.75
					c0.195-0.129,0.386-0.262,0.575-0.4c0.034-0.019,0.067-0.035,0.1-0.05c0.267-0.1,0.383-0.317,0.35-0.65
					C57.299-19.291,56.924-19.407,56.325-19.55z"/>
				<path style="fill-rule:evenodd;clip-rule:evenodd;fill:#1F453E;" d="M41.95-26.05c-0.934,0.3-1.784,0.55-2.55,0.75
					c0.233,0.033,0.5,0.05,0.8,0.05c0.566-0.067,1.15-0.133,1.75-0.2V-26.05z"/>
				<path style="fill-rule:evenodd;clip-rule:evenodd;fill:#265E53;" d="M34.4-9.55v0.85c0,0.095,0.017,0.228,0.05,0.4
					c0.061,0.308,0.178,0.741,0.35,1.3c0.3,0.933,0.5,1.917,0.6,2.95c0-0.333,0.067-0.817,0.2-1.45c0-0.367-0.1-0.967-0.3-1.8
					c-0.106-0.411-0.214-0.777-0.325-1.1C34.792-8.885,34.601-9.269,34.4-9.55z M31.7-5.05l0.65,0.3c0.767-0.267,1.35-0.4,1.75-0.4
					v-0.2c-0.233-0.233-0.367-0.367-0.4-0.4c-0.133-0.067-0.317-0.1-0.55-0.1c-0.333,0-0.667,0.05-1,0.15
					c-0.333,0.1-0.633,0.15-0.9,0.15c-0.567,0-0.867-0.217-0.9-0.65c-0.042-0.515-0.116-0.949-0.225-1.3
					c-0.061-0.214-0.136-0.397-0.225-0.55c0,0.209-0.008,0.409-0.025,0.6C29.85-7.183,29.808-6.933,29.75-6.7
					C29.617-5.933,29.367-5.55,29-5.55l-0.5-0.1c0.133,0.633,0.2,1.033,0.2,1.2c0,0.133-0.034,0.3-0.1,0.5
					c0.1-0.1,0.217-0.2,0.35-0.3c0.233-0.233,0.483-0.467,0.75-0.7c0.3,0.3,0.5,0.7,0.6,1.2h0.2c0.233-0.233,0.367-0.5,0.4-0.8
					c0.167,0,0.317-0.083,0.45-0.25C31.45-4.967,31.567-5.05,31.7-5.05z"/>
				<path style="fill-rule:evenodd;clip-rule:evenodd;fill:#1D463F;" d="M20.25-8.95C19.65-8.917,19.1-8.9,18.6-8.9
					c-0.567,0-1.083,0-1.55,0c-0.733-0.033-1.367-0.1-1.9-0.2c-0.566,0.3-1.017,0.55-1.35,0.75c-1.033,0.567-1.883,1.133-2.55,1.7
					C10.31-5.84,9.618-4.823,9.175-3.6C9.045-3.268,8.937-2.917,8.85-2.55C8.583-2.083,9.4-1.8,11.3-1.7
					c1.867,0.1,3.35,0.133,4.45,0.1c0.2,0,0.417,0,0.65,0c-0.1-0.033-0.183-0.083-0.25-0.15c-0.633-0.467-0.95-0.9-0.95-1.3
					c0-0.45,0.258-1.058,0.775-1.825c0.321-0.477,0.746-1.019,1.275-1.625c0.567-0.633,1.067-1.133,1.5-1.5
					C19.35-8.567,19.85-8.883,20.25-8.95z"/>
				
					<line style="fill-rule:evenodd;clip-rule:evenodd;fill:none;stroke:#000000;stroke-linecap:round;stroke-linejoin:round;stroke-miterlimit:3;" x1="2.075" y1="-16.625" x2="1.925" y2="-16.5"/>
			</g>
		</g>
	</g>
</symbol>
<use xlink:href="#waterlilies_x5F_leaves_x5F_highest"  width="107.72" height="143.057" x="-0.02" y="-143.05" transform="matrix(2 0 0 -2 0 0)" style="overflow:visible;"/>
</svg>
