<?xml version="1.0" encoding="iso-8859-1"?>
<!-- Generator: Adobe Illustrator 16.0.0, SVG Export Plug-In . SVG Version: 6.00 Build 0)  -->
<!DOCTYPE svg PUBLIC "-//W3C//DTD SVG 1.1//EN" "http://www.w3.org/Graphics/SVG/1.1/DTD/svg11.dtd">
<svg version="1.1" id="Layer_1" xmlns="http://www.w3.org/2000/svg" xmlns:xlink="http://www.w3.org/1999/xlink" x="0px" y="0px"
	 width="150.8px" height="196.3px" viewBox="0 0 150.8 196.3" style="enable-background:new 0 0 150.8 196.3;" xml:space="preserve"
	>
<symbol  id="waterlilies_x5F_leaves_x5F_middle" viewBox="0 -98.15 75.4 98.15">
	<g id="Layer_3_1_">
		<g>
			<g>
				<path style="fill-rule:evenodd;clip-rule:evenodd;fill:#163A34;" d="M44.1-25.85l-0.05,0.05c-0.267-0.3-0.7-0.9-1.3-1.8
					c-0.7-1.1-1.05-1.767-1.05-2c0-0.033,0.133-0.367,0.4-1c0.263-0.525,0.413-1.025,0.45-1.5c0-0.066,0-0.133,0-0.2
					c0.067,0.066,0.117,0.133,0.15,0.2c0.099,0.122,0.182,0.205,0.25,0.25v-0.6c-0.434-0.3-0.617-0.716-0.55-1.25h-0.3
					c-0.033,0.633-0.067,1.167-0.1,1.6h-0.025c-0.04,0.314-0.082,0.582-0.125,0.8H41.7c-0.076-0.201-0.134-0.467-0.175-0.8h0.025
					c-0.1-0.633-0.15-1.45-0.15-2.45v-0.05c0-0.083,0-0.167,0-0.25c0.006-1.146,0.022-2.73,0.05-4.75
					c-0.574,1.09-0.974,2.673-1.2,4.75c-0.014,0.083-0.031,0.167-0.05,0.25c-0.014,0.117-0.031,0.233-0.05,0.35
					c-0.033,1.033-0.05,1.75-0.05,2.15h-0.025l-0.025,0.4c0,0.5,0.233,1.35,0.7,2.55c0.467,1.066,0.7,1.633,0.7,1.7
					c0,0.067-0.117,0.2-0.35,0.4c-0.2,0.2-0.367,0.35-0.5,0.45c-0.6-0.433-0.983-0.65-1.15-0.65c-0.233,0-0.383,0.017-0.45,0.05
					c-0.1,0.067-0.217,0.133-0.35,0.2c-0.167,0-0.25-0.083-0.25-0.25c0.633-1.233,0.95-1.867,0.95-1.9v-0.5
					c-0.033,0.066-0.167,0.3-0.4,0.7c-0.167,0.3-0.35,0.5-0.55,0.6h-0.3c0.033-0.1,0.4-1.316,1.1-3.65
					c0.024-0.024,0.041-0.058,0.05-0.1v-0.05c0.1-0.3,0.2-0.6,0.3-0.9c0.141-0.565,0.275-1.082,0.4-1.55
					c0.013-0.085,0.029-0.168,0.05-0.25h0.05c0.567-3.103,0.85-5.17,0.85-6.2c0-0.467-0.167-0.867-0.5-1.2
					c-0.233-0.2-0.417-0.383-0.55-0.55l-0.1,2.8c-0.1,1.067-0.167,2.083-0.2,3.05c-0.026,0.731-0.076,1.431-0.15,2.1
					c-0.033,0.1-0.05,0.184-0.05,0.25c-0.067,0.667-0.167,1.267-0.3,1.8c-0.033,0.233-0.083,0.433-0.15,0.6
					c0,0.034-0.017,0.067-0.05,0.1c-0.418,1.129-0.935,2.179-1.55,3.15c-0.767,1.167-1.5,1.95-2.2,2.35v0.3
					c0.167,0.033,0.4-0.05,0.7-0.25c0.267-0.167,0.45-0.317,0.55-0.45v0.05c-0.067,0.133-0.133,0.25-0.2,0.35
					c-0.233,0.533-0.45,0.867-0.65,1l1.1,0.1c0.7,0,1.15-0.167,1.35-0.5c0.1-0.2,0.25-0.45,0.45-0.75v0.25l-0.15,0.45v0.8h1.25
					c0.167-0.033,0.367-0.05,0.6-0.05v0.05h0.2c1.1,0.167,1.667-0.183,1.7-1.05c0.033-0.3,0.017-0.717-0.05-1.25
					c0.167,0.433,0.417,0.917,0.75,1.45c0.7,1.2,1.15,1.8,1.35,1.8c0.233,0,0.35-0.067,0.35-0.2c0-0.267-0.1-0.6-0.3-1V-25.85z
					 M32.15-88.55c0.667-0.067,1.283-0.067,1.85,0c0.967-0.233,1.517-0.583,1.65-1.05c0.033-0.164,0.166-0.281,0.4-0.35
					c-0.369,0.1-0.669,0.15-0.9,0.15c-0.467,0-0.867-0.1-1.2-0.3c-0.534-0.3-0.833-0.483-0.9-0.55c0,0.267,0,0.483,0,0.65l0.05,0.05
					h-0.05c0.034,0.167,0.067,0.3,0.1,0.4c-0.6,0-1.917,0.05-3.95,0.15c-0.9,0.033-1.784,0.066-2.65,0.1
					c0.067,0.066,0.15,0.133,0.25,0.2c0.567,0.367,1.133,0.55,1.7,0.55c0.533,0,1.367-0.067,2.5-0.2
					C31.4-88.75,31.783-88.683,32.15-88.55z M38.55-40.95c-0.012,1.974-0.095,3.807-0.25,5.5v0.075
					c-0.012,0.067-0.02,0.134-0.025,0.2c-0.021,0.109-0.038,0.217-0.05,0.325c-0.211,1.217-0.402,2.134-0.575,2.75h-0.025
					c-0.216,0.682-0.475,1.315-0.775,1.9c0.333-0.3,0.55-0.583,0.65-0.85c0.084-0.197,0.243-0.547,0.475-1.05H38
					c0.033-0.1,0.067-0.2,0.1-0.3c0.3-0.767,0.517-1.383,0.65-1.85c0.039-0.117,0.072-0.233,0.1-0.35
					c0.02-0.083,0.036-0.167,0.05-0.25h0.05c0.205-1.156,0.372-2.273,0.5-3.35c0.033-0.267,0.066-0.533,0.1-0.8
					c0.067-0.933,0.167-2.2,0.3-3.8c-0.167-0.2-0.283-0.367-0.35-0.5v-0.15c0.3,0.034,0.533,0.133,0.7,0.3
					c0.167,0.167,0.316,0.25,0.45,0.25c0.434,0,0.65-0.15,0.65-0.45c0-0.233-0.1-0.717-0.3-1.45c-0.167-0.733-0.25-1.284-0.25-1.65
					c0-0.833,0.183-2.7,0.55-5.6c0.367-2.934,0.55-4.483,0.55-4.65c0-0.2-0.067-0.417-0.2-0.65s-0.2-0.5-0.2-0.8
					c-0.067,0.033-0.117,0.066-0.15,0.1c-0.6,2.433-1,4.133-1.2,5.1c-0.4,1.633-0.6,2.967-0.6,4c0,0.7,0.083,1.517,0.25,2.45
					c0.233,0.933,0.383,1.583,0.45,1.95h-0.3c-0.233-0.2-0.417-0.517-0.55-0.95c-0.3-0.7-0.483-1.117-0.55-1.25
					c0,0.067-0.017,0.1-0.05,0.1l-0.1,0.05c-0.033,0.533-0.05,1.417-0.05,2.65C38.6-42.65,38.583-41.65,38.55-40.95z M41.1-57.85
					c-0.3,0.233-0.567,0.367-0.8,0.4c-0.066-0.4-0.1-0.933-0.1-1.6c0-0.534,0.066-1.583,0.2-3.15c0.133-1.566,0.2-2.667,0.2-3.3
					c0-0.433-0.067-1.2-0.2-2.3c-0.133-1.133-0.2-1.85-0.2-2.15c0-0.8,0.083-1.367,0.25-1.7L41.3-71c-0.167-0.233-0.233-0.6-0.2-1.1
					c0-0.433,0.066-1.066,0.2-1.9c0-0.533-0.1-1.083-0.3-1.65c-0.233-0.633-0.367-1.45-0.4-2.45c-0.033-0.667-0.033-1.517,0-2.55
					c-0.033,0.233-0.133,0.533-0.3,0.9h-0.1c-0.067-0.233-0.367-1.233-0.9-3c-0.367-1.167-0.533-2.15-0.5-2.95
					c-0.1,0-0.15,0.05-0.15,0.15c-0.066-0.167-0.2-0.45-0.4-0.85C38.083-86.833,38-87.267,38-87.7c0-0.2,0.617-0.6,1.85-1.2
					c1.167-0.633,1.967-0.983,2.4-1.05V-90c0.033-0.065,0.083-0.099,0.15-0.1c-0.17-0.001-0.52-0.084-1.05-0.25
					c-0.233-0.066-0.533-0.167-0.9-0.3c-1.067-0.367-1.633-0.55-1.7-0.55c-1,0.567-1.833,0.95-2.5,1.15
					c0.2-0.034,0.483-0.05,0.85-0.05c0.167,0,0.367,0,0.6,0c0.633,0.067,1.417,0.167,2.35,0.3v0.15
					c-1.233,0.133-2.133,0.267-2.7,0.4c-1,0.233-1.434,0.65-1.3,1.25h1.1c0,0.567,0.167,2,0.5,4.3c0.3,2.3,0.45,4.05,0.45,5.25
					c-0.167,1.967-0.25,3.317-0.25,4.05c0.1-0.267,0.283-0.583,0.55-0.95s0.45-0.55,0.55-0.55c0.233,0,0.367,0.033,0.4,0.1
					c0,0.566,0.117,1.267,0.35,2.1c0.233,0.8,0.35,1.284,0.35,1.45v0.2l-0.4-0.85c-0.133-0.367-0.417-0.5-0.85-0.4v0.7
					c0.633,5.467,0.95,8.85,0.95,10.15c0,0.833-0.083,1.8-0.25,2.9v4c0.567-0.133,0.95-0.534,1.15-1.2
					C40.817-57.183,40.967-57.55,41.1-57.85z M40.55-81.7c0.034,0.5,0.05,0.817,0.05,0.95c0.033-0.5,0.05-1.033,0.05-1.6
					c0.033-0.467,0.067-0.983,0.1-1.55c-0.133,0.3-0.2,0.833-0.2,1.6C40.55-82.067,40.55-81.867,40.55-81.7z M44.35-88.35
					c-0.133,0.3-0.25,0.7-0.35,1.2c-0.2,1-0.5,1.85-0.9,2.55c-0.033,0.033-0.05,0.067-0.05,0.1c-0.466,2.333-0.633,4.533-0.5,6.6
					c0.133,2.066,0.117,3.433-0.05,4.1c-0.167,0.667-0.317,2.4-0.45,5.2c-0.133,2.833-0.167,4.483-0.1,4.95
					c0.1-0.7,0.216-1.517,0.35-2.45c0.4-2.833,0.617-4.316,0.65-4.45c0-0.434,0.1-1.4,0.3-2.9c0.167-1.2,0.25-2.167,0.25-2.9
					c0-0.2-0.1-1.033-0.3-2.5c0-0.9,0.267-2.717,0.8-5.45h-0.1v-0.95c0.233-0.733,0.383-1.75,0.45-3.05V-88.35z"/>
				<path style="fill-rule:evenodd;clip-rule:evenodd;fill:#102723;" d="M36.85-30.2c-0.067,0.1-0.117,0.217-0.15,0.35
					c-1.067,1.9-2.633,3.383-4.7,4.45c-0.167,0.1-0.333,0.183-0.5,0.25c0.033,0,0.067,0,0.1,0c-1.033,0.566-1.55,1-1.55,1.3
					c0,0.1,0.184,0.184,0.55,0.25c0.767,0.1,1.517,0.233,2.25,0.4c0.867,0.267,1.917,0.483,3.15,0.65
					c1.133,0.167,2.117,0.267,2.95,0.3c0.033,0,1.15,0.183,3.35,0.55c2.167,0.367,3.35,0.55,3.55,0.55c0.733,0,1.1-0.667,1.1-2
					c0-0.1-0.034-0.167-0.1-0.2c0-0.032-0.017-0.049-0.05-0.05h0.05c-0.033-0.033-0.083-0.067-0.15-0.1
					c-0.067-0.067-0.1-0.117-0.1-0.15c-0.067-0.067-0.317-0.25-0.75-0.55c-0.367-0.3-0.617-0.533-0.75-0.7h-0.05
					c-0.267-0.267-0.55-0.6-0.85-1c-0.034,0-0.067-0.017-0.1-0.05v0.1v0.35c0.2,0.4,0.3,0.733,0.3,1c0,0.133-0.117,0.2-0.35,0.2
					c-0.2,0-0.65-0.6-1.35-1.8c-0.333-0.533-0.583-1.017-0.75-1.45c0.066,0.533,0.083,0.95,0.05,1.25
					c-0.033,0.867-0.6,1.216-1.7,1.05h-0.2v-0.05c-0.233,0-0.434,0.017-0.6,0.05h-1.25v-0.8l0.15-0.45v-0.25
					c-0.2,0.3-0.35,0.55-0.45,0.75c-0.2,0.333-0.65,0.5-1.35,0.5l-1.1-0.1c0.2-0.133,0.417-0.467,0.65-1
					c0.067-0.1,0.133-0.217,0.2-0.35V-27c-0.1,0.133-0.283,0.283-0.55,0.45c-0.3,0.2-0.533,0.283-0.7,0.25v-0.3
					c0.7-0.4,1.433-1.183,2.2-2.35c0.615-0.971,1.132-2.021,1.55-3.15c0.033-0.033,0.05-0.066,0.05-0.1
					c0.067-0.167,0.117-0.367,0.15-0.6c0.133-0.534,0.233-1.133,0.3-1.8c0-0.066,0.017-0.15,0.05-0.25
					c0.074-0.669,0.124-1.369,0.15-2.1c0.034-0.966,0.1-1.983,0.2-3.05l0.1-2.8c-0.133,1.6-0.233,2.867-0.3,3.8
					c-0.033,0.267-0.066,0.533-0.1,0.8c-0.128,1.077-0.295,2.194-0.5,3.35H38.9c-0.014,0.083-0.03,0.167-0.05,0.25
					c-0.028,0.117-0.061,0.233-0.1,0.35c-0.133,0.467-0.35,1.083-0.65,1.85c-0.033,0.1-0.067,0.2-0.1,0.3h-0.025
					c-0.232,0.503-0.391,0.854-0.475,1.05C37.4-30.783,37.183-30.5,36.85-30.2z M38.55-40.95c0.034-0.7,0.05-1.7,0.05-3
					c0-1.233,0.017-2.117,0.05-2.65l0.1-0.05c0.033,0,0.05-0.033,0.05-0.1c0.067,0.133,0.25,0.55,0.55,1.25
					c0.133,0.433,0.316,0.75,0.55,0.95h0.3c-0.067-0.367-0.217-1.017-0.45-1.95c-0.167-0.933-0.25-1.75-0.25-2.45
					c0-1.033,0.2-2.367,0.6-4c0.2-0.966,0.6-2.667,1.2-5.1c0.034-0.167,0.083-0.35,0.15-0.55c-0.1,0.133-0.217,0.383-0.35,0.75
					c-0.133,0.3-0.283,0.667-0.45,1.1c-0.2,0.667-0.583,1.067-1.15,1.2v-4c0.167-1.1,0.25-2.067,0.25-2.9
					c0-1.3-0.317-4.683-0.95-10.15v-0.7c0.434-0.1,0.717,0.033,0.85,0.4l0.4,0.85v-0.2c0-0.167-0.117-0.65-0.35-1.45
					c-0.233-0.833-0.35-1.533-0.35-2.1c-0.033-0.067-0.167-0.1-0.4-0.1c-0.1,0-0.284,0.183-0.55,0.55s-0.45,0.684-0.55,0.95
					c0-0.733,0.083-2.083,0.25-4.05c0-1.2-0.15-2.95-0.45-5.25c-0.333-2.3-0.5-3.733-0.5-4.3h-1.1c-0.133-0.6,0.3-1.017,1.3-1.25
					c0.566-0.133,1.467-0.267,2.7-0.4v-0.15c-0.933-0.133-1.716-0.233-2.35-0.3c-0.233,0-0.434,0-0.6,0
					c-0.367,0-0.65,0.017-0.85,0.05c-0.1,0.033-0.167,0.066-0.2,0.1c-0.234,0.069-0.367,0.186-0.4,0.35
					c-0.133,0.467-0.683,0.817-1.65,1.05c-0.567-0.067-1.183-0.067-1.85,0c0.667,0.133,1.35,0.417,2.05,0.85
					c0.333,0.367,0.55,0.867,0.65,1.5c0.167,0.967,0.25,1.467,0.25,1.5c0.333,0.833,0.717,2.067,1.15,3.7
					c0.5,2.067,0.75,3.667,0.75,4.8c-0.167,1.6-0.25,2.517-0.25,2.75c0,1.833,0.233,4.184,0.7,7.05
					c0.433,2.867,0.65,4.517,0.65,4.95c0,0.034,0,0.067,0,0.1c0,0.3-0.017,0.567-0.05,0.8c0,0.1,0,0.2,0,0.3
					c0.233,2.9,0.35,5.683,0.35,8.35l-0.3,4.55c0,0.4,0.083,1.4,0.25,3c0.133,1.6,0.2,2.617,0.2,3.05
					C38.55-41.2,38.55-41.083,38.55-40.95z M58.9-93.75v-0.1c-0.033,0.033-0.083,0.067-0.15,0.1
					C58.817-93.75,58.867-93.75,58.9-93.75z M59.15-93.7c0.067,0.034,0.117,0.05,0.15,0.05c0.733,0,1.684-0.383,2.85-1.15
					c0.1-0.034,0.2-0.083,0.3-0.15c0.633-0.466,1.233-0.767,1.8-0.9H64.2c-0.333,0-1.1,0.217-2.3,0.65
					c-0.633,0.267-1.217,0.45-1.75,0.55c0.033,0.2,0.117,0.333,0.25,0.4c-0.1-0.033-0.167-0.067-0.2-0.1h-0.15
					c-0.033,0.167-0.1,0.333-0.2,0.5c0-0.033-0.033-0.066-0.1-0.1c-0.033-0.033-0.033-0.1,0-0.2L59.15-93.7z M55.7-93.95h-0.85
					c-0.067,0.133-0.133,0.2-0.2,0.2c-0.133-0.067-0.233-0.083-0.3-0.05c-0.033-0.034-0.05,0.017-0.05,0.15v0.05
					C54.767-93.7,55.233-93.817,55.7-93.95z M58.15-93.9c0.1,0.033,0.2,0.05,0.3,0.05l0.1-0.15C58.483-93.933,58.35-93.9,58.15-93.9
					z M54.2-93.55h0.05L54.2-93.6V-93.55z M51.75-92.9c0.6-0.167,1.3-0.35,2.1-0.55c-0.133-0.1-0.233-0.15-0.3-0.15
					c-0.066,0-0.15,0.033-0.25,0.1l-0.15,0.1h-0.1c0-0.1,0-0.167,0-0.2c-0.3,0.233-0.5,0.35-0.6,0.35
					c-0.067,0-0.083-0.017-0.05-0.05l0.05-0.1C52.217-93.3,51.983-93.133,51.75-92.9z M46.5-92.45c-0.133,0.233-0.25,0.5-0.35,0.8
					c-0.533,1.6-0.917,2.633-1.15,3.1c0.1,0,0.2-0.05,0.3-0.15c0.067-0.2,0.617-1.167,1.65-2.9c0.233-0.467,0.65-0.7,1.25-0.7
					c0.333-0.034,0.867-0.083,1.6-0.15c0.367-0.066,1-0.216,1.9-0.45v-0.5c-0.233,0.133-0.417,0.267-0.55,0.4
					c-0.066,0-0.133-0.067-0.2-0.2c-0.067-0.133-0.1-0.233-0.1-0.3c0-0.033,0-0.083,0-0.15c-1.233,0.333-2.25,0.517-3.05,0.55
					c0.034,0.233,0.117,0.417,0.25,0.55v0.05c-0.066-0.1-0.283-0.233-0.65-0.4v0.25H47l-0.05-0.2
					C46.817-92.65,46.667-92.517,46.5-92.45z M41.5-93.8v-0.15c0.086-0.144,0.211-0.286,0.375-0.425
					c0.023-0.027,0.048-0.052,0.075-0.075l-0.05-0.025c-0.804-0.418-1.338-0.659-1.6-0.725c-0.533-0.033-1.017-0.066-1.45-0.1
					c0.667,0.3,1.333,0.65,2,1.05C41.083-94.083,41.3-93.933,41.5-93.8z M42.95-92.75c0.5,0.333,0.85,0.55,1.05,0.65
					c0.1,0.033,0.167,0.067,0.2,0.1c0.033-0.2,0.066-0.45,0.1-0.75c-0.1,0.033-0.183,0.05-0.25,0.05
					c-0.633-0.233-0.95-0.25-0.95-0.05H42.95z M42.9-92.8h0.05c0.1-0.034,0.183-0.117,0.25-0.25h-0.4c0-0.1,0.067-0.167,0.2-0.2
					v-0.2c-0.433,0-0.767,0.017-1,0.05C42.367-93.167,42.667-92.967,42.9-92.8z M41.7-93.65c0.1,0.066,0.183,0.133,0.25,0.2
					c0.033-0.033,0.083-0.066,0.15-0.1c0.066-0.067,0.167-0.1,0.3-0.1v-0.1h-0.5L41.7-93.65z M38.15-94.25
					c0.067,0.067,0.1,0.117,0.1,0.15c-0.367,0.067-1.033,0.083-2,0.05c-0.9-0.034-1.4-0.05-1.5-0.05
					c-0.184,0.055-0.351,0.097-0.5,0.125c-0.11,0.017-0.21,0.025-0.3,0.025c-0.067,0.1-0.1,0.2-0.1,0.3c0,0.066,0,0.133,0,0.2
					c0,0.133-0.05,0.25-0.15,0.35c-0.133-0.066-0.217-0.133-0.25-0.2c-0.034,0.033-0.133,0.1-0.3,0.2
					c-0.167,0.067-0.267,0.1-0.3,0.1v-0.25l-1,0.3c0.933,0.5,1.917,1.034,2.95,1.6V-92c-0.333-0.2-0.466-0.433-0.4-0.7
					c0.567-0.3,1-0.466,1.3-0.5c0.133-0.033,0.566-0.05,1.3-0.05c0.6,0,1.3,0.067,2.1,0.2c0.1,0.033,0.183,0.05,0.25,0.05v-0.25
					c-0.167-0.2-0.35-0.367-0.55-0.5C38.6-93.95,38.383-94.117,38.15-94.25z M31.8-92.95l0.45-0.25v-0.05
					c-0.267,0.033-0.517,0.083-0.75,0.15C31.6-93.033,31.7-92.983,31.8-92.95z M30.45-93.65c0.1,0.066,0.216,0.133,0.35,0.2
					c0.1-0.133,0.217-0.2,0.35-0.2c-0.033-0.067-0.15-0.1-0.35-0.1C30.733-93.75,30.617-93.717,30.45-93.65z M31.2-93.25l0.1,0.05
					c0.034,0,0.067-0.017,0.1-0.05H31.2z M29.65-94.05c0-0.034-0.017-0.05-0.05-0.05h-0.05L29.65-94.05z M29.3-94.25v0.05
					c0.034,0,0.067,0,0.1,0L29.3-94.25z M26.85-95.4c0.086-0.087,0.195-0.17,0.325-0.25c0.068-0.032,0.143-0.065,0.225-0.1
					c-0.055-0.011-0.114-0.02-0.175-0.025C26.72-95.888,25.978-96.063,25-96.3c-0.067,0-0.15-0.017-0.25-0.05
					c0.625,0.281,1.274,0.573,1.95,0.875C26.753-95.446,26.803-95.421,26.85-95.4z M28.6-94.55c0.1,0.033,0.217,0.083,0.35,0.15
					l0.35-0.1v-0.05H28.6z M41.95-63.65c-0.067-0.467-0.034-2.117,0.1-4.95c0.133-2.8,0.284-4.533,0.45-5.2
					c0.167-0.667,0.183-2.034,0.05-4.1c-0.133-2.067,0.034-4.267,0.5-6.6c0-0.033,0.017-0.067,0.05-0.1
					c0.5-2.733,0.767-4.15,0.8-4.25V-89h-0.2c-0.133,0.667-0.534,1.883-1.2,3.65c-0.467,1.2-0.7,2.367-0.7,3.5
					c0,0.567,0.034,1.483,0.1,2.75c0.067,1.3,0.1,2.267,0.1,2.9s-0.05,1.767-0.15,3.4c-0.067,0.867-0.1,1.566-0.1,2.1
					c-0.033,0.567-0.05,0.983-0.05,1.25c-0.034-0.033-0.083-0.1-0.15-0.2c-0.066-0.167-0.1-0.333-0.1-0.5
					c-0.1-0.067-0.184-0.1-0.25-0.1v0.65c0.167,1.467,0.25,2.633,0.25,3.5l-0.25,5.55c0,0.3,0.083,0.733,0.25,1.3
					c0.1-0.667,0.183-1.267,0.25-1.8C41.9-62.417,41.983-63.283,41.95-63.65z"/>
				<path style="fill-rule:evenodd;clip-rule:evenodd;fill:#1F453E;" d="M55.85-93.65c-0.033,0-0.083,0-0.15,0
					c-1.034,0.1-2.167,0.4-3.4,0.9c-2.1,0.9-3.383,1.417-3.85,1.55c-1.267,0.367-2.217,1.25-2.85,2.65
					c-0.567,1.8-1.083,3.216-1.55,4.25H44c-0.533,2.733-0.8,4.55-0.8,5.45c0.2,1.467,0.3,2.3,0.3,2.5c0,0.733-0.083,1.7-0.25,2.9
					c-0.2,1.5-0.3,2.467-0.3,2.9c-0.034,0.133-0.25,1.617-0.65,4.45c-0.133,0.934-0.25,1.75-0.35,2.45
					c0.033,0.367-0.05,1.233-0.25,2.6c-0.067,0.533-0.15,1.133-0.25,1.8c-0.167-0.567-0.25-1-0.25-1.3l0.25-5.55
					c0-0.867-0.083-2.033-0.25-3.5v-0.65c0.066,0,0.15,0.033,0.25,0.1c0,0.167,0.033,0.333,0.1,0.5c0.067,0.1,0.117,0.167,0.15,0.2
					c0-0.267,0.017-0.683,0.05-1.25c0-0.533,0.033-1.233,0.1-2.1c0.1-1.633,0.15-2.767,0.15-3.4s-0.033-1.6-0.1-2.9
					c-0.066-1.267-0.1-2.183-0.1-2.75c0-1.133,0.233-2.3,0.7-3.5c0.667-1.767,1.067-2.983,1.2-3.65h0.2v0.15
					c-0.033,0.1-0.3,1.517-0.8,4.25c0.4-0.7,0.7-1.55,0.9-2.55c0.1-0.5,0.217-0.9,0.35-1.2c0.066-1.4,0.15-2.35,0.25-2.85
					c0-0.133,0.117-0.533,0.35-1.2c-0.067-0.067-0.117-0.15-0.15-0.25c-0.1,0-0.15,0.05-0.15,0.15h-0.2v-0.4
					c-0.067,0.066-0.117,0.117-0.15,0.15c-0.033,0.3-0.066,0.55-0.1,0.75c-0.034-0.033-0.1-0.067-0.2-0.1
					c0.033,0.067,0.05,0.133,0.05,0.2c0,0.566-0.1,1.3-0.3,2.2c0.167,0.133,0.317,0.284,0.45,0.45c-0.5,0-1.1,0.183-1.8,0.55
					c-0.633,0.367-1.05,0.6-1.25,0.7c-0.6,0.233-1,0.517-1.2,0.85c-0.2,0.4-0.3,1.033-0.3,1.9c0,0.767,0.083,1.333,0.25,1.7
					c0.267,0.466,0.45,1.083,0.55,1.85h0.1c0-0.167,0-0.367,0-0.6c0-0.767,0.067-1.3,0.2-1.6c-0.033,0.566-0.067,1.083-0.1,1.55
					c0,0.567-0.017,1.1-0.05,1.6c0,0.033,0,0.067,0,0.1c-0.033,1.033-0.033,1.883,0,2.55c0.033,1,0.167,1.817,0.4,2.45
					c0.2,0.566,0.3,1.117,0.3,1.65c-0.133,0.833-0.2,1.467-0.2,1.9c-0.033,0.5,0.033,0.867,0.2,1.1l-0.85-0.65
					c-0.167,0.333-0.25,0.9-0.25,1.7c0,0.3,0.066,1.017,0.2,2.15c0.133,1.1,0.2,1.867,0.2,2.3c0,0.633-0.067,1.733-0.2,3.3
					c-0.133,1.567-0.2,2.617-0.2,3.15c0,0.667,0.033,1.2,0.1,1.6c0.233-0.033,0.5-0.167,0.8-0.4c0.133-0.367,0.25-0.617,0.35-0.75
					c-0.067,0.2-0.117,0.383-0.15,0.55c0.034-0.034,0.083-0.067,0.15-0.1c0,0.3,0.066,0.566,0.2,0.8s0.2,0.45,0.2,0.65
					c0,0.167-0.184,1.717-0.55,4.65c-0.367,2.9-0.55,4.767-0.55,5.6c0,0.367,0.083,0.917,0.25,1.65c0.2,0.733,0.3,1.216,0.3,1.45
					c0,0.3-0.216,0.45-0.65,0.45c-0.133,0-0.283-0.083-0.45-0.25c-0.167-0.167-0.4-0.267-0.7-0.3v0.15
					c0.067,0.133,0.183,0.3,0.35,0.5c0.133,0.167,0.316,0.35,0.55,0.55c0.333,0.333,0.5,0.733,0.5,1.2c0,1.03-0.283,3.097-0.85,6.2
					H40c-0.021,0.082-0.037,0.165-0.05,0.25c-0.125,0.469-0.259,0.985-0.4,1.55c-0.1,0.3-0.2,0.6-0.3,0.9l0.05,0.05h-0.025
					c0.163,0.429,0.404,1.013,0.725,1.75l0.9,2c0,0.167-0.1,0.333-0.3,0.5c-0.267,0.233-0.4,0.367-0.4,0.4
					c-0.2-0.1-0.434-0.15-0.7-0.15c0.033-0.566,0.017-1.383-0.05-2.45c-0.067-0.733-0.15-1.383-0.25-1.95
					c-0.7,2.333-1.067,3.55-1.1,3.65h0.3c0.2-0.1,0.383-0.3,0.55-0.6c0.233-0.4,0.367-0.633,0.4-0.7v0.5
					c0,0.033-0.317,0.667-0.95,1.9c0,0.167,0.083,0.25,0.25,0.25c0.133-0.067,0.25-0.133,0.35-0.2c0.067-0.033,0.217-0.05,0.45-0.05
					c0.167,0,0.55,0.217,1.15,0.65c0.133-0.1,0.3-0.25,0.5-0.45c0.233-0.2,0.35-0.333,0.35-0.4c0-0.066-0.233-0.633-0.7-1.7
					c-0.467-1.2-0.7-2.05-0.7-2.55l0.025-0.4H40.1c0-0.4,0.017-1.117,0.05-2.15c0.02-0.117,0.036-0.233,0.05-0.35
					c0.019-0.083,0.036-0.167,0.05-0.25c0.227-2.077,0.626-3.66,1.2-4.75c-0.028,2.02-0.044,3.604-0.05,4.75c0,0.083,0,0.167,0,0.25
					v0.05c0,1,0.05,1.816,0.15,2.45h-0.025c0.042,0.333,0.1,0.6,0.175,0.8h0.15c0.043-0.219,0.085-0.486,0.125-0.8H42
					c0.033-0.433,0.067-0.967,0.1-1.6h0.3c-0.066,0.534,0.117,0.95,0.55,1.25v0.6c-0.068-0.045-0.151-0.128-0.25-0.25
					c-0.034-0.066-0.083-0.133-0.15-0.2c0,0.066,0,0.133,0,0.2c-0.037,0.475-0.187,0.975-0.45,1.5c-0.267,0.633-0.4,0.967-0.4,1
					c0,0.233,0.35,0.9,1.05,2c0.6,0.9,1.033,1.5,1.3,1.8l0.05-0.05v-0.1c0.033,0.034,0.066,0.05,0.1,0.05
					c0.3,0.4,0.583,0.733,0.85,1c-0.066-0.133-0.167-0.333-0.3-0.6c-0.1-0.2-0.2-0.333-0.3-0.4c-0.034,0-0.05-0.017-0.05-0.05
					c-0.367-0.2-0.683-0.783-0.95-1.75c-0.233-0.833-0.35-1.583-0.35-2.25c0-0.533,0.066-1.167,0.2-1.9
					c0-0.036-0.008-0.12-0.025-0.25H43.3c-0.066-0.367-0.183-1.133-0.35-2.3c-0.034-0.133-0.067-0.667-0.1-1.6
					c0.007-3.482,0.04-5.865,0.1-7.15c0.033-1.5,0.066-2.833,0.1-4c0.034-0.267,0.05-0.55,0.05-0.85l0.15-3.85
					c0.033-0.967,0.083-1.633,0.15-2c0.067-0.533,0.1-2.55,0.1-6.05c0-0.167,0-0.35,0-0.55c0-1.2,0.033-2.466,0.1-3.8
					c0.233-6.967,0.566-12.467,1-16.5c0.3-3.1,0.833-5.3,1.6-6.6c0.333-0.6,0.917-1.25,1.75-1.95c0.966-0.167,2.066-0.25,3.3-0.25
					c0.533,0,1.267-0.25,2.2-0.75c0.966-0.5,1.917-0.75,2.85-0.75v-0.275v-0.025H55c-1.4,0.2-2.4,0.434-3,0.7
					c-0.433,0.2-0.833,0.3-1.2,0.3c-0.367-0.1-0.6-0.15-0.7-0.15c-0.5,0-1.017,0.117-1.55,0.35c-0.533,0.233-0.917,0.35-1.15,0.35
					h-0.15c0.7-0.367,1.4-0.65,2.1-0.85c0.267-0.1,0.75-0.25,1.45-0.45c-0.233,0.033-0.45,0.067-0.65,0.1
					c0.2-0.133,0.417-0.3,0.65-0.5c0.366-0.201,0.85-0.385,1.45-0.55c0.235-0.071,0.485-0.138,0.75-0.2
					c0.299-0.071,0.616-0.138,0.95-0.2c0.121-0.02,0.238-0.036,0.35-0.05c0.773-0.132,1.406-0.249,1.9-0.35
					c0.438-0.095,0.771-0.178,1-0.25c0.1,0,1.167,0,3.2,0c0.633,0,1.667-0.433,3.1-1.3c1.3-0.833,2.433-1.184,3.4-1.05
					c-0.088-0.016-0.172-0.033-0.25-0.05c-1.287-0.233-2.087-0.35-2.4-0.35c-0.567,0.133-1.167,0.434-1.8,0.9
					c-0.1,0.067-0.2,0.117-0.3,0.15c-0.5,0.367-0.933,0.667-1.3,0.9c-0.7,0.433-1.25,0.65-1.65,0.65c-0.367,0-0.867-0.067-1.5-0.2
					c-0.034,0-0.083-0.017-0.15-0.05c-0.466-0.1-0.816-0.15-1.05-0.15c-0.067,0-0.117,0-0.15,0H56.3
					C56.167-93.65,56.017-93.65,55.85-93.65z M41.35-90.35c0.267,0,0.517,0,0.75,0c0.6,0.033,1.117,0.217,1.55,0.55
					c-0.167-0.233-0.533-0.8-1.1-1.7c-0.667-1.067-1.183-1.75-1.55-2.05c-0.267-0.2-1.05-0.6-2.35-1.2
					c-0.024-0.01-0.049-0.019-0.075-0.025c-0.126-0.06-0.251-0.118-0.375-0.175c-0.17-0.081-0.337-0.164-0.5-0.25
					c-0.118-0.066-0.235-0.132-0.35-0.2c0.169,0.19,0.327,0.39,0.475,0.6c0.098,0.132,0.189,0.266,0.275,0.4
					c0,0.066,0.017,0.117,0.05,0.15c0.233,0.133,0.45,0.3,0.65,0.5c0.2,0.133,0.383,0.3,0.55,0.5V-93c-0.067,0-0.15-0.017-0.25-0.05
					L39.15-93c-0.267-0.067-0.583-0.1-0.95-0.1c-0.567,0-0.934,0.083-1.1,0.25h1c0.533,0.267,0.833,0.417,0.9,0.45
					c0.167,0.066,0.4,0.1,0.7,0.1l0.9-0.55l1.25,1.25c-0.633,0.067-1.1,0.133-1.4,0.2c-0.067-0.033-0.15-0.05-0.25-0.05
					c-0.3-0.133-0.667-0.233-1.1-0.3c-0.9-0.233-1.6-0.517-2.1-0.85v0.85c0,0.267-0.133,0.5-0.4,0.7
					c-0.233,0.167-0.533,0.25-0.9,0.25c-1.333-0.633-3.317-1.367-5.95-2.2c-0.105-0.035-0.213-0.068-0.325-0.1
					c-0.788-0.264-1.58-0.514-2.375-0.75c1.052,0.606,1.911,1.123,2.575,1.55c0.356,0.235,0.656,0.443,0.9,0.625
					c0.251,0.185,0.443,0.343,0.575,0.475c0.267,0.3,0.517,0.567,0.75,0.8c0.433,0.433,0.833,0.566,1.2,0.4c0-0.167,0-0.383,0-0.65
					c0.067,0.066,0.367,0.25,0.9,0.55c0.333,0.2,0.733,0.3,1.2,0.3c0.231,0,0.531-0.05,0.9-0.15c0.034-0.033,0.1-0.066,0.2-0.1
					c0.667-0.2,1.5-0.583,2.5-1.15c0.067,0,0.633,0.184,1.7,0.55C40.817-90.517,41.117-90.417,41.35-90.35z M26.55-89.3
					c0.867-0.034,1.75-0.067,2.65-0.1c2.033-0.1,3.35-0.15,3.95-0.15c-0.033-0.1-0.066-0.233-0.1-0.4
					c-0.066,0.034-0.15,0.05-0.25,0.05c-0.267,0-0.85-0.1-1.75-0.3c-0.933-0.233-1.65-0.35-2.15-0.35
					c-0.5,0.167-0.767,0.25-0.8,0.25c-0.167,0-0.25-0.05-0.25-0.15c-0.067-0.133-0.15-0.2-0.25-0.2s-0.2,0.05-0.3,0.15l-0.1,0.15
					c0,0.167,0.117,0.317,0.35,0.45c0.167,0.066,0.284,0.1,0.35,0.1c0.033,0.1,0.017,0.15-0.05,0.15c0-0.333-2.533-0.633-7.6-0.9
					c-0.037,0.037-0.071,0.079-0.1,0.125c-0.038,0.037-0.071,0.079-0.1,0.125c-0.039,0.063-0.072,0.13-0.1,0.2
					c0.136,0,0.269,0,0.4,0c1.887,0.007,3.221,0.057,4,0.15C25.217-89.85,25.95-89.633,26.55-89.3z M41.6-45.35
					C41.2-46.583,41-47.5,41-48.1c0-0.867,0.55-4.4,1.65-10.6c-0.033,0.3,0.017,0.817,0.15,1.55l0.15,0.9
					c-0.067-0.267-0.233,1.317-0.5,4.75c-0.233,3.433-0.35,5.967-0.35,7.6C41.967-44.267,41.8-44.75,41.6-45.35z"/>
				<path style="fill-rule:evenodd;clip-rule:evenodd;fill:#2A5950;" d="M39.2-32c0.1,0.567,0.183,1.217,0.25,1.95
					c0.066,1.066,0.083,1.883,0.05,2.45c0.267,0,0.5,0.05,0.7,0.15c0-0.033,0.133-0.167,0.4-0.4c0.2-0.167,0.3-0.333,0.3-0.5l-0.9-2
					c-0.321-0.737-0.563-1.321-0.725-1.75H39.3l-0.05-0.05v0.05C39.241-32.058,39.224-32.024,39.2-32z"/>
				<path style="fill-rule:evenodd;clip-rule:evenodd;fill:#2B5951;" d="M43.65-89.8c-0.433-0.333-0.95-0.517-1.55-0.55
					c-0.233,0-0.483,0-0.75,0c0.53,0.166,0.88,0.249,1.05,0.25c-0.067,0.001-0.117,0.035-0.15,0.1v0.05
					c-0.433,0.067-1.233,0.417-2.4,1.05c-1.233,0.6-1.85,1-1.85,1.2c0,0.434,0.083,0.867,0.25,1.3c0.2,0.4,0.333,0.683,0.4,0.85
					c0-0.1,0.05-0.15,0.15-0.15c-0.033,0.8,0.133,1.784,0.5,2.95c0.534,1.767,0.833,2.767,0.9,3h0.1
					c0.167-0.367,0.267-0.667,0.3-0.9c0-0.033,0-0.067,0-0.1c0-0.133-0.017-0.45-0.05-0.95h-0.1c-0.1-0.767-0.284-1.383-0.55-1.85
					c-0.167-0.367-0.25-0.934-0.25-1.7c0-0.867,0.1-1.5,0.3-1.9c0.2-0.333,0.6-0.617,1.2-0.85c0.2-0.1,0.617-0.333,1.25-0.7
					c0.7-0.367,1.3-0.55,1.8-0.55c-0.133-0.167-0.284-0.317-0.45-0.45v0.05C43.749-89.685,43.716-89.734,43.65-89.8z M41.6-45.35
					c0.2,0.6,0.367,1.083,0.5,1.45c0-1.633,0.117-4.167,0.35-7.6c0.267-3.433,0.433-5.017,0.5-4.75l-0.15-0.9
					c-0.133-0.733-0.183-1.25-0.15-1.55C41.55-52.5,41-48.967,41-48.1C41-47.5,41.2-46.583,41.6-45.35z M37-92.6
					c0.5,0.333,1.2,0.617,2.1,0.85c0.433,0.067,0.8,0.167,1.1,0.3c0.1,0,0.183,0.017,0.25,0.05c0.3-0.067,0.767-0.133,1.4-0.2
					l-1.25-1.25l-0.9,0.55c-0.3,0-0.534-0.034-0.7-0.1c-0.067-0.033-0.367-0.184-0.9-0.45h-1c-0.033,0.067-0.067,0.117-0.1,0.15
					V-92.6z"/>
				<path style="fill-rule:evenodd;clip-rule:evenodd;fill-opacity:0.451;" d="M52.25-92.05c-0.601,0.165-1.084,0.349-1.45,0.55
					c-0.233,0.2-0.45,0.367-0.65,0.5c0.2-0.033,0.417-0.067,0.65-0.1c0.1,0,0.2,0,0.3,0c1.5-0.167,2.5-0.283,3-0.35h2.2v0.1v0.025
					l0.15-0.025v-0.075v-0.025c-0.306-0.188-0.856-0.28-1.65-0.275c-0.795,0.008-1.404,0.016-1.825,0.025
					c-0.418,0.003-0.693-0.063-0.825-0.2C52.165-91.959,52.198-92.009,52.25-92.05z M41.9-94.475c0.113-0.063,0.247-0.171,0.4-0.325
					c-0.662-0.41-2.187-0.626-4.575-0.65c-0.133,0-0.266,0-0.4,0H37.3c0.016,0.019,0.032,0.036,0.05,0.05
					c0.024,0.002,0.049,0.002,0.075,0c0.172,0.017,0.355,0.034,0.55,0.05c0.023-0.001,0.049-0.001,0.075,0
					c0.25,0.017,0.517,0.033,0.8,0.05c0.433,0.033,0.917,0.066,1.45,0.1C40.562-95.134,41.096-94.893,41.9-94.475z M31.1-91.2
					c-0.132-0.131-0.324-0.29-0.575-0.475c-0.131,0.01-0.272,0.019-0.425,0.025h-3.55c-1.1,0.267-2.017,0.4-2.75,0.4
					c-0.2,0-0.417-0.017-0.65-0.05c-0.433-0.034-0.65-0.067-0.65-0.1c-0.138,0-0.33,0.025-0.575,0.075
					c-0.244,0.053-0.535,0.128-0.875,0.225c-0.71,0.208-1.102,0.399-1.175,0.575c-0.017,0.028-0.025,0.053-0.025,0.075
					c0,0.063,0.066,0.114,0.2,0.15c0.029-0.046,0.063-0.088,0.1-0.125c0.029-0.046,0.063-0.088,0.1-0.125
					c0.333-0.233,0.8-0.383,1.4-0.45c0.667-0.067,1.434-0.033,2.3,0.1c0.7,0.1,1.4,0.033,2.1-0.2c0.8-0.233,1.333-0.35,1.6-0.35
					c0.434,0,1.017,0.083,1.75,0.25C29.933-91.067,30.5-91.067,31.1-91.2z M15.3-97.5c0.084,0.01,0.184,0.018,0.3,0.025
					c0.063,0.011,0.129,0.019,0.2,0.025c0.084,0.009,0.176,0.018,0.275,0.025c0.683,0.07,1.691,0.162,3.025,0.275
					c1.033,0.066,1.816,0.133,2.35,0.2c0.4,0.067,0.683,0.083,0.85,0.05c0.534,0.1,1.35,0.283,2.45,0.55
					c0.1,0.033,0.183,0.05,0.25,0.05c0.978,0.237,1.72,0.412,2.225,0.525L27.25-95.8c-1.633-0.633-3.45-1.083-5.45-1.35l-6.35-0.6
					L15-97.7v0.05C15.113-97.593,15.213-97.543,15.3-97.5z"/>
				<path style="fill-rule:evenodd;clip-rule:evenodd;fill-opacity:0.2;" d="M54.3-92.5c-0.112,0.014-0.229,0.03-0.35,0.05
					c-0.334,0.063-0.651,0.129-0.95,0.2c-0.265,0.063-0.515,0.129-0.75,0.2c-0.052,0.041-0.085,0.09-0.1,0.15
					c0.132,0.136,0.407,0.203,0.825,0.2c0.421-0.009,1.029-0.017,1.825-0.025c0.794-0.005,1.344,0.087,1.65,0.275v0.025
					c0.396-0.193,0.179-0.335-0.65-0.425c-1.133-0.13-1.7-0.28-1.7-0.45C54.1-92.373,54.167-92.439,54.3-92.5z M64.25-95.85
					c0.313,0,1.113,0.117,2.4,0.35l0.85-0.15v-0.1c-1-0.2-1.917-0.3-2.75-0.3c-1.133,0-1.95,0.15-2.45,0.45
					c-0.367,0.233-0.8,0.383-1.3,0.45c-0.667,0.133-1.017,0.2-1.05,0.2c0.021,0.146,0.087,0.246,0.2,0.3
					c0.533-0.1,1.117-0.283,1.75-0.55c1.2-0.433,1.967-0.65,2.3-0.65H64.25z M41.9-94.475l0.05,0.025
					c-0.027,0.023-0.052,0.048-0.075,0.075c0.202-0.049,0.394-0.099,0.575-0.15c0.158-0.041,0.308-0.083,0.45-0.125
					c0.031-0.025,0.031-0.134,0-0.325c-0.027-0.189-0.519-0.364-1.475-0.525c-0.955-0.163-1.555-0.254-1.8-0.275
					c-0.026-0.002-0.051-0.002-0.075,0c-0.8-0.083-1.633-0.059-2.5,0.075v0.1l0.275,0.15c0.134,0,0.267,0,0.4,0
					c2.388,0.024,3.913,0.241,4.575,0.65C42.146-94.646,42.013-94.538,41.9-94.475z M33.95-93.95c0.089,0,0.189-0.008,0.3-0.025
					c0.149-0.028,0.316-0.07,0.5-0.125c0.1,0,0.6,0.017,1.5,0.05c0.967,0.033,1.633,0.017,2-0.05c0-0.033-0.033-0.083-0.1-0.15
					c-0.033-0.033-0.05-0.083-0.05-0.15c-0.085-0.134-0.177-0.268-0.275-0.4c-0.165,0.207-0.69,0.323-1.575,0.35
					C35.017-94.383,34.25-94.217,33.95-93.95z M27.225-95.775c0.061,0.005,0.12,0.014,0.175,0.025
					c-0.082,0.035-0.157,0.068-0.225,0.1c0.18,0.015,0.338-0.018,0.475-0.1c0.3-0.167,0.467-0.25,0.5-0.25l-0.05-0.05
					c-0.27-0.06-1.803-0.427-4.6-1.1c-0.321-0.083-0.654-0.166-1-0.25l-0.7-0.175c-0.679-0.167-1.413-0.284-2.2-0.35
					c-0.784-0.067-1.667-0.117-2.65-0.15c-0.986-0.032-2.003-0.057-3.05-0.075c-0.03,0.273,0.437,0.489,1.4,0.65
					c-0.086-0.043-0.187-0.093-0.3-0.15v-0.05l0.45-0.05l6.35,0.6c2,0.267,3.817,0.717,5.45,1.35L27.225-95.775z M30.525-91.675
					c-0.244-0.182-0.544-0.39-0.9-0.625c-0.294,0.117-0.536,0.125-0.725,0.025c-0.185-0.095-1.385,0.063-3.6,0.475l-1.6,0.15
					c-0.314,0-0.906,0.108-1.775,0.325c0.246-0.049,0.437-0.074,0.575-0.075c0,0.033,0.217,0.066,0.65,0.1
					c0.233,0.033,0.45,0.05,0.65,0.05c0.733,0,1.65-0.133,2.75-0.4h3.55C30.252-91.656,30.394-91.665,30.525-91.675z"/>
				<path style="fill-rule:evenodd;clip-rule:evenodd;fill:#193E37;" d="M59.15-93.7c-0.066,0-0.15-0.017-0.25-0.05
					c-0.033,0-0.083,0-0.15,0s-0.167-0.033-0.3-0.1c-0.1,0-0.2-0.017-0.3-0.05c-0.066,0.033-0.133,0.05-0.2,0.05
					c-0.265,0.033-0.398,0.15-0.4,0.35c-0.001-0.103-0.051-0.253-0.15-0.45l-0.3,0.3h-0.15v-0.3l-0.45,0.3
					c0.233,0,0.583,0.05,1.05,0.15c0.067,0.033,0.117,0.05,0.15,0.05c0.633,0.133,1.133,0.2,1.5,0.2c0.4,0,0.95-0.217,1.65-0.65
					c0.367-0.233,0.8-0.533,1.3-0.9c-1.167,0.767-2.117,1.15-2.85,1.15C59.267-93.65,59.217-93.667,59.15-93.7z M55.85-93.65
					c0.167,0,0.316,0,0.45,0c0-0.133,0.017-0.2,0.05-0.2v-0.1C56.15-93.817,55.983-93.717,55.85-93.65z M55.7-93.95
					c-0.467,0.133-0.934,0.25-1.4,0.35c0,0.033-0.017,0.05-0.05,0.05H54.2c-0.133,0.033-0.25,0.066-0.35,0.1
					c-0.8,0.2-1.5,0.383-2.1,0.55H51.7c-0.9,0.233-1.534,0.383-1.9,0.45c-0.733,0.067-1.267,0.117-1.6,0.15
					c-0.6,0-1.017,0.233-1.25,0.7c-1.034,1.733-1.583,2.7-1.65,2.9c-0.1,0.1-0.2,0.15-0.3,0.15c0.233-0.467,0.617-1.5,1.15-3.1
					c0.1-0.3,0.217-0.567,0.35-0.8c-0.067,0.067-0.15,0.1-0.25,0.1v-0.2c-0.2,0.233-0.417,0.35-0.65,0.35
					c0-0.066,0.05-0.15,0.15-0.25c0.067-0.066,0.133-0.1,0.2-0.1v-0.2c-0.067,0-0.15,0.067-0.25,0.2h-0.15v-0.3
					c-0.2,0.067-0.333,0.117-0.4,0.15c-0.033,0.034-0.066,0.05-0.1,0.05v0.1c-0.033,0.066-0.066,0.117-0.1,0.15
					c-0.233,0.667-0.35,1.066-0.35,1.2c-0.1,0.5-0.184,1.45-0.25,2.85v0.05c-0.067,1.3-0.217,2.316-0.45,3.05v0.95H44h0.05
					c0.467-1.034,0.983-2.45,1.55-4.25c0.633-1.4,1.583-2.284,2.85-2.65c0.466-0.133,1.75-0.65,3.85-1.55
					c1.233-0.5,2.367-0.8,3.4-0.9l0.25-0.15v-0.15H55.7z M42.95-92.75L42.9-92.8c-0.233-0.167-0.533-0.367-0.9-0.6l-0.05-0.05
					c-0.067-0.066-0.15-0.133-0.25-0.2c-0.067-0.033-0.133-0.083-0.2-0.15c-0.2-0.133-0.417-0.284-0.65-0.45
					c-0.667-0.4-1.333-0.75-2-1.05c-0.283-0.017-0.55-0.034-0.8-0.05c-0.026-0.001-0.051-0.001-0.075,0
					c-0.195-0.016-0.378-0.033-0.55-0.05c-0.026,0.002-0.051,0.002-0.075,0c0.115,0.067,0.232,0.134,0.35,0.2
					c0.163,0.086,0.33,0.169,0.5,0.25c0.124,0.058,0.249,0.116,0.375,0.175c0.025,0.006,0.051,0.015,0.075,0.025
					c1.3,0.6,2.083,1,2.35,1.2c0.367,0.3,0.883,0.983,1.55,2.05c0.567,0.9,0.934,1.467,1.1,1.7c0.066,0.065,0.099,0.115,0.1,0.15
					v-0.05c0.2-0.9,0.3-1.633,0.3-2.2c0-0.067-0.017-0.133-0.05-0.2C43.8-92.2,43.45-92.417,42.95-92.75z M29.3-94.25
					c-0.133-0.033-0.25-0.083-0.35-0.15c-0.133-0.067-0.25-0.117-0.35-0.15h-0.05c-0.133,0-0.216,0.017-0.25,0.05
					c-0.065,0-0.098,0.033-0.1,0.1v-0.15l-0.05-0.1c-0.2,0.133-0.267,0.233-0.2,0.3c-0.233-0.033-0.35-0.167-0.35-0.4
					c-0.2,0.067-0.383,0.1-0.55,0.1c-0.133,0-0.267-0.067-0.4-0.2l0.2-0.45v-0.1c-0.047-0.021-0.097-0.046-0.15-0.075
					c-0.676-0.302-1.326-0.594-1.95-0.875c-1.1-0.267-1.917-0.45-2.45-0.55c-0.167,0.033-0.45,0.017-0.85-0.05
					c-0.534-0.066-1.317-0.133-2.35-0.2c-1.333-0.113-2.342-0.205-3.025-0.275c-0.099-0.008-0.191-0.016-0.275-0.025
					c-0.07-0.006-0.137-0.014-0.2-0.025c-0.116-0.007-0.216-0.015-0.3-0.025c0.123,0.079,0.248,0.154,0.375,0.225
					c1.183,0.689,2.408,1.064,3.675,1.125c2.1,0.1,3.316,0.2,3.65,0.3c0.533,0.133,1.85,0.8,3.95,2h0.1
					c0.795,0.236,1.587,0.486,2.375,0.75c0.112,0.032,0.22,0.065,0.325,0.1c2.633,0.833,4.617,1.567,5.95,2.2
					c0.367,0,0.667-0.083,0.9-0.25c0.267-0.2,0.4-0.434,0.4-0.7v-0.85v-0.1c0.033-0.033,0.067-0.083,0.1-0.15
					c0.167-0.167,0.533-0.25,1.1-0.25c0.367,0,0.683,0.033,0.95,0.1l-0.05-0.05c-0.8-0.133-1.5-0.2-2.1-0.2
					c-0.733,0-1.167,0.017-1.3,0.05c-0.3,0.034-0.733,0.2-1.3,0.5c-0.066,0.267,0.067,0.5,0.4,0.7v0.65
					c-1.033-0.566-2.017-1.1-2.95-1.6H31.8c-0.1-0.033-0.2-0.083-0.3-0.15c-0.067,0-0.133-0.033-0.2-0.1l-0.1-0.05l-0.7,0.05
					c0.1-0.033,0.2-0.1,0.3-0.2v-0.05c-0.133-0.066-0.25-0.133-0.35-0.2c-0.1,0.066-0.25,0.15-0.45,0.25
					c0.033-0.1-0.017-0.184-0.15-0.25c-0.2-0.133-0.317-0.2-0.35-0.2c0-0.066,0-0.117,0-0.15h0.15v-0.05l-0.1-0.05
					c-0.066-0.033-0.15-0.066-0.25-0.1V-94.25z"/>
				<path style="fill-rule:evenodd;clip-rule:evenodd;fill:#17322D;" d="M33.05-89.95h0.05L33.05-90
					c-0.367,0.167-0.767,0.033-1.2-0.4c-0.233-0.233-0.483-0.5-0.75-0.8c-0.6,0.133-1.167,0.133-1.7,0
					c-0.733-0.167-1.316-0.25-1.75-0.25c-0.267,0-0.8,0.117-1.6,0.35c-0.7,0.233-1.4,0.3-2.1,0.2c-0.867-0.133-1.633-0.167-2.3-0.1
					c-0.6,0.067-1.066,0.217-1.4,0.45c5.067,0.267,7.6,0.566,7.6,0.9c0.066,0,0.083-0.05,0.05-0.15c-0.066,0-0.183-0.034-0.35-0.1
					c-0.233-0.133-0.35-0.283-0.35-0.45l0.1-0.15c0.1-0.1,0.2-0.15,0.3-0.15s0.183,0.066,0.25,0.2c0,0.1,0.083,0.15,0.25,0.15
					c0.033,0,0.3-0.083,0.8-0.25c0.5,0,1.217,0.117,2.15,0.35c0.9,0.2,1.483,0.3,1.75,0.3C32.9-89.9,32.983-89.917,33.05-89.95z
					 M56.3-91.35v-0.1h-2.2c-0.5,0.067-1.5,0.184-3,0.35c-0.1,0-0.2,0-0.3,0c-0.7,0.2-1.183,0.35-1.45,0.45
					c-0.7,0.2-1.4,0.483-2.1,0.85h0.15c0.233,0,0.617-0.117,1.15-0.35c0.534-0.233,1.05-0.35,1.55-0.35c0.1,0,0.333,0.05,0.7,0.15
					c0.367,0,0.767-0.1,1.2-0.3c0.6-0.267,1.6-0.5,3-0.7H56.3z"/>
			</g>
		</g>
		<g>
			<g>
				<g>
					<path style="fill-rule:evenodd;clip-rule:evenodd;fill:#315544;" d="M68.55-5.3c0.4-0.133,0.8-0.3,1.2-0.5
						c1.733-0.767,2.6-1.75,2.6-2.95c0-1.967-3.05-3.833-9.15-5.6c-5.6-1.601-13.642-3.659-24.125-6.175
						c-10.484-2.515-17.759-3.365-21.825-2.55c-4.066,0.815-6.958,1.223-8.675,1.225c-1.717,0.001-2.692,0.084-2.925,0.25
						c-0.167,0.233-0.333,0.467-0.5,0.7c-0.4,0.2-0.65,0.383-0.75,0.55c-0.1,0.2-0.15,0.4-0.15,0.6c0,0.5,0.317,1,0.95,1.5
						c0.066,0.1,0.133,0.2,0.2,0.3c0.367,0.6,0.95,1.284,1.75,2.05c0.1,0.1,0.217,0.2,0.35,0.3c0.067,0,0.15,0,0.25,0
						c0.733,0,1.35,0.083,1.85,0.25l0.45-0.05c-0.466-0.233-0.933-0.617-1.4-1.15c-0.533-0.6-0.783-1.034-0.75-1.3
						C8.367-17.95,8.633-18,8.7-18c0.4,0,0.9,0.067,1.5,0.2c0.6,0.133,1,0.216,1.2,0.25h0.7c-0.1-0.133-0.65-0.4-1.65-0.8v-0.2
						h0.025c0.623-0.478,3.398-0.794,8.325-0.95h0.05c0.042,0.014,0.092,0.031,0.15,0.05c0.1,0.034,0.15,0.017,0.15-0.05
						c1.31,0.022,2.76,0.155,4.35,0.4c0.633,0.133,1.333,0.4,2.1,0.8c0.3,0.2,0.85,0.617,1.65,1.25c0.382,0.254,0.915,0.555,1.6,0.9
						l0.75,0.3l-0.45-0.45v-0.25c-0.085-0.096-0.186-0.213-0.3-0.35c-0.367-0.467-0.533-0.783-0.5-0.95c0.3-0.1,1.3-0.15,3-0.15
						c1.767,0,3.867,0.183,6.3,0.55c1.6,0.233,5.083,0.784,10.45,1.65c1.066,0.167,2.6,0.683,4.6,1.55c0.667,0.3,1,0.8,1,1.5
						c0,0.086-0.008,0.161-0.025,0.225c0.027,0.01,0.052,0.019,0.075,0.025v0.15L52.4-12.3l-0.05,0.05
						c0.185,0.027,0.368,0.052,0.55,0.075c0.151,0.027,0.301,0.052,0.45,0.075c3.661,0.538,6.594,1.021,8.8,1.45
						c4.467,0.8,6.7,1.65,6.7,2.55c0,0.733-0.633,1.1-1.9,1.1c-0.467,0-2.05-0.183-4.75-0.55c0.3,0.2,0.683,0.4,1.15,0.6
						c1.033,0.333,1.617,0.534,1.75,0.6c0.3,0.1,1.25,0.383,2.85,0.85C68.183-5.433,68.383-5.367,68.55-5.3z"/>
					<path style="fill-rule:evenodd;clip-rule:evenodd;fill:#3F6D58;" d="M7.5-15.6c1.3,1.167,2.517,1.95,3.65,2.35
						c4.633,1.567,10.333,3.05,17.1,4.45c3.9,0.833,10.1,1.633,18.6,2.4c10.333,1.066,16.566,1.6,18.7,1.6
						c0.967,0,1.967-0.167,3-0.5c-0.167-0.067-0.367-0.133-0.6-0.2c-1.6-0.467-2.55-0.75-2.85-0.85
						c-0.133-0.066-0.717-0.267-1.75-0.6c-0.467-0.2-0.85-0.4-1.15-0.6C64.9-7.183,66.483-7,66.95-7c1.267,0,1.9-0.367,1.9-1.1
						c0-0.9-2.233-1.75-6.7-2.55c-2.206-0.429-5.139-0.912-8.8-1.45c-0.149-0.023-0.299-0.048-0.45-0.075
						c-0.182-0.023-0.365-0.048-0.55-0.075l0.05-0.05l1.35-0.05v-0.15c-0.023-0.006-0.048-0.015-0.075-0.025
						c0.017-0.064,0.025-0.139,0.025-0.225c0-0.7-0.333-1.2-1-1.5c-2-0.867-3.534-1.383-4.6-1.55
						c-5.367-0.867-8.85-1.417-10.45-1.65c-2.433-0.367-4.533-0.55-6.3-0.55c-1.7,0-2.7,0.05-3,0.15
						c-0.033,0.167,0.133,0.483,0.5,0.95c0.114,0.137,0.214,0.254,0.3,0.35v0.25l0.45,0.45l-0.75-0.3
						c-0.685-0.345-1.218-0.646-1.6-0.9c-0.8-0.633-1.35-1.05-1.65-1.25c-0.767-0.4-1.467-0.667-2.1-0.8
						c-1.59-0.245-3.04-0.378-4.35-0.4c0,0.067-0.05,0.083-0.15,0.05c-0.058-0.019-0.108-0.036-0.15-0.05H18.8
						c-4.927,0.156-7.702,0.473-8.325,0.95H10.45v0.2c1,0.4,1.55,0.667,1.65,0.8h-0.7c-0.2-0.034-0.6-0.117-1.2-0.25
						C9.6-17.933,9.1-18,8.7-18c-0.067,0-0.333,0.05-0.8,0.15c-0.033,0.267,0.217,0.7,0.75,1.3c0.467,0.533,0.934,0.917,1.4,1.15
						L9.6-15.35c-0.5-0.167-1.117-0.25-1.85-0.25C7.65-15.6,7.567-15.6,7.5-15.6z M55.95-7.8c0.4,0.333,0.583,0.6,0.55,0.8h-0.75
						c-0.1-0.033-0.783-0.083-2.05-0.15c-1.367-0.133-2.45-0.35-3.25-0.65c-0.2-0.067-0.934-0.233-2.2-0.5
						c-1.1-0.233-1.767-0.4-2-0.5c0.1,0.2,0.183,0.35,0.25,0.45L45.95-8.3l-4.35-1c-0.667-0.167-1.85-0.417-3.55-0.75
						c-1.4-0.3-2.2-0.55-2.4-0.75l0.05,0.65l-1.35,0.05c0.5,0.233-0.867,0.033-4.1-0.6s-5.433-1.066-6.6-1.3
						c-1.2-0.233-1.85-0.567-1.95-1c-0.333-0.033-0.95-0.017-1.85,0.05c-0.333,0-0.617-0.017-0.85-0.05
						c-0.367-0.067-0.667-0.167-0.9-0.3c-0.567-0.133-1.4-0.317-2.5-0.55c-2.067-0.566-3.517-1.2-4.35-1.9v-0.3l1.2-0.05
						c-0.034-0.033-0.167-0.1-0.4-0.2c-0.066-0.067-0.1-0.184-0.1-0.35c0-0.2,0.216-0.283,0.65-0.25
						c1.367,0.267,2.583,0.483,3.65,0.65v-0.05c-0.067,0-0.45-0.117-1.15-0.35c-0.7-0.233-1.15-0.4-1.35-0.5v-0.15h0.5
						c1.9,0.5,3.433,0.6,4.6,0.3l1.75-0.1c1.6,0,3.117,0.15,4.55,0.45c0.3,0.066,0.983,0.316,2.05,0.75
						c0.933,0.4,1.517,0.6,1.75,0.6c1.867,0.233,2.267,0.15,1.2-0.25l-0.3-0.25v-0.05h0.3c1,0.2,2.15,0.4,3.45,0.6l1.55,0.95
						c-0.333-0.233-0.483-0.4-0.45-0.5c0.033-0.067,0.233-0.1,0.6-0.1c0.733,0,3.184,0.25,7.35,0.75c4.167,0.5,6.767,0.967,7.8,1.4
						c0.4,0.2,0.683,0.317,0.85,0.35c-0.133,0.167-0.7,0.267-1.7,0.3c-0.7,0-1.95,0.017-3.75,0.05V-12c3.8,0.4,6.867,0.783,9.2,1.15
						c4.367,0.667,7,1.45,7.9,2.35v0.15L62.1-8.3l-2.6-0.2h-0.4c2,1.1,3.333,1.85,4,2.25v0.15h-0.6
						C60.9-6.167,58.717-6.733,55.95-7.8z M26.75-14.55c1.633,0.466,2.567,0.7,2.8,0.7c0.267-0.167,0.5-0.25,0.7-0.25l0.7,0.1h0.25
						v-0.1c-0.034-0.066-0.1-0.117-0.2-0.15v-0.15c0.233,0.1,1.067,0.316,2.5,0.65c1.567,0.333,2.6,0.5,3.1,0.5
						c0.2-0.1,0.383-0.15,0.55-0.15c0.2,0.367,0.733,0.65,1.6,0.85c1.3,0.2,2.467,0.433,3.5,0.7h-1.6
						c0.133,0.3,0.667,0.617,1.6,0.95c0.967,0.333,2,0.55,3.1,0.65c-1.567-0.1-2.767-0.25-3.6-0.45c-0.067,0-0.7-0.183-1.9-0.55
						H39.3c-0.267-0.033-0.6-0.1-1-0.2c-0.5-0.066-1.066-0.15-1.7-0.25c-0.167-0.033-0.35-0.066-0.55-0.1
						c-0.466-0.034-0.983-0.1-1.55-0.2c-0.333-0.067-0.667-0.15-1-0.25c0.667,0.233,1.35,0.433,2.05,0.6
						c0.534,0.167,1.083,0.3,1.65,0.4c3.667,0.9,7.3,1.4,10.9,1.5h0.7c0.067,0,0.15,0,0.25,0c0.4-0.033,0.7-0.05,0.9-0.05v-0.1
						c-0.267-0.1-1.583-0.35-3.95-0.75c-2.2-0.4-3.3-0.7-3.3-0.9l0.25-0.4c0-0.267-0.717-0.55-2.15-0.85l-2.35-0.55
						c0.066-0.033,0.133-0.1,0.2-0.2L38.6-13.6c-0.2-0.033-0.667-0.117-1.4-0.25c-0.133,0-0.25,0.033-0.35,0.1s-0.233,0.1-0.4,0.1
						c-0.434,0-1.517-0.133-3.25-0.4c-0.367-0.067-0.767-0.233-1.2-0.5c-0.433-0.233-0.8-0.35-1.1-0.35
						c-0.066,0-0.167,0.05-0.3,0.15c-0.133,0.133-0.3,0.183-0.5,0.15l-1.05,0.1c-0.333,0-0.933-0.133-1.8-0.4
						c-0.867-0.233-1.4-0.35-1.6-0.35l-0.5,0.1l0.05,0.1L26.75-14.55z"/>
					<path style="fill-rule:evenodd;clip-rule:evenodd;fill:#4D8069;" d="M55.95-7.8c-0.036-0.034-0.069-0.05-0.1-0.05V-7.9
						C55.881-7.869,55.915-7.835,55.95-7.8c2.767,1.066,4.95,1.633,6.55,1.7h0.6v-0.15c-0.667-0.4-2-1.15-4-2.25h0.4l2.6,0.2
						l0.85-0.05V-8.5c-0.9-0.9-3.534-1.683-7.9-2.35c-2.333-0.367-5.4-0.75-9.2-1.15v-0.05c1.8-0.034,3.05-0.05,3.75-0.05
						c1-0.033,1.566-0.133,1.7-0.3c-0.167-0.033-0.45-0.15-0.85-0.35c-1.034-0.433-3.633-0.9-7.8-1.4
						c-4.167-0.5-6.617-0.75-7.35-0.75c-0.367,0-0.566,0.033-0.6,0.1c-0.034,0.1,0.117,0.267,0.45,0.5l-1.55-0.95
						c-1.3-0.2-2.45-0.4-3.45-0.6h-0.3v0.05l0.3,0.25c1.067,0.4,0.667,0.483-1.2,0.25c-0.233,0-0.817-0.2-1.75-0.6
						c-1.067-0.434-1.75-0.684-2.05-0.75c-1.433-0.3-2.95-0.45-4.55-0.45L18.85-17c-1.167,0.3-2.7,0.2-4.6-0.3h-0.5v0.15
						c0.2,0.1,0.65,0.267,1.35,0.5c0.7,0.233,1.083,0.35,1.15,0.35v0.05c-1.067-0.167-2.283-0.383-3.65-0.65
						c-0.434-0.033-0.65,0.05-0.65,0.25c0,0.167,0.033,0.283,0.1,0.35c0.233,0.1,0.367,0.167,0.4,0.2l-1.2,0.05v0.3
						c0.833,0.7,2.283,1.333,4.35,1.9c1.1,0.233,1.933,0.417,2.5,0.55c0.233,0.133,0.533,0.233,0.9,0.3
						c0.233,0.033,0.517,0.05,0.85,0.05c0.9-0.066,1.517-0.083,1.85-0.05c0.1,0.433,0.75,0.767,1.95,1
						c1.167,0.233,3.367,0.667,6.6,1.3s4.6,0.833,4.1,0.6l1.35-0.05l-0.05-0.65c0.2,0.2,1,0.45,2.4,0.75
						c1.7,0.333,2.883,0.583,3.55,0.75l4.35,1l0.55-0.05c-0.067-0.1-0.15-0.25-0.25-0.45c0.233,0.1,0.9,0.267,2,0.5
						c1.267,0.267,2,0.433,2.2,0.5c0.8,0.3,1.883,0.517,3.25,0.65c1.267,0.066,1.95,0.117,2.05,0.15h0.75
						C56.533-7.2,56.35-7.467,55.95-7.8z M35.55-11.65c-1.667-0.267-2.85-0.483-3.55-0.65c-1.067-0.233-1.7-0.517-1.9-0.85
						c-0.067-0.133-0.2-0.25-0.4-0.35h-0.1c-0.4-0.067-0.783-0.167-1.15-0.3c-0.6-0.167-1.133-0.4-1.6-0.7l-0.1-0.05l-1.55-0.5
						l-0.05-0.1l0.5-0.1c0.2,0,0.733,0.117,1.6,0.35c0.867,0.267,1.467,0.4,1.8,0.4l1.05-0.1c0.2,0.033,0.367-0.017,0.5-0.15
						c0.133-0.1,0.233-0.15,0.3-0.15c0.3,0,0.667,0.117,1.1,0.35c0.433,0.267,0.833,0.433,1.2,0.5c1.733,0.267,2.816,0.4,3.25,0.4
						c0.167,0,0.3-0.033,0.4-0.1s0.217-0.1,0.35-0.1c0.733,0.133,1.2,0.217,1.4,0.25l0.05,0.05c-0.066,0.1-0.133,0.167-0.2,0.2
						l2.35,0.55c1.434,0.3,2.15,0.583,2.15,0.85l-0.25,0.4c0,0.2,1.1,0.5,3.3,0.9c2.367,0.4,3.683,0.65,3.95,0.75v0.1
						c-0.2,0-0.5,0.017-0.9,0.05c-0.1,0-0.183,0-0.25,0h-0.7c-3.6-0.1-7.233-0.6-10.9-1.5C36.633-11.35,36.083-11.483,35.55-11.65z"
						/>
					<path style="fill-rule:evenodd;clip-rule:evenodd;fill:#3B5B4C;" d="M26.75-14.55l0.1,0.05c0.467,0.3,1,0.533,1.6,0.7
						c0.367,0.133,0.75,0.233,1.15,0.3h0.1c0.2,0.1,0.333,0.217,0.4,0.35c0.2,0.333,0.833,0.617,1.9,0.85
						c0.7,0.167,1.883,0.383,3.55,0.65c-0.7-0.167-1.383-0.367-2.05-0.6c-0.333-0.067-0.65-0.15-0.95-0.25
						c-0.4-0.1-0.767-0.2-1.1-0.3c-0.1-0.034-0.2-0.067-0.3-0.1c-0.133-0.033-0.25-0.083-0.35-0.15c-0.3-0.1-0.517-0.184-0.65-0.25
						c-0.066-0.034-0.117-0.067-0.15-0.1c-0.067-0.033-0.1-0.067-0.1-0.1l-0.05-0.05l0.05-0.15h1.7c1.433,0.133,3.233,0.45,5.4,0.95
						c2.4,0.567,3.6,1.033,3.6,1.4l-0.05,0.1h-0.7c1.2,0.367,1.833,0.55,1.9,0.55c0.833,0.2,2.033,0.35,3.6,0.45
						c-1.1-0.1-2.133-0.317-3.1-0.65c-0.933-0.333-1.467-0.65-1.6-0.95h1.6c-1.033-0.267-2.2-0.5-3.5-0.7
						c-0.867-0.2-1.4-0.483-1.6-0.85c-0.167,0-0.35,0.05-0.55,0.15c-0.5,0-1.533-0.167-3.1-0.5c-1.433-0.333-2.267-0.55-2.5-0.65
						v0.15c0.1,0.033,0.167,0.083,0.2,0.15v0.1h-0.25l-0.7-0.1c-0.2,0-0.433,0.083-0.7,0.25C29.317-13.85,28.383-14.083,26.75-14.55
						z"/>
					<path style="fill-rule:evenodd;clip-rule:evenodd;fill:#4A7461;" d="M30.8-13.05c-0.033-0.034-0.05-0.067-0.05-0.1l0.85-0.1
						c0.867,0,2.15,0.217,3.85,0.65c1.6,0.4,2.55,0.783,2.85,1.15c0.4,0.1,0.733,0.167,1,0.2h0.55h0.7l0.05-0.1
						c0-0.367-1.2-0.833-3.6-1.4c-2.167-0.5-3.967-0.817-5.4-0.95h-1.7l-0.05,0.15l0.05,0.05c0,0.033,0.033,0.067,0.1,0.1
						c0.033,0.033,0.083,0.066,0.15,0.1C30.283-13.233,30.5-13.15,30.8-13.05z"/>
					<path style="fill-rule:evenodd;clip-rule:evenodd;fill:#7DBEA0;" d="M36.05-11.8l-2.85-0.75l-0.65,0.05
						c0.3,0.1,0.617,0.183,0.95,0.25c0.333,0.1,0.667,0.183,1,0.25C35.067-11.9,35.583-11.833,36.05-11.8z"/>
					<path style="fill-rule:evenodd;clip-rule:evenodd;fill:#62967E;" d="M32.55-12.5l0.65-0.05l2.85,0.75
						c0.2,0.033,0.383,0.066,0.55,0.1c0.633,0.1,1.2,0.184,1.7,0.25c-0.3-0.367-1.25-0.75-2.85-1.15
						c-1.7-0.433-2.983-0.65-3.85-0.65l-0.85,0.1c0,0.033,0.017,0.066,0.05,0.1c0.1,0.066,0.217,0.117,0.35,0.15
						c0.1,0.033,0.2,0.066,0.3,0.1C31.783-12.7,32.15-12.6,32.55-12.5z"/>
				</g>
			</g>
			<g>
				<g>
					<path style="fill-rule:evenodd;clip-rule:evenodd;fill:#4F9286;" d="M74.5-3.75c-0.3,0.467-0.733,0.883-1.3,1.25
						c-0.133,0.067-0.25,0.133-0.35,0.2c-0.2,0.133-0.417,0.25-0.65,0.35c-1.767,0.8-4.383,1.333-7.85,1.6l-1.3,0.05
						c-0.1,0.033-0.383,0.05-0.85,0.05c-0.667,0-1.7-0.05-3.1-0.15c-2.333-0.167-4.55-0.367-6.65-0.6c-2.1-0.267-4.6-0.783-7.5-1.55
						c-0.133-0.034-0.267,0.033-0.4,0.2c0.034,0.067,0.067,0.133,0.1,0.2c0.3-0.067,1.5,0.167,3.6,0.7c2.1,0.5,3.467,0.75,4.1,0.75
						c0.667,0.034,1.85,0.15,3.55,0.35c0.133,0,0.267,0.017,0.4,0.05c0.8,0.1,1.717,0.167,2.75,0.2l0.7,0.05
						C60.45-0.017,61.133,0,61.8,0c1.767,0,4.034-0.15,6.8-0.45c1.1-0.133,2.05-0.333,2.85-0.6c0.4-0.133,0.75-0.284,1.05-0.45
						c0.333-0.167,0.633-0.35,0.9-0.55c0.233-0.233,0.434-0.467,0.6-0.7c0.167-0.2,0.317-0.433,0.45-0.7
						c0-0.033,0.017-0.066,0.05-0.1h-0.05C74.45-3.583,74.467-3.65,74.5-3.75z M71.95-3.7H72l-0.05-0.05V-3.7z M10.5-9.55
						c-0.267-0.1-0.533-0.217-0.8-0.35c-0.434-0.167-0.867-0.35-1.3-0.55c-0.233-0.1-0.45-0.2-0.65-0.3
						C4.117-12.317,1.9-13.667,1.1-14.8c-0.667-0.934-1.033-1.517-1.1-1.75c0,0.2,0.033,0.383,0.1,0.55
						c0.066,0.467,0.283,0.917,0.65,1.35c0.067,0.133,0.167,0.25,0.3,0.35l0.05,0.05c0.033,0.033,0.083,0.083,0.15,0.15H1.3
						c0,0.033,0.017,0.067,0.05,0.1c0.667,0.633,1.617,1.267,2.85,1.9c2.433,1.267,4.466,2.217,6.1,2.85c1.6,0.633,3.3,1.2,5.1,1.7
						c-0.033,0-0.066,0-0.1,0l4.55,1.1c0.133,0.034,0.267,0.067,0.4,0.1c0.167,0.033,0.333,0.067,0.5,0.1
						c0.467,0.1,1,0.217,1.6,0.35c1.433,0.3,3.133,0.633,5.1,1c0.6,0.133,1.216,0.267,1.85,0.4c3.967,0.767,7.083,1.317,9.35,1.65
						c1.867,0.267,3.2,0.4,4,0.4c0.4,0,0.684-0.133,0.85-0.4V-2.9c0.333-0.533,0.583-0.883,0.75-1.05v0.05
						c0.1-0.333,0.217-0.783,0.35-1.35c0.167-0.6,0.316-1.067,0.45-1.4c-0.066-0.1-0.35,0.383-0.85,1.45
						c-0.367,0.9-0.667,1.517-0.9,1.85c-0.033,0.1-0.066,0.184-0.1,0.25c-0.067,0-0.133-0.017-0.2-0.05
						c-0.033,0-0.083-0.017-0.15-0.05c-0.133,0.067-0.283,0.117-0.45,0.15C42.4-3.017,42.383-3,42.35-3h-0.1l-0.6,0.15
						c-0.3,0-1.3-0.117-3-0.35c-1.2-0.167-2.767-0.4-4.7-0.7c-3.167-0.5-5.333-0.867-6.5-1.1c-0.467-0.067-0.767-0.1-0.9-0.1
						c-0.933-0.2-2.333-0.5-4.2-0.9c-0.667-0.133-1.367-0.3-2.1-0.5c-0.233-0.033-0.483-0.083-0.75-0.15
						c-0.233-0.033-0.483-0.083-0.75-0.15C16.05-7.433,13.3-8.35,10.5-9.55z"/>
					<path style="fill-rule:evenodd;clip-rule:evenodd;fill:#153A34;" d="M44.4-2.75c0.033,0.133,0.083,0.267,0.15,0.4
						c0.133-0.167,0.267-0.233,0.4-0.2c2.9,0.767,5.4,1.283,7.5,1.55c2.1,0.233,4.316,0.433,6.65,0.6c1.4,0.1,2.433,0.15,3.1,0.15
						c0.466,0,0.75-0.017,0.85-0.05l1.3-0.05c3.467-0.267,6.083-0.8,7.85-1.6c0.233-0.1,0.45-0.216,0.65-0.35
						c0.1-0.067,0.217-0.133,0.35-0.2c0.566-0.367,1-0.783,1.3-1.25c0.063-0.469,0.038-0.861-0.075-1.175
						c-0.105-0.309-0.247-0.942-0.425-1.9c-0.182-0.96-1.749-2.318-4.7-4.075l0.3,2.15c0,0.033,0,0.15,0,0.35
						c0,0.267-0.083,0.5-0.25,0.7c-0.233,0.333-0.8,0.583-1.7,0.75c-0.933,0.2-2.283,0.383-4.05,0.55l-2.25-0.05
						c-0.167,0-0.333,0-0.5,0c-2.434,0.034-7.767-0.55-16-1.75c-9.233-1.3-16.65-2.533-22.25-3.7c-5.6-1.167-9.75-2.35-12.45-3.55
						c-2.333-1.066-3.6-1.95-3.8-2.65c0.066,0.467,0.3,0.917,0.7,1.35c0.067,0.067,0.15,0.133,0.25,0.2c0.034,0,0.083,0,0.15,0
						c0.033,0.066-0.167,0.617-0.6,1.65c-0.434,1.066-0.6,1.617-0.5,1.65c0.133,0.1,0.1,0.3-0.1,0.6C6.017-12.317,5.867-12.1,5.8-12
						c-0.066-0.033-0.167-0.217-0.3-0.55c-0.167-0.167-0.35-0.3-0.55-0.4c-0.133-0.033-0.284-0.033-0.45,0
						c-0.067-0.133-0.167-0.683-0.3-1.65l-0.9,0.25c-0.367,0-0.55-0.117-0.55-0.35l0.6-0.75l-0.8,0.15c-0.3,0-0.45-0.133-0.45-0.4
						c0-0.667,0.767-1.3,2.3-1.9c0.7-0.267,1.35-0.467,1.95-0.6c0.001-0.034,0.676-0.65,2.025-1.85
						c1.345-1.199,4.22-1.832,8.625-1.9c-3.989-1.082-7.489-0.957-10.5,0.375c-3.014,1.33-4.656,2.113-4.925,2.35
						C1.303-18.982,1.111-18.732,1-18.475c-0.104,0.252-0.187,0.394-0.25,0.425c-0.367,0.367-0.617,0.767-0.75,1.2v0.1
						c0,0.033,0,0.067,0,0.1v0.1c0.067,0.233,0.433,0.816,1.1,1.75c0.8,1.133,3.017,2.483,6.65,4.05c-0.533-0.5-0.8-1-0.8-1.5
						c0-0.333,0.05-0.567,0.15-0.7s0.2-0.316,0.3-0.55c0.067-0.167,0.133-0.35,0.2-0.55l-0.1-0.1c-0.1,0.066-0.3,0.283-0.6,0.65
						c-0.066,0.1-0.15,0.2-0.25,0.3c0.133-0.267,0.417-0.9,0.85-1.9l-0.25,0.65c0.6-0.5,0.9-0.667,0.9-0.5c0,0.2,0.1,0.217,0.3,0.05
						c0.167-0.167,1,0.25,2.5,1.25c0.1,0,0.283-0.05,0.55-0.15c0.167,0,0.3,0.1,0.4,0.3h0.05c0.1,0.233,0.183,0.367,0.25,0.4
						c0.066-0.133,0.333-0.2,0.8-0.2c1.333,0,2.25,0.083,2.75,0.25c0.267,0.133,0.483,0.283,0.65,0.45
						c0.367,0.367,0.45,0.934,0.25,1.7c0.2-0.167,0.3-0.5,0.3-1l-0.1-0.6h0.45c0.133,0.167,0.2,0.333,0.2,0.5h0.4
						c0.233-0.1,0.434-0.117,0.6-0.05c0.2,0.1,0.267,0.283,0.2,0.55h0.15c0.267-0.3,0.7-0.483,1.3-0.55c0.033,0,0.067,0,0.1,0
						c0.667,0.167,1.367,0.333,2.1,0.5c1.433,0.3,2.967,0.6,4.6,0.9c0.167,0.033,0.333,0.066,0.5,0.1h0.05
						c2.533,0.466,4.917,0.883,7.15,1.25c1.4,0.267,2.733,0.517,4,0.75c1.967,0.333,3.783,0.633,5.45,0.9l0.4,0.05
						c0.267,0.033,0.517,0.067,0.75,0.1l0.25,0.05c2.9,0.434,5.233,0.733,7,0.9c3.167,0.3,5.7,0.483,7.6,0.55c0.3,0,0.583,0,0.85,0
						c0.1,0,0.2,0,0.3,0c0.4,0,0.75,0,1.05,0c0.5,0,0.934-0.033,1.3-0.1c0.066,0.033,0.133,0.067,0.2,0.1
						c0.3,0.167,0.55,0.3,0.75,0.4c0.7,0.4,1.284,0.783,1.75,1.15c0.833,0.733,1.383,1.684,1.65,2.85c0.167,0.3-0.4,0.5-1.7,0.6
						c-1.267,0.067-2.283,0.083-3.05,0.05c-1.233,0.1-2.284,0.15-3.15,0.15c-1.833,0-3.883-0.15-6.15-0.45
						C50.8-1.75,47.633-2.25,44.4-2.75z M72-3.7v0.05L71.95-3.7v-0.05L72-3.7z M1.05-14.3v0.05H1.1L1.05-14.3z M11-9.45
						c-0.167-0.033-0.333-0.066-0.5-0.1c2.8,1.2,5.55,2.117,8.25,2.75c0.267,0.066,0.517,0.117,0.75,0.15
						c0.267,0.066,0.517,0.117,0.75,0.15c0.733,0.2,1.433,0.367,2.1,0.5c1.867,0.4,3.267,0.7,4.2,0.9c0.133,0,0.434,0.033,0.9,0.1
						c1.167,0.233,3.333,0.6,6.5,1.1c1.933,0.3,3.5,0.533,4.7,0.7c1.7,0.233,2.7,0.35,3,0.35L42.25-3
						c-1.167-0.067-2.367-0.167-3.6-0.3c-1.733-0.2-3.533-0.467-5.4-0.8c-1.3-0.233-3.233-0.617-5.8-1.15
						c-0.767-0.133-1.567-0.3-2.4-0.5c-0.933-0.167-1.833-0.317-2.7-0.45c-0.733-0.133-1.434-0.283-2.1-0.45
						c-0.267-0.033-0.533-0.083-0.8-0.15c-0.3-0.034-0.6-0.083-0.9-0.15c-0.2-0.066-0.4-0.117-0.6-0.15
						c-0.067-0.033-0.133-0.066-0.2-0.1c-0.2-0.1-0.35-0.2-0.45-0.3c-0.033,0-0.05-0.017-0.05-0.05
						c-0.033-0.067-0.05-0.133-0.05-0.2l0.3-1.7c-0.1,0.1-0.183,0.3-0.25,0.6c-0.067,0.333-0.133,0.517-0.2,0.55h-0.1
						c-0.067-0.233-0.1-0.567-0.1-1C16.817-9.233,16.733-9,16.6-8.6c-0.067,0.2-0.2,0.3-0.4,0.3c-0.3,0-0.45-0.583-0.45-1.75
						c0-0.667,0.033-1.517,0.1-2.55c-0.3,0.434-0.55,1.283-0.75,2.55c-0.133,0.7-0.55,1.066-1.25,1.1c0,0.034-0.85-0.117-2.55-0.45
						C11.2-9.4,11.1-9.417,11-9.45z M18.95-7.1c0.133,0,0.283,0.033,0.45,0.1v-0.1l0.4-2.7c-0.066,0.133-0.2,0.7-0.4,1.7
						C19.3-7.6,19.15-7.267,18.95-7.1z"/>
					<polygon style="fill-rule:evenodd;clip-rule:evenodd;fill:#2A5A52;" points="72,-3.7 71.95,-3.7 72,-3.65 					"/>
					<path style="fill-rule:evenodd;clip-rule:evenodd;fill:#1D463F;" d="M62.75-0.95c0.167,0,0.317,0,0.45,0
						c0.767,0.034,1.783,0.017,3.05-0.05c1.3-0.1,1.867-0.3,1.7-0.6c-0.267-1.167-0.817-2.117-1.65-2.85
						c-0.466-0.367-1.05-0.75-1.75-1.15C64.35-5.7,64.1-5.833,63.8-6c-0.066-0.033-0.133-0.067-0.2-0.1C63.233-6.033,62.8-6,62.3-6
						c-0.3,0-0.65,0-1.05,0c-0.1,0-0.2,0-0.3,0c-0.267,0-0.55,0-0.85,0c0.267,0.033,0.617,0.25,1.05,0.65c0.3,0.233,0.633,0.567,1,1
						c0.967,1.1,1.45,1.9,1.45,2.4c0,0.267-0.217,0.567-0.65,0.9C62.883-1.017,62.817-0.983,62.75-0.95z"/>
					<path style="fill-rule:evenodd;clip-rule:evenodd;fill:#224841;" d="M62.75-0.95c-4-0.133-9.317-0.683-15.95-1.65
						c-0.667-0.066-1.333-0.167-2-0.3c0.067-0.733,0.15-1.967,0.25-3.7v-0.05c-0.133,0.333-0.283,0.8-0.45,1.4
						c-0.133,0.567-0.25,1.017-0.35,1.35c-0.033,0.167-0.033,0.316,0,0.45c0.033,0.233,0.083,0.467,0.15,0.7
						c3.233,0.5,6.4,1,9.5,1.5c2.267,0.3,4.317,0.45,6.15,0.45c0.867,0,1.917-0.05,3.15-0.15C63.067-0.95,62.917-0.95,62.75-0.95z
						 M1.1-14.25c0.066,0.1,0.15,0.183,0.25,0.25c-0.033-0.033-0.05-0.067-0.05-0.1H1.25C1.183-14.167,1.133-14.217,1.1-14.25z
						 M19.4-7c-0.167-0.067-0.316-0.1-0.45-0.1c-0.7-0.167-1.25-0.3-1.65-0.4c0.1,0.1,0.25,0.2,0.45,0.3
						c0.067,0.034,0.133,0.067,0.2,0.1c0.2,0.033,0.4,0.083,0.6,0.15c0.3,0.067,0.6,0.117,0.9,0.15
						c0.267,0.066,0.533,0.117,0.8,0.15c0.667,0.167,1.367,0.316,2.1,0.45c0.867,0.133,1.767,0.284,2.7,0.45
						c0.833,0.2,1.633,0.367,2.4,0.5c2.566,0.533,4.5,0.917,5.8,1.15c1.867,0.333,3.667,0.6,5.4,0.8
						c1.233,0.133,2.434,0.233,3.6,0.3h0.1c0.033,0,0.05-0.017,0.05-0.05c0.167-0.034,0.317-0.083,0.45-0.15
						c-1.467-0.2-2.867-0.4-4.2-0.6c-4.367-0.667-8.1-1.25-11.2-1.75c-0.233-0.034-0.467-0.067-0.7-0.1
						c-1.667-0.3-3.133-0.567-4.4-0.8c-0.8-0.133-1.5-0.267-2.1-0.4C19.95-6.917,19.667-6.967,19.4-7z M9.7-9.9
						c0.267,0.133,0.533,0.25,0.8,0.35c0.167,0.033,0.333,0.066,0.5,0.1C10.6-9.583,10.167-9.733,9.7-9.9z"/>
					<path style="fill-rule:evenodd;clip-rule:evenodd;fill:#225249;" d="M26.75-5.65c0.233,0.033,0.467,0.066,0.7,0.1
						c3.1,0.5,6.833,1.083,11.2,1.75c1.333,0.2,2.733,0.4,4.2,0.6c0.066,0.034,0.117,0.05,0.15,0.05
						c0.067,0.033,0.133,0.05,0.2,0.05c0.033-0.066,0.066-0.15,0.1-0.25c0.233-0.333,0.534-0.95,0.9-1.85
						c0.5-1.066,0.783-1.55,0.85-1.45v0.05c-0.1,1.733-0.183,2.967-0.25,3.7c0.667,0.133,1.333,0.233,2,0.3
						c6.633,0.967,11.95,1.517,15.95,1.65c0.067-0.033,0.133-0.066,0.2-0.1c0.433-0.333,0.65-0.633,0.65-0.9
						c0-0.5-0.483-1.3-1.45-2.4c-0.367-0.433-0.7-0.767-1-1C60.583-5.517,60.067-5.6,59.6-5.6c-0.233,0-0.367,0.1-0.4,0.3
						c0,0.267,0,0.483,0,0.65c-0.1-0.033-0.284-0.184-0.55-0.45c0,0.434-0.033,0.733-0.1,0.9c-0.066,0.333-0.216,0.583-0.45,0.75H58
						c-0.033-0.8-0.067-1.25-0.1-1.35c-0.167-0.5-0.583-0.784-1.25-0.85c-0.566-0.067-1.6-0.25-3.1-0.55
						c-1.433-0.233-2.2-0.35-2.3-0.35C50.817-6.55,50.4-6.5,50-6.4c-0.567,0.133-0.917,0.35-1.05,0.65
						c-0.067-0.733-1.217-1.3-3.45-1.7L45.25-7.5c-0.233-0.033-0.483-0.067-0.75-0.1l-0.4-0.05c-0.967-0.133-2.083-0.233-3.35-0.3
						c-0.133,0-0.25,0.05-0.35,0.15c-0.1,0.1-0.217,0.15-0.35,0.15V-8c-0.066-0.067-0.167-0.1-0.3-0.1c-0.333,0-0.65,0.233-0.95,0.7
						c-0.033,0.1-0.083,0.2-0.15,0.3c-0.2,0.367-0.333,0.633-0.4,0.8H38.1l0.1-1.05c0-0.667-1.8-1.35-5.4-2.05
						c-0.433-0.1-0.867-0.184-1.3-0.25c-1.533-0.2-2.883-0.333-4.05-0.4c-0.6,0-1.15,0-1.65,0c-1.5,0-2.65,0.066-3.45,0.2
						c-0.967,0.167-1.45,0.434-1.45,0.8c0,0.466,0.483,0.966,1.45,1.5c0.433,0.233,0.95,0.483,1.55,0.75
						C24.7-6.467,25.65-6.083,26.75-5.65z M50.1-4.65c-0.2,0.633-0.333,1.3-0.4,2c0-0.233-0.05-0.567-0.15-1
						c0-0.233,0.067-0.65,0.2-1.25c0.2-0.7,0.4-1.2,0.6-1.5v0.55C50.35-5.65,50.267-5.25,50.1-4.65z M54.3-2.9
						c0,0.066,0.017,0.183,0.05,0.35C54.283-2.617,54.2-2.7,54.1-2.8c-0.133-0.133-0.3-0.284-0.5-0.45c-0.2,0.2-0.333,0.467-0.4,0.8
						h-0.15C52.883-2.583,52.8-2.767,52.8-3c-0.133,0-0.25-0.05-0.35-0.15c-0.067-0.133-0.133-0.2-0.2-0.2L51.8-3.1
						c-0.533-0.2-0.933-0.3-1.2-0.3v-0.15c0.133-0.167,0.217-0.25,0.25-0.25c0.1-0.067,0.233-0.1,0.4-0.1
						c0.2,0,0.417,0.033,0.65,0.1c0.233,0.1,0.45,0.15,0.65,0.15c0.367,0,0.567-0.15,0.6-0.45c0.067-0.6,0.167-1.033,0.3-1.3
						c0,0.333,0.033,0.65,0.1,0.95c0.1,0.534,0.284,0.8,0.55,0.8l0.35-0.1C54.35-3.317,54.3-3.033,54.3-2.9z"/>
					<path style="fill-rule:evenodd;clip-rule:evenodd;fill:#1D4840;" d="M45.5-7.45c2.233,0.4,3.383,0.967,3.45,1.7
						c0.133-0.3,0.483-0.517,1.05-0.65c0.4-0.1,0.817-0.15,1.25-0.15c0.1,0,0.867,0.117,2.3,0.35c1.5,0.3,2.534,0.483,3.1,0.55
						c0.667,0.066,1.083,0.35,1.25,0.85c0.033,0.1,0.067,0.55,0.1,1.35h0.1c0.233-0.167,0.383-0.417,0.45-0.75
						c0.067-0.167,0.1-0.466,0.1-0.9c0.267,0.267,0.45,0.417,0.55,0.45c0-0.167,0-0.383,0-0.65c0.033-0.2,0.167-0.3,0.4-0.3
						c0.467,0,0.983,0.083,1.55,0.25C60.717-5.75,60.367-5.967,60.1-6c-1.9-0.067-4.434-0.25-7.6-0.55
						C50.733-6.717,48.4-7.017,45.5-7.45z M7.75-10.75c0.2,0.1,0.417,0.2,0.65,0.3c0.434,0.2,0.867,0.383,1.3,0.55
						c0.466,0.167,0.9,0.316,1.3,0.45c0.1,0.034,0.2,0.05,0.3,0.05c1.7,0.333,2.55,0.483,2.55,0.45c0.7-0.033,1.117-0.4,1.25-1.1
						c0.2-1.267,0.45-2.117,0.75-2.55c-0.067,1.033-0.1,1.883-0.1,2.55c0,1.167,0.15,1.75,0.45,1.75c0.2,0,0.333-0.1,0.4-0.3
						c0.133-0.4,0.217-0.633,0.25-0.7c0,0.433,0.033,0.767,0.1,1h0.1c0.067-0.034,0.133-0.217,0.2-0.55c0.067-0.3,0.15-0.5,0.25-0.6
						l-0.3,1.7c0,0.067,0.017,0.133,0.05,0.2c0,0.033,0.017,0.05,0.05,0.05c0.4,0.1,0.95,0.233,1.65,0.4c0.2-0.167,0.35-0.5,0.45-1
						c0.2-1,0.333-1.566,0.4-1.7l-0.4,2.7V-7c0.267,0.033,0.55,0.083,0.85,0.15c0.6,0.133,1.3,0.267,2.1,0.4
						c1.267,0.233,2.733,0.5,4.4,0.8c-1.1-0.434-2.05-0.817-2.85-1.15c-0.6-0.267-1.117-0.517-1.55-0.75
						c-0.967-0.534-1.45-1.034-1.45-1.5c0-0.367,0.483-0.633,1.45-0.8c0.8-0.133,1.95-0.2,3.45-0.2c0.5,0,1.05,0,1.65,0
						c1.167,0.066,2.517,0.2,4.05,0.4c0.433,0.066,0.867,0.15,1.3,0.25c3.6,0.7,5.4,1.383,5.4,2.05L38.1-6.3h0.15
						c0.067-0.167,0.2-0.434,0.4-0.8c0.067-0.1,0.117-0.2,0.15-0.3c0.3-0.467,0.617-0.7,0.95-0.7c0.133,0,0.233,0.033,0.3,0.1v0.35
						c0.133,0,0.25-0.05,0.35-0.15c0.1-0.1,0.217-0.15,0.35-0.15c1.267,0.067,2.383,0.167,3.35,0.3
						c-1.667-0.267-3.483-0.567-5.45-0.9c-1.267-0.233-2.6-0.483-4-0.75c-2.233-0.367-4.617-0.784-7.15-1.25h-0.05
						c-0.167-0.034-0.333-0.067-0.5-0.1c-1.633-0.3-3.167-0.6-4.6-0.9c-0.733-0.167-1.434-0.333-2.1-0.5c-0.033,0-0.067,0-0.1,0
						c-0.6,0.066-1.033,0.25-1.3,0.55H18.7c0.066-0.267,0-0.45-0.2-0.55c-0.167-0.067-0.367-0.05-0.6,0.05h-0.4
						c0-0.167-0.067-0.333-0.2-0.5h-0.45l0.1,0.6c0,0.5-0.1,0.833-0.3,1c0.2-0.767,0.117-1.333-0.25-1.7
						c-0.167-0.167-0.383-0.316-0.65-0.45c-0.5-0.167-1.417-0.25-2.75-0.25c-0.467,0-0.733,0.066-0.8,0.2
						c-0.067-0.033-0.15-0.167-0.25-0.4H11.9c-0.1-0.2-0.233-0.3-0.4-0.3c-0.267,0.1-0.45,0.15-0.55,0.15
						c-1.5-1-2.333-1.417-2.5-1.25c-0.2,0.167-0.3,0.15-0.3-0.05c0-0.167-0.3,0-0.9,0.5L7.5-15.1c-0.433,1-0.717,1.633-0.85,1.9
						c0.1-0.1,0.184-0.2,0.25-0.3c0.3-0.367,0.5-0.583,0.6-0.65l0.1,0.1c-0.067,0.2-0.133,0.383-0.2,0.55
						c-0.1,0.233-0.2,0.417-0.3,0.55s-0.15,0.367-0.15,0.7C6.95-11.75,7.217-11.25,7.75-10.75z M6.35-18.1c0-0.033,0-0.066,0-0.1
						c-0.6,0.133-1.25,0.333-1.95,0.6c-1.533,0.6-2.3,1.233-2.3,1.9c0,0.267,0.15,0.4,0.45,0.4l0.8-0.15l-0.6,0.75
						c0,0.233,0.183,0.35,0.55,0.35l0.9-0.25c0.133,0.967,0.233,1.517,0.3,1.65c0.167-0.033,0.317-0.033,0.45,0
						c0.2,0.1,0.383,0.233,0.55,0.4c0.133,0.333,0.233,0.517,0.3,0.55c0.067-0.1,0.217-0.317,0.45-0.65c0.2-0.3,0.233-0.5,0.1-0.6
						c-0.1-0.033,0.066-0.583,0.5-1.65c0.433-1.033,0.633-1.583,0.6-1.65c-0.067,0-0.117,0-0.15,0c-0.1-0.067-0.183-0.133-0.25-0.2
						C6.65-17.183,6.417-17.633,6.35-18.1z"/>
					<path style="fill-rule:evenodd;clip-rule:evenodd;fill:#265E53;" d="M54.3-2.9c0-0.133,0.05-0.417,0.15-0.85l-0.35,0.1
						c-0.267,0-0.45-0.267-0.55-0.8c-0.066-0.3-0.1-0.617-0.1-0.95c-0.133,0.267-0.233,0.7-0.3,1.3c-0.033,0.3-0.233,0.45-0.6,0.45
						c-0.2,0-0.417-0.05-0.65-0.15c-0.233-0.067-0.45-0.1-0.65-0.1c-0.167,0-0.3,0.033-0.4,0.1c-0.033,0-0.117,0.083-0.25,0.25v0.15
						c0.267,0,0.667,0.1,1.2,0.3l0.45-0.25c0.067,0,0.133,0.067,0.2,0.2C52.55-3.05,52.667-3,52.8-3c0,0.233,0.083,0.417,0.25,0.55
						h0.15c0.066-0.333,0.2-0.6,0.4-0.8c0.2,0.167,0.367,0.317,0.5,0.45c0.1,0.1,0.183,0.183,0.25,0.25
						C54.317-2.717,54.3-2.833,54.3-2.9z M50.1-4.65c0.167-0.6,0.25-1,0.25-1.2V-6.4c-0.2,0.3-0.4,0.8-0.6,1.5
						c-0.133,0.6-0.2,1.017-0.2,1.25c0.1,0.433,0.15,0.767,0.15,1C49.767-3.35,49.9-4.017,50.1-4.65z"/>
					
						<line style="fill-rule:evenodd;clip-rule:evenodd;fill:none;stroke:#000000;stroke-linecap:round;stroke-linejoin:round;stroke-miterlimit:3;" x1="19.85" y1="-6.45" x2="15.3" y2="-7.55"/>
				</g>
			</g>
			<g>
				<g>
					<path style="fill-rule:evenodd;clip-rule:evenodd;fill:#224841;" d="M74.5-13.6c0,0.167,0.05,0.35,0.15,0.55
						c-0.167-0.2-0.333-0.4-0.5-0.6c0-0.033-0.017-0.067-0.05-0.1c-0.2-0.067-0.4-0.133-0.6-0.2c-0.333,0.034-0.483,0.083-0.45,0.15
						c-0.066,0.1-0.083,0.216-0.05,0.35c-0.033,0.167,0,0.35,0.1,0.55c-0.033,0.267-0.017,0.483,0.05,0.65
						c-0.066,0.5-0.083,0.95-0.05,1.35c0.033-0.233,0.066-0.583,0.1-1.05c0.333,0.167,0.6,0.617,0.8,1.35
						c0.033,0.2,0.05,0.35,0.05,0.45c0.034,0.4,0.067,0.75,0.1,1.05c-0.066,0.6-0.083,1.2-0.05,1.8
						c-0.066,0.459-0.132,0.917-0.2,1.375V-5.9l0.2,0.5c0.066,0.1,0.117,0.2,0.15,0.3c0.203,0.434,0.294,0.817,0.275,1.15v0.025
						C74.516-3.886,74.508-3.844,74.5-3.8c0.011,0.034,0.037,0.034,0.075,0c0.02-0.032,0.044-0.074,0.075-0.125
						c0.046-0.063,0.096-0.146,0.15-0.25c0.049-0.082,0.099-0.173,0.15-0.275c0.133-0.466,0.25-1.466,0.35-3
						c0.034-1.267,0.067-2.583,0.1-3.95c-0.033-0.167-0.066-0.4-0.1-0.7C75.167-12.467,74.9-12.967,74.5-13.6z M0.85-21
						c0.267-0.533,0.783-1.467,1.55-2.8c0-0.034,0.067-0.05,0.2-0.05c0,0.467,0,0.95,0,1.45h0.05c0.233-0.833,0.467-1.467,0.7-1.9
						c0.033-0.167,0.183-0.383,0.45-0.65c0.167,0,0.4-0.05,0.7-0.15c0.133,0.033,0.25,0,0.35-0.1c0.066,0.034,0.183,0.017,0.35-0.05
						c0.367,0.033,0.65,0.017,0.85-0.05c0.233,0.167,0.517,0.466,0.85,0.9c0-0.067,0.184-0.333,0.55-0.8v-0.15c0.1,0,0.183,0,0.25,0
						c0.267-0.066,0.466,0.267,0.6,1C8.1-23.517,8.033-23.067,8.1-23L9-25.2c0-0.167,0.583-0.316,1.75-0.45
						c1,0,2.467,0.017,4.4,0.05c1.434,0.233,2.867,0.417,4.3,0.55c0.133,0.1,0.316,0.15,0.55,0.15c0.633,0.066,1.6,0.15,2.9,0.25
						c0.6,0.133,1.267,0.2,2,0.2c0.329,0.11,0.604,0.185,0.825,0.225c0.042,0.011,0.083,0.019,0.125,0.025
						c0.008,0.028,0.017,0.053,0.025,0.075c0.317,0.244,0.626,0.652,0.925,1.225c0.1,0.233,0.3,0.767,0.6,1.6
						c0.2-0.1,0.517-0.483,0.95-1.15c0.433-0.633,1.667-0.9,3.7-0.8c0.064,0,0.131,0,0.2,0c0.067,0,0.2,0,0.4,0
						c0.333,0.133,0.8,0.217,1.4,0.25c0.434,0.1,0.934,0.2,1.5,0.3c1.367,0.467,2.6,0.817,3.7,1.05c0.533-0.033,0.867-0.05,1-0.05
						c0.033,0.034,0.133,0.067,0.3,0.1c0.067,0.1,0.184,0.15,0.35,0.15c0.067,0,0.2-0.066,0.4-0.2c0.067-0.133,0.267-0.2,0.6-0.2
						c0.267,0.067,0.533,0.283,0.8,0.65c0.066,0.2,0.267,0.6,0.6,1.2c0.067,0,0.133,0,0.2,0v0.05
						c-0.033,0.067-0.017,0.083,0.05,0.05c0.1-0.1,0.267-0.2,0.5-0.3c0.434-0.267,1.05-0.466,1.85-0.6c0.2-0.034,0.4-0.067,0.6-0.1
						c0.867-0.067,1.933,0.15,3.2,0.65c1.167,0.633,1.917,1,2.25,1.1c0.033,0,0.066,0,0.1,0c0.034,0.033,0.117,0.066,0.25,0.1
						c0.5,0.267,1.983,0.867,4.45,1.8c0.133,0.033,0.267-0.067,0.4-0.3c0.233-0.067,0.4-0.133,0.5-0.2
						c0.1,0.067,0.267,0.133,0.5,0.2c0.033,0.233,0.184,0.333,0.45,0.3h0.05c0.2,0.033,0.45-0.05,0.75-0.25
						c0.4-0.067,0.667-0.117,0.8-0.15c0,0.066,0.667,0.2,2,0.4c0.1,0.033,0.25,0.067,0.45,0.1c1.567,0.4,2.533,0.617,2.9,0.65
						c0.9,0.067,1.467,0.55,1.7,1.45c0.2,1.066,0.4,1.733,0.6,2c0.2-0.4,0.383-0.867,0.55-1.4c0.033-0.167,0.333-0.267,0.9-0.3h0.05
						c0.333,0.1,0.717,0.2,1.15,0.3c0.9,0.867,1.383,1.617,1.45,2.25c0.066,0.8,0.133,1.2,0.2,1.2c0.067,0.333,0.133,0.55,0.2,0.65
						c0.133,0.133,0.2,0.217,0.2,0.25c0.067,0.033,0.133,0.017,0.2-0.05L72.7-10.3c-0.1-0.833-0.217-2.133-0.35-3.9
						c-0.067-0.6-1.067-1.517-3-2.75c-0.133-0.033-0.2-0.066-0.2-0.1c-0.3,0.033-0.467,0.216-0.5,0.55
						c-0.342,0.498-0.525,0.823-0.55,0.975c0.064-0.721-0.003-1.229-0.2-1.525c-0.033-0.034-0.066-0.067-0.1-0.1
						c-0.367-0.233-1.017-0.517-1.95-0.85c-1.934-0.4-3.75-0.8-5.45-1.2h-0.05c-0.067,0.034-0.133,0.067-0.2,0.1
						c-0.167,0.1-0.2,0.15-0.1,0.15c-0.2,0.1-0.4,0.15-0.6,0.15c0-0.1-0.017-0.184-0.05-0.25c-0.033,0.033-0.066,0.017-0.1-0.05
						c-0.167,0-0.283,0.017-0.35,0.05c-0.2,0.466-0.284,0.8-0.25,1c-0.132,0.033-0.199,0.066-0.2,0.1c0-0.5,0-0.867,0-1.1
						c-0.067,0.033-0.083,0.017-0.05-0.05c-0.067,0.033-0.083,0.017-0.05-0.05c-0.267-0.233-0.733-0.383-1.4-0.45
						c-0.3,0-0.55,0-0.75,0c-0.133,0.2-0.133,0.35,0,0.45c0.033,0.033,0.067,0.066,0.1,0.1c-0.067,0.033-0.067,0.066,0,0.1
						c0,0.167-0.017,0.284-0.05,0.35h-0.1c-0.034,0.1-0.083-0.05-0.15-0.45c-0.066-0.034-0.083-0.067-0.05-0.1
						c-0.167-0.4-0.35-0.6-0.55-0.6c-1-0.2-1.95-0.4-2.85-0.6c-0.2-0.033-0.35-0.066-0.45-0.1c-0.267-0.033-0.533-0.117-0.8-0.25
						c-0.167,0-0.333,0-0.5,0c-0.333-0.033-0.667-0.066-1-0.1c-0.033-0.133-0.017-0.267,0.05-0.4c-0.2-0.066-0.333-0.117-0.4-0.15
						c-0.8-0.267-1.483-0.45-2.05-0.55c-0.434,0.066-0.883,0.066-1.35,0c-0.2,0.133-0.35,0.2-0.45,0.2
						c-0.5,0.267-1.017,0.667-1.55,1.2c-0.133,0.033-0.283,0.017-0.45-0.05c0.033-0.434-0.15-0.867-0.55-1.3
						c-0.567-0.433-1.267-0.717-2.1-0.85c-0.667-0.033-1.133,0.083-1.4,0.35c-0.167,0.133-0.283,0.217-0.35,0.25
						c-0.167,0.167-0.267,0.2-0.3,0.1c-0.233,0.1-0.35-0.25-0.35-1.05c-0.033-0.133-0.283-0.333-0.75-0.6
						c-0.2,0-0.35-0.05-0.45-0.15c-0.4-0.034-0.733-0.117-1-0.25c-0.8-0.067-1.483-0.2-2.05-0.4c-2.4-0.4-3.75-0.6-4.05-0.6
						c-1.2-0.034-1.867,0.066-2,0.3c-0.033,0.167-0.066,0.283-0.1,0.35c-0.167,0.367-0.284,0.75-0.35,1.15
						c-0.233,0.433-0.417,0.817-0.55,1.15c-0.033,0.033-0.066,0.067-0.1,0.1c0-0.233,0.05-0.667,0.15-1.3
						c0-0.233,0.05-0.517,0.15-0.85v-0.15c-0.033-0.434-0.083-0.667-0.15-0.7c-0.067-0.033-0.333-0.117-0.8-0.25
						c-0.233,0-0.466,0-0.7,0c-0.533-0.067-1.467-0.183-2.8-0.35c-0.966-0.1-2.133-0.25-3.5-0.45c-0.433-0.067-0.867-0.133-1.3-0.2
						c-3.867-0.467-6.15-0.667-6.85-0.6c-0.9,0.067-1.35,0.133-1.35,0.2C9.85-26.183,9.7-25.9,9.6-25.8c-0.067,0-0.133,0-0.2,0
						c-0.133-0.2-0.2-0.45-0.2-0.75c-0.2,0.066-0.35,0.133-0.45,0.2c-0.167,0.167-0.267,0.217-0.3,0.15
						c-1-0.233-1.733-0.383-2.2-0.45c-0.633,0.066-1.133,0.066-1.5,0c0-0.033,0.05-0.067,0.15-0.1c0.063-0.063,0.246-0.129,0.55-0.2
						C5.331-26.926,5.214-26.943,5.1-27c-0.167,0.067-0.333,0.083-0.5,0.05c-0.076,0-0.151,0.008-0.225,0.025
						C4.349-26.917,4.324-26.908,4.3-26.9c-0.6,0.066-0.95,0.133-1.05,0.2L3.2-26.65C3.067-26.617,3-26.583,3-26.55L2.95-26.5
						c-0.367,0.467-0.817,1.6-1.35,3.4C1.3-22.267,1.05-21.567,0.85-21z"/>
					<path style="fill-rule:evenodd;clip-rule:evenodd;fill:#4F9286;" d="M0.05-17.2c0.035,0.052,0.135,0.002,0.3-0.15
						c0.145-0.13,0.345-0.347,0.6-0.65c0.059-0.078,0.117-0.153,0.175-0.225C1.634-18.812,2.259-19.253,3-19.55
						c1.367-0.633,2.8-1.05,4.3-1.25c1.434-0.233,2.883-0.367,4.35-0.4c0.896-0.069,1.813-0.069,2.75,0
						c2.798-0.002,5.624,0.098,8.475,0.3c9.957,0.731,20.256,2.739,30.9,6.025c2.355,0.723,4.73,1.506,7.125,2.35
						c1.093,0.398,2.193,0.807,3.3,1.225c5.63,1.896,9.072,4.355,10.325,7.375V-3.95c0.02-0.333-0.072-0.716-0.275-1.15
						c-0.033-0.1-0.083-0.2-0.15-0.3l-0.2-0.5l-1.1-1.2c-1.133-1.1-2.35-2.017-3.65-2.75c-0.135-0.079-0.269-0.154-0.4-0.225
						c-1.249-0.699-2.548-1.274-3.9-1.725c-0.809-0.311-1.634-0.586-2.475-0.825c-2.821-1.03-5.621-1.972-8.4-2.825
						c-3.596-1.115-7.154-2.082-10.675-2.9c-0.325-0.076-0.65-0.15-0.975-0.225c-2.746-0.619-5.471-1.144-8.175-1.575
						c-0.882-0.101-1.499-0.184-1.85-0.25c-2.8-0.4-4.783-0.6-5.95-0.6c-0.367,0-1.417-0.117-3.15-0.35
						c-0.954-0.114-1.737-0.206-2.35-0.275c-0.519-0.028-1.036-0.053-1.55-0.075c-2.59-0.104-5.157-0.121-7.7-0.05
						c-2.223,0.086-4.139,0.328-5.75,0.725C5.816-21.014,5.783-21.006,5.75-21c-1.467,0.333-2.85,0.95-4.15,1.85
						c-0.438,0.346-0.821,0.762-1.15,1.25l-0.3,0.525C0.114-17.321,0.081-17.262,0.05-17.2z"/>
					<path style="fill-rule:evenodd;clip-rule:evenodd;fill:#31685E;" d="M73.1-10.9l-0.05,0.05v0.15
						c-0.066,0.233-0.083,0.467-0.05,0.7c-0.067,0.067-0.133,0.083-0.2,0.05c-0.066-0.066-0.083-0.133-0.05-0.2
						c-0.067,0.066-0.133,0.083-0.2,0.05c0-0.033-0.066-0.117-0.2-0.25c-0.067-0.1-0.133-0.316-0.2-0.65c-0.066,0-0.133-0.4-0.2-1.2
						c-0.067-0.633-0.55-1.383-1.45-2.25c-0.433-0.1-0.817-0.2-1.15-0.3H69.3c-0.566,0.033-0.867,0.133-0.9,0.3
						c-0.167,0.534-0.35,1-0.55,1.4c-0.2-0.267-0.4-0.934-0.6-2c-0.233-0.9-0.8-1.383-1.7-1.45c-0.367-0.033-1.333-0.25-2.9-0.65
						c-0.2-0.033-0.35-0.067-0.45-0.1c-1.333-0.2-2-0.333-2-0.4c-0.133,0.033-0.4,0.083-0.8,0.15c-0.3,0.2-0.55,0.283-0.75,0.25
						H58.6c-0.267,0.033-0.417-0.067-0.45-0.3c-0.233-0.067-0.4-0.133-0.5-0.2c-0.1,0.067-0.267,0.133-0.5,0.2
						c-0.133,0.233-0.267,0.333-0.4,0.3c-2.467-0.933-3.95-1.533-4.45-1.8c-0.133-0.034-0.216-0.067-0.25-0.1
						c-0.033,0-0.066,0-0.1,0c-0.333-0.1-1.083-0.467-2.25-1.1c-1.267-0.5-2.333-0.717-3.2-0.65c-0.2,0.033-0.4,0.066-0.6,0.1
						c-0.8,0.133-1.417,0.333-1.85,0.6c-0.233,0.1-0.4,0.2-0.5,0.3c-0.066,0.033-0.083,0.017-0.05-0.05V-20c-0.067,0-0.133,0-0.2,0
						c-0.333-0.6-0.533-1-0.6-1.2c-0.267-0.367-0.534-0.583-0.8-0.65c-0.333,0-0.533,0.067-0.6,0.2c-0.2,0.133-0.333,0.2-0.4,0.2
						c-0.167,0-0.283-0.05-0.35-0.15c-0.167-0.033-0.267-0.066-0.3-0.1c-0.133,0-0.467,0.017-1,0.05
						c-1.1-0.233-2.333-0.583-3.7-1.05c-0.566-0.1-1.066-0.2-1.5-0.3c-0.6-0.033-1.066-0.117-1.4-0.25c-0.2,0-0.333,0-0.4,0
						c-0.069,0-0.136,0-0.2,0c-2.033-0.1-3.267,0.167-3.7,0.8c-0.434,0.667-0.75,1.05-0.95,1.15c-0.3-0.833-0.5-1.367-0.6-1.6
						c-0.299-0.573-0.607-0.981-0.925-1.225c-0.008-0.022-0.017-0.047-0.025-0.075c-0.042-0.006-0.083-0.014-0.125-0.025
						c-0.222-0.041-0.497-0.115-0.825-0.225c-0.733,0-1.4-0.066-2-0.2c-1.3-0.1-2.267-0.184-2.9-0.25c-0.233,0-0.417-0.05-0.55-0.15
						c-1.434-0.133-2.867-0.317-4.3-0.55c-1.933-0.033-3.4-0.05-4.4-0.05C9.583-25.517,9-25.367,9-25.2L8.1-23
						c-0.067-0.067,0-0.517,0.2-1.35c-0.133-0.733-0.333-1.066-0.6-1c-0.067,0-0.15,0-0.25,0v0.15c-0.367,0.467-0.55,0.733-0.55,0.8
						c-0.333-0.434-0.617-0.733-0.85-0.9c-0.2,0.066-0.483,0.083-0.85,0.05c-0.167,0.067-0.284,0.083-0.35,0.05
						c-0.167,0.267-0.267,0.55-0.3,0.85c0,0.967,0.2,1.6,0.6,1.9c0.2,0.3,0.6,0.4,1.2,0.3c0.3-0.067,0.533-0.133,0.7-0.2l0.4-0.4
						c0-0.067,0.066-0.117,0.2-0.15v0.05c-0.066,0.033-0.083,0.067-0.05,0.1c-0.167,0.2-0.217,0.283-0.15,0.25
						c-0.1,0.433,1.117,0.533,3.65,0.3c0.233,0.067,0.6-0.066,1.1-0.4c0.167,0.033,0.333,0.067,0.5,0.1
						c0.1,0.167,0.267,0.217,0.5,0.15c0.1-0.033,0.267-0.117,0.5-0.25c0.167-0.1,0.267-0.183,0.3-0.25c0.4,0.167,0.8,0.283,1.2,0.35
						c0.8,0.3,1.4,0.417,1.8,0.35c0.567,0.133,1.25,0.2,2.05,0.2c0.773,0.083,1.681,0.208,2.725,0.375
						c1.478,0.1,2.96,0.225,4.45,0.375c0.466,0.046,0.933,0.096,1.4,0.15c1.266,0.138,2.541,0.297,3.825,0.475
						c0.025-0.008,0.059-0.017,0.1-0.025c-0.033-0.033-0.017-0.066,0.05-0.1c0.033,0,0.066-0.05,0.1-0.15
						c0.1,0.067,0.2,0.017,0.3-0.15c-0.067,0.167-0.067,0.283,0,0.35c-0.033,0.066-0.017,0.083,0.05,0.05
						c0.034,0.033,0.05,0.067,0.05,0.1v0.025c0.685,0.1,1.368,0.208,2.05,0.325c2.705,0.431,5.429,0.956,8.175,1.575L42.35-18.6
						c0.167-0.066,0.333-0.133,0.5-0.2c0.167,0.233,0.267,0.35,0.3,0.35c0.047,0.023,0.097,0.057,0.15,0.1
						c3.521,0.818,7.08,1.785,10.675,2.9c0.178,0.033,0.353,0.066,0.525,0.1c0.1,0,0.183,0,0.25,0l0.15-0.15
						c0.033-0.1,0.133-0.183,0.3-0.25c0.333,0.3,0.716,0.483,1.15,0.55c0.733,0.5,1.25,0.684,1.55,0.55
						c0.533,0.133,1.184,0.283,1.95,0.45c0.833,0.267,1.333,0.4,1.5,0.4c1.733,0.367,2.867,0.667,3.4,0.9
						c2.3,1.033,3.783,1.75,4.45,2.15c0,0.033,0.05,0.067,0.15,0.1c0.066,0.033,0.117,0.066,0.15,0.1c0.433,0.3,0.8,0.6,1.1,0.9
						c0.681,0.596,1.314,1.305,1.9,2.125c0.101,0.135,0.201,0.276,0.3,0.425l1.1,1.2v-0.025c0.068-0.458,0.134-0.916,0.2-1.375
						c-0.033-0.6-0.017-1.2,0.05-1.8c-0.033-0.3-0.066-0.65-0.1-1.05c0-0.1-0.017-0.25-0.05-0.45c-0.2-0.733-0.467-1.183-0.8-1.35
						C73.167-11.483,73.133-11.133,73.1-10.9z M71.4-10.15c-0.033,0.066-0.066,0.083-0.1,0.05c-0.267,0-0.483-0.117-0.65-0.35
						c-0.1-0.066-0.2-0.183-0.3-0.35c-0.434-0.333-0.817-0.667-1.15-1c-0.1-0.034-0.2-0.117-0.3-0.25c0.067-0.667,0.2-1.2,0.4-1.6
						c0.034-0.067,0.067-0.133,0.1-0.2c0.1-0.2,0.267-0.117,0.5,0.25c0.267,0.267,0.65,0.617,1.15,1.05
						c0.367,0.533,0.583,0.867,0.65,1c-0.034,0.466-0.067,0.867-0.1,1.2c0,0.033,0,0.067,0,0.1
						C71.533-10.217,71.467-10.183,71.4-10.15z M66.65-13.75c-0.1,0.433-0.15,0.817-0.15,1.15c-0.033,0-0.067,0.017-0.1,0.05
						c-0.533,0-1.6-0.467-3.2-1.4c-1.7-0.733-2.55-1.133-2.55-1.2c-0.566-0.067-0.883,0-0.95,0.2C59.533-14.983,59.417-15,59.35-15
						c0.033-0.367-0.333-0.65-1.1-0.85c-0.767-0.033-1.267-0.117-1.5-0.25c-1.2-0.233-2.333-0.517-3.4-0.85
						c-0.567,0-0.95-0.05-1.15-0.15c-0.267,0-0.467-0.066-0.6-0.2c-0.133-0.067-0.217-0.133-0.25-0.2c-0.3-0.467-0.617-0.8-0.95-1
						h0.05c0.5,0.067,0.8,0.083,0.9,0.05c0.6,0.133,1.2,0.333,1.8,0.6c0.267,0.2,0.6,0.4,1,0.6c0.033,0,0.067,0,0.1,0
						c0.467,0.233,0.867,0.333,1.2,0.3c0.033,0.067,0.533,0.017,1.5-0.15c0.767,0.033,2.267,0.267,4.5,0.7
						c0.167,0.033,0.316,0.066,0.45,0.1c-0.033,0.167,0.117,0.2,0.45,0.1c0-0.133,0.066-0.267,0.2-0.4
						c0.367,0.434,0.65,0.684,0.85,0.75c0.467,0.367,0.867,0.617,1.2,0.75c0.3,0.2,0.783,0.417,1.45,0.65
						C66.383-14.283,66.583-14.05,66.65-13.75z M34.35-21.05c-0.267-0.034-0.467-0.117-0.6-0.25c-0.3,0.066-0.467,0.083-0.5,0.05
						c-0.333,0.133-0.483,0.217-0.45,0.25c-0.066-0.033-0.133-0.25-0.2-0.65c-0.067,0-0.15-0.067-0.25-0.2
						c-0.1-0.066-0.083-0.183,0.05-0.35c0.4,0.034,0.8,0.067,1.2,0.1c0.066,0.033,0.333,0.133,0.8,0.3
						c0,0.033,0.117,0.083,0.35,0.15c0.133,0,0.317,0.017,0.55,0.05h0.4c0.1-0.033,0.25-0.066,0.45-0.1
						c1.267,0.6,2.533,1.15,3.8,1.65H39.9c-0.133,0.033-0.217,0.066-0.25,0.1c-0.066,0-0.15,0.017-0.25,0.05
						c-0.267,0.167-0.417,0.217-0.45,0.15c-0.133,0-0.2,0.017-0.2,0.05c-0.233,0-0.533-0.117-0.9-0.35
						c-0.067-0.034-0.133-0.067-0.2-0.1c-0.033,0-0.066,0-0.1,0c-0.167-0.033-0.267-0.067-0.3-0.1c-0.733-0.367-1.2-0.533-1.4-0.5
						c-0.434,0.067-0.75,0.083-0.95,0.05C34.667-20.633,34.483-20.75,34.35-21.05z"/>
					<path style="fill-rule:evenodd;clip-rule:evenodd;fill:#2A5A52;" d="M43.3-18.35c-0.053-0.043-0.103-0.077-0.15-0.1
						c-0.033,0-0.133-0.117-0.3-0.35c-0.167,0.066-0.333,0.133-0.5,0.2l-0.025,0.025C42.65-18.5,42.975-18.426,43.3-18.35z
						 M0.05-17.2c0.031-0.062,0.064-0.121,0.1-0.175l0.3-0.525c0.329-0.488,0.712-0.904,1.15-1.25c1.3-0.9,2.683-1.517,4.15-1.85
						c0.033-0.006,0.066-0.014,0.1-0.025c1.611-0.397,3.527-0.639,5.75-0.725c2.543-0.071,5.11-0.054,7.7,0.05
						c0.515,0.022,1.031,0.047,1.55,0.075c0.613,0.069,1.396,0.161,2.35,0.275c1.733,0.233,2.783,0.35,3.15,0.35
						c1.167,0,3.15,0.2,5.95,0.6c0.352,0.066,0.968,0.149,1.85,0.25c-0.682-0.117-1.365-0.226-2.05-0.325V-20.5
						c0-0.033-0.017-0.067-0.05-0.1c-0.066,0.033-0.083,0.017-0.05-0.05c-0.067-0.067-0.067-0.184,0-0.35
						c-0.1,0.167-0.2,0.217-0.3,0.15c-0.034,0.1-0.067,0.15-0.1,0.15c-0.067,0.034-0.083,0.067-0.05,0.1
						c-0.041,0.008-0.074,0.017-0.1,0.025c-1.284-0.178-2.559-0.336-3.825-0.475c-0.467-0.054-0.934-0.104-1.4-0.15
						c-1.49-0.15-2.973-0.275-4.45-0.375c-1.044-0.167-1.952-0.292-2.725-0.375c-0.8,0-1.483-0.066-2.05-0.2
						c-0.4,0.066-1-0.05-1.8-0.35c-0.4-0.067-0.8-0.183-1.2-0.35c-0.033,0.067-0.133,0.15-0.3,0.25c-0.233,0.133-0.4,0.217-0.5,0.25
						c-0.233,0.067-0.4,0.017-0.5-0.15c-0.167-0.033-0.333-0.067-0.5-0.1c-0.5,0.333-0.867,0.467-1.1,0.4
						c-2.533,0.233-3.75,0.133-3.65-0.3c-0.067,0.033-0.017-0.05,0.15-0.25c-0.033-0.033-0.017-0.067,0.05-0.1v-0.05
						c-0.133,0.033-0.2,0.083-0.2,0.15l-0.4,0.4c-0.167,0.067-0.4,0.133-0.7,0.2c-0.6,0.1-1,0-1.2-0.3c-0.4-0.3-0.6-0.933-0.6-1.9
						c0.034-0.3,0.133-0.583,0.3-0.85c-0.1,0.1-0.217,0.133-0.35,0.1c-0.3,0.1-0.533,0.15-0.7,0.15
						c-0.267,0.267-0.417,0.483-0.45,0.65c-0.233,0.433-0.467,1.066-0.7,1.9H2.6c0-0.5,0-0.983,0-1.45c-0.133,0-0.2,0.017-0.2,0.05
						c-0.767,1.333-1.283,2.267-1.55,2.8c-0.1,0.167-0.15,0.35-0.15,0.55c-0.167,0.4-0.284,0.733-0.35,1
						c-0.145,0.924-0.236,1.608-0.275,2.05C0.063-17.325,0.054-17.258,0.05-17.2z M53.975-15.45c2.779,0.853,5.579,1.795,8.4,2.825
						c0.841,0.239,1.667,0.514,2.475,0.825c1.352,0.45,2.651,1.025,3.9,1.725c0.131,0.071,0.265,0.146,0.4,0.225
						c1.3,0.733,2.517,1.65,3.65,2.75c-0.099-0.148-0.199-0.29-0.3-0.425c-0.585-0.82-1.219-1.529-1.9-2.125
						c-0.3-0.3-0.667-0.6-1.1-0.9c-0.033-0.034-0.083-0.067-0.15-0.1c-0.1-0.033-0.15-0.067-0.15-0.1
						c-0.667-0.4-2.15-1.117-4.45-2.15c-0.533-0.233-1.667-0.533-3.4-0.9c-0.167,0-0.667-0.133-1.5-0.4
						c-0.767-0.167-1.417-0.316-1.95-0.45c-0.3,0.133-0.816-0.05-1.55-0.55c-0.434-0.066-0.817-0.25-1.15-0.55
						c-0.167,0.067-0.267,0.15-0.3,0.25l-0.15,0.15c-0.067,0-0.15,0-0.25,0C54.328-15.384,54.153-15.417,53.975-15.45z"/>
					<path style="fill-rule:evenodd;clip-rule:evenodd;fill:#173A33;" d="M65.4-19.15c-0.133,0.033-0.2,0.017-0.2-0.05
						c-2.733-0.6-4.4-0.917-5-0.95c-0.467,0.167-0.733,0.217-0.8,0.15c-0.4-0.067-0.8-0.2-1.2-0.4c-0.233,0.033-0.4-0.067-0.5-0.3
						c-0.133-0.133-0.267-0.25-0.4-0.35c-0.133,0.2-0.216,0.35-0.25,0.45c-0.7-0.6-1.6-1.117-2.7-1.55c-0.4-0.033-1.55-0.2-3.45-0.5
						c-1.933-0.3-3.15-0.467-3.65-0.5c-1.033-0.067-1.733,0.017-2.1,0.25c-0.2,0.1-0.333,0.217-0.4,0.35
						c-0.167,0.133-0.217,0.333-0.15,0.6c-0.067,0-0.133-0.05-0.2-0.15c-0.033-0.133-0.017-0.267,0.05-0.4v-0.1
						c0.066-0.6,0.066-1,0-1.2c-0.333-0.367-0.883-0.583-1.65-0.65c-1.167-0.167-1.933-0.117-2.3,0.15
						c-0.233,0.133-0.4,0.283-0.5,0.45v0.05c-0.167,0.267-0.283,0.417-0.35,0.45c-0.1,0.033-0.15,0.017-0.15-0.05
						c-0.067-0.033-0.083-0.067-0.05-0.1c-0.2-0.133-0.333-0.25-0.4-0.35c-0.633-0.133-1.483-0.4-2.55-0.8
						c0.967,0.2,1.917,0.4,2.85,0.6c-0.033-0.167-0.067-0.333-0.1-0.5c-0.167-0.4-0.467-0.65-0.9-0.75c-2.333-0.2-4-0.383-5-0.55
						c-0.333-0.033-0.483-0.066-0.45-0.1c-0.133,0-0.217,0-0.25,0c-1.9-0.1-3-0.117-3.3-0.05c-0.267,0.067-0.684,0.4-1.25,1
						c0.233-0.7,0-1.267-0.7-1.7c-0.3-0.167-0.867-0.25-1.7-0.25c-1.667,0-2.55-0.05-2.65-0.15c-5.533-0.1-9.733-0.117-12.6-0.05
						c-0.434,0.133-0.867,0.267-1.3,0.4c-0.4-0.233-0.733-0.383-1-0.45c-0.467,0.034-0.933,0-1.4-0.1c-0.067,0.033-0.067,0,0-0.1
						c-0.433,0.133-0.867,0.217-1.3,0.25c-0.403,0.062-0.761,0.137-1.075,0.225C4.449-26.942,4.524-26.95,4.6-26.95
						c0.167,0.034,0.333,0.017,0.5-0.05c0.114,0.057,0.23,0.074,0.35,0.05c-0.304,0.071-0.488,0.138-0.55,0.2
						c-0.1,0.033-0.15,0.067-0.15,0.1c0.367,0.066,0.867,0.066,1.5,0c0.467,0.066,1.2,0.217,2.2,0.45
						c0.033,0.067,0.133,0.017,0.3-0.15c0.1-0.066,0.25-0.133,0.45-0.2c0,0.3,0.066,0.55,0.2,0.75c0.067,0,0.133,0,0.2,0
						c0.1-0.1,0.25-0.383,0.45-0.85c0-0.067,0.45-0.133,1.35-0.2c0.7-0.066,2.983,0.133,6.85,0.6c0.433,0.067,0.867,0.133,1.3,0.2
						c1.367,0.2,2.534,0.35,3.5,0.45c1.333,0.167,2.267,0.283,2.8,0.35c0.233,0,0.467,0,0.7,0c0.467,0.133,0.733,0.217,0.8,0.25
						c0.066,0.033,0.117,0.267,0.15,0.7v0.15c-0.1,0.333-0.15,0.617-0.15,0.85c-0.1,0.633-0.15,1.066-0.15,1.3
						c0.033-0.033,0.066-0.067,0.1-0.1c0.133-0.333,0.317-0.717,0.55-1.15c0.066-0.4,0.183-0.783,0.35-1.15
						c0.033-0.067,0.066-0.184,0.1-0.35c0.133-0.233,0.8-0.333,2-0.3c0.3,0,1.65,0.2,4.05,0.6c0.566,0.2,1.25,0.333,2.05,0.4
						c0.267,0.133,0.6,0.216,1,0.25c0.1,0.1,0.25,0.15,0.45,0.15c0.467,0.267,0.717,0.467,0.75,0.6c0,0.8,0.117,1.15,0.35,1.05
						c0.033,0.1,0.133,0.067,0.3-0.1c0.067-0.033,0.183-0.117,0.35-0.25c0.267-0.267,0.733-0.383,1.4-0.35
						c0.833,0.133,1.533,0.417,2.1,0.85c0.4,0.434,0.583,0.867,0.55,1.3c0.167,0.066,0.317,0.083,0.45,0.05
						c0.533-0.533,1.05-0.933,1.55-1.2c0.1,0,0.25-0.066,0.45-0.2c0.467,0.066,0.917,0.066,1.35,0c0.566,0.1,1.25,0.283,2.05,0.55
						c0.067,0.033,0.2,0.083,0.4,0.15c0.5,0.233,0.983,0.4,1.45,0.5c0.267,0.133,0.533,0.217,0.8,0.25
						c0.1,0.034,0.25,0.067,0.45,0.1c0.9,0.2,1.85,0.4,2.85,0.6c0.2,0,0.383,0.2,0.55,0.6c-0.033,0.033-0.017,0.066,0.05,0.1
						c0.067,0.4,0.117,0.55,0.15,0.45h0.1c0.034-0.066,0.05-0.183,0.05-0.35c-0.067-0.033-0.067-0.066,0-0.1
						c-0.033-0.034-0.067-0.067-0.1-0.1c-0.133-0.1-0.133-0.25,0-0.45c0.2,0,0.45,0,0.75,0c0.667,0.067,1.133,0.217,1.4,0.45
						c-0.033,0.066-0.017,0.083,0.05,0.05c-0.034,0.067-0.017,0.083,0.05,0.05c0,0.233,0,0.6,0,1.1c0.001-0.033,0.068-0.067,0.2-0.1
						c-0.034-0.2,0.05-0.534,0.25-1c0.066-0.034,0.183-0.05,0.35-0.05c0.034,0.067,0.067,0.083,0.1,0.05
						c0.033,0.066,0.05,0.15,0.05,0.25c0.2,0,0.4-0.05,0.6-0.15c-0.1,0-0.066-0.05,0.1-0.15c0.067-0.033,0.133-0.066,0.2-0.1h0.05
						c1.7,0.4,3.517,0.8,5.45,1.2c0.933,0.333,1.583,0.617,1.95,0.85c0.034,0.033,0.067,0.066,0.1,0.1
						c0.197,0.296,0.264,0.804,0.2,1.525c0.024-0.152,0.208-0.478,0.55-0.975c0.033-0.333,0.2-0.517,0.5-0.55
						c0,0.033,0.067,0.066,0.2,0.1c1.933,1.233,2.933,2.15,3,2.75c0.133,1.767,0.25,3.067,0.35,3.9l0.05,0.15
						c-0.033,0.066-0.017,0.133,0.05,0.2C72.867-9.917,72.933-9.933,73-10c-0.033-0.233-0.017-0.467,0.05-0.7v-0.15l0.05-0.05
						c-0.033-0.4-0.017-0.85,0.05-1.35c-0.066-0.167-0.083-0.383-0.05-0.65c-0.1-0.2-0.133-0.383-0.1-0.55
						c-0.033-0.133-0.017-0.25,0.05-0.35c-0.033-0.067,0.117-0.117,0.45-0.15c0.2,0.067,0.4,0.133,0.6,0.2
						c0.033,0.033,0.05,0.067,0.05,0.1c0.167,0.2,0.333,0.4,0.5,0.6c-0.1-0.2-0.15-0.383-0.15-0.55c-0.1-0.1-0.2-0.2-0.3-0.3
						c-0.067,0.033-0.067,0.017,0-0.05c-0.967-0.8-1.483-1.267-1.55-1.4c-0.467-0.5-1.2-1.066-2.2-1.7
						c-0.067-0.034-0.133-0.067-0.2-0.1c-0.3-0.1-0.6-0.267-0.9-0.5c-0.733-0.267-1.467-0.533-2.2-0.8
						C66.517-18.617,65.933-18.85,65.4-19.15z M39.05-23.35c0,0.1,0.05,0.15,0.15,0.15c-0.133,0.034-0.267,0-0.4-0.1
						C38.9-23.267,38.983-23.283,39.05-23.35z"/>
					<path style="fill-rule:evenodd;clip-rule:evenodd;fill:#36776B;" d="M71.4-10.15c0.067-0.033,0.133-0.067,0.2-0.1
						c0-0.033,0-0.067,0-0.1c0.033-0.333,0.066-0.733,0.1-1.2c-0.067-0.133-0.284-0.467-0.65-1c-0.5-0.434-0.883-0.784-1.15-1.05
						c-0.233-0.367-0.4-0.45-0.5-0.25c-0.033,0.067-0.066,0.133-0.1,0.2c-0.2,0.4-0.333,0.933-0.4,1.6c0.1,0.133,0.2,0.216,0.3,0.25
						c0.333,0.333,0.716,0.667,1.15,1c0.1,0.167,0.2,0.283,0.3,0.35c0.167,0.233,0.383,0.35,0.65,0.35
						C71.333-10.067,71.367-10.083,71.4-10.15z M66.65-13.75c-0.066-0.3-0.267-0.533-0.6-0.7c-0.667-0.233-1.15-0.45-1.45-0.65
						c-0.333-0.133-0.733-0.383-1.2-0.75c-0.2-0.066-0.483-0.316-0.85-0.75c-0.133,0.133-0.2,0.267-0.2,0.4
						c-0.333,0.1-0.483,0.067-0.45-0.1c-0.133-0.034-0.283-0.067-0.45-0.1c-2.233-0.434-3.733-0.667-4.5-0.7
						c-0.967,0.167-1.467,0.217-1.5,0.15c-0.333,0.034-0.733-0.066-1.2-0.3c-0.033,0-0.067,0-0.1,0c-0.4-0.2-0.733-0.4-1-0.6
						c-0.6-0.267-1.2-0.467-1.8-0.6c-0.1,0.034-0.4,0.017-0.9-0.05H50.4c0.333,0.2,0.65,0.533,0.95,1
						c0.033,0.067,0.117,0.133,0.25,0.2c0.133,0.133,0.333,0.2,0.6,0.2c0.2,0.1,0.583,0.15,1.15,0.15
						c1.066,0.333,2.2,0.617,3.4,0.85c0.233,0.133,0.733,0.217,1.5,0.25c0.767,0.2,1.133,0.483,1.1,0.85
						c0.066,0,0.183,0.017,0.35,0.05c0.066-0.2,0.383-0.267,0.95-0.2c0,0.066,0.85,0.467,2.55,1.2c1.6,0.934,2.667,1.4,3.2,1.4
						c0.033-0.034,0.067-0.05,0.1-0.05C66.5-12.933,66.55-13.317,66.65-13.75z M34.35-21.05c0.133,0.3,0.316,0.417,0.55,0.35
						c0.2,0.034,0.517,0.017,0.95-0.05c0.2-0.033,0.667,0.133,1.4,0.5c0.033,0.033,0.133,0.067,0.3,0.1c0.034,0,0.067,0,0.1,0
						c0.067,0.033,0.133,0.066,0.2,0.1c0.367,0.233,0.667,0.35,0.9,0.35c0-0.033,0.067-0.05,0.2-0.05
						c0.033,0.067,0.183,0.017,0.45-0.15c0.1-0.033,0.184-0.05,0.25-0.05c0.033-0.033,0.117-0.066,0.25-0.1h0.05
						c-1.267-0.5-2.534-1.05-3.8-1.65c-0.2,0.034-0.35,0.067-0.45,0.1h-0.4c-0.233-0.033-0.417-0.05-0.55-0.05
						c-0.233-0.067-0.35-0.117-0.35-0.15c-0.467-0.167-0.733-0.267-0.8-0.3c-0.4-0.033-0.8-0.066-1.2-0.1
						c-0.133,0.167-0.15,0.284-0.05,0.35c0.1,0.133,0.183,0.2,0.25,0.2c0.066,0.4,0.133,0.617,0.2,0.65
						c-0.033-0.033,0.117-0.117,0.45-0.25c0.033,0.033,0.2,0.017,0.5-0.05C33.883-21.167,34.083-21.083,34.35-21.05z"/>
					<path style="fill-rule:evenodd;clip-rule:evenodd;fill:#102E28;" d="M6.75-27.4c-0.067,0.1-0.067,0.133,0,0.1
						c0.467,0.1,0.933,0.133,1.4,0.1c0.267,0.067,0.6,0.217,1,0.45c0.434-0.133,0.867-0.267,1.3-0.4
						c2.867-0.067,7.066-0.05,12.6,0.05c0.1,0.1,0.983,0.15,2.65,0.15c0.833,0,1.4,0.083,1.7,0.25c0.7,0.434,0.934,1,0.7,1.7
						c0.566-0.6,0.983-0.933,1.25-1c0.3-0.067,1.4-0.05,3.3,0.05c0.033,0,0.117,0,0.25,0c-0.033,0.034,0.117,0.067,0.45,0.1
						c1,0.167,2.667,0.35,5,0.55c0.433,0.1,0.733,0.35,0.9,0.75c0.033,0.167,0.067,0.333,0.1,0.5c-0.934-0.2-1.883-0.4-2.85-0.6
						c1.067,0.4,1.917,0.667,2.55,0.8c0.067,0.1,0.2,0.217,0.4,0.35c-0.034,0.033-0.017,0.067,0.05,0.1
						c0,0.066,0.05,0.083,0.15,0.05c0.067-0.033,0.184-0.183,0.35-0.45v-0.05c0.1-0.167,0.267-0.316,0.5-0.45
						c0.367-0.267,1.133-0.317,2.3-0.15c0.767,0.067,1.317,0.284,1.65,0.65c0.066,0.2,0.066,0.6,0,1.2v0.1
						c-0.067,0.133-0.083,0.267-0.05,0.4c0.067,0.1,0.133,0.15,0.2,0.15c-0.067-0.267-0.017-0.466,0.15-0.6
						c0.067-0.133,0.2-0.25,0.4-0.35c0.367-0.233,1.067-0.317,2.1-0.25c0.5,0.033,1.717,0.2,3.65,0.5c1.9,0.3,3.05,0.467,3.45,0.5
						c1.1,0.433,2,0.95,2.7,1.55c0.034-0.1,0.117-0.25,0.25-0.45c0.133,0.1,0.267,0.216,0.4,0.35c0.1,0.233,0.267,0.333,0.5,0.3
						c0.4,0.2,0.8,0.333,1.2,0.4c0.067,0.067,0.333,0.017,0.8-0.15c0.6,0.033,2.267,0.35,5,0.95c0,0.067,0.066,0.083,0.2,0.05
						c-1.633-0.6-3.483-1.2-5.55-1.8c-2.1-0.433-3.867-0.867-5.3-1.3c-1.635-0.232-3.151-0.574-4.55-1.025
						c-1.396-0.453-2.896-0.878-4.5-1.275c-1.944-0.652-3.661-1.052-5.15-1.2c-2.034-0.333-3.959-0.607-5.775-0.825
						C32.761-26.796,30.57-27.004,28-27.2c-2.333-0.133-4.617-0.25-6.85-0.35c-1.933-0.133-3.867-0.184-5.8-0.15
						c-2.033,0.034-4,0.083-5.9,0.15C8.483-27.45,7.583-27.4,6.75-27.4z"/>
					<path style="fill-rule:evenodd;clip-rule:evenodd;fill:#1F453E;" d="M49.9-21.2c-0.066,0.133-0.083,0.267-0.05,0.4
						c0.333,0.033,0.667,0.066,1,0.1c0.167,0,0.333,0,0.5,0C50.883-20.8,50.4-20.967,49.9-21.2z M39.05-23.35
						c-0.066,0.067-0.15,0.083-0.25,0.05c0.133,0.1,0.267,0.133,0.4,0.1C39.1-23.2,39.05-23.25,39.05-23.35z"/>
				</g>
			</g>
		</g>
	</g>
</symbol>
<use xlink:href="#waterlilies_x5F_leaves_x5F_middle"  width="75.4" height="98.15" y="-98.15" transform="matrix(2 0 0 -2 0 0)" style="overflow:visible;"/>
</svg>
