<?xml version="1.0" encoding="iso-8859-1"?>
<!-- Generator: Adobe Illustrator 16.0.0, SVG Export Plug-In . SVG Version: 6.00 Build 0)  -->
<!DOCTYPE svg PUBLIC "-//W3C//DTD SVG 1.1//EN" "http://www.w3.org/Graphics/SVG/1.1/DTD/svg11.dtd">
<svg version="1.1" id="Layer_1" xmlns="http://www.w3.org/2000/svg" xmlns:xlink="http://www.w3.org/1999/xlink" x="0px" y="0px"
	 width="118.6px" height="135.9px" viewBox="0 0 118.6 135.9" style="enable-background:new 0 0 118.6 135.9;" xml:space="preserve"
	>
<symbol  id="waterlilies_x5F_leaves_x5F_lowest" viewBox="0.06 -67.2 59.253 67.205">
	<g id="Layer_3_1_">
		<g>
			<g>
				<path style="fill-rule:evenodd;clip-rule:evenodd;fill:#102723;" d="M23.6-15.6v-0.05h-0.05c-0.267,0.267-0.517,0.5-0.75,0.7
					v0.05c-0.1,0.1-0.316,0.267-0.65,0.5c-0.367,0.233-0.566,0.367-0.6,0.4c0,0.033-0.033,0.083-0.1,0.15
					c-0.034,0.033-0.067,0.05-0.1,0.05c-0.067,0.033-0.1,0.083-0.1,0.15c-0.067,1,0.183,1.5,0.75,1.5
					c0.133,0.033,1.083-0.05,2.85-0.25l2.65-0.3c0.667,0,1.45-0.05,2.35-0.15c0.967-0.066,1.816-0.183,2.55-0.35
					c0.567-0.1,1.15-0.183,1.75-0.25c0.3-0.033,0.45-0.083,0.45-0.15c0.033-0.233-0.35-0.583-1.15-1.05c0.033,0,0.066,0,0.1,0
					c-0.1-0.033-0.2-0.083-0.3-0.15c-0.167-0.2-0.367-0.483-0.6-0.85c-0.6-0.833-0.933-1.35-1-1.55
					c-0.167-0.3-0.517-0.716-1.05-1.25c-0.067-0.066-0.133-0.133-0.2-0.2c-0.305-0.445-0.472-0.878-0.5-1.3
					c-0.033-0.1-0.316-2.8-0.85-8.1c0-0.3,0.05-1.55,0.15-3.75c0-0.133,0-0.233,0-0.3v-0.2c0.066-1.8,0.167-4.167,0.3-7.1
					c0.067-0.5,0.133-1.017,0.2-1.55c0-0.1,0-0.183,0-0.25c-0.034-0.1-0.034-0.216,0-0.35c0-0.034,0-0.083,0-0.15
					c0-0.033,0-0.083,0-0.15c0-0.1,0.05-0.35,0.15-0.75c0.1-0.533,0.283-1.383,0.55-2.55c0.467-1.967,0.733-3.567,0.8-4.8
					c0-0.167-0.034-0.8-0.1-1.9c0.033-0.8,0.283-1.9,0.75-3.3c0.367-1.1,0.7-1.95,1-2.55c0-0.033,0.083-0.35,0.25-0.95
					c0.133-0.434,0.316-0.783,0.55-1.05c0.6-0.233,1.167-0.4,1.7-0.5c-0.533-0.066-1.017-0.083-1.45-0.05
					c-0.767-0.2-1.2-0.467-1.3-0.8c-0.067-0.2-0.434-0.333-1.1-0.4c-0.167,0-0.333,0-0.5,0c-0.5,0-1.117,0.017-1.85,0.05v0.1
					c0.967,0.167,1.667,0.316,2.1,0.45c0.767,0.2,1.1,0.483,1,0.85l-0.9-0.05c-0.033,0.433-0.2,1.433-0.5,3
					c-0.367,1.533-0.567,2.716-0.6,3.55c0.1,1.367,0.133,2.317,0.1,2.85c-0.067-0.2-0.2-0.45-0.4-0.75
					c-0.233-0.233-0.383-0.35-0.45-0.35c-0.133-0.033-0.233-0.017-0.3,0.05c0,0.4-0.117,0.867-0.35,1.4
					c-0.2,0.566-0.3,0.883-0.3,0.95v0.2l0.35-0.6c0.1-0.233,0.317-0.3,0.65-0.2l-0.05,0.5c-0.667,3.733-1.033,6.034-1.1,6.9
					c0,0.6,0.033,1.267,0.1,2l-0.1,2.75c-0.433-0.1-0.717-0.383-0.85-0.85c-0.133-0.3-0.25-0.567-0.35-0.8
					c-0.067-0.267-0.133-0.433-0.2-0.5c0.033,0.133,0.067,0.25,0.1,0.35c0.367,1.733,0.617,2.917,0.75,3.55
					c0.233,1.167,0.333,2.1,0.3,2.8c0,0.467-0.083,1.033-0.25,1.7c-0.2,0.6-0.35,1.033-0.45,1.3l0.25,0.05
					c0.167-0.133,0.333-0.367,0.5-0.7c0.267-0.434,0.417-0.684,0.45-0.75h0.05l0.05,0.05c0.033,0.4,0.033,1.017,0,1.85
					c-0.033,0.633-0.05,1.167-0.05,1.6v0.2c0,0.1,0,0.184,0,0.25c-0.2,3.7,0.083,6.684,0.85,8.95c-0.2-0.333-0.35-0.633-0.45-0.9
					c-0.067-0.267-0.217-0.75-0.45-1.45c-0.167-0.667-0.3-1.217-0.4-1.65c-0.167-1.1-0.3-2.133-0.4-3.1
					c-0.033-0.167-0.033-0.35,0-0.55c-0.067-0.633-0.117-1.5-0.15-2.6l-0.05,1.95c0.067,0.7,0.083,1.383,0.05,2.05
					c0,0.667,0.033,1.283,0.1,1.85c0,0.6,0.05,1.15,0.15,1.65c0.033,0.233,0.066,0.433,0.1,0.6c0.193,0.771,0.41,1.521,0.65,2.25
					c0.133,0.3,0.283,0.6,0.45,0.9c0.533,0.933,1.067,1.55,1.6,1.85v0.25c-0.133,0.033-0.317-0.033-0.55-0.2
					c-0.167-0.167-0.284-0.283-0.35-0.35c0,0.133,0.017,0.217,0.05,0.25c0.2,0.434,0.367,0.717,0.5,0.85l-0.85,0.05
					c-0.566-0.034-0.917-0.184-1.05-0.45c-0.1-0.167-0.2-0.367-0.3-0.6l-0.05,0.2l0.1,0.35l-0.05,0.6l-1-0.05
					c-0.1-0.033-0.25-0.067-0.45-0.1v0.05h-0.2c-0.833,0.1-1.25-0.167-1.25-0.8c0-0.233,0.05-0.55,0.15-0.95
					c-0.167,0.3-0.4,0.65-0.7,1.05c-0.633,0.9-1.033,1.333-1.2,1.3c-0.167,0-0.233-0.033-0.2-0.1c0-0.233,0.083-0.5,0.25-0.8V-15.6z
					 M13.35-65.45c0.021-0.058,0.038-0.125,0.05-0.2c-0.4-0.067-0.833-0.2-1.3-0.4c-0.967-0.4-1.583-0.6-1.85-0.6H10.2
					c0.466,0.167,0.933,0.417,1.4,0.75c0.066,0.033,0.133,0.066,0.2,0.1c0.337,0.212,0.654,0.387,0.95,0.525
					c0.479,0.229,0.896,0.354,1.25,0.375c0.067,0,0.117,0,0.15,0l-0.4-0.35v0.1c-0.067,0.033-0.1,0.066-0.1,0.1
					c-0.066-0.133-0.133-0.25-0.2-0.35h-0.1c-0.033,0.066-0.083,0.1-0.15,0.1C13.262-65.321,13.313-65.371,13.35-65.45z M15-65
					c-0.2,0-0.317-0.033-0.35-0.1l0.05,0.15C14.767-64.95,14.867-64.967,15-65z M26.6-57.95v0.05c0.267,1.667,0.316,3.2,0.15,4.6
					c-0.167,1.466-0.2,2.417-0.1,2.85c0.133,0.434,0.2,1.633,0.2,3.6s-0.033,3.083-0.1,3.35c-0.033,0.233,0.017,0.85,0.15,1.85
					c0,0.367,0.033,0.767,0.1,1.2c0.133-0.367,0.2-0.65,0.2-0.85l0.05-3.85c0.033-0.567,0.117-1.35,0.25-2.35l0.05-0.5
					c-0.033,0-0.083,0.033-0.15,0.1c0,0.1-0.05,0.217-0.15,0.35l-0.1,0.05c0.033-0.167,0.033-0.433,0-0.8c0-0.367,0-0.85,0-1.45
					c-0.033-1.133-0.033-1.917,0-2.35c0.033-0.433,0.083-1.1,0.15-2c0.1-0.867,0.167-1.483,0.2-1.85
					c0.033-0.767-0.117-1.583-0.45-2.45c-0.466-1.267-0.733-2.133-0.8-2.6l-0.15-0.05l-0.05,0.15
					C26.05-60.833,26.233-59.85,26.6-57.95z M25.9-63.65c0,0.233,0.017,0.417,0.05,0.55c0.033,0,0.083-0.017,0.15-0.05
					c0.167-0.033,0.45-0.184,0.85-0.45c0.2-0.066,0.466-0.2,0.8-0.4c-0.2,0-0.467,0-0.8,0l-0.05,0.1c0.1,0.066,0.15,0.133,0.15,0.2
					l-0.3-0.05c0.033,0.067,0.083,0.117,0.15,0.15h-0.05c0-0.1-0.267-0.083-0.8,0.05C26.017-63.55,25.967-63.583,25.9-63.65z
					 M28-64.725c-0.063,0.022-0.13,0.047-0.2,0.075c0.133,0.133,0.25,0.25,0.35,0.35v0.1c0.167-0.1,0.333-0.183,0.5-0.25
					c0.533-0.267,1.083-0.466,1.65-0.6c-0.367-0.034-0.767-0.05-1.2-0.05C28.921-65.07,28.554-64.945,28-64.725z M24.1-63.5
					c-0.133-0.033-0.233-0.133-0.3-0.3l-0.05,0.15H23.4v-0.2c-0.267,0.133-0.433,0.217-0.5,0.25v-0.025v-0.025
					c0.1-0.067,0.167-0.184,0.2-0.35c-0.538-0.06-1.222-0.202-2.05-0.425c-0.05-0.011-0.1-0.02-0.15-0.025
					c-0.05-0.02-0.1-0.036-0.15-0.05c0,0.033,0,0.067,0,0.1s-0.033,0.1-0.1,0.2c-0.066,0.1-0.117,0.15-0.15,0.15
					c-0.133-0.133-0.283-0.233-0.45-0.3v0.3c0.7,0.233,1.184,0.367,1.45,0.4c0.509,0.084,0.884,0.143,1.125,0.175
					c0.048,0.012,0.089,0.02,0.125,0.025c0.5,0.034,0.85,0.2,1.05,0.5c0.733,1.267,1.117,1.967,1.15,2.1
					c0.066,0.067,0.133,0.1,0.2,0.1c-0.133-0.333-0.383-1.067-0.75-2.2C24.3-63.15,24.2-63.333,24.1-63.5z M27.8-64
					c0.034,0,0.1-0.017,0.2-0.05l-0.2-0.15h-0.35v0.05c0.066,0,0.15,0.033,0.25,0.1C27.732-64.018,27.766-64.001,27.8-64z M36-63.25
					c-0.2-0.067-0.4-0.117-0.6-0.15v0.05l0.35,0.2l-0.8-0.25v0.15c-0.034,0-0.117-0.033-0.25-0.1
					c-0.133-0.066-0.217-0.117-0.25-0.15c-0.034,0.067-0.1,0.117-0.2,0.15c-0.067-0.066-0.1-0.15-0.1-0.25c0-0.033,0-0.083,0-0.15
					v-0.025c-0.005-0.061-0.022-0.119-0.05-0.175c-0.167-0.033-0.367-0.066-0.6-0.1c-0.1,0-0.5-0.034-1.2-0.1
					c-0.767,0-1.3-0.033-1.6-0.1c0.033-0.033,0.066-0.067,0.1-0.1c-0.2,0.067-0.383,0.184-0.55,0.35
					c-0.167,0.033-0.317,0.133-0.45,0.3v0.15c0.034,0,0.083-0.017,0.15-0.05c0.633-0.033,1.2-0.033,1.7,0
					c0.6,0.033,0.934,0.05,1,0.05c0.233,0.033,0.583,0.183,1.05,0.45c0.033,0.167-0.083,0.3-0.35,0.4v0.5
					c0.8-0.333,1.6-0.65,2.4-0.95C35.85-63.183,35.933-63.217,36-63.25z M41.45-65.2c-0.067,0-0.133,0.017-0.2,0.05
					c-0.659,0.076-1.192,0.143-1.6,0.2c-0.129,0.018-0.246,0.034-0.35,0.05c0.2,0.1,0.333,0.183,0.4,0.25
					C40.3-64.85,40.883-65.033,41.45-65.2z M36.55-63.45c0.1-0.066,0.2-0.117,0.3-0.15c-0.133-0.033-0.233-0.05-0.3-0.05
					c-0.167,0-0.267,0-0.3,0C36.383-63.617,36.483-63.55,36.55-63.45z M37.8-64l-0.1,0.05h0.05L37.8-64z M38.35-64.15L37.8-64.2
					v0.05l0.3,0.1C38.167-64.083,38.25-64.117,38.35-64.15z M20-64.05c-0.167-0.133-0.317-0.233-0.45-0.3l-0.1,0.05
					c-0.067,0-0.217-0.1-0.45-0.3c0,0.033,0,0.1,0,0.2h-0.1l-0.1-0.1c-0.066-0.067-0.15-0.1-0.25-0.1c-0.033-0.033-0.1,0-0.2,0.1
					C18.983-64.333,19.533-64.183,20-64.05z M17.75-64.7c-0.067-0.033-0.133-0.1-0.2-0.2l-0.65-0.05
					C17.2-64.85,17.483-64.767,17.75-64.7c0.1,0.034,0.183,0.05,0.25,0.05c0-0.067-0.017-0.1-0.05-0.1
					C17.883-64.75,17.817-64.733,17.75-64.7z M14.45-64.95c0-0.033-0.017-0.05-0.05-0.05l-0.05,0.05
					C14.383-64.95,14.417-64.95,14.45-64.95z"/>
				<path style="fill-rule:evenodd;clip-rule:evenodd;fill:#163A34;" d="M27.1-39.6c-0.033,0-0.067-0.017-0.1-0.05
					c-0.033,0.2-0.1,0.383-0.2,0.55c-0.133,0.133-0.2,0.283-0.2,0.45c-0.033,0.1,0.05,1.15,0.25,3.15c0.2,2.067,0.3,3.367,0.3,3.9
					c-0.033,0.267-0.133,0.633-0.3,1.1c-0.167,0.533-0.25,0.867-0.25,1c-0.033,0.233,0.117,0.367,0.45,0.4
					c0.1,0,0.217-0.066,0.35-0.2c0.167-0.1,0.367-0.15,0.6-0.15l-0.05,0.1c-0.034,0.1-0.117,0.217-0.25,0.35
					c-0.1,0.067-0.25,0.183-0.45,0.35c-0.267,0.2-0.4,0.467-0.4,0.8c-0.033,0.9,0.217,2.95,0.75,6.15
					c0.033,0.3,0.083,0.583,0.15,0.85c0,0.067,0.017,0.1,0.05,0.1c0.149,0.835,0.274,1.536,0.375,2.1H28.2
					c0.167,0.8,0.25,1.233,0.25,1.3h-0.2c-0.167-0.1-0.3-0.25-0.4-0.45c-0.167-0.333-0.25-0.517-0.25-0.55L27.55-18
					c0,0.067,0.217,0.567,0.65,1.5c0,0.167-0.083,0.25-0.25,0.25c-0.067-0.067-0.133-0.15-0.2-0.25c-0.067,0-0.2,0-0.4,0
					c-0.133,0-0.434,0.133-0.9,0.4c-0.1-0.066-0.233-0.167-0.4-0.3c-0.167-0.167-0.25-0.283-0.25-0.35c0-0.033,0.217-0.467,0.65-1.3
					c0.1-0.2,0.2-0.4,0.3-0.6h-0.025c0.258-0.816,0.399-1.416,0.425-1.8v-2.4c-0.066-1.8-0.333-3.15-0.8-4.05
					c-0.067,1.667-0.133,2.917-0.2,3.75c-0.066,1.5-0.183,2.533-0.35,3.1h-0.15c-0.033-0.534-0.05-1.333-0.05-2.4h-0.2
					c0,0.5-0.167,0.85-0.5,1.05l-0.05,0.65c0.066-0.033,0.167-0.167,0.3-0.4c0,0.533,0.1,1.117,0.3,1.75
					c0.095,0.318,0.17,0.568,0.225,0.75H25.7c0.033,0.167,0.05,0.267,0.05,0.3c-0.033,0.133-0.35,0.6-0.95,1.4
					c-0.566,0.7-0.95,1.167-1.15,1.4L23.6-15.6v0.25c-0.167,0.3-0.25,0.567-0.25,0.8c-0.033,0.066,0.033,0.1,0.2,0.1
					c0.167,0.034,0.567-0.4,1.2-1.3c0.3-0.4,0.533-0.75,0.7-1.05c-0.1,0.4-0.15,0.716-0.15,0.95c0,0.633,0.417,0.9,1.25,0.8h0.2
					v-0.05c0.2,0.033,0.35,0.067,0.45,0.1l1,0.05l0.05-0.6l-0.1-0.35l0.05-0.2c0.1,0.233,0.2,0.434,0.3,0.6
					c0.133,0.267,0.483,0.417,1.05,0.45l0.85-0.05c-0.133-0.133-0.3-0.417-0.5-0.85c-0.033-0.033-0.05-0.117-0.05-0.25
					c0.066,0.067,0.183,0.184,0.35,0.35c0.233,0.167,0.417,0.233,0.55,0.2v-0.25c-0.533-0.3-1.067-0.917-1.6-1.85
					c-0.167-0.3-0.316-0.6-0.45-0.9c-0.241-0.729-0.458-1.479-0.65-2.25c-0.033-0.167-0.066-0.367-0.1-0.6
					c-0.1-0.5-0.15-1.05-0.15-1.65c-0.066-0.567-0.1-1.184-0.1-1.85c0.033-0.667,0.017-1.35-0.05-2.05L27.7-29
					c0.033,1.1,0.083,1.967,0.15,2.6c-0.033,0.2-0.033,0.383,0,0.55c0.1,0.967,0.233,2,0.4,3.1c0.1,0.433,0.233,0.983,0.4,1.65
					c0.233,0.7,0.383,1.184,0.45,1.45c0.1,0.267,0.25,0.566,0.45,0.9C28.783-21.017,28.5-24,28.7-27.7c0-0.066,0-0.15,0-0.25v-0.2
					c0-0.434,0.017-0.967,0.05-1.6c0.033-0.833,0.033-1.45,0-1.85l-0.05-0.05h-0.05c-0.033,0.066-0.183,0.316-0.45,0.75
					c-0.167,0.333-0.333,0.566-0.5,0.7l-0.25-0.05c0.1-0.267,0.25-0.7,0.45-1.3c0.167-0.667,0.25-1.233,0.25-1.7
					c0.033-0.7-0.066-1.633-0.3-2.8C27.717-36.683,27.467-37.867,27.1-39.6z M35.35-60.2c0.3-0.066,0.6-0.083,0.9-0.05
					c0.9,0.133,1.567,0.2,2,0.2c0.433,0.033,0.883-0.067,1.35-0.3c0.066,0,0.133-0.017,0.2-0.05c-0.7-0.067-1.417-0.15-2.15-0.25
					c-1.6-0.133-2.633-0.217-3.1-0.25c0.067-0.067,0.1-0.15,0.1-0.25c0.033-0.133,0.05-0.3,0.05-0.5c-0.067,0-0.317,0.117-0.75,0.35
					c-0.233,0.1-0.55,0.133-0.95,0.1c-0.567-0.033-1.5-0.383-2.8-1.05c-0.034,0-0.483,0.083-1.35,0.25
					c-0.3,0.067-0.55,0.133-0.75,0.2c-0.431,0.066-0.698,0.1-0.8,0.1c0.034,0,0.067,0.018,0.1,0.05v0.05
					c0.333,0.1,0.95,0.4,1.85,0.9c0.967,0.434,1.433,0.717,1.4,0.85c0,0.3-0.066,0.583-0.2,0.85c-0.2,0.3-0.333,0.5-0.4,0.6
					c0-0.033-0.017-0.05-0.05-0.05c-0.033,0.5-0.2,1.15-0.5,1.95c-0.5,1.167-0.783,1.833-0.85,2h-0.1
					c-0.1-0.233-0.15-0.433-0.15-0.6c-0.033,0.7-0.066,1.283-0.1,1.75c-0.066,0.7-0.2,1.233-0.4,1.6
					c-0.167,0.433-0.267,0.833-0.3,1.2c0.066,0.566,0.1,1,0.1,1.3c0.033,0.333-0.034,0.583-0.2,0.75l0.7-0.4
					c0.1,0.233,0.15,0.617,0.15,1.15c-0.033,0.2-0.117,0.7-0.25,1.5c-0.133,0.733-0.2,1.25-0.2,1.55c-0.033,0.434-0.033,1.2,0,2.3
					c0.067,1.066,0.083,1.8,0.05,2.2c-0.034,0.434-0.083,0.784-0.15,1.05c-0.167-0.033-0.367-0.133-0.6-0.3
					c0.1,0.233,0.216,0.5,0.35,0.8c0.133,0.467,0.417,0.75,0.85,0.85l0.1-2.75c-0.067-0.733-0.1-1.4-0.1-2
					c0.067-0.867,0.434-3.167,1.1-6.9l0.05-0.5c-0.333-0.1-0.55-0.033-0.65,0.2l-0.35,0.6v-0.2c0-0.066,0.1-0.383,0.3-0.95
					c0.233-0.534,0.35-1,0.35-1.4c0.066-0.066,0.167-0.083,0.3-0.05c0.067,0,0.217,0.117,0.45,0.35c0.2,0.3,0.333,0.55,0.4,0.75
					c0.033-0.533,0-1.483-0.1-2.85c0.033-0.833,0.233-2.017,0.6-3.55c0.3-1.567,0.467-2.567,0.5-3l0.9,0.05
					c0.1-0.367-0.233-0.65-1-0.85c-0.433-0.133-1.133-0.283-2.1-0.45v-0.1c0.733-0.033,1.35-0.05,1.85-0.05c0.167,0,0.333,0,0.5,0
					c0.667,0.067,1.033,0.2,1.1,0.4c0.1,0.333,0.533,0.6,1.3,0.8C34.333-60.283,34.817-60.267,35.35-60.2z M25.7-60.6v0.05
					c0,0.9,0.083,1.6,0.25,2.1l-0.05,0.7h-0.1c0.367,1.9,0.534,3.15,0.5,3.75c-0.233,1.033-0.35,1.617-0.35,1.75
					c-0.034,0.5,0,1.167,0.1,2c0.1,1,0.15,1.667,0.15,2c0,0.067,0.117,1.1,0.35,3.1c0.1,0.633,0.167,1.183,0.2,1.65
					c0.067-0.267,0.1-1.383,0.1-3.35s-0.067-3.167-0.2-3.6c-0.1-0.433-0.066-1.383,0.1-2.85c0.167-1.4,0.117-2.934-0.15-4.6v-0.05
					c-0.333-0.5-0.567-1.083-0.7-1.75C25.867-60.067,25.8-60.367,25.7-60.6z M28.4-55.15c0-0.133,0-0.35,0-0.65
					c0.033-0.133,0.05-0.267,0.05-0.4c0.033-0.566,0.017-0.95-0.05-1.15c-0.033,0.4-0.033,0.767,0,1.1
					C28.367-55.883,28.367-55.517,28.4-55.15z"/>
				<path style="fill-rule:evenodd;clip-rule:evenodd;fill:#1F453E;" d="M27.7-29c0.133-0.133,0.216-0.25,0.25-0.35l0.05-0.1
					c-0.233,0-0.433,0.05-0.6,0.15c-0.133,0.133-0.25,0.2-0.35,0.2c-0.333-0.033-0.483-0.167-0.45-0.4c0-0.133,0.083-0.467,0.25-1
					c0.167-0.467,0.267-0.833,0.3-1.1c0-0.533-0.1-1.833-0.3-3.9c-0.2-2-0.283-3.05-0.25-3.15c0-0.167,0.066-0.317,0.2-0.45
					c0.1-0.167,0.167-0.35,0.2-0.55c0.033,0.033,0.067,0.05,0.1,0.05c-0.033-0.1-0.067-0.217-0.1-0.35
					c0.067,0.067,0.133,0.233,0.2,0.5c0.233,0.167,0.433,0.267,0.6,0.3c0.067-0.267,0.117-0.617,0.15-1.05
					c0.033-0.4,0.017-1.133-0.05-2.2c-0.033-1.1-0.033-1.867,0-2.3c0-0.3,0.067-0.816,0.2-1.55c0.133-0.8,0.217-1.3,0.25-1.5
					c0-0.533-0.05-0.917-0.15-1.15l-0.7,0.4c0.167-0.167,0.233-0.417,0.2-0.75c0-0.3-0.034-0.733-0.1-1.3
					c0.033-0.367,0.133-0.767,0.3-1.2c0.2-0.367,0.333-0.9,0.4-1.6c0.034-0.467,0.067-1.05,0.1-1.75v-0.05
					c-0.033-0.367-0.033-0.733,0-1.1c-0.033-0.333-0.033-0.7,0-1.1c0.067,0.2,0.083,0.583,0.05,1.15c0,0.133-0.017,0.267-0.05,0.4
					h0.1c0.133-0.534,0.317-0.95,0.55-1.25c0.133-0.233,0.217-0.633,0.25-1.2c0.034-0.567-0.033-1-0.2-1.3
					c-0.133-0.233-0.434-0.45-0.9-0.65c-0.133-0.066-0.467-0.233-1-0.5c-0.5-0.3-0.95-0.466-1.35-0.5c0.1-0.1,0.217-0.183,0.35-0.25
					c-0.133-0.633-0.184-1.15-0.15-1.55c0-0.033,0.017-0.083,0.05-0.15c-0.067,0.033-0.117,0.05-0.15,0.05
					c-0.034-0.133-0.05-0.316-0.05-0.55c-0.033,0-0.083-0.017-0.15-0.05v0.3H25.6c0-0.067-0.05-0.1-0.15-0.1
					c-0.034,0.033-0.067,0.067-0.1,0.1c0.133,0.467,0.217,0.767,0.25,0.9c0.066,0.333,0.1,0.967,0.1,1.9
					c0.1,0.233,0.167,0.533,0.2,0.9c0.133,0.667,0.367,1.25,0.7,1.75c-0.367-1.9-0.55-2.883-0.55-2.95l0.05-0.15L26.25-61
					c0.067,0.467,0.333,1.333,0.8,2.6c0.333,0.867,0.483,1.683,0.45,2.45c-0.033,0.367-0.1,0.983-0.2,1.85
					c-0.066,0.9-0.117,1.567-0.15,2c-0.033,0.434-0.033,1.217,0,2.35c0,0.6,0,1.083,0,1.45c0.033,0.367,0.033,0.633,0,0.8l0.1-0.05
					c0.1-0.133,0.15-0.25,0.15-0.35c0.067-0.067,0.117-0.1,0.15-0.1l-0.05,0.5c-0.133,1-0.217,1.783-0.25,2.35L27.2-41.3
					c0,0.2-0.067,0.483-0.2,0.85c-0.067-0.433-0.1-0.833-0.1-1.2c-0.133-1-0.183-1.617-0.15-1.85c-0.033-0.467-0.1-1.017-0.2-1.65
					c-0.233-2-0.35-3.033-0.35-3.1c0-0.333-0.05-1-0.15-2c-0.1-0.833-0.133-1.5-0.1-2c0-0.133,0.117-0.717,0.35-1.75
					c0.034-0.6-0.133-1.85-0.5-3.75h-0.05c-0.333-0.733-0.7-1.733-1.1-3c-0.4-1-1.1-1.65-2.1-1.95
					c-0.244-0.088-0.769-0.305-1.575-0.65c-0.402-0.165-0.877-0.365-1.425-0.6c-0.966-0.4-1.85-0.65-2.65-0.75
					c-0.066,0-0.117-0.017-0.15-0.05c-0.1,0-0.217,0-0.35,0h-0.05c-0.033,0-0.067,0-0.1,0c-0.2,0-0.483,0.017-0.85,0.05
					c-0.033,0.034-0.066,0.05-0.1,0.05c-0.203,0.014-0.386,0.022-0.55,0.025c-0.242,0.017-0.441,0.025-0.6,0.025
					c-0.333-0.033-0.767-0.217-1.3-0.55c-0.3-0.133-0.65-0.35-1.05-0.65c-0.066-0.034-0.133-0.067-0.2-0.1
					c-0.467-0.333-0.934-0.583-1.4-0.75c-0.256,0-0.906,0.066-1.95,0.2c0.08-0.004,0.163-0.004,0.25,0
					c0.143,0.007,0.293,0.024,0.45,0.05c0.546,0.107,1.146,0.357,1.8,0.75c1.1,0.7,1.9,1.066,2.4,1.1c1.6,0.1,2.45,0.167,2.55,0.2
					c0.056,0.014,0.123,0.031,0.2,0.05c0.445,0.104,1.212,0.271,2.3,0.5c0.994,0.205,1.76,0.438,2.3,0.7
					c0.068,0.03,0.134,0.063,0.2,0.1c0.167,0.133,0.333,0.233,0.5,0.3c-0.167,0-0.35-0.017-0.55-0.05c0.567,0.167,0.95,0.3,1.15,0.4
					c0.567,0.167,1.1,0.383,1.6,0.65h-0.1c-0.167,0-0.45-0.1-0.85-0.3c-0.434-0.2-0.833-0.317-1.2-0.35c-0.1,0-0.3,0.033-0.6,0.1
					c-0.267,0-0.583-0.083-0.95-0.25c-0.467-0.2-1.233-0.4-2.3-0.6l-1.05-0.05v0.2c0.7,0.034,1.433,0.25,2.2,0.65
					c0.7,0.4,1.267,0.6,1.7,0.6c0.967,0.067,1.85,0.184,2.65,0.35c0.6,0.5,1.033,0.95,1.3,1.35c0.533,0.933,0.883,2.483,1.05,4.65
					c0.2,2.8,0.283,6.6,0.25,11.4c-0.033,0.934-0.067,1.817-0.1,2.65c0,0.1,0,0.233,0,0.4c-0.133,2.367-0.167,3.733-0.1,4.1
					c0,0.267,0,0.733,0,1.4l0.05,2.65c0,0.2-0.017,0.383-0.05,0.55c0,0.833,0,1.75,0,2.75c-0.033,1.034-0.117,2.983-0.25,5.85
					c-0.033,0.133-0.066,0.283-0.1,0.45c-0.267,1.467-0.4,2.267-0.4,2.4c0.1,0.767,0.133,1.417,0.1,1.95
					c-0.002,0.049-0.002,0.1,0,0.15c-0.033,0.5-0.167,1.05-0.4,1.65c-0.267,0.733-0.55,1.183-0.85,1.35h-0.05
					c-0.1,0.066-0.184,0.167-0.25,0.3c-0.133,0.167-0.233,0.3-0.3,0.4c0.233-0.2,0.483-0.433,0.75-0.7h0.05v0.05l0.05,0.05
					c0.2-0.233,0.583-0.7,1.15-1.4c0.6-0.8,0.917-1.267,0.95-1.4c0-0.033-0.017-0.133-0.05-0.3h-0.025
					c-0.054-0.182-0.129-0.432-0.225-0.75c-0.2-0.633-0.3-1.217-0.3-1.75c-0.133,0.233-0.233,0.367-0.3,0.4l0.05-0.65
					c0.333-0.2,0.5-0.55,0.5-1.05h0.2c0,1.067,0.017,1.867,0.05,2.4h0.15c0.167-0.567,0.284-1.6,0.35-3.1
					c0.067-0.833,0.133-2.083,0.2-3.75c0.467,0.9,0.733,2.25,0.8,4.05v2.4c-0.025,0.384-0.167,0.984-0.425,1.8h0.025
					c-0.1,0.2-0.2,0.4-0.3,0.6c-0.434,0.833-0.65,1.267-0.65,1.3c0,0.067,0.083,0.183,0.25,0.35c0.167,0.133,0.3,0.233,0.4,0.3
					c0.466-0.267,0.767-0.4,0.9-0.4c0.2,0,0.333,0,0.4,0c0.067,0.1,0.133,0.183,0.2,0.25c0.167,0,0.25-0.083,0.25-0.25
					c-0.434-0.933-0.65-1.433-0.65-1.5l0.05-0.35c0,0.033,0.083,0.217,0.25,0.55c0.1,0.2,0.233,0.35,0.4,0.45h0.2
					c0-0.066-0.083-0.5-0.25-1.3h-0.025c-0.101-0.564-0.226-1.265-0.375-2.1c-0.1,0.6-0.2,1.283-0.3,2.05v0.05
					c-0.133,0.767-0.183,1.383-0.15,1.85c-0.2,0-0.4,0.033-0.6,0.1c0-0.033-0.083-0.133-0.25-0.3c-0.133-0.133-0.2-0.267-0.2-0.4
					c0-0.033,0.2-0.45,0.6-1.25h-0.025c0.059-0.141,0.117-0.291,0.175-0.45c0.3-0.733,0.534-1.316,0.7-1.75
					c-0.067-0.267-0.117-0.55-0.15-0.85c-0.533-3.2-0.783-5.25-0.75-6.15c0-0.333,0.133-0.6,0.4-0.8
					C27.45-28.817,27.6-28.933,27.7-29z M25.95-29.9c0.1-1.133,0.1-2.883,0-5.25c-0.1-2.333-0.2-3.434-0.3-3.3l0.2-0.55
					c0.125-0.344,0.175-0.61,0.15-0.8c0.667,4.135,0.983,6.485,0.95,7.05c-0.034,0.433-0.217,1.067-0.55,1.9
					C26.2-30.483,26.05-30.167,25.95-29.9z M36.2-61.9c0.187-0.144,0.503-0.327,0.95-0.55c0.59-0.297,1.406-0.664,2.45-1.1v-0.05
					c-0.733,0.167-1.467,0.333-2.2,0.5c-2.1,0.434-3.717,0.85-4.85,1.25c-0.267-0.033-0.483-0.1-0.65-0.2
					c-0.2-0.167-0.3-0.333-0.3-0.5l0.05-0.6c-0.433,0.2-1,0.35-1.7,0.45c-0.367,0.034-0.667,0.083-0.9,0.15
					c-0.066,0.033-0.133,0.05-0.2,0.05c-0.233-0.033-0.6-0.1-1.1-0.2l1.05-0.8l0.7,0.45c0.233,0,0.433-0.017,0.6-0.05
					c0.033,0,0.25-0.1,0.65-0.3l0.85,0.05c-0.167-0.133-0.467-0.217-0.9-0.25c-0.3,0-0.55,0.017-0.75,0.05v-0.05
					c-0.067,0.033-0.117,0.05-0.15,0.05v-0.15c0.133-0.167,0.284-0.267,0.45-0.3c0.167-0.167,0.35-0.283,0.55-0.35
					c0-0.033,0.017-0.083,0.05-0.15c0.167-0.2,0.367-0.4,0.6-0.6c-0.333,0.133-0.684,0.267-1.05,0.4
					c-1.033,0.333-1.667,0.567-1.9,0.7c-0.3,0.2-0.733,0.65-1.3,1.35c-0.467,0.6-0.784,0.967-0.95,1.1c0.367-0.2,0.8-0.3,1.3-0.3
					c0.167,0.033,0.35,0.05,0.55,0.05c0.2-0.067,0.45-0.133,0.75-0.2c0.867-0.167,1.316-0.25,1.35-0.25
					c1.3,0.667,2.233,1.017,2.8,1.05c0.4,0.034,0.717,0,0.95-0.1c0.433-0.233,0.683-0.35,0.75-0.35c0,0.2-0.017,0.367-0.05,0.5
					c0,0.1-0.033,0.183-0.1,0.25c0.467,0.033,1.5,0.117,3.1,0.25c0.733,0.1,1.45,0.183,2.15,0.25c0.467-0.233,1.034-0.367,1.7-0.4
					c0.667,0,1.833,0.033,3.5,0.1c-0.047-0.071-0.097-0.146-0.15-0.225c-0.014-0.021-0.031-0.046-0.05-0.075
					c-4-0.033-6.017,0.067-6.05,0.3c-0.033,0-0.05-0.033-0.05-0.1c0.066-0.034,0.167-0.067,0.3-0.1c0.233-0.067,0.35-0.15,0.35-0.25
					l-0.15-0.2c-0.067-0.033-0.133-0.05-0.2-0.05c-0.1,0-0.167,0.033-0.2,0.1c0,0.1-0.066,0.15-0.2,0.15
					c-0.033,0-0.25-0.083-0.65-0.25c-0.4-0.033-0.967,0.017-1.7,0.15c-0.7,0.1-1.15,0.15-1.35,0.15c-0.1,0-0.183-0.017-0.25-0.05
					l0.05-0.05c0.267,0.1,0.583,0.034,0.95-0.2C35.817-61.567,36-61.733,36.2-61.9z"/>
				<path style="fill-rule:evenodd;clip-rule:evenodd;fill:#2A5950;" d="M27.8-20.75c-0.033,0-0.05-0.033-0.05-0.1
					c-0.167,0.434-0.4,1.017-0.7,1.75c-0.058,0.159-0.116,0.309-0.175,0.45H26.9c-0.4,0.8-0.6,1.217-0.6,1.25
					c0,0.133,0.067,0.267,0.2,0.4c0.167,0.167,0.25,0.267,0.25,0.3c0.2-0.066,0.4-0.1,0.6-0.1c-0.033-0.467,0.017-1.083,0.15-1.85
					v-0.05C27.6-19.467,27.7-20.15,27.8-20.75z"/>
				<path style="fill-rule:evenodd;clip-rule:evenodd;fill:#2B5951;" d="M28.4-55.8c0,0.3,0,0.517,0,0.65v0.05
					c0,0.167,0.05,0.367,0.15,0.6h0.1c0.067-0.167,0.35-0.833,0.85-2c0.3-0.8,0.467-1.45,0.5-1.95c0.033,0,0.05,0.017,0.05,0.05
					c0.067-0.1,0.2-0.3,0.4-0.6c0.133-0.267,0.2-0.55,0.2-0.85c0.033-0.133-0.433-0.417-1.4-0.85c-0.9-0.5-1.517-0.8-1.85-0.9v-0.05
					c-0.033-0.033-0.066-0.05-0.1-0.05c0.103,0,0.369-0.034,0.8-0.1c-0.2,0-0.383-0.017-0.55-0.05c-0.5,0-0.933,0.1-1.3,0.3
					c-0.032,0.064-0.049,0.115-0.05,0.15v-0.05c-0.133,0.067-0.25,0.15-0.35,0.25c0.4,0.034,0.85,0.2,1.35,0.5
					c0.533,0.267,0.867,0.434,1,0.5c0.466,0.2,0.767,0.417,0.9,0.65c0.167,0.3,0.233,0.733,0.2,1.3
					c-0.033,0.567-0.117,0.967-0.25,1.2c-0.233,0.3-0.417,0.716-0.55,1.25H28.4z M25.95-29.9c0.1-0.267,0.25-0.583,0.45-0.95
					c0.333-0.833,0.517-1.467,0.55-1.9c0.033-0.565-0.284-2.915-0.95-7.05c0.025,0.189-0.025,0.456-0.15,0.8l-0.2,0.55
					c0.1-0.133,0.2,0.967,0.3,3.3C26.05-32.783,26.05-31.033,25.95-29.9z M31.65-63.15v-0.05l-0.05-0.15l-0.85-0.05
					c-0.4,0.2-0.617,0.3-0.65,0.3c-0.167,0.033-0.367,0.05-0.6,0.05l-0.7-0.45l-1.05,0.8c0.5,0.1,0.867,0.167,1.1,0.2
					c0.066,0,0.133-0.017,0.2-0.05c0.233-0.067,0.534-0.117,0.9-0.15C30.65-62.8,31.217-62.95,31.65-63.15z"/>
				<path style="fill-rule:evenodd;clip-rule:evenodd;fill:#17322D;" d="M20.65-62.75c-0.066,0-0.133,0-0.2,0
					c-1.167-0.167-1.95-0.3-2.35-0.4l-1.75-0.1v0.1l1.05,0.05c1.067,0.2,1.833,0.4,2.3,0.6c0.367,0.167,0.683,0.25,0.95,0.25
					c0.3-0.067,0.5-0.1,0.6-0.1c0.367,0.033,0.767,0.15,1.2,0.35c0.4,0.2,0.683,0.3,0.85,0.3h0.1c-0.5-0.267-1.033-0.483-1.6-0.65
					C21.6-62.45,21.217-62.583,20.65-62.75z M44.8-61c-0.267-0.2-0.633-0.317-1.1-0.35c-0.534-0.1-1.133-0.117-1.8-0.05
					c-0.566,0.033-1.117-0.05-1.65-0.25C39.617-61.883,39.2-62,39-62c-0.333,0-0.8,0.033-1.4,0.1c-0.434,0.066-0.9,0.066-1.4,0
					c-0.2,0.167-0.383,0.333-0.55,0.5c-0.367,0.233-0.683,0.3-0.95,0.2l-0.05,0.05c0.067,0.033,0.15,0.05,0.25,0.05
					c0.2,0,0.65-0.05,1.35-0.15c0.733-0.133,1.3-0.183,1.7-0.15c0.4,0.167,0.617,0.25,0.65,0.25c0.133,0,0.2-0.05,0.2-0.15
					c0.034-0.067,0.1-0.1,0.2-0.1c0.067,0,0.133,0.017,0.2,0.05l0.15,0.2c0,0.1-0.117,0.183-0.35,0.25
					c-0.133,0.033-0.233,0.066-0.3,0.1c0,0.066,0.017,0.1,0.05,0.1C38.783-60.933,40.8-61.033,44.8-61z"/>
				<path style="fill-rule:evenodd;clip-rule:evenodd;fill:#193E37;" d="M16.9-64.7c0.8,0.1,1.684,0.35,2.65,0.75
					c0.548,0.235,1.023,0.435,1.425,0.6c0.806,0.345,1.331,0.562,1.575,0.65c1,0.3,1.7,0.95,2.1,1.95c0.4,1.267,0.767,2.267,1.1,3
					h0.05h0.1l0.05-0.7c-0.167-0.5-0.25-1.2-0.25-2.1v-0.05c0-0.933-0.034-1.566-0.1-1.9c-0.033-0.133-0.117-0.433-0.25-0.9
					c-0.033,0-0.05-0.033-0.05-0.1c-0.033,0-0.05-0.033-0.05-0.1H25.2c-0.067-0.033-0.184-0.066-0.35-0.1v0.2h-0.1
					c-0.067-0.1-0.133-0.167-0.2-0.2v0.15c0.067,0,0.133,0.05,0.2,0.15c0.033,0.033,0.05,0.066,0.05,0.1
					c-0.167-0.034-0.316-0.117-0.45-0.25v0.15c-0.1,0-0.184-0.033-0.25-0.1c0.1,0.167,0.2,0.35,0.3,0.55
					c0.367,1.133,0.617,1.867,0.75,2.2c-0.066,0-0.133-0.033-0.2-0.1c-0.034-0.133-0.417-0.833-1.15-2.1
					c-0.2-0.3-0.55-0.466-1.05-0.5c-0.036-0.005-0.077-0.013-0.125-0.025c-0.241-0.032-0.616-0.09-1.125-0.175
					c-0.267-0.033-0.75-0.167-1.45-0.4H20c-0.467-0.133-1.017-0.284-1.65-0.45c-0.1-0.033-0.184-0.067-0.25-0.1h-0.05
					c-0.033,0-0.05-0.017-0.05-0.05c-0.067,0-0.15-0.017-0.25-0.05c-0.267-0.066-0.55-0.15-0.85-0.25h-0.2v0.1L16.9-64.7z
					 M16.75-64.75c-0.1-0.033-0.233-0.1-0.4-0.2v0.05c0.033,0.033,0.05,0.083,0.05,0.15C16.533-64.75,16.65-64.75,16.75-64.75z
					 M16.25-64.75L15.9-65l-0.05,0.2h-0.1L15.6-65c-0.1,0.167-0.167,0.267-0.2,0.3c0-0.167-0.083-0.267-0.25-0.3
					c-0.033,0-0.083,0-0.15,0c-0.133,0.033-0.233,0.05-0.3,0.05c-0.1,0-0.184,0-0.25,0c-0.034,0-0.067,0-0.1,0
					c-0.067,0.034-0.133,0.05-0.2,0.05c-0.033,0-0.083,0-0.15,0c-0.354-0.021-0.771-0.146-1.25-0.375
					c-0.296-0.138-0.613-0.313-0.95-0.525c0.4,0.3,0.75,0.517,1.05,0.65c0.533,0.333,0.967,0.517,1.3,0.55
					c0.159,0,0.358-0.008,0.6-0.025c0.164-0.003,0.347-0.011,0.55-0.025c0.034,0,0.067-0.017,0.1-0.05
					C15.767-64.733,16.05-64.75,16.25-64.75z M28-64.05C27.9-64.017,27.833-64,27.8-64h-0.05c-0.333,0.2-0.6,0.333-0.8,0.4
					c-0.4,0.267-0.684,0.417-0.85,0.45c-0.033,0.066-0.05,0.117-0.05,0.15c-0.033,0.4,0.017,0.917,0.15,1.55v0.05
					c0.001-0.035,0.018-0.085,0.05-0.15c0.167-0.133,0.483-0.5,0.95-1.1c0.566-0.7,1-1.15,1.3-1.35c0.233-0.133,0.867-0.367,1.9-0.7
					c0.367-0.133,0.717-0.267,1.05-0.4c-0.333,0-0.717,0.017-1.15,0.05c-0.566,0.133-1.117,0.333-1.65,0.6
					c-0.167,0.067-0.333,0.15-0.5,0.25C28.083-64.133,28.033-64.083,28-64.05z M36-63.25c-0.067,0.033-0.15,0.067-0.25,0.1
					c-0.8,0.3-1.6,0.617-2.4,0.95v-0.5c0.267-0.1,0.383-0.233,0.35-0.4c-0.467-0.267-0.817-0.417-1.05-0.45
					c-0.066,0-0.4-0.017-1-0.05c-0.5-0.033-1.066-0.033-1.7,0v0.05c0.2-0.034,0.45-0.05,0.75-0.05c0.433,0.033,0.733,0.117,0.9,0.25
					l0.05,0.15v0.05l-0.05,0.6c0,0.167,0.1,0.333,0.3,0.5c0.167,0.1,0.383,0.167,0.65,0.2c1.133-0.4,2.75-0.816,4.85-1.25
					c0.733-0.167,1.467-0.333,2.2-0.5c0.683-0.276,1.266-0.509,1.75-0.7c0.344-0.13,0.636-0.239,0.875-0.325
					c0.258-0.085,0.449-0.144,0.575-0.175c0.267-0.067,1.233-0.067,2.9,0c0.947,0,1.881-0.2,2.8-0.6
					c0.152-0.06,0.302-0.126,0.45-0.2c-0.434,0.033-1.434,0.067-3,0.1c-0.833,0-1.467,0-1.9,0c-0.3,0.067-0.517,0.083-0.65,0.05
					c-0.433,0.034-1.083,0.117-1.95,0.25c-0.567,0.167-1.15,0.35-1.75,0.55c0,0.033,0.017,0.066,0.05,0.1
					c0.1,0.167,0.15,0.267,0.15,0.3c-0.133,0.1-0.233,0.15-0.3,0.15c-0.167-0.033-0.317-0.083-0.45-0.15
					c0,0.167-0.083,0.25-0.25,0.25c0.032-0.001-0.035-0.051-0.2-0.15h-0.05V-64c-0.002-0.067-0.019-0.1-0.05-0.1
					c-0.033-0.033-0.1-0.05-0.2-0.05h-0.05c-0.1,0.033-0.184,0.066-0.25,0.1C38-64.017,37.9-64,37.8-64l-0.05,0.05
					c-0.067,0.034-0.133,0.067-0.2,0.1h-0.1v0.05h0.1v0.1c0,0.034-0.083,0.083-0.25,0.15c-0.1,0.033-0.133,0.083-0.1,0.15
					c-0.167-0.1-0.284-0.167-0.35-0.2c-0.1,0.033-0.2,0.083-0.3,0.15c0.133,0.067,0.233,0.117,0.3,0.15H36.8l-0.55-0.05
					c-0.033,0-0.067,0-0.1,0C36.083-63.317,36.033-63.283,36-63.25z"/>
				<path style="fill-rule:evenodd;clip-rule:evenodd;fill-opacity:0.451;" d="M20.5-63.1c-0.575,0.029-1.091-0.038-1.55-0.2h-1.4
					h-1.4l0.05,0.15c0.066,0,0.117,0,0.15,0v-0.1l1.75,0.1c0.4,0.1,1.183,0.233,2.35,0.4c0.066,0,0.133,0,0.2,0
					c0.2,0.033,0.383,0.05,0.55,0.05c-0.167-0.066-0.333-0.167-0.5-0.3C20.634-63.037,20.568-63.07,20.5-63.1z M13.35-65.45
					c0.181-0.057,0.397-0.14,0.65-0.25l-0.075-0.1L13.9-65.85c-2-0.667-3.233-1-3.7-1c-0.767,0.133-1.434,0.217-2,0.25v0.125
					c0.017,0.01,0.034,0.019,0.05,0.025c1.044-0.133,1.694-0.2,1.95-0.2h0.05c0.267,0,0.883,0.2,1.85,0.6
					c0.467,0.2,0.9,0.333,1.3,0.4C13.388-65.575,13.371-65.508,13.35-65.45z M36.2-61.9c0.5,0.066,0.966,0.066,1.4,0
					c0.6-0.067,1.066-0.1,1.4-0.1c0.2,0,0.617,0.117,1.25,0.35c0.533,0.2,1.083,0.283,1.65,0.25c0.667-0.067,1.267-0.05,1.8,0.05
					c0.466,0.033,0.833,0.15,1.1,0.35c0.02,0.029,0.036,0.054,0.05,0.075l0.3-0.025c-0.095-0.095-0.22-0.178-0.375-0.25
					c-0.255-0.124-0.597-0.207-1.025-0.25c-0.7-0.066-1.217-0.133-1.55-0.2l-1.7-0.2c-0.667-0.233-1.167-0.35-1.5-0.35
					c-0.7,0.1-1.167,0.15-1.4,0.15s-0.383-0.133-0.45-0.4C36.704-62.227,36.387-62.043,36.2-61.9z M22.9-63.625
					c0.077-0.042,0.16-0.1,0.25-0.175c0.2-0.2,0.383-0.3,0.55-0.3v-0.025v-0.025c-1.067-0.2-1.883-0.3-2.45-0.3l-0.2,0.025
					c0.829,0.223,1.512,0.365,2.05,0.425c-0.033,0.167-0.1,0.283-0.2,0.35V-63.625z M28.175-64.975
					c-0.106,0.077-0.165,0.16-0.175,0.25c0.554-0.22,0.921-0.345,1.1-0.375c0.433,0,0.833,0.017,1.2,0.05
					c0.434-0.034,0.817-0.05,1.15-0.05c-0.233,0.2-0.434,0.4-0.6,0.6c-0.033,0.067-0.05,0.117-0.05,0.15
					c-0.033,0.033-0.066,0.067-0.1,0.1c0.3,0.067,0.833,0.1,1.6,0.1c0.7,0.066,1.1,0.1,1.2,0.1c0.233,0.033,0.433,0.066,0.6,0.1
					c0.028,0.057,0.045,0.115,0.05,0.175c0.032-0.01,0.065-0.019,0.1-0.025c0.194-0.043,0.494-0.126,0.9-0.25
					c-0.257,0.014-0.49,0.014-0.7,0L31-64.45l0.05-0.15c0.5-0.133,0.75-0.3,0.75-0.5l-0.05-0.15l-2-0.05
					C28.919-65.256,28.394-65.147,28.175-64.975z M39.65-64.95c0.408-0.057,0.941-0.124,1.6-0.2c0.067-0.033,0.133-0.05,0.2-0.05
					c0.867-0.133,1.517-0.216,1.95-0.25c0.133,0.034,0.35,0.017,0.65-0.05c0.434,0,1.067,0,1.9,0c1.566-0.033,2.566-0.067,3-0.1
					c-0.148,0.074-0.298,0.141-0.45,0.2c0.113-0.009,0.246-0.042,0.4-0.1c0.207-0.069,0.349-0.136,0.425-0.2
					c0.04-0.035,0.064-0.069,0.075-0.1h-0.25c-0.167,0.066-0.7,0.1-1.6,0.1l-2.85-0.1c-0.9,0-1.733,0.066-2.5,0.2
					c-0.246,0.062-1.037,0.261-2.375,0.6C39.764-64.981,39.706-64.964,39.65-64.95z"/>
				<path style="fill-rule:evenodd;clip-rule:evenodd;fill-opacity:0.2;" d="M15.9-64.3c1.104,0.312,1.771,0.595,2,0.85l-0.35,0.15
					h1.4c0.458,0.162,0.975,0.229,1.55,0.2c-0.54-0.262-1.306-0.495-2.3-0.7C17.112-64.029,16.345-64.196,15.9-64.3z M23.7-64.125
					l0.35-0.075v-0.2c-0.733-0.133-1.417-0.2-2.05-0.2c-0.533,0-0.9,0.017-1.1,0.05v0.1c0.05,0.006,0.1,0.014,0.15,0.025l0.2-0.025
					c0.567,0,1.383,0.1,2.45,0.3V-64.125z M8.2-66.475V-66.6c0.566-0.033,1.233-0.117,2-0.25c0.466,0,1.7,0.333,3.7,1l0.025,0.05
					L14-65.7c0.367-0.086,0.55-0.219,0.55-0.4c-2.267-0.733-3.566-1.1-3.9-1.1c-1.633,0.267-2.7,0.4-3.2,0.4l0.05,0.15
					C7.802-66.59,8.035-66.531,8.2-66.475z M35.15-64.05c0.196-0.064,0.413-0.131,0.65-0.2c-0.855-0.14-1.755-0.231-2.7-0.275
					c-0.945-0.044-1.261-0.202-0.95-0.475c0.2-0.197,0.3-0.305,0.3-0.325c0-0.026-0.059-0.076-0.175-0.15
					c-0.117-0.073-0.733-0.132-1.85-0.175c-1.117-0.037-1.867,0.188-2.25,0.675c0.219-0.172,0.744-0.281,1.575-0.325l2,0.05
					l0.05,0.15c0,0.2-0.25,0.367-0.75,0.5L31-64.45l3.45,0.4C34.66-64.036,34.893-64.036,35.15-64.05z M37.15-62.45
					c0.067,0.267,0.217,0.4,0.45,0.4s0.7-0.05,1.4-0.15c0.333,0,0.833,0.117,1.5,0.35l1.7,0.2c0.333,0.066,0.85,0.133,1.55,0.2
					c0.428,0.043,0.77,0.126,1.025,0.25c-0.441-0.313-1.566-0.596-3.375-0.85c-1.801-0.27-2.659-0.469-2.575-0.6
					c0.087-0.129,0.446-0.396,1.075-0.8c0.624-0.401,1.107-0.685,1.45-0.85c-0.484,0.191-1.067,0.424-1.75,0.7v0.05
					C38.556-63.114,37.74-62.747,37.15-62.45z M49.325-65.7c0.751-0.168,1.193-0.335,1.325-0.5H49.7
					c-2.567,0.067-4.383,0.133-5.45,0.2c-1.767,0.133-3.242,0.467-4.425,1c1.338-0.339,2.129-0.539,2.375-0.6
					c0.767-0.133,1.6-0.2,2.5-0.2l2.85,0.1c0.9,0,1.434-0.033,1.6-0.1h0.25C49.39-65.769,49.365-65.735,49.325-65.7z"/>
			</g>
		</g>
		<g>
			<g>
				<g>
					<path style="fill-rule:evenodd;clip-rule:evenodd;fill:#153A34;" d="M56-3.2c0.533-0.2,1.067-0.483,1.6-0.85
						c0.2-0.067,0.35-0.15,0.45-0.25c0.034-0.034,0.067-0.083,0.1-0.15V-4.5c0.167-0.333,0.133-0.7-0.1-1.1
						c-0.066-0.1-0.466-0.583-1.2-1.45l0.45,0.475c0.358,0.417,0.525,0.625,0.5,0.625v-0.025c0.029,0.01,0.054,0.019,0.075,0.025
						c0.028-0.086,0.053-0.286,0.075-0.6c0.114,0.191,0.223,0.366,0.325,0.525C58.281-6.129,58.223-6.288,58.1-6.5
						c-0.307-0.542-0.824-0.967-1.55-1.275c-0.734-0.309-1.518-0.634-2.35-0.975l-2.3-0.125L51.5-8.9c0.367,1.3,0.183,2.1-0.55,2.4
						c0.3,0.067,0.533,0.133,0.7,0.2c0.633,0.2,1.167,0.4,1.6,0.6c0.767,0.467,1.317,1.117,1.65,1.95
						c0.233,0.233-0.15,0.467-1.15,0.7c-0.967,0.267-1.767,0.45-2.4,0.55H51.3c-0.033,0-0.066,0-0.1,0
						c-0.034,0-0.067,0.017-0.1,0.05c-0.833,0.267-1.55,0.467-2.15,0.6c-1.4,0.267-3.017,0.45-4.85,0.55
						c-2.5,0.066-5.033,0.183-7.6,0.35c0.033,0.1,0.1,0.167,0.2,0.2c0.033-0.1,0.1-0.15,0.2-0.15c2.4,0.133,4.434,0.133,6.1,0
						s3.417-0.3,5.25-0.5c1.133-0.133,1.95-0.25,2.45-0.35c0.367-0.067,0.566-0.117,0.6-0.15l0.55-0.15c1.1-0.2,2.133-0.45,3.1-0.75
						c0.2-0.067,0.4-0.133,0.6-0.2l0.1-0.05c0.033-0.034,0.1-0.067,0.2-0.1c0.033,0,0.066,0,0.1,0C55.983-3.15,56-3.167,56-3.2z
						 M9.5-1C9-0.967,8.55-0.95,8.15-0.95c-0.267-0.066-0.533-0.167-0.8-0.3C6.517-1.583,6.033-2.033,5.9-2.6
						C5.867-2.833,5.883-3,5.95-3.1C6.017-3.233,6.067-3.417,6.1-3.65c0.033-0.1,0.05-0.233,0.05-0.4L6.1-4.1
						C6-4.067,5.867-3.883,5.7-3.55C5.633-3.45,5.567-3.333,5.5-3.2C5.267-2.633,5.1-2.317,5-2.25c-0.033,0-0.133-0.1-0.3-0.3
						c-0.133-0.133-0.267-0.2-0.4-0.2c-0.133-0.033-0.267-0.033-0.4,0C3.867-2.85,3.683-3.333,3.35-4.2
						c-0.067,0.1-0.167,0.184-0.3,0.25C3.15-4.25,3.3-4.533,3.5-4.8C4-5.267,4.633-5.633,5.4-5.9C5.467-5.933,5.55-5.967,5.65-6
						C5.619-6.031,5.86-6.356,6.375-6.975C6.418-7.011,6.459-7.053,6.5-7.1C4.783-6.765,3.642-6.423,3.075-6.075
						C2.513-5.727,2.054-5.368,1.7-5C1.337-4.633,1.104-4.383,1-4.25L0.7-3.6c0.167,0,0.25,0.033,0.25,0.1
						c0.033,0.133,0.066,0.217,0.1,0.25c0,0.033,0.05,0.067,0.15,0.1h0.1c0.067,0.233,0.2,0.433,0.4,0.6
						c0,0.066-0.034,0.167-0.1,0.3c0.267,0.167,0.6,0.3,1,0.4C2.633-1.817,2.683-1.8,2.75-1.8C3.283-1.6,3.9-1.417,4.6-1.25
						C5.2-1.117,5.917-0.967,6.75-0.8c0.067,0,0.117,0,0.15,0c0.8,0.2,1.567,0.333,2.3,0.4c0.066-0.033,0.167-0.033,0.3,0
						c0.8,0.066,2.817,0.133,6.05,0.2c0.333,0.034,0.65,0.05,0.95,0.05h0.05c0.2,0,0.383,0.017,0.55,0.05c0.633,0,1.217,0,1.75,0
						c1.5,0,2.633,0,3.4,0c0.133,0,0.383,0,0.75,0c0.9-0.033,2.617-0.1,5.15-0.2c1.6-0.034,2.867-0.083,3.8-0.15
						c1.367-0.066,2.15-0.117,2.35-0.15l0.45-0.2c-0.9,0.133-1.833,0.233-2.8,0.3c-1.4,0.1-2.833,0.167-4.3,0.2
						c-1.033,0-2.6-0.017-4.7-0.05C22.35-0.317,21.7-0.3,21-0.3c-0.767,0.033-1.5,0.05-2.2,0.05c-0.533,0-1.1,0-1.7,0
						c-0.2,0-0.417,0-0.65,0c-0.233,0-0.467,0-0.7,0c-0.167,0-0.333,0-0.5,0C15.217-0.283,15.167-0.3,15.1-0.3
						c-0.2-0.067-0.35-0.133-0.45-0.2c-0.033-0.033-0.05-0.083-0.05-0.15L14.55-2c-0.033,0.067-0.066,0.233-0.1,0.5
						c0,0.233-0.017,0.367-0.05,0.4l-0.1,0.05c-0.066-0.167-0.133-0.417-0.2-0.75c-0.033,0.066-0.067,0.25-0.1,0.55
						c-0.033,0.167-0.117,0.267-0.25,0.3c-0.267,0.034-0.5-0.4-0.7-1.3c-0.1-0.5-0.183-1.15-0.25-1.95
						c-0.2,0.333-0.283,1.017-0.25,2.05c0.067,0.566-0.167,0.9-0.7,1H11.8c0,0.033-0.683,0.083-2.05,0.15C9.65-1,9.567-1,9.5-1z
						 M16.2-4.45c-1.067,0-2.083-0.017-3.05-0.05c-0.667-0.067-1.267-0.133-1.8-0.2c-0.267,0-0.5,0-0.7,0
						c-1.7-0.167-2.967-0.383-3.8-0.65C6.783-5.383,6.733-5.417,6.7-5.45c-0.333-0.066-0.6-0.167-0.8-0.3
						c0.067,0.1,0.133,0.233,0.2,0.4c0.066,0.2,0.217,0.267,0.45,0.2c0.2,0,0.95,0.283,2.25,0.85c0.1,0,0.25-0.05,0.45-0.15
						c0.1-0.033,0.2,0,0.3,0.1c0.034,0,0.05,0.017,0.05,0.05c0.133,0.167,0.217,0.25,0.25,0.25c0-0.1,0.183-0.184,0.55-0.25
						c1.033-0.2,1.767-0.284,2.2-0.25c0.233,0.066,0.433,0.167,0.6,0.3c0.333,0.2,0.5,0.617,0.5,1.25c0.1-0.2,0.117-0.483,0.05-0.85
						l-0.15-0.4l0.3-0.05c0.167,0.066,0.25,0.15,0.25,0.25l0.3-0.05c0.167-0.1,0.316-0.133,0.45-0.1c0.2,0.034,0.283,0.15,0.25,0.35
						h0.15C15.433-4.117,15.733-4.317,16.2-4.45z M16.4-0.45L16.35-0.5L16.3-2.65c-0.033,0.1-0.066,0.55-0.1,1.35
						c0.033,0.433-0.034,0.733-0.2,0.9C16.1-0.433,16.233-0.45,16.4-0.45z"/>
					<path style="fill-rule:evenodd;clip-rule:evenodd;fill:#224841;" d="M36.35-4.1c-0.067,0.3-0.1,0.667-0.1,1.1
						c0,0.5-0.017,0.867-0.05,1.1c0,0.167,0.033,0.3,0.1,0.4c0.034,0.2,0.1,0.383,0.2,0.55c2.567-0.167,5.1-0.283,7.6-0.35
						c1.833-0.1,3.45-0.284,4.85-0.55c0.6-0.133,1.316-0.333,2.15-0.6c-0.03,0-0.063,0-0.1,0C47.9-1.917,43.683-1.5,38.35-1.2
						c-0.533,0.067-1.05,0.1-1.55,0.1c-0.1-0.633-0.233-1.617-0.4-2.95C36.4-4.083,36.383-4.1,36.35-4.1z M56-3.2
						c0.767-0.2,1.567-0.483,2.4-0.85c0.033-0.1,0.1-0.25,0.2-0.45c0.1-0.167,0.083-0.4-0.05-0.7
						c-0.066-0.133-0.175-0.375-0.325-0.725C58.142-6.108,58.05-6.316,57.95-6.55c-0.022,0.314-0.047,0.514-0.075,0.6
						c-0.021-0.006-0.046-0.015-0.075-0.025v0.025c0.025,0-0.142-0.208-0.5-0.625L56.85-7.05c0.733,0.867,1.133,1.35,1.2,1.45
						c0.233,0.4,0.267,0.767,0.1,1.1v0.05c-0.033,0.067-0.066,0.117-0.1,0.15c-0.1,0.1-0.25,0.183-0.45,0.25
						C57.067-3.683,56.533-3.4,56-3.2z M22.35-0.55c-1.333,0.066-2.533,0.1-3.6,0.1c-0.6,0.034-1.167,0.05-1.7,0.05
						c-0.2-0.033-0.417-0.05-0.65-0.05c-0.167,0-0.3,0.017-0.4,0.05c-0.533-0.033-0.967-0.067-1.3-0.1h-0.05
						c0.1,0.067,0.25,0.133,0.45,0.2c0.066,0,0.117,0.017,0.15,0.05c0.167,0,0.333,0,0.5,0c0.233,0,0.467,0,0.7,0
						c0.233,0,0.45,0,0.65,0c0.6,0,1.167,0,1.7,0c0.7,0,1.434-0.017,2.2-0.05c0.7,0,1.35-0.017,1.95-0.05
						c2.1,0.033,3.667,0.05,4.7,0.05c1.467-0.034,2.9-0.1,4.3-0.2c0.966-0.067,1.9-0.167,2.8-0.3l0.1-0.05L34.9-0.9
						c0.133-0.033,0.233-0.083,0.3-0.15c-1.133,0.066-2.233,0.117-3.3,0.15c-3.566,0.133-6.566,0.233-9,0.3
						C22.7-0.567,22.517-0.55,22.35-0.55z M0.7-3.6L0.3-2.95c0.15,0.2,0.267,0.333,0.35,0.4C0.737-2.483,0.888-2.433,1.1-2.4
						c0.204,0.033,0.371,0.083,0.5,0.15c0.066-0.133,0.1-0.233,0.1-0.3c-0.2-0.167-0.333-0.367-0.4-0.6H1.2
						c-0.1-0.033-0.15-0.067-0.15-0.1C1.017-3.283,0.983-3.367,0.95-3.5C0.95-3.567,0.867-3.6,0.7-3.6z M9.5-1
						C8.833-1.067,8.117-1.15,7.35-1.25c0.267,0.133,0.533,0.233,0.8,0.3C8.55-0.95,9-0.967,9.5-1z"/>
					<path style="fill-rule:evenodd;clip-rule:evenodd;fill:#4F9286;" d="M57.95-6.55c0.1,0.233,0.191,0.442,0.275,0.625
						c0.15,0.35,0.258,0.592,0.325,0.725c0.133,0.3,0.15,0.534,0.05,0.7c-0.1,0.2-0.167,0.35-0.2,0.45
						C57.567-3.683,56.767-3.4,56-3.2c0,0.034-0.017,0.05-0.05,0.05c-0.034,0-0.067,0-0.1,0c-0.1,0.033-0.167,0.066-0.2,0.1L55.55-3
						c-0.2,0.067-0.4,0.133-0.6,0.2c-0.967,0.3-2,0.55-3.1,0.75L51.3-1.9c-0.033,0.033-0.233,0.083-0.6,0.15
						c-0.5,0.1-1.317,0.217-2.45,0.35C46.417-1.2,44.667-1.033,43-0.9s-3.7,0.133-6.1,0c-0.1,0-0.167,0.05-0.2,0.15
						c0,0.067,0.017,0.117,0.05,0.15c0.2-0.066,1.167-0.066,2.9,0c1.7,0.1,2.8,0.1,3.3,0c0.533-0.1,1.483-0.2,2.85-0.3
						s3.184-0.333,5.45-0.7c2.233-0.367,4.133-0.8,5.7-1.3c0.933-0.267,1.6-0.617,2-1.05c0.033-0.033,0.066-0.083,0.1-0.15
						c0.067-0.033,0.117-0.083,0.15-0.15c0-0.033,0.017-0.083,0.05-0.15l-0.1,0.05c0.033-0.201,0.042-0.418,0.025-0.65
						c-0.014-0.227-0.106-0.477-0.275-0.75c-0.174-0.279-0.382-0.371-0.625-0.275C58.173-6.184,58.064-6.359,57.95-6.55z M35.2-1.05
						c-0.067,0.066-0.167,0.117-0.3,0.15l-0.05,0.05l-0.1,0.05L34.3-0.6c-0.2,0.033-0.983,0.083-2.35,0.15
						c-0.934,0.067-2.2,0.117-3.8,0.15C25.617-0.2,23.9-0.133,23-0.1c-0.367,0-0.617,0-0.75,0c-0.767,0-1.9,0-3.4,0
						c-0.533,0-1.117,0-1.75,0c-0.167-0.033-0.35-0.05-0.55-0.05H16.5c-0.3,0-0.617-0.017-0.95-0.05
						C12.317-0.267,10.3-0.333,9.5-0.4c1.967,0.3,3.65,0.433,5.05,0.4c0.333,0,1.2,0,2.6,0c0.5,0,1.067,0,1.7,0
						c1.2-0.033,2.583-0.05,4.15-0.05C23.467-0.017,23.95,0,24.45,0c3.2-0.033,5.733-0.083,7.6-0.15
						c1.467-0.1,2.517-0.217,3.15-0.35c0.3-0.033,0.5-0.167,0.6-0.4c0.167-0.5,0.3-0.833,0.4-1c0.033-0.233,0.05-0.6,0.05-1.1
						c0-0.433,0.033-0.8,0.1-1.1c-0.067-0.066-0.2,0.35-0.4,1.25c-0.133,0.767-0.267,1.3-0.4,1.6c0,0.1-0.017,0.167-0.05,0.2
						c-0.033,0-0.083-0.017-0.15-0.05C35.317-1.067,35.267-1.05,35.2-1.05z"/>
					<path style="fill-rule:evenodd;clip-rule:evenodd;fill:#1D463F;" d="M50.95-6.5c-0.3,0.067-0.65,0.167-1.05,0.3
						c-0.267,0.034-0.55,0.083-0.85,0.15c-0.226,0.064-0.434,0.114-0.625,0.15c0.16-0.025,0.368,0.075,0.625,0.3
						c0.3,0.167,0.633,0.383,1,0.65c0.9,0.733,1.383,1.284,1.45,1.65c0.067,0.2-0.05,0.466-0.35,0.8
						C51.118-2.468,51.068-2.452,51-2.45c0.037,0,0.07,0,0.1,0c0.033-0.033,0.066-0.05,0.1-0.05c0.033,0,0.066,0,0.1,0h0.05
						c0.633-0.1,1.433-0.283,2.4-0.55c1-0.233,1.383-0.467,1.15-0.7c-0.333-0.833-0.883-1.483-1.65-1.95
						c-0.433-0.2-0.967-0.4-1.6-0.6C51.483-6.367,51.25-6.433,50.95-6.5z"/>
					<path style="fill-rule:evenodd;clip-rule:evenodd;fill:#225249;" d="M49.05-5.6c-0.433-0.033-0.833-0.017-1.2,0.05
						c-0.2,0.033-0.3,0.133-0.3,0.3c0.034,0.2,0.067,0.367,0.1,0.5c-0.066,0-0.233-0.1-0.5-0.3c0.1,0.367,0.133,0.617,0.1,0.75
						c0,0.3-0.083,0.533-0.25,0.7h-0.05c-0.167-0.633-0.284-1-0.35-1.1c-0.167-0.333-0.517-0.483-1.05-0.45
						c-0.433,0.066-1.267,0.1-2.5,0.1c-1.167,0-1.783,0.017-1.85,0.05c-0.3,0.067-0.6,0.183-0.9,0.35
						C39.833-4.483,39.583-4.267,39.55-4c-0.167-0.533-1.05-0.817-2.65-0.85c-0.5,0.033-1,0.067-1.5,0.1
						c-0.733,0.067-1.583,0.167-2.55,0.3C32.783-4.417,32.7-4.367,32.6-4.3c-0.033,0.1-0.117,0.15-0.25,0.15L32.3-4.4
						c-0.066-0.033-0.15-0.05-0.25-0.05c-0.267,0.067-0.483,0.3-0.65,0.7c0,0.1-0.017,0.2-0.05,0.3c-0.1,0.333-0.167,0.567-0.2,0.7
						h-0.1l-0.1-0.85c-0.1-0.533-1.617-0.783-4.55-0.75c-0.333,0-0.683,0-1.05,0c-1.2,0.1-2.25,0.2-3.15,0.3
						c-0.467,0.1-0.9,0.183-1.3,0.25c-1.167,0.233-2.05,0.466-2.65,0.7c-0.7,0.3-1.033,0.567-1,0.8c0.1,0.367,0.55,0.7,1.35,1
						c0.367,0.133,0.816,0.25,1.35,0.35c0.667,0.133,1.466,0.267,2.4,0.4c0.167,0,0.35-0.017,0.55-0.05
						c2.434-0.066,5.434-0.167,9-0.3c1.067-0.033,2.167-0.083,3.3-0.15c0.066,0,0.117-0.017,0.15-0.05
						c0.066,0.033,0.117,0.05,0.15,0.05c0.033-0.034,0.05-0.1,0.05-0.2c0.133-0.3,0.267-0.833,0.4-1.6c0.2-0.9,0.333-1.316,0.4-1.25
						c0.033,0,0.05,0.017,0.05,0.05c0.167,1.333,0.3,2.316,0.4,2.95c0.5,0,1.017-0.033,1.55-0.1C43.683-1.5,47.9-1.917,51-2.45
						c0.068-0.001,0.118-0.018,0.15-0.05c0.3-0.333,0.417-0.6,0.35-0.8c-0.067-0.367-0.55-0.917-1.45-1.65
						C49.683-5.217,49.35-5.433,49.05-5.6z M40.6-4.7l0.05,0.45c0.033,0.1,0.017,0.4-0.05,0.9c-0.033,0.533-0.033,1.1,0,1.7
						c-0.033-0.2-0.117-0.467-0.25-0.8C40.317-2.65,40.3-3,40.3-3.5C40.333-4.033,40.433-4.433,40.6-4.7z M44.25-2.35
						c-0.067-0.033-0.133-0.083-0.2-0.15c-0.167-0.067-0.333-0.15-0.5-0.25c-0.133,0.2-0.183,0.417-0.15,0.65h-0.15
						c-0.133-0.066-0.233-0.183-0.3-0.35c-0.1,0.034-0.184,0-0.25-0.1c-0.1-0.067-0.184-0.083-0.25-0.05l-0.3,0.2
						c-0.4-0.033-0.717-0.033-0.95,0l-0.05-0.15c0.133-0.133,0.2-0.217,0.2-0.25c0.066-0.034,0.15-0.067,0.25-0.1
						c0.167-0.033,0.35-0.033,0.55,0c0.2,0,0.367-0.017,0.5-0.05c0.3-0.066,0.45-0.216,0.45-0.45c-0.067-0.434-0.05-0.783,0.05-1.05
						c0.033,0.267,0.117,0.517,0.25,0.75c0.133,0.367,0.3,0.534,0.5,0.5l0.25-0.1c0,0.367,0,0.583,0,0.65
						C44.183-2.583,44.217-2.483,44.25-2.35z"/>
					<path style="fill-rule:evenodd;clip-rule:evenodd;fill:#3F6D58;" d="M15.15-6.45c-0.833,0-1.633,0.034-2.4,0.1
						c-1.167,0.067-2.133,0.133-2.9,0.2C8.917-6.083,8.233-6,7.8-5.9C7.267-5.8,6.917-5.717,6.75-5.65
						c-0.067,0-0.083,0.017-0.05,0.05v0.15c0.033,0.034,0.083,0.067,0.15,0.1c0.833,0.267,2.1,0.483,3.8,0.65c0.2,0,0.434,0,0.7,0
						c0.533,0.067,1.133,0.133,1.8,0.2c0.967,0.033,1.983,0.05,3.05,0.05h0.05c0.6,0,1.183,0,1.75,0
						c1.167,0.034,2.417,0.05,3.75,0.05c0.133-0.033,0.267-0.05,0.4-0.05c2.067,0,4-0.033,5.8-0.1c1.1-0.034,2.167-0.05,3.2-0.05
						c1.533-0.033,2.95-0.083,4.25-0.15c0.5-0.033,1-0.067,1.5-0.1c2.2-0.066,3.967-0.183,5.3-0.35c2.533-0.233,4.533-0.466,6-0.7
						h0.225c0.191-0.036,0.399-0.085,0.625-0.15c0.3-0.067,0.583-0.117,0.85-0.15c0.4-0.133,0.75-0.233,1.05-0.3
						c0.733-0.3,0.917-1.1,0.55-2.4l0.4,0.025c-0.69-0.375-1.924-0.683-3.7-0.925c-0.235-0.025-0.477-0.05-0.725-0.075
						c-0.571-0.079-1.163-0.17-1.775-0.275c-0.183-0.005-0.367-0.005-0.55,0c-6.167-0.233-9.517-0.35-10.05-0.35
						c-1.9,0-3.517,0.133-4.85,0.4c-1.233,0.267-1.85,0.55-1.85,0.85c0,0.267,0.783,0.4,2.35,0.4c0.433,0,1.4,0.1,2.9,0.3
						c0.6,0.1,1.267,0.216,2,0.35c0.342,0.105,0.517,0.305,0.525,0.6c0.107,0.03,0.216,0.063,0.325,0.1h-0.15v0.05
						c0.004,0.036,0.004,0.069,0,0.1c0.003,0.027,0.003,0.052,0,0.075c-0.018,0.205-0.118,0.347-0.3,0.425
						c-0.2,0.1-0.883,0.2-2.05,0.3c-1.1,0.1-2.167,0.15-3.2,0.15c-0.066-0.033-0.117-0.05-0.15-0.05
						C30.017-6.417,29.333-6.5,28.6-6.7c-0.533,0-1.017-0.017-1.45-0.05c-1.967,0.067-3.783,0.117-5.45,0.15c-0.233,0-0.45,0-0.65,0
						c-0.203,0.029-0.395,0.046-0.575,0.05c0.083,0,0.175,0,0.275,0c0.3,0.033,0.633,0.05,1,0.05c0.9,0.033,1.85,0.067,2.85,0.1
						c0.933,0.066,1.816,0.117,2.65,0.15c1.4,0.067,2.6,0.133,3.6,0.2c1.9,0.1,3.083,0.1,3.55,0c0.7-0.133,1.367-0.333,2-0.6
						c0.733-0.233,1.467-0.434,2.2-0.6c0.733-0.133,1.433-0.233,2.1-0.3l5.1-0.05c1.5,0.167,2.483,0.45,2.95,0.85
						c-1.9,0.233-3.7,0.533-5.4,0.9c-1.6,0.333-3.5,0.5-5.7,0.5l-3.55-0.1v0.1c0.167,0,0.25,0.05,0.25,0.15
						c-3.567,0.333-7.3,0.5-11.2,0.5h-4.3c-0.8,0-1.3-0.017-1.5-0.05c-0.5-0.067-0.8-0.267-0.9-0.6H16.2
						c-0.067,0.167-0.383,0.25-0.95,0.25c-0.133,0-0.35-0.066-0.65-0.2c-0.267-0.1-0.483-0.15-0.65-0.15
						c-0.1,0.167-0.5,0.25-1.2,0.25c-1.1,0-1.933-0.1-2.5-0.3c0.033-0.133,0.183-0.233,0.45-0.3c0.2-0.1,0.55-0.167,1.05-0.2
						c0.333-0.067,0.683-0.133,1.05-0.2C13.533-6.333,14.317-6.417,15.15-6.45z"/>
					<path style="fill-rule:evenodd;clip-rule:evenodd;fill:#1D4840;" d="M16.4-0.45c0.233,0,0.45,0.017,0.65,0.05
						c0.534,0,1.1-0.017,1.7-0.05c1.067,0,2.267-0.033,3.6-0.1c-0.934-0.133-1.733-0.267-2.4-0.4c-0.534-0.1-0.983-0.216-1.35-0.35
						c-0.8-0.3-1.25-0.633-1.35-1c-0.033-0.233,0.3-0.5,1-0.8c0.6-0.233,1.483-0.467,2.65-0.7c0.4-0.067,0.833-0.15,1.3-0.25
						c0.9-0.1,1.95-0.2,3.15-0.3c0.367,0,0.717,0,1.05,0c2.934-0.033,4.45,0.217,4.55,0.75l0.1,0.85h0.1
						c0.033-0.133,0.1-0.367,0.2-0.7c0.033-0.1,0.05-0.2,0.05-0.3c0.167-0.4,0.383-0.633,0.65-0.7c0.1,0,0.184,0.017,0.25,0.05
						l0.05,0.25c0.133,0,0.217-0.05,0.25-0.15c0.1-0.067,0.183-0.117,0.25-0.15c0.967-0.133,1.816-0.233,2.55-0.3
						c-1.3,0.067-2.717,0.117-4.25,0.15c-1.033,0-2.1,0.017-3.2,0.05c-1.8,0.066-3.733,0.1-5.8,0.1c-0.133,0-0.267,0.017-0.4,0.05
						c-1.333,0-2.583-0.017-3.75-0.05c-0.567,0-1.15,0-1.75,0H16.2c-0.467,0.133-0.767,0.333-0.9,0.6h-0.15
						c0.033-0.2-0.05-0.316-0.25-0.35c-0.133-0.033-0.283,0-0.45,0.1l-0.3,0.05c0-0.1-0.083-0.184-0.25-0.25l-0.3,0.05l0.15,0.4
						C13.817-3.483,13.8-3.2,13.7-3c0-0.633-0.167-1.05-0.5-1.25c-0.167-0.133-0.367-0.233-0.6-0.3
						c-0.434-0.034-1.167,0.05-2.2,0.25c-0.367,0.066-0.55,0.15-0.55,0.25c-0.033,0-0.117-0.083-0.25-0.25
						c0-0.034-0.017-0.05-0.05-0.05c-0.1-0.1-0.2-0.133-0.3-0.1C9.05-4.35,8.9-4.3,8.8-4.3C7.5-4.867,6.75-5.15,6.55-5.15
						c-0.233,0.066-0.383,0-0.45-0.2c-0.067-0.167-0.133-0.3-0.2-0.4c-0.033-0.033-0.066-0.067-0.1-0.1
						C5.733-5.917,5.683-5.967,5.65-6C5.55-5.967,5.467-5.933,5.4-5.9C4.633-5.633,4-5.267,3.5-4.8C3.3-4.533,3.15-4.25,3.05-3.95
						C3.183-4.017,3.283-4.1,3.35-4.2C3.683-3.333,3.867-2.85,3.9-2.75c0.133-0.033,0.267-0.033,0.4,0c0.133,0,0.267,0.067,0.4,0.2
						c0.167,0.2,0.267,0.3,0.3,0.3C5.1-2.317,5.267-2.633,5.5-3.2c0.067-0.133,0.133-0.25,0.2-0.35C5.867-3.883,6-4.067,6.1-4.1
						l0.05,0.05c0,0.167-0.017,0.3-0.05,0.4C6.067-3.417,6.017-3.233,5.95-3.1C5.883-3,5.867-2.833,5.9-2.6
						c0.133,0.567,0.617,1.017,1.45,1.35C8.117-1.15,8.833-1.067,9.5-1c0.067,0,0.15,0,0.25,0c1.367-0.067,2.05-0.117,2.05-0.15
						h0.05c0.533-0.1,0.767-0.434,0.7-1C12.517-3.183,12.6-3.867,12.8-4.2c0.067,0.8,0.15,1.45,0.25,1.95
						c0.2,0.9,0.434,1.333,0.7,1.3c0.133-0.033,0.217-0.133,0.25-0.3c0.033-0.3,0.067-0.483,0.1-0.55
						c0.066,0.333,0.133,0.583,0.2,0.75l0.1-0.05c0.033-0.033,0.05-0.167,0.05-0.4c0.033-0.267,0.066-0.433,0.1-0.5l0.05,1.35
						c0,0.066,0.017,0.117,0.05,0.15h0.05c0.333,0.033,0.767,0.067,1.3,0.1c0.167-0.167,0.233-0.467,0.2-0.9
						c0.033-0.8,0.066-1.25,0.1-1.35l0.05,2.15L16.4-0.45z M48.425-5.9H48.2c-1.467,0.233-3.467,0.467-6,0.7
						c-1.333,0.167-3.1,0.284-5.3,0.35c1.6,0.033,2.483,0.317,2.65,0.85c0.034-0.267,0.284-0.483,0.75-0.65
						c0.3-0.167,0.6-0.283,0.9-0.35c0.066-0.033,0.683-0.05,1.85-0.05c1.233,0,2.067-0.034,2.5-0.1
						c0.534-0.033,0.883,0.117,1.05,0.45c0.066,0.1,0.183,0.467,0.35,1.1H47c0.167-0.167,0.25-0.4,0.25-0.7
						c0.033-0.133,0-0.383-0.1-0.75c0.267,0.2,0.434,0.3,0.5,0.3c-0.033-0.133-0.066-0.3-0.1-0.5c0-0.167,0.1-0.267,0.3-0.3
						c0.367-0.067,0.767-0.083,1.2-0.05C48.793-5.825,48.585-5.925,48.425-5.9z"/>
					<path style="fill-rule:evenodd;clip-rule:evenodd;fill:#265E53;" d="M44.25-2.35c-0.033-0.133-0.067-0.233-0.1-0.3
						c0-0.067,0-0.283,0-0.65L43.9-3.2c-0.2,0.034-0.367-0.133-0.5-0.5c-0.133-0.233-0.217-0.483-0.25-0.75
						c-0.1,0.267-0.117,0.617-0.05,1.05c0,0.233-0.15,0.383-0.45,0.45c-0.133,0.034-0.3,0.05-0.5,0.05
						c-0.2-0.033-0.383-0.033-0.55,0c-0.1,0.033-0.184,0.066-0.25,0.1c0,0.033-0.067,0.117-0.2,0.25L41.2-2.4
						c0.233-0.033,0.55-0.033,0.95,0l0.3-0.2c0.066-0.033,0.15-0.017,0.25,0.05c0.066,0.1,0.15,0.133,0.25,0.1
						c0.066,0.167,0.167,0.284,0.3,0.35h0.15c-0.033-0.233,0.017-0.45,0.15-0.65c0.167,0.1,0.333,0.183,0.5,0.25
						C44.117-2.433,44.183-2.383,44.25-2.35z M40.6-4.7c-0.167,0.267-0.267,0.667-0.3,1.2c0,0.5,0.017,0.85,0.05,1.05
						c0.133,0.333,0.217,0.6,0.25,0.8c-0.033-0.6-0.033-1.167,0-1.7c0.066-0.5,0.083-0.8,0.05-0.9L40.6-4.7z"/>
					<path style="fill-rule:evenodd;clip-rule:evenodd;fill:#4D8069;" d="M20.475-6.55H19c-0.467,0-0.95,0-1.45,0
						c-0.533,0-1.1,0.017-1.7,0.05c-0.233,0.033-0.467,0.05-0.7,0.05c-0.833,0.034-1.617,0.117-2.35,0.25
						c-0.367,0.067-0.716,0.133-1.05,0.2c-0.5,0.033-0.85,0.1-1.05,0.2c-0.267,0.066-0.417,0.167-0.45,0.3
						c0.567,0.2,1.4,0.3,2.5,0.3c0.7,0,1.1-0.083,1.2-0.25c0.167,0,0.383,0.05,0.65,0.15c0.3,0.133,0.517,0.2,0.65,0.2
						c0.567,0,0.883-0.083,0.95-0.25h0.25c0.1,0.333,0.4,0.533,0.9,0.6c0.2,0.033,0.7,0.05,1.5,0.05h4.3c3.9,0,7.633-0.167,11.2-0.5
						c0-0.1-0.083-0.15-0.25-0.15v-0.1l3.55,0.1c2.2,0,4.1-0.167,5.7-0.5c1.7-0.367,3.5-0.667,5.4-0.9
						c-0.467-0.4-1.45-0.683-2.95-0.85l-5.1,0.05c-0.667,0.066-1.367,0.167-2.1,0.3c-0.733,0.167-1.467,0.367-2.2,0.6
						c-0.633,0.267-1.3,0.467-2,0.6c-0.467,0.1-1.65,0.1-3.55,0c-1-0.067-2.2-0.133-3.6-0.2c-0.833-0.033-1.717-0.083-2.65-0.15
						c-1-0.033-1.95-0.067-2.85-0.1c-0.367,0-0.7-0.017-1-0.05C20.65-6.55,20.558-6.55,20.475-6.55z M6.45-7.025L6.5-7.1
						C6.459-7.053,6.418-7.011,6.375-6.975C5.86-6.356,5.619-6.031,5.65-6c0.133-0.033,0.267-0.067,0.4-0.1L6.45-7.025z"/>
					<path style="fill-rule:evenodd;clip-rule:evenodd;fill:#37624E;" d="M17.875-8.9c-0.04,0.032-0.082,0.065-0.125,0.1
						c-0.333,0.233-0.5,0.4-0.5,0.5c0,0.6,0.65,0.9,1.95,0.9c1.933,0,4-0.15,6.2-0.45c2.2-0.267,3.533-0.4,4-0.4l1.85,0.2
						c0.336-0.016,0.669-0.033,1-0.05h0.05c0.069,0.003,0.536,0.02,1.4,0.05c0.658-0.012,1.483,0.138,2.475,0.45
						c-0.008-0.295-0.183-0.495-0.525-0.6c-0.733-0.133-1.4-0.25-2-0.35c-1.5-0.2-2.467-0.3-2.9-0.3c-1.567,0-2.35-0.133-2.35-0.4
						c0-0.3,0.617-0.583,1.85-0.85c1.333-0.267,2.95-0.4,4.85-0.4c0.533,0,3.883,0.117,10.05,0.35c0.184-0.005,0.367-0.005,0.55,0
						c-0.835-0.137-1.702-0.304-2.6-0.5c-0.8-0.167-2.6-0.25-5.4-0.25c-1.9,0-3.883,0.1-5.95,0.3c-0.767,0.067-1.85,0.233-3.25,0.5
						c-1.267,0.233-2.217,0.383-2.85,0.45C22.439-9.362,19.848-9.112,17.875-8.9z"/>
					<path style="fill-rule:evenodd;clip-rule:evenodd;fill:#62967E;" d="M31.25-8.05c-0.414,0.033-0.83,0.066-1.25,0.1
						c-1.7,0.167-2.55,0.383-2.55,0.65l0.1,0.1H27.4c0.101,0.051,0.201,0.101,0.3,0.15c0.301,0.133,0.601,0.25,0.9,0.35
						c0.733,0.2,1.417,0.284,2.05,0.25c0.033,0,0.083,0.017,0.15,0.05c1.034,0,2.1-0.05,3.2-0.15c1.167-0.1,1.85-0.2,2.05-0.3
						c0.182-0.078,0.282-0.22,0.3-0.425c0.003-0.023,0.003-0.048,0-0.075c0.004-0.031,0.004-0.064,0-0.1V-7.5h0.15
						c-0.109-0.037-0.218-0.07-0.325-0.1c-0.991-0.312-1.816-0.461-2.475-0.45c-0.865-0.031-1.331-0.047-1.4-0.05h-0.05
						C31.919-8.083,31.586-8.066,31.25-8.05z"/>
					<path style="fill-rule:evenodd;clip-rule:evenodd;fill:#315544;" d="M5.65-6C5.683-5.967,5.733-5.917,5.8-5.85
						c0.034,0.033,0.067,0.067,0.1,0.1c0.2,0.133,0.467,0.233,0.8,0.3V-5.6C6.667-5.633,6.683-5.65,6.75-5.65
						C6.917-5.717,7.267-5.8,7.8-5.9C8.233-6,8.917-6.083,9.85-6.15c0.767-0.067,1.733-0.133,2.9-0.2c0.767-0.066,1.567-0.1,2.4-0.1
						c0.233,0,0.467-0.017,0.7-0.05c0.6-0.033,1.167-0.05,1.7-0.05c0.5,0,0.983,0,1.45,0h1.475c0.18-0.004,0.372-0.021,0.575-0.05
						c0.2,0,0.417,0,0.65,0c1.667-0.033,3.483-0.083,5.45-0.15c0.434,0.033,0.917,0.05,1.45,0.05c-0.299-0.1-0.599-0.216-0.9-0.35
						c-0.1-0.05-0.199-0.1-0.3-0.15h0.15l-0.1-0.1c0-0.267,0.85-0.483,2.55-0.65c0.42-0.033,0.836-0.067,1.25-0.1l-1.85-0.2
						c-0.467,0-1.8,0.133-4,0.4c-2.2,0.3-4.267,0.45-6.2,0.45c-1.3,0-1.95-0.3-1.95-0.9c0-0.1,0.167-0.267,0.5-0.5
						c0.043-0.035,0.085-0.068,0.125-0.1c-1.21,0.131-2.185,0.248-2.925,0.35C11.15-8.017,8.867-7.667,8.1-7.5
						C7.469-7.378,6.919-7.22,6.45-7.025L6.05-6.1C5.917-6.067,5.783-6.033,5.65-6z"/>
				</g>
			</g>
			<g>
				<g>
					<path style="fill-rule:evenodd;clip-rule:evenodd;fill:#224841;" d="M58.8-5.2l0.35,0.4c-0.033,0.066-0.05,0.117-0.05,0.15
						c0,0.133,0.017,0.25,0.05,0.35l0.05-0.05c0-0.033,0-0.066,0-0.1c0.1-0.233,0.133-0.583,0.1-1.05
						c-0.066-0.5-0.133-1.017-0.2-1.55c-0.067-0.6-0.15-1.217-0.25-1.85c-0.067-0.333-0.15-0.684-0.25-1.05
						c-0.1-0.333-0.2-0.667-0.3-1l-0.4-0.4l-1,0.05c-0.033,0.1-0.033,0.183,0,0.25c0.033,0.2,0.067,0.367,0.1,0.5
						c0.133,0.533,0.258,1.066,0.375,1.6L57.3-9.9c0.667,0.667,1.1,1.55,1.3,2.65c0.066,0.433,0.117,0.867,0.15,1.3
						C58.783-5.683,58.8-5.433,58.8-5.2z M0.95-10.1C0.917-10.067,0.9-10.033,0.9-10C0.733-9.533,0.583-9.067,0.45-8.6L2-9.05
						l0.7-0.2l0.9,0.7c0.1-0.1,0.183-0.233,0.25-0.4c0.066-0.133,0.133-0.283,0.2-0.45C4.217-9.2,4.383-9,4.55-8.8
						c0.1,0.367,0.133,0.783,0.1,1.25L5-9.25c0.533-0.333,1.1-0.633,1.7-0.9c0.633-0.267,1.283-0.517,1.95-0.75
						c0.567-0.067,1.133-0.15,1.7-0.25c0.867,0,1.7,0,2.5,0c1.1,0,2.183,0.167,3.25,0.5c0.367,0.7,0.75,1.383,1.15,2.05l0.7,0.2
						l0.8-1.8c0.3-0.133,0.617-0.233,0.95-0.3c0.7-0.267,1.433-0.483,2.2-0.65c0.4,0,0.817,0,1.25,0c0.733,0,1.483,0,2.25,0
						c0.633-0.167,1.267-0.25,1.9-0.25l0.4-0.45h0.65l1.35,1c0.433-0.333,0.9-0.633,1.4-0.9c1.133-0.733,2.333-1.05,3.6-0.95
						c0.066,0.1,0.133,0.184,0.2,0.25c0.067,0.1,0.133,0.184,0.2,0.25c0.233,0.333,0.6,0.55,1.1,0.65
						c0.767-0.2,1.55-0.517,2.35-0.95c0.133,0.033,0.267,0.05,0.4,0.05c0.3,0.1,0.583,0.217,0.85,0.35
						c0.633,0.233,1.25,0.45,1.85,0.65c0.4,0.067,0.733,0,1-0.2l1,0.2c0.167-0.1,0.35-0.2,0.55-0.3c0.5-0.067,1-0.133,1.5-0.2
						c0.867-0.033,1.7,0,2.5,0.1c1.1,0.1,2.25,0.167,3.45,0.2L52.8-9.7l0.4-1.4c0.5,0,0.983,0.05,1.45,0.15
						c0.367,0.1,0.717,0.3,1.05,0.6c0.4,0.367,0.683,0.833,0.85,1.4c0.133,0.4,0.383,0.617,0.75,0.65c-0.1-0.2-0.2-0.4-0.3-0.6
						c-0.167-0.5-0.3-1-0.4-1.5c-0.133-0.7-0.55-1.25-1.25-1.65c-0.733-0.4-1.483-0.717-2.25-0.95c-0.133,0.367-0.3,0.683-0.5,0.95
						l-0.05-0.05l-0.45-0.65c-1.167-0.333-2.283-0.467-3.35-0.4c-0.667,0.066-1.317,0.066-1.95,0c-0.233,0-0.466,0-0.7,0
						c-0.434,0-0.833,0.083-1.2,0.25c-0.433,0.167-0.867,0.2-1.3,0.1c-0.033,0.167-0.05,0.316-0.05,0.45S43.533-12.1,43.5-12h-0.05
						c-0.067-0.133-0.133-0.283-0.2-0.45c-0.067-0.1-0.133-0.2-0.2-0.3c-0.066-0.067-0.15-0.133-0.25-0.2
						c-0.233,0-0.466-0.017-0.7-0.05c-0.367,0.133-0.7,0.283-1,0.45c0,0.033,0.017,0.083,0.05,0.15l-0.05,0.1
						c-0.6-0.2-1.2-0.45-1.8-0.75c-1-0.467-2.05-0.65-3.15-0.55c-1.033,0.067-2.05,0.217-3.05,0.45
						c-0.733,0.233-1.45,0.417-2.15,0.55c-0.3,0.4-0.633,0.75-1,1.05c-0.034,0.066-0.1,0.066-0.2,0
						c-0.033-0.034-0.067-0.067-0.1-0.1v-0.05c-0.033-0.133-0.066-0.283-0.1-0.45c-0.233-0.8-0.65-1.267-1.25-1.4
						c-0.133,0.066-0.25,0.15-0.35,0.25c-0.9,0.333-1.617,1-2.15,2c-0.433-0.434-0.917-0.784-1.45-1.05
						c-0.733-0.467-1.5-0.717-2.3-0.75c-0.3,0.1-0.583,0.167-0.85,0.2c-1,0.233-2,0.633-3,1.2c-0.167,0.067-0.317,0.15-0.45,0.25
						l-0.1,2.25l-0.45-2.45c-0.434-0.167-0.867-0.267-1.3-0.3c-1.233-0.333-2.483-0.433-3.75-0.3c-0.566,0-1.117,0-1.65,0
						c-1.067,0.067-2.067,0.267-3,0.6c-0.833,0.2-1.533,0.566-2.1,1.1L5.2-9.8l-0.6-0.45c-0.4,0.033-0.783,0.05-1.15,0.05
						c-0.767,0.133-1.333,0.117-1.7-0.05l0.5-0.2L0.95-10.1z"/>
					<path style="fill-rule:evenodd;clip-rule:evenodd;fill:#31685E;" d="M57.35-6.35L58.8-5.2c0-0.233-0.017-0.483-0.05-0.75
						c-0.033-0.433-0.083-0.867-0.15-1.3c-0.2-1.1-0.633-1.983-1.3-2.65l0.075,0.95c0.017,0.034,0.025,0.067,0.025,0.1
						c0.1,0.5,0.067,0.684-0.1,0.55c-0.367-0.034-0.617-0.25-0.75-0.65c-0.167-0.566-0.45-1.033-0.85-1.4
						c-0.333-0.3-0.684-0.5-1.05-0.6c-0.467-0.1-0.95-0.15-1.45-0.15l-0.4,1.4l-1.15-1.95c-1.2-0.033-2.35-0.1-3.45-0.2
						c-0.8-0.1-1.633-0.133-2.5-0.1c-0.5,0.067-1,0.133-1.5,0.2c-0.2,0.1-0.383,0.2-0.55,0.3l-1-0.2c-0.267,0.2-0.6,0.267-1,0.2
						c-0.6-0.2-1.217-0.417-1.85-0.65c-0.267-0.133-0.55-0.25-0.85-0.35c-0.133,0-0.267-0.017-0.4-0.05
						c-0.8,0.433-1.583,0.75-2.35,0.95c-0.5-0.1-0.867-0.317-1.1-0.65c-0.067-0.066-0.133-0.15-0.2-0.25
						c-0.066-0.066-0.133-0.15-0.2-0.25c-1.267-0.1-2.467,0.217-3.6,0.95c-0.5,0.267-0.967,0.567-1.4,0.9l-1.35-1H27.7l-0.4,0.45
						c-0.633,0-1.267,0.083-1.9,0.25c-0.767,0-1.517,0-2.25,0c-0.433,0-0.85,0-1.25,0c-0.767,0.167-1.5,0.383-2.2,0.65
						c-0.333,0.067-0.65,0.167-0.95,0.3l-0.8,1.8l-0.7-0.2c-0.4-0.667-0.783-1.35-1.15-2.05c-1.067-0.333-2.15-0.5-3.25-0.5
						c-0.8,0-1.633,0-2.5,0c-0.567,0.1-1.133,0.183-1.7,0.25c-0.667,0.233-1.316,0.483-1.95,0.75C6.1-9.883,5.533-9.583,5-9.25
						l-0.35,1.7c0.033-0.467,0-0.883-0.1-1.25C4.383-9,4.217-9.2,4.05-9.4c-0.066,0.167-0.133,0.316-0.2,0.45
						C3.783-8.783,3.7-8.65,3.6-8.55l-0.9-0.7L2-9.05c-0.133,0.566-0.05,1.066,0.25,1.5C2.517-7.283,2.817-7.1,3.15-7
						c0.233,0.133,0.5,0.183,0.8,0.15c0.066-0.1,0.15-0.2,0.25-0.3c0.033-0.1,0.083-0.217,0.15-0.35v0.05
						c0,0.1-0.017,0.184-0.05,0.25c0,0.067,0,0.117,0,0.15c0.1,0.033,0.2,0.066,0.3,0.1c0.767,0.133,1.55,0.067,2.35-0.2
						C7.217-7.283,7.5-7.433,7.8-7.6l0.55,0.05l0.45-0.4c0.7,0.133,1.4,0.2,2.1,0.2c0.967-0.1,1.833-0.2,2.6-0.3
						c1.333-0.034,2.667-0.083,4-0.15c0.5-0.033,1.017-0.083,1.55-0.15c0.233-0.033,0.483-0.066,0.75-0.1
						c0.7-0.033,1.15-0.316,1.35-0.85c0.067,0.3,0.217,0.45,0.45,0.45c0.467,0,0.867-0.017,1.2-0.05
						c1.367-0.167,2.717-0.267,4.05-0.3c0.467,0,0.95-0.017,1.45-0.05c0.133,0,0.284-0.017,0.45-0.05c0.1,0,0.217-0.017,0.35-0.05
						l0.4-0.5L40.45-9.4l0.4-0.3c0.433,0.067,0.867,0.117,1.3,0.15c0.5,0.066,1,0.133,1.5,0.2c1.5,0.067,2.967,0.05,4.4-0.05
						c1.467,0.167,2.934,0.4,4.4,0.7c0.466,0.133,0.95,0.267,1.45,0.4C55.133-7.933,56.283-7.283,57.35-6.35z M53.85-9.2
						c-0.033-0.267-0.033-0.517,0-0.75c0.033-0.267,0.1-0.517,0.2-0.75l2.15,1.3c0,0.033,0,0.083,0,0.15
						c0.066,0.333,0.083,0.683,0.05,1.05c0,0.034-0.017,0.067-0.05,0.1c-0.034,0.033-0.067,0.05-0.1,0.05
						c-0.133-0.034-0.25-0.067-0.35-0.1c-0.2-0.067-0.383-0.15-0.55-0.25L53.85-9.2z M51.2-10.45c0.066,0.034,0.133,0.067,0.2,0.1
						c0.233,0.3,0.3,0.717,0.2,1.25l-5.65-1.15C45.683-10.117,45.433-10,45.2-9.9c-0.167-0.067-0.317-0.133-0.45-0.2
						c-0.1-0.033-0.183-0.083-0.25-0.15c-1-0.067-2.017-0.117-3.05-0.15c-0.267,0-0.534,0-0.8,0c-0.566,0-1.133,0-1.7,0
						c-0.6,0.1-1.217,0.083-1.85-0.05c-0.4-0.2-0.783-0.4-1.15-0.6c0.833-0.2,1.683-0.184,2.55,0.05c0.167,0.1,0.35,0.183,0.55,0.25
						c0.2,0,0.417,0,0.65,0c0.833,0.1,1.667,0.05,2.5-0.15c0.466-0.133,0.966-0.2,1.5-0.2c0.667,0,1.333-0.017,2-0.05
						c0.333,0,0.683,0,1.05,0c0.067,0,0.133,0.017,0.2,0.05c0.1-0.066,0.216-0.15,0.35-0.25c0.034-0.033,0.083-0.1,0.15-0.2
						c1.066,0.533,2.2,0.867,3.4,1C50.95-10.483,51.067-10.45,51.2-10.45z M21.9-9.65c-0.066,0.1-0.117,0.15-0.15,0.15
						c-0.2-0.133-0.383-0.3-0.55-0.5c-0.034-0.067-0.067-0.133-0.1-0.2c0.5-0.1,1.083-0.15,1.75-0.15c0.633-0.1,1.233-0.133,1.8-0.1
						c0.5,0.067,1.017,0.133,1.55,0.2c0.233,0.033,0.483,0.067,0.75,0.1L26.3-9.7c-0.566-0.133-1.083-0.167-1.55-0.1
						c-0.633,0.066-1.3,0.083-2,0.05c-0.167-0.033-0.333-0.083-0.5-0.15C22.117-9.8,22-9.717,21.9-9.65z"/>
					<path style="fill-rule:evenodd;clip-rule:evenodd;fill:#36776B;" d="M53.85-9.2l1.35,0.8c0.167,0.1,0.35,0.183,0.55,0.25
						c0.1,0.033,0.217,0.066,0.35,0.1c0.033,0,0.066-0.017,0.1-0.05c0.033-0.033,0.05-0.066,0.05-0.1
						c0.033-0.367,0.017-0.716-0.05-1.05c0-0.067,0-0.117,0-0.15l-2.15-1.3c-0.1,0.233-0.167,0.483-0.2,0.75
						C53.817-9.717,53.817-9.467,53.85-9.2z M51.2-10.45c-0.133,0-0.25-0.033-0.35-0.1c-1.2-0.133-2.333-0.467-3.4-1
						c-0.067,0.1-0.117,0.167-0.15,0.2c-0.133,0.1-0.25,0.184-0.35,0.25c-0.067-0.033-0.133-0.05-0.2-0.05c-0.367,0-0.717,0-1.05,0
						c-0.667,0.033-1.333,0.05-2,0.05c-0.534,0-1.034,0.067-1.5,0.2c-0.833,0.2-1.667,0.25-2.5,0.15c-0.233,0-0.45,0-0.65,0
						c-0.2-0.067-0.383-0.15-0.55-0.25c-0.867-0.233-1.717-0.25-2.55-0.05c0.367,0.2,0.75,0.4,1.15,0.6
						c0.633,0.133,1.25,0.15,1.85,0.05c0.566,0,1.133,0,1.7,0c0.267,0,0.533,0,0.8,0c1.033,0.033,2.05,0.083,3.05,0.15
						c0.067,0.067,0.15,0.117,0.25,0.15c0.133,0.067,0.283,0.133,0.45,0.2c0.233-0.1,0.483-0.217,0.75-0.35L51.6-9.1
						c0.1-0.533,0.033-0.95-0.2-1.25C51.333-10.383,51.267-10.417,51.2-10.45z M21.9-9.65C22-9.717,22.117-9.8,22.25-9.9
						c0.167,0.066,0.333,0.117,0.5,0.15c0.7,0.033,1.367,0.017,2-0.05c0.467-0.067,0.983-0.034,1.55,0.1l0.65-0.45
						c-0.267-0.033-0.517-0.067-0.75-0.1c-0.534-0.067-1.05-0.133-1.55-0.2c-0.566-0.033-1.167,0-1.8,0.1
						c-0.667,0-1.25,0.05-1.75,0.15c0.033,0.067,0.066,0.133,0.1,0.2c0.167,0.2,0.35,0.367,0.55,0.5
						C21.783-9.5,21.833-9.55,21.9-9.65z"/>
					<path style="fill-rule:evenodd;clip-rule:evenodd;fill:#2A5A52;" d="M54.4-7.35c0.633,0.167,1.25,0.367,1.85,0.6
						c0.367,0.1,0.733,0.233,1.1,0.4c-1.067-0.933-2.217-1.583-3.45-1.95c-0.5-0.133-0.983-0.267-1.45-0.4
						c-1.467-0.3-2.934-0.533-4.4-0.7c-1.433,0.1-2.9,0.117-4.4,0.05c-0.5-0.066-1-0.133-1.5-0.2c-0.433-0.034-0.867-0.083-1.3-0.15
						l-0.4,0.3L29.5-9.85l-0.4,0.5c-0.133,0.033-0.25,0.05-0.35,0.05c-0.167,0.033-0.317,0.05-0.45,0.05
						c-0.5,0.033-0.983,0.05-1.45,0.05c-1.333,0.034-2.684,0.133-4.05,0.3c-0.333,0.033-0.733,0.05-1.2,0.05
						c-0.233,0-0.383-0.15-0.45-0.45c-0.2,0.533-0.65,0.816-1.35,0.85c-0.267,0.034-0.517,0.067-0.75,0.1
						C18.517-8.283,18-8.233,17.5-8.2c-1.333,0.067-2.667,0.117-4,0.15c-0.767,0.1-1.633,0.2-2.6,0.3c-0.7,0-1.4-0.067-2.1-0.2
						l-0.45,0.4L7.8-7.6C7.5-7.433,7.217-7.283,6.95-7.15c-0.8,0.267-1.583,0.333-2.35,0.2c-0.1-0.033-0.2-0.066-0.3-0.1
						c0-0.034,0-0.083,0-0.15c0.034-0.066,0.05-0.15,0.05-0.25V-7.5C4.283-7.367,4.233-7.25,4.2-7.15c-0.1,0.1-0.184,0.2-0.25,0.3
						C3.65-6.817,3.383-6.867,3.15-7c-0.333-0.1-0.633-0.283-0.9-0.55C1.95-7.983,1.867-8.483,2-9.05L0.45-8.6
						c-0.133,0.7-0.233,1.4-0.3,2.1C0.05-5.467,0.033-4.417,0.1-3.35C0.133-3.217,0.183-3.1,0.25-3C0.517-2.633,0.733-2.55,0.9-2.75
						L0.45-3l-0.2-0.75C0.35-3.983,0.5-4.2,0.7-4.4c0.367-0.367,0.767-0.7,1.2-1c0.4-0.2,0.817-0.35,1.25-0.45
						C3.617-6.083,4.1-6.283,4.6-6.45c0.533-0.066,1.066-0.133,1.6-0.2c0.5-0.067,1-0.15,1.5-0.25c0.533-0.033,1.066-0.083,1.6-0.15
						c0.633-0.034,1.267-0.083,1.9-0.15c0.4-0.033,0.8-0.083,1.2-0.15c0.367-0.066,0.75-0.133,1.15-0.2
						c0.633-0.034,1.267-0.083,1.9-0.15c0.566-0.033,1.133-0.083,1.7-0.15c0.4-0.033,0.8-0.083,1.2-0.15
						c0.367,0,0.75-0.017,1.15-0.05c0.567-0.034,1.15-0.083,1.75-0.15c0.633-0.066,1.267-0.133,1.9-0.2
						c0.567-0.033,1.217-0.05,1.95-0.05c0.533-0.1,1.05-0.133,1.55-0.1c0.434,0,0.883-0.017,1.35-0.05
						c0.433-0.033,0.883-0.066,1.35-0.1c0.667,0.1,1.3,0.067,1.9-0.1c0.333,0,0.667,0,1,0c0.333-0.034,0.667-0.067,1-0.1
						c0.567,0,1.133,0,1.7,0c0.466,0,0.933,0,1.4,0s0.933,0,1.4,0s0.933,0,1.4,0s0.934,0,1.4,0c0.467,0,0.934,0,1.4,0
						c0.433,0.033,0.867,0.066,1.3,0.1c0.467,0,0.933,0,1.4,0c0.6,0.033,1.2,0.05,1.8,0.05c0.367,0.033,0.733,0.067,1.1,0.1
						S48.3-8.6,48.7-8.6c0.367,0.033,0.733,0.067,1.1,0.1c0.4,0.067,0.8,0.117,1.2,0.15c0.367,0.1,0.75,0.2,1.15,0.3
						c0.367,0.1,0.75,0.2,1.15,0.3C53.667-7.617,54.033-7.483,54.4-7.35z"/>
					<path style="fill-rule:evenodd;clip-rule:evenodd;fill:#4F9286;" d="M0.9-2.75l-0.125-0.4c-0.231-0.267,0.019-0.708,0.75-1.325
						c0.741-0.62,1.425-1.02,2.05-1.2c0.62-0.18,1.22-0.322,1.8-0.425C5.958-6.202,6.483-6.286,6.95-6.35
						c0.466-0.066,0.9-0.133,1.3-0.2c0.4-0.034,0.8-0.067,1.2-0.1c0.4-0.067,0.8-0.133,1.2-0.2c0.367-0.033,0.733-0.083,1.1-0.15
						c0.5-0.033,1-0.083,1.5-0.15c0.533,0,1.067-0.033,1.6-0.1c0.702-0.067,1.327-0.125,1.875-0.175
						c0.545-0.05,1.028-0.092,1.45-0.125c0.421-0.034,0.788-0.067,1.1-0.1c0.315-0.033,0.657-0.067,1.025-0.1
						c0.333,0,0.667-0.017,1-0.05c0.333,0,0.667-0.017,1-0.05c0.534-0.033,1.083-0.066,1.65-0.1c0.633-0.033,1.267-0.066,1.9-0.1
						c0.333,0,0.683,0,1.05,0c0.437-0.033,0.703-0.05,0.8-0.05c0.09-0.001,0.49-0.018,1.2-0.05s1.259-0.048,1.65-0.05
						c0.397,0,0.78,0,1.15,0c0.4,0,0.8,0,1.2,0c0.367,0,0.733,0,1.1,0c0.4,0,0.8,0,1.2,0c0.367,0,0.733,0,1.1,0c0.4,0,0.8,0,1.2,0
						s0.8,0,1.2,0c0.4,0,0.8,0,1.2,0c0.367,0,0.733,0,1.1,0c0.4,0,0.8,0,1.2,0c0.367,0,0.75,0,1.15,0s0.8,0,1.2,0
						c0.367,0.034,0.733,0.05,1.1,0.05c0.467,0,0.95,0,1.45,0c0.433,0,0.883,0,1.35,0c0.433,0.033,0.867,0.066,1.3,0.1
						c0.467,0.066,0.933,0.133,1.4,0.2c0.434,0.067,0.867,0.133,1.3,0.2c0.667,0.1,1.316,0.2,1.95,0.3
						c-0.367-0.133-0.733-0.267-1.1-0.4c-0.4-0.1-0.783-0.2-1.15-0.3c-0.4-0.1-0.783-0.2-1.15-0.3c-0.4-0.033-0.8-0.083-1.2-0.15
						c-0.367-0.033-0.733-0.067-1.1-0.1c-0.4,0-0.784-0.017-1.15-0.05s-0.733-0.067-1.1-0.1c-0.6,0-1.2-0.017-1.8-0.05
						c-0.467,0-0.933,0-1.4,0c-0.433-0.034-0.867-0.067-1.3-0.1c-0.467,0-0.934,0-1.4,0c-0.466,0-0.933,0-1.4,0s-0.933,0-1.4,0
						s-0.933,0-1.4,0s-0.934,0-1.4,0c-0.567,0-1.133,0-1.7,0c-0.333,0.033-0.667,0.066-1,0.1c-0.333,0-0.667,0-1,0
						c-0.6,0.167-1.233,0.2-1.9,0.1C28.883-8.667,28.433-8.633,28-8.6c-0.467,0.033-0.917,0.05-1.35,0.05
						c-0.5-0.034-1.017,0-1.55,0.1c-0.733,0-1.383,0.017-1.95,0.05c-0.633,0.066-1.267,0.133-1.9,0.2
						c-0.6,0.067-1.183,0.117-1.75,0.15C19.1-8.017,18.717-8,18.35-8c-0.4,0.067-0.8,0.117-1.2,0.15
						c-0.566,0.067-1.133,0.117-1.7,0.15c-0.633,0.067-1.267,0.117-1.9,0.15c-0.4,0.066-0.783,0.133-1.15,0.2
						C12-7.283,11.6-7.233,11.2-7.2c-0.633,0.067-1.267,0.117-1.9,0.15C8.767-6.983,8.233-6.933,7.7-6.9c-0.5,0.1-1,0.183-1.5,0.25
						c-0.534,0.066-1.067,0.133-1.6,0.2c-0.5,0.167-0.983,0.367-1.45,0.6C2.717-5.75,2.3-5.6,1.9-5.4c-0.433,0.3-0.833,0.633-1.2,1
						C0.5-4.2,0.35-3.983,0.25-3.75L0.45-3L0.9-2.75z"/>
					<path style="fill-rule:evenodd;clip-rule:evenodd;fill:#173A33;" d="M53.15-13.65L43.8-14c0.133,0.733,0.067,0.8-0.2,0.2
						c-0.967-0.534-1.833-0.434-2.6,0.3l-0.6-0.45c-0.367-0.233-0.55-0.117-0.55,0.35c-1.233-0.733-2.633-1.017-4.2-0.85
						c-0.833-0.033-1.583,0-2.25,0.1c-0.267,0.033-0.533,0.05-0.8,0.05c-0.434,0.066-0.867,0.117-1.3,0.15
						c-0.466,0.033-0.85,0.25-1.15,0.65l-0.2,0.85c-0.2-0.333-0.35-0.783-0.45-1.35c0-0.067-0.017-0.15-0.05-0.25
						c-1.4-0.067-2.684,0.15-3.85,0.65c0.1,0.633,0.066,1.1-0.1,1.4c-0.033,0-0.05-0.017-0.05-0.05c-0.333-0.533-0.7-1.017-1.1-1.45
						c-0.1-0.066-0.184-0.133-0.25-0.2l-6.5,0.75c-0.228,0.195-0.261,0.454-0.1,0.775c-0.311-0.585-0.877-0.96-1.7-1.125
						c-0.6,0.033-1.25,0.1-1.95,0.2c-0.467,0.066-0.917,0.117-1.35,0.15c-0.433,0.066-0.867,0.133-1.3,0.2
						c-0.7,0.067-1.35,0.167-1.95,0.3c-0.4,0.066-0.783,0.133-1.15,0.2c-0.367,0.067-0.717,0.133-1.05,0.2
						c-0.633,0.133-1.25,0.267-1.85,0.4c-0.5,0.133-1,0.25-1.5,0.35c-0.567,0.2-1.117,0.433-1.65,0.7c-0.4,0.2-0.767,0.433-1.1,0.7
						l1.3-0.35l-0.5,0.2c0.367,0.167,0.933,0.183,1.7,0.05c0.367,0,0.75-0.017,1.15-0.05L5.2-9.8l0.2-0.75
						c0.567-0.534,1.267-0.9,2.1-1.1c0.933-0.333,1.933-0.533,3-0.6c0.533,0,1.083,0,1.65,0c1.267-0.133,2.517-0.033,3.75,0.3
						c0.434,0.034,0.867,0.133,1.3,0.3l0.45,2.45l0.1-2.25c0.133-0.1,0.283-0.183,0.45-0.25c1-0.566,2-0.966,3-1.2
						c0.267-0.033,0.55-0.1,0.85-0.2c0.8,0.033,1.567,0.283,2.3,0.75c0.533,0.267,1.017,0.617,1.45,1.05c0.534-1,1.25-1.667,2.15-2
						c0.1-0.1,0.216-0.184,0.35-0.25c0.6,0.133,1.017,0.6,1.25,1.4c0.034,0.167,0.067,0.316,0.1,0.45v0.05
						c0.033,0.033,0.067,0.066,0.1,0.1c0.1,0.066,0.167,0.066,0.2,0c0.367-0.3,0.7-0.65,1-1.05c0.7-0.133,1.417-0.316,2.15-0.55
						c1-0.233,2.017-0.383,3.05-0.45c1.1-0.1,2.15,0.083,3.15,0.55c0.6,0.3,1.2,0.55,1.8,0.75l0.05-0.1
						c-0.033-0.067-0.05-0.117-0.05-0.15c0.3-0.167,0.633-0.317,1-0.45c0.233,0.033,0.467,0.05,0.7,0.05
						c0.1,0.067,0.184,0.133,0.25,0.2c0.067,0.1,0.133,0.2,0.2,0.3c0.067,0.167,0.133,0.317,0.2,0.45h0.05
						c0.033-0.1,0.05-0.217,0.05-0.35s0.017-0.283,0.05-0.45c0.433,0.1,0.867,0.066,1.3-0.1c0.367-0.167,0.767-0.25,1.2-0.25
						c0.233,0,0.467,0,0.7,0c0.633,0.066,1.284,0.066,1.95,0c1.067-0.067,2.183,0.066,3.35,0.4l0.45,0.65l0.05,0.05
						c0.2-0.267,0.367-0.583,0.5-0.95c0.767,0.233,1.517,0.55,2.25,0.95c0.7,0.4,1.117,0.95,1.25,1.65c0.1,0.5,0.233,1,0.4,1.5
						c0.1,0.2,0.2,0.4,0.3,0.6c0.167,0.133,0.2-0.05,0.1-0.55c0-0.033-0.008-0.066-0.025-0.1c-0.117-0.533-0.242-1.066-0.375-1.6
						c-0.033-0.133-0.067-0.3-0.1-0.5c-0.033-0.067-0.033-0.15,0-0.25l1-0.05l0.4,0.4c-0.1-0.167-0.216-0.3-0.35-0.4
						c-0.3-0.367-0.65-0.667-1.05-0.9s-0.8-0.45-1.2-0.65c-0.534-0.167-1.067-0.367-1.6-0.6C53.767-13.533,53.45-13.583,53.15-13.65
						z"/>
					<path style="fill-rule:evenodd;clip-rule:evenodd;fill:#102E28;" d="M15.8-13.5c0.823,0.165,1.389,0.54,1.7,1.125
						c-0.161-0.321-0.128-0.58,0.1-0.775l6.5-0.75c0.066,0.066,0.15,0.133,0.25,0.2c0.4,0.434,0.767,0.917,1.1,1.45
						c0,0.033,0.017,0.05,0.05,0.05c0.167-0.3,0.2-0.767,0.1-1.4c1.167-0.5,2.45-0.717,3.85-0.65c0.033,0.1,0.05,0.183,0.05,0.25
						c0.1,0.567,0.25,1.017,0.45,1.35l0.2-0.85c0.3-0.4,0.684-0.617,1.15-0.65c0.434-0.033,0.867-0.083,1.3-0.15
						c0.267,0,0.533-0.017,0.8-0.05c0.667-0.1,1.417-0.133,2.25-0.1c1.567-0.167,2.967,0.117,4.2,0.85
						c0-0.467,0.183-0.583,0.55-0.35L41-13.5c0.767-0.733,1.633-0.833,2.6-0.3c0.267,0.6,0.333,0.533,0.2-0.2l9.35,0.35
						c-0.533-0.1-1.066-0.217-1.6-0.35c-0.466-0.067-0.933-0.15-1.4-0.25c-0.566-0.067-1.117-0.133-1.65-0.2
						c-0.6-0.033-1.183-0.083-1.75-0.15c-0.333-0.033-0.65-0.066-0.95-0.1c-0.367,0-0.716,0-1.05,0c-0.333-0.033-0.667-0.066-1-0.1
						c-0.367,0-0.717,0-1.05,0c-0.367,0-0.733-0.017-1.1-0.05c-0.4,0-0.8,0-1.2,0c-0.6,0-1.183,0-1.75,0
						c-0.767-0.033-1.417-0.033-1.95,0c-0.467,0.033-0.917,0.05-1.35,0.05c-0.4,0-0.8,0-1.2,0s-0.8,0-1.2,0c-0.4,0-0.8,0-1.2,0
						c-0.4,0.033-0.8,0.066-1.2,0.1c-0.4,0-0.8,0-1.2,0c-0.4,0.034-0.8,0.067-1.2,0.1c-0.6,0.033-1.2,0.033-1.8,0
						c-0.633,0.1-1.267,0.15-1.9,0.15c-0.4,0.067-0.8,0.117-1.2,0.15c-0.6,0.066-1.2,0.117-1.8,0.15
						c-0.633,0.066-1.267,0.133-1.9,0.2c-0.433,0.067-0.85,0.117-1.25,0.15c-0.6,0.066-1.2,0.133-1.8,0.2
						C16.267-13.567,16.033-13.533,15.8-13.5z"/>
				</g>
			</g>
		</g>
	</g>
</symbol>
<use xlink:href="#waterlilies_x5F_leaves_x5F_lowest"  width="59.253" height="67.205" x="0.06" y="-67.2" transform="matrix(2 0 0 -2 0 0)" style="overflow:visible;"/>
</svg>
