<?xml version="1.0" encoding="iso-8859-1"?>
<!-- Generator: Adobe Illustrator 16.0.0, SVG Export Plug-In . SVG Version: 6.00 Build 0)  -->
<!DOCTYPE svg PUBLIC "-//W3C//DTD SVG 1.1//EN" "http://www.w3.org/Graphics/SVG/1.1/DTD/svg11.dtd">
<svg version="1.1" id="Layer_5" xmlns="http://www.w3.org/2000/svg" xmlns:xlink="http://www.w3.org/1999/xlink" x="0px" y="0px"
	 width="53.7px" height="53.85px" viewBox="0 0 53.7 53.85" style="enable-background:new 0 0 53.7 53.85;" xml:space="preserve">
<symbol  id="glow2" viewBox="-18.85 -18.851 37.75 37.7">
	
		<radialGradient id="SVGID_1_" cx="0.0249" cy="-4.882813e-004" r="18.8626" gradientTransform="matrix(1 0 0 -1 0 -9.765625e-004)" gradientUnits="userSpaceOnUse">
		<stop  offset="0" style="stop-color:#FFFFFF;stop-opacity:0.3765"/>
		<stop  offset="0.1882" style="stop-color:#FFFFFF;stop-opacity:0.6392"/>
		<stop  offset="1" style="stop-color:#FFFFFF;stop-opacity:0"/>
	</radialGradient>
	<path style="fill-rule:evenodd;clip-rule:evenodd;fill:url(#SVGID_1_);" d="M0.05,18.85c5.2,0,9.65-1.85,13.35-5.55
		c3.667-3.667,5.5-8.1,5.5-13.3c0-5.2-1.833-9.65-5.5-13.35c-3.7-3.667-8.15-5.5-13.35-5.5c-5.233,0-9.684,1.833-13.35,5.5
		C-17-9.65-18.85-5.2-18.85,0c0,5.2,1.85,9.633,5.55,13.3C-9.634,17-5.184,18.85,0.05,18.85z"/>
</symbol>
<symbol  id="glow_x5F_3_FLM_x5F_FRAME_x5F_0" viewBox="-63 -63 127 126">
	<g id="Layer_2_4_">
		<use xlink:href="#glow2"  width="37.75" height="37.7" x="-18.85" y="-18.851" style="overflow:visible;"/>
	</g>
	<g id="Layer_1_2_">
		<g>
			<image style="overflow:visible;" width="127" height="126" xlink:href="B0DEDB57.png"  transform="matrix(1 0 0 -1 -63 63)">
			</image>
		</g>
		<g>
			<image style="overflow:visible;" width="127" height="126" xlink:href="B0DEDB55.png"  transform="matrix(1 0 0 -1 -63 63)">
			</image>
		</g>
		<g>
			<image style="overflow:visible;" width="127" height="126" xlink:href="B0DEDB5B.png"  transform="matrix(1 0 0 -1 -63 63)">
			</image>
		</g>
	</g>
</symbol>
<symbol  id="ring" viewBox="-16.05 -16.05 32.15 32.1">
	
		<radialGradient id="SVGID_2_" cx="0.0244" cy="0" r="16.0625" gradientTransform="matrix(1 0 0 -1 0 0)" gradientUnits="userSpaceOnUse">
		<stop  offset="0.3137" style="stop-color:#FFFFFF;stop-opacity:0.149"/>
		<stop  offset="1" style="stop-color:#FFFFFF;stop-opacity:0.098"/>
	</radialGradient>
	<path style="fill-rule:evenodd;clip-rule:evenodd;fill:url(#SVGID_2_);" d="M-11.35-11.351c-3.133,3.134-4.7,6.917-4.7,11.35
		c0,4.434,1.567,8.217,4.7,11.35c3.167,3.133,6.966,4.7,11.4,4.7s8.217-1.567,11.35-4.7S16.1,4.433,16.1,0
		c0-4.433-1.566-8.216-4.7-11.35c-3.133-3.133-6.917-4.7-11.35-4.7S-8.184-14.484-11.35-11.351z M10.15,10.149
		c-2.8,2.8-6.167,4.2-10.1,4.2c-3.967,0-7.35-1.4-10.15-4.2c-2.8-2.8-4.2-6.183-4.2-10.15c0-3.966,1.4-7.35,4.2-10.15
		c2.8-2.8,6.183-4.2,10.15-4.2c3.934,0,7.3,1.4,10.1,4.2c2.8,2.8,4.2,6.184,4.2,10.15C14.35,3.966,12.95,7.35,10.15,10.149z"/>
</symbol>
<symbol  id="sign5_FLM_x5F_FRAME_x5F_0" viewBox="-63.05 -63.2 127 126">
	<g id="glow_1_">
		
			<use xlink:href="#glow_x5F_3_FLM_x5F_FRAME_x5F_0"  width="127" height="126" x="-63" y="-63" transform="matrix(1 0 0 1 -0.0498 -0.2002)" style="overflow:visible;opacity:0.6406;"/>
	</g>
	<g id="sign_1_">
		
			<use xlink:href="#signs_FLM_x5F_FRAME_x5F_0"  width="100" height="100" x="-50" y="-50" transform="matrix(1 0 0 1 0.0498 -0.25)" style="overflow:visible;"/>
	</g>
</symbol>
<symbol  id="signs_FLM_x5F_FRAME_x5F_0" viewBox="-50 -50 100 100">
	<g id="Layer_7_1_">
		<g style="opacity:0.2383;">
			<image style="overflow:visible;" width="100" height="100" xlink:href="B0DEDB5D.png"  transform="matrix(1 0 0 -1 -50 50)">
			</image>
		</g>
	</g>
	<g id="signs_1_">
	</g>
</symbol>
<use xlink:href="#sign5_FLM_x5F_FRAME_x5F_0"  width="127" height="126" x="-63.05" y="-63.2" transform="matrix(1 0 0 -1 26.5 26.75)" style="overflow:visible;"/>
</svg>
