<?xml version="1.0" encoding="iso-8859-1"?>
<!-- Generator: Adobe Illustrator 16.0.0, SVG Export Plug-In . SVG Version: 6.00 Build 0)  -->
<!DOCTYPE svg PUBLIC "-//W3C//DTD SVG 1.1//EN" "http://www.w3.org/Graphics/SVG/1.1/DTD/svg11.dtd">
<svg version="1.1" id="FlashAICB" xmlns="http://www.w3.org/2000/svg" xmlns:xlink="http://www.w3.org/1999/xlink" x="0px" y="0px"
	 width="5.35px" height="4.6px" viewBox="0 0 5.35 4.6" style="enable-background:new 0 0 5.35 4.6;" xml:space="preserve">
<path style="fill-rule:evenodd;clip-rule:evenodd;fill:#AFACB0;" d="M2.9,1.5H2.6L2.05,1.75C1.75,1.983,1.6,2.184,1.6,2.35
	l-0.05,0.2L1.5,3.05L3.6,3.1c0.2-0.333,0.25-0.866,0.15-1.6L3.4,1.45L2.9,1.5z M2.25,0C2.616,0,3.2,0,4,0
	c0.667,0.1,1.066,0.434,1.2,1c0.166,0.667,0.183,1.333,0.05,2C5.083,3.833,4.733,4.333,4.2,4.5C3.967,4.6,3.6,4.634,3.1,4.6
	C2.6,4.566,2.233,4.55,2,4.55c-1.066,0-1.7-0.2-1.9-0.6C0.033,3.816,0,3.533,0,3.1C0.033,2.667,0.05,2.367,0.05,2.2
	c0.034-0.4,0.167-0.733,0.4-1c0.1-0.167,0.366-0.417,0.8-0.75L2.25,0z"/>
</svg>
