<?xml version="1.0" encoding="iso-8859-1"?>
<!-- Generator: Adobe Illustrator 16.0.0, SVG Export Plug-In . SVG Version: 6.00 Build 0)  -->
<!DOCTYPE svg PUBLIC "-//W3C//DTD SVG 1.1//EN" "http://www.w3.org/Graphics/SVG/1.1/DTD/svg11.dtd">
<svg version="1.1" id="FlashAICB" xmlns="http://www.w3.org/2000/svg" xmlns:xlink="http://www.w3.org/1999/xlink" x="0px" y="0px"
	 width="112.2px" height="56.55px" viewBox="0 0 112.2 56.55" style="enable-background:new 0 0 112.2 56.55;" xml:space="preserve"
	>
<symbol  id="Symbol_1" viewBox="-0.017 -47.55 6.017 47.552">
	<use xlink:href="#Symbol_3"  width="6.017" height="47.552" x="-0.017" y="-47.55" style="overflow:visible;"/>
</symbol>
<symbol  id="Symbol_1_copy" viewBox="27.35 -47.25 4.35 46.518">
	<g id="Layer_3_1_">
		<path style="fill-rule:evenodd;clip-rule:evenodd;fill:#C2BAAF;" d="M27.4-42.85c-0.012,0.135-0.029,0.251-0.05,0.35
			c0.033,0,0.033,0.017,0,0.05c0,0.05,0.025,0.083,0.075,0.1C27.419-42.511,27.411-42.678,27.4-42.85z M27.5-44.35
			c0.249-0.033,0.416,0.133,0.5,0.5c0.011,0.039,0.02,0.08,0.025,0.125c0.578,1.058,0.919,2.417,1.025,4.075
			c0.167,0.929,0.316,1.979,0.45,3.15c0.077,0.736,0.152,1.452,0.225,2.15c0.017-0.129,0.025-0.279,0.025-0.45
			c0-0.233-0.1-2.284-0.3-6.15c-0.034-0.233-0.367-1.233-1-3c-0.467-1.233-0.617-2.267-0.45-3.1l-0.25-0.2
			c-0.2,0.6-0.283,1.383-0.25,2.35C27.5-44.704,27.5-44.521,27.5-44.35z"/>
		<path style="fill-rule:evenodd;clip-rule:evenodd;fill:#44403B;" d="M28.35-42.85c-0.118-0.295-0.227-0.586-0.325-0.875
			C28.02-43.77,28.011-43.812,28-43.85c-0.084-0.367-0.251-0.533-0.5-0.5c-0.049,0.013-0.099,0.03-0.15,0.05
			c0.021,0.508,0.037,0.991,0.05,1.45c0.011,0.172,0.019,0.339,0.025,0.5c0.145,3.012,0.287,4.961,0.425,5.85
			c0.2,1.3,0.467,3.667,0.8,7.1c0.434,4.3,0.667,7.617,0.7,9.95c0.033,2.267,0.233,5.8,0.6,10.6l0.55,6.5
			c0.033,0.133,0.083,0.267,0.15,0.4v0.05l0.3,0.75L31.05-1c0.233,0.4,0.4,0.317,0.5-0.25c0.034-0.2,0.067-0.5,0.1-0.9
			c0-0.133,0.017-0.233,0.05-0.3V-4.7c-0.267-0.3-0.45-0.683-0.55-1.15c-0.4-2.333-0.683-5.05-0.85-8.15
			c-0.033-0.5-0.133-3.217-0.3-8.15c-0.067-1.967-0.433-4.783-1.1-8.45c-0.7-3.733-1.083-6.566-1.15-8.5
			c-0.133-2.7,0.183-3.433,0.95-2.2C28.567-41.9,28.45-42.417,28.35-42.85z"/>
		<path style="fill-rule:evenodd;clip-rule:evenodd;fill:#54504A;" d="M31.05-1c0.3,0.567,0.5,0.233,0.6-1c0-0.067,0-0.117,0-0.15
			c-0.033,0.4-0.066,0.7-0.1,0.9C31.45-0.683,31.283-0.6,31.05-1z M28.35-42.85c0.1,0.434,0.217,0.95,0.35,1.55
			c-0.767-1.233-1.083-0.5-0.95,2.2c0.067,1.934,0.45,4.767,1.15,8.5c0.667,3.667,1.033,6.483,1.1,8.45
			c0.167,4.933,0.267,7.65,0.3,8.15c0.167,3.1,0.45,5.817,0.85,8.15C31.25-5.383,31.433-5,31.7-4.7c0-0.5-0.034-0.966-0.1-1.4
			c-0.033-0.233-0.05-1.566-0.05-4c-0.033-2.667-0.1-4.917-0.2-6.75c-0.155-2.721-0.696-8.554-1.625-17.5
			c-0.073-0.698-0.148-1.414-0.225-2.15c-0.134-1.17-0.284-2.221-0.45-3.15c-0.15-0.919-0.317-1.719-0.5-2.4
			C28.483-42.317,28.417-42.583,28.35-42.85z"/>
	</g>
</symbol>
<symbol  id="Symbol_2" viewBox="-0.017 -47.55 31.717 47.552">
	<use xlink:href="#Symbol_1"  width="6.017" height="47.552" x="-0.017" y="-47.55" style="overflow:visible;"/>
	<use xlink:href="#Symbol_1_copy"  width="4.35" height="46.518" x="27.35" y="-47.25" style="overflow:visible;"/>
</symbol>
<symbol  id="Symbol_3" viewBox="-0.017 -47.55 6.017 47.552">
	<g id="Layer_3_2_">
		<path style="fill-rule:evenodd;clip-rule:evenodd;fill:#44403B;" d="M3.1-22.35v-0.1c0.033-0.367,0.2-3.417,0.5-9.15
			c0.2-3.7,0.467-6.75,0.8-9.15c0.181-1.023,0.622-1.623,1.325-1.8c0.03-0.01,0.063-0.018,0.1-0.025
			c0.041-0.011,0.082-0.02,0.125-0.025C5.983-42.9,6-43.083,6-43.15c0-0.484-0.033-1.076-0.1-1.775
			c-0.039-0.404-0.088-0.846-0.15-1.325l-0.5,0.8c-0.333,0.867-0.583,1.9-0.75,3.1c-0.333,1.567-0.65,3.2-0.95,4.9
			c-0.168,0.924-0.326,1.874-0.475,2.85c-0.386,2.538-0.711,5.271-0.975,8.2L0-2.85C-0.067-1.05,0.067-0.1,0.4,0
			c0.3,0.033,0.533-0.383,0.7-1.25l0.25-1.2v-0.1C1.117-2.983,1-3.417,1-3.85C0.833-6.017,1-8.633,1.5-11.7
			c0.3-1.767,0.75-4.383,1.35-7.85C2.883-19.783,2.9-20,2.9-20.2C3-21.2,3.067-21.917,3.1-22.35z"/>
		<path style="fill-rule:evenodd;clip-rule:evenodd;fill:#54504A;" d="M1.35-2.55c0.433-2.467,0.683-4.3,0.75-5.5
			c0.333-5.267,0.583-9.1,0.75-11.5c-0.6,3.466-1.05,6.083-1.35,7.85C1-8.633,0.833-6.017,1-3.85C1-3.417,1.117-2.983,1.35-2.55z
			 M5.95-42.6c-0.043,0.005-0.084,0.014-0.125,0.025c-0.037,0.007-0.07,0.016-0.1,0.025c-0.703,0.177-1.145,0.777-1.325,1.8
			c-0.333,2.4-0.6,5.45-0.8,9.15c-0.3,5.733-0.467,8.783-0.5,9.15v0.1c0.033-0.233,0.566-3.95,1.6-11.15
			C5.4-38.3,5.817-41.333,5.95-42.6z"/>
		<path style="fill-rule:evenodd;clip-rule:evenodd;fill:#C2BAAF;" d="M3.075-34.6c0.148-0.977,0.307-1.926,0.475-2.85
			c0.3-1.7,0.617-3.333,0.95-4.9c0.167-1.2,0.417-2.233,0.75-3.1l0.5-0.8c0.062,0.479,0.111,0.921,0.15,1.325
			C5.85-45.64,5.75-46.499,5.6-47.5c0.066-0.033,0.017-0.05-0.15-0.05c-0.3,0-0.583,0.8-0.85,2.4
			c-0.233,1.867-0.417,3.083-0.55,3.65c-0.466,1.8-0.75,2.917-0.85,3.35c-0.1,0.533-0.15,1.4-0.15,2.6
			C3.05-35.194,3.058-34.878,3.075-34.6z"/>
	</g>
</symbol>
<symbol  id="notes1" viewBox="0.021 -21.144 33.834 21.144">
	<g id="Layer_3_3_">
		<path style="fill-rule:evenodd;clip-rule:evenodd;fill:#C6C6C6;" d="M12.6-13c0.2,0.333,0.25,0.867,0.15,1.6l-0.35,0.05l-0.5-0.05
			h-0.3l-0.55-0.25c-0.3-0.233-0.45-0.433-0.45-0.6l-0.05-0.2l-0.05-0.5L12.6-13z M10.25-10.35l1,0.45c0.366,0,0.95,0,1.75,0
			c0.667-0.1,1.066-0.433,1.2-1c0.167-0.667,0.184-1.333,0.05-2c-0.167-0.833-0.517-1.333-1.05-1.5c-0.233-0.1-0.6-0.133-1.1-0.1
			c-0.5,0.034-0.866,0.05-1.1,0.05c-1.067,0-1.7,0.2-1.9,0.6C9.033-13.716,9-13.433,9-13c0.033,0.434,0.05,0.733,0.05,0.9
			c0.033,0.4,0.167,0.733,0.4,1C9.55-10.933,9.816-10.683,10.25-10.35z"/>
		<path style="fill-rule:evenodd;clip-rule:evenodd;fill:#C6C6C6;" d="M20.1-1.75l-0.3,0.1c-0.367-0.433-0.583-1.05-0.65-1.85
			c-0.034-0.167,0-0.3,0.1-0.4c0.333-0.333,0.883-0.5,1.65-0.5h0.3c0.567,0.067,0.833,0.434,0.8,1.1v0.25L21.9-2.2
			c-0.067,0.066-0.35,0.15-0.85,0.25L20.1-1.75z M17.65-3.4c0.033,0.667,0.216,1.35,0.55,2.05c0.4,0.8,0.9,1.25,1.5,1.35l0.85-0.3
			c0.3-0.1,0.8-0.2,1.5-0.3c0.566-0.167,0.967-0.467,1.2-0.9c0.066-0.167,0.15-0.733,0.25-1.7c0.066-0.733-0.083-1.35-0.45-1.85
			c-0.4-0.5-0.967-0.783-1.7-0.85c-0.933-0.1-1.767,0.05-2.5,0.45C17.983-4.983,17.583-4.3,17.65-3.4z"/>
		<path style="fill-rule:evenodd;clip-rule:evenodd;fill:#C6C6C6;" d="M30.2-9.95L30-10c-0.133-0.067-0.3-0.217-0.5-0.45
			c-0.167-0.233-0.267-0.433-0.3-0.6l0.7-0.25c0.3-0.1,0.667-0.15,1.1-0.15l0.55,0.05c0.3,0.066,0.5,0.2,0.6,0.4
			c0.167,0.2,0.217,0.5,0.15,0.9c-0.067,0.3-0.583,0.467-1.55,0.5L30.4-9.8L30.2-9.95z M30.35-8.1c1.967,0,3.1-0.533,3.4-1.6
			c0.2-0.767,0.117-1.45-0.25-2.05c-0.4-0.633-0.967-1.017-1.7-1.15c-0.7-0.167-1.483-0.117-2.35,0.15
			c-0.933,0.267-1.483,0.583-1.65,0.95c-0.267,0.567-0.167,1.233,0.3,2c0.434,0.7,0.934,1.117,1.5,1.25L30.35-8.1z"/>
		<path style="fill-rule:evenodd;clip-rule:evenodd;fill:#C6C6C6;" d="M2.95-19.6c0.5,0.333,0.667,0.683,0.5,1.05
			c-0.2,0.3-0.583,0.45-1.15,0.45v-0.05c-0.167-0.3-0.383-0.55-0.65-0.75L1.6-19c-0.066-0.133-0.066-0.25,0-0.35l0.6-0.2h0.05
			l0.5-0.1L2.95-19.6z M3.35-16.75c0.733-0.267,1.217-0.65,1.45-1.15c0.267-0.566,0.283-1.133,0.05-1.7
			c-0.2-0.5-0.566-0.917-1.1-1.25c-0.5-0.333-1.134-0.384-1.9-0.15c-0.9,0.267-1.433,0.55-1.6,0.85c-0.267,0.534-0.3,1.083-0.1,1.65
			c0.033,0.167,0.167,0.367,0.4,0.6S0.933-17.483,1-17.35l0.45,0.6C1.95-16.517,2.583-16.517,3.35-16.75z"/>
	</g>
</symbol>
<symbol  id="notes2" viewBox="0 -13.825 22.914 13.828">
	<g id="Layer_3_4_">
		<path style="fill-rule:evenodd;clip-rule:evenodd;fill:#C6C6C6;" d="M3.95-7.899c0.1,0.866,0.083,1.483-0.05,1.85L2.8-6.3H2.6
			c-0.467,0-0.783-0.1-0.95-0.3C1.55-6.833,1.5-7.283,1.5-7.95v-0.5L3.35-8.5l0.4-0.05H3.8L3.95-7.899z M4-4.45
			c1.167,0.233,1.65-0.966,1.45-3.6c-0.067-0.733-0.267-1.267-0.6-1.6c-0.233-0.233-0.55-0.367-0.95-0.4
			C3.433-10.016,3.066-10,2.8-10c-1,0-1.65,0.05-1.95,0.15c-0.333,0.133-0.566,0.3-0.7,0.5C0.05-9.183,0-8.866,0-8.399
			c0,1.2,0.1,2.017,0.3,2.45c0.233,0.5,0.583,0.833,1.05,1c0.3,0.1,0.733,0.15,1.3,0.15L4-4.45z"/>
		<path style="fill-rule:evenodd;clip-rule:evenodd;fill:#C6C6C6;" d="M12.6-1.55c-0.733,0-1.1-0.233-1.1-0.7L11.45-2.6l0.6-0.05
			c1.1,0,1.783,0.183,2.05,0.55c0.133,0.167,0.15,0.333,0.05,0.5l-0.1,0.05H12.6z M10-2.05c0.133,1.3,1,1.983,2.6,2.05h1.3
			c0.767,0.033,1.317-0.3,1.65-1c0.3-0.667,0.233-1.317-0.2-1.95C14.983-3.45,14.433-3.8,13.7-4c-0.467-0.1-1.133-0.15-2-0.15
			c-0.934,0-1.5,0.2-1.7,0.6C9.899-3.383,9.899-2.883,10-2.05z"/>
		<path style="fill-rule:evenodd;clip-rule:evenodd;fill:#C6C6C6;" d="M21.3-12.2c0.167,0.333,0.167,0.65,0,0.95h-0.65
			c-0.8,0-1.2-0.133-1.2-0.4l-0.1-0.3c0.1-0.1,0.3-0.183,0.6-0.25c0.2-0.066,0.483-0.1,0.85-0.1C21.133-12.3,21.3-12.266,21.3-12.2z
			 M21.8-9.75c0.5-0.267,0.833-0.684,1-1.25c0.167-0.534,0.15-1.1-0.05-1.7c-0.367-1-1.417-1.333-3.15-1
			c-1.566,0.367-2.1,1.217-1.6,2.55c0.3,0.933,1.184,1.4,2.65,1.4H21.8z"/>
	</g>
</symbol>
<g>
	<g>
		<g>
			<path style="fill-rule:evenodd;clip-rule:evenodd;fill:#44403B;" d="M99.85,30.3c-1.133-0.899-2.267-1.55-3.399-1.95l0.35-0.2
				l0.65,0.3c0.934,0.466,1.8,0.967,2.6,1.5C99.95,30.05,99.884,30.167,99.85,30.3z M91,30.65L90.45,30.3
				c-0.167-0.3-0.417-0.517-0.75-0.649c-1.533-0.634-3.816-1.65-6.851-3.05c-2.666-1.167-5.05-1.85-7.149-2.05
				c-0.2,0-0.384,0.017-0.55,0.05c-0.367,0.1-0.634,0.35-0.801,0.75L74,25.7c-0.267,0.367-0.8,0.367-1.6,0
				c-0.7-0.333-1.184-0.667-1.45-1l-0.2-0.2c-0.1-0.5-0.417-0.833-0.95-1c-2.8-0.967-6.05-1.567-9.75-1.8
				c-1.866-0.133-5.183-0.184-9.95-0.15l-0.55,0.1l-0.1-0.55c1.2,0.167,2.433,0.233,3.7,0.2c6.966-0.167,12.65,0.167,17.05,1
				c0.233-0.233,0.566-0.383,1-0.45c0.233-0.033,0.666-0.05,1.3-0.05l1.45-0.2c0.399,0.433,0.666,0.733,0.8,0.9
				c0.2,0.233,0.333,0.55,0.4,0.95c0.166,0.033,0.333,0.066,0.5,0.1l2.6,0.55c0.033,0,0.066,0,0.1,0
				c1.067,0.233,2.567,0.683,4.5,1.35c0.034,0,0.084,0.017,0.15,0.05c0.366,0.133,0.767,0.3,1.2,0.5l7.2,3.85
				C91.6,29.95,91.8,30.066,92,30.2c-0.134,0.033-0.233,0.05-0.3,0.05C91.366,30.316,91.134,30.45,91,30.65z M111.75,50.75l-2.7-4.6
				c-1.5-2.434-2.95-4.351-4.35-5.75c-2.066-2.2-4.617-4.217-7.65-6.051L95.6,33.5c-0.899-0.6-1.649-1.134-2.25-1.6
				c0.101-0.167,0.184-0.367,0.25-0.601L98.2,34.15c1.633,0.899,3.133,2.083,4.5,3.55c1.434,1.666,2.583,2.916,3.45,3.75
				c1.899,1.767,3.533,3.899,4.899,6.399l1.15,2.4L111.75,50.75z M104.8,35.65l-3.2-3.5c0.367,0,0.634-0.067,0.801-0.2
				c0.399,0.434,0.866,0.934,1.399,1.5c0.667,0.866,1.167,1.467,1.5,1.8l5.5,5.95l-0.1,0.3c-0.7-0.467-1.334-0.95-1.9-1.45
				L104.8,35.65z M72.65,22.05c-0.467,0-0.834,0.167-1.101,0.5c-0.267,0.3-0.383,0.667-0.35,1.1l-0.05,0.1
				c-0.034,0.4,0.083,0.667,0.35,0.8c0.267,0.333,0.65,0.5,1.15,0.5c0.267,0,0.449-0.033,0.55-0.1L73.4,25h0.1l0.05-0.05v-0.2
				c0.533-0.4,0.717-0.95,0.55-1.65C73.9,22.4,73.417,22.05,72.65,22.05z"/>
			<path style="fill-rule:evenodd;clip-rule:evenodd;fill:#54504A;" d="M99.85,30.3c-0.033,0.101-0.05,0.233-0.05,0.4
				c0,0.033,0.05,0.25,0.15,0.649c-1.3-1.066-2.566-2.033-3.8-2.899L96.55,28l0.9,0.45l-0.65-0.3l-0.35,0.2
				C97.583,28.75,98.717,29.4,99.85,30.3z M90.6,31.5L89.8,31c-0.3-0.2-0.6-0.4-0.899-0.6c-1.567-1.034-2.967-1.833-4.2-2.4
				c-1.867-0.9-3.867-1.55-6-1.95c-0.9-0.167-2.117-0.45-3.65-0.85c0.033-0.167,0.066-0.367,0.101-0.6
				c0.166-0.033,0.35-0.05,0.55-0.05c2.1,0.2,4.483,0.883,7.149,2.05c3.034,1.4,5.317,2.417,6.851,3.05
				c0.333,0.133,0.583,0.35,0.75,0.649L91,30.65h-0.05c-0.233,0.267-0.351,0.533-0.351,0.8V31.5z M92.75,32.75
				c0.2-0.167,0.4-0.45,0.6-0.85c0.601,0.466,1.351,1,2.25,1.6l1.45,0.85c3.033,1.834,5.584,3.851,7.65,6.051
				c1.399,1.399,2.85,3.316,4.35,5.75l2.7,4.6l-0.2,0.15L111,49.65c-0.533-0.934-1.134-1.7-1.8-2.301
				c-0.533-0.466-1.233-1.3-2.101-2.5c-0.966-1.333-1.833-2.383-2.6-3.149c-0.733-0.767-1.5-1.667-2.3-2.7
				c-0.167-0.167-0.334-0.333-0.5-0.5c-0.7-0.733-1.601-1.467-2.7-2.2c-1.233-0.833-2.566-1.616-4-2.35
				c0.066-0.033,0.116-0.05,0.15-0.05C94.616,33.667,93.816,33.283,92.75,32.75z M104.8,35.65c-0.633-0.434-1.983-1.634-4.05-3.601
				c0.2,0.066,0.45,0.101,0.75,0.101c0.033,0,0.066,0,0.1,0L104.8,35.65z"/>
			<path style="fill-rule:evenodd;clip-rule:evenodd;fill:#C2BAAF;" d="M101.7,38.5c-0.167,0.467-0.267,0.85-0.3,1.15l-1.051-0.75
				c-0.233-0.167-0.55-0.483-0.949-0.95c-0.4-0.434-0.717-0.733-0.95-0.9c-0.5-0.399-1.316-0.899-2.45-1.5
				c-0.5-0.333-1.217-0.816-2.15-1.45l0.301,0.051c-0.634-0.334-1.184-0.634-1.65-0.9c0.033,0.033,0.066,0.083,0.1,0.15l-1.3-0.851
				l-0.05-0.05c0.134,0.033,0.283,0.05,0.45,0.05c0.033,0.033,0.066,0.117,0.1,0.25c0.066,0.101,0.2,0.15,0.4,0.15
				s0.383-0.066,0.55-0.2c1.066,0.533,1.866,0.917,2.4,1.15c-0.034,0-0.084,0.017-0.15,0.05c1.434,0.733,2.767,1.517,4,2.35
				C100.1,37.033,101,37.767,101.7,38.5z M88.9,30.4C89.2,30.6,89.5,30.8,89.8,31l0.8,0.5c0,0.233,0.051,0.434,0.15,0.6
				c-0.4-0.267-0.884-0.55-1.45-0.85c-0.233-0.167-0.366-0.366-0.399-0.6C88.9,30.616,88.9,30.533,88.9,30.4z"/>
		</g>
		<path style="fill-rule:evenodd;clip-rule:evenodd;fill:#C2BAAF;" d="M78,32.55c-0.1-0.5-0.066-0.816,0.1-0.95l1.1,0.15
			c0.834,0.9,1.584,1.367,2.25,1.4h1.65c0.134,0.566-0.267,0.949-1.199,1.149c-0.834,0.167-1.484,0.167-1.951,0
			c-0.633-0.2-1.149-0.467-1.549-0.8C78.233,33.3,78.1,32.983,78,32.55z"/>
		<path style="fill-rule:evenodd;clip-rule:evenodd;fill:#C2BAAF;" d="M77.699,30.25c0.034-0.267,0.284-0.533,0.75-0.8
			c0.367-0.233,0.701-0.384,1-0.45c0.601-0.133,1.201-0.066,1.801,0.2c0.8,0.366,1.117,1,0.949,1.899
			c-0.166-0.166-0.366-0.416-0.6-0.75c-0.232-0.199-0.533-0.316-0.9-0.35c-0.433-0.033-0.799,0.066-1.1,0.3
			c-0.166,0.134-0.467,0.367-0.9,0.7L77.699,30.25z"/>
		<path style="fill-rule:evenodd;clip-rule:evenodd;fill:#C2BAAF;" d="M77.949,30.6c1.134-0.767,2.351-1.133,3.65-1.1h0.551
			c0.166,0.033,0.283,0.15,0.35,0.35c0.1,0.434,0.05,0.733-0.15,0.9c-0.133,0.134-0.283,0.167-0.449,0.1
			c-0.101-0.033-0.25-0.1-0.451-0.199C81.383,30.617,81.1,30.6,80.6,30.6c-0.3,0-0.6,0.084-0.9,0.25
			c-0.332,0.167-0.449,0.384-0.35,0.65L77.949,30.6z"/>
		<path style="fill-rule:evenodd;clip-rule:evenodd;fill:#C2BAAF;" d="M67.15,27.85c1.199,0.333,2.967,0.9,5.299,1.7
			c2.034,0.7,3.317,1.101,3.851,1.2c0.434,0.1,0.783,0.233,1.05,0.4c0.4,0.267,0.35,0.517-0.15,0.75
			c-0.232,0.1-0.516,0.083-0.85-0.051c-0.166-0.066-0.416-0.183-0.75-0.35c-0.3-0.066-0.767-0.083-1.4-0.05
			c-0.366-0.066-0.899-0.267-1.6-0.601c-0.666-0.3-1.199-0.466-1.6-0.5l-2.35-0.1c-0.967-0.033-1.75-0.15-2.351-0.35
			c-1.566-0.567-2.733-0.75-3.5-0.551l-0.55,0.4c-0.233,0.2-0.417,0.267-0.551,0.2c-0.1-0.033-0.149-0.117-0.149-0.25
			c0.033-0.134,0.05-0.233,0.05-0.3l-0.15-1.3c-0.433-0.067-0.866,0.1-1.299,0.5c-0.4,0.367-0.601,0.784-0.601,1.25
			c-0.134-0.033-0.399-0.149-0.8-0.35c-0.301-0.167-0.566-0.267-0.801-0.3c-0.1,0-0.683,0.05-1.75,0.149
			c-0.732,0.034-1.266-0.033-1.599-0.199c1.066-0.134,1.867-0.25,2.4-0.351c-0.4-0.233-1.417-0.35-3.05-0.35
			c-0.667,0-1.6,0.083-2.8,0.25c-1.3,0-2.233,0.217-2.8,0.649c-0.4,0.301-0.733,0.884-1,1.75c-0.3,0.934-0.583,1.551-0.85,1.851
			c-0.067-0.601-0.1-1.367-0.1-2.3c0.033-1.033,0.05-1.8,0.05-2.3l11.1-1.4c-0.267-0.033-0.116-0.067,0.45-0.1
			c0.4-0.067,0.783-0.067,1.15,0h1.799c1.234-0.1,2.15-0.117,2.75-0.05c0.467,0.067,1.051,0.217,1.75,0.45L67.15,27.85z"/>
		<path style="fill-rule:evenodd;clip-rule:evenodd;fill:#C2BAAF;" d="M11.8,36.1l2.05-1c1.066-0.699,1.883-1.199,2.45-1.5
			c1.367-0.933,2.45-1.6,3.25-2c0.5-0.333,0.883-0.583,1.15-0.75c0.5-0.3,0.934-0.416,1.3-0.35c0.1,0.333-0.05,0.667-0.45,1
			s-1,0.85-1.8,1.55c-1.033,0.834-2.15,1.517-3.35,2.05c-0.8,0.367-1.6,0.851-2.4,1.45c-0.8,0.467-1.267,0.783-1.4,0.95
			c-0.034,0.033-0.217,0.3-0.55,0.8c-0.3,0.434-0.816,0.9-1.55,1.4c-0.9,0.633-1.467,1.05-1.7,1.25c-0.733,0.7-1.45,1.467-2.15,2.3
			l-1,1.35L4.8,45.45c-1.566,1.8-2.45,2.35-2.65,1.649L3,45.95c0-0.4,0.367-1.017,1.1-1.851c0.8-0.933,1.4-1.767,1.8-2.5
			c0.133-0.267,0.4-0.616,0.8-1.05c0.4-0.467,0.667-0.816,0.8-1.05c0.667-1.033,1.283-1.717,1.85-2.05
			C10.45,36.85,11.267,36.4,11.8,36.1z"/>
		<path style="fill-rule:evenodd;clip-rule:evenodd;fill:#C2BAAF;" d="M38.1,23.75c1.066-0.2,1.867-0.35,2.4-0.45
			c0.967-0.133,1.767-0.167,2.4-0.1c0.1,0.5-0.1,0.833-0.6,1c-0.267,0.1-0.717,0.183-1.35,0.25c-1.7,0.2-2.95,0.45-3.75,0.75
			c-0.733,0.233-1.5,0.533-2.3,0.9l-1.15,0.45c-0.167,0.1-0.383,0.233-0.65,0.4h-0.6c-0.233,0.066-0.55,0.233-0.95,0.5
			c-0.566,0.3-0.983,0.6-1.25,0.9c-0.033,0.067-0.167,0.283-0.4,0.65c-0.2,0.3-0.35,0.467-0.45,0.5c-0.5,0.033-0.75-0.6-0.75-1.9
			l1.65-1.25c0.233-0.3,0.7-0.55,1.4-0.75c0.733-0.167,1.233-0.3,1.5-0.4C34.75,24.6,36.367,24.117,38.1,23.75z"/>
		<path style="fill-rule:evenodd;clip-rule:evenodd;fill:#C2BAAF;" d="M45.35,23.4c0.3,0.4,0.6,0.65,0.9,0.75
			c0.433,0.167,1.05,0.133,1.85-0.1c0.4-0.066,0.733-0.316,1-0.75c0.133-0.2,0.216-0.333,0.25-0.4c0.1-0.133,0.233-0.216,0.4-0.25
			l3.9-0.5c1.433-0.066,2.799-0.1,4.1-0.1c2.566,0.067,3.8,0.384,3.699,0.95c-0.033,0.2-0.416,0.367-1.149,0.5
			c-0.2,0.067-0.399,0.083-0.601,0.05c-0.133,0-0.35-0.033-0.649-0.1c-0.566-0.067-1.3-0.083-2.2-0.05c-0.5,0-1.233,0.017-2.2,0.05
			c-1.367,0-2.083,0-2.15,0c-0.867,0.066-1.583,0.233-2.15,0.5c-0.367,0.167-0.867,0.4-1.5,0.7c-0.534,0.2-1.083,0.25-1.65,0.15
			c-0.5-0.066-0.966-0.216-1.4-0.45c-0.233-0.167-0.467-0.433-0.7-0.8C44.9,23.184,44.983,23.133,45.35,23.4z"/>
		<path style="fill-rule:evenodd;clip-rule:evenodd;fill:#C2BAAF;" d="M78.1,24.9c0.634,0.034,1.117,0.167,1.45,0.4
			c1.067,0.733,1.434,1.434,1.101,2.1c-0.201-0.2-0.601-0.383-1.201-0.55c-0.766-0.2-1.232-0.333-1.399-0.4
			c-0.8-0.367-1.634-0.5-2.5-0.4c-0.333,0.067-0.783,0.284-1.351,0.65c-0.266,0.1-0.649,0.1-1.149,0c-0.8-0.1-1.217-0.4-1.25-0.9
			l0.101-1.75c0.6-0.033,1.366,0.05,2.299,0.25c1.334,0.267,2.084,0.417,2.25,0.45C77.184,24.817,77.733,24.867,78.1,24.9z"/>
		<path style="fill-rule:evenodd;clip-rule:evenodd;fill:#C2BAAF;" d="M71.55,23.65c-0.134,0.2-0.183,0.55-0.149,1.05l-1.15-1.25
			c-0.1-0.567,0.267-0.967,1.1-1.2c0.6-0.167,1.217-0.233,1.85-0.2c0.367,0.034,0.601,0.15,0.701,0.35
			c0.066,0.167,0.066,0.467,0,0.9h-1.5C71.967,23.3,71.684,23.417,71.55,23.65z"/>
		<path style="fill-rule:evenodd;clip-rule:evenodd;fill:#C2BAAF;" d="M93.3,27.45l-0.351-0.35c-0.133-0.733,0.301-1.15,1.301-1.25
			c1.033-0.133,1.467,0.183,1.3,0.95c-0.233,0.034-0.601,0.05-1.101,0.05C94.184,26.917,93.8,27.117,93.3,27.45z"/>
		<path style="fill-rule:evenodd;clip-rule:evenodd;fill:#C2BAAF;" d="M36.8,21.65c0.233-0.033,0.45-0.133,0.65-0.3
			c0.2-0.233,0.35-0.417,0.45-0.55c0.8-0.866,1.6-1.15,2.4-0.85c0.067,0.566-0.017,0.967-0.25,1.2c-0.066,0.1-0.2,0.2-0.4,0.3
			c-0.167,0.066-0.3,0.167-0.4,0.3c-0.267,0.4-0.417,0.633-0.45,0.7c-0.2,0.2-0.467,0.35-0.8,0.45
			c-0.733,0.233-1.483,0.267-2.25,0.1c-0.8-0.2-1.467-0.566-2-1.1l1-0.75c0.1,0.267,0.4,0.434,0.9,0.5
			C36.05,21.717,36.433,21.717,36.8,21.65z"/>
		<path style="fill-rule:evenodd;clip-rule:evenodd;fill:#C2BAAF;" d="M34.75,21.4l-0.25-1.5c0.4-0.433,1.083-0.633,2.05-0.6
			c0.967,0.034,1.283,0.4,0.95,1.1c-0.167,0.034-0.434,0.034-0.8,0c-0.367-0.066-0.65-0.066-0.85,0c-0.267,0.1-0.467,0.267-0.6,0.5
			c-0.033,0.1-0.083,0.233-0.15,0.4C35.033,21.4,34.917,21.434,34.75,21.4z"/>
		<path style="fill-rule:evenodd;clip-rule:evenodd;fill:#C2BAAF;" d="M48.35,18.15l1.75-0.65c4.466,0,7.983,0.167,10.55,0.5
			c0.566,0.033,0.916,0.083,1.049,0.15c0.334,0.1,0.451,0.35,0.351,0.75c-0.467,0.067-1.101,0.067-1.899,0
			c-1.067-0.1-1.717-0.15-1.951-0.15H51.65c-1.233,0-1.917,0.017-2.05,0.05c-0.7,0.167-1.117,0.233-1.25,0.2V18.15z"/>
		<path style="fill-rule:evenodd;clip-rule:evenodd;fill:#C2BAAF;" d="M63.449,18.75l-0.25-1.1c0.101-0.367,0.567-0.5,1.4-0.4
			C65.4,17.317,65.666,17.567,65.4,18c-0.101,0.167-0.451,0.267-1.051,0.3C63.816,18.3,63.517,18.45,63.449,18.75z"/>
		<path style="fill-rule:evenodd;clip-rule:evenodd;fill:#C2BAAF;" d="M76.8,20.65c0.167,0.067,1.3,0.383,3.399,0.95
			c0.367,0.067,0.567,0.183,0.601,0.35c0.033,0.066,0,0.3-0.101,0.7c-0.232,0.067-0.433-0.033-0.6-0.3l-0.65-0.3
			c-0.566-0.267-0.899-0.4-1-0.4c-0.299-0.033-1.033-0.2-2.199-0.5c-1-0.233-2.45-0.35-4.35-0.35c-1,0-1.451-0.2-1.351-0.6
			c0.167-0.033,1-0.05,2.5-0.05L76.8,20.65z"/>
		<path style="fill-rule:evenodd;clip-rule:evenodd;fill:#C2BAAF;" d="M27.1,22.55c0.8-0.233,1.417-0.417,1.85-0.55
			c0.733-0.233,1.35-0.35,1.85-0.35c1.2,0,1.684,0.217,1.45,0.65c-0.033,0.1-0.15,0.167-0.35,0.2c-0.1,0.033-0.233,0.05-0.4,0.05
			c-0.6,0.167-1.267,0.55-2,1.15l-0.8,0.65c-0.466,0.433-1.066,0.667-1.8,0.7c-0.467,0.067-1.183,0.134-2.15,0.2
			c-0.833,0.067-1.533,0.217-2.1,0.45c-0.133,0.066-0.5,0.167-1.1,0.3c-0.6,0.167-0.933,0.35-1,0.55
			c-0.167,0.333,0.117,0.65,0.85,0.95c-0.067,0.2-0.633,0.3-1.7,0.3c-1.2,0.034-1.9,0.083-2.1,0.15c-0.3,0.167-0.75,0.517-1.35,1.05
			c-1.533,0.9-2.5,1.434-2.9,1.6c-0.534,0.268-1,0.65-1.4,1.15c-0.5,0.533-1.233,1.066-2.2,1.6L9.1,33.8l1.6-1.7
			c0.1-0.699,0.633-1.35,1.6-1.949c1.167-0.533,1.95-0.934,2.35-1.2c1.133-0.733,2.1-1.417,2.9-2.05
			c0.3-0.233,0.717-0.483,1.25-0.75c0.767-0.367,1.217-0.6,1.35-0.7c1.3-0.633,2.267-1.133,2.9-1.5
			C23.783,23.517,25.133,23.05,27.1,22.55z M9.1,33.8L7.825,35.15c-0.077,0.227-0.168,0.394-0.275,0.5
			C7.383,35.85,7.083,36.1,6.65,36.4l1.175-1.25c0.03-0.066,0.055-0.133,0.075-0.2C8,34.617,8.1,34.4,8.2,34.3
			c0.3-0.133,0.5-0.233,0.6-0.3L9.1,33.8z"/>
		<path style="fill-rule:evenodd;clip-rule:evenodd;fill:#C2BAAF;" d="M4.4,34.65C4.333,34.684,3.867,34.8,3,35l3.15-3.25
			c0.067-0.167,0.233-0.434,0.5-0.8c0.3-0.367,0.517-0.566,0.65-0.601c0.267,0,0.483-0.033,0.65-0.1c0.2-0.066,0.534-0.283,1-0.65
			c0.3-0.399,0.534-0.683,0.7-0.85c0.267-0.3,0.45-0.217,0.55,0.25c0.133,0.6,0.05,1.134-0.25,1.6c-0.167,0.268-0.633,0.567-1.4,0.9
			c-0.133,0.1-0.35,0.167-0.65,0.2s-0.5,0.083-0.6,0.149c-0.333,0.167-0.717,0.567-1.15,1.2c-0.4,0.334-0.683,0.617-0.85,0.851
			C5,34.267,4.7,34.517,4.4,34.65z"/>
		<path style="fill-rule:evenodd;clip-rule:evenodd;fill:#C2BAAF;" d="M7.7,29.35L6.8,29.45c-0.066-0.7,0.1-1.15,0.5-1.35
			c0.167-0.1,0.367-0.15,0.6-0.15c0.267-0.033,0.45,0.017,0.55,0.15c-0.033,0.1-0.2,0.283-0.5,0.55
			C7.75,28.817,7.667,29.05,7.7,29.35z"/>
		<path style="fill-rule:evenodd;clip-rule:evenodd;fill:#C2BAAF;" d="M10.2,26.95l4.4-3c0.966-0.733,1.65-1.067,2.05-1
			c-0.033,0.3-0.233,0.566-0.6,0.8c-0.2,0.133-0.5,0.317-0.9,0.55l-1.55,1.15c-0.8,0.467-1.467,0.9-2,1.3
			C10.867,27.25,10.4,27.317,10.2,26.95z"/>
		<path style="fill-rule:evenodd;clip-rule:evenodd;fill:#C2BAAF;" d="M23.45,21.55c-0.4,0.134-0.95,0.25-1.65,0.35
			c-0.9,0.267-1.5,0.65-1.8,1.15c-0.1,0.2-0.2,0.434-0.3,0.7c-0.133,0.233-0.316,0.417-0.55,0.55
			c-0.333,0.233-0.783,0.317-1.35,0.25c-0.433-0.033-0.867-0.167-1.3-0.4c-0.533-0.267-0.75-0.583-0.65-0.95L18,23.3
			c0.2,0.034,0.566-0.216,1.1-0.75c0.367-0.366,0.633-0.65,0.8-0.85c0.3-0.3,0.6-0.517,0.9-0.65c1.267-0.533,2.434-0.733,3.5-0.6
			C24.433,20.95,24.15,21.317,23.45,21.55z"/>
		<path style="fill-rule:evenodd;clip-rule:evenodd;fill:#C2BAAF;" d="M16.25,22.8l-1.15-1c0.433-0.566,1.066-0.816,1.9-0.75
			c0.5,0,0.717,0.167,0.65,0.5c-0.067,0.167-0.333,0.333-0.8,0.5C16.417,22.184,16.217,22.434,16.25,22.8z"/>
		<path style="fill-rule:evenodd;clip-rule:evenodd;fill:#C2BAAF;" d="M48.1,13.25c1.433,0.067,2.517,0.1,3.25,0.1
			c0.933,0,1.517,0.033,1.75,0.1c0.533,0.167,0.917,0.283,1.15,0.35c0.467,0.167,0.867,0.233,1.2,0.2
			c0.966-0.167,1.701-0.25,2.201-0.25c0.467,0,1.1,0.033,1.899,0.1c1,0.167,1.75,0.283,2.25,0.35l1.149,0.05
			c0.101,0.333-0.016,0.617-0.35,0.85c-0.333,0.2-0.666,0.283-1,0.25c-0.3,0-0.732-0.1-1.3-0.3c-0.566-0.2-1.017-0.3-1.351-0.3
			c-0.566,0-1.566,0.133-3,0.4c-1.267,0.267-2.283,0.333-3.05,0.2l-0.05-0.2c-1.233-0.233-2.483-0.183-3.75,0.15
			c-1,0.2-1.667,0.15-2-0.15c-0.133-0.1-0.217-0.233-0.25-0.4c0-0.233,0-0.433,0-0.6c-0.867-0.1-1.583-0.083-2.15,0.05
			c-0.633,0.133-1.267,0.433-1.9,0.9c-0.133,0.1-0.267,0.2-0.4,0.3c-0.067,0.034-0.233,0.067-0.5,0.1l-0.6,0.1
			c-0.233,0.1-0.517,0.233-0.85,0.4H37.8c-0.467,0-1.15,0.083-2.05,0.25c-0.9,0.167-1.583,0.25-2.05,0.25
			c-0.433,0-0.7,0.017-0.8,0.05c-0.133,0.034-0.267,0.117-0.4,0.25c-0.3,0.1-0.717,0.15-1.25,0.15c-0.267,0-0.7-0.017-1.3-0.05
			l1.15-0.65c0.4,0,0.9-0.117,1.5-0.35c0.867-0.3,1.35-0.466,1.45-0.5l2.45-0.65c2.5-0.6,4.333-0.983,5.5-1.15
			c1.733-0.267,3-0.383,3.8-0.35H48.1z"/>
		<path style="fill-rule:evenodd;clip-rule:evenodd;fill:#C2BAAF;" d="M66.75,15.5l0.5-1.65c0.566,0,1.316,0.033,2.25,0.1
			c1.066,0.1,1.8,0.15,2.199,0.15c1.134,0.067,1.951,0.15,2.451,0.25s1.183,0.283,2.049,0.55c0.934,0.3,1.601,0.5,2,0.6
			c1,0.367,1.768,0.617,2.301,0.75c1.233,0.367,2.1,0.667,2.6,0.9c0.167,0.1,1.334,0.55,3.5,1.35c0.367,0.167,0.801,0.434,1.301,0.8
			c0.633,0.5,1.049,0.8,1.25,0.9c0.433,0.333,0.783,0.566,1.049,0.7c0.234,0.167,0.601,0.35,1.101,0.55
			c0.5,0.2,0.851,0.367,1.05,0.5c1.066,0.733,1.9,1.233,2.5,1.5c0.467,0.267,0.75,0.5,0.85,0.7c-0.399,0.133-0.916,0.05-1.549-0.25
			c-0.167-0.066-0.634-0.333-1.4-0.8c-0.801-0.533-2.033-1.25-3.7-2.15c-1.366-0.833-2.45-1.267-3.25-1.3
			c-0.601,0-0.983-0.033-1.149-0.1c-0.134-0.033-0.317-0.167-0.551-0.4c-0.232-0.167-0.434-0.267-0.6-0.3
			c-0.033-0.2-0.233-0.367-0.6-0.5c-0.234-0.067-0.533-0.133-0.9-0.2c-0.267-0.033-0.65,0.017-1.15,0.15
			c-0.9,0.233-2.017-0.1-3.35-1c-0.533-0.333-1.217-0.583-2.051-0.75c-0.466-0.066-1.199-0.183-2.199-0.35
			c-1.834-0.4-3.051-0.55-3.65-0.45c-0.232,0.033-0.699,0.25-1.4,0.65c-0.6,0.333-1.082,0.45-1.449,0.35V15.5z"/>
		<path style="fill-rule:evenodd;clip-rule:evenodd;fill:#C2BAAF;" d="M26.15,14.8c0.567-0.033,1.033-0.133,1.4-0.3
			c0.5-0.367,0.883-0.583,1.15-0.65c0.233,0.667-0.15,1.183-1.15,1.55c-0.967,0.4-1.467,0.267-1.5-0.4
			c-0.233,0.1-0.483,0.35-0.75,0.75c-0.066,0.067-0.35,0.167-0.85,0.3c-0.133,0.034-0.733,0.317-1.8,0.85
			c-0.033,0.034-0.367,0.133-1,0.3L20,17.9c-1.3,0.467-2.75,1.133-4.35,2c-0.267,0.133-0.667,0.317-1.2,0.55
			c-0.167,0.1-0.533,0.433-1.1,1c-0.9,0.8-1.833,1.367-2.8,1.7c-1.367,0.467-2.316,0.934-2.85,1.4L6.35,25.8
			c-0.1,0.1-0.267,0.284-0.5,0.55c-0.233,0.2-0.467,0.283-0.7,0.25l2.05-3.65C7.733,22.617,8.5,22,9.5,21.1
			c0.967-0.9,1.733-1.517,2.3-1.85c1.233-0.767,2.767-1.55,4.6-2.35c1.433-0.466,2.5-0.85,3.2-1.15c1.6-0.667,2.767-1,3.5-1h1.6
			C25.333,14.783,25.816,14.8,26.15,14.8z"/>
		<path style="fill-rule:evenodd;clip-rule:evenodd;fill:#C2BAAF;" d="M26.45,11.95c-0.033,0.3-0.117,0.483-0.25,0.55
			c-0.066,0.033-0.283,0.067-0.65,0.1C25.217,12.633,25,12.767,24.9,13c-0.2,0.367-0.317,0.567-0.35,0.6l-0.9-0.85
			c0.033-0.5,0.217-0.917,0.55-1.25c0.367-0.3,0.817-0.433,1.35-0.4C26.183,11.167,26.483,11.45,26.45,11.95z"/>
		<path style="fill-rule:evenodd;clip-rule:evenodd;fill:#C2BAAF;" d="M88.199,14.65c0.367,0.133,0.918,0.417,1.65,0.85
			c0.667,0.4,1.2,0.667,1.6,0.8c0.168,0.067,1.234,0.333,3.201,0.8c0.433,0.1,0.666,0.167,0.699,0.2c0.467,0.3,0.566,0.7,0.301,1.2
			c-0.4-0.133-1.018-0.433-1.851-0.9c-0.566-0.2-1.183-0.35-1.851-0.45c-1.332-0.2-2.299-0.466-2.899-0.8
			c-0.366-0.167-0.866-0.517-1.5-1.05c-0.634-0.5-1.149-0.85-1.55-1.05c-0.334-0.167-0.717-0.267-1.15-0.3
			c-0.767-0.067-1.166-0.1-1.199-0.1c-0.5-0.033-0.984-0.233-1.451-0.6c-0.1-0.066-0.266-0.233-0.5-0.5
			c-0.166-0.066-0.449-0.033-0.85,0.1l-0.8-0.1c-0.7-0.1-1.649-0.333-2.851-0.7c-1.366-0.433-2.316-0.7-2.85-0.8
			c-0.5-0.1-1.383-0.233-2.65-0.4c-0.266-0.033-0.666-0.033-1.199,0l-1.1-0.1c-0.201-0.1-0.301-0.233-0.301-0.4
			c0-0.2-0.017-0.333-0.05-0.4c-0.101-0.133-0.634-0.317-1.601-0.55C66.25,9.2,64.934,9.25,63.5,9.55
			c-1.2,0.267-2.051,0.4-2.551,0.4H56.9c-1.267,0-2.217-0.083-2.851-0.25c-0.133-0.033-0.217-0.117-0.25-0.25h-2.4
			c-1.033,0-2.033,0.117-3,0.35c-0.433,0.1-1,0.35-1.7,0.75c-0.233,0.134-0.483,0.134-0.75,0c-0.167-0.066-0.25-0.15-0.25-0.25
			c0-0.1-0.033-0.216-0.1-0.35c-0.167-0.367-0.467-0.483-0.9-0.35c-0.167,0.033-0.383,0.183-0.65,0.45
			c-0.333,0.3-1.066,0.483-2.2,0.55c-0.7,0.067-1.8,0.117-3.3,0.15c-1.3,0.067-2.35,0.3-3.15,0.7c-1.433,0.667-2.7,1.167-3.8,1.5
			c-0.6,0.133-1.1,0.367-1.5,0.7c-0.1,0.067-0.35,0.267-0.75,0.6c-0.333,0.3-0.583,0.467-0.75,0.5c-0.067-0.533-0.034-1,0.1-1.4
			l2.05-1.75c0.7,0.033,1.717-0.15,3.05-0.55c3.367-0.933,5.617-1.466,6.75-1.6c0.567-0.067,1.4-0.083,2.5-0.05
			c1.133,0,1.967-0.033,2.5-0.1c2.833-0.4,4.967-0.6,6.4-0.6H59c3.566,0,6.5,0.117,8.8,0.35l3,0.3
			c0.333,0.033,1.351,0.317,3.05,0.85c0.934,0.4,1.551,0.617,1.85,0.65c0.867,0.133,1.518,0.267,1.951,0.4
			c1.1,0.267,2.683,0.733,4.75,1.4c1.5,0.6,2.649,1.034,3.449,1.3C86.883,14.217,87.666,14.45,88.199,14.65z"/>
		<path style="fill-rule:evenodd;clip-rule:evenodd;fill:#54504A;" d="M5.7,30.05c0.2,0.3,0.667,0.567,1.4,0.8
			c-2,2.134-3.983,4.367-5.95,6.7V35.9C2.15,34.3,3.066,33,3.9,32C4,31.867,4.6,31.217,5.7,30.05z"/>
		<path style="fill-rule:evenodd;clip-rule:evenodd;fill:#54504A;" d="M14.55,23.75c0.133,0.3,0.467,0.483,1,0.55
			c-1.3,0.5-2.283,0.967-2.95,1.4c-0.5,0.3-1.3,0.967-2.4,2c-0.2-0.367-0.55-0.667-1.05-0.9l2.05-1.75
			c0.733-0.566,1.817-1.283,3.25-2.15C14.417,23.233,14.45,23.517,14.55,23.75z"/>
		<path style="fill-rule:evenodd;clip-rule:evenodd;fill:#54504A;" d="M23.05,13.45c0,0.667,0.3,1.217,0.9,1.65
			c-1.667,0.667-4.816,2.267-9.45,4.8c-2.5,1.333-4.434,2.633-5.8,3.9c-0.667,0.6-1.6,1.534-2.8,2.8
			c-1.233,1.3-2.067,2.217-2.5,2.75c-0.6,0.768-1.433,1.601-2.5,2.5l0.35-2.1L7.2,23.8c0.7-0.767,1.217-1.3,1.55-1.6
			c0.467-0.434,1.167-0.983,2.1-1.65c0.333-0.233,1-0.9,2-2c0.667-0.733,1.667-1.366,3-1.9C18.816,15.283,21.217,14.217,23.05,13.45
			z"/>
		<path style="fill-rule:evenodd;clip-rule:evenodd;fill:#54504A;" d="M110.55,29.1l1.149,1.15l-0.25,1.1l-3.149-3
			c-1.667-1.8-3.433-3.317-5.3-4.55c-0.533-0.366-1.35-1.083-2.45-2.15c-1.134-1.1-2.116-1.933-2.95-2.5
			c-0.8-0.533-2.1-1.083-3.9-1.65c-2.133-0.667-3.933-1.383-5.399-2.15c-2.066-1.033-4.5-1.933-7.3-2.7
			c-2.267-0.566-5.217-1.167-8.85-1.8c-4.033-0.733-6.65-1.167-7.851-1.3c-2.399-0.267-5.149-0.333-8.25-0.2
			c-2.667,0.1-6.3,0.433-10.9,1c-4.6,0.533-7.183,0.817-7.75,0.85c-0.9,0.033-2.2,0.35-3.9,0.95c-0.967,0.333-2.483,0.85-4.55,1.55
			v-0.65c-0.1-0.9-0.167-1.4-0.2-1.5l0.2-0.1c2.133-0.633,3.383-1,3.75-1.1c0.333-0.1,1.684-0.233,4.05-0.4
			c1.867-0.1,4.5-0.483,7.9-1.15c3.233-0.633,5.983-1,8.25-1.1c4.133-0.167,6.75-0.233,7.85-0.2c2.367,0.033,5,0.267,7.9,0.7
			c7.366,1.167,12.649,2.467,15.85,3.9c1.333,0.6,2.6,1.133,3.8,1.6c1.567,0.6,2.95,1.15,4.149,1.65
			c1.168,0.5,2.284,0.85,3.351,1.05c0.533,0.1,1.3,0.55,2.3,1.35c0.667,0.533,1.733,1.467,3.2,2.8c1.134,1.067,2.25,1.95,3.351,2.65
			c1.199,0.767,2.416,1.833,3.649,3.2C109.434,27.833,110.184,28.733,110.55,29.1z"/>
		<path style="fill-rule:evenodd;clip-rule:evenodd;fill:#54504A;" d="M33.25,21.65l0.2,0.25c-9,3.1-14.566,5.167-16.7,6.2
			c-2.967,1.433-5.9,3.817-8.8,7.15C7.383,35.917,6.9,36.434,6.5,36.8C6.3,37,6.066,37.283,5.8,37.65
			c-0.5,0.767-2.183,2.483-5.05,5.149c0.333-1.5,1.167-2.883,2.5-4.149c0.667-0.601,1.4-1.417,2.2-2.45c0.733-0.967,1.4-1.7,2-2.2
			c1.333-1.366,2.483-2.517,3.45-3.45c1.867-1.767,3.817-3.083,5.85-3.95c3.5-1.6,6.133-2.767,7.9-3.5c3.1-1.267,5.5-1.95,7.2-2.05
			l1.3-0.15C33.117,21.133,33.15,21.383,33.25,21.65z"/>
		<path style="fill-rule:evenodd;clip-rule:evenodd;fill:#54504A;" d="M43.75,21.85v1.9c-3.267,0.667-5.883,1.233-7.85,1.7
			c-1.767,0.4-5.883,1.867-12.35,4.399l-13.35,8.7l-2,1.95c-1.4,1.4-2.25,2.384-2.55,2.95c-0.3,0.6-0.667,1.167-1.1,1.7
			c-0.233,0.333-0.667,0.899-1.3,1.699c-0.667,0.934-1.583,1.768-2.75,2.5L0,47.6C0.467,47.4,0.833,47.167,1.1,46.9
			c0.433-0.367,0.983-1.017,1.65-1.95c1.033-1.333,1.717-2.3,2.05-2.9c0.4-0.666,0.934-1.283,1.6-1.85
			c0.933-0.9,1.967-1.867,3.1-2.9c2.3-2.066,4.633-3.916,7-5.55c3.733-2.6,9.1-4.95,16.1-7.05c0.466-0.133,0.633-0.2,0.5-0.2
			l6.2-1.55C40.967,22.483,42.45,22.117,43.75,21.85z"/>
		<path style="fill-rule:evenodd;clip-rule:evenodd;fill:#54504A;" d="M52.85,12.85c0,0.2-0.017,0.583-0.05,1.15
			c-0.767,0.067-2.017,0.233-3.75,0.5c-1.566,0.267-2.933,0.434-4.1,0.5c-3.1,0.167-6.117,0.533-9.05,1.1
			c-3.6,0.667-6.117,1.517-7.55,2.55c-1.133,0.8-4.017,2.133-8.65,4c0.1-0.733,0.067-1.35-0.1-1.85l-0.1-0.35
			c0.967-0.4,1.983-0.7,3.05-0.9c1.7-0.366,3.2-0.917,4.5-1.65c2.434-1.4,3.667-2.117,3.7-2.15c1.3-0.633,3.517-1.15,6.65-1.55
			c0.233-0.033,2.333-0.233,6.3-0.6l9.2-0.85L52.85,12.85z"/>
		<path style="fill-rule:evenodd;clip-rule:evenodd;fill:#54504A;" d="M65.6,22c0.167,0.533,0.15,1.1-0.05,1.7
			c-0.366,1-1.417,1.333-3.149,1c-1.567-0.367-2.101-1.217-1.601-2.55c0.333-0.933,1.217-1.4,2.649-1.4h1.15
			C65.1,21.05,65.434,21.467,65.6,22z M63.199,24.4c0.967,0,1.451-0.5,1.451-1.5s-0.484-1.5-1.451-1.5c-0.966,0-1.449,0.5-1.449,1.5
			S62.233,24.4,63.199,24.4z"/>
		<path style="fill-rule:evenodd;clip-rule:evenodd;fill:#54504A;" d="M70.199,22.3c-0.232,0.233-0.399,0.634-0.5,1.2l-0.049,0.2
			l-0.9-0.15c-2.133-0.366-4.9-0.583-8.301-0.65c-1.866,0-4.133,0.017-6.799,0.05c-1.233,0-5.1,0.333-11.6,1l-0.2-1.6
			c0-0.133,1.233-0.317,3.7-0.55c2.467-0.267,3.684-0.5,3.65-0.7c1.267,0.167,2.583,0.233,3.95,0.2
			C60.117,21.133,65.8,21.467,70.199,22.3z"/>
		<path style="fill-rule:evenodd;clip-rule:evenodd;fill:#54504A;" d="M68.85,29.45c-0.366,0.133-0.934,0.1-1.699-0.101L67,29.45
			l-0.2-0.2l-1.2-0.3c-1.3-0.2-2.6-0.35-3.9-0.45c-0.633-0.033-2.533-0.05-5.699-0.05c-3.9,0-6.983,0.1-9.25,0.3
			c-3.4,0.267-6.434,0.816-9.1,1.65c-1.233,0.366-3.5,1.316-6.8,2.85l-1.9,0.9c-0.333,0.166-0.667,0.383-1,0.649
			c-0.566,0.467-0.867,0.7-0.9,0.7c-0.167,0.134-0.8,0.55-1.9,1.25c-0.767,0.5-1.367,0.967-1.8,1.4c-0.567,0.633-1,1.033-1.3,1.199
			l-1.5,0.45c-3.233,1.467-5.75,2.817-7.55,4.05l-0.8,0.601C11.967,44.617,11.566,44.8,11,45c-0.533,0.167-0.917,0.35-1.15,0.55
			c-0.767,0.667-1.367,1.351-1.8,2.05c-0.3,0.467-1.083,1.483-2.35,3.051c-0.367,0.433-0.75,1.1-1.15,2
			c-0.433,0.733-1.066,1.683-1.9,2.85c-0.567,0.733-1.067,1.083-1.5,1.05C1.15,56.217,1.1,56,1,55.9V55.3
			c0.1-0.267,0.3-0.633,0.6-1.1c0.333-0.533,0.55-0.9,0.65-1.101c0.233-0.5,0.683-1.133,1.35-1.899
			c0.466-0.867,0.867-1.483,1.2-1.851c0.467-0.533,0.8-0.949,1-1.25c0.867-1.5,1.583-2.533,2.15-3.1c0.034-0.1,0.117-0.15,0.25-0.15
			l0.35-0.5c0.567-0.699,1.55-1.55,2.95-2.55l3.6-2.2c1.5-0.267,2.966-0.966,4.4-2.1c2.133-1.5,3.7-2.667,4.7-3.5
			c1.333-1.1,3.667-2.267,7-3.5c2.967-1.1,5.583-1.867,7.85-2.3c0.733-0.133,1.767-0.267,3.1-0.4c1.433-0.133,2.45-0.25,3.05-0.35
			c2.2-0.267,3.85-0.5,4.95-0.7c1.667-0.066,2.9-0.167,3.7-0.3c1.667-0.267,3.25-0.4,4.75-0.4c1.867,0,3.134,0.017,3.801,0.05
			c1.467,0.067,2.732,0.233,3.799,0.5l1.101,0.3c0.601,0,1.05,0.034,1.351,0.1c0.366,0.067,0.85,0.2,1.449,0.4
			c0.667,0.233,1.134,0.383,1.4,0.45L78,29.7c-0.267,0.267-0.417,0.633-0.45,1.1c-0.033,0.4-0.033,0.767,0,1.101
			C73.55,30.867,70.65,30.05,68.85,29.45z"/>
		<path style="fill-rule:evenodd;clip-rule:evenodd;fill:#54504A;" d="M83.55,32.6l0.05-1.149c1.867,0.434,3.25,0.767,4.15,1
			c1.633,0.434,2.934,0.95,3.9,1.55c0.266,0.167,1.149,0.833,2.649,2c1.033,0.7,1.783,1.267,2.25,1.7l1.101,1.149
			c1,1.101,1.616,1.817,1.85,2.15c0.533,0.733,1.3,1.6,2.3,2.6c1.333,1.268,2.149,2.084,2.45,2.45l1.15,1.3
			c0.533,0.334,0.916,0.584,1.149,0.75c0.233,0.2,0.866,0.851,1.899,1.95c0.867,0.867,1.4,1.483,1.601,1.851
			c-0.033,0.166-0.017,0.283,0.05,0.35c0.066,0.167,0.217,0.367,0.45,0.6c0.2,0.268,0.333,0.684,0.399,1.25
			c0,0.2,0.051,0.5,0.15,0.9c0.033,0.4-0.033,0.7-0.199,0.9c-0.101,0.133-0.268,0.233-0.5,0.3c-0.101,0.066-0.283,0.133-0.551,0.2
			c0-0.634-0.05-1.084-0.15-1.351l-0.6-1.399c-0.232-0.667-0.666-1.334-1.3-2c-0.366-0.5-0.583-0.834-0.649-1
			c-0.067-0.167-0.15-0.434-0.25-0.801c-0.367-0.5-1.117-1.116-2.25-1.85c-1.5-1.4-2.384-2.25-2.65-2.55
			c-0.667-0.733-1.767-1.733-3.301-3c-0.332-0.233-0.783-0.65-1.35-1.25c-0.566-0.601-1.017-1.017-1.35-1.25
			c-1.5-1.134-2.566-1.851-3.2-2.15L90.4,36.65c-1.101-0.801-2.184-1.417-3.25-1.851l-4-1.399C83.383,33.167,83.517,32.9,83.55,32.6
			z"/>
		<path style="fill-rule:evenodd;clip-rule:evenodd;fill:#54504A;" d="M43.4,18.25c0.033,0.267,0.183,0.533,0.45,0.8
			c-1.6,0.3-3.133,0.65-4.6,1.05l-0.05-0.55c-0.066-0.267-0.233-0.533-0.5-0.8c1.434-0.533,3.017-0.95,4.75-1.25h0.05
			C43.433,17.633,43.4,17.883,43.4,18.25z"/>
		<path style="fill-rule:evenodd;clip-rule:evenodd;fill:#54504A;" d="M66.9,18.5c-0.033,0.1-0.018,0.367,0.049,0.8
			c-0.332,0.267-1.616,0.05-3.85-0.65c-0.699-0.133-1.416-0.216-2.15-0.25C57.617,18.233,54,18.184,50.1,18.25l-2.5,0.2
			c0.2-0.467,0.2-0.967,0-1.5c0.867-0.067,1.783-0.05,2.75,0.05c1.267,0.1,2.4,0.15,3.4,0.15c2,0,4.25,0.133,6.75,0.4
			C62.967,17.817,65.1,18.133,66.9,18.5z"/>
		<path style="fill-rule:evenodd;clip-rule:evenodd;fill:#54504A;" d="M81.6,21.2c2.233,0.566,3.917,1.05,5.051,1.45
			c0.967,0.367,2.816,1.333,5.549,2.9c-0.1,0.134-0.183,0.367-0.25,0.7C89.117,25.017,85.8,23.733,82,22.4l-4.5-1.1
			c-3.4-0.733-6.15-1.15-8.25-1.25c-1.301-0.066-2.5-0.25-3.6-0.55v-0.05c0.299-0.233,0.482-0.583,0.549-1.05
			c1.434,0.333,3.384,0.6,5.851,0.8c2.2,0.2,3.75,0.433,4.649,0.7C77.434,20.133,79.066,20.567,81.6,21.2z"/>
		<path style="fill-rule:evenodd;clip-rule:evenodd;fill:#54504A;" d="M110.8,41.2l-0.351,0.85l-0.75-1
			c-0.5-0.666-2.666-2.916-6.5-6.75c0.234-0.2,0.434-0.483,0.601-0.85c0.667,0.866,1.167,1.467,1.5,1.8L110.8,41.2z"/>
		<path style="fill-rule:evenodd;clip-rule:evenodd;fill:#54504A;" d="M104.6,30.8c0.334,0,0.684-0.066,1.051-0.2l2,2.15
			c0.699,0.733,1.6,1.85,2.699,3.35l1.45,2.051l-0.5,0.25l-0.75-1.101c-0.366-0.566-1.133-1.5-2.3-2.8
			c-1.167-1.233-2.2-2.283-3.1-3.15L104.6,30.8z"/>
		<path style="fill-rule:evenodd;clip-rule:evenodd;fill:#54504A;" d="M7.75,27.95L7.7,28c-0.167,0.3-0.367,0.567-0.6,0.8L7,28.85
			v0.35l0.6,0.2l0.1,0.05l0.5,0.05l0.2-0.05c0.467-0.3,0.633-0.633,0.5-1c-0.067-0.1-0.2-0.2-0.4-0.3
			C8.233,28.017,7.983,27.95,7.75,27.95z M5.7,30c-0.267-0.434-0.3-0.967-0.1-1.6c0.033-0.2,0.167-0.417,0.4-0.65
			s0.383-0.417,0.45-0.55l0.4-0.6c0.533-0.267,1.183-0.267,1.95,0c0.733,0.267,1.217,0.667,1.45,1.2
			c0.267,0.567,0.283,1.117,0.05,1.65c-0.2,0.533-0.566,0.967-1.1,1.3c-0.466,0.3-1.1,0.35-1.9,0.15
			C6.367,30.634,5.833,30.333,5.7,30z"/>
		<path style="fill-rule:evenodd;clip-rule:evenodd;fill:#54504A;" d="M18.15,21.25h-1.1L16.5,21.5c-0.3,0.267-0.467,0.467-0.5,0.6
			v0.2l-0.05,0.5l1.95,0.1l0.15-0.05C18.283,22.517,18.316,21.983,18.15,21.25z M16.7,19.75c1.1,0,1.684,0,1.75,0
			c0.633,0.133,1.017,0.483,1.15,1.05c0.167,0.634,0.183,1.284,0.05,1.95c-0.133,0.833-0.467,1.35-1,1.55
			c-0.233,0.067-0.6,0.1-1.1,0.1c-0.267-0.033-0.633-0.066-1.1-0.1c-1.066,0-1.7-0.183-1.9-0.55c-0.133-0.267-0.15-0.867-0.05-1.8
			c0.066-0.6,0.467-1.184,1.2-1.75L16.7,19.75z"/>
		<path style="fill-rule:evenodd;clip-rule:evenodd;fill:#54504A;" d="M28.65,11.35c0.1,0.2,0.2,0.767,0.3,1.7
			c0.1,1.634-0.617,2.534-2.15,2.7c-0.933,0.1-1.783-0.05-2.55-0.45c-0.867-0.466-1.267-1.15-1.2-2.05
			c0.067-0.667,0.267-1.333,0.6-2c0.433-0.833,0.933-1.3,1.5-1.4l0.85,0.3c0.667,0.133,1.167,0.25,1.5,0.35
			C28.066,10.667,28.45,10.95,28.65,11.35z M26.65,14.25c0.567-0.066,0.833-0.433,0.8-1.1V12.9l-0.1-0.85
			c-0.067-0.066-0.367-0.15-0.9-0.25l-0.9-0.2l-0.3-0.1c-0.4,0.467-0.633,1.1-0.7,1.9c0,0.133,0.05,0.25,0.15,0.35
			c0.267,0.333,0.817,0.5,1.65,0.5H26.65z"/>
		<path style="fill-rule:evenodd;clip-rule:evenodd;fill:#54504A;" d="M39.2,19.55c0.2,0.767,0.117,1.45-0.25,2.05
			c-0.4,0.633-0.966,1.017-1.7,1.15c-0.767,0.167-1.55,0.133-2.35-0.1c-0.967-0.367-1.517-0.7-1.65-1
			c-0.267-0.533-0.167-1.183,0.3-1.95c0.434-0.7,0.934-1.133,1.5-1.3l0.75-0.45C37.767,17.95,38.9,18.483,39.2,19.55z M37.6,20.9
			c0.167-0.267,0.2-0.583,0.1-0.95c-0.066-0.3-0.566-0.467-1.5-0.5l-0.35,0.25l-0.4,0.15c-0.133,0.033-0.3,0.183-0.5,0.45
			c-0.167,0.233-0.283,0.434-0.35,0.6l0.75,0.3L37,21.3C37.3,21.233,37.5,21.1,37.6,20.9z"/>
		<path style="fill-rule:evenodd;clip-rule:evenodd;fill:#54504A;" d="M43.2,16.75c0.233-0.467,0.583-0.783,1.05-0.95
			c0.267-0.1,0.7-0.15,1.3-0.15l1.3-0.4c1.2-0.267,1.7,0.934,1.5,3.6c-0.067,0.733-0.267,1.267-0.6,1.6
			c-0.233,0.233-0.55,0.367-0.95,0.4c-0.233,0-0.6-0.017-1.1-0.05c-1,0-1.65-0.05-1.95-0.15c-0.367-0.133-0.6-0.3-0.7-0.5
			c-0.1-0.167-0.15-0.483-0.15-0.95C42.9,17.934,43,17.117,43.2,16.75z M45.5,17.15c-0.567,0-0.883,0.1-0.95,0.3
			c-0.1,0.2-0.15,0.65-0.15,1.35v0.45l2.3,0.1l0.15-0.65c0.033-0.733,0.017-1.35-0.05-1.85l-0.85,0.25l-0.25,0.05H45.5z"/>
		<path style="fill-rule:evenodd;clip-rule:evenodd;fill:#54504A;" d="M54.6,14.95c-0.967,0-1.55-0.2-1.75-0.6
			c-0.1-0.233-0.1-0.733,0-1.5c0.2-1.333,1.083-2,2.65-2h1.3c0.767-0.067,1.317,0.25,1.649,0.95c0.301,0.7,0.234,1.367-0.199,2
			c-0.367,0.5-0.917,0.833-1.65,1C56.166,14.9,55.5,14.95,54.6,14.95z M55.5,12.35c-0.7,0-1.083,0.233-1.15,0.7l-0.05,0.4h0.65
			c1.133,0,1.817-0.184,2.05-0.55c0.1-0.133,0.117-0.3,0.05-0.5l-0.101-0.05H55.5z"/>
		<path style="fill-rule:evenodd;clip-rule:evenodd;fill:#54504A;" d="M65.699,21.8c0.168,0.567,0.15,1.134-0.049,1.7
			c-0.4,1.067-1.451,1.4-3.15,1c-1.566-0.333-2.1-1.183-1.6-2.55c0.333-0.934,1.217-1.4,2.649-1.4h1.149
			C65.199,20.85,65.533,21.267,65.699,21.8z M63.55,22.05c-0.7,0-1.116,0.134-1.25,0.4l-0.05,0.35c0.133,0.1,0.333,0.167,0.6,0.2
			c0.301,0.1,0.566,0.15,0.801,0.15c0.266,0,0.449-0.05,0.549-0.15c0.134-0.4,0.117-0.717-0.049-0.95H63.55z"/>
		<path style="fill-rule:evenodd;clip-rule:evenodd;fill:#54504A;" d="M73.6,23.9v-0.45l-0.25-0.2V23.2l-0.8,0.1H72.15
			c-0.5,0-0.783,0.017-0.851,0.05l-0.149,0.4c-0.033,0.3-0.018,0.483,0.049,0.55c0.067,0.134,0.317,0.267,0.75,0.4
			C72.65,24.9,73.133,25,73.4,25h0.1l0.05-0.05C73.65,24.75,73.666,24.4,73.6,23.9z M74.75,22.5c0.233,0.3,0.367,0.7,0.4,1.2
			c0,0.767-0.051,1.35-0.15,1.75c-0.267,0.667-0.767,1.017-1.5,1.05c-0.434,0-1.1-0.133-2-0.4c-1.434-0.433-2.033-1.3-1.801-2.6
			c0.134-0.8,0.484-1.3,1.051-1.5c0.3-0.133,0.883-0.2,1.75-0.2l1.449-0.2C74.35,22.033,74.617,22.333,74.75,22.5z"/>
		<path style="fill-rule:evenodd;clip-rule:evenodd;fill:#54504A;" d="M78.6,29.25c0.334-0.133,0.967-0.2,1.9-0.2l1.05-0.3
			c0.533-0.066,1.017,0.15,1.45,0.65c0.367,0.433,0.566,0.916,0.6,1.449l-0.05,1.75c-0.101,0.768-0.634,1.184-1.601,1.25
			c-0.5,0.034-1.332-0.05-2.5-0.25c-1.466-0.3-2.1-1.232-1.899-2.8C77.65,30.033,78,29.517,78.6,29.25z M81.75,30.25l-1.051,0.3
			H80.5c-0.801,0-1.25,0.033-1.35,0.101L79.05,31c-0.033,0.434,0,0.717,0.101,0.85c0.1,0.101,0.299,0.184,0.6,0.25l0.15,0.051
			c0.732,0.133,1.316,0.199,1.75,0.199h0.399L82.1,30.9C82.066,30.667,81.949,30.45,81.75,30.25z"/>
		<path style="fill-rule:evenodd;clip-rule:evenodd;fill:#54504A;" d="M91.449,26.3l-0.75-1.2c0.201,0.033,0.451,0.15,0.75,0.35
			c0.367,0.3,0.617,0.467,0.75,0.5c0.934,0.4,1.784,0.833,2.551,1.3c0.6,0.333,1.1,0.617,1.5,0.85c0.767,0.433,1.117,0.8,1.05,1.1
			c-0.233-0.033-0.517-0.184-0.851-0.45c-0.533-0.167-1.066-0.4-1.6-0.7c-0.199-0.1-0.482-0.183-0.85-0.25
			c-0.2-0.066-0.483-0.216-0.85-0.45l-1.301-0.8C91.617,26.383,91.483,26.3,91.449,26.3z"/>
		<path style="fill-rule:evenodd;clip-rule:evenodd;fill:#44403B;" d="M93.199,27.15c-0.266-0.167-0.6-0.433-1-0.8
			c-0.399-0.433-0.716-0.717-0.949-0.85l-1.9-1.15c1.233,0.3,2.584,0.817,4.051,1.55c0.766,0.4,1.649,0.983,2.649,1.75
			c0.333,0.2,0.601,0.367,0.8,0.5c0.4,0.267,0.584,0.467,0.551,0.6c-0.134,0.033-0.334,0-0.601-0.1
			c-0.134-0.066-0.316-0.15-0.55-0.25L95.4,28c-0.201-0.1-0.567-0.233-1.101-0.4C93.833,27.434,93.467,27.283,93.199,27.15z"/>
		<path style="fill-rule:evenodd;clip-rule:evenodd;fill:#44403B;" d="M108.3,26.4c1.134,1.434,1.884,2.333,2.25,2.7l1.149,1.15
			l-0.1,0.4c-1.6-1.434-3.916-3.601-6.949-6.5c-2.701-2.367-5.283-4.167-7.75-5.4L96.05,18.3c-8.2-3.733-15.667-6.433-22.399-8.1
			c-3.567-0.867-7.4-1.367-11.5-1.5C58.783,8.6,54.9,8.75,50.5,9.15c-2.267,0.233-5.767,0.5-10.5,0.8
			c-4.1,0.433-7.5,1.217-10.2,2.35c-0.733-0.167-1.283,0.05-1.65,0.65c-0.282,0.452-0.591,0.802-0.925,1.05
			c0.168-0.191,0.244-0.475,0.225-0.85V12.9l-0.1-0.85c-0.067-0.066-0.367-0.15-0.9-0.25l-0.9-0.2l-0.3-0.1
			c-0.4,0.467-0.633,1.1-0.7,1.9c0,0.133,0.05,0.25,0.15,0.35c0.267,0.333,0.817,0.5,1.65,0.5h0.3c0.075-0.009,0.141-0.025,0.2-0.05
			c-0.354,0.176-0.737,0.243-1.15,0.2c-1.633-0.233-2.617-0.316-2.95-0.25c-0.934,0.233-2.033,0.717-3.3,1.45
			c-0.733,0.4-1.783,1.017-3.15,1.85C11,20.55,6.983,24.133,4.25,28.2c-0.1,0.1-0.15,0.217-0.15,0.35l-0.85,1l-1,0.5
			C1.55,30.283,1.2,30.8,1.2,31.6l-0.3,0.25l0.35-2.1L7.2,23.8c0.7-0.767,1.217-1.3,1.55-1.6c0.467-0.434,1.167-0.983,2.1-1.65
			c0.333-0.233,1-0.9,2-2c0.667-0.733,1.667-1.366,3-1.9c2.966-1.367,5.367-2.433,7.2-3.2v-0.2c0.067-0.667,0.267-1.333,0.6-2
			c0.433-0.833,0.933-1.3,1.5-1.4l0.85,0.3c0.667,0.133,1.167,0.25,1.5,0.35c0.566,0.167,0.95,0.45,1.15,0.85l0.1,0.2l0.2-0.1
			c2.133-0.633,3.383-1,3.75-1.1c0.333-0.1,1.684-0.233,4.05-0.4c1.867-0.1,4.5-0.483,7.9-1.15c3.233-0.633,5.983-1,8.25-1.1
			c4.133-0.167,6.75-0.233,7.85-0.2c2.367,0.033,5,0.267,7.9,0.7c7.366,1.167,12.649,2.467,15.85,3.9c1.333,0.6,2.6,1.133,3.8,1.6
			c1.567,0.6,2.95,1.15,4.149,1.65c1.168,0.5,2.284,0.85,3.351,1.05c0.533,0.1,1.3,0.55,2.3,1.35c0.667,0.533,1.733,1.467,3.2,2.8
			c1.134,1.067,2.25,1.95,3.351,2.65C105.85,23.967,107.066,25.033,108.3,26.4z"/>
		<path style="fill-rule:evenodd;clip-rule:evenodd;fill:#44403B;" d="M54.85,17.45c-2.633-0.067-4.867-0.05-6.7,0.05
			c0.067-0.2,0.067-0.4,0-0.6c0.633-0.033,1.433,0,2.4,0.1c1.1,0.1,2.167,0.15,3.2,0.15c2.066-0.033,3.517-0.033,4.35,0
			c1.367,0,2.634,0.1,3.801,0.3l-0.101,0.2h-0.2C60.1,17.617,57.85,17.55,54.85,17.45z"/>
		<path style="fill-rule:evenodd;clip-rule:evenodd;fill:#44403B;" d="M37.6,20.9c0.167-0.267,0.2-0.583,0.1-0.95
			c-0.066-0.3-0.566-0.467-1.5-0.5l-0.35,0.25l-0.4,0.15c-0.133,0.033-0.3,0.183-0.5,0.45c-0.167,0.233-0.283,0.434-0.35,0.6
			l0.75,0.3L37,21.3C37.3,21.233,37.5,21.1,37.6,20.9z M44.25,17.4c-0.033,0.167-0.033,0.317,0,0.45
			c-1.1,0.133-2.217,0.333-3.35,0.6c-0.833,0.2-1.183,0.7-1.05,1.5l-0.6,0.15l0.05,0.2c-0.066,0.067-0.167,0.184-0.3,0.35
			c-0.133,0.233-0.333,0.45-0.6,0.65L38,21.55l-0.65,0.15L37,21.65c-1.067,0-2.067-0.183-3-0.55c-0.3-0.133-0.633-0.117-1,0.05
			c-0.3,0.133-0.533,0.367-0.7,0.7L31.85,22c-0.934,0.434-2.267,0.867-4,1.3c-2.034,0.5-3.4,0.867-4.1,1.1c-3.434,1.3-5.767,2.3-7,3
			c-5.167,3-8.7,6.25-10.6,9.75L4.85,38.1c-0.434,0.367-1.667,1.551-3.7,3.551c0.533-1.134,1.233-2.134,2.1-3
			c0.667-0.601,1.4-1.417,2.2-2.45c0.733-0.967,1.4-1.7,2-2.2c1.333-1.366,2.483-2.517,3.45-3.45c1.867-1.767,3.817-3.083,5.85-3.95
			c3.5-1.6,6.133-2.767,7.9-3.5c3.1-1.267,5.5-1.95,7.2-2.05l1.3-0.15c0.033-0.533,0.25-1.05,0.65-1.55
			c0.367-0.5,0.783-0.817,1.25-0.95l0.75-0.45c1.434,0,2.4,0.267,2.9,0.8c1.434-0.533,3.017-0.95,4.75-1.25L44.25,17.4z"/>
		<path style="fill-rule:evenodd;clip-rule:evenodd;fill:#44403B;" d="M62.15,23.2L61.8,23.15c-0.167-0.7-0.566-1.117-1.2-1.25
			l0.051-0.2L61,21.75c0.367-0.8,1.217-1.2,2.55-1.2h1.149c0.834,0.467,1.201,1.217,1.101,2.25l0.8,0.15c-0.199,0-0.4,0.05-0.6,0.15
			C64.934,23.667,63.65,23.7,62.15,23.2z M63.55,22.05c-0.7,0-1.116,0.134-1.25,0.4l-0.05,0.35c0.133,0.1,0.333,0.167,0.6,0.2
			c0.301,0.1,0.566,0.15,0.801,0.15c0.266,0,0.449-0.05,0.549-0.15c0.134-0.4,0.117-0.717-0.049-0.95H63.55z"/>
		<path style="fill-rule:evenodd;clip-rule:evenodd;fill:#44403B;" d="M81.6,21.2c2.233,0.566,3.917,1.05,5.051,1.45
			c1.033,0.4,2.816,1.333,5.35,2.8c0.5,0.733,0.733,1.316,0.699,1.75c-0.033-0.3-0.133-0.583-0.299-0.85
			c-0.101-0.267-0.301-0.5-0.601-0.7c-1.399-0.9-3.101-1.65-5.101-2.25c-0.633-0.2-2.449-0.667-5.449-1.4
			c-3.167-0.8-5.117-1.283-5.85-1.45c-2.201-0.466-4.184-0.716-5.951-0.75c-0.199-0.466-0.516-0.8-0.949-1
			c0.4,0.067,1.9,0.233,4.5,0.5c1.6,0.134,2.833,0.333,3.699,0.6C77.434,20.133,79.066,20.567,81.6,21.2z"/>
		<path style="fill-rule:evenodd;clip-rule:evenodd;fill:#44403B;" d="M39.3,22.95c0.233-0.067,1.684-0.434,4.35-1.1
			c6.4-0.6,8.633-0.55,6.7,0.15c-3.667,0.233-6.817,0.85-9.45,1.85h-0.05c-3.2,0.233-5.784,0.683-7.75,1.35h-0.25
			c-0.5,0-0.883,0.183-1.15,0.55l-0.95,0.5l-1.7,0.4c-3.566,0.867-7.2,2.734-10.9,5.6c-5.467,4.3-8.75,6.95-9.85,7.95
			c-0.267,0.233-1.467,1.717-3.6,4.45c-1.433,1.833-2.917,2.916-4.45,3.25L0.1,47.95L0,47.6C0.467,47.4,0.833,47.167,1.1,46.9
			c0.433-0.367,0.983-1.017,1.65-1.95c1.033-1.333,1.717-2.3,2.05-2.9c0.4-0.666,0.934-1.283,1.6-1.85
			c0.933-0.9,1.967-1.867,3.1-2.9c2.3-2.066,4.633-3.916,7-5.55c3.733-2.6,9.1-4.95,16.1-7.05c0.466-0.133,0.633-0.2,0.5-0.2
			L39.3,22.95z"/>
		<path style="fill-rule:evenodd;clip-rule:evenodd;fill:#44403B;" d="M44.3,19.25l1.4,0.05c0.1,0.067,0.2,0.067,0.3,0l0.15,0.05
			h0.4c-0.867,0.267-1.75,0.2-2.65-0.2c0.033-0.333,0.167-0.667,0.4-1V19.25z"/>
		<path style="fill-rule:evenodd;clip-rule:evenodd;fill:#44403B;" d="M48.55,17.1l0.05,0.6c-0.167,0.066-0.35,0.2-0.55,0.4
			l-0.15-0.7c-0.233-0.6-0.6-1-1.1-1.2c-0.5-0.233-1.033-0.217-1.6,0.05c-0.533,0.267-0.983,0.667-1.35,1.2
			c-0.1-0.133-0.233-0.2-0.4-0.2c-0.133,0-0.216,0.1-0.25,0.3c-0.066,0.4-0.1,1-0.1,1.8l0.1,0.25L43,19.65l-0.3-1.75l0.15-0.05
			c0-0.333,0.083-0.7,0.25-1.1c0.233-0.467,0.583-0.783,1.05-0.95c0.3-0.1,0.733-0.15,1.3-0.15l1.3-0.4
			c0.933-0.167,1.433,0.45,1.5,1.85H48.55z"/>
		<path style="fill-rule:evenodd;clip-rule:evenodd;fill:#44403B;" d="M78,29.7c0.333-0.434,1.166-0.65,2.5-0.65l1.05-0.3
			c0.533-0.066,1.017,0.15,1.45,0.65c0.367,0.433,0.566,0.916,0.6,1.449v0.601c1.867,0.434,3.25,0.767,4.15,1
			c1.633,0.434,2.934,0.95,3.9,1.55c0.266,0.167,1.149,0.833,2.649,2c1.033,0.7,1.783,1.267,2.25,1.7l1.101,1.149
			c1,1.101,1.616,1.817,1.85,2.15c0.533,0.733,1.3,1.6,2.3,2.6c1.333,1.268,2.149,2.084,2.45,2.45l1.15,1.3
			c0.533,0.334,0.916,0.584,1.149,0.75c0.233,0.2,0.866,0.851,1.899,1.95c0.867,0.867,1.4,1.483,1.601,1.851
			c-0.033,0.166-0.017,0.283,0.05,0.35c0.066,0.167,0.217,0.367,0.45,0.6c0.2,0.268,0.333,0.684,0.399,1.25l0.15,1.101
			c-0.434-0.467-1.783-2.101-4.05-4.9l-0.149-0.45l-0.851-0.8l-1.101-1.399c-0.366-0.4-0.75-0.551-1.149-0.45l-1.8-1.75
			c-0.6-0.667-1.167-1.217-1.7-1.65c-1.933-2.366-3.283-3.899-4.05-4.6c-2.967-2.667-6.917-4.833-11.85-6.5
			c-0.334-0.101-0.584-0.134-0.75-0.101H83.55c-0.167-0.1-0.351-0.133-0.55-0.1c-0.967,0.134-1.717,0.167-2.25,0.1
			c-0.834-0.1-1.5-0.399-2-0.899l-0.2-0.2c-0.101-0.2-0.25-0.35-0.45-0.45l-1.3-0.399c-0.3-0.5-0.717-0.767-1.25-0.801
			c-1.467-0.1-4.884-0.583-10.25-1.45c-4.2-0.7-7.634-1-10.3-0.9c-3,0.1-5.567,0.367-7.7,0.8l-4.7,0.8
			c-1.167,0.134-2.467,0.367-3.9,0.7l-2.1,0.5l-0.55,0.25c-0.867,0.3-2.2,0.851-4,1.65c-1.733,0.733-3.066,1.267-4,1.6
			c-1.433,0.5-2.733,1.233-3.9,2.2c-0.733,0.6-1.85,1.65-3.35,3.15c-3.1,0.933-6.017,2.233-8.75,3.899
			c-3.033,1.867-5.583,4.967-7.65,9.3l-0.3,0.4c-0.167,0.333-0.25,0.6-0.25,0.8v0.101c-0.633,0.467-1.383,0.816-2.25,1.05
			l-0.45,0.25c0.533-0.833,0.9-1.45,1.1-1.851c0.233-0.5,0.683-1.133,1.35-1.899c0.466-0.867,0.867-1.483,1.2-1.851
			c0.467-0.533,0.8-0.949,1-1.25c0.867-1.5,1.583-2.533,2.15-3.1c0.034-0.1,0.117-0.15,0.25-0.15l0.35-0.5
			c0.567-0.699,1.55-1.55,2.95-2.55l3.6-2.2c1.5-0.267,2.966-0.966,4.4-2.1c2.133-1.5,3.7-2.667,4.7-3.5
			c1.333-1.1,3.667-2.267,7-3.5c2.967-1.1,5.583-1.867,7.85-2.3c0.733-0.133,1.767-0.267,3.1-0.4c1.433-0.133,2.45-0.25,3.05-0.35
			c2.2-0.267,3.85-0.5,4.95-0.7c1.667-0.066,2.9-0.167,3.7-0.3c1.667-0.267,3.25-0.4,4.75-0.4c1.867,0,3.134,0.017,3.801,0.05
			c1.467,0.067,2.732,0.233,3.799,0.5l1.101,0.3c0.601,0,1.05,0.034,1.351,0.1c0.366,0.067,0.85,0.2,1.449,0.4
			c0.667,0.233,1.134,0.383,1.4,0.45L78,29.7z M81.949,29.85c-0.266-0.267-0.582-0.433-0.949-0.5c-0.334-0.166-0.7-0.183-1.1-0.05
			c-0.4,0.134-0.684,0.351-0.851,0.65c-0.3,0.467-0.3,0.967,0,1.5c0,0.333,0.2,0.55,0.601,0.649c0.299,0.167,0.699,0.25,1.199,0.25
			h1.2L82.1,31.7c0.167-0.267,0.25-0.55,0.25-0.851C82.35,30.483,82.217,30.15,81.949,29.85z"/>
		<path style="fill-rule:evenodd;clip-rule:evenodd;fill:#44403B;" d="M67.25,18.6c0.666,0.233,1.233,0.317,1.699,0.25l2.951,0.6
			c-1.234-0.033-3.033-0.233-5.4-0.6l-2.65-0.35c-0.666-0.1-1.699-0.3-3.1-0.6c-1.087-0.206-2.028-0.289-2.825-0.25
			c0.834-0.066,1.459-0.1,1.875-0.1h1.851c1,0,1.649,0.034,1.949,0.1c0.233,0.067,0.884,0.217,1.95,0.45
			C65.684,18.133,66.25,18.3,67.25,18.6z"/>
		<g>
			<g>
				<path style="fill-rule:evenodd;clip-rule:evenodd;fill:#54504A;" d="M58.4,13.55c7.733,1,11.716,1.534,11.949,1.6
					c4.767,0.733,8.801,1.717,12.101,2.95c3.733,1.4,6.566,2.533,8.5,3.4c2.899,1.3,5.383,2.7,7.45,4.2
					c-1.467-0.867-3.534-1.95-6.2-3.25c-3.934-1.9-7.05-3.167-9.351-3.8c-0.767-0.2-2.1-0.533-4-1c-0.366-0.1-1.05-0.35-2.05-0.75
					c-0.934-0.367-3.333-0.767-7.2-1.2c-5.267-0.6-8.783-1.05-10.55-1.35l-1.2-0.15l0.4-0.4C58.283,13.733,58.333,13.65,58.4,13.55z
					 M106.35,31.9h-0.25l-0.1,0.05c-0.1,0-0.384-0.217-0.85-0.65c-0.467-0.467-0.801-0.866-1-1.2c-0.067-0.1-0.45-0.416-1.15-0.949
					c-0.3-0.234-0.533-0.417-0.7-0.55v0.05c-0.166-0.133-0.316-0.267-0.45-0.4H101.7c-0.033-0.033-0.101-0.133-0.2-0.3
					c-0.156-0.13-0.306-0.255-0.45-0.375c0.121,0.096,0.237,0.188,0.351,0.275h0.05c-0.066-0.067-0.117-0.15-0.15-0.25
					c-0.133-0.233-0.217-0.4-0.25-0.5c-0.133-0.133-0.233-0.25-0.3-0.35c0.233,0.2,0.483,0.417,0.75,0.65
					c0.066,0.067,0.134,0.133,0.2,0.2c-0.101-0.067-0.184-0.133-0.25-0.2c0.1,0.167,0.233,0.317,0.399,0.45
					c0.101,0.033,0.2,0.066,0.301,0.1c0.166,0.167,0.333,0.316,0.5,0.45c0.333,0.267,0.616,0.483,0.85,0.65
					c0.533,0.334,1.116,0.884,1.75,1.65C105.684,31.233,106.05,31.634,106.35,31.9z M100.7,26.35
					c-0.033-0.033-0.066-0.05-0.101-0.05l0.051-0.05c0.066,0.067,0.166,0.167,0.3,0.3C100.85,26.483,100.767,26.417,100.7,26.35z
					 M103.45,28.75l-0.351-0.3l0.45,0.3H103.45z M106.25,31.6c-0.066-0.133-0.1-0.216-0.1-0.25l0.149,0.25H106.25z M105.2,30.3
					h-0.05c-0.134-0.166-0.534-0.583-1.2-1.25C104.517,29.417,104.934,29.833,105.2,30.3z"/>
				<path style="fill-rule:evenodd;clip-rule:evenodd;fill:#44403B;" d="M98.4,25.7c-2.067-1.5-4.551-2.9-7.45-4.2
					c-1.934-0.867-4.767-2-8.5-3.4c-3.3-1.233-7.334-2.217-12.101-2.95c-0.233-0.066-4.216-0.6-11.949-1.6
					c-0.167,0-0.317-0.017-0.45-0.05c-0.5-0.1-0.884,0.017-1.15,0.35c0.134-0.267,0.2-0.567,0.2-0.9V12.9
					c0.1-0.133,0.116-0.3,0.05-0.5l-0.1-0.05H56.8c-0.233-0.5-0.649-0.75-1.25-0.75c-0.6,0-1.033,0.25-1.3,0.75
					c-0.233,0.5-0.233,0.983,0,1.45c-1.133-0.2-1.967-0.316-2.5-0.35c-1.333-0.1-3.567,0.216-6.7,0.95l-0.4,0.2
					c-2.1,0-3.883,0.083-5.35,0.25c-0.267-0.067-0.483-0.083-0.65-0.05c-2.967,0.467-6.333,1.383-10.1,2.75
					c-0.4,0.167-1.767,0.867-4.1,2.1c-1.667,0.9-3.1,1.4-4.3,1.5c-0.433,0.033-0.8,0.233-1.1,0.6c-0.233,0.3-0.35,0.65-0.35,1.05
					c-0.267,0.467-0.45,0.883-0.55,1.25L17,23.95c-0.2-0.367-0.483-0.6-0.85-0.7c-0.4-0.133-0.783-0.083-1.15,0.15
					c-1.267,0.7-2.183,1.25-2.75,1.65c-0.933,0.7-1.667,1.467-2.2,2.3c-0.233,0.267-0.316,0.566-0.25,0.9
					c-0.466,1.434-1.417,2.1-2.85,2c-0.733-0.1-1.2,0.2-1.4,0.9c-0.2,0.233-0.9,1.149-2.1,2.75c-0.833,1.1-1.6,1.949-2.3,2.55V35.9
					C2.15,34.3,3.067,33,3.9,32c0.1-0.134,0.7-0.783,1.8-1.95V30c-0.267-0.434-0.3-0.967-0.1-1.6c0.033-0.2,0.167-0.417,0.4-0.65
					s0.383-0.417,0.45-0.55l0.4-0.6c0.633-0.3,1.4-0.233,2.3,0.2l2.05-1.75c0.733-0.566,1.816-1.283,3.25-2.15l0.05-0.95
					c0.067-0.6,0.467-1.184,1.2-1.75l1-0.45c0.733-0.033,1.267-0.033,1.6,0c0.6,0.067,1,0.3,1.2,0.7c0.967-0.4,1.983-0.7,3.05-0.9
					c1.7-0.367,3.2-0.917,4.5-1.65c2.434-1.4,3.667-2.117,3.7-2.15c1.3-0.633,3.517-1.15,6.65-1.55c0.233-0.034,2.333-0.233,6.3-0.6
					l9.2-0.85c0.167-1.267,1.033-1.9,2.6-1.9h1.3c0.566-0.033,1.033,0.15,1.4,0.55c0.333,0.4,0.467,0.883,0.399,1.45
					c0.601,0.033,2.217,0.2,4.851,0.5c7.2,0.833,12.283,1.717,15.25,2.65c2.166,0.7,3.684,1.217,4.55,1.55
					c1.2,0.434,2.75,1.1,4.65,2c2.733,1.2,4.767,2.117,6.1,2.75c2.267,1.1,4.184,2.184,5.75,3.25c0.9,0.633,1.884,1.4,2.95,2.3
					l0.149-0.2L103,27.5c-0.066,0.1-0.134,0.25-0.2,0.45c0.334,0.3,0.634,0.483,0.9,0.55c0.133,0.033,0.517,0.367,1.149,1
					c0.2,0.2,0.5,0.533,0.9,1c0.533,0.634,0.8,1.017,0.8,1.15L106.4,31.9h-0.051c-0.3-0.267-0.666-0.667-1.1-1.2
					c-0.634-0.767-1.217-1.316-1.75-1.65c-0.233-0.167-0.517-0.383-0.85-0.65c-0.167-0.133-0.334-0.283-0.5-0.45
					c-0.101-0.034-0.2-0.067-0.301-0.1c-0.166-0.133-0.3-0.283-0.399-0.45c0.066,0.067,0.149,0.133,0.25,0.2
					c-0.066-0.067-0.134-0.133-0.2-0.2c-0.267-0.233-0.517-0.45-0.75-0.65c0.066,0.1,0.167,0.217,0.3,0.35
					c0.033,0.1,0.117,0.267,0.25,0.5c0.033,0.1,0.084,0.183,0.15,0.25h-0.05c-0.113-0.087-0.229-0.179-0.351-0.275l-0.125-0.1
					c-0.166-0.133-0.342-0.275-0.524-0.425l-0.4-0.3c-0.267-0.2-0.517-0.383-0.75-0.55l-0.4-0.2C98.684,25.9,98.533,25.8,98.4,25.7z
					 M100.7,26.35c0.066,0.066,0.149,0.133,0.25,0.2c-0.134-0.133-0.233-0.233-0.3-0.3L100.6,26.3
					C100.634,26.3,100.667,26.317,100.7,26.35z M103.45,28.75h0.1l-0.45-0.3L103.45,28.75z M105.2,30.3
					c-0.267-0.467-0.684-0.883-1.25-1.25c0.666,0.667,1.066,1.084,1.2,1.25H105.2z M106.25,31.6h0.05l-0.149-0.25
					C106.15,31.384,106.184,31.467,106.25,31.6z M7,28.85v0.35l0.6,0.2l0.1,0.05l0.5,0.05l0.2-0.05c0.467-0.3,0.633-0.633,0.5-1
					c-0.066-0.1-0.2-0.2-0.4-0.3c-0.267-0.133-0.517-0.2-0.75-0.2L7.7,28c-0.167,0.3-0.367,0.567-0.6,0.8L7,28.85z M17.05,21.25
					L16.5,21.5c-0.3,0.267-0.467,0.467-0.5,0.6v0.2l-0.05,0.5l1.95,0.1l0.15-0.05c0.233-0.333,0.267-0.867,0.1-1.6H17.05z"/>
			</g>
		</g>
	</g>
	<path style="fill-rule:evenodd;clip-rule:evenodd;fill:#54504A;" d="M101.855,32.173l0.043,0.011l0.279-0.524
		c0.285-0.723,0.413-1.257,0.383-1.604l-1.004-0.038l-0.172-0.047c-0.402-0.107-0.697-0.094-0.887,0.04
		c-0.141,0.178-0.287,0.553-0.44,1.127l-0.115,0.431l1.58,0.469L101.855,32.173z M101.773,28.692l1.242,0.01
		c1.058,0.068,1.197,1.212,0.418,3.432c-0.227,0.616-0.521,1.029-0.885,1.239c-0.255,0.146-0.559,0.188-0.91,0.125
		c-0.395-0.137-0.705-0.235-0.936-0.297c-0.86-0.23-1.408-0.423-1.644-0.578c-0.256-0.191-0.418-0.39-0.487-0.592
		c-0.047-0.167-0.018-0.45,0.091-0.853c0.276-1.032,0.551-1.712,0.822-2.039c0.316-0.376,0.694-0.583,1.135-0.618
		C100.901,28.504,101.286,28.561,101.773,28.692z"/>
	<path style="fill-rule:evenodd;clip-rule:evenodd;fill:#54504A;" d="M91.35,30.8c-0.366,0.167-0.55,0.517-0.55,1.05L90.75,32.2
		l0.5,0.1c0.967,0,1.566-0.217,1.8-0.649c0.101-0.167,0.117-0.351,0.05-0.551L93,31.05C92.7,30.517,92.15,30.434,91.35,30.8z
		 M91.75,29.3h1.1c0.667-0.033,1.15,0.351,1.45,1.15c0.267,0.733,0.217,1.45-0.149,2.149c-0.334,0.601-0.817,1-1.45,1.2
		c-0.4,0.101-0.983,0.15-1.75,0.15c-0.8,0-1.3-0.217-1.5-0.65c-0.066-0.2-0.066-0.767,0-1.7C89.583,30.167,90.35,29.4,91.75,29.3z"
		/>
	<path style="fill-rule:evenodd;clip-rule:evenodd;fill:#44403B;" d="M99.65,31.75c0.121-0.33,0.279-0.621,0.475-0.875
		c-0.021,0.084-0.046,0.175-0.075,0.275l-0.1,0.399l1.6,0.45l0.351,0.15v0.05l0.3-0.55c0.168-0.393,0.276-0.734,0.325-1.025
		c0.11,0.125,0.219,0.267,0.324,0.425c0,0.233-0.083,0.483-0.25,0.75c0,0.233-0.017,0.384-0.05,0.45c-0.066,0.134-0.55,0.2-1.45,0.2
		c-0.166,0-0.433-0.084-0.8-0.25C99.967,32,99.75,31.85,99.65,31.75z M99.95,29.6c-0.334,0.267-0.533,0.517-0.601,0.75
		c-0.267,0.467-0.466,0.75-0.6,0.851c-0.038,0.013-0.071,0.021-0.1,0.024V31.2c0.3-1.033,0.583-1.733,0.85-2.101
		c0.3-0.366,0.667-0.566,1.1-0.6c0.301,0,0.7,0.067,1.2,0.2h1.2c0.814,0.076,1.098,0.768,0.85,2.075
		c-0.038-0.378-0.155-0.637-0.35-0.775c-0.233-0.2-0.467-0.384-0.7-0.55c-0.399-0.3-0.733-0.45-1-0.45
		C101.066,29,100.45,29.2,99.95,29.6z"/>
	<path style="fill-rule:evenodd;clip-rule:evenodd;fill:#44403B;" d="M94.3,30.45c0.267,0.733,0.217,1.45-0.149,2.149
		c-0.307,0.552-0.74,0.936-1.301,1.15c0.4-0.167,0.667-0.417,0.801-0.75c0.033-0.167,0.05-0.467,0.05-0.9
		c-0.101-1.433-0.65-2.149-1.65-2.149c-1.066,0-1.85,0.45-2.35,1.35c-0.105,0.179-0.197,0.354-0.275,0.525
		c0.011-0.07,0.02-0.146,0.025-0.226c0.133-1.433,0.899-2.199,2.3-2.3h1.1C93.517,29.267,94,29.65,94.3,30.45z M91.25,32.3
		c0.639,0,1.113-0.092,1.425-0.274c0.017,0.038,0.025,0.08,0.025,0.125c0.233,0.566-0.167,0.85-1.2,0.85
		c-0.434,0-0.717-0.184-0.85-0.55c-0.067-0.167-0.101-0.384-0.101-0.65c0-0.084,0.092-0.192,0.275-0.325
		c-0.017,0.113-0.025,0.238-0.025,0.375L90.75,32.2L91.25,32.3z"/>
</g>
<g>
	<image style="overflow:visible;" width="65" height="53" xlink:href="3B4DE181.png"  transform="matrix(1 0 0 1 -10 -6)">
	</image>
	<g>
		
			<use xlink:href="#notes1"  width="33.834" height="21.144" x="0.021" y="-21.144" transform="matrix(1 0 0 -1 5.3501 9.9502)" style="overflow:visible;"/>
	</g>
</g>
<g>
	<image style="overflow:visible;" width="54" height="45" xlink:href="3B4DE183.png"  transform="matrix(1 0 0 1 27 -5)">
	</image>
	<g>
		
			<use xlink:href="#notes2"  width="22.914" height="13.828" x="0" y="-13.825" transform="matrix(1 0 0 -1 42.8999 10.7002)" style="overflow:visible;"/>
	</g>
</g>
<use xlink:href="#Symbol_2"  width="31.717" height="47.552" x="-0.017" y="-47.55" transform="matrix(1 0 0 -0.8042 38.5 0)" style="overflow:visible;"/>
</svg>
