<?xml version="1.0" encoding="iso-8859-1"?>
<!-- Generator: Adobe Illustrator 16.0.0, SVG Export Plug-In . SVG Version: 6.00 Build 0)  -->
<!DOCTYPE svg PUBLIC "-//W3C//DTD SVG 1.1//EN" "http://www.w3.org/Graphics/SVG/1.1/DTD/svg11.dtd">
<svg version="1.1" id="FlashAICB" xmlns="http://www.w3.org/2000/svg" xmlns:xlink="http://www.w3.org/1999/xlink" x="0px" y="0px"
	 width="82px" height="113.35px" viewBox="0 0 82 113.35" style="enable-background:new 0 0 82 113.35;" xml:space="preserve">
<g>
	<path style="fill-rule:evenodd;clip-rule:evenodd;fill:#B4A89D;" d="M22.35,76.3c0.4-0.366,0.966-0.967,1.7-1.8
		c1.5-1.5,2.55-2.483,3.15-2.95c0.733-0.566,1.883-1.3,3.45-2.2c1.6-0.933,2.767-1.666,3.5-2.199
		c-0.133,1.199-0.783,2.416-1.95,3.649c-1.367,1.334-2.317,2.334-2.85,3c-1.267,1.533-2.05,2.7-2.35,3.5
		c-0.133,0.367-0.383,1.067-0.75,2.101c-0.3,0.899-0.567,1.616-0.8,2.149c-0.6,1.267-1.534,2.084-2.8,2.45c-0.7,0.2-2,0.3-3.9,0.3
		c-0.934-0.1-1.6-0.116-2-0.05c-0.233,0.066-0.533,0.217-0.9,0.45c-0.4,0.267-0.7,0.434-0.9,0.5c-1.167,0.6-1.983,1.033-2.45,1.3
		c-0.233,0.134-0.617,0.267-1.15,0.4c-0.5,0.1-0.867,0.233-1.1,0.399l10-9.75C20.917,77.417,21.617,77,22.35,76.3z"/>
	<path style="fill-rule:evenodd;clip-rule:evenodd;fill:#B4A89D;" d="M17.95,39.7c1.366,1.3,2.233,2.25,2.6,2.85
		c0.633,1.034,1.684,2.517,3.15,4.45c0.233,0.333,0.533,0.9,0.9,1.7c0.3,0.7,0.6,1.233,0.9,1.6c1.233,1.634,2.333,3.35,3.3,5.15
		c0.367,0.7,1.184,1.967,2.45,3.8c0.733,1.033,1.233,1.934,1.5,2.7c0.333,1,0.4,2.017,0.2,3.05c-0.233-0.133-0.35-0.316-0.35-0.55
		c-0.034-0.434-0.05-0.667-0.05-0.7c-0.066-0.2-0.217-0.417-0.45-0.65c-0.233-0.267-0.417-0.482-0.55-0.649
		c-0.333-0.434-1.117-1.233-2.35-2.4c-0.4-0.566-0.717-1-0.95-1.3c-0.6-0.467-1.017-0.866-1.25-1.2
		c-0.434-0.833-0.783-1.483-1.05-1.95c-0.467-0.767-1.017-1.117-1.65-1.05c0,0.8-0.1,2.034-0.3,3.7c-0.133-1.2-0.25-2.1-0.35-2.7
		c-0.133-1.066-0.333-1.95-0.6-2.65c-0.1,0.8-0.167,1.25-0.2,1.35c-0.267-1.4-0.767-2.65-1.5-3.75c-0.2-0.3-0.55-0.683-1.05-1.15
		s-0.833-0.833-1-1.1c-0.467-0.667-0.867-1.533-1.2-2.6c-0.4-1.233-0.434-2.1-0.1-2.6l-4-7.75c0.3,0.233,0.65,0.634,1.05,1.2
		c0.434,0.6,0.767,1.017,1,1.25C16.55,38.15,17.183,38.8,17.95,39.7z"/>
	<path style="fill-rule:evenodd;clip-rule:evenodd;fill:#B4A89D;" d="M40.75,39.7c0.333,1.533,0.517,2.85,0.55,3.95
		c0.033,2.9,0.101,7.25,0.2,13.05c0,0.633,0.017,1.583,0.05,2.85c-0.033,1.134-0.184,2.05-0.45,2.75
		c-0.366,0.867-0.833,1.601-1.399,2.2c-0.7,0.8-1.417,1.134-2.15,1c-0.033-0.233-0.05-1.3-0.05-3.2l2.25-26.5
		C40.316,37.867,40.65,39.167,40.75,39.7z"/>
	<path style="fill-rule:evenodd;clip-rule:evenodd;fill:#B4A89D;" d="M60.2,12.3c0.133,0.4,0.2,0.934,0.2,1.6
		c0,0.733-0.084,1.267-0.25,1.6c-0.034,0-0.25-0.25-0.65-0.75c-0.3-0.333-0.684-0.233-1.15,0.3c-0.3,0.333-0.416,0.9-0.35,1.7
		c0.066,0.867,0.017,1.45-0.15,1.75c-0.267-0.767-0.55-2.167-0.85-4.2c-1.467,0.333-2.533,0.684-3.2,1.05
		c-1.667,0.9-3.917,1.383-6.75,1.45c-1.6,0-2.7-0.25-3.3-0.75c-0.167-0.133-0.483-0.533-0.95-1.2c-0.333-0.467-0.75-0.733-1.25-0.8
		c-0.366-0.066-0.983-0.1-1.85-0.1c-0.767,0-1.384-0.05-1.85-0.15c-0.367-0.1-0.817-0.283-1.35-0.55
		c-0.6-0.333-1.017-0.55-1.25-0.65c-0.4-0.133-0.667-0.233-0.8-0.3c-0.233-0.1-0.467-0.283-0.7-0.55
		c-0.233-0.566-0.483-0.967-0.75-1.2l-0.5-0.2c-0.267-0.533-0.483-0.9-0.65-1.1c-0.133-0.133-0.4-0.25-0.8-0.35
		c-0.467-0.066-0.8-0.133-1-0.2c-1.066-0.233-2.316-0.283-3.75-0.15c-0.066,0.667-0.15,1.684-0.25,3.05
		c-0.033,0.533-0.017,1.65,0.05,3.35c0.1,1.433,0.05,2.55-0.15,3.35c-0.233-0.3-0.333-0.917-0.3-1.85c0.067-1,0.1-1.667,0.1-2
		c0-2.1-0.067-3.434-0.2-4c-0.233-0.9-0.483-1.117-0.75-0.65c-0.3,0.767-0.533,1.25-0.7,1.45c-0.2-0.933-0.467-1.6-0.8-2
		c-0.5,0.1-0.95,0.517-1.35,1.25c-0.333,0.533-0.583,1.117-0.75,1.75c-0.267,1.434-0.917,2.7-1.95,3.8
		c-1,1.134-1.767,2.317-2.3,3.55c-0.167,0.433-0.3,1.05-0.4,1.85c-0.167,0.6-0.583,0.967-1.25,1.1c-0.1,0.567-0.417,1.367-0.95,2.4
		c-0.233-0.233-0.4-0.7-0.5-1.4c-0.067-0.767-0.184-1.267-0.35-1.5c-0.3-0.533-0.75-0.8-1.35-0.8c-0.567,0-1.1,0.233-1.6,0.7
		C10.15,21.35,9.3,21.3,8,21.8c-0.833,0.367-1.25,1.284-1.25,2.75c0,0.333,0.066,0.983,0.2,1.95c0.066,0.867,0.017,1.467-0.15,1.8
		c-0.167,0.333-0.35,0.467-0.55,0.4c-0.367-0.133-0.6-0.2-0.7-0.2c-0.367,0.067-0.6,0.217-0.7,0.45
		c-0.167,0.433-0.284,0.683-0.35,0.75c-0.233-0.167-0.317-0.467-0.25-0.9c-0.967-0.133-1.684-0.216-2.15-0.25
		c-1,0.134-1.7,0.05-2.1-0.25l3-3.5c-0.367-0.3-0.4-1.233-0.1-2.8c0.333-1.533,0.7-2.45,1.1-2.75c0.5-0.333,1.45-0.45,2.85-0.35
		C8.583,19,9.566,19.033,9.8,19c1.3-0.167,2.367-0.517,3.2-1.05c0.9-0.567,1.683-1.517,2.35-2.85c0.367-0.733,0.933-1.85,1.7-3.35
		c0.833-1.267,2.067-2.367,3.7-3.3c0.933-0.533,2.417-1.317,4.45-2.35c1.2-0.7,2.966-0.9,5.3-0.6c0.967,0.167,2.367,0.767,4.2,1.8
		c1.033,0.4,2.483,1.05,4.35,1.95c1.267,0.5,2.833,1.033,4.7,1.6c1.066,0.333,2.65,0.8,4.75,1.4c0.533,0.167,1.116,0.267,1.75,0.3
		h1.85c0.533,0,1.884-0.083,4.051-0.25C57.85,12.2,59.2,12.2,60.2,12.3z"/>
	<path style="fill-rule:evenodd;clip-rule:evenodd;fill:#B4A89D;" d="M63.8,18.65c-0.1-0.533-0.184-0.9-0.25-1.1
		c-0.267-0.6-0.733-1.133-1.399-1.6c-0.834-0.5-1.467-0.883-1.9-1.15l7.25-0.5c0.366,0.534,0.616,2.067,0.75,4.6
		c0.133,2.034,0.783,3.233,1.95,3.6c3.3,1,5.916,2.75,7.85,5.25c0.2,0.267,0.5,0.65,0.9,1.15c0.333,0.434,0.533,0.867,0.6,1.3
		c0.033,0.2,0.05,0.65,0.05,1.35c0.033,0.534,0.084,0.967,0.15,1.3c0.333,1.4,0.483,2.3,0.45,2.7c-0.101,0.9-0.733,1.317-1.9,1.25
		c-0.029,0.239-0.046,1.223-0.05,2.95c-0.011-0.12-0.027-0.253-0.05-0.4c-0.101-0.633-0.15-0.983-0.15-1.05
		c-0.033-0.866-0.066-1.533-0.1-2c-0.067-0.833-0.283-1.433-0.65-1.8c-0.2,0.267-0.333,0.684-0.399,1.25
		c-0.034,0.333-0.084,0.783-0.15,1.35v-5.8c0-1-0.066-1.616-0.2-1.85c-0.333-0.667-0.684-1.017-1.05-1.05
		c-0.267,0-0.684,0.184-1.25,0.55c-0.367-0.533-0.95-0.983-1.75-1.35c-0.733-0.3-1.483-0.483-2.25-0.55
		c-0.867-0.066-1.517-0.05-1.95,0.05c-0.533,0.167-0.934,0.3-1.2,0.4c-0.5,0.167-0.933,0.184-1.3,0.05
		c-0.399-0.133-0.616-0.216-0.649-0.25c-0.067-0.1-0.117-0.4-0.15-0.9v-3.25c0.033-0.7,0.05-1.25,0.05-1.65
		c0-0.667-0.066-1.183-0.2-1.55c-0.033-0.133-0.199-0.333-0.5-0.6C64.05,19.05,63.866,18.817,63.8,18.65z"/>
	<path style="fill-rule:evenodd;clip-rule:evenodd;fill:#B4A89D;" d="M63.5,36.05c0.133-0.1,0.417-0.417,0.85-0.95
		c0.367-0.367,0.667-0.633,0.9-0.8c0.167,0.5-0.134,1.2-0.9,2.1c-1.066,1.167-1.616,1.784-1.649,1.85
		c-0.334,0.7-0.584,1.783-0.75,3.25c-0.167,1.533-0.4,2.617-0.7,3.25c0.033-0.267,0-0.6-0.1-1l-0.2-0.95
		c-1.033,0.934-1.783,1.667-2.25,2.2c-0.367,0.467-0.817,1.184-1.351,2.15c-0.566,1.034-0.983,1.75-1.25,2.15
		c-0.866,1.1-1.733,2.034-2.6,2.8c-0.6,0.933-1.083,1.65-1.45,2.15c-0.667,0.967-1.333,1.233-2,0.8c0,0.733-0.35,1.217-1.05,1.45
		c-0.267-0.3-0.517-0.433-0.75-0.4l-0.5,0.75c-0.467,0.4-0.917,0.883-1.35,1.45c-0.467,0.667-0.867,1.2-1.2,1.601
		c-0.667,0.8-1.317,1.183-1.95,1.149L63.5,36.05z"/>
	<path style="fill-rule:evenodd;clip-rule:evenodd;fill:#B4A89D;" d="M39,92.55c0.8-0.233,1.717,0.184,2.75,1.25
		c0.233,0.267,0.9,1.117,2,2.55c0.066,0.101,0.934,0.851,2.6,2.25c0.967,0.834,1.351,1.801,1.15,2.9
		c-0.667,0.134-1.384-0.017-2.15-0.45c-0.8-0.566-1.416-0.967-1.85-1.2c-1.3-0.699-2.333-1.433-3.1-2.199
		c-0.833-1.267-1.433-1.967-1.8-2.101c-0.133,0.2-0.4,0.584-0.8,1.15c-0.3,0.434-0.533,0.816-0.7,1.149
		c-0.434,1.034-0.784,1.784-1.05,2.25c-0.133,0.2-0.683,0.817-1.65,1.851c-0.733,0.733-1.117,1.417-1.15,2.05
		c-0.3,0.134-0.617-0.066-0.95-0.6c-0.333-0.533-0.75-0.717-1.25-0.551c-0.433,0.134-0.667,0.434-0.7,0.9
		c-0.067,0.634-0.167,1.033-0.3,1.2c-0.233-3.2-1.233-4.867-3-5c0.133-0.967-0.75-1.45-2.65-1.45c-2.1,0.2-3.317,0.3-3.65,0.3
		l6.25-2c-0.033,0.467,0.333,0.767,1.1,0.9c0.433,0.033,1.017,0.066,1.75,0.1c1.033,0.167,1.75,0.267,2.15,0.3
		c0.767,0,1.417-0.166,1.95-0.5c0.4-0.267,0.833-0.666,1.3-1.199c0.267-0.301,0.667-0.767,1.2-1.4c0.233-0.2,0.616-0.65,1.15-1.35
		C38.133,93.017,38.6,92.65,39,92.55z"/>
	<path style="fill-rule:evenodd;clip-rule:evenodd;fill:#B4A89D;" d="M17.3,55.8c0.467,0.4,1.117,1.034,1.95,1.9
		c0.7,0.633,1.767,1.25,3.2,1.85c0.2,0.067,0.6,0.184,1.2,0.351c0.567,0.199,0.883,0.449,0.95,0.75c-0.367-0.167-1.034-0.317-2-0.45
		c-0.9-0.167-1.567-0.351-2-0.55c-0.233-0.101-0.517-0.301-0.85-0.601c-0.367-0.333-0.633-0.55-0.8-0.649
		c-0.367-0.067-0.65-0.184-0.85-0.351l-0.45-0.55c-0.2-0.2-0.767-0.733-1.7-1.6c-0.267-0.2-0.6-0.333-1-0.4
		c-0.6-0.033-0.934-0.066-1-0.1c-0.5-0.167-0.934-0.733-1.3-1.7c-0.433-1-0.833-1.617-1.2-1.85l3.5,2
		C15.383,54.35,16.167,55,17.3,55.8z"/>
	<path style="fill-rule:evenodd;clip-rule:evenodd;fill:#B4A89D;" d="M58.9,78.9c0.5,0.399,1.083,0.967,1.75,1.699
		c0.333,0.434,0.85,1.067,1.55,1.9l3.25,3.9c0.166,0.233,0.517,0.6,1.05,1.1c0.4,0.5,0.533,0.95,0.4,1.35
		c-0.134-0.066-0.317-0.232-0.551-0.5c-0.267-0.3-0.467-0.5-0.6-0.6c-0.233-0.167-0.55-0.3-0.95-0.4
		c-1.267-0.433-2.116-0.767-2.55-1c-0.967-0.732-1.684-1.232-2.15-1.5c-0.3-0.166-0.717-0.316-1.25-0.449
		c-0.666-0.167-1.083-0.283-1.25-0.351c-0.467-0.133-0.8-0.233-1-0.3c-0.366-0.133-0.683-0.316-0.949-0.55L54.8,82.5
		c-0.967-0.8-1.95-1.9-2.95-3.3c-1.1-1.667-1.916-2.9-2.449-3.7c-1.034-1.366-1.784-2.417-2.25-3.15
		c-0.801-1.066-1.4-1.916-1.801-2.55c-0.733-1.1-1.033-2.017-0.899-2.75L52.1,72.7c0.467,0.467,1.101,1.167,1.9,2.1
		c0.767,0.8,1.467,1.45,2.1,1.95L58.9,78.9z"/>
</g>
<g>
	<path style="fill-rule:evenodd;clip-rule:evenodd;fill:#5C514B;" d="M60,13.15c-4.733,0.833-7.9,1.5-9.5,2l-5.75,1.5
		c-5-4.5-7.917-7.033-8.75-7.6l-1.25-0.9l-10.6-0.1c-2.667,5.167-4.717,8.5-6.15,10c-0.867,0.934-1.55,1.8-2.05,2.6l-0.45,0.9
		c-2.567-0.433-4.4-0.683-5.5-0.75l-2.75-0.15L6.5,22c-0.5,1-0.75,1.85-0.75,2.55c0,1.067,0.083,2.233,0.25,3.5
		c-1.833,0.333-3.167,0.534-4,0.6L0.75,28.8C0.183,28.7-0.067,28.2,0,27.3c0.933-2.667,1.483-4.917,1.65-6.75l0.5-4.4l7.5,0.65h2.75
		c0.833-1.9,1.717-3.866,2.65-5.9c1.867-4.033,3.067-6.367,3.6-7l1.25-1.5l13.75,0.4c2.233,0,5.183,0.45,8.85,1.35
		c1.066,3.833,1.667,5.784,1.8,5.85c0.101,0.1,0.283,0.434,0.55,1L49,10.65c3.033-0.3,5.25-0.55,6.65-0.75
		c2.232-0.333,4.649-0.75,7.25-1.25l4.35,5.15c2.167,2.567,3.8,4.317,4.9,5.25L70.4,21.9l2.399,0.85c1.7,0.6,2.9,0.95,3.601,1.05
		l2.75,0.5l1.25,2.75c0.833,2,1.25,3.367,1.25,4.1l0.1,4L77.9,35.9c0.333-2.4,0.283-4.183-0.15-5.35c-0.3-0.9-0.867-1.7-1.7-2.4
		c-0.899-0.767-1.95-1.267-3.149-1.5c-1.034-0.2-2.5-0.383-4.4-0.55L66,25.9l0.15-5.5L66,18.3c-2.233-1.833-3.517-2.917-3.85-3.25
		L60,13.15z"/>
	<path style="fill-rule:evenodd;clip-rule:evenodd;fill:#5C514B;" d="M21.9,43.25c2.2,4.033,6.05,10.7,11.55,20
		c-0.667-0.5-1.684-1.467-3.05-2.9c-2.7-2.899-5.717-6.683-9.05-11.35L6.6,28.45c2.6,0.167,5.45,1.917,8.55,5.25
		C17.65,36.367,19.9,39.55,21.9,43.25z"/>
	<path style="fill-rule:evenodd;clip-rule:evenodd;fill:#5C514B;" d="M71.1,28.4C66.267,34.434,61.033,41.067,55.4,48.3
		c-3.534,4.534-6.7,8.184-9.5,10.95l-3.2,2.8l4.85-7.55c3.566-5.533,6.083-9.533,7.55-12c2.2-3.6,4.601-6.667,7.2-9.2
		C65.533,30.1,68.467,28.467,71.1,28.4z"/>
	<path style="fill-rule:evenodd;clip-rule:evenodd;fill:#5C514B;" d="M38.25,24.65c0.433-2.5,0.9-4.2,1.4-5.1
		c0.233-0.466,0.433-0.683,0.6-0.65l0.3,13.95c0.2,9.733,0.267,15.633,0.2,17.7c-0.067,3.333,0.017,6.584,0.25,9.75
		c-0.233,0.567-0.567,1.101-1,1.601l-1.85,2.149c-0.2-0.533-0.4-1.5-0.6-2.899c-0.4-2.767-0.617-6.267-0.65-10.5
		c-0.067-4.2,0.133-9.8,0.6-16.8L38.25,24.65z"/>
	<path style="fill-rule:evenodd;clip-rule:evenodd;fill:#5C514B;" d="M23.4,58.9l1.25,1.5c-0.5-0.233-1.167-0.434-2-0.601
		c-0.433-0.1-1.433-0.616-3-1.55c-1.833-1.1-3.083-1.8-3.75-2.1c-1.067-0.466-1.783-0.833-2.15-1.1c-0.3-0.2-0.633-0.5-1-0.9
		c-0.233-0.3-0.467-0.833-0.7-1.6l-0.3-1l3.05,1.35c0.633,0.3,1.283,0.717,1.95,1.25C17.85,54.983,20.066,56.567,23.4,58.9z"/>
	<path style="fill-rule:evenodd;clip-rule:evenodd;fill:#5C514B;" d="M59.9,56.9c-0.667,0.3-1.917,1-3.75,2.1
		c-1.567,0.934-2.567,1.45-3,1.55l-2,0.601l1.25-1.5L59,54.9c1.1-0.833,2.017-1.367,2.75-1.6l2.25-1c-0.233,1.233-0.566,2.1-1,2.6
		c-0.333,0.4-0.65,0.7-0.95,0.9C61.684,56.067,60.967,56.434,59.9,56.9z"/>
	<path style="fill-rule:evenodd;clip-rule:evenodd;fill:#5C514B;" d="M32.7,67.05c0.533-0.3,1.466-0.649,2.8-1.05l-3.1,3.65
		c-4.067,5.199-7.7,9.083-10.9,11.649c-2,1.634-4.517,3.084-7.55,4.351L10,87.05L10.85,86c0.933-1.1,2.3-2.616,4.1-4.55
		C17.783,78.384,23.7,73.583,32.7,67.05z"/>
	<path style="fill-rule:evenodd;clip-rule:evenodd;fill:#5C514B;" d="M62.55,86.15c-2.934-1.434-5.366-3.017-7.3-4.75
		c-1.967-1.767-4.217-4.267-6.75-7.5c-2-2.601-3.15-4.2-3.45-4.801c-0.1-0.232-0.616-0.933-1.55-2.1l-1.35-1.7l1.1,0.4
		c0.8,0.333,1.35,0.6,1.65,0.8l6.949,5.9c4.967,4.3,8.283,7.467,9.95,9.5C64.467,85.134,66,87.1,66.4,87.8
		C65.3,87.434,64.017,86.884,62.55,86.15z"/>
	<path style="fill-rule:evenodd;clip-rule:evenodd;fill:#5C514B;" d="M39,88.7c0.9,1.566,1.833,2.85,2.8,3.85
		c1.667,1.767,2.833,3.184,3.5,4.25c2.934-2.233,4.517-3.483,4.75-3.75c0.267-0.233,0.733-0.566,1.4-1l4.25,4.5l1.85,2.4l-5-2.65
		l-0.35-0.25c-1.8,2.167-2.95,3.351-3.45,3.55l-1.9,1.25c-3-2.1-4.833-3.482-5.5-4.149L39,94.05l-3.8,5.05
		c-0.4,0.5-1.25,1.167-2.55,2l-1.8,1.101c-0.6-0.5-1.317-1.283-2.15-2.351l-1.7-2.3c-2.267,0.2-3.617,0.45-4.05,0.75
		c-0.3,0.167-0.917,0.417-1.85,0.75l-1.3,0.4c3.833-3.5,5.967-5.5,6.4-6l0.6-0.75l1.55,2.149c1.066,1.5,1.716,2.317,1.95,2.45
		l1.15,0.65c4.233-7,6.4-10.634,6.5-10.9C37.95,86.983,38.3,87.533,39,88.7z"/>
	<g>
		<path style="fill-rule:evenodd;clip-rule:evenodd;fill:#4D443E;" d="M2.5,20.8c0.167-0.5,0.283-1.116,0.35-1.85
			c0.133-1.167,0.2-1.8,0.2-1.9c0.733,0.034,1.833,0.284,3.3,0.75c-0.167,0.233-0.217,0.717-0.15,1.45
			c-0.333,0-0.567,0.017-0.7,0.05c-0.167,0.067-0.333,0.233-0.5,0.5l-0.15,0.4c-0.5-0.067-0.95,0-1.35,0.2
			c-0.4,0.233-0.65,0.6-0.75,1.1c-0.167,0.934-0.167,1.717,0,2.35C2.816,24.117,3,24.434,3.3,24.8c0.3,0.367,0.65,0.667,1.05,0.9
			c0,0.367-0.034,0.65-0.1,0.85C4.217,26.783,4.167,27,4.1,27.2c-0.034,0.133-0.233,0.25-0.6,0.35c-0.067,0.034-0.833,0-2.3-0.1
			c0.233-0.767,0.4-1.35,0.5-1.75C1.9,25,2,24.367,2,23.8C2.033,22.9,2.2,21.9,2.5,20.8z"/>
		<polygon style="fill-rule:evenodd;clip-rule:evenodd;fill:#4D443E;" points="14.25,16.9 14.25,17.55 13.95,17.4 		"/>
		<path style="fill-rule:evenodd;clip-rule:evenodd;fill:#4D443E;" d="M72.95,23.85l2.55,0.9L76.05,25l0.2,2.4
			c-0.467-0.7-0.983-1.216-1.55-1.55c-0.634-0.367-1.184-0.633-1.65-0.8L72.95,23.85z"/>
		<path style="fill-rule:evenodd;clip-rule:evenodd;fill:#4D443E;" d="M70.65,23.25c0.1,0.033,0.416,0.133,0.949,0.3l-0.25,1
			l-0.6-0.1L70.65,23.25z"/>
		<path style="fill-rule:evenodd;clip-rule:evenodd;fill:#4D443E;" d="M47.4,14.6l0.149-2.85c1.601,0.167,3.117,0.2,4.55,0.1
			l-0.05,1.95c-0.6,0.034-1.383,0.15-2.35,0.35C48.566,14.383,47.8,14.533,47.4,14.6z"/>
		<path style="fill-rule:evenodd;clip-rule:evenodd;fill:#4D443E;" d="M27.1,6.3l-1.8-0.05l0.1-2.5l0.35,0.05l2.2,0.05
			C27.783,4.583,27.5,5.4,27.1,6.3z"/>
		<path style="fill-rule:evenodd;clip-rule:evenodd;fill:#4D443E;" d="M19.95,4.45c0.433-0.2,1.233-0.35,2.4-0.45
			c0,1.467-0.05,2.917-0.15,4.35c-0.6,0.533-0.983,0.9-1.15,1.1l-0.4,0.45c-0.367-1.8-0.667-3.566-0.9-5.3L19.95,4.45z"/>
		<path style="fill-rule:evenodd;clip-rule:evenodd;fill:#4D443E;" d="M18.2,6.7l0.85-1.3l-0.1,6.25l-0.45,0.5
			C18.4,9.184,18.3,7.367,18.2,6.7z"/>
		<path style="fill-rule:evenodd;clip-rule:evenodd;fill:#4D443E;" d="M16.6,15.1l-0.65,1.1c-0.134-0.233-0.2-0.7-0.2-1.4
			c0.066-0.9-0.05-1.733-0.35-2.5l0.6-0.75c0.233-0.3,0.45-0.783,0.65-1.45c0.233-0.767,0.417-1.283,0.55-1.55l0.15-0.3
			c-0.034,1.167-0.034,2.917,0,5.25C17.316,13.567,17.066,14.1,16.6,15.1z"/>
		<path style="fill-rule:evenodd;clip-rule:evenodd;fill:#4D443E;" d="M29.95,6.3L29.1,3.9l1.3,0.05c-0.1,0.8-0.15,1.6-0.15,2.4
			L29.95,6.3z"/>
		<path style="fill-rule:evenodd;clip-rule:evenodd;fill:#4D443E;" d="M80.95,33.3L79,32.9c0.1-2.133,0.167-3.733,0.2-4.8l0.5,0.95
			C80.434,30.417,80.85,31.833,80.95,33.3z"/>
		<path style="fill-rule:evenodd;clip-rule:evenodd;fill:#4D443E;" d="M57.45,11.15l-0.05,1.5l-1.15,0.3l-0.5,0.2
			c-0.033-0.167-0.184-0.7-0.45-1.6L57.45,11.15z"/>
		<path style="fill-rule:evenodd;clip-rule:evenodd;fill:#4D443E;" d="M35.25,4.4l3.05,0.4c1.633,0.134,3.167,0.35,4.601,0.65
			L43.6,7.9c-0.633,0.833-1.233,1.383-1.8,1.65c-0.2,0.134-0.566,0.267-1.1,0.4c-0.467-1.133-0.95-1.833-1.45-2.1
			c-0.8-0.5-2.184-0.883-4.15-1.15C35.1,5.967,35.15,5.2,35.25,4.4z"/>
		<path style="fill-rule:evenodd;clip-rule:evenodd;fill:#4D443E;" d="M59,10.85c0.833-0.133,1.533-0.15,2.1-0.05l-0.149,2.05
			c-0.467-0.367-0.867-0.567-1.2-0.6l-0.5,0.2L59,10.85z"/>
		<path style="fill-rule:evenodd;clip-rule:evenodd;fill:#4D443E;" d="M67.25,22.55V20.3l1.45-0.15
			c0.1-0.367,0.066-1.316-0.101-2.85l0.65,0.65l-0.25,1c-0.1,0.533-0.25,1.35-0.45,2.45c-0.167,0.967-0.366,1.767-0.6,2.4H67.35
			C67.283,23.633,67.25,23.217,67.25,22.55z"/>
		<path style="fill-rule:evenodd;clip-rule:evenodd;fill:#3B342F;" d="M16.65,10.1c-0.2,0.667-0.417,1.15-0.65,1.45l-0.6,0.75
			c-0.233,0.333-0.367,0.817-0.4,1.45c0,1.133-0.184,2.067-0.55,2.8l-0.5,0.85c-0.367,0.567-1,0.867-1.9,0.9H10.9
			c-1.2,0.067-2.083,0.067-2.65,0c-0.5-0.066-1.133-0.233-1.9-0.5c-1.467-0.466-2.567-0.716-3.3-0.75c0,0.1-0.066,0.733-0.2,1.9
			C2.783,19.684,2.667,20.3,2.5,20.8c-0.3,1.1-0.467,2.1-0.5,3c0,0.567-0.1,1.2-0.3,1.9c-0.1,0.4-0.267,0.983-0.5,1.75
			C0.533,27.383,0.133,27.5,0,27.8v-0.5c0.933-2.667,1.483-4.917,1.65-6.75l0.5-4.4l7.5,0.65h2.75c0.833-1.9,1.717-3.866,2.65-5.9
			c1.867-4.033,3.067-6.367,3.6-7l1.25-1.5l13.75,0.4c2.233,0,5.183,0.45,8.85,1.35l0.4,1.3c-1.434-0.3-2.967-0.517-4.601-0.65
			L31.8,4l-6.05-0.2L25.4,3.75c-1.267,0-2.2,0.067-2.8,0.2L22.35,4c-1.167,0.1-1.967,0.25-2.4,0.45l-0.2,0.15
			c-0.3,0.233-0.533,0.5-0.7,0.8L18.2,6.7l-1,1.85C17.066,8.817,16.883,9.333,16.65,10.1z"/>
		<path style="fill-rule:evenodd;clip-rule:evenodd;fill:#3B342F;" d="M62.9,8.65l4.35,5.15c2.167,2.567,3.8,4.317,4.9,5.25
			L70.4,21.9l2.399,0.85c1.7,0.6,2.9,0.95,3.601,1.05l2.75,0.5l1.25,2.75c0.833,2,1.25,3.367,1.25,4.1l0.05,2.35l-0.75-0.2
			c-0.101-1.466-0.517-2.883-1.25-4.25l-0.5-0.95c-1-1.567-2.05-2.6-3.15-3.1l-0.55-0.25l-2.55-0.9l-1.351-0.3
			c-0.533-0.167-0.85-0.267-0.949-0.3l-0.4-0.15c-0.434-0.233-0.65-0.467-0.65-0.7c0-0.1,0.134-0.466,0.4-1.1
			c0.267-0.466,0.434-0.8,0.5-1c0.1-0.333,0.05-0.683-0.15-1.05c-0.166-0.3-0.533-0.733-1.1-1.3l-1.3-1.35
			c-0.334-0.433-0.75-0.917-1.25-1.45c-0.601-0.533-1.067-0.966-1.4-1.3c-0.633-0.7-1.133-1.2-1.5-1.5
			c-0.566-0.567-1.133-0.983-1.7-1.25c-0.3-0.133-0.633-0.233-1-0.3c-0.566-0.1-1.267-0.083-2.1,0.05l-3.7,0.7
			c-1.066,0.167-2.133,0.267-3.2,0.3c-1.433,0.1-2.949,0.067-4.55-0.1L47.5,10.8c4.333-0.433,7.05-0.733,8.15-0.9
			C57.883,9.567,60.3,9.15,62.9,8.65z"/>
		<path style="fill-rule:evenodd;clip-rule:evenodd;fill:#3B342F;" d="M59.05,12.55l0.7-0.3c0.333,0.033,0.733,0.233,1.2,0.6
			c0.333,0.2,0.767,0.517,1.3,0.95l2.5,1.4c1.1,0.6,1.8,1.2,2.1,1.8c0.267,0.533,0.4,1.45,0.4,2.75v2.8
			c0,0.667,0.033,1.083,0.1,1.25c0.134,0.3,0.584,0.467,1.351,0.5l2.05,0.15l0.6,0.1l1.7,0.5c0.467,0.167,1.017,0.434,1.65,0.8
			c0.566,0.333,1.083,0.85,1.55,1.55c0.167,0.267,0.566,1.067,1.2,2.4c-0.9-1.667-2.417-2.716-4.55-3.15
			c-1.034-0.2-2.5-0.383-4.4-0.55L66,25.9l0.15-5.5L66,18.3c-2.233-1.833-3.517-2.917-3.85-3.25L60,13.15
			c-4.733,0.833-7.9,1.5-9.5,2l-5.75,1.5c-5-4.5-7.917-7.033-8.75-7.6l-1.25-0.9l-10.6-0.1c-2.667,5.167-4.717,8.5-6.15,10
			c-0.867,0.934-1.55,1.8-2.05,2.6l-0.45,0.9c-2.567-0.433-4.4-0.683-5.5-0.75l-2.75-0.15L6.5,22c-0.5,1-0.75,1.85-0.75,2.55
			c0,1.067,0.083,2.233,0.25,3.5c-1.833,0.333-3.167,0.534-4,0.6L0.75,28.8c-0.434-0.066-0.684-0.4-0.75-1
			c0.133-0.3,0.533-0.417,1.2-0.35c1.466,0.1,2.233,0.133,2.3,0.1c0.367-0.1,0.566-0.216,0.6-0.35c0.066-0.2,0.117-0.417,0.15-0.65
			c0.066-0.2,0.1-0.483,0.1-0.85c-0.1-0.934-0.133-1.5-0.1-1.7c0-0.1,0.183-0.95,0.55-2.55l0.05-1.25L5,19.8
			c0.167-0.267,0.333-0.433,0.5-0.5c0.133-0.033,0.367-0.05,0.7-0.05l0.5,0.05h5.5c0.167,0,0.517,0.017,1.05,0.05
			c0.467,0.033,0.783-0.017,0.95-0.15c0.3-0.2,0.65-0.833,1.05-1.9l1.35-2.2c0.466-1,0.716-1.533,0.75-1.6l1.6-1.85
			c0.4-0.367,0.966-0.95,1.7-1.75l0.4-0.45c0.167-0.2,0.55-0.567,1.15-1.1l0.3-0.3c0.3-0.267,0.65-0.683,1.05-1.25
			c0.367-0.366,0.95-0.55,1.75-0.55l4.65,0.05l0.3,0.05c0.467,0,1.167,0.033,2.1,0.1L35.1,6.7c1.966,0.267,3.35,0.65,4.15,1.15
			c0.5,0.267,0.983,0.967,1.45,2.1c0.467,1.4,0.816,2.267,1.05,2.6c0.7,1,1.866,1.667,3.5,2c0.5,0.1,1.217,0.117,2.15,0.05
			c0.399-0.067,1.166-0.217,2.3-0.45c0.967-0.2,1.75-0.316,2.35-0.35h0.45c0.866,0,1.95-0.216,3.25-0.65l0.5-0.2l1.75-0.4H59.05z"/>
		<path style="fill-rule:evenodd;clip-rule:evenodd;fill:#3B342F;" d="M79,32.9l2.7,0.6l0.05,1.65L77.9,35.9
			c0.166-1.333,0.216-2.566,0.149-3.7C78.25,32.567,78.566,32.8,79,32.9z"/>
	</g>
	<g>
		<path style="fill-rule:evenodd;clip-rule:evenodd;fill:#4D443E;" d="M19.55,41.8l-0.4,1.9c-0.533-1-0.833-1.633-0.9-1.9l-7.4-7.75
			h0.4l1.9-0.55c0.233,0.367,0.533,0.867,0.9,1.5c0.2,0.3,0.733,1.067,1.6,2.3c0.667,0.967,1.217,1.717,1.65,2.25L19.55,41.8z"/>
		<path style="fill-rule:evenodd;clip-rule:evenodd;fill:#4D443E;" d="M28.65,56.85c0-0.367-0.05-0.75-0.15-1.15
			c1.066,1.233,1.65,1.934,1.75,2.1L30.6,58.4L28.65,56.85z"/>
		<path style="fill-rule:evenodd;clip-rule:evenodd;fill:#4D443E;" d="M22.8,46.85c-0.033,0.4-0.033,1.65,0,3.75
			c-0.6-1.233-0.95-1.917-1.05-2.05l-1.2-2.15l-0.25-3.85l0.75,0.75c0.434,0.467,1.05,1.317,1.85,2.55L22.8,46.85z"/>
		<path style="fill-rule:evenodd;clip-rule:evenodd;fill:#4D443E;" d="M25,53.45v-4l1.65,3.4l-0.15,1.7
			C26.333,54.417,25.833,54.05,25,53.45z"/>
		<path style="fill-rule:evenodd;clip-rule:evenodd;fill:#4D443E;" d="M10.85,34.05l-1.7-2.1L10,31.3c0.7-0.133,1.333,0.034,1.9,0.5
			c0.367,0.333,0.783,0.9,1.25,1.7l-1.9,0.55H10.85z"/>
		<path style="fill-rule:evenodd;clip-rule:evenodd;fill:#3B342F;" d="M23.5,46.75l-0.6-0.9c-0.8-1.233-1.417-2.083-1.85-2.55
			l-3.75-3.75c-0.433-0.533-0.983-1.283-1.65-2.25c-0.867-1.233-1.4-2-1.6-2.3c-0.367-0.633-0.667-1.133-0.9-1.5
			c-0.467-0.8-0.883-1.367-1.25-1.7c-0.567-0.466-1.2-0.633-1.9-0.5l-0.85,0.65l-2.55-3.5c2.6,0.167,5.45,1.917,8.55,5.25
			c2.5,2.667,4.75,5.85,6.75,9.55c1.533,2.8,4.317,7.65,8.35,14.55c-0.1-0.166-0.684-0.866-1.75-2.1c-0.533-0.6-0.95-1.15-1.25-1.65
			V54L25,49.45C24.333,48.15,23.833,47.25,23.5,46.75z"/>
		<path style="fill-rule:evenodd;clip-rule:evenodd;fill:#3B342F;" d="M19.15,43.7l2.6,4.85c0.1,0.134,0.45,0.817,1.05,2.05
			c0.533,1.067,1.083,1.867,1.65,2.4L25,53.45c0.833,0.6,1.333,0.967,1.5,1.1l0.2,0.25l0.35,0.35c0.434,0.567,0.85,1.017,1.25,1.35
			l0.35,0.35l1.95,1.55l2.85,4.85c-0.667-0.5-1.684-1.467-3.05-2.9c-2.7-2.899-5.717-6.683-9.05-11.35
			c-3.267-4.633-7.067-9.95-11.4-15.95l8.3,8.75C18.316,42.067,18.617,42.7,19.15,43.7z"/>
	</g>
	<g>
		<path style="fill-rule:evenodd;clip-rule:evenodd;fill:#4D443E;" d="M38.25,63.3c0-6.4,0.083-13.566,0.25-21.5l0.05-1.85l0.25,1.6
			c0.233,1.9,0.217,4.833-0.05,8.8V62.8l0.05,0.5l-0.45,0.5L38.25,63.3z"/>
		<path style="fill-rule:evenodd;clip-rule:evenodd;fill:#4D443E;" d="M40.75,45.55c0.066,2.3,0.066,3.967,0,5
			c-0.033,2.3,0,4.45,0.1,6.45c-0.3,1.6-0.633,2.95-1,4.05c-0.167,0.5-0.233,0.917-0.2,1.25L39,63.05v-26.8
			c0-2.167-0.05-3.8-0.15-4.9c0.088-2.484,0.139-4.942,0.15-7.375c0.025,1.058,0.075,2.5,0.15,4.325c0.1,2.267,0.133,4.017,0.1,5.25
			c0,1.067,0.133,2.434,0.4,4.1c0.4,2.3,0.617,3.667,0.65,4.1C40.6,44.184,40.75,45.45,40.75,45.55z"/>
		<path style="fill-rule:evenodd;clip-rule:evenodd;fill:#3B342F;" d="M39.65,62.3c-0.033-0.333,0.033-0.75,0.2-1.25
			c0.367-1.1,0.7-2.45,1-4.05L41,60.3c-0.233,0.567-0.567,1.101-1,1.601L39.65,62.3z"/>
		<path style="fill-rule:evenodd;clip-rule:evenodd;fill:#3B342F;" d="M38.25,24.65c0.433-2.5,0.9-4.2,1.4-5.1
			c0.233-0.466,0.433-0.683,0.6-0.65l0.5,26.65c0-0.1-0.15-1.366-0.45-3.8c-0.033-0.433-0.25-1.8-0.65-4.1
			c-0.267-1.667-0.4-3.033-0.4-4.1c0.033-1.233,0-2.983-0.1-5.25c-0.075-1.825-0.125-3.267-0.15-4.325
			c-0.011,2.433-0.062,4.891-0.15,7.375L38.5,41.8c-0.167,7.934-0.25,15.1-0.25,21.5l0.1,0.5l-0.2,0.25
			c-0.2-0.533-0.4-1.5-0.6-2.899c-0.4-2.767-0.617-6.267-0.65-10.5c-0.067-4.2,0.133-9.8,0.6-16.8L38.25,24.65z"/>
	</g>
	<g>
		<path style="fill-rule:evenodd;clip-rule:evenodd;fill:#4D443E;" d="M53,50.3l-1.4,1.5c0.101-1.633,0.134-2.683,0.101-3.15
			L53.1,46.8l0.101-0.2L53,50.3z"/>
		<path style="fill-rule:evenodd;clip-rule:evenodd;fill:#4D443E;" d="M66.45,32.35l-0.101-1.4l-0.05-0.3l1.4-0.8
			C67.533,30.283,67.116,31.117,66.45,32.35z"/>
		<path style="fill-rule:evenodd;clip-rule:evenodd;fill:#4D443E;" d="M60.95,39.65L60.5,40.2c-0.167-0.934-0.25-1.8-0.25-2.6
			l1.1-1.2L60.95,39.65z"/>
		<path style="fill-rule:evenodd;clip-rule:evenodd;fill:#4D443E;" d="M51.2,49.35L51,52.6c-0.7,0.867-1.267,1.75-1.7,2.65
			c-0.267-0.7-0.434-1.5-0.5-2.4c0.2-0.433,0.533-1,1-1.7L51.2,49.35z"/>
		<path style="fill-rule:evenodd;clip-rule:evenodd;fill:#4D443E;" d="M56.45,45.45c-0.067-0.533-0.117-1.25-0.15-2.15
			c-0.033-1-0.05-1.517-0.05-1.55V41.6l1.2-1.2c-0.134,1.8-0.267,3.184-0.4,4.15L56.7,45L56.45,45.45z"/>
		<path style="fill-rule:evenodd;clip-rule:evenodd;fill:#4D443E;" d="M54,48.15c-0.233,0-0.4-0.683-0.5-2.05
			c0.267-0.5,0.616-1.267,1.05-2.3l0.351-0.6C54.667,45.567,54.366,47.217,54,48.15z"/>
		<polygon style="fill-rule:evenodd;clip-rule:evenodd;fill:#4D443E;" points="57.75,40.15 59.1,38.85 58.65,42.35 57.7,43.65 		"/>
		<path style="fill-rule:evenodd;clip-rule:evenodd;fill:#3B342F;" d="M60.95,39.65c2.333-2.633,4.166-5.066,5.5-7.3
			c0.666-1.233,1.083-2.067,1.25-2.5l-1.4,0.8c-0.5,0.367-0.934,0.817-1.3,1.35c-0.566,0.9-1.134,1.633-1.7,2.2l-7.05,7.4
			c-0.467,0.467-0.917,1-1.35,1.6l-0.351,0.6c-0.434,1.034-0.783,1.8-1.05,2.3l-0.4,0.7l-3.3,4.35c-0.467,0.7-0.8,1.267-1,1.7
			c-0.7,1.4-1.1,2.95-1.2,4.65c-1.366,1.434-2.583,2.617-3.649,3.55l-1.25,1l4.85-7.55c3.566-5.533,6.083-9.533,7.55-12
			c2.2-3.6,4.601-6.667,7.2-9.2c3.233-3.2,6.167-4.833,8.8-4.9C66.267,34.434,61.033,41.067,55.4,48.3
			c-2.233,2.9-4.4,5.483-6.5,7.75l0.3-0.65l0.1-0.15c0.434-0.9,1-1.783,1.7-2.65l1.55-1.85L53,50.3
			c0.866-0.933,1.383-1.517,1.55-1.75c0.533-0.633,1.167-1.667,1.9-3.1L56.7,45l3.25-4.2L60.95,39.65z"/>
	</g>
	<g>
		<path style="fill-rule:evenodd;clip-rule:evenodd;fill:#4D443E;" d="M17.55,80.9l2.15-1.95c-0.333,1.767-0.517,2.733-0.55,2.899
			l-1.1,0.95H18c-0.2-0.533-0.317-0.933-0.35-1.2L17.55,80.9z"/>
		<path style="fill-rule:evenodd;clip-rule:evenodd;fill:#4D443E;" d="M29.75,70.45l-0.95,1.6c-0.1-0.3-0.25-0.55-0.45-0.75
			l1.4-1.05V70.45z"/>
		<path style="fill-rule:evenodd;clip-rule:evenodd;fill:#4D443E;" d="M24.95,76.65l0.15-3.101l2.9-2
			c-0.367,0.4-0.55,1.15-0.55,2.25C26.517,74.967,25.683,75.917,24.95,76.65z"/>
		<path style="fill-rule:evenodd;clip-rule:evenodd;fill:#4D443E;" d="M16.1,84.1L12.55,86.2l-0.3,0.1
			c0.2-0.533,0.667-1.149,1.4-1.85c0.433-0.4,1.033-0.934,1.8-1.601l0.5-0.449l-0.1,0.699L16.1,84.1z"/>
		<path style="fill-rule:evenodd;clip-rule:evenodd;fill:#3B342F;" d="M25.1,73.55c-1.2,0.834-2.167,1.601-2.9,2.3
			c-0.267,0.233-0.817,0.967-1.65,2.2l-0.8,0.851l-4.3,3.949c-0.767,0.667-1.367,1.2-1.8,1.601c-0.733,0.7-1.2,1.316-1.4,1.85
			L10,87.05L10.85,86c0.933-1.1,2.3-2.616,4.1-4.55c2.833-3.066,8.75-7.867,17.75-14.4c0.533-0.3,1.466-0.649,2.8-1.05l-3.1,3.65
			c-4.067,5.199-7.7,9.083-10.9,11.649c-2.333,1.9-5.317,3.533-8.95,4.9L16.1,84.1c0.867-0.533,1.5-0.966,1.9-1.3h0.05l1.1-0.95
			c1.167-0.966,2.867-2.482,5.1-4.55l0.7-0.649c0.733-0.733,1.566-1.684,2.5-2.851l1.35-1.75l1.15-1.95L25.1,73.55z"/>
	</g>
	<g>
		<path style="fill-rule:evenodd;clip-rule:evenodd;fill:#4D443E;" d="M46.9,69c0.866,0.5,1.633,1.066,2.3,1.7l-0.4,1.1l-0.25-0.3
			c-0.267-0.267-0.967-0.816-2.1-1.65c-0.467-0.333-0.884-0.833-1.25-1.5c-0.5-0.866-0.817-1.383-0.95-1.55
			c0.3,0.267,0.733,0.667,1.3,1.2C46.05,68.467,46.5,68.8,46.9,69z"/>
		<path style="fill-rule:evenodd;clip-rule:evenodd;fill:#4D443E;" d="M56.6,81.2c-0.833-0.667-1.566-1.316-2.199-1.95v-0.4
			L54.15,75.7c0.666,0.6,1.683,1.467,3.05,2.6L56.6,81.2z"/>
		<polygon style="fill-rule:evenodd;clip-rule:evenodd;fill:#4D443E;" points="50.7,72.05 51.6,73.05 51.4,75.55 50.6,74.3 		"/>
		<path style="fill-rule:evenodd;clip-rule:evenodd;fill:#4D443E;" d="M58.5,79.7l0.9,1l-0.45,2.149
			c-0.533-0.333-0.917-0.6-1.15-0.8l0.25-0.8C58.25,80.75,58.4,80.233,58.5,79.7z"/>
		<path style="fill-rule:evenodd;clip-rule:evenodd;fill:#4D443E;" d="M53.85,75.45L53.95,75.6l-0.2,2.9
			c-0.867-0.934-1.367-1.5-1.5-1.7L52,76.4L51.8,73.3C52.667,74.3,53.35,75.017,53.85,75.45z"/>
		<polygon style="fill-rule:evenodd;clip-rule:evenodd;fill:#4D443E;" points="62.65,83.9 62.75,84.05 65.15,86.35 62.65,84.95 		
			"/>
		<polygon style="fill-rule:evenodd;clip-rule:evenodd;fill:#4D443E;" points="61.75,84.4 59.75,83.3 59.75,81.05 61.9,83.15 		"/>
		<path style="fill-rule:evenodd;clip-rule:evenodd;fill:#3B342F;" d="M62.75,84.05l-0.1-0.149L57.2,78.3
			c-1.367-1.133-2.384-2-3.05-2.6l-0.2-0.101L53.85,75.45c-0.5-0.434-1.183-1.15-2.05-2.15l-1.1-1.25l-1.5-1.35
			c-0.667-0.634-1.434-1.2-2.3-1.7c-0.4-0.2-0.851-0.533-1.351-1c-0.566-0.533-1-0.934-1.3-1.2L44,66.55l-1.6-1l-0.25-0.25l1.1,0.4
			c0.8,0.333,1.35,0.6,1.65,0.8l6.949,5.9c4.967,4.3,8.283,7.467,9.95,9.5l3.7,4.6l-0.35-0.15L62.75,84.05z"/>
		<path style="fill-rule:evenodd;clip-rule:evenodd;fill:#3B342F;" d="M57.8,82.05c0.233,0.2,0.617,0.467,1.15,0.8l6.2,3.5
			l0.35,0.15l0.9,1.3c-1.101-0.366-2.384-0.916-3.851-1.649c-2.934-1.434-5.366-3.017-7.3-4.75c-1.967-1.767-4.217-4.267-6.75-7.5
			c-2-2.601-3.15-4.2-3.45-4.801c0-0.033-0.883-1.216-2.649-3.55l1.6,1l0.25,0.25c0.133,0.167,0.45,0.684,0.95,1.55
			c0.366,0.667,0.783,1.167,1.25,1.5c1.133,0.834,1.833,1.384,2.1,1.65l0.25,0.3c0.634,0.634,1.233,1.467,1.8,2.5l1.65,2.5
			c0.133,0.2,0.633,0.767,1.5,1.7l0.65,0.75c0.633,0.634,1.366,1.283,2.199,1.95l0.4,0.35L57.8,82.05z"/>
	</g>
	<g>
		<polygon style="fill-rule:evenodd;clip-rule:evenodd;fill:#4D443E;" points="43.15,95.9 44.1,96.6 44.05,98.3 43.2,97.45 		"/>
		<path style="fill-rule:evenodd;clip-rule:evenodd;fill:#4D443E;" d="M30.4,97.85c0.7,0.268,1.35,0.284,1.95,0.051L32.1,100.1
			c-0.467,0.167-0.883,0.2-1.25,0.101C30.75,99.367,30.6,98.583,30.4,97.85z"/>
		<path style="fill-rule:evenodd;clip-rule:evenodd;fill:#4D443E;" d="M39.4,91.6l2.05,2.25l-0.351,1.7
			c-0.767-0.767-1.3-1.25-1.6-1.45L39.4,91.6z"/>
		<path style="fill-rule:evenodd;clip-rule:evenodd;fill:#4D443E;" d="M33.2,97.35c0.3-0.3,0.9-1.267,1.8-2.899l-0.05,3
			c-0.534,0.7-1.017,1.25-1.45,1.649L33.2,97.35z"/>
		<path style="fill-rule:evenodd;clip-rule:evenodd;fill:#4D443E;" d="M46.2,100.25c0-0.967-0.05-1.883-0.15-2.75
			c0.667,0.167,1.217,0.167,1.65,0c0.267-0.1,1.233-0.616,2.899-1.55c0.134-0.066,0.551-0.434,1.25-1.101
			c0.733-0.633,1.2-0.916,1.4-0.85l2.45,2.55l1.3,1.7v0.45l-4.45-2.4l-0.35-0.25c-1.8,2.167-2.95,3.351-3.45,3.55l-1.2,0.75
			C47.017,100.45,46.566,100.417,46.2,100.25z"/>
		<path style="fill-rule:evenodd;clip-rule:evenodd;fill:#4D443E;" d="M26.25,94.7L24.9,97.35c-1.233,0.101-2.35,0.268-3.35,0.5
			l3.7-3.5c0.2-0.1,0.433-0.283,0.7-0.55c0.3,0.334,0.883,0.983,1.75,1.95c0.833,0.9,1.6,1.533,2.3,1.9l-0.2,1.899l-0.1-0.05
			c-0.733-0.8-1.267-1.333-1.6-1.6c-0.5-0.4-1.184-0.601-2.05-0.601l0.05-1.75L26.25,94.7z"/>
		<path style="fill-rule:evenodd;clip-rule:evenodd;fill:#3B342F;" d="M37.2,94.05c0.033-0.033,0.1-0.183,0.2-0.45
			c0.067-0.199,0.15-0.316,0.25-0.35c0.233-0.1,0.367-0.1,0.4,0c0.1,0.134,0.184,0.2,0.25,0.2c0.4,0.1,0.8,0.316,1.2,0.649
			c0.3,0.2,0.833,0.684,1.6,1.45l0.2,0.15c0.467,0.366,1.101,0.95,1.9,1.75l1.35,1.399c0.767,0.768,1.316,1.233,1.65,1.4
			c0.366,0.167,0.816,0.2,1.35,0.1l-0.7,0.5c-3-2.1-4.833-3.482-5.5-4.149L39,94.05l-3.8,5.05c-0.4,0.5-1.25,1.167-2.55,2
			l-1.8,1.101c-0.6-0.5-1.317-1.283-2.15-2.351l-1.7-2.3c-2.267,0.2-3.617,0.45-4.05,0.75c-0.3,0.167-0.917,0.417-1.85,0.75
			l-1.3,0.4l1.75-1.601c1-0.232,2.117-0.399,3.35-0.5l1.15-0.05c0.867,0,1.55,0.2,2.05,0.601c0.333,0.267,0.867,0.8,1.6,1.6
			l0.1,0.05c0.4,0.334,0.75,0.55,1.05,0.65c0.367,0.1,0.783,0.066,1.25-0.101l1-0.6l0.4-0.4c0.433-0.399,0.917-0.949,1.45-1.649
			l1.1-1.7C36.75,94.717,37.133,94.15,37.2,94.05z"/>
		<path style="fill-rule:evenodd;clip-rule:evenodd;fill:#3B342F;" d="M37.8,87.3h0.4c0.167,0.267,0.583,1,1.25,2.2
			c0.767,1.2,1.55,2.217,2.35,3.05c1.667,1.767,2.833,3.184,3.5,4.25c2.934-2.233,4.517-3.483,4.75-3.75
			c0.267-0.233,0.733-0.566,1.4-1l1.8,1.95c-0.2-0.066-0.667,0.217-1.4,0.85c-0.699,0.667-1.116,1.034-1.25,1.101
			c-1.666,0.934-2.633,1.45-2.899,1.55c-0.434,0.167-0.983,0.167-1.65,0c-0.6-0.133-1.25-0.434-1.95-0.9l-1.35-1.05
			c-0.333-0.333-0.767-0.899-1.3-1.7L38,90c-0.333,0.333-0.733,0.9-1.2,1.7c-0.6,0.967-1,1.583-1.2,1.85l-0.6,0.9
			c-0.9,1.633-1.5,2.6-1.8,2.899l-0.5,0.4l-0.35,0.15c-0.6,0.233-1.25,0.217-1.95-0.051L30,97.65c-0.7-0.367-1.467-1-2.3-1.9
			c-0.867-0.967-1.45-1.616-1.75-1.95c-0.267,0.267-0.5,0.45-0.7,0.55l0.95-0.899l0.6-0.75l1.55,2.149
			c1.066,1.5,1.716,2.317,1.95,2.45l1.15,0.65C35.117,91.917,37.233,88.367,37.8,87.3z"/>
	</g>
	<path style="fill-rule:evenodd;clip-rule:evenodd;fill:#3B342F;" d="M16.75,54.15c1.1,0.833,3.316,2.417,6.65,4.75l1.25,1.5
		C24.383,60.267,24,60.134,23.5,60c-2.8-1.5-6.1-3.617-9.9-6.35c-0.367-0.3-0.8-0.417-1.3-0.35l-0.55-1.75l3.05,1.35
		C15.433,53.2,16.083,53.617,16.75,54.15z"/>
	<path style="fill-rule:evenodd;clip-rule:evenodd;fill:#3B342F;" d="M61.75,53.3l2.25-1c-0.233,1.233-0.566,2.1-1,2.6
		c-0.333,0.4-0.65,0.7-0.95,0.9c-0.366,0.267-1.083,0.634-2.149,1.1l-0.65,0.35c-0.767-0.533-1.483-0.566-2.15-0.1
		c-2,1.366-3.25,2.3-3.75,2.8c-0.166,0.167-0.3,0.383-0.399,0.649l-1.8,0.551l1.25-1.5L59,54.9
		C60.1,54.067,61.017,53.533,61.75,53.3z"/>
</g>
<g>
	<path style="fill-rule:evenodd;clip-rule:evenodd;fill:#3B342F;" d="M38.45,1.15C39.316,0.583,40.283,0.2,41.35,0
		c-2.033,1.1-3.5,2.45-4.399,4.05c-1,1.9-1.017,3.884-0.05,5.95c0.7,1.434,1.867,2.5,3.5,3.2c1.567,0.667,3.15,0.833,4.75,0.5
		c-1.534,0.533-3.051,0.65-4.55,0.35c-1.367-0.3-2.5-0.9-3.4-1.8c-0.7-0.667-1.05-2.933-1.05-6.8
		C36.15,3.617,36.917,2.184,38.45,1.15z"/>
</g>
<g>
	<path style="fill-rule:evenodd;clip-rule:evenodd;fill:#B4A89D;" d="M17.55,40.05c1.167,0.667,1.783,1.35,1.85,2.05
		c0.067,0.233,0.017,0.733-0.15,1.5L19,44.45c-0.133,0.267-0.367,0.383-0.7,0.35c-0.5-0.1-0.883-0.167-1.15-0.2
		c-0.4-0.033-0.7,0.133-0.9,0.5c-0.167,0.267-0.217,0.933-0.15,2c0,0.067-0.05,0.65-0.15,1.75c-0.167-0.167-0.384-0.733-0.65-1.7
		c-0.267-0.8-0.6-1.3-1-1.5c-0.133-0.066-0.3-0.066-0.5,0c-0.233,0.067-0.417,0.083-0.55,0.05s-0.283-0.15-0.45-0.35
		c-0.133-0.233-0.233-0.4-0.3-0.5c-0.033-0.033-0.067-0.117-0.1-0.25l-0.35-0.1c-0.4,0-0.683-0.017-0.85-0.05
		c-0.5-0.033-1-0.2-1.5-0.5c-0.467-0.233-0.767-0.5-0.9-0.8c-0.133-0.233-0.217-0.633-0.25-1.2l8.05-2.4
		C16.7,39.65,17.017,39.817,17.55,40.05z"/>
	<path style="fill-rule:evenodd;clip-rule:evenodd;fill:#5C514B;" d="M16.75,30.25c0.8,0.267,1.717,1.083,2.75,2.45
		c1.066,1.467,1.667,2.733,1.8,3.8c0.167,1.667,0.167,2.833,0,3.5c-0.367,1.333-1.383,2.434-3.05,3.3c-1.667,0.9-3.6,1.15-5.8,0.75
		c-1.8-0.3-3.05-0.8-3.75-1.5c-0.667-0.667-1-2.933-1-6.8c0-1.833,0.75-3.25,2.25-4.25C12.316,29.867,14.583,29.45,16.75,30.25z"/>
	<path style="fill-rule:evenodd;clip-rule:evenodd;fill:#3B342F;" d="M21.3,36.5c0.167,1.667,0.167,2.833,0,3.5
		c-0.367,1.333-1.383,2.434-3.05,3.3c-1.667,0.9-3.6,1.15-5.8,0.75c-1.8-0.3-3.05-0.8-3.75-1.5c-0.667-0.667-1-2.933-1-6.8
		c0-1.833,0.75-3.25,2.25-4.25c0.966-0.667,1.95-1.133,2.95-1.4c-1.233,0.867-2.017,1.483-2.35,1.85c-0.2,0.066-0.333,0.15-0.4,0.25
		c-1.467,1.267-2.033,3.083-1.7,5.45c0.366,2.4,1.45,3.95,3.25,4.65c1.9,0.7,3.767,0.8,5.6,0.3c2.1-0.6,3.367-1.85,3.8-3.75
		c0.333-1.467,0.066-3-0.8-4.6c-0.767-1.433-1.833-2.566-3.2-3.4l-0.8-0.45l-0.15-0.35l0.6,0.2c0.8,0.267,1.717,1.083,2.75,2.45
		C20.566,34.167,21.167,35.434,21.3,36.5z"/>
	<path style="fill-rule:evenodd;clip-rule:evenodd;fill:#3B342F;" d="M13.3,39.15c0.367,0.333,0.783,0.5,1.25,0.5
		c0.5,0,0.934-0.167,1.3-0.5c0.333-0.367,0.5-0.783,0.5-1.25c0-0.5-0.167-0.917-0.5-1.25c-0.367-0.367-0.8-0.55-1.3-0.55
		c-0.467,0-0.883,0.183-1.25,0.55c-0.333,0.333-0.5,0.75-0.5,1.25C12.8,38.367,12.967,38.783,13.3,39.15z M18.5,33.95
		c1.1,1.1,1.65,2.417,1.65,3.95c0,1.534-0.55,2.833-1.65,3.9c-1.1,1.1-2.417,1.65-3.95,1.65s-2.833-0.55-3.9-1.65
		C9.55,40.733,9,39.434,9,37.9c0-1.533,0.55-2.85,1.65-3.95c1.067-1.067,2.367-1.6,3.9-1.6C16.117,32.35,17.433,32.883,18.5,33.95z"
		/>
</g>
<g>
	<path style="fill-rule:evenodd;clip-rule:evenodd;fill:#B4A89D;" d="M60.6,57.35c0.267,0.233,0.9,0.367,1.9,0.4
		c0.7,0.233,1.15,0.4,1.35,0.5c0.533,0.233,0.851,0.55,0.95,0.95c0.066,0.2,0.05,0.583-0.05,1.149c0.033,0.634-0.117,1.034-0.45,1.2
		c-0.233,0.101-0.733,0.15-1.5,0.15c-2.1,0-3.566-0.134-4.399-0.4c-0.301-0.1-0.65-0.316-1.051-0.649
		c-0.366-0.334-0.666-0.533-0.899-0.601c-0.334-0.066-0.834,0.05-1.5,0.351c-1.067,0.5-2.334,0.866-3.8,1.1
		c0.1-0.5,0.416-0.717,0.949-0.65L60.6,57.35z"/>
	<path style="fill-rule:evenodd;clip-rule:evenodd;fill:#3B342F;" d="M64.85,57.45l1.95-2.05l-0.1,0.75
		c-0.101,0.7-0.184,1.734-0.25,3.1c-0.2,1.2-0.65,2.983-1.351,5.35l0.101-3.05c0-1.2-0.017-1.933-0.05-2.2
		C64.917,58.517,64.816,57.884,64.85,57.45z"/>
	<path style="fill-rule:evenodd;clip-rule:evenodd;fill:#B4A89D;" d="M67.5,48.25c1,0.3,1.816,0.767,2.45,1.4
		c0.733,0.733,1.1,1.567,1.1,2.5c-0.033,0.567-0.066,1.417-0.1,2.55c-0.067,0.267-0.134,0.617-0.2,1.05
		c-0.1,0.3-0.267,0.583-0.5,0.85c-0.467,0.5-1.083,1.05-1.85,1.65c-0.334,0.267-0.7,0.417-1.101,0.45
		c-0.2,0.033-0.483,0.133-0.85,0.3c-0.667,0.033-1.15,0.1-1.45,0.2c-0.767,0.267-1.65,0.383-2.65,0.35
		c-1.1-0.033-1.949-0.267-2.55-0.7L67.5,48.25z"/>
	<path style="fill-rule:evenodd;clip-rule:evenodd;fill:#5C514B;" d="M58.45,47.15c2.333-1.6,4.6-2.033,6.8-1.3
		c0.767,0.267,1.667,1.1,2.7,2.5c1.066,1.433,1.666,2.7,1.8,3.8c0.2,1.7,0.2,2.867,0,3.5c-0.333,1.333-1.333,2.433-3,3.3
		c-1.667,0.899-3.6,1.149-5.8,0.75c-1.733-0.333-2.983-0.833-3.75-1.5c-0.967-0.833-1.434-1.967-1.4-3.4
		c0.233-1.6,0.351-2.733,0.351-3.4C56.15,49.533,56.917,48.117,58.45,47.15z"/>
	<path style="fill-rule:evenodd;clip-rule:evenodd;fill:#3B342F;" d="M59.45,58c1.7,1.1,3.616,1.367,5.75,0.8
		c2.133-0.566,3.683-1.733,4.649-3.5c-0.3,1.5-1.333,2.717-3.1,3.65c-1.667,0.899-3.6,1.149-5.8,0.75
		c-1.733-0.333-2.983-0.833-3.75-1.5c-0.967-0.833-1.434-1.967-1.4-3.4c0.233-1.6,0.351-2.733,0.351-3.4
		c0-1.767,0.716-3.15,2.149-4.15c-0.8,2.067-1.184,4.017-1.149,5.85C57.184,55.4,57.95,57.033,59.45,58z"/>
	<path style="fill-rule:evenodd;clip-rule:evenodd;fill:#3B342F;" d="M62.85,48c1.367,0,2.533,0.5,3.5,1.5s1.45,2.2,1.45,3.6
		c0,1.267-0.399,2.383-1.2,3.35c-0.8,0.934-1.8,1.483-3,1.649c1.2-0.399,2.033-1.166,2.5-2.3c0.467-1.133,0.384-2.017-0.25-2.65
		c-0.6-0.6-1.183-0.7-1.75-0.3c-0.533,0.367-0.783,1.017-0.75,1.95c0.067,0.934-0.267,1.617-1,2.05
		c-0.767,0.433-1.616,0.45-2.55,0.05c-0.533-0.233-0.983-0.716-1.35-1.45c-0.334-0.733-0.5-1.517-0.5-2.35c0-1.4,0.483-2.6,1.45-3.6
		C60.366,48.5,61.517,48,62.85,48z"/>
</g>
<path style="fill-rule:evenodd;clip-rule:evenodd;fill:#3B342F;" d="M43.7,4.65l0.8,4.25c0.4,2.067,0.616,3.45,0.65,4.15l0.199,1.65
	c0,0.2,0.017,0.483,0.051,0.85c-0.7,0.134-1.567,0.2-2.601,0.2l-1.25-0.1c0.833-0.2,1.3-0.417,1.4-0.65
	c0.033-0.033,0.05-0.35,0.05-0.95V10.2c0.1,0.4,0.283,0.55,0.55,0.45V3.2C43.55,3.233,43.6,3.717,43.7,4.65z"/>
<g>
	<path style="fill-rule:evenodd;clip-rule:evenodd;fill:#B4A89D;" d="M34.6,18.65c-0.434-0.933-0.567-1.517-0.4-1.75l9-6.35
		c0.066-0.066,0.517,0.217,1.35,0.85c0.4,0.333,0.8,0.667,1.2,1c1.066,1.067,1.633,1.9,1.7,2.5c0.066,0.633-0.017,1.2-0.25,1.7
		c-0.033,0.067-0.25,0.35-0.65,0.85l-0.5,0.95c-0.2,0.333-0.55,0.684-1.05,1.05c-0.667,0.467-1.15,0.75-1.45,0.85l-0.75,0.25
		c-0.366,0.134-1.066,0.2-2.1,0.2c-1.067,0-1.867,0.117-2.4,0.35c-0.367,0.2-0.667,0.2-0.9,0l-0.35-0.4l-0.35-0.2
		c-0.067-0.033-0.217-0.117-0.45-0.25c-0.4-0.367-0.717-0.617-0.95-0.75C35.033,19.333,34.8,19.05,34.6,18.65z"/>
	<path style="fill-rule:evenodd;clip-rule:evenodd;fill:#5C514B;" d="M32.85,11.6c0-1.833,0.767-3.267,2.3-4.3
		c1.3-0.866,2.833-1.3,4.6-1.3c1.167,0,2.316,0.184,3.45,0.55c0.733,0.233,1.433,0.983,2.1,2.25c0.634,1.2,1.017,2.384,1.15,3.55
		c0.2,1.633,0.2,2.8,0,3.5c-0.367,1.333-1.367,2.433-3,3.3c-1.8,0.967-3.617,1.35-5.45,1.15c-1.667-0.2-3.05-0.833-4.15-1.9
		C33.183,17.733,32.85,15.467,32.85,11.6z"/>
	<path style="fill-rule:evenodd;clip-rule:evenodd;fill:#3B342F;" d="M35.05,11.4c0.3-1,0.867-1.816,1.7-2.45
		c0.867-0.667,1.833-1,2.9-1s2.034,0.333,2.9,1c0.833,0.633,1.384,1.45,1.65,2.45c0.066,0.467-0.084,0.833-0.45,1.1
		c-0.367,0.233-0.983,0.184-1.85-0.15c-1.134-0.4-1.867-0.6-2.2-0.6h-0.15c-0.333,0-1.05,0.2-2.15,0.6
		c-0.9,0.333-1.533,0.383-1.9,0.15C35.2,12.233,35.05,11.867,35.05,11.4z"/>
	<path style="fill-rule:evenodd;clip-rule:evenodd;fill:#3B342F;" d="M39.65,12.45c0.433,0,0.817,0.25,1.15,0.75
		c0.067,0.1,0.283,0.55,0.65,1.35c0.333,0.8,0.5,1.25,0.5,1.35c0.1,0.5-0.134,0.917-0.7,1.25L41,17.3
		c-0.533,0.134-0.983,0.2-1.35,0.2c-0.333,0-0.8-0.066-1.4-0.2L38,17.15c-0.567-0.333-0.8-0.75-0.7-1.25
		c0.033-0.167,0.217-0.617,0.55-1.35c0.3-0.7,0.517-1.15,0.65-1.35c0.3-0.5,0.667-0.75,1.1-0.75H39.65z"/>
</g>
</svg>
