<?xml version="1.0" encoding="iso-8859-1"?>
<!-- Generator: Adobe Illustrator 16.0.0, SVG Export Plug-In . SVG Version: 6.00 Build 0)  -->
<!DOCTYPE svg PUBLIC "-//W3C//DTD SVG 1.1//EN" "http://www.w3.org/Graphics/SVG/1.1/DTD/svg11.dtd">
<svg version="1.1" id="FlashAICB" xmlns="http://www.w3.org/2000/svg" xmlns:xlink="http://www.w3.org/1999/xlink" x="0px" y="0px"
	 width="99.5px" height="107.35px" viewBox="0 0 99.5 107.35" style="enable-background:new 0 0 99.5 107.35;" xml:space="preserve"
	>
<g>
	<path style="fill-rule:evenodd;clip-rule:evenodd;fill:#B1A89C;" d="M12.6,62.45c0.6-0.601,1.883-2.267,3.85-5
		c-0.067,0.5-0.134,1.217-0.2,2.149c-0.167,0.634-0.45,1.351-0.85,2.15c-1.633,3.133-3.117,5.4-4.45,6.8c-2.067,2.2-3.934,4-5.6,5.4
		l-1.3,1c-0.2,0.1-0.517,0.2-0.95,0.3c-0.9,0.133-1.85,0.2-2.85,0.2L12.6,62.45z"/>
	<path style="fill-rule:evenodd;clip-rule:evenodd;fill:#B1A89C;" d="M21.8,68.75c-0.033-1.6,0.017-2.934,0.15-4
		c0.5,0.033,1.216,0.3,2.15,0.8c1,0.566,1.716,0.9,2.15,1c0.233,0.066,0.783,0.233,1.65,0.5c0.667,0.2,1.233,0.316,1.7,0.351
		c0.433,0.033,1.767,0.05,4,0.05c0.733,0,1.117,0,1.15,0c0.367,0.066,0.633,0.283,0.8,0.649c0.233,0.467,0.283,1.134,0.15,2
		c-0.134,0.967-0.333,1.65-0.6,2.051c-0.4,0.533-0.767,1.267-1.1,2.199c-0.2,0.5-0.383,1.134-0.55,1.9
		c-0.267-1.134-0.4-1.95-0.4-2.45c-0.667-0.1-1.1-0.116-1.3-0.05s-0.383,0.267-0.55,0.6c-0.2,0.334-0.4,0.517-0.6,0.551
		c-0.1-0.301-0.184-0.5-0.25-0.601c-0.133-0.133-0.333-0.149-0.6-0.05c-0.2,0.1-0.383,0.316-0.55,0.65c-0.667,1.3-1.2,2.25-1.6,2.85
		c-0.5,0.767-1,1.9-1.5,3.4c-0.6,1.699-1.067,2.866-1.4,3.5l-1.6,3.199c-0.167,0.334-0.333,0.801-0.5,1.4
		c-0.233,0.533-0.633,1.017-1.2,1.45L19.6,92.1c-0.167,0.134-0.833,0.533-2,1.2c-0.833,0.5-1.4,0.983-1.7,1.45l8.85-18
		c-0.533,0.167-1,0.167-1.4,0c-0.333-0.167-0.667-0.5-1-1c-0.267-0.4-0.417-0.867-0.45-1.4v-1.6
		C21.867,70.983,21.833,69.65,21.8,68.75z"/>
	<path style="fill-rule:evenodd;clip-rule:evenodd;fill:#B1A89C;" d="M11.75,47.9v-4.65l10,6.2c0.267,0.466,0.767,0.866,1.5,1.2
		c0.233,0.1,0.867,0.3,1.9,0.6c2.233,0.6,3.733,0.933,4.5,1c0.534,0.033,1.333,0.05,2.4,0.05c0.033,0.367-0.05,0.7-0.25,1
		c-0.2,0.267-0.433,0.4-0.7,0.4c-0.767-0.167-1.383-0.134-1.85,0.1c-0.7,0.367-1.2,0.75-1.5,1.15c-0.1,0.2-0.133,0.566-0.1,1.1
		c0,0.5-0.067,0.851-0.2,1.05c-0.2-0.933-0.384-1.583-0.55-1.949c-0.167,0.366-0.267,0.566-0.3,0.6
		c-0.067,0.066-0.233,0.116-0.5,0.15c-0.333,0.033-0.717-0.134-1.15-0.5c-0.467-0.434-0.784-0.733-0.95-0.9
		c-0.333-0.267-0.85-0.517-1.55-0.75c-0.867-0.267-1.434-0.467-1.7-0.6c-0.566-0.4-0.967-0.633-1.2-0.7
		c-0.133-0.034-0.366-0.05-0.7-0.05c-0.333,0.033-0.583,0.017-0.75-0.05c-0.333-0.067-0.784-0.383-1.35-0.95
		c-0.533-0.5-0.967-0.767-1.3-0.8c-0.067,0.367-0.15,0.633-0.25,0.8c-0.134-0.1-0.333-0.383-0.6-0.85
		c-0.267-0.4-0.534-0.65-0.8-0.75c-0.133-0.033-0.4-0.066-0.8-0.1c-0.267,0-0.5-0.083-0.7-0.25c-0.267-0.233-0.433-0.467-0.5-0.7
		C11.767,48.617,11.75,48.333,11.75,47.9z"/>
	<path style="fill-rule:evenodd;clip-rule:evenodd;fill:#B1A89C;" d="M25.4,36.9c0.467,0.1,0.883,0.317,1.25,0.65
		c0.2,0.2,0.517,0.55,0.95,1.05c0.5,0.533,1.25,1.066,2.25,1.6c0.167,0.1,1,0.517,2.5,1.25c0.3,0.133,2.167,0.85,5.6,2.15
		c8.133,3.167,13.983,5.333,17.55,6.5c0.333,0.1,0.95,0.316,1.85,0.65c0.834,0.3,1.5,0.467,2,0.5c0.434,0.066,1,0.083,1.7,0.05
		c0.367,0,0.917-0.017,1.65-0.05c0.233,0,0.733-0.017,1.5-0.05c0.733,0.033,1.183,0.167,1.35,0.4c0.233,0.3,0.184,1.183-0.149,2.65
		c-0.967,0.133-1.533,0.233-1.7,0.3c-4.533,1.367-8.233,2.05-11.101,2.05c-0.467,0-0.899-0.149-1.3-0.449
		c-0.667-0.467-1.033-0.717-1.1-0.75c-0.2-0.101-0.5-0.184-0.9-0.25c-0.4-0.067-0.683-0.134-0.85-0.2l-2.9-1.55
		c-1.4-0.533-2.433-1.017-3.1-1.45c-0.267-0.167-0.833-0.65-1.7-1.45c-0.667-0.633-1.25-1.05-1.75-1.25c-0.4,0-0.717-0.05-0.95-0.15
		c-0.7-0.267-1.5-0.9-2.4-1.9l-2.1-2.35c-0.6-0.534-1.65-1.034-3.15-1.5c-1.633-0.5-2.716-0.917-3.25-1.25
		c-0.267-0.167-0.783-0.684-1.55-1.55c-0.667-0.7-1.233-1.133-1.7-1.3c-0.167-0.067-0.45-0.083-0.85-0.05
		c-0.4,0.033-0.683,0.05-0.85,0.05c-1.367,0-2.483,0.367-3.35,1.1c-0.967,0.8-1.383,1.883-1.25,3.25l-1-4
		c0.433-0.133,0.9-0.367,1.4-0.7c1.233-0.867,1.967-1.35,2.2-1.45c0.833-0.467,1.667-0.717,2.5-0.75
		C23.8,36.7,24.7,36.767,25.4,36.9z"/>
	<path style="fill-rule:evenodd;clip-rule:evenodd;fill:#B1A89C;" d="M56.7,30.25c-2.733,0.333-4.767,0.683-6.101,1.05
		c-1.166,0.3-2.517,0.717-4.05,1.25c-0.4,0.167-0.95,0.483-1.65,0.95c-0.733,0.467-1.3,0.783-1.7,0.95
		c-1.267,0.366-2.2,0.716-2.8,1.05c-1.267,0.667-2.15,1.066-2.65,1.2c-0.066-0.367-0.083-0.85-0.05-1.45
		c0.033-0.667,0.05-1.167,0.05-1.5l15-5c0.533-0.3,1.3-0.5,2.3-0.6C55.617,28.117,56.4,28.066,57.4,28l3.25-0.25
		c1.6-0.033,3.183,0.433,4.75,1.4c0.399,0.233,0.949,0.617,1.649,1.15l0.7,0.35c0.3,0.133,0.517,0.267,0.65,0.4
		c0.399,0.367,0.633,1.15,0.699,2.35c0,0.867-0.033,1.467-0.1,1.8c-0.2,0.767-0.583,0.95-1.15,0.55c-0.366-0.233-0.649-0.8-0.85-1.7
		c-0.267-0.933-0.566-1.533-0.9-1.8c-0.366-0.333-0.866-0.6-1.5-0.8c-0.699-0.233-1.267-0.3-1.699-0.2
		c-0.301,0.066-0.518,0.233-0.65,0.5c-0.066,0.133-0.167,0.4-0.3,0.8c-0.067-0.1-0.2-0.6-0.4-1.5c-0.133-0.767-0.35-1.133-0.649-1.1
		c-0.167,0.033-0.417,0.233-0.75,0.6c-0.367,0.4-0.667,0.633-0.9,0.7c-0.033-0.267-0.066-0.467-0.1-0.6
		c-0.033-0.267-0.117-0.467-0.25-0.6C58.7,30.083,57.967,30.15,56.7,30.25z"/>
	<path style="fill-rule:evenodd;clip-rule:evenodd;fill:#B1A89C;" d="M29.7,21.65c-0.333-0.5-0.483-1.017-0.45-1.55l7.5,4v0.45
		c0.3,0.033,0.8,0.15,1.5,0.35c0.6,0.167,1.217,0.267,1.85,0.3c0.2,0.033,0.617,0.083,1.25,0.15c0.566,0.066,0.917,0.25,1.05,0.55
		c0.067,0.1,0.1,0.3,0.1,0.6s-0.033,0.5-0.1,0.6c-0.1,0.2-0.35,0.35-0.75,0.45c-0.433,0.1-0.733,0.167-0.9,0.2
		c-0.3,0.133-0.767,0.45-1.4,0.95c-0.367,0.366-0.8,0.65-1.3,0.85c-0.566,0.2-0.9,0.333-1,0.4c-0.1,0.066-0.233,0.216-0.4,0.45
		c-0.133,0.233-0.267,0.383-0.4,0.45c-0.133-0.034-0.367-0.35-0.7-0.95c-0.366-0.633-0.6-1.017-0.7-1.15
		c-0.6-1-1.167-1.817-1.7-2.45c-0.367-0.4-0.783-0.95-1.25-1.65c-0.733-1.033-1.133-1.6-1.2-1.7
		C30.2,22.383,29.867,21.95,29.7,21.65z"/>
	<path style="fill-rule:evenodd;clip-rule:evenodd;fill:#B1A89C;" d="M53.25,19.45c0.133,0.333,0.5,0.917,1.1,1.75
		c0.467,0.733,0.768,1.366,0.9,1.9c0.033,0.167,0.083,0.367,0.15,0.6c0.033,0.2-0.033,0.383-0.2,0.55
		c-0.333,0.467-1.033,0.7-2.101,0.7c-0.467-0.034-1.083-0.017-1.85,0.05c-0.867,0.066-1.483,0.1-1.85,0.1
		c-0.667,0-1.334,0.167-2,0.5c-0.267,0.1-0.65,0.35-1.15,0.75c-0.5,0.367-0.883,0.6-1.15,0.7c-0.133-0.367-0.017-1.1,0.35-2.2
		c0.066-0.267,0.283-0.684,0.65-1.25L53.25,19.45z"/>
	<path style="fill-rule:evenodd;clip-rule:evenodd;fill:#B1A89C;" d="M60.85,22.1c0.233-0.567,0.367-0.95,0.4-1.15l7.5-2.85
		c0.133,1.6,0.35,4.017,0.65,7.25c-0.268-0.133-0.551-0.434-0.851-0.9c-0.366-0.567-0.633-0.917-0.8-1.05
		c-0.233-0.2-0.767-0.3-1.6-0.3C64.917,23.033,63.967,23,63.3,23c-1.133,0-2.05,0.133-2.75,0.4
		C60.583,23.033,60.684,22.6,60.85,22.1z"/>
	<path style="fill-rule:evenodd;clip-rule:evenodd;fill:#B1A89C;" d="M85.25,27.1c0.033,0.566-0.133,1.216-0.5,1.95
		c-0.6,1.133-0.917,1.717-0.95,1.75c-0.167-0.3-0.25-0.683-0.25-1.15c-0.167,0-0.35,0.083-0.55,0.25c-0.3,0.2-0.483,0.317-0.55,0.35
		c-0.833,0.3-1.45,0.583-1.851,0.85c-0.267,0.2-0.433,0.383-0.5,0.55c-0.033,0.133-0.066,0.417-0.1,0.85
		c-0.267,1.933-0.517,3.167-0.75,3.7c-0.167-0.3-0.267-0.784-0.3-1.45c-0.033-0.767-0.101-1.283-0.2-1.55
		c-0.1-0.3-0.184-0.483-0.25-0.55c-0.133-0.133-0.333-0.1-0.6,0.1c-0.367,0.267-0.601,0.95-0.7,2.05c-0.4-0.367-0.733-1.283-1-2.75
		c-0.233-1.133-0.4-1.85-0.5-2.15c-0.267-0.633-0.467-1.117-0.601-1.45c-0.232-0.6-0.35-1.1-0.35-1.5L85.25,27.1z"/>
	<path style="fill-rule:evenodd;clip-rule:evenodd;fill:#B1A89C;" d="M98.6,62.25c0.167,0.167,0.317,0.434,0.45,0.8
		c0.167,0.4,0.217,0.684,0.15,0.851c-1.333-0.434-2.083-0.684-2.25-0.75c-0.833-0.434-1.3-1.051-1.4-1.851
		c-0.566-0.066-1.217-0.3-1.95-0.7C92.767,60.2,92.2,60.033,91.9,60.1c-0.167,0.033-0.351,0.167-0.551,0.4
		c-0.133,0.167-0.333,0.2-0.6,0.1c-0.233-0.066-0.55-0.316-0.95-0.75C89.333,59.316,89.033,59,88.9,58.9
		c-1.9-1.301-3.283-2.184-4.15-2.65c-1.167-0.5-2.05-0.884-2.65-1.15c-1.232-0.5-1.967-0.8-2.199-0.899
		c-0.867-0.467-1.4-1.017-1.601-1.65c-0.066-0.3-0.1-0.467-0.1-0.5c-0.033-0.133,0.033-0.233,0.2-0.3L91.1,57.6
		c0.2,0.2,0.5,0.517,0.9,0.95c0.367,0.267,0.95,0.517,1.75,0.75c0.4,0.167,0.9,0.45,1.5,0.851c0.333,0.199,0.816,0.517,1.45,0.949
		c0.2,0.134,0.533,0.301,1,0.5C98.133,61.8,98.434,62.017,98.6,62.25z"/>
	<path style="fill-rule:evenodd;clip-rule:evenodd;fill:#B1A89C;" d="M58.05,65c-0.366-1.5-0.583-2.634-0.649-3.4l6.35,28.5
		c0,0.767,0.017,1.934,0.05,3.5c0.033,1.4,0,2.551-0.1,3.45c-0.067,0.634-0.15,1.617-0.25,2.95c-0.101,1.167-0.233,2.1-0.4,2.8
		c-0.133-0.833-0.233-1.45-0.3-1.85c-0.133-0.767-0.283-1.384-0.45-1.851c-0.433-0.899-0.733-1.566-0.899-2
		C61.267,96.7,61,96.267,60.6,95.8c-0.433-0.533-0.717-0.917-0.85-1.149c-0.233-0.4-0.383-0.967-0.45-1.7
		c-0.033-0.8-0.066-1.384-0.1-1.75c0-0.067-0.101-0.884-0.3-2.45c-0.101-0.566-0.184-1.917-0.25-4.05L58.3,80.65
		c-0.098-1.171-0.164-2.204-0.2-3.101c0.15,1.007,0.684,2.007,1.601,3c0.233-1.2,0.25-2.883,0.05-5.05
		C59.45,73,58.883,69.5,58.05,65z"/>
	<path style="fill-rule:evenodd;clip-rule:evenodd;fill:#59514A;" d="M48.75,9.05c1.133,0.1,2.434,2.383,3.9,6.85
		c0.732,2.233,1.35,4.45,1.85,6.65c-1.167,0-2.583,0.083-4.25,0.25c-1.033,0.1-2.133,0.467-3.3,1.1l-1.45,0.9
		c0.667-1.833,1.25-4,1.75-6.5c0.3-1.566,0.65-3.583,1.05-6.05L48.75,9.05z"/>
	<path style="fill-rule:evenodd;clip-rule:evenodd;fill:#59514A;" d="M36.25,21.55c1.5,0.833,3.5,2.167,6,4
		c-2.5,1.333-4,2.25-4.5,2.75L37,29.05c-4-4.167-6.417-6.917-7.25-8.25l-1.25-2l3.05,0.9C33.75,20.4,35.316,21.017,36.25,21.55z"/>
	<path style="fill-rule:evenodd;clip-rule:evenodd;fill:#59514A;" d="M60.5,21.8l8-11l0.25,3v9.75L66,22.3
		c-1.133-0.533-2.4-0.767-3.8-0.7L60.5,21.8z"/>
	<path style="fill-rule:evenodd;clip-rule:evenodd;fill:#59514A;" d="M77.5,33.05l-0.25-2c-0.1-0.833-0.533-1.783-1.3-2.85
		c-0.867-1.1-1.434-1.817-1.7-2.15l11,0.75L77.5,33.05z"/>
	<path style="fill-rule:evenodd;clip-rule:evenodd;fill:#59514A;" d="M78.75,39.05c-0.333,3.333-0.583,5.25-0.75,5.75
		c-0.267,0.767-0.633,1.417-1.1,1.95c-1.033,1.133-2.834,2.4-5.4,3.8c-2.733,1.467-6.517,2.817-11.35,4.05
		c-4.4,1.134-7.2,1.617-8.4,1.45c-0.667-0.066-0.983-0.116-0.95-0.149c0.134-0.067-0.05-0.184-0.55-0.351
		c-0.633-0.2-2.45-1.217-5.45-3.05l-4.3-2.7c-5-4-8.083-6.333-9.25-7c-0.733-0.4-1.75-1.566-3.05-3.5l-1.7-2.75l-7.75,3.25
		l-0.35,1.3c-0.133,1.066-0.017,2.1,0.35,3.1c1.167,3.167,4.667,5.366,10.5,6.6c0.467,0.1,1.45,0.383,2.95,0.85
		c-1.233,0.467-2.55,1.05-3.95,1.75l-1.75,0.9c-2.833-0.833-4.583-1.417-5.25-1.75c-1.5-0.7-2.85-1.367-4.05-2
		c-2.333-1.2-3.817-2.117-4.45-2.75c-0.7-0.7-1.1-1.3-1.2-1.8c-0.033-0.2-0.05-1.1-0.05-2.7c0-1.133,0.083-2.566,0.25-4.3L12,36.8
		l9.85-4.9c2.133-1,3.716-1.483,4.75-1.45c0.5,0.033,0.8,0.15,0.9,0.35l2.6,1.5c1.8,1.1,2.85,1.85,3.15,2.25
		c0.267,0.333,0.767,1.133,1.5,2.4c0.867,1.233,1.867,2.267,3,3.1c1.167,0.833,3.117,1.7,5.85,2.6c1.466,0.467,3.35,1.017,5.65,1.65
		c1.533,0.467,3.55,0.767,6.05,0.9c3.134,0.2,6.283,0.066,9.45-0.4c2.934-0.4,4.267-1.983,4-4.75l-1.25-4l-0.5-3
		c-0.167-0.4-0.434-0.85-0.8-1.35c-0.7-1-1.517-1.717-2.45-2.15c-1-0.433-3.117-0.433-6.35,0c-2.4,0.333-5.033,0.833-7.9,1.5
		c-1.767,0.434-4.217,1.35-7.35,2.75l-4.15,2l-1.25-2.5l3.75-3c0.7-0.5,2-1.15,3.9-1.95c1.1-0.434,2.967-1.2,5.6-2.3
		c1.667-0.733,4.3-1.2,7.9-1.4c1.767-0.1,3.383-0.133,4.85-0.1c2.1,0,4.35,0.75,6.75,2.25c1.2,0.767,2.2,1.517,3,2.25l0.8,0.85
		c0.601,0.7,1,1.417,1.2,2.15C74.833,33.217,76.25,35.55,78.75,39.05z"/>
	<path style="fill-rule:evenodd;clip-rule:evenodd;fill:#59514A;" d="M5.9,67.25c2.733-3.3,4.6-5.45,5.6-6.45
		c1.167-1.167,3-2.583,5.5-4.25c0.367-0.133-0.017,0.867-1.15,3c-1.133,2.101-2.083,3.601-2.85,4.5c-0.2,0.233-0.85,1.25-1.95,3.05
		c-0.933,1.467-2.033,2.783-3.3,3.95c-1.367,1.267-3.066,2.4-5.1,3.4L0,75.55c0.5-0.667,0.917-1.417,1.25-2.25
		C1.483,72.733,3.033,70.717,5.9,67.25z"/>
	<path style="fill-rule:evenodd;clip-rule:evenodd;fill:#59514A;" d="M34.25,55.8c1.1-1.733,1.65-1.967,1.65-0.7
		c0,1.067-0.216,2.217-0.65,3.45c-0.133,0.434-2.217,5.066-6.25,13.9c-3.967,8.767-6.05,13.467-6.25,14.1
		c-0.267,0.9-0.7,1.851-1.3,2.851c-0.634,1.033-1.2,1.666-1.7,1.899c-0.4,0.2-1.184,0.8-2.35,1.8l-1.65,1.45
		c2.667-6.833,4.583-11.583,5.75-14.25c0.733-1.667,3.083-6.25,7.05-13.75C30.517,62.816,32.417,59.233,34.25,55.8z"/>
	<path style="fill-rule:evenodd;clip-rule:evenodd;fill:#59514A;" d="M57.75,61.05c2.2,1.367,4.017,7.066,5.45,17.101
		c0.733,5.033,1.25,9.933,1.55,14.699l-2.25,1.7c-0.833-0.833-1.417-2.167-1.75-4c-0.833-5-1.25-8.667-1.25-11
		c0-1.233-0.283-4.684-0.85-10.35L57.75,61.05z"/>
	<path style="fill-rule:evenodd;clip-rule:evenodd;fill:#59514A;" d="M75.5,50.55l0.15-0.5c0.199-0.333,0.566-0.5,1.1-0.5l6.65,2.65
		c4.566,1.866,7.267,3.066,8.1,3.6c1.333,0.833,4,3,8,6.5c-0.566-0.066-1.383-0.267-2.45-0.6c-2.066-0.667-4.25-1.634-6.55-2.9
		L75.5,50.55z"/>
	<path style="fill-rule:evenodd;clip-rule:evenodd;fill:#59514A;" d="M78.75,39.05c-0.333,3.333-0.583,5.25-0.75,5.75
		c-0.267,0.767-0.633,1.417-1.1,1.95c-1.033,1.133-2.834,2.4-5.4,3.8c-2.733,1.467-6.517,2.817-11.35,4.05
		c-4.4,1.134-7.2,1.617-8.4,1.45c-0.667-0.066-0.983-0.116-0.95-0.149c0.134-0.067-0.05-0.184-0.55-0.351
		c-0.633-0.2-2.45-1.217-5.45-3.05l-4.3-2.7c-5-4-8.083-6.333-9.25-7c-0.733-0.4-1.75-1.566-3.05-3.5l-1.7-2.75l-7.75,3.25
		l-0.35,1.3c-0.133,1.066-0.017,2.1,0.35,3.1c1.167,3.167,4.667,5.366,10.5,6.6c0.467,0.1,1.45,0.383,2.95,0.85
		c-1.233,0.467-2.55,1.05-3.95,1.75l-1.75,0.9c-2.833-0.833-4.583-1.417-5.25-1.75c-1.5-0.7-2.85-1.367-4.05-2
		c-2.333-1.2-3.817-2.117-4.45-2.75c-0.7-0.7-1.1-1.3-1.2-1.8c-0.033-0.2-0.05-1.1-0.05-2.7c0-1.133,0.083-2.566,0.25-4.3L12,36.8
		l9.85-4.9c2.133-1,3.716-1.483,4.75-1.45c0.5,0.033,0.8,0.15,0.9,0.35l2.6,1.5c1.8,1.1,2.85,1.85,3.15,2.25
		c0.267,0.333,0.767,1.133,1.5,2.4c0.867,1.233,1.867,2.267,3,3.1c1.167,0.833,3.117,1.7,5.85,2.6c1.466,0.467,3.35,1.017,5.65,1.65
		c1.533,0.467,3.55,0.767,6.05,0.9c3.134,0.2,6.283,0.066,9.45-0.4c2.934-0.4,4.267-1.983,4-4.75l-1.25-4l-0.5-3
		c-0.167-0.4-0.434-0.85-0.8-1.35c-0.7-1-1.517-1.717-2.45-2.15c-1-0.433-3.117-0.433-6.35,0c-2.4,0.333-5.033,0.833-7.9,1.5
		c-1.767,0.434-4.217,1.35-7.35,2.75l-4.15,2l-1.25-2.5l3.75-3c0.7-0.5,2-1.15,3.9-1.95c1.1-0.434,2.967-1.2,5.6-2.3
		c1.667-0.733,4.3-1.2,7.9-1.4c1.767-0.1,3.383-0.133,4.85-0.1c2.1,0,4.35,0.75,6.75,2.25c1.2,0.767,2.2,1.517,3,2.25l0.8,0.85
		c0.601,0.7,1,1.417,1.2,2.15C74.833,33.217,76.25,35.55,78.75,39.05z"/>
	<g>
		<path style="fill-rule:evenodd;clip-rule:evenodd;fill:#4A443D;" d="M20.85,35.1c0.733-0.1,1.767-0.15,3.1-0.15
			c0.6,0,1.667-0.034,3.2-0.1c1.367,0.066,2.367,0.333,3,0.8c0.367,0.267,0.733,0.75,1.1,1.45c0.4,0.8,0.717,1.316,0.95,1.55
			c0.866,0.867,1.917,1.567,3.15,2.1c-0.2-0.067-0.434-0.067-0.7,0c-0.433,0.1-0.9,0.7-1.4,1.8c-1.267-0.867-2.217-1.483-2.85-1.85
			c-0.133-1.833-0.533-3.167-1.2-4c-0.833-1.1-2.15-1.55-3.95-1.35c-1,0.1-1.583,0.216-1.75,0.35c-0.267,0.2-0.45,0.733-0.55,1.6
			l-0.1,0.8l-3.3,1.4c-0.3,0.066-0.717,0.233-1.25,0.5c0-1.767-0.033-3.1-0.1-4C19,35.566,19.883,35.267,20.85,35.1z"/>
		<path style="fill-rule:evenodd;clip-rule:evenodd;fill:#4A443D;" d="M14.25,46.7v-5.15c0.3-1.867,1.066-3.316,2.3-4.35l0.8-0.65
			c-0.133,1.467-0.2,3.133-0.2,5c-0.2,1.167-0.183,2.434,0.05,3.8l0.05,0.05v2.5C15.883,47.566,14.883,47.167,14.25,46.7z"/>
		<path style="fill-rule:evenodd;clip-rule:evenodd;fill:#4A443D;" d="M36.6,42.7c-0.233-1.034-0.6-1.65-1.1-1.85
			c0.967,0.367,2.417,0.75,4.35,1.15c2.533,0.533,5.167,1.217,7.9,2.05c0.233,2.867,0.367,5.5,0.4,7.9l-1.3-0.4
			c-0.733-0.267-1.617-0.683-2.65-1.25c-0.2-3.1-0.784-5.233-1.75-6.4c-0.7-0.867-1.55-0.967-2.55-0.3
			c-1.033,1.033-1.783,1.733-2.25,2.1l-0.55-0.4C36.934,44.133,36.767,43.267,36.6,42.7z"/>
		<path style="fill-rule:evenodd;clip-rule:evenodd;fill:#4A443D;" d="M51.25,45.05l4.05,1.15l0.3,0.05l0.051,6.45l-2.4-0.1
			c-0.467,0-1.133-0.034-2-0.1V45.05z"/>
		<path style="fill-rule:evenodd;clip-rule:evenodd;fill:#4A443D;" d="M68.05,33.5c0.8-0.2,1.733-0.3,2.8-0.3
			c0.334-2.067-1.333-3.7-5-4.9c-2.366-0.8-4.899-1.267-7.6-1.4l0.15-0.75c1-0.067,2.482-0.033,4.449,0.1
			c1.167,0,1.917,0.017,2.25,0.05c0.768,0.1,1.467,0.35,2.101,0.75c0.5,0.333,1.783,1.05,3.85,2.15L70.9,29.25
			c-0.033,1.133,0.333,2.55,1.1,4.25c0.434,0.967,1.1,2.333,2,4.1c0.5,1.133,0.717,2.816,0.65,5.05
			c-0.467-1.433-0.917-2.133-1.351-2.1c-0.6,0.033-1.017,0.867-1.25,2.5c-0.133,0.833-0.217,1.7-0.25,2.6
			c-0.366,2.4-0.649,4.05-0.85,4.95c-0.767-0.6-1.684-0.833-2.75-0.7c-0.767,0.1-1.967,0.533-3.601,1.3l0.051-4.1
			c1.3-0.2,2.416-0.7,3.35-1.5c1.133-0.934,1.333-2.1,0.6-3.5c0.233-0.833,0.233-1.9,0-3.2v-0.4C68.6,36.4,68.417,34.733,68.05,33.5
			z"/>
		<path style="fill-rule:evenodd;clip-rule:evenodd;fill:#4A443D;" d="M75.55,47.2l-0.45-2.5c0.801,0.233,1.717,0.433,2.75,0.6
			c-0.3,0.867-1.066,1.767-2.3,2.7V47.2z"/>
		<path style="fill-rule:evenodd;clip-rule:evenodd;fill:#4A443D;" d="M20.8,48.15l1.1,0.55l-0.15,1
			c-2.033-0.9-3.167-1.384-3.4-1.45l-0.1-1.35C18.75,47.233,19.6,47.65,20.8,48.15z"/>
		<path style="fill-rule:evenodd;clip-rule:evenodd;fill:#4A443D;" d="M55.55,27.1v2.15H54.15c-0.7,0-1.75,0.1-3.15,0.3l-0.05-1
			c0.967-0.467,1.75-0.767,2.35-0.9c0.134-0.033,0.4-0.05,0.8-0.05c0.334,0.033,0.584,0.017,0.75-0.05
			C54.983,27.483,55.217,27.333,55.55,27.1z"/>
		<path style="fill-rule:evenodd;clip-rule:evenodd;fill:#4A443D;" d="M44.9,31.25l1.95-0.9L46.8,30.8c-0.866,0.4-1.533,0.667-2,0.8
			c-0.433,0.167-0.983,0.283-1.65,0.35C43.95,31.717,44.533,31.483,44.9,31.25z"/>
		<path style="fill-rule:evenodd;clip-rule:evenodd;fill:#4A443D;" d="M38.35,35.65c0.267-0.8,0.517-1.35,0.75-1.65L39,35.35
			L38.35,35.65z"/>
		<path style="fill-rule:evenodd;clip-rule:evenodd;fill:#39342F;" d="M14.25,41.55c-0.233,1.167-0.283,2.767-0.15,4.8l-1.75,1
			c-0.467-0.5-0.733-1-0.8-1.5c-0.033-0.233-0.05-1.083-0.05-2.55c0-1.133,0.083-2.566,0.25-4.3L12,36.8l9.85-4.9
			c2.133-1,3.716-1.483,4.75-1.45c0.5,0.033,0.8,0.15,0.9,0.35l2.6,1.5c1.8,1.1,2.85,1.85,3.15,2.25
			c0.267,0.333,0.767,1.133,1.5,2.4c0.867,1.233,1.867,2.267,3,3.1l0.85,0.5v0.05c-0.133,0.133,0.15,0.283,0.85,0.45
			c1.3,0.633,3.066,1.283,5.3,1.95c1.2,0.367,2.7,0.8,4.5,1.3c1.533,0.467,3.55,0.767,6.05,0.9c3.134,0.2,6.283,0.066,9.45-0.4
			c2.1-0.267,3.383-1.167,3.85-2.7c0.733,1.4,0.533,2.566-0.6,3.5c-0.934,0.8-2.05,1.3-3.35,1.5c-2.268,0.433-5.283,0.15-9.051-0.85
			l-0.3-0.05l-7.55-2.15c-2.733-0.833-5.367-1.517-7.9-2.05c-1.934-0.4-3.383-0.783-4.35-1.15l-0.15-0.1
			c-1.233-0.533-2.284-1.233-3.15-2.1c-0.233-0.233-0.55-0.75-0.95-1.55c-0.367-0.7-0.733-1.184-1.1-1.45
			c-0.633-0.467-1.633-0.733-3-0.8c-1.533,0.066-2.6,0.1-3.2,0.1c-1.333,0-2.367,0.05-3.1,0.15C19.883,35.267,19,35.566,18.2,36
			l-1.65,1.2C15.316,38.233,14.55,39.683,14.25,41.55z"/>
		<path style="fill-rule:evenodd;clip-rule:evenodd;fill:#39342F;" d="M56.3,26.55l-0.75,0.55c-0.333,0.233-0.566,0.383-0.7,0.45
			c-0.166,0.067-0.416,0.083-0.75,0.05c-0.399,0-0.666,0.017-0.8,0.05c-0.6,0.133-1.383,0.433-2.35,0.9l-6.05,2.7
			c-0.367,0.233-0.95,0.467-1.75,0.7c-1.767-0.034-3.067-0.034-3.9,0L39.1,34c-0.233,0.3-0.483,0.85-0.75,1.65L38,35.8l-1.25-2.5
			l3.75-3c0.7-0.5,2-1.15,3.9-1.95c1.1-0.434,2.967-1.2,5.6-2.3c1.667-0.733,4.3-1.2,7.9-1.4c1.767-0.1,3.383-0.133,4.85-0.1
			c1.867,0,3.883,0.617,6.05,1.85c1.3,0.733,2.467,1.55,3.5,2.45l-1.25,0.35c-2.066-1.1-3.35-1.817-3.85-2.15
			c-0.634-0.4-1.333-0.65-2.101-0.75c-0.333-0.033-1.083-0.05-2.25-0.05c-1.967-0.133-3.449-0.167-4.449-0.1
			C57.533,26.217,56.833,26.35,56.3,26.55z"/>
		<path style="fill-rule:evenodd;clip-rule:evenodd;fill:#39342F;" d="M66.2,31.7c-0.7-1-1.517-1.717-2.45-2.15
			c-0.552-0.239-1.443-0.348-2.675-0.325c0.382-0.017,0.841-0.042,1.375-0.075c0.899,0,1.616,0.117,2.149,0.35
			c1.733,0.767,2.884,2.1,3.45,4c0.367,1.233,0.55,2.9,0.55,5v0.4c-0.166-0.633-0.399-1.3-0.699-2l-0.4-0.85l-0.5-3
			C66.833,32.65,66.566,32.2,66.2,31.7z M48.95,30c0.633-0.2,1.316-0.35,2.05-0.45c1.4-0.2,2.45-0.3,3.15-0.3h6
			c0.069,0,0.145,0,0.225,0c-0.851,0.048-1.843,0.148-2.975,0.3c-2.4,0.333-5.033,0.833-7.9,1.5c-2.467,0.6-5.967,2.033-10.5,4.3
			l0.25-3.4c0.833-0.034,2.133-0.034,3.9,0c0.667-0.067,1.217-0.184,1.65-0.35c0.467-0.133,1.134-0.4,2-0.8
			C47.733,30.4,48.45,30.133,48.95,30z"/>
		<path style="fill-rule:evenodd;clip-rule:evenodd;fill:#39342F;" d="M39.45,41.05c-0.7-0.167-0.983-0.316-0.85-0.45v-0.05
			L39.45,41.05z"/>
		<path style="fill-rule:evenodd;clip-rule:evenodd;fill:#39342F;" d="M78,44.8l-0.15,0.5c-1.033-0.167-1.949-0.367-2.75-0.6
			l-0.55-0.2l0.101-1.85c0.066-2.233-0.15-3.917-0.65-5.05c-0.9-1.767-1.566-3.133-2-4.1c-0.767-1.7-1.133-3.117-1.1-4.25l1.399-0.4
			l1,1.05c0.601,0.7,1,1.417,1.2,2.15c0.333,1.167,1.75,3.5,4.25,7C78.417,42.383,78.167,44.3,78,44.8z"/>
		<path style="fill-rule:evenodd;clip-rule:evenodd;fill:#39342F;" d="M14.25,46.25L14,46.5l0.1,0.1l0.15,0.1
			c0.633,0.466,1.633,0.866,3,1.2l0.85,0.25l0.25,0.1c0.233,0.066,1.367,0.55,3.4,1.45L23,50.2c2,0.633,3.35,0.866,4.05,0.7
			c-0.633-0.367-1.483-0.75-2.55-1.15c-1.3-0.5-2.167-0.85-2.6-1.05l-1.1-0.55c-1.2-0.5-2.05-0.917-2.55-1.25
			c-0.533-0.367-0.867-0.867-1-1.5l-0.05-0.05c-0.233-1.367-0.25-2.633-0.05-3.8c0.1-0.433,0.25-0.783,0.45-1.05l0.7-0.5
			c0.533-0.267,0.95-0.434,1.25-0.5l-0.8,0.3l-0.35,1.3c-0.133,1.066-0.017,2.1,0.35,3.1c1.167,3.167,4.667,5.366,10.5,6.6
			c0.467,0.1,1.45,0.383,2.95,0.85c-1.233,0.467-2.55,1.05-3.95,1.75l-1.75,0.9c-2.833-0.833-4.583-1.417-5.25-1.75
			c-1.5-0.7-2.85-1.367-4.05-2c-2.333-1.2-3.817-2.117-4.45-2.75l-0.4-0.45l1.75-1L14.25,46.25z"/>
		<path style="fill-rule:evenodd;clip-rule:evenodd;fill:#39342F;" d="M31.25,42.8c-0.667-0.4-1.566-1.417-2.7-3.05l1.85,0.95
			c0.633,0.366,1.583,0.983,2.85,1.85l0.95,0.65c0.9,0.6,1.866,1.3,2.9,2.1l0.55,0.4c2.867,2.267,5.05,3.8,6.55,4.6
			c1.033,0.567,1.917,0.983,2.65,1.25l1.3,0.4c1.2,0.3,2.233,0.483,3.1,0.55c0.867,0.066,1.533,0.1,2,0.1l2.4,0.1
			c1.633,0.066,2.783,0.1,3.449,0.1c1.301-0.066,2.367-0.25,3.2-0.55c0.4-0.133,1.167-0.483,2.3-1.05
			c1.634-0.767,2.834-1.2,3.601-1.3c1.066-0.133,1.983,0.1,2.75,0.7l0.2,0.15c-2.768,1.433-6.518,2.75-11.25,3.95
			c-4.233,1.066-6.95,1.517-8.15,1.35c-0.667-0.066-0.983-0.116-0.95-0.149c0.134-0.067-0.05-0.184-0.55-0.351
			c-0.633-0.2-2.45-1.217-5.45-3.05l-4.3-2.7C35.5,45.8,32.417,43.467,31.25,42.8z"/>
	</g>
	<g>
		<path style="fill-rule:evenodd;clip-rule:evenodd;fill:#4A443D;" d="M10.8,66.45l-0.55,0.7V63.35
			c0.367-0.3,0.816-0.767,1.35-1.399l-0.05,0.6C11.35,63.85,11.1,65.15,10.8,66.45z"/>
		<path style="fill-rule:evenodd;clip-rule:evenodd;fill:#4A443D;" d="M4.45,72.7L0.5,75.3l0.1-0.2c0.2-0.033,0.4-0.183,0.6-0.449
			c0.133-0.167,0.3-0.4,0.5-0.7l1-1.2l-0.05,0.7L4.45,72.7L4.6,72.6L4.45,72.7z"/>
		<path style="fill-rule:evenodd;clip-rule:evenodd;fill:#4A443D;" d="M12.55,64c1.1-1.833,1.55-3.467,1.35-4.9l-0.3,0.25
			c0.633-0.699,1.2-1,1.7-0.899c-0.167,0.333-0.467,0.783-0.9,1.35c-0.1,0.2-0.2,0.467-0.3,0.8c-0.1,0.434-0.167,0.717-0.2,0.851
			c-0.133,0.399-0.417,1-0.85,1.8L12.55,64z"/>
		<path style="fill-rule:evenodd;clip-rule:evenodd;fill:#4A443D;" d="M6.25,71.3l-1.4,1.15c-0.067-0.267-0.2-1.167-0.4-2.7
			c0.7-0.934,1.85-2.267,3.45-4l-0.6,4.6l-0.4,0.4l-0.05-1.2c-0.094-0.688-0.127-1.195-0.1-1.524
			C6.613,69.291,6.446,70.382,6.25,71.3z"/>
		<path style="fill-rule:evenodd;clip-rule:evenodd;fill:#39342F;" d="M11.05,67.1c-0.933,1.467-2.033,2.783-3.3,3.95
			c-1.367,1.267-3.066,2.4-5.1,3.4L0,75.55c0.5-0.667,0.917-1.417,1.25-2.25c0.233-0.566,1.783-2.583,4.65-6.05
			c2.733-3.3,4.6-5.45,5.6-6.45c1.167-1.167,3-2.583,5.5-4.25c0.367-0.133-0.017,0.867-1.15,3c-1.133,2.101-2.083,3.601-2.85,4.5
			C12.8,64.283,12.15,65.3,11.05,67.1z M14.4,59.8c0.433-0.566,0.733-1.017,0.9-1.35c-0.5-0.101-1.066,0.2-1.7,0.899
			c-0.333,0.367-0.717,0.9-1.15,1.601l-0.85,1c-0.534,0.633-0.983,1.1-1.35,1.399c-0.833,0.801-1.55,1.533-2.15,2.2l-0.2,0.2
			c-1.6,1.733-2.75,3.066-3.45,4c-0.467,0.9-0.817,1.566-1.05,2l-1.7,2.2c-0.2,0.3-0.367,0.533-0.5,0.7
			C1,74.917,0.8,75.066,0.6,75.1l-0.1,0.2l4.1-2.7l0.25-0.149L6.8,70.85l3.45-3.699l0.55-0.7c0.533-0.667,1.117-1.483,1.75-2.45
			l0.5-0.75c0.434-0.8,0.717-1.4,0.85-1.8c0.034-0.134,0.1-0.417,0.2-0.851C14.2,60.267,14.3,60,14.4,59.8z"/>
	</g>
	<g>
		<path style="fill-rule:evenodd;clip-rule:evenodd;fill:#4A443D;" d="M24.75,74.5v0.45c-0.033,0.433-0.1,1.75-0.2,3.95
			c-0.433,1-0.7,1.683-0.8,2.05c-0.434,1.366-1.033,2.666-1.8,3.899c0.1-0.633,0.15-1.283,0.15-1.949l-0.05-1.75l0.7-1.7
			c0.333-0.601,0.566-1.05,0.7-1.351c0.267-0.5,0.433-0.949,0.5-1.35c0.1-0.667,0.267-1.217,0.5-1.65L24.75,74.5z"/>
		<path style="fill-rule:evenodd;clip-rule:evenodd;fill:#4A443D;" d="M19,89.5l-1.5,2.55c-0.7,1.233-1.05,1.867-1.05,1.9l-0.7,0.6
			l0.95-2.35l0.3-0.4c0.533-0.533,1.066-1.383,1.6-2.55l0.45-0.9L19,89.5z"/>
		<path style="fill-rule:evenodd;clip-rule:evenodd;fill:#4A443D;" d="M19.1,89.4v-1.15c0.733-1.533,1.167-2.5,1.3-2.9v2L19.1,89.4z
			"/>
		<path style="fill-rule:evenodd;clip-rule:evenodd;fill:#4A443D;" d="M32.8,61.3c-0.2,0.066-0.366,0.05-0.5-0.05
			c-0.133-0.1-0.233-0.333-0.3-0.7c0.333-0.467,0.566-0.85,0.7-1.149c0.533-1.067,1.267-2,2.2-2.801c-0.1,0.4-0.383,0.9-0.85,1.5
			c-0.133,0.233-0.517,1.2-1.15,2.9L32.8,61.3z"/>
		<path style="fill-rule:evenodd;clip-rule:evenodd;fill:#4A443D;" d="M27.25,70.4l2.15-3.351l-0.1,2.5
			c-0.5,0.934-0.783,1.483-0.85,1.65l-0.65,1.55C27.633,72.25,27.45,71.467,27.25,70.4z"/>
		<path style="fill-rule:evenodd;clip-rule:evenodd;fill:#39342F;" d="M34.05,58.1c0.467-0.6,0.75-1.1,0.85-1.5
			c-0.933,0.801-1.667,1.733-2.2,2.801c-0.134,0.3-0.367,0.683-0.7,1.149c-0.033,0.033-0.133,0.217-0.3,0.55
			c-0.134,0.301-0.233,0.733-0.3,1.301c-0.3,1.433-0.966,2.982-2,4.649L27.25,70.4c-0.934,1.666-1.533,2.666-1.8,3
			c-0.134,0.166-0.367,0.533-0.7,1.1l-0.3,0.6c-0.233,0.434-0.4,0.983-0.5,1.65c-0.067,0.4-0.233,0.85-0.5,1.35
			c-0.134,0.301-0.367,0.75-0.7,1.351l-0.7,1.7c-0.7,1.6-1.2,2.883-1.5,3.85l-0.15,0.35c-0.133,0.4-0.567,1.367-1.3,2.9l-0.5,1
			c-0.534,1.167-1.067,2.017-1.6,2.55l-0.3,0.4c2.8-7,4.4-10.967,4.8-11.9c0.733-1.667,3.083-6.25,7.05-13.75
			c1.967-3.733,3.867-7.316,5.7-10.75c1.1-1.733,1.65-1.967,1.65-0.7c0,1.067-0.216,2.217-0.65,3.45
			c-0.133,0.434-2.217,5.066-6.25,13.9c-3.967,8.767-6.05,13.467-6.25,14.1c-0.267,0.9-0.7,1.851-1.3,2.851
			c-0.634,1.033-1.2,1.666-1.7,1.899c-0.5,0.267-1.6,1.15-3.3,2.65c0-0.033,0.35-0.667,1.05-1.9L19,89.5l0.1-0.1l1.3-2.051
			c0.667-0.967,1.183-1.8,1.55-2.5c0.767-1.233,1.366-2.533,1.8-3.899c0.1-0.367,0.367-1.05,0.8-2.05l0.9-1.45
			c0.466-0.733,1.066-1.9,1.8-3.5l1.2-2.75c0.066-0.167,0.35-0.717,0.85-1.65l0.5-0.899c0.533-1.101,0.9-1.917,1.1-2.45l2-5.2
			C33.533,59.3,33.917,58.333,34.05,58.1z"/>
	</g>
	<g>
		<path style="fill-rule:evenodd;clip-rule:evenodd;fill:#4A443D;" d="M62.25,81.65L62.3,94.3c-0.267-0.333-0.467-0.667-0.6-1
			l0.05-4.6c0-0.9,0.066-2.067,0.2-3.5C62.117,83.167,62.217,81.983,62.25,81.65z"/>
		<path style="fill-rule:evenodd;clip-rule:evenodd;fill:#4A443D;" d="M59.85,67.1c0.567,2.2,0.917,3.517,1.051,3.95
			c0.267,0.767,0.482,2,0.649,3.7l0.3,1.1c-0.066,0.134-0.25,0.967-0.55,2.5c-0.167,0.767-0.417,1.617-0.75,2.551l0.2-4.301
			c0.033-1.066-0.083-2.3-0.35-3.699c-0.167-1.2-0.384-1.934-0.65-2.2C59.25,70.9,59,71.6,59,72.8l-0.65-6.3l0.25-3.35
			C59.033,64.15,59.45,65.467,59.85,67.1z"/>
		<path style="fill-rule:evenodd;clip-rule:evenodd;fill:#4A443D;" d="M61.15,67.65c-0.5-1.7-1.033-3.167-1.601-4.4
			C60.117,64.483,60.65,65.95,61.15,67.65z"/>
		<path style="fill-rule:evenodd;clip-rule:evenodd;fill:#39342F;" d="M59.95,77.6c0.133,1.2,0.467,2.983,1,5.351
			c0.2,0.967,0.3,2.399,0.3,4.3l-1.2-1.35c-0.366-2.733-0.55-4.851-0.55-6.351c0-0.7-0.117-2.417-0.35-5.149
			C59.617,75.8,59.883,76.866,59.95,77.6z"/>
		<path style="fill-rule:evenodd;clip-rule:evenodd;fill:#39342F;" d="M59.55,63.25l1.601,4.4c0.633,2.199,1.199,4.949,1.699,8.25
			l-0.6,0.699v0.45L62.1,76.7l-0.55-1.95c-0.167-1.7-0.383-2.934-0.649-3.7c-0.134-0.434-0.483-1.75-1.051-3.95
			c-0.399-1.633-0.816-2.949-1.25-3.949l-0.25,3.35l-0.6-5.45C58.35,61.417,58.95,62.15,59.55,63.25z"/>
		<path style="fill-rule:evenodd;clip-rule:evenodd;fill:#39342F;" d="M62.25,76.6l0.6-0.699c0.9,5.533,1.533,11.183,1.9,16.949
			l-2.25,1.7l-0.2-0.25L62.25,76.6z"/>
	</g>
	<g>
		<path style="fill-rule:evenodd;clip-rule:evenodd;fill:#4A443D;" d="M89.85,57.15c-0.566-0.434-1.017-0.768-1.35-1
			c-0.566-0.4-1.033-0.634-1.4-0.7c-0.133,0.233-0.232,0.533-0.3,0.899L85.15,55.5c-0.067-0.533-0.268-0.9-0.601-1.1
			c-0.233-0.2-0.85-0.484-1.85-0.851l-0.95-0.4c-0.821-0.547-1.43-0.948-1.825-1.2c0.396-0.059,0.889,0.091,1.476,0.45
			c0.3,0.233,0.75,0.533,1.35,0.9c0.4,0.2,1.066,0.4,2,0.6c0.467,0.1,1.1,0.317,1.9,0.65c0.366,0.101,0.916,0.233,1.649,0.4
			c0.634,0.166,1.167,0.366,1.601,0.6l4.8,2.7l2,1.65C96.3,60.033,95.6,59.934,94.6,59.6L92.45,59
			c-0.134-0.566-0.601-0.983-1.4-1.25L89.85,57.15z M76.6,50.45c-0.166,0.1-0.25,0.3-0.25,0.6l-0.85-0.5l0.15-0.5
			c0.199-0.333,0.566-0.5,1.1-0.5l2.3,0.9l0.825,1.475c-0.062-0.048-0.12-0.09-0.175-0.125c-0.601-0.4-1.101-0.717-1.5-0.95
			C77.434,50.417,76.9,50.283,76.6,50.45z"/>
		<path style="fill-rule:evenodd;clip-rule:evenodd;fill:#39342F;" d="M76.35,51.05c0-0.3,0.084-0.5,0.25-0.6
			c0.301-0.167,0.834-0.034,1.601,0.4c0.399,0.233,0.899,0.55,1.5,0.95c0.366,0.233,1.05,0.684,2.05,1.35
			c1.733,1.233,2.75,1.933,3.05,2.1l0.351,0.25l2.8,1.45c0.366,0.166,0.917,0.333,1.649,0.5c0.367,0.133,0.851,0.45,1.45,0.95
			c0.367,0.232,0.833,0.433,1.4,0.6l2.149,0.6c1,0.334,1.7,0.434,2.101,0.301l2.8,2.399c-0.566-0.066-1.383-0.267-2.45-0.6
			c-2.066-0.667-4.25-1.634-6.55-2.9L76.35,51.05z"/>
		<path style="fill-rule:evenodd;clip-rule:evenodd;fill:#39342F;" d="M94.7,58.25l-4.8-2.7c-0.434-0.233-0.967-0.434-1.601-0.6
			c-0.733-0.167-1.283-0.3-1.649-0.4c-0.801-0.333-1.434-0.55-1.9-0.65c-0.934-0.2-1.6-0.4-2-0.6c-0.6-0.367-1.05-0.667-1.35-0.9
			c-0.601-0.367-1.101-0.517-1.5-0.45l-0.851-1.5c7.167,2.866,11.317,4.649,12.45,5.35C92.167,56.2,93.233,57.017,94.7,58.25z"/>
	</g>
	<g>
		<polygon style="fill-rule:evenodd;clip-rule:evenodd;fill:#4A443D;" points="28.5,18.8 28.6,18.85 28.55,18.9 		"/>
		<path style="fill-rule:evenodd;clip-rule:evenodd;fill:#4A443D;" d="M36.55,24.75c-0.366,0.1-0.517,0.417-0.45,0.95
			c-0.1-0.267-0.284-0.55-0.55-0.85c-0.3-0.4-0.6-0.65-0.9-0.75l-0.7-0.95c-0.233-0.267-0.65-0.633-1.25-1.1
			c-0.534-0.467-0.917-0.85-1.15-1.15L30.9,20c0.3-0.2,1.067,0.083,2.3,0.85l5.1,2.75c0.5,0.3,1.25,0.7,2.25,1.2
			c0.2,0.1,0.617,0.434,1.25,1l-0.2,0.15c-0.2-0.034-0.45-0.134-0.75-0.3c-0.4-0.233-0.65-0.367-0.75-0.4
			c-0.633-0.233-1.117-0.017-1.45,0.65c-0.2,0.4-0.367,1.1-0.5,2.1l-0.3,0.25c-0.034-0.1-0.034-0.6,0-1.5
			c0.033-0.633-0.067-1.117-0.3-1.45C37.217,24.833,36.883,24.65,36.55,24.75z"/>
		<path style="fill-rule:evenodd;clip-rule:evenodd;fill:#39342F;" d="M31.55,20.9c0.233,0.3,0.617,0.683,1.15,1.15
			c0.6,0.467,1.017,0.833,1.25,1.1l0.7,0.95c0.967,1.4,1.55,2.216,1.75,2.45c0.633,0.7,1.083,1.3,1.35,1.8L37,29.05
			c-4-4.167-6.417-6.917-7.25-8.25l-1.2-1.9l0.05-0.05c3.6,1,6.15,1.9,7.65,2.7c1.5,0.833,3.5,2.167,6,4L41.8,25.8
			c-0.633-0.566-1.05-0.9-1.25-1c-1-0.5-1.75-0.9-2.25-1.2l-5.1-2.75c-1.233-0.767-2-1.05-2.3-0.85L31.55,20.9z"/>
	</g>
	<g>
		<path style="fill-rule:evenodd;clip-rule:evenodd;fill:#4A443D;" d="M52.1,22.65c0-1.767-0.199-3.133-0.6-4.1
			c-0.2,0.233-0.267,0.817-0.2,1.75c0,0.5,0.033,1.1,0.101,1.8l0.05,0.6l-0.7,0.05c-0.066-2.367-0.417-4.2-1.05-5.5
			c-1.034,1.033-1.583,2.267-1.65,3.7v2.45L47,23.9c0.233-0.667,0.5-1.6,0.8-2.8c0.367-1.367,0.617-2.284,0.75-2.75
			c0.7-1.567,1.101-2.75,1.2-3.55c0.566-0.133,1.233,0.833,2,2.9c0.3,0.933,0.65,2.366,1.05,4.3l0.2,0.6
			C52.833,22.633,52.533,22.65,52.1,22.65z"/>
		<path style="fill-rule:evenodd;clip-rule:evenodd;fill:#39342F;" d="M49.75,14.8c-0.1,0.8-0.5,1.983-1.2,3.55
			c-0.133,0.466-0.383,1.383-0.75,2.75c-0.3,1.2-0.566,2.133-0.8,2.8l-1.5,0.9c0.667-1.833,1.25-4,1.75-6.5
			c0.3-1.566,0.65-3.583,1.05-6.05l0.45-3.2c1.133,0.1,2.434,2.383,3.9,6.85c0.732,2.233,1.35,4.45,1.85,6.65L53,22.6L52.8,22
			c-0.399-1.934-0.75-3.367-1.05-4.3C50.983,15.633,50.316,14.667,49.75,14.8z"/>
	</g>
	<g>
		<polygon style="fill-rule:evenodd;clip-rule:evenodd;fill:#4A443D;" points="65.75,16.05 65.65,21.2 64.3,21.05 63.9,18.6 		"/>
		<path style="fill-rule:evenodd;clip-rule:evenodd;fill:#4A443D;" d="M67.05,20.4c0.101-1.8,0.017-3.483-0.25-5.05l-0.1-0.7
			l0.25-0.4c0.333-0.5,0.55-0.767,0.649-0.8c0.667-0.2,1,0.683,1,2.65c0.033,1.433,0.018,3.6-0.05,6.5v0.05
			c-0.133-0.5-0.517-0.9-1.149-1.2l-0.5-0.1L67.05,20.4z"/>
		<path style="fill-rule:evenodd;clip-rule:evenodd;fill:#39342F;" d="M63.05,20.25v0.4l0.3,0.1c0.101,0.066,0.417,0.167,0.95,0.3
			l1.351,0.15l0.25,0.05c0.433,0,0.767,0.033,1,0.1l0.5,0.1c0.633,0.3,1.017,0.7,1.149,1.2V22.6c0.067-2.9,0.083-5.067,0.05-6.5
			c0-1.967-0.333-2.85-1-2.65c-0.1,0.033-0.316,0.3-0.649,0.8L63.9,18.6C63.333,19.467,63.05,20.017,63.05,20.25z M62.2,21.6
			l-1.7,0.2l8-11l0.25,3v9.75L66,22.3C64.867,21.767,63.6,21.533,62.2,21.6z"/>
	</g>
	<g>
		<path style="fill-rule:evenodd;clip-rule:evenodd;fill:#4A443D;" d="M81.3,27.9c-0.5,0.233-0.85,0.667-1.05,1.3
			c-0.033,0.133-0.05,0.633-0.05,1.5l-0.351,0.5L78.7,32.1c0.3-0.9,0.467-1.434,0.5-1.6c0.167-0.967-0.083-1.833-0.75-2.6
			c-0.434-0.467-0.917-0.467-1.45,0l-0.1-0.15c0.333-0.267,0.916-0.4,1.75-0.4c0.467,0,1.1,0.017,1.899,0.05
			c1.567,0.067,2.733,0.067,3.5,0c-0.833,0.533-1.417,0.983-1.75,1.35h-0.2C82.1,27.917,81.833,27.633,81.3,27.9z"/>
		<path style="fill-rule:evenodd;clip-rule:evenodd;fill:#39342F;" d="M85.25,26.8l-5.4,4.4l0.351-0.5
			c0.366-0.367,0.967-0.9,1.8-1.6l0.3-0.35c0.333-0.367,0.917-0.817,1.75-1.35c-0.767,0.067-1.933,0.067-3.5,0
			c-0.8-0.033-1.433-0.05-1.899-0.05c-0.834,0-1.417,0.133-1.75,0.4L77,27.9c0.5,0.833,0.75,2.5,0.75,5l-0.25,0.15l-0.25-2
			c-0.1-0.833-0.533-1.783-1.3-2.85c-0.867-1.1-1.434-1.817-1.7-2.15L85.25,26.8z"/>
	</g>
	<g>
		<g>
			<path style="fill-rule:evenodd;clip-rule:evenodd;fill:#B1A89C;" d="M25.7,33.6c0.1,0.1,0.4,0.267,0.9,0.5
				c1.2,0.7,1.833,1.367,1.9,2c0.033,0.367-0.017,0.867-0.15,1.5c-0.167,0.566-0.25,0.867-0.25,0.9
				c-0.133,0.267-0.367,0.383-0.7,0.35c-0.5-0.1-0.883-0.167-1.15-0.2c-0.434-0.067-0.75,0.083-0.95,0.45
				c-0.167,0.3-0.2,0.983-0.1,2.05l-0.15,1.75c-0.167-0.167-0.383-0.733-0.65-1.7c-0.267-0.833-0.6-1.35-1-1.55
				c-0.167-0.067-0.35-0.067-0.55,0c-0.2,0.1-0.367,0.133-0.5,0.1c-0.133-0.067-0.284-0.2-0.45-0.4c-0.133-0.233-0.233-0.4-0.3-0.5
				c-0.034-0.034-0.067-0.1-0.1-0.2c-0.033-0.033-0.15-0.083-0.35-0.15h-0.9c-0.333-0.033-0.833-0.2-1.5-0.5
				c-0.434-0.267-0.733-0.55-0.9-0.85c-0.133-0.267-0.2-0.667-0.2-1.2L25.7,33.6z"/>
			<path style="fill-rule:evenodd;clip-rule:evenodd;fill:#59514A;" d="M30.35,30.55c0.2,1.633,0.216,2.8,0.05,3.5
				c-0.367,1.333-1.383,2.434-3.05,3.3c-1.667,0.9-3.6,1.15-5.8,0.75c-1.8-0.3-3.05-0.8-3.75-1.5c-0.7-0.667-1.05-2.934-1.05-6.8
				c0-1.833,0.767-3.267,2.3-4.3c2.333-1.567,4.6-1.983,6.8-1.25c0.767,0.267,1.667,1.1,2.7,2.5
				C29.617,28.183,30.217,29.45,30.35,30.55z"/>
			<path style="fill-rule:evenodd;clip-rule:evenodd;fill:#39342F;" d="M30.35,30.55c0.2,1.633,0.216,2.8,0.05,3.5
				c-0.367,1.333-1.383,2.434-3.05,3.3c-1.667,0.9-3.6,1.15-5.8,0.75c-1.8-0.3-3.05-0.8-3.75-1.5c-0.7-0.667-1.05-2.934-1.05-6.8
				c0-1.833,0.767-3.267,2.3-4.3c1.134-0.7,2.117-1.15,2.95-1.35c-1.233,0.867-2.017,1.467-2.35,1.8l-0.4,0.25
				c-1.5,1.267-2.066,3.1-1.7,5.5c0.333,2.4,1.417,3.933,3.25,4.6c1.9,0.733,3.767,0.833,5.6,0.3c2.1-0.567,3.367-1.817,3.8-3.75
				c0.333-1.467,0.066-2.983-0.8-4.55c-0.767-1.433-1.833-2.583-3.2-3.45l-0.85-0.4l-0.1-0.35l0.6,0.15
				c0.767,0.267,1.667,1.1,2.7,2.5C29.617,28.183,30.217,29.45,30.35,30.55z"/>
			<path style="fill-rule:evenodd;clip-rule:evenodd;fill:#39342F;" d="M22.4,33.2c0.333,0.333,0.75,0.5,1.25,0.5
				s0.933-0.167,1.3-0.5c0.333-0.367,0.5-0.8,0.5-1.3c0-0.467-0.167-0.883-0.5-1.25c-0.367-0.333-0.8-0.5-1.3-0.5
				s-0.917,0.167-1.25,0.5c-0.367,0.367-0.55,0.783-0.55,1.25C21.85,32.4,22.033,32.833,22.4,33.2z M27.6,28
				c1.1,1.066,1.65,2.367,1.65,3.9s-0.55,2.85-1.65,3.95c-1.067,1.066-2.383,1.6-3.95,1.6s-2.883-0.534-3.95-1.6
				c-1.1-1.1-1.65-2.417-1.65-3.95s0.55-2.833,1.65-3.9c1.1-1.1,2.417-1.65,3.95-1.65C25.184,26.35,26.5,26.9,27.6,28z"/>
		</g>
		<g>
			<path style="fill-rule:evenodd;clip-rule:evenodd;fill:#B1A89C;" d="M69.7,51.4c0.267,0.2,0.899,0.333,1.899,0.4
				c1.334,0.367,2.101,0.85,2.301,1.45c0.033,0.2,0.017,0.566-0.051,1.1c0,0.634-0.166,1.033-0.5,1.2
				c-0.232,0.134-0.717,0.2-1.449,0.2c-0.967,0-1.7-0.017-2.2-0.05c-0.867-0.033-1.601-0.15-2.2-0.351
				c-0.267-0.066-0.617-0.3-1.05-0.699c-0.367-0.334-0.684-0.534-0.95-0.601c-0.267-0.033-0.75,0.101-1.45,0.4
				c-0.866,0.399-2.133,0.767-3.8,1.1c0.133-0.533,0.45-0.75,0.95-0.649L69.7,51.4z"/>
			<path style="fill-rule:evenodd;clip-rule:evenodd;fill:#39342F;" d="M73.9,51.45l1.949-2c0.033,0.1,0,0.35-0.1,0.75
				c-0.066,0.7-0.133,1.733-0.2,3.1c-0.2,1.2-0.649,2.967-1.35,5.3l0.1-3.05c0-1.167-0.017-1.883-0.05-2.15
				C74.017,52.533,73.9,51.883,73.9,51.45z"/>
			<path style="fill-rule:evenodd;clip-rule:evenodd;fill:#B1A89C;" d="M79.05,43.7c0.733,0.733,1.083,1.566,1.05,2.5
				c0,1.5-0.017,2.333-0.05,2.5c-0.066,0.3-0.133,0.65-0.2,1.05c-0.1,0.333-0.267,0.633-0.5,0.9
				c-0.399,0.433-1.033,0.983-1.899,1.65c-0.367,0.267-0.717,0.417-1.05,0.45c-0.233,0.033-0.533,0.117-0.9,0.25
				c-0.167,0.066-0.4,0.117-0.7,0.15c-0.333,0.033-0.566,0.067-0.7,0.1c-0.767,0.267-1.649,0.383-2.649,0.35
				c-1.101-0.034-1.95-0.267-2.55-0.7L76.6,42.3C77.6,42.6,78.417,43.066,79.05,43.7z"/>
			<path style="fill-rule:evenodd;clip-rule:evenodd;fill:#59514A;" d="M67.55,41.15c2.333-1.533,4.601-1.95,6.8-1.25
				c0.768,0.267,1.667,1.1,2.7,2.5c1.067,1.433,1.667,2.7,1.8,3.8c0.2,1.633,0.2,2.8,0,3.5c-0.366,1.333-1.366,2.433-3,3.3
				c-1.666,0.867-3.6,1.116-5.8,0.75c-1.733-0.333-3-0.833-3.8-1.5c-0.934-0.833-1.383-1.967-1.35-3.4
				c0.232-1.6,0.35-2.733,0.35-3.4C65.25,43.617,66.017,42.183,67.55,41.15z"/>
			<path style="fill-rule:evenodd;clip-rule:evenodd;fill:#39342F;" d="M65.25,45.45c0-1.733,0.717-3.134,2.15-4.2
				c-0.801,2.1-1.184,4.05-1.15,5.85c0.033,2.3,0.8,3.95,2.3,4.95c1.7,1.1,3.617,1.35,5.75,0.75c2.101-0.566,3.65-1.733,4.65-3.5
				c-0.3,1.533-1.333,2.767-3.101,3.7c-1.666,0.867-3.6,1.116-5.8,0.75c-1.733-0.333-3-0.833-3.8-1.5
				c-0.934-0.833-1.383-1.967-1.35-3.4C65.133,47.25,65.25,46.117,65.25,45.45z"/>
			<path style="fill-rule:evenodd;clip-rule:evenodd;fill:#39342F;" d="M71.95,42.05c1.366,0,2.533,0.5,3.5,1.5
				c0.967,0.967,1.45,2.15,1.45,3.55c0,1.267-0.4,2.383-1.2,3.35c-0.8,0.933-1.8,1.5-3,1.7c1.2-0.433,2.033-1.217,2.5-2.35
				c0.467-1.1,0.383-1.967-0.25-2.6c-0.601-0.6-1.184-0.7-1.75-0.3c-0.533,0.367-0.783,1-0.75,1.9c0.066,0.934-0.283,1.633-1.05,2.1
				c-0.768,0.433-1.601,0.45-2.5,0.05c-0.533-0.233-0.983-0.717-1.351-1.45C67.184,48.767,67,47.967,67,47.1
				c0-1.4,0.483-2.583,1.45-3.55C69.417,42.55,70.583,42.05,71.95,42.05z"/>
		</g>
		<g>
			<path style="fill-rule:evenodd;clip-rule:evenodd;fill:#59514A;" d="M29.15,59.15c0.5,0.033,1.567,0.316,3.2,0.85
				c0.733,0.233,1.433,0.983,2.1,2.25c0.633,1.2,1.017,2.383,1.15,3.55c0.2,1.634,0.2,2.8,0,3.5c-0.367,1.333-1.367,2.434-3,3.3
				c-1.9,1-3.784,1.434-5.65,1.301c-1.867-0.134-3.184-0.817-3.95-2.051c-0.333-0.566-0.583-1.6-0.75-3.1
				c-0.167-1.267-0.25-2.5-0.25-3.7c0-1.7,0.75-3.133,2.25-4.3C25.883,59.583,27.517,59.05,29.15,59.15z"/>
			<path style="fill-rule:evenodd;clip-rule:evenodd;fill:#39342F;" d="M28.25,59.15l-0.95,0.8c-1.4,0.5-2.5,1.5-3.3,3
				c-0.767,1.399-1.083,2.933-0.95,4.6c0.134,1.9,1.05,3.3,2.75,4.2c1.434,0.8,3.15,1.1,5.15,0.9c0.9-0.101,1.7-0.268,2.4-0.5
				L32.6,72.6c-1.9,1-3.784,1.434-5.65,1.301c-1.867-0.134-3.184-0.817-3.95-2.051c-0.333-0.566-0.583-1.6-0.75-3.1
				c-0.167-1.267-0.25-2.5-0.25-3.7c0-1.7,0.75-3.133,2.25-4.3C25.55,59.816,26.883,59.283,28.25,59.15z"/>
			<path style="fill-rule:evenodd;clip-rule:evenodd;fill:#39342F;" d="M26.65,68.15c-0.466,0.366-1.033,0.116-1.7-0.75
				c-0.434-1.567-0.117-2.967,0.95-4.2c1.034-1.233,2.367-1.767,4-1.601c1,0.533,1.333,1.051,1,1.551
				c-0.466,0.8-1.083,1.149-1.85,1.05h-0.3c-0.1,0.633,0.167,1.2,0.8,1.7c0.7,0.533,1.35,0.732,1.95,0.6l-0.05-0.25
				c-0.2-0.767,0.05-1.434,0.75-2c0.433-0.4,1-0.167,1.7,0.7c0.433,1.566,0.117,2.967-0.95,4.2c-1,1.199-2.333,1.75-4,1.649
				c-0.934-0.566-1.267-1.1-1-1.6c0.466-0.767,1.083-1.117,1.85-1.05h0.3c0-0.534-0.317-1.117-0.95-1.75
				c-0.633-0.567-1.233-0.75-1.8-0.551l0.05,0.301c0.133,0.466,0.117,0.866-0.05,1.199C27.25,67.55,27.017,67.816,26.65,68.15z"/>
		</g>
		<g>
			<path style="fill-rule:evenodd;clip-rule:evenodd;fill:#B1A89C;" d="M52.3,4.55c0.101-0.066,0.55,0.233,1.351,0.9
				c0.399,0.333,0.8,0.667,1.199,1c1.067,1,1.634,1.816,1.7,2.45c0.067,0.6-0.017,1.183-0.25,1.75c-0.3,0.367-0.517,0.65-0.649,0.85
				l-0.5,0.95c-0.2,0.333-0.551,0.683-1.051,1.05c-0.666,0.467-1.149,0.75-1.449,0.85l-0.801,0.2c-0.3,0.133-1,0.2-2.1,0.2
				c-1.033,0-1.816,0.133-2.35,0.4c-0.4,0.133-0.7,0.133-0.9,0l-0.35-0.45l-0.4-0.15l-0.4-0.3c-0.067-0.033-0.383-0.283-0.95-0.75
				c-0.3-0.2-0.533-0.467-0.7-0.8c-0.467-0.867-0.6-1.467-0.4-1.8L52.3,4.55z"/>
			<path style="fill-rule:evenodd;clip-rule:evenodd;fill:#59514A;" d="M52.3,0.6c0.733,0.233,1.434,0.983,2.101,2.25
				c0.633,1.167,1.017,2.35,1.149,3.55c0.167,1.633,0.167,2.8,0,3.5c-0.366,1.3-1.366,2.4-3,3.3c-1.8,0.966-3.616,1.35-5.45,1.15
				c-1.667-0.2-3.05-0.833-4.15-1.9c-0.667-0.667-1-2.934-1-6.8c0-1.833,0.75-3.267,2.25-4.3C46.5-0.15,49.2-0.4,52.3,0.6z"/>
			<path style="fill-rule:evenodd;clip-rule:evenodd;fill:#39342F;" d="M48.8,5.75h-0.15c-0.333,0-1.05,0.2-2.15,0.6
				c-0.9,0.333-1.533,0.383-1.9,0.15s-0.517-0.6-0.45-1.1c0.3-1,0.867-1.817,1.7-2.45C46.717,2.316,47.684,2,48.75,2
				s2.017,0.316,2.85,0.95C52.434,3.583,53,4.4,53.3,5.4c0.067,0.5-0.083,0.867-0.45,1.1C52.483,6.733,51.867,6.683,51,6.35
				C49.867,5.95,49.133,5.75,48.8,5.75z"/>
			<path style="fill-rule:evenodd;clip-rule:evenodd;fill:#39342F;" d="M48.75,6.45c0.434,0.033,0.8,0.283,1.1,0.75
				c0.167,0.2,0.384,0.65,0.65,1.35c0.333,0.733,0.517,1.184,0.55,1.35c0.101,0.533-0.133,0.967-0.7,1.3l-0.25,0.1
				c-0.366,0.133-0.816,0.2-1.35,0.2s-1-0.067-1.4-0.2l-0.25-0.1c-0.567-0.333-0.8-0.767-0.7-1.3c0.034-0.167,0.217-0.617,0.55-1.35
				c0.3-0.7,0.517-1.15,0.65-1.35c0.3-0.467,0.667-0.717,1.1-0.75H48.75z"/>
		</g>
	</g>
	<g>
		<path style="fill-rule:evenodd;clip-rule:evenodd;fill:#39342F;" d="M52.3,0.6c0.733,0.233,1.434,0.983,2.101,2.25
			c0.633,1.167,1.017,2.35,1.149,3.55c0.167,1.633,0.167,2.8,0,3.5c-0.366,1.3-1.366,2.4-3,3.3c-1.5,0.8-3.017,1.2-4.55,1.2
			c-1.4,0-2.667-0.333-3.8-1c0.866-0.033,2.183-0.017,3.95,0.05c1.567,0,2.833-0.217,3.8-0.65c0.467-0.167,0.833-0.483,1.1-0.95
			c1.2-1.1,1.667-2.65,1.4-4.65c-0.2-1.6-0.8-3.25-1.8-4.95c-0.334-0.567-0.801-0.883-1.4-0.95c-0.2-0.2-0.4-0.333-0.6-0.4
			c-0.334-0.1-0.867-0.15-1.601-0.15c-0.667,0-1.217,0.05-1.65,0.15l-0.85,0.35c-1.267,0.7-2.167,1.483-2.7,2.35
			c-0.067,0.167-0.1,0.483-0.1,0.95c-0.066,0.867-0.267,1.9-0.6,3.1c-0.2,0.667-0.5,1.667-0.9,3c-0.2-1.033-0.3-2.7-0.3-5
			c0-1.833,0.75-3.267,2.25-4.3C46.5-0.15,49.2-0.4,52.3,0.6z"/>
	</g>
</g>
</svg>
