<?xml version="1.0" encoding="iso-8859-1"?>
<!-- Generator: Adobe Illustrator 16.0.0, SVG Export Plug-In . SVG Version: 6.00 Build 0)  -->
<!DOCTYPE svg PUBLIC "-//W3C//DTD SVG 1.1//EN" "http://www.w3.org/Graphics/SVG/1.1/DTD/svg11.dtd">
<svg version="1.1" id="FlashAICB" xmlns="http://www.w3.org/2000/svg" xmlns:xlink="http://www.w3.org/1999/xlink" x="0px" y="0px"
	 width="97.5px" height="123.25px" viewBox="0 0 97.5 123.25" style="enable-background:new 0 0 97.5 123.25;" xml:space="preserve"
	>
<symbol  id="Symbol_1" viewBox="0 -99.8 81.75 99.8">
	<g id="Layer_3_1_">
		<path style="fill-rule:evenodd;clip-rule:evenodd;fill:#FFFFFF;" d="M81.75-32.75L77.9-33.5l0.15,1c0.034,0.967,0.034,1.867,0,2.7
			c0-0.034,0.017-0.067,0.05-0.1c-0.067,0.7-0.184,1.283-0.35,1.75c-0.3,0.9-0.867,1.7-1.7,2.4c-0.566,0.467-1.167,0.833-1.8,1.1
			l-0.7,0.25c-0.233,0.066-0.45,0.117-0.65,0.15c-1.033,0.2-2.5,0.383-4.4,0.55L66-23.5l0.15,5.5L66-15.9
			c-2.233,1.833-3.517,2.917-3.85,3.25L60-10.75c-4.733-0.833-7.9-1.5-9.5-2l-5.75-1.5c-5,4.5-7.917,7.033-8.75,7.6l-1.25,0.9
			l-10.6,0.1c-2.667-5.167-4.717-8.5-6.15-10c-0.867-0.934-1.55-1.8-2.05-2.6l-0.45-0.9c-2.567,0.433-4.4,0.683-5.5,0.75l-2.75,0.15
			L6.5-19.6c-0.5-1-0.75-1.85-0.75-2.55c0-1.067,0.083-2.233,0.25-3.5c-1.833-0.333-3.167-0.533-4-0.6L0.75-26.4
			C0.283-26.333,0.033-26,0-25.4c0,0.133,0,0.3,0,0.5c0.933,2.667,1.483,4.917,1.65,6.75l0.5,4.4l7.5-0.65h2.75
			c0.833,1.9,1.717,3.867,2.65,5.9c1.867,4.033,3.067,6.367,3.6,7L19.9,0l13.75-0.4c2.233,0,5.184-0.45,8.85-1.35l1.1-3.75v-0.05
			c0.4-1.333,0.633-2.017,0.7-2.05c0.1-0.1,0.284-0.433,0.55-1L49-8.25c3.033,0.3,5.25,0.55,6.65,0.75
			c2.233,0.333,4.65,0.75,7.25,1.25l4.35-5.15c2.167-2.567,3.8-4.317,4.9-5.25L70.4-19.5l2.4-0.85c1.7-0.6,2.9-0.95,3.6-1.05
			l2.75-0.5l1.25-2.75c0.833-2,1.25-3.367,1.25-4.1L81.75-32.75z M40.8-43.7c0-2.133-0.017-3.617-0.05-4.45l0.05-4.95
			c0-0.5,0.017-1,0.05-1.5L41-57.9c-0.233-0.567-0.567-1.1-1-1.6l-1.85-2.15c-0.2,0.533-0.4,1.5-0.6,2.9
			c-0.4,2.767-0.617,6.267-0.65,10.5c-0.066,4.2,0.133,9.8,0.6,16.8l0.75,9.2c0.433,2.5,0.9,4.2,1.4,5.1
			c0.233,0.467,0.434,0.683,0.6,0.65l0.3-13.95C40.683-36.217,40.767-40.633,40.8-43.7z M71.1-26
			c-4.833-6.033-10.067-12.667-15.7-19.9c-1.367-1.733-2.667-3.35-3.9-4.85l-1.3-1.5c-0.9-1-1.767-1.95-2.6-2.85L46.75-56
			c-0.3-0.3-0.583-0.583-0.85-0.85l-0.2-0.2c-0.633-0.6-1.217-1.133-1.75-1.6l-1.25-1l4.85,7.55c3.567,5.533,6.083,9.533,7.55,12
			c2.2,3.6,4.6,6.667,7.2,9.2C65.533-27.7,68.467-26.067,71.1-26z M32.7-64.65c0.533,0.3,1.466,0.65,2.8,1.05l-3.1-3.65
			c-4.066-5.2-7.7-9.083-10.9-11.65c-2-1.633-4.517-3.083-7.55-4.35c-0.467-0.2-0.934-0.383-1.4-0.55L10-84.65l0.85,1.05
			c0.933,1.1,2.3,2.617,4.1,4.55C17.783-75.983,23.7-71.183,32.7-64.65z M23.4-56.5l1.25-1.5c-0.3,0.133-0.683,0.267-1.15,0.4
			c-0.267,0.067-0.55,0.133-0.85,0.2c-0.433,0.1-1.433,0.617-3,1.55c-1.833,1.1-3.083,1.8-3.75,2.1
			c-1.066,0.467-1.783,0.833-2.15,1.1c-0.3,0.2-0.633,0.5-1,0.9c-0.133,0.2-0.283,0.483-0.45,0.85v0.1
			c-0.1,0.2-0.183,0.417-0.25,0.65l-0.3,1l3.05-1.35c0.633-0.3,1.284-0.717,1.95-1.25C17.85-52.583,20.067-54.167,23.4-56.5z
			 M6.6-26.05c2.6-0.167,5.45-1.917,8.55-5.25c2.5-2.667,4.75-5.85,6.75-9.55l7.6-13.25c0.233-0.433,0.483-0.867,0.75-1.3l3.2-5.45
			c-0.667,0.5-1.684,1.467-3.05,2.9c-2.7,2.9-5.717,6.684-9.05,11.35L6.6-26.05z M39.2-86.6c0.267-0.467,0.533-0.9,0.8-1.3l0.85-1.2
			c0.033-0.066,0.083-0.117,0.15-0.15c0-0.033,0.017-0.067,0.05-0.1c0.267-0.267,0.517-0.533,0.75-0.8
			c1.667-1.767,2.833-3.184,3.5-4.25c2.934,2.233,4.517,3.483,4.75,3.75c0.267,0.233,0.733,0.566,1.4,1l4.25-4.5l1.85-2.4L57-96.25
			v-0.05l-4.45,2.4l-0.35,0.25c-1.8-2.167-2.95-3.35-3.45-3.55l-1.9-1.25c-3,2.1-4.833,3.483-5.5,4.15L39-91.65l-3.8-5.05
			c-0.4-0.5-1.25-1.167-2.55-2l-1.8-1.1c-0.6,0.5-1.317,1.283-2.15,2.35l-1.7,2.3c-2.267-0.2-3.617-0.45-4.05-0.75
			c-0.3-0.167-0.917-0.417-1.85-0.75l-1.3-0.4c3.833,3.5,5.967,5.5,6.4,6l0.6,0.75l1.55-2.15c1.066-1.5,1.717-2.316,1.95-2.45
			l1.15-0.65c2.466,4.1,4.233,7.033,5.3,8.8l0.65,1.1c0.167,0.333,0.3,0.583,0.4,0.75h0.05c0.066,0.133,0.1,0.217,0.1,0.25l0.2-0.25
			h0.05c0.133-0.2,0.4-0.667,0.8-1.4L39.2-86.6z M64-49.9c-0.233-1.233-0.567-2.1-1-2.6c-0.333-0.4-0.65-0.7-0.95-0.9
			c-0.367-0.267-1.083-0.633-2.15-1.1l-0.65-0.35c-0.733-0.367-1.767-0.95-3.1-1.75c-1.566-0.933-2.566-1.45-3-1.55l-2-0.6l1.25,1.5
			L59-52.5c1.1,0.833,2.017,1.367,2.75,1.6L64-49.9z M44.9-64.1l6.95-5.9c4.967-4.3,8.283-7.467,9.95-9.5
			c2.667-3.233,4.2-5.2,4.6-5.9c-1.1,0.367-2.383,0.917-3.85,1.65c-2.933,1.433-5.367,3.017-7.3,4.75
			c-1.967,1.767-4.217,4.267-6.75,7.5c-2,2.6-3.15,4.2-3.45,4.8c-0.1,0.233-0.617,0.934-1.55,2.1l-1.35,1.7l1.1-0.4
			C44.05-63.633,44.6-63.9,44.9-64.1z"/>
	</g>
</symbol>
<g>
	<image style="overflow:visible;" width="143" height="160" xlink:href="23768CE3.png"  transform="matrix(1 0 0 1 -24 -22)">
	</image>
	<g>
		
			<use xlink:href="#Symbol_1"  width="81.75" height="99.8" y="-99.8" transform="matrix(1 0 0 -1 6.5 8.1499)" style="overflow:visible;"/>
	</g>
</g>
</svg>
