<?xml version="1.0" encoding="iso-8859-1"?>
<!-- Generator: Adobe Illustrator 16.0.0, SVG Export Plug-In . SVG Version: 6.00 Build 0)  -->
<!DOCTYPE svg PUBLIC "-//W3C//DTD SVG 1.1//EN" "http://www.w3.org/Graphics/SVG/1.1/DTD/svg11.dtd">
<svg version="1.1" id="FlashAICB" xmlns="http://www.w3.org/2000/svg" xmlns:xlink="http://www.w3.org/1999/xlink" x="0px" y="0px"
	 width="82.35px" height="107.35px" viewBox="0 0 82.35 107.35" style="enable-background:new 0 0 82.35 107.35;"
	 xml:space="preserve">
<g>
	<path style="fill-rule:evenodd;clip-rule:evenodd;fill:#B1A89C;" d="M29.35,34.05c-0.267,0.333-0.483,0.5-0.65,0.5
		c-0.333,0.033-0.534-0.1-0.6-0.4c-0.1-0.3-0.217-0.483-0.35-0.55c-0.4-0.2-0.9-0.2-1.5,0c-0.533,0.167-1.05,0.417-1.55,0.75
		c-0.667,0.433-1.55,1.483-2.65,3.15c-1,1.533-1.933,2.467-2.8,2.8c-0.9,0.333-2.067,0.367-3.5,0.1c-1.434-0.267-2.483-0.7-3.15-1.3
		c-0.967-0.867-1.6-1.833-1.9-2.9c-0.233-0.8-0.35-1.967-0.35-3.5l4-2c0.466,0.033,1.033-0.134,1.7-0.5
		c0.367-0.2,0.9-0.483,1.6-0.85c2.1-0.833,5.35-1.184,9.75-1.05c2.067,0.1,3.583,0.233,4.55,0.4c1.833,0.267,3.283,0.733,4.35,1.4
		c0.7,0.4,1.583,0.983,2.65,1.75c0.966,0.533,1.983,0.816,3.05,0.85l2.7-0.3c3.8-0.367,7.366-0.433,10.7-0.2
		c5.732,0.366,8.366,1.616,7.899,3.75c-1.033,0.167-1.8,0.3-2.3,0.4c-0.9,0.133-1.684,0.316-2.35,0.55c-0.534,0.2-0.9,0.3-1.101,0.3
		c-0.233,0-0.633-0.15-1.2-0.45c-1-0.733-1.816-1.25-2.449-1.55c-1.167-0.567-1.934-0.3-2.301,0.8c-0.6-0.967-1.717-1.067-3.35-0.3
		c-0.8,0.333-1.9,1.017-3.3,2.05c-0.733,0.633-1.267,1.083-1.601,1.35c-0.566,0.5-1.183,0.833-1.85,1
		c-0.567,0.133-0.917,0.216-1.05,0.25c-0.2,0.1-0.45,0.333-0.75,0.7c-0.4,0.833-0.717,1.367-0.95,1.6
		c-0.1-1.667-0.184-2.95-0.25-3.85c-0.167-1.566-0.567-2.717-1.2-3.45c-0.833-0.9-2.233-1.35-4.2-1.35
		c-0.767,0-1.317,0.133-1.65,0.4c-0.134,0.067-0.5,0.483-1.1,1.25c-0.233-0.2-0.35-0.533-0.35-1c-0.033-0.833-0.05-1.267-0.05-1.3
		C29.816,33.417,29.617,33.65,29.35,34.05z"/>
	<path style="fill-rule:evenodd;clip-rule:evenodd;fill:#B1A89C;" d="M9.4,54.6c-0.233-0.3-0.633-0.616-1.2-0.95
		c-0.6-0.367-1-0.683-1.2-0.95l13-4c0.6,0.033,1.467-0.067,2.6-0.3c1.2-0.267,2.1-0.4,2.7-0.4c0.934,0.033,1.983,0.217,3.15,0.55
		c0.433,0.133,1.466,0.5,3.1,1.1c0.667,0.267,1.434,0.65,2.3,1.15c0.767,0.4,1.6,0.583,2.5,0.55c1.433-0.034,2.883-0.4,4.35-1.1
		c0.6-0.267,1.5-0.684,2.7-1.25c1.033-0.467,1.966-0.8,2.8-1c0.7-0.2,1.5-0.317,2.399-0.35c0.134,0,0.967,0,2.5,0
		c2.167,0.033,4.767,0.283,7.801,0.75c1.732,0.267,4.333,0.683,7.8,1.25c1.033,0.167,2.233,0.567,3.6,1.2
		c2.033,0.9,3.184,1.4,3.45,1.5c1.733,0.633,3.017,1.4,3.85,2.3c1.533,1.633,2.417,2.732,2.65,3.3
		c0.633,1.267,0.217,2.316-1.25,3.149c-3,1.667-5.117,1.084-6.35-1.75c-0.634-1.233-1.117-2.183-1.45-2.85
		c-0.601-1.167-0.9-2.184-0.9-3.05c-0.233,0.5-0.816,0.783-1.75,0.85c-1.033,0-1.733,0.017-2.1,0.05
		c-2.4,0.134-4.033,0.15-4.9,0.051c-1.033-0.101-1.934-0.268-2.7-0.5c-0.633-0.233-1.467-0.617-2.5-1.15
		c-0.733-0.367-1.283-0.633-1.649-0.8c-0.601-0.3-1.167-0.483-1.7-0.55c-1.167-0.133-2.417-0.067-3.75,0.2
		c-1.5,0.3-2.717,0.783-3.65,1.45c-0.5,0.434-0.883,0.75-1.149,0.95c-0.334,0.233-0.934,0.55-1.8,0.95
		c-0.801,0.366-1.384,0.733-1.75,1.1c-0.567,0.533-0.917,1.033-1.05,1.5c-0.133,0.367-0.184,0.967-0.15,1.8
		c0,0.233,0.017,0.601,0.05,1.101c-0.033,0.433-0.167,0.75-0.4,0.95c-0.534-0.101-0.833-0.551-0.9-1.351
		c-0.1-0.934-0.25-1.5-0.45-1.7c-0.934,0.601-2.05,0.283-3.35-0.949c-0.867-0.834-1.967-1.634-3.3-2.4
		c-1.333-0.7-2.8-1.217-4.4-1.55c-1.833-0.367-3.367-0.4-4.6-0.1c-1.067,0.233-2.284,0.783-3.65,1.65
		c-0.067,0.033-0.8,0.667-2.2,1.9c-1.033,0.899-1.833,1.383-2.4,1.449c-0.667,0.067-1.367-0.116-2.1-0.55
		c-0.633-0.399-1.15-0.883-1.55-1.45C10.017,55.517,9.667,54.934,9.4,54.6z"/>
	<path style="fill-rule:evenodd;clip-rule:evenodd;fill:#B1A89C;" d="M6.95,88.1c-0.9-0.733-1.5-1.25-1.8-1.55
		c-0.567-0.533-1.067-1.149-1.5-1.85c-0.4-0.634-0.633-0.967-0.7-1c-0.833-0.767-1.317-1.233-1.45-1.4
		c-0.367-0.467-0.65-1.116-0.85-1.95c-0.133-0.666-0.217-1.467-0.25-2.399c0-1.067-0.017-1.884-0.05-2.45
		C0.117,70.866,0,67.366,0,65l10,13c0.133,0.667,0.333,1.833,0.6,3.5c0.267,1.467,0.65,2.55,1.15,3.25
		c0.333,0.5,0.983,1.15,1.95,1.95c0.667,0.767,1.45,1.433,2.35,2c0.567,0.333,1.5,0.85,2.8,1.55c2.367,1.366,4.1,2.3,5.2,2.8
		c2.033,1,3.867,1.65,5.5,1.95c1.4,0.267,3.267,0.35,5.6,0.25c1.267-0.066,3.133-0.15,5.6-0.25c1.767,0.033,4.017-0.117,6.75-0.45
		c4.3-0.5,6.55-0.767,6.75-0.8c3.633-0.333,6.35-0.333,8.15,0c0.366,0.066,0.966,0.233,1.8,0.5c0.767,0.233,1.35,0.383,1.75,0.45
		c0.433,1.5-0.7,2.583-3.4,3.25c-3.033,0.433-4.816,0.7-5.35,0.8c-2.467,0.467-4.7,1.35-6.7,2.65c-0.1,0.066-0.333,0.283-0.7,0.649
		c-0.1,0.134-0.333,0.101-0.7-0.1c-0.133-0.067-0.283-0.267-0.449-0.601c-0.2-0.366-0.417-0.6-0.65-0.699
		c-0.1-0.067-0.367-0.084-0.8-0.051c-0.5,0-0.783,0-0.851,0c-1.066-0.133-1.899-0.233-2.5-0.3c-1-0.1-1.833-0.1-2.5,0
		c-0.1,0.033-0.816,0.3-2.149,0.8c-0.733,0.301-1.5,0.283-2.3-0.05c-0.467-0.366-0.967-0.6-1.5-0.7
		c-0.267-0.066-0.617-0.083-1.05-0.05c-0.467,0.033-0.817,0.05-1.05,0.05l-4-0.05c-0.433,0-1.167,0.134-2.2,0.4
		c-0.934,0.267-1.65,0.383-2.15,0.35c-1.3-0.033-2.884-0.667-4.75-1.899c-0.967-0.601-2.35-1.634-4.15-3.101l-3.45-2.7
		c-0.733-0.566-1.684-1.433-2.85-2.6C8.517,89.483,7.583,88.6,6.95,88.1z"/>
	<path style="fill-rule:evenodd;clip-rule:evenodd;fill:#B1A89C;" d="M5.35,70.6C5.316,70.1,5.433,69.566,5.7,69l11-3
		c4.3,0.066,10.366,0.316,18.2,0.75c8.433,0.5,14.483,0.8,18.15,0.9c1.367,0.033,4.033,0.166,8,0.399c3.333,0.2,6.017,0.3,8.05,0.3
		H77.2c0.3,0,0.899-0.033,1.8-0.1c0.8,0,1.35,0.133,1.65,0.4c0.366,0.333,0.5,0.8,0.399,1.399c-0.1,0.5-0.333,0.934-0.7,1.3
		c-0.399,0.434-0.983,0.667-1.75,0.7C77.733,72.017,77.083,72,76.65,72c-5,0-10-0.1-15-0.3c-7.101-0.334-12.534-0.25-16.301,0.25
		c-1.467,0.2-3.583,0.233-6.35,0.1c-2.967-0.167-5.1-0.184-6.4-0.05c-1.067,0.1-2.267,0.45-3.6,1.05c-1.467,0.733-2.6,1.25-3.4,1.55
		c-0.733,0.301-1.7,0.5-2.9,0.601c-1.267,0.066-2.25-0.017-2.95-0.25c-0.567-0.167-1.167-0.467-1.8-0.9
		c-0.767-0.5-1.233-0.983-1.4-1.45c-0.3-0.933,0.483-1.399,2.35-1.399c2.467-0.033,3.8-0.101,4-0.2c-0.667-0.4-1.783-0.566-3.35-0.5
		c-1.7,0.133-2.85,0.2-3.45,0.2c-2.367,0.1-4.167,0.166-5.4,0.2C8.5,70.934,6.717,70.833,5.35,70.6z"/>
	<path style="fill-rule:evenodd;clip-rule:evenodd;fill:#B1A89C;" d="M38.3,19.1c-0.066,0.3-0.066,0.733,0,1.3
		c0.067,0.6,0.083,1.017,0.05,1.25c-0.067,0.533-0.2,1.3-0.4,2.3c-0.9,0.267-2.367-0.2-4.4-1.4c-2.066-1.2-2.683-2.05-1.85-2.55
		l9-7.3c0.467-0.034,1.116-0.367,1.95-1c0.8-0.634,1.5-0.983,2.1-1.05c1.167-0.1,2.116,0.017,2.85,0.35
		c0.601,0.267,1.384,0.816,2.351,1.65c1.866,1.667,3.283,3.617,4.25,5.85c1.066,2.5,1.316,4.9,0.75,7.2
		c-0.934-0.034-2.233-0.55-3.9-1.55c-1.667-0.967-2.983-1.483-3.95-1.55c0.434-1.5,0.617-3.133,0.551-4.9
		c0-0.733-0.051-1.167-0.15-1.3c-0.1-0.167-0.483-0.3-1.15-0.4c-0.533-0.067-1.199-0.083-2-0.05c-0.899,0.033-1.566,0.05-2,0.05
		C40.217,16,38.867,17.033,38.3,19.1z"/>
	<path style="fill-rule:evenodd;clip-rule:evenodd;fill:#59514A;" d="M38.35,14.55c-1.567,0.833-2.417,2.5-2.55,5
		c-0.033,1.267,0.067,2.434,0.3,3.5l-1.75-1.25c-0.733-0.533-1.5-0.816-2.3-0.85l-0.95,0.1c-0.133-0.8-0.15-1.816-0.05-3.05
		c0.167-2.434,0.767-4.75,1.8-6.95c1.033-2.2,2.6-3.767,4.7-4.7c1.033-0.5,1.967-0.767,2.8-0.8c8.333-0.633,13.3,2.383,14.9,9.05
		c0.767,3.333,0.717,6.733-0.15,10.2l-1.75-1.75c-0.733-0.733-1.916-1.033-3.55-0.9l-2.2,0.4c0.334-0.467,0.65-1.066,0.95-1.8
		c0.566-1.5,0.75-2.983,0.55-4.45c-0.233-1.667-1.616-2.65-4.149-2.95C42.55,13.083,40.35,13.483,38.35,14.55z"/>
	<path style="fill-rule:evenodd;clip-rule:evenodd;fill:#59514A;" d="M17.6,29.05l4.5-1.5c3.333-1.066,5.833-1.816,7.5-2.25
		c1.767-0.433,3.566-0.133,5.4,0.9c1.133,0.633,2.417,1.667,3.85,3.1c1.333,1.333,2.5,2.167,3.5,2.5l3.101-2.85
		c2.2-1.934,3.666-2.9,4.399-2.9c0.801,0,2.317,0.567,4.551,1.7c2,1,3.566,1.933,4.699,2.8l4.5,3.5l-5,2.75
		c-0.5-0.5-1.116-1.017-1.85-1.55c-1.5-1.033-2.884-1.6-4.15-1.7c-1.366-0.1-2.983,0.217-4.85,0.95c-1.6,0.667-2.9,1.433-3.9,2.3
		l-3.5,2.75c-1.5-3.167-2.833-5-4-5.5c-0.934-0.4-2.034-0.783-3.3-1.15c-1.367-0.4-2.35-0.6-2.95-0.6c-0.967,0-2.167,0.15-3.6,0.45
		c-1.9,0.367-3.283,0.883-4.15,1.55c-0.833,0.633-1.583,1.117-2.25,1.45l-0.75,0.3L17.6,29.05z"/>
	<path style="fill-rule:evenodd;clip-rule:evenodd;fill:#59514A;" d="M9.6,50.55l4.7-2.5c3.333-1.733,5.517-2.816,6.55-3.25
		c1.667-0.667,3.083-1.083,4.25-1.25l11,6.25l7.25-3.5c0.667-0.333,2.917-1.25,6.75-2.75l4.15,0.5c2.9,0.434,4.767,0.85,5.6,1.25
		c1.334,0.667,3.75,2.25,7.25,4.75l2.15-1.15c1.533-0.7,2.566-0.9,3.1-0.6c1.067,0.633,2.4,2.717,4,6.25
		c0.834,1.833,1.334,3.083,1.5,3.75l-2.75,3.25c-0.166-1.233-0.449-2.55-0.85-3.95c-0.8-2.733-1.767-4.417-2.9-5.05
		c-1.133-0.633-2.6-0.816-4.399-0.55L64.6,52.55c-0.899-0.5-2.033-1-3.399-1.5c-2.7-1-5.15-1.5-7.351-1.5
		c-6.633,0-10.717,1.083-12.25,3.25c-0.733,1.033-1.616,2.134-2.649,3.3l-1.35,1.45c-5.167-4-8.5-6.167-10-6.5
		c-1.333-0.333-2.233-0.533-2.7-0.6c-0.767-0.134-1.367-0.1-1.8,0.1c-0.567,0.267-1.883,1.083-3.95,2.45
		c-2.167,1.434-3.6,2.45-4.3,3.05l-2.5,2l-4.5-5.5L9.6,50.55z"/>
	<path style="fill-rule:evenodd;clip-rule:evenodd;fill:#59514A;" d="M7.3,87.75c-2-2.033-3.233-4.017-3.7-5.95
		c-0.4-1.767-1.067-5.25-2-10.45l-1.25-7.3l4.45-0.1c3.233-0.033,5.417,0,6.55,0.1c1.833,0.167,8,0.25,18.5,0.25
		c1.833,0,6.216,0.134,13.15,0.4c6.9,0.233,11.517,0.35,13.85,0.35c4.5,0,13,0.167,25.5,0.5l-0.5,4l-47,0.25
		c-3.333,0-8.917-0.083-16.75-0.25L7.35,69.3l0.8,3.9c0.767,3.133,1.833,6,3.2,8.6c1.7,3.3,4.983,6.033,9.85,8.2
		c5.2,2.366,11.167,3.55,17.9,3.55c5.833,0,10.3-0.45,13.4-1.35c1.533-0.467,2.483-0.934,2.85-1.4l2.75,4
		c-0.833,0.833-2.166,1.583-4,2.25c-1.467,0.533-4.233,1.066-8.3,1.601c-4.267,0.566-7.583,0.783-9.95,0.649
		c-3.434-0.167-6.95-0.649-10.55-1.45c-4.867-1.1-8.517-2.533-10.95-4.3C11.117,91.217,8.767,89.283,7.3,87.75z"/>
	<g>
		<path style="fill-rule:evenodd;clip-rule:evenodd;fill:#4A443D;" d="M72.2,67.25c-0.233,0.434-0.317,1.167-0.25,2.2l-2.3-0.101
			v-1.6c-0.067,0-0.75,0.083-2.051,0.25c-0.866,0.133-1.316-0.184-1.35-0.95L65.95,67h0.1C67.883,67,69.934,67.083,72.2,67.25z"/>
		<path style="fill-rule:evenodd;clip-rule:evenodd;fill:#4A443D;" d="M59.8,68.25c-0.033,0.133-0.033,0.4,0,0.8
			c-1.667-0.066-2.95-0.133-3.85-0.2C56.017,67.983,56,67.4,55.9,67.1c-0.2-0.033-0.801,0.117-1.801,0.45
			c-0.866,0.3-1.449,0.351-1.75,0.15c-0.267-0.167-0.399-0.601-0.399-1.3c2.7,0.066,5.399,0.166,8.1,0.3l2.25,0.149
			c-0.8,0.067-1.434,0.25-1.899,0.551C60.066,67.667,59.866,67.95,59.8,68.25z"/>
		<path style="fill-rule:evenodd;clip-rule:evenodd;fill:#4A443D;" d="M44.3,68.3c-0.733,0.134-1.7,0.184-2.899,0.15
			c-1.334-0.067-2.317-0.101-2.95-0.101c-3.733,0-8.2,0.117-13.4,0.351h-1.7c-0.434-0.101-0.867-0.317-1.3-0.65
			c-0.633-0.767-1.2-1.233-1.7-1.399c-0.567-0.167-1.417-0.301-2.55-0.4c-1.6-0.1-2.467-0.167-2.6-0.2l-3-0.35h1.5
			c0.5,0,1.267-0.017,2.3-0.05c1.667,0.1,4.483,0.149,8.45,0.149c3.6,0.033,6.4,0.134,8.4,0.3c2.6,0.233,6.517,0.317,11.75,0.25
			L44.4,66.45c-0.134,0.133-0.184,0.433-0.15,0.899C44.283,67.95,44.3,68.267,44.3,68.3z"/>
		<path style="fill-rule:evenodd;clip-rule:evenodd;fill:#4A443D;" d="M79.35,68.8c-0.133-0.167-0.233-0.483-0.3-0.95L79.7,67.9
			C79.566,68.066,79.45,68.366,79.35,68.8z"/>
		<path style="fill-rule:evenodd;clip-rule:evenodd;fill:#4A443D;" d="M2.1,65.7h2.7c0,2.366,0.05,4.717,0.15,7.05L5,78.2l-0.4-0.55
			l-0.2-0.4c-0.233-0.5-0.483-1.15-0.75-1.95c-0.267-0.899-0.467-1.55-0.6-1.95L2.6,72l-0.25-1.75C2.183,68.25,2.1,66.733,2.1,65.7z
			"/>
		<polygon style="fill-rule:evenodd;clip-rule:evenodd;fill:#4A443D;" points="7,69.7 6.95,69.15 7.4,69.35 7.45,69.8 		"/>
		<path style="fill-rule:evenodd;clip-rule:evenodd;fill:#4A443D;" d="M8.35,83.55V81c0.4,1.1,0.95,2.083,1.65,2.95l0.65,0.7
			L10.6,86.4l-0.1-0.051C9.667,85.316,8.95,84.383,8.35,83.55z"/>
		<path style="fill-rule:evenodd;clip-rule:evenodd;fill:#4A443D;" d="M6.95,69L7,65.7h3.25l0.15,3.05
			C8.367,68.917,7.217,69,6.95,69z"/>
		<polygon style="fill-rule:evenodd;clip-rule:evenodd;fill:#4A443D;" points="41.6,96.7 43.2,96.95 43.15,97.25 41.55,97.3 		"/>
		<polygon style="fill-rule:evenodd;clip-rule:evenodd;fill:#4A443D;" points="28.4,97.05 25.35,96.9 25.35,93.7 28.5,94.35 		"/>
		<path style="fill-rule:evenodd;clip-rule:evenodd;fill:#4A443D;" d="M22,95.15c-0.1-0.567-0.117-1.467-0.05-2.7l0.15,0.05
			L22,95.15z"/>
		<path style="fill-rule:evenodd;clip-rule:evenodd;fill:#4A443D;" d="M14.05,89.1v-2.05c1.067,0.667,1.833,1.184,2.3,1.55l0.5,0.4
			l-0.25,2.4l-1-1C15.3,90.066,14.783,89.633,14.05,89.1z"/>
		<path style="fill-rule:evenodd;clip-rule:evenodd;fill:#4A443D;" d="M37.1,95.75l2.05,0.45l-0.65,1.1l-3.9-0.05
			c-0.3-0.634-0.617-1.167-0.95-1.6l0.3,0.05C34.316,95.733,35.367,95.75,37.1,95.75z"/>
		<path style="fill-rule:evenodd;clip-rule:evenodd;fill:#4A443D;" d="M53,96.5c0.9-0.7,1.917-2.283,3.05-4.75l2.05,3.05
			c-0.633,0.667-1.649,1.3-3.05,1.9l-0.1-0.05C54.65,96.483,54,96.434,53,96.5z"/>
		<polygon style="fill-rule:evenodd;clip-rule:evenodd;fill:#4A443D;" points="7,69.7 7.45,69.8 7.45,69.9 6.95,69.75 		"/>
		<path style="fill-rule:evenodd;clip-rule:evenodd;fill:#4A443D;" d="M37.1,95.75l2.55-0.05c1.1,0,2.7-0.017,4.8-0.05
			c1.8,0.033,3.35,0.267,4.649,0.699L50.2,96.65C48.767,96.883,47.733,97,47.1,97c-0.933,0-1.633,0.033-2.1,0.1h-0.2l-1.6-0.149
			L37.1,95.75z"/>
		<path style="fill-rule:evenodd;clip-rule:evenodd;fill:#4A443D;" d="M5.85,79.8l2.5,3.75c0.6,0.833,1.316,1.767,2.15,2.8
			l0.1,0.051c0.433,0.5,0.983,0.982,1.65,1.449c0.4,0.301,1,0.717,1.8,1.25c0.733,0.533,1.25,0.967,1.55,1.301l1,1
			c0.533,0.466,1.35,1.149,2.45,2.05c0.767,0.7,2.35,1.783,4.75,3.25c-2.733-0.5-5.3-1.467-7.7-2.9s-4.45-3.25-6.15-5.45
			c-0.9-1.1-1.634-2.267-2.2-3.5c-0.233-0.5-0.55-1.333-0.95-2.5C6.433,81.217,6.117,80.366,5.85,79.8z"/>
		<path style="fill-rule:evenodd;clip-rule:evenodd;fill:#4A443D;" d="M3.05,73.35c0.133,0.4,0.333,1.051,0.6,1.95
			c0.267,0.8,0.517,1.45,0.75,1.95l0.2,0.4c-0.467-0.601-0.733-0.967-0.8-1.101c-0.233-0.399-0.417-0.866-0.55-1.399L2.6,72
			L3.05,73.35z"/>
		<path style="fill-rule:evenodd;clip-rule:evenodd;fill:#39342F;" d="M2,65l-1.5-0.05l-0.15-0.9l4.45-0.1
			c3.233-0.033,5.417,0,6.55,0.1c1.833,0.167,8,0.25,18.5,0.25c1.833,0,6.216,0.134,13.15,0.4c6.9,0.233,11.517,0.35,13.85,0.35
			c4.5,0,13,0.167,25.5,0.5l-0.149,1.4c-0.367,0-0.634,0.017-0.8,0.05c-0.9,0.133-1.467,0.434-1.7,0.9l-7.5-0.65
			C69.934,67.083,67.883,67,66.05,67h-0.1c-1.233,0-2.45-0.05-3.65-0.15L60.05,66.7c-2.7-0.134-5.399-0.233-8.1-0.3L44.6,66.35
			c-5.233,0.067-9.149-0.017-11.75-0.25c-2-0.166-4.8-0.267-8.4-0.3c-3.967,0-6.784-0.05-8.45-0.149c-1.033,0.033-1.8,0.05-2.3,0.05
			H2.05L2,65z"/>
		<path style="fill-rule:evenodd;clip-rule:evenodd;fill:#39342F;" d="M7.35,69.3l0.05,0.05L6.95,69.15L6.7,69h0.25
			c0.267,0,1.417-0.083,3.45-0.25c0.2-0.033,0.517-0.05,0.95-0.05h38.5c2.067,0,4.101,0.05,6.101,0.149
			c0.899,0.067,2.183,0.134,3.85,0.2c3.467,0.2,6.083,0.3,7.851,0.3l4.3,0.101c3.3,0.066,5.75,0.017,7.35-0.15l0.05-0.5
			c0.101-0.434,0.217-0.733,0.351-0.899c0.233-0.467,0.8-0.768,1.7-0.9c0.166-0.033,0.433-0.05,0.8-0.05l-0.351,2.6l-47,0.25
			c-3.333,0-8.917-0.083-16.75-0.25L7.35,69.3z"/>
		<path style="fill-rule:evenodd;clip-rule:evenodd;fill:#39342F;" d="M0.5,64.95L2,65l0.05,0.7c0,1.533,0.1,3.05,0.3,4.55l0.9,4.9
			c0.133,0.533,0.316,1,0.55,1.399c0.067,0.134,0.333,0.5,0.8,1.101L5,78.2l0.1,0.1c0.3,0.467,0.55,0.967,0.75,1.5
			c0.267,0.566,0.583,1.417,0.95,2.55c0.4,1.167,0.717,2,0.95,2.5c0.566,1.233,1.3,2.4,2.2,3.5c1.7,2.2,3.75,4.017,6.15,5.45
			s4.966,2.4,7.7,2.9l17.3,0.649l0.45-0.05l3.25-0.2H45c0.467-0.066,1.167-0.1,2.1-0.1c0.634,0,1.667-0.117,3.101-0.35
			c0.866,0.133,1.517,0.183,1.95,0.149L52.4,97l0.35,0.45c-2.167,0.533-4.934,1-8.3,1.399c-3.667,0.434-6.534,0.584-8.6,0.45
			c-3.434-0.167-6.95-0.649-10.55-1.45c-4.867-1.1-8.517-2.533-10.95-4.3c-3.233-2.333-5.583-4.267-7.05-5.8
			c-2-2.033-3.233-4.017-3.7-5.95C3.566,81.6,2.533,75.983,0.5,64.95z"/>
		<path style="fill-rule:evenodd;clip-rule:evenodd;fill:#39342F;" d="M6.95,69.75l0.5,0.15c0.8,4.433,2.1,8.399,3.9,11.899
			c1.7,3.3,4.983,6.033,9.85,8.2c5.2,2.366,11.167,3.55,17.9,3.55c5.833,0,10.3-0.45,13.4-1.35c1.533-0.467,2.483-0.934,2.85-1.4
			l0.7,0.95C54.917,94.217,53.9,95.8,53,96.5l-0.3,0.15c-0.033,0-0.217,0.05-0.55,0.149c-0.434,0.033-1.084-0.017-1.95-0.149
			L49.1,96.35c-1.3-0.433-2.85-0.666-4.649-0.699c-2.101,0.033-3.7,0.05-4.8,0.05l-2.55,0.05c-1.733,0-2.784-0.017-3.15-0.05
			l-0.3-0.05c-0.467-0.067-1.067-0.217-1.8-0.45c-0.934-0.3-1.55-0.483-1.85-0.55l-4.65-0.95c-1.367-0.367-2.45-0.767-3.25-1.2
			l-0.15-0.05L21.8,92.35c-1.5-0.866-3.15-1.983-4.95-3.35l-0.5-0.4c-0.467-0.366-1.233-0.883-2.3-1.55
			c-1.5-0.866-2.633-1.667-3.4-2.399L10,83.95C9.3,83.083,8.75,82.1,8.35,81c-0.5-1.233-0.833-2.684-1-4.35l-0.45-3.5
			c-0.133-1.268-0.2-2.25-0.2-2.95v-0.5L6.95,69.75z"/>
	</g>
	<g>
		<path style="fill-rule:evenodd;clip-rule:evenodd;fill:#4A443D;" d="M73.35,52.7c0.5,0.3,0.9,0.6,1.2,0.9l-1.3,0.1l-1.15-1.45
			c-0.566-0.7-0.866-1.067-0.899-1.1C71.7,51.35,72.417,51.867,73.35,52.7z"/>
		<polygon style="fill-rule:evenodd;clip-rule:evenodd;fill:#4A443D;" points="58.05,47.65 57.75,47.05 58.6,47.7 		"/>
		<path style="fill-rule:evenodd;clip-rule:evenodd;fill:#4A443D;" d="M20.3,47.6c1.4-0.4,2.383-0.733,2.95-1
			c0.3-0.133,0.7-0.35,1.2-0.65c0.466-0.2,0.883-0.267,1.25-0.2c0.366,0.066,0.883,0.35,1.55,0.85c0.8,0.6,1.3,0.95,1.5,1.05
			c0.033,0,1.217,0.683,3.55,2.05c1.4,0.8,2.633,1.35,3.7,1.65c0.667,0.167,1.117,0.2,1.35,0.1c0.066-0.034,0.367-0.317,0.9-0.85
			l0.65,0.1c0.867,0.033,1.683-0.35,2.45-1.15c-0.466,0.9-0.833,1.567-1.1,2c-0.633,0.8-1.1,1.4-1.4,1.8l-0.35,0.3
			c-0.3-1.6-0.917-1.933-1.85-1c-0.267,0.267-0.45,0.767-0.55,1.5c-0.9-0.367-1.383-0.55-1.45-0.55c-0.033,0-0.467-0.05-1.3-0.15
			V52.8c-0.034-1.033-0.333-1.633-0.9-1.8c-0.5-0.167-1.317-0.033-2.45,0.4l0.05,0.85c-1.066-0.633-1.883-1.033-2.45-1.2h-0.1
			l-1.15-2.3c-0.133-0.467-0.233-0.75-0.3-0.85c-0.033-0.067-0.367-0.15-1-0.25c-1.3-0.2-1.883,0.233-1.75,1.3
			c-0.4,0.167-0.65,0.15-0.75-0.05c-0.2-0.333-0.35-0.517-0.45-0.55c-0.133-0.067-0.5-0.184-1.1-0.35
			c-0.6-0.133-1.117-0.117-1.55,0.05c-0.367,0.133-0.767,0.45-1.2,0.95c-0.867,0.967-1.267,2.283-1.2,3.95l-0.7,0.5
			c-0.833,0.666-1.483,1.149-1.95,1.45c-0.133-0.134-0.667-0.584-1.6-1.351l-0.05-1.9l0.4-0.25c2.333-1.5,3.75-2.383,4.25-2.65
			C18.066,48.383,19.033,48,20.3,47.6z"/>
		<path style="fill-rule:evenodd;clip-rule:evenodd;fill:#4A443D;" d="M49.5,47.35l-0.1-1.9c0.732-0.067,1.3-0.1,1.699-0.1h0.551
			L51.8,47.4L49.5,47.35z"/>
		<path style="fill-rule:evenodd;clip-rule:evenodd;fill:#4A443D;" d="M55.95,45.75c0.233,0.033,1.083,0.05,2.55,0.05
			c1.066,0.033,1.9,0.133,2.5,0.3c0.033,0,0.2,0.05,0.5,0.15l1.85,1.2c0.334,0.3,0.834,0.733,1.5,1.3
			c0.567,0.533,1.084,0.917,1.551,1.15l0.449,0.25c-2.1-0.3-4.3-0.55-6.6-0.75c-0.467-0.033-2.55-0.05-6.25-0.05
			c-4.066,0-6.333,0.017-6.8,0.05c-2.467,0.233-4.55,0.933-6.25,2.1c-0.9,0.833-1.6,1.45-2.1,1.85c0.3-0.4,0.767-1,1.4-1.8
			c0.267-0.433,0.633-1.1,1.1-2c-0.767,0.8-1.583,1.184-2.45,1.15l-0.65-0.1l0.2-0.2c1.033-1.033,2.683-2.05,4.95-3.05l-1.051,1.1
			c0.334-0.2,0.684-0.35,1.051-0.45c1.566-0.367,3.6-0.583,6.1-0.65l9.1,0.35l-0.85-0.65C57.083,46.483,56.483,46.05,55.95,45.75z"
			/>
		<path style="fill-rule:evenodd;clip-rule:evenodd;fill:#4A443D;" d="M9.7,53.05c0.3-0.1,0.8-0.3,1.5-0.6l1.6,1.1
			c0.934,0.767,1.467,1.217,1.6,1.351c-0.867,0.5-1.617,0.633-2.25,0.399C11.75,55.133,10.933,54.383,9.7,53.05z"/>
		<path style="fill-rule:evenodd;clip-rule:evenodd;fill:#39342F;" d="M72.35,48.3c1.067,0.633,2.4,2.717,4,6.25
			c0.834,1.833,1.334,3.083,1.5,3.75l-0.899,1.15c-0.233-0.334-0.417-0.867-0.55-1.601C76.233,56.95,76.116,56.4,76.05,56.2
			c-0.533-1.267-1.033-2.134-1.5-2.6c-0.3-0.3-0.7-0.6-1.2-0.9c-0.933-0.833-1.649-1.35-2.149-1.55
			c-0.334-0.233-0.733-0.383-1.2-0.45l-3.15-0.55L66.4,49.9c-0.467-0.233-0.983-0.617-1.551-1.15c-0.666-0.567-1.166-1-1.5-1.3
			l3.75,2.6l2.15-1.15C70.783,48.2,71.816,48,72.35,48.3z"/>
		<path style="fill-rule:evenodd;clip-rule:evenodd;fill:#39342F;" d="M9.4,52.75c-0.2-0.2-0.45-0.567-0.75-1.1l0.95-1.1l4.7-2.5
			c3.333-1.733,5.517-2.816,6.55-3.25c1.667-0.667,3.083-1.083,4.25-1.25l11,6.25l7.25-3.5c0.667-0.333,2.917-1.25,6.75-2.75
			l4.15,0.5c2.9,0.434,4.767,0.85,5.6,1.25c0.9,0.5,1.45,0.817,1.65,0.95c-0.3-0.1-0.467-0.15-0.5-0.15
			c-0.6-0.167-1.434-0.267-2.5-0.3c-1.467,0-2.316-0.017-2.55-0.05L55.35,45.7c-1.166-0.233-2.399-0.35-3.699-0.35H51.1
			c-0.399,0-0.967,0.033-1.699,0.1c-1.7,0.2-3.268,0.633-4.7,1.3l-1.3,0.6c-2.268,1-3.917,2.017-4.95,3.05l-0.2,0.2
			c-0.533,0.533-0.833,0.816-0.9,0.85c-0.233,0.1-0.684,0.066-1.35-0.1c-1.067-0.3-2.3-0.85-3.7-1.65
			c-2.333-1.367-3.517-2.05-3.55-2.05c-0.2-0.1-0.7-0.45-1.5-1.05c-0.667-0.5-1.184-0.784-1.55-0.85c-0.367-0.067-0.784,0-1.25,0.2
			c-0.5,0.3-0.9,0.517-1.2,0.65c-0.567,0.267-1.55,0.6-2.95,1c-1.267,0.4-2.233,0.783-2.9,1.15c-0.5,0.267-1.917,1.15-4.25,2.65
			l-0.4,0.25l-1.55,0.8c-0.7,0.3-1.2,0.5-1.5,0.6L9.4,52.75z"/>
		<path style="fill-rule:evenodd;clip-rule:evenodd;fill:#39342F;" d="M7.85,52.55l0.8-0.9c0.3,0.533,0.55,0.9,0.75,1.1l0.3,0.3
			c1.233,1.333,2.05,2.083,2.45,2.25c0.633,0.233,1.383,0.101,2.25-0.399c0.467-0.301,1.117-0.784,1.95-1.45l0.7-0.5
			c1.9-1.367,3.05-2.167,3.45-2.4c1.467-0.9,2.633-1.283,3.5-1.15c0.566,0.1,1.5,0.583,2.8,1.45c-1.133-0.267-1.85-0.417-2.15-0.45
			c-0.633-0.067-1.15-0.017-1.55,0.15c-0.567,0.267-1.883,1.083-3.95,2.45c-2.167,1.434-3.6,2.45-4.3,3.05l-2.5,2L7.85,52.55z"/>
		<path style="fill-rule:evenodd;clip-rule:evenodd;fill:#39342F;" d="M71.2,51.15c0.033,0.033,0.333,0.4,0.899,1.1l1.15,1.45
			c2,2.5,3.2,4.45,3.6,5.85l-1.75,2c-0.166-1.233-0.449-2.55-0.85-3.95c-0.8-2.733-1.767-4.417-2.9-5.05
			c-1.133-0.633-2.6-0.816-4.399-0.55L64.6,52.55c-0.899-0.5-2.033-1-3.399-1.5c-2.7-1-5.15-1.5-7.351-1.5
			c-6.633,0-10.717,1.083-12.25,3.25c-0.733,1.033-1.616,2.134-2.649,3.3l-1.35,1.45c-2.434-1.899-4.65-3.483-6.65-4.75l1.75,0.6
			l0.65,0.05c0.833,0.1,1.267,0.15,1.3,0.15c0.067,0,0.55,0.183,1.45,0.55c0.433,0.166,0.733,0.232,0.9,0.199
			c0.433,0,0.933-0.233,1.5-0.7l0.35-0.3c0.5-0.4,1.2-1.017,2.1-1.85c1.7-1.167,3.783-1.867,6.25-2.1
			c0.467-0.033,2.733-0.05,6.8-0.05c3.7,0,5.783,0.017,6.25,0.05c2.3,0.2,4.5,0.45,6.6,0.75L70,50.7
			C70.467,50.767,70.866,50.917,71.2,51.15z"/>
	</g>
	<g>
		<path style="fill-rule:evenodd;clip-rule:evenodd;fill:#4A443D;" d="M23.9,28.9c0.167-0.033,0.483-0.117,0.95-0.25
			c0.466-0.2,1.083-0.533,1.85-1l0.05,4.05c-2.434,0.3-4.233,0.4-5.4,0.3l-1.1,0.1c-0.033-0.5,0-1.367,0.1-2.6l0.15-1.4l2.85,1.25
			C23.45,29.117,23.633,28.967,23.9,28.9z"/>
		<path style="fill-rule:evenodd;clip-rule:evenodd;fill:#4A443D;" d="M49.05,32.75l-1.149,0.1c0.366-0.6,0.75-1,1.149-1.2
			c0.9-0.533,1.4-0.867,1.5-1c0.467-0.5,0.367-1.067-0.3-1.7c-0.2-0.2-0.566-0.333-1.1-0.4c1-0.4,1.982-0.333,2.949,0.2
			c0.934,0.533,2,1.4,3.2,2.6c1.566,1.533,2.583,2.483,3.05,2.85c-0.333-0.2-1.033-0.55-2.1-1.05c-0.3-0.533-0.667-0.95-1.1-1.25
			c-0.5-0.3-0.983-0.383-1.45-0.25c-0.467,0.1-0.851,0.35-1.15,0.75C51.75,32.4,50.583,32.517,49.05,32.75z"/>
		<path style="fill-rule:evenodd;clip-rule:evenodd;fill:#4A443D;" d="M40.35,31.25c0.233,0.133,0.633,0.417,1.2,0.85
			c0.533,0.367,0.983,0.566,1.351,0.6l-1,2c-0.567,0.433-0.984,0.633-1.25,0.6c-0.233-0.033-0.683-0.383-1.35-1.05v-0.9
			c-0.066,0.1-0.133,0.316-0.2,0.65l-0.45-0.4c-0.5-0.434-1.183-0.817-2.05-1.15l-0.15-1.05c-0.3-1.533-0.45-2.317-0.45-2.35
			C36.9,29.65,38.35,30.383,40.35,31.25z"/>
		<path style="fill-rule:evenodd;clip-rule:evenodd;fill:#4A443D;" d="M29,27.45c-0.967,0.066-1.667,0.083-2.1,0.05
			c1.233-0.667,2.083-1.05,2.55-1.15c0.366-0.067,0.85-0.117,1.45-0.15c0.633,0,1.117,0.033,1.45,0.1c0.533,0.133,1.2,0.6,2,1.4
			l-0.1-0.05c-0.934-0.1-1.467,0.183-1.6,0.85c-0.3,1.3-0.483,2-0.55,2.1c-0.7,1.1-1.133,1.017-1.3-0.25
			c-0.066-1.6-0.117-2.583-0.15-2.95C30.383,27.367,29.833,27.383,29,27.45z"/>
		<path style="fill-rule:evenodd;clip-rule:evenodd;fill:#4A443D;" d="M58.85,34.6l1.75,1.15l-0.949,0.5V35.7
			C59.55,35.3,59.283,34.933,58.85,34.6z"/>
		<path style="fill-rule:evenodd;clip-rule:evenodd;fill:#39342F;" d="M24.85,28.65c-0.467,0.133-0.784,0.217-0.95,0.25
			c-0.267,0.067-0.45,0.217-0.55,0.45L20.5,28.1c3.767-1.267,6.8-2.2,9.1-2.8c1.767-0.433,3.566-0.133,5.4,0.9
			c1.133,0.633,2.417,1.667,3.85,3.1c1.333,1.333,2.5,2.167,3.5,2.5l3.101-2.85c2.2-1.934,3.666-2.9,4.399-2.9
			c0.801,0,2.317,0.567,4.551,1.7c2,1,3.566,1.933,4.699,2.8l4.5,3.5l-3,1.7l-1.75-1.15l-0.5-0.4
			c-0.467-0.367-1.483-1.317-3.05-2.85c-1.2-1.2-2.267-2.067-3.2-2.6c-0.967-0.533-1.949-0.6-2.949-0.2
			c-0.634,0.3-1.367,0.783-2.2,1.45c-0.767,0.7-1.384,1.25-1.851,1.65c-0.866,0.667-1.566,1.017-2.1,1.05h-0.1
			c-0.367-0.034-0.817-0.233-1.351-0.6c-0.566-0.434-0.967-0.717-1.2-0.85c-2-0.867-3.45-1.6-4.35-2.2l-0.45-0.3l-1.2-1.05
			c-0.8-0.8-1.467-1.267-2-1.4c-0.333-0.066-0.817-0.1-1.45-0.1c-0.6,0.033-1.083,0.083-1.45,0.15c-0.467,0.1-1.317,0.483-2.55,1.15
			l-0.2,0.15C25.933,28.117,25.316,28.45,24.85,28.65z"/>
		<path style="fill-rule:evenodd;clip-rule:evenodd;fill:#39342F;" d="M18.4,32.25L21.35,32c1.167,0.1,2.966,0,5.4-0.3h0.95
			c0.6,0,1.483-0.017,2.65-0.05c1.066-0.033,1.95-0.017,2.65,0.05c1.267,0.066,2.467,0.316,3.6,0.75
			c0.867,0.333,1.55,0.716,2.05,1.15L39.1,34l0.2,0.25c0.667,0.667,1.117,1.017,1.35,1.05c0.267,0.033,0.683-0.167,1.25-0.6
			c1.1-0.934,1.699-1.417,1.8-1.45c0.5-0.2,1.166-0.333,2-0.4c0.166,0,0.899,0,2.2,0l1.149-0.1c1.533-0.233,2.7-0.35,3.5-0.35
			c1.3,0,2.483,0.233,3.55,0.7l0.15,0.05c1.066,0.5,1.767,0.85,2.1,1.05l0.5,0.4c0.434,0.333,0.7,0.7,0.801,1.1v0.55L58.6,36.8
			c-0.5-0.5-1.116-1.017-1.85-1.55c-1.5-1.033-2.884-1.6-4.15-1.7c-1.366-0.1-2.983,0.217-4.85,0.95c-1.6,0.667-2.9,1.433-3.9,2.3
			l-3.5,2.75c-1.5-3.167-2.833-5-4-5.5c-0.934-0.4-2.034-0.783-3.3-1.15c-1.367-0.4-2.35-0.6-2.95-0.6c-0.967,0-2.167,0.15-3.6,0.45
			c-1.9,0.367-3.283,0.883-4.15,1.55c-0.833,0.633-1.583,1.117-2.25,1.45l-0.75,0.3L18.4,32.25z"/>
	</g>
	<g>
		<path style="fill-rule:evenodd;clip-rule:evenodd;fill:#4A443D;" d="M40.75,12.35c-2.233,0.167-3.9,0.867-5,2.1L35.7,14.5
			c-0.2-0.633-0.434-1.75-0.7-3.35l0.35-0.2c1.966-1.2,4.15-1.934,6.55-2.2L40.75,12.35z"/>
		<path style="fill-rule:evenodd;clip-rule:evenodd;fill:#4A443D;" d="M32.4,19.35l-0.05-0.15c0.033-0.267,0.333-1.934,0.9-5l-0.2,2
			c0,0.267,0.017,0.866,0.05,1.8C33.033,18.833,32.8,19.283,32.4,19.35z"/>
		<path style="fill-rule:evenodd;clip-rule:evenodd;fill:#4A443D;" d="M49.65,13.1L49.6,13c-0.399-0.5-1.133-0.75-2.199-0.75
			C47.333,10.783,47.316,9.7,47.35,9c2.9,0.533,4.884,1.717,5.95,3.55L53,15.5c-0.033,0.7,0,1.917,0.1,3.65
			c0.101,1.633,0.117,2.883,0.051,3.75c-0.4-0.333-0.95-0.567-1.65-0.7c0.3-0.4,0.483-0.8,0.55-1.2c0.167-1.067,0.184-2.3,0.05-3.7
			c-0.133-1.3-0.383-2.483-0.75-3.55C50.75,12.05,50.184,11.833,49.65,13.1z"/>
		<path style="fill-rule:evenodd;clip-rule:evenodd;fill:#39342F;" d="M47.35,9C46.184,8.733,45.066,8.633,44,8.7l-2.1,0.05
			c-2.4,0.267-4.584,1-6.55,2.2L35,11.15c-0.5,0.333-0.867,0.65-1.1,0.95c-0.267,0.4-0.45,0.917-0.55,1.55l-0.1,0.55
			c-0.567,3.066-0.867,4.733-0.9,5c-0.034,0.6-0.034,1.2,0,1.8H32.3l-1.25-0.7c-0.2-3.2,0.4-6.283,1.8-9.25
			c1.033-2.2,2.6-3.767,4.7-4.7c1.033-0.5,1.967-0.767,2.8-0.8c8.333-0.633,13.3,2.383,14.9,9.05c0.767,3.333,0.717,6.733-0.15,10.2
			L53.7,23.4c0.3-0.5,0.517-0.883,0.649-1.15c0.233-0.467,0.351-0.9,0.351-1.3c0-0.833-0.084-1.884-0.25-3.15
			c-0.2-1.4-0.351-2.433-0.45-3.1c-0.1-0.733-0.333-1.45-0.7-2.15C52.233,10.717,50.25,9.533,47.35,9z"/>
		<path style="fill-rule:evenodd;clip-rule:evenodd;fill:#39342F;" d="M35.8,22.85l-1.85-1.3c0.233-0.5,0.383-1.3,0.45-2.4
			c0.1-1.267,0.2-2.067,0.3-2.4c0.267-1,0.6-1.75,1-2.25l0.05-0.05c1.1-1.233,2.767-1.934,5-2.1h4.65c0.399,0,1.066-0.034,2-0.1
			c1.066,0,1.8,0.25,2.199,0.75l0.051,0.1c0.267,0.4,0.449,1.1,0.55,2.1c0.066,0.533,0.116,1.25,0.149,2.15
			c0.167,1.533,0.134,3.083-0.1,4.65v0.15c-0.566,0.033-1.184,0.1-1.85,0.2l-0.801,0.2c0.334-0.467,0.65-1.066,0.95-1.8
			c0.566-1.5,0.75-2.983,0.55-4.45c-0.233-1.667-1.616-2.65-4.149-2.95c-2.4-0.267-4.6,0.133-6.6,1.2
			c-2.267,1.233-3.017,4.033-2.25,8.4L35.8,22.85z"/>
	</g>
	<g>
		<path style="fill-rule:evenodd;clip-rule:evenodd;fill:#B1A89C;" d="M17.15,39.65c-0.167-0.067-0.35-0.067-0.55,0
			c-0.233,0.1-0.4,0.133-0.5,0.1c-0.133-0.067-0.284-0.2-0.45-0.4c-0.2-0.3-0.317-0.467-0.35-0.5c-0.033-0.034-0.066-0.1-0.1-0.2
			c0-0.033-0.117-0.083-0.35-0.15H14c-0.333-0.033-0.833-0.2-1.5-0.5c-0.434-0.267-0.733-0.55-0.9-0.85
			c-0.133-0.267-0.2-0.667-0.2-1.2l8.05-2.35c0.066,0.1,0.366,0.267,0.9,0.5c1.2,0.7,1.833,1.367,1.9,2
			c0.033,0.466-0.033,0.966-0.2,1.5c-0.1,0.533-0.167,0.833-0.2,0.9c-0.133,0.267-0.367,0.383-0.7,0.35
			c-0.5-0.1-0.883-0.167-1.15-0.2c-0.434-0.067-0.75,0.083-0.95,0.45c-0.1,0.2-0.15,0.533-0.15,1c0,0.267,0.017,0.617,0.05,1.05
			c0,0.067-0.05,0.65-0.15,1.75c-0.167-0.167-0.383-0.733-0.65-1.7C17.883,40.367,17.55,39.85,17.15,39.65z"/>
		<path style="fill-rule:evenodd;clip-rule:evenodd;fill:#59514A;" d="M22.3,26.75c1.067,1.433,1.667,2.7,1.8,3.8
			c0.2,1.633,0.2,2.8,0,3.5c-0.367,1.333-1.367,2.434-3,3.3c-1.667,0.9-3.617,1.15-5.85,0.75c-1.767-0.3-3.017-0.8-3.75-1.5
			c-0.667-0.667-1-2.934-1-6.8c0-1.833,0.767-3.267,2.3-4.3c2.333-1.533,4.6-1.95,6.8-1.25C20.367,24.517,21.267,25.35,22.3,26.75z"
			/>
		<path style="fill-rule:evenodd;clip-rule:evenodd;fill:#39342F;" d="M24.1,30.55c0.2,1.633,0.2,2.8,0,3.5
			c-0.367,1.333-1.367,2.434-3,3.3c-1.667,0.9-3.617,1.15-5.85,0.75c-1.767-0.3-3.017-0.8-3.75-1.5c-0.667-0.667-1-2.934-1-6.8
			c0-1.833,0.767-3.267,2.3-4.3c1.033-0.7,2.017-1.15,2.95-1.35c-1.3,0.933-2.083,1.533-2.35,1.8l-0.45,0.25
			c-1.467,1.267-2.017,3.1-1.65,5.5c0.333,2.4,1.417,3.933,3.25,4.6c1.867,0.733,3.733,0.833,5.6,0.3
			c2.067-0.567,3.317-1.817,3.75-3.75c0.333-1.467,0.067-2.983-0.8-4.55c-0.767-1.433-1.833-2.583-3.2-3.45l-0.8-0.4
			c0-0.134-0.05-0.25-0.15-0.35l0.65,0.15c0.767,0.267,1.667,1.1,2.7,2.5C23.367,28.183,23.967,29.45,24.1,30.55z"/>
		<path style="fill-rule:evenodd;clip-rule:evenodd;fill:#39342F;" d="M16.15,33.2c0.333,0.333,0.75,0.5,1.25,0.5
			s0.933-0.167,1.3-0.5c0.333-0.367,0.5-0.8,0.5-1.3c0-0.467-0.167-0.883-0.5-1.25c-0.367-0.333-0.8-0.5-1.3-0.5
			s-0.917,0.167-1.25,0.5c-0.367,0.367-0.55,0.783-0.55,1.25C15.6,32.4,15.783,32.833,16.15,33.2z M21.35,28
			c1.1,1.066,1.65,2.367,1.65,3.9c0,1.567-0.55,2.883-1.65,3.95c-1.067,1.1-2.383,1.65-3.95,1.65c-1.533,0-2.85-0.55-3.95-1.65
			c-1.1-1.067-1.65-2.383-1.65-3.95c0-1.533,0.55-2.833,1.65-3.9c1.1-1.1,2.417-1.65,3.95-1.65S20.25,26.9,21.35,28z"/>
	</g>
	<g>
		<path style="fill-rule:evenodd;clip-rule:evenodd;fill:#B1A89C;" d="M63.45,51.4c0.267,0.233,0.899,0.367,1.899,0.4
			c1.334,0.367,2.084,0.85,2.25,1.45v1.1c0,0.634-0.166,1.033-0.5,1.2c-0.233,0.134-0.717,0.2-1.449,0.2
			c-0.967,0-1.7-0.017-2.2-0.05c-0.9-0.033-1.634-0.15-2.2-0.351c-0.267-0.066-0.617-0.3-1.05-0.699
			c-0.367-0.334-0.684-0.534-0.95-0.601c-0.267-0.033-0.75,0.101-1.45,0.4c-0.866,0.399-2.133,0.767-3.8,1.1
			c0.133-0.533,0.45-0.75,0.95-0.649L63.45,51.4z"/>
		<path style="fill-rule:evenodd;clip-rule:evenodd;fill:#39342F;" d="M67.65,51.45l1.949-2c0.033,0.1,0,0.35-0.1,0.75
			c-0.066,0.7-0.15,1.733-0.25,3.1c-0.134,0.733-0.333,1.617-0.6,2.65c-0.167,0.6-0.417,1.483-0.75,2.649
			c0.066-0.666,0.1-1.683,0.1-3.05c0.066-0.934,0.066-1.65,0-2.15C67.767,52.533,67.65,51.883,67.65,51.45z"/>
		<path style="fill-rule:evenodd;clip-rule:evenodd;fill:#B1A89C;" d="M70.35,42.3c1,0.3,1.817,0.767,2.45,1.4
			c0.733,0.733,1.083,1.566,1.05,2.5c0,1.4-0.033,2.233-0.1,2.5c-0.033,0.3-0.083,0.65-0.15,1.05c-0.1,0.333-0.267,0.633-0.5,0.9
			c-0.399,0.433-1.033,0.983-1.899,1.65c-0.367,0.267-0.717,0.417-1.05,0.45c-0.233,0.033-0.534,0.117-0.9,0.25
			c-0.634,0.066-1.117,0.15-1.45,0.25c-0.767,0.267-1.633,0.383-2.6,0.35c-1.101-0.034-1.95-0.267-2.55-0.7L70.35,42.3z"/>
		<path style="fill-rule:evenodd;clip-rule:evenodd;fill:#59514A;" d="M61.25,41.15c2.366-1.567,4.633-1.983,6.8-1.25
			c0.8,0.267,1.717,1.1,2.75,2.5c1.066,1.433,1.667,2.7,1.8,3.8c0.2,1.633,0.2,2.8,0,3.5c-0.366,1.333-1.366,2.433-3,3.3
			c-1.666,0.867-3.6,1.116-5.8,0.75c-1.733-0.333-3-0.833-3.8-1.5c-0.934-0.833-1.384-1.967-1.35-3.4c0.232-1.6,0.35-2.733,0.35-3.4
			C59,43.617,59.75,42.183,61.25,41.15z"/>
		<path style="fill-rule:evenodd;clip-rule:evenodd;fill:#39342F;" d="M59,45.45c0-1.733,0.717-3.134,2.15-4.2
			c-0.834,2.066-1.233,4.017-1.2,5.85c0.033,2.333,0.8,3.983,2.3,4.95c1.7,1.1,3.616,1.367,5.75,0.8c2.133-0.567,3.7-1.75,4.7-3.55
			c-0.3,1.5-1.334,2.733-3.101,3.7c-1.666,0.867-3.6,1.116-5.8,0.75c-1.733-0.333-3-0.833-3.8-1.5
			c-0.934-0.833-1.384-1.967-1.35-3.4C58.883,47.25,59,46.117,59,45.45z"/>
		<path style="fill-rule:evenodd;clip-rule:evenodd;fill:#39342F;" d="M65.7,42.05c1.366,0,2.533,0.5,3.5,1.5
			c0.967,0.967,1.45,2.15,1.45,3.55c0,1.267-0.4,2.383-1.2,3.35c-0.8,0.933-1.8,1.5-3,1.7c1.166-0.4,1.983-1.167,2.45-2.3
			c0.466-1.133,0.383-2.017-0.25-2.65c-0.567-0.6-1.134-0.7-1.7-0.3c-0.533,0.367-0.783,1-0.75,1.9
			c0.066,0.934-0.283,1.633-1.05,2.1c-0.768,0.433-1.601,0.45-2.5,0.05c-0.534-0.233-0.983-0.717-1.351-1.45
			c-0.366-0.733-0.55-1.533-0.55-2.4c0-1.4,0.483-2.583,1.45-3.55C63.167,42.55,64.333,42.05,65.7,42.05z"/>
	</g>
	<g>
		<path style="fill-rule:evenodd;clip-rule:evenodd;fill:#59514A;" d="M18,60.75c1.633-1.167,3.267-1.7,4.9-1.6
			c0.533,0.033,1.583,0.316,3.15,0.85c0.733,0.233,1.45,0.983,2.15,2.25c0.633,1.167,1.017,2.35,1.15,3.55c0.2,1.634,0.2,2.8,0,3.5
			c-0.367,1.333-1.367,2.434-3,3.3c-1.9,1-3.784,1.434-5.65,1.301c-1.9-0.134-3.217-0.817-3.95-2.051c-0.667-1.1-1-3.366-1-6.8
			C15.75,63.283,16.5,61.85,18,60.75z"/>
		<path style="fill-rule:evenodd;clip-rule:evenodd;fill:#39342F;" d="M16.8,67.55c0.133,1.9,1.05,3.3,2.75,4.2
			c1.434,0.8,3.133,1.1,5.1,0.9c0.933-0.101,1.733-0.268,2.4-0.5l-0.7,0.449c-1.9,1-3.784,1.434-5.65,1.301
			c-1.9-0.134-3.217-0.817-3.95-2.051c-0.667-1.1-1-3.366-1-6.8c0-1.767,0.75-3.2,2.25-4.3c1.3-0.934,2.633-1.467,4-1.6l-0.95,0.8
			c-1.433,0.5-2.533,1.5-3.3,3C16.983,64.35,16.667,65.883,16.8,67.55z"/>
		<path style="fill-rule:evenodd;clip-rule:evenodd;fill:#39342F;" d="M18.7,67.4c-0.434-1.567-0.134-2.967,0.9-4.2
			c1.066-1.233,2.417-1.767,4.05-1.601c1,0.533,1.333,1.051,1,1.551c-0.467,0.8-1.083,1.149-1.85,1.05h-0.3
			c-0.1,0.633,0.167,1.2,0.8,1.7c0.7,0.533,1.35,0.732,1.95,0.6l-0.05-0.25c-0.134-0.5-0.117-0.917,0.05-1.25
			c0.1-0.2,0.333-0.45,0.7-0.75c0.433-0.4,1-0.167,1.7,0.7c0.433,1.566,0.117,2.967-0.95,4.2c-0.967,1.232-2.3,1.783-4,1.649
			c-0.967-0.6-1.3-1.133-1-1.6c0.5-0.767,1.116-1.117,1.85-1.05h0.3c0-0.534-0.333-1.117-1-1.75c-0.6-0.567-1.184-0.75-1.75-0.551
			l0.05,0.301c0.133,0.466,0.117,0.866-0.05,1.199c-0.1,0.167-0.333,0.434-0.7,0.801C19.933,68.55,19.367,68.3,18.7,67.4z"/>
	</g>
	<g>
		<path style="fill-rule:evenodd;clip-rule:evenodd;fill:#B1A89C;" d="M46.05,4.55c0.101-0.066,0.55,0.233,1.351,0.9
			c0.399,0.333,0.8,0.667,1.199,1c1.067,1,1.634,1.816,1.7,2.45c0.066,0.7-0.033,1.283-0.3,1.75c-0.066,0.2-0.267,0.483-0.6,0.85
			l-0.5,0.95c-0.2,0.333-0.551,0.683-1.051,1.05c-0.666,0.467-1.149,0.75-1.449,0.85l-0.801,0.2c-0.3,0.133-1,0.2-2.1,0.2
			c-1.033,0-1.816,0.133-2.35,0.4c-0.434,0.133-0.734,0.133-0.9,0L39.9,14.7l-0.4-0.15l-0.4-0.3c-0.434-0.333-0.767-0.583-1-0.75
			c-0.333-0.267-0.55-0.533-0.65-0.8c-0.467-0.867-0.6-1.467-0.4-1.8L46.05,4.55z"/>
		<path style="fill-rule:evenodd;clip-rule:evenodd;fill:#59514A;" d="M46.05,0.6c0.733,0.233,1.434,0.983,2.101,2.25
			C48.783,4.017,49.167,5.2,49.3,6.4c0.2,1.633,0.2,2.8,0,3.5c-0.366,1.333-1.366,2.433-3,3.3c-1.8,0.966-3.616,1.35-5.45,1.15
			c-1.7-0.2-3.083-0.833-4.15-1.9c-0.667-0.667-1-2.934-1-6.8c0-1.833,0.75-3.267,2.25-4.3C40.25-0.15,42.95-0.4,46.05,0.6z"/>
		<path style="fill-rule:evenodd;clip-rule:evenodd;fill:#39342F;" d="M42.45,2c1.066,0,2.033,0.316,2.899,0.95
			c0.834,0.633,1.4,1.45,1.7,2.45c0,0.533-0.149,0.9-0.45,1.1c-0.366,0.233-0.983,0.2-1.85-0.1c-1.134-0.4-1.867-0.6-2.2-0.6
			l-0.1-0.05L42.4,5.8c-0.334,0-1.051,0.2-2.15,0.6c-0.9,0.3-1.533,0.333-1.9,0.1s-0.517-0.6-0.45-1.1c0.267-1,0.833-1.817,1.7-2.45
			C40.433,2.316,41.383,2,42.45,2z"/>
		<path style="fill-rule:evenodd;clip-rule:evenodd;fill:#39342F;" d="M42.5,6.45c0.434,0.033,0.8,0.283,1.1,0.75
			c0.167,0.2,0.384,0.65,0.65,1.35c0.333,0.733,0.517,1.184,0.55,1.35c0.101,0.533-0.133,0.967-0.7,1.3l-0.25,0.1
			c-0.399,0.133-0.866,0.2-1.399,0.2s-0.983-0.067-1.351-0.2l-0.25-0.1c-0.567-0.333-0.8-0.767-0.7-1.3c0-0.1,0.167-0.55,0.5-1.35
			c0.367-0.767,0.6-1.217,0.7-1.35c0.301-0.467,0.667-0.717,1.101-0.75H42.5z"/>
	</g>
	<g>
		<path style="fill-rule:evenodd;clip-rule:evenodd;fill:#B1A89C;" d="M60.5,91.5c1,0.267,1.7,0.517,2.1,0.75
			c0.667,0.366,1.117,0.883,1.351,1.55c0.333,0.967,0.5,1.55,0.5,1.75c0,0.767-0.084,1.351-0.25,1.75
			c-0.101,0.267-0.267,0.5-0.5,0.7c-0.267,0.2-0.483,0.383-0.65,0.55c-0.399,0.533-0.717,0.917-0.95,1.15l-0.85,0.649l-0.35,0.2
			c-0.101,0.167-0.134,0.351-0.101,0.55l-0.5,1.4c-0.2,0.6-0.35,1.417-0.45,2.45c-0.133,1.233-0.25,2.033-0.35,2.399
			c-0.066-0.1-0.1-0.433-0.1-1c-0.067-0.833-0.117-1.467-0.15-1.899c-0.1-1.667-0.184-2.917-0.25-3.75c0-0.967-0.2-1.55-0.6-1.75
			c-0.4-0.2-0.917-0.084-1.551,0.35c-0.433,0.5-0.8,0.833-1.1,1c-0.267,0.134-0.733,0.167-1.4,0.101
			c-0.433-0.034-0.699-0.018-0.8,0.05c-0.167,0.1-0.267,0.366-0.3,0.8c-0.025,0.249-0.042,0.841-0.05,1.775
			c-0.009-0.934-0.025-1.476-0.05-1.625c-0.067-0.9-0.184-1.534-0.351-1.9c-0.8,0.233-1.467,0.217-2-0.05
			c-0.2-0.134-0.517-0.55-0.95-1.25c-0.033-0.101-0.05-0.483-0.05-1.15L60.5,91.5z"/>
		<path style="fill-rule:evenodd;clip-rule:evenodd;fill:#59514A;" d="M51.6,86.5c2.233-1.5,4.5-1.917,6.801-1.25
			c2.633,0.733,4.133,2.833,4.5,6.3c0.199,1.634,0.199,2.8,0,3.5c-0.367,1.333-1.367,2.434-3,3.3c-1.7,0.9-3.667,1.167-5.9,0.801
			c-1.867-0.334-3.1-0.851-3.7-1.551c-0.833-1.033-1.25-2.233-1.25-3.6c0.167-1.467,0.25-2.533,0.25-3.2
			C49.3,88.967,50.066,87.533,51.6,86.5z"/>
		<path style="fill-rule:evenodd;clip-rule:evenodd;fill:#39342F;" d="M51.6,86.5l0.351-0.2c-0.667,0.733-1.101,1.8-1.3,3.2
			c-0.101,0.667-0.167,1.917-0.2,3.75L50.3,93.8c-0.3,3.101,1.316,4.583,4.851,4.45c3.399-0.1,6.017-1.333,7.85-3.7
			c-0.233,1.566-1.267,2.833-3.1,3.8c-1.7,0.9-3.667,1.167-5.9,0.801c-1.867-0.334-3.1-0.851-3.7-1.551
			c-0.833-1.033-1.25-2.233-1.25-3.6c0.167-1.467,0.25-2.533,0.25-3.2C49.3,88.967,50.066,87.533,51.6,86.5z"/>
		<path style="fill-rule:evenodd;clip-rule:evenodd;fill:#39342F;" d="M57.05,90.75c-0.3-0.3-0.783-0.316-1.45-0.05
			C54.934,90.967,54.4,91.434,54,92.1c-0.367,0.667-0.867,0.967-1.5,0.9c-0.634-0.1-1.017-0.417-1.15-0.95
			c-0.066-0.366-0.017-0.8,0.15-1.3c0.366-1.033,0.967-1.867,1.8-2.5c0.867-0.667,1.833-1,2.9-1c1.399,0,2.583,0.517,3.55,1.55
			c0.2,0.3,0.316,0.733,0.35,1.3c0,0.733-0.55,1.65-1.649,2.75c-0.334,0.334-0.55,0.667-0.65,1c-0.133,0.334-0.066,0.467,0.2,0.4
			c0.167-0.033,0.383-0.233,0.65-0.6c0.3-0.4,0.6-0.684,0.899-0.851c0.333-0.233,0.667-0.283,1-0.149
			c0.3,0.133,0.467,0.383,0.5,0.75c-0.133,1.267-0.667,2.267-1.6,3c-0.934,0.732-2.101,1.116-3.5,1.149
			c-0.834,0-1.65-0.267-2.45-0.8s-1.184-1.05-1.15-1.55c0.101-1.233,0.967-1.867,2.601-1.9c0.666-0.033,1.267-0.383,1.8-1.05
			C57.25,91.583,57.35,91.083,57.05,90.75z"/>
	</g>
</g>
</svg>
