<?xml version="1.0" encoding="iso-8859-1"?>
<!-- Generator: Adobe Illustrator 16.0.0, SVG Export Plug-In . SVG Version: 6.00 Build 0)  -->
<!DOCTYPE svg PUBLIC "-//W3C//DTD SVG 1.1//EN" "http://www.w3.org/Graphics/SVG/1.1/DTD/svg11.dtd">
<svg version="1.1" id="FlashAICB" xmlns="http://www.w3.org/2000/svg" xmlns:xlink="http://www.w3.org/1999/xlink" x="0px" y="0px"
	 width="5px" height="4.6px" viewBox="0 0 5 4.6" style="enable-background:new 0 0 5 4.6;" xml:space="preserve">
<path style="fill-rule:evenodd;clip-rule:evenodd;fill:#AFACB0;" d="M2.3,1.55V1.6C2.133,1.9,1.917,2.15,1.65,2.35L1.6,2.45
	C1.533,2.583,1.533,2.7,1.6,2.8L2.2,3h0.05l0.5,0.1l0.2-0.05C3.45,2.717,3.616,2.367,3.45,2C3.25,1.7,2.866,1.55,2.3,1.55z
	 M0.15,1.95c0.034-0.167,0.167-0.367,0.4-0.6S0.934,0.934,1,0.8l0.45-0.6c0.5-0.233,1.133-0.233,1.899,0
	C4.083,0.467,4.566,0.85,4.8,1.35c0.267,0.566,0.283,1.133,0.05,1.7C4.65,3.55,4.283,3.967,3.75,4.3
	c-0.5,0.334-1.134,0.384-1.9,0.15C0.95,4.184,0.417,3.9,0.25,3.6C-0.017,3.066-0.05,2.517,0.15,1.95z"/>
</svg>
