<?xml version="1.0" encoding="iso-8859-1"?>
<!-- Generator: Adobe Illustrator 16.0.0, SVG Export Plug-In . SVG Version: 6.00 Build 0)  -->
<!DOCTYPE svg PUBLIC "-//W3C//DTD SVG 1.1//EN" "http://www.w3.org/Graphics/SVG/1.1/DTD/svg11.dtd">
<svg version="1.1" id="FlashAICB" xmlns="http://www.w3.org/2000/svg" xmlns:xlink="http://www.w3.org/1999/xlink" x="0px" y="0px"
	 width="6.2px" height="4.9px" viewBox="0 0 6.2 4.9" style="enable-background:new 0 0 6.2 4.9;" xml:space="preserve">
<path style="fill-rule:evenodd;clip-rule:evenodd;fill:#AFACB0;" d="M4.5,2.9C4.667,2.7,4.717,2.4,4.65,2
	C4.583,1.7,4.066,1.533,3.1,1.5L2.75,1.7l-0.2,0.15L2.35,1.9c-0.133,0.067-0.3,0.217-0.5,0.45c-0.167,0.233-0.267,0.433-0.3,0.6
	l0.7,0.25l1.1,0.149L3.9,3.3C4.2,3.233,4.4,3.1,4.5,2.9z M6.1,1.6c0.2,0.767,0.117,1.45-0.25,2.05C5.45,4.283,4.884,4.667,4.15,4.8
	C3.45,4.967,2.667,4.917,1.8,4.65C0.867,4.384,0.317,4.066,0.15,3.7c-0.267-0.566-0.167-1.233,0.3-2C0.883,1,1.383,0.583,1.95,0.45
	L2.7,0C4.667,0,5.8,0.533,6.1,1.6z"/>
</svg>
