<?xml version="1.0" encoding="iso-8859-1"?>
<!-- Generator: Adobe Illustrator 16.0.0, SVG Export Plug-In . SVG Version: 6.00 Build 0)  -->
<!DOCTYPE svg PUBLIC "-//W3C//DTD SVG 1.1//EN" "http://www.w3.org/Graphics/SVG/1.1/DTD/svg11.dtd">
<svg version="1.1" id="conchAnim" xmlns="http://www.w3.org/2000/svg" xmlns:xlink="http://www.w3.org/1999/xlink" x="0px" y="0px"
	 width="90px" height="90px" viewBox="0 0 90 90" style="enable-background:new 0 0 90 90;" xml:space="preserve">
<symbol  id="conch" viewBox="0.002 -33.613 47.738 33.613">
	<g id="Layer_3_1_">
		<g>
			
				<linearGradient id="SVGID_1_" gradientUnits="userSpaceOnUse" x1="16418.8691" y1="52.0713" x2="16422.9941" y2="52.0713" gradientTransform="matrix(0.0121 0.9999 -1.0003 -0.0174 -101.0654 -16435.541)">
				<stop  offset="0" style="stop-color:#988F7D"/>
				<stop  offset="0.3569" style="stop-color:#C7C2B8"/>
				<stop  offset="0.9922" style="stop-color:#DAD9D6"/>
			</linearGradient>
			<path style="fill-rule:evenodd;clip-rule:evenodd;fill:url(#SVGID_1_);" d="M47.55-15.55l0.15,0.25c-0.1-0.467-0.65-1.133-1.65-2
				c-0.267-0.233-0.533-0.45-0.8-0.65c0.2,0.167,0.4,0.333,0.6,0.5C46.75-16.683,47.317-16.05,47.55-15.55z M44.15-14.25
				c-0.033,0.033-0.05,0.067-0.05,0.1h0.05c0.467-0.033,0.983-0.083,1.55-0.15c-0.4-0.034-0.684-0.117-0.85-0.25
				c-0.167-0.167-0.083-0.3,0.25-0.4c0.4-0.1,0.8-0.133,1.2-0.1c0.434,0.066,0.733,0.2,0.9,0.4l0.05,0.15c0.067,0,0.15,0,0.25,0
				c0.067-0.033,0.117-0.067,0.15-0.1c-0.2-0.367-0.55-0.7-1.05-1c-0.434-0.3-0.75-0.433-0.95-0.4
				c-0.167,0.033-0.383,0.317-0.65,0.85c-0.333,0.566-0.617,0.9-0.85,1V-14.25z"/>
			<path style="fill-rule:evenodd;clip-rule:evenodd;fill:#FBF9F4;" d="M37.65-11.4h0.05c0.333,0.133,0.716,0.167,1.15,0.1
				c0.333-0.034,0.617-0.1,0.85-0.2c0.1-0.067,0.2-0.133,0.3-0.2c0.433-0.333,0.833-0.733,1.2-1.2c0.533,0.033,0.983-0.033,1.35-0.2
				c0.142-0.051,0.283-0.109,0.425-0.175c0.553-0.304,1.044-0.779,1.475-1.425l-1.55,1.15c-0.5,0.2-0.833,0.316-1,0.35h-0.5
				l0.45-0.75c0.033-0.066,0.066-0.15,0.1-0.25c-0.133,0.034-0.284,0.034-0.45,0h-0.05c-0.1,0-0.2-0.017-0.3-0.05
				c-0.3,0.5-0.6,0.967-0.9,1.4L40-12.45c-0.3,0.434-0.55,0.667-0.75,0.7c-0.267,0.133-0.65,0.233-1.15,0.3h-0.35
				c0.067-0.1,0.15-0.2,0.25-0.3l0.35-0.4l0.1-0.15c0.033-0.067,0.083-0.133,0.15-0.2c0.2-0.233,0.383-0.483,0.55-0.75v-0.05
				c0.233-0.333,0.434-0.7,0.6-1.1c-0.2,0-0.4,0-0.6,0L38.9-14c-0.566,0.967-1.05,1.683-1.45,2.15c-0.067,0.1-0.15,0.2-0.25,0.3
				c-0.534,0.6-1.133,0.933-1.8,1l-0.3,0.05l0.95,0.05C36.517-10.483,37.05-10.8,37.65-11.4z M47.25-14.5l-0.05-0.15
				c-0.167-0.2-0.467-0.333-0.9-0.4c-0.4-0.034-0.8,0-1.2,0.1c-0.333,0.1-0.417,0.233-0.25,0.4c0.167,0.133,0.45,0.216,0.85,0.25
				l1.55-0.15V-14.5z M42.95-18.25c-0.3,0.9-0.65,1.75-1.05,2.55c0.1,0.133,0.184,0.233,0.25,0.3c0.067,0.1,0.133,0.183,0.2,0.25
				c0.033-0.133,0.083-0.267,0.15-0.4l0.5-2.6c0-0.033,0-0.083,0-0.15L42.95-18.25z M40.65-17.5l-0.05,0.1l-0.25,0.55
				c0.066,0.067,0.133,0.117,0.2,0.15l0.15-0.55c0-0.133,0.017-0.267,0.05-0.4L40.65-17.5z M31.55-11.6h0.1c0.7-0.1,1-0.333,0.9-0.7
				c-0.033-0.2-0.15-0.383-0.35-0.55c-0.133-0.1-0.267-0.133-0.4-0.1c-0.133,0.067-0.267,0.133-0.4,0.2
				c-0.5,0.133-0.767,0.333-0.8,0.6S30.883-11.7,31.55-11.6z M30.05-18.65c0.633,0.233,0.883,0.167,0.75-0.2
				c-0.167,0-0.483-0.1-0.95-0.3c-0.233-0.1-0.3-0.067-0.2,0.1C29.75-18.883,29.883-18.75,30.05-18.65z M32-15.4
				c-0.033-0.2-0.167-0.3-0.4-0.3c-0.167,0.034-0.233,0.1-0.2,0.2s0.1,0.183,0.2,0.25C31.9-15.15,32.033-15.2,32-15.4z"/>
			<path style="fill-rule:evenodd;clip-rule:evenodd;fill:#B4AC94;" d="M47.7-15.3l-0.15-0.25c-0.267-0.434-0.683-0.767-1.25-1
				c-0.5-0.233-0.783-0.25-0.85-0.05c-0.034,0.167-0.167,0.434-0.4,0.8c-0.133,0.333-0.3,0.667-0.5,1
				c-0.133,0.2-0.267,0.383-0.4,0.55v0.1c0.233-0.1,0.517-0.434,0.85-1c0.267-0.533,0.483-0.817,0.65-0.85
				c0.2-0.033,0.517,0.1,0.95,0.4c0.5,0.3,0.85,0.633,1.05,1C47.75-14.733,47.767-14.967,47.7-15.3z M41.75-18.15
				c-0.167,0-0.3-0.067-0.4-0.2c-0.1-0.167-0.117-0.333-0.05-0.5c0.5,0,0.784,0.033,0.85,0.1c-0.1,0-0.167,0.033-0.2,0.1
				c-0.067,0.1,0,0.15,0.2,0.15l0.15,0.05c0.034,0.034,0.034,0.083,0,0.15c0,0.033-0.05,0.1-0.15,0.2L41.75-18.15z M42.975-21.025
				c-0.053-0.055-0.094-0.113-0.125-0.175l-0.45-0.35h-0.05c-0.067-0.034-0.133-0.05-0.2-0.05c-0.333-0.033-0.566,0.133-0.7,0.5
				c-0.1,0.367-0.25,1.233-0.45,2.6c-0.1,0.767-0.2,1.4-0.3,1.9c0.1,0.1,0.216,0.184,0.35,0.25c0.1-0.367,0.184-0.733,0.25-1.1
				c0.633,0.067,1.017-0.033,1.15-0.3c0.066-0.1,0.083-0.283,0.05-0.55c0-0.3-0.033-0.483-0.1-0.55c-0.033-0.133-0.2-0.3-0.5-0.5
				l-0.1-0.05c0.233-0.533,0.483-0.684,0.75-0.45c0.233,0.267,0.367,0.8,0.4,1.6L43-18.3c0.033-0.333,0.067-0.633,0.1-0.9v-0.3
				c0-0.3,0-0.567,0-0.8c-0.033-0.233-0.067-0.45-0.1-0.65V-21L42.975-21.025z M37-23.8c-0.2-0.833-0.683-1.417-1.45-1.75
				c-0.5-0.233-1.583-0.5-3.25-0.8c-1.233-0.233-2.85-0.25-4.85-0.05c-2.867,0.267-4.6,0.4-5.2,0.4
				c-1.233,0.033-2.683-0.233-4.35-0.8c-0.533-0.2-1.467-0.567-2.8-1.1c-0.267-0.1-0.533-0.217-0.8-0.35
				c-0.066,0-0.133-0.017-0.2-0.05h0.05c-0.467-0.167-0.933-0.367-1.4-0.6c-2.567-1.133-4.05-1.767-4.45-1.9
				c-0.533-0.2-0.9-0.317-1.1-0.35c-0.4-0.033-0.733,0.083-1,0.35c-0.5,0.466-1.15,0.8-1.95,1L3.8-29.65l0.9-0.55
				c0.6-0.5,0.883-1.017,0.85-1.55c-0.064-0.551-0.223-1.043-0.475-1.475L5.05-33.25H5l-0.2-0.1H4.75
				C4.017-33.583,3.3-33.633,2.6-33.5c0.633-0.033,1.15,0.1,1.55,0.4c0.467,0.367,0.684,0.867,0.65,1.5
				c-0.033,0.867-0.417,1.517-1.15,1.95L3.6-29.6c-0.2,0.233-0.383,0.383-0.55,0.45l-0.25,0.1c0.434,0.066,0.917,0.1,1.45,0.1
				c0.333-0.033,0.733-0.183,1.2-0.45c0.466-0.3,0.85-0.45,1.15-0.45c0.367,0.033,1.117,0.317,2.25,0.85
				c1.967,0.9,3.066,1.4,3.3,1.5c1.2,0.5,2.55,1.017,4.05,1.55c-0.367,0.067-0.383,0.284-0.05,0.65c0.3,0.367,0.617,0.566,0.95,0.6
				c0.933,0.034,1.25-0.15,0.95-0.55c2.467,0.967,4.233,1.417,5.3,1.35c0.233-0.033,0.566-0.05,1-0.05
				c0.1,0.034,0.233,0.083,0.4,0.15c0.533,0.167,1.033,0.133,1.5-0.1c0.867,0.1,1.617,0.283,2.25,0.55l1.15,0.45l-0.45-1h0.35
				c-0.066,0.367,0.117,0.6,0.55,0.7c0.2,0.067,0.65,0.1,1.35,0.1c0.8,0,1.167-0.283,1.1-0.85c0.833,0.034,1.65,0.3,2.45,0.8
				c0.967,0.6,1.633,1.45,2,2.55C37.067-21.833,37.067-22.9,37-23.8z M24.25-8.3c0.333-0.1,0.667,0.05,1,0.45
				c0.3,0.4,0.417,0.917,0.35,1.55c-0.167,1.333-0.667,2.2-1.5,2.6c0.033,0.034,0.066,0.05,0.1,0.05c0.066,0,0.167-0.017,0.3-0.05
				c0.7-0.7,1.217-1.566,1.55-2.6c0.3-0.867,0.434-1.467,0.4-1.8c-0.034-0.333-0.267-0.533-0.7-0.6
				c-0.4-0.033-0.883-0.017-1.45,0.05h-0.05v0.2C24.25-8.401,24.25-8.351,24.25-8.3z M45.15-17.1c-0.233-0.733-0.6-1.183-1.1-1.35
				c-0.4-0.133-0.667-0.066-0.8,0.2c-0.1,0.167-0.217,0.75-0.35,1.75l-0.1,0.35l-0.15,0.3l0.05,0.15c-0.1,0.2-0.2,0.4-0.3,0.6
				c0.033,0.067,0.05,0.117,0.05,0.15c0.1-0.2,0.183-0.4,0.25-0.6c0.066,0.3,0.233,0.466,0.5,0.5c0.466,0.066,0.716-0.05,0.75-0.35
				c0.133-0.5,0-0.767-0.4-0.8h-0.2l-0.2,0.2c-0.133,0.067-0.233,0.05-0.3-0.05c0.233-0.733,0.55-1.184,0.95-1.35
				c0.4-0.2,0.684,0.033,0.85,0.7l0.2,1.3C45.083-15.933,45.183-16.5,45.15-17.1z M41.95-13.65c-0.067,0.167,0.066,0.25,0.4,0.25
				l0.25-0.2C42.433-13.7,42.217-13.717,41.95-13.65z M41.5-14.2c0.167,0.034,0.317,0.034,0.45,0c-0.034,0.1-0.067,0.184-0.1,0.25
				L41.4-13.2c0.267-0.333,0.483-0.667,0.65-1c0.1,0,0.184-0.033,0.25-0.1c0.034-0.034,0.067-0.067,0.1-0.1
				c-0.033-0.067-0.066-0.15-0.1-0.25c-0.033-0.033-0.066-0.067-0.1-0.1c-0.133-0.167-0.3-0.333-0.5-0.5
				c-0.233-0.167-0.517-0.35-0.85-0.55c-0.1-0.034-0.184-0.083-0.25-0.15c-0.1-0.033-0.184-0.066-0.25-0.1
				c-0.1-0.067-0.2-0.133-0.3-0.2c-0.133-0.033-0.25-0.083-0.35-0.15c-0.034-0.033-0.067-0.05-0.1-0.05
				c-0.767-0.433-1.417-0.783-1.95-1.05c-0.167-0.067-0.316-0.15-0.45-0.25c-0.133-0.033-0.25-0.083-0.35-0.15l-0.05-0.05h-0.05
				c-1-0.533-1.8-0.833-2.4-0.9c-0.333-0.033-0.633,0.083-0.9,0.35l-0.05,0.05l-0.05,0.15c-0.333,0.667-0.5,1.316-0.5,1.95
				c-0.1-0.933,0.033-1.733,0.4-2.4c0.467-1,1.117-1.433,1.95-1.3L35.55-20c0.1,0,0.317,0,0.65,0c0.333,0.067,0.517,0.383,0.55,0.95
				c0,0.033,0,0.066,0,0.1c0.033,0.034,0.067,0.05,0.1,0.05l0.1-1.35c-0.333-0.267-0.817-0.45-1.45-0.55
				c-1.433-0.233-2.333,0.816-2.7,3.15c-0.1,0.733-0.066,1.4,0.1,2c0.033,0.167,0.083,0.316,0.15,0.45
				C33.017-15.3,33-15.417,33-15.55c0.033,0.267,0.117,0.5,0.25,0.7c-0.133-0.6-0.15-1.2-0.05-1.8c0.1-0.733,0.316-1.15,0.65-1.25
				c0.367-0.133,1.333,0.117,2.9,0.75c0.067,0.033,0.133,0.066,0.2,0.1c0.033,0,0.1,0.017,0.2,0.05c0.1,0.067,0.25,0.133,0.45,0.2
				c0.433,0.2,1.117,0.5,2.05,0.9c0.033,0.066,0.1,0.1,0.2,0.1c0.066,0.066,0.15,0.117,0.25,0.15c0.033,0.033,0.083,0.05,0.15,0.05
				c0.067,0.067,0.15,0.117,0.25,0.15c0.067,0.034,0.133,0.067,0.2,0.1c0.333,0.233,0.566,0.45,0.7,0.65
				C41.5-14.533,41.533-14.367,41.5-14.2z M40.8-21.2c-0.167-1.033-0.633-1.733-1.4-2.1l-0.05-0.05
				c-0.533-0.233-0.95-0.25-1.25-0.05c-0.267,0.233-0.45,0.717-0.55,1.45l-0.25,3.3c0.133,0.1,0.3,0.183,0.5,0.25
				c0-0.067,0.017-0.15,0.05-0.25l0.35,0.15v0.05c0.933,0,1.45-0.1,1.55-0.3v-0.5c0-0.333-0.183-0.583-0.55-0.75
				c-0.3-0.133-0.534-0.233-0.7-0.3c-0.133-0.034-0.233-0.05-0.3-0.05c0.167-0.467,0.333-0.816,0.5-1.05c0.3-0.4,0.633-0.35,1,0.15
				c0.633,0.933,0.95,2.183,0.95,3.75l0.1-0.15L40.8-21.2z M31.6-10.45c-0.167,0.067-0.317,0.15-0.45,0.25
				c-0.133,0.1-0.233,0.184-0.3,0.25c-0.2,0.2-0.35,0.434-0.45,0.7c-0.021,0.053-0.038,0.103-0.05,0.15
				c-0.167-0.2-0.267-0.383-0.3-0.55L30-10.05l0.4-0.2c-0.1-0.067-0.183-0.083-0.25-0.05c-0.233,0.1-0.6-0.034-1.1-0.4
				c-0.466-0.3-0.8-0.617-1-0.95c-0.133-0.267-0.216-0.667-0.25-1.2c0-0.233,0-0.45,0-0.65c-0.066,0.233-0.267,0.417-0.6,0.55
				c-0.267,0.1-0.667-0.216-1.2-0.95s-0.833-1.35-0.9-1.85c-0.033-0.4-0.25-0.733-0.65-1l-1.5-0.8c-0.4-0.267-0.8-0.784-1.2-1.55
				c-0.433-0.9-0.817-1.5-1.15-1.8c-1.467-1.333-3.483-2.583-6.05-3.75c-0.7-0.333-1.617-0.65-2.75-0.95
				c-0.1-0.033-0.466-0.133-1.1-0.3c0.433,0.2,0.883,0.4,1.35,0.6c2.567,1.133,4.784,2.517,6.65,4.15
				c1.033,0.867,2.15,2.033,3.35,3.5c0.434,0.5,1.233,1.55,2.4,3.15c1.1,1.5,1.966,2.583,2.6,3.25c0.667,0.733,1.434,1.45,2.3,2.15
				c0.3,0.2,0.55,0.3,0.75,0.3h0.05l0.15-0.05c-0.033,0.067-0.033,0.133,0,0.2c0.034,0.233,0.15,0.433,0.35,0.6
				c0.033,0,0.05,0.017,0.05,0.05l0.2,0.25c0-0.033,0-0.067,0-0.1c-0.066-0.2-0.1-0.4-0.1-0.6c-0.033-0.233-0.033-0.433,0-0.6
				c0-0.034,0.017-0.067,0.05-0.1c0.033-0.067,0.066-0.15,0.1-0.25c0.033-0.033,0.066-0.067,0.1-0.1c0.133-0.067,0.284-0.1,0.45-0.1
				c0.333-0.033,0.7,0.083,1.1,0.35c0.1,0.1,0.233,0.2,0.4,0.3c0.2,0.233,0.4,0.483,0.6,0.75c0.767,1,1.417,2.284,1.95,3.85
				c0.567,1.6,0.9,2.917,1,3.95c0.267,0.3,0.483,0.417,0.65,0.35c0.033-0.233-0.15-1.05-0.55-2.45c-1-3.5-1.8-5.733-2.4-6.7
				c-0.033-0.033-0.067-0.066-0.1-0.1c-0.267-0.434-0.667-0.75-1.2-0.95c-0.434-0.167-0.833-0.25-1.2-0.25
				C31.694-10.472,31.644-10.456,31.6-10.45z M34.55-9.95L34.6-9.9l0.25-0.55L34.6-10.8c-0.233-0.267-0.434-0.434-0.6-0.5
				c-0.133-0.067-0.35-0.067-0.65,0c0.2,0,0.417,0.083,0.65,0.25C34.367-10.75,34.55-10.383,34.55-9.95z M38.35-12.15l0.4-0.25
				c0.067,0,0.283,0.017,0.65,0.05c0.267,0,0.467-0.033,0.6-0.1l0.25-0.4c0.067-0.233,0.067-0.383,0-0.45
				c-0.033-0.1-0.183-0.2-0.45-0.3c0.167-0.233,0.317-0.483,0.45-0.75c-0.102,0-0.186,0-0.25,0l-0.25,0.4
				c-0.167,0.233-0.367,0.467-0.6,0.7c-0.167,0.267-0.35,0.517-0.55,0.75c-0.067,0.067-0.117,0.133-0.15,0.2L38.35-12.15z
				 M34.95-10.6l0.65-0.8c0.5,0,0.833-0.133,1-0.4c0.1-0.267,0.117-0.483,0.05-0.65c0-0.066-0.083-0.167-0.25-0.3L37-14.1h0.35
				c0.033,0,0.066,0,0.1,0c0.733,0.1,1.2,0,1.4-0.3l0.05-0.05c-0.367,0-0.767-0.017-1.2-0.05c-0.3-0.033-0.6-0.05-0.9-0.05
				c-0.033,0.1-0.066,0.216-0.1,0.35c-0.167,0.5-0.367,0.934-0.6,1.3l-0.2,0.35c0.267,0.066,0.35,0.216,0.25,0.45
				c-0.033,0.1-0.133,0.167-0.3,0.2c-0.133,0-0.233-0.033-0.3-0.1l-0.15,0.2C35.267-11.367,35.117-10.967,34.95-10.6z M29.45-14.9
				c0.167,0.4,0.367,0.683,0.6,0.85c0.567,0.267,0.817,0.066,0.75-0.6c-0.033-0.267-0.167-0.5-0.4-0.7
				c-0.267-0.167-0.55-0.233-0.85-0.2C29.25-15.517,29.217-15.3,29.45-14.9z M30.2-14.7c-0.2,0-0.35-0.066-0.45-0.2
				s-0.067-0.217,0.1-0.25c0.2,0,0.4,0.066,0.6,0.2C30.617-14.783,30.533-14.7,30.2-14.7z M26.6-18.2
				c0.133,0.467,0.316,0.733,0.55,0.8l0.45,0.1c0.533,0.066,0.8-0.117,0.8-0.55c0-0.267-0.167-0.5-0.5-0.7
				c-0.3-0.167-0.633-0.267-1-0.3l-0.25-0.05C26.483-18.867,26.467-18.633,26.6-18.2z M26.55-15c-0.433,0-0.566,0.167-0.4,0.5
				c0.133,0.333,0.367,0.517,0.7,0.55c0.066,0,0.133,0,0.2,0c-0.133-0.367-0.25-0.716-0.35-1.05C26.633-15,26.583-15,26.55-15z
				 M30.1-17.05c-0.133-0.2-0.1-0.333,0.1-0.4c0.167-0.066,0.283-0.05,0.35,0.05c0.133,0.167,0.25,0.267,0.35,0.3
				c0.267,0.1,0.383,0.2,0.35,0.3c-0.033,0.1-0.233,0.133-0.6,0.1C30.417-16.733,30.233-16.85,30.1-17.05z M22.3-18.45
				c0.3,0.333,0.6,0.483,0.9,0.45c0.433-0.033,0.466-0.283,0.1-0.75c-0.4-0.433-0.75-0.567-1.05-0.4
				C21.95-19.017,21.967-18.783,22.3-18.45z M29.85-17.95c-0.467,0.067-0.567,0.333-0.3,0.8c0.267,0.467,0.7,0.783,1.3,0.95
				c0.8,0.233,1.083-0.183,0.85-1.25C31.233-17.917,30.617-18.083,29.85-17.95z M21.9-22.25c0.167,0.033,0.25,0.117,0.25,0.25
				c-0.033,0.133-0.1,0.2-0.2,0.2c-0.733,0-1.017-0.167-0.85-0.5c0.167-0.233,0.333-0.3,0.5-0.2c0,0.033,0,0.067,0,0.1
				C21.667-22.333,21.767-22.283,21.9-22.25z M22.6-18.6c-0.1-0.133-0.133-0.267-0.1-0.4c0.433-0.067,0.617,0.1,0.55,0.5L22.6-18.6z
				 M22.8-22c0-0.7-0.667-0.95-2-0.75c-0.7,0.1-0.816,0.383-0.35,0.85c0.433,0.467,0.883,0.733,1.35,0.8
				c0.667,0.1,1.034,0.05,1.1-0.15C22.933-21.35,22.9-21.6,22.8-22z M25.95-21.25c0.233,0.467,0.566,0.733,1,0.8
				c1.566,0.3,2.117-0.083,1.65-1.15c-0.267-0.467-1.033-0.617-2.3-0.45C25.8-21.983,25.683-21.717,25.95-21.25z M26.65-21.2
				c-0.167-0.2-0.117-0.35,0.15-0.45c0.2-0.067,0.333-0.05,0.4,0.05c0.1,0.167,0.2,0.25,0.3,0.25c0.233,0.033,0.383,0.133,0.45,0.3
				c0.033,0.167-0.15,0.233-0.55,0.2C27.067-20.85,26.817-20.967,26.65-21.2z M39.75-12.85c-0.033,0.033-0.2,0.05-0.5,0.05v-0.35
				l0.05-0.1v-0.1l0.15-0.05c0.133-0.067,0.25-0.067,0.35,0C39.8-13.067,39.783-12.883,39.75-12.85z M25.35-24.15
				c-0.367-0.033-0.684-0.167-0.95-0.4c-0.233-0.233-0.2-0.434,0.1-0.6l0.15-0.05c0.3-0.1,0.483-0.133,0.55-0.1
				c0.033,0.066,0.05,0.133,0.05,0.2c0,0.1,0.033,0.167,0.1,0.2c0.2,0.033,0.4,0.017,0.6-0.05l0.1-0.05l0.05,0.1
				C26.3-24.4,26.05-24.15,25.35-24.15z M30.3-23.7c-0.4-0.167-0.483-0.383-0.25-0.65c0.1-0.1,0.25-0.2,0.45-0.3
				c-0.133,0.3,0.083,0.383,0.65,0.25c0.3-0.067,0.6-0.15,0.9-0.25l0.1,0.65c0.067,0.333-0.083,0.517-0.45,0.55
				C31.333-23.417,30.867-23.5,30.3-23.7z M30.5-19.65c0.367,0.167,0.733,0.233,1.1,0.2c0.933-0.167,1.3-0.533,1.1-1.1
				c-0.167-0.534-0.583-0.8-1.25-0.8c-1,0.033-1.5,0.4-1.5,1.1C29.95-20.017,30.133-19.817,30.5-19.65z M38.5-19.3
				c0.167,0.1,0.4,0.05,0.7-0.15c0.133,0.367,0.017,0.583-0.35,0.65c-0.133,0.033-0.333,0.017-0.6-0.05H38.2
				c-0.267-0.1-0.383-0.3-0.35-0.6c0-0.233,0.133-0.35,0.4-0.35c0,0.167,0.033,0.283,0.1,0.35
				C38.383-19.383,38.433-19.333,38.5-19.3z M30.7-20.4c0-0.133,0.033-0.283,0.1-0.45c0,0.233,0.233,0.367,0.7,0.4
				c0.233,0,0.467-0.017,0.7-0.05c0.167,0.3-0.1,0.483-0.8,0.55C30.933-19.917,30.7-20.067,30.7-20.4z M17.3-25.4
				c0.1,0.133-0.017,0.2-0.35,0.2c-0.167,0-0.333-0.117-0.5-0.35c-0.167-0.233-0.1-0.3,0.2-0.2c0.1,0.033,0.184,0.05,0.25,0.05
				c0.033,0.034,0.067,0.05,0.1,0.05C17.133-25.583,17.233-25.5,17.3-25.4z"/>
			<path style="fill-rule:evenodd;clip-rule:evenodd;fill:#8E8772;" d="M45-18.15c0.033,0.167,0.067,0.333,0.1,0.5
				c0.167,0.6,0.15,1.217-0.05,1.85c0.233-0.367,0.367-0.633,0.4-0.8c0.066-0.2,0.35-0.183,0.85,0.05
				c0.567,0.233,0.983,0.566,1.25,1c-0.233-0.5-0.8-1.133-1.7-1.9c-0.2-0.167-0.4-0.333-0.6-0.5L45-18.15z M42.975-21.025
				c-0.058-0.27-0.132-0.528-0.225-0.775c-0.033-0.067-0.067-0.133-0.1-0.2c-0.066-0.133-0.167-0.283-0.3-0.45L42.3-22.5
				c-0.1-0.067-0.183-0.133-0.25-0.2L42-22.75h-0.025c-0.55-0.156-0.825,0.277-0.825,1.3c0,0.434-0.1,1.1-0.3,2c0,0.1,0,0.2,0,0.3
				c0,0.5-0.033,1-0.1,1.5c-0.033,0.133-0.05,0.267-0.05,0.4l-0.15,0.55c-0.066-0.033-0.133-0.083-0.2-0.15
				c-0.4-0.233-0.85-0.5-1.35-0.8c-0.133-0.067-0.267-0.15-0.4-0.25c-0.3-0.167-0.567-0.333-0.8-0.5c-0.2-0.067-0.367-0.15-0.5-0.25
				l0.25-3.3c0.1-0.733,0.284-1.216,0.55-1.45c0.3-0.2,0.717-0.184,1.25,0.05l0.05,0.05c0.767,0.367,1.233,1.066,1.4,2.1
				c-0.033-0.6-0.083-1.1-0.15-1.5l-0.2-0.45c-0.034-0.067-0.05-0.15-0.05-0.25c-0.367-0.767-1.2-1.1-2.5-1
				c-0.3,0.033-0.467,0.316-0.5,0.85c-0.033,0.966-0.066,1.867-0.1,2.7c-0.033,0.567-0.117,1.25-0.25,2.05
				c-0.066,0-0.117-0.017-0.15-0.05l-0.05-0.05c-0.033,0-0.067-0.017-0.1-0.05c0-0.033,0-0.066,0-0.1
				c-0.033-0.567-0.217-0.883-0.55-0.95c-0.333,0-0.55,0-0.65,0l-0.35-0.05c-0.833-0.133-1.483,0.3-1.95,1.3
				c-0.367,0.667-0.5,1.467-0.4,2.4c0-0.633,0.167-1.283,0.5-1.95l0.05-0.15l0.05-0.05c0.267-0.267,0.566-0.383,0.9-0.35
				c0.6,0.067,1.4,0.367,2.4,0.9h0.05l0.05,0.05c0.1,0.066,0.217,0.117,0.35,0.15c0.133,0.1,0.283,0.183,0.45,0.25
				c0.533,0.267,1.184,0.617,1.95,1.05c0.033,0,0.066,0.017,0.1,0.05c0.1,0.066,0.216,0.117,0.35,0.15c0.1,0.067,0.2,0.133,0.3,0.2
				c0.066,0.033,0.15,0.066,0.25,0.1c0.066,0.067,0.15,0.117,0.25,0.15c0.333,0.2,0.617,0.383,0.85,0.55
				c0.2,0.167,0.367,0.333,0.5,0.5c0.033,0.033,0.066,0.067,0.1,0.1c0.034,0.1,0.067,0.183,0.1,0.25l0.05-0.05
				c0.1-0.133,0.1-0.3,0-0.5c0-0.033-0.017-0.083-0.05-0.15c0.1-0.2,0.2-0.4,0.3-0.6l-0.05-0.15l0.15-0.3l0.1-0.35
				c0.133-1,0.25-1.583,0.35-1.75c0.133-0.267,0.4-0.333,0.8-0.2c0.5,0.167,0.867,0.617,1.1,1.35l-0.05-0.55l-0.3-0.9
				c-0.3-0.467-0.633-0.7-1-0.7c-0.333-0.033-0.533,0.133-0.6,0.5c-0.034,0.2-0.1,0.4-0.2,0.6l-0.5,2.6
				c-0.067,0.133-0.117,0.267-0.15,0.4c-0.067-0.067-0.133-0.15-0.2-0.25c-0.066-0.067-0.15-0.167-0.25-0.3
				c-0.2-0.167-0.483-0.383-0.85-0.65c-0.133-0.066-0.25-0.15-0.35-0.25c0.1-0.5,0.2-1.133,0.3-1.9c0.2-1.367,0.35-2.233,0.45-2.6
				c0.133-0.367,0.367-0.533,0.7-0.5c0.067,0,0.133,0.017,0.2,0.05h0.05l0.45,0.35C42.881-21.138,42.922-21.08,42.975-21.025z
				 M37-24.4c-0.033-0.434-0.067-0.817-0.1-1.15l-0.05-0.25v-0.05l-0.025-0.025c-0.358-0.554-0.85-0.979-1.475-1.275
				c-0.567-0.233-1.417-0.417-2.55-0.55c-0.933-0.1-2.783,0-5.55,0.3c-3.1,0.3-5.083,0.45-5.95,0.45c-1.233,0-3.367-0.517-6.4-1.55
				c-0.133-0.033-0.267-0.067-0.4-0.1c-0.2-0.066-0.4-0.133-0.6-0.2c-0.133-0.067-0.267-0.117-0.4-0.15V-29
				c-2.633-1.1-4.75-1.9-6.35-2.4c-0.467-0.1-0.783-0.184-0.95-0.25c-0.233-0.1-0.367-0.317-0.4-0.65
				c-0.066-0.3-0.216-0.567-0.45-0.8H5.3l-0.225-0.125c0.251,0.432,0.41,0.924,0.475,1.475C5.583-31.217,5.3-30.7,4.7-30.2
				l-0.9,0.55l0.45-0.15c0.8-0.2,1.45-0.534,1.95-1c0.267-0.267,0.6-0.383,1-0.35C7.4-31.117,7.767-31,8.3-30.8
				c0.4,0.133,1.883,0.767,4.45,1.9c0.467,0.233,0.933,0.433,1.4,0.6H14.1c0.066,0.033,0.133,0.05,0.2,0.05
				c0.267,0.133,0.534,0.25,0.8,0.35c1.333,0.533,2.267,0.9,2.8,1.1c1.667,0.566,3.117,0.833,4.35,0.8c0.6,0,2.333-0.133,5.2-0.4
				c2-0.2,3.617-0.184,4.85,0.05c1.667,0.3,2.75,0.567,3.25,0.8c0.767,0.333,1.25,0.917,1.45,1.75V-24.4z M41.75-18.15l0.4,0.05
				c0.1-0.1,0.15-0.167,0.15-0.2c0.034-0.067,0.034-0.117,0-0.15l-0.15-0.05c-0.2,0-0.267-0.05-0.2-0.15
				c0.033-0.067,0.1-0.1,0.2-0.1c-0.066-0.067-0.35-0.1-0.85-0.1c-0.066,0.167-0.05,0.333,0.05,0.5
				C41.45-18.217,41.583-18.15,41.75-18.15z M27.9-9.15c-1.267-0.133-2.483-0.033-3.65,0.3c0,0.067,0,0.133,0,0.2h0.05
				c0.567-0.067,1.05-0.083,1.45-0.05c0.433,0.067,0.667,0.267,0.7,0.6c0.033,0.333-0.1,0.934-0.4,1.8
				c-0.333,1.033-0.85,1.9-1.55,2.6c0.067-0.033,0.133-0.066,0.2-0.1c0.033-0.034,0.083-0.083,0.15-0.15
				c0.333-0.3,0.933-1.216,1.8-2.75C27.317-7.9,27.733-8.717,27.9-9.15z M34.6-9.85c0-0.031-0.017-0.064-0.05-0.1
				c0-0.433-0.183-0.8-0.55-1.1c-0.233-0.167-0.45-0.25-0.65-0.25c-0.367-0.034-0.883,0.083-1.55,0.35l-0.45,0.2l-0.2,0.1l-0.75,0.4
				l-0.4,0.2l0.05,0.4c0.034,0.167,0.133,0.35,0.3,0.55c0.033-0.167,0.1-0.333,0.2-0.5c0.067-0.133,0.15-0.25,0.25-0.35
				c0.1-0.1,0.217-0.2,0.35-0.3s0.3-0.2,0.5-0.3c0.267-0.1,0.567-0.167,0.9-0.2c-0.367,0.067-0.65,0.15-0.85,0.25
				c-0.028,0.027-0.061,0.044-0.1,0.05c0.044-0.005,0.094-0.022,0.15-0.05c0.367,0,0.767,0.083,1.2,0.25
				c0.533,0.2,0.933,0.517,1.2,0.95c0.033,0.033,0.067,0.066,0.1,0.1c0.6,0.967,1.4,3.2,2.4,6.7c0.4,1.4,0.583,2.217,0.55,2.45
				h0.025c0.02-0.012,0.037-0.029,0.05-0.05H37.3c0.1-0.133,0.15-0.367,0.15-0.7v-0.05c0-0.566-0.333-1.983-1-4.25
				c-0.667-2.233-1.117-3.517-1.35-3.85C35.067-9.017,35.033-9.1,35-9.2C34.867-9.467,34.733-9.683,34.6-9.85z M39.15-13.3
				c0.233-0.233,0.434-0.45,0.6-0.65l0.25-0.4c-0.1,0-0.183-0.017-0.25-0.05C39.583-14,39.383-13.633,39.15-13.3z M36.8-14.55
				c-0.2,0-0.383-0.017-0.55-0.05v0.05c-0.267,1.033-0.55,1.95-0.85,2.75l0.15-0.2c0.067,0.067,0.167,0.1,0.3,0.1
				c0.167-0.033,0.267-0.1,0.3-0.2c0.1-0.233,0.017-0.383-0.25-0.45l0.2-0.35c0.233-0.367,0.433-0.8,0.6-1.3
				C36.733-14.333,36.767-14.45,36.8-14.55z M30.2-14.7c0.333,0,0.417-0.083,0.25-0.25c-0.2-0.133-0.4-0.2-0.6-0.2
				c-0.167,0.033-0.2,0.117-0.1,0.25S30-14.7,30.2-14.7z M30.1-17.05c0.133,0.2,0.316,0.316,0.55,0.35c0.367,0.034,0.567,0,0.6-0.1
				c0.033-0.1-0.083-0.2-0.35-0.3c-0.1-0.033-0.217-0.133-0.35-0.3c-0.066-0.1-0.183-0.117-0.35-0.05
				C30-17.383,29.967-17.25,30.1-17.05z M22.6-18.6l0.45,0.1c0.067-0.4-0.117-0.567-0.55-0.5C22.467-18.867,22.5-18.733,22.6-18.6z
				 M21.9-22.25c-0.133-0.033-0.233-0.083-0.3-0.15c0-0.033,0-0.067,0-0.1c-0.167-0.1-0.333-0.033-0.5,0.2
				c-0.167,0.333,0.117,0.5,0.85,0.5c0.1,0,0.167-0.067,0.2-0.2C22.15-22.133,22.067-22.217,21.9-22.25z M26.65-21.2
				c0.167,0.233,0.417,0.35,0.75,0.35c0.4,0.033,0.583-0.033,0.55-0.2c-0.067-0.167-0.217-0.267-0.45-0.3c-0.1,0-0.2-0.083-0.3-0.25
				c-0.067-0.1-0.2-0.117-0.4-0.05C26.533-21.55,26.483-21.4,26.65-21.2z M30.3-23.7c0.567,0.2,1.034,0.284,1.4,0.25
				c0.367-0.033,0.517-0.216,0.45-0.55l-0.1-0.65c-0.3,0.1-0.6,0.183-0.9,0.25c-0.566,0.133-0.783,0.05-0.65-0.25
				c-0.2,0.1-0.35,0.2-0.45,0.3C29.817-24.083,29.9-23.867,30.3-23.7z M25.35-24.15c0.7,0,0.95-0.25,0.75-0.75L26.05-25l-0.1,0.05
				c-0.2,0.067-0.4,0.083-0.6,0.05c-0.067-0.033-0.1-0.1-0.1-0.2c0-0.066-0.017-0.133-0.05-0.2c-0.067-0.034-0.25,0-0.55,0.1
				l-0.15,0.05c-0.3,0.167-0.333,0.367-0.1,0.6C24.667-24.317,24.983-24.183,25.35-24.15z M39.75-12.85
				c0.033-0.033,0.05-0.217,0.05-0.55c-0.1-0.067-0.216-0.067-0.35,0l-0.15,0.05v0.1l-0.05,0.1v0.35
				C39.55-12.8,39.717-12.817,39.75-12.85z M30.7-20.4c0,0.333,0.233,0.483,0.7,0.45c0.7-0.066,0.967-0.25,0.8-0.55
				c-0.233,0.033-0.467,0.05-0.7,0.05c-0.467-0.033-0.7-0.167-0.7-0.4C30.733-20.683,30.7-20.533,30.7-20.4z M38.5-19.3
				c-0.067-0.034-0.117-0.083-0.15-0.15c-0.067-0.066-0.1-0.183-0.1-0.35c-0.267,0-0.4,0.117-0.4,0.35
				c-0.033,0.3,0.083,0.5,0.35,0.6h0.05c0.267,0.067,0.467,0.083,0.6,0.05c0.367-0.067,0.483-0.284,0.35-0.65
				C38.9-19.25,38.667-19.2,38.5-19.3z M17.3-25.4c-0.066-0.1-0.167-0.184-0.3-0.25c-0.033,0-0.067-0.017-0.1-0.05
				c-0.066,0-0.15-0.017-0.25-0.05c-0.3-0.1-0.367-0.033-0.2,0.2c0.167,0.233,0.333,0.35,0.5,0.35
				C17.283-25.2,17.4-25.267,17.3-25.4z M1.575-32.4C1.22-32.15,0.995-31.884,0.9-31.6l0.35-0.5c0.167,0.9,0.783,1.2,1.85,0.9
				c0.233-0.066,0.417-0.167,0.55-0.3c-0.033,0.167-0.083,0.3-0.15,0.4c0.1-0.133,0.167-0.3,0.2-0.5l-0.25-0.75
				c-0.034-0.033-0.067-0.066-0.1-0.1c-0.1-0.066-0.217-0.133-0.35-0.2c-0.333-0.1-0.783-0.033-1.35,0.2
				C1.628-32.436,1.604-32.419,1.575-32.4z"/>
			
				<linearGradient id="SVGID_2_" gradientUnits="userSpaceOnUse" x1="17187.7617" y1="-907.0273" x2="17193.9434" y2="-907.0273" gradientTransform="matrix(-0.1011 0.9949 -0.993 -0.1198 880.9097 -17228.0645)">
				<stop  offset="0" style="stop-color:#988F7D"/>
				<stop  offset="0.3569" style="stop-color:#C7C2B8"/>
				<stop  offset="0.9922" style="stop-color:#DAD9D6"/>
			</linearGradient>
			<path style="fill-rule:evenodd;clip-rule:evenodd;fill:url(#SVGID_2_);" d="M44.25-19.5c0.2,0.267,0.383,0.583,0.55,0.95l0.3,0.9
				l0.05,0.55c0.033,0.6-0.066,1.167-0.3,1.7l-0.2-1.3c-0.167-0.667-0.45-0.9-0.85-0.7c-0.4,0.167-0.716,0.617-0.95,1.35
				c0.066,0.1,0.167,0.117,0.3,0.05l0.2-0.2h0.2c0.4,0.034,0.534,0.3,0.4,0.8c-0.034,0.3-0.284,0.417-0.75,0.35
				c-0.267-0.034-0.434-0.2-0.5-0.5c-0.067,0.2-0.15,0.4-0.25,0.6c0.1,0.2,0.1,0.367,0,0.5c-0.034,0.067-0.083,0.117-0.15,0.15
				c-0.066,0.066-0.15,0.1-0.25,0.1c-0.167,0.333-0.383,0.667-0.65,1h0.5c0.167-0.033,0.5-0.15,1-0.35l1.55-1.15
				c-0.431,0.646-0.922,1.121-1.475,1.425c0.4-0.208,0.775-0.5,1.125-0.875c0-0.033,0.017-0.067,0.05-0.1
				c0.133-0.167,0.267-0.35,0.4-0.55c0.2-0.333,0.367-0.667,0.5-1c0.2-0.633,0.217-1.25,0.05-1.85c-0.033-0.167-0.067-0.333-0.1-0.5
				C44.8-18.683,44.55-19.133,44.25-19.5z M41.95-13.65c0.267-0.067,0.483-0.05,0.65,0.05l-0.25,0.2
				C42.017-13.4,41.883-13.483,41.95-13.65z"/>
			
				<linearGradient id="SVGID_3_" gradientUnits="userSpaceOnUse" x1="18869.9531" y1="634.8066" x2="18875.4492" y2="634.8066" gradientTransform="matrix(0.0864 0.9963 -1.029 -0.291 -940.4814 -18634.5469)">
				<stop  offset="0" style="stop-color:#988F7D"/>
				<stop  offset="0.3569" style="stop-color:#C7C2B8"/>
				<stop  offset="0.9922" style="stop-color:#DAD9D6"/>
			</linearGradient>
			<path style="fill-rule:evenodd;clip-rule:evenodd;fill:url(#SVGID_3_);" d="M40.25-14.35c0.333,0.033,0.633,0.067,0.9,0.1
				c0.1,0.033,0.2,0.05,0.3,0.05h0.05c0.033-0.167,0-0.333-0.1-0.5c-0.133-0.2-0.367-0.417-0.7-0.65
				c-0.067-0.033-0.133-0.066-0.2-0.1c-0.1-0.033-0.183-0.083-0.25-0.15c-0.067,0-0.117-0.017-0.15-0.05
				c-0.1-0.033-0.184-0.083-0.25-0.15c-0.1,0-0.167-0.034-0.2-0.1c-0.933-0.4-1.617-0.7-2.05-0.9c-0.2-0.067-0.35-0.133-0.45-0.2
				c-0.1-0.033-0.167-0.05-0.2-0.05c-0.067-0.034-0.133-0.067-0.2-0.1c-1.567-0.633-2.533-0.883-2.9-0.75
				c-0.333,0.1-0.55,0.517-0.65,1.25c-0.1,0.6-0.083,1.2,0.05,1.8c-0.133-0.2-0.217-0.433-0.25-0.7c0,0.133,0.017,0.25,0.05,0.35
				c0.2,0.567,0.5,0.8,0.9,0.7c0.333-0.1,1.1-0.133,2.3-0.1c0.167,0.033,0.35,0.05,0.55,0.05c0.3,0,0.6,0.017,0.9,0.05
				c0.433,0.033,0.833,0.05,1.2,0.05c0.067,0.034,0.15,0.05,0.25,0.05c0.2,0,0.4,0,0.6,0c0.067,0.033,0.15,0.05,0.25,0.05
				C40.064-14.35,40.148-14.35,40.25-14.35z M42.3-14.3c0.067-0.034,0.117-0.083,0.15-0.15L42.4-14.4
				C42.367-14.367,42.333-14.333,42.3-14.3z M38.9-14.5c-0.733-0.033-1.417-0.067-2.05-0.1c-0.2,0-0.383-0.017-0.55-0.05
				c-0.6,0-1.15,0.017-1.65,0.05c-0.3-0.167-0.517-0.35-0.65-0.55c-0.133-0.233-0.067-0.434,0.2-0.6c0.3-0.233,1.083-0.25,2.35-0.05
				c0.133,0.033,0.3,0.066,0.5,0.1c0.034,0.034,0.067,0.05,0.1,0.05c0.733,0.133,1.367,0.283,1.9,0.45
				c0.133,0.034,0.267,0.067,0.4,0.1c0,0.033,0.017,0.05,0.05,0.05c0.167,0.066,0.333,0.117,0.5,0.15
				c0.067,0.066,0.15,0.117,0.25,0.15c0.033,0.033,0.083,0.067,0.15,0.1l0.4,0.35c-0.2-0.034-0.383-0.05-0.55-0.05
				c-0.07-0.001-0.136-0.018-0.2-0.05c-0.1,0-0.2,0-0.3,0c-0.2-0.033-0.4-0.05-0.6-0.05C39.05-14.45,38.967-14.467,38.9-14.5z"/>
			<path style="fill-rule:evenodd;clip-rule:evenodd;fill:#E7E5E0;" d="M38.6-17.9c0.133,0.1,0.267,0.183,0.4,0.25
				c0.5,0.3,0.95,0.566,1.35,0.8l0.25-0.55v-0.3c-0.067-0.5-0.133-0.733-0.2-0.7c-0.066,0.167-0.15,0.316-0.25,0.45
				c-0.1,0.167-0.4,0.217-0.9,0.15L38.6-17.9z M31.55-11.6c-0.667-0.1-0.983-0.283-0.95-0.55s0.3-0.467,0.8-0.6
				c0.133-0.067,0.267-0.133,0.4-0.2c0.133-0.033,0.267,0,0.4,0.1c0.2,0.167,0.316,0.35,0.35,0.55c0.1,0.367-0.2,0.6-0.9,0.7H31.55z
				 M38.9-14c-0.233,0.3-0.533,0.45-0.9,0.45c-0.333-0.1-0.533-0.15-0.6-0.15h-0.05c-0.233,0-0.35,0.083-0.35,0.25l-0.05,0.75
				c0.066,0.133,0.1,0.267,0.1,0.4c0,0.033,0.017,0.083,0.05,0.15c0,0.133-0.017,0.283-0.05,0.45c-0.033,0.067-0.066,0.133-0.1,0.2
				c-0.133,0.3-0.4,0.517-0.8,0.65l-0.6,0.1l-0.15,0.2c0.667-0.067,1.267-0.4,1.8-1c0.1-0.1,0.183-0.2,0.25-0.3
				C37.85-12.317,38.333-13.033,38.9-14z M34.65-11.55l0.35-0.3c0.233-0.167,0.317-0.75,0.25-1.75l-0.3,0.1
				c-0.367,0.167-0.883,0.133-1.55-0.1c-0.333-0.1-0.633-0.217-0.9-0.35c-0.233-0.133-0.45-0.216-0.65-0.25
				c-0.2-0.033-0.35,0.05-0.45,0.25c-0.133,0.267-0.316,0.467-0.55,0.6c-0.3,0.2-0.667,0.15-1.1-0.15c-0.4-0.333-0.6-0.483-0.6-0.45
				c0,0.333,0.117,0.917,0.35,1.75c0.133,0.4,0.367,0.667,0.7,0.8c0.233,0.066,0.667,0.133,1.3,0.2c0.6,0.034,1.15-0.216,1.65-0.75
				C33.417-12.083,33.917-11.95,34.65-11.55z M28.6-17.55c0,0.6,0.033,1.017,0.1,1.25c0.133,0.367,0.617,0.55,1.45,0.55
				c0.333,0.033,0.6,0.133,0.8,0.3c0.1,0.1,0.2,0.233,0.3,0.4L32-14.9l1,0.45l-0.55-1.1c-0.133-0.333-0.167-0.75-0.1-1.25
				c0.033-0.267,0.083-0.483,0.15-0.65l-0.3,0.4c-0.067,0.1-0.117,0.267-0.15,0.5c0,0.233-0.05,0.417-0.15,0.55
				c-0.133,0.133-0.467,0.133-1,0c-0.6-0.167-0.983-0.267-1.15-0.3c-0.2-0.067-0.45-0.3-0.75-0.7L28.6-17.55z M25.2-23.3
				c-0.1,0-0.117,0.017-0.05,0.05c0.2,0.1,0.383,0.217,0.55,0.35c0.2,0.167,0.417,0.25,0.65,0.25c0.033,0,0.25-0.017,0.65-0.05
				c0.333,0,0.567-0.117,0.7-0.35c0.066-0.2,0.033-0.367-0.1-0.5c-0.1-0.1-0.217-0.133-0.35-0.1L25.2-23.3z M29.55-19.7l-0.4-0.65
				l-0.5,0.3c-0.233,0.133-0.6,0.233-1.1,0.3L26.9-19.7l0.55,0.5c0.066,0.034,0.233,0.034,0.5,0c0.3-0.033,0.566-0.033,0.8,0
				c0.233,0.034,0.417,0.133,0.55,0.3c0.167,0.2,0.35,0.333,0.55,0.4c0.967,0.267,1.75,0.183,2.35-0.25c0.3-0.2,0.5-0.433,0.6-0.7
				c-0.533,0.3-1.183,0.45-1.95,0.45C30.383-19,29.95-19.233,29.55-19.7z M30.05-18.65c-0.167-0.1-0.3-0.233-0.4-0.4
				c-0.1-0.167-0.033-0.2,0.2-0.1c0.467,0.2,0.783,0.3,0.95,0.3C30.933-18.483,30.683-18.417,30.05-18.65z M29.3-22.95L29.25-23
				c0.067,0.1,0.1,0.2,0.1,0.3c0.033,0.167,0.2,0.333,0.5,0.5c0.333,0.2,0.683,0.3,1.05,0.3c0.633,0.033,1.167-0.2,1.6-0.7
				l-0.95,0.1c-0.333,0.033-0.783-0.017-1.35-0.15C29.8-22.75,29.5-22.85,29.3-22.95z M32-15.4c0.033,0.2-0.1,0.25-0.4,0.15
				c-0.1-0.067-0.167-0.15-0.2-0.25s0.033-0.167,0.2-0.2C31.833-15.7,31.967-15.6,32-15.4z M15.35-24.65
				c0.267,0.3,0.55,0.467,0.85,0.5c0.867,0.167,1.417,0.066,1.65-0.3l-1.3-0.1c-0.466-0.067-0.816-0.333-1.05-0.8
				c-0.133-0.233-0.217-0.467-0.25-0.7c-0.067,0.1-0.133,0.316-0.2,0.65C15.017-25.167,15.117-24.917,15.35-24.65z"/>
			
				<linearGradient id="SVGID_4_" gradientUnits="userSpaceOnUse" x1="17672.4102" y1="-1577.8755" x2="17684.9004" y2="-1577.8755" gradientTransform="matrix(-0.1741 0.9847 -0.9817 -0.1914 1567.9067 -17728.5469)">
				<stop  offset="0" style="stop-color:#988F7D"/>
				<stop  offset="0.3569" style="stop-color:#C7C2B8"/>
				<stop  offset="0.9922" style="stop-color:#DAD9D6"/>
			</linearGradient>
			<path style="fill-rule:evenodd;clip-rule:evenodd;fill:url(#SVGID_4_);" d="M39.15-14.4c-0.1,0-0.183-0.017-0.25-0.05l-0.05,0.05
				c-0.2,0.3-0.667,0.4-1.4,0.3c-0.034,0-0.067,0-0.1,0H37l-0.6,1.35c0.167,0.133,0.25,0.233,0.25,0.3
				c0.067,0.167,0.05,0.383-0.05,0.65c-0.167,0.267-0.5,0.4-1,0.4l-0.65,0.8c-0.034,0.033-0.05,0.067-0.05,0.1
				c0.367,0.033,0.75,0.05,1.15,0.05L35.1-10.5l0.3-0.05l0.15-0.2l0.6-0.1c0.4-0.133,0.667-0.35,0.8-0.65
				c0.033-0.067,0.066-0.133,0.1-0.2c0.034-0.167,0.05-0.316,0.05-0.45c-0.033-0.067-0.05-0.117-0.05-0.15
				c0-0.133-0.033-0.267-0.1-0.4L37-13.45c0-0.167,0.117-0.25,0.35-0.25h0.05c0.067,0,0.267,0.05,0.6,0.15
				c0.367,0,0.667-0.15,0.9-0.45L39.15-14.4z M37.8-18.4c0.233,0.167,0.5,0.333,0.8,0.5l0.65,0.1c0.5,0.066,0.8,0.017,0.9-0.15
				c0.1-0.133,0.184-0.283,0.25-0.45c0.067-0.033,0.133,0.2,0.2,0.7v0.3l0.05-0.1c0-1.567-0.316-2.817-0.95-3.75
				c-0.367-0.5-0.7-0.55-1-0.15c-0.167,0.233-0.333,0.583-0.5,1.05c0.066,0,0.167,0.017,0.3,0.05c0.167,0.066,0.4,0.167,0.7,0.3
				c0.367,0.167,0.55,0.417,0.55,0.75v0.5c-0.1,0.2-0.617,0.3-1.55,0.3v-0.05l-0.35-0.15C37.817-18.55,37.8-18.467,37.8-18.4z
				 M40.8-21.2l-0.05,3.55c0.067-0.5,0.1-1,0.1-1.5c0-0.1,0-0.2,0-0.3C40.85-20.083,40.833-20.667,40.8-21.2z"/>
			
				<linearGradient id="SVGID_5_" gradientUnits="userSpaceOnUse" x1="17214.7754" y1="-887.5166" x2="17224.8496" y2="-887.5166" gradientTransform="matrix(-0.0993 0.9951 -0.9926 -0.1238 868.8154 -17262.1992)">
				<stop  offset="0" style="stop-color:#988F7D"/>
				<stop  offset="0.3569" style="stop-color:#C7C2B8"/>
				<stop  offset="0.9922" style="stop-color:#DAD9D6"/>
			</linearGradient>
			<path style="fill-rule:evenodd;clip-rule:evenodd;fill:url(#SVGID_5_);" d="M39.7-11.5c-0.233,0.1-0.517,0.167-0.85,0.2
				c-0.434,0.066-0.817,0.033-1.15-0.1h-0.05c0.233,0.1,0.517,0.15,0.85,0.15C38.967-11.25,39.367-11.333,39.7-11.5z M41.9-15.7
				c0.4-0.8,0.75-1.65,1.05-2.55c-0.034-0.8-0.167-1.333-0.4-1.6c-0.267-0.233-0.517-0.083-0.75,0.45l0.1,0.05
				c0.3,0.2,0.467,0.367,0.5,0.5c0.067,0.067,0.1,0.25,0.1,0.55c0.033,0.267,0.017,0.45-0.05,0.55
				c-0.133,0.267-0.517,0.367-1.15,0.3c-0.066,0.367-0.15,0.733-0.25,1.1C41.417-16.083,41.7-15.867,41.9-15.7z M39.15-13.25
				c0.233-0.233,0.434-0.467,0.6-0.7c-0.167,0.2-0.367,0.417-0.6,0.65V-13.25z M40-12.45c-0.133,0.067-0.333,0.1-0.6,0.1
				c-0.367-0.033-0.583-0.05-0.65-0.05l-0.4,0.25L38-11.75c-0.1,0.1-0.183,0.2-0.25,0.3h0.35c0.5-0.066,0.883-0.167,1.15-0.3
				C39.45-11.783,39.7-12.017,40-12.45z M41.15-14.25c-0.267-0.033-0.566-0.067-0.9-0.1c-0.133,0.267-0.283,0.517-0.45,0.75
				c0.267,0.1,0.417,0.2,0.45,0.3c0.067,0.066,0.067,0.216,0,0.45C40.55-13.283,40.85-13.75,41.15-14.25z"/>
			<path style="fill-rule:evenodd;clip-rule:evenodd;fill:#6C6756;" d="M44.8-18.55c-0.167-0.367-0.35-0.684-0.55-0.95
				c-0.333-0.4-0.717-0.667-1.15-0.8c0,0.233,0,0.5,0,0.8v0.3c-0.033,0.267-0.067,0.567-0.1,0.9c0,0.066,0,0.117,0,0.15
				c0.1-0.2,0.167-0.4,0.2-0.6c0.066-0.367,0.267-0.533,0.6-0.5C44.167-19.25,44.5-19.017,44.8-18.55z M36.9-25.55
				c0.033,0.333,0.067,0.716,0.1,1.15c0.1,1.333,0.083,2.933-0.05,4.8c0,0.267-0.017,0.517-0.05,0.75
				c0.033,0.033,0.083,0.05,0.15,0.05c0.133-0.8,0.217-1.483,0.25-2.05c0.034-0.833,0.067-1.733,0.1-2.7
				c0.033-0.534,0.2-0.817,0.5-0.85c1.3-0.1,2.133,0.233,2.5,1c0,0.1,0.017,0.183,0.05,0.25l0.2,0.45c0.067,0.4,0.117,0.9,0.15,1.5
				c0.034,0.534,0.05,1.117,0.05,1.75c0.2-0.9,0.3-1.566,0.3-2c0-1.022,0.275-1.456,0.825-1.3c-0.218-0.176-0.493-0.31-0.825-0.4
				c-0.2-0.1-0.4-0.167-0.6-0.2c-0.066-0.167-0.117-0.3-0.15-0.4c-0.1-0.267-0.233-0.483-0.4-0.65c-0.167-0.167-0.433-0.35-0.8-0.55
				l-0.2-0.1c-0.1-0.034-0.2-0.067-0.3-0.1C38.1-25.417,37.5-25.55,36.9-25.55z M5.35-33.1c0.233,0.233,0.383,0.5,0.45,0.8
				c0.034,0.333,0.167,0.55,0.4,0.65c0.167,0.066,0.483,0.15,0.95,0.25c1.6,0.5,3.717,1.3,6.35,2.4v0.05
				c0.133,0.034,0.267,0.083,0.4,0.15c0.2,0.066,0.4,0.133,0.6,0.2c0.133,0.033,0.267,0.067,0.4,0.1
				c3.033,1.033,5.167,1.55,6.4,1.55c0.867,0,2.85-0.15,5.95-0.45c2.767-0.3,4.617-0.4,5.55-0.3c1.133,0.133,1.983,0.317,2.55,0.55
				c0.625,0.296,1.117,0.721,1.475,1.275c-0.092-0.499-0.234-0.907-0.425-1.225l-0.1-0.15c-0.033-0.033-0.066-0.067-0.1-0.1
				c-0.133-0.167-0.284-0.3-0.45-0.4c-0.333-0.267-0.783-0.433-1.35-0.5l-2-0.05c-2.9,0.333-5.05,0.566-6.45,0.7
				c-2.467,0.233-4.35,0.184-5.65-0.15c-3.3-0.9-5.25-1.45-5.85-1.65c-0.8-0.233-1.4-0.434-1.8-0.6l0.05,0.05
				c-1.8-0.767-2.95-1.2-3.45-1.3l-0.6-0.2c-0.6-0.167-1.15-0.4-1.65-0.7C6.067-32.683,5.517-33,5.35-33.1z M3.5-31.1
				c0.067-0.1,0.117-0.233,0.15-0.4c-0.133,0.133-0.316,0.233-0.55,0.3c-1.067,0.3-1.684,0-1.85-0.9L0.9-31.6
				c-0.133,0.267-0.083,0.55,0.15,0.85c0.2,0.3,0.45,0.45,0.75,0.45h0.3C2.8-30.367,3.267-30.633,3.5-31.1z"/>
			
				<linearGradient id="SVGID_6_" gradientUnits="userSpaceOnUse" x1="19456.0723" y1="-10004.9863" x2="19461.1582" y2="-10004.9863" gradientTransform="matrix(-0.8111 0.585 -0.572 -0.8204 10094.999 -19596.7012)">
				<stop  offset="0" style="stop-color:#988F7D"/>
				<stop  offset="0.3569" style="stop-color:#C7C2B8"/>
				<stop  offset="0.9922" style="stop-color:#DAD9D6"/>
			</linearGradient>
			<path style="fill-rule:evenodd;clip-rule:evenodd;fill:url(#SVGID_6_);" d="M30.9-7.85c0.033,0.033,0.083,0.083,0.15,0.15
				c0.5,0.567,1.333,1.633,2.5,3.2c1.333,1.8,2.217,3.033,2.65,3.7C36.533-0.267,36.817,0,37.05,0c0.071,0,0.129-0.017,0.175-0.05
				H37.2c-0.167,0.066-0.383-0.05-0.65-0.35c-0.1-1.033-0.433-2.35-1-3.95C35.017-5.917,34.367-7.2,33.6-8.2
				c-0.2-0.267-0.4-0.517-0.6-0.75c-0.167-0.1-0.3-0.2-0.4-0.3c-0.4-0.267-0.767-0.383-1.1-0.35c-0.167,0-0.317,0.033-0.45,0.1
				c-0.033,0.033-0.066,0.067-0.1,0.1c-0.034,0.1-0.067,0.183-0.1,0.25c-0.033,0.033-0.05,0.066-0.05,0.1
				c-0.033,0.167-0.033,0.367,0,0.6C30.8-8.25,30.833-8.05,30.9-7.85z M30.35-9.1c0.012-0.047,0.029-0.097,0.05-0.15
				c0.1-0.267,0.25-0.5,0.45-0.7c0.066-0.066,0.167-0.15,0.3-0.25c0.133-0.1,0.283-0.183,0.45-0.25
				c0.039-0.006,0.072-0.022,0.1-0.05c0.2-0.1,0.483-0.183,0.85-0.25c-0.333,0.033-0.633,0.1-0.9,0.2c-0.2,0.1-0.367,0.2-0.5,0.3
				s-0.25,0.2-0.35,0.3c-0.1,0.1-0.183,0.217-0.25,0.35C30.45-9.433,30.383-9.267,30.35-9.1z M32.05-8.1
				c3.167,4.067,4.233,5.917,3.2,5.55l-3.7-5.15c-0.033-0.233,0-0.383,0.1-0.45C31.75-8.25,31.883-8.233,32.05-8.1z"/>
			<path style="fill-rule:evenodd;clip-rule:evenodd;fill:#E6E6E1;" d="M3.65-29.65c0.2-0.2,0.434-0.483,0.7-0.85l-1.5,0.6
				c-0.6,0.267-1.117,0.316-1.55,0.15c-0.466-0.167-0.75-0.517-0.85-1.05c-0.067-0.5,0.1-1.1,0.5-1.8
				c-0.167,0.133-0.317,0.267-0.45,0.4c-0.1,0.133-0.183,0.25-0.25,0.35c-0.4,0.633-0.317,1.267,0.25,1.9
				c0.033,0.067,0.6,0.567,1.7,1.5c0.3,0.233,1.3,0.617,3,1.15l0.35,0.1c0.1,0.034,0.217,0.067,0.35,0.1
				c0.467,0.133,0.9,0.25,1.3,0.35c0.8,0.3,1.633,0.633,2.5,1c3.1,1.267,5.466,2.7,7.1,4.3c1.4,1.333,3.133,3.25,5.2,5.75
				c1.967,2.434,3.383,4.05,4.25,4.85c0.433,0.4,0.867,0.767,1.3,1.1c0.3,0.233,0.6,0.45,0.9,0.65
				c0.867,0.633,1.683,1.083,2.45,1.35c0.033,0.033,0.083,0.05,0.15,0.05c-0.066-0.066-0.117-0.117-0.15-0.15c0,0.033,0,0.067,0,0.1
				L30.7-8c-0.367-0.267-0.733-0.55-1.1-0.85C29.5-8.917,29.417-9,29.35-9.1c-0.867-0.7-1.633-1.417-2.3-2.15
				c-0.633-0.667-1.5-1.75-2.6-3.25c-1.167-1.6-1.967-2.65-2.4-3.15c-1.2-1.467-2.316-2.633-3.35-3.5
				c-1.867-1.633-4.083-3.017-6.65-4.15c-0.466-0.2-0.917-0.4-1.35-0.6c-0.2-0.067-0.383-0.133-0.55-0.2
				c-0.066-0.167-0.283-0.4-0.65-0.7c-0.533-0.367-1.217-0.667-2.05-0.9c-1.2-0.367-2.833-0.783-4.9-1.25l0.25-0.1l0.25-0.1
				c0.167-0.067,0.35-0.217,0.55-0.45L3.65-29.65z M32.05-8.1c-0.167-0.133-0.3-0.15-0.4-0.05c-0.1,0.066-0.133,0.217-0.1,0.45
				l3.7,5.15C36.283-2.183,35.217-4.033,32.05-8.1z M24.2-5.7c-0.067,1-0.034,1.417,0.1,1.25c0.434-0.566,0.65-1.367,0.65-2.4
				c0-0.167-0.05-0.316-0.15-0.45c-0.1-0.167-0.2-0.2-0.3-0.1S24.3-6.733,24.2-5.7z M38.9-14.5c0.067,0.033,0.15,0.05,0.25,0.05
				c0.2,0,0.4,0.017,0.6,0.05c0.1,0,0.2,0,0.3,0c0.064,0.032,0.13,0.048,0.2,0.05c0.167,0,0.35,0.017,0.55,0.05l-0.4-0.35
				c-0.066-0.033-0.117-0.067-0.15-0.1c-0.1-0.033-0.183-0.083-0.25-0.15c-0.167-0.033-0.333-0.083-0.5-0.15
				c-0.033,0-0.05-0.017-0.05-0.05c-0.133-0.033-0.267-0.066-0.4-0.1c-0.533-0.167-1.167-0.316-1.9-0.45
				c-0.033,0-0.066-0.017-0.1-0.05c-0.2-0.033-0.367-0.066-0.5-0.1c-1.267-0.2-2.05-0.184-2.35,0.05
				c-0.267,0.167-0.333,0.367-0.2,0.6c0.133,0.2,0.35,0.383,0.65,0.55c0.5-0.033,1.05-0.05,1.65-0.05
				c0.167,0.033,0.35,0.05,0.55,0.05C37.483-14.567,38.167-14.533,38.9-14.5z M3.7-31.6c0.433-0.467,0.35-0.85-0.25-1.15
				c-0.6-0.333-1.233-0.217-1.9,0.35h0.025c0.028-0.019,0.053-0.036,0.075-0.05c0.567-0.233,1.017-0.3,1.35-0.2
				c0.133,0.066,0.25,0.133,0.35,0.2c0.033,0.034,0.066,0.067,0.1,0.1L3.7-31.6z"/>
			<path style="fill-rule:evenodd;clip-rule:evenodd;fill:#D3CFC6;" d="M0.5-32.2c0.133-0.133,0.283-0.267,0.45-0.4
				c-0.4,0.7-0.567,1.3-0.5,1.8c0.1,0.533,0.383,0.883,0.85,1.05c0.434,0.167,0.95,0.117,1.55-0.15l1.5-0.6
				c-0.267,0.367-0.5,0.65-0.7,0.85c0.733-0.434,1.117-1.083,1.15-1.95c0.034-0.633-0.183-1.133-0.65-1.5
				c-0.4-0.3-0.917-0.433-1.55-0.4c0.7-0.133,1.417-0.083,2.15,0.15C3.883-33.683,3.033-33.7,2.2-33.4
				C1.533-33.133,0.967-32.733,0.5-32.2z M2.8-29.05l-0.25,0.1c2.067,0.467,3.7,0.883,4.9,1.25c0.833,0.233,1.517,0.534,2.05,0.9
				c0.367,0.3,0.583,0.533,0.65,0.7c0.167,0.067,0.35,0.133,0.55,0.2c0.633,0.167,1,0.267,1.1,0.3c1.133,0.3,2.05,0.617,2.75,0.95
				c2.567,1.167,4.583,2.417,6.05,3.75c0.333,0.3,0.717,0.9,1.15,1.8c0.4,0.767,0.8,1.283,1.2,1.55l1.5,0.8
				c0.4,0.267,0.617,0.6,0.65,1c0.066,0.5,0.367,1.117,0.9,1.85s0.933,1.05,1.2,0.95c0.333-0.133,0.533-0.316,0.6-0.55
				c0,0.2,0,0.417,0,0.65c0.034,0.533,0.117,0.934,0.25,1.2c0.2,0.333,0.534,0.65,1,0.95c0.5,0.367,0.867,0.5,1.1,0.4
				c0.067-0.034,0.15-0.017,0.25,0.05l0.75-0.4c-0.033-0.067-0.05-0.133-0.05-0.2c0.066,0.033,0.15,0.067,0.25,0.1l0.45-0.2
				c0.667-0.267,1.184-0.383,1.55-0.35c0.3-0.067,0.517-0.067,0.65,0c0.167,0.066,0.367,0.233,0.6,0.5l0.25,0.35L34.6-9.9
				l-0.05-0.05c0.034,0.036,0.05,0.069,0.05,0.1c0.1-0.2,0.2-0.417,0.3-0.65c0-0.033,0.017-0.067,0.05-0.1
				c0.167-0.367,0.316-0.767,0.45-1.2c0.3-0.8,0.583-1.717,0.85-2.75v-0.05c-1.2-0.033-1.967,0-2.3,0.1c-0.4,0.1-0.7-0.133-0.9-0.7
				c-0.066-0.133-0.117-0.283-0.15-0.45c-0.167-0.6-0.2-1.267-0.1-2c0.367-2.333,1.267-3.383,2.7-3.15
				c0.633,0.1,1.117,0.283,1.45,0.55l-0.1,1.35l0.05,0.05c0.033-0.233,0.05-0.483,0.05-0.75c0.133-1.867,0.15-3.467,0.05-4.8v0.6
				c0.067,0.9,0.067,1.966,0,3.2c-0.367-1.1-1.033-1.95-2-2.55c-0.8-0.5-1.617-0.767-2.45-0.8c0.067,0.567-0.3,0.85-1.1,0.85
				c-0.7,0-1.15-0.033-1.35-0.1c-0.434-0.1-0.617-0.333-0.55-0.7H29.2l0.45,1l-1.15-0.45c-0.633-0.267-1.383-0.45-2.25-0.55
				c-0.467,0.233-0.967,0.267-1.5,0.1c-0.167-0.067-0.3-0.117-0.4-0.15c-0.434,0-0.767,0.017-1,0.05
				c-1.067,0.066-2.833-0.383-5.3-1.35c0.3,0.4-0.017,0.583-0.95,0.55c-0.333-0.033-0.65-0.233-0.95-0.6
				c-0.333-0.367-0.316-0.583,0.05-0.65c-1.5-0.533-2.85-1.05-4.05-1.55c-0.233-0.1-1.333-0.6-3.3-1.5
				c-1.133-0.533-1.883-0.817-2.25-0.85c-0.3,0-0.684,0.15-1.15,0.45c-0.467,0.267-0.867,0.417-1.2,0.45
				C3.717-28.95,3.233-28.983,2.8-29.05z M34.65-11.55c-0.733-0.4-1.233-0.534-1.5-0.4c-0.5,0.534-1.05,0.784-1.65,0.75
				c-0.633-0.066-1.067-0.133-1.3-0.2c-0.333-0.133-0.567-0.4-0.7-0.8c-0.233-0.833-0.35-1.417-0.35-1.75
				c0-0.033,0.2,0.117,0.6,0.45c0.433,0.3,0.8,0.35,1.1,0.15c0.233-0.133,0.417-0.333,0.55-0.6c0.1-0.2,0.25-0.283,0.45-0.25
				c0.2,0.034,0.417,0.117,0.65,0.25c0.267,0.133,0.567,0.25,0.9,0.35c0.667,0.233,1.184,0.267,1.55,0.1l0.3-0.1
				c0.067,1-0.017,1.583-0.25,1.75L34.65-11.55z M29.45-14.9c-0.233-0.4-0.2-0.617,0.1-0.65c0.3-0.034,0.583,0.033,0.85,0.2
				c0.233,0.2,0.367,0.434,0.4,0.7c0.067,0.667-0.183,0.867-0.75,0.6C29.817-14.217,29.617-14.5,29.45-14.9z M26.55-15
				c0.034,0,0.083,0,0.15,0c0.1,0.333,0.216,0.683,0.35,1.05c-0.066,0-0.133,0-0.2,0c-0.333-0.033-0.567-0.216-0.7-0.55
				C25.983-14.833,26.117-15,26.55-15z M26.6-18.2c-0.133-0.433-0.117-0.667,0.05-0.7l0.25,0.05c0.367,0.033,0.7,0.133,1,0.3
				c0.333,0.2,0.5,0.433,0.5,0.7c0,0.434-0.267,0.617-0.8,0.55l-0.45-0.1C26.917-17.467,26.733-17.733,26.6-18.2z M28.6-17.55L29-17
				c0.3,0.4,0.55,0.633,0.75,0.7c0.167,0.033,0.55,0.133,1.15,0.3c0.533,0.133,0.867,0.133,1,0c0.1-0.133,0.15-0.317,0.15-0.55
				c0.034-0.233,0.083-0.4,0.15-0.5l0.3-0.4c-0.067,0.167-0.117,0.383-0.15,0.65c-0.067,0.5-0.033,0.917,0.1,1.25l0.55,1.1l-1-0.45
				l-0.75-0.15c-0.1-0.167-0.2-0.3-0.3-0.4c-0.2-0.167-0.467-0.267-0.8-0.3c-0.833,0-1.316-0.183-1.45-0.55
				C28.633-16.533,28.6-16.95,28.6-17.55z M29.85-17.95c0.767-0.133,1.383,0.034,1.85,0.5c0.233,1.067-0.05,1.483-0.85,1.25
				c-0.6-0.167-1.033-0.483-1.3-0.95C29.283-17.617,29.383-17.883,29.85-17.95z M22.3-18.45c-0.333-0.333-0.35-0.566-0.05-0.7
				c0.3-0.167,0.65-0.033,1.05,0.4c0.367,0.467,0.333,0.717-0.1,0.75C22.9-17.967,22.6-18.117,22.3-18.45z M25.2-23.3l2.05-0.35
				c0.133-0.033,0.25,0,0.35,0.1c0.133,0.133,0.167,0.3,0.1,0.5c-0.133,0.233-0.367,0.35-0.7,0.35c-0.4,0.034-0.617,0.05-0.65,0.05
				c-0.233,0-0.45-0.083-0.65-0.25c-0.167-0.133-0.35-0.25-0.55-0.35C25.083-23.283,25.1-23.3,25.2-23.3z M22.8-22
				c0.1,0.4,0.133,0.65,0.1,0.75c-0.066,0.2-0.433,0.25-1.1,0.15c-0.466-0.066-0.917-0.333-1.35-0.8
				c-0.467-0.467-0.35-0.75,0.35-0.85C22.133-22.95,22.8-22.7,22.8-22z M29.55-19.7c0.4,0.467,0.833,0.7,1.3,0.7
				c0.767,0,1.417-0.15,1.95-0.45c-0.1,0.267-0.3,0.5-0.6,0.7c-0.6,0.433-1.383,0.517-2.35,0.25c-0.2-0.067-0.383-0.2-0.55-0.4
				c-0.133-0.167-0.316-0.267-0.55-0.3c-0.233-0.033-0.5-0.033-0.8,0c-0.267,0.034-0.434,0.034-0.5,0l-0.55-0.5l0.65-0.05
				c0.5-0.067,0.867-0.167,1.1-0.3l0.5-0.3L29.55-19.7z M25.95-21.25c-0.267-0.467-0.15-0.733,0.35-0.8
				c1.267-0.167,2.034-0.017,2.3,0.45c0.467,1.067-0.083,1.45-1.65,1.15C26.517-20.517,26.183-20.783,25.95-21.25z M29.3-22.95
				c0.2,0.1,0.5,0.2,0.9,0.3c0.566,0.133,1.017,0.183,1.35,0.15l0.95-0.1c-0.433,0.5-0.967,0.733-1.6,0.7
				c-0.367,0-0.717-0.1-1.05-0.3c-0.3-0.167-0.467-0.333-0.5-0.5c0-0.1-0.033-0.2-0.1-0.3L29.3-22.95z M30.5-19.65
				c-0.367-0.167-0.55-0.367-0.55-0.6c0-0.7,0.5-1.067,1.5-1.1c0.667,0,1.083,0.267,1.25,0.8c0.2,0.566-0.167,0.933-1.1,1.1
				C31.233-19.417,30.867-19.483,30.5-19.65z M15.35-24.65c-0.233-0.267-0.333-0.517-0.3-0.75c0.067-0.333,0.133-0.55,0.2-0.65
				c0.033,0.233,0.117,0.466,0.25,0.7c0.233,0.467,0.583,0.733,1.05,0.8l1.3,0.1c-0.233,0.367-0.783,0.467-1.65,0.3
				C15.9-24.183,15.617-24.35,15.35-24.65z M0.9-31.6c0.095-0.284,0.32-0.55,0.675-0.8H1.55c0.667-0.567,1.3-0.684,1.9-0.35
				c0.6,0.3,0.683,0.683,0.25,1.15c-0.034,0.2-0.1,0.367-0.2,0.5c-0.233,0.467-0.7,0.733-1.4,0.8H1.8c-0.3,0-0.55-0.15-0.75-0.45
				C0.817-31.05,0.767-31.333,0.9-31.6z"/>
			
				<radialGradient id="SVGID_7_" cx="19410.2637" cy="-5467.8447" r="18.6235" gradientTransform="matrix(-0.5229 0.8524 0.8048 0.5323 14571.1426 -13660.1543)" gradientUnits="userSpaceOnUse">
				<stop  offset="0" style="stop-color:#DCCCBD"/>
				<stop  offset="0.1804" style="stop-color:#D8C3B4"/>
				<stop  offset="0.4784" style="stop-color:#CDAA9D"/>
				<stop  offset="0.8549" style="stop-color:#BD8377"/>
				<stop  offset="1" style="stop-color:#B67367"/>
			</radialGradient>
			<path style="fill-rule:evenodd;clip-rule:evenodd;fill:url(#SVGID_7_);" d="M31.35-10.75c-0.1-0.033-0.184-0.067-0.25-0.1
				c0,0.067,0.017,0.133,0.05,0.2L31.35-10.75z M7.2-26.75c0.533,1.633,0.883,3.267,1.05,4.9c-0.1,3.167-0.083,5.467,0.05,6.9
				c0.267,2.467,1.567,4.567,3.9,6.3c2.267,1.7,4.583,2.217,6.95,1.55c1.333-0.367,3.167-1.133,5.5-2.3
				c0.934-0.3,1.9-0.417,2.9-0.35c-0.433-0.333-0.867-0.7-1.3-1.1c-0.867-0.8-2.283-2.417-4.25-4.85c-2.067-2.5-3.8-4.417-5.2-5.75
				c-1.633-1.6-4-3.033-7.1-4.3C8.833-26.117,8-26.45,7.2-26.75z"/>
			
				<linearGradient id="SVGID_8_" gradientUnits="userSpaceOnUse" x1="14535.6445" y1="-15799.9316" x2="14539.9268" y2="-15799.9316" gradientTransform="matrix(-0.9983 0.0584 0.2276 -1.015 18134.4473 -16891.9785)">
				<stop  offset="0" style="stop-color:#988F7D"/>
				<stop  offset="0.3569" style="stop-color:#C7C2B8"/>
				<stop  offset="0.9922" style="stop-color:#DAD9D6"/>
			</linearGradient>
			<path style="fill-rule:evenodd;clip-rule:evenodd;fill:url(#SVGID_8_);" d="M24.2-3.65c0.133,0.033,0.3-0.017,0.5-0.15
				c-0.067,0.033-0.133,0.066-0.2,0.1C24.367-3.667,24.267-3.65,24.2-3.65z M24.1-3.7c0.833-0.4,1.333-1.267,1.5-2.6
				c0.066-0.633-0.05-1.15-0.35-1.55c-0.333-0.4-0.667-0.55-1-0.45c-0.007,0.189-0.024,0.389-0.05,0.6
				c-0.067,1.4-0.15,2.467-0.25,3.2C23.883-4.1,23.933-3.833,24.1-3.7z M24.2-5.7c0.1-1.033,0.2-1.6,0.3-1.7s0.2-0.067,0.3,0.1
				c0.1,0.133,0.15,0.283,0.15,0.45c0,1.033-0.217,1.833-0.65,2.4C24.167-4.283,24.133-4.7,24.2-5.7z"/>
			<path style="fill-rule:evenodd;clip-rule:evenodd;fill:#DADAD6;" d="M7.2-26.75c-0.4-0.1-0.833-0.217-1.3-0.35
				c0.667,1.833,1.083,3.667,1.25,5.5c-0.1,3.233-0.083,5.6,0.05,7.1c0.267,2.533,1.617,4.7,4.05,6.5
				c2.367,1.733,4.783,2.25,7.25,1.55c1.4-0.4,3.317-1.2,5.75-2.4c1.167-0.333,2.383-0.433,3.65-0.3c0.167,0,0.35,0.017,0.55,0.05
				c-0.3-0.2-0.6-0.417-0.9-0.65c-1-0.067-1.966,0.05-2.9,0.35c-2.333,1.167-4.167,1.933-5.5,2.3c-2.367,0.667-4.683,0.15-6.95-1.55
				c-2.333-1.733-3.633-3.833-3.9-6.3c-0.133-1.433-0.15-3.733-0.05-6.9C8.083-23.483,7.733-25.117,7.2-26.75z M29.35-9.1
				C29.417-9,29.5-8.917,29.6-8.85c0.233,0.067,0.467,0.133,0.7,0.2c-0.033-0.067-0.033-0.133,0-0.2L30.15-8.8H30.1
				C29.9-8.8,29.65-8.9,29.35-9.1z"/>
		</g>
	</g>
</symbol>
<symbol  id="conch1" viewBox="0.002 -33.613 47.738 33.613">
	<use xlink:href="#conch"  width="47.738" height="33.613" x="0.002" y="-33.613" style="overflow:visible;"/>
</symbol>
<symbol  id="conchAnim_FLM_x5F_FRAME_x5F_0" viewBox="-55 -49 109 94">
	<g id="rays_1_">
		
			<use xlink:href="#rays"  width="89.75" height="88.2" x="-44.85" y="-44.1" transform="matrix(1 0 0 1 -0.3501 0.1001)" style="overflow:visible;"/>
	</g>
	<g id="Layer_3_2_">
		<g>
			
				<use xlink:href="#star1"  width="9" height="9" x="-4.5" y="-4.5" transform="matrix(0 -1 1 0 1.5498 -0.1001)" style="overflow:visible;"/>
		</g>
	</g>
	<g id="Layer_2_2_">
		<g>
			
				<use xlink:href="#star2"  width="4.5" height="4.5" x="-2.25" y="-2.25" transform="matrix(-0.8837 0.4678 -0.4678 -0.8837 0.2495 -6.501)" style="overflow:visible;"/>
			
				<use xlink:href="#star2"  width="4.5" height="4.5" x="-2.25" y="-2.25" transform="matrix(-0.6133 -0.7897 0.7897 -0.6133 3.9502 -3)" style="overflow:visible;"/>
			
				<use xlink:href="#star1"  width="9" height="9" x="-4.5" y="-4.5" transform="matrix(0.8057 -0.5921 0.5921 0.8057 -2.5498 1.2002)" style="overflow:visible;"/>
			
				<use xlink:href="#star2"  width="4.5" height="4.5" x="-2.25" y="-2.25" transform="matrix(-0.4365 -0.8996 0.8996 -0.4365 3.8008 1.0498)" style="overflow:visible;"/>
			
				<use xlink:href="#star1"  width="9" height="9" x="-4.5" y="-4.5" transform="matrix(0.525 0.8509 -0.8509 0.525 -2.8999 -9.4502)" style="overflow:visible;"/>
			
				<use xlink:href="#star2"  width="4.5" height="4.5" x="-2.25" y="-2.25" transform="matrix(-0.5432 -0.8394 0.8394 -0.5432 2.1997 3.9507)" style="overflow:visible;"/>
			
				<use xlink:href="#star2"  width="4.5" height="4.5" x="-2.25" y="-2.25" transform="matrix(-0.9535 0.3012 -0.3012 -0.9535 8.2998 -1.5488)" style="overflow:visible;"/>
			
				<use xlink:href="#star1"  width="9" height="9" x="-4.5" y="-4.5" transform="matrix(-0.9887 -0.1493 0.1493 -0.9887 5.7002 4.75)" style="overflow:visible;"/>
			
				<use xlink:href="#star2"  width="4.5" height="4.5" x="-2.25" y="-2.25" transform="matrix(0.8879 0.4597 -0.4597 0.8879 -0.5996 -13.8496)" style="overflow:visible;"/>
			
				<use xlink:href="#star2"  width="4.5" height="4.5" x="-2.25" y="-2.25" transform="matrix(0.3878 0.9216 -0.9216 0.3878 9.25 -11.1494)" style="overflow:visible;"/>
			
				<use xlink:href="#star2"  width="4.5" height="4.5" x="-2.25" y="-2.25" transform="matrix(-0.9963 0.0843 -0.0843 -0.9963 0.8506 9.6499)" style="overflow:visible;"/>
			
				<use xlink:href="#star1"  width="9" height="9" x="-4.5" y="-4.5" transform="matrix(0.2139 0.9767 -0.9767 0.2139 14.4995 -2.6499)" style="overflow:visible;"/>
			
				<use xlink:href="#star2"  width="4.5" height="4.5" x="-2.25" y="-2.25" transform="matrix(-0.8231 -0.5675 0.5675 -0.8231 -13.8008 3.6504)" style="overflow:visible;"/>
			
				<use xlink:href="#star2"  width="4.5" height="4.5" x="-2.25" y="-2.25" transform="matrix(0.9622 0.2721 -0.2721 0.9622 13.1499 -10.7998)" style="overflow:visible;"/>
			
				<use xlink:href="#star2"  width="4.5" height="4.5" x="-2.25" y="-2.25" transform="matrix(-0.5556 0.8314 -0.8314 -0.5556 -1.3999 14.1001)" style="overflow:visible;"/>
			
				<use xlink:href="#star2"  width="4.5" height="4.5" x="-2.25" y="-2.25" transform="matrix(-0.8814 -0.4721 0.4721 -0.8814 -17.6001 -6.6001)" style="overflow:visible;"/>
			
				<use xlink:href="#star2"  width="4.5" height="4.5" x="-2.25" y="-2.25" transform="matrix(-0.0675 0.9977 -0.9977 -0.0675 -1.75 15.9995)" style="overflow:visible;"/>
			
				<use xlink:href="#star2"  width="4.5" height="4.5" x="-2.25" y="-2.25" transform="matrix(0.5769 -0.8167 0.8167 0.5769 14.8994 -15.8501)" style="overflow:visible;"/>
			
				<use xlink:href="#star1"  width="9" height="9" x="-4.5" y="-4.5" transform="matrix(-0.9671 -0.2539 0.2539 -0.9671 -14.9014 -19)" style="overflow:visible;"/>
			
				<use xlink:href="#star2"  width="4.5" height="4.5" x="-2.25" y="-2.25" transform="matrix(0.9343 0.3562 -0.3562 0.9343 9.0996 17.0498)" style="overflow:visible;"/>
			
				<use xlink:href="#star1"  width="9" height="9" x="-4.5" y="-4.5" transform="matrix(0.6694 -0.7427 0.7427 0.6694 22.6001 1.3501)" style="overflow:visible;"/>
			
				<use xlink:href="#star2"  width="4.5" height="4.5" x="-2.25" y="-2.25" transform="matrix(0.3503 0.9365 -0.9365 0.3503 -18.7998 10.1006)" style="overflow:visible;"/>
			
				<use xlink:href="#star2"  width="4.5" height="4.5" x="-2.25" y="-2.25" transform="matrix(0.9997 0.0185 -0.0185 0.9997 -0.6997 20.7998)" style="overflow:visible;"/>
			
				<use xlink:href="#star2"  width="4.5" height="4.5" x="-2.25" y="-2.25" transform="matrix(0.9766 0.2148 -0.2148 0.9766 -12.0996 19.7002)" style="overflow:visible;"/>
			
				<use xlink:href="#star2"  width="4.5" height="4.5" x="-2.25" y="-2.25" transform="matrix(0.8092 -0.5871 0.5871 0.8092 2.7495 24.2998)" style="overflow:visible;"/>
			
				<use xlink:href="#star1"  width="9" height="9" x="-4.5" y="-4.5" transform="matrix(0.1255 0.9919 -0.9919 0.1255 -22.4507 -21.6006)" style="overflow:visible;"/>
			
				<use xlink:href="#star1"  width="9" height="9" x="-4.5" y="-4.5" transform="matrix(0.435 -0.9003 0.9003 0.435 1.7007 25.3506)" style="overflow:visible;"/>
			
				<use xlink:href="#star2"  width="4.5" height="4.5" x="-2.25" y="-2.25" transform="matrix(0.245 -0.9693 0.9693 0.245 0.0996 24.9995)" style="overflow:visible;"/>
		</g>
	</g>
	<g id="conch1_1_">
		<g>
			<image style="overflow:visible;" width="109" height="94" xlink:href="FB95DF52.png"  transform="matrix(1 0 0 -1 -55 45)">
			</image>
			<g>
				
					<use xlink:href="#conch1"  width="47.738" height="33.613" x="0.002" y="-33.613" transform="matrix(1 0 0 1 -24.6001 14.8999)" style="overflow:visible;"/>
			</g>
		</g>
	</g>
</symbol>
<symbol  id="rays" viewBox="-44.85 -44.1 89.75 88.2">
	
		<radialGradient id="SVGID_9_" cx="-2522.7441" cy="-4557.0156" r="30.0941" gradientTransform="matrix(0.8923 -0.4515 -0.4212 -1.0211 331.4272 -5793.0381)" gradientUnits="userSpaceOnUse">
		<stop  offset="0" style="stop-color:#FFFFFF;stop-opacity:0.549"/>
		<stop  offset="0.1882" style="stop-color:#DFF1F3;stop-opacity:0.3412"/>
		<stop  offset="1" style="stop-color:#6DBAC3;stop-opacity:0"/>
	</radialGradient>
	<path style="fill-rule:evenodd;clip-rule:evenodd;fill:url(#SVGID_9_);" d="M-0.25-1.6l-0.1-0.75l0.3,0.75v0.3L-0.25-1.6z
		 M-0.55-0.8l-0.4-0.4l-0.8-1.65l0.9,0.95L-0.55-0.8z M-0.5-1.5l0.3,0.9l-0.15-0.1l-0.2-0.8H-0.5z M0.6-0.35l0.5-0.1L1.3-0.2H0.7
		L0.6-0.3V-0.35z M0.85-1.5L0.5-1.05v-0.2L0.85-1.8V-1.5z M2.05,0.2L2.4,0.25l0.8,0.5l-0.85-0.3L2.05,0.2z M4.1,13.65
		c0.667,2.6,1.717,6.2,3.15,10.8l1.9,6.15l-2.7-11.75C4.35,10.283,2.533,4.2,1,0.6l6.8,11c1.367,2.233,3.417,5.3,6.15,9.2l3.65,5.15
		L11.65,15.9C7.283,8.6,3.833,3.467,1.3,0.5l0.85,0.35L9.9,10.3c1.667,2,4.1,4.767,7.3,8.3l4.35,4.65l-6.45-8.3
		C10.2,8.85,6.283,4.333,3.35,1.4l3.4,1.65l6,3.9c2.233,1.433,5.417,3.35,9.55,5.75l5.55,3.2l-4.4-3.1
		c-3.534-2.433-6.833-4.617-9.9-6.55l4.05,2c3.167,1.533,7.75,3.533,13.75,6l8,3.2l-11.6-5.85c-8.8-4.333-15.9-7.567-21.3-9.7
		l-2.8-1.45l16.25,2.5c3.633,0.6,8.767,1.267,15.4,2l8.85,0.95L28.3,3.05C16.667,1.083,8.033,0,2.4-0.2L1.75-0.5
		c5.6-0.7,10.317-1.233,14.15-1.6c2.867-0.3,6.9-0.833,12.1-1.6l6.85-1.15L21.8-3.65c-9.566,1-16.4,1.983-20.5,2.95L1.25-0.75
		l19.4-7c3.667-1.267,8.8-3.25,15.4-5.95l8.85-3.6l-12,4l0.65-0.35l-6.8,2.4c-5.4,1.933-10.167,3.7-14.3,5.3L8.1-4.2l7.4-3.65
		c2.667-1.333,6.35-3.3,11.05-5.9l6.4-3.55C18.583-10.733,8.367-5.5,2.3-1.6L0.85-0.95L1.6-1.5c7.3-4.833,12.967-8.517,17-11.05
		c5.3-3.5,12.517-8.583,21.65-15.25C26.45-19.433,15.35-12.167,6.95-6l6.35-5.35c3.733-3.033,8.733-7.467,15-13.3
		C15.7-14.783,6.883-7.267,1.85-2.1l-1,0.8L11.7-12.75c3.3-3.467,7.716-8.417,13.25-14.85C13.45-16.267,5.55-7.767,1.25-2.1
		L1.5-2.65L12.4-18.2c3.667-5.167,8.467-12.433,14.4-21.8C17.7-28.033,10.4-17.717,4.9-9.05l3.35-5.8c2.4-4.1,5.467-9.867,9.2-17.3
		C13.05-25.083,9.117-18.367,5.65-12l1.55-3.55c1.933-4.3,4.35-10.267,7.25-17.9C8.683-21.583,4.533-12.133,2-5.1L0.7-2.3l0.1-0.55
		c3.567-9.333,5.784-15.1,6.65-17.3c2.267-5.733,5.066-13.717,8.4-23.95c-1.7,3.934-3.583,8.45-5.65,13.55
		C6.133-20.283,3.183-12.2,1.35-6.3l1.6-10.05c0.767-4.467,1.566-10.617,2.4-18.45C3.687-26.804,2.403-19.679,1.5-13.425L1.8-15.8
		c0.534-4.5,0.983-10.65,1.35-18.45c-0.533,3.6-1.066,7.633-1.6,12.1c-1.1,8.867-1.633,15.4-1.6,19.6l-0.8-2.7l-2.5-15
		c-0.833-5.7-2.3-13.467-4.4-23.3c1.167,10.533,2.517,20.133,4.05,28.8c-1.233-4.033-3.167-9.55-5.8-16.55
		C-7-21.533-4.55-13.4-2.15-6.9c0.2,0.967,0.5,2.25,0.9,3.85L-3.1-5.8l-5.75-12.1c-2.4-5.067-6-11.883-10.8-20.45
		c4,9.5,7.983,18.117,11.95,25.85l-0.05-0.05c-2.3-3.5-5.75-8.15-10.35-13.95c5.167,8.367,9.833,15.267,14,20.7
		c1.033,1.767,1.767,2.933,2.2,3.5l-8.2-8.75c-2.833-3.067-6.967-7.15-12.4-12.25c2.4,2.767,5.067,5.783,8,9.05
		c5.9,6.5,10.367,10.9,13.4,13.2l0.05,0.1L-2.3-1.5c-1.567-0.867-5.184-2.9-10.85-6.1c-3.667-2.133-8.9-4.816-15.7-8.05
		c5.367,3.333,10.733,6.467,16.1,9.4l-5.1-2.35c-5.167-2.4-12.433-5.417-21.8-9.05c4.867,2.533,10.2,5.133,16,7.8l-6.7-2.3
		c11.533,5.267,20.6,8.9,27.2,10.9L-1.1-0.6c-0.333,0-0.9-0.05-1.7-0.15C-8.9-1.583-14.717-2.433-20.25-3.3
		c-5.8-0.9-13.9-1.784-24.3-2.65C-38.95-4.917-32.9-3.9-26.4-2.9l-7.3-0.4c12.934,1.867,22.983,2.867,30.15,3h1.9l-14,1.7
		c-4.6,0.5-10.917,1.483-18.95,2.95c16.167-1.367,27.45-2.9,33.85-4.6c-4.867,1.933-9.733,3.817-14.6,5.65l-5.35,1.95
		c-5.9,2.167-13.95,5.433-24.15,9.8c17.267-5.7,30.483-10.633,39.65-14.8l-8.9,4.6c-4.3,2.133-10.133,5.333-17.5,9.6
		c3.067-1.466,6.517-3.15,10.35-5.05C-13.517,7.667-7.567,4.517-3.4,2.05l-15.3,10.2c-3.3,2.2-7.883,5.433-13.75,9.7l-7.8,5.65
		l13.3-8.45C-17.05,12.65-9.6,7.467-4.6,3.6l-7.75,6.55c-2.267,1.934-5.417,4.767-9.45,8.5l-5.25,4.95l9.65-7.95
		C-10.333,9.717-5.133,5.083-1.8,1.75l-9.55,10.2c-2,2.2-4.8,5.367-8.4,9.5l-4.7,5.55l9.75-10.15C-7.667,9.417-2.933,3.983-0.5,0.55
		c-3.133,5.667-5.667,10.167-7.6,13.5c-1.467,2.567-3.417,6.217-5.85,10.95l-3.15,6.4l7.25-12.45c5.167-9,8.434-15.333,9.8-19L0-0.1
		v0.05L0.05-0.1L0.25,0L-0.3,1.8l-5.5,12.75c-1.2,2.7-2.717,6.5-4.55,11.4l-2.45,6.65l3.75-8.3c2.9-6.466,5.2-11.883,6.9-16.25
		L-5.7,19.7c-1.1,3.667-2.517,8.833-4.25,15.5l-2.25,8.9l5.3-16.5c3.8-12.033,6.133-20.767,7-26.2l0.1-0.1v0.45l-2.05,13.3
		c-0.433,2.767-0.917,6.684-1.45,11.75l-0.65,6.75l1.55-8.65C-1.3,18.167-0.5,12.55,0,8.05l-0.35,11.7
		c-0.133,3.667-0.133,8.833,0,15.5l0.25,8.85l0.8-16.65c0.433-12.2,0.383-20.934-0.15-26.2V0.1C1.583,3.967,2.767,8.483,4.1,13.65z"
		/>
</symbol>
<symbol  id="star1" viewBox="-4.5 -4.5 9 9">
	
		<radialGradient id="SVGID_10_" cx="0" cy="0" r="4.4875" gradientTransform="matrix(1 0 0 -1 0 0)" gradientUnits="userSpaceOnUse">
		<stop  offset="0" style="stop-color:#F5FEFF;stop-opacity:0.498"/>
		<stop  offset="0.9804" style="stop-color:#A9D4D9;stop-opacity:0"/>
	</radialGradient>
	<polygon style="fill-rule:evenodd;clip-rule:evenodd;fill:url(#SVGID_10_);" points="0,4.5 0.75,0.75 4.5,0 0.75,-0.8 0,-4.5 
		-0.8,-0.8 -4.5,0 -0.8,0.75 	"/>
</symbol>
<symbol  id="star2" viewBox="-2.25 -2.25 4.5 4.5">
	
		<radialGradient id="SVGID_11_" cx="0" cy="0" r="2.25" gradientTransform="matrix(1 0 0 -0.9944 0 -4.882813e-004)" gradientUnits="userSpaceOnUse">
		<stop  offset="0" style="stop-color:#F5FEFF;stop-opacity:0.498"/>
		<stop  offset="0.9804" style="stop-color:#A9D4D9;stop-opacity:0"/>
	</radialGradient>
	<polygon style="fill-rule:evenodd;clip-rule:evenodd;fill:url(#SVGID_11_);" points="0,2.25 0.4,0.35 2.25,0 0.4,-0.4 0,-2.25 
		-0.4,-0.4 -2.25,0 -0.4,0.35 	"/>
</symbol>
<use xlink:href="#conchAnim_FLM_x5F_FRAME_x5F_0"  width="109" height="94" x="-55" y="-49" transform="matrix(1 0 0 -1 45 45)" style="overflow:visible;"/>
</svg>
