<?xml version="1.0" encoding="iso-8859-1"?>
<!-- Generator: Adobe Illustrator 16.0.0, SVG Export Plug-In . SVG Version: 6.00 Build 0)  -->
<!DOCTYPE svg PUBLIC "-//W3C//DTD SVG 1.1//EN" "http://www.w3.org/Graphics/SVG/1.1/DTD/svg11.dtd">
<svg version="1.1" id="FlashAICB" xmlns="http://www.w3.org/2000/svg" xmlns:xlink="http://www.w3.org/1999/xlink" x="0px" y="0px"
	 width="115px" height="101px" viewBox="0 0 115 101" style="enable-background:new 0 0 115 101;" xml:space="preserve">
<symbol  id="Symbol_1" viewBox="0 -85.5 99.5 85.5">
	<g id="Layer_3_1_">
		<path style="fill-rule:evenodd;clip-rule:evenodd;fill:#FFFFFF;" d="M47.25-9.25c0.3,1.567,0.65,3.583,1.05,6.05L48.75,0
			c1.133-0.1,2.433-2.383,3.9-6.85C53.383-9.083,54-11.3,54.5-13.5c-1.167,0-2.583-0.083-4.25-0.25c-1.033-0.1-2.133-0.467-3.3-1.1
			l-1.45-0.9C46.167-13.917,46.75-11.75,47.25-9.25z M77.5-24l-0.25,2c-0.1,0.833-0.533,1.783-1.3,2.85
			c-0.867,1.1-1.434,1.816-1.7,2.15l11-0.75L77.5-24z M66.2-22.65c-0.7,1-1.517,1.717-2.45,2.15c-1,0.433-3.117,0.433-6.35,0
			c-2.4-0.333-5.033-0.833-7.9-1.5c-1.767-0.433-4.217-1.35-7.35-2.75l-4.15-2l-1.25,2.5l3.75,3c0.7,0.5,2,1.15,3.9,1.95
			c1.1,0.433,2.967,1.2,5.6,2.3c1.667,0.733,4.3,1.2,7.9,1.4c1.767,0.1,3.383,0.133,4.85,0.1c2.1,0,4.35-0.75,6.75-2.25
			c1.2-0.767,2.2-1.517,3-2.25l0.8-0.85c0.6-0.7,1-1.417,1.2-2.15c0.333-1.167,1.75-3.5,4.25-7c-0.333-3.333-0.583-5.25-0.75-5.75
			c-0.267-0.767-0.633-1.417-1.1-1.95c-1.033-1.133-2.833-2.4-5.4-3.8c-2.733-1.467-6.517-2.817-11.35-4.05
			c-4.4-1.133-7.2-1.617-8.4-1.45c-0.667,0.067-0.983,0.117-0.95,0.15c0.133,0.067-0.05,0.184-0.55,0.35
			c-0.633,0.2-2.45,1.217-5.45,3.05l-4.3,2.7c-5,4-8.083,6.333-9.25,7c-0.733,0.4-1.75,1.567-3.05,3.5l-1.7,2.75l-7.75-3.25
			l-0.35-1.3c-0.133-1.067-0.017-2.1,0.35-3.1c1.167-3.167,4.667-5.367,10.5-6.6c0.467-0.1,1.45-0.383,2.95-0.85
			c-1.233-0.467-2.55-1.05-3.95-1.75l-1.75-0.9c-2.833,0.833-4.583,1.417-5.25,1.75c-1.5,0.7-2.85,1.367-4.05,2
			c-2.333,1.2-3.817,2.117-4.45,2.75c-0.7,0.7-1.1,1.3-1.2,1.8c-0.033,0.2-0.05,1.1-0.05,2.7c0,1.133,0.083,2.567,0.25,4.3l0.25,2.2
			l9.85,4.9c2.133,1,3.717,1.483,4.75,1.45c0.5-0.033,0.8-0.15,0.9-0.35l2.6-1.5c1.8-1.1,2.85-1.85,3.15-2.25
			c0.267-0.333,0.767-1.133,1.5-2.4c0.867-1.233,1.867-2.267,3-3.1c1.167-0.833,3.117-1.7,5.85-2.6
			c1.467-0.467,3.35-1.017,5.65-1.65c1.533-0.467,3.55-0.767,6.05-0.9c3.133-0.2,6.284-0.067,9.45,0.4c2.933,0.4,4.267,1.983,4,4.75
			l-1.25,4L67-24C66.833-23.6,66.567-23.15,66.2-22.65z M68.5-1.75l0.25-3v-9.75L66-13.25c-1.133,0.533-2.4,0.767-3.8,0.7l-1.7-0.2
			L68.5-1.75z M83.4-43.15c4.567-1.867,7.267-3.067,8.1-3.6c1.333-0.833,4-3,8-6.5c-0.567,0.067-1.383,0.267-2.45,0.6
			c-2.066,0.667-4.25,1.633-6.55,2.9l-15,8.25l0.15,0.5c0.2,0.333,0.567,0.5,1.1,0.5L83.4-43.15z M36.25-12.5
			c1.5-0.833,3.5-2.167,6-4c-2.5-1.333-4-2.25-4.5-2.75L37-20c-4,4.167-6.417,6.917-7.25,8.25l-1.25,2l3.05-0.9
			C33.75-11.35,35.317-11.967,36.25-12.5z M60.75-81.5c-0.833,5-1.25,8.667-1.25,11c0,1.233-0.283,4.683-0.85,10.35L57.75-52
			c2.2-1.367,4.017-7.067,5.45-17.1c0.733-5.033,1.25-9.933,1.55-14.7l-2.25-1.7C61.667-84.667,61.083-83.333,60.75-81.5z M0-66.5
			c0.5,0.667,0.917,1.417,1.25,2.25c0.233,0.567,1.783,2.583,4.65,6.05c2.733,3.3,4.6,5.45,5.6,6.45c1.167,1.167,3,2.583,5.5,4.25
			c0.367,0.133-0.017-0.867-1.15-3c-1.133-2.1-2.083-3.6-2.85-4.5c-0.2-0.233-0.85-1.25-1.95-3.05
			c-0.933-1.467-2.033-2.784-3.3-3.95c-1.367-1.267-3.067-2.4-5.1-3.4L0-66.5z M34.25-46.75c1.1,1.733,1.65,1.967,1.65,0.7
			c0-1.067-0.217-2.217-0.65-3.45c-0.133-0.433-2.217-5.067-6.25-13.9c-3.967-8.767-6.05-13.467-6.25-14.1
			c-0.267-0.9-0.7-1.85-1.3-2.85c-0.633-1.033-1.2-1.667-1.7-1.9c-0.4-0.2-1.183-0.8-2.35-1.8l-1.65-1.45
			c2.667,6.833,4.583,11.583,5.75,14.25c0.733,1.667,3.083,6.25,7.05,13.75C30.517-53.767,32.417-50.183,34.25-46.75z"/>
	</g>
</symbol>
<g>
	<image style="overflow:visible;" width="160" height="146" xlink:href="88AEFCA5.png"  transform="matrix(1 0 0 1 -24 -24)">
	</image>
	<g>
		<use xlink:href="#Symbol_1"  width="99.5" height="85.5" y="-85.5" transform="matrix(1 0 0 -1 6 6)" style="overflow:visible;"/>
	</g>
</g>
</svg>
