<?xml version="1.0" encoding="iso-8859-1"?>
<!-- Generator: Adobe Illustrator 16.0.0, SVG Export Plug-In . SVG Version: 6.00 Build 0)  -->
<!DOCTYPE svg PUBLIC "-//W3C//DTD SVG 1.1//EN" "http://www.w3.org/Graphics/SVG/1.1/DTD/svg11.dtd">
<svg version="1.1" id="FlashAICB" xmlns="http://www.w3.org/2000/svg" xmlns:xlink="http://www.w3.org/1999/xlink" x="0px" y="0px"
	 width="112.2px" height="53.85px" viewBox="0 0 112.2 53.85" style="enable-background:new 0 0 112.2 53.85;" xml:space="preserve"
	>
<symbol  id="notes1" viewBox="0.021 -21.144 33.834 21.144">
	<g id="Layer_3_1_">
		<path style="fill-rule:evenodd;clip-rule:evenodd;fill:#C6C6C6;" d="M12.6-13c0.2,0.333,0.25,0.867,0.15,1.6l-0.35,0.05l-0.5-0.05
			h-0.3l-0.55-0.25c-0.3-0.233-0.45-0.433-0.45-0.6l-0.05-0.2l-0.05-0.5L12.6-13z M10.25-10.35l1,0.45c0.366,0,0.95,0,1.75,0
			c0.667-0.1,1.066-0.433,1.2-1c0.167-0.667,0.184-1.333,0.05-2c-0.167-0.833-0.517-1.333-1.05-1.5c-0.233-0.1-0.6-0.133-1.1-0.1
			c-0.5,0.034-0.866,0.05-1.1,0.05c-1.067,0-1.7,0.2-1.9,0.6C9.033-13.716,9-13.433,9-13c0.033,0.434,0.05,0.733,0.05,0.9
			c0.033,0.4,0.167,0.733,0.4,1C9.55-10.933,9.816-10.683,10.25-10.35z"/>
		<path style="fill-rule:evenodd;clip-rule:evenodd;fill:#C6C6C6;" d="M18.2-1.35c0.4,0.8,0.9,1.25,1.5,1.35l0.85-0.3
			c0.3-0.1,0.8-0.2,1.5-0.3c0.566-0.167,0.967-0.467,1.2-0.9c0.066-0.167,0.15-0.733,0.25-1.7c0.066-0.733-0.083-1.35-0.45-1.85
			c-0.4-0.5-0.967-0.783-1.7-0.85c-0.933-0.1-1.767,0.05-2.5,0.45c-0.866,0.466-1.267,1.15-1.2,2.05
			C17.683-2.733,17.866-2.05,18.2-1.35z M20.1-1.75l-0.3,0.1c-0.367-0.433-0.583-1.05-0.65-1.85c-0.034-0.167,0-0.3,0.1-0.4
			c0.333-0.333,0.883-0.5,1.65-0.5h0.3c0.567,0.067,0.833,0.434,0.8,1.1v0.25L21.9-2.2c-0.067,0.066-0.35,0.15-0.85,0.25L20.1-1.75z
			"/>
		<path style="fill-rule:evenodd;clip-rule:evenodd;fill:#C6C6C6;" d="M30.2-9.95L30-10c-0.133-0.067-0.3-0.217-0.5-0.45
			c-0.167-0.233-0.267-0.433-0.3-0.6l0.7-0.25c0.3-0.1,0.667-0.15,1.1-0.15l0.55,0.05c0.3,0.066,0.5,0.2,0.6,0.4
			c0.167,0.2,0.217,0.5,0.15,0.9c-0.067,0.3-0.583,0.467-1.55,0.5L30.4-9.8L30.2-9.95z M30.35-8.1c1.967,0,3.1-0.533,3.4-1.6
			c0.2-0.767,0.117-1.45-0.25-2.05c-0.4-0.633-0.967-1.017-1.7-1.15c-0.7-0.167-1.483-0.117-2.35,0.15
			c-0.933,0.267-1.483,0.583-1.65,0.95c-0.267,0.567-0.167,1.233,0.3,2c0.434,0.7,0.934,1.117,1.5,1.25L30.35-8.1z"/>
		<path style="fill-rule:evenodd;clip-rule:evenodd;fill:#C6C6C6;" d="M3.35-16.75c0.733-0.267,1.217-0.65,1.45-1.15
			c0.267-0.566,0.283-1.133,0.05-1.7c-0.2-0.5-0.566-0.917-1.1-1.25c-0.5-0.333-1.134-0.384-1.9-0.15
			c-0.9,0.267-1.433,0.55-1.6,0.85c-0.267,0.534-0.3,1.083-0.1,1.65c0.033,0.167,0.167,0.367,0.4,0.6S0.933-17.483,1-17.35l0.45,0.6
			C1.95-16.517,2.583-16.517,3.35-16.75z M2.95-19.6c0.5,0.333,0.667,0.683,0.5,1.05c-0.2,0.3-0.583,0.45-1.15,0.45v-0.05
			c-0.167-0.3-0.383-0.55-0.65-0.75L1.6-19c-0.066-0.133-0.066-0.25,0-0.35l0.6-0.2h0.05l0.5-0.1L2.95-19.6z"/>
	</g>
</symbol>
<symbol  id="notes2" viewBox="0 -13.825 22.913 13.828">
	<g id="Layer_3_2_">
		<path style="fill-rule:evenodd;clip-rule:evenodd;fill:#C6C6C6;" d="M3.35-8.5l0.4-0.05H3.8L3.95-7.9
			c0.1,0.867,0.083,1.483-0.05,1.85L2.8-6.3H2.6c-0.467,0-0.783-0.1-0.95-0.3C1.55-6.833,1.5-7.283,1.5-7.95v-0.5L3.35-8.5z
			 M1.35-4.95c0.3,0.1,0.733,0.15,1.3,0.15L4-4.45c1.167,0.233,1.65-0.966,1.45-3.6c-0.067-0.733-0.267-1.267-0.6-1.6
			c-0.233-0.233-0.55-0.367-0.95-0.4C3.433-10.017,3.067-10,2.8-10c-1,0-1.65,0.05-1.95,0.15c-0.333,0.133-0.567,0.3-0.7,0.5
			C0.05-9.183,0-8.867,0-8.4c0,1.2,0.1,2.017,0.3,2.45C0.533-5.45,0.883-5.117,1.35-4.95z"/>
		<path style="fill-rule:evenodd;clip-rule:evenodd;fill:#C6C6C6;" d="M11.45-2.6l0.6-0.05c1.1,0,1.783,0.183,2.05,0.55
			c0.133,0.167,0.15,0.333,0.05,0.5l-0.1,0.05H12.6c-0.733,0-1.1-0.233-1.1-0.7L11.45-2.6z M10-2.05c0.133,1.3,1,1.983,2.6,2.05h1.3
			c0.767,0.033,1.317-0.3,1.65-1c0.3-0.667,0.233-1.317-0.2-1.95C14.983-3.45,14.433-3.8,13.7-4c-0.467-0.1-1.133-0.15-2-0.15
			c-0.934,0-1.5,0.2-1.7,0.6C9.899-3.383,9.899-2.883,10-2.05z"/>
		<path style="fill-rule:evenodd;clip-rule:evenodd;fill:#C6C6C6;" d="M21.3-12.2c0.167,0.333,0.167,0.65,0,0.95h-0.65
			c-0.8,0-1.2-0.133-1.2-0.4l-0.1-0.3c0.1-0.1,0.3-0.183,0.6-0.25c0.2-0.066,0.483-0.1,0.85-0.1C21.133-12.3,21.3-12.266,21.3-12.2z
			 M21.8-9.75c0.5-0.267,0.833-0.684,1-1.25c0.167-0.534,0.15-1.1-0.05-1.7c-0.367-1-1.417-1.333-3.15-1
			c-1.566,0.367-2.1,1.217-1.6,2.55c0.3,0.933,1.184,1.4,2.65,1.4H21.8z"/>
	</g>
</symbol>
<symbol  id="notes3" viewBox="0.001 -12.45 34.229 12.45">
	<g id="Layer_3_3_">
		<path style="fill-rule:evenodd;clip-rule:evenodd;fill:#C6C6C6;" d="M3.75-1.6l-1.2-0.05c-0.5,0-0.8-0.033-0.9-0.1l-0.1-0.4
			c-0.067-0.3-0.067-0.483,0-0.55C1.616-2.8,1.866-2.917,2.3-3.05c0.667-0.2,1.15-0.3,1.45-0.3h0.15v0.05C3.966-3.133,4-2.8,4-2.3
			v0.2L3.95-1.85L3.75-1.6z M0.05-1.9C0.183-1.1,0.533-0.583,1.1-0.35c0.3,0.133,0.883,0.2,1.75,0.2L4.3,0
			c0.2-0.267,0.466-0.566,0.8-0.9c0.233-0.3,0.367-0.683,0.4-1.15c0-0.9-0.05-1.483-0.15-1.75c-0.233-0.7-0.733-1.066-1.5-1.1
			c-0.434,0-1.1,0.133-2,0.4C0.416-4.066-0.184-3.2,0.05-1.9z"/>
		<path style="fill-rule:evenodd;clip-rule:evenodd;fill:#C6C6C6;" d="M10.1-10.5h0.2c0.833-0.167,1.4-0.25,1.7-0.25
			c0.233,0,0.367,0.017,0.4,0.05l0.05,1.4c0,0.3-0.117,0.517-0.35,0.65l-1.05-0.3h-0.2c-0.8,0-1.25-0.034-1.35-0.1l-0.1-0.3
			c-0.033-0.434,0-0.733,0.1-0.9C9.6-10.35,9.8-10.433,10.1-10.5z M8.95-7.65c0.367,0.167,1,0.25,1.9,0.25l1.05,0.25
			c0.534,0.067,1.017-0.133,1.45-0.6c0.4-0.466,0.6-0.966,0.6-1.5c0-0.966-0.017-1.533-0.05-1.7c-0.1-0.8-0.633-1.233-1.6-1.3
			c-0.467-0.033-1.3,0.067-2.5,0.3c-1.467,0.233-2.1,1.15-1.9,2.75C8-8.433,8.35-7.917,8.95-7.65z"/>
		<path style="fill-rule:evenodd;clip-rule:evenodd;fill:#C6C6C6;" d="M31.823-10.538l0.333-0.135l0.043-0.012l0.279,0.524
			c0.286,0.723,0.414,1.258,0.383,1.604l-1.004,0.039l-0.172,0.046c-0.401,0.108-0.697,0.095-0.887-0.039
			c-0.14-0.178-0.287-0.554-0.44-1.127l-0.115-0.43L31.823-10.538z M30.92-7.021c0.281,0.017,0.666-0.04,1.153-0.17l1.243-0.01
			c1.058-0.068,1.197-1.212,0.418-3.432c-0.227-0.616-0.522-1.029-0.885-1.239c-0.255-0.147-0.558-0.188-0.91-0.125
			c-0.394,0.136-0.705,0.235-0.935,0.296c-0.861,0.231-1.408,0.423-1.644,0.579c-0.256,0.192-0.418,0.389-0.487,0.592
			c-0.047,0.167-0.017,0.451,0.09,0.853c0.277,1.032,0.551,1.712,0.823,2.039C30.102-7.263,30.48-7.057,30.92-7.021z"/>
		<path style="fill-rule:evenodd;clip-rule:evenodd;fill:#C6C6C6;" d="M21.05-10.7l0.5-0.1c0.967,0,1.567,0.217,1.8,0.65
			c0.1,0.167,0.117,0.35,0.05,0.55l-0.1,0.05C23-9.017,22.45-8.934,21.65-9.3c-0.367-0.167-0.55-0.517-0.55-1.05L21.05-10.7z
			 M22.05-7.8h1.1c0.667,0.034,1.15-0.35,1.45-1.15c0.267-0.733,0.217-1.45-0.15-2.15c-0.333-0.6-0.817-1-1.45-1.2
			c-0.4-0.1-0.983-0.15-1.75-0.15c-0.8,0-1.3,0.217-1.5,0.65c-0.067,0.2-0.067,0.767,0,1.7C19.883-8.667,20.65-7.9,22.05-7.8z"/>
	</g>
</symbol>
<g>
	<g>
		<g>
			<path style="fill-rule:evenodd;clip-rule:evenodd;fill:#44403B;" d="M90.975,27.925L90.45,27.6
				c-0.167-0.3-0.417-0.517-0.75-0.649c-1.533-0.633-3.816-1.65-6.851-3.05c-2.666-1.167-5.05-1.85-7.149-2.05
				c-0.215-0.011-0.407,0.006-0.575,0.05c-0.358,0.116-0.617,0.366-0.775,0.75L74,23c-0.267,0.367-0.8,0.367-1.6,0
				c-0.7-0.333-1.184-0.667-1.45-1l-0.2-0.2c-0.1-0.5-0.417-0.833-0.95-1c-2.8-0.966-6.05-1.566-9.75-1.8
				c-1.866-0.133-5.183-0.183-9.95-0.15l-0.55,0.1l-0.1-0.55c1.2,0.167,2.433,0.233,3.7,0.2c6.966-0.167,12.65,0.167,17.05,1
				c0.233-0.233,0.566-0.383,1-0.45c0.233-0.033,0.666-0.05,1.3-0.05l1.45-0.2c0.399,0.434,0.666,0.733,0.8,0.9
				c0.2,0.233,0.333,0.55,0.4,0.95c0.175,0.032,0.341,0.065,0.5,0.1l2.6,0.525c0.029,0.011,0.054,0.02,0.075,0.025h0.024
				c1.067,0.233,2.567,0.684,4.5,1.35c0.041,0.014,0.083,0.031,0.125,0.05c0.384,0.137,0.784,0.295,1.2,0.475L91.4,27.15
				c0.19,0.112,0.382,0.229,0.574,0.35c-0.106,0.021-0.198,0.037-0.274,0.05C91.356,27.612,91.114,27.737,90.975,27.925z
				 M111.725,48.025l-2.675-4.575c-1.5-2.434-2.95-4.351-4.35-5.75c-2.066-2.2-4.617-4.217-7.65-6.05L95.6,30.8
				c-0.889-0.614-1.639-1.148-2.25-1.6c0.087-0.18,0.17-0.379,0.25-0.601L98.2,31.45c1.633,0.899,3.133,2.083,4.5,3.55
				c1.434,1.667,2.583,2.917,3.45,3.75c1.899,1.767,3.533,3.9,4.899,6.4l1.15,2.399l-0.45,0.5L111.725,48.025z M97.45,25.75
				c0.938,0.458,1.805,0.958,2.6,1.5c-0.09,0.084-0.156,0.192-0.2,0.325c-1.142-0.891-2.275-1.533-3.399-1.925l0.35-0.2L97.45,25.75
				z M104.8,32.95l-3.2-3.5c0.363-0.012,0.63-0.079,0.801-0.2c0.414,0.418,0.881,0.918,1.399,1.5c0.667,0.866,1.167,1.467,1.5,1.8
				l5.5,5.95l-0.1,0.3c-0.7-0.467-1.334-0.95-1.9-1.45L104.8,32.95z M71.55,19.85c-0.267,0.3-0.383,0.667-0.35,1.1l-0.05,0.1
				c-0.034,0.4,0.083,0.667,0.35,0.8c0.267,0.333,0.65,0.5,1.15,0.5c0.267,0,0.449-0.033,0.55-0.1l0.2,0.05h0.1l0.05-0.05v-0.2
				c0.533-0.4,0.717-0.95,0.55-1.65c-0.199-0.7-0.683-1.05-1.449-1.05C72.184,19.35,71.816,19.517,71.55,19.85z"/>
			<path style="fill-rule:evenodd;clip-rule:evenodd;fill:#54504A;" d="M111.725,48.025L111.55,48.2L111,46.95
				c-0.533-0.934-1.134-1.7-1.8-2.3c-0.533-0.467-1.233-1.301-2.101-2.5c-0.966-1.334-1.833-2.384-2.6-3.15
				c-0.733-0.767-1.5-1.667-2.3-2.7c-0.152-0.179-0.319-0.354-0.5-0.524c-0.705-0.729-1.604-1.454-2.7-2.176
				c-1.233-0.833-2.566-1.616-4-2.35c0.055-0.027,0.105-0.053,0.15-0.075c-0.53-0.2-1.33-0.575-2.4-1.125
				c0.217-0.18,0.417-0.463,0.6-0.85c0.611,0.451,1.361,0.985,2.25,1.6l1.45,0.851c3.033,1.833,5.584,3.85,7.65,6.05
				c1.399,1.399,2.85,3.316,4.35,5.75L111.725,48.025z M88.9,27.7c-1.565-1.039-2.966-1.839-4.2-2.4c-1.867-0.9-3.867-1.55-6-1.95
				c-0.9-0.167-2.117-0.45-3.65-0.85c0.032-0.159,0.057-0.358,0.075-0.6c0.168-0.044,0.36-0.061,0.575-0.05
				c2.1,0.2,4.483,0.883,7.149,2.05c3.034,1.4,5.317,2.417,6.851,3.05c0.333,0.133,0.583,0.35,0.75,0.649l0.524,0.325L90.95,27.95
				c-0.233,0.267-0.351,0.533-0.351,0.8v0.025L89.8,28.3C89.494,28.089,89.194,27.889,88.9,27.7z M97.45,25.75l-0.65-0.3l-0.35,0.2
				c1.124,0.393,2.258,1.034,3.399,1.925c-0.033,0.118-0.05,0.26-0.05,0.425c0,0.03,0.042,0.247,0.125,0.65
				c-1.271-1.053-2.529-2.02-3.774-2.9l0.399-0.45L97.45,25.75z M104.8,32.95c-0.632-0.443-1.99-1.643-4.075-3.601
				c0.222,0.067,0.479,0.101,0.775,0.101c0.037,0,0.07,0,0.1,0L104.8,32.95z"/>
			<path style="fill-rule:evenodd;clip-rule:evenodd;fill:#C2BAAF;" d="M92.75,30.05c1.07,0.55,1.87,0.925,2.4,1.125
				c-0.045,0.022-0.096,0.048-0.15,0.075c1.434,0.733,2.767,1.517,4,2.35c1.096,0.722,1.995,1.446,2.7,2.176
				c-0.169,0.474-0.27,0.865-0.3,1.175l-1.051-0.75c-0.233-0.167-0.55-0.483-0.949-0.95c-0.4-0.434-0.717-0.733-0.95-0.9
				c-0.5-0.399-1.316-0.899-2.45-1.5c-0.5-0.333-1.217-0.816-2.15-1.449l0.301,0.05c-0.638-0.336-1.188-0.637-1.65-0.9
				c0.028,0.049,0.062,0.1,0.1,0.15l-1.3-0.851c-0.014-0.013-0.03-0.029-0.05-0.05c0.134,0.041,0.284,0.058,0.45,0.05
				c0.033,0.034,0.066,0.117,0.1,0.25c0.066,0.101,0.2,0.15,0.4,0.15C92.395,30.25,92.578,30.184,92.75,30.05z M88.9,27.7
				c0.294,0.188,0.594,0.389,0.899,0.6l0.8,0.476c0.004,0.254,0.046,0.462,0.125,0.625c-0.369-0.256-0.844-0.539-1.425-0.851
				c-0.233-0.166-0.366-0.366-0.399-0.6C88.9,27.916,88.9,27.833,88.9,27.7z"/>
		</g>
		<path style="fill-rule:evenodd;clip-rule:evenodd;fill:#C2BAAF;" d="M78,29.85c-0.1-0.5-0.066-0.816,0.1-0.949l1.1,0.149
			c0.834,0.9,1.584,1.367,2.25,1.4h1.65c0.134,0.566-0.267,0.95-1.199,1.149c-0.834,0.167-1.484,0.167-1.951,0
			C79.316,31.4,78.8,31.133,78.4,30.8C78.233,30.6,78.1,30.283,78,29.85z"/>
		<path style="fill-rule:evenodd;clip-rule:evenodd;fill:#C2BAAF;" d="M77.699,27.55c0.034-0.267,0.284-0.533,0.75-0.8
			c0.367-0.233,0.701-0.383,1-0.45c0.601-0.133,1.201-0.066,1.801,0.2c0.8,0.367,1.117,1,0.949,1.9
			c-0.166-0.167-0.366-0.417-0.6-0.75c-0.232-0.2-0.533-0.317-0.9-0.351c-0.433-0.033-0.799,0.067-1.1,0.3
			c-0.166,0.134-0.467,0.367-0.9,0.7L77.699,27.55z"/>
		<path style="fill-rule:evenodd;clip-rule:evenodd;fill:#C2BAAF;" d="M77.949,27.9c1.134-0.768,2.351-1.134,3.65-1.101h0.551
			c0.166,0.033,0.283,0.15,0.35,0.351c0.1,0.433,0.05,0.732-0.15,0.899c-0.133,0.134-0.283,0.167-0.449,0.101
			c-0.101-0.033-0.25-0.101-0.451-0.2c-0.066-0.033-0.35-0.05-0.85-0.05c-0.3,0-0.6,0.083-0.9,0.25
			c-0.332,0.166-0.449,0.383-0.35,0.649L77.949,27.9z"/>
		<path style="fill-rule:evenodd;clip-rule:evenodd;fill:#C2BAAF;" d="M67.15,25.15c1.199,0.333,2.967,0.9,5.299,1.7
			c2.034,0.7,3.317,1.1,3.851,1.2c0.434,0.101,0.783,0.233,1.05,0.4c0.4,0.267,0.35,0.517-0.15,0.75
			c-0.232,0.1-0.516,0.083-0.85-0.05c-0.166-0.067-0.416-0.184-0.75-0.351c-0.3-0.066-0.767-0.083-1.4-0.05
			c-0.366-0.066-0.899-0.267-1.6-0.6c-0.666-0.301-1.199-0.467-1.6-0.5l-2.35-0.101C67.684,27.517,66.9,27.4,66.3,27.2
			c-1.566-0.567-2.733-0.75-3.5-0.55l-0.55,0.4c-0.233,0.2-0.417,0.267-0.551,0.2c-0.1-0.033-0.149-0.117-0.149-0.25
			c0.033-0.133,0.05-0.233,0.05-0.3l-0.15-1.3c-0.433-0.067-0.866,0.1-1.299,0.5c-0.4,0.367-0.601,0.784-0.601,1.25
			c-0.134-0.033-0.399-0.15-0.8-0.351c-0.301-0.167-0.566-0.267-0.801-0.3c-0.1,0-0.683,0.05-1.75,0.15
			c-0.732,0.034-1.266-0.033-1.599-0.2c1.066-0.134,1.867-0.25,2.4-0.35c-0.4-0.233-1.417-0.35-3.05-0.35
			c-0.667,0-1.6,0.083-2.8,0.25c-1.3,0-2.233,0.217-2.8,0.65c-0.4,0.3-0.733,0.883-1,1.75c-0.3,0.933-0.583,1.55-0.85,1.85
			c-0.067-0.6-0.1-1.367-0.1-2.3c0.033-1.034,0.05-1.8,0.05-2.3l11.1-1.4c-0.267-0.033-0.116-0.066,0.45-0.1
			c0.4-0.067,0.783-0.067,1.15,0h1.799c1.234-0.1,2.15-0.117,2.75-0.05c0.467,0.066,1.051,0.216,1.75,0.45L67.15,25.15z"/>
		<path style="fill-rule:evenodd;clip-rule:evenodd;fill:#C2BAAF;" d="M11.8,33.4l2.05-1c1.066-0.7,1.883-1.2,2.45-1.5
			c1.367-0.934,2.45-1.601,3.25-2c0.5-0.334,0.883-0.584,1.15-0.75c0.5-0.301,0.934-0.417,1.3-0.351c0.1,0.333-0.05,0.667-0.45,1
			s-1,0.851-1.8,1.55c-1.033,0.834-2.15,1.518-3.35,2.051c-0.8,0.366-1.6,0.85-2.4,1.449c-0.8,0.467-1.267,0.783-1.4,0.95
			c-0.034,0.033-0.217,0.3-0.55,0.8c-0.3,0.434-0.816,0.9-1.55,1.4c-0.9,0.633-1.467,1.05-1.7,1.25c-0.733,0.7-1.45,1.467-2.15,2.3
			l-1,1.351L4.8,42.75c-1.566,1.8-2.45,2.35-2.65,1.65L3,43.25c0-0.4,0.367-1.017,1.1-1.85c0.8-0.934,1.4-1.768,1.8-2.5
			c0.133-0.268,0.4-0.617,0.8-1.051c0.4-0.467,0.667-0.816,0.8-1.05c0.667-1.033,1.283-1.717,1.85-2.05
			C10.45,34.15,11.267,33.7,11.8,33.4z"/>
		<path style="fill-rule:evenodd;clip-rule:evenodd;fill:#C2BAAF;" d="M38.1,21.05c1.066-0.2,1.867-0.35,2.4-0.45
			c0.967-0.133,1.767-0.167,2.4-0.1c0.1,0.5-0.1,0.833-0.6,1c-0.267,0.1-0.717,0.184-1.35,0.25c-1.7,0.2-2.95,0.45-3.75,0.75
			c-0.733,0.233-1.5,0.533-2.3,0.9l-1.15,0.45c-0.167,0.1-0.383,0.233-0.65,0.4h-0.6c-0.233,0.066-0.55,0.233-0.95,0.5
			c-0.566,0.3-0.983,0.6-1.25,0.9c-0.033,0.067-0.167,0.284-0.4,0.65c-0.2,0.3-0.35,0.467-0.45,0.5c-0.5,0.033-0.75-0.6-0.75-1.9
			l1.65-1.25c0.233-0.3,0.7-0.55,1.4-0.75c0.733-0.167,1.233-0.3,1.5-0.4C34.75,21.9,36.367,21.417,38.1,21.05z"/>
		<path style="fill-rule:evenodd;clip-rule:evenodd;fill:#C2BAAF;" d="M45.35,20.7c0.3,0.4,0.6,0.65,0.9,0.75
			c0.433,0.167,1.05,0.133,1.85-0.1c0.4-0.067,0.733-0.317,1-0.75c0.133-0.2,0.216-0.333,0.25-0.4c0.1-0.134,0.233-0.217,0.4-0.25
			l3.9-0.5c1.433-0.067,2.799-0.1,4.1-0.1c2.566,0.066,3.8,0.383,3.699,0.95c-0.033,0.2-0.416,0.367-1.149,0.5
			c-0.2,0.067-0.399,0.083-0.601,0.05c-0.133,0-0.35-0.034-0.649-0.1c-0.566-0.066-1.3-0.083-2.2-0.05c-0.5,0-1.233,0.017-2.2,0.05
			c-1.367,0-2.083,0-2.15,0c-0.867,0.066-1.583,0.233-2.15,0.5c-0.367,0.167-0.867,0.4-1.5,0.7c-0.534,0.2-1.083,0.25-1.65,0.15
			c-0.5-0.067-0.966-0.217-1.4-0.45c-0.233-0.167-0.467-0.433-0.7-0.8C44.9,20.483,44.983,20.434,45.35,20.7z"/>
		<path style="fill-rule:evenodd;clip-rule:evenodd;fill:#C2BAAF;" d="M78.1,22.2c0.634,0.033,1.117,0.167,1.45,0.4
			c1.067,0.733,1.434,1.433,1.101,2.1c-0.201-0.2-0.601-0.384-1.201-0.55c-0.766-0.2-1.232-0.333-1.399-0.4
			c-0.8-0.367-1.634-0.5-2.5-0.4c-0.333,0.066-0.783,0.283-1.351,0.65c-0.266,0.1-0.649,0.1-1.149,0c-0.8-0.1-1.217-0.4-1.25-0.9
			l0.101-1.75c0.6-0.034,1.366,0.05,2.299,0.25c1.334,0.267,2.084,0.417,2.25,0.45C77.184,22.117,77.733,22.167,78.1,22.2z"/>
		<path style="fill-rule:evenodd;clip-rule:evenodd;fill:#C2BAAF;" d="M71.55,20.95c-0.134,0.2-0.183,0.55-0.149,1.05l-1.15-1.25
			c-0.1-0.566,0.267-0.967,1.1-1.2c0.6-0.167,1.217-0.233,1.85-0.2c0.367,0.033,0.601,0.15,0.701,0.35
			c0.066,0.167,0.066,0.466,0,0.9h-1.5C71.967,20.6,71.684,20.717,71.55,20.95z"/>
		<path style="fill-rule:evenodd;clip-rule:evenodd;fill:#C2BAAF;" d="M93.3,24.75l-0.351-0.35c-0.133-0.733,0.301-1.15,1.301-1.25
			c1.033-0.133,1.467,0.183,1.3,0.95c-0.233,0.033-0.601,0.05-1.101,0.05C94.184,24.217,93.8,24.417,93.3,24.75z"/>
		<path style="fill-rule:evenodd;clip-rule:evenodd;fill:#C2BAAF;" d="M36.8,18.95c0.233-0.034,0.45-0.134,0.65-0.3
			c0.2-0.233,0.35-0.417,0.45-0.55c0.8-0.867,1.6-1.15,2.4-0.85c0.067,0.566-0.017,0.967-0.25,1.2c-0.066,0.1-0.2,0.2-0.4,0.3
			c-0.167,0.066-0.3,0.167-0.4,0.3c-0.267,0.4-0.417,0.634-0.45,0.7c-0.2,0.2-0.467,0.35-0.8,0.45
			c-0.733,0.233-1.483,0.267-2.25,0.1c-0.8-0.2-1.467-0.566-2-1.1l1-0.75c0.1,0.267,0.4,0.433,0.9,0.5
			C36.05,19.017,36.433,19.017,36.8,18.95z"/>
		<path style="fill-rule:evenodd;clip-rule:evenodd;fill:#C2BAAF;" d="M34.75,18.7l-0.25-1.5c0.4-0.434,1.083-0.634,2.05-0.6
			c0.967,0.033,1.283,0.4,0.95,1.1c-0.167,0.033-0.434,0.033-0.8,0c-0.367-0.067-0.65-0.067-0.85,0c-0.267,0.1-0.467,0.267-0.6,0.5
			c-0.033,0.1-0.083,0.233-0.15,0.4C35.033,18.7,34.917,18.733,34.75,18.7z"/>
		<path style="fill-rule:evenodd;clip-rule:evenodd;fill:#C2BAAF;" d="M48.35,15.45l1.75-0.65c4.466,0,7.983,0.167,10.55,0.5
			c0.566,0.033,0.916,0.083,1.049,0.15c0.334,0.1,0.451,0.35,0.351,0.75c-0.467,0.066-1.101,0.066-1.899,0
			c-1.067-0.1-1.717-0.15-1.951-0.15H51.65c-1.233,0-1.917,0.017-2.05,0.05c-0.7,0.167-1.117,0.233-1.25,0.2V15.45z"/>
		<path style="fill-rule:evenodd;clip-rule:evenodd;fill:#C2BAAF;" d="M63.449,16.05l-0.25-1.1c0.101-0.367,0.567-0.5,1.4-0.4
			c0.801,0.067,1.066,0.317,0.801,0.75c-0.101,0.167-0.451,0.267-1.051,0.3C63.816,15.6,63.517,15.75,63.449,16.05z"/>
		<path style="fill-rule:evenodd;clip-rule:evenodd;fill:#C2BAAF;" d="M76.8,17.95c0.167,0.066,1.3,0.383,3.399,0.95
			c0.367,0.067,0.567,0.183,0.601,0.35c0.033,0.066,0,0.3-0.101,0.7c-0.232,0.066-0.433-0.034-0.6-0.3l-0.65-0.3
			c-0.566-0.267-0.899-0.4-1-0.4c-0.299-0.034-1.033-0.2-2.199-0.5c-1-0.233-2.45-0.35-4.35-0.35c-1,0-1.451-0.2-1.351-0.6
			c0.167-0.033,1-0.05,2.5-0.05L76.8,17.95z"/>
		<path style="fill-rule:evenodd;clip-rule:evenodd;fill:#C2BAAF;" d="M27.1,19.85c0.8-0.233,1.417-0.417,1.85-0.55
			c0.733-0.233,1.35-0.35,1.85-0.35c1.2,0,1.684,0.216,1.45,0.65c-0.033,0.1-0.15,0.167-0.35,0.2c-0.1,0.033-0.233,0.05-0.4,0.05
			c-0.6,0.167-1.267,0.55-2,1.15l-0.8,0.65c-0.466,0.433-1.066,0.667-1.8,0.7c-0.467,0.066-1.183,0.133-2.15,0.2
			c-0.833,0.067-1.533,0.217-2.1,0.45c-0.133,0.066-0.5,0.167-1.1,0.3c-0.6,0.167-0.933,0.35-1,0.55
			c-0.167,0.333,0.117,0.65,0.85,0.95c-0.067,0.2-0.633,0.3-1.7,0.3c-1.2,0.033-1.9,0.083-2.1,0.15c-0.3,0.167-0.75,0.517-1.35,1.05
			c-1.533,0.9-2.5,1.434-2.9,1.601c-0.534,0.267-1,0.649-1.4,1.149c-0.5,0.533-1.233,1.067-2.2,1.601L9.1,31.1l1.6-1.699
			c0.1-0.7,0.633-1.351,1.6-1.95c1.167-0.534,1.95-0.934,2.35-1.2c1.133-0.733,2.1-1.417,2.9-2.05c0.3-0.233,0.717-0.483,1.25-0.75
			c0.767-0.367,1.217-0.6,1.35-0.7c1.3-0.633,2.267-1.133,2.9-1.5C23.783,20.816,25.133,20.35,27.1,19.85z M9.1,31.1L7.825,32.45
			c-0.077,0.227-0.168,0.394-0.275,0.5c-0.167,0.2-0.467,0.45-0.9,0.75l1.175-1.25c0.03-0.065,0.055-0.133,0.075-0.2
			C8,31.917,8.1,31.7,8.2,31.6c0.3-0.133,0.5-0.232,0.6-0.3L9.1,31.1z"/>
		<path style="fill-rule:evenodd;clip-rule:evenodd;fill:#C2BAAF;" d="M4.4,31.95C4.333,31.983,3.867,32.1,3,32.3l3.15-3.25
			c0.067-0.167,0.233-0.433,0.5-0.8c0.3-0.367,0.517-0.566,0.65-0.6c0.267,0,0.483-0.033,0.65-0.101c0.2-0.066,0.534-0.283,1-0.65
			c0.3-0.4,0.534-0.683,0.7-0.85c0.267-0.3,0.45-0.217,0.55,0.25c0.133,0.6,0.05,1.134-0.25,1.601
			c-0.167,0.267-0.633,0.566-1.4,0.899C8.417,28.9,8.2,28.967,7.9,29s-0.5,0.083-0.6,0.15c-0.333,0.166-0.717,0.566-1.15,1.199
			c-0.4,0.334-0.683,0.617-0.85,0.851C5,31.566,4.7,31.816,4.4,31.95z"/>
		<path style="fill-rule:evenodd;clip-rule:evenodd;fill:#C2BAAF;" d="M7.7,26.65l-0.9,0.1c-0.066-0.7,0.1-1.15,0.5-1.35
			c0.167-0.1,0.367-0.15,0.6-0.15c0.267-0.033,0.45,0.017,0.55,0.15c-0.033,0.1-0.2,0.284-0.5,0.55
			C7.75,26.117,7.667,26.35,7.7,26.65z"/>
		<path style="fill-rule:evenodd;clip-rule:evenodd;fill:#C2BAAF;" d="M10.2,24.25l4.4-3c0.966-0.733,1.65-1.066,2.05-1
			c-0.033,0.3-0.233,0.566-0.6,0.8c-0.2,0.134-0.5,0.317-0.9,0.55l-1.55,1.15c-0.8,0.467-1.467,0.9-2,1.3
			C10.867,24.55,10.4,24.617,10.2,24.25z"/>
		<path style="fill-rule:evenodd;clip-rule:evenodd;fill:#C2BAAF;" d="M23.45,18.85c-0.4,0.133-0.95,0.25-1.65,0.35
			c-0.9,0.267-1.5,0.65-1.8,1.15c-0.1,0.2-0.2,0.433-0.3,0.7c-0.133,0.233-0.316,0.417-0.55,0.55
			c-0.333,0.233-0.783,0.316-1.35,0.25c-0.433-0.034-0.867-0.167-1.3-0.4c-0.533-0.267-0.75-0.583-0.65-0.95L18,20.6
			c0.2,0.033,0.566-0.217,1.1-0.75c0.367-0.367,0.633-0.65,0.8-0.85c0.3-0.3,0.6-0.517,0.9-0.65c1.267-0.534,2.434-0.733,3.5-0.6
			C24.433,18.25,24.15,18.617,23.45,18.85z"/>
		<path style="fill-rule:evenodd;clip-rule:evenodd;fill:#C2BAAF;" d="M16.25,20.1l-1.15-1c0.433-0.567,1.066-0.817,1.9-0.75
			c0.5,0,0.717,0.167,0.65,0.5c-0.067,0.167-0.333,0.333-0.8,0.5C16.417,19.483,16.217,19.733,16.25,20.1z"/>
		<path style="fill-rule:evenodd;clip-rule:evenodd;fill:#C2BAAF;" d="M48.1,10.55c1.433,0.067,2.517,0.1,3.25,0.1
			c0.933,0,1.517,0.034,1.75,0.1c0.533,0.167,0.917,0.283,1.15,0.35c0.467,0.167,0.867,0.233,1.2,0.2
			c0.966-0.167,1.701-0.25,2.201-0.25c0.467,0,1.1,0.033,1.899,0.1c1,0.167,1.75,0.284,2.25,0.35l1.149,0.05
			c0.101,0.333-0.016,0.617-0.35,0.85c-0.333,0.2-0.666,0.284-1,0.25c-0.3,0-0.732-0.1-1.3-0.3c-0.566-0.2-1.017-0.3-1.351-0.3
			c-0.566,0-1.566,0.134-3,0.4c-1.267,0.267-2.283,0.333-3.05,0.2l-0.05-0.2c-1.233-0.233-2.483-0.184-3.75,0.15
			c-1,0.2-1.667,0.15-2-0.15c-0.133-0.1-0.217-0.233-0.25-0.4c0-0.233,0-0.433,0-0.6c-0.867-0.1-1.583-0.083-2.15,0.05
			c-0.633,0.133-1.267,0.434-1.9,0.9c-0.133,0.1-0.267,0.2-0.4,0.3c-0.067,0.033-0.233,0.066-0.5,0.1l-0.6,0.1
			c-0.233,0.1-0.517,0.233-0.85,0.4H37.8c-0.467,0-1.15,0.083-2.05,0.25c-0.9,0.167-1.583,0.25-2.05,0.25
			c-0.433,0-0.7,0.017-0.8,0.05c-0.133,0.033-0.267,0.117-0.4,0.25c-0.3,0.1-0.717,0.15-1.25,0.15c-0.267,0-0.7-0.017-1.3-0.05
			l1.15-0.65c0.4,0,0.9-0.116,1.5-0.35c0.867-0.3,1.35-0.467,1.45-0.5l2.45-0.65c2.5-0.6,4.333-0.983,5.5-1.15
			c1.733-0.267,3-0.383,3.8-0.35H48.1z"/>
		<path style="fill-rule:evenodd;clip-rule:evenodd;fill:#C2BAAF;" d="M66.75,12.8l0.5-1.65c0.566,0,1.316,0.034,2.25,0.1
			c1.066,0.1,1.8,0.15,2.199,0.15c1.134,0.067,1.951,0.15,2.451,0.25s1.183,0.284,2.049,0.55c0.934,0.3,1.601,0.5,2,0.6
			c1,0.367,1.768,0.617,2.301,0.75c1.233,0.367,2.1,0.667,2.6,0.9c0.167,0.1,1.334,0.55,3.5,1.35c0.367,0.167,0.801,0.434,1.301,0.8
			c0.633,0.5,1.049,0.8,1.25,0.9c0.433,0.333,0.783,0.566,1.049,0.7c0.234,0.167,0.601,0.35,1.101,0.55s0.851,0.367,1.05,0.5
			c1.066,0.733,1.9,1.233,2.5,1.5c0.467,0.267,0.75,0.5,0.85,0.7c-0.399,0.133-0.916,0.05-1.549-0.25
			c-0.167-0.067-0.634-0.333-1.4-0.8c-0.801-0.533-2.033-1.25-3.7-2.15c-1.366-0.833-2.45-1.267-3.25-1.3
			c-0.601,0-0.983-0.034-1.149-0.1c-0.134-0.034-0.317-0.167-0.551-0.4c-0.232-0.167-0.434-0.267-0.6-0.3
			c-0.033-0.2-0.233-0.367-0.6-0.5c-0.234-0.067-0.533-0.133-0.9-0.2c-0.267-0.034-0.65,0.017-1.15,0.15
			c-0.9,0.233-2.017-0.1-3.35-1c-0.533-0.333-1.217-0.583-2.051-0.75c-0.466-0.067-1.199-0.184-2.199-0.35
			c-1.834-0.4-3.051-0.55-3.65-0.45c-0.232,0.033-0.699,0.25-1.4,0.65c-0.6,0.333-1.082,0.45-1.449,0.35V12.8z"/>
		<path style="fill-rule:evenodd;clip-rule:evenodd;fill:#C2BAAF;" d="M26.15,12.1c0.567-0.034,1.033-0.133,1.4-0.3
			c0.5-0.366,0.883-0.583,1.15-0.65c0.233,0.667-0.15,1.183-1.15,1.55c-0.967,0.4-1.467,0.267-1.5-0.4
			c-0.233,0.1-0.483,0.35-0.75,0.75c-0.066,0.067-0.35,0.167-0.85,0.3c-0.133,0.033-0.733,0.316-1.8,0.85
			c-0.033,0.033-0.367,0.133-1,0.3L20,15.2c-1.3,0.466-2.75,1.133-4.35,2c-0.267,0.133-0.667,0.316-1.2,0.55
			c-0.167,0.1-0.533,0.434-1.1,1c-0.9,0.8-1.833,1.367-2.8,1.7c-1.367,0.466-2.316,0.933-2.85,1.4L6.35,23.1
			c-0.1,0.1-0.267,0.283-0.5,0.55c-0.233,0.2-0.467,0.284-0.7,0.25l2.05-3.65c0.534-0.333,1.3-0.95,2.3-1.85
			c0.967-0.9,1.733-1.517,2.3-1.85c1.233-0.767,2.767-1.55,4.6-2.35c1.433-0.467,2.5-0.85,3.2-1.15c1.6-0.667,2.767-1,3.5-1h1.6
			C25.333,12.083,25.816,12.1,26.15,12.1z"/>
		<path style="fill-rule:evenodd;clip-rule:evenodd;fill:#C2BAAF;" d="M26.45,9.25c-0.033,0.3-0.117,0.483-0.25,0.55
			c-0.066,0.033-0.283,0.067-0.65,0.1c-0.333,0.034-0.55,0.167-0.65,0.4c-0.2,0.367-0.317,0.567-0.35,0.6l-0.9-0.85
			c0.033-0.5,0.217-0.917,0.55-1.25c0.367-0.3,0.817-0.433,1.35-0.4C26.183,8.467,26.483,8.75,26.45,9.25z"/>
		<path style="fill-rule:evenodd;clip-rule:evenodd;fill:#C2BAAF;" d="M88.199,11.95c0.367,0.133,0.918,0.417,1.65,0.85
			c0.667,0.4,1.2,0.667,1.6,0.8c0.168,0.066,1.234,0.333,3.201,0.8c0.433,0.1,0.666,0.167,0.699,0.2c0.467,0.3,0.566,0.7,0.301,1.2
			c-0.4-0.133-1.018-0.433-1.851-0.9c-0.566-0.2-1.183-0.35-1.851-0.45c-1.332-0.2-2.299-0.467-2.899-0.8
			c-0.366-0.167-0.866-0.517-1.5-1.05c-0.634-0.5-1.149-0.85-1.55-1.05c-0.334-0.167-0.717-0.267-1.15-0.3
			c-0.767-0.066-1.166-0.1-1.199-0.1c-0.5-0.033-0.984-0.233-1.451-0.6c-0.1-0.066-0.266-0.233-0.5-0.5
			c-0.166-0.066-0.449-0.033-0.85,0.1l-0.8-0.1c-0.7-0.1-1.649-0.333-2.851-0.7c-1.366-0.434-2.316-0.7-2.85-0.8
			c-0.5-0.1-1.383-0.233-2.65-0.4c-0.266-0.033-0.666-0.033-1.199,0l-1.1-0.1c-0.201-0.1-0.301-0.233-0.301-0.4
			c0-0.2-0.017-0.333-0.05-0.4c-0.101-0.133-0.634-0.316-1.601-0.55C66.25,6.5,64.934,6.55,63.5,6.85
			c-1.2,0.267-2.051,0.4-2.551,0.4H56.9c-1.267,0-2.217-0.083-2.851-0.25c-0.133-0.033-0.217-0.117-0.25-0.25h-2.4
			c-1.033,0-2.033,0.117-3,0.35c-0.433,0.1-1,0.35-1.7,0.75c-0.233,0.133-0.483,0.133-0.75,0C45.783,7.783,45.7,7.7,45.7,7.6
			s-0.033-0.217-0.1-0.35c-0.167-0.367-0.467-0.483-0.9-0.35c-0.167,0.034-0.383,0.183-0.65,0.45c-0.333,0.3-1.066,0.483-2.2,0.55
			c-0.7,0.067-1.8,0.117-3.3,0.15c-1.3,0.067-2.35,0.3-3.15,0.7c-1.433,0.667-2.7,1.167-3.8,1.5c-0.6,0.133-1.1,0.367-1.5,0.7
			c-0.1,0.066-0.35,0.267-0.75,0.6c-0.333,0.3-0.583,0.467-0.75,0.5c-0.067-0.533-0.034-1,0.1-1.4l2.05-1.75
			c0.7,0.034,1.717-0.15,3.05-0.55c3.367-0.934,5.617-1.467,6.75-1.6c0.567-0.066,1.4-0.083,2.5-0.05c1.133,0,1.967-0.034,2.5-0.1
			c2.833-0.4,4.967-0.6,6.4-0.6H59c3.566,0,6.5,0.117,8.8,0.35l3,0.3c0.333,0.034,1.351,0.317,3.05,0.85
			c0.934,0.4,1.551,0.617,1.85,0.65c0.867,0.133,1.518,0.267,1.951,0.4c1.1,0.267,2.683,0.733,4.75,1.4
			c1.5,0.6,2.649,1.033,3.449,1.3C86.883,11.517,87.666,11.75,88.199,11.95z"/>
		<path style="fill-rule:evenodd;clip-rule:evenodd;fill:#54504A;" d="M5.7,27.35c0.2,0.301,0.667,0.567,1.4,0.801
			c-2,2.133-3.983,4.366-5.95,6.699V33.2c1-1.601,1.917-2.9,2.75-3.9C4,29.167,4.6,28.517,5.7,27.35z"/>
		<path style="fill-rule:evenodd;clip-rule:evenodd;fill:#54504A;" d="M14.55,21.05c0.133,0.3,0.467,0.483,1,0.55
			c-1.3,0.5-2.283,0.966-2.95,1.4c-0.5,0.3-1.3,0.967-2.4,2c-0.2-0.367-0.55-0.667-1.05-0.9l2.05-1.75
			c0.733-0.567,1.817-1.284,3.25-2.15C14.417,20.533,14.45,20.816,14.55,21.05z"/>
		<path style="fill-rule:evenodd;clip-rule:evenodd;fill:#54504A;" d="M23.05,10.75c0,0.667,0.3,1.217,0.9,1.65
			c-1.667,0.667-4.816,2.267-9.45,4.8c-2.5,1.333-4.434,2.633-5.8,3.9c-0.667,0.6-1.6,1.533-2.8,2.8
			c-1.233,1.3-2.067,2.217-2.5,2.75c-0.6,0.767-1.433,1.6-2.5,2.5l0.35-2.101L7.2,21.1c0.7-0.767,1.217-1.3,1.55-1.6
			c0.467-0.434,1.167-0.983,2.1-1.65c0.333-0.233,1-0.9,2-2c0.667-0.733,1.667-1.367,3-1.9C18.816,12.583,21.217,11.517,23.05,10.75
			z"/>
		<path style="fill-rule:evenodd;clip-rule:evenodd;fill:#54504A;" d="M110.55,26.4l1.149,1.15l-0.25,1.101l-3.149-3
			c-1.667-1.8-3.433-3.317-5.3-4.55c-0.533-0.367-1.35-1.083-2.45-2.15c-1.134-1.1-2.116-1.934-2.95-2.5
			c-0.8-0.534-2.1-1.083-3.9-1.65c-2.133-0.667-3.933-1.383-5.399-2.15c-2.066-1.033-4.5-1.933-7.3-2.7
			c-2.267-0.567-5.217-1.167-8.85-1.8c-4.033-0.733-6.65-1.167-7.851-1.3c-2.399-0.267-5.149-0.333-8.25-0.2
			c-2.667,0.1-6.3,0.433-10.9,1c-4.6,0.534-7.183,0.817-7.75,0.85c-0.9,0.033-2.2,0.35-3.9,0.95c-0.967,0.333-2.483,0.85-4.55,1.55
			v-0.65c-0.1-0.9-0.167-1.4-0.2-1.5l0.2-0.1c2.133-0.633,3.383-1,3.75-1.1c0.333-0.1,1.684-0.233,4.05-0.4
			c1.867-0.1,4.5-0.483,7.9-1.15c3.233-0.633,5.983-1,8.25-1.1c4.133-0.167,6.75-0.233,7.85-0.2c2.367,0.033,5,0.267,7.9,0.7
			C76.017,6.667,81.3,7.967,84.5,9.4c1.333,0.6,2.6,1.133,3.8,1.6c1.567,0.6,2.95,1.15,4.149,1.65c1.168,0.5,2.284,0.85,3.351,1.05
			c0.533,0.1,1.3,0.55,2.3,1.35c0.667,0.533,1.733,1.467,3.2,2.8c1.134,1.066,2.25,1.95,3.351,2.65
			c1.199,0.767,2.416,1.833,3.649,3.2C109.434,25.133,110.184,26.033,110.55,26.4z"/>
		<path style="fill-rule:evenodd;clip-rule:evenodd;fill:#54504A;" d="M33.25,18.95l0.2,0.25c-9,3.1-14.566,5.167-16.7,6.2
			c-2.967,1.433-5.9,3.817-8.8,7.15C7.383,33.217,6.9,33.733,6.5,34.1c-0.2,0.2-0.434,0.483-0.7,0.851
			c-0.5,0.767-2.183,2.483-5.05,5.149c0.333-1.5,1.167-2.883,2.5-4.149c0.667-0.601,1.4-1.417,2.2-2.45c0.733-0.967,1.4-1.7,2-2.2
			c1.333-1.366,2.483-2.517,3.45-3.45c1.867-1.767,3.817-3.083,5.85-3.95c3.5-1.6,6.133-2.767,7.9-3.5c3.1-1.267,5.5-1.95,7.2-2.05
			l1.3-0.15C33.117,18.434,33.15,18.684,33.25,18.95z"/>
		<path style="fill-rule:evenodd;clip-rule:evenodd;fill:#54504A;" d="M43.75,19.15v1.9c-3.267,0.667-5.883,1.233-7.85,1.7
			c-1.767,0.4-5.883,1.867-12.35,4.4L10.2,35.85l-2,1.95c-1.4,1.4-2.25,2.384-2.55,2.95c-0.3,0.6-0.667,1.167-1.1,1.7
			c-0.233,0.333-0.667,0.899-1.3,1.7c-0.667,0.933-1.583,1.767-2.75,2.5L0,44.9c0.467-0.2,0.833-0.434,1.1-0.7
			c0.433-0.367,0.983-1.017,1.65-1.95c1.033-1.333,1.717-2.3,2.05-2.9c0.4-0.666,0.934-1.283,1.6-1.85
			c0.933-0.9,1.967-1.867,3.1-2.9c2.3-2.066,4.633-3.916,7-5.55c3.733-2.6,9.1-4.95,16.1-7.05c0.466-0.133,0.633-0.2,0.5-0.2
			l6.2-1.55C40.967,19.783,42.45,19.417,43.75,19.15z"/>
		<path style="fill-rule:evenodd;clip-rule:evenodd;fill:#54504A;" d="M52.85,10.15c0,0.2-0.017,0.583-0.05,1.15
			c-0.767,0.067-2.017,0.233-3.75,0.5c-1.566,0.267-2.933,0.434-4.1,0.5c-3.1,0.167-6.117,0.533-9.05,1.1
			c-3.6,0.667-6.117,1.517-7.55,2.55c-1.133,0.8-4.017,2.133-8.65,4c0.1-0.733,0.067-1.35-0.1-1.85l-0.1-0.35
			c0.967-0.4,1.983-0.7,3.05-0.9c1.7-0.367,3.2-0.917,4.5-1.65c2.434-1.4,3.667-2.117,3.7-2.15c1.3-0.633,3.517-1.15,6.65-1.55
			c0.233-0.033,2.333-0.233,6.3-0.6l9.2-0.85L52.85,10.15z"/>
		<path style="fill-rule:evenodd;clip-rule:evenodd;fill:#54504A;" d="M64.6,18.05c0.5,0.3,0.834,0.717,1,1.25
			c0.167,0.533,0.15,1.1-0.05,1.7c-0.366,1-1.417,1.333-3.149,1c-1.567-0.367-2.101-1.217-1.601-2.55
			c0.333-0.934,1.217-1.4,2.649-1.4H64.6z M63.199,18.7c-0.966,0-1.449,0.5-1.449,1.5s0.483,1.5,1.449,1.5
			c0.967,0,1.451-0.5,1.451-1.5S64.166,18.7,63.199,18.7z"/>
		<path style="fill-rule:evenodd;clip-rule:evenodd;fill:#54504A;" d="M70.199,19.6c-0.232,0.233-0.399,0.633-0.5,1.2L69.65,21
			l-0.9-0.15c-2.133-0.367-4.9-0.583-8.301-0.65c-1.866,0-4.133,0.017-6.799,0.05c-1.233,0-5.1,0.333-11.6,1l-0.2-1.6
			c0-0.133,1.233-0.317,3.7-0.55c2.467-0.267,3.684-0.5,3.65-0.7c1.267,0.167,2.583,0.233,3.95,0.2
			C60.117,18.434,65.8,18.767,70.199,19.6z"/>
		<path style="fill-rule:evenodd;clip-rule:evenodd;fill:#54504A;" d="M68.85,26.75c-0.366,0.133-0.934,0.1-1.699-0.1L67,26.75
			l-0.2-0.2l-1.2-0.3c-1.3-0.2-2.6-0.35-3.9-0.45c-0.633-0.033-2.533-0.05-5.699-0.05c-3.9,0-6.983,0.1-9.25,0.3
			c-3.4,0.267-6.434,0.817-9.1,1.65c-1.233,0.366-3.5,1.316-6.8,2.85l-1.9,0.9c-0.333,0.167-0.667,0.383-1,0.649
			c-0.566,0.467-0.867,0.7-0.9,0.7c-0.167,0.134-0.8,0.55-1.9,1.25c-0.767,0.5-1.367,0.967-1.8,1.4c-0.567,0.633-1,1.033-1.3,1.2
			l-1.5,0.449c-3.233,1.467-5.75,2.817-7.55,4.051l-0.8,0.6c-0.233,0.167-0.633,0.35-1.2,0.55c-0.533,0.167-0.917,0.351-1.15,0.55
			C9.083,43.517,8.483,44.2,8.05,44.9c-0.3,0.467-1.083,1.482-2.35,3.05c-0.367,0.433-0.75,1.1-1.15,2
			c-0.433,0.733-1.066,1.683-1.9,2.85c-0.567,0.733-1.067,1.083-1.5,1.05C1.15,53.517,1.1,53.3,1,53.2V52.6
			c0.1-0.267,0.3-0.633,0.6-1.1c0.333-0.533,0.55-0.9,0.65-1.1c0.233-0.5,0.683-1.134,1.35-1.9c0.466-0.867,0.867-1.483,1.2-1.85
			c0.467-0.533,0.8-0.95,1-1.25c0.867-1.5,1.583-2.533,2.15-3.101c0.034-0.1,0.117-0.149,0.25-0.149l0.35-0.5
			c0.567-0.7,1.55-1.551,2.95-2.551l3.6-2.199c1.5-0.268,2.966-0.967,4.4-2.101c2.133-1.5,3.7-2.667,4.7-3.5
			c1.333-1.1,3.667-2.267,7-3.5c2.967-1.1,5.583-1.866,7.85-2.3c0.733-0.133,1.767-0.267,3.1-0.4c1.433-0.133,2.45-0.25,3.05-0.35
			c2.2-0.267,3.85-0.5,4.95-0.7c1.667-0.066,2.9-0.167,3.7-0.3c1.667-0.267,3.25-0.4,4.75-0.4c1.867,0,3.134,0.017,3.801,0.05
			c1.467,0.067,2.732,0.233,3.799,0.5l1.101,0.3c0.601,0,1.05,0.033,1.351,0.1c0.366,0.067,0.85,0.2,1.449,0.4
			c0.667,0.233,1.134,0.383,1.4,0.45L78,27c-0.267,0.267-0.417,0.633-0.45,1.1c-0.033,0.4-0.033,0.768,0,1.101
			C73.55,28.167,70.65,27.35,68.85,26.75z"/>
		<path style="fill-rule:evenodd;clip-rule:evenodd;fill:#54504A;" d="M83.55,29.9l0.05-1.15c1.867,0.434,3.25,0.767,4.15,1
			c1.633,0.434,2.934,0.95,3.9,1.55c0.266,0.167,1.149,0.833,2.649,2c1.033,0.7,1.783,1.267,2.25,1.7l1.101,1.15
			c1,1.1,1.616,1.816,1.85,2.149c0.533,0.733,1.3,1.601,2.3,2.601c1.333,1.267,2.149,2.083,2.45,2.449l1.15,1.301
			c0.533,0.333,0.916,0.583,1.149,0.75c0.233,0.199,0.866,0.85,1.899,1.949c0.867,0.867,1.4,1.483,1.601,1.851
			c-0.033,0.167-0.017,0.283,0.05,0.35c0.066,0.167,0.217,0.367,0.45,0.601c0.2,0.267,0.333,0.683,0.399,1.25
			c0,0.199,0.051,0.5,0.15,0.899c0.033,0.4-0.033,0.7-0.199,0.9c-0.101,0.133-0.268,0.233-0.5,0.3
			c-0.101,0.066-0.283,0.133-0.551,0.2c0-0.634-0.05-1.083-0.15-1.351l-0.6-1.399c-0.232-0.667-0.666-1.333-1.3-2
			c-0.366-0.5-0.583-0.833-0.649-1c-0.067-0.167-0.15-0.434-0.25-0.8c-0.367-0.5-1.117-1.117-2.25-1.851
			c-1.5-1.399-2.384-2.25-2.65-2.55c-0.667-0.733-1.767-1.733-3.301-3c-0.332-0.233-0.783-0.65-1.35-1.25s-1.017-1.017-1.35-1.25
			c-1.5-1.133-2.566-1.85-3.2-2.15L90.4,33.95c-1.101-0.8-2.184-1.417-3.25-1.851l-4-1.399C83.383,30.467,83.517,30.2,83.55,29.9z"
			/>
		<path style="fill-rule:evenodd;clip-rule:evenodd;fill:#54504A;" d="M43.4,15.55c0.033,0.267,0.183,0.533,0.45,0.8
			c-1.6,0.3-3.133,0.65-4.6,1.05l-0.05-0.55c-0.066-0.267-0.233-0.534-0.5-0.8c1.434-0.533,3.017-0.95,4.75-1.25h0.05
			C43.433,14.934,43.4,15.184,43.4,15.55z"/>
		<path style="fill-rule:evenodd;clip-rule:evenodd;fill:#54504A;" d="M66.9,15.8c-0.033,0.1-0.018,0.367,0.049,0.8
			c-0.332,0.267-1.616,0.05-3.85-0.65c-0.699-0.134-1.416-0.217-2.15-0.25C57.617,15.533,54,15.483,50.1,15.55l-2.5,0.2
			c0.2-0.467,0.2-0.967,0-1.5c0.867-0.066,1.783-0.05,2.75,0.05c1.267,0.1,2.4,0.15,3.4,0.15c2,0,4.25,0.133,6.75,0.4
			C62.967,15.117,65.1,15.434,66.9,15.8z"/>
		<path style="fill-rule:evenodd;clip-rule:evenodd;fill:#54504A;" d="M81.6,18.5c2.233,0.566,3.917,1.05,5.051,1.45
			c0.967,0.366,2.816,1.333,5.549,2.9c-0.1,0.133-0.183,0.367-0.25,0.7C89.117,22.316,85.8,21.033,82,19.7l-4.5-1.1
			c-3.4-0.733-6.15-1.15-8.25-1.25c-1.301-0.067-2.5-0.25-3.6-0.55v-0.05c0.299-0.233,0.482-0.583,0.549-1.05
			c1.434,0.333,3.384,0.6,5.851,0.8c2.2,0.2,3.75,0.434,4.649,0.7C77.434,17.434,79.066,17.867,81.6,18.5z"/>
		<path style="fill-rule:evenodd;clip-rule:evenodd;fill:#54504A;" d="M110.8,38.5l-0.351,0.85l-0.75-1
			c-0.5-0.666-2.666-2.916-6.5-6.75c0.234-0.199,0.434-0.482,0.601-0.85c0.667,0.867,1.167,1.467,1.5,1.8L110.8,38.5z"/>
		<path style="fill-rule:evenodd;clip-rule:evenodd;fill:#54504A;" d="M104.6,28.1c0.334,0,0.684-0.066,1.051-0.199l2,2.149
			c0.699,0.733,1.6,1.851,2.699,3.351l1.45,2.05l-0.5,0.25l-0.75-1.101c-0.366-0.566-1.133-1.5-2.3-2.8
			c-1.167-1.233-2.2-2.283-3.1-3.149L104.6,28.1z"/>
		<path style="fill-rule:evenodd;clip-rule:evenodd;fill:#54504A;" d="M7.75,25.25L7.7,25.3c-0.167,0.3-0.367,0.567-0.6,0.8L7,26.15
			v0.35l0.6,0.2l0.1,0.05l0.5,0.05l0.2-0.05c0.467-0.3,0.633-0.633,0.5-1c-0.067-0.1-0.2-0.2-0.4-0.3
			C8.233,25.316,7.983,25.25,7.75,25.25z M5.7,27.3c-0.267-0.433-0.3-0.967-0.1-1.6c0.033-0.2,0.167-0.417,0.4-0.65
			s0.383-0.417,0.45-0.55l0.4-0.6c0.533-0.267,1.183-0.267,1.95,0c0.733,0.267,1.217,0.667,1.45,1.2
			c0.267,0.566,0.283,1.117,0.05,1.65c-0.2,0.533-0.566,0.967-1.1,1.3c-0.466,0.3-1.1,0.351-1.9,0.15
			C6.367,27.934,5.833,27.633,5.7,27.3z"/>
		<path style="fill-rule:evenodd;clip-rule:evenodd;fill:#54504A;" d="M18.15,18.55h-1.1L16.5,18.8c-0.3,0.267-0.467,0.467-0.5,0.6
			v0.2l-0.05,0.5l1.95,0.1l0.15-0.05C18.283,19.816,18.316,19.283,18.15,18.55z M16.7,17.05c1.1,0,1.684,0,1.75,0
			c0.633,0.134,1.017,0.483,1.15,1.05c0.167,0.633,0.183,1.283,0.05,1.95c-0.133,0.833-0.467,1.35-1,1.55
			c-0.233,0.066-0.6,0.1-1.1,0.1c-0.267-0.034-0.633-0.067-1.1-0.1c-1.066,0-1.7-0.184-1.9-0.55c-0.133-0.267-0.15-0.866-0.05-1.8
			c0.066-0.6,0.467-1.184,1.2-1.75L16.7,17.05z"/>
		<path style="fill-rule:evenodd;clip-rule:evenodd;fill:#54504A;" d="M28.65,8.65c0.1,0.2,0.2,0.767,0.3,1.7
			c0.1,1.633-0.617,2.533-2.15,2.7c-0.933,0.1-1.783-0.05-2.55-0.45c-0.867-0.467-1.267-1.15-1.2-2.05
			c0.067-0.667,0.267-1.333,0.6-2c0.433-0.833,0.933-1.3,1.5-1.4L26,7.45c0.667,0.133,1.167,0.25,1.5,0.35
			C28.066,7.967,28.45,8.25,28.65,8.65z M26.65,11.55c0.567-0.066,0.833-0.433,0.8-1.1V10.2l-0.1-0.85
			c-0.067-0.067-0.367-0.15-0.9-0.25l-0.9-0.2l-0.3-0.1c-0.4,0.467-0.633,1.1-0.7,1.9c0,0.133,0.05,0.25,0.15,0.35
			c0.267,0.333,0.817,0.5,1.65,0.5H26.65z"/>
		<path style="fill-rule:evenodd;clip-rule:evenodd;fill:#54504A;" d="M39.2,16.85c0.2,0.767,0.117,1.45-0.25,2.05
			c-0.4,0.633-0.966,1.017-1.7,1.15c-0.767,0.167-1.55,0.134-2.35-0.1c-0.967-0.367-1.517-0.7-1.65-1
			c-0.267-0.534-0.167-1.184,0.3-1.95c0.434-0.7,0.934-1.133,1.5-1.3l0.75-0.45C37.767,15.25,38.9,15.783,39.2,16.85z M37.6,18.2
			c0.167-0.267,0.2-0.583,0.1-0.95c-0.066-0.3-0.566-0.467-1.5-0.5L35.85,17l-0.4,0.15c-0.133,0.034-0.3,0.183-0.5,0.45
			c-0.167,0.233-0.283,0.433-0.35,0.6l0.75,0.3L37,18.6C37.3,18.533,37.5,18.4,37.6,18.2z"/>
		<path style="fill-rule:evenodd;clip-rule:evenodd;fill:#54504A;" d="M43.2,14.05c0.233-0.467,0.583-0.783,1.05-0.95
			c0.267-0.1,0.7-0.15,1.3-0.15l1.3-0.4c1.2-0.267,1.7,0.934,1.5,3.6c-0.067,0.733-0.267,1.267-0.6,1.6
			c-0.233,0.233-0.55,0.367-0.95,0.4c-0.233,0-0.6-0.017-1.1-0.05c-1,0-1.65-0.05-1.95-0.15c-0.367-0.134-0.6-0.3-0.7-0.5
			c-0.1-0.167-0.15-0.483-0.15-0.95C42.9,15.233,43,14.417,43.2,14.05z M45.7,14.45h-0.2c-0.567,0-0.883,0.1-0.95,0.3
			c-0.1,0.2-0.15,0.65-0.15,1.35v0.45l2.3,0.1L46.85,16c0.033-0.733,0.017-1.35-0.05-1.85l-0.85,0.25L45.7,14.45z"/>
		<path style="fill-rule:evenodd;clip-rule:evenodd;fill:#54504A;" d="M54.6,12.25c-0.967,0-1.55-0.2-1.75-0.6
			c-0.1-0.233-0.1-0.733,0-1.5c0.2-1.333,1.083-2,2.65-2h1.3c0.767-0.067,1.317,0.25,1.649,0.95c0.301,0.7,0.234,1.367-0.199,2
			c-0.367,0.5-0.917,0.833-1.65,1C56.166,12.2,55.5,12.25,54.6,12.25z M55.5,9.65c-0.7,0-1.083,0.233-1.15,0.7l-0.05,0.4h0.65
			c1.133,0,1.817-0.184,2.05-0.55c0.1-0.134,0.117-0.3,0.05-0.5l-0.101-0.05H55.5z"/>
		<path style="fill-rule:evenodd;clip-rule:evenodd;fill:#54504A;" d="M65.699,19.1c0.168,0.566,0.15,1.133-0.049,1.7
			c-0.4,1.067-1.451,1.4-3.15,1c-1.566-0.333-2.1-1.183-1.6-2.55c0.333-0.934,1.217-1.4,2.649-1.4h1.149
			C65.199,18.15,65.533,18.566,65.699,19.1z M63.55,19.35c-0.7,0-1.116,0.133-1.25,0.4l-0.05,0.35c0.133,0.1,0.333,0.167,0.6,0.2
			c0.301,0.1,0.566,0.15,0.801,0.15c0.266,0,0.449-0.05,0.549-0.15c0.134-0.4,0.117-0.717-0.049-0.95H63.55z"/>
		<path style="fill-rule:evenodd;clip-rule:evenodd;fill:#54504A;" d="M73.6,21.2v-0.45l-0.25-0.2V20.5l-0.8,0.1H72.15
			c-0.5,0-0.783,0.017-0.851,0.05l-0.149,0.4c-0.033,0.3-0.018,0.483,0.049,0.55c0.067,0.133,0.317,0.267,0.75,0.4
			c0.701,0.2,1.184,0.3,1.451,0.3h0.1l0.05-0.05C73.65,22.05,73.666,21.7,73.6,21.2z M73.949,18.9c0.4,0.433,0.668,0.733,0.801,0.9
			c0.233,0.3,0.367,0.7,0.4,1.2c0,0.767-0.051,1.35-0.15,1.75c-0.267,0.667-0.767,1.017-1.5,1.05c-0.434,0-1.1-0.133-2-0.4
			c-1.434-0.433-2.033-1.3-1.801-2.6c0.134-0.8,0.484-1.3,1.051-1.5c0.3-0.133,0.883-0.2,1.75-0.2L73.949,18.9z"/>
		<path style="fill-rule:evenodd;clip-rule:evenodd;fill:#54504A;" d="M78.6,26.55c0.334-0.133,0.967-0.2,1.9-0.2l1.05-0.3
			c0.533-0.066,1.017,0.15,1.45,0.65c0.367,0.433,0.566,0.917,0.6,1.45l-0.05,1.75c-0.101,0.767-0.634,1.183-1.601,1.25
			c-0.5,0.033-1.332-0.051-2.5-0.25c-1.466-0.301-2.1-1.233-1.899-2.801C77.65,27.333,78,26.816,78.6,26.55z M81.75,27.55
			l-1.051,0.3H80.5c-0.801,0-1.25,0.033-1.35,0.101L79.05,28.3c-0.033,0.434,0,0.717,0.101,0.851c0.1,0.1,0.299,0.183,0.6,0.25
			l0.15,0.05c0.732,0.133,1.316,0.2,1.75,0.2h0.399l0.05-1.45C82.066,27.967,81.949,27.75,81.75,27.55z"/>
		<path style="fill-rule:evenodd;clip-rule:evenodd;fill:#54504A;" d="M91.449,23.6l-0.75-1.2c0.201,0.034,0.451,0.15,0.75,0.35
			c0.367,0.3,0.617,0.467,0.75,0.5c0.934,0.4,1.784,0.833,2.551,1.3c0.6,0.333,1.1,0.617,1.5,0.85c0.767,0.433,1.117,0.8,1.05,1.1
			c-0.233-0.033-0.517-0.184-0.851-0.45c-0.533-0.167-1.066-0.4-1.6-0.7c-0.199-0.1-0.482-0.184-0.85-0.25
			c-0.2-0.067-0.483-0.217-0.85-0.45l-1.301-0.8C91.617,23.684,91.483,23.6,91.449,23.6z"/>
		<path style="fill-rule:evenodd;clip-rule:evenodd;fill:#44403B;" d="M93.199,24.45c-0.266-0.167-0.6-0.434-1-0.8
			c-0.399-0.433-0.716-0.716-0.949-0.85l-1.9-1.15c1.233,0.3,2.584,0.817,4.051,1.55c0.766,0.4,1.649,0.983,2.649,1.75
			c0.333,0.2,0.601,0.366,0.8,0.5c0.4,0.267,0.584,0.466,0.551,0.6c-0.134,0.033-0.334,0-0.601-0.1
			c-0.134-0.067-0.316-0.15-0.55-0.25l-0.85-0.4c-0.201-0.1-0.567-0.233-1.101-0.4C93.833,24.733,93.467,24.583,93.199,24.45z"/>
		<path style="fill-rule:evenodd;clip-rule:evenodd;fill:#44403B;" d="M108.3,23.7c1.134,1.433,1.884,2.333,2.25,2.7l1.149,1.15
			l-0.1,0.4c-1.6-1.434-3.916-3.6-6.949-6.5c-2.701-2.367-5.283-4.167-7.75-5.4L96.05,15.6c-8.2-3.733-15.667-6.434-22.399-8.1
			c-3.567-0.867-7.4-1.367-11.5-1.5C58.783,5.9,54.9,6.05,50.5,6.45c-2.267,0.233-5.767,0.5-10.5,0.8
			c-4.1,0.434-7.5,1.217-10.2,2.35c-0.733-0.167-1.283,0.05-1.65,0.65c-0.282,0.452-0.591,0.802-0.925,1.05
			c0.168-0.191,0.244-0.474,0.225-0.85V10.2l-0.1-0.85c-0.067-0.067-0.367-0.15-0.9-0.25l-0.9-0.2l-0.3-0.1
			c-0.4,0.467-0.633,1.1-0.7,1.9c0,0.133,0.05,0.25,0.15,0.35c0.267,0.333,0.817,0.5,1.65,0.5h0.3c0.075-0.009,0.141-0.025,0.2-0.05
			c-0.354,0.176-0.737,0.243-1.15,0.2c-1.633-0.233-2.617-0.317-2.95-0.25c-0.934,0.233-2.033,0.716-3.3,1.45
			c-0.733,0.4-1.783,1.017-3.15,1.85C11,17.85,6.983,21.434,4.25,25.5c-0.1,0.1-0.15,0.217-0.15,0.35l-0.85,1l-1,0.5
			C1.55,27.583,1.2,28.1,1.2,28.9l-0.3,0.25l0.35-2.101L7.2,21.1c0.7-0.767,1.217-1.3,1.55-1.6c0.467-0.434,1.167-0.983,2.1-1.65
			c0.333-0.233,1-0.9,2-2c0.667-0.733,1.667-1.367,3-1.9c2.966-1.367,5.367-2.434,7.2-3.2v-0.2c0.067-0.667,0.267-1.333,0.6-2
			c0.433-0.833,0.933-1.3,1.5-1.4L26,7.45c0.667,0.133,1.167,0.25,1.5,0.35c0.566,0.167,0.95,0.45,1.15,0.85l0.1,0.2l0.2-0.1
			c2.133-0.633,3.383-1,3.75-1.1c0.333-0.1,1.684-0.233,4.05-0.4c1.867-0.1,4.5-0.483,7.9-1.15c3.233-0.633,5.983-1,8.25-1.1
			c4.133-0.167,6.75-0.233,7.85-0.2c2.367,0.033,5,0.267,7.9,0.7C76.017,6.667,81.3,7.967,84.5,9.4c1.333,0.6,2.6,1.133,3.8,1.6
			c1.567,0.6,2.95,1.15,4.149,1.65c1.168,0.5,2.284,0.85,3.351,1.05c0.533,0.1,1.3,0.55,2.3,1.35c0.667,0.533,1.733,1.467,3.2,2.8
			c1.134,1.066,2.25,1.95,3.351,2.65C105.85,21.267,107.066,22.333,108.3,23.7z"/>
		<path style="fill-rule:evenodd;clip-rule:evenodd;fill:#44403B;" d="M54.85,14.75c-2.633-0.066-4.867-0.05-6.7,0.05
			c0.067-0.2,0.067-0.4,0-0.6c0.633-0.034,1.433,0,2.4,0.1c1.1,0.1,2.167,0.15,3.2,0.15c2.066-0.034,3.517-0.034,4.35,0
			c1.367,0,2.634,0.1,3.801,0.3l-0.101,0.2h-0.2C60.1,14.917,57.85,14.85,54.85,14.75z"/>
		<path style="fill-rule:evenodd;clip-rule:evenodd;fill:#44403B;" d="M37.6,18.2c0.167-0.267,0.2-0.583,0.1-0.95
			c-0.066-0.3-0.566-0.467-1.5-0.5L35.85,17l-0.4,0.15c-0.133,0.034-0.3,0.183-0.5,0.45c-0.167,0.233-0.283,0.433-0.35,0.6l0.75,0.3
			L37,18.6C37.3,18.533,37.5,18.4,37.6,18.2z M44.25,14.7c-0.033,0.167-0.033,0.316,0,0.45c-1.1,0.133-2.217,0.333-3.35,0.6
			c-0.833,0.2-1.183,0.7-1.05,1.5l-0.6,0.15l0.05,0.2c-0.066,0.066-0.167,0.183-0.3,0.35c-0.133,0.233-0.333,0.45-0.6,0.65L38,18.85
			L37.35,19L37,18.95c-1.067,0-2.067-0.184-3-0.55c-0.3-0.133-0.633-0.117-1,0.05c-0.3,0.133-0.533,0.366-0.7,0.7l-0.45,0.15
			c-0.934,0.434-2.267,0.867-4,1.3c-2.034,0.5-3.4,0.867-4.1,1.1c-3.434,1.3-5.767,2.3-7,3c-5.167,3-8.7,6.25-10.6,9.75l-1.3,0.95
			c-0.434,0.366-1.667,1.55-3.7,3.55c0.533-1.134,1.233-2.134,2.1-3c0.667-0.601,1.4-1.417,2.2-2.45c0.733-0.967,1.4-1.7,2-2.2
			c1.333-1.366,2.483-2.517,3.45-3.45c1.867-1.767,3.817-3.083,5.85-3.95c3.5-1.6,6.133-2.767,7.9-3.5c3.1-1.267,5.5-1.95,7.2-2.05
			l1.3-0.15c0.033-0.534,0.25-1.05,0.65-1.55c0.367-0.5,0.783-0.817,1.25-0.95l0.75-0.45c1.434,0,2.4,0.267,2.9,0.8
			c1.434-0.533,3.017-0.95,4.75-1.25L44.25,14.7z"/>
		<path style="fill-rule:evenodd;clip-rule:evenodd;fill:#44403B;" d="M62.15,20.5L61.8,20.45c-0.167-0.7-0.566-1.117-1.2-1.25
			L60.65,19L61,19.05c0.367-0.8,1.217-1.2,2.55-1.2h1.149c0.834,0.466,1.201,1.216,1.101,2.25l0.8,0.15c-0.199,0-0.4,0.05-0.6,0.15
			C64.934,20.967,63.65,21,62.15,20.5z M63.55,19.35c-0.7,0-1.116,0.133-1.25,0.4l-0.05,0.35c0.133,0.1,0.333,0.167,0.6,0.2
			c0.301,0.1,0.566,0.15,0.801,0.15c0.266,0,0.449-0.05,0.549-0.15c0.134-0.4,0.117-0.717-0.049-0.95H63.55z"/>
		<path style="fill-rule:evenodd;clip-rule:evenodd;fill:#44403B;" d="M81.6,18.5c2.233,0.566,3.917,1.05,5.051,1.45
			c1.033,0.4,2.816,1.333,5.35,2.8c0.5,0.733,0.733,1.316,0.699,1.75c-0.033-0.3-0.133-0.583-0.299-0.85
			c-0.101-0.267-0.301-0.5-0.601-0.7c-1.399-0.9-3.101-1.65-5.101-2.25c-0.633-0.2-2.449-0.667-5.449-1.4
			c-3.167-0.8-5.117-1.283-5.85-1.45c-2.201-0.467-4.184-0.717-5.951-0.75c-0.199-0.467-0.516-0.8-0.949-1
			c0.4,0.066,1.9,0.233,4.5,0.5c1.6,0.133,2.833,0.333,3.699,0.6C77.434,17.434,79.066,17.867,81.6,18.5z"/>
		<path style="fill-rule:evenodd;clip-rule:evenodd;fill:#44403B;" d="M39.3,20.25c0.233-0.066,1.684-0.434,4.35-1.1
			c6.4-0.6,8.633-0.55,6.7,0.15c-3.667,0.233-6.817,0.85-9.45,1.85h-0.05c-3.2,0.233-5.784,0.683-7.75,1.35h-0.25
			c-0.5,0-0.883,0.184-1.15,0.55l-0.95,0.5l-1.7,0.4c-3.566,0.866-7.2,2.733-10.9,5.6c-5.467,4.3-8.75,6.95-9.85,7.95
			c-0.267,0.233-1.467,1.717-3.6,4.45c-1.433,1.833-2.917,2.917-4.45,3.25L0.1,45.25L0,44.9c0.467-0.2,0.833-0.434,1.1-0.7
			c0.433-0.367,0.983-1.017,1.65-1.95c1.033-1.333,1.717-2.3,2.05-2.9c0.4-0.666,0.934-1.283,1.6-1.85
			c0.933-0.9,1.967-1.867,3.1-2.9c2.3-2.066,4.633-3.916,7-5.55c3.733-2.6,9.1-4.95,16.1-7.05c0.466-0.133,0.633-0.2,0.5-0.2
			L39.3,20.25z"/>
		<path style="fill-rule:evenodd;clip-rule:evenodd;fill:#44403B;" d="M44.3,16.55l1.4,0.05c0.1,0.066,0.2,0.066,0.3,0l0.15,0.05
			h0.4c-0.867,0.267-1.75,0.2-2.65-0.2c0.033-0.333,0.167-0.667,0.4-1V16.55z"/>
		<path style="fill-rule:evenodd;clip-rule:evenodd;fill:#44403B;" d="M48.55,14.4L48.6,15c-0.167,0.066-0.35,0.2-0.55,0.4
			l-0.15-0.7c-0.233-0.6-0.6-1-1.1-1.2c-0.5-0.233-1.033-0.217-1.6,0.05c-0.533,0.267-0.983,0.667-1.35,1.2
			c-0.1-0.133-0.233-0.2-0.4-0.2c-0.133,0-0.216,0.1-0.25,0.3c-0.066,0.4-0.1,1-0.1,1.8l0.1,0.25L43,16.95l-0.3-1.75l0.15-0.05
			c0-0.333,0.083-0.7,0.25-1.1c0.233-0.467,0.583-0.783,1.05-0.95c0.3-0.1,0.733-0.15,1.3-0.15l1.3-0.4
			c0.933-0.167,1.433,0.45,1.5,1.85H48.55z"/>
		<path style="fill-rule:evenodd;clip-rule:evenodd;fill:#44403B;" d="M78,27c0.333-0.434,1.166-0.65,2.5-0.65l1.05-0.3
			c0.533-0.066,1.017,0.15,1.45,0.65c0.367,0.433,0.566,0.917,0.6,1.45v0.6c1.867,0.434,3.25,0.767,4.15,1
			c1.633,0.434,2.934,0.95,3.9,1.55c0.266,0.167,1.149,0.833,2.649,2c1.033,0.7,1.783,1.267,2.25,1.7l1.101,1.15
			c1,1.1,1.616,1.816,1.85,2.149c0.533,0.733,1.3,1.601,2.3,2.601c1.333,1.267,2.149,2.083,2.45,2.449l1.15,1.301
			c0.533,0.333,0.916,0.583,1.149,0.75c0.233,0.199,0.866,0.85,1.899,1.949c0.867,0.867,1.4,1.483,1.601,1.851
			c-0.033,0.167-0.017,0.283,0.05,0.35c0.066,0.167,0.217,0.367,0.45,0.601c0.2,0.267,0.333,0.683,0.399,1.25l0.15,1.1
			c-0.434-0.467-1.783-2.1-4.05-4.9L106.9,47.15l-0.851-0.801l-1.101-1.399c-0.366-0.4-0.75-0.55-1.149-0.45l-1.8-1.75
			c-0.6-0.667-1.167-1.217-1.7-1.65c-1.933-2.366-3.283-3.899-4.05-4.6c-2.967-2.667-6.917-4.833-11.85-6.5
			c-0.334-0.1-0.584-0.133-0.75-0.1H83.55C83.383,29.8,83.199,29.767,83,29.8c-0.967,0.134-1.717,0.167-2.25,0.101
			c-0.834-0.101-1.5-0.4-2-0.9l-0.2-0.2c-0.101-0.2-0.25-0.35-0.45-0.45l-1.3-0.399c-0.3-0.5-0.717-0.767-1.25-0.8
			c-1.467-0.101-4.884-0.584-10.25-1.45c-4.2-0.7-7.634-1-10.3-0.9c-3,0.1-5.567,0.367-7.7,0.8l-4.7,0.8
			c-1.167,0.133-2.467,0.367-3.9,0.7l-2.1,0.5l-0.55,0.25c-0.867,0.301-2.2,0.851-4,1.65c-1.733,0.733-3.066,1.267-4,1.6
			c-1.433,0.5-2.733,1.233-3.9,2.2c-0.733,0.601-1.85,1.65-3.35,3.15c-3.1,0.933-6.017,2.233-8.75,3.899
			c-3.033,1.867-5.583,4.967-7.65,9.301L4.1,50.05c-0.167,0.333-0.25,0.601-0.25,0.8v0.101C3.217,51.417,2.467,51.767,1.6,52
			l-0.45,0.25c0.533-0.833,0.9-1.45,1.1-1.85c0.233-0.5,0.683-1.134,1.35-1.9c0.466-0.867,0.867-1.483,1.2-1.85
			c0.467-0.533,0.8-0.95,1-1.25c0.867-1.5,1.583-2.533,2.15-3.101c0.034-0.1,0.117-0.149,0.25-0.149l0.35-0.5
			c0.567-0.7,1.55-1.551,2.95-2.551l3.6-2.199c1.5-0.268,2.966-0.967,4.4-2.101c2.133-1.5,3.7-2.667,4.7-3.5
			c1.333-1.1,3.667-2.267,7-3.5c2.967-1.1,5.583-1.866,7.85-2.3c0.733-0.133,1.767-0.267,3.1-0.4c1.433-0.133,2.45-0.25,3.05-0.35
			c2.2-0.267,3.85-0.5,4.95-0.7c1.667-0.066,2.9-0.167,3.7-0.3c1.667-0.267,3.25-0.4,4.75-0.4c1.867,0,3.134,0.017,3.801,0.05
			c1.467,0.067,2.732,0.233,3.799,0.5l1.101,0.3c0.601,0,1.05,0.033,1.351,0.1c0.366,0.067,0.85,0.2,1.449,0.4
			c0.667,0.233,1.134,0.383,1.4,0.45L78,27z M81.949,27.15c-0.266-0.267-0.582-0.434-0.949-0.5c-0.334-0.167-0.7-0.183-1.1-0.05
			c-0.4,0.133-0.684,0.35-0.851,0.65c-0.3,0.467-0.3,0.967,0,1.5c0,0.333,0.2,0.55,0.601,0.65c0.299,0.166,0.699,0.25,1.199,0.25
			h1.2L82.1,29c0.167-0.267,0.25-0.55,0.25-0.85C82.35,27.783,82.217,27.45,81.949,27.15z"/>
		<path style="fill-rule:evenodd;clip-rule:evenodd;fill:#44403B;" d="M67.25,15.9c0.666,0.233,1.233,0.317,1.699,0.25l2.951,0.6
			c-1.234-0.033-3.033-0.233-5.4-0.6l-2.65-0.35c-0.666-0.1-1.699-0.3-3.1-0.6c-1.087-0.206-2.028-0.289-2.825-0.25
			c0.834-0.067,1.459-0.1,1.875-0.1h1.851c1,0,1.649,0.033,1.949,0.1c0.233,0.066,0.884,0.216,1.95,0.45
			C65.684,15.434,66.25,15.6,67.25,15.9z"/>
		<g>
			<g>
				<path style="fill-rule:evenodd;clip-rule:evenodd;fill:#44403B;" d="M58.375,10.85c-0.138-0.015-0.279-0.031-0.425-0.05
					c-0.5-0.1-0.884,0.017-1.15,0.35c0.134-0.267,0.2-0.566,0.2-0.9V10.2c0.1-0.133,0.116-0.3,0.05-0.5l-0.1-0.05H56.8
					c-0.233-0.5-0.649-0.75-1.25-0.75c-0.6,0-1.033,0.25-1.3,0.75c-0.233,0.5-0.233,0.983,0,1.45c-1.133-0.2-1.967-0.317-2.5-0.35
					c-1.333-0.1-3.567,0.217-6.7,0.95l-0.4,0.2c-2.1,0-3.883,0.083-5.35,0.25c-0.267-0.066-0.483-0.083-0.65-0.05
					c-2.967,0.467-6.333,1.383-10.1,2.75c-0.4,0.167-1.767,0.867-4.1,2.1c-1.667,0.9-3.1,1.4-4.3,1.5
					c-0.433,0.033-0.8,0.233-1.1,0.6c-0.233,0.3-0.35,0.65-0.35,1.05c-0.267,0.467-0.45,0.883-0.55,1.25L17,21.25
					c-0.2-0.367-0.483-0.6-0.85-0.7c-0.4-0.133-0.783-0.083-1.15,0.15c-1.267,0.7-2.183,1.25-2.75,1.65
					c-0.933,0.7-1.667,1.467-2.2,2.3c-0.233,0.267-0.316,0.567-0.25,0.9c-0.466,1.434-1.417,2.101-2.85,2
					c-0.733-0.1-1.2,0.2-1.4,0.9c-0.2,0.233-0.9,1.149-2.1,2.75c-0.833,1.1-1.6,1.95-2.3,2.55V33.2c1-1.601,1.917-2.9,2.75-3.9
					c0.1-0.133,0.7-0.783,1.8-1.95V27.3c-0.267-0.433-0.3-0.966-0.1-1.6c0.033-0.2,0.167-0.417,0.4-0.65
					c0.233-0.233,0.383-0.417,0.45-0.55l0.4-0.6c0.633-0.3,1.4-0.233,2.3,0.2l2.05-1.75c0.733-0.567,1.816-1.283,3.25-2.15
					l0.05-0.95c0.067-0.6,0.467-1.183,1.2-1.75l1-0.45c0.733-0.033,1.267-0.033,1.6,0c0.6,0.067,1,0.3,1.2,0.7
					c0.967-0.4,1.983-0.7,3.05-0.9c1.7-0.367,3.2-0.917,4.5-1.65c2.434-1.4,3.667-2.117,3.7-2.15c1.3-0.633,3.517-1.15,6.65-1.55
					c0.233-0.033,2.333-0.233,6.3-0.6l9.2-0.85c0.167-1.267,1.033-1.9,2.6-1.9h1.3c0.566-0.033,1.033,0.15,1.4,0.55
					c0.333,0.4,0.467,0.883,0.399,1.45c0.601,0.033,2.217,0.2,4.851,0.5c7.2,0.833,12.283,1.717,15.25,2.65
					c2.166,0.7,3.684,1.217,4.55,1.55c1.2,0.433,2.75,1.1,4.65,2c2.733,1.2,4.767,2.117,6.1,2.75c2.267,1.1,4.184,2.183,5.75,3.25
					c0.9,0.633,1.884,1.4,2.95,2.3l0.149-0.2L103,24.8c-0.076,0.114-0.143,0.264-0.2,0.45c0.334,0.3,0.634,0.483,0.9,0.55
					c0.133,0.034,0.517,0.367,1.149,1c0.2,0.2,0.5,0.533,0.9,1c0.533,0.634,0.8,1.017,0.8,1.15L106.4,29.2h-0.051
					c-0.299-0.275-0.666-0.675-1.1-1.2c-0.634-0.767-1.217-1.317-1.75-1.65c-0.244-0.163-0.527-0.38-0.85-0.65
					c-0.163-0.135-0.339-0.285-0.525-0.45c-0.093-0.046-0.193-0.08-0.3-0.1c-0.163-0.126-0.288-0.276-0.375-0.45
					c0.077,0.058,0.16,0.116,0.25,0.175c-0.065-0.054-0.133-0.113-0.2-0.175c-0.279-0.248-0.529-0.464-0.75-0.65
					c0.076,0.103,0.176,0.211,0.3,0.325c0.04,0.118,0.123,0.292,0.25,0.525c0.05,0.091,0.092,0.174,0.125,0.25H101.4
					c-0.285-0.249-0.627-0.524-1.025-0.825l-0.4-0.3c-0.253-0.194-0.495-0.369-0.725-0.525l-0.4-0.2
					c-0.149-0.111-0.3-0.219-0.449-0.325c-2.082-1.48-4.565-2.872-7.45-4.175c-1.934-0.867-4.767-2-8.5-3.4
					c-3.3-1.233-7.334-2.217-12.101-2.95C70.121,12.384,66.129,11.851,58.375,10.85z M100.925,23.825
					c-0.104-0.12-0.194-0.211-0.274-0.275l-0.051,0.025c0.037,0.022,0.07,0.047,0.101,0.075
					C100.771,23.716,100.846,23.774,100.925,23.825z M105.15,27.6h0.05c-0.267-0.466-0.684-0.883-1.25-1.25
					C104.616,27.017,105.017,27.434,105.15,27.6z M103.075,25.75l0.375,0.3h0.1L103.075,25.75z M106.125,28.625
					c0.031,0.063,0.073,0.154,0.125,0.275h0.05L106.125,28.625z M7.6,26.7l0.1,0.05l0.5,0.05l0.2-0.05c0.467-0.3,0.633-0.633,0.5-1
					c-0.066-0.1-0.2-0.2-0.4-0.3c-0.267-0.133-0.517-0.2-0.75-0.2L7.7,25.3c-0.167,0.3-0.367,0.567-0.6,0.8L7,26.15v0.35L7.6,26.7z
					 M18.15,18.55h-1.1L16.5,18.8c-0.3,0.267-0.467,0.467-0.5,0.6v0.2l-0.05,0.5l1.95,0.1l0.15-0.05
					C18.283,19.817,18.317,19.283,18.15,18.55z"/>
				<path style="fill-rule:evenodd;clip-rule:evenodd;fill:#54504A;" d="M98.4,22.975c-1.451-0.864-3.519-1.938-6.2-3.225
					c-3.934-1.9-7.05-3.167-9.351-3.8c-0.767-0.2-2.1-0.534-4-1c-0.366-0.1-1.05-0.35-2.05-0.75c-0.934-0.367-3.333-0.767-7.2-1.2
					c-5.267-0.6-8.783-1.05-10.55-1.35l-1.2-0.15l0.4-0.4c0.048-0.077,0.09-0.161,0.125-0.25c7.754,1.001,11.746,1.534,11.975,1.6
					c4.767,0.733,8.801,1.716,12.101,2.95c3.733,1.4,6.566,2.533,8.5,3.4C93.835,20.103,96.318,21.495,98.4,22.975z M106.35,29.2
					h-0.25l-0.1,0.05c-0.1,0-0.384-0.217-0.85-0.65c-0.467-0.466-0.801-0.866-1-1.199c-0.067-0.101-0.45-0.417-1.15-0.95
					c-0.291-0.222-0.524-0.405-0.7-0.55v0.05c-0.153-0.137-0.304-0.27-0.45-0.4H101.7c-0.044-0.043-0.119-0.152-0.226-0.325
					c-0.387-0.327-0.754-0.626-1.1-0.9c0.398,0.3,0.74,0.576,1.025,0.825h0.024c-0.033-0.076-0.075-0.159-0.125-0.25
					c-0.127-0.232-0.21-0.407-0.25-0.525c-0.124-0.114-0.224-0.223-0.3-0.325c0.221,0.187,0.471,0.403,0.75,0.65
					c0.067,0.062,0.135,0.121,0.2,0.175c-0.09-0.059-0.173-0.117-0.25-0.175c0.087,0.173,0.212,0.323,0.375,0.45
					c0.106,0.021,0.207,0.054,0.3,0.1c0.187,0.165,0.362,0.315,0.525,0.45c0.322,0.27,0.605,0.487,0.85,0.65
					c0.533,0.333,1.116,0.883,1.75,1.65C105.684,28.525,106.051,28.925,106.35,29.2z M100.925,23.825
					c-0.079-0.051-0.153-0.109-0.225-0.175c-0.03-0.028-0.063-0.053-0.101-0.075l0.051-0.025
					C100.73,23.614,100.821,23.706,100.925,23.825z M103.075,25.75l0.475,0.3h-0.1L103.075,25.75z M105.15,27.6
					c-0.134-0.166-0.534-0.583-1.2-1.25c0.566,0.367,0.983,0.784,1.25,1.25H105.15z M106.125,28.625L106.3,28.9h-0.05
					C106.198,28.779,106.156,28.688,106.125,28.625z"/>
			</g>
		</g>
	</g>
	<g>
		<g>
			<path style="fill-rule:evenodd;clip-rule:evenodd;fill:#44403B;" d="M70.15,1.65c0,0.1,0.017,0.184,0.05,0.25v1.7
				c-0.267,0.233-0.45,0.533-0.55,0.9c-0.4,1.8-0.684,3.883-0.851,6.25c-0.033,0.4-0.133,2.5-0.3,6.3
				c-0.066,1.5-0.434,3.667-1.1,6.5c-0.7,2.867-1.084,5.033-1.15,6.5c-0.134,2.101,0.184,2.667,0.95,1.7
				c-0.134,0.467-0.25,0.866-0.351,1.2c-0.133,0.267-0.25,0.517-0.35,0.75c-0.1,0.333-0.316,0.45-0.65,0.35
				c0.167-3.166,0.334-5.166,0.5-6c0.2-1,0.467-2.816,0.801-5.45c0.433-3.3,0.666-5.85,0.699-7.65
				c0.034-1.733,0.233-4.45,0.601-8.15l0.55-5c0.033-0.1,0.083-0.2,0.15-0.3V1.45l0.3-0.55c0.267-0.433,0.467-0.417,0.6,0.05
				C70.083,1.117,70.116,1.35,70.15,1.65z M41.35,15.05c0.033,0.167,0.05,0.333,0.05,0.5c0.1,0.767,0.167,1.317,0.2,1.65v0.05
				c0.033,0.3,0.2,2.65,0.5,7.05c0.2,2.834,0.467,5.184,0.8,7.05c0.2,0.867,0.717,1.334,1.55,1.4c0.033,0.233,0.05,0.384,0.05,0.45
				c0,0.566-0.083,1.35-0.25,2.35l-0.5-0.6c-0.333-0.667-0.583-1.467-0.75-2.4c-0.333-1.2-0.65-2.45-0.95-3.75
				c-0.6-2.533-1.083-5.367-1.45-8.5L38.5,2.2c-0.067-1.4,0.067-2.133,0.4-2.2c0.3-0.033,0.533,0.283,0.7,0.95l0.25,0.95v0.05
				c-0.233,0.333-0.35,0.667-0.35,1C39.333,4.617,39.5,6.633,40,9C40.3,10.367,40.75,12.383,41.35,15.05z"/>
			<path style="fill-rule:evenodd;clip-rule:evenodd;fill:#54504A;" d="M70.15,1.65c-0.034-0.3-0.067-0.533-0.101-0.7
				c-0.133-0.467-0.333-0.483-0.6-0.05c0.366-0.633,0.6-0.417,0.7,0.65C70.15,1.583,70.15,1.617,70.15,1.65z M70.2,3.6
				c0,0.4-0.033,0.767-0.101,1.1c-0.033,0.167-0.05,1.183-0.05,3.05c-0.033,2.067-0.1,3.8-0.2,5.2c-0.166,2.267-0.783,7.3-1.85,15.1
				c-0.267,1.8-0.583,3.233-0.95,4.3c-0.066,0.2-0.133,0.4-0.2,0.601c0.101-0.334,0.217-0.733,0.351-1.2
				c-0.767,0.967-1.084,0.4-0.95-1.7c0.066-1.467,0.45-3.633,1.15-6.5c0.666-2.833,1.033-5,1.1-6.5c0.167-3.8,0.267-5.9,0.3-6.3
				c0.167-2.367,0.45-4.45,0.851-6.25C69.75,4.133,69.934,3.833,70.2,3.6z M41.6,17.2c0.033,0.167,0.566,3.017,1.6,8.55
				c0.7,3.7,1.117,6.033,1.25,7c-0.833-0.066-1.35-0.533-1.55-1.4c-0.333-1.866-0.6-4.216-0.8-7.05c-0.3-4.4-0.467-6.75-0.5-7.05
				V17.2z M41.35,15.05C40.75,12.383,40.3,10.367,40,9c-0.5-2.367-0.667-4.383-0.5-6.05c0-0.333,0.117-0.667,0.35-1
				c0.433,1.9,0.683,3.316,0.75,4.25C40.933,10.233,41.183,13.183,41.35,15.05z"/>
		</g>
	</g>
	<path style="fill-rule:evenodd;clip-rule:evenodd;fill:#54504A;" d="M101.855,29.473l0.043,0.011l0.279-0.524
		c0.285-0.723,0.413-1.257,0.383-1.604l-1.004-0.038l-0.172-0.047c-0.402-0.107-0.697-0.094-0.887,0.04
		c-0.141,0.178-0.287,0.553-0.44,1.127l-0.115,0.431l1.58,0.469L101.855,29.473z M101.773,25.992l1.242,0.01
		c1.058,0.068,1.197,1.212,0.418,3.432c-0.227,0.616-0.521,1.029-0.885,1.239c-0.255,0.146-0.559,0.188-0.91,0.125
		c-0.395-0.137-0.705-0.235-0.936-0.297c-0.86-0.23-1.408-0.423-1.644-0.578c-0.256-0.191-0.418-0.39-0.487-0.592
		c-0.047-0.167-0.018-0.45,0.091-0.853c0.276-1.032,0.551-1.712,0.822-2.039c0.316-0.376,0.694-0.583,1.135-0.618
		C100.901,25.804,101.286,25.861,101.773,25.992z"/>
	<path style="fill-rule:evenodd;clip-rule:evenodd;fill:#54504A;" d="M91.35,28.1c-0.366,0.167-0.55,0.517-0.55,1.051l-0.05,0.35
		l0.5,0.1c0.967,0,1.566-0.216,1.8-0.649c0.101-0.167,0.117-0.351,0.05-0.55L93,28.35C92.7,27.816,92.15,27.733,91.35,28.1z
		 M91.75,26.6h1.1c0.667-0.033,1.15,0.35,1.45,1.15c0.267,0.733,0.217,1.45-0.149,2.15c-0.334,0.6-0.817,1-1.45,1.199
		c-0.4,0.101-0.983,0.15-1.75,0.15c-0.8,0-1.3-0.217-1.5-0.65c-0.066-0.199-0.066-0.767,0-1.699
		C89.583,27.467,90.35,26.7,91.75,26.6z"/>
	<path style="fill-rule:evenodd;clip-rule:evenodd;fill:#44403B;" d="M99.65,29.05c0.121-0.329,0.279-0.621,0.475-0.875
		c-0.021,0.084-0.046,0.176-0.075,0.275l-0.1,0.399l1.6,0.45l0.351,0.15v0.05l0.3-0.55c0.168-0.393,0.276-0.734,0.325-1.025
		c0.11,0.125,0.219,0.267,0.324,0.425c0,0.233-0.083,0.483-0.25,0.75c0,0.233-0.017,0.384-0.05,0.45c-0.066,0.134-0.55,0.2-1.45,0.2
		c-0.166,0-0.433-0.083-0.8-0.25C99.967,29.3,99.75,29.15,99.65,29.05z M99.95,26.9c-0.334,0.267-0.533,0.517-0.601,0.75
		c-0.267,0.466-0.466,0.75-0.6,0.85c-0.038,0.013-0.071,0.021-0.1,0.025V28.5c0.3-1.033,0.583-1.733,0.85-2.1
		c0.3-0.367,0.667-0.566,1.1-0.6c0.301,0,0.7,0.067,1.2,0.2h1.2c0.814,0.076,1.098,0.768,0.85,2.075
		c-0.038-0.378-0.155-0.637-0.35-0.775c-0.233-0.2-0.467-0.383-0.7-0.55c-0.399-0.3-0.733-0.45-1-0.45
		C101.066,26.3,100.45,26.5,99.95,26.9z"/>
	<path style="fill-rule:evenodd;clip-rule:evenodd;fill:#44403B;" d="M93.7,29.4c-0.101-1.434-0.65-2.15-1.65-2.15
		c-1.066,0-1.85,0.45-2.35,1.35c-0.105,0.179-0.197,0.354-0.275,0.525c0.011-0.07,0.02-0.146,0.025-0.225
		c0.133-1.434,0.899-2.2,2.3-2.3h1.1c0.667-0.033,1.15,0.35,1.45,1.15c0.267,0.733,0.217,1.45-0.149,2.15
		c-0.307,0.552-0.74,0.935-1.301,1.149c0.4-0.166,0.667-0.416,0.801-0.75C93.684,30.134,93.7,29.833,93.7,29.4z M92.7,29.45
		c0.233,0.566-0.167,0.85-1.2,0.85c-0.434,0-0.717-0.184-0.85-0.55c-0.067-0.167-0.101-0.384-0.101-0.65
		c0-0.084,0.092-0.192,0.275-0.324c-0.017,0.112-0.025,0.237-0.025,0.375l-0.05,0.35l0.5,0.1c0.639,0,1.113-0.091,1.425-0.274
		C92.691,29.363,92.7,29.405,92.7,29.45z"/>
</g>
<g>
	<image style="overflow:visible;" width="65" height="52" xlink:href="80B0EAA1.png"  transform="matrix(1 0 0 1 -10 -8)">
	</image>
	<g>
		
			<use xlink:href="#notes1"  width="33.834" height="21.144" x="0.021" y="-21.144" transform="matrix(1 0 0 -1 5.4502 7.2002)" style="overflow:visible;"/>
	</g>
</g>
<g>
	<image style="overflow:visible;" width="65" height="44" xlink:href="80B0EAA3.png"  transform="matrix(1 0 0 1 54 3)">
	</image>
	<g>
		
			<use xlink:href="#notes3"  width="34.229" height="12.45" x="0.001" y="-12.45" transform="matrix(1 0 0 -1 69.7002 18.7998)" style="overflow:visible;"/>
	</g>
</g>
<g>
	<image style="overflow:visible;" width="54" height="45" xlink:href="80B0EAA6.png"  transform="matrix(1 0 0 1 27 -7)">
	</image>
	<g>
		
			<use xlink:href="#notes2"  width="22.913" height="13.828" y="-13.825" transform="matrix(1 0 0 -1 42.7998 8.2002)" style="overflow:visible;"/>
	</g>
</g>
</svg>
