<?xml version="1.0" encoding="iso-8859-1"?>
<!-- Generator: Adobe Illustrator 16.0.0, SVG Export Plug-In . SVG Version: 6.00 Build 0)  -->
<!DOCTYPE svg PUBLIC "-//W3C//DTD SVG 1.1//EN" "http://www.w3.org/Graphics/SVG/1.1/DTD/svg11.dtd">
<svg version="1.1" id="FlashAICB" xmlns="http://www.w3.org/2000/svg" xmlns:xlink="http://www.w3.org/1999/xlink" x="0px" y="0px"
	 width="97px" height="110px" viewBox="0 0 97 110" style="enable-background:new 0 0 97 110;" xml:space="preserve">
<symbol  id="Symbol_1" viewBox="0 -93.888 82 93.87">
	<g id="Layer_3_1_">
		<path style="fill-rule:evenodd;clip-rule:evenodd;fill:#FFFFFF;" d="M48.75-10.85C48.517-9.183,47.133-8.2,44.6-7.9
			C42.2-7.633,40-8.033,38-9.1c-1.567-0.833-2.417-2.5-2.55-5c-0.034-1.267,0.066-2.433,0.3-3.5L34-16.35
			c-0.733,0.533-1.5,0.817-2.3,0.85l-0.95-0.1c-0.133,0.8-0.15,1.817-0.05,3.05c0.167,2.433,0.767,4.75,1.8,6.95
			c1.033,2.2,2.6,3.767,4.7,4.7c1.033,0.5,1.966,0.767,2.8,0.8c8.333,0.633,13.3-2.383,14.9-9.05c0.767-3.333,0.717-6.733-0.15-10.2
			L53-17.6c-0.733,0.733-1.917,1.033-3.55,0.9l-2.2-0.4c0.333,0.467,0.65,1.067,0.95,1.8C48.767-13.8,48.95-12.317,48.75-10.85z
			 M82-60.1l-0.5-4l-47-0.25c-3.333,0-8.917,0.083-16.75,0.25L7-63.85l0.8-3.9c0.767-3.133,1.833-6,3.2-8.6
			c1.7-3.3,4.983-6.033,9.85-8.2c5.2-2.367,11.167-3.55,17.9-3.55c5.833,0,10.3,0.45,13.4,1.35c1.533,0.467,2.483,0.933,2.85,1.4
			l2.75-4c-0.833-0.833-2.167-1.583-4-2.25c-1.467-0.533-4.233-1.066-8.3-1.6c-4.267-0.566-7.583-0.783-9.95-0.65
			c-3.433,0.167-6.95,0.65-10.55,1.45c-4.867,1.1-8.517,2.533-10.95,4.3c-3.233,2.333-5.583,4.267-7.05,5.8
			c-2,2.033-3.233,4.017-3.7,5.95c-0.4,1.767-1.067,5.25-2,10.45L0-58.6l4.45,0.1c3.233,0.033,5.417,0,6.55-0.1
			c1.833-0.167,8-0.25,18.5-0.25c1.833,0,6.217-0.133,13.15-0.4c6.9-0.233,11.517-0.35,13.85-0.35C61-59.6,69.5-59.767,82-60.1z
			 M49.5-20.6c0.8,0,2.317-0.566,4.55-1.7c2-1,3.567-1.934,4.7-2.8l4.5-3.5l-5-2.75c-0.5,0.5-1.117,1.017-1.85,1.55
			c-1.5,1.033-2.883,1.6-4.15,1.7c-1.367,0.1-2.983-0.217-4.85-0.95c-1.6-0.667-2.9-1.434-3.9-2.3L40-34.1c-1.5,3.167-2.833,5-4,5.5
			c-0.933,0.4-2.033,0.783-3.3,1.15c-1.367,0.4-2.35,0.6-2.95,0.6c-0.967,0-2.167-0.15-3.6-0.45c-1.9-0.367-3.283-0.883-4.15-1.55
			c-0.833-0.633-1.583-1.117-2.25-1.45L19-30.6l-1.75,7l4.5,1.5c3.333,1.067,5.833,1.817,7.5,2.25c1.767,0.434,3.567,0.133,5.4-0.9
			c1.133-0.633,2.417-1.667,3.85-3.1c1.333-1.333,2.5-2.167,3.5-2.5l3.1,2.85C47.3-21.567,48.767-20.6,49.5-20.6z M41.25-47.35
			c-0.733-1.033-1.617-2.133-2.65-3.3l-1.35-1.45c-5.167,4-8.5,6.167-10,6.5c-1.333,0.333-2.233,0.533-2.7,0.6
			c-0.767,0.133-1.367,0.1-1.8-0.1c-0.567-0.267-1.883-1.083-3.95-2.45c-2.167-1.434-3.6-2.45-4.3-3.05l-2.5-2l-4.5,5.5l1.75,2
			l4.7,2.5c3.333,1.733,5.517,2.817,6.55,3.25c1.667,0.667,3.083,1.083,4.25,1.25l11-6.25l7.25,3.5
			c0.667,0.333,2.917,1.25,6.75,2.75l4.15-0.5c2.9-0.433,4.767-0.85,5.6-1.25c1.333-0.667,3.75-2.25,7.25-4.75l2.15,1.15
			c1.533,0.7,2.567,0.9,3.1,0.6c1.067-0.633,2.4-2.717,4-6.25c0.833-1.833,1.333-3.083,1.5-3.75l-2.75-3.25
			c-0.167,1.233-0.45,2.55-0.85,3.95c-0.8,2.733-1.767,4.417-2.9,5.05s-2.6,0.817-4.4,0.55l-2.35-0.55c-0.9,0.5-2.033,1-3.4,1.5
			c-2.7,1-5.15,1.5-7.35,1.5C46.867-44.1,42.783-45.183,41.25-47.35z"/>
	</g>
</symbol>
<g>
	<image style="overflow:visible;" width="142" height="154" xlink:href="FD6392F7.png"  transform="matrix(1 0 0 1 -24 -24)">
	</image>
	<g>
		
			<use xlink:href="#Symbol_1"  width="82" height="93.87" y="-93.888" transform="matrix(1 0 0 -1 6 6)" style="overflow:visible;"/>
	</g>
</g>
</svg>
