<?xml version="1.0" encoding="iso-8859-1"?>
<!-- Generator: Adobe Illustrator 16.0.0, SVG Export Plug-In . SVG Version: 6.00 Build 0)  -->
<!DOCTYPE svg PUBLIC "-//W3C//DTD SVG 1.1//EN" "http://www.w3.org/Graphics/SVG/1.1/DTD/svg11.dtd">
<svg version="1.1" id="FlashAICB" xmlns="http://www.w3.org/2000/svg" xmlns:xlink="http://www.w3.org/1999/xlink" x="0px" y="0px"
	 width="5.5px" height="5.65px" viewBox="0 0 5.5 5.65" style="enable-background:new 0 0 5.5 5.65;" xml:space="preserve">
<path style="fill-rule:evenodd;clip-rule:evenodd;fill:#AFACB0;" d="M3.9,1.65L2.8,1.9H2.6C2.133,1.9,1.816,2,1.65,2.2
	C1.55,2.434,1.5,2.883,1.5,3.55v0.5L3.35,4.1l0.4,0.051H3.8L3.95,3.5C4.05,2.633,4.033,2.017,3.9,1.65z M0.3,1.55
	c0.233-0.5,0.583-0.833,1.05-1c0.3-0.1,0.733-0.15,1.3-0.15L4,0.05C5.167-0.184,5.65,1.017,5.45,3.65
	C5.383,4.384,5.184,4.917,4.85,5.25C4.616,5.483,4.3,5.617,3.9,5.65C3.434,5.617,3.066,5.6,2.8,5.6c-1,0-1.65-0.05-1.95-0.149
	c-0.333-0.134-0.567-0.3-0.7-0.5C0.05,4.783,0,4.467,0,4C0,2.8,0.1,1.983,0.3,1.55z"/>
</svg>
