<?xml version="1.0" encoding="iso-8859-1"?>
<!-- Generator: Adobe Illustrator 16.0.0, SVG Export Plug-In . SVG Version: 6.00 Build 0)  -->
<!DOCTYPE svg PUBLIC "-//W3C//DTD SVG 1.1//EN" "http://www.w3.org/Graphics/SVG/1.1/DTD/svg11.dtd">
<svg version="1.1" id="FlashAICB" xmlns="http://www.w3.org/2000/svg" xmlns:xlink="http://www.w3.org/1999/xlink" x="0px" y="0px"
	 width="5.85px" height="5.95px" viewBox="0 0 5.85 5.95" style="enable-background:new 0 0 5.85 5.95;" xml:space="preserve">
<path style="fill-rule:evenodd;clip-rule:evenodd;fill:#AFACB0;" d="M4.4,0.6C4.967,0.767,5.367,1.066,5.6,1.5
	c0.067,0.167,0.15,0.733,0.25,1.7C5.917,3.934,5.767,4.55,5.4,5.05C5,5.55,4.434,5.833,3.7,5.9C2.767,6,1.934,5.85,1.2,5.45
	C0.333,4.983-0.066,4.3,0,3.4C0.033,2.733,0.217,2.05,0.55,1.35c0.4-0.8,0.9-1.25,1.5-1.35L2.9,0.3C3.2,0.4,3.7,0.5,4.4,0.6z
	 M4.25,2.2C4.184,2.133,3.9,2.05,3.4,1.95l-0.95-0.2l-0.3-0.1C1.783,2.083,1.567,2.7,1.5,3.5c-0.033,0.167,0,0.3,0.1,0.4
	c0.333,0.333,0.883,0.5,1.65,0.5h0.3C4.117,4.333,4.384,3.967,4.35,3.3V3.05L4.25,2.2z"/>
</svg>
