<svg color-interpolation-filters="sRGB" fill-rule="evenodd" pointer-events="none" width="100%" height="100%" xmlns="http://www.w3.org/2000/svg" xmlns:xlink="http://www.w3.org/1999/xlink" style="-webkit-user-select: none;"><g transform="matrix(0.0496551724137931 0 0 0.0496551724137931 1.277931034482748 0)"><g><rect x="-25.736111111110894" y="0" width="7753.472222222223" height="1450" fill="rgb(102,153,153)"></rect><g><g><g><g><path d="M 6619 803 Q 6617 803 6616 804 L 6623 823 L 6632 839 L 6660 882 Q 6675 908 6678 932 L 6687 1010 Q 6691 1063 6678 1087 Q 6665 1112 6626 1125 Q 6600 1134 6574 1134 Q 6565 1134 6557 1133 L 6505 1129 L 6452 1126 Q 6424 1125 6410 1115 L 6380 1082 L 6371 1067 Q 6367 1061 6359 1059 L 6351 1097 Q 6346 1121 6337 1131 Q 6322 1148 6280 1149 L 6218 1146 L 6216 1146 L 6212 1152 L 6117 1152 L 6109 1154 L 6136 1154 L 6276 1155 Q 6293 1155 6314 1155 Q 6419 1155 6631 1163 L 7151 1186 L 7246 1165 L 7282 1143 L 7301 1129 L 7326 1103 L 7354 1053 L 7357 1045 L 7361 1032 L 7363 1024 L 7364 1019 L 7344 1019 L 7314 1021 Q 7306 1025 7301 1036 L 7291 1053 Q 7276 1071 7256 1072 L 7212 1067 L 7208 1099 L 7192 1125 L 7152 1150 L 7105 1153 L 7030 1159 L 6949 1155 L 6870 1132 Q 6793 1110 6773 1072 Q 6765 1058 6762 1030 L 6756 986 L 6749 944 L 6738 904 L 6705 866 L 6651 819 Q 6628 803 6619 803 Z M 788 986 L 780 993 Q 765 1005 729 1015 Q 690 1026 676 1035 L 636 1067 Q 610 1088 592 1093 L 522 1086 Q 484 1071 461 1071 Q 456 1071 452 1072 L 422 1083 L 392 1085 L 378 1073 L 366 1059 L 347 1049 L 325 1046 L 265 1034 L 264 1033 L 264 1033 Q 251 1079 298 1090 L 312 1092 L 316 1095 L 319 1097 L 321 1098 L 323 1099 L 518 1157 L 527 1159 L 537 1160 L 571 1165 L 587 1167 L 752 1182 L 1245 1213 L 1349 1227 L 1677 1269 L 1725 1275 L 1709 1267 Q 1682 1255 1631 1254 L 1550 1251 L 1434 1231 Q 1381 1218 1340 1195 L 1303 1168 Q 1279 1149 1264 1144 L 1198 1139 Q 1190 1140 1175 1150 L 1152 1160 L 1120 1157 L 1087 1151 L 947 1130 L 864 1119 Q 811 1111 783 1099 Q 752 1086 759 1059 L 782 1012 Q 790 998 788 986 Z M 3167 1306 L 3096 1309 L 3102 1310 L 3119 1311 L 3140 1313 L 3145 1314 L 3232 1321 L 3167 1306 Z M 1940 1225 Q 1925 1229 1916 1247 L 1899 1278 L 1885 1290 L 1867 1292 L 1890 1295 L 2108 1322 L 2377 1340 Q 2442 1342 2500 1342 Q 2604 1342 2687 1336 L 2718 1334 L 2810 1325 L 2847 1320 L 2915 1313 L 2927 1312 L 2970 1309 L 2986 1308 Q 2935 1282 2854 1265 L 2804 1258 Q 2797 1261 2772 1280 Q 2753 1295 2732 1298 L 2676 1301 L 2620 1299 L 2478 1299 L 2419 1295 L 2360 1287 L 2328 1287 Q 2307 1286 2301 1274 L 2334 1274 L 2366 1273 L 2381 1266 Q 2391 1260 2397 1259 L 2052 1244 L 1996 1230 L 1940 1225 Z" fill="rgb(121,112,86)" fill-opacity="1.000"></path><path d="M 6850 474 Q 6811 479 6806 492 Q 6800 509 6818 536 Q 6832 557 6849 571 Q 6901 613 7037 620 L 7085 618 L 7062 602 L 6995 558 L 6850 474 Z M 7104 632 Q 7096 638 7094 650 L 7107 654 Q 7116 654 7118 649 L 7112 638 L 7104 632 Z M 779 693 L 766 704 L 812 706 L 779 693 Z M 945 673 L 929 682 L 912 692 Q 917 707 937 707 Q 943 707 951 706 Q 984 700 979 679 L 945 673 Z M 6785 572 Q 6783 572 6781 572 L 6791 586 Q 6757 586 6701 601 L 6671 609 Q 6645 618 6647 630 Q 6648 638 6661 645 L 6680 653 L 6713 673 Q 6733 687 6747 690 L 6801 697 L 6855 699 L 6889 701 L 6921 709 Q 6946 722 6981 722 Q 6988 722 6995 722 L 6992 707 Q 6990 698 6995 693 L 7008 689 Q 7016 688 7015 676 Q 7014 668 6999 659 L 6978 648 L 6907 615 L 6846 586 Q 6812 572 6785 572 Z M 1265 692 L 1253 705 Q 1250 712 1259 718 L 1279 724 L 1299 723 Q 1313 716 1308 703 Q 1306 694 1297 692 Z M 839 739 Q 825 747 826 758 L 865 758 L 865 739 Z M 6045 729 Q 5983 744 6022 754 Q 6039 758 6049 758 Q 6068 758 6071 746 L 6045 729 Z M 5398 732 L 5387 742 Q 5385 757 5415 760 L 5459 761 Q 5489 758 5485 739 L 5398 732 Z M 7031 709 Q 7018 713 7016 729 Q 7015 744 7025 752 Q 7037 761 7059 766 L 7095 767 Q 7111 764 7112 756 L 7105 732 L 7031 709 Z M 765 739 L 666 747 Q 660 775 729 780 Q 740 781 749 781 Q 798 781 792 753 L 765 739 Z M 2819 779 L 2772 786 Q 2760 796 2788 799 L 2825 799 Q 2829 782 2819 779 Z M 6235 718 L 6171 723 Q 6141 728 6138 743 Q 6136 752 6140 756 L 6153 762 Q 6230 788 6314 792 L 6357 796 L 6430 812 L 6494 804 Q 6535 789 6528 759 L 6461 719 L 6299 719 L 6235 718 Z M 1025 733 Q 959 769 979 806 Q 985 818 1038 818 L 1124 824 L 1209 819 L 1236 809 Q 1244 802 1247 784 Q 1252 752 1232 746 L 1025 733 Z M 5361 786 Q 5332 798 5348 811 Q 5361 822 5389 823 L 5406 824 L 5415 813 Q 5418 796 5401 789 L 5361 786 Z M 6215 802 Q 6167 802 6139 803 Q 6131 817 6193 826 L 6265 822 L 6268 802 Q 6239 802 6215 802 Z M 4671 772 Q 4648 772 4622 784 Q 4590 799 4591 821 Q 4592 839 4623 842 L 4667 843 L 4721 843 Q 4754 838 4761 814 Q 4765 801 4759 795 L 4741 786 L 4671 772 Z M 5541 779 L 5502 780 Q 5479 785 5474 802 Q 5468 827 5496 838 L 5543 846 L 5640 850 L 5669 843 Q 5688 836 5694 826 Q 5710 801 5677 789 L 5625 779 Z M 2555 846 Q 2553 857 2571 860 Q 2573 860 2575 860 Q 2588 860 2589 849 L 2555 846 Z M 1285 853 L 1251 857 Q 1234 865 1258 878 L 1293 882 Q 1316 877 1312 859 L 1285 853 Z M 1131 852 Q 1116 852 1119 865 Q 1123 880 1144 885 L 1178 887 L 1212 886 L 1139 853 Q 1134 852 1131 852 Z M 2782 819 Q 2751 830 2743 836 Q 2727 849 2748 867 Q 2770 884 2823 888 L 2859 889 Q 2873 884 2872 872 L 2867 862 L 2859 853 L 2852 836 L 2843 832 L 2835 826 L 2782 819 Z M 2439 829 L 2404 834 Q 2385 839 2382 857 Q 2377 888 2446 901 Q 2460 904 2478 904 Q 2498 904 2521 900 L 2536 895 L 2542 880 Q 2542 865 2532 862 L 2439 829 Z M 4685 882 L 4668 892 Q 4657 896 4663 904 Q 4667 909 4674 909 Q 4676 909 4678 909 Q 4687 908 4689 899 Q 4691 891 4685 882 Z M 2609 876 L 2575 882 Q 2564 900 2583 912 Q 2590 919 2613 923 L 2683 929 L 2687 913 L 2685 896 Q 2678 881 2651 877 L 2609 876 Z M 4637 901 L 4611 902 L 4575 906 Q 4556 916 4556 926 Q 4557 937 4577 937 L 4605 936 L 4633 934 Q 4650 930 4651 915 Q 4652 902 4637 901 Z M 1675 922 L 1645 929 Q 1637 937 1644 942 L 1660 946 Q 1672 945 1674 940 L 1675 922 Z M 1546 912 Q 1522 912 1491 925 Q 1451 943 1481 965 Q 1504 981 1546 981 Q 1548 981 1551 981 L 1624 975 Q 1634 943 1602 926 L 1552 912 Q 1549 912 1546 912 Z M 3411 909 Q 3398 909 3379 916 Q 3343 930 3333 949 Q 3320 975 3357 983 L 3412 986 L 3465 988 Q 3499 986 3508 967 Q 3517 946 3503 934 Q 3492 924 3470 922 L 3433 916 Q 3425 909 3412 909 Z M 3007 956 L 2990 960 Q 2982 966 2984 976 Q 2987 993 3024 1000 L 3074 1002 L 3074 979 L 3007 956 Z M 1661 972 Q 1652 975 1650 977 L 1644 985 Q 1639 997 1652 1009 Q 1671 1026 1713 1028 L 1777 1025 Q 1779 1011 1769 999 Q 1759 988 1744 986 L 1661 972 Z M 3437 1009 L 3416 1015 Q 3404 1020 3403 1029 Q 3412 1037 3432 1037 L 3463 1036 L 3486 1035 Q 3497 1031 3494 1016 L 3437 1009 Z M 2051 989 Q 1985 993 1981 1000 Q 1977 1006 1979 1011 L 1987 1020 Q 2000 1032 2041 1036 Q 2050 1037 2057 1037 Q 2083 1037 2077 1019 L 2051 989 Z M 2227 962 Q 2211 962 2162 979 L 2141 987 Q 2128 993 2125 1002 Q 2119 1017 2135 1025 L 2164 1033 L 2205 1042 L 2246 1039 Q 2290 1022 2287 979 L 2227 962 Z M 7181 687 L 7184 691 Q 7214 731 7233 783 Q 7236 805 7232 818 L 7198 819 L 7166 809 L 7133 799 L 7133 799 Q 7136 827 7123 840 L 7086 859 L 7071 869 L 7053 871 Q 7045 869 7022 851 Q 6998 832 6990 829 L 6914 807 L 6866 804 L 6820 806 Q 6778 801 6706 772 L 6594 734 L 6594 734 Q 6590 746 6600 768 L 6618 804 Q 6619 803 6621 803 Q 6629 803 6653 819 Q 6709 822 6771 907 Q 6837 999 6882 1012 L 6975 1022 Q 7034 1024 7064 1038 Q 7102 1055 7131 1055 Q 7141 1055 7151 1053 Q 7174 1048 7191 1030 Q 7210 1010 7207 987 L 7207 987 L 7273 995 Q 7286 998 7296 998 Q 7318 998 7327 986 Q 7342 967 7340 926 L 7333 853 L 7320 831 L 7302 806 L 7228 725 L 7207 706 L 7181 687 Z M 2176 1069 L 2170 1075 Q 2168 1081 2179 1087 L 2193 1093 L 2228 1098 Q 2254 1097 2251 1082 L 2184 1069 Z M 3947 1069 Q 3925 1069 3913 1084 Q 3900 1100 3911 1119 Q 3922 1138 3951 1138 Q 3955 1138 3959 1138 Q 3995 1135 3994 1106 L 3947 1069 Z M 3717 1009 L 3651 1015 L 3586 1025 Q 3535 1040 3557 1070 L 3562 1084 L 3561 1098 Q 3562 1107 3566 1110 L 3580 1118 Q 3620 1138 3668 1146 L 3806 1156 L 3846 1151 Q 3861 1144 3868 1123 Q 3883 1083 3874 1067 L 3844 1042 Q 3825 1032 3810 1032 Q 3809 1032 3807 1032 L 3717 1009 Z M 497 743 Q 430 793 381 839 L 339 911 L 340 914 Q 342 931 355 951 L 357 953 L 361 959 Q 399 1009 453 1015 L 561 1001 L 601 989 L 640 979 L 689 972 Q 708 966 729 945 Q 756 916 814 866 L 847 835 Q 863 819 887 812 L 887 812 Q 881 844 838 892 Q 794 942 785 972 L 782 993 L 782 993 L 790 986 L 790 986 Q 792 998 784 1012 Q 792 1029 835 1041 L 902 1058 L 978 1066 L 1054 1068 L 1137 1066 L 1226 1072 L 1239 1084 L 1252 1096 L 1295 1112 L 1339 1126 Q 1471 1186 1663 1186 L 1770 1197 Q 1808 1202 1837 1202 Q 1859 1202 1876 1199 Q 1901 1195 1912 1180 L 1933 1144 Q 1957 1153 1992 1177 L 2050 1213 Q 2089 1234 2141 1241 L 2237 1246 L 2324 1255 L 2408 1251 L 2458 1241 L 2511 1244 L 2567 1255 L 2625 1259 Q 2762 1256 2788 1206 Q 2795 1192 2792 1155 Q 2790 1119 2799 1106 Q 2800 1106 2800 1106 Q 2820 1106 2845 1133 L 2884 1175 Q 2913 1200 2954 1210 L 3033 1219 L 3284 1245 L 3535 1295 Q 3684 1326 3782 1326 Q 3785 1326 3788 1326 L 3957 1314 Q 4093 1297 4081 1260 L 4322 1253 L 4408 1249 Q 4452 1242 4487 1219 L 4537 1171 Q 4568 1137 4587 1126 Q 4617 1110 4671 1107 Q 4691 1106 4723 1106 Q 4739 1106 4757 1106 L 4825 1104 Q 4865 1098 4873 1072 Q 4879 1053 4874 1026 L 4863 989 Q 4857 966 4861 955 L 4859 934 L 4868 945 Q 4878 939 4893 939 Q 4894 939 4895 939 Q 4942 939 5005 991 Q 5031 1013 5041 1034 L 5045 1051 L 5053 1065 Q 5071 1079 5124 1080 L 5198 1081 L 5239 1084 L 5533 1054 L 5648 1045 L 5770 1034 Q 5811 1031 5843 1031 Q 5870 1031 5892 1033 L 5956 1045 L 6020 1060 L 6215 1073 L 6295 1060 Q 6338 1045 6341 1006 Q 6367 1007 6414 1028 L 6486 1053 Q 6506 1056 6537 1056 Q 6568 1056 6610 1054 L 6640 1055 Q 6658 1055 6667 1047 Q 6683 1036 6683 1003 Q 6683 976 6674 953 L 6650 898 Q 6637 866 6634 840 L 6625 824 L 6627 887 Q 6597 892 6559 892 Q 6504 892 6432 882 L 6237 860 L 6180 864 Q 6165 868 6132 887 Q 6086 912 5999 917 L 5860 919 L 5556 925 L 5499 928 L 5479 915 L 5395 900 L 5155 868 L 4914 853 Q 4833 855 4798 872 Q 4778 881 4762 904 L 4739 947 Q 4713 1003 4649 1022 L 4525 1039 L 4475 1053 L 4426 1067 L 4352 1064 Q 4300 1064 4290 1085 Q 4296 1106 4248 1117 L 4185 1128 Q 4159 1134 4130 1158 L 4081 1193 L 4045 1196 L 4009 1193 L 3945 1190 L 3880 1193 L 3861 1201 L 3843 1211 L 3801 1216 L 3759 1212 Q 3657 1206 3572 1185 L 3469 1154 L 3366 1124 L 3220 1115 Q 3126 1113 3074 1094 Q 2996 1064 2893 989 L 2840 944 Q 2800 912 2781 912 Q 2780 912 2780 912 Q 2766 913 2763 917 L 2754 933 L 2740 969 Q 2731 989 2713 994 Q 2702 997 2689 997 Q 2664 997 2631 985 L 2553 951 Q 2532 943 2519 943 Q 2516 943 2514 943 Q 2498 945 2482 966 L 2475 987 L 2468 1007 L 2452 1022 L 2427 1033 Q 2421 1036 2344 1082 Q 2293 1112 2254 1114 Q 2248 1114 2241 1114 Q 2147 1114 2018 1060 Q 1966 1038 1930 1038 Q 1918 1038 1907 1041 Q 1896 1044 1883 1055 Q 1870 1067 1861 1069 L 1870 1076 Q 1859 1083 1831 1083 Q 1799 1083 1743 1074 L 1635 1056 L 1527 1035 L 1390 1019 L 1253 1006 Q 1155 995 1091 950 Q 1047 920 1027 915 L 1009 916 L 992 914 Q 986 911 983 904 L 976 894 L 941 866 Q 911 851 917 832 Q 931 804 934 782 L 934 782 L 816 790 L 701 813 L 631 825 Q 622 826 614 826 Q 578 826 569 810 Q 564 803 565 784 L 567 756 L 494 753 L 497 745 Z" fill="rgb(151,140,109)" fill-opacity="1.000"></path><path d="M 885 812 Q 861 819 845 835 L 812 866 Q 754 916 727 945 Q 706 966 687 972 L 638 979 L 599 989 L 559 1001 L 451 1015 Q 397 1009 359 959 L 355 953 L 353 951 Q 340 931 338 914 L 337 911 L 293 975 L 286 986 Q 269 1014 264 1033 L 265 1034 L 325 1046 L 347 1049 L 366 1059 L 378 1073 L 392 1085 L 422 1083 L 452 1072 Q 456 1071 461 1071 Q 483 1071 522 1086 L 592 1093 Q 610 1088 636 1067 L 676 1035 Q 690 1026 729 1015 Q 765 1005 780 993 L 783 972 Q 792 942 836 892 Q 879 844 885 812 Z M 6651 819 L 6705 866 L 6738 904 L 6749 944 L 6756 986 L 6762 1030 Q 6765 1058 6773 1072 Q 6793 1110 6870 1132 L 6949 1155 L 7030 1159 L 7105 1153 L 7152 1150 L 7192 1125 L 7208 1099 L 7212 1067 L 7256 1072 Q 7276 1071 7291 1053 L 7301 1036 Q 7306 1025 7314 1021 L 7344 1019 L 7364 1019 Q 7379 940 7331 853 L 7331 853 L 7338 926 Q 7340 967 7325 986 Q 7316 998 7294 998 Q 7284 998 7271 995 L 7205 987 L 7205 987 Q 7208 1010 7189 1030 Q 7172 1048 7149 1053 Q 7140 1055 7129 1055 Q 7099 1055 7062 1038 Q 7032 1024 6973 1022 L 6880 1012 Q 6835 999 6769 907 Q 6707 822 6651 819 Z M 6632 839 Q 6635 865 6648 897 L 6672 952 Q 6681 975 6681 1002 Q 6681 1035 6665 1046 Q 6656 1054 6638 1054 L 6608 1053 Q 6566 1056 6535 1056 Q 6504 1056 6484 1054 L 6412 1029 Q 6365 1008 6339 1007 Q 6336 1046 6293 1061 L 6213 1074 L 6018 1061 L 5954 1046 L 5890 1034 Q 5869 1032 5841 1032 Q 5808 1032 5768 1035 L 5646 1046 L 5531 1055 L 5237 1085 L 5196 1082 L 5122 1081 Q 5069 1080 5051 1066 L 5043 1052 L 5039 1035 Q 5029 1014 5003 992 Q 4940 940 4893 940 Q 4892 940 4891 940 Q 4876 940 4866 946 L 4857 935 L 4859 956 Q 4855 967 4861 990 L 4872 1027 Q 4877 1054 4871 1073 Q 4863 1099 4823 1105 L 4755 1107 Q 4736 1107 4721 1107 Q 4689 1107 4669 1108 Q 4615 1111 4585 1127 Q 4566 1138 4535 1172 L 4485 1220 Q 4450 1243 4406 1250 L 4320 1254 L 4079 1261 Q 4091 1298 3955 1315 L 3786 1327 Q 3783 1327 3780 1327 Q 3682 1327 3533 1296 L 3282 1246 L 3031 1220 L 2952 1211 Q 2911 1201 2882 1176 L 2843 1134 Q 2818 1107 2798 1107 Q 2797 1107 2797 1107 Q 2788 1120 2790 1156 Q 2793 1193 2786 1207 Q 2760 1257 2623 1260 L 2565 1256 L 2509 1245 L 2456 1242 L 2406 1252 L 2322 1256 L 2235 1247 L 2139 1242 Q 2087 1235 2048 1214 L 1990 1178 Q 1955 1154 1931 1145 L 1910 1181 Q 1899 1196 1874 1200 Q 1857 1203 1835 1203 Q 1806 1203 1768 1198 L 1661 1187 Q 1469 1187 1337 1127 L 1293 1113 L 1250 1097 L 1237 1085 L 1224 1073 L 1135 1067 L 1052 1069 L 976 1067 L 900 1059 L 833 1042 Q 790 1030 782 1013 L 759 1060 Q 752 1087 783 1100 Q 811 1112 864 1120 L 947 1131 L 1087 1152 L 1120 1158 L 1152 1161 L 1175 1151 Q 1190 1141 1198 1140 L 1264 1145 Q 1279 1150 1303 1169 L 1340 1196 Q 1381 1219 1434 1232 L 1550 1252 L 1631 1255 Q 1682 1256 1709 1268 L 1725 1276 L 1863 1293 L 1867 1293 L 1885 1291 L 1899 1279 L 1916 1248 Q 1925 1230 1940 1226 L 1996 1231 L 2052 1245 L 2397 1260 Q 2391 1261 2381 1267 L 2366 1274 L 2334 1275 L 2301 1275 Q 2307 1287 2328 1288 L 2360 1288 L 2419 1296 L 2478 1300 L 2620 1300 L 2676 1302 L 2732 1299 Q 2753 1296 2772 1281 Q 2797 1262 2804 1259 L 2854 1266 Q 2935 1283 2986 1309 Q 3009 1308 3031 1308 Q 3064 1308 3096 1310 L 3167 1307 L 3232 1322 L 3458 1339 L 3534 1333 Q 3559 1331 3588 1331 Q 3631 1331 3683 1335 L 3831 1347 Q 3886 1352 3925 1352 Q 3968 1352 3991 1346 L 4038 1330 L 4087 1320 L 4202 1313 L 4305 1301 L 4407 1280 Q 4436 1276 4466 1257 L 4519 1221 Q 4554 1199 4618 1193 L 4665 1193 L 4690 1188 L 4783 1189 L 4846 1193 L 4913 1193 L 4976 1184 L 5016 1168 L 5086 1157 L 5155 1149 L 5261 1148 L 5395 1107 L 5529 1071 L 5620 1071 L 5813 1110 L 5959 1133 L 6087 1153 L 6212 1153 L 6216 1147 L 6218 1147 L 6280 1150 Q 6322 1149 6337 1132 Q 6346 1122 6351 1098 L 6359 1060 Q 6367 1062 6371 1068 L 6380 1083 L 6410 1116 Q 6424 1126 6452 1127 L 6505 1130 L 6557 1134 Q 6566 1135 6574 1135 Q 6600 1135 6626 1126 Q 6665 1113 6678 1088 Q 6691 1064 6687 1011 L 6678 933 Q 6675 909 6660 883 L 6632 840 Z" fill="rgb(141,131,102)" fill-opacity="1.000"></path><path d="M 2839 112 L 2919 132 Q 2918 152 2881 152 Q 2862 152 2834 147 Q 2803 142 2801 133 Q 2798 122 2839 112 Z M 5051 126 L 5111 139 L 5111 150 L 5057 154 Q 5017 151 5010 136 Q 5023 126 5051 126 Z M 5123 178 Q 5133 178 5145 179 L 5151 192 Q 5154 203 5149 211 Q 5127 214 5111 214 Q 5077 214 5076 199 Q 5074 178 5123 178 Z M 5031 179 L 5031 218 L 4942 224 Q 4870 224 4865 206 Q 4861 191 4884 185 L 4918 179 Z M 2722 206 Q 2724 206 2725 206 L 2832 232 Q 2817 264 2733 264 Q 2697 264 2647 258 Q 2634 236 2671 219 Q 2699 206 2722 206 Z M 5923 277 L 5965 279 L 6005 279 Q 6008 286 6003 291 L 5941 297 Q 5938 297 5935 297 Q 5898 297 5883 286 Q 5895 277 5923 277 Z M 2259 266 L 2392 286 Q 2387 308 2285 310 L 2158 303 Q 2163 281 2201 273 L 2259 266 Z M 6111 279 L 6211 306 L 6259 308 Q 6292 314 6294 332 Q 6280 336 6262 336 Q 6202 336 6107 286 L 6111 279 Z M 5318 226 L 5345 246 L 5508 266 L 5543 271 L 5578 281 L 5579 300 Q 5559 314 5519 314 Q 5514 314 5508 314 L 5432 313 Q 5428 327 5431 340 Q 5430 349 5409 357 L 5321 365 L 5231 358 L 5124 356 Q 5043 350 5044 319 Q 5045 295 5115 287 Q 5196 278 5204 270 L 5205 258 Q 5203 249 5206 246 Q 5218 235 5236 232 L 5318 226 Z M 2272 352 L 2385 366 Q 2380 381 2304 383 L 2211 378 Q 2210 361 2234 356 L 2272 352 Z M 5988 324 L 6071 326 L 6198 366 Q 6208 373 6204 385 L 6066 389 L 5987 376 Q 5924 362 5922 339 Q 5920 325 5988 324 Z M 6278 372 Q 6309 377 6319 391 L 6271 387 L 6285 386 L 6278 372 Z M 3005 359 L 3072 379 Q 3061 391 3024 391 Q 3021 391 3018 391 L 2959 385 Q 2956 368 2973 362 L 3005 359 Z M 5991 459 L 5998 479 Q 5997 494 5973 495 L 5937 490 Q 5942 479 5961 470 Q 5972 465 5991 459 Z M 2749 506 Q 2750 506 2752 506 L 2799 512 Q 2794 521 2776 521 Q 2774 521 2772 521 Q 2751 521 2744 512 Q 2744 506 2749 506 Z M 4005 466 L 4065 479 L 4105 484 Q 4126 490 4127 511 Q 4127 534 4097 545 L 4048 549 L 3999 546 L 3899 544 Q 3865 541 3856 526 Q 3847 510 3879 492 Q 3901 480 3941 475 L 4005 466 Z M 5259 546 Q 5222 546 5212 562 Q 5223 576 5270 578 Q 5273 578 5277 578 Q 5318 578 5331 566 L 5271 546 Q 5264 546 5259 546 Z M 909 526 Q 878 526 838 543 Q 790 564 785 591 Q 814 595 838 595 Q 926 595 945 546 L 912 526 Q 910 526 909 526 Z M 3699 519 L 3832 546 Q 3834 569 3829 577 L 3800 592 L 3722 596 Q 3670 593 3645 579 Q 3616 564 3625 542 Q 3632 529 3659 524 L 3699 519 Z M 3945 566 L 4019 586 Q 4018 603 3976 603 Q 3970 603 3963 603 Q 3911 599 3897 586 Q 3903 576 3918 573 L 3945 566 Z M 2701 565 Q 2721 565 2752 567 L 2772 580 Q 2762 600 2743 608 L 2703 614 L 2654 617 Q 2651 617 2648 617 Q 2618 617 2611 607 Q 2621 574 2671 567 Q 2681 566 2701 566 Z M 5871 574 L 6091 608 L 6027 611 L 5963 621 L 5879 632 Q 5867 633 5857 633 Q 5813 633 5802 615 Q 5809 598 5832 588 Q 5845 582 5871 574 Z M 1759 594 Q 1733 605 1724 629 Q 1733 638 1750 638 Q 1757 638 1765 637 Q 1795 632 1799 614 L 1759 594 Z M 1559 594 L 1603 599 Q 1626 609 1605 632 Q 1592 646 1544 646 Q 1512 646 1466 640 Q 1464 628 1475 620 L 1499 608 L 1559 594 Z M 4338 619 Q 4344 619 4352 621 L 4359 634 L 4358 647 Q 4348 649 4341 649 Q 4323 649 4322 635 Q 4321 619 4338 619 Z M 1585 568 Q 1493 590 1447 605 L 1375 624 Q 1324 641 1326 667 L 1385 670 L 1444 668 L 1589 653 Q 1661 633 1712 581 L 1585 568 Z M 4811 648 Q 4797 649 4782 659 Q 4765 670 4765 682 Q 4784 692 4809 692 Q 4815 692 4821 691 Q 4856 688 4871 668 L 4811 648 Z M 2119 694 L 2212 708 L 2162 709 L 2113 699 Q 2111 694 2119 694 Z M 2159 654 Q 2013 660 2013 700 Q 2013 717 2034 723 L 2072 728 L 2194 737 Q 2290 735 2279 688 L 2159 654 Z M 5793 731 Q 5746 732 5754 755 Q 5760 771 5827 771 L 5911 768 L 5858 734 L 5793 731 Z M 2292 748 Q 2232 771 2287 787 Q 2307 793 2322 793 Q 2349 793 2359 774 L 2292 748 Z M 3485 794 L 3499 828 L 3460 829 Q 3431 827 3431 814 Q 3431 804 3454 798 L 3485 794 Z M 4617 12 L 4628 15 Q 4660 31 4673 49 Q 4691 73 4657 86 L 4600 95 L 4364 95 L 4350 96 L 4132 116 Q 4128 132 4165 157 Q 4201 182 4192 207 L 4101 208 L 4067 210 L 4031 208 L 4007 189 Q 3995 176 3976 174 L 3818 186 L 3663 214 L 3565 219 Q 3561 219 3558 219 Q 3485 219 3478 200 Q 3465 163 3535 137 L 3627 115 L 3677 108 Q 3719 101 3727 88 L 3730 73 Q 3729 64 3731 61 Q 3740 47 3755 42 L 3755 42 L 3709 44 L 3617 45 L 3538 45 L 2953 52 L 2840 57 L 2840 58 L 2764 131 L 2738 161 L 2735 180 L 2721 195 Q 2704 206 2655 207 L 2589 206 L 2474 208 L 2374 212 Q 2294 212 2291 195 Q 2285 164 2351 144 L 2437 126 L 2386 116 L 2331 113 L 2332 112 L 2332 111 L 2316 115 L 2118 165 L 2116 166 L 2087 173 Q 1941 209 1799 218 L 1737 224 L 1721 227 L 1708 228 L 1725 250 Q 1737 278 1715 290 L 1675 306 Q 1682 316 1715 324 Q 1743 330 1745 345 Q 1711 363 1638 366 Q 1559 370 1529 381 Q 1473 402 1413 402 Q 1394 402 1374 400 Q 1364 380 1388 361 L 1425 334 Q 1417 329 1401 327 L 1376 322 L 1404 292 L 1350 307 L 1332 312 L 1224 345 L 1188 357 L 1119 380 L 1077 396 L 1071 399 Q 1061 415 1058 425 L 1104 426 L 1143 431 Q 1147 441 1125 457 L 1095 477 Q 1071 497 1058 521 Q 1041 553 1052 577 Q 1063 600 1098 600 Q 1125 600 1165 587 L 1222 568 L 1280 554 L 1379 543 L 1477 529 L 1647 492 Q 1673 488 1698 488 Q 1753 488 1804 509 Q 1791 535 1792 551 L 1818 552 L 1842 551 L 2053 544 L 2284 541 L 2302 542 L 2319 539 L 2388 490 Q 2454 448 2524 441 L 2687 429 Q 2724 426 2748 426 Q 2767 426 2779 428 Q 2781 441 2753 455 Q 2729 470 2684 490 L 2614 523 L 2571 548 Q 2542 567 2534 584 L 2555 588 L 2576 592 Q 2508 604 2470 615 Q 2399 636 2395 681 L 2427 688 L 2569 704 Q 2623 709 2664 709 Q 2690 709 2710 707 L 2765 698 L 2798 695 L 2832 690 Q 2889 672 2901 658 L 2908 641 L 2903 623 Q 2895 614 2895 598 Q 2896 575 2939 554 Q 2961 543 2991 533 L 3149 474 L 3337 402 Q 3402 411 3447 426 Q 3450 433 3441 442 L 3429 457 Q 3421 473 3437 483 L 3471 497 L 3506 506 Q 3527 514 3523 528 L 3503 548 Q 3467 578 3462 606 Q 3448 677 3579 729 L 3685 762 Q 3699 766 3704 777 L 3716 801 Q 3738 830 3789 840 L 3874 845 L 3941 842 L 3977 828 L 4008 806 Q 4024 796 4054 786 L 4102 772 L 4138 760 Q 4158 751 4166 737 L 4176 718 L 4189 701 Q 4196 695 4204 694 L 4221 695 L 4321 690 L 4321 690 Q 4294 694 4283 713 Q 4271 734 4308 737 L 4344 736 L 4380 732 L 4465 721 Q 4508 708 4532 670 L 4553 638 Q 4564 625 4586 618 Q 4620 607 4680 602 L 4777 592 L 4807 585 Q 4817 578 4806 559 Q 4795 541 4777 528 Q 4816 507 4907 493 Q 4968 484 5042 484 Q 5084 484 5131 487 L 5355 509 L 5510 528 L 5667 535 L 5697 535 L 5709 540 L 5717 548 Q 5734 559 5762 559 Q 5764 559 5767 559 L 5820 559 Q 5821 568 5805 576 L 5783 586 L 5751 593 Q 5719 597 5687 608 L 5680 615 L 5681 621 Q 5683 648 5800 664 Q 5883 678 5951 678 Q 6031 678 6091 659 L 6129 636 L 6160 605 L 6172 596 L 6188 594 L 6300 598 L 6345 604 L 6389 605 L 6401 597 L 6401 578 L 6400 547 Q 6402 530 6417 524 L 6454 519 L 6492 519 L 6634 518 L 6663 522 L 6691 521 Q 6699 516 6699 500 L 6694 475 Q 6687 454 6631 420 Q 6614 410 6564 389 Q 6520 370 6499 354 Q 6489 346 6488 334 L 6207 256 L 6168 246 L 5959 202 L 5434 114 L 5422 112 L 5412 111 L 4634 13 L 4617 12 Z M 3492 774 L 3393 791 Q 3320 807 3376 838 Q 3423 854 3476 854 L 3570 855 L 3591 846 Q 3596 839 3592 821 L 3492 774 Z M 4212 828 L 4272 854 Q 4265 880 4205 880 Q 4150 880 4126 865 Q 4125 840 4159 832 L 4212 828 Z M 4265 814 L 4110 828 Q 3992 852 4030 913 Q 4054 929 4090 934 L 4284 942 L 4341 939 Q 4373 934 4388 912 Q 4399 896 4405 854 L 4265 814 Z" fill="rgb(167,157,120)" fill-opacity="1.000"></path><path d="M 2839 112 Q 2798 122 2801 133 Q 2803 142 2834 147 Q 2862 152 2881 152 Q 2919 152 2919 132 L 2839 112 Z M 5051 126 Q 5023 126 5010 136 Q 5017 151 5057 154 L 5111 150 L 5111 139 L 5051 126 Z M 2840 55 L 2803 57 L 2700 64 L 2409 94 L 2352 105 L 2332 109 L 2332 110 L 2331 111 L 2386 114 L 2437 124 L 2351 142 Q 2285 162 2291 193 Q 2294 210 2374 210 L 2474 206 L 2589 204 L 2655 205 Q 2704 204 2721 193 L 2735 178 L 2738 159 L 2764 129 L 2840 56 L 2840 55 Z M 5123 178 Q 5074 178 5076 199 Q 5077 214 5111 214 Q 5126 214 5149 211 Q 5154 203 5151 192 L 5145 179 Q 5133 178 5123 178 Z M 4384 0 L 4008 15 L 3998 16 L 3979 18 L 3925 23 L 3917 24 L 3908 25 L 3831 33 L 3798 36 L 3755 40 Q 3740 45 3731 59 Q 3729 62 3730 71 L 3727 86 Q 3719 99 3677 106 L 3627 113 L 3535 135 Q 3465 161 3478 198 Q 3485 217 3558 217 Q 3562 217 3565 217 L 3663 212 L 3818 184 L 3976 172 Q 3995 174 4007 187 L 4031 206 L 4067 208 L 4101 206 L 4192 205 Q 4201 180 4165 155 Q 4128 130 4132 114 L 4350 94 L 4364 93 L 4600 93 L 4657 84 Q 4691 71 4673 47 Q 4660 29 4628 13 L 4617 10 L 4600 9 L 4387 0 Z M 4918 179 L 4884 185 Q 4861 191 4865 206 Q 4870 224 4942 224 L 5031 218 L 5031 179 Z M 2722 206 Q 2699 206 2671 219 Q 2634 236 2647 258 Q 2696 264 2733 264 Q 2817 264 2832 232 L 2725 206 Q 2723 206 2722 206 Z M 5923 277 Q 5895 277 5883 286 Q 5898 297 5935 297 Q 5938 297 5941 297 L 6003 291 Q 6008 286 6005 279 L 5965 279 L 5923 277 Z M 2259 266 L 2201 273 Q 2163 281 2158 303 L 2285 310 Q 2387 308 2392 286 L 2259 266 Z M 6111 279 L 6107 286 Q 6202 336 6262 336 Q 6279 336 6294 332 Q 6292 314 6259 308 L 6211 306 L 6111 279 Z M 5318 226 L 5236 232 Q 5218 235 5206 246 Q 5203 249 5205 258 L 5204 270 Q 5196 278 5115 287 Q 5045 295 5044 319 Q 5043 350 5124 356 L 5231 358 L 5321 365 L 5409 357 Q 5430 349 5431 340 Q 5428 327 5432 313 L 5508 314 Q 5513 314 5519 314 Q 5560 314 5579 300 L 5578 281 L 5543 271 L 5508 266 L 5345 246 L 5318 226 Z M 2272 352 L 2234 356 Q 2210 361 2211 378 L 2304 383 Q 2380 381 2385 366 L 2272 352 Z M 5988 324 Q 5920 325 5922 339 Q 5924 362 5987 376 L 6066 389 L 6204 385 Q 6208 373 6198 366 L 6071 326 L 5988 324 Z M 6278 372 L 6285 386 L 6271 387 L 6319 391 Q 6309 377 6278 372 Z M 3005 359 L 2973 362 Q 2956 368 2959 385 L 3018 391 Q 3021 391 3024 391 Q 3061 391 3072 379 L 3005 359 Z M 1708 226 L 1706 227 L 1693 228 L 1404 290 L 1376 320 L 1401 325 Q 1417 327 1425 332 L 1388 359 Q 1364 378 1374 398 Q 1394 400 1413 400 Q 1473 400 1529 379 Q 1559 368 1638 364 Q 1711 361 1745 343 Q 1743 328 1715 322 Q 1682 314 1675 304 L 1715 288 Q 1737 276 1725 248 L 1708 226 Z M 5991 459 Q 5972 465 5961 470 Q 5942 479 5937 490 L 5973 495 Q 5997 494 5998 479 L 5991 459 Z M 2749 506 Q 2744 506 2744 512 Q 2751 521 2772 521 Q 2774 521 2776 521 Q 2794 521 2799 512 L 2752 506 Q 2750 506 2749 506 Z M 4005 466 L 3941 475 Q 3901 480 3879 492 Q 3847 510 3856 526 Q 3865 541 3899 544 L 3999 546 L 4048 549 L 4097 545 Q 4127 534 4127 511 Q 4126 490 4105 484 L 4065 479 L 4005 466 Z M 3699 519 L 3659 524 Q 3632 529 3625 542 Q 3616 564 3645 579 Q 3670 593 3722 596 L 3800 592 L 3829 577 Q 3834 569 3832 546 L 3699 519 Z M 3945 566 L 3918 573 Q 3903 576 3897 586 Q 3911 599 3963 603 Q 3970 603 3976 603 Q 4018 603 4019 586 L 3945 566 Z M 2701 565 Q 2681 565 2671 567 Q 2621 574 2611 607 Q 2618 617 2648 617 Q 2651 617 2654 617 L 2703 614 L 2743 608 Q 2762 600 2772 580 L 2752 567 Q 2721 566 2701 566 Z M 5871 574 Q 5845 582 5832 588 Q 5809 598 5802 615 Q 5813 633 5857 633 Q 5867 633 5879 632 L 5963 621 L 6027 611 L 6091 608 L 5871 574 Z M 1559 594 L 1499 608 L 1475 620 Q 1464 628 1466 640 Q 1513 646 1544 646 Q 1591 646 1605 632 Q 1626 609 1603 599 L 1559 594 Z M 4338 619 Q 4320 619 4322 635 Q 4323 649 4341 649 Q 4348 649 4358 647 L 4359 634 L 4352 621 Q 4344 619 4338 619 Z M 2119 694 Q 2111 694 2113 699 L 2162 709 L 2212 708 L 2119 694 Z M 3485 794 L 3454 798 Q 3431 804 3431 814 Q 3431 827 3460 829 L 3499 828 L 3485 794 Z M 4212 828 L 4159 832 Q 4125 840 4126 865 Q 4150 880 4205 880 Q 4265 880 4272 854 L 4212 828 Z" fill="rgb(174,164,125)" fill-opacity="1.000"></path><path d="M 4008 15 L 3998 16 L 3979 18 L 4008 15 Z M 3798 36 L 3709 42 L 3755 40 L 3798 36 Z M 6168 244 L 6209 255 L 6207 254 L 6168 244 Z M 5259 546 Q 5265 546 5271 546 L 5331 566 Q 5318 578 5277 578 Q 5274 578 5270 578 Q 5223 576 5212 562 Q 5222 546 5259 546 Z M 909 526 Q 911 526 912 526 L 945 546 Q 926 595 838 595 Q 814 595 785 591 Q 790 564 838 543 Q 878 526 909 526 Z M 1759 592 L 1799 612 Q 1795 630 1765 635 Q 1757 636 1750 636 Q 1732 636 1724 627 Q 1733 603 1759 592 Z M 7104 632 L 7112 638 L 7118 649 Q 7116 654 7107 654 L 7094 650 Q 7096 638 7104 632 Z M 1585 566 L 1712 579 Q 1661 631 1589 651 L 1444 666 L 1385 668 L 1326 665 Q 1324 639 1375 622 L 1447 603 Q 1493 588 1585 566 Z M 4811 646 L 4871 666 Q 4856 686 4821 689 Q 4815 690 4809 690 Q 4785 690 4765 680 Q 4765 668 4782 657 Q 4797 647 4811 646 Z M 779 693 L 812 706 L 766 704 L 779 693 Z M 945 673 L 979 679 Q 984 700 951 706 Q 943 707 937 707 Q 916 707 912 692 L 929 682 L 945 673 Z M 6785 572 Q 6813 572 6846 586 L 6907 615 L 6978 648 L 6999 659 Q 7014 668 7015 676 Q 7016 688 7008 689 L 6995 693 Q 6990 698 6992 707 L 6995 722 Q 6988 722 6981 722 Q 6946 722 6921 709 L 6889 701 L 6855 699 L 6801 697 L 6747 690 Q 6733 687 6713 673 L 6680 653 L 6661 645 Q 6648 638 6647 630 Q 6645 618 6671 609 L 6701 601 Q 6757 586 6791 586 L 6781 572 Q 6783 572 6785 572 Z M 1297 692 Q 1306 694 1308 703 Q 1313 716 1299 723 L 1279 724 L 1259 718 Q 1250 712 1253 705 L 1265 692 Z M 2159 652 L 2279 686 Q 2290 733 2194 735 L 2072 726 L 2034 721 Q 2013 715 2013 698 Q 2013 658 2159 652 Z M 865 739 L 865 758 L 826 758 Q 825 747 839 739 Z M 6045 729 L 6071 746 Q 6068 758 6049 758 Q 6038 758 6022 754 Q 5983 744 6045 729 Z M 5398 732 L 5485 739 Q 5489 758 5459 761 L 5415 760 Q 5385 757 5387 742 L 5398 732 Z M 7031 709 L 7105 732 L 7112 756 Q 7111 764 7095 767 L 7059 766 Q 7037 761 7025 752 Q 7015 744 7016 729 Q 7018 713 7031 709 Z M 5793 729 L 5858 732 L 5911 766 L 5827 769 Q 5760 769 5754 753 Q 5746 730 5793 729 Z M 765 739 L 792 753 Q 798 781 749 781 Q 740 781 729 780 Q 660 775 666 747 L 765 739 Z M 2292 746 L 2359 772 Q 2349 791 2322 791 Q 2307 791 2287 785 Q 2232 769 2292 746 Z M 2819 779 Q 2829 782 2825 799 L 2788 799 Q 2760 796 2772 786 L 2819 779 Z M 6235 718 L 6299 719 L 6461 719 L 6528 759 Q 6535 789 6494 804 L 6430 812 L 6357 796 L 6314 792 Q 6230 788 6153 762 L 6140 756 Q 6136 752 6138 743 Q 6141 728 6171 723 L 6235 718 Z M 1025 733 L 1232 746 Q 1252 752 1247 784 Q 1244 802 1236 809 L 1209 819 L 1124 824 L 1038 818 Q 985 818 979 806 Q 959 769 1025 733 Z M 5361 786 L 5401 789 Q 5418 796 5415 813 L 5406 824 L 5389 823 Q 5361 822 5348 811 Q 5332 798 5361 786 Z M 6215 802 Q 6239 802 6268 802 L 6265 822 L 6193 826 Q 6131 817 6139 803 Q 6168 802 6215 802 Z M 4671 772 L 4741 786 L 4759 795 Q 4765 801 4761 814 Q 4754 838 4721 843 L 4667 843 L 4623 842 Q 4592 839 4591 821 Q 4590 799 4622 784 Q 4648 772 4671 772 Z M 5625 779 L 5677 789 Q 5710 801 5694 826 Q 5688 836 5669 843 L 5640 850 L 5543 846 L 5496 838 Q 5468 827 5474 802 Q 5479 785 5502 780 L 5541 779 Z M 3492 772 L 3592 819 Q 3596 837 3591 844 L 3570 853 L 3476 852 Q 3423 852 3376 836 Q 3320 805 3393 789 L 3492 772 Z M 2555 846 L 2589 849 Q 2588 860 2575 860 Q 2573 860 2571 860 Q 2553 857 2555 846 Z M 1285 853 L 1312 859 Q 1316 877 1293 882 L 1258 878 Q 1234 865 1251 857 L 1285 853 Z M 1131 852 Q 1135 852 1139 853 L 1212 886 L 1178 887 L 1144 885 Q 1123 880 1119 865 Q 1116 852 1131 852 Z M 2782 819 L 2835 826 L 2843 832 L 2852 836 L 2859 853 L 2867 862 L 2872 872 Q 2873 884 2859 889 L 2823 888 Q 2770 884 2748 867 Q 2727 849 2743 836 Q 2751 830 2782 819 Z M 2439 829 L 2532 862 Q 2542 865 2542 880 L 2536 895 L 2521 900 Q 2498 904 2478 904 Q 2461 904 2446 901 Q 2377 888 2382 857 Q 2385 839 2404 834 L 2439 829 Z M 4685 882 Q 4691 891 4689 899 Q 4687 908 4678 909 Q 4676 909 4674 909 Q 4667 909 4663 904 Q 4657 896 4668 892 L 4685 882 Z M 2609 876 L 2651 877 Q 2678 881 2685 896 L 2687 913 L 2683 929 L 2613 923 Q 2590 919 2583 912 Q 2564 900 2575 882 L 2609 876 Z M 4637 901 Q 4652 902 4651 915 Q 4650 930 4633 934 L 4605 936 L 4577 937 Q 4557 937 4556 926 Q 4556 916 4575 906 L 4611 902 L 4637 901 Z M 4265 812 L 4405 852 Q 4399 894 4388 910 Q 4373 932 4341 937 L 4284 940 L 4090 932 Q 4054 927 4030 911 Q 3992 850 4110 826 L 4265 812 Z M 1675 922 L 1674 940 Q 1672 945 1660 946 L 1644 942 Q 1637 937 1645 929 L 1675 922 Z M 1546 912 Q 1549 912 1552 912 L 1602 926 Q 1634 943 1624 975 L 1551 981 Q 1548 981 1546 981 Q 1504 981 1481 965 Q 1451 943 1491 925 Q 1522 912 1546 912 Z M 3411 909 Q 3425 909 3433 916 L 3470 922 Q 3492 924 3503 934 Q 3517 946 3508 967 Q 3499 986 3465 988 L 3412 986 L 3357 983 Q 3320 975 3333 949 Q 3343 930 3379 916 Q 3398 909 3412 909 Z M 3007 956 L 3074 979 L 3074 1002 L 3024 1000 Q 2987 993 2984 976 Q 2982 966 2990 960 L 3007 956 Z M 7320 831 L 7333 853 Q 7381 940 7366 1019 Q 7374 983 7369 947 Q 7361 889 7320 831 Z M 1661 972 L 1744 986 Q 1759 988 1769 999 Q 1779 1011 1777 1025 L 1713 1028 Q 1671 1026 1652 1009 Q 1639 997 1644 985 L 1650 977 Q 1652 975 1661 972 Z M 3437 1009 L 3494 1016 Q 3497 1031 3486 1035 L 3463 1036 L 3432 1037 Q 3412 1037 3403 1029 Q 3404 1020 3416 1015 L 3437 1009 Z M 2051 989 L 2077 1019 Q 2083 1037 2057 1037 Q 2050 1037 2041 1036 Q 2000 1032 1987 1020 L 1979 1011 Q 1977 1006 1981 1000 Q 1985 993 2051 989 Z M 2227 962 L 2287 979 Q 2290 1022 2246 1039 L 2205 1042 L 2164 1033 L 2135 1025 Q 2119 1017 2125 1002 Q 2128 993 2141 987 L 2162 979 Q 2211 962 2227 962 Z M 2184 1069 L 2251 1082 Q 2254 1097 2228 1098 L 2193 1093 L 2179 1087 Q 2168 1081 2170 1075 L 2176 1069 Z M 3947 1069 L 3994 1106 Q 3995 1135 3959 1138 Q 3955 1138 3951 1138 Q 3923 1138 3911 1119 Q 3900 1100 3913 1084 Q 3925 1069 3947 1069 Z M 5642 1139 L 5651 1140 L 5662 1140 L 5642 1139 Z M 7303 1129 L 7282 1144 L 7284 1143 L 7303 1129 Z M 3717 1009 L 3807 1032 Q 3808 1032 3810 1032 Q 3825 1032 3844 1042 L 3874 1067 Q 3883 1083 3868 1123 Q 3861 1144 3846 1151 L 3806 1156 L 3668 1146 Q 3620 1138 3580 1118 L 3566 1110 Q 3562 1107 3561 1098 L 3562 1084 L 3557 1070 Q 3535 1040 3586 1025 L 3651 1015 L 3717 1009 Z M 7282 1144 L 7248 1165 L 7270 1153 L 7282 1144 Z M 6211 255 L 6490 332 Q 6491 344 6501 352 Q 6522 368 6566 387 Q 6616 408 6633 418 Q 6689 452 6696 473 L 6701 498 Q 6701 514 6693 519 L 6665 520 L 6636 516 L 6494 517 L 6456 517 L 6419 522 Q 6404 528 6402 545 L 6403 576 L 6403 595 L 6391 603 L 6347 602 L 6302 596 L 6190 592 L 6174 594 L 6162 603 L 6131 634 L 6093 657 Q 6033 676 5953 676 Q 5885 676 5802 662 Q 5685 646 5683 619 L 5682 613 L 5689 606 Q 5721 595 5753 591 L 5785 584 L 5807 574 Q 5823 566 5822 557 L 5769 557 Q 5767 557 5764 557 Q 5735 557 5719 546 L 5711 538 L 5699 533 L 5669 533 L 5512 526 L 5357 507 L 5133 485 Q 5086 482 5044 482 Q 4970 482 4909 491 Q 4818 505 4779 526 Q 4797 539 4808 557 Q 4819 576 4809 583 L 4779 590 L 4682 600 Q 4622 605 4588 616 Q 4566 623 4555 636 L 4534 668 Q 4510 706 4467 719 L 4382 730 L 4346 734 L 4310 735 Q 4273 732 4285 711 Q 4296 692 4323 688 L 4323 688 L 4223 693 L 4206 692 Q 4198 693 4191 699 L 4178 716 L 4168 735 Q 4160 749 4140 758 L 4104 770 L 4056 784 Q 4026 794 4010 804 L 3979 826 L 3943 840 L 3876 843 L 3791 838 Q 3740 828 3718 799 L 3706 775 Q 3701 764 3687 760 L 3581 727 Q 3450 675 3464 604 Q 3469 576 3505 546 L 3525 526 Q 3529 512 3508 504 L 3473 495 L 3439 481 Q 3423 471 3431 455 L 3443 440 Q 3452 431 3449 424 Q 3404 409 3339 400 L 3151 472 L 2993 531 Q 2963 541 2941 552 Q 2898 573 2897 596 Q 2897 612 2905 621 L 2910 639 L 2903 656 Q 2891 670 2834 688 L 2800 693 L 2767 696 L 2712 705 Q 2691 707 2666 707 Q 2625 707 2571 702 L 2429 686 L 2397 679 Q 2401 634 2472 613 Q 2510 602 2578 590 L 2557 586 L 2536 582 Q 2544 565 2573 546 L 2616 521 L 2686 488 Q 2731 468 2755 453 Q 2783 439 2781 426 Q 2769 424 2750 424 Q 2726 424 2689 427 L 2526 439 Q 2456 446 2390 488 L 2321 537 L 2304 540 L 2286 539 L 2055 542 L 1844 549 L 1820 550 L 1794 549 Q 1793 533 1806 507 Q 1755 486 1700 486 Q 1675 486 1649 490 L 1479 527 L 1381 541 L 1282 552 L 1224 566 L 1167 585 Q 1127 598 1100 598 Q 1065 598 1054 575 Q 1043 551 1060 519 Q 1073 495 1097 475 L 1127 455 Q 1149 439 1145 429 L 1106 424 L 1060 423 Q 1063 413 1073 397 L 1079 394 L 1079 394 Q 995 430 794 548 Q 617 653 497 743 L 494 751 L 567 754 L 565 782 Q 564 801 569 808 Q 578 824 614 824 Q 622 824 631 823 L 701 811 L 816 788 L 934 780 L 934 780 Q 931 802 917 830 Q 911 849 941 864 L 976 892 L 983 902 Q 986 909 992 912 L 1009 914 L 1027 913 Q 1047 918 1091 948 Q 1155 993 1253 1004 L 1390 1017 L 1527 1033 L 1635 1054 L 1743 1072 Q 1798 1081 1831 1081 Q 1859 1081 1870 1074 L 1861 1067 Q 1870 1065 1883 1053 Q 1896 1042 1907 1039 Q 1918 1037 1930 1037 Q 1967 1037 2018 1060 Q 2147 1114 2241 1114 Q 2247 1114 2254 1114 Q 2293 1112 2344 1082 Q 2421 1036 2427 1033 L 2452 1022 L 2468 1007 L 2475 987 L 2482 966 Q 2498 945 2514 943 Q 2516 943 2519 943 Q 2532 943 2553 951 L 2631 985 Q 2664 997 2689 997 Q 2702 997 2713 994 Q 2731 989 2740 969 L 2754 933 L 2763 917 Q 2766 913 2780 912 Q 2781 912 2781 912 Q 2800 912 2840 944 L 2893 989 Q 2996 1064 3074 1094 Q 3126 1113 3220 1115 L 3366 1124 L 3469 1154 L 3572 1185 Q 3657 1206 3759 1212 L 3801 1216 L 3843 1211 L 3861 1201 L 3880 1193 L 3945 1190 L 4009 1193 L 4045 1196 L 4081 1193 L 4130 1158 Q 4159 1134 4185 1128 L 4248 1117 Q 4296 1106 4290 1085 Q 4300 1064 4352 1064 L 4426 1067 L 4475 1053 L 4525 1039 L 4649 1022 Q 4713 1003 4739 947 L 4762 904 Q 4778 881 4798 872 Q 4833 855 4914 853 L 5155 868 L 5395 900 L 5479 915 L 5499 928 L 5556 925 L 5860 919 L 5999 917 Q 6086 912 6132 887 Q 6165 868 6180 864 L 6237 860 L 6432 882 Q 6504 892 6559 892 Q 6598 892 6627 887 L 6625 824 L 6618 805 L 6600 769 Q 6590 747 6594 735 L 6594 735 L 6706 773 Q 6778 802 6820 807 L 6866 805 L 6914 808 L 6990 830 Q 6998 833 7022 852 Q 7045 870 7053 872 L 7071 870 L 7086 860 L 7123 841 Q 7136 828 7133 800 L 7133 800 L 7166 810 L 7198 820 L 7232 819 Q 7236 806 7233 784 Q 7214 732 7184 692 L 7181 688 L 7207 707 L 7087 619 L 7039 621 Q 6903 614 6851 572 Q 6834 558 6820 537 Q 6802 510 6808 493 Q 6813 480 6852 475 L 6838 468 L 6647 387 Q 6571 353 6333 287 L 6211 256 Z M 1865 1293 L 1892 1296 L 1869 1293 Z M 3033 1308 Q 3011 1308 2988 1309 L 2972 1310 Q 3002 1308 3031 1308 Q 3068 1308 3104 1311 L 3098 1310 Q 3066 1308 3033 1308 Z M 2917 1314 L 2849 1321 L 2812 1326 L 2917 1314 Z" fill="url(#:0)"></path><path d="M 229 982 Q 227 982 225 982 L 225 982 L 231 982 Q 230 982 229 982 Z M 225 982 L 192 983 Q 182 986 164 996 L 136 1009 L 97 1018 Q 78 1025 80 1047 L 110 1032 Q 112 1032 114 1032 Q 125 1032 142 1023 L 173 1008 L 203 991 Q 215 983 225 982 Z M 35 1047 Q 22 1049 16 1057 L 30 1057 L 35 1047 Z M 7687 1021 Q 7684 1021 7680 1022 L 7685 1027 Q 7686 1046 7662 1056 L 7627 1063 L 7660 1065 L 7695 1059 Q 7705 1050 7700 1034 Q 7697 1021 7687 1021 Z M 70 1072 Q 64 1080 66 1087 L 105 1087 L 105 1072 Z M 7583 1097 Q 7576 1097 7573 1102 L 7606 1109 L 7640 1107 L 7585 1097 Q 7584 1097 7583 1097 Z M 35 1087 L 0 1092 Q -2 1103 8 1109 Q 15 1114 23 1114 Q 26 1114 28 1114 Q 18 1108 21 1100 Q 25 1092 35 1088 Z M 7480 1128 Q 7472 1135 7470 1146 Q 7475 1149 7481 1149 Q 7488 1149 7495 1143 L 7480 1128 Z M 7387 1143 Q 7371 1145 7368 1159 L 7394 1166 L 7422 1164 L 7432 1156 L 7440 1143 Z M 286 987 Q 240 1007 216 1020 Q 171 1047 169 1048 Q 135 1072 141 1088 L 194 1091 L 195 1093 L 164 1100 L 144 1104 L 235 1113 L 305 1133 L 366 1141 L 426 1148 L 475 1158 L 500 1169 L 516 1165 Q 522 1161 527 1160 L 518 1158 L 323 1100 L 321 1099 L 319 1098 L 316 1096 L 312 1093 L 298 1091 Q 251 1080 264 1034 Q 269 1015 286 987 Z M 87 1105 Q 77 1130 135 1145 L 211 1160 Q 300 1183 380 1183 L 355 1173 Q 325 1159 278 1152 L 200 1140 L 139 1130 Q 96 1122 87 1105 Z M 400 1183 Q 403 1195 425 1195 Q 433 1195 444 1193 L 440 1188 L 400 1183 Z M 701 1182 Q 733 1182 725 1203 L 696 1206 L 666 1208 L 643 1201 L 631 1198 Q 646 1186 689 1183 Q 695 1182 701 1182 Z M 5652 1182 Q 5649 1182 5646 1183 L 5631 1193 L 5621 1194 Q 5616 1214 5651 1214 Q 5657 1214 5665 1213 L 5665 1190 Q 5662 1182 5652 1182 Z M 5736 1202 Q 5733 1202 5730 1202 L 5715 1202 Q 5702 1213 5722 1216 L 5749 1217 Q 5752 1202 5736 1202 Z M 460 1207 L 470 1218 L 485 1217 L 460 1207 Z M 354 1207 L 344 1218 L 361 1224 L 380 1217 L 370 1207 Z M 5915 1207 Q 5897 1213 5896 1227 L 5934 1227 L 5935 1212 L 5915 1207 Z M 6814 1215 L 6769 1219 Q 6782 1227 6813 1227 Q 6819 1227 6826 1227 L 6890 1222 L 6860 1217 L 6814 1215 Z M 5297 1182 Q 5282 1182 5268 1190 Q 5250 1201 5260 1218 Q 5267 1230 5298 1230 Q 5313 1230 5333 1227 L 5334 1201 Q 5330 1187 5318 1187 Q 5316 1187 5315 1187 Q 5314 1187 5296 1200 Q 5290 1204 5286 1204 Q 5280 1204 5275 1197 L 5300 1182 Q 5298 1182 5297 1182 Z M 6140 1206 L 6096 1213 L 6406 1225 Q 6513 1232 6595 1232 Q 6664 1232 6715 1227 L 6400 1212 L 6346 1210 L 6292 1207 L 6185 1208 L 6140 1206 Z M 673 1244 Q 674 1255 682 1258 L 702 1262 L 825 1267 L 760 1247 L 724 1248 L 673 1244 Z M 935 1248 L 866 1256 L 936 1259 L 1126 1268 L 1206 1267 L 1242 1268 L 1209 1264 L 1096 1252 L 1051 1251 L 1006 1252 L 935 1248 Z M 1035 1272 L 1022 1279 L 1043 1283 L 1065 1282 L 1035 1272 Z M 1300 1262 L 1264 1269 L 1291 1273 L 1380 1291 L 1399 1295 L 1300 1262 Z M 4770 1282 L 4769 1297 L 4797 1302 L 4820 1297 L 4770 1282 Z M 4715 1277 Q 4696 1277 4686 1288 Q 4675 1300 4681 1317 L 4730 1318 Q 4739 1313 4741 1300 Q 4744 1287 4735 1282 L 4715 1277 Z M 1575 1337 L 1550 1342 L 1565 1343 L 1575 1337 Z M 1226 1292 L 1246 1297 L 1424 1344 L 1469 1354 L 1515 1357 L 1355 1307 L 1291 1303 L 1226 1292 Z M 1697 1348 Q 1705 1361 1735 1366 L 1778 1368 L 2030 1367 L 1970 1357 L 1758 1357 L 1697 1348 Z M 2130 1362 L 2065 1367 Q 2061 1366 2057 1366 Q 2046 1366 2040 1376 L 2095 1386 Q 2097 1386 2098 1386 Q 2137 1386 2130 1362 Z M 3115 1342 Q 3136 1343 3149 1349 Q 3190 1367 3161 1382 L 3124 1389 L 3086 1381 L 3067 1367 L 3060 1343 L 3054 1342 Z M 2216 1397 L 2345 1402 L 2335 1397 Z M 3860 1397 L 3845 1402 L 3840 1406 L 3841 1412 L 3860 1412 L 3860 1397 Z M 3680 1402 Q 3660 1403 3652 1415 L 3685 1417 Q 3688 1410 3680 1402 Z M 2832 1369 Q 2793 1369 2785 1382 L 2470 1417 L 2713 1401 L 2839 1382 L 2921 1384 Q 2937 1386 2988 1406 Q 3017 1418 3040 1418 Q 3049 1418 3057 1416 L 3032 1409 L 3009 1398 L 2993 1381 Q 2986 1374 2972 1372 L 2929 1371 L 2885 1372 L 2832 1369 Z M 7367 947 Q 7372 983 7364 1019 L 7363 1024 L 7361 1032 L 7357 1045 L 7354 1053 L 7326 1103 L 7301 1129 L 7268 1153 L 7246 1165 L 7151 1186 L 6631 1163 Q 6419 1155 6314 1155 Q 6293 1155 6276 1155 L 6136 1154 L 6109 1154 L 6117 1152 L 6087 1152 L 5959 1132 L 5813 1109 L 5620 1070 L 5529 1070 L 5395 1106 L 5261 1147 L 5155 1148 L 5086 1156 L 5016 1167 L 4976 1183 L 4913 1192 L 4846 1192 L 4783 1188 L 4690 1187 L 4665 1192 L 4618 1192 Q 4554 1198 4519 1220 L 4466 1256 Q 4436 1275 4407 1279 L 4305 1300 L 4202 1312 L 4087 1319 L 4038 1329 L 3991 1345 Q 3967 1351 3925 1351 Q 3886 1351 3831 1346 L 3683 1334 Q 3631 1330 3588 1330 Q 3559 1330 3534 1332 L 3458 1338 L 3232 1321 L 3145 1314 L 3140 1313 L 3119 1311 L 3102 1310 Q 3066 1307 3029 1307 Q 3000 1307 2970 1309 L 2927 1312 L 2915 1313 L 2810 1325 L 2718 1334 L 2687 1336 Q 2604 1342 2500 1342 Q 2442 1342 2377 1340 L 2108 1322 L 1890 1295 L 1863 1292 L 1725 1275 L 1677 1269 L 1349 1227 L 1245 1213 L 752 1182 L 587 1167 L 587 1167 Q 599 1177 595 1197 L 555 1203 L 538 1194 L 521 1188 L 521 1188 Q 525 1209 587 1216 L 612 1214 L 624 1204 L 646 1216 L 681 1224 Q 703 1229 726 1229 Q 751 1229 778 1223 L 792 1219 L 1016 1222 L 1137 1234 L 1257 1251 L 1321 1254 L 1385 1263 L 1455 1278 Q 1479 1283 1510 1299 L 1547 1307 L 1684 1307 L 1735 1315 L 1786 1326 L 1894 1332 L 2003 1332 L 2103 1348 L 2204 1363 L 2244 1365 L 2284 1367 L 2358 1364 L 2431 1362 L 2476 1373 L 2529 1377 L 2569 1378 L 2607 1371 L 2667 1364 L 2767 1347 L 2930 1337 L 3005 1340 L 3050 1342 L 3041 1343 Q 3026 1396 3107 1408 L 3221 1404 L 3254 1388 L 3284 1371 L 3326 1367 Q 3353 1370 3345 1392 L 3303 1391 L 3261 1388 L 3261 1388 Q 3257 1411 3331 1418 Q 3358 1420 3382 1420 Q 3406 1420 3428 1418 Q 3464 1414 3525 1384 L 3579 1361 L 3586 1359 L 3626 1358 L 3650 1366 L 3676 1373 L 3787 1382 Q 3810 1383 3834 1383 Q 3878 1383 3929 1379 L 3948 1379 L 3961 1387 L 3961 1394 L 3961 1401 L 3974 1407 L 3988 1408 L 4056 1407 L 4127 1412 L 4198 1417 L 4253 1413 L 4307 1402 Q 4322 1399 4339 1388 Q 4358 1376 4371 1373 L 4426 1370 Q 4428 1370 4430 1370 Q 4459 1370 4477 1357 Q 4507 1337 4526 1332 L 4577 1326 Q 4612 1321 4620 1309 Q 4609 1305 4609 1294 Q 4608 1284 4615 1276 Q 4625 1264 4660 1261 L 4709 1258 L 4827 1257 L 4898 1253 L 4970 1247 L 5023 1248 L 5075 1238 L 5116 1228 L 5160 1227 L 5182 1229 L 5203 1227 L 5219 1204 Q 5234 1190 5262 1183 L 5310 1173 L 5356 1174 L 5445 1179 L 5467 1182 L 5490 1182 L 5491 1173 L 5565 1157 L 5515 1157 L 5490 1160 L 5489 1158 L 5487 1142 L 5490 1142 L 5499 1141 L 5510 1141 L 5549 1140 L 5640 1139 L 5660 1140 L 5649 1140 L 5565 1157 L 5635 1157 L 5749 1175 L 5864 1192 L 5939 1192 L 5981 1183 L 6025 1177 L 6150 1177 L 6378 1182 L 6421 1182 L 6441 1189 L 6463 1193 L 6593 1192 L 6666 1194 L 6739 1204 L 6789 1207 Q 6809 1206 6834 1192 L 6882 1196 L 6989 1207 L 7131 1217 L 7179 1218 Q 7204 1216 7220 1199 L 7239 1182 L 7264 1176 L 7281 1177 L 7301 1178 Q 7322 1175 7347 1153 Q 7376 1128 7391 1123 L 7449 1118 Q 7494 1113 7495 1099 Q 7496 1085 7481 1081 L 7456 1074 L 7514 1068 L 7579 1054 L 7642 1032 L 7608 1024 L 7572 1019 L 7520 1006 L 7485 994 L 7450 988 L 7450 1006 L 7440 1018 L 7422 1019 L 7405 1017 L 7387 1000 Q 7380 987 7384 977 Q 7389 967 7403 967 L 7426 963 Q 7420 954 7407 954 L 7384 953 L 7367 947 Z M 3650 1393 L 3570 1397 L 3554 1401 L 3541 1409 L 3506 1416 L 3471 1419 L 3505 1425 L 3541 1422 L 3607 1402 L 3650 1393 Z M 3895 1402 L 3895 1412 Q 3904 1418 3900 1437 L 3866 1434 L 3866 1434 Q 3862 1447 3878 1449 L 3902 1446 Q 3913 1440 3915 1427 L 3915 1403 L 3895 1402 Z" fill="rgb(255,255,255)" fill-opacity="0.200"></path></g></g></g></g></g></g><defs><defs></defs><radialGradient r="1" cx="0" cy="0" gradientUnits="userSpaceOnUse" gradientTransform="matrix(3828.5 0 0 -1595.5 3654 -41)" id=":0"><stop offset="0" stop-color="rgb(169,159,122)" stop-opacity="1.000"></stop><stop offset="1" stop-color="rgb(159,148,114)" stop-opacity="1.000"></stop></radialGradient></defs></svg>