<svg color-interpolation-filters="sRGB" fill-rule="evenodd" pointer-events="none" width="100%" height="100%" xmlns="http://www.w3.org/2000/svg" xmlns:xlink="http://www.w3.org/1999/xlink" style="-webkit-user-select: none;"><g transform="matrix(0.04982989793876326 0 0 0.04982989793876326 3.519611767060269 0)"><g><rect x="-70.63253012048257" y="0" width="43287.26506024096" height="4997" fill="rgb(255,255,255)"></rect><g><g><g><path d="M 21573 0 Q 17184 0 13176 196 Q 9304 386 6318 732 Q 3333 1078 1695 1526 Q 0 1991 0 2499 Q 0 3007 1695 3472 Q 3333 3920 6318 4266 Q 9304 4611 13176 4801 Q 17184 4997 21573 4997 Q 25962 4997 29970 4801 Q 33842 4611 36828 4266 Q 39813 3920 41451 3472 Q 43146 3007 43146 2499 Q 43146 1991 41451 1526 Q 39813 1078 36828 732 Q 33842 386 29970 196 Q 25961 0 21573 0 Z" fill="url(#:0)"></path></g></g></g></g></g><defs><defs></defs><radialGradient r="1" cx="0" cy="0" gradientUnits="userSpaceOnUse" gradientTransform="matrix(21575.5 0 0 -2498 21573 2499)" id=":0"><stop offset="0" stop-color="rgb(0,0,0)" stop-opacity="0.349"></stop><stop offset="1" stop-color="rgb(0,0,0)" stop-opacity="0.000"></stop></radialGradient></defs></svg>