<svg color-interpolation-filters="sRGB" fill-rule="evenodd" pointer-events="none" width="100%" height="100%" xmlns="http://www.w3.org/2000/svg" xmlns:xlink="http://www.w3.org/1999/xlink" style="-webkit-user-select: none;"><g transform="matrix(0.04928664072632945 0 0 0.04928664072632945 1.6063553826199666 0)"><g><rect x="-32.59210526315774" y="0" width="5620.184210526315" height="770.9999999999999" fill="rgb(255,255,255)"></rect><g><g><g><g><path d="M 3016 0 L 3016 5 L 3016 5 Q 3016 3 3016 0 Z M 2919 145 Q 2906 157 2891 161 L 2858 162 L 2834 163 Q 2814 162 2816 153 L 2867 145 Z M 2936 138 L 2971 139 Q 2988 143 2977 144 L 3015 142 Q 3050 142 3049 154 Q 3048 175 3022 175 Q 3010 175 2994 171 Q 2936 156 2966 144 L 2936 138 Z M 1142 173 L 1163 180 Q 1162 191 1148 191 Q 1143 191 1136 189 Q 1108 182 1119 176 L 1142 173 Z M 3917 168 Q 3968 170 3963 189 L 3871 192 Q 3850 192 3857 175 L 3917 168 Z M 1080 186 Q 1050 199 1021 199 Q 1010 199 998 197 Q 974 195 1018 188 L 1080 186 Z M 2250 173 L 2499 190 Q 2467 205 2399 205 Q 2391 205 2383 205 L 2291 199 L 2273 198 L 2268 197 L 2229 191 Q 2212 180 2250 173 Z M 1956 185 L 2019 187 Q 2012 210 1993 210 Q 1989 210 1984 209 Q 1966 211 1949 211 Q 1932 211 1915 209 Q 1908 190 1957 185 Z M 3383 153 Q 3399 153 3443 167 L 3489 165 L 3520 188 L 3546 213 Q 3546 217 3447 217 Q 3377 217 3256 215 Q 3226 215 3236 198 Q 3246 180 3272 178 L 3337 173 L 3402 170 L 3378 153 Q 3380 153 3383 153 Z M 1074 210 Q 1090 210 1102 217 L 1078 222 Q 1066 222 1063 218 L 1062 211 L 1063 211 Q 1069 210 1074 210 Z M 3013 206 L 3011 218 L 2973 224 L 2933 218 L 2931 218 Q 2916 207 2969 206 Z M 1283 189 Q 1315 189 1328 203 L 1245 227 Q 1220 233 1198 233 Q 1168 233 1144 221 L 1143 221 Q 1135 215 1168 209 L 1215 207 Q 1213 195 1261 190 Q 1273 189 1283 189 Z M 4503 232 Q 4508 232 4513 232 L 4547 236 L 4482 238 Q 4484 232 4503 232 Z M 2702 248 Q 2705 248 2709 249 L 2726 254 L 2691 256 Q 2692 248 2702 248 Z M 228 281 Q 228 281 228 281 L 228 281 L 228 281 L 228 281 L 228 281 Z M 1471 274 Q 1479 274 1476 286 L 1475 288 L 1448 288 Q 1447 280 1465 275 Q 1469 274 1471 274 Z M 4788 271 Q 4791 271 4793 271 Q 4829 272 4836 280 L 4834 286 Q 4828 292 4810 292 Q 4806 292 4800 292 Q 4773 289 4756 282 Q 4757 271 4788 271 Z M 4349 285 L 4400 293 L 4339 287 L 4349 285 Z M 957 272 L 1004 274 Q 1029 280 1041 295 L 986 302 L 960 304 Q 962 287 957 272 Z M 486 274 Q 469 286 460 306 L 423 305 Q 416 303 439 291 Q 462 277 486 274 Z M 4713 294 Q 4717 294 4722 294 Q 4747 296 4744 306 L 4698 301 Q 4696 294 4713 294 Z M 209 292 L 211 298 Q 214 307 225 309 L 228 307 L 224 305 L 209 292 Z M 4780 305 Q 4782 305 4785 305 L 4819 309 Q 4815 315 4809 315 Q 4806 315 4803 314 L 4754 313 Q 4758 305 4780 305 Z M 1432 310 Q 1435 310 1439 310 Q 1474 311 1471 320 L 1465 321 L 1465 321 L 1470 321 Q 1464 322 1462 322 Q 1461 322 1464 321 L 1465 321 L 1465 321 L 1401 318 Q 1403 310 1432 310 Z M 3265 312 L 3332 328 L 3172 332 L 3233 317 L 3265 312 Z M 3624 297 L 3665 300 L 3706 309 Q 3706 334 3668 334 L 3610 329 Q 3564 328 3579 318 Q 3588 312 3624 297 Z M 4934 284 L 4974 298 Q 5009 310 5014 317 Q 5030 337 4945 337 Q 4921 337 4890 335 Q 4883 337 4876 337 Q 4858 337 4843 325 Q 4838 303 4883 303 Q 4885 303 4887 303 Q 4891 303 4895 303 Q 4936 303 4934 284 Z M 3814 345 Q 3815 345 3817 346 L 3826 359 L 3804 357 Q 3809 345 3814 345 Z M 1924 300 L 1943 317 Q 1946 321 1949 321 Q 1955 321 1963 309 L 1975 333 Q 1979 342 1999 342 Q 2001 342 2003 342 L 2003 342 Q 2012 366 1910 371 Q 1892 372 1877 372 Q 1817 372 1799 356 L 1794 349 L 1839 328 L 1884 329 Q 1893 315 1881 304 L 1881 304 L 1917 325 Q 1929 315 1924 300 Z M 2389 297 Q 2400 301 2411 313 Q 2420 322 2439 322 L 2524 344 Q 2595 365 2591 368 L 2433 372 Q 2287 365 2285 354 Q 2282 340 2309 328 Q 2330 319 2343 319 Q 2344 319 2345 319 Q 2335 318 2329 309 L 2329 309 L 2390 323 Q 2384 311 2389 297 Z M 2109 373 Q 2125 373 2122 389 Q 2116 391 2111 391 Q 2101 391 2092 384 Q 2089 373 2107 373 Q 2108 373 2109 373 Z M 5177 402 L 5173 408 L 5175 419 L 5252 428 L 5205 424 L 5177 425 Q 5157 425 5153 414 Q 5161 405 5177 402 Z M 1145 411 Q 1181 411 1197 421 Q 1184 433 1133 434 L 1074 428 L 1075 429 L 1073 428 L 1067 425 Q 1090 414 1132 411 Q 1139 411 1145 411 Z M 1506 386 Q 1520 395 1518 411 Q 1526 399 1533 399 Q 1543 399 1554 420 Q 1551 433 1502 434 L 1442 426 L 1484 418 L 1468 391 L 1497 405 L 1506 386 Z M 726 421 L 764 425 Q 759 433 737 435 L 708 431 L 707 431 L 706 430 Q 698 422 726 421 Z M 4715 401 Q 4761 401 4824 414 Q 4827 437 4781 438 L 4722 434 L 4679 431 Q 4648 427 4646 412 Q 4673 401 4715 401 Z M 5535 439 L 5536 440 L 5536 439 Z M 664 421 L 571 437 L 494 441 L 500 432 L 534 435 L 664 421 Z M 2221 417 Q 2233 417 2247 417 Q 2337 420 2338 435 Q 2339 449 2279 449 Q 2268 449 2256 449 L 2168 442 Q 2165 443 2163 443 Q 2152 443 2152 431 Q 2157 418 2221 418 Z M 5526 453 L 5541 455 L 5541 454 L 5526 453 Z M 3447 433 L 3458 444 L 3458 475 L 3447 433 Z M 4173 458 L 4271 462 L 4284 473 Q 4277 482 4257 482 Q 4255 482 4253 482 L 4220 477 L 4192 474 Q 4172 469 4173 458 Z M 1844 462 Q 1850 462 1854 463 Q 1876 473 1767 486 L 1752 486 L 1793 472 Q 1825 462 1844 462 Z M 306 425 Q 318 425 328 427 L 301 441 Q 289 447 301 447 Q 307 447 317 446 L 317 446 L 284 457 Q 264 465 265 482 L 265 483 Q 248 490 231 490 Q 213 490 196 482 Q 256 442 238 442 Q 237 442 235 442 Q 247 431 280 427 Q 295 425 307 425 Z M 676 469 Q 680 485 672 490 L 651 493 L 646 492 L 650 486 Q 659 473 676 469 Z M 5113 447 Q 5124 454 5126 467 L 5172 466 Q 5192 476 5206 476 Q 5214 476 5221 473 L 5221 473 L 5208 493 L 5204 493 L 5125 484 L 5108 472 Q 5103 469 5099 469 Q 5093 469 5091 478 L 5020 469 L 5102 468 Q 5095 453 5084 448 L 5113 447 Z M 5528 456 L 5529 458 L 5548 493 Q 5540 471 5528 456 Z M 3768 455 Q 3739 485 3707 494 L 3633 490 L 3631 484 Q 3632 473 3687 463 L 3768 455 Z M 5546 490 L 5548 494 L 5548 493 L 5546 490 Z M 3861 485 L 3866 499 L 3867 503 L 3864 503 L 3861 485 Z M 5545 507 L 5549 513 L 5551 511 L 5549 507 Z M 1801 495 Q 1818 495 1819 515 L 1794 513 L 1793 496 Q 1797 495 1801 495 Z M 1769 496 Q 1774 514 1749 519 L 1718 520 L 1713 519 Q 1685 515 1719 505 L 1769 496 Z M 3030 509 Q 3033 509 3037 510 Q 3050 515 3046 522 L 3014 518 Q 3020 509 3030 509 Z M 4781 477 Q 4786 491 4776 500 Q 4779 498 4783 498 Q 4788 498 4792 503 Q 4802 515 4816 515 L 4768 523 Q 4757 501 4701 493 L 4623 487 L 4713 488 L 4781 477 Z M 3489 496 L 3495 533 L 3489 523 L 3489 496 Z M 2215 472 Q 2248 472 2259 493 Q 2281 533 2132 533 Q 2118 533 2104 533 L 2095 532 L 2095 529 Q 2090 501 2163 481 Q 2193 472 2215 472 Z M 2292 537 Q 2313 542 2330 552 L 2295 553 L 2292 537 Z M 203 540 L 207 551 L 197 556 L 203 540 Z M 1503 533 Q 1526 533 1522 556 Q 1516 557 1512 557 Q 1497 557 1497 549 L 1503 533 Z M 5190 562 L 5191 563 L 5187 563 L 5190 562 Z M 1449 518 Q 1452 518 1453 519 Q 1456 519 1459 519 Q 1482 519 1463 541 Q 1441 566 1417 566 L 1415 566 L 1374 559 Q 1360 551 1402 533 Q 1436 518 1449 518 Z M 2895 507 L 2902 508 L 2930 522 L 2969 543 Q 2962 569 2908 569 Q 2890 569 2868 566 Q 2775 555 2782 538 Q 2786 529 2800 529 Q 2806 529 2813 530 Q 2822 532 2829 532 Q 2843 532 2847 525 L 2832 523 L 2865 523 L 2902 528 L 2895 507 Z M 1173 555 L 1216 559 L 1211 566 Q 1206 570 1196 570 Q 1187 570 1173 567 L 1166 565 L 1163 564 L 1162 563 L 1160 562 Q 1150 557 1173 556 Z M 127 597 L 129 602 L 132 602 L 127 597 Z M 1439 587 Q 1452 590 1446 603 Q 1443 604 1440 604 Q 1431 604 1425 597 Q 1416 588 1439 587 Z M 5419 602 Q 5419 603 5419 604 L 5419 604 L 5419 602 Z M 3528 514 L 3533 547 Q 3548 536 3565 536 Q 3569 536 3572 537 L 3582 543 Q 3573 553 3572 567 Q 3573 554 3586 548 L 3595 556 L 3596 568 L 3602 575 L 3582 592 Q 3557 608 3548 608 Q 3548 569 3539 558 L 3537 559 Q 3535 560 3533 560 Q 3530 560 3531 554 L 3531 554 L 3521 592 L 3500 547 Q 3493 528 3528 514 Z M 3020 604 L 3017 611 L 3012 607 L 3020 604 Z M 111 603 L 98 608 L 97 611 L 96 613 Q 102 609 111 604 L 111 603 Z M 2282 584 L 2290 625 Q 2267 625 2257 613 Q 2252 607 2246 585 L 2252 585 L 2265 584 Z M 3877 627 L 3881 628 L 3879 627 Z M 5264 615 Q 5263 615 5263 615 L 5275 619 L 5300 631 Q 5273 615 5264 615 Z M 789 597 L 789 632 L 794 632 L 789 597 Z M 163 629 L 160 632 L 162 633 L 163 629 Z M 1749 618 Q 1753 618 1757 629 L 1738 633 L 1745 620 Q 1747 618 1749 618 Z M 5038 588 L 5038 588 Q 5047 606 5049 633 L 5079 634 L 5084 632 L 5108 627 L 5102 615 L 5139 630 L 5152 628 L 5156 628 L 5159 623 L 5153 619 Q 5118 597 5107 596 Q 5093 596 5083 624 Q 5056 611 5038 588 Z M 5383 630 L 5383 634 L 5386 634 L 5383 630 Z M 4732 620 L 4736 638 L 4724 627 L 4724 627 Q 4725 627 4726 627 Q 4731 627 4732 620 Z M 294 626 L 291 638 L 292 639 L 294 626 Z M 5419 604 L 5415 629 L 5404 606 L 5408 617 L 5415 641 L 5416 641 Q 5414 625 5425 625 L 5426 624 Q 5418 613 5419 604 Z M 768 590 Q 763 590 750 603 L 717 639 L 710 646 L 717 642 Q 741 631 751 631 L 785 598 L 785 598 Q 779 603 775 603 Q 771 603 771 596 Q 771 590 768 590 Z M 2199 601 L 2199 601 Q 2243 613 2224 650 L 2218 638 L 2214 623 L 2201 614 Q 2193 605 2199 601 Z M 206 629 L 205 654 L 206 654 L 206 629 Z M 2183 590 L 2198 620 Q 2216 661 2199 661 Q 2196 661 2192 660 L 2189 659 Q 2175 653 2172 617 L 2171 592 L 2183 590 Z M 424 621 Q 416 644 399 664 L 402 666 Q 415 657 426 653 L 424 621 Z M 2429 664 L 2425 667 L 2426 667 L 2433 670 L 2429 664 Z M 1495 657 Q 1482 658 1457 674 Q 1476 663 1492 662 L 1495 657 Z M 2455 641 Q 2451 651 2460 672 L 2461 674 L 2465 674 L 2473 671 L 2479 669 L 2481 667 Q 2449 654 2455 654 Q 2459 654 2485 661 L 2455 641 Z M 2487 628 Q 2487 628 2486 628 Q 2483 643 2485 661 L 2496 669 L 2506 675 L 2506 666 Q 2506 628 2487 628 Z M 1946 638 Q 1940 638 1908 655 Q 1872 676 1863 676 Q 1863 676 1862 676 L 1862 676 Q 1865 676 1868 676 Q 1886 676 1905 661 L 1945 661 L 1947 638 Q 1947 638 1946 638 Z M 2716 608 L 2733 615 Q 2750 622 2770 656 L 2781 666 L 2790 684 L 2733 631 L 2716 608 Z M 4870 612 Q 4866 612 4863 613 L 4882 662 L 4886 659 L 4885 653 Q 4886 653 4888 653 Q 4894 653 4904 659 L 4904 658 Q 4904 647 4916 647 L 4938 666 Q 4961 684 4970 684 L 4975 684 L 4934 646 Q 4892 612 4870 612 Z M 2093 673 Q 2085 673 2086 681 L 2087 686 L 2088 686 L 2090 678 L 2107 676 Q 2098 673 2093 673 Z M 2532 615 Q 2526 628 2526 665 L 2524 686 L 2526 687 L 2539 687 Q 2539 650 2532 615 Z M 2083 613 L 2076 677 L 2075 680 L 2075 684 Q 2080 664 2105 661 Q 2109 660 2113 660 Q 2141 660 2155 691 Q 2140 656 2093 615 L 2083 613 Z M 1343 657 L 1321 696 L 1339 691 L 1340 689 L 1347 688 L 1343 657 Z M 1507 698 L 1506 702 L 1507 702 L 1507 698 Z M 1945 669 L 1936 702 L 1936 703 L 1938 704 L 1947 701 L 1954 696 L 1954 696 Q 1947 697 1941 701 L 1945 669 Z M 314 671 Q 305 679 299 679 Q 298 679 297 679 L 287 689 L 261 705 L 278 697 L 302 682 L 314 671 Z M 1421 671 L 1421 671 Q 1422 688 1412 704 L 1412 705 L 1413 704 L 1428 696 L 1425 691 L 1434 688 L 1434 688 Q 1433 688 1433 688 Q 1423 688 1421 671 Z M 1481 685 L 1470 687 L 1469 688 Q 1482 690 1481 705 L 1483 705 Q 1487 689 1481 686 L 1480 686 L 1481 685 Z M 3293 696 L 3294 705 L 3295 705 L 3293 696 Z M 618 675 L 598 706 L 614 698 L 618 675 Z M 3236 692 L 3232 706 L 3239 706 L 3253 709 L 3236 692 Z M 3287 657 L 3272 686 L 3260 712 L 3263 713 L 3271 713 Q 3276 702 3288 702 L 3290 703 L 3293 696 L 3287 657 Z M 2988 664 L 2987 666 Q 2982 705 2970 716 Q 2961 697 2962 679 L 2966 679 L 2984 667 L 2988 664 Z M 3363 669 Q 3361 692 3345 705 Q 3342 689 3328 680 Q 3310 690 3300 709 L 3302 710 Q 3314 718 3326 718 L 3335 718 L 3342 712 L 3344 717 L 3357 712 L 3366 703 L 3384 692 Q 3374 682 3372 670 L 3363 669 Z M 1638 704 L 1633 705 L 1620 721 L 1638 704 Z M 3213 735 L 3211 736 L 3212 736 L 3213 735 Z M 1554 722 L 1560 737 L 1562 737 L 1554 722 Z M 2928 719 L 2925 722 L 2924 720 L 2918 737 L 2929 749 L 2931 752 L 2928 719 Z M 3020 9 Q 3018 26 2973 39 L 2908 55 L 2713 76 L 2628 86 Q 2618 87 2610 87 Q 2567 87 2570 69 L 2570 69 L 2439 78 L 2307 99 Q 2214 95 2159 95 Q 2148 95 2139 95 L 2074 107 Q 2061 109 2054 109 Q 2035 109 2042 97 L 2042 97 Q 2015 101 1984 114 Q 1993 109 1983 109 Q 1978 109 1967 110 L 1928 107 L 1889 116 Q 1870 120 1863 120 Q 1853 120 1865 113 Q 1836 113 1788 130 Q 1745 145 1721 148 Q 1694 167 1635 175 Q 1614 178 1598 178 Q 1564 178 1549 164 Q 1543 158 1623 153 L 1679 150 L 1560 148 L 1395 143 Q 1306 140 1242 119 Q 1241 138 1226 141 Q 1223 142 1221 142 Q 1209 142 1195 131 Q 1191 128 1150 128 Q 1089 128 945 135 L 861 147 Q 849 148 839 148 Q 803 148 800 134 L 739 164 Q 703 182 683 184 Q 671 179 672 167 L 672 167 L 647 197 Q 647 197 646 197 Q 641 197 621 175 Q 616 207 563 215 L 530 218 L 554 217 L 550 220 Q 508 239 469 239 Q 458 239 447 237 Q 446 231 455 227 L 455 227 Q 390 240 329 263 L 275 274 L 230 283 L 230 283 L 230 283 L 254 288 L 253 289 L 259 289 Q 248 294 241 294 Q 231 294 230 283 L 230 283 L 226 284 L 233 298 L 242 298 L 240 323 L 210 314 Q 201 302 204 287 L 204 287 L 209 290 L 209 290 L 203 281 L 199 318 Q 173 296 163 294 L 163 294 Q 185 335 146 363 Q 82 411 75 421 L 40 483 L 33 495 L 24 513 L 26 515 Q 27 515 28 515 Q 31 515 31 528 L 24 548 L 25 548 L 39 539 Q 42 538 46 538 Q 62 538 67 574 L 110 544 L 114 565 L 119 571 L 141 556 L 141 556 Q 136 585 145 585 Q 152 585 166 569 Q 167 582 171 587 L 177 593 L 177 601 L 181 595 L 203 603 L 206 603 L 236 605 Q 256 605 273 592 L 274 592 L 268 636 Q 281 633 302 615 Q 305 613 307 613 Q 316 613 313 641 Q 320 625 344 606 L 344 606 L 331 626 L 346 640 L 356 633 L 366 635 L 368 642 L 383 645 L 441 611 Q 443 612 445 612 Q 450 612 457 607 L 473 594 L 473 594 Q 436 632 436 651 L 451 665 L 495 621 L 495 624 L 496 620 L 496 621 L 511 635 L 513 635 L 509 655 L 501 691 L 501 692 L 511 692 Q 524 675 540 675 Q 548 667 554 665 L 565 681 L 559 659 L 546 608 L 552 602 L 558 597 L 556 612 L 556 622 Q 558 630 571 630 L 578 630 L 578 632 L 587 679 Q 589 680 591 680 Q 598 680 605 664 L 621 623 L 621 623 Q 618 673 623 673 Q 624 673 624 672 L 653 629 L 653 629 Q 645 666 655 666 Q 658 666 662 662 L 662 662 L 653 677 L 674 667 L 687 661 Q 694 640 686 640 Q 683 640 679 643 L 706 616 L 738 590 L 778 558 L 810 542 Q 813 556 817 556 Q 819 556 821 553 L 826 546 L 826 547 L 829 554 Q 817 562 808 596 L 802 628 L 808 621 Q 816 614 826 613 L 841 591 L 858 613 L 864 626 L 864 622 L 865 623 L 869 626 Q 873 629 878 629 Q 887 629 897 621 L 899 619 L 901 619 L 901 618 L 902 619 L 910 631 L 911 646 Q 912 656 916 656 L 956 637 Q 966 637 966 643 L 966 653 Q 968 659 993 666 L 1003 666 Q 1010 640 1014 638 L 1018 646 L 1022 657 Q 1025 657 1029 660 L 1054 677 L 1069 677 L 1071 672 L 1074 671 L 1084 670 L 1094 672 L 1093 670 L 1093 670 Q 1109 678 1122 690 L 1129 695 L 1132 697 L 1136 697 L 1131 680 L 1130 676 L 1147 676 L 1155 693 L 1156 693 L 1164 692 L 1190 691 L 1198 695 L 1215 698 L 1234 697 L 1248 693 L 1250 693 L 1244 700 L 1251 692 L 1271 665 L 1268 690 L 1271 696 L 1270 707 L 1271 707 L 1285 684 Q 1300 660 1307 660 Q 1314 660 1313 681 Q 1325 653 1350 638 Q 1362 654 1368 654 Q 1369 654 1370 653 L 1387 641 Q 1399 650 1403 661 Q 1424 653 1438 639 L 1512 642 Q 1518 641 1523 641 Q 1565 641 1567 678 L 1609 678 L 1656 669 L 1657 687 L 1667 677 L 1667 677 Q 1655 693 1653 713 Q 1656 694 1675 680 Q 1685 674 1696 670 L 1736 670 L 1744 668 L 1787 653 L 1782 658 L 1750 682 L 1750 686 L 1789 658 Q 1796 654 1800 654 Q 1810 654 1802 681 L 1818 640 L 1837 631 L 1837 633 L 1840 631 L 1841 642 Q 1842 648 1850 650 L 1845 654 L 1813 684 L 1843 663 Q 1855 657 1860 657 Q 1870 657 1863 677 Q 1869 662 1881 642 L 1943 611 L 1959 601 L 1979 590 L 1989 605 Q 1978 616 1983 632 L 1998 635 L 2073 613 L 2083 614 L 2083 610 L 2084 609 L 2085 609 L 2093 616 L 2098 616 Q 2115 616 2120 600 L 2129 599 Q 2147 610 2152 637 L 2155 689 Q 2155 664 2176 662 L 2223 667 L 2225 663 Q 2240 640 2249 640 Q 2249 640 2250 640 Q 2257 641 2261 658 Q 2264 670 2270 670 Q 2271 670 2273 669 L 2298 643 Q 2301 639 2306 639 Q 2315 639 2333 650 L 2350 656 Q 2384 674 2397 676 L 2297 584 L 2366 583 L 2381 597 Q 2382 589 2386 588 Q 2387 587 2388 587 Q 2393 587 2403 596 L 2406 599 L 2416 601 L 2481 610 Q 2494 610 2498 604 L 2506 585 L 2520 593 L 2536 600 L 2541 599 L 2547 604 L 2547 595 L 2549 592 L 2551 577 Q 2568 603 2580 613 L 2568 656 L 2561 680 L 2563 679 L 2587 647 L 2598 671 L 2594 654 L 2590 618 L 2615 626 Q 2628 655 2629 677 L 2632 679 L 2636 678 L 2642 680 Q 2627 651 2623 627 L 2623 627 L 2668 630 L 2692 626 L 2733 679 L 2738 684 L 2726 718 L 2727 719 L 2736 701 L 2739 728 L 2739 714 L 2740 686 Q 2778 725 2806 725 L 2811 723 L 2810 727 Q 2822 753 2816 774 L 2818 776 L 2819 776 L 2828 754 Q 2837 733 2848 725 Q 2855 706 2883 665 L 2892 652 L 2901 652 L 2898 661 L 2908 657 L 2910 664 Q 2913 670 2923 670 L 2937 666 L 2946 658 L 2950 671 L 2960 679 L 2931 753 Q 2941 763 2962 763 L 2986 759 L 2987 759 Q 3004 745 3015 739 L 3012 721 L 3011 686 L 3009 682 L 3007 655 L 3010 655 L 3011 686 L 3034 726 L 3032 722 Q 3010 679 3017 679 Q 3017 679 3018 679 L 3037 695 L 3047 718 Q 3050 719 3053 719 Q 3066 719 3084 706 L 3114 679 L 3114 679 Q 3107 716 3117 716 Q 3125 716 3142 696 L 3142 696 L 3128 720 Q 3115 741 3092 758 L 3095 758 L 3154 715 L 3156 720 L 3161 719 L 3186 722 L 3213 711 L 3227 708 L 3200 692 Q 3187 705 3178 705 Q 3173 705 3169 701 Q 3161 691 3153 691 Q 3149 691 3145 694 Q 3156 685 3210 680 Q 3258 676 3271 651 Q 3279 636 3292 636 Q 3296 636 3301 638 L 3340 645 Q 3366 637 3377 613 L 3400 570 Q 3403 584 3417 584 Q 3429 580 3423 553 Q 3421 546 3425 546 Q 3429 546 3442 558 Q 3444 542 3431 523 Q 3417 502 3416 491 L 3416 491 Q 3437 495 3448 518 Q 3462 548 3469 554 L 3471 545 L 3482 545 L 3486 563 Q 3488 575 3485 575 Q 3479 575 3459 548 L 3459 548 L 3463 583 Q 3464 607 3454 615 L 3439 573 Q 3429 579 3414 629 L 3402 666 L 3411 659 L 3413 659 L 3414 657 L 3414 659 Q 3421 661 3421 672 L 3431 651 Q 3439 636 3454 635 L 3453 633 Q 3453 625 3460 618 Q 3468 608 3484 608 Q 3485 608 3487 608 Q 3501 589 3511 589 L 3522 597 L 3526 590 L 3531 603 L 3533 604 L 3535 622 L 3547 622 L 3575 603 Q 3601 587 3610 587 L 3613 584 L 3610 579 L 3621 580 Q 3634 580 3707 548 L 3707 548 L 3706 551 L 3708 562 L 3733 565 L 3752 565 L 3714 586 Q 3707 589 3701 589 Q 3687 589 3681 571 L 3629 616 L 3638 616 L 3659 609 L 3665 607 L 3668 604 Q 3682 594 3691 594 Q 3702 594 3705 608 L 3730 609 L 3747 605 L 3748 605 L 3755 601 L 3772 601 L 3792 596 L 3816 588 L 3818 588 L 3813 586 L 3757 582 L 3761 564 L 3867 546 L 3857 588 L 3868 591 L 3887 603 L 3891 605 L 3892 600 L 3894 606 L 3902 607 L 3923 615 L 3962 631 L 3977 637 L 3985 631 L 4004 645 L 4025 645 L 4032 639 L 4039 633 L 4041 633 L 4044 609 L 4048 630 L 4054 625 L 4076 618 Q 4083 608 4090 608 L 4096 610 L 4101 604 Q 4112 613 4113 636 L 4123 656 L 4133 656 L 4148 645 L 4159 638 L 4167 623 L 4172 640 L 4180 652 L 4189 666 L 4206 654 L 4215 647 Q 4216 639 4228 639 Q 4237 639 4251 650 L 4267 666 L 4269 668 L 4270 668 L 4274 663 L 4287 621 Q 4314 644 4325 675 L 4326 675 L 4330 674 Q 4341 650 4355 650 Q 4362 650 4369 655 Q 4379 655 4392 664 L 4399 670 Q 4397 642 4406 636 L 4415 653 L 4416 653 L 4424 655 L 4445 652 Q 4446 645 4449 644 L 4468 642 L 4485 644 L 4490 645 L 4491 645 L 4490 641 L 4500 640 L 4508 640 L 4532 644 L 4536 638 Q 4553 641 4563 652 L 4585 656 L 4622 667 L 4637 663 L 4666 658 L 4680 661 L 4693 658 L 4696 662 L 4710 662 Q 4715 662 4722 669 Q 4729 662 4738 662 Q 4747 662 4749 666 Q 4752 670 4759 670 L 4761 664 L 4744 647 L 4744 647 Q 4747 649 4748 649 Q 4755 649 4753 625 L 4753 625 Q 4760 638 4773 645 L 4780 629 L 4804 631 L 4831 627 Q 4839 602 4829 580 L 4806 539 L 4841 563 L 4870 594 L 4895 563 L 4902 543 L 4961 610 Q 4973 610 4973 605 L 4976 595 Q 4958 554 4931 518 L 4931 518 L 4936 521 L 4974 544 Q 4999 560 5007 574 L 5005 556 L 5029 564 Q 5126 595 5188 595 L 5225 592 L 5231 583 L 5271 590 L 5282 585 L 5286 577 Q 5281 569 5250 553 L 5250 553 L 5300 555 L 5329 553 L 5352 574 L 5365 573 L 5382 584 L 5382 583 L 5386 570 Q 5393 569 5393 565 L 5394 562 L 5416 568 Q 5419 550 5405 528 L 5380 494 L 5380 494 Q 5406 501 5424 512 L 5420 505 L 5432 506 L 5425 502 Q 5397 488 5386 467 L 5403 463 L 5408 469 L 5411 473 L 5395 465 L 5419 481 L 5420 482 L 5459 519 L 5466 529 L 5454 519 L 5478 543 L 5460 519 L 5463 520 L 5474 517 L 5477 515 L 5486 500 Q 5486 488 5460 469 L 5436 454 L 5442 450 L 5446 450 L 5476 445 Q 5491 439 5491 430 L 5489 420 L 5486 417 L 5479 417 L 5472 410 L 5471 410 L 5464 405 Q 5473 382 5475 352 L 5475 352 Q 5466 378 5439 379 Q 5446 360 5414 353 L 5406 350 L 5433 347 L 5227 254 Q 5101 195 5026 195 Q 5025 195 5023 195 Q 5011 195 4999 195 Q 4912 195 4794 189 L 4728 185 L 4740 202 L 4675 210 Q 4672 210 4669 210 Q 4640 210 4633 201 L 4631 197 Q 4641 186 4662 182 L 4564 176 L 4364 164 L 4189 175 L 4155 168 Q 4113 158 4143 147 Q 4153 143 4165 142 Q 4143 132 4151 117 L 4151 117 L 4111 129 Q 4107 131 4103 131 Q 4092 131 4089 115 L 4066 125 Q 4063 126 4061 126 Q 4053 126 4068 115 L 3877 97 L 3708 93 L 3807 100 L 3720 113 L 3631 110 Q 3601 106 3610 90 L 3628 90 L 3428 73 L 3216 49 Q 3223 43 3195 43 Q 3188 43 3179 43 Q 3176 43 3174 43 Q 3121 43 3114 23 Q 3104 41 3089 41 Q 3085 41 3081 40 Q 3093 22 3081 22 Q 3077 22 3070 24 L 3023 41 L 3020 10 Z" fill="rgb(99,119,42)" fill-opacity="1.000"></path><path d="M 3446 430 L 3457 472 L 3457 441 L 3446 430 Z M 3858 482 L 3861 500 L 3864 500 L 3863 496 L 3858 482 Z M 5399 458 L 5382 462 Q 5393 483 5421 497 L 5428 501 L 5449 513 L 5450 514 L 5462 524 L 5455 514 L 5416 477 L 5415 476 L 5391 460 L 5407 468 L 5404 464 L 5399 458 Z M 3486 493 L 3486 520 L 3492 530 L 3486 493 Z M 20 509 L 7 524 L 0 533 L 10 528 L 16 518 L 22 511 L 20 509 Z M 5466 402 Q 5465 402 5464 402 L 5467 405 L 5468 405 L 5475 412 L 5482 412 L 5485 415 L 5487 425 Q 5487 434 5472 440 L 5442 445 L 5438 445 L 5432 449 L 5456 464 Q 5482 483 5482 495 L 5473 510 L 5470 512 L 5486 526 L 5496 533 L 5497 533 L 5516 536 Q 5524 530 5523 512 L 5523 481 L 5535 481 L 5543 487 L 5545 490 L 5526 455 L 5525 453 L 5523 450 L 5525 450 L 5540 451 L 5535 439 L 5535 438 L 5534 437 Q 5496 402 5466 402 Z M 2289 534 L 2292 550 L 2327 549 Q 2310 539 2289 534 Z M 200 537 L 194 553 L 204 548 L 200 537 Z M 5187 559 L 5184 560 L 5188 560 L 5187 559 Z M 3863 541 L 3757 559 L 3753 577 L 3809 581 L 3814 583 L 3820 582 L 3837 582 L 3853 583 L 3863 541 Z M 3888 595 L 3887 600 L 3890 601 L 3888 595 Z M 3525 510 Q 3490 524 3497 543 L 3518 588 L 3528 550 L 3528 550 Q 3527 556 3530 556 Q 3531 556 3534 555 L 3536 554 Q 3545 565 3545 604 Q 3554 604 3579 588 L 3599 571 L 3593 564 L 3592 552 L 3583 544 Q 3570 550 3569 563 Q 3570 549 3579 539 L 3569 533 Q 3565 532 3562 532 Q 3546 532 3530 543 L 3525 510 Z M 3017 600 L 3009 603 L 3014 607 L 3017 600 Z M 42 533 Q 39 533 35 534 L 21 543 L 27 543 Q 27 539 34 539 Q 43 539 41 553 L 34 585 L 34 611 Q 48 609 65 591 L 72 584 L 96 548 L 110 560 L 106 539 L 63 569 Q 58 533 42 533 Z M 2080 604 L 2079 605 L 2079 609 L 2089 611 L 2081 604 Z M 3703 543 Q 3630 575 3617 575 L 3606 574 L 3609 579 L 3611 583 Q 3621 587 3621 611 L 3625 611 L 3677 566 Q 3683 584 3697 584 Q 3703 584 3710 581 L 3748 560 L 3729 560 L 3704 557 L 3702 546 L 3703 543 Z M 2262 580 L 2249 581 L 2243 581 Q 2249 603 2254 609 Q 2264 621 2287 621 L 2279 580 Z M 1746 614 Q 1744 614 1742 616 L 1735 629 L 1754 625 Q 1751 614 1746 614 Z M 5376 489 L 5401 523 Q 5415 545 5412 563 L 5390 557 L 5389 560 Q 5389 564 5382 565 L 5378 578 L 5401 602 L 5412 625 L 5416 598 L 5416 595 L 5421 601 L 5454 629 L 5463 629 L 5474 628 L 5477 619 L 5473 604 Q 5473 599 5476 597 L 5475 594 L 5469 583 L 5473 574 L 5462 562 L 5420 507 Q 5402 496 5376 489 Z M 4729 616 Q 4728 623 4723 623 Q 4722 623 4721 623 L 4721 623 L 4733 634 L 4729 616 Z M 2196 597 Q 2190 601 2198 610 L 2211 619 L 2215 634 L 2221 646 Q 2240 609 2196 597 Z M 806 537 L 774 553 L 734 585 L 702 611 L 675 638 Q 680 635 682 635 Q 689 635 683 656 L 707 642 L 714 635 L 747 599 Q 760 586 765 586 Q 768 586 768 592 Q 768 599 772 599 Q 775 599 782 594 L 783 594 L 784 592 L 786 590 L 786 593 L 791 628 L 792 628 L 798 623 L 804 591 Q 813 557 825 549 L 822 542 L 822 541 L 817 548 Q 815 551 813 551 Q 809 551 806 537 Z M 2180 586 L 2168 588 L 2169 613 Q 2172 649 2186 655 L 2189 656 Q 2193 657 2196 657 Q 2213 657 2195 616 L 2180 586 Z M 137 551 L 115 566 Q 122 577 118 587 L 108 599 L 108 600 L 108 603 Q 118 593 123 593 Q 123 593 124 593 L 129 598 L 134 605 L 132 611 L 141 624 L 148 625 L 162 595 L 160 625 L 159 629 L 161 631 L 162 641 L 167 657 L 168 661 L 172 652 L 199 598 L 177 590 L 173 596 L 173 588 L 167 582 Q 163 577 162 564 Q 148 580 141 580 Q 132 580 137 551 Z M 2452 650 Q 2446 650 2478 663 L 2480 664 L 2483 663 L 2493 665 L 2482 657 Q 2457 650 2452 650 Z M 2586 613 L 2590 649 L 2594 666 L 2594 668 L 2601 674 L 2625 674 L 2625 672 Q 2624 650 2611 621 L 2586 613 Z M 2713 604 L 2730 627 L 2787 680 L 2778 662 L 2767 652 Q 2747 618 2730 611 L 2713 604 Z M 3003 650 L 3005 677 L 3007 681 L 3006 650 Z M 1477 681 L 1476 682 L 1477 682 L 1477 681 Z M 2547 572 L 2545 587 L 2543 590 L 2543 599 L 2537 594 L 2532 595 L 2516 588 L 2502 580 L 2494 599 Q 2490 605 2477 605 L 2412 596 L 2402 594 L 2399 591 Q 2390 582 2384 582 Q 2383 582 2382 583 Q 2378 584 2377 592 L 2362 578 L 2293 579 L 2393 671 L 2395 671 L 2407 670 L 2415 665 L 2421 663 L 2422 663 L 2426 660 L 2430 666 L 2432 668 L 2442 665 L 2449 668 L 2458 670 L 2457 668 Q 2448 647 2452 637 L 2452 637 L 2482 657 Q 2480 639 2483 624 Q 2484 624 2484 624 Q 2503 624 2503 662 L 2503 671 L 2507 673 L 2520 682 L 2522 661 Q 2522 624 2528 611 Q 2535 646 2535 683 L 2547 679 L 2557 675 L 2564 651 L 2576 608 Q 2564 598 2547 572 Z M 1833 626 L 1814 635 L 1798 676 L 1797 678 L 1794 686 L 1806 680 L 1807 680 L 1809 679 L 1841 649 L 1846 645 Q 1838 643 1837 637 L 1836 626 L 1833 628 L 1833 626 Z M 2125 594 L 2116 595 Q 2111 611 2094 611 L 2089 611 Q 2136 652 2151 687 L 2151 685 L 2151 684 L 2148 632 Q 2143 605 2125 594 Z M 4927 513 L 4927 513 Q 4954 549 4972 590 L 4969 600 Q 4969 605 4957 605 L 4898 538 L 4891 558 L 4866 589 L 4837 558 L 4802 534 L 4825 575 Q 4835 597 4827 622 L 4800 626 L 4776 624 L 4769 640 Q 4756 633 4749 620 L 4749 620 Q 4751 644 4744 644 Q 4742 644 4740 642 L 4740 642 L 4757 659 Q 4759 654 4765 654 Q 4774 654 4792 670 L 4814 688 L 4814 677 Q 4816 671 4821 670 L 4823 665 L 4823 664 L 4824 665 L 4830 663 L 4845 674 Q 4856 684 4864 684 L 4871 683 L 4875 666 L 4879 658 L 4860 609 Q 4863 608 4867 608 Q 4890 608 4931 642 L 4972 680 L 4982 671 L 4983 670 L 4976 662 L 4971 647 L 4969 634 Q 4969 625 4978 625 Q 4989 625 5046 653 L 5046 631 L 5046 629 Q 5044 602 5035 584 L 5035 584 Q 5053 607 5080 620 Q 5090 592 5104 592 Q 5115 593 5150 615 L 5156 619 L 5171 615 L 5242 614 L 5242 612 L 5260 611 Q 5260 611 5261 611 Q 5270 611 5297 627 L 5301 629 L 5303 629 L 5283 598 L 5283 598 Q 5302 603 5322 620 L 5343 638 L 5355 641 Q 5354 636 5356 632 Q 5360 628 5362 628 Q 5365 628 5365 634 Q 5369 629 5374 629 L 5380 630 L 5380 626 L 5378 579 L 5361 568 L 5348 569 L 5325 548 L 5296 550 L 5246 548 L 5246 548 Q 5277 564 5282 572 L 5278 580 L 5267 585 L 5227 578 L 5221 587 L 5184 590 Q 5122 590 5025 559 L 5001 551 L 5003 569 Q 4995 555 4970 539 L 4932 516 L 4927 513 Z M 1783 648 L 1740 663 L 1736 674 L 1736 676 L 1731 689 L 1746 681 L 1746 677 L 1778 653 L 1783 648 Z M 1975 585 L 1955 596 L 1939 606 L 1877 637 Q 1865 657 1859 672 Q 1859 672 1860 672 Q 1869 672 1905 651 Q 1936 634 1943 634 Q 1944 634 1944 634 L 1942 657 L 1941 665 L 1937 697 Q 1943 693 1950 692 L 1957 690 L 1969 687 L 1987 690 L 1995 692 L 2024 681 L 2031 679 L 2033 674 L 2038 678 L 2055 682 L 2071 682 L 2071 680 L 2071 676 L 2072 673 L 2079 609 L 2069 608 L 1994 630 L 1979 627 Q 1974 611 1985 600 L 1975 585 Z M 4868 704 L 4869 705 L 4869 704 Z M 269 587 Q 252 600 232 600 L 202 598 L 202 608 L 203 617 L 203 625 L 203 650 L 205 649 Q 213 649 215 660 L 216 679 L 214 695 Q 214 707 228 707 L 237 707 L 259 677 L 287 633 L 288 634 L 291 622 L 289 635 Q 306 656 293 675 Q 294 675 295 675 Q 301 675 310 667 L 311 665 L 315 657 L 319 657 L 328 664 L 373 664 L 393 659 L 396 660 Q 413 640 421 617 L 423 649 L 423 660 L 436 677 L 449 677 L 458 665 Q 465 657 474 657 L 475 657 L 483 658 Q 491 666 495 679 L 497 686 L 505 650 L 509 630 L 507 630 L 492 616 L 492 615 L 491 619 L 491 616 L 447 660 L 432 646 Q 432 627 469 589 L 469 589 L 453 602 Q 446 607 441 607 Q 439 607 437 606 L 379 640 L 364 637 L 362 630 L 352 628 L 342 635 L 327 621 L 340 601 L 340 601 Q 316 620 309 636 Q 311 608 303 608 Q 301 608 298 610 Q 277 628 264 631 L 270 587 Z M 554 592 L 548 597 L 542 603 L 555 654 L 561 676 L 565 695 Q 573 695 573 708 L 584 708 L 594 702 L 614 671 L 610 694 L 625 685 L 649 672 L 658 657 L 658 657 Q 653 661 651 661 Q 642 661 649 624 L 649 624 L 620 667 Q 619 668 619 668 Q 615 668 617 618 L 617 618 L 601 659 Q 593 675 587 675 Q 585 675 583 674 L 574 627 L 574 625 L 567 625 Q 554 625 552 617 L 552 607 L 554 592 Z M 3412 486 Q 3413 497 3427 518 Q 3440 537 3438 553 Q 3425 541 3421 541 Q 3418 541 3419 548 Q 3425 575 3413 579 Q 3399 579 3396 565 L 3373 608 Q 3362 632 3336 640 L 3297 633 Q 3292 631 3288 631 Q 3275 631 3267 646 Q 3254 671 3206 675 Q 3152 680 3141 689 Q 3145 686 3149 686 Q 3157 686 3165 696 Q 3169 700 3174 700 Q 3183 700 3196 687 L 3223 703 L 3228 702 L 3232 688 L 3249 705 L 3256 708 L 3268 682 L 3283 653 L 3289 692 L 3291 701 L 3296 705 Q 3306 686 3324 676 Q 3338 685 3341 701 Q 3357 688 3359 665 L 3368 666 Q 3370 678 3380 688 L 3386 684 L 3398 661 L 3410 624 Q 3425 574 3435 568 L 3450 610 Q 3460 602 3459 578 L 3455 543 L 3455 543 Q 3475 570 3481 570 Q 3485 570 3482 558 L 3478 540 L 3467 540 L 3465 549 Q 3458 543 3444 513 Q 3433 490 3412 486 Z M 1692 665 Q 1681 669 1671 675 Q 1652 689 1649 708 L 1649 709 L 1648 711 Q 1667 689 1691 674 L 1707 665 Z M 2984 660 L 2980 663 L 2962 675 L 2958 675 Q 2957 693 2966 712 Q 2978 701 2983 662 L 2984 660 Z M 2688 621 L 2664 625 L 2619 622 L 2619 622 Q 2623 646 2638 675 L 2648 684 L 2665 693 L 2685 693 L 2687 689 L 2691 676 L 2696 693 L 2708 693 L 2720 710 L 2722 713 L 2734 679 L 2729 674 L 2688 621 Z M 1346 633 Q 1321 648 1309 676 Q 1310 655 1303 655 Q 1296 655 1281 679 L 1267 702 L 1272 702 L 1310 693 L 1317 692 L 1339 653 L 1343 684 L 1350 691 Q 1353 702 1366 705 L 1389 705 Q 1396 681 1416 664 L 1417 667 Q 1419 684 1429 684 Q 1430 684 1430 684 L 1448 674 L 1454 670 Q 1479 654 1492 653 L 1492 653 L 1489 658 L 1490 658 L 1479 677 L 1482 677 L 1483 678 L 1514 659 L 1514 659 Q 1516 674 1508 687 L 1503 693 L 1503 694 L 1503 698 L 1509 707 L 1536 687 L 1536 687 Q 1541 702 1534 720 L 1540 718 L 1550 718 L 1558 733 L 1606 725 L 1616 717 L 1629 701 L 1634 700 Q 1650 693 1653 682 L 1652 664 L 1605 673 L 1563 673 Q 1560 636 1519 636 Q 1514 636 1508 637 L 1434 634 Q 1420 648 1399 656 Q 1395 645 1383 636 L 1366 648 Q 1365 649 1364 649 Q 1358 649 1346 633 Z M 2888 647 L 2879 660 Q 2851 701 2844 720 L 2842 724 Q 2852 713 2858 713 Q 2859 713 2861 714 L 2864 712 Q 2865 712 2865 712 Q 2874 712 2874 727 L 2881 733 L 2906 732 L 2910 731 L 2914 733 L 2920 716 L 2921 718 L 2924 715 L 2927 748 L 2956 674 L 2946 666 L 2942 653 L 2933 661 L 2919 665 Q 2909 665 2906 659 L 2904 652 L 2894 656 L 2897 647 Z M 3013 674 Q 3006 674 3028 717 L 3030 721 L 3007 681 L 3008 716 L 3011 734 L 3012 737 L 3014 737 L 3030 744 L 3066 753 L 3088 753 Q 3111 736 3124 715 L 3138 691 L 3138 691 Q 3121 711 3113 711 Q 3103 711 3110 674 L 3110 674 L 3080 701 Q 3062 714 3049 714 Q 3046 714 3043 713 L 3033 690 L 3014 674 Q 3013 674 3013 674 Z M 2736 681 L 2735 709 L 2735 723 L 2744 719 L 2766 727 L 2774 724 Q 2781 724 2790 747 L 2812 769 Q 2818 748 2806 722 L 2807 718 L 2802 720 Q 2774 720 2736 681 Z" fill="rgb(86,103,35)" fill-opacity="1.000"></path><path d="M 3606 85 Q 3597 101 3627 105 L 3716 108 L 3803 95 L 3704 88 L 3691 88 L 3651 86 L 3638 86 L 3624 85 Z M 2867 145 L 2816 153 Q 2814 162 2834 163 L 2858 162 L 2891 161 Q 2906 157 2919 145 Z M 4161 137 Q 4149 138 4139 142 Q 4109 153 4151 163 L 4185 170 L 4360 159 L 4249 141 L 4161 137 Z M 1717 144 L 1675 146 L 1619 149 Q 1539 154 1545 160 Q 1559 174 1594 174 Q 1610 174 1631 171 Q 1690 163 1717 144 Z M 2936 138 L 2966 144 Q 2936 156 2994 171 Q 3011 175 3022 175 Q 3048 175 3049 154 Q 3050 142 3015 142 L 2977 144 Q 2988 143 2971 139 L 2936 138 Z M 1142 173 L 1119 176 Q 1108 182 1136 189 Q 1143 191 1148 191 Q 1161 191 1163 180 L 1142 173 Z M 3917 168 L 3857 175 Q 3850 192 3871 192 L 3963 189 Q 3968 170 3917 168 Z M 1080 186 L 1018 188 Q 974 195 998 197 Q 1009 199 1021 199 Q 1051 199 1080 186 Z M 4720 173 L 4658 177 Q 4637 181 4627 192 L 4629 196 Q 4636 205 4665 205 Q 4668 205 4671 205 L 4736 197 L 4724 180 L 4720 173 Z M 2250 173 Q 2212 180 2229 191 L 2268 197 L 2273 198 L 2291 199 L 2383 205 Q 2391 205 2399 205 Q 2466 205 2499 190 L 2250 173 Z M 1956 185 Q 1907 190 1914 209 Q 1931 211 1949 211 Q 1967 211 1985 209 Q 1990 210 1994 210 Q 2013 210 2020 187 L 1957 185 Z M 3383 153 Q 3380 153 3378 153 L 3402 170 L 3337 173 L 3272 178 Q 3246 180 3236 198 Q 3226 215 3256 215 Q 3377 217 3447 217 Q 3546 217 3546 213 L 3520 188 L 3489 165 L 3443 167 Q 3399 153 3383 153 Z M 1074 210 Q 1069 210 1063 211 L 1062 211 L 1063 218 Q 1066 222 1078 222 L 1102 217 Q 1091 210 1074 210 Z M 2969 206 Q 2916 207 2931 218 L 2933 218 L 2973 224 L 3011 218 L 3013 206 Z M 1283 189 Q 1273 189 1261 190 Q 1213 195 1215 207 L 1168 209 Q 1135 215 1143 221 L 1144 221 Q 1167 233 1198 233 Q 1220 233 1245 227 L 1328 203 Q 1315 189 1283 189 Z M 552 214 L 528 215 L 453 224 Q 444 228 445 234 Q 456 236 467 236 Q 506 236 548 217 L 552 214 Z M 4503 232 Q 4485 232 4482 238 L 4547 236 L 4513 232 Q 4507 232 4503 232 Z M 2702 248 Q 2692 248 2691 256 L 2726 254 L 2709 249 Q 2705 248 2702 248 Z M 1471 274 Q 1468 274 1465 275 Q 1447 280 1448 288 L 1475 288 L 1476 286 Q 1480 274 1471 274 Z M 228 281 Q 229 292 239 292 Q 246 292 257 287 L 251 287 L 252 286 L 228 281 Z M 4789 271 Q 4758 271 4757 282 Q 4774 289 4801 292 Q 4806 292 4811 292 Q 4829 292 4835 286 L 4837 280 Q 4830 272 4794 271 Q 4791 271 4789 271 Z M 4350 285 L 4340 287 L 4401 293 L 4350 285 Z M 958 272 Q 963 287 961 304 L 987 302 L 1042 295 Q 1030 280 1005 274 L 958 272 Z M 487 274 Q 463 277 440 291 Q 417 303 424 305 L 461 306 Q 470 286 487 274 Z M 4714 294 Q 4697 294 4699 301 L 4745 306 Q 4748 296 4723 294 Q 4718 294 4714 294 Z M 4780 305 Q 4758 305 4754 313 L 4803 314 Q 4806 315 4809 315 Q 4815 315 4819 309 L 4785 305 Q 4782 305 4780 305 Z M 1432 310 Q 1403 310 1401 318 L 1465 321 L 1465 321 L 1471 320 Q 1474 311 1439 310 Q 1435 310 1432 310 Z M 201 285 Q 198 300 207 312 L 237 321 L 239 296 L 230 296 L 227 294 L 228 307 L 225 309 Q 214 307 211 298 L 209 292 L 208 291 L 206 288 L 201 285 Z M 1465 321 L 1464 321 Q 1461 322 1462 322 Q 1464 322 1470 321 L 1465 321 Z M 3265 312 L 3233 317 L 3172 332 L 3332 328 L 3265 312 Z M 3624 297 Q 3588 312 3579 318 Q 3564 328 3610 329 L 3668 334 Q 3706 334 3706 309 L 3665 300 L 3624 297 Z M 4934 284 Q 4936 303 4895 303 Q 4891 303 4887 303 Q 4885 303 4883 303 Q 4838 303 4843 325 Q 4858 337 4876 337 Q 4883 337 4890 335 Q 4922 337 4945 337 Q 5030 337 5014 317 Q 5009 310 4974 298 L 4934 284 Z M 3814 345 Q 3809 345 3804 357 L 3826 359 L 3817 346 Q 3816 345 3814 345 Z M 1924 300 Q 1929 315 1917 325 L 1881 304 L 1881 304 Q 1893 315 1884 329 L 1839 328 L 1794 349 L 1799 356 Q 1817 372 1877 372 Q 1892 372 1910 371 Q 2012 366 2003 342 L 2003 342 Q 2001 342 1999 342 Q 1979 342 1975 333 L 1963 309 Q 1955 321 1949 321 Q 1946 321 1943 317 L 1924 300 Z M 2389 297 Q 2384 311 2390 323 L 2329 309 L 2329 309 Q 2335 318 2345 319 Q 2344 319 2343 319 Q 2330 319 2309 328 Q 2282 340 2285 354 Q 2287 365 2433 372 L 2591 368 Q 2595 365 2524 344 L 2439 322 Q 2420 322 2411 313 Q 2400 301 2389 297 Z M 2109 373 Q 2108 373 2107 373 Q 2089 373 2092 384 Q 2101 391 2111 391 Q 2116 391 2122 389 Q 2125 373 2109 373 Z M 5177 402 Q 5161 405 5153 414 Q 5157 425 5177 425 L 5205 424 L 5252 428 L 5175 419 L 5173 408 L 5177 402 Z M 1145 411 Q 1139 411 1132 411 Q 1090 414 1067 425 L 1073 428 L 1075 429 L 1074 428 L 1133 434 Q 1184 433 1197 421 Q 1181 411 1145 411 Z M 1506 386 L 1497 405 L 1468 391 L 1484 418 L 1442 426 L 1502 434 Q 1551 433 1554 420 Q 1544 399 1533 399 Q 1525 399 1518 411 Q 1520 395 1506 386 Z M 726 421 Q 698 422 706 430 L 707 431 L 708 431 L 737 435 Q 759 433 764 425 L 726 421 Z M 4715 401 Q 4673 401 4646 412 Q 4648 427 4679 431 L 4722 434 L 4781 438 Q 4827 437 4824 414 Q 4760 401 4715 401 Z M 664 421 L 534 435 L 500 432 L 494 441 L 571 437 L 664 421 Z M 2221 417 Q 2157 417 2152 430 Q 2152 443 2163 443 Q 2165 443 2168 443 L 2256 450 Q 2268 450 2279 450 Q 2339 450 2338 436 Q 2337 421 2247 418 Q 2233 418 2221 418 Z M 4173 458 Q 4172 469 4192 474 L 4220 477 L 4253 482 Q 4255 482 4257 482 Q 4277 482 4284 473 L 4271 462 L 4173 458 Z M 1844 462 Q 1825 462 1793 472 L 1752 486 L 1767 486 Q 1876 473 1854 463 Q 1850 462 1844 462 Z M 306 425 Q 294 425 280 427 Q 247 431 235 442 Q 237 442 238 442 Q 256 442 196 482 Q 214 490 231 490 Q 248 490 265 483 L 265 482 Q 264 465 284 457 L 317 446 L 317 446 Q 307 447 301 447 Q 289 447 301 441 L 328 427 Q 319 425 307 425 Z M 675 469 Q 658 473 649 486 L 645 492 L 650 493 L 671 490 Q 679 485 675 469 Z M 5112 447 L 5083 448 Q 5094 453 5101 468 L 5019 469 L 5090 478 Q 5092 469 5098 469 Q 5102 469 5107 472 L 5124 484 L 5203 493 L 5207 493 L 5220 473 L 5220 473 Q 5214 476 5205 476 Q 5190 476 5171 466 L 5125 467 Q 5123 454 5112 447 Z M 3767 455 L 3686 463 Q 3631 473 3630 484 L 3632 490 L 3706 494 Q 3738 485 3767 455 Z M 1800 495 Q 1797 495 1792 496 L 1793 513 L 1818 515 Q 1816 495 1800 495 Z M 1768 496 L 1718 505 Q 1684 515 1712 519 L 1717 520 L 1748 519 Q 1773 514 1768 496 Z M 3029 509 Q 3019 509 3013 518 L 3045 522 Q 3049 515 3036 510 Q 3032 509 3029 509 Z M 4780 477 L 4712 488 L 4622 487 L 4700 493 Q 4756 501 4767 523 L 4815 515 Q 4801 515 4791 503 Q 4787 498 4782 498 Q 4779 498 4775 500 Q 4785 491 4780 477 Z M 2214 472 Q 2193 472 2162 481 Q 2089 501 2094 529 L 2094 532 L 2103 533 Q 2118 533 2131 533 Q 2280 533 2258 493 Q 2246 472 2214 472 Z M 1502 533 L 1496 549 Q 1496 557 1511 557 Q 1515 557 1521 556 Q 1525 533 1502 533 Z M 1448 518 Q 1436 518 1401 533 Q 1359 551 1373 559 L 1414 566 L 1416 566 Q 1440 566 1462 541 Q 1482 519 1458 519 Q 1455 519 1452 519 Q 1450 518 1448 518 Z M 2894 507 L 2901 528 L 2864 523 L 2831 523 L 2846 525 Q 2841 532 2828 532 Q 2821 532 2812 530 Q 2805 529 2799 529 Q 2784 529 2781 538 Q 2774 555 2867 566 Q 2889 569 2907 569 Q 2961 569 2968 543 L 2929 522 L 2901 508 L 2894 507 Z M 1172 555 Q 1149 556 1159 561 L 1161 562 L 1162 563 L 1165 564 L 1172 566 Q 1186 570 1195 570 Q 1205 570 1210 567 L 1215 560 L 1172 556 Z M 1438 587 Q 1415 588 1424 597 Q 1430 604 1439 604 Q 1442 604 1445 603 Q 1451 590 1438 587 Z" fill="rgb(92,111,39)" fill-opacity="1.000"></path><path d="M 5523 450 L 5525 453 Q 5537 468 5545 490 L 5545 491 L 5543 487 L 5535 481 L 5523 481 L 5523 512 Q 5524 530 5516 536 L 5541 545 L 5545 534 L 5544 522 L 5546 510 L 5542 504 L 5546 504 L 5551 505 L 5555 501 Q 5555 484 5545 463 L 5540 452 L 5525 450 Z M 5416 500 L 5420 507 L 5462 562 L 5473 574 L 5481 572 L 5499 569 L 5497 564 L 5491 555 L 5487 543 Q 5487 533 5496 533 L 5486 526 L 5470 512 L 5459 515 L 5456 514 L 5474 538 L 5450 514 L 5449 513 L 5428 501 L 5416 500 Z M 96 548 L 72 584 Q 82 573 87 573 Q 98 573 96 588 L 95 604 L 108 599 L 118 587 Q 122 577 115 566 L 110 560 L 96 548 Z M 162 595 L 148 625 L 157 628 L 160 625 L 162 595 Z M 5260 611 L 5242 612 L 5242 614 L 5243 614 L 5274 618 Q 5282 620 5300 629 L 5301 629 L 5297 627 L 5272 615 L 5260 611 Z M 5416 595 L 5416 598 Q 5414 608 5423 620 Q 5425 618 5429 618 L 5440 624 L 5454 629 L 5421 601 L 5416 595 Z M 5378 578 L 5378 579 L 5380 626 L 5383 630 L 5412 637 L 5405 613 L 5401 602 L 5378 578 Z M 5283 598 L 5303 629 L 5336 635 L 5343 638 L 5322 620 Q 5302 603 5283 598 Z M 5362 628 Q 5360 628 5356 632 Q 5354 636 5355 641 L 5358 641 L 5364 635 L 5365 635 L 5365 634 Q 5364 628 5362 628 Z M 5475 660 L 5473 661 L 5476 662 L 5475 660 Z M 199 598 L 172 652 L 168 661 L 170 673 L 175 691 L 187 668 L 202 650 L 203 625 L 203 617 L 202 608 L 202 598 Z M 1126 671 L 1127 675 L 1132 692 L 1144 692 Q 1147 689 1151 688 L 1143 671 Z M 1489 658 Q 1473 659 1454 670 L 1448 674 L 1430 684 L 1421 687 L 1424 692 Q 1427 694 1432 694 Q 1443 694 1465 684 L 1466 683 L 1477 681 L 1477 682 Q 1483 685 1479 701 L 1488 701 L 1499 697 L 1501 695 L 1503 694 L 1503 693 L 1508 687 Q 1516 674 1514 659 L 1514 659 L 1483 678 L 1482 677 L 1479 677 L 1490 658 Z M 1416 664 Q 1396 681 1389 705 L 1396 705 L 1408 701 L 1408 700 Q 1418 684 1417 667 L 1416 664 Z M 2109 656 Q 2105 656 2101 657 Q 2076 660 2071 680 L 2071 682 L 2083 682 L 2082 677 Q 2081 669 2089 669 Q 2094 669 2103 672 L 2121 680 L 2139 688 L 2165 697 L 2182 705 Q 2185 670 2193 662 Q 2203 676 2202 689 L 2205 685 L 2205 684 L 2221 662 L 2219 662 L 2172 657 Q 2151 659 2151 684 L 2151 685 L 2151 687 Q 2137 656 2109 656 Z M 287 633 L 259 677 L 237 707 L 257 701 L 283 685 L 293 675 Q 306 656 289 635 L 288 634 L 287 633 Z M 1536 687 L 1509 707 L 1509 708 L 1507 716 L 1509 722 L 1527 722 L 1534 720 Q 1541 702 1536 687 Z M 1472 722 L 1471 723 L 1473 722 Z M 1796 649 Q 1792 649 1785 653 L 1746 681 L 1731 689 L 1736 676 L 1736 674 L 1740 663 L 1732 665 L 1707 665 L 1691 674 Q 1667 689 1648 711 L 1649 709 L 1649 708 Q 1651 688 1663 672 L 1663 672 L 1653 682 Q 1650 693 1634 700 L 1616 717 L 1606 725 L 1645 720 L 1683 710 L 1716 711 L 1730 713 L 1812 712 L 1820 710 L 1826 703 Q 1833 698 1838 698 Q 1841 698 1843 700 L 1872 697 L 1885 699 Q 1905 685 1916 684 L 1925 698 L 1932 699 L 1932 698 L 1941 665 L 1942 657 L 1902 657 Q 1883 672 1865 672 Q 1862 672 1859 672 Q 1867 652 1856 652 Q 1850 652 1839 658 L 1809 679 L 1807 680 L 1806 680 L 1794 686 L 1797 678 L 1798 676 Q 1807 649 1796 649 Z" fill="rgb(98,114,77)" fill-opacity="1.000"></path></g></g></g></g></g></g><defs><defs></defs></defs></svg>