<svg color-interpolation-filters="sRGB" fill-rule="evenodd" pointer-events="none" width="100%" height="100%" xmlns="http://www.w3.org/2000/svg" xmlns:xlink="http://www.w3.org/1999/xlink" style="-webkit-user-select: none;"><g transform="matrix(0.049429657794676805 0 0 0.049429657794676805 0.38212927756653414 0)"><g><rect x="-7.730769230769114" y="0" width="1618.4615384615383" height="1315" fill="rgb(102,153,153)"></rect><g><g><g><g><path d="M 915 1 L 921 4 L 916 1 Z M 914 2 L 901 6 L 886 13 L 914 2 Z M 854 23 L 780 29 L 798 29 L 854 23 Z M 1023 56 L 1052 92 L 1044 81 L 1023 56 Z M 1052 92 L 1081 149 L 1057 101 L 1052 92 Z M 827 182 Q 825 192 826 213 L 806 217 Q 799 219 788 227 L 774 235 Q 776 235 778 235 Q 823 235 839 196 L 827 182 Z M 607 139 L 622 159 Q 631 164 644 188 Q 656 211 657 224 Q 658 240 638 277 Q 627 271 625 251 L 622 219 L 612 180 Q 606 156 607 139 Z M 328 548 L 322 552 L 294 586 L 328 548 Z M 627 324 Q 628 340 657 364 Q 684 387 682 411 L 670 455 L 656 505 L 638 555 Q 626 589 621 626 L 621 642 L 617 657 Q 606 655 604 625 L 603 584 L 591 537 L 581 490 Q 580 473 595 412 L 600 376 Q 604 352 617 349 L 627 324 Z M 701 324 L 707 360 L 712 395 L 712 515 L 707 620 L 710 668 Q 710 700 698 713 Q 690 669 695 596 L 702 479 Q 694 357 701 324 Z M 258 813 L 257 881 L 258 869 L 258 813 Z M 1298 949 L 1301 958 L 1302 960 L 1298 949 Z M 1328 1028 L 1331 1045 L 1332 1051 L 1331 1038 L 1330 1034 L 1328 1028 Z M 557 519 Q 557 586 566 685 Q 570 724 593 759 Q 616 795 617 834 Q 617 854 642 902 Q 662 940 648 969 L 621 1004 Q 610 1021 601 1060 L 579 1106 Q 563 1130 545 1130 Q 541 1130 537 1129 L 535 1092 L 532 1054 L 532 789 L 557 519 Z M 647 46 L 633 54 Q 598 78 568 150 L 549 193 Q 539 215 535 232 Q 542 208 567 155 L 569 208 L 567 259 L 562 309 Q 554 335 532 335 Q 530 335 527 335 L 527 385 Q 529 416 521 433 Q 496 485 444 524 L 430 534 L 416 544 L 404 563 L 389 582 L 352 610 L 306 615 Q 289 611 286 598 Q 260 642 259 694 L 260 689 Q 280 732 301 744 L 326 746 L 346 729 L 351 790 Q 357 838 365 839 L 376 801 L 380 761 L 389 693 Q 396 652 412 629 L 467 531 Q 500 470 531 440 L 534 521 L 532 602 L 526 751 L 526 888 L 527 895 L 527 1025 L 522 1169 L 526 1175 Q 572 1156 607 1133 L 637 1104 L 637 1089 L 637 1074 Q 640 1062 658 1042 Q 675 1023 677 1006 Q 675 954 678 928 L 680 894 L 680 892 L 688 870 L 696 876 L 716 863 L 727 852 L 736 812 L 747 758 L 752 669 L 752 655 L 754 591 L 756 527 Q 757 499 764 459 L 777 392 L 782 344 Q 786 312 797 302 L 797 302 Q 794 318 800 350 L 807 399 L 806 474 Q 807 496 817 528 L 832 580 L 842 674 Q 842 733 848 753 L 858 783 L 866 814 L 864 881 Q 861 924 869 945 L 884 917 L 890 887 L 911 789 L 919 754 Q 925 737 942 728 L 968 707 L 972 670 Q 970 608 986 569 L 1000 541 L 1007 510 Q 1005 476 989 417 Q 970 348 966 323 L 959 284 Q 958 264 973 264 Q 975 264 977 264 L 998 280 L 1027 285 Q 1043 284 1046 279 L 1047 258 Q 1044 192 1047 175 L 1076 174 L 1077 153 L 1051 165 L 1033 168 Q 1021 170 1017 175 L 1017 177 Q 1013 183 1017 205 L 1017 181 L 1025 214 Q 1032 240 1026 248 Q 1020 256 1002 256 Q 995 256 986 255 L 942 243 L 875 226 L 862 224 L 860 224 L 861 234 L 876 284 L 877 322 Q 875 346 881 359 Q 887 371 918 393 Q 938 408 928 439 L 912 462 Q 899 476 896 485 Q 892 501 897 540 L 892 607 L 895 683 L 891 758 L 865 707 L 857 674 L 855 640 L 846 554 L 835 509 L 821 464 Q 812 432 812 370 L 810 330 Q 810 303 822 294 L 812 274 L 822 254 L 826 243 L 836 238 L 841 228 L 841 228 Q 812 244 796 249 Q 762 261 740 261 Q 730 261 723 258 Q 706 253 673 208 L 628 157 Q 596 117 611 105 L 611 105 Q 612 130 639 150 L 687 179 L 692 184 Q 703 202 713 212 L 697 183 L 654 155 Q 625 139 617 119 Q 610 102 626 82 Q 643 60 642 49 L 647 46 Z M 786 1189 L 809 1190 L 802 1189 Z M 323 1142 L 356 1186 L 365 1198 L 352 1179 L 323 1142 Z M 1073 1196 L 1041 1198 L 963 1200 L 1033 1199 L 1073 1196 Z" fill="rgb(108,92,69)" fill-opacity="1.000"></path><path d="M 472 609 L 463 721 L 445 828 Q 438 830 432 830 Q 412 830 412 805 L 437 794 L 448 770 L 454 730 Q 456 704 462 689 L 472 609 Z M 747 758 L 736 812 L 727 852 Q 749 827 747 758 Z M 688 870 L 680 892 L 696 876 L 688 870 Z M 1081 149 L 1077 153 L 1076 174 L 1047 175 Q 1044 192 1047 258 L 1046 279 Q 1043 284 1027 285 L 998 280 L 977 264 Q 975 264 973 264 Q 958 264 959 284 L 966 323 Q 970 348 989 417 Q 1005 476 1007 510 L 1000 541 L 986 569 Q 970 608 972 670 L 968 707 L 942 728 Q 925 737 919 754 L 911 789 L 890 887 L 884 917 L 897 890 Q 908 864 916 813 L 927 768 Q 938 740 955 740 Q 956 740 956 740 L 945 813 Q 939 855 943 887 L 947 935 L 940 975 L 930 1015 Q 918 1085 922 1121 Q 928 1159 955 1191 L 960 1190 L 1001 1186 Q 1014 1181 1018 1155 L 1029 1079 Q 1035 1081 1041 1081 Q 1081 1081 1059 968 L 1059 968 L 1062 978 L 1072 1030 Q 1080 1036 1091 1036 Q 1094 1036 1097 1036 L 1117 1025 Q 1131 1005 1130 959 L 1127 889 L 1124 846 L 1118 803 Q 1119 763 1112 743 L 1101 696 L 1090 670 Q 1082 654 1081 645 Q 1051 641 1043 608 Q 1030 562 1025 555 Q 1017 556 1015 576 Q 1012 596 997 599 Q 996 589 1005 570 L 1017 540 Q 1027 503 1027 465 L 1015 415 Q 1005 384 1006 365 L 1006 365 Q 1011 377 1027 397 L 1047 429 L 1057 494 Q 1059 525 1066 540 L 1083 562 L 1102 584 Q 1116 604 1126 639 L 1141 696 Q 1158 756 1176 778 Q 1198 804 1209 804 Q 1219 804 1222 784 Q 1225 736 1182 652 L 1172 622 L 1166 591 L 1137 509 Q 1119 462 1107 404 L 1098 366 Q 1084 336 1086 320 Q 1085 320 1084 320 Q 1079 320 1072 325 L 1058 334 L 1057 244 Q 1055 230 1059 225 Q 1063 219 1077 219 Q 1093 219 1108 231 L 1098 191 L 1081 149 Z M 797 302 Q 786 312 782 344 L 777 392 L 764 459 Q 757 499 756 527 L 754 591 L 752 655 L 752 669 L 767 504 L 767 820 Q 767 860 755 886 Q 742 913 719 913 Q 711 913 702 910 Q 680 903 680 894 L 678 928 Q 675 954 677 1006 Q 675 1023 658 1042 Q 640 1062 637 1074 L 637 1089 L 637 1104 L 607 1133 Q 572 1156 526 1175 L 522 1169 L 522 1210 Q 550 1212 567 1212 Q 585 1212 593 1210 Q 626 1200 621 1155 L 588 1149 L 605 1141 L 622 1130 L 639 1111 Q 650 1100 659 1100 Q 660 1100 660 1100 L 659 1140 Q 655 1167 661 1173 L 676 1156 Q 683 1142 689 1139 Q 694 1137 697 1137 Q 701 1137 703 1140 L 716 1146 Q 737 1145 747 1099 L 758 1035 L 783 943 Q 792 901 792 845 L 789 799 Q 789 769 801 756 L 805 816 L 802 876 L 802 1008 L 804 1084 Q 804 1140 796 1172 L 802 1190 L 809 1191 L 873 1194 L 872 1165 L 871 1119 Q 871 1092 878 1074 L 891 1049 L 903 1023 Q 908 1007 906 966 L 862 964 L 869 946 Q 861 925 864 882 L 866 815 L 858 784 L 848 754 Q 842 734 842 675 L 832 581 L 817 529 Q 807 497 806 475 L 807 400 L 800 351 Q 794 319 797 303 Z M 531 441 Q 500 471 467 532 L 412 630 Q 396 653 389 694 L 380 762 L 376 802 L 365 840 Q 357 839 351 791 L 346 730 L 326 747 L 301 745 Q 280 733 260 690 L 259 695 L 258 814 L 258 870 L 257 882 Q 248 978 212 1031 L 213 1032 Q 227 1047 254 1048 L 311 1044 L 317 1000 L 322 956 L 333 920 L 342 884 L 342 863 Q 342 851 351 845 L 354 903 L 352 962 L 352 1060 L 350 1120 Q 348 1157 352 1180 L 365 1199 L 372 1208 L 385 1223 L 389 1226 L 392 1228 Q 409 1240 441 1245 L 450 1211 L 452 1176 L 452 1148 L 451 1120 L 458 1098 L 466 1075 L 473 1034 L 475 1008 L 483 1019 Q 485 1020 487 1020 Q 502 1020 502 966 L 502 882 L 507 788 Q 508 807 515 835 L 526 889 L 526 752 L 532 603 L 534 522 L 531 441 Z" fill="rgb(94,81,62)" fill-opacity="1.000"></path><path d="M 749 29 L 669 38 Q 660 51 667 59 Q 672 65 686 65 Q 692 65 700 64 Q 741 59 752 48 L 761 29 Z M 915 1 L 914 2 L 886 13 L 876 17 L 868 20 L 862 21 L 912 94 Q 926 111 937 111 Q 951 111 958 83 L 961 66 L 961 60 L 961 56 L 961 55 L 961 51 L 925 5 L 923 4 L 921 4 L 915 1 Z M 728 109 Q 717 109 711 114 Q 704 120 716 128 L 746 132 L 777 128 L 777 119 L 732 109 Q 730 109 728 109 Z M 967 144 L 933 157 Q 912 166 917 183 L 949 186 Q 964 183 967 164 L 967 144 Z M 611 105 L 611 105 Q 596 117 628 157 L 673 208 Q 706 253 723 258 Q 730 261 740 261 Q 762 261 796 249 Q 812 244 841 228 L 847 220 Q 852 218 855 218 Q 860 218 860 224 L 862 224 L 875 226 L 942 243 L 986 255 Q 995 256 1002 256 Q 1019 256 1026 248 Q 1032 240 1025 214 L 1017 181 L 1017 205 L 1016 238 L 994 237 L 972 229 L 927 224 L 876 219 Q 852 211 843 186 L 839 196 Q 824 235 778 235 Q 776 235 774 235 L 756 233 Q 731 230 713 212 Q 703 202 692 184 L 687 179 L 639 150 Q 612 130 611 105 Z" fill="rgb(141,124,97)" fill-opacity="1.000"></path><path d="M 607 139 Q 606 156 612 180 L 622 219 L 625 251 Q 627 271 638 277 Q 658 240 657 224 Q 656 211 644 188 Q 631 164 622 159 L 607 139 Z M 567 155 Q 542 208 535 232 L 534 237 Q 532 248 533 278 L 530 319 Q 513 366 441 445 L 358 520 L 328 548 L 294 586 L 286 597 L 286 598 Q 289 611 306 615 L 352 610 L 389 582 L 404 563 L 416 544 L 430 534 L 444 524 Q 496 485 521 433 Q 529 416 527 385 L 527 335 Q 529 335 532 335 Q 554 335 562 309 L 567 259 L 569 208 L 567 155 Z M 627 324 L 617 349 Q 604 352 600 376 L 595 412 Q 580 473 581 490 L 591 537 L 603 584 L 604 625 Q 606 655 617 657 L 621 642 L 621 626 Q 626 589 638 555 L 656 505 L 670 455 L 682 411 Q 684 387 657 364 Q 628 340 627 324 Z M 701 324 Q 694 357 702 479 L 695 596 Q 690 669 698 713 Q 710 700 710 668 L 707 620 L 712 515 L 712 395 L 707 360 L 701 324 Z M 855 218 Q 852 218 847 220 L 841 228 L 836 238 L 826 243 L 822 254 L 812 274 L 822 294 Q 810 303 810 330 L 812 370 Q 812 432 821 464 L 835 509 L 846 554 L 855 640 L 857 674 L 865 707 L 891 758 L 895 683 L 892 607 L 897 540 Q 892 501 896 485 Q 899 476 912 462 L 928 439 Q 938 408 918 393 Q 887 371 881 359 Q 875 346 877 322 L 876 284 L 861 234 L 860 224 Q 860 218 855 218 Z M 557 519 L 532 789 L 532 1054 L 535 1092 L 537 1129 Q 541 1130 545 1130 Q 563 1130 579 1106 L 601 1060 Q 610 1021 621 1004 L 648 969 Q 662 940 642 902 Q 617 854 617 834 Q 616 795 593 759 Q 570 724 566 685 Q 557 586 557 519 Z" fill="rgb(118,102,77)" fill-opacity="1.000"></path><path d="M 313 1060 L 295 1088 Q 282 1106 282 1119 Q 307 1128 322 1141 Q 322 1086 313 1060 Z M 1206 881 Q 1206 911 1216 956 L 1231 1031 L 1230 1050 L 1226 1069 L 1227 1089 L 1226 1109 Q 1219 1127 1190 1136 Q 1161 1150 1143 1153 L 1097 1154 L 1074 1152 L 1051 1153 Q 1042 1158 1041 1172 L 1042 1194 L 1041 1198 L 1073 1196 L 1100 1192 L 1107 1190 L 1194 1180 Q 1261 1169 1271 1151 Q 1275 1143 1272 1102 Q 1301 1095 1316 1082 L 1328 1066 L 1331 1059 L 1332 1051 L 1331 1045 L 1328 1028 L 1327 1026 L 1326 1024 L 1325 1022 L 1306 970 L 1304 965 L 1302 960 L 1301 958 L 1290 973 Q 1280 992 1270 992 Q 1261 992 1253 978 L 1247 954 L 1242 929 L 1222 906 Q 1208 893 1206 881 Z M 752 1101 Q 754 1135 707 1175 L 696 1186 L 680 1193 L 663 1195 Q 655 1196 652 1204 L 608 1242 L 631 1239 Q 658 1237 690 1220 Q 734 1197 746 1193 L 769 1189 L 802 1189 L 796 1171 Q 788 1152 752 1101 Z" fill="rgb(63,55,44)" fill-opacity="1.000"></path><path d="M 1563 1038 Q 1567 1049 1585 1050 Q 1604 1050 1603 1038 Z M 22 1047 Q 6 1047 0 1055 Q 9 1066 43 1066 L 88 1058 L 48 1048 L 22 1047 Z M 1463 1038 L 1428 1043 L 1456 1047 Q 1470 1052 1468 1067 L 1522 1062 Q 1522 1050 1497 1044 L 1463 1038 Z M 74 1113 Q 68 1113 63 1118 Q 71 1119 77 1119 Q 89 1119 93 1114 L 78 1114 Q 76 1114 74 1114 Z M 1448 1120 Q 1440 1121 1433 1130 Q 1440 1136 1448 1136 Q 1451 1136 1454 1135 Q 1466 1132 1468 1120 Z M 153 1150 Q 145 1173 173 1176 Q 177 1176 180 1176 Q 201 1176 198 1160 L 193 1150 Z M 1273 1230 L 1269 1237 Q 1274 1244 1283 1245 L 1298 1240 L 1273 1230 Z M 808 1265 Q 798 1265 784 1271 L 822 1275 L 862 1269 L 871 1269 L 813 1265 Q 811 1265 808 1265 Z M 1043 1260 L 1018 1265 Q 1017 1265 1016 1265 Q 1011 1265 1013 1270 Q 1019 1276 1027 1276 Q 1030 1276 1033 1275 Q 1046 1273 1043 1260 Z M 1330 1036 Q 1370 1040 1351 1071 Q 1340 1088 1328 1088 Q 1322 1088 1316 1084 Q 1301 1097 1272 1104 Q 1275 1145 1271 1153 Q 1261 1171 1194 1182 L 1107 1192 L 1100 1194 L 1073 1198 L 1033 1201 L 963 1202 L 958 1202 L 893 1197 L 873 1195 L 809 1192 L 786 1191 L 769 1191 L 746 1195 Q 734 1199 690 1222 Q 658 1239 631 1241 L 608 1244 L 578 1247 L 552 1249 L 550 1249 L 536 1250 L 479 1250 L 471 1249 L 441 1246 Q 409 1241 392 1229 L 389 1227 L 385 1224 L 372 1209 L 365 1200 L 356 1188 L 323 1144 L 322 1143 Q 307 1130 282 1121 Q 228 1108 203 1094 L 201 1093 L 200 1092 L 197 1054 L 179 1059 L 137 1066 L 97 1081 L 53 1086 L 125 1101 Q 142 1106 147 1109 Q 159 1116 157 1130 L 204 1130 Q 236 1130 246 1140 Q 257 1151 250 1155 Q 240 1160 241 1170 Q 242 1181 257 1183 L 282 1187 L 312 1216 L 286 1231 Q 267 1242 271 1256 Q 274 1268 302 1270 L 340 1271 L 390 1283 L 457 1291 L 662 1292 L 715 1280 L 761 1256 Q 792 1240 853 1240 Q 866 1240 880 1241 L 924 1245 L 968 1245 L 1040 1243 L 1111 1240 L 1111 1218 Q 1112 1207 1122 1201 Q 1129 1197 1137 1197 Q 1145 1197 1154 1201 Q 1172 1208 1166 1225 L 1142 1232 Q 1141 1244 1158 1247 L 1186 1246 Q 1189 1209 1234 1206 L 1308 1205 Q 1330 1200 1329 1188 L 1327 1161 Q 1330 1151 1357 1140 L 1362 1138 Q 1380 1130 1391 1130 Q 1392 1130 1393 1130 Q 1387 1119 1364 1119 L 1362 1119 Q 1340 1118 1333 1111 L 1362 1111 L 1392 1105 L 1397 1102 L 1412 1092 L 1429 1091 L 1446 1090 Q 1454 1062 1402 1047 L 1397 1046 L 1362 1038 L 1330 1036 Z M 350 1294 Q 400 1313 481 1315 L 562 1317 L 643 1310 L 428 1305 L 350 1294 Z" fill="rgb(255,255,255)" fill-opacity="0.200"></path><path d="M 762 29 L 759 54 L 747 78 L 771 80 Q 784 80 791 71 Q 800 61 798 29 Z M 822 129 L 797 134 L 784 145 L 768 153 Q 782 155 792 155 Q 829 155 822 129 Z M 1044 81 L 997 89 L 997 115 L 988 130 L 978 140 L 975 152 L 977 165 L 973 183 L 962 198 Q 966 200 969 200 Q 978 200 981 187 Q 987 163 991 160 Q 997 155 1014 153 Q 1029 150 1036 144 Q 1052 128 1052 92 L 1044 81 Z" fill="rgb(123,105,79)" fill-opacity="1.000"></path><path d="M 728 109 Q 730 109 732 109 L 777 119 L 777 128 L 746 132 L 716 128 Q 704 120 711 114 Q 717 109 728 109 Z M 822 129 Q 829 155 792 155 Q 782 155 768 153 L 784 145 L 797 134 L 822 129 Z M 967 144 L 967 164 Q 964 183 949 186 L 917 183 Q 912 166 933 157 L 967 144 Z M 928 0 L 916 1 L 921 4 L 923 4 L 925 5 L 961 51 L 961 55 L 961 56 L 961 60 L 961 66 L 958 83 Q 951 111 937 111 Q 926 111 912 94 L 862 21 L 854 23 L 798 29 Q 800 61 791 71 Q 784 80 771 80 L 747 78 L 759 54 L 762 29 L 761 29 L 752 48 Q 741 59 700 64 Q 692 65 686 65 Q 672 65 667 59 Q 660 51 669 38 L 669 38 L 647 46 L 642 49 Q 643 60 626 82 Q 610 102 617 119 Q 625 139 654 155 L 697 183 L 713 212 Q 731 230 756 233 L 774 235 L 788 227 Q 799 219 806 217 L 826 213 Q 825 192 827 182 L 839 196 L 843 186 Q 852 211 876 219 L 927 224 L 972 229 L 994 237 L 1016 238 L 1017 205 Q 1013 183 1017 177 L 1017 175 Q 1021 170 1033 168 L 1051 165 L 1077 153 L 1081 149 L 1052 92 Q 1052 128 1036 144 Q 1029 150 1014 153 Q 997 155 991 160 Q 987 163 981 187 Q 978 200 969 200 Q 966 200 962 198 L 973 183 L 977 165 L 975 152 L 978 140 L 988 130 L 997 115 L 997 89 L 1044 81 L 1023 56 L 1010 43 L 992 28 L 975 17 L 928 0 Z" fill="rgb(129,110,83)" fill-opacity="1.000"></path><path d="M 472 609 L 462 689 Q 456 704 454 730 L 448 770 L 437 794 L 412 805 Q 412 830 432 830 Q 438 830 445 828 L 463 721 L 472 609 Z M 767 504 L 752 669 L 747 758 Q 749 827 727 852 L 716 863 L 696 876 L 680 892 L 680 894 Q 680 903 702 910 Q 711 913 719 913 Q 742 913 755 886 Q 767 860 767 820 L 767 504 Z M 351 844 Q 342 850 342 862 L 342 883 L 333 919 L 322 955 L 317 999 L 311 1043 L 254 1047 Q 227 1046 213 1031 L 212 1030 L 198 1051 L 197 1051 L 197 1052 L 200 1090 L 201 1091 L 203 1092 Q 228 1106 282 1119 Q 282 1106 295 1088 L 313 1060 Q 322 1086 322 1141 L 323 1142 L 352 1179 Q 348 1156 350 1119 L 352 1059 L 352 961 L 354 902 L 351 844 Z M 1077 219 Q 1063 219 1059 225 Q 1055 230 1057 244 L 1058 334 L 1072 325 Q 1079 320 1084 320 Q 1085 320 1086 320 Q 1084 336 1098 366 L 1107 404 Q 1119 462 1137 509 L 1166 591 L 1172 622 L 1182 652 Q 1225 736 1222 784 Q 1220 804 1209 804 Q 1197 804 1176 778 Q 1158 756 1141 696 L 1126 639 Q 1116 604 1102 584 L 1083 562 L 1066 540 Q 1059 525 1057 494 L 1047 429 L 1027 397 Q 1011 377 1006 365 L 1006 365 Q 1005 384 1015 415 L 1027 465 Q 1027 503 1017 540 L 1005 570 Q 996 589 997 599 Q 1012 596 1015 576 Q 1017 556 1025 555 Q 1030 562 1043 608 Q 1051 641 1081 645 Q 1082 654 1090 670 L 1101 696 L 1112 743 Q 1119 763 1118 803 L 1124 846 L 1127 889 L 1130 959 Q 1131 1005 1117 1025 L 1097 1036 Q 1094 1036 1091 1036 Q 1080 1036 1072 1030 L 1062 978 L 1059 968 L 1059 968 Q 1080 1081 1041 1081 Q 1036 1081 1029 1079 L 1018 1155 Q 1014 1181 1001 1186 L 960 1190 L 955 1191 Q 928 1159 922 1121 Q 918 1085 930 1015 L 940 975 L 947 935 L 943 887 Q 939 855 945 813 L 956 740 Q 955 740 955 740 Q 938 740 927 768 L 916 813 Q 908 864 897 890 L 884 917 L 869 945 L 862 963 L 906 965 Q 908 1006 903 1022 L 891 1048 L 878 1073 Q 871 1091 871 1118 L 872 1164 L 873 1193 L 893 1195 L 958 1200 L 963 1200 L 1041 1198 L 1042 1194 L 1041 1172 Q 1042 1158 1051 1153 L 1074 1152 L 1097 1154 L 1143 1153 Q 1161 1150 1190 1136 Q 1219 1127 1226 1109 L 1227 1089 L 1226 1069 L 1230 1050 L 1231 1031 L 1216 956 Q 1206 911 1206 881 L 1206 881 Q 1208 893 1222 906 L 1242 929 L 1247 954 L 1253 978 Q 1261 992 1270 992 Q 1280 992 1290 973 L 1301 958 L 1298 949 L 1296 942 L 1265 867 L 1237 791 L 1193 615 L 1140 452 Q 1107 353 1111 287 L 1108 231 Q 1093 219 1077 219 Z M 801 755 Q 789 768 789 798 L 792 844 Q 792 900 783 942 L 758 1034 L 747 1098 Q 737 1144 716 1145 L 703 1139 Q 701 1137 697 1137 Q 694 1137 689 1140 Q 683 1143 676 1157 L 661 1174 Q 655 1168 659 1141 L 660 1101 Q 659 1101 659 1101 Q 650 1101 639 1112 L 622 1131 L 605 1142 L 588 1150 L 621 1156 Q 626 1201 593 1211 Q 585 1213 567 1213 Q 549 1213 522 1211 L 522 1170 L 527 1026 L 527 896 L 526 889 L 515 835 Q 508 807 507 788 L 502 882 L 502 966 Q 502 1020 487 1020 Q 485 1020 483 1019 L 475 1008 L 473 1034 L 466 1075 L 458 1098 L 451 1120 L 452 1148 L 452 1176 L 450 1211 L 441 1245 L 471 1248 L 479 1249 L 536 1249 L 550 1248 L 552 1248 L 578 1246 L 608 1243 L 652 1205 Q 655 1197 663 1196 L 680 1194 L 696 1187 L 707 1176 Q 754 1136 752 1102 L 752 1102 Q 788 1153 796 1172 Q 804 1140 804 1084 L 802 1008 L 802 876 L 805 816 L 801 756 Z" fill="rgb(77,68,54)" fill-opacity="1.000"></path></g></g></g></g></g></g><defs><defs></defs></defs></svg>