<svg color-interpolation-filters="sRGB" fill-rule="evenodd" pointer-events="none" width="100%" height="100%" xmlns="http://www.w3.org/2000/svg" xmlns:xlink="http://www.w3.org/1999/xlink" style="-webkit-user-select: none;"><g transform="matrix(0.04938271604938272 0 0 0.04938271604938272 2.802469135802454 0)"><g><rect x="-56.749999999999694" y="0" width="9436.499999999998" height="1052.9999999999998" fill="rgb(255,255,255)"></rect><g><g><g><g><path d="M 4309 70 Q 4333 70 4358 78 Q 4360 89 4335 89 Q 4333 89 4331 89 L 4296 85 L 4295 85 L 4264 78 Q 4286 71 4310 71 Z M 4487 90 Q 4511 90 4563 104 L 4521 106 L 4467 99 Q 4468 90 4487 90 Z M 5639 102 L 5666 106 L 5669 108 L 5667 109 L 5613 106 L 5639 102 Z M 2676 129 L 2677 129 L 2677 129 Q 2676 129 2676 129 Z M 2677 129 Q 2679 130 2680 131 L 2680 131 L 2679 130 L 2678 130 L 2676 129 Z M 4517 119 Q 4531 131 4511 131 Q 4505 132 4500 132 Q 4484 132 4467 124 L 4517 119 Z M 2680 131 L 2680 131 L 2688 142 Q 2686 135 2680 131 Q 2680 131 2680 131 Z M 5295 144 L 5301 148 L 5262 151 L 5220 149 L 5229 144 Z M 5490 139 Q 5495 139 5500 140 Q 5520 143 5532 151 L 5465 148 Q 5474 139 5490 139 Z M 4403 130 L 4465 136 Q 4468 154 4417 154 Q 4414 154 4412 154 L 4344 147 Q 4390 132 4403 130 Z M 6584 139 L 6605 146 Q 6607 155 6593 155 Q 6587 155 6579 154 Q 6549 148 6558 140 L 6559 139 Z M 5852 144 L 5902 149 Q 5909 156 5896 156 Q 5894 156 5893 156 L 5849 158 L 5806 150 L 5852 144 Z M 6490 149 Q 6494 160 6484 160 Q 6482 160 6479 159 L 6419 154 L 6490 149 Z M 7339 163 L 7342 164 L 7336 166 L 7290 164 L 7339 163 Z M 6158 162 L 6157 168 L 6134 166 L 6139 162 Z M 6203 164 Q 6208 164 6208 168 L 6188 168 Q 6199 164 6204 164 Z M 7176 160 Q 7192 160 7213 161 Q 7286 167 7281 181 L 7178 176 L 7153 178 Q 7133 178 7135 168 Q 7138 160 7176 160 Z M 5333 165 Q 5344 165 5334 175 Q 5338 185 5312 185 Q 5287 185 5289 175 Q 5322 166 5333 166 Z M 6177 186 Q 6168 198 6155 198 Q 6150 198 6146 196 Q 6128 193 6148 189 L 6177 186 Z M 2194 190 Q 2195 190 2197 190 Q 2214 191 2215 200 L 2177 199 Q 2180 190 2194 190 Z M 5648 177 L 5732 201 L 5700 206 Q 5686 207 5668 207 Q 5638 207 5597 204 L 5591 203 Q 5595 186 5648 177 Z M 5172 170 L 5264 171 Q 5270 208 5194 208 Q 5188 208 5182 208 L 5122 208 Q 5079 204 5081 183 Q 5119 171 5172 170 Z M 6900 181 L 6932 197 Q 6959 211 6956 218 L 6914 218 L 6784 209 L 6852 201 Q 6899 199 6900 181 Z M 1821 206 L 1828 216 L 1800 221 L 1743 217 L 1743 214 L 1784 206 Z M 5909 203 Q 5933 205 5929 218 L 5893 221 Q 5869 221 5859 211 Q 5868 204 5877 203 Z M 4590 167 L 4701 170 Q 4715 174 4809 216 L 4782 221 Q 4778 221 4774 221 Q 4661 221 4590 167 Z M 4290 179 Q 4349 179 4369 200 Q 4359 219 4306 224 L 4236 223 L 4185 218 Q 4144 211 4151 195 L 4261 180 Q 4277 179 4290 179 Z M 2311 202 Q 2346 202 2359 210 Q 2356 220 2336 223 L 2308 226 L 2270 229 Q 2268 229 2266 229 Q 2244 229 2234 220 Q 2246 205 2296 202 Q 2304 202 2311 202 Z M 6502 205 Q 6511 205 6522 206 Q 6569 209 6589 217 Q 6582 231 6529 233 Q 6523 233 6518 233 Q 6475 233 6472 218 Q 6468 205 6502 205 Z M 4419 223 Q 4446 223 4457 234 Q 4456 243 4429 243 Q 4420 243 4408 242 Q 4361 239 4352 230 L 4378 224 L 4420 223 Z M 6863 232 Q 6861 244 6854 244 Q 6850 244 6845 239 L 6863 232 Z M 7589 220 Q 7595 220 7603 221 Q 7629 225 7620 237 Q 7617 245 7605 245 Q 7600 245 7592 243 Q 7571 238 7563 229 Q 7573 220 7589 220 Z M 6948 235 Q 6954 235 6961 236 Q 6992 241 7002 252 Q 6999 260 6971 260 Q 6968 260 6965 260 Q 6931 258 6929 249 L 6929 247 Q 6929 235 6948 235 Z M 7580 245 Q 7592 245 7585 257 Q 7577 260 7569 260 Q 7558 260 7548 253 Q 7571 245 7580 245 Z M 4497 252 Q 4503 252 4499 261 L 4498 261 L 4482 258 L 4493 253 Q 4495 252 4497 252 Z M 6352 249 Q 6385 249 6384 264 L 6381 264 L 6361 263 Q 6342 259 6352 249 Z M 1782 252 Q 1797 265 1762 268 Q 1756 269 1751 269 Q 1731 269 1749 254 L 1782 252 Z M 4019 243 Q 4050 243 4055 251 Q 4053 271 4010 271 Q 4004 271 3998 271 L 3926 259 Q 3930 246 3941 246 Q 3945 246 3949 248 L 4006 244 Q 4013 244 4019 244 Z M 6878 265 Q 6881 265 6884 265 Q 6904 267 6903 274 L 6902 274 Q 6900 275 6901 275 L 6901 275 L 6866 273 Q 6864 265 6878 265 Z M 6902 275 L 6902 275 L 6904 275 Q 6903 275 6902 275 Q 6902 275 6902 275 Z M 2140 226 Q 2186 226 2193 245 Q 2192 261 2173 266 L 2092 276 Q 2041 276 2011 263 Q 2016 238 2099 229 Q 2122 226 2140 226 Z M 4383 265 Q 4388 276 4368 277 L 4343 275 Q 4336 277 4328 277 Q 4311 277 4297 267 L 4383 265 Z M 7693 254 Q 7701 254 7714 258 Q 7741 266 7738 280 L 7682 281 L 7636 274 L 7634 269 L 7631 264 Q 7638 258 7660 258 L 7701 260 L 7683 258 Q 7686 255 7693 255 Z M 6478 263 Q 6486 263 6496 264 L 6551 271 Q 6556 270 6561 270 Q 6579 270 6591 286 L 6507 282 L 6444 272 Q 6454 263 6478 263 Z M 2599 263 Q 2622 263 2636 274 Q 2632 284 2611 286 L 2582 286 L 2560 288 L 2540 284 Q 2557 267 2588 264 Q 2594 263 2599 263 Z M 5458 277 Q 5447 279 5448 282 L 5451 291 L 5406 296 Q 5431 281 5458 277 Z M 5552 282 Q 5556 282 5551 296 L 5536 295 L 5541 291 Q 5549 282 5552 282 Z M 5901 249 Q 5940 249 5975 261 Q 6015 275 5990 287 L 5845 297 Q 5841 298 5837 298 Q 5819 298 5804 287 Q 5825 255 5884 250 Q 5893 249 5901 249 Z M 1643 260 L 1691 267 Q 1696 286 1651 294 Q 1626 298 1609 298 Q 1572 298 1572 280 Q 1579 274 1593 268 L 1643 260 Z M 1029 294 L 1030 302 L 956 307 L 888 295 L 1029 294 Z M 3067 294 Q 3079 294 3076 307 Q 3063 311 3052 311 Q 3041 311 3031 307 Q 3040 299 3059 295 Q 3064 294 3068 294 Z M 3897 265 Q 3867 294 3810 309 L 3716 311 L 3713 310 L 3715 304 Q 3725 288 3798 277 L 3897 265 Z M 6385 295 Q 6427 298 6428 312 Q 6423 319 6403 319 Q 6401 319 6398 319 L 6365 314 Q 6345 314 6330 302 L 6327 298 L 6385 295 Z M 2122 291 Q 2151 291 2165 315 L 2165 316 Q 2162 321 2146 321 Q 2121 321 2064 307 Q 2098 291 2122 291 Z M 5462 305 Q 5480 305 5476 321 L 5473 321 L 5474 323 L 5440 317 Q 5438 307 5460 305 Q 5461 305 5462 305 Z M 2258 291 Q 2271 291 2287 293 Q 2350 298 2354 317 Q 2338 325 2311 325 L 2273 322 L 2272 321 L 2267 321 L 2237 317 Q 2218 314 2213 304 Q 2222 291 2258 291 Z M 5538 317 Q 5561 327 5541 327 Q 5538 327 5535 327 Q 5518 327 5518 322 L 5518 322 Q 5522 323 5525 323 Q 5533 323 5538 317 Z M 1452 292 Q 1494 292 1515 310 Q 1522 323 1493 331 L 1317 324 Q 1360 301 1419 294 Q 1437 292 1452 292 Z M 2598 317 Q 2605 317 2612 317 L 2745 320 L 2746 326 L 2459 331 Q 2497 317 2598 317 Z M 1755 305 Q 1756 305 1757 305 L 1744 312 L 1772 312 Q 1791 313 1797 321 Q 1809 336 1771 336 Q 1762 336 1751 335 L 1744 336 L 1736 336 L 1715 327 Q 1729 305 1755 305 Z M 1036 309 L 1094 315 Q 1099 336 1067 338 L 1024 334 L 980 328 Q 1005 312 1036 309 Z M 1174 303 Q 1213 303 1219 319 L 1220 325 Q 1204 328 1194 337 L 1139 338 L 1101 332 Q 1106 319 1117 319 Q 1120 319 1124 320 L 1094 310 L 1095 310 L 1156 304 Q 1166 303 1174 303 Z M 4031 280 L 4106 297 Q 4115 323 4005 342 Q 3948 352 3914 352 Q 3883 352 3870 344 Q 3856 335 3920 315 Q 3979 298 3992 298 Q 3993 298 3993 298 Q 3970 292 3981 292 Q 3985 292 3994 293 L 4034 297 L 4030 280 Z M 3181 293 Q 3232 324 3288 330 Q 3266 353 3172 353 Q 3164 353 3156 353 L 3141 352 L 3110 352 Q 3088 350 3088 337 Q 3088 323 3152 319 L 3219 317 L 3181 309 Q 3150 302 3150 293 Z M 4581 321 Q 4613 321 4616 334 Q 4620 352 4561 354 Q 4553 354 4546 354 Q 4508 354 4496 345 L 4493 342 L 4497 337 Q 4508 328 4554 323 Q 4569 321 4581 321 Z M 5179 329 Q 5280 329 5267 349 Q 5259 359 5240 359 Q 5226 359 5206 354 Q 5148 339 5188 339 L 5160 329 Q 5170 329 5179 329 Z M 3475 336 Q 3485 358 3432 361 L 3377 359 L 3367 359 L 3331 350 L 3402 337 L 3475 336 Z M 1092 346 Q 1099 346 1108 348 Q 1142 356 1135 363 L 1066 361 Q 1073 346 1092 346 Z M 5714 349 Q 5727 349 5741 351 Q 5724 366 5698 367 L 5651 364 L 5648 364 Q 5680 349 5714 349 Z M 668 356 Q 670 356 672 356 Q 692 357 696 364 Q 696 372 673 372 Q 670 372 668 372 L 634 366 Q 648 356 668 356 Z M 4769 356 Q 4763 372 4739 378 Q 4733 379 4729 379 Q 4716 379 4710 369 L 4707 363 L 4769 356 Z M 3223 366 L 3249 369 Q 3229 381 3208 381 Q 3199 381 3190 379 Q 3203 368 3223 366 Z M 753 373 Q 757 373 762 373 Q 785 374 787 381 L 785 382 L 736 379 Q 738 373 753 373 Z M 7454 359 L 7554 367 Q 7544 378 7513 378 Q 7500 378 7482 376 L 7454 372 L 7451 381 L 7424 384 L 7405 380 L 7406 376 L 7406 373 L 7438 369 L 7403 364 L 7376 362 L 7454 359 Z M 5240 368 Q 5247 368 5257 371 Q 5281 377 5291 386 L 5231 383 L 5225 376 Q 5228 368 5240 368 Z M 5034 325 Q 5042 325 5061 332 Q 5102 347 5122 363 Q 5151 386 5074 386 Q 5038 386 4979 381 L 4978 381 Q 4975 381 4972 381 Q 4952 381 4936 369 Q 4932 355 4957 354 L 4989 354 L 4955 339 L 5030 338 Q 5022 325 5034 325 Z M 4588 381 Q 4589 381 4590 381 L 4604 381 Q 4624 389 4601 396 Q 4594 398 4589 398 Q 4578 398 4579 388 Q 4579 381 4588 381 Z M 4426 359 Q 4438 359 4450 360 L 4564 371 Q 4565 390 4541 400 L 4352 400 L 4317 391 Q 4325 379 4338 375 L 4343 373 Q 4376 359 4426 359 Z M 859 364 Q 872 364 875 379 Q 880 406 805 411 L 757 406 Q 787 388 827 381 L 827 381 Q 824 381 822 381 Q 812 381 844 368 Q 853 364 859 364 Z M 334 406 Q 325 420 312 420 Q 306 420 299 417 L 316 410 L 334 406 Z M 7100 398 Q 7162 404 7159 411 Q 7154 422 7122 422 Q 7117 422 7112 422 L 7067 419 L 7062 418 Q 7022 418 7031 403 L 7100 398 Z M 6897 415 Q 6907 415 6921 416 Q 6912 430 6896 433 Q 6893 434 6889 434 Q 6876 434 6864 425 Q 6868 415 6897 415 Z M 659 396 Q 717 434 645 445 Q 614 450 587 450 Q 566 450 546 447 L 546 447 Q 555 449 553 449 Q 552 449 546 448 Q 528 446 537 445 L 507 433 Q 517 414 577 399 L 659 396 Z M 6421 429 Q 6403 450 6377 459 Q 6365 464 6354 464 Q 6336 464 6324 449 Q 6349 437 6376 434 L 6379 434 L 6421 429 Z M 3296 412 L 3422 419 L 3525 443 L 3510 433 Q 3528 420 3551 420 Q 3553 420 3554 420 L 3601 426 Q 3609 446 3566 446 Q 3552 446 3532 444 L 3525 443 Q 3484 468 3339 468 Q 3334 468 3330 468 Q 3189 468 3156 439 Q 3161 423 3221 417 L 3296 412 Z M 8265 439 L 8419 452 Q 8426 467 8354 473 Q 8322 476 8300 476 Q 8274 476 8260 472 Q 8225 463 8230 454 Q 8234 446 8265 439 Z M 1151 416 L 1165 420 Q 1170 457 1196 479 Q 1171 486 1143 486 Q 1115 486 1083 480 Q 1017 468 980 437 Q 984 422 1062 418 L 1152 417 Z M 380 472 Q 396 472 399 480 L 396 485 Q 387 493 365 493 Q 363 493 360 493 L 316 488 Q 327 482 356 475 Q 370 472 380 472 Z M 199 474 Q 208 474 212 482 Q 216 500 198 505 L 168 505 Q 161 489 183 479 Q 192 474 199 474 Z M 6770 502 Q 6779 510 6766 512 Q 6762 513 6760 513 Q 6753 513 6750 508 L 6770 502 Z M 1047 503 L 1063 507 L 1065 511 L 1063 512 Q 1056 514 1050 514 Q 1038 514 1027 505 L 1047 503 Z M 6708 502 Q 6734 502 6733 514 L 6681 515 L 6652 510 L 6696 503 Q 6703 502 6708 502 Z M 8084 504 Q 8090 504 8092 511 L 8092 514 Q 8088 516 8084 516 Q 8076 516 8070 509 L 8070 509 Q 8077 510 8080 510 Q 8087 510 8080 505 Q 8083 504 8085 504 Z M 3981 488 L 3981 488 Q 3965 491 3938 506 Q 3918 517 3901 517 Q 3898 517 3896 517 Q 3896 509 3914 502 L 3939 495 L 3981 488 Z M 958 495 L 1011 497 Q 1032 510 983 522 L 921 525 L 919 524 L 916 522 Q 923 504 958 495 Z M 1973 517 L 1973 520 L 1911 529 Q 1908 529 1904 529 Q 1861 529 1850 517 Z M 489 507 Q 493 507 499 508 Q 528 511 525 522 Q 523 529 510 529 Q 505 529 498 528 L 469 519 Q 469 507 489 507 Z M 7892 466 Q 7906 466 7910 480 L 7907 488 L 7964 492 Q 8035 511 8020 534 L 8007 540 L 7897 529 Q 7888 524 7887 516 L 7887 513 Q 7890 497 7902 491 L 7902 491 L 7884 492 Q 7856 492 7854 480 Q 7879 467 7893 467 Z M 393 527 L 418 528 Q 420 541 399 542 L 377 541 L 371 538 L 372 537 Q 377 529 393 527 Z M 6164 477 L 6242 503 Q 6303 524 6301 533 L 6179 542 L 6063 530 Q 6067 530 6060 528 Q 6056 527 6055 527 Q 6053 527 6056 529 Q 6039 521 6075 515 L 6114 511 L 6094 508 L 6066 501 L 6128 496 Q 6166 491 6164 477 Z M 3808 503 L 3775 529 Q 3756 546 3744 546 L 3681 549 Q 3638 549 3624 534 Q 3652 515 3713 510 L 3808 503 Z M 2474 520 Q 2490 520 2510 521 L 2643 531 Q 2649 548 2554 548 L 2473 552 Q 2422 552 2394 538 Q 2402 520 2474 520 Z M 8704 526 Q 8702 544 8706 555 L 8684 554 L 8650 554 Q 8626 552 8631 539 L 8704 526 Z M 6701 521 Q 6713 521 6729 523 L 6796 536 Q 6798 563 6756 563 Q 6744 563 6728 561 Q 6655 551 6668 531 Q 6675 521 6701 521 Z M 1004 531 Q 1042 531 1038 558 Q 1044 578 1013 578 Q 1007 578 998 577 Q 960 574 946 563 L 946 554 L 945 549 Q 955 535 993 531 Q 999 531 1004 531 Z M 256 578 L 218 583 L 186 582 L 256 578 Z M 2612 563 Q 2648 563 2652 583 L 2648 585 L 2596 590 Q 2551 589 2543 579 Q 2537 571 2593 564 Q 2603 563 2612 563 Z M 6792 588 Q 6794 588 6797 588 L 6816 591 L 6781 593 Q 6784 588 6792 588 Z M 1510 543 L 1512 553 L 1499 556 Q 1441 571 1359 597 L 1338 595 Q 1333 596 1328 596 Q 1308 596 1289 586 Q 1326 543 1510 543 Z M 6167 585 L 6206 586 Q 6209 599 6178 599 Q 6176 599 6174 599 L 6135 593 L 6132 593 Q 6134 590 6138 589 L 6167 585 Z M 448 561 Q 438 589 412 600 L 355 603 L 357 594 Q 364 583 394 574 L 448 561 Z M 3406 561 Q 3450 561 3523 578 Q 3544 584 3526 591 L 3498 598 L 3420 604 Q 3375 603 3343 589 Q 3350 561 3406 561 Z M 6336 581 Q 6339 581 6342 581 L 6398 586 L 6457 581 Q 6495 581 6508 600 Q 6504 616 6446 616 Q 6429 616 6408 615 Q 6317 609 6296 595 Q 6295 581 6336 581 Z M 4544 582 Q 4558 601 4573 610 Q 4549 630 4487 630 Q 4460 630 4426 626 Q 4312 615 4299 582 Z M 4632 624 L 4717 631 L 4673 636 Q 4645 634 4632 624 Z M 3202 631 Q 3203 631 3205 631 L 3221 631 Q 3235 638 3217 638 Q 3208 638 3192 636 Q 3194 631 3202 631 Z M 2278 598 Q 2312 601 2321 610 L 2313 629 Q 2298 642 2278 642 Q 2262 642 2242 633 Q 2198 613 2233 601 L 2278 598 Z M 7081 598 L 7089 604 L 7103 602 Q 7123 619 7152 622 L 7155 623 Q 7172 638 7168 643 L 7080 646 Q 7002 635 6996 613 L 7039 604 L 7081 598 Z M 3078 591 Q 3119 591 3158 605 Q 3229 632 2984 648 L 2979 648 L 2944 647 Q 2920 645 2916 632 Q 2991 604 3001 604 Q 3001 604 3002 604 L 3000 601 L 3078 591 Z M 8888 631 Q 8904 642 8839 650 L 8761 654 Q 8741 646 8804 637 L 8888 631 Z M 4539 642 Q 4563 642 4583 658 L 4542 664 Q 4519 662 4512 655 L 4508 650 L 4507 648 L 4510 647 Q 4525 642 4539 642 Z M 5224 652 L 5281 653 Q 5282 664 5257 664 Q 5255 664 5253 664 L 5226 657 L 5224 652 Z M 8473 593 L 8496 613 Q 8499 616 8502 616 Q 8507 616 8509 603 L 8529 623 Q 8530 624 8531 624 Q 8536 624 8539 604 Q 8572 650 8580 650 Q 8581 650 8581 649 L 8581 649 Q 8574 665 8523 665 Q 8508 665 8490 664 L 8368 645 L 8364 624 L 8473 615 L 8473 593 Z M 2247 651 Q 2251 651 2252 653 L 2266 663 Q 2258 667 2250 667 Q 2238 667 2228 657 Q 2240 651 2247 651 Z M 5448 648 L 5482 650 Q 5499 657 5504 673 Q 5490 675 5478 675 Q 5436 675 5420 655 L 5448 648 Z M 3170 661 Q 3195 666 3192 671 Q 3188 679 3168 679 Q 3166 679 3164 679 L 3133 673 Q 3133 668 3140 668 Q 3142 668 3144 668 L 3147 669 L 3140 663 L 3142 662 L 3170 661 Z M 3925 650 Q 3940 650 3956 651 Q 3961 678 3886 680 Q 3877 680 3868 680 Q 3813 680 3795 669 Q 3844 650 3925 650 Z M 5136 649 Q 5166 650 5186 663 Q 5176 685 5115 685 Q 5112 685 5110 685 Q 5044 683 5044 657 L 5082 651 Q 5075 650 5079 650 Q 5081 650 5086 650 Q 5101 650 5082 651 L 5136 649 Z M 4171 636 Q 4208 636 4236 656 Q 4235 675 4199 684 L 4147 690 Q 4131 691 4116 691 Q 4064 691 4030 675 L 4134 640 Q 4153 636 4171 636 Z M 5688 618 Q 5712 618 5768 637 L 5775 637 Q 5806 639 5822 680 Q 5783 694 5711 694 Q 5656 694 5581 686 Q 5611 667 5641 657 L 5598 657 L 5635 650 Q 5661 643 5651 632 L 5651 632 L 5693 638 L 5680 619 Q 5683 618 5688 618 Z M 6593 682 L 6647 683 Q 6690 692 6688 696 L 6638 699 Q 6617 698 6604 690 L 6592 682 Z M 3056 659 L 3078 672 Q 3094 684 3087 692 Q 3075 704 3034 704 Q 3025 704 3015 703 Q 2957 700 2948 685 Q 2938 671 2993 663 L 3046 659 Z M 2145 683 Q 2151 683 2158 684 L 2208 694 Q 2230 702 2181 705 Q 2171 706 2161 706 Q 2128 706 2114 697 Q 2120 683 2145 683 Z M 678 684 Q 692 687 697 701 Q 686 707 667 707 Q 664 707 662 707 Q 638 706 629 695 Q 640 684 678 684 Z M 2385 643 Q 2388 643 2390 643 Q 2422 644 2488 672 L 2500 687 Q 2496 708 2431 708 Q 2414 708 2393 707 Q 2291 700 2289 672 Q 2343 643 2385 643 Z M 5056 689 L 5074 696 Q 5085 700 5084 709 L 5052 705 Q 5031 698 5056 689 Z M 828 694 Q 885 703 881 710 L 845 712 Q 817 700 828 694 Z M 6145 722 Q 6148 723 6151 724 L 6151 724 L 6145 722 Z M 7677 721 L 7716 722 L 7681 724 L 7674 722 L 7677 721 Z M 43 704 L 81 729 L 66 717 L 43 704 Z M 6601 702 L 6662 709 Q 6710 716 6709 730 L 6634 724 Q 6585 712 6597 704 L 6600 703 L 6601 702 Z M 6903 682 Q 6984 701 6976 711 Q 6957 731 6859 731 Q 6854 731 6849 731 Q 6740 730 6728 704 Q 6763 687 6814 683 L 6882 682 Z M 2259 719 Q 2260 719 2262 719 L 2263 719 L 2301 724 Q 2305 736 2277 736 Q 2275 736 2273 736 L 2235 727 Q 2248 719 2259 719 Z M 3773 689 L 3843 724 Q 3847 744 3816 744 Q 3801 744 3779 740 Q 3718 727 3770 691 L 3773 689 Z M 7273 733 Q 7277 733 7281 734 Q 7296 737 7308 747 L 7263 745 L 7255 742 Q 7261 733 7273 733 Z M 8499 726 Q 8504 726 8508 727 Q 8532 747 8503 749 L 8467 742 Q 8481 726 8499 726 Z M 2673 714 Q 2689 743 2653 749 Q 2645 750 2636 750 Q 2612 750 2592 739 Q 2588 722 2670 715 L 2673 714 Z M 2916 734 L 2961 744 Q 2950 751 2937 751 Q 2931 751 2925 749 Q 2912 748 2916 734 Z M 5756 709 Q 5780 713 5787 737 Q 5769 756 5712 756 Q 5700 756 5686 755 Q 5604 751 5600 717 L 5676 709 Z M 7466 709 Q 7470 709 7474 709 L 7531 712 L 7618 744 Q 7623 758 7583 758 Q 7562 758 7530 754 Q 7435 744 7420 719 Q 7426 709 7466 709 Z M 213 752 L 215 758 L 215 757 L 216 762 L 215 756 L 214 753 L 213 752 Z M 7258 754 L 7301 759 Q 7303 769 7290 769 Q 7284 769 7275 767 Q 7245 761 7258 754 Z M 7331 742 L 7398 760 L 7420 772 L 7364 774 Q 7338 765 7331 742 Z M 2875 748 Q 2909 748 2926 766 Q 2921 783 2873 783 Q 2868 783 2862 783 Q 2806 781 2792 769 Q 2782 761 2843 751 Q 2861 748 2875 748 Z M 926 732 L 957 740 Q 953 760 960 786 L 874 788 Q 824 782 799 765 Q 800 746 856 738 L 926 732 Z M 2983 775 Q 2993 775 3002 782 L 2969 790 Q 2967 790 2966 790 Q 2944 790 2941 777 L 2941 777 L 2968 779 Q 2976 775 2983 775 Z M 4043 729 Q 4103 729 4186 752 Q 4240 784 4195 794 L 4111 799 L 4007 802 Q 3926 800 3921 776 Q 3957 729 4043 729 Z M 4924 799 Q 4927 799 4931 801 L 4932 801 L 4911 806 Q 4918 799 4924 799 Z M 159 770 L 160 786 L 182 809 L 162 776 L 159 770 Z M 1656 807 Q 1676 807 1676 818 Q 1675 830 1651 830 Q 1649 830 1647 830 Q 1624 829 1622 819 L 1621 817 L 1621 813 L 1624 812 L 1650 807 Q 1653 807 1656 807 Z M 3630 795 Q 3668 795 3682 826 L 3620 835 Q 3616 835 3612 835 Q 3570 835 3559 825 L 3557 823 L 3561 819 Q 3583 798 3621 795 Q 3626 795 3630 795 Z M 6159 749 Q 6162 762 6184 811 L 6197 844 L 6216 844 Q 6197 764 6159 749 Z M 6586 842 L 6587 844 L 6586 842 Z M 1481 792 L 1590 793 Q 1587 841 1510 844 Q 1506 844 1502 844 Q 1435 844 1407 813 Q 1431 796 1481 792 Z M 233 827 L 232 835 L 232 832 L 231 845 L 232 836 L 232 840 L 232 844 L 236 839 L 233 827 Z M 4299 844 L 4313 846 L 4313 846 Q 4307 845 4299 844 Z M 6207 763 Q 6204 780 6212 814 L 6219 844 L 6231 844 L 6263 846 L 6238 810 L 6207 763 Z M 6587 844 L 6589 847 L 6588 845 L 6587 844 Z M 6450 832 L 6452 847 L 6484 846 Q 6467 832 6450 832 Z M 6506 804 Q 6504 817 6513 839 L 6516 846 L 6540 847 L 6506 804 Z M 5988 790 Q 5984 790 5986 801 L 5968 792 L 5968 792 Q 5986 803 5995 826 L 6002 850 L 6013 848 L 5996 805 L 6021 815 L 5995 794 Q 5990 790 5988 790 Z M 6258 776 Q 6253 789 6260 817 L 6268 847 L 6304 850 L 6308 847 L 6258 776 Z M 6698 832 L 6699 850 L 6702 838 L 6698 832 Z M 9090 763 Q 9090 763 9089 763 Q 9095 804 9087 805 Q 9087 805 9086 805 Q 9079 805 9053 784 L 9053 784 Q 9056 798 9051 814 Q 9041 804 9026 801 L 9026 801 Q 9028 817 9013 823 Q 9001 813 8998 796 Q 8987 804 8987 845 L 8987 850 L 8989 849 L 8990 831 L 9001 847 L 9014 845 L 9016 841 Q 9041 809 9088 809 L 9117 774 Q 9096 763 9090 763 Z M 6563 808 Q 6562 830 6567 851 L 6568 851 L 6566 844 L 6585 842 L 6586 842 L 6563 808 Z M 6705 842 L 6711 853 L 6711 851 L 6705 842 Z M 206 787 L 191 830 Q 193 825 196 825 Q 201 825 206 841 Q 211 853 218 853 Q 220 853 223 852 L 219 841 Q 219 825 207 823 L 206 787 Z M 5968 823 L 5980 856 L 5988 854 L 5968 823 Z M 6589 847 L 6593 856 L 6595 856 L 6589 847 Z M 6830 811 Q 6824 814 6826 856 L 6829 858 L 6828 843 L 6840 847 L 6830 811 Z M 6614 821 Q 6607 830 6608 858 L 6622 861 L 6623 858 L 6625 861 L 6632 862 L 6626 848 L 6614 821 Z M 315 807 L 338 867 L 339 867 L 333 847 L 315 807 Z M 5931 837 L 5935 868 L 5938 867 L 5947 865 L 5931 837 Z M 304 866 L 302 872 L 304 872 L 304 866 Z M 426 837 Q 442 853 483 871 L 498 878 Q 436 840 426 837 Z M 272 813 L 267 862 L 264 876 L 280 880 L 275 847 Q 270 826 272 814 L 272 813 Z M 298 874 L 281 880 L 282 880 L 298 874 Z M 5905 846 Q 5902 850 5901 880 L 5915 875 L 5905 846 Z M 8827 876 L 8822 885 L 8826 884 L 8827 876 Z M 8810 872 L 8809 886 L 8809 887 L 8810 887 L 8815 880 L 8811 875 L 8810 872 Z M 5848 827 L 5826 873 L 5815 890 L 5824 887 L 5849 889 L 5850 880 Q 5854 843 5848 827 Z M 3987 837 L 3978 877 L 3968 893 L 4004 893 L 4003 881 Q 4001 839 3987 837 Z M 3954 837 L 3926 895 L 3928 895 L 3939 879 Q 3945 873 3949 873 Q 3956 873 3956 894 Q 3960 843 3954 837 Z M 8776 889 L 8774 895 L 8777 895 L 8776 889 Z M 353 882 L 347 897 L 357 891 L 353 882 Z M 3908 865 L 3901 878 L 3908 876 L 3907 897 L 3909 897 L 3909 894 L 3908 865 Z M 8748 888 L 8746 892 L 8744 896 L 8744 897 L 8745 897 L 8749 888 Z M 6829 889 L 6827 892 L 6828 898 L 6829 898 L 6829 889 Z M 8710 886 L 8710 898 L 8714 898 L 8710 886 Z M 346 896 L 344 900 L 346 898 L 346 896 Z M 1748 861 Q 1747 899 1685 903 L 1597 895 Q 1605 884 1625 881 L 1654 878 L 1662 878 L 1704 873 L 1748 861 Z M 8500 902 L 8499 903 L 8501 903 L 8500 902 Z M 389 794 L 439 820 Q 486 847 489 852 Q 499 865 531 865 Q 557 866 572 907 L 569 907 Q 560 907 545 899 L 518 887 L 518 887 Q 544 903 530 903 Q 524 903 509 900 L 441 882 L 440 882 L 439 879 Q 419 835 389 794 Z M 363 834 L 378 897 L 377 898 L 378 899 L 386 909 L 372 860 L 363 834 Z M 5815 843 Q 5790 859 5775 907 L 5775 909 L 5779 904 Q 5786 897 5789 897 Q 5792 897 5790 906 L 5803 876 L 5815 843 Z M 5822 902 Q 5818 902 5813 904 L 5803 909 L 5815 908 L 5830 904 Q 5826 903 5822 903 Z M 5281 796 Q 5273 813 5277 886 L 5278 913 L 5305 912 L 5301 893 L 5281 796 Z M 8047 840 Q 8035 840 8026 851 L 8000 874 L 7970 879 L 7927 892 Q 7926 892 7926 892 Q 7918 892 7907 869 L 7850 888 L 7786 895 L 7779 861 Q 7738 862 7676 913 L 7701 910 L 7822 910 Q 7829 903 7834 903 Q 7839 903 7842 911 L 7876 910 Q 7889 903 7901 898 L 7907 910 L 8025 909 L 8082 904 Q 8106 893 8155 893 Q 8163 893 8171 893 L 8180 894 L 8239 882 L 8256 879 Q 8235 869 8233 850 Q 8228 851 8220 869 Q 8214 883 8207 883 Q 8206 883 8205 883 Q 8200 870 8203 858 L 8203 858 L 8156 878 Q 8147 860 8135 853 L 8107 863 L 8066 865 Q 8070 845 8053 842 Q 8050 841 8047 841 Z M 5339 864 Q 5332 881 5329 914 L 5350 915 L 5339 864 Z M 7668 858 Q 7651 890 7646 917 L 7666 915 L 7668 858 Z M 3518 906 L 3517 919 L 3523 918 L 3518 906 Z M 5232 820 L 5242 877 L 5244 919 L 5261 915 Q 5252 854 5232 820 Z M 7134 909 L 7121 919 L 7133 910 L 7134 909 Z M 3430 911 L 3430 912 L 3433 920 L 3430 911 Z M 5777 868 L 5739 916 L 5741 916 L 5768 920 L 5773 913 L 5777 868 Z M 7639 895 Q 7634 895 7625 904 L 7626 911 L 7612 920 L 7611 921 L 7646 917 Q 7647 895 7639 895 Z M 5392 831 Q 5383 855 5380 900 L 5379 918 L 5394 919 L 5424 923 Q 5407 860 5392 831 Z M 3494 919 Q 3488 919 3480 927 L 3482 927 Q 3487 921 3491 921 Q 3494 921 3496 925 L 3497 926 L 3498 926 L 3495 919 Q 3494 919 3494 919 Z M 7286 916 L 7285 928 L 7286 927 L 7286 916 Z M 2464 868 Q 2438 869 2373 931 L 2384 931 L 2413 927 L 2444 927 L 2452 901 L 2464 868 Z M 3555 905 L 3555 916 Q 3556 914 3558 914 L 3566 931 L 3555 905 Z M 5521 880 L 5532 929 L 5541 931 L 5521 880 Z M 5183 780 Q 5184 799 5204 895 L 5209 932 L 5236 921 L 5238 921 L 5219 854 Q 5202 804 5183 780 Z M 5645 905 L 5639 933 L 5648 933 L 5645 905 Z M 7381 862 L 7369 865 L 7366 885 L 7362 903 L 7389 933 L 7381 862 Z M 5505 874 Q 5485 894 5474 929 L 5505 933 L 5510 932 L 5510 934 L 5514 934 Q 5513 897 5505 874 Z M 5589 868 L 5588 921 L 5590 921 Q 5591 921 5592 921 Q 5608 921 5618 935 L 5619 935 Q 5612 889 5589 868 Z M 638 829 L 639 854 L 646 887 L 656 936 L 634 899 L 622 875 Q 608 845 638 829 Z M 7212 927 L 7210 930 L 7205 939 L 7212 927 Z M 2371 869 Q 2344 869 2290 913 L 2271 930 L 2267 941 Q 2281 933 2305 928 L 2352 915 L 2353 933 L 2357 932 L 2366 912 L 2381 871 Q 2377 869 2371 869 Z M 7415 854 Q 7406 854 7401 902 L 7396 941 L 7419 939 L 7415 854 Z M 4452 830 L 4488 859 Q 4514 875 4523 887 L 4447 875 Q 4398 863 4385 852 L 4385 852 L 4387 857 L 4387 857 L 4313 848 L 4313 848 Q 4323 850 4325 856 Q 4326 859 4324 859 Q 4320 859 4308 852 L 4308 852 Q 4389 906 4412 926 L 4412 926 Q 4410 926 4408 926 Q 4393 926 4387 939 L 4472 933 Q 4509 929 4540 929 Q 4604 929 4640 946 L 4643 946 Q 4644 931 4652 931 Q 4658 931 4667 940 L 4673 946 L 4701 946 L 4701 943 L 4715 946 L 4717 946 L 4685 898 Q 4659 865 4636 862 L 4636 862 Q 4636 884 4642 906 Q 4611 903 4549 870 Q 4484 835 4452 830 Z M 4710 853 Q 4706 888 4718 946 L 4741 946 L 4748 948 L 4755 946 L 4743 921 L 4710 853 Z M 7282 918 L 7246 953 L 7257 952 L 7265 941 L 7268 937 L 7282 918 Z M 3278 853 L 3239 905 Q 3209 944 3193 944 Q 3191 944 3190 943 L 3209 884 L 3115 939 L 3082 954 L 3076 958 L 3133 959 L 3266 948 L 3265 948 L 3278 901 Q 3286 869 3278 853 Z M 1054 946 L 1078 960 L 1058 948 L 1054 946 Z M 7137 955 L 7133 962 L 7135 962 L 7137 955 Z M 817 939 L 822 969 Q 827 968 824 956 L 818 941 L 818 940 L 817 939 Z M 3411 927 L 3391 951 L 3390 952 L 3388 955 L 3387 956 L 3374 975 L 3375 975 L 3393 954 L 3411 936 L 3411 933 L 3411 927 Z M 3342 860 L 3342 860 Q 3308 923 3279 942 L 3295 941 L 3275 976 L 3303 932 Q 3332 888 3342 860 Z M 5078 959 L 5070 964 L 5056 979 L 5078 959 Z M 859 970 L 871 978 L 865 982 L 914 979 L 879 974 L 859 970 Z M 2859 980 L 2876 989 L 2890 986 L 2886 983 L 2859 980 Z M 1017 961 L 1056 990 L 1057 990 L 1156 1003 L 1149 1000 L 1137 994 L 1150 1001 L 1048 971 L 1017 961 Z M 2020 996 L 2011 1003 L 2010 1004 L 2012 1005 L 2027 999 L 2033 996 Z M 1368 995 L 1372 1014 L 1396 1024 L 1408 1023 L 1368 995 Z M 1446 951 L 1451 1023 L 1487 1028 L 1475 1007 L 1446 951 Z M 1898 1019 L 1900 1035 L 1912 1029 L 1898 1019 Z M 1597 1029 Q 1589 1029 1577 1039 L 1574 1042 L 1575 1042 L 1586 1034 Q 1592 1030 1597 1030 Q 1600 1030 1604 1031 Q 1601 1029 1597 1029 Z M 4184 11 Q 4093 13 3915 49 L 3765 74 L 3690 74 L 3303 93 Q 3173 110 3113 131 L 3069 130 L 3069 130 Q 3096 139 3081 139 Q 3071 139 3046 136 L 2992 125 L 2938 120 Q 2937 144 2829 146 Q 2853 155 2864 173 Q 2887 211 2790 211 Q 2771 211 2747 210 L 2698 207 L 2701 192 Q 2701 172 2650 159 Q 2554 133 2276 129 L 2079 144 Q 2054 147 2042 156 Q 2034 153 2046 147 L 2046 147 L 1980 152 Q 1973 152 1968 152 Q 1931 152 1946 135 L 1946 135 L 1868 152 L 1791 152 L 1791 154 L 1545 187 L 1482 201 L 1446 209 L 1406 219 L 1389 220 L 1383 207 L 1344 221 L 1313 221 L 1286 211 L 1283 222 L 1246 222 L 1195 227 L 1135 235 L 876 237 L 798 257 L 786 257 L 769 264 L 724 258 Q 730 246 740 241 L 740 241 L 692 263 Q 677 268 668 268 Q 654 268 650 257 Q 635 305 501 332 L 347 368 Q 269 394 139 491 Q 97 524 91 535 L 55 580 Q 38 605 46 605 Q 50 605 59 600 L 59 600 L 6 638 L 50 631 L 52 668 Q 51 682 31 695 Q 61 677 79 677 Q 90 677 96 683 L 112 699 L 114 691 L 116 703 L 141 727 L 147 722 L 153 740 Q 155 730 165 722 L 182 745 L 221 739 L 221 739 Q 212 763 232 763 Q 237 763 245 761 L 245 761 Q 239 781 235 810 L 233 829 L 236 805 Q 241 773 249 750 L 251 760 L 263 759 L 253 772 L 254 779 L 288 777 L 276 795 Q 276 795 277 795 Q 278 795 278 796 L 279 798 L 303 795 L 303 791 L 306 795 L 347 794 Q 375 797 376 806 L 378 817 L 381 835 L 380 834 L 384 889 L 387 906 L 387 913 L 392 919 L 395 924 L 408 929 Q 412 916 424 908 L 425 909 L 441 927 L 447 933 L 461 943 L 444 895 L 444 894 L 445 894 L 445 895 Q 457 913 483 922 L 470 935 L 499 934 Q 492 934 491 930 L 489 924 L 505 928 L 510 932 L 522 929 L 523 929 Q 585 933 602 967 L 603 970 Q 607 971 613 971 Q 633 971 682 957 Q 688 956 694 956 Q 735 956 728 1008 L 732 998 Q 743 973 760 962 L 781 963 L 784 954 L 790 955 L 782 949 L 765 929 L 728 897 L 727 897 L 714 881 L 726 904 L 732 922 L 746 955 Q 728 915 696 897 L 692 892 Q 652 845 670 841 L 670 841 Q 676 854 679 854 Q 680 854 681 852 Q 685 836 700 836 Q 702 836 703 836 Q 703 853 709 869 Q 717 867 727 867 Q 761 867 821 890 Q 896 918 940 918 Q 945 918 950 918 Q 942 918 938 911 L 938 911 L 1129 951 L 1121 898 L 1154 906 L 1180 911 Q 1199 920 1210 920 Q 1229 920 1226 894 L 1226 894 L 1243 905 L 1225 888 L 1225 888 Q 1261 904 1295 927 L 1286 897 L 1286 897 Q 1338 911 1378 946 Q 1412 977 1421 1011 L 1423 1023 L 1439 1022 Q 1409 965 1361 926 L 1361 926 L 1407 932 Q 1446 937 1444 944 L 1552 958 L 1679 969 L 1665 936 L 1682 940 L 1682 942 L 1685 941 L 1685 941 Q 1685 987 1675 1042 L 1674 1042 L 1708 1044 L 1745 1040 Q 1751 1038 1757 1038 Q 1763 1038 1770 1041 L 1757 1023 L 1727 968 L 1721 1003 L 1712 1038 Q 1705 1036 1703 998 L 1699 949 L 1762 963 Q 1783 968 1782 1029 L 1782 1031 L 1779 1045 L 1793 1056 L 1804 1066 L 1840 1060 L 1843 1039 L 1855 1056 L 1869 1051 L 1859 1027 L 1842 977 L 1865 990 L 1840 963 L 1810 914 Q 1808 956 1799 964 Q 1816 972 1825 992 Q 1839 1020 1827 1053 L 1826 1050 L 1826 1054 L 1805 1005 L 1780 959 L 1782 959 Q 1778 954 1780 946 Q 1784 935 1803 933 Q 1800 914 1811 897 Q 1813 896 1814 896 Q 1822 896 1834 910 Q 1846 924 1857 924 Q 1861 924 1866 922 L 1866 922 Q 1865 937 1873 954 L 1905 920 Q 1910 941 1929 941 Q 1941 941 1958 932 Q 1976 923 1985 923 Q 1996 923 1995 935 Q 2015 933 2050 906 L 2103 870 L 2142 868 L 2186 848 L 2186 848 Q 2185 864 2201 864 Q 2211 864 2227 858 L 2288 829 L 2288 829 Q 2276 845 2313 845 Q 2322 845 2334 844 L 2413 834 L 2481 845 L 2548 855 Q 2528 879 2507 917 Q 2506 889 2496 889 Q 2491 889 2485 895 L 2454 928 L 2485 933 L 2516 933 L 2603 945 L 2687 958 L 2689 959 L 2696 959 L 2695 960 L 2712 963 Q 2733 954 2742 944 L 2762 967 Q 2763 968 2764 968 Q 2771 968 2774 945 L 2823 979 Q 2825 967 2830 957 L 2849 974 Q 2832 956 2821 913 L 2821 913 Q 2815 936 2822 959 Q 2789 930 2759 887 L 2759 887 Q 2766 923 2755 923 Q 2751 923 2746 919 L 2703 881 Q 2696 897 2700 915 Q 2699 915 2698 915 Q 2686 915 2632 886 L 2632 886 L 2637 928 L 2603 905 Q 2568 887 2549 855 Q 2552 855 2554 855 Q 2630 855 2754 882 Q 2896 913 2961 917 Q 2970 919 2982 919 Q 3014 919 3071 902 L 3181 867 Q 3290 839 3350 839 Q 3385 839 3403 849 Q 3394 856 3392 898 L 3391 953 L 3395 905 L 3401 857 L 3481 885 Q 3480 902 3509 902 Q 3512 902 3516 902 L 3562 896 Q 3567 895 3571 895 Q 3589 895 3583 920 L 3662 913 L 3713 905 L 3757 895 L 3756 916 L 3757 913 Q 3763 895 3771 895 Q 3773 895 3776 897 L 3790 915 L 3792 915 L 3776 887 L 3822 870 Q 3815 856 3816 856 Q 3818 856 3827 868 L 3855 859 Q 3905 843 3932 827 Q 3951 816 3976 816 Q 3992 816 4010 820 L 4091 839 Q 4122 842 4152 842 Q 4236 842 4314 819 L 4360 813 L 4365 816 Q 4357 804 4349 804 Q 4347 804 4345 805 Q 4369 789 4407 789 Q 4418 789 4429 790 Q 4459 793 4480 793 Q 4505 793 4518 789 L 4597 787 Q 4607 789 4618 789 Q 4646 789 4673 777 L 4673 777 L 4671 812 L 4724 804 Q 4733 802 4741 802 Q 4755 802 4763 810 Q 4769 816 4784 816 Q 4810 816 4861 798 L 4861 798 L 4828 852 Q 4842 837 4848 837 Q 4853 837 4849 853 L 4833 894 Q 4820 937 4824 984 L 4826 986 L 4847 933 L 4845 946 L 4848 936 L 4848 984 L 4853 991 L 4856 972 Q 4883 988 4893 1013 L 4863 914 Q 4847 838 4870 812 L 4879 871 Q 4884 850 4896 825 L 4897 842 L 4913 917 Q 4928 975 4924 979 Q 4954 953 4971 947 Q 4963 936 4960 897 L 4952 809 L 5037 814 Q 5043 814 5049 814 Q 5093 814 5113 801 L 5113 801 Q 5096 837 5102 839 L 5136 814 L 5136 814 Q 5118 847 5095 867 L 5123 865 L 5123 865 Q 5093 904 5084 964 L 5099 978 L 5126 961 L 5126 961 Q 5113 966 5102 976 Q 5116 942 5122 906 Q 5132 921 5132 935 L 5130 958 L 5134 955 L 5136 965 L 5180 946 L 5164 869 Q 5148 775 5182 775 Q 5187 775 5194 777 L 5245 780 L 5295 785 Q 5368 815 5430 824 Q 5510 835 5591 835 Q 5660 835 5729 827 Q 5756 825 5833 800 Q 5882 783 5917 783 Q 5928 783 5938 785 L 5987 777 Q 5998 777 6021 819 L 6037 848 L 6063 848 L 6059 835 L 6059 835 Q 6076 842 6088 848 L 6092 848 L 6071 835 Q 6056 822 6041 781 Q 6036 768 6017 767 L 5998 762 Q 6022 752 6041 752 Q 6069 752 6088 773 Q 6107 793 6123 848 L 6183 848 Q 6137 771 6092 744 L 6150 741 Q 6187 738 6151 727 L 6151 727 L 6318 777 L 6502 785 L 6642 794 L 6813 782 Q 6819 814 7094 848 L 7362 866 Q 7367 851 7403 842 L 7456 830 L 7431 940 L 7450 938 L 7441 925 Q 7441 918 7455 913 L 7454 898 Q 7452 827 7469 826 L 7469 826 Q 7465 854 7501 854 Q 7505 854 7510 854 Q 7543 852 7573 838 L 7573 838 Q 7570 841 7590 843 L 7621 844 L 7663 839 L 7677 837 L 7678 843 Q 7687 858 7723 858 Q 7746 858 7828 832 L 7914 826 L 8050 819 L 8092 818 L 8161 828 L 8191 829 Q 8227 835 8229 844 L 8310 831 L 8368 832 L 8376 845 Q 8398 835 8420 832 L 8438 833 L 8437 865 L 8449 864 L 8451 867 Q 8459 876 8504 880 L 8506 880 L 8575 883 L 8591 883 L 8629 880 L 8634 879 L 8657 874 L 8657 881 L 8661 873 L 8666 872 L 8664 897 L 8670 873 L 8671 870 L 8709 859 L 8716 865 L 8715 864 Q 8725 858 8751 847 L 8767 840 L 8828 817 L 8828 821 L 8830 817 L 8838 813 L 8854 808 Q 8862 831 8877 831 Q 8882 831 8889 829 L 8936 808 L 8990 767 L 8991 767 Q 9009 755 9022 749 L 9047 744 L 9033 729 L 9032 727 L 9042 720 Q 9048 718 9054 718 Q 9073 718 9102 736 L 9132 760 Q 9155 736 9189 736 Q 9204 736 9221 741 Q 9228 732 9229 705 Q 9239 686 9282 676 L 9278 664 L 9288 675 L 9304 672 L 9299 642 L 9299 642 Q 9303 654 9317 662 Q 9329 650 9329 641 L 9313 610 L 9304 598 Q 9258 536 9274 536 Q 9279 536 9292 543 Q 9235 495 9139 451 L 8979 377 Q 8976 390 8973 390 Q 8972 390 8971 390 L 8958 374 L 8912 377 L 8861 356 L 8754 345 L 8611 337 L 8478 325 L 8308 299 L 8019 260 L 7919 244 Q 7886 239 7862 239 Q 7836 239 7820 245 L 7784 221 Q 7782 236 7770 236 Q 7764 236 7756 232 Q 7737 223 7721 204 L 7651 207 L 7564 179 L 7439 172 Q 7371 166 7346 131 Q 7336 152 7308 152 Q 7280 152 7276 136 L 7229 142 Q 7228 142 7226 142 Q 7214 142 7210 118 Q 7203 118 7192 127 L 7176 140 L 7147 138 Q 7143 146 7087 147 L 7086 147 Q 7078 137 7060 133 L 7041 131 L 6941 119 L 6786 116 L 6705 100 L 6688 98 L 6693 96 L 6666 94 L 6641 89 L 6471 89 L 6420 93 L 6430 84 L 6374 96 L 6217 106 Q 6195 100 6190 88 Q 6173 103 6127 111 L 6037 115 L 6030 116 L 5931 116 L 5745 107 L 5558 101 L 5486 99 L 5411 91 L 5221 94 L 5211 96 L 5112 97 L 5108 94 L 5110 97 L 4900 97 L 4725 102 L 4722 104 L 4736 93 L 4676 97 Q 4669 97 4663 97 Q 4630 97 4618 88 L 4641 76 L 4507 68 Q 4403 61 4420 47 Q 4401 34 4364 34 Q 4353 34 4341 35 Q 4309 38 4288 38 Q 4267 38 4258 36 L 4298 28 L 4213 17 L 4184 15 Z" fill="rgb(99,119,42)" fill-opacity="1.000"></path><path d="M 6139 712 L 6145 714 L 6145 714 Q 6142 713 6139 712 Z M 73 665 Q 55 665 25 683 L 23 684 L 34 692 L 37 694 L 60 707 L 75 719 L 93 741 L 106 687 L 90 671 Q 84 665 73 665 Z M 209 747 L 209 748 L 210 752 L 209 747 Z M 257 747 L 245 748 Q 242 751 247 760 L 257 747 Z M 110 691 L 116 751 L 121 766 L 124 757 L 121 750 Q 114 729 135 715 L 110 691 Z M 4917 790 Q 4911 790 4904 797 L 4925 792 L 4924 792 Q 4921 790 4917 790 Z M 6053 822 L 6057 835 L 6082 835 Q 6070 829 6053 822 Z M 6035 739 Q 6016 739 5992 749 L 6011 754 Q 6030 755 6035 768 Q 6050 809 6065 822 L 6086 835 L 6117 835 Q 6101 780 6082 760 Q 6064 739 6035 739 Z M 4293 835 Q 4301 835 4307 837 L 4307 837 L 4293 835 Z M 5990 796 L 6007 839 L 6030 835 L 6031 835 L 6015 806 L 5990 796 Z M 159 710 Q 149 718 147 728 L 150 740 L 152 761 L 155 767 L 175 800 L 185 821 L 200 778 L 200 775 Q 201 743 207 742 L 208 743 L 209 746 L 210 752 L 211 754 L 211 755 L 212 759 L 214 769 L 214 772 L 218 795 L 222 839 L 223 849 L 225 836 L 226 823 L 227 817 L 229 798 Q 233 769 239 749 L 239 749 Q 232 751 226 751 Q 206 751 215 727 L 215 727 L 176 733 L 159 710 Z M 282 765 L 248 767 Q 256 824 239 865 L 258 867 L 261 853 L 266 804 L 271 804 L 280 815 L 292 855 L 293 857 L 293 859 L 294 861 L 294 864 L 296 863 L 298 857 L 297 783 L 273 786 L 272 784 Q 271 783 271 783 Q 271 783 270 783 L 282 765 Z M 420 828 Q 430 831 492 869 L 477 862 Q 436 844 420 828 Z M 8651 861 L 8628 866 L 8629 889 L 8641 889 L 8651 868 L 8651 861 Z M 9048 704 Q 9041 704 9036 706 L 9026 713 L 9027 715 L 9041 730 L 9016 735 Q 9003 741 8985 753 L 8984 753 L 8930 794 L 8883 815 Q 8877 818 8871 818 Q 8855 818 8848 796 L 8832 801 L 8824 805 L 8822 809 L 8822 805 L 8761 828 L 8745 835 Q 8719 846 8709 852 L 8710 853 L 8703 847 L 8665 858 L 8664 861 L 8658 885 L 8658 890 L 8689 890 L 8698 883 L 8704 878 L 8708 890 L 8738 889 L 8738 888 L 8740 884 L 8742 880 L 8741 881 L 8743 878 L 8751 866 L 8755 880 L 8762 888 L 8768 887 L 8770 881 L 8770 876 Q 8771 853 8786 841 L 8792 836 L 8793 837 L 8804 864 L 8805 867 L 8809 872 L 8815 877 L 8816 877 L 8821 868 L 8821 867 L 8823 851 L 8842 871 L 8874 864 L 8883 848 Q 8888 842 8897 842 Q 8901 842 8905 843 L 8906 843 Q 8927 844 8944 844 Q 8966 844 8981 842 L 8981 837 Q 8981 796 8992 788 Q 8995 805 9007 815 Q 9022 809 9020 793 L 9020 793 Q 9035 796 9045 806 Q 9050 790 9047 776 L 9047 776 Q 9074 797 9080 797 Q 9080 797 9081 797 Q 9089 796 9083 755 Q 9083 755 9084 755 Q 9090 755 9111 766 L 9120 754 L 9126 747 L 9096 723 Q 9067 705 9048 705 Z M 8623 868 L 8585 871 L 8577 871 L 8581 885 L 8582 891 L 8616 891 L 8618 884 L 8623 868 Z M 383 786 Q 413 827 433 871 L 434 874 L 435 874 L 503 892 Q 518 895 524 895 Q 538 895 512 879 L 512 879 L 539 891 Q 554 899 563 899 L 566 899 Q 551 858 525 857 Q 493 857 483 844 Q 480 839 433 812 L 383 786 Z M 341 783 L 300 784 L 309 799 L 327 839 L 333 859 L 340 888 L 340 890 L 341 889 L 347 874 L 344 859 L 342 797 L 357 826 L 366 852 L 380 901 L 381 904 L 381 902 L 381 895 L 378 878 L 374 823 L 375 824 L 372 806 L 370 795 Q 369 786 341 783 Z M 3424 901 L 3427 910 L 3424 902 L 3424 901 Z M 3488 909 Q 3489 909 3489 909 L 3492 916 L 3491 916 L 3476 917 L 3474 917 Q 3482 909 3488 909 Z M 483 913 L 485 919 Q 486 923 493 923 L 504 921 L 499 917 L 483 913 Z M 632 819 Q 602 835 616 865 L 628 889 L 650 926 L 640 877 L 633 844 L 632 819 Z M 8086 806 L 8044 807 L 7908 814 L 7822 820 Q 7740 846 7717 846 Q 7681 846 7672 831 L 7671 825 L 7657 827 L 7615 832 L 7584 831 Q 7564 829 7567 826 L 7567 826 Q 7537 840 7504 842 Q 7499 842 7495 842 Q 7460 842 7463 814 L 7463 814 Q 7446 815 7448 886 L 7449 901 Q 7435 906 7435 913 L 7444 926 L 7450 931 L 7602 912 L 7604 911 L 7605 911 L 7606 910 L 7620 901 L 7619 894 Q 7628 885 7633 885 Q 7641 885 7640 907 Q 7645 880 7662 848 L 7662 848 L 7660 905 L 7670 904 Q 7732 853 7773 852 L 7780 886 L 7844 879 L 7901 860 Q 7912 883 7920 883 Q 7921 883 7921 883 L 7964 870 L 7994 865 L 8020 842 Q 8030 831 8041 831 Q 8044 831 8047 832 Q 8064 835 8060 855 L 8101 853 L 8129 843 Q 8141 850 8150 868 L 8197 848 L 8197 848 Q 8194 860 8199 873 Q 8200 873 8201 873 Q 8208 873 8214 859 Q 8222 841 8227 840 Q 8229 859 8250 869 L 8313 867 L 8320 873 L 8315 874 L 8315 891 L 8315 895 L 8380 911 L 8472 899 L 8493 895 L 8494 894 L 8495 895 L 8561 894 L 8569 871 L 8500 868 L 8498 868 Q 8453 864 8445 855 L 8443 852 L 8431 853 L 8432 821 L 8414 820 Q 8392 823 8370 833 L 8362 820 L 8304 819 L 8223 832 Q 8221 823 8185 817 L 8155 816 L 8086 806 Z M 438 883 L 438 884 L 455 932 L 441 922 L 441 922 Q 446 931 457 933 L 464 924 L 477 911 Q 451 902 439 884 L 439 883 Z M 3549 895 L 3560 921 L 3525 933 Q 3518 916 3510 916 L 3503 916 L 3511 909 L 3512 896 L 3517 908 L 3518 908 L 3519 912 L 3532 930 L 3544 919 L 3549 906 L 3549 895 Z M 5176 763 Q 5142 763 5158 857 L 5174 934 L 5203 922 L 5198 885 Q 5178 789 5177 770 L 5177 770 Q 5196 794 5213 844 L 5232 911 L 5238 909 L 5236 867 L 5226 810 L 5226 810 Q 5246 844 5255 905 L 5272 904 L 5271 877 Q 5267 804 5275 787 L 5295 884 L 5299 903 L 5323 904 Q 5326 871 5333 854 L 5344 905 L 5373 908 L 5374 890 Q 5377 845 5386 821 Q 5401 850 5418 913 L 5468 919 Q 5479 884 5499 864 Q 5507 887 5508 924 L 5521 926 L 5527 926 L 5526 923 L 5526 922 L 5525 919 L 5526 919 L 5515 870 L 5535 921 Q 5538 922 5541 926 L 5582 926 L 5582 914 L 5582 911 L 5583 858 Q 5606 879 5613 925 L 5633 923 L 5639 895 L 5642 923 L 5682 916 Q 5708 906 5733 906 L 5771 858 L 5767 903 L 5769 901 L 5769 899 Q 5784 851 5809 835 L 5809 835 L 5797 868 L 5784 898 Q 5785 898 5785 898 Q 5796 898 5809 882 L 5820 865 L 5842 819 Q 5848 835 5844 872 L 5843 881 L 5848 888 L 5866 881 L 5867 878 L 5869 880 L 5895 872 Q 5896 842 5899 838 L 5909 867 L 5929 860 L 5925 829 L 5941 857 L 5974 848 L 5962 815 L 5982 846 L 5996 842 L 5989 818 Q 5980 795 5962 784 L 5962 784 L 5980 793 Q 5977 782 5982 782 Q 5984 782 5989 786 L 6015 807 Q 5992 765 5981 765 L 5932 773 Q 5922 771 5911 771 Q 5876 771 5827 788 Q 5750 813 5723 815 Q 5654 823 5585 823 Q 5504 823 5424 812 Q 5362 803 5289 773 L 5239 768 L 5188 765 Q 5182 763 5176 763 Z M 5116 894 Q 5110 930 5096 964 Q 5107 954 5120 949 L 5122 948 L 5124 946 L 5126 923 Q 5126 909 5116 894 Z M 3395 845 L 3389 893 L 3385 941 L 3405 917 L 3405 923 L 3405 926 L 3405 945 Q 3407 954 3412 959 Q 3418 966 3430 966 L 3456 961 L 3475 951 L 3481 957 L 3490 966 L 3530 966 Q 3563 954 3627 940 Q 3654 934 3659 926 L 3749 909 L 3750 904 L 3751 883 L 3707 893 L 3656 901 L 3577 908 Q 3584 883 3565 883 Q 3561 883 3556 884 L 3510 890 Q 3507 890 3503 890 Q 3474 890 3475 873 L 3395 845 Z M 6145 715 Q 6182 726 6144 729 L 6086 732 Q 6131 759 6177 836 L 6191 836 L 6178 803 Q 6156 754 6153 741 L 6153 741 Q 6191 756 6210 836 L 6213 836 L 6206 806 Q 6198 772 6201 755 L 6201 755 L 6232 802 L 6257 838 L 6262 839 L 6254 809 Q 6247 781 6252 768 L 6252 768 L 6302 839 L 6304 842 L 6305 842 Q 6312 837 6320 837 Q 6331 837 6344 845 L 6347 847 L 6358 846 L 6390 856 L 6425 856 Q 6438 852 6440 840 L 6446 839 L 6444 824 Q 6461 824 6478 838 L 6510 838 L 6507 831 Q 6498 809 6500 796 L 6500 796 L 6534 839 L 6540 839 L 6561 843 Q 6556 822 6557 800 L 6557 800 L 6589 848 L 6602 850 Q 6601 822 6608 813 L 6620 840 L 6626 854 L 6627 854 Q 6634 866 6650 866 L 6662 861 L 6664 856 L 6667 861 L 6692 866 L 6693 842 L 6692 824 L 6696 830 L 6698 832 L 6699 834 L 6705 843 L 6705 845 L 6705 851 L 6711 869 Q 6720 886 6737 886 Q 6745 886 6755 877 L 6757 875 Q 6775 891 6802 891 L 6816 888 L 6822 890 L 6821 884 L 6823 881 L 6825 869 Q 6828 855 6823 850 L 6820 848 Q 6818 806 6824 803 L 6834 839 Q 6849 849 6857 885 L 6859 898 L 6902 909 L 6901 895 L 6899 854 L 6910 883 L 6910 896 L 6916 913 L 6940 933 Q 6956 942 6975 947 Q 6975 963 6990 966 Q 7001 966 7011 966 Q 7072 966 7039 949 L 7039 949 L 7073 951 L 7099 949 L 7115 926 L 7113 916 L 7111 914 L 7115 909 L 7128 899 Q 7152 906 7131 945 L 7129 952 L 7147 951 L 7162 919 Q 7169 924 7170 949 L 7190 947 L 7197 932 L 7199 929 L 7206 917 L 7209 913 L 7209 915 L 7209 928 L 7209 930 L 7209 931 L 7209 946 L 7240 943 L 7276 908 L 7280 904 L 7280 906 L 7280 917 L 7279 918 Q 7265 921 7265 936 L 7265 941 L 7265 946 Q 7240 956 7246 956 L 7302 948 L 7355 934 L 7355 931 L 7353 921 L 7350 918 L 7355 892 L 7356 893 L 7360 875 L 7363 855 L 7375 852 L 7383 923 L 7384 931 L 7390 931 L 7395 892 Q 7400 844 7409 844 L 7413 929 L 7425 928 L 7450 818 L 7397 830 Q 7361 839 7356 854 L 7088 836 Q 6813 802 6807 770 L 6636 782 L 6496 773 L 6312 765 L 6145 715 Z M 5107 789 Q 5087 802 5043 802 Q 5037 802 5031 802 L 4946 797 L 4954 885 Q 4957 924 4965 935 Q 4968 939 4971 939 Q 4973 939 4975 938 Q 4980 935 4985 935 Q 4997 935 5003 955 L 5035 931 Q 5045 948 5048 970 L 5050 969 L 5064 954 L 5072 949 L 5077 954 L 5078 952 Q 5087 892 5117 853 L 5117 853 L 5089 855 Q 5112 835 5130 802 L 5130 802 L 5096 827 Q 5090 825 5107 789 Z M 4667 765 Q 4639 777 4612 777 Q 4602 777 4591 775 L 4512 777 Q 4499 781 4474 781 Q 4453 781 4423 778 Q 4411 777 4401 777 Q 4364 777 4339 793 Q 4341 792 4343 792 Q 4351 792 4359 804 L 4354 801 L 4308 807 Q 4230 830 4146 830 Q 4116 830 4085 827 L 4004 808 Q 3986 804 3970 804 Q 3944 804 3926 815 Q 3899 831 3849 847 L 3821 856 Q 3812 844 3810 844 Q 3808 844 3816 858 L 3770 875 L 3786 903 L 3825 896 L 3827 896 L 3840 882 L 3847 894 L 3874 891 Q 3883 874 3895 870 L 3902 857 L 3903 886 L 3903 889 L 3920 887 L 3948 829 Q 3954 835 3950 886 L 3962 885 L 3972 869 L 3981 829 Q 3995 831 3997 873 L 3998 885 L 4040 886 L 4085 893 L 4093 897 Q 4123 911 4130 911 L 4131 911 L 4144 916 L 4178 926 Q 4209 951 4230 951 Q 4241 951 4247 934 L 4277 935 L 4305 943 L 4350 951 Q 4370 951 4370 936 L 4369 935 L 4378 935 L 4380 930 L 4381 929 Q 4387 916 4402 916 Q 4404 916 4406 916 L 4406 916 Q 4383 896 4302 842 L 4302 842 Q 4314 849 4318 849 Q 4320 849 4319 846 Q 4317 840 4307 838 L 4307 838 L 4381 847 L 4381 847 L 4379 842 L 4379 842 Q 4392 853 4441 865 L 4517 877 Q 4508 865 4482 849 L 4446 820 L 4446 820 Q 4478 825 4543 860 Q 4605 893 4636 896 Q 4630 874 4630 852 L 4630 852 Q 4653 855 4679 888 L 4711 936 L 4712 936 Q 4700 878 4704 843 L 4704 843 L 4737 911 L 4749 936 L 4761 938 L 4772 924 L 4781 946 L 4805 962 L 4812 943 L 4812 968 L 4818 972 Q 4814 925 4827 882 L 4843 841 Q 4847 825 4842 825 Q 4837 825 4822 840 L 4855 786 L 4855 786 Q 4803 804 4778 804 Q 4763 804 4757 798 Q 4749 790 4735 790 Q 4727 790 4718 792 L 4665 800 L 4667 765 Z M 4841 921 L 4820 974 L 4836 987 L 4836 970 L 4842 972 L 4842 924 L 4839 934 L 4841 921 Z M 3344 827 Q 3284 827 3175 855 L 3065 890 Q 3008 907 2976 907 Q 2964 907 2955 905 Q 2890 901 2748 870 Q 2624 843 2548 843 Q 2545 843 2543 843 Q 2562 875 2597 893 L 2631 916 L 2626 874 L 2626 874 Q 2680 903 2692 903 Q 2693 903 2694 903 Q 2690 885 2697 869 L 2740 907 Q 2745 911 2749 911 Q 2760 911 2753 875 L 2753 875 Q 2783 918 2816 947 Q 2809 924 2815 901 L 2815 901 Q 2826 944 2843 962 L 2850 968 L 2853 970 L 2880 973 L 2884 976 L 2928 986 L 2946 986 Q 2952 1001 2965 1001 L 3030 969 L 3043 962 L 3070 948 L 3076 944 L 3109 929 L 3203 874 L 3184 933 Q 3186 934 3187 934 Q 3202 934 3233 895 L 3272 843 Q 3280 859 3272 891 L 3259 938 L 3260 938 L 3270 932 L 3273 932 Q 3302 913 3336 850 L 3336 850 Q 3326 878 3297 922 L 3269 966 L 3368 965 L 3381 946 L 3382 945 L 3384 942 L 3385 941 L 3386 886 Q 3388 844 3397 837 Q 3379 827 3344 827 Z M 4864 800 Q 4841 826 4857 902 L 4887 1001 L 4892 968 Q 4898 937 4910 933 L 4918 967 Q 4922 963 4907 905 L 4891 830 L 4890 813 Q 4878 838 4873 859 L 4864 800 Z M 694 825 Q 679 825 675 841 Q 674 843 673 843 Q 670 843 664 830 L 664 830 Q 646 834 686 881 L 690 886 Q 722 904 740 944 L 726 911 L 720 893 L 708 870 L 721 886 L 722 886 L 759 918 L 776 938 L 784 944 L 805 957 L 802 954 L 816 959 L 811 929 L 812 930 L 806 914 L 806 914 Q 812 929 853 960 L 873 964 L 908 969 L 966 973 L 959 965 Q 927 951 937 930 L 937 930 L 977 961 Q 989 970 994 971 L 985 963 L 984 961 L 972 947 L 959 925 L 977 929 L 987 935 L 989 936 L 1011 951 L 1042 961 L 1144 991 L 1131 984 L 1091 961 L 1072 950 L 1048 936 L 1052 937 Q 1097 940 1152 962 Q 1189 976 1250 1008 Q 1249 1008 1248 1008 Q 1246 1008 1247 1013 L 1238 1015 L 1261 1021 L 1275 1021 L 1274 1020 Q 1284 1019 1194 934 L 1194 934 Q 1214 935 1251 955 L 1332 990 L 1366 1005 L 1362 986 L 1402 1014 L 1417 1013 L 1415 1001 Q 1406 967 1372 936 Q 1332 901 1280 887 L 1280 887 L 1289 917 Q 1255 894 1219 878 L 1219 878 L 1237 895 L 1220 884 L 1220 884 Q 1223 910 1204 910 Q 1193 910 1174 901 L 1148 896 L 1115 888 L 1123 941 L 932 901 L 932 901 Q 936 908 944 908 Q 939 908 934 908 Q 890 908 815 880 Q 755 857 721 857 Q 711 857 703 859 Q 697 843 697 826 Q 695 826 694 826 Z M 1693 938 L 1697 987 Q 1699 1025 1706 1027 L 1715 992 L 1721 957 L 1751 1012 L 1764 1030 L 1773 1034 L 1776 1020 L 1776 1018 Q 1777 957 1756 952 L 1693 938 Z M 1355 916 Q 1403 955 1433 1012 L 1435 1012 L 1445 1014 L 1440 942 L 1469 998 L 1481 1019 L 1568 1033 L 1571 1030 Q 1583 1020 1591 1020 Q 1595 1020 1598 1022 L 1601 1025 L 1611 1037 L 1645 1037 L 1646 1036 L 1668 1032 L 1669 1032 Q 1679 977 1679 931 L 1679 931 L 1676 932 L 1676 930 L 1659 926 L 1673 959 L 1546 948 L 1438 934 Q 1440 927 1401 922 L 1355 916 Z M 2282 818 L 2221 847 Q 2205 853 2195 853 Q 2179 853 2180 837 L 2180 837 L 2136 857 L 2097 859 L 2044 895 Q 2009 922 1989 924 Q 1990 912 1979 912 Q 1970 912 1952 921 Q 1935 930 1923 930 Q 1905 930 1899 909 L 1867 943 Q 1859 926 1860 911 L 1860 911 Q 1856 913 1851 913 Q 1839 913 1828 899 Q 1816 885 1808 885 Q 1806 885 1805 886 Q 1794 903 1797 922 Q 1778 924 1774 935 Q 1772 943 1776 948 L 1774 948 L 1799 994 L 1820 1043 L 1820 1039 L 1821 1042 Q 1833 1009 1819 981 Q 1810 961 1793 953 Q 1802 945 1804 903 L 1834 952 L 1859 979 L 1836 966 L 1853 1016 L 1863 1040 L 1894 1026 L 1892 1010 L 1906 1020 L 1907 1019 Q 1920 1011 1931 1006 L 1975 1017 Q 1985 1017 1994 1007 L 2001 993 L 2004 995 L 2005 994 L 2014 987 L 2083 987 L 2088 991 L 2098 988 L 2098 987 L 2140 987 L 2211 961 Q 2244 948 2257 936 L 2285 932 L 2299 932 L 2347 924 L 2346 906 L 2299 919 Q 2275 924 2261 932 L 2265 921 L 2284 904 Q 2339 860 2365 860 Q 2371 860 2375 862 L 2360 903 L 2351 923 L 2360 922 L 2367 922 Q 2432 860 2458 859 L 2458 859 L 2446 892 L 2438 918 L 2407 918 L 2378 922 L 2387 922 L 2387 921 L 2388 922 L 2479 922 L 2448 917 L 2479 884 Q 2486 878 2490 878 Q 2500 878 2501 906 Q 2522 868 2542 844 L 2475 834 L 2407 823 L 2328 833 Q 2316 834 2307 834 Q 2270 834 2282 818 Z" fill="rgb(86,103,35)" fill-opacity="1.000"></path><path d="M 4309 70 Q 4286 70 4264 78 L 4295 85 L 4296 85 L 4331 89 Q 4333 89 4335 89 Q 4360 89 4358 78 Q 4333 71 4310 71 Z M 4487 90 Q 4468 90 4467 99 L 4521 106 L 4563 104 Q 4511 90 4487 90 Z M 5639 102 L 5613 106 L 5667 109 L 5669 108 L 5666 106 L 5639 102 Z M 4518 119 L 4468 124 Q 4485 132 4501 132 Q 4507 132 4512 131 Q 4532 131 4518 119 Z M 7080 118 L 7036 119 L 7055 121 Q 7073 125 7081 135 L 7082 135 Q 7138 134 7142 126 L 7080 118 Z M 5230 144 L 5221 149 L 5263 151 L 5302 148 L 5296 144 Z M 5491 139 Q 5474 139 5466 148 L 5533 151 Q 5521 143 5501 140 Q 5496 139 5491 139 Z M 4404 130 Q 4391 132 4345 147 L 4413 154 Q 4416 154 4418 154 Q 4468 154 4466 136 L 4404 130 Z M 6560 139 L 6559 140 Q 6550 148 6580 154 Q 6588 155 6594 155 Q 6609 155 6606 146 L 6585 139 Z M 5853 144 L 5807 150 L 5850 158 L 5894 156 Q 5896 156 5897 156 Q 5910 156 5903 149 L 5853 144 Z M 6491 149 L 6420 154 L 6480 159 Q 6483 160 6485 160 Q 6495 160 6491 149 Z M 7340 163 L 7291 164 L 7337 166 L 7343 164 L 7340 163 Z M 6140 162 L 6135 166 L 6158 168 L 6159 162 Z M 6204 164 Q 6199 164 6189 168 L 6209 168 Q 6210 164 6205 164 Z M 7177 160 Q 7139 160 7136 168 Q 7134 178 7154 178 L 7179 176 L 7282 181 Q 7287 167 7214 161 Q 7192 160 7177 160 Z M 5334 165 Q 5323 165 5290 175 Q 5288 185 5313 185 Q 5339 185 5335 175 Q 5346 166 5334 166 Z M 6178 186 L 6149 189 Q 6129 193 6147 196 Q 6152 198 6156 198 Q 6168 198 6178 186 Z M 2195 190 Q 2181 190 2178 199 L 2216 200 Q 2215 191 2198 190 Q 2196 190 2195 190 Z M 2673 129 L 2681 132 L 2682 132 L 2691 144 L 2692 150 L 2647 151 Q 2698 164 2698 184 L 2695 199 L 2744 202 Q 2768 204 2787 204 Q 2883 204 2861 167 Q 2850 149 2826 140 L 2771 131 L 2673 130 Z M 5649 178 Q 5596 187 5592 204 L 5598 205 Q 5639 208 5669 208 Q 5687 208 5701 207 L 5733 202 L 5649 178 Z M 5173 171 Q 5120 172 5082 184 Q 5080 205 5123 209 L 5183 209 Q 5189 209 5195 209 Q 5271 209 5265 172 L 5173 171 Z M 6901 182 Q 6900 200 6853 202 L 6785 210 L 6915 219 L 6957 219 Q 6960 212 6933 198 L 6901 182 Z M 1785 207 L 1744 215 L 1744 218 L 1801 222 L 1829 217 L 1822 207 Z M 5878 204 Q 5869 205 5860 212 Q 5870 222 5894 222 L 5930 219 Q 5934 206 5910 204 Z M 4591 168 Q 4661 222 4775 222 Q 4779 222 4783 222 L 4810 217 Q 4716 175 4702 171 L 4591 168 Z M 4291 180 Q 4277 180 4262 181 L 4152 196 Q 4145 212 4186 219 L 4237 224 L 4307 225 Q 4360 220 4370 201 Q 4351 180 4291 180 Z M 2312 203 Q 2305 203 2297 203 Q 2247 206 2235 221 Q 2245 230 2267 230 Q 2269 230 2271 230 L 2309 227 L 2337 224 Q 2357 221 2360 211 Q 2348 203 2312 203 Z M 6503 206 Q 6469 206 6473 219 Q 6477 234 6519 234 Q 6524 234 6530 234 Q 6583 232 6590 218 Q 6570 210 6523 207 Q 6512 206 6503 206 Z M 4420 224 L 4378 225 L 4352 231 Q 4361 240 4408 243 Q 4420 244 4430 244 Q 4458 244 4459 235 Q 4448 224 4421 224 Z M 6864 233 L 6846 240 Q 6851 245 6855 245 Q 6861 245 6864 233 Z M 7590 221 Q 7574 221 7564 230 Q 7572 239 7593 244 Q 7600 246 7606 246 Q 7618 246 7621 238 Q 7630 226 7604 222 Q 7597 221 7590 221 Z M 6949 236 Q 6930 236 6930 248 L 6930 250 Q 6932 259 6966 261 Q 6969 261 6972 261 Q 7000 261 7003 253 Q 6993 242 6962 237 Q 6954 236 6949 236 Z M 7581 246 Q 7571 246 7549 254 Q 7559 261 7570 261 Q 7578 261 7586 258 Q 7593 246 7581 246 Z M 4498 253 Q 4497 253 4494 254 L 4483 259 L 4499 262 L 4500 262 Q 4503 253 4498 253 Z M 6353 250 Q 6343 260 6362 264 L 6382 265 L 6385 265 Q 6386 250 6353 250 Z M 1783 253 L 1750 255 Q 1733 270 1752 270 Q 1756 270 1763 269 Q 1798 266 1783 253 Z M 4020 244 Q 4014 244 4007 244 L 3950 248 Q 3946 247 3942 247 Q 3931 247 3927 261 L 3999 273 Q 4005 273 4011 273 Q 4054 273 4056 253 Q 4051 245 4020 245 Z M 6879 266 Q 6865 266 6867 274 L 6902 276 L 6902 276 Q 6901 276 6903 275 L 6904 275 Q 6905 268 6885 266 Q 6882 266 6879 266 Z M 6903 276 Q 6903 276 6903 276 Q 6904 276 6905 276 L 6903 276 L 6903 276 Z M 2141 227 Q 2124 227 2100 230 Q 2017 239 2012 264 Q 2042 277 2093 277 L 2174 267 Q 2193 262 2194 246 Q 2186 227 2141 227 Z M 4384 266 L 4298 268 Q 4313 278 4329 278 Q 4336 278 4344 276 L 4369 278 Q 4389 277 4384 266 Z M 7694 255 Q 7686 255 7684 259 L 7702 261 L 7661 259 Q 7639 259 7632 265 L 7635 270 L 7637 275 L 7683 282 L 7739 281 Q 7742 267 7715 259 Q 7702 256 7694 256 Z M 6479 264 Q 6455 264 6445 273 L 6508 283 L 6592 287 Q 6580 271 6562 271 Q 6557 271 6552 272 L 6497 265 Q 6487 264 6479 264 Z M 2600 264 Q 2595 264 2589 265 Q 2558 268 2541 285 L 2561 289 L 2583 287 L 2612 287 Q 2633 285 2637 275 Q 2623 264 2600 264 Z M 5459 278 Q 5432 282 5407 297 L 5452 292 L 5449 283 Q 5448 280 5459 278 Z M 5553 283 Q 5550 283 5542 292 L 5537 296 L 5552 297 Q 5557 283 5553 283 Z M 5902 250 Q 5894 250 5885 251 Q 5826 256 5805 288 Q 5820 299 5838 299 Q 5842 299 5846 298 L 5991 288 Q 6016 276 5976 262 Q 5941 250 5902 250 Z M 1644 261 L 1594 269 Q 1580 275 1573 281 Q 1572 299 1610 299 Q 1627 299 1652 295 Q 1697 287 1692 268 L 1644 261 Z M 1030 295 L 889 296 L 957 308 L 1031 303 L 1030 295 Z M 3068 295 Q 3064 295 3059 296 Q 3040 300 3031 308 Q 3041 312 3053 312 Q 3065 312 3078 308 Q 3081 295 3069 295 Z M 3898 266 L 3799 278 Q 3726 289 3716 305 L 3714 311 L 3717 312 L 3811 310 Q 3868 295 3898 266 Z M 6386 296 L 6328 299 L 6331 303 Q 6346 315 6366 315 L 6399 320 Q 6402 320 6404 320 Q 6424 320 6429 313 Q 6428 299 6386 296 Z M 2123 292 Q 2099 292 2065 308 Q 2122 322 2147 322 Q 2162 322 2166 317 L 2166 316 Q 2152 292 2123 292 Z M 5463 306 Q 5462 306 5461 306 Q 5439 308 5441 318 L 5475 324 L 5474 322 L 5477 322 Q 5482 306 5463 306 Z M 2259 292 Q 2223 292 2214 305 Q 2219 315 2238 318 L 2268 322 L 2273 322 L 2274 323 L 2312 326 Q 2339 326 2355 318 Q 2351 299 2288 294 Q 2272 292 2259 292 Z M 5539 318 Q 5534 324 5526 324 Q 5523 324 5519 323 L 5519 323 Q 5519 328 5536 328 Q 5539 328 5542 328 Q 5562 328 5539 318 Z M 1453 293 Q 1438 293 1420 295 Q 1361 302 1318 325 L 1494 332 Q 1523 324 1516 311 Q 1495 293 1453 293 Z M 2599 318 Q 2498 318 2460 332 L 2747 327 L 2746 321 L 2613 318 Q 2606 318 2599 318 Z M 1756 306 Q 1731 306 1716 328 L 1737 337 L 1745 337 L 1752 336 Q 1763 337 1772 337 Q 1811 337 1798 322 Q 1792 314 1773 313 L 1745 313 L 1758 306 Q 1757 306 1756 306 Z M 1037 310 Q 1006 313 981 329 L 1025 335 L 1068 339 Q 1100 337 1095 316 L 1037 310 Z M 1175 304 Q 1167 304 1157 305 L 1096 311 L 1095 311 L 1125 321 Q 1121 320 1118 320 Q 1107 320 1102 333 L 1140 339 L 1195 338 Q 1205 329 1221 326 L 1220 320 Q 1214 304 1175 304 Z M 4031 281 L 4035 298 L 3995 294 Q 3986 293 3982 293 Q 3971 293 3994 299 Q 3993 299 3993 299 Q 3980 299 3921 316 Q 3857 336 3871 345 Q 3884 353 3915 353 Q 3949 353 4006 343 Q 4116 324 4107 298 L 4032 281 Z M 3151 294 Q 3151 303 3182 310 L 3220 318 L 3153 320 Q 3089 324 3089 338 Q 3089 351 3111 353 L 3142 353 L 3157 354 Q 3165 354 3173 354 Q 3267 354 3289 331 Q 3233 325 3182 294 Z M 4582 322 Q 4571 322 4555 324 Q 4509 329 4498 338 L 4494 343 L 4497 346 Q 4509 355 4547 355 Q 4554 355 4562 355 Q 4621 353 4617 335 Q 4614 322 4582 322 Z M 5180 330 Q 5171 330 5161 330 L 5189 340 Q 5149 340 5207 355 Q 5227 360 5241 360 Q 5260 360 5268 350 Q 5282 330 5180 330 Z M 3476 337 L 3403 338 L 3332 351 L 3368 360 L 3378 360 L 3433 362 Q 3486 359 3476 337 Z M 1093 347 Q 1074 347 1067 362 L 1136 364 Q 1143 357 1109 349 Q 1100 347 1093 347 Z M 5715 350 Q 5681 350 5649 365 L 5652 365 L 5699 368 Q 5725 367 5742 352 Q 5728 350 5715 350 Z M 669 357 Q 649 357 635 367 L 669 373 Q 672 373 674 373 Q 697 373 697 365 Q 693 358 673 357 Q 671 357 669 357 Z M 4770 357 L 4708 364 L 4711 370 Q 4717 380 4730 380 Q 4735 380 4740 379 Q 4764 373 4770 357 Z M 3224 367 Q 3204 369 3191 380 Q 3200 382 3209 382 Q 3230 382 3250 370 L 3224 367 Z M 754 374 Q 738 374 737 380 L 786 383 L 788 382 Q 786 375 763 374 Q 758 374 754 374 Z M 7455 360 L 7377 363 L 7404 365 L 7439 370 L 7407 374 L 7407 377 L 7406 381 L 7425 385 L 7452 382 L 7455 373 L 7483 377 Q 7500 379 7514 379 Q 7545 379 7555 368 L 7455 360 Z M 5241 369 Q 5229 369 5226 377 L 5232 384 L 5292 387 Q 5282 378 5258 372 Q 5248 369 5241 369 Z M 5035 326 Q 5023 326 5031 339 L 4956 340 L 4990 355 L 4958 355 Q 4933 356 4937 370 Q 4954 382 4973 382 Q 4976 382 4979 382 L 4980 382 Q 5039 387 5075 387 Q 5151 387 5123 364 Q 5103 348 5062 333 Q 5043 326 5035 326 Z M 4589 382 Q 4580 382 4580 389 Q 4579 399 4590 399 Q 4595 399 4602 397 Q 4625 390 4605 382 L 4591 382 Q 4590 382 4589 382 Z M 4427 360 Q 4377 360 4344 374 L 4339 376 Q 4326 380 4318 392 L 4353 401 L 4542 401 Q 4566 391 4565 372 L 4451 361 Q 4438 360 4427 360 Z M 860 365 Q 854 365 845 369 Q 812 382 823 382 Q 825 382 828 382 L 828 382 Q 788 389 758 407 L 806 412 Q 881 407 876 380 Q 873 365 860 365 Z M 335 407 L 317 411 L 300 418 Q 307 421 313 421 Q 326 421 335 407 Z M 7101 399 L 7032 404 Q 7023 419 7063 419 L 7068 420 L 7113 423 Q 7118 423 7123 423 Q 7154 423 7160 412 Q 7163 405 7101 399 Z M 6898 416 Q 6869 416 6865 426 Q 6878 435 6890 435 Q 6893 435 6897 434 Q 6913 431 6922 417 Q 6908 416 6898 416 Z M 3552 421 Q 3529 421 3511 434 L 3526 444 L 3533 445 Q 3553 447 3567 447 Q 3610 447 3602 427 L 3555 421 Q 3553 421 3552 421 Z M 660 397 L 578 400 Q 518 415 508 434 L 538 446 Q 529 447 547 449 Q 553 450 554 450 Q 556 450 547 448 L 547 448 Q 566 451 588 451 Q 615 451 646 446 Q 718 435 660 397 Z M 6422 430 L 6380 435 L 6377 435 Q 6350 438 6325 450 Q 6337 465 6355 465 Q 6365 465 6378 460 Q 6404 451 6422 430 Z M 3297 413 L 3222 418 Q 3162 424 3157 440 Q 3190 469 3331 469 Q 3336 469 3340 469 Q 3485 469 3526 444 L 3423 420 L 3297 413 Z M 8266 440 Q 8235 447 8231 455 Q 8226 464 8261 473 Q 8274 477 8301 477 Q 8323 477 8355 474 Q 8427 468 8420 453 L 8266 440 Z M 1152 417 L 1062 418 Q 984 422 980 437 Q 1017 468 1083 480 Q 1115 487 1144 487 Q 1173 487 1198 481 Q 1172 459 1167 422 L 1153 418 Z M 381 473 Q 371 473 357 476 Q 328 483 317 489 L 361 494 Q 364 494 366 494 Q 388 494 397 486 L 400 481 Q 396 473 381 473 Z M 200 475 Q 193 475 184 480 Q 162 490 169 506 L 199 506 Q 217 501 213 483 Q 209 475 200 475 Z M 6771 503 L 6751 509 Q 6754 514 6761 514 Q 6764 514 6767 513 Q 6780 511 6771 503 Z M 1048 504 L 1028 506 Q 1039 515 1051 515 Q 1057 515 1064 513 L 1066 512 L 1064 508 L 1048 504 Z M 6709 503 Q 6704 503 6697 504 L 6653 511 L 6682 516 L 6734 515 Q 6735 503 6709 503 Z M 8085 505 Q 8083 505 8081 506 Q 8088 511 8081 511 Q 8078 511 8071 510 L 8071 510 Q 8077 517 8085 517 Q 8089 517 8093 515 L 8093 512 Q 8092 505 8086 505 Z M 3982 489 L 3940 496 L 3915 503 Q 3897 510 3897 518 Q 3900 518 3902 518 Q 3919 518 3939 507 Q 3966 492 3982 489 Z M 959 496 Q 924 505 917 523 L 920 525 L 922 526 L 984 523 Q 1033 511 1012 498 L 959 496 Z M 1851 518 Q 1862 530 1905 530 Q 1908 530 1912 530 L 1974 521 L 1974 518 Z M 490 508 Q 470 508 470 520 L 499 529 Q 506 530 511 530 Q 524 530 526 523 Q 529 512 500 509 Q 495 508 490 508 Z M 7893 467 Q 7879 467 7855 481 Q 7857 493 7885 493 L 7903 492 L 7903 492 Q 7891 498 7888 514 L 7888 517 Q 7889 525 7898 530 L 8008 541 L 8021 535 Q 8036 512 7965 493 L 7908 489 L 7911 481 Q 7908 468 7894 468 Z M 394 528 Q 378 530 373 538 L 372 539 L 378 542 L 400 543 Q 421 542 419 529 L 394 528 Z M 6165 478 Q 6167 492 6129 497 L 6067 502 L 6095 509 L 6115 512 L 6076 516 Q 6040 522 6057 530 Q 6053 528 6056 528 Q 6057 528 6061 529 Q 6068 531 6064 531 L 6180 543 L 6302 534 Q 6304 525 6243 504 L 6165 478 Z M 3809 504 L 3714 511 Q 3653 516 3625 535 Q 3639 550 3682 550 L 3745 547 Q 3757 547 3776 530 L 3809 504 Z M 2475 521 Q 2403 521 2395 539 Q 2423 553 2474 553 L 2555 549 Q 2650 549 2644 532 L 2511 522 Q 2491 521 2475 521 Z M 8705 527 L 8632 540 Q 8627 553 8651 555 L 8685 555 L 8707 556 Q 8703 545 8705 527 Z M 6702 522 Q 6676 522 6669 532 Q 6656 552 6729 562 Q 6745 564 6757 564 Q 6799 564 6797 537 L 6730 524 Q 6714 522 6702 522 Z M 1005 532 Q 1000 532 994 532 Q 956 536 946 550 L 947 555 L 947 564 Q 961 575 999 578 Q 1007 579 1014 579 Q 1045 579 1039 559 Q 1043 532 1005 532 Z M 257 579 L 187 583 L 219 584 L 257 579 Z M 2613 564 Q 2604 564 2594 565 Q 2538 572 2544 580 Q 2552 590 2597 591 L 2649 586 L 2653 584 Q 2649 564 2613 564 Z M 6793 589 Q 6785 589 6782 594 L 6817 592 L 6798 589 Q 6795 589 6793 589 Z M 1511 544 Q 1327 544 1290 587 Q 1309 597 1329 597 Q 1334 597 1339 596 L 1360 598 Q 1442 572 1500 557 L 1513 554 L 1511 544 Z M 6168 586 L 6139 590 Q 6135 591 6133 594 L 6136 594 L 6175 600 Q 6177 600 6179 600 Q 6209 600 6207 587 L 6168 586 Z M 449 562 L 395 575 Q 365 584 358 595 L 356 604 L 413 601 Q 439 590 449 562 Z M 3407 562 Q 3351 562 3344 590 Q 3376 604 3421 605 L 3499 599 L 3527 592 Q 3545 585 3524 579 Q 3451 562 3407 562 Z M 6337 582 Q 6296 582 6297 596 Q 6318 610 6409 616 Q 6430 617 6447 617 Q 6505 617 6509 601 Q 6496 582 6458 582 L 6399 587 L 6343 582 Q 6340 582 6337 582 Z M 4300 583 Q 4313 616 4427 627 Q 4461 631 4488 631 Q 4551 631 4574 611 Q 4559 602 4545 583 Z M 4633 625 Q 4646 635 4674 637 L 4718 632 L 4633 625 Z M 3203 632 Q 3195 632 3193 637 Q 3210 639 3218 639 Q 3236 639 3222 632 L 3206 632 Q 3204 632 3203 632 Z M 2279 599 L 2234 602 Q 2199 614 2243 634 Q 2263 643 2279 643 Q 2299 643 2314 630 L 2322 611 Q 2313 602 2279 599 Z M 7082 599 L 7040 605 L 6997 614 Q 7003 636 7081 647 L 7169 644 Q 7173 639 7156 624 L 7153 623 Q 7124 620 7104 603 L 7090 605 L 7082 599 Z M 3079 592 L 3001 602 L 3003 605 Q 3003 605 3002 605 Q 2992 605 2917 633 Q 2921 646 2945 648 L 2980 649 L 2985 649 Q 3230 633 3159 606 Q 3120 592 3079 592 Z M 5080 651 Q 5076 651 5083 652 Q 5102 651 5087 651 Q 5082 651 5080 651 Z M 8889 632 L 8805 638 Q 8742 647 8762 655 L 8840 651 Q 8905 643 8889 632 Z M 4540 643 Q 4526 643 4511 648 L 4508 649 L 4509 651 L 4513 656 Q 4520 663 4543 665 L 4584 659 Q 4564 643 4540 643 Z M 5225 653 L 5227 658 L 5254 665 Q 5256 665 5258 665 Q 5283 665 5282 654 L 5225 653 Z M 8474 594 L 8474 616 L 8365 625 L 8369 646 L 8491 665 Q 8509 666 8524 666 Q 8575 666 8582 650 L 8582 650 Q 8582 651 8581 651 Q 8574 651 8540 605 Q 8537 625 8532 625 Q 8531 625 8530 624 L 8510 604 Q 8508 617 8503 617 Q 8501 617 8497 614 L 8474 594 Z M 2248 652 Q 2242 652 2229 658 Q 2239 668 2251 668 Q 2259 668 2267 664 L 2253 654 Q 2251 652 2248 652 Z M 5449 649 L 5421 656 Q 5437 676 5479 676 Q 5491 676 5505 674 Q 5500 658 5483 651 L 5449 649 Z M 3171 662 L 3143 663 L 3141 664 L 3148 670 L 3145 669 Q 3143 669 3141 669 Q 3134 669 3134 674 L 3165 680 Q 3167 680 3169 680 Q 3188 680 3193 672 Q 3196 667 3171 662 Z M 3926 651 Q 3845 651 3796 670 Q 3814 681 3869 681 Q 3877 681 3887 681 Q 3962 679 3957 652 Q 3941 651 3926 651 Z M 5137 650 L 5083 652 L 5045 658 Q 5045 684 5111 686 Q 5114 686 5116 686 Q 5177 686 5187 664 Q 5167 651 5137 650 Z M 4172 637 Q 4155 637 4135 641 L 4031 676 Q 4065 692 4117 692 Q 4132 692 4148 691 L 4200 685 Q 4236 676 4237 657 Q 4209 637 4172 637 Z M 5689 619 Q 5685 619 5681 620 L 5694 639 L 5652 633 L 5652 633 Q 5662 644 5636 651 L 5599 658 L 5642 658 Q 5612 668 5582 687 Q 5657 695 5712 695 Q 5785 695 5823 681 Q 5807 640 5776 638 L 5769 638 Q 5712 619 5689 619 Z M 6593 683 L 6605 691 Q 6618 699 6639 700 L 6689 697 Q 6691 693 6648 684 L 6594 683 Z M 3047 660 L 2994 664 Q 2939 672 2949 686 Q 2958 701 3016 704 Q 3026 705 3035 705 Q 3076 705 3088 693 Q 3095 685 3079 673 L 3057 660 Z M 2146 684 Q 2121 684 2115 698 Q 2129 707 2162 707 Q 2171 707 2182 706 Q 2231 703 2209 695 L 2159 685 Q 2152 684 2146 684 Z M 679 685 Q 641 685 630 696 Q 639 707 663 708 Q 666 708 668 708 Q 686 708 698 702 Q 693 688 679 685 Z M 2386 644 Q 2344 644 2290 673 Q 2292 701 2394 708 Q 2415 709 2432 709 Q 2497 709 2501 688 L 2489 673 Q 2423 645 2391 644 Q 2388 644 2386 644 Z M 5057 690 Q 5032 699 5053 706 L 5085 710 Q 5086 701 5075 697 L 5057 690 Z M 829 695 Q 818 701 846 713 L 882 711 Q 886 704 829 695 Z M 7678 722 L 7675 723 L 7682 725 L 7717 723 L 7678 722 Z M 6602 703 L 6601 704 L 6598 705 Q 6586 713 6635 725 L 6710 731 Q 6711 717 6663 710 L 6602 703 Z M 6883 683 L 6815 684 Q 6764 688 6729 705 Q 6741 731 6850 732 Q 6855 732 6860 732 Q 6958 732 6977 712 Q 6985 702 6904 683 Z M 2260 720 Q 2248 720 2236 728 L 2274 737 Q 2276 737 2278 737 Q 2305 737 2302 725 L 2264 720 L 2263 720 Q 2262 720 2260 720 Z M 3774 690 L 3771 692 Q 3719 728 3780 741 Q 3802 745 3817 745 Q 3848 745 3844 725 L 3774 690 Z M 7274 734 Q 7262 734 7256 743 L 7264 746 L 7309 748 Q 7297 738 7282 735 Q 7278 734 7274 734 Z M 8500 727 Q 8482 727 8468 743 L 8504 750 Q 8533 748 8509 728 Q 8504 727 8500 727 Z M 2674 715 L 2671 716 Q 2589 723 2593 740 Q 2613 751 2637 751 Q 2645 751 2654 750 Q 2690 744 2674 715 Z M 2917 735 Q 2913 749 2926 750 Q 2932 752 2938 752 Q 2950 752 2962 745 L 2917 735 Z M 5677 710 L 5601 718 Q 5605 752 5687 756 Q 5701 757 5713 757 Q 5770 757 5788 738 Q 5781 714 5757 710 Z M 7467 710 Q 7426 710 7421 720 Q 7436 745 7531 755 Q 7564 759 7584 759 Q 7623 759 7619 745 L 7532 713 L 7475 710 Q 7471 710 7467 710 Z M 7259 755 Q 7246 762 7276 768 Q 7285 770 7291 770 Q 7304 770 7302 760 L 7259 755 Z M 7332 743 Q 7339 766 7365 775 L 7421 773 L 7399 761 L 7332 743 Z M 2876 749 Q 2861 749 2844 752 Q 2783 762 2793 770 Q 2807 782 2863 784 Q 2869 784 2874 784 Q 2923 784 2927 767 Q 2911 749 2876 749 Z M 927 733 L 857 739 Q 801 747 800 766 Q 825 783 875 789 L 961 787 Q 954 761 958 741 L 927 733 Z M 2984 776 Q 2977 776 2969 780 L 2942 778 L 2942 778 Q 2945 791 2967 791 Q 2969 791 2970 791 L 3003 783 Q 2994 776 2984 776 Z M 4044 730 Q 3958 730 3922 777 Q 3927 801 4008 803 L 4112 800 L 4196 795 Q 4241 785 4187 753 Q 4103 730 4044 730 Z M 1657 808 Q 1654 808 1651 808 L 1625 813 L 1622 814 L 1622 818 L 1623 820 Q 1625 830 1648 831 Q 1650 831 1652 831 Q 1676 831 1677 819 Q 1677 808 1657 808 Z M 3631 796 Q 3627 796 3622 796 Q 3584 799 3562 820 L 3558 824 L 3560 826 Q 3571 836 3613 836 Q 3617 836 3621 836 L 3683 827 Q 3669 796 3631 796 Z M 1482 793 Q 1432 797 1408 814 Q 1435 845 1503 845 Q 1507 845 1511 845 Q 1588 842 1591 794 L 1482 793 Z M 1749 862 L 1705 874 L 1663 879 L 1655 879 L 1626 882 Q 1606 885 1598 896 L 1686 904 Q 1748 900 1749 862 Z" fill="rgb(92,111,39)" fill-opacity="1.000"></path><path d="M 108 679 L 106 687 L 93 741 L 116 763 L 116 751 L 110 691 L 108 679 Z M 141 710 L 135 715 Q 114 729 121 750 L 124 757 Q 132 773 153 784 L 153 777 L 152 761 L 150 740 L 147 728 L 141 710 Z M 6579 833 L 6560 835 L 6562 842 L 6587 847 L 6582 836 L 6581 835 L 6580 833 Z M 207 742 Q 201 743 200 775 L 200 778 L 201 814 Q 213 816 213 832 L 217 843 Q 221 854 223 854 Q 226 854 226 835 L 226 831 L 226 827 L 225 836 L 223 849 L 222 839 L 218 795 L 214 772 L 214 769 L 212 759 L 211 755 L 211 754 L 210 752 L 209 748 L 207 742 Z M 6664 855 L 6662 860 L 6667 860 L 6664 855 Z M 297 779 L 297 783 L 298 857 L 298 863 L 333 861 L 332 858 L 309 798 L 300 783 L 297 779 Z M 8897 841 Q 8888 841 8883 847 L 8874 863 Q 8896 858 8906 842 L 8905 842 Q 8900 841 8897 841 Z M 243 738 Q 235 761 230 793 L 227 817 L 226 823 L 226 826 L 227 818 L 230 830 L 237 865 L 239 865 Q 256 824 248 767 L 247 760 Q 242 751 245 748 L 243 738 Z M 6696 829 L 6693 841 L 6692 865 L 6711 868 L 6705 850 L 6705 844 L 6699 833 L 6698 831 L 6696 829 Z M 266 804 L 266 805 Q 264 817 269 838 L 274 871 L 275 871 L 292 865 L 294 864 L 294 861 L 293 859 L 293 857 L 292 855 L 280 815 L 271 804 Z M 8823 850 L 8821 866 L 8821 867 L 8820 875 L 8842 870 L 8823 850 Z M 8751 865 L 8743 877 L 8741 880 L 8742 879 L 8743 879 Q 8745 878 8748 878 Q 8751 878 8754 880 L 8755 880 L 8751 866 Z M 3943 865 Q 3939 865 3933 871 L 3922 887 L 3950 886 Q 3950 865 3943 865 Z M 8792 836 L 8786 841 Q 8771 853 8770 876 L 8770 881 L 8771 887 L 8803 879 L 8803 878 L 8804 864 L 8793 837 L 8792 836 Z M 342 797 L 344 859 L 347 874 L 351 883 Q 354 882 356 882 Q 363 882 371 890 L 372 889 L 357 826 L 342 797 Z M 8660 860 L 8655 861 L 8651 869 L 8641 890 L 8658 890 L 8658 885 L 8660 860 Z M 8704 878 L 8698 883 L 8689 890 L 8704 890 L 8704 878 Z M 3902 868 L 3895 870 Q 3883 874 3874 891 L 3901 889 L 3902 868 Z M 8628 867 L 8623 868 L 8618 884 L 8616 891 L 8629 890 L 8628 867 Z M 8569 871 L 8561 894 L 8580 891 L 8582 891 L 8581 885 L 8577 871 Z M 8313 867 L 8250 869 L 8233 872 L 8174 884 L 8234 891 L 8273 892 L 8298 895 L 8303 888 L 8306 890 L 8311 893 L 8313 894 L 8315 895 L 8315 891 L 8315 874 L 8320 873 L 8313 867 Z M 3840 882 L 3827 896 L 3847 894 L 3840 882 Z M 6822 835 L 6823 850 Q 6828 855 6825 869 L 6823 881 L 6823 890 L 6859 898 L 6857 885 Q 6849 849 6834 839 L 6822 835 Z M 3765 883 Q 3757 883 3751 901 L 3750 904 L 3749 909 L 3784 903 L 3770 885 Q 3767 883 3765 883 Z M 6899 854 L 6901 895 L 6902 909 L 6916 913 L 6910 896 L 6910 883 L 6899 854 Z M 5818 879 L 5809 882 Q 5796 898 5785 898 Q 5784 898 5784 898 Q 5786 889 5783 889 Q 5780 889 5773 896 L 5769 901 L 5767 903 L 5762 910 L 5769 914 L 5777 911 L 5797 901 L 5807 896 Q 5812 895 5816 895 Q 5820 895 5824 897 L 5848 889 L 5843 882 L 5818 880 Z M 3485 912 Q 3481 912 3476 918 L 3491 917 L 3490 916 Q 3488 912 3485 912 Z M 5504 923 L 5499 924 L 5504 925 L 5504 923 Z M 5525 920 L 5526 923 L 5526 924 L 5527 927 L 5541 927 Q 5538 923 5535 922 L 5526 920 Z M 5586 912 Q 5585 912 5584 912 L 5582 912 L 5582 915 L 5582 927 L 5612 926 Q 5603 912 5586 912 Z M 3552 905 Q 3550 905 3549 907 L 3544 920 L 3532 931 L 3519 913 L 3518 909 L 3517 909 L 3511 910 L 3503 917 L 3510 917 Q 3518 917 3525 934 L 3560 922 L 3552 905 Z M 7355 893 L 7350 919 L 7353 922 L 7355 932 L 7355 935 L 7384 932 L 7383 924 L 7356 894 L 7355 893 Z M 7280 905 L 7276 909 L 7262 928 L 7259 932 L 7251 943 L 7265 942 L 7265 937 Q 7265 922 7279 919 L 7280 907 L 7280 905 Z M 2684 948 L 2689 949 L 2690 948 Z M 7162 920 L 7147 952 L 7170 950 Q 7169 925 7162 920 Z M 7128 900 L 7127 901 L 7115 910 L 7111 915 L 7113 917 L 7115 927 L 7099 950 L 7073 952 L 7127 953 L 7131 946 Q 7152 907 7128 900 Z M 3475 952 L 3456 962 L 3480 959 L 3481 958 L 3475 952 Z M 3405 927 L 3387 945 L 3369 966 L 3407 965 L 3412 960 Q 3407 955 3405 946 L 3405 927 Z M 3289 932 L 3273 933 L 3270 933 L 3260 939 L 3127 950 L 3070 949 L 3043 963 L 3030 970 L 3059 969 L 3157 961 L 3164 975 L 3200 972 Q 3207 966 3212 966 Q 3213 966 3213 966 L 3215 969 L 3217 970 L 3255 967 L 3269 967 L 3289 932 Z M 806 915 L 812 931 L 812 932 L 818 947 Q 821 959 816 960 L 802 955 L 805 958 L 806 958 L 832 981 Q 834 982 836 982 Q 845 982 859 973 L 865 969 L 853 961 Q 812 930 806 915 Z M 959 926 L 972 948 L 984 962 L 985 964 L 994 972 Q 989 971 977 962 L 937 931 L 937 931 Q 927 952 959 966 L 982 973 L 1052 982 L 1051 981 L 1050 981 L 1011 952 L 989 937 L 987 936 L 977 930 L 959 926 Z M 4836 971 L 4836 988 L 4848 999 L 4848 998 L 4847 980 L 4842 973 L 4836 971 Z M 1048 937 L 1052 939 L 1072 951 L 1091 962 L 1131 985 L 1143 991 L 1150 994 Q 1197 1016 1227 1016 Q 1233 1016 1238 1015 L 1247 1013 Q 1246 1009 1248 1009 Q 1249 1009 1250 1010 Q 1189 978 1152 964 Q 1097 942 1052 939 L 1048 938 Z M 1194 935 Q 1284 1020 1274 1021 L 1275 1022 L 1276 1023 L 1285 1023 L 1390 1016 L 1366 1006 L 1332 991 L 1251 956 Q 1214 936 1194 935 Z" fill="rgb(98,114,77)" fill-opacity="1.000"></path></g></g></g></g></g></g><defs><defs></defs></defs></svg>