<svg color-interpolation-filters="sRGB" fill-rule="evenodd" pointer-events="none" width="100%" height="100%" xmlns="http://www.w3.org/2000/svg" xmlns:xlink="http://www.w3.org/1999/xlink" style="-webkit-user-select: none;"><g transform="matrix(0.049779458097038445 0 0 0.049779458097038445 0.7630749842469697 0)"><g><rect x="-15.329113924049883" y="0" width="8537.6582278481" height="1586.9999999999995" fill="rgb(102,153,153)"></rect><g><g><g><g><path d="M 20 1023 L 40 1026 L 23 1023 Z" fill="rgb(199,217,225)" fill-opacity="1.000"></path><path d="M 5112 116 L 5130 118 L 5162 121 L 5112 116 Z M 2458 105 L 2317 116 L 2337 134 L 2348 153 L 2380 153 L 2370 166 L 2370 171 L 2426 108 L 2458 105 Z M 2364 178 L 2355 180 L 2356 187 L 2364 178 Z M 3567 431 L 3558 433 L 3573 438 L 3567 431 Z M 1558 493 L 1571 500 Q 1577 506 1574 513 Q 1570 524 1537 524 Q 1527 524 1515 523 L 1440 527 Q 1386 527 1372 509 L 1443 498 L 1558 493 Z M 1011 580 Q 1014 592 999 593 L 978 588 L 981 588 L 1011 580 Z M 898 600 Q 909 600 908 605 L 900 613 L 871 615 Q 849 613 848 604 L 866 600 Z M 731 593 L 751 600 Q 754 613 733 617 L 705 615 L 699 612 L 700 607 Q 701 597 731 593 Z M 1288 597 Q 1291 621 1257 623 L 1225 624 L 1195 618 Q 1199 612 1221 608 L 1288 597 Z M 5281 510 L 5338 513 L 5408 538 L 5411 577 Q 5412 604 5403 613 Q 5394 623 5371 624 L 5335 623 L 5211 615 L 5177 612 Q 5153 607 5148 594 Q 5144 584 5155 571 L 5173 554 Q 5207 523 5224 517 L 5281 510 Z M 1262 650 Q 1264 650 1266 650 L 1288 650 Q 1290 659 1275 659 L 1255 655 Q 1256 650 1262 650 Z M 806 623 L 846 628 L 852 650 L 843 669 Q 829 680 780 680 L 665 667 Q 736 638 806 623 Z M 1103 663 Q 1106 680 1089 680 Q 1087 680 1085 680 Q 1063 680 1078 665 L 1103 663 Z M 5283 673 L 5383 688 Q 5383 700 5368 702 L 5344 703 L 5294 707 L 5247 701 Q 5223 673 5283 673 Z M 1963 543 Q 2042 560 2078 575 Q 2160 608 2150 656 Q 2140 703 1996 733 L 1898 744 L 1800 743 Q 1648 741 1564 717 Q 1457 689 1430 656 Q 1379 594 1565 563 L 1733 548 L 1963 543 Z M 1338 728 L 1338 745 Q 1329 746 1324 746 Q 1311 746 1318 738 L 1338 728 Z M 367 670 L 283 739 L 258 759 L 323 708 Q 359 681 367 670 Z M 4872 651 Q 4905 651 4959 653 L 5099 658 L 5159 674 Q 5195 685 5200 712 L 5200 763 Q 5183 776 5148 780 L 5093 783 Q 5059 784 5027 784 Q 4985 784 4946 782 Q 4877 779 4803 754 L 4767 742 Q 4741 731 4738 717 Q 4726 663 4827 653 Q 4840 652 4873 652 Z M 7605 796 Q 7609 812 7574 812 Q 7567 812 7558 811 Q 7557 804 7568 799 L 7605 796 Z M 1200 719 L 1265 749 Q 1280 764 1285 781 Q 1292 802 1275 813 L 1223 812 L 1160 793 L 1136 775 Q 1127 763 1132 747 Q 1139 727 1160 722 L 1200 719 Z M 5686 804 Q 5687 804 5688 804 L 5710 809 L 5710 813 L 5693 815 Q 5680 814 5678 808 Q 5681 804 5686 804 Z M 7185 799 L 7255 809 L 7211 815 Q 7174 814 7176 799 Z M 6919 753 L 6960 754 L 7080 789 Q 7083 811 7075 821 Q 7067 830 7046 834 L 6975 836 Q 6927 833 6906 819 Q 6895 812 6890 799 Q 6886 785 6890 772 Q 6896 755 6919 753 Z M 6110 771 L 6175 774 L 6185 784 Q 6210 828 6142 836 Q 6123 838 6107 838 Q 6069 838 6048 825 Q 6035 817 6035 806 Q 6035 796 6048 786 Q 6067 771 6110 771 Z M 5320 824 L 5350 834 Q 5347 847 5328 847 Q 5323 847 5318 846 Q 5289 843 5282 828 L 5320 824 Z M 2073 819 L 2050 841 Q 2053 853 2031 853 Q 2028 853 2026 853 Q 2009 853 2004 847 Q 2012 836 2036 828 L 2073 819 Z M 5018 835 Q 5025 835 5025 844 L 5022 852 L 5013 854 L 4986 856 L 4960 851 Q 4953 843 4968 839 L 5013 836 Q 5016 835 5018 835 Z M 1298 829 L 1328 831 Q 1340 857 1323 857 Q 1320 857 1315 856 Q 1285 848 1298 829 Z M 174 838 L 169 842 L 156 859 L 156 859 Q 164 849 174 838 Z M 7430 806 L 7513 816 Q 7537 823 7529 840 Q 7521 857 7492 861 L 7447 861 L 7413 859 Q 7389 854 7391 841 Q 7393 829 7407 820 L 7430 806 Z M 156 859 Q 156 859 156 859 L 156 859 Q 153 863 150 867 L 150 867 L 156 859 L 156 859 Z M 5743 839 L 5783 841 Q 5816 841 5815 864 Q 5815 877 5802 879 L 5777 879 L 5740 880 Q 5714 880 5705 871 Q 5694 859 5714 849 L 5743 839 Z M 5085 876 L 5128 881 Q 5128 887 5115 887 Q 5112 887 5107 887 L 5080 883 L 5085 876 Z M 7208 856 L 7223 859 Q 7235 861 7240 868 Q 7245 875 7235 885 L 7213 888 L 7192 886 Q 7179 882 7177 874 Q 7176 865 7189 861 L 7208 856 Z M 2225 861 L 2235 871 Q 2237 889 2224 894 L 2195 896 L 2172 897 Q 2156 897 2152 889 L 2152 879 L 2225 861 Z M 7325 874 L 7363 879 L 7369 887 L 7362 896 L 7333 899 L 7303 893 Q 7299 883 7325 874 Z M 4967 876 Q 4968 876 4970 876 L 4998 879 Q 5014 879 5015 888 Q 5016 898 5006 900 L 4989 899 Q 4956 899 4957 885 Q 4959 876 4967 876 Z M 2913 899 L 2913 908 Q 2907 909 2902 909 Q 2887 909 2891 899 Z M 1630 896 Q 1640 909 1625 913 L 1601 914 L 1565 909 Q 1565 902 1570 901 L 1630 896 Z M 5688 889 L 5720 911 Q 5725 925 5681 925 Q 5663 925 5637 923 Q 5620 920 5616 915 Q 5612 909 5616 894 L 5688 889 Z M 150 867 L 147 871 Q 122 906 120 937 L 122 924 Q 127 898 150 867 Z M 6735 919 L 6735 938 L 6702 937 Q 6681 933 6695 919 Z M 5920 931 L 5958 936 L 5958 941 L 5931 943 Q 5912 941 5916 931 Z M 6470 884 L 6516 893 Q 6547 904 6532 923 Q 6526 931 6508 936 L 6481 942 L 6401 946 L 6352 945 Q 6314 941 6315 926 Q 6318 894 6390 894 L 6470 884 Z M 5305 894 Q 5322 894 5327 900 Q 5333 908 5322 921 Q 5306 941 5277 947 L 5224 949 L 5201 947 Q 5189 944 5188 932 Q 5187 913 5213 904 L 5253 896 L 5305 894 Z M 2895 929 Q 2920 931 2921 944 Q 2921 955 2910 959 L 2891 959 Q 2876 958 2873 953 Q 2868 946 2874 942 L 2888 939 L 2895 929 Z M 5848 921 L 5865 926 Q 5878 927 5885 933 Q 5893 940 5886 951 Q 5880 959 5864 960 L 5839 959 L 5813 958 Q 5794 955 5795 944 Q 5796 925 5848 921 Z M 3136 923 Q 3149 923 3146 944 Q 3143 967 3133 976 Q 3123 985 3105 986 L 3075 986 L 3032 983 Q 3004 974 3015 956 Q 3026 940 3053 934 L 3098 926 L 3130 924 Q 3133 923 3136 923 Z M 4858 936 L 4858 956 L 4855 985 Q 4850 996 4836 996 Q 4835 996 4833 996 Q 4782 996 4769 984 Q 4749 964 4796 948 Q 4833 936 4858 936 Z M 6458 969 L 6495 986 Q 6494 994 6473 996 Q 6471 996 6468 996 Q 6452 996 6448 990 Q 6444 984 6448 978 L 6458 969 Z M 1668 979 L 1696 984 L 1683 997 L 1662 996 L 1649 991 Q 1643 986 1653 981 L 1668 979 Z M 6403 989 L 6415 994 Q 6414 1005 6395 1005 Q 6393 1005 6392 1005 L 6363 1001 Q 6362 991 6380 989 Z M 2580 939 L 2635 949 Q 2670 960 2676 979 Q 2684 1005 2658 1012 L 2612 1014 L 2522 1005 L 2483 999 Q 2456 993 2450 984 Q 2434 957 2480 948 L 2540 944 L 2580 939 Z M 4908 991 Q 4923 998 4925 1008 Q 4928 1018 4909 1019 L 4876 1018 Q 4853 1015 4855 999 L 4908 991 Z M 1450 941 L 1545 954 Q 1563 964 1567 969 Q 1574 978 1567 993 Q 1554 1020 1519 1022 L 1466 1013 Q 1434 1001 1428 980 Q 1425 968 1432 958 Q 1435 953 1450 941 Z M 8113 1006 L 8123 1027 L 8123 1027 Q 8119 1016 8113 1006 Z M 5099 1001 Q 5101 1001 5103 1001 L 5148 1019 L 5148 1028 L 5114 1029 Q 5089 1025 5088 1013 Q 5087 1001 5099 1001 Z M 6175 1029 Q 6196 1032 6196 1048 L 6153 1053 Q 6120 1053 6125 1034 L 6175 1029 Z M 5950 1046 L 5948 1051 Q 5949 1059 5923 1061 L 5892 1056 Q 5898 1046 5950 1046 Z M 2544 1038 L 2580 1039 L 2590 1059 Q 2587 1071 2558 1071 Q 2529 1071 2525 1059 Q 2519 1040 2544 1038 Z M 2790 1014 L 2873 1041 L 2873 1057 L 2867 1071 L 2826 1073 L 2755 1063 L 2734 1055 Q 2721 1049 2722 1039 Q 2724 1019 2790 1014 Z M 1630 1016 L 1680 1029 Q 1681 1029 1681 1029 Q 1697 1029 1694 1052 Q 1691 1076 1678 1081 L 1658 1083 L 1637 1081 L 1609 1081 L 1581 1074 L 1564 1058 Q 1557 1046 1560 1036 Q 1564 1023 1591 1019 L 1630 1016 Z M 6565 969 L 6745 979 Q 6751 978 6757 978 Q 6784 978 6813 997 Q 6851 1022 6845 1054 L 6844 1064 L 6840 1072 Q 6832 1082 6795 1085 L 6747 1088 L 6617 1078 Q 6553 1060 6538 1042 Q 6524 1024 6537 1003 L 6565 969 Z M 5213 1061 L 5268 1074 Q 5270 1091 5252 1093 L 5220 1090 L 5200 1087 Q 5185 1083 5188 1074 Q 5190 1066 5198 1064 L 5213 1061 Z M 5155 1091 L 5185 1096 Q 5187 1105 5173 1105 Q 5172 1105 5170 1105 L 5148 1102 Q 5144 1094 5155 1091 Z M 1923 1092 L 1955 1094 L 1935 1099 Q 1929 1109 1908 1110 Q 1907 1110 1905 1110 Q 1887 1110 1891 1096 L 1923 1092 Z M 6115 1079 L 6180 1084 L 6175 1097 L 6166 1108 L 6124 1112 Q 6090 1110 6082 1104 Q 6064 1090 6084 1083 L 6115 1079 Z M 8123 1027 Q 8133 1054 8127 1081 Q 8123 1100 8112 1117 L 8112 1117 L 8122 1105 Q 8139 1075 8129 1040 L 8123 1027 Z M 2130 1054 L 2165 1059 Q 2181 1069 2165 1087 L 2137 1109 Q 2114 1120 2081 1120 Q 2072 1120 2061 1119 Q 2040 1117 2032 1105 Q 2022 1092 2037 1075 Q 2047 1062 2081 1060 L 2130 1054 Z M 4415 1079 L 4415 1105 Q 4412 1117 4399 1125 L 4371 1130 L 4341 1129 Q 4316 1120 4328 1107 L 4355 1084 L 4415 1079 Z M 8112 1117 L 8112 1117 L 8094 1138 L 8094 1138 Q 8105 1128 8112 1117 L 8112 1117 Q 8112 1117 8112 1117 Z M 800 1121 L 937 1140 L 874 1128 L 800 1121 Z M 8094 1138 Q 8092 1140 8089 1143 L 8089 1143 L 8093 1140 L 8095 1138 Z M 5826 1074 L 5896 1121 Q 5898 1138 5888 1142 L 5861 1144 L 5793 1144 L 5725 1136 Q 5702 1136 5688 1119 Q 5672 1089 5741 1078 L 5826 1074 Z M 6069 1119 L 6056 1126 Q 6059 1150 6034 1150 Q 6027 1150 6017 1148 Q 6009 1147 6004 1142 Q 5997 1136 6002 1129 Q 6004 1126 6013 1124 L 6069 1119 Z M 2894 1131 Q 2898 1149 2871 1151 Q 2867 1151 2864 1151 Q 2844 1151 2841 1141 Q 2845 1134 2851 1134 L 2894 1131 Z M 8089 1143 L 8089 1143 L 8088 1144 L 8078 1152 Q 8084 1148 8089 1143 Q 8089 1143 8089 1143 Z M 4241 1124 L 4289 1139 L 4286 1158 L 4270 1168 L 4212 1171 L 4190 1166 Q 4177 1151 4203 1138 L 4241 1124 Z M 5359 1109 L 5401 1131 Q 5424 1134 5435 1143 Q 5448 1153 5449 1174 L 5447 1193 L 5404 1192 Q 5275 1180 5280 1144 Q 5283 1126 5314 1116 L 5359 1109 Z M 8048 1169 L 8009 1190 L 7999 1196 L 8048 1169 Z M 5616 1166 L 5689 1184 Q 5696 1197 5680 1199 L 5653 1199 Q 5596 1197 5575 1177 Q 5596 1167 5616 1166 Z M 3176 1126 L 3236 1141 Q 3252 1145 3254 1157 L 3256 1176 L 3252 1194 Q 3245 1203 3223 1203 L 3192 1201 L 3074 1197 Q 2993 1188 3014 1162 Q 3022 1153 3055 1145 L 3097 1136 L 3137 1132 L 3176 1126 Z M 3291 1179 L 3364 1184 Q 3366 1205 3336 1205 Q 3323 1205 3303 1201 Q 3285 1199 3283 1191 Q 3281 1181 3291 1179 Z M 2821 1149 L 2856 1189 L 2855 1205 L 2845 1218 Q 2841 1221 2832 1221 Q 2823 1221 2810 1219 L 2755 1212 L 2728 1203 Q 2711 1194 2715 1181 Q 2717 1172 2726 1169 Q 2770 1155 2822 1150 Z M 3974 1176 L 4000 1177 L 4047 1180 Q 4069 1205 4044 1217 L 4004 1222 Q 3978 1220 3965 1211 Q 3940 1196 3950 1182 Q 3954 1176 3974 1176 Z M 4470 1150 L 4477 1155 L 4509 1162 Q 4529 1169 4531 1182 L 4525 1199 L 4504 1225 Q 4494 1234 4481 1236 L 4455 1237 L 4380 1235 Q 4319 1230 4325 1209 Q 4329 1198 4353 1186 L 4386 1173 Q 4448 1151 4470 1150 Z M 3610 989 Q 3628 989 3652 994 Q 3715 1007 3760 1035 Q 3774 1041 3782 1056 Q 3821 1112 3832 1135 L 3837 1157 L 3834 1180 L 3823 1219 Q 3815 1229 3787 1230 L 3727 1240 Q 3705 1228 3665 1228 L 3599 1230 L 3531 1222 Q 3486 1211 3487 1184 Q 3487 1166 3519 1140 Q 3552 1113 3553 1092 L 3548 1053 Q 3544 1030 3552 1016 Q 3567 989 3610 989 Z M 7999 1197 L 7883 1260 L 7941 1229 L 8000 1197 Z M 1130 1256 L 1131 1257 L 1141 1262 L 1130 1256 Z M 3201 1215 L 3253 1232 L 3281 1246 Q 3297 1257 3277 1264 L 3202 1262 Q 3175 1259 3156 1248 Q 3125 1231 3153 1222 L 3201 1215 Z M 7884 1260 L 7846 1280 L 7810 1297 L 7843 1282 L 7884 1260 Z M 3848 1240 L 3963 1245 Q 3984 1258 3987 1273 Q 3990 1291 3967 1304 Q 3961 1308 3943 1308 Q 3925 1308 3896 1304 Q 3837 1299 3812 1283 Q 3800 1276 3799 1270 Q 3797 1264 3803 1253 Q 3810 1242 3823 1240 Z M 4121 1225 Q 4153 1240 4168 1273 Q 4181 1302 4172 1312 L 4112 1320 L 4052 1317 Q 4004 1302 4018 1277 Q 4024 1266 4047 1256 L 4081 1242 L 4121 1225 Z M 7633 1330 L 7615 1331 L 7640 1330 Z M 7342 1348 L 7322 1349 L 7233 1356 L 7201 1360 L 7314 1350 L 7342 1348 Z M 2323 254 L 2217 266 L 2116 271 Q 2068 274 2039 291 Q 2000 313 1993 325 L 1983 354 L 1969 381 L 1957 389 L 1938 390 L 1895 389 L 1758 395 L 1620 405 L 1420 427 Q 1369 442 1344 442 Q 1327 442 1322 435 Q 1317 428 1346 399 L 1375 371 Q 1411 336 1457 319 Q 1482 310 1550 295 L 1574 286 L 1501 288 Q 1488 289 1476 289 Q 1447 289 1431 280 Q 1435 272 1444 267 L 1463 260 L 1466 259 L 1070 345 L 1045 350 L 1110 338 L 1236 311 L 1258 310 L 1258 310 Q 1275 453 1215 485 L 1098 496 L 923 489 L 853 482 Q 798 472 788 449 L 786 438 Q 718 467 644 504 Q 604 524 570 543 L 558 571 Q 555 595 538 608 L 504 638 Q 494 650 492 667 Q 490 684 498 698 Q 510 719 537 724 L 585 725 L 669 731 Q 695 734 715 734 Q 736 734 752 732 L 831 719 L 912 712 L 982 704 Q 983 704 984 704 Q 1019 704 1032 740 L 1040 772 Q 1044 791 1051 804 L 1081 849 Q 1140 824 1146 822 Q 1172 813 1191 813 Q 1202 813 1211 816 L 1173 846 L 1136 878 L 1115 908 L 1123 919 L 1160 946 L 1202 966 L 1205 977 L 1270 1011 L 1413 1085 L 1476 1120 Q 1513 1139 1543 1144 L 1656 1149 L 1769 1145 L 1899 1160 L 2028 1186 L 2070 1196 L 2112 1199 L 2168 1180 L 2240 1166 Q 2284 1158 2306 1139 L 2301 1120 L 2408 1115 Q 2469 1118 2508 1144 L 2539 1175 L 2547 1186 Q 2568 1190 2603 1207 L 2658 1232 Q 2689 1243 2752 1279 Q 2782 1294 2826 1297 L 2902 1304 L 3028 1317 L 3155 1319 L 3195 1321 L 3234 1319 L 3355 1316 L 3479 1319 L 3546 1303 Q 3590 1287 3612 1285 Q 3615 1285 3617 1285 Q 3633 1285 3649 1295 L 3682 1318 Q 3703 1330 3732 1338 L 3785 1352 Q 3859 1372 4026 1372 Q 4247 1372 4396 1330 L 4497 1312 Q 4526 1306 4532 1299 L 4541 1280 Q 4545 1266 4551 1260 Q 4555 1257 4565 1253 L 4579 1246 L 4587 1234 Q 4583 1233 4586 1226 Q 4610 1168 4612 1146 L 4611 1119 L 4598 1099 L 4584 1085 Q 4578 1078 4578 1066 L 4587 1024 Q 4594 1001 4584 979 L 4527 843 Q 4532 842 4536 842 Q 4563 842 4601 871 L 4666 925 L 4717 971 Q 4749 1005 4768 1018 Q 4824 1059 4918 1079 L 5078 1110 L 5153 1126 Q 5199 1138 5224 1156 L 5249 1178 Q 5300 1213 5378 1231 L 5516 1246 L 5720 1260 L 6044 1279 L 6121 1283 Q 6181 1283 6180 1260 Q 6194 1258 6218 1258 Q 6236 1258 6260 1259 L 6296 1253 L 6328 1239 L 6414 1224 L 6538 1206 L 6663 1207 L 6787 1199 Q 6809 1195 6840 1179 L 6890 1157 L 6920 1147 Q 6927 1140 6925 1118 Q 6919 1036 6863 972 L 6842 947 L 6858 956 L 6840 945 Q 6739 833 6652 791 L 6652 791 Q 6709 801 6806 843 Q 6911 889 6959 900 L 7068 918 L 7121 917 L 7173 920 L 7167 933 Q 7185 944 7228 944 Q 7235 944 7242 944 L 7323 939 L 7404 944 L 7445 948 L 7487 946 Q 7497 942 7503 933 L 7515 917 Q 7527 908 7537 906 L 7564 906 L 7603 901 L 7612 865 Q 7616 836 7650 836 Q 7651 836 7652 836 L 7717 838 L 7713 793 L 7668 781 L 7392 713 Q 7340 732 7289 732 Q 7256 734 7226 734 Q 7084 734 7019 687 Q 7000 673 6997 656 Q 6993 638 7009 622 Q 7016 615 7026 610 L 6864 558 L 6887 566 L 6728 663 Q 6629 721 6501 721 Q 6460 721 6417 715 Q 6377 711 6346 693 Q 6321 679 6286 648 Q 6272 630 6250 619 Q 6236 620 6228 633 L 6214 655 L 6195 669 L 6173 677 L 6099 690 L 6022 691 L 5801 683 Q 5681 671 5586 633 L 5548 620 Q 5516 607 5514 596 Q 5510 571 5558 566 L 5618 565 L 5813 571 L 5855 570 L 5882 557 L 5824 549 Q 5786 547 5767 536 L 5751 520 L 5742 502 Q 5733 491 5717 488 L 5684 485 L 5457 468 L 5304 464 L 5151 457 Q 5051 495 4923 531 L 4515 641 L 4365 683 L 4334 694 Q 4312 710 4309 733 L 4312 780 L 4317 829 Q 4317 860 4306 873 Q 4268 914 4160 932 L 4003 925 L 3850 884 L 3738 858 L 3624 861 Q 3554 880 3533 915 Q 3504 969 3424 980 L 3333 981 Q 3309 984 3293 984 Q 3274 984 3267 980 L 3255 973 Q 3253 970 3254 959 Q 3255 947 3264 939 L 3282 925 L 3360 870 Q 3363 868 3429 835 Q 3431 835 3433 835 Q 3444 835 3446 825 L 3329 812 Q 3245 803 3243 760 Q 3242 730 3286 706 L 3355 672 Q 3372 663 3374 647 L 3378 611 Q 3387 577 3400 561 Q 3416 541 3446 534 L 3489 529 Q 3519 524 3512 506 L 3498 493 L 3484 478 Q 3477 467 3477 452 L 3299 457 L 3122 456 Q 3106 456 3093 456 Q 3066 456 3047 457 Q 2996 463 2993 491 L 2994 519 Q 2993 529 2975 536 Q 2942 548 2887 550 L 2796 551 L 2745 549 L 2696 556 Q 2707 568 2709 586 Q 2711 606 2699 616 Q 2687 624 2655 624 Q 2651 624 2647 624 L 2592 621 L 2455 611 Q 2424 603 2419 587 Q 2414 570 2440 550 Q 2471 528 2500 521 L 2520 518 Q 2531 516 2538 509 L 2507 504 L 2473 506 L 2345 502 L 2305 498 Q 2279 495 2268 487 Q 2250 476 2264 461 Q 2275 449 2295 444 L 2406 426 L 2437 426 L 2468 425 L 2428 408 Q 2404 397 2418 378 Q 2422 373 2438 367 L 2460 358 L 2489 342 L 2533 330 L 2529 303 L 2524 279 Q 2518 273 2491 270 L 2459 268 L 2367 256 L 2323 255 Z M 1661 1388 L 1673 1391 L 1714 1400 L 1661 1388 Z M 6038 1416 L 6052 1417 L 6054 1417 L 6038 1416 Z M 2274 1420 L 2230 1421 L 2320 1421 L 2275 1420 Z M 2217 1421 L 2187 1422 L 2187 1422 L 2231 1421 Z M 2187 1422 L 2097 1424 L 2063 1426 L 2187 1422 Z M 3394 1492 L 3431 1495 L 3415 1493 L 3394 1492 Z M 4590 1500 L 4489 1508 L 4426 1514 L 4504 1508 L 4590 1500 Z" fill="url(#:0)"></path><path d="M 1011 580 L 981 588 L 978 588 L 999 593 Q 1014 592 1011 580 Z M 866 600 L 848 604 Q 849 613 871 615 L 900 613 L 908 605 Q 909 600 898 600 Z M 731 593 Q 701 597 700 607 L 699 612 L 705 615 L 733 617 Q 754 613 751 600 L 731 593 Z M 1288 597 L 1221 608 Q 1199 612 1195 618 L 1225 624 L 1257 623 Q 1291 621 1288 597 Z M 1262 650 Q 1256 650 1255 655 L 1275 659 Q 1290 659 1288 650 L 1266 650 Q 1264 650 1262 650 Z M 806 623 Q 736 638 665 667 L 780 680 Q 829 680 843 669 L 852 650 L 846 628 L 806 623 Z M 1103 663 L 1078 665 Q 1063 680 1085 680 Q 1087 680 1089 680 Q 1106 680 1103 663 Z M 1338 728 L 1318 738 Q 1311 746 1324 746 Q 1329 746 1338 745 L 1338 728 Z M 7603 795 L 7566 798 Q 7555 803 7556 810 Q 7565 811 7572 811 Q 7607 811 7603 795 Z M 1198 718 L 1158 721 Q 1137 726 1130 746 Q 1125 762 1134 774 L 1158 792 L 1221 811 L 1273 812 Q 1290 801 1283 780 Q 1278 763 1263 748 L 1198 718 Z M 5684 803 Q 5679 803 5676 807 Q 5678 813 5691 814 L 5708 812 L 5708 808 L 5686 803 Q 5685 803 5684 803 Z M 7174 798 Q 7172 813 7209 814 L 7253 808 L 7183 798 Z M 6917 752 Q 6894 754 6888 771 Q 6884 784 6888 798 Q 6893 811 6904 818 Q 6925 832 6973 835 L 7044 833 Q 7065 829 7073 820 Q 7081 810 7078 788 L 6958 753 L 6917 752 Z M 2071 818 L 2034 827 Q 2010 835 2002 846 Q 2007 852 2024 852 Q 2026 852 2029 852 Q 2051 852 2048 840 L 2071 818 Z M 5016 834 Q 5014 834 5011 835 L 4966 838 Q 4951 842 4958 850 L 4984 855 L 5011 853 L 5020 851 L 5023 843 Q 5023 834 5016 834 Z M 1296 828 Q 1283 847 1313 855 Q 1317 856 1321 856 Q 1338 856 1326 830 L 1296 828 Z M 7428 805 L 7405 819 Q 7391 828 7389 840 Q 7387 853 7411 858 L 7445 860 L 7490 860 Q 7519 856 7527 839 Q 7535 822 7511 815 L 7428 805 Z M 5741 838 L 5712 848 Q 5692 858 5703 870 Q 5712 879 5738 879 L 5775 878 L 5800 878 Q 5813 876 5813 863 Q 5814 840 5781 840 L 5741 838 Z M 5083 875 L 5078 882 L 5105 886 Q 5109 886 5113 886 Q 5126 886 5126 880 L 5083 875 Z M 7206 855 L 7187 860 Q 7174 864 7175 873 Q 7177 881 7190 885 L 7211 887 L 7233 884 Q 7243 874 7238 867 Q 7233 860 7221 858 L 7206 855 Z M 2223 860 L 2150 878 L 2150 888 Q 2154 896 2170 896 L 2193 895 L 2222 893 Q 2235 888 2233 870 L 2223 860 Z M 7323 873 Q 7297 882 7301 892 L 7331 898 L 7360 895 L 7367 886 L 7361 878 L 7323 873 Z M 4965 875 Q 4957 875 4955 884 Q 4954 898 4987 898 L 5004 899 Q 5014 897 5013 887 Q 5012 878 4996 878 L 4968 875 Q 4966 875 4965 875 Z M 2889 898 Q 2885 908 2900 908 Q 2905 908 2911 907 L 2911 898 Z M 1628 895 L 1568 900 Q 1563 901 1563 908 L 1599 913 L 1623 912 Q 1638 908 1628 895 Z M 5686 888 L 5614 893 Q 5610 908 5614 914 Q 5618 919 5635 922 Q 5661 924 5679 924 Q 5723 924 5718 910 L 5686 888 Z M 6693 918 Q 6679 932 6700 936 L 6733 937 L 6733 918 Z M 5914 930 Q 5910 940 5929 942 L 5956 940 L 5956 935 L 5918 930 Z M 6468 883 L 6388 893 Q 6316 893 6313 925 Q 6312 940 6350 944 L 6399 945 L 6479 941 L 6506 935 Q 6524 930 6530 922 Q 6545 903 6514 892 L 6468 883 Z M 5303 893 L 5251 895 L 5211 903 Q 5185 912 5186 931 Q 5187 943 5199 946 L 5222 948 L 5275 946 Q 5304 940 5320 920 Q 5331 907 5325 899 Q 5320 893 5303 893 Z M 2893 928 L 2886 938 L 2872 941 Q 2866 945 2871 952 Q 2874 957 2889 958 L 2908 958 Q 2919 954 2919 943 Q 2918 930 2893 928 Z M 5846 920 Q 5794 924 5793 943 Q 5792 954 5811 957 L 5837 958 L 5862 959 Q 5878 958 5884 950 Q 5891 939 5883 932 Q 5876 926 5863 925 L 5846 920 Z M 3134 922 Q 3131 922 3128 923 L 3096 925 L 3051 933 Q 3024 939 3013 955 Q 3002 973 3030 982 L 3073 985 L 3103 985 Q 3121 984 3131 975 Q 3141 966 3144 943 Q 3147 922 3134 922 Z M 4856 935 Q 4831 935 4794 947 Q 4747 963 4767 983 Q 4780 995 4831 995 Q 4832 995 4834 995 Q 4849 995 4853 984 L 4856 955 L 4856 935 Z M 6456 968 L 6446 977 Q 6442 983 6446 989 Q 6450 995 6466 995 Q 6468 995 6471 995 Q 6492 993 6493 985 L 6456 968 Z M 1666 978 L 1651 980 Q 1641 985 1647 990 L 1660 995 L 1681 996 L 1694 983 L 1666 978 Z M 6378 988 Q 6360 990 6361 1000 L 6390 1004 Q 6392 1004 6393 1004 Q 6412 1004 6413 993 L 6401 988 Z M 2578 938 L 2538 943 L 2478 947 Q 2432 956 2448 983 Q 2454 992 2481 998 L 2520 1004 L 2610 1013 L 2656 1011 Q 2682 1004 2674 978 Q 2668 959 2633 948 L 2578 938 Z M 4906 990 L 4853 998 Q 4851 1014 4874 1017 L 4907 1018 Q 4926 1017 4923 1007 Q 4921 997 4906 990 Z M 1448 940 Q 1433 952 1430 957 Q 1423 967 1426 979 Q 1432 1000 1464 1012 L 1517 1021 Q 1552 1019 1565 992 Q 1572 977 1565 968 Q 1561 963 1543 953 L 1448 940 Z M 5097 1000 Q 5085 1000 5086 1012 Q 5087 1024 5112 1028 L 5146 1027 L 5146 1018 L 5101 1000 Q 5099 1000 5097 1000 Z M 6173 1028 L 6123 1033 Q 6118 1052 6151 1052 L 6194 1047 Q 6194 1031 6173 1028 Z M 5948 1045 Q 5896 1045 5890 1055 L 5921 1060 Q 5947 1058 5946 1050 L 5948 1045 Z M 2542 1037 Q 2517 1039 2523 1058 Q 2527 1070 2556 1070 Q 2585 1070 2588 1058 L 2578 1038 L 2542 1037 Z M 2788 1013 Q 2722 1018 2720 1038 Q 2719 1048 2732 1054 L 2753 1062 L 2824 1072 L 2865 1070 L 2871 1056 L 2871 1040 L 2788 1013 Z M 1628 1015 L 1589 1018 Q 1562 1022 1558 1035 Q 1555 1045 1562 1057 L 1579 1073 L 1607 1080 L 1635 1080 L 1656 1082 L 1676 1080 Q 1689 1075 1692 1051 Q 1695 1028 1679 1028 Q 1678 1028 1678 1028 L 1628 1015 Z M 6563 968 L 6535 1002 Q 6522 1023 6536 1041 Q 6551 1059 6615 1077 L 6745 1087 L 6793 1084 Q 6830 1081 6838 1071 L 6842 1063 L 6843 1053 Q 6849 1021 6811 996 Q 6781 977 6755 977 Q 6749 977 6743 978 L 6563 968 Z M 5211 1060 L 5196 1063 Q 5188 1065 5186 1073 Q 5183 1082 5198 1086 L 5218 1089 L 5250 1092 Q 5268 1090 5266 1073 L 5211 1060 Z M 5153 1090 Q 5142 1093 5146 1101 L 5168 1104 Q 5170 1104 5171 1104 Q 5185 1104 5183 1095 L 5153 1090 Z M 1921 1091 L 1889 1095 Q 1885 1109 1903 1109 Q 1904 1109 1906 1109 Q 1927 1108 1933 1098 L 1953 1093 L 1921 1091 Z M 6113 1078 L 6082 1082 Q 6062 1089 6080 1103 Q 6088 1109 6122 1111 L 6164 1107 L 6173 1096 L 6178 1083 L 6113 1078 Z M 2128 1053 L 2079 1059 Q 2045 1061 2035 1074 Q 2020 1091 2030 1104 Q 2038 1116 2059 1118 Q 2069 1119 2079 1119 Q 2112 1119 2135 1108 L 2163 1086 Q 2179 1068 2163 1058 L 2128 1053 Z M 4413 1078 L 4353 1083 L 4326 1106 Q 4314 1119 4339 1128 L 4369 1129 L 4397 1124 Q 4410 1116 4413 1104 L 4413 1078 Z M 5823 1073 L 5738 1077 Q 5669 1088 5685 1118 Q 5699 1135 5722 1135 L 5790 1143 L 5858 1143 L 5885 1141 Q 5895 1137 5893 1120 L 5823 1073 Z M 6066 1118 L 6010 1123 Q 6001 1125 5999 1128 Q 5994 1135 6001 1141 Q 6006 1146 6014 1147 Q 6024 1149 6031 1149 Q 6056 1149 6053 1125 L 6066 1118 Z M 2891 1130 L 2848 1133 Q 2842 1133 2838 1140 Q 2841 1150 2861 1150 Q 2864 1150 2868 1150 Q 2895 1148 2891 1130 Z M 4238 1123 L 4200 1137 Q 4174 1150 4187 1165 L 4209 1170 L 4267 1167 L 4283 1157 L 4286 1138 L 4238 1123 Z M 5356 1108 L 5311 1115 Q 5280 1125 5277 1143 Q 5272 1179 5401 1191 L 5444 1192 L 5446 1173 Q 5445 1152 5432 1142 Q 5421 1133 5398 1130 L 5356 1108 Z M 5613 1165 Q 5593 1166 5572 1176 Q 5593 1196 5650 1198 L 5677 1198 Q 5693 1196 5686 1183 L 5613 1165 Z M 3173 1125 L 3134 1131 L 3094 1135 L 3052 1144 Q 3019 1152 3011 1161 Q 2990 1187 3071 1196 L 3189 1200 L 3220 1202 Q 3242 1202 3249 1193 L 3253 1175 L 3251 1156 Q 3249 1144 3233 1140 L 3173 1125 Z M 3288 1178 Q 3278 1180 3280 1190 Q 3282 1198 3300 1200 Q 3320 1204 3333 1204 Q 3363 1204 3361 1183 L 3288 1178 Z M 2818 1148 Q 2766 1153 2722 1167 Q 2713 1170 2711 1179 Q 2707 1192 2724 1201 L 2751 1210 L 2806 1217 Q 2820 1220 2829 1220 Q 2838 1220 2843 1218 L 2853 1205 L 2854 1189 L 2819 1149 Z M 3971 1175 Q 3951 1175 3947 1181 Q 3937 1195 3962 1210 Q 3975 1219 4001 1221 L 4041 1216 Q 4066 1204 4044 1179 L 3997 1176 L 3971 1175 Z M 4467 1149 Q 4445 1150 4383 1172 L 4350 1185 Q 4326 1197 4322 1208 Q 4316 1229 4377 1234 L 4452 1236 L 4478 1235 Q 4491 1233 4501 1224 L 4522 1198 L 4528 1181 Q 4526 1168 4506 1161 L 4474 1154 L 4467 1149 Z M 3607 988 Q 3564 988 3549 1015 Q 3541 1029 3545 1052 L 3550 1091 Q 3549 1112 3516 1139 Q 3484 1165 3484 1183 Q 3483 1210 3528 1221 L 3596 1229 L 3662 1227 Q 3702 1227 3724 1239 L 3784 1229 Q 3812 1228 3820 1218 L 3831 1179 L 3834 1156 L 3829 1134 Q 3818 1111 3779 1055 Q 3771 1040 3757 1034 Q 3712 1006 3649 993 Q 3626 988 3607 988 Z M 3197 1214 L 3149 1221 Q 3121 1230 3152 1247 Q 3171 1258 3198 1261 L 3273 1263 Q 3293 1256 3277 1245 L 3249 1231 L 3197 1214 Z M 3819 1239 Q 3806 1241 3799 1252 Q 3793 1263 3795 1269 Q 3796 1275 3808 1282 Q 3833 1298 3892 1303 Q 3921 1307 3939 1307 Q 3957 1307 3963 1303 Q 3986 1290 3983 1272 Q 3980 1257 3959 1244 L 3844 1239 Z M 4117 1224 L 4077 1241 L 4043 1255 Q 4020 1265 4014 1276 Q 4000 1301 4048 1316 L 4108 1319 L 4168 1311 Q 4177 1301 4164 1272 Q 4149 1239 4117 1224 Z M 566 541 L 543 554 L 522 566 Q 399 634 368 671 Q 360 682 324 709 L 259 760 L 253 764 L 267 764 L 308 763 Q 329 766 335 783 Q 338 795 331 814 L 321 844 Q 314 889 329 949 L 375 960 L 428 964 L 496 970 Q 498 970 500 970 Q 521 970 542 959 L 584 938 L 676 920 Q 732 911 767 892 L 789 879 Q 802 872 814 870 Q 822 869 828 869 Q 842 869 847 875 L 857 905 L 881 941 L 906 977 L 930 1013 Q 944 1027 968 1036 L 1070 1076 Q 1128 1103 1161 1135 L 1193 1170 L 1227 1202 Q 1261 1224 1334 1224 Q 1340 1224 1346 1224 L 1374 1223 L 1416 1225 Q 1424 1242 1458 1250 L 1509 1259 Q 1542 1267 1567 1280 L 1618 1311 Q 1652 1331 1688 1334 L 1761 1330 L 1912 1336 L 2064 1344 L 2113 1337 L 2162 1330 L 2248 1324 L 2385 1315 Q 2431 1322 2455 1338 L 2543 1392 L 2669 1404 L 2766 1403 L 2861 1412 L 3015 1424 L 3148 1419 L 3280 1424 L 3413 1436 L 3546 1442 Q 3589 1446 3624 1446 Q 3647 1446 3666 1444 L 3671 1424 L 3670 1402 L 3681 1409 L 3680 1397 L 3662 1364 Q 3649 1343 3648 1330 L 3648 1330 Q 3673 1332 3710 1373 Q 3752 1421 3768 1429 L 3813 1443 L 3860 1450 L 4011 1471 Q 4055 1473 4090 1473 Q 4133 1473 4161 1470 L 4188 1462 L 4136 1453 L 4226 1453 L 4237 1451 L 4535 1409 L 4687 1399 Q 4781 1394 4835 1375 Q 4865 1365 4868 1339 L 4849 1289 L 4829 1239 L 4826 1232 L 4814 1215 L 4761 1123 Q 4733 1064 4717 1045 L 4717 1045 L 4781 1095 Q 4822 1125 4835 1150 L 4838 1164 L 4842 1178 L 4850 1190 L 4902 1228 Q 4930 1250 4944 1275 L 4945 1277 Q 5018 1319 5119 1323 L 5190 1331 L 5258 1328 L 5325 1330 L 5340 1336 L 5354 1344 L 5442 1365 Q 5612 1407 5864 1411 L 6034 1414 L 6050 1415 L 6061 1415 L 6089 1414 L 6094 1415 L 6117 1415 L 6289 1417 Q 6281 1412 6279 1396 L 6278 1367 L 6248 1335 Q 6227 1314 6224 1299 L 6209 1290 L 6224 1290 L 6224 1289 Q 6225 1289 6227 1289 Q 6249 1289 6273 1304 L 6342 1337 Q 6383 1356 6413 1357 L 6483 1356 L 6553 1358 L 6626 1355 L 6700 1345 L 6851 1336 L 7001 1324 L 7187 1296 Q 7190 1256 7174 1216 Q 7163 1186 7134 1143 Q 7088 1072 7042 1030 Q 7025 1014 6995 1009 L 6941 998 Q 6911 987 6854 954 L 6854 954 L 6942 975 L 7027 990 Q 7084 1009 7144 1064 L 7190 1108 Q 7216 1130 7245 1142 L 7287 1165 L 7328 1189 L 7360 1197 L 7455 1200 L 7549 1197 L 7627 1199 Q 7668 1198 7698 1183 L 7749 1150 Q 7779 1129 7800 1122 L 7851 1111 Q 7881 1103 7880 1087 Q 7844 1068 7819 1049 L 7762 1004 L 7731 983 Q 7713 971 7706 956 L 7706 956 L 7725 958 L 7717 952 L 7834 985 L 7948 1024 L 7990 1037 Q 7995 1038 8000 1038 Q 8019 1038 8028 1025 Q 8035 1016 8035 999 L 8034 970 L 8034 953 Q 8035 944 8042 938 L 8046 935 L 8025 920 L 7822 824 L 7739 799 L 7709 790 L 7709 791 L 7713 836 L 7648 834 Q 7647 834 7646 834 Q 7612 834 7608 863 L 7599 899 L 7560 904 L 7533 904 Q 7523 906 7511 915 L 7499 931 Q 7493 940 7483 944 L 7441 946 L 7400 942 L 7319 937 L 7238 942 Q 7231 942 7224 942 Q 7181 942 7163 931 L 7169 918 L 7117 915 L 7064 916 L 6955 898 Q 6907 887 6802 841 Q 6705 799 6648 789 L 6648 789 Q 6735 831 6836 943 L 6854 954 L 6838 945 L 6859 970 Q 6915 1034 6921 1116 Q 6923 1138 6916 1145 L 6886 1155 L 6836 1177 Q 6805 1193 6783 1197 L 6659 1205 L 6534 1204 L 6410 1222 L 6324 1237 L 6292 1251 L 6256 1257 Q 6232 1256 6214 1256 Q 6190 1256 6176 1258 Q 6177 1281 6117 1281 L 6040 1277 L 5716 1258 L 5512 1244 L 5374 1229 Q 5296 1211 5245 1176 L 5220 1154 Q 5195 1136 5149 1124 L 5074 1108 L 4914 1077 Q 4820 1057 4764 1016 Q 4745 1003 4713 969 L 4662 923 L 4597 869 Q 4560 840 4532 840 Q 4527 840 4523 841 L 4580 977 Q 4590 999 4583 1022 L 4574 1064 Q 4574 1076 4580 1083 L 4594 1097 L 4607 1117 L 4608 1144 Q 4606 1166 4582 1224 Q 4579 1231 4583 1232 L 4575 1244 L 4561 1251 Q 4551 1255 4547 1258 Q 4541 1264 4537 1278 L 4528 1297 Q 4522 1304 4493 1310 L 4392 1328 Q 4243 1370 4022 1370 Q 3855 1370 3781 1350 L 3728 1336 Q 3699 1328 3678 1316 L 3645 1293 Q 3629 1283 3613 1283 Q 3610 1283 3608 1283 Q 3586 1285 3542 1301 L 3475 1317 L 3351 1314 L 3230 1317 L 3191 1319 L 3151 1317 L 3024 1315 L 2898 1302 L 2822 1295 Q 2778 1292 2748 1277 Q 2685 1241 2654 1230 L 2599 1205 Q 2564 1188 2543 1184 L 2535 1173 L 2504 1142 Q 2465 1116 2404 1113 L 2297 1118 L 2302 1137 Q 2280 1156 2236 1164 L 2164 1178 L 2108 1197 L 2066 1194 L 2024 1184 L 1895 1158 L 1765 1143 L 1652 1147 L 1539 1142 Q 1509 1137 1472 1118 L 1409 1083 L 1266 1009 L 1201 975 L 1198 964 L 1156 944 L 1119 917 L 1111 906 L 1091 869 L 1077 847 L 1047 802 Q 1040 789 1036 770 L 1028 738 Q 1015 702 980 702 Q 979 702 978 702 L 908 710 L 827 717 L 748 730 Q 732 733 711 733 Q 690 733 665 731 L 581 725 L 533 724 Q 506 719 494 698 Q 486 684 488 667 Q 490 650 500 638 L 534 608 Q 551 595 554 571 L 566 543 L 566 542 Z" fill="rgb(151,140,109)" fill-opacity="1.000"></path><path d="M 3623 63 L 3690 73 Q 3691 85 3658 85 L 3616 80 Q 3615 70 3623 63 Z M 3947 69 L 3954 86 L 3917 85 Q 3888 81 3897 73 L 3947 69 Z M 2683 109 L 2703 139 Q 2704 155 2683 167 Q 2650 183 2566 183 L 2517 183 Q 2480 179 2498 162 Q 2505 156 2527 148 L 2558 136 Q 2583 122 2610 116 L 2647 114 L 2683 109 Z M 3776 105 Q 3786 105 3797 106 L 3920 123 Q 3923 123 3926 123 Q 3952 123 3998 146 L 4009 152 L 4016 162 Q 4027 189 3997 203 Q 3969 215 3922 215 L 3844 210 L 3820 207 Q 3808 203 3810 189 L 3810 189 L 3770 194 L 3730 193 L 3690 193 Q 3661 191 3653 181 Q 3645 171 3655 157 L 3674 139 Q 3710 105 3776 105 Z M 4797 209 L 4810 213 Q 4813 223 4804 226 L 4785 226 L 4734 227 Q 4693 226 4692 214 L 4733 210 L 4797 209 Z M 3079 226 Q 3085 226 3093 226 L 3110 233 Q 3112 248 3082 248 Q 3080 248 3078 248 Q 3047 248 3036 239 Q 3044 226 3079 226 Z M 1644 242 Q 1653 242 1648 251 L 1631 266 L 1597 271 Q 1593 271 1589 271 Q 1570 271 1569 263 Q 1584 252 1603 246 L 1637 243 Q 1642 242 1644 242 Z M 5620 246 L 5617 269 L 5614 292 L 5547 290 L 5490 282 Q 5450 273 5445 253 L 5509 246 Z M 4613 259 L 4670 289 Q 4668 303 4650 306 L 4621 306 L 4551 299 Q 4544 283 4573 271 L 4613 259 Z M 3843 263 L 3837 296 Q 3833 310 3811 315 L 3769 318 Q 3734 317 3731 309 L 3730 300 L 3744 294 Q 3789 276 3843 263 Z M 1733 269 L 1771 277 Q 1788 286 1769 305 Q 1750 324 1705 326 L 1635 322 L 1609 319 Q 1593 314 1594 302 Q 1595 288 1618 279 L 1653 269 Z M 3567 431 L 3573 438 L 3558 433 L 3567 431 Z M 2837 329 Q 2855 334 2866 344 Q 2880 356 2875 372 Q 2870 390 2848 396 L 2810 400 L 2708 399 L 2699 405 L 2696 416 L 2693 428 Q 2681 441 2661 442 L 2546 445 Q 2489 441 2481 426 Q 2469 401 2530 390 L 2608 378 L 2596 376 Q 2588 375 2586 370 Q 2584 364 2593 356 Q 2599 351 2606 348 Q 2631 335 2674 332 L 2744 332 L 2817 333 L 2837 329 Z M 1253 308 L 1231 309 L 1105 336 L 1107 336 L 1173 349 L 1166 379 Q 1161 392 1144 396 Q 1128 399 1109 399 Q 1087 399 1062 395 Q 1042 393 1026 382 Q 1009 363 1040 348 L 1040 348 L 801 428 L 781 436 L 783 447 Q 793 470 848 480 L 918 487 L 1093 494 L 1210 483 Q 1270 451 1253 308 Z M 6513 443 L 6630 496 Q 6631 507 6613 507 Q 6595 507 6557 496 Q 6491 477 6469 463 Q 6487 446 6513 443 Z M 6007 339 L 6223 349 Q 6305 360 6349 395 Q 6376 416 6374 429 Q 6371 452 6300 452 L 6181 455 Q 6182 459 6205 473 Q 6224 485 6216 497 Q 6196 508 6174 508 L 6076 510 L 5901 496 L 5833 487 Q 5790 480 5767 466 L 5759 461 Q 5756 459 5756 453 Q 5757 438 5847 411 Q 5889 402 5895 397 Q 5880 394 5873 384 Q 5865 373 5875 362 Q 5885 351 5918 345 L 5965 340 L 6007 339 Z M 1558 493 L 1443 498 L 1372 509 Q 1386 527 1440 527 L 1515 523 Q 1527 524 1537 524 Q 1571 524 1574 513 Q 1577 506 1571 500 L 1558 493 Z M 3867 499 L 3923 519 L 3934 533 Q 3935 543 3928 550 L 3909 553 L 3890 550 L 3835 544 L 3809 538 Q 3794 531 3797 519 Q 3803 499 3867 499 Z M 5283 516 L 5360 529 Q 5368 537 5363 553 L 5348 574 L 5303 579 L 5256 572 L 5237 569 Q 5227 565 5227 556 Q 5227 548 5233 547 L 5244 543 Q 5229 543 5230 533 Q 5231 523 5253 519 L 5283 516 Z M 5281 510 L 5224 517 Q 5207 523 5173 554 L 5155 571 Q 5144 584 5148 594 Q 5153 607 5177 612 L 5211 615 L 5335 623 L 5371 624 Q 5394 623 5403 613 Q 5412 604 5411 577 L 5408 538 L 5338 513 L 5281 510 Z M 5657 569 L 5993 583 Q 6024 598 6007 610 Q 5995 619 5963 624 L 5875 629 L 5787 626 L 5645 609 L 5617 600 Q 5597 590 5603 577 Q 5607 570 5630 569 Z M 1820 576 L 1873 619 Q 1881 649 1801 649 Q 1792 649 1781 649 Q 1690 645 1661 630 Q 1640 620 1649 605 Q 1657 593 1679 586 L 1749 576 Z M 6530 519 L 6570 583 Q 6557 650 6483 656 Q 6461 658 6441 658 Q 6364 658 6333 626 Q 6289 580 6393 547 Q 6458 526 6530 519 Z M 4847 677 L 4893 679 L 4960 686 L 4956 702 L 4898 703 L 4856 705 Q 4820 704 4817 695 Q 4812 679 4847 677 Z M 5283 673 Q 5223 673 5247 701 L 5294 707 L 5344 703 L 5368 702 Q 5383 700 5383 688 L 5283 673 Z M 7021 607 Q 7011 612 7004 619 Q 6988 635 6992 653 Q 6995 670 7014 684 Q 7079 731 7221 731 Q 7251 731 7284 729 Q 7335 729 7387 710 L 7208 662 L 7204 676 L 7174 675 L 7146 667 L 7129 661 Q 7121 655 7123 644 L 7125 638 L 7021 607 Z M 1963 543 L 1733 548 L 1565 563 Q 1379 594 1430 656 Q 1457 689 1564 717 Q 1648 741 1800 743 L 1898 744 L 1996 733 Q 2140 703 2150 656 Q 2160 608 2078 575 Q 2042 560 1963 543 Z M 4872 652 Q 4839 652 4827 654 Q 4726 664 4738 718 Q 4741 732 4767 743 L 4803 755 Q 4877 780 4946 783 Q 4985 785 5027 785 Q 5059 785 5093 784 L 5148 781 Q 5183 777 5200 764 L 5200 713 Q 5195 686 5159 675 L 5099 659 L 4959 654 Q 4906 653 4873 653 Z M 6110 772 Q 6067 772 6048 787 Q 6035 797 6035 807 Q 6035 818 6048 826 Q 6069 839 6107 839 Q 6123 839 6142 837 Q 6210 829 6185 785 L 6175 775 L 6110 772 Z M 5320 825 L 5282 829 Q 5289 844 5318 847 Q 5324 848 5328 848 Q 5347 848 5350 835 L 5320 825 Z M 3605 4 L 3223 39 L 3179 44 L 2883 70 L 2872 71 L 2460 107 L 2428 110 L 2372 173 L 2366 180 L 2358 189 L 2357 182 L 2335 180 L 2319 178 Q 2314 157 2350 155 L 2339 136 L 2319 118 L 2314 119 L 2153 127 L 2149 127 Q 2063 129 1813 182 L 1683 209 L 1464 258 L 1463 259 L 1460 260 L 1441 267 Q 1432 272 1428 280 Q 1444 289 1473 289 Q 1484 289 1498 288 L 1571 286 L 1547 295 Q 1479 310 1454 319 Q 1408 336 1372 371 L 1343 399 Q 1314 428 1319 435 Q 1324 442 1341 442 Q 1366 442 1417 427 L 1617 405 L 1755 395 L 1892 389 L 1935 390 L 1954 389 L 1966 381 L 1980 354 L 1990 325 Q 1997 313 2036 291 Q 2065 274 2113 271 L 2214 266 L 2320 254 L 2364 255 L 2456 267 L 2488 269 Q 2515 272 2521 278 L 2526 302 L 2530 329 L 2486 341 L 2457 357 L 2435 366 Q 2419 372 2415 377 Q 2401 396 2425 407 L 2465 424 L 2434 425 L 2403 425 L 2292 443 Q 2272 448 2261 460 Q 2247 475 2265 486 Q 2276 494 2302 497 L 2342 501 L 2470 505 L 2504 503 L 2535 508 Q 2528 515 2517 517 L 2497 520 Q 2468 527 2437 549 Q 2411 569 2416 586 Q 2421 602 2452 610 L 2589 620 L 2644 623 Q 2648 623 2652 623 Q 2685 623 2696 615 Q 2708 605 2706 585 Q 2704 567 2693 555 L 2742 548 L 2793 550 L 2884 549 Q 2939 547 2972 535 Q 2990 528 2991 518 L 2990 490 Q 2993 462 3044 456 Q 3063 455 3090 455 Q 3104 455 3119 455 L 3296 456 L 3474 451 Q 3474 466 3481 477 L 3495 492 L 3509 505 Q 3516 523 3486 528 L 3443 533 Q 3413 540 3397 560 Q 3384 576 3375 610 L 3371 646 Q 3369 662 3352 671 L 3283 705 Q 3239 729 3240 759 Q 3242 802 3326 811 L 3443 824 Q 3440 834 3430 834 Q 3428 834 3426 834 Q 3360 867 3357 869 L 3279 924 L 3261 938 Q 3252 946 3251 958 Q 3250 969 3252 972 L 3264 979 Q 3272 983 3290 983 Q 3306 983 3330 980 L 3421 979 Q 3501 968 3530 914 Q 3551 879 3621 860 L 3735 857 L 3847 883 L 4000 924 L 4157 931 Q 4265 913 4303 872 Q 4314 859 4314 828 L 4309 779 L 4306 732 Q 4309 709 4331 693 L 4362 682 L 4512 640 L 4920 530 Q 5048 494 5148 456 L 5301 463 L 5454 467 L 5681 484 L 5714 487 Q 5730 490 5739 501 L 5748 519 L 5764 535 Q 5783 546 5821 548 L 5879 556 L 5852 569 L 5810 570 L 5615 564 L 5555 565 Q 5507 570 5511 595 Q 5513 606 5545 619 L 5583 632 Q 5678 670 5798 682 L 6019 690 L 6096 689 L 6170 676 L 6192 668 L 6211 654 L 6225 632 Q 6233 619 6247 618 Q 6269 629 6283 647 Q 6318 678 6343 692 Q 6374 710 6414 714 Q 6457 720 6498 720 Q 6626 720 6725 662 L 6884 565 L 6861 557 L 6781 528 L 6686 490 Q 6639 470 6555 422 Q 6473 374 6407 347 Q 6181 254 5685 187 L 5257 134 L 5164 123 L 5132 120 L 5114 118 L 4554 62 L 4414 50 L 4394 49 L 4280 39 L 4266 38 L 4171 31 L 4165 30 L 3605 4 Z" fill="rgb(167,157,120)" fill-opacity="1.000"></path><path d="M 3623 63 Q 3615 70 3616 80 L 3658 85 Q 3691 85 3690 73 L 3623 63 Z M 3947 69 L 3897 73 Q 3888 81 3917 85 L 3954 86 L 3947 69 Z M 2348 153 Q 2312 155 2317 176 L 2333 178 L 2355 180 L 2364 178 L 2370 171 L 2370 166 L 2380 153 Z M 2683 109 L 2647 114 L 2610 116 Q 2583 122 2558 136 L 2527 148 Q 2505 156 2498 162 Q 2480 179 2517 183 L 2566 183 Q 2650 183 2683 167 Q 2704 155 2703 139 L 2683 109 Z M 3776 105 Q 3710 105 3674 139 L 3655 157 Q 3645 171 3653 181 Q 3661 191 3690 193 L 3730 193 L 3770 194 L 3810 189 L 3810 189 Q 3808 203 3820 207 L 3844 210 L 3922 215 Q 3969 215 3997 203 Q 4027 189 4016 162 L 4009 152 L 3998 146 Q 3951 123 3926 123 Q 3923 123 3920 123 L 3797 106 Q 3786 105 3776 105 Z M 4797 209 L 4733 210 L 4692 214 Q 4693 226 4734 227 L 4785 226 L 4804 226 Q 4813 223 4810 213 L 4797 209 Z M 3079 226 Q 3044 226 3036 239 Q 3047 248 3078 248 Q 3080 248 3082 248 Q 3112 248 3110 233 L 3093 226 Q 3086 226 3079 226 Z M 1644 242 Q 1641 242 1637 243 L 1603 246 Q 1584 252 1569 263 Q 1570 271 1589 271 Q 1593 271 1597 271 L 1631 266 L 1648 251 Q 1653 242 1644 242 Z M 5509 246 L 5445 253 Q 5450 273 5490 282 L 5547 290 L 5614 292 L 5617 269 L 5620 246 Z M 4613 259 L 4573 271 Q 4544 283 4551 299 L 4621 306 L 4650 306 Q 4668 303 4670 289 L 4613 259 Z M 3843 263 Q 3789 276 3744 294 L 3730 300 L 3731 309 Q 3734 317 3769 318 L 3811 315 Q 3833 310 3837 296 L 3843 263 Z M 1653 269 L 1618 279 Q 1595 288 1594 302 Q 1593 314 1609 319 L 1635 322 L 1705 326 Q 1750 324 1769 305 Q 1788 286 1771 277 L 1733 269 Z M 1105 336 L 1040 348 Q 1009 363 1026 382 Q 1042 393 1062 395 Q 1088 399 1109 399 Q 1128 399 1144 396 Q 1161 392 1166 379 L 1173 349 L 1107 336 Z M 2837 329 L 2817 333 L 2744 332 L 2674 332 Q 2631 335 2606 348 Q 2599 351 2593 356 Q 2584 364 2586 370 Q 2588 375 2596 376 L 2608 378 L 2530 390 Q 2469 401 2481 426 Q 2489 441 2546 445 L 2661 442 Q 2681 441 2693 428 L 2696 416 L 2699 405 L 2708 399 L 2810 400 L 2848 396 Q 2870 390 2875 372 Q 2880 356 2866 344 Q 2855 334 2837 329 Z M 6513 443 Q 6487 446 6469 463 Q 6491 477 6557 496 Q 6595 507 6613 507 Q 6631 507 6630 496 L 6513 443 Z M 6007 339 L 5965 340 L 5918 345 Q 5885 351 5875 362 Q 5865 373 5873 384 Q 5880 394 5895 397 Q 5889 402 5847 411 Q 5757 438 5756 453 Q 5756 459 5759 461 L 5767 466 Q 5790 480 5833 487 L 5901 496 L 6076 510 L 6174 508 Q 6196 508 6216 497 Q 6224 485 6205 473 Q 6182 459 6181 455 L 6300 452 Q 6371 452 6374 429 Q 6376 416 6349 395 Q 6305 360 6223 349 L 6007 339 Z M 3867 499 Q 3803 499 3797 519 Q 3794 531 3809 538 L 3835 544 L 3890 550 L 3909 553 L 3928 550 Q 3935 543 3934 533 L 3923 519 L 3867 499 Z M 5283 516 L 5253 519 Q 5231 523 5230 533 Q 5229 543 5244 543 L 5233 547 Q 5227 548 5227 556 Q 5227 565 5237 569 L 5256 572 L 5303 579 L 5348 574 L 5363 553 Q 5368 537 5360 529 L 5283 516 Z M 5630 569 Q 5607 570 5603 577 Q 5597 590 5617 600 L 5645 609 L 5787 626 L 5875 629 L 5963 624 Q 5995 619 6007 610 Q 6024 598 5993 583 L 5657 569 Z M 1749 576 L 1679 586 Q 1657 593 1649 605 Q 1640 620 1661 630 Q 1690 645 1781 649 Q 1792 649 1801 649 Q 1881 649 1873 619 L 1820 576 Z M 6530 519 Q 6458 526 6393 547 Q 6289 580 6333 626 Q 6364 658 6441 658 Q 6460 658 6483 656 Q 6557 650 6570 583 L 6530 519 Z M 7125 638 L 7123 644 Q 7121 655 7129 661 L 7146 667 L 7174 675 L 7204 676 L 7208 662 L 7125 638 Z M 4847 677 Q 4812 679 4817 695 Q 4820 704 4856 705 L 4898 703 L 4956 702 L 4960 686 L 4893 679 L 4847 677 Z" fill="rgb(174,164,125)" fill-opacity="1.000"></path><path d="M 1186 810 Q 1167 810 1141 819 Q 1135 821 1076 846 L 1090 868 L 1110 905 L 1131 875 L 1168 843 L 1206 813 Q 1197 810 1186 810 Z" fill="rgb(159,148,114)" fill-opacity="1.000"></path><path d="M 1449 1382 L 1433 1383 L 1464 1390 L 1463 1386 L 1449 1382 Z" fill="rgb(199,217,225)" fill-opacity="0.400"></path><path d="M 258 837 Q 240 842 215 858 Q 191 873 178 887 L 161 912 Q 155 919 150 919 Q 144 919 141 909 Q 135 910 120 923 L 118 936 Q 113 1009 235 1054 L 482 1094 L 536 1099 L 713 1113 L 798 1120 L 872 1127 L 869 1071 L 854 1016 L 835 963 L 829 928 L 804 952 L 782 978 L 755 1017 L 717 1062 Q 695 1082 664 1083 L 635 1084 L 607 1078 L 596 1067 L 587 1053 Q 578 1042 560 1035 L 530 1023 L 514 1009 Q 511 1002 517 988 Q 522 976 532 970 L 491 970 L 452 968 L 409 968 L 432 972 Q 455 978 458 987 L 450 1005 L 437 1021 Q 424 1040 408 1043 L 364 1043 L 289 1037 Q 261 1032 248 1024 L 239 1015 L 229 1007 L 204 1005 Q 195 1005 188 988 Q 174 951 206 909 L 258 837 Z M 7705 955 Q 7712 970 7730 982 L 7761 1003 L 7818 1048 Q 7843 1067 7879 1086 L 7894 1094 Q 7944 1120 7963 1142 L 8006 1189 L 8045 1168 L 8050 1166 L 8075 1151 Q 8117 1120 8125 1080 Q 8133 1043 8111 1005 L 8097 985 L 8096 983 L 8085 970 Q 8068 1012 8035 1042 L 8067 1038 L 8098 1033 L 8098 1033 Q 8101 1044 8094 1061 L 8083 1088 L 8084 1102 L 8079 1113 L 8048 1112 Q 8031 1107 8006 1091 L 7966 1066 L 7793 989 Q 7747 964 7724 957 L 7705 955 Z M 973 1153 L 975 1156 L 1045 1203 L 1125 1254 L 1136 1260 L 1105 1227 Q 1073 1188 1028 1162 L 1002 1153 Z M 7779 1132 Q 7768 1132 7763 1152 L 7757 1185 Q 7752 1210 7731 1229 Q 7710 1247 7684 1249 Q 7694 1259 7719 1259 L 7758 1258 L 7758 1258 Q 7762 1278 7749 1313 L 7782 1303 L 7805 1295 L 7841 1278 L 7937 1227 L 7878 1223 L 7828 1217 Q 7804 1210 7793 1187 L 7785 1161 L 7783 1133 Q 7781 1132 7779 1132 Z M 7141 1112 L 7165 1144 L 7185 1175 L 7203 1208 Q 7233 1280 7228 1354 L 7317 1347 L 7337 1346 L 7468 1336 L 7555 1331 L 7610 1329 L 7628 1328 Q 7641 1323 7642 1313 L 7546 1309 L 7449 1313 L 7395 1312 Q 7355 1313 7336 1323 L 7317 1290 L 7272 1232 Q 7257 1208 7237 1193 Q 7183 1140 7153 1119 L 7141 1112 Z M 1373 1222 L 1345 1223 L 1341 1225 Q 1348 1233 1361 1239 L 1383 1249 Q 1386 1280 1379 1287 L 1347 1290 L 1313 1287 L 1298 1298 L 1283 1308 L 1254 1305 L 1251 1304 L 1240 1302 L 1224 1298 L 1249 1306 L 1309 1322 L 1521 1350 L 1656 1385 L 1624 1367 L 1543 1327 L 1520 1318 L 1498 1306 L 1455 1277 L 1428 1262 Q 1416 1251 1418 1233 L 1373 1222 Z M 2311 1386 L 2279 1387 Q 2272 1389 2263 1394 L 2247 1402 L 2220 1405 L 2191 1406 L 2119 1414 L 2091 1421 L 2269 1417 L 2314 1418 L 2425 1427 L 2576 1459 L 2696 1480 L 2820 1477 L 2847 1476 L 2941 1472 L 3045 1468 L 2798 1443 L 2783 1429 L 2783 1408 L 2743 1407 L 2702 1408 L 2672 1406 Q 2669 1406 2666 1406 Q 2649 1406 2643 1411 Q 2638 1415 2639 1424 L 2638 1438 Q 2634 1443 2623 1443 Q 2612 1443 2593 1438 L 2545 1422 L 2499 1407 L 2461 1406 L 2422 1407 L 2383 1396 L 2344 1388 L 2311 1386 Z M 6226 1288 Q 6225 1288 6223 1288 L 6223 1289 L 6223 1298 Q 6226 1313 6247 1334 L 6277 1366 L 6279 1368 L 6303 1401 L 6299 1399 L 6299 1399 Q 6301 1430 6247 1430 Q 6244 1430 6240 1430 L 6153 1423 L 6094 1414 L 6093 1414 L 6088 1413 L 6060 1414 L 5996 1414 L 5903 1412 L 6100 1430 L 6183 1438 Q 6221 1438 6248 1448 L 6249 1478 L 6237 1495 L 6260 1496 L 6319 1496 L 6349 1494 Q 6404 1490 6429 1478 Q 6470 1458 6525 1443 L 6596 1426 L 6782 1405 L 7026 1378 L 7196 1358 L 7183 1353 L 7164 1337 L 7120 1335 L 7077 1339 L 6967 1343 L 6978 1353 Q 6981 1364 6967 1367 L 6944 1368 Q 6787 1371 6658 1402 L 6560 1423 L 6459 1433 Q 6427 1432 6394 1405 L 6338 1354 L 6272 1303 Q 6248 1288 6226 1288 Z M 4788 1131 L 4794 1159 L 4803 1187 L 4825 1231 L 4828 1238 L 4848 1288 L 4867 1338 L 4870 1344 L 4886 1371 L 4911 1393 Q 4929 1410 4925 1433 L 4911 1475 Q 4979 1472 5031 1472 Q 5073 1472 5104 1474 L 5325 1493 L 5496 1509 L 5607 1509 L 5663 1508 L 5731 1505 L 5728 1504 L 5615 1474 Q 5475 1442 5408 1417 Q 5363 1401 5350 1377 L 5342 1356 Q 5338 1347 5329 1347 Q 5327 1347 5324 1348 Q 5321 1359 5328 1378 L 5338 1408 L 5338 1443 Q 5334 1457 5319 1458 L 5288 1457 L 5260 1465 L 5231 1473 Q 5204 1476 5180 1476 Q 5112 1476 5079 1452 L 5002 1391 Q 4982 1375 4968 1338 L 4944 1276 L 4943 1274 Q 4929 1249 4901 1227 L 4849 1189 L 4840 1182 L 4809 1159 Q 4793 1145 4788 1131 Z M 3669 1401 L 3670 1423 L 3665 1443 L 3624 1452 L 3629 1454 Q 3641 1458 3659 1471 L 3686 1492 L 3688 1494 L 3700 1507 L 3707 1521 L 3787 1531 Q 3836 1539 3926 1539 Q 4051 1539 4256 1524 L 4257 1524 L 4306 1520 L 4357 1516 L 4420 1511 L 4483 1505 Q 4468 1488 4414 1480 L 4344 1471 Q 4344 1459 4372 1447 Q 4387 1440 4411 1432 L 4411 1432 L 4225 1452 L 4135 1452 L 4187 1461 Q 4222 1467 4234 1477 Q 4223 1497 4173 1500 L 4104 1498 L 4019 1489 L 3986 1488 L 3953 1487 L 3846 1469 L 3771 1462 Q 3728 1455 3704 1434 L 3680 1408 L 3669 1401 Z" fill="rgb(121,112,86)" fill-opacity="1.000"></path><path d="M 8045 934 L 8041 937 Q 8034 943 8033 952 L 8033 969 L 8034 998 Q 8034 1015 8027 1024 Q 8017 1037 7999 1037 Q 7994 1037 7989 1036 L 7947 1023 L 7833 984 L 7716 951 L 7724 957 Q 7747 964 7793 989 L 7966 1066 L 8006 1091 Q 8031 1107 8048 1112 L 8079 1113 L 8084 1102 L 8083 1088 L 8094 1061 Q 8101 1044 8098 1033 L 8098 1033 L 8067 1038 L 8035 1042 Q 8068 1012 8085 970 L 8045 934 Z M 4716 1044 Q 4732 1063 4760 1122 L 4813 1214 L 4825 1231 L 4803 1187 L 4794 1159 L 4788 1131 L 4788 1131 Q 4793 1145 4809 1159 L 4840 1182 L 4849 1189 L 4841 1177 L 4837 1163 L 4834 1149 Q 4821 1124 4780 1094 L 4716 1044 Z M 6208 1289 L 6223 1298 L 6223 1289 Z M 307 762 L 266 763 L 252 763 L 219 791 L 191 817 L 189 819 L 172 837 Q 128 885 120 923 Q 135 910 141 909 Q 144 919 150 919 Q 155 919 161 912 L 178 887 Q 191 873 215 858 Q 240 842 258 837 L 258 837 L 206 909 Q 174 951 188 988 Q 195 1005 204 1005 L 229 1007 L 239 1015 L 248 1024 Q 261 1032 289 1037 L 364 1043 L 408 1043 Q 424 1040 437 1021 L 450 1005 L 458 987 Q 455 978 432 972 L 409 968 L 452 968 L 491 970 L 532 970 Q 522 976 517 988 Q 511 1002 514 1009 L 530 1023 L 560 1035 Q 578 1042 587 1053 L 596 1067 L 607 1078 L 635 1084 L 664 1083 Q 695 1082 717 1062 L 755 1017 L 782 978 L 804 952 L 829 928 L 835 963 L 854 1016 L 869 1071 L 872 1127 L 935 1139 L 949 1144 L 953 1145 L 975 1156 L 973 1153 L 1002 1153 L 1028 1162 Q 1073 1188 1105 1227 L 1136 1260 L 1152 1268 L 1195 1287 L 1224 1298 L 1240 1302 L 1251 1304 L 1254 1305 L 1283 1308 L 1298 1298 L 1313 1287 L 1347 1290 L 1379 1287 Q 1386 1280 1383 1249 L 1361 1239 Q 1348 1233 1341 1225 L 1345 1223 L 1345 1223 Q 1339 1223 1333 1223 Q 1261 1223 1226 1201 L 1192 1169 L 1160 1134 Q 1127 1102 1069 1075 L 967 1035 Q 943 1026 929 1012 L 905 976 L 880 940 L 856 904 L 846 874 Q 841 868 827 868 Q 821 868 813 869 Q 801 871 788 878 L 766 891 Q 731 910 675 919 L 583 937 L 541 958 Q 520 969 499 969 Q 497 969 495 969 L 427 963 L 374 959 L 328 948 Q 313 888 320 843 L 330 813 Q 337 794 334 782 Q 328 765 307 762 Z M 6277 1366 L 6278 1395 Q 6280 1411 6288 1416 L 6116 1414 L 6094 1414 L 6153 1423 L 6240 1430 Q 6243 1430 6247 1430 Q 6301 1430 6299 1399 L 6299 1399 L 6303 1401 L 6279 1368 L 6277 1366 Z M 6853 953 Q 6910 986 6940 997 L 6994 1008 Q 7024 1013 7041 1029 Q 7087 1071 7133 1142 Q 7162 1185 7173 1215 Q 7189 1255 7186 1295 L 7000 1323 L 6850 1335 L 6699 1344 L 6625 1354 L 6552 1357 L 6482 1355 L 6412 1356 Q 6382 1355 6341 1336 L 6272 1303 L 6338 1354 L 6394 1405 Q 6427 1432 6459 1433 L 6560 1423 L 6658 1402 Q 6787 1371 6944 1368 L 6967 1367 Q 6981 1364 6978 1353 L 6967 1343 L 7077 1339 L 7120 1335 L 7164 1337 L 7183 1353 L 7196 1358 L 7228 1354 Q 7233 1280 7203 1208 L 7185 1175 L 7165 1144 L 7141 1112 L 7153 1119 Q 7183 1140 7237 1193 Q 7257 1208 7272 1232 L 7317 1290 L 7336 1323 Q 7355 1313 7395 1312 L 7449 1313 L 7546 1309 L 7642 1313 Q 7641 1323 7628 1328 L 7642 1328 L 7696 1324 L 7749 1313 Q 7762 1278 7758 1258 L 7758 1258 L 7719 1259 Q 7694 1259 7684 1249 Q 7710 1247 7731 1229 Q 7752 1210 7757 1185 L 7763 1152 Q 7768 1132 7779 1132 Q 7781 1132 7783 1133 L 7785 1161 L 7793 1187 Q 7804 1210 7828 1217 L 7878 1223 L 7937 1227 L 8006 1189 L 7963 1142 Q 7944 1120 7894 1094 L 7879 1086 L 7879 1086 Q 7880 1102 7850 1110 L 7799 1121 Q 7778 1128 7748 1149 L 7697 1182 Q 7667 1197 7626 1198 L 7548 1196 L 7454 1199 L 7359 1196 L 7327 1188 L 7286 1164 L 7244 1141 Q 7215 1129 7189 1107 L 7143 1063 Q 7083 1008 7026 989 L 6941 974 L 6853 953 Z M 3647 1329 Q 3648 1342 3661 1363 L 3679 1396 L 3680 1408 L 3704 1434 Q 3728 1455 3771 1462 L 3846 1469 L 3953 1487 L 3986 1488 L 4019 1489 L 4104 1498 L 4173 1500 Q 4223 1497 4234 1477 Q 4222 1467 4187 1461 L 4160 1469 Q 4132 1472 4089 1472 Q 4054 1472 4010 1470 L 3859 1449 L 3812 1442 L 3767 1428 Q 3751 1420 3709 1372 Q 3672 1331 3647 1329 Z M 4867 1338 Q 4864 1364 4834 1374 Q 4780 1393 4686 1398 L 4534 1408 L 4236 1450 L 4225 1452 L 4411 1432 L 4411 1432 Q 4387 1440 4372 1447 Q 4344 1459 4344 1471 L 4414 1480 Q 4468 1488 4483 1505 L 4584 1497 L 4690 1488 L 4721 1486 L 4911 1475 L 4925 1433 Q 4929 1410 4911 1393 L 4886 1371 L 4870 1344 L 4867 1338 Z M 4944 1276 L 4968 1338 Q 4982 1375 5002 1391 L 5079 1452 Q 5112 1476 5180 1476 Q 5203 1476 5231 1473 L 5260 1465 L 5288 1457 L 5319 1458 Q 5334 1457 5338 1443 L 5338 1408 L 5328 1378 Q 5321 1359 5324 1348 Q 5327 1347 5329 1347 Q 5338 1347 5342 1356 L 5350 1377 Q 5363 1401 5408 1417 Q 5475 1442 5615 1474 L 5728 1504 L 5731 1505 L 5799 1501 L 5922 1495 L 6034 1491 L 6063 1491 L 6183 1493 L 6236 1495 L 6237 1495 L 6249 1478 L 6248 1448 Q 6221 1438 6183 1438 L 6100 1430 L 5903 1412 L 5996 1414 L 6047 1414 L 6033 1413 L 5863 1410 Q 5611 1406 5441 1364 L 5353 1343 L 5339 1335 L 5324 1329 L 5257 1327 L 5189 1330 L 5118 1322 Q 5017 1318 4944 1276 Z M 1373 1222 L 1418 1233 Q 1416 1251 1428 1262 L 1455 1277 L 1498 1306 L 1520 1318 L 1543 1327 L 1624 1367 L 1656 1385 L 1709 1397 L 1951 1424 L 1978 1424 L 2057 1423 L 2091 1421 L 2119 1414 L 2191 1406 L 2220 1405 L 2247 1402 L 2263 1394 Q 2272 1389 2279 1387 L 2311 1386 L 2344 1388 L 2383 1396 L 2422 1407 L 2461 1406 L 2499 1407 L 2545 1422 L 2593 1438 Q 2612 1443 2623 1443 Q 2634 1443 2638 1438 L 2639 1424 Q 2638 1415 2643 1411 Q 2649 1406 2666 1406 Q 2669 1406 2672 1406 L 2702 1408 L 2743 1407 L 2783 1408 L 2783 1429 L 2798 1443 L 3045 1468 Q 3065 1468 3083 1468 Q 3119 1468 3145 1469 L 3388 1489 L 3409 1490 L 3425 1492 L 3656 1515 L 3707 1521 L 3700 1507 L 3688 1494 L 3686 1492 L 3659 1471 Q 3641 1458 3629 1454 L 3624 1452 L 3665 1443 L 3665 1443 Q 3646 1445 3623 1445 Q 3588 1445 3545 1441 L 3412 1435 L 3279 1423 L 3147 1418 L 3014 1423 L 2860 1411 L 2765 1402 L 2668 1403 L 2542 1391 L 2454 1337 Q 2430 1321 2384 1314 L 2247 1323 L 2161 1329 L 2112 1336 L 2063 1343 L 1911 1335 L 1760 1329 L 1687 1333 Q 1651 1330 1617 1310 L 1566 1279 Q 1541 1266 1508 1258 L 1457 1249 Q 1423 1241 1415 1224 L 1373 1222 Z" fill="rgb(141,131,102)" fill-opacity="1.000"></path><path d="M 8120 1104 L 8090 1139 Q 8120 1139 8126 1127 L 8126 1115 L 8121 1106 L 8120 1104 Z" fill="rgb(255,255,255)" fill-opacity="0.400"></path><path d="M 8175 1010 Q 8181 1016 8191 1016 Q 8194 1016 8197 1016 L 8257 1019 L 8219 1013 L 8175 1010 Z M 1 987 Q -2 1000 4 1011 Q 9 1021 20 1023 L 13 1016 L 1 987 Z M 8298 1042 Q 8300 1049 8321 1052 L 8350 1056 L 8359 1061 L 8364 1069 L 8368 1078 L 8377 1079 L 8403 1079 Q 8392 1078 8384 1068 L 8367 1052 L 8298 1042 Z M 93 1046 L 73 1049 Q 70 1060 89 1074 Q 104 1085 117 1089 L 146 1093 L 175 1093 L 254 1106 L 334 1116 L 283 1109 L 234 1096 L 174 1083 L 146 1080 L 119 1072 L 93 1046 Z M 8478 1090 L 8490 1096 Q 8496 1101 8493 1108 Q 8489 1117 8482 1117 Q 8480 1117 8477 1116 L 8467 1123 L 8492 1122 Q 8508 1119 8507 1106 L 8496 1093 L 8478 1090 Z M 397 1126 L 442 1132 L 600 1146 L 397 1126 Z M 640 1143 L 624 1146 Q 622 1155 636 1157 L 657 1156 L 640 1143 Z M 708 1152 L 690 1153 Q 684 1159 692 1163 L 707 1167 L 738 1174 Q 755 1174 753 1156 L 727 1153 L 708 1152 Z M 8450 1123 L 8377 1126 Q 8365 1137 8337 1142 L 8292 1148 L 8230 1160 Q 8197 1164 8177 1190 Q 8170 1199 8152 1201 L 8123 1203 Q 8133 1210 8145 1210 Q 8167 1210 8197 1187 Q 8220 1170 8240 1169 L 8293 1165 L 8337 1150 L 8384 1136 L 8417 1129 L 8435 1126 L 8450 1123 Z M 952 1206 Q 944 1206 940 1211 Q 935 1218 937 1229 L 969 1233 Q 987 1229 983 1210 L 967 1210 L 966 1219 L 947 1219 L 947 1209 L 957 1206 Q 955 1206 952 1206 Z M 983 1239 L 959 1244 L 937 1248 L 997 1243 L 983 1239 Z M 8030 1227 L 8033 1237 L 8040 1250 Q 8041 1266 8016 1271 L 7981 1272 Q 7971 1255 7981 1244 L 7996 1235 L 8018 1232 L 8021 1232 L 8026 1230 L 8026 1229 L 8030 1227 Z M 1224 1349 Q 1248 1362 1292 1362 L 1363 1359 L 1313 1353 L 1224 1349 Z M 7763 1353 L 7697 1363 L 7844 1363 L 7867 1364 L 7890 1359 L 7763 1353 Z M 7219 1389 L 7175 1395 L 7142 1399 L 7335 1403 L 7385 1403 L 7450 1402 L 7499 1396 L 7536 1393 L 7219 1389 Z M 1464 1390 L 1464 1393 L 1479 1399 L 1560 1413 L 1571 1415 L 1464 1390 Z M 6943 1439 L 6937 1452 L 6950 1453 L 6943 1439 Z M 6737 1439 L 6735 1451 L 6734 1462 Q 6742 1463 6748 1463 Q 6773 1463 6770 1443 L 6737 1439 Z M 2217 1483 L 2196 1486 L 2174 1485 Q 2172 1485 2169 1485 Q 2158 1485 2154 1489 L 2172 1494 L 2193 1493 L 2257 1489 L 2217 1483 Z M 2357 1482 L 2353 1485 Q 2348 1491 2351 1499 L 2386 1504 Q 2406 1502 2403 1483 L 2381 1483 L 2383 1492 L 2357 1492 L 2357 1482 Z M 1688 1440 L 1713 1446 L 1738 1450 Q 1754 1453 1777 1463 L 1813 1482 L 1853 1486 L 1897 1488 L 1938 1498 L 1974 1508 L 2012 1509 Q 2006 1503 1978 1501 Q 1953 1499 1950 1489 L 1920 1483 Q 1916 1474 1893 1472 L 1862 1473 L 1805 1463 L 1748 1444 L 1688 1440 Z M 6547 1503 L 6547 1512 L 6560 1512 L 6560 1503 Z M 6607 1483 Q 6605 1483 6603 1483 L 6593 1489 Q 6585 1493 6587 1511 L 6607 1514 L 6625 1507 Q 6633 1495 6624 1488 Q 6617 1483 6607 1483 Z M 2420 1496 L 2420 1505 L 2374 1509 L 2404 1514 Q 2411 1515 2416 1515 Q 2430 1515 2433 1509 L 2420 1496 Z M 2453 1509 L 2449 1516 L 2477 1519 L 2473 1509 Z M 2490 1509 L 2490 1519 L 2504 1516 L 2500 1513 L 2490 1509 Z M 3028 1528 L 3001 1532 L 3057 1533 L 3057 1529 L 3028 1528 Z M 4306 1520 L 4257 1524 L 4257 1527 Q 4261 1537 4274 1539 L 4297 1534 L 4306 1520 Z M 4723 1515 Q 4741 1515 4763 1516 Q 4769 1534 4742 1539 L 4703 1539 L 4669 1526 L 4647 1518 L 4680 1517 Q 4697 1515 4723 1515 Z M 5213 1516 L 5204 1530 Q 5203 1536 5214 1539 Q 5218 1540 5222 1540 Q 5236 1540 5237 1519 L 5213 1516 Z M 5936 1531 Q 5914 1531 5912 1536 L 5944 1544 L 5979 1545 L 6044 1546 L 6170 1546 L 6060 1536 L 6021 1535 L 5981 1533 L 5944 1531 Q 5940 1531 5936 1531 Z M 6379 1528 Q 6349 1530 6358 1546 Q 6363 1555 6384 1555 Q 6386 1555 6389 1555 Q 6415 1555 6420 1546 L 6420 1529 L 6379 1528 Z M 3670 1565 L 3657 1568 L 3700 1573 L 3683 1566 L 3670 1565 Z M 3123 1526 L 3256 1537 L 3349 1550 L 3385 1562 L 3422 1569 L 3458 1572 L 3560 1576 L 3637 1569 L 3257 1526 Z M 145 870 L 133 875 L 108 894 L 93 910 L 66 925 Q 30 949 37 973 Q 43 989 60 999 Q 75 1008 92 1009 L 65 997 Q 55 990 53 973 Q 52 956 57 947 Q 62 939 77 933 L 84 942 L 93 936 L 113 913 L 114 912 L 110 923 Q 105 943 108 954 L 114 965 L 114 975 L 105 982 L 97 995 Q 95 1001 101 1009 Q 115 1032 183 1059 Q 219 1075 280 1082 L 333 1093 L 358 1094 L 383 1097 L 469 1111 L 555 1123 L 637 1129 L 684 1133 L 825 1147 L 808 1154 Q 802 1157 804 1172 L 828 1178 L 870 1183 L 903 1186 L 953 1189 L 976 1197 L 999 1199 L 1008 1208 Q 1013 1218 1007 1235 Q 1008 1249 1020 1258 L 1044 1269 L 1043 1267 L 1044 1268 L 1037 1258 Q 1032 1250 1036 1246 Q 1039 1244 1050 1244 Q 1061 1244 1080 1247 Q 1120 1251 1116 1283 Q 1109 1284 1102 1284 Q 1074 1284 1044 1269 L 1044 1269 L 1045 1270 L 1044 1270 Q 1052 1281 1075 1288 L 1114 1294 Q 1116 1294 1117 1294 Q 1128 1294 1137 1300 L 1146 1309 L 1160 1313 L 1161 1294 Q 1164 1294 1167 1294 Q 1198 1294 1193 1323 L 1150 1321 L 1150 1321 Q 1151 1329 1165 1331 L 1186 1331 L 1271 1335 Q 1281 1345 1311 1346 L 1358 1350 L 1367 1355 L 1378 1357 L 1399 1357 L 1452 1354 Q 1486 1354 1501 1363 L 1510 1372 L 1522 1381 L 1560 1388 L 1635 1406 L 1710 1420 L 1767 1429 Q 1793 1433 1814 1443 L 1844 1450 L 1874 1451 L 1917 1454 L 1956 1464 L 1966 1473 L 1978 1480 L 2004 1485 L 2029 1487 L 2111 1490 L 2159 1485 Q 2202 1467 2264 1464 Q 2301 1462 2330 1462 Q 2375 1462 2397 1467 L 2409 1468 L 2420 1471 L 2431 1481 L 2442 1490 L 2473 1496 L 2504 1498 L 2530 1504 Q 2528 1520 2551 1527 L 2586 1533 L 2732 1551 L 2772 1544 L 2810 1533 L 2895 1524 L 2950 1520 L 2965 1516 L 2974 1509 L 3014 1502 L 3055 1504 L 3154 1506 L 3188 1505 L 3187 1507 L 3192 1505 L 3222 1503 L 3234 1503 L 3327 1507 L 3403 1524 L 3460 1533 L 3570 1540 L 3640 1540 L 3715 1550 L 3749 1559 L 3782 1567 L 3820 1568 L 3920 1578 L 3950 1581 L 3954 1586 Q 3967 1589 3984 1589 Q 4001 1589 4021 1587 L 4087 1577 L 4178 1565 L 4218 1565 L 4229 1562 L 4318 1555 L 4419 1542 L 4487 1538 L 4507 1533 Q 4507 1529 4512 1528 L 4596 1520 L 4642 1520 L 4641 1521 Q 4671 1545 4724 1545 L 4758 1545 L 4793 1531 L 4792 1527 Q 4791 1520 4797 1520 Q 4800 1520 4804 1522 L 4807 1525 L 4824 1520 L 4854 1522 Q 4861 1527 4857 1533 L 4845 1541 L 4830 1542 L 4815 1537 L 4809 1529 L 4807 1525 L 4795 1529 L 4793 1531 L 4802 1542 L 4852 1555 L 4876 1550 L 4896 1539 L 4936 1530 L 4975 1524 L 5025 1505 L 5077 1495 L 5127 1498 L 5177 1505 L 5204 1512 L 5261 1518 Q 5261 1549 5271 1552 Q 5269 1567 5248 1567 Q 5242 1567 5235 1566 Q 5200 1561 5204 1539 L 5204 1539 Q 5197 1541 5194 1551 Q 5191 1562 5195 1567 Q 5199 1572 5210 1574 L 5227 1575 L 5279 1570 L 5308 1557 Q 5325 1547 5367 1547 L 5428 1535 L 5454 1535 L 5470 1533 L 5484 1536 L 5506 1535 L 5661 1540 L 5729 1542 L 5797 1534 L 5798 1529 L 5837 1525 L 5875 1524 L 5985 1523 L 6094 1525 L 6172 1531 L 6229 1535 L 6281 1528 L 6315 1528 L 6346 1521 L 6381 1521 L 6445 1523 L 6508 1519 Q 6520 1517 6541 1499 L 6581 1475 L 6644 1461 L 6671 1459 L 6698 1453 L 6698 1445 L 6757 1434 Q 6765 1433 6772 1433 Q 6802 1433 6798 1452 Q 6795 1467 6771 1474 Q 6763 1476 6756 1476 Q 6744 1476 6737 1468 Q 6727 1472 6732 1481 L 6783 1485 Q 6799 1484 6821 1467 Q 6843 1450 6857 1448 L 6884 1448 L 6910 1439 L 6933 1424 L 6962 1405 L 6975 1408 L 6984 1417 Q 6970 1425 6972 1434 Q 6978 1435 6984 1435 Q 7006 1435 7018 1422 L 7029 1402 L 7053 1397 L 7144 1383 L 7235 1375 L 7470 1368 L 7552 1365 L 7611 1370 L 7668 1361 Q 7710 1342 7747 1341 L 7849 1331 L 7917 1325 L 7929 1321 L 7938 1311 L 7945 1301 L 7958 1297 L 7998 1293 L 8037 1288 L 8067 1280 Q 8087 1272 8085 1258 Q 8084 1249 8062 1237 L 8036 1227 L 8050 1217 L 8071 1199 Q 8082 1189 8098 1185 L 8129 1180 L 8159 1175 L 8168 1172 L 8172 1168 L 8188 1155 L 8228 1138 L 8289 1125 L 8351 1118 L 8424 1111 L 8441 1112 L 8457 1108 L 8377 1097 Q 8311 1091 8315 1075 L 8331 1074 L 8331 1068 L 8285 1068 Q 8257 1068 8242 1057 L 8234 1048 L 8211 1044 L 8190 1037 L 8158 1029 L 8149 1020 L 8145 1008 Q 8138 999 8118 993 L 8098 987 L 8112 1007 L 8128 1041 L 8138 1044 Q 8149 1049 8148 1061 L 8141 1075 L 8142 1094 Q 8145 1095 8147 1095 Q 8152 1095 8153 1088 Q 8154 1074 8158 1072 L 8183 1071 Q 8196 1078 8190 1092 Q 8187 1100 8172 1107 Q 8157 1113 8153 1121 L 8148 1139 Q 8145 1144 8128 1145 L 8086 1145 L 8076 1153 L 8051 1168 L 8046 1170 L 7839 1282 L 7806 1297 L 7783 1305 L 7750 1315 L 7697 1326 L 7643 1330 L 7636 1330 L 7611 1331 L 7556 1333 L 7469 1338 L 7338 1348 L 7310 1350 L 7197 1360 L 7027 1380 L 6783 1407 L 6597 1428 L 6526 1445 Q 6471 1460 6430 1480 Q 6405 1492 6350 1496 L 6320 1498 L 6261 1498 L 6238 1497 L 6237 1497 L 6184 1495 L 6064 1493 L 6035 1493 L 5923 1497 L 5800 1503 L 5732 1507 L 5664 1510 L 5608 1511 L 5497 1511 L 5326 1495 L 5105 1476 Q 5074 1474 5032 1474 Q 4980 1474 4912 1477 L 4722 1488 L 4691 1490 L 4585 1499 L 4499 1507 L 4234 1558 L 4239 1553 L 4255 1528 L 4257 1526 L 4257 1526 Q 4052 1541 3927 1541 Q 3837 1541 3788 1533 L 3708 1523 L 3657 1517 L 3426 1494 L 3389 1491 L 3146 1471 Q 3120 1470 3084 1470 Q 3066 1470 3046 1470 L 2942 1474 L 2848 1478 L 2821 1479 L 2697 1482 L 2577 1461 L 2426 1429 L 2315 1420 L 2212 1420 L 2058 1425 L 1979 1426 L 1952 1426 L 1710 1399 L 1669 1390 L 1657 1387 L 1522 1352 L 1310 1324 L 1250 1308 L 1225 1300 L 1196 1289 L 1153 1270 L 1127 1257 L 1126 1256 L 1046 1205 L 976 1158 L 954 1147 L 950 1146 L 936 1141 L 799 1122 L 714 1115 L 537 1101 L 483 1096 L 236 1056 Q 114 1011 119 938 Q 121 907 146 872 Z" fill="rgb(255,255,255)" fill-opacity="0.200"></path></g></g></g></g></g></g><defs><defs></defs><radialGradient r="1" cx="0" cy="0" gradientUnits="userSpaceOnUse" gradientTransform="matrix(4011 0 0 -1346.75 3960 -24)" id=":0"><stop offset="0" stop-color="rgb(169,159,122)" stop-opacity="1.000"></stop><stop offset="1" stop-color="rgb(159,148,114)" stop-opacity="1.000"></stop></radialGradient></defs></svg>