<svg color-interpolation-filters="sRGB" fill-rule="evenodd" pointer-events="none" width="100%" height="100%" xmlns="http://www.w3.org/2000/svg" xmlns:xlink="http://www.w3.org/1999/xlink" style="-webkit-user-select: none;"><g transform="matrix(0.04975396391470749 0 0 0.04975396391470749 0.5333515582285315 0)"><g><rect x="-10.719780219780047" y="0" width="6592.439560439561" height="1829.0000000000002" fill="rgb(255,255,255)"></rect><g><g><g><g><path d="M 4630 467 L 4638 525 L 4650 622 Q 4659 612 4665 590 L 4674 555 Q 4692 510 4725 467 L 4725 467 L 4649 469 L 4630 467 Z M 807 208 L 792 235 L 764 279 L 738 333 L 716 389 L 711 409 L 697 429 Q 665 464 655 501 L 638 564 L 623 596 L 608 628 Q 628 611 649 574 L 683 515 L 718 449 L 761 377 L 774 356 L 796 328 L 890 264 L 899 259 L 890 253 L 807 208 Z M 1919 509 Q 1883 571 1872 633 L 1939 579 L 1992 520 L 1924 510 L 1919 509 Z M 5424 420 L 5451 491 L 5487 573 L 5514 630 Q 5534 667 5553 678 Q 5558 670 5553 662 L 5543 643 Q 5518 598 5510 547 Q 5499 491 5504 422 L 5424 420 Z M 5687 238 L 5629 251 L 5542 269 L 5626 298 L 5643 301 Q 5653 304 5663 312 Q 5711 330 5702 356 L 5708 364 L 5748 422 L 5809 539 L 5812 544 L 5839 599 L 5842 605 L 5872 641 L 5889 667 L 5914 684 L 5939 701 L 5904 649 L 5888 620 L 5873 590 L 5845 552 L 5819 514 L 5789 443 L 5759 372 L 5729 307 L 5701 254 L 5687 238 Z M 610 509 L 517 556 Q 479 587 451 663 L 441 703 L 431 742 L 414 770 Q 406 785 411 800 L 422 791 L 431 778 L 500 685 L 558 581 L 585 545 L 610 509 Z M 1252 317 L 1255 325 L 1261 354 Q 1261 393 1244 474 Q 1236 511 1214 560 L 1175 642 L 1159 688 L 1144 707 L 1129 727 Q 1109 777 1109 816 Q 1118 779 1166 721 L 1212 655 L 1234 613 L 1292 548 Q 1330 508 1345 477 Q 1366 435 1445 367 L 1473 346 L 1477 341 L 1490 329 L 1403 329 L 1252 317 Z M 2466 508 L 2431 512 L 2204 529 Q 2218 547 2222 580 L 2226 661 L 2240 803 L 2254 905 L 2257 1013 L 2260 1120 Q 2274 1116 2280 949 L 2299 743 L 2301 702 Q 2302 674 2310 663 L 2329 648 L 2350 635 L 2358 656 L 2374 667 Q 2402 599 2428 560 L 2466 508 Z M 5133 410 L 4993 426 L 4996 434 L 5016 485 Q 5029 533 5029 617 L 5028 699 Q 5028 747 5034 780 L 5057 957 Q 5074 1064 5116 1123 L 5120 1114 L 5119 1101 Q 5118 1059 5101 987 Q 5081 904 5078 872 Q 5070 800 5074 653 Q 5076 591 5093 534 L 5133 410 Z M 3877 429 L 3745 431 Q 3745 440 3751 443 L 3770 451 Q 3790 460 3802 478 L 3820 518 Q 3835 561 3843 622 L 3855 729 Q 3874 861 3899 961 L 3902 1002 L 3901 1043 L 3905 1125 Q 3905 1048 3930 924 Q 3960 774 3963 713 L 3964 632 Q 3965 585 3978 554 Q 3986 536 3993 536 Q 3996 536 3999 539 Q 4015 553 4025 553 Q 4026 553 4028 553 Q 4042 551 4043 509 L 4043 455 L 4044 433 L 3877 429 Z M 3270 927 L 3260 992 L 3255 1073 Q 3255 1130 3274 1143 L 3274 1137 Q 3279 1100 3274 1032 Q 3268 958 3270 927 Z M 2475 882 L 2445 957 L 2445 970 Q 2445 1063 2436 1103 Q 2428 1135 2433 1139 Q 2439 1144 2444 1144 Q 2452 1144 2459 1133 L 2460 1130 L 2466 1108 L 2480 1052 L 2479 967 L 2475 882 Z M 917 820 L 909 847 L 874 910 Q 847 952 839 972 L 826 1008 Q 815 1048 801 1067 L 746 1147 Q 785 1130 830 1063 L 862 1019 L 891 973 Q 902 952 905 927 L 914 887 L 922 847 L 923 838 L 917 820 Z M 1573 1030 L 1555 1087 L 1550 1105 L 1538 1119 L 1534 1124 Q 1513 1153 1501 1181 L 1488 1210 L 1471 1237 L 1444 1266 L 1420 1280 Q 1405 1288 1399 1294 L 1397 1295 L 1446 1298 Q 1474 1291 1489 1272 L 1535 1217 L 1554 1179 L 1565 1138 L 1575 1083 L 1573 1030 Z M 3314 436 L 3008 445 L 3000 446 L 3010 477 Q 3023 526 3020 563 Q 3017 590 3027 615 L 3058 677 Q 3076 714 3075 743 Q 3075 770 3060 822 Q 3046 875 3045 902 L 3042 973 Q 3041 1014 3048 1044 L 3092 1179 Q 3118 1255 3120 1310 L 3120 1075 Q 3120 1001 3125 978 L 3144 925 L 3150 894 L 3156 862 L 3178 802 Q 3190 768 3189 739 Q 3189 643 3229 593 L 3268 534 L 3304 490 L 3342 447 L 3350 436 Z M 1628 452 L 1646 484 L 1685 536 Q 1701 561 1704 591 L 1705 651 L 1703 749 Q 1703 804 1718 845 Q 1744 916 1709 1002 Q 1697 1030 1695 1070 L 1695 1139 L 1700 1255 L 1700 1291 Q 1699 1313 1701 1325 Q 1710 1298 1713 1251 L 1720 1176 Q 1729 1120 1736 1097 L 1758 1039 L 1785 918 Q 1792 878 1790 818 L 1785 718 Q 1784 663 1803 616 Q 1819 576 1856 528 L 1878 500 L 1710 462 L 1628 452 Z M 1380 1067 L 1330 1152 L 1314 1241 Q 1301 1297 1270 1311 L 1177 1319 L 1138 1317 L 1178 1329 L 1220 1337 L 1270 1340 Q 1301 1340 1315 1328 Q 1335 1310 1340 1253 L 1346 1219 L 1354 1192 L 1368 1130 L 1380 1067 Z M 1036 1319 Q 1024 1349 1067 1365 L 1130 1362 L 1150 1352 L 1150 1352 Q 1148 1352 1147 1352 Q 1125 1352 1092 1340 L 1036 1319 Z M 484 894 L 371 1005 Q 310 1072 284 1136 L 263 1207 Q 250 1247 225 1268 Q 206 1283 186 1283 Q 185 1283 184 1283 Q 162 1283 157 1259 L 150 1284 L 143 1309 Q 135 1326 120 1333 L 88 1345 Q 85 1346 69 1357 L 47 1363 L 17 1363 L 0 1385 L 53 1396 L 109 1404 L 129 1404 L 156 1403 L 180 1403 L 195 1404 L 205 1406 L 222 1365 Q 245 1278 270 1234 L 383 1037 Q 415 979 476 912 L 484 894 Z M 1420 1336 Q 1397 1336 1388 1347 Q 1381 1357 1383 1380 Q 1385 1404 1393 1411 Q 1398 1416 1411 1418 L 1430 1418 Q 1453 1409 1450 1352 L 1455 1337 L 1420 1336 Z M 5677 103 L 5678 104 Q 5742 121 5771 138 Q 5792 163 5774 189 Q 5761 209 5736 222 L 5736 223 L 5760 242 Q 5826 287 5834 306 L 5831 282 L 5829 258 Q 5831 258 5833 258 Q 5845 258 5861 268 L 5890 287 L 5907 294 L 5917 312 L 5930 334 L 5962 398 Q 5981 436 6000 459 L 6056 521 Q 6088 556 6099 591 Q 6120 656 6170 718 L 6204 767 L 6235 817 L 6283 882 Q 6303 906 6312 950 Q 6324 1008 6330 1023 L 6352 1086 Q 6370 1154 6388 1186 L 6362 1169 L 6362 1169 Q 6360 1186 6374 1218 Q 6381 1246 6379 1313 L 6358 1257 L 6331 1194 L 6317 1148 L 6293 1120 L 6266 1094 L 6205 1018 Q 6120 911 6049 899 L 6049 918 Q 6054 946 6082 984 L 6129 1039 L 6187 1120 L 6207 1149 L 6222 1179 L 6235 1209 L 6265 1280 L 6276 1318 L 6289 1355 L 6342 1441 L 6357 1437 L 6394 1427 L 6407 1424 L 6462 1416 L 6518 1415 L 6571 1403 Q 6572 1390 6548 1361 L 6513 1322 L 6483 1281 Q 6459 1225 6452 1198 Q 6440 1149 6407 1071 L 6356 944 Q 6334 885 6286 805 L 6205 671 L 6159 598 Q 6129 554 6116 525 Q 6105 501 6076 469 L 6001 375 Q 5956 316 5924 284 L 5889 250 L 5831 193 L 5813 177 L 5795 161 L 5785 148 Q 5762 125 5677 103 Z M 6249 1500 Q 6247 1526 6238 1544 L 6227 1557 L 6214 1567 Q 6200 1581 6202 1613 L 6225 1608 L 6245 1600 L 6281 1580 Q 6309 1561 6337 1552 L 6339 1552 L 6351 1548 L 6363 1545 L 6382 1538 L 6387 1533 L 6344 1528 Q 6331 1527 6323 1527 Q 6315 1527 6313 1529 Q 6303 1532 6304 1553 Q 6300 1554 6297 1554 Q 6281 1554 6267 1539 Q 6252 1524 6250 1501 Z M 5936 799 Q 5929 860 5938 955 Q 5941 981 5955 1023 L 5976 1090 L 5980 1151 Q 5983 1176 5999 1225 Q 6010 1281 6010 1365 L 6014 1516 L 6016 1585 L 6025 1630 L 6025 1638 L 6036 1647 L 6037 1647 L 6025 1624 L 6053 1624 L 6148 1622 Q 6124 1588 6116 1550 Q 6107 1510 6108 1436 Q 6110 1355 6105 1322 L 6089 1202 L 6066 1135 L 5993 941 L 5975 894 L 5959 845 Q 5949 814 5936 799 Z M 1030 989 Q 1011 1031 979 1071 L 933 1114 L 892 1148 L 869 1162 L 845 1173 Q 828 1185 814 1215 L 795 1264 Q 787 1285 780 1327 L 760 1358 Q 744 1377 741 1387 L 779 1351 Q 796 1331 802 1306 L 817 1255 Q 829 1228 850 1228 Q 853 1228 856 1228 Q 891 1235 891 1297 Q 891 1392 831 1435 Q 808 1451 799 1464 L 783 1492 L 764 1519 L 721 1556 L 669 1559 L 587 1538 L 581 1537 L 565 1535 L 547 1519 Q 543 1511 544 1493 L 546 1466 L 551 1377 L 551 1377 Q 549 1388 535 1405 Q 531 1415 529 1435 L 525 1464 L 515 1503 Q 509 1525 496 1539 Q 471 1567 427 1574 L 348 1570 L 348 1570 Q 365 1591 409 1593 L 476 1594 Q 469 1613 449 1621 L 409 1627 L 424 1631 L 428 1632 L 436 1634 L 440 1635 L 444 1636 L 517 1648 Q 560 1651 601 1651 Q 648 1651 693 1647 L 732 1644 L 755 1642 L 757 1640 L 780 1609 L 800 1567 Q 811 1541 822 1527 L 846 1498 L 867 1465 Q 886 1427 921 1387 L 932 1373 Q 942 1358 954 1312 Q 969 1259 977 1201 Q 989 1120 1007 1058 Q 1028 1011 1030 989 Z M 3246 1612 Q 3251 1631 3276 1650 L 3312 1673 L 3274 1637 L 3246 1612 Z M 1156 1628 L 1150 1637 Q 1118 1693 1032 1698 Q 1095 1698 1075 1729 L 1065 1736 L 1127 1744 L 1208 1745 Q 1188 1742 1175 1728 L 1165 1713 Q 1157 1697 1154 1669 Q 1152 1649 1155 1634 L 1156 1628 Z M 1389 1468 L 1386 1483 Q 1378 1497 1380 1528 Q 1383 1560 1376 1574 L 1349 1606 L 1315 1635 Q 1288 1664 1282 1679 L 1273 1708 Q 1268 1725 1256 1734 L 1230 1746 L 1264 1746 L 1279 1744 L 1284 1744 L 1385 1730 L 1428 1723 L 1426 1723 L 1397 1721 Q 1381 1718 1374 1710 Q 1365 1697 1370 1671 L 1384 1632 Q 1401 1599 1401 1569 Q 1401 1534 1394 1502 L 1389 1468 Z M 5130 1223 L 5144 1267 Q 5168 1327 5170 1350 L 5169 1424 L 5158 1497 L 5149 1537 Q 5141 1560 5129 1560 Q 5125 1560 5121 1558 L 5109 1537 L 5100 1513 L 5086 1490 L 5086 1553 L 5084 1615 Q 5079 1643 5062 1665 L 5024 1703 L 5044 1703 Q 5057 1703 5061 1708 Q 5067 1717 5059 1754 L 5123 1751 L 5199 1753 L 5200 1695 L 5201 1540 Q 5199 1451 5186 1387 Q 5180 1356 5158 1302 L 5130 1223 Z M 1610 1325 Q 1601 1341 1595 1400 Q 1587 1492 1565 1564 Q 1542 1640 1507 1668 L 1474 1692 L 1443 1720 L 1471 1715 L 1582 1715 L 1635 1714 L 1688 1719 L 1725 1725 L 1750 1745 Q 1767 1755 1775 1764 L 1782 1773 Q 1787 1731 1778 1620 L 1776 1572 Q 1781 1479 1775 1435 Q 1756 1459 1751 1534 Q 1747 1590 1731 1594 Q 1729 1595 1726 1595 Q 1714 1595 1703 1579 Q 1687 1558 1675 1558 L 1668 1563 L 1660 1568 Q 1656 1569 1652 1569 Q 1641 1569 1631 1562 Q 1609 1549 1614 1498 L 1621 1423 L 1611 1369 L 1610 1325 Z M 2195 1289 L 2187 1335 L 2175 1381 Q 2171 1403 2166 1484 Q 2162 1563 2151 1605 L 2125 1656 L 2112 1678 L 2114 1678 Q 2117 1679 2120 1679 Q 2139 1679 2157 1656 L 2189 1616 Q 2195 1636 2190 1690 L 2176 1757 L 2166 1782 L 2168 1782 L 2178 1779 L 2220 1765 L 2403 1751 L 2569 1757 L 2618 1755 L 2667 1754 L 2670 1753 L 2678 1753 L 2685 1752 L 2672 1747 L 2582 1725 L 2571 1724 L 2466 1722 L 2362 1709 Q 2341 1702 2324 1673 L 2291 1629 Q 2291 1647 2279 1659 Q 2273 1666 2266 1666 Q 2259 1666 2252 1660 Q 2244 1653 2245 1631 L 2246 1598 Q 2244 1567 2229 1525 L 2202 1454 Q 2192 1422 2192 1374 L 2195 1290 Z M 4625 816 Q 4618 824 4613 849 L 4604 885 Q 4588 928 4583 990 L 4574 1097 Q 4548 1071 4539 1029 Q 4532 1030 4527 1038 Q 4530 1052 4520 1087 Q 4517 1121 4524 1151 Q 4532 1184 4557 1228 L 4599 1302 Q 4643 1388 4645 1434 L 4646 1459 L 4638 1482 Q 4625 1504 4590 1522 Q 4557 1539 4530 1540 Q 4542 1542 4540 1554 L 4533 1574 Q 4529 1596 4530 1640 L 4520 1694 Q 4512 1727 4514 1747 Q 4515 1763 4533 1784 L 4541 1784 L 4548 1783 L 4551 1783 L 4561 1782 L 4564 1718 L 4624 1716 L 4626 1716 L 4650 1715 L 4686 1713 L 4748 1716 L 4745 1667 Q 4739 1622 4738 1551 L 4735 1435 Q 4733 1375 4700 1296 L 4685 1250 L 4674 1203 Q 4663 1163 4654 1106 L 4641 1008 Q 4622 875 4625 816 Z M 5596 869 Q 5597 906 5609 1032 L 5614 1106 Q 5618 1147 5631 1178 L 5665 1252 Q 5686 1296 5692 1328 Q 5699 1371 5695 1414 Q 5691 1504 5676 1547 L 5665 1585 Q 5659 1600 5645 1600 Q 5641 1600 5636 1599 Q 5632 1504 5604 1454 L 5557 1395 L 5556 1394 L 5551 1389 L 5536 1376 L 5556 1407 L 5557 1408 L 5594 1477 Q 5617 1529 5610 1580 L 5596 1619 L 5575 1655 Q 5528 1748 5515 1789 L 5555 1781 Q 5654 1759 5701 1735 L 5721 1721 L 5834 1710 L 5844 1711 L 5882 1714 L 5838 1649 L 5784 1555 L 5771 1566 L 5761 1580 Q 5736 1532 5735 1493 L 5734 1394 Q 5720 1326 5719 1290 Q 5719 1257 5708 1215 L 5685 1141 L 5647 1054 Q 5622 1000 5614 963 L 5596 869 Z M 4358 1492 Q 4365 1628 4355 1713 L 4344 1800 L 4368 1800 L 4376 1799 L 4443 1793 L 4443 1786 L 4428 1680 Q 4414 1608 4387 1539 L 4379 1523 L 4358 1492 Z M 3736 1208 L 3734 1254 L 3738 1308 Q 3751 1382 3751 1424 L 3746 1523 Q 3744 1552 3720 1618 L 3697 1659 Q 3678 1682 3658 1684 L 3651 1685 L 3702 1685 Q 3728 1683 3745 1674 L 3772 1652 Q 3792 1636 3799 1636 Q 3800 1636 3800 1636 Q 3808 1638 3816 1739 Q 3819 1780 3800 1816 L 3859 1797 Q 3971 1777 4023 1777 Q 4025 1777 4028 1777 L 4097 1778 L 4056 1714 Q 4037 1678 4030 1640 L 4017 1584 Q 4007 1556 3986 1535 L 3961 1510 Q 3948 1496 3942 1481 Q 3928 1442 3926 1385 Q 3922 1293 3927 1245 L 3927 1245 L 3902 1371 Q 3883 1455 3879 1504 L 3878 1538 Q 3875 1562 3867 1570 Q 3861 1577 3849 1577 Q 3837 1577 3820 1571 L 3804 1559 L 3802 1556 L 3791 1526 L 3778 1458 L 3767 1390 L 3747 1267 Q 3737 1230 3736 1209 Z M 1981 1613 L 1967 1674 L 1952 1733 L 1915 1819 L 1932 1820 L 1984 1822 L 1996 1822 L 1990 1717 L 1981 1613 Z M 2976 1212 Q 2980 1359 2962 1460 L 2953 1500 L 2946 1539 L 2930 1640 L 2911 1740 Q 2928 1737 2934 1723 L 2942 1694 L 2951 1601 Q 2957 1542 2972 1510 L 2982 1526 L 2985 1546 L 2997 1574 L 3007 1602 L 3008 1655 L 3002 1708 L 3000 1741 L 2995 1774 Q 2989 1794 2974 1799 L 3099 1800 L 3254 1791 L 3284 1786 L 3314 1780 L 3422 1777 L 3462 1782 L 3465 1796 Q 3470 1810 3477 1814 L 3501 1822 L 3536 1828 L 3534 1812 L 3532 1802 Q 3525 1777 3504 1760 L 3458 1736 L 3429 1725 L 3371 1702 L 3312 1675 L 3312 1675 Q 3356 1720 3336 1740 L 3308 1742 L 3280 1740 Q 3236 1735 3208 1716 Q 3187 1691 3171 1690 L 3151 1696 L 3112 1692 Q 3092 1684 3080 1669 Q 3069 1655 3071 1634 L 3076 1596 Q 3078 1566 3061 1530 Q 3042 1488 3034 1431 Q 3024 1355 2976 1212 Z" fill="rgb(77,68,54)" fill-opacity="1.000"></path><path d="M 5669 102 L 5678 104 L 5677 103 L 5669 102 Z M 5626 298 L 5656 309 L 5663 312 Q 5653 304 5643 301 L 5626 298 Z M 5702 356 L 5699 363 L 5749 441 L 5796 521 L 5812 544 L 5809 539 L 5748 422 L 5708 364 L 5702 356 Z M 4630 467 L 4649 469 L 4725 467 L 4725 467 Q 4692 510 4674 555 L 4665 590 Q 4659 612 4650 622 L 4638 525 L 4630 467 Z M 1919 509 L 1924 510 L 1992 520 L 1939 579 L 1872 633 Q 1883 571 1919 509 Z M 5424 420 L 5504 422 Q 5499 491 5510 547 Q 5518 598 5543 643 L 5553 662 Q 5558 670 5553 678 Q 5534 667 5514 630 L 5487 573 L 5451 491 L 5424 420 Z M 610 509 L 585 545 L 558 581 L 500 685 L 431 778 L 422 791 L 411 800 Q 406 785 414 770 L 431 742 L 441 703 L 451 663 Q 479 587 517 556 L 610 509 Z M 922 770 Q 914 785 912 807 L 909 847 L 917 820 Q 916 799 922 776 L 922 770 Z M 5900 533 Q 5912 533 5924 554 L 5940 587 L 5978 673 L 6016 759 L 6095 880 L 6104 895 L 5984 807 L 5934 660 L 5910 598 Q 5895 558 5899 533 Q 5900 533 5900 533 Z M 6104 895 L 6149 927 Q 6148 927 6148 927 Q 6127 927 6104 895 Z M 2060 567 Q 2050 584 2055 632 Q 2061 677 2046 694 Q 2039 703 2028 703 L 2005 702 Q 1968 707 1944 759 Q 1881 908 1858 983 L 1854 974 L 1854 948 L 1855 923 L 1845 858 Q 1839 817 1844 792 Q 1851 766 1866 744 L 1873 734 Q 1893 706 1943 656 L 1977 623 Q 2000 599 2000 582 L 2060 567 Z M 2466 508 L 2428 560 Q 2402 599 2374 667 L 2358 656 L 2350 635 L 2329 648 L 2310 663 Q 2302 674 2301 702 L 2299 743 L 2280 949 Q 2274 1116 2260 1120 L 2257 1013 L 2254 905 L 2240 803 L 2226 661 L 2222 580 Q 2218 547 2204 529 L 2431 512 L 2466 508 Z M 5133 410 L 5093 534 Q 5076 591 5074 653 Q 5070 800 5078 872 Q 5081 904 5101 987 Q 5118 1059 5119 1101 L 5120 1114 L 5116 1123 Q 5074 1064 5057 957 L 5034 780 Q 5028 747 5028 699 L 5029 617 Q 5029 533 5016 485 L 4996 434 L 4993 426 L 5133 410 Z M 3877 429 L 4044 433 L 4043 455 L 4043 509 Q 4042 551 4028 553 Q 4027 553 4025 553 Q 4015 553 3999 539 Q 3996 536 3993 536 Q 3986 536 3978 554 Q 3965 585 3964 632 L 3963 713 Q 3960 774 3930 924 Q 3905 1048 3905 1125 L 3901 1043 L 3902 1002 L 3899 961 Q 3874 861 3855 729 L 3843 622 Q 3835 561 3820 518 L 3802 478 Q 3790 460 3770 451 L 3751 443 Q 3745 440 3745 431 L 3877 429 Z M 3350 436 L 3342 447 L 3304 490 L 3268 534 L 3229 593 Q 3189 643 3189 739 Q 3190 768 3178 802 L 3156 862 L 3150 894 L 3144 925 L 3125 978 Q 3120 1001 3120 1075 L 3120 1310 Q 3118 1255 3092 1179 L 3048 1044 Q 3041 1014 3042 973 L 3045 902 Q 3046 875 3060 822 Q 3075 770 3075 743 Q 3076 714 3058 677 L 3027 615 Q 3017 590 3020 563 Q 3023 526 3010 477 L 3000 446 L 3008 445 L 3314 436 Z M 1628 452 L 1710 462 L 1878 500 L 1856 528 Q 1819 576 1803 616 Q 1784 663 1785 718 L 1790 818 Q 1792 878 1785 918 L 1758 1039 L 1736 1097 Q 1729 1120 1720 1176 L 1713 1251 Q 1710 1298 1701 1325 Q 1699 1313 1700 1291 L 1700 1255 L 1695 1139 L 1695 1070 Q 1697 1030 1709 1002 Q 1744 916 1718 845 Q 1703 804 1703 749 L 1705 651 L 1704 591 Q 1701 561 1685 536 L 1646 484 L 1628 452 Z M 757 180 L 757 203 Q 755 228 740 251 L 707 294 Q 680 329 668 347 Q 647 377 640 406 L 632 442 Q 623 465 607 478 L 570 502 Q 519 532 467 607 Q 427 663 405 748 L 382 823 Q 368 868 364 901 Q 358 961 328 1020 Q 304 1081 284 1109 L 256 1153 Q 234 1185 221 1187 Q 202 1173 207 1119 Q 212 1057 207 1045 Q 186 1068 173 1120 L 155 1204 L 142 1259 Q 132 1288 110 1296 L 67 1303 L 24 1308 Q 11 1324 8 1338 L 32 1348 L 17 1363 L 47 1363 L 69 1357 Q 85 1346 88 1345 L 120 1333 Q 135 1326 143 1309 L 150 1284 L 157 1259 Q 162 1283 184 1283 Q 185 1283 186 1283 Q 206 1283 225 1268 Q 250 1247 263 1207 L 284 1136 Q 310 1072 371 1005 L 484 894 L 521 839 L 558 782 L 600 729 L 638 672 L 672 594 L 717 510 L 755 423 L 774 356 L 761 377 L 718 449 L 683 515 L 649 574 Q 628 611 608 628 L 623 596 L 638 564 L 655 501 Q 665 464 697 429 L 711 409 L 716 389 L 738 333 L 764 279 L 792 235 L 807 208 L 795 202 L 783 196 L 764 185 L 757 180 Z M 1036 1319 L 1092 1340 Q 1125 1352 1147 1352 Q 1149 1352 1150 1352 L 1150 1352 L 1130 1362 L 1067 1365 Q 1024 1349 1036 1319 Z M 476 912 Q 415 979 383 1037 L 270 1234 Q 245 1278 222 1365 L 205 1406 Q 220 1409 232 1415 L 255 1386 L 264 1370 Q 272 1336 278 1323 L 287 1304 L 289 1292 Q 291 1251 295 1234 Q 300 1206 325 1182 L 355 1142 L 357 1146 L 395 1078 Q 432 993 466 931 L 476 912 Z M 1420 1336 L 1455 1337 L 1450 1352 Q 1453 1409 1430 1418 L 1411 1418 Q 1398 1416 1393 1411 Q 1385 1404 1383 1380 Q 1381 1357 1388 1347 Q 1397 1336 1420 1336 Z M 6187 1120 Q 6213 1177 6234 1249 L 6246 1282 L 6256 1314 L 6257 1343 Q 6257 1360 6264 1371 Q 6273 1386 6302 1409 L 6333 1447 L 6334 1447 L 6332 1445 L 6342 1441 L 6289 1355 L 6276 1318 L 6265 1280 L 6235 1209 L 6222 1179 L 6207 1149 L 6187 1120 Z M 1965 987 Q 1966 1060 1951 1149 L 1918 1309 Q 1897 1407 1865 1500 L 1844 1558 Q 1827 1589 1809 1589 Q 1805 1589 1801 1588 Q 1786 1583 1784 1564 L 1785 1531 L 1783 1441 L 1780 1259 L 1780 1240 Q 1784 1201 1791 1177 Q 1800 1148 1826 1112 L 1861 1045 Q 1883 1000 1905 987 Z M 6043 1071 L 6065 1134 L 6088 1201 L 6104 1321 Q 6109 1354 6107 1435 Q 6106 1509 6115 1549 Q 6123 1587 6147 1621 L 6202 1613 Q 6200 1581 6214 1567 L 6227 1557 L 6238 1544 Q 6247 1526 6249 1500 Q 6251 1523 6266 1538 Q 6279 1553 6296 1553 Q 6300 1553 6303 1552 Q 6302 1531 6312 1528 Q 6315 1527 6323 1527 Q 6331 1527 6345 1529 L 6388 1534 L 6391 1531 L 6392 1522 L 6300 1498 Q 6248 1481 6242 1439 L 6217 1456 L 6189 1463 Q 6172 1458 6161 1418 L 6150 1365 Q 6140 1320 6128 1223 L 6125 1196 L 6121 1170 Q 6118 1149 6109 1135 L 6075 1097 L 6044 1072 Z M 645 1052 L 624 1089 L 602 1125 L 576 1183 Q 559 1213 550 1249 L 538 1318 L 530 1358 L 524 1398 Q 524 1445 509 1485 Q 494 1528 441 1550 Q 406 1565 371 1565 Q 358 1565 345 1563 L 343 1551 L 339 1542 Q 290 1566 213 1568 L 232 1583 Q 257 1596 300 1605 L 371 1618 L 409 1627 L 449 1621 Q 469 1613 476 1594 L 409 1593 Q 365 1591 348 1570 L 348 1570 L 427 1574 Q 471 1567 496 1539 Q 509 1525 515 1503 L 525 1464 L 529 1435 Q 531 1415 535 1405 Q 549 1388 551 1377 L 551 1377 L 546 1466 L 544 1493 Q 543 1511 547 1519 L 565 1535 Q 555 1477 570 1384 L 591 1235 L 592 1183 Q 594 1152 602 1131 Q 606 1121 627 1093 Q 644 1070 645 1052 Z M 5737 224 L 5688 239 L 5702 255 L 5730 308 L 5760 373 L 5790 444 L 5820 515 L 5846 553 L 5874 591 L 5889 621 L 5905 650 L 5940 702 L 5915 685 L 5890 668 L 5873 642 L 5843 606 L 5848 624 Q 5855 659 5855 713 L 5856 802 Q 5862 891 5895 997 L 5911 1060 L 5929 1123 Q 5968 1226 5981 1287 Q 5990 1325 5992 1386 L 5997 1484 L 5996 1545 Q 5995 1582 6005 1603 L 6025 1630 L 6016 1585 L 6014 1516 L 6010 1365 Q 6010 1281 5999 1225 Q 5983 1176 5980 1151 L 5976 1090 L 5955 1023 Q 5941 981 5938 955 Q 5929 860 5936 799 L 5936 799 Q 5949 814 5959 845 L 5975 894 L 5993 941 L 5997 951 L 5997 949 Q 5990 920 5990 889 Q 5989 850 5965 800 L 5965 800 L 5992 839 Q 6016 879 6050 919 L 6050 900 Q 6121 912 6206 1019 L 6267 1095 L 6294 1121 L 6318 1149 L 6332 1195 L 6359 1258 L 6380 1314 Q 6382 1247 6375 1219 Q 6361 1187 6363 1170 L 6363 1170 L 6389 1187 Q 6371 1155 6353 1087 Q 6277 992 6229 885 L 6229 885 L 6230 923 Q 6181 917 6147 850 Q 6135 827 6105 740 Q 6081 669 6013 621 Q 5973 595 5956 581 Q 5926 557 5914 527 L 5886 464 Q 5868 426 5861 398 Q 5854 367 5867 363 L 5903 351 Q 5918 340 5918 313 L 5908 295 L 5891 288 L 5862 269 Q 5847 259 5834 259 Q 5832 259 5830 259 L 5832 283 L 5835 307 Q 5827 288 5761 243 L 5737 224 Z M 2066 988 L 2067 1210 L 2060 1432 L 2047 1526 Q 2037 1586 2036 1619 L 2037 1643 Q 2036 1657 2025 1660 Q 2023 1660 2022 1660 Q 2008 1660 2003 1635 L 2000 1625 Q 1996 1603 1999 1568 L 2006 1510 L 2007 1503 L 2016 1453 L 2042 1304 Q 2056 1217 2056 1153 L 2066 988 Z M 1165 1627 L 1155 1634 Q 1152 1649 1154 1669 L 1165 1627 Z M 3246 1612 L 3274 1637 L 3312 1673 L 3276 1650 Q 3251 1631 3246 1612 Z M 3706 911 L 3711 1224 Q 3711 1260 3719 1313 L 3731 1402 Q 3736 1451 3731 1476 L 3714 1508 Q 3700 1527 3697 1539 Q 3694 1548 3696 1567 L 3698 1595 L 3685 1640 L 3658 1683 Q 3678 1681 3697 1658 L 3720 1617 Q 3744 1551 3746 1522 L 3751 1423 Q 3751 1381 3738 1307 L 3734 1253 L 3736 1207 Q 3737 1228 3747 1265 L 3767 1388 L 3778 1456 L 3791 1524 L 3802 1554 L 3790 1497 L 3778 1442 Q 3769 1393 3762 1324 L 3749 1205 L 3745 1175 L 3734 1166 Q 3718 1145 3715 1095 L 3712 1017 L 3712 970 L 3706 911 Z M 1150 1637 Q 1100 1673 1051 1685 L 931 1697 L 838 1694 L 1065 1736 L 1075 1729 Q 1095 1698 1032 1698 Q 1118 1693 1150 1637 Z M 5397 1631 Q 5388 1664 5388 1711 L 5390 1793 L 5417 1796 L 5424 1796 L 5411 1744 L 5410 1743 L 5410 1739 Q 5398 1679 5397 1631 Z M 4338 1324 L 4343 1528 L 4350 1624 Q 4353 1681 4349 1720 L 4340 1765 Q 4334 1784 4320 1800 L 4335 1800 L 4344 1799 L 4355 1712 Q 4365 1627 4358 1491 L 4358 1491 L 4379 1522 L 4371 1494 L 4359 1412 L 4350 1329 L 4338 1324 Z M 1166 309 L 1193 348 Q 1225 408 1186 448 L 1153 480 Q 1134 498 1130 517 Q 1127 530 1130 557 L 1131 596 L 1118 638 L 1097 677 L 1072 745 L 1041 813 Q 969 924 927 924 Q 926 924 925 924 Q 921 899 923 848 L 923 848 L 915 888 L 906 928 Q 903 953 892 974 L 863 1020 L 831 1064 Q 786 1131 747 1148 L 802 1068 Q 816 1049 827 1009 L 827 1009 L 810 1039 L 786 1081 L 755 1118 L 726 1150 Q 721 1166 744 1185 L 771 1210 Q 779 1220 778 1243 Q 776 1277 753 1309 Q 714 1368 690 1432 L 672 1489 Q 658 1519 632 1531 L 581 1537 L 587 1538 L 669 1559 L 721 1556 L 764 1519 L 783 1492 L 799 1464 Q 808 1451 831 1435 Q 891 1392 891 1297 Q 891 1235 856 1228 Q 853 1228 850 1228 Q 829 1228 817 1255 L 802 1306 Q 796 1331 779 1351 L 741 1387 Q 744 1377 760 1358 L 780 1327 Q 787 1285 795 1264 L 814 1215 Q 828 1185 845 1173 L 869 1162 L 892 1148 L 933 1114 L 979 1071 Q 1011 1031 1030 989 L 1030 989 Q 1028 1011 1007 1058 Q 989 1120 977 1201 Q 969 1259 954 1312 Q 942 1358 932 1373 L 921 1387 Q 886 1427 867 1465 L 846 1498 L 822 1527 Q 811 1541 800 1567 L 780 1609 L 757 1640 L 813 1598 L 817 1593 L 812 1593 Q 808 1580 821 1564 L 842 1539 L 854 1519 L 862 1499 L 885 1459 Q 907 1419 923 1401 L 941 1369 L 964 1364 L 1004 1368 L 1038 1390 Q 1058 1406 1095 1406 L 1159 1403 Q 1314 1403 1358 1462 Q 1372 1482 1377 1512 Q 1381 1543 1371 1564 L 1341 1597 Q 1310 1617 1304 1623 Q 1288 1638 1276 1665 L 1256 1709 Q 1240 1740 1212 1740 Q 1202 1740 1191 1736 L 1175 1728 L 1175 1728 Q 1188 1742 1208 1745 L 1214 1746 L 1230 1746 L 1256 1734 Q 1268 1725 1273 1708 L 1282 1679 Q 1288 1664 1315 1635 L 1349 1606 L 1376 1574 Q 1383 1560 1380 1528 Q 1378 1497 1386 1483 L 1389 1468 L 1394 1502 Q 1401 1534 1401 1569 Q 1401 1599 1384 1632 L 1370 1671 Q 1365 1697 1374 1710 Q 1381 1718 1397 1721 L 1426 1723 L 1428 1723 L 1443 1720 L 1474 1692 L 1507 1668 Q 1542 1640 1565 1564 Q 1587 1492 1595 1400 Q 1601 1341 1610 1325 L 1611 1369 L 1621 1423 L 1614 1498 Q 1609 1549 1631 1562 Q 1641 1569 1652 1569 Q 1656 1569 1660 1568 L 1668 1563 L 1675 1558 Q 1687 1558 1703 1579 Q 1715 1595 1726 1595 Q 1728 1595 1731 1594 Q 1747 1590 1751 1534 Q 1756 1459 1775 1435 Q 1781 1479 1776 1572 L 1778 1620 Q 1787 1731 1782 1773 L 1791 1784 L 1807 1797 L 1806 1797 L 1811 1800 L 1812 1800 Q 1840 1812 1915 1817 L 1952 1731 L 1967 1672 L 1981 1611 L 1990 1715 L 1996 1820 L 2002 1820 L 2042 1817 Q 2097 1809 2151 1787 L 2166 1782 L 2176 1757 L 2190 1690 Q 2195 1636 2189 1616 L 2157 1656 Q 2139 1679 2120 1679 Q 2117 1679 2114 1678 L 2112 1678 L 2125 1656 L 2151 1605 Q 2162 1563 2166 1484 Q 2171 1403 2175 1381 L 2187 1335 L 2195 1289 L 2192 1373 Q 2192 1421 2202 1453 L 2229 1524 Q 2244 1566 2246 1597 L 2245 1630 Q 2244 1652 2252 1659 Q 2259 1666 2266 1666 Q 2273 1666 2279 1660 Q 2291 1648 2291 1630 L 2324 1674 Q 2341 1703 2362 1710 L 2466 1723 L 2571 1725 L 2582 1726 L 2672 1748 L 2685 1753 L 2697 1752 L 2712 1752 L 2722 1738 Q 2708 1726 2638 1706 L 2563 1686 L 2400 1635 Q 2388 1622 2384 1590 Q 2380 1557 2383 1480 Q 2385 1408 2378 1370 L 2356 1241 Q 2346 1171 2351 1111 L 2356 1035 Q 2356 994 2346 960 L 2325 896 Q 2313 846 2332 832 Q 2339 827 2345 827 Q 2360 827 2366 859 L 2378 918 Q 2384 926 2398 927 L 2418 931 Q 2432 938 2436 943 L 2444 965 L 2446 972 L 2446 959 L 2476 884 L 2480 969 L 2481 1054 L 2467 1110 L 2461 1132 L 2476 1139 L 2487 1174 L 2502 1170 L 2498 1145 L 2498 1059 Q 2498 941 2476 866 L 2455 814 Q 2442 783 2439 759 Q 2430 685 2442 631 Q 2449 601 2483 551 L 2511 504 L 2529 501 L 2539 499 L 2542 499 L 2597 491 L 2844 458 L 2849 458 L 2904 454 L 2910 453 L 2906 484 Q 2901 523 2904 544 Q 2907 571 2927 632 Q 2945 687 2944 723 L 2946 806 Q 2946 855 2938 888 L 2920 949 Q 2911 983 2911 1011 Q 2911 1048 2920 1114 L 2931 1216 L 2931 1311 L 2923 1366 Q 2917 1395 2918 1416 L 2908 1323 L 2896 1224 Q 2877 1248 2878 1317 L 2884 1419 L 2884 1553 L 2889 1604 L 2889 1658 L 2888 1696 L 2884 1732 L 2868 1747 L 2846 1758 Q 2836 1743 2834 1701 Q 2832 1662 2818 1647 Q 2810 1668 2808 1710 Q 2806 1753 2800 1772 L 2799 1774 L 2807 1777 L 2908 1797 L 2974 1798 Q 2989 1793 2995 1773 L 3000 1740 L 3002 1707 L 3008 1654 L 3007 1601 L 2997 1573 L 2985 1545 L 2982 1525 L 2972 1509 Q 2957 1541 2951 1600 L 2942 1693 L 2934 1722 Q 2928 1736 2911 1739 L 2930 1639 L 2946 1538 L 2953 1499 L 2962 1459 Q 2980 1358 2976 1211 L 2976 1211 Q 3024 1354 3034 1430 Q 3042 1487 3061 1529 Q 3078 1565 3076 1595 L 3071 1633 Q 3069 1654 3080 1668 Q 3092 1683 3112 1691 L 3151 1695 L 3171 1689 Q 3187 1690 3208 1715 Q 3236 1734 3280 1739 L 3308 1741 L 3336 1739 Q 3356 1719 3312 1674 L 3312 1674 L 3371 1701 L 3429 1724 L 3458 1735 Q 3460 1719 3447 1708 L 3417 1690 L 3333 1644 Q 3283 1613 3269 1577 Q 3253 1536 3249 1464 L 3239 1347 Q 3204 1327 3199 1203 L 3201 1054 L 3211 1067 L 3223 988 L 3231 908 Q 3233 994 3256 1075 L 3261 994 L 3271 929 L 3271 929 Q 3269 960 3275 1034 Q 3280 1102 3275 1139 L 3299 1242 L 3311 1291 L 3312 1280 L 3313 1244 Q 3305 1196 3304 1170 L 3303 1079 Q 3301 1025 3293 989 Q 3271 891 3271 813 L 3270 768 L 3272 722 Q 3276 682 3303 614 Q 3332 539 3338 506 L 3353 438 L 3398 438 L 3633 435 L 3699 554 L 3775 685 Q 3814 763 3823 828 L 3825 886 L 3824 943 L 3831 1030 Q 3836 1083 3830 1116 L 3819 1149 L 3810 1182 Q 3807 1215 3807 1273 L 3806 1363 Q 3802 1428 3804 1558 L 3820 1570 Q 3837 1577 3849 1577 Q 3861 1577 3867 1571 Q 3875 1563 3878 1539 L 3879 1505 Q 3883 1456 3902 1372 L 3927 1246 L 3927 1246 Q 3922 1294 3926 1386 Q 3928 1443 3942 1482 Q 3948 1497 3961 1511 L 3986 1536 Q 4007 1557 4017 1585 L 4030 1641 Q 4037 1679 4056 1715 L 4097 1779 L 4132 1781 L 4171 1784 L 4192 1787 Q 4163 1745 4149 1707 Q 4132 1662 4070 1580 Q 4012 1502 3996 1452 L 3987 1418 L 3975 1399 L 3966 1379 Q 3943 1324 3930 1260 L 3928 1247 L 3927 1243 L 3927 1242 L 3925 1222 L 3927 1096 L 3928 1092 L 3932 1071 L 3962 944 Q 3967 895 3981 858 L 4000 801 Q 4006 773 4002 741 Q 3989 642 4030 625 Q 4035 623 4039 623 Q 4055 623 4071 647 Q 4094 683 4111 685 L 4120 658 L 4121 601 Q 4105 527 4100 490 Q 4096 462 4101 439 L 4110 439 L 4161 441 L 4169 442 L 4182 442 L 4196 443 L 4264 446 L 4279 447 L 4296 448 L 4313 449 L 4329 450 L 4359 452 L 4387 453 L 4486 459 L 4500 460 L 4513 461 Q 4572 519 4584 566 Q 4598 619 4597 688 Q 4595 762 4575 808 Q 4564 834 4509 895 Q 4461 948 4455 988 L 4453 1045 L 4456 1101 L 4469 1328 L 4482 1555 Q 4479 1530 4459 1484 Q 4422 1404 4418 1313 L 4413 1181 L 4397 1157 L 4398 1193 Q 4400 1248 4415 1367 L 4430 1540 L 4430 1567 Q 4430 1582 4435 1592 L 4449 1612 L 4462 1632 Q 4471 1656 4457 1675 Q 4449 1686 4441 1686 Q 4435 1686 4428 1681 L 4428 1681 L 4443 1787 L 4443 1794 L 4508 1788 L 4525 1786 L 4527 1786 L 4533 1785 Q 4515 1764 4514 1748 Q 4512 1728 4520 1695 L 4530 1641 Q 4529 1597 4533 1575 L 4540 1555 Q 4542 1543 4530 1541 Q 4557 1540 4590 1523 Q 4625 1505 4638 1483 L 4646 1460 L 4645 1435 Q 4643 1389 4599 1303 L 4557 1229 Q 4532 1185 4524 1152 Q 4517 1122 4520 1088 Q 4530 1053 4527 1039 Q 4532 1031 4539 1030 Q 4548 1072 4574 1098 L 4583 991 Q 4588 929 4604 886 L 4613 850 Q 4618 825 4625 817 L 4625 817 Q 4622 876 4641 1009 L 4654 1107 Q 4663 1164 4674 1204 L 4685 1251 L 4700 1297 Q 4733 1376 4735 1436 L 4738 1552 Q 4739 1623 4745 1668 L 4748 1717 L 4754 1718 L 4782 1732 Q 4800 1743 4810 1746 L 4829 1751 L 4848 1755 L 4848 1754 L 4832 1733 L 4817 1703 L 4805 1672 Q 4786 1630 4781 1574 L 4775 1471 Q 4768 1370 4775 1304 Q 4780 1261 4753 1216 Q 4714 1149 4709 1133 Q 4698 1100 4695 1046 L 4691 956 Q 4680 952 4675 935 Q 4671 919 4673 888 L 4675 840 L 4673 791 L 4675 742 Q 4683 692 4709 666 L 4758 622 L 4765 612 Q 4789 579 4797 528 L 4875 522 L 4948 525 L 4969 529 L 4977 552 L 4988 605 L 4995 660 Q 5004 730 5005 825 L 5003 991 Q 5003 1027 5017 1069 L 5043 1144 Q 5078 1247 5083 1415 L 5076 1390 L 5062 1365 L 5041 1310 L 5023 1255 L 5023 1255 Q 5022 1282 5032 1329 L 5043 1402 Q 5044 1430 5051 1466 L 5063 1529 L 5073 1571 Q 5079 1598 5075 1614 Q 5071 1635 5046 1661 Q 5021 1688 5016 1707 Q 5016 1707 5015 1707 Q 5006 1707 4962 1638 Q 4916 1567 4905 1537 L 4905 1537 L 4951 1740 L 4956 1759 L 5059 1756 Q 5067 1719 5061 1710 Q 5057 1705 5044 1705 L 5024 1705 L 5062 1667 Q 5079 1645 5084 1617 L 5086 1555 L 5086 1492 L 5100 1515 L 5109 1539 L 5121 1560 Q 5125 1562 5129 1562 Q 5141 1562 5149 1539 L 5158 1499 L 5169 1426 L 5170 1352 Q 5168 1329 5144 1269 L 5130 1225 L 5158 1304 Q 5180 1358 5186 1389 Q 5199 1453 5201 1542 L 5200 1697 L 5199 1755 L 5215 1755 L 5235 1754 L 5252 1753 L 5250 1732 Q 5245 1613 5262 1511 Q 5286 1361 5241 1132 L 5201 970 Q 5174 867 5164 808 Q 5149 747 5145 695 Q 5143 676 5150 626 L 5156 570 Q 5162 529 5197 464 L 5202 437 L 5203 411 L 5223 412 L 5301 417 Q 5333 427 5361 450 Q 5435 511 5444 640 Q 5447 684 5462 714 L 5483 758 L 5497 805 L 5495 875 L 5494 879 L 5487 947 Q 5486 986 5496 1018 L 5522 1098 Q 5534 1142 5538 1181 L 5555 1361 Q 5544 1269 5511 1239 Q 5502 1280 5511 1362 Q 5507 1346 5485 1323 Q 5461 1298 5456 1283 Q 5447 1259 5437 1203 Q 5427 1196 5425 1184 L 5425 1158 L 5418 1097 L 5410 1036 L 5409 1026 L 5390 933 Q 5368 847 5364 803 L 5364 803 L 5370 999 L 5369 1069 Q 5370 1109 5374 1138 Q 5383 1202 5417 1302 L 5470 1464 L 5489 1514 L 5503 1563 L 5505 1624 L 5503 1685 L 5498 1716 L 5490 1746 L 5479 1795 L 5515 1790 Q 5528 1749 5575 1656 L 5596 1620 L 5610 1581 Q 5617 1530 5594 1478 L 5557 1409 L 5557 1417 L 5556 1408 L 5536 1377 L 5551 1390 L 5556 1395 L 5555 1368 L 5557 1396 L 5604 1455 Q 5632 1505 5636 1600 Q 5641 1601 5645 1601 Q 5659 1601 5665 1586 L 5676 1548 Q 5691 1505 5695 1415 Q 5699 1372 5692 1329 Q 5686 1297 5665 1253 L 5631 1179 Q 5618 1148 5614 1107 L 5609 1033 Q 5597 907 5596 870 L 5596 870 L 5614 964 Q 5622 1001 5647 1055 L 5685 1142 L 5708 1216 Q 5719 1258 5719 1291 Q 5720 1327 5734 1395 L 5735 1494 Q 5736 1533 5761 1581 L 5771 1567 L 5784 1556 L 5838 1650 L 5882 1715 L 5929 1724 Q 5889 1700 5880 1688 Q 5865 1671 5864 1648 L 5864 1603 L 5857 1542 L 5849 1530 Q 5840 1507 5844 1455 L 5843 1449 Q 5835 1392 5837 1241 Q 5837 1089 5765 992 Q 5743 963 5728 929 Q 5712 891 5708 823 L 5705 815 L 5705 792 L 5690 612 L 5689 594 L 5682 577 Q 5670 559 5617 535 Q 5568 513 5558 489 Q 5552 475 5554 444 L 5555 425 L 5577 424 L 5641 408 L 5672 393 L 5683 384 L 5691 377 L 5698 367 L 5698 367 Q 5635 392 5485 392 Q 5406 392 5303 385 Q 5295 385 5286 385 Q 5218 385 5073 410 L 4797 459 Q 4754 466 4693 466 Q 4611 466 4497 453 L 4157 412 Q 4078 405 3928 405 Q 3828 405 3696 408 L 3224 419 L 2801 444 L 2478 479 L 2212 503 L 1931 495 L 1691 451 L 1511 439 L 1526 442 L 1521 447 Q 1550 479 1557 520 Q 1569 595 1558 654 L 1548 677 L 1532 697 Q 1511 727 1499 763 L 1491 806 L 1491 851 Q 1491 883 1515 937 Q 1538 991 1538 1024 L 1538 1107 L 1535 1127 L 1539 1122 L 1551 1108 L 1556 1090 L 1574 1033 L 1576 1086 L 1566 1141 L 1555 1182 L 1536 1220 L 1490 1275 Q 1475 1294 1447 1301 L 1398 1298 L 1400 1297 Q 1376 1295 1360 1267 L 1354 1244 L 1347 1222 L 1341 1256 Q 1336 1313 1316 1331 Q 1302 1343 1271 1343 L 1221 1340 L 1179 1332 L 1139 1320 L 1178 1322 Q 1151 1310 1132 1280 L 1126 1266 L 1123 1252 Q 1104 1231 1100 1220 Q 1091 1195 1090 1151 L 1091 1079 L 1091 1025 L 1101 1007 L 1105 976 Q 1111 964 1124 951 L 1139 918 Q 1152 891 1174 871 L 1218 833 Q 1243 811 1257 771 L 1278 700 Q 1299 617 1348 533 L 1389 440 Q 1397 424 1407 416 L 1433 401 L 1440 397 L 1451 380 L 1453 375 L 1456 372 L 1455 372 L 1474 349 L 1446 370 Q 1367 438 1346 480 Q 1331 511 1293 551 L 1235 616 L 1213 658 L 1167 724 Q 1119 782 1110 819 Q 1110 780 1130 730 L 1145 710 L 1160 691 L 1176 645 L 1215 563 Q 1237 514 1245 477 Q 1262 396 1262 357 L 1256 328 L 1253 320 L 1243 319 L 1166 311 Z M 3799 1637 Q 3792 1637 3772 1653 L 3745 1675 Q 3728 1684 3702 1686 L 3658 1686 L 3638 1702 Q 3631 1693 3626 1673 Q 3623 1710 3606 1742 Q 3585 1780 3554 1780 Q 3553 1780 3552 1780 L 3552 1780 Q 3555 1802 3534 1812 L 3536 1828 L 3552 1830 L 3614 1832 L 3671 1832 L 3794 1819 L 3800 1817 Q 3819 1781 3816 1740 Q 3808 1639 3800 1637 Q 3799 1637 3799 1637 Z" fill="rgb(94,81,62)" fill-opacity="1.000"></path><path d="M 2078 33 L 2020 34 L 2094 34 L 2078 33 Z M 5151 69 Q 5153 69 5156 69 L 5202 76 Q 5195 85 5169 85 Q 5143 85 5135 76 Q 5141 69 5151 69 Z M 1257 69 L 1290 96 Q 1281 104 1271 104 Q 1264 104 1257 99 Q 1241 87 1257 69 Z M 3982 49 L 4189 56 Q 4216 73 4198 87 L 4202 91 L 4177 97 L 4145 106 L 4049 117 L 3952 116 L 3904 112 Q 3877 104 3891 77 Q 3899 62 3934 60 Q 3972 59 3982 49 Z M 2937 96 Q 2940 96 2943 96 L 2997 102 Q 2992 117 2958 120 Q 2953 120 2949 120 Q 2924 120 2915 110 Q 2921 96 2937 96 Z M 5322 102 L 5336 136 L 5175 128 Q 5190 114 5244 114 Q 5303 114 5322 102 Z M 3106 99 L 3183 102 L 3230 116 L 3268 120 Q 3290 129 3283 148 Q 3269 150 3255 150 Q 3213 150 3171 134 Q 3161 126 3145 121 L 3086 114 Q 3047 113 3028 104 L 3106 99 Z M 4996 122 L 5082 142 Q 5047 157 5003 158 L 4923 148 Q 4920 129 4951 128 L 4996 122 Z M 3117 149 L 3130 169 L 3100 171 Q 3082 171 3075 163 Q 3077 151 3092 149 Z M 1097 142 L 1130 149 Q 1138 154 1136 161 Q 1126 173 1094 173 Q 1085 173 1075 172 L 1010 161 Q 1016 153 1045 153 Q 1048 153 1052 153 Q 1057 153 1061 153 Q 1088 153 1097 142 Z M 1162 156 Q 1188 156 1197 175 L 1157 176 L 1157 156 Q 1160 156 1162 156 Z M 5476 142 Q 5497 168 5477 176 L 5435 175 L 5418 175 Q 5409 174 5410 162 Q 5411 149 5425 149 Q 5427 149 5429 149 L 5476 142 Z M 4522 122 L 4756 136 Q 4765 166 4614 175 Q 4592 176 4573 176 Q 4463 176 4462 137 L 4492 127 L 4522 122 Z M 2670 154 L 2750 156 L 2763 176 L 2668 178 Q 2596 176 2589 157 L 2670 154 Z M 2470 139 L 2530 142 L 2557 169 Q 2550 180 2509 180 Q 2503 180 2496 180 Q 2444 178 2437 164 Q 2426 140 2470 139 Z M 5188 153 Q 5192 153 5195 153 L 5249 156 L 5282 162 Q 5299 165 5295 175 L 5281 190 L 5248 192 L 5213 189 L 5171 188 Q 5144 184 5149 162 Q 5152 153 5188 153 Z M 5056 176 L 5102 182 L 5102 195 L 5056 195 Q 5053 186 5056 176 Z M 3840 154 Q 3861 154 3885 155 L 3996 156 L 3930 196 L 3890 204 L 3850 203 L 3772 204 Q 3712 202 3700 190 Q 3717 162 3787 156 Q 3809 154 3840 154 Z M 4636 189 L 4682 216 L 4647 217 L 4615 211 Q 4630 207 4636 189 Z M 1683 209 L 1743 216 L 1783 224 Q 1781 237 1725 239 L 1646 230 Q 1639 230 1633 230 Q 1602 230 1595 222 Q 1605 211 1626 209 L 1663 209 L 1663 223 Q 1681 223 1683 209 Z M 4142 149 L 4196 169 Q 4225 207 4301 207 Q 4305 207 4309 207 L 4437 215 L 4334 227 L 4244 233 L 4154 236 L 4030 243 L 3920 243 L 3811 234 Q 3823 225 3855 221 L 3902 216 L 3968 212 Q 4014 209 4031 198 L 4044 184 Q 4046 175 4051 169 Q 4068 152 4142 149 Z M 3007 221 Q 3023 221 3038 229 Q 3041 253 2990 254 L 2923 248 Q 2922 236 2934 235 L 2957 236 L 2997 222 Q 3002 221 3007 221 Z M 4856 236 Q 4851 253 4811 254 L 4754 248 Q 4760 241 4769 241 Q 4772 241 4776 242 L 4856 236 Z M 1129 222 Q 1132 222 1135 222 L 1237 229 L 1243 262 Q 1235 270 1218 270 L 1190 269 Q 1083 264 1070 248 Q 1050 222 1129 222 Z M 1250 216 L 1243 222 Q 1246 222 1248 222 Q 1280 222 1333 243 Q 1395 268 1403 295 L 1369 294 L 1334 289 L 1300 290 Q 1278 288 1271 276 Q 1268 270 1270 256 Q 1273 242 1268 236 Q 1261 227 1232 223 L 1191 216 Z M 4549 269 L 4596 296 L 4524 297 L 4454 295 Q 4466 280 4499 274 L 4549 269 Z M 4249 242 L 4311 247 Q 4353 252 4366 269 Q 4348 295 4284 298 L 4189 296 L 4112 299 L 4035 302 L 3821 287 L 3730 288 Q 3658 286 3650 264 L 3768 258 Q 3811 260 3841 260 Q 3871 260 3888 258 L 4082 242 Z M 4942 241 Q 4952 241 4962 242 L 4942 256 Q 4936 301 4896 311 L 4814 308 Q 4819 272 4875 253 Q 4910 241 4942 241 Z M 3106 222 Q 3108 222 3110 222 L 3130 269 Q 3123 275 3108 278 L 3084 283 Q 3057 304 3039 308 L 3013 310 L 2986 309 L 2899 314 Q 2835 314 2830 290 L 2906 290 Q 2951 289 2980 275 L 3042 239 Q 3073 222 3106 222 Z M 3170 242 L 3203 262 L 3243 270 L 3279 283 L 3348 286 Q 3401 291 3389 315 Q 3385 323 3366 323 L 3341 322 L 3241 329 L 3064 329 Q 3049 328 3043 317 L 3123 295 Q 3178 276 3170 242 Z M 5069 236 L 5116 256 Q 5130 257 5134 266 L 5144 285 Q 5154 294 5171 298 L 5201 303 L 5231 305 L 5267 313 L 5314 292 Q 5341 278 5352 263 L 5349 262 L 5362 236 L 5362 236 Q 5361 249 5352 263 L 5413 275 Q 5451 285 5456 310 Q 5465 350 5428 357 L 5328 361 Q 5261 356 5236 336 L 5238 334 L 5106 348 L 4976 349 L 4940 350 L 4905 345 Q 4915 333 4935 323 L 4971 309 L 4998 302 Q 5018 296 5022 290 L 5024 273 Q 5023 262 5028 255 Q 5032 250 5048 247 Q 5063 243 5069 236 Z M 4356 329 L 4382 336 L 4382 361 Q 4353 365 4332 365 Q 4297 365 4284 354 Q 4289 340 4315 333 L 4356 329 Z M 2374 255 Q 2395 256 2410 264 Q 2422 271 2432 289 L 2451 316 Q 2470 336 2515 336 Q 2523 336 2532 335 Q 2544 334 2554 334 Q 2598 334 2615 348 L 2500 361 L 2383 369 L 2255 375 L 2131 364 L 2283 342 L 2315 341 Q 2336 339 2342 330 Q 2362 298 2306 288 L 2296 306 L 2284 325 L 2260 329 L 2217 327 L 2175 329 L 2127 343 L 2101 342 L 2076 337 L 1990 328 Q 1993 311 2029 302 L 2082 291 L 2163 269 L 2302 269 Q 2317 267 2323 256 L 2337 256 L 2374 255 Z M 3983 340 L 4016 342 L 4187 356 L 4216 356 L 4226 359 L 4262 362 L 4213 365 L 4241 364 L 4282 376 L 4232 378 Q 4197 377 4185 366 L 4022 370 L 3980 369 Q 3953 366 3947 349 Q 3951 340 3983 340 Z M 3083 349 L 3163 376 L 3112 379 L 3060 388 L 2927 381 Q 2917 367 2925 364 L 2950 361 L 3083 349 Z M 1643 342 L 1689 350 L 1682 389 L 1614 388 Q 1559 384 1543 372 L 1510 375 Q 1509 358 1530 356 L 1537 358 L 1537 357 L 1577 349 L 1643 342 Z M 3803 376 L 3863 389 L 3832 390 L 3803 383 L 3803 376 Z M 4658 355 Q 4676 355 4676 375 Q 4676 398 4656 408 L 4601 413 L 4545 409 L 4493 413 Q 4454 412 4455 392 L 4520 385 Q 4565 380 4576 362 L 4649 356 Q 4654 355 4658 355 Z M 5671 390 L 5640 405 L 5576 421 Q 5632 416 5671 390 Z M 4181 439 L 4185 440 L 4195 440 L 4181 439 Z M 2157 402 L 2207 422 Q 2215 420 2240 420 Q 2257 420 2282 421 Q 2288 421 2294 421 Q 2333 421 2343 409 L 2643 422 L 2480 446 Q 2377 456 2319 480 L 2263 490 L 2205 489 L 2148 491 Q 2103 489 2111 469 Q 2115 457 2147 453 L 2189 448 Q 2186 429 2204 423 L 2204 423 Q 2187 424 2153 440 Q 2118 456 2099 456 Q 2069 457 2049 457 Q 2022 457 2010 455 Q 2027 433 2079 420 L 2157 402 Z M 4261 2 L 3976 15 L 3838 24 Q 3788 44 3784 63 Q 3779 87 3822 99 Q 3876 114 3884 123 L 3785 129 L 3725 119 L 3665 107 L 3582 105 Q 3529 103 3501 91 L 3486 80 L 3475 67 Q 3465 58 3432 51 L 3432 51 Q 3466 73 3473 92 L 3474 110 L 3457 116 L 3427 116 L 3398 111 L 3331 108 L 3287 96 L 3244 83 L 3157 71 L 2896 56 L 2754 58 L 2790 76 Q 2776 100 2726 100 L 2652 96 L 2587 98 Q 2545 97 2527 83 Q 2537 65 2589 60 L 2656 57 Q 2675 55 2697 55 Q 2712 55 2728 56 L 2717 54 L 2785 41 L 2854 35 L 2891 30 L 2717 24 L 2441 14 L 2266 33 L 2231 38 L 2278 68 L 2334 77 Q 2373 78 2387 88 L 2342 91 L 2296 89 Q 2268 92 2250 92 Q 2235 92 2225 90 Q 2213 87 2202 75 L 2182 57 L 2170 52 L 2170 52 Q 2174 72 2161 78 L 2130 81 L 1991 69 L 1948 60 Q 1917 49 1921 37 L 1921 37 L 1809 41 L 1544 57 L 1524 73 L 1498 99 L 1470 121 L 1443 122 L 1416 115 L 1356 105 Q 1317 97 1303 82 Q 1304 72 1317 69 L 1343 64 L 1464 61 L 1249 65 L 1087 71 L 1069 96 L 1010 101 Q 1012 91 1002 77 L 973 80 L 973 80 L 984 79 L 984 79 Q 986 97 972 110 L 943 109 L 950 83 L 927 87 Q 872 99 818 121 L 800 105 L 782 122 L 758 130 L 738 144 Q 737 163 757 180 L 764 185 L 757 149 L 838 211 Q 929 274 983 282 L 1213 301 L 1443 309 L 1530 309 Q 1488 366 1455 369 L 1452 372 L 1450 377 Q 1435 420 1510 436 L 1690 448 L 1930 492 L 2211 500 L 2477 476 L 2800 441 L 3223 416 L 3695 405 Q 3827 402 3927 402 Q 4077 402 4156 409 L 4496 450 Q 4610 463 4692 463 Q 4753 463 4796 456 L 5072 407 Q 5217 382 5285 382 Q 5294 382 5302 382 Q 5405 389 5484 389 Q 5634 389 5697 364 L 5697 364 L 5690 374 L 5699 363 L 5702 356 Q 5711 330 5663 312 L 5656 309 L 5626 298 L 5542 269 L 5629 251 L 5687 238 L 5736 223 L 5736 222 Q 5761 209 5774 189 Q 5792 163 5771 138 Q 5742 121 5678 104 L 5669 102 L 5667 102 L 5662 100 L 5658 99 L 5638 94 L 5616 122 Q 5607 127 5587 127 Q 5567 127 5536 122 Q 5538 98 5473 90 L 5385 74 L 5369 55 L 4985 33 L 4736 22 L 4700 20 L 4674 34 Q 4658 41 4659 57 Q 4686 69 4745 73 L 4832 88 L 4775 91 L 4717 89 L 4633 92 L 4549 96 L 4518 100 L 4488 103 Q 4462 103 4454 86 L 4435 50 L 4429 49 L 4429 49 Q 4433 51 4434 57 Q 4437 70 4421 81 L 4364 87 L 4304 81 L 4249 75 Q 4250 62 4270 57 L 4302 56 L 4409 49 Q 4412 48 4415 48 L 4415 48 L 4429 50 L 4429 50 Q 4426 48 4420 48 Q 4418 48 4415 48 L 4415 48 L 4336 38 Q 4256 33 4261 2 Z" fill="rgb(129,110,83)" fill-opacity="1.000"></path><path d="M 758 130 L 738 144 Q 738 145 738 146 L 738 146 L 758 130 Z M 1000 387 L 993 403 L 987 421 Q 970 468 939 508 Q 902 552 871 552 Q 866 535 871 507 Q 875 482 885 464 Q 896 441 914 421 Q 933 399 946 399 Q 951 399 955 402 L 1000 387 Z M 4315 563 Q 4315 563 4315 563 Q 4315 566 4314 568 L 4315 563 L 4315 563 Z M 4100 436 Q 4095 459 4099 487 Q 4104 524 4120 598 Q 4126 548 4139 492 L 4179 439 L 4168 439 L 4160 438 L 4109 436 Z M 3560 622 L 3570 627 L 3572 673 Q 3572 707 3556 707 Q 3553 689 3555 665 L 3560 622 Z M 3530 547 L 3528 585 Q 3524 603 3510 618 Q 3480 642 3471 657 Q 3461 673 3456 725 L 3455 827 Q 3464 843 3454 854 Q 3437 771 3435 692 Q 3434 652 3438 631 Q 3444 596 3465 577 L 3530 547 Z M 5900 533 Q 5899 533 5899 533 Q 5895 558 5910 598 L 5934 660 L 5984 807 L 6104 895 L 6095 880 L 6016 759 L 5978 673 L 5940 587 L 5924 554 Q 5912 533 5900 533 Z M 6104 895 Q 6126 927 6148 927 Q 6149 927 6149 927 L 6104 895 Z M 770 772 L 825 802 Q 837 787 845 787 Q 850 787 853 792 Q 863 804 859 828 Q 853 865 825 888 L 770 913 Q 732 927 719 943 L 702 972 Q 694 984 679 984 Q 676 984 672 983 Q 662 966 668 919 Q 673 877 684 854 L 702 834 L 723 818 L 770 772 Z M 1410 922 L 1475 957 Q 1475 1047 1444 1047 Q 1434 1047 1421 1038 Q 1405 1027 1406 985 L 1410 922 Z M 5917 312 Q 5917 339 5902 350 L 5866 362 Q 5853 366 5860 397 Q 5867 425 5885 463 L 5913 526 Q 5925 556 5955 580 Q 5972 594 6012 620 Q 6080 668 6104 739 Q 6134 826 6146 849 Q 6180 916 6229 922 L 6228 884 L 6228 884 Q 6276 991 6352 1086 L 6330 1023 Q 6324 1008 6312 950 Q 6303 906 6283 882 L 6235 817 L 6204 767 L 6170 718 Q 6120 656 6099 591 Q 6088 556 6056 521 L 6000 459 Q 5981 436 5962 398 L 5930 334 L 5917 312 Z M 4126 1106 Q 4132 1106 4139 1112 L 4144 1167 Q 4149 1218 4138 1227 Q 4134 1230 4129 1230 Q 4124 1230 4118 1227 Q 4107 1221 4103 1212 Q 4093 1193 4103 1143 Q 4111 1106 4126 1106 Z M 1439 394 L 1432 398 L 1406 413 Q 1396 421 1388 437 L 1347 530 Q 1298 614 1277 697 L 1256 768 Q 1242 808 1217 830 L 1173 868 Q 1151 888 1138 915 L 1123 948 L 1157 922 L 1193 891 L 1230 862 L 1345 887 Q 1343 921 1353 1006 Q 1356 1079 1315 1106 L 1235 1164 L 1199 1196 Q 1186 1206 1172 1206 Q 1164 1206 1156 1203 Q 1123 1191 1111 1162 Q 1105 1150 1105 1131 L 1105 1099 L 1100 1028 L 1100 1004 L 1090 1022 L 1090 1076 L 1089 1148 Q 1090 1192 1099 1217 Q 1103 1228 1122 1249 L 1125 1263 L 1131 1277 Q 1150 1307 1177 1319 L 1270 1311 Q 1301 1297 1314 1241 L 1330 1152 L 1380 1067 L 1368 1130 L 1354 1192 L 1346 1219 L 1353 1241 L 1359 1264 Q 1375 1292 1399 1294 Q 1405 1288 1420 1280 L 1444 1266 L 1471 1237 L 1488 1210 L 1501 1181 Q 1513 1153 1534 1124 L 1537 1104 L 1537 1021 Q 1537 988 1514 934 Q 1490 880 1490 848 L 1490 803 L 1498 760 Q 1510 724 1531 694 L 1547 674 L 1557 651 Q 1568 592 1556 517 Q 1549 476 1520 444 Q 1474 493 1461 528 Q 1451 553 1407 605 Q 1352 665 1329 699 L 1299 750 L 1311 706 L 1325 662 L 1351 568 L 1365 543 L 1379 518 L 1392 477 L 1404 437 Q 1409 426 1420 414 L 1439 394 Z M 3670 722 Q 3545 1067 3550 1335 L 3544 1301 L 3537 1266 Q 3531 1217 3535 1150 L 3545 1034 L 3553 927 Q 3558 866 3569 821 L 3576 792 L 3580 762 L 3670 722 Z M 738 146 L 706 172 L 695 182 L 701 177 L 652 222 Q 617 249 605 268 L 550 334 L 554 346 L 534 357 L 502 367 L 469 377 Q 443 392 445 412 L 467 411 L 489 412 L 503 417 L 505 432 Q 509 462 480 479 Q 445 500 440 517 L 437 550 L 426 581 L 411 605 L 390 622 Q 384 624 379 624 Q 361 624 361 601 Q 361 561 355 556 Q 341 562 332 578 L 319 608 L 302 642 L 286 676 Q 278 702 271 759 L 242 835 Q 222 883 224 913 Q 225 928 244 941 Q 265 955 269 968 Q 275 985 266 1016 L 260 1035 L 241 1036 Q 224 1032 216 1013 L 205 982 Q 197 968 178 968 Q 165 968 147 974 L 154 947 L 145 979 L 104 1130 L 77 1227 L 48 1275 L 25 1305 Q 10 1326 8 1338 Q 11 1324 24 1308 L 67 1303 L 110 1296 Q 132 1288 142 1259 L 155 1204 L 173 1120 Q 186 1068 207 1045 Q 212 1057 207 1119 Q 202 1173 221 1187 Q 234 1185 256 1153 L 284 1109 Q 304 1081 328 1020 Q 358 961 364 901 Q 368 868 382 823 L 405 748 Q 427 663 467 607 Q 519 532 570 502 L 607 478 Q 623 465 632 442 L 640 406 Q 647 377 668 347 Q 680 329 707 294 L 740 251 Q 755 228 757 203 L 757 180 Q 738 164 738 146 Z M 5493 876 L 5479 958 Q 5472 1004 5474 1041 L 5479 1179 Q 5479 1210 5461 1210 Q 5452 1210 5440 1203 L 5436 1200 L 5436 1200 Q 5446 1256 5455 1280 Q 5460 1295 5484 1320 Q 5506 1343 5510 1359 Q 5501 1277 5510 1236 Q 5543 1266 5554 1358 L 5537 1178 Q 5533 1139 5521 1095 L 5495 1015 Q 5485 983 5486 944 L 5493 876 Z M 2855 490 Q 2856 538 2870 623 Q 2886 720 2885 768 Q 2884 811 2873 870 L 2852 971 Q 2837 1055 2792 1219 Q 2786 1245 2784 1292 L 2779 1364 Q 2772 1331 2773 1281 L 2775 1198 Q 2775 1113 2781 1057 Q 2786 1015 2801 962 L 2828 868 L 2848 791 Q 2858 745 2855 712 L 2855 490 Z M 287 1304 L 278 1323 Q 272 1336 264 1370 Q 280 1343 287 1304 Z M 32 1348 L 17 1363 L 0 1385 L 32 1348 Z M 5554 1365 L 5555 1392 L 5556 1393 L 5554 1365 Z M 156 1403 L 129 1404 L 180 1403 Z M 5555 1405 L 5556 1414 L 5556 1406 L 5555 1405 Z M 695 1057 Q 681 1095 660 1127 Q 645 1153 640 1187 L 634 1250 L 617 1349 Q 599 1423 576 1423 Q 573 1423 570 1422 L 578 1392 L 584 1361 Q 595 1312 595 1226 L 594 1188 Q 593 1165 598 1151 Q 606 1130 622 1110 Q 642 1087 659 1087 Q 660 1087 660 1087 L 695 1057 Z M 6357 1437 L 6342 1441 L 6332 1445 L 6357 1437 Z M 249 1427 L 248 1441 L 248 1450 L 249 1427 Z M 2705 1257 Q 2705 1370 2679 1467 Q 2666 1463 2668 1429 L 2673 1385 L 2679 1331 Q 2685 1299 2700 1282 L 2705 1257 Z M 4949 1277 L 4994 1302 L 4993 1358 Q 4988 1388 4965 1403 L 4951 1408 Q 4941 1409 4936 1413 Q 4929 1419 4919 1443 L 4903 1492 Q 4891 1486 4891 1445 L 4894 1393 L 4893 1347 Q 4896 1328 4915 1308 L 4949 1277 Z M 884 1458 L 861 1498 L 853 1518 L 884 1458 Z M 5964 799 Q 5988 849 5989 888 Q 5989 919 5996 948 L 5996 950 L 5992 940 L 6065 1134 L 6043 1071 L 6074 1096 L 6108 1134 Q 6117 1148 6120 1169 L 6126 1150 Q 6166 1191 6217 1299 Q 6277 1426 6224 1432 L 6159 1277 L 6142 1239 L 6124 1195 L 6127 1222 Q 6139 1319 6149 1364 L 6160 1417 Q 6171 1457 6188 1462 L 6216 1455 L 6241 1438 Q 6247 1480 6299 1497 L 6391 1521 L 6390 1530 Q 6396 1517 6377 1498 L 6348 1471 L 6333 1447 L 6302 1409 Q 6273 1386 6264 1371 Q 6257 1360 6257 1343 L 6256 1314 L 6246 1282 L 6234 1249 Q 6213 1177 6187 1120 L 6129 1039 L 6082 984 Q 6054 946 6049 918 Q 6015 878 5991 838 L 5964 799 Z M 899 259 L 890 264 L 796 328 L 774 356 L 755 423 L 717 510 L 672 594 L 638 672 L 600 729 L 558 782 L 521 839 L 530 827 L 600 748 L 619 720 L 638 692 L 671 638 L 724 552 L 738 517 Q 745 492 750 482 L 780 425 Q 801 380 820 353 L 835 327 L 930 307 L 930 307 Q 877 353 855 444 L 846 484 L 829 521 Q 744 635 712 688 Q 702 704 687 744 L 660 798 Q 600 875 581 909 L 545 960 Q 522 991 514 1014 Q 507 1035 499 1075 Q 490 1110 465 1119 Q 451 1124 442 1124 Q 420 1124 423 1096 Q 436 1002 466 931 L 466 931 Q 432 993 395 1078 L 357 1146 Q 360 1154 379 1156 Q 397 1158 400 1167 Q 405 1181 379 1195 L 345 1217 Q 325 1250 361 1260 L 420 1271 Q 443 1282 446 1307 L 445 1357 Q 444 1401 426 1430 Q 406 1464 365 1468 L 315 1469 L 265 1467 L 247 1466 L 248 1460 L 235 1508 L 210 1548 Q 206 1558 212 1567 Q 289 1565 338 1541 L 342 1550 L 344 1562 Q 357 1564 370 1564 Q 404 1564 440 1549 Q 493 1527 508 1484 Q 523 1444 523 1397 L 529 1357 L 537 1317 L 549 1248 Q 558 1212 575 1182 L 601 1124 L 623 1088 L 644 1051 L 644 1051 Q 643 1069 626 1092 Q 605 1120 601 1130 Q 593 1151 591 1182 L 590 1234 L 569 1383 Q 554 1476 564 1534 L 580 1536 L 631 1530 Q 657 1518 671 1488 L 689 1431 Q 713 1367 752 1308 Q 775 1276 777 1242 Q 778 1219 770 1209 L 743 1184 Q 720 1165 725 1149 L 754 1117 L 785 1080 L 809 1038 L 826 1008 L 839 972 Q 847 952 874 910 L 909 847 L 912 807 Q 914 785 922 770 L 922 776 L 936 734 Q 971 627 995 582 L 1050 517 L 1055 619 Q 1057 680 1041 720 Q 1021 768 974 837 Q 962 855 949 855 Q 940 855 930 846 L 923 838 L 922 847 Q 920 898 924 923 Q 925 923 926 923 Q 969 923 1040 812 L 1071 744 L 1096 676 L 1117 637 L 1130 595 L 1129 556 Q 1126 529 1129 516 Q 1133 497 1152 479 L 1185 447 Q 1224 407 1192 347 L 1165 308 L 1090 302 Q 971 302 917 269 L 899 259 Z M 4844 1472 L 4849 1547 Q 4849 1567 4832 1573 Q 4827 1574 4823 1574 Q 4812 1574 4802 1566 Q 4792 1557 4791 1530 Q 4790 1503 4799 1491 Q 4806 1482 4820 1478 L 4844 1472 Z M 6225 1608 L 6202 1613 L 6147 1621 L 6185 1617 L 6225 1608 Z M 6147 1621 L 6052 1623 L 6080 1623 L 6147 1621 Z M 2418 1361 L 2453 1511 Q 2477 1633 2451 1633 Q 2451 1633 2450 1633 L 2450 1633 Q 2448 1642 2459 1647 L 2400 1622 L 2401 1496 L 2402 1427 Q 2405 1377 2418 1361 Z M 1300 1472 L 1345 1507 L 1265 1603 Q 1222 1648 1200 1648 Q 1185 1648 1180 1628 Q 1173 1606 1189 1583 L 1215 1543 Q 1245 1473 1300 1472 Z M 4219 1507 L 4279 1557 L 4280 1609 Q 4277 1642 4258 1653 L 4168 1658 Q 4145 1654 4148 1627 L 4159 1581 L 4163 1560 L 4175 1542 Q 4181 1536 4197 1525 L 4219 1507 Z M 4357 1102 Q 4350 1115 4353 1140 L 4358 1179 L 4369 1277 Q 4374 1316 4368 1323 Q 4364 1329 4356 1329 Q 4353 1329 4349 1328 L 4349 1328 L 4358 1411 L 4370 1493 L 4378 1521 L 4386 1537 Q 4413 1606 4427 1678 Q 4434 1683 4440 1683 Q 4449 1683 4456 1672 Q 4470 1653 4461 1629 L 4448 1609 L 4434 1589 Q 4429 1579 4429 1564 L 4429 1537 L 4414 1364 Q 4399 1245 4397 1190 L 4396 1154 L 4357 1102 Z M 2755 1612 L 2754 1665 Q 2750 1691 2735 1691 Q 2729 1691 2720 1686 Q 2707 1679 2709 1662 L 2715 1632 L 2755 1612 Z M 5699 363 L 5690 374 L 5682 381 L 5671 390 Q 5632 416 5576 421 L 5554 422 L 5553 441 Q 5551 472 5557 486 Q 5567 510 5616 532 Q 5669 556 5681 574 L 5688 591 L 5689 609 L 5704 789 L 5704 702 L 5703 678 L 5705 653 Q 5730 668 5754 708 L 5785 776 L 5802 841 L 5814 908 L 5833 978 Q 5845 1019 5843 1047 L 5821 1047 L 5808 1032 L 5767 961 L 5751 941 Q 5742 928 5744 917 L 5707 820 L 5707 820 Q 5711 888 5727 926 Q 5742 960 5764 989 Q 5836 1086 5836 1238 Q 5834 1389 5842 1446 L 5843 1452 L 5844 1293 L 5840 1240 L 5839 1187 L 5914 1232 Q 5913 1270 5921 1330 L 5933 1427 L 5940 1502 L 5949 1562 Q 5942 1576 5926 1576 Q 5917 1576 5906 1572 Q 5877 1561 5856 1539 L 5856 1539 L 5863 1600 L 5863 1645 Q 5864 1668 5879 1685 Q 5888 1697 5928 1721 L 5881 1712 L 5843 1709 L 5926 1721 L 6020 1726 L 6033 1726 L 6044 1719 Q 6050 1713 6047 1688 L 6042 1659 L 6035 1646 L 6024 1637 L 6024 1629 L 6004 1602 Q 5994 1581 5995 1544 L 5996 1483 L 5991 1385 Q 5989 1324 5980 1286 Q 5967 1225 5928 1122 L 5910 1059 L 5894 996 Q 5861 890 5855 801 L 5854 712 Q 5854 658 5847 623 L 5842 605 L 5839 599 L 5812 544 L 5796 521 L 5749 441 L 5699 363 Z M 963 1363 L 940 1368 L 922 1400 L 940 1382 L 1010 1392 Q 1018 1395 1040 1409 L 1071 1422 L 1110 1423 Q 1132 1425 1139 1444 Q 1146 1460 1136 1482 L 1113 1513 Q 1092 1529 1074 1529 Q 1069 1529 1064 1528 L 1051 1521 L 1049 1503 Q 1043 1501 1038 1501 Q 1015 1501 1000 1533 Q 975 1582 965 1587 L 937 1591 L 907 1591 Q 884 1594 859 1594 Q 838 1594 816 1592 L 812 1597 L 756 1639 L 754 1641 L 731 1643 L 761 1641 L 764 1676 Q 954 1724 1126 1743 L 1064 1735 L 837 1693 L 930 1696 L 1050 1684 Q 1099 1672 1149 1636 L 1155 1627 L 1154 1633 L 1164 1626 L 1153 1668 Q 1156 1696 1164 1712 L 1174 1727 L 1190 1735 Q 1201 1739 1211 1739 Q 1239 1739 1255 1708 L 1275 1664 Q 1287 1637 1303 1622 Q 1309 1616 1340 1596 L 1370 1563 Q 1380 1542 1376 1511 Q 1371 1481 1357 1461 Q 1313 1402 1158 1402 L 1094 1405 Q 1057 1405 1037 1389 L 1003 1367 L 963 1363 Z M 1278 1743 L 1263 1745 L 1283 1743 Z M 5122 1750 L 5183 1752 L 5198 1752 L 5122 1750 Z M 4874 519 L 4796 525 Q 4788 576 4764 609 L 4757 619 L 4764 612 L 4804 547 L 4884 532 L 4911 552 Q 4927 564 4935 578 Q 4943 592 4947 624 Q 4956 675 4953 706 Q 4950 735 4934 755 L 4894 793 Q 4853 830 4858 868 Q 4861 891 4886 937 Q 4909 980 4909 1008 L 4911 1042 L 4908 1076 Q 4901 1099 4863 1145 Q 4837 1180 4797 1184 Q 4794 1184 4791 1184 Q 4755 1184 4754 1139 Q 4753 1112 4757 1099 Q 4762 1082 4779 1067 L 4804 1045 Q 4813 1033 4805 1012 Q 4796 986 4764 973 L 4704 957 L 4690 953 L 4694 1043 Q 4697 1097 4708 1130 Q 4713 1146 4752 1213 Q 4779 1258 4774 1301 Q 4767 1367 4774 1468 L 4780 1571 Q 4785 1627 4804 1669 L 4816 1700 L 4831 1730 L 4847 1751 L 4934 1756 L 4955 1756 L 4950 1737 L 4904 1534 L 4904 1534 Q 4915 1564 4961 1635 Q 5005 1704 5014 1704 Q 5014 1704 5015 1704 Q 5020 1685 5045 1658 Q 5070 1632 5074 1611 Q 5078 1595 5072 1568 L 5062 1526 L 5050 1463 Q 5043 1427 5042 1399 L 5031 1326 Q 5021 1279 5022 1252 L 5022 1252 L 5040 1307 L 5061 1362 L 5075 1387 L 5082 1412 Q 5077 1244 5042 1141 L 5016 1066 Q 5002 1024 5002 988 L 5004 822 Q 5003 727 4994 657 L 4987 602 L 4976 549 L 4968 526 L 4947 522 L 4874 519 Z M 2909 451 L 2903 452 L 2848 456 L 2843 456 L 2596 489 Q 2574 529 2564 565 L 2557 594 Q 2547 571 2543 539 L 2541 497 L 2538 497 L 2528 499 L 2510 502 L 2482 549 Q 2448 599 2441 629 Q 2429 683 2438 757 Q 2441 781 2454 812 L 2475 864 Q 2497 939 2497 1057 L 2497 1143 L 2501 1168 L 2514 1167 L 2516 1050 L 2515 932 L 2515 751 L 2519 769 L 2532 795 L 2567 882 Q 2583 930 2585 974 Q 2593 1090 2580 1168 L 2560 1310 Q 2547 1393 2529 1448 Q 2518 1439 2512 1410 L 2505 1368 L 2474 1213 Q 2467 1181 2486 1172 L 2475 1137 L 2460 1130 L 2459 1133 Q 2452 1144 2444 1144 Q 2439 1144 2433 1139 Q 2428 1135 2436 1103 Q 2445 1063 2445 970 L 2443 963 L 2435 941 Q 2431 936 2417 929 L 2397 925 Q 2383 924 2377 916 L 2365 857 Q 2359 825 2344 825 Q 2338 825 2331 830 Q 2312 844 2324 894 L 2345 958 Q 2355 992 2355 1033 L 2350 1109 Q 2345 1169 2355 1239 L 2377 1368 Q 2384 1406 2382 1478 Q 2379 1555 2383 1588 Q 2387 1620 2399 1633 L 2562 1684 L 2637 1704 Q 2707 1724 2721 1736 L 2711 1750 L 2708 1750 Q 2750 1754 2798 1772 L 2799 1770 Q 2805 1751 2807 1708 Q 2809 1666 2817 1645 Q 2831 1660 2833 1699 Q 2835 1741 2845 1756 L 2867 1745 L 2883 1730 L 2887 1694 L 2888 1656 L 2888 1602 L 2883 1551 L 2883 1417 L 2877 1315 Q 2876 1246 2895 1222 L 2907 1321 L 2917 1414 Q 2916 1393 2922 1364 L 2930 1309 L 2930 1214 L 2919 1112 Q 2910 1046 2910 1009 Q 2910 981 2919 947 L 2937 886 Q 2945 853 2945 804 L 2943 721 Q 2944 685 2926 630 Q 2906 569 2903 542 Q 2900 521 2905 482 L 2909 451 Z M 2219 1764 L 2177 1778 L 2192 1774 L 2219 1764 Z M 4532 1782 L 4526 1783 L 4538 1782 Z M 5389 1792 L 5389 1792 L 5391 1792 L 5389 1792 Z M 5391 1792 L 5396 1793 L 5416 1795 L 5391 1792 Z M 5202 408 L 5201 434 L 5196 461 L 5219 422 L 5234 432 L 5281 480 Q 5305 506 5313 538 Q 5325 587 5320 653 Q 5317 680 5303 709 L 5274 759 Q 5264 777 5258 824 L 5248 905 Q 5239 955 5220 978 Q 5179 871 5163 805 L 5163 805 Q 5173 864 5200 967 L 5240 1129 Q 5285 1358 5261 1508 Q 5244 1610 5249 1729 L 5251 1750 L 5254 1749 Q 5268 1770 5288 1776 L 5389 1792 L 5387 1710 Q 5387 1663 5396 1630 Q 5397 1678 5409 1738 Q 5414 1644 5378 1573 Q 5357 1544 5350 1527 Q 5337 1497 5339 1442 Q 5339 1407 5352 1383 L 5369 1421 Q 5388 1474 5438 1551 L 5468 1591 Q 5482 1612 5484 1636 L 5489 1675 L 5489 1714 L 5474 1743 Q 5462 1760 5459 1772 L 5410 1743 L 5423 1795 L 5478 1792 L 5489 1743 L 5497 1713 L 5502 1682 L 5504 1621 L 5502 1560 L 5488 1511 L 5469 1461 L 5416 1299 Q 5382 1199 5373 1135 Q 5369 1106 5368 1066 L 5369 996 L 5363 800 L 5363 800 Q 5367 844 5389 930 L 5408 1023 L 5404 916 L 5403 869 Q 5402 840 5404 822 L 5416 786 Q 5422 768 5418 757 L 5418 757 L 5494 872 L 5496 802 L 5482 755 L 5461 711 Q 5446 681 5443 637 Q 5434 508 5360 447 Q 5332 424 5300 414 L 5222 409 L 5202 408 Z M 2907 1795 L 2950 1797 L 3098 1797 L 2973 1796 L 2907 1795 Z M 4185 440 Q 4201 587 4178 770 Q 4161 882 4139 882 Q 4127 882 4127 856 L 4129 821 L 4125 746 L 4119 671 L 4119 655 L 4110 682 Q 4093 680 4070 644 Q 4055 620 4038 620 Q 4033 620 4029 622 Q 3988 639 4001 738 Q 4005 770 3999 798 L 3980 855 Q 3966 892 3961 941 L 3967 919 Q 3997 836 4014 755 Q 4026 700 4049 652 L 4074 662 L 4074 734 L 4074 807 L 4063 926 Q 4054 994 4039 1044 L 4019 1100 L 4000 1156 Q 3988 1201 3988 1283 L 3993 1352 Q 3997 1396 3993 1421 L 3986 1415 L 3995 1449 Q 4011 1499 4069 1577 Q 4131 1659 4148 1704 Q 4162 1742 4191 1784 L 4202 1785 L 4319 1799 Q 4333 1783 4339 1764 L 4348 1719 Q 4352 1680 4349 1623 L 4342 1527 L 4337 1323 L 4325 1318 Q 4323 1318 4321 1318 Q 4303 1318 4303 1340 L 4304 1383 L 4295 1405 L 4290 1420 L 4282 1417 L 4249 1422 L 4252 1390 L 4244 1387 L 4214 1342 L 4209 1314 Q 4198 1252 4204 1180 Q 4214 1051 4276 910 L 4298 863 Q 4299 851 4319 824 L 4337 796 Q 4349 780 4361 774 L 4395 766 Q 4408 765 4418 765 Q 4428 765 4436 767 L 4449 719 L 4447 771 L 4450 773 L 4446 780 Q 4444 863 4449 1004 L 4454 1228 L 4431 1186 L 4428 1203 L 4419 1195 L 4413 1181 L 4412 1179 L 4417 1311 Q 4421 1402 4458 1482 Q 4478 1528 4481 1553 L 4468 1326 L 4455 1099 L 4452 1043 L 4454 986 Q 4460 946 4508 893 Q 4563 832 4574 806 Q 4594 760 4596 686 Q 4597 617 4583 564 Q 4571 517 4512 459 L 4499 458 L 4485 457 L 4485 458 Q 4458 556 4418 645 L 4400 682 L 4381 723 L 4390 636 L 4390 551 L 4386 451 L 4358 450 L 4328 448 L 4325 468 L 4315 564 L 4315 564 Q 4318 535 4309 495 L 4295 446 L 4278 445 L 4263 444 L 4195 441 Z M 4343 1799 L 4334 1800 L 4367 1799 Z M 3632 434 L 3397 437 L 3352 437 L 3337 505 Q 3331 538 3302 613 Q 3275 681 3271 721 L 3269 767 L 3270 812 Q 3270 890 3292 988 Q 3300 1024 3302 1078 L 3303 1169 Q 3304 1195 3312 1243 L 3322 1100 L 3315 778 L 3316 778 L 3320 731 L 3326 773 Q 3331 771 3335 771 Q 3348 771 3361 786 L 3386 824 Q 3440 900 3464 960 Q 3478 997 3475 1033 L 3462 1069 L 3437 1101 L 3417 1125 L 3420 1164 L 3417 1227 L 3419 1228 L 3436 1253 L 3448 1261 L 3459 1270 L 3462 1299 Q 3461 1320 3466 1330 L 3484 1353 L 3489 1365 L 3491 1378 Q 3497 1406 3489 1444 Q 3480 1490 3436 1548 Q 3420 1568 3397 1576 Q 3389 1579 3383 1579 Q 3365 1579 3359 1554 L 3357 1526 L 3355 1497 L 3339 1406 L 3344 1439 L 3310 1298 L 3311 1279 L 3310 1290 L 3298 1241 L 3274 1138 L 3274 1144 Q 3255 1131 3255 1074 Q 3232 993 3230 907 L 3222 987 L 3210 1066 L 3275 1148 L 3264 1348 L 3238 1346 L 3248 1463 Q 3252 1535 3268 1576 Q 3282 1612 3332 1643 L 3416 1689 L 3446 1707 Q 3459 1718 3457 1734 L 3503 1758 Q 3524 1775 3531 1800 L 3533 1810 Q 3554 1800 3551 1778 L 3551 1778 Q 3552 1778 3553 1778 Q 3584 1778 3605 1740 Q 3622 1708 3625 1671 Q 3630 1691 3637 1700 L 3657 1684 L 3650 1684 L 3657 1683 L 3684 1640 L 3697 1595 L 3695 1567 Q 3693 1548 3696 1539 Q 3699 1527 3713 1508 L 3730 1476 Q 3735 1451 3730 1402 L 3718 1313 Q 3710 1260 3710 1224 L 3705 911 L 3711 970 L 3715 883 L 3770 868 Q 3796 972 3789 1071 Q 3786 1137 3778 1155 Q 3767 1178 3753 1178 Q 3749 1178 3744 1176 L 3744 1176 L 3748 1206 L 3761 1325 Q 3768 1394 3777 1443 L 3789 1498 L 3801 1555 L 3803 1558 Q 3801 1428 3805 1363 L 3806 1273 Q 3806 1215 3809 1182 L 3818 1149 L 3829 1116 Q 3835 1083 3830 1030 L 3823 943 L 3824 886 L 3822 828 Q 3813 763 3774 685 L 3698 554 L 3632 435 Z M 3551 1829 L 3584 1831 L 3613 1831 L 3551 1829 Z" fill="rgb(108,92,69)" fill-opacity="1.000"></path><path d="M 5151 69 Q 5141 69 5135 76 Q 5143 85 5169 85 Q 5195 85 5202 76 L 5156 69 Q 5153 69 5151 69 Z M 2110 33 L 2170 49 L 2170 52 L 2182 57 L 2202 75 Q 2213 87 2225 90 Q 2234 92 2250 92 Q 2269 92 2296 89 L 2342 91 L 2387 88 Q 2373 78 2334 77 L 2278 68 L 2231 38 L 2230 37 L 2178 37 L 2110 33 Z M 4198 87 L 4177 97 L 4202 91 L 4198 87 Z M 1087 70 L 1002 77 Q 1012 91 1010 101 L 1069 96 L 1087 71 L 1087 70 Z M 4261 1 L 4261 2 Q 4256 33 4336 38 L 4435 50 L 4454 86 Q 4462 103 4488 103 L 4518 100 L 4549 96 L 4633 92 L 4717 89 L 4775 91 L 4832 88 L 4745 73 Q 4686 69 4659 57 Q 4658 41 4674 34 L 4700 20 L 4301 1 Z M 1544 56 L 1539 57 L 1538 57 L 1464 61 L 1343 64 L 1317 69 Q 1304 72 1303 82 Q 1317 97 1356 105 L 1416 115 L 1443 122 L 1470 121 L 1498 99 L 1524 73 L 1544 57 L 1544 56 Z M 5369 55 L 5385 74 L 5473 90 Q 5538 98 5536 122 Q 5567 127 5587 127 Q 5607 127 5616 122 L 5638 94 L 5631 93 L 5624 91 L 5615 89 L 5605 87 L 5592 85 L 5391 57 L 5369 55 Z M 3838 24 L 3586 33 L 3522 32 L 3429 31 L 3395 30 L 3432 51 Q 3465 58 3475 67 L 3486 80 L 3501 91 Q 3529 103 3582 105 L 3665 107 L 3725 119 L 3785 129 L 3884 123 Q 3876 114 3822 99 Q 3779 87 3784 63 Q 3788 44 3838 24 Z M 3106 99 L 3028 104 Q 3047 113 3086 114 L 3145 121 Q 3161 126 3171 134 Q 3212 150 3255 150 Q 3269 150 3283 148 Q 3290 129 3268 120 L 3230 116 L 3183 102 L 3106 99 Z M 4996 122 L 4951 128 Q 4920 129 4923 148 L 5003 158 Q 5047 157 5082 142 L 4996 122 Z M 3092 149 Q 3077 151 3075 163 Q 3082 171 3100 171 L 3130 169 L 3117 149 Z M 1162 156 Q 1160 156 1157 156 L 1157 176 L 1197 175 Q 1188 156 1162 156 Z M 2670 154 L 2589 157 Q 2596 176 2668 178 L 2763 176 L 2750 156 L 2670 154 Z M 5188 153 Q 5152 153 5149 162 Q 5144 184 5171 188 L 5213 189 L 5248 192 L 5281 190 L 5295 175 Q 5299 165 5282 162 L 5249 156 L 5195 153 Q 5191 153 5188 153 Z M 1683 209 Q 1681 223 1663 223 L 1663 229 L 1646 230 L 1725 239 Q 1781 237 1783 224 L 1743 216 L 1683 209 Z M 4142 149 Q 4068 152 4051 169 Q 4046 175 4044 184 L 4031 198 Q 4014 209 3968 212 L 3902 216 L 3855 221 Q 3823 225 3811 234 L 3920 243 L 4030 243 L 4154 236 L 4244 233 L 4334 227 L 4437 215 L 4309 207 Q 4305 207 4301 207 Q 4224 207 4196 169 L 4142 149 Z M 3007 221 Q 3002 221 2997 222 L 2957 236 L 2934 235 Q 2922 236 2923 248 L 2990 254 Q 3041 253 3038 229 Q 3023 221 3007 221 Z M 4856 236 L 4776 242 Q 4773 241 4769 241 Q 4760 241 4754 248 L 4811 254 Q 4851 253 4856 236 Z M 1191 216 L 1232 223 Q 1261 227 1268 236 Q 1273 242 1270 256 Q 1268 270 1271 276 Q 1278 288 1300 290 L 1334 289 L 1369 294 L 1403 295 Q 1395 268 1333 243 Q 1281 222 1248 222 Q 1245 222 1243 222 L 1250 216 Z M 4549 269 L 4499 274 Q 4466 280 4454 295 L 4524 297 L 4596 296 L 4549 269 Z M 3170 242 Q 3178 276 3123 295 L 3043 317 Q 3049 328 3064 329 L 3241 329 L 3341 322 L 3366 323 Q 3385 323 3389 315 Q 3401 291 3348 286 L 3279 283 L 3243 270 L 3203 262 L 3170 242 Z M 5069 236 Q 5063 243 5048 247 Q 5032 250 5028 255 Q 5023 262 5024 273 L 5022 290 Q 5018 296 4998 302 L 4971 309 L 4935 323 Q 4915 333 4905 345 L 4940 350 L 4976 349 L 5106 348 L 5238 334 L 5267 313 L 5231 305 L 5201 303 L 5171 298 Q 5154 294 5144 285 L 5134 266 Q 5130 257 5116 256 L 5069 236 Z M 4187 356 L 4226 359 L 4216 356 Z M 2374 255 L 2337 256 L 2323 256 Q 2317 267 2302 269 L 2309 270 L 2306 288 Q 2362 298 2342 330 Q 2336 339 2315 341 L 2283 342 L 2131 364 L 2255 375 L 2383 369 L 2500 361 L 2615 348 Q 2598 334 2554 334 Q 2544 334 2532 335 Q 2523 336 2515 336 Q 2469 336 2451 316 L 2432 289 Q 2422 271 2410 264 Q 2395 256 2374 255 Z M 4241 364 L 4213 365 L 4185 366 Q 4197 377 4232 378 L 4282 376 L 4241 364 Z M 1643 342 L 1577 349 L 1537 357 L 1537 358 L 1557 362 L 1543 372 Q 1559 384 1614 388 L 1682 389 L 1689 350 L 1643 342 Z M 3803 376 L 3803 383 L 3832 390 L 3863 389 L 3803 376 Z M 4658 355 Q 4654 355 4649 356 L 4576 362 Q 4565 380 4520 385 L 4455 392 Q 4454 412 4493 413 L 4545 409 L 4601 413 L 4656 408 Q 4676 398 4676 375 Q 4676 355 4658 355 Z M 2343 409 Q 2333 421 2294 421 Q 2288 421 2282 421 Q 2257 420 2240 420 Q 2215 420 2207 422 L 2210 422 L 2204 423 Q 2186 429 2189 448 L 2147 453 Q 2115 457 2111 469 Q 2103 489 2148 491 L 2205 489 L 2263 490 L 2319 480 Q 2377 456 2480 446 L 2643 422 L 2343 409 Z" fill="rgb(123,105,79)" fill-opacity="1.000"></path><path d="M 1000 387 L 955 402 Q 951 399 946 399 Q 932 399 914 421 Q 896 441 885 464 Q 875 482 871 507 Q 866 535 871 552 Q 902 552 939 508 Q 970 468 987 421 L 993 403 L 1000 387 Z M 4295 445 L 4309 494 Q 4317 533 4315 563 L 4315 563 L 4325 467 L 4328 447 L 4312 446 L 4295 445 Z M 4315 563 L 4315 563 L 4314 568 Q 4314 565 4315 563 Q 4315 563 4315 563 Z M 2596 489 L 2541 497 L 2543 539 Q 2547 571 2557 594 L 2564 565 Q 2574 529 2596 489 Z M 3560 622 L 3555 665 Q 3553 689 3556 707 Q 3572 707 3572 673 L 3570 627 L 3560 622 Z M 4386 450 L 4390 550 L 4390 635 L 4381 722 L 4400 681 L 4418 644 Q 4458 555 4485 457 L 4485 456 L 4386 450 Z M 1450 377 L 1439 394 L 1420 414 Q 1409 426 1404 437 L 1392 477 L 1379 518 L 1365 543 L 1351 568 L 1325 662 L 1311 706 L 1299 750 L 1329 699 Q 1352 665 1407 605 Q 1451 553 1461 528 Q 1474 493 1520 444 L 1525 439 L 1510 436 Q 1435 420 1450 377 Z M 3530 547 L 3465 577 Q 3444 596 3438 631 Q 3434 652 3435 692 Q 3437 771 3454 854 Q 3464 843 3455 827 L 3456 725 Q 3461 673 3471 657 Q 3480 642 3510 618 Q 3524 603 3528 585 L 3530 547 Z M 1050 517 L 995 582 Q 971 627 936 734 L 922 776 Q 916 799 917 820 L 923 838 L 930 846 Q 940 855 949 855 Q 962 855 974 837 Q 1021 768 1041 720 Q 1057 680 1055 619 L 1050 517 Z M 4179 439 L 4139 492 Q 4126 548 4120 598 L 4119 655 L 4119 671 L 4125 746 L 4129 821 L 4127 856 Q 4127 882 4139 882 Q 4161 882 4178 770 Q 4201 587 4185 440 L 4181 439 Z M 5219 422 L 5196 461 Q 5161 526 5155 567 L 5149 623 Q 5142 673 5144 692 Q 5148 744 5163 805 Q 5179 871 5220 978 Q 5239 955 5248 905 L 5258 824 Q 5264 777 5274 759 L 5303 709 Q 5317 680 5320 653 Q 5325 587 5313 538 Q 5305 506 5281 480 L 5234 432 L 5219 422 Z M 2060 567 L 2000 582 Q 2000 599 1977 623 L 1943 656 Q 1893 706 1873 734 L 1866 744 Q 1851 766 1844 792 Q 1839 817 1845 858 L 1855 923 L 1854 948 L 1854 974 L 1858 983 Q 1881 908 1944 759 Q 1968 707 2005 702 L 2028 703 Q 2039 703 2046 694 Q 2061 677 2055 632 Q 2050 584 2060 567 Z M 770 772 L 723 818 L 702 834 L 684 854 Q 673 877 668 919 Q 662 966 672 983 Q 676 984 679 984 Q 694 984 702 972 L 719 943 Q 732 927 770 913 L 825 888 Q 853 865 859 828 Q 863 804 853 792 Q 849 787 845 787 Q 837 787 825 802 L 770 772 Z M 701 177 L 695 182 L 655 214 Q 619 237 561 282 L 467 351 Q 374 414 307 551 Q 269 630 206 791 Q 183 841 161 920 L 154 947 L 147 974 Q 165 968 178 968 Q 197 968 205 982 L 216 1013 Q 224 1032 241 1036 L 260 1035 L 266 1016 Q 275 985 269 968 Q 265 955 244 941 Q 225 928 224 913 Q 222 883 242 835 L 271 759 Q 278 702 286 676 L 302 642 L 319 608 L 332 578 Q 341 562 355 556 Q 361 561 361 601 Q 361 624 379 624 Q 384 624 390 622 L 411 605 L 426 581 L 437 550 L 440 517 Q 445 500 480 479 Q 509 462 505 432 L 503 417 L 489 412 L 467 411 L 445 412 Q 443 392 469 377 L 502 367 L 534 357 L 554 346 L 550 334 L 605 268 Q 617 249 652 222 L 701 177 Z M 5705 653 L 5703 678 L 5704 702 L 5704 789 L 5704 812 L 5707 820 L 5744 917 Q 5742 928 5751 941 L 5767 961 L 5808 1032 L 5821 1047 L 5843 1047 Q 5845 1019 5833 978 L 5814 908 L 5802 841 L 5785 776 L 5754 708 Q 5730 668 5705 653 Z M 1410 922 L 1406 985 Q 1405 1027 1421 1038 Q 1434 1047 1444 1047 Q 1475 1047 1475 957 L 1410 922 Z M 930 307 L 835 327 L 820 353 Q 801 380 780 425 L 750 482 Q 745 492 738 517 L 724 552 L 671 638 L 638 692 L 619 720 L 600 748 L 530 827 L 521 839 L 484 894 L 476 912 L 466 931 Q 436 1002 423 1096 Q 419 1124 442 1124 Q 451 1124 465 1119 Q 490 1110 499 1075 Q 507 1035 514 1014 Q 522 991 545 960 L 581 909 Q 600 875 660 798 L 687 744 Q 702 704 712 688 Q 744 635 829 521 L 846 484 L 855 444 Q 877 353 930 307 Z M 3770 867 L 3715 882 L 3711 969 L 3711 1016 L 3714 1094 Q 3717 1144 3733 1165 L 3744 1174 Q 3749 1177 3753 1177 Q 3767 1177 3778 1155 Q 3786 1137 3789 1071 Q 3796 972 3770 868 Z M 4884 533 L 4804 548 L 4764 613 L 4757 620 L 4708 664 Q 4682 690 4674 740 L 4672 789 L 4674 838 L 4672 886 Q 4670 917 4674 933 Q 4679 950 4690 954 L 4704 958 L 4764 974 Q 4796 987 4805 1013 Q 4813 1034 4804 1046 L 4779 1068 Q 4762 1083 4757 1100 Q 4753 1113 4754 1140 Q 4755 1185 4791 1185 Q 4794 1185 4797 1185 Q 4837 1181 4863 1146 Q 4901 1100 4908 1077 L 4911 1043 L 4909 1009 Q 4909 981 4886 938 Q 4861 892 4858 869 Q 4853 831 4894 794 L 4934 756 Q 4950 736 4953 707 Q 4956 676 4947 625 Q 4943 593 4935 579 Q 4927 565 4911 553 L 4884 533 Z M 1230 863 L 1193 892 L 1157 923 L 1123 949 Q 1110 962 1104 974 L 1100 1005 L 1100 1029 L 1105 1100 L 1105 1132 Q 1105 1151 1111 1163 Q 1123 1192 1156 1204 Q 1164 1207 1172 1207 Q 1186 1207 1199 1197 L 1235 1165 L 1315 1107 Q 1356 1080 1353 1007 Q 1343 922 1345 888 L 1230 863 Z M 5418 758 Q 5422 769 5416 787 L 5404 823 Q 5402 841 5403 870 L 5404 917 L 5408 1024 L 5409 1034 L 5417 1095 L 5424 1156 L 5424 1182 Q 5426 1194 5436 1201 L 5440 1204 Q 5453 1211 5461 1211 Q 5479 1211 5479 1180 L 5474 1042 Q 5472 1005 5479 959 L 5493 877 L 5494 873 L 5418 758 Z M 4126 1107 Q 4111 1107 4103 1144 Q 4093 1194 4103 1213 Q 4107 1222 4118 1228 Q 4124 1231 4129 1231 Q 4134 1231 4138 1228 Q 4149 1219 4144 1168 L 4139 1113 Q 4132 1107 4126 1107 Z M 3670 723 L 3580 763 L 3576 793 L 3569 822 Q 3558 867 3553 928 L 3545 1035 L 3535 1151 Q 3531 1218 3537 1267 L 3544 1302 L 3550 1336 Q 3545 1068 3670 723 Z M 3200 1053 L 3198 1202 Q 3203 1326 3238 1346 L 3264 1348 L 3275 1148 L 3210 1066 L 3200 1053 Z M 2855 491 L 2855 713 Q 2858 746 2848 792 L 2828 869 L 2801 963 Q 2786 1016 2781 1058 Q 2775 1114 2775 1199 L 2773 1282 Q 2772 1332 2779 1365 L 2784 1293 Q 2786 1246 2792 1220 Q 2837 1056 2852 972 L 2873 871 Q 2884 812 2885 769 Q 2886 721 2870 624 Q 2856 539 2855 491 Z M 4049 653 Q 4026 701 4014 756 Q 3997 837 3967 920 L 3961 942 L 3931 1069 L 3927 1090 L 3926 1094 L 3924 1220 L 3926 1240 L 3926 1241 L 3927 1245 L 3929 1258 Q 3942 1322 3965 1377 L 3974 1397 L 3986 1416 L 3993 1422 Q 3997 1397 3993 1353 L 3988 1284 Q 3988 1202 4000 1157 L 4019 1101 L 4039 1045 Q 4054 995 4063 927 L 4074 808 L 4074 735 L 4074 663 L 4049 653 Z M 4449 719 L 4436 767 Q 4428 766 4418 766 Q 4408 766 4395 768 L 4361 776 Q 4349 782 4337 798 L 4319 826 Q 4299 853 4298 865 L 4276 912 Q 4214 1053 4204 1182 Q 4198 1254 4209 1316 L 4214 1344 L 4244 1389 L 4252 1392 L 4249 1424 L 4282 1419 L 4290 1422 L 4295 1407 L 4304 1385 L 4303 1342 Q 4303 1320 4321 1320 Q 4323 1320 4325 1320 L 4337 1325 L 4349 1330 Q 4353 1331 4356 1331 Q 4364 1331 4368 1325 Q 4374 1318 4369 1279 L 4358 1181 L 4353 1142 Q 4350 1117 4357 1104 L 4396 1156 L 4412 1180 L 4413 1182 L 4419 1196 L 4428 1204 L 4431 1187 L 4454 1229 L 4449 1005 Q 4444 864 4446 781 L 4450 774 L 4447 772 L 4449 720 Z M 695 1059 L 660 1089 Q 659 1089 659 1089 Q 643 1089 622 1112 Q 606 1132 598 1153 Q 593 1167 594 1190 L 595 1228 Q 595 1314 584 1363 L 578 1394 L 570 1424 Q 573 1425 576 1425 Q 599 1425 617 1351 L 634 1252 L 640 1189 Q 645 1155 660 1129 Q 681 1097 695 1059 Z M 6126 1152 L 6120 1171 L 6124 1197 L 6142 1241 L 6159 1279 L 6224 1434 Q 6277 1428 6217 1301 Q 6166 1193 6126 1152 Z M 2515 753 L 2515 934 L 2516 1052 L 2514 1169 L 2501 1170 L 2486 1174 Q 2467 1183 2474 1215 L 2505 1370 L 2512 1412 Q 2518 1441 2529 1450 Q 2547 1395 2560 1312 L 2580 1170 Q 2593 1092 2585 976 Q 2583 932 2567 884 L 2532 797 L 2519 771 L 2515 753 Z M 2705 1259 L 2700 1284 Q 2685 1301 2679 1333 L 2673 1387 L 2668 1431 Q 2666 1465 2679 1469 Q 2705 1372 2705 1259 Z M 355 1144 L 325 1184 Q 300 1208 295 1236 Q 291 1253 289 1294 L 287 1306 Q 280 1345 264 1372 L 255 1388 L 232 1417 L 249 1429 L 248 1452 L 248 1459 L 248 1462 L 247 1468 L 265 1469 L 315 1471 L 365 1470 Q 406 1466 426 1432 Q 444 1403 445 1359 L 446 1309 Q 443 1284 420 1273 L 361 1262 Q 325 1252 345 1219 L 379 1197 Q 405 1183 400 1169 Q 397 1160 379 1158 Q 360 1156 357 1148 L 355 1144 Z M 4949 1279 L 4915 1310 Q 4896 1330 4893 1349 L 4894 1395 L 4891 1447 Q 4891 1488 4903 1494 L 4919 1445 Q 4929 1421 4936 1415 Q 4941 1411 4951 1410 L 4965 1405 Q 4988 1390 4993 1360 L 4994 1304 L 4949 1279 Z M 4844 1474 L 4820 1480 Q 4806 1484 4799 1493 Q 4790 1505 4791 1532 Q 4792 1559 4802 1568 Q 4812 1576 4823 1576 Q 4828 1576 4832 1575 Q 4849 1569 4849 1549 L 4844 1474 Z M 5839 1189 L 5840 1242 L 5844 1295 L 5843 1454 Q 5839 1506 5848 1529 L 5856 1541 Q 5877 1563 5906 1574 Q 5917 1578 5926 1578 Q 5942 1578 5949 1564 L 5940 1504 L 5933 1429 L 5921 1332 Q 5913 1272 5914 1234 L 5839 1189 Z M 3320 732 L 3316 779 L 3315 779 L 3322 1101 L 3312 1244 L 3311 1280 L 3310 1299 L 3344 1440 L 3339 1407 L 3355 1498 L 3357 1527 L 3359 1555 Q 3366 1580 3383 1580 Q 3389 1580 3397 1577 Q 3420 1569 3436 1549 Q 3480 1491 3489 1445 Q 3497 1407 3491 1379 L 3489 1366 L 3484 1354 L 3466 1331 Q 3461 1321 3462 1300 L 3459 1271 L 3448 1262 L 3436 1254 L 3419 1229 L 3417 1228 L 3420 1165 L 3417 1126 L 3437 1102 L 3462 1070 L 3475 1034 Q 3478 998 3464 961 Q 3440 901 3386 825 L 3361 787 Q 3348 772 3335 772 Q 3330 772 3326 774 L 3320 732 Z M 1905 989 Q 1883 1002 1861 1047 L 1826 1114 Q 1800 1150 1791 1179 Q 1784 1203 1780 1242 L 1780 1261 L 1783 1443 L 1785 1533 L 1784 1566 Q 1786 1585 1801 1590 Q 1805 1591 1809 1591 Q 1828 1591 1844 1560 L 1865 1502 Q 1897 1409 1918 1311 L 1951 1151 Q 1966 1062 1965 989 Z M 940 1384 L 922 1402 Q 906 1420 884 1460 L 853 1520 L 841 1540 L 820 1565 Q 807 1581 811 1594 L 816 1594 Q 838 1596 859 1596 Q 884 1596 907 1593 L 937 1593 L 965 1589 Q 975 1584 1000 1535 Q 1015 1503 1038 1503 Q 1043 1503 1049 1505 L 1051 1523 L 1064 1530 Q 1069 1531 1074 1531 Q 1092 1531 1113 1515 L 1136 1484 Q 1146 1462 1139 1446 Q 1132 1427 1110 1425 L 1071 1424 L 1040 1411 Q 1018 1397 1010 1394 L 940 1384 Z M 2418 1363 Q 2405 1379 2402 1429 L 2401 1498 L 2400 1624 L 2459 1649 Q 2448 1644 2450 1635 L 2450 1635 Q 2450 1635 2451 1635 Q 2477 1635 2453 1513 L 2418 1363 Z M 1300 1474 Q 1245 1475 1215 1545 L 1189 1585 Q 1173 1608 1180 1630 Q 1186 1650 1200 1650 Q 1222 1650 1265 1605 L 1345 1509 L 1300 1474 Z M 4219 1509 L 4197 1527 Q 4181 1538 4175 1544 L 4163 1562 L 4159 1583 L 4148 1629 Q 4145 1656 4168 1660 L 4258 1655 Q 4277 1644 4280 1611 L 4279 1559 L 4219 1509 Z M 2065 989 L 2055 1154 Q 2055 1218 2041 1305 L 2015 1454 L 2006 1504 L 2005 1511 L 1998 1569 Q 1995 1604 1999 1626 L 2002 1636 Q 2007 1661 2021 1661 Q 2022 1661 2024 1661 Q 2035 1658 2036 1644 L 2035 1620 Q 2036 1587 2046 1527 L 2059 1433 L 2066 1211 L 2065 989 Z M 2755 1614 L 2715 1634 L 2709 1664 Q 2707 1681 2720 1688 Q 2728 1693 2735 1693 Q 2750 1693 2754 1667 L 2755 1614 Z M 5352 1385 Q 5339 1409 5339 1444 Q 5337 1499 5350 1529 Q 5357 1546 5378 1575 Q 5414 1646 5409 1740 L 5409 1744 L 5410 1745 L 5459 1774 Q 5462 1762 5474 1745 L 5489 1716 L 5489 1677 L 5484 1638 Q 5482 1614 5468 1593 L 5438 1553 Q 5388 1476 5369 1423 L 5352 1385 Z" fill="rgb(118,102,77)" fill-opacity="1.000"></path><path d="M 2110 33 L 2094 34 L 2020 34 L 1921 36 L 1921 37 Q 1917 49 1948 60 L 1991 69 L 2130 81 L 2161 78 Q 2174 72 2170 52 L 2170 49 L 2110 33 Z M 4420 47 Q 4415 47 4409 49 L 4302 56 L 4270 57 Q 4250 62 4249 75 L 4304 81 L 4364 87 L 4421 81 Q 4437 70 4434 57 Q 4432 47 4420 47 Z M 1257 69 Q 1241 87 1257 99 Q 1264 104 1271 104 Q 1280 104 1290 96 L 1257 69 Z M 984 79 L 973 80 L 970 81 L 950 83 L 943 109 L 972 110 Q 986 97 984 79 Z M 2893 29 L 2891 30 L 2854 35 L 2785 41 L 2717 54 L 2728 56 Q 2712 55 2697 55 Q 2675 55 2656 57 L 2589 60 Q 2537 65 2527 83 Q 2545 97 2587 98 L 2652 96 L 2726 100 Q 2776 100 2790 76 L 2754 58 L 2896 56 L 3157 71 L 3244 83 L 3287 96 L 3331 108 L 3398 111 L 3427 116 L 3457 116 L 3474 110 L 3473 92 Q 3466 73 3432 51 L 3395 30 L 3370 31 L 3303 31 L 3065 33 L 2893 29 Z M 3982 49 Q 3972 59 3934 60 Q 3899 62 3891 77 Q 3877 104 3904 112 L 3952 116 L 4049 117 L 4145 106 L 4177 97 L 4198 87 Q 4216 73 4189 56 L 3982 49 Z M 2937 96 Q 2921 96 2915 110 Q 2924 120 2949 120 Q 2953 120 2958 120 Q 2992 117 2997 102 L 2943 96 Q 2940 96 2937 96 Z M 5322 102 Q 5303 114 5244 114 Q 5190 114 5175 128 L 5336 136 L 5322 102 Z M 1097 142 Q 1088 153 1061 153 Q 1057 153 1052 153 Q 1049 153 1045 153 Q 1016 153 1010 161 L 1075 172 Q 1085 173 1094 173 Q 1126 173 1136 161 Q 1138 154 1130 149 L 1097 142 Z M 5476 142 L 5429 149 Q 5427 149 5425 149 Q 5411 149 5410 162 Q 5409 174 5418 175 L 5435 175 L 5477 176 Q 5497 168 5476 142 Z M 4522 122 L 4492 127 L 4462 137 Q 4463 176 4573 176 Q 4592 176 4614 175 Q 4765 166 4756 136 L 4522 122 Z M 2470 139 Q 2426 140 2437 164 Q 2444 178 2496 180 Q 2503 180 2509 180 Q 2550 180 2557 169 L 2530 142 L 2470 139 Z M 5056 176 Q 5053 186 5056 195 L 5102 195 L 5102 182 L 5056 176 Z M 3840 154 Q 3809 154 3787 156 Q 3717 162 3700 190 Q 3712 202 3772 204 L 3850 203 L 3890 204 L 3930 196 L 3996 156 L 3885 155 Q 3861 154 3840 154 Z M 4636 189 Q 4630 207 4615 211 L 4647 217 L 4682 216 L 4636 189 Z M 1626 209 Q 1605 211 1595 222 Q 1602 230 1633 230 Q 1639 230 1646 230 L 1663 229 L 1663 223 L 1663 209 Z M 5362 236 L 5349 262 L 5352 263 Q 5361 249 5362 236 Z M 1129 222 Q 1050 222 1070 248 Q 1083 264 1190 269 L 1218 270 Q 1235 270 1243 262 L 1237 229 L 1135 222 Q 1132 222 1129 222 Z M 4082 242 L 3888 258 Q 3871 260 3841 260 Q 3811 260 3768 258 L 3650 264 Q 3658 286 3730 288 L 3821 287 L 4035 302 L 4112 299 L 4189 296 L 4284 298 Q 4348 295 4366 269 Q 4353 252 4311 247 L 4249 242 Z M 4942 241 Q 4910 241 4875 253 Q 4819 272 4814 308 L 4896 311 Q 4936 301 4942 256 L 4962 242 Q 4952 241 4942 241 Z M 3106 222 Q 3073 222 3042 239 L 2980 275 Q 2951 289 2906 290 L 2830 290 Q 2835 314 2899 314 L 2986 309 L 3013 310 L 3039 308 Q 3057 304 3084 283 L 3108 278 Q 3123 275 3130 269 L 3110 222 Q 3108 222 3106 222 Z M 2163 269 L 2082 291 L 2029 302 Q 1993 311 1990 328 L 2076 337 L 2101 342 L 2127 343 L 2175 329 L 2217 327 L 2260 329 L 2284 325 L 2296 306 L 2306 288 L 2309 270 L 2302 269 Z M 5352 263 Q 5341 278 5314 292 L 5267 313 L 5238 334 L 5236 336 Q 5261 356 5328 361 L 5428 357 Q 5465 350 5456 310 Q 5451 285 5413 275 L 5352 263 Z M 4356 329 L 4315 333 Q 4289 340 4284 354 Q 4297 365 4332 365 Q 4353 365 4382 361 L 4382 336 L 4356 329 Z M 757 149 L 764 185 L 783 196 L 795 202 L 807 208 L 890 253 L 899 259 L 917 269 Q 971 302 1090 302 L 1165 308 L 1242 316 L 1252 317 L 1403 329 L 1490 329 L 1477 341 L 1473 346 L 1454 369 L 1455 369 Q 1488 366 1530 309 L 1443 309 L 1213 301 L 983 282 Q 929 274 838 211 L 757 149 Z M 3983 340 Q 3951 340 3947 349 Q 3953 366 3980 369 L 4022 370 L 4185 366 L 4213 365 L 4262 362 L 4226 359 L 4187 356 L 4016 342 L 3983 340 Z M 1530 356 Q 1509 358 1510 375 L 1543 372 L 1557 362 L 1537 358 L 1530 356 Z M 3083 349 L 2950 361 L 2925 364 Q 2917 367 2927 381 L 3060 388 L 3112 379 L 3163 376 L 3083 349 Z M 2157 402 L 2079 420 Q 2027 433 2010 455 Q 2021 457 2049 457 Q 2070 457 2099 456 Q 2118 456 2153 440 Q 2187 424 2204 423 L 2210 422 L 2207 422 L 2157 402 Z" fill="rgb(141,124,97)" fill-opacity="1.000"></path></g></g></g></g></g></g><defs><defs></defs></defs></svg>