<svg color-interpolation-filters="sRGB" fill-rule="evenodd" pointer-events="none" width="100%" height="100%" xmlns="http://www.w3.org/2000/svg" xmlns:xlink="http://www.w3.org/1999/xlink" style="-webkit-user-select: none;"><g transform="matrix(0.0493046776232617 0 0 0.0493046776232617 0.4557522123893776 0)"><g><rect x="-9.243589743589682" y="0" width="2048.487179487179" height="791" fill="rgb(102,153,153)"></rect><g><g><g><g><path d="M 1148 36 L 1144 40 Q 1154 47 1171 50 L 1200 50 L 1200 41 L 1155 36 Z M 803 32 L 779 48 L 775 56 L 769 56 L 768 57 L 765 58 L 764 59 L 763 61 Q 757 66 756 75 Q 755 85 761 90 L 802 86 Q 827 76 824 61 L 803 32 Z M 975 41 L 960 46 Q 957 60 971 76 Q 985 91 998 91 Q 999 91 1000 91 Q 1028 90 1010 68 Q 994 48 975 41 Z M 1060 86 Q 1057 103 1088 104 Q 1091 104 1094 104 Q 1118 104 1120 96 L 1060 86 Z M 1246 90 Q 1233 100 1223 111 L 1202 136 L 1190 155 L 1172 170 Q 1156 175 1136 175 Q 1114 175 1088 169 Q 1032 155 1035 121 L 1035 121 L 1022 125 L 1010 135 L 980 136 L 923 136 L 885 144 L 849 161 Q 817 176 758 176 L 714 178 Q 684 177 678 165 Q 674 160 676 143 L 676 143 Q 670 176 675 185 Q 682 197 711 198 L 755 196 L 792 194 L 832 177 Q 862 163 880 159 L 890 155 L 900 151 L 900 158 L 919 156 L 975 156 L 1005 155 L 1017 145 Q 1022 141 1027 141 Q 1029 141 1030 142 L 1031 155 L 1040 157 L 1040 169 Q 1059 188 1103 194 L 1165 191 L 1180 179 L 1180 177 L 1187 169 L 1195 157 L 1217 132 L 1224 122 L 1217 122 L 1246 91 Z M 420 377 Q 424 387 437 388 Q 438 388 439 388 Q 449 388 450 377 Z M 378 371 L 371 375 L 380 382 Q 396 397 412 397 Q 416 397 420 396 Q 427 378 411 373 L 379 371 Z M 530 367 L 495 377 Q 489 400 510 400 Q 516 400 525 398 Q 562 388 530 367 Z M 590 387 L 571 396 L 542 422 L 496 433 L 447 432 L 407 437 L 367 442 Q 312 442 304 428 L 302 430 L 302 431 Q 296 453 322 460 L 366 462 L 373 461 L 352 457 L 379 457 L 408 455 L 420 455 L 446 452 L 454 452 L 464 450 L 483 448 L 496 452 L 540 442 L 555 430 L 569 416 Q 575 412 591 406 L 590 402 L 590 387 Z M 1578 416 L 1570 417 L 1568 453 Q 1566 479 1572 487 Q 1579 496 1599 497 L 1629 493 L 1638 487 Q 1644 477 1677 444 L 1672 441 L 1638 473 L 1608 477 Q 1588 476 1581 467 Q 1576 459 1578 416 Z" fill="rgb(141,124,97)" fill-opacity="1.000"></path><path d="M 1162 4 Q 1146 4 1129 4 L 1071 6 L 1165 4 L 1176 4 L 1216 5 Q 1193 4 1162 4 Z M 1283 25 L 1282 47 L 1291 30 L 1297 33 L 1283 25 Z M 1321 50 L 1359 86 L 1345 71 L 1321 50 Z M 1249 88 L 1246 90 L 1217 121 L 1249 88 Z M 890 155 L 880 159 L 869 164 L 890 155 Z M 530 283 L 527 285 L 530 285 L 530 283 Z M 571 289 L 547 290 L 551 292 L 571 311 L 600 329 L 605 334 L 608 333 L 599 314 L 590 295 Q 584 289 571 289 Z M 748 241 Q 749 241 750 241 L 765 251 Q 760 250 757 250 Q 739 250 739 280 L 737 334 Q 724 316 725 279 Q 725 241 748 241 Z M 995 321 L 985 331 L 977 334 Q 984 321 995 321 Z M 467 322 Q 417 348 383 368 L 401 358 L 414 351 L 467 322 Z M 591 368 L 590 386 L 590 401 L 591 368 Z M 1326 366 Q 1328 366 1330 366 L 1340 386 Q 1343 403 1328 415 Q 1322 420 1316 420 Q 1308 420 1301 410 Q 1292 397 1304 380 Q 1314 366 1326 366 Z M 660 404 L 660 415 L 660 425 Q 664 443 674 454 L 673 451 L 670 424 L 660 404 Z M 446 451 L 420 454 L 414 454 L 417 455 L 454 451 Z M 408 454 L 379 456 L 406 455 L 408 454 Z M 1335 466 L 1365 491 Q 1361 501 1345 501 Q 1339 501 1331 500 Q 1328 481 1335 466 Z M 948 419 L 945 448 L 945 502 L 948 419 Z M 1646 428 L 1672 440 L 1677 443 L 1703 462 Q 1736 489 1760 526 L 1760 526 L 1752 513 Q 1700 445 1646 428 Z M 591 405 Q 575 411 569 415 L 555 429 L 540 441 L 496 451 L 502 459 L 507 488 Q 508 506 516 516 Q 525 529 542 537 L 575 541 L 588 532 L 591 517 L 605 479 Q 611 455 606 440 L 597 423 L 591 405 Z M 676 143 L 666 154 Q 668 216 701 216 Q 703 216 705 216 Q 717 292 705 364 Q 696 368 690 368 Q 681 368 678 359 L 676 326 Q 674 260 650 236 Q 643 246 643 292 Q 642 332 630 336 L 619 338 Q 631 347 647 374 L 646 367 L 646 367 Q 661 387 670 424 L 679 457 Q 688 464 707 472 L 720 486 L 720 507 L 721 534 Q 756 558 830 565 L 880 565 L 877 529 L 870 494 L 870 482 Q 863 461 861 422 L 860 420 Q 855 415 845 413 L 845 421 L 806 439 Q 788 448 776 468 L 766 494 L 751 516 Q 747 498 749 477 Q 751 452 760 442 Q 767 434 779 433 L 801 431 L 824 412 L 783 417 Q 781 417 780 417 Q 760 417 751 405 L 782 397 L 806 362 L 830 327 L 832 329 Q 840 310 840 292 Q 843 260 825 242 L 801 222 Q 787 209 786 196 L 792 194 L 755 196 L 711 198 Q 682 197 675 185 Q 670 176 676 143 Z M 1760 526 L 1760 526 L 1787 567 L 1765 533 Q 1763 529 1760 526 Q 1760 526 1760 526 Z M 302 430 Q 291 443 290 456 L 270 466 Q 270 512 261 532 L 247 553 L 271 561 L 385 570 Q 382 552 393 548 L 416 537 Q 423 531 422 513 L 416 489 Q 401 470 373 460 L 366 461 L 322 459 Q 296 452 302 430 Z M 1210 247 L 1210 291 L 1212 321 L 1215 351 Q 1218 363 1234 380 L 1256 409 Q 1264 429 1260 470 L 1265 516 L 1264 539 Q 1265 554 1271 559 L 1314 566 L 1351 571 L 1366 571 L 1363 569 L 1369 571 L 1392 571 L 1418 577 Q 1429 579 1437 584 L 1499 600 L 1496 605 L 1510 606 L 1511 625 L 1522 616 Q 1534 601 1528 549 Q 1481 542 1454 506 Q 1424 467 1445 426 Q 1456 406 1454 391 L 1439 356 Q 1406 304 1367 304 Q 1362 304 1356 305 L 1332 316 Q 1328 318 1325 318 Q 1318 318 1310 311 L 1294 281 L 1292 261 L 1290 271 L 1284 298 L 1280 324 L 1282 342 L 1279 359 Q 1273 366 1265 366 Q 1256 366 1244 356 Q 1229 341 1220 319 Q 1210 289 1210 247 Z M 1567 391 L 1568 394 L 1561 407 Q 1557 421 1558 446 L 1560 485 L 1557 518 L 1555 550 L 1552 550 L 1579 606 Q 1594 625 1611 625 Q 1613 625 1614 625 L 1616 611 L 1635 608 L 1635 538 L 1641 540 L 1634 524 Q 1629 514 1630 506 Q 1631 496 1638 486 L 1638 486 L 1629 492 L 1599 496 Q 1579 495 1572 486 Q 1566 478 1568 452 L 1570 416 L 1578 415 L 1579 410 L 1578 409 L 1567 391 Z M 230 601 L 246 616 L 265 628 L 230 601 Z M 1224 121 L 1217 131 L 1195 156 L 1187 168 L 1180 176 L 1180 178 L 1165 190 L 1103 193 Q 1059 187 1040 168 L 1040 168 L 1050 212 L 1061 256 L 1061 260 Q 1089 319 1097 373 L 1095 425 L 1090 477 L 1091 508 Q 1089 522 1079 522 Q 1076 522 1071 521 Q 1066 486 1066 432 L 1062 392 L 1061 460 L 1053 410 L 1041 350 L 1023 251 Q 1013 193 1015 152 L 1015 152 L 1040 157 L 1031 155 L 1030 142 Q 1028 142 1027 142 Q 1022 142 1017 147 L 1005 157 L 975 158 L 919 158 L 900 160 Q 910 162 915 167 L 917 182 L 915 197 Q 918 226 930 241 L 948 259 L 965 277 L 965 317 L 962 350 L 977 336 L 977 336 Q 961 363 966 447 L 976 509 Q 981 548 972 570 Q 947 543 945 505 L 945 505 Q 947 563 955 596 L 956 601 L 965 614 L 972 629 L 984 643 Q 1011 666 1036 666 Q 1046 666 1056 662 L 1066 656 L 1063 655 Q 1067 647 1076 647 Q 1078 647 1080 647 Q 1103 628 1107 613 L 1110 574 L 1112 535 Q 1122 539 1122 556 L 1122 583 L 1129 630 L 1141 622 L 1146 612 L 1141 463 L 1145 490 L 1147 458 L 1169 389 Q 1186 346 1187 319 L 1187 319 L 1176 357 L 1176 188 L 1206 148 L 1203 154 L 1228 127 L 1221 153 L 1218 179 L 1213 205 L 1251 143 Q 1252 143 1252 143 Q 1264 143 1277 163 L 1291 196 Q 1296 219 1294 253 L 1300 226 Q 1307 199 1288 158 Q 1272 123 1231 123 Z M 1625 675 L 1604 680 L 1559 693 L 1545 698 L 1578 688 L 1625 675 Z M 810 709 L 857 719 L 911 728 L 810 709 Z" fill="rgb(108,92,69)" fill-opacity="1.000"></path><path d="M 1155 36 L 1200 41 L 1200 50 L 1171 50 Q 1154 47 1144 40 L 1148 36 Z M 779 48 L 769 56 L 775 56 L 779 48 Z M 1045 36 Q 1053 47 1050 60 L 1023 59 Q 1007 54 1020 41 L 1045 36 Z M 855 31 Q 880 36 876 59 Q 873 77 854 77 Q 850 77 845 76 Q 828 72 826 62 L 820 36 L 855 31 Z M 975 41 Q 994 48 1010 68 Q 1028 90 1000 91 Q 999 91 998 91 Q 985 91 971 76 Q 957 60 960 46 L 975 41 Z M 1060 86 L 1120 96 Q 1118 104 1094 104 Q 1091 104 1088 104 Q 1057 103 1060 86 Z M 1128 101 Q 1129 101 1130 101 L 1155 111 Q 1159 127 1139 127 Q 1138 127 1137 127 Q 1116 126 1110 113 Q 1117 101 1128 101 Z M 948 1 L 857 7 L 848 10 L 847 11 L 846 11 L 843 12 L 842 13 L 841 13 L 839 14 L 803 32 L 824 61 Q 827 76 802 86 L 761 90 Q 755 85 756 75 Q 757 66 763 61 L 764 59 L 764 59 Q 724 90 676 142 L 676 143 Q 674 160 678 165 Q 684 177 714 178 L 758 176 Q 817 176 849 161 L 885 144 L 923 136 L 980 136 L 1010 135 L 1022 125 L 1035 121 L 1035 121 Q 1032 155 1088 169 Q 1114 175 1136 175 Q 1156 175 1172 170 L 1190 155 L 1202 136 L 1223 111 Q 1233 100 1246 90 L 1249 88 L 1251 86 L 1248 86 L 1274 59 L 1282 47 L 1283 25 Q 1250 8 1216 5 L 1176 4 L 1250 26 L 1200 26 Q 1164 22 1165 4 L 1165 4 L 1071 6 L 1041 6 L 1020 5 L 979 3 L 975 2 L 948 1 Z M 450 376 Q 449 387 439 387 Q 438 387 437 387 Q 424 386 420 376 Z M 530 366 Q 562 387 525 397 Q 516 399 510 399 Q 489 399 495 376 L 530 366 Z M 526 285 L 467 322 L 414 351 L 470 356 L 450 371 L 423 371 Q 405 369 401 358 L 383 368 L 378 370 L 379 370 L 411 372 Q 427 377 420 395 Q 416 396 412 396 Q 396 396 380 381 L 371 374 Q 321 403 304 427 Q 312 441 367 441 L 407 436 L 447 431 L 496 432 L 542 421 L 571 395 L 590 386 L 591 368 L 546 365 L 500 356 L 530 336 L 561 337 Q 586 340 595 347 L 595 346 L 605 334 L 600 329 L 571 311 L 551 292 L 547 290 L 531 290 L 530 285 Z M 1579 409 L 1579 410 L 1578 415 Q 1576 458 1581 466 Q 1588 475 1608 476 L 1638 472 L 1672 440 L 1646 428 L 1611 423 Q 1591 421 1579 409 Z" fill="rgb(129,110,83)" fill-opacity="1.000"></path><path d="M 748 241 Q 725 241 725 279 Q 724 316 737 334 L 739 280 Q 739 250 757 250 Q 761 250 765 251 L 750 241 Q 749 241 748 241 Z M 995 321 Q 984 321 977 334 L 985 331 L 995 321 Z M 1251 141 Q 1250 141 1250 141 L 1212 203 L 1210 206 L 1210 247 Q 1210 289 1220 319 Q 1229 341 1244 356 Q 1255 366 1265 366 Q 1273 366 1279 359 L 1282 342 L 1280 324 L 1284 298 L 1290 271 L 1292 261 L 1293 251 Q 1295 217 1290 194 L 1276 161 Q 1264 141 1251 141 Z M 666 153 L 651 172 L 638 188 L 624 206 L 567 256 L 559 262 L 530 282 L 530 283 L 530 285 L 531 290 L 547 290 L 571 289 Q 584 289 590 295 L 599 314 L 608 333 L 619 338 L 630 336 Q 642 332 643 292 Q 643 246 650 236 Q 674 260 676 326 L 678 359 Q 681 368 690 368 Q 696 368 705 364 Q 717 292 705 216 Q 703 216 701 216 Q 668 216 666 154 L 666 153 Z M 1326 366 Q 1314 366 1304 380 Q 1292 397 1301 410 Q 1308 420 1316 420 Q 1322 420 1328 415 Q 1343 403 1340 386 L 1330 366 Q 1328 366 1326 366 Z M 1335 466 Q 1328 481 1331 500 Q 1339 501 1345 501 Q 1362 501 1365 491 L 1335 466 Z M 834 404 Q 830 405 824 412 L 801 431 L 779 433 Q 767 434 760 442 Q 751 452 749 477 Q 747 498 751 516 L 766 494 L 776 468 Q 788 448 806 439 L 845 421 L 845 413 L 845 411 L 834 404 Z M 1034 204 L 1050 281 Q 1048 303 1053 335 L 1062 391 L 1066 431 Q 1066 485 1071 520 Q 1075 522 1079 522 Q 1089 522 1091 509 L 1090 478 L 1095 426 L 1097 374 Q 1089 320 1061 261 L 1054 246 L 1034 205 Z M 977 335 L 962 349 Q 950 369 948 420 L 945 503 L 945 504 Q 947 542 972 569 Q 981 547 976 508 L 966 446 Q 961 362 977 335 Z" fill="rgb(118,102,77)" fill-opacity="1.000"></path><path d="M 1165 4 Q 1164 22 1200 26 L 1250 26 L 1176 4 Z M 1045 36 L 1020 41 Q 1007 54 1023 59 L 1050 60 Q 1053 47 1045 36 Z M 855 31 L 820 36 L 826 62 Q 828 72 845 76 Q 850 77 854 77 Q 873 77 876 59 Q 880 36 855 31 Z M 1128 101 Q 1117 101 1110 113 Q 1116 126 1137 127 Q 1138 127 1139 127 Q 1158 127 1155 111 L 1130 101 Q 1129 101 1128 101 Z M 530 336 L 500 356 L 546 365 L 591 368 L 595 366 Q 604 356 595 347 Q 586 340 561 337 L 530 336 Z M 414 351 L 401 358 Q 405 369 423 371 L 450 371 L 470 356 L 414 351 Z" fill="rgb(123,105,79)" fill-opacity="1.000"></path><path d="M 646 367 L 647 374 Q 648 383 656 397 L 660 404 L 670 424 Q 661 387 646 367 Z" fill="rgb(88,85,79)" fill-opacity="1.000"></path><path d="M 1291 30 L 1282 47 L 1274 59 L 1295 36 L 1297 33 L 1291 30 Z M 1298 129 L 1324 170 Q 1339 190 1343 205 L 1345 245 L 1345 283 Q 1342 301 1321 301 Q 1320 301 1319 301 Q 1299 300 1299 281 L 1306 245 Q 1312 169 1300 151 L 1298 129 Z M 880 159 L 880 159 Q 862 163 832 177 L 792 194 L 786 196 Q 787 209 801 222 L 825 242 Q 843 260 840 292 Q 840 310 832 329 L 835 331 L 865 231 L 865 231 Q 865 332 858 357 Q 844 412 793 412 Q 781 412 766 409 L 782 397 L 751 405 Q 760 417 780 417 Q 782 417 783 417 L 824 412 Q 830 405 834 404 L 845 411 L 845 413 Q 855 415 860 420 L 861 422 L 860 360 L 866 353 L 871 346 L 872 323 L 870 300 L 867 231 L 861 209 L 849 190 L 843 184 L 840 176 L 869 164 L 880 159 Z M 1159 416 L 1159 416 Q 1159 416 1159 416 L 1159 416 Q 1157 421 1155 427 L 1155 427 L 1159 416 L 1159 416 Z M 1015 151 Q 1013 192 1023 250 L 1041 349 L 1053 409 L 1061 459 L 1062 391 L 1053 335 Q 1048 303 1050 281 L 1034 204 L 1054 245 L 1061 260 L 1061 256 L 1050 212 L 1040 168 L 1040 156 L 1015 151 Z M 1155 427 L 1146 456 L 1144 488 L 1146 501 L 1151 447 Q 1153 437 1155 427 Z M 1369 571 L 1400 576 L 1418 577 L 1392 571 Z M 1677 443 Q 1644 476 1638 486 Q 1631 496 1630 506 Q 1629 514 1634 524 L 1641 540 L 1658 558 Q 1685 586 1707 626 L 1715 626 L 1727 632 Q 1718 617 1729 605 Q 1733 601 1743 599 L 1715 568 Q 1711 561 1715 546 L 1714 526 L 1690 525 Q 1686 526 1682 526 Q 1672 526 1671 517 Q 1688 511 1690 495 L 1696 467 L 1703 462 L 1677 443 Z M 406 455 L 379 456 L 352 456 L 373 460 Q 401 470 416 489 L 422 513 Q 423 531 416 537 L 393 548 Q 382 552 385 570 L 271 561 L 247 553 L 243 558 L 238 562 L 214 578 L 230 601 L 246 616 L 257 605 Q 265 599 282 599 L 306 604 Q 302 633 317 635 L 352 626 L 389 612 Q 411 602 421 591 Q 433 577 436 521 Q 436 497 429 486 L 414 473 Q 405 465 402 457 L 406 455 Z M 608 333 L 605 334 L 595 346 L 595 347 Q 604 356 595 366 L 591 368 L 590 401 L 591 405 L 597 423 L 606 440 Q 611 455 605 479 L 591 517 L 588 532 L 575 541 L 542 537 Q 525 529 516 516 Q 508 506 507 488 L 502 459 L 496 451 L 483 447 L 464 449 L 454 451 L 417 455 Q 423 456 431 463 L 447 482 L 448 484 L 476 540 Q 495 583 495 655 L 496 656 L 534 657 L 535 655 L 536 622 L 532 602 L 531 581 Q 568 578 595 552 L 595 586 Q 594 608 596 620 L 637 613 L 670 585 L 670 584 L 675 517 L 675 504 L 672 493 L 661 455 L 659 448 Q 651 417 656 397 Q 648 383 647 374 Q 631 347 619 338 L 608 333 Z M 1294 83 Q 1293 83 1291 83 L 1251 86 L 1249 88 L 1217 121 L 1230 121 Q 1271 121 1287 156 Q 1306 197 1299 224 L 1293 251 L 1292 261 L 1294 281 L 1310 311 Q 1317 318 1325 318 Q 1329 318 1332 316 L 1356 305 Q 1361 304 1367 304 Q 1406 304 1439 356 L 1454 391 Q 1456 406 1445 426 Q 1424 467 1454 506 Q 1481 542 1528 549 Q 1534 601 1522 616 L 1511 625 L 1510 606 L 1496 605 L 1499 600 L 1437 584 L 1445 590 Q 1465 610 1472 644 L 1475 678 L 1475 697 L 1481 711 L 1482 712 L 1544 696 L 1558 691 L 1551 645 L 1546 611 Q 1548 610 1551 610 Q 1561 610 1570 620 Q 1586 635 1604 673 L 1614 625 L 1614 625 Q 1612 625 1611 625 Q 1594 625 1579 606 L 1552 550 L 1555 550 L 1557 518 L 1560 485 L 1558 446 Q 1557 421 1561 407 L 1568 394 L 1567 391 L 1564 384 L 1564 385 L 1544 445 L 1519 474 Q 1512 478 1506 478 Q 1495 478 1485 465 Q 1478 455 1479 438 Q 1481 420 1494 420 Q 1495 420 1495 420 Q 1497 401 1489 368 L 1480 316 Q 1479 285 1469 262 L 1440 215 L 1421 189 L 1397 165 L 1383 159 L 1371 150 L 1371 137 L 1371 125 Q 1369 118 1353 109 L 1331 96 Q 1314 83 1294 83 Z M 900 158 Q 897 191 901 220 Q 904 249 917 305 L 916 360 L 910 415 L 913 516 L 916 616 L 916 630 L 914 627 Q 905 607 900 556 L 896 528 L 881 506 L 870 482 L 870 494 L 877 529 L 880 565 L 830 565 Q 756 558 721 534 L 720 507 L 720 486 L 707 472 Q 688 464 679 457 L 679 457 L 680 461 L 687 471 Q 699 487 707 522 L 710 537 Q 715 557 727 571 L 748 587 L 766 605 Q 771 620 766 665 L 764 688 L 799 703 L 801 704 L 809 707 L 856 717 L 871 705 L 882 675 L 887 641 L 897 581 Q 904 590 908 611 L 912 647 L 915 657 Q 923 679 949 694 Q 971 708 997 711 Q 1004 712 1010 712 Q 1034 712 1050 702 L 1073 678 Q 1082 661 1066 654 L 1056 660 Q 1046 664 1036 664 Q 1011 664 984 641 L 972 627 L 965 612 L 956 599 L 955 594 Q 947 561 945 503 L 945 502 L 945 448 L 948 419 Q 950 368 962 348 L 965 315 L 965 275 L 948 257 L 930 239 Q 918 224 915 195 L 917 180 L 915 165 Q 910 160 900 158 Z M 1227 125 L 1202 152 Q 1190 175 1190 234 L 1191 296 L 1186 317 Q 1185 344 1168 387 L 1159 416 L 1159 416 Q 1164 402 1171 392 L 1171 392 L 1164 481 Q 1161 535 1171 570 Q 1174 581 1184 592 L 1198 611 L 1205 629 L 1205 650 Q 1208 703 1263 714 L 1360 719 Q 1365 720 1369 720 Q 1396 720 1407 698 Q 1417 677 1409 641 Q 1401 598 1366 571 L 1351 571 L 1314 566 L 1271 559 Q 1265 554 1264 539 L 1265 516 L 1260 470 Q 1264 429 1256 409 L 1234 380 Q 1218 363 1215 351 L 1212 321 L 1210 291 L 1210 247 L 1210 206 L 1212 203 L 1217 177 L 1220 151 L 1227 125 Z M 1111 533 L 1109 572 L 1106 611 Q 1102 626 1079 645 L 1085 645 Q 1097 647 1100 655 L 1104 676 L 1106 705 Q 1107 725 1111 734 L 1118 746 L 1129 746 Q 1127 707 1131 690 L 1137 680 L 1121 659 L 1106 638 L 1128 628 L 1121 581 L 1121 554 Q 1121 537 1111 533 Z" fill="rgb(94,81,62)" fill-opacity="1.000"></path><path d="M 431 575 Q 430 607 414 627 Q 398 646 372 646 Q 368 646 365 646 L 358 653 L 376 655 L 403 656 L 496 656 L 495 655 L 463 614 L 431 575 Z M 670 424 L 673 451 L 674 454 L 675 504 L 675 517 L 670 584 L 670 585 L 670 586 L 671 613 L 669 640 L 658 663 L 669 664 L 703 668 L 722 672 L 716 617 L 689 521 L 681 468 L 680 461 L 679 457 L 670 424 Z M 1764 533 Q 1770 558 1764 595 L 1743 599 Q 1733 601 1729 605 Q 1718 617 1727 632 L 1715 626 L 1707 626 L 1686 618 L 1666 606 L 1635 608 L 1616 611 L 1614 625 L 1604 673 L 1603 678 L 1624 673 L 1634 670 L 1810 634 Q 1805 602 1787 567 L 1765 533 Z M 1431 626 L 1423 724 L 1423 725 L 1457 718 L 1457 717 Q 1455 655 1431 626 Z M 1140 461 L 1145 610 L 1145 635 L 1144 666 L 1137 680 L 1131 690 Q 1127 707 1129 746 L 1151 746 L 1207 744 L 1207 743 L 1200 733 Q 1181 700 1171 647 L 1155 556 L 1146 501 L 1144 488 L 1140 461 Z" fill="rgb(63,55,44)" fill-opacity="1.000"></path><path d="M 1298 129 L 1300 151 Q 1312 169 1306 245 L 1299 281 Q 1299 300 1319 301 Q 1320 301 1321 301 Q 1342 301 1345 283 L 1345 245 L 1343 205 Q 1339 190 1324 170 L 1298 129 Z M 1205 146 L 1175 186 L 1175 355 L 1186 317 L 1191 296 L 1190 234 Q 1190 175 1202 152 L 1205 146 Z M 865 231 L 835 331 L 832 329 L 830 327 L 806 362 L 782 397 L 766 409 Q 781 412 793 412 Q 843 412 858 357 Q 865 332 865 231 Z M 1297 33 L 1295 36 L 1274 59 L 1248 86 L 1251 86 L 1291 83 Q 1292 83 1294 83 Q 1314 83 1331 96 L 1353 109 Q 1369 118 1371 125 L 1371 137 L 1371 150 L 1383 159 L 1397 165 L 1421 189 L 1440 215 L 1469 262 Q 1479 285 1480 316 L 1489 368 Q 1497 401 1495 420 Q 1494 420 1494 420 Q 1481 420 1479 438 Q 1478 455 1485 465 Q 1495 478 1506 478 Q 1512 478 1519 474 L 1544 445 L 1564 385 L 1564 384 L 1558 367 L 1553 353 Q 1518 278 1443 185 L 1405 138 L 1376 104 L 1359 86 L 1321 50 L 1297 33 Z M 656 397 Q 651 417 659 448 L 661 455 L 672 493 L 675 504 L 674 454 Q 664 443 660 425 L 660 415 L 660 404 L 656 397 Z M 1703 462 L 1696 467 L 1690 495 Q 1688 511 1671 517 Q 1673 526 1682 526 Q 1685 526 1690 525 L 1714 526 L 1715 546 Q 1711 561 1715 568 L 1743 599 L 1764 595 Q 1770 558 1764 533 L 1765 533 Q 1739 492 1703 462 Z M 1635 538 L 1635 608 L 1666 606 L 1686 618 L 1707 626 Q 1685 586 1658 558 L 1641 540 L 1635 538 Z M 900 151 L 890 155 L 869 164 L 840 176 L 843 184 L 849 190 L 861 209 L 867 231 L 870 300 L 872 323 L 871 346 L 866 353 L 860 360 L 861 422 Q 863 461 870 482 L 881 506 L 896 528 L 900 556 Q 905 607 914 627 L 916 630 L 916 616 L 913 516 L 910 415 L 916 360 L 917 305 Q 904 249 901 220 Q 897 191 900 158 L 900 151 Z M 408 454 L 406 455 L 402 457 Q 405 465 414 473 L 429 486 Q 436 497 436 521 Q 433 577 421 591 Q 411 602 389 612 L 352 626 L 317 635 Q 302 633 306 604 L 282 599 Q 265 599 257 605 L 246 616 L 265 628 L 339 651 L 347 652 L 358 653 L 365 646 Q 369 646 372 646 Q 398 646 414 627 Q 430 607 431 575 L 463 614 L 495 655 Q 495 583 476 540 L 448 484 L 447 482 L 431 463 Q 423 456 417 455 L 414 454 Z M 595 552 Q 568 578 531 581 L 532 602 L 536 622 L 535 655 L 534 657 L 658 663 L 669 640 L 671 613 L 670 586 L 670 585 L 637 613 L 596 620 Q 594 608 595 586 L 595 552 Z M 1145 610 L 1140 620 L 1128 628 L 1106 638 L 1121 659 L 1137 680 L 1144 666 L 1145 635 L 1145 610 Z M 680 461 L 681 468 L 689 521 L 716 617 L 722 672 L 764 688 L 766 665 Q 771 620 766 605 L 748 587 L 727 571 Q 715 557 710 537 L 707 522 Q 699 487 687 471 L 680 461 Z M 1551 610 Q 1549 610 1546 611 L 1551 645 L 1558 691 L 1603 678 L 1604 673 Q 1586 635 1570 620 Q 1560 610 1551 610 Z M 1171 392 Q 1156 414 1151 447 L 1146 501 L 1155 556 L 1171 647 Q 1181 700 1200 733 L 1207 743 L 1207 744 L 1321 737 L 1343 735 L 1423 725 L 1423 724 L 1431 626 Q 1455 655 1457 717 L 1457 718 L 1482 712 L 1481 711 L 1475 697 L 1475 678 L 1472 644 Q 1465 610 1445 590 L 1437 584 Q 1429 579 1418 577 L 1400 576 L 1369 571 L 1363 569 L 1366 571 Q 1401 598 1409 641 Q 1417 677 1407 698 Q 1397 720 1369 720 Q 1365 720 1360 719 L 1263 714 Q 1208 703 1205 650 L 1205 629 L 1198 611 L 1184 592 Q 1174 581 1171 570 Q 1161 535 1164 481 L 1171 392 Z M 897 581 L 887 641 L 882 675 L 871 705 L 856 717 L 910 726 L 1118 746 L 1111 734 Q 1107 725 1106 705 L 1104 676 L 1100 655 Q 1097 647 1085 645 L 1079 645 Q 1077 645 1076 645 Q 1068 645 1064 653 L 1067 654 Q 1083 661 1074 678 L 1051 702 Q 1035 712 1011 712 Q 1005 712 998 711 Q 972 708 950 694 Q 924 679 916 657 L 913 647 L 909 611 Q 905 590 898 581 Z" fill="rgb(77,68,54)" fill-opacity="1.000"></path><path d="M 1937 565 Q 1934 565 1930 566 L 1920 581 Q 1914 584 1916 590 L 1950 590 Q 1953 578 1949 571 Q 1945 565 1937 565 Z M 2005 596 Q 2015 601 2021 601 Q 2027 601 2030 597 Z M 80 587 L 55 592 Q 50 591 47 591 Q 39 591 43 598 Q 48 607 62 607 Q 63 607 65 607 L 84 600 Q 93 594 80 587 Z M 0 612 Q -1 623 9 623 L 20 612 Z M 2030 622 L 2003 623 L 2030 627 L 2030 622 Z M 105 622 Q 100 625 100 631 Q 108 634 113 634 Q 124 634 125 622 Z M 1882 649 L 1845 652 Q 1817 659 1808 667 Q 1809 667 1811 667 Q 1829 667 1859 655 L 1875 651 L 1882 649 Z M 227 562 Q 220 562 214 567 L 201 578 L 160 597 L 120 612 L 105 616 L 121 614 L 165 616 L 192 631 Q 207 644 206 656 L 262 660 Q 294 663 315 672 Q 345 684 381 684 Q 399 684 418 681 L 391 672 Q 377 665 376 656 L 358 654 L 347 653 L 339 652 L 265 629 L 230 602 L 214 579 L 238 563 L 230 562 Q 229 562 227 562 Z M 321 708 Q 332 718 365 721 L 414 725 Q 436 728 455 728 Q 493 728 520 717 L 409 712 L 321 708 Z M 1690 707 Q 1685 721 1654 724 L 1610 728 L 1586 740 Q 1571 750 1560 752 L 1495 762 L 1441 767 L 1521 767 L 1563 759 L 1604 745 L 1677 726 L 1750 707 Z M 1787 568 Q 1805 603 1810 635 L 1634 671 L 1624 674 L 1577 687 L 1544 697 L 1482 713 L 1457 719 L 1423 726 L 1343 736 L 1321 738 L 1207 745 L 1151 747 L 1118 747 L 910 727 L 809 708 L 801 705 L 799 704 L 764 689 L 722 673 L 703 669 L 669 665 L 658 664 L 534 658 L 496 657 L 403 657 L 401 660 L 475 671 L 551 672 L 609 670 Q 649 674 640 701 L 611 701 Q 614 676 590 676 Q 586 676 581 677 Q 576 703 607 715 L 660 717 Q 670 713 680 695 L 686 685 L 703 692 L 733 707 L 731 716 L 756 716 L 791 718 L 878 733 L 921 737 L 963 743 L 1021 753 L 1080 760 L 1161 762 L 1266 767 L 1309 756 Q 1337 743 1350 741 Q 1356 740 1361 740 Q 1386 740 1380 757 Q 1379 763 1369 763 Q 1365 763 1360 762 Q 1356 762 1352 762 Q 1340 762 1338 767 L 1364 773 L 1391 772 L 1407 757 L 1440 751 L 1474 750 L 1473 746 L 1545 747 L 1582 737 L 1615 720 L 1649 709 L 1682 695 Q 1718 675 1730 673 L 1756 672 L 1781 668 L 1802 656 Q 1815 646 1822 643 L 1854 634 L 1875 629 L 1886 625 Q 1904 618 1932 614 L 1979 606 L 1884 601 L 1875 599 L 1811 586 L 1815 578 L 1787 568 Z M 1120 772 Q 1111 774 1110 781 Q 1113 782 1116 782 Q 1122 782 1125 777 L 1120 772 Z M 1199 777 Q 1177 777 1176 791 Q 1187 792 1195 792 Q 1223 792 1225 777 L 1205 777 Q 1202 777 1199 777 Z" fill="rgb(255,255,255)" fill-opacity="0.200"></path></g></g></g></g></g></g><defs><defs></defs></defs></svg>