<svg color-interpolation-filters="sRGB" fill-rule="evenodd" pointer-events="none" width="100%" height="100%" xmlns="http://www.w3.org/2000/svg" xmlns:xlink="http://www.w3.org/1999/xlink" style="-webkit-user-select: none;"><g transform="matrix(0.04923325262308313 0 0 0.04923325262308313 3.471347861178373 0)"><g><rect x="-70.50819672131153" y="0" width="9587.016393442622" height="1238.9999999999998" fill="rgb(255,255,255)"></rect><g><g><g opacity="0.461"><g><g><path d="M 4723 0 Q 2767 0 1384 172 Q 730 254 371 359 Q 0 468 0 588 Q 0 704 352 810 Q 691 913 1313 994 Q 1335 960 1377 940 Q 1416 922 1460 922 Q 1466 922 1473 922 L 1952 948 Q 1972 915 2011 897 Q 2048 880 2094 880 Q 2101 880 2108 880 L 2420 894 Q 2600 905 2729 927 L 3231 950 L 3499 960 Q 3497 913 3539 879 Q 3586 842 3669 838 Q 3813 831 3978 831 Q 4176 831 4406 841 L 5141 880 L 5501 882 L 5859 904 Q 6023 903 6220 903 Q 6417 903 6646 905 L 7432 910 L 7633 908 L 7834 914 L 8149 956 L 8286 974 Q 8838 895 9138 798 Q 9447 697 9447 589 Q 9447 469 9076 360 Q 8718 255 8064 173 Q 6680 1 4724 1 Z" fill="url(#:0)"></path></g></g><filter filterUnits="userSpaceOnUse" x="0" y="0" width="9446" height="994" id=":1"></filter></g><g><g><path d="M 3897 248 Q 3849 248 3792 284 Q 3763 302 3721 302 Q 3695 302 3664 295 L 3455 286 L 3168 295 L 2967 305 L 2676 327 Q 2487 336 2178 444 Q 1870 552 1801 555 L 1612 571 L 1492 580 Q 1411 580 1292 608 Q 1159 639 1158 672 Q 1157 690 1072 715 Q 1011 732 1084 769 Q 1153 804 1312 839 Q 1476 875 1521 896 Q 1709 983 1856 1022 Q 1890 1031 1947 1068 Q 1986 1092 2104 1101 L 2295 1094 Q 2336 1088 2378 1088 Q 2416 1088 2454 1093 Q 2534 1105 2523 1120 L 2614 1117 Q 2709 1109 2753 1089 Q 2757 1089 2761 1089 Q 2808 1089 2979 1133 Q 3167 1181 3238 1187 L 3375 1195 L 3648 1218 L 3999 1228 Q 4119 1228 4147 1208 Q 4184 1180 4348 1164 L 4684 1143 L 4975 1133 Q 5071 1127 5354 1054 Q 5542 1005 5688 1005 Q 5728 1005 5765 1009 L 5989 1017 L 6127 991 Q 6230 982 6331 920 Q 6435 855 6492 848 L 6812 833 L 6929 841 L 7046 848 Q 7074 848 7179 912 Q 7285 975 7366 975 L 7512 973 L 7746 959 L 8445 896 L 8390 843 Q 8319 781 8241 738 Q 8158 691 7906 634 Q 7681 583 7600 580 L 7322 539 Q 7086 501 7031 501 L 6882 483 L 6579 453 Q 6424 445 6198 443 L 5906 434 Q 5838 430 5608 357 Q 5421 297 5277 297 Q 5262 297 5247 298 Q 5206 300 5149 300 Q 5011 300 4780 288 Q 4578 277 4480 277 Q 4431 277 4407 280 L 4141 270 L 3897 248 Z" fill="rgb(104,57,27)" fill-opacity="1.000"></path><path d="M 3897 248 Q 3849 248 3792 284 Q 3763 302 3721 302 Q 3695 302 3664 295 L 3455 286 L 3168 295 L 2967 305 L 2676 327 Q 2487 336 2178 444 Q 1870 552 1801 555 L 1612 571 L 1492 580 Q 1411 580 1292 608 Q 1159 639 1158 672 Q 1157 690 1072 715 Q 1011 732 1084 769 Q 1153 804 1312 839 Q 1476 875 1521 896 Q 1709 983 1856 1022 Q 1890 1031 1947 1068 Q 1986 1092 2104 1101 L 2295 1094 Q 2336 1088 2378 1088 Q 2416 1088 2454 1093 Q 2534 1105 2523 1120 L 2614 1117 Q 2709 1109 2753 1089 Q 2757 1089 2761 1089 Q 2808 1089 2979 1133 Q 3167 1181 3238 1187 L 3375 1195 L 3648 1218 L 3999 1228 Q 4119 1228 4147 1208 Q 4184 1180 4348 1164 L 4684 1143 L 4975 1133 Q 5071 1127 5354 1054 Q 5542 1005 5688 1005 Q 5728 1005 5765 1009 L 5989 1017 L 6127 991 Q 6230 982 6331 920 Q 6435 855 6492 848 L 6812 833 L 6929 841 L 7046 848 Q 7074 848 7179 912 Q 7285 975 7366 975 L 7512 973 L 7746 959 L 8445 896 L 8390 843 Q 8319 781 8241 738 Q 8158 691 7906 634 Q 7681 583 7600 580 L 7322 539 Q 7086 501 7031 501 L 6882 483 L 6579 453 Q 6424 445 6198 443 L 5906 434 Q 5838 430 5608 357 Q 5421 297 5277 297 Q 5262 297 5247 298 Q 5206 300 5149 300 Q 5011 300 4780 288 Q 4578 277 4480 277 Q 4431 277 4407 280 L 4141 270 L 3897 248 Z" fill="url(#:2)"></path><path d="M 3394 401 L 3373 433 Q 3351 458 3324 458 Q 3317 458 3310 456 L 3260 480 L 3226 486 L 3264 491 L 3327 492 L 3340 491 L 3361 486 L 3456 456 L 3507 426 L 3473 419 Q 3465 421 3457 421 Q 3441 421 3423 413 L 3394 401 Z M 6073 679 Q 6044 679 6031 697 Q 6012 722 6062 722 L 6200 722 Q 6130 687 6096 681 Q 6084 679 6073 679 Z M 3307 690 L 3315 723 Q 3317 741 3307 761 L 3286 814 Q 3278 843 3292 848 L 3316 844 Q 3332 833 3351 833 Q 3387 833 3416 817 L 3416 761 L 3426 752 Q 3432 740 3409 730 L 3307 690 Z M 4742 785 L 4604 809 L 4524 833 Q 4494 845 4509 856 Q 4531 872 4574 888 L 4594 894 L 4647 888 L 4695 867 L 4720 840 Q 4735 817 4742 785 Z M 8257 747 L 8256 775 Q 8252 786 8241 786 Q 8236 786 8229 783 L 8183 759 L 8153 761 L 8134 790 L 8073 795 L 8008 780 L 7973 773 L 7857 769 L 7867 780 Q 7877 793 7877 806 Q 7877 819 7847 825 L 7736 843 L 7643 852 L 7478 833 L 7329 820 L 7308 811 L 7269 800 L 7226 785 Q 7201 775 7155 770 L 7065 764 L 6963 754 L 6876 752 L 6672 754 L 6550 762 Q 6547 773 6516 775 L 6461 783 Q 6451 791 6409 796 L 6280 804 L 6074 811 Q 5962 818 5970 831 L 5981 842 Q 5987 849 5972 854 L 5910 858 L 5811 843 Q 5806 842 5800 842 Q 5748 842 5629 882 Q 5485 930 5418 933 Q 5344 936 5335 945 Q 5317 964 5267 980 Q 5210 998 5191 1019 Q 5178 1032 5126 1038 L 5058 1044 L 4961 1038 L 4826 1025 Q 4805 1022 4781 1022 Q 4749 1022 4713 1027 L 4621 1036 L 4514 1033 L 4438 1030 Q 4428 1020 4392 1012 L 4242 970 L 4160 943 L 4077 933 Q 4064 929 4052 918 L 4009 912 L 3955 915 L 3907 922 L 3853 924 L 3839 922 L 3713 933 Q 3677 938 3683 941 Q 3701 949 3688 964 Q 3673 984 3625 987 L 3548 985 L 3227 996 L 3154 989 L 3008 975 Q 2965 972 2944 972 Q 2926 972 2923 974 L 2896 985 L 2853 992 L 2814 991 Q 2800 990 2784 990 Q 2768 990 2749 992 L 2644 997 Q 2585 997 2578 1010 Q 2569 1028 2541 1034 L 2485 1039 Q 2474 1031 2459 1028 L 2413 1026 L 2337 1028 L 2285 1032 L 2240 1044 L 2190 1051 L 2148 1049 L 2075 1049 Q 2047 1049 1991 1018 Q 1917 977 1900 970 L 1701 897 Q 1665 883 1623 876 L 1592 865 L 1545 839 L 1513 820 L 1492 818 L 1461 815 L 1433 812 L 1322 786 L 1243 780 L 1106 781 Q 1173 810 1326 843 Q 1475 875 1521 897 Q 1709 984 1856 1023 Q 1890 1032 1947 1069 Q 1986 1093 2104 1102 L 2295 1095 Q 2336 1089 2378 1089 Q 2416 1089 2454 1094 Q 2534 1106 2523 1121 L 2614 1118 Q 2709 1110 2753 1090 Q 2757 1090 2761 1090 Q 2808 1090 2979 1134 Q 3167 1182 3238 1188 L 3375 1196 L 3648 1219 L 3999 1229 Q 4119 1229 4147 1209 Q 4184 1181 4348 1165 L 4684 1144 L 4975 1134 Q 5071 1128 5354 1055 Q 5542 1006 5688 1006 Q 5728 1006 5765 1010 L 5989 1018 L 6127 992 Q 6230 983 6331 921 Q 6435 856 6492 849 L 6812 834 L 6929 842 L 7046 849 Q 7074 849 7179 913 Q 7285 976 7366 976 L 7512 974 L 7746 960 L 8445 897 L 8394 848 Q 8328 791 8257 748 Z" fill="rgb(91,51,24)" fill-opacity="1.000"></path><path d="M 6579 453 L 6808 486 L 6980 509 Q 7002 515 7030 528 L 7104 536 L 7143 531 L 7181 532 L 7484 565 L 7231 524 L 7031 501 L 6882 483 L 6579 453 Z" fill="rgb(75,42,24)" fill-opacity="1.000"></path><path d="M 3310 370 Q 3304 370 3299 371 Q 3269 379 3221 413 L 3165 450 L 3182 455 L 3238 450 Q 3246 448 3252 448 Q 3268 448 3280 458 L 3310 456 L 3347 440 Q 3363 436 3372 419 Q 3384 399 3351 382 Q 3327 370 3310 370 Z M 2491 422 Q 2471 422 2456 431 L 2425 453 Q 2411 463 2406 491 L 2403 517 L 2426 504 Q 2453 490 2476 485 L 2511 471 L 2541 469 Q 2556 473 2559 491 L 2571 477 Q 2588 446 2578 438 Q 2567 428 2498 422 Q 2494 422 2491 422 Z M 4135 693 Q 4133 693 4128 698 L 4131 698 Q 4132 698 4133 698 Q 4139 698 4136 693 Q 4136 693 4135 693 Z M 4127 698 L 4080 699 L 4128 698 Z M 7370 703 Q 7353 703 7345 714 L 7339 726 L 7360 733 L 7394 740 Q 7412 740 7413 723 Q 7414 706 7373 703 Q 7372 703 7370 703 Z M 6320 702 Q 6302 702 6283 717 Q 6259 736 6292 740 Q 6297 740 6301 740 Q 6326 740 6336 725 Q 6348 707 6330 703 Q 6325 702 6320 702 Z M 5656 689 Q 5626 689 5598 708 Q 5564 731 5585 735 Q 5618 742 5643 751 L 5669 754 Q 5704 747 5722 725 Q 5743 698 5669 690 Q 5662 689 5656 689 Z M 5209 709 Q 5202 709 5200 717 Q 5196 735 5216 754 Q 5237 772 5262 772 Q 5287 772 5303 739 Q 5317 711 5296 711 Q 5293 711 5290 711 Q 5267 715 5249 715 Q 5229 715 5214 710 Q 5211 709 5209 709 Z M 4226 674 Q 4223 674 4219 674 Q 4193 678 4175 697 L 4140 734 Q 4119 750 4117 774 Q 4115 786 4118 795 L 4137 781 Q 4161 764 4185 753 Q 4212 740 4231 736 L 4285 728 L 4269 699 Q 4250 674 4226 674 Z M 4592 707 Q 4573 707 4560 710 Q 4543 714 4526 724 L 4487 747 Q 4410 788 4431 795 L 4475 805 L 4532 801 L 4566 788 L 4605 783 Q 4669 783 4694 765 Q 4711 753 4722 728 Q 4638 707 4592 707 Z M 2688 753 L 2640 756 L 2610 759 Q 2599 759 2604 777 L 2610 795 L 2632 801 L 2671 807 L 2704 811 Q 2706 811 2707 811 Q 2724 811 2733 801 L 2750 783 L 2688 753 Z M 3916 678 L 3871 680 L 3776 698 L 3641 710 Q 3630 710 3604 735 L 3580 759 Q 3580 778 3592 793 Q 3606 809 3630 813 L 3708 819 L 3755 813 L 3798 807 L 3819 806 Q 3829 795 3865 777 Q 3902 759 3943 733 Q 3973 716 4000 716 L 4035 709 Q 4050 701 4079 698 L 4023 682 L 3972 680 L 3916 678 Z M 1735 813 Q 1690 825 1696 844 L 1702 861 L 1729 868 Q 1746 871 1748 887 Q 1748 888 1749 888 Q 1752 888 1763 874 Q 1781 852 1760 830 L 1735 813 Z M 4806 807 L 4706 862 L 4688 877 Q 4676 892 4700 892 L 4750 892 L 4800 879 L 4868 850 L 4806 807 Z M 2368 880 L 2319 885 Q 2296 895 2312 905 L 2338 916 L 2368 917 Q 2394 917 2402 903 Q 2410 888 2368 880 Z" fill="rgb(118,63,30)" fill-opacity="1.000"></path><path d="M 3897 248 Q 3849 248 3792 284 Q 3763 302 3721 302 Q 3695 302 3664 295 L 3455 286 L 3168 295 L 2967 305 L 2676 327 Q 2487 336 2178 444 Q 1870 552 1801 555 L 1612 571 L 1492 580 Q 1411 580 1292 608 Q 1159 639 1158 672 Q 1157 690 1072 715 Q 1011 732 1084 769 Q 1119 787 1162 801 L 1164 793 L 1175 746 Q 1175 737 1192 731 L 1226 718 L 1253 715 Q 1254 715 1254 715 Q 1258 715 1248 706 Q 1237 696 1204 693 Q 1193 692 1226 686 Q 1252 682 1284 648 Q 1313 619 1368 619 L 1567 603 L 1732 584 L 1838 580 L 1882 581 L 1918 576 L 1970 561 L 1995 552 Q 2001 552 2069 513 Q 2143 470 2173 461 L 2254 441 Q 2257 441 2258 441 Q 2266 441 2262 444 L 2279 438 Q 2301 428 2317 425 L 2348 418 L 2563 374 Q 2576 372 2580 363 L 2644 355 L 2973 330 L 3325 307 L 3577 311 L 3617 312 L 3650 315 L 3759 323 L 3783 325 L 3839 327 L 3913 338 Q 3915 339 3917 339 Q 3923 339 3923 331 L 3883 306 Q 3866 295 3956 295 L 4098 286 L 4182 291 L 4245 309 L 4290 311 L 4337 311 L 4367 313 L 4389 311 L 4413 306 L 4458 303 L 4986 311 L 5391 319 L 5495 340 Q 5606 364 5642 378 L 5712 400 Q 5751 408 5774 418 L 5821 436 L 5868 441 L 5912 446 L 5967 445 L 6094 441 L 5906 434 Q 5838 430 5608 357 Q 5421 297 5277 297 Q 5262 297 5247 298 Q 5206 300 5149 300 Q 5011 300 4780 288 Q 4578 277 4480 277 Q 4431 277 4407 280 L 4141 270 L 3897 248 Z M 3361 744 L 3356 771 L 3344 790 Q 3265 845 3273 845 L 3309 848 Q 3339 848 3351 833 L 3367 809 L 3373 790 L 3382 749 L 3361 744 Z M 1317 811 L 1299 813 Q 1312 819 1307 827 Q 1304 833 1289 834 L 1417 863 Q 1485 879 1521 896 Q 1709 983 1856 1022 Q 1901 1034 1935 1059 Q 1965 1081 2011 1090 Q 1915 1047 1910 1038 L 1885 991 Q 1877 975 1856 969 L 1822 959 L 1797 949 L 1769 948 L 1720 936 L 1652 917 L 1604 900 L 1569 880 L 1541 866 L 1521 864 L 1499 858 Q 1481 848 1463 843 Q 1443 843 1399 827 L 1358 813 L 1317 811 Z M 2415 1059 L 2392 1060 Q 2393 1065 2371 1070 L 2351 1074 Q 2357 1070 2342 1070 L 2294 1070 L 2268 1072 L 2230 1085 L 2203 1093 Q 2216 1093 2201 1101 L 2195 1104 L 2317 1091 Q 2344 1087 2375 1087 Q 2412 1087 2454 1093 Q 2525 1104 2525 1115 L 2522 1121 L 2532 1123 L 2522 1080 Q 2519 1066 2485 1062 L 2415 1059 Z M 2762 1021 Q 2738 1021 2725 1031 L 2716 1043 L 2678 1043 L 2660 1046 Q 2666 1057 2653 1070 L 2641 1080 Q 2641 1070 2629 1070 Q 2613 1070 2603 1082 L 2576 1117 L 2573 1120 L 2614 1117 Q 2709 1109 2753 1089 Q 2757 1089 2761 1089 Q 2808 1089 2979 1133 L 3048 1150 Q 2977 1118 2935 1106 Q 2865 1087 2847 1068 L 2843 1054 L 2829 1040 Q 2808 1025 2775 1022 Q 2768 1021 2762 1021 Z M 6774 792 L 6681 796 Q 6606 796 6563 809 L 6448 833 Q 6376 841 6307 876 Q 6241 910 6210 912 L 6142 917 Q 6109 919 6099 929 L 6059 933 Q 6042 932 6006 932 Q 5988 932 5965 932 L 5860 927 L 5819 924 L 5768 933 L 5725 936 L 5700 943 L 5510 969 Q 5477 974 5369 1020 Q 5261 1066 5194 1075 L 5077 1092 L 4941 1101 L 4845 1102 L 4800 1091 L 4761 1085 L 4752 1085 L 4707 1083 L 4596 1080 Q 4536 1080 4504 1091 L 4426 1101 L 4357 1105 L 4324 1101 L 4206 1084 L 4087 1075 Q 4018 1075 3965 1054 L 3902 1027 Q 3805 991 3786 991 Q 3762 991 3847 1067 Q 3862 1080 3858 1090 Q 3853 1100 3859 1106 Q 3882 1132 3844 1159 L 3829 1167 Q 3827 1159 3810 1159 L 3679 1122 Q 3562 1085 3533 1085 Q 3499 1085 3459 1112 L 3426 1138 L 3392 1143 L 3355 1149 Q 3337 1153 3300 1170 L 3273 1182 Q 3276 1181 3275 1181 Q 3274 1181 3261 1185 L 3253 1188 L 3303 1190 L 3375 1195 L 3648 1218 L 3999 1228 Q 4119 1228 4147 1208 Q 4184 1180 4348 1164 L 4684 1143 L 4975 1133 Q 5071 1127 5354 1054 Q 5542 1005 5688 1005 Q 5728 1005 5765 1009 L 5989 1017 L 6127 991 Q 6230 982 6331 920 Q 6435 855 6492 848 L 6812 833 L 6929 841 L 7046 848 Q 7074 848 7179 912 Q 7285 975 7366 975 L 7512 973 L 7746 959 L 8445 896 L 8414 864 L 8392 869 L 8377 875 Q 8375 869 8358 869 L 8338 868 L 8300 864 L 8257 862 L 8222 880 Q 8203 889 8195 889 Q 8193 889 8192 888 L 8125 880 L 8049 878 L 8032 875 L 7959 875 Q 7931 875 7929 884 L 7921 917 Q 7913 930 7905 930 Q 7903 930 7901 929 Q 7872 917 7823 917 L 7760 920 L 7741 922 L 7699 918 L 7639 906 L 7561 894 L 7488 890 L 7443 888 L 7386 885 L 7331 891 L 7284 896 Q 7245 896 7220 882 L 7167 848 Q 7133 830 7079 820 L 6983 811 L 6929 807 L 6842 796 L 6774 792 Z" fill="rgb(75,42,24)" fill-opacity="1.000"></path><path d="M 7939 748 L 7806 753 Q 7794 756 7823 761 L 7887 768 L 7957 774 L 8030 783 L 8089 805 L 8134 808 L 8163 793 Q 8035 753 7939 748 Z M 6867 739 Q 6832 739 6810 741 L 6672 754 L 6575 758 L 6541 753 L 6449 768 L 6294 783 L 6236 791 L 6199 798 L 6356 808 L 6462 796 L 6594 783 L 6726 773 L 6893 763 L 7107 778 L 7170 795 L 7207 808 Q 7410 843 7540 843 L 7754 833 L 7673 833 L 7582 827 L 7469 813 L 7366 806 L 7293 798 L 7210 771 Q 7137 749 7003 743 Q 6920 739 6867 739 Z M 5761 828 L 5708 842 L 5676 853 L 5730 843 Q 5760 839 5780 839 Q 5800 839 5811 844 Q 5844 858 5918 869 Q 5921 870 5924 870 Q 5938 870 5953 859 L 5957 857 L 5890 834 L 5761 829 Z M 3682 934 L 3630 937 L 3538 945 Q 3511 947 3487 947 Q 3454 947 3428 943 Q 3404 939 3385 939 Q 3367 939 3354 943 L 3288 955 L 3188 958 L 3148 961 L 3120 992 L 3168 1002 L 3249 1016 L 3344 997 Q 3422 973 3456 973 L 3680 973 Q 3734 936 3713 934 Z M 2610 979 L 2562 986 L 2514 992 L 2459 987 L 2377 991 Q 2357 994 2339 994 Q 2321 994 2304 991 Q 2288 988 2270 988 Q 2249 988 2224 992 L 2152 996 L 2123 985 L 2050 1016 L 2044 1040 Q 2042 1049 2052 1049 Q 2057 1049 2066 1046 L 2112 1034 L 2207 1034 L 2255 1025 L 2308 1016 L 2460 1028 L 2512 1027 L 2577 1016 L 2743 995 L 2840 979 Z M 4161 944 Q 4139 948 4195 960 L 4286 979 Q 4315 989 4333 998 L 4393 1034 Q 4420 1052 4461 1052 Q 4472 1052 4483 1051 L 4572 1040 L 4645 1034 L 4714 1028 L 5026 1040 Q 5056 1041 5079 1041 Q 5195 1041 5138 1016 L 5009 1016 L 4922 1012 L 4852 998 L 4737 986 L 4600 979 L 4517 971 L 4443 967 L 4286 953 L 4161 944 Z" fill="rgb(118,63,30)" fill-opacity="1.000"></path><path d="M 4179 754 Q 4148 754 4131 791 L 4118 833 L 4151 845 Q 4219 820 4230 802 L 4257 754 L 4257 754 Q 4248 757 4231 757 Q 4213 757 4186 754 Q 4183 754 4180 754 Z M 4175 687 L 4001 717 L 3928 741 Q 3882 757 3850 781 L 3827 802 L 3799 808 L 3738 816 Q 3693 822 3676 833 Q 3659 844 3674 855 L 3693 863 L 3698 899 L 3743 930 Q 3767 946 3851 950 Q 3946 955 3979 966 L 4008 944 Q 4033 920 4010 912 L 3950 883 L 3917 863 L 3906 833 L 3950 806 L 4023 766 Q 4063 748 4175 687 Z M 4791 879 Q 4771 879 4752 902 Q 4729 932 4765 943 Q 4791 951 4785 966 L 4816 959 Q 4860 943 4845 914 Q 4831 888 4801 880 Q 4796 879 4791 879 Z M 3087 875 L 3016 918 Q 2977 936 2969 942 L 2939 973 Q 2928 991 2947 991 L 3121 991 L 3113 977 Q 3109 962 3126 954 L 3162 935 Q 3177 922 3177 906 Q 3177 890 3132 881 L 3087 875 Z" fill="rgb(91,51,24)" fill-opacity="1.000"></path><path d="M 8163 768 Q 8151 768 8156 781 L 8163 793 L 8179 811 Q 8195 833 8201 858 L 8207 876 Q 8209 873 8212 873 Q 8216 873 8222 880 Q 8236 895 8256 896 L 8306 893 Q 8335 890 8340 881 L 8339 873 L 8268 833 L 8245 814 L 8211 788 L 8181 771 L 8163 768 Z M 7857 769 L 7876 784 Q 7897 801 7906 813 L 7919 837 L 7939 883 L 7950 905 Q 7949 901 7949 901 L 7949 901 Q 7950 901 7954 908 Q 7961 920 7972 920 Q 7976 920 7980 919 L 8006 908 L 8087 888 L 8073 878 L 8030 838 L 8010 812 Q 7995 798 7968 798 L 7896 784 L 7857 769 Z M 3102 887 Q 3090 887 3083 905 L 3067 940 L 3042 964 L 3029 981 L 3045 1045 L 3075 1059 Q 3067 1050 3079 1013 L 3088 975 Q 3089 961 3096 954 L 3138 918 L 3144 916 L 3159 904 Q 3167 896 3144 894 L 3113 890 Q 3107 887 3102 887 Z M 4093 726 Q 3971 785 3887 804 Q 3834 815 3828 838 Q 3825 849 3832 858 L 3828 899 Q 3825 921 3840 929 Q 3856 937 3857 950 Q 3860 993 3833 993 Q 3832 993 3831 993 L 3802 981 L 3844 1022 L 3920 1068 Q 3937 1078 3952 1078 Q 3962 1078 3971 1073 L 3945 1009 L 3934 980 L 3929 968 Q 3921 954 3928 936 L 3937 922 Q 3937 895 3916 863 Q 3903 843 3997 783 Q 4044 752 4093 726 Z" fill="rgb(75,42,24)" fill-opacity="1.000"></path><path d="M 4561 199 Q 4545 199 4511 225 L 4458 272 L 4363 224 L 4239 240 Q 4222 245 4200 338 L 4182 430 L 3158 517 L 2089 603 Q 2050 603 2026 580 L 1973 509 Q 1946 469 1908 469 L 1849 477 L 1816 481 L 1776 509 Q 1753 525 1707 624 Q 1658 727 1638 746 L 3715 651 L 7877 667 L 7877 619 L 7772 588 Q 7665 556 7651 556 L 7089 580 Q 7082 580 7074 580 Q 6900 580 6088 480 L 5267 374 L 4691 319 Q 4589 248 4574 208 Q 4571 199 4561 199 Z" fill="rgb(95,54,29)" fill-opacity="1.000"></path><path d="M 7003 743 Q 7001 780 6983 811 L 6964 843 Q 6969 823 6936 798 L 6903 773 L 6910 797 L 6917 833 L 6917 848 L 6903 828 Q 6884 808 6860 808 L 6803 808 L 6833 821 Q 6861 837 6855 853 Q 6846 875 6889 875 Q 6901 875 6917 873 L 7017 858 L 7050 858 Q 7060 848 7064 828 L 7069 808 L 7031 833 Q 7012 828 7007 798 L 7003 743 Z" fill="url(#:3)"></path><path d="M 6351 838 L 6338 839 Q 6324 845 6321 873 L 6318 918 L 6295 890 Q 6275 863 6275 848 L 6270 943 Q 6227 898 6204 888 L 6180 878 L 6197 901 Q 6213 926 6213 938 L 6213 958 Q 6189 968 6165 968 L 6142 968 L 6189 993 L 6280 963 Q 6313 953 6346 923 Q 6337 903 6341 883 L 6351 838 Z" fill="url(#:4)"></path><path d="M 5752 833 L 5766 893 Q 5780 953 5765 1009 L 5784 1013 L 5828 1028 L 5875 1033 L 5856 1013 Q 5844 1001 5839 978 L 5837 958 L 5814 998 L 5804 938 Q 5801 916 5776 872 L 5752 833 Z" fill="url(#:5)"></path><path d="M 4169 1128 L 4117 1133 L 4101 1150 Q 4085 1170 4086 1186 Q 4087 1199 4077 1199 Q 4065 1199 4036 1178 Q 4035 1177 4034 1177 Q 4033 1177 4035 1180 Q 4045 1194 4045 1208 L 4045 1233 L 4076 1237 L 4121 1238 Q 4140 1233 4174 1188 L 4181 1177 Q 4190 1164 4202 1158 L 4221 1148 L 4140 1168 L 4169 1128 Z" fill="url(#:6)"></path><path d="M 1663 951 L 1596 953 L 1609 966 Q 1628 981 1659 990 Q 1684 998 1692 1019 Q 1697 1033 1714 1033 Q 1716 1033 1718 1033 L 1759 1038 L 1790 1033 Q 1810 1021 1791 989 Q 1772 959 1752 954 L 1663 951 Z" fill="url(#:7)"></path><path d="M 4392 201 L 4330 205 L 4290 208 Q 4276 208 4256 224 L 4239 240 L 4211 280 L 4204 335 L 4225 310 Q 4252 284 4283 280 L 4320 266 L 4363 264 L 4458 272 L 4392 201 Z M 5076 403 L 5028 407 Q 5004 416 5025 426 L 5055 439 L 5088 439 Q 5112 436 5104 421 Q 5097 406 5076 403 Z M 3882 421 Q 3855 421 3830 439 Q 3804 457 3828 467 L 3863 480 L 3895 480 Q 3924 476 3937 444 Q 3938 438 3932 433 Q 3919 421 3882 421 Z M 4569 382 Q 4558 382 4539 390 Q 4497 408 4457 443 L 4426 474 L 4364 498 L 4516 498 L 4567 492 L 4606 486 Q 4613 486 4606 491 L 4656 492 L 4737 484 L 4830 480 Q 4900 480 4861 453 L 4807 426 Q 4792 425 4771 425 Q 4743 425 4704 427 L 4619 422 Q 4598 416 4585 390 Q 4581 382 4570 382 Z M 5696 406 Q 5687 406 5670 422 Q 5643 446 5635 492 Q 5631 514 5633 532 Q 5663 509 5657 497 Q 5656 493 5692 485 Q 5738 475 5761 446 L 5776 418 L 5776 418 Q 5769 418 5762 418 Q 5720 418 5700 407 Q 5698 406 5696 406 Z M 6115 505 L 6115 541 L 6333 505 Z M 5330 444 Q 5284 464 5251 479 Q 5188 508 5184 523 Q 5181 535 5164 546 L 5178 547 L 5221 536 L 5279 529 L 5329 527 L 5375 529 L 5481 535 Q 5503 540 5515 540 Q 5533 540 5526 529 Q 5515 511 5330 444 Z M 6659 508 L 6600 511 L 6579 517 L 6601 532 L 6642 553 L 6718 562 Q 6772 553 6776 539 Q 6780 530 6742 520 L 6659 508 Z M 7609 548 L 7542 550 Q 7530 552 7486 565 L 7440 578 L 7412 603 L 7389 625 L 7376 635 L 7430 629 Q 7486 621 7500 611 Q 7512 603 7556 593 L 7602 580 L 7646 583 L 7740 603 L 7830 612 Q 7869 610 7842 603 Q 7827 599 7799 580 Q 7769 560 7755 556 L 7699 549 L 7609 548 Z M 7050 608 Q 7021 608 6998 617 L 6982 626 L 6988 629 L 7033 635 L 7085 644 L 7121 640 Q 7140 631 7097 619 L 7050 608 Z M 6057 599 Q 6053 599 6049 599 Q 6027 601 6021 625 Q 6015 649 6032 649 L 6054 640 Q 6065 631 6078 631 L 6104 631 L 6094 613 Q 6080 599 6057 599 Z M 1844 429 Q 1807 429 1777 445 Q 1742 464 1742 485 Q 1742 492 1747 492 Q 1750 492 1756 488 L 1756 488 L 1742 509 Q 1719 538 1710 570 L 1705 596 L 1705 667 L 1718 664 L 1742 643 Q 1759 614 1785 596 Q 1794 589 1787 578 Q 1780 568 1803 555 L 1851 527 Q 1871 517 1895 517 L 1975 509 L 1945 473 Q 1907 435 1866 430 Q 1855 429 1844 429 Z M 6966 649 Q 6932 649 6899 665 L 6873 681 L 6894 688 L 6936 694 L 6969 699 L 6999 694 Q 7020 683 7012 667 Q 7004 649 6966 649 Z M 2913 568 Q 2902 568 2897 571 L 2797 626 L 2729 656 Q 2719 660 2698 677 L 2679 693 L 2780 711 L 2841 705 L 2857 695 Q 2879 683 2914 675 L 2967 663 L 2998 632 L 3026 596 Q 2946 568 2913 568 Z M 1495 691 L 1462 693 L 1437 692 L 1445 699 L 1507 741 L 1520 745 L 1557 748 L 1619 748 L 1658 735 L 1557 693 L 1495 691 Z M 2185 705 L 2135 713 L 2099 714 L 2037 717 L 1989 722 L 1963 724 L 1928 748 Q 1907 763 1895 784 L 1888 802 L 1897 809 Q 1908 816 1922 820 L 1950 826 L 1995 827 L 2079 827 L 2129 814 L 2159 811 L 2180 790 L 2213 754 L 2185 705 Z" fill="rgb(118,63,30)" fill-opacity="1.000"></path><path d="M 2602 444 Q 2591 444 2581 458 L 2571 477 Q 2563 517 2534 532 L 2491 539 L 2454 540 L 2532 556 L 2636 572 Q 2685 572 2716 548 Q 2738 532 2687 524 L 2629 453 L 2607 445 Q 2604 444 2602 444 Z M 5825 457 Q 5814 457 5800 461 Q 5777 467 5720 509 Q 5706 518 5690 538 L 5676 556 L 5704 571 L 5770 576 L 5845 571 Q 5886 570 5902 556 L 5931 532 Q 5953 485 5931 477 L 5880 466 L 5844 461 Q 5837 457 5826 457 Z M 4657 492 Q 4634 499 4599 522 Q 4567 544 4550 547 L 4433 565 L 4385 578 Q 4349 590 4405 590 L 4505 587 L 4590 590 Q 4624 593 4646 593 Q 4668 593 4679 590 L 4705 594 Q 4741 594 4797 571 L 4887 535 L 4909 498 L 4657 492 Z M 6153 559 Q 6139 559 6165 571 Q 6204 590 6226 595 L 6261 598 L 6317 590 Q 6411 577 6374 570 L 6255 565 L 6158 559 Q 6155 559 6153 559 Z M 5336 553 Q 5276 553 5239 568 L 5190 597 Q 5168 608 5169 617 Q 5170 627 5212 627 L 5271 633 L 5313 639 L 5351 642 L 5414 627 Q 5487 603 5526 597 Q 5514 588 5487 578 Q 5434 558 5364 554 Q 5350 553 5336 553 Z M 3043 597 L 2998 633 Q 2989 676 2959 676 L 2937 674 L 2914 676 L 2869 693 L 2841 706 L 2780 712 L 2684 724 Q 2659 731 2704 739 L 2769 755 L 2785 767 Q 2757 791 2735 803 L 2682 820 L 2645 828 L 2694 829 L 2769 821 Q 2802 809 2825 767 L 2903 767 Q 2967 767 3015 736 Q 3029 727 3110 704 Q 3171 686 3155 676 Q 3138 665 3123 662 L 3099 657 Q 3097 656 3096 656 Q 3091 656 3091 666 L 3083 651 L 3057 611 L 3043 597 Z" fill="rgb(91,51,24)" fill-opacity="1.000"></path><path d="M 8044 868 Q 8073 898 8063 918 Q 8054 938 8020 938 L 8020 958 L 8125 948 Q 8173 938 8192 928 Q 8163 928 8163 903 L 8163 878 L 8134 913 Q 8101 888 8073 878 L 8044 868 Z" fill="url(#:8)"></path><path d="M 4574 208 L 4511 215 L 4487 216 L 4450 216 L 4407 280 L 4399 281 Q 4391 287 4389 311 Q 4385 351 4392 406 L 4402 376 Q 4415 342 4429 327 L 4450 303 L 4472 291 Q 4498 277 4516 272 L 4582 264 Q 4605 264 4592 236 L 4574 208 Z" fill="rgb(118,63,30)" fill-opacity="1.000"></path><path d="M 4618 286 Q 4591 286 4560 327 Q 4548 343 4542 368 L 4538 390 L 4538 406 Q 4542 422 4560 422 L 4618 422 L 4713 406 L 4728 351 L 4662 319 Q 4653 299 4635 290 Q 4627 286 4618 286 Z M 7757 602 L 7731 603 L 7666 618 Q 7638 628 7607 651 Q 7590 663 7575 686 L 7563 706 L 7573 710 L 7622 714 L 7746 717 L 7833 714 L 7928 698 L 7935 683 Q 7939 667 7921 667 L 7895 664 L 7848 643 L 7819 628 L 7789 619 Q 7760 611 7757 602 Z M 1956 500 Q 1946 500 1930 504 L 1893 517 Q 1907 548 1885 588 Q 1872 612 1863 650 L 1856 682 Q 1852 681 1847 681 Q 1823 681 1789 699 Q 1772 711 1754 722 L 1776 734 Q 1802 746 1820 746 L 1866 750 L 1907 754 Q 1929 754 1987 722 L 2097 714 L 2145 704 Q 2176 694 2192 682 Q 2213 667 2097 651 L 2060 619 L 2017 596 L 1995 552 Q 1980 532 1973 509 Q 1971 500 1956 500 Z M 2240 735 Q 2240 747 2232 760 Q 2216 786 2178 790 L 2172 800 L 2127 814 L 2063 816 L 2015 814 Q 1998 814 1952 839 L 1909 863 L 1968 878 Q 1990 883 1993 893 Q 1998 912 1993 936 L 1959 966 L 1967 987 Q 1980 1010 2004 1021 Q 2024 1030 2032 1060 Q 2033 1062 2034 1062 Q 2037 1062 2043 1039 L 2061 969 Q 2068 944 2083 936 L 2095 922 Q 2098 913 2127 899 Q 2178 875 2228 875 L 2268 857 Q 2312 820 2312 796 L 2315 762 Q 2315 745 2301 741 L 2262 736 L 2240 735 Z" fill="rgb(91,51,24)" fill-opacity="1.000"></path><path d="M 2621 489 L 2604 503 L 2549 534 L 2516 544 L 2546 546 L 2608 544 L 2648 535 L 2667 517 Q 2680 498 2621 489 Z M 5837 494 L 5798 517 L 5765 530 L 5682 548 Q 5641 556 5664 556 Q 5668 556 5675 556 L 5736 555 L 5769 553 L 5795 551 L 5832 530 Q 5864 513 5854 502 L 5837 494 Z M 3068 643 Q 3060 643 3050 644 L 3038 666 L 3020 681 L 2974 703 L 2873 735 Q 2900 739 2923 739 Q 2949 739 2969 734 L 3020 708 L 3069 682 Q 3096 667 3097 656 Q 3099 643 3068 643 Z" fill="rgb(75,42,24)" fill-opacity="1.000"></path><path d="M 4407 280 L 4337 311 L 4290 321 Q 4265 328 4261 343 L 4247 398 Q 4247 430 4283 430 Q 4315 430 4354 415 Q 4380 405 4389 405 Q 4391 405 4392 406 L 4407 414 Q 4399 382 4399 351 L 4403 304 L 4407 280 Z" fill="rgb(91,51,24)" fill-opacity="1.000"></path><path d="M 7747 633 Q 7740 633 7733 635 Q 7712 641 7687 653 Q 7654 669 7649 681 Q 7645 690 7609 693 L 7641 699 L 7704 712 L 7746 708 L 7802 698 Q 7816 696 7826 685 Q 7838 671 7800 650 Q 7770 633 7747 633 Z M 1971 584 Q 1955 584 1952 603 L 1942 677 Q 1937 692 1918 694 Q 1900 697 1872 710 L 1847 722 L 1869 740 Q 1887 751 1906 751 Q 1916 751 1926 748 L 1971 733 L 2003 717 L 2070 685 L 2097 664 Q 2108 651 2100 651 Q 2099 651 2097 651 L 2078 653 L 1998 594 Q 1988 587 1977 585 Q 1974 584 1971 584 Z M 2263 754 L 2213 817 Q 2188 854 2162 863 L 2122 871 L 2045 872 L 2060 879 L 2104 886 L 2162 881 Q 2180 878 2202 864 Q 2228 848 2242 827 Q 2263 795 2263 754 Z" fill="rgb(75,42,24)" fill-opacity="1.000"></path></g></g></g></g></g></g><defs><defs></defs><radialGradient r="1" cx="0" cy="0" gradientUnits="userSpaceOnUse" gradientTransform="matrix(3755 79.5 555 -512.5 4461 661)" id=":0"><stop offset="0" stop-color="rgb(0,0,0)" stop-opacity="0.427"></stop><stop offset="1" stop-color="rgb(0,0,0)" stop-opacity="0.000"></stop></radialGradient><radialGradient r="1" cx="0" cy="0" gradientUnits="userSpaceOnUse" gradientTransform="matrix(3040 0 0 -335.25 4752 618)" id=":2"><stop offset="0" stop-color="rgb(93,51,25)" stop-opacity="1.000"></stop><stop offset="1" stop-color="rgb(104,59,32)" stop-opacity="1.000"></stop></radialGradient><linearGradient x1="-1" x2="1" y1="0" y2="0" gradientUnits="userSpaceOnUse" gradientTransform="matrix(133 0 0 -133 6936 809)" id=":3"><stop offset="0" stop-color="rgb(112,101,32)" stop-opacity="1.000"></stop><stop offset="1" stop-color="rgb(113,102,33)" stop-opacity="1.000"></stop></linearGradient><linearGradient x1="-1" x2="1" y1="0" y2="0" gradientUnits="userSpaceOnUse" gradientTransform="matrix(104.5 0 0 -104.5 6246 915)" id=":4"><stop offset="0" stop-color="rgb(112,101,32)" stop-opacity="1.000"></stop><stop offset="1" stop-color="rgb(113,102,33)" stop-opacity="1.000"></stop></linearGradient><linearGradient x1="-1" x2="1" y1="0" y2="0" gradientUnits="userSpaceOnUse" gradientTransform="matrix(61.75 0 0 -61.75 5814 934)" id=":5"><stop offset="0" stop-color="rgb(112,101,32)" stop-opacity="1.000"></stop><stop offset="1" stop-color="rgb(113,102,33)" stop-opacity="1.000"></stop></linearGradient><linearGradient x1="-1" x2="1" y1="0" y2="0" gradientUnits="userSpaceOnUse" gradientTransform="matrix(95 0 0 -95 4126 1183)" id=":6"><stop offset="0" stop-color="rgb(112,101,32)" stop-opacity="1.000"></stop><stop offset="1" stop-color="rgb(113,102,33)" stop-opacity="1.000"></stop></linearGradient><linearGradient x1="-1" x2="1" y1="0" y2="0" gradientUnits="userSpaceOnUse" gradientTransform="matrix(90.25 53.5 53.5 -90.25 1703 978)" id=":7"><stop offset="0" stop-color="rgb(112,101,32)" stop-opacity="1.000"></stop><stop offset="1" stop-color="rgb(113,102,33)" stop-opacity="1.000"></stop></linearGradient><linearGradient x1="-1" x2="1" y1="0" y2="0" gradientUnits="userSpaceOnUse" gradientTransform="matrix(85.5 0 0 -85.5 8106 913)" id=":8"><stop offset="0" stop-color="rgb(112,101,32)" stop-opacity="1.000"></stop><stop offset="1" stop-color="rgb(113,102,33)" stop-opacity="1.000"></stop></linearGradient></defs></svg>