<svg color-interpolation-filters="sRGB" fill-rule="evenodd" pointer-events="none" width="100%" height="100%" xmlns="http://www.w3.org/2000/svg" xmlns:xlink="http://www.w3.org/1999/xlink" style="-webkit-user-select: none;"><g transform="matrix(0.049832962138084635 0 0 0.049832962138084635 0.35036191536747197 0)"><g><rect x="-7.030726256983012" y="0" width="6903.061452513966" height="3592" fill="rgb(255,255,255)"></rect><g><g><g><g><path d="M 4140 3092 L 4136 3093 L 4131 3093 L 4106 3124 L 4104 3107 Q 4092 3131 4080 3140 Q 4078 3112 4072 3101 L 4060 3117 L 4054 3106 L 4047 3096 L 4024 3116 L 4016 3093 Q 4004 3097 3999 3100 L 4002 3111 L 4020 3148 L 4027 3156 L 4024 3150 L 4024 3150 Q 4034 3166 4032 3176 L 4030 3174 L 4040 3221 L 4071 3231 L 4075 3232 Q 4076 3223 4087 3211 L 4104 3191 L 4111 3204 L 4113 3192 L 4116 3210 L 4149 3171 L 4143 3174 Q 4172 3137 4173 3102 L 4173 3102 Q 4147 3131 4135 3151 L 4140 3092 Z M 5534 3251 Q 5534 3251 5534 3251 Q 5534 3251 5534 3252 L 5523 3252 L 5534 3251 L 5534 3251 Z M 5293 3027 L 5309 3094 Q 5337 3171 5402 3213 Q 5459 3249 5528 3253 L 5586 3249 L 5534 3251 L 5534 3251 Q 5532 3241 5544 3224 L 5560 3195 L 5571 3209 L 5571 3193 L 5579 3215 L 5608 3161 L 5603 3164 Q 5629 3114 5622 3066 L 5622 3066 Q 5597 3110 5587 3137 L 5580 3062 L 5569 3066 Q 5561 3090 5545 3112 L 5542 3101 L 5538 3091 Q 5534 3097 5529 3114 L 5517 3137 L 5497 3091 L 5486 3115 L 5476 3102 L 5464 3091 L 5441 3122 L 5425 3095 L 5405 3109 L 5385 3089 L 5379 3099 L 5403 3128 L 5401 3114 L 5419 3141 L 5425 3151 L 5443 3162 L 5452 3168 L 5449 3165 L 5449 3165 Q 5466 3180 5467 3194 L 5452 3187 L 5471 3217 Q 5452 3208 5433 3189 L 5433 3189 L 5436 3196 Q 5403 3182 5387 3160 L 5387 3160 L 5388 3162 Q 5369 3157 5355 3139 L 5334 3104 L 5343 3112 Q 5356 3112 5368 3127 L 5364 3108 L 5377 3122 L 5377 3100 L 5372 3101 L 5359 3091 L 5354 3101 L 5328 3070 Q 5310 3051 5305 3038 L 5293 3027 Z M 3947 3271 Q 3934 3316 3931 3350 L 3903 3277 L 3892 3284 L 3882 3333 L 3869 3313 L 3867 3339 L 3861 3364 L 3828 3322 L 3823 3348 L 3809 3338 Q 3801 3330 3794 3329 L 3780 3365 L 3756 3340 L 3740 3359 L 3715 3343 L 3709 3354 Q 3723 3361 3743 3379 L 3737 3364 L 3763 3388 L 3773 3398 L 3793 3404 L 3800 3406 L 3802 3407 Q 3821 3418 3826 3432 L 3810 3428 L 3837 3455 Q 3812 3448 3791 3434 L 3791 3434 L 3796 3441 Q 3759 3433 3738 3416 Q 3717 3414 3698 3399 L 3666 3368 L 3678 3375 Q 3681 3374 3684 3374 Q 3694 3374 3707 3384 Q 3700 3378 3698 3366 L 3698 3366 L 3715 3378 L 3708 3355 L 3704 3357 Q 3703 3357 3702 3357 Q 3695 3357 3688 3350 L 3686 3361 L 3651 3336 L 3620 3308 L 3604 3299 L 3638 3363 Q 3689 3434 3766 3464 Q 3814 3482 3863 3482 Q 3884 3482 3905 3479 L 3910 3478 Q 3905 3468 3912 3447 L 3920 3414 L 3935 3426 L 3931 3410 L 3945 3431 Q 3954 3412 3960 3367 L 3960 3367 L 3956 3375 Q 3967 3316 3947 3271 Z M 6450 3292 L 6452 3360 Q 6465 3441 6520 3495 Q 6567 3541 6631 3558 L 6642 3560 Q 6643 3550 6657 3534 L 6678 3509 L 6686 3525 L 6689 3510 L 6693 3533 Q 6711 3518 6734 3483 L 6734 3483 L 6727 3488 Q 6764 3442 6765 3396 L 6765 3396 Q 6730 3435 6716 3458 L 6724 3383 L 6721 3384 L 6711 3385 L 6680 3424 L 6680 3413 L 6677 3403 L 6664 3424 L 6648 3444 L 6638 3395 L 6622 3415 L 6614 3402 L 6605 3388 L 6577 3414 L 6566 3384 L 6555 3390 L 6544 3394 L 6529 3371 L 6520 3379 L 6538 3412 L 6539 3398 L 6561 3459 L 6555 3439 L 6570 3453 L 6579 3463 L 6576 3457 L 6576 3457 Q 6589 3476 6587 3490 L 6575 3479 L 6587 3513 Q 6570 3500 6555 3478 L 6555 3478 L 6557 3486 Q 6527 3466 6516 3440 L 6516 3440 L 6517 3443 Q 6499 3434 6489 3414 L 6475 3375 L 6482 3385 Q 6496 3387 6504 3404 L 6504 3385 L 6514 3401 L 6518 3379 L 6513 3379 Q 6505 3377 6502 3367 L 6496 3376 L 6476 3341 Q 6462 3319 6460 3305 L 6450 3292 Z M 3157 3127 L 3147 3147 L 3111 3242 Q 3086 3332 3109 3417 Q 3129 3493 3180 3550 Q 3206 3579 3227 3592 L 3184 3554 Q 3189 3543 3209 3534 L 3239 3520 L 3240 3542 L 3249 3527 L 3242 3554 Q 3264 3549 3302 3525 L 3302 3525 L 3293 3526 Q 3349 3495 3370 3447 L 3370 3447 Q 3316 3473 3297 3487 L 3326 3437 L 3348 3383 L 3348 3383 Q 3321 3416 3280 3430 L 3287 3406 L 3265 3421 Q 3252 3431 3242 3433 L 3255 3376 L 3255 3376 Q 3238 3383 3232 3389 Q 3230 3383 3231 3370 L 3229 3351 L 3193 3363 L 3197 3326 L 3185 3325 L 3173 3324 Q 3175 3307 3170 3292 L 3160 3295 L 3160 3340 L 3168 3326 L 3165 3364 L 3163 3377 L 3170 3401 L 3173 3412 L 3173 3408 L 3173 3408 Q 3177 3433 3168 3448 L 3162 3430 L 3157 3472 Q 3149 3449 3146 3418 L 3144 3427 Q 3126 3388 3130 3355 L 3130 3355 L 3129 3360 Q 3118 3341 3119 3315 L 3124 3268 L 3125 3283 Q 3135 3292 3136 3313 L 3143 3294 L 3145 3316 L 3158 3295 L 3154 3292 Q 3148 3287 3150 3274 L 3150 3274 L 3140 3280 L 3139 3234 Q 3137 3204 3141 3189 L 3151 3176 Q 3150 3152 3157 3127 Z" fill="rgb(117,83,20)" fill-opacity="1.000"></path><path d="M 4020 3148 L 4023 3154 L 4029 3172 L 4030 3174 L 4032 3176 Q 4034 3166 4024 3150 L 4024 3150 L 4027 3156 L 4020 3148 Z M 5376 3097 L 5377 3100 L 5377 3122 L 5364 3108 L 5368 3127 Q 5356 3112 5343 3112 L 5334 3104 L 5355 3139 Q 5369 3157 5388 3162 L 5387 3160 L 5387 3160 Q 5403 3182 5436 3196 L 5433 3189 L 5433 3189 Q 5452 3208 5471 3217 L 5452 3187 L 5467 3194 Q 5466 3180 5449 3165 L 5449 3165 L 5452 3168 L 5443 3162 L 5425 3151 L 5419 3141 L 5401 3114 L 5403 3128 L 5379 3099 L 5376 3097 Z M 3707 3353 L 3708 3355 L 3715 3378 L 3698 3366 L 3698 3366 Q 3700 3378 3707 3384 Q 3694 3374 3684 3374 Q 3681 3374 3678 3375 L 3666 3368 L 3698 3399 Q 3717 3414 3738 3416 Q 3759 3433 3796 3441 L 3791 3434 L 3791 3434 Q 3812 3448 3837 3455 L 3810 3428 L 3826 3432 Q 3821 3418 3802 3407 L 3800 3406 L 3793 3404 L 3773 3398 L 3763 3388 L 3737 3364 L 3743 3379 Q 3723 3361 3709 3354 L 3707 3353 Z M 3124 3268 L 3119 3315 Q 3118 3341 3129 3360 L 3130 3355 L 3130 3355 Q 3126 3388 3144 3427 L 3146 3418 Q 3149 3449 3157 3472 L 3162 3430 L 3168 3448 Q 3177 3433 3173 3408 L 3173 3408 L 3173 3412 L 3170 3401 L 3163 3377 L 3165 3364 L 3168 3326 L 3160 3340 L 3160 3295 L 3159 3292 L 3158 3295 L 3145 3316 L 3143 3294 L 3136 3313 Q 3135 3292 3125 3283 L 3124 3268 Z M 6475 3375 L 6489 3414 Q 6499 3434 6517 3443 L 6516 3440 L 6516 3440 Q 6527 3466 6557 3486 L 6555 3478 L 6555 3478 Q 6570 3500 6587 3513 L 6575 3479 L 6587 3490 Q 6589 3476 6576 3457 L 6576 3457 L 6579 3463 L 6570 3453 L 6555 3439 L 6561 3459 L 6539 3398 L 6538 3412 L 6520 3379 L 6518 3377 L 6518 3379 L 6514 3401 L 6504 3385 L 6504 3404 Q 6496 3387 6482 3385 L 6475 3375 Z" fill="rgb(158,113,32)" fill-opacity="1.000"></path><path d="M 5424 2769 L 5400 2775 L 5408 2779 L 5458 2802 L 5456 2774 L 5454 2775 L 5424 2769 Z M 4087 2827 L 4050 2837 L 4088 2874 L 4092 2830 L 4093 2830 L 4087 2827 Z M 4245 2919 L 4263 2945 L 4256 2933 L 4254 2930 L 4245 2919 Z M 4030 2845 L 4049 2856 Q 4027 2874 4034 2895 L 4060 2930 L 4045 2922 L 4028 2916 L 4022 2935 Q 4019 2945 4030 2959 L 4003 2950 L 3985 2973 Q 3940 2961 3967 2906 Q 3992 2855 4030 2845 Z M 5713 2890 L 5715 2922 L 5713 2936 L 5706 2947 Q 5673 2999 5630 3038 L 5606 3051 Q 5649 3032 5678 3001 Q 5712 2966 5716 2926 L 5713 2890 Z M 4036 2841 Q 3874 2890 3907 2985 L 3920 3013 L 3939 3023 L 3940 3023 L 3941 3024 Q 3969 3042 3981 3061 L 3985 3068 L 4030 3062 Q 4060 3058 4071 3043 L 4062 3034 L 4078 3021 Q 4073 3019 4061 3009 L 4043 2997 L 4118 3000 Q 4141 2997 4151 2954 Q 4137 2946 4120 2923 Q 4104 2903 4085 2895 L 4087 2881 Q 4060 2864 4036 2841 Z M 5356 2790 Q 5310 2810 5278 2845 Q 5217 2913 5263 2989 L 5293 3027 L 5305 3038 Q 5340 3066 5390 3078 L 5429 3084 L 5384 3076 L 5379 3072 Q 5394 3064 5435 3053 Q 5471 3041 5481 3019 L 5467 3011 L 5485 2990 L 5460 2979 L 5435 2970 L 5528 2954 Q 5556 2945 5557 2889 L 5511 2859 L 5487 2842 Q 5474 2835 5461 2832 L 5460 2816 L 5405 2803 L 5416 2815 L 5401 2824 Q 5383 2836 5384 2857 L 5384 2858 Q 5385 2876 5404 2909 L 5387 2894 L 5370 2881 Q 5366 2892 5354 2901 Q 5348 2911 5356 2933 L 5326 2913 L 5312 2925 L 5297 2934 L 5289 2929 Q 5251 2898 5298 2847 Q 5339 2803 5380 2796 L 5356 2790 Z M 4271 2979 L 4264 3015 L 4257 3023 Q 4226 3056 4183 3081 L 4136 3093 L 4140 3092 Q 4191 3085 4226 3060 Q 4258 3038 4267 3008 L 4271 2979 Z M 6657 3062 L 6584 3072 Q 6629 3094 6652 3113 L 6647 3072 L 6650 3075 Q 6656 3067 6665 3065 L 6657 3062 Z M 3576 3079 L 3563 3096 L 3586 3127 Q 3587 3103 3593 3084 L 3587 3083 L 3576 3079 Z M 6738 3082 L 6780 3107 Q 6837 3144 6864 3177 L 6871 3186 Q 6884 3204 6887 3221 Q 6879 3171 6825 3128 Q 6787 3098 6738 3082 Z M 3999 3100 L 4001 3109 L 4002 3121 L 3998 3134 Q 3982 3187 3947 3241 L 3903 3276 L 3892 3284 L 3903 3277 Q 3959 3241 3985 3194 Q 4009 3152 4002 3111 L 3999 3100 Z M 3269 3007 Q 3186 3035 3161 3112 L 3157 3127 Q 3150 3152 3151 3176 Q 3153 3227 3190 3266 Q 3222 3301 3288 3329 L 3269 3290 L 3256 3257 L 3239 3228 L 3265 3230 L 3259 3197 L 3259 3197 Q 3286 3209 3320 3217 L 3312 3202 L 3373 3243 L 3373 3243 L 3363 3216 L 3363 3216 Q 3370 3222 3388 3229 L 3413 3241 L 3411 3202 L 3437 3201 L 3462 3203 L 3438 3181 L 3456 3183 L 3473 3185 L 3470 3175 Q 3461 3153 3435 3143 Q 3420 3137 3401 3134 L 3391 3133 L 3392 3128 L 3393 3104 L 3522 3062 L 3515 3060 L 3503 3056 Q 3406 3028 3336 3016 L 3269 3007 Z M 3679 2984 Q 3630 3022 3596 3057 L 3602 3060 Q 3610 3045 3623 3034 L 3652 3038 Q 3644 3057 3647 3072 Q 3649 3084 3658 3094 L 3665 3101 L 3710 3122 L 3687 3120 L 3664 3121 L 3668 3148 Q 3670 3161 3692 3172 L 3655 3175 L 3648 3211 L 3615 3208 Q 3613 3184 3604 3161 L 3591 3135 L 3606 3169 Q 3621 3214 3608 3258 L 3597 3287 L 3586 3304 L 3594 3293 L 3604 3299 L 3620 3308 Q 3660 3328 3710 3330 L 3703 3326 Q 3716 3315 3754 3296 Q 3787 3276 3791 3252 L 3775 3247 L 3787 3222 L 3759 3216 L 3731 3211 Q 3772 3191 3820 3177 Q 3846 3162 3831 3105 Q 3810 3102 3776 3083 L 3746 3071 L 3718 3066 L 3687 2985 L 3689 2985 L 3679 2984 Z M 6546 3082 Q 6510 3094 6482 3112 Q 6399 3165 6428 3248 Q 6436 3272 6450 3292 L 6460 3305 Q 6489 3340 6535 3361 L 6572 3375 L 6530 3358 L 6526 3353 L 6584 3345 Q 6622 3340 6636 3321 L 6624 3310 L 6645 3294 L 6623 3278 L 6601 3264 L 6695 3267 Q 6724 3263 6737 3208 Q 6720 3198 6698 3170 L 6678 3149 L 6654 3134 L 6652 3114 L 6609 3102 L 6613 3107 L 6597 3114 Q 6579 3124 6577 3144 L 6577 3145 Q 6576 3164 6591 3199 L 6576 3182 L 6560 3167 L 6543 3186 Q 6534 3195 6541 3218 L 6514 3194 L 6485 3211 L 6482 3212 L 6466 3194 Q 6449 3164 6493 3126 Q 6528 3095 6561 3087 L 6546 3082 Z M 6889 3242 L 6884 3275 L 6880 3286 L 6871 3295 Q 6832 3338 6778 3369 L 6724 3383 Q 6789 3373 6833 3343 Q 6872 3316 6884 3278 L 6889 3242 Z" fill="rgb(78,49,19)" fill-opacity="1.000"></path><path d="M 5453 2750 L 5450 2769 L 5455 2768 L 5453 2750 Z M 5516 2763 Q 5487 2763 5455 2768 L 5456 2774 L 5458 2802 L 5505 2824 L 5460 2816 L 5461 2832 Q 5474 2835 5487 2842 L 5511 2859 L 5557 2889 Q 5556 2945 5528 2954 L 5435 2970 L 5460 2979 L 5485 2990 L 5467 3011 L 5481 3019 Q 5471 3041 5435 3053 Q 5394 3064 5379 3072 L 5384 3076 L 5429 3084 L 5552 3071 L 5569 3066 L 5580 3062 L 5582 3062 L 5606 3051 L 5630 3038 Q 5673 2999 5706 2947 L 5713 2936 L 5715 2922 L 5713 2890 L 5709 2876 L 5709 2875 L 5708 2873 Q 5689 2819 5632 2789 Q 5582 2763 5516 2763 Z M 4111 2821 Q 4099 2821 4093 2830 L 4092 2830 L 4088 2874 Q 4112 2895 4138 2909 Q 4112 2898 4087 2881 L 4085 2895 Q 4104 2903 4120 2923 Q 4137 2946 4151 2954 Q 4141 2997 4118 3000 L 4043 2997 L 4061 3009 Q 4073 3019 4078 3021 L 4062 3034 L 4071 3043 Q 4060 3058 4030 3062 L 3985 3068 L 3981 3061 Q 3969 3042 3941 3024 L 3939 3023 L 3920 3013 Q 3882 2994 3825 2977 Q 3767 2960 3734 2960 Q 3693 2960 3689 2985 L 3687 2985 L 3718 3066 L 3746 3071 L 3776 3083 Q 3810 3102 3831 3105 Q 3846 3162 3820 3177 Q 3772 3191 3731 3211 L 3759 3216 L 3787 3222 L 3775 3247 L 3791 3252 Q 3787 3276 3754 3296 Q 3716 3315 3703 3326 L 3710 3330 L 3746 3330 Q 3812 3324 3878 3291 L 3881 3290 L 3889 3286 L 3892 3284 L 3903 3276 L 3947 3241 Q 3982 3187 3998 3134 L 4002 3121 L 4001 3109 L 3999 3100 L 3990 3077 L 3988 3073 L 4004 3079 L 4033 3088 L 4118 3094 L 4131 3093 L 4136 3093 L 4183 3081 Q 4226 3056 4257 3023 L 4264 3015 L 4271 2979 L 4271 2974 L 4270 2968 L 4270 2967 L 4268 2957 L 4263 2945 L 4245 2919 L 4197 2871 L 4190 2865 Q 4137 2821 4111 2821 Z M 3522 3062 L 3393 3104 L 3392 3128 L 3391 3133 L 3401 3134 Q 3420 3137 3435 3143 Q 3461 3153 3470 3175 L 3473 3185 L 3456 3183 L 3438 3181 L 3462 3203 L 3437 3201 L 3411 3202 L 3413 3241 L 3388 3229 Q 3370 3222 3363 3216 L 3363 3216 L 3373 3243 L 3373 3243 L 3312 3202 L 3320 3217 Q 3286 3209 3259 3197 L 3259 3197 L 3265 3230 L 3239 3228 L 3256 3257 L 3269 3290 L 3288 3329 L 3308 3337 Q 3397 3372 3446 3375 Q 3451 3375 3456 3375 Q 3512 3375 3551 3344 L 3580 3313 L 3586 3304 L 3597 3287 L 3608 3258 Q 3621 3214 3606 3169 L 3591 3135 L 3586 3127 L 3563 3096 L 3533 3065 L 3527 3064 L 3525 3063 L 3522 3062 Z M 6678 3063 Q 6671 3063 6665 3065 Q 6656 3067 6650 3075 L 6647 3072 L 6652 3113 L 6653 3114 L 6652 3114 L 6654 3134 L 6678 3149 L 6698 3170 Q 6720 3198 6737 3208 Q 6724 3263 6695 3267 L 6601 3264 L 6623 3278 L 6645 3294 L 6624 3310 L 6636 3321 Q 6622 3340 6584 3345 L 6526 3353 L 6530 3358 L 6572 3375 L 6695 3386 L 6701 3386 L 6711 3385 L 6721 3384 L 6724 3383 L 6778 3369 Q 6832 3338 6871 3295 L 6880 3286 L 6884 3275 L 6889 3242 L 6889 3236 L 6888 3226 L 6888 3223 L 6887 3221 Q 6884 3204 6871 3186 L 6864 3177 Q 6837 3144 6780 3107 L 6738 3082 Q 6701 3063 6678 3063 Z" fill="rgb(61,37,12)" fill-opacity="1.000"></path><path d="M 5380 2796 Q 5339 2803 5298 2847 Q 5251 2898 5289 2929 L 5297 2934 L 5312 2925 L 5326 2913 L 5356 2933 Q 5348 2911 5354 2901 Q 5366 2892 5370 2881 L 5387 2894 L 5404 2909 Q 5385 2876 5384 2858 L 5384 2857 Q 5383 2836 5401 2824 L 5416 2815 L 5405 2803 L 5380 2796 Z M 4030 2845 Q 3992 2855 3967 2906 Q 3940 2961 3985 2973 L 4003 2950 L 4030 2959 Q 4019 2945 4022 2935 L 4028 2916 L 4045 2922 L 4060 2930 L 4034 2895 Q 4027 2874 4049 2856 L 4030 2845 Z M 3623 3034 Q 3610 3045 3602 3060 L 3666 3108 L 3593 3084 Q 3587 3103 3586 3127 L 3591 3135 L 3604 3161 Q 3613 3184 3615 3208 L 3648 3211 L 3655 3175 L 3692 3172 Q 3670 3161 3668 3148 L 3664 3121 L 3687 3120 L 3710 3122 L 3665 3101 L 3658 3094 Q 3649 3084 3647 3072 Q 3644 3057 3652 3038 L 3623 3034 Z M 6561 3087 Q 6528 3095 6493 3126 Q 6449 3164 6466 3194 L 6482 3212 L 6485 3211 L 6514 3194 L 6541 3218 Q 6534 3195 6543 3186 L 6560 3167 L 6576 3182 L 6591 3199 Q 6576 3164 6577 3145 L 6577 3144 Q 6579 3124 6597 3114 L 6613 3107 L 6609 3102 L 6561 3087 Z" fill="rgb(113,73,32)" fill-opacity="1.000"></path><path d="M 270 229 Q 264 267 326 330 Q 386 390 427 396 Q 434 349 391 300 Q 351 254 300 239 L 270 229 Z M 164 765 L 164 765 Q 169 790 177 810 L 184 828 L 184 828 L 164 765 Z M 730 719 Q 822 782 819 848 Q 818 848 817 848 Q 779 848 752 814 Q 723 779 730 739 L 730 719 Z M 680 629 Q 625 724 752 868 Q 853 983 967 1039 Q 942 994 886 913 L 804 788 Q 754 700 690 629 Z M 550 997 Q 554 1024 568 1054 Q 542 1018 550 997 Z M 630 919 Q 683 947 747 1021 Q 820 1108 809 1158 Q 807 1158 805 1158 Q 766 1158 714 1071 Q 678 1012 650 939 L 630 919 Z M 878 1441 L 891 1452 L 903 1461 L 878 1441 Z M 1290 1279 Q 1281 1342 1352 1420 L 1401 1468 L 1400 1463 L 1400 1463 Q 1433 1498 1475 1498 Q 1462 1451 1422 1404 L 1330 1309 L 1290 1279 Z M 184 250 L 177 267 L 168 292 L 154 349 L 141 464 L 140 535 L 144 632 Q 199 821 379 947 Q 367 879 370 841 L 370 841 Q 399 929 468 1019 Q 544 1116 620 1149 L 595 1102 L 568 1054 L 568 1054 Q 601 1099 690 1166 L 804 1247 L 960 1365 L 1112 1486 L 1085 1435 Q 1072 1406 1072 1381 L 1072 1381 L 1159 1495 Q 1210 1558 1256 1598 Q 1278 1617 1326 1679 Q 1365 1729 1402 1749 L 1408 1731 L 1413 1710 Q 1505 1804 1636 1893 L 1639 1842 Q 1525 1754 1511 1665 L 1511 1665 L 1540 1680 L 1568 1696 L 1419 1583 Q 1335 1517 1291 1449 L 1213 1312 Q 1171 1239 1114 1187 L 1114 1187 L 1158 1269 L 1205 1349 Q 1051 1263 981 1210 Q 864 1121 804 1010 Q 773 953 722 878 L 634 749 L 580 653 Q 547 594 519 563 Q 498 539 433 491 Q 375 448 351 412 L 351 412 Q 348 463 400 543 L 483 662 L 557 777 Q 601 847 620 897 Q 581 864 499 758 Q 428 665 371 629 L 371 629 Q 369 662 391 706 L 428 776 Q 323 678 258 539 Q 189 395 184 251 L 184 250 Z M 1622 1711 Q 1617 1740 1641 1769 L 1660 1769 Q 1670 1805 1759 1842 Q 1829 1871 1860 1892 L 1870 1896 Q 1815 1825 1770 1799 L 1770 1799 L 1790 1819 L 1790 1819 L 1710 1753 Q 1654 1712 1622 1711 Z M 2141 1974 Q 2169 2003 2182 2033 L 2236 2044 L 2235 2034 L 2262 2053 L 2257 2032 L 2216 2014 Q 2185 2013 2170 1994 L 2170 1994 L 2180 1999 L 2184 1999 L 2141 1974 Z M 2505 2013 Q 2606 2062 2731 2062 Q 2740 2062 2750 2062 L 2967 2042 L 2964 2040 L 2980 2040 L 2990 2038 L 2996 2037 L 2961 2030 L 2911 2029 L 2841 2029 L 2677 2028 L 2505 2013 Z M 2032 2124 L 2031 2129 L 2040 2129 Q 2035 2128 2032 2124 Z M 2441 2083 Q 2436 2083 2431 2083 Q 2443 2093 2472 2100 L 2518 2109 Q 2579 2127 2603 2127 Q 2604 2127 2605 2127 L 2615 2131 Q 2568 2083 2441 2083 Z M 3381 2096 Q 3278 2096 3251 2110 L 3319 2124 L 3390 2129 L 3526 2135 L 3664 2129 Q 3656 2122 3610 2117 L 3554 2113 L 3484 2096 Z M 3332 2145 L 3341 2145 L 3341 2145 Q 3337 2145 3332 2145 Z M 2150 2064 Q 2148 2095 2162 2113 L 2196 2153 Q 2198 2133 2184 2106 L 2155 2064 Z M 2073 2141 L 2073 2142 L 2076 2154 L 2073 2141 Z M 2692 2124 Q 2675 2124 2659 2125 Q 2730 2151 2763 2153 L 2848 2156 L 2825 2139 Q 2749 2124 2692 2124 Z M 3868 2129 Q 3865 2129 3861 2129 L 3751 2136 Q 3762 2152 3807 2157 L 3873 2159 L 3922 2159 L 3967 2148 Q 3937 2129 3868 2129 Z M 4473 2111 Q 4449 2111 4431 2118 Q 4471 2145 4528 2160 L 4643 2158 Q 4537 2111 4473 2111 Z M 2076 2155 L 2079 2168 L 2079 2167 L 2076 2155 Z M 4338 2160 L 4350 2164 L 4290 2168 L 4233 2162 L 4253 2169 L 4185 2169 L 4116 2167 L 4124 2170 L 4155 2178 L 4202 2184 L 4240 2185 L 4242 2185 L 4336 2179 L 4423 2175 Q 4423 2169 4432 2160 Z M 2504 2169 Q 2544 2169 2560 2182 L 2560 2187 Q 2490 2187 2478 2170 Q 2492 2169 2504 2169 Z M 4435 2186 L 4436 2194 L 4489 2195 L 4456 2190 L 4435 2186 Z M 2584 2172 L 2669 2183 L 2755 2195 L 2788 2202 L 2798 2204 Q 2769 2206 2742 2206 Q 2709 2206 2679 2203 L 2631 2190 L 2584 2172 Z M 4172 2188 L 4179 2193 L 4187 2202 L 4188 2203 L 4191 2210 L 4213 2216 L 4247 2226 L 4237 2191 L 4201 2189 L 4172 2188 Z M 4626 2228 L 4643 2238 L 4640 2234 L 4628 2228 Z M 4707 2234 L 4673 2235 L 4680 2239 L 4687 2237 L 4707 2234 Z M 2304 2048 Q 2299 2048 2296 2049 Q 2314 2063 2311 2075 L 2328 2080 Q 2401 2102 2426 2122 Q 2446 2138 2454 2164 Q 2459 2179 2457 2192 L 2488 2202 L 2649 2220 L 2810 2229 L 3119 2246 L 3050 2225 L 2955 2220 L 2969 2204 L 2966 2203 L 2973 2201 L 3012 2193 L 3029 2195 L 3087 2192 L 3213 2192 L 3245 2207 L 3135 2210 L 3168 2218 L 3255 2235 L 3252 2248 L 3467 2237 Q 3431 2213 3366 2206 L 3263 2189 L 3526 2195 L 3676 2213 L 3722 2219 Q 3756 2217 3805 2217 Q 3854 2217 3917 2219 L 4072 2220 L 4035 2180 L 4056 2173 L 3980 2180 L 3910 2184 L 3840 2183 L 3761 2187 L 3684 2179 L 3694 2163 L 3623 2161 L 3552 2160 L 3442 2150 L 3341 2146 L 3341 2146 Q 3367 2148 3391 2162 L 3334 2166 Q 3339 2166 3343 2166 Q 3378 2166 3398 2180 L 3341 2179 L 3283 2160 L 3178 2154 L 3072 2156 L 3006 2153 Q 2993 2153 2981 2153 Q 2958 2153 2940 2154 L 2969 2163 L 2918 2164 L 2972 2178 L 3028 2186 L 2811 2176 L 2847 2185 L 2738 2180 L 2642 2159 L 2596 2146 L 2551 2138 L 2567 2164 Q 2551 2162 2524 2142 L 2480 2117 L 2477 2137 Q 2453 2130 2415 2097 Q 2376 2062 2351 2053 L 2351 2053 L 2367 2073 L 2332 2055 Q 2316 2048 2304 2048 Z M 4121 2247 L 4160 2253 L 4227 2258 L 4190 2253 L 4121 2247 Z M 4254 2262 L 4251 2268 L 4260 2269 L 4258 2262 Z M 2409 2291 L 2410 2292 L 2435 2293 L 2441 2293 L 2409 2291 Z M 2320 2260 L 2330 2275 Q 2354 2299 2350 2319 Q 2335 2310 2326 2294 Q 2317 2277 2320 2260 Z M 4950 2294 L 4950 2294 Q 4940 2313 4945 2340 Q 4941 2314 4950 2294 Z M 2280 2220 Q 2287 2261 2327 2319 Q 2371 2385 2381 2414 Q 2378 2351 2364 2310 Q 2346 2257 2305 2225 L 2280 2220 Z M 5568 2449 Q 5561 2450 5553 2450 L 5553 2450 L 5568 2449 Z M 5809 2398 L 5810 2400 L 5853 2452 L 5843 2439 L 5915 2481 L 5900 2467 L 5849 2424 L 5809 2398 Z M 5104 2251 L 5088 2255 L 5054 2261 L 5079 2278 L 5082 2277 Q 5097 2273 5095 2256 L 5095 2256 Q 5100 2274 5109 2280 L 5124 2284 L 5137 2286 Q 5153 2297 5144 2309 Q 5134 2323 5147 2335 Q 5151 2339 5177 2347 Q 5200 2355 5201 2363 L 5201 2364 L 5251 2375 L 5401 2410 L 5484 2437 Q 5524 2450 5552 2450 Q 5552 2450 5552 2450 L 5552 2450 L 5540 2451 Q 5568 2470 5644 2495 Q 5726 2522 5757 2539 L 5850 2592 L 5824 2560 L 5684 2505 Q 5692 2490 5709 2485 L 5702 2482 L 5713 2484 L 5767 2487 L 5769 2487 Q 5718 2438 5643 2402 Q 5563 2364 5493 2359 L 5493 2359 L 5497 2367 L 5500 2376 Q 5463 2364 5399 2347 L 5296 2319 L 5200 2285 L 5103 2251 Z M 2449 2510 Q 2478 2589 2497 2618 Q 2533 2669 2594 2674 Q 2588 2663 2566 2647 L 2533 2620 L 2504 2570 Q 2487 2539 2469 2525 L 2449 2510 Z M 3666 2303 L 3612 2304 Q 3630 2334 3652 2349 L 3620 2337 L 3620 2337 Q 3639 2353 3717 2390 Q 3781 2419 3801 2454 Q 3809 2468 3817 2496 Q 3837 2511 3852 2537 Q 3893 2611 3956 2685 L 3916 2598 L 3893 2554 L 3871 2517 Q 3843 2475 3787 2422 L 3693 2336 L 3666 2303 Z M 6021 2673 L 6013 2675 L 6037 2688 L 6021 2673 Z M 6119 2657 L 6186 2715 L 6170 2699 L 6119 2657 Z M 6025 2645 L 6026 2650 L 6027 2661 L 6037 2673 L 6058 2699 L 6098 2717 L 6025 2645 Z M 5294 2734 L 5301 2741 L 5301 2741 Q 5297 2738 5294 2734 Z M 4807 2236 L 4820 2249 L 4833 2256 L 4758 2241 L 4819 2265 L 4821 2280 L 4919 2281 L 4956 2284 Q 4955 2285 4954 2287 L 4954 2287 Q 4954 2287 4954 2286 L 4954 2286 Q 4951 2290 4949 2294 L 4949 2294 Q 4951 2290 4954 2286 Q 4954 2286 4954 2286 L 4954 2286 Q 4954 2286 4954 2286 Q 4952 2316 4958 2329 L 4979 2353 Q 4995 2367 4999 2378 L 5000 2378 L 5015 2374 L 5020 2381 L 5034 2403 L 5044 2434 L 5050 2461 Q 5054 2478 5061 2488 L 5121 2584 Q 5152 2639 5203 2685 Q 5257 2732 5314 2753 L 5301 2740 L 5301 2740 Q 5317 2754 5344 2758 L 5341 2744 L 5324 2734 L 5279 2688 L 5279 2689 Q 5270 2694 5264 2703 Q 5243 2700 5230 2673 L 5214 2624 L 5210 2648 Q 5169 2617 5150 2559 L 5150 2577 L 5102 2518 Q 5070 2480 5082 2451 L 5082 2451 L 5090 2463 L 5073 2400 L 5070 2390 L 5059 2357 L 5050 2339 L 5050 2354 L 5045 2373 Q 5032 2339 5016 2329 L 5011 2338 L 4997 2302 Q 4994 2293 4997 2287 Q 4999 2279 5009 2275 L 4995 2273 L 4998 2268 Q 5005 2258 5019 2254 L 5007 2254 Q 4984 2256 4967 2271 L 4910 2276 L 4905 2265 Q 4902 2257 4906 2246 L 4906 2246 L 4885 2247 L 4863 2249 L 4835 2242 L 4807 2235 Z M 3190 2871 L 3227 2889 L 3220 2885 L 3190 2871 Z M 1763 1922 L 1768 1931 Q 1785 1968 1771 1978 L 1843 2018 L 1824 1994 Q 1818 1982 1820 1975 Q 1824 1975 1828 1975 Q 1869 1975 1902 1994 Q 1947 2020 1939 2064 L 1937 2064 L 2019 2094 L 2026 2109 L 2026 2096 L 2029 2084 L 2034 2074 L 2044 2089 L 2045 2090 L 2052 2104 L 2054 2129 L 2044 2130 L 2045 2148 L 2045 2167 L 2069 2168 L 2070 2123 L 2070 2113 L 2070 2103 L 2079 2112 L 2089 2125 L 2096 2149 L 2103 2174 Q 2116 2200 2136 2227 Q 2161 2260 2179 2271 Q 2187 2253 2184 2240 L 2184 2240 Q 2226 2336 2261 2372 L 2275 2380 L 2289 2388 L 2292 2400 L 2294 2413 L 2337 2472 L 2383 2528 Q 2416 2574 2465 2666 Q 2514 2740 2585 2767 L 2579 2757 L 2579 2757 Q 2610 2791 2688 2826 Q 2731 2845 2803 2872 L 2791 2859 L 2791 2859 Q 2832 2880 2923 2908 L 2886 2867 L 3108 2958 L 3100 2950 L 3145 2962 L 3192 2972 Q 3143 2950 3128 2940 L 3128 2940 L 3200 2964 L 3272 2993 L 3207 2959 Q 3167 2935 3162 2908 L 3162 2908 Q 3186 2915 3257 2950 Q 3317 2979 3353 2983 Q 3333 2967 3294 2948 L 3234 2915 L 3212 2894 L 3190 2871 Q 3134 2847 3050 2821 L 3039 2818 L 2969 2796 L 2964 2794 L 2913 2778 L 2898 2773 L 2865 2761 L 2865 2761 Q 2890 2780 2949 2805 L 3018 2834 L 3017 2834 Q 3046 2849 3055 2863 L 3011 2859 L 3049 2878 Q 3072 2888 3080 2903 Q 3079 2903 3077 2903 Q 3046 2903 3007 2881 L 2940 2839 Q 2833 2773 2739 2738 L 2739 2738 L 2802 2781 L 2864 2824 L 2815 2807 L 2766 2790 L 2811 2815 Q 2641 2782 2539 2684 L 2539 2702 Q 2499 2674 2455 2606 L 2389 2494 L 2334 2382 Q 2299 2308 2270 2278 L 2270 2323 L 2231 2240 Q 2203 2181 2180 2174 L 2179 2182 Q 2155 2170 2149 2146 L 2133 2106 Q 2125 2096 2099 2086 Q 2072 2075 2064 2067 L 2064 2067 L 2067 2095 L 2065 2094 L 2064 2067 L 2064 2067 L 2064 2067 L 2065 2061 Q 2070 2040 2108 2034 L 2083 2023 L 2067 2030 Q 2039 2034 2034 2048 Q 2028 2019 2046 2005 L 1965 1954 L 1965 1954 Q 1995 1985 2013 2022 Q 1890 1991 1763 1922 Z M 3524 3063 L 3526 3064 L 3532 3065 L 3524 3063 Z" fill="rgb(60,45,8)" fill-opacity="1.000"></path><path d="M 1130 1019 Q 1127 1069 1170 1112 L 1251 1177 L 1332 1254 Q 1382 1300 1420 1319 Q 1397 1272 1311 1181 Q 1218 1083 1180 1079 L 1130 1019 Z" fill="rgb(99,73,31)" fill-opacity="1.000"></path><path d="M 2170 1994 Q 2185 2013 2216 2014 L 2220 2014 Q 2215 1999 2192 1999 Q 2188 1999 2184 1999 L 2180 1999 L 2170 1994 Z" fill="rgb(105,78,33)" fill-opacity="1.000"></path><path d="M 2110 1989 L 2111 2009 L 2155 2014 Q 2151 1989 2115 1989 Z M 2035 2074 L 2030 2084 L 2027 2096 L 2027 2109 L 2027 2112 Q 2028 2120 2032 2124 Q 2035 2128 2040 2129 L 2045 2130 L 2055 2129 L 2053 2104 L 2046 2090 L 2045 2089 L 2035 2074 Z" fill="rgb(106,80,38)" fill-opacity="1.000"></path><path d="M 4254 2930 L 4256 2933 L 4255 2930 Z M 3939 3023 L 3941 3024 L 3940 3023 Z M 5305 3038 Q 5310 3051 5328 3070 L 5354 3101 L 5359 3091 L 5372 3101 L 5377 3100 L 5376 3097 L 5379 3099 L 5385 3089 L 5405 3109 L 5425 3095 L 5441 3122 L 5464 3091 L 5476 3102 L 5486 3115 L 5497 3091 L 5517 3137 L 5529 3114 Q 5534 3097 5538 3091 L 5542 3101 L 5545 3112 Q 5561 3090 5569 3066 L 5569 3066 L 5552 3071 L 5429 3084 L 5390 3078 Q 5340 3066 5305 3038 Z M 3988 3073 L 3990 3077 L 3999 3100 Q 4004 3097 4016 3093 L 4024 3116 L 4047 3096 L 4054 3106 L 4060 3117 L 4072 3101 Q 4078 3112 4080 3140 Q 4092 3131 4104 3107 L 4106 3124 L 4131 3093 L 4118 3094 L 4033 3088 L 4004 3079 L 3988 3073 Z M 4267 3008 Q 4258 3038 4226 3060 Q 4191 3085 4140 3092 L 4135 3151 Q 4147 3131 4173 3102 L 4173 3102 Q 4172 3137 4143 3174 L 4149 3171 L 4116 3210 L 4113 3192 L 4111 3204 L 4104 3191 L 4087 3211 Q 4076 3223 4075 3232 L 4116 3237 L 4167 3201 Q 4222 3155 4247 3110 Q 4269 3071 4267 3008 Z M 5716 2926 Q 5712 2966 5678 3001 Q 5649 3032 5606 3051 L 5582 3062 L 5580 3062 L 5587 3137 Q 5597 3110 5622 3066 L 5622 3066 Q 5629 3114 5603 3164 L 5608 3161 L 5579 3215 L 5571 3193 L 5571 3209 L 5560 3195 L 5544 3224 Q 5532 3242 5534 3251 L 5534 3251 L 5586 3249 L 5639 3191 Q 5696 3121 5716 3058 Q 5734 3003 5716 2926 Z M 5534 3251 L 5534 3251 L 5523 3252 L 5534 3252 Q 5534 3252 5534 3251 Q 5534 3251 5534 3251 Z M 3892 3284 L 3889 3286 L 3881 3290 L 3878 3291 Q 3812 3324 3746 3330 L 3710 3330 Q 3660 3328 3620 3308 L 3620 3308 L 3651 3336 L 3686 3361 L 3688 3350 Q 3695 3357 3702 3357 Q 3703 3357 3704 3357 L 3708 3355 L 3707 3353 L 3709 3354 L 3715 3343 L 3740 3359 L 3756 3340 L 3780 3365 L 3794 3329 Q 3801 3330 3809 3338 L 3823 3348 L 3828 3322 L 3861 3364 L 3867 3339 L 3869 3313 L 3882 3333 L 3892 3284 Z M 6460 3305 Q 6462 3319 6476 3341 L 6496 3376 L 6502 3367 Q 6505 3377 6513 3379 L 6518 3379 L 6518 3377 L 6520 3379 L 6529 3371 L 6544 3394 L 6555 3390 L 6566 3384 L 6577 3414 L 6605 3388 L 6614 3402 L 6622 3415 L 6638 3395 L 6648 3444 L 6664 3424 L 6677 3403 L 6680 3413 L 6680 3424 L 6711 3385 L 6701 3386 L 6695 3386 L 6572 3375 L 6535 3361 Q 6489 3340 6460 3305 Z M 4002 3111 L 4002 3111 Q 4009 3152 3985 3194 Q 3959 3241 3903 3277 L 3931 3350 Q 3934 3316 3947 3271 Q 3967 3316 3956 3375 L 3960 3367 L 3960 3367 Q 3954 3412 3945 3431 L 3931 3410 L 3935 3426 L 3920 3414 L 3912 3447 Q 3905 3468 3910 3478 L 3905 3479 L 3900 3480 L 3937 3473 L 3962 3464 L 4000 3394 Q 4038 3311 4040 3244 L 4040 3221 L 4030 3174 L 4029 3172 L 4023 3154 L 4020 3148 L 4002 3111 Z M 6631 3558 L 6635 3559 L 6641 3560 L 6631 3558 Z M 6884 3278 Q 6872 3316 6833 3343 Q 6789 3373 6724 3383 L 6716 3458 Q 6730 3435 6765 3396 L 6765 3396 Q 6764 3442 6727 3488 L 6734 3483 L 6734 3483 Q 6711 3518 6693 3533 L 6689 3510 L 6686 3525 L 6678 3509 L 6657 3534 Q 6643 3550 6642 3560 L 6642 3560 L 6641 3560 L 6642 3560 Q 6642 3560 6642 3560 Q 6642 3560 6642 3560 L 6642 3560 L 6642 3560 L 6693 3567 L 6757 3521 Q 6827 3464 6859 3406 Q 6887 3356 6884 3278 Z M 3151 3176 L 3141 3189 Q 3137 3204 3139 3234 L 3140 3280 L 3150 3274 L 3150 3274 Q 3148 3287 3154 3292 L 3158 3295 L 3159 3292 L 3160 3295 L 3170 3292 Q 3175 3307 3173 3324 L 3185 3325 L 3197 3326 L 3193 3363 L 3229 3351 L 3231 3370 Q 3230 3383 3232 3389 Q 3238 3383 3255 3376 L 3255 3376 L 3242 3433 Q 3252 3431 3265 3421 L 3287 3406 L 3280 3430 Q 3321 3416 3348 3383 L 3348 3383 L 3326 3437 L 3297 3487 Q 3316 3473 3370 3447 L 3370 3447 Q 3349 3495 3293 3526 L 3302 3525 L 3302 3525 Q 3264 3549 3242 3554 L 3249 3527 L 3240 3542 L 3239 3520 L 3209 3534 Q 3189 3543 3184 3554 L 3227 3592 L 3307 3579 Q 3398 3558 3455 3514 Q 3511 3470 3546 3364 L 3551 3344 L 3551 3344 Q 3511 3375 3456 3375 Q 3451 3375 3446 3375 Q 3397 3372 3308 3337 L 3288 3329 Q 3222 3301 3190 3266 Q 3153 3227 3151 3176 Z" fill="rgb(94,67,13)" fill-opacity="1.000"></path><path d="M 730 719 L 730 739 Q 723 779 752 814 Q 779 848 817 848 Q 818 848 819 848 Q 822 782 730 719 Z M 54 516 L 34 582 Q 18 624 22 648 L 46 650 L 48 775 L 72 776 Q 94 838 105 853 Q 117 872 129 872 Q 143 872 157 848 L 157 848 L 157 848 L 157 848 L 157 848 Q 157 848 157 848 L 157 848 L 156 846 Q 134 794 129 751 L 121 744 Q 85 712 83 698 L 87 643 Q 87 622 70 581 Q 56 544 60 516 Z M 550 997 Q 542 1018 568 1054 Q 554 1024 550 997 Z M 630 919 L 650 939 Q 678 1012 714 1071 Q 766 1158 805 1158 Q 807 1158 809 1158 Q 820 1108 747 1021 Q 683 947 630 919 Z M 476 1205 L 477 1259 L 498 1213 L 476 1205 Z M 157 848 L 152 947 Q 149 1137 182 1260 Q 218 1217 246 1151 L 288 1032 L 288 1032 Q 297 1119 286 1251 L 269 1470 L 318 1359 Q 344 1295 354 1242 Q 374 1313 369 1440 L 360 1645 L 360 1977 Q 405 1841 425 1745 Q 451 1621 450 1506 L 449 1465 Q 438 1491 424 1506 Q 399 1451 405 1337 Q 412 1214 397 1165 Q 393 1191 375 1212 L 340 1246 Q 312 1215 307 1139 L 298 1020 L 273 1025 L 249 1027 Q 250 975 220 926 L 217 973 L 157 848 Z M 2504 2168 Q 2492 2168 2478 2169 Q 2490 2186 2560 2186 L 2560 2181 Q 2544 2168 2504 2168 Z M 2973 2200 L 2966 2202 L 2969 2203 L 2973 2200 Z M 2584 2171 L 2631 2189 L 2679 2202 Q 2710 2205 2742 2205 Q 2769 2205 2798 2203 L 2788 2201 L 2755 2194 L 2669 2182 L 2584 2171 Z M 3087 2191 L 3029 2194 L 3081 2199 L 3135 2209 L 3245 2206 L 3213 2191 Z M 4191 2209 L 4191 2229 Q 4185 2248 4151 2248 L 4095 2244 L 4072 2219 L 3917 2218 Q 3854 2216 3805 2216 Q 3756 2216 3722 2218 L 3697 2219 L 3745 2227 L 3797 2228 L 3889 2235 L 3982 2239 L 4086 2244 L 4121 2246 L 4190 2252 L 4227 2257 L 4254 2261 L 4258 2261 L 4247 2225 L 4213 2215 L 4191 2209 Z M 4487 2294 L 4820 2315 L 4802 2297 L 4717 2302 L 4604 2294 Z M 2320 2259 Q 2317 2276 2326 2293 Q 2335 2309 2350 2318 Q 2354 2298 2330 2274 L 2320 2259 Z M 5095 2255 Q 5097 2272 5082 2276 L 5079 2277 L 5089 2290 Q 5106 2319 5100 2346 Q 5098 2355 5104 2369 L 5165 2375 L 5189 2376 Q 5201 2375 5201 2363 L 5201 2362 Q 5200 2354 5177 2346 Q 5151 2338 5147 2334 Q 5134 2322 5144 2308 Q 5153 2296 5137 2285 L 5124 2283 L 5109 2279 Q 5100 2273 5095 2255 Z M 5295 2733 Q 5298 2737 5302 2740 L 5302 2740 L 5295 2733 Z M 4955 2285 Q 4940 2307 4945 2339 Q 4947 2352 4960 2371 L 5001 2420 Q 5060 2482 5080 2524 Q 5124 2617 5164 2668 Q 5231 2753 5320 2779 L 5356 2790 L 5380 2796 L 5405 2803 L 5460 2816 L 5505 2824 L 5458 2802 L 5408 2779 L 5400 2775 L 5341 2743 L 5342 2744 L 5345 2758 Q 5318 2754 5302 2740 L 5302 2740 L 5315 2753 Q 5258 2732 5204 2685 Q 5153 2639 5122 2584 L 5062 2488 Q 5055 2478 5051 2461 L 5045 2434 L 5035 2403 L 5021 2381 L 5016 2374 L 5001 2378 L 5000 2378 Q 4996 2367 4980 2353 L 4959 2329 Q 4953 2316 4955 2285 Z M 3649 2265 L 3430 2270 L 3522 2328 Q 3583 2369 3702 2435 Q 3801 2498 3852 2575 L 3971 2765 Q 4002 2808 4036 2841 Q 4060 2864 4087 2881 Q 4112 2898 4138 2909 Q 4112 2895 4088 2874 L 4050 2837 Q 4012 2792 3980 2730 Q 3930 2617 3894 2553 L 3894 2553 L 3917 2597 L 3957 2684 Q 3894 2610 3853 2536 Q 3838 2510 3818 2495 Q 3810 2467 3802 2453 Q 3782 2418 3718 2389 Q 3640 2352 3621 2336 L 3621 2336 L 3653 2348 Q 3631 2333 3613 2303 L 3667 2302 L 3694 2335 L 3649 2265 Z M 2071 2103 L 2071 2113 L 2073 2133 L 2073 2135 L 2073 2138 L 2073 2139 L 2073 2141 L 2079 2167 L 2113 2233 L 2134 2261 L 2144 2274 L 2146 2276 L 2210 2343 Q 2252 2383 2270 2409 L 2337 2517 L 2403 2628 Q 2473 2736 2650 2823 Q 2733 2864 2952 2944 Q 3031 2972 3142 2989 L 3269 3007 L 3336 3016 Q 3406 3028 3503 3056 L 3515 3060 L 3522 3062 L 3525 3063 L 3533 3065 L 3576 3079 L 3587 3083 L 3593 3084 L 3666 3108 L 3602 3060 L 3596 3057 Q 3537 3019 3455 2986 L 3228 2889 L 3191 2871 L 3213 2894 L 3235 2915 L 3295 2948 Q 3334 2967 3354 2983 Q 3318 2979 3258 2950 Q 3187 2915 3163 2908 L 3163 2908 Q 3168 2935 3208 2959 L 3273 2993 L 3201 2964 L 3129 2940 L 3129 2940 Q 3144 2950 3193 2972 L 3146 2962 L 3101 2950 L 3109 2958 L 2887 2867 L 2924 2908 Q 2833 2880 2792 2859 L 2792 2859 L 2804 2872 Q 2732 2845 2689 2826 Q 2611 2791 2580 2757 L 2580 2757 L 2586 2767 Q 2515 2740 2466 2666 Q 2417 2574 2384 2528 L 2338 2472 L 2295 2413 L 2293 2400 L 2290 2388 L 2276 2380 L 2262 2372 Q 2227 2336 2185 2240 L 2185 2240 Q 2188 2253 2180 2271 Q 2162 2260 2137 2227 Q 2117 2200 2104 2174 L 2097 2149 L 2090 2125 L 2080 2112 L 2071 2103 Z M 6227 2762 L 6215 2763 L 6114 2769 Q 6102 2770 6099 2782 L 6138 2833 Q 6224 2935 6345 3001 Q 6422 3042 6546 3082 L 6561 3087 L 6609 3102 L 6652 3114 L 6653 3114 L 6652 3113 Q 6629 3094 6584 3072 L 6580 3070 L 6501 3029 L 6449 2986 L 6405 2937 L 6311 2853 Q 6249 2800 6227 2762 Z" fill="rgb(49,37,12)" fill-opacity="1.000"></path><path d="M 380 29 L 381 55 L 400 55 Q 405 42 400 37 L 387 29 Z M 265 0 Q 221 2 221 29 Q 222 29 222 29 Q 244 29 311 58 Q 320 61 327 61 Q 358 61 334 3 L 265 0 Z M 150 50 Q 127 53 109 63 Q 82 78 82 102 Q 110 109 87 151 Q 57 206 61 228 Q 70 231 79 231 Q 107 231 136 198 L 187 131 Q 189 129 224 118 Q 243 112 234 83 Q 229 67 197 60 L 150 50 Z M 40 289 Q 14 317 4 340 Q -10 375 20 391 Q 31 397 39 397 Q 59 397 70 368 Q 86 327 60 309 L 40 289 Z M 360 209 Q 352 209 344 211 L 411 288 L 480 359 L 490 349 L 529 420 Q 552 466 570 488 L 630 545 Q 669 578 686 607 Q 668 574 653 519 Q 636 456 624 432 L 624 432 L 813 577 L 852 611 Q 825 565 815 522 L 828 522 L 787 485 L 602 322 L 601 350 L 599 377 L 479 268 Q 407 209 360 209 Z M 1062 796 Q 1102 861 1145 894 L 1105 844 L 1062 796 Z M 1008 792 L 1049 854 Q 1089 913 1131 950 L 1213 1014 Q 1245 1042 1257 1069 L 1242 1026 L 1235 1020 Q 1194 984 1174 942 L 1147 897 Q 1072 849 1008 792 Z M 1047 1052 Q 1051 1114 1098 1169 Q 1142 1220 1192 1220 Q 1201 1220 1210 1218 Q 1203 1188 1174 1154 L 1120 1099 L 1110 1109 Q 1085 1064 1047 1052 Z M 1480 1459 L 1479 1498 L 1475 1498 Q 1433 1498 1400 1463 L 1400 1463 L 1401 1468 Q 1406 1500 1439 1524 Q 1472 1548 1506 1548 Q 1507 1548 1509 1548 Q 1515 1517 1490 1489 L 1480 1459 Z M 1540 1499 Q 1555 1554 1608 1624 Q 1662 1695 1710 1719 L 1702 1690 L 1693 1662 L 1769 1723 Q 1815 1764 1848 1777 Q 1840 1721 1790 1671 L 1779 1667 L 1736 1626 L 1580 1509 L 1540 1499 Z M 2305 1919 L 2305 1919 Q 2305 1919 2305 1919 Q 2310 1920 2315 1920 L 2305 1919 L 2305 1919 Z M 2255 1896 L 2269 1901 L 2265 1899 L 2356 1919 L 2601 1950 L 2354 1918 L 2255 1896 Z M 3824 1969 L 3918 1976 L 3910 1971 L 3917 1969 Z M 2184 1947 Q 2274 1967 2375 1967 L 2429 1970 L 2483 1972 L 2498 1984 L 2354 1980 Q 2276 1976 2184 1947 Z M 4029 1981 L 4093 1991 L 4060 1981 Z M 4137 1990 L 4153 2001 L 4156 2002 L 4187 2008 L 4193 2006 Q 4196 1998 4191 1992 L 4168 1990 Z M 2045 1866 Q 2044 1866 2044 1866 Q 2153 1945 2257 1980 Q 2256 1980 2255 1980 Q 2228 1980 2173 1956 Q 2127 1935 2099 1935 Q 2094 1935 2090 1936 Q 2114 1945 2162 1969 Q 2231 1996 2349 2002 L 2401 2001 Q 2437 2002 2445 2018 L 2430 2020 Q 2441 2034 2464 2039 L 2464 2013 Q 2561 2008 2644 2008 Q 2680 2008 2713 2009 L 2770 2014 L 2723 2005 L 2628 2002 L 2535 1993 L 2598 1990 L 2660 1988 L 2612 1982 L 2694 1984 L 2776 1981 L 2754 1974 L 2584 1966 L 2612 1959 L 2598 1956 L 2564 1953 L 2539 1954 L 2464 1955 L 2474 1943 L 2355 1941 Q 2282 1937 2243 1910 L 2243 1910 L 2305 1919 L 2305 1919 Q 2295 1916 2282 1908 L 2240 1902 L 2254 1910 Q 2253 1910 2252 1910 Q 2224 1910 2175 1889 Q 2131 1870 2106 1866 L 2106 1866 L 2121 1872 L 2168 1900 L 2184 1911 L 2199 1922 Q 2216 1932 2230 1932 Q 2232 1932 2235 1932 L 2248 1942 Q 2203 1942 2158 1917 L 2104 1884 Q 2057 1866 2045 1866 Z M 2055 1999 Q 2050 2001 2047 2005 Q 2029 2019 2035 2048 Q 2040 2034 2068 2030 L 2084 2023 Q 2091 2016 2090 2005 L 2050 2004 L 2055 1999 Z M 3536 1995 Q 3504 1995 3470 1995 L 3216 1997 L 3315 2011 L 3393 2019 L 3279 2023 Q 3247 2022 3221 2022 Q 3169 2022 3138 2025 L 3156 2032 L 3175 2039 L 3131 2034 L 3007 2022 L 3029 2031 L 3051 2042 L 3017 2039 L 3000 2036 L 2996 2037 L 2990 2038 L 2980 2040 L 2964 2040 L 2967 2042 L 2975 2043 Q 2917 2062 2830 2066 L 2679 2067 L 2740 2074 L 2801 2080 L 2898 2083 L 2994 2080 L 3025 2074 L 3048 2057 L 3061 2073 L 3071 2089 Q 3104 2091 3152 2091 Q 3201 2091 3266 2089 Q 3230 2071 3209 2064 L 3234 2064 L 3259 2063 L 3274 2056 L 3288 2050 Q 3299 2048 3311 2048 Q 3346 2048 3395 2066 L 3568 2066 L 3556 2052 L 3546 2047 L 3509 2052 L 3469 2059 Q 3458 2060 3447 2060 Q 3399 2060 3333 2040 L 3490 2034 L 3544 2046 L 3537 2043 Q 3562 2041 3589 2041 Q 3696 2041 3828 2067 L 3803 2076 L 3872 2088 L 3946 2087 Q 3930 2078 3926 2067 L 3992 2065 L 4057 2066 Q 4052 2053 4037 2048 L 4037 2048 L 4108 2051 L 4184 2069 L 4225 2076 L 4266 2079 L 4222 2065 Q 4192 2055 4187 2043 L 4187 2043 L 4307 2060 L 4427 2080 L 4318 2047 L 4312 2045 L 4229 2024 L 4126 2015 L 4163 2025 L 4087 2013 L 3971 2008 L 3869 2012 L 4022 2024 L 4046 2029 L 3891 2032 L 3860 2031 L 3828 2034 Q 3869 2035 3921 2057 Q 3908 2062 3890 2062 Q 3857 2062 3803 2046 Q 3751 2030 3677 2028 L 3548 2030 L 3620 2019 L 3694 2019 L 3725 2020 L 3756 2018 L 3691 2007 L 3723 2000 Q 3648 1995 3536 1995 Z M 2230 2074 Q 2232 2134 2261 2198 L 2290 2203 Q 2293 2164 2276 2131 Q 2263 2106 2230 2074 Z M 2311 2101 L 2343 2178 Q 2363 2224 2361 2257 L 2356 2245 L 2356 2245 Q 2358 2262 2374 2283 L 2397 2317 L 2400 2337 L 2400 2359 L 2405 2398 Q 2407 2421 2401 2437 Q 2427 2411 2427 2394 L 2440 2424 L 2455 2454 L 2476 2474 L 2496 2493 L 2526 2542 Q 2548 2574 2572 2579 Q 2539 2553 2520 2529 Q 2497 2498 2470 2437 L 2428 2339 L 2414 2301 L 2404 2278 L 2388 2239 Q 2358 2165 2330 2118 L 2311 2101 Z M 2537 2659 Q 2532 2683 2570 2702 L 2630 2723 L 2630 2704 L 2610 2689 Q 2608 2689 2606 2689 Q 2592 2689 2574 2678 Q 2547 2661 2537 2659 Z M 2566 2623 L 2614 2663 L 2670 2698 Q 2729 2740 2794 2751 Q 2746 2730 2700 2695 L 2664 2664 Q 2640 2644 2625 2639 L 2625 2634 L 2595 2626 L 2566 2623 Z M 2921 2799 Q 2942 2835 3005 2843 L 2990 2824 L 2980 2829 Q 2968 2806 2921 2799 Z" fill="rgb(80,59,25)" fill-opacity="1.000"></path><path d="M 127 709 L 129 751 Q 134 794 156 846 L 217 973 L 220 926 Q 250 975 249 1027 L 273 1025 L 298 1020 L 307 1139 Q 312 1215 340 1246 L 375 1212 Q 393 1191 397 1165 Q 412 1214 405 1337 Q 399 1451 424 1506 Q 438 1491 449 1465 Q 463 1426 471 1363 L 477 1259 L 476 1205 L 498 1213 Q 504 1214 510 1214 Q 538 1214 552 1183 L 538 1172 L 352 1027 L 342 1019 L 340 1018 Q 238 939 192 845 L 184 828 L 177 810 Q 169 790 164 765 L 153 712 L 127 709 Z" fill="rgb(38,28,9)" fill-opacity="1.000"></path><path d="M 168 292 L 160 318 L 154 349 L 168 292 Z M 270 229 L 300 239 Q 351 254 391 300 Q 434 349 427 396 Q 386 390 326 330 Q 264 267 270 229 Z M 800 679 Q 877 741 943 827 Q 1025 936 1019 1007 Q 956 945 887 849 Q 855 806 770 679 Z M 690 629 Q 754 700 804 788 L 886 913 Q 942 994 967 1039 Q 853 983 752 868 Q 625 724 680 629 Z M 1047 1052 Q 1085 1064 1110 1109 L 1120 1099 L 1174 1154 Q 1203 1188 1210 1218 Q 1201 1220 1192 1220 Q 1142 1220 1098 1169 Q 1051 1114 1047 1052 Z M 1130 1019 L 1180 1079 Q 1218 1083 1311 1181 Q 1397 1272 1420 1319 Q 1382 1300 1332 1254 L 1251 1177 L 1170 1112 Q 1127 1069 1130 1019 Z M 1290 1279 L 1330 1309 L 1422 1404 Q 1462 1451 1475 1498 L 1479 1498 L 1480 1459 L 1490 1489 Q 1515 1517 1509 1548 Q 1508 1548 1506 1548 Q 1471 1548 1439 1524 Q 1406 1500 1401 1468 L 1352 1420 Q 1281 1342 1290 1279 Z M 1580 1509 L 1736 1626 L 1643 1543 Q 1636 1537 1580 1509 Z M 1622 1711 Q 1654 1712 1710 1753 L 1790 1819 L 1790 1819 L 1770 1799 L 1770 1799 Q 1815 1825 1870 1896 L 1860 1892 L 1879 1908 Q 1867 1909 1856 1909 Q 1790 1909 1736 1879 Q 1667 1842 1640 1769 L 1641 1769 Q 1617 1740 1622 1711 Z M 2018 1865 Q 2063 1902 2098 1919 L 2120 1932 Q 2119 1932 2118 1932 Q 2096 1932 2061 1908 Q 2025 1883 2018 1865 Z M 4190 1990 L 4199 1992 L 4199 1992 L 4190 1990 Z M 2115 1989 Q 2151 1989 2155 2014 L 2111 2009 L 2110 1989 Z M 2961 2030 L 2996 2037 L 3000 2036 L 2983 2032 L 2961 2030 Z M 4229 2024 L 4312 2045 L 4267 2032 L 4244 2027 L 4229 2024 Z M 2441 2083 Q 2568 2083 2615 2131 L 2605 2127 Q 2604 2127 2603 2127 Q 2579 2127 2518 2109 L 2472 2100 Q 2443 2093 2431 2083 Q 2436 2083 2441 2083 Z M 2071 2113 L 2071 2123 L 2073 2133 L 2071 2113 Z M 3484 2096 L 3554 2113 L 3610 2117 Q 3656 2122 3664 2129 L 3526 2135 L 3390 2129 L 3319 2124 L 3251 2110 Q 3278 2096 3381 2096 Z M 3332 2145 Q 3336 2145 3341 2145 L 3341 2145 L 3332 2145 Z M 2155 2064 L 2184 2106 Q 2198 2133 2196 2153 L 2162 2113 Q 2148 2095 2150 2064 Z M 2692 2124 Q 2749 2124 2825 2139 L 2848 2156 L 2763 2153 Q 2730 2151 2659 2125 Q 2674 2124 2692 2124 Z M 3868 2129 Q 3937 2129 3967 2148 L 3922 2159 L 3873 2159 L 3807 2157 Q 3762 2152 3751 2136 L 3861 2129 Q 3865 2129 3868 2129 Z M 4155 2177 L 4166 2182 L 4172 2187 L 4201 2188 L 4237 2190 L 4235 2184 L 4240 2184 L 4202 2183 L 4155 2177 Z M 2230 2074 Q 2263 2106 2276 2131 Q 2293 2164 2290 2203 L 2261 2198 Q 2232 2134 2230 2074 Z M 5014 2218 L 5039 2220 Q 5053 2228 5044 2239 L 5034 2235 L 5011 2233 Q 5000 2227 5014 2218 Z M 2113 2233 L 2123 2247 L 2134 2261 L 2113 2233 Z M 4977 2232 L 4962 2251 Q 4948 2264 4940 2265 Q 4937 2265 4935 2265 Q 4924 2265 4928 2258 Q 4932 2250 4941 2250 Q 4944 2250 4947 2251 Q 4946 2239 4959 2239 Q 4961 2239 4964 2240 L 4977 2233 Z M 3676 2265 L 3416 2271 L 3430 2271 L 3649 2266 L 3676 2265 Z M 2404 2279 L 2409 2291 L 2409 2291 L 2409 2291 L 2404 2279 Z M 2409 2291 L 2414 2302 L 2414 2302 L 2410 2292 L 2409 2291 Z M 2280 2220 L 2305 2225 Q 2346 2257 2364 2310 Q 2378 2351 2381 2414 Q 2371 2385 2327 2319 Q 2287 2261 2280 2220 Z M 5039 2270 Q 5046 2270 5053 2276 Q 5070 2290 5084 2341 L 5091 2368 L 5097 2395 L 5101 2443 Q 5087 2429 5077 2392 L 5075 2385 L 5070 2362 L 5059 2320 L 5041 2324 L 5037 2296 L 5037 2294 L 5040 2275 L 5035 2270 Q 5037 2270 5039 2270 Z M 5703 2482 L 5710 2485 L 5714 2484 L 5703 2482 Z M 5120 2416 Q 5143 2451 5161 2495 Q 5183 2547 5180 2578 L 5142 2522 Q 5121 2488 5125 2460 L 5120 2445 L 5120 2416 Z M 2450 2510 L 2470 2525 Q 2488 2539 2505 2570 L 2534 2620 L 2567 2647 Q 2589 2663 2595 2674 Q 2534 2669 2498 2618 Q 2479 2589 2450 2510 Z M 6028 2661 L 6022 2672 L 6022 2673 L 6038 2688 L 6059 2699 L 6038 2673 L 6028 2661 Z M 2537 2660 Q 2547 2662 2574 2679 Q 2592 2690 2606 2690 Q 2608 2690 2610 2690 L 2630 2705 L 2630 2724 L 2570 2703 Q 2532 2684 2537 2660 Z M 2566 2624 L 2595 2627 L 2625 2635 L 2625 2640 Q 2640 2645 2664 2665 L 2700 2696 Q 2746 2731 2794 2752 Q 2729 2741 2670 2699 L 2614 2664 L 2566 2624 Z M 2921 2800 Q 2968 2807 2980 2830 L 2990 2825 L 3005 2844 Q 2942 2836 2921 2800 Z M 419 119 Q 342 119 271 148 Q 215 185 184 252 Q 189 396 258 540 Q 323 679 428 777 L 391 707 Q 369 663 371 630 L 371 630 Q 428 666 499 759 Q 581 865 620 898 Q 601 848 557 778 L 483 663 L 400 544 Q 348 464 351 413 L 351 413 Q 375 449 433 492 Q 498 540 519 564 Q 547 595 580 654 L 634 750 L 722 879 Q 773 954 804 1011 Q 864 1122 981 1211 Q 1051 1264 1205 1350 L 1158 1270 L 1114 1188 L 1114 1188 Q 1171 1240 1213 1313 L 1291 1450 Q 1335 1518 1419 1584 L 1568 1697 L 1540 1681 L 1511 1666 L 1511 1666 Q 1525 1755 1639 1843 L 1640 1830 Q 1687 1852 1714 1871 Q 1748 1895 1764 1923 Q 1891 1992 2014 2023 Q 1996 1986 1966 1955 L 1966 1955 L 2047 2006 Q 2050 2002 2055 2000 L 2055 2000 L 2050 2005 L 2090 2006 Q 2091 2017 2084 2024 L 2109 2035 Q 2071 2041 2066 2062 L 2065 2068 L 2065 2068 L 2065 2068 L 2066 2095 L 2068 2096 L 2065 2068 L 2065 2068 Q 2073 2076 2100 2087 Q 2126 2097 2134 2107 L 2150 2147 Q 2156 2171 2180 2183 L 2181 2175 Q 2204 2182 2232 2241 L 2271 2324 L 2271 2279 Q 2300 2309 2335 2383 L 2390 2495 L 2456 2607 Q 2500 2675 2540 2703 L 2540 2685 Q 2642 2783 2812 2816 L 2767 2791 L 2816 2808 L 2865 2825 L 2803 2782 L 2740 2739 L 2740 2739 Q 2834 2774 2941 2840 L 3008 2882 Q 3047 2904 3078 2904 Q 3079 2904 3081 2904 Q 3073 2889 3050 2879 L 3012 2860 L 3056 2864 Q 3047 2850 3018 2835 L 3019 2835 L 2950 2806 Q 2891 2781 2866 2762 L 2866 2762 L 2899 2774 Q 2778 2730 2718 2680 Q 2699 2664 2614 2610 L 2572 2580 Q 2548 2575 2526 2543 L 2496 2494 L 2476 2475 L 2455 2455 L 2440 2425 L 2427 2395 Q 2427 2412 2401 2438 Q 2407 2422 2405 2399 L 2400 2360 L 2400 2338 L 2397 2318 L 2374 2284 Q 2358 2263 2356 2246 L 2356 2246 L 2361 2258 Q 2363 2225 2343 2179 L 2311 2102 L 2330 2119 L 2265 2060 Q 2252 2051 2236 2045 L 2182 2034 Q 2169 2004 2141 1975 L 2141 1975 L 2184 2000 Q 2188 2000 2192 2000 Q 2215 2000 2220 2015 L 2216 2015 L 2257 2033 L 2262 2054 L 2311 2075 Q 2314 2063 2296 2049 Q 2300 2048 2304 2048 Q 2315 2048 2332 2055 L 2367 2073 L 2351 2053 L 2351 2053 Q 2376 2062 2415 2097 Q 2453 2130 2477 2137 L 2480 2117 L 2524 2142 Q 2551 2162 2567 2164 L 2551 2138 L 2596 2146 L 2642 2159 L 2738 2180 L 2847 2185 L 2811 2176 L 3028 2186 L 2972 2178 L 2918 2164 L 2969 2163 L 2940 2154 Q 2958 2153 2981 2153 Q 2993 2153 3006 2153 L 3072 2156 L 3178 2154 L 3283 2160 L 3341 2179 L 3398 2180 Q 3378 2166 3343 2166 Q 3339 2166 3334 2166 L 3391 2162 Q 3367 2148 3341 2146 L 3341 2146 L 3442 2150 L 3552 2160 L 3623 2161 L 3694 2163 L 3684 2179 L 3761 2187 L 3840 2183 L 3910 2184 L 3980 2180 L 4056 2173 L 4102 2168 L 4124 2170 L 4116 2167 L 4185 2169 L 4253 2169 L 4233 2162 L 4290 2168 L 4350 2164 L 4338 2160 L 4432 2160 Q 4423 2169 4423 2175 L 4435 2175 L 4435 2186 L 4456 2190 L 4489 2195 L 4512 2195 L 4542 2201 L 4565 2210 L 4583 2212 L 4600 2215 Q 4610 2218 4624 2227 L 4626 2228 L 4628 2228 L 4640 2234 L 4643 2238 L 4645 2239 L 4680 2239 L 4673 2235 L 4707 2234 L 4730 2233 L 4759 2241 L 4834 2256 L 4821 2249 L 4808 2236 L 4836 2243 L 4864 2250 L 4886 2248 L 4907 2247 L 4907 2247 Q 4903 2258 4906 2266 L 4911 2277 L 4968 2272 Q 4985 2257 5008 2255 L 5020 2255 Q 5006 2259 4999 2269 L 4996 2274 L 5010 2276 Q 5000 2280 4998 2288 Q 4995 2294 4998 2303 L 5012 2339 L 5017 2330 Q 5033 2340 5046 2374 L 5051 2355 L 5051 2340 L 5060 2358 L 5071 2391 L 5074 2401 L 5091 2464 L 5083 2452 L 5083 2452 Q 5071 2481 5103 2519 L 5151 2578 L 5151 2560 Q 5170 2618 5211 2649 L 5215 2625 L 5231 2674 Q 5244 2701 5265 2704 Q 5271 2695 5280 2690 L 5246 2643 Q 5203 2581 5185 2540 L 5135 2425 L 5120 2399 L 5114 2389 L 5104 2370 Q 5098 2356 5100 2347 Q 5106 2320 5089 2291 L 5079 2278 L 5054 2261 L 5088 2255 L 5104 2251 L 5201 2285 L 5297 2319 L 5400 2347 Q 5464 2364 5501 2376 L 5498 2367 L 5494 2359 L 5494 2359 Q 5564 2364 5644 2402 Q 5719 2438 5770 2487 L 5768 2487 Q 5811 2499 5855 2526 L 5883 2545 L 5919 2573 L 5935 2585 L 5988 2612 L 6000 2619 Q 5908 2524 5853 2452 L 5810 2400 Q 5729 2351 5606 2310 L 5606 2310 L 5733 2385 Q 5809 2430 5856 2469 Q 5771 2421 5653 2379 L 5442 2310 L 5469 2349 Q 5415 2340 5343 2314 L 5219 2269 L 5361 2269 L 5113 2222 L 4862 2211 Q 4797 2219 4738 2219 Q 4582 2219 4475 2159 L 4475 2159 L 4528 2160 Q 4471 2145 4431 2118 Q 4449 2111 4473 2111 Q 4537 2111 4643 2158 L 4658 2157 Q 4616 2133 4540 2110 L 4416 2071 L 4507 2083 L 4600 2103 Q 4569 2088 4537 2079 L 4475 2067 L 4413 2054 L 4331 2029 Q 4291 2023 4273 2012 L 4279 2012 L 4247 2004 L 4199 1993 L 4191 1993 Q 4196 1999 4193 2007 L 4187 2009 L 4267 2033 L 4324 2044 L 4380 2058 L 4318 2048 L 4427 2081 L 4307 2061 L 4187 2044 L 4187 2044 Q 4192 2056 4222 2066 L 4266 2080 L 4225 2077 L 4184 2070 L 4108 2052 L 4037 2049 L 4037 2049 Q 4052 2054 4057 2067 L 3992 2066 L 3926 2068 Q 3930 2079 3946 2088 L 3872 2089 L 3803 2077 L 3828 2068 Q 3695 2042 3589 2042 Q 3562 2042 3537 2044 L 3544 2047 L 3548 2048 L 3546 2048 L 3556 2053 L 3568 2067 L 3395 2067 Q 3346 2049 3311 2049 Q 3298 2049 3288 2051 L 3274 2057 L 3259 2064 L 3234 2065 L 3209 2065 Q 3230 2072 3266 2090 Q 3201 2092 3152 2092 Q 3103 2092 3071 2090 L 3061 2074 L 3048 2058 L 3025 2075 L 2994 2081 L 2898 2084 L 2801 2081 L 2740 2075 L 2679 2068 L 2830 2067 Q 2917 2063 2975 2044 L 2967 2043 L 2750 2063 Q 2740 2063 2731 2063 Q 2606 2063 2505 2014 L 2505 2014 L 2677 2029 L 2841 2030 L 2853 2030 L 2821 2026 L 2772 2015 L 2770 2015 L 2713 2010 Q 2680 2009 2644 2009 Q 2561 2009 2464 2014 L 2464 2040 Q 2441 2035 2430 2021 L 2445 2019 Q 2437 2003 2401 2002 L 2349 2003 Q 2231 1997 2162 1970 Q 2114 1946 2090 1937 Q 2094 1936 2099 1936 Q 2127 1936 2173 1957 Q 2228 1981 2255 1981 Q 2256 1981 2257 1981 Q 2153 1946 2044 1867 Q 2045 1867 2045 1867 Q 2056 1867 2104 1885 L 2068 1860 L 2106 1867 Q 2131 1871 2175 1890 Q 2224 1911 2252 1911 Q 2253 1911 2254 1911 L 2240 1903 L 2282 1909 L 2280 1908 L 2290 1910 L 2272 1904 L 2269 1902 L 2255 1897 Q 2154 1872 2059 1836 Q 2005 1815 1912 1742 L 1912 1742 L 1913 1751 L 1930 1777 L 1950 1802 L 1871 1726 Q 1828 1687 1790 1672 L 1790 1672 Q 1840 1722 1848 1778 Q 1815 1765 1769 1724 L 1693 1663 L 1702 1691 L 1710 1720 Q 1662 1696 1608 1625 Q 1555 1555 1540 1500 L 1540 1500 L 1580 1510 L 1522 1481 Q 1443 1442 1434 1397 Q 1435 1397 1437 1397 Q 1457 1397 1488 1412 Q 1524 1429 1541 1430 L 1476 1372 Q 1436 1337 1419 1305 L 1419 1305 Q 1456 1329 1480 1329 Q 1482 1329 1484 1329 L 1482 1319 L 1490 1329 Q 1391 1204 1232 963 L 1165 865 L 1314 1086 L 1242 1027 L 1257 1070 Q 1245 1043 1213 1015 L 1131 951 Q 1089 914 1049 855 L 1008 793 L 946 734 Q 886 670 852 612 L 813 578 L 624 433 L 624 433 Q 636 457 653 520 Q 668 575 686 608 Q 669 579 630 546 L 570 489 Q 552 467 529 421 L 490 350 L 480 360 L 411 289 L 344 212 Q 351 210 360 210 Q 407 210 479 269 L 599 378 L 601 351 L 602 323 L 787 486 L 828 523 L 865 531 Q 847 503 804 468 L 734 411 Q 631 314 569 266 Q 539 243 517 206 L 476 144 Q 462 127 435 119 L 435 119 L 454 120 Q 437 119 419 119 Z" fill="rgb(70,52,15)" fill-opacity="1.000"></path><path d="M 1062 796 L 1105 844 L 1145 894 Q 1102 861 1062 796 Z M 770 679 Q 855 806 887 849 Q 956 945 1019 1007 Q 1025 936 943 827 Q 877 741 800 679 Z M 435 118 Q 462 126 476 143 L 517 205 Q 539 242 569 265 Q 631 313 734 410 L 804 467 Q 847 502 865 530 L 828 522 L 815 522 Q 825 565 852 611 Q 886 669 946 733 L 1008 792 Q 1072 849 1147 897 L 1174 942 Q 1194 984 1235 1020 L 1242 1026 L 1314 1085 L 1165 864 L 1146 836 L 1095 768 L 929 576 L 925 572 L 712 340 Q 580 196 485 123 L 484 122 L 454 119 L 435 118 Z M 1419 1304 Q 1436 1336 1476 1371 L 1541 1429 Q 1524 1428 1488 1411 Q 1457 1396 1437 1396 Q 1436 1396 1434 1396 Q 1443 1441 1522 1480 L 1580 1509 Q 1636 1537 1643 1543 L 1736 1626 L 1779 1667 L 1790 1671 Q 1828 1686 1871 1725 L 1950 1801 L 1930 1776 L 1913 1750 L 1912 1741 L 1911 1731 Q 1804 1645 1685 1533 L 1556 1406 L 1528 1374 L 1520 1365 L 1493 1331 L 1490 1328 L 1482 1318 L 1484 1328 Q 1482 1328 1480 1328 Q 1456 1328 1419 1304 Z M 1640 1769 Q 1667 1842 1736 1879 Q 1791 1909 1856 1909 Q 1867 1909 1879 1908 L 1860 1892 Q 1829 1871 1759 1842 Q 1670 1805 1660 1769 Z M 2305 1919 L 2315 1920 Q 2310 1920 2305 1919 Z M 2018 1865 Q 2025 1883 2061 1908 Q 2097 1932 2118 1932 Q 2119 1932 2120 1932 L 2098 1919 Q 2063 1902 2018 1865 Z M 2068 1859 L 2104 1884 L 2158 1917 Q 2203 1942 2248 1942 L 2235 1932 Q 2233 1932 2230 1932 Q 2216 1932 2199 1922 L 2184 1911 L 2168 1900 L 2121 1872 L 2106 1866 L 2068 1859 Z M 2265 1899 L 2269 1901 L 2272 1903 L 2290 1909 L 2280 1907 L 2282 1908 Q 2294 1916 2305 1919 L 2305 1919 L 2243 1910 L 2243 1910 Q 2282 1937 2355 1941 L 2474 1943 L 2464 1955 L 2539 1954 L 2564 1953 L 2493 1949 L 2493 1945 L 2401 1930 L 2378 1927 L 2356 1919 L 2265 1899 Z M 3851 1964 L 3827 1968 L 3824 1969 L 3904 1969 L 3851 1964 Z M 3904 1969 L 3914 1970 L 3914 1970 L 3917 1969 Z M 2184 1947 Q 2276 1976 2354 1980 L 2498 1984 L 2483 1972 L 2429 1970 L 2375 1967 Q 2274 1967 2184 1947 Z M 3776 1955 L 3759 1956 Q 4019 1956 4185 1989 L 4187 1989 Q 4023 1956 3776 1955 Z M 4060 1981 L 4093 1991 L 4029 1981 Z M 4267 2032 L 4312 2045 L 4318 2047 L 4380 2057 L 4324 2043 L 4267 2032 Z M 3490 2034 L 3333 2040 Q 3398 2060 3447 2060 Q 3459 2060 3469 2059 L 3509 2052 L 3546 2047 L 3548 2047 L 3544 2046 L 3490 2034 Z M 2858 1947 L 2618 1949 L 2631 1952 L 2672 1954 L 2985 1959 L 2870 1962 Q 2832 1966 2785 1966 Q 2738 1966 2683 1963 L 2599 1957 L 2613 1960 L 2585 1967 L 2755 1975 L 2777 1982 L 2695 1985 L 2613 1983 L 2661 1989 L 2599 1991 L 2536 1994 L 2629 2003 L 2724 2006 L 2771 2015 L 2773 2015 L 2822 2026 L 2854 2030 L 2912 2030 L 2962 2031 L 2984 2033 L 3001 2037 L 3018 2040 L 3052 2043 L 3030 2032 L 3008 2023 L 3132 2035 L 3176 2040 L 3157 2033 L 3139 2026 Q 3170 2023 3222 2023 Q 3248 2023 3280 2024 L 3394 2020 L 3316 2012 L 3217 1998 L 3471 1996 Q 3506 1996 3537 1996 Q 3648 1996 3724 2001 L 3692 2008 L 3757 2019 L 3726 2021 L 3695 2020 L 3621 2020 L 3549 2031 L 3678 2029 Q 3752 2031 3804 2047 Q 3857 2063 3891 2063 Q 3910 2063 3922 2058 Q 3870 2036 3829 2035 L 3861 2032 L 3892 2033 L 4047 2030 L 4023 2025 L 3870 2013 L 3972 2009 L 4088 2014 L 4164 2026 L 4127 2016 L 4230 2025 L 4245 2028 L 4268 2033 L 4188 2009 L 4157 2003 L 4154 2002 L 4138 1991 L 4169 1991 L 4166 1990 L 4118 1985 L 4070 1975 L 4012 1974 L 3954 1978 L 3968 1976 L 3915 1971 L 3915 1971 L 3911 1972 L 3919 1977 L 3825 1970 L 3805 1976 Q 3793 1979 3777 1979 Q 3761 1979 3741 1977 L 3676 1971 L 3573 1971 L 3311 1974 L 3210 1974 L 3168 1978 L 3125 1975 L 3130 1968 L 3120 1963 L 3175 1965 L 3282 1964 L 3108 1956 L 2859 1949 Z M 4309 2020 L 4660 2103 L 4560 2083 L 4419 2049 L 4374 2042 L 4309 2020 Z M 5015 2220 Q 5001 2229 5012 2235 L 5035 2237 L 5045 2241 Q 5054 2230 5040 2222 L 5015 2220 Z M 4978 2234 L 4965 2241 Q 4962 2241 4960 2241 Q 4948 2241 4948 2254 Q 4945 2253 4942 2253 Q 4933 2253 4929 2261 Q 4925 2268 4936 2268 Q 4938 2268 4941 2268 Q 4949 2267 4963 2254 L 4978 2235 Z M 4911 2288 Q 4909 2303 4915 2312 Q 4923 2307 4923 2299 Q 4923 2291 4915 2288 Z M 5040 2272 Q 5038 2272 5036 2272 L 5041 2277 L 5038 2296 L 5038 2298 L 5042 2326 L 5060 2322 L 5071 2364 L 5076 2387 L 5078 2394 Q 5088 2431 5102 2445 L 5098 2397 L 5092 2370 L 5085 2343 Q 5071 2292 5054 2278 Q 5047 2272 5040 2272 Z M 4274 2014 Q 4292 2025 4332 2031 L 4414 2056 L 4476 2069 L 4538 2081 Q 4570 2090 4601 2105 L 4508 2085 L 4417 2073 L 4541 2112 Q 4617 2135 4659 2159 L 4644 2160 L 4529 2162 L 4476 2161 L 4476 2161 Q 4583 2221 4739 2221 Q 4797 2221 4863 2213 L 5114 2224 L 5362 2271 L 5220 2271 L 5344 2316 Q 5416 2342 5470 2351 L 5443 2312 L 5654 2381 Q 5772 2423 5857 2471 Q 5810 2432 5734 2387 L 5607 2312 L 5605 2311 L 5579 2303 L 5492 2278 L 5478 2274 L 5452 2267 L 5448 2266 L 5256 2223 L 5095 2194 L 4982 2172 L 4946 2164 L 4783 2130 L 4637 2093 L 4626 2089 L 4617 2089 L 4614 2088 L 4615 2088 L 4579 2081 L 4501 2061 L 4356 2031 Q 4305 2015 4280 2014 Z M 5121 2418 L 5121 2447 L 5126 2462 Q 5122 2490 5143 2524 L 5181 2580 Q 5184 2549 5162 2497 Q 5144 2453 5121 2418 Z" fill="rgb(97,73,36)" fill-opacity="1.000"></path><path d="M 144 632 Q 147 675 153 712 L 164 765 L 184 828 L 192 845 Q 238 939 340 1018 L 342 1019 L 352 1027 L 538 1172 L 552 1183 L 564 1192 L 585 1209 L 878 1441 L 903 1461 L 1080 1602 L 1097 1616 L 1109 1626 L 1114 1629 L 1115 1630 Q 1572 1981 1950 2181 L 1964 2188 Q 2033 2223 2123 2247 L 2113 2233 L 2079 2167 L 2079 2166 L 2073 2142 L 2073 2141 L 2073 2139 L 2073 2138 L 2073 2135 L 2073 2133 L 2071 2123 L 2070 2168 L 2046 2167 L 2046 2148 L 2045 2130 L 2040 2129 L 2031 2129 L 2032 2124 Q 2028 2120 2027 2112 L 2027 2109 L 2020 2094 L 1938 2064 L 1940 2064 Q 1948 2020 1903 1994 Q 1870 1975 1829 1975 Q 1825 1975 1821 1975 Q 1819 1982 1825 1994 L 1844 2018 L 1772 1978 Q 1786 1968 1769 1931 L 1764 1922 Q 1748 1894 1714 1870 Q 1687 1851 1640 1829 L 1639 1842 L 1636 1893 Q 1505 1804 1413 1710 L 1408 1731 L 1402 1749 Q 1365 1729 1326 1679 Q 1278 1617 1256 1598 Q 1210 1558 1159 1495 L 1072 1381 L 1072 1381 Q 1072 1406 1085 1435 L 1112 1486 L 960 1365 L 804 1247 L 690 1166 Q 601 1099 568 1054 L 568 1054 L 595 1102 L 620 1149 Q 544 1116 468 1019 Q 399 929 370 841 L 370 841 Q 367 879 379 947 Q 199 821 144 632 Z M 4102 2167 L 4056 2172 L 4035 2179 L 4072 2219 L 4095 2244 L 4151 2248 Q 4185 2248 4191 2229 L 4191 2209 L 4188 2202 L 4187 2201 L 4179 2192 L 4172 2187 L 4166 2182 L 4155 2177 L 4124 2169 L 4102 2167 Z M 4914 2285 Q 4922 2288 4922 2296 Q 4922 2304 4914 2309 Q 4908 2300 4910 2285 Z M 4604 2294 L 4717 2302 L 4802 2297 L 4820 2315 L 4487 2294 Z M 2235 2034 L 2236 2044 Q 2252 2050 2265 2059 L 2330 2118 Q 2358 2165 2388 2239 L 2404 2278 L 2409 2290 L 2441 2292 L 2576 2295 L 2594 2295 L 2687 2294 L 2734 2293 L 2753 2293 L 3155 2276 L 3217 2273 L 3226 2272 L 3232 2272 L 3416 2270 L 3676 2264 L 3761 2262 L 3777 2261 L 3819 2261 L 4191 2271 L 4275 2279 L 4345 2290 L 4375 2292 L 4485 2307 L 4596 2321 L 4715 2336 L 4718 2337 L 4748 2341 L 4760 2342 L 4764 2343 L 4870 2358 L 4873 2358 L 4960 2371 Q 4947 2352 4945 2339 Q 4939 2305 4957 2283 L 4920 2280 L 4822 2279 L 4820 2264 L 4759 2240 L 4730 2232 L 4707 2233 L 4687 2236 L 4680 2238 L 4645 2238 L 4643 2237 L 4626 2227 L 4624 2226 Q 4610 2217 4600 2214 L 4583 2211 L 4565 2209 L 4542 2200 L 4512 2194 L 4489 2194 L 4436 2193 L 4435 2185 L 4435 2174 L 4423 2174 L 4336 2178 L 4242 2184 L 4235 2184 L 4237 2190 L 4247 2225 L 4258 2261 L 4260 2268 L 4251 2267 L 4254 2261 L 4227 2257 L 4160 2252 L 4121 2246 L 4086 2244 L 3982 2239 L 3889 2235 L 3797 2228 L 3745 2227 L 3697 2219 L 3722 2218 L 3676 2212 L 3526 2194 L 3263 2188 L 3366 2205 Q 3431 2212 3467 2236 L 3252 2247 L 3255 2234 L 3168 2217 L 3135 2209 L 3081 2199 L 3029 2194 L 3012 2192 L 2973 2200 L 2969 2203 L 2955 2219 L 3050 2224 L 3119 2245 L 2810 2228 L 2649 2219 L 2488 2201 L 2457 2191 Q 2459 2178 2454 2163 Q 2446 2137 2426 2121 Q 2401 2101 2328 2079 L 2311 2074 L 2262 2053 L 2235 2034 Z M 5568 2448 L 5553 2449 L 5553 2449 Q 5561 2449 5568 2448 Z M 6026 2644 L 6099 2716 L 6059 2698 L 6038 2687 L 6014 2674 L 6022 2672 L 6022 2671 L 6028 2660 L 6027 2649 L 6026 2644 Z M 5201 2363 Q 5201 2375 5189 2376 L 5165 2375 L 5104 2369 L 5114 2388 L 5120 2398 L 5122 2399 L 5126 2400 L 5147 2404 L 5151 2404 L 5163 2407 L 5215 2417 Q 5749 2529 6011 2742 L 6138 2833 L 6099 2782 Q 6102 2770 6114 2769 L 6215 2763 L 6196 2723 L 6187 2714 L 6120 2656 L 5976 2533 L 5917 2481 L 5915 2480 L 5843 2438 L 5853 2451 Q 5908 2523 6000 2618 L 5988 2611 L 5935 2584 L 5919 2572 L 5883 2544 L 5855 2525 Q 5811 2498 5768 2486 L 5714 2483 L 5710 2484 Q 5693 2489 5685 2504 L 5825 2559 L 5851 2591 L 5758 2538 Q 5727 2521 5645 2494 Q 5569 2469 5541 2450 L 5553 2449 L 5553 2449 Q 5553 2449 5553 2449 Q 5525 2449 5485 2436 L 5402 2409 L 5252 2374 L 5202 2363 Z" fill="rgb(44,34,11)" fill-opacity="1.000"></path><path d="M 2356 1919 L 2378 1927 L 2401 1930 L 2493 1945 L 2493 1949 L 2564 1953 L 2598 1956 L 2682 1962 Q 2738 1966 2785 1966 Q 2832 1966 2871 1963 L 2986 1960 L 2673 1955 L 2632 1953 L 2602 1951 L 2357 1920 Z M 3680 1957 L 3434 1962 L 3282 1963 L 3175 1964 L 3120 1962 L 3130 1967 L 3125 1974 L 3168 1977 L 3210 1973 L 3311 1973 L 3573 1970 L 3676 1970 L 3741 1976 Q 3761 1979 3777 1979 Q 3793 1979 3805 1977 L 3825 1971 L 3828 1970 L 3852 1966 L 3968 1977 L 3954 1979 L 4012 1975 L 4070 1976 L 4118 1986 L 4166 1991 L 4169 1992 L 4192 1994 L 4200 1994 L 4191 1992 L 4186 1991 Q 4020 1958 3760 1958 Z M 4309 2020 L 4374 2042 L 4419 2049 L 4560 2083 L 4660 2103 L 4309 2020 Z" fill="rgb(121,95,54)" fill-opacity="1.000"></path></g></g></g></g></g></g><defs><defs></defs></defs></svg>