<svg color-interpolation-filters="sRGB" fill-rule="evenodd" pointer-events="none" width="100%" height="100%" xmlns="http://www.w3.org/2000/svg" xmlns:xlink="http://www.w3.org/1999/xlink" style="-webkit-user-select: none;"><g transform="matrix(0.04942450914014895 0 0 0.04942450914014895 0 0.031821259309410266)"><g><rect x="0" y="-0.643835616438342" width="1476.9999999999998" height="546.2876712328766" fill="rgb(255,255,255)"></rect><g><g><g><g><path d="M 752 83 Q 736 85 715 98 L 712 101 Q 719 114 746 125 L 756 131 Q 764 96 752 83 Z M 57 86 L 42 89 Q 27 94 0 111 L 45 116 L 57 114 L 57 114 Q 56 144 69 165 L 77 176 Q 67 155 68 126 Q 58 111 57 86 Z M 165 103 L 160 110 L 156 120 Q 167 126 161 137 L 150 140 L 139 143 L 128 141 L 105 144 Q 98 150 97 165 Q 97 181 90 187 Q 103 196 121 202 L 120 174 Q 120 154 128 149 L 160 155 L 178 158 L 189 149 Q 195 136 177 115 L 165 103 Z M 1142 152 Q 1136 152 1129 157 Q 1116 167 1125 210 L 1132 239 L 1147 228 L 1164 207 L 1176 198 L 1175 193 Q 1159 152 1142 152 Z M 773 219 L 770 231 L 783 242 L 768 244 L 768 255 L 775 256 L 796 257 L 825 255 Q 822 240 795 229 L 789 226 L 773 219 Z M 569 236 Q 548 275 550 343 L 586 307 L 599 294 Q 630 266 655 258 L 650 254 L 634 242 L 631 244 L 597 269 L 597 260 L 599 251 L 602 241 L 587 241 L 569 236 Z M 1035 287 Q 985 292 981 306 Q 977 315 1004 342 L 1032 368 L 1063 388 L 1067 390 L 1062 371 Q 1051 368 1043 360 Q 1038 354 1028 324 L 1065 312 L 1065 310 L 1072 287 Z M 1346 342 L 1350 360 L 1350 363 L 1376 364 Q 1418 367 1418 387 L 1363 387 L 1341 390 L 1330 411 L 1330 413 L 1381 422 L 1418 425 L 1472 417 L 1464 403 L 1450 394 Q 1430 376 1398 362 L 1356 345 L 1346 342 Z M 1068 390 L 1108 408 L 1106 423 L 1098 457 Q 1092 486 1103 505 L 1137 487 L 1169 463 Q 1153 459 1142 451 Q 1132 469 1116 469 Q 1108 457 1116 434 L 1120 424 L 1106 391 L 1068 390 Z M 1210 465 L 1201 466 L 1219 504 L 1224 511 Q 1249 545 1276 545 Q 1278 545 1280 545 Q 1277 524 1281 488 L 1282 480 L 1261 487 L 1268 520 L 1258 523 L 1228 483 Q 1216 478 1210 465 Z" fill="rgb(58,77,13)" fill-opacity="1.000"></path><path d="M 57 114 L 45 116 Q 40 139 42 164 L 60 163 L 69 165 Q 56 144 57 114 Z M 128 149 Q 120 154 120 174 L 121 202 Q 103 196 90 187 L 89 188 L 101 202 Q 115 212 135 212 Q 140 212 145 211 L 145 182 L 177 178 L 178 158 L 160 155 L 128 149 Z M 782 181 L 779 198 L 773 219 L 789 226 L 795 229 Q 804 207 782 181 Z M 768 255 L 768 262 L 752 279 L 701 278 L 669 267 L 655 258 Q 630 266 599 294 L 586 307 L 586 315 Q 590 317 594 317 Q 605 317 624 307 L 664 291 Q 670 290 679 290 Q 688 290 700 292 L 736 290 L 772 297 Q 761 272 770 262 L 775 257 L 768 256 Z M 1325 290 L 1331 302 L 1346 343 L 1356 346 L 1398 363 Q 1397 332 1375 313 Q 1359 301 1325 290 Z M 1063 389 L 1057 399 Q 1063 405 1094 419 L 1106 424 L 1108 409 L 1068 391 L 1067 391 L 1063 389 Z M 1330 414 L 1295 472 L 1282 481 L 1281 489 L 1327 490 Q 1348 491 1367 491 Q 1436 491 1477 474 Q 1443 459 1418 426 L 1381 423 L 1330 414 Z M 1169 464 L 1137 488 L 1136 501 Q 1135 545 1149 545 Q 1157 545 1168 532 Q 1192 507 1203 507 Q 1210 507 1211 516 L 1224 512 L 1219 505 L 1201 467 L 1169 464 Z" fill="rgb(34,45,6)" fill-opacity="1.000"></path><path d="M 156 120 L 150 130 Q 144 137 130 140 L 128 141 L 139 143 L 150 140 L 161 137 Q 167 126 156 120 Z M 68 126 Q 67 155 77 176 L 86 190 L 89 188 L 90 187 Q 97 181 97 165 Q 98 150 105 144 Q 80 143 68 126 Z M 770 231 L 768 239 L 768 244 L 783 242 L 770 231 Z M 611 240 L 602 241 L 599 251 L 597 260 L 597 269 L 631 244 L 634 242 L 632 242 L 611 240 Z M 1065 312 L 1028 324 Q 1038 354 1043 360 Q 1051 368 1062 371 Q 1056 341 1065 312 Z M 1350 363 L 1341 390 L 1363 387 L 1418 387 Q 1418 367 1376 364 L 1350 363 Z M 1120 424 L 1116 434 Q 1108 457 1116 469 Q 1132 469 1142 451 L 1122 430 L 1120 424 Z M 1228 483 L 1258 523 L 1268 520 L 1261 487 L 1249 487 L 1228 483 Z" fill="rgb(47,63,9)" fill-opacity="1.000"></path><path d="M 102 54 L 119 63 Q 125 78 122 95 Q 106 95 97 81 Q 88 68 102 54 Z M 119 0 Q 97 0 80 22 L 43 24 Q 28 30 26 57 Q 26 76 31 79 L 56 81 L 57 86 Q 58 111 68 126 Q 80 143 105 144 L 128 141 L 130 140 Q 144 137 150 130 L 156 120 L 160 110 L 165 103 L 178 73 Q 193 32 149 9 Q 133 0 119 0 Z M 625 43 L 634 55 Q 640 46 645 46 Q 651 46 655 57 Q 663 76 657 91 L 646 77 Q 636 88 629 110 L 621 146 Q 618 133 620 99 L 620 99 L 603 128 Q 594 109 599 80 Q 606 49 625 43 Z M 672 105 L 677 128 Q 680 141 676 150 L 688 149 L 702 149 L 703 160 L 718 161 L 702 187 L 715 199 L 724 213 Q 709 213 698 202 L 698 202 L 703 209 Q 700 210 697 210 Q 685 210 671 196 L 671 196 L 676 232 Q 656 227 638 197 L 629 199 L 629 188 L 603 192 Q 607 180 617 174 L 609 173 L 635 173 L 641 143 L 640 111 L 658 146 Q 658 113 672 105 Z M 651 32 Q 619 32 606 56 Q 593 80 594 141 L 588 126 Q 544 132 544 185 Q 545 224 569 236 L 587 241 L 602 241 L 611 240 L 632 242 L 634 242 L 650 254 L 655 258 L 669 267 L 701 278 L 752 279 L 768 262 L 768 255 L 768 244 L 768 239 L 770 231 L 773 219 L 779 198 L 782 181 L 779 154 L 756 131 L 746 125 Q 719 114 712 101 L 711 98 L 709 60 Q 709 43 681 36 Q 665 32 651 32 Z M 1299 280 L 1296 290 Q 1306 309 1288 320 Q 1287 312 1293 288 L 1293 288 L 1282 304 L 1268 318 Q 1264 306 1275 293 Q 1284 283 1299 280 Z M 1082 264 L 1108 273 L 1122 277 L 1134 336 L 1110 333 L 1086 319 L 1088 355 Q 1073 325 1082 264 Z M 1212 209 L 1217 229 Q 1202 234 1197 263 L 1191 305 L 1184 283 L 1178 260 Q 1172 273 1171 299 L 1195 313 L 1194 330 L 1195 326 L 1198 322 L 1202 330 L 1201 272 L 1207 291 Q 1220 288 1227 269 Q 1234 282 1228 306 Q 1225 331 1229 340 L 1266 328 L 1253 345 L 1238 362 L 1272 353 Q 1288 346 1300 346 Q 1303 346 1305 346 L 1294 358 L 1281 370 L 1294 385 L 1250 390 L 1253 410 L 1255 431 Q 1244 431 1240 423 L 1240 423 L 1249 446 Q 1255 465 1251 477 Q 1238 472 1229 447 L 1219 414 L 1217 414 Q 1215 436 1205 447 Q 1197 436 1199 407 L 1199 405 Q 1189 426 1174 431 Q 1170 417 1173 392 L 1173 392 Q 1168 406 1157 406 Q 1156 406 1154 406 L 1154 390 L 1136 395 L 1165 373 Q 1122 365 1115 342 Q 1127 338 1137 338 Q 1147 338 1156 343 Q 1143 327 1139 312 Q 1152 312 1164 325 Q 1154 309 1151 291 L 1151 291 L 1158 294 L 1156 271 L 1161 221 L 1182 212 L 1212 210 Z M 1235 187 L 1197 189 Q 1185 192 1176 199 L 1164 208 L 1147 229 L 1132 240 L 1125 241 L 1106 237 Q 1104 237 1102 237 Q 1094 237 1088 244 L 1091 234 L 1072 288 L 1065 311 L 1065 313 Q 1056 342 1062 372 L 1067 391 L 1068 391 L 1106 392 L 1120 425 L 1122 431 L 1142 452 Q 1153 460 1169 464 L 1201 467 L 1210 466 Q 1216 479 1228 484 L 1249 488 L 1261 488 L 1282 481 L 1295 472 L 1330 414 L 1330 412 L 1341 391 L 1350 364 L 1350 361 L 1346 343 L 1331 302 L 1325 290 Q 1316 273 1303 265 L 1273 255 Q 1262 247 1257 218 Q 1254 193 1235 187 Z" fill="rgb(143,125,190)" fill-opacity="1.000"></path><path d="M 655 154 L 659 167 Q 662 167 664 167 Q 681 167 673 181 Q 666 192 653 192 Q 649 192 643 191 Q 635 166 655 154 Z M 672 105 Q 658 113 658 146 L 640 111 L 641 143 L 635 173 L 609 173 L 617 174 Q 607 180 603 192 L 629 188 L 629 199 L 638 197 Q 656 227 676 232 L 671 196 L 671 196 Q 685 210 697 210 Q 700 210 703 209 L 698 202 L 698 202 Q 709 213 724 213 L 715 199 L 702 187 L 718 161 L 703 160 L 702 149 L 688 149 L 676 150 Q 680 141 677 128 L 672 105 Z M 1199 407 Q 1197 436 1205 447 Q 1215 436 1217 414 L 1206 412 L 1199 407 Z M 1227 269 Q 1220 288 1207 291 L 1201 272 L 1202 330 L 1198 322 L 1195 326 L 1194 330 L 1195 313 L 1171 299 L 1170 322 Q 1161 313 1158 293 L 1151 290 L 1151 290 Q 1154 308 1164 324 Q 1152 311 1139 311 Q 1143 326 1156 342 Q 1148 338 1137 338 Q 1127 338 1115 343 Q 1122 366 1165 374 L 1136 396 L 1154 391 L 1154 407 Q 1155 407 1157 407 Q 1168 407 1173 393 L 1173 393 Q 1170 418 1174 432 Q 1189 427 1199 406 Q 1199 401 1210 394 Q 1201 390 1195 372 L 1192 359 L 1186 353 L 1187 344 L 1192 359 L 1195 362 L 1209 359 L 1227 381 Q 1241 395 1232 406 Q 1228 414 1219 415 L 1229 448 Q 1238 473 1251 478 Q 1255 466 1249 447 L 1240 424 L 1240 424 Q 1244 432 1255 432 L 1253 411 L 1250 391 L 1294 386 L 1281 371 L 1294 359 L 1305 347 Q 1303 347 1300 347 Q 1288 347 1272 354 L 1238 363 L 1253 346 L 1266 329 L 1229 341 Q 1225 332 1228 307 Q 1234 283 1227 270 Z" fill="rgb(106,93,142)" fill-opacity="1.000"></path><path d="M 625 43 Q 606 49 599 80 Q 594 109 603 128 L 620 99 L 620 99 Q 618 133 621 146 L 629 110 Q 636 88 646 77 L 657 91 Q 663 76 655 57 Q 650 46 645 46 Q 640 46 634 55 L 625 43 Z M 1299 280 Q 1284 283 1275 293 Q 1264 306 1268 318 L 1282 304 L 1293 288 L 1293 288 Q 1287 312 1288 320 Q 1306 309 1296 290 L 1299 280 Z M 1212 209 L 1182 211 L 1161 220 L 1156 270 L 1158 293 Q 1161 313 1170 322 L 1171 299 Q 1172 273 1178 260 L 1184 283 L 1191 305 L 1197 263 Q 1202 234 1217 229 L 1212 209 Z M 1082 264 Q 1073 325 1088 355 L 1086 319 L 1110 333 L 1134 336 L 1122 277 L 1108 273 L 1082 264 Z" fill="rgb(164,143,218)" fill-opacity="1.000"></path><path d="M 102 54 Q 88 68 97 81 Q 106 95 122 95 Q 125 78 119 63 L 102 54 Z M 655 154 Q 635 166 643 191 Q 648 192 653 192 Q 667 192 673 181 Q 681 167 664 167 Q 662 167 659 167 L 655 154 Z M 1187 343 L 1186 352 L 1192 358 L 1187 343 Z M 1192 358 L 1195 371 Q 1201 389 1210 393 Q 1199 400 1199 405 L 1199 407 L 1206 412 L 1217 414 L 1219 414 Q 1228 413 1232 405 Q 1241 394 1227 380 L 1209 358 L 1195 361 L 1192 358 Z" fill="rgb(182,132,35)" fill-opacity="1.000"></path></g></g></g></g></g></g><defs><defs></defs></defs></svg>