<svg color-interpolation-filters="sRGB" fill-rule="evenodd" pointer-events="none" width="100%" height="100%" xmlns="http://www.w3.org/2000/svg" xmlns:xlink="http://www.w3.org/1999/xlink" style="-webkit-user-select: none;"><g transform="matrix(0.04886561954624782 0 0 0.04886561954624782 0.7460732984293159 0)"><g><rect x="-15.267857142857071" y="0" width="1698.5357142857144" height="573" fill="rgb(255,255,255)"></rect><g><g><g><g><path d="M 262 137 L 257 148 L 251 167 Q 235 215 236 227 L 269 166 Q 270 149 262 137 Z M 236 227 Q 236 227 236 227 L 236 227 Z M 395 210 L 328 248 L 328 248 L 373 240 Q 393 224 395 210 Z M 303 150 L 303 151 Q 300 183 270 254 L 269 259 L 270 259 Q 286 241 302 230 Q 327 158 303 150 Z M 991 258 L 990 270 L 1056 274 L 1066 276 Q 1041 264 1008 260 L 991 258 Z M 649 214 Q 671 232 708 254 L 655 274 L 714 284 L 756 268 Q 721 248 687 219 L 686 219 L 649 214 Z M 20 203 Q 33 250 59 288 L 76 290 L 55 266 Q 33 236 20 203 Z M 427 262 L 380 268 L 357 277 L 276 294 L 339 303 L 360 308 L 368 305 Q 417 287 427 262 Z M 738 294 L 760 324 L 785 306 Q 776 298 766 297 L 738 294 Z M 843 316 Q 838 316 829 322 L 834 326 Q 857 340 894 347 L 899 348 L 883 340 L 845 316 Q 844 316 843 316 Z M 285 309 L 263 310 Q 268 321 297 338 L 340 344 L 404 352 Q 382 338 350 332 L 287 323 L 332 316 L 328 315 L 287 309 Z M 32 319 L 28 320 Q -10 328 38 351 L 46 355 Q 70 343 91 343 Q 93 343 94 343 L 32 319 Z M 139 368 L 91 372 L 105 376 Q 104 376 103 376 Q 80 376 46 395 L 144 403 L 144 402 L 139 368 Z M 1516 408 L 1510 434 L 1520 409 L 1516 408 Z M 232 377 Q 253 386 271 414 L 315 427 Q 354 439 380 439 Q 384 439 387 439 Q 389 422 375 408 L 375 409 Q 372 409 368 409 Q 341 409 304 396 Q 251 378 232 377 Z M 1338 376 L 1354 409 Q 1373 447 1393 470 L 1389 455 L 1394 457 Q 1369 436 1343 385 L 1338 376 Z M 170 387 L 170 387 Q 171 400 156 429 L 156 435 Q 156 458 164 469 L 177 441 L 182 421 Q 188 452 228 477 Q 269 503 308 507 L 294 465 L 296 475 Q 257 471 216 444 Q 174 418 170 387 Z M 1400 484 Q 1407 518 1449 546 Q 1487 573 1525 573 Q 1528 573 1530 573 Q 1563 571 1613 550 L 1602 527 L 1595 529 Q 1550 547 1519 549 Q 1516 549 1514 549 Q 1477 549 1439 522 Q 1414 506 1400 484 Z" fill="rgb(43,46,16)" fill-opacity="1.000"></path><path d="M 384 183 L 384 183 Q 333 206 302 230 Q 286 241 270 259 L 293 254 L 294 254 L 297 252 L 305 244 L 302 248 Q 315 238 343 224 Q 383 202 384 183 Z M 416 235 L 373 240 L 328 248 L 293 259 L 287 265 L 341 264 L 292 277 Q 260 287 249 301 L 287 309 L 328 315 L 332 316 L 392 323 Q 378 313 360 308 L 339 303 L 276 294 L 357 277 L 380 268 Q 409 253 416 235 Z M 830 0 Q 832 48 824 141 Q 808 124 796 89 L 776 32 Q 766 58 770 89 L 783 146 Q 754 144 736 118 L 706 67 L 706 67 Q 725 109 752 206 Q 691 156 630 156 Q 627 156 623 156 L 685 218 L 686 219 L 687 219 Q 721 248 756 268 L 714 284 L 703 288 L 766 297 Q 776 298 785 306 Q 797 315 809 337 L 829 322 Q 838 316 843 316 Q 844 316 845 316 L 883 340 L 899 348 L 942 361 L 1003 360 Q 976 353 957 332 L 1009 328 Q 1070 317 1121 293 Q 1096 282 1066 276 L 1056 274 L 990 270 L 991 258 Q 997 242 1029 222 Q 1047 210 1092 185 Q 1086 174 1070 174 Q 1056 174 1034 182 L 967 208 Q 974 190 1016 154 Q 1051 123 1056 100 L 1056 100 L 983 122 Q 941 138 925 162 Q 958 132 989 124 L 989 124 L 959 153 Q 935 172 931 187 L 960 167 L 960 167 Q 950 186 950 197 L 983 181 L 941 217 Q 907 241 912 252 L 965 233 L 925 265 Q 932 284 980 287 L 1047 288 Q 1013 304 969 305 Q 963 305 958 305 Q 919 305 891 293 L 875 281 L 869 278 L 866 290 L 854 275 Q 843 273 841 263 L 840 261 Q 839 261 837 261 Q 828 261 819 266 Q 818 253 809 253 Q 806 253 803 255 L 799 239 Q 791 240 785 244 Q 786 232 772 227 L 748 219 L 768 218 L 790 222 L 778 188 L 806 199 L 803 184 L 798 169 L 828 181 L 828 150 L 853 187 Q 860 141 857 114 L 857 114 L 863 139 L 874 162 L 890 118 L 890 158 L 888 199 Q 908 177 923 165 Q 905 142 918 96 L 946 29 L 946 29 Q 924 37 901 68 Q 876 100 875 123 L 830 1 Z M 251 111 Q 204 194 196 243 L 195 250 L 184 211 Q 158 137 121 113 L 119 197 Q 122 230 134 249 L 138 256 L 91 209 Q 47 168 6 164 L 6 164 L 20 204 Q 33 237 55 267 L 76 291 L 59 289 L 16 288 L 16 288 Q -20 295 27 318 L 32 320 L 94 344 Q 92 344 91 344 Q 70 344 46 356 L 34 362 L 91 373 L 139 369 L 144 403 L 144 404 Q 146 428 152 437 L 156 430 Q 171 401 170 388 L 170 388 Q 174 419 216 445 Q 257 472 296 476 L 294 466 Q 286 440 274 420 L 271 415 Q 253 387 232 378 L 232 378 Q 251 379 304 397 Q 341 410 368 410 Q 372 410 375 410 L 375 409 Q 377 379 328 355 L 297 339 Q 268 322 263 311 L 285 310 L 257 308 Q 237 309 235 321 Q 234 334 265 353 Q 300 374 303 379 L 262 374 L 236 364 Q 221 356 211 354 L 211 354 Q 206 372 213 393 L 197 372 Q 189 361 186 347 L 163 357 L 169 341 L 169 341 Q 162 343 157 343 Q 138 343 138 324 L 148 321 L 130 308 L 110 303 L 89 296 L 106 295 L 121 291 L 104 271 L 93 248 L 93 248 Q 104 249 127 264 Q 147 278 159 278 L 159 257 L 154 235 L 147 180 L 165 221 L 177 242 Q 185 257 195 258 L 220 205 L 217 237 L 217 239 L 217 245 L 218 254 L 218 255 Q 220 262 226 262 Q 227 262 228 262 Q 243 261 262 224 L 280 181 L 280 181 Q 273 203 270 255 Q 300 184 303 152 L 303 151 Q 305 129 292 124 L 269 167 L 236 228 Q 235 216 251 168 L 257 149 Q 262 123 251 111 Z M 1341 348 L 1397 396 Q 1414 413 1422 413 Q 1423 413 1423 413 Q 1434 410 1430 385 L 1421 351 L 1445 367 L 1460 390 L 1475 409 Q 1477 409 1478 409 Q 1489 409 1496 391 L 1510 358 L 1500 409 Q 1497 441 1515 441 Q 1517 441 1519 441 L 1545 377 L 1558 429 Q 1564 462 1554 481 L 1573 466 L 1573 466 Q 1570 479 1549 489 L 1518 500 L 1532 486 L 1511 490 L 1490 495 L 1491 492 L 1474 485 L 1469 485 L 1465 479 L 1457 471 L 1454 467 L 1451 464 L 1449 461 L 1451 459 L 1451 456 L 1444 462 Q 1447 434 1435 429 L 1426 436 L 1417 437 L 1341 348 Z M 1515 286 L 1476 382 L 1442 344 Q 1421 318 1404 308 L 1404 308 Q 1400 325 1409 356 Q 1418 386 1416 400 L 1370 343 Q 1339 305 1313 303 L 1313 303 Q 1317 329 1336 370 L 1338 377 L 1343 386 Q 1369 437 1394 458 L 1389 456 L 1393 471 L 1400 485 Q 1414 507 1439 523 Q 1477 550 1514 550 Q 1517 550 1519 550 Q 1550 548 1595 530 L 1602 528 L 1668 498 L 1631 488 Q 1609 484 1599 472 L 1631 414 L 1631 414 Q 1602 432 1582 432 Q 1580 432 1578 432 Q 1573 418 1569 376 Q 1566 340 1554 320 L 1520 410 L 1510 435 L 1525 359 Q 1533 311 1515 286 Z" fill="rgb(135,177,244)" fill-opacity="1.000"></path><path d="M 857 113 L 857 113 Q 860 140 853 186 L 828 149 L 828 180 L 798 168 L 803 183 L 806 198 L 778 187 L 790 221 L 768 217 L 748 218 L 772 226 Q 786 231 785 243 Q 791 239 799 238 L 803 254 Q 807 253 809 253 Q 817 253 819 267 Q 828 262 837 262 Q 838 262 840 262 L 814 240 Q 808 232 809 215 L 834 212 Q 846 209 836 193 L 836 193 L 851 204 L 859 222 L 868 194 L 875 219 L 892 197 L 892 197 Q 895 204 886 216 L 880 227 L 881 227 L 893 232 L 920 215 L 904 231 L 899 239 L 903 249 L 905 248 L 903 250 L 904 255 L 903 263 L 901 263 L 896 284 L 923 295 Q 891 291 877 280 L 870 278 L 869 279 L 875 282 L 891 294 Q 919 306 958 306 Q 964 306 969 306 Q 1013 305 1047 289 L 980 288 Q 932 285 925 266 L 965 234 L 912 253 Q 907 242 941 218 L 983 182 L 950 198 Q 950 187 960 168 L 960 168 L 931 188 Q 935 173 959 154 L 989 125 L 989 125 Q 958 133 925 163 L 923 165 Q 908 177 888 199 L 890 158 L 890 118 L 874 162 L 863 139 L 857 114 Z M 147 180 L 154 235 L 159 257 L 159 278 Q 147 278 127 264 Q 104 249 93 248 L 93 248 L 104 271 L 121 291 L 106 295 L 89 296 L 110 303 L 130 308 L 148 321 L 138 324 Q 138 343 157 343 Q 162 343 169 341 L 169 341 L 163 357 L 186 347 Q 189 361 197 372 L 213 393 Q 206 372 211 354 L 211 354 Q 221 356 236 364 L 262 374 L 303 379 Q 300 374 265 353 Q 234 334 235 321 Q 237 309 257 308 L 285 310 L 287 310 L 249 302 Q 260 288 292 278 L 341 265 L 287 266 L 293 260 L 305 245 L 297 253 L 294 255 L 293 255 L 270 260 L 269 260 L 270 255 Q 273 203 280 181 L 280 181 L 262 224 Q 243 261 228 262 Q 227 262 226 262 Q 219 262 218 255 L 215 271 L 256 260 L 237 281 L 217 298 L 217 303 L 226 304 L 216 312 L 214 316 Q 227 330 228 342 L 211 336 L 194 330 L 186 338 L 178 333 L 152 326 L 162 319 Q 149 309 149 295 L 149 295 L 164 299 L 168 286 L 180 287 L 183 275 L 191 287 L 218 254 L 217 245 L 217 239 L 217 237 L 220 205 L 195 258 Q 185 257 177 242 L 165 221 L 147 180 Z M 1341 348 L 1417 437 L 1426 436 L 1435 429 Q 1447 434 1444 462 L 1451 456 L 1452 451 L 1448 428 Q 1449 428 1450 428 Q 1456 428 1461 434 L 1476 432 L 1477 429 L 1479 432 L 1498 436 Q 1522 445 1527 460 L 1539 458 L 1533 472 L 1527 477 L 1509 488 L 1501 490 L 1500 490 L 1491 492 L 1490 495 L 1511 490 L 1532 486 L 1518 500 L 1549 489 Q 1570 479 1573 466 L 1573 466 L 1554 481 Q 1564 462 1558 429 L 1545 377 L 1519 441 Q 1517 441 1515 441 Q 1497 441 1500 409 L 1510 358 L 1496 391 Q 1490 409 1478 409 Q 1476 409 1475 409 L 1460 390 L 1445 367 L 1421 351 L 1430 385 Q 1434 410 1423 413 Q 1422 413 1422 413 Q 1415 413 1397 396 L 1341 348 Z" fill="rgb(93,121,167)" fill-opacity="1.000"></path><path d="M 920 214 L 893 231 L 899 238 L 904 230 L 920 214 Z M 836 192 L 836 192 Q 846 208 834 211 L 809 214 Q 808 231 814 239 L 840 261 L 841 263 Q 843 273 854 275 L 866 290 L 869 278 L 870 277 L 865 276 Q 851 271 839 256 L 824 228 L 873 227 L 880 226 L 886 215 Q 895 203 892 196 L 892 196 L 875 218 L 868 193 L 859 221 L 851 203 L 836 192 Z M 877 279 Q 891 290 923 294 L 896 283 L 895 284 L 877 279 Z M 217 302 L 216 308 L 216 311 L 226 303 L 217 302 Z M 218 253 L 191 286 L 183 274 L 180 286 L 168 285 L 164 298 L 149 294 L 149 294 Q 149 308 162 318 L 152 325 L 178 332 L 186 337 L 194 329 L 211 335 L 228 341 Q 227 329 214 315 Q 209 327 188 329 Q 186 329 184 329 Q 166 329 165 320 L 164 319 L 165 318 L 165 316 L 168 303 Q 177 294 188 293 L 213 292 L 213 293 L 215 294 L 217 297 L 237 280 L 256 259 L 215 270 L 218 254 L 218 253 Z M 1450 427 Q 1449 427 1448 427 L 1452 450 L 1452 440 L 1461 433 Q 1456 427 1450 427 Z M 1539 457 L 1527 459 L 1528 469 L 1527 476 L 1533 471 L 1539 457 Z" fill="rgb(69,91,124)" fill-opacity="1.000"></path><path d="M 880 226 L 873 227 Q 861 229 843 237 Q 850 246 871 256 L 901 262 L 903 262 L 904 254 L 903 249 L 903 248 L 899 238 L 893 231 L 881 226 Z M 213 292 L 188 293 L 179 299 L 165 318 L 164 319 L 165 320 Q 168 321 171 321 Q 182 321 194 313 L 213 293 L 213 292 Z M 1457 438 L 1453 454 L 1456 468 L 1457 470 L 1465 478 L 1472 483 L 1474 484 L 1491 491 L 1500 489 L 1502 487 L 1505 477 L 1491 473 L 1475 466 Q 1458 458 1463 444 L 1457 438 Z" fill="rgb(205,186,102)" fill-opacity="1.000"></path><path d="M 873 227 L 824 228 L 839 256 Q 851 271 865 276 L 870 277 L 877 279 L 895 284 L 896 283 L 901 262 L 871 256 Q 850 246 843 237 Q 861 229 873 227 Z M 188 293 Q 177 294 168 303 L 165 316 L 165 318 L 179 299 L 188 293 Z M 213 293 L 194 313 Q 182 321 171 321 Q 168 321 165 320 L 165 320 Q 167 329 184 329 Q 186 329 188 329 Q 209 327 214 315 L 216 311 L 216 308 L 217 302 L 217 297 L 215 294 L 213 293 Z M 1476 431 L 1461 433 L 1452 440 L 1452 450 L 1451 455 L 1451 458 L 1451 463 L 1454 466 L 1456 468 L 1453 454 L 1457 438 L 1463 444 Q 1458 458 1475 466 L 1491 473 L 1505 477 L 1502 487 L 1509 487 L 1527 476 L 1528 469 L 1527 459 Q 1522 444 1498 435 L 1479 431 Z" fill="rgb(229,208,115)" fill-opacity="1.000"></path></g></g></g></g></g></g><defs><defs></defs></defs></svg>