<svg color-interpolation-filters="sRGB" fill-rule="evenodd" pointer-events="none" width="100%" height="100%" xmlns="http://www.w3.org/2000/svg" xmlns:xlink="http://www.w3.org/1999/xlink" style="-webkit-user-select: none;"><g transform="matrix(0.049558390578999016 0 0 0.049558390578999016 0 0.20829244357212673)"><g><rect x="0" y="-4.202970297029647" width="2038.0000000000002" height="1291.4059405940595" fill="rgb(255,255,255)"></rect><g><g><g><g><path d="M 1374 120 L 1370 121 L 1374 147 L 1374 120 Z M 1551 128 L 1548 131 Q 1512 176 1484 191 L 1489 191 L 1483 204 Q 1502 190 1533 152 L 1551 128 Z M 827 228 L 805 244 L 802 255 L 827 228 Z M 1471 220 Q 1457 234 1428 247 Q 1395 260 1366 260 Q 1355 260 1344 258 Q 1319 252 1273 225 L 1267 221 L 1251 241 Q 1300 273 1329 279 Q 1341 282 1353 282 Q 1381 282 1413 268 Q 1456 250 1471 220 Z M 910 201 L 891 206 L 884 212 Q 874 246 846 289 L 894 249 L 899 245 L 929 207 L 910 201 Z M 750 275 L 744 278 L 745 311 L 749 287 L 750 275 Z M 607 323 L 611 327 L 612 323 Z M 899 291 L 852 341 L 861 337 Q 899 322 914 298 L 899 291 Z M 1630 301 Q 1621 319 1633 349 L 1678 384 L 1674 375 Q 1664 349 1630 301 Z M 1829 286 Q 1813 293 1799 318 L 1785 402 Q 1795 391 1817 325 L 1827 301 L 1829 286 Z M 518 368 L 573 403 L 538 370 L 518 368 Z M 1774 278 Q 1750 278 1724 353 L 1718 373 L 1728 422 L 1733 415 Q 1754 316 1776 278 Q 1775 278 1774 278 Z M 1554 349 Q 1550 382 1590 427 L 1599 437 L 1624 440 L 1696 457 Q 1656 435 1622 400 L 1606 380 L 1554 349 Z M 1623 458 L 1664 484 L 1591 467 L 1518 465 L 1518 465 Q 1536 476 1594 485 Q 1622 488 1642 496 Q 1685 490 1698 480 Q 1690 472 1676 469 L 1673 468 L 1675 468 L 1626 458 Z M 1998 467 L 1920 517 L 1885 533 L 1902 538 L 1998 467 Z M 1512 540 Q 1487 550 1478 568 Q 1509 581 1564 582 L 1618 585 Q 1655 562 1681 562 L 1596 554 Q 1542 553 1512 540 Z M 1832 578 Q 1853 584 1865 605 L 1873 604 Q 1929 598 1905 579 L 1903 578 Z M 1775 587 Q 1766 593 1748 617 L 1747 618 Q 1774 636 1838 642 Q 1823 612 1799 606 L 1799 606 L 1815 607 Q 1787 598 1775 587 Z M 1736 594 L 1736 594 Q 1708 622 1652 634 Q 1623 641 1596 641 Q 1574 641 1553 636 L 1562 628 L 1562 628 Q 1539 642 1520 663 Q 1541 668 1563 668 Q 1590 668 1619 661 Q 1675 649 1702 621 L 1702 621 Q 1691 635 1685 673 L 1715 644 L 1718 640 Q 1724 608 1736 594 Z M 240 666 Q 227 680 224 715 L 251 815 Q 257 797 246 715 L 244 681 L 240 666 Z M 912 711 Q 900 729 900 764 L 933 859 Q 937 839 922 759 L 918 729 L 912 711 Z M 719 839 Q 719 862 747 887 L 813 899 L 805 893 Q 776 870 719 839 Z M 505 784 Q 482 832 449 874 L 419 909 L 438 906 Q 475 852 505 784 Z M 855 733 Q 827 744 843 841 L 848 867 L 886 912 L 886 904 L 861 794 Q 855 757 855 733 Z M 1186 809 L 1186 809 Q 1163 863 1134 905 L 1107 942 L 1126 938 Q 1162 881 1186 809 Z M 459 949 Q 426 968 385 984 Q 388 984 392 984 Q 412 984 433 998 L 442 992 Q 497 959 462 949 Z M 668 931 Q 683 970 748 994 L 762 999 L 789 988 L 873 966 L 873 966 Q 868 966 864 966 Q 818 966 766 948 L 738 935 L 668 931 Z M 178 941 Q 153 941 110 953 L 105 955 L 162 964 L 77 980 Q 30 993 0 1014 L 89 998 L 146 987 Q 188 959 197 943 Q 189 941 178 941 Z M 1150 979 L 1079 1019 Q 1084 1018 1090 1018 Q 1108 1018 1126 1029 L 1135 1023 Q 1188 987 1153 979 Z M 329 1021 L 315 1067 L 315 1069 Q 325 1071 336 1071 Q 371 1071 422 1051 Q 398 1029 372 1029 Q 368 1029 364 1030 L 380 1024 L 329 1021 Z M 876 989 Q 869 989 860 991 L 858 992 Q 835 995 802 1007 L 797 1009 L 855 1014 L 771 1036 Q 726 1051 696 1075 Q 698 1075 701 1075 Q 728 1075 784 1054 Q 817 1041 841 1038 Q 880 1008 888 991 Q 883 990 876 990 Z M 1076 1061 L 1025 1062 L 1014 1109 L 1014 1110 Q 1021 1111 1028 1111 Q 1066 1111 1120 1085 Q 1095 1067 1073 1067 Q 1067 1067 1061 1068 L 1076 1061 Z M 219 1042 Q 192 1045 126 1075 Q 66 1100 29 1102 L 29 1100 Q 9 1120 7 1147 Q 43 1147 104 1121 L 163 1098 Q 189 1058 219 1042 Z M 916 1088 Q 891 1094 825 1127 Q 768 1157 731 1160 L 731 1159 Q 713 1183 713 1207 Q 750 1204 807 1174 Q 846 1155 866 1147 Q 890 1103 916 1088 Z M 290 1052 L 290 1052 Q 275 1094 222 1135 Q 171 1174 120 1186 L 125 1171 L 125 1171 Q 110 1200 98 1231 Q 150 1219 201 1181 Q 254 1140 269 1098 L 269 1098 Q 266 1109 268 1127 L 276 1162 Q 288 1146 294 1115 L 296 1108 Q 287 1072 290 1052 Z M 989 1092 Q 979 1135 926 1180 Q 875 1224 827 1238 L 831 1224 L 809 1285 Q 857 1271 908 1227 Q 959 1182 971 1138 L 971 1138 Q 968 1163 982 1203 Q 993 1184 996 1156 L 997 1149 Q 985 1112 989 1092 Z" fill="rgb(43,46,16)" fill-opacity="1.000"></path><path d="M 1433 151 Q 1429 151 1424 156 L 1430 164 L 1429 175 L 1437 152 Q 1435 151 1433 151 Z M 1341 164 L 1345 179 L 1350 185 L 1350 178 Q 1350 171 1353 168 L 1341 164 Z M 663 384 L 674 389 L 674 387 L 663 384 Z M 768 368 L 761 376 L 759 389 L 738 395 Q 733 412 712 412 Q 706 412 700 411 L 698 411 L 669 434 L 700 427 L 744 404 L 744 403 L 789 381 L 786 382 L 775 383 L 762 379 L 768 368 Z M 1739 489 L 1744 500 L 1745 498 L 1749 492 L 1739 489 Z M 1742 428 Q 1739 437 1745 459 L 1753 486 L 1756 484 L 1758 484 L 1759 482 Q 1774 482 1781 492 Q 1794 499 1794 512 L 1787 528 L 1787 529 L 1786 529 L 1756 530 Q 1739 521 1742 506 L 1742 506 Q 1720 515 1710 527 L 1731 527 L 1752 528 Q 1749 539 1754 539 L 1764 537 L 1794 539 L 1789 529 Q 1808 524 1818 510 L 1801 508 L 1807 493 L 1796 489 L 1801 476 L 1785 485 Q 1789 464 1783 439 L 1773 458 L 1742 428 Z M 256 930 L 244 932 L 255 942 L 255 938 L 256 930 Z M 945 974 L 934 976 L 945 985 L 945 974 Z M 265 855 L 265 856 L 265 882 L 217 863 L 217 863 Q 220 880 257 923 L 259 918 L 262 916 L 262 914 L 290 915 Q 307 916 313 930 L 313 950 L 314 952 L 313 953 Q 310 968 288 968 Q 285 968 282 968 Q 259 967 256 948 L 232 987 L 254 978 Q 271 968 276 968 Q 278 980 282 980 Q 283 980 284 979 L 294 972 L 326 960 L 316 951 Q 332 938 337 916 L 337 916 L 319 922 L 317 903 L 304 905 L 303 888 L 290 905 Q 287 887 265 855 Z M 950 898 L 951 900 L 952 925 L 952 925 L 903 910 L 903 910 Q 906 921 924 941 L 947 965 L 948 962 L 951 960 L 951 957 L 979 956 Q 997 956 1003 970 L 1004 990 L 1005 992 L 1004 993 Q 1001 1009 975 1010 L 969 1010 Q 971 1022 975 1022 Q 976 1022 977 1021 L 986 1013 Q 1011 1004 1018 999 L 1007 991 Q 1023 976 1026 954 L 1026 954 L 1008 961 L 1006 942 L 992 945 L 990 928 L 978 946 Q 972 927 951 899 L 950 898 Z M 947 993 Q 931 1014 926 1032 L 948 1021 Q 963 1011 969 1010 Q 952 1009 947 993 Z" fill="rgb(84,42,38)" fill-opacity="1.000"></path><path d="M 1398 149 Q 1393 149 1388 151 Q 1362 154 1354 169 Q 1351 172 1351 179 L 1351 186 Q 1354 198 1370 201 L 1374 201 L 1375 203 L 1384 207 L 1401 204 L 1412 200 L 1423 192 L 1424 192 L 1428 188 L 1428 187 L 1429 184 L 1429 180 L 1430 176 L 1431 165 L 1425 157 L 1410 151 L 1408 151 Q 1404 150 1399 150 Z M 710 353 L 695 357 Q 681 363 676 380 L 676 389 L 676 391 Q 679 405 700 413 L 702 413 Q 709 414 714 414 Q 734 414 740 397 L 761 391 L 763 378 Q 761 356 727 353 Z M 1761 484 L 1760 486 L 1758 486 L 1755 488 L 1751 494 L 1747 500 L 1746 502 L 1744 508 Q 1741 523 1758 532 L 1788 531 L 1789 531 L 1789 530 L 1796 514 Q 1796 501 1783 494 Q 1776 484 1761 484 Z M 264 916 L 264 918 L 261 920 L 259 925 L 258 932 L 257 940 L 257 944 L 258 950 Q 261 969 284 970 Q 287 970 290 970 Q 313 970 315 955 L 316 954 L 315 952 L 315 932 Q 309 918 292 917 L 264 916 Z M 981 958 L 953 959 L 953 962 L 950 964 L 949 967 L 947 976 L 947 987 L 949 995 Q 954 1011 971 1012 L 977 1012 Q 1003 1011 1006 995 L 1007 994 L 1006 992 L 1005 972 Q 999 958 981 958 Z" fill="rgb(192,151,86)" fill-opacity="1.000"></path><path d="M 1390 71 L 1397 107 Q 1402 129 1414 129 L 1432 113 L 1451 93 L 1478 81 L 1463 113 Q 1454 136 1464 142 L 1479 139 L 1556 94 L 1465 167 Q 1463 169 1461 169 Q 1458 169 1457 164 L 1449 155 Q 1437 157 1434 186 L 1428 179 L 1428 183 L 1429 184 L 1427 186 L 1427 187 L 1423 191 L 1422 191 L 1411 199 L 1405 204 L 1400 203 L 1383 206 L 1383 210 L 1363 201 Q 1351 192 1343 192 L 1355 209 Q 1344 206 1326 193 Q 1309 179 1307 165 L 1307 165 L 1322 184 Q 1316 163 1328 132 L 1351 84 L 1364 151 Q 1368 152 1371 152 Q 1386 152 1389 123 L 1390 71 Z M 1398 0 Q 1377 22 1375 70 L 1374 120 L 1374 147 L 1370 121 L 1353 26 Q 1339 40 1328 77 L 1309 131 Q 1283 126 1260 103 L 1260 103 Q 1263 127 1280 167 L 1246 176 L 1207 179 L 1273 225 Q 1319 252 1344 258 Q 1355 260 1366 260 Q 1395 260 1428 247 Q 1457 234 1471 220 L 1483 204 L 1489 191 L 1484 191 Q 1512 176 1548 131 L 1551 128 L 1552 126 Q 1584 82 1593 55 Q 1590 54 1586 54 Q 1563 54 1530 83 L 1474 131 Q 1474 116 1489 89 Q 1504 60 1503 42 L 1503 42 Q 1485 47 1459 71 L 1418 101 L 1398 0 Z M 1663 274 Q 1651 298 1677 345 L 1703 393 L 1702 389 L 1702 389 Q 1712 419 1728 422 L 1718 373 L 1707 348 Q 1697 322 1663 274 Z M 830 272 Q 830 287 820 301 L 838 301 L 856 296 L 811 348 L 819 355 L 828 359 L 789 381 L 744 403 L 744 404 L 734 414 L 679 448 Q 657 461 640 461 Q 628 461 619 455 Q 630 445 640 441 L 598 409 L 666 412 Q 663 393 631 370 L 584 333 L 609 340 Q 624 343 633 349 Q 639 336 625 298 L 625 298 L 666 331 L 693 355 L 708 351 L 708 299 L 728 323 L 748 350 L 764 326 L 769 306 L 769 315 Q 769 326 774 331 L 803 303 L 830 272 Z M 1587 322 Q 1584 348 1606 380 L 1622 400 Q 1656 435 1696 457 L 1624 440 L 1599 437 L 1551 438 Q 1567 449 1623 458 L 1626 458 L 1675 468 L 1718 476 Q 1720 456 1692 432 L 1650 394 L 1650 394 Q 1676 400 1706 421 L 1705 410 L 1678 384 L 1633 349 L 1587 322 Z M 804 149 Q 800 149 796 150 Q 770 156 758 223 L 749 287 L 745 311 L 744 278 L 734 231 Q 719 177 698 162 Q 680 180 680 224 L 682 293 L 639 250 Q 615 222 593 214 L 593 214 L 604 240 L 599 241 Q 610 260 613 283 Q 616 306 612 323 L 611 327 L 607 323 L 558 281 Q 527 255 500 244 L 500 244 Q 500 271 530 313 L 576 378 Q 565 364 533 348 L 486 321 L 538 370 L 573 403 L 605 435 L 560 427 L 513 418 L 513 418 Q 621 491 686 491 Q 709 491 727 482 L 726 465 L 746 468 L 727 482 Q 732 515 758 530 Q 774 517 781 477 Q 790 432 802 420 Q 817 404 856 387 Q 894 372 909 348 Q 901 340 889 340 Q 885 340 881 341 L 849 344 L 907 282 Q 943 240 942 211 L 942 211 Q 927 218 899 245 L 894 249 L 846 289 Q 874 246 884 212 Q 893 182 880 166 L 827 228 L 802 255 L 805 244 L 818 189 Q 823 149 804 149 Z M 1807 251 Q 1792 251 1776 278 Q 1754 316 1733 415 Q 1770 353 1778 324 L 1778 324 L 1763 384 Q 1754 436 1767 443 L 1783 439 L 1797 421 L 1818 384 L 1802 453 Q 1804 454 1807 454 Q 1817 454 1831 444 L 1857 426 L 1905 390 L 1857 446 L 1837 467 L 1820 489 L 1860 487 L 1902 484 L 1902 484 Q 1894 488 1875 503 Q 1858 516 1846 517 L 1856 527 L 1871 533 L 1848 533 L 1826 530 L 1800 536 L 1807 543 Q 1798 557 1786 557 Q 1777 557 1767 549 L 1762 567 L 1747 548 L 1720 569 L 1690 584 Q 1714 560 1718 546 Q 1714 545 1706 545 Q 1698 545 1687 547 L 1655 548 L 1609 537 Q 1617 532 1667 525 Q 1711 518 1718 504 Q 1726 491 1705 481 Q 1695 473 1676 470 L 1676 470 Q 1690 473 1698 481 Q 1685 491 1642 497 L 1599 501 Q 1530 507 1512 541 Q 1542 554 1596 555 L 1681 563 Q 1655 563 1618 586 L 1611 590 Q 1581 610 1562 629 L 1553 637 Q 1574 642 1596 642 Q 1623 642 1652 635 Q 1708 623 1736 595 L 1736 595 Q 1724 609 1718 641 L 1717 647 L 1747 619 L 1748 618 Q 1766 594 1775 588 Q 1787 599 1815 608 L 1870 616 L 1865 606 Q 1853 585 1832 579 L 1903 579 L 1906 578 Q 1962 572 1937 553 Q 1929 545 1902 539 L 1885 534 L 1920 518 L 1998 468 L 2038 435 Q 2025 430 2008 430 Q 1977 430 1933 447 L 1858 477 L 1842 482 L 1866 470 L 1918 421 L 1981 330 L 1981 330 Q 1925 338 1838 417 L 1808 445 L 1812 439 Q 1832 403 1843 355 L 1862 259 L 1862 259 Q 1842 268 1827 302 L 1817 326 Q 1795 392 1785 403 L 1799 319 L 1810 252 Q 1809 252 1807 252 Z M 59 735 Q 58 767 108 806 L 159 847 L 156 842 L 156 842 Q 178 866 194 866 Q 197 866 200 865 L 166 819 L 141 795 Q 116 772 59 735 Z M 737 793 Q 737 825 790 860 L 843 896 L 841 892 L 856 906 Q 868 914 879 914 Q 882 914 886 913 L 848 868 L 823 847 L 737 793 Z M 872 990 Q 872 990 872 990 Q 866 990 860 991 L 872 990 L 872 990 Z M 686 885 Q 698 915 738 936 L 766 949 Q 818 967 864 967 Q 869 967 873 967 L 873 967 L 789 989 L 762 1000 L 714 1028 Q 716 1028 719 1028 Q 746 1028 797 1009 L 802 1007 Q 835 995 858 992 L 860 991 Q 881 982 905 976 Q 896 954 854 944 L 790 927 L 862 924 L 855 913 L 813 900 L 747 888 L 686 885 Z M 261 621 Q 244 640 244 682 L 246 716 Q 257 798 251 816 L 224 716 L 203 639 Q 184 645 181 684 L 181 685 L 183 746 L 201 857 Q 210 769 205 733 L 205 733 L 218 807 Q 233 867 251 868 Q 260 868 265 857 L 265 856 L 272 830 L 276 780 L 293 863 Q 307 860 319 839 L 371 743 L 371 743 Q 360 776 348 828 L 336 861 Q 329 881 329 893 L 370 872 Q 399 851 413 848 L 413 848 L 394 882 Q 383 904 370 911 L 386 917 L 404 917 L 355 936 L 331 955 L 342 959 Q 337 986 316 986 Q 310 986 303 984 L 303 984 L 305 1007 Q 291 994 281 993 L 263 1030 L 239 1060 Q 252 1027 249 1005 L 249 1005 Q 238 1007 217 1020 Q 195 1034 183 1037 L 130 1048 L 184 1007 Q 227 977 228 959 Q 229 943 204 940 L 164 942 L 215 929 Q 207 907 166 894 L 104 872 L 175 875 L 170 864 Q 151 854 127 848 L 64 832 L 2 824 L 2 824 Q 11 853 51 879 L 78 893 Q 133 916 183 919 L 99 935 L 21 969 L 105 956 L 110 954 Q 153 942 178 942 Q 189 942 197 944 Q 188 960 146 988 L 102 1014 Q 34 1053 29 1099 L 29 1101 Q 66 1099 126 1074 Q 192 1044 219 1041 L 219 1041 Q 189 1057 163 1097 L 158 1104 L 125 1170 L 120 1185 Q 171 1173 222 1134 Q 275 1093 290 1051 L 290 1051 Q 287 1071 296 1107 L 298 1115 Q 309 1102 315 1070 L 315 1068 L 329 1022 L 380 1025 L 444 1007 L 433 999 Q 412 985 392 985 Q 389 985 385 985 Q 426 969 459 950 L 463 947 Q 517 914 483 905 L 483 905 L 438 907 L 419 910 L 449 875 Q 482 833 505 785 L 531 727 L 531 727 Q 487 730 427 791 L 359 862 L 369 848 Q 387 817 399 770 L 421 639 L 421 639 Q 385 663 346 734 L 295 850 L 296 840 Q 299 762 261 621 Z M 930 665 Q 915 686 918 730 L 922 760 Q 937 840 933 860 L 900 765 L 873 687 Q 855 693 855 734 Q 855 758 861 795 L 886 905 Q 889 816 882 780 L 882 780 L 900 853 Q 918 912 937 912 Q 946 912 951 901 L 950 899 L 951 900 Q 960 880 955 822 L 955 822 L 978 904 Q 993 900 1002 878 L 1048 780 L 1048 780 Q 1039 812 1031 866 L 1021 899 L 1017 931 Q 1034 928 1056 908 Q 1083 884 1097 881 L 1097 881 L 1080 916 Q 1072 937 1058 947 L 1074 952 L 1093 951 L 1093 951 Q 1086 957 1069 963 L 1045 973 L 1023 993 L 1034 996 Q 1031 1026 1006 1026 Q 1002 1026 996 1025 L 996 1025 L 1001 1047 Q 986 1035 976 1035 L 960 1072 L 938 1105 Q 950 1070 944 1049 L 944 1049 Q 932 1052 913 1066 L 881 1086 L 829 1100 L 879 1055 Q 920 1022 920 1004 Q 922 987 895 987 L 872 990 L 872 990 Q 874 990 876 990 Q 883 990 888 992 Q 880 1009 841 1039 L 798 1069 Q 731 1113 731 1159 L 731 1160 Q 768 1157 825 1127 Q 891 1094 916 1088 L 916 1088 Q 890 1103 866 1147 L 860 1156 Q 845 1183 831 1224 L 827 1238 Q 875 1224 926 1180 Q 979 1135 989 1092 L 989 1092 Q 985 1112 997 1149 L 1000 1156 Q 1011 1137 1014 1110 L 1014 1109 L 1025 1062 L 1076 1061 Q 1099 1056 1138 1039 L 1126 1031 Q 1108 1020 1090 1020 Q 1085 1020 1079 1021 L 1150 981 L 1153 978 Q 1206 942 1171 934 L 1171 934 L 1126 940 L 1107 944 L 1134 907 Q 1163 865 1186 811 L 1207 753 L 1207 753 Q 1163 759 1107 825 L 1045 898 L 1053 884 Q 1069 853 1078 806 L 1091 674 L 1091 674 Q 1056 700 1023 773 L 997 840 L 980 892 L 980 882 Q 980 807 930 666 Z" fill="rgb(178,88,79)" fill-opacity="1.000"></path><path d="M 1390 71 L 1389 123 Q 1387 152 1371 152 Q 1368 152 1364 151 L 1351 84 L 1328 132 Q 1316 163 1322 184 L 1307 165 L 1307 165 Q 1309 179 1326 193 Q 1344 206 1355 209 L 1343 192 Q 1351 192 1363 201 L 1383 210 L 1383 206 L 1374 202 L 1373 202 L 1369 200 Q 1353 197 1350 185 L 1345 179 L 1341 164 L 1353 168 Q 1361 153 1387 150 Q 1393 149 1398 149 Q 1403 149 1408 151 L 1409 148 L 1410 151 L 1425 157 Q 1430 152 1434 152 Q 1436 152 1438 153 L 1430 176 L 1429 180 L 1435 187 Q 1438 158 1450 156 L 1458 165 Q 1460 170 1462 170 Q 1464 170 1466 168 L 1557 95 L 1480 140 L 1465 143 Q 1455 137 1464 114 L 1479 82 L 1452 94 L 1433 114 L 1415 130 Q 1403 130 1398 108 L 1391 72 Z M 831 273 L 804 304 L 775 332 Q 770 327 770 316 L 770 307 L 765 327 L 749 351 L 729 324 L 709 300 L 709 352 L 726 352 Q 760 355 762 377 L 769 369 L 763 380 L 776 384 L 787 383 L 790 382 L 829 360 L 820 356 L 812 349 L 857 297 L 839 302 L 821 302 Q 831 288 831 273 Z M 626 299 Q 640 337 634 350 Q 625 344 610 341 L 585 334 L 632 371 Q 664 394 667 413 L 599 410 L 641 442 Q 631 446 620 456 Q 630 462 641 462 Q 658 462 680 449 L 735 415 L 745 405 L 701 428 L 670 435 L 699 412 Q 678 404 675 390 L 664 385 L 675 388 L 675 379 Q 680 362 694 356 L 667 332 L 626 299 Z M 1779 325 L 1779 325 Q 1771 354 1734 416 L 1729 423 Q 1713 420 1703 390 L 1703 390 L 1704 394 L 1706 411 L 1707 422 Q 1677 401 1651 395 L 1651 395 L 1693 433 Q 1721 457 1719 477 L 1676 469 L 1674 469 L 1677 470 Q 1696 473 1706 481 Q 1727 491 1719 504 Q 1712 518 1668 525 Q 1618 532 1610 537 L 1656 548 L 1688 547 Q 1699 546 1707 546 Q 1715 546 1719 548 Q 1715 562 1691 586 L 1721 571 L 1748 550 L 1763 569 L 1768 551 Q 1778 559 1787 559 Q 1799 559 1808 545 L 1801 538 L 1827 532 L 1849 535 L 1872 535 L 1857 529 L 1847 519 Q 1859 518 1876 505 Q 1895 490 1903 486 L 1903 486 L 1861 489 L 1821 491 L 1838 469 L 1858 448 L 1906 392 L 1858 428 L 1832 446 Q 1818 456 1808 456 Q 1805 456 1803 455 L 1819 386 L 1798 423 L 1784 441 Q 1790 466 1786 487 L 1802 478 L 1797 491 L 1808 495 L 1802 510 L 1819 512 Q 1809 526 1790 531 L 1795 541 L 1765 539 L 1755 541 Q 1750 541 1753 530 L 1732 529 L 1711 529 Q 1721 517 1743 508 L 1745 502 L 1740 491 L 1750 494 L 1754 488 L 1746 461 Q 1740 439 1743 430 L 1743 430 L 1774 460 L 1784 441 L 1768 445 Q 1755 438 1764 386 L 1779 326 Z M 206 734 Q 211 770 202 858 L 201 866 Q 198 867 195 867 Q 179 867 157 843 L 157 843 L 171 865 L 176 876 L 105 873 L 167 895 Q 208 908 216 930 L 165 943 L 205 941 Q 230 944 229 960 Q 228 978 185 1008 L 131 1049 L 184 1038 Q 196 1035 218 1021 Q 239 1008 250 1006 L 250 1006 Q 253 1028 240 1061 L 264 1031 L 282 994 Q 292 995 306 1008 L 304 985 L 304 985 Q 311 987 317 987 Q 339 987 343 960 L 332 956 L 356 937 L 405 918 L 387 918 L 371 912 Q 384 905 395 883 L 414 849 L 414 849 Q 400 852 371 873 L 330 894 Q 330 882 337 862 L 349 829 Q 361 777 372 744 L 372 744 L 320 840 Q 308 861 294 864 L 277 781 L 273 831 L 266 857 Q 288 889 291 907 L 304 890 L 305 907 L 318 905 L 320 924 L 338 918 L 338 918 Q 333 940 317 953 L 327 962 L 295 974 L 285 981 Q 284 982 283 982 Q 279 982 277 970 Q 272 970 255 980 L 233 989 L 257 950 L 256 944 L 245 934 L 257 932 L 258 925 Q 221 882 218 865 L 218 865 L 266 884 L 266 858 Q 261 869 252 869 Q 234 868 219 808 L 206 734 Z M 1049 781 L 1003 879 Q 994 901 979 905 L 956 823 L 956 823 Q 961 881 952 901 Q 973 929 979 948 L 991 930 L 993 947 L 1007 944 L 1009 963 L 1027 956 L 1027 956 Q 1024 978 1008 993 L 1019 1001 Q 1012 1006 987 1015 L 978 1023 Q 977 1024 976 1024 Q 972 1024 970 1012 Q 964 1013 949 1023 L 927 1034 Q 932 1016 948 995 L 946 987 L 935 978 L 946 976 L 948 967 L 925 943 Q 907 923 904 912 L 904 912 L 953 927 L 953 927 L 952 902 Q 947 913 938 913 Q 919 913 901 854 L 883 781 L 883 781 Q 890 817 887 906 L 887 914 Q 884 915 880 915 Q 869 915 857 907 L 842 893 L 844 897 L 856 914 L 863 925 L 791 928 L 855 945 Q 897 955 906 977 Q 882 983 861 992 L 896 988 Q 923 988 921 1005 Q 921 1023 880 1056 L 830 1101 L 882 1087 L 914 1067 Q 933 1053 945 1050 L 945 1050 Q 951 1071 939 1106 L 961 1073 L 977 1036 Q 987 1036 1002 1048 L 997 1026 L 997 1026 Q 1002 1027 1007 1027 Q 1033 1027 1035 997 L 1024 994 L 1046 974 L 1070 964 Q 1087 958 1094 952 L 1094 952 L 1075 953 L 1059 948 Q 1073 938 1081 917 L 1098 882 L 1098 882 Q 1084 885 1057 909 Q 1035 929 1018 932 L 1022 900 L 1032 867 Q 1040 813 1049 781 Z" fill="rgb(138,68,61)" fill-opacity="1.000"></path></g></g></g></g></g></g><defs><defs></defs></defs></svg>