<svg color-interpolation-filters="sRGB" fill-rule="evenodd" pointer-events="none" width="100%" height="100%" xmlns="http://www.w3.org/2000/svg" xmlns:xlink="http://www.w3.org/1999/xlink" style="-webkit-user-select: none;"><g transform="matrix(0.04926108374384237 0 0 0.04926108374384237 0.3571428571428541 0)"><g><rect x="-7.249999999999938" y="0" width="1522.5" height="406" fill="rgb(255,255,255)"></rect><g><g><g><g><path d="M 105 0 Q 96 0 90 10 Q 82 22 102 58 L 117 83 L 127 68 L 137 43 L 145 31 L 142 27 Q 120 0 105 0 Z M 352 107 L 343 108 L 351 122 L 352 125 L 376 118 Q 390 114 400 114 Q 417 114 421 126 Q 392 135 372 143 L 351 153 L 348 174 L 348 177 L 398 168 L 432 160 Q 459 151 479 136 L 468 125 L 453 121 L 396 109 L 352 107 Z M 1436 146 Q 1420 147 1399 161 L 1396 164 Q 1403 177 1429 188 L 1440 194 Q 1448 160 1436 146 Z M 741 150 L 726 153 Q 707 160 684 175 L 729 179 L 741 178 L 741 178 Q 739 207 753 228 L 761 239 Q 751 218 752 189 Q 742 175 741 150 Z M 848 166 L 839 184 L 840 184 Q 849 189 845 201 L 823 207 L 811 205 L 789 207 Q 782 214 781 229 L 775 251 Q 787 260 805 266 L 804 238 Q 803 219 812 213 Q 814 212 817 212 Q 826 212 844 219 L 862 222 L 873 213 Q 879 200 861 179 L 848 166 Z M 326 252 L 309 264 L 325 292 L 317 298 L 278 271 Q 265 270 256 261 L 248 265 Q 257 279 276 293 L 283 298 Q 307 314 326 314 Q 335 314 343 310 L 328 259 L 326 252 Z M 1458 282 L 1454 294 Q 1463 298 1467 305 L 1452 307 L 1452 318 L 1458 319 L 1479 320 L 1508 319 Q 1505 303 1479 292 L 1473 289 L 1458 282 Z M 78 144 L 45 156 Q 2 173 0 190 Q 0 200 32 215 L 66 230 L 99 238 L 147 241 L 150 256 L 152 288 Q 157 317 171 330 L 196 303 L 218 272 L 190 269 Q 187 288 173 294 Q 162 286 162 262 L 162 254 L 139 227 Q 135 223 130 223 Q 120 223 104 238 L 94 223 L 73 218 Q 64 214 49 191 L 78 169 L 78 167 L 78 144 Z M 1252 299 Q 1232 337 1234 406 L 1270 370 L 1283 357 Q 1311 332 1338 321 L 1333 317 L 1317 306 L 1315 307 L 1280 332 L 1282 314 L 1286 305 L 1271 304 L 1252 299 Z" fill="rgb(58,77,13)" fill-opacity="1.000"></path><path d="M 307 66 L 316 75 L 343 108 L 352 107 L 396 109 Q 384 81 359 72 L 307 66 Z M 741 178 L 729 179 Q 724 202 726 228 L 744 227 L 753 228 Q 739 207 741 178 Z M 99 238 L 97 249 L 137 254 L 150 256 L 147 241 L 99 238 Z M 432 160 L 398 168 L 348 177 Q 342 228 335 240 L 326 252 L 328 259 L 370 246 Q 462 218 501 184 Q 466 183 432 160 Z M 817 212 Q 814 212 812 213 Q 803 219 804 238 L 805 266 Q 787 260 775 251 L 773 252 L 785 266 Q 800 275 824 275 Q 826 275 829 275 L 829 246 L 861 242 L 862 222 L 844 219 Q 826 212 817 212 Z M 1466 243 L 1463 261 L 1458 282 L 1473 289 L 1479 292 Q 1488 270 1466 243 Z M 248 265 L 218 272 L 196 303 L 200 315 Q 211 350 222 350 Q 230 350 238 333 Q 254 300 265 300 Q 269 300 273 305 L 283 298 L 276 293 Q 257 279 248 265 Z M 1452 318 L 1451 325 Q 1449 336 1435 342 Q 1428 346 1415 346 Q 1402 346 1384 342 L 1352 330 L 1338 321 Q 1311 332 1283 357 L 1270 370 L 1270 379 L 1308 370 L 1348 354 L 1384 355 L 1420 352 L 1456 359 Q 1445 335 1453 324 L 1458 319 L 1452 318 Z" fill="rgb(34,45,6)" fill-opacity="1.000"></path><path d="M 400 114 Q 390 114 376 118 L 352 125 L 351 153 L 372 143 Q 392 135 421 126 Q 417 114 400 114 Z M 839 184 L 834 194 Q 827 201 814 204 L 811 205 L 823 207 L 845 201 Q 849 189 840 184 Z M 78 169 L 49 191 Q 64 214 73 218 L 94 223 Q 80 198 78 169 Z M 752 189 Q 751 218 761 239 L 770 254 L 773 252 L 775 251 L 781 229 Q 782 214 789 207 Q 764 206 752 189 Z M 162 254 L 162 262 Q 162 286 173 294 Q 187 288 190 269 Q 176 265 165 257 L 162 254 Z M 309 264 L 299 268 L 278 271 L 317 298 L 325 292 L 309 264 Z M 1454 294 L 1452 302 L 1452 307 L 1467 305 Q 1463 298 1454 294 Z M 1295 303 L 1286 305 L 1282 314 L 1280 332 L 1315 307 L 1317 306 L 1316 305 L 1295 303 Z" fill="rgb(47,63,9)" fill-opacity="1.000"></path><path d="M 281 66 L 281 77 Q 297 91 283 106 Q 279 97 278 76 L 273 94 L 265 110 Q 257 100 263 86 Q 268 73 281 66 Z M 786 118 L 803 127 Q 809 142 806 159 Q 789 157 781 145 Q 772 130 786 118 Z M 802 64 Q 780 64 764 86 L 727 88 Q 712 94 710 121 Q 710 138 715 143 L 740 145 L 741 150 Q 742 175 752 189 Q 764 206 789 207 L 811 205 L 814 204 Q 827 201 834 194 L 839 184 L 848 166 L 862 137 Q 876 94 833 73 Q 816 64 802 64 Z M 1309 106 L 1318 118 Q 1324 110 1329 110 Q 1335 110 1339 120 Q 1347 140 1341 154 L 1330 140 Q 1321 149 1313 173 L 1304 209 L 1304 162 L 1286 191 Q 1279 172 1283 143 Q 1289 112 1309 106 Z M 181 30 L 191 46 Q 180 57 183 83 L 191 124 L 178 105 L 165 87 L 171 124 L 197 129 L 201 144 L 201 141 Q 200 138 202 136 L 208 142 L 189 90 L 201 105 Q 212 99 213 80 Q 222 87 225 112 Q 230 135 236 143 L 266 120 L 259 140 L 251 159 L 279 140 Q 295 127 306 124 L 306 124 L 300 138 L 292 153 Q 300 155 309 163 Q 281 172 270 181 L 287 215 L 271 214 L 286 232 Q 297 246 297 258 Q 284 258 268 239 L 248 213 L 247 213 Q 251 233 246 246 Q 236 237 229 212 L 228 211 Q 225 231 214 241 Q 206 230 201 207 Q 200 222 187 225 L 183 211 L 168 220 L 188 192 L 188 192 Q 177 194 168 194 Q 144 194 133 180 L 144 173 L 126 173 L 100 169 L 112 200 Q 91 180 80 120 L 80 120 L 106 121 L 120 119 L 149 169 L 147 171 L 170 167 L 145 144 L 172 148 Q 158 137 150 122 L 150 122 L 158 123 L 149 103 L 138 57 L 155 42 Q 170 31 181 30 Z M 195 2 Q 181 3 160 16 L 145 31 L 137 43 L 127 68 L 117 83 L 112 86 L 93 88 Q 82 90 79 99 L 78 89 L 78 144 L 78 167 L 78 169 Q 80 198 94 223 L 104 238 Q 120 223 130 223 Q 135 223 139 227 L 162 254 L 165 257 Q 176 265 190 269 L 218 272 L 248 265 L 256 261 Q 265 270 278 271 L 299 268 L 309 264 L 326 252 L 335 240 Q 342 228 348 177 L 348 174 L 351 153 L 352 125 L 351 122 L 343 108 L 316 75 L 307 66 Q 295 55 280 51 L 249 51 Q 235 46 224 23 Q 214 2 195 2 Z M 1356 168 L 1360 191 Q 1363 206 1359 213 L 1371 213 Q 1374 212 1378 212 Q 1382 212 1386 214 L 1388 225 L 1403 225 L 1387 252 L 1400 263 L 1409 277 Q 1393 277 1383 267 L 1383 267 L 1388 274 Q 1386 274 1383 274 Q 1369 274 1356 260 L 1356 260 L 1361 296 Q 1340 291 1323 261 L 1314 263 L 1314 252 Q 1305 257 1296 257 Q 1292 257 1288 256 Q 1292 244 1302 238 L 1294 237 L 1320 237 L 1325 207 L 1325 175 L 1342 210 Q 1342 180 1357 169 Z M 1336 96 Q 1305 96 1291 120 Q 1278 143 1278 205 L 1272 190 Q 1228 198 1229 249 Q 1230 287 1253 300 L 1272 305 L 1287 306 L 1296 304 L 1317 306 L 1318 307 L 1334 318 L 1339 322 L 1353 331 L 1385 343 Q 1403 347 1416 347 Q 1429 347 1436 343 Q 1450 337 1452 326 L 1453 319 L 1453 308 L 1453 303 L 1455 295 L 1459 283 L 1464 262 L 1467 244 L 1463 218 Q 1460 206 1441 195 L 1430 189 Q 1404 178 1397 165 L 1396 163 L 1394 125 Q 1394 107 1366 101 Q 1349 96 1336 96 Z" fill="rgb(203,130,74)" fill-opacity="1.000"></path><path d="M 786 118 Q 772 130 781 145 Q 789 157 806 159 Q 809 142 803 127 L 786 118 Z M 199 159 L 200 167 L 207 170 L 199 159 Z M 223 165 Q 217 172 211 172 L 207 170 L 214 181 Q 226 195 235 195 Q 226 206 228 211 L 229 212 L 237 214 L 247 213 L 248 213 L 259 200 Q 262 186 246 179 L 223 165 Z M 1339 217 Q 1320 230 1327 254 Q 1332 255 1337 255 Q 1351 255 1357 244 Q 1365 230 1348 230 Q 1346 230 1343 230 L 1339 217 Z" fill="rgb(227,192,46)" fill-opacity="1.000"></path><path d="M 281 66 Q 268 73 263 86 Q 257 100 265 110 L 273 94 L 278 76 Q 279 97 283 106 Q 297 91 281 77 L 281 66 Z M 181 30 Q 170 31 155 42 L 138 57 L 149 103 L 158 123 Q 166 139 176 145 L 171 124 L 165 87 L 178 105 L 191 124 L 183 83 Q 180 57 191 46 L 181 30 Z M 120 119 L 106 121 L 80 120 L 80 120 Q 91 180 112 200 L 100 169 L 126 173 L 144 173 L 147 171 L 149 169 L 120 119 Z M 1309 106 Q 1289 112 1283 143 Q 1279 172 1286 191 L 1304 162 L 1304 209 L 1313 173 Q 1321 149 1330 140 L 1341 154 Q 1347 140 1339 120 Q 1334 110 1329 110 Q 1324 110 1318 118 L 1309 106 Z" fill="rgb(223,158,106)" fill-opacity="1.000"></path><path d="M 229 212 Q 236 237 246 246 Q 251 233 247 213 L 247 213 L 237 214 L 229 212 Z M 1339 217 L 1343 230 Q 1346 230 1348 230 Q 1365 230 1357 244 Q 1350 255 1337 255 Q 1333 255 1327 254 Q 1320 230 1339 217 Z M 213 80 Q 212 99 201 105 L 189 90 L 208 142 L 202 136 Q 200 138 201 141 L 201 144 L 197 129 L 171 124 L 176 145 Q 166 139 158 123 L 150 122 L 150 122 Q 158 137 172 148 L 145 144 L 170 167 L 147 171 L 144 173 L 133 180 Q 144 194 168 194 Q 177 194 188 192 L 188 192 L 168 220 L 183 211 L 187 225 Q 200 222 201 207 Q 206 230 214 241 Q 225 231 228 211 Q 226 206 235 195 Q 226 195 214 181 L 207 170 L 200 167 L 199 159 L 207 170 L 211 172 Q 217 172 223 165 L 246 179 Q 262 186 259 200 L 248 213 L 268 239 Q 284 258 297 258 Q 297 246 286 232 L 271 214 L 287 215 L 270 181 Q 281 172 309 163 Q 300 155 292 153 L 300 138 L 306 124 L 306 124 Q 295 127 279 140 L 251 159 L 259 140 L 266 120 L 236 143 Q 230 135 225 112 Q 222 87 213 80 Z M 1356 168 Q 1341 179 1341 209 L 1324 174 L 1324 206 L 1319 236 L 1293 236 L 1301 237 Q 1291 243 1287 255 Q 1291 256 1295 256 Q 1303 256 1313 251 L 1313 262 L 1322 260 Q 1339 290 1360 295 L 1355 259 L 1355 259 Q 1369 273 1382 273 Q 1384 273 1387 273 L 1382 266 L 1382 266 Q 1392 276 1408 276 L 1399 262 L 1386 251 L 1402 224 L 1387 224 L 1385 213 Q 1381 212 1378 212 Q 1375 212 1372 214 L 1360 214 Q 1364 207 1361 192 L 1357 169 Z" fill="rgb(150,96,55)" fill-opacity="1.000"></path></g></g></g></g></g></g><defs><defs></defs></defs></svg>