<svg color-interpolation-filters="sRGB" fill-rule="evenodd" pointer-events="none" width="100%" height="100%" xmlns="http://www.w3.org/2000/svg" xmlns:xlink="http://www.w3.org/1999/xlink" style="-webkit-user-select: none;"><g transform="matrix(0.049586776859504134 0 0 0.049586776859504134 0 0.1900826446280952)"><g><rect x="0" y="-3.8333333333332535" width="2056.9999999999995" height="1290.6666666666665" fill="rgb(255,255,255)"></rect><g><g><g><g><path d="M 1393 120 L 1388 121 L 1393 147 L 1393 120 Z M 1570 128 L 1567 131 Q 1531 176 1503 191 L 1508 191 L 1502 204 Q 1525 186 1552 152 L 1570 128 Z M 846 228 L 843 230 L 824 244 L 821 255 L 846 228 Z M 1490 220 Q 1474 236 1447 247 Q 1415 260 1386 260 Q 1374 260 1363 258 Q 1336 252 1292 225 L 1286 221 L 1270 241 Q 1317 273 1348 279 Q 1360 282 1372 282 Q 1400 282 1432 268 Q 1475 250 1490 220 Z M 929 201 L 910 206 L 903 212 Q 894 243 865 289 L 913 249 L 918 245 L 948 207 L 929 201 Z M 769 275 L 763 278 L 764 311 L 769 275 Z M 626 323 L 630 327 L 631 323 Z M 918 291 L 871 341 L 880 337 Q 917 322 933 298 Q 927 293 918 291 Z M 1649 301 Q 1639 319 1652 349 L 1697 384 L 1693 375 L 1649 301 Z M 1848 286 Q 1831 294 1818 318 L 1804 402 Q 1815 389 1836 325 L 1846 301 L 1848 286 Z M 537 368 L 592 403 L 565 378 L 557 370 L 537 368 Z M 1794 278 Q 1769 278 1743 353 L 1737 373 L 1747 422 L 1752 415 Q 1772 317 1795 278 Q 1794 278 1794 278 Z M 1857 416 L 1831 438 L 1827 444 L 1857 416 Z M 1573 349 Q 1568 383 1609 427 L 1618 437 L 1643 440 L 1715 457 Q 1675 437 1641 400 L 1625 380 L 1573 349 Z M 1885 469 Q 1873 476 1861 481 L 1861 481 L 1877 476 L 1885 469 Z M 1861 481 L 1861 481 L 1849 484 Q 1855 483 1861 481 Q 1861 481 1861 481 Z M 1642 458 Q 1661 473 1683 484 L 1610 467 L 1537 465 L 1537 465 Q 1556 477 1613 485 L 1661 496 Q 1704 490 1717 480 Q 1709 473 1695 469 L 1692 468 L 1694 468 L 1645 458 Z M 2017 467 Q 1978 497 1939 517 Q 1921 527 1904 533 L 1921 538 Q 1969 510 2017 467 Z M 1531 540 Q 1506 550 1497 568 Q 1526 581 1583 582 L 1637 585 Q 1673 563 1700 562 L 1615 554 Q 1559 553 1531 540 Z M 1851 578 Q 1872 585 1884 605 L 1892 604 Q 1946 598 1924 579 L 1922 578 Z M 1794 587 L 1767 617 L 1766 618 Q 1792 637 1857 642 Q 1842 613 1818 606 L 1818 606 L 1834 607 Q 1807 599 1794 587 Z M 1755 594 Q 1728 622 1671 634 Q 1640 641 1614 641 Q 1592 641 1572 636 L 1581 628 L 1581 628 Q 1557 644 1539 663 Q 1559 668 1581 668 Q 1608 668 1638 661 Q 1695 649 1721 621 L 1721 621 Q 1710 635 1704 673 L 1734 644 L 1737 640 Q 1743 608 1755 594 Z M 259 666 Q 245 682 243 715 L 270 815 Q 275 796 265 715 L 263 681 L 259 666 Z M 57 780 Q 56 804 83 831 L 146 847 L 139 840 L 57 780 Z M 341 782 L 315 839 L 314 849 L 341 782 Z M 931 711 Q 918 729 919 764 L 952 859 Q 956 839 941 759 L 937 729 L 931 711 Z M 388 847 L 378 861 L 385 854 L 388 847 Z M 200 683 Q 171 693 181 791 L 185 818 L 219 864 L 220 856 Q 206 783 202 745 Q 198 708 200 684 L 200 683 Z M 1016 838 L 999 880 L 999 890 L 1016 838 Z M 1072 882 L 1064 896 L 1070 889 L 1072 882 Z M 738 839 Q 737 862 766 887 L 832 899 L 824 893 Q 793 869 738 839 Z M 524 784 Q 499 834 468 874 L 438 909 L 457 906 Q 494 853 524 784 Z M 874 733 Q 845 744 862 841 L 867 867 L 905 912 L 905 911 L 905 904 Q 888 843 880 794 Q 874 757 874 733 Z M 1205 809 L 1205 809 Q 1182 862 1153 905 L 1126 942 L 1145 938 Q 1180 881 1205 809 Z M 0 869 Q 11 909 76 938 L 89 943 L 118 934 L 202 918 Q 151 915 97 892 L 70 878 L 0 869 Z M 478 949 Q 442 970 404 984 Q 407 984 409 984 Q 430 984 452 998 L 461 992 Q 514 959 481 949 Z M 687 931 Q 701 970 767 994 L 781 999 L 808 988 L 892 966 L 892 966 Q 887 966 883 966 Q 836 966 785 948 L 757 935 L 687 931 Z M 196 941 Q 170 941 129 953 L 124 955 L 181 964 L 96 980 Q 50 992 19 1014 Q 22 1014 27 1014 Q 53 1014 108 998 L 165 987 Q 207 959 216 943 Q 207 941 196 941 Z M 1169 979 L 1098 1019 Q 1103 1018 1108 1018 Q 1126 1018 1145 1029 L 1154 1023 Q 1206 987 1172 979 Z M 348 1021 L 334 1067 L 334 1069 Q 344 1072 357 1072 Q 391 1072 441 1051 Q 416 1029 391 1029 Q 387 1029 383 1030 L 399 1024 L 348 1021 Z M 895 989 Q 888 989 880 991 L 878 992 L 822 1007 L 817 1009 L 875 1014 L 791 1036 Q 745 1051 716 1075 Q 718 1075 720 1075 Q 747 1075 804 1054 L 861 1038 Q 900 1008 908 991 Q 903 990 896 990 Z M 1097 1061 L 1046 1062 Q 1040 1075 1035 1109 L 1035 1110 Q 1042 1111 1050 1111 Q 1086 1111 1141 1085 Q 1116 1067 1092 1067 Q 1087 1067 1082 1068 L 1097 1061 Z M 240 1042 Q 213 1046 147 1075 Q 86 1101 50 1102 L 50 1100 Q 29 1122 28 1147 Q 65 1147 125 1121 Q 160 1106 184 1098 Q 211 1057 240 1042 Z M 937 1088 L 937 1088 Q 911 1094 846 1127 Q 788 1157 752 1160 L 752 1159 Q 733 1183 734 1207 Q 770 1204 828 1174 Q 863 1156 887 1147 Q 911 1104 937 1088 Z M 311 1052 Q 296 1094 243 1135 Q 191 1175 141 1186 L 146 1171 L 146 1171 Q 130 1200 119 1231 Q 169 1220 222 1181 Q 275 1140 290 1098 L 290 1098 Q 287 1111 289 1127 L 297 1162 Q 308 1146 315 1115 L 317 1108 Q 307 1072 311 1052 Z M 1010 1093 Q 999 1135 947 1180 Q 897 1223 848 1238 L 852 1224 L 852 1224 Q 838 1254 830 1285 Q 879 1270 929 1227 Q 980 1182 992 1138 L 992 1138 Q 988 1161 1003 1203 L 1017 1156 L 1018 1149 Q 1005 1113 1010 1093 Z" fill="rgb(41,47,15)" fill-opacity="1.000"></path><path d="M 1427 147 L 1426 150 L 1428 150 L 1427 147 Z M 1453 152 Q 1448 152 1443 157 L 1449 165 L 1448 176 L 1456 153 Q 1454 153 1453 153 Z M 1360 166 L 1364 181 L 1369 187 L 1369 180 Q 1369 174 1372 170 L 1360 166 Z M 1447 185 L 1446 188 L 1448 186 L 1447 185 Z M 1388 202 L 1392 204 L 1393 204 L 1392 202 Z M 682 386 L 693 391 L 693 389 L 682 386 Z M 787 370 L 780 378 L 778 391 L 757 397 Q 751 415 732 415 Q 726 415 719 413 L 717 413 L 688 436 L 719 429 L 734 421 L 763 406 L 763 405 L 808 383 L 805 384 L 794 385 L 781 381 L 787 370 Z M 1758 491 L 1763 502 L 1764 500 L 1768 494 L 1758 491 Z M 1761 430 Q 1758 440 1764 461 L 1772 488 L 1775 486 L 1777 486 L 1778 484 Q 1793 485 1800 494 Q 1813 502 1813 514 L 1807 528 L 1806 530 L 1806 531 L 1805 531 L 1775 532 Q 1757 523 1761 508 L 1761 508 Q 1739 518 1729 529 L 1750 529 L 1771 530 Q 1767 541 1773 541 L 1783 539 L 1813 541 L 1808 531 Q 1826 527 1837 512 L 1820 510 L 1826 495 L 1815 491 L 1820 478 L 1804 487 Q 1807 469 1802 441 L 1792 460 L 1761 430 Z M 275 932 L 263 934 L 274 944 L 274 940 L 275 932 Z M 964 976 L 953 978 L 964 987 L 964 984 L 964 976 Z M 284 857 L 284 858 L 284 884 L 236 865 L 236 865 Q 239 884 276 925 L 278 920 L 281 918 L 281 916 L 309 917 Q 326 919 332 932 L 332 952 L 333 954 L 332 955 Q 328 970 306 970 Q 303 970 301 970 Q 278 969 275 950 Q 256 973 251 989 L 273 980 Q 287 971 295 970 Q 297 982 301 982 Q 302 982 303 981 L 313 974 L 345 962 L 335 953 Q 351 940 356 918 L 356 918 L 338 924 L 336 905 L 323 907 L 322 890 L 309 907 Q 305 887 284 857 Z M 969 900 L 970 902 L 971 927 L 971 927 L 922 912 L 922 912 Q 924 924 943 943 L 966 967 L 967 964 L 970 962 L 970 959 L 998 958 Q 1016 959 1022 972 L 1023 990 L 1023 992 L 1024 994 L 1023 995 Q 1019 1011 994 1012 L 988 1012 Q 990 1024 994 1024 Q 995 1024 996 1023 L 1005 1015 L 1037 1001 L 1026 993 Q 1042 979 1045 956 L 1045 956 L 1027 963 L 1025 944 L 1011 947 L 1009 930 L 997 948 Q 991 928 970 901 L 969 900 Z M 966 995 Q 949 1016 945 1034 Q 954 1033 967 1023 Q 980 1014 988 1012 Q 970 1011 966 995 Z" fill="rgb(187,181,160)" fill-opacity="1.000"></path><path d="M 1445 161 L 1438 166 Q 1439 180 1421 185 L 1390 190 L 1392 200 L 1393 202 L 1402 206 L 1419 203 L 1422 202 L 1430 199 L 1441 191 Q 1451 179 1445 161 Z M 772 373 Q 719 381 703 391 Q 714 400 745 404 L 760 392 Q 772 383 772 373 Z M 1778 482 L 1777 484 Q 1772 494 1782 511 Q 1792 528 1805 529 L 1806 529 L 1806 528 L 1805 504 L 1800 492 Q 1793 483 1778 482 Z M 281 914 L 281 916 Q 281 932 298 945 Q 311 954 323 954 Q 328 954 332 953 L 333 952 L 332 950 L 320 925 L 309 915 L 281 914 Z M 998 956 L 970 957 L 970 960 Q 971 975 989 987 Q 1002 995 1013 995 Q 1018 995 1023 993 L 1024 992 L 1023 990 L 1010 965 L 998 956 Z" fill="rgb(198,169,64)" fill-opacity="1.000"></path><path d="M 1406 150 Q 1379 154 1372 168 Q 1369 172 1369 178 L 1369 185 Q 1371 197 1388 200 L 1392 200 L 1390 190 L 1421 185 Q 1439 180 1438 166 L 1445 161 L 1445 161 Q 1451 179 1441 191 L 1446 187 L 1446 186 L 1447 183 L 1447 179 L 1448 175 L 1449 164 L 1443 156 L 1428 150 Z M 772 373 Q 772 383 760 392 L 745 404 Q 714 400 703 391 Q 719 381 772 373 Z M 727 351 L 712 355 Q 697 362 693 378 L 693 387 L 693 389 Q 695 404 717 411 L 719 411 Q 726 413 732 413 Q 751 413 757 395 L 778 389 L 780 376 Q 778 355 744 351 Z M 1800 492 L 1805 504 L 1806 528 L 1807 526 L 1813 512 Q 1813 500 1800 492 Z M 1775 484 L 1772 486 L 1768 492 L 1764 498 L 1763 500 L 1761 506 Q 1757 521 1775 530 L 1805 529 Q 1792 528 1782 511 Q 1772 494 1777 484 Z M 309 915 L 320 925 L 332 950 L 332 930 Q 326 917 309 915 Z M 281 916 L 278 918 L 276 923 L 275 930 L 274 938 L 274 942 L 275 948 Q 278 967 301 968 Q 304 968 306 968 Q 328 968 332 953 L 332 953 Q 328 954 323 954 Q 311 954 298 945 Q 281 932 281 916 Z M 998 956 L 1010 965 L 1023 990 L 1023 988 L 1022 970 Q 1016 957 998 956 Z M 970 960 L 967 962 L 966 965 L 964 974 L 964 982 L 964 985 L 966 993 Q 970 1009 988 1010 L 994 1010 Q 1019 1009 1023 993 L 1023 993 Q 1018 995 1013 995 Q 1002 995 989 987 Q 971 975 970 960 Z" fill="rgb(166,142,54)" fill-opacity="1.000"></path><path d="M 1409 71 L 1416 107 Q 1420 129 1433 129 L 1451 113 L 1470 93 L 1497 81 L 1482 113 Q 1472 137 1483 142 L 1498 139 L 1512 130 L 1575 94 L 1484 167 Q 1482 169 1480 169 Q 1477 169 1476 164 L 1468 155 Q 1456 157 1453 186 L 1447 179 L 1447 183 L 1448 184 L 1446 186 L 1446 187 L 1441 191 L 1430 199 L 1424 204 L 1419 203 L 1402 206 L 1402 210 Q 1395 210 1382 201 Q 1370 193 1362 192 L 1362 192 L 1374 209 Q 1362 207 1345 193 Q 1327 178 1326 165 L 1326 165 L 1341 184 Q 1335 164 1347 132 L 1370 84 L 1383 151 Q 1387 152 1390 152 Q 1405 152 1408 123 L 1409 71 Z M 1417 0 Q 1395 22 1394 70 L 1393 120 L 1393 147 L 1388 121 L 1372 26 Q 1357 42 1347 77 L 1328 131 Q 1303 127 1279 103 L 1279 103 Q 1282 128 1299 167 Q 1288 175 1265 176 L 1226 179 L 1286 221 L 1292 225 Q 1336 252 1363 258 Q 1374 260 1386 260 Q 1414 260 1447 247 Q 1474 236 1490 220 L 1502 204 L 1508 191 L 1503 191 Q 1531 176 1567 131 L 1570 128 L 1571 126 L 1612 55 Q 1609 55 1606 55 Q 1582 55 1549 83 L 1493 131 Q 1493 117 1508 89 Q 1523 61 1522 42 L 1522 42 Q 1503 47 1478 71 Q 1450 96 1437 101 L 1417 0 Z M 1682 274 Q 1669 298 1696 345 L 1722 393 L 1721 389 L 1721 389 Q 1731 420 1747 422 L 1737 373 L 1726 348 L 1682 274 Z M 849 272 Q 849 286 839 301 L 857 301 L 875 296 L 830 348 L 838 355 L 847 359 L 808 381 L 763 403 L 763 404 L 753 414 L 698 448 Q 676 461 659 461 Q 648 461 638 455 L 659 441 L 617 409 L 685 412 Q 682 395 650 370 L 603 333 L 628 340 L 652 349 Q 657 336 644 298 L 644 298 Q 661 307 685 331 L 712 355 L 727 351 L 726 333 L 727 299 L 747 323 L 767 350 Q 777 343 783 326 L 787 297 L 788 315 Q 787 326 793 331 L 822 303 L 849 272 Z M 1606 322 Q 1602 348 1625 380 L 1641 400 Q 1675 437 1715 457 L 1643 440 L 1618 437 L 1570 438 Q 1588 450 1642 458 L 1645 458 L 1694 468 L 1737 476 Q 1738 457 1711 432 L 1669 394 L 1669 394 Q 1694 400 1725 421 L 1724 410 L 1697 384 L 1652 349 L 1606 322 Z M 1861 481 Q 1861 481 1861 481 Q 1855 483 1849 484 L 1861 481 L 1861 481 Z M 823 149 Q 820 149 816 150 Q 790 157 778 223 L 770 275 L 765 311 L 764 278 L 754 231 Q 739 177 718 162 Q 699 180 700 224 L 702 293 L 659 250 Q 634 222 613 214 L 613 214 L 624 240 L 619 241 L 633 283 Q 636 305 632 323 L 631 327 L 627 323 L 578 281 Q 546 255 520 244 L 520 244 Q 519 272 550 313 L 596 378 L 553 348 L 506 321 L 558 370 L 566 378 L 593 403 L 625 435 L 580 427 L 533 418 L 533 418 Q 640 492 705 492 Q 729 492 747 482 L 746 465 L 766 468 L 747 482 Q 751 515 778 530 Q 793 519 801 477 Q 810 433 822 420 Q 836 404 876 387 Q 913 372 929 348 Q 921 341 907 341 Q 904 341 901 341 L 869 344 L 872 341 L 919 291 L 927 282 Q 963 241 962 211 L 962 211 L 919 245 L 914 249 L 866 289 Q 895 243 904 212 Q 912 182 900 166 L 861 211 L 847 228 L 822 255 L 825 244 L 838 189 Q 843 149 823 149 Z M 1827 251 Q 1811 251 1795 278 Q 1772 317 1752 415 L 1797 324 L 1782 384 Q 1772 436 1786 443 Q 1788 444 1790 444 Q 1795 444 1802 439 L 1816 421 L 1837 384 L 1821 453 Q 1823 454 1826 454 Q 1836 454 1850 444 L 1876 426 L 1924 390 L 1876 446 L 1856 467 L 1839 489 L 1879 487 L 1921 484 L 1921 484 Q 1914 487 1894 503 Q 1877 516 1865 517 L 1875 527 L 1890 533 L 1867 533 L 1845 530 L 1819 536 L 1826 543 Q 1816 557 1805 557 Q 1796 557 1786 549 L 1781 567 L 1766 548 L 1739 569 L 1709 584 Q 1732 561 1737 546 Q 1732 545 1724 545 Q 1716 545 1706 547 L 1674 548 L 1628 537 L 1686 525 Q 1729 518 1737 504 Q 1744 492 1724 481 Q 1711 473 1695 470 L 1695 470 Q 1709 474 1717 481 Q 1704 491 1661 497 L 1618 501 Q 1549 507 1531 541 Q 1559 554 1615 555 L 1700 563 Q 1673 564 1637 586 L 1630 590 Q 1602 608 1581 629 L 1572 637 Q 1592 642 1614 642 Q 1641 642 1671 635 Q 1728 623 1755 595 L 1755 595 Q 1743 609 1737 641 L 1736 647 Q 1751 639 1766 619 L 1767 618 L 1794 588 Q 1807 600 1834 608 L 1889 616 L 1884 606 Q 1872 586 1851 579 L 1922 579 L 1925 578 Q 1979 572 1956 553 Q 1948 546 1921 539 L 1904 534 Q 1921 528 1939 518 Q 1978 498 2017 468 L 2057 435 Q 2044 430 2027 430 Q 1996 430 1952 447 L 1877 477 L 1861 482 L 1861 482 Q 1873 478 1885 470 Q 1911 453 1937 421 L 2000 330 L 2000 330 Q 1944 338 1857 417 L 1827 445 L 1831 439 Q 1849 406 1862 355 L 1881 259 L 1881 259 Q 1861 268 1846 302 L 1836 326 Q 1815 390 1804 403 L 1818 319 L 1829 252 Q 1828 252 1827 252 Z M 78 735 Q 76 768 127 806 L 178 847 L 178 847 L 175 842 L 175 842 Q 197 866 213 866 Q 216 866 219 865 L 185 819 L 160 795 Q 132 770 78 735 Z M 756 793 Q 755 825 809 860 L 863 896 L 860 892 L 868 900 L 875 906 Q 887 914 897 914 Q 901 914 905 913 L 867 868 L 842 847 Q 811 823 756 793 Z M 892 990 L 892 990 Q 892 990 892 990 Q 886 990 879 991 L 892 990 L 892 990 Z M 705 885 Q 716 915 757 936 L 785 949 Q 836 967 883 967 Q 888 967 892 967 L 892 967 L 808 989 L 781 1000 Q 753 1012 733 1028 Q 735 1028 738 1028 Q 763 1028 816 1009 L 821 1007 L 877 992 L 879 991 Q 899 982 924 976 Q 914 955 873 944 L 809 927 L 881 924 L 874 913 L 832 900 L 766 888 L 705 885 Z M 280 621 Q 263 640 263 682 L 265 716 Q 275 797 270 816 L 243 716 L 222 639 Q 203 645 200 684 L 200 685 Q 198 709 202 746 Q 206 784 220 857 Q 228 767 224 733 L 224 733 L 237 807 Q 251 867 270 868 Q 271 868 271 868 Q 278 868 284 857 L 284 856 L 291 830 L 295 780 L 312 863 Q 326 860 338 839 Q 354 809 357 806 L 390 743 L 390 743 Q 380 770 367 828 L 355 861 Q 347 882 348 893 Q 363 892 389 872 Q 417 851 432 848 L 432 848 L 413 882 Q 402 904 389 911 Q 394 916 405 917 L 423 917 L 399 927 L 374 936 L 350 955 L 361 959 Q 356 986 335 986 Q 329 986 322 984 L 322 984 L 324 1007 Q 310 995 300 993 L 282 1030 L 258 1060 Q 271 1026 268 1005 L 268 1005 Q 257 1007 236 1020 L 202 1037 L 149 1048 Q 154 1041 203 1007 Q 245 978 247 959 Q 248 943 223 940 L 183 942 Q 217 932 234 929 Q 226 908 185 894 L 123 872 L 194 875 L 189 864 L 146 848 L 83 832 L 21 824 L 21 824 Q 30 854 70 879 L 97 893 Q 151 916 202 919 L 118 935 L 89 944 L 40 969 L 124 956 L 129 954 Q 170 942 196 942 Q 208 942 216 944 Q 207 960 165 988 L 121 1014 Q 52 1053 48 1099 L 48 1101 Q 84 1100 145 1074 Q 211 1045 238 1041 L 238 1041 Q 209 1056 182 1097 L 177 1104 Q 157 1137 144 1170 L 139 1185 Q 189 1174 241 1134 Q 294 1093 309 1051 L 309 1051 Q 305 1071 315 1107 L 317 1115 Q 328 1100 334 1070 L 334 1068 L 348 1022 L 399 1025 L 463 1007 L 452 999 Q 430 985 409 985 Q 406 985 404 985 Q 442 971 478 950 L 482 947 Q 535 915 502 905 L 502 905 L 457 907 L 438 910 L 468 875 Q 499 835 524 785 L 550 727 L 550 727 Q 505 730 446 791 L 385 855 L 378 862 L 388 848 Q 406 817 418 770 L 440 639 L 440 639 Q 403 664 365 734 L 341 783 L 314 850 L 315 840 Q 318 765 280 621 Z M 949 665 Q 934 686 937 730 L 941 760 Q 956 840 952 860 L 919 765 L 892 687 Q 874 694 874 734 Q 874 758 880 795 Q 888 844 905 905 Q 907 812 901 780 L 901 780 L 919 853 Q 937 912 955 912 Q 955 912 956 912 Q 965 912 970 901 L 969 899 L 970 900 Q 978 879 974 822 L 974 822 L 997 904 Q 1011 900 1021 878 L 1038 845 L 1067 780 L 1067 780 Q 1059 807 1050 866 L 1040 899 Q 1035 920 1036 931 Q 1051 929 1075 908 Q 1102 885 1116 881 L 1116 881 L 1099 916 Q 1089 939 1077 947 Q 1082 952 1093 952 L 1112 951 L 1088 963 L 1064 973 L 1042 993 L 1053 996 Q 1050 1026 1026 1026 Q 1021 1026 1015 1025 L 1015 1025 L 1020 1047 L 995 1035 L 979 1072 L 957 1105 Q 968 1071 963 1049 L 963 1049 L 932 1066 Q 911 1082 900 1086 L 848 1100 L 898 1055 Q 938 1023 939 1004 Q 940 988 914 987 L 892 990 L 892 990 Q 893 990 895 990 Q 902 990 908 992 Q 900 1009 861 1039 L 818 1069 Q 751 1113 751 1159 L 751 1160 Q 787 1157 845 1127 Q 910 1094 936 1088 L 936 1088 Q 910 1104 886 1147 L 880 1156 Q 862 1190 851 1224 L 847 1238 Q 896 1223 946 1180 Q 998 1135 1009 1093 L 1009 1093 Q 1004 1113 1017 1149 L 1020 1156 Q 1030 1139 1034 1110 L 1034 1109 Q 1039 1075 1045 1062 L 1096 1061 L 1158 1039 L 1146 1031 Q 1127 1020 1109 1020 Q 1104 1020 1099 1021 L 1170 981 L 1173 978 Q 1225 942 1191 934 L 1191 934 L 1146 940 L 1127 944 L 1154 907 Q 1183 864 1206 811 L 1227 753 L 1227 753 Q 1182 760 1127 825 L 1071 891 L 1065 898 L 1073 884 Q 1089 852 1098 806 L 1111 674 L 1111 674 Q 1076 700 1043 773 L 1017 840 L 1000 892 L 1000 882 Q 999 806 950 666 Z" fill="rgb(240,235,214)" fill-opacity="1.000"></path><path d="M 1430 199 L 1422 202 L 1419 203 L 1424 204 L 1430 199 Z M 1409 71 L 1408 123 Q 1405 152 1390 152 Q 1387 152 1383 151 L 1370 84 L 1347 132 Q 1335 164 1341 184 L 1326 165 L 1326 165 Q 1327 178 1345 193 Q 1362 207 1374 209 L 1362 192 L 1362 192 Q 1370 193 1382 201 Q 1395 210 1402 210 L 1402 206 L 1393 202 L 1392 202 L 1388 200 Q 1371 197 1369 185 L 1364 179 L 1360 164 L 1372 168 Q 1379 154 1406 150 L 1426 150 L 1427 147 L 1428 150 L 1443 156 Q 1448 152 1453 152 Q 1455 152 1456 153 L 1448 176 L 1447 180 L 1453 187 Q 1456 158 1468 156 L 1476 165 Q 1478 170 1480 170 Q 1482 170 1484 168 L 1575 95 L 1512 131 L 1498 140 L 1483 143 Q 1472 138 1482 114 L 1497 82 L 1470 94 L 1451 114 L 1433 130 Q 1420 130 1416 108 L 1409 72 Z M 849 273 L 822 304 L 793 332 Q 787 327 788 316 L 787 298 L 783 327 Q 777 344 767 351 L 747 324 L 727 300 L 726 334 L 727 352 L 744 352 Q 778 356 780 377 L 787 369 L 781 380 L 794 384 L 805 383 L 808 382 L 847 360 L 838 356 L 830 349 L 875 297 L 857 302 L 839 302 Q 849 287 849 273 Z M 644 299 Q 657 337 652 350 L 628 341 L 603 334 L 650 371 Q 682 396 685 413 L 617 410 L 659 442 L 638 456 Q 647 462 659 462 Q 676 462 698 449 L 753 415 L 763 405 L 734 420 L 719 428 L 688 435 L 717 412 Q 695 405 693 390 L 682 385 L 693 388 L 693 379 Q 697 363 712 356 L 685 332 Q 661 308 644 299 Z M 1797 325 L 1752 416 L 1747 423 Q 1731 421 1721 390 L 1721 390 L 1722 394 L 1724 411 L 1725 422 Q 1694 401 1669 395 L 1669 395 L 1711 433 Q 1738 458 1737 477 L 1694 469 L 1692 469 L 1695 470 Q 1711 473 1724 481 Q 1744 492 1737 504 Q 1729 518 1686 525 L 1628 537 L 1674 548 L 1706 547 Q 1717 546 1724 546 Q 1732 546 1737 548 Q 1732 563 1709 586 L 1739 571 L 1766 550 L 1781 569 L 1786 551 Q 1796 559 1805 559 Q 1817 559 1826 545 L 1819 538 L 1845 532 L 1867 535 L 1890 535 L 1875 529 L 1865 519 Q 1877 518 1894 505 Q 1914 489 1921 486 L 1921 486 L 1879 489 L 1839 491 L 1856 469 L 1876 448 L 1924 392 L 1876 428 L 1850 446 Q 1836 456 1826 456 Q 1823 456 1821 455 L 1837 386 L 1816 423 L 1802 441 Q 1807 469 1804 487 L 1820 478 L 1815 491 L 1826 495 L 1820 510 L 1837 512 Q 1826 527 1808 531 L 1813 541 L 1783 539 L 1773 541 Q 1767 541 1771 530 L 1750 529 L 1729 529 Q 1739 518 1761 508 L 1763 502 L 1758 491 L 1768 494 L 1772 488 L 1764 461 Q 1758 440 1761 430 L 1761 430 L 1792 460 L 1802 441 L 1802 441 Q 1796 446 1790 446 Q 1788 446 1786 445 Q 1772 438 1782 386 L 1797 326 Z M 224 734 L 224 734 Q 228 768 220 858 L 219 866 Q 216 867 213 867 Q 197 867 175 843 L 175 843 L 178 848 L 189 865 L 194 876 L 123 873 L 185 895 Q 226 909 234 930 Q 217 933 183 943 L 223 941 Q 248 944 247 960 Q 245 979 203 1008 Q 154 1042 149 1049 L 202 1038 L 236 1021 Q 257 1008 268 1006 L 268 1006 Q 271 1027 258 1061 L 282 1031 L 300 994 Q 310 996 324 1008 L 322 985 L 322 985 Q 329 987 335 987 Q 356 987 361 960 L 350 956 L 374 937 L 399 928 L 423 918 L 405 918 Q 394 917 389 912 Q 402 905 413 883 L 432 849 L 432 849 Q 417 852 389 873 Q 363 893 348 894 Q 347 883 355 862 L 367 829 Q 380 771 390 744 L 390 744 L 357 807 Q 354 810 338 840 Q 326 861 312 864 L 295 781 L 291 831 L 284 857 Q 305 887 309 907 L 322 890 L 323 907 L 336 905 L 338 924 L 356 918 L 356 918 Q 351 940 335 953 L 345 962 L 313 974 L 303 981 Q 302 982 301 982 Q 297 982 295 970 Q 287 971 273 980 L 251 989 Q 256 973 275 950 L 274 944 L 263 934 L 275 932 L 276 925 Q 239 884 236 865 L 236 865 L 284 884 L 284 858 Q 278 869 271 869 Q 270 869 270 869 Q 251 868 237 808 L 224 734 Z M 1067 781 L 1038 846 L 1021 879 Q 1011 901 997 905 L 974 823 L 974 823 Q 978 880 970 901 Q 991 928 997 948 L 1009 930 L 1011 947 L 1025 944 L 1027 963 L 1045 956 L 1045 956 Q 1042 979 1026 993 L 1037 1001 L 1005 1015 L 996 1023 Q 995 1024 994 1024 Q 990 1024 988 1012 Q 980 1014 967 1023 Q 954 1033 945 1034 Q 949 1016 966 995 L 964 987 L 953 978 L 964 976 L 966 967 L 943 943 Q 924 924 922 912 L 922 912 L 971 927 L 971 927 L 970 902 Q 965 913 956 913 Q 956 913 955 913 Q 936 913 919 854 L 901 781 L 901 781 Q 907 813 905 906 L 905 913 L 905 914 Q 901 915 897 915 Q 886 915 875 907 L 868 901 L 860 893 L 863 897 L 874 914 L 881 925 L 809 928 L 873 945 Q 914 956 924 977 Q 899 983 879 992 L 914 988 Q 940 989 939 1005 Q 938 1024 898 1056 L 848 1101 L 900 1087 Q 911 1083 932 1067 L 963 1050 L 963 1050 Q 968 1072 957 1106 L 979 1073 L 995 1036 L 1020 1048 L 1015 1026 L 1015 1026 Q 1021 1027 1026 1027 Q 1051 1027 1053 997 L 1042 994 L 1064 974 L 1088 964 L 1112 952 L 1093 953 Q 1082 953 1077 948 Q 1089 940 1099 917 L 1116 882 L 1116 882 Q 1102 886 1075 909 Q 1051 930 1036 932 Q 1035 921 1040 900 L 1050 867 Q 1059 808 1067 781 Z" fill="rgb(220,214,192)" fill-opacity="1.000"></path></g></g></g></g></g></g><defs><defs></defs></defs></svg>