<svg color-interpolation-filters="sRGB" fill-rule="evenodd" pointer-events="none" width="100%" height="100%" xmlns="http://www.w3.org/2000/svg" xmlns:xlink="http://www.w3.org/1999/xlink" style="-webkit-user-select: none;"><g transform="matrix(0.04987531172069826 0 0 0.04987531172069826 0 0.1483790523690658)"><g><rect x="0" y="-2.9749999999997687" width="1202.9999999999998" height="4390.95" fill="rgb(255,255,255)"></rect><g><g><g><g><path d="M 639 4019 Q 406 4019 241 4071 Q 76 4124 76 4198 Q 76 4272 241 4325 Q 406 4377 639 4377 Q 873 4377 1038 4325 Q 1203 4272 1203 4198 Q 1203 4124 1038 4071 Q 873 4019 639 4019 Z" fill="url(#:0)"></path><path d="M 552 1219 L 551 1235 L 552 1235 L 552 1219 Z M 550 1235 L 550 1259 L 551 1235 Z M 552 1235 L 548 1959 L 546 2071 Q 544 2165 547 2219 Q 536 2344 536 2424 L 529 2744 Q 526 2949 515 3064 Q 510 3118 512 3203 L 515 3344 L 515 3388 Q 515 3527 530 3861 Q 532 3914 522 4026 Q 513 4134 516 4193 Q 538 4197 567 4228 Q 595 4256 625 4259 Q 632 4260 639 4260 Q 672 4260 690 4244 L 734 4193 Q 744 4014 719 3768 L 717 3751 L 718 3701 L 717 3650 Q 710 3558 710 3513 L 710 3073 Q 723 2951 723 2781 L 721 2489 L 731 1881 Q 735 1516 710 1275 L 710 1235 Z" fill="rgb(198,170,99)" fill-opacity="1.000"></path><path d="M 587 1378 L 586 1383 L 589 1381 L 587 1378 Z M 586 1383 Q 579 1392 583 1426 L 589 1472 L 589 1574 L 587 1672 Q 587 1731 600 1768 Q 608 1729 606 1666 L 603 1562 L 603 1455 L 595 1419 Q 586 1395 586 1383 Z M 610 1794 L 610 1822 L 606 1882 Q 602 1921 604 1944 Q 620 1927 622 1865 Q 625 1804 610 1794 Z M 595 1824 L 592 1847 Q 592 1903 578 2012 Q 575 2062 575 2162 Q 575 2187 581 2229 L 589 2295 Q 590 2307 598 2325 L 608 2354 Q 614 2322 608 2265 L 600 2175 L 600 2065 L 596 1945 L 595 1824 Z M 564 1235 Q 570 1265 588 1309 L 615 1381 Q 627 1420 627 1495 L 622 1642 Q 618 1733 623 1789 L 630 1720 L 634 2329 L 633 2372 L 634 2503 L 640 2514 Q 640 2514 641 2514 Q 669 2514 672 2424 L 668 2310 Q 668 2240 681 2130 L 683 2098 Q 679 2058 681 2037 L 669 1942 Q 663 1887 665 1848 L 665 1848 Q 665 1870 673 1898 L 690 1948 L 686 1765 Q 683 1657 672 1581 L 669 1617 L 662 1652 Q 658 1605 659 1534 L 661 1416 L 663 1369 L 661 1321 Q 658 1301 641 1274 L 616 1235 Z M 578 2644 Q 572 2680 579 2722 L 596 2796 L 598 2833 Q 599 2859 606 2864 Q 613 2806 612 2767 L 613 2708 Q 612 2668 600 2653 L 578 2644 Z M 550 2848 Q 534 2890 527 2939 Q 519 2992 526 3032 Q 531 3056 554 3105 L 567 3155 Q 576 3183 592 3199 Q 594 3138 586 3101 Q 571 3024 569 2983 L 559 2917 Q 550 2874 550 2851 L 550 2848 Z M 586 2395 L 580 2503 Q 579 2596 596 2604 Q 599 2606 602 2606 Q 612 2606 622 2587 L 639 2551 L 639 2551 Q 634 2599 637 2653 Q 640 2720 655 2771 L 656 2872 L 632 2849 L 631 2900 L 618 2893 L 606 2888 Q 594 2930 599 2999 L 609 3112 L 611 3174 L 602 3221 L 587 3264 Q 579 3296 582 3318 L 600 3294 L 612 3265 Q 634 3204 646 3147 L 646 3147 L 640 3158 Q 636 3129 639 3079 L 644 2998 L 636 3020 Q 630 3029 619 3030 Q 613 3006 615 2933 L 615 2933 Q 625 2942 634 2942 Q 640 2942 646 2937 Q 657 2925 653 2904 Q 675 2904 687 2878 L 690 2798 L 680 2675 L 677 2688 Q 677 2636 680 2612 Q 684 2575 698 2541 Q 664 2540 633 2527 Q 591 2509 599 2481 Q 602 2466 609 2466 Q 610 2466 612 2467 L 586 2395 Z M 550 3241 L 547 3249 L 543 3305 Q 542 3344 553 3358 L 551 3299 L 550 3241 Z M 630 3300 Q 617 3316 611 3338 L 601 3375 Q 592 3404 590 3443 L 588 3511 Q 601 3484 619 3399 Q 630 3347 630 3308 L 630 3300 Z M 574 3594 L 581 3634 Q 571 3651 573 3687 Q 574 3719 582 3740 L 586 3740 L 587 3686 L 586 3627 L 574 3594 Z M 560 3565 Q 554 3573 553 3584 L 552 3606 L 551 3745 L 553 3858 Q 551 3884 554 3897 Q 559 3915 576 3926 Q 570 3857 570 3717 L 568 3621 L 560 3565 Z M 562 3947 Q 560 3952 564 3955 L 573 3989 Q 568 3999 569 4011 Q 570 4024 578 4030 L 579 3984 Q 577 3952 562 3947 Z M 668 3078 L 655 3126 L 655 3261 L 648 3396 Q 646 3418 616 3509 Q 593 3576 607 3628 L 630 3599 L 638 3705 Q 641 3769 654 3811 L 681 3883 Q 696 3927 698 3958 L 697 4000 L 666 3951 L 637 3908 Q 613 3859 615 3741 L 615 3741 Q 576 3916 619 4008 Q 631 4035 636 4064 L 640 4124 Q 630 4077 600 4065 Q 594 4063 589 4063 Q 569 4063 565 4098 L 556 4078 Q 541 4088 535 4125 L 531 4195 L 539 4181 L 548 4136 Q 552 4109 572 4097 Q 582 4111 582 4142 L 586 4125 Q 637 4159 645 4193 Q 657 4152 652 4083 L 648 3971 L 648 3971 Q 660 3975 678 3989 L 707 4008 L 713 3983 L 717 3922 Q 717 3862 702 3794 L 678 3727 Q 662 3686 660 3660 L 664 3592 Q 667 3548 657 3529 L 636 3564 Q 635 3550 648 3529 L 665 3494 L 673 3444 Q 684 3367 673 3302 Q 666 3262 674 3168 L 669 3083 L 668 3078 Z" fill="rgb(171,146,86)" fill-opacity="1.000"></path><path d="M 616 1235 L 641 1274 Q 658 1301 661 1321 L 663 1369 L 661 1416 L 659 1534 Q 658 1605 662 1652 L 669 1617 L 672 1581 Q 683 1657 686 1765 L 690 1948 L 673 1898 Q 665 1870 665 1848 L 665 1848 Q 663 1887 669 1942 L 681 2037 L 684 2019 L 696 1996 L 708 1972 Q 718 1943 716 1887 L 711 1801 L 710 1725 Q 706 1686 693 1653 Q 677 1614 683 1566 L 694 1478 L 696 1425 L 694 1373 L 679 1303 L 668 1235 Z M 657 3072 L 646 3147 L 655 3126 L 657 3072 Z M 674 3168 Q 666 3262 673 3302 Q 684 3367 673 3444 L 665 3494 L 648 3529 Q 635 3550 636 3564 L 657 3529 Q 667 3548 664 3592 L 660 3660 Q 662 3686 678 3727 L 698 3778 Q 684 3735 680 3685 Q 676 3645 677 3576 Q 677 3555 687 3518 L 694 3465 Q 698 3433 710 3412 L 710 3411 Q 679 3347 679 3280 L 674 3168 Z M 700 3785 L 702 3794 Q 717 3862 717 3922 L 729 3876 L 725 3835 Q 712 3817 702 3792 L 700 3785 Z" fill="rgb(140,119,63)" fill-opacity="1.000"></path><path d="M 673 3014 L 668 3078 L 669 3083 L 674 3167 L 676 3091 L 673 3014 Z M 729 3876 L 717 3922 L 713 3983 L 715 4053 Q 710 4055 709 4082 L 703 4121 Q 685 4113 679 4075 L 679 4075 L 683 4147 Q 683 4188 670 4208 L 661 4218 L 652 4225 L 631 4250 L 606 4249 Q 593 4243 586 4243 Q 585 4243 584 4243 Q 604 4258 625 4259 Q 632 4260 639 4260 Q 672 4260 690 4244 L 734 4193 Q 742 4049 729 3876 Z" fill="rgb(117,98,53)" fill-opacity="1.000"></path><path d="M 683 2098 L 681 2130 Q 669 2248 669 2310 L 672 2424 Q 670 2514 641 2514 Q 641 2514 640 2514 L 635 2503 L 612 2467 L 612 2467 Q 612 2467 612 2467 Q 610 2466 609 2466 Q 602 2466 599 2481 Q 591 2509 633 2527 Q 664 2540 698 2541 Q 693 2525 682 2519 Q 700 2477 704 2379 L 689 2372 Q 677 2362 680 2298 L 686 2217 L 686 2126 L 683 2098 Z M 698 2542 Q 684 2575 680 2612 Q 677 2636 677 2688 L 680 2675 L 690 2798 L 687 2878 Q 675 2904 653 2904 Q 657 2925 646 2937 Q 640 2942 634 2942 Q 625 2942 615 2933 L 615 2933 Q 613 3006 619 3030 Q 630 3029 636 3020 L 644 2998 L 639 3079 Q 636 3129 640 3158 L 646 3147 L 657 3072 L 655 3126 L 668 3078 L 660 3023 L 653 2967 L 664 2966 L 664 2939 L 668 2913 Q 672 2905 682 2899 L 698 2889 Q 696 2857 697 2808 L 698 2729 L 702 2587 L 698 2542 Z M 648 3971 L 652 4083 Q 657 4152 645 4193 Q 637 4159 586 4125 L 582 4142 Q 582 4111 572 4097 Q 552 4109 547 4136 L 538 4181 L 530 4195 L 530 4198 L 548 4210 Q 552 4173 568 4134 L 568 4134 Q 566 4195 572 4232 L 584 4243 Q 585 4243 586 4243 Q 593 4243 606 4249 L 631 4250 L 652 4225 L 661 4218 L 670 4208 Q 683 4188 683 4147 L 679 4075 L 679 4075 Q 685 4113 703 4121 L 709 4082 Q 710 4055 715 4053 L 713 3983 L 707 4008 L 678 3989 Q 660 3975 648 3971 Z" fill="rgb(140,119,63)" fill-opacity="1.000"></path><path d="M 710 3412 Q 698 3433 694 3465 L 687 3518 Q 677 3555 677 3576 Q 676 3645 680 3685 Q 685 3744 702 3792 Q 712 3817 725 3835 L 717 3751 L 718 3701 L 717 3650 Q 710 3558 710 3513 L 710 3412 Z" fill="rgb(117,98,53)" fill-opacity="1.000"></path><path d="M 668 1235 L 679 1303 L 694 1373 L 696 1425 L 694 1478 L 683 1566 Q 677 1614 693 1653 Q 706 1686 710 1725 L 711 1801 L 716 1887 Q 718 1943 708 1972 L 696 1996 L 684 2019 L 681 2037 L 683 2098 L 686 2126 L 686 2217 L 680 2298 Q 677 2362 689 2372 L 704 2379 Q 700 2477 682 2519 Q 704 2532 702 2587 L 698 2729 L 697 2808 Q 696 2857 698 2889 L 682 2899 Q 672 2905 668 2913 L 664 2939 L 664 2966 L 653 2967 L 660 3023 L 668 3078 L 673 3014 L 676 3091 L 674 3167 L 674 3168 L 679 3280 Q 679 3347 710 3411 L 710 3073 Q 723 2951 723 2781 L 721 2489 L 731 1881 Q 735 1516 710 1275 L 710 1235 Z M 569 4134 Q 553 4173 549 4210 L 572 4232 Q 567 4200 569 4134 Z" fill="rgb(117,98,53)" fill-opacity="1.000"></path><path d="M 623 4128 L 624 4214 L 622 4300 Q 621 4300 619 4300 Q 570 4300 558 4189 L 529 4275 Q 513 4259 512 4220 L 514 4157 L 514 4157 Q 499 4178 489 4221 Q 478 4264 479 4301 Q 458 4261 427 4257 L 427 4257 Q 438 4332 422 4359 L 439 4385 L 748 4376 Q 852 4369 837 4320 Q 796 4246 797 4194 L 797 4194 Q 785 4232 756 4250 Q 748 4231 747 4203 L 749 4152 L 749 4152 Q 714 4181 714 4218 Q 710 4203 698 4191 L 657 4168 L 657 4168 Q 660 4185 648 4227 Q 627 4195 623 4128 Z" fill="rgb(86,120,31)" fill-opacity="1.000"></path><path d="M 763 1349 L 591 1353 L 300 1400 L 196 1407 Q 183 1425 161 1429 L 88 1436 L 90 1505 L 92 1565 Q 97 1593 118 1608 Q 137 1622 169 1633 L 222 1651 L 294 1662 L 366 1666 L 424 1678 L 483 1686 L 574 1691 L 715 1702 L 797 1702 L 879 1689 L 915 1675 L 950 1664 L 976 1660 Q 992 1658 1000 1652 L 1035 1623 Q 1045 1618 1061 1616 L 1087 1611 Q 1113 1600 1120 1566 L 1123 1499 L 1123 1479 L 1102 1456 L 1098 1447 L 1041 1442 Q 970 1405 916 1354 L 763 1349 Z" fill="rgb(97,67,27)" fill-opacity="1.000"></path><path d="M 287 1545 Q 284 1563 293 1563 L 288 1548 L 287 1548 L 287 1545 Z M 170 1476 L 170 1483 L 165 1526 Q 162 1557 166 1566 Q 169 1574 173 1574 Q 177 1574 183 1564 Q 192 1547 189 1520 Q 185 1491 170 1476 Z M 312 1535 Q 313 1547 306 1556 Q 301 1563 295 1563 Q 294 1563 293 1563 L 293 1563 L 295 1567 L 297 1599 L 317 1603 Q 319 1552 312 1535 Z M 147 1515 L 148 1549 Q 147 1570 140 1578 L 140 1574 L 139 1589 Q 135 1590 132 1590 Q 124 1590 118 1584 Q 115 1589 110 1589 Q 105 1589 99 1585 L 99 1585 L 110 1601 L 140 1611 Q 147 1601 150 1579 L 157 1547 L 158 1549 L 148 1516 Z M 871 1515 L 860 1524 L 848 1567 Q 843 1587 834 1587 Q 830 1587 826 1583 Q 838 1580 841 1563 L 838 1530 L 837 1557 Q 834 1569 825 1569 Q 824 1569 824 1569 L 823 1572 L 821 1568 L 820 1568 Q 814 1594 821 1611 Q 826 1621 834 1621 Q 840 1621 847 1616 Q 859 1608 866 1576 Q 872 1548 871 1515 Z M 975 1443 Q 968 1443 960 1444 Q 1009 1462 1032 1498 L 1045 1516 Q 1048 1524 1043 1544 L 1035 1540 L 1033 1553 L 1028 1554 L 1025 1590 L 1025 1626 Q 1009 1626 1002 1588 Q 992 1581 995 1535 L 994 1523 L 991 1521 L 991 1521 Q 993 1598 984 1623 Q 985 1623 985 1623 Q 992 1623 1003 1631 L 1021 1636 L 1031 1628 Q 1044 1611 1047 1567 L 1069 1584 Q 1070 1584 1072 1584 Q 1082 1584 1078 1561 Q 1094 1555 1090 1477 L 1056 1477 Q 1050 1475 1042 1467 L 1031 1455 Q 1010 1443 975 1443 Z M 581 1491 L 612 1511 L 643 1531 L 655 1544 L 661 1558 L 662 1574 Q 662 1580 669 1580 Q 671 1580 673 1580 Q 673 1611 680 1636 Q 691 1636 696 1610 Q 701 1584 710 1583 Q 714 1625 730 1652 L 736 1630 L 735 1589 Q 734 1563 738 1549 Q 757 1573 762 1597 Q 767 1616 765 1645 L 773 1620 L 775 1561 Q 774 1524 783 1506 L 717 1501 L 716 1529 Q 712 1555 706 1558 Q 703 1560 701 1560 Q 694 1560 689 1544 L 680 1514 L 671 1520 L 663 1510 L 658 1497 L 581 1491 Z M 931 1595 L 929 1635 Q 928 1659 933 1670 L 951 1665 L 979 1661 L 983 1625 L 979 1634 Q 972 1643 966 1643 Q 964 1643 962 1642 L 948 1626 L 938 1623 L 936 1614 L 935 1605 L 931 1595 Z M 482 1531 L 477 1576 L 469 1618 L 461 1629 L 448 1630 Q 446 1630 444 1630 Q 428 1630 421 1615 L 406 1571 L 407 1601 Q 406 1619 399 1626 Q 395 1630 390 1630 Q 385 1630 380 1623 L 366 1598 L 366 1598 Q 368 1624 361 1624 Q 357 1624 351 1616 L 331 1583 L 329 1607 L 321 1605 L 313 1605 Q 313 1628 290 1628 Q 278 1628 260 1622 Q 258 1623 257 1623 Q 252 1623 247 1619 L 247 1619 L 260 1623 L 268 1620 Q 287 1609 277 1542 L 277 1542 L 276 1544 L 272 1569 Q 268 1576 260 1576 Q 257 1576 253 1575 L 233 1569 L 233 1569 Q 231 1603 247 1619 Q 212 1605 203 1594 Q 196 1611 188 1611 Q 176 1611 164 1570 L 164 1570 L 165 1597 Q 165 1612 171 1619 Q 178 1629 194 1629 Q 211 1629 211 1613 Q 217 1629 238 1637 L 272 1646 L 306 1648 L 321 1635 Q 322 1635 323 1635 Q 326 1635 329 1640 L 336 1636 Q 347 1649 377 1652 Q 382 1653 386 1653 Q 410 1653 408 1633 L 408 1633 Q 415 1655 437 1656 Q 438 1656 439 1656 Q 457 1656 468 1639 L 478 1607 L 485 1574 Q 488 1607 496 1636 L 502 1655 L 513 1665 Q 527 1679 545 1683 L 558 1681 L 568 1675 L 586 1677 L 576 1670 L 564 1658 L 571 1658 L 571 1646 L 564 1644 L 548 1643 L 532 1640 Q 512 1624 490 1554 L 486 1552 L 484 1538 L 482 1533 Z M 915 1544 Q 912 1577 901 1613 L 892 1645 L 888 1622 L 883 1599 L 882 1646 L 869 1642 Q 858 1679 849 1684 L 815 1691 L 808 1695 L 860 1690 Q 861 1677 877 1672 Q 897 1667 902 1657 Q 910 1642 911 1609 L 915 1560 L 920 1563 L 915 1544 Z M 762 1682 L 761 1695 L 786 1697 L 766 1683 L 762 1682 Z" fill="rgb(84,58,23)" fill-opacity="1.000"></path><path d="M 782 1349 Q 728 1349 662 1352 L 654 1411 Q 654 1481 657 1497 L 662 1510 L 670 1520 L 679 1514 L 688 1544 Q 693 1560 700 1560 Q 702 1560 705 1558 Q 711 1555 715 1529 L 716 1501 L 716 1463 Q 717 1443 724 1437 L 754 1436 Q 772 1442 783 1452 Q 803 1469 826 1510 L 830 1528 L 831 1451 Q 837 1446 843 1446 Q 852 1446 858 1459 Q 867 1478 869 1515 Q 873 1511 884 1502 L 893 1481 Q 899 1466 904 1461 Q 920 1448 959 1444 Q 967 1443 974 1443 Q 1008 1443 1030 1455 L 1041 1467 Q 1049 1475 1055 1477 L 1089 1477 Q 1093 1555 1077 1561 Q 1081 1584 1071 1584 Q 1070 1584 1068 1584 L 1046 1567 Q 1043 1611 1030 1628 L 1035 1624 Q 1045 1619 1061 1617 L 1087 1612 Q 1113 1601 1120 1567 L 1123 1500 L 1123 1480 L 1102 1457 L 1098 1448 L 1041 1443 Q 970 1406 916 1355 L 879 1352 Q 836 1350 782 1350 Z M 985 1623 Q 984 1623 984 1623 L 983 1625 L 979 1661 L 1001 1653 L 1021 1636 L 1003 1631 Q 992 1623 985 1623 Z M 157 1547 L 150 1579 Q 147 1601 140 1611 L 110 1601 L 119 1609 Q 138 1623 170 1634 L 223 1652 L 295 1663 L 367 1667 L 425 1679 L 484 1687 L 575 1692 L 611 1696 L 703 1703 L 760 1703 L 880 1690 L 933 1670 Q 928 1659 929 1635 L 931 1595 L 920 1561 L 915 1558 L 911 1607 Q 910 1640 902 1655 Q 897 1665 877 1670 Q 861 1675 860 1688 L 808 1693 Q 808 1693 808 1693 L 808 1693 L 786 1695 L 761 1693 L 762 1680 L 765 1645 L 765 1645 Q 765 1645 765 1645 Q 767 1616 762 1597 Q 757 1573 738 1549 Q 734 1563 735 1589 L 736 1630 L 730 1652 Q 726 1660 718 1660 Q 716 1660 715 1660 L 694 1655 L 694 1655 Q 695 1685 655 1685 L 586 1675 L 568 1673 L 558 1679 L 545 1681 Q 527 1677 513 1663 L 502 1653 L 496 1634 Q 488 1605 485 1572 L 478 1605 L 468 1637 Q 458 1654 439 1654 Q 438 1654 437 1654 Q 415 1653 408 1631 L 408 1631 Q 410 1651 386 1651 Q 382 1651 377 1650 Q 347 1647 336 1634 L 329 1638 Q 326 1634 323 1634 Q 322 1634 321 1635 L 306 1648 L 272 1646 L 238 1637 Q 217 1629 211 1613 Q 211 1629 194 1629 Q 178 1629 171 1619 Q 165 1612 165 1597 L 164 1570 L 158 1550 L 157 1548 Z" fill="rgb(66,46,18)" fill-opacity="1.000"></path><path d="M 820 1567 L 822 1571 L 823 1568 L 820 1567 Z M 197 1494 L 194 1525 Q 192 1546 195 1556 L 202 1563 L 209 1567 L 214 1588 L 222 1559 L 232 1532 Q 237 1545 252 1549 Q 257 1550 261 1550 Q 270 1550 275 1542 L 275 1535 L 276 1540 L 277 1525 L 287 1528 L 287 1546 L 288 1548 Q 289 1548 289 1548 Q 295 1548 297 1541 L 297 1524 Q 295 1512 275 1505 L 240 1500 L 205 1498 L 197 1494 Z M 987 1505 L 985 1516 L 990 1520 L 993 1522 L 995 1523 L 994 1534 Q 994 1534 994 1534 L 994 1534 Q 991 1580 1001 1587 L 1003 1589 Q 1016 1556 993 1515 L 990 1510 L 987 1505 Z M 422 1541 Q 416 1558 421 1582 Q 424 1605 436 1605 Q 438 1605 440 1604 Q 451 1599 448 1578 Q 445 1560 435 1560 Q 434 1560 432 1560 L 422 1541 Z M 966 1514 L 940 1520 L 932 1527 Q 932 1565 935 1580 Q 940 1608 955 1608 Q 957 1608 960 1607 Q 970 1604 972 1566 Q 973 1528 966 1514 Z M 330 1527 L 330 1559 Q 332 1576 342 1581 L 349 1568 L 354 1587 Q 356 1597 362 1599 L 362 1589 L 376 1600 L 390 1614 L 394 1583 L 391 1552 Q 388 1545 365 1539 L 335 1534 L 330 1527 Z M 892 1560 L 892 1621 L 900 1610 L 902 1580 Q 900 1562 892 1560 Z M 620 1560 L 619 1601 L 613 1623 Q 608 1636 610 1646 Q 616 1650 618 1661 Q 620 1674 625 1679 L 644 1682 L 664 1679 L 665 1647 Q 662 1630 656 1626 L 642 1611 L 637 1580 Q 634 1562 620 1560 Z M 777 1541 Q 782 1559 779 1581 L 772 1619 L 771 1623 L 768 1642 Q 766 1667 777 1676 L 804 1683 Q 812 1602 785 1556 L 777 1541 Z" fill="rgb(110,76,31)" fill-opacity="1.000"></path><path d="M 842 1445 Q 836 1445 830 1450 L 830 1529 Q 844 1545 840 1562 Q 836 1579 821 1582 Q 825 1586 829 1586 Q 837 1586 844 1566 L 858 1523 L 869 1514 Q 868 1478 858 1458 Q 851 1445 842 1445 Z" fill="rgb(66,46,18)" fill-opacity="1.000"></path><path d="M 600 1539 Q 598 1546 599 1571 Q 599 1593 595 1599 Q 590 1606 583 1606 Q 580 1606 578 1605 Q 568 1600 570 1585 L 562 1582 L 562 1643 L 563 1643 L 589 1642 Q 598 1638 602 1619 L 602 1579 L 600 1539 Z" fill="rgb(84,58,23)" fill-opacity="1.000"></path><path d="M 484 1531 L 482 1535 L 488 1551 L 500 1560 Q 499 1571 504 1582 Q 509 1592 517 1596 Q 522 1558 484 1531 Z" fill="rgb(110,76,31)" fill-opacity="1.000"></path><path d="M 828 1526 Q 821 1526 818 1538 Q 813 1554 820 1567 L 823 1568 L 825 1563 Q 840 1557 834 1528 Q 831 1526 828 1526 Z M 570 1529 Q 565 1529 560 1534 L 565 1541 Q 558 1559 563 1575 Q 568 1589 579 1589 Q 582 1589 584 1588 Q 589 1566 583 1545 Q 579 1529 570 1529 Z" fill="rgb(110,76,31)" fill-opacity="1.000"></path><path d="M 541 1340 L 408 1358 L 287 1380 Q 227 1386 163 1407 Q 82 1432 86 1457 Q 90 1490 209 1534 Q 325 1577 428 1577 Q 441 1577 454 1576 Q 477 1575 507 1575 Q 581 1575 692 1582 Q 772 1587 829 1587 Q 873 1587 903 1584 Q 937 1581 977 1553 Q 1016 1526 1035 1526 Q 1053 1526 1078 1510 Q 1107 1493 1115 1472 Q 1139 1414 992 1382 L 773 1352 L 541 1340 Z" fill="rgb(128,88,36)" fill-opacity="1.000"></path><path d="M 556 1357 L 433 1371 L 322 1388 Q 264 1394 207 1410 Q 134 1430 137 1450 Q 141 1476 250 1511 Q 354 1545 447 1545 Q 461 1545 476 1544 Q 496 1543 522 1543 Q 590 1543 695 1549 Q 766 1553 816 1553 Q 860 1553 889 1550 Q 920 1547 957 1525 Q 993 1504 1011 1504 Q 1064 1504 1084 1461 Q 1107 1414 971 1389 L 770 1366 L 556 1357 Z" fill="rgb(171,144,80)" fill-opacity="1.000"></path><path d="M 503 1376 L 461 1378 L 408 1384 L 453 1381 L 503 1376 Z M 653 1389 L 619 1390 L 674 1393 L 699 1394 L 691 1391 L 653 1389 Z M 608 1395 Q 612 1402 634 1402 L 688 1402 L 608 1395 Z M 571 1383 L 490 1385 Q 478 1385 460 1394 L 440 1401 L 420 1404 L 409 1410 Q 465 1393 545 1393 L 571 1383 Z M 409 1410 L 387 1422 L 379 1426 L 386 1424 L 403 1414 L 409 1410 Z M 297 1425 Q 281 1425 276 1431 L 295 1445 L 312 1436 L 365 1429 L 379 1426 L 341 1429 L 306 1425 Q 301 1425 297 1425 Z M 699 1394 L 712 1401 L 718 1404 L 722 1407 L 752 1414 L 905 1427 Q 939 1427 938 1441 L 923 1452 L 913 1463 L 936 1453 Q 949 1442 946 1432 L 931 1427 L 915 1422 L 824 1414 L 772 1403 L 766 1399 L 733 1395 L 699 1394 Z M 738 1458 L 770 1470 L 791 1474 L 812 1473 L 878 1474 L 871 1473 Q 798 1458 738 1458 Z M 295 1445 Q 289 1450 290 1456 Q 291 1461 299 1463 L 311 1465 L 377 1477 L 377 1477 Q 354 1472 323 1458 L 299 1447 L 295 1445 Z M 377 1477 Q 377 1477 377 1477 Q 377 1477 377 1477 Q 379 1477 381 1478 L 377 1477 L 377 1477 L 377 1477 Z M 470 1451 L 460 1454 L 478 1472 Q 484 1477 496 1477 Q 498 1477 500 1477 L 522 1475 L 594 1479 L 630 1479 L 611 1478 L 483 1461 L 470 1451 Z M 640 1460 L 653 1469 Q 651 1476 630 1479 L 644 1479 Q 665 1477 671 1461 L 671 1461 L 656 1462 L 640 1460 Z M 403 1384 L 379 1389 L 298 1402 L 223 1414 Q 184 1425 175 1438 Q 166 1452 178 1460 L 202 1468 L 226 1482 L 251 1496 L 253 1497 L 241 1489 L 219 1473 Q 203 1460 201 1452 Q 195 1429 230 1426 L 275 1426 L 339 1407 Q 384 1388 403 1384 Z M 273 1481 Q 278 1493 312 1496 L 327 1497 L 312 1493 L 273 1481 Z M 355 1492 L 327 1497 L 351 1499 L 355 1492 Z M 913 1463 L 907 1465 L 886 1476 L 864 1486 L 793 1497 L 652 1497 L 744 1502 L 836 1495 L 869 1488 L 901 1471 L 913 1463 Z M 591 1495 Q 584 1502 567 1502 Q 561 1502 555 1501 L 515 1497 L 435 1497 L 490 1501 L 551 1504 L 583 1507 Q 585 1507 587 1507 Q 607 1507 610 1497 L 591 1495 Z M 490 1507 L 493 1519 L 538 1526 L 572 1526 Q 518 1522 490 1507 Z M 253 1497 Q 315 1535 375 1535 L 567 1535 L 513 1531 Q 496 1530 482 1530 Q 468 1530 458 1532 L 383 1528 L 308 1511 L 253 1498 Z M 829 1390 L 785 1391 L 723 1391 L 749 1396 L 777 1394 L 799 1393 L 820 1394 L 896 1411 L 961 1421 L 988 1423 L 1014 1428 Q 1033 1433 1028 1449 Q 1026 1455 1004 1464 Q 968 1479 953 1489 L 929 1506 L 902 1511 Q 865 1526 839 1526 Q 837 1526 836 1526 L 767 1531 L 703 1536 L 818 1536 L 884 1534 Q 900 1531 925 1511 L 971 1494 Q 997 1485 1014 1468 L 1035 1450 Q 1049 1437 1048 1426 L 1029 1417 L 1009 1411 L 945 1403 L 873 1394 L 829 1390 Z" fill="rgb(150,123,62)" fill-opacity="1.000"></path><path d="M 315 1409 Q 351 1423 408 1426 L 362 1417 L 315 1409 Z M 619 1385 Q 600 1418 600 1441 L 601 1440 L 608 1434 Q 619 1417 619 1385 Z M 422 1396 L 462 1421 L 501 1444 L 516 1444 Q 503 1435 482 1425 L 448 1407 L 422 1396 Z M 841 1442 L 817 1444 L 842 1445 L 858 1447 Q 852 1442 841 1442 Z M 600 1441 Q 596 1443 595 1448 L 600 1444 L 600 1441 Z M 735 1412 L 715 1415 L 701 1422 L 686 1424 L 628 1451 Q 630 1451 632 1451 Q 656 1451 701 1428 L 752 1413 L 735 1412 Z M 408 1426 L 468 1443 L 528 1453 L 445 1427 L 408 1426 Z M 663 1448 L 695 1458 L 716 1458 Q 713 1452 692 1450 L 663 1448 Z M 716 1458 L 716 1461 Q 715 1468 701 1472 L 683 1477 L 715 1476 Q 737 1472 743 1459 L 716 1458 Z M 860 1454 L 839 1458 Q 824 1458 819 1463 L 824 1466 L 823 1477 L 833 1473 Q 855 1464 860 1454 Z M 430 1459 L 373 1465 L 297 1466 L 221 1475 Q 244 1481 274 1481 Q 308 1481 351 1473 L 430 1459 Z" fill="rgb(150,123,62)" fill-opacity="1.000"></path><path d="M 656 1432 L 680 1438 L 706 1441 L 750 1438 L 770 1439 L 656 1432 Z M 466 1428 L 453 1429 L 416 1435 Q 398 1440 395 1450 L 401 1449 L 433 1446 L 449 1436 L 466 1428 Z M 778 1442 Q 786 1445 791 1451 L 793 1456 L 801 1453 L 787 1443 L 778 1442 Z M 395 1450 Q 379 1455 376 1470 Q 417 1487 437 1487 Q 438 1487 439 1487 L 416 1480 Q 399 1472 396 1462 L 395 1450 Z" fill="rgb(150,123,62)" fill-opacity="1.000"></path><path d="M 531 1408 Q 496 1408 460 1408 L 180 1451 Q 188 1465 218 1476 L 265 1491 L 359 1520 Q 411 1535 488 1538 L 620 1538 L 782 1541 L 856 1531 L 930 1518 L 997 1510 Q 1035 1502 1060 1485 Q 1091 1463 1084 1443 Q 1078 1423 1042 1421 Q 794 1408 531 1408 Z" fill="rgb(89,73,35)" fill-opacity="1.000"></path><path d="M 179 185 L 172 384 Q 166 597 171 670 L 174 799 L 171 904 L 174 1002 Q 176 1049 171 1088 Q 163 1155 163 1289 L 171 1456 L 234 1487 Q 321 1518 447 1523 Q 558 1528 636 1528 Q 675 1528 706 1527 Q 819 1522 907 1498 Q 986 1477 1025 1452 L 1049 1431 Q 1041 1189 1058 1046 Q 1070 945 1066 833 Q 1063 731 1049 670 Q 1037 613 1028 471 Q 1018 326 1024 277 L 1033 210 L 179 185 Z" fill="rgb(110,76,31)" fill-opacity="1.000"></path><path d="M 178 212 L 176 265 L 220 265 L 263 268 Q 277 273 289 289 L 313 316 Q 350 346 379 357 L 455 369 L 522 374 Q 541 382 555 420 Q 572 463 581 541 Q 579 450 582 405 Q 614 384 644 384 Q 653 384 662 386 Q 644 336 602 334 Q 601 334 599 334 Q 559 334 556 391 L 519 344 Q 500 312 472 302 L 441 300 L 409 300 L 387 285 Q 371 271 363 268 Q 288 229 261 220 L 219 216 L 178 212 Z M 489 475 Q 500 489 494 544 L 488 563 L 480 578 Q 477 589 480 595 L 491 609 L 504 642 Q 511 663 519 672 Q 521 659 515 630 Q 508 602 512 588 L 522 567 L 531 545 Q 533 531 525 508 Q 517 482 506 477 L 489 475 Z M 229 616 Q 226 616 222 617 L 221 631 L 213 617 L 220 641 L 227 665 L 227 685 L 229 703 Q 241 681 244 650 Q 248 616 229 616 Z M 595 513 Q 578 565 581 611 L 579 663 Q 579 703 573 712 Q 563 727 545 734 L 550 747 Q 550 747 550 747 L 550 747 Q 548 778 552 827 L 559 907 L 564 907 L 567 873 Q 569 848 573 840 L 585 832 L 597 823 L 612 783 L 614 763 L 614 763 Q 614 763 614 763 L 615 761 Q 626 711 619 635 Q 612 564 595 513 Z M 224 943 L 228 964 L 230 967 L 230 946 L 224 943 Z M 624 1017 L 623 1022 L 648 1077 L 650 1078 L 650 1071 L 651 1071 Q 649 1028 624 1017 Z M 230 967 L 231 1043 Q 236 1124 248 1124 Q 248 1124 249 1124 L 252 1072 Q 254 1021 238 984 L 230 967 Z M 498 1094 L 481 1095 L 476 1105 L 474 1107 L 448 1130 L 474 1118 L 485 1113 L 498 1094 Z M 713 963 Q 710 971 709 1014 Q 708 1051 697 1063 L 680 1075 Q 683 1100 672 1120 L 648 1121 L 658 1154 L 670 1156 L 671 1149 L 671 1156 L 714 1154 Q 721 1045 713 963 Z M 473 1192 Q 473 1192 473 1192 L 473 1192 Q 473 1192 473 1192 Z M 448 1130 L 437 1137 L 420 1158 L 420 1168 L 414 1166 L 405 1217 Q 405 1195 412 1165 L 407 1163 Q 401 1164 395 1164 Q 381 1164 365 1156 L 365 1156 Q 356 1195 371 1213 Q 381 1226 414 1237 L 419 1200 L 426 1164 Q 434 1141 448 1130 Z M 813 562 Q 837 633 829 742 Q 819 874 825 923 L 847 1048 Q 859 1144 840 1185 L 851 1175 L 857 1155 L 874 1155 Q 886 1209 852 1222 Q 842 1226 830 1226 Q 809 1226 782 1214 L 748 1206 L 748 1206 Q 759 1249 797 1249 Q 809 1249 824 1245 Q 885 1228 890 1175 L 890 1175 L 886 1236 Q 882 1259 869 1270 L 874 1280 Q 867 1323 831 1341 Q 821 1346 815 1346 Q 797 1346 808 1307 L 836 1303 L 864 1296 L 866 1273 L 866 1273 Q 854 1282 831 1283 L 773 1281 Q 721 1274 696 1243 Q 673 1213 671 1156 L 670 1156 L 668 1208 Q 666 1240 650 1249 Q 639 1255 629 1255 Q 603 1255 589 1208 L 591 1140 L 619 1139 L 647 1137 L 648 1121 L 641 1121 Q 638 1113 641 1105 L 647 1090 L 648 1080 L 647 1077 L 623 1022 L 622 1030 L 621 1032 L 623 1021 L 623 1017 Q 623 1003 610 994 L 589 974 Q 584 965 584 950 L 584 924 Q 579 917 579 901 L 579 901 L 584 924 Q 593 939 613 945 L 656 946 L 662 944 L 619 935 Q 597 925 594 914 L 594 914 Q 604 916 613 916 Q 653 916 668 875 Q 680 811 690 787 L 690 795 Q 705 812 707 855 Q 708 897 696 923 Q 722 896 729 829 Q 723 722 727 666 Q 734 565 813 562 Z M 671 1233 Q 679 1293 645 1311 Q 634 1317 624 1317 Q 608 1317 595 1300 L 595 1300 Q 603 1357 594 1380 Q 585 1401 559 1401 Q 546 1401 529 1396 Q 484 1383 474 1310 L 482 1296 L 497 1285 L 518 1286 L 538 1284 Q 548 1275 543 1261 L 528 1236 L 528 1236 Q 569 1281 588 1289 L 589 1261 L 589 1264 L 591 1257 L 614 1255 L 606 1272 Q 612 1290 623 1290 Q 631 1290 642 1281 Q 666 1260 671 1233 Z M 816 289 Q 758 289 738 392 Q 726 458 713 560 Q 692 538 682 483 L 665 394 L 663 390 L 666 538 L 665 687 L 670 761 Q 673 811 669 838 Q 669 862 659 879 Q 648 897 630 901 Q 621 907 612 907 Q 594 907 583 880 L 579 901 L 573 892 L 575 896 Q 560 910 558 927 L 560 961 L 569 984 Q 574 1009 561 1037 L 539 1084 L 532 1110 L 513 1129 Q 480 1154 474 1164 L 473 1164 L 463 1187 L 452 1210 L 447 1215 L 423 1236 L 422 1240 Q 412 1279 414 1325 Q 423 1328 431 1328 Q 439 1328 447 1326 L 449 1411 Q 444 1450 413 1450 Q 406 1450 399 1448 L 389 1418 L 384 1439 L 379 1463 Q 358 1476 341 1476 Q 324 1476 312 1462 Q 290 1438 295 1391 L 295 1391 Q 276 1394 267 1410 Q 259 1425 261 1446 Q 235 1412 241 1321 Q 249 1218 238 1189 Q 210 1204 214 1318 Q 218 1440 195 1466 L 191 1469 Q 271 1511 407 1522 Q 425 1514 432 1500 L 464 1506 L 496 1506 Q 495 1492 500 1474 L 508 1441 L 535 1488 Q 548 1505 589 1507 L 646 1499 L 698 1482 Q 694 1466 676 1441 Q 660 1417 657 1400 L 678 1398 L 697 1396 Q 694 1356 706 1324 Q 729 1339 775 1402 Q 805 1433 837 1433 Q 855 1433 874 1423 Q 909 1404 915 1341 L 915 1243 Q 927 1249 937 1249 Q 975 1249 965 1158 L 950 1149 L 941 1141 Q 965 1139 981 1122 Q 997 1104 991 1081 Q 984 1052 959 1051 L 914 1047 L 876 1036 Q 867 1030 857 997 Q 849 968 851 952 Q 853 930 874 914 L 892 945 L 906 972 L 919 979 Q 926 981 934 981 Q 942 981 950 979 Q 982 973 1000 933 Q 1015 897 1007 866 L 956 863 Q 934 846 943 814 L 943 814 Q 943 814 944 814 Q 981 814 979 678 L 967 488 Q 967 531 954 572 Q 937 624 908 628 Q 905 628 902 628 Q 875 628 853 595 Q 832 563 834 532 L 834 532 Q 846 540 872 544 L 874 542 L 881 405 Q 879 305 841 294 Q 828 290 817 290 Z" fill="rgb(97,67,27)" fill-opacity="1.000"></path><path d="M 700 923 Q 687 938 662 944 Q 680 944 690 937 L 700 923 Z M 647 1090 L 641 1105 Q 638 1113 641 1121 L 648 1121 L 648 1120 Q 645 1107 647 1090 Z M 650 1071 L 650 1078 L 648 1121 L 672 1120 Q 683 1100 680 1075 L 680 1075 L 680 1075 L 680 1073 L 650 1071 Z M 549 888 Q 543 901 543 942 L 539 963 Q 549 985 535 1006 L 519 1028 Q 513 1039 504 1076 L 498 1094 L 485 1113 L 474 1118 L 448 1130 L 448 1130 L 448 1130 Q 434 1141 426 1164 L 419 1200 L 414 1237 L 411 1247 L 419 1239 L 423 1236 L 447 1215 L 452 1210 L 463 1187 L 473 1164 L 474 1164 Q 480 1154 513 1129 L 532 1110 L 539 1084 L 561 1037 Q 574 1009 569 984 L 560 961 L 553 940 L 552 914 L 549 888 Z M 671 1233 Q 666 1260 642 1281 Q 631 1290 623 1290 Q 612 1290 606 1272 L 614 1255 L 591 1257 L 589 1264 L 595 1300 Q 607 1317 624 1317 Q 634 1317 645 1311 Q 679 1293 671 1233 Z M 179 185 L 178 212 L 219 216 L 261 220 Q 288 229 363 268 Q 371 271 387 285 L 409 300 L 441 300 L 472 302 Q 500 312 519 344 L 556 391 Q 559 334 599 334 Q 600 334 602 334 Q 644 336 662 386 L 663 387 L 663 390 L 665 394 L 682 483 Q 692 538 713 560 Q 726 458 738 392 Q 757 289 816 289 Q 827 289 840 293 Q 878 304 880 404 L 873 541 L 882 519 L 890 494 L 899 486 L 914 487 Q 923 537 886 568 Q 872 579 863 579 Q 848 579 850 546 L 871 543 Q 845 539 833 531 L 833 531 Q 831 562 852 594 Q 874 627 901 627 Q 904 627 907 627 Q 936 623 953 571 Q 966 530 966 487 L 978 677 Q 980 813 943 813 Q 943 813 942 813 L 942 813 Q 933 845 955 862 L 1006 865 Q 1014 896 999 932 Q 981 972 949 978 Q 941 980 934 980 Q 927 980 920 978 L 920 978 Q 942 989 965 989 Q 970 989 975 988 L 1000 979 L 1000 979 Q 993 1029 956 1029 Q 942 1029 925 1022 Q 858 996 876 938 L 876 938 L 907 971 L 893 944 L 875 913 Q 854 929 852 951 Q 850 967 858 996 Q 868 1029 877 1035 L 915 1046 L 960 1050 Q 985 1051 992 1080 Q 998 1103 982 1121 Q 966 1138 942 1140 L 951 1148 L 966 1157 Q 976 1248 938 1248 Q 929 1248 916 1242 L 916 1340 Q 910 1403 875 1422 Q 856 1432 838 1432 Q 806 1432 776 1401 Q 730 1338 707 1323 Q 695 1355 698 1395 L 679 1397 L 658 1399 Q 661 1416 677 1440 Q 695 1465 699 1481 L 647 1498 L 590 1506 Q 549 1504 536 1487 L 509 1440 L 501 1473 Q 496 1491 497 1505 L 465 1505 L 433 1499 Q 426 1513 408 1521 L 448 1523 Q 556 1528 632 1528 Q 665 1528 692 1527 L 692 1525 Q 697 1525 702 1525 Q 744 1525 756 1509 Q 764 1498 768 1440 Q 791 1459 843 1468 L 925 1465 Q 953 1452 976 1398 L 976 1373 L 974 1347 L 987 1333 L 999 1321 Q 1006 1280 1007 1177 Q 1008 1079 1019 1032 Q 1054 889 1028 694 Q 987 469 969 354 Q 961 401 931 462 Q 906 354 882 309 Q 852 252 795 252 Q 774 252 749 260 Q 734 265 711 286 L 674 311 L 625 308 L 590 281 Q 584 277 579 262 L 566 243 Q 564 242 559 242 Q 554 242 547 244 L 526 244 L 494 242 Q 479 242 473 221 L 434 218 Q 428 196 396 192 L 374 191 L 312 189 L 181 186 Z" fill="rgb(84,58,23)" fill-opacity="1.000"></path><path d="M 899 486 L 890 494 L 882 519 L 873 541 L 872 543 L 871 543 L 850 546 Q 849 579 863 579 Q 872 579 886 568 Q 923 537 914 487 L 899 486 Z M 875 938 Q 857 996 924 1022 Q 942 1029 955 1029 Q 992 1029 999 979 L 999 979 L 974 988 Q 969 989 964 989 Q 941 989 919 978 L 906 971 L 875 938 Z M 394 191 Q 426 195 432 217 L 471 220 Q 477 241 492 241 L 524 243 L 545 243 Q 553 242 558 242 Q 563 242 566 244 L 579 263 Q 584 278 590 282 L 625 309 L 674 312 L 711 287 Q 734 266 749 261 Q 774 253 795 253 Q 851 253 882 310 Q 906 355 931 463 Q 961 402 969 355 Q 987 470 1028 695 Q 1054 890 1019 1033 Q 1008 1080 1007 1178 Q 1006 1281 999 1322 L 987 1334 L 974 1348 L 976 1374 L 976 1399 Q 953 1453 925 1466 L 843 1469 Q 791 1460 768 1441 Q 764 1499 756 1510 Q 744 1526 702 1526 Q 697 1526 692 1526 L 692 1528 Q 819 1523 908 1499 Q 987 1478 1026 1453 L 1050 1432 Q 1042 1190 1059 1047 Q 1071 946 1067 834 Q 1064 732 1050 671 Q 1038 614 1029 472 Q 1019 327 1025 278 L 1034 211 L 395 192 Z" fill="rgb(66,46,18)" fill-opacity="1.000"></path><path d="M 310 357 L 310 408 L 302 434 Q 296 455 300 460 Q 304 467 311 467 Q 315 467 321 464 Q 332 459 336 450 Q 341 437 336 408 L 330 366 L 310 357 Z M 241 324 L 232 391 L 233 434 L 232 477 L 223 534 Q 224 567 253 567 Q 254 567 255 567 Q 283 566 279 513 L 269 438 L 260 374 L 252 349 L 243 324 Z M 197 611 Q 194 611 191 614 L 191 622 Q 202 710 202 767 L 201 793 Q 202 810 210 810 Q 212 810 213 809 Q 221 806 221 760 L 218 703 L 208 647 L 205 622 Q 202 611 197 611 Z M 405 410 Q 418 465 418 560 L 381 559 Q 361 565 351 578 Q 346 584 339 601 L 326 624 L 310 635 Q 301 639 296 649 Q 290 662 288 694 L 280 741 Q 258 794 260 823 Q 263 809 277 796 L 297 774 L 313 724 L 334 662 Q 346 625 363 603 L 363 603 L 359 611 Q 370 594 385 588 L 418 582 L 416 602 L 431 581 L 433 580 L 447 561 L 471 541 Q 445 451 422 419 L 405 410 Z M 660 658 Q 640 681 646 745 Q 651 806 630 824 L 614 834 L 601 850 Q 593 865 593 896 L 602 900 L 630 901 Q 648 897 659 879 Q 669 862 669 838 L 669 838 L 669 838 L 669 833 L 660 658 Z M 249 885 L 241 890 L 245 931 L 249 971 L 249 995 Q 251 1005 259 1005 Q 262 1005 265 1004 Q 273 988 266 955 L 261 917 Q 257 893 249 885 Z M 816 853 L 790 912 Q 788 945 813 1013 Q 806 954 806 924 Q 805 880 816 853 Z M 509 712 L 502 720 Q 492 737 496 765 Q 500 791 512 809 L 513 805 L 518 779 L 514 810 Q 528 844 531 863 Q 543 954 527 995 Q 505 1052 472 1082 L 461 1091 L 452 1095 L 452 1097 L 448 1130 L 474 1107 L 476 1105 L 481 1095 L 490 1081 L 504 1076 Q 513 1039 519 1028 L 535 1006 Q 535 980 541 931 L 547 857 Q 548 832 527 784 Q 507 738 509 712 Z M 207 915 L 210 945 L 209 974 L 195 1010 L 193 1060 L 189 1073 Q 187 1080 188 1085 Q 189 1092 193 1096 L 200 1105 L 205 1134 Q 208 1154 216 1157 Q 231 1136 229 1102 Q 224 1063 225 1044 Q 227 999 219 963 L 213 924 L 207 915 Z M 418 1144 L 413 1161 L 412 1165 L 414 1166 L 416 1160 L 419 1154 L 418 1144 Z M 813 1013 L 819 1068 Q 821 1103 807 1117 Q 793 1130 757 1130 Q 740 1178 766 1192 L 799 1194 Q 821 1191 828 1181 Q 836 1171 836 1109 Q 837 1075 813 1013 Z M 528 1291 Q 519 1291 511 1300 L 522 1300 Q 507 1320 509 1341 Q 511 1360 532 1360 Q 536 1360 542 1359 Q 582 1351 558 1314 Q 543 1291 528 1291 Z M 255 1147 L 249 1267 L 241 1323 Q 237 1365 252 1373 Q 256 1375 260 1375 Q 274 1375 278 1339 L 280 1277 Q 280 1208 269 1147 Z M 185 1214 L 183 1321 Q 185 1406 200 1406 Q 201 1406 201 1406 Q 213 1403 209 1362 L 201 1311 L 200 1253 Q 198 1230 185 1214 Z M 386 1281 L 385 1328 Q 384 1359 389 1376 L 401 1400 L 418 1421 Q 437 1402 422 1365 L 397 1314 L 386 1281 Z M 285 1091 L 291 1158 L 291 1224 L 294 1306 L 293 1367 Q 296 1403 317 1419 Q 329 1428 337 1428 Q 338 1428 338 1428 Q 345 1426 352 1412 Q 366 1385 349 1343 L 324 1275 L 322 1229 L 316 1182 L 311 1152 Q 308 1133 299 1124 L 285 1091 Z" fill="rgb(128,88,36)" fill-opacity="1.000"></path><path d="M 433 598 Q 418 598 401 619 L 369 661 Q 346 683 330 714 Q 315 745 311 777 L 315 775 L 315 775 Q 303 782 293 809 L 286 830 Q 282 898 284 921 Q 286 949 300 978 L 330 1028 Q 373 1099 384 1148 L 407 1163 L 412 1165 L 413 1161 L 418 1144 Q 416 1123 424 1111 L 432 1101 L 450 1098 L 446 1098 L 456 1086 L 465 1054 L 471 1073 Q 488 1061 497 1042 Q 519 1001 515 929 Q 509 830 512 809 Q 500 791 496 765 Q 492 737 502 720 L 498 706 L 477 669 L 455 633 L 451 615 Q 449 603 441 599 Q 437 598 433 598 Z M 419 1154 L 416 1160 L 414 1166 L 420 1168 L 420 1158 L 419 1154 Z" fill="rgb(69,46,20)" fill-opacity="1.000"></path><path d="M 690 787 Q 680 811 668 875 Q 652 916 613 916 Q 604 916 594 914 L 594 914 Q 597 925 618 935 L 660 944 Q 679 939 695 923 Q 707 897 706 855 Q 705 812 690 795 L 690 787 Z M 648 1071 L 648 1078 L 650 1078 L 650 1071 Z M 840 1189 L 806 1202 Q 781 1207 772 1214 L 782 1218 Q 788 1219 794 1219 Q 827 1219 840 1189 Z M 589 1264 L 588 1281 Q 590 1294 595 1300 L 589 1264 Z M 419 1187 Q 412 1187 405 1192 L 360 1212 Q 355 1221 357 1244 L 360 1277 Q 360 1305 368 1314 Q 374 1321 400 1331 L 411 1338 L 424 1342 L 458 1340 Q 465 1334 466 1294 L 464 1244 Q 459 1220 444 1202 Q 432 1187 419 1187 Z M 869 1271 L 866 1273 L 864 1296 L 836 1303 L 808 1307 Q 798 1346 815 1346 Q 821 1346 831 1341 Q 867 1323 874 1281 L 869 1271 Z" fill="rgb(84,58,23)" fill-opacity="1.000"></path><path d="M 464 1054 L 454 1086 L 470 1073 L 464 1054 Z" fill="rgb(69,46,20)" fill-opacity="1.000"></path><path d="M 512 809 Q 509 830 515 929 Q 519 1001 497 1042 Q 489 1060 470 1073 L 454 1086 L 441 1098 L 440 1099 Q 440 1099 440 1099 L 440 1099 L 426 1122 L 418 1144 L 419 1154 L 427 1143 L 437 1137 L 448 1130 L 452 1097 L 452 1095 L 461 1091 L 472 1082 Q 505 1052 527 995 Q 543 954 531 863 Q 528 844 514 810 L 514 812 L 512 809 Z" fill="rgb(128,88,36)" fill-opacity="1.000"></path><path d="M 806 47 L 591 50 L 300 82 L 192 88 L 86 79 L 90 155 L 92 196 Q 97 215 118 225 Q 150 241 222 255 L 294 263 L 366 265 L 424 273 L 483 279 L 574 282 L 715 290 L 797 289 L 879 281 L 915 272 L 950 264 L 976 261 L 1000 255 L 1017 246 L 1035 236 L 1061 231 L 1087 227 Q 1113 219 1120 196 L 1123 150 L 1120 82 Q 1118 75 1066 71 Q 1017 67 1020 59 L 806 47 Z M 341 377 Q 336 387 337 410 L 335 444 L 324 474 Q 321 490 342 500 Q 349 503 355 503 Q 365 503 372 495 Q 384 482 383 463 Q 382 434 344 388 L 341 377 Z M 277 430 Q 297 479 276 527 L 259 561 Q 252 570 243 570 Q 236 570 227 564 L 227 564 Q 224 590 251 590 Q 257 590 264 589 Q 306 581 313 553 Q 318 532 313 496 Q 308 455 291 450 L 277 430 Z" fill="rgb(97,67,27)" fill-opacity="1.000"></path><path d="M 753 441 Q 752 441 749 444 L 755 446 L 755 444 Q 755 441 754 441 Z M 814 366 L 814 369 Q 819 381 812 443 Q 807 493 834 509 Q 859 497 846 437 Q 834 381 814 366 Z M 756 446 L 741 494 Q 734 530 747 530 Q 750 530 753 528 Q 766 522 768 488 Q 770 455 759 447 L 756 446 Z M 892 717 L 884 851 L 881 889 Q 881 911 892 924 Q 901 936 906 936 Q 906 936 907 936 L 915 921 L 915 887 L 912 853 L 906 773 L 895 723 L 892 717 Z M 937 1295 L 933 1334 L 932 1372 Q 934 1372 935 1372 Q 952 1372 955 1342 Q 958 1312 948 1297 L 937 1295 Z" fill="rgb(110,76,31)" fill-opacity="1.000"></path><path d="M 287 182 Q 284 194 293 194 L 288 184 L 287 184 L 287 182 Z M 170 135 L 170 140 L 165 169 Q 162 190 166 196 L 183 195 Q 192 183 189 165 Q 185 145 170 135 Z M 312 175 Q 313 183 306 189 L 293 194 L 295 197 L 297 219 L 317 222 Q 320 186 312 175 Z M 147 161 L 148 185 Q 147 199 140 204 L 140 202 L 139 212 L 118 209 Q 115 212 110 212 Q 105 212 98 209 L 98 209 L 109 220 L 139 227 L 149 205 Q 151 188 156 183 L 157 184 L 147 161 Z M 870 161 L 859 167 L 847 196 Q 842 210 833 210 Q 829 210 825 207 Q 837 206 840 194 L 837 171 L 836 190 Q 833 197 825 197 Q 824 197 823 197 L 822 200 L 820 197 L 819 197 Q 813 215 820 227 Q 825 234 832 234 Q 838 234 846 230 Q 858 224 865 203 Q 871 184 870 161 Z M 959 112 Q 1009 125 1031 149 L 1044 161 Q 1047 167 1042 181 L 1034 178 L 1032 187 L 1027 187 L 1024 212 L 1024 237 Q 1008 237 1001 211 Q 992 206 994 174 L 993 166 L 990 165 L 990 165 Q 992 218 983 235 L 1002 240 L 1020 244 L 1030 238 Q 1044 226 1046 196 Q 1057 206 1068 208 Q 1069 208 1070 208 Q 1080 208 1077 192 Q 1085 190 1088 167 L 1089 135 L 1055 135 L 1041 128 L 1030 119 L 959 112 Z M 580 145 L 611 158 L 642 171 L 654 181 L 660 190 L 661 201 Q 661 205 669 205 Q 671 205 672 205 Q 672 226 679 244 Q 690 244 695 226 Q 700 208 709 207 Q 713 236 729 255 L 735 239 L 734 212 Q 733 194 737 184 Q 756 201 761 217 Q 766 230 764 250 L 767 245 L 771 235 L 772 233 L 774 193 Q 773 167 782 155 L 716 151 L 715 170 Q 710 189 705 190 Q 702 191 700 191 Q 693 191 688 181 L 679 160 Q 675 165 672 165 Q 671 165 670 165 L 662 159 L 657 149 L 580 146 Z M 930 216 L 928 244 Q 927 261 932 268 L 950 265 L 978 262 L 982 237 L 978 244 L 961 249 L 947 238 L 937 236 L 935 230 L 934 223 L 930 216 Z M 481 172 L 476 203 L 468 233 L 460 240 L 447 241 Q 446 241 444 241 Q 427 241 420 230 L 405 200 L 406 221 L 398 238 L 379 236 L 365 218 L 365 218 Q 367 237 360 237 Q 356 237 350 231 L 330 209 L 328 225 L 312 223 Q 312 239 288 239 Q 276 239 259 235 L 267 233 Q 286 226 276 180 L 276 180 L 275 181 L 271 198 Q 267 203 259 203 Q 256 203 252 202 L 232 198 L 232 198 Q 230 223 246 232 L 202 216 Q 195 228 188 228 Q 176 228 163 199 L 163 199 L 164 217 Q 164 228 170 232 Q 177 239 193 239 Q 194 239 196 239 Q 210 239 210 228 L 237 245 L 271 251 L 305 253 L 320 243 L 328 246 L 335 243 Q 346 252 376 254 Q 380 254 383 254 Q 408 254 407 241 L 407 241 Q 414 256 436 257 Q 437 257 439 257 Q 457 257 467 245 L 477 223 L 484 201 L 495 243 L 501 256 L 512 263 Q 529 274 544 276 L 557 274 L 567 270 L 585 271 L 575 265 L 563 256 L 570 256 L 570 250 L 563 249 L 547 248 L 531 246 Q 511 236 489 187 L 485 186 L 483 176 L 481 172 Z M 914 180 Q 911 203 900 227 L 891 249 L 887 234 L 882 218 L 881 250 L 868 248 Q 857 273 848 276 L 814 281 L 807 284 L 859 280 Q 860 272 876 268 Q 896 264 901 257 Q 909 247 910 225 Q 910 199 914 191 L 919 193 L 914 180 Z M 761 275 L 760 284 L 785 285 L 765 275 Z M 857 1156 L 851 1175 L 840 1183 Q 825 1216 791 1216 Q 786 1216 782 1215 L 782 1215 Q 809 1227 830 1227 Q 842 1227 852 1223 Q 886 1210 874 1156 Z" fill="rgb(84,58,23)" fill-opacity="1.000"></path><path d="M 461 625 Q 446 632 434 662 L 416 707 L 391 744 L 366 779 L 326 863 Q 309 912 329 954 L 347 990 L 365 1012 L 382 1033 L 392 1068 Q 397 1092 412 1099 L 427 1100 L 442 1085 Q 447 1081 459 1076 L 475 1066 Q 502 1042 509 1005 Q 515 967 514 908 L 511 809 L 513 763 Q 514 734 508 717 Q 500 696 453 634 L 461 625 Z" fill="rgb(48,34,14)" fill-opacity="1.000"></path><path d="M 785 48 Q 731 48 662 50 L 654 90 Q 654 139 657 149 L 662 159 L 670 165 Q 671 166 672 166 Q 675 166 679 162 L 688 183 Q 692 193 700 193 Q 703 193 705 192 Q 710 191 715 172 L 716 153 L 716 127 Q 717 114 724 109 L 754 108 Q 772 112 783 119 L 826 159 L 830 172 L 831 119 Q 837 116 842 116 Q 851 116 858 125 Q 867 138 869 163 L 884 154 L 893 139 L 904 126 Q 922 116 959 114 L 1030 121 L 1041 130 L 1055 137 L 1089 137 L 1088 169 Q 1085 192 1077 194 Q 1081 210 1070 210 Q 1069 210 1068 210 Q 1057 208 1046 198 Q 1044 228 1030 240 L 1035 238 L 1061 233 L 1087 229 Q 1113 221 1120 198 L 1123 152 L 1120 84 Q 1118 77 1066 73 Q 1017 69 1020 61 L 879 51 Q 839 50 785 50 Z M 983 238 L 982 239 L 978 264 L 1000 258 L 1020 247 L 1002 243 L 983 238 Z M 156 186 Q 151 191 149 208 L 139 230 L 109 223 L 118 228 Q 150 244 222 258 L 294 266 L 366 268 L 424 276 L 483 282 L 574 285 L 610 288 L 702 293 L 759 293 L 879 284 L 932 270 Q 927 263 928 246 L 930 218 L 919 195 L 914 193 Q 910 201 910 227 Q 909 249 901 259 Q 896 266 876 270 Q 860 274 859 282 L 807 286 L 785 287 L 760 286 L 761 277 L 764 253 L 764 253 Q 764 253 764 253 Q 766 233 761 220 Q 756 204 737 187 Q 733 197 734 215 L 735 242 L 729 258 L 714 263 L 693 260 L 693 260 Q 694 280 658 280 Q 656 280 654 280 L 585 273 L 567 272 L 557 276 L 544 278 Q 529 276 512 265 L 501 258 L 495 245 L 484 203 L 477 225 L 467 247 Q 457 259 439 259 Q 438 259 436 259 Q 414 258 407 243 L 407 243 Q 409 256 383 256 Q 380 256 376 256 Q 346 254 335 245 L 328 248 L 320 245 L 305 255 L 271 253 L 237 247 L 210 230 Q 210 241 196 241 Q 195 241 193 241 Q 177 241 170 234 Q 164 230 164 219 L 163 201 L 157 187 L 156 186 Z M 410 1198 Q 401 1198 390 1205 L 355 1255 Q 362 1275 385 1291 Q 407 1306 429 1307 L 430 1288 L 444 1287 Q 446 1251 436 1223 Q 427 1198 410 1198 Z" fill="rgb(66,46,18)" fill-opacity="1.000"></path><path d="M 820 197 L 822 200 L 823 197 Z M 197 147 L 194 169 Q 192 183 195 190 L 202 194 L 209 197 L 214 211 L 222 191 L 232 173 Q 237 182 252 185 Q 256 186 260 186 Q 270 186 275 180 L 275 175 L 276 179 L 277 168 L 287 170 L 287 183 L 288 184 L 297 179 L 297 168 Q 294 159 275 154 L 240 151 L 205 150 L 197 147 Z M 987 155 L 985 162 L 990 165 L 993 166 L 995 167 L 994 174 Q 996 197 1001 211 L 1003 212 Q 1017 189 993 161 L 990 158 L 987 155 Z M 571 171 Q 566 171 560 175 L 565 180 Q 558 191 563 202 Q 568 212 580 212 Q 582 212 584 212 Q 589 196 583 182 Q 579 171 571 171 Z M 422 180 Q 416 191 421 208 Q 424 223 435 223 Q 437 223 440 222 Q 451 219 448 205 Q 445 192 434 192 Q 433 192 432 192 L 422 180 Z M 966 161 L 940 165 L 932 170 Q 932 195 935 206 Q 940 225 956 225 Q 958 225 960 225 Q 970 223 972 196 Q 973 171 966 161 Z M 330 170 L 330 191 Q 332 203 342 207 L 349 198 L 354 211 L 362 219 L 362 212 Q 367 213 376 220 L 390 229 L 394 208 L 391 187 Q 388 182 365 178 L 335 175 L 330 170 Z M 892 193 L 892 234 L 900 226 L 902 206 Q 900 194 892 193 Z M 777 180 Q 782 192 779 207 L 772 233 L 771 235 L 768 248 Q 766 265 777 272 L 804 277 Q 812 220 785 190 L 777 180 Z" fill="rgb(110,76,31)" fill-opacity="1.000"></path><path d="M 461 625 Q 446 632 434 662 L 416 707 L 391 744 L 366 779 L 326 863 Q 309 912 329 954 L 347 990 L 365 1012 L 382 1033 L 389 1052 L 402 1057 L 404 1030 Q 401 1010 405 1001 L 410 1004 Q 412 986 406 949 Q 400 912 403 894 L 403 894 L 414 929 Q 421 917 424 890 L 433 851 Q 446 873 449 901 L 450 935 Q 453 820 459 764 L 463 803 L 469 840 L 473 809 Q 482 817 493 853 Q 504 887 514 894 L 511 809 L 513 763 Q 514 734 508 717 Q 500 696 453 634 L 461 625 Z" fill="rgb(43,30,11)" fill-opacity="1.000"></path><path d="M 387 1185 L 350 1187 Q 343 1187 336 1187 Q 282 1187 222 1200 L 131 1212 L 70 1217 L 27 1225 L 11 1244 Q -4 1266 2 1285 Q 12 1315 37 1322 L 78 1318 L 152 1307 L 243 1286 L 322 1267 L 407 1260 Q 425 1250 422 1217 Q 421 1197 404 1189 L 387 1185 Z" fill="rgb(198,170,99)" fill-opacity="1.000"></path><path d="M 841 114 Q 836 114 830 117 L 830 171 Q 844 182 840 194 Q 836 205 821 207 Q 826 210 830 210 Q 838 210 844 196 L 858 167 L 869 161 Q 868 136 858 123 Q 851 114 841 114 Z" fill="rgb(66,46,18)" fill-opacity="1.000"></path><path d="M 600 178 Q 598 183 599 200 L 595 219 L 578 223 Q 568 220 570 210 L 562 207 L 562 249 L 589 249 Q 598 246 602 232 L 602 205 L 600 178 Z" fill="rgb(84,58,23)" fill-opacity="1.000"></path><path d="M 484 172 L 482 175 L 488 186 L 500 192 Q 499 200 504 208 Q 509 215 517 217 Q 522 191 484 172 Z M 620 192 L 619 220 L 613 236 Q 608 245 610 252 L 618 262 Q 620 271 625 274 Q 629 276 638 276 Q 648 276 664 274 L 665 252 L 656 237 L 642 227 L 637 206 Q 634 193 620 192 Z" fill="rgb(110,76,31)" fill-opacity="1.000"></path><path d="M 387 1185 L 350 1187 Q 343 1187 336 1187 Q 282 1187 222 1200 L 131 1212 L 70 1217 L 27 1225 Q 45 1234 52 1240 Q 63 1250 65 1265 L 62 1297 L 41 1322 L 152 1307 L 243 1286 L 322 1267 L 407 1260 Q 425 1250 422 1217 Q 421 1197 404 1189 L 387 1185 Z" fill="rgb(171,146,86)" fill-opacity="1.000"></path><path d="M 828 169 Q 821 169 818 177 Q 813 188 820 197 L 823 197 L 825 195 Q 840 189 834 170 Q 831 169 828 169 Z" fill="rgb(110,76,31)" fill-opacity="1.000"></path><path d="M 371 1219 L 370 1219 L 370 1219 Q 370 1219 371 1219 Z M 379 1185 L 372 1195 L 381 1197 L 367 1203 L 352 1207 L 365 1210 L 283 1220 L 370 1219 L 370 1219 Q 362 1219 355 1224 L 342 1237 L 399 1238 L 371 1241 L 340 1241 L 287 1259 L 232 1267 L 278 1251 L 322 1232 L 269 1236 L 215 1242 L 254 1229 L 175 1240 L 112 1250 L 146 1247 L 194 1253 L 126 1267 L 97 1266 Q 79 1267 70 1274 L 122 1275 L 110 1284 L 97 1289 L 137 1289 L 109 1296 L 81 1304 L 80 1304 L 76 1305 L 55 1306 L 41 1322 L 152 1307 L 243 1286 L 322 1267 L 407 1260 Q 425 1250 422 1217 Q 421 1197 404 1189 L 387 1185 Z" fill="rgb(140,119,63)" fill-opacity="1.000"></path><path d="M 244 1204 L 225 1205 L 195 1206 L 63 1218 Q 76 1221 99 1221 Q 125 1221 165 1217 L 244 1204 Z M 222 1220 L 165 1225 Q 102 1225 81 1242 L 167 1239 L 197 1234 Q 218 1230 222 1220 Z" fill="rgb(198,170,99)" fill-opacity="1.000"></path><path d="M 541 0 L 408 12 L 287 27 L 163 46 Q 82 63 86 80 Q 90 103 209 133 Q 322 163 424 163 Q 439 163 454 162 Q 479 161 510 161 Q 583 161 692 166 Q 775 170 833 170 Q 874 170 903 168 Q 936 165 977 146 Q 1015 128 1035 128 Q 1093 128 1115 91 Q 1139 50 992 29 L 773 9 L 541 0 Z" fill="rgb(128,88,36)" fill-opacity="1.000"></path><path d="M 392 1185 Q 389 1191 389 1211 L 360 1219 L 393 1217 L 381 1234 Q 388 1241 399 1243 L 397 1246 L 404 1249 L 386 1252 L 368 1255 L 376 1255 L 311 1263 L 243 1272 L 249 1269 L 219 1268 L 244 1259 L 197 1263 L 149 1270 L 209 1273 L 176 1277 L 142 1283 Q 147 1289 172 1291 L 78 1308 L 46 1315 L 41 1322 L 152 1307 L 243 1286 L 322 1267 L 407 1260 Q 425 1250 422 1217 Q 420 1188 392 1185 Z" fill="rgb(117,98,53)" fill-opacity="1.000"></path><path d="M 336 1198 L 299 1203 L 276 1203 Q 258 1204 255 1212 L 290 1210 L 255 1221 Q 261 1222 268 1222 Q 311 1222 372 1199 L 336 1198 Z" fill="rgb(198,170,99)" fill-opacity="1.000"></path><path d="M 556 12 L 433 21 L 322 33 L 207 48 Q 134 62 137 75 Q 141 93 250 117 Q 357 140 454 140 Q 465 140 476 140 Q 497 139 524 139 Q 591 139 695 143 L 889 144 Q 920 142 957 127 Q 993 113 1011 113 Q 1064 113 1084 84 Q 1107 51 971 34 L 770 18 L 556 12 Z" fill="rgb(171,144,80)" fill-opacity="1.000"></path><path d="M 503 25 L 461 26 L 419 29 L 453 29 L 503 25 Z M 608 38 L 662 43 L 692 43 L 608 38 Z M 571 30 L 490 31 L 460 37 L 420 44 L 414 47 L 545 36 L 571 30 Z M 306 59 L 276 63 L 295 72 Q 300 68 312 66 L 365 61 L 376 60 L 341 61 L 306 59 Z M 698 37 L 713 42 L 718 44 L 722 46 L 752 51 L 828 57 L 905 60 Q 939 60 938 70 L 923 77 L 913 84 L 912 85 L 936 78 Q 950 71 946 63 L 931 60 L 915 56 L 824 51 L 772 43 L 766 41 L 733 38 L 698 37 Z M 295 72 Q 289 75 290 80 L 299 85 L 311 86 L 384 95 L 323 81 L 295 72 Z M 640 83 L 653 89 L 635 95 L 644 95 Q 665 94 671 83 L 671 83 L 656 84 L 640 83 Z M 470 76 L 460 78 L 478 91 L 500 94 L 522 93 L 594 96 L 635 95 L 611 95 L 483 83 L 470 76 Z M 394 32 L 379 34 L 298 43 L 223 51 Q 182 60 175 67 Q 166 77 178 82 L 202 88 L 226 97 L 249 107 L 241 103 L 219 92 L 201 77 Q 195 61 230 59 L 275 59 L 339 46 L 394 32 Z M 273 97 Q 278 105 312 107 L 326 108 L 312 105 L 273 97 Z M 912 85 L 907 86 L 864 100 L 793 108 L 664 108 L 744 111 L 836 107 L 869 101 L 901 90 L 912 85 Z M 591 106 L 555 111 L 515 108 L 435 108 L 490 111 L 551 113 L 583 115 Q 606 115 610 108 L 591 106 Z M 490 115 L 493 123 L 538 128 L 572 128 L 490 115 Z M 249 107 Q 313 135 375 135 L 565 135 L 513 132 L 458 131 L 383 128 L 308 116 L 251 107 Z M 829 34 L 785 35 L 723 35 L 749 38 L 777 36 L 820 36 L 961 55 L 1014 60 Q 1032 65 1028 74 L 1004 84 L 953 102 L 929 113 L 902 117 L 836 128 L 767 132 L 710 135 L 818 135 L 884 133 L 925 116 L 971 105 Q 997 99 1014 87 L 1035 75 Q 1049 66 1048 58 L 1029 52 L 1009 48 L 945 43 L 873 36 L 829 34 Z" fill="rgb(150,123,62)" fill-opacity="1.000"></path><path d="M 315 48 L 412 60 L 408 59 L 315 48 Z M 619 31 Q 599 55 600 70 L 601 69 L 608 65 Q 619 52 619 31 Z M 424 38 Q 423 38 422 38 L 462 55 L 501 71 L 516 71 L 448 46 Q 432 38 424 38 Z M 784 43 L 755 49 L 735 50 L 715 52 L 686 58 L 628 76 Q 631 76 633 76 Q 657 76 701 61 L 797 43 Z M 412 60 L 468 71 L 528 78 L 445 60 Z M 738 81 L 770 90 L 812 92 L 886 94 L 871 92 L 738 81 Z M 427 82 L 373 86 L 297 87 L 221 93 Q 244 97 272 97 Q 307 97 351 91 L 427 82 Z" fill="rgb(150,123,62)" fill-opacity="1.000"></path><path d="M 750 67 L 748 67 L 748 67 L 769 68 L 750 67 Z M 656 63 L 706 69 L 748 67 L 748 67 L 656 63 Z M 453 61 L 416 65 Q 398 69 396 76 L 401 75 L 433 73 L 466 61 Z M 779 70 L 791 76 L 793 80 L 801 78 L 787 71 L 779 70 Z M 663 75 L 695 81 L 716 81 Q 713 77 692 76 L 663 75 Z M 716 81 L 716 83 L 701 90 L 683 94 L 715 94 Q 737 91 743 82 L 716 81 Z M 860 79 L 839 82 L 819 85 L 824 86 L 822 95 L 833 92 Q 855 86 860 79 Z M 396 76 Q 379 79 376 89 L 439 101 L 416 96 Q 399 90 396 84 L 396 76 Z" fill="rgb(150,123,62)" fill-opacity="1.000"></path></g></g></g></g></g></g><defs><defs></defs><radialGradient r="1" cx="0" cy="0" gradientUnits="userSpaceOnUse" gradientTransform="matrix(-563.25 0 0 -179 639 4198)" id=":0"><stop offset="0" stop-color="rgb(0,0,0)" stop-opacity="0.518"></stop><stop offset="1" stop-color="rgb(0,0,0)" stop-opacity="0.000"></stop></radialGradient></defs></svg>