<svg color-interpolation-filters="sRGB" fill-rule="evenodd" pointer-events="none" width="100%" height="100%" xmlns="http://www.w3.org/2000/svg" xmlns:xlink="http://www.w3.org/1999/xlink" style="-webkit-user-select: none;"><g transform="matrix(0.04983748645720477 0 0 0.04983748645720477 0 0.033586132177681804)"><g><rect x="0" y="-0.6739130434782675" width="1846" height="722.3478260869565" fill="rgb(255,255,255)"></rect><g><g><g><g><path d="M 730 124 L 734 125 L 734 124 Z M 672 151 L 650 163 L 660 164 L 678 167 L 673 156 L 672 151 Z M 1409 50 L 1395 62 L 1377 73 L 1355 78 L 1327 104 L 1301 132 L 1295 101 L 1267 98 L 1266 115 Q 1266 162 1282 182 L 1298 169 L 1320 146 L 1354 107 Q 1362 101 1363 91 L 1388 95 L 1399 98 L 1413 98 L 1401 84 L 1416 62 L 1409 50 Z M 1584 176 Q 1577 183 1573 193 L 1598 215 L 1608 225 L 1608 224 Q 1603 217 1606 208 L 1584 176 Z M 1816 168 Q 1810 168 1801 176 L 1784 191 L 1746 216 L 1746 217 L 1790 219 Q 1787 239 1767 262 L 1761 269 L 1758 293 Q 1799 271 1815 245 L 1826 210 L 1826 207 Q 1831 177 1821 170 Q 1819 168 1816 168 Z M 636 170 L 606 187 L 663 208 L 685 214 L 720 224 L 740 232 L 755 229 L 768 229 L 772 237 Q 772 244 775 245 Q 789 257 830 275 L 871 292 L 887 297 L 889 297 L 914 295 L 905 258 Q 902 241 910 220 Q 928 195 930 178 L 930 175 L 901 197 L 893 214 L 867 262 L 841 251 L 814 249 Q 806 248 798 240 L 783 234 L 763 217 L 747 222 L 719 211 Q 703 201 671 186 L 636 170 Z M 1476 311 L 1464 314 Q 1469 339 1505 359 L 1533 372 L 1567 383 Q 1585 386 1592 393 L 1587 375 Q 1580 368 1568 368 L 1549 367 L 1552 360 L 1542 361 L 1523 354 L 1510 351 L 1485 323 L 1476 311 Z M 401 310 L 360 341 L 368 356 L 377 351 L 373 368 L 381 386 L 386 411 L 401 376 Q 413 337 401 310 Z M 1639 374 L 1630 377 L 1615 399 Q 1607 412 1601 412 Q 1600 412 1599 412 L 1599 412 L 1603 439 L 1621 434 L 1648 422 Q 1661 412 1663 396 L 1665 374 Z M 72 387 L 62 388 Q 33 397 36 414 Q 38 424 55 448 L 59 448 Q 43 433 40 416 L 40 416 L 88 417 L 88 417 L 86 411 L 83 403 L 72 387 Z M 950 391 L 933 396 Q 922 404 905 437 L 898 450 L 934 423 L 954 416 L 957 416 L 957 414 L 950 391 Z M 106 572 L 105 574 L 107 572 Z M 987 506 L 985 511 L 982 520 L 1023 533 L 1007 561 Q 997 570 973 574 Q 982 589 963 589 Q 960 589 956 589 L 944 586 L 923 599 L 942 610 L 985 609 Q 1008 599 1026 574 L 1058 530 L 1020 521 Q 999 516 987 506 Z M 300 528 L 294 529 L 290 529 L 288 530 L 285 530 L 275 533 L 273 534 L 267 536 L 258 554 Q 245 565 227 570 L 187 578 L 166 580 L 164 579 L 157 579 L 137 590 Q 114 604 97 606 L 95 598 L 92 607 L 81 636 L 73 666 L 85 663 L 97 653 Q 121 637 152 619 Q 177 604 207 588 L 259 559 Q 283 546 300 528 Z M 878 652 L 864 657 L 853 660 L 867 676 Q 877 686 887 689 L 892 658 L 893 654 L 886 662 L 878 652 Z M 736 625 L 728 637 Q 712 667 702 702 Q 735 699 774 670 L 787 660 L 768 652 L 760 641 L 753 630 L 736 625 Z" fill="rgb(58,77,13)" fill-opacity="1.000"></path><path d="M 1363 91 Q 1362 101 1354 107 L 1320 146 L 1298 169 L 1295 201 Q 1312 195 1332 162 Q 1352 126 1367 116 Q 1370 113 1385 109 L 1399 98 L 1388 95 L 1363 91 Z M 685 214 L 680 218 L 830 275 Q 789 257 775 245 Q 772 244 772 237 L 768 229 L 755 229 L 740 232 L 720 224 L 685 214 Z M 935 169 L 930 175 L 930 178 Q 928 195 910 220 Q 902 241 905 258 L 914 295 L 889 297 L 897 305 L 910 311 Q 925 311 929 285 Q 929 254 932 245 L 958 187 L 935 169 Z M 1826 210 L 1815 245 Q 1799 271 1758 293 L 1751 310 Q 1740 330 1719 346 L 1680 371 L 1665 374 L 1663 396 Q 1661 412 1648 422 L 1621 434 L 1624 452 Q 1626 452 1627 452 Q 1647 452 1670 421 L 1707 372 L 1712 378 L 1724 361 Q 1730 351 1739 346 Q 1744 344 1753 344 Q 1762 344 1774 346 L 1808 344 Q 1800 336 1797 324 Q 1795 309 1799 300 Q 1803 287 1824 275 Q 1842 263 1845 248 Q 1851 218 1831 211 L 1826 210 Z M 1533 372 L 1522 403 L 1523 463 L 1565 430 L 1597 410 Q 1593 406 1592 395 L 1592 393 Q 1585 386 1567 383 L 1533 372 Z M 1004 425 Q 996 425 987 429 L 994 450 Q 996 475 987 507 Q 999 517 1020 522 L 1058 531 L 1026 575 Q 1008 600 985 610 L 942 611 L 923 600 L 919 602 L 911 604 L 904 625 L 893 655 L 892 659 Q 898 657 903 657 Q 908 657 911 660 L 917 633 L 949 648 L 953 632 L 953 616 Q 960 617 967 617 Q 1015 617 1053 564 L 1084 517 Q 1103 486 1106 468 Q 1103 467 1100 467 Q 1085 467 1061 479 Q 1036 490 1024 490 Q 1021 490 1019 489 Q 1023 481 1020 460 L 1019 430 Q 1013 427 1005 427 Z M 854 663 L 844 665 L 819 689 Q 825 694 833 694 Q 847 694 868 679 L 854 663 Z M 418 516 L 368 528 L 313 529 L 311 530 L 310 530 L 301 531 Q 284 549 260 562 L 208 591 Q 178 607 153 622 Q 142 683 151 724 L 182 659 Q 203 618 229 612 L 277 611 Q 309 608 303 584 Q 334 571 390 565 L 478 552 Q 448 529 418 516 Z" fill="rgb(34,45,6)" fill-opacity="1.000"></path><path d="M 1395 62 L 1387 65 L 1362 69 Q 1354 72 1330 86 Q 1311 99 1295 101 L 1301 132 L 1327 104 L 1355 78 L 1377 73 L 1395 62 Z M 620 163 L 636 170 L 671 186 Q 703 201 719 211 L 747 222 L 763 217 L 764 216 L 760 213 Q 744 201 733 198 L 697 187 Q 685 182 678 167 L 660 164 L 650 163 Z M 901 197 L 898 199 L 872 215 L 862 216 L 857 218 L 829 229 L 826 231 L 808 241 L 798 240 L 798 240 Q 806 248 814 249 L 841 251 L 867 262 L 893 214 L 901 197 Z M 1746 217 L 1754 233 L 1761 269 L 1767 262 Q 1787 239 1790 219 L 1746 217 Z M 377 351 L 368 356 L 373 368 L 377 351 Z M 1583 354 L 1563 357 L 1552 360 L 1549 367 L 1568 368 Q 1580 368 1587 375 L 1592 393 L 1592 395 Q 1593 406 1597 410 L 1599 412 Q 1600 412 1601 412 Q 1607 412 1615 399 L 1630 377 L 1639 374 L 1601 373 L 1607 367 L 1602 363 L 1583 354 Z M 40 416 Q 43 433 59 448 Q 63 448 66 448 Q 83 448 87 439 Q 91 432 88 417 L 40 416 Z M 802 465 L 818 472 L 818 469 L 802 465 Z M 374 485 L 356 503 L 340 517 L 333 521 L 336 520 Q 369 508 435 499 L 387 488 L 374 485 Z M 982 520 L 971 549 L 948 583 L 944 586 L 956 589 Q 960 589 963 589 Q 982 589 973 574 Q 997 570 1007 561 L 1023 533 L 982 520 Z M 107 572 L 105 574 L 105 575 L 104 576 L 95 598 L 97 606 Q 114 604 137 590 L 157 579 L 126 574 L 107 572 Z M 898 601 L 896 602 Q 892 611 893 623 L 887 645 L 878 652 L 886 662 L 893 654 L 904 624 L 911 603 L 905 601 Z" fill="rgb(47,63,9)" fill-opacity="1.000"></path><path d="M 1332 33 L 1303 34 Q 1294 36 1290 40 L 1284 48 L 1283 51 L 1301 45 Q 1306 48 1310 48 Q 1321 48 1332 33 Z M 854 121 L 804 124 L 820 128 L 801 127 Q 788 127 788 132 Q 786 139 799 147 L 818 156 L 848 154 Q 863 146 850 130 L 854 121 Z M 1610 291 L 1625 293 L 1628 292 L 1610 291 Z M 208 432 L 212 456 L 177 461 Q 178 470 203 479 L 239 487 Q 268 483 262 458 Q 256 433 226 433 Q 225 433 224 433 L 208 432 Z M 865 525 L 845 527 Q 825 535 821 552 L 811 569 L 838 572 Q 850 568 856 552 Q 863 558 870 558 Q 877 558 883 552 L 887 549 L 887 548 Q 891 540 880 531 Q 875 527 868 526 L 866 525 Z" fill="rgb(182,132,35)" fill-opacity="1.000"></path><path d="M 800 42 L 815 57 L 819 64 L 823 54 L 800 42 Z M 787 45 L 786 60 L 795 62 L 815 70 L 817 68 L 787 45 Z M 1270 1 Q 1257 4 1236 23 L 1225 33 Q 1203 58 1237 82 L 1267 98 L 1295 101 Q 1311 99 1330 86 Q 1354 72 1362 69 L 1387 65 L 1395 62 L 1409 50 L 1410 49 Q 1415 39 1408 27 Q 1398 6 1366 4 L 1338 7 L 1363 10 Q 1378 10 1384 19 L 1355 37 L 1326 45 L 1296 58 L 1264 59 L 1284 48 L 1290 40 L 1272 22 L 1297 27 L 1320 23 L 1338 7 L 1337 7 L 1308 5 L 1270 1 Z M 790 10 Q 781 10 775 17 L 771 23 L 794 15 L 795 29 Q 800 26 806 26 Q 815 26 825 35 Q 843 48 837 63 L 829 58 L 844 85 Q 853 103 861 103 Q 864 103 867 100 L 868 99 Q 863 77 845 51 Q 822 18 801 12 Q 795 10 790 10 Z M 738 41 L 714 46 Q 688 52 686 69 Q 686 80 709 97 Q 732 112 734 124 L 734 125 L 730 124 L 700 112 Q 681 104 673 104 Q 669 104 668 106 L 666 119 L 715 129 L 720 131 L 718 135 L 763 150 Q 758 143 747 139 L 728 126 L 764 142 L 798 147 L 752 121 Q 718 99 718 85 L 718 85 L 758 102 Q 750 91 750 81 L 750 81 L 790 95 L 779 72 L 770 60 L 739 54 L 748 46 L 739 41 Z M 819 160 L 817 161 L 817 161 L 826 161 L 826 161 L 826 161 L 819 161 Z M 841 161 L 826 161 L 826 161 L 826 161 L 838 162 L 860 161 Z M 817 162 L 803 162 L 789 165 L 788 166 L 804 165 L 809 165 L 817 162 Z M 888 22 Q 884 22 880 25 Q 867 33 867 55 L 870 96 L 872 76 L 876 49 L 893 63 L 875 43 Q 876 37 885 33 L 884 29 L 884 29 Q 903 35 907 63 L 907 95 L 908 104 Q 908 139 880 156 Q 870 166 851 167 L 808 166 L 792 177 L 765 195 L 766 192 L 740 187 L 746 160 L 765 165 L 782 169 L 783 169 L 744 155 L 714 139 L 710 140 L 723 148 Q 741 160 734 175 L 707 164 L 714 159 L 669 140 L 682 136 L 672 129 L 665 124 L 671 153 L 672 158 L 677 169 Q 684 184 696 189 L 732 200 Q 743 203 759 215 L 763 218 L 792 214 Q 794 202 802 202 Q 803 202 803 202 L 815 202 L 822 193 L 816 183 Q 820 178 824 178 Q 826 178 828 179 L 841 184 L 856 178 L 869 169 L 904 157 Q 927 151 937 141 L 937 141 L 932 152 Q 917 183 897 201 L 900 199 L 929 177 L 934 171 L 935 168 Q 949 148 944 133 L 924 96 Q 914 81 907 60 L 906 38 Q 897 22 888 22 Z M 1617 206 L 1605 210 Q 1602 219 1607 226 L 1612 215 L 1614 212 L 1617 206 Z M 861 218 L 861 218 Q 849 219 843 223 L 828 231 L 856 220 L 861 218 Z M 1668 122 Q 1666 122 1664 122 Q 1654 123 1648 130 L 1665 128 L 1669 131 L 1668 136 Q 1666 136 1664 136 Q 1643 136 1633 174 L 1628 191 Q 1616 231 1601 239 L 1607 227 L 1597 217 L 1572 195 L 1568 193 Q 1561 191 1556 191 Q 1538 191 1545 217 L 1500 212 L 1477 214 L 1492 213 L 1522 219 L 1516 216 L 1568 225 L 1529 231 L 1490 233 L 1524 239 L 1559 241 L 1540 248 L 1520 252 L 1543 267 L 1473 273 L 1502 281 L 1527 287 L 1511 291 L 1497 295 L 1537 301 L 1536 296 L 1559 290 Q 1539 283 1532 271 L 1532 271 L 1549 272 L 1567 271 L 1554 259 L 1583 256 L 1585 236 L 1590 240 L 1592 236 Q 1595 247 1604 247 Q 1612 247 1624 239 Q 1649 221 1645 205 L 1645 205 L 1652 229 Q 1650 215 1656 202 Q 1659 196 1662 196 Q 1666 196 1671 204 Q 1677 213 1673 232 L 1668 261 L 1693 254 L 1681 267 L 1671 279 Q 1689 287 1699 297 L 1708 310 Q 1720 288 1720 257 L 1710 169 L 1720 163 Q 1698 122 1668 122 Z M 1539 304 L 1529 319 L 1544 322 L 1536 330 L 1589 327 L 1588 324 L 1566 326 Q 1563 326 1560 326 Q 1550 326 1546 321 Q 1556 313 1576 307 L 1576 307 L 1551 309 L 1539 304 Z M 1639 320 L 1629 330 L 1619 339 L 1612 327 L 1590 335 L 1590 332 L 1558 347 L 1522 356 L 1541 363 L 1551 362 L 1562 359 L 1582 356 L 1601 365 L 1606 369 Q 1617 359 1641 352 L 1687 334 L 1697 325 L 1674 322 L 1639 320 Z M 278 396 L 275 397 L 275 403 L 278 396 Z M 114 338 L 123 375 Q 129 398 127 413 L 100 383 L 104 397 L 109 428 L 82 405 L 85 413 L 87 419 Q 90 434 86 441 Q 82 450 65 450 Q 62 450 58 450 L 54 450 L 49 449 L 8 452 L 2 460 Q 2 460 2 460 L 2 460 L 79 473 L 108 470 Q 111 470 114 470 Q 141 470 149 486 Q 164 484 168 478 Q 177 464 162 439 Q 152 417 137 407 L 137 407 L 189 422 L 170 400 Q 153 389 150 379 L 150 379 L 183 395 Q 183 387 173 374 L 162 358 L 165 384 Q 145 377 114 338 Z M 151 495 L 151 496 L 123 505 L 165 500 L 151 495 Z M 147 258 Q 130 258 114 267 Q 65 292 70 311 Q 48 311 57 343 L 58 346 Q 57 335 59 323 L 85 306 Q 90 291 109 285 L 141 282 Q 162 284 168 294 L 176 328 L 188 342 Q 210 370 218 374 L 202 371 L 162 329 L 158 328 L 161 355 L 202 390 L 203 375 Q 234 412 237 435 L 253 405 L 267 373 L 275 397 L 280 385 L 280 380 L 281 382 Q 279 372 287 355 L 281 338 Q 263 353 251 386 L 258 325 L 267 317 L 294 313 L 296 313 L 297 306 L 298 314 Q 307 315 312 320 L 319 337 Q 328 360 323 386 Q 317 417 293 417 Q 293 398 302 377 L 302 377 L 283 393 L 279 413 L 257 441 Q 280 440 292 424 L 292 424 Q 296 434 290 444 L 285 462 L 305 453 L 322 440 L 323 443 L 327 439 L 346 426 L 344 429 L 350 422 L 343 408 L 360 401 L 350 422 L 346 438 Q 339 456 322 461 L 344 429 L 340 433 L 324 446 Q 328 467 280 479 Q 279 491 270 501 L 308 505 Q 330 501 345 489 Q 376 464 379 408 L 386 434 L 385 413 L 380 388 L 372 370 L 367 358 L 359 343 L 353 334 L 334 299 Q 322 279 306 276 Q 303 276 301 276 Q 285 276 267 291 Q 250 306 247 326 L 241 339 Q 222 297 190 273 Q 168 258 147 258 Z M 289 531 L 284 532 L 287 532 L 289 531 Z M 284 532 L 283 532 L 283 532 L 284 532 Z M 283 532 L 270 535 L 267 538 L 267 538 L 272 536 L 274 535 L 283 532 Z M 266 538 L 265 538 L 265 539 L 266 538 Z M 1 460 Q -7 475 6 504 Q 19 536 40 551 L 44 554 L 158 537 L 182 523 L 186 529 L 181 542 Q 174 556 138 563 L 140 563 L 195 557 Q 222 554 226 539 L 234 507 L 240 513 Q 237 502 226 502 Q 225 502 224 502 L 198 507 L 205 503 L 98 511 L 69 511 L 87 504 L 87 504 Q 80 506 73 506 Q 56 506 38 496 L 67 487 L 54 483 L 52 483 L 1 460 Z M 265 539 L 250 551 L 231 568 L 225 572 Q 243 567 256 556 L 265 539 Z M 781 570 L 781 580 L 799 573 L 781 570 Z M 182 580 L 162 581 L 164 582 L 185 580 Z M 742 490 L 772 501 L 731 539 Q 740 552 770 558 L 729 568 Q 736 582 758 589 L 712 583 L 693 593 Q 716 530 742 490 Z M 875 461 L 889 480 L 892 466 Q 904 472 901 489 Q 926 470 940 470 L 928 492 L 949 479 L 940 495 L 924 510 L 949 508 L 949 508 Q 945 520 929 523 L 950 524 L 970 525 Q 958 543 931 549 L 884 550 L 884 551 Q 892 562 879 586 L 868 577 L 859 564 L 850 591 L 844 573 L 835 599 Q 829 616 819 620 L 829 589 L 812 597 L 820 586 L 794 588 L 768 586 L 781 580 L 768 564 L 781 570 L 784 564 Q 790 566 795 566 Q 805 566 813 560 L 802 548 Q 791 544 787 540 L 802 534 L 818 529 L 799 511 L 780 493 L 811 501 Q 816 503 820 503 Q 830 503 836 491 L 840 525 L 849 508 Q 854 523 863 527 L 865 528 Q 872 508 875 461 Z M 872 408 Q 850 408 835 425 Q 813 433 815 454 L 816 471 L 816 474 L 800 467 L 783 458 L 768 455 L 752 457 L 723 475 Q 695 504 686 550 Q 677 602 712 621 L 732 626 L 734 627 L 751 632 L 758 643 L 766 654 L 785 662 L 797 665 L 841 664 L 851 662 L 862 659 L 876 654 L 885 647 L 891 625 Q 890 613 894 604 L 896 603 L 903 603 L 909 605 L 917 603 L 921 601 L 942 588 L 946 585 L 969 551 L 980 522 L 983 513 L 985 508 Q 994 476 992 451 L 985 430 Q 977 418 960 418 Q 958 418 955 418 L 952 418 L 932 425 L 896 452 L 889 454 L 894 437 Q 900 419 896 416 L 879 408 Q 876 408 872 408 Z" fill="rgb(143,125,190)" fill-opacity="1.000"></path><path d="M 1338 7 L 1320 23 L 1297 27 L 1272 22 L 1290 40 Q 1294 36 1303 34 L 1332 33 L 1332 33 Q 1321 48 1310 48 Q 1305 48 1301 45 L 1283 51 L 1284 48 L 1264 59 L 1296 58 L 1326 45 L 1355 37 L 1384 19 Q 1378 10 1363 10 L 1338 7 Z M 854 121 L 850 130 Q 863 146 848 154 L 818 156 L 799 147 Q 786 139 788 132 Q 788 127 801 127 L 820 128 L 804 124 L 854 121 Z M 877 47 L 873 74 L 871 94 L 868 99 L 867 100 Q 864 103 861 103 Q 853 103 844 85 L 829 58 L 823 54 L 819 64 L 823 73 L 817 68 L 815 70 L 795 62 L 786 60 L 785 65 L 775 62 L 770 60 L 779 72 L 790 95 L 750 81 L 750 81 Q 750 91 758 102 L 718 85 L 718 85 Q 718 99 752 121 L 798 147 L 764 142 L 728 126 L 747 139 Q 758 143 763 150 L 718 135 L 715 137 L 745 153 L 784 167 L 788 165 L 789 164 L 803 161 L 841 160 L 861 160 L 866 159 L 882 151 L 886 141 L 897 136 L 882 151 L 881 154 Q 909 137 909 102 L 908 93 L 906 99 L 894 61 L 877 47 Z M 747 158 L 741 185 L 767 190 Q 773 174 779 169 L 783 167 L 766 163 L 747 158 Z M 938 139 Q 928 149 905 155 L 870 167 L 857 176 L 842 182 L 829 177 Q 827 176 825 176 Q 821 176 817 181 L 823 191 L 816 200 L 804 200 Q 803 200 803 200 Q 795 200 793 212 L 764 216 L 763 217 L 783 234 L 798 240 L 808 241 L 826 231 L 829 229 L 844 221 Q 850 217 862 216 L 872 215 L 898 199 Q 918 181 933 150 L 938 139 Z M 1636 258 L 1652 261 L 1656 265 L 1643 290 Q 1634 302 1616 302 Q 1613 302 1610 302 L 1625 293 L 1610 291 L 1597 291 L 1569 287 L 1589 283 L 1604 276 L 1581 274 L 1604 271 Q 1620 269 1624 262 L 1636 258 Z M 298 304 L 297 311 L 299 312 L 298 304 Z M 177 326 L 177 330 L 163 327 L 203 369 L 219 372 Q 211 368 189 340 L 177 326 Z M 1723 160 L 1721 161 L 1711 167 L 1721 255 Q 1721 286 1709 308 L 1700 295 Q 1690 285 1672 277 L 1682 265 L 1694 252 L 1669 259 L 1674 230 Q 1678 211 1672 202 Q 1667 194 1663 194 Q 1660 194 1657 200 Q 1651 213 1653 227 L 1646 203 L 1646 203 Q 1650 219 1625 237 Q 1613 245 1605 245 Q 1596 245 1593 234 L 1591 238 L 1586 234 L 1584 254 L 1555 257 L 1568 269 L 1550 270 L 1533 269 L 1533 269 Q 1540 281 1560 288 L 1537 294 L 1538 299 L 1541 299 L 1540 302 L 1552 307 L 1577 305 L 1577 305 Q 1557 311 1547 319 Q 1551 324 1561 324 Q 1564 324 1567 324 L 1589 322 L 1590 325 L 1603 323 L 1591 330 L 1591 333 L 1613 325 L 1620 337 L 1630 328 L 1640 318 L 1675 320 L 1698 323 L 1688 332 L 1642 350 Q 1618 357 1607 367 L 1601 373 L 1639 374 L 1665 374 L 1680 371 L 1719 346 Q 1740 330 1751 310 L 1758 293 L 1761 269 L 1754 233 L 1746 217 L 1746 216 L 1736 195 L 1729 176 L 1723 160 Z M 288 353 Q 280 370 282 380 L 286 366 L 288 353 Z M 281 378 L 281 383 L 282 380 L 281 378 Z M 208 432 L 224 433 Q 225 433 226 433 Q 256 433 262 458 Q 268 483 239 487 L 203 479 Q 178 470 177 461 L 212 456 L 208 432 Z M 374 485 L 387 488 L 435 499 Q 369 508 336 520 L 333 521 L 340 517 L 356 503 L 374 485 Z M 877 459 Q 874 506 867 526 Q 874 527 879 531 Q 890 540 886 548 L 933 547 Q 960 541 972 523 L 952 522 L 931 521 Q 947 518 951 506 L 951 506 L 926 508 L 942 493 L 951 477 L 930 490 L 942 468 Q 928 468 903 487 Q 906 470 894 464 L 891 478 L 877 459 Z M 770 562 L 783 578 L 783 568 L 770 562 Z M 162 353 L 163 356 L 174 372 Q 184 385 184 393 L 151 377 L 151 377 Q 154 387 171 398 L 190 420 L 138 405 L 138 405 Q 153 415 163 437 Q 178 462 169 476 Q 165 482 150 484 L 152 493 L 166 498 L 124 503 L 100 509 L 207 501 L 200 505 L 226 500 Q 227 500 228 500 Q 239 500 242 511 L 236 505 L 228 537 Q 224 552 197 555 L 142 561 L 140 561 L 138 562 L 114 562 L 71 563 L 67 566 L 106 572 L 107 572 L 126 574 L 157 579 L 164 579 L 184 578 L 187 578 L 227 570 L 233 566 L 252 549 L 271 533 L 290 529 L 294 529 L 300 528 L 309 527 L 310 527 L 312 526 L 367 525 L 417 513 L 429 509 L 506 493 Q 484 471 425 445 L 389 438 L 387 432 L 380 406 Q 377 462 346 487 Q 331 499 309 503 L 271 499 Q 280 489 281 477 Q 329 465 325 444 L 325 444 L 309 453 L 324 441 L 323 438 L 306 451 L 286 460 L 291 442 Q 297 432 293 422 L 293 422 Q 281 438 258 439 L 280 411 L 284 391 L 279 394 L 276 401 L 276 395 L 268 371 L 254 403 L 238 433 Q 235 410 204 373 L 203 388 L 162 353 Z M 838 489 Q 832 501 822 501 Q 818 501 813 499 L 782 491 L 801 509 L 820 527 L 804 532 L 789 538 Q 793 542 804 546 L 815 558 Q 807 564 797 564 Q 792 564 786 562 L 783 568 L 801 571 L 783 578 L 770 584 L 796 586 L 822 584 L 814 595 L 831 587 L 821 618 Q 831 614 837 597 L 846 571 L 852 589 L 861 562 L 870 575 L 881 584 Q 894 560 886 549 L 886 549 L 882 552 Q 876 558 870 558 Q 864 558 857 552 Q 851 568 839 572 L 812 569 L 822 552 Q 826 535 846 527 L 866 525 Q 857 521 852 506 L 843 523 L 839 489 Z" fill="rgb(106,93,142)" fill-opacity="1.000"></path><path d="M 794 15 L 771 23 L 766 25 L 738 41 L 739 41 L 748 46 L 739 54 L 770 60 L 775 62 L 785 65 L 786 60 L 787 45 L 817 68 L 823 73 L 819 64 L 815 57 L 800 42 L 823 54 L 829 58 L 837 63 Q 843 48 825 35 Q 815 26 806 26 Q 800 26 795 29 L 794 15 Z M 885 27 L 886 31 Q 877 35 876 41 L 894 61 L 906 99 L 908 93 L 908 61 Q 904 33 885 27 Z M 897 136 L 886 141 L 882 151 L 897 136 Z M 882 151 L 866 159 L 861 160 L 860 160 L 838 161 L 819 160 L 809 164 L 852 165 Q 871 164 881 154 L 882 151 Z M 663 118 L 666 122 L 673 127 L 683 134 L 670 138 L 715 157 L 708 162 L 735 173 Q 742 158 724 146 L 711 138 L 715 137 L 718 135 L 720 131 L 715 129 L 666 119 L 663 118 Z M 804 164 L 788 165 L 784 167 L 783 167 L 779 169 Q 773 174 767 190 L 766 193 L 793 175 L 809 164 Z M 1666 126 L 1649 128 L 1646 128 L 1640 142 L 1638 148 L 1634 161 L 1618 204 L 1615 210 L 1613 213 L 1608 224 L 1608 225 L 1602 237 Q 1617 229 1629 189 L 1633 175 L 1634 172 Q 1644 134 1665 134 Q 1667 134 1669 134 L 1670 129 L 1666 126 Z M 1636 258 L 1624 262 Q 1620 269 1604 271 L 1581 274 L 1604 276 L 1589 283 L 1569 287 L 1597 291 L 1610 291 L 1628 292 L 1625 293 L 1610 302 Q 1613 302 1616 302 Q 1635 302 1643 290 L 1656 265 L 1652 261 L 1636 258 Z M 1493 211 L 1478 212 Q 1460 214 1455 222 Q 1452 230 1456 256 L 1465 290 L 1476 311 L 1485 323 L 1510 351 L 1523 354 L 1559 345 L 1591 330 L 1603 323 L 1590 325 L 1537 328 L 1545 320 L 1530 317 L 1540 302 L 1541 299 L 1538 299 L 1498 293 L 1512 289 L 1528 285 L 1503 279 L 1474 271 L 1544 265 L 1521 250 L 1541 246 L 1560 239 L 1525 237 L 1491 231 L 1530 229 L 1569 223 L 1517 214 L 1523 217 L 1493 211 Z M 295 311 L 268 315 L 259 323 L 252 384 Q 264 351 282 336 L 288 353 L 286 366 L 282 380 L 281 383 L 276 395 L 279 394 L 284 391 L 303 375 L 303 375 Q 294 396 294 415 Q 318 415 324 384 Q 329 358 320 335 L 313 318 Q 308 313 299 312 L 297 311 Z M 361 399 L 344 406 L 351 420 L 361 399 Z M 142 280 L 110 283 Q 91 289 86 304 L 60 321 Q 58 333 59 344 Q 60 367 72 387 L 83 403 L 110 426 L 105 395 L 101 381 L 128 411 Q 130 396 124 373 L 115 336 L 115 336 Q 146 375 166 382 L 163 356 L 162 353 L 159 326 L 163 327 L 177 330 L 177 326 L 169 292 Q 163 282 142 280 Z M 347 424 L 328 437 L 324 441 L 309 453 L 325 444 L 341 431 L 345 427 L 347 424 Z M 351 420 L 345 427 L 323 459 Q 340 454 347 436 L 351 420 Z M 3 458 L 54 481 L 56 481 L 69 485 L 40 494 Q 58 504 75 504 Q 82 504 89 502 L 89 502 L 71 509 L 100 509 L 124 503 L 152 494 L 152 493 L 150 484 Q 142 468 115 468 Q 112 468 109 468 L 80 471 L 3 458 Z M 184 521 L 160 535 L 46 552 L 41 552 Q 48 561 71 563 L 114 562 L 138 562 L 140 561 Q 176 554 183 540 L 188 527 L 184 521 Z M 744 488 Q 718 528 695 591 L 714 581 L 760 587 Q 738 580 731 566 L 772 556 Q 742 550 733 537 L 774 499 L 744 488 Z" fill="rgb(164,143,218)" fill-opacity="1.000"></path></g></g></g></g></g></g><defs><defs></defs></defs></svg>