<svg color-interpolation-filters="sRGB" fill-rule="evenodd" pointer-events="none" width="100%" height="100%" xmlns="http://www.w3.org/2000/svg" xmlns:xlink="http://www.w3.org/1999/xlink" style="-webkit-user-select: none;"><g transform="matrix(0.049558390578999016 0 0 0.049558390578999016 0 0.20829244357212673)"><g><rect x="0" y="-4.202970297029647" width="2038.0000000000002" height="1291.4059405940595" fill="rgb(255,255,255)"></rect><g><g><g><g><path d="M 1374 120 L 1370 121 L 1374 147 L 1374 120 Z M 1551 128 L 1548 131 Q 1512 176 1484 191 L 1489 191 L 1483 204 Q 1508 184 1533 152 L 1551 128 Z M 827 228 L 805 244 L 802 255 L 827 228 Z M 1471 220 Q 1454 237 1428 247 Q 1396 260 1368 260 Q 1356 260 1344 258 Q 1316 252 1273 225 L 1267 221 L 1251 241 Q 1299 273 1329 279 Q 1340 282 1353 282 Q 1381 282 1413 268 Q 1456 250 1471 220 Z M 910 201 L 891 206 L 884 212 Q 876 240 846 289 L 894 249 L 899 245 L 929 207 L 910 201 Z M 750 275 L 744 278 L 745 311 L 749 287 L 750 275 Z M 607 323 L 611 327 L 612 323 Z M 899 291 L 852 341 L 861 337 Q 897 323 914 298 L 899 291 Z M 1630 301 Q 1620 319 1633 349 L 1678 384 L 1674 375 Q 1658 341 1630 301 Z M 518 368 L 569 400 L 537 370 L 518 368 Z M 1829 286 Q 1813 293 1799 318 L 1785 402 Q 1797 387 1817 325 L 1827 301 L 1829 286 Z M 1775 278 Q 1750 278 1724 353 L 1718 373 Q 1727 401 1728 422 L 1733 415 Q 1752 319 1776 278 Q 1775 278 1775 278 Z M 1554 349 Q 1550 384 1590 427 L 1599 437 L 1624 440 L 1696 457 Q 1657 438 1622 400 L 1606 380 Q 1572 358 1554 349 Z M 1623 458 L 1664 484 L 1591 467 L 1518 465 L 1518 465 Q 1539 478 1594 485 L 1642 496 Q 1685 490 1698 480 Q 1693 475 1676 469 L 1673 468 L 1675 468 L 1626 458 Z M 1998 467 L 1920 517 L 1885 533 L 1902 538 L 1998 467 Z M 1511 540 Q 1487 551 1478 568 Q 1504 580 1564 582 L 1618 585 Q 1652 564 1681 562 L 1596 554 L 1511 540 Z M 1832 578 Q 1853 586 1865 605 L 1873 604 Q 1927 598 1905 579 L 1903 578 Z M 1775 587 L 1748 617 L 1747 618 Q 1772 637 1838 642 Q 1823 614 1799 606 L 1799 606 L 1815 607 Q 1790 600 1775 587 Z M 1736 595 Q 1710 622 1652 634 Q 1621 641 1594 641 Q 1572 641 1553 636 L 1562 628 L 1562 628 Q 1536 646 1520 663 Q 1539 668 1561 668 Q 1588 668 1619 661 Q 1677 649 1702 621 L 1702 621 Q 1691 635 1685 673 L 1715 644 L 1718 640 Q 1724 608 1736 595 Z M 240 666 Q 225 684 224 715 L 251 815 Q 256 793 246 715 L 244 681 L 240 666 Z M 912 711 Q 899 729 900 764 L 933 859 Q 937 840 922 759 L 918 729 L 912 711 Z M 997 838 L 980 880 L 980 890 L 997 838 Z M 719 839 Q 718 861 747 887 L 813 899 L 805 893 Q 771 867 719 839 Z M 505 784 Q 478 837 449 874 L 419 909 L 438 906 Q 474 856 505 784 Z M 855 733 Q 827 744 843 841 L 848 867 L 886 912 L 886 904 Q 867 833 861 794 Q 855 757 855 733 Z M 1186 809 L 1186 809 Q 1165 857 1134 905 L 1107 942 L 1126 938 Q 1161 881 1186 809 Z M 459 949 Q 422 971 385 984 Q 388 984 390 984 Q 411 984 433 998 L 442 992 Q 494 959 462 949 Z M 668 931 Q 681 970 748 994 L 762 999 L 789 988 L 873 966 L 873 966 Q 868 966 864 966 Q 817 966 766 948 L 738 935 L 668 931 Z M 176 941 Q 150 941 110 953 L 105 955 L 162 964 L 77 980 Q 31 992 0 1014 Q 4 1014 8 1014 Q 35 1014 89 998 L 146 987 Q 189 958 197 943 Q 188 941 176 941 Z M 1150 979 L 1079 1019 Q 1084 1018 1089 1018 Q 1107 1018 1126 1029 L 1135 1023 Q 1188 987 1153 979 Z M 329 1021 Q 323 1032 315 1067 L 315 1069 Q 326 1072 339 1072 Q 373 1072 422 1051 Q 398 1029 373 1029 Q 368 1029 364 1030 L 380 1024 L 329 1021 Z M 876 989 Q 869 989 861 991 L 859 992 Q 836 995 803 1007 L 798 1009 L 856 1014 L 772 1036 Q 726 1051 697 1075 Q 699 1075 701 1075 Q 728 1075 785 1054 Q 818 1041 842 1038 Q 881 1008 889 991 Q 884 990 877 990 Z M 1078 1061 L 1027 1062 Q 1020 1078 1016 1109 L 1016 1110 Q 1023 1111 1030 1111 Q 1065 1111 1122 1085 Q 1098 1067 1074 1067 Q 1069 1067 1063 1068 L 1078 1061 Z M 221 1042 Q 194 1047 128 1075 Q 66 1101 31 1102 L 31 1100 Q 11 1122 9 1147 Q 45 1147 106 1121 L 165 1098 Q 192 1057 221 1042 Z M 918 1088 Q 891 1094 827 1127 Q 768 1157 733 1160 L 733 1159 Q 714 1183 715 1207 Q 750 1204 809 1174 Q 842 1157 868 1147 Q 891 1106 918 1088 Z M 292 1052 Q 277 1094 224 1135 Q 172 1176 122 1186 L 127 1171 L 127 1171 Q 111 1200 100 1231 Q 150 1220 203 1181 Q 256 1140 271 1098 L 271 1098 Q 268 1110 270 1127 L 278 1162 L 296 1115 L 298 1108 Q 287 1072 292 1052 Z M 991 1093 L 991 1093 Q 979 1135 928 1180 Q 879 1223 829 1238 L 833 1224 L 833 1224 Q 817 1259 811 1285 Q 861 1270 910 1227 Q 961 1182 973 1138 L 973 1138 Q 969 1160 984 1203 Q 993 1189 998 1156 L 999 1149 Q 986 1114 991 1093 Z" fill="rgb(43,46,16)" fill-opacity="1.000"></path><path d="M 1437 152 L 1424 156 L 1430 164 L 1429 175 L 1437 152 Z M 1341 164 L 1345 179 L 1350 185 L 1350 178 L 1353 168 L 1341 164 Z M 768 368 L 761 376 L 759 389 L 738 395 Q 732 413 714 413 Q 708 413 700 411 L 698 411 L 669 434 L 700 427 L 744 404 L 744 403 L 789 381 L 786 382 L 775 383 L 762 379 L 768 368 Z M 1739 489 L 1744 500 L 1745 498 L 1749 492 L 1739 489 Z M 1742 428 Q 1739 438 1745 459 L 1753 486 L 1756 484 L 1758 484 L 1759 482 Q 1774 484 1781 492 Q 1794 499 1794 512 L 1787 528 L 1787 529 L 1786 529 L 1756 530 Q 1738 521 1742 506 L 1742 506 L 1710 527 L 1731 527 L 1752 528 Q 1747 539 1754 539 L 1764 537 L 1794 539 L 1789 529 Q 1808 524 1818 510 L 1801 508 L 1807 493 L 1796 489 L 1801 476 L 1785 485 Q 1788 469 1783 439 L 1773 458 L 1742 428 Z M 256 930 L 244 932 L 255 942 L 255 938 L 256 930 Z M 945 974 L 934 976 L 945 985 L 945 974 Z M 265 855 L 265 856 L 265 882 L 217 863 L 217 863 Q 220 883 257 923 L 259 918 L 262 916 L 262 914 L 290 915 Q 307 917 313 930 L 313 950 L 314 952 L 313 953 Q 309 968 287 968 Q 284 968 282 968 Q 259 966 256 948 Q 237 971 232 987 L 254 978 Q 266 970 276 968 Q 278 980 282 980 Q 283 980 284 979 L 294 972 Q 312 968 326 960 L 316 951 Q 333 937 337 916 L 337 916 L 319 922 L 317 903 L 304 905 L 303 888 L 290 905 Q 285 884 265 855 Z M 950 898 L 951 900 L 952 925 L 903 910 L 903 910 Q 904 921 924 941 L 947 965 L 948 962 L 951 960 L 951 957 L 979 956 Q 997 958 1003 970 L 1004 990 L 1005 992 L 1004 993 Q 1000 1009 975 1010 L 969 1010 Q 971 1022 975 1022 Q 976 1022 977 1021 L 986 1013 L 1018 999 L 1007 991 Q 1023 978 1026 954 L 1026 954 L 1008 961 L 1006 942 L 992 945 L 990 928 L 978 946 Q 972 926 951 899 L 950 898 Z M 947 993 Q 931 1014 926 1032 L 948 1021 Q 963 1011 969 1010 Q 952 1009 947 993 Z" fill="rgb(69,91,124)" fill-opacity="1.000"></path><path d="M 1426 161 L 1419 166 Q 1421 180 1402 185 L 1371 190 L 1373 200 L 1374 202 L 1383 206 L 1400 203 L 1411 199 L 1422 191 L 1423 191 L 1428 179 L 1426 161 Z M 753 373 Q 701 381 684 391 Q 694 399 726 404 L 741 392 Q 753 383 753 373 Z M 1759 482 L 1758 484 Q 1753 495 1763 511 Q 1774 528 1786 529 L 1787 529 L 1787 528 L 1786 504 L 1781 492 Q 1774 484 1759 482 Z M 262 914 L 262 916 Q 262 931 279 945 Q 291 954 304 954 Q 309 954 313 953 L 314 952 L 313 950 L 301 925 L 290 915 L 262 914 Z M 979 956 L 951 957 L 951 960 Q 953 975 970 987 Q 983 995 994 995 Q 999 995 1004 993 L 1005 992 L 1004 990 L 991 965 Q 987 959 979 956 Z" fill="rgb(205,186,102)" fill-opacity="1.000"></path><path d="M 1390 71 L 1397 107 Q 1401 129 1414 129 L 1432 113 L 1451 93 L 1478 81 L 1463 113 Q 1453 137 1464 142 L 1479 139 L 1556 94 L 1465 167 Q 1463 169 1461 169 Q 1458 169 1457 164 L 1449 155 Q 1437 157 1434 186 L 1428 179 L 1428 183 L 1429 184 L 1427 186 L 1427 187 L 1423 191 L 1422 191 L 1411 199 L 1405 204 L 1400 203 L 1383 206 L 1383 210 L 1363 201 Q 1351 194 1343 192 L 1343 192 L 1355 209 Q 1344 208 1326 193 Q 1309 178 1307 165 L 1307 165 L 1322 184 Q 1316 164 1328 132 L 1351 84 L 1364 151 Q 1368 152 1371 152 Q 1386 152 1389 123 L 1390 71 Z M 1398 0 Q 1377 22 1375 70 L 1374 120 L 1374 147 L 1370 121 L 1353 26 Q 1339 42 1328 77 L 1309 131 Q 1284 127 1260 103 L 1260 103 Q 1263 126 1280 167 L 1246 176 L 1207 179 L 1273 225 Q 1316 252 1344 258 Q 1356 260 1368 260 Q 1397 260 1428 247 Q 1454 237 1471 220 L 1483 204 L 1489 191 L 1484 191 Q 1512 176 1548 131 L 1551 128 L 1552 126 Q 1583 85 1593 55 Q 1590 55 1587 55 Q 1564 55 1530 83 L 1474 131 Q 1474 118 1489 89 Q 1504 60 1503 42 L 1503 42 Q 1486 46 1459 71 Q 1430 97 1418 101 L 1398 0 Z M 1663 274 Q 1650 298 1677 345 L 1703 393 L 1702 389 L 1702 389 Q 1713 421 1728 422 Q 1727 401 1718 373 L 1707 348 Q 1691 314 1663 274 Z M 830 272 Q 830 287 820 301 L 838 301 L 856 296 L 811 348 L 819 355 L 828 359 Q 813 373 789 381 L 744 403 L 744 404 L 734 414 L 679 448 Q 657 461 640 461 Q 629 461 619 455 L 640 441 L 598 409 L 666 412 Q 663 396 631 370 L 584 333 L 633 349 Q 638 334 625 298 L 625 298 L 666 331 L 693 355 L 708 351 L 708 299 L 728 323 L 748 350 L 764 326 L 768 300 L 769 315 Q 767 326 774 331 L 803 303 L 830 272 Z M 1676 469 L 1684 472 L 1684 472 Q 1680 471 1676 469 Z M 1587 322 Q 1583 347 1606 380 L 1622 400 Q 1657 438 1696 457 L 1624 440 L 1599 437 L 1551 438 Q 1570 451 1623 458 L 1626 458 L 1675 468 L 1718 476 Q 1719 458 1692 432 L 1650 394 L 1650 394 Q 1674 400 1706 421 L 1705 410 L 1678 384 L 1633 349 L 1587 322 Z M 803 149 Q 800 149 796 150 Q 770 158 758 223 L 749 287 L 745 311 L 744 278 L 734 231 Q 719 177 698 162 Q 679 180 680 224 L 682 293 L 639 250 Q 613 221 593 214 L 593 214 L 604 240 L 599 241 Q 608 257 613 283 Q 616 307 612 323 L 611 327 L 607 323 L 558 281 L 500 244 L 500 244 Q 499 273 530 313 L 576 378 Q 562 364 533 348 L 486 321 L 537 370 L 569 400 L 605 435 Q 602 435 599 435 Q 583 435 560 427 L 513 418 L 513 418 Q 620 492 685 492 Q 709 492 727 482 L 726 465 L 746 468 L 727 482 Q 732 515 758 530 Q 774 519 781 477 Q 790 434 802 420 Q 816 404 856 387 Q 892 373 909 348 Q 900 341 885 341 Q 883 341 881 341 L 849 344 L 907 282 Q 944 241 942 211 L 942 211 L 899 245 L 894 249 L 846 289 Q 876 240 884 212 Q 892 182 880 166 L 827 228 L 802 255 L 805 244 L 818 189 Q 823 149 803 149 Z M 1808 251 Q 1792 251 1776 278 Q 1752 319 1733 415 Q 1770 354 1778 326 L 1778 326 L 1763 384 Q 1753 435 1767 443 L 1783 439 L 1797 421 L 1818 384 L 1802 453 Q 1804 454 1807 454 Q 1817 454 1831 444 L 1905 390 L 1857 446 L 1837 467 L 1820 489 L 1860 487 L 1902 484 L 1875 503 Q 1860 515 1846 517 L 1856 527 L 1871 533 L 1848 533 L 1826 530 L 1800 536 L 1807 543 Q 1797 558 1786 558 Q 1777 558 1767 549 L 1762 567 L 1747 548 L 1720 569 L 1690 584 Q 1714 560 1718 546 Q 1713 545 1705 545 Q 1697 545 1687 547 L 1655 548 L 1609 537 Q 1617 532 1667 525 Q 1711 518 1718 504 Q 1726 492 1705 481 L 1684 473 L 1684 473 Q 1694 477 1698 481 Q 1685 491 1642 497 L 1599 501 Q 1530 507 1512 541 L 1511 541 L 1596 555 L 1681 563 Q 1652 565 1618 586 L 1611 590 Q 1584 607 1562 629 L 1553 637 Q 1572 642 1594 642 Q 1621 642 1652 635 Q 1710 623 1736 596 L 1736 596 Q 1724 609 1718 641 L 1717 647 L 1747 619 L 1748 618 L 1775 588 Q 1790 601 1815 608 L 1870 616 L 1865 606 Q 1853 587 1832 579 L 1903 579 L 1906 578 Q 1959 572 1937 553 Q 1931 547 1902 539 L 1885 534 L 1920 518 L 1998 468 L 2038 435 Q 2025 431 2009 431 Q 1978 431 1933 447 L 1858 477 L 1842 482 L 1866 470 Q 1892 453 1918 421 L 1981 330 L 1981 330 Q 1925 338 1838 417 L 1808 445 L 1812 439 Q 1829 408 1843 355 L 1862 259 L 1862 259 Q 1842 268 1827 302 L 1817 326 Q 1797 388 1785 403 L 1799 319 L 1810 252 Q 1809 252 1808 252 Z M 59 735 Q 57 769 108 806 L 159 847 L 156 842 L 156 842 Q 178 866 194 866 Q 197 866 200 865 L 166 819 L 141 795 Q 111 768 59 735 Z M 737 793 Q 735 825 790 860 L 844 896 L 841 892 L 856 906 Q 869 914 879 914 Q 883 914 886 913 L 848 868 L 823 847 Q 789 821 737 793 Z M 873 990 Q 873 990 873 990 Q 867 990 860 991 L 873 990 L 873 990 Z M 686 885 Q 696 914 738 936 L 766 949 Q 817 967 864 967 Q 869 967 873 967 L 873 967 L 789 989 L 762 1000 Q 732 1013 714 1028 Q 716 1028 719 1028 Q 745 1028 797 1009 L 802 1007 Q 835 995 858 992 L 860 991 Q 880 982 905 976 Q 894 954 854 944 L 790 927 L 862 924 L 855 913 L 813 900 L 747 888 L 686 885 Z M 261 621 Q 244 641 244 682 L 246 716 Q 256 794 251 816 L 224 716 L 203 639 Q 184 645 181 684 L 181 685 Q 179 714 183 746 L 201 857 Q 209 763 205 733 L 205 733 L 218 807 Q 231 867 251 868 Q 252 868 253 868 Q 260 868 265 857 L 265 856 L 272 830 L 276 780 L 293 863 Q 307 860 319 839 L 371 743 L 371 743 Q 363 764 348 828 L 336 861 Q 328 884 329 893 L 370 872 Q 399 851 413 848 L 413 848 L 394 882 Q 384 903 370 911 L 386 917 L 404 917 L 380 927 L 355 936 L 331 955 L 342 959 Q 337 986 316 986 Q 310 986 303 984 L 303 984 L 305 1007 Q 291 994 281 993 L 263 1030 L 239 1060 Q 252 1027 249 1005 L 249 1005 Q 238 1007 217 1020 L 183 1037 L 130 1048 L 184 1007 Q 227 978 228 959 Q 229 943 204 940 L 164 942 L 215 929 Q 207 908 166 894 L 104 872 L 175 875 L 170 864 Q 151 854 127 848 L 64 832 L 2 824 L 2 824 Q 11 854 51 879 L 78 893 Q 133 916 183 919 L 99 935 L 21 969 L 105 956 L 110 954 Q 150 942 176 942 Q 188 942 197 944 Q 189 959 146 988 L 102 1014 Q 34 1053 29 1099 L 29 1101 Q 64 1100 126 1074 Q 192 1046 219 1041 L 219 1041 Q 190 1056 163 1097 L 158 1104 L 125 1170 L 120 1185 Q 170 1175 222 1134 Q 275 1093 290 1051 L 290 1051 Q 285 1071 296 1107 L 298 1115 L 315 1070 L 315 1068 Q 323 1033 329 1022 L 380 1025 L 444 1007 L 433 999 Q 412 985 390 985 Q 387 985 385 985 Q 422 972 459 950 L 463 947 Q 516 915 483 905 L 483 905 L 438 907 L 419 910 L 449 875 Q 478 838 505 785 L 531 727 L 531 727 Q 485 730 427 791 L 359 862 L 369 848 Q 387 817 399 770 L 421 639 L 421 639 Q 383 665 346 734 L 295 850 L 296 840 Q 299 767 261 621 Z M 930 665 Q 915 686 918 730 L 922 760 Q 937 841 933 860 L 900 765 L 873 687 Q 855 695 855 734 Q 855 758 861 795 Q 867 834 886 905 Q 888 809 882 780 L 882 780 L 900 853 Q 918 912 936 912 Q 936 912 937 912 Q 946 912 951 901 L 950 899 L 951 900 Q 959 877 955 822 L 955 822 L 978 904 Q 992 899 1002 878 L 1048 780 L 1048 780 Q 1040 810 1031 866 L 1021 899 L 1017 931 Q 1031 930 1056 908 Q 1083 886 1097 881 L 1097 881 L 1080 916 L 1058 947 L 1074 952 L 1093 951 L 1093 951 Q 1086 957 1069 963 L 1045 973 L 1023 993 L 1034 996 Q 1032 1026 1007 1026 Q 1002 1026 996 1025 L 996 1025 L 1001 1047 Q 984 1036 976 1035 L 960 1072 L 938 1105 Q 948 1071 944 1049 L 944 1049 Q 933 1052 913 1066 L 881 1086 L 829 1100 Q 833 1092 879 1055 Q 918 1024 920 1004 Q 921 989 895 987 L 873 990 L 873 990 Q 874 990 876 990 Q 883 990 889 992 Q 881 1009 842 1039 L 799 1069 Q 732 1112 732 1159 L 732 1160 Q 767 1157 826 1127 Q 890 1094 917 1088 L 917 1088 Q 890 1106 867 1147 L 861 1156 Q 841 1194 832 1224 L 828 1238 Q 878 1223 927 1180 Q 978 1135 990 1093 L 990 1093 Q 985 1114 998 1149 L 1001 1156 Q 1010 1142 1015 1110 L 1015 1109 Q 1019 1078 1026 1062 L 1077 1061 L 1139 1039 L 1127 1031 Q 1108 1020 1090 1020 Q 1085 1020 1080 1021 L 1151 981 L 1154 978 Q 1207 942 1172 934 L 1172 934 L 1127 940 L 1108 944 L 1135 907 Q 1166 859 1187 811 L 1208 753 L 1208 753 Q 1164 760 1108 825 L 1046 898 L 1054 884 Q 1070 854 1079 806 L 1092 674 L 1092 674 Q 1057 700 1024 773 L 981 892 L 981 882 Q 979 803 931 666 Z" fill="rgb(135,177,244)" fill-opacity="1.000"></path><path d="M 1428 179 L 1423 191 L 1427 187 L 1427 186 L 1428 183 L 1428 179 Z M 1387 150 Q 1361 154 1353 168 L 1350 178 L 1350 185 Q 1352 197 1369 200 L 1373 200 L 1371 190 L 1402 185 Q 1421 180 1419 166 L 1426 161 L 1428 179 L 1429 175 L 1430 164 L 1424 156 L 1409 150 Z M 753 373 Q 753 383 741 392 L 726 404 Q 694 399 684 391 Q 701 381 753 373 Z M 708 351 L 693 355 Q 678 362 674 378 L 674 387 L 674 389 Q 675 404 698 411 L 700 411 Q 708 413 714 413 Q 732 413 738 395 L 759 389 L 761 376 Q 760 356 725 351 Z M 1781 492 L 1786 504 L 1787 528 L 1794 512 Q 1794 499 1781 492 Z M 1756 484 L 1753 486 L 1749 492 L 1745 498 L 1744 500 L 1742 506 Q 1738 521 1756 530 L 1786 529 Q 1774 528 1763 511 Q 1753 495 1758 484 Z M 290 915 L 301 925 L 313 950 L 313 930 Q 307 917 290 915 Z M 262 916 L 259 918 L 257 923 L 256 930 L 255 938 L 255 942 L 256 948 Q 259 966 282 968 Q 285 968 287 968 Q 309 968 313 953 L 313 953 Q 308 954 304 954 Q 292 954 279 945 Q 262 931 262 916 Z M 979 956 Q 987 959 991 965 L 1004 990 L 1003 970 Q 997 958 979 956 Z M 951 960 L 948 962 L 947 965 L 945 974 L 945 985 L 947 993 Q 952 1009 969 1010 L 975 1010 Q 1000 1009 1004 993 L 1004 993 Q 999 995 994 995 Q 983 995 970 987 Q 953 975 951 960 Z" fill="rgb(229,208,115)" fill-opacity="1.000"></path><path d="M 1411 199 L 1400 203 L 1405 204 L 1411 199 Z M 1390 71 L 1389 123 Q 1386 152 1371 152 Q 1368 152 1364 151 L 1351 84 L 1328 132 Q 1316 164 1322 184 L 1307 165 L 1307 165 Q 1309 178 1326 193 Q 1344 208 1355 209 L 1343 192 L 1343 192 Q 1351 194 1363 201 L 1383 210 L 1383 206 L 1374 202 L 1373 202 L 1369 200 Q 1352 197 1350 185 L 1345 179 L 1341 164 L 1353 168 Q 1361 154 1387 150 L 1407 150 L 1408 147 L 1409 150 L 1424 156 L 1437 152 L 1429 175 L 1428 179 L 1434 186 Q 1437 157 1449 155 L 1457 164 Q 1459 169 1461 169 Q 1463 169 1465 167 L 1556 94 L 1479 139 L 1464 142 Q 1453 137 1463 113 L 1478 81 L 1451 93 L 1432 113 L 1414 129 Q 1401 129 1397 107 L 1390 71 Z M 830 272 L 803 303 L 774 331 Q 767 326 769 315 L 768 300 L 764 326 L 748 350 L 728 323 L 708 299 L 708 351 L 725 351 Q 760 356 761 376 L 768 368 L 762 379 L 775 383 L 786 382 L 789 381 Q 813 373 828 359 L 819 355 L 811 348 L 856 296 L 838 301 L 820 301 Q 830 287 830 272 Z M 625 298 Q 638 334 633 349 L 584 333 L 631 370 Q 663 396 666 412 L 598 409 L 640 441 L 619 455 Q 628 461 640 461 Q 657 461 679 448 L 734 414 L 744 404 L 700 427 L 669 434 L 698 411 Q 675 404 674 389 L 663 384 L 674 387 L 674 378 Q 678 362 693 355 L 666 331 L 625 298 Z M 1778 326 Q 1770 354 1733 415 L 1728 422 Q 1713 421 1702 389 L 1702 389 L 1703 393 L 1705 410 L 1706 421 Q 1674 400 1650 394 L 1650 394 L 1692 432 Q 1719 458 1718 476 L 1675 468 L 1673 468 L 1676 469 L 1705 480 Q 1726 491 1718 503 Q 1711 517 1667 524 Q 1617 531 1609 536 L 1655 547 L 1687 546 Q 1698 545 1705 545 Q 1713 545 1718 547 Q 1714 561 1690 585 L 1720 570 L 1747 549 L 1762 568 L 1767 550 Q 1777 559 1786 559 Q 1798 559 1807 544 L 1800 537 L 1826 531 L 1848 534 L 1871 534 L 1856 528 L 1846 518 Q 1860 516 1875 504 L 1902 485 L 1860 488 L 1820 490 L 1837 468 L 1857 447 L 1905 391 L 1831 445 Q 1817 455 1807 455 Q 1804 455 1802 454 L 1818 385 L 1797 422 L 1783 440 Q 1788 470 1785 486 L 1801 477 L 1796 490 L 1807 494 L 1801 509 L 1818 511 Q 1808 525 1789 530 L 1794 540 L 1764 538 L 1754 540 Q 1747 540 1752 529 L 1731 528 L 1710 528 L 1742 507 L 1744 501 L 1739 490 L 1749 493 L 1753 487 L 1745 460 Q 1739 439 1742 429 L 1742 429 L 1773 459 L 1783 440 L 1767 444 Q 1753 436 1763 385 L 1778 327 Z M 205 733 Q 209 763 201 857 L 200 865 Q 197 866 194 866 Q 178 866 156 842 L 156 842 L 170 864 L 175 875 L 104 872 L 166 894 Q 207 908 215 929 L 164 942 L 204 940 Q 229 943 228 959 Q 227 978 184 1007 L 130 1048 L 183 1037 L 217 1020 Q 238 1007 249 1005 L 249 1005 Q 252 1027 239 1060 L 263 1030 L 281 993 Q 291 994 305 1007 L 303 984 L 303 984 Q 310 986 316 986 Q 337 986 342 959 L 331 955 L 355 936 L 380 927 L 404 917 L 386 917 L 370 911 Q 384 903 394 882 L 413 848 L 413 848 Q 399 851 370 872 L 329 893 Q 328 884 336 861 L 348 828 Q 363 764 371 743 L 371 743 L 319 839 Q 307 860 293 863 L 276 780 L 272 830 L 265 856 Q 285 885 290 906 L 303 889 L 304 906 L 317 904 L 319 923 L 337 917 L 337 917 Q 333 938 316 952 L 326 961 Q 312 969 294 973 L 284 980 Q 283 981 282 981 Q 278 981 276 969 Q 266 971 254 979 L 232 988 Q 237 972 256 949 L 255 943 L 244 933 L 256 931 L 257 924 Q 220 884 217 864 L 217 864 L 265 883 L 265 857 Q 260 868 253 868 Q 252 868 251 868 Q 231 867 218 807 L 205 733 Z M 1048 780 L 1002 878 Q 992 899 978 904 L 955 822 L 955 822 Q 959 877 951 900 Q 972 927 978 947 L 990 929 L 992 946 L 1006 943 L 1008 962 L 1026 955 L 1026 955 Q 1023 979 1007 992 L 1018 1000 L 986 1014 L 977 1022 Q 976 1023 975 1023 Q 971 1023 969 1011 Q 963 1012 948 1022 L 926 1033 Q 931 1015 947 994 L 945 986 L 934 977 L 945 975 L 947 966 L 924 942 Q 904 922 903 911 L 903 911 L 952 926 L 951 901 Q 946 912 937 912 Q 937 912 936 912 Q 917 912 900 853 L 882 780 L 882 780 Q 888 809 886 905 L 886 913 Q 883 914 879 914 Q 869 914 856 906 L 841 892 L 844 896 L 855 913 L 862 924 L 790 927 L 854 944 Q 894 954 905 976 Q 880 982 860 991 L 895 987 Q 921 989 920 1004 Q 918 1024 879 1055 Q 833 1092 829 1100 L 881 1086 L 913 1066 Q 933 1052 944 1049 L 944 1049 Q 948 1071 938 1105 L 960 1072 L 976 1035 Q 984 1036 1001 1047 L 996 1025 L 996 1025 Q 1002 1026 1007 1026 Q 1031 1026 1034 996 L 1023 993 L 1045 973 L 1069 963 Q 1086 957 1093 951 L 1093 951 L 1074 952 L 1058 947 L 1080 916 L 1097 881 L 1097 881 Q 1083 886 1056 908 Q 1031 930 1017 931 L 1021 899 L 1031 866 Q 1040 810 1048 780 Z" fill="rgb(93,121,167)" fill-opacity="1.000"></path></g></g></g></g></g></g><defs><defs></defs></defs></svg>