<svg color-interpolation-filters="sRGB" fill-rule="evenodd" pointer-events="none" width="100%" height="100%" xmlns="http://www.w3.org/2000/svg" xmlns:xlink="http://www.w3.org/1999/xlink" style="-webkit-user-select: none;"><g transform="matrix(0.04886561954624782 0 0 0.04886561954624782 0.7460732984293159 0)"><g><rect x="-15.267857142857071" y="0" width="1698.5357142857144" height="573" fill="rgb(255,255,255)"></rect><g><g><g><g><path d="M 262 137 L 257 148 L 251 167 Q 235 215 236 227 L 269 166 Q 271 146 262 137 Z M 395 210 L 395 210 Q 354 229 328 248 L 373 240 Q 395 223 395 210 Z M 303 150 L 303 151 Q 300 183 270 254 L 269 259 L 270 259 Q 284 244 302 230 Q 328 156 303 150 Z M 991 258 L 990 270 L 1056 274 L 1066 276 Q 1045 265 1008 260 L 991 258 Z M 649 214 L 708 254 L 655 274 L 714 284 L 756 268 L 687 219 L 649 214 Z M 20 203 Q 35 250 59 288 L 76 290 L 55 266 Q 36 241 20 203 Z M 427 262 L 380 268 L 357 277 L 276 294 L 339 303 L 360 308 L 368 305 Q 418 287 427 262 Z M 738 294 Q 749 302 760 324 L 785 306 Q 776 297 766 297 L 738 294 Z M 845 316 L 829 322 L 834 326 Q 857 338 894 347 L 899 348 L 883 340 L 845 316 Z M 285 309 L 263 310 Q 269 320 297 338 L 340 344 L 404 352 Q 385 338 350 332 L 287 323 L 332 316 L 328 315 L 288 309 Z M 32 319 L 28 320 Q -7 327 38 351 L 46 355 Q 71 343 91 343 Q 93 343 94 343 L 32 319 Z M 139 368 L 91 372 L 105 376 Q 103 376 100 376 Q 75 376 46 395 L 144 403 L 144 402 L 139 368 Z M 1516 408 L 1510 434 L 1520 409 L 1516 408 Z M 232 377 Q 253 386 271 414 L 315 427 Q 354 439 380 439 Q 384 439 387 439 Q 390 421 375 408 L 375 409 Q 372 409 368 409 Q 342 409 304 396 Q 256 379 232 377 Z M 1346 390 L 1354 409 Q 1374 446 1393 470 L 1389 455 L 1394 457 Q 1371 437 1346 390 Z M 170 387 L 170 387 Q 171 398 156 429 L 156 435 Q 156 456 164 469 L 177 441 L 182 421 Q 188 449 228 477 Q 268 502 308 507 Q 305 486 294 465 L 294 465 L 296 475 Q 254 469 216 444 Q 176 417 170 387 Z M 1400 484 L 1400 484 Q 1409 520 1449 546 Q 1491 573 1530 573 Q 1561 572 1613 550 L 1602 527 L 1595 529 L 1519 549 Q 1481 549 1439 522 Q 1412 503 1400 484 Z" fill="rgb(43,46,16)" fill-opacity="1.000"></path><path d="M 384 183 L 384 183 Q 335 204 302 230 Q 284 244 270 259 L 293 254 L 294 254 L 297 252 L 305 244 L 302 248 L 343 224 Q 384 201 384 183 Z M 416 235 L 373 240 L 328 248 L 293 259 L 287 265 L 341 264 L 292 277 Q 260 286 249 301 L 287 309 L 288 309 L 328 315 L 332 316 L 392 323 Q 380 314 360 308 L 339 303 L 276 294 L 357 277 L 380 268 Q 410 253 416 235 Z M 830 0 Q 832 48 824 141 Q 808 122 796 89 L 776 32 Q 767 58 770 89 L 783 146 Q 754 144 736 118 L 706 67 L 706 67 Q 723 101 752 206 Q 693 156 630 156 Q 626 156 623 156 L 685 218 L 687 219 L 756 268 L 714 284 L 703 288 L 738 294 L 766 297 Q 776 297 785 306 Q 797 315 809 337 Q 822 325 829 322 L 845 316 L 883 340 L 899 348 L 942 361 L 1003 360 Q 974 350 957 332 L 1009 328 Q 1063 318 1121 293 Q 1103 283 1066 276 L 1056 274 L 990 270 L 991 258 Q 997 240 1029 222 L 1092 185 Q 1087 175 1070 175 Q 1056 175 1034 182 L 967 208 Q 976 188 1016 154 Q 1053 120 1056 100 L 1056 100 L 983 122 Q 939 139 925 162 Q 962 130 989 124 L 989 124 L 959 153 Q 937 171 931 187 L 960 167 L 960 167 Q 950 189 950 197 L 983 181 L 941 217 Q 909 240 912 252 L 965 233 L 925 265 Q 933 284 980 287 L 1047 288 Q 1017 302 969 305 Q 924 305 891 293 L 875 281 Q 874 278 869 278 L 866 290 L 854 275 L 841 263 L 840 261 Q 839 261 837 261 Q 828 261 819 266 Q 818 253 810 253 Q 807 253 803 255 L 799 239 Q 790 240 785 244 Q 787 230 772 227 L 748 219 L 768 218 L 790 222 L 778 188 L 806 199 L 803 184 L 798 169 L 828 181 L 828 150 L 853 187 Q 860 140 857 114 L 857 114 L 863 139 L 874 162 L 890 118 L 890 158 L 888 199 Q 903 181 923 165 Q 906 143 918 96 L 946 29 L 946 29 Q 925 37 901 68 Q 878 96 875 123 L 830 1 Z M 251 111 Q 204 194 196 243 L 195 250 L 184 211 Q 160 137 121 113 L 119 197 Q 122 228 134 249 L 138 256 L 91 209 Q 49 167 6 164 L 6 164 L 20 204 Q 36 242 55 267 L 76 291 L 59 289 L 16 288 L 16 288 Q -20 295 27 318 L 32 320 L 94 344 Q 93 344 91 344 Q 71 344 46 356 L 34 362 L 91 373 L 139 369 L 144 403 L 144 404 Q 145 424 152 437 L 156 430 Q 171 399 170 388 L 170 388 Q 176 418 216 445 Q 254 470 296 476 L 294 466 Q 288 442 274 420 L 271 415 Q 253 387 232 378 L 232 378 Q 256 380 304 397 Q 343 410 368 410 Q 371 410 375 410 L 375 409 Q 378 379 328 355 L 297 339 Q 269 321 263 311 L 285 310 L 257 308 Q 236 309 235 321 Q 235 334 265 353 Q 300 374 303 379 L 262 374 Q 253 373 236 364 Q 219 354 211 354 Q 207 370 213 393 L 197 372 L 186 347 L 175 351 L 163 357 L 169 341 L 169 341 Q 163 342 157 342 Q 138 342 138 324 L 148 321 L 130 308 L 110 303 L 89 296 L 106 295 L 121 291 L 104 271 L 93 248 L 93 248 Q 107 250 127 264 Q 149 278 159 278 L 159 257 L 154 235 L 147 180 L 165 221 L 177 242 L 195 258 L 220 205 L 217 237 Q 217 262 228 262 Q 244 260 262 224 L 281 181 L 281 181 Q 275 196 270 255 Q 300 184 303 152 L 303 151 Q 305 127 292 124 L 269 167 L 236 228 Q 235 216 251 168 L 257 149 Q 261 123 251 111 Z M 1341 348 L 1397 396 Q 1415 413 1422 413 Q 1423 413 1423 413 Q 1436 410 1430 385 L 1421 351 L 1421 351 Q 1428 353 1445 367 L 1460 390 L 1475 409 Q 1477 409 1478 409 Q 1489 409 1496 391 L 1510 358 L 1500 409 Q 1497 441 1516 441 Q 1518 441 1519 441 L 1545 377 L 1558 429 Q 1564 462 1554 481 L 1573 466 L 1573 466 Q 1570 477 1549 489 L 1518 500 L 1532 486 L 1511 490 L 1490 495 L 1491 492 L 1474 485 L 1469 485 L 1465 479 L 1457 471 L 1454 467 L 1451 464 L 1449 461 L 1451 459 L 1451 456 L 1444 462 Q 1447 432 1435 429 Q 1434 429 1434 429 Q 1431 429 1426 436 L 1417 437 L 1341 348 Z M 1515 286 L 1476 382 L 1442 344 Q 1420 316 1404 308 L 1404 308 Q 1401 328 1409 356 Q 1419 388 1416 400 L 1370 343 Q 1339 303 1313 303 Q 1320 336 1336 370 L 1343 386 L 1346 391 Q 1371 438 1394 458 L 1389 456 L 1393 471 L 1400 485 Q 1412 504 1439 523 Q 1481 550 1519 550 L 1595 530 L 1602 528 L 1668 498 L 1631 488 Q 1607 482 1599 472 L 1631 414 L 1631 414 Q 1600 432 1578 432 L 1569 376 Q 1566 338 1554 320 L 1520 410 L 1510 435 L 1525 359 Q 1534 313 1515 286 Z" fill="rgb(178,88,79)" fill-opacity="1.000"></path><path d="M 857 113 Q 860 139 853 186 L 828 149 L 828 180 L 798 168 L 803 183 L 806 198 L 778 187 L 790 221 L 768 217 L 748 218 L 772 226 Q 787 229 785 243 Q 790 239 799 238 L 803 254 Q 807 253 810 253 Q 819 253 819 267 Q 828 262 837 262 Q 838 262 840 262 L 814 240 Q 809 234 809 215 L 834 212 Q 847 209 836 193 Q 845 193 851 204 L 859 222 L 868 194 L 875 219 L 892 197 L 892 197 Q 895 204 886 216 L 880 227 L 881 227 L 893 232 L 920 215 L 904 231 L 899 239 L 903 249 L 905 248 L 903 250 L 904 255 L 903 263 L 901 263 L 896 284 L 923 295 Q 891 291 877 280 L 870 278 L 869 279 Q 874 279 875 282 L 891 294 Q 924 306 969 306 Q 1017 303 1047 289 L 980 288 Q 933 285 925 266 L 965 234 L 912 253 Q 909 241 941 218 L 983 182 L 950 198 Q 950 190 960 168 L 960 168 L 931 188 Q 937 172 959 154 L 989 125 L 989 125 Q 962 131 925 163 L 923 165 Q 903 181 888 199 L 890 158 L 890 118 L 874 162 L 863 139 L 857 114 Z M 218 254 L 215 271 L 256 260 L 237 281 L 217 298 L 217 303 L 226 304 L 216 312 L 214 316 Q 227 329 228 342 L 211 336 Q 202 330 194 330 L 186 338 L 178 333 L 152 326 L 162 319 Q 149 308 149 295 L 149 295 L 164 299 L 168 286 L 180 287 L 183 275 L 191 287 Q 197 275 218 254 Z M 147 180 L 154 235 L 159 257 L 159 278 Q 149 278 127 264 Q 107 250 93 248 L 93 248 L 104 271 L 121 291 L 106 295 L 89 296 L 110 303 L 130 308 L 148 321 L 138 324 Q 138 342 157 342 Q 162 342 169 341 L 169 341 L 163 357 L 175 351 L 186 347 L 197 372 L 213 393 Q 207 370 211 354 Q 219 354 236 364 Q 253 373 262 374 L 303 379 Q 300 374 265 353 Q 235 334 235 321 Q 236 309 257 308 L 285 310 L 287 310 L 249 302 Q 260 287 292 278 L 341 265 L 287 266 L 293 260 L 305 245 L 297 253 L 294 255 L 293 255 L 270 260 L 269 260 L 270 255 Q 275 196 281 181 L 281 181 L 262 224 Q 244 260 228 262 Q 217 262 217 237 L 220 205 L 195 258 L 177 242 L 165 221 L 147 180 Z M 1341 348 L 1417 437 L 1426 436 Q 1431 429 1434 429 Q 1435 429 1435 429 Q 1447 432 1444 462 L 1451 456 L 1452 451 L 1448 428 Q 1449 428 1450 428 Q 1456 428 1461 434 L 1476 432 L 1477 429 L 1479 432 L 1498 436 Q 1524 445 1527 460 L 1539 458 L 1533 472 L 1527 477 Q 1524 487 1509 488 L 1501 490 L 1500 490 L 1491 492 L 1490 495 L 1511 490 L 1532 486 L 1518 500 L 1549 489 Q 1570 477 1573 466 L 1573 466 L 1554 481 Q 1564 462 1558 429 L 1545 377 L 1519 441 Q 1517 441 1516 441 Q 1498 441 1500 409 L 1510 358 L 1496 391 Q 1490 409 1478 409 Q 1476 409 1475 409 L 1460 390 L 1445 367 Q 1428 353 1421 351 L 1421 351 L 1430 385 Q 1436 410 1423 413 Q 1422 413 1422 413 Q 1415 413 1397 396 L 1341 348 Z" fill="rgb(138,68,61)" fill-opacity="1.000"></path><path d="M 920 214 L 893 231 L 899 238 L 904 230 L 920 214 Z M 836 192 Q 847 208 834 211 L 809 214 Q 809 233 814 239 L 840 261 L 841 263 L 854 275 L 866 290 L 869 278 L 870 277 L 865 276 Q 850 269 839 256 L 824 228 L 873 227 L 880 226 L 886 215 Q 895 203 892 196 L 892 196 L 875 218 L 868 193 L 859 221 L 851 203 Q 845 192 836 192 Z M 877 279 Q 891 290 923 294 L 896 283 L 895 284 L 877 279 Z M 217 302 L 216 308 L 216 311 L 226 303 L 217 302 Z M 218 253 Q 197 274 191 286 L 183 274 L 180 286 L 168 285 L 164 298 L 149 294 L 149 294 Q 149 307 162 318 L 152 325 L 178 332 L 186 337 L 194 329 Q 202 329 211 335 L 228 341 Q 227 328 214 315 Q 208 328 188 329 Q 185 329 182 329 Q 167 329 165 320 L 164 319 L 165 318 L 165 316 L 168 303 Q 175 295 188 293 L 213 292 L 213 293 L 215 294 L 217 297 L 237 280 L 256 259 L 215 270 L 218 253 Z M 1477 428 L 1476 431 L 1479 431 L 1477 428 Z M 1450 427 Q 1449 427 1448 427 L 1452 450 L 1452 440 L 1461 433 Q 1456 427 1450 427 Z M 1539 457 L 1527 459 L 1528 469 L 1527 476 L 1533 471 L 1539 457 Z" fill="rgb(84,42,38)" fill-opacity="1.000"></path><path d="M 873 227 Q 873 227 872 227 L 872 227 L 873 227 Z M 872 227 L 824 228 L 839 256 Q 850 269 865 276 L 870 277 L 877 279 L 895 284 L 896 283 L 901 262 L 871 256 L 843 237 Q 864 227 872 227 Z M 188 293 Q 175 295 168 303 L 165 316 L 165 318 L 179 299 L 188 293 Z M 213 293 Q 211 303 194 313 L 165 320 Q 167 329 182 329 Q 185 329 188 329 Q 208 328 214 315 L 216 311 L 216 308 L 217 302 L 217 297 L 215 294 L 213 293 Z M 1476 431 L 1461 433 L 1452 440 L 1452 450 L 1451 455 L 1451 458 L 1451 463 L 1454 466 L 1456 468 L 1453 454 L 1457 438 L 1463 444 Q 1460 457 1475 466 L 1491 473 L 1497 475 L 1505 477 L 1502 487 L 1509 487 Q 1524 486 1527 476 L 1528 469 L 1527 459 Q 1524 444 1498 435 L 1479 431 Z" fill="rgb(192,151,86)" fill-opacity="1.000"></path><path d="M 880 226 L 873 227 Q 865 227 843 237 L 871 256 L 901 262 L 903 262 L 904 254 L 903 249 L 903 248 L 899 238 L 893 231 L 881 226 Z M 213 292 L 188 293 L 179 299 L 165 318 L 164 319 L 165 320 L 194 313 Q 211 303 213 293 L 213 292 Z M 1457 438 L 1453 454 L 1456 468 L 1457 470 L 1465 478 L 1472 483 L 1474 484 L 1491 491 L 1500 489 L 1502 487 L 1505 477 L 1497 475 L 1491 473 L 1475 466 Q 1460 457 1463 444 L 1457 438 Z" fill="rgb(144,109,63)" fill-opacity="1.000"></path></g></g></g></g></g></g><defs><defs></defs></defs></svg>