<svg color-interpolation-filters="sRGB" fill-rule="evenodd" pointer-events="none" width="100%" height="100%" xmlns="http://www.w3.org/2000/svg" xmlns:xlink="http://www.w3.org/1999/xlink" style="-webkit-user-select: none;"><g transform="matrix(0.04911323328785812 0 0 0.04911323328785812 0.6903137789904434 0)"><g><rect x="-14.055555555555419" y="0" width="2036.111111111111" height="733" fill="rgb(255,255,255)"></rect><g><g><g><g><path d="M 651 30 L 639 41 L 656 63 L 662 73 L 663 72 Q 660 64 664 59 L 651 30 Z M 839 64 Q 835 64 828 67 L 812 76 L 778 88 L 778 90 L 812 99 Q 806 115 787 129 L 781 133 L 775 151 Q 813 141 829 124 L 843 98 L 844 96 Q 852 73 846 67 Q 844 64 840 64 Z M 534 117 Q 533 134 559 159 L 580 174 L 606 188 L 625 202 L 623 185 Q 620 179 609 177 L 594 172 L 597 168 L 589 167 L 576 159 L 565 154 Q 558 150 549 127 L 544 117 Z M 1426 82 L 1412 93 L 1394 105 L 1372 110 Q 1358 116 1344 136 L 1318 164 Q 1312 149 1312 132 L 1284 129 L 1283 147 Q 1282 192 1299 214 L 1315 201 L 1336 178 L 1371 139 L 1380 123 L 1405 127 L 1415 130 L 1430 129 L 1418 116 L 1433 94 L 1426 82 Z M 667 194 L 658 195 L 643 209 Q 635 218 630 218 Q 629 218 628 217 L 627 216 L 626 238 L 642 237 L 666 233 L 682 215 L 687 198 L 668 194 Z M 1609 271 Q 1580 271 1577 289 Q 1576 296 1586 327 L 1590 328 Q 1579 309 1581 291 L 1581 291 Q 1603 293 1627 306 L 1627 299 L 1626 291 L 1619 271 Z M 1957 284 L 1909 304 L 1913 320 L 1923 317 L 1915 333 L 1917 352 L 1915 379 L 1940 348 Q 1961 313 1957 284 Z M 130 394 L 127 395 L 130 395 L 130 394 Z M 68 420 L 47 432 L 56 433 L 73 436 L 69 425 L 68 420 Z M 963 422 Q 958 422 950 428 Q 936 439 922 469 L 916 481 L 929 471 L 951 455 Q 967 448 971 448 L 974 448 L 974 446 L 967 423 Q 965 422 963 422 Z M 1911 405 L 1908 424 Q 1903 437 1891 443 L 1886 445 L 1886 446 L 1896 453 L 1940 476 L 1839 470 L 1836 470 L 1821 471 L 1814 470 L 1814 470 Q 1832 482 1868 483 L 1919 485 L 1932 484 L 2010 489 Q 1995 460 1944 421 Q 1932 412 1911 405 Z M 1775 467 L 1768 468 L 1762 474 L 1754 482 L 1720 489 L 1683 487 L 1680 487 L 1659 483 L 1657 481 L 1652 480 L 1628 486 L 1586 490 L 1586 483 L 1581 490 L 1562 515 L 1547 542 L 1560 542 L 1573 535 Q 1605 525 1635 518 L 1696 502 L 1754 488 L 1803 468 L 1800 467 Z M 32 441 L 2 457 L 59 477 L 81 483 L 116 493 L 136 502 L 151 499 L 164 499 L 167 506 L 171 515 Q 186 528 226 544 L 245 552 L 267 562 L 281 566 L 310 564 L 300 528 Q 298 507 306 490 Q 325 464 325 447 L 325 445 L 297 466 L 297 468 L 289 484 L 263 532 Q 254 526 237 521 L 210 519 Q 203 518 194 509 L 179 503 L 159 488 L 143 492 L 115 480 L 32 441 Z M 1003 537 L 1001 542 L 998 553 L 1040 565 Q 1033 585 1023 593 Q 1015 601 989 606 Q 999 621 983 621 Q 979 621 973 620 L 961 617 L 940 630 L 958 642 L 969 646 L 983 646 L 1002 641 L 1043 606 L 1075 562 L 1037 552 Q 1014 546 1003 537 Z M 895 684 L 880 688 L 869 691 L 883 708 Q 893 718 904 720 L 909 691 L 909 686 L 903 694 L 895 684 Z M 752 656 L 745 668 Q 729 700 719 733 Q 749 732 791 702 L 804 692 L 785 684 L 777 673 L 770 662 L 752 656 Z" fill="rgb(58,77,13)" fill-opacity="1.000"></path><path d="M 1378 123 L 1369 139 L 1334 178 L 1313 201 L 1310 233 Q 1327 227 1347 193 Q 1369 156 1382 148 L 1400 140 L 1413 130 L 1403 127 L 1378 123 Z M 578 174 L 564 196 Q 559 210 556 243 L 595 225 L 624 215 Q 622 210 623 202 L 604 188 L 578 174 Z M 842 98 L 828 124 Q 812 141 774 151 L 765 164 L 734 186 Q 713 197 697 198 L 685 198 L 680 215 L 664 233 L 640 237 L 640 252 Q 643 253 647 253 Q 661 253 682 236 L 719 204 L 723 209 L 735 198 L 749 189 Q 751 189 753 189 Q 761 189 778 195 L 806 200 Q 801 192 801 182 Q 801 170 806 164 Q 811 155 830 149 Q 847 143 851 131 Q 862 109 846 100 L 842 98 Z M 79 483 L 74 488 L 243 552 L 224 544 Q 184 528 169 515 L 165 506 L 162 499 L 149 499 L 134 502 L 114 493 L 79 483 Z M 329 438 L 323 445 L 323 447 Q 323 464 304 490 Q 296 507 298 528 L 308 564 L 279 566 L 281 567 L 291 575 L 304 581 Q 319 581 322 555 L 326 514 Q 332 495 352 457 L 329 438 Z M 1801 468 L 1752 488 L 1694 502 L 1633 518 Q 1606 576 1605 614 L 1652 560 Q 1682 527 1710 527 L 1756 539 Q 1762 540 1767 540 Q 1787 540 1788 520 L 1877 524 L 1965 535 Q 1944 507 1917 485 L 1866 483 Q 1830 482 1812 470 L 1801 468 Z M 1018 456 Q 1010 456 1001 460 L 1008 481 Q 1011 507 1001 537 Q 1012 546 1035 552 L 1073 562 L 1041 606 L 1000 641 L 981 646 Q 982 646 983 646 Q 1031 646 1067 593 L 1098 547 Q 1115 520 1120 497 Q 1119 497 1118 497 Q 1102 497 1075 509 L 1033 519 Q 1037 508 1034 490 L 1032 460 Q 1026 456 1018 456 Z M 938 630 L 934 632 L 926 634 L 919 656 L 907 686 L 907 691 L 924 690 Q 932 678 930 663 L 930 663 L 963 678 L 966 662 L 967 646 L 956 642 L 938 630 Z M 867 691 L 857 693 L 833 717 Q 839 722 847 722 Q 861 722 881 708 L 867 691 Z" fill="rgb(34,45,6)" fill-opacity="1.000"></path><path d="M 777 90 L 780 104 L 780 133 L 786 129 Q 805 115 811 99 L 777 90 Z M 1410 93 L 1402 96 L 1376 101 Q 1362 107 1345 118 L 1310 132 Q 1310 149 1316 164 L 1342 136 Q 1356 116 1370 110 L 1392 105 L 1410 93 Z M 595 168 L 592 172 L 607 177 Q 618 179 621 185 L 623 202 Q 622 210 624 215 L 625 216 L 626 217 Q 627 218 628 218 Q 633 218 641 209 L 656 195 L 665 194 L 633 187 Q 635 184 639 183 L 636 179 Q 628 171 621 169 L 605 168 Z M 1579 291 Q 1577 309 1588 328 L 1618 327 L 1625 306 Q 1601 293 1579 291 Z M 1921 317 L 1911 320 L 1913 333 L 1921 317 Z M 1883 446 L 1861 459 L 1841 468 L 1834 470 L 1837 470 L 1938 476 L 1894 453 L 1884 446 Z M 1602 459 L 1599 461 Q 1586 473 1584 483 L 1584 490 L 1626 486 L 1650 480 L 1620 467 L 1608 462 L 1602 459 Z M 45 432 L 13 433 L 30 441 L 113 480 L 141 492 L 157 488 L 157 487 L 158 486 L 154 483 L 127 467 L 91 457 Q 78 450 71 436 L 54 433 L 45 432 Z M 817 497 L 833 504 L 833 501 L 817 497 Z M 295 468 L 266 484 L 255 486 L 250 488 L 223 499 L 220 501 L 202 511 L 192 509 L 192 509 Q 201 518 208 519 L 235 521 Q 252 526 261 532 L 287 484 L 295 468 Z M 996 553 L 985 581 Q 976 603 962 614 L 959 617 L 971 620 Q 977 621 981 621 Q 997 621 987 606 Q 1013 601 1021 593 Q 1031 585 1038 565 L 996 553 Z M 920 633 L 910 634 Q 906 643 908 655 L 902 676 L 893 684 L 901 694 L 907 686 L 919 656 L 926 634 L 920 633 Z" fill="rgb(47,63,9)" fill-opacity="1.000"></path><path d="M 664 59 Q 660 64 663 72 L 669 64 L 670 62 L 673 59 Z M 1353 39 L 1377 42 Q 1393 42 1399 50 L 1370 69 L 1311 89 L 1278 91 Q 1288 83 1299 80 L 1304 72 L 1286 54 L 1312 59 L 1335 55 L 1353 39 Z M 1284 32 Q 1269 37 1251 55 L 1240 65 Q 1218 90 1252 114 Q 1267 125 1282 129 L 1310 132 L 1345 118 Q 1362 107 1376 101 L 1402 96 L 1410 93 L 1424 82 L 1425 81 Q 1430 72 1423 58 Q 1412 37 1381 35 L 1351 39 L 1322 37 L 1284 32 Z M 595 120 L 584 130 L 596 135 L 589 140 L 631 147 L 632 144 L 613 143 L 598 135 L 625 130 L 604 126 L 595 120 Z M 725 0 L 711 3 L 726 5 L 728 8 L 727 12 Q 723 10 719 10 Q 704 10 692 35 L 691 37 L 684 50 Q 668 78 656 80 L 662 73 L 656 63 L 639 41 L 636 39 Q 629 35 624 35 Q 613 35 613 54 L 578 42 L 561 40 L 571 42 L 595 51 L 590 48 L 631 64 L 599 62 L 566 57 L 593 67 L 621 75 L 605 77 L 588 76 L 604 93 L 547 85 L 568 96 L 588 105 L 575 106 L 562 106 Q 571 112 594 118 L 594 114 L 613 113 L 594 94 L 623 100 L 615 88 L 638 90 L 643 75 L 646 80 L 648 77 Q 650 88 660 88 Q 666 88 674 85 Q 698 75 697 63 L 697 63 L 699 82 Q 699 69 706 62 Q 709 58 712 58 Q 715 58 718 65 L 715 88 L 706 109 L 728 108 L 706 123 L 726 143 L 732 155 Q 745 140 749 115 L 755 45 L 764 43 Q 751 4 725 0 Z M 631 151 L 603 157 L 574 159 L 587 167 L 595 168 L 605 168 L 621 169 Q 628 171 636 179 L 639 183 Q 649 176 670 175 L 710 169 L 719 165 L 702 158 L 674 151 Q 670 151 664 157 L 654 162 L 651 151 L 632 154 L 631 151 Z M 194 312 L 208 327 L 213 334 L 217 324 Q 200 313 194 312 Z M 181 315 L 180 330 L 189 331 L 209 340 L 210 339 L 199 329 L 181 315 Z M 1811 333 L 1811 335 L 1810 340 L 1815 333 Z M 185 279 Q 175 279 169 287 L 164 293 Q 179 285 188 285 L 189 298 Q 194 296 199 296 Q 209 296 219 304 Q 235 319 231 332 L 223 328 L 237 355 Q 245 372 254 372 Q 258 372 261 369 L 262 368 Q 257 347 239 320 Q 217 287 195 281 Q 190 279 185 279 Z M 1666 395 L 1666 397 L 1638 398 L 1679 404 L 1666 395 Z M 60 392 L 63 408 L 77 404 L 67 397 L 60 392 Z M 134 310 L 108 316 Q 81 322 80 339 Q 80 351 103 366 Q 125 381 128 394 L 128 395 L 125 395 L 94 382 L 62 376 L 60 389 L 113 400 L 114 399 L 114 400 L 112 405 L 156 420 L 140 408 L 122 396 L 157 411 Q 174 419 184 419 Q 189 419 192 417 L 146 391 Q 113 371 111 355 L 111 355 L 152 372 Q 144 361 144 351 L 144 351 L 183 365 L 173 342 L 165 331 L 133 324 L 142 316 L 132 311 L 134 310 Z M 221 429 L 232 431 L 254 430 L 235 430 L 221 429 Z M 217 429 L 197 431 L 185 434 L 198 433 L 203 433 L 212 430 L 217 429 Z M 1709 164 Q 1700 164 1691 166 Q 1637 178 1637 197 Q 1634 196 1631 196 Q 1615 196 1615 224 L 1616 229 L 1623 206 L 1653 196 Q 1660 184 1681 182 L 1713 187 Q 1732 194 1735 206 L 1734 240 L 1742 258 L 1763 296 L 1749 289 L 1722 239 L 1717 236 L 1714 263 L 1744 308 L 1748 293 Q 1768 338 1766 360 L 1789 336 L 1811 308 L 1811 333 L 1820 322 L 1821 319 L 1821 320 Q 1823 311 1834 297 L 1833 278 Q 1812 289 1791 317 L 1814 260 Q 1820 256 1825 255 L 1853 257 L 1854 258 L 1857 252 L 1856 259 L 1868 269 L 1870 287 Q 1873 312 1861 336 Q 1850 359 1832 359 Q 1828 359 1824 358 Q 1828 340 1843 322 L 1843 322 L 1821 331 L 1811 350 L 1783 371 Q 1790 373 1797 373 Q 1811 373 1821 365 L 1821 365 L 1814 383 L 1804 399 L 1826 396 L 1846 387 L 1847 390 L 1851 387 L 1873 381 L 1878 377 L 1875 362 L 1893 360 L 1878 377 L 1870 392 Q 1857 406 1840 408 L 1870 383 L 1865 385 L 1846 395 Q 1842 414 1795 414 L 1779 432 Q 1789 445 1816 446 L 1855 441 Q 1893 425 1909 372 L 1909 399 L 1913 379 L 1915 352 L 1913 333 L 1911 320 L 1907 304 L 1904 293 L 1895 255 Q 1888 233 1874 225 L 1832 229 Q 1810 242 1804 257 L 1794 269 Q 1786 220 1762 192 Q 1739 164 1709 164 Z M 1672 234 L 1671 273 L 1665 310 Q 1652 292 1647 274 L 1647 288 L 1644 320 L 1624 291 L 1625 299 L 1625 306 L 1618 327 L 1588 328 L 1584 327 L 1580 325 Q 1559 315 1547 315 Q 1543 315 1540 316 L 1532 323 Q 1520 336 1525 366 Q 1529 403 1546 421 L 1550 425 L 1663 439 L 1690 431 L 1692 437 L 1684 449 Q 1676 458 1653 458 Q 1642 458 1628 456 L 1628 456 L 1639 458 L 1693 467 Q 1700 468 1706 468 Q 1722 468 1728 458 L 1745 429 L 1748 437 Q 1750 424 1736 422 L 1710 420 L 1717 418 Q 1642 415 1612 397 L 1585 390 L 1603 388 Q 1578 387 1558 367 L 1589 366 L 1575 358 L 1532 323 L 1532 323 Q 1576 347 1603 355 L 1631 360 Q 1662 367 1666 386 L 1687 384 Q 1699 373 1692 344 Q 1688 324 1677 307 L 1677 307 L 1722 335 Q 1722 325 1709 309 Q 1696 291 1696 283 L 1696 283 L 1724 308 Q 1726 299 1720 285 L 1713 266 L 1709 292 Q 1691 279 1672 234 Z M 1883 446 L 1863 452 L 1818 469 L 1798 467 L 1801 468 L 1812 470 L 1819 471 L 1834 470 L 1841 468 L 1861 459 L 1883 446 Z M 282 290 Q 279 290 275 292 Q 263 300 261 322 L 265 364 L 267 344 L 271 316 L 287 329 L 270 311 Q 272 304 280 301 L 278 297 L 278 297 Q 298 303 302 330 L 302 361 L 303 372 Q 303 406 276 422 Q 267 432 246 435 L 203 433 L 159 463 L 159 463 L 160 461 L 160 461 Q 158 461 156 461 Q 147 461 135 454 L 141 428 L 160 433 L 176 437 L 177 436 L 139 423 Q 118 416 109 407 L 104 408 L 118 416 Q 137 428 129 442 L 101 432 L 109 426 L 63 408 L 66 420 L 67 425 L 71 436 Q 78 450 91 457 L 127 467 L 154 483 L 158 486 Q 162 480 172 480 Q 178 480 186 482 Q 187 469 198 469 L 210 470 L 217 461 L 211 451 Q 215 446 219 446 Q 221 446 223 447 L 236 452 L 250 445 L 263 436 L 299 425 Q 321 419 331 409 L 331 409 L 327 420 Q 313 449 295 466 L 323 445 L 329 438 L 330 436 Q 342 416 339 401 L 318 364 L 302 328 L 301 305 Q 291 290 282 290 Z M 1655 481 L 1657 483 L 1678 487 L 1675 486 L 1655 481 Z M 1770 466 Q 1761 468 1748 476 L 1725 487 L 1718 489 L 1752 482 L 1760 474 L 1766 468 L 1773 467 L 1794 467 L 1770 466 Z M 255 486 L 238 491 L 223 499 L 250 488 L 255 486 Z M 798 600 L 798 610 L 815 603 L 798 600 Z M 759 520 L 789 531 L 748 569 Q 757 582 787 588 L 746 597 Q 752 610 775 619 L 729 613 L 710 622 Q 733 559 759 520 Z M 891 490 Q 896 504 906 510 L 908 496 Q 921 502 917 519 Q 943 500 957 500 L 945 522 Q 954 513 966 509 L 966 509 Q 967 516 957 525 L 941 540 L 941 540 L 966 538 L 966 538 Q 962 550 946 553 L 967 554 L 987 555 Q 975 572 948 579 L 900 580 Q 909 592 895 616 L 885 606 L 876 594 L 866 621 L 861 602 L 852 629 L 836 650 L 846 619 L 829 626 L 837 615 L 810 618 L 785 616 L 798 610 L 785 594 L 798 600 L 801 594 L 829 590 Q 828 581 819 578 L 804 569 L 819 564 L 835 559 L 816 541 L 797 523 L 828 531 Q 833 533 837 533 Q 848 533 853 521 L 857 555 L 866 538 Q 871 553 880 557 L 881 558 Q 890 536 891 490 Z M 889 438 Q 867 438 852 455 Q 830 463 831 484 L 833 501 L 833 504 L 817 497 L 800 488 L 784 485 L 769 487 L 752 496 L 740 505 Q 712 534 703 580 Q 692 631 729 651 L 749 656 L 750 656 L 768 662 L 775 673 L 783 684 L 802 692 L 814 694 L 857 693 L 867 691 L 878 688 L 893 684 L 902 676 L 908 655 Q 906 643 910 634 L 920 633 L 926 634 L 934 632 L 938 630 L 959 617 L 962 614 Q 976 603 985 581 L 996 553 L 999 542 L 1001 537 Q 1011 507 1008 481 L 1001 460 Q 993 448 977 448 Q 975 448 972 448 L 969 448 Q 965 448 949 455 L 927 471 L 914 481 L 905 484 L 911 467 Q 917 449 913 446 L 896 438 Q 892 438 889 438 Z" fill="rgb(203,130,74)" fill-opacity="1.000"></path><path d="M 1347 64 L 1318 65 Q 1309 67 1304 72 L 1299 80 L 1298 82 L 1316 77 Q 1321 80 1325 80 Q 1336 80 1347 64 Z M 653 124 L 665 129 L 668 128 L 653 124 Z M 1736 352 L 1734 376 L 1699 372 L 1699 372 Q 1699 380 1719 396 Q 1740 411 1753 413 Q 1756 413 1759 413 Q 1782 413 1782 390 Q 1782 363 1752 357 L 1736 352 Z M 247 391 L 198 394 L 214 398 L 195 397 Q 193 397 191 397 Q 182 397 181 401 Q 180 409 193 416 Q 201 421 212 426 L 241 424 Q 258 416 244 399 L 247 391 Z M 880 557 L 860 559 Q 841 567 836 583 L 826 601 L 853 604 L 871 584 Q 878 590 885 590 Q 892 590 898 584 L 901 580 Q 907 570 894 563 L 882 558 L 881 557 Z" fill="rgb(227,192,46)" fill-opacity="1.000"></path><path d="M 709 3 L 705 8 L 697 23 L 694 27 L 673 59 L 670 62 L 669 64 L 663 72 L 662 73 L 656 80 Q 668 78 684 50 L 691 37 L 692 35 Q 704 10 719 10 Q 723 10 727 12 L 728 8 L 726 5 L 711 3 Z M 680 103 L 670 104 L 652 107 L 632 106 L 651 111 L 637 114 L 621 114 Q 628 121 643 122 L 653 124 L 668 128 L 665 129 L 652 132 L 681 129 L 695 112 L 693 108 L 680 103 Z M 552 39 Q 543 39 539 44 Q 534 49 534 70 L 536 98 L 542 117 L 547 127 Q 556 150 563 154 L 574 159 L 603 157 L 631 151 L 643 148 L 631 147 L 589 140 L 596 135 L 584 130 L 595 120 L 596 118 L 594 118 Q 571 112 562 106 L 575 106 L 588 105 L 568 96 L 547 85 L 604 93 L 588 76 L 605 77 L 621 75 L 593 67 L 566 57 L 599 62 L 631 64 L 590 48 L 595 51 L 571 42 L 561 40 Q 556 39 552 39 Z M 1681 182 Q 1660 184 1653 196 L 1623 206 L 1616 229 Q 1611 251 1617 271 L 1624 291 L 1644 320 L 1647 288 L 1647 274 Q 1652 292 1665 310 L 1671 273 L 1672 234 Q 1691 279 1709 292 L 1713 266 L 1714 263 L 1717 236 L 1722 239 L 1733 244 L 1734 240 L 1735 206 Q 1732 194 1713 187 L 1681 182 Z M 188 285 Q 179 285 164 293 L 160 295 L 134 310 L 132 311 L 142 316 L 133 324 L 165 331 L 169 332 L 179 335 L 180 330 L 181 315 L 199 329 L 210 339 L 217 343 L 213 334 L 208 327 L 194 312 L 194 312 Q 200 313 217 324 L 223 328 L 231 332 Q 235 319 219 304 Q 209 296 199 296 Q 194 296 189 298 L 188 285 Z M 1825 255 Q 1820 256 1814 260 L 1791 317 Q 1812 289 1833 278 L 1834 297 L 1830 308 L 1821 320 L 1820 322 L 1811 333 L 1815 333 L 1821 331 L 1843 322 L 1843 322 Q 1828 340 1824 358 Q 1828 359 1832 359 Q 1850 359 1861 336 Q 1873 312 1870 287 L 1868 269 L 1856 259 L 1854 258 L 1853 257 L 1825 255 Z M 278 297 L 280 301 Q 272 304 270 311 L 287 329 Q 297 346 299 369 L 302 361 L 302 330 Q 298 303 278 297 Z M 1893 360 L 1875 362 L 1878 377 L 1893 360 Z M 1532 323 L 1575 358 L 1589 366 L 1558 367 Q 1578 387 1603 388 L 1585 390 L 1612 397 L 1638 398 L 1666 397 L 1666 395 L 1666 386 Q 1662 367 1631 360 L 1603 355 Q 1576 347 1532 323 Z M 1878 377 L 1873 381 L 1851 387 L 1847 390 L 1828 398 L 1846 395 L 1865 385 L 1870 383 L 1840 408 Q 1857 406 1870 392 L 1878 377 Z M 291 406 L 280 410 L 276 421 L 291 406 Z M 276 421 L 255 430 L 254 430 L 232 431 L 221 429 L 217 429 L 212 430 L 203 433 L 246 435 Q 267 432 276 422 L 276 421 Z M 57 388 L 60 392 L 67 397 L 77 404 L 63 408 L 109 426 L 101 432 L 129 442 Q 137 428 118 416 L 104 408 L 109 407 L 112 405 L 114 400 L 114 399 L 113 400 L 60 389 L 57 388 Z M 1544 424 Q 1548 434 1569 442 L 1612 453 L 1628 456 Q 1642 458 1653 458 Q 1676 458 1684 449 L 1692 437 L 1690 431 L 1663 439 L 1550 425 L 1544 424 Z M 198 433 L 185 434 L 183 434 L 177 436 L 176 437 L 173 439 Q 166 444 160 461 L 159 463 L 203 433 Z M 759 520 Q 733 559 710 622 L 729 613 L 775 619 Q 752 610 746 597 L 787 588 Q 757 582 748 569 L 789 531 L 759 520 Z" fill="rgb(223,158,106)" fill-opacity="1.000"></path><path d="M 1353 39 L 1335 55 L 1312 59 L 1286 54 L 1304 72 Q 1309 67 1318 65 L 1347 64 L 1347 64 Q 1336 80 1325 80 Q 1320 80 1316 77 L 1298 82 L 1299 80 L 1299 80 Q 1288 83 1278 91 L 1311 89 L 1370 69 L 1399 50 Q 1393 42 1377 42 L 1353 39 Z M 680 103 L 693 108 L 695 112 L 681 129 L 652 132 L 665 129 L 653 124 L 643 122 Q 628 121 621 114 L 637 114 L 651 111 L 632 106 L 652 107 L 670 104 L 680 103 Z M 766 42 L 764 43 L 755 45 L 749 115 Q 745 140 732 155 L 726 143 L 706 123 L 728 108 L 706 109 L 715 88 L 718 65 Q 715 58 712 58 Q 709 58 706 62 Q 699 69 699 82 L 697 63 L 697 63 Q 698 75 674 85 Q 666 88 660 88 Q 649 88 648 77 L 646 80 L 643 75 L 638 90 L 615 88 L 623 100 L 594 94 L 613 113 L 594 114 L 594 118 L 596 118 L 595 120 L 604 126 L 625 130 L 598 135 L 613 143 L 632 144 L 631 147 L 643 148 L 631 151 L 632 154 L 651 151 L 654 162 L 664 157 Q 670 151 674 151 L 702 158 L 719 165 L 710 169 L 670 175 Q 649 176 639 183 Q 635 184 633 187 L 665 194 L 666 194 L 685 198 L 697 198 Q 713 197 734 186 L 765 164 L 774 151 L 780 133 L 780 104 L 777 90 L 777 88 L 766 42 Z M 1857 252 L 1854 258 L 1856 259 L 1857 252 Z M 1722 239 L 1749 289 L 1763 296 L 1742 258 L 1734 240 L 1733 244 L 1722 239 Z M 1834 297 Q 1823 311 1821 320 L 1830 308 L 1834 297 Z M 1821 319 L 1820 322 L 1821 320 L 1821 319 Z M 1736 352 L 1752 357 Q 1782 363 1782 390 Q 1782 413 1759 413 Q 1756 413 1753 413 Q 1740 411 1719 396 Q 1699 380 1699 372 L 1699 372 L 1734 376 L 1736 352 Z M 247 391 L 244 399 Q 258 416 241 424 L 212 426 Q 201 421 193 416 Q 180 409 181 401 Q 183 397 191 397 Q 193 397 195 397 L 214 398 L 198 394 L 247 391 Z M 271 316 L 267 344 L 265 364 L 262 368 L 261 369 Q 257 372 254 372 Q 246 372 237 355 L 223 328 L 217 324 L 213 334 L 217 343 L 210 339 L 209 340 L 189 331 L 180 330 L 179 335 L 169 332 L 165 331 L 173 342 L 183 365 L 144 351 L 144 351 Q 144 361 152 372 L 111 355 L 111 355 Q 113 371 146 391 L 192 417 Q 189 419 184 419 Q 174 419 157 411 L 122 396 L 140 408 L 156 420 L 112 405 L 109 407 Q 118 416 139 423 L 177 436 L 183 434 L 185 434 L 197 431 L 217 429 L 221 429 L 235 430 L 255 430 L 276 421 L 280 410 L 291 406 L 276 421 L 276 422 Q 303 406 303 372 L 302 361 L 299 369 Q 297 346 287 329 L 271 316 Z M 141 428 L 135 454 Q 147 461 156 461 Q 158 461 160 461 Q 166 444 173 439 L 176 437 L 160 433 L 141 428 Z M 1714 263 L 1713 266 L 1720 285 Q 1726 299 1724 308 L 1696 283 L 1696 283 Q 1696 291 1709 309 Q 1722 325 1722 335 L 1677 307 L 1677 307 Q 1688 324 1692 344 Q 1699 373 1687 384 L 1666 386 L 1666 395 L 1679 404 L 1638 398 L 1612 397 L 1612 397 Q 1642 415 1717 418 L 1710 420 L 1736 422 Q 1750 424 1748 437 L 1745 429 L 1728 458 Q 1722 468 1706 468 Q 1700 468 1693 467 L 1639 458 L 1628 456 L 1612 453 L 1569 442 L 1565 444 L 1586 452 L 1602 459 L 1608 462 L 1620 467 L 1650 480 L 1655 481 L 1675 486 L 1678 487 L 1681 487 L 1718 489 L 1725 487 L 1748 476 Q 1761 468 1770 466 L 1794 467 L 1798 467 L 1818 469 L 1863 452 L 1883 446 L 1884 446 L 1884 445 L 1889 443 Q 1901 437 1906 424 L 1909 405 L 1909 399 L 1909 372 Q 1893 425 1855 441 L 1816 446 Q 1789 445 1779 432 L 1795 414 Q 1842 414 1846 395 L 1846 395 L 1828 398 L 1828 398 L 1847 390 L 1846 387 L 1826 396 L 1804 399 L 1814 383 L 1821 365 L 1821 365 Q 1811 373 1797 373 Q 1791 373 1783 371 L 1811 350 L 1821 331 L 1815 333 L 1810 340 L 1811 335 L 1811 333 L 1811 308 L 1789 336 L 1766 360 Q 1768 338 1748 293 L 1744 308 L 1714 263 Z M 331 409 Q 321 419 299 425 L 263 436 L 250 445 L 236 452 L 223 447 Q 221 446 219 446 Q 215 446 211 451 L 217 461 L 210 470 L 198 469 Q 187 469 186 482 Q 178 480 172 480 Q 162 480 158 486 L 157 487 L 157 488 L 177 503 L 192 509 L 202 511 L 220 501 L 223 499 L 238 491 L 255 486 L 266 484 L 295 468 L 295 466 Q 313 449 327 420 L 331 409 Z M 891 490 Q 890 536 881 558 L 893 563 Q 906 570 900 580 L 948 579 Q 975 572 987 555 L 967 554 L 946 553 Q 962 550 966 538 L 966 538 L 941 540 L 941 540 L 957 525 Q 967 516 966 509 L 966 509 Q 954 513 945 522 L 957 500 Q 943 500 917 519 Q 921 502 908 496 L 906 510 Q 896 504 891 490 Z M 785 594 L 798 610 L 798 600 L 785 594 Z M 853 521 Q 848 533 837 533 Q 833 533 828 531 L 797 523 L 816 541 L 835 559 L 819 564 L 804 569 L 819 578 Q 828 581 829 590 L 801 594 L 798 600 L 815 603 L 798 610 L 785 616 L 810 618 L 837 615 L 829 626 L 846 619 L 836 650 L 852 629 L 861 602 L 866 621 L 876 594 L 885 606 L 895 616 Q 909 592 900 580 L 900 580 L 897 584 Q 891 590 885 590 Q 879 590 872 584 L 854 604 L 827 601 L 837 583 Q 842 567 861 559 L 881 557 Q 872 553 867 538 L 858 555 L 854 521 Z" fill="rgb(150,96,55)" fill-opacity="1.000"></path></g></g></g></g></g></g><defs><defs></defs></defs></svg>