<?xml version="1.0" encoding="iso-8859-1"?>
<!-- Generator: Adobe Illustrator 16.0.0, SVG Export Plug-In . SVG Version: 6.00 Build 0)  -->
<!DOCTYPE svg PUBLIC "-//W3C//DTD SVG 1.1//EN" "http://www.w3.org/Graphics/SVG/1.1/DTD/svg11.dtd">
<svg version="1.1" id="FlashAICB" xmlns="http://www.w3.org/2000/svg" xmlns:xlink="http://www.w3.org/1999/xlink" x="0px" y="0px"
	 width="958.65px" height="111px" viewBox="0 0 958.65 111" style="enable-background:new 0 0 958.65 111;" xml:space="preserve">
<g>
	<path style="fill-rule:evenodd;clip-rule:evenodd;fill:#6A6B61;" d="M589.9,0c-5.034,0.667-8.301,1.017-9.801,1.05
		c-3.966,0.067-11.983,0.017-24.05-0.15c1.566,2.2,1.334,3.65-0.7,4.35c-0.466,0.167-2.283,0.4-5.449,0.7
		C542.134,6.683,535.283,7.033,529.35,7c-26.366-0.3-53.667-1.3-81.899-3c-34.233-2.067-63.917-3.083-89.05-3.05
		c-10.467,1.767-20.283,2.283-29.45,1.55C306.45,0.7,284.8,0.8,264,2.8c-6.433,0.6-14.517,0.817-24.25,0.65
		C228.917,3.15,220.833,3,215.5,3h-28.15c-4.033,0-8.583,0.25-13.65,0.75c-1.067,0.1-3.1,0.117-6.1,0.05
		c-2.567-0.066-4.567,0.05-6,0.35c-0.1,1.467,0.483,2.684,1.75,3.65c-1.833,0.3-3.767,0.45-5.8,0.45
		c-2.267,0.033-4.216-0.133-5.85-0.5c0.066,0,0.533-0.25,1.4-0.75c0.867-0.467,1.4-0.733,1.6-0.8c-1-0.2-2.267-0.284-3.8-0.25
		C148.6,5.983,147.317,6,147.05,6c-6.8-0.167-14.117-1.433-21.95-3.8c-3.133-0.934-6.667-1.567-10.6-1.9c-1.2-0.1-2.533-0.167-4-0.2
		l2.7-0.05L589.9,0z M601,0h52.85c-0.199,0.033-0.466,0.15-0.8,0.35c-0.467,0.333-1,1.083-1.6,2.25c-0.533,1.1-1.2,1.833-2,2.2
		c-2.767,1.333-6.983,1.867-12.65,1.6c-7.5-0.333-11.833-0.433-13-0.3c0.033,0.267,0,0.733-0.1,1.4
		c-0.134,0.633-0.167,1.083-0.101,1.35c-2.199,0.333-5.033,0.467-8.5,0.4C611.267,9.083,608.417,9,606.55,9
		c-3.666,0.3-6.517,0.5-8.55,0.6c-3.733,0.167-6.45-0.184-8.15-1.05c-0.1-1.7,2.084-2.883,6.551-3.55
		c4.899-0.733,7.683-1.683,8.35-2.85c-1.066-0.167-2.366-0.25-3.9-0.25C599.083,1.967,597.767,2,596.9,2
		c1.566-0.033,3.116-0.65,4.649-1.85L601,0z M671.8,4.4c7.233,0.8,12.517,0.333,15.851-1.4l-1,2H669.4
		c-3.134,0.233-5.584,0.367-7.351,0.4c-3.166,0.067-5.366-0.333-6.6-1.2C658.283,3.433,663.733,3.5,671.8,4.4z M698,6.45
		c-3.066,0.033-5.134-0.534-6.2-1.7c0.101-0.833,0.517-1.4,1.25-1.7c0.667-0.267,1.467-0.3,2.4-0.1c1.1-0.034,2.633,0.1,4.6,0.4
		c1.101,0.2,2.601,0.467,4.5,0.8c0.334,0.533,0.367,1.083,0.101,1.65C701.384,6.2,699.167,6.417,698,6.45z M944.05,0L944,0.05
		c-1.1,1.133-3.65,1.617-7.65,1.45c-4.433-0.4-7.333-0.6-8.699-0.6c-4.134,0.067-10.601,0.434-19.4,1.1c-8.434,0.667-14.9,1-19.4,1
		H872.1c-1.666-0.033-3.966,0.283-6.899,0.95c3.2-0.034,8.017-0.017,14.45,0.05l28,1c0.066,2.133,0.033,3.733-0.101,4.8
		c-4,0.7-9.184,0.95-15.55,0.75c-7.134-0.367-12.384-0.55-15.75-0.55c-5.833,0.133-10.217,0.233-13.15,0.3
		c-5.267,0.067-9.649-0.1-13.149-0.5c-0.334-1.1-0.45-2.233-0.351-3.4c-4.1,0.467-7.733,0.65-10.899,0.55
		c-1.667-0.034-2.7-0.067-3.101-0.1c-1.1-0.1-2.116-0.3-3.05-0.6c-0.467-0.167-0.934-0.567-1.399-1.2
		c-0.467-0.633-0.9-1.017-1.301-1.15c-0.633-0.2-1.85-0.15-3.649,0.15c-1.667,0.267-2.884,0.184-3.65-0.25
		c-0.5-0.267-0.983-0.9-1.45-1.9c-0.433-0.967-0.883-1.55-1.35-1.75L819.4,0H944.05z"/>
	<rect y="18" style="fill-rule:evenodd;clip-rule:evenodd;fill:#A9A59F;" width="958.65" height="3"/>
	<path style="fill-rule:evenodd;clip-rule:evenodd;fill:#2D3227;" d="M0,21h958.65v13.5h-174c-1.534,0-11.25,0.033-29.15,0.1
		c-10.5,0.033-18.684,0-24.55-0.1h-69.7c-17.4,0.333-31.934,0.5-43.6,0.5c-35.733-0.2-65.884-0.367-90.45-0.5H388.65
		c-20.8,0.367-58.333,0.683-112.6,0.95c-56.6,0.233-88.9,0.417-96.9,0.55c-14.267,0.2-51.45-0.3-111.55-1.5H0V21z"/>
	
		<linearGradient id="SVGID_1_" gradientUnits="userSpaceOnUse" x1="-22.4292" y1="479.3252" x2="-2.4292" y2="479.3252" gradientTransform="matrix(5.000000e-005 -1 1 -0.001 -9.896411e-005 -2.357084e-004)">
		<stop  offset="0" style="stop-color:#9A9589"/>
		<stop  offset="1" style="stop-color:#7B7E72"/>
	</linearGradient>
	<path style="fill-rule:evenodd;clip-rule:evenodd;fill:url(#SVGID_1_);" d="M698,6.45c1.167-0.034,3.384-0.25,6.65-0.65
		c0.267-0.566,0.233-1.117-0.101-1.65c-1.899-0.333-3.399-0.6-4.5-0.8c-1.967-0.3-3.5-0.434-4.6-0.4c-0.934-0.2-1.733-0.167-2.4,0.1
		c-0.733,0.3-1.149,0.867-1.25,1.7C692.866,5.917,694.934,6.483,698,6.45z M671.8,4.4c-8.066-0.9-13.517-0.967-16.35-0.2
		c1.233,0.867,3.434,1.267,6.6,1.2c1.767-0.033,4.217-0.167,7.351-0.4h17.25l1-2C684.316,4.733,679.033,5.2,671.8,4.4z M601,0
		l0.55,0.15c-1.533,1.2-3.083,1.817-4.649,1.85c0.866,0,2.183-0.033,3.949-0.1c1.534,0,2.834,0.083,3.9,0.25
		c-0.667,1.167-3.45,2.117-8.35,2.85c-4.467,0.667-6.65,1.85-6.551,3.55c1.7,0.867,4.417,1.217,8.15,1.05
		c2.033-0.1,4.884-0.3,8.55-0.6c1.867,0,4.717,0.083,8.55,0.25c3.467,0.067,6.301-0.067,8.5-0.4
		c-0.066-0.267-0.033-0.717,0.101-1.35c0.1-0.667,0.133-1.133,0.1-1.4c1.167-0.133,5.5-0.033,13,0.3
		c5.667,0.267,9.884-0.267,12.65-1.6c0.8-0.367,1.467-1.1,2-2.2c0.6-1.167,1.133-1.917,1.6-2.25c0.334-0.2,0.601-0.317,0.8-0.35
		H819.4l0.35,0.15c0.467,0.2,0.917,0.783,1.35,1.75c0.467,1,0.95,1.633,1.45,1.9c0.767,0.434,1.983,0.517,3.65,0.25
		c1.8-0.3,3.017-0.35,3.649-0.15c0.4,0.133,0.834,0.517,1.301,1.15c0.466,0.633,0.933,1.034,1.399,1.2c0.934,0.3,1.95,0.5,3.05,0.6
		c0.4,0.033,1.434,0.066,3.101,0.1c3.166,0.1,6.8-0.083,10.899-0.55c-0.1,1.167,0.017,2.3,0.351,3.4c3.5,0.4,7.883,0.567,13.149,0.5
		c2.934-0.066,7.317-0.167,13.15-0.3c3.366,0,8.616,0.183,15.75,0.55c6.366,0.2,11.55-0.05,15.55-0.75
		c0.134-1.066,0.167-2.667,0.101-4.8l-28-1c-6.434-0.067-11.25-0.083-14.45-0.05c2.934-0.667,5.233-0.983,6.899-0.95h16.75
		c4.5,0,10.967-0.333,19.4-1c8.8-0.667,15.267-1.033,19.4-1.1c1.366,0,4.267,0.2,8.699,0.6c4,0.167,6.551-0.317,7.65-1.45L944.05,0
		h14.601v18H0V0l113.2,0.05l-2.7,0.05c1.467,0.033,2.8,0.1,4,0.2c3.933,0.333,7.467,0.967,10.6,1.9
		c7.833,2.367,15.15,3.633,21.95,3.8c0.267,0,1.55-0.017,3.85-0.05c1.533-0.034,2.8,0.05,3.8,0.25c-0.2,0.066-0.733,0.333-1.6,0.8
		c-0.867,0.5-1.333,0.75-1.4,0.75c1.633,0.367,3.583,0.533,5.85,0.5c2.034,0,3.967-0.15,5.8-0.45c-1.267-0.966-1.85-2.183-1.75-3.65
		c1.433-0.3,3.433-0.417,6-0.35c3,0.067,5.033,0.05,6.1-0.05c5.066-0.5,9.617-0.75,13.65-0.75h28.15c5.333,0,13.417,0.15,24.25,0.45
		C249.483,3.617,257.567,3.4,264,2.8c20.8-2,42.45-2.1,64.95-0.3c9.167,0.733,18.983,0.217,29.45-1.55
		c25.133-0.034,54.817,0.983,89.05,3.05c28.233,1.7,55.533,2.7,81.899,3c5.934,0.033,12.784-0.317,20.551-1.05
		c3.166-0.3,4.983-0.534,5.449-0.7c2.034-0.7,2.267-2.15,0.7-4.35c12.066,0.167,20.084,0.217,24.05,0.15
		c1.5-0.033,4.767-0.383,9.801-1.05H601z"/>
	
		<linearGradient id="SVGID_2_" gradientUnits="userSpaceOnUse" x1="38.5332" y1="-479.3203" x2="54.5082" y2="-479.3203" gradientTransform="matrix(6.259781e-005 1 -1 -0.001 4.018567e-004 -2.357084e-004)">
		<stop  offset="0" style="stop-color:#020402"/>
		<stop  offset="1" style="stop-color:#1A1C16"/>
	</linearGradient>
	<path style="fill-rule:evenodd;clip-rule:evenodd;fill:url(#SVGID_2_);" d="M0,34.5h67.6c60.1,1.2,97.283,1.7,111.55,1.5
		c8-0.133,40.3-0.317,96.9-0.55c54.267-0.267,91.8-0.583,112.6-0.95H527.2c24.566,0.133,54.717,0.3,90.45,0.5
		c11.666,0,26.199-0.167,43.6-0.5h69.7c5.866,0.1,14.05,0.133,24.55,0.1c17.9-0.067,27.616-0.1,29.15-0.1h174V111H0V34.5z"/>
</g>
</svg>
