<?xml version="1.0" encoding="iso-8859-1"?>
<!-- Generator: Adobe Illustrator 16.0.0, SVG Export Plug-In . SVG Version: 6.00 Build 0)  -->
<!DOCTYPE svg PUBLIC "-//W3C//DTD SVG 1.1//EN" "http://www.w3.org/Graphics/SVG/1.1/DTD/svg11.dtd">
<svg version="1.1" id="FlashAICB" xmlns="http://www.w3.org/2000/svg" xmlns:xlink="http://www.w3.org/1999/xlink" x="0px" y="0px"
	 width="958.6px" height="150.8px" viewBox="0 0 958.6 150.8" style="enable-background:new 0 0 958.6 150.8;" xml:space="preserve"
	>
<g>
	<path style="fill-rule:evenodd;clip-rule:evenodd;fill:#2D2C26;" d="M954.5,2.05l-11.85,8.25c2.166-0.267,3.949-0.683,5.35-1.25
		c1.833-0.733,3.316-1.816,4.45-3.25C952.983,5.133,953.667,3.883,954.5,2.05z M958.6,49.8h-25l6.051-3.85
		c0.699,0.367,1.35,0.65,1.949,0.85l4,1c0.767,0,2.334,0.083,4.7,0.25c2.134,0.067,3.584-0.25,4.351-0.95
		c1.466-1.3,1.6-2.783,0.399-4.45c-1.066-1.467-2.467-2.433-4.2-2.9c-2.233-0.533-5.066-0.2-8.5,1c-3.533,1.233-4.883,2.567-4.05,4
		c-3.5,1.533-5.066,3.217-4.7,5.05H931.2c-1.101-0.233-3.367-0.767-6.8-1.6c-2.801-0.667-5.067-1.15-6.801-1.45L916,46.6l23.6-10.8
		c-9.267,3.367-16.183,5.967-20.75,7.8c2.467-2.133,5.351-4.733,8.65-7.8c1.5,0.167,3.366,0.217,5.6,0.15
		c1.2-0.034,2.784-0.083,4.75-0.15c3.534,0.034,6.434-0.466,8.7-1.5c2.9-1.367,4.584-3.533,5.05-6.5c0.367-2.367,0.067-4.7-0.899-7
		c-1.101-2.667-2.8-4-5.101-4l-10,1c-1.3-0.066-2.699-0.017-4.199,0.15L929.8,19l27.55-19h1.25V49.8z M918.85,43.6l-0.25,0.2
		l0.2-0.2l-7.05,3c-1.033,0.066-2.55,0.233-4.55,0.5c-0.634-1.167-1.4-2.917-2.3-5.25c-0.867-2.367-1.584-4.033-2.15-5l-5.65,3.95
		l5.601-4.1c-0.9-1.534-2-2.684-3.3-3.45c-1.5-0.933-3.4-1.417-5.7-1.45c-4.467-0.267-7.884-0.466-10.25-0.6
		c-4.3-0.233-7.65-0.05-10.05,0.55c-2.301,0.6-4.45,2.4-6.45,5.4c-3.066,4.633-4.767,7.117-5.101,7.45l-2.949,3.15l-23.75,0.3
		l11-6.4c4.726-0.599,8.125-2.574,10.199-5.925L882.3,20.6c0.367,0.467,1.066,0.95,2.101,1.45c1.6,0.833,2.666,1.417,3.199,1.75v1
		c4.067,0.6,6.851-0.633,8.351-3.7c1.467-2.9,1.1-5.5-1.101-7.8l22.5-13.1c0.134,0.733,0.284,1.267,0.45,1.6
		c1.066,2.733,3.584,5.05,7.55,6.95c3.767,1.767,7.184,2.467,10.25,2.1l3.9-0.3l-11.2,8c-2.2,0.5-4.083,1.267-5.649,2.3
		c-1.834,1.167-3.051,2.583-3.65,4.25l0.55-0.35L902.7,36.7l0.05,0.15c8.366-5.333,13.65-8.75,15.85-10.25h0.051
		c-0.134,0.967-0.084,2.05,0.149,3.25c0.733,3.333,3.483,5.3,8.25,5.9l-8.25,7.85H918.85z M912.6,10.75
		c-1.933-0.233-3.283-0.183-4.05,0.15c-0.833,0.4-1.483,1.367-1.95,2.9c-0.433,1.467-0.449,3.034-0.05,4.7l-7.95,5.3
		c3.801-1.8,6.517-3.316,8.15-4.55c0.467,1.233,1.083,2.083,1.85,2.55l10,1c1.134-0.566,1.834-1.917,2.101-4.05
		c0.3-2.133,0.033-3.8-0.8-5C918.866,12.283,916.434,11.283,912.6,10.75z M893.6,56.8l0.101-0.15l8.1,0.1L893.6,56.8z M415.9,56.8
		h0.2l-4.35,2.05L415.9,56.8z M884.55,0h25.55L858.4,30.05c0.366-2.133,0.366-4.633,0-7.5c-0.267-1.933-0.567-3.65-0.9-5.15l1.1-0.6
		l-1.149,0.4c-0.267-1.133-0.517-1.934-0.75-2.4c-0.834-1.6-2.434-2.883-4.8-3.85c-2.834-0.9-4.917-1.633-6.25-2.2
		c-0.067-0.033-0.884-0.433-2.45-1.2c-0.7-0.333-1.566-0.566-2.601-0.7c-1.366-0.2-3.033-0.033-5,0.5
		c-2.699,0.767-4.316,1.183-4.85,1.25l-3.2,0.1l-0.25,0.2c-0.3,0-0.75,0.017-1.35,0.05H825c-1.033-0.034-2.35-0.067-3.95-0.1
		L810.2,9.4v0.05c-3.834,0.433-5.9,0.683-6.2,0.75c-4.167,0.867-6.983,2.4-8.45,4.6c-2.2,3.233-2.133,6.034,0.2,8.4
		c1.733,1.767,4.934,3.367,9.6,4.8L793.3,38.35l-4.399,0.4c-3.367,0.333-5.9,0.6-7.601,0.8c-2.967,0.333-5.467,0.75-7.5,1.25
		c-1.833,0.333-3.3,0.65-4.399,0.95c-2.034,0.533-3.301,1.183-3.801,1.95c-0.333,0.566-0.316,1.383,0.051,2.45
		c0.5,1.533,0.75,2.333,0.75,2.4l0.05,0.3L762,48.9c-4.767-0.033-10.184-0.367-16.25-1c-1.4-6.1-2.7-10.3-3.9-12.6l24.301-16.65
		l0.399,0.2c2.367,0.8,5.5,0.9,9.4,0.3c4.1-0.667,6.684-1.85,7.75-3.55c0.7-1.1,1.45-2.8,2.25-5.1c0.833-2.3,1.5-4.55,2-6.75
		l5.5-3.75h7.5l0.1,0.1c1.101,1.633,2.334,2.7,3.7,3.2c1.033,0.367,2.667,0.534,4.9,0.5c2.466,0,5.133-0.4,8-1.2
		c1.6-0.434,4.166-1.3,7.699-2.6h12.2l-0.35,0.3L838,0h8.75c1.9,2.433,5.583,4.2,11.05,5.3c4.867,1,8.8,1.167,11.8,0.5
		c1.534-0.333,3.267-1.1,5.2-2.3c1.134-0.7,2.851-1.867,5.15-3.5h4.45l-9.2,7.95c-1.9-0.233-3.467-0.333-4.7-0.3l0.95-0.85
		l-1.25,0.85c-2.134,0.133-3.617,0.583-4.45,1.35c-0.8,0.8-1.083,1.883-0.85,3.25c0.233,1.3,0.833,2.317,1.8,3.05l-4.101,3.5
		c1.301-0.133,3-1.133,5.101-3c0.566,0.2,1.2,0.2,1.899,0c2.301,0.4,3.983-0.216,5.051-1.85c0.933-1.434,1.216-3.284,0.85-5.55
		c3.366-2.533,5.134-3.85,5.3-3.95C882.866,2.717,884.116,1.233,884.55,0z M788.6,0h3l-3.35,2.2l0.05-0.05L788.6,0z M746.55,0h12.3
		c1,5.467,1.617,8.633,1.851,9.5c0.967,3.833,2.233,6.5,3.8,8l-9.15,5.75c0.2-0.933,0.301-1.75,0.301-2.45
		c-0.067-1.533-0.351-3.216-0.851-5.05c-0.533-2-1.184-3.65-1.95-4.95c-2.133-3.667-5.983-6.066-11.55-7.2L746.55,0z M745.75,0
		l-5.35,3.45c-2.967-0.5-6.5-0.717-10.601-0.65c-6.7,0.1-10.7,1.167-12,3.2c-0.666,1.1-0.833,3.15-0.5,6.15
		c0.3,2.867,0.8,4.783,1.5,5.75l0.05,0.05l-7.5,5.15c-1.199-0.233-2.116-0.35-2.75-0.35c-2.033,0.033-4.483,1.167-7.35,3.4
		c-3.634,2.8-5.9,4.4-6.8,4.8c-2.767,1.267-6.217,2.4-10.351,3.4c-4.733,1.066-8.267,1.867-10.6,2.4c-1.7,0.4-3.866,1.05-6.5,1.95
		c-3.333,1.133-5.467,1.833-6.4,2.1c-3.333,0.633-5.899,1.15-7.699,1.55c-3.2,0.7-5.517,1.8-6.95,3.3
		c-0.267,0.267-0.517,0.633-0.75,1.1l-8.601,0.6c-0.166-2.633-1.066-4.483-2.699-5.55c-1.5-1.033-3.817-1.433-6.95-1.2
		c-1.667,0.1-4.101,0.5-7.3,1.2c-1.9,0.434-3.917,1.25-6.051,2.45c-2.666,1.5-4.283,3.017-4.85,4.55l-0.05,0.25
		c-7.733,0.333-14.7,0.567-20.9,0.7l-0.1,0.05l-8,0.05l0.2,0.1l1.25,0.05l-9.601-0.15l8.101-0.05c-1.233-0.566-3-1-5.301-1.3
		c-2.533-0.233-4.366-0.45-5.5-0.65l-2.699-0.35c-2.067-1.7-3.834-2.967-5.301-3.8L603.2,22.2c0.1,0.066,1.033,0.75,2.8,2.05
		c1.134,0.833,2.134,1.45,3,1.85c1.033,0.5,2.384,0.883,4.05,1.15c2.4,0.4,3.783,0.65,4.15,0.75l3.1,0.85L621.9,28L607.8,36.2
		c0.134-2.733-0.6-4.2-2.2-4.4l3.25-1.3c-1.866,0.5-4.666,0.383-8.399-0.35c-4.667-0.867-7.45-1.316-8.351-1.35l-1.55-0.1
		l-14.45,7.35c0.634,2.133,1.834,4.217,3.601,6.25c1.7,2,3.316,3.267,4.85,3.8c1.066,0.433,2.334,0.783,3.8,1.05l-4.55,2.65l4-0.05
		l3.5-2.1c5.2,0.6,9.283,0.1,12.25-1.5c1.7-0.9,2.8-1.917,3.3-3.05c0.4-0.8,0.65-2.233,0.75-4.3l0.101-0.95l14.2-8.5
		c2.8,0.9,4.816,1.5,6.05,1.8c2.267,0.533,4.399,0.817,6.399,0.85c6.434,0.033,13.134-0.533,20.101-1.7
		c6.733-1.1,13.283-2.683,19.649-4.75c3.834-1.2,6.233-2.517,7.2-3.95c0.867-1.267,1.3-3.883,1.3-7.85
		c0-5.133-0.699-9.717-2.1-13.75h14.1c0.334,8.9,3.351,12.85,9.051,11.85c2.5-0.434,4.183-1.934,5.05-4.5
		c0.533-1.533,0.833-3.983,0.899-7.35H745.75z M645.4,40.75c0.166-1.333-0.25-2.6-1.25-3.8c-2.967,1.033-4.634,1.683-5,1.95
		c-1.267,0.9-1.784,2.533-1.551,4.9l5-1C644.3,42.933,645.233,42.25,645.4,40.75z M572.8,12.6c-2-0.533-4.75-0.8-8.25-0.8
		c-3.233,0-5.434,0.367-6.6,1.1c-1.5,0.967-2.283,2.934-2.351,5.9c-0.133,1.667-0.25,3-0.35,4c-0.134,1.867-0.05,3.133,0.25,3.8
		c1.167,2.633,4.866,3.7,11.1,3.2l8,1c0.667-1.533,2.284-3.566,4.851-6.1c1.833-2.367,1.899-4.85,0.2-7.45
		C578.15,14.983,575.866,13.433,572.8,12.6z M550.8,0l11.3,1c0.134,0.533,0.301,1.1,0.5,1.7l0.551-0.3L543.6,14.55l21.325-12.025
		L562.95,3.7c0.733,1.9,1.533,3.267,2.399,4.1c1.167,1.233,1.967,1.934,2.4,2.1l3.6,0.6c2.867,0.467,5.934,1.35,9.2,2.65
		c1.934,0.767,4.884,2.017,8.851,3.75c1.1,0.467,3.05,1.117,5.85,1.95c2.533,0.733,4.467,1.417,5.8,2.05l-13.55,7.55
		c-2.366-0.2-4.267-0.25-5.7-0.15c-2,0.133-3.434,0.534-4.3,1.2c-1.533,1.3-2.083,3.1-1.65,5.4l-15.399,8.55
		c-1.4-0.733-2.601-1.233-3.601-1.5c-3-0.8-6.333-0.733-10,0.2c-2.3,0.6-5.533,1.833-9.699,3.7l-43.7-0.05l3.7-2.3
		c3.466,1.033,6.283,1.467,8.449,1.3l3,1h4.801c2.533-0.733,4.333-2.716,5.399-5.95c0.9-2.7,1.167-5.717,0.8-9.05l-0.149-1.2
		L543.6,14.55L519.15,28.2c-0.5-2.1-1.367-3.767-2.601-5C526.75,16.6,538.167,8.867,550.8,0z M387.25,0h44.15l-30.05,23.85
		c3.133-1.867,5.433-3.3,6.9-4.3c3.267-2.3,6.35-4.6,9.25-6.9c1.133,0.1,2.5,0.15,4.1,0.15h5c0-0.733,0.017-1.867,0.05-3.4
		c0-1.367-0.066-2.517-0.2-3.45l-0.7-0.05L432.6,0h4.95c-0.2,1.333,0.15,2.667,1.05,4c0.833,1.267,1.9,2.167,3.2,2.7
		c2.833,1.167,4.784,0.933,5.85-0.7c0.6-0.867,1.067-2.867,1.4-6h30.7c0.6,2.533,2.083,5.167,4.45,7.9l-6.6,4.9
		c1.733-0.633,4.1-2.066,7.1-4.3c2.3,2.467,4.35,4,6.149,4.6c2.767,0.967,6.834,1.483,12.2,1.55c5.8,0.1,9.65-0.517,11.55-1.85l5,1
		c4.2-0.1,6.667-1.816,7.4-5.15c0.667-3.066-0.233-5.95-2.7-8.65h21.851L513.4,21.6l0.399-0.3c-1.233-0.566-2.934-1.05-5.1-1.45
		c-2.634-0.434-4.667-0.783-6.101-1.05c-6-1.066-10.517-1.517-13.55-1.35c-5.866,0.333-9.366,2.45-10.5,6.35
		c-0.6,1.967-0.55,4.583,0.15,7.85c0.7,3.367,1.733,5.7,3.1,7c0.566,0.533,1.7,1.05,3.4,1.55l-7.55,5
		c-1.3-1.467-2.267-2.567-2.9-3.3c-1.167-1.333-2.217-2.383-3.15-3.15c-1.434-1.1-2.5-1.933-3.2-2.5c-1.233-0.967-2.2-1.867-2.9-2.7
		l12.1-5.75c-2.8,1.1-6.967,2.85-12.5,5.25l-0.55-0.75c-1.733-2.6-2.95-4.066-3.65-4.4c-0.733-0.367-2.5-0.383-5.3-0.05
		c-1.8,0.233-4.5,0.267-8.1,0.1c-3.667-0.167-6.383-0.15-8.15,0.05c-2.633,0.333-4.833,1.6-6.6,3.8
		c-2.467,3.133-4.267,5.067-5.4,5.8c-2.733,1.8-4.3,2.933-4.7,3.4c-0.767,0.9-1.133,2.467-1.1,4.7h-8.75
		c-0.033-1.567-0.35-2.95-0.95-4.15c-0.567-1.1-1.383-1.9-2.45-2.4l4-4.1c0.767,0.567,2.067,0.867,3.9,0.9c1,0,2.434-0.05,4.3-0.15
		v-3c0.167-0.633,0.117-1.25-0.15-1.85c-2.667-0.333-5.567-0.333-8.7,0c-0.633,1.867-0.45,3.216,0.55,4.05l-4.5,3.95
		c-0.966-0.333-2.316-0.45-4.05-0.35c-2.9,0.133-4.367,0.2-4.4,0.2c-2.7,0-4.55,0.184-5.55,0.55c-1.833,0.7-2.583,2.183-2.25,4.45
		c0.1,0.6,0.35,1.2,0.75,1.8l-25.85-0.45c-10.367-0.167-19-0.267-25.9-0.3c1.167-1.533,2.05-3.25,2.65-5.15
		c0.6-1.934,0.8-3.7,0.6-5.3l-0.45,0.35L362.2,20.3c2.466-0.733,4.767-1.917,6.9-3.55c2.3-1.767,3.8-3.617,4.5-5.55l0.05-0.15
		L387.25,0z M373.75,0h13.1L374,9.6c0.267-1.367,0.383-2.9,0.35-4.6C374.317,3.167,374.117,1.5,373.75,0z M248.75,46.65l-57.15,0.6
		c-0.1-1.667-0.483-3.15-1.15-4.45c-0.867-1.6-2.3-3.183-4.3-4.75c-1.133-0.867-2.917-2.1-5.35-3.7
		c6.267-3.434,13.467-7.767,21.6-13c1.3,1.467,2.667,3.267,4.1,5.4c0.133,0.2,0.683,1.467,1.65,3.8c0.6,1.467,1.45,2.5,2.55,3.1
		l5.35,0.35c1.1,0.167,2.4,0.483,3.9,0.95c0.867,0.267,2.15,0.667,3.85,1.2l-9.4,6.2c4.8-2.533,7.867-4.233,9.2-5.1l1.25-0.8
		l0.7,0.2c1.6,0.4,4.267,1.067,8,2c3.333,0.6,6.034,0.533,8.1-0.2c0.9-0.333,2.083-1.017,3.55-2.05c1.466-1,2.55-1.883,3.25-2.65
		c0.9-0.9,1.417-1.5,1.55-1.8c0.133-0.267,0.433-0.983,0.9-2.15c0.167-0.333,0.4-1.15,0.7-2.45c0.233-1.033,0.533-1.8,0.9-2.3
		c1.233-1.633,3.383-2.833,6.45-3.6c1.733-0.434,4.233-1,7.5-1.7c2.867-0.933,4.733-1.633,5.6-2.1c1.7-0.933,2.9-2.283,3.6-4.05
		c1.533-3.833,1.833-8.367,0.9-13.6h35.8c1.1,1.733,2.433,3.317,4,4.75c1.6,1.5,3.066,2.467,4.4,2.9
		c1.167,0.367,3.25,0.434,6.25,0.2c2.6-0.2,4.567,0.15,5.9,1.05c1.1,0.8,2.267,2.25,3.5,4.35L317.55,26.8
		c-4.933-0.367-8.733-0.55-11.4-0.55c-4.7,0.067-8.217,0.833-10.55,2.3c-2.133,1.4-3.167,3.367-3.1,5.9
		c0.567,3.167,0.967,5.633,1.2,7.4l0.25,1.85l-1.9,1.65c-8.333,0.566-17.466,0.95-27.4,1.15c4.434-3.033,8.1-6.267,11-9.7
		l-12.7,9.75l-13.5,0.1c5.433-4.033,9.833-7.65,13.2-10.85L248.75,46.65z M183.95,0c2.167,4.5,4.917,8.417,8.25,11.75l-30.6,18.3
		c-6.267,0.667-10.934,1.667-14,3c-1.8,0.833-2.917,1.684-3.35,2.55c-0.2,0.433-0.3,1.433-0.3,3c-4.567,2.367-9.833,5.566-15.8,9.6
		l1.35-0.05l15.1-9.25l-0.7,0.45c0,0.867-0.133,1.767-0.4,2.7c-0.267,0.967-0.65,2.05-1.15,3.25c-0.6,1.4-0.967,2.284-1.1,2.65
		l-36.1,0.75l-3.5,2.1l3.3-2.1l-15.4,0.1c-6.2-0.033-13.167,0.25-20.9,0.85c-7.066-0.667-11.917-1.033-14.55-1.1
		c-6.333-0.2-11.55,0.217-15.65,1.25h-9.2c1.167-1.167,2.233-2.983,3.2-5.45c-0.8-1.667-3-2.15-6.6-1.45
		c-0.533,0.1-2.917,0.8-7.15,2.1c-0.067,1.9,0,3.283,0.2,4.15l-1.1,0.65H0V0h1.7c1.8,3.367,4.433,5.717,7.9,7.05
		c2.3,0.9,5.633,2.3,10,4.2c3.833,1.567,7.183,2.6,10.05,3.1c-3.867,3.4-7.533,6.883-11,10.45l13.025-10.15l3.025,0.2
		c3.433,0.066,6.7-0.133,9.8-0.6c4.167-0.633,7.233-1.667,9.2-3.1c0.933-0.7,1.517-1.833,1.75-3.4c0.3-2.067,0.583-3.367,0.85-3.9
		c0.567-1.133,1.65-2.417,3.25-3.85h32.6c1.2,4.4,3.2,8,6,10.8l-15.4,12.45c-4.4-0.067-7.767,1.033-10.1,3.3
		c-0.8,0.733-1.533,1.817-2.2,3.25c-0.633,1.467-1.067,2.95-1.3,4.45L53.65,46.8c5-3.1,10.117-6.533,15.35-10.3
		c0.067,1.267,0.333,2.3,0.8,3.1c0.367,0.633,1.233,1.3,2.6,2c1.133,0.566,2.184,0.983,3.15,1.25c0.667,0.2,1.784,0.25,3.35,0.15
		c0.867-0.033,1.967-0.1,3.3-0.2h20.45l-2-3c1.367-1.433,1.733-5,1.1-10.7l12.65-10.15c1.967,0.466,4.333,0.9,7.1,1.3
		c0.6-0.367,2.933-1.817,7-4.35l-6.7,4.35l2.45,0.3c-3,2.267-5.2,4.35-6.6,6.25l9.15-6.1c0.867,0.066,2.133,0.1,3.8,0.1
		c3.133,0,5.167-0.117,6.1-0.35c1.433-0.333,3.133-1.3,5.1-2.9c1.133-0.9,2.867-1.983,5.2-3.25c1.933-1.233,3.25-2.733,3.95-4.5
		c0.633-1.566,1-3.533,1.1-5.9L157.9,0H183.95z M32.65,43.8l-0.2,0.55l0.2,0.45V43.8z M888.75,11c-2.3,0-3.95,0.3-4.95,0.9
		c-1.233,0.7-1.967,2-2.2,3.9l-0.05,0.75l9.25-5.35C890.267,11.067,889.583,11,888.75,11z M873.35,5c-0.267,0.2-0.899,0.8-1.899,1.8
		l4.149-3C874.833,3.967,874.083,4.367,873.35,5z M810.25,23.65V21.6c1.733-0.5,4.167-1.85,7.3-4.05l3.851-3.2l-6.351,5.55l2.5-2.35
		L810.25,23.65z M819.3,31.8l1.8,0.95c-4.166,2.2-7.966,4.317-11.399,6.35c-3.267-1.033-7.884-1.35-13.851-0.95
		c2.5-2.367,5.884-5.683,10.15-9.95c1.434,0.433,4,1.1,7.7,2C816.5,30.867,818.366,31.4,819.3,31.8z M813.5,40.95l-0.45-0.3
		l-0.5,0.25l11.55-6.05c2,1.5,3.483,2.5,4.45,3c0.867,0.433,2.584,1.066,5.15,1.9c2.166,0.733,3.833,1.5,5,2.3
		c-1.3,0.8-4.417,2.817-9.351,6.05l-12.699,0.15c-0.2-1.9-0.417-3.167-0.65-3.8C815.566,43.117,814.733,41.95,813.5,40.95z
		 M775.65,35.1c2.899-0.3,5.216-0.4,6.949-0.3l2-3c0-3.133-0.05-5.083-0.149-5.85c-2.566-0.367-5.45-0.5-8.65-0.4l1.8-1.75
		l-2.199,1.75c-3.167,0.167-6.184,0.6-9.051,1.3c-2.733,0.7-4.199,1.617-4.399,2.75c-0.101,0.667,0.416,2.433,1.55,5.3l-8.9,6.9
		c3.567-2.367,6.601-4.466,9.101-6.3l0.1,0.15c2.101,0.333,5.05,0.267,8.851-0.2l-8.75,5.85c0.866-0.5,2.833-1.483,5.899-2.95
		C772.4,37.117,774.35,36.033,775.65,35.1z M738.85,22.7c1.934,0.6,4.851,1.633,8.75,3.1l2.45,0.85c-3.399,2.2-6.633,4.4-9.7,6.6
		c-1.066-0.9-3.017-1.85-5.85-2.85c-2.967-0.967-4.816-1.583-5.55-1.85c-3.7-1.4-7.533-2.716-11.5-3.95l-5.05-1.3l6.949-4.7
		c1.134,1.233,2.767,1.917,4.9,2.05c1.2,0.1,3.05,0.133,5.55,0.1C732.467,21.017,735.483,21.667,738.85,22.7z M689.45,16
		c-0.566,0.767-0.684,1.983-0.351,3.65c0.4,2.167,0.567,3.55,0.5,4.15h3c3.467-0.033,5.617-0.633,6.45-1.8
		c0.733-1.067,0.867-3.417,0.4-7.05C693.816,14.183,690.483,14.533,689.45,16z M581.4,49.8h-1.7v0.05L581.4,49.8z M527.65,21.25
		c-2.233,0.533-3.801,0.783-4.7,0.75c-0.467,1.1-0.55,2.5-0.25,4.2l9.149-5.1C530.884,20.767,529.483,20.817,527.65,21.25z
		 M532.55,21.45l-9.6,6c0.399,1.6,0.95,3.05,1.649,4.35l2-1c3,0.2,5.334-0.183,7-1.15c2.101-1.267,2.45-3.217,1.051-5.85
		C534.083,22.733,533.384,21.95,532.55,21.45z M540.8,21c-0.8,1.1-0.8,2.4,0,3.9c0.667,1.267,1.601,2.233,2.8,2.9l4,1
		c0.067-0.033,0.284-0.283,0.65-0.75c0.233-0.333,0.634-0.466,1.2-0.4c0.333-2.233,0.35-4.8,0.05-7.7
		c-2.267-0.267-3.8-0.383-4.6-0.35C542.833,19.633,541.467,20.1,540.8,21z M555.35,46.45l-2.75,1.35l2.551-1.4L555.35,46.45z
		 M494.75,42.8l-4.2,3H478.3c2.434-1.3,5.45-2.966,9.05-5L494.75,42.8z M466.4,3.8c-2.867-0.367-5.417-0.183-7.65,0.55
		c-2.633,0.867-4.6,2.433-5.9,4.7c-1,1.733-1.4,3.65-1.2,5.75c0.467,2.5,0.817,4.45,1.05,5.85c2.433,0.467,4.233,0.783,5.4,0.95
		c2.066,0.267,3.9,0.333,5.5,0.2l3,1c3.867-2.433,5.917-3.767,6.15-4c1.6-1.566,2.15-3.816,1.65-6.75
		C473.5,7.15,470.833,4.4,466.4,3.8z M415.7,12.45l8.5-6.75c-7.034-0.7-11.117-0.35-12.25,1.05
		C409.417,9.783,410.667,11.683,415.7,12.45z M400.65,1.75c-1.333-0.5-3.383-0.583-6.15-0.25c-2.7,0.333-4.667,0.85-5.9,1.55
		c-1.567,0.9-2.567,2.05-3,3.45c-0.4,1.433-0.15,2.95,0.75,4.55c1.133,1.934,3.717,2.767,7.75,2.5c3.9-0.267,6.083,0.15,6.55,1.25
		l3.95-3c-0.033-3.133-0.15-5.1-0.35-5.9C403.783,3.867,402.583,2.483,400.65,1.75z M401.35,23.85l-4.75,2.75l0.05-1.8
		c0-2.5-0.1-3.966-0.3-4.4c-0.4-0.867-1.633-1.4-3.7-1.6c-2.2-0.2-3.833-0.083-4.9,0.35c-1.4,0.6-2.117,1.817-2.15,3.65
		c-0.033,1.367,0.467,2.75,1.5,4.15c1.1,1.5,2.283,2.117,3.55,1.85l1,1.05c-3.566,2.6-6.233,5.25-8,7.95l8.95-7.05l1.05,1.05
		c0.667-0.667,1.367-1.367,2.1-2.1c0.433-0.534,0.7-1.217,0.8-2.05L401.35,23.85z M373.75,18.95c0.367,0.667,1,0.95,1.9,0.85l3-1
		c0.1-1.3,0.083-2.85-0.05-4.65c-2.533-0.367-4.167,0.517-4.9,2.65C373.4,17.633,373.417,18.35,373.75,18.95z M367.95,25.8
		c-4.067,0.5-6.517,1.85-7.35,4.05c-0.6,1.566-0.367,3.883,0.7,6.95c1.034,3.067,2.233,5.034,3.6,5.9
		c1.233,0.767,3.617,1.017,7.15,0.75c1.934-0.133,4.467-0.35,7.6-0.65v-6c-0.033-1.8-0.267-3.633-0.7-5.5
		c-0.267-1.1-0.75-2.883-1.45-5.35C373.9,25.517,370.717,25.467,367.95,25.8z M359.3,20.9c-4.867,3.8-9.8,7.817-14.8,12.05V33
		c-0.467-1.8-1.133-3.317-2-4.55c-1.067-1.534-2.333-2.434-3.8-2.7c-0.9-0.167-2.25-0.067-4.05,0.3
		c-2.167,0.467-3.533,0.717-4.1,0.75c-1.6,0.1-4,0.117-7.2,0.05l14.5-11.25c0.633,1,1.3,1.75,2,2.25c1.6,1.267,3.667,1.917,6.2,1.95
		c1.434,0.034,3.65,0.017,6.65-0.05c0.433,0.033,1.466,0.283,3.1,0.75C357.133,20.833,358.3,20.967,359.3,20.9z M348.8,36.95
		c-0.3,1.8-0.35,3.083-0.15,3.85l1,4c3.3-1.367,4.967-2.066,5-2.1c1.967-1.233,2.233-2.8,0.8-4.7c-0.633-0.833-1.667-1.283-3.1-1.35
		C351.85,36.617,350.667,36.717,348.8,36.95z M307.65,12.5c0.067-3.867-0.617-6.2-2.05-7c-0.833-0.467-3.483-0.7-7.95-0.7
		c-3.133-0.267-5.717-0.433-7.75-0.5c-3.833-0.1-6.15,0.383-6.95,1.45c-0.5,0.633-0.7,1.933-0.6,3.9c0.2,2.167,0.3,3.567,0.3,4.2
		c0.033,1.367,0.233,2.5,0.6,3.4l-12.6,8.55c4.233-1.466,8.6-3.966,13.1-7.5c0.7,1.067,1.767,1.8,3.2,2.2
		c1.033,0.267,2.566,0.4,4.6,0.4l4.1-0.1l3,1c0.7-0.333,1.967-0.566,3.8-0.7c1.633-0.133,2.783-0.467,3.45-1
		c0.967-0.733,1.533-1.85,1.7-3.35c0.1-0.833,0.117-2.133,0.05-3.9V12.8c0.767-0.066,1.434-0.4,2-1L307.65,12.5z M274.35,33.3
		l17.2-12.4c-4.667,2.9-10.483,6.967-17.45,12.2c-0.967-0.633-2.633-1.05-5-1.25c-1.934-0.133-3.7-0.1-5.3,0.1
		c-0.233,2.4-0.017,4.017,0.65,4.85c0.566,0.7,1.7,1.067,3.4,1.1l4.8-0.1C275.05,35.833,275.617,34.333,274.35,33.3z M210.7,39.55
		c-3.534-1.667-7.784-2.2-12.75-1.6c-0.733,2.633-0.8,5.7-0.2,9.2l17.95-0.3c-0.1-1.9-0.534-3.383-1.3-4.45
		C213.667,41.367,212.433,40.417,210.7,39.55z M200.3,19.05l-22.7,13.8l0.55-0.35c-2.4-1.5-5.05-2.4-7.95-2.7
		c3.867-1.966,6.95-3.683,9.25-5.15c5.6-3.033,11.117-6.217,16.55-9.55C197.367,16.233,198.8,17.55,200.3,19.05z M167.65,6.8
		c-2.9-0.267-4.9-0.3-6-0.1c-2.1,0.333-3.433,1.367-4,3.1c-0.633,1.867-0.3,3.667,1,5.4c1.833,2.466,2.833,4,3,4.6l6,1
		c2.3-1.066,3.833-2.017,4.6-2.85c1.067-1.2,1.533-2.917,1.4-5.15c-0.133-2.367-0.6-3.917-1.4-4.65
		C171.517,7.483,169.983,7.033,167.65,6.8z M151.8,0h4.45l-4.2,2.55C152.05,1.75,151.967,0.9,151.8,0z M121.5,20.25
		c-3.3,2.033-6.583,4.217-9.85,6.55l10.15-6.55H121.5z M121.6,28.55c-0.567,0.6-0.967,1.883-1.2,3.85
		c-0.267,2.067-0.117,3.467,0.45,4.2c0.433,0.533,1.066,0.933,1.9,1.2c-5.9,3.434-11.833,7.067-17.8,10.9h0.2L123,37.85
		c0.833,0.2,1.983,0.25,3.45,0.15c0.8-0.033,1.867-0.1,3.2-0.2l3-3c0-1,0.05-2.55,0.15-4.65c-0.133-1.667-0.85-2.8-2.15-3.4
		c-0.967-0.467-2.55-0.483-4.75-0.05C123.733,27.133,122.3,27.75,121.6,28.55z M112.25,18.4c-3.9,2.934-7.067,5.783-9.5,8.55
		c-0.533,0.233-0.917,0.45-1.15,0.65l-0.1-0.6c-3.067-0.8-5.5-1.433-7.3-1.9c-3.233-0.833-5.967-1.383-8.2-1.65
		c3.9-3.167,8.367-6.983,13.4-11.45c2.567,2.233,6,4.083,10.3,5.55L112.25,18.4z M64.4,6.45c-1.667,0.1-3.267,0.6-4.8,1.5
		c-3.733,2.267-4.667,4.9-2.8,7.9c0.467,0.767,1.05,1.383,1.75,1.85l10.9-9.1l-0.8-0.8C67.583,6.833,66.167,6.383,64.4,6.45z
		 M69.45,8.65L58.6,17.7c2.333,1.466,4.9,1.017,7.7-1.35c2.833-2.333,3.95-4.85,3.35-7.55L69.45,8.65z M77.65,1.8L69.8,8.4
		C73.2,6.867,75.817,4.667,77.65,1.8z M48.7,21.75c-0.867-0.633-1.983-0.983-3.35-1.05c-1.667,0.066-2.9,0.1-3.7,0.1
		c-2.9,0.067-4.533,0.934-4.9,2.6c-0.167,0.833,0.1,2.883,0.8,6.15c-1.566,1.8-2.2,3.55-1.9,5.25l2.85-4.05
		c0.967,0.067,2.167,0.1,3.6,0.1c0.8,0,1.983-0.017,3.55-0.05l5,1c0.7-0.9,1.033-2.066,1-3.5c-0.033-1.367-0.35-2.7-0.95-4
		l-1.15,0.95l1.1-0.95l-0.25-0.55l5.25-2.95l-1.5,0.6l-0.05,0.05c-1.133,0.466-2.434,1.117-3.9,1.95
		C49.767,22.7,49.267,22.15,48.7,21.75z M3.8,22.95c-0.5,1.833-0.316,3.667,0.55,5.5c0.933,2.033,2.367,2.816,4.3,2.35l2,2
		c3-0.767,5-1.533,6-2.3c1.867-1.4,1.883-3.317,0.05-5.75c-1.034-1.367-3.05-2.117-6.05-2.25C8.95,22.433,6.667,22.583,3.8,22.95z"
		/>
	<path style="fill-rule:evenodd;clip-rule:evenodd;fill:#24231F;" d="M954.5,2.05c-0.833,1.833-1.517,3.083-2.05,3.75
		c-1.134,1.434-2.617,2.517-4.45,3.25c-1.4,0.567-3.184,0.983-5.35,1.25L954.5,2.05z M957.35,0L929.8,19l1.601-1.05
		c1.5-0.167,2.899-0.217,4.199-0.15l10-1c2.301,0,4,1.333,5.101,4c0.967,2.3,1.267,4.633,0.899,7c-0.466,2.967-2.149,5.133-5.05,6.5
		c-2.267,1.034-5.166,1.534-8.7,1.5c-1.966,0.067-3.55,0.117-4.75,0.15c-2.233,0.066-4.1,0.017-5.6-0.15
		c-3.3,3.067-6.184,5.667-8.65,7.8c4.567-1.833,11.483-4.434,20.75-7.8L916,46.6l1.6,0.15c1.733,0.3,4,0.783,6.801,1.45
		c3.433,0.833,5.699,1.367,6.8,1.6h2.399h25v7l-56.8-0.05l-8.1-0.1L893.6,56.8H416.1h-0.2H209.65c-2.367,0.1-3.867,0.1-4.5,0H0v-7
		h17.8h11.45h9.2c4.1-1.033,9.316-1.45,15.65-1.25c2.633,0.067,7.483,0.434,14.55,1.1L67.1,49.8h3.5l-1.95-0.15
		c7.733-0.6,14.7-0.883,20.9-0.85l15.4-0.1l-3.3,2.1l3.5-2.1l36.1-0.75c0.133-0.367,0.5-1.25,1.1-2.65
		c0.5-1.2,0.883-2.283,1.15-3.25c0.267-0.933,0.4-1.833,0.4-2.7l0.7-0.45l-15.1,9.25l-1.35,0.05c5.967-4.034,11.233-7.233,15.8-9.6
		c0-1.567,0.1-2.567,0.3-3c0.433-0.867,1.55-1.717,3.35-2.55c3.066-1.333,7.733-2.333,14-3l30.6-18.3
		c-3.333-3.333-6.083-7.25-8.25-11.75h92.6c0.934,5.233,0.633,9.767-0.9,13.6c-0.7,1.767-1.9,3.117-3.6,4.05
		c-0.867,0.467-2.733,1.167-5.6,2.1c-3.267,0.7-5.767,1.267-7.5,1.7c-3.067,0.767-5.217,1.966-6.45,3.6
		c-0.367,0.5-0.667,1.267-0.9,2.3c-0.3,1.3-0.533,2.117-0.7,2.45c-0.467,1.167-0.767,1.883-0.9,2.15c-0.133,0.3-0.65,0.9-1.55,1.8
		c-0.7,0.767-1.784,1.65-3.25,2.65c-1.467,1.033-2.65,1.717-3.55,2.05c-2.066,0.733-4.767,0.8-8.1,0.2c-3.733-0.933-6.4-1.6-8-2
		l-0.7-0.2l-1.25,0.8c-1.333,0.867-4.4,2.567-9.2,5.1l9.4-6.2c-1.7-0.533-2.983-0.933-3.85-1.2c-1.5-0.467-2.8-0.784-3.9-0.95
		l-5.35-0.35c-1.1-0.6-1.95-1.633-2.55-3.1c-0.967-2.333-1.517-3.6-1.65-3.8c-1.433-2.133-2.8-3.933-4.1-5.4
		c-8.133,5.233-15.333,9.566-21.6,13c2.434,1.6,4.217,2.833,5.35,3.7c2,1.567,3.434,3.15,4.3,4.75c0.667,1.3,1.05,2.784,1.15,4.45
		l57.15-0.6h0.7l13.5-0.1l1.7-0.05c9.934-0.2,19.067-0.583,27.4-1.15l1.9-1.65l-0.25-1.85c-0.233-1.767-0.633-4.233-1.2-7.4
		c-0.067-2.534,0.967-4.5,3.1-5.9c2.333-1.466,5.85-2.233,10.55-2.3c2.667,0,6.467,0.183,11.4,0.55l18.85-13.55
		c-1.233-2.1-2.4-3.55-3.5-4.35c-1.333-0.9-3.3-1.25-5.9-1.05c-3,0.233-5.083,0.167-6.25-0.2c-1.333-0.433-2.8-1.4-4.4-2.9
		c-1.567-1.433-2.9-3.017-4-4.75h61.4c0.367,1.5,0.567,3.167,0.6,5c0.033,1.7-0.083,3.233-0.35,4.6L386.85,0h0.4l-13.6,11.05
		l-0.05,0.15c-0.7,1.933-2.2,3.783-4.5,5.55c-2.133,1.633-4.434,2.817-6.9,3.55l-17.85,14.45l0.45-0.35c0.2,1.6,0,3.367-0.6,5.3
		c-0.6,1.9-1.483,3.617-2.65,5.15c6.9,0.033,15.534,0.133,25.9,0.3l25.85,0.45l19.5,0.1h8.75c-0.033-2.233,0.333-3.8,1.1-4.7
		c0.4-0.467,1.967-1.6,4.7-3.4c1.133-0.733,2.933-2.667,5.4-5.8c1.767-2.2,3.967-3.466,6.6-3.8c1.767-0.2,4.483-0.217,8.15-0.05
		c3.6,0.167,6.3,0.133,8.1-0.1c2.8-0.333,4.566-0.317,5.3,0.05c0.7,0.333,1.917,1.8,3.65,4.4l0.55,0.75
		c5.533-2.4,9.7-4.15,12.5-5.25l-12.1,5.75c0.7,0.833,1.667,1.733,2.9,2.7c0.7,0.567,1.767,1.4,3.2,2.5
		c0.933,0.767,1.983,1.817,3.15,3.15c0.633,0.733,1.6,1.833,2.9,3.3l7.55-5c-1.7-0.5-2.834-1.017-3.4-1.55
		c-1.366-1.3-2.399-3.633-3.1-7c-0.7-3.267-0.75-5.883-0.15-7.85c1.134-3.9,4.634-6.017,10.5-6.35
		c3.033-0.167,7.55,0.283,13.55,1.35c1.434,0.267,3.467,0.617,6.101,1.05c2.166,0.4,3.866,0.883,5.1,1.45l-0.399,0.3L546.15,0h4.649
		c-12.633,8.867-24.05,16.6-34.25,23.2c1.233,1.233,2.101,2.9,2.601,5L543.6,14.55L519.45,29.6l0.149,1.2
		c0.367,3.333,0.101,6.35-0.8,9.05c-1.066,3.233-2.866,5.217-5.399,5.95H508.6l-3-1c-2.166,0.167-4.983-0.267-8.449-1.3l-3.7,2.3
		l43.7,0.05c4.166-1.867,7.399-3.1,9.699-3.7c3.667-0.933,7-1,10-0.2c1,0.267,2.2,0.767,3.601,1.5l15.399-8.55
		c-0.433-2.3,0.117-4.1,1.65-5.4c0.866-0.667,2.3-1.067,4.3-1.2c1.434-0.1,3.334-0.05,5.7,0.15l13.55-7.55
		c-1.333-0.633-3.267-1.316-5.8-2.05c-2.8-0.833-4.75-1.483-5.85-1.95c-3.967-1.733-6.917-2.983-8.851-3.75
		c-3.267-1.3-6.333-2.183-9.2-2.65l-3.6-0.6c-0.434-0.167-1.233-0.867-2.4-2.1c-0.866-0.833-1.666-2.2-2.399-4.1l1.975-1.175
		L543.6,14.55L563.15,2.4L562.6,2.7c-0.199-0.6-0.366-1.167-0.5-1.7l-11.3-1h129.7c1.4,4.033,2.1,8.617,2.1,13.75
		c0,3.967-0.433,6.583-1.3,7.85c-0.967,1.433-3.366,2.75-7.2,3.95c-6.366,2.067-12.916,3.65-19.649,4.75
		c-6.967,1.167-13.667,1.733-20.101,1.7c-2-0.033-4.133-0.317-6.399-0.85c-1.233-0.3-3.25-0.9-6.05-1.8l-14.2,8.5L607.6,38.8
		c-0.1,2.067-0.35,3.5-0.75,4.3c-0.5,1.133-1.6,2.15-3.3,3.05c-2.967,1.6-7.05,2.1-12.25,1.5l-3.5,2.1l-4,0.05l4.55-2.65
		c-1.466-0.267-2.733-0.617-3.8-1.05c-1.533-0.533-3.149-1.8-4.85-3.8c-1.767-2.033-2.967-4.117-3.601-6.25l14.45-7.35l1.55,0.1
		c0.9,0.034,3.684,0.483,8.351,1.35c3.733,0.733,6.533,0.85,8.399,0.35l-3.25,1.3c1.601,0.2,2.334,1.667,2.2,4.4L621.9,28
		l-1.601,0.85L617.2,28c-0.367-0.1-1.75-0.35-4.15-0.75c-1.666-0.267-3.017-0.65-4.05-1.15c-0.866-0.4-1.866-1.017-3-1.85
		c-1.767-1.3-2.7-1.983-2.8-2.05L560.85,43.7c1.467,0.833,3.233,2.1,5.301,3.8l2.699,0.35c1.134,0.2,2.967,0.417,5.5,0.65
		c2.301,0.3,4.067,0.733,5.301,1.3l-8.101,0.05L581.15,50l-1.25-0.05l-0.2-0.1l8-0.05l0.1-0.05c6.2-0.133,13.167-0.367,20.9-0.7
		l10.45-0.55c0.733-0.067,1.283-0.1,1.649-0.1l15.8-1.05l8.601-0.6c0.233-0.467,0.483-0.833,0.75-1.1c1.434-1.5,3.75-2.6,6.95-3.3
		c1.8-0.4,4.366-0.917,7.699-1.55c0.934-0.267,3.067-0.966,6.4-2.1c2.634-0.9,4.8-1.55,6.5-1.95c2.333-0.533,5.866-1.333,10.6-2.4
		c4.134-1,7.584-2.133,10.351-3.4c0.899-0.4,3.166-2,6.8-4.8c2.866-2.233,5.316-3.367,7.35-3.4c0.634,0,1.551,0.117,2.75,0.35
		l7.5-5.15l-0.05-0.05c-0.7-0.967-1.2-2.883-1.5-5.75c-0.333-3-0.166-5.05,0.5-6.15c1.3-2.033,5.3-3.1,12-3.2
		c4.101-0.066,7.634,0.15,10.601,0.65L745.75,0h0.8l-5.25,3.6c5.566,1.133,9.417,3.533,11.55,7.2c0.767,1.3,1.417,2.95,1.95,4.95
		c0.5,1.833,0.783,3.517,0.851,5.05c0,0.7-0.101,1.517-0.301,2.45l9.15-5.75c-1.566-1.5-2.833-4.167-3.8-8
		c-0.233-0.867-0.851-4.033-1.851-9.5h29.75l-0.3,2.15l-0.05,0.05L791.6,0h1.851l-5.5,3.75c-0.5,2.2-1.167,4.45-2,6.75
		c-0.8,2.3-1.55,4-2.25,5.1c-1.066,1.7-3.65,2.883-7.75,3.55c-3.9,0.6-7.033,0.5-9.4-0.3l-0.399-0.2L741.85,35.3
		c1.2,2.3,2.5,6.5,3.9,12.6c6.066,0.633,11.483,0.967,16.25,1l4.45-0.05l-0.05-0.3c0-0.066-0.25-0.867-0.75-2.4
		c-0.367-1.066-0.384-1.883-0.051-2.45c0.5-0.767,1.767-1.417,3.801-1.95c1.1-0.3,2.566-0.617,4.399-0.95
		c2.033-0.5,4.533-0.917,7.5-1.25c1.7-0.2,4.233-0.466,7.601-0.8l4.399-0.4L805.35,28c-4.666-1.433-7.866-3.033-9.6-4.8
		c-2.333-2.367-2.4-5.167-0.2-8.4c1.467-2.2,4.283-3.733,8.45-4.6c0.3-0.067,2.366-0.317,6.2-0.75V9.4l10.85-0.55
		c1.601,0.033,2.917,0.066,3.95,0.1h0.95c0.6-0.034,1.05-0.05,1.35-0.05l0.25-0.2l3.2-0.1c0.533-0.067,2.15-0.483,4.85-1.25
		c1.967-0.533,3.634-0.7,5-0.5c1.034,0.133,1.9,0.367,2.601,0.7c1.566,0.767,2.383,1.167,2.45,1.2c1.333,0.567,3.416,1.3,6.25,2.2
		c2.366,0.966,3.966,2.25,4.8,3.85c0.233,0.467,0.483,1.267,0.75,2.4l1.149-0.4l-1.1,0.6c0.333,1.5,0.634,3.217,0.9,5.15
		c0.366,2.867,0.366,5.367,0,7.5L910.1,0H957.35z M918.85,43.6h-0.05l8.25-7.85c-4.767-0.6-7.517-2.567-8.25-5.9
		c-0.233-1.2-0.283-2.283-0.149-3.25H918.6c-2.199,1.5-7.483,4.917-15.85,10.25l-0.05-0.15l16.85-11.95L919,25.1
		c0.6-1.667,1.816-3.083,3.65-4.25c1.566-1.033,3.449-1.8,5.649-2.3l11.2-8l-3.9,0.3c-3.066,0.367-6.483-0.333-10.25-2.1
		c-3.966-1.9-6.483-4.217-7.55-6.95c-0.166-0.333-0.316-0.867-0.45-1.6l-22.5,13.1c2.2,2.3,2.567,4.9,1.101,7.8
		c-1.5,3.066-4.283,4.3-8.351,3.7v-1c-0.533-0.333-1.6-0.917-3.199-1.75c-1.034-0.5-1.733-0.983-2.101-1.45l-25.95,15.125
		c-2.074,3.351-5.474,5.326-10.199,5.925l-11,6.4l23.75-0.3l2.949-3.15c0.334-0.333,2.034-2.817,5.101-7.45c2-3,4.149-4.8,6.45-5.4
		c2.399-0.6,5.75-0.783,10.05-0.55c2.366,0.133,5.783,0.333,10.25,0.6c2.3,0.034,4.2,0.517,5.7,1.45c1.3,0.767,2.399,1.917,3.3,3.45
		l-5.601,4.1l5.65-3.95c0.566,0.967,1.283,2.633,2.15,5c0.899,2.333,1.666,4.083,2.3,5.25c2-0.267,3.517-0.434,4.55-0.5l7.05-3
		l-0.2,0.2L918.85,43.6z M888.75,11c0.833,0,1.517,0.067,2.05,0.2l-9.25,5.35l0.05-0.75c0.233-1.9,0.967-3.2,2.2-3.9
		C884.8,11.3,886.45,11,888.75,11z M846.75,0h33.2c-2.3,1.633-4.017,2.8-5.15,3.5c-1.934,1.2-3.666,1.967-5.2,2.3
		c-3,0.667-6.933,0.5-11.8-0.5C852.333,4.2,848.65,2.433,846.75,0z M837.55,0H838l-0.8,0.3L837.55,0z M813.5,40.95
		c1.233,1,2.066,2.167,2.5,3.5c0.233,0.633,0.45,1.9,0.65,3.8l12.699-0.15c4.934-3.233,8.051-5.25,9.351-6.05
		c-1.167-0.8-2.834-1.566-5-2.3c-2.566-0.833-4.283-1.467-5.15-1.9c-0.967-0.5-2.45-1.5-4.45-3l-11.55,6.05l0.5-0.25L813.5,40.95z
		 M819.3,31.8c-0.934-0.4-2.8-0.933-5.6-1.6c-3.7-0.9-6.267-1.567-7.7-2c-4.267,4.267-7.65,7.583-10.15,9.95
		c5.967-0.4,10.584-0.083,13.851,0.95c3.434-2.033,7.233-4.15,11.399-6.35L819.3,31.8z M810.25,23.65l7.3-6.1l-2.5,2.35l6.351-5.55
		l-3.851,3.2c-3.133,2.2-5.566,3.55-7.3,4.05V23.65z M738.85,22.7c-3.366-1.034-6.383-1.684-9.05-1.95c-2.5,0.033-4.35,0-5.55-0.1
		c-2.134-0.133-3.767-0.816-4.9-2.05l-6.949,4.7l5.05,1.3c3.967,1.233,7.8,2.55,11.5,3.95c0.733,0.267,2.583,0.883,5.55,1.85
		c2.833,1,4.783,1.95,5.85,2.85c3.067-2.2,6.301-4.4,9.7-6.6l-2.45-0.85C743.7,24.333,740.783,23.3,738.85,22.7z M694.6,0h15
		c-0.066,3.367-0.366,5.817-0.899,7.35c-0.867,2.566-2.55,4.066-5.05,4.5C697.95,12.85,694.934,8.9,694.6,0z M532.55,21.45
		c0.834,0.5,1.533,1.283,2.101,2.35c1.399,2.633,1.05,4.583-1.051,5.85c-1.666,0.967-4,1.35-7,1.15l-2,1
		c-0.699-1.3-1.25-2.75-1.649-4.35L532.55,21.45z M527.65,21.25c1.833-0.433,3.233-0.483,4.199-0.15l-9.149,5.1
		c-0.3-1.7-0.217-3.1,0.25-4.2C523.85,22.033,525.417,21.783,527.65,21.25z M581.4,49.8l-1.7,0.05V49.8H581.4z M555.35,46.45
		l-0.199-0.05l-2.551,1.4L555.35,46.45z M494.75,42.8l-7.4-2c-3.6,2.034-6.616,3.7-9.05,5h12.25L494.75,42.8z M466.4,3.8
		c4.434,0.6,7.1,3.35,8,8.25c0.5,2.934-0.05,5.184-1.65,6.75c-0.233,0.233-2.283,1.567-6.15,4l-3-1c-1.6,0.133-3.434,0.067-5.5-0.2
		c-1.167-0.167-2.967-0.483-5.4-0.95c-0.233-1.4-0.583-3.35-1.05-5.85c-0.2-2.1,0.2-4.017,1.2-5.75c1.3-2.267,3.267-3.833,5.9-4.7
		C460.983,3.617,463.533,3.433,466.4,3.8z M432.6,0l-6.85,5.9l0.7,0.05c0.133,0.933,0.2,2.083,0.2,3.45
		c-0.033,1.533-0.05,2.667-0.05,3.4h-5c-1.6,0-2.967-0.05-4.1-0.15c-2.9,2.3-5.983,4.6-9.25,6.9c-1.467,1-3.767,2.434-6.9,4.3
		L431.4,0H432.6z M415.7,12.45c-5.034-0.767-6.284-2.667-3.75-5.7c1.133-1.4,5.216-1.75,12.25-1.05L415.7,12.45z M401.35,23.85
		l-4.8,3.8c-0.1,0.833-0.367,1.517-0.8,2.05c-0.733,0.733-1.433,1.433-2.1,2.1l-1.05-1.05l-8.95,7.05c1.767-2.7,4.434-5.35,8-7.95
		l-1-1.05c-1.267,0.267-2.45-0.35-3.55-1.85c-1.033-1.4-1.533-2.784-1.5-4.15c0.033-1.833,0.75-3.05,2.15-3.65
		c1.067-0.433,2.7-0.55,4.9-0.35c2.067,0.2,3.3,0.733,3.7,1.6c0.2,0.434,0.3,1.9,0.3,4.4l-0.05,1.8L401.35,23.85z M367.95,25.8
		c2.767-0.333,5.95-0.283,9.55,0.15c0.7,2.466,1.183,4.25,1.45,5.35c0.433,1.867,0.667,3.7,0.7,5.5v6
		c-3.133,0.3-5.667,0.517-7.6,0.65c-3.533,0.267-5.917,0.017-7.15-0.75c-1.367-0.867-2.566-2.833-3.6-5.9
		c-1.066-3.066-1.3-5.383-0.7-6.95C361.433,27.65,363.883,26.3,367.95,25.8z M359.3,20.9c-1,0.067-2.167-0.066-3.5-0.4
		c-1.633-0.467-2.667-0.717-3.1-0.75c-3,0.067-5.217,0.083-6.65,0.05c-2.533-0.033-4.6-0.683-6.2-1.95c-0.7-0.5-1.367-1.25-2-2.25
		l-14.5,11.25c3.2,0.066,5.6,0.05,7.2-0.05c0.567-0.033,1.934-0.283,4.1-0.75c1.8-0.367,3.15-0.466,4.05-0.3
		c1.466,0.267,2.733,1.167,3.8,2.7c0.867,1.233,1.533,2.75,2,4.55v-0.05C349.5,28.717,354.433,24.7,359.3,20.9z M200.3,19.05
		c-1.5-1.5-2.933-2.816-4.3-3.95c-5.433,3.333-10.95,6.517-16.55,9.55c-2.3,1.467-5.383,3.184-9.25,5.15c2.9,0.3,5.55,1.2,7.95,2.7
		l-0.55,0.35L200.3,19.05z M210.7,39.55c1.733,0.867,2.966,1.817,3.7,2.85c0.767,1.067,1.2,2.55,1.3,4.45l-17.95,0.3
		c-0.6-3.5-0.533-6.566,0.2-9.2C202.917,37.35,207.167,37.883,210.7,39.55z M157.9,0l-5.85,3.9c-0.1,2.367-0.466,4.333-1.1,5.9
		c-0.7,1.767-2.017,3.267-3.95,4.5c-2.333,1.267-4.067,2.35-5.2,3.25c-1.966,1.6-3.667,2.567-5.1,2.9
		c-0.934,0.233-2.967,0.35-6.1,0.35c-1.667,0-2.934-0.033-3.8-0.1l-9.15,6.1c1.4-1.9,3.6-3.983,6.6-6.25l-2.45-0.3l6.7-4.35
		c-4.067,2.533-6.4,3.983-7,4.35c-2.767-0.4-5.133-0.833-7.1-1.3L101.75,29.1c0.633,5.7,0.267,9.267-1.1,10.7l2,3H82.2
		c-1.333,0.1-2.434,0.167-3.3,0.2c-1.566,0.1-2.683,0.05-3.35-0.15c-0.966-0.267-2.017-0.684-3.15-1.25
		c-1.367-0.7-2.233-1.367-2.6-2c-0.466-0.8-0.733-1.833-0.8-3.1c-5.233,3.767-10.35,7.2-15.35,10.3l15.5-12.55
		c0.233-1.5,0.667-2.983,1.3-4.45c0.667-1.433,1.4-2.517,2.2-3.25c2.333-2.267,5.7-3.367,10.1-3.3l15.4-12.45
		c-2.8-2.8-4.8-6.4-6-10.8h59.65c0.167,0.9,0.25,1.75,0.25,2.55l4.2-2.55H157.9z M239.35,53.95l-2.05,1.6l2.2-1.6H239.35z
		 M121.5,20.25h0.3l-10.15,6.55C114.917,24.467,118.2,22.283,121.5,20.25z M112.25,18.4l-2.55-0.85
		c-4.3-1.466-7.733-3.316-10.3-5.55c-5.033,4.467-9.5,8.283-13.4,11.45c2.233,0.267,4.967,0.816,8.2,1.65
		c1.8,0.467,4.233,1.1,7.3,1.9l0.1,0.6c0.233-0.2,0.617-0.417,1.15-0.65C105.183,24.183,108.35,21.333,112.25,18.4z M120.9,53.25
		l-2.15,1.5l2.45-1.5H120.9z M1.7,0h57.85c-1.6,1.433-2.683,2.717-3.25,3.85c-0.267,0.533-0.55,1.833-0.85,3.9
		c-0.233,1.567-0.817,2.7-1.75,3.4c-1.967,1.434-5.034,2.467-9.2,3.1c-3.1,0.467-6.367,0.667-9.8,0.6l-3.025-0.2L18.65,24.8
		c3.467-3.566,7.133-7.05,11-10.45c-2.867-0.5-6.217-1.533-10.05-3.1c-4.367-1.9-7.7-3.3-10-4.2C6.133,5.717,3.5,3.367,1.7,0z
		 M77.65,1.8c-1.833,2.867-4.45,5.067-7.85,6.6L77.65,1.8z M69.45,8.65l0.2,0.15c0.6,2.7-0.517,5.217-3.35,7.55
		c-2.8,2.367-5.367,2.816-7.7,1.35L69.45,8.65z M64.4,6.45c1.767-0.067,3.184,0.383,4.25,1.35l0.8,0.8l-10.9,9.1
		c-0.7-0.467-1.283-1.083-1.75-1.85c-1.867-3-0.933-5.633,2.8-7.9C61.133,7.05,62.733,6.55,64.4,6.45z M3.8,22.95
		c2.867-0.367,5.15-0.517,6.85-0.45c3,0.133,5.017,0.883,6.05,2.25c1.833,2.433,1.816,4.35-0.05,5.75c-1,0.767-3,1.533-6,2.3l-2-2
		c-1.933,0.467-3.367-0.316-4.3-2.35C3.483,26.617,3.3,24.783,3.8,22.95z"/>
	<path style="fill-rule:evenodd;clip-rule:evenodd;fill:#3C3D39;" d="M933.6,49.8c-0.366-1.833,1.2-3.517,4.7-5.05
		c-0.833-1.433,0.517-2.767,4.05-4c3.434-1.2,6.267-1.533,8.5-1c1.733,0.467,3.134,1.433,4.2,2.9c1.2,1.667,1.066,3.15-0.399,4.45
		c-0.767,0.7-2.217,1.017-4.351,0.95c-2.366-0.167-3.934-0.25-4.7-0.25l-4-1c-0.6-0.2-1.25-0.483-1.949-0.85L933.6,49.8z
		 M912.6,10.75c3.834,0.533,6.267,1.533,7.301,3c0.833,1.2,1.1,2.867,0.8,5c-0.267,2.133-0.967,3.483-2.101,4.05l-10-1
		c-0.767-0.466-1.383-1.316-1.85-2.55c-1.634,1.233-4.35,2.75-8.15,4.55l7.95-5.3c-0.399-1.667-0.383-3.233,0.05-4.7
		c0.467-1.533,1.117-2.5,1.95-2.9C909.316,10.567,910.667,10.517,912.6,10.75z M572.8,12.6c3.066,0.833,5.351,2.383,6.851,4.65
		c1.699,2.6,1.633,5.083-0.2,7.45c-2.566,2.533-4.184,4.566-4.851,6.1l-8-1c-6.233,0.5-9.933-0.566-11.1-3.2
		c-0.3-0.667-0.384-1.934-0.25-3.8c0.1-1,0.217-2.333,0.35-4c0.067-2.966,0.851-4.933,2.351-5.9c1.166-0.733,3.366-1.1,6.6-1.1
		C568.05,11.8,570.8,12.067,572.8,12.6z M645.4,40.75c-0.167,1.5-1.101,2.183-2.801,2.05l-5,1c-0.233-2.367,0.284-4,1.551-4.9
		c0.366-0.267,2.033-0.917,5-1.95C645.15,38.15,645.566,39.417,645.4,40.75z M608.7,49.05l0.05-0.25
		c0.566-1.533,2.184-3.05,4.85-4.55c2.134-1.2,4.15-2.017,6.051-2.45c3.199-0.7,5.633-1.1,7.3-1.2c3.133-0.233,5.45,0.167,6.95,1.2
		c1.633,1.067,2.533,2.917,2.699,5.55l-15.8,1.05c-0.366,0-0.916,0.033-1.649,0.1L608.7,49.05z M393.3,45.6
		c-0.4-0.6-0.65-1.2-0.75-1.8c-0.333-2.267,0.417-3.75,2.25-4.45c1-0.367,2.85-0.55,5.55-0.55c0.033,0,1.5-0.066,4.4-0.2
		c1.733-0.1,3.083,0.017,4.05,0.35l4.5-3.95c-1-0.833-1.183-2.183-0.55-4.05c3.133-0.333,6.033-0.333,8.7,0
		c0.267,0.6,0.316,1.216,0.15,1.85v3c-1.867,0.1-3.3,0.15-4.3,0.15c-1.833-0.034-3.133-0.333-3.9-0.9l-4,4.1
		c1.067,0.5,1.883,1.3,2.45,2.4c0.6,1.2,0.917,2.583,0.95,4.15L393.3,45.6z M264.65,46.5l-1.7,0.05l12.7-9.75
		C272.75,40.233,269.083,43.467,264.65,46.5z M249.45,46.65h-0.7l13.9-10.85C259.283,39,254.883,42.617,249.45,46.65z M32.65,43.8v1
		l-0.2-0.45L32.65,43.8z M17.8,49.8l1.1-0.65c-0.2-0.867-0.267-2.25-0.2-4.15c4.233-1.3,6.617-2,7.15-2.1
		c3.6-0.7,5.8-0.217,6.6,1.45c-0.967,2.467-2.034,4.283-3.2,5.45H17.8z M884.55,0c-0.434,1.233-1.684,2.717-3.75,4.45
		c-0.166,0.1-1.934,1.417-5.3,3.95c0.366,2.267,0.083,4.117-0.85,5.55c-1.067,1.633-2.75,2.25-5.051,1.85
		c-0.699,0.2-1.333,0.2-1.899,0c-2.101,1.867-3.8,2.867-5.101,3l4.101-3.5c-0.967-0.733-1.566-1.75-1.8-3.05
		c-0.233-1.367,0.05-2.45,0.85-3.25c0.833-0.767,2.316-1.217,4.45-1.35l1.25-0.85l-0.95,0.85c1.233-0.033,2.8,0.067,4.7,0.3L884.4,0
		H884.55z M873.35,5c0.733-0.633,1.483-1.033,2.25-1.2l-4.149,3C872.45,5.8,873.083,5.2,873.35,5z M800.95,0h24.399
		c-3.533,1.3-6.1,2.167-7.699,2.6c-2.867,0.8-5.534,1.2-8,1.2c-2.233,0.034-3.867-0.133-4.9-0.5c-1.366-0.5-2.6-1.566-3.7-3.2
		L800.95,0z M775.65,35.1c-1.301,0.933-3.25,2.017-5.851,3.25c-3.066,1.467-5.033,2.45-5.899,2.95l8.75-5.85
		c-3.801,0.466-6.75,0.533-8.851,0.2l-0.1-0.15c-2.5,1.833-5.533,3.933-9.101,6.3l8.9-6.9c-1.134-2.867-1.65-4.633-1.55-5.3
		c0.2-1.133,1.666-2.05,4.399-2.75c2.867-0.7,5.884-1.133,9.051-1.3l2.199-1.75l-1.8,1.75c3.2-0.1,6.084,0.034,8.65,0.4
		c0.1,0.767,0.149,2.716,0.149,5.85l-2,3C780.866,34.7,778.55,34.8,775.65,35.1z M689.45,16c1.033-1.467,4.366-1.817,10-1.05
		c0.467,3.633,0.333,5.983-0.4,7.05c-0.833,1.167-2.983,1.767-6.45,1.8h-3c0.067-0.6-0.1-1.983-0.5-4.15
		C688.767,17.983,688.884,16.767,689.45,16z M540.8,21c0.667-0.9,2.033-1.367,4.101-1.4c0.8-0.033,2.333,0.083,4.6,0.35
		c0.3,2.9,0.283,5.466-0.05,7.7c-0.566-0.066-0.967,0.067-1.2,0.4c-0.366,0.467-0.583,0.717-0.65,0.75l-4-1
		c-1.199-0.667-2.133-1.633-2.8-2.9C540,23.4,540,22.1,540.8,21z M479.75,0h44.55c2.467,2.7,3.367,5.583,2.7,8.65
		c-0.733,3.333-3.2,5.05-7.4,5.15l-5-1c-1.899,1.333-5.75,1.95-11.55,1.85c-5.366-0.066-9.434-0.583-12.2-1.55
		c-1.8-0.6-3.85-2.133-6.149-4.6c-3,2.233-5.367,3.667-7.1,4.3l6.6-4.9C481.833,5.167,480.35,2.533,479.75,0z M437.55,0h11.5
		c-0.333,3.133-0.8,5.133-1.4,6c-1.066,1.633-3.017,1.867-5.85,0.7c-1.3-0.534-2.367-1.434-3.2-2.7
		C437.7,2.667,437.35,1.333,437.55,0z M400.65,1.75c1.934,0.733,3.133,2.117,3.6,4.15c0.2,0.8,0.317,2.767,0.35,5.9l-3.95,3
		c-0.467-1.1-2.65-1.517-6.55-1.25c-4.033,0.267-6.617-0.566-7.75-2.5c-0.9-1.6-1.15-3.117-0.75-4.55c0.433-1.4,1.433-2.55,3-3.45
		c1.233-0.7,3.2-1.216,5.9-1.55C397.267,1.167,399.317,1.25,400.65,1.75z M373.75,18.95c-0.333-0.6-0.35-1.317-0.05-2.15
		c0.733-2.133,2.367-3.017,4.9-2.65c0.133,1.8,0.15,3.35,0.05,4.65l-3,1C374.75,19.9,374.117,19.617,373.75,18.95z M348.8,36.95
		c1.867-0.233,3.05-0.333,3.55-0.3c1.433,0.067,2.467,0.517,3.1,1.35c1.433,1.9,1.167,3.467-0.8,4.7c-0.033,0.033-1.7,0.733-5,2.1
		l-1-4C348.45,40.033,348.5,38.75,348.8,36.95z M274.35,33.3c1.267,1.034,0.7,2.534-1.7,4.5l-4.8,0.1c-1.7-0.033-2.833-0.4-3.4-1.1
		c-0.667-0.833-0.883-2.45-0.65-4.85c1.6-0.2,3.367-0.233,5.3-0.1c2.367,0.2,4.033,0.617,5,1.25c6.967-5.233,12.783-9.3,17.45-12.2
		L274.35,33.3z M307.65,12.5l2-0.7c-0.566,0.6-1.233,0.934-2,1v0.05c0.067,1.767,0.05,3.066-0.05,3.9
		c-0.167,1.5-0.733,2.617-1.7,3.35c-0.667,0.533-1.816,0.867-3.45,1c-1.833,0.133-3.1,0.367-3.8,0.7l-3-1l-4.1,0.1
		c-2.033,0-3.566-0.133-4.6-0.4c-1.434-0.4-2.5-1.133-3.2-2.2c-4.5,3.534-8.867,6.034-13.1,7.5l12.6-8.55
		c-0.367-0.9-0.567-2.033-0.6-3.4c0-0.633-0.1-2.033-0.3-4.2c-0.1-1.967,0.1-3.267,0.6-3.9c0.8-1.067,3.117-1.55,6.95-1.45
		c2.033,0.067,4.617,0.233,7.75,0.5c4.467,0,7.117,0.233,7.95,0.7C307.033,6.3,307.717,8.633,307.65,12.5z M167.65,6.8
		c2.333,0.233,3.867,0.684,4.6,1.35c0.8,0.733,1.267,2.283,1.4,4.65c0.133,2.233-0.333,3.95-1.4,5.15
		c-0.767,0.833-2.3,1.783-4.6,2.85l-6-1c-0.167-0.6-1.167-2.133-3-4.6c-1.3-1.733-1.633-3.534-1-5.4c0.567-1.733,1.9-2.767,4-3.1
		C162.75,6.5,164.75,6.533,167.65,6.8z M121.6,28.55c0.7-0.8,2.133-1.417,4.3-1.85c2.2-0.434,3.783-0.417,4.75,0.05
		c1.3,0.6,2.017,1.733,2.15,3.4c-0.1,2.1-0.15,3.65-0.15,4.65l-3,3c-1.333,0.1-2.4,0.167-3.2,0.2c-1.467,0.1-2.617,0.05-3.45-0.15
		L105.15,48.7h-0.2c5.966-3.833,11.9-7.467,17.8-10.9c-0.833-0.267-1.467-0.667-1.9-1.2c-0.567-0.733-0.717-2.133-0.45-4.2
		C120.633,30.433,121.033,29.15,121.6,28.55z M48.7,21.75c0.566,0.4,1.066,0.95,1.5,1.65c1.466-0.833,2.767-1.483,3.9-1.95
		l0.05-0.05l1.5-0.6l-5.25,2.95l0.25,0.55l-1.1,0.95l1.15-0.95c0.6,1.3,0.917,2.633,0.95,4c0.033,1.434-0.3,2.6-1,3.5l-5-1
		c-1.566,0.034-2.75,0.05-3.55,0.05c-1.434,0-2.633-0.033-3.6-0.1l-2.85,4.05c-0.3-1.7,0.333-3.45,1.9-5.25
		c-0.7-3.267-0.966-5.316-0.8-6.15c0.367-1.667,2-2.533,4.9-2.6c0.8,0,2.033-0.033,3.7-0.1C46.717,20.767,47.833,21.117,48.7,21.75z
		"/>
	<path style="fill-rule:evenodd;clip-rule:evenodd;fill:#1C1C18;" d="M901.8,56.75l56.8,0.05v4.8H0v-4.8h205.15
		c0.633,0.1,2.133,0.1,4.5,0H415.9l-4.15,2.05l4.35-2.05h477.5L901.8,56.75z"/>
	<rect y="61.6" style="fill-rule:evenodd;clip-rule:evenodd;fill:#94908C;" width="958.6" height="8.95"/>
	<polygon style="fill-rule:evenodd;clip-rule:evenodd;fill:#B6B2AC;" points="958.1,72.85 0,72.85 0,70.55 958.6,70.55 958.6,72.85 
			"/>
	
		<linearGradient id="SVGID_1_" gradientUnits="userSpaceOnUse" x1="70.3208" y1="-479.0483" x2="147.3208" y2="-479.0483" gradientTransform="matrix(1.298701e-005 1 -1 -0.001 -4.171049e-004 2.339896e-004)">
		<stop  offset="0" style="stop-color:#33322A"/>
		<stop  offset="1" style="stop-color:#515046"/>
	</linearGradient>
	<rect y="72.85" style="fill-rule:evenodd;clip-rule:evenodd;fill:url(#SVGID_1_);" width="958.1" height="77.95"/>
</g>
</svg>
