<?xml version="1.0" encoding="iso-8859-1"?>
<!-- Generator: Adobe Illustrator 16.0.0, SVG Export Plug-In . SVG Version: 6.00 Build 0)  -->
<!DOCTYPE svg PUBLIC "-//W3C//DTD SVG 1.1//EN" "http://www.w3.org/Graphics/SVG/1.1/DTD/svg11.dtd">
<svg version="1.1" id="FlashAICB" xmlns="http://www.w3.org/2000/svg" xmlns:xlink="http://www.w3.org/1999/xlink" x="0px" y="0px"
	 width="114.509px" height="542.521px" viewBox="0 0 114.509 542.521" style="enable-background:new 0 0 114.509 542.521;"
	 xml:space="preserve">
<g>
	<path style="fill-rule:evenodd;clip-rule:evenodd;fill:#5C564E;" d="M96.409,540.471l7.6-0.2l3.6-0.1l0.9,0.8l-54,1.55
		c-14.533-2.733-25.367-5.233-32.5-7.5c-6.733-2.134-10.1-4.384-10.1-6.75c0-2.866,5.867-4.767,17.6-5.7
		c4.333-0.333,8.983-0.583,13.95-0.75l0.05,0.4c-0.4-0.033-0.833,0.017-1.3,0.149c-1.133,0.301-2.85,0.434-5.15,0.4
		c-2.466-0.033-4.216,0.05-5.25,0.25c-0.633,0.134-1.4,0.4-2.3,0.8c-1.033,0.467-1.683,0.9-1.95,1.3
		c-0.533,0.733-0.35,1.45,0.55,2.15c0.1,0.066,0.917,0.517,2.45,1.35c0.333,0.167,1.333,0.634,3,1.4c1.233,0.566,2.2,1.1,2.9,1.6
		c0.733,0.5,1.667,1.034,2.8,1.601l2.9,1.399c0.7,0.367,1.567,0.75,2.6,1.15c0.6,0.233,1.517,0.566,2.75,1
		c0.7,0.3,1.6,0.783,2.7,1.45c1.167,0.7,2.033,1.184,2.6,1.45c1.034,0.5,2.217,0.883,3.55,1.149l0.15,0.2l0.2-0.1
		c0.133,0,0.267,0.017,0.399,0.05v0.05h0.051c0.733,0.1,1.5,0.184,2.3,0.25c0.899,0.066,3.25,0.1,7.05,0.1h17.3l-1.1-0.55
		L96.409,540.471z M61.684,540.671l2.625,0.05h-2.149C62,540.695,61.842,540.678,61.684,540.671z"/>
	<path style="fill-rule:evenodd;clip-rule:evenodd;fill:#262521;" d="M110.009,4.021c-0.3,0-0.583-0.017-0.85-0.05
		c-4.5-0.2-9.217-0.367-14.15-0.5c-6.2-0.167-11-0.167-14.4,0c-2.366,0.1-4.066,0.283-5.1,0.55c-1.6,0.4-5.467,1.067-11.6,2
		c-3.334,0.5-5.817,0.95-7.45,1.35c-0.9,0.233-1.55,0.45-1.95,0.65c-0.133,0.067-0.25,0.133-0.35,0.2
		c-0.933,0.566-1.267,1.316-1,2.25c0.033,0.1,0.067,0.2,0.1,0.3c0.5,1.967,0.75,3.05,0.75,3.25c0,1.267-0.15,2.783-0.45,4.55
		l-0.45,2.25c-0.167-0.466-0.45-1-0.85-1.6c-0.8-1.167-1.717-2.067-2.75-2.7s-2.367-1.05-4-1.25l-2.1-0.15l-0.55-3.35
		c-4.233-0.267-10.4-0.617-18.5-1.05c-14.6-0.767-22.567-1.333-23.9-1.7c-1.767-0.467,1.566-1.417,10-2.85
		c8.3-1.433,14.367-2.15,18.2-2.15c3,0,7.167-0.333,12.5-1c3.333-0.4,9.783-1.233,19.35-2.5c6.8-0.833,17.1-0.667,30.9,0.5
		c6.866,0.6,13.066,1.267,18.6,2l-0.75,0.85C109.592,3.938,109.842,3.988,110.009,4.021z"/>
	<path style="fill-rule:evenodd;clip-rule:evenodd;fill:#AAA69D;" d="M109.759,537.521l0.05-0.85l0.601-8.4
		c0.199-3.366,0.316-6.517,0.35-9.45l-0.5-33.575c0.034-1.57,0.06-3.221,0.075-4.949l0.375-29.825c0-1.233,0.017-2.417,0.05-3.55
		v-5.7c0-0.334,0-0.65,0-0.95c0-7.967-0.083-14.384-0.25-19.25c-0.667-18.667-1-53.983-1-105.95v-0.05c0-5.714,0.1-14.164,0.3-25.35
		l0.675-25.025c0.009-0.294,0.018-0.586,0.025-0.875l0.65-26.1c0-0.167,0-0.35,0-0.55l0.1-5.9l0.05-0.15v-0.35v-0.1
		c0.134-8.118,0.2-14.651,0.2-19.6c0-10.333-0.167-37.167-0.5-80.5s-0.5-70.167-0.5-80.5c0-13-0.066-23.883-0.2-32.65l-0.2-9.95
		c0.134,0.167,0.284,0.333,0.45,0.5l0.15,0.2c0.5,5.833,0.934,15.267,1.3,28.3c0.333,12.233,0.833,21.633,1.5,28.2
		c0.667,79.533,1,128.333,1,146.4c0,10.5-0.35,28.083-1.05,52.75c-0.7,24.667-1.05,41.75-1.05,51.25c0,52,0.35,87.333,1.05,106
		c0.366,9.7,0.366,25.616,0,47.75c-0.334,20.366-0.334,32.783,0,37.25c0.5,6.9,0.366,15.684-0.4,26.35
		C111.559,533.871,110.459,535.587,109.759,537.521z M108.959,540.071l-0.05,0.05l-1.301,0.051l-3.6,0.1l2.15-0.1L108.959,540.071z
		 M57.159,541.021h-0.051v-0.05L57.159,541.021z"/>
	<path style="fill-rule:evenodd;clip-rule:evenodd;fill:#928E86;" d="M110.309,17.371c0.134,8.767,0.2,19.65,0.2,32.65
		c0,10.333,0.167,37.167,0.5,80.5s0.5,70.167,0.5,80.5c0,4.949-0.066,11.482-0.2,19.6v0.1c-0.6,2.033-1.583,3.95-2.95,5.75
		c-2.1,2.8-3.833,5.433-5.199,7.9l-2.5,4.3c-1.434,0.7-3.851,0.967-7.25,0.8c-3.7-0.3-6.167-0.45-7.4-0.45
		c1.3,0.033,2.783,0.233,4.45,0.6c0.934,0.233,2.333,0.566,4.2,1l0.149,0.4l0.05,0.1l-0.35,0.05c-1,0.133-2.517,0.55-4.55,1.25
		c-1.934,0.667-3.533,1.067-4.8,1.2c-0.233,0.033-0.801,0.05-1.7,0.05c-0.167-0.033-0.367-0.05-0.601-0.05
		c-1.033-0.033-1.816-0.017-2.35,0.05l0.65-0.65c-2.067,0.133-3.667,0.2-4.801,0.2c-2,0-3.517-0.317-4.55-0.95
		c-0.366-0.233-0.833-0.75-1.399-1.55c-0.534-0.767-1-1.284-1.4-1.55c-0.3-0.2-0.833-0.35-1.6-0.45c-0.834-0.1-1.367-0.2-1.601-0.3
		c-0.267-0.133-0.533-0.267-0.8-0.4l-1.8-1.2c-0.467-0.367-0.9-0.75-1.3-1.15c-1.2-1.2-2.117-2.483-2.75-3.85
		c-0.2-0.433-0.434-1.083-0.7-1.95l0.05-1.5l-0.2-0.05l0.2-4.6c0.366-7.4,0.634-22.867,0.8-46.4
		c0.101-13.4,0.217-34.283,0.351-62.65c0.899-0.433,2.066-1.267,3.5-2.5v2.85c0.699-0.8,1.767-1.283,3.199-1.45
		c1.367-0.167,2.534,0.034,3.5,0.6c0.667,0.4,1.217,1.15,1.65,2.25c0.566,1.467,0.95,2.333,1.15,2.6
		c0.333,0.5,1.083,1.217,2.25,2.15c0.833,0.667,1.366,1.517,1.6,2.55c0.167,0.767,0.217,1.833,0.15,3.2
		c-0.101,1.4-0.167,2.434-0.2,3.1c0.1-0.967,1-2.3,2.7-4c1.466-1.467,1.75-2.967,0.85-4.5c-0.4-0.7-1.1-1.483-2.1-2.35l1.699,1.2
		c1,1.733,1.25,3.25,0.75,4.55c-0.166,0.4-0.6,0.934-1.3,1.6c-0.2,0.2-0.383,0.383-0.55,0.55c-0.434,0.434-0.717,0.817-0.85,1.15
		c-0.567,1.367-0.733,2.75-0.5,4.15c0.267,1.733,1.199,2.983,2.8,3.75c0.633,0.3,2.3,0.783,5,1.45c0.8,0.467,2.149,1.05,4.05,1.75
		c-0.833-0.667-2.184-1.25-4.05-1.75c-0.634-0.333-1.233-0.733-1.8-1.2c-0.134-0.133-0.25-0.267-0.351-0.4
		c-0.366-0.967-0.916-1.883-1.649-2.75c-0.834-0.934-1.7-1.517-2.601-1.75c0-0.034,0-0.067,0-0.1c0.134-1.1,0.584-2.2,1.351-3.3
		c0.699-1.033,1.8-2.6,3.3-4.7c2.967,2.867,4.767,5.833,5.399,8.9c0.034,0.1,0.134,0.617,0.301,1.55
		c-0.434-0.767-1.017-1.533-1.75-2.3c-0.834-0.833-1.517-1.833-2.051-3c-0.3-0.667-0.733-1.833-1.3-3.5v2
		c0.467,0.5,0.667,1.15,0.601,1.95c-0.067,1.033-0.051,1.716,0.05,2.05c0.166,0.567,0.434,1.05,0.8,1.45
		c0.7,0.8,1.066,1.216,1.1,1.25c0.267,0.333,0.733,1.15,1.4,2.45c0.566,1.1,1.1,1.883,1.6,2.35l0.051,0.95l0.05,0.15l0.2,2.1
		c0.133,0.767,0.583,2.05,1.35,3.85c0.5,1.2,0.783,2.284,0.85,3.25c-0.033-0.767-0.133-1.733-0.3-2.9
		c-0.267-1.767-0.399-3.017-0.399-3.75v-8.65c0-2.467-0.101-4.15-0.301-5.05c-0.399-1.567-1.3-2.95-2.699-4.15
		c-0.267-0.233-0.7-0.55-1.301-0.95c-0.166-0.167-0.35-0.333-0.55-0.5c-0.6-0.467-1.166-0.817-1.7-1.05
		c-0.833-0.566-1.483-1.083-1.949-1.55c-0.167-0.133-0.967-0.983-2.4-2.55c-0.934-1.034-1.8-1.833-2.6-2.4
		c-1.167-0.6-1.934-1-2.301-1.2c-0.533-0.333-1-1.083-1.399-2.25c-0.8-2.3-1.283-3.55-1.45-3.75c-0.467-0.667-1.434-1.2-2.9-1.6
		c-0.866-0.567-1.949-1-3.25-1.3c-0.024-0.016-0.05-0.033-0.074-0.05c-0.501-0.311-0.926-0.578-1.275-0.8
		c-1.3-0.5-2.25-0.9-2.85-1.2l-0.15-0.65c-0.033,0.133-0.05,0.3-0.05,0.5c-0.167-0.1-0.283-0.183-0.351-0.25
		c-0.566-0.467-1.017-1.35-1.35-2.65c-0.267-1.033-0.417-2.067-0.45-3.1c0.167-14.467,0.4-23.8,0.7-28l0.35-5.95
		c0.601-0.7,1.384-1.167,2.351-1.4l0.7-0.15l-0.75,0.2l2,2c0.733,0.033,1.8,0.383,3.199,1.05c1.301,0.633,2.45,0.95,3.45,0.95
		c1.4-0.034,2.8-0.233,4.2-0.6c0.833-0.233,2.167-0.65,4-1.25c1.967-0.633,4.184-1.083,6.65-1.35l2.649-0.4
		c2.934-0.2,6.167-0.317,9.7-0.35l-6.75-0.05c0.533-0.067,1.05-0.067,1.55,0h0.4c-1.3-1.3-4.634-1.483-10-0.55l-5.65-0.95
		c-0.767-0.133-1.583-0.233-2.45-0.3c-1.333-0.133-3.333-0.2-6-0.2h-0.3h-2.6c-1.367,0.1-2.417,0.15-3.15,0.15
		c-1.3,0-2.283-0.2-2.95-0.6c0.301-4.967,0.667-12.333,1.101-22.1l0.149-0.3c1-2.033,1.717-3.217,2.15-3.55
		c0.6-0.433,2.017-0.733,4.25-0.9c1.667-0.133,3.983-0.816,6.95-2.05c2.934-1.2,5.233-1.867,6.899-2c3.2-0.267,7.867-0.75,14-1.45
		c5.434-0.533,10.051-0.767,13.851-0.7l-0.15-14.7C110.275,20.054,110.275,18.671,110.309,17.371z M63.159,71.721l4.8-0.05
		l0.55,0.05c0.967-0.034,2.134,0.1,3.5,0.4c0.767,0.167,1.917,0.417,3.45,0.75C71.893,73.238,67.792,72.854,63.159,71.721z
		 M42.659,43.321l-0.2,11.2v-2.1c0-1.5,0.017-3,0.05-4.5C42.542,46.354,42.592,44.821,42.659,43.321z M71.209,120.621
		c0.399,0.2,0.666,0.45,0.8,0.75c0.066,0.133,0.167,0.517,0.3,1.15L71.209,120.621z M111.159,237.121c0,0.2,0,0.383,0,0.55
		c-0.834,0.6-1.767,1.667-2.801,3.2c-1.033,1.633-1.716,2.683-2.05,3.15c-1.434,2.033-2.517,3.633-3.25,4.8
		c-1.3,2.034-2.149,3.667-2.55,4.9h-1.25c0.4-0.7,0.583-1.367,0.55-2c0.4-1.767,1.533-3.65,3.4-5.65c2.5-2.633,3.967-4.3,4.399-5
		C108.775,239.204,109.959,237.888,111.159,237.121z M109.509,315.071c-0.3,1.5-0.75,3.4-1.35,5.7
		c-0.967,3.634-1.483,5.583-1.551,5.85c-0.733,2.934-1.449,7.267-2.149,13c-0.733,5.767-1.45,10.067-2.15,12.9
		c-0.434,1.7-0.649,3.816-0.649,6.35c0.1,2.934,0.149,5.101,0.149,6.5c-0.133-1.066-0.583-2.033-1.35-2.899
		c-0.867-0.934-1.767-1.217-2.7-0.851c-0.667,0.267-1.15,1.351-1.45,3.25c-0.267,1.601-1.066,2.367-2.399,2.301
		c-0.267,0.366-0.267,0.733,0,1.1c1.133-0.134,2.017,0.316,2.649,1.35c0.8,1.267,1.434,1.983,1.9,2.15
		c0.434,0.167,1.083,0.033,1.95-0.4c0.899-0.433,1.55-0.583,1.949-0.449c0.934,0.3,1.551,1.05,1.851,2.25
		c0.2,1.433,0.35,2.466,0.45,3.1c0.399,2.333,0.583,5.333,0.55,9c-0.033,5.7-0.05,8.75-0.05,9.15c0.066,2.6,0.333,6.383,0.8,11.35
		c0.033,0.333,0.316,2.217,0.85,5.65c0.367,2.267,0.483,4.133,0.351,5.6c-0.134,2.066-0.834,4.983-2.101,8.75
		c-0.066,0.167-0.333,1.217-0.8,3.15c-0.4,1.533-0.75,2.5-1.05,2.899c-0.233,0.3-0.884,0.617-1.95,0.95
		c-0.866,0.267-1.333,0.75-1.4,1.45c0.7,0.533,2.067,0.717,4.101,0.55c1.967-0.2,3.184-0.033,3.649,0.5
		c0.567,0.634,0.667,1.566,0.301,2.8c-0.301,0.967-0.733,1.816-1.301,2.55c-0.333,0.434-0.949,0.95-1.85,1.551
		c-0.866,0.6-1.434,1.1-1.7,1.5l-0.55,2.85c-0.167,1.7-0.35,3-0.55,3.9c-0.334,1.666-0.967,2.566-1.9,2.699
		c1.233-0.033,2.184-0.666,2.851-1.899c0.366-0.733,0.899-1.934,1.6-3.601c2.267-3.6,4.267-5.983,6-7.149l0.25-0.2
		c0,0.3,0,0.616,0,0.95c-2.566,4.633-4.233,7.899-5,9.8c-0.866,1.634-1.3,3.333-1.3,5.1c-0.367,0.667-0.601,1.067-0.7,1.2
		c-0.3,0.267-0.7,0.65-1.2,1.15c-2.434,2.566-4.45,4.116-6.05,4.649c-0.467,0.134-1.467,0.233-3,0.301
		c-1.233,0.033-2.233,0.283-3,0.75c-0.8,0.466-1.417,1.017-1.85,1.649c-3.733,1.4-6.483,2.55-8.25,3.45
		c-0.2,0.1-0.817,0.55-1.851,1.35c-0.934,0.7-1.583,1.084-1.95,1.15c-0.8,0.167-1.483,0.167-2.05,0
		c-0.733-0.267-1.416-0.517-2.05-0.75c-1.1-0.267-1.866-0.467-2.3-0.6c-0.733-0.267-1.367-0.684-1.9-1.25
		c-0.267-0.301-0.55-0.884-0.85-1.75c-0.267-0.834-0.584-1.417-0.95-1.75c-0.667-0.667-1.667-1.284-3-1.851
		c-1.333-1-2.167-1.7-2.5-2.1c-0.533-0.667-1.184-1.816-1.95-3.45c-0.833-1.9-1.467-3.167-1.899-3.8v-0.75l-0.5-0.351
		c-0.367-1.199-0.75-2.149-1.15-2.85l0.3-15.15l0.1,0.9c1.867,0.533,3.433,0.017,4.7-1.55c0.567-0.7,1.351-2.217,2.351-4.55
		c0.8-1.867,1.816-3.034,3.05-3.5c0.9-0.334,2.5-0.417,4.8-0.25c-1.899-1.367-2.916-2.117-3.05-2.25
		c-1.167-0.867-2.033-1.684-2.6-2.45c-0.2-0.233-0.434-0.667-0.7-1.3c-0.267-0.667-0.517-1.134-0.75-1.4
		c-0.2-0.267-0.634-0.583-1.3-0.95c-0.567-0.3-0.95-0.684-1.15-1.149c-0.467-0.967-0.634-2.733-0.5-5.301
		c0.1-1.366,0.233-3.149,0.4-5.35v-14.4c0-2.066,0.333-5.133,1-9.199c0.699-4,1.033-7.051,1-9.15c0-1.2-0.917-4.733-2.75-10.6
		c-1.334-5.367-1.084-8.217,0.75-8.551h-2.65c0.167,7.733,0.25,13.534,0.25,17.4c0.066,6.866-0.2,12.634-0.8,17.3
		c-0.434,3.434-0.684,7.45-0.75,12.05c-0.033,0.9-0.05,4.95-0.05,12.15c0,1.866-0.101,4.333-0.3,7.4c-0.233,3.666-0.367,6.1-0.4,7.3
		c-0.034,0.6-0.117,1.45-0.25,2.55c-0.2,1.3-0.317,2.184-0.35,2.65c0.867-43.733,1.3-68.45,1.3-74.15v-8.6
		c0.666,0.533,1.449,0.75,2.35,0.649c2.434,0.367,5.184,0.367,8.25,0c0.434,1.066,0.95,2.117,1.55,3.15
		c0.601,1.033,1.167,1.767,1.7,2.2c0.134,0.133,0.634,0.333,1.5,0.6c0.9,0.9,1.35,2.116,1.35,3.65
		c-0.166,1.866-0.183,3.316-0.05,4.35l0.05,0.7c-0.133-0.467-0.449-0.967-0.949-1.5c-0.534-0.566-0.851-1-0.95-1.3
		c-0.167-0.434-0.217-1.084-0.15-1.95c0.066-0.967,0.066-1.617,0-1.95c-0.166-1.066-0.7-2.017-1.6-2.85
		c-1.5-1.4-2.351-2.217-2.55-2.45c-0.767-0.967-1.184-1.483-1.25-1.55c-0.2-0.167-0.817-0.317-1.851-0.45
		c-0.7-0.101-1.816-0.217-3.35-0.351c-1.467-0.1-2.601-0.216-3.4-0.35l2,2c0.367,0.634,1.184,1.116,2.45,1.45
		c1.5,0.399,2.467,0.8,2.9,1.2c-0.034-0.034,0.166,0.483,0.6,1.55c0.167,0.166,0.5,0.366,1,0.6c0.566,0.2,0.934,0.384,1.1,0.55
		c0.567,0.567,0.9,1.017,1,1.351c0.233,0.967,0.384,1.533,0.45,1.7c0.2,0.533,0.8,1.783,1.8,3.75c0.767,1.5,1.233,2.783,1.4,3.85
		c0.033,1.634,0.1,2.866,0.2,3.7c0.166,1.5,0.733,2.483,1.7,2.95c-0.134-1.167-0.167-3.267-0.101-6.301
		c0.3,2.167,0.75,3.851,1.351,5.051c0.5,0.866,0.833,1.483,1,1.85c0.333,0.6,0.517,1.3,0.55,2.1c0,0.5-0.134,1.334-0.4,2.5
		c-0.267,1.134-0.383,2.017-0.35,2.65c0.066-0.767,0.399-2.05,1-3.85c0.5-1.467,0.684-2.75,0.55-3.851
		c-0.066-0.633-0.283-1.533-0.65-2.7c-0.366-1.267-0.6-2.166-0.699-2.699c-0.034-0.2-0.15-3.084-0.351-8.65
		c-0.133-4.1-0.666-6.783-1.6-8.05l-0.351,0.649c-0.166-0.466-0.666-1.033-1.5-1.699c-1.033-0.801-1.649-1.334-1.85-1.601
		c-1.167-1.434-2.4-3.434-3.7-6c-2.267-4.566-3.434-9.25-3.5-14.05l-0.6,0.85c-0.066-2.966-0.566-5.449-1.5-7.449
		c-0.767-1.567-1.55-3.634-2.351-6.2c-1.199-3.767-1.883-5.9-2.05-6.4l-0.05-0.149c0.134-29.534,0.4-51.45,0.8-65.75
		c0.467,0.567,1.017,0.95,1.65,1.15c0.666,0.2,1.316,0.15,1.95-0.15h0.05l0.05,0.05c0.134,0.2,0.616,0.767,1.45,1.7
		c0.566,0.667,1,1.233,1.3,1.7l0.6,1.15c-0.033,1.2,0.384,2.3,1.25,3.3l0.601,1.7c0.1,0.267,0.333,0.517,0.7,0.75
		c0.399,0.233,0.633,0.433,0.699,0.6c0.134,0.2,0.184,0.483,0.15,0.85c0,0.367,0.05,0.65,0.15,0.85
		c0.533,0.934,0.983,1.583,1.35,1.95c0.233,0.267,0.6,0.6,1.1,1l0.7,1.85l0.05-1.35l1.15,0.7l-0.45-0.25l-0.05,0.2
		c-0.233,0.6-1.15,1.717-2.75,3.35c-1.333,1.367-1.95,2.417-1.85,3.15c0.1,0.934,0.983,2.017,2.649,3.25l2.2,1.699
		c1.467,1.301,2.3,2.567,2.5,3.801c4.7,0.6,7.983,0.716,9.85,0.35c1.067-0.2,2.233-0.95,3.5-2.25c1.567-1.566,2.667-2.533,3.301-2.9
		c0.267-0.166,0.966-0.416,2.1-0.75c0.967-0.267,1.583-0.566,1.85-0.899c0.733-0.867,1.067-2.717,1-5.55
		c-0.066-1.5-0.183-3.467-0.35-5.9c0-1.133,0.083-2.017,0.25-2.65c0.167-0.7,0.517-1.533,1.05-2.5l0.7-1.1
		c0.467,3.067,0.7,5.383,0.7,6.95c0.1-1.667,0.633-3.117,1.6-4.35c1.9-2.333,2.967-3.733,3.2-4.2c0.233-0.4,1.15-1.933,2.75-4.6
		c1.167-1.9,1.967-3.45,2.4-4.65c-0.067,5.033-0.084,11.317-0.051,18.85l0.051,18.9c0,3.533,0.216,6.199,0.649,8
		c-0.2,11.186-0.3,19.636-0.3,25.35V315.071z M110.709,450.471c-1.033,1.033-2.2,2.783-3.5,5.25c-1.467,2.767-2.55,4.6-3.25,5.5
		c-1.134,1.399-3.134,2.983-6,4.75c-3.733,2.3-6,3.767-6.8,4.399l-6.101,9.75l0.101-0.399c0.699-2.834,1.666-5.45,2.899-7.851
		c1.467-2.733,3.117-4.833,4.95-6.3c0.934-0.733,2.066-1.333,3.4-1.8c2.267-0.767,3.449-1.167,3.55-1.2
		c2.166-0.967,4.066-3.083,5.7-6.35c1.3-2.667,2.85-5.5,4.649-8.5l0.45-0.8C110.726,448.054,110.709,449.238,110.709,450.471z
		 M110.259,485.246c0-0.683,0-1.375,0-2.074c0.016-0.883,0.041-1.841,0.075-2.875C110.318,482.025,110.293,483.675,110.259,485.246z
		 M84.809,480.971c0.834-0.101,1.55-0.566,2.15-1.4c0.333-0.467,0.783-1.25,1.35-2.35c1.334-2.233,2.117-3.483,2.351-3.75
		c0.866-1.066,2.1-1.834,3.699-2.3c8.7-2.601,13.2-5.301,13.5-8.101c-0.033,2.533,0.167,5.983,0.601,10.351
		c0.467,4.933,0.7,8.583,0.7,10.949v31.65c-0.134,1.366-0.217,2.583-0.25,3.65c-0.101,2,0.017,3.149,0.35,3.449
		c0.533,0.434,0.967,0.617,1.3,0.551c0.066-1.667,0.134-3.284,0.2-4.851c-0.033,2.934-0.15,6.084-0.35,9.45l-0.601,8.4
		c-1.1,0.366-1.767,0.566-2,0.6c-0.666,0.167-1.45,0.25-2.35,0.25h-8.7c-0.566-1.634-0.884-2.667-0.95-3.1
		c-0.1-0.801-0.017-2.034,0.25-3.7c0.2-1.434,0.184-2.55-0.05-3.351c-0.4-1.3-1.05-2.399-1.95-3.3c-0.7-0.733-1.717-1.45-3.05-2.149
		c-3.033-1.7-5.517-4.233-7.45-7.601l-0.399-1.3l-0.5-1c0.3-1.167,0.466-2.167,0.5-3c0.033-0.866-0.15-1.983-0.551-3.35
		c-0.466-1.601-0.733-2.7-0.8-3.301c-0.066-0.666-0.116-1.783-0.149-3.35c-0.067-1.4-0.284-2.467-0.65-3.2
		c-0.1-0.2-0.384-0.467-0.85-0.8c-0.467-0.3-0.75-0.566-0.851-0.8c-0.166-0.367-0.233-0.917-0.2-1.65c0.067-0.6-0.05-1.033-0.35-1.3
		c0.167-0.5,0.283-0.8,0.35-0.9c0.434-0.666,0.9-1.25,1.4-1.75c0.434,0.167,0.583,0,0.45-0.5l0.899-0.899
		c0.767-0.9,1.4-1.884,1.9-2.95C84.125,483.438,84.476,482.337,84.809,480.971z M84.259,474.271c-0.1,0.467-0.233,1.55-0.4,3.25
		c-0.133,1.4-0.316,2.483-0.55,3.25c-0.533,1.566-1.533,3.6-3,6.1c-0.2-0.199-0.566-0.449-1.1-0.75c-0.9-1.533-3.533-2.75-7.9-3.649
		c-4.1-0.834-6.6-2.65-7.5-5.45l-0.35,0.35l-0.7-1.25c0.866-0.466,1.384-0.783,1.55-0.949c0.4-0.4,0.684-1.117,0.851-2.15
		c0.267-1.3,0.449-2.833,0.55-4.6l0.6,0.8c0.8,1.1,1.351,1.75,1.65,1.95c0.366,0.233,1.217,0.416,2.55,0.55
		c0.333,0.033,1.283,0.133,2.85,0.3c1.301,0.134,2.233,0.2,2.801,0.2c-1.134,0.267-2.167,0.366-3.101,0.3
		c-1.133-0.033-2.217-0.3-3.25-0.8l-2,1.3c1.634,1.333,3.5,2.217,5.601,2.65c1.3,0.233,3.416,0.5,6.35,0.8
		c0.033,0.5,0.05,1.467,0.05,2.899c0,1.233,0.05,2.217,0.15,2.95c0.733-0.366,1.283-1.149,1.649-2.35
		c0.2-0.667,0.483-1.65,0.851-2.95C82.559,476.854,83.159,475.938,84.259,474.271z M95.759,253.271c0.167,0.467,0.3,0.817,0.4,1.05
		c0.267,0.633,0.767,0.833,1.5,0.6l0.25-0.1c0.033,0.867-0.45,1.8-1.45,2.8c-1.233,1.267-1.95,2.133-2.15,2.6
		c-0.333,0.667-0.517,1.55-0.55,2.65c0.033,1.267,0.05,2.217,0.05,2.85c0.101,1.433,0.15,2.517,0.15,3.25
		c-0.033,1.333-0.283,2.3-0.75,2.9c-0.367,0.433-1.15,0.95-2.351,1.55c-1.333,0.633-2.183,1.116-2.55,1.449
		c-1.899,1.7-3.333,2.784-4.3,3.25c-1.667,0.767-3.5,0.867-5.5,0.301c-1.167-0.334-2.434-1.334-3.8-3
		c-1.3-1.601-2.084-3.017-2.351-4.25c-0.3-0.066-0.55-0.183-0.75-0.35c-0.267-0.267-0.449-0.417-0.55-0.45
		c0.2-0.233,0.816-0.883,1.851-1.95c0.833-0.833,1.416-1.517,1.75-2.05c0.5-0.7,0.816-1.45,0.949-2.25
		c0.101-0.467,0.217-1.267,0.351-2.4c0.3-1.467,0.883-2.85,1.75-4.15c0.967-1.4,2.1-2.45,3.399-3.15c2.067,0.1,4.634-0.316,7.7-1.25
		c1.467-0.467,3.7-0.7,6.7-0.7c0.066,0.233,0.134,0.45,0.2,0.65c-1.167-0.133-2.3-0.033-3.4,0.3c-1.267,0.5-2.3,0.883-3.1,1.15
		c-1,0.3-2.217,0.467-3.65,0.5c-1.666-0.033-2.916-0.05-3.75-0.05l-1.3,0.7c0.8,0,2.017,0.033,3.65,0.1
		c1.466,0,2.683-0.033,3.649-0.1c0.434-0.067,1.65-0.383,3.65-0.95c1.399-0.4,2.6-0.5,3.6-0.3c0.167,0.733,0.184,1.3,0.05,1.7
		C95.809,255.171,96.025,254.204,95.759,253.271z M85.209,251.021c-0.867-0.033-1.517-0.067-1.95-0.1
		c0.167-1.167-0.134-1.883-0.9-2.15c-1.1-0.1-1.949-0.233-2.55-0.4c-1.033-0.267-1.866-0.7-2.5-1.3c-0.733-0.8-1.399-1.483-2-2.05
		c-0.166-0.167-1.017-0.783-2.55-1.85c-0.967-0.7-1.684-1.467-2.15-2.3c-0.333-0.633-0.699-1.483-1.1-2.55
		c-0.233-0.6-0.566-1.483-1-2.65c-0.8-2.066-1.25-4.017-1.35-5.85c-0.034-0.533,0-1.35,0.1-2.45c0-0.967-0.233-1.7-0.7-2.2
		c-0.3-0.367-1.217-0.983-2.75-1.85c-1.066-0.6-1.75-1.517-2.05-2.75c-0.333-1.333-0.533-3.133-0.6-5.4c0-0.433,0-2.25,0-5.45
		l-2,18.65c-0.167,3-0.233,5.283-0.2,6.85c0.033,2.8,0.6,4.917,1.7,6.35c0.866,1.133,2.1,2.267,3.699,3.4
		c0.767,0.5,2.2,1.367,4.301,2.6c0.267,0.167,0.666,0.25,1.199,0.25c0.467,0.034,0.851,0.2,1.15,0.5c0.2,0.2,0.45,0.633,0.75,1.3
		c0.267,0.633,0.566,1.066,0.9,1.3c0.466,0.367,1.083,0.583,1.85,0.65c0.434,0.067,1.1,0.117,2,0.15c1.267,0.1,3,0.117,5.2,0.05
		c2.566-0.067,4.316-0.083,5.25-0.05C86.525,251.321,85.942,251.088,85.209,251.021z M73.709,256.571
		c-0.3,1.967-0.517,3.467-0.65,4.5c-0.666-0.133-1.233-0.517-1.7-1.15c-0.466-1.433-1.199-2.617-2.199-3.55
		c-1.067-1.067-1.733-1.883-2-2.45c-0.233-0.533-0.483-1.667-0.75-3.4v-0.1c2.133,1.434,3.333,2.25,3.6,2.45
		c0.167,0.167,0.733,0.55,1.7,1.15c0.866,0.567,1.366,0.95,1.5,1.15C73.509,255.604,73.676,256.071,73.709,256.571z M80.509,253.721
		c-0.366,0.066-0.767,0.2-1.2,0.4c0.3-0.2,0.7-0.35,1.2-0.45V253.721z M63.709,255.471c0.267,0.8,0.483,1.367,0.649,1.7
		c0.267,0.5,0.9,1.383,1.9,2.65c0.833,1.067,1.366,1.967,1.6,2.7c0.134,0.467,0.184,1.2,0.15,2.2c-0.1,1.133-0.116,1.883-0.05,2.25
		c0.033-0.034,0.467-0.25,1.3-0.65c0.7-0.333,1.083-0.583,1.15-0.75c0.199-0.566,0.083-1.033-0.351-1.4
		c-0.566-0.467-0.883-0.833-0.95-1.1c-0.166-0.733-0.35-1.583-0.55-2.55c-0.2-0.7-0.616-1.467-1.25-2.3
		c-2.399-3.233-4.233-5.85-5.5-7.85l-1.3-0.65c-0.033,0.833,0.267,1.6,0.9,2.3c0.933,0.967,1.466,1.567,1.6,1.8
		C63.209,254.154,63.442,254.704,63.709,255.471z M73.059,261.071h0.15l-0.2,0.75L73.059,261.071z M74.959,264.271l0.1-0.2v0.2
		H74.959z M63.858,344.621c0.334,0.467,0.851,1.134,1.551,2c0.566,0.801,1.017,1.517,1.35,2.15c-0.566-0.066-1.283,0-2.15,0.2
		c-1,0.3-1.767,0.5-2.3,0.6c-0.899-0.166-1.566-0.316-2-0.45c-0.8-0.199-1.399-0.449-1.8-0.75c-0.467-0.333-0.917-0.767-1.35-1.3
		l0.05-26.25c0.366,0.601,1.184,1.8,2.45,3.601c0.449,0.625,0.858,1.316,1.225,2.074c-0.44-0.837-1.016-1.762-1.725-2.774v3.3
		c-0.134,0.733,0.017,1.634,0.449,2.7c0.534,1.333,0.834,2.217,0.9,2.649c0.066,0.7-0.017,1.601-0.25,2.7
		c-0.3,1.233-0.45,2.117-0.45,2.65c-0.033,1.633,0.316,3.017,1.05,4.149C61.459,342.771,62.459,343.688,63.858,344.621z
		 M62.009,329.821c0.134,0.7,0.267,1.717,0.4,3.05l0.449-0.5l-0.75,0.95C62.209,332.121,62.176,330.955,62.009,329.821z
		 M62.009,334.871l0.45,1.351c-0.167,2.7-0.184,4.416-0.05,5.149c-0.2-0.3-0.351-0.633-0.45-1c-0.2-0.699-0.267-1.583-0.2-2.649
		c0-0.3,0.066-1.184,0.2-2.65L62.009,334.871z M73.909,355.021c-0.4,0.333-0.834,0.55-1.301,0.65c-0.699-1.101-1.5-2.567-2.399-4.4
		C70.976,352.104,72.209,353.354,73.909,355.021z M57.108,346.971l0.051,0.1v0.05L57.108,346.971z M85.209,471.771
		c0.066-0.4,0.017-0.85-0.15-1.35c-1.366-0.134-3.217,0.149-5.55,0.85c0.6-0.366,1.55-0.95,2.85-1.75
		c0.467-0.233,1.25-0.384,2.351-0.45c1.3-0.033,2.1-0.1,2.399-0.2L85.209,471.771z M55.059,472.421
		c0.333,0.733,0.767,1.149,1.3,1.25c0.1-0.667,0.15-1.65,0.15-2.95c0-1.334,0.033-2.3,0.1-2.9c1.4-0.533,2.583,0.101,3.55,1.9
		c0.866,1.566,1.233,3.083,1.1,4.55c0.5,0.2,1.1,0.2,1.8,0c0.233-1.8,0.334-3.167,0.3-4.1c-0.033-1.767-0.366-2.983-1-3.65
		c-0.466-0.467-1.699-1.134-3.699-2c-1.734-0.767-2.867-1.634-3.4-2.6l0.1-4.551c0.233,1.934,0.767,3.434,1.6,4.5
		c0.5,0.601,1.267,1.2,2.3,1.801c0.566,0.3,1.417,0.75,2.55,1.35c0.867,0.533,1.617,1.066,2.25,1.6c0.367,2,0.517,3.467,0.45,4.4
		c-0.1,1.267-0.35,2.267-0.75,3c-0.167,0.3-0.816,1.134-1.95,2.5l-0.25,0.3l-0.25,0.2c-0.866,0.634-1.85,1.684-2.95,3.15
		l-1.35,0.699c-1.1,0.467-1.817,0.817-2.15,1.051L55.059,472.421z M57.209,455.521l-0.35-1.5l0.3,0.45L57.209,455.521z
		 M56.859,454.021c-0.367-0.533-0.833-1.017-1.4-1.45l1.2,0.8L56.859,454.021z M61.709,479.721v0.75l-0.15-0.7
		c-1,0.066-2.25,1.134-3.75,3.2c-1.566,2.1-2.233,3.684-2,4.75l-0.65,6.649c-0.066,2.2-0.1,3.867-0.1,5
		c-0.033,2,0.05,3.65,0.25,4.95c0.9-0.366,1.317-1.25,1.25-2.649c0-0.801-0.033-1.95-0.1-3.45c0.2-1.101,0.767-2.4,1.7-3.9
		c0.5-0.866,1.283-2.083,2.35-3.649c0.833-1.334,1.616-2.15,2.35-2.45s1.9-0.316,3.5-0.05c0.334,0.066,0.867,0.216,1.601,0.449
		c0.7,0.2,1.267,0.334,1.7,0.4c0.333,0.066,0.866,0.066,1.6,0c0.634-0.033,1.116,0.116,1.45,0.45c0.333,0.333,0.583,1.066,0.75,2.2
		c0.166,1.267,0.35,2.083,0.55,2.449c0.267,0.5,0.866,1.233,1.8,2.2c0.7,0.967,1.25,1.934,1.65,2.9c0.333,0.767,0.666,1.816,1,3.149
		c0.467,1.801,0.733,3.917,0.8,6.351c0.066,1.6,0.033,3.783-0.1,6.55c-1.034,2-1.584,3.05-1.65,3.15
		c-0.566,1.233-0.917,2.333-1.05,3.3c-0.033,0.399-0.101,1.517-0.2,3.35c-0.066,1.367-0.2,2.483-0.4,3.351
		c-0.6,2.399-1.533,4.116-2.8,5.149c-0.566,0.434-1.45,0.783-2.649,1.05c-1.5,0.267-2.367,0.45-2.601,0.551
		c-0.434-0.134-0.866-0.367-1.3-0.7c-1.467-1.267-2.233-1.917-2.3-1.95c-0.767-0.6-1.634-1.1-2.601-1.5
		c-0.733-0.233-1.25-0.4-1.55-0.5c-0.566-0.2-1.05-0.55-1.45-1.05c-0.133-0.167-0.316-0.483-0.55-0.95
		c-0.2-0.434-0.383-0.733-0.55-0.9c-0.2-0.199-0.567-0.416-1.1-0.649s-0.85-0.4-0.95-0.5c-0.567-0.634-0.967-1.7-1.2-3.2l0.55-38.75
		c0.534-0.5,1.133-1.2,1.8-2.1c0.4-0.467,0.983-1.217,1.75-2.25c0.567-0.367,1.117-0.851,1.65-1.45c0.2-0.233,0.717-0.867,1.55-1.9
		l0.351-0.25l-0.75,1.15C61.025,478.221,61.209,478.887,61.709,479.721z M73.309,485.521c0.2,0.033,0.483,0.05,0.851,0.05l0.149,0.3
		c-0.233-0.1-0.583-0.216-1.05-0.35H73.309z M78.009,486.721l1.6,1.3l-1.25,2.2c-0.1,0.233-0.366,0.6-0.8,1.1l0.5-0.149l-1.05,0.35
		c-0.267-0.7-0.434-1.533-0.5-2.5c-0.033-0.3-0.05-1.184-0.05-2.65L78.009,486.721z M76.858,491.571l0.051,0.05h-0.15
		L76.858,491.571z M67.108,484.771c-1.199-0.167-2.116-0.417-2.75-0.75c-0.8-0.366-1.433-0.967-1.899-1.8c0.767,1,2.1,1.733,4,2.2
		L67.108,484.771z M81.159,509.771l-0.051,0.3c-0.233,1.2-0.616,2.417-1.149,3.65l-0.3,0.6c0.833-2,1.316-3.483,1.449-4.45
		c0.034-1.399-0.133-3.066-0.5-5l-1.449-7.85c-0.134-0.866-0.434-1.634-0.9-2.3c-0.566-0.733-1-1.351-1.3-1.851l0.6-0.149
		c1.8,1.934,3.017,4.533,3.65,7.8C81.809,503.587,81.792,506.671,81.159,509.771z M83.809,515.021h-0.649
		c-0.267,1.167-0.117,2.4,0.449,3.7c0.667,1.5,1.601,2.017,2.801,1.55l0.35,0.6c-2,0.2-3.467,0.301-4.4,0.301
		c-1.699,0-2.55-0.717-2.55-2.15l-0.25,0.1c0.233-0.433,0.601-1.083,1.101-1.949c0.433-0.801,0.767-1.517,1-2.15l0.899-2.65
		c0.233,0.567,0.566,1.217,1,1.95L83.809,515.021z M79.159,515.621v-0.35l0.5-0.95L79.159,515.621z M82.159,522.371
		c1.399,0.301,3.25,0.301,5.55,0c0.5,0.667,0.8,1.051,0.899,1.15c0.301,0.333,0.95,0.767,1.95,1.3c0.967,0.533,1.617,1,1.95,1.4
		c0.866,1,1.434,2.149,1.7,3.45c0.166,0.833,0.267,2.183,0.3,4.05c0,1.333,0.134,2.6,0.4,3.8c-5.367-0.066-8.884-0.033-10.551,0.1
		c-1.3,0.167-2.267,0.284-2.899,0.351c-1.134,0.133-2.101,0.166-2.9,0.1c-0.934,0.101-1.883-0.066-2.85-0.5
		c-0.334-0.3-0.533-0.649-0.601-1.05c-0.733-0.366-1.6-0.6-2.6-0.7c0.967-0.1,1.65-0.35,2.05-0.75c0.434-0.434,0.634-1,0.601-1.7
		c-0.067-1-0.084-1.6-0.051-1.8c0.134-0.6,0.417-1.333,0.851-2.2c0.566-1.133,0.916-1.866,1.05-2.199
		c0.4-1.067,0.833-2.684,1.3-4.851C79.409,522.421,80.692,522.438,82.159,522.371z M51.109,511.771l0.05-0.05l-0.05,2.2V511.771z
		 M51.709,525.421l-0.2-0.4l-0.25-2.05c-0.133-1.434-0.2-3.101-0.2-5C51.159,520.405,51.375,522.887,51.709,525.421z
		 M97.108,540.421l8.101-0.25h0.95l-2.15,0.1l-7.6,0.2L97.108,540.421z M56.509,516.371l-1.35,2.65c0,2.833,0.533,5.233,1.6,7.2
		c1.434,2.6,3.55,3.5,6.35,2.7c-0.699-0.634-1.05-1.45-1.05-2.45c-0.033-1.533-0.083-2.45-0.149-2.75
		c-0.233-0.8-1.017-2.066-2.351-3.8C58.426,518.455,57.409,517.271,56.509,516.371z M80.108,525.021l-0.949-0.65v0.65H80.108
		c1.034,0.634,2.15,1.116,3.351,1.45c0.899,0.233,2.133,0.416,3.7,0.55c0.6,0.066,1.25,0.134,1.949,0.2
		c0.5,0.133,1.017,0.5,1.551,1.1c0.1,0.101,0.383,0.717,0.85,1.851c0.233,0.666,0.75,0.933,1.55,0.8c1-2.867-0.3-4.7-3.899-5.5
		C87.292,525.038,84.275,524.887,80.108,525.021z"/>
	<path style="fill-rule:evenodd;clip-rule:evenodd;fill:#797469;" d="M78.009,486.721c0.733,0.133,1.267,0.2,1.6,0.2l-0.399-0.801
		c0.533,0.301,0.899,0.551,1.1,0.75c1.467-2.5,2.467-4.533,3-6.1c0.233-0.767,0.417-1.85,0.55-3.25c0.167-1.7,0.301-2.783,0.4-3.25
		c0.6-0.9,0.917-1.733,0.95-2.5l1.899-2.9c-0.3,0.101-1.1,0.167-2.399,0.2c-1.101,0.066-1.884,0.217-2.351,0.45
		c-1.3,0.8-2.25,1.384-2.85,1.75c-1.366,0.434-2.483,0.75-3.35,0.95c-0.567,0-1.5-0.066-2.801-0.2
		c-1.566-0.167-2.517-0.267-2.85-0.3c-1.333-0.134-2.184-0.316-2.55-0.55c-0.3-0.2-0.851-0.851-1.65-1.95l-0.6-0.8
		c-0.101,1.767-0.283,3.3-0.55,4.6c-0.167,1.033-0.45,1.75-0.851,2.15c-0.166,0.166-0.684,0.483-1.55,0.949l0.7,1.25l-1.65,1.65
		l-0.1,0.7c-0.5-0.834-0.684-1.5-0.55-2l0.75-1.15l-0.351,0.25c-0.833,1.033-1.35,1.667-1.55,1.9c-0.533,0.6-1.083,1.083-1.65,1.45
		c-0.767,1.033-1.35,1.783-1.75,2.25c-0.667,0.899-1.267,1.6-1.8,2.1l-0.55,38.75c0.233,1.5,0.633,2.566,1.2,3.2
		c0.1,0.1,0.417,0.267,0.95,0.5s0.9,0.45,1.1,0.649c0.167,0.167,0.35,0.467,0.55,0.9c0.233,0.467,0.417,0.783,0.55,0.95
		c0.4,0.5,0.884,0.85,1.45,1.05c0.3,0.1,0.816,0.267,1.55,0.5c0.967,0.4,1.834,0.9,2.601,1.5c0.066,0.033,0.833,0.684,2.3,1.95
		c0.434,0.333,0.866,0.566,1.3,0.7c0.233-0.101,1.101-0.284,2.601-0.551c1.199-0.267,2.083-0.616,2.649-1.05
		c1.267-1.033,2.2-2.75,2.8-5.149c0.2-0.867,0.334-1.983,0.4-3.351c0.1-1.833,0.167-2.95,0.2-3.35c0.133-0.967,0.483-2.066,1.05-3.3
		c0.066-0.101,0.616-1.15,1.65-3.15v0.35c-0.267,0.767-0.434,1.301-0.5,1.601c-0.4,1.467-0.617,2.267-0.65,2.399l-0.05,0.25
		c-0.101,0.801-0.117,1.601-0.05,2.4l0.399,0.05c-0.467,2.167-0.899,3.783-1.3,4.851c-0.134,0.333-0.483,1.066-1.05,2.199
		c-0.434,0.867-0.717,1.601-0.851,2.2c-0.033,0.2-0.017,0.8,0.051,1.8c0.033,0.7-0.167,1.267-0.601,1.7
		c-0.399,0.4-1.083,0.65-2.05,0.75c1,0.101,1.866,0.334,2.6,0.7c0.067,0.4,0.267,0.75,0.601,1.05c0.967,0.434,1.916,0.601,2.85,0.5
		c0.8,0.066,1.767,0.033,2.9-0.1c0.633-0.066,1.6-0.184,2.899-0.351c1.667-0.133,5.184-0.166,10.551-0.1
		c-0.267-1.2-0.4-2.467-0.4-3.8c-0.033-1.867-0.134-3.217-0.3-4.05c-0.267-1.301-0.834-2.45-1.7-3.45
		c-0.333-0.4-0.983-0.867-1.95-1.4c-1-0.533-1.649-0.967-1.95-1.3c-0.1-0.1-0.399-0.483-0.899-1.15c-2.3,0.301-4.15,0.301-5.55,0
		l2.149,0.051c-1.399-0.801-3.083-1.301-5.05-1.5c-0.1-0.267-0.116-0.617-0.05-1.051l0.149-0.699c0.233-0.667,0.65-1.601,1.25-2.801
		c0.5-1.166,0.801-1.916,0.9-2.25c0.167-0.6,0.267-1.399,0.3-2.399l-0.649-1.95c0.633-3.1,0.649-6.184,0.05-9.25
		c-0.634-3.267-1.851-5.866-3.65-7.8l-0.6,0.149l-0.3-0.5c-0.134-0.233-0.233-0.533-0.301-0.899c0.101,0.1,0.233,0.149,0.4,0.149
		h0.15l-0.051-0.05c-0.199-0.6-0.416-1.5-0.649-2.7c-0.233-1.233-0.434-2.133-0.601-2.699l0.851,0.199
		c0,1.467,0.017,2.351,0.05,2.65c0.066,0.967,0.233,1.8,0.5,2.5l1.05-0.35l-0.5,0.149c0.434-0.5,0.7-0.866,0.8-1.1l1.25-2.2
		L78.009,486.721z M84.809,480.971c-0.333,1.366-0.684,2.467-1.05,3.3c-0.5,1.066-1.134,2.05-1.9,2.95l-0.899,0.899
		c0.133,0.5-0.017,0.667-0.45,0.5c-0.5,0.5-0.967,1.084-1.4,1.75c-0.066,0.101-0.183,0.4-0.35,0.9c0.3,0.267,0.417,0.7,0.35,1.3
		c-0.033,0.733,0.034,1.283,0.2,1.65c0.101,0.233,0.384,0.5,0.851,0.8c0.466,0.333,0.75,0.6,0.85,0.8
		c0.366,0.733,0.583,1.8,0.65,3.2c0.033,1.566,0.083,2.684,0.149,3.35c0.066,0.601,0.334,1.7,0.8,3.301
		c0.4,1.366,0.584,2.483,0.551,3.35c-0.034,0.833-0.2,1.833-0.5,3l0.5,1l0.399,1.3c1.934,3.367,4.417,5.9,7.45,7.601
		c1.333,0.699,2.35,1.416,3.05,2.149c0.9,0.9,1.55,2,1.95,3.3c0.233,0.801,0.25,1.917,0.05,3.351c-0.267,1.666-0.35,2.899-0.25,3.7
		c0.066,0.433,0.384,1.466,0.95,3.1h8.7c0.899,0,1.684-0.083,2.35-0.25c0.233-0.033,0.9-0.233,2-0.6l-0.05,0.85l-0.25,2.5
		l-0.55,0.05l-2.8,0.101h-0.95l-0.7-0.15c-2,0-4.45-0.116-7.35-0.35l-0.051,0.75l-0.699,0.05c-0.301-0.233-0.551-0.533-0.75-0.9
		c-3.467-0.3-5.684-0.649-6.65-1.05s-3.5-0.35-7.6,0.15c-5.067,0.566-7.867,0.85-8.4,0.85c-2.667,0-4.7-0.15-6.1-0.45
		c-2.5-0.5-4.301-1.517-5.4-3.05c-1.033-1.467-2.517-2.9-4.45-4.3l-2.55-1.7l-2.8-4.6c-0.333-2.534-0.55-5.017-0.65-7.45l0.05-4.05
		l0.05-2.2c0.2-9.8,0.583-25.367,1.15-46.7c0.6-22.767,1-36.434,1.2-41c0.167-3.434,0-14.417-0.5-32.95
		c-0.5-19.233-0.667-32.083-0.5-38.55c0.233-8.866,0.467-23.65,0.7-44.35c0.2-19.733,0.3-35.284,0.3-46.65
		c0-8.9,0.1-18.25,0.3-28.05c0.133-5.867,0.367-15.85,0.7-29.95c0.333-16,0.5-39.667,0.5-71c0-5.633,0.2-16.967,0.6-34
		c0.333-14.933,0.667-28.283,1-40.05l0.4-9.95c0.1-2.467,0.434-4.883,1-7.25l-0.75-3.15l0.2-0.2l1.45-1.2
		c2.466-2.034,4.583-3.3,6.35-3.8c0.733-0.2,1.85-0.45,3.35-0.75c0.534-0.133,1.267-0.5,2.2-1.1c0.934-0.566,1.667-0.917,2.2-1.05
		c1.233-0.3,3.033-0.45,5.4-0.45c2.966,0.034,4.783,0.017,5.449-0.05c1.534-0.133,4.051-0.867,7.551-2.2
		c3.199-1.233,5.75-1.833,7.649-1.8c2.834,0.067,4.783-0.017,5.851-0.25c2.233-0.5,3.633-1.733,4.199-3.7l1.2-0.05l0.15,14.7
		c-3.8-0.067-8.417,0.167-13.851,0.7c-6.133,0.7-10.8,1.184-14,1.45c-1.666,0.133-3.966,0.8-6.899,2
		c-2.967,1.233-5.283,1.917-6.95,2.05c-2.233,0.167-3.65,0.467-4.25,0.9c-0.434,0.333-1.15,1.517-2.15,3.55l-0.149,0.3
		c-0.434,9.767-0.8,17.133-1.101,22.1c0.667,0.4,1.65,0.6,2.95,0.6c0.733,0,1.783-0.05,3.15-0.15h2.6l-5.899,1.8l-0.7,0.15
		c-0.967,0.233-1.75,0.7-2.351,1.4l-0.35,5.95c-0.3,4.2-0.533,13.533-0.7,28c0.033,1.033,0.184,2.067,0.45,3.1
		c0.333,1.3,0.783,2.183,1.35,2.65c0.067,0.067,0.184,0.15,0.351,0.25c0,0.267,0.033,0.583,0.1,0.95
		c0.101,0.033,0.217,0.083,0.351,0.15l0.1,0.4c-0.467,1.867,0.483,2.833,2.85,2.9c1.267,0.033,2.917-0.083,4.95-0.35
		c-0.233-0.2-0.467-0.383-0.7-0.55c1.467,0.4,2.434,0.933,2.9,1.6c0.167,0.2,0.65,1.45,1.45,3.75
		c0.399,1.167,0.866,1.917,1.399,2.25c0.367,0.2,1.134,0.6,2.301,1.2c0.8,0.567,1.666,1.367,2.6,2.4
		c1.434,1.566,2.233,2.417,2.4,2.55c0.466,0.467,1.116,0.983,1.949,1.55c-0.366-0.133-0.733-0.233-1.1-0.3l-6.5-4.5
		c0.3,0.467,0.967,1.1,2,1.9c1,0.8,1.7,1.5,2.1,2.1c0.534,0.767,1.217,1.433,2.051,2c1.166,0.767,1.916,1.317,2.25,1.65
		c0.633,0.6,1.316,1.583,2.05,2.95c0.233,0.3,0.649,0.8,1.25,1.5c0.566,0.633,0.95,1.1,1.149,1.4c0.233-0.6,0.15-1.517-0.25-2.75
		c-0.333-1-0.75-1.883-1.25-2.65c-0.399-0.633-0.899-1.217-1.5-1.75c0.601,0.4,1.034,0.717,1.301,0.95
		c1.399,1.2,2.3,2.583,2.699,4.15c0.2,0.9,0.301,2.583,0.301,5.05v8.65c0,0.733,0.133,1.983,0.399,3.75
		c0.167,1.167,0.267,2.133,0.3,2.9c-0.066-0.966-0.35-2.05-0.85-3.25c-0.767-1.8-1.217-3.083-1.35-3.85l-0.2-2.1l-0.05-0.15
		l-0.051-0.95l0.351,0.3c0.399-1.733,0.133-3.4-0.8-5c-0.167-0.933-0.267-1.45-0.301-1.55c-0.633-3.067-2.433-6.033-5.399-8.9
		c-1.5,2.1-2.601,3.667-3.3,4.7c-0.767,1.1-1.217,2.2-1.351,3.3c-0.3-1.167,0.017-2.283,0.95-3.35l-1-0.95
		c0.033,0.434-0.116,1.55-0.45,3.35c-0.267,1.367-0.166,2.45,0.3,3.25c0.334,0.567,1.017,1.1,2.051,1.6
		c0.933,0.433,1.733,0.667,2.399,0.7c0.101,0.133,0.217,0.267,0.351,0.4c0.566,0.467,1.166,0.867,1.8,1.2
		c1.866,0.5,3.217,1.083,4.05,1.75c-1.9-0.7-3.25-1.283-4.05-1.75c-2.7-0.667-4.367-1.15-5-1.45c-1.601-0.767-2.533-2.017-2.8-3.75
		c-0.233-1.4-0.067-2.783,0.5-4.15c0.133-0.333,0.416-0.717,0.85-1.15c0.167-0.167,0.35-0.35,0.55-0.55c0.7-0.667,1.134-1.2,1.3-1.6
		c0.5-1.3,0.25-2.816-0.75-4.55l-1.699-1.2c-1.9-1.633-2.983-2.617-3.25-2.95c-0.434-0.534-1.217-1.767-2.351-3.7
		c-0.133-0.633-0.233-1.017-0.3-1.15c-0.134-0.3-0.4-0.55-0.8-0.75l-0.7-0.95c-0.967-1.1-2.134-1.217-3.5-0.35
		c-2.5,1.6-3.783,2.4-3.85,2.4v0.45c-1.434,1.233-2.601,2.067-3.5,2.5c-0.134,28.367-0.25,49.25-0.351,62.65
		c-0.166,23.534-0.434,39-0.8,46.4l-0.2,4.6l-1.8-0.6l0.4,0.7c0.267,0.6,0.35,1.383,0.25,2.35c-0.134,1.533-0.2,2.367-0.2,2.5
		c0,0.4,0.05,0.767,0.149,1.1c0.233,0.633,0.551,1.15,0.95,1.55c-0.399,14.3-0.666,36.216-0.8,65.75l0.05,0.149
		c0.167,0.5,0.851,2.634,2.05,6.4c0.801,2.566,1.584,4.633,2.351,6.2c0.934,2,1.434,4.483,1.5,7.449l-0.351,0.5l-0.449,0.5
		c-0.134-1.333-0.267-2.35-0.4-3.05s-0.333-1.399-0.6-2.1l-0.15-0.45l-0.375-0.775c-0.366-0.758-0.775-1.449-1.225-2.074
		c-1.267-1.801-2.084-3-2.45-3.601l-0.05,26.25l-0.051-0.1c-1.167-1.533-1.6-3.066-1.3-4.601v-4.649c-0.4,2.5-0.633,4.217-0.7,5.149
		l-0.05,1.9c0.067,2.1,0.534,3.75,1.4,4.95l0.7,0.7v8.6c0,5.7-0.434,30.417-1.3,74.15c-0.1,0.666-0.117,1.399-0.05,2.199l-0.3,15.15
		c0.4,0.7,0.783,1.65,1.15,2.85l-1.2-0.8c0.566,0.434,1.033,0.917,1.4,1.45l0.35,1.5c0.066,1.366,0.217,2.533,0.45,3.5
		c0.233,0.934,0.517,1.667,0.85,2.2c0.134,0.2,0.583,0.75,1.35,1.649c0.467,0.534,1.101,1.101,1.9,1.7
		c0.5,0.334,1.233,0.816,2.2,1.45c0.666,0.467,1.267,0.967,1.8,1.5l0.65,0.65c0.199-0.7-0.017-1.45-0.65-2.25
		c-0.4-0.5-1.15-1.2-2.25-2.101c1.333,0.566,2.333,1.184,3,1.851c0.366,0.333,0.684,0.916,0.95,1.75
		c0.3,0.866,0.583,1.449,0.85,1.75c0.533,0.566,1.167,0.983,1.9,1.25c0.434,0.133,1.2,0.333,2.3,0.6
		c0.634,0.233,1.316,0.483,2.05,0.75c0.566,0.167,1.25,0.167,2.05,0c0.367-0.066,1.017-0.45,1.95-1.15
		c1.033-0.8,1.65-1.25,1.851-1.35c1.767-0.9,4.517-2.05,8.25-3.45c0.433-0.633,1.05-1.184,1.85-1.649
		c0.767-0.467,1.767-0.717,3-0.75c1.533-0.067,2.533-0.167,3-0.301c1.6-0.533,3.616-2.083,6.05-4.649c0.5-0.5,0.9-0.884,1.2-1.15
		c0.1-0.133,0.333-0.533,0.7-1.2c0-1.767,0.434-3.466,1.3-5.1c0.767-1.9,2.434-5.167,5-9.8v5.7l-0.45,0.8
		c-1.8,3-3.35,5.833-4.649,8.5c-1.634,3.267-3.534,5.383-5.7,6.35c-0.101,0.033-1.283,0.434-3.55,1.2
		c-1.334,0.467-2.467,1.066-3.4,1.8c-1.833,1.467-3.483,3.566-4.95,6.3c-1.233,2.4-2.2,5.017-2.899,7.851l-0.101,0.399l-0.55,0.9
		L84.809,480.971z M67.959,71.671c7.5,0,12,0.017,13.5,0.05c-0.667-0.067-1.566-0.333-2.7-0.8c-1.267-0.566-2.15-0.9-2.65-1
		c0.867,0.067,1.684,0.167,2.45,0.3l5.65,0.95l-2.7,0.55h-0.05l-2.95,0.65c-0.333,0.066-1.35,0.233-3.05,0.5
		c-1.533-0.333-2.684-0.583-3.45-0.75c-1.366-0.3-2.533-0.434-3.5-0.4L67.959,71.671z M89.309,72.121
		c1.134-0.233,2.117-0.367,2.95-0.4l6.75,0.05C95.476,71.804,92.242,71.921,89.309,72.121z M66.284,115.171h-0.025
		c-1.866-0.433-3.15-0.783-3.85-1.05l-0.25-0.95c0.6,0.3,1.55,0.7,2.85,1.2C65.358,114.593,65.783,114.86,66.284,115.171z
		 M61.709,246.921l0.6-0.35c-0.633-0.3-1.166-0.667-1.6-1.1c-1.367-1.3-2.117-3.167-2.25-5.6c0.267,0.867,0.5,1.517,0.7,1.95
		c0.633,1.367,1.55,2.65,2.75,3.85c0.399,0.4,0.833,0.783,1.3,1.15l1.8,1.2c0.267,0.133,0.533,0.267,0.8,0.4
		c0.233,0.1,0.767,0.2,1.601,0.3c0.767,0.1,1.3,0.25,1.6,0.45c0.4,0.267,0.866,0.783,1.4,1.55c0.566,0.8,1.033,1.316,1.399,1.55
		c1.033,0.633,2.55,0.95,4.55,0.95c1.134,0,2.733-0.067,4.801-0.2l-0.65,0.65c0.533-0.066,1.316-0.083,2.35-0.05
		c0.233,0,0.434,0.017,0.601,0.05c0.899,0,1.467-0.017,1.7-0.05c1.267-0.133,2.866-0.533,4.8-1.2c2.033-0.7,3.55-1.117,4.55-1.25
		l-1.35,0.55c1.133-0.367,1.916-0.117,2.35,0.75c-3,0-5.233,0.233-6.7,0.7c-3.066,0.934-5.633,1.35-7.7,1.25
		c-1.3,0.7-2.433,1.75-3.399,3.15c-0.867,1.3-1.45,2.684-1.75,4.15c-0.134,1.133-0.25,1.933-0.351,2.4
		c-0.133,0.8-0.449,1.55-0.949,2.25c-0.334,0.533-0.917,1.217-1.75,2.05c-1.034,1.067-1.65,1.717-1.851,1.95
		c0.101,0.033,0.283,0.183,0.55,0.45c0.2,0.167,0.45,0.284,0.75,0.35c0.267,1.233,1.051,2.65,2.351,4.25
		c1.366,1.666,2.633,2.666,3.8,3c2,0.566,3.833,0.466,5.5-0.301c0.967-0.466,2.4-1.55,4.3-3.25c0.367-0.333,1.217-0.816,2.55-1.449
		c1.2-0.601,1.983-1.117,2.351-1.55c0.467-0.6,0.717-1.567,0.75-2.9c0-0.733-0.05-1.817-0.15-3.25c0-0.633-0.017-1.583-0.05-2.85
		c0.033-1.1,0.217-1.983,0.55-2.65c0.2-0.467,0.917-1.333,2.15-2.6c1-1,1.483-1.934,1.45-2.8c0.267-0.167,0.466-0.333,0.6-0.5v0.45
		l-0.7,1.1c-0.533,0.967-0.883,1.8-1.05,2.5c-0.167,0.633-0.25,1.517-0.25,2.65c0.167,2.433,0.283,4.4,0.35,5.9
		c0.067,2.833-0.267,4.684-1,5.55c-0.267,0.333-0.883,0.633-1.85,0.899c-1.134,0.334-1.833,0.584-2.1,0.75
		c-0.634,0.367-1.733,1.334-3.301,2.9c-1.267,1.3-2.433,2.05-3.5,2.25c-1.866,0.366-5.149,0.25-9.85-0.35
		c-0.2-1.233-1.033-2.5-2.5-3.801l0.95,0.5c0.033-0.733-0.3-1.517-1-2.35c-0.867-1.033-1.384-1.767-1.55-2.2
		c-0.267-0.733-0.334-1.6-0.2-2.6c0.2-1.267,0.267-2.184,0.2-2.75l-0.65,2.65c-1.4,1.8-1.384,3.483,0.05,5.05
		c-1.666-1.234-2.55-2.317-2.649-3.25c-0.101-0.733,0.517-1.783,1.85-3.15c1.6-1.633,2.517-2.75,2.75-3.35l0.05-0.2l0.45,0.25
		l-1.15-0.7c0-0.967-0.166-2-0.5-3.1c0.467,0.633,1.034,1.017,1.7,1.15l-0.05,0.75c-0.033,0.667-0.033,1.3,0,1.9
		c0.066,0.833,0.217,1.483,0.45,1.95c0.633-0.2,1.133-0.667,1.5-1.4h0.1v-0.2c0.5-1.1,0.783-2.833,0.851-5.2
		c0.033-0.967,0.017-2.184-0.051-3.65l-0.05-1.5l-2,1.3l-0.1,1.55c-0.033-0.5-0.2-0.966-0.5-1.4c-0.134-0.2-0.634-0.583-1.5-1.15
		c-0.967-0.6-1.533-0.983-1.7-1.15c-0.267-0.2-1.467-1.017-3.6-2.45v0.1l-0.051-0.05c-0.333-0.233-0.699-0.233-1.1,0l-0.15,1.05
		l-0.6-1.15c-0.3-0.467-0.733-1.033-1.3-1.7c-0.834-0.933-1.316-1.5-1.45-1.7L61.709,246.921z M99.259,253.721h-0.4
		c0.167-0.467,0.267-0.934,0.301-1.4v-1.95l-0.101-0.55c-0.967-0.4-1.816-0.216-2.55,0.55l-1.7,0.65l-0.149-0.4
		c-1.867-0.434-3.267-0.767-4.2-1c-1.667-0.367-3.15-0.567-4.45-0.6c1.233,0,3.7,0.15,7.4,0.45c3.399,0.167,5.816-0.1,7.25-0.8
		l2.5-4.3c1.366-2.467,3.1-5.1,5.199-7.9c1.367-1.8,2.351-3.717,2.95-5.75v0.35l-0.05,0.15l-0.1,5.9
		c-1.2,0.767-2.384,2.083-3.551,3.95c-0.433,0.7-1.899,2.367-4.399,5c-1.867,2-3,3.883-3.4,5.65
		C99.842,252.354,99.659,253.021,99.259,253.721z M66.358,254.821c0.367,0.434,0.983,1.067,1.851,1.9c0.733,0.8,1.267,1.566,1.6,2.3
		l1.3,3.5c-0.5-0.4-0.866-0.733-1.1-1c-0.366-0.367-0.816-1.017-1.35-1.95c-0.101-0.2-0.15-0.483-0.15-0.85
		c0.033-0.367-0.017-0.65-0.15-0.85c-0.066-0.167-0.3-0.367-0.699-0.6c-0.367-0.233-0.601-0.483-0.7-0.75L66.358,254.821z
		 M74.309,369.371c-0.066-1.566-0.217-2.767-0.45-3.6v-0.05l-0.05-0.7c-0.133-1.033-0.116-2.483,0.05-4.35
		c0-1.534-0.449-2.75-1.35-3.65c-0.866-0.267-1.366-0.467-1.5-0.6c-0.533-0.434-1.1-1.167-1.7-2.2c-0.6-1.033-1.116-2.084-1.55-3.15
		c-3.066,0.367-5.816,0.367-8.25,0c0.366-0.033,1.066-0.2,2.1-0.5c0.9-0.233,1.617-0.35,2.15-0.35
		c-0.167-0.267-0.65-0.483-1.45-0.65c0.533-0.1,1.3-0.3,2.3-0.6c0.867-0.2,1.584-0.267,2.15-0.2c-0.333-0.634-0.783-1.35-1.35-2.15
		c-0.7-0.866-1.217-1.533-1.551-2l0.551,0.351c-0.134-0.533-0.434-1.15-0.9-1.851c-0.634-1-1-1.583-1.1-1.75
		c-0.134-0.733-0.117-2.449,0.05-5.149c0.399,0.934,0.633,1.633,0.7,2.1c0.033,0.3,0.017,0.967-0.051,2
		c-0.066,0.834,0,1.467,0.2,1.9c0.233,0.566,0.816,1.383,1.75,2.45c1.033,1.166,1.684,1.966,1.95,2.399c0.733,1.3,1.8,2.7,3.2,4.2
		c0.899,1.833,1.7,3.3,2.399,4.4c0.467-0.101,0.9-0.317,1.301-0.65l0.449,0.5c0.167-0.4,0.167-0.783,0-1.15l0.351-0.649
		c0.934,1.267,1.467,3.95,1.6,8.05c0.2,5.566,0.316,8.45,0.351,8.65c0.1,0.533,0.333,1.433,0.699,2.699
		c0.367,1.167,0.584,2.067,0.65,2.7c0.134,1.101-0.05,2.384-0.55,3.851c-0.601,1.8-0.934,3.083-1,3.85
		c-0.033-0.634,0.083-1.517,0.35-2.65c0.267-1.166,0.4-2,0.4-2.5c-0.033-0.8-0.217-1.5-0.55-2.1c-0.167-0.366-0.5-0.983-1-1.85
		C75.059,373.221,74.608,371.538,74.309,369.371z M80.509,253.721v-0.05c-0.5,0.1-0.9,0.25-1.2,0.45
		C79.742,253.921,80.143,253.788,80.509,253.721z M66.459,484.421c1.467,0.333,2.816,0.533,4.05,0.6c0.7,0.066,1.634,0.233,2.8,0.5
		h-0.05c-0.533-0.1-1.9-0.267-4.1-0.5l-2.051-0.25L66.459,484.421z M55.259,461.921l-0.1-0.2l-0.65,2
		c-0.067,1.566-0.1,2.916-0.1,4.05c0.033,2.134,0.25,3.684,0.65,4.65l-0.2,9.5c0.333-0.233,1.05-0.584,2.15-1.051l1.35-0.699
		c1.101-1.467,2.084-2.517,2.95-3.15l0.25-0.2l0.25-0.3c1.134-1.366,1.783-2.2,1.95-2.5c0.4-0.733,0.65-1.733,0.75-3
		c0.066-0.934-0.083-2.4-0.45-4.4c-0.633-0.533-1.383-1.066-2.25-1.6c-1.133-0.6-1.983-1.05-2.55-1.35
		c-1.033-0.601-1.8-1.2-2.3-1.801c-0.833-1.066-1.367-2.566-1.6-4.5L55.259,461.921z M83.809,515.021l-0.25-0.7
		c-0.434-0.733-0.767-1.383-1-1.95l-0.899,2.65c-0.233,0.634-0.567,1.35-1,2.15c-0.5,0.866-0.867,1.517-1.101,1.949l0.25-0.1
		c0,1.434,0.851,2.15,2.55,2.15c0.934,0,2.4-0.101,4.4-0.301l-0.35-0.6c0.066-0.967-0.217-1.917-0.851-2.85
		C84.426,515.887,83.842,515.087,83.809,515.021z"/>
	<path style="fill-rule:evenodd;clip-rule:evenodd;fill:#5B574F;" d="M110.108,7.421l0.2,9.95c-0.033,1.3-0.033,2.683,0,4.15
		l-1.2,0.05c-0.566,1.967-1.966,3.2-4.199,3.7c-1.067,0.233-3.017,0.317-5.851,0.25c-1.899-0.033-4.45,0.567-7.649,1.8
		c-3.5,1.333-6.017,2.067-7.551,2.2c-0.666,0.067-2.483,0.083-5.449,0.05c-2.367,0-4.167,0.15-5.4,0.45
		c-0.533,0.133-1.267,0.483-2.2,1.05c-0.934,0.6-1.666,0.967-2.2,1.1c-1.5,0.3-2.616,0.55-3.35,0.75
		c-1.767,0.5-3.884,1.767-6.35,3.8l-1.45,1.2l-0.2,0.2l-0.15-0.7v-0.8c0-2.833-0.017-5.9-0.05-9.2
		c0.566-1.433,1.267-3.117,2.101-5.05c0.833-1.4,2.616-2.617,5.35-3.65c1.434-0.567,3.2-1.133,5.3-1.7
		c0.267-0.1,1.967-1.117,5.101-3.05c2.966-1.867,5.5-3.067,7.6-3.6c3.967-1,6.184-1.55,6.65-1.65c2.267-0.534,5.149-1.1,8.649-1.7
		c3.334-0.533,6.45-0.7,9.351-0.5c1.233,0.1,2.216,0.233,2.949,0.4V7.421z"/>
	<path style="fill-rule:evenodd;clip-rule:evenodd;fill:#424039;" d="M51.709,525.421c0.167,1.199,0.667,4.05,1.5,8.55
		c0.267,0.434,0.55,0.916,0.85,1.45c0.5,0.767,0.983,1.333,1.45,1.699c0.2,0.167,0.483,0.317,0.85,0.45
		c0.433,0.167,0.733,0.316,0.9,0.45c0.2,0.134,0.483,0.45,0.85,0.95c0.301,0.434,0.65,0.767,1.051,1
		c0.6,0.333,1.399,0.566,2.399,0.7c0.031,0,0.064,0,0.101,0h0.024c0.158,0.007,0.316,0.023,0.476,0.05h2.149h18.2l0.2,0.1l1.1,0.55
		h-17.3c-3.8,0-6.15-0.033-7.05-0.1c-0.8-0.066-1.566-0.15-2.3-0.25l-0.051-0.05c-0.133-0.033-0.266-0.05-0.399-0.05
		c-0.1-0.034-0.217-0.067-0.35-0.101c-1.333-0.267-2.517-0.649-3.55-1.149c-0.566-0.267-1.433-0.75-2.6-1.45
		c-1.1-0.667-2-1.15-2.7-1.45c-1.233-0.434-2.15-0.767-2.75-1c-1.033-0.4-1.9-0.783-2.6-1.15l-2.9-1.399
		c-1.133-0.566-2.067-1.101-2.8-1.601c-0.7-0.5-1.667-1.033-2.9-1.6c-1.667-0.767-2.667-1.233-3-1.4
		c-1.533-0.833-2.35-1.283-2.45-1.35c-0.9-0.7-1.083-1.417-0.55-2.15c0.267-0.399,0.917-0.833,1.95-1.3
		c0.9-0.399,1.667-0.666,2.3-0.8c1.034-0.2,2.784-0.283,5.25-0.25c2.3,0.033,4.017-0.1,5.15-0.4c0.466-0.133,0.9-0.183,1.3-0.149
		l-0.05-0.4l-0.15-3.6c-0.5-12.8-0.767-22.101-0.8-27.9c0-0.066,0-0.133,0-0.2v-0.75c0-0.1,0-0.216,0-0.35v-102.55
		c0-0.033,0-0.066,0-0.101l0.95-58.949c0-0.233,0.017-0.45,0.05-0.65l-0.1-104.75c-1.133-40.767-1.767-71.583-1.9-92.45v-7.25
		c0-0.1,0-0.183,0-0.25v-0.25c0-0.267,0-0.533,0-0.8v-2.45c0-0.333,0-0.65,0-0.95v-0.95c0-0.167,0-0.316,0-0.45
		c0-0.333,0-0.65,0-0.95s0-0.6,0-0.9c0-0.333,0-0.633,0-0.9c0-0.3,0-0.6,0-0.9c0-0.167,0-0.316,0-0.45l0.15-18
		c0-0.867,0-1.733,0-2.6l0.8-37l0.2-11.2l0.75-26.25c0-0.633,0-1.283,0-1.95l2.1,0.15c1.633,0.2,2.967,0.617,4,1.25
		s1.95,1.533,2.75,2.7c0.4,0.6,0.683,1.133,0.85,1.6l0.45-2.25c0.3-1.767,0.45-3.283,0.45-4.55c0-0.2-0.25-1.283-0.75-3.25
		c-0.033-0.1-0.067-0.2-0.1-0.3c-0.267-0.934,0.067-1.684,1-2.25c0.1-0.067,0.217-0.133,0.35-0.2c0.4-0.2,1.05-0.417,1.95-0.65
		c1.633-0.4,4.116-0.85,7.45-1.35c6.133-0.933,10-1.6,11.6-2c1.033-0.267,2.733-0.45,5.1-0.55c3.4-0.167,8.2-0.167,14.4,0
		c4.934,0.133,9.65,0.3,14.15,0.5c0.267,0.033,0.55,0.05,0.85,0.05l0.5,3c-0.134-0.033-0.267-0.067-0.4-0.1
		c-0.733-0.167-1.716-0.3-2.949-0.4c-2.9-0.2-6.017-0.033-9.351,0.5c-3.5,0.6-6.383,1.167-8.649,1.7
		c-0.467,0.1-2.684,0.65-6.65,1.65c-2.1,0.533-4.634,1.733-7.6,3.6c-3.134,1.933-4.834,2.95-5.101,3.05
		c-2.1,0.567-3.866,1.133-5.3,1.7c-2.733,1.033-4.517,2.25-5.35,3.65c-0.834,1.933-1.534,3.617-2.101,5.05
		c0.033,3.3,0.05,6.367,0.05,9.2v0.8l-0.1,5.6c-0.067,1.967-0.367,7.2-0.9,15.7l-1.1,16.55c-0.767,54.633-1.533,95.717-2.3,123.25
		l0.4,63.5c0.066,21.033,0.033,33.533-0.1,37.5c-0.233,6.967-0.55,25.033-0.95,54.2c-0.367,27.833-0.55,45.267-0.55,52.3
		l-0.4,105.75v2.15l-0.05,4.05c0,1.899,0.067,3.566,0.2,5l0.25,2.05L51.709,525.421z M47.159,52.171c-1.033-0.7-1.833-0.65-2.4,0.15
		c-0.4,0.567-0.667,1.467-0.8,2.7c-0.167,1.533-0.217,3.133-0.15,4.8c0.1,1.867,0.15,2.833,0.15,2.9
		c0.066,0.833,0.283,1.917,0.65,3.25c0.367,1.433,0.617,3.083,0.75,4.95c0.1,2.2,0.183,3.883,0.25,5.05
		c0.467,9.267,0.133,18.983-1,29.15c0.667,14.133,0.633,23.933-0.1,29.4c-0.6,4.333-0.617,25.6-0.05,63.8
		c0.7,49.3,1.05,75.7,1.05,79.2c0,19.767-0.1,47.434-0.3,83c-0.233,39.866-0.467,61.033-0.7,63.5c-0.2,2.267,0.067,2.967,0.8,2.1
		c0.767-0.899,1.434-2.866,2-5.899c0.067-6.733-0.017-22.167-0.25-46.3c-0.2-21.334-0.216-33.967-0.05-37.9
		c0.2-5.134,0.183-10.55-0.05-16.25c-0.3-7.2-0.45-12.116-0.45-14.75c0-7.667-0.333-16.833-1-27.5c0-0.5,0.25-14.783,0.75-42.85
		c0.5-28.667,0.75-44.717,0.75-48.15c0-5.667-0.167-17.167-0.5-34.5c0-0.867,0.417-7.683,1.25-20.45
		c0.833-12.733,1.25-19.917,1.25-21.55v-18.5l1.05-9.1c0.767-7.167,1.35-13.433,1.75-18.8l-0.05-5.75l-1.25-1.35
		C49.242,55.221,48.125,53.771,47.159,52.171z"/>
	<path style="fill-rule:evenodd;clip-rule:evenodd;fill:#4C4942;" d="M51.159,511.721l-0.05,0.05l0.4-105.75
		c0-7.033,0.183-24.467,0.55-52.3c0.4-29.167,0.717-47.233,0.95-54.2c0.133-3.967,0.167-16.467,0.1-37.5l-0.4-63.5
		c0.767-27.533,1.533-68.617,2.3-123.25l1.1-16.55c0.533-8.5,0.833-13.733,0.9-15.7l0.1-5.6l0.15,0.7l0.75,3.15
		c-0.566,2.367-0.9,4.783-1,7.25l-0.4,9.95c-0.333,11.767-0.667,25.117-1,40.05c-0.4,17.033-0.6,28.367-0.6,34
		c0,31.333-0.167,55-0.5,71c-0.333,14.1-0.567,24.083-0.7,29.95c-0.2,9.8-0.3,19.15-0.3,28.05c0,11.367-0.1,26.917-0.3,46.65
		c-0.233,20.699-0.467,35.483-0.7,44.35c-0.167,6.467,0,19.316,0.5,38.55c0.5,18.533,0.667,29.517,0.5,32.95
		c-0.2,4.566-0.6,18.233-1.2,41C51.742,486.354,51.359,501.921,51.159,511.721z M76.108,69.921c0.5,0.1,1.384,0.434,2.65,1
		c1.134,0.467,2.033,0.733,2.7,0.8c-1.5-0.034-6-0.05-13.5-0.05l-4.8,0.05l0.75-0.2l5.899-1.8h0.3
		C72.775,69.721,74.775,69.788,76.108,69.921z M62.159,113.171l0.25,0.95c0.699,0.267,1.983,0.617,3.85,1.05h0.025
		c0.024,0.018,0.05,0.035,0.074,0.05c1.301,0.3,2.384,0.733,3.25,1.3c0.233,0.167,0.467,0.35,0.7,0.55
		c-2.033,0.267-3.684,0.383-4.95,0.35c-2.366-0.066-3.316-1.033-2.85-2.9l-0.1-0.4c-0.134-0.067-0.25-0.117-0.351-0.15
		c-0.066-0.367-0.1-0.684-0.1-0.95c0-0.2,0.017-0.367,0.05-0.5L62.159,113.171z M86.858,133.371c0.601,0.533,1.101,1.117,1.5,1.75
		c0.5,0.767,0.917,1.65,1.25,2.65c0.4,1.233,0.483,2.15,0.25,2.75c-0.199-0.3-0.583-0.767-1.149-1.4c-0.601-0.7-1.017-1.2-1.25-1.5
		c-0.733-1.367-1.417-2.35-2.05-2.95c-0.334-0.333-1.084-0.883-2.25-1.65c-0.834-0.567-1.517-1.233-2.051-2
		c-0.399-0.6-1.1-1.3-2.1-2.1c-1.033-0.8-1.7-1.433-2-1.9l6.5,4.5c0.366,0.067,0.733,0.167,1.1,0.3
		c0.534,0.233,1.101,0.583,1.7,1.05C86.509,133.038,86.692,133.204,86.858,133.371z M82.809,145.971
		c-0.666-0.034-1.467-0.267-2.399-0.7c-1.034-0.5-1.717-1.033-2.051-1.6c-0.466-0.8-0.566-1.883-0.3-3.25
		c0.334-1.8,0.483-2.917,0.45-3.35l1,0.95c-0.934,1.067-1.25,2.183-0.95,3.35c0,0.033,0,0.066,0,0.1
		c0.9,0.233,1.767,0.816,2.601,1.75C81.893,144.088,82.442,145.004,82.809,145.971z M58.459,239.871c0.133,2.433,0.883,4.3,2.25,5.6
		c0.434,0.433,0.967,0.8,1.6,1.1l-0.6,0.35h-0.05c-0.634,0.3-1.284,0.35-1.95,0.15c-0.634-0.2-1.184-0.583-1.65-1.15
		c-0.399-0.4-0.717-0.917-0.95-1.55c-0.1-0.333-0.149-0.7-0.149-1.1c0-0.133,0.066-0.967,0.2-2.5c0.1-0.967,0.017-1.75-0.25-2.35
		l-0.4-0.7l1.8,0.6l0.2,0.05L58.459,239.871z M98.509,254.321c-0.134,0.167-0.333,0.333-0.6,0.5l-0.25,0.1
		c-0.733,0.233-1.233,0.033-1.5-0.6c-0.101-0.233-0.233-0.583-0.4-1.05v-0.05c-0.033-0.034-0.05-0.067-0.05-0.1
		c-0.066-0.2-0.134-0.417-0.2-0.65c-0.434-0.867-1.217-1.117-2.35-0.75l1.35-0.55l0.35-0.05l-0.05-0.1l1.7-0.65
		c0.733-0.767,1.583-0.95,2.55-0.55l0.101,0.55v1.95c-0.034,0.467-0.134,0.934-0.301,1.4h-0.35V254.321z M47.159,52.171
		c0.967,1.6,2.083,3.05,3.35,4.35l1.25,1.35l0.05,5.75c-0.4,5.367-0.983,11.633-1.75,18.8l-1.05,9.1v18.5
		c0,1.633-0.417,8.817-1.25,21.55c-0.833,12.767-1.25,19.583-1.25,20.45c0.333,17.333,0.5,28.833,0.5,34.5
		c0,3.433-0.25,19.483-0.75,48.15c-0.5,28.067-0.75,42.35-0.75,42.85c0.667,10.667,1,19.833,1,27.5c0,2.634,0.15,7.55,0.45,14.75
		c0.233,5.7,0.25,11.116,0.05,16.25c-0.167,3.934-0.15,16.566,0.05,37.9c0.233,24.133,0.317,39.566,0.25,46.3
		c-0.566,3.033-1.233,5-2,5.899c-0.733,0.867-1,0.167-0.8-2.1c0.233-2.467,0.467-23.634,0.7-63.5c0.2-35.566,0.3-63.233,0.3-83
		c0-3.5-0.35-29.9-1.05-79.2c-0.567-38.2-0.55-59.466,0.05-63.8c0.733-5.467,0.767-15.267,0.1-29.4
		c1.133-10.167,1.467-19.883,1-29.15c-0.067-1.167-0.15-2.85-0.25-5.05c-0.133-1.867-0.383-3.517-0.75-4.95
		c-0.367-1.333-0.583-2.417-0.65-3.25c0-0.067-0.05-1.034-0.15-2.9c-0.066-1.667-0.017-3.267,0.15-4.8
		c0.133-1.233,0.4-2.133,0.8-2.7C45.326,51.521,46.125,51.471,47.159,52.171z M72.759,275.121l-2.2-1.699
		c-1.434-1.567-1.45-3.25-0.05-5.05l0.65-2.65c0.066,0.566,0,1.483-0.2,2.75c-0.134,1-0.066,1.867,0.2,2.6
		c0.166,0.434,0.683,1.167,1.55,2.2c0.7,0.833,1.033,1.616,1,2.35L72.759,275.121z M71.358,259.921c0.334,1.1,0.5,2.133,0.5,3.1
		l-0.05,1.35l-0.7-1.85l-1.3-3.5c-0.333-0.733-0.866-1.5-1.6-2.3c-0.867-0.833-1.483-1.467-1.851-1.9c-0.866-1-1.283-2.1-1.25-3.3
		l0.15-1.05c0.4-0.233,0.767-0.233,1.1,0l0.051,0.05c0.267,1.733,0.517,2.867,0.75,3.4c0.267,0.567,0.933,1.383,2,2.45
		C70.159,257.304,70.893,258.488,71.358,259.921z M74.959,264.271c-0.367,0.733-0.867,1.2-1.5,1.4
		c-0.233-0.467-0.384-1.117-0.45-1.95c-0.033-0.6-0.033-1.233,0-1.9l0.2-0.75h-0.15c0.134-1.033,0.351-2.533,0.65-4.5l0.1-1.55
		l2-1.3l0.05,1.5c0.067,1.466,0.084,2.683,0.051,3.65c-0.067,2.367-0.351,4.1-0.851,5.2L74.959,264.271z M62.009,334.871l0.1-1.55
		l0.75-0.95l0.351-0.5l0.6-0.85c0.066,4.8,1.233,9.483,3.5,14.05c1.3,2.566,2.533,4.566,3.7,6c0.2,0.267,0.816,0.8,1.85,1.601
		c0.834,0.666,1.334,1.233,1.5,1.699c0.167,0.367,0.167,0.75,0,1.15l-0.449-0.5c-1.7-1.667-2.934-2.917-3.7-3.75
		c-1.4-1.5-2.467-2.9-3.2-4.2c-0.267-0.434-0.917-1.233-1.95-2.399c-0.934-1.067-1.517-1.884-1.75-2.45
		c-0.2-0.434-0.267-1.066-0.2-1.9c0.067-1.033,0.084-1.7,0.051-2c-0.067-0.467-0.301-1.166-0.7-2.1L62.009,334.871z M57.108,346.971
		l0.051,0.149v-0.05c0.433,0.533,0.883,0.967,1.35,1.3c0.4,0.301,1,0.551,1.8,0.75c0.434,0.134,1.101,0.284,2,0.45
		c0.8,0.167,1.283,0.384,1.45,0.65c-0.533,0-1.25,0.116-2.15,0.35c-1.033,0.3-1.733,0.467-2.1,0.5
		c-0.9,0.101-1.684-0.116-2.35-0.649l-0.7-0.7c-0.867-1.2-1.333-2.851-1.4-4.95l0.05-1.9c0.066-0.933,0.3-2.649,0.7-5.149v4.649
		C55.509,343.905,55.942,345.438,57.108,346.971z M56.859,454.021l-0.2-0.65l0.5,0.351v0.75c0.433,0.633,1.066,1.899,1.899,3.8
		c0.767,1.634,1.417,2.783,1.95,3.45c0.333,0.399,1.167,1.1,2.5,2.1c1.1,0.9,1.85,1.601,2.25,2.101c0.634,0.8,0.85,1.55,0.65,2.25
		l-0.65-0.65c-0.533-0.533-1.134-1.033-1.8-1.5c-0.967-0.634-1.7-1.116-2.2-1.45c-0.8-0.6-1.434-1.166-1.9-1.7
		c-0.767-0.899-1.216-1.449-1.35-1.649c-0.333-0.533-0.616-1.267-0.85-2.2c-0.233-0.967-0.384-2.134-0.45-3.5l-0.05-1.05
		L56.859,454.021z M79.209,486.121l0.399,0.801c-0.333,0-0.866-0.067-1.6-0.2l-1.55-0.351l-0.851-0.199
		c0.167,0.566,0.367,1.466,0.601,2.699c0.233,1.2,0.45,2.101,0.649,2.7l-0.1,0.05c-0.167,0-0.3-0.05-0.4-0.149
		c0-0.066-0.149-0.967-0.449-2.7c-0.167-1.1-0.417-1.866-0.75-2.3l-0.101-0.15c-0.1-0.1-0.35-0.25-0.75-0.45l-0.149-0.3
		c-0.367,0-0.65-0.017-0.851-0.05c-1.166-0.267-2.1-0.434-2.8-0.5c-1.233-0.066-2.583-0.267-4.05-0.6c-1.9-0.467-3.233-1.2-4-2.2
		c-0.334-0.533-0.584-1.117-0.75-1.75v-0.75l0.1-0.7l1.65-1.65l0.35-0.35c0.9,2.8,3.4,4.616,7.5,5.45
		C75.676,483.371,78.309,484.587,79.209,486.121z M79.159,515.621l-0.051,1.15c1.267-2.066,1.934-4.3,2-6.7l0.051-0.3l0.649,1.95
		c-0.033,1-0.133,1.8-0.3,2.399c-0.1,0.334-0.4,1.084-0.9,2.25c-0.6,1.2-1.017,2.134-1.25,2.801l-0.149,0.699
		c-0.066,0.434-0.05,0.784,0.05,1.051c1.967,0.199,3.65,0.699,5.05,1.5l-2.149-0.051c-1.467,0.067-2.75,0.051-3.851-0.05
		l-0.399-0.05c-0.067-0.8-0.051-1.6,0.05-2.4l0.05-0.25c0.033-0.133,0.25-0.933,0.65-2.399
		C78.726,516.921,78.893,516.387,79.159,515.621z M96.409,540.471l-13.7,0.35l-0.2-0.1h-18.2l-2.625-0.05h-0.024
		c-0.036,0-0.069,0-0.101,0c-1-0.134-1.8-0.367-2.399-0.7c-0.4-0.233-0.75-0.566-1.051-1c-0.366-0.5-0.649-0.816-0.85-0.95
		c-0.167-0.134-0.467-0.283-0.9-0.45c-0.367-0.133-0.65-0.283-0.85-0.45c-0.467-0.366-0.95-0.933-1.45-1.699
		c-0.3-0.534-0.583-1.017-0.85-1.45c-0.833-4.5-1.333-7.351-1.5-8.55l2.8,4.6l2.55,1.7c1.934,1.399,3.417,2.833,4.45,4.3
		c1.1,1.533,2.9,2.55,5.4,3.05c1.399,0.3,3.433,0.45,6.1,0.45c0.533,0,3.333-0.283,8.4-0.85c4.1-0.5,6.633-0.551,7.6-0.15
		s3.184,0.75,6.65,1.05C95.858,539.938,96.108,540.238,96.409,540.471z M105.209,540.171l-8.101,0.25l0.051-0.75
		c2.899,0.233,5.35,0.35,7.35,0.35L105.209,540.171z M56.709,540.921l-0.2,0.1l-0.15-0.2
		C56.492,540.854,56.609,540.887,56.709,540.921z"/>
	<path style="fill-rule:evenodd;clip-rule:evenodd;fill:#A5A199;" d="M92.259,71.721c-0.833,0.033-1.816,0.167-2.95,0.4l-2.649,0.4
		c-2.467,0.267-4.684,0.717-6.65,1.35c-1.833,0.6-3.167,1.017-4,1.25c-1.4,0.367-2.8,0.566-4.2,0.6c-1,0-2.149-0.317-3.45-0.95
		c-1.399-0.667-2.466-1.017-3.199-1.05l-2-2c4.633,1.133,8.733,1.517,12.3,1.15c1.7-0.267,2.717-0.434,3.05-0.5l2.95-0.65h0.05
		l2.7-0.55c5.366-0.933,8.7-0.75,10,0.55h-0.4C93.309,71.654,92.792,71.654,92.259,71.721z M88.909,143.821
		c0.933,1.6,1.199,3.267,0.8,5l-0.351-0.3c-0.5-0.467-1.033-1.25-1.6-2.35c-0.667-1.3-1.134-2.117-1.4-2.45
		c-0.033-0.034-0.399-0.45-1.1-1.25c-0.366-0.4-0.634-0.883-0.8-1.45c-0.101-0.333-0.117-1.017-0.05-2.05
		c0.066-0.8-0.134-1.45-0.601-1.95v-2c0.566,1.667,1,2.833,1.3,3.5c0.534,1.167,1.217,2.167,2.051,3
		C87.893,142.288,88.476,143.054,88.909,143.821z M72.309,122.521c1.134,1.933,1.917,3.167,2.351,3.7
		c0.267,0.333,1.35,1.316,3.25,2.95c1,0.867,1.699,1.65,2.1,2.35c0.9,1.533,0.616,3.033-0.85,4.5c-1.7,1.7-2.601,3.033-2.7,4
		c0.033-0.667,0.1-1.7,0.2-3.1c0.066-1.367,0.017-2.433-0.15-3.2c-0.233-1.034-0.767-1.883-1.6-2.55
		c-1.167-0.933-1.917-1.65-2.25-2.15c-0.2-0.267-0.584-1.133-1.15-2.6c-0.434-1.1-0.983-1.85-1.65-2.25
		c-0.966-0.566-2.133-0.767-3.5-0.6c-1.433,0.167-2.5,0.65-3.199,1.45v-2.85v-0.45c0.066,0,1.35-0.8,3.85-2.4
		c1.366-0.867,2.533-0.75,3.5,0.35l0.7,0.95L72.309,122.521z M98.509,254.771v-0.45v-0.6h0.35h0.4h1.25
		c0.4-1.233,1.25-2.867,2.55-4.9c0.733-1.167,1.816-2.767,3.25-4.8c0.334-0.467,1.017-1.517,2.05-3.15
		c1.034-1.533,1.967-2.6,2.801-3.2l-0.65,26.1c-0.008,0.289-0.017,0.581-0.025,0.875l-0.675,25.025
		c-0.434-1.801-0.649-4.467-0.649-8l-0.051-18.9c-0.033-7.533-0.017-13.817,0.051-18.85c-0.434,1.2-1.233,2.75-2.4,4.65
		c-1.6,2.667-2.517,4.2-2.75,4.6c-0.233,0.467-1.3,1.867-3.2,4.2c-0.967,1.233-1.5,2.683-1.6,4.35
		C99.209,260.154,98.976,257.838,98.509,254.771z M110.759,440.271l-0.25,0.2c-1.733,1.166-3.733,3.55-6,7.149
		c-0.7,1.667-1.233,2.867-1.6,3.601c-0.667,1.233-1.617,1.866-2.851,1.899c0.934-0.133,1.566-1.033,1.9-2.699
		c0.2-0.9,0.383-2.2,0.55-3.9l0.55-2.85c0.267-0.4,0.834-0.9,1.7-1.5c0.9-0.601,1.517-1.117,1.85-1.551
		c0.567-0.733,1-1.583,1.301-2.55c0.366-1.233,0.267-2.166-0.301-2.8c-0.466-0.533-1.683-0.7-3.649-0.5
		c-2.033,0.167-3.4-0.017-4.101-0.55c0.067-0.7,0.534-1.184,1.4-1.45c1.066-0.333,1.717-0.65,1.95-0.95
		c0.3-0.399,0.649-1.366,1.05-2.899c0.467-1.934,0.733-2.983,0.8-3.15c1.267-3.767,1.967-6.684,2.101-8.75
		c0.133-1.467,0.017-3.333-0.351-5.6c-0.533-3.434-0.816-5.317-0.85-5.65c-0.467-4.967-0.733-8.75-0.8-11.35
		c0-0.4,0.017-3.45,0.05-9.15c0.033-3.667-0.15-6.667-0.55-9c-0.101-0.634-0.25-1.667-0.45-3.1c-0.3-1.2-0.917-1.95-1.851-2.25
		c-0.399-0.134-1.05,0.017-1.949,0.449c-0.867,0.434-1.517,0.567-1.95,0.4c-0.467-0.167-1.101-0.884-1.9-2.15
		c-0.633-1.033-1.517-1.483-2.649-1.35c-0.267-0.366-0.267-0.733,0-1.1c1.333,0.066,2.133-0.7,2.399-2.301
		c0.3-1.899,0.783-2.983,1.45-3.25c0.934-0.366,1.833-0.083,2.7,0.851c0.767,0.866,1.217,1.833,1.35,2.899
		c0-1.399-0.05-3.566-0.149-6.5c0-2.533,0.216-4.649,0.649-6.35c0.7-2.833,1.417-7.134,2.15-12.9c0.7-5.733,1.416-10.066,2.149-13
		c0.067-0.267,0.584-2.216,1.551-5.85c0.6-2.3,1.05-4.2,1.35-5.7c0,51.967,0.333,87.283,1,105.95
		C110.676,425.887,110.759,432.304,110.759,440.271z M85.059,480.121l6.101-9.75c0.8-0.633,3.066-2.1,6.8-4.399
		c2.866-1.767,4.866-3.351,6-4.75c0.7-0.9,1.783-2.733,3.25-5.5c1.3-2.467,2.467-4.217,3.5-5.25l-0.375,29.825
		c-0.034,1.034-0.06,1.992-0.075,2.875c0,0.699,0,1.392,0,2.074l0.5,33.575c-0.066,1.566-0.134,3.184-0.2,4.851
		c-0.333,0.066-0.767-0.117-1.3-0.551c-0.333-0.3-0.45-1.449-0.35-3.449c0.033-1.067,0.116-2.284,0.25-3.65v-31.65
		c0-2.366-0.233-6.017-0.7-10.949c-0.434-4.367-0.634-7.817-0.601-10.351c-0.3,2.8-4.8,5.5-13.5,8.101
		c-1.6,0.466-2.833,1.233-3.699,2.3c-0.233,0.267-1.017,1.517-2.351,3.75c-0.566,1.1-1.017,1.883-1.35,2.35
		c-0.601,0.834-1.316,1.3-2.15,1.4l-0.3,0.05L85.059,480.121z M85.209,471.771c-0.033,0.767-0.351,1.6-0.95,2.5
		c-1.1,1.667-1.7,2.583-1.8,2.75c-0.367,1.3-0.65,2.283-0.851,2.95c-0.366,1.2-0.916,1.983-1.649,2.35
		c-0.101-0.733-0.15-1.717-0.15-2.95c0-1.433-0.017-2.399-0.05-2.899c-2.934-0.3-5.05-0.566-6.35-0.8
		c-2.101-0.434-3.967-1.317-5.601-2.65l2-1.3c1.033,0.5,2.117,0.767,3.25,0.8c0.934,0.066,1.967-0.033,3.101-0.3
		c0.866-0.2,1.983-0.517,3.35-0.95c2.333-0.7,4.184-0.983,5.55-0.85C85.226,470.921,85.275,471.371,85.209,471.771z M73.858,365.721
		v0.05c0.233,0.833,0.384,2.033,0.45,3.6c-0.066,3.034-0.033,5.134,0.101,6.301c-0.967-0.467-1.534-1.45-1.7-2.95
		c-0.101-0.834-0.167-2.066-0.2-3.7c-0.167-1.066-0.634-2.35-1.4-3.85c-1-1.967-1.6-3.217-1.8-3.75
		c-0.066-0.167-0.217-0.733-0.45-1.7c-0.1-0.334-0.433-0.783-1-1.351c-0.166-0.166-0.533-0.35-1.1-0.55
		c-0.5-0.233-0.833-0.434-1-0.6c-0.434-1.066-0.634-1.584-0.6-1.55c-0.434-0.4-1.4-0.801-2.9-1.2
		c-1.267-0.334-2.083-0.816-2.45-1.45l-2-2c0.8,0.134,1.934,0.25,3.4,0.35c1.533,0.134,2.649,0.25,3.35,0.351
		c1.033,0.133,1.65,0.283,1.851,0.45c0.066,0.066,0.483,0.583,1.25,1.55c0.199,0.233,1.05,1.05,2.55,2.45
		c0.899,0.833,1.434,1.783,1.6,2.85c0.066,0.333,0.066,0.983,0,1.95c-0.066,0.866-0.017,1.517,0.15,1.95
		c0.1,0.3,0.416,0.733,0.95,1.3C73.409,364.754,73.726,365.254,73.858,365.721z M55.809,435.371c-0.066-0.8-0.05-1.533,0.05-2.199
		c0.033-0.467,0.15-1.351,0.35-2.65c0.133-1.1,0.216-1.95,0.25-2.55c0.033-1.2,0.167-3.634,0.4-7.3c0.2-3.067,0.3-5.534,0.3-7.4
		c0-7.2,0.017-11.25,0.05-12.15c0.066-4.6,0.316-8.616,0.75-12.05c0.6-4.666,0.866-10.434,0.8-17.3c0-3.866-0.083-9.667-0.25-17.4
		h2.65c-1.834,0.334-2.084,3.184-0.75,8.551c1.833,5.866,2.75,9.399,2.75,10.6c0.033,2.1-0.301,5.15-1,9.15
		c-0.667,4.066-1,7.133-1,9.199v14.4c-0.167,2.2-0.301,3.983-0.4,5.35c-0.134,2.567,0.033,4.334,0.5,5.301
		c0.2,0.466,0.583,0.85,1.15,1.149c0.666,0.367,1.1,0.684,1.3,0.95c0.233,0.267,0.483,0.733,0.75,1.4c0.267,0.633,0.5,1.066,0.7,1.3
		c0.566,0.767,1.433,1.583,2.6,2.45c0.134,0.133,1.15,0.883,3.05,2.25c-2.3-0.167-3.899-0.084-4.8,0.25
		c-1.233,0.466-2.25,1.633-3.05,3.5c-1,2.333-1.783,3.85-2.351,4.55c-1.267,1.566-2.833,2.083-4.7,1.55L55.809,435.371z
		 M95.759,253.271c0.267,0.933,0.05,1.9-0.65,2.9c0.134-0.4,0.117-0.967-0.05-1.7c-1-0.2-2.2-0.1-3.6,0.3
		c-2,0.567-3.217,0.883-3.65,0.95c-0.967,0.066-2.184,0.1-3.649,0.1c-1.634-0.066-2.851-0.1-3.65-0.1l1.3-0.7
		c0.834,0,2.084,0.017,3.75,0.05c1.434-0.033,2.65-0.2,3.65-0.5c0.8-0.267,1.833-0.65,3.1-1.15c1.101-0.333,2.233-0.433,3.4-0.3
		c0,0.033,0.017,0.066,0.05,0.1V253.271z M85.209,251.021c0.733,0.067,1.316,0.3,1.75,0.7c-0.934-0.034-2.684-0.017-5.25,0.05
		c-2.2,0.067-3.934,0.05-5.2-0.05c-0.9-0.034-1.566-0.083-2-0.15c-0.767-0.066-1.384-0.283-1.85-0.65
		c-0.334-0.233-0.634-0.667-0.9-1.3c-0.3-0.667-0.55-1.1-0.75-1.3c-0.3-0.3-0.684-0.466-1.15-0.5c-0.533,0-0.933-0.083-1.199-0.25
		c-2.101-1.233-3.534-2.1-4.301-2.6c-1.6-1.133-2.833-2.267-3.699-3.4c-1.101-1.433-1.667-3.55-1.7-6.35
		c-0.033-1.567,0.033-3.85,0.2-6.85l2-18.65c0,3.2,0,5.017,0,5.45c0.066,2.267,0.267,4.067,0.6,5.4c0.3,1.233,0.983,2.15,2.05,2.75
		c1.533,0.867,2.45,1.483,2.75,1.85c0.467,0.5,0.7,1.233,0.7,2.2c-0.1,1.1-0.134,1.917-0.1,2.45c0.1,1.833,0.55,3.784,1.35,5.85
		c0.434,1.167,0.767,2.05,1,2.65c0.4,1.067,0.767,1.917,1.1,2.55c0.467,0.833,1.184,1.6,2.15,2.3c1.533,1.067,2.384,1.684,2.55,1.85
		c0.601,0.567,1.267,1.25,2,2.05c0.634,0.6,1.467,1.034,2.5,1.3c0.601,0.167,1.45,0.3,2.55,0.4c0.767,0.267,1.067,0.983,0.9,2.15
		C83.692,250.954,84.342,250.988,85.209,251.021z M63.709,255.471c-0.267-0.767-0.5-1.317-0.7-1.65
		c-0.134-0.233-0.667-0.833-1.6-1.8c-0.634-0.7-0.934-1.467-0.9-2.3l1.3,0.65c1.267,2,3.101,4.617,5.5,7.85
		c0.634,0.833,1.05,1.6,1.25,2.3c0.2,0.967,0.384,1.817,0.55,2.55c0.067,0.267,0.384,0.633,0.95,1.1
		c0.434,0.367,0.55,0.833,0.351,1.4c-0.067,0.167-0.45,0.417-1.15,0.75c-0.833,0.4-1.267,0.617-1.3,0.65
		c-0.066-0.367-0.05-1.117,0.05-2.25c0.033-1-0.017-1.733-0.15-2.2c-0.233-0.733-0.767-1.633-1.6-2.7c-1-1.267-1.634-2.15-1.9-2.65
		C64.192,256.838,63.976,256.271,63.709,255.471z M62.108,333.321l-0.1,1.55l-0.05,0.2c-0.134,1.467-0.2,2.351-0.2,2.65
		c-0.066,1.066,0,1.95,0.2,2.649c0.1,0.367,0.25,0.7,0.45,1c0.1,0.167,0.466,0.75,1.1,1.75c0.467,0.7,0.767,1.317,0.9,1.851
		l-0.551-0.351c-1.399-0.933-2.399-1.85-3-2.75c-0.733-1.133-1.083-2.517-1.05-4.149c0-0.533,0.15-1.417,0.45-2.65
		c0.233-1.1,0.316-2,0.25-2.7c-0.066-0.433-0.366-1.316-0.9-2.649c-0.433-1.066-0.583-1.967-0.449-2.7v-3.3
		c0.709,1.013,1.284,1.938,1.725,2.774l0.375,0.775l0.15,0.45c0.267,0.7,0.466,1.399,0.6,2.1
		C62.176,330.955,62.209,332.121,62.108,333.321z M55.059,472.421c-0.4-0.967-0.617-2.517-0.65-4.65c0-1.134,0.033-2.483,0.1-4.05
		l0.65-2l0.1,0.2c0.533,0.966,1.667,1.833,3.4,2.6c2,0.866,3.233,1.533,3.699,2c0.634,0.667,0.967,1.884,1,3.65
		c0.034,0.933-0.066,2.3-0.3,4.1c-0.7,0.2-1.3,0.2-1.8,0c0.134-1.467-0.233-2.983-1.1-4.55c-0.967-1.8-2.15-2.434-3.55-1.9
		c-0.067,0.601-0.1,1.566-0.1,2.9c0,1.3-0.05,2.283-0.15,2.95C55.826,473.571,55.392,473.155,55.059,472.421z M81.108,510.071
		c-0.066,2.4-0.733,4.634-2,6.7l0.051-1.15l0.5-1.3l-0.5,0.95c0.133-2.767,0.166-4.95,0.1-6.55c-0.066-2.434-0.333-4.55-0.8-6.351
		c-0.334-1.333-0.667-2.383-1-3.149c-0.4-0.967-0.95-1.934-1.65-2.9c-0.934-0.967-1.533-1.7-1.8-2.2
		c-0.2-0.366-0.384-1.183-0.55-2.449c-0.167-1.134-0.417-1.867-0.75-2.2c-0.334-0.334-0.816-0.483-1.45-0.45
		c-0.733,0.066-1.267,0.066-1.6,0c-0.434-0.066-1-0.2-1.7-0.4c-0.733-0.233-1.267-0.383-1.601-0.449c-1.6-0.267-2.767-0.25-3.5,0.05
		s-1.517,1.116-2.35,2.45c-1.066,1.566-1.85,2.783-2.35,3.649c-0.934,1.5-1.5,2.8-1.7,3.9c0.066,1.5,0.1,2.649,0.1,3.45
		c0.067,1.399-0.35,2.283-1.25,2.649c-0.2-1.3-0.283-2.95-0.25-4.95c0-1.133,0.034-2.8,0.1-5l0.65-6.649
		c-0.233-1.066,0.434-2.65,2-4.75c1.5-2.066,2.75-3.134,3.75-3.2l0.15,0.7c0.166,0.633,0.416,1.217,0.75,1.75
		c0.467,0.833,1.1,1.434,1.899,1.8c0.634,0.333,1.551,0.583,2.75,0.75l2.051,0.25c2.199,0.233,3.566,0.4,4.1,0.5
		c0.467,0.134,0.816,0.25,1.05,0.35c0.4,0.2,0.65,0.351,0.75,0.45l0.101,0.15c0.333,0.434,0.583,1.2,0.75,2.3
		c0.3,1.733,0.449,2.634,0.449,2.7c0.067,0.366,0.167,0.666,0.301,0.899l0.3,0.5c0.3,0.5,0.733,1.117,1.3,1.851
		c0.467,0.666,0.767,1.434,0.9,2.3l1.449,7.85c0.367,1.934,0.534,3.601,0.5,5c-0.133,0.967-0.616,2.45-1.449,4.45l0.3-0.6
		C80.492,512.488,80.875,511.271,81.108,510.071z M83.809,515.021c0.033,0.066,0.617,0.866,1.75,2.4
		c0.634,0.933,0.917,1.883,0.851,2.85c-1.2,0.467-2.134-0.05-2.801-1.55c-0.566-1.3-0.716-2.533-0.449-3.7H83.809z M56.509,516.371
		c0.9,0.9,1.917,2.084,3.05,3.551c1.334,1.733,2.117,3,2.351,3.8c0.066,0.3,0.116,1.217,0.149,2.75c0,1,0.351,1.816,1.05,2.45
		c-2.8,0.8-4.916-0.101-6.35-2.7c-1.067-1.967-1.6-4.367-1.6-7.2L56.509,516.371z M80.108,525.021
		c4.167-0.134,7.184,0.017,9.051,0.45c3.6,0.8,4.899,2.633,3.899,5.5c-0.8,0.133-1.316-0.134-1.55-0.8
		c-0.467-1.134-0.75-1.75-0.85-1.851c-0.534-0.6-1.051-0.967-1.551-1.1c-0.699-0.066-1.35-0.134-1.949-0.2
		c-1.567-0.134-2.801-0.316-3.7-0.55C82.259,526.137,81.143,525.655,80.108,525.021h-0.949v-0.65L80.108,525.021z"/>
</g>
</svg>
