<?xml version="1.0" encoding="iso-8859-1"?>
<!-- Generator: Adobe Illustrator 16.0.0, SVG Export Plug-In . SVG Version: 6.00 Build 0)  -->
<!DOCTYPE svg PUBLIC "-//W3C//DTD SVG 1.1//EN" "http://www.w3.org/Graphics/SVG/1.1/DTD/svg11.dtd">
<svg version="1.1" id="FlashAICB" xmlns="http://www.w3.org/2000/svg" xmlns:xlink="http://www.w3.org/1999/xlink" x="0px" y="0px"
	 width="203.456px" height="275.563px" viewBox="0 0 203.456 275.563" style="enable-background:new 0 0 203.456 275.563;"
	 xml:space="preserve">
<g>
	<g>
		
			<linearGradient id="SVGID_1_" gradientUnits="userSpaceOnUse" x1="4.457" y1="-105.3032" x2="256.832" y2="-105.3032" gradientTransform="matrix(3.962358e-006 1 -1 -0.001 -1.710877e-004 2.222738e-004)">
			<stop  offset="0" style="stop-color:#21211B"/>
			<stop  offset="0.1216" style="stop-color:#3D3C32"/>
			<stop  offset="1" style="stop-color:#1C1C18"/>
		</linearGradient>
		<path style="fill-rule:evenodd;clip-rule:evenodd;fill:url(#SVGID_1_);" d="M183.9,259.65v-0.101h-0.051
			c0.034-0.467,0.084-0.934,0.15-1.399c0.5-6.667,1.05-14.967,1.65-24.9c1.333-21.5,2.183-41.65,2.55-60.45
			c0.6-20,0.75-42.017,0.45-66.05c-0.2-18.5-0.567-32.933-1.101-43.3c-0.533-14.8-1.033-25.883-1.5-33.25
			c-0.733-11.733-1.717-21.8-2.95-30.2h3.15c1.333,8.233,2.417,17.9,3.25,29c0.6,8.433,1.167,19.267,1.7,32.5
			c0.533,10.567,0.916,25.15,1.149,43.75c0.301,24.3,0.167,46.55-0.399,66.75c-0.367,19-1.217,39.35-2.55,61.05
			c-0.634,10-1.2,18.367-1.7,25.101c-0.066,0.533-0.117,1.05-0.15,1.55C186.316,259.667,185.1,259.65,183.9,259.65z M21.1,0
			c0.133,5.9,0.733,15.683,1.8,29.35c1.133,14.533,1.85,25.9,2.15,34.1c0.534,10.367,0.9,24.8,1.1,43.3
			c0.3,24.033,0.15,46.066-0.45,66.1c-0.367,18.767-1.217,38.9-2.55,60.4c-0.633,10.7-1.233,19.5-1.8,26.4
			c-0.934,0-1.883,0.017-2.85,0.05c0.533-6.967,1.133-15.851,1.8-26.65c1.333-21.8,2.2-42.149,2.6-61.05
			c0.567-20.167,0.684-42.417,0.35-66.75C23.017,86.783,22.633,72.2,22.1,61.5c-0.3-8.233-1-19.217-2.1-32.95
			C18.933,14.917,18.3,5.4,18.1,0H21.1z"/>
		
			<linearGradient id="SVGID_2_" gradientUnits="userSpaceOnUse" x1="-272.5298" y1="104.9502" x2="-1.0798" y2="104.9502" gradientTransform="matrix(3.683920e-006 -1 1 -0.001 1.775378e-005 -2.660075e-004)">
			<stop  offset="0" style="stop-color:#1C1C16"/>
			<stop  offset="0.2039" style="stop-color:#36352C"/>
			<stop  offset="0.3922" style="stop-color:#333229"/>
			<stop  offset="0.8392" style="stop-color:#57574C"/>
			<stop  offset="0.9137" style="stop-color:#3D3D35"/>
			<stop  offset="1" style="stop-color:#1A1A16"/>
		</linearGradient>
		<path style="fill-rule:evenodd;clip-rule:evenodd;fill:url(#SVGID_2_);" d="M119.35,258.65l2.601-0.051
			c1.825,0.025,3.649,0.067,5.475,0.125L119.35,258.65z M24.5,259.6h-0.65c-0.833,0-1.667,0.017-2.5,0.051
			c0.566-6.9,1.167-15.7,1.8-26.4c1.333-21.5,2.184-41.634,2.55-60.4c0.6-20.033,0.75-42.066,0.45-66.1
			c-0.2-18.5-0.566-32.933-1.1-43.3c-0.3-8.2-1.017-19.567-2.15-34.1C21.833,15.683,21.233,5.9,21.1,0h69.2
			c0.8,10.633,1.55,22.183,2.25,34.65c2.267,40.9,3.217,78.817,2.85,113.75c-0.033,21.133-0.617,43.983-1.75,68.55
			c-0.667,14.6-1.383,27.116-2.15,37.55c-0.3-0.233-0.617-0.417-0.95-0.55c-1.867-0.8-2.833-1.233-2.9-1.3
			c-0.4-0.267-0.75-0.467-1.05-0.601c-0.167-0.1-0.417-0.483-0.75-1.149c-0.1-0.233-0.25-1.051-0.45-2.45
			c-0.2-1.2-0.467-1.917-0.8-2.15c-1.3-0.833-2.517,0.267-3.65,3.3c-0.6,1.634-1.3,3.884-2.1,6.75c-0.9-0.5-2.05-1.05-3.45-1.649
			c-0.533,1.166-1.883,1.934-4.05,2.3c-1.167,0.2-2.733,0.333-4.7,0.4c-1.4,0.166-2.917-0.067-4.55-0.7
			c-1.934-0.733-3.35-1.134-4.25-1.2c0.033-1.934,0.05-2.983,0.05-3.15c-0.033-1.166-0.183-2.166-0.45-3
			c-0.267,0.5-0.967,1.834-2.1,4c-1.1,1.967-1.883,3.034-2.35,3.2c-0.333,0.101-0.633-0.033-0.9-0.399
			c-0.3-0.367-0.55-0.534-0.75-0.5c-0.934,0.199-1.817,0.316-2.65,0.35c-0.534,0-1.383,0-2.55,0c-0.633,0-2.566,0.35-5.8,1.05
			c-2.8,0.233-4.083-0.717-3.85-2.85c-1.5,0.5-2.3-0.367-2.4-2.601c0.167-2.833,0.133-4.75-0.1-5.75c-0.3-1.267-0.5-2.183-0.6-2.75
			c-0.2-0.899-0.316-1.833-0.35-2.8c-0.033-0.666,0.017-1.717,0.15-3.149c0.133-1.434,0.183-2.5,0.15-3.2
			c-1,0.399-1.65,2.517-1.95,6.35c-0.367,4.934-0.633,7.7-0.8,8.3c-0.367,1.233-0.767,2.134-1.2,2.7
			c-0.3,0.367-0.883,1.017-1.75,1.95c-0.3,0.434-0.7,0.884-1.2,1.35c-0.3,0.467-0.45,1.2-0.45,2.2
			C25,257.033,24.5,257.967,24.5,259.6z M80.4,258.7c0.6-0.033,1.2-0.05,1.8-0.05h0.85L80.4,258.7z M112.1,0h71
			c1.233,8.4,2.217,18.467,2.95,30.2c0.467,7.367,0.967,18.45,1.5,33.25c0.533,10.367,0.9,24.8,1.101,43.3
			c0.3,24.033,0.149,46.05-0.45,66.05c-0.367,18.8-1.217,38.95-2.55,60.45c-0.601,9.934-1.15,18.233-1.65,24.9
			c-0.066,0.466-0.116,0.933-0.15,1.399c-1.699-0.899-3.783-1.467-6.25-1.7c-0.466-0.033-1.333-0.017-2.6,0.051
			c-1.1,0.033-1.95,0-2.55-0.101c-1.134-0.233-2.033-0.85-2.7-1.85c-0.9-1.4-1.6-2.3-2.1-2.7c-0.334-0.233-1.284-0.483-2.851-0.75
			c-1.133-0.167-1.85-0.9-2.149-2.2c-0.2-0.833-0.15-2.316,0.149-4.45c0.3-2.433,0.434-4,0.4-4.699c-0.934-0.367-1.7,0.149-2.3,1.55
			c-0.334,0.8-0.733,2.083-1.2,3.85c-0.3,0.834-0.816,2.101-1.55,3.8c-0.634,1.567-0.983,3-1.051,4.301
			c-1.366,0.5-2.55,0.233-3.55-0.801c-0.633-0.633-0.95-1.083-0.95-1.35c-0.033-0.733-0.116-1.267-0.25-1.6
			c-0.166-1.167-0.3-1.983-0.399-2.45c-0.167-0.8-0.667-1.15-1.5-1.05c-0.566,0.066-1.066,0.616-1.5,1.649
			c-0.367,0.834-0.584,1.684-0.65,2.55c-0.3-0.333-0.649-0.5-1.05-0.5c0.1,2.7-0.983,4.534-3.25,5.5c-2.2,0.9-3.816,0.467-4.85-1.3
			c-0.7-1.1-1.067-2.3-1.101-3.6c-0.033-1.233,0.217-2.7,0.75-4.4c0.233-0.7,1.351-2.483,3.351-5.35c1.633-2.3,2.3-4.15,2-5.55
			c-1.233-0.634-2.15-0.25-2.75,1.149c-0.9,2.033-1.483,3.15-1.75,3.351c-0.767,0.566-1.45,0.366-2.051-0.601
			c-1.066-1.8-1.649-2.75-1.75-2.85c0.834,1.833,0.801,3.816-0.1,5.95c-0.533,1.333-1.566,2.933-3.1,4.8
			c-0.9,1.133-2.034,2.616-3.4,4.45c-1.2,1.3-2.634,1.933-4.3,1.899c-1.033-0.033-3.017-0.283-5.95-0.75
			c-0.4-0.066-1.233-0.217-2.5-0.45c-1.134-0.166-1.967-0.116-2.5,0.15c-0.366,0.2-0.783,0.566-1.25,1.1
			c-0.134,0-0.25,0.017-0.35,0.051c1.1-12.534,2.267-33.134,3.5-61.801c1.267-29.333,1.833-47.733,1.699-55.2
			c0.467-6.933,0.2-25.383-0.8-55.35C115.667,48.5,114.1,21.067,112.1,0z M130.85,149.25c0.7,1.1,1.517,2.15,2.45,3.15
			c4.066,4.333,9,6.517,14.8,6.55l8.7,0.05c5.834,0.066,10.834-2.05,15-6.35c4.2-4.267,6.316-9.467,6.351-15.601
			c0.1-21.833-0.2-43.667-0.9-65.5c-0.2-5.8-1.8-11.483-4.8-17.05c-2.233-4.1-5.134-7.95-8.7-11.55
			c-1.767-2.167-3.75-4.25-5.95-6.25c-4-3.633-8.55-6.267-13.649-7.9c-4.267-1.367-9.117-2.066-14.551-2.1
			c-4.133,0-6.533,5.2-7.199,15.6c-0.2,2.767-0.101,11.017,0.3,24.75c0.767,21.8,1.116,43.617,1.05,65.45
			c-0.033,6.133,1.983,11.366,6.05,15.7C130.134,148.566,130.483,148.917,130.85,149.25z M131.5,184.8v0.101l0.85,0.35
			c4.534-0.3,9.7-0.2,15.5,0.3l12.101,0.15c3.166,0.233,5.483,0.25,6.95,0.05c-0.4-1-0.584-1.866-0.551-2.6
			c0.034-0.367,0-0.867-0.1-1.5c-0.1-0.7-0.15-1.217-0.15-1.551c0.067-0.699,0.117-1.233,0.15-1.6c0-0.667-0.116-1.134-0.35-1.4
			l0.05-0.449c-11.4-0.2-22.816-0.351-34.25-0.45l-0.25,8.6H131.5z M80.7,31.85c-1.6-3.434-3.617-5.133-6.05-5.1
			c-5.4,0.033-10.167,0.733-14.3,2.1c-4.9,1.6-9.167,4.217-12.8,7.85c-4.133,4.167-7.333,8.733-9.6,13.7
			c-2.534,5.533-3.7,11.217-3.5,17.05c0.767,20.533,1.117,42.35,1.05,65.45c-0.033,5.833,1.783,10.833,5.45,15
			c0.9,1.699,2.05,3.283,3.45,4.75c4.033,4.3,8.967,6.416,14.8,6.35l8.7-0.05c5.833-0.033,10.833-2.217,15-6.55
			c4.2-4.367,6.317-9.617,6.35-15.75c0.1-21.833-0.2-43.65-0.9-65.45c-0.267-11.1-0.833-19.35-1.7-24.75
			C85.383,38.617,83.4,33.75,80.7,31.85z M83,176.8v-0.25v-0.25l-34.2,0.2l-0.3,8.6h0.05c-0.033,0.034-0.033,0.084,0,0.15
			c0.267,0.167,0.567,0.267,0.9,0.3c4.566-0.399,9.716-0.399,15.45,0l12.15-0.1c1.534,0.066,2.684,0.1,3.45,0.1
			c1.433,0.033,2.583-0.017,3.45-0.149c-0.367-1-0.534-1.851-0.5-2.551c-0.167-1.333-0.25-2.366-0.25-3.1
			c0.066-0.667,0.1-1.184,0.1-1.55C83.333,177.5,83.233,177.033,83,176.8z"/>
		<path style="fill-rule:evenodd;clip-rule:evenodd;fill:#2E2E25;" d="M196.6,0h1.051c1.199,8.6,2.166,19.067,2.899,31.4
			c0.4,7.2,0.917,18.067,1.55,32.6c0.601,9.333,1.017,24.583,1.25,45.75c0.267,25.533,0.034,48.217-0.699,68.05
			c-0.634,19.634-1.551,39.05-2.75,58.25c-0.567,9.4-1.051,16.783-1.45,22.15h-0.9c0.367-5.2,0.8-11.967,1.3-20.3
			c1.2-19.367,2.134-38.934,2.801-58.7c0.733-20.101,0.966-42.95,0.699-68.55c-0.199-21.566-0.616-36.95-1.25-46.15
			c-0.633-14.667-1.149-25.617-1.55-32.85C198.85,19.117,197.866,8.567,196.6,0z"/>
		
			<linearGradient id="SVGID_3_" gradientUnits="userSpaceOnUse" x1="-254.2549" y1="104.9287" x2="2.2451" y2="104.9287" gradientTransform="matrix(3.898636e-006 -1 1 -0.001 -1.983168e-004 -2.669450e-004)">
			<stop  offset="0" style="stop-color:#22211B"/>
			<stop  offset="0.8275" style="stop-color:#636253"/>
			<stop  offset="0.9137" style="stop-color:#3B3B31"/>
			<stop  offset="1" style="stop-color:#12120F"/>
		</linearGradient>
		<path style="fill-rule:evenodd;clip-rule:evenodd;fill:url(#SVGID_3_);" d="M197.55,258.2c-0.066,0.7-0.116,1.366-0.149,2
			l-95.601-0.45L7.4,260.2c0.6-7.134,1.3-16.15,2.1-27.05c1.633-21.967,2.967-42.15,4-60.551c2-29.899,1.683-65.383-0.95-106.45
			c-0.333-6.8-1.133-18.367-2.4-34.7C9.05,17.55,8.433,7.067,8.3,0h9.8c0.2,5.4,0.833,14.917,1.9,28.55
			c1.1,13.733,1.8,24.717,2.1,32.95c0.533,10.7,0.917,25.283,1.15,43.75c0.333,24.333,0.217,46.583-0.35,66.75
			c-0.4,18.9-1.267,39.25-2.6,61.05c-0.667,10.8-1.267,19.684-1.8,26.65c0.967-0.033,1.917-0.05,2.85-0.05
			c0.833-0.034,1.667-0.051,2.5-0.051h0.65c0.433,0,0.883-0.017,1.35-0.05l54.55-0.85l2.65-0.05h36.3l8.075,0.074
			c0.608,0.006,1.217,0.014,1.825,0.025l51.6,0.85c0.301,0,0.601,0,0.9,0l2.15,0.051c1.199,0,2.416,0.017,3.649,0.05
			c0.033-0.5,0.084-1.017,0.15-1.55c0.5-6.733,1.066-15.101,1.7-25.101c1.333-21.7,2.183-42.05,2.55-61.05
			c0.566-20.2,0.7-42.45,0.399-66.75c-0.233-18.6-0.616-33.183-1.149-43.75c-0.533-13.233-1.101-24.067-1.7-32.5
			c-0.833-11.1-1.917-20.767-3.25-29h10.35c1.267,8.567,2.25,19.117,2.95,31.65c0.4,7.233,0.917,18.184,1.55,32.85
			c0.634,9.2,1.051,24.583,1.25,46.15c0.267,25.6,0.034,48.45-0.699,68.55c-0.667,19.767-1.601,39.333-2.801,58.7
			C198.35,246.233,197.917,253,197.55,258.2z"/>
		
			<linearGradient id="SVGID_4_" gradientUnits="userSpaceOnUse" x1="9.3066" y1="-154.5088" x2="252.6066" y2="-154.5088" gradientTransform="matrix(4.110152e-006 1 -1 -0.0039 4.800530e-005 2.364602e-004)">
			<stop  offset="0" style="stop-color:#1C1C16"/>
			<stop  offset="0.2039" style="stop-color:#36352C"/>
			<stop  offset="0.3922" style="stop-color:#292921"/>
			<stop  offset="1" style="stop-color:#4F4F44"/>
		</linearGradient>
		<path style="fill-rule:evenodd;clip-rule:evenodd;fill:url(#SVGID_4_);" d="M163.75,42.95c3.566,3.6,6.467,7.45,8.7,11.55
			c3,5.567,4.6,11.25,4.8,17.05c0.7,21.833,1,43.667,0.9,65.5c-0.034,6.134-2.15,11.334-6.351,15.601
			c-4.166,4.3-9.166,6.416-15,6.35l-8.7-0.05c-5.8-0.033-10.733-2.217-14.8-6.55c-0.934-1-1.75-2.051-2.45-3.15
			c3.867,3.667,8.467,5.517,13.801,5.55l8.699,0.05c5.801,0.067,10.784-2.05,14.95-6.35c4.167-4.333,6.267-9.55,6.3-15.65
			c0.101-21.833-0.25-43.667-1.05-65.5c-0.2-5.8-1.8-11.467-4.8-17C167.35,47.783,165.684,45.317,163.75,42.95z"/>
		
			<radialGradient id="SVGID_5_" cx="-147.5142" cy="-32.1499" r="63.175" gradientTransform="matrix(-1 0 0.0061 -1.7305 0.083 -23.4858)" gradientUnits="userSpaceOnUse">
			<stop  offset="0" style="stop-color:#94958E"/>
			<stop  offset="0.3804" style="stop-color:#808075"/>
			<stop  offset="1" style="stop-color:#919183"/>
		</radialGradient>
		<path style="fill-rule:evenodd;clip-rule:evenodd;fill:url(#SVGID_5_);" d="M162.1,56.5c2.034,4.133,3.284,8.383,3.75,12.75
			c-13.166,3.8-24.866,10.85-35.1,21.15l-0.55-18.8c-0.3-11.733-0.384-18.667-0.25-20.8c0.434-8.7,2.116-13.033,5.05-13
			c3.833,0.034,7.25,0.617,10.25,1.75c3.566,1.367,6.767,3.567,9.6,6.6C157.816,49.283,160.233,52.733,162.1,56.5z"/>
		
			<radialGradient id="SVGID_6_" cx="-147.6587" cy="-29.1499" r="68.9875" gradientTransform="matrix(-1 0 0.0062 -1.6492 0.0712 -18.9245)" gradientUnits="userSpaceOnUse">
			<stop  offset="0" style="stop-color:#94958E"/>
			<stop  offset="0.3804" style="stop-color:#6B6B62"/>
			<stop  offset="1" style="stop-color:#77776C"/>
		</radialGradient>
		<path style="fill-rule:evenodd;clip-rule:evenodd;fill:url(#SVGID_6_);" d="M133.25,35.05c0.066,0,0.134,0,0.2,0
			c1.566,0,3.083,0.1,4.55,0.3l5.05,1c4.601,1.367,8.617,3.816,12.05,7.35c3.534,3.6,6.351,7.55,8.45,11.85
			c2.334,4.8,3.584,9.733,3.75,14.8c0.601,19,0.9,38,0.9,57c0,5.333-1.601,9.867-4.8,13.6c-3.167,3.767-6.983,5.616-11.45,5.55h-6.7
			c-4.434-0.033-8.217-1.95-11.35-5.75c-3.134-3.767-4.7-8.317-4.7-13.65c0-17.934-0.316-36.934-0.95-57
			c-0.333-11.934-0.434-19.117-0.3-21.55C128.45,39.717,130.217,35.217,133.25,35.05z M162.1,56.5
			c-1.866-3.767-4.283-7.217-7.25-10.35c-2.833-3.033-6.033-5.233-9.6-6.6c-3-1.133-6.417-1.716-10.25-1.75
			c-2.934-0.033-4.616,4.3-5.05,13c-0.134,2.133-0.05,9.067,0.25,20.8l0.55,18.8c10.233-10.3,21.934-17.35,35.1-21.15
			C165.384,64.883,164.134,60.633,162.1,56.5z"/>
		<path style="fill-rule:evenodd;clip-rule:evenodd;fill:#4E4D41;" d="M143.05,36.35c0.533,0.133,1.05,0.3,1.55,0.5
			c3.967,1.433,7.534,3.767,10.7,7c3.601,3.667,6.45,7.7,8.55,12.1c2.367,4.9,3.634,9.933,3.801,15.1
			c0.633,18.8,0.949,38.15,0.949,58.05c-0.033,5.433-1.666,10.05-4.899,13.85s-7.134,5.684-11.7,5.649l-6.8-0.05
			c-4.533-0.033-8.4-1.967-11.601-5.8c-3.199-3.867-4.8-8.517-4.8-13.95c0.066-19.333-0.233-38.683-0.899-58.05
			c-0.334-12.1-0.434-19.417-0.301-21.95c0.534-9.2,2.417-13.783,5.65-13.75c-3.033,0.167-4.8,4.667-5.3,13.5
			c-0.134,2.434-0.033,9.617,0.3,21.55c0.634,20.066,0.95,39.066,0.95,57c0,5.333,1.566,9.883,4.7,13.65
			c3.133,3.8,6.916,5.717,11.35,5.75h6.7c4.467,0.066,8.283-1.783,11.45-5.55c3.199-3.733,4.8-8.267,4.8-13.6c0-19-0.3-38-0.9-57
			c-0.166-5.067-1.416-10-3.75-14.8c-2.1-4.3-4.916-8.25-8.45-11.85C151.667,40.167,147.65,37.717,143.05,36.35z M71.95,35.05
			c3.3-0.033,5.633,4.567,7,13.8c0.667,4.633,1.133,11.95,1.4,21.95c0.633,18.867,0.95,38.217,0.95,58.05
			c0,5.433-1.633,10.083-4.9,13.95c-3.233,3.834-7.133,5.767-11.7,5.8l-6.8,0.051c-4.533,0.033-8.4-1.851-11.6-5.65
			c-3.167-3.8-4.75-8.417-4.75-13.85c0-19.833-0.316-39.183-0.95-58.05c-0.167-5.167,0.733-10.2,2.7-15.1
			c0.767-1.9,1.684-3.733,2.75-5.5c-0.933,1.633-1.75,3.333-2.45,5.1c-1.934,4.8-2.817,9.75-2.65,14.85
			c0.633,18.466,0.95,37.45,0.95,56.95c0,5.367,1.567,9.917,4.7,13.65c3.133,3.733,6.917,5.566,11.35,5.5l6.7-0.05
			c4.467-0.033,8.3-1.934,11.5-5.7c3.2-3.8,4.783-8.367,4.75-13.7c0-19-0.3-37.983-0.9-56.95c-0.267-9.767-0.75-16.967-1.45-21.6
			C77.283,39.75,75.083,35.25,71.95,35.05z"/>
		<linearGradient id="SVGID_7_" gradientUnits="userSpaceOnUse" x1="147.459" y1="148.6621" x2="147.6715" y2="37.4373">
			<stop  offset="0" style="stop-color:#1C1B16"/>
			<stop  offset="1" style="stop-color:#171712"/>
		</linearGradient>
		<path style="fill-rule:evenodd;clip-rule:evenodd;fill:url(#SVGID_7_);" d="M133.25,35.05c-3.233-0.033-5.116,4.55-5.65,13.75
			c-0.133,2.534-0.033,9.85,0.301,21.95c0.666,19.367,0.966,38.717,0.899,58.05c0,5.434,1.601,10.083,4.8,13.95
			c3.2,3.833,7.067,5.767,11.601,5.8l6.8,0.05c4.566,0.034,8.467-1.85,11.7-5.649s4.866-8.417,4.899-13.85
			c0-19.9-0.316-39.25-0.949-58.05c-0.167-5.167-1.434-10.2-3.801-15.1c-2.1-4.4-4.949-8.434-8.55-12.1
			c-3.166-3.233-6.733-5.567-10.7-7c-0.5-0.2-1.017-0.367-1.55-0.5l-5.05-1c-1.467-0.2-2.983-0.3-4.55-0.3
			C133.384,35.05,133.316,35.05,133.25,35.05z M164.2,54.35c2.5,5.033,3.85,10.2,4.05,15.5c0.634,19.3,0.95,39.117,0.95,59.45
			c0,5.534-1.717,10.267-5.15,14.2c-3.434,3.9-7.55,5.833-12.35,5.8l-7.2-0.05c-4.8-0.033-8.866-2.017-12.2-5.95
			c-3.366-3.934-5.05-8.7-5.05-14.3c0-20.333-0.316-40.15-0.95-59.45c-0.333-12.633-0.434-20.133-0.3-22.5
			c0.533-9.433,2.5-14.133,5.9-14.1c4.466,0.033,8.483,0.667,12.05,1.9c4.166,1.467,7.916,3.85,11.25,7.15
			C159,45.767,162,49.883,164.2,54.35z"/>
		<linearGradient id="SVGID_8_" gradientUnits="userSpaceOnUse" x1="148.0254" y1="152.7754" x2="148.2629" y2="32.9256">
			<stop  offset="0" style="stop-color:#323128"/>
			<stop  offset="1" style="stop-color:#21211A"/>
		</linearGradient>
		<path style="fill-rule:evenodd;clip-rule:evenodd;fill:url(#SVGID_8_);" d="M167.95,51.2c2.934,5.433,4.5,10.983,4.7,16.65
			c0.767,21.367,1.116,42.733,1.05,64.1c-0.033,5.966-2.084,11.05-6.15,15.25c-4.066,4.233-8.934,6.316-14.6,6.25l-8.5-0.05
			c-5.7-0.034-10.533-2.167-14.5-6.4c-3.967-4.267-5.934-9.4-5.9-15.4c0.066-21.333-0.283-42.684-1.05-64.05
			c-0.4-13.4-0.5-21.483-0.3-24.25c0.633-10.167,2.983-15.233,7.05-15.2c5.3,0.033,10.033,0.717,14.2,2.05
			c4.967,1.567,9.416,4.133,13.35,7.7C161.767,41.917,165.316,46.367,167.95,51.2z M164.2,54.35c-2.2-4.467-5.2-8.583-9-12.35
			c-3.334-3.3-7.084-5.683-11.25-7.15c-3.566-1.233-7.584-1.867-12.05-1.9c-3.4-0.034-5.367,4.667-5.9,14.1
			c-0.134,2.367-0.033,9.867,0.3,22.5c0.634,19.3,0.95,39.117,0.95,59.45c0,5.6,1.684,10.366,5.05,14.3
			c3.334,3.934,7.4,5.917,12.2,5.95l7.2,0.05c4.8,0.033,8.916-1.899,12.35-5.8c3.434-3.934,5.15-8.667,5.15-14.2
			c0-20.333-0.316-40.15-0.95-59.45C168.05,64.55,166.7,59.383,164.2,54.35z"/>
		<linearGradient id="SVGID_9_" gradientUnits="userSpaceOnUse" x1="148.3281" y1="154.1504" x2="148.5656" y2="31.6506">
			<stop  offset="0" style="stop-color:#5D5B4A"/>
			<stop  offset="1" style="stop-color:#141410"/>
		</linearGradient>
		<path style="fill-rule:evenodd;clip-rule:evenodd;fill:url(#SVGID_9_);" d="M130.85,149.25c-0.366-0.333-0.716-0.684-1.05-1.05
			c-4.066-4.334-6.083-9.567-6.05-15.7c0.066-21.833-0.283-43.65-1.05-65.45c-0.4-13.733-0.5-21.983-0.3-24.75
			c0.666-10.4,3.066-15.6,7.199-15.6c5.434,0.033,10.284,0.733,14.551,2.1c5.1,1.633,9.649,4.267,13.649,7.9
			c2.2,2,4.184,4.083,5.95,6.25c1.934,2.367,3.6,4.833,5,7.4c3,5.533,4.6,11.2,4.8,17c0.8,21.833,1.15,43.667,1.05,65.5
			c-0.033,6.1-2.133,11.317-6.3,15.65c-4.166,4.3-9.149,6.417-14.95,6.35l-8.699-0.05
			C139.316,154.767,134.717,152.917,130.85,149.25z M167.95,51.2c-2.634-4.833-6.184-9.284-10.65-13.35
			c-3.934-3.567-8.383-6.133-13.35-7.7c-4.167-1.333-8.9-2.017-14.2-2.05c-4.066-0.033-6.417,5.033-7.05,15.2
			c-0.2,2.767-0.101,10.85,0.3,24.25c0.767,21.367,1.116,42.717,1.05,64.05c-0.033,6,1.934,11.133,5.9,15.4
			c3.967,4.233,8.8,6.366,14.5,6.4l8.5,0.05c5.666,0.066,10.533-2.017,14.6-6.25c4.066-4.2,6.117-9.284,6.15-15.25
			c0.066-21.367-0.283-42.733-1.05-64.1C172.45,62.183,170.884,56.633,167.95,51.2z"/>
		<path style="fill-rule:evenodd;clip-rule:evenodd;fill:#94874C;" d="M139.2,184.7c-2.467,0.033-5.033,0.066-7.7,0.1h-0.05
			l0.25-8.6c11.434,0.1,22.85,0.25,34.25,0.45l-0.05,0.449v-0.25l-33.7-0.05l-0.7,7.851C134.066,184.65,136.634,184.667,139.2,184.7
			z M83,176.55l-33.75,0.55l-0.7,7.851c2.534-0.033,5.067-0.05,7.6-0.05c-2.433,0.066-4.967,0.133-7.6,0.199H48.5l0.3-8.6l34.2-0.2
			V176.55z"/>
		<path style="fill-rule:evenodd;clip-rule:evenodd;fill:#746A3C;" d="M165.9,177.1l-0.25,7.851
			c-8.801-0.101-17.617-0.184-26.45-0.25c-2.566-0.033-5.134-0.05-7.7-0.05l0.7-7.851l33.7,0.05V177.1z M162.9,180.05
			c0.466,0.033,0.699,0.334,0.699,0.9l-0.1,1.75h0.55l0.05-1.8c0.034-0.834-0.3-1.25-1-1.25c-0.466,0-0.8,0.166-1,0.5v-0.45h-0.5
			l-0.05,2.95h0.55l0.051-1.801l0.05-0.25C162.333,180.233,162.566,180.05,162.9,180.05z M55.6,182.3
			c-0.567,0-0.85-0.383-0.85-1.149c0.067-0.767,0.383-1.15,0.95-1.15c0.566,0,0.85,0.366,0.85,1.1
			C56.55,181.9,56.233,182.3,55.6,182.3z M54.65,180.05c-0.267,0.267-0.417,0.65-0.45,1.15c0,0.434,0.133,0.8,0.4,1.1
			c0.267,0.267,0.6,0.4,1,0.4s0.733-0.134,1-0.4c0.3-0.3,0.467-0.7,0.5-1.2c0.033-0.466-0.083-0.833-0.35-1.1
			c-0.267-0.3-0.617-0.434-1.05-0.4C55.3,179.6,54.95,179.75,54.65,180.05z M53.2,179c-0.333-0.333-0.883-0.5-1.65-0.5l-1.15,0.1
			l-0.1,4.051c0.167,0.033,0.483,0.05,0.95,0.05c0.833,0,1.45-0.2,1.85-0.601c0.433-0.433,0.65-0.983,0.65-1.649
			C53.75,179.783,53.567,179.3,53.2,179z M50.95,179l0.6-0.1c1.1,0,1.65,0.533,1.65,1.6c-0.067,1.134-0.684,1.733-1.85,1.8
			l-0.5-0.05L50.95,179z M59.8,178.4l-0.6,0.05l-0.15,4.149h0.5l0.1-3.5l1.95,3.45h0.55l0.15-4.149h-0.5l-0.05,1.75
			c-0.033,0.6-0.033,1.166,0,1.699H61.7L59.8,178.4z M56.15,184.9c-2.533,0-5.066,0.017-7.6,0.05l0.7-7.851L83,176.55v0.25
			l-0.25,7.851C73.883,184.717,65.017,184.8,56.15,184.9z M147.35,179.85c0.567,0.034,0.851,0.417,0.851,1.15
			c-0.066,0.767-0.384,1.15-0.95,1.15s-0.85-0.384-0.85-1.15S146.717,179.85,147.35,179.85z M146.3,179.9
			c-0.3,0.3-0.45,0.683-0.45,1.149c-0.033,0.434,0.084,0.8,0.351,1.101c0.267,0.267,0.6,0.399,1,0.399
			c0.399,0.033,0.75-0.083,1.05-0.35s0.467-0.667,0.5-1.2c0-0.467-0.134-0.833-0.4-1.1c-0.233-0.301-0.566-0.45-1-0.45
			C146.95,179.45,146.6,179.6,146.3,179.9z M142.7,178.3H142.1l-0.1,4.15h0.5l0.05-3.45l0.05-0.05l1.95,3.55h0.55l0.101-4.15h-0.5
			v3.4l-0.05,0.05c-0.134-0.399-0.367-0.85-0.7-1.35L142.7,178.3z M150.15,178.85L149.6,179v0.55h-0.449l-0.051,0.4h0.5l-0.05,1.649
			c-0.033,0.367,0.017,0.617,0.15,0.75c0.166,0.167,0.366,0.25,0.6,0.25l0.45-0.05v-0.45l-0.3,0.051c-0.267,0-0.4-0.2-0.4-0.601
			l0.05-1.6h0.801v-0.4H150.1L150.15,178.85z M160.2,180.7v0.05c-1.2-0.066-1.8,0.3-1.8,1.1c-0.034,0.233,0.033,0.434,0.199,0.601
			c0.167,0.166,0.384,0.25,0.65,0.25c0.4,0,0.717-0.15,0.95-0.45l0.05,0.4h0.45l0.05-1.851c0-0.8-0.366-1.2-1.1-1.2
			c-0.4,0-0.733,0.084-1,0.25l0.1,0.351c0.167-0.134,0.434-0.2,0.8-0.2C159.983,180,160.2,180.233,160.2,180.7z M160.2,181.65
			l-0.05,0.149c-0.134,0.334-0.384,0.5-0.75,0.5c-0.334,0-0.5-0.166-0.5-0.5c0.033-0.467,0.466-0.7,1.3-0.7V181.65z M155.75,180
			c-0.267,0.3-0.4,0.684-0.4,1.15c-0.033,0.466,0.084,0.833,0.351,1.1s0.616,0.4,1.05,0.4c0.267,0,0.6-0.051,1-0.15l-0.1-0.4
			c-0.2,0.101-0.467,0.15-0.801,0.15c-0.666,0-1-0.35-1-1.05h2.101v-0.25c0.033-0.334-0.033-0.634-0.2-0.9
			c-0.2-0.333-0.517-0.5-0.95-0.5S156.017,179.7,155.75,180z M155.9,180.8c0.066-0.566,0.35-0.85,0.85-0.85
			c0.467,0,0.7,0.3,0.7,0.899L155.9,180.8z M153.4,178.4h-0.551l-0.149,4.149l2.3,0.05l0.05-0.449l-1.8-0.051L153.4,178.4z
			 M137.7,180.95c0-0.767,0.316-1.15,0.95-1.15c0.566,0,0.85,0.384,0.85,1.15c-0.066,0.767-0.384,1.149-0.95,1.149
			c-0.267,0-0.483-0.116-0.649-0.35C137.733,181.55,137.667,181.283,137.7,180.95z M140.05,180.95c0-0.467-0.133-0.834-0.399-1.101
			c-0.233-0.3-0.567-0.449-1-0.449c-0.434,0-0.784,0.133-1.051,0.399c-0.3,0.3-0.449,0.684-0.449,1.15
			c-0.034,0.467,0.083,0.85,0.35,1.149c0.267,0.267,0.6,0.4,1,0.4C139.5,182.5,140.017,181.983,140.05,180.95z M136.15,178.75
			c-0.334-0.333-0.884-0.5-1.65-0.5c-0.333-0.033-0.717-0.017-1.15,0.05L133.2,182.4l1,0.05c0.833,0,1.45-0.2,1.85-0.601
			c0.367-0.333,0.584-0.866,0.65-1.6C136.7,179.616,136.517,179.116,136.15,178.75z M133.85,178.7l0.65-0.05
			c1.134,0,1.667,0.533,1.6,1.6c0,1.167-0.6,1.75-1.8,1.75h-0.55L133.85,178.7z M64.3,182.2c-0.566,0-0.85-0.384-0.85-1.15
			c0.066-0.767,0.383-1.149,0.95-1.149c0.567,0,0.85,0.383,0.85,1.149c0,0.334-0.083,0.601-0.25,0.8
			C64.8,182.083,64.567,182.2,64.3,182.2z M64.45,179.5c-0.434,0-0.784,0.15-1.05,0.45c-0.3,0.267-0.467,0.649-0.5,1.149
			c0,0.434,0.133,0.801,0.4,1.101c0.267,0.267,0.6,0.399,1,0.399c0.4,0,0.733-0.133,1-0.399c0.3-0.3,0.467-0.7,0.5-1.2
			c0.034-0.434-0.083-0.8-0.35-1.1C65.217,179.634,64.883,179.5,64.45,179.5z M67.2,178.8l-0.5,0.2l-0.05,0.55H66.2v0.4h0.45
			l-0.05,1.6c0,0.4,0.066,0.667,0.2,0.8c0.1,0.134,0.284,0.2,0.55,0.2l0.5-0.05v-0.4H67.5c-0.267,0-0.4-0.183-0.4-0.55l0.05-1.6h0.8
			v-0.45H67.2V178.8z M76.5,182.1c-0.333,0-0.5-0.166-0.5-0.5c0-0.466,0.417-0.699,1.25-0.699v0.699
			C77.117,181.934,76.867,182.1,76.5,182.1z M80,179.8c0.433,0,0.65,0.3,0.65,0.9l-0.05,1.7h0.55l0.05-1.75
			c0.033-0.867-0.3-1.301-1-1.301c-0.467,0-0.8,0.2-1,0.601l-0.05-0.5H78.7l-0.1,2.95h0.55l0.05-1.801l0.05-0.25
			C79.383,179.983,79.633,179.8,80,179.8z M72.1,182.45V182l-1.75,0.05l0.1-3.7H69.9l-0.1,4.15L72.1,182.45z M73.8,179.8
			c0.5,0,0.75,0.283,0.75,0.851l-1.6,0.05C73.017,180.1,73.3,179.8,73.8,179.8z M75,181.05l0.05-0.25c0-0.934-0.4-1.399-1.2-1.399
			c-0.4,0-0.733,0.149-1,0.449c-0.267,0.301-0.417,0.684-0.45,1.15c0,1.066,0.483,1.566,1.45,1.5c0.4,0,0.733-0.066,1-0.2l-0.1-0.35
			c-0.4,0.1-0.683,0.149-0.85,0.149c-0.667,0-0.983-0.35-0.95-1.05H75z M75.7,179.65l0.15,0.35c0.167-0.134,0.417-0.2,0.75-0.2
			c0.467,0,0.7,0.217,0.7,0.65l-0.05,0.1c-1.133,0-1.733,0.367-1.8,1.101c0,0.566,0.3,0.85,0.9,0.85c0.433,0,0.733-0.15,0.9-0.45
			l0.05,0.4l0.5-0.05l-0.05-0.7l0.05-1.101c0-0.8-0.367-1.199-1.1-1.199C76.3,179.4,75.967,179.483,75.7,179.65z"/>
		<path style="fill-rule:evenodd;clip-rule:evenodd;fill:#24241D;" d="M139.2,184.7c8.833,0.066,17.649,0.149,26.45,0.25l0.25-7.851
			c0.233,0.267,0.35,0.733,0.35,1.4c-0.033,0.366-0.083,0.9-0.15,1.6c0,0.334,0.051,0.851,0.15,1.551c0.1,0.633,0.134,1.133,0.1,1.5
			c-0.033,0.733,0.15,1.6,0.551,2.6c-1.467,0.2-3.784,0.184-6.95-0.05l-12.101-0.15c-5.8-0.5-10.966-0.6-15.5-0.3l-0.85-0.35V184.8
			C134.167,184.767,136.733,184.733,139.2,184.7z M48.55,185.1c2.633-0.066,5.167-0.133,7.6-0.199
			c8.867-0.101,17.733-0.184,26.6-0.25L83,176.8c0.233,0.233,0.333,0.7,0.3,1.4c0,0.366-0.033,0.883-0.1,1.55
			c0,0.733,0.083,1.767,0.25,3.1c-0.034,0.7,0.133,1.551,0.5,2.551c-0.867,0.133-2.017,0.183-3.45,0.149
			c-0.767,0-1.917-0.033-3.45-0.1l-12.15,0.1c-5.733-0.399-10.883-0.399-15.45,0c-0.333-0.033-0.633-0.133-0.9-0.3
			C48.517,185.184,48.517,185.134,48.55,185.1z"/>
		<path style="fill-rule:evenodd;clip-rule:evenodd;fill:#1D1D19;" d="M162.9,180.05c-0.334,0-0.567,0.184-0.7,0.55l-0.05,0.25
			l-0.051,1.801h-0.55l0.05-2.95h0.5v0.45c0.2-0.334,0.534-0.5,1-0.5c0.7,0,1.034,0.416,1,1.25l-0.05,1.8h-0.55l0.1-1.75
			C163.6,180.384,163.366,180.083,162.9,180.05z M59.8,178.4l1.9,3.449h0.05c-0.033-0.533-0.033-1.1,0-1.699l0.05-1.75h0.5
			l-0.15,4.149H61.6l-1.95-3.45l-0.1,3.5h-0.5l0.15-4.149L59.8,178.4z M50.95,179l-0.1,3.25l0.5,0.05
			c1.167-0.066,1.783-0.666,1.85-1.8c0-1.066-0.55-1.6-1.65-1.6L50.95,179z M53.2,179c0.367,0.3,0.55,0.783,0.55,1.45
			c0,0.666-0.217,1.217-0.65,1.649c-0.4,0.4-1.017,0.601-1.85,0.601c-0.467,0-0.783-0.017-0.95-0.05l0.1-4.051l1.15-0.1
			C52.317,178.5,52.867,178.667,53.2,179z M54.65,180.05c0.3-0.3,0.65-0.45,1.05-0.45c0.433-0.033,0.783,0.101,1.05,0.4
			c0.267,0.267,0.383,0.634,0.35,1.1c-0.033,0.5-0.2,0.9-0.5,1.2c-0.267,0.267-0.6,0.4-1,0.4s-0.733-0.134-1-0.4
			c-0.267-0.3-0.4-0.666-0.4-1.1C54.233,180.7,54.383,180.316,54.65,180.05z M55.6,182.3c0.633,0,0.95-0.399,0.95-1.2
			c0-0.733-0.283-1.1-0.85-1.1c-0.567,0-0.883,0.384-0.95,1.15C54.75,181.917,55.033,182.3,55.6,182.3z M75.7,179.65
			c0.267-0.167,0.6-0.25,1-0.25c0.733,0,1.1,0.399,1.1,1.199l-0.05,1.101l0.05,0.7l-0.5,0.05l-0.05-0.4
			c-0.167,0.3-0.467,0.45-0.9,0.45c-0.6,0-0.9-0.283-0.9-0.85c0.066-0.733,0.667-1.101,1.8-1.101l0.05-0.1
			c0-0.434-0.233-0.65-0.7-0.65c-0.333,0-0.583,0.066-0.75,0.2L75.7,179.65z M75,181.05h-2.05c-0.034,0.7,0.283,1.05,0.95,1.05
			c0.167,0,0.45-0.05,0.85-0.149l0.1,0.35c-0.267,0.134-0.6,0.2-1,0.2c-0.967,0.066-1.45-0.434-1.45-1.5
			c0.033-0.467,0.184-0.85,0.45-1.15c0.267-0.3,0.6-0.449,1-0.449c0.8,0,1.2,0.466,1.2,1.399L75,181.05z M73.8,179.8
			c-0.5,0-0.783,0.3-0.85,0.9l1.6-0.05C74.55,180.083,74.3,179.8,73.8,179.8z M72.1,182.45l-2.3,0.05l0.1-4.15h0.55l-0.1,3.7
			L72.1,182V182.45z M80,179.8c-0.367,0-0.617,0.184-0.75,0.55l-0.05,0.25l-0.05,1.801H78.6l0.1-2.95h0.45l0.05,0.5
			c0.2-0.4,0.533-0.601,1-0.601c0.7,0,1.033,0.434,1,1.301l-0.05,1.75H80.6l0.05-1.7C80.65,180.1,80.433,179.8,80,179.8z
			 M76.5,182.1c0.367,0,0.617-0.166,0.75-0.5V180.9c-0.833,0-1.25,0.233-1.25,0.699C76,181.934,76.167,182.1,76.5,182.1z
			 M67.2,178.8v0.7h0.75v0.45h-0.8l-0.05,1.6c0,0.367,0.133,0.55,0.4,0.55h0.35v0.4l-0.5,0.05c-0.267,0-0.45-0.066-0.55-0.2
			c-0.133-0.133-0.2-0.399-0.2-0.8l0.05-1.6H66.2v-0.4h0.45L66.7,179L67.2,178.8z M64.45,179.5c0.433,0,0.767,0.134,1,0.4
			c0.267,0.3,0.383,0.666,0.35,1.1c-0.033,0.5-0.2,0.9-0.5,1.2c-0.267,0.267-0.6,0.399-1,0.399c-0.4,0-0.733-0.133-1-0.399
			c-0.267-0.3-0.4-0.667-0.4-1.101c0.033-0.5,0.2-0.883,0.5-1.149C63.667,179.65,64.017,179.5,64.45,179.5z M64.3,182.2
			c0.267,0,0.5-0.117,0.7-0.351c0.167-0.199,0.25-0.466,0.25-0.8c0-0.767-0.283-1.149-0.85-1.149c-0.566,0-0.883,0.383-0.95,1.149
			C63.45,181.816,63.733,182.2,64.3,182.2z M133.85,178.7l-0.1,3.3h0.55c1.2,0,1.8-0.583,1.8-1.75c0.067-1.066-0.466-1.6-1.6-1.6
			L133.85,178.7z M136.15,178.75c0.366,0.366,0.55,0.866,0.55,1.5c-0.066,0.733-0.283,1.267-0.65,1.6
			c-0.399,0.4-1.017,0.601-1.85,0.601l-1-0.05l0.149-4.101c0.434-0.066,0.817-0.083,1.15-0.05
			C135.267,178.25,135.816,178.417,136.15,178.75z M140.05,180.95c-0.033,1.033-0.55,1.55-1.55,1.55c-0.4,0-0.733-0.134-1-0.4
			c-0.267-0.3-0.384-0.683-0.35-1.149c0-0.467,0.149-0.851,0.449-1.15c0.267-0.267,0.617-0.399,1.051-0.399
			c0.433,0,0.767,0.149,1,0.449C139.917,180.116,140.05,180.483,140.05,180.95z M137.7,180.95c-0.033,0.333,0.033,0.6,0.2,0.8
			c0.166,0.233,0.383,0.35,0.649,0.35c0.566,0,0.884-0.383,0.95-1.149c0-0.767-0.283-1.15-0.85-1.15
			C138.017,179.8,137.7,180.184,137.7,180.95z M153.4,178.4l-0.15,3.699l1.8,0.051L155,182.6l-2.3-0.05l0.149-4.149H153.4z
			 M155.9,180.8l1.55,0.05c0-0.6-0.233-0.899-0.7-0.899C156.25,179.95,155.967,180.233,155.9,180.8z M155.75,180
			c0.267-0.3,0.616-0.45,1.05-0.45s0.75,0.167,0.95,0.5c0.167,0.267,0.233,0.566,0.2,0.9v0.25h-2.101c0,0.7,0.334,1.05,1,1.05
			c0.334,0,0.601-0.05,0.801-0.15l0.1,0.4c-0.4,0.1-0.733,0.15-1,0.15c-0.434,0-0.783-0.134-1.05-0.4s-0.384-0.634-0.351-1.1
			C155.35,180.684,155.483,180.3,155.75,180z M160.2,181.65V181.1c-0.834,0-1.267,0.233-1.3,0.7c0,0.334,0.166,0.5,0.5,0.5
			c0.366,0,0.616-0.166,0.75-0.5L160.2,181.65z M160.2,180.7c0-0.467-0.217-0.7-0.65-0.7c-0.366,0-0.633,0.066-0.8,0.2l-0.1-0.351
			c0.267-0.166,0.6-0.25,1-0.25c0.733,0,1.1,0.4,1.1,1.2l-0.05,1.851h-0.45l-0.05-0.4c-0.233,0.3-0.55,0.45-0.95,0.45
			c-0.267,0-0.483-0.084-0.65-0.25c-0.166-0.167-0.233-0.367-0.199-0.601c0-0.8,0.6-1.166,1.8-1.1V180.7z M150.15,178.85l-0.051,0.7
			h0.801v0.4H150.1l-0.05,1.6c0,0.4,0.134,0.601,0.4,0.601l0.3-0.051v0.45l-0.45,0.05c-0.233,0-0.434-0.083-0.6-0.25
			c-0.134-0.133-0.184-0.383-0.15-0.75l0.05-1.649h-0.5l0.051-0.4h0.449V179L150.15,178.85z M142.7,178.3l1.25,2.15
			c0.333,0.5,0.566,0.95,0.7,1.35l0.05-0.05v-3.4h0.5l-0.101,4.15h-0.55l-1.95-3.55l-0.05,0.05l-0.05,3.45H142l0.1-4.15H142.7z
			 M146.3,179.9c0.3-0.301,0.65-0.45,1.05-0.45c0.434,0,0.767,0.149,1,0.45c0.267,0.267,0.4,0.633,0.4,1.1
			c-0.033,0.533-0.2,0.934-0.5,1.2s-0.65,0.383-1.05,0.35c-0.4,0-0.733-0.133-1-0.399c-0.267-0.301-0.384-0.667-0.351-1.101
			C145.85,180.583,146,180.2,146.3,179.9z M147.35,179.85c-0.633,0-0.949,0.384-0.949,1.15s0.283,1.15,0.85,1.15
			s0.884-0.384,0.95-1.15C148.2,180.267,147.917,179.884,147.35,179.85z"/>
		
			<linearGradient id="SVGID_10_" gradientUnits="userSpaceOnUse" x1="-62.7095" y1="-108.7632" x2="252.5655" y2="-108.7632" gradientTransform="matrix(3.171834e-006 1 -1 -0.0039 2.695149e-004 1.327409e-004)">
			<stop  offset="0" style="stop-color:#2B2A22"/>
			<stop  offset="1" style="stop-color:#171712"/>
		</linearGradient>
		<path style="fill-rule:evenodd;clip-rule:evenodd;fill:url(#SVGID_10_);" d="M106.55,0c1.934,20.967,3.434,48.4,4.5,82.3
			c0.967,29.8,1.217,48.25,0.75,55.35l-0.149,9c-0.034,12.733-0.65,31.716-1.851,56.949c-1.166,25.267-2.283,43.567-3.35,54.9h-0.95
			c1.233-12.167,2.5-34.05,3.8-65.65c1.2-29.699,1.7-48.1,1.5-55.2c0.467-7.1,0.217-25.55-0.75-55.35
			c-1.066-33.9-2.566-61.333-4.5-82.3H106.55z"/>
		
			<linearGradient id="SVGID_11_" gradientUnits="userSpaceOnUse" x1="-62.7134" y1="-109.7134" x2="252.5616" y2="-109.7134" gradientTransform="matrix(3.171834e-006 1 -1 -0.0039 2.695149e-004 1.327409e-004)">
			<stop  offset="0" style="stop-color:#0F0E0C"/>
			<stop  offset="1" style="stop-color:#171712"/>
		</linearGradient>
		<path style="fill-rule:evenodd;clip-rule:evenodd;fill:url(#SVGID_11_);" d="M107.4,258.5h-0.95
			c1.066-11.333,2.184-29.634,3.35-54.9c1.2-25.233,1.816-44.216,1.851-56.949l0.149-9c0.467-7.1,0.217-25.55-0.75-55.35
			c-1.066-33.9-2.566-61.333-4.5-82.3h0.95c1.934,20.967,3.434,48.4,4.5,82.3c0.967,29.8,1.217,48.25,0.75,55.35
			c0.167,7.3-0.35,25.7-1.55,55.2C109.934,224.55,108.667,246.434,107.4,258.5z"/>
		
			<linearGradient id="SVGID_12_" gradientUnits="userSpaceOnUse" x1="-257.6304" y1="112.6123" x2="-3.1804" y2="112.6123" gradientTransform="matrix(3.930045e-006 -1 1 -0.001 5.578519e-005 -2.660075e-004)">
			<stop  offset="0" style="stop-color:#1F1F18"/>
			<stop  offset="0.2039" style="stop-color:#35342B"/>
			<stop  offset="0.3922" style="stop-color:#424135"/>
			<stop  offset="0.8667" style="stop-color:#5E5E50"/>
			<stop  offset="1" style="stop-color:#262621"/>
		</linearGradient>
		<path style="fill-rule:evenodd;clip-rule:evenodd;fill:url(#SVGID_12_);" d="M112.1,0c2,21.067,3.567,48.5,4.7,82.3
			c1,29.967,1.267,48.417,0.8,55.35c0.134,7.466-0.433,25.867-1.699,55.2c-1.233,28.667-2.4,49.267-3.5,61.801
			c-0.134,1.366-0.267,2.649-0.4,3.85h-4.6c1.267-12.066,2.533-33.95,3.8-65.65c1.2-29.5,1.717-47.899,1.55-55.2
			c0.467-7.1,0.217-25.55-0.75-55.35c-1.066-33.9-2.566-61.333-4.5-82.3H112.1z"/>
		
			<linearGradient id="SVGID_13_" gradientUnits="userSpaceOnUse" x1="-62.7002" y1="-103.0981" x2="252.5998" y2="-103.0981" gradientTransform="matrix(3.171583e-006 1 -1 -0.0039 2.674805e-004 1.719401e-004)">
			<stop  offset="0" style="stop-color:#1A1914"/>
			<stop  offset="1" style="stop-color:#0F0F0C"/>
		</linearGradient>
		<path style="fill-rule:evenodd;clip-rule:evenodd;fill:url(#SVGID_13_);" d="M100.9,0c1.8,20.367,3.183,47.217,4.15,80.55
			c0.8,28.434,1.033,47.2,0.7,56.3l-0.05,0.8c0.3,6.9-0.101,25.284-1.2,55.15c-1.167,31.533-2.384,53.417-3.65,65.65l-0.5,0.05
			l1.65-24.55c2.066-24.667,3.083-60.05,3.05-106.15c-0.033-42.667-0.816-72.617-2.35-89.85l-0.15-3.3
			c-0.7-12.467-1.45-24.017-2.25-34.65H100.9z"/>
		
			<linearGradient id="SVGID_14_" gradientUnits="userSpaceOnUse" x1="-62.6787" y1="-97.5879" x2="252.6213" y2="-97.5879" gradientTransform="matrix(3.171583e-006 1 -1 -0.0039 2.674805e-004 1.719401e-004)">
			<stop  offset="0" style="stop-color:#4C4B3D"/>
			<stop  offset="1" style="stop-color:#171712"/>
		</linearGradient>
		<path style="fill-rule:evenodd;clip-rule:evenodd;fill:url(#SVGID_14_);" d="M95.45,0c0.7,8.9,1.35,18.6,1.95,29.1l0.3,5.55
			c2.3,41.4,3.267,79.317,2.9,113.75c-0.033,21.233-0.617,44.066-1.75,68.5c-0.8,17.233-1.617,31.1-2.45,41.6h-0.95
			c0.867-11.167,1.683-25.017,2.45-41.55c1.133-24.566,1.717-47.417,1.75-68.55c0.2-21.101-0.117-44.234-0.95-69.4
			c-0.567-16.233-1.233-31.017-2-44.35C96.1,22.817,95.367,11.267,94.5,0H95.45z"/>
		
			<linearGradient id="SVGID_15_" gradientUnits="userSpaceOnUse" x1="-62.6821" y1="-98.5469" x2="252.6179" y2="-98.5469" gradientTransform="matrix(3.171583e-006 1 -1 -0.0039 2.674805e-004 1.719401e-004)">
			<stop  offset="0" style="stop-color:#2B2A22"/>
			<stop  offset="1" style="stop-color:#171712"/>
		</linearGradient>
		<path style="fill-rule:evenodd;clip-rule:evenodd;fill:url(#SVGID_15_);" d="M97.4,258.5h-1c0.833-10.5,1.65-24.366,2.45-41.6
			c1.133-24.434,1.717-47.267,1.75-68.5c0.367-34.434-0.6-72.351-2.9-113.75l-0.3-5.55C96.8,18.6,96.15,8.9,95.45,0h1
			c0.867,11.267,1.6,22.817,2.2,34.65l1.05,20.3c1.8,24.7,2.35,61.167,1.65,109.399c-0.667,45.134-1.917,75.567-3.75,91.301
			L97.4,258.5z"/>
		
			<linearGradient id="SVGID_16_" gradientUnits="userSpaceOnUse" x1="-62.6909" y1="-100.75" x2="252.6091" y2="-100.75" gradientTransform="matrix(3.171583e-006 1 -1 -0.0039 2.674805e-004 1.719401e-004)">
			<stop  offset="0" style="stop-color:#2B2A22"/>
			<stop  offset="1" style="stop-color:#171712"/>
		</linearGradient>
		<path style="fill-rule:evenodd;clip-rule:evenodd;fill:url(#SVGID_16_);" d="M100.35,258.5H97.4l0.2-2.85
			c1.833-15.733,3.083-46.167,3.75-91.301c0.7-48.233,0.15-84.7-1.65-109.399l-1.05-20.3c-0.6-11.833-1.333-23.383-2.2-34.65h3.85
			c0.8,10.633,1.55,22.183,2.25,34.65l0.15,3.3c1.533,17.233,2.316,47.183,2.35,89.85c0.033,46.101-0.983,81.483-3.05,106.15
			L100.35,258.5z"/>
		
			<linearGradient id="SVGID_17_" gradientUnits="userSpaceOnUse" x1="-257.6367" y1="96.3003" x2="-3.1617" y2="96.3003" gradientTransform="matrix(3.929659e-006 -1 1 -0.001 6.922821e-005 2.171316e-004)">
			<stop  offset="0" style="stop-color:#1F1F18"/>
			<stop  offset="0.2039" style="stop-color:#2E2D25"/>
			<stop  offset="0.3922" style="stop-color:#333229"/>
			<stop  offset="0.8471" style="stop-color:#45453B"/>
			<stop  offset="1" style="stop-color:#0F0F0E"/>
		</linearGradient>
		<path style="fill-rule:evenodd;clip-rule:evenodd;fill:url(#SVGID_17_);" d="M100.85,258.45l1.45,0.05h-1.95L100.85,258.45z
			 M95.45,258.5H91.2c0.033-0.4,0.066-0.816,0.1-1.25c0.067-0.9,0.133-1.816,0.2-2.75c0.767-10.434,1.483-22.95,2.15-37.55
			c1.133-24.566,1.717-47.417,1.75-68.55c0.367-34.934-0.583-72.851-2.85-113.75C91.85,22.183,91.1,10.633,90.3,0h4.2
			c0.867,11.267,1.6,22.817,2.2,34.65c0.767,13.333,1.433,28.117,2,44.35c0.833,25.167,1.15,48.3,0.95,69.4
			c-0.033,21.133-0.617,43.983-1.75,68.55C97.133,233.483,96.317,247.333,95.45,258.5z"/>
		
			<linearGradient id="SVGID_18_" gradientUnits="userSpaceOnUse" x1="-62.7109" y1="-105.9385" x2="252.5891" y2="-105.9385" gradientTransform="matrix(3.171583e-006 1 -1 -0.0039 2.674805e-004 1.719401e-004)">
			<stop  offset="0" style="stop-color:#2B2A22"/>
			<stop  offset="1" style="stop-color:#171712"/>
		</linearGradient>
		<path style="fill-rule:evenodd;clip-rule:evenodd;fill:url(#SVGID_18_);" d="M102.3,258.5l-1.45-0.05
			c1.266-12.233,2.483-34.117,3.65-65.65c1.1-29.866,1.5-48.25,1.2-55.15l0.05-0.8c0.333-9.1,0.1-27.867-0.7-56.3
			C104.083,47.217,102.7,20.367,100.9,0h4.65c1.934,20.967,3.434,48.4,4.5,82.3c0.967,29.8,1.217,48.25,0.75,55.35
			c0.2,7.1-0.3,25.5-1.5,55.2c-1.3,31.601-2.566,53.483-3.8,65.65H102.3z"/>
		
			<linearGradient id="SVGID_19_" gradientUnits="userSpaceOnUse" x1="-253.0762" y1="65.3813" x2="-9.7762" y2="65.3813" gradientTransform="matrix(0.002 -1 1 0.002 -6.192364e-006 -4.304490e-004)">
			<stop  offset="0" style="stop-color:#1C1C16"/>
			<stop  offset="0.2039" style="stop-color:#36352C"/>
			<stop  offset="0.3922" style="stop-color:#292921"/>
			<stop  offset="1" style="stop-color:#4F4F44"/>
		</linearGradient>
		<path style="fill-rule:evenodd;clip-rule:evenodd;fill:url(#SVGID_19_);" d="M80.7,31.85c2.7,1.9,4.683,6.767,5.95,14.6
			c0.867,5.4,1.434,13.65,1.7,24.75c0.7,21.8,1,43.617,0.9,65.45c-0.033,6.133-2.15,11.383-6.35,15.75
			c-4.167,4.333-9.167,6.517-15,6.55L59.2,159c-5.833,0.066-10.767-2.05-14.8-6.35c-1.4-1.467-2.55-3.051-3.45-4.75
			c0.2,0.199,0.4,0.416,0.6,0.649c4.067,4.3,9,6.417,14.8,6.351l8.7-0.101c5.833-0.033,10.833-2.217,15-6.55
			c4.167-4.366,6.267-9.617,6.3-15.75c0.066-21.833-0.283-43.65-1.05-65.45c-0.333-11.2-0.933-19.45-1.8-24.75
			C82.8,37.867,81.867,34.383,80.7,31.85z"/>
		
			<linearGradient id="SVGID_20_" gradientUnits="userSpaceOnUse" x1="31.4531" y1="-60.3931" x2="153.9781" y2="-60.3931" gradientTransform="matrix(8.161600e-006 1 -1 -0.0039 -3.623367e-004 1.753096e-004)">
			<stop  offset="0" style="stop-color:#5D5B4A"/>
			<stop  offset="1" style="stop-color:#141410"/>
		</linearGradient>
		<path style="fill-rule:evenodd;clip-rule:evenodd;fill:url(#SVGID_20_);" d="M85.05,67.55c-0.333-11-0.917-19.066-1.75-24.2
			c-1.633-10.167-4.517-15.25-8.65-15.25c-5.267,0.033-9.917,0.717-13.95,2.05c-4.8,1.6-8.967,4.184-12.5,7.75
			c-4.034,4.067-7.167,8.533-9.4,13.4c-2.466,5.4-3.6,10.95-3.4,16.65c0.767,21.767,1.1,43.117,1,64.05c0,6,1.983,11.1,5.95,15.3
			s8.783,6.267,14.45,6.2l8.5-0.05c5.7-0.033,10.583-2.184,14.65-6.45c4.066-4.267,6.117-9.4,6.15-15.4
			C86.167,110.267,85.817,88.917,85.05,67.55z M40.95,147.9c-3.667-4.167-5.483-9.167-5.45-15c0.067-23.1-0.283-44.917-1.05-65.45
			c-0.2-5.833,0.966-11.517,3.5-17.05c2.267-4.967,5.466-9.533,9.6-13.7c3.633-3.633,7.9-6.25,12.8-7.85
			c4.133-1.367,8.9-2.067,14.3-2.1c2.434-0.033,4.45,1.667,6.05,5.1c1.167,2.533,2.1,6.017,2.8,10.45
			c0.867,5.3,1.467,13.55,1.8,24.75c0.767,21.8,1.117,43.617,1.05,65.45c-0.033,6.133-2.133,11.384-6.3,15.75
			c-4.167,4.333-9.167,6.517-15,6.55l-8.7,0.101c-5.8,0.066-10.733-2.051-14.8-6.351C41.35,148.316,41.15,148.1,40.95,147.9z"/>
		
			<linearGradient id="SVGID_21_" gradientUnits="userSpaceOnUse" x1="32.7217" y1="-60.7422" x2="152.5967" y2="-60.7422" gradientTransform="matrix(8.342024e-006 1 -1 -0.004 1.207289e-004 -3.345171e-005)">
			<stop  offset="0" style="stop-color:#323128"/>
			<stop  offset="1" style="stop-color:#21211A"/>
		</linearGradient>
		<path style="fill-rule:evenodd;clip-rule:evenodd;fill:url(#SVGID_21_);" d="M85.05,67.55c0.767,21.367,1.117,42.717,1.05,64.05
			c-0.033,6-2.083,11.133-6.15,15.4c-4.067,4.267-8.95,6.417-14.65,6.45l-8.5,0.05c-5.667,0.066-10.483-2-14.45-6.2
			S36.4,138,36.4,132c0.1-20.933-0.233-42.283-1-64.05c-0.2-5.7,0.934-11.25,3.4-16.65c2.233-4.867,5.367-9.333,9.4-13.4
			c3.533-3.566,7.7-6.15,12.5-7.75c4.033-1.333,8.683-2.017,13.95-2.05c4.133,0,7.017,5.083,8.65,15.25
			C84.133,48.483,84.717,56.55,85.05,67.55z M73.05,32.95c-4.466,0.033-8.4,0.667-11.8,1.9c-4.033,1.5-7.55,3.883-10.55,7.15
			c-3.4,3.8-6.034,7.933-7.9,12.4c-2.066,5.033-3,10.2-2.8,15.5c0.633,19.3,0.95,39.117,0.95,59.45c0,5.566,1.667,10.3,5,14.2
			c3.333,3.9,7.4,5.834,12.2,5.8l7.2-0.05c4.8-0.033,8.917-2.033,12.35-6c3.433-3.967,5.15-8.716,5.15-14.25
			c0.033-18.9-0.283-38.716-0.95-59.45c-0.267-10.133-0.767-17.633-1.5-22.5C79,37.667,76.55,32.95,73.05,32.95z"/>
		
			<radialGradient id="SVGID_22_" cx="61.9043" cy="29.0342" r="68.9625" gradientTransform="matrix(1 0.0019 0.0031 -1.6493 -0.1439 76.9194)" gradientUnits="userSpaceOnUse">
			<stop  offset="0" style="stop-color:#94958E"/>
			<stop  offset="0.3804" style="stop-color:#6B6B62"/>
			<stop  offset="1" style="stop-color:#77776C"/>
		</radialGradient>
		<path style="fill-rule:evenodd;clip-rule:evenodd;fill:url(#SVGID_22_);" d="M71.95,35.05c3.133,0.2,5.333,4.7,6.6,13.5
			c0.7,4.633,1.184,11.833,1.45,21.6c0.6,18.967,0.9,37.95,0.9,56.95c0.033,5.333-1.55,9.9-4.75,13.7
			c-3.2,3.767-7.033,5.667-11.5,5.7l-6.7,0.05c-4.434,0.066-8.217-1.767-11.35-5.5c-3.133-3.733-4.7-8.283-4.7-13.65
			c0-19.5-0.316-38.483-0.95-56.95c-0.167-5.1,0.716-10.05,2.65-14.85c0.7-1.767,1.517-3.467,2.45-5.1L50,44.85
			c0.3-0.4,0.617-0.783,0.95-1.15c2.767-3.167,6.033-5.45,9.8-6.85c1.2-0.434,2.467-0.783,3.8-1.05l7.15-0.75
			C71.767,35.05,71.85,35.05,71.95,35.05z M51.75,47.25c-2.8,3.3-4.967,6.95-6.5,10.95c-1.667,4.466-2.433,9.05-2.3,13.75
			c0.3,8.6,0.533,18.966,0.7,31.1c4.4-6.5,9.417-12.267,15.05-17.3c5.767-5.133,11.983-9.333,18.65-12.6L77.3,71.7
			c-0.233-8.967-0.65-15.617-1.25-19.95C74.883,43.383,72.867,39.2,70,39.2C62.267,39.267,56.183,41.95,51.75,47.25z"/>
		
			<linearGradient id="SVGID_23_" gradientUnits="userSpaceOnUse" x1="37.2402" y1="-61.4121" x2="148.4902" y2="-61.4121" gradientTransform="matrix(8.988764e-006 1 -1 -0.0038 4.700492e-004 -1.146968e-004)">
			<stop  offset="0" style="stop-color:#1C1B16"/>
			<stop  offset="1" style="stop-color:#171712"/>
		</linearGradient>
		<path style="fill-rule:evenodd;clip-rule:evenodd;fill:url(#SVGID_23_);" d="M46.05,50.5c-1.066,1.767-1.983,3.6-2.75,5.5
			c-1.966,4.9-2.867,9.933-2.7,15.1c0.633,18.867,0.95,38.217,0.95,58.05c0,5.434,1.583,10.05,4.75,13.85
			c3.2,3.8,7.067,5.684,11.6,5.65l6.8-0.051c4.566-0.033,8.466-1.966,11.7-5.8c3.267-3.867,4.9-8.517,4.9-13.95
			c0-19.833-0.316-39.184-0.95-58.05c-0.267-10-0.733-17.316-1.4-21.95c-1.367-9.233-3.7-13.833-7-13.8c-0.1,0-0.184,0-0.25,0
			l-7.15,0.75c-1.333,0.267-2.6,0.617-3.8,1.05c-3.767,1.4-7.033,3.683-9.8,6.85c-0.333,0.367-0.65,0.75-0.95,1.15L46.05,50.5z
			 M73.05,32.95c3.5,0,5.95,4.716,7.35,14.15c0.733,4.867,1.233,12.367,1.5,22.5c0.667,20.733,0.983,40.55,0.95,59.45
			c0,5.534-1.717,10.283-5.15,14.25c-3.434,3.967-7.55,5.967-12.35,6l-7.2,0.05c-4.8,0.034-8.867-1.899-12.2-5.8
			c-3.333-3.899-5-8.633-5-14.2c0-20.333-0.317-40.15-0.95-59.45c-0.2-5.3,0.733-10.467,2.8-15.5c1.867-4.467,4.5-8.6,7.9-12.4
			c3-3.267,6.517-5.65,10.55-7.15C64.65,33.617,68.583,32.983,73.05,32.95z"/>
		
			<radialGradient id="SVGID_24_" cx="60.9116" cy="33.6382" r="60.8375" gradientTransform="matrix(1 0.0018 0.0032 -1.7325 -0.1691 91.9159)" gradientUnits="userSpaceOnUse">
			<stop  offset="0" style="stop-color:#94958E"/>
			<stop  offset="0.3804" style="stop-color:#808075"/>
			<stop  offset="1" style="stop-color:#919183"/>
		</radialGradient>
		<path style="fill-rule:evenodd;clip-rule:evenodd;fill:url(#SVGID_24_);" d="M51.75,47.25c4.433-5.3,10.517-7.983,18.25-8.05
			c2.867,0,4.883,4.183,6.05,12.55c0.6,4.333,1.017,10.983,1.25,19.95l0.05,1.45c-6.667,3.267-12.883,7.467-18.65,12.6
			c-5.633,5.033-10.65,10.8-15.05,17.3c-0.167-12.133-0.4-22.5-0.7-31.1c-0.133-4.7,0.633-9.284,2.3-13.75
			C46.783,54.2,48.95,50.55,51.75,47.25z"/>
		<path style="fill-rule:evenodd;clip-rule:evenodd;fill:#23201C;" d="M127.425,258.725c-1.825-0.058-3.649-0.1-5.475-0.125
			l-2.601,0.051h-36.3H82.2c-0.6,0-1.2,0.017-1.8,0.05l-54.55,0.85c-0.467,0.033-0.917,0.05-1.35,0.05c0-1.633,0.5-2.566,1.5-2.8
			c0-1,0.15-1.733,0.45-2.2c0.5-0.466,0.9-0.916,1.2-1.35c0.867-0.934,1.45-1.583,1.75-1.95c0.434-0.566,0.833-1.467,1.2-2.7
			c0.167-0.6,0.433-3.366,0.8-8.3c0.3-3.833,0.95-5.95,1.95-6.35c0.033,0.7-0.017,1.767-0.15,3.2
			c-0.133,1.433-0.184,2.483-0.15,3.149c0.034,0.967,0.15,1.9,0.35,2.8c0.1,0.567,0.3,1.483,0.6,2.75c0.233,1,0.267,2.917,0.1,5.75
			c0.1,2.233,0.9,3.101,2.4,2.601c-0.233,2.133,1.05,3.083,3.85,2.85c3.233-0.7,5.167-1.05,5.8-1.05c1.167,0,2.017,0,2.55,0
			c0.833-0.033,1.716-0.15,2.65-0.35c0.2-0.034,0.45,0.133,0.75,0.5c0.267,0.366,0.566,0.5,0.9,0.399
			c0.467-0.166,1.25-1.233,2.35-3.2c1.133-2.166,1.833-3.5,2.1-4c0.267,0.834,0.417,1.834,0.45,3c0,0.167-0.017,1.217-0.05,3.15
			c0.9,0.066,2.316,0.467,4.25,1.2c1.633,0.633,3.15,0.866,4.55,0.7c1.967-0.067,3.533-0.2,4.7-0.4
			c2.167-0.366,3.517-1.134,4.05-2.3c1.4,0.6,2.55,1.149,3.45,1.649c0.8-2.866,1.5-5.116,2.1-6.75c1.133-3.033,2.35-4.133,3.65-3.3
			c0.333,0.233,0.6,0.95,0.8,2.15c0.2,1.399,0.35,2.217,0.45,2.45c0.333,0.666,0.583,1.05,0.75,1.149
			c0.3,0.134,0.65,0.334,1.05,0.601c0.067,0.066,1.033,0.5,2.9,1.3c0.333,0.133,0.65,0.316,0.95,0.55
			c-0.067,0.934-0.133,1.85-0.2,2.75c-0.033,0.434-0.066,0.85-0.1,1.25h4.25h0.95h1h2.95h1.95h3.2h0.95h0.95h4.6
			c0.134-1.2,0.267-2.483,0.4-3.85c0.1-0.034,0.216-0.051,0.35-0.051c0.467-0.533,0.884-0.899,1.25-1.1
			c0.533-0.267,1.366-0.316,2.5-0.15c1.267,0.233,2.1,0.384,2.5,0.45c2.934,0.467,4.917,0.717,5.95,0.75
			c1.666,0.033,3.1-0.6,4.3-1.899c1.366-1.834,2.5-3.317,3.4-4.45c1.533-1.867,2.566-3.467,3.1-4.8c0.9-2.134,0.934-4.117,0.1-5.95
			c0.101,0.1,0.684,1.05,1.75,2.85c0.601,0.967,1.284,1.167,2.051,0.601c0.267-0.2,0.85-1.317,1.75-3.351
			c0.6-1.399,1.517-1.783,2.75-1.149c0.3,1.399-0.367,3.25-2,5.55c-2,2.866-3.117,4.649-3.351,5.35c-0.533,1.7-0.783,3.167-0.75,4.4
			c0.033,1.3,0.4,2.5,1.101,3.6c1.033,1.767,2.649,2.2,4.85,1.3c2.267-0.966,3.35-2.8,3.25-5.5c0.4,0,0.75,0.167,1.05,0.5
			c0.066-0.866,0.283-1.716,0.65-2.55c0.434-1.033,0.934-1.583,1.5-1.649c0.833-0.101,1.333,0.25,1.5,1.05
			c0.1,0.467,0.233,1.283,0.399,2.45c0.134,0.333,0.217,0.866,0.25,1.6c0,0.267,0.317,0.717,0.95,1.35
			c1,1.034,2.184,1.301,3.55,0.801c0.067-1.301,0.417-2.733,1.051-4.301c0.733-1.699,1.25-2.966,1.55-3.8
			c0.467-1.767,0.866-3.05,1.2-3.85c0.6-1.4,1.366-1.917,2.3-1.55c0.033,0.699-0.101,2.267-0.4,4.699
			c-0.3,2.134-0.35,3.617-0.149,4.45c0.3,1.3,1.017,2.033,2.149,2.2c1.566,0.267,2.517,0.517,2.851,0.75c0.5,0.4,1.199,1.3,2.1,2.7
			c0.667,1,1.566,1.616,2.7,1.85c0.6,0.101,1.45,0.134,2.55,0.101c1.267-0.067,2.134-0.084,2.6-0.051
			c2.467,0.233,4.551,0.801,6.25,1.7h0.051v0.101l-2.15-0.051c-0.3,0-0.6,0-0.9,0l-51.6-0.85
			C128.642,258.738,128.033,258.73,127.425,258.725z"/>
		<path style="fill-rule:evenodd;clip-rule:evenodd;fill:#635C38;" d="M121.75,264.3h8.1L112,271.85h-6.9l-1.149-0.05L121.75,264.3z
			 M104,264.3h8.1l-17.8,7.5h-7.95L104,264.3z M86.25,264.3h8.1l-17.7,7.45H68.6L86.25,264.3z M33.8,271.7l17.45-7.4h8.1l-17.55,7.4
			H33.8z M41.6,264.3l-17.45,7.4H17.3l-1.25-0.05L33.5,264.3H41.6z M77.1,264.3l-17.6,7.45h-8L69,264.3H77.1z M23.85,264.3
			l-17.4,7.351h-3.6H0l0.8-1.051h0.1l14.85-6.3H23.85z M165.1,271.95h-6.949L157,271.9l18-7.601h5.85h2.25L165.1,271.95z M194.6,271
			l-0.6,1l-1.65-0.05L194.6,271z M165.35,264.3l-18,7.601h-8.05l17.95-7.601H165.35z M198.85,264.6l-0.25,0.4l-0.25,0.3
			L198.85,264.6z M199,264.3l-0.75,1.101l-15.55,6.55h-8.05l18.1-7.65H199z M139.5,264.3h8.1l-17.899,7.55h-8.05L139.5,264.3z"/>
		<path style="fill-rule:evenodd;clip-rule:evenodd;fill:#26251F;" d="M112.1,264.3h9.65l-17.8,7.5l1.149,0.05l-10.8-0.05
			L112.1,264.3z M104,264.3l-17.65,7.5l-9.7-0.05l17.7-7.45H104z M157.25,264.3L139.3,271.9L112,271.85l17.85-7.55h9.65l-17.85,7.55
			h8.05l17.899-7.55H157.25z M23.85,264.3h9.65l-17.45,7.351l1.25,0.05l-10.85-0.05L23.85,264.3z M15.75,264.3L0.9,270.6l5.1-6.3
			H15.75z M41.8,271.7l17.55-7.4H69l-17.5,7.45L41.8,271.7z M59.5,271.75l17.6-7.45h9.15l-17.65,7.45H59.5z M24.15,271.7l17.45-7.4
			h9.65l-17.45,7.4H24.15z M194.6,271l-2.25,0.95L194,272L194.6,271z M165.1,271.95l18-7.65h9.65l-18.1,7.65h8.05l15.55-6.55
			L199,264.3l-0.15,0.3l-0.5,0.7v0.05l-4.25,6.5L194,272L165.1,271.95z M147.35,271.9l18-7.601H175l-18,7.601l1.15,0.05
			L147.35,271.9z"/>
		<polygon style="fill-rule:evenodd;clip-rule:evenodd;fill:#4B452A;" points="94.3,271.8 105.1,271.85 112,271.85 139.3,271.9 
			147.35,271.9 158.15,271.95 165.1,271.95 194,272 194.1,271.85 194.05,273.45 194.4,273.5 0.9,272.65 0,272.65 0.15,271.75 
			2.85,271.65 6.45,271.65 17.3,271.7 24.15,271.7 33.8,271.7 41.8,271.7 51.5,271.75 59.5,271.75 68.6,271.75 76.65,271.75 
			86.35,271.8 		"/>
		<path style="fill-rule:evenodd;clip-rule:evenodd;fill:#1C1B17;" d="M194.4,273.5l4.75-7.75L198.6,265l0.25-0.4l0.15-0.3h-6.25
			h-9.65h-2.25c1.7-0.166,3.617-0.366,5.75-0.6c5.634-0.634,9.584-1.033,11.851-1.2c1.267-0.1,2.116-0.1,2.55,0
			c0.8,0.233,1.134,0.616,1,1.15c-0.1,0.333-0.434,0.683-1,1.05c-0.566,0.6-0.65,1.184-0.25,1.75c0.366,0.3,0.65,0.533,0.85,0.7
			c0.367,0.267,0.483,0.533,0.351,0.8c-0.101,0.2-0.4,0.383-0.9,0.55c-0.566,0.2-0.883,0.316-0.95,0.35
			c-0.233,0.134-0.399,0.367-0.5,0.7c-0.033,0.167-0.116,0.434-0.25,0.8c-0.233,0.5-0.699,1.217-1.399,2.15
			c-0.233,0.267-0.483,0.45-0.75,0.55c-0.167,0.033-0.5,0.066-1,0.101c-0.033,0.1-0.101,0.35-0.2,0.75
			c-0.066,0.366-0.15,0.616-0.25,0.75c-0.2,0.233-0.583,0.366-1.15,0.399c-0.3,0-0.733-0.017-1.3-0.05
			c-1.533,0-3.383-0.05-5.55-0.15c-1.233-0.066-3.083-0.183-5.55-0.35c-0.601-0.033-1.584-0.033-2.95,0
			c-1.267,0.066-2.25,0.066-2.95,0c-2.2-0.2-4.883-0.3-8.05-0.3c-1.767,0.033-4.45,0.066-8.05,0.1h-16.65
			c-1.633,0-4.149-0.033-7.55-0.1c-2.967,0.066-5.45,0.416-7.45,1.05c-1.267,0.333-2.017,0.4-2.25,0.2
			c-0.133-0.066-0.217-0.2-0.25-0.4c0-0.2-0.033-0.333-0.1-0.399c-0.2-0.233-1.033-0.467-2.5-0.7c-0.733-0.101-2.283-0.15-4.65-0.15
			c-2.467,0-6.184-0.05-11.149-0.149c-3.101,0-5.15-0.051-6.15-0.15l-0.05,0.1l-0.15,0.051c-0.133,0.066-0.433,0.1-0.9,0.1
			c-0.267-0.033-0.6-0.066-1-0.1h-11c-4.4,0-10.983-0.051-19.75-0.15c-1.933,0-4.833,0-8.7,0c-3.333,0.033-6.217,0.184-8.65,0.45
			c-0.4,0.033-1.2,0.033-2.4,0c-1.033-0.033-1.85,0.017-2.45,0.149c-0.534,0.101-1.217,0.15-2.05,0.15
			c-1.033,0-1.717,0.017-2.05,0.05c-1.333,0.167-2.45,0.101-3.35-0.2l-1.7-0.5c-0.333-0.066-1.566-0.1-3.7-0.1H9.85
			c-0.567,0-1.467,0.017-2.7,0.05c-1.066,0-1.967-0.066-2.7-0.2c-0.3-0.033-1.067-0.149-2.3-0.35c-0.533-0.1-0.95-0.217-1.25-0.35
			L194.4,273.5z"/>
		<polygon style="fill-rule:evenodd;clip-rule:evenodd;fill:#393420;" points="194.1,271.85 198.35,265.35 198.35,265.3 198.6,265 
			199.15,265.75 194.4,273.5 194.05,273.45 		"/>
	</g>
</g>
</svg>
