<?xml version="1.0" encoding="iso-8859-1"?>
<!-- Generator: Adobe Illustrator 16.0.0, SVG Export Plug-In . SVG Version: 6.00 Build 0)  -->
<!DOCTYPE svg PUBLIC "-//W3C//DTD SVG 1.1//EN" "http://www.w3.org/Graphics/SVG/1.1/DTD/svg11.dtd">
<svg version="1.1" id="FlashAICB" xmlns="http://www.w3.org/2000/svg" xmlns:xlink="http://www.w3.org/1999/xlink" x="0px" y="0px"
	 width="131.9px" height="148.55px" viewBox="0 0 131.9 148.55" style="enable-background:new 0 0 131.9 148.55;"
	 xml:space="preserve">
<g>
	<g>
		<path style="fill-rule:evenodd;clip-rule:evenodd;fill:#5E6156;" d="M131.35,120.35l-0.05-0.5l-33.2-0.199L96.35,98.05l0.601-0.5
			L73.9,71.15c-5.5-6.6-11.05-13.233-16.65-19.9c-18.2-21.567-31-36.367-38.4-44.4h8.95l78.4,85.25
			c-0.367-0.433-0.733-0.866-1.101-1.3l26.801,29.05L131.35,120.35z M18.55,7.65l-0.7-0.8h0.05L18.55,7.65z"/>
		<path style="fill-rule:evenodd;clip-rule:evenodd;fill:#66695C;" d="M62.35,76.5l0.6-0.5l-4.15-5
			c-4.267-6.1-13.65-17.783-28.15-35.05L3.75,4.6L0,0.05V0h11.95l5.35,6.2l0.55,0.65l0.7,0.8L81,79.75
			c0.325,0.35,0.642,0.7,0.95,1.05c-2.667-3.219-5.35-6.435-8.05-9.65l23.05,26.4l-0.601,0.5V97.9L65.4,98.3l-2.25,0.75l-1-1.45
			L62.35,76.5z"/>
		<polygon style="fill-rule:evenodd;clip-rule:evenodd;fill:#141713;" points="96.35,98.05 98.1,119.65 131.3,119.85 131.35,120.35 
			131.55,148.3 116.8,148 0,148.55 0,50.65 23.2,50.65 23,75.7 61.4,75.6 62.4,75.6 62.35,76.5 62.15,97.6 63.15,99.05 65.4,98.3 
			96.35,97.9 96.3,98.1 		"/>
		<path style="fill-rule:evenodd;clip-rule:evenodd;fill:#909383;" d="M105.1,90.8c0.367,0.434,0.733,0.867,1.101,1.3L27.8,6.85
			c3.8,3.1,22.184,22.867,55.15,59.3c6.733,7.4,13.35,14.784,19.85,22.15L105.1,90.8z M23.2,50.65H0V17.1L23.2,50.65z M17.9,6.85
			L17.3,6.2L11.95,0c1.1,0.8,3.4,3.083,6.9,6.85c7.4,8.033,20.2,22.833,38.4,44.4c5.6,6.667,11.15,13.3,16.65,19.9
			c2.7,3.215,5.383,6.431,8.05,9.65c-0.309-0.35-0.625-0.7-0.95-1.05L18.55,7.65L17.9,6.85z M58.8,71c1.733,2.467,2.6,4,2.6,4.6
			L3.75,4.6l26.9,31.35C45.15,53.217,54.533,64.9,58.8,71z"/>
		<path style="fill-rule:evenodd;clip-rule:evenodd;fill:#717568;" d="M0,17.1V0.05L3.75,4.6l57.65,71c0-0.6-0.867-2.133-2.6-4.6
			l4.15,5l-0.6,0.5l0.05-0.9h-1L23,75.7l0.2-25.05L0,17.1z"/>
	</g>
</g>
</svg>
