<?xml version="1.0" encoding="iso-8859-1"?>
<!-- Generator: Adobe Illustrator 16.0.0, SVG Export Plug-In . SVG Version: 6.00 Build 0)  -->
<!DOCTYPE svg PUBLIC "-//W3C//DTD SVG 1.1//EN" "http://www.w3.org/Graphics/SVG/1.1/DTD/svg11.dtd">
<svg version="1.1" id="FlashAICB" xmlns="http://www.w3.org/2000/svg" xmlns:xlink="http://www.w3.org/1999/xlink" x="0px" y="0px"
	 width="172.5px" height="43.95px" viewBox="0 0 172.5 43.95" style="enable-background:new 0 0 172.5 43.95;" xml:space="preserve"
	>
<g>
	<g>
		<path style="fill-rule:evenodd;clip-rule:evenodd;fill:#63625E;" d="M127.4,36.45l0.15-0.351c0.1,0,0.2,0,0.3,0
			c0.434,0,1.116,0.084,2.05,0.25c3.566,0.4,5.884,0.617,6.95,0.65c1,0.066,1.816,0,2.45-0.2c0.333-0.066,0.899-0.233,1.7-0.5
			c0.699-0.267,1.25-0.434,1.649-0.5c0.2-0.033,1.184-0.05,2.95-0.05c2.934,0,6.833,0.25,11.7,0.75c2.033,0.2,4.883,0.434,8.55,0.7
			c2.667,0.267,4.884,0.416,6.65,0.45c-3.267,0-5.801,0-7.601,0c-3.566,0-6.616-0.084-9.149-0.25l-5.45-0.351
			c-2.467-0.366-4.316-0.55-5.55-0.55c-0.5-0.033-1.184-0.017-2.051,0.05c-1,0.066-1.683,0.101-2.05,0.101
			c-0.6,0.033-1.366,0.166-2.3,0.399c-1.033,0.3-1.767,0.483-2.2,0.55c-0.866,0.101-1.783,0.084-2.75-0.05
			c-1.1-0.2-1.967-0.366-2.6-0.5c-0.767-0.033-1.4-0.066-1.9-0.1c-0.967-0.033-1.483-0.184-1.55-0.45L127.4,36.45z M36.95,25.2
			c0.066,0.399,0.117,0.75,0.15,1.05c0.167,1.2,0.033,2.134-0.4,2.8c-0.167,0-0.317,0.017-0.45,0.05H36
			c-0.267,0.2-0.483,0.334-0.65,0.4c-0.1,0.066-0.717,0.25-1.85,0.55c-0.9,0.267-1.933,0.4-3.1,0.4c-2,0-4.517,0.133-7.55,0.399
			c-0.167,0.367-0.383,0.884-0.65,1.551c-0.467,1.1-1.05,1.533-1.75,1.3c0.367-0.467,0.65-0.983,0.85-1.55
			c0.167-0.5,0.183-0.884,0.05-1.15c-0.1,0-0.2,0-0.3,0c-2.034,0.1-3.55,0.217-4.55,0.35c-0.433,0.034-0.917,0.184-1.45,0.45
			c-0.8,0.334-1.3,0.533-1.5,0.601c-0.934,0.199-1.633,0.383-2.1,0.55c-0.333,0.133-0.667,0.217-1,0.25
			c-1.4,0.1-2.184,0.166-2.35,0.2C7.067,33.767,6.35,34,5.95,34.1c-0.833,0.2-1.583,0.25-2.25,0.15c2.033-0.533,5.083-1.4,9.15-2.6
			c3.533-0.934,6.65-1.4,9.35-1.4c0.066,0,0.15,0,0.25,0l0.75-0.2l-0.1,0.2c0.667,0.033,1.5,0.066,2.5,0.1
			c1.4,0.067,2.517,0.034,3.35-0.1c1.267-0.2,2.816-0.634,4.65-1.3c0.233-0.066,0.583-0.184,1.05-0.351
			c0.3-0.1,0.567-0.149,0.8-0.149c0.833-0.634,1.267-1.467,1.3-2.5c0.033-0.867-0.183-2.3-0.65-4.3l-0.1-0.6l0.05,0.05
			c0.167,0.467,0.316,1.15,0.45,2.05C36.667,23.95,36.817,24.634,36.95,25.2z M39.55,22.25c-0.867,0-1.383-0.033-1.55-0.1
			c-0.433-0.167-0.6-0.6-0.5-1.3c0.033-0.133,0.083-0.267,0.15-0.4c0.1,0.1,0.217,0.183,0.35,0.25c0.167,0.066,0.7,0.1,1.6,0.1
			c0.733,0,1.917,0.3,3.55,0.9c1.5,0.533,2.667,0.716,3.5,0.55c0.367-0.033,0.784-0.15,1.25-0.35c0.4-0.1,0.867-0.283,1.4-0.55
			c0.4-0.233,0.966-0.567,1.7-1c0.567-0.3,1.533-0.717,2.9-1.25v0.6v0.65h-0.05c0.033,0.033,0.083,0.083,0.15,0.15
			c-0.033,0-0.05,0.017-0.05,0.05c-1.367,0.467-2.6,0.967-3.7,1.5c-0.733,0.434-1.3,0.767-1.7,1c-0.733,0.367-1.367,0.601-1.9,0.7
			c-0.1,0-0.183,0.017-0.25,0.05c-0.367,0-0.783-0.033-1.25-0.1c-0.6-0.101-1.267-0.283-2-0.55c-1.633-0.601-2.816-0.9-3.55-0.9
			H39.55z M35.9,13.85c-0.733,0.433-1.566,0.8-2.5,1.1c-1.367,0.367-2.417,0.65-3.15,0.85c-0.7,0.2-1.917,0.633-3.65,1.3
			c-1.567,0.6-2.8,1-3.7,1.2H9c2.434-0.133,4.617-0.367,6.55-0.7c0.7-0.1,1.75-0.2,3.15-0.3c1.4-0.066,2.433-0.167,3.1-0.3
			c1-0.2,2.35-0.617,4.05-1.25c1.967-0.733,3.3-1.2,4-1.4c0.733-0.2,1.783-0.483,3.15-0.85c0.333-0.1,0.667-0.217,1-0.35
			c0.2-0.1,0.417-0.2,0.65-0.3c0.5-0.233,0.95-0.5,1.35-0.8c0.533-0.4,1.717-1.667,3.55-3.8c0.767-0.867,1.533-1.55,2.3-2.05H41.8
			c0.033-0.067,0.017-0.217-0.05-0.45c-0.267-0.1-0.717-0.067-1.35,0.1c-0.667,0.233-1.117,0.367-1.35,0.4
			c-0.367,0.1-0.833,0.333-1.4,0.7c-0.566,0.4-1.033,0.65-1.4,0.75c-0.8,0.267-1.85,0.417-3.15,0.45
			c-1.5-0.033-2.583-0.05-3.25-0.05c-2.5,0-4.933-0.267-7.3-0.8c-0.5-0.1-0.983-0.183-1.45-0.25c-1.533-0.167-2.717-0.25-3.55-0.25
			c-0.7,0.067-1.284,0.1-1.75,0.1c-0.833,0.033-1.367-0.05-1.6-0.25c0.5-0.066,1.167-0.066,2,0c1.1,0.1,1.783,0.15,2.05,0.15
			c0.867,0,1.817,0.083,2.85,0.25c0.2,0,0.417,0.017,0.65,0.05c2.567,0.167,4.817,0.25,6.75,0.25c0.467,0,1.217,0.017,2.25,0.05
			c0.9,0.033,1.633,0.017,2.2-0.05c0.433-0.033,0.867-0.1,1.3-0.2c-0.3-0.133-0.65-0.383-1.05-0.75l-1.6-1.65
			c-1.467-1-3.267-1.533-5.4-1.6c1.433,0,2.267,0.017,2.5,0.05c1.033,0.1,1.95,0.4,2.75,0.9c2.3,1.467,4.05,2.2,5.25,2.2
			c0.1-0.066,0.2-0.133,0.3-0.2c3.2-1.633,6.05-2.017,8.55-1.15H45.5l0.1,0.15c1.433-0.167,3.25-0.267,5.45-0.3h0.05
			c0.167-0.033,0.317-0.066,0.45-0.1c0.033,0,0.083,0,0.15,0c1.667-0.467,2.733-1.5,3.2-3.1c0.133-0.467,0.217-1,0.25-1.6l1.55,1.35
			c1.2,0,2.783-0.033,4.75-0.1c1.833-0.067,4.017-0.167,6.55-0.3h0.55C68.717,0.917,68.9,0.9,69.1,0.9c0.033,0,0.067,0,0.1,0h2.5
			c3.9,0.067,7.017,0.5,9.35,1.3c2.5,0.867,4.5,1.483,6,1.85c2.133,0.5,4.184,0.733,6.149,0.7h1.351c2.166,0,3.75,0.05,4.75,0.15
			c0.066-0.033,0.116-0.033,0.149,0c0.334,0,0.584,0.017,0.75,0.05c0.733,0.133,1.384,0.316,1.95,0.55
			c0.267,0.1,0.517,0.217,0.75,0.35c0.066,0.033,0.134,0.066,0.2,0.1c-0.033-0.067-0.05-0.15-0.05-0.25c-0.066,0-0.134,0-0.2,0
			l0.2-0.2c0,0.067,0,0.133,0,0.2c0.533,0,1.25,0.066,2.149,0.2c0.934,0.033,1.7-0.1,2.301-0.4c0.267-0.133,0.649-0.4,1.149-0.8
			c0.467-0.4,0.834-0.667,1.101-0.8l-0.45-0.05c0.533-0.4,1.283-1.1,2.25-2.1c0.934-0.733,1.899-1.05,2.899-0.95
			c-0.133,0.267-0.566,0.6-1.3,1c-0.866,0.434-1.399,0.75-1.6,0.95c-0.467,0.433-0.65,0.783-0.55,1.05
			c0.899-0.1,2.133-0.117,3.699-0.05l3.051-0.25c0.633-0.033,1.233-0.167,1.8-0.4c1.434-0.567,2.467-1.067,3.1-1.5
			c0.601-0.434,1-0.684,1.2-0.75c0.333-0.167,0.8-0.267,1.4-0.3h3c-0.601,0.2-1.034,0.333-1.301,0.4l-1.899,0.2
			c-0.5,0.067-1.283,0.55-2.351,1.45c-0.767,0.566-1.767,0.917-3,1.05c-1.466,0.067-2.566,0.133-3.3,0.2l-3.6,0.4
			c-0.7,0.067-1.667,0.433-2.9,1.1c-0.399,0.2-0.95,0.383-1.649,0.55c-0.967,0.233-1.534,0.367-1.7,0.4
			c-0.7,0.167-1.25,0.317-1.65,0.45c-0.267,0.067-0.483,0.167-0.649,0.3H104.2c0.334,0.467,0.534,1.017,0.601,1.65
			c1.366,0.167,2.967,0.216,4.8,0.15c0.333,0,0.684-0.017,1.05-0.05h0.05c0.167-0.033,0.351-0.05,0.551-0.05
			c0.399-0.033,0.833-0.067,1.3-0.1L114.2,8.5c1-0.1,2.15-0.217,3.45-0.35c5.834-0.367,13.167-0.117,22,0.75
			c0,0.033,0.033,0.25,0.101,0.65l0.05,0.8c-8.5-0.833-15.767-1.083-21.8-0.75c-2.801,0.267-4.917,0.467-6.351,0.6
			c-1.133,0.1-2.2,0.15-3.2,0.15c-0.199,0-0.383,0-0.55,0c-1-0.033-1.899-0.1-2.7-0.2c-0.1-1.133-0.633-2.017-1.6-2.65
			c-0.033,0.033-0.066,0.083-0.1,0.15c-0.034-0.1-0.067-0.183-0.101-0.25c-0.733-0.433-1.666-0.75-2.8-0.95
			c-0.934-0.167-3.267-0.25-7-0.25c-1.967,0.033-4.017-0.2-6.15-0.7c-1.566-0.367-3.566-0.967-6-1.8c-2.833-1-6.817-1.434-11.95-1.3
			c-3.667,0.2-6.667,0.333-9,0.4c-1.367,0.034-2.5,0.05-3.4,0.05L55.55,1.5c0,0.133,0,0.25,0,0.35c-0.233,2.4-1.483,3.867-3.75,4.4
			c-0.6,0-1.1-0.033-1.5-0.1c-1.567-0.233-2.867-0.316-3.9-0.25c-0.5,0-1.316,0.133-2.45,0.4c-0.267,0.067-0.483,0.15-0.65,0.25
			c-0.034,0-0.067,0-0.1,0s-0.05,0.017-0.05,0.05c-0.533,0.1-0.85,0.217-0.95,0.35c-0.067,0.1-0.133,0.4-0.2,0.9
			c-0.7,0.467-1.383,1.083-2.05,1.85c-1.6,1.867-2.684,3.066-3.25,3.6c-0.133,0.067-0.233,0.133-0.3,0.2
			C36.233,13.6,36.067,13.717,35.9,13.85z M77.3,35.3c-0.1,0.834-0.4,1.45-0.9,1.851c-0.4,0.333-0.816,0.633-1.25,0.899
			c-0.8,0.467-1.633,0.834-2.5,1.101c-1.566,0.466-2.983,0.517-4.25,0.149c-1.8-0.566-3.466-1.233-5-2
			c-2.066-1.033-3.667-1.767-4.8-2.2c-0.833-0.333-1.35-0.616-1.55-0.85c0.633-0.066,1.483-0.134,2.55-0.2
			c1.233,0.5,2.5,1.101,3.8,1.8c1.534,0.767,3.2,1.434,5,2c1.267,0.367,2.684,0.317,4.25-0.149c0.2-0.066,0.4-0.134,0.6-0.2
			c0.033,0,0.083-0.017,0.15-0.05c1.367-0.434,2.617-1.117,3.75-2.05C77.184,35.366,77.233,35.333,77.3,35.3z M145.05,18.1
			c-0.033,0-0.066,0-0.101,0c-0.899-0.5-1.583-0.883-2.05-1.15c-0.8-0.467-1.399-0.95-1.8-1.45c-0.5-0.633-0.783-1.367-0.85-2.2
			c0.133,0.267,0.283,0.517,0.449,0.75c0.434,0.534,1.267,1.133,2.5,1.8c1.233,0.7,2.051,1.3,2.45,1.8
			C145.45,17.817,145.25,17.967,145.05,18.1z M130.15,27c0.2-0.1,0.417-0.134,0.65-0.1c-0.167,0.333-0.316,0.666-0.45,1L130.1,28.6
			l-0.05,0.051H130c-0.233-0.067-0.5-0.034-0.801,0.1c-0.399,0.167-0.649,0.267-0.75,0.3c-0.333,0.066-0.816,0.05-1.449-0.05
			c-0.767-0.1-1.25-0.15-1.45-0.15c-0.134,0.034-0.267,0.067-0.4,0.101c-1.066,0.166-1.916,0.25-2.55,0.25
			c-2.9,0.133-4.884,0.166-5.95,0.1c-0.333-0.033-0.684-0.133-1.05-0.3c-0.434-0.233-0.9-0.55-1.4-0.95
			c-1-0.833-1.783-1.316-2.35-1.45c-0.733-0.133-1.333-0.25-1.8-0.35c-0.2-0.066-0.367-0.116-0.5-0.15
			c-0.334-0.066-0.634-0.133-0.9-0.199c-0.533-0.134-1-0.267-1.399-0.4c-0.067-0.033-0.117-0.05-0.15-0.05
			c-0.833-0.267-1.467-0.5-1.9-0.7c-0.433-0.134-0.8-0.267-1.1-0.4c-0.2-0.1-0.384-0.199-0.55-0.3l-0.3,0.15
			c0-0.134-0.034-0.467-0.101-1c-0.033-0.5,0-0.833,0.101-1c0.033-0.067,0.1-0.133,0.199-0.2c-0.066,0.1-0.133,0.217-0.199,0.35
			c0.399,0.3,1.05,0.617,1.949,0.95c0.467,0.2,1.15,0.434,2.051,0.7c1,0.366,2.533,0.75,4.6,1.15c0.566,0.133,1.35,0.616,2.35,1.449
			c0.9,0.733,1.717,1.134,2.45,1.2c0.834,0.101,1.834,0.117,3,0.05c0.634,0,1.617-0.033,2.95-0.1c0.7-0.033,1.684-0.15,2.95-0.35
			c0.267,0,0.75,0.05,1.45,0.149c0.666,0.101,1.149,0.117,1.449,0.05c0.067-0.033,0.25-0.1,0.551-0.199h0.05
			c0.037-0.034,0.087-0.051,0.149-0.051c0.067-0.033,0.233-0.1,0.5-0.199c0.101,0,0.217,0,0.351,0L130.15,27z M103.8,17.9
			c0.1,0.3,0.166,0.567,0.2,0.8c0.066,0.433,0.066,0.9,0,1.4c-0.034-0.2-0.084-0.4-0.15-0.6c-0.066-0.267-0.167-0.533-0.3-0.8
			c-0.033-0.1-0.066-0.184-0.101-0.25C103.383,18.183,103.5,18,103.8,17.9z M99.15,23.75c-0.2,0-0.434-0.033-0.7-0.1
			c-0.6-0.134-1.116-0.301-1.55-0.5c-0.166-0.134-0.333-0.25-0.5-0.351c-0.1-0.066-0.2-0.133-0.3-0.2c-0.7-0.5-1.066-0.767-1.1-0.8
			c-0.434-0.4-0.784-0.716-1.051-0.95c-0.133-0.1-0.233-0.2-0.3-0.3c-0.1-0.1-0.184-0.183-0.25-0.25l-0.35-0.1
			c-0.134-0.1-0.217-0.367-0.25-0.8c0-0.433,0.066-0.733,0.2-0.9c0.033-0.033,0.083-0.05,0.149-0.05
			c0.101,0.233,0.367,0.55,0.8,0.95c0.267,0.233,0.617,0.55,1.051,0.95c0.033,0.033,0.5,0.367,1.399,1
			c0.533,0.367,1.217,0.65,2.05,0.85c0.801,0.167,1.384,0.117,1.75-0.15c0.167-0.033,0.317-0.066,0.45-0.1V23l-0.25,0.25
			c-0.066,0.1-0.133,0.2-0.2,0.3C99.966,23.717,99.617,23.783,99.15,23.75z M55.1,12.75c0.9-0.3,1.65-0.65,2.25-1.05
			c0.033-0.034,0.283-0.25,0.75-0.65c0.233-0.167,0.45-0.3,0.65-0.4c0.3-0.066,0.633-0.117,1-0.15c0.333,0,0.85,0.017,1.55,0.05
			c1.033-0.033,1.917-0.2,2.65-0.5c0.533-0.167,1-0.367,1.4-0.6c0.067,0.4,0.1,0.733,0.1,1H65.3c0,0.033,0.017,0.05,0.05,0.05
			c-0.133,0.133-0.283,0.267-0.45,0.4c-0.233,0.2-0.5,0.367-0.8,0.5c-0.767,0.367-1.7,0.567-2.8,0.6c-0.7-0.033-1.217-0.033-1.55,0
			c-0.633,0-1.15,0.083-1.55,0.25c-0.267,0.1-0.55,0.267-0.85,0.5c-0.4,0.367-0.65,0.583-0.75,0.65
			c-1.033,0.767-2.433,1.267-4.2,1.5c-0.233,0.033-0.466,0.067-0.7,0.1c-0.633,0.067-1.383,0.117-2.25,0.15c-0.5,0-1.033,0-1.6,0
			c-0.967,0.033-1.7-0.05-2.2-0.25c-0.066-0.033-0.133-0.066-0.2-0.1c-0.434-0.2-0.983-0.583-1.65-1.15
			c-0.3-0.2-0.534-0.383-0.7-0.55c-0.2-0.167-0.35-0.3-0.45-0.4c-0.367-0.333-0.6-0.717-0.7-1.15c-0.067-0.267-0.083-0.6-0.05-1
			c0-0.2,0.017-0.4,0.05-0.6c0,0.033,0,0.083,0,0.15c0.1,0.433,0.333,0.816,0.7,1.15c0.233,0.2,0.617,0.517,1.15,0.95
			c0.8,0.633,1.417,1.033,1.85,1.2c0.5,0.2,1.233,0.3,2.2,0.3C50.95,13.7,53.367,13.383,55.1,12.75z M111.85,32.7
			c0.2,0.133,0.316,0.316,0.35,0.55c0.034,0.066,0.034,0.217,0,0.45c0,0.133-0.017,0.3-0.05,0.5c-0.366-0.033-0.85,0.017-1.45,0.149
			c-0.633,0.2-1.116,0.334-1.449,0.4c-0.934,0.134-2.051,0.2-3.351,0.2c-1.666,0.033-2.916,0.066-3.75,0.1
			c-1.5,0.033-2.75-0.017-3.75-0.149c-0.133-1.101-0.717-2.317-1.75-3.65c-0.166-0.2-0.283-0.366-0.35-0.5
			c-0.101-0.2-0.134-0.35-0.101-0.45L95.8,30.25c0.033-0.066,0.116-0.4,0.25-1c0-0.1,0.05-0.184,0.149-0.25
			c0.034,0.2,0.184,0.467,0.45,0.8c1.033,1.267,1.617,2.483,1.75,3.65c1,0.133,2.25,0.184,3.75,0.149
			c0.834-0.033,2.084-0.066,3.75-0.1c1.367,0,2.483-0.083,3.351-0.25c0.133-0.033,0.616-0.15,1.449-0.35
			C111.133,32.767,111.517,32.7,111.85,32.7z M82.5,34.8c0,0.033,0,0.084,0,0.15c0.2,0.3,0.167,0.633-0.1,1
			c-0.133,0.2-0.5,0.483-1.1,0.85c-0.6,0.367-1.034,0.566-1.3,0.601c-0.167,0-0.517-0.067-1.05-0.2
			c-0.567-0.134-0.867-0.25-0.9-0.351L77.95,37c-0.567-0.5-0.533-1.05,0.1-1.65V35.4c0.033,0.1,0.333,0.216,0.9,0.35
			c0.566,0.134,0.917,0.184,1.05,0.15c0.133-0.034,0.35-0.117,0.65-0.25c0.034,0,0.067,0,0.1,0c0.233-0.034,0.667-0.233,1.3-0.601
			C82.217,34.95,82.367,34.866,82.5,34.8z M57.15,22.2c0.167,0.267,0.133,0.5-0.1,0.7c-0.133,0.033-0.2-0.017-0.2-0.15l-0.15,0.1
			c0.167,0.1,0.3,0.167,0.4,0.2c-0.533,0.667-0.95,1.15-1.25,1.45c-0.233,0.233-0.467,0.434-0.7,0.6L55.1,25.15
			c-0.3,0.166-0.617,0.316-0.95,0.449c-0.6,0.233-1.417,0.217-2.45-0.05c-1.133-0.267-1.85-0.7-2.15-1.3
			c0.1,0,0.216-0.017,0.35-0.05c-0.167-0.066-0.316-0.134-0.45-0.2c-0.067-0.467-0.067-0.783,0-0.95
			c0.033-0.066,0.083-0.133,0.15-0.2c0.3,0.567,1,0.983,2.1,1.25c1.033,0.267,1.85,0.284,2.45,0.051c0.1-0.034,0.2-0.067,0.3-0.101
			c0.167-0.033,0.316-0.083,0.45-0.149c0.6-0.233,1.167-0.601,1.7-1.101C56.767,22.633,56.95,22.433,57.15,22.2z M50.4,22.55
			c-0.033,0-0.066,0-0.1,0l0.05,0.05c-0.267,0.1-0.483,0.167-0.65,0.2c0.1-0.1,0.25-0.2,0.45-0.3c0.333-0.133,0.65-0.25,0.95-0.35
			c-0.067,0.033-0.133,0.067-0.2,0.1C50.7,22.35,50.533,22.45,50.4,22.55z M0,18.35l8.95-0.05c-2.033,0.1-4.583,0.133-7.65,0.1
			C0.85,18.375,0.417,18.358,0,18.35z"/>
		<path style="fill-rule:evenodd;clip-rule:evenodd;fill:#23211B;" d="M91.05,38.75h0.05l0.2-0.35c0.133-0.134,0.45-0.217,0.95-0.25
			c0.3,0,0.649-0.017,1.05-0.051c-0.467-0.3-0.75-0.6-0.851-0.899C92.383,37,92.25,36.6,92.05,36c-0.033-0.1-0.316-0.483-0.851-1.15
			c-0.333-0.433-0.466-0.833-0.399-1.199l0.5-0.15c0.7,0,1.267,0.2,1.7,0.6c0.3,0.267,0.683,0.801,1.149,1.601
			c0.467,0.833,0.917,1.283,1.351,1.35c0.333,0.066,1.017-0.116,2.05-0.55c-0.101,0.5,0,0.8,0.3,0.9c0.2,0.066,0.55,0.149,1.05,0.25
			c0.3,0.133,0.601,0.3,0.9,0.5c0.3,0.133,0.684,0.216,1.149,0.25c0.767,0,1.801-0.101,3.101-0.301
			c1.5-0.233,2.517-0.366,3.05-0.399c1.167-0.066,2.634-0.101,4.4-0.101c0.966,0,2.416,0.017,4.35,0.051
			c-0.767,0.1-1.483,0.233-2.15,0.399c-3.3,0.8-5.416,1.267-6.35,1.4c-3.2,0.033-5.066,0.233-5.6,0.6
			c-0.567,0.434-0.867,1.033-0.9,1.8c0.033,0.934,0,1.634-0.1,2.101l-7.551-4.5C92.433,39.15,91.716,38.917,91.05,38.75z
			 M36.7,29.05c0.433-0.666,0.566-1.6,0.4-2.8c-0.033-0.3-0.083-0.65-0.15-1.05l0.1,0.05c0.5,0.2,0.833,0.417,1,0.65
			c0.167,0.199,0.267,0.55,0.3,1.05c0,0.833-0.25,1.517-0.75,2.05L36.7,29.05z M51.55,4.7c-0.133,0.033-0.284,0.066-0.45,0.1h-0.05
			C51.217,4.767,51.383,4.733,51.55,4.7z M104.25,7.05c0.333,0.534,0.517,1.083,0.55,1.65c-0.066-0.633-0.267-1.184-0.601-1.65
			H104.25z M60.5,2.8c2.333-0.066,5.333-0.2,9-0.4c5.133-0.133,9.117,0.3,11.95,1.3c2.433,0.833,4.433,1.433,6,1.8
			c2.134,0.5,4.184,0.733,6.15,0.7c3.733,0,6.066,0.083,7,0.25c1.134,0.2,2.066,0.517,2.8,0.95c0.033,0.067,0.066,0.15,0.101,0.25
			c0.033-0.066,0.066-0.117,0.1-0.15c0.967,0.633,1.5,1.517,1.6,2.65c0.801,0.1,1.7,0.167,2.7,0.2c-0.533,0.233-1.116,0.4-1.75,0.5
			c-0.8,0.1-1.5,0.083-2.1-0.05c-0.2-0.033-0.4-0.117-0.601-0.25c-0.233-0.133-0.466-0.4-0.699-0.8C102.45,9.317,102.2,9,102,8.8
			L101.2,8.15L100.85,8l-0.6-0.15L100.1,7.8c-0.7-0.133-2.316-0.2-4.85-0.2c-0.634,0-1.4-0.05-2.301-0.15
			c-1.5-0.2-2.267-0.3-2.3-0.3C89.484,7.117,88.6,7.083,88,7.05C86.966,7.017,86.1,6.9,85.4,6.7c-0.6-0.167-1.367-0.45-2.3-0.85
			c-1.133-0.5-1.867-0.817-2.2-0.95c-0.966-0.367-2.267-0.566-3.9-0.6c-1.8,0.034-3.117,0.017-3.95-0.05
			c-1.467-0.133-3.867-0.083-7.2,0.15c-3.133,0.167-5.533,0.15-7.2-0.05c0.233-0.2,0.633-0.567,1.2-1.1
			C60.083,3.05,60.3,2.9,60.5,2.8z M110.65,8.8c-0.366,0.034-0.717,0.05-1.05,0.05l1.15-0.1c0.533-0.033,1.133-0.067,1.8-0.1
			c-0.467,0.033-0.9,0.067-1.3,0.1c-0.2,0-0.384,0.017-0.551,0.05l0.051-0.05C110.715,8.783,110.682,8.799,110.65,8.8z
			 M108.45,10.35c1,0,2.067-0.05,3.2-0.15c1.434-0.133,3.55-0.333,6.351-0.6c6.033-0.333,13.3-0.083,21.8,0.75
			c0,0.367,0.017,0.8,0.05,1.3c0.033,0.6,0.167,1.15,0.4,1.65c0.066,0.833,0.35,1.567,0.85,2.2c0.4,0.5,1,0.983,1.8,1.45
			c0.467,0.267,1.15,0.65,2.05,1.15c0.034,0,0.067,0,0.101,0c-0.733,0.367-1.566,0.583-2.5,0.65c-0.4,0.033-1.084,0-2.05-0.1H140.2
			c-0.333-0.066-0.683-0.117-1.05-0.15c-4.133-0.933-5.033-2.033-2.7-3.3c0.167-0.067,0.483-0.167,0.95-0.3
			c0.367-0.167,0.483-0.4,0.351-0.7c-0.067-0.167-0.334-0.284-0.801-0.35c-0.566-0.067-0.883-0.117-0.949-0.15
			c-0.2-0.067-0.384-0.2-0.551-0.4c-0.199-0.2-0.366-0.333-0.5-0.4c-0.267-0.167-0.649-0.333-1.149-0.5
			c-0.566-0.133-0.983-0.25-1.25-0.35c-0.5-0.133-1.15-0.216-1.95-0.25c-0.967,0-1.616-0.033-1.95-0.1c0-0.833-3.033-1.15-9.1-0.95
			C113.45,10.95,109.75,10.817,108.45,10.35z M95.7,22.8c0.067,0,0.134,0.017,0.2,0.05c0.367,0.1,0.7,0.2,1,0.3
			c0.434,0.199,0.95,0.366,1.55,0.5c0.267,0.066,0.5,0.1,0.7,0.1c0.167,0.033,0.45,0.167,0.851,0.4
			c0.366,0.166,0.683,0.267,0.949,0.3c0.334,0.033,0.584,0,0.75-0.101c0.034-0.033,0.084-0.066,0.15-0.1
			c0.434,0.134,0.9,0.267,1.4,0.4c-0.567,0.1-1.301,0.116-2.2,0.05c-0.267-0.033-1-0.117-2.2-0.25c-0.3-0.033-0.667-0.134-1.1-0.3
			c-0.5-0.233-0.834-0.367-1-0.4c-0.767,0.033-1.334,0-1.7-0.1L94.95,23.6C94.984,23.333,95.234,23.066,95.7,22.8z M53.9,5.85
			c-0.267,0.167-0.55,0.3-0.85,0.4c-0.434,0-0.85,0-1.25,0c2.267-0.533,3.517-2,3.75-4.4l0.25,0.1c0,2-0.6,3.3-1.8,3.9H53.9z
			 M36.7,13.3c0.566-0.533,1.65-1.733,3.25-3.6C40.617,8.933,41.3,8.317,42,7.85c-0.133,0.9-0.15,1.6-0.05,2.1
			c-0.033,0.2-0.05,0.4-0.05,0.6c-0.1,0.034-0.2,0.067-0.3,0.1c-0.8,0.2-1.35,0.4-1.65,0.6c-0.733,0.533-0.75,1-0.05,1.4
			C39.133,13.017,38.067,13.233,36.7,13.3z M69.05,15.15l0.4,0.95c0.167,0.3,0.5,0.55,1,0.75c0.066,0.033,0.15,0.066,0.25,0.1
			c0.633,0.267,1.017,0.5,1.15,0.7l0.1,0.15c-1.733,0.4-2.883-0.216-3.45-1.85c-0.533-1.467-0.5-2.867,0.1-4.2l0.5,0.95
			C68.733,13.467,68.717,14.283,69.05,15.15z"/>
		<path style="fill-rule:evenodd;clip-rule:evenodd;fill:#2F2C24;" d="M117.9,37.4l-0.25,0.05c-0.633,0.033-1.233,0.1-1.8,0.2
			c-1.934-0.034-3.384-0.051-4.35-0.051c-1.767,0-3.233,0.034-4.4,0.101c-0.533,0.033-1.55,0.166-3.05,0.399
			c-1.3,0.2-2.334,0.301-3.101,0.301c-0.466-0.034-0.85-0.117-1.149-0.25c-0.3-0.2-0.601-0.367-0.9-0.5
			c-0.5-0.101-0.85-0.184-1.05-0.25c-0.3-0.101-0.4-0.4-0.3-0.9c-1.033,0.434-1.717,0.616-2.05,0.55
			c-0.434-0.066-0.884-0.517-1.351-1.35C93.683,34.9,93.3,34.366,93,34.1c-0.434-0.399-1-0.6-1.7-0.6l0.2-0.05
			c0.366-0.2,0.616-0.4,0.75-0.601c0.066-0.133,0.199-0.399,0.399-0.8c0.267,0.066,0.634,0.267,1.101,0.601
			c0.466,0.333,0.866,0.533,1.199,0.6c0.067,0,0.434,0,1.101,0c0.333-0.033,0.583,0.1,0.75,0.4c0.1,0.199,0.116,0.566,0.05,1.1
			c-0.1,0.5-0.05,0.866,0.15,1.1c0.3,0.301,0.899,0.45,1.8,0.45c0.5,0,1.149-0.017,1.95-0.05c0.399,0.033,1.066,0.116,2,0.25
			c0.833,0.1,1.5,0.167,2,0.2c0.433,0,1.416-0.017,2.949-0.05c1.2-0.034,2.167-0.017,2.9,0.05c0.833,0.1,2.05,0.25,3.65,0.45
			C115.683,37.283,116.9,37.366,117.9,37.4z M91.55,30.2c0.033-0.334,0.316-0.566,0.85-0.7c0.434-0.167,0.851-0.217,1.25-0.15
			l0.55,0.5C94.034,30.217,93.633,30.4,93,30.4C92.5,30.434,92.017,30.366,91.55,30.2z M91.3,25.2h0.8
			c0.033,0.934-0.75,1.233-2.35,0.899c-0.067-0.267,0.116-0.466,0.55-0.6L91.3,25.2z M79.9,38.75l0.65-0.4
			c1.066-0.366,2.65-0.649,4.75-0.85c2.333-0.2,3.934-0.4,4.8-0.6c1.134-0.267,1.283-0.634,0.45-1.101
			c-1.101-0.633-1.533-1.166-1.3-1.6c0.133-0.2,0.649-0.384,1.55-0.55c-0.066,0.366,0.066,0.767,0.399,1.199
			c0.534,0.667,0.817,1.051,0.851,1.15c0.2,0.6,0.333,1,0.399,1.2c0.101,0.3,0.384,0.6,0.851,0.899
			c-0.4,0.034-0.75,0.051-1.05,0.051c-0.5,0.033-0.817,0.116-0.95,0.25l-0.2,0.35h-0.05l-0.8-0.2
			c-0.867-0.166-2.067-0.233-3.601-0.2L86.1,38.4c-0.333,0-0.667,0.017-1,0.05c-0.733,0.033-1.383,0.083-1.95,0.149
			c-0.8,0.034-1.533,0.067-2.2,0.101h-0.2C80.35,38.733,80.067,38.75,79.9,38.75z M103.45,10.55c0.2,0.133,0.4,0.217,0.601,0.25
			c0.6,0.133,1.3,0.15,2.1,0.05c0.634-0.1,1.217-0.267,1.75-0.5c0.167,0,0.351,0,0.55,0c1.301,0.467,5,0.6,11.101,0.4
			c6.066-0.2,9.1,0.117,9.1,0.95c0.334,0.066,0.983,0.1,1.95,0.1c0.8,0.034,1.45,0.117,1.95,0.25c0.267,0.1,0.684,0.217,1.25,0.35
			c0.5,0.167,0.883,0.333,1.149,0.5c0.134,0.067,0.301,0.2,0.5,0.4c0.167,0.2,0.351,0.333,0.551,0.4
			c0.066,0.033,0.383,0.083,0.949,0.15c0.467,0.066,0.733,0.183,0.801,0.35c0.133,0.3,0.017,0.533-0.351,0.7
			c-0.467,0.133-0.783,0.233-0.95,0.3c-2.333,1.267-1.433,2.367,2.7,3.3c-1.467-0.133-2.583-0.117-3.35,0.05
			c-1.033,0.2-1.9,0.684-2.601,1.45l-0.149,0.2c0.033-0.267,0.066-0.517,0.1-0.75c0.2-0.967,0.25-1.534,0.15-1.7
			c-0.066-0.167-0.233-0.317-0.5-0.45c-0.2-0.167-0.45-0.3-0.75-0.4c-0.7-0.133-1.184-0.25-1.45-0.35c-0.333-0.1-0.667-0.183-1-0.25
			c0.1-0.167,0.134-0.3,0.1-0.4c-0.033-0.367-0.3-0.566-0.8-0.6c-0.633-0.033-1-0.083-1.1-0.15c-0.2-0.133-0.351-0.35-0.45-0.65
			c-0.066-0.367-0.167-0.617-0.3-0.75c-0.066-0.067-0.533-0.167-1.4-0.3l-2.95-0.55c-2.666-0.367-4.866-0.517-6.6-0.45
			c-4.566,0.267-8.167,0.6-10.8,1c-1.101,0.267-1.934,0.466-2.5,0.6c-1.101,0.233-1.95,0.25-2.55,0.05c0.166-0.5,0.85-1,2.05-1.5
			c1.166-0.467,1.75-0.983,1.75-1.55c-0.334-0.167-0.566-0.25-0.7-0.25L103.45,10.55z M129.4,32.2c-0.366,0.399-0.85,0.566-1.45,0.5
			c-0.333-0.033-0.666-0.233-1-0.601c-0.3-0.3-0.649-0.433-1.05-0.399c-0.1,0.033-0.283,0.133-0.55,0.3
			c-0.2,0.134-0.434,0.184-0.7,0.15c-0.666-0.267-1.166-0.417-1.5-0.45c-1.1-0.2-2.666-0.351-4.7-0.45c-2.133-0.1-3.666-0.2-4.6-0.3
			c-0.033,0.1-0.083,0.217-0.15,0.35c-0.133,0.334-0.383,0.566-0.75,0.7c0.034-0.233,0.034-0.4,0-0.5
			c-0.033-0.267-0.233-0.483-0.6-0.65c-0.2-0.1-0.65-0.216-1.35-0.35c-0.601-0.134-1.051-0.3-1.351-0.5
			c-0.467-0.3-0.95-0.833-1.45-1.6c1-0.267,1.9-0.367,2.7-0.301l0.25,1c0.9-0.1,1.617,0.034,2.15,0.4
			c0.133,0.066,0.233,0.167,0.3,0.3c0-0.233-0.017-0.467-0.05-0.7c-0.134-0.6-0.517-1.083-1.15-1.449
			c-0.233-0.167-0.883-0.284-1.95-0.351c-0.466-0.066-0.916-0.133-1.35-0.2l-0.05,0.051c-0.267,0.199-0.7,0.383-1.3,0.55
			c0-0.033-0.017-0.066-0.051-0.101h-1.55c-0.033-0.3-0.399-0.566-1.1-0.8c0.333-0.133,0.717-0.267,1.149-0.399
			c0.067-0.034,0.15-0.051,0.25-0.051c-0.366-0.166-0.683-0.333-0.949-0.5c-0.067-0.033-0.134-0.083-0.2-0.149
			c-0.967-0.033-1.7-0.05-2.2-0.05c-1,0.033-2.366-0.184-4.1-0.65c-1.601-0.267-2.75-0.533-3.45-0.8
			c-0.4-0.134-0.634-0.25-0.7-0.351c-0.033-0.066,0.033-0.133,0.2-0.199c0.366,0.1,0.934,0.133,1.7,0.1c0.166,0.033,0.5,0.167,1,0.4
			c0.433,0.166,0.8,0.267,1.1,0.3c1.2,0.133,1.934,0.217,2.2,0.25c0.899,0.066,1.633,0.05,2.2-0.05c-0.5-0.134-0.967-0.267-1.4-0.4
			c-0.066,0.033-0.116,0.066-0.15,0.1c-0.166,0.101-0.416,0.134-0.75,0.101c-0.267-0.033-0.583-0.134-0.949-0.3
			c-0.4-0.233-0.684-0.367-0.851-0.4c0.467,0.033,0.816-0.033,1.05-0.2c0.067-0.1,0.134-0.2,0.2-0.3l0.25-0.25v-1.05
			c0.233-0.1,0.4-0.25,0.5-0.45l0.25-0.25V18.6c0.167-0.033,0.334-0.05,0.5-0.05c0.733-0.033,1.283,0.017,1.65,0.15
			c0.133,0.267,0.233,0.533,0.3,0.8c0.066,0.2,0.116,0.4,0.15,0.6c-0.101,0.6-0.284,1.233-0.551,1.9
			c-0.1,0.067-0.166,0.133-0.199,0.2c-0.101,0.167-0.134,0.5-0.101,1c0.066,0.533,0.101,0.866,0.101,1l0.3-0.15
			c0.166,0.101,0.35,0.2,0.55,0.3c0.3,0.134,0.667,0.267,1.1,0.4c0.434,0.2,1.067,0.434,1.9,0.7c0.033,0,0.083,0.017,0.15,0.05
			c0.399,0.134,0.866,0.267,1.399,0.4c0.267,0.066,0.566,0.133,0.9,0.199c0.133,0.034,0.3,0.084,0.5,0.15
			c0.467,0.1,1.066,0.217,1.8,0.35c0.566,0.134,1.35,0.617,2.35,1.45c0.5,0.4,0.967,0.717,1.4,0.95
			c0.366,0.167,0.717,0.267,1.05,0.3c1.066,0.066,3.05,0.033,5.95-0.1c0.634,0,1.483-0.084,2.55-0.25
			c0.134-0.033,0.267-0.066,0.4-0.101c0.2,0,0.684,0.051,1.45,0.15c0.633,0.1,1.116,0.116,1.449,0.05
			c0.101-0.033,0.351-0.133,0.75-0.3c0.301-0.134,0.567-0.167,0.801-0.1h0.05l0.05-0.051c0.033,0.2,0.05,0.4,0.05,0.601
			c0.134,0.866,0.017,1.666-0.35,2.399C129.7,31.833,129.567,32.033,129.4,32.2z M101.2,8.15l-1,0.25h-0.05L99.9,8.45
			c-0.733,0.233-1.866,0.433-3.399,0.6c-0.767,0.2-1.267,0.284-1.5,0.25c-0.101-0.033-0.233-0.15-0.4-0.35
			c-0.167-0.167-0.316-0.284-0.45-0.35c-0.566-0.2-1.434-0.3-2.6-0.3c-1.267,0-2.134-0.017-2.601-0.05
			c-2.166-0.133-3.433-0.217-3.8-0.25c-1.3-0.167-2.45-0.483-3.45-0.95c-0.6-0.267-1.3-0.417-2.1-0.45
			c-0.467-0.033-1.183-0.017-2.15,0.05c-0.9,0.067-2.434,0.083-4.6,0.05c-2-0.034-3.517,0.017-4.55,0.15
			c-1.534,0.167-1.983,0.9-1.35,2.2c0.367,0.8,1.083,1.7,2.15,2.7l0.3,1.7c-0.4,0.3-0.517,0.867-0.35,1.7
			c-0.333-0.867-0.317-1.683,0.05-2.45l-0.5-0.95c-0.6,1.333-0.633,2.733-0.1,4.2c0.567,1.633,1.717,2.25,3.45,1.85l-0.1-0.15
			l2.45,0.3l-0.1-0.05c0.333-0.066,1.017-0.133,2.05-0.2c0.867-0.067,1.533-0.184,2-0.35c0.4-0.133,1-0.25,1.8-0.35
			c0.833-0.133,1.45-0.25,1.85-0.35c1.167-0.367,1.867-0.633,2.1-0.8c0.267-0.167,0.434-0.333,0.5-0.5
			c0.133-0.333,0.233-0.55,0.3-0.65c0.3-0.467,0.967-0.784,2-0.95c1.033-0.133,1.666-0.4,1.899-0.8c0.334-0.534,0.25-0.934-0.25-1.2
			h0.75c1.067-0.067,1.634,0.25,1.7,0.95c-0.1,0.933-0.133,1.6-0.1,2c0.1,0.933,0.85,1.383,2.25,1.35
			c1.666-0.1,2.649-0.017,2.95,0.25c-1.067,0.667-2.65,1-4.75,1c-3.2,0-4.9,0.017-5.101,0.05l-1.55,0.3l0.65-0.05
			c-0.867,0.4-1.917,0.733-3.15,1c-1.433,0.267-2.533,0.483-3.3,0.65c-2.167,0.533-3.733,0.717-4.7,0.55
			c-0.467-0.066-1.217-0.233-2.25-0.5c-1-0.267-1.767-0.433-2.3-0.5c-0.633,0-1.1,0-1.4,0c-0.6,0-1.066-0.083-1.4-0.25
			c-0.6-0.3-1-0.933-1.2-1.9c-0.067-0.3-0.117-0.633-0.15-1c-0.333,0.133-0.767-0.017-1.3-0.45c-0.2-0.267-0.35-0.467-0.45-0.6
			c-0.2-0.2-0.45-0.267-0.75-0.2c-0.133,0.033-0.3,0.167-0.5,0.4c-0.2,0.2-0.383,0.333-0.55,0.4c-0.333,0.1-0.95,0.15-1.85,0.15
			c-0.8,0-1.433,0.1-1.9,0.3c-0.933,0.6-1.65,1.017-2.15,1.25c-0.833,0.467-1.583,0.55-2.25,0.25c-0.067-0.033-0.4-0.233-1-0.6
			c-0.333-0.2-0.684-0.316-1.05-0.35H51.6h-1.45c-0.966,0-1.883-0.017-2.75-0.05c-1.667-0.066-3.167-0.2-4.5-0.4
			c-0.333,0.033-0.733,0.067-1.2,0.1c-0.833,0.033-1.434,0.05-1.8,0.05c-0.7,0.067-1.3,0.05-1.8-0.05
			c-0.067-0.367-0.017-0.733,0.15-1.1c0.267-0.567,0.417-0.917,0.45-1.05c-0.767,0.066-1.383,0.117-1.85,0.15
			c-0.367,0-0.683,0-0.95,0c0.167-0.133,0.333-0.25,0.5-0.35c0.067-0.067,0.167-0.133,0.3-0.2c1.367-0.066,2.433-0.283,3.2-0.65
			c-0.7-0.4-0.683-0.867,0.05-1.4c0.3-0.2,0.85-0.4,1.65-0.6c0.1-0.033,0.2-0.066,0.3-0.1c-0.033,0.4-0.017,0.733,0.05,1
			c0.1,0.434,0.333,0.817,0.7,1.15c0.1,0.1,0.25,0.233,0.45,0.4c0.167,0.167,0.4,0.35,0.7,0.55c0.667,0.567,1.216,0.95,1.65,1.15
			c0.066,0.034,0.133,0.067,0.2,0.1c0.5,0.2,1.233,0.283,2.2,0.25c0.567,0,1.1,0,1.6,0c0.867-0.033,1.617-0.083,2.25-0.15
			c0.233-0.033,0.467-0.067,0.7-0.1c1.767-0.233,3.167-0.733,4.2-1.5c0.1-0.066,0.35-0.283,0.75-0.65c0.3-0.233,0.583-0.4,0.85-0.5
			c0.4-0.167,0.917-0.25,1.55-0.25c0.333-0.033,0.85-0.033,1.55,0c1.1-0.033,2.033-0.233,2.8-0.6c0.3-0.133,0.567-0.3,0.8-0.5
			c0.167-0.133,0.317-0.267,0.45-0.4c-0.033,0-0.05-0.017-0.05-0.05h0.15c0-0.267-0.033-0.6-0.1-1c0.267-0.2,0.517-0.417,0.75-0.65
			c-0.233-0.233-1.233-0.483-3-0.75c-0.533,0.1-0.883,0.117-1.05,0.05c-0.133-0.033-0.267-0.133-0.4-0.3
			c-0.133-0.167-0.233-0.267-0.3-0.3c-1.233-0.5-2.5-0.783-3.8-0.85C56.817,6.217,55.7,5.967,54.2,5.9l-0.3-0.05H54
			c1.2-0.6,1.8-1.9,1.8-3.9l-0.25-0.1c0-0.1,0-0.217,0-0.35l1.55,1.35c0.9,0,2.033-0.017,3.4-0.05c-0.2,0.1-0.417,0.25-0.65,0.45
			c-0.567,0.533-0.967,0.9-1.2,1.1c1.667,0.2,4.067,0.217,7.2,0.05c3.333-0.233,5.733-0.283,7.2-0.15
			C73.883,4.317,75.2,4.333,77,4.3c1.633,0.034,2.934,0.233,3.9,0.6c0.333,0.133,1.067,0.45,2.2,0.95c0.933,0.4,1.7,0.683,2.3,0.85
			C86.1,6.9,86.966,7.017,88,7.05c0.6,0.034,1.483,0.067,2.649,0.1c0.033,0,0.8,0.1,2.3,0.3c0.9,0.1,1.667,0.15,2.301,0.15
			c2.533,0,4.149,0.066,4.85,0.2l0.15,0.05l0.6,0.15L101.2,8.15z M82.95,23.45c0.1-0.667-0.267-1.2-1.1-1.6
			c-0.633-0.3-1.417-0.483-2.35-0.55c2.434,0.067,4.45,0.467,6.05,1.2c0.666,0.267,1.366,0.45,2.1,0.55c1,0.134,1.7,0.033,2.101-0.3
			l0.5,0.75c0.1,0.7-0.084,1.167-0.551,1.4c-0.633,0.199-1.133,0.35-1.5,0.449c-1,0.367-1.683,1.051-2.05,2.051
			c-0.2,0.566-0.399,0.883-0.6,0.949c-0.4,0.067-0.833,0.15-1.3,0.25C83.817,28.767,83.5,28.9,83.3,29
			c-0.367,0.1-0.733,0.116-1.1,0.05c0.033-0.267,0.233-0.566,0.6-0.899c0.3-0.334,0.433-0.667,0.4-1
			c-0.033-0.534-0.417-0.95-1.15-1.25l-1.9-0.551c0.2-0.166,0.767-0.383,1.7-0.649C82.517,24.533,82.883,24.116,82.95,23.45z
			 M96.9,23.15c-0.3-0.101-0.633-0.2-1-0.3c-0.066-0.033-0.133-0.05-0.2-0.05c-1.267-0.333-2.267-0.7-3-1.1
			c0.134-0.333,0.45-0.717,0.95-1.15c0.066,0.1,0.167,0.2,0.3,0.3c0.267,0.233,0.617,0.55,1.051,0.95c0.033,0.034,0.399,0.3,1.1,0.8
			c0.1,0.066,0.2,0.133,0.3,0.2C96.567,22.9,96.734,23.017,96.9,23.15z M96.3,30.75c0.066,0.134,0.184,0.3,0.35,0.5
			c1.033,1.333,1.617,2.55,1.75,3.65c1,0.133,2.25,0.183,3.75,0.149c0.834-0.033,2.084-0.066,3.75-0.1c1.3,0,2.417-0.066,3.351-0.2
			c0.333-0.066,0.816-0.2,1.449-0.4c0.601-0.133,1.084-0.183,1.45-0.149c0.033-0.2,0.05-0.367,0.05-0.5
			c1.2,0.6,1.284,1.283,0.25,2.05c-0.3,0.233-0.833,0.333-1.6,0.3c-0.833-0.066-1.4-0.1-1.7-0.1h-3.35
			c-1.634,0.066-2.867,0.1-3.7,0.1c-1.5,0.066-2.733,0.033-3.7-0.1c-0.6-0.101-0.967-0.283-1.1-0.55L97.2,34.2
			c-0.033-0.434-0.35-1.267-0.949-2.5C96.117,31.267,96.133,30.95,96.3,30.75z M74.85,31c-1-0.5-1.617-0.9-1.85-1.2l-0.25-0.45
			c-0.233-0.033-0.467-0.017-0.7,0.051c-0.233,0.1-0.45,0.166-0.65,0.199c-0.367,0.101-0.833,0.25-1.4,0.45l-0.1,0.05
			c-0.633-0.133-1.15-0.233-1.55-0.3c-1.9,0.033-3.3,0.05-4.2,0.05c-1.167-0.033-2.983-0.35-5.45-0.949l-1.9-0.2
			c-0.9-0.101-1.434-0.267-1.6-0.5c-0.133-0.167-0.217-0.5-0.25-1c-0.033-0.533,0.017-0.884,0.15-1.05c0.267-0.367,1-0.65,2.2-0.851
			c0.633-0.1,1.417-0.217,2.35-0.35c0.733-0.2,1.8-0.684,3.2-1.45l0.65-0.25c-1.333,0.833-1.983,1.634-1.95,2.4
			c0.033,0.566,0.3,0.983,0.8,1.25c0.3,0.166,0.817,0.316,1.55,0.449c0.534,0.067,2.6,0.233,6.2,0.5c0.9,0.067,2.15,0.483,3.75,1.25
			c2.567,1.167,5.1,1.75,7.6,1.75c-0.267,0.2-0.9,0.267-1.9,0.2c-2.167,0-3.434,0-3.8,0C75.45,31.05,75.15,31.033,74.85,31z
			 M45.15,23.7c0.167,0.1,0.35,0.184,0.55,0.25c0.2,0.066,0.383,0.149,0.55,0.25l0.15-0.4c0.067-0.033,0.15-0.05,0.25-0.05
			c0.534-0.1,1.167-0.333,1.9-0.7c0.4-0.233,0.966-0.566,1.7-1c1.1-0.533,2.333-1.033,3.7-1.5c0.1,0,0.2,0.034,0.3,0.1
			c-1.1,0.4-1.816,0.684-2.15,0.85c-0.4,0.267-0.733,0.483-1,0.65c-0.3,0.1-0.617,0.217-0.95,0.35c-0.2,0.1-0.35,0.2-0.45,0.3
			c-0.067,0-0.117,0-0.15,0l0.05,0.05c-0.067,0.066-0.117,0.133-0.15,0.2c-0.067,0.167-0.067,0.483,0,0.95
			c0.133,0.066,0.283,0.134,0.45,0.2c-0.133,0.033-0.25,0.05-0.35,0.05c0.3,0.6,1.017,1.033,2.15,1.3
			c1.033,0.267,1.85,0.283,2.45,0.05c0.333-0.133,0.65-0.283,0.95-0.449c-0.6,1.233-0.917,1.899-0.95,2
			c-0.733,0.133-1.566,0.166-2.5,0.1C50.617,27.184,49.8,27,49.2,26.7c-0.3-0.167-0.5-0.4-0.6-0.7c-0.133-0.4-0.3-0.684-0.5-0.85
			c-0.166-0.166-0.383-0.25-0.65-0.25c0.033,0.001,0.05,0.018,0.05,0.05c-0.633,0.633-2.1,0.95-4.4,0.95
			c-0.633,0.033-1.1,0.05-1.4,0.05c-0.6-0.033-1.033-0.184-1.3-0.45c-0.167-0.167-0.3-0.417-0.4-0.75c-0.1-0.4-0.217-0.667-0.35-0.8
			L37,22.75c0.667,0.067,1.517-0.1,2.55-0.5h0.05c0.733,0,1.917,0.3,3.55,0.9C43.883,23.417,44.55,23.6,45.15,23.7z"/>
		<path style="fill-rule:evenodd;clip-rule:evenodd;fill:#B4B2AA;" d="M62.85,32.15c1.1-0.134,2.067-0.334,2.9-0.601
			c-0.767,0.3-1.65,0.533-2.65,0.7c-0.5,0.066-1.033,0.134-1.6,0.2c-1.433,0.1-2.6,0.2-3.5,0.3c-0.1-0.066-0.167-0.134-0.2-0.2
			c1-0.1,2.483-0.217,4.45-0.35C62.45,32.167,62.65,32.15,62.85,32.15z M129.6,16.3c0.333,0.067,0.667,0.15,1,0.25
			c0.267,0.1,0.75,0.217,1.45,0.35c0.3,0.1,0.55,0.233,0.75,0.4c0.267,0.133,0.434,0.284,0.5,0.45c0.1,0.167,0.05,0.733-0.15,1.7
			c-0.033,0.233-0.066,0.483-0.1,0.75c-0.334,1.733-0.983,3.733-1.95,6l-0.3,0.7c-0.233-0.034-0.45,0-0.65,0.1l0.2-0.55
			c1.1-2.601,1.783-4.85,2.05-6.75c0.2-0.967,0.25-1.534,0.15-1.7c-0.134-0.3-0.517-0.55-1.15-0.75
			c-0.7-0.167-1.184-0.283-1.45-0.35c-1.133-0.4-2.433-0.566-3.899-0.5c-2.233,0.2-3.95,0.25-5.15,0.15
			c-0.666-0.033-1.733,0.05-3.2,0.25c-0.8,0.133-1.866,0.133-3.199,0c-1.5-0.167-2.584-0.283-3.25-0.35
			c-2.967-0.067-5.167-0.117-6.601-0.15c-0.233,0-0.416,0.017-0.55,0.05c0.1-0.267,0.483-0.383,1.15-0.35c2.899,0,5.1,0.05,6.6,0.15
			l3.25,0.3c1.366,0.133,2.45,0.15,3.25,0.05c1.333-0.233,2.384-0.317,3.15-0.25c1.199,0.067,2.916,0,5.149-0.2
			C127.617,16.017,128.6,16.1,129.6,16.3z M129.7,27.15c-0.267,0.1-0.433,0.166-0.5,0.199c-0.063,0-0.112,0.017-0.149,0.051
			c0.037-0.036,0.087-0.069,0.149-0.101C129.367,27.233,129.534,27.184,129.7,27.15z M100.65,21.95
			c-0.133,0.033-0.283,0.066-0.45,0.1c0.067-0.1,0.134-0.2,0.2-0.3l0.25-0.25v-2.6c-0.066-0.633-0.217-1.017-0.45-1.15
			c-0.166-0.1-0.633-0.15-1.399-0.15c-0.733,0-1.7,0.117-2.9,0.35c-0.767,0.167-1.416,0.283-1.95,0.35
			c-0.033-0.066-0.066-0.117-0.1-0.15c0.6-0.033,1.533-0.183,2.8-0.45c1.2-0.233,2.167-0.35,2.9-0.35c0.767,0,1.233,0.05,1.399,0.15
			c0.233,0.133,0.384,0.5,0.45,1.1v2.65l-0.25,0.25C101.05,21.7,100.883,21.85,100.65,21.95z M105.05,26.8
			c0.7,0.233,1.066,0.5,1.1,0.8h1.55c0.034,0.034,0.051,0.067,0.051,0.101c0.133,0.233,0.283,0.467,0.449,0.7
			c0.5,0.767,0.983,1.3,1.45,1.6c0.3,0.2,0.75,0.366,1.351,0.5c0.699,0.134,1.149,0.25,1.35,0.35c0.366,0.167,0.566,0.384,0.6,0.65
			c0.034,0.1,0.034,0.267,0,0.5c0,0.134-0.017,0.283-0.05,0.45c-0.2-0.033-0.434-0.017-0.7,0.05c0.034-0.4,0.034-0.65,0-0.75
			c-0.033-0.267-0.233-0.483-0.6-0.65c-0.2-0.1-0.65-0.216-1.35-0.35c-0.601-0.134-1.051-0.3-1.351-0.5
			c-0.6-0.366-1.25-1.167-1.95-2.4h-1.55c-0.033-0.366-0.533-0.683-1.5-0.949c-0.833-0.233-1.483-0.317-1.95-0.25
			c-0.066,0-0.149,0.017-0.25,0.05c0.4-0.167,0.733-0.267,1-0.3c0.467-0.067,1.117,0.017,1.95,0.25
			C104.784,26.684,104.917,26.733,105.05,26.8z M55.1,12.75c0.567-0.233,1.067-0.5,1.5-0.8c0.033-0.034,0.283-0.25,0.75-0.65
			c0.3-0.233,0.583-0.417,0.85-0.55c0.167-0.067,0.35-0.1,0.55-0.1c-0.2,0.1-0.417,0.233-0.65,0.4c-0.467,0.4-0.717,0.617-0.75,0.65
			C56.75,12.1,56,12.45,55.1,12.75z M43.3,6.55c0.167-0.1,0.383-0.183,0.65-0.25c1.133-0.267,1.95-0.4,2.45-0.4
			c1.034-0.066,2.333,0.017,3.9,0.25c0.4,0.067,0.9,0.1,1.5,0.1c0.4,0,0.816,0,1.25,0c0.733-0.033,1.55-0.083,2.45-0.15l1.3,0.5
			c0.233,0,0.483,0.017,0.75,0.05c1.3,0.067,2.566,0.35,3.8,0.85c0.067,0.033,0.167,0.133,0.3,0.3c0.133,0.167,0.267,0.267,0.4,0.3
			c0.167,0.066,0.517,0.05,1.05-0.05c1.767,0.267,2.767,0.517,3,0.75c-0.233,0.233-0.483,0.45-0.75,0.65
			c-0.4,0.233-0.867,0.433-1.4,0.6c0.566-0.267,1.033-0.6,1.4-1c-0.233-0.233-1.233-0.483-3-0.75c-0.533,0.1-0.883,0.117-1.05,0.05
			c-0.133-0.033-0.267-0.133-0.4-0.3c-0.133-0.167-0.233-0.267-0.3-0.3c-1.433-0.6-2.95-0.9-4.55-0.9l-1.3-0.5
			c-2.367,0.167-4.1,0.183-5.2,0.05c-1.567-0.233-2.867-0.316-3.9-0.25C45.15,6.15,44.367,6.283,43.3,6.55z M97,28.55
			c0-0.033,0.017-0.066,0.05-0.1c0.2-0.066,0.666-0.167,1.399-0.3c-0.267,0.1-0.466,0.166-0.6,0.199
			C97.517,28.417,97.234,28.483,97,28.55z M82.5,34.8c-0.133,0.066-0.283,0.15-0.45,0.25c-0.633,0.367-1.067,0.566-1.3,0.601
			c-0.033,0-0.066,0-0.1,0c0.167-0.101,0.383-0.217,0.65-0.351c0.566-0.333,0.933-0.6,1.1-0.8c0.467-0.667,0.233-1.233-0.7-1.7
			l0.7-0.3c0.967,0.5,1.217,1.083,0.75,1.75C83.05,34.384,82.833,34.566,82.5,34.8z M77.3,35.3c-0.067,0.033-0.117,0.066-0.15,0.101
			c-1.133,0.933-2.383,1.616-3.75,2.05c-0.066,0.033-0.117,0.05-0.15,0.05c1.133-0.434,2.184-1.05,3.15-1.85
			c0.434-0.334,0.717-0.867,0.85-1.601c0.033-0.1,0.05-0.2,0.05-0.3c0.133-0.967-0.067-1.6-0.6-1.9
			c-0.233-0.133-0.65-0.233-1.25-0.3c-0.667-0.066-1.117-0.166-1.35-0.3c-0.3-0.134-0.55-0.267-0.75-0.4
			c-0.567-0.333-0.933-0.6-1.1-0.8L72,29.6c-0.167-0.033-0.617,0.051-1.35,0.25c-0.167,0.067-0.383,0.134-0.65,0.2
			c0.567-0.2,1.033-0.35,1.4-0.45c0.2-0.033,0.417-0.1,0.65-0.199c0.233-0.067,0.466-0.084,0.7-0.051L73,29.8
			c0.233,0.3,0.85,0.7,1.85,1.2c0.233,0.134,0.683,0.233,1.35,0.3c0.6,0.066,1.017,0.167,1.25,0.3c0.533,0.301,0.733,0.934,0.6,1.9
			C77.95,34.3,77.7,34.9,77.3,35.3z M53.9,19.1c-1.367,0.533-2.333,0.95-2.9,1.25c-0.733,0.433-1.3,0.767-1.7,1
			c-0.534,0.267-1,0.45-1.4,0.55c0.2-0.066,0.417-0.167,0.65-0.3c0.4-0.233,0.966-0.567,1.7-1c0.667-0.367,1.883-0.883,3.65-1.55
			C53.934,19.017,53.967,19,54,19c-0.033-0.033-0.066-0.067-0.1-0.1c-0.3-0.267-0.767-0.467-1.4-0.6
			c-0.633-0.2-1.183-0.267-1.65-0.2l-1.55-0.25c-2.633,0-5.017-0.067-7.15-0.2c-1.066-0.033-1.633-0.05-1.7-0.05
			c-0.333,0-0.633,0.033-0.9,0.1c0-0.034,0.017-0.05,0.05-0.05c0.467-0.2,1-0.3,1.6-0.3c0.066,0,0.633,0.017,1.7,0.05
			c2.133,0.133,4.517,0.2,7.15,0.2l1.55,0.25c0.467-0.067,1.017,0,1.65,0.2c0.7,0.167,1.2,0.4,1.5,0.7
			C54.45,18.85,54.167,18.967,53.9,19.1z M50.35,22.6l-0.05-0.05c0.033,0,0.066,0,0.1,0L50.35,22.6z M55.1,20.35
			c0.233-0.1,0.467-0.2,0.7-0.3l1.3,0.75c0.333,0.333,0.583,0.517,0.75,0.55c-0.267,0.333-0.5,0.617-0.7,0.85
			c-0.2,0.233-0.383,0.433-0.55,0.6c-0.533,0.5-1.1,0.867-1.7,1.101c-0.133,0.066-0.283,0.116-0.45,0.149c0.5-0.267,0.967-0.6,1.4-1
			c0.267-0.267,0.617-0.65,1.05-1.15c0.067-0.1,0.133-0.2,0.2-0.3c-0.167-0.033-0.417-0.217-0.75-0.55L55.1,20.35z"/>
		<path style="fill-rule:evenodd;clip-rule:evenodd;fill:#3C382D;" d="M107.75,27.7c0.6-0.167,1.033-0.351,1.3-0.55l0.05-0.051
			c0.434,0.067,0.884,0.134,1.35,0.2c1.067,0.066,1.717,0.184,1.95,0.351c0.634,0.366,1.017,0.85,1.15,1.449
			c0.033,0.233,0.05,0.467,0.05,0.7c-0.066-0.133-0.167-0.233-0.3-0.3c-0.533-0.366-1.25-0.5-2.15-0.4l-0.25-1
			c-0.8-0.066-1.7,0.034-2.7,0.301C108.034,28.167,107.883,27.934,107.75,27.7z M105.05,26.8c-0.134-0.066-0.267-0.116-0.4-0.149
			c-0.833-0.233-1.483-0.317-1.95-0.25c-0.267,0.033-0.6,0.133-1,0.3c-0.033,0.033-0.066,0.05-0.1,0.05
			c-0.467,0.1-1.033,0.316-1.7,0.65c-0.6,0.333-1.083,0.583-1.45,0.75c-0.733,0.133-1.199,0.233-1.399,0.3
			c-0.033,0.033-0.05,0.066-0.05,0.1c-0.367,0.066-0.601,0.117-0.7,0.15C96.2,28.767,96.167,28.866,96.2,29
			c-0.1,0.066-0.149,0.15-0.149,0.25c-0.134,0.6-0.217,0.934-0.25,1L96.2,30.3c-0.033,0.101,0,0.25,0.101,0.45
			c-0.167,0.2-0.184,0.517-0.05,0.95c0.6,1.233,0.916,2.066,0.949,2.5l0.101,1.2c0.133,0.267,0.5,0.449,1.1,0.55
			c0.967,0.133,2.2,0.166,3.7,0.1c0.833,0,2.066-0.033,3.7-0.1h3.35c0.3,0,0.867,0.033,1.7,0.1c0.767,0.033,1.3-0.066,1.6-0.3
			c1.034-0.767,0.95-1.45-0.25-2.05c0.034-0.233,0.034-0.384,0-0.45c-0.033-0.233-0.149-0.417-0.35-0.55c0.1,0,0.2,0,0.3,0
			c0-0.066,0.017-0.134,0.05-0.2c0.267-0.066,0.5-0.083,0.7-0.05c0.033-0.167,0.05-0.316,0.05-0.45
			c0.367-0.134,0.617-0.366,0.75-0.7c0.067-0.133,0.117-0.25,0.15-0.35c0.934,0.1,2.467,0.2,4.6,0.3c2.034,0.1,3.601,0.25,4.7,0.45
			c0.334,0.033,0.834,0.184,1.5,0.45c0.267,0.033,0.5-0.017,0.7-0.15c0.267-0.167,0.45-0.267,0.55-0.3
			c0.4-0.033,0.75,0.1,1.05,0.399c0.334,0.367,0.667,0.567,1,0.601c0.601,0.066,1.084-0.101,1.45-0.5
			c-0.166,0.967-0.283,1.533-0.35,1.7c-0.3,1-0.7,1.733-1.2,2.199c-0.1,0-0.2,0-0.3,0l-0.15,0.351
			c-0.166,0.066-0.316,0.133-0.45,0.2c-0.267,0.066-1.783,0.216-4.55,0.449c-2.833,0.2-4.3,0.301-4.399,0.301
			c-0.034,0-0.067,0-0.101,0c-1-0.034-2.217-0.117-3.649-0.25c-1.601-0.2-2.817-0.351-3.65-0.45c-0.733-0.066-1.7-0.084-2.9-0.05
			c-1.533,0.033-2.517,0.05-2.949,0.05c-0.5-0.033-1.167-0.101-2-0.2c-0.934-0.134-1.601-0.217-2-0.25
			c-0.801,0.033-1.45,0.05-1.95,0.05c-0.9,0-1.5-0.149-1.8-0.45c-0.2-0.233-0.25-0.6-0.15-1.1c0.066-0.533,0.05-0.9-0.05-1.1
			c-0.167-0.301-0.417-0.434-0.75-0.4c-0.667,0-1.033,0-1.101,0c-0.333-0.066-0.733-0.267-1.199-0.6
			c-0.467-0.334-0.834-0.534-1.101-0.601c-0.2,0.4-0.333,0.667-0.399,0.8c-0.134,0.2-0.384,0.4-0.75,0.601l-0.2,0.05l-0.5,0.15
			c-0.9,0.166-1.417,0.35-1.55,0.55c-0.233,0.434,0.199,0.967,1.3,1.6c0.833,0.467,0.684,0.834-0.45,1.101
			c-0.866,0.199-2.467,0.399-4.8,0.6c-2.1,0.2-3.684,0.483-4.75,0.85l-0.65,0.4h-0.05c-1.3,0-2.367-0.1-3.2-0.3
			c-0.466-0.101-0.966-0.233-1.5-0.4c0.434-0.267,0.85-0.566,1.25-0.899c0.5-0.4,0.8-1.017,0.9-1.851c0.4-0.399,0.65-1,0.75-1.8
			c0.133-0.967-0.067-1.6-0.6-1.9c-0.233-0.133-0.65-0.233-1.25-0.3c-0.667-0.066-1.117-0.166-1.35-0.3c0.3,0.033,0.6,0.05,0.9,0.05
			c0.367,0,1.633,0,3.8,0c1,0.066,1.633,0,1.9-0.2c-2.5,0-5.033-0.583-7.6-1.75c-1.6-0.767-2.85-1.183-3.75-1.25
			c-3.6-0.267-5.667-0.433-6.2-0.5c-0.733-0.133-1.25-0.283-1.55-0.449c-0.5-0.267-0.767-0.684-0.8-1.25
			c-0.034-0.767,0.617-1.567,1.95-2.4l-0.65,0.25c-1.4,0.767-2.467,1.25-3.2,1.45c-0.933,0.133-1.716,0.25-2.35,0.35
			c-1.2,0.2-1.934,0.483-2.2,0.851c-0.133,0.166-0.183,0.517-0.15,1.05c0.033,0.5,0.117,0.833,0.25,1c0.167,0.233,0.7,0.399,1.6,0.5
			l1.9,0.2c2.467,0.6,4.283,0.916,5.45,0.949c0.9,0,2.3-0.017,4.2-0.05c0.4,0.066,0.917,0.167,1.55,0.3l-1.45,0.5
			c-0.767,0.267-1.667,0.584-2.7,0.95c-0.833,0.267-1.8,0.467-2.9,0.601c-1.667-0.867-2.867-1.434-3.6-1.7
			c-3.1-1.233-7.233-1.851-12.4-1.851c-3.733,0.167-6.817,0.301-9.25,0.4c0.5-0.533,0.75-1.217,0.75-2.05
			c-0.033-0.5-0.133-0.851-0.3-1.05c-0.167-0.233-0.5-0.45-1-0.65l-0.1-0.05c-0.133-0.566-0.283-1.25-0.45-2.05
			c-0.133-0.9-0.283-1.583-0.45-2.05c-0.3-1.5-0.817-2.383-1.55-2.65c-0.267-0.1-1.783-0.15-4.55-0.15H22.9
			c0.9-0.2,2.133-0.6,3.7-1.2c1.733-0.667,2.95-1.1,3.65-1.3c0.733-0.2,1.783-0.483,3.15-0.85c0.934-0.3,1.767-0.667,2.5-1.1
			c0.267,0,0.583,0,0.95,0c0.467-0.033,1.083-0.083,1.85-0.15c-0.033,0.133-0.184,0.483-0.45,1.05
			c-0.167,0.367-0.217,0.733-0.15,1.1c0.5,0.1,1.1,0.117,1.8,0.05c0.367,0,0.967-0.017,1.8-0.05c0.467-0.033,0.867-0.067,1.2-0.1
			c1.333,0.2,2.833,0.333,4.5,0.4c0,0.067,0.017,0.133,0.05,0.2c1.467,0.133,2.367,0.2,2.7,0.2c0.667-0.033,1.15-0.15,1.45-0.35
			h0.05c0.367,0.033,0.717,0.15,1.05,0.35c0.6,0.367,0.933,0.567,1,0.6c0.667,0.3,1.417,0.217,2.25-0.25
			c0.5-0.233,1.217-0.65,2.15-1.25c0.467-0.2,1.1-0.3,1.9-0.3c0.9,0,1.517-0.05,1.85-0.15c0.167-0.067,0.35-0.2,0.55-0.4
			c0.2-0.233,0.367-0.367,0.5-0.4c0.3-0.066,0.55,0,0.75,0.2c0.1,0.133,0.25,0.333,0.45,0.6c0.533,0.433,0.967,0.583,1.3,0.45
			c0.034,0.367,0.083,0.7,0.15,1c0.2,0.967,0.6,1.6,1.2,1.9c0.333,0.167,0.8,0.25,1.4,0.25c0.3,0,0.767,0,1.4,0
			c0.533,0.067,1.3,0.233,2.3,0.5c1.033,0.267,1.783,0.434,2.25,0.5c0.967,0.167,2.533-0.017,4.7-0.55
			c0.767-0.167,1.867-0.383,3.3-0.65c1.233-0.267,2.283-0.6,3.15-1l-0.65,0.05l1.55-0.3c0.2-0.033,1.9-0.05,5.101-0.05
			c2.1,0,3.683-0.333,4.75-1c-0.301-0.267-1.284-0.35-2.95-0.25c-1.4,0.034-2.15-0.417-2.25-1.35c-0.033-0.4,0-1.067,0.1-2
			c-0.066-0.7-0.633-1.017-1.7-0.95h-0.75c0.5,0.267,0.584,0.667,0.25,1.2c-0.233,0.4-0.866,0.667-1.899,0.8
			c-1.033,0.167-1.7,0.483-2,0.95c-0.067,0.1-0.167,0.316-0.3,0.65c-0.066,0.167-0.233,0.333-0.5,0.5
			c-0.233,0.167-0.933,0.433-2.1,0.8c-0.4,0.1-1.017,0.217-1.85,0.35c-0.8,0.1-1.4,0.217-1.8,0.35c-0.467,0.167-1.133,0.283-2,0.35
			c-1.033,0.066-1.717,0.133-2.05,0.2l0.1,0.05l-2.45-0.3c-0.133-0.2-0.517-0.433-1.15-0.7c-0.1-0.034-0.184-0.067-0.25-0.1
			c-0.5-0.2-0.833-0.45-1-0.75l-0.4-0.95c-0.167-0.833-0.05-1.4,0.35-1.7l-0.3-1.7c-1.067-1-1.783-1.9-2.15-2.7
			c-0.633-1.3-0.184-2.033,1.35-2.2c1.033-0.133,2.55-0.184,4.55-0.15c2.167,0.033,3.7,0.017,4.6-0.05
			c0.967-0.066,1.683-0.083,2.15-0.05c0.8,0.033,1.5,0.183,2.1,0.45c1,0.467,2.15,0.784,3.45,0.95c0.367,0.033,1.634,0.117,3.8,0.25
			c0.467,0.033,1.334,0.05,2.601,0.05c1.166,0,2.033,0.1,2.6,0.3c0.134,0.066,0.283,0.183,0.45,0.35c0.167,0.2,0.3,0.316,0.4,0.35
			c0.233,0.034,0.733-0.05,1.5-0.25c1.533-0.167,2.666-0.367,3.399-0.6l0.25-0.05h0.05l1-0.25L102,8.8
			c0.199,0.2,0.449,0.517,0.75,0.95c0.233,0.4,0.466,0.667,0.699,0.8l-0.1,0.25c0.134,0,0.366,0.083,0.7,0.25
			c0,0.567-0.584,1.083-1.75,1.55c-1.2,0.5-1.884,1-2.05,1.5c0.6,0.2,1.449,0.183,2.55-0.05c0.566-0.133,1.399-0.333,2.5-0.6
			c2.633-0.4,6.233-0.733,10.8-1c1.733-0.067,3.934,0.083,6.6,0.45l2.95,0.55c0.867,0.133,1.334,0.233,1.4,0.3
			c0.133,0.133,0.233,0.383,0.3,0.75c0.1,0.3,0.25,0.517,0.45,0.65c0.1,0.067,0.467,0.117,1.1,0.15c0.5,0.034,0.767,0.233,0.8,0.6
			c0.034,0.1,0,0.233-0.1,0.4c-1-0.2-1.983-0.283-2.95-0.25c-2.233,0.2-3.95,0.267-5.149,0.2c-0.767-0.067-1.817,0.017-3.15,0.25
			c-0.8,0.1-1.884,0.083-3.25-0.05l-3.25-0.3c-1.5-0.1-3.7-0.15-6.6-0.15c-0.667-0.033-1.051,0.083-1.15,0.35
			c-0.5,0.066-0.717,0.283-0.65,0.65c0.134,0.333,0.25,0.633,0.351,0.9c-0.3,0.1-0.417,0.283-0.351,0.55
			c0.034,0.066,0.067,0.15,0.101,0.25c-0.367-0.133-0.917-0.184-1.65-0.15c-0.166,0-0.333,0.017-0.5,0.05
			c-0.066-0.6-0.217-0.967-0.45-1.1c-0.166-0.1-0.633-0.15-1.399-0.15c-0.733,0-1.7,0.117-2.9,0.35c-1.267,0.267-2.2,0.417-2.8,0.45
			c0.033,0.033,0.066,0.083,0.1,0.15c-0.066,0-0.133,0.017-0.199,0.05c-0.233-0.033-0.417-0.017-0.551,0.05c-0.033,0-0.066,0-0.1,0
			l0.05,0.05c-0.066,0-0.116,0.017-0.149,0.05c-0.134,0.167-0.2,0.467-0.2,0.9c0.033,0.434,0.116,0.7,0.25,0.8l0.35,0.1
			c0.066,0.067,0.15,0.15,0.25,0.25c-0.5,0.434-0.816,0.817-0.95,1.15c0.733,0.4,1.733,0.767,3,1.1
			c-0.466,0.267-0.716,0.533-0.75,0.8l0.101,0.051c-0.167,0.066-0.233,0.133-0.2,0.199c0.066,0.101,0.3,0.217,0.7,0.351
			c0.7,0.267,1.85,0.533,3.45,0.8c1.733,0.467,3.1,0.684,4.1,0.65c0.5,0,1.233,0.017,2.2,0.05c0.066,0.066,0.133,0.116,0.2,0.149
			c0.267,0.167,0.583,0.334,0.949,0.5c-0.1,0-0.183,0.017-0.25,0.051C105.767,26.533,105.383,26.667,105.05,26.8z M91.3,25.2l-1,0.3
			c-0.434,0.134-0.617,0.333-0.55,0.6c1.6,0.334,2.383,0.034,2.35-0.899H91.3z M91.55,30.2c0.467,0.166,0.95,0.233,1.45,0.2
			c0.633,0,1.033-0.184,1.199-0.551l-0.55-0.5c-0.399-0.066-0.816-0.017-1.25,0.15C91.867,29.634,91.583,29.866,91.55,30.2z
			 M37.65,20.45c-0.066,0.133-0.117,0.267-0.15,0.4c-0.1,0.7,0.067,1.133,0.5,1.3c0.167,0.067,0.684,0.1,1.55,0.1
			c-1.034,0.4-1.883,0.567-2.55,0.5l2.65,1.2c0.133,0.133,0.25,0.399,0.35,0.8c0.1,0.333,0.233,0.583,0.4,0.75
			c0.267,0.267,0.7,0.417,1.3,0.45c0.3,0,0.767-0.017,1.4-0.05c2.3,0,3.767-0.317,4.4-0.95c0-0.032-0.017-0.049-0.05-0.05
			c0.267,0,0.484,0.084,0.65,0.25c0.2,0.166,0.367,0.449,0.5,0.85c0.1,0.3,0.3,0.533,0.6,0.7c0.6,0.3,1.417,0.483,2.45,0.55
			c0.934,0.066,1.767,0.033,2.5-0.1c0.034-0.101,0.35-0.767,0.95-2l0.05-0.051c0.233-0.166,0.467-0.366,0.7-0.6
			c0.3-0.3,0.717-0.783,1.25-1.45c-0.1-0.033-0.233-0.1-0.4-0.2l0.15-0.1c0,0.133,0.067,0.183,0.2,0.15
			c0.233-0.2,0.267-0.433,0.1-0.7c0.2-0.233,0.434-0.517,0.7-0.85c-0.167-0.033-0.417-0.217-0.75-0.55l-1.3-0.75
			c-0.233,0.1-0.467,0.2-0.7,0.3l-0.05-0.05c-0.2,0.067-0.383,0.15-0.55,0.25c-0.066-0.367-0.267-0.65-0.6-0.85v-0.6
			c0.267-0.133,0.55-0.25,0.85-0.35c-0.3-0.3-0.8-0.533-1.5-0.7c-0.633-0.2-1.183-0.267-1.65-0.2l-1.55-0.25
			c-2.633,0-5.017-0.067-7.15-0.2c-1.066-0.033-1.633-0.05-1.7-0.05c-0.6,0-1.133,0.1-1.6,0.3c-0.033,0-0.05,0.017-0.05,0.05
			c-0.267,0.033-0.5,0.1-0.7,0.2c-0.767,0.4-1.217,0.883-1.35,1.45C37.434,19.817,37.483,20.183,37.65,20.45z M133.2,20
			c0.7-0.767,1.567-1.25,2.601-1.45c0.767-0.167,1.883-0.183,3.35-0.05c0.367,0.033,0.717,0.083,1.05,0.15
			c-0.333-0.033-0.683-0.066-1.05-0.1C136.417,18.283,134.433,18.767,133.2,20z M53.05,6.25c0.3-0.1,0.583-0.233,0.85-0.4l0.3,0.05
			c1.5,0.067,2.617,0.317,3.35,0.75C57.283,6.617,57.033,6.6,56.8,6.6l-1.3-0.5C54.6,6.167,53.783,6.217,53.05,6.25z M109.85,14.95
			c0.333-0.034,0.684-0.133,1.05-0.3c0.434-0.2,0.617-0.433,0.55-0.7c-0.066-0.3-0.5-0.517-1.3-0.65c-0.6-0.1-1.133-0.133-1.6-0.1
			l-1.3,0.75c-0.634-0.034-1.101-0.034-1.4,0c-0.566,0.033-0.884,0.267-0.95,0.7c0.467,0.067,1.167,0.083,2.101,0.05
			c0.267,0,0.75,0.05,1.449,0.15C109.05,14.95,109.517,14.983,109.85,14.95z M116.1,14.9l-0.8,0.5c-0.2-0.1-0.351-0.066-0.45,0.1
			c0.366,0.5,1.2,0.617,2.5,0.35c0.134-0.3,0.033-0.533-0.3-0.7C116.784,14.983,116.466,14.9,116.1,14.9z M91.6,11.05
			c-0.134,0.367,0.017,0.667,0.45,0.9l1.05,0.55c0.267,0.267,0.517,0.567,0.75,0.9c0.267,0.233,0.733,0.333,1.4,0.3L96,13.45
			c-0.267,0.066-0.517,0.05-0.75-0.05c0.1-0.9-0.267-1.566-1.101-2C93.45,11.067,92.6,10.95,91.6,11.05z M83.65,11.35
			c0.467,0.267,1.6,0.3,3.4,0.1c0.133-0.3,0.166-0.617,0.1-0.95c-0.267-0.133-1.149-0.283-2.65-0.45l-0.75,0.5
			c0.267-0.267,0.267-0.45,0-0.55c-0.4,0.033-0.583,0.233-0.55,0.6C83.2,10.9,83.35,11.15,83.65,11.35z M82.95,23.45
			c-0.067,0.666-0.434,1.083-1.1,1.25c-0.933,0.267-1.5,0.483-1.7,0.649l1.9,0.551c0.733,0.3,1.117,0.716,1.15,1.25
			c0.033,0.333-0.1,0.666-0.4,1c-0.367,0.333-0.567,0.633-0.6,0.899c0.367,0.066,0.733,0.05,1.1-0.05c0.2-0.1,0.517-0.233,0.95-0.4
			c0.467-0.1,0.9-0.183,1.3-0.25c0.2-0.066,0.399-0.383,0.6-0.949c0.367-1,1.05-1.684,2.05-2.051c0.367-0.1,0.867-0.25,1.5-0.449
			c0.467-0.233,0.65-0.7,0.551-1.4l-0.5-0.75c-0.4,0.333-1.101,0.434-2.101,0.3c-0.733-0.1-1.434-0.283-2.1-0.55
			c-1.6-0.733-3.617-1.133-6.05-1.2c0.934,0.067,1.717,0.25,2.35,0.55C82.684,22.25,83.05,22.783,82.95,23.45z M81.4,12.15
			c-0.433-0.333-1.05-0.467-1.85-0.4L78,10.55c-1.767-0.133-3.133-0.183-4.1-0.15c-1.667,0.067-2.8,0.55-3.4,1.45
			c-0.267,0.367-0.417,0.667-0.45,0.9c-0.067,0.233-0.034,0.533,0.1,0.9c0.3,0.3,0.483,0.567,0.55,0.8
			c0,0.533,0.017,0.917,0.05,1.15c0.3,0,0.75,0.05,1.35,0.15c0.633,0.1,1.117,0.15,1.45,0.15c1.933,0,3.383-0.066,4.35-0.2
			c1.333-0.167,2.15-0.3,2.45-0.4c0.867-0.3,1.383-0.833,1.55-1.6C82.067,13,81.9,12.483,81.4,12.15z M99.7,26.65
			c-0.033-0.634-0.633-1.117-1.8-1.45c-0.899-0.233-1.783-0.316-2.649-0.25l-1.351,0.5c-0.233,0.133-0.45,0.416-0.649,0.85
			c-0.233,0.467-0.267,0.816-0.101,1.05c0.267,0.367,1.066,0.517,2.4,0.45c0.7,0,1.583-0.05,2.649-0.149
			c0.634-0.034,1-0.067,1.101-0.101C99.6,27.417,99.734,27.116,99.7,26.65z M83.35,30.75c-0.133,0.4,0.183,0.65,0.95,0.75
			c1.633,0.233,2.399-0.25,2.3-1.45h-2.1C83.833,30.116,83.45,30.35,83.35,30.75z M78.05,35.35c-0.633,0.601-0.667,1.15-0.1,1.65
			l0.1-0.15c0.033,0.101,0.333,0.217,0.9,0.351c0.533,0.133,0.883,0.2,1.05,0.2c0.267-0.034,0.7-0.233,1.3-0.601
			c0.6-0.366,0.966-0.649,1.1-0.85c0.267-0.367,0.3-0.7,0.1-1c0-0.066,0-0.117,0-0.15c0.333-0.233,0.55-0.416,0.65-0.55
			c0.467-0.667,0.217-1.25-0.75-1.75l-0.7,0.3l-0.05-0.05l-2.6,1c-0.034,0.066-0.25,0.333-0.65,0.8
			C78.1,34.884,77.983,35.15,78.05,35.35z M69,21.15c-0.566,0.1-0.967,0.217-1.2,0.35c-0.2,0.1-0.7,0.517-1.5,1.25
			c-0.733,0.5-1.25,0.9-1.55,1.2c-0.6,0.566-0.767,1.133-0.5,1.7c1.167,0.133,2.633,0.1,4.4-0.101c1-0.133,2.467-0.316,4.4-0.55
			c0.533-0.033,1.283-0.066,2.25-0.1c0.8-0.034,1.5-0.184,2.1-0.45c1.267-0.434,1.983-0.75,2.15-0.95c0.7-0.967-0.017-1.633-2.15-2
			c-1.7-0.3-3.066-0.367-4.1-0.2l-3.15-0.5C69.917,20.933,69.533,21.05,69,21.15z M46.4,23.8l-0.15,0.4
			c-0.167-0.101-0.35-0.184-0.55-0.25c-0.2-0.066-0.383-0.15-0.55-0.25C45.617,23.767,46.033,23.8,46.4,23.8z M78.25,25.65
			c-2.033,0.1-3.167,0.166-3.4,0.199c-1.7,0.233-2.367,0.667-2,1.301c0.233,0.399,1.867,0.483,4.9,0.25
			c0.6-0.034,1.067-0.15,1.4-0.351c0.233-0.133,0.633-0.434,1.2-0.899L78.25,25.65z"/>
		<path style="fill-rule:evenodd;clip-rule:evenodd;fill:#85847E;" d="M73.25,37.5c-0.2,0.066-0.4,0.134-0.6,0.2
			c-1.566,0.467-2.983,0.517-4.25,0.149c-1.8-0.566-3.466-1.233-5-2c-1.3-0.699-2.566-1.3-3.8-1.8c-0.333-0.133-0.667-0.267-1-0.399
			c-0.833-0.334-1.35-0.617-1.55-0.851c0.267-0.033,0.583-0.05,0.95-0.05c0.9-0.1,2.067-0.2,3.5-0.3c0.567-0.066,1.1-0.134,1.6-0.2
			c1-0.167,1.883-0.4,2.65-0.7c1.033-0.366,1.934-0.684,2.7-0.95l1.45-0.5l0.1-0.05c0.267-0.066,0.483-0.133,0.65-0.2
			c0.733-0.199,1.184-0.283,1.35-0.25l0.25,0.45c0.167,0.2,0.533,0.467,1.1,0.8c0.2,0.134,0.45,0.267,0.75,0.4
			c0.233,0.134,0.683,0.233,1.35,0.3c0.6,0.066,1.017,0.167,1.25,0.3c0.533,0.301,0.733,0.934,0.6,1.9c0,0.1-0.017,0.2-0.05,0.3
			c-0.133,0.733-0.417,1.267-0.85,1.601C75.434,36.45,74.383,37.066,73.25,37.5z M103.45,22c0.267-0.667,0.45-1.3,0.551-1.9
			c0.066-0.5,0.066-0.967,0-1.4c-0.034-0.233-0.101-0.5-0.2-0.8c-0.101-0.267-0.217-0.566-0.351-0.9
			c-0.066-0.367,0.15-0.583,0.65-0.65c0.134-0.033,0.316-0.05,0.55-0.05c1.434,0.034,3.634,0.083,6.601,0.15
			c0.666,0.066,1.75,0.183,3.25,0.35c1.333,0.133,2.399,0.133,3.199,0c1.467-0.2,2.534-0.283,3.2-0.25c1.2,0.1,2.917,0.05,5.15-0.15
			c1.467-0.066,2.767,0.1,3.899,0.5c0.267,0.067,0.75,0.184,1.45,0.35c0.634,0.2,1.017,0.45,1.15,0.75
			c0.1,0.167,0.05,0.733-0.15,1.7c-0.267,1.9-0.95,4.149-2.05,6.75l-0.2,0.55l-0.1,0.15c-0.134,0-0.25,0-0.351,0
			c-0.166,0.033-0.333,0.083-0.5,0.149c-0.063,0.031-0.112,0.064-0.149,0.101H129c-0.301,0.1-0.483,0.166-0.551,0.199
			c-0.3,0.067-0.783,0.051-1.449-0.05c-0.7-0.1-1.184-0.149-1.45-0.149c-1.267,0.199-2.25,0.316-2.95,0.35
			c-1.333,0.066-2.316,0.1-2.95,0.1c-1.166,0.067-2.166,0.051-3-0.05c-0.733-0.066-1.55-0.467-2.45-1.2
			c-1-0.833-1.783-1.316-2.35-1.449c-2.066-0.4-3.6-0.784-4.6-1.15c-0.9-0.267-1.584-0.5-2.051-0.7
			c-0.899-0.333-1.55-0.65-1.949-0.95C103.317,22.217,103.383,22.1,103.45,22z M100.2,22.05c-0.366,0.267-0.949,0.317-1.75,0.15
			c-0.833-0.2-1.517-0.483-2.05-0.85c-0.899-0.633-1.366-0.967-1.399-1c-0.434-0.4-0.784-0.717-1.051-0.95
			c-0.433-0.4-0.699-0.717-0.8-0.95L93.1,18.4c0.033,0,0.066,0,0.1,0c0.134-0.066,0.317-0.083,0.551-0.05
			c0.066-0.033,0.133-0.05,0.199-0.05c0.534-0.066,1.184-0.183,1.95-0.35c1.2-0.233,2.167-0.35,2.9-0.35
			c0.767,0,1.233,0.05,1.399,0.15c0.233,0.133,0.384,0.517,0.45,1.15v2.6l-0.25,0.25C100.333,21.85,100.267,21.95,100.2,22.05z
			 M97,28.55c0.233-0.066,0.517-0.133,0.85-0.2c0.134-0.033,0.333-0.1,0.6-0.199c0.367-0.167,0.851-0.417,1.45-0.75
			c0.667-0.334,1.233-0.551,1.7-0.65c0.033,0,0.066-0.017,0.1-0.05c0.101-0.033,0.184-0.05,0.25-0.05
			c0.467-0.067,1.117,0.017,1.95,0.25c0.967,0.267,1.467,0.583,1.5,0.949h1.55c0.7,1.233,1.351,2.034,1.95,2.4
			c0.3,0.2,0.75,0.366,1.351,0.5c0.699,0.134,1.149,0.25,1.35,0.35c0.366,0.167,0.566,0.384,0.6,0.65c0.034,0.1,0.034,0.35,0,0.75
			c-0.033,0.066-0.05,0.134-0.05,0.2c-0.1,0-0.2,0-0.3,0c-0.333,0-0.717,0.066-1.15,0.2c-0.833,0.199-1.316,0.316-1.449,0.35
			c-0.867,0.167-1.983,0.25-3.351,0.25c-1.666,0.033-2.916,0.066-3.75,0.1c-1.5,0.034-2.75-0.017-3.75-0.149
			c-0.133-1.167-0.717-2.384-1.75-3.65c-0.267-0.333-0.416-0.6-0.45-0.8c-0.033-0.134,0-0.233,0.101-0.3
			C96.4,28.667,96.633,28.616,97,28.55z M80.65,35.65c-0.3,0.133-0.517,0.216-0.65,0.25c-0.133,0.033-0.483-0.017-1.05-0.15
			c-0.567-0.134-0.867-0.25-0.9-0.35V35.35c-0.067-0.199,0.05-0.466,0.35-0.8c0.4-0.467,0.617-0.733,0.65-0.8l2.6-1l0.05,0.05
			c0.933,0.467,1.167,1.033,0.7,1.7c-0.167,0.2-0.533,0.467-1.1,0.8C81.033,35.434,80.817,35.55,80.65,35.65z M63.95,10.05
			c-0.733,0.3-1.617,0.467-2.65,0.5c-0.7-0.033-1.217-0.05-1.55-0.05c-0.367,0.033-0.7,0.083-1,0.15c-0.2,0-0.383,0.033-0.55,0.1
			c-0.267,0.133-0.55,0.317-0.85,0.55c-0.467,0.4-0.717,0.617-0.75,0.65c-0.433,0.3-0.933,0.566-1.5,0.8
			c-1.733,0.633-4.15,0.95-7.25,0.95c-0.967,0-1.7-0.1-2.2-0.3c-0.433-0.167-1.05-0.566-1.85-1.2c-0.534-0.434-0.917-0.75-1.15-0.95
			c-0.367-0.333-0.6-0.717-0.7-1.15c0-0.067,0-0.117,0-0.15c-0.1-0.5-0.083-1.2,0.05-2.1c0.067-0.5,0.133-0.8,0.2-0.9
			c0.1-0.133,0.417-0.25,0.95-0.35c0-0.033,0.017-0.05,0.05-0.05s0.066,0,0.1,0c1.066-0.267,1.85-0.4,2.35-0.4
			c1.034-0.066,2.333,0.017,3.9,0.25c1.1,0.133,2.833,0.117,5.2-0.05l1.3,0.5c1.6,0,3.117,0.3,4.55,0.9
			c0.067,0.033,0.167,0.133,0.3,0.3c0.133,0.167,0.267,0.267,0.4,0.3c0.167,0.066,0.517,0.05,1.05-0.05
			c1.767,0.267,2.767,0.517,3,0.75C64.983,9.45,64.517,9.783,63.95,10.05z M47.9,21.9c-0.466,0.2-0.883,0.317-1.25,0.35
			c-0.833,0.167-2-0.017-3.5-0.55c-1.633-0.6-2.816-0.9-3.55-0.9c-0.9,0-1.433-0.033-1.6-0.1c-0.133-0.067-0.25-0.15-0.35-0.25
			c-0.167-0.267-0.216-0.633-0.15-1.1c0.133-0.567,0.583-1.05,1.35-1.45c0.2-0.1,0.433-0.167,0.7-0.2c0.267-0.067,0.566-0.1,0.9-0.1
			c0.066,0,0.633,0.017,1.7,0.05c2.133,0.133,4.517,0.2,7.15,0.2l1.55,0.25c0.467-0.067,1.017,0,1.65,0.2
			c0.633,0.133,1.1,0.333,1.4,0.6c0.034,0.033,0.067,0.067,0.1,0.1c-0.033,0-0.066,0.017-0.1,0.05
			c-1.767,0.667-2.983,1.184-3.65,1.55c-0.733,0.433-1.3,0.767-1.7,1C48.317,21.733,48.1,21.833,47.9,21.9z M55.1,20.35l1.25,0.7
			c0.333,0.333,0.583,0.517,0.75,0.55c-0.067,0.1-0.133,0.2-0.2,0.3c-0.433,0.5-0.783,0.883-1.05,1.15c-0.433,0.4-0.9,0.733-1.4,1
			c-0.1,0.033-0.2,0.066-0.3,0.101c-0.6,0.233-1.417,0.216-2.45-0.051c-1.1-0.267-1.8-0.683-2.1-1.25l-0.05-0.05
			c0.033,0,0.083,0,0.15,0c0.167-0.033,0.383-0.1,0.65-0.2l0.05-0.05c0.133-0.1,0.3-0.2,0.5-0.3c0.067-0.033,0.133-0.067,0.2-0.1
			c0.267-0.167,0.6-0.383,1-0.65c0.333-0.167,1.05-0.45,2.15-0.85c0.067-0.066,0.15-0.1,0.25-0.1c0.167-0.1,0.35-0.183,0.55-0.25
			L55.1,20.35z"/>
		<path style="fill-rule:evenodd;clip-rule:evenodd;fill:#484336;" d="M51.6,16.2c-0.3,0.2-0.783,0.316-1.45,0.35
			c-0.333,0-1.233-0.066-2.7-0.2c-0.033-0.067-0.05-0.133-0.05-0.2c0.867,0.033,1.784,0.05,2.75,0.05H51.6z M109.85,14.95
			c-0.333,0.033-0.8,0-1.4-0.1c-0.699-0.1-1.183-0.15-1.449-0.15c-0.934,0.033-1.634,0.017-2.101-0.05
			c0.066-0.433,0.384-0.667,0.95-0.7c0.3-0.034,0.767-0.034,1.4,0l1.3-0.75c0.467-0.034,1,0,1.6,0.1c0.8,0.133,1.233,0.35,1.3,0.65
			c0.067,0.267-0.116,0.5-0.55,0.7C110.534,14.817,110.183,14.917,109.85,14.95z M83.65,11.35c-0.3-0.2-0.45-0.45-0.45-0.75
			c-0.033-0.367,0.15-0.567,0.55-0.6c0.267,0.1,0.267,0.283,0,0.55l0.75-0.5c1.5,0.167,2.383,0.317,2.65,0.45
			c0.066,0.333,0.033,0.65-0.1,0.95C85.25,11.65,84.117,11.617,83.65,11.35z M91.6,11.05c1-0.1,1.85,0.017,2.55,0.35
			c0.834,0.434,1.2,1.1,1.101,2c0.233,0.1,0.483,0.117,0.75,0.05l-0.75,0.25c-0.667,0.033-1.134-0.067-1.4-0.3
			c-0.233-0.333-0.483-0.633-0.75-0.9l-1.05-0.55C91.617,11.717,91.466,11.417,91.6,11.05z M116.1,14.9
			c0.366,0,0.684,0.083,0.95,0.25c0.333,0.167,0.434,0.4,0.3,0.7c-1.3,0.267-2.134,0.15-2.5-0.35c0.1-0.167,0.25-0.2,0.45-0.1
			L116.1,14.9z M99.7,26.65c0.034,0.466-0.1,0.767-0.399,0.899c-0.101,0.033-0.467,0.066-1.101,0.101
			c-1.066,0.1-1.949,0.149-2.649,0.149c-1.334,0.066-2.134-0.083-2.4-0.45c-0.166-0.233-0.133-0.583,0.101-1.05
			c0.199-0.434,0.416-0.717,0.649-0.85l1.351-0.5c0.866-0.066,1.75,0.017,2.649,0.25C99.067,25.533,99.667,26.017,99.7,26.65z
			 M81.4,12.15c0.5,0.333,0.667,0.85,0.5,1.55c-0.167,0.767-0.683,1.3-1.55,1.6c-0.3,0.1-1.117,0.233-2.45,0.4
			c-0.966,0.133-2.417,0.2-4.35,0.2c-0.333,0-0.817-0.05-1.45-0.15c-0.6-0.1-1.05-0.15-1.35-0.15c-0.033-0.233-0.05-0.617-0.05-1.15
			c-0.067-0.233-0.25-0.5-0.55-0.8c-0.133-0.367-0.167-0.667-0.1-0.9c0.033-0.233,0.183-0.533,0.45-0.9
			c0.6-0.9,1.733-1.383,3.4-1.45c0.967-0.033,2.333,0.017,4.1,0.15l1.55,1.2C80.35,11.683,80.967,11.817,81.4,12.15z M83.35,30.75
			c0.1-0.4,0.483-0.634,1.15-0.7h2.1c0.1,1.2-0.667,1.684-2.3,1.45C83.533,31.4,83.217,31.15,83.35,30.75z M69,21.15
			c0.533-0.1,0.917-0.217,1.15-0.35l3.15,0.5c1.033-0.167,2.4-0.1,4.1,0.2c2.133,0.367,2.85,1.033,2.15,2
			c-0.167,0.2-0.883,0.517-2.15,0.95c-0.6,0.267-1.3,0.416-2.1,0.45c-0.967,0.033-1.717,0.066-2.25,0.1
			c-1.934,0.233-3.4,0.417-4.4,0.55c-1.767,0.2-3.233,0.233-4.4,0.101c-0.267-0.567-0.1-1.134,0.5-1.7c0.3-0.3,0.817-0.7,1.55-1.2
			c0.8-0.733,1.3-1.15,1.5-1.25C68.033,21.367,68.434,21.25,69,21.15z M53.9,19.7c0.333,0.2,0.534,0.483,0.6,0.85
			c-0.1,0-0.183,0.034-0.25,0.1c-0.1-0.066-0.2-0.1-0.3-0.1c0-0.033,0.017-0.05,0.05-0.05c-0.066-0.067-0.117-0.117-0.15-0.15h0.05
			V19.7z M78.25,25.65l2.1,0.5c-0.567,0.466-0.967,0.767-1.2,0.899c-0.333,0.2-0.8,0.316-1.4,0.351
			c-3.033,0.233-4.667,0.149-4.9-0.25c-0.367-0.634,0.3-1.067,2-1.301C75.083,25.816,76.217,25.75,78.25,25.65z"/>
	</g>
</g>
</svg>
