<?xml version="1.0" encoding="iso-8859-1"?>
<!-- Generator: Adobe Illustrator 16.0.0, SVG Export Plug-In . SVG Version: 6.00 Build 0)  -->
<!DOCTYPE svg PUBLIC "-//W3C//DTD SVG 1.1//EN" "http://www.w3.org/Graphics/SVG/1.1/DTD/svg11.dtd">
<svg version="1.1" id="FlashAICB" xmlns="http://www.w3.org/2000/svg" xmlns:xlink="http://www.w3.org/1999/xlink" x="0px" y="0px"
	 width="168.934px" height="69.983px" viewBox="0 0 168.934 69.983" style="enable-background:new 0 0 168.934 69.983;"
	 xml:space="preserve">
<g>
	<g>
		<path style="fill-rule:evenodd;clip-rule:evenodd;fill:#515046;" d="M163.05,26.25c0.233,0.333,0.434,0.8,0.601,1.4
			c0.3,0.934,0.449,1.95,0.449,3.05c-0.033,0.433-0.05,0.767-0.05,1c-0.033,0.433-0.017,0.767,0.05,1
			c0.134,0.333,0.4,0.633,0.801,0.9c0.466,0.3,0.75,0.517,0.85,0.65c0.233,0.333,0.417,0.767,0.55,1.3
			c0.2,1.601,0.384,2.8,0.55,3.601c0.067,0.366,0.2,1.649,0.4,3.85c0.134,1.634,0.417,2.866,0.85,3.7
			c0.4,0.267,0.65,0.733,0.75,1.399c0.167,1.267,0.084,2.4-0.25,3.4c-0.166,0.467-0.616,1.1-1.35,1.9
			c-0.733,0.733-1.184,1.35-1.35,1.85c-0.034,0.134-0.051,0.733-0.051,1.8c0,2.934,0.067,4.816,0.2,5.65
			c0.367,2.866,0.45,4.95,0.25,6.25c-1.133,0.066-2.05-0.033-2.75-0.3c-0.767-0.301-2.166-0.617-4.2-0.95
			c-0.233-0.033-0.899-0.184-2-0.45c-0.767-0.2-1.449-0.3-2.05-0.3c-0.467-0.033-1.05-0.134-1.75-0.3
			c-0.833-0.233-1.434-0.367-1.8-0.4c-0.866-0.1-1.9-0.017-3.1,0.25c-0.4,0.1-1.117,0.2-2.15,0.3c-0.934,0.101-1.667,0.25-2.2,0.45
			c-0.566,0.2-1.133,0.566-1.7,1.1c-0.767,0.7-1.283,1.134-1.55,1.301c-0.566,0.333-1.267,0.416-2.1,0.25
			c-0.267-0.067-0.967-0.301-2.101-0.7c-1.166-0.4-2.35-1.134-3.55-2.2c-0.6-0.533-1-0.85-1.2-0.95
			c-0.366-0.233-0.833-0.366-1.399-0.399c-0.867,0-2.117,0.133-3.75,0.399c-1.667,0.267-2.9,0.4-3.7,0.4
			c-0.733,0.033-1.467-0.233-2.2-0.8c-0.899-0.667-1.583-1.067-2.05-1.2c-0.1-0.033-0.684-0.05-1.75-0.05
			c-4.066,0.1-6.566,0.199-7.5,0.3l-3.3,0.45c-3.566,0.666-6.017,1.35-7.351,2.05c-0.333,0.2-0.8,0.467-1.399,0.8
			c-0.533,0.233-1.05,0.283-1.55,0.15c-0.5-0.101-1.25-0.334-2.25-0.7c-0.9-0.167-2.117-0.584-3.65-1.25
			c-1.667-0.767-2.884-1.25-3.65-1.45c-0.8-0.233-2-0.35-3.6-0.35c-1.833,0-4.567-0.15-8.2-0.45c-3.833-0.233-8.833-0.267-15-0.101
			c-8.133,0.2-13.133,0.301-15,0.301c-3.433,0-5.867,0.267-7.3,0.8c-0.6,0.233-1.667,1.033-3.2,2.399
			c-1.233,1.101-2.433,1.634-3.6,1.601c-1.034-0.033-2.25-0.316-3.65-0.851c-0.6-0.267-1.733-0.8-3.4-1.6
			c-1.1-0.566-2.583-0.9-4.45-1c-1.034-0.033-2.567-0.083-4.6-0.15c-0.7-0.066-3.033-0.233-7-0.5c-3.133-0.533-4.867-1.5-5.2-2.899
			c0.5,0.233,1.05,0.35,1.65,0.35H4.2c0.233,0.2,0.633,0.351,1.2,0.45c1.067,0.1,1.733,0.167,2,0.2c2.3,0.6,4.05,0.934,5.25,1
			c2.533,0.366,4.467,0.55,5.8,0.55c2.167-0.1,3.466-0.116,3.9-0.05c2.033,0.333,3.683,0.717,4.95,1.149
			c1,0.334,2.184,0.384,3.55,0.15c0.6-0.134,1.783-0.467,3.55-1c3.1-1,7.5-1.5,13.2-1.5C59.733,63.083,68.833,63,74.9,63
			c5.967-0.167,10.433-0.25,13.4-0.25c1.634,0,4.084,0.134,7.351,0.4c3.233,0.233,5.666,0.35,7.3,0.35
			c3.066-0.066,5.066-0.184,6-0.35c2.866-0.467,5.366-0.75,7.5-0.851h2.75c0.399,0.066,0.85,0.184,1.35,0.351
			c0.334,0.133,0.684,0.216,1.05,0.25c0.4,0.033,0.733,0.05,1,0.05c1.301,0.166,2.467,0.166,3.5,0c2.934-0.434,5.834-0.017,8.7,1.25
			c0.9,0.467,1.566,0.783,2,0.95c0.733,0.267,1.467,0.383,2.2,0.35c0.7-0.033,1.616-0.267,2.75-0.7
			c1.167-0.434,2.05-0.684,2.65-0.75c2.633-0.399,4.616-0.649,5.949-0.75c1.867-0.166,3.967-0.2,6.301-0.1
			c1.066,0.066,2.066,0.217,3,0.45c0.366,0.133,0.649,0.216,0.85,0.25c0.3,0.1,0.566,0.116,0.8,0.05
			c0.033-0.134,0.05-0.283,0.05-0.45c0.733-0.1,1.15-0.184,1.25-0.25c0.167-0.134,0.25-0.55,0.25-1.25c0-1.233,0.134-2.3,0.4-3.2
			c0.167-0.566,0.533-1.583,1.1-3.05c0.167-0.434,0.101-1.417-0.199-2.95c-0.267-1.467-0.284-2.399-0.051-2.8
			c0.2-0.333,0.184-0.917-0.05-1.75c-0.3-1-0.45-1.583-0.45-1.75c0-0.2,0.101-0.95,0.301-2.25c0.166-1,0.166-1.7,0-2.1
			c-0.267-0.767-0.367-1.801-0.301-3.101c0.067-1.633,0.067-2.684,0-3.15c-0.333-3.3-0.517-5.9-0.55-7.8
			C163.05,27.633,163.05,27.017,163.05,26.25z M163.1,20.85c0-0.2,0-0.417,0-0.65c0-0.934-0.116-2.333-0.35-4.2
			c-0.267-1.833-0.4-3.233-0.4-4.2c0-0.833-0.083-2.083-0.25-3.75c-0.033-0.367-0.066-0.716-0.1-1.05V4.75V4.1
			c0-0.067,0-0.117,0-0.15c0.2,0.466,0.366,1.117,0.5,1.95c0.134,1.133,0.233,1.917,0.3,2.35c0.066,0.533,0.351,2.067,0.851,4.6
			c0.366,1.833,0.517,3.35,0.449,4.55c-0.033,0.7-0.316,1.717-0.85,3.05C163.184,20.583,163.134,20.717,163.1,20.85z"/>
		<path style="fill-rule:evenodd;clip-rule:evenodd;fill:#8A8E71;" d="M157.3,0.8H4.4H4.05C2.95,0.8,2,1.2,1.2,2
			C0.433,2.767,0.033,3.683,0,4.75V4.1C0,2.967,0.4,2,1.2,1.2C2,0.4,2.95,0,4.05,0H158c1.1,0,2.05,0.4,2.85,1.2
			c0.733,0.767,1.117,1.683,1.15,2.75c0,0.033,0,0.083,0,0.15v0.65c-0.033-1.067-0.417-1.983-1.15-2.75c-0.8-0.8-1.75-1.2-2.85-1.2
			H157.3z"/>
		<path style="fill-rule:evenodd;clip-rule:evenodd;fill:#3A3932;" d="M119.2,62.3H158c0.3,0,0.583-0.017,0.85-0.05
			c0.2,0.134,0.367,0.233,0.5,0.3l0.051-0.45c0.533-0.233,1.017-0.566,1.449-1c0.767-0.8,1.15-1.75,1.15-2.85V7
			c0.033,0.333,0.066,0.683,0.1,1.05c0.167,1.667,0.25,2.917,0.25,3.75c0,0.967,0.134,2.367,0.4,4.2
			c0.233,1.867,0.35,3.267,0.35,4.2c0,0.233,0,0.45,0,0.65c-0.033,2.267-0.05,4.066-0.05,5.4c0,0.767,0,1.383,0,1.85
			c0.033,1.9,0.217,4.5,0.55,7.8c0.067,0.466,0.067,1.517,0,3.15c-0.066,1.3,0.034,2.334,0.301,3.101c0.166,0.399,0.166,1.1,0,2.1
			c-0.2,1.3-0.301,2.05-0.301,2.25c0,0.167,0.15,0.75,0.45,1.75c0.233,0.833,0.25,1.417,0.05,1.75c-0.233,0.4-0.216,1.333,0.051,2.8
			c0.3,1.533,0.366,2.517,0.199,2.95c-0.566,1.467-0.933,2.483-1.1,3.05c-0.267,0.9-0.4,1.967-0.4,3.2c0,0.7-0.083,1.116-0.25,1.25
			c-0.1,0.066-0.517,0.15-1.25,0.25c0,0.167-0.017,0.316-0.05,0.45c-0.233,0.066-0.5,0.05-0.8-0.05
			c-0.2-0.034-0.483-0.117-0.85-0.25c-0.934-0.233-1.934-0.384-3-0.45c-2.334-0.101-4.434-0.066-6.301,0.1
			c-1.333,0.101-3.316,0.351-5.949,0.75c-0.601,0.066-1.483,0.316-2.65,0.75c-1.134,0.434-2.05,0.667-2.75,0.7
			c-0.733,0.033-1.467-0.083-2.2-0.35c-0.434-0.167-1.1-0.483-2-0.95c-2.866-1.267-5.767-1.684-8.7-1.25
			c-1.033,0.166-2.199,0.166-3.5,0c-0.267,0-0.6-0.017-1-0.05c-0.366-0.034-0.716-0.117-1.05-0.25
			C120.05,62.483,119.6,62.366,119.2,62.3z M4.2,62.3h112.25c-2.134,0.101-4.634,0.384-7.5,0.851c-0.934,0.166-2.934,0.283-6,0.35
			c-1.634,0-4.066-0.116-7.3-0.35c-3.267-0.267-5.717-0.4-7.351-0.4c-2.967,0-7.433,0.083-13.4,0.25
			c-6.066,0-15.167,0.083-27.3,0.25c-5.7,0-10.1,0.5-13.2,1.5c-1.767,0.533-2.95,0.866-3.55,1c-1.367,0.233-2.55,0.184-3.55-0.15
			c-1.267-0.433-2.917-0.816-4.95-1.149c-0.434-0.066-1.733-0.05-3.9,0.05c-1.333,0-3.267-0.184-5.8-0.55
			c-1.2-0.066-2.95-0.4-5.25-1c-0.267-0.033-0.933-0.101-2-0.2C4.833,62.65,4.433,62.5,4.2,62.3z"/>
		<path style="fill-rule:evenodd;clip-rule:evenodd;fill:#11120E;" d="M157.3,0.8h0.7c1.1,0,2.05,0.4,2.85,1.2
			c0.733,0.767,1.117,1.683,1.15,2.75V7v51.25c0,1.1-0.384,2.05-1.15,2.85c-0.433,0.434-0.916,0.767-1.449,1v-0.6
			c0-0.2,0-0.434,0-0.7c0.233-0.166,0.449-0.35,0.649-0.55c0.767-0.8,1.15-1.75,1.15-2.85V40.95V4.8c0-1.1-0.384-2.033-1.15-2.8
			S158.366,0.833,157.3,0.8z M116.45,62.3H4.2H4.05c-0.6,0-1.15-0.116-1.65-0.35c-0.433-0.2-0.833-0.483-1.2-0.851
			C0.4,60.3,0,59.35,0,58.25V4.75C0.033,3.683,0.433,2.767,1.2,2C2,1.2,2.95,0.8,4.05,0.8H4.4C3.333,0.833,2.433,1.233,1.7,2
			C0.9,2.767,0.5,3.7,0.5,4.8V40v17.4c0,1.1,0.4,2.05,1.2,2.85c0.767,0.767,1.7,1.15,2.8,1.15h152.7c0.133,0,0.283,0,0.45,0
			c0.466,0.333,0.866,0.616,1.199,0.85c-0.267,0.033-0.55,0.05-0.85,0.05h-38.8H116.45z M108.3,48.65
			c-1.633-2.067-2.45-4.483-2.45-7.25c0-3.301,1.184-6.117,3.551-8.45c2.333-2.367,5.149-3.55,8.449-3.55
			c3.334,0,6.167,1.184,8.5,3.55c0.434,0.433,0.834,0.883,1.2,1.35c-0.267-0.3-0.533-0.583-0.8-0.85c-2.366-2.367-5.2-3.55-8.5-3.55
			c-3.333,0-6.167,1.184-8.5,3.55c-2.333,2.333-3.5,5.149-3.5,8.45C106.25,44.434,106.934,46.684,108.3,48.65z M134.875,45.05H134.6
			c-0.5,0-0.916-0.184-1.25-0.55c-0.366-0.4-0.55-0.866-0.55-1.4V40.2c0-0.533,0.184-1,0.55-1.4c0.334-0.366,0.75-0.55,1.25-0.55
			h0.275c-0.459,0.01-0.851,0.193-1.175,0.55c-0.367,0.4-0.55,0.867-0.55,1.4V43.1c0,0.534,0.183,1,0.55,1.4
			C134.024,44.856,134.416,45.04,134.875,45.05z M145.45,45.05h0.399l-3.05,3.3c-0.333,0.4-0.5,0.867-0.5,1.4s0.167,1,0.5,1.4
			l1.9,2.05c0.333,0.333,0.7,0.517,1.1,0.55c-0.066,0-0.133,0-0.2,0c-0.5,0-0.933-0.184-1.3-0.55l-1.899-2.05
			c-0.334-0.4-0.5-0.867-0.5-1.4s0.166-1,0.5-1.4L145.45,45.05z M145.45,38.25l-3.05-3.3c-0.334-0.4-0.5-0.867-0.5-1.4
			c0-0.533,0.166-1,0.5-1.4l1.899-2.05c0.367-0.367,0.8-0.55,1.3-0.55c0.067,0,0.134,0,0.2,0c-0.399,0.034-0.767,0.217-1.1,0.55
			l-1.9,2.05c-0.333,0.4-0.5,0.867-0.5,1.4c0,0.534,0.167,1,0.5,1.4l3.05,3.3H145.45z M81.1,48.85c-1.7-2.133-2.55-4.616-2.55-7.449
			c0-3.301,1.167-6.117,3.5-8.45c2.334-2.367,5.167-3.55,8.5-3.55c3.3,0,6.134,1.184,8.5,3.55c0.634,0.633,1.167,1.283,1.601,1.95
			c-0.367-0.5-0.784-0.983-1.25-1.45c-2.334-2.367-5.167-3.55-8.5-3.55c-3.301,0-6.117,1.184-8.45,3.55
			c-2.367,2.333-3.55,5.149-3.55,8.45C78.9,44.533,79.633,46.85,81.1,48.85z M73.4,34.9c-0.367-0.5-0.783-0.983-1.25-1.45
			c-2.333-2.367-5.167-3.55-8.5-3.55c-3.3,0-6.117,1.184-8.45,3.55c-2.367,2.333-3.55,5.149-3.55,8.45
			c0,2.633,0.733,4.949,2.2,6.949c-1.7-2.133-2.55-4.616-2.55-7.449c0-3.301,1.167-6.117,3.5-8.45c2.333-2.367,5.167-3.55,8.5-3.55
			c3.3,0,6.133,1.184,8.5,3.55C72.433,33.583,72.967,34.233,73.4,34.9z"/>
		
			<radialGradient id="SVGID_1_" cx="80.8501" cy="-2" r="81.2" gradientTransform="matrix(1 0 0 -1 0 -4)" gradientUnits="userSpaceOnUse">
			<stop  offset="0" style="stop-color:#3E4234"/>
			<stop  offset="1" style="stop-color:#1B1C16"/>
		</radialGradient>
		<path style="fill-rule:evenodd;clip-rule:evenodd;fill:url(#SVGID_1_);" d="M0.5,40V4.8c0-1.1,0.4-2.033,1.2-2.8
			c0.733-0.767,1.633-1.167,2.7-1.2h152.9c1.066,0.034,1.983,0.434,2.75,1.2s1.15,1.7,1.15,2.8v36.15
			c-1.066,2.666-2.434,4.983-4.101,6.95c-0.366,0.399-1.35,1.366-2.949,2.899c-0.5,0.5-1.184,1.233-2.051,2.2
			c-0.8,0.833-1.6,1.467-2.399,1.9c-0.834,0.466-1.417,0.699-1.75,0.699c-0.167,0-0.417-0.066-0.75-0.199
			c-0.267-0.067-0.533-0.084-0.8-0.051c-0.2,0.067-0.45,0.2-0.75,0.4c-0.334,0.2-0.584,0.316-0.75,0.35
			c-0.5,0.101-1.351,0.084-2.551-0.05c-0.233,0-1.066-0.083-2.5-0.25c-0.1,0-0.316,0.017-0.649,0.05
			c-0.3,0.034-0.5,0.017-0.601-0.05c-0.166-0.1-0.267-0.3-0.3-0.6c-0.066-0.3-0.133-0.5-0.2-0.601c-0.333-0.399-0.833-0.767-1.5-1.1
			c-0.3-0.233-0.55-0.616-0.75-1.15c-0.166-0.5-0.383-0.833-0.649-1c-0.267-0.166-1.217-0.183-2.851-0.05
			c-0.566,0.033-1.233,0.267-2,0.7c-0.899,0.5-2.216,1.333-3.949,2.5c-1.4,0.833-2.983,1.3-4.75,1.4
			c-0.601,0.066-2.284,0.033-5.051-0.101c-0.466,0-1.183-0.017-2.149-0.05c-0.8-0.033-1.5-0.15-2.101-0.35L109.15,54.3
			c-1.434-0.434-2.684-0.934-3.75-1.5c-0.101-0.033-0.351-0.233-0.75-0.6c-0.367-0.3-0.617-0.45-0.75-0.45
			c-0.2,0.033-0.584,0.533-1.15,1.5c-0.366,0.467-0.95,0.884-1.75,1.25c-0.467,0.2-1.167,0.467-2.1,0.8
			c-1.134,0.467-2.851,0.867-5.15,1.2c-0.733,0.134-1.65,0.15-2.75,0.05c-1.733-0.166-2.667-0.25-2.8-0.25c-1.066,0-1.717,0-1.95,0
			c-0.733-0.066-1.35-0.233-1.85-0.5l-0.25-0.25c-0.333,0.101-0.667,0.033-1-0.2c-0.1,0.2-0.267,0.317-0.5,0.351
			s-0.4,0.083-0.5,0.149c-0.1,0.067-0.217,0.2-0.35,0.4s-0.267,0.333-0.4,0.4c-0.267,0.166-0.75,0.283-1.45,0.35
			c-0.7,0.033-1.2,0.134-1.5,0.3c1.667-0.066,3.95,0,6.85,0.2c1.066,0.066,2.033,0.134,2.9,0.2c-0.066,0.066-0.15,0.1-0.25,0.1
			c-0.167,0-0.967-0.017-2.4-0.05c-1.033,0-1.816,0.083-2.35,0.25c-0.467,0.167-1.034,0.4-1.7,0.7c-0.6,0.233-1.217,0.333-1.85,0.3
			c-0.4-0.033-1.2-0.066-2.4-0.1c-1.033,0-1.833-0.051-2.4-0.15c-0.367-0.066-0.85-0.217-1.45-0.45c-0.6-0.166-1.533-0.184-2.8-0.05
			c-0.533-0.033-1.233-0.184-2.1-0.45c-1-0.333-1.683-0.533-2.05-0.6c-1.733-0.267-4.517-0.25-8.35,0.05c-0.6,0-1.633,0.05-3.1,0.15
			c-1.333,0.066-2.35-0.017-3.05-0.25c0.033-0.467,0.1-0.767,0.2-0.9c-1-0.1-2-0.1-3,0c-0.033,0.167,0.033,0.483,0.2,0.95
			c0.1,0.333-0.05,0.6-0.45,0.8c-0.4,0.233-1.066,0.25-2,0.05l-2-0.399c-0.6-0.034-1.5,0-2.7,0.1c-0.534-0.033-1.233-0.15-2.1-0.35
			c-0.467-0.034-1.2,0-2.2,0.1c-0.066,0-0.517-0.066-1.35-0.2c-0.566-0.066-1.033-0.066-1.4,0c-0.233,0.033-0.7,0.184-1.4,0.45
			c-0.5,0.167-0.967,0.25-1.4,0.25H26.1c-0.833-0.066-1.467-0.2-1.9-0.4c-0.167-0.066-0.383-0.216-0.65-0.449
			c-0.2-0.134-0.417-0.184-0.65-0.15c-0.167,0.033-0.583,0.35-1.25,0.95c-0.4,0.133-0.9,0.233-1.5,0.3
			c-0.566,0.033-1.217,0-1.95-0.1c-0.4-0.067-1.017-0.184-1.85-0.351c-0.7-0.133-2.184-0.133-4.45,0c-1.867,0.101-3.267-0.1-4.2-0.6
			c-0.067-0.033-0.233-0.134-0.5-0.3c-0.167-0.101-0.367-0.167-0.6-0.2c-0.167,0-0.417,0.017-0.75,0.05
			c-0.3,0-0.517-0.083-0.65-0.25c-0.133-0.134-0.167-0.483-0.1-1.05c-0.167-0.667-0.467-1.134-0.9-1.4C4,55.184,3.433,55.9,2.5,56.2
			c-0.133-0.467-0.217-1.134-0.25-2c-0.033-0.967-0.083-1.634-0.15-2c-0.133,0.267-0.35,0.434-0.65,0.5
			c-0.067-0.5-0.05-1.3,0.05-2.4c0.1-1.033,0.083-1.833-0.05-2.399c-0.2-1.034-0.3-2.067-0.3-3.101c0-0.5-0.05-1.434-0.15-2.8
			c-0.1-1.167-0.133-2.083-0.1-2.75L0.5,40z M108.3,48.65c0.4,0.6,0.884,1.183,1.45,1.75c2.333,2.333,5.167,3.5,8.5,3.5
			c3.3,0,6.134-1.167,8.5-3.5c2.333-2.334,3.5-5.167,3.5-8.5c0-2.9-0.9-5.434-2.7-7.601c-0.366-0.466-0.767-0.917-1.2-1.35
			c-2.333-2.367-5.166-3.55-8.5-3.55c-3.3,0-6.116,1.184-8.449,3.55c-2.367,2.333-3.551,5.149-3.551,8.45
			C105.85,44.167,106.667,46.583,108.3,48.65z M145.45,38.25h-10.575H134.6c-0.5,0-0.916,0.184-1.25,0.55
			c-0.366,0.4-0.55,0.867-0.55,1.4V43.1c0,0.534,0.184,1,0.55,1.4c0.334,0.366,0.75,0.55,1.25,0.55h0.275h10.575l-3.05,3.3
			c-0.334,0.4-0.5,0.867-0.5,1.4s0.166,1,0.5,1.4l1.899,2.05c0.367,0.366,0.8,0.55,1.3,0.55c0.067,0,0.134,0,0.2,0s0.134,0,0.2,0
			c0.5,0,0.917-0.184,1.25-0.55L156.6,43.1c0.4-0.433,0.567-0.916,0.5-1.449c0.067-0.534-0.1-1-0.5-1.4l-9.35-10.15
			c-0.333-0.367-0.75-0.55-1.25-0.55c-0.066,0-0.134,0-0.2,0s-0.133,0-0.2,0c-0.5,0-0.933,0.184-1.3,0.55l-1.899,2.05
			c-0.334,0.4-0.5,0.867-0.5,1.4c0,0.534,0.166,1,0.5,1.4L145.45,38.25z M83.7,14.3l0.1-0.9c0-1.033-0.25-1.867-0.75-2.5
			c-0.566-0.767-1.417-1.15-2.55-1.15c-1.2,0-2.133,0.417-2.8,1.25c-0.6,0.733-0.9,1.617-0.9,2.65c0,1.167,0.35,2.067,1.05,2.7
			c0.667,0.667,1.617,1,2.85,1c1.033,0,1.917-0.15,2.65-0.45l-0.3-1.55c-0.566,0.233-1.233,0.35-2,0.35c-1.3,0-1.983-0.467-2.05-1.4
			H83.7z M81.1,48.85c0.4,0.534,0.85,1.051,1.35,1.551c2.333,2.333,5.149,3.5,8.45,3.5c3.333,0,6.166-1.167,8.5-3.5
			c2.333-2.334,3.5-5.167,3.5-8.5c0-2.634-0.75-4.967-2.25-7c-0.434-0.667-0.967-1.316-1.601-1.95c-2.366-2.367-5.2-3.55-8.5-3.55
			c-3.333,0-6.166,1.184-8.5,3.55c-2.333,2.333-3.5,5.149-3.5,8.45C78.55,44.233,79.4,46.717,81.1,48.85z M115.15,57.55
			c-0.101,0.101-0.184,0.15-0.25,0.15c-0.101,0-0.317-0.05-0.65-0.15H115.15z M113.3,57.7c-0.066,0.133-0.133,0.2-0.2,0.2
			c-0.666,0.233-1.8,0.35-3.399,0.35H93.4c-0.334,0-0.917,0.033-1.75,0.1c-0.733,0.034-1.301,0-1.7-0.1
			c-0.134-0.033-0.351-0.15-0.65-0.35c-0.133-0.067-0.233-0.134-0.3-0.2c1.333,0.066,2.384,0.1,3.15,0.1
			c4.233-0.166,7.416-0.25,9.55-0.25h11.75C113.384,57.583,113.333,57.634,113.3,57.7z M115.95,57.55h8.25
			c5.033,0.167,8.783,0.25,11.25,0.25c3.166,0.066,5.533,0.117,7.1,0.15c2.867,0.033,5.233-0.033,7.101-0.2
			c1.066-0.2,1.883-0.267,2.449-0.2c0.267,0.033,0.934,0.434,2,1.2c-0.3,0.033-0.633,0.05-1,0.05
			c-0.533-0.033-1.267-0.083-2.199-0.149c-0.634,0.066-1.517,0.25-2.65,0.55c-1.2,0.3-2.1,0.483-2.7,0.55
			c-0.899,0.134-2.133,0.167-3.7,0.1c-2.033-0.066-3.267-0.1-3.699-0.1c-0.9,0-2.601-0.184-5.101-0.55
			c-0.366-0.033-0.616-0.033-0.75,0c-0.333,0.133-0.55,0.217-0.649,0.25c-0.567,0.1-1.233,0.116-2,0.05
			c-0.367-0.033-0.717-0.134-1.051-0.3c-0.199-0.101-0.5-0.267-0.899-0.5c-1.033-0.4-2.7-0.45-5-0.15
			c-0.367,0.033-1.95,0.101-4.75,0.2c-0.867,0-1.4-0.083-1.601-0.25c-0.1-0.066-0.199-0.283-0.3-0.65
			C116.017,57.75,115.983,57.65,115.95,57.55z M41.6,13.75v0.8l-0.05,0.4c-0.2,0.566-0.6,0.85-1.2,0.85s-0.9-0.3-0.9-0.9
			C39.45,14.133,40.167,13.75,41.6,13.75z M41.5,12.25v0.1c-2.867,0-4.3,0.933-4.3,2.8c0,0.6,0.216,1.117,0.65,1.55
			c0.433,0.466,1.017,0.7,1.75,0.7c0.9,0,1.6-0.3,2.1-0.9h0.05l0.1,0.7h2.05l-0.1-4.3c0-2.133-1.066-3.2-3.2-3.2
			c-1.033,0-1.983,0.216-2.85,0.65l0.4,1.5c0.6-0.367,1.283-0.55,2.05-0.55C41.067,11.3,41.5,11.617,41.5,12.25z M54.9,7.85
			c-0.633-0.533-1.667-0.8-3.1-0.8c-1.066,0-2.1,0.067-3.1,0.2v9.95H51v-3.6l0.75,0.05c1.4,0,2.5-0.35,3.3-1.05
			c0.633-0.567,0.95-1.367,0.95-2.4C56,9.2,55.633,8.417,54.9,7.85z M51,11.85v-3c0.1-0.033,0.4-0.05,0.9-0.05
			c1.2,0,1.8,0.483,1.8,1.45c0,1.1-0.65,1.65-1.95,1.65L51,11.85z M61,14.55l-0.05,0.4c-0.2,0.566-0.6,0.85-1.2,0.85
			s-0.9-0.3-0.9-0.9c0-0.767,0.717-1.15,2.15-1.15V14.55z M67.05,11.25H67L66.9,9.9h-1.95L65,17.2h2.3v-3.7l0.05-0.5
			c0.167-0.767,0.683-1.15,1.55-1.15l0.6,0.05V9.75L69.05,9.7C68.083,9.7,67.417,10.217,67.05,11.25z M60.9,12.25v0.1
			c-2.867,0-4.3,0.933-4.3,2.8c0,0.6,0.217,1.117,0.65,1.55c0.433,0.466,1.017,0.7,1.75,0.7c0.9,0,1.6-0.3,2.1-0.9h0.05l0.1,0.7
			h2.05l-0.1-4.3c0-2.133-1.067-3.2-3.2-3.2c-1.033,0-1.983,0.216-2.85,0.65l0.4,1.5c0.6-0.367,1.284-0.55,2.05-0.55
			C60.467,11.3,60.9,11.617,60.9,12.25z M79.3,11.75c0.267-0.333,0.617-0.5,1.05-0.5c0.867,0,1.3,0.483,1.3,1.45h-2.7
			C78.983,12.367,79.1,12.05,79.3,11.75z M72.65,11.9c0-0.4,0.3-0.6,0.9-0.6c0.5,0,1.017,0.133,1.55,0.4l0.4-1.55
			c-0.533-0.3-1.217-0.45-2.05-0.45c-0.9,0-1.617,0.233-2.15,0.7c-0.566,0.467-0.85,1.05-0.85,1.75c0,0.967,0.7,1.7,2.1,2.2
			c0.733,0.233,1.1,0.517,1.1,0.85c0,0.4-0.333,0.6-1,0.6c-0.7,0-1.35-0.183-1.95-0.55l-0.4,1.6c0.667,0.367,1.45,0.55,2.35,0.55
			c1.033,0,1.833-0.217,2.4-0.65c0.534-0.433,0.8-1.017,0.8-1.75c-0.067-1.1-0.733-1.85-2-2.25C73.05,12.483,72.65,12.2,72.65,11.9z
			 M53.85,48.85c0.4,0.534,0.85,1.051,1.35,1.551c2.333,2.333,5.15,3.5,8.45,3.5c3.333,0,6.167-1.167,8.5-3.5
			c2.333-2.334,3.5-5.167,3.5-8.5c0-2.634-0.75-4.967-2.25-7c-0.433-0.667-0.967-1.316-1.6-1.95c-2.367-2.367-5.2-3.55-8.5-3.55
			c-3.333,0-6.167,1.184-8.5,3.55c-2.333,2.333-3.5,5.149-3.5,8.45C51.3,44.233,52.15,46.717,53.85,48.85z M18.05,9.9h-2.3v7.3h2.3
			V9.9z M17.8,8.65c0.233-0.2,0.35-0.467,0.35-0.8C18.083,7.083,17.667,6.7,16.9,6.7c-0.333,0-0.617,0.117-0.85,0.35
			c-0.233,0.2-0.35,0.467-0.35,0.8C15.7,8.617,16.1,9,16.9,9C17.267,9,17.567,8.883,17.8,8.65z M13.45,7.85
			c-0.667-0.533-1.7-0.8-3.1-0.8c-1.133,0-2.167,0.067-3.1,0.2v9.95h2.3v-3.6l0.75,0.05c1.4,0,2.5-0.35,3.3-1.05
			c0.6-0.533,0.9-1.333,0.9-2.4C14.5,9.167,14.15,8.383,13.45,7.85z M10.45,8.8c1.2,0,1.8,0.483,1.8,1.45c0,1.1-0.65,1.65-1.95,1.65
			l-0.75-0.05v-3C9.65,8.817,9.95,8.8,10.45,8.8z M27.65,9.9H25.4v7.3h2.25V9.9z M25.65,8.65C25.883,8.883,26.167,9,26.5,9
			c0.367,0,0.667-0.117,0.9-0.35c0.233-0.2,0.35-0.467,0.35-0.8c-0.067-0.767-0.467-1.15-1.2-1.15c-0.367,0-0.667,0.117-0.9,0.35
			c-0.233,0.2-0.35,0.467-0.35,0.8C25.3,8.183,25.417,8.45,25.65,8.65z M22.45,9.9v-2L20.2,8.55V9.9h-1v1.65h1v3
			c0,1.034,0.2,1.767,0.6,2.2c0.467,0.4,1.05,0.6,1.75,0.6c0.733,0,1.217-0.05,1.45-0.15v-1.75l-0.65,0.05c-0.6,0-0.9-0.433-0.9-1.3
			v-2.65h1.6V9.9H22.45z M36.55,9.9H33.8l-1.45,2.2c-0.233,0.3-0.417,0.6-0.55,0.9h-0.05V6.6H29.5v10.6h2.25v-2.25l0.6-0.75l1.8,3
			h2.8l-3-4.35L36.55,9.9z"/>
		<path style="fill-rule:evenodd;clip-rule:evenodd;fill:#58763E;" d="M127.55,34.3c1.8,2.167,2.7,4.7,2.7,7.601
			c0,3.333-1.167,6.166-3.5,8.5c-2.366,2.333-5.2,3.5-8.5,3.5c-3.333,0-6.167-1.167-8.5-3.5c-0.566-0.567-1.05-1.15-1.45-1.75
			c-1.366-1.967-2.05-4.217-2.05-6.75c0-3.301,1.167-6.117,3.5-8.45c2.333-2.367,5.167-3.55,8.5-3.55c3.3,0,6.134,1.184,8.5,3.55
			C127.017,33.717,127.283,34,127.55,34.3z M126.05,37.85V34.95H111.2v2.899h5.2v12.5h4.399v-12.5H126.05z"/>
		<path style="fill-rule:evenodd;clip-rule:evenodd;fill:#F1EFCD;" d="M134.875,38.25h10.575h0.399l-3.05-3.3
			c-0.333-0.4-0.5-0.867-0.5-1.4c0-0.533,0.167-1,0.5-1.4l1.9-2.05c0.333-0.333,0.7-0.517,1.1-0.55c0.066,0,0.134,0,0.2,0
			c0.5,0,0.917,0.184,1.25,0.55l9.35,10.15c0.4,0.4,0.567,0.866,0.5,1.4c0.067,0.533-0.1,1.017-0.5,1.449L147.25,53.2
			c-0.333,0.366-0.75,0.55-1.25,0.55c-0.066,0-0.134,0-0.2,0c-0.399-0.033-0.767-0.217-1.1-0.55l-1.9-2.05
			c-0.333-0.4-0.5-0.867-0.5-1.4s0.167-1,0.5-1.4l3.05-3.3h-0.399h-10.575c-0.459-0.01-0.851-0.193-1.175-0.55
			c-0.367-0.4-0.55-0.866-0.55-1.4V40.2c0-0.533,0.183-1,0.55-1.4C134.024,38.443,134.416,38.26,134.875,38.25z M126.05,37.85h-5.25
			v12.5H116.4v-12.5h-5.2V34.95h14.85V37.85z M95.3,35.55c0-0.5-0.25-0.75-0.75-0.75H91.3V38.9h3.25c0.5,0,0.75-0.25,0.75-0.75
			V35.55z M95.05,33.6c0.367,0,0.684,0.133,0.95,0.4c0.267,0.233,0.4,0.533,0.4,0.9v9.4c0,0.367-0.134,0.667-0.4,0.9
			c-0.267,0.267-0.583,0.399-0.95,0.399h-8.3c-0.366,0-0.684-0.133-0.95-0.399c-0.267-0.233-0.399-0.533-0.399-0.9v-9.4
			c0-0.367,0.133-0.667,0.399-0.9c0.267-0.267,0.584-0.4,0.95-0.4H95.05z M87.7,40.45c-0.267,0-0.483,0.083-0.65,0.25
			c-0.2,0.2-0.3,0.434-0.3,0.7c0,0.233,0.1,0.449,0.3,0.649c0.167,0.167,0.384,0.25,0.65,0.25s0.5-0.083,0.7-0.25
			c0.199-0.166,0.3-0.383,0.3-0.649s-0.101-0.5-0.3-0.7C88.2,40.533,87.967,40.45,87.7,40.45z M90.5,34.8h-3.25
			c-0.2,0-0.366,0.083-0.5,0.25c-0.167,0.133-0.25,0.3-0.25,0.5v2.601c0,0.199,0.083,0.383,0.25,0.55c0.134,0.133,0.3,0.2,0.5,0.2
			h3.25V34.8z M87.8,46.3c0.134,0.134,0.2,0.25,0.2,0.351h5.9c-0.034-0.101,0-0.217,0.1-0.351c0.267-0.233,0.517-0.233,0.75,0
			l3.4,3.05c0.233,0.233,0.233,0.467,0,0.7s-0.467,0.233-0.7,0l-0.7-0.649c-0.066,0-0.116,0-0.15,0H85.15L84.4,50.05
			c-0.267,0.233-0.517,0.233-0.75,0c-0.2-0.2-0.183-0.434,0.05-0.7L87.1,46.3C87.333,46.066,87.566,46.066,87.8,46.3z M86.35,48.3
			h9.15l-0.6-0.55H87L86.35,48.3z M95.05,41.4c0-0.634-0.316-0.95-0.95-0.95c-0.633,0-0.949,0.316-0.949,0.95
			c0,0.6,0.316,0.899,0.949,0.899C94.733,42.3,95.05,42,95.05,41.4z M59.85,46.3c0.233-0.233,0.467-0.233,0.7,0
			c0.133,0.134,0.2,0.25,0.2,0.351h5.9c-0.033-0.101,0-0.217,0.1-0.351c0.267-0.233,0.517-0.233,0.75,0l3.4,3.05
			c0.233,0.233,0.233,0.467,0,0.7s-0.467,0.233-0.7,0L69.5,49.4c-0.067,0-0.117,0-0.15,0H57.9l-0.75,0.649
			c-0.267,0.233-0.517,0.233-0.75,0c-0.2-0.2-0.183-0.434,0.05-0.7L59.85,46.3z M60.45,40.45c-0.267,0-0.483,0.083-0.65,0.25
			c-0.2,0.2-0.3,0.434-0.3,0.7c0,0.233,0.1,0.449,0.3,0.649c0.167,0.167,0.383,0.25,0.65,0.25c0.267,0,0.5-0.083,0.7-0.25
			c0.2-0.166,0.3-0.383,0.3-0.649s-0.1-0.5-0.3-0.7C60.95,40.533,60.717,40.45,60.45,40.45z M58.55,34
			c0.267-0.267,0.583-0.4,0.95-0.4h8.3c0.367,0,0.684,0.133,0.95,0.4c0.267,0.233,0.4,0.533,0.4,0.9v9.4
			c0,0.367-0.133,0.667-0.4,0.9c-0.267,0.267-0.583,0.399-0.95,0.399h-8.3c-0.367,0-0.683-0.133-0.95-0.399
			c-0.267-0.233-0.4-0.533-0.4-0.9v-9.4C58.15,34.533,58.283,34.233,58.55,34z M60,34.8c-0.2,0-0.367,0.083-0.5,0.25
			c-0.167,0.133-0.25,0.3-0.25,0.5v2.601c0,0.199,0.083,0.383,0.25,0.55c0.133,0.133,0.3,0.2,0.5,0.2h3.25V34.8H60z M59.1,48.3h9.15
			l-0.6-0.55h-7.9L59.1,48.3z M65.9,41.4c0,0.6,0.317,0.899,0.95,0.899S67.8,42,67.8,41.4c0-0.634-0.316-0.95-0.95-0.95
			S65.9,40.767,65.9,41.4z M67.3,34.8h-3.25V38.9h3.25c0.5,0,0.75-0.25,0.75-0.75V35.55C68.05,35.05,67.8,34.8,67.3,34.8z"/>
		<path style="fill-rule:evenodd;clip-rule:evenodd;fill:#131410;" d="M159.4,62.1l-0.051,0.45c-0.133-0.066-0.3-0.166-0.5-0.3
			c-0.333-0.233-0.733-0.517-1.199-0.85c-0.167,0-0.317,0-0.45,0H4.5c-1.1,0-2.033-0.384-2.8-1.15c-0.8-0.8-1.2-1.75-1.2-2.85V40
			l0.4-0.75C0.867,39.917,0.9,40.833,1,42c0.1,1.366,0.15,2.3,0.15,2.8c0,1.033,0.1,2.066,0.3,3.101
			C1.583,48.467,1.6,49.267,1.5,50.3c-0.1,1.101-0.117,1.9-0.05,2.4c0.3-0.066,0.517-0.233,0.65-0.5c0.066,0.366,0.117,1.033,0.15,2
			c0.033,0.866,0.117,1.533,0.25,2c0.933-0.3,1.5-1.017,1.7-2.15c0.433,0.267,0.733,0.733,0.9,1.4
			c-0.067,0.566-0.033,0.916,0.1,1.05c0.133,0.167,0.35,0.25,0.65,0.25c0.333-0.033,0.583-0.05,0.75-0.05
			c0.233,0.033,0.433,0.1,0.6,0.2c0.267,0.166,0.433,0.267,0.5,0.3c0.933,0.5,2.333,0.7,4.2,0.6c2.267-0.133,3.75-0.133,4.45,0
			c0.833,0.167,1.45,0.283,1.85,0.351c0.733,0.1,1.383,0.133,1.95,0.1c0.6-0.066,1.1-0.167,1.5-0.3
			c0.667-0.601,1.083-0.917,1.25-0.95c0.233-0.033,0.45,0.017,0.65,0.15c0.267,0.233,0.483,0.383,0.65,0.449
			c0.433,0.2,1.066,0.334,1.9,0.4h6.25c0.433,0,0.9-0.083,1.4-0.25c0.7-0.267,1.167-0.417,1.4-0.45c0.367-0.066,0.833-0.066,1.4,0
			c0.833,0.134,1.284,0.2,1.35,0.2c1-0.1,1.733-0.134,2.2-0.1c0.867,0.199,1.566,0.316,2.1,0.35c1.2-0.1,2.1-0.134,2.7-0.1l2,0.399
			c0.934,0.2,1.6,0.184,2-0.05c0.4-0.2,0.55-0.467,0.45-0.8c-0.167-0.467-0.233-0.783-0.2-0.95c1-0.1,2-0.1,3,0
			c-0.1,0.134-0.167,0.434-0.2,0.9c0.7,0.233,1.716,0.316,3.05,0.25c1.467-0.101,2.5-0.15,3.1-0.15c3.833-0.3,6.617-0.316,8.35-0.05
			c0.367,0.066,1.05,0.267,2.05,0.6c0.867,0.267,1.567,0.417,2.1,0.45c1.267-0.134,2.2-0.116,2.8,0.05
			c0.6,0.233,1.083,0.384,1.45,0.45c0.566,0.1,1.367,0.15,2.4,0.15c1.2,0.033,2,0.066,2.4,0.1c0.633,0.033,1.25-0.066,1.85-0.3
			c0.667-0.3,1.233-0.533,1.7-0.7c0.533-0.167,1.316-0.25,2.35-0.25c1.434,0.033,2.233,0.05,2.4,0.05c0.1,0,0.184-0.033,0.25-0.1
			c-0.867-0.066-1.834-0.134-2.9-0.2c-2.9-0.2-5.183-0.267-6.85-0.2c0.3-0.166,0.8-0.267,1.5-0.3c0.7-0.066,1.183-0.184,1.45-0.35
			c0.133-0.067,0.267-0.2,0.4-0.4s0.25-0.333,0.35-0.4c0.1-0.066,0.267-0.116,0.5-0.149s0.4-0.15,0.5-0.351
			c0.333,0.233,0.667,0.301,1,0.2l0.25,0.25c0.5,0.267,1.116,0.434,1.85,0.5c0.233,0,0.884,0,1.95,0c0.133,0,1.066,0.084,2.8,0.25
			c1.1,0.101,2.017,0.084,2.75-0.05c2.3-0.333,4.017-0.733,5.15-1.2c0.933-0.333,1.633-0.6,2.1-0.8c0.8-0.366,1.384-0.783,1.75-1.25
			c0.566-0.967,0.95-1.467,1.15-1.5c0.133,0,0.383,0.15,0.75,0.45c0.399,0.366,0.649,0.566,0.75,0.6
			c1.066,0.566,2.316,1.066,3.75,1.5l3.199,1.101c0.601,0.199,1.301,0.316,2.101,0.35c0.967,0.033,1.684,0.05,2.149,0.05
			c2.767,0.134,4.45,0.167,5.051,0.101c1.767-0.101,3.35-0.567,4.75-1.4c1.733-1.167,3.05-2,3.949-2.5
			c0.767-0.434,1.434-0.667,2-0.7c1.634-0.133,2.584-0.116,2.851,0.05c0.267,0.167,0.483,0.5,0.649,1
			c0.2,0.534,0.45,0.917,0.75,1.15c0.667,0.333,1.167,0.7,1.5,1.1c0.067,0.101,0.134,0.301,0.2,0.601c0.033,0.3,0.134,0.5,0.3,0.6
			c0.101,0.066,0.301,0.084,0.601,0.05c0.333-0.033,0.55-0.05,0.649-0.05c1.434,0.167,2.267,0.25,2.5,0.25
			c1.2,0.134,2.051,0.15,2.551,0.05c0.166-0.033,0.416-0.149,0.75-0.35c0.3-0.2,0.55-0.333,0.75-0.4
			c0.267-0.033,0.533-0.017,0.8,0.051c0.333,0.133,0.583,0.199,0.75,0.199c0.333,0,0.916-0.233,1.75-0.699
			c0.8-0.434,1.6-1.067,2.399-1.9c0.867-0.967,1.551-1.7,2.051-2.2c1.6-1.533,2.583-2.5,2.949-2.899
			c1.667-1.967,3.034-4.284,4.101-6.95V57.4c0,1.1-0.384,2.05-1.15,2.85c-0.2,0.2-0.416,0.384-0.649,0.55c0,0.267,0,0.5,0,0.7V62.1z
			 M115.95,57.55c0.033,0.101,0.066,0.2,0.1,0.3c0.101,0.367,0.2,0.584,0.3,0.65c0.2,0.167,0.733,0.25,1.601,0.25
			c2.8-0.1,4.383-0.167,4.75-0.2c2.3-0.3,3.967-0.25,5,0.15c0.399,0.233,0.7,0.399,0.899,0.5c0.334,0.166,0.684,0.267,1.051,0.3
			c0.767,0.066,1.433,0.05,2-0.05c0.1-0.033,0.316-0.117,0.649-0.25c0.134-0.033,0.384-0.033,0.75,0c2.5,0.366,4.2,0.55,5.101,0.55
			c0.433,0,1.666,0.033,3.699,0.1c1.567,0.067,2.801,0.034,3.7-0.1c0.601-0.066,1.5-0.25,2.7-0.55c1.134-0.3,2.017-0.483,2.65-0.55
			c0.933,0.066,1.666,0.116,2.199,0.149c0.367,0,0.7-0.017,1-0.05c-1.066-0.767-1.733-1.167-2-1.2c-0.566-0.066-1.383,0-2.449,0.2
			c-1.867,0.167-4.233,0.233-7.101,0.2c-1.566-0.033-3.934-0.084-7.1-0.15c-2.467,0-6.217-0.083-11.25-0.25H115.95z M113.3,57.7
			c0.033-0.066,0.084-0.117,0.15-0.15H101.7c-2.134,0-5.316,0.084-9.55,0.25c-0.767,0-1.817-0.033-3.15-0.1
			c0.066,0.066,0.167,0.133,0.3,0.2c0.3,0.199,0.517,0.316,0.65,0.35c0.399,0.1,0.967,0.134,1.7,0.1c0.833-0.066,1.416-0.1,1.75-0.1
			h16.3c1.6,0,2.733-0.116,3.399-0.35C113.167,57.9,113.233,57.833,113.3,57.7z M115.15,57.55h-0.9c0.333,0.101,0.55,0.15,0.65,0.15
			C114.967,57.7,115.05,57.65,115.15,57.55z"/>
		<path style="fill-rule:evenodd;clip-rule:evenodd;fill:#FFFFFF;" d="M83.7,14.3H79c0.067,0.934,0.75,1.4,2.05,1.4
			c0.767,0,1.434-0.117,2-0.35l0.3,1.55c-0.733,0.3-1.617,0.45-2.65,0.45c-1.233,0-2.184-0.333-2.85-1
			c-0.7-0.633-1.05-1.533-1.05-2.7c0-1.033,0.3-1.917,0.9-2.65c0.667-0.833,1.6-1.25,2.8-1.25c1.133,0,1.983,0.383,2.55,1.15
			c0.5,0.633,0.75,1.467,0.75,2.5L83.7,14.3z M72.65,11.9c0,0.3,0.4,0.583,1.2,0.85c1.267,0.4,1.933,1.15,2,2.25
			c0,0.733-0.267,1.317-0.8,1.75c-0.566,0.433-1.367,0.65-2.4,0.65c-0.9,0-1.683-0.183-2.35-0.55l0.4-1.6
			c0.6,0.367,1.25,0.55,1.95,0.55c0.667,0,1-0.2,1-0.6c0-0.333-0.367-0.617-1.1-0.85c-1.4-0.5-2.1-1.233-2.1-2.2
			c0-0.7,0.283-1.283,0.85-1.75c0.534-0.467,1.25-0.7,2.15-0.7c0.833,0,1.517,0.15,2.05,0.45l-0.4,1.55
			c-0.533-0.267-1.05-0.4-1.55-0.4C72.95,11.3,72.65,11.5,72.65,11.9z M79.3,11.75c-0.2,0.3-0.316,0.617-0.35,0.95h2.7
			c0-0.967-0.433-1.45-1.3-1.45C79.917,11.25,79.567,11.417,79.3,11.75z M60.9,12.25c0-0.633-0.433-0.95-1.3-0.95
			c-0.767,0-1.45,0.184-2.05,0.55l-0.4-1.5C58.017,9.917,58.967,9.7,60,9.7c2.133,0,3.2,1.066,3.2,3.2l0.1,4.3h-2.05l-0.1-0.7H61.1
			c-0.5,0.6-1.2,0.9-2.1,0.9c-0.733,0-1.317-0.233-1.75-0.7c-0.433-0.434-0.65-0.95-0.65-1.55c0-1.867,1.433-2.8,4.3-2.8V12.25z
			 M67.05,11.25c0.367-1.033,1.034-1.55,2-1.55l0.45,0.05v2.15l-0.6-0.05c-0.867,0-1.383,0.383-1.55,1.15l-0.05,0.5v3.7H65
			l-0.05-7.3h1.95l0.1,1.35H67.05z M61,14.55v-0.8c-1.433,0-2.15,0.383-2.15,1.15c0,0.6,0.3,0.9,0.9,0.9s1-0.283,1.2-0.85L61,14.55z
			 M51,11.85l0.75,0.05c1.3,0,1.95-0.55,1.95-1.65c0-0.967-0.6-1.45-1.8-1.45c-0.5,0-0.8,0.017-0.9,0.05V11.85z M54.9,7.85
			C55.633,8.417,56,9.2,56,10.2c0,1.033-0.317,1.833-0.95,2.4c-0.8,0.7-1.9,1.05-3.3,1.05L51,13.6v3.6h-2.3V7.25
			c1-0.133,2.033-0.2,3.1-0.2C53.233,7.05,54.267,7.317,54.9,7.85z M41.5,12.25c0-0.633-0.433-0.95-1.3-0.95
			c-0.767,0-1.45,0.184-2.05,0.55l-0.4-1.5c0.867-0.434,1.817-0.65,2.85-0.65c2.133,0,3.2,1.066,3.2,3.2l0.1,4.3h-2.05l-0.1-0.7
			H41.7c-0.5,0.6-1.2,0.9-2.1,0.9c-0.733,0-1.317-0.233-1.75-0.7c-0.434-0.434-0.65-0.95-0.65-1.55c0-1.867,1.433-2.8,4.3-2.8V12.25
			z M41.6,13.75c-1.434,0-2.15,0.383-2.15,1.15c0,0.6,0.3,0.9,0.9,0.9s1-0.283,1.2-0.85l0.05-0.4V13.75z M36.55,9.9l-2.6,2.95
			l3,4.35h-2.8l-1.8-3l-0.6,0.75v2.25H29.5V6.6h2.25V13h0.05c0.133-0.3,0.317-0.6,0.55-0.9l1.45-2.2H36.55z M22.45,9.9h1.6v1.65
			h-1.6v2.65c0,0.867,0.3,1.3,0.9,1.3L24,15.45v1.75c-0.233,0.1-0.717,0.15-1.45,0.15c-0.7,0-1.283-0.2-1.75-0.6
			c-0.4-0.433-0.6-1.167-0.6-2.2v-3h-1V9.9h1V8.55l2.25-0.65V9.9z M25.65,8.65c-0.233-0.2-0.35-0.467-0.35-0.8
			c0-0.333,0.117-0.6,0.35-0.8c0.233-0.233,0.533-0.35,0.9-0.35c0.733,0,1.133,0.383,1.2,1.15c0,0.333-0.117,0.6-0.35,0.8
			C27.167,8.883,26.867,9,26.5,9C26.167,9,25.883,8.883,25.65,8.65z M27.65,9.9v7.3H25.4V9.9H27.65z M10.45,8.8
			c-0.5,0-0.8,0.017-0.9,0.05v3l0.75,0.05c1.3,0,1.95-0.55,1.95-1.65C12.25,9.283,11.65,8.8,10.45,8.8z M13.45,7.85
			c0.7,0.533,1.05,1.316,1.05,2.35c0,1.066-0.3,1.867-0.9,2.4c-0.8,0.7-1.9,1.05-3.3,1.05L9.55,13.6v3.6h-2.3V7.25
			c0.933-0.133,1.967-0.2,3.1-0.2C11.75,7.05,12.783,7.317,13.45,7.85z M17.8,8.65C17.567,8.883,17.267,9,16.9,9
			c-0.8,0-1.2-0.383-1.2-1.15c0-0.333,0.117-0.6,0.35-0.8c0.233-0.233,0.517-0.35,0.85-0.35c0.767,0,1.184,0.383,1.25,1.15
			C18.15,8.183,18.033,8.45,17.8,8.65z M18.05,9.9v7.3h-2.3V9.9H18.05z"/>
		<path style="fill-rule:evenodd;clip-rule:evenodd;fill:#69382B;" d="M95.05,33.6h-8.3c-0.366,0-0.684,0.133-0.95,0.4
			c-0.267,0.233-0.399,0.533-0.399,0.9v9.4c0,0.367,0.133,0.667,0.399,0.9c0.267,0.267,0.584,0.399,0.95,0.399h8.3
			c0.367,0,0.684-0.133,0.95-0.399c0.267-0.233,0.4-0.533,0.4-0.9v-9.4c0-0.367-0.134-0.667-0.4-0.9
			C95.733,33.733,95.417,33.6,95.05,33.6z M95.3,35.55v2.601c0,0.5-0.25,0.75-0.75,0.75H91.3V34.8h3.25
			C95.05,34.8,95.3,35.05,95.3,35.55z M100.65,34.9c1.5,2.034,2.25,4.367,2.25,7c0,3.333-1.167,6.166-3.5,8.5
			c-2.334,2.333-5.167,3.5-8.5,3.5c-3.301,0-6.117-1.167-8.45-3.5c-0.5-0.5-0.95-1.017-1.35-1.551c-1.467-2-2.2-4.316-2.2-6.949
			c0-3.301,1.184-6.117,3.55-8.45c2.333-2.367,5.149-3.55,8.45-3.55c3.333,0,6.166,1.184,8.5,3.55
			C99.866,33.917,100.283,34.4,100.65,34.9z M90.5,34.8V38.9h-3.25c-0.2,0-0.366-0.067-0.5-0.2c-0.167-0.167-0.25-0.351-0.25-0.55
			V35.55c0-0.2,0.083-0.367,0.25-0.5c0.134-0.167,0.3-0.25,0.5-0.25H90.5z M87.7,40.45c0.267,0,0.5,0.083,0.7,0.25
			c0.199,0.2,0.3,0.434,0.3,0.7s-0.101,0.483-0.3,0.649c-0.2,0.167-0.434,0.25-0.7,0.25s-0.483-0.083-0.65-0.25
			c-0.2-0.2-0.3-0.416-0.3-0.649c0-0.267,0.1-0.5,0.3-0.7C87.217,40.533,87.434,40.45,87.7,40.45z M86.35,48.3L87,47.75h7.9
			l0.6,0.55H86.35z M87.8,46.3c-0.233-0.233-0.467-0.233-0.7,0L83.7,49.35c-0.233,0.267-0.25,0.5-0.05,0.7
			c0.233,0.233,0.484,0.233,0.75,0l0.75-0.649H96.6c0.034,0,0.084,0,0.15,0l0.7,0.649c0.233,0.233,0.467,0.233,0.7,0
			s0.233-0.467,0-0.7l-3.4-3.05c-0.233-0.233-0.483-0.233-0.75,0c-0.1,0.134-0.134,0.25-0.1,0.351H88
			C88,46.55,87.934,46.434,87.8,46.3z M95.05,41.4c0,0.6-0.316,0.899-0.95,0.899c-0.633,0-0.949-0.3-0.949-0.899
			c0-0.634,0.316-0.95,0.949-0.95C94.733,40.45,95.05,40.767,95.05,41.4z"/>
		<path style="fill-rule:evenodd;clip-rule:evenodd;fill:#577FAA;" d="M60,34.8h3.25V38.9H60c-0.2,0-0.367-0.067-0.5-0.2
			c-0.167-0.167-0.25-0.351-0.25-0.55V35.55c0-0.2,0.083-0.367,0.25-0.5C59.633,34.883,59.8,34.8,60,34.8z M58.55,34
			c-0.267,0.233-0.4,0.533-0.4,0.9v9.4c0,0.367,0.133,0.667,0.4,0.9c0.267,0.267,0.583,0.399,0.95,0.399h8.3
			c0.367,0,0.684-0.133,0.95-0.399c0.267-0.233,0.4-0.533,0.4-0.9v-9.4c0-0.367-0.133-0.667-0.4-0.9
			c-0.267-0.267-0.583-0.4-0.95-0.4h-8.3C59.133,33.6,58.817,33.733,58.55,34z M60.45,40.45c0.267,0,0.5,0.083,0.7,0.25
			c0.2,0.2,0.3,0.434,0.3,0.7s-0.1,0.483-0.3,0.649c-0.2,0.167-0.433,0.25-0.7,0.25c-0.267,0-0.483-0.083-0.65-0.25
			c-0.2-0.2-0.3-0.416-0.3-0.649c0-0.267,0.1-0.5,0.3-0.7C59.967,40.533,60.183,40.45,60.45,40.45z M59.85,46.3l-3.4,3.05
			c-0.233,0.267-0.25,0.5-0.05,0.7c0.233,0.233,0.483,0.233,0.75,0L57.9,49.4h11.45c0.033,0,0.083,0,0.15,0l0.7,0.649
			c0.233,0.233,0.466,0.233,0.7,0s0.233-0.467,0-0.7l-3.4-3.05c-0.233-0.233-0.483-0.233-0.75,0c-0.1,0.134-0.133,0.25-0.1,0.351
			h-5.9c0-0.101-0.067-0.217-0.2-0.351C60.317,46.066,60.083,46.066,59.85,46.3z M59.1,48.3l0.65-0.55h7.9l0.6,0.55H59.1z
			 M53.85,48.85c-1.467-2-2.2-4.316-2.2-6.949c0-3.301,1.184-6.117,3.55-8.45c2.333-2.367,5.15-3.55,8.45-3.55
			c3.333,0,6.167,1.184,8.5,3.55c0.467,0.466,0.883,0.95,1.25,1.45c1.5,2.034,2.25,4.367,2.25,7c0,3.333-1.167,6.166-3.5,8.5
			c-2.333,2.333-5.167,3.5-8.5,3.5c-3.3,0-6.117-1.167-8.45-3.5C54.7,49.9,54.25,49.384,53.85,48.85z M67.3,34.8
			c0.5,0,0.75,0.25,0.75,0.75v2.601c0,0.5-0.25,0.75-0.75,0.75h-3.25V34.8H67.3z M65.9,41.4c0-0.634,0.317-0.95,0.95-0.95
			s0.95,0.316,0.95,0.95c0,0.6-0.316,0.899-0.95,0.899S65.9,42,65.9,41.4z"/>
	</g>
</g>
</svg>
