<?xml version="1.0" encoding="iso-8859-1"?>
<!-- Generator: Adobe Illustrator 16.0.0, SVG Export Plug-In . SVG Version: 6.00 Build 0)  -->
<!DOCTYPE svg PUBLIC "-//W3C//DTD SVG 1.1//EN" "http://www.w3.org/Graphics/SVG/1.1/DTD/svg11.dtd">
<svg version="1.1" id="FlashAICB" xmlns="http://www.w3.org/2000/svg" xmlns:xlink="http://www.w3.org/1999/xlink" x="0px" y="0px"
	 width="168.95px" height="69.983px" viewBox="0 0 168.95 69.983" style="enable-background:new 0 0 168.95 69.983;"
	 xml:space="preserve">
<g>
	<g>
		<path style="fill-rule:evenodd;clip-rule:evenodd;fill:#11120E;" d="M159.35,62.1l0.051-0.6c0-0.233,0-0.5,0-0.8
			c0.199-0.134,0.399-0.3,0.6-0.5c0.767-0.8,1.15-1.75,1.15-2.851V40.9V4.85c0-0.9-0.25-1.684-0.75-2.35
			C160.3,2.333,160.167,2.167,160,2c-0.733-0.733-1.65-1.117-2.75-1.15h0.7c1.133,0,2.083,0.4,2.85,1.2c0.467,0.467,0.8,1,1,1.6
			c0.124,0.309,0.19,0.651,0.2,1.025V7v51.25c0,1.1-0.4,2.05-1.2,2.85C160.366,61.533,159.884,61.866,159.35,62.1z M115.75,62.3
			H4.25h-0.2c-0.6,0-1.15-0.1-1.65-0.3c-0.433-0.233-0.833-0.533-1.2-0.9l-0.05-0.05c-0.033-0.033-0.066-0.066-0.1-0.1
			C0.35,60.184,0,59.283,0,58.25V4.8c0.033-1.1,0.433-2.017,1.2-2.75c0.767-0.8,1.716-1.2,2.85-1.2H4.4
			C3.333,0.883,2.433,1.267,1.7,2C0.9,2.767,0.5,3.717,0.5,4.85v35.1V57.35c0,1.101,0.4,2.051,1.2,2.851l0.55,0.5
			c0.4,0.267,0.833,0.45,1.3,0.55l0.75,0.1c0.067,0,0.133,0,0.2,0h152.65c0.166,0,0.316,0,0.449,0c0.5,0.367,0.917,0.65,1.25,0.851
			c-0.3,0.066-0.6,0.1-0.899,0.1H119.35H115.75z M127.55,34.25c-0.267-0.3-0.533-0.583-0.8-0.85c-2.366-2.333-5.2-3.5-8.5-3.5
			c-3.333,0-6.167,1.167-8.5,3.5c-2.333,2.333-3.5,5.15-3.5,8.45c0,2.733,0.783,5.134,2.35,7.2c-1.833-2.2-2.75-4.767-2.75-7.7
			c0-3.3,1.167-6.116,3.5-8.45c2.334-2.333,5.167-3.5,8.5-3.5c3.334,0,6.167,1.167,8.5,3.5
			C126.783,33.333,127.184,33.783,127.55,34.25z M134.875,38.2c-0.459,0.01-0.851,0.193-1.175,0.55c-0.367,0.4-0.55,0.866-0.55,1.4
			V43.1c0,0.534,0.183,0.983,0.55,1.351c0.324,0.389,0.716,0.589,1.175,0.6H134.6c-0.5,0-0.933-0.2-1.3-0.6
			c-0.366-0.367-0.55-0.816-0.55-1.351V40.15c0-0.534,0.184-1,0.55-1.4c0.367-0.366,0.8-0.55,1.3-0.55H134.875z M145.8,29.55
			c-0.399,0.034-0.767,0.217-1.1,0.55l-1.95,2.1c-0.333,0.367-0.5,0.816-0.5,1.35c0,0.567,0.167,1.017,0.5,1.35l3.05,3.3h-0.35
			l-3.05-3.3c-0.334-0.333-0.5-0.783-0.5-1.35c0-0.533,0.166-0.983,0.5-1.35l1.899-2.1c0.367-0.367,0.8-0.55,1.3-0.55
			C145.667,29.55,145.733,29.55,145.8,29.55z M145.8,53.75c-0.066,0-0.133,0-0.2,0c-0.5,0-0.933-0.2-1.3-0.6L142.4,51.1
			c-0.334-0.366-0.5-0.816-0.5-1.35c0-0.566,0.166-1.033,0.5-1.4l3.05-3.3h0.35l-3.05,3.3c-0.333,0.367-0.5,0.834-0.5,1.4
			c0,0.533,0.167,0.983,0.5,1.35l1.95,2.051C145.033,53.483,145.4,53.684,145.8,53.75z M100.2,34.25
			c-0.267-0.3-0.533-0.583-0.8-0.85c-2.367-2.333-5.2-3.5-8.5-3.5c-3.334,0-6.167,1.167-8.5,3.5c-2.333,2.333-3.5,5.15-3.5,8.45
			c0,2.534,0.684,4.784,2.05,6.75c-1.633-2.066-2.45-4.483-2.45-7.25c0-3.3,1.183-6.116,3.55-8.45c2.334-2.333,5.15-3.5,8.45-3.5
			c3.333,0,6.167,1.167,8.5,3.5C99.434,33.333,99.833,33.783,100.2,34.25z M72.95,34.25c-0.267-0.3-0.534-0.583-0.8-0.85
			c-2.367-2.333-5.2-3.5-8.5-3.5c-3.333,0-6.167,1.167-8.5,3.5c-2.333,2.333-3.5,5.15-3.5,8.45c0,2.534,0.684,4.784,2.05,6.75
			c-1.633-2.066-2.45-4.483-2.45-7.25c0-3.3,1.183-6.116,3.55-8.45c2.333-2.333,5.15-3.5,8.45-3.5c3.333,0,6.167,1.167,8.5,3.5
			C72.183,33.333,72.583,33.783,72.95,34.25z"/>
		<path style="fill-rule:evenodd;clip-rule:evenodd;fill:#515046;" d="M162,7V4.675V4.05c0.2,0.467,0.366,1.1,0.5,1.9
			c0.134,1.133,0.217,1.917,0.25,2.35c0.033,0.267,0.333,1.784,0.9,4.55c0.366,1.8,0.5,3.316,0.399,4.55
			c-0.033,0.7-0.316,1.717-0.85,3.05c-0.033,0.1-0.066,0.2-0.101,0.3c0-0.167,0-0.333,0-0.5c0-0.9-0.133-2.3-0.399-4.2
			c-0.233-1.867-0.351-3.283-0.351-4.25c0-0.833-0.083-2.083-0.25-3.75C162.066,7.683,162.033,7.333,162,7z M163.05,26.2
			c0.2,0.333,0.4,0.816,0.601,1.45c0.267,0.967,0.399,1.983,0.399,3.05c-0.033,0.433-0.05,0.783-0.05,1.05
			c0,0.433,0.033,0.767,0.1,1c0.101,0.333,0.351,0.617,0.75,0.85c0.5,0.3,0.801,0.517,0.9,0.65c0.233,0.333,0.417,0.75,0.55,1.25
			c0.167,1.6,0.351,2.816,0.55,3.65c0.101,0.399,0.217,1.683,0.351,3.85c0.133,1.6,0.416,2.816,0.85,3.65
			c0.066,0.1,0.233,0.316,0.5,0.649c0.134,0.134,0.233,0.4,0.3,0.8c0.2,1.267,0.101,2.384-0.3,3.351c-0.166,0.5-0.6,1.133-1.3,1.899
			c-0.733,0.767-1.184,1.384-1.35,1.851c-0.101,0.3-0.117,0.916-0.051,1.85c0,3,0.051,4.867,0.15,5.601c0.4,2.767,0.5,4.85,0.3,6.25
			c-1.033,0.1-1.95,0-2.75-0.301c-0.666-0.233-2.083-0.533-4.25-0.899c-0.267-0.033-0.934-0.2-2-0.5c-0.767-0.2-1.434-0.3-2-0.3
			c-0.467,0-1.066-0.101-1.8-0.301c-0.866-0.233-1.467-0.366-1.8-0.399c-0.834-0.101-1.851-0.017-3.05,0.25
			c-0.4,0.1-1.134,0.2-2.2,0.3c-0.9,0.1-1.617,0.25-2.15,0.45c-0.566,0.2-1.149,0.566-1.75,1.1c-0.8,0.767-1.316,1.217-1.55,1.351
			c-0.533,0.333-1.217,0.416-2.05,0.25c-0.5-0.134-1.2-0.367-2.101-0.7c-1.233-0.467-2.416-1.217-3.55-2.25
			c-0.633-0.533-1.033-0.851-1.2-0.95c-0.399-0.233-0.883-0.35-1.449-0.35c-0.867,0-2.101,0.116-3.7,0.35
			c-1.733,0.267-2.983,0.4-3.75,0.4c-0.7,0.033-1.417-0.233-2.15-0.801c-0.899-0.666-1.583-1.066-2.05-1.199
			c-0.134-0.034-0.717-0.051-1.75-0.051c-3.733,0.067-6.233,0.184-7.5,0.351c-1.467,0.133-2.566,0.267-3.3,0.399
			c-1.867,0.367-3.117,0.617-3.75,0.75c-1.467,0.367-2.684,0.801-3.65,1.301c-0.333,0.199-0.8,0.466-1.399,0.8
			c-0.5,0.233-1.017,0.283-1.551,0.149c-0.233-0.033-0.6-0.149-1.1-0.35c-0.467-0.167-0.833-0.283-1.1-0.35
			c-0.934-0.167-2.15-0.584-3.65-1.25c-1.7-0.767-2.917-1.25-3.65-1.45c-0.8-0.233-2-0.351-3.6-0.351
			c-1.833,0.034-4.567-0.116-8.2-0.449c-3.8-0.2-8.8-0.217-15-0.051c-7.733,0.2-12.733,0.284-15,0.25
			c-3.433,0-5.883,0.284-7.35,0.851c-0.6,0.233-1.667,1.033-3.2,2.399c-1.233,1.101-2.433,1.634-3.6,1.601
			c-1.533-0.066-3.867-0.9-7-2.5c-1.1-0.533-2.583-0.851-4.45-0.95c-1.067-0.066-2.6-0.134-4.6-0.2c-0.7-0.066-3.033-0.233-7-0.5
			c-3.133-0.5-4.867-1.434-5.2-2.8c0.5,0.2,1.05,0.3,1.65,0.3h0.2c0.233,0.167,0.6,0.3,1.1,0.4c1.1,0.133,1.783,0.217,2.05,0.25
			c2.267,0.566,4,0.899,5.2,1c2.566,0.333,4.5,0.5,5.8,0.5c0.9-0.033,1.567-0.05,2-0.05c0.8-0.034,1.45-0.017,1.95,0.05
			c1.633,0.2,3.267,0.566,4.9,1.1c1.033,0.367,2.233,0.417,3.6,0.15c0.533-0.101,1.717-0.434,3.55-1c3.233-1,7.633-1.5,13.2-1.5
			c12.133-0.167,21.233-0.25,27.3-0.25c5.934-0.167,10.4-0.25,13.4-0.25c1.634,0,4.084,0.133,7.351,0.399
			c3.233,0.233,5.666,0.351,7.3,0.351c2.633,0,4.616-0.101,5.95-0.3c2.399-0.434,4.683-0.717,6.85-0.851h3.6
			c0.4,0.066,0.801,0.184,1.2,0.351c0.334,0.133,0.684,0.216,1.05,0.25c0.4,0,0.733,0.017,1,0.05c1.5,0.133,2.667,0.133,3.5,0
			c1.367-0.233,2.834-0.233,4.4,0c1.533,0.233,2.95,0.633,4.25,1.2c0.934,0.466,1.616,0.783,2.05,0.949
			c0.733,0.267,1.467,0.384,2.2,0.351c0.667-0.033,1.566-0.267,2.7-0.7c1.2-0.434,2.1-0.684,2.7-0.75
			c2.633-0.366,4.6-0.616,5.899-0.75c1.634-0.167,3.75-0.184,6.351-0.05c1.233,0.066,2.233,0.2,3,0.399
			c0.8,0.267,1.35,0.367,1.649,0.301c0.033-0.167,0.066-0.317,0.101-0.45c0.699-0.066,1.1-0.15,1.199-0.25
			c0.167-0.101,0.25-0.517,0.25-1.25c0-1.267,0.134-2.334,0.4-3.2c0-0.066,0.366-1.083,1.1-3.05c0.134-0.4,0.067-1.384-0.199-2.95
			c-0.267-1.434-0.284-2.366-0.051-2.8c0.2-0.334,0.184-0.9-0.05-1.7c-0.3-1.033-0.45-1.634-0.45-1.8c0-0.2,0.101-0.95,0.301-2.25
			c0.166-1,0.166-1.7,0-2.101c-0.267-0.767-0.384-1.8-0.351-3.1c0.066-1.7,0.084-2.733,0.05-3.1c-0.333-3.367-0.517-5.967-0.55-7.8
			C163.05,27.633,163.05,27,163.05,26.2z"/>
		<path style="fill-rule:evenodd;clip-rule:evenodd;fill:#8A8E71;" d="M157.25,0.85H4.4H4.05c-1.133,0-2.083,0.4-2.85,1.2
			C0.433,2.783,0.033,3.7,0,4.8V4.1C0,2.967,0.4,2,1.2,1.2C1.967,0.4,2.917,0,4.05,0h153.9c1.133,0,2.083,0.4,2.85,1.2
			c0.767,0.767,1.167,1.716,1.2,2.85v0.625c-0.01-0.374-0.076-0.716-0.2-1.025c-0.2-0.6-0.533-1.133-1-1.6
			c-0.767-0.8-1.717-1.2-2.85-1.2H157.25z"/>
		<path style="fill-rule:evenodd;clip-rule:evenodd;fill:#3A3932;" d="M119.35,62.3h38.601c0.3,0,0.6-0.033,0.899-0.1
			c0.167,0.133,0.317,0.233,0.45,0.3l0.05-0.4c0.534-0.233,1.017-0.566,1.45-1c0.8-0.8,1.2-1.75,1.2-2.85V7
			c0.033,0.333,0.066,0.683,0.1,1.05c0.167,1.667,0.25,2.917,0.25,3.75c0,0.967,0.117,2.383,0.351,4.25
			c0.267,1.9,0.399,3.3,0.399,4.2c0,0.167,0,0.333,0,0.5c-0.033,2.267-0.05,4.083-0.05,5.45c0,0.8,0,1.433,0,1.9
			c0.033,1.833,0.217,4.433,0.55,7.8c0.034,0.367,0.017,1.4-0.05,3.1c-0.033,1.3,0.084,2.333,0.351,3.1
			c0.166,0.4,0.166,1.101,0,2.101c-0.2,1.3-0.301,2.05-0.301,2.25c0,0.166,0.15,0.767,0.45,1.8c0.233,0.8,0.25,1.366,0.05,1.7
			c-0.233,0.434-0.216,1.366,0.051,2.8c0.267,1.566,0.333,2.55,0.199,2.95c-0.733,1.967-1.1,2.983-1.1,3.05
			c-0.267,0.866-0.4,1.934-0.4,3.2c0,0.733-0.083,1.149-0.25,1.25c-0.1,0.1-0.5,0.184-1.199,0.25
			c-0.034,0.133-0.067,0.283-0.101,0.45c-0.3,0.066-0.85-0.034-1.649-0.301c-0.767-0.199-1.767-0.333-3-0.399
			c-2.601-0.134-4.717-0.117-6.351,0.05c-1.3,0.134-3.267,0.384-5.899,0.75c-0.601,0.066-1.5,0.316-2.7,0.75
			c-1.134,0.434-2.033,0.667-2.7,0.7c-0.733,0.033-1.467-0.084-2.2-0.351c-0.434-0.166-1.116-0.483-2.05-0.949
			c-1.3-0.567-2.717-0.967-4.25-1.2c-1.566-0.233-3.033-0.233-4.4,0c-0.833,0.133-2,0.133-3.5,0c-0.267-0.033-0.6-0.05-1-0.05
			c-0.366-0.034-0.716-0.117-1.05-0.25C120.15,62.483,119.75,62.366,119.35,62.3z M4.25,62.3h111.5
			c-2.167,0.134-4.45,0.417-6.85,0.851c-1.334,0.199-3.317,0.3-5.95,0.3c-1.634,0-4.066-0.117-7.3-0.351
			C92.384,62.833,89.934,62.7,88.3,62.7c-3,0-7.466,0.083-13.4,0.25c-6.066,0-15.167,0.083-27.3,0.25c-5.567,0-9.967,0.5-13.2,1.5
			c-1.833,0.566-3.017,0.899-3.55,1c-1.367,0.267-2.567,0.217-3.6-0.15c-1.633-0.533-3.267-0.899-4.9-1.1
			c-0.5-0.066-1.15-0.084-1.95-0.05c-0.433,0-1.1,0.017-2,0.05c-1.3,0-3.233-0.167-5.8-0.5c-1.2-0.101-2.934-0.434-5.2-1
			c-0.267-0.033-0.95-0.117-2.05-0.25C4.85,62.6,4.483,62.467,4.25,62.3z"/>
		
			<radialGradient id="SVGID_1_" cx="80.8252" cy="-1.9502" r="81.2158" gradientTransform="matrix(1 0 0 -1 0 -3.9004)" gradientUnits="userSpaceOnUse">
			<stop  offset="0" style="stop-color:#3E4234"/>
			<stop  offset="1" style="stop-color:#1B1C16"/>
		</radialGradient>
		<path style="fill-rule:evenodd;clip-rule:evenodd;fill:url(#SVGID_1_);" d="M4.4,0.85h152.85c1.1,0.033,2.017,0.417,2.75,1.15
			c0.167,0.167,0.3,0.333,0.4,0.5c0.5,0.667,0.75,1.45,0.75,2.35V40.9c-1.067,2.666-2.434,4.983-4.101,6.949l-2.899,2.9
			c-0.5,0.533-1.2,1.283-2.101,2.25c-0.767,0.8-1.55,1.417-2.35,1.85c-0.934,0.467-1.517,0.7-1.75,0.7c-0.2,0-0.45-0.05-0.75-0.149
			c-0.267-0.101-0.55-0.117-0.851-0.051c-0.199,0.034-0.433,0.15-0.699,0.351c-0.334,0.2-0.584,0.316-0.75,0.35
			c-0.5,0.134-1.351,0.134-2.551,0c-0.6,0-1.433-0.1-2.5-0.3c-0.1,0-0.316,0.033-0.649,0.1c-0.267,0-0.467-0.033-0.601-0.1
			c-0.166-0.1-0.283-0.3-0.35-0.6c-0.033-0.301-0.1-0.5-0.2-0.601c-0.3-0.399-0.8-0.75-1.5-1.05c-0.3-0.233-0.55-0.616-0.75-1.15
			c-0.166-0.533-0.383-0.883-0.649-1.05c-0.2-0.133-0.65-0.184-1.351-0.149c-0.366,0.033-0.85,0.066-1.45,0.1
			c-0.633,0.066-1.3,0.3-2,0.7c-0.933,0.533-2.25,1.366-3.949,2.5c-1.4,0.833-3,1.316-4.801,1.45c-0.333,0.033-2,0-5-0.101
			c-2.166-0.066-3.583-0.217-4.25-0.45l-3.199-1.05c-1.233-0.366-2.483-0.866-3.75-1.5c-0.034-0.033-0.284-0.233-0.75-0.6
			c-0.367-0.334-0.617-0.483-0.75-0.45c-0.233,0-0.617,0.483-1.15,1.45c-0.4,0.467-0.983,0.883-1.75,1.25
			c-0.467,0.2-1.167,0.483-2.1,0.85c-0.867,0.367-2.584,0.767-5.15,1.2c-0.733,0.134-1.667,0.134-2.8,0
			c-1.5-0.134-2.417-0.2-2.75-0.2c-0.4,0-1.05-0.017-1.95-0.05c-0.733-0.033-1.35-0.184-1.85-0.45l-0.25-0.25
			c-0.367,0.033-0.717-0.05-1.05-0.25c-0.1,0.2-0.267,0.316-0.5,0.351c-0.267,0.033-0.434,0.083-0.5,0.149
			c-0.167,0.167-0.4,0.434-0.7,0.8c-0.267,0.167-0.75,0.284-1.45,0.351c-0.7,0.033-1.2,0.149-1.5,0.35c1.7-0.066,3.983,0,6.85,0.2
			c1.033,0.066,1.967,0.116,2.8,0.15c-0.033,0.066-0.083,0.1-0.149,0.1c-0.167,0-0.967-0.017-2.4-0.05
			c-1.033,0-1.833,0.083-2.4,0.25c-0.433,0.166-0.983,0.399-1.65,0.7c-0.6,0.233-1.217,0.333-1.85,0.3c-0.2,0-1-0.017-2.4-0.05
			c-1.033-0.034-1.85-0.101-2.45-0.2c-0.367-0.066-0.833-0.217-1.4-0.45c-0.6-0.134-1.55-0.15-2.85-0.05
			c-0.533-0.033-1.233-0.184-2.1-0.45c-1-0.333-1.684-0.533-2.05-0.6c-1.7-0.267-4.467-0.25-8.3,0.05c-0.6,0-1.633,0.05-3.1,0.149
			c-1.333,0.067-2.35-0.017-3.05-0.25c0-0.433,0.05-0.733,0.15-0.899c-1.067-0.101-2.05-0.084-2.95,0.05
			c-0.033,0.167,0.033,0.483,0.2,0.95c0.1,0.3-0.05,0.55-0.45,0.75c-0.4,0.233-1.066,0.25-2,0.05c-0.5-0.1-1.167-0.233-2-0.4
			L42.2,57.7c-0.534-0.033-1.25-0.134-2.15-0.3c-0.433-0.067-1.15-0.051-2.15,0.05c-0.1,0-0.566-0.066-1.4-0.2
			c-0.567-0.066-1.017-0.066-1.35,0c-0.267,0.033-0.733,0.184-1.4,0.45c-0.533,0.166-1,0.25-1.4,0.25H26.1
			c-0.8,0-1.434-0.117-1.9-0.351c-0.167-0.1-0.383-0.25-0.65-0.449c-0.233-0.134-0.45-0.184-0.65-0.15c-0.1,0.033-0.3,0.167-0.6,0.4
			c-0.333,0.3-0.566,0.466-0.7,0.5c-0.434,0.133-0.934,0.233-1.5,0.3c-0.633,0.066-1.883-0.084-3.75-0.45
			c-0.7-0.134-2.184-0.134-4.45,0c-1.867,0.1-3.283-0.083-4.25-0.55c-0.467-0.3-0.816-0.467-1.05-0.5c-0.033,0-0.283,0-0.75,0
			c-0.3,0-0.533-0.084-0.7-0.25c-0.1-0.134-0.117-0.483-0.05-1.05c-0.167-0.567-0.467-1.034-0.9-1.4
			c-0.233,1.2-0.817,1.917-1.75,2.15c-0.133-0.467-0.2-1.134-0.2-2c-0.033-0.934-0.083-1.601-0.15-2c-0.133,0.3-0.367,0.466-0.7,0.5
			c-0.066-0.5-0.05-1.284,0.05-2.351c0.1-1.033,0.1-1.833,0-2.399c-0.233-1.301-0.333-2.351-0.3-3.15c0-0.467-0.066-1.4-0.2-2.8
			c-0.1-1.167-0.117-2.084-0.05-2.75l-0.4,0.75V4.85C0.5,3.717,0.9,2.767,1.7,2C2.433,1.267,3.333,0.883,4.4,0.85z M108.6,49.05
			c0.334,0.434,0.717,0.867,1.15,1.3c2.333,2.334,5.167,3.5,8.5,3.5c3.3,0,6.134-1.166,8.5-3.5c2.333-2.333,3.5-5.166,3.5-8.5
			c0-2.899-0.9-5.433-2.7-7.6c-0.366-0.467-0.767-0.917-1.2-1.35c-2.333-2.333-5.166-3.5-8.5-3.5c-3.333,0-6.166,1.167-8.5,3.5
			c-2.333,2.333-3.5,5.15-3.5,8.45C105.85,44.283,106.767,46.85,108.6,49.05z M134.875,45.05h10.575l-3.05,3.3
			c-0.334,0.367-0.5,0.834-0.5,1.4c0,0.533,0.166,0.983,0.5,1.35l1.899,2.051c0.367,0.399,0.8,0.6,1.3,0.6c0.067,0,0.134,0,0.2,0
			s0.134,0,0.2,0c0.5,0,0.917-0.2,1.25-0.6l9.35-10.101c0.334-0.366,0.5-0.85,0.5-1.45c0-0.566-0.166-1.033-0.5-1.399l-9.35-10.1
			c-0.333-0.367-0.75-0.55-1.25-0.55c-0.066,0-0.134,0-0.2,0s-0.133,0-0.2,0c-0.5,0-0.933,0.184-1.3,0.55l-1.899,2.1
			c-0.334,0.367-0.5,0.816-0.5,1.35c0,0.567,0.166,1.017,0.5,1.35l3.05,3.3h-10.575H134.6c-0.5,0-0.933,0.184-1.3,0.55
			c-0.366,0.4-0.55,0.866-0.55,1.4V43.1c0,0.534,0.184,0.983,0.55,1.351c0.367,0.399,0.8,0.6,1.3,0.6H134.875z M84.5,11.75
			c-0.4,0-0.8,0.083-1.2,0.25c-0.367,0.2-0.667,0.467-0.9,0.8h-0.05V8.6H80.1v10.65h2.25V14.9l0.1-0.5
			c0.167-0.533,0.55-0.8,1.15-0.8c0.766,0,1.15,0.533,1.15,1.6v4.05h2.3v-4.3c0-1.067-0.25-1.867-0.75-2.4
			C85.866,12.017,85.267,11.75,84.5,11.75z M96.85,11.9H94.6v7.35h2.25V11.9z M93.4,11.75l-0.5-0.05c-0.967,0-1.634,0.517-2,1.55
			H90.85l-0.1-1.35H88.8l0.101,7.35h2.25V15.5L91.2,15c0.166-0.767,0.684-1.15,1.55-1.15l0.65,0.05V11.75z M94.85,10.65
			C95.083,10.883,95.366,11,95.7,11c0.366,0,0.666-0.117,0.899-0.35c0.233-0.2,0.351-0.467,0.351-0.8
			c-0.066-0.767-0.467-1.15-1.2-1.15c-0.366,0-0.667,0.117-0.9,0.35c-0.233,0.2-0.35,0.467-0.35,0.8
			C94.5,10.183,94.616,10.45,94.85,10.65z M108.5,13.8c0.267-0.367,0.616-0.55,1.05-0.55c0.867,0,1.3,0.5,1.3,1.5h-2.699
			C108.184,14.383,108.3,14.067,108.5,13.8z M110.25,17.7c-1.3,0-2-0.467-2.1-1.4h4.75l0.05-0.9c0-1-0.25-1.833-0.75-2.5
			c-0.566-0.767-1.4-1.15-2.5-1.15c-1.2,0-2.134,0.417-2.8,1.25c-0.601,0.733-0.9,1.617-0.9,2.65c0,1.167,0.333,2.083,1,2.75
			c0.7,0.667,1.667,1,2.9,1c1.066,0,1.949-0.167,2.649-0.5l-0.3-1.5C111.65,17.6,110.983,17.7,110.25,17.7z M105.6,11.9H103.2
			l-1.351,5.2h-0.05l-1.399-5.2h-2.5l2.699,7.35h2.25L105.6,11.9z M80.95,48.6c0.4,0.601,0.883,1.184,1.45,1.75
			c2.333,2.334,5.167,3.5,8.5,3.5c3.3,0,6.133-1.166,8.5-3.5c2.333-2.333,3.5-5.166,3.5-8.5c0-2.899-0.9-5.433-2.7-7.6
			c-0.367-0.467-0.767-0.917-1.2-1.35c-2.333-2.333-5.167-3.5-8.5-3.5c-3.3,0-6.116,1.167-8.45,3.5
			c-2.367,2.333-3.55,5.15-3.55,8.45C78.5,44.116,79.317,46.533,80.95,48.6z M113.05,57.9c-0.633,0.199-1.75,0.3-3.35,0.3H93.35
			c-0.333,0-0.899,0.033-1.699,0.1c-0.733,0.033-1.301,0-1.7-0.1c-0.134-0.033-0.367-0.15-0.7-0.351
			c-0.1-0.066-0.167-0.116-0.2-0.149c1.334,0.066,2.367,0.1,3.101,0.1c4.233-0.166,7.399-0.25,9.5-0.25h11.699
			C113.25,57.65,113.15,57.767,113.05,57.9z M114.25,57.55h0.85c-0.066,0.066-0.133,0.101-0.199,0.101
			C114.767,57.65,114.55,57.616,114.25,57.55z M115.95,57.55h8.2c5.033,0.167,8.8,0.25,11.3,0.25c0.3,0,2.666,0.033,7.1,0.101
			c2.9,0.033,5.267-0.034,7.101-0.2c1.066-0.167,1.883-0.233,2.449-0.2c0.267,0.033,0.934,0.434,2,1.2c-0.3,0.033-0.633,0.05-1,0.05
			c-0.533-0.033-1.267-0.066-2.199-0.1c-0.634,0.066-1.517,0.233-2.65,0.5c-1.233,0.3-2.134,0.483-2.7,0.55
			c-0.934,0.133-2.166,0.166-3.7,0.1c-0.833,0-2.066-0.033-3.699-0.1c-0.567,0-2.267-0.167-5.101-0.5
			c-0.366-0.066-0.616-0.084-0.75-0.05l-0.649,0.25c-0.601,0.1-1.267,0.116-2,0.05c-0.634-0.033-1.284-0.283-1.95-0.75
			c-1.134-0.434-2.816-0.5-5.05-0.2c-1.034,0.134-2.601,0.2-4.7,0.2c-0.2,0-0.483,0.017-0.851,0.05
			c-0.333-0.033-0.583-0.116-0.75-0.25c-0.1-0.1-0.199-0.333-0.3-0.7C116.017,57.7,115.983,57.616,115.95,57.55z M56.8,16.55
			l-0.05,0.4c-0.2,0.566-0.6,0.85-1.2,0.85c-0.6,0-0.9-0.283-0.9-0.85c0-0.8,0.717-1.2,2.15-1.2V16.55z M56.7,14.25v0.1
			c-2.867,0-4.3,0.933-4.3,2.8c0,0.6,0.217,1.117,0.65,1.55c0.434,0.466,1.017,0.7,1.75,0.7c0.9,0,1.6-0.3,2.1-0.9h0.05l0.1,0.75
			h2.05L59,14.9c0-2.133-1.067-3.2-3.2-3.2c-1.133,0-2.083,0.233-2.85,0.7l0.4,1.45c0.6-0.367,1.283-0.55,2.05-0.55
			C56.267,13.3,56.7,13.617,56.7,14.25z M46.75,11.9h-2.5l2.7,7.35h2.25l2.75-7.35h-2.4l-1.35,5.2h-0.05L46.75,11.9z M43.2,11.9
			h-2.25v4.35l-0.1,0.5c-0.233,0.533-0.617,0.8-1.15,0.8c-0.767,0-1.15-0.566-1.15-1.7V11.9h-2.3v4.3c0,2.133,0.867,3.2,2.6,3.2
			c1,0,1.767-0.4,2.3-1.2h0.05l0.1,1.05h2L43.2,11.9z M62.75,11.9h-2l0.05,7.35h2.3V15l0.05-0.55c0.267-0.567,0.667-0.85,1.2-0.85
			c0.767,0,1.15,0.517,1.15,1.55v4.1h2.25V14.9c0-1.033-0.25-1.833-0.75-2.4c-0.433-0.5-1.05-0.75-1.85-0.75
			c-1,0-1.75,0.383-2.25,1.15h-0.05L62.75,11.9z M79.15,11.05v-1.9h-7.8v1.9h2.75v8.2h2.25v-8.2H79.15z M53.7,48.6
			c0.4,0.601,0.883,1.184,1.45,1.75c2.333,2.334,5.167,3.5,8.5,3.5c3.3,0,6.133-1.166,8.5-3.5c2.333-2.333,3.5-5.166,3.5-8.5
			c0-2.899-0.9-5.433-2.7-7.6c-0.367-0.467-0.767-0.917-1.2-1.35c-2.333-2.333-5.167-3.5-8.5-3.5c-3.3,0-6.117,1.167-8.45,3.5
			c-2.367,2.333-3.55,5.15-3.55,8.45C51.25,44.116,52.067,46.533,53.7,48.6z M14.05,11.05h2.75v-1.9H9v1.9h2.75v8.2h2.3V11.05z
			 M28.8,11.9h-2.25v7.35h2.25V11.9z M22.15,11.75c-0.4,0-0.8,0.083-1.2,0.25c-0.367,0.2-0.667,0.467-0.9,0.8V8.6h-2.3v10.65h2.3
			V14.9l0.05-0.5c0.167-0.533,0.55-0.8,1.15-0.8c0.8,0,1.2,0.533,1.2,1.6v4.05h2.25v-4.3c0-1.067-0.25-1.867-0.75-2.4
			C23.517,12.017,22.917,11.75,22.15,11.75z M28.9,9.85c0-0.767-0.4-1.15-1.2-1.15c-0.8,0-1.2,0.383-1.2,1.15S26.883,11,27.65,11
			C28.483,11,28.9,10.617,28.9,9.85z M32.55,11.9H30.6l0.05,7.35h2.3V15c0.167-0.767,0.7-1.15,1.6-1.15l0.6,0.05v-2.15l-0.5-0.05
			c-0.967,0-1.617,0.517-1.95,1.55h-0.05L32.55,11.9z"/>
		<path style="fill-rule:evenodd;clip-rule:evenodd;fill:#58763E;" d="M127.55,34.25c1.8,2.167,2.7,4.7,2.7,7.6
			c0,3.334-1.167,6.167-3.5,8.5c-2.366,2.334-5.2,3.5-8.5,3.5c-3.333,0-6.167-1.166-8.5-3.5c-0.434-0.433-0.816-0.866-1.15-1.3
			c-1.566-2.066-2.35-4.467-2.35-7.2c0-3.3,1.167-6.116,3.5-8.45c2.333-2.333,5.167-3.5,8.5-3.5c3.3,0,6.134,1.167,8.5,3.5
			C127.017,33.667,127.283,33.95,127.55,34.25z M126.05,37.8v-2.9H111.15v2.9h5.25v12.5h4.35V37.8H126.05z"/>
		<path style="fill-rule:evenodd;clip-rule:evenodd;fill:#F1EFCD;" d="M145.45,45.05h-10.575c-0.459-0.011-0.851-0.211-1.175-0.6
			c-0.367-0.367-0.55-0.816-0.55-1.351V40.15c0-0.534,0.183-1,0.55-1.4c0.324-0.356,0.716-0.54,1.175-0.55h10.575h0.35l-3.05-3.3
			c-0.333-0.333-0.5-0.783-0.5-1.35c0-0.533,0.167-0.983,0.5-1.35l1.95-2.1c0.333-0.333,0.7-0.517,1.1-0.55c0.066,0,0.134,0,0.2,0
			c0.5,0,0.917,0.184,1.25,0.55l9.35,10.1c0.334,0.366,0.5,0.833,0.5,1.399c0,0.601-0.166,1.084-0.5,1.45l-9.35,10.101
			c-0.333,0.399-0.75,0.6-1.25,0.6c-0.066,0-0.134,0-0.2,0c-0.399-0.066-0.767-0.267-1.1-0.6l-1.95-2.051
			c-0.333-0.366-0.5-0.816-0.5-1.35c0-0.566,0.167-1.033,0.5-1.4l3.05-3.3H145.45z M126.05,37.8h-5.3v12.5h-4.35V37.8h-5.25v-2.9
			h14.899V37.8z M87.7,42.25c0.633,0,0.95-0.3,0.95-0.9c0-0.267-0.084-0.483-0.25-0.649c-0.2-0.2-0.434-0.3-0.7-0.3
			s-0.5,0.1-0.7,0.3c-0.167,0.166-0.25,0.383-0.25,0.649C86.75,41.95,87.066,42.25,87.7,42.25z M90.5,34.8h-3.25
			c-0.5,0-0.75,0.233-0.75,0.7v2.6c0,0.5,0.25,0.75,0.75,0.75h3.25V34.8z M95.3,35.5c0-0.467-0.25-0.7-0.75-0.7H91.3v4.05h3.25
			c0.2,0,0.384-0.066,0.55-0.199c0.134-0.167,0.2-0.351,0.2-0.551V35.5z M95.05,33.65c0.367,0,0.684,0.117,0.95,0.35
			s0.4,0.517,0.4,0.85v9.4c0,0.366-0.134,0.684-0.4,0.95c-0.267,0.233-0.583,0.35-0.95,0.35h-8.3c-0.366,0-0.684-0.116-0.95-0.35
			c-0.267-0.267-0.399-0.584-0.399-0.95v-9.4c0-0.333,0.133-0.617,0.399-0.85s0.584-0.35,0.95-0.35H95.05z M86.3,48.3h9.2l-0.6-0.55
			h-8L86.3,48.3z M93.1,41.35c0,0.267,0.101,0.483,0.301,0.65c0.199,0.167,0.433,0.25,0.699,0.25s0.483-0.083,0.65-0.25
			c0.2-0.2,0.3-0.417,0.3-0.65s-0.1-0.449-0.3-0.649c-0.167-0.2-0.384-0.3-0.65-0.3s-0.5,0.1-0.699,0.3
			C93.2,40.866,93.1,41.083,93.1,41.35z M87.8,46.25c0.101,0.134,0.15,0.25,0.15,0.35h5.899c0-0.1,0.051-0.216,0.15-0.35
			c0.267-0.2,0.5-0.2,0.7,0L98.1,49.3c0.267,0.267,0.284,0.5,0.051,0.7c-0.2,0.2-0.45,0.217-0.75,0.05L96.7,49.4
			c-0.033,0-0.066,0-0.101,0H85.1l-0.75,0.649c-0.233,0.2-0.466,0.184-0.7-0.05s-0.233-0.467,0-0.7l3.4-3.05
			C87.25,46.05,87.5,46.05,87.8,46.25z M59.5,41.35c0,0.601,0.317,0.9,0.95,0.9c0.267,0,0.5-0.083,0.7-0.25
			c0.167-0.167,0.25-0.384,0.25-0.65s-0.083-0.483-0.25-0.649c-0.2-0.2-0.433-0.3-0.7-0.3c-0.267,0-0.5,0.1-0.7,0.3
			C59.583,40.866,59.5,41.083,59.5,41.35z M60,34.8c-0.5,0-0.75,0.233-0.75,0.7v2.6c0,0.5,0.25,0.75,0.75,0.75h3.25V34.8H60z
			 M58.55,34c0.267-0.233,0.583-0.35,0.95-0.35h8.3c0.367,0,0.684,0.117,0.95,0.35s0.4,0.517,0.4,0.85v9.4
			c0,0.366-0.133,0.684-0.4,0.95c-0.267,0.233-0.583,0.35-0.95,0.35h-8.3c-0.367,0-0.683-0.116-0.95-0.35
			c-0.267-0.267-0.4-0.584-0.4-0.95v-9.4C58.15,34.517,58.283,34.233,58.55,34z M60.55,46.25c0.1,0.134,0.15,0.25,0.15,0.35h5.9
			c0-0.1,0.05-0.216,0.15-0.35c0.267-0.2,0.5-0.2,0.7,0l3.4,3.05c0.267,0.267,0.283,0.5,0.05,0.7c-0.2,0.2-0.45,0.217-0.75,0.05
			l-0.7-0.649c-0.034,0-0.067,0-0.1,0h-11.5L57.1,50.05c-0.233,0.2-0.467,0.184-0.7-0.05s-0.233-0.467,0-0.7l3.4-3.05
			C60,46.05,60.25,46.05,60.55,46.25z M59.05,48.3h9.2l-0.6-0.55h-8L59.05,48.3z M67.8,41.35c0-0.233-0.1-0.449-0.3-0.649
			c-0.167-0.2-0.383-0.3-0.65-0.3s-0.5,0.1-0.7,0.3c-0.2,0.166-0.3,0.383-0.3,0.649s0.1,0.483,0.3,0.65
			c0.2,0.167,0.434,0.25,0.7,0.25s0.483-0.083,0.65-0.25C67.7,41.8,67.8,41.583,67.8,41.35z M67.3,34.8h-3.25v4.05h3.25
			c0.2,0,0.383-0.066,0.55-0.199c0.133-0.167,0.2-0.351,0.2-0.551v-2.6C68.05,35.033,67.8,34.8,67.3,34.8z"/>
		<path style="fill-rule:evenodd;clip-rule:evenodd;fill:#131410;" d="M159.35,62.1l-0.05,0.4c-0.133-0.066-0.283-0.167-0.45-0.3
			c-0.333-0.2-0.75-0.483-1.25-0.851c-0.133,0-0.283,0-0.449,0H4.5c-0.067,0-0.133,0-0.2,0l-0.75-0.1c-0.466-0.1-0.9-0.283-1.3-0.55
			L1.7,60.2c-0.8-0.8-1.2-1.75-1.2-2.851V39.95l0.4-0.75c-0.066,0.666-0.05,1.583,0.05,2.75c0.133,1.399,0.2,2.333,0.2,2.8
			c-0.033,0.8,0.067,1.85,0.3,3.15c0.1,0.566,0.1,1.366,0,2.399c-0.1,1.066-0.117,1.851-0.05,2.351c0.333-0.034,0.567-0.2,0.7-0.5
			c0.066,0.399,0.117,1.066,0.15,2c0,0.866,0.067,1.533,0.2,2C3.383,55.917,3.967,55.2,4.2,54c0.433,0.366,0.733,0.833,0.9,1.4
			c-0.067,0.566-0.05,0.916,0.05,1.05c0.167,0.166,0.4,0.25,0.7,0.25c0.467,0,0.717,0,0.75,0c0.233,0.033,0.583,0.2,1.05,0.5
			c0.967,0.467,2.383,0.649,4.25,0.55c2.267-0.134,3.75-0.134,4.45,0c1.867,0.366,3.117,0.517,3.75,0.45
			c0.566-0.066,1.066-0.167,1.5-0.3c0.133-0.034,0.367-0.2,0.7-0.5c0.3-0.233,0.5-0.367,0.6-0.4c0.2-0.033,0.417,0.017,0.65,0.15
			c0.267,0.199,0.483,0.35,0.65,0.449c0.466,0.233,1.1,0.351,1.9,0.351h6.25c0.4,0,0.867-0.084,1.4-0.25
			c0.667-0.267,1.133-0.417,1.4-0.45c0.333-0.066,0.783-0.066,1.35,0c0.833,0.134,1.3,0.2,1.4,0.2c1-0.101,1.717-0.117,2.15-0.05
			c0.9,0.166,1.617,0.267,2.15,0.3l2.7-0.101c0.833,0.167,1.5,0.301,2,0.4c0.934,0.2,1.6,0.184,2-0.05c0.4-0.2,0.55-0.45,0.45-0.75
			c-0.167-0.467-0.233-0.783-0.2-0.95c0.9-0.134,1.883-0.15,2.95-0.05c-0.1,0.166-0.15,0.467-0.15,0.899
			c0.7,0.233,1.716,0.317,3.05,0.25c1.467-0.1,2.5-0.149,3.1-0.149c3.833-0.3,6.6-0.316,8.3-0.05c0.367,0.066,1.05,0.267,2.05,0.6
			c0.867,0.267,1.566,0.417,2.1,0.45c1.3-0.101,2.25-0.084,2.85,0.05c0.567,0.233,1.033,0.384,1.4,0.45
			c0.6,0.1,1.417,0.166,2.45,0.2c1.4,0.033,2.2,0.05,2.4,0.05c0.633,0.033,1.25-0.066,1.85-0.3c0.667-0.301,1.217-0.534,1.65-0.7
			c0.567-0.167,1.367-0.25,2.4-0.25c1.434,0.033,2.233,0.05,2.4,0.05c0.066,0,0.116-0.033,0.149-0.1
			c-0.833-0.034-1.767-0.084-2.8-0.15c-2.867-0.2-5.15-0.267-6.85-0.2c0.3-0.2,0.8-0.316,1.5-0.35c0.7-0.066,1.183-0.184,1.45-0.351
			c0.3-0.366,0.533-0.633,0.7-0.8c0.066-0.066,0.233-0.116,0.5-0.149c0.233-0.034,0.4-0.15,0.5-0.351
			c0.333,0.2,0.683,0.283,1.05,0.25l0.25,0.25c0.5,0.267,1.116,0.417,1.85,0.45c0.9,0.033,1.55,0.05,1.95,0.05
			c0.333,0,1.25,0.066,2.75,0.2c1.133,0.134,2.066,0.134,2.8,0c2.566-0.434,4.283-0.833,5.15-1.2c0.933-0.366,1.633-0.649,2.1-0.85
			c0.767-0.367,1.35-0.783,1.75-1.25c0.533-0.967,0.917-1.45,1.15-1.45c0.133-0.033,0.383,0.116,0.75,0.45
			c0.466,0.366,0.716,0.566,0.75,0.6c1.267,0.634,2.517,1.134,3.75,1.5l3.199,1.05c0.667,0.233,2.084,0.384,4.25,0.45
			c3,0.101,4.667,0.134,5,0.101c1.801-0.134,3.4-0.617,4.801-1.45c1.699-1.134,3.017-1.967,3.949-2.5c0.7-0.4,1.367-0.634,2-0.7
			c0.601-0.033,1.084-0.066,1.45-0.1c0.7-0.034,1.15,0.017,1.351,0.149c0.267,0.167,0.483,0.517,0.649,1.05
			c0.2,0.534,0.45,0.917,0.75,1.15c0.7,0.3,1.2,0.65,1.5,1.05c0.101,0.101,0.167,0.3,0.2,0.601c0.066,0.3,0.184,0.5,0.35,0.6
			c0.134,0.066,0.334,0.1,0.601,0.1c0.333-0.066,0.55-0.1,0.649-0.1c1.067,0.2,1.9,0.3,2.5,0.3c1.2,0.134,2.051,0.134,2.551,0
			c0.166-0.033,0.416-0.149,0.75-0.35c0.267-0.2,0.5-0.316,0.699-0.351c0.301-0.066,0.584-0.05,0.851,0.051
			c0.3,0.1,0.55,0.149,0.75,0.149c0.233,0,0.816-0.233,1.75-0.7c0.8-0.433,1.583-1.05,2.35-1.85c0.9-0.967,1.601-1.717,2.101-2.25
			l2.899-2.9c1.667-1.966,3.033-4.283,4.101-6.949V57.35c0,1.101-0.384,2.051-1.15,2.851c-0.2,0.2-0.4,0.366-0.6,0.5
			c0,0.3,0,0.566,0,0.8L159.35,62.1z M115.95,57.55c0.033,0.066,0.066,0.15,0.1,0.25c0.101,0.367,0.2,0.601,0.3,0.7
			c0.167,0.134,0.417,0.217,0.75,0.25c0.367-0.033,0.65-0.05,0.851-0.05c2.1,0,3.666-0.066,4.7-0.2c2.233-0.3,3.916-0.233,5.05,0.2
			c0.666,0.467,1.316,0.717,1.95,0.75c0.733,0.066,1.399,0.05,2-0.05l0.649-0.25c0.134-0.034,0.384-0.017,0.75,0.05
			c2.834,0.333,4.533,0.5,5.101,0.5c1.633,0.066,2.866,0.1,3.699,0.1c1.534,0.066,2.767,0.033,3.7-0.1
			c0.566-0.066,1.467-0.25,2.7-0.55c1.134-0.267,2.017-0.434,2.65-0.5c0.933,0.033,1.666,0.066,2.199,0.1c0.367,0,0.7-0.017,1-0.05
			c-1.066-0.767-1.733-1.167-2-1.2c-0.566-0.033-1.383,0.033-2.449,0.2c-1.834,0.166-4.2,0.233-7.101,0.2
			c-4.434-0.067-6.8-0.101-7.1-0.101c-2.5,0-6.267-0.083-11.3-0.25H115.95z M114.25,57.55c0.3,0.066,0.517,0.101,0.65,0.101
			c0.066,0,0.133-0.034,0.199-0.101H114.25z M113.05,57.9c0.101-0.134,0.2-0.25,0.3-0.351H101.65c-2.101,0-5.267,0.084-9.5,0.25
			c-0.733,0-1.767-0.033-3.101-0.1c0.033,0.033,0.101,0.083,0.2,0.149c0.333,0.2,0.566,0.317,0.7,0.351
			c0.399,0.1,0.967,0.133,1.7,0.1c0.8-0.066,1.366-0.1,1.699-0.1H109.7C111.3,58.2,112.417,58.1,113.05,57.9z"/>
		<path style="fill-rule:evenodd;clip-rule:evenodd;fill:#FFFFFF;" d="M105.6,11.9l-2.75,7.35h-2.25L97.9,11.9h2.5l1.399,5.2h0.05
			l1.351-5.2H105.6z M110.25,17.7c0.733,0,1.4-0.1,2-0.3l0.3,1.5c-0.7,0.333-1.583,0.5-2.649,0.5c-1.233,0-2.2-0.333-2.9-1
			c-0.667-0.667-1-1.583-1-2.75c0-1.033,0.3-1.917,0.9-2.65c0.666-0.833,1.6-1.25,2.8-1.25c1.1,0,1.934,0.383,2.5,1.15
			c0.5,0.667,0.75,1.5,0.75,2.5l-0.05,0.9h-4.75C108.25,17.233,108.95,17.7,110.25,17.7z M108.5,13.8
			c-0.2,0.267-0.316,0.583-0.35,0.95h2.699c0-1-0.433-1.5-1.3-1.5C109.116,13.25,108.767,13.433,108.5,13.8z M94.85,10.65
			c-0.233-0.2-0.35-0.467-0.35-0.8c0-0.333,0.116-0.6,0.35-0.8c0.233-0.233,0.534-0.35,0.9-0.35c0.733,0,1.134,0.383,1.2,1.15
			c0,0.333-0.117,0.6-0.351,0.8C96.366,10.883,96.066,11,95.7,11C95.366,11,95.083,10.883,94.85,10.65z M93.4,11.75v2.15l-0.65-0.05
			c-0.866,0-1.384,0.383-1.55,1.15l-0.05,0.5v3.75H88.9L88.8,11.9h1.95l0.1,1.35H90.9c0.366-1.033,1.033-1.55,2-1.55L93.4,11.75z
			 M96.85,11.9v7.35H94.6V11.9H96.85z M84.5,11.75c0.767,0,1.366,0.267,1.8,0.8c0.5,0.534,0.75,1.333,0.75,2.4v4.3h-2.3V15.2
			c0-1.067-0.384-1.6-1.15-1.6c-0.6,0-0.983,0.267-1.15,0.8l-0.1,0.5v4.35H80.1V8.6h2.25v4.2h0.05c0.233-0.333,0.533-0.6,0.9-0.8
			C83.7,11.833,84.1,11.75,84.5,11.75z M79.15,11.05h-2.8v8.2H74.1v-8.2h-2.75v-1.9h7.8V11.05z M62.75,11.9l0.1,1h0.05
			c0.5-0.767,1.25-1.15,2.25-1.15c0.8,0,1.417,0.25,1.85,0.75c0.5,0.567,0.75,1.367,0.75,2.4v4.35H65.5v-4.1
			c0-1.033-0.383-1.55-1.15-1.55c-0.533,0-0.934,0.283-1.2,0.85L63.1,15v4.25h-2.3l-0.05-7.35H62.75z M43.2,11.9l0.1,7.35h-2
			l-0.1-1.05h-0.05c-0.533,0.8-1.3,1.2-2.3,1.2c-1.733,0-2.6-1.066-2.6-3.2v-4.3h2.3v3.95c0,1.133,0.383,1.7,1.15,1.7
			c0.533,0,0.917-0.267,1.15-0.8l0.1-0.5V11.9H43.2z M46.75,11.9l1.4,5.2h0.05l1.35-5.2h2.4l-2.75,7.35h-2.25l-2.7-7.35H46.75z
			 M56.7,14.25c0-0.633-0.434-0.95-1.3-0.95c-0.767,0-1.45,0.184-2.05,0.55l-0.4-1.45c0.767-0.467,1.716-0.7,2.85-0.7
			c2.133,0,3.2,1.066,3.2,3.2l0.1,4.35h-2.05l-0.1-0.75H56.9c-0.5,0.6-1.2,0.9-2.1,0.9c-0.733,0-1.316-0.233-1.75-0.7
			c-0.433-0.434-0.65-0.95-0.65-1.55c0-1.867,1.434-2.8,4.3-2.8V14.25z M56.8,16.55v-0.8c-1.433,0-2.15,0.4-2.15,1.2
			c0,0.566,0.3,0.85,0.9,0.85c0.6,0,1-0.283,1.2-0.85L56.8,16.55z M32.55,11.9l0.1,1.35h0.05c0.333-1.033,0.983-1.55,1.95-1.55
			l0.5,0.05v2.15l-0.6-0.05c-0.9,0-1.433,0.383-1.6,1.15v4.25h-2.3L30.6,11.9H32.55z M28.9,9.85c0,0.767-0.417,1.15-1.25,1.15
			c-0.767,0-1.15-0.383-1.15-1.15s0.4-1.15,1.2-1.15C28.5,8.7,28.9,9.083,28.9,9.85z M22.15,11.75c0.767,0,1.367,0.267,1.8,0.8
			c0.5,0.534,0.75,1.333,0.75,2.4v4.3h-2.25V15.2c0-1.067-0.4-1.6-1.2-1.6c-0.6,0-0.983,0.267-1.15,0.8l-0.05,0.5v4.35h-2.3V8.6h2.3
			v4.2c0.233-0.333,0.534-0.6,0.9-0.8C21.35,11.833,21.75,11.75,22.15,11.75z M28.8,11.9v7.35h-2.25V11.9H28.8z M14.05,11.05v8.2
			h-2.3v-8.2H9v-1.9h7.8v1.9H14.05z"/>
		<path style="fill-rule:evenodd;clip-rule:evenodd;fill:#69382B;" d="M100.2,34.25c1.8,2.167,2.7,4.7,2.7,7.6
			c0,3.334-1.167,6.167-3.5,8.5c-2.367,2.334-5.2,3.5-8.5,3.5c-3.334,0-6.167-1.166-8.5-3.5c-0.566-0.566-1.05-1.149-1.45-1.75
			c-1.367-1.966-2.05-4.216-2.05-6.75c0-3.3,1.167-6.116,3.5-8.45c2.333-2.333,5.167-3.5,8.5-3.5c3.3,0,6.133,1.167,8.5,3.5
			C99.667,33.667,99.934,33.95,100.2,34.25z M95.05,33.65h-8.3c-0.366,0-0.684,0.117-0.95,0.35S85.4,34.517,85.4,34.85v9.4
			c0,0.366,0.133,0.684,0.399,0.95c0.267,0.233,0.584,0.35,0.95,0.35h8.3c0.367,0,0.684-0.116,0.95-0.35
			c0.267-0.267,0.4-0.584,0.4-0.95v-9.4c0-0.333-0.134-0.617-0.4-0.85S95.417,33.65,95.05,33.65z M95.3,35.5v2.6
			c0,0.2-0.066,0.384-0.2,0.551c-0.166,0.133-0.35,0.199-0.55,0.199H91.3V34.8h3.25C95.05,34.8,95.3,35.033,95.3,35.5z M90.5,34.8
			v4.05h-3.25c-0.5,0-0.75-0.25-0.75-0.75v-2.6c0-0.467,0.25-0.7,0.75-0.7H90.5z M87.7,42.25c-0.634,0-0.95-0.3-0.95-0.9
			c0-0.267,0.083-0.483,0.25-0.649c0.2-0.2,0.434-0.3,0.7-0.3s0.5,0.1,0.7,0.3c0.166,0.166,0.25,0.383,0.25,0.649
			C88.65,41.95,88.333,42.25,87.7,42.25z M86.3,48.3l0.601-0.55h8l0.6,0.55H86.3z M87.8,46.25c-0.3-0.2-0.55-0.2-0.75,0l-3.4,3.05
			c-0.233,0.233-0.233,0.467,0,0.7s0.466,0.25,0.7,0.05L85.1,49.4h11.5c0.034,0,0.067,0,0.101,0l0.7,0.649
			c0.3,0.167,0.55,0.15,0.75-0.05c0.233-0.2,0.216-0.434-0.051-0.7L94.7,46.25c-0.2-0.2-0.434-0.2-0.7,0
			c-0.1,0.134-0.15,0.25-0.15,0.35H87.95C87.95,46.5,87.9,46.384,87.8,46.25z M93.1,41.35c0-0.267,0.101-0.483,0.301-0.649
			c0.199-0.2,0.433-0.3,0.699-0.3s0.483,0.1,0.65,0.3c0.2,0.2,0.3,0.416,0.3,0.649s-0.1,0.45-0.3,0.65
			c-0.167,0.167-0.384,0.25-0.65,0.25S93.6,42.167,93.4,42C93.2,41.833,93.1,41.616,93.1,41.35z"/>
		<path style="fill-rule:evenodd;clip-rule:evenodd;fill:#577FAA;" d="M58.55,34c-0.267,0.233-0.4,0.517-0.4,0.85v9.4
			c0,0.366,0.133,0.684,0.4,0.95c0.267,0.233,0.583,0.35,0.95,0.35h8.3c0.367,0,0.684-0.116,0.95-0.35
			c0.267-0.267,0.4-0.584,0.4-0.95v-9.4c0-0.333-0.133-0.617-0.4-0.85s-0.583-0.35-0.95-0.35h-8.3
			C59.133,33.65,58.817,33.767,58.55,34z M60,34.8h3.25v4.05H60c-0.5,0-0.75-0.25-0.75-0.75v-2.6C59.25,35.033,59.5,34.8,60,34.8z
			 M59.5,41.35c0-0.267,0.083-0.483,0.25-0.649c0.2-0.2,0.433-0.3,0.7-0.3c0.267,0,0.5,0.1,0.7,0.3
			c0.167,0.166,0.25,0.383,0.25,0.649s-0.083,0.483-0.25,0.65c-0.2,0.167-0.433,0.25-0.7,0.25C59.817,42.25,59.5,41.95,59.5,41.35z
			 M59.05,48.3l0.6-0.55h8l0.6,0.55H59.05z M60.55,46.25c-0.3-0.2-0.55-0.2-0.75,0l-3.4,3.05c-0.233,0.233-0.233,0.467,0,0.7
			s0.467,0.25,0.7,0.05l0.75-0.649h11.5c0.033,0,0.066,0,0.1,0l0.7,0.649c0.3,0.167,0.55,0.15,0.75-0.05
			c0.233-0.2,0.217-0.434-0.05-0.7l-3.4-3.05c-0.2-0.2-0.434-0.2-0.7,0c-0.1,0.134-0.15,0.25-0.15,0.35h-5.9
			C60.7,46.5,60.65,46.384,60.55,46.25z M72.95,34.25c1.8,2.167,2.7,4.7,2.7,7.6c0,3.334-1.167,6.167-3.5,8.5
			c-2.367,2.334-5.2,3.5-8.5,3.5c-3.333,0-6.167-1.166-8.5-3.5c-0.566-0.566-1.05-1.149-1.45-1.75
			c-1.367-1.966-2.05-4.216-2.05-6.75c0-3.3,1.167-6.116,3.5-8.45c2.333-2.333,5.167-3.5,8.5-3.5c3.3,0,6.133,1.167,8.5,3.5
			C72.417,33.667,72.683,33.95,72.95,34.25z M67.3,34.8c0.5,0,0.75,0.233,0.75,0.7v2.6c0,0.2-0.066,0.384-0.2,0.551
			c-0.167,0.133-0.35,0.199-0.55,0.199h-3.25V34.8H67.3z M67.8,41.35c0,0.233-0.1,0.45-0.3,0.65c-0.167,0.167-0.383,0.25-0.65,0.25
			s-0.5-0.083-0.7-0.25c-0.2-0.167-0.3-0.384-0.3-0.65s0.1-0.483,0.3-0.649c0.2-0.2,0.434-0.3,0.7-0.3s0.483,0.1,0.65,0.3
			C67.7,40.9,67.8,41.116,67.8,41.35z"/>
	</g>
</g>
</svg>
