<?xml version="1.0" encoding="iso-8859-1"?>
<!-- Generator: Adobe Illustrator 16.0.0, SVG Export Plug-In . SVG Version: 6.00 Build 0)  -->
<!DOCTYPE svg PUBLIC "-//W3C//DTD SVG 1.1//EN" "http://www.w3.org/Graphics/SVG/1.1/DTD/svg11.dtd">
<svg version="1.1" id="FlashAICB" xmlns="http://www.w3.org/2000/svg" xmlns:xlink="http://www.w3.org/1999/xlink" x="0px" y="0px"
	 width="168.95px" height="69.983px" viewBox="0 0 168.95 69.983" style="enable-background:new 0 0 168.95 69.983;"
	 xml:space="preserve">
<g>
	<g>
		<path style="fill-rule:evenodd;clip-rule:evenodd;fill:#11120E;" d="M157.25,0.8h0.7c1.133,0,2.083,0.4,2.85,1.2
			c0.5,0.467,0.851,1,1.05,1.6c0.094,0.342,0.144,0.7,0.15,1.075V7v51.25c0,1.1-0.4,2.05-1.2,2.85c-0.434,0.434-0.916,0.767-1.45,1
			l0.051-0.6c0-0.2,0-0.45,0-0.75c0.199-0.134,0.399-0.3,0.6-0.5c0.767-0.8,1.15-1.75,1.15-2.85V40.95V4.8
			c0-0.867-0.25-1.633-0.75-2.3C160.3,2.333,160.167,2.167,160,2C159.267,1.233,158.35,0.833,157.25,0.8z M2.875,61.075
			c0.138,0.059,0.279,0.116,0.425,0.175c0.2,0.066,0.417,0.116,0.65,0.15c0.1,0,0.216,0,0.35,0c0.067,0,0.133,0,0.2,0h152.65
			c0.133,0,0.283,0,0.449,0c0.467,0.333,0.867,0.616,1.2,0.85c-0.267,0.033-0.55,0.05-0.85,0.05H119.2h-2.75H4.15h-0.1
			c-0.6,0-1.15-0.1-1.65-0.3c-0.433-0.233-0.833-0.533-1.2-0.9C0.4,60.3,0,59.35,0,58.25V4.75C0.033,3.65,0.433,2.733,1.2,2
			c0.767-0.8,1.716-1.2,2.85-1.2H4.4C3.333,0.833,2.433,1.233,1.7,2C0.9,2.767,0.5,3.7,0.5,4.8V40v17.4c0,1.1,0.4,2.05,1.2,2.85
			c0.033,0.033,0.066,0.066,0.1,0.1L1.85,60.4C1.917,60.467,2,60.533,2.1,60.6l0.35,0.25c0.1,0.067,0.216,0.134,0.35,0.2
			C2.821,61.059,2.846,61.066,2.875,61.075z M134.875,38.25c-0.459,0.01-0.851,0.193-1.175,0.55c-0.367,0.4-0.55,0.867-0.55,1.4
			V43.1c0,0.534,0.183,1,0.55,1.4c0.324,0.356,0.716,0.54,1.175,0.55H134.6c-0.5,0-0.933-0.184-1.3-0.55
			c-0.366-0.4-0.55-0.866-0.55-1.4V40.2c0-0.533,0.184-1,0.55-1.4c0.367-0.366,0.8-0.55,1.3-0.55H134.875z M108.6,49.1
			c-1.833-2.199-2.75-4.767-2.75-7.699c0-3.334,1.167-6.167,3.5-8.5c2.334-2.333,5.167-3.5,8.5-3.5c3.334,0,6.167,1.167,8.5,3.5
			c0.434,0.434,0.817,0.883,1.15,1.35c-0.233-0.3-0.483-0.583-0.75-0.85c-2.366-2.333-5.2-3.5-8.5-3.5c-3.333,0-6.167,1.167-8.5,3.5
			c-2.333,2.333-3.5,5.167-3.5,8.5C106.25,44.634,107.033,47.033,108.6,49.1z M145.45,38.25l-3.05-3.3c-0.334-0.4-0.5-0.867-0.5-1.4
			c0-0.533,0.166-1,0.5-1.4l1.899-2.05c0.367-0.367,0.8-0.55,1.3-0.55c0.067,0,0.134,0,0.2,0c-0.399,0.034-0.767,0.217-1.1,0.55
			l-1.95,2.05c-0.333,0.4-0.5,0.867-0.5,1.4c0,0.534,0.167,1,0.5,1.4l3.05,3.3H145.45z M145.45,45.05h0.35l-3.05,3.3
			c-0.333,0.4-0.5,0.867-0.5,1.4s0.167,1,0.5,1.4l1.95,2.05c0.333,0.333,0.7,0.517,1.1,0.55c-0.066,0-0.133,0-0.2,0
			c-0.5,0-0.933-0.184-1.3-0.55l-1.899-2.05c-0.334-0.4-0.5-0.867-0.5-1.4s0.166-1,0.5-1.4L145.45,45.05z M80.95,48.65
			c-1.633-2.067-2.45-4.483-2.45-7.25c0-3.334,1.183-6.167,3.55-8.5c2.334-2.333,5.15-3.5,8.45-3.5c3.333,0,6.167,1.167,8.5,3.5
			c0.434,0.434,0.816,0.883,1.15,1.35c-0.233-0.3-0.483-0.583-0.75-0.85c-2.367-2.333-5.2-3.5-8.5-3.5c-3.334,0-6.167,1.167-8.5,3.5
			c-2.333,2.333-3.5,5.167-3.5,8.5C78.9,44.434,79.583,46.684,80.95,48.65z M53.7,48.65c-1.633-2.067-2.45-4.483-2.45-7.25
			c0-3.334,1.183-6.167,3.55-8.5c2.333-2.333,5.15-3.5,8.45-3.5c3.333,0,6.167,1.167,8.5,3.5c0.433,0.434,0.817,0.883,1.15,1.35
			c-0.233-0.3-0.483-0.583-0.75-0.85c-2.367-2.333-5.2-3.5-8.5-3.5c-3.333,0-6.167,1.167-8.5,3.5c-2.333,2.333-3.5,5.167-3.5,8.5
			C51.65,44.434,52.333,46.684,53.7,48.65z"/>
		<path style="fill-rule:evenodd;clip-rule:evenodd;fill:#515046;" d="M162,7V4.675V4.1c0-0.033,0-0.067,0-0.1
			c0.2,0.467,0.366,1.1,0.5,1.9c0.134,1.133,0.217,1.917,0.25,2.35c0.033,0.3,0.333,1.833,0.9,4.6c0.366,1.8,0.5,3.316,0.399,4.55
			c-0.033,0.733-0.316,1.75-0.85,3.05c-0.033,0.1-0.066,0.2-0.101,0.3c0-0.2,0-0.383,0-0.55c0-0.9-0.133-2.3-0.399-4.2
			c-0.233-1.833-0.351-3.233-0.351-4.2c0-0.833-0.083-2.083-0.25-3.75C162.066,7.683,162.033,7.333,162,7z M163.05,26.25
			c0.2,0.333,0.4,0.8,0.601,1.4c0.267,0.967,0.399,1.983,0.399,3.05c-0.033,0.433-0.05,0.767-0.05,1c0,0.433,0.033,0.767,0.1,1
			c0.101,0.333,0.351,0.633,0.75,0.9c0.5,0.3,0.801,0.517,0.9,0.65c0.233,0.333,0.417,0.767,0.55,1.3
			c0.167,1.601,0.351,2.8,0.55,3.601c0.067,0.399,0.184,1.683,0.351,3.85c0.133,1.634,0.416,2.866,0.85,3.7
			c0.066,0.133,0.233,0.333,0.5,0.6c0.134,0.134,0.233,0.4,0.3,0.8c0.2,1.301,0.101,2.434-0.3,3.4c-0.166,0.5-0.6,1.134-1.3,1.9
			c-0.733,0.767-1.184,1.383-1.35,1.85c-0.101,0.3-0.117,0.9-0.051,1.8c0,3,0.051,4.884,0.15,5.65c0.4,2.733,0.5,4.816,0.3,6.25
			c-1.166,0.066-2.083-0.033-2.75-0.3c-0.8-0.301-2.217-0.617-4.25-0.95c-0.2-0.033-0.866-0.184-2-0.45c-0.733-0.2-1.399-0.3-2-0.3
			c-0.467,0-1.066-0.117-1.8-0.351c-0.8-0.199-1.4-0.316-1.8-0.35c-0.834-0.1-1.851-0.017-3.05,0.25c-0.4,0.1-1.134,0.2-2.2,0.3
			c-0.9,0.101-1.617,0.25-2.15,0.45c-0.566,0.2-1.149,0.566-1.75,1.1c-0.767,0.7-1.283,1.134-1.55,1.301
			c-0.533,0.333-1.217,0.416-2.05,0.25c-0.267-0.067-0.967-0.301-2.101-0.7c-1.133-0.4-2.316-1.134-3.55-2.2
			c-0.6-0.533-1-0.85-1.2-0.95c-0.366-0.233-0.85-0.366-1.449-0.399c-0.867,0-2.101,0.116-3.7,0.35c-1.733,0.3-2.983,0.45-3.75,0.45
			c-0.7,0.033-1.417-0.233-2.15-0.8c-0.899-0.667-1.583-1.067-2.05-1.2c-0.134-0.033-0.717-0.05-1.75-0.05
			c-4.066,0.1-6.566,0.199-7.5,0.3l-3.3,0.45c-1.867,0.366-3.117,0.616-3.75,0.75c-1.467,0.366-2.684,0.8-3.65,1.3
			c-0.333,0.2-0.8,0.467-1.399,0.8c-0.5,0.233-1.017,0.283-1.551,0.15c-0.5-0.134-1.233-0.367-2.199-0.7
			c-0.934-0.167-2.15-0.584-3.65-1.25c-1.7-0.767-2.917-1.25-3.65-1.45c-0.8-0.233-2-0.35-3.6-0.35c-1.833,0-4.567-0.15-8.2-0.45
			c-3.867-0.233-8.867-0.267-15-0.101c-8.167,0.2-13.167,0.301-15,0.301c-3.4,0-5.85,0.267-7.35,0.8
			c-0.567,0.233-1.633,1.033-3.2,2.399c-1.233,1.101-2.433,1.634-3.6,1.601c-1-0.033-2.2-0.316-3.6-0.851
			c-0.6-0.267-1.733-0.8-3.4-1.6c-1.1-0.566-2.583-0.9-4.45-1c-1.067-0.033-2.6-0.083-4.6-0.15c-0.7-0.066-3.033-0.233-7-0.5
			C4.467,64.316,2.733,63.366,2.4,62c0.5,0.2,1.05,0.3,1.65,0.3h0.1c0.233,0.2,0.633,0.351,1.2,0.45c1.1,0.1,1.783,0.167,2.05,0.2
			c2.267,0.6,4,0.934,5.2,1c2.566,0.366,4.5,0.533,5.8,0.5c0.9-0.033,1.567-0.05,2-0.05c0.8-0.034,1.45-0.017,1.95,0.05
			c1.967,0.3,3.6,0.684,4.9,1.149c1.033,0.334,2.233,0.384,3.6,0.15c0.6-0.134,1.783-0.467,3.55-1c3.1-1,7.5-1.5,13.2-1.5
			C59.733,63.083,68.833,63,74.9,63c5.934-0.167,10.4-0.25,13.4-0.25c1.566,0,4.017,0.116,7.351,0.35
			c3.199,0.267,5.633,0.384,7.3,0.351c2.833,0,4.816-0.101,5.95-0.3c2.866-0.467,5.383-0.75,7.55-0.851h2.75
			c0.399,0.066,0.85,0.184,1.35,0.351c0.334,0.133,0.684,0.216,1.05,0.25c0.4,0,0.733,0.017,1,0.05c1.301,0.166,2.467,0.166,3.5,0
			c1.367-0.2,2.834-0.184,4.4,0.05s2.983,0.634,4.25,1.2c0.934,0.434,1.616,0.733,2.05,0.899c0.733,0.301,1.467,0.434,2.2,0.4
			c0.667-0.033,1.566-0.267,2.7-0.7c1.2-0.434,2.1-0.684,2.7-0.75c3.866-0.5,5.833-0.75,5.899-0.75c1.867-0.166,3.983-0.2,6.351-0.1
			c1.066,0.066,2.066,0.217,3,0.45c0.366,0.133,0.633,0.216,0.8,0.25c0.3,0.1,0.583,0.116,0.85,0.05
			c0.033-0.134,0.066-0.283,0.101-0.45c0.699-0.1,1.1-0.2,1.199-0.3c0.167-0.101,0.25-0.5,0.25-1.2c0-1.267,0.134-2.333,0.4-3.2
			c0-0.066,0.366-1.083,1.1-3.05c0.134-0.4,0.067-1.384-0.199-2.95c-0.267-1.467-0.284-2.399-0.051-2.8
			c0.2-0.333,0.184-0.917-0.05-1.75c-0.3-1-0.45-1.583-0.45-1.75c0-0.2,0.101-0.95,0.301-2.25c0.166-1,0.166-1.7,0-2.1
			c-0.267-0.767-0.384-1.801-0.351-3.101c0.066-1.7,0.084-2.75,0.05-3.15c-0.333-3.367-0.517-5.967-0.55-7.8
			C163.05,27.633,163.05,27.017,163.05,26.25z"/>
		<path style="fill-rule:evenodd;clip-rule:evenodd;fill:#8A8E71;" d="M162,4.675c-0.007-0.375-0.057-0.733-0.15-1.075
			C161.65,3,161.3,2.467,160.8,2c-0.767-0.8-1.717-1.2-2.85-1.2h-0.7H4.4H4.05C2.917,0.8,1.967,1.2,1.2,2
			C0.433,2.733,0.033,3.65,0,4.75V4.1C0,2.967,0.4,2,1.2,1.2C1.967,0.4,2.917,0,4.05,0h153.9c1.133,0,2.083,0.4,2.85,1.2
			c0.767,0.767,1.167,1.7,1.2,2.8c0,0.033,0,0.067,0,0.1V4.675z"/>
		<path style="fill-rule:evenodd;clip-rule:evenodd;fill:#3A3932;" d="M119.2,62.3h38.75c0.3,0,0.583-0.017,0.85-0.05
			c0.2,0.134,0.367,0.233,0.5,0.3l0.05-0.45c0.534-0.233,1.017-0.566,1.45-1c0.8-0.8,1.2-1.75,1.2-2.85V7
			c0.033,0.333,0.066,0.683,0.1,1.05c0.167,1.667,0.25,2.917,0.25,3.75c0,0.967,0.117,2.367,0.351,4.2
			c0.267,1.9,0.399,3.3,0.399,4.2c0,0.167,0,0.35,0,0.55c-0.033,2.3-0.05,4.133-0.05,5.5c0,0.767,0,1.383,0,1.85
			c0.033,1.833,0.217,4.433,0.55,7.8c0.034,0.4,0.017,1.45-0.05,3.15c-0.033,1.3,0.084,2.334,0.351,3.101
			c0.166,0.399,0.166,1.1,0,2.1c-0.2,1.3-0.301,2.05-0.301,2.25c0,0.167,0.15,0.75,0.45,1.75c0.233,0.833,0.25,1.417,0.05,1.75
			c-0.233,0.4-0.216,1.333,0.051,2.8c0.267,1.566,0.333,2.55,0.199,2.95c-0.733,1.967-1.1,2.983-1.1,3.05
			c-0.267,0.867-0.4,1.934-0.4,3.2c0,0.7-0.083,1.1-0.25,1.2c-0.1,0.1-0.5,0.2-1.199,0.3c-0.034,0.167-0.067,0.316-0.101,0.45
			c-0.267,0.066-0.55,0.05-0.85-0.05c-0.167-0.034-0.434-0.117-0.8-0.25c-0.934-0.233-1.934-0.384-3-0.45
			c-2.367-0.101-4.483-0.066-6.351,0.1c-0.066,0-2.033,0.25-5.899,0.75c-0.601,0.066-1.5,0.316-2.7,0.75
			c-1.134,0.434-2.033,0.667-2.7,0.7c-0.733,0.033-1.467-0.1-2.2-0.4c-0.434-0.166-1.116-0.466-2.05-0.899
			c-1.267-0.566-2.684-0.967-4.25-1.2s-3.033-0.25-4.4-0.05c-1.033,0.166-2.199,0.166-3.5,0c-0.267-0.033-0.6-0.05-1-0.05
			c-0.366-0.034-0.716-0.117-1.05-0.25C120.05,62.483,119.6,62.366,119.2,62.3z M4.15,62.3h112.3
			c-2.167,0.101-4.684,0.384-7.55,0.851c-1.134,0.199-3.117,0.3-5.95,0.3c-1.667,0.033-4.101-0.084-7.3-0.351
			c-3.334-0.233-5.784-0.35-7.351-0.35c-3,0-7.466,0.083-13.4,0.25c-6.066,0-15.167,0.083-27.3,0.25c-5.7,0-10.1,0.5-13.2,1.5
			c-1.767,0.533-2.95,0.866-3.55,1c-1.367,0.233-2.567,0.184-3.6-0.15c-1.3-0.466-2.933-0.85-4.9-1.149
			c-0.5-0.066-1.15-0.084-1.95-0.05c-0.433,0-1.1,0.017-2,0.05c-1.3,0.033-3.233-0.134-5.8-0.5c-1.2-0.066-2.934-0.4-5.2-1
			c-0.267-0.033-0.95-0.101-2.05-0.2C4.783,62.65,4.383,62.5,4.15,62.3z"/>
		
			<radialGradient id="SVGID_1_" cx="80.8252" cy="-2" r="81.2156" gradientTransform="matrix(1 0 0 -1 0 -4)" gradientUnits="userSpaceOnUse">
			<stop  offset="0" style="stop-color:#3E4234"/>
			<stop  offset="1" style="stop-color:#1B1C16"/>
		</radialGradient>
		<path style="fill-rule:evenodd;clip-rule:evenodd;fill:url(#SVGID_1_);" d="M4.4,0.8h152.85c1.1,0.034,2.017,0.434,2.75,1.2
			c0.167,0.167,0.3,0.333,0.4,0.5c0.5,0.667,0.75,1.433,0.75,2.3v36.15c-1.067,2.666-2.434,4.983-4.101,6.95L154.15,50.8
			c-0.5,0.5-1.2,1.233-2.101,2.2c-0.8,0.833-1.583,1.467-2.35,1.9c-0.934,0.466-1.517,0.699-1.75,0.699
			c-0.167,0-0.417-0.066-0.75-0.199c-0.267-0.067-0.55-0.084-0.851-0.051c-0.166,0.067-0.399,0.2-0.699,0.4
			c-0.301,0.2-0.551,0.316-0.75,0.35c-0.5,0.101-1.351,0.084-2.551-0.05c-0.233,0-1.066-0.083-2.5-0.25
			c-0.1,0-0.316,0.017-0.649,0.05c-0.3,0.034-0.5,0.017-0.601-0.05c-0.166-0.1-0.283-0.3-0.35-0.6c-0.033-0.3-0.1-0.5-0.2-0.601
			c-0.166-0.233-0.383-0.433-0.649-0.6c-0.5-0.3-0.784-0.467-0.851-0.5c-0.3-0.233-0.55-0.616-0.75-1.15
			c-0.166-0.5-0.383-0.833-0.649-1c-0.267-0.166-1.2-0.183-2.801-0.05c-0.566,0.033-1.233,0.267-2,0.7
			c-0.933,0.5-2.25,1.333-3.949,2.5c-1.4,0.833-3,1.3-4.801,1.4c-0.566,0.066-2.233,0.033-5-0.101c-0.466,0-1.183-0.017-2.149-0.05
			c-0.834-0.033-1.533-0.15-2.101-0.35L109.15,54.3c-1.434-0.434-2.684-0.934-3.75-1.5c-0.101-0.033-0.351-0.233-0.75-0.6
			c-0.4-0.3-0.65-0.45-0.75-0.45c-0.233,0.033-0.617,0.533-1.15,1.5c-0.4,0.434-0.983,0.833-1.75,1.2
			c-0.467,0.233-1.167,0.517-2.1,0.85c-1.134,0.467-2.851,0.867-5.15,1.2c-0.767,0.134-1.7,0.15-2.8,0.05
			c-1.733-0.166-2.65-0.25-2.75-0.25c-1.066,0-1.717,0-1.95,0c-0.733-0.066-1.35-0.233-1.85-0.5l-0.25-0.25
			c-0.367,0.101-0.717,0.033-1.05-0.2c-0.1,0.2-0.267,0.317-0.5,0.351s-0.4,0.083-0.5,0.149c-0.167,0.134-0.4,0.4-0.7,0.801
			c-0.267,0.166-0.75,0.283-1.45,0.35c-0.7,0.033-1.2,0.134-1.5,0.3c1.667-0.066,3.95,0,6.85,0.2
			c1.033,0.066,1.983,0.116,2.851,0.15c-0.067,0.1-0.134,0.149-0.2,0.149c-0.167,0-0.967-0.017-2.4-0.05
			c-1.033,0-1.833,0.083-2.4,0.25c-0.433,0.167-0.983,0.4-1.65,0.7c-0.6,0.233-1.217,0.333-1.85,0.3c-0.4-0.033-1.2-0.066-2.4-0.1
			c-1.067,0-1.883-0.051-2.45-0.15c-0.367-0.066-0.833-0.217-1.4-0.45c-0.6-0.166-1.55-0.184-2.85-0.05
			c-0.533-0.033-1.233-0.184-2.1-0.45c-1-0.333-1.684-0.533-2.05-0.6c-1.7-0.267-4.467-0.25-8.3,0.05c-0.6,0-1.633,0.05-3.1,0.15
			c-1.333,0.066-2.35-0.017-3.05-0.25c0-0.467,0.05-0.767,0.15-0.9c-0.967-0.1-1.95-0.1-2.95,0c-0.033,0.167,0.033,0.483,0.2,0.95
			c0.1,0.333-0.05,0.6-0.45,0.8c-0.4,0.233-1.066,0.25-2,0.05c-0.5-0.1-1.167-0.233-2-0.399c-0.6-0.034-1.5,0-2.7,0.1
			c-0.534-0.033-1.25-0.15-2.15-0.35c-0.433-0.034-1.15,0-2.15,0.1c-0.1,0-0.566-0.066-1.4-0.2c-0.567-0.066-1.017-0.066-1.35,0
			c-0.267,0.033-0.733,0.184-1.4,0.45c-0.533,0.167-1,0.25-1.4,0.25l-6.25-0.05c-0.8,0-1.434-0.117-1.9-0.351
			c-0.167-0.066-0.383-0.216-0.65-0.449c-0.233-0.134-0.45-0.184-0.65-0.15c-0.1,0.033-0.3,0.184-0.6,0.45
			c-0.333,0.3-0.566,0.467-0.7,0.5c-0.434,0.133-0.934,0.233-1.5,0.3c-0.567,0.033-1.2,0-1.9-0.1c-0.4-0.067-1.017-0.184-1.85-0.351
			c-0.7-0.133-2.184-0.133-4.45,0c-1.867,0.101-3.283-0.1-4.25-0.6c-0.133-0.066-0.283-0.167-0.45-0.3
			c-0.167-0.101-0.367-0.167-0.6-0.2c-0.167,0-0.417,0.017-0.75,0.05c-0.3,0-0.533-0.083-0.7-0.25c-0.1-0.134-0.117-0.483-0.05-1.05
			c-0.167-0.601-0.467-1.066-0.9-1.4C3.933,55.184,3.35,55.9,2.45,56.2c-0.133-0.467-0.2-1.134-0.2-2
			c-0.033-0.934-0.083-1.601-0.15-2c-0.133,0.267-0.367,0.434-0.7,0.5c-0.066-0.5-0.05-1.3,0.05-2.4c0.1-1.033,0.1-1.833,0-2.399
			c-0.233-1.233-0.333-2.267-0.3-3.101c0-0.467-0.066-1.399-0.2-2.8c-0.1-1.167-0.117-2.083-0.05-2.75L0.5,40V4.8
			c0-1.1,0.4-2.033,1.2-2.8C2.433,1.233,3.333,0.833,4.4,0.8z M2.875,61.075C2.846,61.066,2.821,61.059,2.8,61.05
			c-0.133-0.066-0.25-0.133-0.35-0.2C2.583,60.934,2.725,61.009,2.875,61.075z M108.6,49.1c0.334,0.434,0.717,0.867,1.15,1.301
			c2.333,2.333,5.167,3.5,8.5,3.5c3.3,0,6.134-1.167,8.5-3.5c2.333-2.334,3.5-5.167,3.5-8.5c0-2.934-0.917-5.483-2.75-7.65
			c-0.333-0.467-0.717-0.917-1.15-1.35c-2.333-2.333-5.166-3.5-8.5-3.5c-3.333,0-6.166,1.167-8.5,3.5
			c-2.333,2.333-3.5,5.167-3.5,8.5C105.85,44.333,106.767,46.9,108.6,49.1z M134.875,38.25H134.6c-0.5,0-0.933,0.184-1.3,0.55
			c-0.366,0.4-0.55,0.867-0.55,1.4V43.1c0,0.534,0.184,1,0.55,1.4c0.367,0.366,0.8,0.55,1.3,0.55h0.275h10.575l-3.05,3.3
			c-0.334,0.4-0.5,0.867-0.5,1.4s0.166,1,0.5,1.4l1.899,2.05c0.367,0.366,0.8,0.55,1.3,0.55c0.067,0,0.134,0,0.2,0s0.134,0,0.2,0
			c0.5,0,0.917-0.184,1.25-0.55l9.35-10.15c0.334-0.333,0.5-0.8,0.5-1.399c0-0.601-0.166-1.067-0.5-1.4l-9.35-10.15
			c-0.333-0.367-0.75-0.55-1.25-0.55c-0.066,0-0.134,0-0.2,0s-0.133,0-0.2,0c-0.5,0-0.933,0.184-1.3,0.55l-1.899,2.05
			c-0.334,0.4-0.5,0.867-0.5,1.4c0,0.534,0.166,1,0.5,1.4l3.05,3.3H134.875z M82.1,18.55c0.7-0.733,1.05-1.716,1.05-2.95
			c0-1.133-0.3-2.05-0.9-2.75c-0.6-0.667-1.317-1-2.15-1c-1.067,0-1.883,0.4-2.45,1.2L77.5,12h-1.95l0.05,10.3h2.3v-3.65
			c0.4,0.567,1.033,0.85,1.9,0.85C80.7,19.5,81.467,19.183,82.1,18.55z M80.95,48.65c0.4,0.6,0.883,1.183,1.45,1.75
			c2.333,2.333,5.167,3.5,8.5,3.5c3.3,0,6.133-1.167,8.5-3.5c2.333-2.334,3.5-5.167,3.5-8.5c0-2.934-0.917-5.483-2.75-7.65
			c-0.334-0.467-0.717-0.917-1.15-1.35c-2.333-2.333-5.167-3.5-8.5-3.5c-3.3,0-6.116,1.167-8.45,3.5
			c-2.367,2.333-3.55,5.167-3.55,8.5C78.5,44.167,79.317,46.583,80.95,48.65z M114.9,57.7c-0.101,0-0.317-0.05-0.65-0.15h0.9
			C115.05,57.65,114.967,57.7,114.9,57.7z M113.05,57.9c-0.467,0.166-1,0.267-1.6,0.3c-0.367,0.033-0.95,0.05-1.75,0.05H93.35
			c-0.333,0-0.899,0.033-1.699,0.1c-0.733,0-1.301-0.033-1.7-0.1c-0.134-0.033-0.367-0.15-0.7-0.35
			c-0.134-0.067-0.233-0.134-0.3-0.2c1.366,0.066,2.434,0.1,3.2,0.1c4.233-0.166,7.399-0.25,9.5-0.25h11.75
			C113.267,57.616,113.15,57.733,113.05,57.9z M115.95,57.55h8.2c5.033,0.167,8.8,0.25,11.3,0.25c3.133,0.066,5.5,0.117,7.1,0.15
			c2.867,0.033,5.233-0.033,7.101-0.2c1.333-0.167,2.149-0.233,2.449-0.2c0.267,0.033,0.934,0.434,2,1.2
			c-0.3,0.033-0.633,0.05-1,0.05c-0.533-0.033-1.267-0.083-2.199-0.149c-0.634,0.066-1.517,0.25-2.65,0.55
			c-1.233,0.3-2.134,0.483-2.7,0.55c-0.899,0.134-2.133,0.167-3.7,0.1c-2.033-0.066-3.267-0.1-3.699-0.1
			c-0.9,0-2.601-0.184-5.101-0.55c-0.366-0.033-0.616-0.033-0.75,0c-0.333,0.133-0.55,0.217-0.649,0.25
			c-0.601,0.1-1.267,0.116-2,0.05c-0.367-0.033-0.717-0.134-1.051-0.3c-0.199-0.101-0.5-0.267-0.899-0.5
			c-1.066-0.4-2.75-0.45-5.05-0.15c-0.534,0.066-2.101,0.134-4.7,0.2c-0.2,0-0.483,0-0.851,0c-0.333,0-0.583-0.083-0.75-0.25
			c-0.1-0.066-0.199-0.283-0.3-0.65C116.017,57.75,115.983,57.65,115.95,57.55z M40.75,14.55L40.7,16.7
			c-0.167,0.6-0.567,0.9-1.2,0.9c-0.467,0-0.833-0.184-1.1-0.55s-0.4-0.833-0.4-1.4c0-0.667,0.15-1.183,0.45-1.55
			c0.267-0.367,0.617-0.55,1.05-0.55C40.1,13.55,40.517,13.883,40.75,14.55z M47.15,12h-2.3v4.3c0,2.133,0.867,3.2,2.6,3.2
			c1,0,1.767-0.4,2.3-1.2l0.15,1.05h1.95L51.8,12h-2.3v4.35l-0.05,0.5c-0.2,0.533-0.583,0.8-1.15,0.8c-0.767,0-1.15-0.566-1.15-1.7
			V12z M43.1,12h-1.95l-0.1,0.9c-0.466-0.7-1.15-1.05-2.05-1.05c-0.933,0-1.7,0.35-2.3,1.05c-0.667,0.733-1,1.667-1,2.8
			c0,1.033,0.3,1.9,0.9,2.6c0.566,0.667,1.3,1,2.2,1c0.867,0,1.517-0.316,1.95-0.95h0.05v0.45c0,1.3-0.633,1.95-1.9,1.95
			c-0.7,0-1.417-0.183-2.15-0.55l-0.45,1.7c0.7,0.4,1.583,0.6,2.65,0.6c1.267,0,2.267-0.3,3-0.9c0.733-0.7,1.1-1.8,1.1-3.3L43.1,12z
			 M80.85,15.7c0,1.367-0.533,2.05-1.6,2.05c-0.7,0-1.133-0.367-1.3-1.1L77.9,16.2v-1l0.05-0.4c0.167-0.767,0.617-1.15,1.35-1.15
			C80.333,13.65,80.85,14.333,80.85,15.7z M70.4,17.85c-1,0-1.5-0.733-1.5-2.2c0-0.6,0.117-1.1,0.35-1.5
			c0.267-0.467,0.65-0.7,1.15-0.7c0.467,0,0.833,0.233,1.1,0.7c0.233,0.4,0.35,0.9,0.35,1.5C71.85,17.117,71.367,17.85,70.4,17.85z
			 M67.65,18.5c0.7,0.667,1.583,1,2.65,1c1.1,0,2-0.317,2.7-0.95c0.8-0.7,1.2-1.683,1.2-2.95c0-1.133-0.35-2.033-1.05-2.7
			c-0.667-0.7-1.566-1.05-2.7-1.05c-1.167,0-2.117,0.35-2.85,1.05c-0.7,0.7-1.05,1.65-1.05,2.85
			C66.55,16.883,66.917,17.8,67.65,18.5z M65.05,9.25H62.8v3.85h-3.75V9.25h-2.3v10.1h2.3V15.1h3.75v4.25h2.25V9.25z M53.7,48.65
			c0.4,0.6,0.883,1.183,1.45,1.75c2.333,2.333,5.167,3.5,8.5,3.5c3.3,0,6.133-1.167,8.5-3.5c2.333-2.334,3.5-5.167,3.5-8.5
			c0-2.934-0.917-5.483-2.75-7.65c-0.333-0.467-0.717-0.917-1.15-1.35c-2.333-2.333-5.167-3.5-8.5-3.5c-3.3,0-6.117,1.167-8.45,3.5
			c-2.367,2.333-3.55,5.167-3.55,8.5C51.25,44.167,52.067,46.583,53.7,48.65z M17.9,9.25h-2.85L12.1,13.7h-0.05V9.25H9.8v10.1h2.25
			v-3.3L12.9,15l2.5,4.35h2.65l-3.5-5.8L17.9,9.25z M22.05,19.5c1.067,0,1.95-0.317,2.65-0.95c0.8-0.7,1.2-1.683,1.2-2.95
			c0-1.133-0.35-2.033-1.05-2.7c-0.667-0.7-1.567-1.05-2.7-1.05c-1.167,0-2.117,0.35-2.85,1.05c-0.7,0.7-1.05,1.65-1.05,2.85
			c0,1.133,0.367,2.05,1.1,2.75C20.05,19.167,20.95,19.5,22.05,19.5z M22.1,17.85c-1,0-1.5-0.733-1.5-2.2c0-0.6,0.117-1.1,0.35-1.5
			c0.267-0.467,0.65-0.7,1.15-0.7c0.967,0,1.45,0.733,1.45,2.2S23.067,17.85,22.1,17.85z M29.25,12h-2l0.05,7.35h2.3V15.1l0.05-0.55
			c0.267-0.566,0.667-0.85,1.2-0.85c0.767,0,1.15,0.533,1.15,1.6v4.05h2.3V15c0-1.033-0.25-1.833-0.75-2.4
			c-0.466-0.5-1.1-0.75-1.9-0.75c-1.033,0-1.783,0.4-2.25,1.2h-0.05L29.25,12z"/>
		<path style="fill-rule:evenodd;clip-rule:evenodd;fill:#58763E;" d="M127.5,34.25c1.833,2.167,2.75,4.717,2.75,7.65
			c0,3.333-1.167,6.166-3.5,8.5c-2.366,2.333-5.2,3.5-8.5,3.5c-3.333,0-6.167-1.167-8.5-3.5c-0.434-0.434-0.816-0.867-1.15-1.301
			c-1.566-2.066-2.35-4.466-2.35-7.199c0-3.334,1.167-6.167,3.5-8.5c2.333-2.333,5.167-3.5,8.5-3.5c3.3,0,6.134,1.167,8.5,3.5
			C127.017,33.667,127.267,33.95,127.5,34.25z M126.05,37.85V34.95H111.15v2.899h5.25v12.5h4.35v-12.5H126.05z"/>
		<path style="fill-rule:evenodd;clip-rule:evenodd;fill:#F1EFCD;" d="M145.45,45.05h-10.575c-0.459-0.01-0.851-0.193-1.175-0.55
			c-0.367-0.4-0.55-0.866-0.55-1.4V40.2c0-0.533,0.183-1,0.55-1.4c0.324-0.356,0.716-0.54,1.175-0.55h10.575h0.35l-3.05-3.3
			c-0.333-0.4-0.5-0.867-0.5-1.4c0-0.533,0.167-1,0.5-1.4l1.95-2.05c0.333-0.333,0.7-0.517,1.1-0.55c0.066,0,0.134,0,0.2,0
			c0.5,0,0.917,0.184,1.25,0.55l9.35,10.15c0.334,0.333,0.5,0.8,0.5,1.4c0,0.6-0.166,1.066-0.5,1.399l-9.35,10.15
			c-0.333,0.366-0.75,0.55-1.25,0.55c-0.066,0-0.134,0-0.2,0c-0.399-0.033-0.767-0.217-1.1-0.55l-1.95-2.05
			c-0.333-0.4-0.5-0.867-0.5-1.4s0.167-1,0.5-1.4l3.05-3.3H145.45z M126.05,37.85h-5.3v12.5h-4.35v-12.5h-5.25V34.95h14.899V37.85z
			 M96,34c0.267,0.233,0.4,0.533,0.4,0.9v9.4c0,0.367-0.134,0.667-0.4,0.9c-0.267,0.267-0.583,0.399-0.95,0.399h-8.3
			c-0.366,0-0.684-0.133-0.95-0.399c-0.267-0.233-0.399-0.533-0.399-0.9v-9.4c0-0.367,0.133-0.667,0.399-0.9
			c0.267-0.267,0.584-0.4,0.95-0.4h8.3C95.417,33.6,95.733,33.733,96,34z M94.55,34.8H91.3V38.9h3.25c0.2,0,0.384-0.067,0.55-0.2
			c0.134-0.167,0.2-0.351,0.2-0.55V35.55c0-0.2-0.066-0.367-0.2-0.5C94.934,34.883,94.75,34.8,94.55,34.8z M86.75,41.4
			c0,0.6,0.316,0.899,0.95,0.899c0.633,0,0.95-0.3,0.95-0.899c0-0.634-0.317-0.95-0.95-0.95C87.066,40.45,86.75,40.767,86.75,41.4z
			 M90.5,34.8h-3.25c-0.5,0-0.75,0.25-0.75,0.75v2.601c0,0.5,0.25,0.75,0.75,0.75h3.25V34.8z M86.3,48.3h9.15l-0.601-0.55H86.95
			L86.3,48.3z M87.95,46.65h5.899c0-0.101,0.051-0.217,0.15-0.351c0.233-0.233,0.467-0.233,0.7,0l3.399,3.05
			c0.267,0.267,0.284,0.5,0.051,0.7c-0.233,0.233-0.483,0.233-0.75,0L96.7,49.4c-0.033,0-0.066,0-0.101,0H85.1l-0.75,0.649
			c-0.233,0.233-0.466,0.233-0.7,0s-0.233-0.467,0-0.7l3.4-3.05c0.267-0.233,0.517-0.233,0.75,0
			C87.9,46.434,87.95,46.55,87.95,46.65z M93.4,40.7c-0.2,0.2-0.301,0.434-0.301,0.7S93.2,41.884,93.4,42.05
			c0.199,0.167,0.433,0.25,0.699,0.25s0.483-0.083,0.65-0.25c0.2-0.2,0.3-0.416,0.3-0.649c0-0.267-0.1-0.5-0.3-0.7
			c-0.167-0.167-0.384-0.25-0.65-0.25S93.6,40.533,93.4,40.7z M60.45,40.45c-0.633,0-0.95,0.316-0.95,0.95
			c0,0.6,0.317,0.899,0.95,0.899c0.267,0,0.5-0.083,0.7-0.25c0.167-0.166,0.25-0.383,0.25-0.649
			C61.4,40.767,61.083,40.45,60.45,40.45z M60,34.8c-0.5,0-0.75,0.25-0.75,0.75v2.601c0,0.5,0.25,0.75,0.75,0.75h3.25V34.8H60z
			 M58.55,34c0.267-0.267,0.583-0.4,0.95-0.4h8.3c0.367,0,0.684,0.133,0.95,0.4c0.267,0.233,0.4,0.533,0.4,0.9v9.4
			c0,0.367-0.133,0.667-0.4,0.9c-0.267,0.267-0.583,0.399-0.95,0.399h-8.3c-0.367,0-0.683-0.133-0.95-0.399
			c-0.267-0.233-0.4-0.533-0.4-0.9v-9.4C58.15,34.533,58.283,34.233,58.55,34z M60.55,46.3c0.1,0.134,0.15,0.25,0.15,0.351h5.9
			c0-0.101,0.05-0.217,0.15-0.351c0.233-0.233,0.467-0.233,0.7,0l3.4,3.05c0.267,0.267,0.283,0.5,0.05,0.7
			c-0.233,0.233-0.483,0.233-0.75,0l-0.7-0.649c-0.034,0-0.067,0-0.1,0h-11.5L57.1,50.05c-0.233,0.233-0.467,0.233-0.7,0
			s-0.233-0.467,0-0.7l3.4-3.05C60.067,46.066,60.317,46.066,60.55,46.3z M59.05,48.3h9.15l-0.6-0.55h-7.9L59.05,48.3z M66.85,40.45
			c-0.267,0-0.5,0.083-0.7,0.25c-0.2,0.2-0.3,0.434-0.3,0.7s0.1,0.483,0.3,0.649c0.2,0.167,0.434,0.25,0.7,0.25
			s0.483-0.083,0.65-0.25c0.2-0.2,0.3-0.416,0.3-0.649c0-0.267-0.1-0.5-0.3-0.7C67.333,40.533,67.117,40.45,66.85,40.45z
			 M68.05,35.55c0-0.2-0.066-0.367-0.2-0.5c-0.167-0.167-0.35-0.25-0.55-0.25h-3.25V38.9h3.25c0.2,0,0.383-0.067,0.55-0.2
			c0.133-0.167,0.2-0.351,0.2-0.55V35.55z"/>
		<path style="fill-rule:evenodd;clip-rule:evenodd;fill:#131410;" d="M159.35,62.1l-0.05,0.45c-0.133-0.066-0.3-0.166-0.5-0.3
			c-0.333-0.233-0.733-0.517-1.2-0.85c-0.166,0-0.316,0-0.449,0H4.5c-0.067,0-0.133,0-0.2,0c-0.133,0-0.25,0-0.35,0
			c-0.233-0.034-0.45-0.084-0.65-0.15c-0.146-0.059-0.287-0.116-0.425-0.175c-0.15-0.066-0.292-0.142-0.425-0.226L2.1,60.6
			C2,60.533,1.917,60.467,1.85,60.4L1.8,60.35c-0.033-0.033-0.066-0.066-0.1-0.1c-0.8-0.8-1.2-1.75-1.2-2.85V40l0.4-0.75
			C0.833,39.917,0.85,40.833,0.95,42c0.133,1.4,0.2,2.333,0.2,2.8c-0.033,0.834,0.067,1.867,0.3,3.101c0.1,0.566,0.1,1.366,0,2.399
			c-0.1,1.101-0.117,1.9-0.05,2.4c0.333-0.066,0.567-0.233,0.7-0.5c0.066,0.399,0.117,1.066,0.15,2c0,0.866,0.067,1.533,0.2,2
			c0.9-0.3,1.483-1.017,1.75-2.15c0.433,0.334,0.733,0.8,0.9,1.4c-0.067,0.566-0.05,0.916,0.05,1.05c0.167,0.167,0.4,0.25,0.7,0.25
			c0.333-0.033,0.583-0.05,0.75-0.05c0.233,0.033,0.433,0.1,0.6,0.2c0.167,0.133,0.316,0.233,0.45,0.3c0.967,0.5,2.383,0.7,4.25,0.6
			c2.267-0.133,3.75-0.133,4.45,0c0.833,0.167,1.45,0.283,1.85,0.351c0.7,0.1,1.333,0.133,1.9,0.1c0.566-0.066,1.066-0.167,1.5-0.3
			c0.133-0.033,0.367-0.2,0.7-0.5c0.3-0.267,0.5-0.417,0.6-0.45c0.2-0.033,0.417,0.017,0.65,0.15
			c0.267,0.233,0.483,0.383,0.65,0.449c0.466,0.233,1.1,0.351,1.9,0.351L32.35,58c0.4,0,0.867-0.083,1.4-0.25
			c0.667-0.267,1.133-0.417,1.4-0.45c0.333-0.066,0.783-0.066,1.35,0c0.833,0.134,1.3,0.2,1.4,0.2c1-0.1,1.717-0.134,2.15-0.1
			c0.9,0.199,1.617,0.316,2.15,0.35c1.2-0.1,2.1-0.134,2.7-0.1c0.833,0.166,1.5,0.3,2,0.399c0.934,0.2,1.6,0.184,2-0.05
			c0.4-0.2,0.55-0.467,0.45-0.8c-0.167-0.467-0.233-0.783-0.2-0.95c1-0.1,1.983-0.1,2.95,0c-0.1,0.134-0.15,0.434-0.15,0.9
			c0.7,0.233,1.716,0.316,3.05,0.25c1.467-0.101,2.5-0.15,3.1-0.15c3.833-0.3,6.6-0.316,8.3-0.05c0.367,0.066,1.05,0.267,2.05,0.6
			c0.867,0.267,1.566,0.417,2.1,0.45c1.3-0.134,2.25-0.116,2.85,0.05c0.567,0.233,1.033,0.384,1.4,0.45
			c0.567,0.1,1.383,0.15,2.45,0.15c1.2,0.033,2,0.066,2.4,0.1c0.633,0.033,1.25-0.066,1.85-0.3c0.667-0.3,1.217-0.533,1.65-0.7
			c0.567-0.167,1.367-0.25,2.4-0.25c1.434,0.033,2.233,0.05,2.4,0.05c0.066,0,0.133-0.05,0.2-0.149
			c-0.867-0.034-1.817-0.084-2.851-0.15c-2.9-0.2-5.183-0.267-6.85-0.2c0.3-0.166,0.8-0.267,1.5-0.3
			c0.7-0.066,1.183-0.184,1.45-0.35c0.3-0.4,0.533-0.667,0.7-0.801c0.1-0.066,0.267-0.116,0.5-0.149s0.4-0.15,0.5-0.351
			c0.333,0.233,0.683,0.301,1.05,0.2l0.25,0.25c0.5,0.267,1.116,0.434,1.85,0.5c0.233,0,0.884,0,1.95,0c0.1,0,1.017,0.084,2.75,0.25
			c1.1,0.101,2.033,0.084,2.8-0.05c2.3-0.333,4.017-0.733,5.15-1.2c0.933-0.333,1.633-0.616,2.1-0.85
			c0.767-0.367,1.35-0.767,1.75-1.2c0.533-0.967,0.917-1.467,1.15-1.5c0.1,0,0.35,0.15,0.75,0.45c0.399,0.366,0.649,0.566,0.75,0.6
			c1.066,0.566,2.316,1.066,3.75,1.5l3.199,1.101c0.567,0.199,1.267,0.316,2.101,0.35c0.967,0.033,1.684,0.05,2.149,0.05
			c2.767,0.134,4.434,0.167,5,0.101c1.801-0.101,3.4-0.567,4.801-1.4c1.699-1.167,3.017-2,3.949-2.5c0.767-0.434,1.434-0.667,2-0.7
			c1.601-0.133,2.534-0.116,2.801,0.05c0.267,0.167,0.483,0.5,0.649,1c0.2,0.534,0.45,0.917,0.75,1.15
			c0.066,0.033,0.351,0.2,0.851,0.5c0.267,0.167,0.483,0.366,0.649,0.6c0.101,0.101,0.167,0.301,0.2,0.601
			c0.066,0.3,0.184,0.5,0.35,0.6c0.101,0.066,0.301,0.084,0.601,0.05c0.333-0.033,0.55-0.05,0.649-0.05
			c1.434,0.167,2.267,0.25,2.5,0.25c1.2,0.134,2.051,0.15,2.551,0.05c0.199-0.033,0.449-0.149,0.75-0.35
			c0.3-0.2,0.533-0.333,0.699-0.4c0.301-0.033,0.584-0.017,0.851,0.051c0.333,0.133,0.583,0.199,0.75,0.199
			c0.233,0,0.816-0.233,1.75-0.699c0.767-0.434,1.55-1.067,2.35-1.9c0.9-0.967,1.601-1.7,2.101-2.2l2.899-2.899
			c1.667-1.967,3.033-4.284,4.101-6.95V57.4c0,1.1-0.384,2.05-1.15,2.85c-0.2,0.2-0.4,0.366-0.6,0.5c0,0.3,0,0.55,0,0.75
			L159.35,62.1z M115.95,57.55c0.033,0.101,0.066,0.2,0.1,0.3c0.101,0.367,0.2,0.584,0.3,0.65c0.167,0.167,0.417,0.25,0.75,0.25
			c0.367,0,0.65,0,0.851,0c2.6-0.066,4.166-0.134,4.7-0.2c2.3-0.3,3.983-0.25,5.05,0.15c0.399,0.233,0.7,0.399,0.899,0.5
			c0.334,0.166,0.684,0.267,1.051,0.3c0.733,0.066,1.399,0.05,2-0.05c0.1-0.033,0.316-0.117,0.649-0.25
			c0.134-0.033,0.384-0.033,0.75,0c2.5,0.366,4.2,0.55,5.101,0.55c0.433,0,1.666,0.033,3.699,0.1c1.567,0.067,2.801,0.034,3.7-0.1
			c0.566-0.066,1.467-0.25,2.7-0.55c1.134-0.3,2.017-0.483,2.65-0.55c0.933,0.066,1.666,0.116,2.199,0.149c0.367,0,0.7-0.017,1-0.05
			c-1.066-0.767-1.733-1.167-2-1.2c-0.3-0.033-1.116,0.033-2.449,0.2c-1.867,0.167-4.233,0.233-7.101,0.2
			c-1.6-0.033-3.967-0.084-7.1-0.15c-2.5,0-6.267-0.083-11.3-0.25H115.95z M113.05,57.9c0.101-0.167,0.217-0.284,0.351-0.351h-11.75
			c-2.101,0-5.267,0.084-9.5,0.25c-0.767,0-1.834-0.033-3.2-0.1c0.066,0.066,0.166,0.133,0.3,0.2c0.333,0.199,0.566,0.316,0.7,0.35
			c0.399,0.066,0.967,0.1,1.7,0.1c0.8-0.066,1.366-0.1,1.699-0.1H109.7c0.8,0,1.383-0.017,1.75-0.05
			C112.05,58.167,112.583,58.066,113.05,57.9z M114.9,57.7c0.066,0,0.149-0.05,0.25-0.15h-0.9C114.583,57.65,114.8,57.7,114.9,57.7z
			"/>
		<path style="fill-rule:evenodd;clip-rule:evenodd;fill:#FFFFFF;" d="M82.1,18.55c-0.633,0.633-1.4,0.95-2.3,0.95
			c-0.867,0-1.5-0.283-1.9-0.85v3.65h-2.3L75.55,12h1.95l0.15,1.05c0.567-0.8,1.383-1.2,2.45-1.2c0.833,0,1.55,0.333,2.15,1
			c0.6,0.7,0.9,1.617,0.9,2.75C83.15,16.833,82.8,17.817,82.1,18.55z M65.05,9.25v10.1H62.8V15.1h-3.75v4.25h-2.3V9.25h2.3v3.85
			h3.75V9.25H65.05z M67.65,18.5c-0.733-0.7-1.1-1.617-1.1-2.75c0-1.2,0.35-2.15,1.05-2.85c0.733-0.7,1.683-1.05,2.85-1.05
			c1.133,0,2.033,0.35,2.7,1.05c0.7,0.667,1.05,1.567,1.05,2.7c0,1.267-0.4,2.25-1.2,2.95c-0.7,0.633-1.6,0.95-2.7,0.95
			C69.233,19.5,68.35,19.167,67.65,18.5z M70.4,17.85c0.967,0,1.45-0.733,1.45-2.2c0-0.6-0.117-1.1-0.35-1.5
			c-0.267-0.467-0.633-0.7-1.1-0.7c-0.5,0-0.883,0.233-1.15,0.7c-0.233,0.4-0.35,0.9-0.35,1.5C68.9,17.117,69.4,17.85,70.4,17.85z
			 M80.85,15.7c0-1.367-0.517-2.05-1.55-2.05c-0.733,0-1.183,0.383-1.35,1.15l-0.05,0.4v1l0.05,0.45c0.167,0.733,0.6,1.1,1.3,1.1
			C80.317,17.75,80.85,17.067,80.85,15.7z M43.1,12l-0.05,6.3c0,1.5-0.367,2.6-1.1,3.3c-0.733,0.6-1.733,0.9-3,0.9
			c-1.067,0-1.95-0.2-2.65-0.6l0.45-1.7c0.733,0.367,1.45,0.55,2.15,0.55c1.267,0,1.9-0.65,1.9-1.95v-0.45h-0.05
			c-0.433,0.633-1.083,0.95-1.95,0.95c-0.9,0-1.633-0.333-2.2-1c-0.6-0.7-0.9-1.566-0.9-2.6c0-1.133,0.333-2.067,1-2.8
			c0.6-0.7,1.367-1.05,2.3-1.05c0.9,0,1.583,0.35,2.05,1.05l0.1-0.9H43.1z M47.15,12v3.95c0,1.133,0.383,1.7,1.15,1.7
			c0.567,0,0.95-0.267,1.15-0.8l0.05-0.5V12h2.3l0.05,7.35H49.9l-0.15-1.05c-0.533,0.8-1.3,1.2-2.3,1.2c-1.733,0-2.6-1.067-2.6-3.2
			V12H47.15z M40.75,14.55c-0.233-0.667-0.65-1-1.25-1c-0.433,0-0.783,0.184-1.05,0.55c-0.3,0.367-0.45,0.883-0.45,1.55
			c0,0.567,0.133,1.033,0.4,1.4s0.633,0.55,1.1,0.55c0.633,0,1.033-0.3,1.2-0.9L40.75,14.55z M29.25,12l0.1,1.05h0.05
			c0.467-0.8,1.217-1.2,2.25-1.2c0.8,0,1.434,0.25,1.9,0.75c0.5,0.566,0.75,1.367,0.75,2.4v4.35H32V15.3c0-1.066-0.383-1.6-1.15-1.6
			c-0.533,0-0.934,0.283-1.2,0.85L29.6,15.1v4.25h-2.3L27.25,12H29.25z M22.1,17.85c0.967,0,1.45-0.733,1.45-2.2
			s-0.483-2.2-1.45-2.2c-0.5,0-0.883,0.233-1.15,0.7c-0.233,0.4-0.35,0.9-0.35,1.5C20.6,17.117,21.1,17.85,22.1,17.85z M22.05,19.5
			c-1.1,0-2-0.333-2.7-1c-0.733-0.7-1.1-1.617-1.1-2.75c0-1.2,0.35-2.15,1.05-2.85c0.733-0.7,1.684-1.05,2.85-1.05
			c1.133,0,2.033,0.35,2.7,1.05c0.7,0.667,1.05,1.567,1.05,2.7c0,1.267-0.4,2.25-1.2,2.95C24,19.183,23.117,19.5,22.05,19.5z
			 M17.9,9.25l-3.35,4.3l3.5,5.8H15.4L12.9,15l-0.85,1.05v3.3H9.8V9.25h2.25v4.45h0.05l2.95-4.45H17.9z"/>
		<path style="fill-rule:evenodd;clip-rule:evenodd;fill:#69382B;" d="M94.55,34.8c0.2,0,0.384,0.083,0.55,0.25
			c0.134,0.133,0.2,0.3,0.2,0.5v2.601c0,0.199-0.066,0.383-0.2,0.55c-0.166,0.133-0.35,0.2-0.55,0.2H91.3V34.8H94.55z M96,34
			c-0.267-0.267-0.583-0.4-0.95-0.4h-8.3c-0.366,0-0.684,0.133-0.95,0.4c-0.267,0.233-0.399,0.533-0.399,0.9v9.4
			c0,0.367,0.133,0.667,0.399,0.9c0.267,0.267,0.584,0.399,0.95,0.399h8.3c0.367,0,0.684-0.133,0.95-0.399
			c0.267-0.233,0.4-0.533,0.4-0.9v-9.4C96.4,34.533,96.267,34.233,96,34z M100.15,34.25c1.833,2.167,2.75,4.717,2.75,7.65
			c0,3.333-1.167,6.166-3.5,8.5c-2.367,2.333-5.2,3.5-8.5,3.5c-3.334,0-6.167-1.167-8.5-3.5c-0.566-0.567-1.05-1.15-1.45-1.75
			c-1.367-1.967-2.05-4.217-2.05-6.75c0-3.334,1.167-6.167,3.5-8.5c2.333-2.333,5.167-3.5,8.5-3.5c3.3,0,6.133,1.167,8.5,3.5
			C99.667,33.667,99.917,33.95,100.15,34.25z M90.5,34.8V38.9h-3.25c-0.5,0-0.75-0.25-0.75-0.75V35.55c0-0.5,0.25-0.75,0.75-0.75
			H90.5z M86.75,41.4c0-0.634,0.316-0.95,0.95-0.95c0.633,0,0.95,0.316,0.95,0.95c0,0.6-0.317,0.899-0.95,0.899
			C87.066,42.3,86.75,42,86.75,41.4z M87.95,46.65c0-0.101-0.05-0.217-0.15-0.351c-0.233-0.233-0.483-0.233-0.75,0l-3.4,3.05
			c-0.233,0.233-0.233,0.467,0,0.7s0.466,0.233,0.7,0L85.1,49.4h11.5c0.034,0,0.067,0,0.101,0l0.7,0.649
			c0.267,0.233,0.517,0.233,0.75,0c0.233-0.2,0.216-0.434-0.051-0.7L94.7,46.3c-0.233-0.233-0.467-0.233-0.7,0
			c-0.1,0.134-0.15,0.25-0.15,0.351H87.95z M86.3,48.3l0.65-0.55h7.899l0.601,0.55H86.3z M93.4,40.7
			c0.199-0.167,0.433-0.25,0.699-0.25s0.483,0.083,0.65,0.25c0.2,0.2,0.3,0.434,0.3,0.7c0,0.233-0.1,0.449-0.3,0.649
			c-0.167,0.167-0.384,0.25-0.65,0.25s-0.5-0.083-0.699-0.25C93.2,41.884,93.1,41.667,93.1,41.4S93.2,40.9,93.4,40.7z"/>
		<path style="fill-rule:evenodd;clip-rule:evenodd;fill:#577FAA;" d="M58.55,34c-0.267,0.233-0.4,0.533-0.4,0.9v9.4
			c0,0.367,0.133,0.667,0.4,0.9c0.267,0.267,0.583,0.399,0.95,0.399h8.3c0.367,0,0.684-0.133,0.95-0.399
			c0.267-0.233,0.4-0.533,0.4-0.9v-9.4c0-0.367-0.133-0.667-0.4-0.9c-0.267-0.267-0.583-0.4-0.95-0.4h-8.3
			C59.133,33.6,58.817,33.733,58.55,34z M60,34.8h3.25V38.9H60c-0.5,0-0.75-0.25-0.75-0.75V35.55C59.25,35.05,59.5,34.8,60,34.8z
			 M60.45,40.45c0.633,0,0.95,0.316,0.95,0.95c0,0.267-0.083,0.483-0.25,0.649c-0.2,0.167-0.433,0.25-0.7,0.25
			c-0.633,0-0.95-0.3-0.95-0.899C59.5,40.767,59.817,40.45,60.45,40.45z M59.05,48.3l0.65-0.55h7.9l0.6,0.55H59.05z M60.55,46.3
			c-0.233-0.233-0.483-0.233-0.75,0l-3.4,3.05c-0.233,0.233-0.233,0.467,0,0.7s0.467,0.233,0.7,0l0.75-0.649h11.5
			c0.033,0,0.066,0,0.1,0l0.7,0.649c0.267,0.233,0.517,0.233,0.75,0c0.233-0.2,0.217-0.434-0.05-0.7l-3.4-3.05
			c-0.233-0.233-0.467-0.233-0.7,0c-0.1,0.134-0.15,0.25-0.15,0.351h-5.9C60.7,46.55,60.65,46.434,60.55,46.3z M72.9,34.25
			c1.833,2.167,2.75,4.717,2.75,7.65c0,3.333-1.167,6.166-3.5,8.5c-2.367,2.333-5.2,3.5-8.5,3.5c-3.333,0-6.167-1.167-8.5-3.5
			c-0.566-0.567-1.05-1.15-1.45-1.75c-1.367-1.967-2.05-4.217-2.05-6.75c0-3.334,1.167-6.167,3.5-8.5c2.333-2.333,5.167-3.5,8.5-3.5
			c3.3,0,6.133,1.167,8.5,3.5C72.417,33.667,72.667,33.95,72.9,34.25z M68.05,35.55v2.601c0,0.199-0.066,0.383-0.2,0.55
			c-0.167,0.133-0.35,0.2-0.55,0.2h-3.25V34.8h3.25c0.2,0,0.383,0.083,0.55,0.25C67.983,35.183,68.05,35.35,68.05,35.55z
			 M66.85,40.45c0.267,0,0.483,0.083,0.65,0.25c0.2,0.2,0.3,0.434,0.3,0.7c0,0.233-0.1,0.449-0.3,0.649
			c-0.167,0.167-0.383,0.25-0.65,0.25s-0.5-0.083-0.7-0.25c-0.2-0.166-0.3-0.383-0.3-0.649s0.1-0.5,0.3-0.7
			C66.35,40.533,66.583,40.45,66.85,40.45z"/>
	</g>
</g>
</svg>
