<?xml version="1.0" encoding="iso-8859-1"?>
<!-- Generator: Adobe Illustrator 16.0.0, SVG Export Plug-In . SVG Version: 6.00 Build 0)  -->
<!DOCTYPE svg PUBLIC "-//W3C//DTD SVG 1.1//EN" "http://www.w3.org/Graphics/SVG/1.1/DTD/svg11.dtd">
<svg version="1.1" id="FlashAICB" xmlns="http://www.w3.org/2000/svg" xmlns:xlink="http://www.w3.org/1999/xlink" x="0px" y="0px"
	 width="168.934px" height="70.033px" viewBox="0 0 168.934 70.033" style="enable-background:new 0 0 168.934 70.033;"
	 xml:space="preserve">
<g>
	<path style="fill-rule:evenodd;clip-rule:evenodd;fill:#515046;" d="M162,4.8V4.1c0-0.033,0-0.066,0-0.1
		c0.199,0.466,0.365,1.116,0.5,1.95c0.1,0.566,0.2,1.35,0.3,2.35c0.066,0.5,0.351,2.017,0.851,4.55
		c0.366,1.833,0.517,3.35,0.449,4.55c-0.033,0.7-0.316,1.717-0.85,3.05c-0.053,0.131-0.103,0.256-0.15,0.375c0-0.189,0-0.38,0-0.575
		c0-0.933-0.116-2.333-0.35-4.2c-0.267-1.867-0.4-3.283-0.4-4.25c0-0.833-0.083-2.083-0.25-3.75c-0.037-0.375-0.07-0.734-0.1-1.075
		V4.8z M163.075,26.25c0.208,0.339,0.4,0.806,0.575,1.4c0.3,0.934,0.449,1.95,0.449,3.05c0,0.2-0.017,0.55-0.05,1.05
		c-0.033,0.433-0.017,0.767,0.05,1c0.134,0.333,0.4,0.617,0.801,0.85c0.466,0.3,0.75,0.517,0.85,0.65
		c0.233,0.333,0.417,0.767,0.55,1.3c0.134,0.834,0.316,2.05,0.55,3.65c0.067,0.366,0.2,1.649,0.4,3.85
		c0.134,1.601,0.417,2.816,0.85,3.65c0.067,0.133,0.217,0.35,0.45,0.649c0.134,0.134,0.233,0.4,0.3,0.801
		c0.167,1.233,0.084,2.35-0.25,3.35c-0.199,0.5-0.649,1.134-1.35,1.9c-0.733,0.767-1.184,1.383-1.35,1.85
		c-0.034,0.134-0.051,0.75-0.051,1.85c0,2.9,0.067,4.767,0.2,5.601c0.367,2.866,0.45,4.95,0.25,6.25c-1,0.1-1.916,0-2.75-0.3
		c-0.633-0.233-2.033-0.534-4.2-0.9c-1.699-0.533-3.05-0.8-4.05-0.8c-0.467,0-1.05-0.101-1.75-0.3c-0.866-0.233-1.467-0.367-1.8-0.4
		c-0.866-0.1-1.9-0.017-3.1,0.25c-0.4,0.1-1.117,0.2-2.15,0.3c-0.934,0.101-1.667,0.25-2.2,0.45c-0.566,0.2-1.133,0.566-1.7,1.1
		c-0.8,0.733-1.316,1.184-1.55,1.351c-0.566,0.333-1.267,0.416-2.1,0.25c-0.967-0.334-1.667-0.566-2.101-0.7
		c-1.267-0.5-2.449-1.25-3.55-2.25c-0.666-0.533-1.066-0.85-1.2-0.95c-0.366-0.233-0.833-0.35-1.399-0.35
		c-0.9,0-2.15,0.116-3.75,0.35c-1.7,0.267-2.934,0.4-3.7,0.4c-0.733,0.033-1.467-0.233-2.2-0.8c-0.899-0.667-1.583-1.067-2.05-1.2
		c-0.1-0.033-0.684-0.05-1.75-0.05c-3.733,0.066-6.233,0.183-7.5,0.35c-1.467,0.134-2.566,0.267-3.3,0.4
		c-3.566,0.666-6.017,1.35-7.351,2.05C98.467,67.6,98,67.866,97.7,68c-0.533,0.233-1.05,0.283-1.55,0.15
		c-0.967-0.367-1.717-0.601-2.25-0.7c-0.934-0.167-2.15-0.584-3.65-1.25c-1.7-0.767-2.917-1.25-3.65-1.45
		c-0.8-0.233-2-0.35-3.6-0.35c-1.1,0.033-2.467-0.017-4.1-0.15c-2.7-0.2-4.066-0.3-4.1-0.3c-3.767-0.2-8.767-0.217-15-0.05
		c-7.7,0.199-12.7,0.283-15,0.25c-3.433,0-5.867,0.283-7.3,0.85c-0.6,0.233-1.667,1.033-3.2,2.4c-1.233,1.1-2.433,1.633-3.6,1.6
		c-1.567-0.066-3.917-0.9-7.05-2.5c-1.1-0.533-2.583-0.85-4.45-0.95c-2.1-0.033-3.633-0.1-4.6-0.2c-2.767-0.033-5.1-0.199-7-0.5
		C4.464,64.352,2.731,63.401,2.4,62c0.509,0.233,1.059,0.35,1.65,0.35h0.2c0.26,0.18,0.643,0.313,1.15,0.4
		c0.5,0.1,1.167,0.184,2,0.25c0.4,0.066,1.283,0.25,2.65,0.55c1.034,0.233,1.9,0.384,2.6,0.45c0.533,0.033,1.5,0.134,2.9,0.3
		c1.2,0.134,2.167,0.2,2.9,0.2c0.433,0,1.083-0.017,1.95-0.05c0.8-0.033,1.45-0.017,1.95,0.05c1.667,0.2,3.316,0.566,4.95,1.1
		c1,0.367,2.184,0.417,3.55,0.15c0.533-0.1,1.717-0.434,3.55-1c3.233-1,7.633-1.5,13.2-1.5c6.066,0,15.167-0.083,27.3-0.25
		c3,0,7.467-0.083,13.4-0.25c1.634,0,4.084,0.134,7.351,0.4c3.233,0.233,5.666,0.35,7.3,0.35c2.633,0,4.633-0.1,6-0.3
		c2.346-0.427,4.604-0.71,6.774-0.851h3.65c0.395,0.075,0.786,0.191,1.175,0.351c0.334,0.133,0.684,0.217,1.05,0.25
		c0.2,0,0.534,0.017,1,0.05c1.534,0.134,2.7,0.134,3.5,0c2.9-0.467,5.801-0.066,8.7,1.2c0.5,0.233,1.167,0.55,2,0.95
		c0.733,0.267,1.467,0.383,2.2,0.35c0.7-0.033,1.616-0.267,2.75-0.7c1.167-0.434,2.05-0.684,2.65-0.75
		c1.333-0.133,3.316-0.383,5.949-0.75c1.634-0.166,3.733-0.184,6.301-0.05c1.233,0.066,2.233,0.2,3,0.4
		c0.8,0.267,1.35,0.366,1.649,0.3c0.034-0.153,0.06-0.312,0.075-0.476c0.728-0.061,1.136-0.135,1.225-0.225
		c0.167-0.1,0.25-0.517,0.25-1.25c0-1.233,0.134-2.3,0.4-3.2c0.434-1.133,0.8-2.149,1.1-3.05c0.167-0.434,0.101-1.417-0.199-2.95
		c-0.267-1.434-0.284-2.366-0.051-2.8c0.2-0.333,0.184-0.9-0.05-1.7c-0.3-1.033-0.45-1.633-0.45-1.8c0-0.2,0.101-0.95,0.301-2.25
		c0.166-1,0.166-1.7,0-2.1c-0.267-0.767-0.367-1.801-0.301-3.101c0.067-1.6,0.067-2.633,0-3.1c-0.333-3.333-0.517-5.95-0.55-7.85
		C163.058,27.483,163.066,26.867,163.075,26.25z"/>
	<path style="fill-rule:evenodd;clip-rule:evenodd;fill:#3A3932;" d="M119.375,62.35H158c0.31,0,0.609-0.033,0.9-0.1
		c0.173,0.124,0.323,0.225,0.449,0.3l0.025-0.425c0.537-0.204,1.029-0.529,1.475-0.975c0.756-0.788,1.139-1.738,1.15-2.851V6.975
		c0.029,0.341,0.063,0.699,0.1,1.075c0.167,1.667,0.25,2.917,0.25,3.75c0,0.967,0.134,2.383,0.4,4.25
		c0.233,1.867,0.35,3.267,0.35,4.2c0,0.195,0,0.386,0,0.575c-0.001,1.803-0.01,3.611-0.024,5.425
		c-0.009,0.617-0.018,1.233-0.025,1.85c0.033,1.9,0.217,4.517,0.55,7.85c0.067,0.467,0.067,1.5,0,3.1
		c-0.066,1.3,0.034,2.334,0.301,3.101c0.166,0.399,0.166,1.1,0,2.1c-0.2,1.3-0.301,2.05-0.301,2.25c0,0.167,0.15,0.767,0.45,1.8
		c0.233,0.8,0.25,1.367,0.05,1.7c-0.233,0.434-0.216,1.366,0.051,2.8c0.3,1.533,0.366,2.517,0.199,2.95
		c-0.3,0.9-0.666,1.917-1.1,3.05c-0.267,0.9-0.4,1.967-0.4,3.2c0,0.733-0.083,1.15-0.25,1.25c-0.089,0.09-0.497,0.164-1.225,0.225
		c-0.016,0.164-0.041,0.322-0.075,0.476c-0.3,0.066-0.85-0.033-1.649-0.3c-0.767-0.2-1.767-0.334-3-0.4
		c-2.567-0.134-4.667-0.116-6.301,0.05c-2.633,0.367-4.616,0.617-5.949,0.75c-0.601,0.066-1.483,0.316-2.65,0.75
		c-1.134,0.434-2.05,0.667-2.75,0.7c-0.733,0.033-1.467-0.083-2.2-0.35c-0.833-0.4-1.5-0.717-2-0.95c-2.899-1.267-5.8-1.667-8.7-1.2
		c-0.8,0.134-1.966,0.134-3.5,0c-0.466-0.033-0.8-0.05-1-0.05c-0.366-0.033-0.716-0.117-1.05-0.25
		C120.161,62.541,119.77,62.425,119.375,62.35z M4.25,62.35h111.475c-2.17,0.141-4.429,0.424-6.774,0.851
		c-1.367,0.2-3.367,0.3-6,0.3c-1.634,0-4.066-0.116-7.3-0.35c-3.267-0.267-5.717-0.4-7.351-0.4C82.367,62.917,77.9,63,74.9,63
		c-12.133,0.167-21.233,0.25-27.3,0.25c-5.567,0-9.967,0.5-13.2,1.5c-1.833,0.566-3.017,0.9-3.55,1
		c-1.367,0.267-2.55,0.217-3.55-0.15c-1.633-0.533-3.283-0.899-4.95-1.1c-0.5-0.066-1.15-0.083-1.95-0.05
		c-0.867,0.033-1.517,0.05-1.95,0.05c-0.733,0-1.7-0.066-2.9-0.2c-1.4-0.166-2.367-0.267-2.9-0.3c-0.7-0.066-1.566-0.217-2.6-0.45
		C8.683,63.25,7.8,63.066,7.4,63c-0.833-0.066-1.5-0.15-2-0.25C4.893,62.663,4.51,62.529,4.25,62.35z"/>
	<path style="fill-rule:evenodd;clip-rule:evenodd;fill:#8A8E71;" d="M157.3,0.85H4.4H4.05c-1.1,0-2.05,0.4-2.85,1.2
		C0.423,2.794,0.023,3.71,0,4.8V4.1C0,2.967,0.4,2,1.2,1.2C2,0.4,2.95,0,4.05,0H158c1.1,0,2.05,0.4,2.85,1.2
		c0.745,0.777,1.128,1.71,1.15,2.8c0,0.034,0,0.067,0,0.1v0.7c-0.022-1.089-0.406-2.006-1.15-2.75c-0.8-0.8-1.75-1.2-2.85-1.2H157.3
		z"/>
	<path style="fill-rule:evenodd;clip-rule:evenodd;fill:#11120E;" d="M159.375,62.125l0.025-0.575
		c-0.015-0.269-0.023-0.519-0.025-0.75c0.232-0.158,0.457-0.341,0.675-0.55c0.767-0.8,1.15-1.75,1.15-2.85V40.95V4.85
		c0-1.133-0.384-2.083-1.15-2.85c-0.775-0.743-1.692-1.126-2.75-1.15h0.7c1.1,0,2.05,0.4,2.85,1.2
		c0.744,0.744,1.128,1.661,1.15,2.75v2.175V58.3c-0.012,1.112-0.395,2.063-1.15,2.851C160.404,61.596,159.912,61.921,159.375,62.125
		z M115.725,62.35H4.25h-0.2c-0.591,0-1.141-0.116-1.65-0.35c-0.43-0.196-0.83-0.48-1.2-0.85c-0.025-0.025-0.05-0.051-0.075-0.075
		C1.102,61.051,1.077,61.025,1.05,61C0.361,60.242,0.011,59.343,0,58.3V4.8C0.023,3.71,0.423,2.794,1.2,2.05
		c0.8-0.8,1.75-1.2,2.85-1.2H4.4C3.34,0.876,2.44,1.26,1.7,2C0.9,2.767,0.5,3.717,0.5,4.85V40v17.4c0,1.1,0.4,2.05,1.2,2.85
		c0.767,0.767,1.7,1.15,2.8,1.15h152.7c0.145,0,0.286-0.009,0.425-0.025c0.513,0.368,0.938,0.66,1.275,0.875
		c-0.291,0.066-0.591,0.1-0.9,0.1h-38.625H115.725z M127.525,34.275c-0.245-0.278-0.503-0.553-0.775-0.825
		c-2.366-2.367-5.2-3.55-8.5-3.55c-3.333,0-6.167,1.184-8.5,3.55c-2.333,2.333-3.5,5.149-3.5,8.45c0,2.542,0.675,4.792,2.025,6.75
		c-1.617-2.072-2.426-4.488-2.426-7.25c0-3.301,1.184-6.117,3.551-8.45c2.333-2.367,5.149-3.55,8.449-3.55
		c3.334,0,6.167,1.184,8.5,3.55C126.779,33.379,127.171,33.821,127.525,34.275z M134.9,45.1H134.6c-0.5,0-0.916-0.199-1.25-0.6
		c-0.366-0.366-0.55-0.816-0.55-1.35V40.2c0-0.533,0.184-1,0.55-1.4c0.334-0.366,0.75-0.55,1.25-0.55h0.301
		c-0.477,0.011-0.877,0.194-1.2,0.55c-0.367,0.4-0.55,0.867-0.55,1.4v2.95c0,0.533,0.183,0.983,0.55,1.35
		C134.023,44.889,134.424,45.088,134.9,45.1z M145.45,38.25l-3.05-3.3c-0.334-0.367-0.5-0.817-0.5-1.35c0-0.567,0.166-1.033,0.5-1.4
		l1.899-2.1c0.367-0.367,0.8-0.55,1.3-0.55c0.068,0,0.135,0,0.2,0c-0.416,0.05-0.783,0.233-1.1,0.55l-1.9,2.1
		c-0.333,0.367-0.5,0.833-0.5,1.4c0,0.533,0.167,0.983,0.5,1.35l3.05,3.3H145.45z M145.8,53.8c-0.065,0-0.132,0-0.2,0
		c-0.5,0-0.933-0.2-1.3-0.6l-1.899-2.05c-0.334-0.367-0.5-0.817-0.5-1.351c0-0.566,0.166-1.033,0.5-1.399l3.05-3.301h0.399
		L142.8,48.4c-0.333,0.366-0.5,0.833-0.5,1.399c0,0.533,0.167,0.983,0.5,1.351l1.9,2.05C145.017,53.546,145.384,53.745,145.8,53.8z
		 M100.65,34.9c-0.367-0.5-0.783-0.983-1.25-1.45c-2.334-2.367-5.167-3.55-8.5-3.55c-3.301,0-6.117,1.184-8.45,3.55
		c-2.367,2.333-3.55,5.149-3.55,8.45c0,2.624,0.733,4.941,2.2,6.949c-1.7-2.12-2.55-4.604-2.55-7.449c0-3.301,1.167-6.117,3.5-8.45
		c2.334-2.367,5.167-3.55,8.5-3.55c3.3,0,6.134,1.184,8.5,3.55C99.669,33.569,100.202,34.219,100.65,34.9z M53.85,48.85
		c-1.7-2.12-2.55-4.604-2.55-7.449c0-3.301,1.167-6.117,3.5-8.45c2.333-2.367,5.167-3.55,8.5-3.55c3.3,0,6.133,1.184,8.5,3.55
		c0.619,0.619,1.152,1.269,1.6,1.95c-0.366-0.5-0.783-0.983-1.25-1.45c-2.333-2.367-5.167-3.55-8.5-3.55
		c-3.3,0-6.117,1.184-8.45,3.55c-2.367,2.333-3.55,5.149-3.55,8.45C51.65,44.524,52.383,46.842,53.85,48.85z"/>
	
		<radialGradient id="SVGID_1_" cx="80.8501" cy="-1.9502" r="81.2" gradientTransform="matrix(1 0 0 -1 0 -3.9004)" gradientUnits="userSpaceOnUse">
		<stop  offset="0" style="stop-color:#3E4234"/>
		<stop  offset="1" style="stop-color:#1B1C16"/>
	</radialGradient>
	<path style="fill-rule:evenodd;clip-rule:evenodd;fill:url(#SVGID_1_);" d="M4.4,0.85h152.9c1.058,0.023,1.975,0.407,2.75,1.15
		c0.767,0.767,1.15,1.717,1.15,2.85v36.1c-1.066,2.666-2.434,4.983-4.101,6.95c-0.366,0.399-1.35,1.366-2.949,2.899
		c-0.934,1.033-1.617,1.783-2.051,2.25c-0.8,0.8-1.6,1.417-2.399,1.851c-0.834,0.466-1.417,0.699-1.75,0.699
		c-0.2,0-0.45-0.05-0.75-0.149c-0.267-0.101-0.533-0.117-0.8-0.05c-0.2,0.033-0.45,0.149-0.75,0.35
		c-0.334,0.2-0.584,0.316-0.75,0.35c-0.301,0.067-0.717,0.084-1.25,0.051c-0.7-0.034-1.134-0.051-1.301-0.051
		c-0.366,0-0.783-0.033-1.25-0.1c-0.8-0.134-1.216-0.2-1.25-0.2c-0.267,0.033-0.483,0.066-0.649,0.101
		c-0.267,0-0.467-0.034-0.601-0.101c-0.166-0.1-0.267-0.3-0.3-0.6c-0.066-0.3-0.133-0.5-0.2-0.601
		c-0.199-0.233-0.416-0.416-0.649-0.55c-0.434-0.233-0.717-0.399-0.851-0.5c-0.3-0.233-0.55-0.616-0.75-1.149
		c-0.166-0.534-0.383-0.884-0.649-1.051c-0.2-0.133-0.667-0.183-1.4-0.149c-0.767,0.066-1.25,0.1-1.45,0.1
		c-0.633,0.066-1.3,0.3-2,0.7l-3.949,2.5c-1.4,0.833-2.983,1.316-4.75,1.45c-0.367,0.033-2.051,0-5.051-0.101
		c-2.133-0.066-3.55-0.216-4.25-0.449c-1.399-0.5-2.466-0.851-3.199-1.051c-1.233-0.366-2.483-0.866-3.75-1.5
		c-0.767-0.733-1.267-1.083-1.5-1.05c-0.134,0-0.334,0.217-0.601,0.65l-0.55,0.8c-0.366,0.467-0.95,0.884-1.75,1.25
		c-0.934,0.366-1.634,0.65-2.1,0.85c-0.867,0.367-2.584,0.767-5.15,1.2c-0.7,0.134-1.616,0.134-2.75,0c-1.5-0.133-2.434-0.2-2.8-0.2
		c-0.867,0-1.517-0.017-1.95-0.05c-0.733-0.033-1.35-0.184-1.85-0.45l-0.25-0.25c-0.333,0.067-0.667-0.017-1-0.25
		c-0.1,0.2-0.267,0.317-0.5,0.351c-0.267,0.033-0.433,0.083-0.5,0.149c-0.267,0.4-0.517,0.667-0.75,0.801
		c-0.267,0.166-0.75,0.283-1.45,0.35c-0.7,0.033-1.2,0.15-1.5,0.35c1.7-0.066,3.983,0,6.85,0.2c1.054,0.064,2.004,0.114,2.851,0.15
		c-0.056,0.066-0.122,0.1-0.2,0.1c-0.167,0-0.967-0.017-2.4-0.05c-1.033,0-1.816,0.083-2.35,0.25c-0.8,0.333-1.367,0.566-1.7,0.7
		c-0.6,0.233-1.217,0.333-1.85,0.3c-2.2,0-3.8-0.083-4.8-0.25c-0.6-0.2-1.083-0.35-1.45-0.45c-0.333-0.066-0.8-0.1-1.4-0.1
		c-0.767,0.033-1.233,0.05-1.4,0.05c-0.533-0.033-1.233-0.184-2.1-0.45c-1-0.333-1.683-0.533-2.05-0.6
		c-1.034-0.167-2.417-0.2-4.15-0.101c-2.667,0.101-4.066,0.15-4.2,0.15c-1.333,0.066-2.367,0.116-3.1,0.15
		c-1.333,0.066-2.35-0.017-3.05-0.25c0.033-0.434,0.1-0.733,0.2-0.9c-1.066-0.1-2.066-0.083-3,0.05
		c-0.033,0.167,0.033,0.483,0.2,0.95c0.1,0.3-0.05,0.55-0.45,0.75c-0.4,0.233-1.066,0.25-2,0.05l-2-0.399l-2.7,0.1
		c-1-0.167-1.7-0.267-2.1-0.3c-1,0.033-1.733,0.05-2.2,0.05c-1.233-0.267-2.15-0.333-2.75-0.2c-1.133,0.467-2.066,0.7-2.8,0.7H26.1
		c-0.8,0-1.434-0.116-1.9-0.35c-0.3-0.2-0.517-0.351-0.65-0.45c-0.2-0.134-0.417-0.184-0.65-0.15c-0.6,0.5-1.017,0.8-1.25,0.9
		c-0.4,0.133-0.9,0.233-1.5,0.3c-0.667,0.066-1.933-0.083-3.8-0.45c-0.7-0.133-2.184-0.133-4.45,0
		c-1.867,0.101-3.267-0.083-4.2-0.55c-0.534-0.3-0.9-0.467-1.1-0.5c-0.7,0.134-1.167,0.05-1.4-0.25c-0.067-0.066-0.1-0.233-0.1-0.5
		c0.033-0.3,0.033-0.483,0-0.55c-0.167-0.601-0.467-1.066-0.9-1.4c-0.2,1.2-0.767,1.917-1.7,2.15c-0.133-0.467-0.217-1.134-0.25-2
		c-0.033-0.967-0.083-1.634-0.15-2c-0.133,0.3-0.35,0.467-0.65,0.5C1.383,52.233,1.4,51.45,1.5,50.35
		c0.1-1.033,0.083-1.833-0.05-2.399c-0.2-1.101-0.3-2.15-0.3-3.15c0-0.5-0.05-1.434-0.15-2.8c-0.1-1.167-0.133-2.083-0.1-2.75
		L0.5,40V4.85C0.5,3.717,0.9,2.767,1.7,2C2.44,1.26,3.34,0.876,4.4,0.85z M108.275,48.65c0.43,0.613,0.921,1.196,1.475,1.75
		c2.333,2.333,5.167,3.5,8.5,3.5c3.3,0,6.134-1.167,8.5-3.5c2.333-2.334,3.5-5.167,3.5-8.5c0-2.915-0.908-5.457-2.725-7.625
		c-0.354-0.454-0.746-0.896-1.176-1.325c-2.333-2.367-5.166-3.55-8.5-3.55c-3.3,0-6.116,1.184-8.449,3.55
		c-2.367,2.333-3.551,5.149-3.551,8.45C105.85,44.162,106.658,46.578,108.275,48.65z M134.9,38.25H134.6
		c-0.5,0-0.916,0.184-1.25,0.55c-0.366,0.4-0.55,0.867-0.55,1.4v2.95c0,0.533,0.184,0.983,0.55,1.35c0.334,0.4,0.75,0.6,1.25,0.6
		h0.301h10.55L142.4,48.4c-0.334,0.366-0.5,0.833-0.5,1.399c0,0.533,0.166,0.983,0.5,1.351l1.899,2.05c0.367,0.399,0.8,0.6,1.3,0.6
		c0.068,0,0.135,0,0.2,0s0.132,0,0.2,0c0.5,0,0.917-0.2,1.25-0.6L156.6,43.1c0.367-0.433,0.534-0.916,0.5-1.449
		c0.067-0.5-0.1-0.967-0.5-1.4l-9.35-10.15c-0.333-0.367-0.75-0.55-1.25-0.55c-0.068,0-0.135,0-0.2,0s-0.132,0-0.2,0
		c-0.5,0-0.933,0.184-1.3,0.55l-1.899,2.1c-0.334,0.367-0.5,0.833-0.5,1.4c0,0.533,0.166,0.983,0.5,1.35l3.05,3.3H134.9z M98.7,17.4
		c0-1.033-0.667-1.783-2-2.25c-0.767-0.267-1.15-0.55-1.15-0.85c0-0.4,0.283-0.6,0.851-0.6c0.533,0,1.066,0.15,1.6,0.45l0.4-1.6
		c-0.601-0.267-1.284-0.4-2.051-0.4c-0.899,0-1.633,0.233-2.199,0.7c-0.534,0.433-0.801,1-0.801,1.7c0,1,0.7,1.733,2.101,2.2
		c0.7,0.233,1.05,0.517,1.05,0.85c0,0.4-0.316,0.6-0.95,0.6c-0.666,0-1.333-0.184-2-0.55L93.15,19.3c0.6,0.333,1.399,0.5,2.399,0.5
		c1.033,0,1.816-0.216,2.351-0.65C98.434,18.717,98.7,18.133,98.7,17.4z M83,17.85V15.3c0-2.1-1.083-3.15-3.25-3.15
		c-1.1,0-2.05,0.217-2.85,0.65l0.45,1.45c0.566-0.367,1.233-0.55,2-0.55c0.9,0,1.35,0.316,1.35,0.95v0.1c-2.867,0-4.3,0.933-4.3,2.8
		c0,0.6,0.217,1.117,0.65,1.55c0.434,0.467,1,0.7,1.7,0.7c0.967,0,1.667-0.3,2.1-0.9h0.05l0.15,0.75h2.05
		C83.033,19.383,83,18.783,83,17.85z M86.7,12.3h-1.95l0.05,7.35h2.25V15.4l0.101-0.55C87.35,14.283,87.733,14,88.3,14
		c0.767,0,1.15,0.517,1.15,1.55v4.1h2.3V15.3c0-1.033-0.25-1.833-0.75-2.4c-0.434-0.5-1.05-0.75-1.85-0.75
		c-1.034,0-1.801,0.383-2.301,1.15H86.8L86.7,12.3z M81.1,48.85c0.397,0.538,0.847,1.055,1.35,1.551c2.333,2.333,5.149,3.5,8.45,3.5
		c3.333,0,6.166-1.167,8.5-3.5c2.333-2.334,3.5-5.167,3.5-8.5c0-2.64-0.75-4.974-2.25-7c-0.448-0.681-0.981-1.331-1.601-1.95
		c-2.366-2.367-5.2-3.55-8.5-3.55c-3.333,0-6.166,1.184-8.5,3.55c-2.333,2.333-3.5,5.149-3.5,8.45
		C78.55,44.246,79.4,46.729,81.1,48.85z M116.05,57.85c-0.028-0.094-0.062-0.177-0.1-0.25h8.25c2.5,0,6.25,0.084,11.25,0.25
		c0.3,0,2.666,0.034,7.1,0.101c2.9,0.033,5.267-0.033,7.101-0.2c0.566-0.033,1.383-0.1,2.449-0.2c0.253,0.025,0.912,0.426,1.976,1.2
		c-0.282,0.046-0.607,0.063-0.976,0.05c-1.066-0.1-1.8-0.133-2.199-0.1c-0.634,0.066-1.517,0.233-2.65,0.5
		c-1.2,0.3-2.1,0.483-2.7,0.55c-0.934,0.134-2.166,0.167-3.7,0.1c-1.666-0.066-2.899-0.1-3.699-0.1c-0.567,0-2.267-0.167-5.101-0.5
		c-0.366-0.066-0.616-0.083-0.75-0.05l-0.649,0.25c-0.567,0.1-1.233,0.116-2,0.05c-0.367-0.033-0.717-0.134-1.051-0.3
		c-0.533-0.267-0.833-0.417-0.899-0.45c-1.101-0.434-2.767-0.5-5-0.2c-1.033,0.134-2.617,0.2-4.75,0.2
		c-0.367,0.033-0.65,0.05-0.851,0.05c-0.333-0.033-0.583-0.116-0.75-0.25C116.25,58.45,116.15,58.217,116.05,57.85z M113.1,57.95
		c-0.666,0.2-1.8,0.3-3.399,0.3H93.4c-0.767,0.033-1.351,0.066-1.75,0.1c-0.733,0.034-1.301,0-1.7-0.1
		c-0.134-0.033-0.351-0.15-0.65-0.35c-0.084-0.057-0.159-0.106-0.225-0.15c1.34,0.066,2.365,0.1,3.075,0.1
		c2.133-0.033,5.316-0.116,9.55-0.25h11.675c-0.022,0.03-0.047,0.063-0.075,0.101C113.233,57.833,113.167,57.917,113.1,57.95z
		 M115.1,57.6c-0.075,0.067-0.142,0.101-0.199,0.101c-0.119-0.037-0.228-0.071-0.325-0.101H115.1z M45.25,15.9
		c0-1.133-0.333-2.033-1-2.7c-0.7-0.7-1.6-1.05-2.7-1.05c-1.2,0-2.15,0.35-2.85,1.05c-0.733,0.7-1.1,1.65-1.1,2.85
		c0,1.133,0.367,2.05,1.1,2.75c0.7,0.667,1.6,1,2.7,1c1.067,0,1.95-0.316,2.65-0.95C44.85,18.15,45.25,17.167,45.25,15.9z
		 M42.9,15.95c0,1.466-0.483,2.2-1.45,2.2c-0.467,0-0.833-0.217-1.1-0.65c-0.267-0.4-0.4-0.917-0.4-1.55c0-0.6,0.117-1.1,0.35-1.5
		c0.267-0.467,0.65-0.7,1.15-0.7C42.417,13.75,42.9,14.483,42.9,15.95z M48.65,14.3c0-0.4,0.283-0.6,0.85-0.6
		c0.533,0,1.067,0.15,1.6,0.45l0.4-1.6c-0.6-0.267-1.283-0.4-2.05-0.4c-0.9,0-1.633,0.233-2.2,0.7c-0.533,0.433-0.8,1-0.8,1.7
		c0,1,0.7,1.733,2.1,2.2c0.7,0.233,1.05,0.517,1.05,0.85c0,0.4-0.317,0.6-0.95,0.6c-0.667,0-1.333-0.184-2-0.55l-0.4,1.65
		c0.6,0.333,1.4,0.5,2.4,0.5c1.033,0,1.817-0.216,2.35-0.65c0.533-0.433,0.8-1.017,0.8-1.75c0-1.033-0.667-1.783-2-2.25
		C49.033,14.883,48.65,14.6,48.65,14.3z M72.1,13.65c0.867,0,1.3,0.5,1.3,1.5h-2.7c0.033-0.367,0.15-0.683,0.35-0.95
		C71.317,13.833,71.667,13.65,72.1,13.65z M80.75,17.35c-0.2,0.566-0.6,0.85-1.2,0.85c-0.6,0-0.9-0.284-0.9-0.85
		c0-0.767,0.7-1.15,2.1-1.15V17.35z M68.55,16.05c0,1.167,0.333,2.083,1,2.75c0.7,0.667,1.667,1,2.9,1c1.066,0,1.95-0.167,2.65-0.5
		l-0.3-1.5c-0.6,0.2-1.267,0.3-2,0.3c-1.333,0-2.033-0.467-2.1-1.4h4.75l0.05-0.9c0-1-0.25-1.833-0.75-2.5
		c-0.567-0.767-1.4-1.15-2.5-1.15c-1.2,0-2.133,0.417-2.8,1.25C68.85,14.133,68.55,15.017,68.55,16.05z M64.7,11.6h0.05L65,19.65
		h2.25L66.7,9.55h-3l-2.05,6.95H61.6c-0.233-1.267-0.517-2.467-0.85-3.6l-1-3.35H56.7l-0.65,10.1h2.15l0.35-8.05h0.05
		c0.3,1.7,0.6,3.017,0.9,3.95l1.05,3.9h1.8l1.25-3.9C64.2,13.483,64.567,12.167,64.7,11.6z M53.85,48.85
		c0.397,0.538,0.847,1.055,1.35,1.551c2.333,2.333,5.15,3.5,8.45,3.5c3.333,0,6.167-1.167,8.5-3.5c2.333-2.334,3.5-5.167,3.5-8.5
		c0-2.64-0.75-4.974-2.25-7c-0.448-0.681-0.981-1.331-1.6-1.95c-2.367-2.367-5.2-3.55-8.5-3.55c-3.333,0-6.167,1.184-8.5,3.55
		c-2.333,2.333-3.5,5.149-3.5,8.45C51.3,44.246,52.15,46.729,53.85,48.85z M19.6,9.55h-3l-2.05,6.95H14.5
		c-0.233-1.267-0.517-2.467-0.85-3.6l-1-3.35H9.6l-0.65,10.1h2.15l0.35-8.05h0.05c0.3,1.7,0.6,3.017,0.9,3.95l1.05,3.9h1.8l1.25-3.9
		c0.3-0.9,0.683-2.216,1.15-3.95l0.25,8.05h2.25L19.6,9.55z M29.8,9v10.65h2.25V9H29.8z M25.75,16.2v0.75l-0.05,0.4
		c-0.2,0.566-0.583,0.85-1.15,0.85c-0.6,0-0.9-0.284-0.9-0.85C23.65,16.583,24.35,16.2,25.75,16.2z M27.95,17.85V15.3
		c0-2.1-1.067-3.15-3.2-3.15c-1.167,0-2.117,0.217-2.85,0.65l0.4,1.45c0.6-0.367,1.284-0.55,2.05-0.55c0.9,0,1.35,0.316,1.35,0.95
		v0.1c-2.867,0-4.3,0.933-4.3,2.8c0,0.6,0.2,1.117,0.6,1.55c0.467,0.467,1.05,0.7,1.75,0.7c0.9,0,1.6-0.3,2.1-0.9h0.05l0.15,0.75
		h2.05C28,19.25,27.95,18.65,27.95,17.85z M36.2,9h-2.3v10.65h2.3V9z"/>
	<path style="fill-rule:evenodd;clip-rule:evenodd;fill:#131410;" d="M159.375,62.125l-0.025,0.425
		c-0.126-0.075-0.276-0.176-0.449-0.3c-0.337-0.215-0.763-0.507-1.275-0.875c-0.139,0.017-0.28,0.025-0.425,0.025H4.5
		c-1.1,0-2.033-0.384-2.8-1.15c-0.8-0.8-1.2-1.75-1.2-2.85V40l0.4-0.75C0.867,39.917,0.9,40.833,1,42c0.1,1.366,0.15,2.3,0.15,2.8
		c0,1,0.1,2.05,0.3,3.15c0.133,0.566,0.15,1.366,0.05,2.399C1.4,51.45,1.383,52.233,1.45,52.7c0.3-0.033,0.517-0.2,0.65-0.5
		c0.066,0.366,0.117,1.033,0.15,2c0.033,0.866,0.117,1.533,0.25,2c0.933-0.233,1.5-0.95,1.7-2.15c0.433,0.334,0.733,0.8,0.9,1.4
		c0.033,0.066,0.033,0.25,0,0.55c0,0.267,0.033,0.434,0.1,0.5c0.233,0.3,0.7,0.384,1.4,0.25c0.2,0.033,0.566,0.2,1.1,0.5
		c0.933,0.467,2.333,0.65,4.2,0.55c2.267-0.133,3.75-0.133,4.45,0c1.867,0.367,3.133,0.517,3.8,0.45c0.6-0.066,1.1-0.167,1.5-0.3
		c0.233-0.101,0.65-0.4,1.25-0.9c0.233-0.033,0.45,0.017,0.65,0.15c0.133,0.1,0.35,0.25,0.65,0.45c0.466,0.233,1.1,0.35,1.9,0.35
		h6.25c0.733,0,1.667-0.233,2.8-0.7c0.6-0.133,1.517-0.066,2.75,0.2c0.467,0,1.2-0.017,2.2-0.05c0.4,0.033,1.1,0.133,2.1,0.3
		l2.7-0.1l2,0.399c0.934,0.2,1.6,0.184,2-0.05c0.4-0.2,0.55-0.45,0.45-0.75c-0.167-0.467-0.233-0.783-0.2-0.95
		c0.934-0.133,1.934-0.149,3-0.05c-0.1,0.167-0.167,0.467-0.2,0.9c0.7,0.233,1.716,0.316,3.05,0.25
		c0.733-0.034,1.767-0.084,3.1-0.15c0.133,0,1.533-0.05,4.2-0.15c1.733-0.1,3.117-0.066,4.15,0.101c0.367,0.066,1.05,0.267,2.05,0.6
		c0.867,0.267,1.567,0.417,2.1,0.45c0.167,0,0.633-0.017,1.4-0.05c0.6,0,1.067,0.033,1.4,0.1c0.367,0.101,0.85,0.25,1.45,0.45
		c1,0.167,2.6,0.25,4.8,0.25c0.633,0.033,1.25-0.066,1.85-0.3c0.333-0.134,0.9-0.367,1.7-0.7c0.533-0.167,1.316-0.25,2.35-0.25
		c1.434,0.033,2.233,0.05,2.4,0.05c0.078,0,0.145-0.033,0.2-0.1c-0.847-0.036-1.797-0.086-2.851-0.15
		c-2.867-0.2-5.15-0.267-6.85-0.2c0.3-0.199,0.8-0.316,1.5-0.35c0.7-0.066,1.183-0.184,1.45-0.35c0.233-0.134,0.483-0.4,0.75-0.801
		c0.067-0.066,0.233-0.116,0.5-0.149c0.233-0.033,0.4-0.15,0.5-0.351c0.333,0.233,0.667,0.317,1,0.25l0.25,0.25
		c0.5,0.267,1.116,0.417,1.85,0.45c0.434,0.033,1.083,0.05,1.95,0.05c0.366,0,1.3,0.067,2.8,0.2c1.134,0.134,2.05,0.134,2.75,0
		c2.566-0.434,4.283-0.833,5.15-1.2c0.466-0.199,1.166-0.483,2.1-0.85c0.8-0.366,1.384-0.783,1.75-1.25l0.55-0.8
		c0.267-0.434,0.467-0.65,0.601-0.65c0.233-0.033,0.733,0.316,1.5,1.05c1.267,0.634,2.517,1.134,3.75,1.5
		c0.733,0.2,1.8,0.551,3.199,1.051c0.7,0.233,2.117,0.383,4.25,0.449c3,0.101,4.684,0.134,5.051,0.101
		c1.767-0.134,3.35-0.617,4.75-1.45l3.949-2.5c0.7-0.4,1.367-0.634,2-0.7c0.2,0,0.684-0.033,1.45-0.1
		c0.733-0.033,1.2,0.017,1.4,0.149c0.267,0.167,0.483,0.517,0.649,1.051c0.2,0.533,0.45,0.916,0.75,1.149
		c0.134,0.101,0.417,0.267,0.851,0.5c0.233,0.134,0.45,0.316,0.649,0.55c0.067,0.101,0.134,0.301,0.2,0.601
		c0.033,0.3,0.134,0.5,0.3,0.6c0.134,0.066,0.334,0.101,0.601,0.101c0.166-0.034,0.383-0.067,0.649-0.101
		c0.034,0,0.45,0.066,1.25,0.2c0.467,0.066,0.884,0.1,1.25,0.1c0.167,0,0.601,0.017,1.301,0.051c0.533,0.033,0.949,0.017,1.25-0.051
		c0.166-0.033,0.416-0.149,0.75-0.35c0.3-0.2,0.55-0.316,0.75-0.35c0.267-0.067,0.533-0.051,0.8,0.05c0.3,0.1,0.55,0.149,0.75,0.149
		c0.333,0,0.916-0.233,1.75-0.699c0.8-0.434,1.6-1.051,2.399-1.851c0.434-0.467,1.117-1.217,2.051-2.25
		c1.6-1.533,2.583-2.5,2.949-2.899c1.667-1.967,3.034-4.284,4.101-6.95V57.4c0,1.1-0.384,2.05-1.15,2.85
		c-0.218,0.209-0.442,0.392-0.675,0.55c0.002,0.231,0.011,0.481,0.025,0.75L159.375,62.125z M115.1,57.6h-0.524
		c0.098,0.029,0.206,0.063,0.325,0.101C114.958,57.7,115.024,57.667,115.1,57.6z M113.1,57.95c0.067-0.033,0.134-0.117,0.2-0.25
		c0.028-0.037,0.053-0.07,0.075-0.101H101.7c-4.233,0.134-7.417,0.217-9.55,0.25c-0.71,0-1.735-0.033-3.075-0.1
		c0.065,0.044,0.141,0.094,0.225,0.15c0.3,0.199,0.517,0.316,0.65,0.35c0.399,0.1,0.967,0.134,1.7,0.1
		c0.399-0.033,0.983-0.066,1.75-0.1h16.3C111.3,58.25,112.434,58.15,113.1,57.95z M116.05,57.85c0.101,0.367,0.2,0.601,0.3,0.7
		c0.167,0.134,0.417,0.217,0.75,0.25c0.2,0,0.483-0.017,0.851-0.05c2.133,0,3.717-0.066,4.75-0.2c2.233-0.3,3.899-0.233,5,0.2
		c0.066,0.033,0.366,0.184,0.899,0.45c0.334,0.166,0.684,0.267,1.051,0.3c0.767,0.066,1.433,0.05,2-0.05l0.649-0.25
		c0.134-0.033,0.384-0.017,0.75,0.05c2.834,0.333,4.533,0.5,5.101,0.5c0.8,0,2.033,0.033,3.699,0.1c1.534,0.067,2.767,0.034,3.7-0.1
		c0.601-0.066,1.5-0.25,2.7-0.55c1.134-0.267,2.017-0.434,2.65-0.5c0.399-0.033,1.133,0,2.199,0.1
		c0.368,0.013,0.693-0.004,0.976-0.05c-1.063-0.774-1.723-1.175-1.976-1.2c-1.066,0.101-1.883,0.167-2.449,0.2
		c-1.834,0.167-4.2,0.233-7.101,0.2c-4.434-0.066-6.8-0.101-7.1-0.101c-5-0.166-8.75-0.25-11.25-0.25h-8.25
		C115.988,57.673,116.021,57.756,116.05,57.85z"/>
	<path style="fill-rule:evenodd;clip-rule:evenodd;fill:#58763E;" d="M127.525,34.275c1.816,2.168,2.725,4.71,2.725,7.625
		c0,3.333-1.167,6.166-3.5,8.5c-2.366,2.333-5.2,3.5-8.5,3.5c-3.333,0-6.167-1.167-8.5-3.5c-0.554-0.554-1.045-1.137-1.475-1.75
		c-1.351-1.958-2.025-4.208-2.025-6.75c0-3.301,1.167-6.117,3.5-8.45c2.333-2.367,5.167-3.55,8.5-3.55c3.3,0,6.134,1.184,8.5,3.55
		C127.022,33.722,127.28,33.997,127.525,34.275z M126.05,37.85V34.95H111.2v2.899h5.2v12.5h4.399v-12.5H126.05z"/>
	<path style="fill-rule:evenodd;clip-rule:evenodd;fill:#F1EFCD;" d="M145.8,53.8c-0.416-0.055-0.783-0.254-1.1-0.6l-1.9-2.05
		c-0.333-0.367-0.5-0.817-0.5-1.351c0-0.566,0.167-1.033,0.5-1.399l3.05-3.301h-0.399H134.9c-0.477-0.012-0.877-0.211-1.2-0.6
		c-0.367-0.366-0.55-0.816-0.55-1.35V40.2c0-0.533,0.183-1,0.55-1.4c0.323-0.355,0.724-0.539,1.2-0.55h10.55h0.399l-3.05-3.3
		c-0.333-0.367-0.5-0.817-0.5-1.35c0-0.567,0.167-1.033,0.5-1.4l1.9-2.1c0.316-0.317,0.684-0.5,1.1-0.55c0.065,0,0.132,0,0.2,0
		c0.5,0,0.917,0.184,1.25,0.55l9.35,10.15c0.4,0.434,0.567,0.9,0.5,1.4c0.034,0.533-0.133,1.017-0.5,1.449L147.25,53.2
		c-0.333,0.399-0.75,0.6-1.25,0.6C145.932,53.8,145.865,53.8,145.8,53.8z M126.05,37.85h-5.25v12.5H116.4v-12.5h-5.2V34.95h14.85
		V37.85z M96,34c0.267,0.267,0.4,0.567,0.4,0.9v9.4c0,0.367-0.134,0.684-0.4,0.95c-0.267,0.233-0.583,0.35-0.95,0.35h-8.3
		c-0.366,0-0.684-0.116-0.95-0.35c-0.267-0.267-0.399-0.583-0.399-0.95v-9.4c0-0.333,0.133-0.633,0.399-0.9
		c0.267-0.233,0.584-0.35,0.95-0.35h8.3C95.417,33.65,95.733,33.767,96,34z M95.3,35.55c0-0.466-0.25-0.7-0.75-0.7H91.3v4.05h3.25
		c0.5,0,0.75-0.25,0.75-0.75V35.55z M85.2,49.45c-0.028,0-0.054,0-0.075,0L84.4,50.1c-0.301,0.167-0.55,0.15-0.75-0.05
		c-0.2-0.2-0.183-0.434,0.05-0.7L87.1,46.3c0.2-0.2,0.434-0.2,0.7,0c0.117,0.117,0.175,0.233,0.175,0.351h5.9
		C93.858,46.533,93.9,46.417,94,46.3c0.3-0.2,0.55-0.2,0.75,0l3.4,3.05c0.233,0.233,0.233,0.467,0,0.7s-0.467,0.25-0.7,0.05
		l-0.726-0.649c-0.038,0-0.079,0-0.125,0H85.2z M88.4,40.75c-0.2-0.2-0.434-0.3-0.7-0.3c-0.233,0-0.45,0.1-0.65,0.3
		s-0.3,0.417-0.3,0.65s0.1,0.449,0.3,0.649c0.167,0.167,0.384,0.25,0.65,0.25s0.5-0.083,0.7-0.25c0.199-0.166,0.3-0.383,0.3-0.649
		S88.6,40.917,88.4,40.75z M87.25,34.85c-0.5,0-0.75,0.233-0.75,0.7v2.601c0,0.199,0.083,0.383,0.25,0.55
		c0.134,0.133,0.3,0.2,0.5,0.2h3.25v-4.05H87.25z M86.325,48.35h9.2l-0.601-0.55h-8L86.325,48.35z M93.15,41.4
		c0,0.267,0.083,0.483,0.25,0.649c0.199,0.167,0.433,0.25,0.699,0.25c0.634,0,0.95-0.3,0.95-0.899c0-0.267-0.083-0.483-0.25-0.65
		c-0.2-0.2-0.434-0.3-0.7-0.3s-0.5,0.1-0.699,0.3C93.233,40.917,93.15,41.134,93.15,41.4z M59.5,41.4c0,0.233,0.1,0.449,0.3,0.649
		c0.167,0.167,0.383,0.25,0.65,0.25c0.267,0,0.5-0.083,0.7-0.25c0.2-0.166,0.3-0.383,0.3-0.649s-0.1-0.483-0.3-0.65
		c-0.2-0.2-0.433-0.3-0.7-0.3c-0.233,0-0.45,0.1-0.65,0.3C59.6,40.95,59.5,41.167,59.5,41.4z M60,34.85c-0.5,0-0.75,0.233-0.75,0.7
		v2.601c0,0.199,0.083,0.383,0.25,0.55c0.133,0.133,0.3,0.2,0.5,0.2h3.25v-4.05H60z M58.55,34c0.267-0.233,0.583-0.35,0.95-0.35h8.3
		c0.367,0,0.684,0.117,0.95,0.35c0.267,0.267,0.4,0.567,0.4,0.9v9.4c0,0.367-0.133,0.684-0.4,0.95
		c-0.267,0.233-0.583,0.35-0.95,0.35h-8.3c-0.367,0-0.683-0.116-0.95-0.35c-0.267-0.267-0.4-0.583-0.4-0.95v-9.4
		C58.15,34.567,58.283,34.267,58.55,34z M60.55,46.3c0.117,0.117,0.175,0.233,0.175,0.351h5.9c-0.017-0.117,0.025-0.233,0.125-0.351
		c0.3-0.2,0.55-0.2,0.75,0l3.4,3.05c0.233,0.233,0.233,0.467,0,0.7s-0.467,0.25-0.7,0.05l-0.725-0.649c-0.038,0-0.08,0-0.125,0
		h-11.4c-0.028,0-0.053,0-0.075,0L57.15,50.1c-0.3,0.167-0.55,0.15-0.75-0.05c-0.2-0.2-0.183-0.434,0.05-0.7l3.4-3.05
		C60.05,46.1,60.283,46.1,60.55,46.3z M59.075,48.35h9.2l-0.6-0.55h-8L59.075,48.35z M66.85,42.3c0.633,0,0.95-0.3,0.95-0.899
		c0-0.267-0.083-0.483-0.25-0.65c-0.2-0.2-0.433-0.3-0.7-0.3s-0.5,0.1-0.7,0.3c-0.167,0.167-0.25,0.384-0.25,0.65
		s0.083,0.483,0.25,0.649C66.35,42.217,66.583,42.3,66.85,42.3z M67.3,34.85h-3.25v4.05h3.25c0.5,0,0.75-0.25,0.75-0.75V35.55
		C68.05,35.083,67.8,34.85,67.3,34.85z"/>
	<path style="fill-rule:evenodd;clip-rule:evenodd;fill:#69382B;" d="M95.3,35.55v2.601c0,0.5-0.25,0.75-0.75,0.75H91.3v-4.05h3.25
		C95.05,34.85,95.3,35.083,95.3,35.55z M96,34c-0.267-0.233-0.583-0.35-0.95-0.35h-8.3c-0.366,0-0.684,0.117-0.95,0.35
		c-0.267,0.267-0.399,0.567-0.399,0.9v9.4c0,0.367,0.133,0.684,0.399,0.95c0.267,0.233,0.584,0.35,0.95,0.35h8.3
		c0.367,0,0.684-0.116,0.95-0.35c0.267-0.267,0.4-0.583,0.4-0.95v-9.4C96.4,34.567,96.267,34.267,96,34z M100.65,34.9
		c1.5,2.027,2.25,4.361,2.25,7c0,3.333-1.167,6.166-3.5,8.5c-2.334,2.333-5.167,3.5-8.5,3.5c-3.301,0-6.117-1.167-8.45-3.5
		c-0.503-0.496-0.953-1.013-1.35-1.551c-1.467-2.008-2.2-4.325-2.2-6.949c0-3.301,1.184-6.117,3.55-8.45
		c2.333-2.367,5.149-3.55,8.45-3.55c3.333,0,6.166,1.184,8.5,3.55C99.867,33.917,100.283,34.4,100.65,34.9z M87.25,34.85h3.25v4.05
		h-3.25c-0.2,0-0.366-0.067-0.5-0.2c-0.167-0.167-0.25-0.351-0.25-0.55V35.55C86.5,35.083,86.75,34.85,87.25,34.85z M88.4,40.75
		c0.199,0.167,0.3,0.384,0.3,0.65s-0.101,0.483-0.3,0.649c-0.2,0.167-0.434,0.25-0.7,0.25s-0.483-0.083-0.65-0.25
		c-0.2-0.2-0.3-0.416-0.3-0.649s0.1-0.45,0.3-0.65s0.417-0.3,0.65-0.3C87.967,40.45,88.2,40.55,88.4,40.75z M85.2,49.45H96.6
		c0.046,0,0.087,0,0.125,0L97.45,50.1c0.233,0.2,0.467,0.184,0.7-0.05s0.233-0.467,0-0.7l-3.4-3.05c-0.2-0.2-0.45-0.2-0.75,0
		c-0.1,0.117-0.142,0.233-0.125,0.351h-5.9c0-0.117-0.058-0.233-0.175-0.351c-0.267-0.2-0.5-0.2-0.7,0L83.7,49.35
		c-0.233,0.267-0.25,0.5-0.05,0.7c0.2,0.2,0.45,0.217,0.75,0.05l0.725-0.649C85.146,49.45,85.172,49.45,85.2,49.45z M86.325,48.35
		l0.6-0.55h8l0.601,0.55H86.325z M93.15,41.4c0-0.267,0.083-0.483,0.25-0.65c0.199-0.2,0.433-0.3,0.699-0.3s0.5,0.1,0.7,0.3
		c0.167,0.167,0.25,0.384,0.25,0.65c0,0.6-0.316,0.899-0.95,0.899c-0.267,0-0.5-0.083-0.699-0.25
		C93.233,41.884,93.15,41.667,93.15,41.4z"/>
	<path style="fill-rule:evenodd;clip-rule:evenodd;fill:#577FAA;" d="M58.55,34c-0.267,0.267-0.4,0.567-0.4,0.9v9.4
		c0,0.367,0.133,0.684,0.4,0.95c0.267,0.233,0.583,0.35,0.95,0.35h8.3c0.367,0,0.684-0.116,0.95-0.35
		c0.267-0.267,0.4-0.583,0.4-0.95v-9.4c0-0.333-0.133-0.633-0.4-0.9c-0.267-0.233-0.583-0.35-0.95-0.35h-8.3
		C59.133,33.65,58.817,33.767,58.55,34z M60,34.85h3.25v4.05H60c-0.2,0-0.367-0.067-0.5-0.2c-0.167-0.167-0.25-0.351-0.25-0.55
		V35.55C59.25,35.083,59.5,34.85,60,34.85z M59.5,41.4c0-0.233,0.1-0.45,0.3-0.65c0.2-0.2,0.417-0.3,0.65-0.3
		c0.267,0,0.5,0.1,0.7,0.3c0.2,0.167,0.3,0.384,0.3,0.65s-0.1,0.483-0.3,0.649c-0.2,0.167-0.433,0.25-0.7,0.25
		c-0.267,0-0.483-0.083-0.65-0.25C59.6,41.85,59.5,41.634,59.5,41.4z M59.075,48.35l0.6-0.55h8l0.6,0.55H59.075z M60.55,46.3
		c-0.267-0.2-0.5-0.2-0.7,0l-3.4,3.05c-0.233,0.267-0.25,0.5-0.05,0.7c0.2,0.2,0.45,0.217,0.75,0.05l0.725-0.649
		c0.022,0,0.047,0,0.075,0h11.4c0.045,0,0.087,0,0.125,0L70.2,50.1c0.233,0.2,0.466,0.184,0.7-0.05s0.233-0.467,0-0.7l-3.4-3.05
		c-0.2-0.2-0.45-0.2-0.75,0c-0.1,0.117-0.142,0.233-0.125,0.351h-5.9C60.725,46.533,60.667,46.417,60.55,46.3z M73.4,34.9
		c1.5,2.027,2.25,4.361,2.25,7c0,3.333-1.167,6.166-3.5,8.5c-2.333,2.333-5.167,3.5-8.5,3.5c-3.3,0-6.117-1.167-8.45-3.5
		c-0.503-0.496-0.953-1.013-1.35-1.551c-1.467-2.008-2.2-4.325-2.2-6.949c0-3.301,1.184-6.117,3.55-8.45
		c2.333-2.367,5.15-3.55,8.45-3.55c3.333,0,6.167,1.184,8.5,3.55C72.617,33.917,73.034,34.4,73.4,34.9z M67.3,34.85
		c0.5,0,0.75,0.233,0.75,0.7v2.601c0,0.5-0.25,0.75-0.75,0.75h-3.25v-4.05H67.3z M66.85,42.3c-0.267,0-0.5-0.083-0.7-0.25
		c-0.167-0.166-0.25-0.383-0.25-0.649s0.083-0.483,0.25-0.65c0.2-0.2,0.434-0.3,0.7-0.3s0.5,0.1,0.7,0.3
		c0.167,0.167,0.25,0.384,0.25,0.65C67.8,42,67.483,42.3,66.85,42.3z"/>
	<path style="fill-rule:evenodd;clip-rule:evenodd;fill:#FFFFFF;" d="M86.7,12.3l0.1,1h0.05c0.5-0.767,1.267-1.15,2.301-1.15
		c0.8,0,1.416,0.25,1.85,0.75c0.5,0.567,0.75,1.367,0.75,2.4v4.35h-2.3v-4.1c0-1.033-0.384-1.55-1.15-1.55
		c-0.566,0-0.95,0.283-1.149,0.85L87.05,15.4v4.25H84.8l-0.05-7.35H86.7z M83,17.85c0,0.933,0.033,1.533,0.1,1.8h-2.05L80.9,18.9
		h-0.05c-0.434,0.6-1.133,0.9-2.1,0.9c-0.7,0-1.267-0.233-1.7-0.7c-0.433-0.434-0.65-0.95-0.65-1.55c0-1.867,1.434-2.8,4.3-2.8v-0.1
		c0-0.633-0.45-0.95-1.35-0.95c-0.767,0-1.434,0.183-2,0.55L76.9,12.8c0.8-0.433,1.75-0.65,2.85-0.65c2.167,0,3.25,1.05,3.25,3.15
		V17.85z M98.7,17.4c0,0.733-0.267,1.317-0.8,1.75c-0.534,0.434-1.317,0.65-2.351,0.65c-1,0-1.8-0.167-2.399-0.5l0.399-1.65
		c0.667,0.367,1.334,0.55,2,0.55c0.634,0,0.95-0.2,0.95-0.6c0-0.333-0.35-0.617-1.05-0.85c-1.4-0.467-2.101-1.2-2.101-2.2
		c0-0.7,0.267-1.267,0.801-1.7c0.566-0.467,1.3-0.7,2.199-0.7c0.767,0,1.45,0.133,2.051,0.4l-0.4,1.6
		c-0.533-0.3-1.066-0.45-1.6-0.45c-0.567,0-0.851,0.2-0.851,0.6c0,0.3,0.384,0.583,1.15,0.85C98.033,15.617,98.7,16.367,98.7,17.4z
		 M64.7,11.6c-0.133,0.566-0.5,1.883-1.1,3.95l-1.25,3.9h-1.8l-1.05-3.9c-0.3-0.933-0.6-2.25-0.9-3.95h-0.05l-0.35,8.05h-2.15
		l0.65-10.1h3.05l1,3.35c0.333,1.133,0.617,2.333,0.85,3.6h0.05l2.05-6.95h3l0.55,10.1H65l-0.25-8.05H64.7z M68.55,16.05
		c0-1.033,0.3-1.917,0.9-2.65c0.667-0.833,1.6-1.25,2.8-1.25c1.1,0,1.933,0.383,2.5,1.15c0.5,0.667,0.75,1.5,0.75,2.5l-0.05,0.9
		H70.7c0.066,0.933,0.767,1.4,2.1,1.4c0.733,0,1.4-0.1,2-0.3l0.3,1.5c-0.7,0.333-1.583,0.5-2.65,0.5c-1.233,0-2.2-0.333-2.9-1
		C68.883,18.133,68.55,17.217,68.55,16.05z M80.75,17.35V16.2c-1.4,0-2.1,0.383-2.1,1.15c0,0.566,0.3,0.85,0.9,0.85
		C80.15,18.2,80.55,17.917,80.75,17.35z M72.1,13.65c-0.434,0-0.783,0.184-1.05,0.55c-0.2,0.267-0.316,0.583-0.35,0.95h2.7
		C73.4,14.15,72.967,13.65,72.1,13.65z M48.65,14.3c0,0.3,0.383,0.583,1.15,0.85c1.333,0.467,2,1.217,2,2.25
		c0,0.733-0.267,1.317-0.8,1.75c-0.533,0.434-1.317,0.65-2.35,0.65c-1,0-1.8-0.167-2.4-0.5l0.4-1.65c0.667,0.367,1.333,0.55,2,0.55
		c0.633,0,0.95-0.2,0.95-0.6c0-0.333-0.35-0.617-1.05-0.85c-1.4-0.467-2.1-1.2-2.1-2.2c0-0.7,0.267-1.267,0.8-1.7
		c0.567-0.467,1.3-0.7,2.2-0.7c0.767,0,1.45,0.133,2.05,0.4l-0.4,1.6c-0.533-0.3-1.067-0.45-1.6-0.45
		C48.933,13.7,48.65,13.9,48.65,14.3z M42.9,15.95c0-1.467-0.483-2.2-1.45-2.2c-0.5,0-0.883,0.233-1.15,0.7
		c-0.233,0.4-0.35,0.9-0.35,1.5c0,0.633,0.133,1.15,0.4,1.55c0.267,0.433,0.633,0.65,1.1,0.65C42.417,18.15,42.9,17.417,42.9,15.95z
		 M45.25,15.9c0,1.267-0.4,2.25-1.2,2.95c-0.7,0.633-1.583,0.95-2.65,0.95c-1.1,0-2-0.333-2.7-1c-0.733-0.7-1.1-1.617-1.1-2.75
		c0-1.2,0.367-2.15,1.1-2.85c0.7-0.7,1.65-1.05,2.85-1.05c1.1,0,2,0.35,2.7,1.05C44.917,13.867,45.25,14.767,45.25,15.9z M36.2,9
		v10.65h-2.3V9H36.2z M27.95,17.85c0,0.8,0.05,1.4,0.15,1.8h-2.05L25.9,18.9h-0.05c-0.5,0.6-1.2,0.9-2.1,0.9
		c-0.7,0-1.283-0.233-1.75-0.7c-0.4-0.434-0.6-0.95-0.6-1.55c0-1.867,1.434-2.8,4.3-2.8v-0.1c0-0.633-0.45-0.95-1.35-0.95
		c-0.767,0-1.45,0.183-2.05,0.55l-0.4-1.45c0.733-0.433,1.684-0.65,2.85-0.65c2.133,0,3.2,1.05,3.2,3.15V17.85z M25.75,16.2
		c-1.4,0-2.1,0.383-2.1,1.15c0,0.566,0.3,0.85,0.9,0.85c0.567,0,0.95-0.284,1.15-0.85l0.05-0.4V16.2z M29.8,9h2.25v10.65H29.8V9z
		 M19.6,9.55l0.55,10.1H17.9l-0.25-8.05c-0.467,1.733-0.85,3.05-1.15,3.95l-1.25,3.9h-1.8l-1.05-3.9c-0.3-0.933-0.6-2.25-0.9-3.95
		h-0.05l-0.35,8.05H8.95L9.6,9.55h3.05l1,3.35c0.333,1.133,0.617,2.333,0.85,3.6h0.05l2.05-6.95H19.6z"/>
</g>
</svg>
