<?xml version="1.0" encoding="iso-8859-1"?>
<!-- Generator: Adobe Illustrator 16.0.0, SVG Export Plug-In . SVG Version: 6.00 Build 0)  -->
<!DOCTYPE svg PUBLIC "-//W3C//DTD SVG 1.1//EN" "http://www.w3.org/Graphics/SVG/1.1/DTD/svg11.dtd">
<svg version="1.1" id="FlashAICB" xmlns="http://www.w3.org/2000/svg" xmlns:xlink="http://www.w3.org/1999/xlink" x="0px" y="0px"
	 width="168.934px" height="70.033px" viewBox="0 0 168.934 70.033" style="enable-background:new 0 0 168.934 70.033;"
	 xml:space="preserve">
<g>
	<g>
		<path style="fill-rule:evenodd;clip-rule:evenodd;fill:#11120E;" d="M157.3,0.85h0.7c1.1,0,2.05,0.4,2.85,1.2
			c0.467,0.467,0.801,1,1,1.6c0.092,0.182,0.142,0.416,0.15,0.7V7v51.3c0,1.101-0.384,2.05-1.15,2.851
			c-0.433,0.433-0.916,0.767-1.449,1V61.55c0-0.267,0-0.5,0-0.7c0.199-0.166,0.416-0.35,0.649-0.55c0.767-0.8,1.15-1.75,1.15-2.85
			V41V4.85c0-0.9-0.267-1.7-0.8-2.4c-0.101-0.133-0.217-0.267-0.351-0.4C159.283,1.283,158.366,0.883,157.3,0.85z M3.65,61.35
			L4.5,61.45h152.7c0.133,0,0.283,0,0.45,0c0.466,0.333,0.866,0.616,1.199,0.85c-0.267,0.033-0.55,0.05-0.85,0.05h-38.6h-3.45H4.25
			h-0.2c-0.6,0-1.15-0.116-1.65-0.35c-0.433-0.2-0.833-0.483-1.2-0.85C0.4,60.35,0,59.4,0,58.3V4.8c0.033-1.1,0.433-2.017,1.2-2.75
			c0.8-0.8,1.75-1.2,2.85-1.2H4.4c-1.066,0.033-1.967,0.433-2.7,1.2c-0.8,0.767-1.2,1.7-1.2,2.8v35.2v17.4c0,1.1,0.4,2.05,1.2,2.85
			c0.033,0.033,0.066,0.066,0.1,0.101l0.05,0.05c0.033,0,0.05,0.017,0.05,0.05c0.133,0.134,0.283,0.25,0.45,0.35
			c0.133,0.101,0.283,0.184,0.45,0.25C3.067,61.233,3.35,61.316,3.65,61.35z M127.5,34.3c-0.233-0.3-0.483-0.583-0.75-0.85
			c-2.366-2.333-5.2-3.5-8.5-3.5c-3.333,0-6.167,1.167-8.5,3.5c-2.333,2.333-3.5,5.166-3.5,8.5c0,2.533,0.684,4.8,2.05,6.8
			c-1.633-2.134-2.45-4.566-2.45-7.3c0-3.334,1.184-6.167,3.551-8.5c2.333-2.333,5.149-3.5,8.449-3.5c3.334,0,6.167,1.167,8.5,3.5
			C126.783,33.383,127.167,33.833,127.5,34.3z M134.875,38.25c-0.459,0.011-0.851,0.211-1.175,0.6
			c-0.367,0.367-0.55,0.817-0.55,1.351v2.95c0,0.533,0.183,1,0.55,1.399c0.324,0.357,0.716,0.54,1.175,0.55H134.6
			c-0.5,0-0.916-0.183-1.25-0.55c-0.366-0.399-0.55-0.866-0.55-1.399V40.2c0-0.533,0.184-0.983,0.55-1.351
			c0.334-0.399,0.75-0.6,1.25-0.6H134.875z M145.45,38.25l-3.05-3.3c-0.334-0.367-0.5-0.817-0.5-1.35c0-0.567,0.166-1.033,0.5-1.4
			l1.899-2.05c0.367-0.367,0.8-0.55,1.3-0.55c0.067,0,0.134,0,0.2,0c-0.399,0.033-0.767,0.217-1.1,0.55l-1.9,2.05
			c-0.333,0.367-0.5,0.833-0.5,1.4c0,0.533,0.167,0.983,0.5,1.35l3.05,3.3H145.45z M145.8,53.8c-0.066,0-0.133,0-0.2,0
			c-0.5,0-0.933-0.184-1.3-0.55l-1.899-2.1c-0.334-0.367-0.5-0.817-0.5-1.351c0-0.566,0.166-1.033,0.5-1.399l3.05-3.301h0.399
			L142.8,48.4c-0.333,0.366-0.5,0.833-0.5,1.399c0,0.533,0.167,0.983,0.5,1.351l1.9,2.1C145.033,53.583,145.4,53.767,145.8,53.8z
			 M81.15,48.95c-1.733-2.167-2.6-4.667-2.6-7.5c0-3.334,1.167-6.167,3.5-8.5c2.334-2.333,5.167-3.5,8.5-3.5
			c3.3,0,6.134,1.167,8.5,3.5c0.601,0.6,1.134,1.25,1.601,1.95c-0.367-0.5-0.784-0.983-1.25-1.45c-2.334-2.333-5.167-3.5-8.5-3.5
			c-3.301,0-6.117,1.167-8.45,3.5c-2.367,2.333-3.55,5.166-3.55,8.5C78.9,44.583,79.65,46.917,81.15,48.95z M73.4,34.9
			c-0.367-0.5-0.783-0.983-1.25-1.45c-2.333-2.333-5.167-3.5-8.5-3.5c-3.3,0-6.117,1.167-8.45,3.5c-2.367,2.333-3.55,5.166-3.55,8.5
			c0,2.633,0.75,4.967,2.25,7c-1.733-2.167-2.6-4.667-2.6-7.5c0-3.334,1.167-6.167,3.5-8.5c2.333-2.333,5.167-3.5,8.5-3.5
			c3.3,0,6.133,1.167,8.5,3.5C72.4,33.55,72.933,34.2,73.4,34.9z"/>
		<path style="fill-rule:evenodd;clip-rule:evenodd;fill:#515046;" d="M163.1,20.9c0-0.233,0-0.45,0-0.65
			c0-0.933-0.116-2.333-0.35-4.2c-0.267-1.867-0.4-3.267-0.4-4.2c0-0.867-0.083-2.133-0.25-3.8c-0.033-0.367-0.066-0.716-0.1-1.05
			V4.35V4.1c0-0.033,0-0.067,0-0.1c0.2,0.467,0.366,1.117,0.5,1.95c0.1,0.566,0.2,1.35,0.3,2.35c0.066,0.534,0.351,2.05,0.851,4.55
			c0.366,1.867,0.517,3.383,0.449,4.55c-0.033,0.733-0.316,1.767-0.85,3.1C163.184,20.633,163.134,20.767,163.1,20.9z M2.4,62
			c0.5,0.233,1.05,0.35,1.65,0.35h0.2c0.267,0.167,0.65,0.301,1.15,0.4c1.067,0.134,1.733,0.217,2,0.25c2.3,0.6,4.05,0.934,5.25,1
			c2.533,0.366,4.467,0.533,5.8,0.5c0.867-0.033,1.517-0.05,1.95-0.05c0.8-0.033,1.45-0.017,1.95,0.05
			c2.033,0.333,3.683,0.717,4.95,1.15c1,0.366,2.184,0.416,3.55,0.149c0.7-0.133,1.883-0.483,3.55-1.05c3.233-1,7.633-1.5,13.2-1.5
			C59.733,63.083,68.833,63,74.9,63c5.967-0.167,10.433-0.25,13.4-0.25c1.566,0,4.017,0.134,7.351,0.4
			c3.199,0.267,5.633,0.383,7.3,0.35c2.833,0,4.833-0.1,6-0.3c2.6-0.434,4.934-0.717,7-0.851h3.45
			c0.366,0.067,0.75,0.184,1.149,0.351c0.334,0.133,0.684,0.217,1.05,0.25c0.4,0,0.733,0.017,1,0.05c1.301,0.167,2.467,0.167,3.5,0
			c2.9-0.434,5.801-0.033,8.7,1.2c0.9,0.467,1.566,0.783,2,0.95c0.733,0.3,1.467,0.433,2.2,0.399c0.7-0.066,1.616-0.3,2.75-0.7
			c1.167-0.466,2.05-0.733,2.65-0.8c2.633-0.366,4.616-0.616,5.949-0.75c1.634-0.166,3.733-0.184,6.301-0.05
			c1.066,0.066,2.066,0.217,3,0.45c0.366,0.133,0.649,0.217,0.85,0.25c0.3,0.1,0.566,0.116,0.8,0.05
			c0.033-0.167,0.066-0.333,0.101-0.5c0.699-0.066,1.1-0.15,1.199-0.25c0.167-0.1,0.25-0.517,0.25-1.25c0-1.2,0.134-2.25,0.4-3.15
			c0.434-1.166,0.8-2.199,1.1-3.1c0.167-0.4,0.101-1.366-0.199-2.9c-0.267-1.466-0.284-2.416-0.051-2.85
			c0.2-0.333,0.184-0.9-0.05-1.7c-0.3-1.033-0.45-1.633-0.45-1.8s0.101-0.9,0.301-2.2c0.166-1,0.166-1.7,0-2.1
			c-0.267-0.767-0.367-1.8-0.301-3.101c0.067-1.633,0.067-2.683,0-3.149c-0.333-3.3-0.517-5.9-0.55-7.8c0-0.6,0.017-1.2,0.05-1.8
			c0.2,0.333,0.384,0.783,0.551,1.35c0.3,0.933,0.449,1.95,0.449,3.05c0,0.2-0.017,0.533-0.05,1c-0.033,0.433-0.017,0.767,0.05,1
			c0.134,0.333,0.4,0.633,0.801,0.9c0.466,0.3,0.75,0.517,0.85,0.65c0.233,0.3,0.417,0.733,0.55,1.3c0.134,0.8,0.316,2,0.55,3.6
			c0.067,0.366,0.2,1.649,0.4,3.85c0.134,1.634,0.417,2.867,0.85,3.7c0.067,0.134,0.217,0.333,0.45,0.6
			c0.134,0.134,0.233,0.4,0.3,0.801c0.167,1.233,0.084,2.35-0.25,3.35c-0.166,0.5-0.616,1.134-1.35,1.9
			c-0.733,0.8-1.184,1.433-1.35,1.899c-0.034,0.134-0.051,0.733-0.051,1.8c0,2.9,0.067,4.767,0.2,5.601c0.367,2.899,0.45,5,0.25,6.3
			c-1.033,0.066-1.95-0.033-2.75-0.3c-0.767-0.3-2.166-0.617-4.2-0.95c-0.3-0.066-0.966-0.217-2-0.45
			c-0.8-0.2-1.483-0.316-2.05-0.35c-0.467,0-1.05-0.101-1.75-0.3c-0.866-0.233-1.467-0.367-1.8-0.4c-0.9-0.066-1.934,0.033-3.1,0.3
			c-0.4,0.101-1.117,0.2-2.15,0.3c-0.934,0.101-1.667,0.25-2.2,0.45c-0.566,0.2-1.133,0.566-1.7,1.101
			c-0.767,0.699-1.283,1.133-1.55,1.3c-0.566,0.333-1.267,0.416-2.1,0.25c-0.267-0.066-0.967-0.3-2.101-0.7
			c-1.166-0.4-2.35-1.134-3.55-2.2c-0.633-0.566-1.033-0.899-1.2-1c-0.366-0.233-0.833-0.35-1.399-0.35c-0.9,0-2.15,0.116-3.75,0.35
			c-1.7,0.267-2.934,0.4-3.7,0.4c-0.733,0.033-1.467-0.233-2.2-0.8c-0.899-0.634-1.583-1.017-2.05-1.15
			c-0.366-0.1-0.95-0.116-1.75-0.05c-4.066,0.1-6.566,0.2-7.5,0.3l-3.3,0.45c-3.434,0.566-5.884,1.233-7.351,2
			c-0.333,0.2-0.8,0.467-1.399,0.8c-0.533,0.267-1.05,0.333-1.55,0.2c-0.5-0.134-1.25-0.367-2.25-0.7
			c-0.934-0.167-2.15-0.6-3.65-1.3c-1.733-0.767-2.95-1.25-3.65-1.45c-0.699-0.2-1.899-0.3-3.6-0.3c-1.833,0-4.567-0.15-8.2-0.45
			c-3.833-0.233-8.833-0.267-15-0.1c-8.133,0.199-13.133,0.3-15,0.3c-3.3-0.066-5.733,0.2-7.3,0.8c-0.6,0.233-1.667,1.033-3.2,2.4
			c-1.233,1.1-2.433,1.633-3.6,1.6c-1.567-0.066-3.917-0.9-7.05-2.5c-1.1-0.566-2.583-0.884-4.45-0.95
			c-1.034-0.066-2.567-0.116-4.6-0.149c-0.7-0.067-3.033-0.25-7-0.551C4.467,64.35,2.733,63.4,2.4,62z"/>
		<path style="fill-rule:evenodd;clip-rule:evenodd;fill:#8A8E71;" d="M157.3,0.85H4.4H4.05c-1.1,0-2.05,0.4-2.85,1.2
			C0.433,2.783,0.033,3.7,0,4.8V4.1C0,2.967,0.4,2,1.2,1.2C2,0.4,2.95,0,4.05,0H158c1.1,0,2.05,0.4,2.85,1.2
			c0.733,0.767,1.117,1.7,1.15,2.8c0,0.033,0,0.067,0,0.1v0.25c-0.009-0.285-0.059-0.518-0.15-0.7c-0.199-0.6-0.533-1.133-1-1.6
			c-0.8-0.8-1.75-1.2-2.85-1.2H157.3z"/>
		<path style="fill-rule:evenodd;clip-rule:evenodd;fill:#3A3932;" d="M119.4,62.35H158c0.3,0,0.583-0.017,0.85-0.05
			c0.2,0.134,0.367,0.233,0.5,0.3l0.051-0.449c0.533-0.233,1.017-0.567,1.449-1C161.616,60.35,162,59.4,162,58.3V7
			c0.033,0.333,0.066,0.683,0.1,1.05c0.167,1.667,0.25,2.934,0.25,3.8c0,0.933,0.134,2.333,0.4,4.2c0.233,1.867,0.35,3.267,0.35,4.2
			c0,0.2,0,0.417,0,0.65c0,1.8,0,3.617,0,5.45c-0.033,0.6-0.05,1.2-0.05,1.8c0.033,1.9,0.217,4.5,0.55,7.8
			c0.067,0.467,0.067,1.517,0,3.149c-0.066,1.301,0.034,2.334,0.301,3.101c0.166,0.399,0.166,1.1,0,2.1
			c-0.2,1.3-0.301,2.033-0.301,2.2s0.15,0.767,0.45,1.8c0.233,0.8,0.25,1.367,0.05,1.7c-0.233,0.434-0.216,1.384,0.051,2.85
			c0.3,1.534,0.366,2.5,0.199,2.9c-0.3,0.9-0.666,1.934-1.1,3.1c-0.267,0.9-0.4,1.95-0.4,3.15c0,0.733-0.083,1.15-0.25,1.25
			c-0.1,0.1-0.5,0.184-1.199,0.25c-0.034,0.167-0.067,0.333-0.101,0.5c-0.233,0.066-0.5,0.05-0.8-0.05
			c-0.2-0.033-0.483-0.117-0.85-0.25c-0.934-0.233-1.934-0.384-3-0.45c-2.567-0.134-4.667-0.116-6.301,0.05
			c-1.333,0.134-3.316,0.384-5.949,0.75c-0.601,0.066-1.483,0.334-2.65,0.8c-1.134,0.4-2.05,0.634-2.75,0.7
			c-0.733,0.033-1.467-0.1-2.2-0.399c-0.434-0.167-1.1-0.483-2-0.95c-2.899-1.233-5.8-1.634-8.7-1.2c-1.033,0.167-2.199,0.167-3.5,0
			c-0.267-0.033-0.6-0.05-1-0.05c-0.366-0.033-0.716-0.117-1.05-0.25C120.15,62.533,119.767,62.417,119.4,62.35z M4.25,62.35h111.7
			c-2.066,0.134-4.4,0.417-7,0.851c-1.167,0.2-3.167,0.3-6,0.3c-1.667,0.033-4.101-0.083-7.3-0.35c-3.334-0.267-5.784-0.4-7.351-0.4
			c-2.967,0-7.433,0.083-13.4,0.25c-6.066,0-15.167,0.083-27.3,0.25c-5.567,0-9.967,0.5-13.2,1.5c-1.667,0.566-2.85,0.917-3.55,1.05
			c-1.367,0.267-2.55,0.217-3.55-0.149c-1.267-0.434-2.917-0.817-4.95-1.15c-0.5-0.066-1.15-0.083-1.95-0.05
			c-0.433,0-1.083,0.017-1.95,0.05c-1.333,0.033-3.267-0.134-5.8-0.5c-1.2-0.066-2.95-0.4-5.25-1c-0.267-0.033-0.933-0.116-2-0.25
			C4.9,62.65,4.517,62.517,4.25,62.35z"/>
		
			<radialGradient id="SVGID_1_" cx="80.8501" cy="-1.9502" r="81.2" gradientTransform="matrix(1 0 0 -1 0 -3.9004)" gradientUnits="userSpaceOnUse">
			<stop  offset="0" style="stop-color:#3E4234"/>
			<stop  offset="1" style="stop-color:#1B1C16"/>
		</radialGradient>
		<path style="fill-rule:evenodd;clip-rule:evenodd;fill:url(#SVGID_1_);" d="M4.4,0.85h152.9c1.066,0.033,1.983,0.433,2.75,1.2
			c0.134,0.133,0.25,0.267,0.351,0.4c0.533,0.7,0.8,1.5,0.8,2.4V41c-1.066,2.667-2.434,4.967-4.101,6.9
			c-0.866,1.033-1.85,2.017-2.949,2.949c-0.5,0.5-1.184,1.233-2.051,2.2c-0.8,0.834-1.6,1.45-2.399,1.851
			c-0.834,0.466-1.417,0.699-1.75,0.699c-0.2,0-0.45-0.05-0.75-0.149c-0.267-0.101-0.533-0.117-0.8-0.05
			c-0.2,0.033-0.45,0.149-0.75,0.35c-0.334,0.2-0.584,0.316-0.75,0.35c-0.301,0.067-0.717,0.101-1.25,0.101
			c-0.301-0.033-0.733-0.066-1.301-0.101c-0.233,0-1.066-0.083-2.5-0.25c-0.1,0-0.316,0.017-0.649,0.051
			c-0.3,0.033-0.5,0.017-0.601-0.051c-0.166-0.1-0.267-0.3-0.3-0.6c-0.066-0.3-0.133-0.5-0.2-0.6
			c-0.199-0.233-0.416-0.434-0.649-0.601c-0.5-0.3-0.783-0.467-0.851-0.5c-0.3-0.233-0.55-0.616-0.75-1.149
			c-0.166-0.534-0.383-0.884-0.649-1.051c-0.267-0.133-1.217-0.133-2.851,0c-0.533,0.034-1.199,0.25-2,0.65
			c-0.899,0.533-2.216,1.384-3.949,2.55c-1.367,0.834-2.95,1.3-4.75,1.4c-0.334,0.033-2.017,0-5.051-0.101
			c-0.466,0-1.183-0.017-2.149-0.05c-0.8-0.033-1.5-0.149-2.101-0.35c-1.666-0.601-2.733-0.967-3.199-1.101
			c-1.434-0.433-2.684-0.933-3.75-1.5c-0.101-0.033-0.351-0.233-0.75-0.6c-0.367-0.3-0.617-0.45-0.75-0.45
			c-0.2,0.033-0.584,0.533-1.15,1.5c-0.366,0.434-0.95,0.834-1.75,1.2c-0.467,0.233-1.167,0.517-2.1,0.85
			c-0.867,0.367-2.584,0.767-5.15,1.2C93.017,56.684,92.1,56.7,91,56.6c-1.733-0.166-2.667-0.25-2.8-0.25
			c-0.4,0-1.05-0.017-1.95-0.05c-0.733-0.033-1.35-0.184-1.85-0.45l-0.25-0.25c-0.367,0.067-0.7,0-1-0.199
			c-0.1,0.166-0.267,0.267-0.5,0.3c-0.233,0.066-0.4,0.133-0.5,0.2c-0.1,0.066-0.217,0.199-0.35,0.399
			c-0.133,0.167-0.267,0.283-0.4,0.351c-0.3,0.199-0.783,0.316-1.45,0.35c-0.7,0.066-1.2,0.184-1.5,0.35
			c1.667-0.066,3.95,0,6.85,0.2c1.066,0.066,2.033,0.134,2.9,0.2c-0.066,0.066-0.15,0.1-0.25,0.1c-0.2,0-1-0.017-2.4-0.05
			c-1.033-0.033-1.816,0.033-2.35,0.2c-0.467,0.167-1.034,0.417-1.7,0.75c-0.6,0.233-1.217,0.316-1.85,0.25c-0.2,0-1-0.017-2.4-0.05
			c-1-0.033-1.8-0.101-2.4-0.2c-0.367-0.033-0.85-0.184-1.45-0.45c-0.6-0.133-1.533-0.133-2.8,0c-0.533-0.033-1.233-0.2-2.1-0.5
			c-0.967-0.3-1.65-0.483-2.05-0.55c-1.034-0.167-2.417-0.217-4.15-0.15c-0.966,0.034-2.367,0.084-4.2,0.15
			c-0.6,0-1.633,0.066-3.1,0.2c-1.333,0.033-2.35-0.066-3.05-0.3c0.033-0.434,0.1-0.717,0.2-0.851c-1-0.166-2-0.166-3,0
			c-0.033,0.167,0.033,0.483,0.2,0.95c0.1,0.333-0.05,0.6-0.45,0.8c-0.4,0.233-1.066,0.25-2,0.05l-2-0.399
			c-0.6-0.033-1.5-0.017-2.7,0.05c-0.534,0-1.233-0.1-2.1-0.3c-0.467-0.033-1.2-0.017-2.2,0.05c-0.2,0-0.65-0.05-1.35-0.15
			c-0.6-0.1-1.066-0.116-1.4-0.05c-0.233,0.033-0.7,0.184-1.4,0.45c-0.5,0.2-0.967,0.283-1.4,0.25H26.1c-0.8,0-1.434-0.116-1.9-0.35
			c-0.167-0.067-0.383-0.217-0.65-0.45c-0.2-0.134-0.417-0.184-0.65-0.15c-0.066,0.033-0.267,0.184-0.6,0.45
			c-0.3,0.267-0.517,0.417-0.65,0.45c-0.367,0.166-0.867,0.283-1.5,0.35c-0.633,0.033-1.9-0.133-3.8-0.5
			c-0.667-0.1-2.15-0.083-4.45,0.05c-1.867,0.101-3.267-0.1-4.2-0.6c-0.067-0.033-0.233-0.134-0.5-0.3
			c-0.167-0.101-0.367-0.167-0.6-0.2c-0.067,0-0.317,0.017-0.75,0.05c-0.3,0-0.517-0.083-0.65-0.25
			c-0.133-0.166-0.167-0.533-0.1-1.1c-0.167-0.601-0.467-1.066-0.9-1.4c-0.2,1.2-0.767,1.917-1.7,2.15
			c-0.133-0.467-0.217-1.117-0.25-1.95c-0.033-1-0.083-1.684-0.15-2.05c-0.133,0.3-0.35,0.483-0.65,0.55
			c-0.067-0.5-0.05-1.3,0.05-2.4c0.1-1.033,0.083-1.833-0.05-2.399c-0.2-1.033-0.3-2.066-0.3-3.101c0-0.5-0.05-1.433-0.15-2.8
			c-0.1-1.2-0.133-2.133-0.1-2.8l-0.4,0.8V4.85c0-1.1,0.4-2.033,1.2-2.8C2.433,1.283,3.333,0.883,4.4,0.85z M3.65,61.35
			c-0.3-0.033-0.583-0.116-0.85-0.25c-0.167-0.066-0.316-0.149-0.45-0.25C2.75,61.083,3.183,61.25,3.65,61.35z M108.3,48.75
			c0.434,0.566,0.917,1.134,1.45,1.7c2.333,2.333,5.167,3.5,8.5,3.5c3.3,0,6.134-1.167,8.5-3.5c2.333-2.367,3.5-5.2,3.5-8.5
			c0-2.934-0.917-5.483-2.75-7.65c-0.333-0.466-0.717-0.917-1.15-1.35c-2.333-2.333-5.166-3.5-8.5-3.5c-3.3,0-6.116,1.167-8.449,3.5
			c-2.367,2.333-3.551,5.166-3.551,8.5C105.85,44.184,106.667,46.616,108.3,48.75z M134.875,45.1h10.575L142.4,48.4
			c-0.334,0.366-0.5,0.833-0.5,1.399c0,0.533,0.166,0.983,0.5,1.351l1.899,2.1c0.367,0.366,0.8,0.55,1.3,0.55c0.067,0,0.134,0,0.2,0
			s0.134,0,0.2,0c0.5,0,0.917-0.184,1.25-0.55l9.35-10.15c0.4-0.433,0.567-0.899,0.5-1.399c0.067-0.533-0.1-1.017-0.5-1.45
			l-9.35-10.1c-0.333-0.367-0.75-0.55-1.25-0.55c-0.066,0-0.134,0-0.2,0s-0.133,0-0.2,0c-0.5,0-0.933,0.183-1.3,0.55L142.4,32.2
			c-0.334,0.367-0.5,0.833-0.5,1.4c0,0.533,0.166,0.983,0.5,1.35l3.05,3.3h-10.575H134.6c-0.5,0-0.916,0.2-1.25,0.6
			c-0.366,0.367-0.55,0.817-0.55,1.351v2.95c0,0.533,0.184,1,0.55,1.399c0.334,0.367,0.75,0.55,1.25,0.55H134.875z M85.5,14.95
			l-0.05,0.4c-0.2,0.566-0.601,0.85-1.2,0.85c-0.6,0-0.9-0.3-0.9-0.9c0-0.767,0.716-1.15,2.15-1.15V14.95z M81.65,10.8l0.4,1.45
			c0.6-0.367,1.284-0.55,2.05-0.55c0.9,0,1.351,0.316,1.351,0.95v0.1c-2.9,0-4.35,0.933-4.35,2.8c0,0.6,0.217,1.117,0.65,1.55
			c0.433,0.467,1.017,0.7,1.75,0.7c0.9,0,1.6-0.3,2.1-0.9h0.051l0.1,0.75h2.1c-0.1-0.4-0.149-1-0.149-1.8V13.3
			c0-2.133-1.066-3.2-3.2-3.2C83.367,10.1,82.417,10.333,81.65,10.8z M81.15,48.95c0.367,0.5,0.8,1,1.3,1.5
			c2.333,2.333,5.149,3.5,8.45,3.5c3.333,0,6.166-1.167,8.5-3.5c2.333-2.367,3.5-5.2,3.5-8.5c0-2.667-0.75-5.017-2.25-7.05
			c-0.467-0.7-1-1.35-1.601-1.95c-2.366-2.333-5.2-3.5-8.5-3.5c-3.333,0-6.166,1.167-8.5,3.5c-2.333,2.333-3.5,5.166-3.5,8.5
			C78.55,44.283,79.417,46.783,81.15,48.95z M115.95,57.6h8.25c5.033,0.167,8.783,0.25,11.25,0.25c3.166,0.067,5.533,0.117,7.1,0.15
			c2.867,0.033,5.233-0.033,7.101-0.2c1.399-0.166,2.216-0.233,2.449-0.2c0.267,0.034,0.917,0.434,1.95,1.2
			c-0.267,0.033-0.583,0.05-0.95,0.05c-0.533-0.033-1.267-0.083-2.199-0.149c-0.634,0.066-1.517,0.25-2.65,0.55
			c-1.2,0.3-2.1,0.483-2.7,0.55c-1.566,0.2-4.033,0.184-7.399-0.05c-1.134,0-2.834-0.167-5.101-0.5c-0.366-0.033-0.616-0.033-0.75,0
			c-0.3,0.1-0.517,0.167-0.649,0.2c-0.4,0.1-1.067,0.116-2,0.05c-0.634-0.033-1.284-0.283-1.95-0.75c-0.934-0.366-2.601-0.434-5-0.2
			c-1.033,0.134-2.617,0.2-4.75,0.2c-0.167,0-0.45,0.017-0.851,0.05c-0.333-0.033-0.583-0.116-0.75-0.25
			c-0.1-0.066-0.199-0.283-0.3-0.649C116.017,57.8,115.983,57.7,115.95,57.6z M113.3,57.75c-0.066,0.134-0.133,0.2-0.2,0.2
			c-0.566,0.2-1.699,0.3-3.399,0.3H93.4c-0.101,0-0.684,0.033-1.75,0.1c-0.733,0.034-1.301,0.017-1.7-0.05
			c-0.134-0.033-0.351-0.149-0.65-0.35c-0.133-0.066-0.233-0.134-0.3-0.2c1.333,0.066,2.384,0.1,3.15,0.1
			c4.233-0.166,7.416-0.25,9.55-0.25h11.75C113.384,57.634,113.333,57.684,113.3,57.75z M115.15,57.6
			c-0.101,0.101-0.184,0.15-0.25,0.15c-0.034,0-0.2-0.05-0.5-0.15H115.15z M55.2,14.95l-0.05,0.4c-0.2,0.566-0.6,0.85-1.2,0.85
			c-0.6,0-0.9-0.3-0.9-0.9c0-0.767,0.717-1.15,2.15-1.15V14.95z M46,7.45c-1.133,0-2.167,0.066-3.1,0.2v10h2.3V14l0.75,0.05
			c1.4,0,2.5-0.35,3.3-1.05c0.633-0.567,0.95-1.367,0.95-2.4c0-1-0.367-1.783-1.1-2.35C48.433,7.717,47.4,7.45,46,7.45z M47.9,10.65
			c0,1.1-0.65,1.65-1.95,1.65l-0.75-0.05v-3c0.1-0.033,0.4-0.05,0.9-0.05C47.3,9.2,47.9,9.683,47.9,10.65z M54.2,10.1
			c-1.133,0-2.083,0.233-2.85,0.7l0.4,1.45c0.6-0.367,1.283-0.55,2.05-0.55c0.867,0,1.3,0.316,1.3,0.95v0.1
			c-2.867,0-4.3,0.933-4.3,2.8c0,0.6,0.217,1.117,0.65,1.55c0.433,0.467,1.017,0.7,1.75,0.7c0.9,0,1.6-0.3,2.1-0.9l0.15,0.75h2.05
			c-0.067-0.267-0.1-0.867-0.1-1.8V13.3C57.4,11.167,56.333,10.1,54.2,10.1z M77.45,13l0.05,0.4l-0.05,1.5
			c-0.167,0.733-0.617,1.1-1.35,1.1c-0.467,0-0.85-0.183-1.15-0.55c-0.267-0.367-0.4-0.867-0.4-1.5c0-0.6,0.133-1.083,0.4-1.45
			c0.3-0.4,0.7-0.6,1.2-0.6C76.883,11.9,77.317,12.267,77.45,13z M68.65,14.95l-0.05,0.4c-0.2,0.566-0.6,0.85-1.2,0.85
			s-0.9-0.3-0.9-0.9c0-0.767,0.717-1.15,2.15-1.15V14.95z M64.8,10.8l0.4,1.45c0.6-0.367,1.283-0.55,2.05-0.55
			c0.867,0,1.3,0.316,1.3,0.95v0.1c-2.867,0-4.3,0.933-4.3,2.8c0,0.6,0.217,1.117,0.65,1.55c0.434,0.467,1.017,0.7,1.75,0.7
			c0.9,0,1.6-0.3,2.1-0.9h0.05l0.1,0.75h2.05l-0.1-4.35c0-2.133-1.067-3.2-3.2-3.2C66.517,10.1,65.567,10.333,64.8,10.8z
			 M61.2,11.65l-0.1-1.35h-1.95l0.05,7.35h2.3V13.9l0.05-0.5c0.167-0.767,0.684-1.15,1.55-1.15l0.6,0.05v-2.15l-0.45-0.05
			c-1,0-1.667,0.517-2,1.55H61.2z M75.55,10.1c-0.933,0-1.7,0.35-2.3,1.05c-0.667,0.733-1,1.7-1,2.9c0,1.1,0.3,2,0.9,2.7
			s1.35,1.05,2.25,1.05c1.067,0,1.817-0.417,2.25-1.25h0.05l0.1,1.1h2.05L79.75,7H77.5v3.95h-0.05
			C77.117,10.383,76.483,10.1,75.55,10.1z M53.9,48.95c0.367,0.5,0.8,1,1.3,1.5c2.333,2.333,5.15,3.5,8.45,3.5
			c3.333,0,6.167-1.167,8.5-3.5c2.333-2.367,3.5-5.2,3.5-8.5c0-2.667-0.75-5.017-2.25-7.05c-0.467-0.7-1-1.35-1.6-1.95
			c-2.367-2.333-5.2-3.5-8.5-3.5c-3.333,0-6.167,1.167-8.5,3.5c-2.333,2.333-3.5,5.166-3.5,8.5
			C51.3,44.283,52.167,46.783,53.9,48.95z M14.3,8.85c-0.867-1-2.05-1.5-3.55-1.5c-1.467,0-2.667,0.5-3.6,1.5
			c-0.9,1-1.35,2.267-1.35,3.8c0,1.5,0.434,2.717,1.3,3.65c0.867,1,2.033,1.5,3.5,1.5c1.5,0,2.7-0.466,3.6-1.4
			c0.9-0.967,1.35-2.283,1.35-3.95C15.55,10.983,15.133,9.783,14.3,8.85z M10.7,9.15c0.767,0,1.367,0.333,1.8,1
			c0.433,0.633,0.65,1.434,0.65,2.4c0,1-0.217,1.817-0.65,2.45c-0.433,0.667-1.033,1-1.8,1c-0.767,0-1.367-0.317-1.8-0.95
			c-0.433-0.6-0.65-1.417-0.65-2.45c0-1,0.217-1.817,0.65-2.45C9.333,9.483,9.933,9.15,10.7,9.15z M33.1,13.95
			c0-0.6,0.117-1.1,0.35-1.5c0.267-0.467,0.65-0.7,1.15-0.7c0.967,0,1.45,0.733,1.45,2.2c0,1.466-0.483,2.2-1.45,2.2
			C33.6,16.15,33.1,15.417,33.1,13.95z M25.05,10.3V12h1v3c0,1,0.2,1.717,0.6,2.15c0.434,0.434,1.017,0.65,1.75,0.65
			c0.633,0,1.117-0.066,1.45-0.2v-1.75L29.2,15.9c-0.6,0-0.9-0.417-0.9-1.25V12h1.6v-1.7h-1.6v-2l-2.25,0.65v1.35H25.05z
			 M23.25,10.9c-0.467-0.5-1.1-0.75-1.9-0.75c-1,0-1.75,0.383-2.25,1.15h-0.05l-0.1-1h-2l0.1,7.35h2.25V13.4
			c0-0.267,0.034-0.45,0.1-0.55c0.2-0.567,0.583-0.85,1.15-0.85c0.767,0,1.15,0.517,1.15,1.55v4.1H24V13.3
			C24,12.267,23.75,11.467,23.25,10.9z M34.65,10.1c-1.167,0-2.117,0.35-2.85,1.05c-0.7,0.733-1.05,1.684-1.05,2.85
			s0.367,2.1,1.1,2.8c0.7,0.667,1.6,1,2.7,1c1.067,0,1.95-0.316,2.65-0.95c0.8-0.7,1.2-1.684,1.2-2.95c0-1.133-0.35-2.05-1.05-2.75
			C36.683,10.45,35.783,10.1,34.65,10.1z"/>
		<path style="fill-rule:evenodd;clip-rule:evenodd;fill:#58763E;" d="M127.5,34.3c1.833,2.167,2.75,4.717,2.75,7.65
			c0,3.3-1.167,6.133-3.5,8.5c-2.366,2.333-5.2,3.5-8.5,3.5c-3.333,0-6.167-1.167-8.5-3.5c-0.533-0.566-1.017-1.134-1.45-1.7
			c-1.366-2-2.05-4.267-2.05-6.8c0-3.334,1.167-6.167,3.5-8.5c2.333-2.333,5.167-3.5,8.5-3.5c3.3,0,6.134,1.167,8.5,3.5
			C127.017,33.717,127.267,34,127.5,34.3z M126.05,37.9v-2.95H111.2v2.95h5.2v12.5h4.399V37.9H126.05z"/>
		<path style="fill-rule:evenodd;clip-rule:evenodd;fill:#F1EFCD;" d="M145.45,45.1h-10.575c-0.459-0.01-0.851-0.192-1.175-0.55
			c-0.367-0.399-0.55-0.866-0.55-1.399V40.2c0-0.533,0.183-0.983,0.55-1.351c0.324-0.389,0.716-0.589,1.175-0.6h10.575h0.399
			l-3.05-3.3c-0.333-0.367-0.5-0.817-0.5-1.35c0-0.567,0.167-1.033,0.5-1.4l1.9-2.05c0.333-0.333,0.7-0.517,1.1-0.55
			c0.066,0,0.134,0,0.2,0c0.5,0,0.917,0.183,1.25,0.55l9.35,10.1c0.4,0.434,0.567,0.917,0.5,1.45c0.067,0.5-0.1,0.967-0.5,1.399
			l-9.35,10.15c-0.333,0.366-0.75,0.55-1.25,0.55c-0.066,0-0.134,0-0.2,0c-0.399-0.033-0.767-0.217-1.1-0.55l-1.9-2.1
			c-0.333-0.367-0.5-0.817-0.5-1.351c0-0.566,0.167-1.033,0.5-1.399l3.05-3.301H145.45z M126.05,37.9h-5.25v12.5H116.4V37.9h-5.2
			v-2.95h14.85V37.9z M87.05,42.1c0.167,0.167,0.384,0.25,0.65,0.25s0.5-0.083,0.7-0.25c0.199-0.199,0.3-0.433,0.3-0.699
			c0-0.233-0.101-0.45-0.3-0.65c-0.2-0.167-0.434-0.25-0.7-0.25s-0.483,0.083-0.65,0.25c-0.2,0.2-0.3,0.417-0.3,0.65
			C86.75,41.667,86.85,41.9,87.05,42.1z M90.5,34.85h-3.25c-0.2,0-0.366,0.083-0.5,0.25c-0.167,0.133-0.25,0.3-0.25,0.5v2.6
			c0,0.467,0.25,0.7,0.75,0.7h3.25V34.85z M96,34.05c0.267,0.233,0.4,0.534,0.4,0.9v9.399c0,0.367-0.134,0.667-0.4,0.9
			c-0.267,0.267-0.583,0.4-0.95,0.4h-8.3c-0.366,0-0.684-0.134-0.95-0.4c-0.267-0.233-0.399-0.533-0.399-0.9V34.95
			c0-0.367,0.133-0.667,0.399-0.9c0.267-0.267,0.584-0.4,0.95-0.4h8.3C95.417,33.65,95.733,33.783,96,34.05z M95.3,35.6
			c0-0.5-0.25-0.75-0.75-0.75H91.3v4.05h3.25c0.5,0,0.75-0.233,0.75-0.7V35.6z M86.35,48.35h9.15l-0.6-0.55H87L86.35,48.35z
			 M88,46.7h5.9c-0.034-0.101,0-0.217,0.1-0.351c0.267-0.233,0.517-0.233,0.75,0l3.4,3.051c0.233,0.233,0.233,0.466,0,0.699
			c-0.267,0.2-0.5,0.2-0.7,0l-0.7-0.649c-0.066,0-0.116,0-0.15,0H85.15L84.4,50.1c-0.233,0.2-0.484,0.2-0.75,0
			c-0.2-0.199-0.183-0.433,0.05-0.699L87.1,46.35c0.233-0.233,0.467-0.233,0.7,0C87.934,46.483,88,46.6,88,46.7z M94.1,42.35
			c0.634,0,0.95-0.316,0.95-0.949c0-0.601-0.316-0.9-0.95-0.9c-0.633,0-0.949,0.3-0.949,0.9C93.15,42.033,93.467,42.35,94.1,42.35z
			 M59.75,47.8l-0.65,0.55h9.15l-0.6-0.55H59.75z M59.85,46.35c0.233-0.233,0.467-0.233,0.7,0c0.133,0.134,0.2,0.25,0.2,0.351h5.9
			c-0.033-0.101,0-0.217,0.1-0.351c0.267-0.233,0.517-0.233,0.75,0l3.4,3.051c0.233,0.233,0.233,0.466,0,0.699
			c-0.267,0.2-0.5,0.2-0.7,0l-0.7-0.649c-0.067,0-0.117,0-0.15,0H57.9L57.15,50.1c-0.233,0.2-0.483,0.2-0.75,0
			c-0.2-0.199-0.183-0.433,0.05-0.699L59.85,46.35z M59.8,42.1c0.167,0.167,0.383,0.25,0.65,0.25c0.267,0,0.5-0.083,0.7-0.25
			c0.2-0.199,0.3-0.433,0.3-0.699c0-0.233-0.1-0.45-0.3-0.65c-0.2-0.167-0.433-0.25-0.7-0.25c-0.267,0-0.483,0.083-0.65,0.25
			c-0.2,0.2-0.3,0.417-0.3,0.65C59.5,41.667,59.6,41.9,59.8,42.1z M60,34.85c-0.2,0-0.367,0.083-0.5,0.25
			c-0.167,0.133-0.25,0.3-0.25,0.5v2.6c0,0.467,0.25,0.7,0.75,0.7h3.25v-4.05H60z M58.15,34.95c0-0.367,0.133-0.667,0.4-0.9
			c0.267-0.267,0.583-0.4,0.95-0.4h8.3c0.367,0,0.684,0.133,0.95,0.4c0.267,0.233,0.4,0.534,0.4,0.9v9.399
			c0,0.367-0.133,0.667-0.4,0.9c-0.267,0.267-0.583,0.4-0.95,0.4h-8.3c-0.367,0-0.683-0.134-0.95-0.4
			c-0.267-0.233-0.4-0.533-0.4-0.9V34.95z M66.85,42.35c0.633,0,0.95-0.316,0.95-0.949c0-0.601-0.316-0.9-0.95-0.9
			s-0.95,0.3-0.95,0.9C65.9,42.033,66.217,42.35,66.85,42.35z M67.3,34.85h-3.25v4.05h3.25c0.5,0,0.75-0.233,0.75-0.7v-2.6
			C68.05,35.1,67.8,34.85,67.3,34.85z"/>
		<path style="fill-rule:evenodd;clip-rule:evenodd;fill:#131410;" d="M158.85,62.3c-0.333-0.233-0.733-0.517-1.199-0.85
			c-0.167,0-0.317,0-0.45,0H4.5L3.65,61.35c-0.467-0.1-0.9-0.267-1.3-0.5c-0.167-0.1-0.317-0.216-0.45-0.35
			c0-0.033-0.017-0.05-0.05-0.05L1.8,60.4c-0.033-0.034-0.066-0.067-0.1-0.101c-0.8-0.8-1.2-1.75-1.2-2.85v-17.4l0.4-0.8
			c-0.033,0.667,0,1.6,0.1,2.8c0.1,1.367,0.15,2.3,0.15,2.8c0,1.034,0.1,2.067,0.3,3.101c0.133,0.566,0.15,1.366,0.05,2.399
			c-0.1,1.101-0.117,1.9-0.05,2.4c0.3-0.066,0.517-0.25,0.65-0.55c0.066,0.366,0.117,1.05,0.15,2.05
			c0.033,0.833,0.117,1.483,0.25,1.95c0.933-0.233,1.5-0.95,1.7-2.15c0.433,0.334,0.733,0.8,0.9,1.4
			c-0.067,0.566-0.033,0.934,0.1,1.1c0.133,0.167,0.35,0.25,0.65,0.25c0.433-0.033,0.683-0.05,0.75-0.05
			c0.233,0.033,0.433,0.1,0.6,0.2c0.267,0.166,0.433,0.267,0.5,0.3c0.933,0.5,2.333,0.7,4.2,0.6c2.3-0.133,3.783-0.149,4.45-0.05
			c1.9,0.367,3.167,0.533,3.8,0.5c0.633-0.066,1.133-0.184,1.5-0.35c0.133-0.033,0.35-0.184,0.65-0.45
			c0.333-0.267,0.534-0.417,0.6-0.45c0.233-0.033,0.45,0.017,0.65,0.15c0.267,0.233,0.483,0.383,0.65,0.45
			c0.466,0.233,1.1,0.35,1.9,0.35h6.25c0.433,0.033,0.9-0.05,1.4-0.25c0.7-0.267,1.167-0.417,1.4-0.45
			c0.333-0.066,0.8-0.05,1.4,0.05c0.7,0.101,1.15,0.15,1.35,0.15c1-0.066,1.733-0.083,2.2-0.05c0.867,0.2,1.566,0.3,2.1,0.3
			c1.2-0.066,2.1-0.083,2.7-0.05l2,0.399c0.934,0.2,1.6,0.184,2-0.05c0.4-0.2,0.55-0.467,0.45-0.8
			c-0.167-0.467-0.233-0.783-0.2-0.95c1-0.166,2-0.166,3,0c-0.1,0.134-0.167,0.417-0.2,0.851c0.7,0.233,1.716,0.333,3.05,0.3
			c1.467-0.134,2.5-0.2,3.1-0.2c1.833-0.066,3.233-0.116,4.2-0.15c1.733-0.066,3.117-0.017,4.15,0.15
			c0.4,0.066,1.083,0.25,2.05,0.55c0.867,0.3,1.567,0.467,2.1,0.5c1.267-0.133,2.2-0.133,2.8,0c0.6,0.267,1.083,0.417,1.45,0.45
			c0.6,0.1,1.4,0.167,2.4,0.2c1.4,0.033,2.2,0.05,2.4,0.05c0.633,0.066,1.25-0.017,1.85-0.25c0.667-0.333,1.233-0.583,1.7-0.75
			c0.533-0.167,1.316-0.233,2.35-0.2c1.4,0.033,2.2,0.05,2.4,0.05c0.1,0,0.184-0.033,0.25-0.1c-0.867-0.066-1.834-0.134-2.9-0.2
			c-2.9-0.2-5.183-0.267-6.85-0.2c0.3-0.166,0.8-0.283,1.5-0.35c0.667-0.033,1.15-0.15,1.45-0.35c0.133-0.067,0.267-0.184,0.4-0.351
			c0.133-0.2,0.25-0.333,0.35-0.399c0.1-0.067,0.267-0.134,0.5-0.2c0.233-0.033,0.4-0.134,0.5-0.3c0.3,0.199,0.633,0.267,1,0.199
			l0.25,0.25c0.5,0.267,1.116,0.417,1.85,0.45c0.9,0.033,1.55,0.05,1.95,0.05c0.133,0,1.066,0.084,2.8,0.25
			c1.1,0.101,2.017,0.084,2.75-0.05c2.566-0.434,4.283-0.833,5.15-1.2c0.933-0.333,1.633-0.616,2.1-0.85
			c0.8-0.366,1.384-0.767,1.75-1.2c0.566-0.967,0.95-1.467,1.15-1.5c0.133,0,0.383,0.15,0.75,0.45c0.399,0.366,0.649,0.566,0.75,0.6
			c1.066,0.567,2.316,1.067,3.75,1.5c0.466,0.134,1.533,0.5,3.199,1.101c0.601,0.2,1.301,0.316,2.101,0.35
			c0.967,0.033,1.684,0.05,2.149,0.05c3.034,0.101,4.717,0.134,5.051,0.101c1.8-0.101,3.383-0.566,4.75-1.4
			c1.733-1.166,3.05-2.017,3.949-2.55c0.801-0.4,1.467-0.616,2-0.65c1.634-0.133,2.584-0.133,2.851,0
			c0.267,0.167,0.483,0.517,0.649,1.051c0.2,0.533,0.45,0.916,0.75,1.149c0.067,0.033,0.351,0.2,0.851,0.5
			c0.233,0.167,0.45,0.367,0.649,0.601c0.067,0.1,0.134,0.3,0.2,0.6c0.033,0.3,0.134,0.5,0.3,0.6
			c0.101,0.067,0.301,0.084,0.601,0.051c0.333-0.034,0.55-0.051,0.649-0.051c1.434,0.167,2.267,0.25,2.5,0.25
			c0.567,0.034,1,0.067,1.301,0.101c0.533,0,0.949-0.033,1.25-0.101c0.166-0.033,0.416-0.149,0.75-0.35
			c0.3-0.2,0.55-0.316,0.75-0.35c0.267-0.067,0.533-0.051,0.8,0.05c0.3,0.1,0.55,0.149,0.75,0.149c0.333,0,0.916-0.233,1.75-0.699
			c0.8-0.4,1.6-1.017,2.399-1.851c0.867-0.967,1.551-1.7,2.051-2.2c1.1-0.933,2.083-1.916,2.949-2.949
			c1.667-1.934,3.034-4.233,4.101-6.9v16.45c0,1.1-0.384,2.05-1.15,2.85c-0.233,0.2-0.45,0.384-0.649,0.55c0,0.2,0,0.434,0,0.7
			v0.601L159.35,62.6C159.217,62.533,159.05,62.434,158.85,62.3z M115.15,57.6h-0.75c0.3,0.101,0.466,0.15,0.5,0.15
			C114.967,57.75,115.05,57.7,115.15,57.6z M113.3,57.75c0.033-0.066,0.084-0.116,0.15-0.15H101.7c-2.134,0-5.316,0.084-9.55,0.25
			c-0.767,0-1.817-0.033-3.15-0.1c0.066,0.066,0.167,0.134,0.3,0.2c0.3,0.2,0.517,0.316,0.65,0.35c0.399,0.066,0.967,0.084,1.7,0.05
			c1.066-0.066,1.649-0.1,1.75-0.1h16.3c1.7,0,2.833-0.1,3.399-0.3C113.167,57.95,113.233,57.884,113.3,57.75z M115.95,57.6
			c0.033,0.101,0.066,0.2,0.1,0.301c0.101,0.366,0.2,0.583,0.3,0.649c0.167,0.134,0.417,0.217,0.75,0.25
			c0.4-0.033,0.684-0.05,0.851-0.05c2.133,0,3.717-0.066,4.75-0.2c2.399-0.233,4.066-0.166,5,0.2c0.666,0.467,1.316,0.717,1.95,0.75
			c0.933,0.066,1.6,0.05,2-0.05c0.133-0.033,0.35-0.101,0.649-0.2c0.134-0.033,0.384-0.033,0.75,0c2.267,0.333,3.967,0.5,5.101,0.5
			c3.366,0.233,5.833,0.25,7.399,0.05c0.601-0.066,1.5-0.25,2.7-0.55c1.134-0.3,2.017-0.483,2.65-0.55
			c0.933,0.066,1.666,0.116,2.199,0.149c0.367,0,0.684-0.017,0.95-0.05c-1.033-0.767-1.684-1.166-1.95-1.2
			c-0.233-0.033-1.05,0.034-2.449,0.2c-1.867,0.167-4.233,0.233-7.101,0.2c-1.566-0.033-3.934-0.083-7.1-0.15
			c-2.467,0-6.217-0.083-11.25-0.25H115.95z"/>
		<path style="fill-rule:evenodd;clip-rule:evenodd;fill:#FFFFFF;" d="M81.65,10.8c0.767-0.466,1.717-0.7,2.85-0.7
			c2.134,0,3.2,1.066,3.2,3.2v2.55c0,0.8,0.05,1.4,0.149,1.8h-2.1l-0.1-0.75H85.6c-0.5,0.6-1.199,0.9-2.1,0.9
			c-0.733,0-1.317-0.233-1.75-0.7c-0.433-0.434-0.65-0.95-0.65-1.55c0-1.867,1.45-2.8,4.35-2.8v-0.1c0-0.633-0.45-0.95-1.351-0.95
			c-0.766,0-1.45,0.183-2.05,0.55L81.65,10.8z M85.5,14.95v-0.8c-1.434,0-2.15,0.383-2.15,1.15c0,0.6,0.3,0.9,0.9,0.9
			c0.6,0,1-0.284,1.2-0.85L85.5,14.95z M75.55,10.1c0.934,0,1.567,0.283,1.9,0.85h0.05V7h2.25l0.1,10.65H77.8l-0.1-1.1h-0.05
			c-0.433,0.833-1.183,1.25-2.25,1.25c-0.9,0-1.65-0.35-2.25-1.05s-0.9-1.6-0.9-2.7c0-1.2,0.333-2.167,1-2.9
			C73.85,10.45,74.617,10.1,75.55,10.1z M61.2,11.65h0.05c0.333-1.033,1-1.55,2-1.55l0.45,0.05v2.15l-0.6-0.05
			c-0.867,0-1.383,0.383-1.55,1.15l-0.05,0.5v3.75h-2.3l-0.05-7.35h1.95L61.2,11.65z M64.8,10.8c0.767-0.466,1.717-0.7,2.85-0.7
			c2.133,0,3.2,1.066,3.2,3.2l0.1,4.35H68.9l-0.1-0.75h-0.05c-0.5,0.6-1.2,0.9-2.1,0.9c-0.733,0-1.316-0.233-1.75-0.7
			c-0.433-0.434-0.65-0.95-0.65-1.55c0-1.867,1.433-2.8,4.3-2.8v-0.1c0-0.633-0.433-0.95-1.3-0.95c-0.767,0-1.45,0.183-2.05,0.55
			L64.8,10.8z M68.65,14.95v-0.8c-1.433,0-2.15,0.383-2.15,1.15c0,0.6,0.3,0.9,0.9,0.9s1-0.284,1.2-0.85L68.65,14.95z M77.45,13
			c-0.133-0.733-0.567-1.1-1.3-1.1c-0.5,0-0.9,0.2-1.2,0.6c-0.267,0.367-0.4,0.85-0.4,1.45c0,0.633,0.133,1.133,0.4,1.5
			c0.3,0.367,0.683,0.55,1.15,0.55c0.733,0,1.183-0.367,1.35-1.1l0.05-1.5L77.45,13z M54.2,10.1c2.133,0,3.2,1.066,3.2,3.2v2.55
			c0,0.933,0.033,1.533,0.1,1.8h-2.05L55.3,16.9c-0.5,0.6-1.2,0.9-2.1,0.9c-0.733,0-1.317-0.233-1.75-0.7
			c-0.434-0.434-0.65-0.95-0.65-1.55c0-1.867,1.434-2.8,4.3-2.8v-0.1c0-0.633-0.434-0.95-1.3-0.95c-0.767,0-1.45,0.183-2.05,0.55
			l-0.4-1.45C52.117,10.333,53.067,10.1,54.2,10.1z M47.9,10.65c0-0.967-0.6-1.45-1.8-1.45c-0.5,0-0.8,0.017-0.9,0.05v3l0.75,0.05
			C47.25,12.3,47.9,11.75,47.9,10.65z M46,7.45c1.4,0,2.433,0.267,3.1,0.8c0.733,0.567,1.1,1.35,1.1,2.35
			c0,1.033-0.317,1.833-0.95,2.4c-0.8,0.7-1.9,1.05-3.3,1.05L45.2,14v3.65h-2.3v-10C43.833,7.517,44.867,7.45,46,7.45z M55.2,14.95
			v-0.8c-1.434,0-2.15,0.383-2.15,1.15c0,0.6,0.3,0.9,0.9,0.9c0.6,0,1-0.284,1.2-0.85L55.2,14.95z M34.65,10.1
			c1.133,0,2.033,0.35,2.7,1.05c0.7,0.7,1.05,1.617,1.05,2.75c0,1.267-0.4,2.25-1.2,2.95c-0.7,0.633-1.583,0.95-2.65,0.95
			c-1.1,0-2-0.333-2.7-1c-0.733-0.7-1.1-1.633-1.1-2.8s0.35-2.117,1.05-2.85C32.533,10.45,33.483,10.1,34.65,10.1z M23.25,10.9
			c0.5,0.567,0.75,1.367,0.75,2.4v4.35h-2.3v-4.1c0-1.033-0.383-1.55-1.15-1.55c-0.566,0-0.95,0.283-1.15,0.85
			c-0.066,0.1-0.1,0.283-0.1,0.55v4.25h-2.25l-0.1-7.35h2l0.1,1h0.05c0.5-0.767,1.25-1.15,2.25-1.15
			C22.15,10.15,22.783,10.4,23.25,10.9z M25.05,10.3h1V8.95L28.3,8.3v2h1.6V12h-1.6v2.65c0,0.833,0.3,1.25,0.9,1.25l0.65-0.05v1.75
			c-0.333,0.133-0.817,0.2-1.45,0.2c-0.733,0-1.316-0.216-1.75-0.65c-0.4-0.433-0.6-1.15-0.6-2.15v-3h-1V10.3z M33.1,13.95
			c0,1.466,0.5,2.2,1.5,2.2c0.967,0,1.45-0.733,1.45-2.2c0-1.467-0.483-2.2-1.45-2.2c-0.5,0-0.883,0.233-1.15,0.7
			C33.217,12.85,33.1,13.35,33.1,13.95z M10.7,9.15c-0.767,0-1.367,0.333-1.8,1c-0.433,0.633-0.65,1.45-0.65,2.45
			c0,1.033,0.217,1.85,0.65,2.45C9.333,15.683,9.933,16,10.7,16c0.767,0,1.367-0.333,1.8-1c0.433-0.633,0.65-1.45,0.65-2.45
			c0-0.966-0.217-1.767-0.65-2.4C12.067,9.483,11.467,9.15,10.7,9.15z M14.3,8.85c0.833,0.933,1.25,2.133,1.25,3.6
			c0,1.667-0.45,2.983-1.35,3.95c-0.9,0.934-2.1,1.4-3.6,1.4c-1.467,0-2.633-0.5-3.5-1.5c-0.867-0.933-1.3-2.15-1.3-3.65
			c0-1.533,0.45-2.8,1.35-3.8c0.934-1,2.133-1.5,3.6-1.5C12.25,7.35,13.433,7.85,14.3,8.85z"/>
		<path style="fill-rule:evenodd;clip-rule:evenodd;fill:#69382B;" d="M100.65,34.9c1.5,2.034,2.25,4.383,2.25,7.05
			c0,3.3-1.167,6.133-3.5,8.5c-2.334,2.333-5.167,3.5-8.5,3.5c-3.301,0-6.117-1.167-8.45-3.5c-0.5-0.5-0.934-1-1.3-1.5
			c-1.5-2.033-2.25-4.367-2.25-7c0-3.334,1.184-6.167,3.55-8.5c2.333-2.333,5.149-3.5,8.45-3.5c3.333,0,6.166,1.167,8.5,3.5
			C99.866,33.917,100.283,34.4,100.65,34.9z M95.3,35.6v2.6c0,0.467-0.25,0.7-0.75,0.7H91.3v-4.05h3.25
			C95.05,34.85,95.3,35.1,95.3,35.6z M96,34.05c-0.267-0.267-0.583-0.4-0.95-0.4h-8.3c-0.366,0-0.684,0.133-0.95,0.4
			c-0.267,0.233-0.399,0.534-0.399,0.9v9.399c0,0.367,0.133,0.667,0.399,0.9c0.267,0.267,0.584,0.4,0.95,0.4h8.3
			c0.367,0,0.684-0.134,0.95-0.4c0.267-0.233,0.4-0.533,0.4-0.9V34.95C96.4,34.583,96.267,34.283,96,34.05z M90.5,34.85v4.05h-3.25
			c-0.5,0-0.75-0.233-0.75-0.7v-2.6c0-0.2,0.083-0.367,0.25-0.5c0.134-0.167,0.3-0.25,0.5-0.25H90.5z M87.05,42.1
			c-0.2-0.199-0.3-0.433-0.3-0.699c0-0.233,0.1-0.45,0.3-0.65c0.167-0.167,0.384-0.25,0.65-0.25s0.5,0.083,0.7,0.25
			c0.199,0.2,0.3,0.417,0.3,0.65c0,0.267-0.101,0.5-0.3,0.699c-0.2,0.167-0.434,0.25-0.7,0.25S87.217,42.267,87.05,42.1z M88,46.7
			c0-0.101-0.066-0.217-0.2-0.351c-0.233-0.233-0.467-0.233-0.7,0L83.7,49.4c-0.233,0.267-0.25,0.5-0.05,0.699
			c0.267,0.2,0.517,0.2,0.75,0l0.75-0.649H96.6c0.034,0,0.084,0,0.15,0l0.7,0.649c0.2,0.2,0.434,0.2,0.7,0
			c0.233-0.233,0.233-0.466,0-0.699l-3.4-3.051c-0.233-0.233-0.483-0.233-0.75,0c-0.1,0.134-0.134,0.25-0.1,0.351H88z M86.35,48.35
			L87,47.8h7.9l0.6,0.55H86.35z M94.1,42.35c-0.633,0-0.949-0.316-0.949-0.949c0-0.601,0.316-0.9,0.949-0.9
			c0.634,0,0.95,0.3,0.95,0.9C95.05,42.033,94.733,42.35,94.1,42.35z"/>
		<path style="fill-rule:evenodd;clip-rule:evenodd;fill:#577FAA;" d="M58.15,34.95v9.399c0,0.367,0.133,0.667,0.4,0.9
			c0.267,0.267,0.583,0.4,0.95,0.4h8.3c0.367,0,0.684-0.134,0.95-0.4c0.267-0.233,0.4-0.533,0.4-0.9V34.95
			c0-0.367-0.133-0.667-0.4-0.9c-0.267-0.267-0.583-0.4-0.95-0.4h-8.3c-0.367,0-0.683,0.133-0.95,0.4
			C58.283,34.283,58.15,34.583,58.15,34.95z M60,34.85h3.25v4.05H60c-0.5,0-0.75-0.233-0.75-0.7v-2.6c0-0.2,0.083-0.367,0.25-0.5
			C59.633,34.933,59.8,34.85,60,34.85z M59.8,42.1c-0.2-0.199-0.3-0.433-0.3-0.699c0-0.233,0.1-0.45,0.3-0.65
			c0.167-0.167,0.383-0.25,0.65-0.25c0.267,0,0.5,0.083,0.7,0.25c0.2,0.2,0.3,0.417,0.3,0.65c0,0.267-0.1,0.5-0.3,0.699
			c-0.2,0.167-0.433,0.25-0.7,0.25C60.183,42.35,59.967,42.267,59.8,42.1z M59.85,46.35l-3.4,3.051
			c-0.233,0.267-0.25,0.5-0.05,0.699c0.267,0.2,0.517,0.2,0.75,0l0.75-0.649h11.45c0.033,0,0.083,0,0.15,0l0.7,0.649
			c0.2,0.2,0.433,0.2,0.7,0c0.233-0.233,0.233-0.466,0-0.699l-3.4-3.051c-0.233-0.233-0.483-0.233-0.75,0
			c-0.1,0.134-0.133,0.25-0.1,0.351h-5.9c0-0.101-0.067-0.217-0.2-0.351C60.317,46.116,60.083,46.116,59.85,46.35z M59.75,47.8h7.9
			l0.6,0.55H59.1L59.75,47.8z M73.4,34.9c1.5,2.034,2.25,4.383,2.25,7.05c0,3.3-1.167,6.133-3.5,8.5c-2.333,2.333-5.167,3.5-8.5,3.5
			c-3.3,0-6.117-1.167-8.45-3.5c-0.5-0.5-0.934-1-1.3-1.5c-1.5-2.033-2.25-4.367-2.25-7c0-3.334,1.184-6.167,3.55-8.5
			c2.333-2.333,5.15-3.5,8.45-3.5c3.333,0,6.167,1.167,8.5,3.5C72.617,33.917,73.033,34.4,73.4,34.9z M67.3,34.85
			c0.5,0,0.75,0.25,0.75,0.75v2.6c0,0.467-0.25,0.7-0.75,0.7h-3.25v-4.05H67.3z M66.85,42.35c-0.633,0-0.95-0.316-0.95-0.949
			c0-0.601,0.317-0.9,0.95-0.9s0.95,0.3,0.95,0.9C67.8,42.033,67.483,42.35,66.85,42.35z"/>
	</g>
</g>
</svg>
