<?xml version="1.0" encoding="iso-8859-1"?>
<!-- Generator: Adobe Illustrator 16.0.0, SVG Export Plug-In . SVG Version: 6.00 Build 0)  -->
<!DOCTYPE svg PUBLIC "-//W3C//DTD SVG 1.1//EN" "http://www.w3.org/Graphics/SVG/1.1/DTD/svg11.dtd">
<svg version="1.1" id="FlashAICB" xmlns="http://www.w3.org/2000/svg" xmlns:xlink="http://www.w3.org/1999/xlink" x="0px" y="0px"
	 width="168.934px" height="70.033px" viewBox="0 0 168.934 70.033" style="enable-background:new 0 0 168.934 70.033;"
	 xml:space="preserve">
<g>
	<g>
		<path style="fill-rule:evenodd;clip-rule:evenodd;fill:#11120E;" d="M159.4,62.15V61.55c0-0.267,0-0.517,0-0.75
			c0.199-0.166,0.416-0.35,0.649-0.55c0.767-0.8,1.15-1.75,1.15-2.85V40.95V4.85c0-0.9-0.233-1.684-0.7-2.35
			c-0.134-0.167-0.283-0.333-0.45-0.5c-0.767-0.733-1.684-1.117-2.75-1.15h0.7c1.1,0,2.05,0.4,2.85,1.2c0.467,0.467,0.801,1,1,1.6
			c0.091,0.271,0.141,0.58,0.15,0.925V7v51.3c0,1.101-0.384,2.05-1.15,2.851C160.417,61.583,159.934,61.917,159.4,62.15z
			 M115.75,62.35H4.25h-0.2c-0.6,0-1.15-0.116-1.65-0.35c-0.433-0.2-0.833-0.483-1.2-0.85L1.15,61.1
			c-0.033-0.033-0.066-0.066-0.1-0.1C0.35,60.233,0,59.333,0,58.3V4.8c0.033-1.1,0.433-2.017,1.2-2.75c0.8-0.8,1.75-1.2,2.85-1.2
			H4.4C3.333,0.883,2.433,1.267,1.7,2C0.9,2.767,0.5,3.717,0.5,4.85V40v17.4c0,1.1,0.4,2.05,1.2,2.85l0.55,0.5
			c0.4,0.267,0.833,0.45,1.3,0.55L4.3,61.4c0.067,0,0.133,0,0.2,0h152.7c0.133,0,0.283,0,0.45,0c0.5,0.333,0.916,0.616,1.25,0.85
			c-0.301,0.066-0.601,0.1-0.9,0.1h-38.6H115.75z M127.55,34.3c-0.267-0.3-0.533-0.583-0.8-0.85c-2.366-2.367-5.2-3.55-8.5-3.55
			c-3.333,0-6.167,1.184-8.5,3.55c-2.333,2.333-3.5,5.149-3.5,8.45c0,2.533,0.684,4.783,2.05,6.75
			c-1.633-2.067-2.45-4.483-2.45-7.25c0-3.301,1.184-6.117,3.551-8.45c2.333-2.367,5.149-3.55,8.449-3.55
			c3.334,0,6.167,1.184,8.5,3.55C126.783,33.383,127.184,33.833,127.55,34.3z M134.875,38.25c-0.459,0.01-0.851,0.193-1.175,0.55
			c-0.367,0.4-0.55,0.867-0.55,1.4v2.95c0,0.533,0.183,0.983,0.55,1.35c0.324,0.39,0.716,0.589,1.175,0.6H134.6
			c-0.5,0-0.916-0.199-1.25-0.6c-0.366-0.366-0.55-0.816-0.55-1.35V40.2c0-0.533,0.184-1,0.55-1.4c0.334-0.366,0.75-0.55,1.25-0.55
			H134.875z M145.45,38.25l-3.05-3.3c-0.334-0.367-0.5-0.817-0.5-1.35c0-0.567,0.166-1.033,0.5-1.4l1.899-2.1
			c0.367-0.367,0.8-0.55,1.3-0.55c0.067,0,0.134,0,0.2,0c-0.399,0.034-0.767,0.217-1.1,0.55l-1.9,2.1
			c-0.333,0.367-0.5,0.833-0.5,1.4c0,0.533,0.167,0.983,0.5,1.35l3.05,3.3H145.45z M145.8,53.8c-0.066,0-0.133,0-0.2,0
			c-0.5,0-0.933-0.2-1.3-0.6l-1.899-2.05c-0.334-0.367-0.5-0.817-0.5-1.351c0-0.566,0.166-1.033,0.5-1.399l3.05-3.301h0.399
			L142.8,48.4c-0.333,0.366-0.5,0.833-0.5,1.399c0,0.533,0.167,0.983,0.5,1.351l1.9,2.05C145.033,53.533,145.4,53.733,145.8,53.8z
			 M100.65,34.9c-0.367-0.5-0.784-0.983-1.25-1.45c-2.334-2.367-5.167-3.55-8.5-3.55c-3.301,0-6.117,1.184-8.45,3.55
			c-2.367,2.333-3.55,5.149-3.55,8.45c0,2.633,0.733,4.949,2.2,6.949c-1.7-2.133-2.55-4.616-2.55-7.449
			c0-3.301,1.167-6.117,3.5-8.45c2.334-2.367,5.167-3.55,8.5-3.55c3.3,0,6.134,1.184,8.5,3.55
			C99.684,33.583,100.217,34.233,100.65,34.9z M73.4,34.9c-0.367-0.5-0.783-0.983-1.25-1.45c-2.333-2.367-5.167-3.55-8.5-3.55
			c-3.3,0-6.117,1.184-8.45,3.55c-2.367,2.333-3.55,5.149-3.55,8.45c0,2.633,0.733,4.949,2.2,6.949
			c-1.7-2.133-2.55-4.616-2.55-7.449c0-3.301,1.167-6.117,3.5-8.45c2.333-2.367,5.167-3.55,8.5-3.55c3.3,0,6.133,1.184,8.5,3.55
			C72.433,33.583,72.967,34.233,73.4,34.9z"/>
		<path style="fill-rule:evenodd;clip-rule:evenodd;fill:#515046;" d="M162,7V4.575V4.1c0-0.033,0-0.067,0-0.1
			c0.2,0.467,0.366,1.117,0.5,1.95c0.1,0.566,0.2,1.35,0.3,2.35c0.066,0.5,0.351,2.017,0.851,4.55
			c0.366,1.833,0.517,3.35,0.449,4.55c-0.033,0.7-0.316,1.717-0.85,3.05c-0.066,0.133-0.116,0.267-0.15,0.4c0-0.2,0-0.4,0-0.6
			c0-0.933-0.116-2.333-0.35-4.2c-0.267-1.867-0.4-3.283-0.4-4.25c0-0.833-0.083-2.083-0.25-3.75C162.066,7.683,162.033,7.333,162,7
			z M2.4,62c0.5,0.233,1.05,0.35,1.65,0.35h0.2c0.267,0.167,0.65,0.301,1.15,0.4c1.067,0.134,1.733,0.217,2,0.25
			c2.3,0.566,4.05,0.9,5.25,1c2.533,0.333,4.467,0.5,5.8,0.5c0.867-0.033,1.517-0.05,1.95-0.05c0.8-0.033,1.45-0.017,1.95,0.05
			c1.667,0.2,3.316,0.566,4.95,1.1c1,0.367,2.184,0.417,3.55,0.15c0.533-0.1,1.717-0.434,3.55-1c3.233-1,7.633-1.5,13.2-1.5
			C59.733,63.083,68.833,63,74.9,63c5.967-0.167,10.433-0.25,13.4-0.25c1.634,0,4.084,0.134,7.351,0.4
			c3.233,0.233,5.666,0.35,7.3,0.35c2.633,0,4.633-0.1,6-0.3c2.333-0.434,4.6-0.717,6.8-0.851h3.65
			c0.366,0.067,0.75,0.184,1.149,0.351c0.334,0.133,0.684,0.217,1.05,0.25c0.4,0,0.733,0.017,1,0.05c1.534,0.134,2.7,0.134,3.5,0
			c1.367-0.233,2.834-0.233,4.4,0s3,0.634,4.3,1.2c0.9,0.467,1.566,0.783,2,0.95c0.733,0.267,1.467,0.383,2.2,0.35
			c0.7-0.033,1.616-0.267,2.75-0.7c1.167-0.434,2.05-0.684,2.65-0.75c2.633-0.366,4.616-0.616,5.949-0.75
			c1.634-0.166,3.733-0.184,6.301-0.05c1.233,0.066,2.233,0.2,3,0.4c0.8,0.267,1.35,0.366,1.649,0.3
			c0.033-0.167,0.066-0.316,0.101-0.45c0.699-0.066,1.1-0.15,1.199-0.25c0.167-0.1,0.25-0.517,0.25-1.25c0-1.233,0.134-2.3,0.4-3.2
			c0.434-1.133,0.8-2.149,1.1-3.05c0.167-0.434,0.101-1.417-0.199-2.95c-0.267-1.434-0.284-2.366-0.051-2.8
			c0.2-0.333,0.184-0.9-0.05-1.7c-0.3-1.033-0.45-1.633-0.45-1.8c0-0.2,0.101-0.95,0.301-2.25c0.166-1,0.166-1.7,0-2.1
			c-0.267-0.767-0.367-1.801-0.301-3.101c0.067-1.6,0.067-2.633,0-3.1c-0.333-3.333-0.517-5.95-0.55-7.85
			c0-0.6,0.017-1.217,0.05-1.85c0.2,0.333,0.384,0.8,0.551,1.4c0.3,0.934,0.449,1.95,0.449,3.05c0,0.2-0.017,0.55-0.05,1.05
			c-0.033,0.433-0.017,0.767,0.05,1c0.134,0.333,0.4,0.617,0.801,0.85c0.466,0.3,0.75,0.517,0.85,0.65
			c0.233,0.333,0.417,0.767,0.55,1.3c0.134,0.834,0.316,2.05,0.55,3.65c0.067,0.366,0.2,1.649,0.4,3.85
			c0.134,1.601,0.417,2.816,0.85,3.65c0.067,0.133,0.217,0.35,0.45,0.649c0.134,0.134,0.233,0.4,0.3,0.801
			c0.167,1.233,0.084,2.35-0.25,3.35c-0.199,0.5-0.649,1.134-1.35,1.9c-0.733,0.767-1.184,1.383-1.35,1.85
			c-0.034,0.134-0.051,0.75-0.051,1.85c0,2.9,0.067,4.767,0.2,5.601c0.367,2.866,0.45,4.95,0.25,6.25c-1,0.1-1.916,0-2.75-0.3
			c-0.633-0.233-2.033-0.534-4.2-0.9c-0.3-0.033-0.966-0.2-2-0.5c-0.8-0.2-1.483-0.3-2.05-0.3c-0.467,0-1.05-0.101-1.75-0.3
			c-0.866-0.233-1.467-0.367-1.8-0.4c-0.866-0.1-1.9-0.017-3.1,0.25c-0.4,0.1-1.117,0.2-2.15,0.3c-0.934,0.101-1.667,0.25-2.2,0.45
			c-0.566,0.2-1.133,0.566-1.7,1.1c-0.8,0.733-1.316,1.184-1.55,1.351c-0.566,0.333-1.267,0.416-2.1,0.25
			c-0.5-0.134-1.2-0.367-2.101-0.7c-1.267-0.5-2.449-1.25-3.55-2.25c-0.666-0.533-1.066-0.85-1.2-0.95
			c-0.366-0.233-0.833-0.35-1.399-0.35c-0.9,0-2.15,0.116-3.75,0.35c-1.7,0.267-2.934,0.4-3.7,0.4c-0.733,0.033-1.467-0.233-2.2-0.8
			c-0.899-0.667-1.583-1.067-2.05-1.2c-0.1-0.033-0.684-0.05-1.75-0.05c-3.733,0.066-6.233,0.183-7.5,0.35
			c-1.467,0.134-2.566,0.267-3.3,0.4c-3.566,0.666-6.017,1.35-7.351,2.05c-0.333,0.2-0.8,0.467-1.399,0.8
			c-0.533,0.233-1.05,0.283-1.55,0.15c-0.5-0.101-1.25-0.334-2.25-0.7c-0.934-0.167-2.15-0.584-3.65-1.25
			c-1.7-0.767-2.917-1.25-3.65-1.45c-0.8-0.233-2-0.35-3.6-0.35c-1.833,0.033-4.567-0.117-8.2-0.45c-3.767-0.2-8.767-0.217-15-0.05
			c-7.7,0.199-12.7,0.283-15,0.25c-3.433,0-5.867,0.283-7.3,0.85c-0.6,0.233-1.667,1.033-3.2,2.4c-1.233,1.1-2.433,1.633-3.6,1.6
			c-1.567-0.066-3.917-0.9-7.05-2.5c-1.1-0.533-2.583-0.85-4.45-0.95c-1.034-0.066-2.567-0.133-4.6-0.2
			c-0.7-0.066-3.033-0.233-7-0.5C4.467,64.35,2.733,63.4,2.4,62z"/>
		<path style="fill-rule:evenodd;clip-rule:evenodd;fill:#8A8E71;" d="M157.3,0.85H4.4H4.05c-1.1,0-2.05,0.4-2.85,1.2
			C0.433,2.783,0.033,3.7,0,4.8V4.1C0,2.967,0.4,2,1.2,1.2C2,0.4,2.95,0,4.05,0H158c1.1,0,2.05,0.4,2.85,1.2
			c0.733,0.767,1.117,1.7,1.15,2.8c0,0.033,0,0.067,0,0.1v0.475c-0.01-0.345-0.06-0.654-0.15-0.925c-0.199-0.6-0.533-1.133-1-1.6
			c-0.8-0.8-1.75-1.2-2.85-1.2H157.3z"/>
		<path style="fill-rule:evenodd;clip-rule:evenodd;fill:#3A3932;" d="M119.4,62.35H158c0.3,0,0.6-0.033,0.9-0.1
			c0.166,0.134,0.316,0.233,0.449,0.3l0.051-0.399c0.533-0.233,1.017-0.567,1.449-1C161.616,60.35,162,59.4,162,58.3V7
			c0.033,0.333,0.066,0.683,0.1,1.05c0.167,1.667,0.25,2.917,0.25,3.75c0,0.967,0.134,2.383,0.4,4.25
			c0.233,1.867,0.35,3.267,0.35,4.2c0,0.2,0,0.4,0,0.6c0,1.8,0,3.6,0,5.4c-0.033,0.633-0.05,1.25-0.05,1.85
			c0.033,1.9,0.217,4.517,0.55,7.85c0.067,0.467,0.067,1.5,0,3.1c-0.066,1.3,0.034,2.334,0.301,3.101c0.166,0.399,0.166,1.1,0,2.1
			c-0.2,1.3-0.301,2.05-0.301,2.25c0,0.167,0.15,0.767,0.45,1.8c0.233,0.8,0.25,1.367,0.05,1.7c-0.233,0.434-0.216,1.366,0.051,2.8
			c0.3,1.533,0.366,2.517,0.199,2.95c-0.3,0.9-0.666,1.917-1.1,3.05c-0.267,0.9-0.4,1.967-0.4,3.2c0,0.733-0.083,1.15-0.25,1.25
			c-0.1,0.1-0.5,0.184-1.199,0.25c-0.034,0.134-0.067,0.283-0.101,0.45c-0.3,0.066-0.85-0.033-1.649-0.3
			c-0.767-0.2-1.767-0.334-3-0.4c-2.567-0.134-4.667-0.116-6.301,0.05c-1.333,0.134-3.316,0.384-5.949,0.75
			c-0.601,0.066-1.483,0.316-2.65,0.75c-1.134,0.434-2.05,0.667-2.75,0.7c-0.733,0.033-1.467-0.083-2.2-0.35
			c-0.434-0.167-1.1-0.483-2-0.95c-1.3-0.566-2.733-0.967-4.3-1.2s-3.033-0.233-4.4,0c-0.8,0.134-1.966,0.134-3.5,0
			c-0.267-0.033-0.6-0.05-1-0.05c-0.366-0.033-0.716-0.117-1.05-0.25C120.15,62.533,119.767,62.417,119.4,62.35z M4.25,62.35h111.5
			c-2.2,0.134-4.467,0.417-6.8,0.851c-1.367,0.2-3.367,0.3-6,0.3c-1.634,0-4.066-0.116-7.3-0.35c-3.267-0.267-5.717-0.4-7.351-0.4
			c-2.967,0-7.433,0.083-13.4,0.25c-6.066,0-15.167,0.083-27.3,0.25c-5.567,0-9.967,0.5-13.2,1.5c-1.833,0.566-3.017,0.9-3.55,1
			c-1.367,0.267-2.55,0.217-3.55-0.15c-1.633-0.533-3.283-0.899-4.95-1.1c-0.5-0.066-1.15-0.083-1.95-0.05
			c-0.433,0-1.083,0.017-1.95,0.05c-1.333,0-3.267-0.167-5.8-0.5c-1.2-0.1-2.95-0.434-5.25-1c-0.267-0.033-0.933-0.116-2-0.25
			C4.9,62.65,4.517,62.517,4.25,62.35z"/>
		
			<radialGradient id="SVGID_1_" cx="80.8501" cy="-2" r="81.2" gradientTransform="matrix(1 0 0 -1 0 -4)" gradientUnits="userSpaceOnUse">
			<stop  offset="0" style="stop-color:#3E4234"/>
			<stop  offset="1" style="stop-color:#1B1C16"/>
		</radialGradient>
		<path style="fill-rule:evenodd;clip-rule:evenodd;fill:url(#SVGID_1_);" d="M0.5,40V4.85C0.5,3.717,0.9,2.767,1.7,2
			c0.733-0.733,1.633-1.117,2.7-1.15h152.9c1.066,0.033,1.983,0.417,2.75,1.15c0.167,0.167,0.316,0.333,0.45,0.5
			c0.467,0.667,0.7,1.45,0.7,2.35v36.1c-1.066,2.666-2.434,4.983-4.101,6.95c-0.366,0.399-1.35,1.366-2.949,2.899
			c-0.5,0.533-1.184,1.283-2.051,2.25c-0.8,0.8-1.6,1.417-2.399,1.851c-0.834,0.466-1.417,0.699-1.75,0.699
			c-0.2,0-0.45-0.05-0.75-0.149c-0.267-0.101-0.533-0.117-0.8-0.05c-0.2,0.033-0.45,0.149-0.75,0.35
			c-0.334,0.2-0.584,0.316-0.75,0.35c-0.5,0.134-1.351,0.134-2.551,0c-0.6,0-1.433-0.1-2.5-0.3c-0.1,0-0.316,0.033-0.649,0.101
			c-0.267,0-0.467-0.034-0.601-0.101c-0.166-0.1-0.267-0.3-0.3-0.6c-0.066-0.3-0.133-0.5-0.2-0.601
			c-0.333-0.399-0.833-0.75-1.5-1.05c-0.3-0.233-0.55-0.616-0.75-1.149c-0.166-0.534-0.383-0.884-0.649-1.051
			c-0.2-0.133-0.667-0.183-1.4-0.149c-0.366,0.033-0.85,0.066-1.45,0.1c-0.633,0.066-1.3,0.3-2,0.7l-3.949,2.5
			c-1.4,0.833-2.983,1.316-4.75,1.45c-0.367,0.033-2.051,0-5.051-0.101c-2.133-0.066-3.55-0.216-4.25-0.449
			c-0.733-0.233-1.8-0.584-3.199-1.051c-1.233-0.366-2.483-0.866-3.75-1.5c-0.034-0.033-0.284-0.233-0.75-0.6
			c-0.367-0.333-0.617-0.483-0.75-0.45c-0.2,0-0.584,0.483-1.15,1.45c-0.366,0.467-0.95,0.884-1.75,1.25
			c-0.467,0.2-1.167,0.483-2.1,0.85c-0.867,0.367-2.584,0.767-5.15,1.2c-0.7,0.134-1.616,0.134-2.75,0c-1.5-0.133-2.434-0.2-2.8-0.2
			c-0.4,0-1.05-0.017-1.95-0.05c-0.733-0.033-1.35-0.184-1.85-0.45l-0.25-0.25c-0.333,0.067-0.667-0.017-1-0.25
			c-0.1,0.2-0.267,0.317-0.5,0.351c-0.267,0.033-0.433,0.083-0.5,0.149c-0.2,0.167-0.45,0.434-0.75,0.801
			c-0.267,0.166-0.75,0.283-1.45,0.35c-0.7,0.033-1.2,0.15-1.5,0.35c1.7-0.066,3.983,0,6.85,0.2c1.066,0.066,2.017,0.117,2.851,0.15
			c-0.067,0.066-0.134,0.1-0.2,0.1c-0.167,0-0.967-0.017-2.4-0.05c-1.033,0-1.816,0.083-2.35,0.25c-0.467,0.167-1.034,0.4-1.7,0.7
			c-0.6,0.233-1.217,0.333-1.85,0.3c-0.2,0-1-0.017-2.4-0.05c-1-0.033-1.8-0.101-2.4-0.2c-0.367-0.066-0.85-0.217-1.45-0.45
			c-0.6-0.133-1.533-0.149-2.8-0.05c-0.533-0.033-1.233-0.184-2.1-0.45c-1-0.333-1.683-0.533-2.05-0.6
			c-1.733-0.267-4.517-0.25-8.35,0.05c-0.6,0-1.633,0.05-3.1,0.15c-1.333,0.066-2.35-0.017-3.05-0.25c0.033-0.434,0.1-0.733,0.2-0.9
			c-1.066-0.1-2.066-0.083-3,0.05c-0.033,0.167,0.033,0.483,0.2,0.95c0.1,0.3-0.05,0.55-0.45,0.75c-0.4,0.233-1.066,0.25-2,0.05
			l-2-0.399l-2.7,0.1c-0.534-0.033-1.233-0.134-2.1-0.3c-0.467-0.066-1.2-0.05-2.2,0.05c-0.066,0-0.517-0.066-1.35-0.2
			c-0.566-0.066-1.033-0.066-1.4,0c-0.233,0.033-0.7,0.184-1.4,0.45c-0.5,0.167-0.967,0.25-1.4,0.25H26.1
			c-0.8,0-1.434-0.116-1.9-0.35c-0.167-0.101-0.383-0.25-0.65-0.45c-0.2-0.134-0.417-0.184-0.65-0.15
			c-0.167,0.033-0.583,0.334-1.25,0.9c-0.4,0.133-0.9,0.233-1.5,0.3c-0.667,0.066-1.933-0.083-3.8-0.45
			c-0.7-0.133-2.184-0.133-4.45,0c-1.867,0.101-3.267-0.083-4.2-0.55c-0.534-0.3-0.9-0.467-1.1-0.5c-0.033,0-0.283,0-0.75,0
			c-0.3,0-0.517-0.083-0.65-0.25c-0.133-0.134-0.167-0.483-0.1-1.05c-0.167-0.601-0.467-1.066-0.9-1.4
			c-0.2,1.2-0.767,1.917-1.7,2.15c-0.133-0.467-0.217-1.134-0.25-2c-0.033-0.967-0.083-1.634-0.15-2c-0.133,0.3-0.35,0.467-0.65,0.5
			C1.383,52.233,1.4,51.45,1.5,50.35c0.1-1.033,0.083-1.833-0.05-2.399c-0.2-1.101-0.3-2.15-0.3-3.15c0-0.5-0.05-1.434-0.15-2.8
			c-0.1-1.167-0.133-2.083-0.1-2.75L0.5,40z M121.75,19.75c0.767-0.667,1.15-1.767,1.15-3.3l0.05-6.25h-2l-0.05,0.85h-0.051
			c-0.399-0.7-1.066-1.05-2-1.05c-0.933,0-1.699,0.35-2.3,1.05c-0.666,0.733-1,1.684-1,2.85c0,1.067,0.283,1.917,0.851,2.55
			c0.566,0.667,1.316,1,2.25,1c0.866,0,1.517-0.317,1.949-0.95h0.051v0.45c0,1.3-0.634,1.95-1.9,1.95
			c-0.767,0-1.483-0.183-2.15-0.55l-0.449,1.75c0.666,0.367,1.55,0.55,2.649,0.55C120.066,20.65,121.05,20.35,121.75,19.75z
			 M126.8,12.05c0.267-0.367,0.617-0.55,1.05-0.55c0.867,0,1.301,0.5,1.301,1.5h-2.7C126.483,12.633,126.6,12.317,126.8,12.05z
			 M128,10c-1.2,0-2.134,0.417-2.8,1.25c-0.601,0.733-0.9,1.633-0.9,2.7c0,1.133,0.351,2.033,1.05,2.7c0.7,0.667,1.65,1,2.851,1
			c1.033,0,1.916-0.15,2.649-0.45l-0.3-1.55c-0.6,0.2-1.267,0.3-2,0.3c-1.3,0-1.983-0.467-2.05-1.4h4.7l0.1-0.9
			c0-1-0.25-1.833-0.75-2.5C129.95,10.383,129.1,10,128,10z M108.3,48.65c0.4,0.6,0.884,1.183,1.45,1.75
			c2.333,2.333,5.167,3.5,8.5,3.5c3.3,0,6.134-1.167,8.5-3.5c2.333-2.334,3.5-5.167,3.5-8.5c0-2.9-0.9-5.434-2.7-7.601
			c-0.366-0.466-0.767-0.917-1.2-1.35c-2.333-2.367-5.166-3.55-8.5-3.55c-3.3,0-6.116,1.184-8.449,3.55
			c-2.367,2.333-3.551,5.149-3.551,8.45C105.85,44.167,106.667,46.583,108.3,48.65z M134.875,45.1h10.575L142.4,48.4
			c-0.334,0.366-0.5,0.833-0.5,1.399c0,0.533,0.166,0.983,0.5,1.351l1.899,2.05c0.367,0.399,0.8,0.6,1.3,0.6c0.067,0,0.134,0,0.2,0
			s0.134,0,0.2,0c0.5,0,0.917-0.2,1.25-0.6L156.6,43.1c0.367-0.433,0.534-0.916,0.5-1.449c0.067-0.5-0.1-0.967-0.5-1.4l-9.35-10.15
			c-0.333-0.367-0.75-0.55-1.25-0.55c-0.066,0-0.134,0-0.2,0s-0.133,0-0.2,0c-0.5,0-0.933,0.184-1.3,0.55l-1.899,2.1
			c-0.334,0.367-0.5,0.833-0.5,1.4c0,0.533,0.166,0.983,0.5,1.35l3.05,3.3h-10.575H134.6c-0.5,0-0.916,0.184-1.25,0.55
			c-0.366,0.4-0.55,0.867-0.55,1.4v2.95c0,0.533,0.184,0.983,0.55,1.35c0.334,0.4,0.75,0.6,1.25,0.6H134.875z M95.75,11.5H95.7
			L95.6,10.2H93.65l0.05,7.3H96v-3.7l0.05-0.5c0.167-0.8,0.684-1.2,1.55-1.2l0.601,0.1v-2.15L97.7,10
			C96.733,10,96.083,10.5,95.75,11.5z M91.15,9.6L91.6,7.75c-0.733-0.3-1.666-0.45-2.8-0.45c-1.7,0-3.066,0.467-4.1,1.4
			c-1.1,0.933-1.65,2.233-1.65,3.9c0,1.566,0.467,2.783,1.4,3.65c0.967,0.9,2.333,1.35,4.1,1.35c1.233,0,2.367-0.184,3.4-0.55V11.7
			H88.2v1.8h1.55v2.15l-1.1,0.1c-0.967,0-1.733-0.283-2.301-0.85c-0.6-0.6-0.899-1.417-0.899-2.45c0-1.067,0.316-1.883,0.95-2.45
			C87,9.467,87.8,9.2,88.8,9.2C89.767,9.2,90.55,9.333,91.15,9.6z M103.15,14.05v0.8l-0.051,0.4c-0.166,0.533-0.566,0.8-1.199,0.8
			c-0.601,0-0.9-0.283-0.9-0.85C101,14.433,101.717,14.05,103.15,14.05z M103.4,17.5h2.05c-0.066-0.267-0.101-0.85-0.101-1.75V13.2
			c0-2.133-1.066-3.2-3.199-3.2c-1.167,0-2.117,0.217-2.851,0.65l0.4,1.45c0.733-0.367,1.416-0.55,2.05-0.55
			c0.866,0,1.3,0.333,1.3,1v0.05c-2.866,0-4.3,0.95-4.3,2.85c0,0.6,0.217,1.117,0.65,1.55c0.433,0.467,1.017,0.7,1.75,0.7
			c0.866,0,1.566-0.317,2.1-0.95L103.4,17.5z M109.1,10.2h-2l0.051,7.3h2.3v-4.2l0.05-0.6c0.3-0.567,0.7-0.85,1.2-0.85
			c0.767,0,1.149,0.533,1.149,1.6v4.05h2.25v-4.3c0-2.133-0.866-3.2-2.6-3.2c-1.033,0-1.783,0.4-2.25,1.2h-0.05L109.1,10.2z
			 M118.3,12.3c0.267-0.367,0.617-0.55,1.05-0.55c0.634,0,1.034,0.333,1.2,1l0.05,0.4l-0.05,1.7c-0.166,0.6-0.583,0.9-1.25,0.9
			c-0.434,0-0.783-0.183-1.05-0.55s-0.4-0.833-0.4-1.4C117.85,13.167,118,12.667,118.3,12.3z M81.1,48.85
			c0.4,0.534,0.85,1.051,1.35,1.551c2.333,2.333,5.149,3.5,8.45,3.5c3.333,0,6.166-1.167,8.5-3.5c2.333-2.334,3.5-5.167,3.5-8.5
			c0-2.634-0.75-4.967-2.25-7c-0.434-0.667-0.967-1.316-1.601-1.95c-2.366-2.367-5.2-3.55-8.5-3.55c-3.333,0-6.166,1.184-8.5,3.55
			c-2.333,2.333-3.5,5.149-3.5,8.45C78.55,44.233,79.4,46.717,81.1,48.85z M113.1,57.95c-0.666,0.2-1.8,0.3-3.399,0.3H93.4
			c-0.334,0-0.917,0.033-1.75,0.1c-0.733,0.034-1.301,0-1.7-0.1c-0.134-0.033-0.351-0.15-0.65-0.35c-0.1-0.067-0.166-0.117-0.2-0.15
			c1.334,0.066,2.351,0.1,3.051,0.1c4.233-0.166,7.416-0.25,9.55-0.25h11.649C113.25,57.7,113.167,57.816,113.1,57.95z
			 M116.05,57.85c-0.033-0.1-0.066-0.183-0.1-0.25h8.25c5.033,0.167,8.783,0.25,11.25,0.25c0.3,0,2.666,0.034,7.1,0.101
			c2.9,0.033,5.267-0.033,7.101-0.2c1.066-0.167,1.883-0.233,2.449-0.2c0.267,0.033,0.934,0.434,2,1.2c-0.3,0.033-0.633,0.05-1,0.05
			c-0.533-0.033-1.267-0.066-2.199-0.1c-0.634,0.066-1.517,0.233-2.65,0.5c-1.2,0.3-2.1,0.483-2.7,0.55
			c-0.934,0.134-2.166,0.167-3.7,0.1c-0.833,0-2.066-0.033-3.699-0.1c-0.567,0-2.267-0.167-5.101-0.5
			c-0.366-0.066-0.616-0.083-0.75-0.05l-0.649,0.25c-0.567,0.1-1.233,0.116-2,0.05c-0.634-0.033-1.284-0.283-1.95-0.75
			c-1.101-0.434-2.767-0.5-5-0.2c-1.033,0.134-2.617,0.2-4.75,0.2c-0.167,0-0.45,0.017-0.851,0.05
			c-0.333-0.033-0.583-0.116-0.75-0.25C116.25,58.45,116.15,58.217,116.05,57.85z M114.25,57.6h0.85
			c-0.066,0.067-0.133,0.101-0.199,0.101C114.767,57.7,114.55,57.667,114.25,57.6z M42.6,12.55v0.05c-2.867,0-4.3,0.95-4.3,2.85
			c0,0.6,0.2,1.117,0.6,1.55c0.467,0.467,1.05,0.7,1.75,0.7c0.867,0,1.567-0.317,2.1-0.95h0.05l0.15,0.75H45
			c-0.1-0.4-0.15-0.983-0.15-1.75V13.2c0-2.133-1.067-3.2-3.2-3.2c-1.167,0-2.117,0.217-2.85,0.65l0.45,1.45
			c0.667-0.367,1.333-0.55,2-0.55C42.15,11.55,42.6,11.883,42.6,12.55z M40.55,15.2c0-0.767,0.7-1.15,2.1-1.15v0.8l-0.05,0.4
			c-0.167,0.533-0.55,0.8-1.15,0.8C40.85,16.05,40.55,15.767,40.55,15.2z M54.65,10.2H52.4v7.3h2.25V10.2z M51.2,10.05L50.7,10
			c-0.967,0-1.633,0.5-2,1.5h-0.05l-0.1-1.3H46.6l0.1,7.3h2.25v-3.7L49,13.3c0.167-0.8,0.683-1.2,1.55-1.2l0.65,0.1V10.05z
			 M53.5,9.25c0.367,0,0.667-0.1,0.9-0.3c0.233-0.233,0.35-0.5,0.35-0.8C54.683,7.383,54.283,7,53.55,7
			c-0.367,0-0.667,0.117-0.9,0.35c-0.233,0.2-0.35,0.467-0.35,0.8c0,0.3,0.117,0.567,0.35,0.8C52.883,9.15,53.167,9.25,53.5,9.25z
			 M61.05,12.35c0.233,0.4,0.35,0.883,0.35,1.45c0,1.5-0.5,2.25-1.5,2.25c-0.967,0-1.45-0.733-1.45-2.2s0.483-2.2,1.45-2.2
			C60.4,11.65,60.783,11.883,61.05,12.35z M62.55,16.75c0.8-0.733,1.2-1.733,1.2-3c0-1.1-0.35-2-1.05-2.7
			C62.033,10.35,61.133,10,60,10c-1.2,0-2.15,0.35-2.85,1.05c-0.733,0.7-1.1,1.65-1.1,2.85c0,1.167,0.367,2.1,1.1,2.8
			c0.7,0.667,1.6,1,2.7,1S61.85,17.383,62.55,16.75z M67.4,10.2h-2.3v4.3c0,2.133,0.867,3.2,2.6,3.2c1.033,0,1.8-0.417,2.3-1.25
			h0.05l0.1,1.05h1.95l-0.05-7.3H69.8v4.35l-0.1,0.5c-0.233,0.534-0.617,0.8-1.15,0.8c-0.767,0-1.15-0.583-1.15-1.75V10.2z
			 M78.7,10.45c-0.534-0.3-1.217-0.45-2.05-0.45c-0.9,0-1.633,0.233-2.2,0.7c-0.534,0.433-0.8,1-0.8,1.7c0,1,0.7,1.733,2.1,2.2
			c0.7,0.233,1.05,0.517,1.05,0.85c0,0.4-0.316,0.6-0.95,0.6c-0.767,0-1.417-0.167-1.95-0.5l-0.45,1.6
			c0.667,0.367,1.466,0.55,2.4,0.55c1,0,1.783-0.233,2.35-0.7c0.533-0.433,0.8-1,0.8-1.7c0-1.066-0.667-1.833-2-2.3
			c-0.767-0.267-1.15-0.55-1.15-0.85c0-0.367,0.283-0.55,0.85-0.55c0.433,0,0.966,0.133,1.6,0.4L78.7,10.45z M53.85,48.85
			c0.4,0.534,0.85,1.051,1.35,1.551c2.333,2.333,5.15,3.5,8.45,3.5c3.333,0,6.167-1.167,8.5-3.5c2.333-2.334,3.5-5.167,3.5-8.5
			c0-2.634-0.75-4.967-2.25-7c-0.433-0.667-0.967-1.316-1.6-1.95c-2.367-2.367-5.2-3.55-8.5-3.55c-3.333,0-6.167,1.184-8.5,3.55
			c-2.333,2.333-3.5,5.149-3.5,8.45C51.3,44.233,52.15,46.717,53.85,48.85z M13.9,9.6l0.5-1.85c-0.733-0.3-1.667-0.45-2.8-0.45
			c-1.7,0-3.067,0.467-4.1,1.4c-1.1,0.933-1.667,2.233-1.7,3.9c0,1.533,0.483,2.75,1.45,3.65s2.333,1.35,4.1,1.35
			c1.233,0,2.367-0.184,3.4-0.55V11.7h-3.8v1.8h1.6v2.15l-1.15,0.1c-0.933,0-1.7-0.283-2.3-0.85c-0.6-0.6-0.9-1.417-0.9-2.45
			c0-1.067,0.333-1.883,1-2.45c0.6-0.533,1.4-0.8,2.4-0.8C12.533,9.2,13.3,9.333,13.9,9.6z M24.15,12.05
			c0.267-0.367,0.617-0.55,1.05-0.55c0.867,0,1.3,0.5,1.3,1.5h-2.7C23.833,12.633,23.95,12.317,24.15,12.05z M27.85,11.15
			c-0.567-0.767-1.4-1.15-2.5-1.15c-1.2,0-2.133,0.417-2.8,1.25c-0.6,0.733-0.9,1.633-0.9,2.7c0,1.133,0.333,2.033,1,2.7
			c0.7,0.667,1.667,1,2.9,1c1.034,0,1.917-0.15,2.65-0.45l-0.3-1.55c-0.6,0.2-1.267,0.3-2,0.3c-1.3,0-2-0.467-2.1-1.4h4.75l0.05-0.9
			C28.6,12.65,28.35,11.817,27.85,11.15z M21,10.05L20.5,10c-0.967,0-1.617,0.5-1.95,1.5h-0.1l-0.05-1.3h-1.95l0.05,7.3h2.25v-3.7
			l0.05-0.5c0.167-0.8,0.684-1.2,1.55-1.2L21,12.2V10.05z M32.35,12.3c0.267-0.367,0.617-0.55,1.05-0.55c0.633,0,1.033,0.333,1.2,1
			l0.05,0.4l-0.05,1.7c-0.167,0.6-0.583,0.9-1.25,0.9c-0.967,0-1.45-0.65-1.45-1.95C31.9,13.167,32.05,12.667,32.35,12.3z M32.9,10
			c-0.933,0-1.717,0.35-2.35,1.05c-0.667,0.733-1,1.684-1,2.85c0,1.033,0.3,1.883,0.9,2.55c0.566,0.667,1.3,1,2.2,1
			c0.867,0,1.533-0.317,2-0.95h0.05v0.45c0,1.3-0.633,1.95-1.9,1.95c-0.767,0-1.483-0.183-2.15-0.55L30.2,20.1
			c0.667,0.367,1.55,0.55,2.65,0.55c1.267,0,2.25-0.3,2.95-0.9c0.767-0.667,1.15-1.767,1.15-3.3L37,10.2h-2l-0.05,0.85H34.9
			C34.5,10.35,33.833,10,32.9,10z"/>
		<path style="fill-rule:evenodd;clip-rule:evenodd;fill:#FFFFFF;" d="M128,10c1.1,0,1.95,0.383,2.55,1.15
			c0.5,0.667,0.75,1.5,0.75,2.5l-0.1,0.9h-4.7c0.066,0.934,0.75,1.4,2.05,1.4c0.733,0,1.4-0.1,2-0.3l0.3,1.55
			c-0.733,0.3-1.616,0.45-2.649,0.45c-1.2,0-2.15-0.333-2.851-1c-0.699-0.667-1.05-1.566-1.05-2.7c0-1.067,0.3-1.967,0.9-2.7
			C125.866,10.417,126.8,10,128,10z M126.8,12.05c-0.2,0.267-0.316,0.583-0.35,0.95h2.7c0-1-0.434-1.5-1.301-1.5
			C127.417,11.5,127.066,11.683,126.8,12.05z M121.75,19.75c-0.7,0.6-1.684,0.9-2.95,0.9c-1.1,0-1.983-0.183-2.649-0.55l0.449-1.75
			c0.667,0.367,1.384,0.55,2.15,0.55c1.267,0,1.9-0.65,1.9-1.95V16.5H120.6c-0.433,0.633-1.083,0.95-1.949,0.95
			c-0.934,0-1.684-0.333-2.25-1c-0.567-0.633-0.851-1.483-0.851-2.55c0-1.167,0.334-2.117,1-2.85c0.601-0.7,1.367-1.05,2.3-1.05
			c0.934,0,1.601,0.35,2,1.05h0.051l0.05-0.85h2l-0.05,6.25C122.9,17.983,122.517,19.083,121.75,19.75z M118.3,12.3
			c-0.3,0.367-0.45,0.867-0.45,1.5c0,0.567,0.134,1.034,0.4,1.4s0.616,0.55,1.05,0.55c0.667,0,1.084-0.3,1.25-0.9l0.05-1.7
			l-0.05-0.4c-0.166-0.667-0.566-1-1.2-1C118.917,11.75,118.566,11.933,118.3,12.3z M109.1,10.2l0.101,1h0.05
			c0.467-0.8,1.217-1.2,2.25-1.2c1.733,0,2.6,1.067,2.6,3.2v4.3h-2.25v-4.05c0-1.067-0.383-1.6-1.149-1.6c-0.5,0-0.9,0.283-1.2,0.85
			l-0.05,0.6v4.2h-2.3l-0.051-7.3H109.1z M103.4,17.5l-0.15-0.75c-0.533,0.633-1.233,0.95-2.1,0.95c-0.733,0-1.317-0.233-1.75-0.7
			c-0.434-0.433-0.65-0.95-0.65-1.55c0-1.9,1.434-2.85,4.3-2.85v-0.05c0-0.667-0.434-1-1.3-1c-0.634,0-1.316,0.184-2.05,0.55
			l-0.4-1.45c0.733-0.433,1.684-0.65,2.851-0.65c2.133,0,3.199,1.067,3.199,3.2v2.55c0,0.9,0.034,1.483,0.101,1.75H103.4z
			 M103.15,14.05c-1.434,0-2.15,0.383-2.15,1.15c0,0.566,0.3,0.85,0.9,0.85c0.633,0,1.033-0.267,1.199-0.8l0.051-0.4V14.05z
			 M91.15,9.6C90.55,9.333,89.767,9.2,88.8,9.2c-1,0-1.8,0.267-2.399,0.8c-0.634,0.567-0.95,1.383-0.95,2.45
			c0,1.033,0.3,1.85,0.899,2.45c0.567,0.567,1.334,0.85,2.301,0.85l1.1-0.1V13.5H88.2v-1.8h3.75v5.35
			c-1.033,0.367-2.167,0.55-3.4,0.55c-1.767,0-3.133-0.45-4.1-1.35c-0.934-0.867-1.4-2.083-1.4-3.65c0-1.667,0.55-2.967,1.65-3.9
			c1.033-0.934,2.399-1.4,4.1-1.4c1.134,0,2.066,0.15,2.8,0.45L91.15,9.6z M95.75,11.5c0.333-1,0.983-1.5,1.95-1.5l0.5,0.05v2.15
			L97.6,12.1c-0.866,0-1.383,0.4-1.55,1.2L96,13.8v3.7h-2.3l-0.05-7.3H95.6l0.101,1.3H95.75z M78.7,10.45L78.3,12
			c-0.633-0.267-1.167-0.4-1.6-0.4c-0.567,0-0.85,0.183-0.85,0.55c0,0.3,0.383,0.583,1.15,0.85c1.333,0.467,2,1.233,2,2.3
			c0,0.7-0.267,1.267-0.8,1.7c-0.567,0.467-1.35,0.7-2.35,0.7c-0.934,0-1.733-0.184-2.4-0.55l0.45-1.6
			c0.533,0.333,1.184,0.5,1.95,0.5c0.633,0,0.95-0.2,0.95-0.6c0-0.333-0.35-0.617-1.05-0.85c-1.4-0.467-2.1-1.2-2.1-2.2
			c0-0.7,0.267-1.267,0.8-1.7c0.566-0.467,1.3-0.7,2.2-0.7C77.483,10,78.167,10.15,78.7,10.45z M67.4,10.2v3.9
			c0,1.167,0.383,1.75,1.15,1.75c0.534,0,0.917-0.267,1.15-0.8l0.1-0.5V10.2h2.25l0.05,7.3h-1.95l-0.1-1.05H70
			c-0.5,0.833-1.267,1.25-2.3,1.25c-1.733,0-2.6-1.067-2.6-3.2v-4.3H67.4z M62.55,16.75c-0.7,0.633-1.6,0.95-2.7,0.95
			s-2-0.333-2.7-1c-0.733-0.7-1.1-1.633-1.1-2.8c0-1.2,0.367-2.15,1.1-2.85C57.85,10.35,58.8,10,60,10c1.133,0,2.033,0.35,2.7,1.05
			c0.7,0.7,1.05,1.6,1.05,2.7C63.75,15.017,63.35,16.017,62.55,16.75z M61.05,12.35c-0.267-0.467-0.65-0.7-1.15-0.7
			c-0.967,0-1.45,0.733-1.45,2.2s0.483,2.2,1.45,2.2c1,0,1.5-0.75,1.5-2.25C61.4,13.233,61.283,12.75,61.05,12.35z M53.5,9.25
			c-0.333,0-0.617-0.1-0.85-0.3c-0.233-0.233-0.35-0.5-0.35-0.8c0-0.333,0.117-0.6,0.35-0.8C52.883,7.117,53.183,7,53.55,7
			c0.733,0,1.133,0.383,1.2,1.15c0,0.3-0.117,0.567-0.35,0.8C54.167,9.15,53.867,9.25,53.5,9.25z M51.2,10.05v2.15l-0.65-0.1
			c-0.867,0-1.383,0.4-1.55,1.2l-0.05,0.5v3.7H46.7l-0.1-7.3h1.95l0.1,1.3h0.05c0.367-1,1.033-1.5,2-1.5L51.2,10.05z M54.65,10.2
			v7.3H52.4v-7.3H54.65z M40.55,15.2c0,0.566,0.3,0.85,0.9,0.85c0.6,0,0.983-0.267,1.15-0.8l0.05-0.4v-0.8
			C41.25,14.05,40.55,14.433,40.55,15.2z M42.6,12.55c0-0.667-0.45-1-1.35-1c-0.667,0-1.333,0.184-2,0.55l-0.45-1.45
			c0.733-0.433,1.684-0.65,2.85-0.65c2.133,0,3.2,1.067,3.2,3.2v2.55c0,0.767,0.05,1.35,0.15,1.75h-2.05l-0.15-0.75h-0.05
			c-0.533,0.633-1.233,0.95-2.1,0.95c-0.7,0-1.283-0.233-1.75-0.7c-0.4-0.433-0.6-0.95-0.6-1.55c0-1.9,1.434-2.85,4.3-2.85V12.55z
			 M32.9,10c0.934,0,1.6,0.35,2,1.05h0.05L35,10.2h2l-0.05,6.25c0,1.533-0.383,2.633-1.15,3.3c-0.7,0.6-1.683,0.9-2.95,0.9
			c-1.1,0-1.983-0.183-2.65-0.55l0.45-1.75c0.667,0.367,1.383,0.55,2.15,0.55c1.267,0,1.9-0.65,1.9-1.95V16.5h-0.05
			c-0.467,0.633-1.133,0.95-2,0.95c-0.9,0-1.633-0.333-2.2-1c-0.6-0.667-0.9-1.517-0.9-2.55c0-1.167,0.333-2.117,1-2.85
			C31.183,10.35,31.967,10,32.9,10z M32.35,12.3c-0.3,0.367-0.45,0.867-0.45,1.5c0,1.3,0.483,1.95,1.45,1.95
			c0.667,0,1.083-0.3,1.25-0.9l0.05-1.7l-0.05-0.4c-0.167-0.667-0.567-1-1.2-1C32.967,11.75,32.617,11.933,32.35,12.3z M21,10.05
			v2.15l-0.65-0.1c-0.867,0-1.383,0.4-1.55,1.2l-0.05,0.5v3.7H16.5l-0.05-7.3h1.95l0.05,1.3h0.1c0.333-1,0.983-1.5,1.95-1.5
			L21,10.05z M27.85,11.15c0.5,0.667,0.75,1.5,0.75,2.5l-0.05,0.9H23.8c0.1,0.934,0.8,1.4,2.1,1.4c0.733,0,1.4-0.1,2-0.3l0.3,1.55
			c-0.733,0.3-1.617,0.45-2.65,0.45c-1.233,0-2.2-0.333-2.9-1c-0.667-0.667-1-1.566-1-2.7c0-1.067,0.3-1.967,0.9-2.7
			c0.667-0.833,1.6-1.25,2.8-1.25C26.45,10,27.283,10.383,27.85,11.15z M24.15,12.05c-0.2,0.267-0.316,0.583-0.35,0.95h2.7
			c0-1-0.433-1.5-1.3-1.5C24.767,11.5,24.417,11.683,24.15,12.05z M13.9,9.6c-0.6-0.267-1.367-0.4-2.3-0.4c-1,0-1.8,0.267-2.4,0.8
			c-0.667,0.567-1,1.383-1,2.45c0,1.033,0.3,1.85,0.9,2.45c0.6,0.567,1.367,0.85,2.3,0.85l1.15-0.1V13.5h-1.6v-1.8h3.8v5.35
			c-1.033,0.367-2.167,0.55-3.4,0.55c-1.767,0-3.133-0.45-4.1-1.35S5.8,14.133,5.8,12.6c0.034-1.667,0.6-2.967,1.7-3.9
			c1.033-0.934,2.4-1.4,4.1-1.4c1.133,0,2.066,0.15,2.8,0.45L13.9,9.6z"/>
		<path style="fill-rule:evenodd;clip-rule:evenodd;fill:#58763E;" d="M108.3,48.65c-1.366-1.967-2.05-4.217-2.05-6.75
			c0-3.301,1.167-6.117,3.5-8.45c2.333-2.367,5.167-3.55,8.5-3.55c3.3,0,6.134,1.184,8.5,3.55c0.267,0.267,0.533,0.55,0.8,0.85
			c1.8,2.167,2.7,4.7,2.7,7.601c0,3.333-1.167,6.166-3.5,8.5c-2.366,2.333-5.2,3.5-8.5,3.5c-3.333,0-6.167-1.167-8.5-3.5
			C109.184,49.833,108.7,49.25,108.3,48.65z M126.05,37.85V34.95H111.2v2.899h5.2v12.5h4.399v-12.5H126.05z"/>
		<path style="fill-rule:evenodd;clip-rule:evenodd;fill:#F1EFCD;" d="M145.45,45.1h-10.575c-0.459-0.011-0.851-0.21-1.175-0.6
			c-0.367-0.366-0.55-0.816-0.55-1.35V40.2c0-0.533,0.183-1,0.55-1.4c0.324-0.356,0.716-0.54,1.175-0.55h10.575h0.399l-3.05-3.3
			c-0.333-0.367-0.5-0.817-0.5-1.35c0-0.567,0.167-1.033,0.5-1.4l1.9-2.1c0.333-0.333,0.7-0.517,1.1-0.55c0.066,0,0.134,0,0.2,0
			c0.5,0,0.917,0.184,1.25,0.55l9.35,10.15c0.4,0.434,0.567,0.9,0.5,1.4c0.034,0.533-0.133,1.017-0.5,1.449L147.25,53.2
			c-0.333,0.399-0.75,0.6-1.25,0.6c-0.066,0-0.134,0-0.2,0c-0.399-0.066-0.767-0.267-1.1-0.6l-1.9-2.05
			c-0.333-0.367-0.5-0.817-0.5-1.351c0-0.566,0.167-1.033,0.5-1.399l3.05-3.301H145.45z M126.05,37.85h-5.25v12.5H116.4v-12.5h-5.2
			V34.95h14.85V37.85z M87.05,40.75c-0.2,0.2-0.3,0.417-0.3,0.65s0.1,0.449,0.3,0.649c0.167,0.167,0.384,0.25,0.65,0.25
			s0.5-0.083,0.7-0.25c0.199-0.166,0.3-0.383,0.3-0.649s-0.101-0.483-0.3-0.65c-0.2-0.2-0.434-0.3-0.7-0.3
			C87.467,40.45,87.25,40.55,87.05,40.75z M90.5,34.85h-3.25c-0.5,0-0.75,0.233-0.75,0.7v2.601c0,0.199,0.083,0.383,0.25,0.55
			c0.134,0.133,0.3,0.2,0.5,0.2h3.25V34.85z M95.3,35.55c0-0.466-0.25-0.7-0.75-0.7H91.3v4.05h3.25c0.5,0,0.75-0.25,0.75-0.75V35.55
			z M95.05,33.65c0.367,0,0.684,0.117,0.95,0.35c0.267,0.267,0.4,0.583,0.4,0.95v9.35c0,0.367-0.134,0.684-0.4,0.95
			c-0.267,0.233-0.583,0.35-0.95,0.35h-8.3c-0.366,0-0.684-0.116-0.95-0.35c-0.267-0.267-0.399-0.583-0.399-0.95v-9.35
			c0-0.367,0.133-0.684,0.399-0.95c0.267-0.233,0.584-0.35,0.95-0.35H95.05z M86.35,48.35h9.2l-0.649-0.6H87L86.35,48.35z M88,46.65
			h5.9c-0.034-0.101,0-0.217,0.1-0.351c0.3-0.2,0.55-0.2,0.75,0l3.4,3.05c0.233,0.233,0.233,0.467,0,0.7s-0.467,0.25-0.7,0.05
			l-0.7-0.649c-0.066,0-0.116,0-0.15,0H85.15L84.4,50.1c-0.301,0.167-0.55,0.15-0.75-0.05c-0.2-0.2-0.183-0.434,0.05-0.7L87.1,46.3
			c0.2-0.2,0.434-0.2,0.7,0C87.934,46.434,88,46.55,88,46.65z M93.15,41.4c0,0.6,0.316,0.899,0.949,0.899
			c0.634,0,0.95-0.3,0.95-0.899c0-0.267-0.083-0.483-0.25-0.65c-0.2-0.2-0.434-0.3-0.7-0.3s-0.5,0.1-0.699,0.3
			C93.233,40.917,93.15,41.134,93.15,41.4z M59.75,47.75l-0.65,0.6h9.2l-0.65-0.6H59.75z M56.45,49.35l3.4-3.05
			c0.2-0.2,0.433-0.2,0.7,0c0.133,0.134,0.2,0.25,0.2,0.351h5.9c-0.033-0.101,0-0.217,0.1-0.351c0.3-0.2,0.55-0.2,0.75,0l3.4,3.05
			c0.233,0.233,0.233,0.467,0,0.7s-0.467,0.25-0.7,0.05l-0.7-0.649c-0.067,0-0.117,0-0.15,0H57.9L57.15,50.1
			c-0.3,0.167-0.55,0.15-0.75-0.05C56.2,49.85,56.217,49.616,56.45,49.35z M59.8,40.75c-0.2,0.2-0.3,0.417-0.3,0.65
			s0.1,0.449,0.3,0.649c0.167,0.167,0.383,0.25,0.65,0.25c0.267,0,0.5-0.083,0.7-0.25c0.2-0.166,0.3-0.383,0.3-0.649
			s-0.1-0.483-0.3-0.65c-0.2-0.2-0.433-0.3-0.7-0.3C60.217,40.45,60,40.55,59.8,40.75z M60,34.85c-0.5,0-0.75,0.233-0.75,0.7v2.601
			c0,0.199,0.083,0.383,0.25,0.55c0.133,0.133,0.3,0.2,0.5,0.2h3.25v-4.05H60z M58.55,34c0.267-0.233,0.583-0.35,0.95-0.35h8.3
			c0.367,0,0.684,0.117,0.95,0.35c0.267,0.267,0.4,0.583,0.4,0.95v9.35c0,0.367-0.133,0.684-0.4,0.95
			c-0.267,0.233-0.583,0.35-0.95,0.35h-8.3c-0.367,0-0.683-0.116-0.95-0.35c-0.267-0.267-0.4-0.583-0.4-0.95v-9.35
			C58.15,34.583,58.283,34.267,58.55,34z M66.85,40.45c-0.267,0-0.5,0.1-0.7,0.3c-0.167,0.167-0.25,0.384-0.25,0.65
			c0,0.6,0.317,0.899,0.95,0.899S67.8,42,67.8,41.4c0-0.267-0.083-0.483-0.25-0.65C67.35,40.55,67.117,40.45,66.85,40.45z
			 M67.3,34.85h-3.25v4.05h3.25c0.5,0,0.75-0.25,0.75-0.75V35.55C68.05,35.083,67.8,34.85,67.3,34.85z"/>
		<path style="fill-rule:evenodd;clip-rule:evenodd;fill:#131410;" d="M159.4,62.15l-0.051,0.399
			c-0.133-0.066-0.283-0.166-0.449-0.3c-0.334-0.233-0.75-0.517-1.25-0.85c-0.167,0-0.317,0-0.45,0H4.5c-0.067,0-0.133,0-0.2,0
			L3.55,61.3c-0.466-0.1-0.9-0.283-1.3-0.55l-0.55-0.5c-0.8-0.8-1.2-1.75-1.2-2.85V40l0.4-0.75C0.867,39.917,0.9,40.833,1,42
			c0.1,1.366,0.15,2.3,0.15,2.8c0,1,0.1,2.05,0.3,3.15c0.133,0.566,0.15,1.366,0.05,2.399C1.4,51.45,1.383,52.233,1.45,52.7
			c0.3-0.033,0.517-0.2,0.65-0.5c0.066,0.366,0.117,1.033,0.15,2c0.033,0.866,0.117,1.533,0.25,2c0.933-0.233,1.5-0.95,1.7-2.15
			c0.433,0.334,0.733,0.8,0.9,1.4c-0.067,0.566-0.033,0.916,0.1,1.05c0.133,0.167,0.35,0.25,0.65,0.25c0.467,0,0.717,0,0.75,0
			c0.2,0.033,0.566,0.2,1.1,0.5c0.933,0.467,2.333,0.65,4.2,0.55c2.267-0.133,3.75-0.133,4.45,0c1.867,0.367,3.133,0.517,3.8,0.45
			c0.6-0.066,1.1-0.167,1.5-0.3c0.667-0.566,1.083-0.867,1.25-0.9c0.233-0.033,0.45,0.017,0.65,0.15c0.267,0.2,0.483,0.35,0.65,0.45
			c0.466,0.233,1.1,0.35,1.9,0.35h6.25c0.433,0,0.9-0.083,1.4-0.25c0.7-0.267,1.167-0.417,1.4-0.45c0.367-0.066,0.833-0.066,1.4,0
			c0.833,0.134,1.284,0.2,1.35,0.2c1-0.1,1.733-0.116,2.2-0.05c0.867,0.166,1.566,0.267,2.1,0.3l2.7-0.1l2,0.399
			c0.934,0.2,1.6,0.184,2-0.05c0.4-0.2,0.55-0.45,0.45-0.75c-0.167-0.467-0.233-0.783-0.2-0.95c0.934-0.133,1.934-0.149,3-0.05
			c-0.1,0.167-0.167,0.467-0.2,0.9c0.7,0.233,1.716,0.316,3.05,0.25c1.467-0.101,2.5-0.15,3.1-0.15c3.833-0.3,6.617-0.316,8.35-0.05
			c0.367,0.066,1.05,0.267,2.05,0.6c0.867,0.267,1.567,0.417,2.1,0.45c1.267-0.1,2.2-0.083,2.8,0.05
			c0.6,0.233,1.083,0.384,1.45,0.45c0.6,0.1,1.4,0.167,2.4,0.2c1.4,0.033,2.2,0.05,2.4,0.05c0.633,0.033,1.25-0.066,1.85-0.3
			c0.667-0.3,1.233-0.533,1.7-0.7c0.533-0.167,1.316-0.25,2.35-0.25c1.434,0.033,2.233,0.05,2.4,0.05c0.066,0,0.133-0.033,0.2-0.1
			c-0.834-0.033-1.784-0.084-2.851-0.15c-2.867-0.2-5.15-0.267-6.85-0.2c0.3-0.199,0.8-0.316,1.5-0.35
			c0.7-0.066,1.183-0.184,1.45-0.35c0.3-0.367,0.55-0.634,0.75-0.801c0.067-0.066,0.233-0.116,0.5-0.149
			c0.233-0.033,0.4-0.15,0.5-0.351c0.333,0.233,0.667,0.317,1,0.25l0.25,0.25c0.5,0.267,1.116,0.417,1.85,0.45
			c0.9,0.033,1.55,0.05,1.95,0.05c0.366,0,1.3,0.067,2.8,0.2c1.134,0.134,2.05,0.134,2.75,0c2.566-0.434,4.283-0.833,5.15-1.2
			c0.933-0.366,1.633-0.649,2.1-0.85c0.8-0.366,1.384-0.783,1.75-1.25c0.566-0.967,0.95-1.45,1.15-1.45
			c0.133-0.033,0.383,0.117,0.75,0.45c0.466,0.366,0.716,0.566,0.75,0.6c1.267,0.634,2.517,1.134,3.75,1.5
			c1.399,0.467,2.466,0.817,3.199,1.051c0.7,0.233,2.117,0.383,4.25,0.449c3,0.101,4.684,0.134,5.051,0.101
			c1.767-0.134,3.35-0.617,4.75-1.45l3.949-2.5c0.7-0.4,1.367-0.634,2-0.7c0.601-0.033,1.084-0.066,1.45-0.1
			c0.733-0.033,1.2,0.017,1.4,0.149c0.267,0.167,0.483,0.517,0.649,1.051c0.2,0.533,0.45,0.916,0.75,1.149
			c0.667,0.3,1.167,0.65,1.5,1.05c0.067,0.101,0.134,0.301,0.2,0.601c0.033,0.3,0.134,0.5,0.3,0.6
			c0.134,0.066,0.334,0.101,0.601,0.101c0.333-0.067,0.55-0.101,0.649-0.101c1.067,0.2,1.9,0.3,2.5,0.3
			c1.2,0.134,2.051,0.134,2.551,0c0.166-0.033,0.416-0.149,0.75-0.35c0.3-0.2,0.55-0.316,0.75-0.35
			c0.267-0.067,0.533-0.051,0.8,0.05c0.3,0.1,0.55,0.149,0.75,0.149c0.333,0,0.916-0.233,1.75-0.699
			c0.8-0.434,1.6-1.051,2.399-1.851c0.867-0.967,1.551-1.717,2.051-2.25c1.6-1.533,2.583-2.5,2.949-2.899
			c1.667-1.967,3.034-4.284,4.101-6.95V57.4c0,1.1-0.384,2.05-1.15,2.85c-0.233,0.2-0.45,0.384-0.649,0.55c0,0.233,0,0.483,0,0.75
			V62.15z M114.25,57.6c0.3,0.067,0.517,0.101,0.65,0.101c0.066,0,0.133-0.033,0.199-0.101H114.25z M116.05,57.85
			c0.101,0.367,0.2,0.601,0.3,0.7c0.167,0.134,0.417,0.217,0.75,0.25c0.4-0.033,0.684-0.05,0.851-0.05c2.133,0,3.717-0.066,4.75-0.2
			c2.233-0.3,3.899-0.233,5,0.2c0.666,0.467,1.316,0.717,1.95,0.75c0.767,0.066,1.433,0.05,2-0.05l0.649-0.25
			c0.134-0.033,0.384-0.017,0.75,0.05c2.834,0.333,4.533,0.5,5.101,0.5c1.633,0.066,2.866,0.1,3.699,0.1
			c1.534,0.067,2.767,0.034,3.7-0.1c0.601-0.066,1.5-0.25,2.7-0.55c1.134-0.267,2.017-0.434,2.65-0.5
			c0.933,0.033,1.666,0.066,2.199,0.1c0.367,0,0.7-0.017,1-0.05c-1.066-0.767-1.733-1.167-2-1.2c-0.566-0.033-1.383,0.033-2.449,0.2
			c-1.834,0.167-4.2,0.233-7.101,0.2c-4.434-0.066-6.8-0.101-7.1-0.101c-2.467,0-6.217-0.083-11.25-0.25h-8.25
			C115.983,57.667,116.017,57.75,116.05,57.85z M113.1,57.95c0.067-0.134,0.15-0.25,0.25-0.351H101.7
			c-2.134,0-5.316,0.084-9.55,0.25c-0.7,0-1.717-0.033-3.051-0.1c0.034,0.033,0.101,0.083,0.2,0.15c0.3,0.199,0.517,0.316,0.65,0.35
			c0.399,0.1,0.967,0.134,1.7,0.1c0.833-0.066,1.416-0.1,1.75-0.1h16.3C111.3,58.25,112.434,58.15,113.1,57.95z"/>
		<path style="fill-rule:evenodd;clip-rule:evenodd;fill:#69382B;" d="M100.65,34.9c1.5,2.034,2.25,4.367,2.25,7
			c0,3.333-1.167,6.166-3.5,8.5c-2.334,2.333-5.167,3.5-8.5,3.5c-3.301,0-6.117-1.167-8.45-3.5c-0.5-0.5-0.95-1.017-1.35-1.551
			c-1.467-2-2.2-4.316-2.2-6.949c0-3.301,1.184-6.117,3.55-8.45c2.333-2.367,5.149-3.55,8.45-3.55c3.333,0,6.166,1.184,8.5,3.55
			C99.866,33.917,100.283,34.4,100.65,34.9z M95.05,33.65h-8.3c-0.366,0-0.684,0.117-0.95,0.35c-0.267,0.267-0.399,0.583-0.399,0.95
			v9.35c0,0.367,0.133,0.684,0.399,0.95c0.267,0.233,0.584,0.35,0.95,0.35h8.3c0.367,0,0.684-0.116,0.95-0.35
			c0.267-0.267,0.4-0.583,0.4-0.95v-9.35c0-0.367-0.134-0.684-0.4-0.95C95.733,33.767,95.417,33.65,95.05,33.65z M95.3,35.55v2.601
			c0,0.5-0.25,0.75-0.75,0.75H91.3v-4.05h3.25C95.05,34.85,95.3,35.083,95.3,35.55z M90.5,34.85v4.05h-3.25
			c-0.2,0-0.366-0.067-0.5-0.2c-0.167-0.167-0.25-0.351-0.25-0.55V35.55c0-0.466,0.25-0.7,0.75-0.7H90.5z M87.05,40.75
			c0.2-0.2,0.417-0.3,0.65-0.3c0.267,0,0.5,0.1,0.7,0.3c0.199,0.167,0.3,0.384,0.3,0.65s-0.101,0.483-0.3,0.649
			c-0.2,0.167-0.434,0.25-0.7,0.25s-0.483-0.083-0.65-0.25c-0.2-0.2-0.3-0.416-0.3-0.649S86.85,40.95,87.05,40.75z M88,46.65
			c0-0.101-0.066-0.217-0.2-0.351c-0.267-0.2-0.5-0.2-0.7,0L83.7,49.35c-0.233,0.267-0.25,0.5-0.05,0.7
			c0.2,0.2,0.45,0.217,0.75,0.05l0.75-0.649H96.6c0.034,0,0.084,0,0.15,0l0.7,0.649c0.233,0.2,0.467,0.184,0.7-0.05
			s0.233-0.467,0-0.7l-3.4-3.05c-0.2-0.2-0.45-0.2-0.75,0c-0.1,0.134-0.134,0.25-0.1,0.351H88z M86.35,48.35l0.65-0.6h7.9l0.649,0.6
			H86.35z M93.15,41.4c0-0.267,0.083-0.483,0.25-0.65c0.199-0.2,0.433-0.3,0.699-0.3s0.5,0.1,0.7,0.3
			c0.167,0.167,0.25,0.384,0.25,0.65c0,0.6-0.316,0.899-0.95,0.899C93.467,42.3,93.15,42,93.15,41.4z"/>
		<path style="fill-rule:evenodd;clip-rule:evenodd;fill:#577FAA;" d="M58.55,34c-0.267,0.267-0.4,0.583-0.4,0.95v9.35
			c0,0.367,0.133,0.684,0.4,0.95c0.267,0.233,0.583,0.35,0.95,0.35h8.3c0.367,0,0.684-0.116,0.95-0.35
			c0.267-0.267,0.4-0.583,0.4-0.95v-9.35c0-0.367-0.133-0.684-0.4-0.95c-0.267-0.233-0.583-0.35-0.95-0.35h-8.3
			C59.133,33.65,58.817,33.767,58.55,34z M60,34.85h3.25v4.05H60c-0.2,0-0.367-0.067-0.5-0.2c-0.167-0.167-0.25-0.351-0.25-0.55
			V35.55C59.25,35.083,59.5,34.85,60,34.85z M59.8,40.75c0.2-0.2,0.417-0.3,0.65-0.3c0.267,0,0.5,0.1,0.7,0.3
			c0.2,0.167,0.3,0.384,0.3,0.65s-0.1,0.483-0.3,0.649c-0.2,0.167-0.433,0.25-0.7,0.25c-0.267,0-0.483-0.083-0.65-0.25
			c-0.2-0.2-0.3-0.416-0.3-0.649S59.6,40.95,59.8,40.75z M56.45,49.35c-0.233,0.267-0.25,0.5-0.05,0.7c0.2,0.2,0.45,0.217,0.75,0.05
			l0.75-0.649h11.45c0.033,0,0.083,0,0.15,0l0.7,0.649c0.233,0.2,0.466,0.184,0.7-0.05s0.233-0.467,0-0.7l-3.4-3.05
			c-0.2-0.2-0.45-0.2-0.75,0c-0.1,0.134-0.133,0.25-0.1,0.351h-5.9c0-0.101-0.067-0.217-0.2-0.351c-0.267-0.2-0.5-0.2-0.7,0
			L56.45,49.35z M59.75,47.75h7.9l0.65,0.6h-9.2L59.75,47.75z M73.4,34.9c1.5,2.034,2.25,4.367,2.25,7c0,3.333-1.167,6.166-3.5,8.5
			c-2.333,2.333-5.167,3.5-8.5,3.5c-3.3,0-6.117-1.167-8.45-3.5c-0.5-0.5-0.95-1.017-1.35-1.551c-1.467-2-2.2-4.316-2.2-6.949
			c0-3.301,1.184-6.117,3.55-8.45c2.333-2.367,5.15-3.55,8.45-3.55c3.333,0,6.167,1.184,8.5,3.55
			C72.617,33.917,73.033,34.4,73.4,34.9z M67.3,34.85c0.5,0,0.75,0.233,0.75,0.7v2.601c0,0.5-0.25,0.75-0.75,0.75h-3.25v-4.05H67.3z
			 M66.85,40.45c0.267,0,0.5,0.1,0.7,0.3c0.167,0.167,0.25,0.384,0.25,0.65c0,0.6-0.316,0.899-0.95,0.899S65.9,42,65.9,41.4
			c0-0.267,0.083-0.483,0.25-0.65C66.35,40.55,66.583,40.45,66.85,40.45z"/>
	</g>
</g>
</svg>
