<?xml version="1.0" encoding="iso-8859-1"?>
<!-- Generator: Adobe Illustrator 16.0.0, SVG Export Plug-In . SVG Version: 6.00 Build 0)  -->
<!DOCTYPE svg PUBLIC "-//W3C//DTD SVG 1.1//EN" "http://www.w3.org/Graphics/SVG/1.1/DTD/svg11.dtd">
<svg version="1.1" id="FlashAICB" xmlns="http://www.w3.org/2000/svg" xmlns:xlink="http://www.w3.org/1999/xlink" x="0px" y="0px"
	 width="311px" height="115.858px" viewBox="0 0 311 115.858" style="enable-background:new 0 0 311 115.858;" xml:space="preserve"
	>
<path style="fill-rule:evenodd;clip-rule:evenodd;fill:#515046;" d="M91.9,97.9c-2.767,0.566-4.733,0.916-5.9,1.05
	c-3.1,0.434-5.433,0.45-7,0.05c-0.9-0.2-2.1-0.833-3.6-1.9c-1.533-1.1-2.667-1.767-3.4-2c-1.733-0.466-4.25-0.633-7.55-0.5
	c-4.034,0.167-6.6,0.2-7.7,0.101c-5.467-0.467-10.033,0.017-13.7,1.45c-2.8,1.399-5.05,2.5-6.75,3.3
	c-3.167,1.434-5.433,1.866-6.8,1.3c1.433-0.9,3.35-2.05,5.75-3.45c1.567-1.399,2.1-3.467,1.6-6.2c-2.2-0.333-3.917-0.899-5.15-1.699
	c-1.7-1.134-2.267-2.617-1.7-4.45L133,52c3.533,0.167,8.083-0.167,13.65-1c7.4-1.067,11.933-1.667,13.6-1.8
	c1.5-0.133,8.233-0.583,20.2-1.35c8.2-0.533,14.934-1.133,20.2-1.8c9.066-1.133,19.233-3.617,30.5-7.45
	c2.767-0.934,12.616-4.617,29.55-11.05c2.5-0.933,6.283-2.417,11.35-4.45c4.5-1.767,8.316-3.133,11.45-4.1
	c0.7-0.2,1.616-0.483,2.75-0.85c0.9-0.233,1.783-0.25,2.65-0.05c0,2.667,0.35,5.3,1.05,7.9c0.267,1,0.684,1.816,1.25,2.45
	c1,1.133,1.517,1.716,1.55,1.75c1.1,1.633,1.884,3.85,2.35,6.65c0.367,3.233,0.667,5.617,0.9,7.15c1.333,8.533,2.1,13.167,2.3,13.9
	c1.601,5.433,4.467,8.817,8.601,10.15c-0.101,1.634-0.983,3.367-2.65,5.2c-1.9,2.1-3.017,3.667-3.35,4.7
	c-0.167,0.566-0.134,1.566,0.1,3s0.25,2.45,0.05,3.05c-0.2,0.467-0.684,1.017-1.45,1.65c-0.767,0.6-1.233,1.1-1.399,1.5
	c-0.334,0.767-0.467,1.883-0.4,3.35c0.134,1.667,0.2,2.833,0.2,3.5c0.233,2.8,0.4,5.017,0.5,6.65c0.233,3.033,0.083,5.149-0.45,6.35
	c-0.533,1.167-1.866,2.333-4,3.5c-2.133,1.167-3.767,1.6-4.899,1.3c-0.4-2.967-0.634-4.566-0.7-4.8c-0.4-1.4-1.217-2.75-2.45-4.05
	c-2.434-2.533-5.066-4.2-7.9-5c-2.199-0.667-5.483-1-9.85-1c-3.3-0.233-5.8-0.334-7.5-0.3c-3.033,0.1-5.3,0.85-6.8,2.25
	c-1.667,2.533-2.917,4.399-3.75,5.6c-1.467,2.134-3.417,2.967-5.851,2.5c1.334-0.967,2.317-2.667,2.95-5.1
	c0.634-2.467,0.55-4.467-0.25-6c-0.899-1.801-3.416-2.617-7.55-2.45c-3.5,0.133-6.333,0.717-8.5,1.75
	c-2.2,1.033-3.65,2.55-4.35,4.55c-0.534,2.566-1.067,4.634-1.601,6.2c-2.467,6.8-4.767,10.1-6.899,9.899
	c-0.167-1.166-0.25-3.55-0.25-7.149c0-3.467-0.15-6.033-0.45-7.7c-1.033-5.667-4.45-7.616-10.25-5.85
	c-1.367,0.399-3.434,1.5-6.2,3.3c-2.833,1.8-4.917,2.899-6.25,3.3c-1.566,0.467-3.616,0.634-6.15,0.5
	c-2.333-0.134-4.283-0.483-5.85-1.05c-1-0.334-3.083-1.3-6.25-2.9c-2.566-1.3-4.733-2.1-6.5-2.399c-0.8-0.134-2.15-0.134-4.05,0
	c-1.733,0.133-3.066,0.083-4-0.15c-0.5-0.134-1.434-0.5-2.8-1.1c-1.034-0.434-2.084-0.667-3.15-0.7
	c-3.167-0.233-5.633-0.367-7.4-0.4c-3.167-0.066-5.45,0.3-6.85,1.101c-0.934,0.566-2.25,2-3.95,4.3
	c-1.066,1.467-2.883,2.149-5.45,2.05c2.566-1.434,2.716-2.816,0.45-4.15c-1.633-0.966-3.566-1.583-5.8-1.85
	c-0.3-0.033-2.933-0.517-7.9-1.45c-3.167-0.566-5.867-0.767-8.1-0.6c-1.733,0.133-3.917,0.8-6.55,2s-4.8,1.866-6.5,2
	C96.417,97.083,94.4,97.4,91.9,97.9z"/>
<path style="fill-rule:evenodd;clip-rule:evenodd;fill:#434C40;" d="M161.25,14.65c32.333-0.267,52.95-0.3,61.85-0.1
	c15.467,0.367,37.801,0.55,67,0.55c0,18.566,0.284,31.633,0.851,39.2c0.366,4.7,0.483,11.867,0.35,21.5l-0.35,13.05H154.3
	c-27.367,0-71.433,0.351-132.2,1.051l0.1-19c0.167-13.667,0.433-22.984,0.8-27.95c0.6-7.9,0.6-17.184,0-27.85h67
	C97.567,15.1,121.317,14.95,161.25,14.65z"/>
<path style="fill-rule:evenodd;clip-rule:evenodd;fill:#64725F;" d="M217.75,17.9c14.866,0.3,36.3,0.45,64.3,0.45
	c0,15.8,0.283,26.917,0.851,33.35c0.366,4,0.466,10.1,0.3,18.3l-0.3,11.05H151.8c-26.267,0-68.533,0.3-126.8,0.9l0.1-16.15
	c0.133-11.633,0.383-19.55,0.75-23.75c0.566-6.733,0.566-14.633,0-23.7H90.1c7.333,0,30.117-0.117,68.35-0.35
	C189.483,17.767,209.25,17.733,217.75,17.9z"/>
<radialGradient id="SVGID_1_" cx="156.1387" cy="51.873" r="101.5011" gradientTransform="matrix(1 0 0 -0.5121 0 78.4389)" gradientUnits="userSpaceOnUse">
	<stop  offset="0" style="stop-color:#FEFCDA"/>
	<stop  offset="1" style="stop-color:#E5E3B7"/>
</radialGradient>
<path style="fill-rule:evenodd;clip-rule:evenodd;fill:url(#SVGID_1_);" d="M160.45,20c31.033-0.233,50.8-0.267,59.3-0.1
	c14.866,0.3,36.3,0.45,64.3,0.45c0,15.8,0.283,26.917,0.851,33.35c0.366,4,0.466,10.1,0.3,18.3l-0.3,11.05H153.8
	c-26.267,0-68.533,0.3-126.8,0.9l0.1-16.15c0.133-11.633,0.383-19.55,0.75-23.75c0.566-6.733,0.566-14.633,0-23.7H92.1
	C99.433,20.35,122.217,20.233,160.45,20z"/>
<radialGradient id="SVGID_2_" cx="155.5" cy="49.9751" r="155.4823" gradientTransform="matrix(1 0 0 -0.3215 0 66.0428)" gradientUnits="userSpaceOnUse">
	<stop  offset="0" style="stop-color:#FEFCD0;stop-opacity:0.498"/>
	<stop  offset="0.0118" style="stop-color:#FFFFFF"/>
	<stop  offset="1" style="stop-color:#FEFA98;stop-opacity:0"/>
</radialGradient>
<path style="fill-rule:evenodd;clip-rule:evenodd;fill:url(#SVGID_2_);" d="M12.2,30.5c7.867-5.967,18.983-11.25,33.35-15.85
	C75.883,4.883,112.533,0,155.5,0c42.934,0,79.583,4.883,109.95,14.65c14.333,4.6,25.45,9.883,33.35,15.85
	C306.934,36.7,311,43.2,311,50c0,6.767-4.066,13.25-12.2,19.45c-7.899,5.967-19.017,11.25-33.35,15.85
	c-30.4,9.767-67.05,14.65-109.95,14.65c-42.933,0-79.583-4.884-109.95-14.65c-14.367-4.6-25.483-9.883-33.35-15.85
	C4.067,63.25,0,56.767,0,50C0,43.2,4.067,36.7,12.2,30.5z"/>
<radialGradient id="SVGID_3_" cx="156" cy="51" r="68.5907" gradientTransform="matrix(1 0 0 -0.6249 0 82.8715)" gradientUnits="userSpaceOnUse">
	<stop  offset="0" style="stop-color:#635C42"/>
	<stop  offset="1" style="stop-color:#96885E"/>
</radialGradient>
<rect x="59" y="50.35" style="fill-rule:evenodd;clip-rule:evenodd;fill:url(#SVGID_3_);" width="194" height="1.25"/>
<g>
	
		<radialGradient id="SVGID_4_" cx="39.6499" cy="33.7998" r="6.675" gradientTransform="matrix(1 0 0 -1 0 67.5996)" gradientUnits="userSpaceOnUse">
		<stop  offset="0" style="stop-color:#635C42"/>
		<stop  offset="1" style="stop-color:#96885E"/>
	</radialGradient>
	<path style="fill-rule:evenodd;clip-rule:evenodd;fill:url(#SVGID_4_);" d="M43.8,29.15c0-1.433-0.917-2.15-2.75-2.15
		c-1.2,0-2.066,0.517-2.6,1.55c-0.5,1.067-0.75,2.833-0.75,5.3c0,4.533,1.1,6.8,3.3,6.8c0.3,0,0.6-0.05,0.9-0.15l-0.05-4.1
		c0-0.566-0.467-0.85-1.4-0.85v-1h4.45V41c-1.8,0.467-3.183,0.7-4.15,0.7c-1.967,0-3.517-0.717-4.65-2.15
		c-1.133-1.367-1.7-3.283-1.7-5.75c0-5.233,2.167-7.85,6.5-7.85c1.167,0,2.5,0.216,4,0.65v2.75h-1.1V29.15z"/>
	
		<radialGradient id="SVGID_5_" cx="52.0498" cy="35.3501" r="5.95" gradientTransform="matrix(1 0 0 -1 0 70.7002)" gradientUnits="userSpaceOnUse">
		<stop  offset="0" style="stop-color:#635C42"/>
		<stop  offset="1" style="stop-color:#96885E"/>
	</radialGradient>
	<path style="fill-rule:evenodd;clip-rule:evenodd;fill:url(#SVGID_5_);" d="M57.95,41.3h-3.6l-2.85-5.55h-0.95v3.75
		c0,0.333,0.05,0.55,0.15,0.65c0.066,0.067,0.4,0.133,1,0.2v0.95h-5.6v-0.95c0.933,0,1.4-0.284,1.4-0.85v-8.4
		c0-0.534-0.467-0.8-1.4-0.8v-0.95h6c3.167,0,4.75,0.966,4.75,2.9c0,1.5-0.817,2.517-2.45,3.05l2,3.6c0.4,0.8,0.917,1.283,1.55,1.45
		V41.3z M53.85,32.35c0-1.367-0.833-2.05-2.5-2.05h-0.8v4.5H51C52.9,34.8,53.85,33.983,53.85,32.35z"/>
	
		<radialGradient id="SVGID_6_" cx="64.0498" cy="35.3501" r="5.8261" gradientTransform="matrix(1 0 0 -1 0 70.7002)" gradientUnits="userSpaceOnUse">
		<stop  offset="0" style="stop-color:#635C42"/>
		<stop  offset="1" style="stop-color:#96885E"/>
	</radialGradient>
	<path style="fill-rule:evenodd;clip-rule:evenodd;fill:url(#SVGID_6_);" d="M69.3,35.3c0,1.967-0.483,3.534-1.45,4.7
		c-0.934,1.133-2.233,1.7-3.9,1.7c-1.6,0-2.85-0.583-3.75-1.75c-0.934-1.134-1.4-2.684-1.4-4.65c0-1.966,0.467-3.517,1.4-4.65
		c0.966-1.133,2.25-1.7,3.85-1.7c1.6,0,2.867,0.566,3.8,1.7C68.817,31.816,69.3,33.367,69.3,35.3z M62.05,35.3
		c0,3.633,0.667,5.45,2,5.45c1.333,0,2-1.833,2-5.5c0-3.533-0.667-5.3-2-5.3C62.717,29.95,62.05,31.733,62.05,35.3z"/>
	
		<radialGradient id="SVGID_7_" cx="76.0498" cy="35.3501" r="5.775" gradientTransform="matrix(1 0 0 -1 0 70.7002)" gradientUnits="userSpaceOnUse">
		<stop  offset="0" style="stop-color:#635C42"/>
		<stop  offset="1" style="stop-color:#96885E"/>
	</radialGradient>
	<path style="fill-rule:evenodd;clip-rule:evenodd;fill:url(#SVGID_7_);" d="M70.5,29.35h6.35c1.5,0,2.667,0.517,3.5,1.55
		c0.833,0.967,1.25,2.367,1.25,4.2c0,1.933-0.434,3.433-1.3,4.5c-0.833,1.133-1.983,1.7-3.45,1.7H70.5v-0.95
		c0.933,0,1.4-0.284,1.4-0.85v-8.4c0-0.534-0.467-0.8-1.4-0.8V29.35z M74.9,30.3v8.5c0,0.633,0.067,1.083,0.2,1.35
		c0.1,0.133,0.383,0.2,0.85,0.2c1.6,0,2.4-1.784,2.4-5.35c0-3.133-0.917-4.7-2.75-4.7H74.9z"/>
	
		<radialGradient id="SVGID_8_" cx="88.4004" cy="35.3501" r="5.7748" gradientTransform="matrix(1 0 0 -1 0 70.7002)" gradientUnits="userSpaceOnUse">
		<stop  offset="0" style="stop-color:#635C42"/>
		<stop  offset="1" style="stop-color:#96885E"/>
	</radialGradient>
	<path style="fill-rule:evenodd;clip-rule:evenodd;fill:url(#SVGID_8_);" d="M93.95,35.1c0,1.867-0.434,3.367-1.3,4.5
		c-0.9,1.133-2.066,1.7-3.5,1.7h-6.3v-0.95c0.9,0,1.35-0.284,1.35-0.85v-8.4c0-0.534-0.45-0.8-1.35-0.8v-0.95h6.35
		c1.466,0,2.617,0.517,3.45,1.55C93.517,31.933,93.95,33.333,93.95,35.1z M87.25,30.3v8.5c0,0.733,0.067,1.184,0.2,1.35
		c0.1,0.133,0.383,0.2,0.85,0.2c1.6,0,2.4-1.784,2.4-5.35c0-3.133-0.934-4.7-2.8-4.7H87.25z"/>
	
		<radialGradient id="SVGID_9_" cx="99.3999" cy="35.3501" r="5.1875" gradientTransform="matrix(1 0 0 -1 0 70.7002)" gradientUnits="userSpaceOnUse">
		<stop  offset="0" style="stop-color:#635C42"/>
		<stop  offset="1" style="stop-color:#96885E"/>
	</radialGradient>
	<path style="fill-rule:evenodd;clip-rule:evenodd;fill:url(#SVGID_9_);" d="M99.65,31.1l-0.05,7.2c0,0.9,0.066,1.417,0.2,1.55
		c0.167,0.167,0.55,0.25,1.15,0.25h0.8c0.367,0,0.567-0.1,0.6-0.3c0.066-0.2,0.1-0.6,0.1-1.2v-0.3h1.2v3h-8.5v-0.95
		c0.934,0,1.4-0.284,1.4-0.85v-8.4c0-0.534-0.466-0.8-1.4-0.8v-0.95H101v0.95C100.1,30.3,99.65,30.566,99.65,31.1z"/>
	
		<radialGradient id="SVGID_10_" cx="109.4004" cy="35.3501" r="5.4248" gradientTransform="matrix(1 0 0 -1 0 70.7002)" gradientUnits="userSpaceOnUse">
		<stop  offset="0" style="stop-color:#635C42"/>
		<stop  offset="1" style="stop-color:#96885E"/>
	</radialGradient>
	<path style="fill-rule:evenodd;clip-rule:evenodd;fill:url(#SVGID_10_);" d="M111.65,30.3H109v4.15l2.2-0.05
		c0.367,0,0.55-0.233,0.55-0.7v-0.3h0.95v3h-0.95V36c0-0.434-0.183-0.65-0.55-0.65L109,35.3v3.05c0,0.833,0.05,1.367,0.15,1.6
		c0.1,0.267,0.583,0.4,1.45,0.4h1.85c0.367,0,0.566-0.1,0.6-0.3c0.067-0.2,0.1-0.6,0.1-1.2v-0.3h1.05v2.75h-9.6v-0.95
		c0.9,0,1.35-0.284,1.35-0.85v-8.4c0-0.534-0.45-0.8-1.35-0.8v-0.95h9.3v2.6h-0.95v-0.9C112.95,30.55,112.517,30.3,111.65,30.3z"/>
	
		<radialGradient id="SVGID_11_" cx="125.8999" cy="33.7998" r="6.2587" gradientTransform="matrix(1 0 0 -1 0 67.5996)" gradientUnits="userSpaceOnUse">
		<stop  offset="0" style="stop-color:#635C42"/>
		<stop  offset="1" style="stop-color:#96885E"/>
	</radialGradient>
	<path style="fill-rule:evenodd;clip-rule:evenodd;fill:url(#SVGID_11_);" d="M129.65,28.05c0-0.5-0.433-0.75-1.3-0.75h-2.75v6.25
		l2.4-0.05c0.333,0,0.5-0.233,0.5-0.7v-0.35h1v3h-1V35.1c0-0.434-0.167-0.65-0.5-0.65h-2.4v5.05c0,0.566,0.467,0.85,1.4,0.85v0.95
		h-5.85v-0.95c0.934,0,1.4-0.284,1.4-0.85V28.1c0-0.534-0.466-0.8-1.4-0.8v-1h9.45v2.65h-0.95V28.05z"/>
	
		<radialGradient id="SVGID_12_" cx="137.1001" cy="35.3501" r="5.8261" gradientTransform="matrix(1 0 0 -1 0 70.7002)" gradientUnits="userSpaceOnUse">
		<stop  offset="0" style="stop-color:#635C42"/>
		<stop  offset="1" style="stop-color:#96885E"/>
	</radialGradient>
	<path style="fill-rule:evenodd;clip-rule:evenodd;fill:url(#SVGID_12_);" d="M133.25,30.65c0.967-1.133,2.25-1.7,3.85-1.7
		s2.883,0.566,3.85,1.7c0.933,1.133,1.4,2.684,1.4,4.65c0,2-0.467,3.567-1.4,4.7c-0.967,1.133-2.267,1.7-3.9,1.7
		c-1.566,0-2.833-0.583-3.8-1.75c-0.934-1.134-1.4-2.684-1.4-4.65C131.85,33.333,132.316,31.783,133.25,30.65z M137.1,29.95
		c-1.333,0-2,1.783-2,5.35c0,3.633,0.683,5.45,2.05,5.45c1.3,0,1.95-1.833,1.95-5.5C139.1,31.717,138.433,29.95,137.1,29.95z"/>
	
		<radialGradient id="SVGID_13_" cx="149.5" cy="35.3501" r="5.95" gradientTransform="matrix(1 0 0 -1 0 70.7002)" gradientUnits="userSpaceOnUse">
		<stop  offset="0" style="stop-color:#635C42"/>
		<stop  offset="1" style="stop-color:#96885E"/>
	</radialGradient>
	<path style="fill-rule:evenodd;clip-rule:evenodd;fill:url(#SVGID_13_);" d="M148,35.75l0.05,3.75c0,0.333,0.05,0.55,0.15,0.65
		c0.1,0.1,0.433,0.167,1,0.2v0.95h-5.6v-0.95c0.9,0,1.35-0.284,1.35-0.85v-8.4c0-0.534-0.45-0.8-1.35-0.8v-0.95h5.95
		c3.167,0,4.75,0.966,4.75,2.9c0,1.5-0.816,2.517-2.45,3.05l2,3.6c0.467,0.833,0.983,1.317,1.55,1.45v0.95H151.8l-2.85-5.55H148z
		 M148,30.3v4.5h0.45c1.9,0,2.85-0.816,2.85-2.45c0-1.367-0.833-2.05-2.5-2.05H148z"/>
	
		<radialGradient id="SVGID_14_" cx="160.7998" cy="35.3501" r="5.425" gradientTransform="matrix(1 0 0 -1 0 70.7002)" gradientUnits="userSpaceOnUse">
		<stop  offset="0" style="stop-color:#635C42"/>
		<stop  offset="1" style="stop-color:#96885E"/>
	</radialGradient>
	<path style="fill-rule:evenodd;clip-rule:evenodd;fill:url(#SVGID_14_);" d="M155.95,40.35c0.934,0,1.399-0.284,1.399-0.85v-8.4
		c0-0.534-0.466-0.8-1.399-0.8v-0.95h9.35v2.6h-1v-0.9c0-0.5-0.434-0.75-1.3-0.75h-2.6v4.15l2.199-0.05
		c0.367,0,0.551-0.233,0.551-0.7v-0.3h0.949v3h-0.949V36c0-0.434-0.184-0.65-0.551-0.65L160.4,35.3v3.05
		c0,0.833,0.05,1.367,0.149,1.6c0.101,0.267,0.584,0.4,1.45,0.4h1.8c0.367,0,0.566-0.1,0.601-0.3c0.066-0.2,0.1-0.6,0.1-1.2v-0.3
		h1.1v2.75h-9.649V40.35z"/>
	
		<radialGradient id="SVGID_15_" cx="171.0996" cy="35.3501" r="5.4125" gradientTransform="matrix(1 0 0 -1 0 70.7002)" gradientUnits="userSpaceOnUse">
		<stop  offset="0" style="stop-color:#635C42"/>
		<stop  offset="1" style="stop-color:#96885E"/>
	</radialGradient>
	<path style="fill-rule:evenodd;clip-rule:evenodd;fill:url(#SVGID_15_);" d="M174.65,29.5v2.25h-0.95
		c-0.101-1.2-0.816-1.8-2.15-1.8c-1.399,0-2.1,0.55-2.1,1.65c0,0.633,0.633,1.283,1.899,1.95l0.9,0.5c2.1,1.1,3.15,2.434,3.15,4
		c0,1.067-0.45,1.95-1.351,2.65c-0.866,0.667-2.05,1-3.55,1c-1.066,0-2.3-0.15-3.7-0.45V38.7h1c0,1.366,0.884,2.05,2.65,2.05
		c1.5,0,2.25-0.65,2.25-1.95c0-0.733-0.617-1.417-1.851-2.05l-0.899-0.45c-2.066-1.1-3.101-2.4-3.101-3.9
		c0-2.3,1.434-3.45,4.301-3.45C172.116,28.95,173.283,29.133,174.65,29.5z"/>
	
		<radialGradient id="SVGID_16_" cx="181.0498" cy="35.3501" r="5.425" gradientTransform="matrix(1 0 0 -1 0 70.7002)" gradientUnits="userSpaceOnUse">
		<stop  offset="0" style="stop-color:#635C42"/>
		<stop  offset="1" style="stop-color:#96885E"/>
	</radialGradient>
	<path style="fill-rule:evenodd;clip-rule:evenodd;fill:url(#SVGID_16_);" d="M182.5,30.55v8.4c0,0.633,0.05,1.05,0.15,1.25
		c0.066,0.2,0.267,0.3,0.6,0.3l0.7,0.05v0.75H178.1v-0.75l0.7-0.05c0.334,0,0.55-0.1,0.65-0.3c0.066-0.267,0.1-0.684,0.1-1.25v-8.4
		h-1.25c-0.566,0-0.899,0.1-1,0.3c-0.066,0.267-0.1,0.683-0.1,1.25v0.25h-0.95v-3h9.55v3h-0.95V32.1c0-0.7-0.033-1.117-0.1-1.25
		c-0.033-0.2-0.366-0.3-1-0.3H182.5z"/>
	
		<radialGradient id="SVGID_17_" cx="195.9502" cy="35.1001" r="6.8375" gradientTransform="matrix(1 0 0 -1 0 70.2002)" gradientUnits="userSpaceOnUse">
		<stop  offset="0" style="stop-color:#635C42"/>
		<stop  offset="1" style="stop-color:#96885E"/>
	</radialGradient>
	<path style="fill-rule:evenodd;clip-rule:evenodd;fill:url(#SVGID_17_);" d="M194.15,26.3H200v1c-0.9,0-1.35,0.267-1.35,0.8
		l-0.101,1.2v10c0,1.733-0.333,2.934-1,3.6c-0.7,0.7-1.899,1.05-3.6,1.05c-0.634,0-1.3-0.1-2-0.3V41.5h0.95
		c0,1.033,0.366,1.55,1.1,1.55c0.634,0,1.05-0.183,1.25-0.55c0.233-0.467,0.35-1.233,0.35-2.3l-0.05-12.1
		c0-0.534-0.467-0.8-1.399-0.8V26.3z"/>
	
		<radialGradient id="SVGID_18_" cx="207" cy="35.5" r="6.05" gradientTransform="matrix(1 0 0 -1 0 71)" gradientUnits="userSpaceOnUse">
		<stop  offset="0" style="stop-color:#635C42"/>
		<stop  offset="1" style="stop-color:#96885E"/>
	</radialGradient>
	<path style="fill-rule:evenodd;clip-rule:evenodd;fill:url(#SVGID_18_);" d="M212.95,30.3c-0.9,0.067-1.351,0.333-1.351,0.8
		l-0.05,5.45c0,3.434-1.467,5.15-4.399,5.15c-3.101,0-4.65-1.717-4.65-5.15l-0.05-5.45c0-0.534-0.45-0.8-1.351-0.8v-0.95h5.75v0.95
		c-0.866,0-1.3,0.267-1.3,0.8l-0.05,5.45c0,1.7,0.167,2.833,0.5,3.4c0.3,0.633,0.85,0.95,1.65,0.95c1.566,0,2.35-1.45,2.35-4.35
		V31.1c0-0.467-0.45-0.733-1.35-0.8v-0.95h4.3V30.3z"/>
	
		<radialGradient id="SVGID_19_" cx="219.7998" cy="35.3501" r="5.975" gradientTransform="matrix(1 0 0 -1 0 70.7002)" gradientUnits="userSpaceOnUse">
		<stop  offset="0" style="stop-color:#635C42"/>
		<stop  offset="1" style="stop-color:#96885E"/>
	</radialGradient>
	<path style="fill-rule:evenodd;clip-rule:evenodd;fill:url(#SVGID_19_);" d="M216.8,29.35l6,7.45l-0.05-5.7
		c0-0.534-0.45-0.8-1.35-0.8v-0.95h4.35v0.95c-0.934,0-1.4,0.267-1.4,0.8l-0.05,10.3h-1.5l-6-7.55l0.05,5.65
		c0,0.566,0.45,0.85,1.351,0.85v0.95h-4.3v-0.95c0.699,0,1.1-0.117,1.199-0.35c0.134-0.233,0.2-0.783,0.2-1.65V32.3
		c0-0.867-0.066-1.417-0.2-1.65c-0.1-0.233-0.5-0.35-1.199-0.35v-0.95H216.8z"/>
	
		<radialGradient id="SVGID_20_" cx="231.4502" cy="35.3501" r="5.5034" gradientTransform="matrix(1 0 0 -1 0 70.7002)" gradientUnits="userSpaceOnUse">
		<stop  offset="0" style="stop-color:#635C42"/>
		<stop  offset="1" style="stop-color:#96885E"/>
	</radialGradient>
	<path style="fill-rule:evenodd;clip-rule:evenodd;fill:url(#SVGID_20_);" d="M234.75,31.35c0-0.934-0.65-1.4-1.95-1.4
		c-1.7,0-2.55,1.8-2.55,5.4c0,3.533,1,5.3,3,5.3c0.967,0,1.866-0.217,2.7-0.65v1c-1.033,0.467-2.15,0.7-3.351,0.7
		c-3.767,0-5.649-2.134-5.649-6.4c0-4.233,1.85-6.35,5.55-6.35c1.033,0,2.184,0.183,3.45,0.55v2.8h-1.2V31.35z"/>
	
		<radialGradient id="SVGID_21_" cx="241.5996" cy="35.3501" r="5.425" gradientTransform="matrix(1 0 0 -1 0 70.7002)" gradientUnits="userSpaceOnUse">
		<stop  offset="0" style="stop-color:#635C42"/>
		<stop  offset="1" style="stop-color:#96885E"/>
	</radialGradient>
	<path style="fill-rule:evenodd;clip-rule:evenodd;fill:url(#SVGID_21_);" d="M236.8,29.35h9.601v3h-0.95V32.1
		c0-0.633-0.05-1.05-0.15-1.25c-0.033-0.2-0.366-0.3-1-0.3h-1.2v8.4c0,0.7,0.034,1.116,0.101,1.25c0.066,0.2,0.283,0.3,0.649,0.3
		l0.65,0.05v0.75h-5.8v-0.75l0.649-0.05c0.334,0,0.551-0.1,0.65-0.3c0.066-0.267,0.1-0.684,0.1-1.25v-8.4h-1.25
		c-0.566,0-0.899,0.1-1,0.3c-0.066,0.267-0.1,0.683-0.1,1.25v0.25h-0.95V29.35z"/>
	
		<radialGradient id="SVGID_22_" cx="249.9004" cy="35.3501" r="4.7125" gradientTransform="matrix(1 0 0 -1 0 70.7002)" gradientUnits="userSpaceOnUse">
		<stop  offset="0" style="stop-color:#635C42"/>
		<stop  offset="1" style="stop-color:#96885E"/>
	</radialGradient>
	<path style="fill-rule:evenodd;clip-rule:evenodd;fill:url(#SVGID_22_);" d="M251.45,31.1v8.4c0,0.566,0.45,0.85,1.35,0.85v0.95
		h-5.85v-0.95c0.934,0,1.399-0.284,1.399-0.85v-8.4c0-0.534-0.466-0.8-1.399-0.8v-0.95h5.85v0.95
		C251.9,30.3,251.45,30.566,251.45,31.1z"/>
	
		<radialGradient id="SVGID_23_" cx="259.25" cy="35.3501" r="5.825" gradientTransform="matrix(1 0 0 -1 0 70.7002)" gradientUnits="userSpaceOnUse">
		<stop  offset="0" style="stop-color:#635C42"/>
		<stop  offset="1" style="stop-color:#96885E"/>
	</radialGradient>
	<path style="fill-rule:evenodd;clip-rule:evenodd;fill:url(#SVGID_23_);" d="M259.2,41.7c-1.566,0-2.834-0.583-3.8-1.75
		c-0.934-1.2-1.4-2.75-1.4-4.65c0-1.933,0.483-3.483,1.45-4.65c0.934-1.133,2.2-1.7,3.8-1.7s2.884,0.566,3.85,1.7
		c0.967,1.167,1.45,2.717,1.45,4.65c0,1.967-0.483,3.534-1.45,4.7C262.134,41.133,260.833,41.7,259.2,41.7z M259.25,29.95
		c-1.333,0-2,1.783-2,5.35c0,3.633,0.684,5.45,2.05,5.45c1.334,0,2-1.833,2-5.5C261.3,31.717,260.616,29.95,259.25,29.95z"/>
	
		<radialGradient id="SVGID_24_" cx="271.6504" cy="35.3501" r="5.975" gradientTransform="matrix(1 0 0 -1 0 70.7002)" gradientUnits="userSpaceOnUse">
		<stop  offset="0" style="stop-color:#635C42"/>
		<stop  offset="1" style="stop-color:#96885E"/>
	</radialGradient>
	<path style="fill-rule:evenodd;clip-rule:evenodd;fill:url(#SVGID_24_);" d="M277.6,30.3c-0.933,0-1.399,0.267-1.399,0.8
		l-0.05,10.3h-1.5l-6-7.55l0.05,5.65c0,0.566,0.467,0.85,1.399,0.85v0.95h-4.35v-0.95c0.7,0,1.116-0.117,1.25-0.35
		c0.1-0.233,0.15-0.783,0.15-1.65V32.3c0-0.833-0.051-1.383-0.15-1.65c-0.134-0.233-0.55-0.35-1.25-0.35v-0.95h2.9l6,7.45
		l-0.051-5.7c0-0.534-0.449-0.8-1.35-0.8v-0.95h4.35V30.3z"/>
</g>
<g>
	
		<radialGradient id="SVGID_25_" cx="37.6001" cy="66.0996" r="4.425" gradientTransform="matrix(1 0 0 -1 0 132.1992)" gradientUnits="userSpaceOnUse">
		<stop  offset="0" style="stop-color:#635C42"/>
		<stop  offset="1" style="stop-color:#96885E"/>
	</radialGradient>
	<path style="fill-rule:evenodd;clip-rule:evenodd;fill:url(#SVGID_25_);" d="M41.1,61.35v1.801h-0.75V63c0-0.967-0.6-1.45-1.8-1.45
		c-0.8,0-1.383,0.351-1.75,1.05c-0.333,0.767-0.5,1.934-0.5,3.5c0,3.034,0.733,4.551,2.2,4.551l0.6-0.101l-0.05-2.75
		c0-0.366-0.3-0.55-0.9-0.55V66.6h2.95V70.9c-1.133,0.3-2.05,0.449-2.75,0.449c-1.3,0-2.333-0.483-3.1-1.449
		c-0.767-0.934-1.15-2.2-1.15-3.801c0-3.466,1.45-5.199,4.35-5.199C39.283,60.9,40.167,61.05,41.1,61.35z"/>
	
		<radialGradient id="SVGID_26_" cx="45.8501" cy="67.0996" r="3.9503" gradientTransform="matrix(1 0 0 -1 0 134.1992)" gradientUnits="userSpaceOnUse">
		<stop  offset="0" style="stop-color:#635C42"/>
		<stop  offset="1" style="stop-color:#96885E"/>
	</radialGradient>
	<path style="fill-rule:evenodd;clip-rule:evenodd;fill:url(#SVGID_26_);" d="M44.85,67.4v2.5c0,0.199,0.033,0.333,0.1,0.399
		l0.65,0.15V71.1h-3.7V70.45c0.6,0,0.9-0.184,0.9-0.55l0.05-0.801l-0.05-4.8c0-0.366-0.3-0.55-0.9-0.55v-0.6h4
		c2.067,0,3.1,0.633,3.1,1.899c0,0.967-0.533,1.65-1.6,2.05l1.3,2.4c0.333,0.533,0.683,0.85,1.05,0.95V71.1h-2.4l-1.9-3.699H44.85z
		 M45.15,66.75c1.267,0,1.9-0.533,1.9-1.6c0-0.934-0.566-1.4-1.7-1.4h-0.5v3H45.15z"/>
	
		<radialGradient id="SVGID_27_" cx="53.7998" cy="67.0996" r="3.8625" gradientTransform="matrix(1 0 0 -1 0 134.1992)" gradientUnits="userSpaceOnUse">
		<stop  offset="0" style="stop-color:#635C42"/>
		<stop  offset="1" style="stop-color:#96885E"/>
	</radialGradient>
	<path style="fill-rule:evenodd;clip-rule:evenodd;fill:url(#SVGID_27_);" d="M56.35,70.2c-0.667,0.767-1.533,1.149-2.6,1.149
		s-1.9-0.383-2.5-1.149c-0.633-0.767-0.95-1.8-0.95-3.101c0-1.333,0.317-2.366,0.95-3.1c0.6-0.733,1.45-1.1,2.55-1.1
		c1.067,0,1.917,0.366,2.55,1.1c0.633,0.8,0.95,1.833,0.95,3.1S56.983,69.4,56.35,70.2z M53.8,70.7c0.867,0,1.3-1.217,1.3-3.65
		c0-2.366-0.434-3.55-1.3-3.55c-0.9,0-1.35,1.2-1.35,3.6C52.45,69.5,52.9,70.7,53.8,70.7z"/>
	
		<radialGradient id="SVGID_28_" cx="61.75" cy="67.0996" r="3.825" gradientTransform="matrix(1 0 0 -1 0 134.1992)" gradientUnits="userSpaceOnUse">
		<stop  offset="0" style="stop-color:#635C42"/>
		<stop  offset="1" style="stop-color:#96885E"/>
	</radialGradient>
	<path style="fill-rule:evenodd;clip-rule:evenodd;fill:url(#SVGID_28_);" d="M65.45,66.95c0,1.233-0.284,2.233-0.85,3
		C64,70.717,63.233,71.1,62.3,71.1h-4.2V70.45c0.6,0,0.9-0.184,0.9-0.55l0.05-0.801L59,64.3c0-0.366-0.3-0.55-0.9-0.55v-0.6h4.2
		c1,0,1.767,0.333,2.3,1C65.167,64.816,65.45,65.75,65.45,66.95z M61,63.75v5.65c0,0.5,0.05,0.8,0.15,0.899
		c0.067,0.101,0.25,0.15,0.55,0.15c1.066,0,1.6-1.184,1.6-3.55c0-2.101-0.617-3.15-1.85-3.15H61z"/>
	
		<radialGradient id="SVGID_29_" cx="69.9502" cy="67.0996" r="3.825" gradientTransform="matrix(1 0 0 -1 0 134.1992)" gradientUnits="userSpaceOnUse">
		<stop  offset="0" style="stop-color:#635C42"/>
		<stop  offset="1" style="stop-color:#96885E"/>
	</radialGradient>
	<path style="fill-rule:evenodd;clip-rule:evenodd;fill:url(#SVGID_29_);" d="M73.65,66.95c0,1.267-0.3,2.267-0.9,3
		c-0.567,0.767-1.333,1.149-2.3,1.149h-4.2V70.45c0.633,0,0.95-0.184,0.95-0.55V64.3c0-0.366-0.317-0.55-0.95-0.55v-0.6h4.25
		c1,0,1.767,0.333,2.3,1C73.367,64.884,73.65,65.816,73.65,66.95z M69.2,63.75v5.65c0,0.466,0.033,0.767,0.1,0.899
		c0.1,0.101,0.3,0.15,0.6,0.15c1.067,0,1.6-1.184,1.6-3.55c0-2.101-0.617-3.15-1.85-3.15H69.2z"/>
	
		<radialGradient id="SVGID_30_" cx="77.25" cy="67.0996" r="3.4375" gradientTransform="matrix(1 0 0 -1 0 134.1992)" gradientUnits="userSpaceOnUse">
		<stop  offset="0" style="stop-color:#635C42"/>
		<stop  offset="1" style="stop-color:#96885E"/>
	</radialGradient>
	<path style="fill-rule:evenodd;clip-rule:evenodd;fill:url(#SVGID_30_);" d="M77.4,64.3v4.8c0,0.567,0.05,0.9,0.15,1
		c0.1,0.134,0.35,0.2,0.75,0.2l0.5-0.05c0.267,0,0.4-0.05,0.4-0.15l0.1-0.8v-0.2h0.8v2h-5.65V70.45c0.6,0,0.9-0.184,0.9-0.55
		L75.4,65.1l-0.05-0.8c0-0.366-0.3-0.55-0.9-0.55v-0.6h3.85v0.6C77.7,63.75,77.4,63.934,77.4,64.3z"/>
	
		<radialGradient id="SVGID_31_" cx="83.9004" cy="67.0996" r="3.5998" gradientTransform="matrix(1 0 0 -1 0 134.1992)" gradientUnits="userSpaceOnUse">
		<stop  offset="0" style="stop-color:#635C42"/>
		<stop  offset="1" style="stop-color:#96885E"/>
	</radialGradient>
	<path style="fill-rule:evenodd;clip-rule:evenodd;fill:url(#SVGID_31_);" d="M86.1,65.8v2h-0.65v-0.25
		c0-0.267-0.117-0.399-0.35-0.399L84.6,67.1h-0.95v2c0,0.601,0.033,0.967,0.1,1.101c0.067,0.166,0.383,0.25,0.95,0.25h1.2
		c0.2,0,0.333-0.066,0.4-0.2l0.05-1h0.75v1.85h-6.4V70.45c0.6,0,0.9-0.184,0.9-0.55l0.05-0.801l-0.05-4.8c0-0.366-0.3-0.55-0.9-0.55
		v-0.6h6.2v1.75h-0.65v-0.65c0-0.333-0.283-0.5-0.85-0.5h-1.75v2.75h1.45c0.233,0,0.35-0.15,0.35-0.45V65.8H86.1z"/>
	
		<radialGradient id="SVGID_32_" cx="94.8501" cy="66.5996" r="1.7875" gradientTransform="matrix(1 0 0 -1 0 133.1992)" gradientUnits="userSpaceOnUse">
		<stop  offset="0" style="stop-color:#635C42"/>
		<stop  offset="1" style="stop-color:#96885E"/>
	</radialGradient>
	<rect x="92.4" y="66.1" style="fill-rule:evenodd;clip-rule:evenodd;fill:url(#SVGID_32_);" width="4.95" height="1"/>
	
		<radialGradient id="SVGID_33_" cx="105.7002" cy="66.0996" r="4.2" gradientTransform="matrix(1 0 0 -1 0 132.1992)" gradientUnits="userSpaceOnUse">
		<stop  offset="0" style="stop-color:#635C42"/>
		<stop  offset="1" style="stop-color:#96885E"/>
	</radialGradient>
	<path style="fill-rule:evenodd;clip-rule:evenodd;fill:url(#SVGID_33_);" d="M105.7,60.9c0.667,0,1.45,0.149,2.35,0.449v1.801
		h-0.75c0-1.067-0.45-1.601-1.35-1.601c-0.9,0-1.35,0.5-1.35,1.5c0,0.601,0.4,1.167,1.2,1.7l0.55,0.35
		c1.467,0.967,2.2,2.034,2.2,3.2c0,0.934-0.3,1.667-0.9,2.2c-0.566,0.566-1.35,0.85-2.35,0.85c-0.667,0-1.483-0.133-2.45-0.399v-2
		h0.7c0,1.166,0.583,1.75,1.75,1.75c0.967,0,1.45-0.584,1.45-1.75c0-0.667-0.4-1.25-1.2-1.75l-0.6-0.4c-1.4-0.899-2.1-1.934-2.1-3.1
		c0-0.867,0.267-1.55,0.8-2.05C104.15,61.15,104.833,60.9,105.7,60.9z"/>
	
		<radialGradient id="SVGID_34_" cx="113.2998" cy="67.0996" r="3.9505" gradientTransform="matrix(1 0 0 -1 0 134.1992)" gradientUnits="userSpaceOnUse">
		<stop  offset="0" style="stop-color:#635C42"/>
		<stop  offset="1" style="stop-color:#96885E"/>
	</radialGradient>
	<path style="fill-rule:evenodd;clip-rule:evenodd;fill:url(#SVGID_34_);" d="M117.2,63.75c-0.6,0-0.9,0.184-0.9,0.55l-0.05,4.8
		l0.05,0.801c0,0.366,0.3,0.55,0.9,0.55V71.1h-2.9v-4h-2v4h-2.95V70.45c0.6,0,0.9-0.184,0.9-0.55l0.05-0.801l-0.05-4.8
		c0-0.366-0.3-0.55-0.9-0.55v-0.6h2.95V66.3h2l-0.05-2c0-0.366-0.3-0.55-0.9-0.55v-0.6h3.85V63.75z"/>
	
		<radialGradient id="SVGID_35_" cx="119.75" cy="67.0996" r="3.125" gradientTransform="matrix(1 0 0 -1 0 134.1992)" gradientUnits="userSpaceOnUse">
		<stop  offset="0" style="stop-color:#635C42"/>
		<stop  offset="1" style="stop-color:#96885E"/>
	</radialGradient>
	<path style="fill-rule:evenodd;clip-rule:evenodd;fill:url(#SVGID_35_);" d="M121.7,63.75c-0.6,0-0.9,0.184-0.9,0.55l-0.05,4.8
		l0.05,0.801c0,0.366,0.3,0.55,0.9,0.55V71.1h-3.85V70.45c0.6,0,0.9-0.184,0.9-0.55V64.3c0-0.366-0.3-0.55-0.9-0.55v-0.6h3.85V63.75
		z"/>
	
		<radialGradient id="SVGID_36_" cx="127.75" cy="67.0996" r="4.75" gradientTransform="matrix(1 0 0 -1 0 134.1992)" gradientUnits="userSpaceOnUse">
		<stop  offset="0" style="stop-color:#635C42"/>
		<stop  offset="1" style="stop-color:#96885E"/>
	</radialGradient>
	<path style="fill-rule:evenodd;clip-rule:evenodd;fill:url(#SVGID_36_);" d="M123.15,64c-0.1-0.167-0.367-0.25-0.8-0.25v-0.6h3.45
		l2.15,4.649l2.3-4.649h2.95v0.6c-0.467,0-0.75,0.083-0.85,0.25c-0.067,0.2-0.1,0.566-0.1,1.1v4c0,0.534,0.033,0.9,0.1,1.101
		c0.1,0.166,0.383,0.25,0.85,0.25V71.1h-3.75V70.45c0.533,0,0.8-0.184,0.8-0.55V64.6l-2.6,5.351h-0.9l-2.5-5.4l0.05,5.351
		c0,0.366,0.25,0.55,0.75,0.55V71.1h-2.7V70.45c0.433,0,0.7-0.084,0.8-0.25c0.1-0.134,0.15-0.5,0.15-1.101v-4
		C123.3,64.533,123.25,64.167,123.15,64z"/>
	
		<radialGradient id="SVGID_37_" cx="136.6001" cy="67.0996" r="3.4375" gradientTransform="matrix(1 0 0 -1 0 134.1992)" gradientUnits="userSpaceOnUse">
		<stop  offset="0" style="stop-color:#635C42"/>
		<stop  offset="1" style="stop-color:#96885E"/>
	</radialGradient>
	<path style="fill-rule:evenodd;clip-rule:evenodd;fill:url(#SVGID_37_);" d="M133.8,63.75v-0.6h3.9v0.6
		c-0.634,0-0.95,0.184-0.95,0.55v4.8c0,0.567,0.05,0.9,0.15,1c0.1,0.134,0.35,0.2,0.75,0.2l0.55-0.05c0.233,0,0.35-0.05,0.35-0.15
		c0.067-0.199,0.1-0.466,0.1-0.8v-0.2h0.8v2h-5.65V70.45c0.6,0,0.9-0.184,0.9-0.55l0.05-0.801l-0.05-4.8
		C134.7,63.934,134.4,63.75,133.8,63.75z"/>
	
		<radialGradient id="SVGID_38_" cx="143.75" cy="67" r="4.0125" gradientTransform="matrix(1 0 0 -1 0 134)" gradientUnits="userSpaceOnUse">
		<stop  offset="0" style="stop-color:#635C42"/>
		<stop  offset="1" style="stop-color:#96885E"/>
	</radialGradient>
	<path style="fill-rule:evenodd;clip-rule:evenodd;fill:url(#SVGID_38_);" d="M143,65.6l-1.05,2.601h2.1L143,65.6z M144,62.9
		l2.7,6.6c0.233,0.6,0.55,0.917,0.95,0.95V71.1h-3.5V70.45c0.467,0,0.7-0.066,0.7-0.2l-0.2-0.65l-0.35-0.8h-2.6l-0.5,1.4
		c0,0.166,0.2,0.25,0.6,0.25V71.1h-2V70.45l0.25-0.05c0.267,0,0.517-0.301,0.75-0.9l2.55-6.6H144z"/>
	
		<radialGradient id="SVGID_39_" cx="157.4502" cy="66.0996" r="5.2035" gradientTransform="matrix(1 0 0 -1 0 132.1992)" gradientUnits="userSpaceOnUse">
		<stop  offset="0" style="stop-color:#635C42"/>
		<stop  offset="1" style="stop-color:#96885E"/>
	</radialGradient>
	<path style="fill-rule:evenodd;clip-rule:evenodd;fill:url(#SVGID_39_);" d="M162.05,62c-0.1,0.167-0.149,0.533-0.149,1.1v6
		c0,0.601,0.05,0.967,0.149,1.101c0.066,0.166,0.334,0.25,0.8,0.25V71.1h-3.699V70.45c0.5,0,0.75-0.184,0.75-0.55l0.05-7l-2.65,6.75
		h-0.85l-2.5-6.851V69.9c0,0.366,0.267,0.55,0.8,0.55V71.1H152V70.45c0.467,0,0.75-0.084,0.85-0.25c0.066-0.2,0.1-0.566,0.1-1.101
		v-6c0-0.533-0.034-0.899-0.1-1.1c-0.1-0.167-0.383-0.25-0.85-0.25v-0.6h3.45l2.2,5.85l2.25-5.85h2.949v0.6
		C162.384,61.75,162.116,61.833,162.05,62z"/>
	
		<radialGradient id="SVGID_40_" cx="172.9004" cy="67.0996" r="3.95" gradientTransform="matrix(1 0 0 -1 0 134.1992)" gradientUnits="userSpaceOnUse">
		<stop  offset="0" style="stop-color:#635C42"/>
		<stop  offset="1" style="stop-color:#96885E"/>
	</radialGradient>
	<path style="fill-rule:evenodd;clip-rule:evenodd;fill:url(#SVGID_40_);" d="M174.5,67.1l1.3,2.4c0.334,0.533,0.684,0.85,1.05,0.95
		V71.1h-2.399l-1.9-3.699H171.9l0.05,2.5c0,0.199,0.033,0.333,0.1,0.399l0.65,0.15V71.1H169V70.45c0.6,0,0.9-0.184,0.9-0.55
		l0.05-0.801l-0.05-4.8c0-0.366-0.301-0.55-0.9-0.55v-0.6h3.95c2.1,0,3.149,0.633,3.149,1.899C176.1,66.017,175.566,66.7,174.5,67.1
		z M172.45,63.75h-0.55v3h0.35c1.233,0,1.85-0.533,1.85-1.6C174.1,64.217,173.55,63.75,172.45,63.75z"/>
	
		<radialGradient id="SVGID_41_" cx="180.4004" cy="67.0996" r="3.65" gradientTransform="matrix(1 0 0 -1 0 134.1992)" gradientUnits="userSpaceOnUse">
		<stop  offset="0" style="stop-color:#635C42"/>
		<stop  offset="1" style="stop-color:#96885E"/>
	</radialGradient>
	<path style="fill-rule:evenodd;clip-rule:evenodd;fill:url(#SVGID_41_);" d="M182.55,64.45c0-0.634-0.416-0.95-1.25-0.95
		c-1.133,0-1.7,1.217-1.7,3.65c0,2.333,0.667,3.5,2,3.5c0.634,0,1.217-0.15,1.75-0.45v0.7c-0.633,0.3-1.366,0.449-2.199,0.449
		c-2.5,0-3.75-1.416-3.75-4.25c0-2.8,1.233-4.199,3.699-4.199c0.767,0,1.517,0.116,2.25,0.35v1.85h-0.8V64.45z"/>
	
		<radialGradient id="SVGID_42_" cx="188.0996" cy="67.0996" r="3.95" gradientTransform="matrix(1 0 0 -1 0 134.1992)" gradientUnits="userSpaceOnUse">
		<stop  offset="0" style="stop-color:#635C42"/>
		<stop  offset="1" style="stop-color:#96885E"/>
	</radialGradient>
	<path style="fill-rule:evenodd;clip-rule:evenodd;fill:url(#SVGID_42_);" d="M187.1,66.3h2v-2c0-0.366-0.3-0.55-0.899-0.55v-0.6
		h3.85v0.6c-0.6,0-0.899,0.184-0.899,0.55l-0.051,4.8l0.051,0.801c0,0.366,0.3,0.55,0.899,0.55V71.1h-2.95v-4h-2v4H184.2V70.45
		c0.6,0,0.899-0.184,0.899-0.55l0.051-0.801l-0.051-4.8c0-0.366-0.3-0.55-0.899-0.55v-0.6h2.899V66.3z"/>
	
		<radialGradient id="SVGID_43_" cx="199.9004" cy="66.0996" r="4.1875" gradientTransform="matrix(1 0 0 -1 0 132.1992)" gradientUnits="userSpaceOnUse">
		<stop  offset="0" style="stop-color:#635C42"/>
		<stop  offset="1" style="stop-color:#96885E"/>
	</radialGradient>
	<path style="fill-rule:evenodd;clip-rule:evenodd;fill:url(#SVGID_43_);" d="M201.45,61.75H199.6v3.75h1.551
		c0.267,0,0.399-0.15,0.399-0.45V64.8h0.601v2h-0.601v-0.25c0-0.267-0.133-0.399-0.399-0.399l-0.5-0.051H199.6v3
		c0,0.601,0.034,0.967,0.101,1.101c0.066,0.166,0.399,0.25,1,0.25h1.25c0.2,0,0.333-0.066,0.399-0.2l0.051-1h0.75v1.85h-6.5V70.45
		c0.6,0,0.899-0.184,0.899-0.55l0.05-0.801l-0.05-6.8c0-0.366-0.3-0.55-0.899-0.55v-0.6h6.3v1.75h-0.65v-0.65
		C202.3,61.917,202.017,61.75,201.45,61.75z"/>
	
		<radialGradient id="SVGID_44_" cx="207.4502" cy="67.0996" r="3.95" gradientTransform="matrix(1 0 0 -1 0 134.1992)" gradientUnits="userSpaceOnUse">
		<stop  offset="0" style="stop-color:#635C42"/>
		<stop  offset="1" style="stop-color:#96885E"/>
	</radialGradient>
	<path style="fill-rule:evenodd;clip-rule:evenodd;fill:url(#SVGID_44_);" d="M207.25,63.75h-0.4c-0.233,0.066-0.35,0.134-0.35,0.2
		c0,0.1,0.15,0.35,0.45,0.75l1.25,1.85l1.149-1.85c0.267-0.367,0.4-0.617,0.4-0.75c0-0.101-0.083-0.167-0.25-0.2h-0.3v-0.6h2.149
		v0.6c-0.399,0.033-0.816,0.35-1.25,0.95l-1.5,2.45l2,2.85c0.233,0.3,0.483,0.45,0.75,0.45V71.1h-3.5V70.45h0.25
		c0.301,0,0.45-0.066,0.45-0.2c0-0.1-0.149-0.35-0.45-0.75l-1.35-2l-1.25,2c-0.3,0.467-0.45,0.733-0.45,0.8
		c0,0.101,0.134,0.15,0.4,0.15h0.2V71.1h-2.15V70.45c0.366,0,0.684-0.184,0.95-0.55l0.3-0.4l1.6-2.6l-1.899-2.7
		c-0.134-0.233-0.45-0.384-0.95-0.45v-0.6h3.75V63.75z"/>
	
		<radialGradient id="SVGID_45_" cx="215.2998" cy="67.0996" r="3.775" gradientTransform="matrix(1 0 0 -1 0 134.1992)" gradientUnits="userSpaceOnUse">
		<stop  offset="0" style="stop-color:#635C42"/>
		<stop  offset="1" style="stop-color:#96885E"/>
	</radialGradient>
	<path style="fill-rule:evenodd;clip-rule:evenodd;fill:url(#SVGID_45_);" d="M214.65,67.9V69.1c0,0.534,0.033,0.9,0.1,1.101
		c0.134,0.133,0.3,0.2,0.5,0.2l0.5,0.05V71.1h-4V70.45c0.6,0,0.9-0.184,0.9-0.55V64.3c0-0.3-0.301-0.483-0.9-0.55v-0.6h3.9
		c2.133,0,3.199,0.699,3.199,2.1c0,1.767-1.267,2.65-3.8,2.65H214.65z M216.85,65.35c0-1.066-0.566-1.6-1.699-1.6h-0.5v3.5H215
		C216.233,67.25,216.85,66.616,216.85,65.35z"/>
	
		<radialGradient id="SVGID_46_" cx="223.5" cy="67.0996" r="3.9505" gradientTransform="matrix(1 0 0 -1 0 134.1992)" gradientUnits="userSpaceOnUse">
		<stop  offset="0" style="stop-color:#635C42"/>
		<stop  offset="1" style="stop-color:#96885E"/>
	</radialGradient>
	<path style="fill-rule:evenodd;clip-rule:evenodd;fill:url(#SVGID_46_);" d="M225.05,67.1l1.3,2.4
		c0.334,0.533,0.684,0.85,1.051,0.95V71.1H225l-1.9-3.699h-0.6v2.5c0,0.199,0.033,0.333,0.1,0.399l0.7,0.15V71.1h-3.75V70.45
		c0.601,0,0.9-0.184,0.9-0.55l0.05-0.801l-0.05-4.8c0-0.366-0.3-0.55-0.9-0.55v-0.6h4c2.066,0,3.101,0.633,3.101,1.899
		C226.65,66.017,226.116,66.7,225.05,67.1z M223,63.75h-0.5v3h0.3c1.267,0,1.9-0.533,1.9-1.6C224.7,64.217,224.134,63.75,223,63.75z
		"/>
	
		<radialGradient id="SVGID_47_" cx="230.9502" cy="67.0996" r="3.6" gradientTransform="matrix(1 0 0 -1 0 134.1992)" gradientUnits="userSpaceOnUse">
		<stop  offset="0" style="stop-color:#635C42"/>
		<stop  offset="1" style="stop-color:#96885E"/>
	</radialGradient>
	<path style="fill-rule:evenodd;clip-rule:evenodd;fill:url(#SVGID_47_);" d="M227.8,63.15h6.15v1.75h-0.65v-0.65
		c0-0.333-0.283-0.5-0.85-0.5h-1.75v2.75h1.45c0.267,0,0.399-0.15,0.399-0.45V65.8h0.601v2h-0.601v-0.25
		c0-0.267-0.133-0.399-0.399-0.399l-0.5-0.051h-0.95v2c0,0.467,0.033,0.834,0.1,1.101c0.066,0.166,0.384,0.25,0.95,0.25h1.2
		c0.233,0,0.383-0.066,0.45-0.2l0.05-1h0.7v1.85H227.8V70.45c0.601,0,0.9-0.184,0.9-0.55V64.3c0-0.366-0.3-0.55-0.9-0.55V63.15z"/>
	
		<radialGradient id="SVGID_48_" cx="237.8008" cy="67.0996" r="3.5871" gradientTransform="matrix(1 0 0 -1 0 134.1992)" gradientUnits="userSpaceOnUse">
		<stop  offset="0" style="stop-color:#635C42"/>
		<stop  offset="1" style="stop-color:#96885E"/>
	</radialGradient>
	<path style="fill-rule:evenodd;clip-rule:evenodd;fill:url(#SVGID_48_);" d="M240.15,64.7h-0.601c-0.033-0.8-0.5-1.2-1.399-1.2
		c-0.934,0-1.4,0.384-1.4,1.15c0,0.433,0.417,0.866,1.25,1.3l0.6,0.3c1.367,0.7,2.051,1.583,2.051,2.65
		c0,0.699-0.284,1.283-0.851,1.75c-0.633,0.466-1.416,0.699-2.35,0.699c-0.7,0-1.533-0.1-2.5-0.3v-1.7h0.649
		c0,0.9,0.601,1.351,1.801,1.351c1,0,1.5-0.434,1.5-1.3c0-0.434-0.417-0.884-1.25-1.351l-0.601-0.3
		c-1.366-0.767-2.05-1.634-2.05-2.6c0-1.5,0.95-2.25,2.85-2.25c0.733,0,1.5,0.116,2.301,0.35V64.7z"/>
	
		<radialGradient id="SVGID_49_" cx="244.5" cy="67.0996" r="3.5875" gradientTransform="matrix(1 0 0 -1 0 134.1992)" gradientUnits="userSpaceOnUse">
		<stop  offset="0" style="stop-color:#635C42"/>
		<stop  offset="1" style="stop-color:#96885E"/>
	</radialGradient>
	<path style="fill-rule:evenodd;clip-rule:evenodd;fill:url(#SVGID_49_);" d="M246.85,63.25v1.45H246.2c0-0.8-0.467-1.2-1.4-1.2
		c-0.899,0-1.35,0.384-1.35,1.15c0,0.433,0.416,0.866,1.25,1.3l0.55,0.3c1.4,0.7,2.1,1.583,2.1,2.65c0,0.699-0.283,1.283-0.85,1.75
		c-0.634,0.466-1.434,0.699-2.4,0.699c-0.666,0-1.483-0.1-2.449-0.3v-1.7h0.649c0,0.9,0.584,1.351,1.75,1.351c1,0,1.5-0.434,1.5-1.3
		c0-0.434-0.399-0.884-1.2-1.351l-0.6-0.3c-1.366-0.733-2.05-1.6-2.05-2.6c0-1.5,0.95-2.25,2.85-2.25
		C245.283,62.9,246.05,63.017,246.85,63.25z"/>
	
		<radialGradient id="SVGID_50_" cx="255.5508" cy="66.0996" r="4.2496" gradientTransform="matrix(1 0 0 -1 0 132.1992)" gradientUnits="userSpaceOnUse">
		<stop  offset="0" style="stop-color:#635C42"/>
		<stop  offset="1" style="stop-color:#96885E"/>
	</radialGradient>
	<path style="fill-rule:evenodd;clip-rule:evenodd;fill:url(#SVGID_50_);" d="M255.1,62.3v6.8c0,0.534,0.034,0.851,0.101,0.95
		c0.066,0.167,0.416,0.25,1.05,0.25h0.8l0.45-0.05c0.4,0,0.6-0.184,0.6-0.55V69.35l0.051-0.25h0.8v2h-6.8V70.45
		c0.6,0,0.899-0.184,0.899-0.55l0.05-0.801l-0.05-6.8c0-0.366-0.3-0.55-0.899-0.55v-0.6H256v0.6
		C255.4,61.75,255.1,61.934,255.1,62.3z"/>
	
		<radialGradient id="SVGID_51_" cx="261.5" cy="67.0996" r="3.125" gradientTransform="matrix(1 0 0 -1 0 134.1992)" gradientUnits="userSpaceOnUse">
		<stop  offset="0" style="stop-color:#635C42"/>
		<stop  offset="1" style="stop-color:#96885E"/>
	</radialGradient>
	<path style="fill-rule:evenodd;clip-rule:evenodd;fill:url(#SVGID_51_);" d="M263.45,63.75c-0.601,0-0.9,0.184-0.9,0.55l-0.05,4.8
		l0.05,0.801c0,0.366,0.3,0.55,0.9,0.55V71.1h-3.9V70.45c0.601,0,0.9-0.184,0.9-0.55l0.05-0.801l-0.05-4.8
		c0-0.366-0.3-0.55-0.9-0.55v-0.6h3.9V63.75z"/>
	
		<radialGradient id="SVGID_52_" cx="268" cy="67.1504" r="3.9625" gradientTransform="matrix(1 0 0 -1 0 134.3008)" gradientUnits="userSpaceOnUse">
		<stop  offset="0" style="stop-color:#635C42"/>
		<stop  offset="1" style="stop-color:#96885E"/>
	</radialGradient>
	<path style="fill-rule:evenodd;clip-rule:evenodd;fill:url(#SVGID_52_);" d="M264.9,64c-0.101-0.167-0.384-0.25-0.851-0.25v-0.6
		H266l4,4.949l-0.05-3.8c0-0.366-0.3-0.55-0.9-0.55v-0.6h2.851v0.6c-0.601,0-0.9,0.184-0.9,0.55v6.851h-1l-4-5.051l0.05,3.801
		c0,0.366,0.3,0.55,0.9,0.55V71.1h-2.9V70.45c0.467,0,0.75-0.084,0.851-0.25c0.066-0.2,0.1-0.566,0.1-1.101v-4
		C265,64.566,264.967,64.2,264.9,64z"/>
	
		<radialGradient id="SVGID_53_" cx="275.75" cy="67.0996" r="3.6" gradientTransform="matrix(1 0 0 -1 0 134.1992)" gradientUnits="userSpaceOnUse">
		<stop  offset="0" style="stop-color:#635C42"/>
		<stop  offset="1" style="stop-color:#96885E"/>
	</radialGradient>
	<path style="fill-rule:evenodd;clip-rule:evenodd;fill:url(#SVGID_53_);" d="M278.95,71.1h-6.4V70.45c0.601,0,0.9-0.184,0.9-0.55
		l0.05-0.801l-0.05-4.8c0-0.366-0.3-0.55-0.9-0.55v-0.6h6.2v1.75h-0.65v-0.65c0-0.333-0.3-0.5-0.899-0.5h-1.7v2.75h1.45
		c0.233,0,0.35-0.15,0.35-0.45V65.8h0.65v2h-0.65v-0.25c0-0.267-0.116-0.399-0.35-0.399l-0.5-0.051h-0.95v2
		c0,0.601,0.033,0.967,0.1,1.101c0.067,0.166,0.384,0.25,0.95,0.25h1.2c0.2,0,0.333-0.066,0.4-0.2l0.05-1h0.75V71.1z"/>
	
		<radialGradient id="SVGID_54_" cx="166" cy="67.0996" r="3.125" gradientTransform="matrix(1 0 0 -1 0 134.1992)" gradientUnits="userSpaceOnUse">
		<stop  offset="0" style="stop-color:#635C42"/>
		<stop  offset="1" style="stop-color:#96885E"/>
	</radialGradient>
	<path style="fill-rule:evenodd;clip-rule:evenodd;fill:url(#SVGID_54_);" d="M164.1,63.75v-0.6h3.851v0.6
		c-0.601,0-0.9,0.184-0.9,0.55L167,69.1l0.05,0.801c0,0.366,0.3,0.55,0.9,0.55V71.1H164.1V70.45c0.601,0,0.9-0.184,0.9-0.55V64.3
		C165,63.934,164.7,63.75,164.1,63.75z"/>
</g>
</svg>
