<?xml version="1.0" encoding="iso-8859-1"?>
<!-- Generator: Adobe Illustrator 16.0.0, SVG Export Plug-In . SVG Version: 6.00 Build 0)  -->
<!DOCTYPE svg PUBLIC "-//W3C//DTD SVG 1.1//EN" "http://www.w3.org/Graphics/SVG/1.1/DTD/svg11.dtd">
<svg version="1.1" id="FlashAICB" xmlns="http://www.w3.org/2000/svg" xmlns:xlink="http://www.w3.org/1999/xlink" x="0px" y="0px"
	 width="29.8px" height="27.05px" viewBox="0 0 29.8 27.05" style="enable-background:new 0 0 29.8 27.05;" xml:space="preserve">
<g>
	<g>
		<path style="fill-rule:evenodd;clip-rule:evenodd;fill:#E4E4E4;" d="M27.8,10.7c-1.033-0.233-2.483-0.45-4.35-0.65
			C21.116,9.783,19.634,9.6,19,9.5c-0.434-0.7-1.083-1.967-1.95-3.8c-0.767-1.633-1.434-2.867-2-3.7H14.8
			c-0.533,0.867-1.2,2.117-2,3.75c-0.9,1.8-1.55,3.05-1.95,3.75C6.75,9.867,3.8,10.25,2,10.65v0.3c0.633,0.667,1.7,1.65,3.2,2.95
			c1.433,1.234,2.483,2.2,3.15,2.9C8.283,17.3,8,18.65,7.5,20.85c-0.4,1.667-0.6,3.067-0.6,4.2H7c1.067-0.399,2.4-1.033,4-1.899
			c1.867-1,3.167-1.667,3.9-2c0.734,0.366,2,1.017,3.8,1.949c1.6,0.867,2.883,1.517,3.85,1.95h0.4c-0.134-1.333-0.5-3.399-1.101-6.2
			c-0.333-1.033-0.466-1.716-0.399-2.05c0.033-0.166,0.25-0.416,0.649-0.75c0.2-0.166,0.5-0.399,0.9-0.7
			c2.7-2.366,4.3-3.816,4.8-4.35V10.7z M22.8,7.95c2.533,0.267,4.351,0.533,5.45,0.8c0.467,0.1,0.833,0.333,1.1,0.7
			c0.301,0.367,0.45,0.783,0.45,1.25V11c0,0.567-0.2,1.05-0.6,1.45c-1.134,1.133-2.717,2.566-4.75,4.3l-0.15,0.1l-0.75,0.601
			l0.05,0.25c0.134,0.333,0.2,0.583,0.2,0.75L24,19.3c0.467,2.066,0.783,3.934,0.95,5.601c0,0.633-0.184,1.133-0.55,1.5
			c-0.367,0.433-0.851,0.649-1.45,0.649h-0.4c-0.333,0-0.616-0.066-0.85-0.2c-1.033-0.466-2.517-1.199-4.45-2.199L14.9,23.4
			c-1.133,0.533-1.983,0.966-2.55,1.3c-2.1,1.1-3.633,1.833-4.6,2.2L7,27.05H6.9c-0.566,0-1.05-0.2-1.45-0.6
			c-0.367-0.367-0.55-0.834-0.55-1.4c0-1.233,0.283-3.133,0.85-5.7L6.2,17.45L3.85,15.4c-1.467-1.267-2.567-2.284-3.3-3.05
			C0.183,11.917,0,11.45,0,10.95v-0.3c0-0.467,0.15-0.883,0.45-1.25c0.3-0.367,0.683-0.6,1.15-0.7c1.2-0.267,3.1-0.534,5.7-0.8
			l2.25-0.25c0.367-0.633,0.784-1.433,1.25-2.4c1-2.067,1.767-3.5,2.3-4.3C13.467,0.317,14.033,0,14.8,0h0.25
			c0.733,0,1.283,0.3,1.65,0.9c0.7,1.033,1.5,2.517,2.399,4.45l1.15,2.35L22.8,7.95z M14.85,10.1c1.4,0,2.6,0.467,3.6,1.4
			c1,0.9,1.5,2.017,1.5,3.35c0,1.3-0.5,2.417-1.5,3.35c-1,0.899-2.2,1.35-3.6,1.35s-2.6-0.45-3.6-1.35c-1-0.934-1.5-2.05-1.5-3.35
			c0-1.333,0.5-2.45,1.5-3.35C12.25,10.567,13.45,10.1,14.85,10.1z M18.35,14.85c0-0.9-0.333-1.667-1-2.3
			c-0.699-0.633-1.533-0.95-2.5-0.95c-0.967,0-1.783,0.316-2.45,0.95c-0.667,0.633-1,1.4-1,2.3c0,0.867,0.333,1.617,1,2.25
			c0.7,0.634,1.517,0.95,2.45,0.95c0.966,0,1.8-0.316,2.5-0.95C18.017,16.467,18.35,15.717,18.35,14.85z"/>
		<path style="fill-rule:evenodd;clip-rule:evenodd;fill:#DE7B99;" d="M27.8,10.7V11c-0.5,0.533-2.1,1.983-4.8,4.35
			c-0.4,0.301-0.7,0.534-0.9,0.7c-0.399,0.334-0.616,0.584-0.649,0.75c-0.066,0.334,0.066,1.017,0.399,2.05
			c0.601,2.801,0.967,4.867,1.101,6.2h-0.4c-0.967-0.434-2.25-1.083-3.85-1.95c-1.8-0.933-3.066-1.583-3.8-1.949
			c-0.733,0.333-2.033,1-3.9,2c-1.6,0.866-2.933,1.5-4,1.899H6.9c0-1.133,0.2-2.533,0.6-4.2C8,18.65,8.283,17.3,8.35,16.8
			c-0.667-0.7-1.717-1.666-3.15-2.9c-1.5-1.3-2.567-2.283-3.2-2.95v-0.3c1.8-0.4,4.75-0.783,8.85-1.15c0.4-0.7,1.05-1.95,1.95-3.75
			c0.8-1.633,1.467-2.883,2-3.75h0.25c0.566,0.833,1.233,2.067,2,3.7c0.867,1.833,1.517,3.1,1.95,3.8
			c0.634,0.1,2.116,0.283,4.45,0.55C25.316,10.25,26.767,10.467,27.8,10.7z M14.85,10.1c-1.4,0-2.6,0.467-3.6,1.4
			c-1,0.9-1.5,2.017-1.5,3.35c0,1.3,0.5,2.417,1.5,3.35c1,0.899,2.2,1.35,3.6,1.35s2.6-0.45,3.6-1.35c1-0.934,1.5-2.05,1.5-3.35
			c0-1.333-0.5-2.45-1.5-3.35C17.45,10.567,16.25,10.1,14.85,10.1z"/>
		<path style="fill-rule:evenodd;clip-rule:evenodd;fill:#75BDEA;" d="M18.35,14.85c0,0.867-0.333,1.617-1,2.25
			c-0.699,0.634-1.533,0.95-2.5,0.95c-0.934,0-1.75-0.316-2.45-0.95c-0.667-0.633-1-1.383-1-2.25c0-0.9,0.333-1.667,1-2.3
			c0.667-0.633,1.483-0.95,2.45-0.95c0.966,0,1.8,0.316,2.5,0.95C18.017,13.183,18.35,13.95,18.35,14.85z"/>
	</g>
</g>
</svg>
