<?xml version="1.0" encoding="iso-8859-1"?>
<!-- Generator: Adobe Illustrator 16.0.0, SVG Export Plug-In . SVG Version: 6.00 Build 0)  -->
<!DOCTYPE svg PUBLIC "-//W3C//DTD SVG 1.1//EN" "http://www.w3.org/Graphics/SVG/1.1/DTD/svg11.dtd">
<svg version="1.1" id="Layer_1" xmlns="http://www.w3.org/2000/svg" xmlns:xlink="http://www.w3.org/1999/xlink" x="0px" y="0px"
	 width="168.934px" height="77.783px" viewBox="0 0 168.934 77.783" style="enable-background:new 0 0 168.934 77.783;"
	 xml:space="preserve">
<g>
	<path style="fill-rule:evenodd;clip-rule:evenodd;fill:#11120E;" d="M115.75,70.1H4.25h-0.2c-0.6,0-1.15-0.116-1.65-0.35
		c-0.433-0.2-0.833-0.483-1.2-0.85L1.15,68.85c-0.033-0.033-0.066-0.066-0.1-0.1C0.35,67.983,0,67.083,0,66.05V4.8
		c0.033-1.1,0.433-2.017,1.2-2.75c0.8-0.8,1.75-1.2,2.85-1.2H4.4C3.333,0.883,2.433,1.267,1.7,2C0.9,2.767,0.5,3.717,0.5,4.85v42.9
		v17.4c0,1.1,0.4,2.05,1.2,2.85c0.767,0.767,1.7,1.15,2.8,1.15h152.7c1.1,0,2.05-0.384,2.85-1.15c0.767-0.8,1.15-1.75,1.15-2.85
		V37.4V4.85c0-1.133-0.384-2.083-1.15-2.85c-0.767-0.733-1.684-1.117-2.75-1.15h0.7c1.1,0,2.05,0.4,2.85,1.2
		c0.733,0.733,1.117,1.65,1.15,2.75V7v59.05c0,1.101-0.384,2.05-1.15,2.851c-0.8,0.8-1.75,1.199-2.85,1.199h-38.6H115.75z
		 M145.4,33.8l0.449,0.5H134.95c-0.5,0-0.917,0.2-1.25,0.6c-0.367,0.367-0.55,0.817-0.55,1.35v2.95c0,0.333,0.066,0.633,0.199,0.899
		c-0.366-0.399-0.55-0.866-0.55-1.399v-2.95c0-0.533,0.184-0.983,0.55-1.35c0.334-0.4,0.75-0.6,1.25-0.6H145.4z M108.3,44.45
		c-1.633-2.134-2.45-4.567-2.45-7.3c0-3.333,1.184-6.167,3.551-8.5c2.333-2.333,5.149-3.5,8.449-3.5c3.334,0,6.167,1.167,8.5,3.5
		c0.434,0.434,0.817,0.883,1.15,1.35c-0.233-0.3-0.483-0.583-0.75-0.85c-2.366-2.333-5.2-3.5-8.5-3.5c-3.333,0-6.167,1.167-8.5,3.5
		c-2.333,2.333-3.5,5.167-3.5,8.5C106.25,40.184,106.934,42.45,108.3,44.45z M145,41.15h0.85l-3.05,3.3
		c-0.333,0.366-0.5,0.833-0.5,1.399c0,0.4,0.101,0.75,0.3,1.051l-0.199-0.2c-0.334-0.367-0.5-0.816-0.5-1.351
		c0-0.566,0.166-1.033,0.5-1.399L145,41.15z M100.65,30.6c-0.367-0.5-0.784-0.983-1.25-1.45c-2.334-2.333-5.167-3.5-8.5-3.5
		c-3.301,0-6.117,1.167-8.45,3.5c-2.367,2.333-3.55,5.167-3.55,8.5c0,2.633,0.75,4.966,2.25,7c-1.733-2.167-2.6-4.667-2.6-7.5
		c0-3.333,1.167-6.167,3.5-8.5c2.334-2.333,5.167-3.5,8.5-3.5c3.3,0,6.134,1.167,8.5,3.5C99.65,29.25,100.184,29.9,100.65,30.6z
		 M142.55,30.7l-0.149-0.2c-0.334-0.367-0.5-0.817-0.5-1.35c0-0.566,0.166-1.033,0.5-1.4l1.899-2.05c0.367-0.367,0.8-0.55,1.3-0.55
		s0.917,0.184,1.25,0.55l9.351,10.1c0.133,0.133,0.233,0.267,0.3,0.4l-9.25-10c-0.333-0.367-0.75-0.55-1.25-0.55
		s-0.934,0.184-1.3,0.55l-1.9,2.05c-0.333,0.367-0.5,0.833-0.5,1.4C142.3,30.05,142.384,30.4,142.55,30.7z"/>
	<path style="fill-rule:evenodd;clip-rule:evenodd;fill:#515046;" d="M162,4c0.2,0.467,0.366,1.117,0.5,1.95
		c0.134,1.133,0.233,1.917,0.3,2.35c0.066,0.5,0.351,2.017,0.851,4.55c0.366,1.833,0.517,3.35,0.449,4.55
		c-0.033,0.7-0.316,1.717-0.85,3.05c-0.066,0.133-0.116,0.267-0.15,0.4c0-0.2,0-0.4,0-0.6c0-0.933-0.116-2.333-0.35-4.2
		c-0.267-1.867-0.4-3.283-0.4-4.25c0-0.833-0.083-2.083-0.25-3.75c-0.033-0.367-0.066-0.716-0.1-1.05V4.8V4.1
		C162,4.067,162,4.033,162,4z M2.4,69.75c0.5,0.233,1.05,0.35,1.65,0.35h0.2C4.517,70.267,4.9,70.4,5.4,70.5
		c1.067,0.134,1.733,0.217,2,0.25c2.3,0.566,4.05,0.9,5.25,1c2.533,0.333,4.467,0.5,5.8,0.5c0.867-0.033,1.517-0.05,1.95-0.05
		c0.8-0.033,1.45-0.017,1.95,0.05c1.667,0.2,3.316,0.566,4.95,1.1c1,0.367,2.184,0.417,3.55,0.15c0.533-0.1,1.717-0.434,3.55-1
		c3.233-1,7.633-1.5,13.2-1.5c12.133-0.167,21.233-0.25,27.3-0.25c5.967-0.167,10.433-0.25,13.4-0.25c1.634,0,4.084,0.134,7.351,0.4
		c3.233,0.233,5.666,0.35,7.3,0.35c2.633,0,4.633-0.1,6-0.3c2.333-0.434,4.6-0.717,6.8-0.851h3.65
		c0.366,0.067,0.75,0.184,1.149,0.351c0.334,0.133,0.684,0.217,1.05,0.25c0.4,0,0.733,0.017,1,0.05c1.534,0.134,2.7,0.134,3.5,0
		c2.9-0.467,5.801-0.066,8.7,1.2c0.9,0.467,1.566,0.783,2,0.95c0.733,0.267,1.467,0.383,2.2,0.35c0.7-0.033,1.616-0.267,2.75-0.7
		c1.167-0.434,2.05-0.684,2.65-0.75c2.633-0.366,4.616-0.616,5.949-0.75c1.634-0.166,3.733-0.184,6.301-0.05
		c1.233,0.066,2.233,0.2,3,0.4c0.8,0.267,1.35,0.366,1.649,0.3c0.033-0.134,0.066-0.283,0.101-0.45c0.699-0.066,1.1-0.15,1.199-0.25
		c0.167-0.1,0.25-0.517,0.25-1.25c0-1.233,0.134-2.3,0.4-3.2c0.167-0.566,0.533-1.583,1.1-3.05c0.167-0.434,0.101-1.417-0.199-2.95
		c-0.267-1.434-0.284-2.366-0.051-2.8c0.2-0.333,0.184-0.9-0.05-1.7c-0.3-1.033-0.45-1.633-0.45-1.8c0-0.2,0.101-0.95,0.301-2.25
		c0.166-1,0.166-1.7,0-2.1c-0.267-0.767-0.367-1.801-0.301-3.101c0.067-1.6,0.067-2.633,0-3.1c-0.3-2.967-0.466-6.45-0.5-10.45
		c0.134,0.7,0.317,1.417,0.551,2.15c0.3,0.934,0.449,1.95,0.449,3.05c-0.033,0.433-0.05,0.783-0.05,1.05
		c-0.033,0.433-0.017,0.767,0.05,1c0.134,0.333,0.4,0.616,0.801,0.85c0.466,0.301,0.75,0.517,0.85,0.65
		c0.233,0.333,0.417,0.767,0.55,1.3c0.2,1.601,0.384,2.816,0.55,3.65c0.067,0.366,0.2,1.649,0.4,3.85
		c0.134,1.601,0.417,2.816,0.85,3.65c0.067,0.133,0.217,0.35,0.45,0.649c0.134,0.134,0.233,0.4,0.3,0.801
		c0.167,1.233,0.084,2.35-0.25,3.35c-0.199,0.5-0.649,1.134-1.35,1.9c-0.733,0.767-1.184,1.383-1.35,1.85
		c-0.034,0.134-0.051,0.75-0.051,1.85c0,2.9,0.067,4.767,0.2,5.601c0.367,2.866,0.45,4.95,0.25,6.25c-1,0.1-1.916,0-2.75-0.3
		c-0.633-0.233-2.033-0.534-4.2-0.9c-0.3-0.033-0.966-0.2-2-0.5c-0.8-0.2-1.483-0.3-2.05-0.3c-0.467,0-1.05-0.101-1.75-0.3
		c-0.866-0.233-1.467-0.367-1.8-0.4c-0.866-0.1-1.9-0.017-3.1,0.25c-0.4,0.1-1.117,0.2-2.15,0.3c-0.934,0.101-1.667,0.25-2.2,0.45
		c-0.566,0.2-1.133,0.566-1.7,1.1c-0.8,0.733-1.316,1.184-1.55,1.351c-0.566,0.333-1.267,0.416-2.1,0.25
		c-0.5-0.134-1.2-0.367-2.101-0.7c-1.267-0.5-2.449-1.25-3.55-2.25c-0.666-0.533-1.066-0.85-1.2-0.95
		c-0.366-0.233-0.833-0.35-1.399-0.35c-0.9,0-2.15,0.116-3.75,0.35c-1.7,0.267-2.934,0.4-3.7,0.4c-0.733,0.033-1.467-0.233-2.2-0.8
		c-0.899-0.667-1.583-1.067-2.05-1.2c-0.1-0.033-0.684-0.05-1.75-0.05c-3.733,0.066-6.233,0.183-7.5,0.35
		c-1.467,0.134-2.566,0.267-3.3,0.4c-3.566,0.666-6.017,1.35-7.351,2.05c-0.333,0.2-0.8,0.467-1.399,0.8
		c-0.533,0.233-1.05,0.283-1.55,0.15c-0.5-0.101-1.25-0.334-2.25-0.7c-0.934-0.167-2.15-0.584-3.65-1.25
		c-1.7-0.767-2.917-1.25-3.65-1.45c-0.8-0.233-2-0.35-3.6-0.35c-1.833,0.033-4.567-0.117-8.2-0.45c-3.767-0.2-8.767-0.217-15-0.05
		c-7.7,0.199-12.7,0.283-15,0.25c-3.433,0-5.867,0.283-7.3,0.85c-0.6,0.233-1.667,1.033-3.2,2.4c-1.233,1.1-2.433,1.633-3.6,1.6
		c-1.567-0.066-3.917-0.9-7.05-2.5c-1.1-0.533-2.583-0.85-4.45-0.95c-1.034-0.066-2.567-0.133-4.6-0.2c-0.7-0.066-3.033-0.233-7-0.5
		C4.467,72.1,2.733,71.15,2.4,69.75z"/>
	<path style="fill-rule:evenodd;clip-rule:evenodd;fill:#8A8E71;" d="M157.3,0.85H4.4H4.05c-1.1,0-2.05,0.4-2.85,1.2
		C0.433,2.783,0.033,3.7,0,4.8V4.1C0,2.967,0.4,2,1.2,1.2C2,0.4,2.95,0,4.05,0H158c1.1,0,2.05,0.4,2.85,1.2
		c0.733,0.767,1.117,1.7,1.15,2.8c0,0.033,0,0.067,0,0.1v0.7c-0.033-1.1-0.417-2.017-1.15-2.75c-0.8-0.8-1.75-1.2-2.85-1.2H157.3z"
		/>
	<path style="fill-rule:evenodd;clip-rule:evenodd;fill:#3A3932;" d="M119.4,70.1H158c1.1,0,2.05-0.399,2.85-1.199
		c0.767-0.801,1.15-1.75,1.15-2.851V7c0.033,0.333,0.066,0.683,0.1,1.05c0.167,1.667,0.25,2.917,0.25,3.75
		c0,0.967,0.134,2.383,0.4,4.25c0.233,1.867,0.35,3.267,0.35,4.2c0,0.2,0,0.4,0,0.6c-0.033,4.933-0.05,8.65-0.05,11.15
		c0,0.433,0.017,0.85,0.05,1.25c0.034,4,0.2,7.483,0.5,10.45c0.067,0.467,0.067,1.5,0,3.1c-0.066,1.3,0.034,2.334,0.301,3.101
		c0.166,0.399,0.166,1.1,0,2.1c-0.2,1.3-0.301,2.05-0.301,2.25c0,0.167,0.15,0.767,0.45,1.8c0.233,0.8,0.25,1.367,0.05,1.7
		c-0.233,0.434-0.216,1.366,0.051,2.8c0.3,1.533,0.366,2.517,0.199,2.95c-0.566,1.467-0.933,2.483-1.1,3.05
		c-0.267,0.9-0.4,1.967-0.4,3.2c0,0.733-0.083,1.15-0.25,1.25c-0.1,0.1-0.5,0.184-1.199,0.25c-0.034,0.167-0.067,0.316-0.101,0.45
		c-0.3,0.066-0.85-0.033-1.649-0.3c-0.767-0.2-1.767-0.334-3-0.4c-2.567-0.134-4.667-0.116-6.301,0.05
		c-1.333,0.134-3.316,0.384-5.949,0.75c-0.601,0.066-1.483,0.316-2.65,0.75c-1.134,0.434-2.05,0.667-2.75,0.7
		c-0.733,0.033-1.467-0.083-2.2-0.35c-0.434-0.167-1.1-0.483-2-0.95c-2.899-1.267-5.8-1.667-8.7-1.2c-0.8,0.134-1.966,0.134-3.5,0
		c-0.267-0.033-0.6-0.05-1-0.05c-0.366-0.033-0.716-0.117-1.05-0.25C120.15,70.283,119.767,70.167,119.4,70.1z M4.25,70.1h111.5
		c-2.2,0.134-4.467,0.417-6.8,0.851c-1.367,0.2-3.367,0.3-6,0.3c-1.634,0-4.066-0.116-7.3-0.35c-3.267-0.267-5.717-0.4-7.351-0.4
		c-2.967,0-7.433,0.083-13.4,0.25c-6.066,0-15.167,0.083-27.3,0.25c-5.567,0-9.967,0.5-13.2,1.5c-1.833,0.566-3.017,0.9-3.55,1
		c-1.367,0.267-2.55,0.217-3.55-0.15c-1.633-0.533-3.283-0.899-4.95-1.1c-0.5-0.066-1.15-0.083-1.95-0.05
		c-0.433,0-1.083,0.017-1.95,0.05c-1.333,0-3.267-0.167-5.8-0.5c-1.2-0.1-2.95-0.434-5.25-1c-0.267-0.033-0.933-0.116-2-0.25
		C4.9,70.4,4.517,70.267,4.25,70.1z"/>
	
		<radialGradient id="SVGID_1_" cx="80.8501" cy="-2.3501" r="85.3375" gradientTransform="matrix(1 0 0 -1 0 -4.7002)" gradientUnits="userSpaceOnUse">
		<stop  offset="0" style="stop-color:#3E4234"/>
		<stop  offset="1" style="stop-color:#1B1C16"/>
	</radialGradient>
	<path style="fill-rule:evenodd;clip-rule:evenodd;fill:url(#SVGID_1_);" d="M4.4,0.85h152.9c1.066,0.033,1.983,0.417,2.75,1.15
		c0.767,0.767,1.15,1.717,1.15,2.85V37.4c-1.066,2.633-2.434,4.933-4.101,6.9c-0.033,0.066-1.017,1.05-2.949,2.95
		c-0.5,0.5-1.184,1.233-2.051,2.2c-0.8,0.8-1.6,1.416-2.399,1.85c-0.834,0.467-1.417,0.7-1.75,0.7c-0.2,0-0.45-0.05-0.75-0.15
		c-0.267-0.1-0.533-0.116-0.8-0.05c-0.2,0.033-0.45,0.15-0.75,0.351c-0.334,0.199-0.584,0.316-0.75,0.35
		c-0.301,0.066-0.717,0.1-1.25,0.1c-0.301-0.033-0.733-0.066-1.301-0.1c-0.233,0-1.066-0.083-2.5-0.25
		c-0.066,0-0.283,0.017-0.649,0.05c-0.267,0-0.467-0.033-0.601-0.1c-0.166-0.101-0.267-0.283-0.3-0.55
		c-0.066-0.301-0.133-0.5-0.2-0.601c-0.199-0.267-0.416-0.467-0.649-0.6c-0.5-0.3-0.783-0.467-0.851-0.5
		c-0.3-0.233-0.55-0.617-0.75-1.15c-0.166-0.533-0.383-0.883-0.649-1.05c-0.233-0.134-1.184-0.134-2.851,0
		c-0.633,0.033-1.3,0.25-2,0.65c-0.899,0.533-2.216,1.366-3.949,2.5c-1.4,0.833-2.983,1.316-4.75,1.449
		c-0.367,0.034-2.051,0-5.051-0.1c-2.199-0.066-3.616-0.217-4.25-0.45c-0.733-0.233-1.8-0.583-3.199-1.05
		c-1.434-0.434-2.684-0.934-3.75-1.5c-0.067-0.033-0.317-0.233-0.75-0.6c-0.367-0.301-0.617-0.45-0.75-0.45
		c-0.2,0-0.584,0.5-1.15,1.5c-0.366,0.434-0.95,0.833-1.75,1.2c-0.467,0.199-1.167,0.483-2.1,0.85
		c-0.867,0.366-2.584,0.767-5.15,1.2C93.017,53.083,92.1,53.1,91,53c-1.733-0.167-2.667-0.25-2.8-0.25c-0.4,0-1.05-0.017-1.95-0.05
		c-0.733-0.033-1.35-0.184-1.85-0.45L84.15,52c-0.4,0.066-0.734-0.017-1-0.25c-0.1,0.2-0.267,0.316-0.5,0.35
		c-0.233,0.067-0.4,0.134-0.5,0.2s-0.217,0.2-0.35,0.4c-0.133,0.166-0.267,0.283-0.4,0.35c-0.267,0.167-0.75,0.283-1.45,0.351
		c-0.7,0.066-1.2,0.183-1.5,0.35c1.667-0.066,3.95,0,6.85,0.2c3.233,0.2,5.517,0.3,6.851,0.3c4.233-0.167,7.416-0.25,9.55-0.25h22.5
		c5.033,0.167,8.783,0.25,11.25,0.25c3.166,0.066,5.533,0.116,7.1,0.15c2.867,0.033,5.233-0.034,7.101-0.2
		c1.399-0.167,2.216-0.233,2.449-0.2c0.334,0.033,1.367,0.717,3.101,2.05c2.133,1.601,3.517,2.584,4.149,2.95l-0.25,1.2
		c-0.3,0.1-0.566,0.1-0.8,0c-0.2-0.101-0.316-0.25-0.35-0.45c0.033,0.667,0.066,1.233,0.1,1.7c0,0.934-0.116,1.517-0.35,1.75
		s-0.5,0.25-0.8,0.05c-0.199-0.126-0.382-0.201-0.551-0.225L156.25,64l-0.475,0.475c-0.151,0.638-0.376,1.146-0.676,1.525
		c-0.333,0.4-1,0.583-2,0.55c-0.533-0.033-1.267-0.066-2.199-0.1c-0.634,0.066-1.517,0.233-2.65,0.5c-1.2,0.3-2.1,0.483-2.7,0.55
		c-0.934,0.134-2.166,0.167-3.7,0.1c-0.833,0-2.066-0.033-3.699-0.1c-0.567,0-2.267-0.167-5.101-0.5
		c-0.366-0.066-0.616-0.083-0.75-0.05l-0.649,0.25c-0.567,0.1-1.233,0.116-2,0.05c-0.634-0.033-1.284-0.283-1.95-0.75
		c-1.101-0.434-2.767-0.5-5-0.2c-1.033,0.134-2.617,0.2-4.75,0.2c-0.167,0-0.45,0.017-0.851,0.05
		c-0.333-0.033-0.583-0.116-0.75-0.25c-0.1-0.1-0.199-0.333-0.3-0.7c-0.1-0.333-0.233-0.533-0.399-0.6
		c-0.134-0.066-0.267-0.017-0.4,0.15c-0.134,0.199-0.25,0.3-0.35,0.3c-0.233,0-0.667-0.084-1.301-0.25
		c-0.199,0.066-0.366,0.233-0.5,0.5c-0.666,0.2-1.8,0.3-3.399,0.3H93.4c-0.334,0-0.917,0.033-1.75,0.1c-0.733,0.034-1.301,0-1.7-0.1
		c-0.134-0.033-0.351-0.15-0.65-0.35c-0.3-0.2-0.533-0.301-0.7-0.301C88.4,65.316,88.267,65.333,88.2,65.4
		c-0.066,0.1-0.15,0.149-0.25,0.149c-0.167,0-0.967-0.017-2.4-0.05c-1.033,0-1.816,0.083-2.35,0.25c-0.467,0.167-1.034,0.4-1.7,0.7
		c-0.6,0.233-1.217,0.333-1.85,0.3c-0.2,0-1-0.017-2.4-0.05c-1-0.033-1.8-0.101-2.4-0.2c-0.367-0.066-0.85-0.217-1.45-0.45
		c-0.6-0.133-1.533-0.149-2.8-0.05c-0.533-0.033-1.233-0.184-2.1-0.45c-1-0.333-1.683-0.533-2.05-0.6
		c-1.733-0.267-4.517-0.25-8.35,0.05c-0.6,0-1.633,0.05-3.1,0.15c-1.333,0.066-2.35-0.017-3.05-0.25
		c0.006-0.079,0.014-0.153,0.025-0.226C51.482,64.7,50.99,64.726,50.5,64.75c-0.411,0-0.819,0-1.225,0
		c0.019,0.08,0.044,0.163,0.075,0.25c0.1,0.3-0.05,0.55-0.45,0.75c-0.4,0.233-1.066,0.25-2,0.05l-2-0.399l-2.7,0.1
		c-0.534-0.033-1.233-0.134-2.1-0.3c-0.188-0.027-0.421-0.044-0.7-0.05c-1.768,0.138-3.535,0.305-5.3,0.5
		c-4.448,0.48-8.731,0.531-12.85,0.149c-0.315,0.087-0.681,0.153-1.1,0.2c-0.667,0.066-1.933-0.083-3.8-0.45
		c-0.7-0.133-2.184-0.133-4.45,0C10.033,65.65,8.633,65.467,7.7,65c-0.534-0.3-0.9-0.467-1.1-0.5c-0.033,0-0.283,0-0.75,0
		c-0.3,0-0.517-0.083-0.65-0.25c-0.133-0.134-0.167-0.483-0.1-1.05c-0.167-0.601-0.467-1.066-0.9-1.4C4,63,3.433,63.717,2.5,63.95
		c-0.133-0.467-0.217-1.134-0.25-2c-0.033-0.967-0.083-1.634-0.15-2c-0.133,0.3-0.35,0.467-0.65,0.5C1.383,59.983,1.4,59.2,1.5,58.1
		c0.1-1.033,0.083-1.833-0.05-2.399c-0.2-1.101-0.3-2.15-0.3-3.15c0-0.5-0.05-1.434-0.15-2.8C0.9,48.583,0.867,47.667,0.9,47
		l-0.4,0.75V4.85C0.5,3.717,0.9,2.767,1.7,2C2.433,1.267,3.333,0.883,4.4,0.85z M142.55,30.7c0.066,0.1,0.15,0.2,0.25,0.3l2.601,2.8
		H134.6c-0.5,0-0.916,0.2-1.25,0.6c-0.366,0.367-0.55,0.817-0.55,1.35v2.95c0,0.533,0.184,1,0.55,1.399
		c0.101,0.167,0.217,0.334,0.351,0.5c0.333,0.367,0.75,0.551,1.25,0.551H145l-2.6,2.8c-0.334,0.366-0.5,0.833-0.5,1.399
		c0,0.534,0.166,0.983,0.5,1.351l0.199,0.2c0.034,0.1,0.101,0.199,0.2,0.3l1.9,2.1c0.366,0.367,0.8,0.55,1.3,0.55
		s0.917-0.183,1.25-0.55l9.35-10.15c0.4-0.433,0.567-0.9,0.5-1.4c0.067-0.533-0.1-1.017-0.5-1.45l-0.1-0.1
		c-0.066-0.133-0.167-0.267-0.3-0.4l-9.351-10.1c-0.333-0.367-0.75-0.55-1.25-0.55s-0.933,0.184-1.3,0.55l-1.899,2.05
		c-0.334,0.367-0.5,0.833-0.5,1.4c0,0.533,0.166,0.983,0.5,1.35L142.55,30.7z M108.3,44.45c0.434,0.566,0.917,1.133,1.45,1.7
		c2.333,2.333,5.167,3.5,8.5,3.5c3.3,0,6.134-1.167,8.5-3.5c2.333-2.367,3.5-5.2,3.5-8.5c0-2.933-0.917-5.483-2.75-7.65
		c-0.333-0.467-0.717-0.917-1.15-1.35c-2.333-2.333-5.166-3.5-8.5-3.5c-3.3,0-6.116,1.167-8.449,3.5
		c-2.367,2.333-3.551,5.167-3.551,8.5C105.85,39.883,106.667,42.316,108.3,44.45z M100.65,30.6c-0.467-0.7-1-1.35-1.601-1.95
		c-2.366-2.333-5.2-3.5-8.5-3.5c-3.333,0-6.166,1.167-8.5,3.5c-2.333,2.333-3.5,5.167-3.5,8.5c0,2.833,0.867,5.333,2.6,7.5
		c0.367,0.5,0.8,1,1.3,1.5c2.333,2.333,5.149,3.5,8.45,3.5c3.333,0,6.166-1.167,8.5-3.5c2.333-2.367,3.5-5.2,3.5-8.5
		C102.9,34.983,102.15,32.633,100.65,30.6z"/>
	<path style="fill-rule:evenodd;clip-rule:evenodd;fill:#F1EFCD;" d="M145.4,33.8L142.8,31c-0.1-0.1-0.184-0.2-0.25-0.3
		c-0.166-0.3-0.25-0.65-0.25-1.05c0-0.566,0.167-1.033,0.5-1.4l1.9-2.05c0.366-0.367,0.8-0.55,1.3-0.55s0.917,0.184,1.25,0.55
		l9.25,10l0.1,0.1c0.4,0.434,0.567,0.917,0.5,1.45c0.067,0.5-0.1,0.967-0.5,1.4l-9.35,10.15c-0.333,0.367-0.75,0.55-1.25,0.55
		s-0.934-0.183-1.3-0.55l-1.9-2.1c-0.1-0.101-0.166-0.2-0.2-0.3c-0.199-0.301-0.3-0.65-0.3-1.051c0-0.566,0.167-1.033,0.5-1.399
		l3.05-3.3H145h-10.05c-0.5,0-0.917-0.184-1.25-0.551c-0.134-0.166-0.25-0.333-0.351-0.5c-0.133-0.266-0.199-0.566-0.199-0.899
		v-2.95c0-0.533,0.183-0.983,0.55-1.35c0.333-0.4,0.75-0.6,1.25-0.6h10.899L145.4,33.8z M126.05,33.6h-5.25v12.5H116.4V33.6h-5.2
		v-2.95h14.85V33.6z M87.8,42.05C87.934,42.184,88,42.3,88,42.4h5.85c0-0.101,0.051-0.217,0.15-0.351
		c0.233-0.233,0.483-0.25,0.75-0.05l3.4,3.1c0.1,0.067,0.149,0.184,0.149,0.351c0,0.133-0.05,0.233-0.149,0.3
		c-0.233,0.233-0.467,0.25-0.7,0.05l-0.7-0.649c-0.066,0-0.116,0-0.15,0H85.15L84.4,45.8c-0.301,0.167-0.55,0.15-0.75-0.05
		c-0.1-0.066-0.133-0.167-0.1-0.3c0-0.167,0.05-0.283,0.15-0.351L87.1,42C87.333,41.8,87.566,41.816,87.8,42.05z M88.4,36.45
		c-0.2-0.167-0.434-0.25-0.7-0.25s-0.483,0.083-0.65,0.25c-0.2,0.2-0.3,0.417-0.3,0.65c0,0.267,0.1,0.483,0.3,0.65
		c0.2,0.2,0.417,0.3,0.65,0.3c0.267,0,0.5-0.1,0.7-0.3c0.199-0.167,0.3-0.383,0.3-0.65C88.7,36.867,88.6,36.65,88.4,36.45z
		 M87.25,30.55c-0.2,0-0.366,0.083-0.5,0.25c-0.167,0.133-0.25,0.3-0.25,0.5v2.55c0,0.5,0.25,0.75,0.75,0.75h3.25v-4.05H87.25z
		 M94.1,36.2c-0.633,0-0.949,0.3-0.949,0.9c0,0.267,0.083,0.483,0.25,0.65c0.199,0.2,0.433,0.3,0.699,0.3s0.5-0.1,0.7-0.3
		c0.167-0.167,0.25-0.383,0.25-0.65C95.05,36.5,94.733,36.2,94.1,36.2z M94.55,30.55H91.3v4.05h3.25c0.5,0,0.75-0.25,0.75-0.75V31.3
		C95.3,30.8,95.05,30.55,94.55,30.55z M95.05,29.35c0.367,0,0.684,0.117,0.95,0.35c0.267,0.267,0.4,0.583,0.4,0.95v9.4
		c0,0.367-0.134,0.667-0.4,0.9s-0.583,0.35-0.95,0.35h-8.3c-0.366,0-0.684-0.116-0.95-0.35s-0.399-0.533-0.399-0.9v-9.4
		c0-0.367,0.133-0.683,0.399-0.95c0.267-0.233,0.584-0.35,0.95-0.35H95.05z M86.95,43.5l-0.601,0.55h9.2l-0.6-0.55H86.95z"/>
	<path style="fill-rule:evenodd;clip-rule:evenodd;fill:#58763E;" d="M126.05,33.6v-2.95H111.2v2.95h5.2v12.5h4.399V33.6H126.05z
		 M127.5,30c1.833,2.167,2.75,4.717,2.75,7.65c0,3.3-1.167,6.133-3.5,8.5c-2.366,2.333-5.2,3.5-8.5,3.5
		c-3.333,0-6.167-1.167-8.5-3.5c-0.533-0.567-1.017-1.134-1.45-1.7c-1.366-2-2.05-4.267-2.05-6.8c0-3.333,1.167-6.167,3.5-8.5
		c2.333-2.333,5.167-3.5,8.5-3.5c3.3,0,6.134,1.167,8.5,3.5C127.017,29.417,127.267,29.7,127.5,30z"/>
	<path style="fill-rule:evenodd;clip-rule:evenodd;fill:#131410;" d="M0.5,47.75L0.9,47c-0.033,0.667,0,1.583,0.1,2.75
		c0.1,1.366,0.15,2.3,0.15,2.8c0,1,0.1,2.05,0.3,3.15C1.583,56.267,1.6,57.066,1.5,58.1C1.4,59.2,1.383,59.983,1.45,60.45
		c0.3-0.033,0.517-0.2,0.65-0.5c0.066,0.366,0.117,1.033,0.15,2c0.033,0.866,0.117,1.533,0.25,2C3.433,63.717,4,63,4.2,61.8
		c0.433,0.334,0.733,0.8,0.9,1.4c-0.067,0.566-0.033,0.916,0.1,1.05c0.133,0.167,0.35,0.25,0.65,0.25c0.467,0,0.717,0,0.75,0
		c0.2,0.033,0.566,0.2,1.1,0.5c0.933,0.467,2.333,0.65,4.2,0.55c2.267-0.133,3.75-0.133,4.45,0c1.867,0.367,3.133,0.517,3.8,0.45
		c0.419-0.047,0.785-0.113,1.1-0.2c4.119,0.382,8.402,0.331,12.85-0.149c1.765-0.195,3.532-0.362,5.3-0.5
		c0.279,0.006,0.512,0.022,0.7,0.05c0.867,0.166,1.566,0.267,2.1,0.3l2.7-0.1l2,0.399c0.934,0.2,1.6,0.184,2-0.05
		c0.4-0.2,0.55-0.45,0.45-0.75c-0.031-0.087-0.056-0.17-0.075-0.25c0.406,0,0.814,0,1.225,0c0.49-0.024,0.982-0.05,1.475-0.075
		c-0.011,0.072-0.019,0.146-0.025,0.226c0.7,0.233,1.716,0.316,3.05,0.25C56.467,65.05,57.5,65,58.1,65
		c3.833-0.3,6.617-0.316,8.35-0.05c0.367,0.066,1.05,0.267,2.05,0.6c0.867,0.267,1.567,0.417,2.1,0.45c1.267-0.1,2.2-0.083,2.8,0.05
		c0.6,0.233,1.083,0.384,1.45,0.45c0.6,0.1,1.4,0.167,2.4,0.2c1.4,0.033,2.2,0.05,2.4,0.05c0.633,0.033,1.25-0.066,1.85-0.3
		c0.667-0.3,1.233-0.533,1.7-0.7c0.533-0.167,1.316-0.25,2.35-0.25c1.434,0.033,2.233,0.05,2.4,0.05c0.1,0,0.184-0.05,0.25-0.149
		c0.066-0.067,0.2-0.084,0.399-0.051c0.167,0,0.4,0.101,0.7,0.301c0.3,0.199,0.517,0.316,0.65,0.35c0.399,0.1,0.967,0.134,1.7,0.1
		c0.833-0.066,1.416-0.1,1.75-0.1h16.3c1.6,0,2.733-0.1,3.399-0.3c0.134-0.267,0.301-0.434,0.5-0.5
		c0.634,0.166,1.067,0.25,1.301,0.25c0.1,0,0.216-0.101,0.35-0.3c0.134-0.167,0.267-0.217,0.4-0.15c0.166,0.066,0.3,0.267,0.399,0.6
		c0.101,0.367,0.2,0.601,0.3,0.7c0.167,0.134,0.417,0.217,0.75,0.25c0.4-0.033,0.684-0.05,0.851-0.05c2.133,0,3.717-0.066,4.75-0.2
		c2.233-0.3,3.899-0.233,5,0.2c0.666,0.467,1.316,0.717,1.95,0.75c0.767,0.066,1.433,0.05,2-0.05l0.649-0.25
		c0.134-0.033,0.384-0.017,0.75,0.05c2.834,0.333,4.533,0.5,5.101,0.5c1.633,0.066,2.866,0.1,3.699,0.1
		c1.534,0.067,2.767,0.034,3.7-0.1c0.601-0.066,1.5-0.25,2.7-0.55c1.134-0.267,2.017-0.434,2.65-0.5
		c0.933,0.033,1.666,0.066,2.199,0.1c1,0.033,1.667-0.149,2-0.55c0.3-0.379,0.524-0.888,0.676-1.525L156.25,64l0.1-0.975
		c0.169,0.023,0.352,0.099,0.551,0.225c0.3,0.2,0.566,0.184,0.8-0.05s0.35-0.816,0.35-1.75c-0.033-0.467-0.066-1.033-0.1-1.7
		c0.033,0.2,0.149,0.35,0.35,0.45c0.233,0.1,0.5,0.1,0.8,0l0.25-1.2c-0.633-0.366-2.017-1.35-4.149-2.95
		c-1.733-1.333-2.767-2.017-3.101-2.05c-0.233-0.033-1.05,0.033-2.449,0.2c-1.867,0.166-4.233,0.233-7.101,0.2
		c-1.566-0.034-3.934-0.084-7.1-0.15c-2.467,0-6.217-0.083-11.25-0.25h-22.5c-2.134,0-5.316,0.083-9.55,0.25
		c-1.334,0-3.617-0.1-6.851-0.3c-2.9-0.2-5.183-0.267-6.85-0.2c0.3-0.167,0.8-0.283,1.5-0.35c0.7-0.067,1.183-0.184,1.45-0.351
		c0.133-0.066,0.267-0.184,0.4-0.35c0.133-0.2,0.25-0.334,0.35-0.4s0.267-0.133,0.5-0.2c0.233-0.033,0.4-0.149,0.5-0.35
		c0.267,0.233,0.6,0.316,1,0.25l0.25,0.25c0.5,0.267,1.116,0.417,1.85,0.45c0.9,0.033,1.55,0.05,1.95,0.05
		c0.133,0,1.066,0.083,2.8,0.25c1.1,0.1,2.017,0.083,2.75-0.05c2.566-0.434,4.283-0.834,5.15-1.2c0.933-0.366,1.633-0.65,2.1-0.85
		c0.8-0.367,1.384-0.767,1.75-1.2c0.566-1,0.95-1.5,1.15-1.5c0.133,0,0.383,0.149,0.75,0.45c0.433,0.366,0.683,0.566,0.75,0.6
		c1.066,0.566,2.316,1.066,3.75,1.5c1.399,0.467,2.466,0.816,3.199,1.05c0.634,0.233,2.051,0.384,4.25,0.45
		c3,0.1,4.684,0.134,5.051,0.1c1.767-0.133,3.35-0.616,4.75-1.449c1.733-1.134,3.05-1.967,3.949-2.5c0.7-0.4,1.367-0.617,2-0.65
		c1.667-0.134,2.617-0.134,2.851,0c0.267,0.167,0.483,0.517,0.649,1.05c0.2,0.533,0.45,0.917,0.75,1.15
		c0.067,0.033,0.351,0.2,0.851,0.5c0.233,0.133,0.45,0.333,0.649,0.6c0.067,0.101,0.134,0.3,0.2,0.601
		c0.033,0.267,0.134,0.449,0.3,0.55c0.134,0.066,0.334,0.1,0.601,0.1c0.366-0.033,0.583-0.05,0.649-0.05
		c1.434,0.167,2.267,0.25,2.5,0.25c0.567,0.033,1,0.066,1.301,0.1c0.533,0,0.949-0.033,1.25-0.1c0.166-0.033,0.416-0.15,0.75-0.35
		c0.3-0.2,0.55-0.317,0.75-0.351c0.267-0.066,0.533-0.05,0.8,0.05c0.3,0.101,0.55,0.15,0.75,0.15c0.333,0,0.916-0.233,1.75-0.7
		c0.8-0.434,1.6-1.05,2.399-1.85c0.867-0.967,1.551-1.7,2.051-2.2c1.933-1.9,2.916-2.884,2.949-2.95
		c1.667-1.967,3.034-4.267,4.101-6.9v27.75c0,1.1-0.384,2.05-1.15,2.85c-0.8,0.767-1.75,1.15-2.85,1.15H4.5
		c-1.1,0-2.033-0.384-2.8-1.15c-0.8-0.8-1.2-1.75-1.2-2.85V47.75z"/>
	<path style="fill-rule:evenodd;clip-rule:evenodd;fill:#69382B;" d="M100.65,30.6c1.5,2.033,2.25,4.383,2.25,7.05
		c0,3.3-1.167,6.133-3.5,8.5c-2.334,2.333-5.167,3.5-8.5,3.5c-3.301,0-6.117-1.167-8.45-3.5c-0.5-0.5-0.934-1-1.3-1.5
		c-1.5-2.034-2.25-4.367-2.25-7c0-3.333,1.184-6.167,3.55-8.5c2.333-2.333,5.149-3.5,8.45-3.5c3.333,0,6.166,1.167,8.5,3.5
		C99.866,29.617,100.283,30.1,100.65,30.6z M95.05,29.35h-8.3c-0.366,0-0.684,0.117-0.95,0.35c-0.267,0.267-0.399,0.583-0.399,0.95
		v9.4c0,0.367,0.133,0.667,0.399,0.9s0.584,0.35,0.95,0.35h8.3c0.367,0,0.684-0.116,0.95-0.35s0.4-0.533,0.4-0.9v-9.4
		c0-0.367-0.134-0.683-0.4-0.95C95.733,29.467,95.417,29.35,95.05,29.35z M94.55,30.55c0.5,0,0.75,0.25,0.75,0.75v2.55
		c0,0.5-0.25,0.75-0.75,0.75H91.3v-4.05H94.55z M94.1,36.2c0.634,0,0.95,0.3,0.95,0.9c0,0.267-0.083,0.483-0.25,0.65
		c-0.2,0.2-0.434,0.3-0.7,0.3s-0.5-0.1-0.699-0.3c-0.167-0.167-0.25-0.383-0.25-0.65C93.15,36.5,93.467,36.2,94.1,36.2z
		 M87.25,30.55h3.25v4.05h-3.25c-0.5,0-0.75-0.25-0.75-0.75V31.3c0-0.2,0.083-0.367,0.25-0.5C86.884,30.633,87.05,30.55,87.25,30.55
		z M88.4,36.45c0.199,0.2,0.3,0.417,0.3,0.65c0,0.267-0.101,0.483-0.3,0.65c-0.2,0.2-0.434,0.3-0.7,0.3c-0.233,0-0.45-0.1-0.65-0.3
		c-0.2-0.167-0.3-0.383-0.3-0.65c0-0.233,0.1-0.45,0.3-0.65c0.167-0.167,0.384-0.25,0.65-0.25S88.2,36.283,88.4,36.45z M87.8,42.05
		c-0.233-0.233-0.467-0.25-0.7-0.05L83.7,45.1c-0.1,0.067-0.15,0.184-0.15,0.351c-0.033,0.133,0,0.233,0.1,0.3
		c0.2,0.2,0.45,0.217,0.75,0.05l0.75-0.649H96.6c0.034,0,0.084,0,0.15,0l0.7,0.649c0.233,0.2,0.467,0.184,0.7-0.05
		c0.1-0.066,0.149-0.167,0.149-0.3c0-0.167-0.05-0.283-0.149-0.351l-3.4-3.1c-0.267-0.2-0.517-0.184-0.75,0.05
		c-0.1,0.134-0.15,0.25-0.15,0.351H88C88,42.3,87.934,42.184,87.8,42.05z M86.95,43.5h8l0.6,0.55h-9.2L86.95,43.5z"/>
</g>
</svg>
