<?xml version="1.0" encoding="iso-8859-1"?>
<!-- Generator: Adobe Illustrator 16.0.0, SVG Export Plug-In . SVG Version: 6.00 Build 0)  -->
<!DOCTYPE svg PUBLIC "-//W3C//DTD SVG 1.1//EN" "http://www.w3.org/Graphics/SVG/1.1/DTD/svg11.dtd">
<svg version="1.1" id="Layer_1" xmlns="http://www.w3.org/2000/svg" xmlns:xlink="http://www.w3.org/1999/xlink" x="0px" y="0px"
	 width="304px" height="115.909px" viewBox="0 0 304 115.909" style="enable-background:new 0 0 304 115.909;" xml:space="preserve"
	>
<path style="fill-rule:evenodd;clip-rule:evenodd;fill:#515046;" d="M284.25,28.5c1,1.133,1.517,1.717,1.55,1.75
	c1.101,1.6,1.884,3.8,2.351,6.6c0.366,3.267,0.666,5.65,0.899,7.15c1.3,8.567,2.066,13.217,2.3,13.95
	c1.601,5.467,4.467,8.85,8.601,10.149c-0.101,1.634-0.983,3.367-2.65,5.2c-1.899,2.066-3.017,3.617-3.35,4.65
	c-0.167,0.6-0.134,1.616,0.1,3.05c0.233,1.4,0.233,2.4,0,3c-0.166,0.5-0.633,1.05-1.399,1.65c-0.801,0.6-1.284,1.1-1.45,1.5
	c-0.3,0.767-0.417,1.899-0.351,3.399c0.134,1.667,0.184,2.834,0.15,3.5c0.233,2.8,0.417,5.017,0.55,6.65c0.2,3,0.033,5.1-0.5,6.3
	c-0.5,1.167-1.816,2.333-3.95,3.5c-2.133,1.167-3.783,1.6-4.949,1.3c-0.367-2.866-0.584-4.45-0.65-4.75
	c-0.366-1.399-1.184-2.75-2.45-4.05c-2.434-2.533-5.066-4.217-7.899-5.05c-2.2-0.667-5.483-0.983-9.851-0.95
	c-3.3-0.233-5.8-0.333-7.5-0.3c-3.066,0.066-5.333,0.816-6.8,2.25c-1.667,2.533-2.917,4.399-3.75,5.6
	c-1.467,2.134-3.417,2.95-5.85,2.45c1.333-0.934,2.316-2.616,2.949-5.05c0.634-2.5,0.551-4.5-0.25-6
	c-0.899-1.8-3.416-2.617-7.55-2.45c-3.467,0.1-6.3,0.667-8.5,1.7s-3.649,2.566-4.35,4.6c-0.533,2.566-1.066,4.634-1.601,6.2
	c-2.466,6.8-4.767,10.1-6.899,9.9c-0.167-1.167-0.25-3.551-0.25-7.15c0-3.467-0.15-6.033-0.45-7.7
	c-1.033-5.666-4.45-7.633-10.25-5.899c-1.333,0.433-3.4,1.55-6.2,3.35s-4.883,2.9-6.25,3.3c-1.566,0.467-3.616,0.617-6.149,0.45
	c-2.334-0.134-4.284-0.467-5.851-1c-0.967-0.333-3.05-1.3-6.25-2.9c-2.566-1.3-4.75-2.1-6.55-2.399c-0.8-0.134-2.134-0.134-4,0
	c-1.767,0.133-3.116,0.083-4.05-0.15c-0.467-0.1-1.384-0.467-2.75-1.1c-1.034-0.434-2.1-0.667-3.2-0.7
	c-1.333-0.033-3.783-0.184-7.35-0.45c-3.167-0.066-5.45,0.316-6.85,1.15c-0.933,0.533-2.25,1.967-3.95,4.3
	c-1.067,1.434-2.883,2.1-5.45,2c2.567-1.434,2.717-2.8,0.45-4.1c-1.7-1-3.65-1.617-5.85-1.851c-0.2-0.033-2.817-0.517-7.85-1.45
	c-3.167-0.566-5.883-0.767-8.15-0.6c-1.7,0.134-3.867,0.783-6.5,1.95c-2.633,1.2-4.8,1.866-6.5,2c-1.533,0.133-3.55,0.45-6.05,0.95
	c-2.733,0.6-4.717,0.966-5.95,1.1c-3.2,0.333-5.517,0.35-6.95,0.05c-0.9-0.2-2.1-0.85-3.6-1.95C66.917,96,65.767,95.35,65,95.15
	c-1.7-0.5-4.2-0.667-7.5-0.5c-4.067,0.166-6.633,0.199-7.7,0.1c-5.333-0.5-9.9-0.017-13.7,1.45c-1.1,0.434-3.35,1.517-6.75,3.25
	c-3.167,1.434-5.434,1.866-6.8,1.3c2.867-1.434,4.784-2.583,5.75-3.45c1.567-1.366,2.083-3.416,1.55-6.149
	c-2.2-0.334-3.917-0.9-5.15-1.7c-1.667-1.134-2.233-2.617-1.7-4.45l103-33c3.566,0.167,8.133-0.15,13.7-0.95
	c7.667-1.1,12.2-1.716,13.6-1.85c0.601-0.034,7.334-0.467,20.2-1.3c8.134-0.533,14.85-1.133,20.15-1.8
	c9.066-1.133,19.25-3.617,30.55-7.45c2.233-0.767,12.066-4.45,29.5-11.05c2.533-0.934,6.316-2.417,11.35-4.45
	c4.566-1.767,8.4-3.133,11.5-4.1c0.7-0.2,1.617-0.483,2.75-0.85c0.9-0.233,1.783-0.25,2.65-0.05c0,2.633,0.35,5.267,1.05,7.9
	C283.267,27.05,283.684,27.867,284.25,28.5z"/>
<path style="fill-rule:evenodd;clip-rule:evenodd;fill:#434C40;" d="M284,88.9H147.35c-27.4,0-71.467,0.35-132.2,1.05l0.1-19.05
	c0.167-13.667,0.433-22.967,0.8-27.9c0.6-7.9,0.6-17.2,0-27.9h67c7.2,0,30.95-0.15,71.25-0.45c32.3-0.233,52.917-0.25,61.851-0.05
	c15.466,0.333,37.783,0.5,66.949,0.5c0,18.6,0.301,31.683,0.9,39.25c0.366,4.733,0.483,11.917,0.35,21.55L284,88.9z"/>
<path style="fill-rule:evenodd;clip-rule:evenodd;fill:#64725F;" d="M275.95,51.75c0.366,4.033,0.467,10.134,0.3,18.3l-0.3,11.05
	h-131.1c-26.267,0-68.533,0.301-126.8,0.9l0.1-16.15c0.133-11.633,0.383-19.55,0.75-23.75c0.567-6.733,0.567-14.633,0-23.7h64.25
	c6.9,0,29.684-0.133,68.35-0.4c30.967-0.2,50.733-0.217,59.3-0.05c14.867,0.3,36.3,0.45,64.3,0.45
	C275.1,34.2,275.384,45.317,275.95,51.75z"/>
<radialGradient id="SVGID_1_" cx="149.189" cy="51.918" r="101.4645" gradientTransform="matrix(1 0 0 -0.5121 0 78.5068)" gradientUnits="userSpaceOnUse">
	<stop  offset="0" style="stop-color:#FEFCDA"/>
	<stop  offset="1" style="stop-color:#E5E3B7"/>
</radialGradient>
<path style="fill-rule:evenodd;clip-rule:evenodd;fill:url(#SVGID_1_);" d="M277.95,53.75c0.366,4.033,0.467,10.134,0.3,18.3
	l-0.3,11.05h-131.1c-26.267,0-68.533,0.301-126.8,0.9l0.1-16.15c0.133-11.633,0.383-19.55,0.75-23.75
	c0.567-6.733,0.567-14.633,0-23.7h64.25c6.9,0,29.684-0.133,68.35-0.4c30.967-0.2,50.733-0.217,59.3-0.05
	c14.867,0.3,36.3,0.45,64.3,0.45C277.1,36.2,277.384,47.317,277.95,53.75z"/>
<radialGradient id="SVGID_2_" cx="152" cy="50" r="152.0472" gradientTransform="matrix(1 0 0 -0.3289 0 66.4446)" gradientUnits="userSpaceOnUse">
	<stop  offset="0" style="stop-color:#FEFCD0;stop-opacity:0.498"/>
	<stop  offset="0.0118" style="stop-color:#FFFFFF"/>
	<stop  offset="0.2157" style="stop-color:#FFFEE4;stop-opacity:0.7333"/>
	<stop  offset="0.5647" style="stop-color:#FEFCBB;stop-opacity:0.3333"/>
	<stop  offset="0.8392" style="stop-color:#FEFAA2;stop-opacity:0.0863"/>
	<stop  offset="1" style="stop-color:#FEFA98;stop-opacity:0"/>
</radialGradient>
<path style="fill-rule:evenodd;clip-rule:evenodd;fill:url(#SVGID_2_);" d="M304,50c0,6.767-3.983,13.25-11.95,19.45
	c-7.7,6-18.55,11.3-32.55,15.899C229.8,95.116,193.967,100,152,100c-41.933,0-77.75-4.884-107.45-14.65
	c-14.033-4.6-24.9-9.899-32.6-15.899C3.983,63.25,0,56.767,0,50s3.983-13.25,11.95-19.45c7.7-6,18.566-11.3,32.6-15.9
	C74.25,4.883,110.067,0,152,0c41.967,0,77.8,4.883,107.5,14.65c14,4.6,24.85,9.9,32.55,15.9C300.017,36.75,304,43.233,304,50z"/>
<radialGradient id="SVGID_3_" cx="149" cy="51.0498" r="68.5907" gradientTransform="matrix(1 0 0 -0.6249 0 82.9524)" gradientUnits="userSpaceOnUse">
	<stop  offset="0" style="stop-color:#635C42"/>
	<stop  offset="1" style="stop-color:#96885E"/>
</radialGradient>
<rect x="52" y="50.4" style="fill-rule:evenodd;clip-rule:evenodd;fill:url(#SVGID_3_);" width="194" height="1.25"/>
<g>
	
		<radialGradient id="SVGID_4_" cx="29.6499" cy="66.2998" r="4.425" gradientTransform="matrix(1 0 0 -1 0 132.5996)" gradientUnits="userSpaceOnUse">
		<stop  offset="0" style="stop-color:#635C42"/>
		<stop  offset="1" style="stop-color:#96885E"/>
	</radialGradient>
	<path style="fill-rule:evenodd;clip-rule:evenodd;fill:url(#SVGID_4_);" d="M33.15,61.6V63.4H32.4v-0.15c0-0.967-0.6-1.45-1.8-1.45
		c-0.8,0-1.383,0.351-1.75,1.05c-0.333,0.767-0.5,1.917-0.5,3.45c0,3.033,0.733,4.55,2.2,4.55l0.6-0.1L31.1,68
		c0-0.366-0.3-0.55-0.9-0.55V66.8h2.95v4.3c-1.133,0.301-2.05,0.45-2.75,0.45c-1.3,0-2.333-0.483-3.1-1.45
		c-0.767-0.933-1.15-2.199-1.15-3.8c0-3.434,1.45-5.149,4.35-5.149C31.333,61.15,32.217,61.3,33.15,61.6z"/>
	
		<radialGradient id="SVGID_5_" cx="37.8999" cy="67.2998" r="3.9503" gradientTransform="matrix(1 0 0 -1 0 134.5996)" gradientUnits="userSpaceOnUse">
		<stop  offset="0" style="stop-color:#635C42"/>
		<stop  offset="1" style="stop-color:#96885E"/>
	</radialGradient>
	<path style="fill-rule:evenodd;clip-rule:evenodd;fill:url(#SVGID_5_);" d="M36.9,64v2.95h0.3c1.267,0,1.9-0.517,1.9-1.55
		c0-0.934-0.567-1.4-1.7-1.4H36.9z M33.95,63.4h4c2.066,0,3.1,0.633,3.1,1.899c0,0.934-0.533,1.601-1.6,2l1.3,2.4
		c0.333,0.533,0.683,0.85,1.05,0.95V71.3h-2.4l-1.9-3.7h-0.6v2.5c0,0.2,0.033,0.334,0.1,0.4l0.65,0.15V71.3h-3.7V70.65
		c0.6,0,0.9-0.184,0.9-0.551l0.05-4.75l-0.05-0.8c0-0.366-0.3-0.55-0.9-0.55V63.4z"/>
	
		<radialGradient id="SVGID_6_" cx="45.8501" cy="67.2998" r="3.8625" gradientTransform="matrix(1 0 0 -1 0 134.5996)" gradientUnits="userSpaceOnUse">
		<stop  offset="0" style="stop-color:#635C42"/>
		<stop  offset="1" style="stop-color:#96885E"/>
	</radialGradient>
	<path style="fill-rule:evenodd;clip-rule:evenodd;fill:url(#SVGID_6_);" d="M48.4,64.25c0.633,0.8,0.95,1.816,0.95,3.05
		c0,1.267-0.317,2.3-0.95,3.101c-0.667,0.767-1.533,1.149-2.6,1.149c-1.066,0-1.9-0.383-2.5-1.149
		c-0.633-0.767-0.95-1.801-0.95-3.101s0.316-2.316,0.95-3.05c0.6-0.733,1.45-1.1,2.55-1.1C46.917,63.15,47.767,63.517,48.4,64.25z
		 M47.15,67.25c0-2.333-0.433-3.5-1.3-3.5c-0.9,0-1.35,1.184-1.35,3.55c0,2.4,0.45,3.601,1.35,3.601
		C46.717,70.9,47.15,69.684,47.15,67.25z"/>
	
		<radialGradient id="SVGID_7_" cx="53.7998" cy="67.2998" r="3.825" gradientTransform="matrix(1 0 0 -1 0 134.5996)" gradientUnits="userSpaceOnUse">
		<stop  offset="0" style="stop-color:#635C42"/>
		<stop  offset="1" style="stop-color:#96885E"/>
	</radialGradient>
	<path style="fill-rule:evenodd;clip-rule:evenodd;fill:url(#SVGID_7_);" d="M53.05,64v5.6c0,0.5,0.05,0.801,0.15,0.9
		c0.066,0.1,0.25,0.15,0.55,0.15c1.067,0,1.6-1.184,1.6-3.551c0-2.066-0.617-3.1-1.85-3.1H53.05z M51.1,65.35l-0.05-0.8
		c0-0.366-0.3-0.55-0.9-0.55v-0.6h4.2c1,0,1.767,0.333,2.3,1c0.567,0.666,0.85,1.583,0.85,2.75c0,1.233-0.283,2.233-0.85,3
		c-0.6,0.767-1.367,1.149-2.3,1.149h-4.2V70.65c0.6,0,0.9-0.184,0.9-0.551L51.1,65.35z"/>
	
		<radialGradient id="SVGID_8_" cx="62" cy="67.2998" r="3.825" gradientTransform="matrix(1 0 0 -1 0 134.5996)" gradientUnits="userSpaceOnUse">
		<stop  offset="0" style="stop-color:#635C42"/>
		<stop  offset="1" style="stop-color:#96885E"/>
	</radialGradient>
	<path style="fill-rule:evenodd;clip-rule:evenodd;fill:url(#SVGID_8_);" d="M64.85,64.4c0.566,0.733,0.85,1.649,0.85,2.75
		c0,1.267-0.3,2.267-0.9,3c-0.566,0.767-1.333,1.149-2.3,1.149h-4.2V70.65c0.633,0,0.95-0.184,0.95-0.551v-5.55
		c0-0.366-0.317-0.55-0.95-0.55v-0.6h4.25C63.55,63.4,64.317,63.733,64.85,64.4z M61.25,64v5.6c0,0.467,0.033,0.767,0.1,0.9
		c0.1,0.1,0.3,0.15,0.6,0.15c1.066,0,1.6-1.184,1.6-3.551c0-2.066-0.617-3.1-1.85-3.1H61.25z"/>
	
		<radialGradient id="SVGID_9_" cx="69.2998" cy="67.2998" r="3.4375" gradientTransform="matrix(1 0 0 -1 0 134.5996)" gradientUnits="userSpaceOnUse">
		<stop  offset="0" style="stop-color:#635C42"/>
		<stop  offset="1" style="stop-color:#96885E"/>
	</radialGradient>
	<path style="fill-rule:evenodd;clip-rule:evenodd;fill:url(#SVGID_9_);" d="M72.15,69.3v2H66.5V70.65c0.6,0,0.9-0.184,0.9-0.551
		l0.05-0.8l-0.05-4.75c0-0.366-0.3-0.55-0.9-0.55v-0.6h3.85V64c-0.6,0-0.9,0.184-0.9,0.55v4.75c0,0.566,0.05,0.9,0.15,1
		c0.1,0.134,0.35,0.2,0.75,0.2l0.5-0.05c0.267,0,0.4-0.05,0.4-0.15l0.1-0.8v-0.2H72.15z"/>
	
		<radialGradient id="SVGID_10_" cx="75.9502" cy="67.2998" r="3.6" gradientTransform="matrix(1 0 0 -1 0 134.5996)" gradientUnits="userSpaceOnUse">
		<stop  offset="0" style="stop-color:#635C42"/>
		<stop  offset="1" style="stop-color:#96885E"/>
	</radialGradient>
	<path style="fill-rule:evenodd;clip-rule:evenodd;fill:url(#SVGID_10_);" d="M75.7,64v2.7h1.45c0.233,0,0.35-0.15,0.35-0.45V66
		h0.65v2H77.5v-0.25c0-0.267-0.117-0.4-0.35-0.4l-0.5-0.05H75.7v2c0,0.601,0.033,0.967,0.1,1.101c0.067,0.166,0.383,0.25,0.95,0.25
		h1.2c0.2,0,0.333-0.067,0.4-0.2l0.05-1h0.75v1.85h-6.4V70.65c0.6,0,0.9-0.184,0.9-0.551l0.05-0.8l-0.05-4.75
		c0-0.366-0.3-0.55-0.9-0.55v-0.6h6.2v1.75H78.3V64.5c0-0.333-0.283-0.5-0.85-0.5H75.7z"/>
	
		<radialGradient id="SVGID_11_" cx="86.8999" cy="66.7998" r="1.7875" gradientTransform="matrix(1 0 0 -1 0 133.5996)" gradientUnits="userSpaceOnUse">
		<stop  offset="0" style="stop-color:#635C42"/>
		<stop  offset="1" style="stop-color:#96885E"/>
	</radialGradient>
	<rect x="84.45" y="66.3" style="fill-rule:evenodd;clip-rule:evenodd;fill:url(#SVGID_11_);" width="4.95" height="1"/>
	
		<radialGradient id="SVGID_12_" cx="97.75" cy="66.2998" r="4.2" gradientTransform="matrix(1 0 0 -1 0 132.5996)" gradientUnits="userSpaceOnUse">
		<stop  offset="0" style="stop-color:#635C42"/>
		<stop  offset="1" style="stop-color:#96885E"/>
	</radialGradient>
	<path style="fill-rule:evenodd;clip-rule:evenodd;fill:url(#SVGID_12_);" d="M97.85,65l0.55,0.35c1.467,0.9,2.2,1.95,2.2,3.15
		c0,0.934-0.3,1.667-0.9,2.2c-0.567,0.566-1.35,0.85-2.35,0.85c-0.667,0-1.483-0.133-2.45-0.399v-2h0.7
		c0,1.166,0.583,1.75,1.75,1.75c0.967,0,1.45-0.584,1.45-1.75c0-0.667-0.4-1.25-1.2-1.75L97,67c-1.4-0.9-2.1-1.917-2.1-3.05
		c0-0.867,0.267-1.55,0.8-2.05c0.5-0.5,1.183-0.75,2.05-0.75c0.667,0,1.45,0.149,2.35,0.449V63.4h-0.75
		c0-1.067-0.45-1.601-1.35-1.601s-1.35,0.5-1.35,1.5C96.65,63.9,97.05,64.467,97.85,65z"/>
	
		<radialGradient id="SVGID_13_" cx="105.3501" cy="67.2998" r="3.9503" gradientTransform="matrix(1 0 0 -1 0 134.5996)" gradientUnits="userSpaceOnUse">
		<stop  offset="0" style="stop-color:#635C42"/>
		<stop  offset="1" style="stop-color:#96885E"/>
	</radialGradient>
	<path style="fill-rule:evenodd;clip-rule:evenodd;fill:url(#SVGID_13_);" d="M109.25,64c-0.6,0-0.9,0.184-0.9,0.55l-0.05,0.8
		l0.05,4.75c0,0.367,0.3,0.551,0.9,0.551V71.3h-2.9v-4h-2v4h-2.95V70.65c0.6,0,0.9-0.184,0.9-0.551l0.05-0.8l-0.05-4.75
		c0-0.366-0.3-0.55-0.9-0.55v-0.6h2.95v3.1h2l-0.05-1.95c0-0.366-0.3-0.55-0.9-0.55v-0.6h3.85V64z"/>
	
		<radialGradient id="SVGID_14_" cx="111.7998" cy="67.2998" r="3.125" gradientTransform="matrix(1 0 0 -1 0 134.5996)" gradientUnits="userSpaceOnUse">
		<stop  offset="0" style="stop-color:#635C42"/>
		<stop  offset="1" style="stop-color:#96885E"/>
	</radialGradient>
	<path style="fill-rule:evenodd;clip-rule:evenodd;fill:url(#SVGID_14_);" d="M112.85,70.1c0,0.367,0.3,0.551,0.9,0.551V71.3h-3.85
		V70.65c0.6,0,0.9-0.184,0.9-0.551v-5.55c0-0.366-0.3-0.55-0.9-0.55v-0.6h3.85V64c-0.6,0-0.9,0.184-0.9,0.55l-0.05,0.8L112.85,70.1z
		"/>
	
		<radialGradient id="SVGID_15_" cx="119.7998" cy="67.2998" r="4.75" gradientTransform="matrix(1 0 0 -1 0 134.5996)" gradientUnits="userSpaceOnUse">
		<stop  offset="0" style="stop-color:#635C42"/>
		<stop  offset="1" style="stop-color:#96885E"/>
	</radialGradient>
	<path style="fill-rule:evenodd;clip-rule:evenodd;fill:url(#SVGID_15_);" d="M114.4,64v-0.6h3.45L120,68l2.3-4.6h2.95V64
		c-0.467,0-0.75,0.083-0.85,0.25c-0.066,0.2-0.1,0.566-0.1,1.1v3.95c0,0.533,0.034,0.9,0.1,1.101c0.1,0.166,0.383,0.25,0.85,0.25
		V71.3h-3.75V70.65c0.533,0,0.8-0.184,0.8-0.551v-5.25l-2.6,5.301h-0.9l-2.5-5.351l0.05,5.3c0,0.367,0.25,0.551,0.75,0.551V71.3
		h-2.7V70.65c0.434,0,0.7-0.084,0.8-0.25c0.1-0.134,0.15-0.5,0.15-1.101v-3.95c0-0.566-0.05-0.933-0.15-1.1
		C115.1,64.083,114.833,64,114.4,64z"/>
	
		<radialGradient id="SVGID_16_" cx="128.6499" cy="67.2998" r="3.4375" gradientTransform="matrix(1 0 0 -1 0 134.5996)" gradientUnits="userSpaceOnUse">
		<stop  offset="0" style="stop-color:#635C42"/>
		<stop  offset="1" style="stop-color:#96885E"/>
	</radialGradient>
	<path style="fill-rule:evenodd;clip-rule:evenodd;fill:url(#SVGID_16_);" d="M129.75,64c-0.633,0-0.95,0.184-0.95,0.55v4.75
		c0,0.566,0.05,0.9,0.15,1c0.1,0.134,0.35,0.2,0.75,0.2l0.55-0.05c0.233,0,0.35-0.05,0.35-0.15c0.066-0.2,0.1-0.467,0.1-0.8v-0.2
		h0.8v2h-5.65V70.65c0.6,0,0.9-0.184,0.9-0.551l0.05-0.8l-0.05-4.75c0-0.366-0.3-0.55-0.9-0.55v-0.6h3.9V64z"/>
	
		<radialGradient id="SVGID_17_" cx="135.7998" cy="67.2002" r="4.0125" gradientTransform="matrix(1 0 0 -1 0 134.4004)" gradientUnits="userSpaceOnUse">
		<stop  offset="0" style="stop-color:#635C42"/>
		<stop  offset="1" style="stop-color:#96885E"/>
	</radialGradient>
	<path style="fill-rule:evenodd;clip-rule:evenodd;fill:url(#SVGID_17_);" d="M136.05,63.15l2.7,6.55
		c0.233,0.6,0.55,0.916,0.95,0.95V71.3h-3.5V70.65c0.466,0,0.7-0.067,0.7-0.2l-0.2-0.65l-0.35-0.8h-2.6l-0.5,1.4
		c0,0.166,0.2,0.25,0.6,0.25V71.3h-2V70.65l0.25-0.051c0.267,0,0.517-0.3,0.75-0.899l2.55-6.55H136.05z M136.1,68.4l-1.05-2.551
		L134,68.4H136.1z"/>
	
		<radialGradient id="SVGID_18_" cx="149.5" cy="66.2998" r="5.204" gradientTransform="matrix(1 0 0 -1 0 132.5996)" gradientUnits="userSpaceOnUse">
		<stop  offset="0" style="stop-color:#635C42"/>
		<stop  offset="1" style="stop-color:#96885E"/>
	</radialGradient>
	<path style="fill-rule:evenodd;clip-rule:evenodd;fill:url(#SVGID_18_);" d="M154.9,61.4V62c-0.467,0-0.733,0.083-0.801,0.25
		c-0.1,0.167-0.149,0.533-0.149,1.1v5.95c0,0.601,0.05,0.967,0.149,1.101c0.067,0.166,0.334,0.25,0.801,0.25V71.3h-3.7V70.65
		c0.5,0,0.75-0.184,0.75-0.551L152,63.15l-2.65,6.699h-0.85l-2.5-6.8v7.05c0,0.367,0.267,0.551,0.8,0.551V71.3h-2.75V70.65
		c0.467,0,0.75-0.084,0.85-0.25c0.067-0.2,0.1-0.567,0.1-1.101v-5.95c0-0.533-0.033-0.899-0.1-1.1c-0.1-0.167-0.383-0.25-0.85-0.25
		v-0.6h3.45l2.2,5.8l2.25-5.8H154.9z"/>
	
		<radialGradient id="SVGID_19_" cx="164.9502" cy="67.2998" r="3.95" gradientTransform="matrix(1 0 0 -1 0 134.5996)" gradientUnits="userSpaceOnUse">
		<stop  offset="0" style="stop-color:#635C42"/>
		<stop  offset="1" style="stop-color:#96885E"/>
	</radialGradient>
	<path style="fill-rule:evenodd;clip-rule:evenodd;fill:url(#SVGID_19_);" d="M161.05,63.4H165c2.1,0,3.15,0.633,3.15,1.899
		c0,0.934-0.534,1.601-1.601,2l1.3,2.4c0.334,0.533,0.684,0.85,1.051,0.95V71.3h-2.4l-1.9-3.7h-0.649l0.05,2.5
		c0,0.2,0.033,0.334,0.1,0.4l0.65,0.15V71.3h-3.7V70.65c0.601,0,0.9-0.184,0.9-0.551l0.05-0.8l-0.05-4.75c0-0.366-0.3-0.55-0.9-0.55
		V63.4z M163.95,64v2.95h0.35c1.233,0,1.851-0.517,1.851-1.55c0-0.934-0.551-1.4-1.65-1.4H163.95z"/>
	
		<radialGradient id="SVGID_20_" cx="172.4502" cy="67.2998" r="3.65" gradientTransform="matrix(1 0 0 -1 0 134.5996)" gradientUnits="userSpaceOnUse">
		<stop  offset="0" style="stop-color:#635C42"/>
		<stop  offset="1" style="stop-color:#96885E"/>
	</radialGradient>
	<path style="fill-rule:evenodd;clip-rule:evenodd;fill:url(#SVGID_20_);" d="M174.6,64.7c0-0.634-0.416-0.95-1.25-0.95
		c-1.133,0-1.699,1.2-1.699,3.6c0,2.334,0.666,3.5,2,3.5c0.633,0,1.216-0.149,1.75-0.449V71.1c-0.634,0.301-1.367,0.45-2.2,0.45
		c-2.5,0-3.75-1.416-3.75-4.25c0-2.767,1.233-4.149,3.7-4.149c0.767,0,1.517,0.116,2.25,0.35v1.85H174.6V64.7z"/>
	
		<radialGradient id="SVGID_21_" cx="180.1504" cy="67.2998" r="3.95" gradientTransform="matrix(1 0 0 -1 0 134.5996)" gradientUnits="userSpaceOnUse">
		<stop  offset="0" style="stop-color:#635C42"/>
		<stop  offset="1" style="stop-color:#96885E"/>
	</radialGradient>
	<path style="fill-rule:evenodd;clip-rule:evenodd;fill:url(#SVGID_21_);" d="M183.15,69.3l0.05,0.8c0,0.367,0.3,0.551,0.899,0.551
		V71.3h-2.949v-4h-2v4h-2.9V70.65c0.6,0,0.9-0.184,0.9-0.551l0.05-0.8l-0.05-4.75c0-0.366-0.301-0.55-0.9-0.55v-0.6h2.9v3.1h2v-1.95
		c0-0.366-0.301-0.55-0.9-0.55v-0.6h3.85V64c-0.6,0-0.899,0.184-0.899,0.55L183.15,69.3z"/>
	
		<radialGradient id="SVGID_22_" cx="191.9502" cy="66.2998" r="4.1875" gradientTransform="matrix(1 0 0 -1 0 132.5996)" gradientUnits="userSpaceOnUse">
		<stop  offset="0" style="stop-color:#635C42"/>
		<stop  offset="1" style="stop-color:#96885E"/>
	</radialGradient>
	<path style="fill-rule:evenodd;clip-rule:evenodd;fill:url(#SVGID_22_);" d="M194.35,62.5c0-0.333-0.283-0.5-0.85-0.5h-1.85v3.75
		h1.55c0.267,0,0.399-0.15,0.399-0.45v-0.25h0.601V67H193.6v-0.25c0-0.267-0.133-0.4-0.399-0.4l-0.5-0.05h-1.05v3
		c0,0.601,0.033,0.967,0.1,1.101c0.066,0.166,0.4,0.25,1,0.25H194c0.2,0,0.333-0.067,0.4-0.2l0.05-1h0.75v1.85h-6.5V70.65
		c0.6,0,0.899-0.184,0.899-0.551l0.051-0.8l-0.051-6.75c0-0.366-0.3-0.55-0.899-0.55v-0.6h6.3v1.75h-0.65V62.5z"/>
	
		<radialGradient id="SVGID_23_" cx="199.5" cy="67.2998" r="3.9505" gradientTransform="matrix(1 0 0 -1 0 134.5996)" gradientUnits="userSpaceOnUse">
		<stop  offset="0" style="stop-color:#635C42"/>
		<stop  offset="1" style="stop-color:#96885E"/>
	</radialGradient>
	<path style="fill-rule:evenodd;clip-rule:evenodd;fill:url(#SVGID_23_);" d="M201.25,63.4h2.15V64c-0.4,0.033-0.817,0.35-1.25,0.95
		l-1.5,2.399l2,2.851c0.233,0.3,0.483,0.45,0.75,0.45V71.3h-3.5V70.65h0.25c0.3,0,0.449-0.067,0.449-0.2
		c0-0.101-0.149-0.351-0.449-0.75l-1.351-2l-1.25,2c-0.3,0.467-0.45,0.733-0.45,0.8c0,0.1,0.134,0.15,0.4,0.15h0.2V71.3h-2.15V70.65
		c0.367,0,0.684-0.184,0.95-0.551l0.3-0.399L198.4,67.1l-1.9-2.649c-0.134-0.233-0.45-0.384-0.95-0.45v-0.6h3.75V64H198.9
		c-0.233,0.066-0.351,0.134-0.351,0.2c0,0.1,0.15,0.35,0.45,0.75l1.25,1.8l1.15-1.8c0.267-0.367,0.399-0.617,0.399-0.75
		c0-0.101-0.083-0.167-0.25-0.2h-0.3V63.4z"/>
	
		<radialGradient id="SVGID_24_" cx="207.3496" cy="67.2998" r="3.775" gradientTransform="matrix(1 0 0 -1 0 134.5996)" gradientUnits="userSpaceOnUse">
		<stop  offset="0" style="stop-color:#635C42"/>
		<stop  offset="1" style="stop-color:#96885E"/>
	</radialGradient>
	<path style="fill-rule:evenodd;clip-rule:evenodd;fill:url(#SVGID_24_);" d="M203.8,63.4h3.9c2.133,0,3.2,0.699,3.2,2.1
		c0,1.733-1.267,2.6-3.801,2.6H206.7v1.2c0,0.533,0.033,0.9,0.1,1.101c0.134,0.133,0.3,0.199,0.5,0.199l0.5,0.051V71.3h-4V70.65
		c0.601,0,0.9-0.184,0.9-0.551v-5.55c0-0.3-0.3-0.483-0.9-0.55V63.4z M206.7,64v3.45h0.35c1.233,0,1.851-0.617,1.851-1.851
		c0-1.066-0.567-1.6-1.7-1.6H206.7z"/>
	
		<radialGradient id="SVGID_25_" cx="215.5498" cy="67.2998" r="3.9505" gradientTransform="matrix(1 0 0 -1 0 134.5996)" gradientUnits="userSpaceOnUse">
		<stop  offset="0" style="stop-color:#635C42"/>
		<stop  offset="1" style="stop-color:#96885E"/>
	</radialGradient>
	<path style="fill-rule:evenodd;clip-rule:evenodd;fill:url(#SVGID_25_);" d="M214.55,64v2.95h0.3c1.267,0,1.9-0.517,1.9-1.55
		c0-0.934-0.566-1.4-1.7-1.4H214.55z M212.55,69.3l-0.05-4.75c0-0.366-0.3-0.55-0.9-0.55v-0.6h4c2.067,0,3.101,0.633,3.101,1.899
		c0,0.934-0.533,1.601-1.601,2l1.301,2.4c0.333,0.533,0.683,0.85,1.05,0.95V71.3h-2.4l-1.899-3.7h-0.601v2.5
		c0,0.2,0.033,0.334,0.101,0.4l0.699,0.15V71.3h-3.75V70.65c0.601,0,0.9-0.184,0.9-0.551L212.55,69.3z"/>
	
		<radialGradient id="SVGID_26_" cx="223" cy="67.2998" r="3.6" gradientTransform="matrix(1 0 0 -1 0 134.5996)" gradientUnits="userSpaceOnUse">
		<stop  offset="0" style="stop-color:#635C42"/>
		<stop  offset="1" style="stop-color:#96885E"/>
	</radialGradient>
	<path style="fill-rule:evenodd;clip-rule:evenodd;fill:url(#SVGID_26_);" d="M222.75,64v2.7h1.45c0.267,0,0.399-0.15,0.399-0.45V66
		h0.601v2H224.6v-0.25c0-0.267-0.133-0.4-0.399-0.4l-0.5-0.05h-0.95v2c0,0.467,0.033,0.834,0.1,1.101
		c0.067,0.166,0.384,0.25,0.95,0.25h1.2c0.233,0,0.384-0.067,0.45-0.2l0.05-1h0.7v1.85h-6.351V70.65c0.601,0,0.9-0.184,0.9-0.551
		v-5.55c0-0.366-0.3-0.55-0.9-0.55v-0.6H226v1.75h-0.65V64.5c0-0.333-0.283-0.5-0.85-0.5H222.75z"/>
	
		<radialGradient id="SVGID_27_" cx="229.8496" cy="67.2998" r="3.5875" gradientTransform="matrix(1 0 0 -1 0 134.5996)" gradientUnits="userSpaceOnUse">
		<stop  offset="0" style="stop-color:#635C42"/>
		<stop  offset="1" style="stop-color:#96885E"/>
	</radialGradient>
	<path style="fill-rule:evenodd;clip-rule:evenodd;fill:url(#SVGID_27_);" d="M232.2,63.5v1.45H231.6c-0.033-0.8-0.5-1.2-1.399-1.2
		c-0.934,0-1.4,0.384-1.4,1.15c0,0.433,0.417,0.85,1.25,1.25l0.601,0.3c1.366,0.7,2.05,1.583,2.05,2.649
		c0,0.7-0.283,1.284-0.851,1.75c-0.633,0.467-1.416,0.7-2.35,0.7c-0.7,0-1.533-0.1-2.5-0.3v-1.7h0.65c0,0.9,0.6,1.351,1.8,1.351
		c1,0,1.5-0.434,1.5-1.301c0-0.433-0.417-0.883-1.25-1.35l-0.601-0.3c-1.366-0.767-2.05-1.617-2.05-2.55c0-1.5,0.95-2.25,2.851-2.25
		C230.634,63.15,231.4,63.267,232.2,63.5z"/>
	
		<radialGradient id="SVGID_28_" cx="236.5508" cy="67.2998" r="3.5871" gradientTransform="matrix(1 0 0 -1 0 134.5996)" gradientUnits="userSpaceOnUse">
		<stop  offset="0" style="stop-color:#635C42"/>
		<stop  offset="1" style="stop-color:#96885E"/>
	</radialGradient>
	<path style="fill-rule:evenodd;clip-rule:evenodd;fill:url(#SVGID_28_);" d="M238.9,64.95h-0.65c0-0.8-0.467-1.2-1.4-1.2
		c-0.899,0-1.35,0.384-1.35,1.15c0,0.433,0.417,0.85,1.25,1.25l0.55,0.3c1.4,0.7,2.101,1.583,2.101,2.649
		c0,0.7-0.284,1.284-0.851,1.75c-0.633,0.467-1.434,0.7-2.399,0.7c-0.667,0-1.483-0.1-2.45-0.3v-1.7h0.649
		c0,0.9,0.584,1.351,1.75,1.351c1,0,1.5-0.434,1.5-1.301c0-0.433-0.399-0.883-1.199-1.35l-0.601-0.3
		c-1.366-0.733-2.05-1.584-2.05-2.55c0-1.5,0.95-2.25,2.85-2.25c0.733,0,1.5,0.116,2.301,0.35V64.95z"/>
	
		<radialGradient id="SVGID_29_" cx="247.5996" cy="66.2998" r="4.25" gradientTransform="matrix(1 0 0 -1 0 132.5996)" gradientUnits="userSpaceOnUse">
		<stop  offset="0" style="stop-color:#635C42"/>
		<stop  offset="1" style="stop-color:#96885E"/>
	</radialGradient>
	<path style="fill-rule:evenodd;clip-rule:evenodd;fill:url(#SVGID_29_);" d="M248.05,62c-0.6,0-0.899,0.184-0.899,0.55v6.75
		c0,0.533,0.033,0.851,0.1,0.95c0.066,0.167,0.417,0.25,1.05,0.25h0.8l0.45-0.05c0.4,0,0.601-0.184,0.601-0.55V69.55l0.05-0.25h0.8
		v2h-6.8V70.65c0.6,0,0.899-0.184,0.899-0.551l0.051-0.8l-0.051-6.75c0-0.366-0.3-0.55-0.899-0.55v-0.6h3.85V62z"/>
	
		<radialGradient id="SVGID_30_" cx="253.5498" cy="67.2998" r="3.125" gradientTransform="matrix(1 0 0 -1 0 134.5996)" gradientUnits="userSpaceOnUse">
		<stop  offset="0" style="stop-color:#635C42"/>
		<stop  offset="1" style="stop-color:#96885E"/>
	</radialGradient>
	<path style="fill-rule:evenodd;clip-rule:evenodd;fill:url(#SVGID_30_);" d="M254.6,70.1c0,0.367,0.301,0.551,0.9,0.551V71.3h-3.9
		V70.65c0.601,0,0.9-0.184,0.9-0.551l0.05-4.75l-0.05-0.8c0-0.366-0.3-0.55-0.9-0.55v-0.6h3.9V64c-0.6,0-0.9,0.184-0.9,0.55
		l-0.05,0.8L254.6,70.1z"/>
	
		<radialGradient id="SVGID_31_" cx="260.0498" cy="67.3496" r="3.9625" gradientTransform="matrix(1 0 0 -1 0 134.6992)" gradientUnits="userSpaceOnUse">
		<stop  offset="0" style="stop-color:#635C42"/>
		<stop  offset="1" style="stop-color:#96885E"/>
	</radialGradient>
	<path style="fill-rule:evenodd;clip-rule:evenodd;fill:url(#SVGID_31_);" d="M263.05,71.35h-1l-4-5.05l0.05,3.8
		c0,0.367,0.301,0.551,0.9,0.551V71.3h-2.9V70.65c0.467,0,0.75-0.084,0.851-0.25c0.066-0.2,0.1-0.567,0.1-1.101v-3.95
		c0-0.533-0.033-0.899-0.1-1.1C256.85,64.083,256.566,64,256.1,64v-0.6h1.95l4,4.899L262,64.55c0-0.366-0.3-0.55-0.9-0.55v-0.6
		h2.851V64c-0.601,0-0.9,0.184-0.9,0.55V71.35z"/>
	
		<radialGradient id="SVGID_32_" cx="267.7998" cy="67.2998" r="3.6" gradientTransform="matrix(1 0 0 -1 0 134.5996)" gradientUnits="userSpaceOnUse">
		<stop  offset="0" style="stop-color:#635C42"/>
		<stop  offset="1" style="stop-color:#96885E"/>
	</radialGradient>
	<path style="fill-rule:evenodd;clip-rule:evenodd;fill:url(#SVGID_32_);" d="M269.25,64h-1.7v2.7H269c0.233,0,0.35-0.15,0.35-0.45
		V66H270v2h-0.65v-0.25c0-0.267-0.116-0.4-0.35-0.4l-0.5-0.05h-0.95v2c0,0.601,0.033,0.967,0.101,1.101
		c0.066,0.166,0.383,0.25,0.949,0.25h1.2c0.2,0,0.334-0.067,0.4-0.2l0.05-1H271v1.85h-6.4V70.65c0.601,0,0.9-0.184,0.9-0.551
		l0.05-0.8l-0.05-4.75c0-0.366-0.3-0.55-0.9-0.55v-0.6h6.2v1.75h-0.649V64.5C270.15,64.167,269.85,64,269.25,64z"/>
	
		<radialGradient id="SVGID_33_" cx="158.0498" cy="67.2998" r="3.125" gradientTransform="matrix(1 0 0 -1 0 134.5996)" gradientUnits="userSpaceOnUse">
		<stop  offset="0" style="stop-color:#635C42"/>
		<stop  offset="1" style="stop-color:#96885E"/>
	</radialGradient>
	<path style="fill-rule:evenodd;clip-rule:evenodd;fill:url(#SVGID_33_);" d="M160,64c-0.6,0-0.9,0.184-0.9,0.55l-0.05,0.8
		l0.05,4.75c0,0.367,0.301,0.551,0.9,0.551V71.3h-3.85V70.65c0.6,0,0.899-0.184,0.899-0.551v-5.55c0-0.366-0.3-0.55-0.899-0.55v-0.6
		H160V64z"/>
</g>
<g>
	
		<radialGradient id="SVGID_34_" cx="77.1499" cy="34.75" r="6.325" gradientTransform="matrix(1 0 0 -1 0 69.5)" gradientUnits="userSpaceOnUse">
		<stop  offset="0" style="stop-color:#635C42"/>
		<stop  offset="1" style="stop-color:#96885E"/>
	</radialGradient>
	<path style="fill-rule:evenodd;clip-rule:evenodd;fill:url(#SVGID_34_);" d="M80.7,30.25h-1.05c0-1.6-0.7-2.4-2.1-2.4
		c-1.333,0-2,0.783-2,2.35c0,0.867,0.583,1.7,1.75,2.5l0.9,0.6c2.167,1.4,3.25,3,3.25,4.8c0,1.333-0.434,2.433-1.3,3.3
		c-0.933,0.833-2.117,1.25-3.55,1.25c-1.1,0-2.333-0.2-3.7-0.6V39h1.05c0,1.767,0.867,2.65,2.6,2.65c1.467,0,2.2-0.867,2.2-2.6
		c0-1-0.6-1.883-1.8-2.65l-0.85-0.6c-2.133-1.3-3.2-2.866-3.2-4.7c0-1.267,0.4-2.283,1.2-3.05c0.767-0.767,1.8-1.15,3.1-1.15
		c0.933,0,2.1,0.217,3.5,0.65V30.25z"/>
	
		<radialGradient id="SVGID_35_" cx="88.2002" cy="36.25" r="5.825" gradientTransform="matrix(1 0 0 -1 0 72.5)" gradientUnits="userSpaceOnUse">
		<stop  offset="0" style="stop-color:#635C42"/>
		<stop  offset="1" style="stop-color:#96885E"/>
	</radialGradient>
	<path style="fill-rule:evenodd;clip-rule:evenodd;fill:url(#SVGID_35_);" d="M88.2,29.9c1.6,0,2.883,0.567,3.85,1.7
		c0.934,1.133,1.4,2.683,1.4,4.65c0,2-0.467,3.567-1.4,4.7c-0.966,1.133-2.267,1.7-3.9,1.7c-1.566,0-2.833-0.583-3.8-1.75
		c-0.934-1.133-1.4-2.683-1.4-4.65c0-1.9,0.466-3.45,1.4-4.65C85.317,30.467,86.6,29.9,88.2,29.9z M90.2,36.2
		c0-3.567-0.667-5.35-2-5.35c-1.333,0-2,1.8-2,5.4s0.683,5.4,2.05,5.4C89.55,41.65,90.2,39.833,90.2,36.2z"/>
	
		<radialGradient id="SVGID_36_" cx="102.8501" cy="36.25" r="7.1561" gradientTransform="matrix(1 0 0 -1 0 72.5)" gradientUnits="userSpaceOnUse">
		<stop  offset="0" style="stop-color:#635C42"/>
		<stop  offset="1" style="stop-color:#96885E"/>
	</radialGradient>
	<path style="fill-rule:evenodd;clip-rule:evenodd;fill:url(#SVGID_36_);" d="M109.6,33.25v6c0,0.9,0.066,1.467,0.2,1.7
		c0.1,0.233,0.5,0.35,1.2,0.35v0.95h-5.6V41.3c0.767,0,1.15-0.283,1.15-0.85l0.05-8l-3.9,8.1h-1.35l-3.75-8.1l0.05,8
		c0,0.566,0.383,0.85,1.15,0.85v0.95h-4.1V41.3c0.7,0,1.1-0.116,1.2-0.35c0.133-0.233,0.2-0.8,0.2-1.7v-6
		c0-0.867-0.067-1.417-0.2-1.65c-0.1-0.233-0.5-0.35-1.2-0.35v-1h5.2l3.3,7.1l3.4-7.1h4.4v1c-0.7,0-1.1,0.117-1.2,0.35
		C109.667,31.833,109.6,32.383,109.6,33.25z"/>
	
		<radialGradient id="SVGID_37_" cx="116.75" cy="36.25" r="5.425" gradientTransform="matrix(1 0 0 -1 0 72.5)" gradientUnits="userSpaceOnUse">
		<stop  offset="0" style="stop-color:#635C42"/>
		<stop  offset="1" style="stop-color:#96885E"/>
	</radialGradient>
	<path style="fill-rule:evenodd;clip-rule:evenodd;fill:url(#SVGID_37_);" d="M121.6,42.25h-9.65V41.3c0.933,0,1.4-0.283,1.4-0.85
		v-8.4c0-0.533-0.467-0.8-1.4-0.8v-1h9.35v2.65h-1V32c0-0.5-0.433-0.75-1.3-0.75h-2.6v4.1h2.2c0.333,0,0.5-0.233,0.5-0.7V34.3h1v3
		h-1v-0.35c0-0.434-0.167-0.65-0.5-0.65l-2.2-0.05v3c0,0.867,0.05,1.417,0.15,1.65c0.034,0.267,0.517,0.4,1.45,0.4l1.8-0.05
		c0.367,0,0.567-0.083,0.6-0.25c0.067-0.2,0.1-0.6,0.1-1.2v-0.3h1.1V42.25z"/>
	
		<radialGradient id="SVGID_38_" cx="130.8999" cy="36.3501" r="7.3875" gradientTransform="matrix(1 0 0 -1 0 72.7002)" gradientUnits="userSpaceOnUse">
		<stop  offset="0" style="stop-color:#635C42"/>
		<stop  offset="1" style="stop-color:#96885E"/>
	</radialGradient>
	<path style="fill-rule:evenodd;clip-rule:evenodd;fill:url(#SVGID_38_);" d="M126.55,32.05L128.4,38l2.75-7.6h1.4l2.65,7.75l2-6.55
		c0-0.233-0.35-0.35-1.05-0.35v-1h3.25v1c-0.467,0-0.783,0.05-0.95,0.15c-0.167,0.267-0.333,0.684-0.5,1.25l-3.05,9.75h-1.05
		l-3.1-8.3l-2.8,8.3h-1l-3.1-9.75c-0.3-0.933-0.8-1.4-1.5-1.4v-1h5.3v1c-0.8,0-1.2,0.1-1.2,0.3L126.55,32.05z"/>
	
		<radialGradient id="SVGID_39_" cx="146.1001" cy="36.25" r="5.9502" gradientTransform="matrix(1 0 0 -1 0 72.5)" gradientUnits="userSpaceOnUse">
		<stop  offset="0" style="stop-color:#635C42"/>
		<stop  offset="1" style="stop-color:#96885E"/>
	</radialGradient>
	<path style="fill-rule:evenodd;clip-rule:evenodd;fill:url(#SVGID_39_);" d="M152,30.25v1c-0.9,0-1.35,0.267-1.35,0.8v8.4
		c0,0.566,0.45,0.85,1.35,0.85v0.95h-4.4v-6h-3v6h-4.45V41.3c0.934,0,1.4-0.283,1.4-0.85v-8.4c0-0.533-0.466-0.8-1.4-0.8v-1h4.45
		v4.8h3l-0.05-3c0-0.533-0.45-0.8-1.35-0.8v-1H152z"/>
	
		<radialGradient id="SVGID_40_" cx="158.5" cy="36.1001" r="6.0375" gradientTransform="matrix(1 0 0 -1 0 72.2002)" gradientUnits="userSpaceOnUse">
		<stop  offset="0" style="stop-color:#635C42"/>
		<stop  offset="1" style="stop-color:#96885E"/>
	</radialGradient>
	<path style="fill-rule:evenodd;clip-rule:evenodd;fill:url(#SVGID_40_);" d="M158.9,29.9l4.05,10c0.333,0.867,0.816,1.333,1.45,1.4
		v0.95H159.1V41.3c0.7,0,1.051-0.1,1.051-0.3l-0.801-2.15h-3.899l-0.4,1.05c-0.233,0.5-0.35,0.85-0.35,1.05
		c0,0.233,0.283,0.35,0.85,0.35v0.95h-3V41.3l0.351-0.05c0.399,0,0.783-0.45,1.149-1.35l3.9-10H158.9z M158.95,37.9L157.35,34
		l-1.55,3.9H158.95z"/>
	
		<radialGradient id="SVGID_41_" cx="169.3496" cy="36.25" r="5.425" gradientTransform="matrix(1 0 0 -1 0 72.5)" gradientUnits="userSpaceOnUse">
		<stop  offset="0" style="stop-color:#635C42"/>
		<stop  offset="1" style="stop-color:#96885E"/>
	</radialGradient>
	<path style="fill-rule:evenodd;clip-rule:evenodd;fill:url(#SVGID_41_);" d="M165.55,33.3h-1v-3.05h9.601v3.05h-0.95v-0.25
		c0-0.6-0.033-1.033-0.101-1.3c-0.066-0.167-0.399-0.25-1-0.25h-1.25v8.35c0,0.6,0.034,1.033,0.101,1.3
		c0.133,0.2,0.35,0.3,0.649,0.3l0.7,0.05v0.75h-5.85V41.5l0.649-0.05c0.367,0,0.584-0.1,0.65-0.3c0.066-0.133,0.1-0.566,0.1-1.3
		V31.5h-1.199c-0.634,0-0.967,0.083-1,0.25c-0.067,0.267-0.101,0.7-0.101,1.3V33.3z"/>
	
		<radialGradient id="SVGID_42_" cx="185.2998" cy="34.75" r="6.325" gradientTransform="matrix(1 0 0 -1 0 69.5)" gradientUnits="userSpaceOnUse">
		<stop  offset="0" style="stop-color:#635C42"/>
		<stop  offset="1" style="stop-color:#96885E"/>
	</radialGradient>
	<path style="fill-rule:evenodd;clip-rule:evenodd;fill:url(#SVGID_42_);" d="M186.35,33.3c2.167,1.4,3.25,3,3.25,4.8
		c0,1.333-0.433,2.433-1.3,3.3c-0.934,0.833-2.116,1.25-3.55,1.25c-1.1,0-2.35-0.2-3.75-0.6V39h1.1c0,1.767,0.867,2.65,2.601,2.65
		c1.467,0,2.2-0.867,2.2-2.6c0-1-0.601-1.883-1.801-2.65l-0.85-0.6c-2.134-1.3-3.2-2.866-3.2-4.7c0-1.267,0.384-2.283,1.15-3.05
		c0.833-0.767,1.883-1.15,3.149-1.15c0.934,0,2.101,0.217,3.5,0.65v2.7h-1.1c0-1.6-0.684-2.4-2.05-2.4c-1.334,0-2,0.783-2,2.35
		c0,0.9,0.583,1.733,1.75,2.5L186.35,33.3z"/>
	
		<radialGradient id="SVGID_43_" cx="196.75" cy="36.4502" r="6.0519" gradientTransform="matrix(1 0 0 -1 0 72.9004)" gradientUnits="userSpaceOnUse">
		<stop  offset="0" style="stop-color:#635C42"/>
		<stop  offset="1" style="stop-color:#96885E"/>
	</radialGradient>
	<path style="fill-rule:evenodd;clip-rule:evenodd;fill:url(#SVGID_43_);" d="M202.65,31.25c-0.9,0.067-1.351,0.333-1.351,0.8
		l-0.05,5.45c0,3.434-1.45,5.15-4.35,5.15c-3.101,0-4.65-1.716-4.65-5.15l-0.05-5.45c0-0.533-0.467-0.8-1.4-0.8v-1h5.8v1
		c-0.866,0-1.3,0.267-1.3,0.8l-0.05,5.45c0,1.667,0.15,2.8,0.45,3.4c0.3,0.633,0.866,0.95,1.7,0.95c1.566,0,2.35-1.45,2.35-4.35
		l-0.05-5.45c0-0.466-0.434-0.733-1.3-0.8v-1h4.25V31.25z"/>
	
		<radialGradient id="SVGID_44_" cx="211.7998" cy="36.25" r="7.1564" gradientTransform="matrix(1 0 0 -1 0 72.5)" gradientUnits="userSpaceOnUse">
		<stop  offset="0" style="stop-color:#635C42"/>
		<stop  offset="1" style="stop-color:#96885E"/>
	</radialGradient>
	<path style="fill-rule:evenodd;clip-rule:evenodd;fill:url(#SVGID_44_);" d="M218.55,33.25v6c0,0.9,0.05,1.467,0.15,1.7
		c0.133,0.233,0.55,0.35,1.25,0.35v0.95h-5.601V41.3c0.767,0,1.15-0.283,1.15-0.85l0.05-8l-3.95,8.1h-1.3l-3.75-8.1v8
		c0,0.566,0.4,0.85,1.2,0.85v0.95h-4.15V41.3c0.733,0,1.15-0.116,1.25-0.35c0.134-0.333,0.2-0.9,0.2-1.7v-6
		c0-0.767-0.066-1.316-0.2-1.65c-0.133-0.233-0.55-0.35-1.25-0.35v-1h5.25l3.25,7.1l3.45-7.1h4.4v1c-0.7,0-1.117,0.117-1.25,0.35
		C218.6,31.867,218.55,32.417,218.55,33.25z"/>
	
		<radialGradient id="SVGID_45_" cx="226.25" cy="36.25" r="5.6841" gradientTransform="matrix(1 0 0 -1 0 72.5)" gradientUnits="userSpaceOnUse">
		<stop  offset="0" style="stop-color:#635C42"/>
		<stop  offset="1" style="stop-color:#96885E"/>
	</radialGradient>
	<path style="fill-rule:evenodd;clip-rule:evenodd;fill:url(#SVGID_45_);" d="M231.6,33.5c0,2.633-1.899,3.95-5.699,3.95H225.3v1.8
		c0,0.967,0.05,1.517,0.15,1.65c0.1,0.167,0.35,0.284,0.75,0.35l0.75,0.05v0.95h-6.05V41.3c0.899,0,1.35-0.283,1.35-0.85v-8.4
		c0-0.466-0.45-0.733-1.35-0.8v-1h5.899C230,30.25,231.6,31.333,231.6,33.5z M225.3,31.25v5.25h0.55c1.867,0,2.801-0.95,2.801-2.85
		c0-1.6-0.867-2.4-2.601-2.4H225.3z"/>
</g>
</svg>
