<?xml version="1.0" encoding="iso-8859-1"?>
<!-- Generator: Adobe Illustrator 16.0.0, SVG Export Plug-In . SVG Version: 6.00 Build 0)  -->
<!DOCTYPE svg PUBLIC "-//W3C//DTD SVG 1.1//EN" "http://www.w3.org/Graphics/SVG/1.1/DTD/svg11.dtd">
<svg version="1.1" id="FlashAICB" xmlns="http://www.w3.org/2000/svg" xmlns:xlink="http://www.w3.org/1999/xlink" x="0px" y="0px"
	 width="146.3px" height="202.546px" viewBox="0 0 146.3 202.546" style="enable-background:new 0 0 146.3 202.546;"
	 xml:space="preserve">
<g>
	<g>
		<path style="fill-rule:evenodd;clip-rule:evenodd;fill:#64725F;" d="M124.15,26.146l-0.551-0.1l0.95,0.65h-0.1
			c-0.134-0.034-0.25-0.067-0.351-0.1c-0.633-0.167-1.383-0.317-2.25-0.45c-0.267-0.033-0.517-0.066-0.75-0.1
			c-0.3-0.1-0.616-0.216-0.949-0.35c-0.101-0.067-0.2-0.117-0.301-0.15c-1.066-0.466-1.933-0.75-2.6-0.85
			c-0.9-0.167-2.033-0.25-3.4-0.25c-0.066,0-0.116,0-0.149,0c-1.467,0.033-2.55,0.05-3.25,0.05l0.2-0.2
			c0.033-0.066,0.1-0.117,0.199-0.15c0.034-0.066,0.101-0.117,0.2-0.15l0.4-0.15c0.3-0.133,0.649-0.217,1.05-0.25
			c0.033,0,0.083,0,0.15,0c0.033,0,0.066,0,0.1,0s0.066,0,0.1,0c0.634-0.033,1.567-0.05,2.801-0.05c0.3-0.9-0.5-1.6-2.4-2.1
			c-2.167-0.4-3.45-0.684-3.85-0.85c-1.134-0.4-2.567-1.1-4.301-2.1c-0.966-0.567-2.283-1.167-3.949-1.8
			c-2.167-0.833-3.517-1.367-4.051-1.6c-1.8-0.833-4.05-1.25-6.75-1.25c-3.066,0.167-5.383,0.217-6.949,0.15
			c0.267-1.167,2.1-2.05,5.5-2.65c0.267-0.033,0.983-0.117,2.149-0.25c1.066-0.2,1.684-0.5,1.851-0.9
			c0.533-1.333-4-2.633-13.601-3.9c-0.166-1.167-0.35-1.867-0.55-2.1c-0.3-0.367-1.083-0.617-2.35-0.75
			c-1.567-0.133-3.567-0.217-6-0.25c-4-0.034-6.017-0.05-6.05-0.05c-2.367-0.1-4.15-0.167-5.35-0.2
			c-1.333-0.034-2.533-0.017-3.6,0.05c1.333-0.4,3.434-1,6.3-1.8c0.133-0.034,0.25-0.067,0.35-0.1c0.8-0.1,1.75-0.217,2.85-0.35
			c2.7-0.233,5.667-0.383,8.9-0.45c2.601-0.066,4.967-0.05,7.101,0.05c1.8,0.066,3.133,0.183,4,0.35c0.6,0.333,1.316,0.667,2.149,1
			c0.334,0.133,0.684,0.267,1.05,0.4l2.95,1.4l32.05,22.2c0.134,0,0.267,0,0.4,0h0.05l0.65,0.45H124.15z"/>
		<path style="fill-rule:evenodd;clip-rule:evenodd;fill:#576252;" d="M48.6,6.146c0.4-0.3,0.883-0.6,1.45-0.9
			c1.167-0.633,2.333-1.2,3.5-1.7c0.167-0.066,0.784-0.25,1.85-0.55c1.067-0.067,2.267-0.083,3.6-0.05c1.2,0.033,2.983,0.1,5.35,0.2
			c0.033,0,2.05,0.017,6.05,0.05c2.434,0.033,4.433,0.117,6,0.25c1.267,0.133,2.05,0.383,2.35,0.75c0.2,0.233,0.384,0.933,0.55,2.1
			c9.601,1.267,14.134,2.567,13.601,3.9c-0.167,0.4-0.784,0.7-1.851,0.9c-1.166,0.133-1.883,0.217-2.149,0.25
			c-3.4,0.6-5.233,1.483-5.5,2.65c1.566,0.067,3.883,0.017,6.949-0.15c2.7,0,4.95,0.417,6.75,1.25
			c0.534,0.233,1.884,0.767,4.051,1.6c1.666,0.633,2.983,1.233,3.949,1.8c1.733,1,3.167,1.7,4.301,2.1
			c0.399,0.167,1.683,0.45,3.85,0.85c1.9,0.5,2.7,1.2,2.4,2.1c-1.233,0-2.167,0.017-2.801,0.05c-0.033,0-0.066,0-0.1,0
			s-0.066,0-0.1,0c-0.067,0-0.117,0-0.15,0c-0.4,0.033-0.75,0.117-1.05,0.25l-0.4,0.15c-0.1,0.033-0.166,0.083-0.2,0.15
			c-0.1,0.033-0.166,0.083-0.199,0.15l-0.2,0.2c0.7,0,1.783-0.017,3.25-0.05c0.033,0,0.083,0,0.149,0c1.367,0,2.5,0.083,3.4,0.25
			c0.667,0.1,1.533,0.383,2.6,0.85c0.101,0.034,0.2,0.083,0.301,0.15c0.333,0.133,0.649,0.25,0.949,0.35
			c0.233,0.034,0.483,0.067,0.75,0.1c0.867,0.133,1.617,0.283,2.25,0.45c0.101,0.033,0.217,0.066,0.351,0.1
			c0.366,0.1,0.684,0.216,0.95,0.35l0.1,0.05l-1.4-0.5c0,0.4,0,0.8,0,1.2c-0.033,0.8-0.1,1.517-0.199,2.15
			c-0.034,0.133-0.067,0.267-0.101,0.4c-0.633,2.867-0.967,4.816-1,5.85c-0.066,1.833-0.166,3.2-0.3,4.1
			c-0.566,0.067-1.684,0.333-3.35,0.8c-1.434,0.4-2.551,0.617-3.351,0.65H96.4c-0.2,0-0.867,0.117-2,0.35
			c-0.801,0.167-1.45,0.2-1.95,0.1c1.267,0.867,3.883,1.167,7.85,0.9c3.834,0.433,6.5,0.65,8,0.65h12.5l0.5-1.5l-0.149,0.5h0.649
			l0.3-0.3c-0.3,1.267-0.75,2.533-1.35,3.8c-1.233,2.633-1.917,4.083-2.05,4.35c-0.867,1.566-1.834,2.816-2.9,3.75
			c-1,0.867-2.5,2.1-4.5,3.7c-2.033,1.633-3.533,2.867-4.5,3.7c-4,3.467-7.366,5.633-10.1,6.5l-2.851,0.8
			c-0.566-0.767-0.916-1.683-1.05-2.75c0-0.133,0-1.15,0-3.05v-9.5v-1.3l-0.149,1.3H91.8c-0.434,0.533-0.633,1.333-0.6,2.4
			c0.066,1.6,0.1,2.45,0.1,2.55l-0.2,1.85l-0.3,1.2c-0.733,2.8-1.35,4.767-1.85,5.9c0,0.033-0.267,0.783-0.8,2.25
			c-2.934,0.333-4.917,0.833-5.95,1.5c-1.733,0.367-2.733,0.8-3,1.3c-0.167,0.333-0.15,0.633,0.05,0.9
			c-0.2,0.5-0.384,1.066-0.55,1.7c-0.033,0.2-0.066,0.417-0.101,0.65c-0.3,0.7-0.683,1.483-1.149,2.35
			c-1.233,2.367-2.25,3.667-3.05,3.9c-1-4.233-1.217-8.9-0.65-14l0.15-1c2.866-11.267,5.683-22.217,8.449-32.85l0.2-0.1l5.45-3.15
			c4.667-2.333,9.217-3.934,13.65-4.8c4.333-0.833,9.183-1.066,14.55-0.7c-1.167-0.233-2.684-0.467-4.55-0.7
			c-0.167-0.033-0.334-0.066-0.5-0.1c-0.601-0.066-1.267-0.133-2-0.2c-2.334,0-4.184,0.033-5.551,0.1
			c-0.899,0.033-1.583,0.083-2.05,0.15c-0.6,0.066-1.416,0.25-2.45,0.55c-1.133,0.3-1.949,0.483-2.449,0.55
			c-3.233,0.5-5.25,0.783-6.051,0.85c-2.133,0.167-3.583,0.067-4.35-0.3c-0.434-0.233-0.667-0.517-0.7-0.85
			c-1.566-0.133-3.2-0.533-4.899-1.2c-0.733-0.267-1.717-0.7-2.95-1.3c-1.233-0.5-2.601-1.167-4.101-2
			c-1.7-0.933-4.133-2.167-7.3-3.7c-3.533-1.7-6.017-2.934-7.45-3.7c-2.1-1.133-3.983-2.3-5.65-3.5l-3-2.4
			C50.033,7.713,49.5,7.146,48.6,6.146z M98.15,46.746c-0.434,0.567-1.034,0.7-1.801,0.4c-0.1-0.333-0.116-0.633-0.05-0.9l0.5-2.5
			c-0.633,0.433-0.967,1.233-1,2.4c-0.066,1.1,0.134,1.967,0.601,2.6c0.433,0.6,0.833,0.917,1.199,0.95
			c0.267,0,0.801-0.184,1.601-0.55c0.267-1.333,0.184-2.2-0.25-2.6c0.866-0.333,1.133-1.083,0.8-2.25
			c-0.634-0.233-1.267-0.233-1.9,0c-0.133,0.367-0.149,0.684-0.05,0.95l-0.5-0.5c-0.566,0.533-0.717,1.167-0.45,1.9
			C97.35,46.746,97.783,46.779,98.15,46.746z M105.3,44.246c-0.633,0.4-0.983,0.983-1.05,1.75L105.3,44.246z M104.85,48.196
			c0.534,0.2,1.167,0.183,1.9-0.05c0.167-0.267,0.167-0.533,0-0.8l-2.4-0.2c-0.1-0.4-0.133-0.783-0.1-1.15l-0.45,0.75
			C103.934,47.479,104.283,47.963,104.85,48.196z M105.85,46.146c0.467,0.2,0.917,0.2,1.351,0c0.3-0.633,0.166-1.1-0.4-1.4h-1
			C105.7,45.146,105.717,45.613,105.85,46.146z M114.35,45.446c-0.166,0.367-0.149,0.783,0.051,1.25c0.267,0.167,0.533,0.167,0.8,0
			c0.166-0.5,0.2-0.983,0.1-1.45v-0.5C114.833,44.779,114.517,45.013,114.35,45.446z M115.25,46.846c-0.9,0.1-1.533-0.15-1.9-0.75
			c-0.333-0.633-0.017-1.083,0.95-1.35l-2.5,0.5c-0.1,1.233,0.167,2,0.8,2.3c0.467,0.233,1.351,0.267,2.65,0.1
			C115.417,47.379,115.417,47.113,115.25,46.846z M92.4,55.296l0.199-0.9l0.051-0.65H92.8L92.4,55.296z M97.05,55.196
			c-0.399,0.1-0.8,0.083-1.2-0.05l-0.05-0.35c-0.133,1.667,0.351,2.434,1.45,2.3c1.1-0.1,1.434-0.833,1-2.2
			c0.1-0.733,0.083-1.433-0.05-2.1c-0.5-0.133-0.967-0.15-1.4-0.05v-0.5c-0.533,0.233-0.883,0.55-1.05,0.95
			c-0.167,0.367-0.167,0.716,0,1.05l0.1,0.2C96.15,54.846,96.55,55.096,97.05,55.196z M97.95,61.746
			c-0.533-0.567-1.217-0.55-2.05,0.05c-1.2,0.934-1.367,1.867-0.5,2.8c0.767,0.867,1.733,1.25,2.899,1.15l-0.649-0.95l1.05-0.15
			c0.233-0.9,0.066-1.783-0.5-2.65l0.1-0.25H97.95z M96.5,63.196l-0.15-0.05l-0.05-0.2L96.5,63.196z M43.3,102.496
			c0.4,0.233,0.417,0.583,0.05,1.05c-0.4,0.434-0.817,0.566-1.25,0.4c-0.167-1.034-0.017-1.684,0.45-1.95L43.3,102.496z
			 M35.8,99.246c0,0.833-0.017,1.317-0.05,1.45c-0.233,0.066-0.55,0.05-0.95-0.05c-0.466-0.133-0.783-0.2-0.95-0.2
			c-0.133-0.367,0.1-0.85,0.7-1.45L35.8,99.246z M33,134.896c-0.233,0.1-0.45,0.1-0.65,0c-0.133-0.267-0.067-0.5,0.2-0.7l0.5-1
			c0.167-0.066,0.317-0.05,0.45,0.05c0.133,0.267,0.083,0.55-0.15,0.85C33.083,134.396,32.967,134.663,33,134.896z M28.8,121.696
			h0.5c0.467,0.5,0.617,1.149,0.45,1.95c-0.5,0.066-0.983,0.083-1.45,0.05c-0.167,0-0.316-0.017-0.45-0.05
			c-0.133-0.334-0.083-0.7,0.15-1.101C28.2,122.112,28.467,121.829,28.8,121.696z M27.55,128.446l-0.05,1.2
			c-0.3,0.133-0.6,0.133-0.9,0c-0.1-0.233-0.117-0.467-0.05-0.7c0.067-0.267,0.233-0.434,0.5-0.5H27.55z M29.9,141.196l-0.2-0.05
			c-0.167-0.4-0.167-0.817,0-1.25l0.3-0.051h1.3c0.133,0.467,0.05,0.834-0.25,1.101c-0.267,0.233-0.633,0.316-1.1,0.25H29.9z
			 M21.65,143.546l1.25,0.05c0.133,0.467,0.033,0.934-0.3,1.4c-0.333,0.533-0.75,0.7-1.25,0.5
			C21.15,144.596,21.25,143.946,21.65,143.546z M24.65,136.546c-0.267,0.601-0.7,0.8-1.3,0.601c0-0.4,0.2-0.834,0.6-1.301
			L24.65,136.546z M26.8,148.046c0.167-0.3,0.45-0.467,0.85-0.5l0.3,1c0.167,0.5,0.117,0.884-0.15,1.15
			c-0.233,0.267-0.6,0.3-1.1,0.1c-0.133-0.5-0.15-0.967-0.05-1.399L26.8,148.046z M23.65,155.846c0.067-0.333,0.283-0.55,0.65-0.649
			l0.65,0.35c0.1,0.367,0.083,0.783-0.05,1.25c-0.433,0.2-0.833,0.2-1.2,0C23.567,156.43,23.55,156.112,23.65,155.846z M17,151.796
			c0.267-0.633,0.367-1.166,0.3-1.6l0.65,0.35c0.433,0.2,0.533,0.617,0.3,1.25C17.85,151.963,17.433,151.963,17,151.796z"/>
		<path style="fill-rule:evenodd;clip-rule:evenodd;fill:#4C5648;" d="M97.05,55.196c0.4,0.066,0.783,0.05,1.15-0.05l0.05-0.25
			c0.434,1.367,0.1,2.1-1,2.2c-1.1,0.133-1.583-0.633-1.45-2.3l0.05,0.35C96.25,55.279,96.65,55.296,97.05,55.196z M92.4,55.296
			l0.399-1.55H92.65l0.149-1.3v1.3v9.5c0,1.9,0,2.917,0,3.05c0.134,1.067,0.483,1.983,1.05,2.75l2.851-0.8
			c2.733-0.867,6.1-3.033,10.1-6.5c0.967-0.833,2.467-2.067,4.5-3.7c2-1.6,3.5-2.833,4.5-3.7c1.066-0.934,2.033-2.184,2.9-3.75
			c0.133-0.267,0.816-1.717,2.05-4.35c0.6-1.267,1.05-2.533,1.35-3.8l-0.3,0.3h-0.649l0.149-0.5c-2.934,0-7.316,0.083-13.149,0.25
			c-5.467,0.167-9.667,0.25-12.601,0.25c1.4,0.033,2.983,0.15,4.75,0.35c-3.967,0.267-6.583-0.033-7.85-0.9
			c0.5,0.1,1.149,0.066,1.95-0.1c1.133-0.233,1.8-0.35,2-0.35H115.8c0.8-0.033,1.917-0.25,3.351-0.65
			c1.666-0.467,2.783-0.733,3.35-0.8c0.134-0.9,0.233-2.267,0.3-4.1c0.033-1.034,0.367-2.983,1-5.85
			c0.033-0.133,0.066-0.267,0.101-0.4c0.1-0.633,0.166-1.35,0.199-2.15c0-0.4,0-0.8,0-1.2l1.4,0.5h0.05l0.05,0.05l0.301,0.2l1.899,6
			l-0.3,38.1h-0.05c-0.134-0.367-0.483-0.817-1.05-1.35c-0.567-0.567-1.117-1.017-1.65-1.35c-1.066-0.733-1.667-1.183-1.8-1.35
			c-0.467-0.5-0.684-1.2-0.65-2.1c-0.666,1.4-1.166,2.367-1.5,2.9c-0.6,0.933-1.45,1.533-2.55,1.8c-0.767,0.2-1.85,0.35-3.25,0.45
			c-1.7,0.1-2.783,0.183-3.25,0.25c-1.566,0.2-3.583,0.267-6.05,0.2c-2.733-0.1-4.767-0.15-6.101-0.15h-6.5
			c-0.166,0-0.316,0-0.449,0c-0.267-0.4-0.483-0.833-0.65-1.3c-0.233-0.733-0.333-1.667-0.3-2.8c0-0.667,0.033-1.633,0.1-2.9
			c0-0.7,0.066-1.483,0.2-2.35c0.066-0.5,0.167-1.267,0.3-2.3c0.066-0.467,0.084-1.117,0.05-1.95
			C92.35,56.313,92.366,55.696,92.4,55.296z M54.6,144.746l10.5-43.05c0.017-0.067,0.033-0.133,0.05-0.2c0.1-0.4,0.217-0.8,0.35-1.2
			l8.4-33.1l-0.15,1c-0.566,5.1-0.35,9.767,0.65,14c0.8-0.233,1.816-1.534,3.05-3.9c0.467-0.867,0.85-1.65,1.149-2.35
			c-0.199,0.867-0.366,1.533-0.5,2c-1.433,5.8-2.517,10.167-3.25,13.1c-1.133,5-2,8.75-2.6,11.25
			c-0.867,3.667-1.933,7.45-3.2,11.351c-0.233,0.699-0.4,1.517-0.5,2.449c-0.1,1.067-0.183,1.884-0.25,2.45
			c-0.1,0.834-0.4,1.884-0.9,3.15c-0.566,1.434-0.967,2.467-1.2,3.1c-0.633,1.667-1.1,2.917-1.4,3.75
			c-0.367,1.033-1.05,2.767-2.05,5.2c-0.9,2.167-1.55,3.884-1.95,5.15c-0.9,2.833-2.083,6.983-3.55,12.449
			c-1.5,5.7-2.667,9.867-3.5,12.5c-1.067,3.267-1.7,5.167-1.9,5.7c-0.8,2.134-1.65,3.934-2.55,5.4l-2,2.6
			c-0.533,0.667-0.917,1.334-1.15,2L54.6,144.746z M91.1,60.546c-0.199,1.6-0.3,2.833-0.3,3.7c-0.033,0.967-0.066,1.783-0.1,2.45
			c0,0.033,0,0.083,0,0.15c0,0.1,0,0.2,0,0.3c0,0.133,0,0.25,0,0.35c-0.167,0.967-0.566,1.717-1.2,2.25
			c-0.634,0.567-1.366,0.917-2.2,1.05c-1.033,0.067-1.866,0.133-2.5,0.2c-1,0.133-1.866,0.267-2.6,0.4
			c1.033-0.667,3.017-1.167,5.95-1.5c0.533-1.467,0.8-2.217,0.8-2.25c0.5-1.133,1.116-3.1,1.85-5.9L91.1,60.546z M55.8,190.946
			c0.067,0.1,0.15,0.184,0.25,0.25H43.3c0-0.066,0.017-0.134,0.05-0.2c0.033-0.2,0.083-0.4,0.15-0.6c0-0.101,0.017-0.184,0.05-0.25
			l2.1-8.601c-0.533,2.601-0.8,3.95-0.8,4.05c-0.333,1.934-0.434,3.7-0.3,5.301c1,0.166,2.267,0.233,3.8,0.199
			c0.867-0.033,2.117-0.083,3.75-0.149H55.8z M98.95,46.546c0.434,0.4,0.517,1.267,0.25,2.6c-0.8,0.367-1.334,0.55-1.601,0.55
			c-0.366-0.034-0.767-0.35-1.199-0.95c-0.467-0.633-0.667-1.5-0.601-2.6c0.033-1.167,0.367-1.967,1-2.4l-0.5,2.5
			c-0.066,0.267-0.05,0.567,0.05,0.9c0.767,0.3,1.367,0.167,1.801-0.4C98.55,46.679,98.816,46.613,98.95,46.546z M104.85,48.196
			c-0.566-0.233-0.916-0.717-1.05-1.45l0.45-0.75c-0.033,0.367,0,0.75,0.1,1.15l2.4,0.2c0.167,0.267,0.167,0.533,0,0.8
			C106.017,48.379,105.384,48.396,104.85,48.196z M105.3,44.246l-1.05,1.75C104.316,45.229,104.667,44.646,105.3,44.246z
			 M115.25,46.846c0.167,0.267,0.167,0.533,0,0.8c-1.3,0.167-2.184,0.133-2.65-0.1c-0.633-0.3-0.899-1.066-0.8-2.3l2.5-0.5
			c-0.967,0.267-1.283,0.717-0.95,1.35C113.717,46.696,114.35,46.946,115.25,46.846z M96.3,62.946l0.05,0.2l0.15,0.05
			c0.434,0.167,0.833,0.15,1.2-0.05c0-0.167,0.166-0.55,0.5-1.15c0.566,0.867,0.733,1.75,0.5,2.65l-1.05,0.15l0.649,0.95
			c-1.166,0.1-2.133-0.283-2.899-1.15c-0.867-0.934-0.7-1.867,0.5-2.8c0.833-0.6,1.517-0.617,2.05-0.05H96.8
			C96.3,62.046,96.134,62.446,96.3,62.946z"/>
		<path style="fill-rule:evenodd;clip-rule:evenodd;fill:#434C40;" d="M91.05,3.496c0.733,0.367,1.367,0.733,1.9,1.1l30.55,21.1
			c-0.134,0-0.267,0-0.4,0L91.05,3.496z M64.9,0.746c1.2-0.2,2.583-0.417,4.15-0.65c3.567-0.167,7.2-0.117,10.9,0.15
			c0.3,0.033,0.616,0.067,0.95,0.1c-2.134-0.1-4.5-0.117-7.101-0.05C70.567,0.363,67.6,0.513,64.9,0.746z M124.15,26.146l0.899,0.6
			c0.101,0.1,0.217,0.2,0.351,0.3c-0.267-0.133-0.584-0.25-0.95-0.35h0.1l-0.95-0.65L124.15,26.146z M111.65,24.896
			c-0.567-0.033-1.167-0.066-1.801-0.1c-2.133-0.066-3.733-0.1-4.8-0.1c-0.5,0-0.983,0-1.45,0c1.367-0.067,3.217-0.1,5.551-0.1
			c0.733,0.066,1.399,0.133,2,0.2C111.316,24.83,111.483,24.863,111.65,24.896z M73.9,67.196l-8.4,33.1
			c-0.133,0.4-0.25,0.8-0.35,1.2c-0.017,0.067-0.033,0.133-0.05,0.2l-10.5,43.05c-0.5,0.733-1.05,1.5-1.65,2.3l-2.6,3.75
			c-0.267,0.4-1.4,2.3-3.4,5.7c-1.3,2.3-2.684,3.983-4.15,5.05c-0.466,0.334-1.167,1.084-2.1,2.25c-0.767,1-1.583,1.667-2.45,2
			c-1.5,0.566-4.183,0.684-8.05,0.351c-1.333-0.134-2.417-0.417-3.25-0.851c-0.6-0.3-1.517-0.95-2.75-1.95
			c-0.6-0.466-1.05-0.816-1.35-1.05c-0.533-0.399-0.917-0.783-1.15-1.149l-0.3-0.601c-0.033-0.3,0.017-0.666,0.15-1.1
			c0.167-0.533,0.467-1.167,0.9-1.9c0.267-0.399,0.633-1,1.1-1.8c0.267-0.467,0.534-1.116,0.8-1.95c0.333-1,0.566-1.666,0.7-2
			c0.333-0.767,0.867-1.899,1.6-3.399l0.25-0.65c0.4-1.167,0.783-2.583,1.15-4.25c0.2-0.934,0.5-2.366,0.9-4.3
			c0.4-1.767,0.8-3.066,1.2-3.9c0.733-1.533,1.667-2.35,2.8-2.45c0.6-0.033,1.25,0.134,1.95,0.5c0.9,0.467,1.5,0.733,1.8,0.801
			c0.8,0.133,1.417-0.017,1.85-0.45c0.3-0.267,0.767-0.767,1.4-1.5l-0.15-0.15c0.1-0.434,0.067-1.033-0.1-1.8
			c-0.1-0.5-0.25-1.2-0.45-2.1c-0.3-2.233-0.45-3.717-0.45-4.45c-0.066-3.101,0-5.983,0.2-8.65c0.067-0.934,0.283-2.116,0.65-3.55
			c0.467-1.767,0.75-2.934,0.85-3.5c0.033-0.167,0.15-1.2,0.35-3.1c0.167-1.233,0.383-2.217,0.65-2.95
			c0.033-0.133,0.183-0.667,0.45-1.6c0.167-0.6,0.367-1.1,0.6-1.5c0.267-0.434,0.5-0.9,0.7-1.4l0.05,0.15
			c0-0.133,0.017-0.283,0.05-0.45c0.1-0.3,0.183-0.6,0.25-0.9c0.267-0.933,0.417-2,0.45-3.2v-0.25c0.034-0.167,0.067-0.333,0.1-0.5
			c0.133-0.566,0.35-1.15,0.65-1.75c0.167-0.3,0.434-0.8,0.8-1.5c0-0.033,0.017-0.05,0.05-0.05c0.667-0.5,1.033-1.267,1.1-2.3
			c0.033-0.6,0-1.534-0.1-2.8c0-0.733,0-1.717,0-2.95c2.8,0.533,5.95-0.483,9.45-3.05c4.367-3.2,7.583-7.816,9.65-13.85
			c3.333-9.7,4.35-17.816,3.05-24.35c-1.4-7.1-5.533-11.25-12.4-12.45c0.033-0.133,0.083-0.233,0.15-0.3
			c2.333-2.833,3.833-4.45,4.5-4.85c1.733-1.033,4.083-0.917,7.05,0.35c1.066,0.466,3.333,2.983,6.8,7.55
			c2.899,3.833,5.199,5.35,6.899,4.55c0.233-0.1,0.483-0.2,0.75-0.3l-0.2,0.1C79.583,44.979,76.767,55.929,73.9,67.196z
			 M46.45,8.996c0.5,0.867,1.183,1.567,2.05,2.1c0.467,0.3,1.283,0.733,2.45,1.3c1.066,0.5,1.867,0.95,2.4,1.35
			c0.9,0.667,2.133,1.517,3.7,2.55c0.434,0.3,0.934,0.617,1.5,0.95c0.3,0.3,0.333,0.733,0.1,1.3c-0.2,0.5-0.6,1.117-1.2,1.85
			c-0.733,0.767-1.25,1.317-1.55,1.65c-1.367,1.534-2.167,3.167-2.4,4.9c-0.233-0.034-0.45-0.05-0.65-0.05
			c-0.367,0-0.717,0.033-1.05,0.1c-1.8-0.667-3.816-1.133-6.05-1.4c-2.567-0.3-5.433,1.3-8.6,4.8c2.1-5.7,3.967-10.483,5.6-14.35
			c1.8-3.3,2.867-5.283,3.2-5.95C46.117,9.763,46.283,9.396,46.45,8.996z M47.55,6.896c0.267-0.233,0.617-0.483,1.05-0.75
			c0.9,1,1.433,1.567,1.6,1.7l3,2.4c1.667,1.2,3.55,2.367,5.65,3.5c1.433,0.767,3.917,2,7.45,3.7c3.167,1.533,5.6,2.767,7.3,3.7
			c1.5,0.833,2.867,1.5,4.101,2c1.233,0.6,2.217,1.033,2.95,1.3c1.699,0.667,3.333,1.066,4.899,1.2
			c0.033,0.333,0.267,0.617,0.7,0.85c-3.4,0.033-5.167-0.417-5.3-1.35c-1.934-0.167-3.934-0.6-6-1.3c-1.4-0.5-3.284-1.283-5.65-2.35
			c-1.5-0.733-2.917-1.5-4.25-2.3c-0.533-0.3-1.2-0.6-2-0.9c-1.133-0.4-1.8-0.65-2-0.75c-0.566-0.233-1.2-0.65-1.9-1.25
			c-0.767-0.633-1.333-1.1-1.7-1.4c-0.667-0.533-1.517-1.267-2.55-2.2c-1.1-1.034-1.9-1.75-2.4-2.15
			c-0.6-0.367-1.217-0.816-1.85-1.35l-0.45-0.25C49.233,8.346,48.35,7.663,47.55,6.896z M37.65,77.246c1,0.733,2.05,1.317,3.15,1.75
			c0.1,0.033,0.217,0.083,0.35,0.15c-0.167,1.067-0.483,2.184-0.95,3.35c-0.2,0.567-0.333,1.233-0.4,2
			c-0.033,0.933-0.083,1.633-0.15,2.1c-0.066,0.566-0.233,1.4-0.5,2.5c-0.3,1.133-0.483,1.967-0.55,2.5c-0.1,0.9-0.1,1.783,0,2.65
			c0.033,0.4,0.183,1.267,0.45,2.6c0.167-0.333,0.417-0.733,0.75-1.2c0,0.2,0,0.417,0,0.65c0,1.1-0.333,2.817-1,5.15
			c-0.767,2.8-1.733,6.816-2.9,12.05c-0.566,2-0.95,3.517-1.15,4.55c-0.367,1.667-0.683,2.783-0.95,3.351
			c-1,2.1-1.517,3.183-1.55,3.25c-0.267,0.699-0.433,1.366-0.5,2c-0.467,0.733-0.867,1.716-1.2,2.949
			c-0.767,2.467-1.316,4.334-1.65,5.601c-0.2,0.733-0.55,1.733-1.05,3c-0.6,1.434-0.983,2.434-1.15,3c-0.567,1.899-1,3.316-1.3,4.25
			c-0.5,1.633-1.066,3-1.7,4.1c-0.467,0.8-1.967,3.2-4.5,7.2c-0.467,0.833-0.817,1.4-1.05,1.7c-0.4,0.467-0.9,0.6-1.5,0.399
			c-0.6-0.166-1.316-0.716-2.15-1.649c-0.9-1.033-1.533-1.733-1.9-2.101c-0.233-0.233-1.367-1.066-3.4-2.5
			c-0.9-0.633-2.3-1.966-4.2-4l-0.7,1.95l3.8-18.85c2.967-14.2,5.483-25.351,7.55-33.45c2.9-11.5,6.867-24.867,11.9-40.1
			c0.067,0.517,0.15,1.033,0.25,1.55c0.1,0.517,0.217,1.033,0.35,1.55c0.009,0.061,0.017,0.12,0.025,0.175
			c0.034,0.178,0.076,0.353,0.125,0.525c0.6,2.7,1.6,5.3,3,7.8C33.2,73.146,35.317,75.646,37.65,77.246z M41.65,104.196
			c0.033-0.334,0.083-0.733,0.15-1.2l-0.25,0.75C41.55,103.913,41.583,104.063,41.65,104.196c-0.033,0.3-0.05,0.533-0.05,0.7
			c0,0.6,0.4,0.883,1.2,0.85c1.267-0.033,1.75-0.85,1.45-2.45c-0.167,0.4-0.283,0.7-0.35,0.9c-0.133,0.3-0.333,0.483-0.6,0.55
			c-0.367,0.134-0.75,0.1-1.15-0.1C41.917,104.513,41.75,104.362,41.65,104.196z M43.3,102.496l-0.75-0.5
			c-0.466,0.267-0.617,0.917-0.45,1.95c0.433,0.166,0.85,0.033,1.25-0.4C43.717,103.079,43.7,102.729,43.3,102.496z M35.8,99.246
			l-1.25-0.25c-0.6,0.6-0.833,1.083-0.7,1.45c0.167,0,0.483,0.066,0.95,0.2c0.4,0.1,0.717,0.117,0.95,0.05
			C35.783,100.563,35.8,100.08,35.8,99.246z M37.55,101.246l-1-1.25l-0.05,1.7c-0.567,0.2-1.117,0.05-1.65-0.45
			c-0.267,1.167,0.133,1.8,1.2,1.9C37.15,103.213,37.65,102.58,37.55,101.246z M28.8,121.696c-0.333,0.133-0.6,0.416-0.8,0.85
			c-0.233,0.4-0.283,0.767-0.15,1.101c0.133,0.033,0.283,0.05,0.45,0.05c0.467,0.033,0.95,0.017,1.45-0.05
			c0.167-0.801,0.017-1.45-0.45-1.95H28.8z M33,134.896c-0.033-0.233,0.083-0.5,0.35-0.801c0.233-0.3,0.283-0.583,0.15-0.85
			c-0.133-0.1-0.283-0.116-0.45-0.05l-0.5,1c-0.267,0.2-0.333,0.434-0.2,0.7C32.55,134.996,32.767,134.996,33,134.896z
			 M28.3,123.696l-0.75,1.25c0.333,0.533,0.7,0.916,1.1,1.149c0.567,0.301,1.033,0.233,1.4-0.199c0.233-0.233,0.35-0.684,0.35-1.351
			c0-0.366-0.033-0.883-0.1-1.55c-0.133,0.533-0.25,0.917-0.35,1.15c-0.133,0.433-0.35,0.699-0.65,0.8
			c-0.466,0.166-0.767,0.1-0.9-0.2C28.333,124.612,28.3,124.263,28.3,123.696z M27.55,128.446h-0.5
			c-0.267,0.066-0.433,0.233-0.5,0.5c-0.066,0.233-0.05,0.467,0.05,0.7c0.3,0.133,0.6,0.133,0.9,0L27.55,128.446z M26.75,130.646
			l0.05-0.2c-0.167-0.033-0.25,0.033-0.25,0.2C26.617,130.646,26.683,130.646,26.75,130.646l-0.45,1.05
			c0.833,0.633,1.383,0.566,1.65-0.2c0.2-0.6,0.216-1.333,0.05-2.2c-0.233,0.434-0.417,0.733-0.55,0.9
			C27.217,130.463,26.983,130.612,26.75,130.646z M29.9,141.196h0.05c0.466,0.066,0.833-0.017,1.1-0.25
			c0.3-0.267,0.383-0.634,0.25-1.101H30l-0.3,0.051c-0.167,0.433-0.167,0.85,0,1.25L29.9,141.196z M25.3,139.196l-0.6-1.8
			c0.186,0.611,0.052,1.095-0.4,1.449c-0.433,0.367-0.966,0.384-1.6,0.051c-0.3,0.3-0.45,0.633-0.45,1c1,0.566,1.883,0.767,2.65,0.6
			C24.867,139.996,25,139.563,25.3,139.196z M24.65,136.546l-0.7-0.7c-0.4,0.467-0.6,0.9-0.6,1.301
			C23.95,137.346,24.383,137.146,24.65,136.546z M21.65,143.546c-0.4,0.4-0.5,1.05-0.3,1.95c0.5,0.2,0.917,0.033,1.25-0.5
			c0.333-0.467,0.433-0.934,0.3-1.4L21.65,143.546z M21.05,145.896c-0.133,0.767-0.15,1.633-0.05,2.6
			c1.433,0.267,2.083-0.05,1.95-0.95l0.3-1.399c-0.167,0.6-0.55,0.816-1.15,0.649C21.567,146.663,21.217,146.362,21.05,145.896z
			 M26.8,148.046l-0.15,0.351c-0.1,0.433-0.083,0.899,0.05,1.399c0.5,0.2,0.867,0.167,1.1-0.1c0.267-0.267,0.317-0.65,0.15-1.15
			l-0.3-1C27.25,147.579,26.967,147.746,26.8,148.046z M29.7,144.796c1.633-0.133,2.25-1.217,1.85-3.25
			c-0.333,0.9-0.85,1.217-1.55,0.95l-0.1-1l-0.25,1.7C29.65,144.096,29.667,144.63,29.7,144.796z M31.6,137.746
			c0.233,0.2,0.566,0.2,1,0c0.4-0.167,0.633-0.384,0.7-0.65c0.067-0.233,0.05-0.616-0.05-1.149c-0.367,0.6-0.833,0.717-1.4,0.35
			c-0.167-0.1-0.283-0.2-0.35-0.3l-0.2,0.7C31.2,137.229,31.3,137.579,31.6,137.746z M28.3,150.546l-1.35,0.3
			c-0.3,0.634-0.383,1.517-0.25,2.65c0.767,0.333,1.267,0.05,1.5-0.85C28.267,152.313,28.3,151.612,28.3,150.546z M23.65,155.846
			c-0.1,0.267-0.083,0.584,0.05,0.95c0.367,0.2,0.767,0.2,1.2,0c0.133-0.467,0.15-0.883,0.05-1.25l-0.65-0.35
			C23.933,155.296,23.717,155.513,23.65,155.846z M24.3,158.546v-0.7c-0.667-0.166-1.183,0.034-1.55,0.601
			c-0.4,0.566-0.333,1.066,0.2,1.5c0.633,0.533,1.216,0.45,1.75-0.25C25.233,158.996,25.1,158.612,24.3,158.546z M16.35,154.146
			c1.233,0.133,2.1,0.033,2.6-0.301l0.35-0.649c-0.667-0.033-1.133-0.084-1.4-0.15c-0.367-0.1-0.8-0.3-1.3-0.6
			C16.233,152.813,16.15,153.38,16.35,154.146z M17,151.796c0.433,0.167,0.85,0.167,1.25,0c0.233-0.633,0.133-1.05-0.3-1.25
			l-0.65-0.35C17.367,150.63,17.267,151.163,17,151.796z"/>
		<path style="fill-rule:evenodd;clip-rule:evenodd;fill:#383F36;" d="M82.55,34.246c-0.267,0.1-0.517,0.2-0.75,0.3
			c-1.7,0.8-4-0.716-6.899-4.55c-3.467-4.567-5.734-7.083-6.8-7.55c-2.967-1.267-5.317-1.383-7.05-0.35
			c-0.667,0.4-2.167,2.017-4.5,4.85c-0.066,0.066-0.117,0.167-0.15,0.3c6.867,1.2,11,5.35,12.4,12.45
			c1.3,6.533,0.284,14.65-3.05,24.35c-2.067,6.034-5.283,10.65-9.65,13.85c-3.5,2.567-6.65,3.583-9.45,3.05c0,1.233,0,2.216,0,2.95
			c0.1,1.267,0.133,2.2,0.1,2.8c-0.067,1.033-0.433,1.8-1.1,2.3c-0.033,0-0.05,0.017-0.05,0.05c-0.367,0.7-0.633,1.2-0.8,1.5
			c-0.3,0.6-0.517,1.184-0.65,1.75c-0.033,0.167-0.066,0.333-0.1,0.5v0.25c-0.033,1.2-0.183,2.267-0.45,3.2
			c-0.067,0.3-0.15,0.6-0.25,0.9c-0.033,0.167-0.05,0.317-0.05,0.45l-0.05-0.15c-0.2,0.5-0.433,0.966-0.7,1.4
			c-0.233,0.4-0.433,0.9-0.6,1.5c-0.267,0.933-0.417,1.467-0.45,1.6c-0.267,0.733-0.483,1.717-0.65,2.95
			c-0.2,1.899-0.317,2.933-0.35,3.1c-0.1,0.566-0.383,1.733-0.85,3.5c-0.367,1.434-0.583,2.616-0.65,3.55
			c-0.2,2.667-0.267,5.55-0.2,8.65c0,0.733,0.15,2.217,0.45,4.45c0.2,0.899,0.35,1.6,0.45,2.1c0.167,0.767,0.2,1.366,0.1,1.8
			l0.15,0.15c-0.633,0.733-1.1,1.233-1.4,1.5c-0.433,0.434-1.05,0.583-1.85,0.45c-0.3-0.067-0.9-0.334-1.8-0.801
			c-0.7-0.366-1.35-0.533-1.95-0.5c-1.133,0.101-2.067,0.917-2.8,2.45c-0.4,0.834-0.8,2.134-1.2,3.9c-0.4,1.934-0.7,3.366-0.9,4.3
			c-0.367,1.667-0.75,3.083-1.15,4.25l-0.25,0.65c-0.733,1.5-1.267,2.633-1.6,3.399c-0.133,0.334-0.367,1-0.7,2
			c-0.267,0.834-0.533,1.483-0.8,1.95c-0.466,0.8-0.833,1.4-1.1,1.8c-0.434,0.733-0.733,1.367-0.9,1.9
			c-0.133,0.434-0.183,0.8-0.15,1.1l0.3,0.601c0.233,0.366,0.617,0.75,1.15,1.149c0.3,0.233,0.75,0.584,1.35,1.05
			c1.233,1,2.15,1.65,2.75,1.95c0.833,0.434,1.917,0.717,3.25,0.851c3.867,0.333,6.55,0.216,8.05-0.351c0.867-0.333,1.683-1,2.45-2
			c0.933-1.166,1.633-1.916,2.1-2.25c1.467-1.066,2.85-2.75,4.15-5.05c2-3.4,3.133-5.3,3.4-5.7l2.6-3.75
			c0.6-0.8,1.15-1.566,1.65-2.3l-8.45,34.8c-0.133,0.3-0.233,0.601-0.3,0.9c-0.067,0.366-0.133,0.733-0.2,1.1l-2.1,8.601
			c-0.033,0.066-0.05,0.149-0.05,0.25c-0.067,0.199-0.117,0.399-0.15,0.6c-0.033,0.066-0.05,0.134-0.05,0.2h-0.25L23,170.146
			l-2.85-3l-15.7-16.45l-0.15-0.15l0.7-1.95c1.9,2.034,3.3,3.367,4.2,4c2.033,1.434,3.167,2.267,3.4,2.5
			c0.367,0.367,1,1.067,1.9,2.101c0.833,0.934,1.55,1.483,2.15,1.649c0.6,0.2,1.1,0.067,1.5-0.399c0.233-0.3,0.583-0.867,1.05-1.7
			c2.533-4,4.033-6.4,4.5-7.2c0.633-1.1,1.2-2.467,1.7-4.1c0.3-0.934,0.733-2.351,1.3-4.25c0.167-0.566,0.55-1.566,1.15-3
			c0.5-1.267,0.85-2.267,1.05-3c0.333-1.267,0.883-3.134,1.65-5.601c0.333-1.233,0.733-2.216,1.2-2.949
			c0.067-0.634,0.233-1.301,0.5-2c0.033-0.067,0.55-1.15,1.55-3.25c0.267-0.567,0.583-1.684,0.95-3.351
			c0.2-1.033,0.583-2.55,1.15-4.55c1.167-5.233,2.133-9.25,2.9-12.05c0.667-2.333,1-4.05,1-5.15c0-0.233,0-0.45,0-0.65
			c-0.333,0.467-0.583,0.867-0.75,1.2c-0.267-1.333-0.417-2.2-0.45-2.6c-0.1-0.867-0.1-1.75,0-2.65c0.066-0.533,0.25-1.367,0.55-2.5
			c0.267-1.1,0.434-1.934,0.5-2.5c0.067-0.467,0.117-1.167,0.15-2.1c0.067-0.767,0.2-1.433,0.4-2c0.466-1.167,0.783-2.283,0.95-3.35
			c3.233,1.1,6.867,0.434,10.9-2c4.567-2.767,7.85-7.033,9.85-12.8c3.133-9.1,3.883-16.85,2.25-23.25c-0.9-3.5-2.5-6.35-4.8-8.55
			c-0.934-1.267-2.033-2.367-3.3-3.3c-0.833-0.6-1.716-1.117-2.65-1.55c-0.533-0.267-1.066-0.5-1.6-0.7
			c0.333-0.067,0.684-0.1,1.05-0.1c0.2,0,0.417,0.017,0.65,0.05c0.233-1.733,1.033-3.367,2.4-4.9c0.3-0.333,0.817-0.883,1.55-1.65
			c0.6-0.733,1-1.35,1.2-1.85c0.233-0.566,0.2-1-0.1-1.3c-0.566-0.333-1.066-0.65-1.5-0.95c-1.566-1.033-2.8-1.883-3.7-2.55
			c-0.533-0.4-1.333-0.85-2.4-1.35c-1.167-0.566-1.983-1-2.45-1.3c-0.867-0.533-1.55-1.233-2.05-2.1
			c0.167-0.433,0.333-0.917,0.5-1.45c0.1-0.2,0.3-0.417,0.6-0.65c0.8,0.767,1.684,1.45,2.65,2.05l0.45,0.25
			c0.633,0.533,1.25,0.983,1.85,1.35c0.5,0.4,1.3,1.117,2.4,2.15c1.033,0.933,1.883,1.667,2.55,2.2c0.367,0.3,0.933,0.767,1.7,1.4
			c0.7,0.6,1.333,1.017,1.9,1.25c0.2,0.1,0.867,0.35,2,0.75c0.8,0.3,1.467,0.6,2,0.9c1.333,0.8,2.75,1.566,4.25,2.3
			c2.367,1.067,4.25,1.85,5.65,2.35c2.066,0.7,4.066,1.133,6,1.3c0.133,0.934,1.899,1.383,5.3,1.35
			c0.767,0.367,2.217,0.467,4.35,0.3c0.801-0.066,2.817-0.35,6.051-0.85c0.5-0.067,1.316-0.25,2.449-0.55
			c1.034-0.3,1.851-0.483,2.45-0.55c0.467-0.067,1.15-0.117,2.05-0.15c0.467,0,0.95,0,1.45,0c1.066,0,2.667,0.033,4.8,0.1
			c0.634,0.034,1.233,0.067,1.801,0.1c1.866,0.233,3.383,0.467,4.55,0.7c-5.367-0.367-10.217-0.133-14.55,0.7
			c-4.434,0.867-8.983,2.467-13.65,4.8L82.55,34.246z M41.65,104.196c0.1,0.166,0.267,0.316,0.5,0.45
			c0.4,0.199,0.783,0.233,1.15,0.1c0.267-0.066,0.467-0.25,0.6-0.55c0.067-0.2,0.184-0.5,0.35-0.9c0.3,1.601-0.183,2.417-1.45,2.45
			c-0.8,0.033-1.2-0.25-1.2-0.85C41.6,104.729,41.617,104.496,41.65,104.196c-0.066-0.134-0.1-0.283-0.1-0.45l0.25-0.75
			C41.733,103.463,41.683,103.862,41.65,104.196z M37.55,101.246c0.1,1.333-0.4,1.967-1.5,1.9c-1.066-0.101-1.466-0.734-1.2-1.9
			c0.533,0.5,1.083,0.65,1.65,0.45l0.05-1.7L37.55,101.246z M28.3,123.696c0,0.566,0.034,0.916,0.1,1.05
			c0.133,0.3,0.434,0.366,0.9,0.2c0.3-0.101,0.517-0.367,0.65-0.8c0.1-0.233,0.216-0.617,0.35-1.15c0.067,0.667,0.1,1.184,0.1,1.55
			c0,0.667-0.117,1.117-0.35,1.351c-0.367,0.433-0.833,0.5-1.4,0.199c-0.4-0.233-0.767-0.616-1.1-1.149L28.3,123.696z
			 M26.75,130.646c0.233-0.034,0.467-0.184,0.7-0.45c0.133-0.167,0.316-0.467,0.55-0.9c0.167,0.867,0.15,1.601-0.05,2.2
			c-0.267,0.767-0.817,0.833-1.65,0.2L26.75,130.646c-0.067,0-0.133,0-0.2,0c0-0.167,0.083-0.233,0.25-0.2L26.75,130.646z
			 M25.3,139.196c-0.3,0.366-0.433,0.8-0.4,1.3c-0.767,0.167-1.65-0.033-2.65-0.6c0-0.367,0.15-0.7,0.45-1
			c0.633,0.333,1.167,0.316,1.6-0.051c0.453-0.354,0.586-0.838,0.4-1.449L25.3,139.196z M21.05,145.896
			c0.167,0.466,0.517,0.767,1.05,0.899c0.6,0.167,0.983-0.05,1.15-0.649l-0.3,1.399c0.133,0.9-0.517,1.217-1.95,0.95
			C20.9,147.529,20.917,146.663,21.05,145.896z M29.7,144.796c-0.034-0.166-0.05-0.7-0.05-1.6l0.25-1.7l0.1,1
			c0.7,0.267,1.217-0.05,1.55-0.95C31.95,143.579,31.333,144.663,29.7,144.796z M31.6,137.746c-0.3-0.167-0.4-0.517-0.3-1.05
			l0.2-0.7c0.067,0.1,0.183,0.2,0.35,0.3c0.566,0.367,1.033,0.25,1.4-0.35c0.1,0.533,0.117,0.916,0.05,1.149
			c-0.066,0.267-0.3,0.483-0.7,0.65C32.167,137.946,31.833,137.946,31.6,137.746z M28.3,150.546c0,1.066-0.033,1.767-0.1,2.101
			c-0.233,0.899-0.733,1.183-1.5,0.85c-0.133-1.134-0.05-2.017,0.25-2.65L28.3,150.546z M24.3,158.546
			c0.8,0.066,0.934,0.45,0.4,1.15c-0.534,0.7-1.117,0.783-1.75,0.25c-0.534-0.434-0.6-0.934-0.2-1.5
			c0.367-0.566,0.883-0.767,1.55-0.601V158.546z M16.35,154.146c-0.2-0.767-0.117-1.334,0.25-1.7c0.5,0.3,0.933,0.5,1.3,0.6
			c0.267,0.066,0.733,0.117,1.4,0.15l-0.35,0.649C18.45,154.18,17.583,154.279,16.35,154.146z"/>
		<path style="fill-rule:evenodd;clip-rule:evenodd;fill:#6D7C67;" d="M100.3,43.096c-1.767-0.2-3.35-0.317-4.75-0.35
			c2.934,0,7.134-0.083,12.601-0.25c5.833-0.167,10.216-0.25,13.149-0.25l-0.5,1.5h-12.5C106.8,43.746,104.134,43.529,100.3,43.096z
			 M98.95,46.546c-0.134,0.067-0.4,0.133-0.8,0.2c-0.367,0.033-0.801,0-1.301-0.1c-0.267-0.733-0.116-1.367,0.45-1.9l0.5,0.5
			c-0.1-0.267-0.083-0.583,0.05-0.95c0.634-0.233,1.267-0.233,1.9,0C100.083,45.463,99.816,46.213,98.95,46.546z M114.35,45.446
			c0.167-0.434,0.483-0.667,0.95-0.7v0.5c0.101,0.467,0.066,0.95-0.1,1.45c-0.267,0.167-0.533,0.167-0.8,0
			C114.2,46.229,114.184,45.813,114.35,45.446z M105.85,46.146c-0.133-0.533-0.149-1-0.05-1.4h1c0.566,0.3,0.7,0.767,0.4,1.4
			C106.767,46.346,106.316,46.346,105.85,46.146z M98.25,54.896l-0.05,0.25c-0.367,0.1-0.75,0.117-1.15,0.05
			c-0.5-0.1-0.899-0.35-1.2-0.75l-0.1-0.2c-0.167-0.333-0.167-0.683,0-1.05c0.167-0.4,0.517-0.717,1.05-0.95v0.5
			c0.434-0.1,0.9-0.083,1.4,0.05C98.333,53.463,98.35,54.163,98.25,54.896z M98.2,61.996c-0.334,0.6-0.5,0.983-0.5,1.15
			c-0.367,0.2-0.767,0.217-1.2,0.05l-0.2-0.25c-0.166-0.5,0-0.9,0.5-1.2h1.15h0.35L98.2,61.996z"/>
		<path style="fill-rule:evenodd;clip-rule:evenodd;fill:#41493E;" d="M126.9,71.496l-47.101,1h-0.05l-0.05,0.25l-0.2,1v0.05
			l-23.7,115.8l-0.35,1.051c0.1,0.1,0.216,0.199,0.35,0.3h-3.7c-1.633,0.066-2.883,0.116-3.75,0.149
			c-1.533,0.034-2.8-0.033-3.8-0.199c-0.133-1.601-0.033-3.367,0.3-5.301c0-0.1,0.267-1.449,0.8-4.05
			c0.067-0.366,0.133-0.733,0.2-1.1c0.066-0.3,0.167-0.601,0.3-0.9c0.233-0.666,0.617-1.333,1.15-2l2-2.6
			c0.9-1.467,1.75-3.267,2.55-5.4c0.2-0.533,0.833-2.434,1.9-5.7c0.833-2.633,2-6.8,3.5-12.5c1.467-5.466,2.65-9.616,3.55-12.449
			c0.4-1.267,1.05-2.983,1.95-5.15c1-2.434,1.683-4.167,2.05-5.2c0.3-0.833,0.767-2.083,1.4-3.75c0.233-0.633,0.633-1.666,1.2-3.1
			c0.5-1.267,0.8-2.316,0.9-3.15c0.067-0.566,0.15-1.383,0.25-2.45c0.1-0.933,0.267-1.75,0.5-2.449
			c1.267-3.9,2.333-7.684,3.2-11.351c0.6-2.5,1.467-6.25,2.6-11.25c0.733-2.933,1.817-7.3,3.25-13.1c0.134-0.467,0.301-1.133,0.5-2
			c0.034-0.233,0.067-0.45,0.101-0.65c0.166-0.633,0.35-1.2,0.55-1.7c-0.2-0.267-0.217-0.567-0.05-0.9c0.267-0.5,1.267-0.934,3-1.3
			c0.733-0.133,1.6-0.267,2.6-0.4c0.634-0.067,1.467-0.133,2.5-0.2c0.834-0.133,1.566-0.483,2.2-1.05
			c0.634-0.533,1.033-1.283,1.2-2.25c0-0.1,0-0.217,0-0.35c0-0.1,0-0.2,0-0.3c0-0.067,0-0.117,0-0.15
			c0.033-0.667,0.066-1.483,0.1-2.45c0-0.867,0.101-2.1,0.3-3.7l0.2-1.85c0-0.1-0.033-0.95-0.1-2.55
			c-0.033-1.066,0.166-1.867,0.6-2.4h0.851l-0.051,0.65l-0.199,0.9c-0.034,0.4-0.051,1.017-0.051,1.85
			c0.034,0.833,0.017,1.483-0.05,1.95c-0.133,1.033-0.233,1.8-0.3,2.3c-0.134,0.867-0.2,1.65-0.2,2.35
			c-0.066,1.267-0.1,2.233-0.1,2.9c-0.033,1.133,0.066,2.067,0.3,2.8c0.167,0.466,0.384,0.9,0.65,1.3c0.133,0,0.283,0,0.449,0h6.5
			c1.334,0,3.367,0.05,6.101,0.15c2.467,0.067,4.483,0,6.05-0.2c0.467-0.067,1.55-0.15,3.25-0.25c1.4-0.1,2.483-0.25,3.25-0.45
			c1.1-0.267,1.95-0.867,2.55-1.8c0.334-0.534,0.834-1.5,1.5-2.9c-0.033,0.9,0.184,1.6,0.65,2.1c0.133,0.167,0.733,0.617,1.8,1.35
			c0.533,0.333,1.083,0.783,1.65,1.35c0.566,0.533,0.916,0.983,1.05,1.35L126.9,71.496z"/>
		<path style="fill-rule:evenodd;clip-rule:evenodd;fill:#4D4D49;" d="M128.15,71.696l2.25,1.75c-0.334,0.267-0.867,0.533-1.601,0.8
			c-1.033,0.367-2.35,0.567-3.95,0.6c-1.833-0.067-3.183-0.1-4.05-0.1c-1.899,0.033-3.316,0.05-4.25,0.05
			c-1.7,0.034-3.116-0.017-4.25-0.15c-5.333-0.667-10.833-0.967-16.5-0.9c-1.8,0-3.934-0.117-6.399-0.35
			c2.5-0.133,6.216-0.383,11.149-0.75c4.367-0.267,8.117-0.4,11.25-0.4c1.8,0,4.55,0.05,8.25,0.15
			C123.283,72.396,125.983,72.163,128.15,71.696z M72.3,118.646c-0.033-2.9,0-5.15,0.1-6.75c0.167-2.434,0.5-4.65,1-6.65
			c0.8-2.9,1.399-4.9,1.8-6c0.633-1.833,1.166-4.15,1.6-6.95c0.2-1.167,0.517-2.9,0.95-5.2c0.366-2,0.55-3.733,0.55-5.2
			c0-0.733,0.167-1.867,0.5-3.4c0,5-0.366,9.017-1.1,12.05c-0.5,2.1-0.95,4.9-1.351,8.4c-0.466,4.2-0.816,6.95-1.05,8.25
			c-0.434,2.3-0.967,4.767-1.6,7.399C73.566,115.163,73.1,116.513,72.3,118.646z M65.25,184.546c0,0.7,0.05,1.217,0.15,1.55
			c0.067,0.2,0.317,0.617,0.75,1.25c0.333,0.534,0.517,0.95,0.55,1.25c0.066,0.534-0.167,1.301-0.7,2.301
			c-0.567,1.066-1.133,1.716-1.7,1.949c-0.733,0.267-1.55,0.051-2.45-0.649c-0.3-0.233-0.983-0.9-2.05-2
			c-0.7-0.767-1.15-1.517-1.35-2.25c-0.133-0.533-0.184-1.45-0.15-2.75c0.034-1.601,0.3-3.684,0.8-6.25
			c0.633-3.267,1-5.351,1.1-6.25c0.767-6.267,1.617-10.934,2.55-14c0.233-0.733,0.55-1.9,0.95-3.5c0.367-1.5,0.683-2.667,0.95-3.5
			c0.267-0.7,0.667-1.783,1.2-3.25c0.467-1.267,0.75-2.351,0.85-3.25c0.2-1.601,0.45-3.934,0.75-7c0.333-2.634,0.783-4.934,1.35-6.9
			c0.367-1.3,1.133-3.35,2.3-6.149c-0.233,2.899-0.4,5.066-0.5,6.5c-0.2,2.566-0.3,4.783-0.3,6.649c0,6.867-0.367,12.217-1.1,16.05
			c-0.1,0.567-0.617,2.801-1.55,6.7c-0.633,2.7-1.05,4.967-1.25,6.8c-0.066,0.601-0.383,2.9-0.95,6.9
			c-0.4,2.767-0.617,5.083-0.65,6.95C64.8,182.996,64.95,183.946,65.25,184.546z M114.3,180.646l-0.5-0.351
			c1.5,0.267,3.25,0.417,5.25,0.45c0.667,0,2.45-0.017,5.351-0.05h1.85c1.6,0,2.717-0.033,3.35-0.101
			c1.233-0.166,2.25-0.517,3.051-1.05c0.165-0.092,0.331-0.191,0.5-0.3c-2,1.634-5.117,2.45-9.351,2.45l-3.1,0.1
			c2.399,0.267,4.434,0.4,6.1,0.4c3,0,5.134-0.233,6.4-0.7c2.033-0.8,3.066-2.4,3.1-4.8l-2,1.5l-0.1,0.1
			c0.934-1.066,1.217-2.25,0.85-3.55c-0.267-0.9-0.967-2.1-2.1-3.6c2.566-0.034,4.116,1.25,4.649,3.85
			c0.5,2.333,0.117,4.533-1.149,6.6c0.7,0.267,1.333,0.2,1.899-0.199c-0.066,1.433-0.066,2.5,0,3.199
			c1.834,0.467,3.017-0.017,3.551-1.449c0.267-0.7,0.399-2.184,0.399-4.45c0-3.2-0.2-6-0.6-8.4c-2-0.366-3.517-0.75-4.55-1.149
			c-1.834-0.733-2.601-1.867-2.301-3.4c0.9,0.2,1.601-0.017,2.101-0.65c0.467-0.6,0.583-1.066,0.35-1.399
			c-0.467-0.334-0.8-0.634-1-0.9c-1.1-0.833-1.95-1.483-2.55-1.95c-1.134-0.866-1.634-1.699-1.5-2.5
			c0.1,0.767,0.884,1.534,2.35,2.301c1.467,0.8,2.667,1.166,3.601,1.1l0.1,2.7c0.066,0.8,0.4,1.35,1,1.649
			c0.367,0.2,1.117,0.301,2.25,0.301c1.066-0.034,1.816-0.134,2.25-0.301l0.25-0.1l0.8,13.05c-0.233,0.934-0.449,1.617-0.649,2.05
			c-0.334,0.733-1,1.634-2,2.7c-0.967,1.066-1.967,1.75-3,2.05c-0.8,0.267-2.05,0.384-3.75,0.351c0.533,0.166,1.3,0.399,2.3,0.7
			c0.9,0.199,1.717,0.316,2.45,0.35c0.267,1.066,0.133,2.217-0.4,3.45c-0.566,1.333-1.383,2.017-2.45,2.05
			c-0.1,1.733-0.233,2.866-0.399,3.4c-0.3,0.866-1.184,1.383-2.65,1.55c-4.666,0.566-8.017,0.5-10.05-0.2
			c0.2-0.934,1.467-1.884,3.8-2.85c-2.7,0.899-6.566,1.233-11.6,1c1.467,0.666,2.55,1.017,3.25,1.05
			c-5.167,0.033-8.417,0.033-9.75,0c-3.667-0.134-6.867-0.5-9.601-1.101c-0.1-0.566,0.2-1.033,0.9-1.399
			c0.5-0.267,1.134-0.434,1.9-0.5c-2.7,0.033-4.817-0.05-6.351-0.25c-2.2-0.3-4.2-0.884-6-1.75c-2.6-1.334-5.083-1.8-7.45-1.4
			c0.233,0.367,0.817,0.884,1.75,1.55c0.834,0.601,1.384,1.184,1.65,1.75c-1.033,0.167-2.366,0.233-4,0.2
			c-1.833-0.066-3.2-0.1-4.1-0.1c-1.367,0.1-2.45,0.184-3.25,0.25c-1.434,0.1-2.467,0-3.101-0.3c-1.167-0.567-1.783-2.384-1.85-5.45
			c-0.034-2.033,0.133-3.667,0.5-4.9c0.167-0.399,0.35-0.8,0.55-1.2c0.067-0.1,0.117-0.199,0.15-0.3
			c0.333,0.467,0.717,0.75,1.15,0.851c0.9,0.166,1.717-0.317,2.45-1.45c0.6-0.9,0.983-1.9,1.15-3c0.8,1.3,1.649,2.166,2.55,2.6
			c0.5,0.2,1.8,0.5,3.899,0.9c1.434,0.267,2.367,0.5,2.801,0.7c0.966,0.433,1.55,1.166,1.75,2.199c0.5,0,1.149,0.117,1.949,0.351
			c0.634,0.133,1.117-0.117,1.45-0.75c0.134-0.2,0.233-1,0.3-2.4c0.034-0.833,0.601-1.383,1.7-1.649
			c0.634-0.134,1.316-0.017,2.05,0.35c0.9,0.434,1.551,0.667,1.95,0.7c0.967,0.066,1.684-0.15,2.15-0.65
			c0.5-0.566,0.583-1.333,0.25-2.3c-0.267,0.033-0.717-0.116-1.351-0.45c0.233-0.033,1.101-0.017,2.601,0.05
			c1.166,0.034,1.967-0.116,2.399-0.449c0.101,0.566-0.033,1.083-0.399,1.55c-0.467,0.533-0.717,0.95-0.75,1.25
			c0,0.166,0.116,0.416,0.35,0.75c0.267,0.3,0.367,0.55,0.3,0.75c-0.066,0.366-0.267,0.7-0.6,1c-0.467,0.467-0.75,0.75-0.85,0.85
			c-0.5,0.834-0.884,1.467-1.15,1.9c-0.5,0.8-0.983,1.35-1.45,1.649c-0.566,0.367-1.283,0.567-2.149,0.601
			c-1.467,0-2.25,0.017-2.351,0.05c-0.166,0.634-0.149,1.25,0.05,1.85c0.667,0.034,1.851,0.233,3.551,0.601
			c1.566,0.233,2.699,0.133,3.399-0.3c0.167,0.699,1.566,1.017,4.2,0.949c1.366,0,3.1-0.033,5.2-0.1
			c0.166,3.233,4.833,4.384,14,3.45c2.166-0.2,3.816-0.75,4.95-1.65c0.699-0.566,1.1-1.366,1.199-2.399
			c0.067-0.601,0.017-1.567-0.149-2.9c-0.9-0.066-1.55-0.134-1.95-0.2c-0.733-0.1-1.384-0.267-1.95-0.5
			c-0.467-0.133-0.8-0.25-1-0.35c-0.366-0.134-0.666-0.334-0.899-0.601c-0.2-0.233-0.334-0.633-0.4-1.199
			c-0.066-0.567-0.167-0.934-0.3-1.101c-0.334-0.366-1.033-0.633-2.101-0.8c-1.199-0.134-2-0.233-2.399-0.3
			C116.8,181.696,115.167,181.18,114.3,180.646z M120.6,181.796c-0.333-0.033-1.333-0.25-3-0.649c-1.3-0.334-2.216-0.45-2.75-0.351
			C115.816,181.529,117.733,181.862,120.6,181.796z"/>
		<path style="fill-rule:evenodd;clip-rule:evenodd;fill:#3B3B37;" d="M79.8,72.496l47.101-1l0.899-0.05l0.351,0.25
			c-2.167,0.466-4.867,0.7-8.101,0.7c-3.7-0.1-6.45-0.15-8.25-0.15c-3.133,0-6.883,0.133-11.25,0.4
			c-4.934,0.367-8.649,0.617-11.149,0.75c-2.301,0.167-4.584,0.267-6.851,0.3l-2.75,0.05h-0.1h-0.2l0.05-0.15l0.15-0.85h0.1V72.496z
			 M144.85,179.046l1.45,23.15H70h-2.8c-2.8-2.9-6.517-6.566-11.15-11c-0.1-0.066-0.183-0.15-0.25-0.25
			c-0.133-0.101-0.25-0.2-0.35-0.3l0.35-1.051l23.7-115.8l0.3,0.15c-0.033,0.6-0.366,2.117-1,4.55c-0.333,1.533-0.5,2.667-0.5,3.4
			c0,1.467-0.184,3.2-0.55,5.2c-0.434,2.3-0.75,4.033-0.95,5.2c-0.434,2.8-0.967,5.117-1.6,6.95c-0.4,1.1-1,3.1-1.8,6
			c-0.5,2-0.833,4.217-1,6.65c-0.1,1.6-0.133,3.85-0.1,6.75v1.05c0,1.566-0.4,3.383-1.2,5.45c-1.167,2.8-1.934,4.85-2.3,6.149
			c-0.566,1.967-1.017,4.267-1.35,6.9c-0.3,3.066-0.55,5.399-0.75,7c-0.1,0.899-0.383,1.983-0.85,3.25
			c-0.533,1.467-0.934,2.55-1.2,3.25c-0.267,0.833-0.583,2-0.95,3.5c-0.4,1.6-0.717,2.767-0.95,3.5
			c-0.933,3.066-1.783,7.733-2.55,14c-0.1,0.899-0.467,2.983-1.1,6.25c-0.5,2.566-0.767,4.649-0.8,6.25
			c-0.033,1.3,0.017,2.217,0.15,2.75c0.2,0.733,0.65,1.483,1.35,2.25c1.067,1.1,1.75,1.767,2.05,2c0.9,0.7,1.717,0.916,2.45,0.649
			c0.567-0.233,1.133-0.883,1.7-1.949c0.533-1,0.767-1.767,0.7-2.301c-0.034-0.3-0.217-0.716-0.55-1.25
			c-0.433-0.633-0.683-1.05-0.75-1.25c-0.1-0.333-0.15-0.85-0.15-1.55v-1.649c1.367,1.066,2.733,1.333,4.1,0.8
			c-0.233,1.533-0.367,3.149-0.4,4.85c0.3-1.434,0.966-3.184,2-5.25c-0.367,1.233-0.534,2.867-0.5,4.9
			c0.066,3.066,0.683,4.883,1.85,5.45c0.633,0.3,1.667,0.399,3.101,0.3c0.8-0.066,1.883-0.15,3.25-0.25c0.899,0,2.267,0.033,4.1,0.1
			c1.634,0.033,2.967-0.033,4-0.2c-0.267-0.566-0.816-1.149-1.65-1.75c-0.933-0.666-1.517-1.183-1.75-1.55
			c2.367-0.399,4.851,0.066,7.45,1.4c1.8,0.866,3.8,1.45,6,1.75c1.533,0.2,3.65,0.283,6.351,0.25c-0.767,0.066-1.4,0.233-1.9,0.5
			c-0.7,0.366-1,0.833-0.9,1.399c2.733,0.601,5.934,0.967,9.601,1.101c1.333,0.033,4.583,0.033,9.75,0
			c-0.7-0.033-1.783-0.384-3.25-1.05c5.033,0.233,8.899-0.101,11.6-1c-2.333,0.966-3.6,1.916-3.8,2.85
			c2.033,0.7,5.384,0.767,10.05,0.2c1.467-0.167,2.351-0.684,2.65-1.55c0.166-0.534,0.3-1.667,0.399-3.4
			c1.067-0.033,1.884-0.717,2.45-2.05c0.533-1.233,0.667-2.384,0.4-3.45c-0.733-0.033-1.55-0.15-2.45-0.35
			c-1-0.301-1.767-0.534-2.3-0.7c1.7,0.033,2.95-0.084,3.75-0.351c1.033-0.3,2.033-0.983,3-2.05c1-1.066,1.666-1.967,2-2.7
			C144.4,180.663,144.616,179.979,144.85,179.046z M107.4,166.596c-0.101-0.533-0.267-0.966-0.5-1.3l2.399,2.9
			c0,1.866-0.083,3.05-0.25,3.55c-0.267,0.967-1.017,1.816-2.25,2.55c-1.633,1.033-2.8,1.7-3.5,2c-1.333,0.5-2.666,0.601-4,0.3
			l0.95-0.649c0.667-0.4,1.75-0.983,3.25-1.75c1.333-0.767,2.316-1.566,2.95-2.4c0.399-0.533,0.7-1.3,0.899-2.3
			C107.55,168.396,107.566,167.43,107.4,166.596z M105.9,155.496c1.666-0.1,3.333-0.15,5-0.15l7.3-0.05
			c-0.2,0.066-0.384,0.134-0.55,0.2l-3.101,0.4c0.934,0,1.634-0.034,2.101-0.101c-4.067,0.834-6.784,1.267-8.15,1.3
			c-3.066,0.101-4.967-0.333-5.7-1.3l0.8-0.1C104.6,155.563,105.366,155.496,105.9,155.496z M114.3,155.196l0.05,0.1h-3.1
			L114.3,155.196z M133.15,179.246c0.05-0.033,0.1-0.066,0.149-0.1c0.021-0.021,0.046-0.037,0.075-0.051
			c0.047-0.054,0.105-0.104,0.175-0.149l0.65-0.65l0.1-0.1l2-1.5c-0.033,2.399-1.066,4-3.1,4.8c-1.267,0.467-3.4,0.7-6.4,0.7
			c-1.666,0-3.7-0.134-6.1-0.4l3.1-0.1C128.033,181.696,131.15,180.88,133.15,179.246z M120.6,181.796
			c-2.866,0.066-4.783-0.267-5.75-1c0.534-0.1,1.45,0.017,2.75,0.351C119.267,181.546,120.267,181.763,120.6,181.796z"/>
		<path style="fill-rule:evenodd;clip-rule:evenodd;fill:#6B6B64;" d="M130.4,73.446l4.85,3.75c-6.4-0.167-13.384-0.784-20.95-1.85
			c-0.967-0.133-2.383-0.267-4.25-0.4l-0.25-0.2l-0.2,0.15c-2.233-0.133-4.966-0.2-8.199-0.2c-3.634,0.033-6.367,0.05-8.2,0.05
			c-3,0-6.55-0.35-10.65-1.05c2.267-0.034,4.55-0.133,6.851-0.3c2.466,0.233,4.6,0.35,6.399,0.35c5.667-0.067,11.167,0.233,16.5,0.9
			c1.134,0.133,2.55,0.184,4.25,0.15c0.934,0,2.351-0.017,4.25-0.05c0.867,0,2.217,0.033,4.05,0.1c1.601-0.033,2.917-0.233,3.95-0.6
			C129.533,73.979,130.066,73.713,130.4,73.446z M105.9,155.496c-0.534,0-1.301,0.066-2.301,0.2c-2.5-0.233-4.116-1.184-4.85-2.851
			c-0.033,1.434,0.017,2.4,0.15,2.9c0.166,0.767,0.783,1.417,1.85,1.95c0.833,0.399,2.066,0.883,3.7,1.45
			c1.066,0.566,1.184,1.449,0.35,2.649c-0.733,0.767-1.149,1.233-1.25,1.4c-0.1,0.166,0.267,0.666,1.101,1.5
			c0.233,0.233,0.699,0.55,1.399,0.95c0.667,0.399,1.117,0.716,1.351,0.949c0.166,0.834,0.149,1.801-0.051,2.9
			c-0.199,1-0.5,1.767-0.899,2.3c-0.634,0.834-1.617,1.634-2.95,2.4c-1.5,0.767-2.583,1.35-3.25,1.75
			c-3.066,0.3-5.233-0.084-6.5-1.15c-0.4-0.333-1.316-1.783-2.75-4.35c-1.2-2.066-2.434-3.167-3.7-3.3
			c-1.533,0.267-2.633,0.399-3.3,0.399c-1.2,0.033-1.816-0.733-1.85-2.3c-1.567,0-2.65-0.033-3.25-0.1
			c-0.9-0.101-1.567-0.617-2-1.551c-0.334,4.534-1.15,8.617-2.45,12.25c-0.4,1.101-1.334,3.084-2.8,5.95
			c-0.033,0.101-0.083,0.2-0.15,0.3c-0.2,0.4-0.383,0.801-0.55,1.2c-1.034,2.066-1.7,3.816-2,5.25c0.033-1.7,0.167-3.316,0.4-4.85
			c0.566-4.066,1.7-7.566,3.4-10.5c0.934-1.566,1.717-4.384,2.35-8.45c0-0.066,0-1.233,0-3.5c-0.033-0.6-0.05-1.267-0.05-2
			c-0.033-1.667,0.217-3,0.75-4c0.167-0.366,0.367-0.684,0.601-0.95l0.05-0.25c0-0.033,0.017-0.066,0.05-0.1
			c0.017-0.083,0.033-0.167,0.05-0.25l0.351-0.9l0.35-0.5c0.934-2.333,1.6-4.083,2-5.25l0.55-3c0.033-0.233,0.184-0.35,0.45-0.35
			l0.05-0.101v-0.399c0-1.601,0.134-3.3,0.4-5.101c0.233-1.633,0.75-4.1,1.55-7.399c0.767-3.233,1.267-5.7,1.5-7.4l2-9.55
			c0.267-1.134,0.566-2.8,0.9-5c0.166-0.733,0.517-1.833,1.05-3.3c0.5-1.467,0.833-2.583,1-3.35c0.066-0.367,0.217-1.233,0.45-2.6
			c0.133-1.033,0.316-1.917,0.55-2.65c0.366-1.233,1.017-2.95,1.95-5.15c0.6-1.6,0.983-3.083,1.149-4.45
			c0-0.067,0.134-0.817,0.4-2.25c0.166-0.933,0.217-1.667,0.149-2.2c1-0.133,2.483-0.167,4.45-0.1c2,0.066,3.467,0.05,4.4-0.05
			c0.733-0.066,1.899-0.3,3.5-0.7c1.633-0.4,2.833-0.65,3.6-0.75c1.733-0.2,4.4-0.2,8,0c3.566,0.2,6.233,0.183,8-0.05
			c0.767-0.1,2.101-0.25,4-0.45c1.733-0.167,3.066-0.317,4-0.45c0.4-0.067,1.167-0.133,2.3-0.2c1.134-0.033,1.983-0.1,2.551-0.2
			c0.166,0,0.35,0,0.55,0l1.2,19.5c-0.301-0.533-0.5-1.067-0.601-1.6c-0.1-0.433-0.066-1.283,0.101-2.55
			c0.166-1.167,0.149-1.983-0.051-2.45c-0.199-0.467-0.533-0.817-1-1.05c-0.6-0.2-1.083-0.383-1.449-0.55l-0.051-1.95
			c-0.033-0.767-0.216-1.367-0.55-1.8c-0.267,0.967-0.767,1.55-1.5,1.75c-0.3,0.1-1.133,0.133-2.5,0.1
			c-0.833-0.033-1.366-0.05-1.6-0.05c-0.3,0-0.834,0.167-1.601,0.5c-1.333,0.7-2.383,1.233-3.149,1.6
			c-1.434,0.733-2.517,1.067-3.25,1c-0.134-0.466-0.25-1.183-0.351-2.15c-0.133-0.767-0.5-1.316-1.1-1.65
			c-0.267-0.167-0.85-0.183-1.75-0.05c-0.967,0.2-1.6,0.3-1.9,0.3c-1.133,0.067-3.149,0.05-6.05-0.05c-2.6-0.1-4.633-0.083-6.1,0.05
			c-1.3,0.133-2.316,0.75-3.05,1.85c-0.301,0.4-0.884,1.583-1.75,3.55c-0.434,1-0.667,1.5-0.7,1.5c-0.3,0.533-0.684,0.9-1.15,1.1
			c-0.333,0.167-0.899,0.267-1.7,0.3c-0.433,0.034-0.866,0.417-1.3,1.15c-0.366,0.633-0.616,1.55-0.75,2.75
			c-0.066,1.333-0.149,2.267-0.25,2.8c-0.066,0.434-0.233,1.017-0.5,1.75s-0.434,1.316-0.5,1.75c-0.133,0.634,0.033,1.434,0.5,2.4
			c1.066-1.134,1.717-1.733,1.95-1.801c0.467-0.166,1.066-0.1,1.8,0.2c1.033,0.367,1.634,0.566,1.8,0.601
			c2.334,0.333,4.15,0.199,5.45-0.4l-1.5,5c-0.2,1.167-0.383,1.983-0.55,2.45c-0.267,0.767-0.75,1.267-1.45,1.5
			c-0.366,0.133-0.934,0.166-1.7,0.1c-0.866-0.066-1.466-0.1-1.8-0.1l-0.75,0.05c-0.033,0.467-0.267,0.917-0.7,1.35
			c-0.533,0.534-1.633,0.784-3.3,0.75c-1.7-0.033-2.816,0.2-3.35,0.7c-0.533,0.467-0.834,1.184-0.9,2.15
			c-0.033,0.333-0.033,1.149,0,2.45c0.033,1.133,0.25,2.199,0.65,3.199c0.6,1.167,1.066,2.117,1.399,2.851
			c0.267,0.666,0.351,1.25,0.25,1.75c-0.166,0.633-0.283,1.2-0.35,1.7c-0.2,1.8-0.184,3.583,0.05,5.35
			c0.367,2.467,1.167,3.55,2.4,3.25c0.133,0.7,0.2,1.783,0.2,3.25c1.233,2.167,2.816,4.083,4.75,5.75c2.066,1.8,4.1,2.967,6.1,3.5
			L105.9,155.496z M140.85,114.696l3.2,51.3l-0.25,0.1c-0.434,0.167-1.184,0.267-2.25,0.301c-1.133,0-1.883-0.101-2.25-0.301
			c-0.6-0.3-0.934-0.85-1-1.649l-0.1-2.7c-0.934,0.066-2.134-0.3-3.601-1.1c-0.533-0.9-0.949-2.134-1.25-3.7
			c-0.199-0.9-0.416-2.101-0.649-3.601c-1.7,1.767-3.033,3.067-4,3.9c-1.667,1.4-3.316,2.083-4.95,2.05
			c0.434,1.134,1.616,1.617,3.55,1.45c2.267-0.2,3.65-0.1,4.15,0.3c-0.434,1.566-0.967,2.816-1.601,3.75
			c-0.767,1.134-1.767,1.967-3,2.5c0.101,0.167,0.167,0.517,0.2,1.05c0.066,0.467,0.134,0.75,0.2,0.851
			c0.366,0.467,1.083,0.767,2.15,0.899c1.166,0.134,1.933,0.334,2.3,0.601c0.899,0.7,1.434,1.866,1.6,3.5
			c0.233,1.767,0.25,2.934,0.05,3.5c-0.366,1-1.483,1.633-3.35,1.899c-2.134,0.134-3.55,0.317-4.25,0.551l-1.35,0.55
			c-2.9,0.033-4.684,0.05-5.351,0.05c-2-0.033-3.75-0.184-5.25-0.45l0.5,0.351c-6.333-0.167-9.666-1.301-10-3.4
			c1.167,0.033,2.017-0.467,2.55-1.5c0.733-1.366,1.384-2.233,1.95-2.6c1.4-0.834,2.25-1.567,2.55-2.2
			c0.367-0.733,0.301-1.816-0.199-3.25c-0.034-0.101-0.567-1.084-1.601-2.95c-0.733-1.366-1-2.4-0.8-3.1
			c0.134-0.4,0.45-0.75,0.95-1.051c0.267-0.133,0.7-0.333,1.3-0.6c0.9-0.434,2.316-1.083,4.25-1.95
			c1.667-0.833,2.917-1.75,3.75-2.75c-0.667,0.267-1.45,0.434-2.35,0.5c0.3-0.1,0.633-0.2,1-0.3c0.166-0.066,0.35-0.134,0.55-0.2
			c1.1-0.399,2.434-0.916,4-1.55c0.066,0.333,0.1,0.9,0.1,1.7c0,0.733,0.05,1.3,0.15,1.7c1.7,0.199,3.133,0.033,4.3-0.5
			c1.2-0.567,2.267-1.567,3.2-3c0.666-0.967,0.816-1.95,0.45-2.95c-0.7-1.834-1.067-2.834-1.101-3c-0.1-0.867-0.05-2.033,0.15-3.5
			c0.233-1.767,0.35-2.95,0.35-3.55l-0.149-3.45c0.566,0.1,1.083,0.1,1.55,0c0.267-2.101-0.033-4.434-0.9-7l-0.05,0.1v-0.05
			c-0.2-0.033-0.616-0.017-1.25,0.05c-0.566,0.066-0.967,0.05-1.2-0.05c-0.366-0.134-0.666-0.366-0.899-0.7
			c-0.334-0.434-0.601-0.717-0.801-0.85c-1.866-1.167-3.267-2.066-4.199-2.7c-0.034-0.033-1.467-0.833-4.301-2.4
			c-1.899-1.033-3.183-1.983-3.85-2.85c-0.866-1.134-1.25-2.5-1.15-4.1c0.067-0.934,0.384-2.384,0.95-4.351
			c0.934,3,3.417,4.717,7.45,5.15c4.033,0.399,6.634-0.834,7.8-3.7l-1-2.5c-1.033,1.9-2.684,3.134-4.95,3.7
			c0.167-0.134,0.534-0.5,1.101-1.101c0.467-0.533,0.883-0.883,1.25-1.05c0.566-0.267,1.184-0.517,1.85-0.75
			c0.4-0.267,0.8-0.833,1.2-1.7c1,0.467,1.833,1.101,2.5,1.9c0.434,0.533,0.95,1.366,1.55,2.5c0.101,0.167,0.4,0.95,0.9,2.35
			c0.366,1.101,0.75,1.817,1.149,2.15c1.067,0.833,2.217,0.717,3.45-0.35v0.899c-0.233,0.733-0.916,1.066-2.05,1
			c-1.066-0.066-1.9-0.383-2.5-0.95c0.2,0.867,0.35,1.534,0.45,2c0.2,0.867,0.416,1.483,0.649,1.851c0.2,0.333,0.601,0.666,1.2,1
			c0.601,0.366,1,0.7,1.2,1c0.134,0.2,0.2,0.649,0.2,1.35c0,0.533,0.25,0.917,0.75,1.15c0.133-0.934,0.2-2.101,0.2-3.5
			c-0.034-0.8-0.067-1.967-0.101-3.5v-1.4c0.101-0.2,0.117-0.517,0.05-0.95C138.483,118.279,139.483,116.896,140.85,114.696z
			 M120.4,115.196c-1.267,0-2.534-0.283-3.801-0.851c-1.399-0.633-2.383-1.449-2.949-2.449c0.466-1.667,0.716-2.867,0.75-3.601
			c0.533,1.8,0.85,2.816,0.949,3.05c0.434,0.934,1.15,1.767,2.15,2.5C118.6,114.546,119.566,114.996,120.4,115.196z M106.3,102.246
			h0.5c0.967,0.167,1.283,0.983,0.95,2.45c-1.033,0.1-2,0.083-2.9-0.05c-0.1-0.767-0.1-1.551,0-2.351
			C105.417,102.163,105.9,102.146,106.3,102.246z"/>
		<path style="fill-rule:evenodd;clip-rule:evenodd;fill:#85847E;" d="M98.3,75.746c-1.434-0.033-2.517-0.067-3.25-0.1
			c-1.3-0.033-2.366,0.017-3.2,0.15c-0.6,1.6,1.434,2.45,6.101,2.55c3.967,0.1,6.75-0.1,8.35-0.6L98.3,75.746z M79.8,73.746
			l2.75-0.05c4.101,0.7,7.65,1.05,10.65,1.05c1.833,0,4.566-0.017,8.2-0.05c3.233,0,5.966,0.066,8.199,0.2l-1.3,0.85
			c-0.967-0.233-1.633-0.067-2,0.5c0.7,0.7,1.667,0.8,2.9,0.3s1.517-1.033,0.85-1.6c1.867,0.133,3.283,0.267,4.25,0.4
			c7.566,1.066,14.55,1.683,20.95,1.85l2,1.55H112.3c-0.934,0-2.133,0.133-3.6,0.4c-1.867,0.367-3,0.567-3.4,0.6
			c-0.866,0.1-2.133,0.183-3.8,0.25c-1.767,0.067-3.033,0.133-3.8,0.2c-3.7,0.1-6.101,0.316-7.2,0.65l-0.55-0.2
			c0.399,0.067,0.666,0.067,0.8,0c-0.467-0.533-1.267-1.2-2.4-2c-1.267-0.833-2.166-1.433-2.699-1.8
			c-1.467-0.934-2.884-1.7-4.25-2.3c-0.101-0.3-0.134-0.566-0.101-0.8H79.8z M79.9,73.946l1.5,0.6
			c0.267,0.667,0.916,1.417,1.949,2.25c0.767,0.6,1.567,1.117,2.4,1.55l0.75,0.45c-0.967-0.367-1.533-0.583-1.7-0.65
			c-0.866-0.4-1.75-1.033-2.649-1.9C81.15,75.213,80.4,74.446,79.9,73.946z"/>
		<path style="fill-rule:evenodd;clip-rule:evenodd;fill:#74736E;" d="M98.3,75.746l8,2c-1.6,0.5-4.383,0.7-8.35,0.6
			c-4.667-0.1-6.7-0.95-6.101-2.55c0.834-0.133,1.9-0.183,3.2-0.15C95.783,75.679,96.866,75.713,98.3,75.746z M109.6,74.896
			l0.2-0.15l0.25,0.2c0.667,0.566,0.384,1.1-0.85,1.6s-2.2,0.4-2.9-0.3c0.367-0.567,1.033-0.733,2-0.5L109.6,74.896z"/>
		<path style="fill-rule:evenodd;clip-rule:evenodd;fill:#8E8D86;" d="M76.55,153.696l2.575-13.15l0.775-3.8l10.8-55.35
			c0.033-0.167,0.066-0.35,0.1-0.55l5.75-0.1c4.467-0.133,8.384-0.333,11.75-0.6c0.134,0,0.267,0,0.4,0
			c0.033-0.033,0.066-0.033,0.1,0l29.351-0.3c-0.567,0.1-1.417,0.167-2.551,0.2c-1.133,0.067-1.899,0.133-2.3,0.2
			c-0.934,0.133-2.267,0.283-4,0.45c-1.899,0.2-3.233,0.35-4,0.45c-1.767,0.233-4.434,0.25-8,0.05c-3.6-0.2-6.267-0.2-8,0
			c-0.767,0.1-1.967,0.35-3.6,0.75c-1.601,0.4-2.767,0.633-3.5,0.7c-0.934,0.1-2.4,0.117-4.4,0.05c-1.967-0.067-3.45-0.034-4.45,0.1
			c0.067,0.534,0.017,1.267-0.149,2.2c-0.267,1.433-0.4,2.183-0.4,2.25c-0.166,1.367-0.55,2.85-1.149,4.45
			c-0.934,2.2-1.584,3.917-1.95,5.15c-0.233,0.733-0.417,1.617-0.55,2.65c-0.233,1.367-0.384,2.233-0.45,2.6
			c-0.167,0.767-0.5,1.883-1,3.35c-0.533,1.467-0.884,2.566-1.05,3.3c-0.334,2.2-0.634,3.866-0.9,5l-2,9.55
			c-0.233,1.7-0.733,4.167-1.5,7.4c-0.8,3.3-1.316,5.767-1.55,7.399c-0.267,1.801-0.4,3.5-0.4,5.101v0.399l-0.05,0.101
			c-0.267,0-0.417,0.116-0.45,0.35l-0.55,3c-0.4,1.167-1.066,2.917-2,5.25l-0.35,0.5L76.55,153.696z"/>
		<path style="fill-rule:evenodd;clip-rule:evenodd;fill:#A2A199;" d="M86.5,78.796l-0.75-0.45c-0.833-0.434-1.634-0.95-2.4-1.55
			c-1.033-0.833-1.683-1.583-1.949-2.25l-1.5-0.6l-0.051-0.05l-0.05-0.15h1.5c-0.033,0.233,0,0.5,0.101,0.8
			c1.366,0.6,2.783,1.367,4.25,2.3c0.533,0.367,1.433,0.967,2.699,1.8c1.134,0.8,1.934,1.467,2.4,2c-0.134,0.067-0.4,0.067-0.8,0
			C89.283,80.479,88.134,79.863,86.5,78.796z M90.7,81.396l-0.9-0.15c0.066-0.167,0.3-0.3,0.7-0.4c1.1-0.333,3.5-0.55,7.2-0.65
			c0.767-0.067,2.033-0.133,3.8-0.2c1.667-0.067,2.934-0.15,3.8-0.25c0.4-0.033,1.533-0.233,3.4-0.6c1.467-0.267,2.666-0.4,3.6-0.4
			h24.95l1.45,1.1c-0.2,0-0.384,0-0.55,0l-29.351,0.3c-0.033-0.033-0.066-0.033-0.1,0c-0.134,0-0.267,0-0.4,0
			c-3.366,0.267-7.283,0.467-11.75,0.6l-5.75,0.1C90.767,81.046,90.733,81.229,90.7,81.396z M79.7,73.746l0.1,0.15v0.05l-0.3-0.15
			v-0.05H79.7z"/>
		<path style="fill-rule:evenodd;clip-rule:evenodd;fill:#6B6A65;" d="M127.8,71.446l-0.899,0.05l0.55-0.05h0.05H127.8z
			 M90.7,81.396l-10.8,55.35c-0.134,0.6-0.267,1.2-0.4,1.8c-0.131,0.672-0.256,1.338-0.375,2l-2.575,13.15
			c-0.017,0.083-0.033,0.167-0.05,0.25c-0.033,0.033-0.05,0.066-0.05,0.1l-0.05,0.25c-0.233,0.267-0.434,0.584-0.601,0.95
			c-0.733,0.267-1.35,0.816-1.85,1.65c-0.967,1.733-1.833,2.666-2.6,2.8c0.267-1.566,0.683-3.934,1.25-7.101
			c0.433-2.733,0.667-5.116,0.7-7.149c0.033-1.566,0.033-3.917,0-7.05c0-2.733,0.2-5.051,0.601-6.95c0.3-1.334,0.8-3.283,1.5-5.851
			c0.733-2.566,1.233-4.5,1.5-5.8c0.3-1.333,0.466-2.983,0.5-4.95c0-1.1-0.034-2.783-0.101-5.05c0-1.7,0.101-3.166,0.3-4.399
			c0.2-1.2,0.551-2.617,1.051-4.25c0.433-1.367,0.666-3.083,0.699-5.15c0.034-1.167,0.017-2.917-0.05-5.25
			c0-0.633-0.033-1.633-0.1-3c-0.033-1.233,0.033-2.233,0.2-3c0.066-0.267,0.233-0.767,0.5-1.5c0.199-0.6,0.333-1.1,0.399-1.5
			c0.134-1.067,0.134-2.367,0-3.9c-0.1-0.867-0.25-2.167-0.45-3.9H79.8v-0.05l-0.1-0.15h0.1l0.05,0.15l0.051,0.05
			c0.5,0.5,1.25,1.267,2.25,2.3c0.899,0.867,1.783,1.5,2.649,1.9c0.167,0.067,0.733,0.283,1.7,0.65
			c1.634,1.067,2.783,1.684,3.45,1.85l0.55,0.2c-0.4,0.1-0.634,0.233-0.7,0.4L90.7,81.396z M79.8,72.496v0.25h-0.1l0.05-0.25H79.8z
			 M79.5,73.746l0.2-1l-0.15,0.85L79.5,73.746z"/>
		<path style="fill-rule:evenodd;clip-rule:evenodd;fill:#777670;" d="M79.125,140.546c0.119-0.662,0.244-1.328,0.375-2
			c0.134-0.6,0.267-1.2,0.4-1.8L79.125,140.546z M117.65,155.496c-0.367,0.1-0.7,0.2-1,0.3c-0.467,0.066-1.167,0.101-2.101,0.101
			L117.65,155.496z M114.3,155.196l-3.05,0.1h3.1L114.3,155.196z M118.2,155.296l-7.3,0.05c-1.667,0-3.334,0.051-5,0.15l-1.15-0.25
			c-2-0.533-4.033-1.7-6.1-3.5c-1.934-1.667-3.517-3.583-4.75-5.75c0-1.467-0.067-2.55-0.2-3.25c-1.233,0.3-2.033-0.783-2.4-3.25
			c-0.233-1.767-0.25-3.55-0.05-5.35c0.066-0.5,0.184-1.067,0.35-1.7c0.101-0.5,0.017-1.084-0.25-1.75
			c-0.333-0.733-0.8-1.684-1.399-2.851c-0.4-1-0.617-2.066-0.65-3.199c-0.033-1.301-0.033-2.117,0-2.45
			c0.066-0.967,0.367-1.684,0.9-2.15c0.533-0.5,1.649-0.733,3.35-0.7c1.667,0.034,2.767-0.216,3.3-0.75
			c0.434-0.433,0.667-0.883,0.7-1.35l0.75-0.05c0.334,0,0.934,0.033,1.8,0.1c0.767,0.066,1.334,0.033,1.7-0.1
			c0.7-0.233,1.184-0.733,1.45-1.5c0.167-0.467,0.35-1.283,0.55-2.45l1.5-5c-1.3,0.6-3.116,0.733-5.45,0.4
			c-0.166-0.034-0.767-0.233-1.8-0.601c-0.733-0.3-1.333-0.366-1.8-0.2c-0.233,0.067-0.884,0.667-1.95,1.801
			c-0.467-0.967-0.633-1.767-0.5-2.4c0.066-0.434,0.233-1.017,0.5-1.75s0.434-1.316,0.5-1.75c0.101-0.533,0.184-1.467,0.25-2.8
			c0.134-1.2,0.384-2.117,0.75-2.75c0.434-0.733,0.867-1.117,1.3-1.15c0.801-0.033,1.367-0.133,1.7-0.3
			c0.467-0.2,0.851-0.567,1.15-1.1c0.033,0,0.267-0.5,0.7-1.5c0.866-1.967,1.449-3.15,1.75-3.55c0.733-1.1,1.75-1.717,3.05-1.85
			c1.467-0.133,3.5-0.15,6.1-0.05c2.9,0.1,4.917,0.117,6.05,0.05c0.301,0,0.934-0.1,1.9-0.3c0.9-0.133,1.483-0.117,1.75,0.05
			c0.6,0.333,0.967,0.883,1.1,1.65c0.101,0.967,0.217,1.684,0.351,2.15c0.733,0.067,1.816-0.267,3.25-1
			c0.767-0.367,1.816-0.9,3.149-1.6c0.767-0.333,1.301-0.5,1.601-0.5c0.233,0,0.767,0.017,1.6,0.05c1.367,0.033,2.2,0,2.5-0.1
			c0.733-0.2,1.233-0.783,1.5-1.75c0.334,0.434,0.517,1.033,0.55,1.8l0.051,1.95c0.366,0.167,0.85,0.35,1.449,0.55
			c0.467,0.233,0.801,0.583,1,1.05c0.2,0.467,0.217,1.283,0.051,2.45c-0.167,1.267-0.2,2.117-0.101,2.55
			c0.101,0.533,0.3,1.067,0.601,1.6l0.949,15.35c-1.366,2.2-2.366,3.583-3,4.149c0.067,0.434,0.051,0.75-0.05,0.95v-0.899
			c-1.233,1.066-2.383,1.183-3.45,0.35c-0.399-0.333-0.783-1.05-1.149-2.15c-0.5-1.399-0.8-2.183-0.9-2.35
			c-0.6-1.134-1.116-1.967-1.55-2.5c-0.667-0.8-1.5-1.434-2.5-1.9c-0.4,0.867-0.8,1.434-1.2,1.7c-0.666,0.233-1.283,0.483-1.85,0.75
			c-0.367,0.167-0.783,0.517-1.25,1.05c-0.566,0.601-0.934,0.967-1.101,1.101c-0.533,0.166-1.216,0.25-2.05,0.25H120.4
			c-0.834-0.2-1.801-0.65-2.9-1.351c-1-0.733-1.717-1.566-2.15-2.5c-0.1-0.233-0.416-1.25-0.949-3.05
			c-0.034,0.733-0.284,1.934-0.75,3.601c-0.2-0.4-0.317-0.733-0.351-1c0,0.433,0.084,0.899,0.25,1.399
			c-0.566,1.967-0.883,3.417-0.95,4.351c-0.1,1.6,0.284,2.966,1.15,4.1c0.667,0.866,1.95,1.816,3.85,2.85
			c2.834,1.567,4.267,2.367,4.301,2.4c0.933,0.634,2.333,1.533,4.199,2.7c0.2,0.133,0.467,0.416,0.801,0.85
			c0.233,0.334,0.533,0.566,0.899,0.7c0.233,0.1,0.634,0.116,1.2,0.05c0.634-0.066,1.05-0.083,1.25-0.05v0.05l-0.45,0.9
			c-0.666,1-0.816,2.983-0.45,5.95l0.301,0.05l0.149,3.45c0,0.6-0.116,1.783-0.35,3.55c-0.2,1.467-0.25,2.633-0.15,3.5
			c0.033,0.166,0.4,1.166,1.101,3c0.366,1,0.216,1.983-0.45,2.95c-0.934,1.433-2,2.433-3.2,3c-1.167,0.533-2.6,0.699-4.3,0.5
			c-0.101-0.4-0.15-0.967-0.15-1.7c0-0.8-0.033-1.367-0.1-1.7C120.634,154.38,119.3,154.896,118.2,155.296z M106.3,102.246
			c-0.399-0.1-0.883-0.083-1.45,0.05c-0.1,0.8-0.1,1.584,0,2.351c0.9,0.133,1.867,0.149,2.9,0.05c0.333-1.467,0.017-2.284-0.95-2.45
			H106.3z"/>
		<path style="fill-rule:evenodd;clip-rule:evenodd;fill:#8E8D85;" d="M28.55,46.446c1.2-4.934,3.383-9.467,6.55-13.6
			c0.7-0.9,1.383-1.717,2.05-2.45c3.167-3.5,6.033-5.1,8.6-4.8c2.233,0.267,4.25,0.733,6.05,1.4c0.534,0.2,1.067,0.433,1.6,0.7
			c0.934,0.433,1.817,0.95,2.65,1.55c1.267,0.933,2.367,2.033,3.3,3.3c1.4,1.9,2.417,4.167,3.05,6.8c0.633,2.566,0.9,5.367,0.8,8.4
			c0-2.567-0.267-4.967-0.8-7.2c-1.066-4.433-3.217-7.783-6.45-10.05c-0.867-0.633-1.784-1.167-2.75-1.6
			c-2.133-1-4.583-1.65-7.35-1.95c-2.8-0.333-6,1.65-9.6,5.95c-0.333,0.367-0.667,0.767-1,1.2c-0.033,0.066-0.083,0.133-0.15,0.2
			c-0.367,0.4-0.733,0.85-1.1,1.35C31.433,38.913,29.617,42.513,28.55,46.446z M28.3,61.946c-0.049-0.172-0.091-0.347-0.125-0.525
			c0.009,0.027,0.018,0.052,0.025,0.075C28.233,61.629,28.267,61.779,28.3,61.946z"/>
		<path style="fill-rule:evenodd;clip-rule:evenodd;fill:#494A3D;" d="M53.75,36.296l-0.8,0.4l-0.8,0.35
			c-0.5-1.233-0.95-2.517-1.35-3.85l-2.35,0.85c-1.633,0.733-2.934,1.367-3.9,1.9c0.467,1.5,0.967,2.95,1.5,4.35l-1.45,0.75
			c-0.7-1.667-1.217-3.05-1.55-4.15l-2,1.25c-1.066,0.767-2.033,1.5-2.9,2.2l0.85,2.95l0.3,0.75l-1.35,0.9
			c-0.467-1.333-0.85-2.483-1.15-3.45c-1,0.9-1.583,1.45-1.75,1.65c-1.1,1.1-1.75,1.767-1.95,2l-0.25,0.3l0.75,3.05l-1.25,1.15
			l-0.75-2.8l-1.6,1.8c-0.4,0.467-0.9,1.083-1.5,1.85l0.5,2.1l0.15,0.45l-1.1,1.25l-0.6-2l0.1-0.45c0.1-1.033,0.25-2.05,0.45-3.05
			l0.05-0.25l3.15-3.55v-0.05l1.3-1.4l5.3-4.7c0.833-0.633,1.767-1.283,2.8-1.95l3.65-2.05c1.133-0.6,2.433-1.167,3.9-1.7
			c0.367-0.167,1.167-0.433,2.4-0.8l0.4-0.1l0.8,0.6c0.533,0.4,0.917,0.717,1.15,0.95L53.75,36.296z M43.65,32.446l-1.55,0.9
			c-0.3-1.133-0.55-2.333-0.75-3.6c0.7-0.2,1.283-0.283,1.75-0.25h0.05L43.65,32.446z M35,56.646l-1.6-3.85l-1.4,1.7l-1.65,2.05
			l1.05,2.55l0.15,0.25l-1,0.9l-1.2-2.5l-1.25,1.5l-0.3,0.45l-0.3-2.2l2.2-2.7l-0.05-0.05h0.05l0.55-0.6l3.8-3.95l0.25,0.75
			l-0.25-0.8c1.467-1.2,2.4-1.95,2.8-2.25l3.05-2.1c1.067-0.7,2.167-1.35,3.3-1.95l3.5-1.9c1.9-1.034,3.2-1.7,3.9-2
			c0.133-0.1,0.867-0.45,2.2-1.05l3.05-1.15l0.4,0.8l-1.5,0.6c0.233,0.633,0.783,1.983,1.65,4.05l-1.5,0.75l-1.65-4l-2.2,1.1l-3.8,2
			c0.833,1.833,1.5,3.184,2,4.05l-1.3,0.8c-0.9-1.633-1.617-3.017-2.15-4.15l-2,1.05l-3.45,2.1l-0.35-0.8l0.35,0.85l0.15,0.25
			l1.95,4.25l-0.7,0.5l-0.45,0.25c-0.9-1.534-1.617-2.983-2.15-4.35l-1.75,1.25c-1,0.8-1.95,1.65-2.85,2.55l1.6,4.2L35,56.646z
			 M54.35,48.096l-3.4,2l1.8,2.95l-0.7,0.7l-0.3,0.25c-0.8-1.167-1.483-2.217-2.05-3.15l-0.25,0.1l-1.65,1.05l-3.7,2.25l2.55,3.85
			l0.25,0.3l0.1,0.1l-0.95,0.85c-1.1-1.367-2.133-2.817-3.1-4.35l-1.7,1.05l-3.85,2.35l-0.2-0.375l0.6,1.175l0.1,0.1
			c0.333,0.633,0.733,1.3,1.2,2l1.55,2.3l-0.95,0.65c-1.267-1.6-2.383-3.283-3.35-5.05l-1.5,1.1c-0.767,0.6-1.417,1.167-1.95,1.7
			l0.6,1.1l2.15,3.2l0.3,0.35l-1,0.55c-1.067-1.4-2.05-2.833-2.95-4.3c-0.467,0.467-0.85,0.917-1.15,1.35
			c-0.467,0.633-0.8,1.2-1,1.7c-0.3-0.534-0.55-1.117-0.75-1.75l0.95-1.25l1.25-1.25l5.55-4.35l0.15-0.1
			c1.067-0.767,2.233-1.55,3.5-2.35l2.9-1.75l0.55,0.9l-0.5-0.9l14.4-8.4l0.15,1.2l-0.25,0.1l0.3,0.6v1.35
			c-0.433,0.133-0.716,0.267-0.85,0.4l-0.8-1.5L54.35,48.096z M37.3,36.596l-0.7,0.6l-0.75,0.6l-0.65-3.55l1.5-1.5L37.3,36.596z
			 M30.6,41.246c0.533-1.067,0.967-1.867,1.3-2.4l0.25,2.4l-1.35,1.45L30.6,41.246z M40.4,65.096l0.6,0.6l-0.55-0.6l-0.05-0.05
			V65.096z M41.35,64.446l0.7,0.85c0.8,1,1.767,2,2.9,3l-0.85,0.6c-1.067-0.933-2.05-1.933-2.95-3l0.65-0.4l-6.55,3.8l-0.45,0.15
			l-2.15,1.05H32.6l-0.5-0.7l8.3-4.75L41.35,64.446z M49.65,71.896l-0.55,0.5c-1.133-0.633-2.283-1.4-3.45-2.3l-6.5,3.35l-2.55,0.85
			l-0.65-0.5c0.667-0.2,1.483-0.517,2.45-0.95l1.55-0.7l5.65-3.25l0.85,0.7C47.85,70.663,48.917,71.429,49.65,71.896z M36.3,68.746
			l0.95-0.5l0.1,0.15l2.85,2.85l-0.85,0.45C38.383,70.896,37.367,69.913,36.3,68.746z M57.05,52.646c-0.566,0.6-1.45,1.467-2.65,2.6
			l-0.9-1.2l4.55-4.65l-0.15,2.4l-0.25,0.25v0.05H57.6L57.05,52.646z M51.45,63.696l-0.85,0.7c-1.033-1-2.033-2.05-3-3.15l-4.9,3.65
			l-0.65,0.4l-0.7-0.9c0.867-0.6,2.167-1.566,3.9-2.9l8.25-7.4l0.9,1.15l-5.85,5.25l1.05,1.2l0.15,0.2L51.45,63.696z M53.5,67.046
			l-1.35-1.15l0.9-0.65l0.95,0.9L53.5,67.046z M52.1,64.396l0.65,0.55l-0.65-0.6l1.4-1.05c0.667-0.566,1.417-1.367,2.25-2.4
			l0.55-0.75l-1.1,3.45l-4.65,3.4c-1.8,1.2-3.15,2.067-4.05,2.6l-0.85-0.7L52.1,64.396z M53.5,56.096l0.9-0.85l2.05,2.15l-0.55,0.95
			C55,57.646,54.2,56.896,53.5,56.096z M45.3,74.796l-0.8,0.3c-1.333-0.667-2.6-1.45-3.8-2.35l0.85-0.4l3,2.05l0.45,0.2L45.3,74.796
			z"/>
		<path style="fill-rule:evenodd;clip-rule:evenodd;fill:#2F3029;" d="M58.05,47.996v-1.35l-0.3-0.6l0.25-0.1l-0.15-1.2
			c-0.033-0.467-0.15-1.167-0.35-2.1l-1.1,0.55c-0.867-2.067-1.417-3.417-1.65-4.05l1.5-0.6l-0.4-0.8l-1.15-1.85l-0.95,0.4
			l-0.85-2.5c-0.233-0.233-0.617-0.55-1.15-0.95l-0.8-0.6l-0.55-0.35c-0.933-0.566-1.85-1-2.75-1.3l-0.15-0.05v0.1
			c-1.2,0.5-2.483,1.1-3.85,1.8l-0.5-2.95c3.633,0.433,6.6,1.533,8.9,3.3c0.8,0.6,1.534,1.284,2.2,2.05
			c0.433,0.566,0.85,1.167,1.25,1.8c0.067,0.1,0.133,0.2,0.2,0.3c0.167,0.3,0.316,0.6,0.45,0.9c0.167,0.367,0.333,0.75,0.5,1.15
			c0.3,0.7,0.55,1.45,0.75,2.25c1.434,5.533,0.934,12.3-1.5,20.3c-0.2,0.7-0.433,1.383-0.7,2.05c-1.3,3.4-3.15,6.167-5.55,8.3
			c-0.733-0.467-1.8-1.233-3.2-2.3l-0.85-0.7l-5.65,3.25l-1.55,0.7l7.2-3.95l-0.65-0.6c-1.133-1-2.1-2-2.9-3l-0.7-0.85l-0.7-0.85
			l-1.55-2.3c-0.467-0.7-0.867-1.367-1.2-2l-0.1-0.1l-0.6-1.175l0.2,0.375l3.85-2.35c1.3,1.934,2.4,3.45,3.3,4.55
			c-1.433,1.167-2.733,2.15-3.9,2.95l0.7,0.85l0.7,0.9l0.65-0.4l4.9-3.65l-1.5,1.2c0.8,0.933,1.767,1.966,2.9,3.1l-4,2.75l0.65,0.6
			l0.85,0.7c0.9-0.533,2.25-1.4,4.05-2.6l4.65-3.4l1.1-3.45l0.95-4l-0.8,1.25l-2.05-2.15l-0.9,0.85l-1.65,1.5
			c0.833,0.867,1.783,1.733,2.85,2.6c-0.8,1.2-1.883,2.367-3.25,3.5l0.65,0.65l0.65,0.6l-0.65-0.55l-0.65-0.7l-1.7-1.8l-0.15-0.2
			l-1.05-1.2l5.85-5.25l-0.9-1.15l-0.2-0.25l0.2,0.2l0.9,1.2c1.2-1.133,2.083-2,2.65-2.6l0.65,0.9l0.2-1.7l-0.25,0.25v-0.05
			l0.25-0.25l0.15-2.4V47.996z M37.3,36.596l-0.6-3.85l-1.5,1.5c-0.7,0.8-1.317,1.583-1.85,2.35l0.65,2.85l-1.85,1.8l-2.9,3.25
			l-0.15,0.4c-0.367,1.067-0.717,2.283-1.05,3.65L28,48.796c-0.2,1-0.35,2.017-0.45,3.05l-0.1,0.45c0.2-2.033,0.566-3.983,1.1-5.85
			c1.067-3.934,2.883-7.534,5.45-10.8c0.367-0.5,0.733-0.95,1.1-1.35c0.066-0.066,0.117-0.133,0.15-0.2c0.3-0.367,0.617-0.7,0.95-1
			c2.5-2.633,4.8-3.833,6.9-3.6c-0.467-0.033-1.05,0.05-1.75,0.25c-0.767,0.233-1.5,0.6-2.2,1.1c0.2,1.2,0.483,2.483,0.85,3.85
			l2.1-1.35l1.55-0.9L40,34.696C39.167,35.229,38.267,35.863,37.3,36.596z M46.05,40.296c-0.533-1.4-1.033-2.85-1.5-4.35
			c0.967-0.534,2.267-1.167,3.9-1.9l1.45,4.15L46.05,40.296z M41.05,38.146c0.5,1.5,1,2.817,1.5,3.95
			c-1.2,0.667-2.283,1.316-3.25,1.95l-3.1,2.25c-0.6,0.467-1.467,1.2-2.6,2.2l-2.8,2.75l-1.65,1.8l-1.8,2.15l0.7-0.9l1.1-1.25
			L29,52.596l-0.5-2.1c0.6-0.767,1.1-1.383,1.5-1.85l0.8,2.6l1.55-1.6l1.25-1.15l-0.75-3.05l0.25-0.3c0.2-0.233,0.85-0.9,1.95-2
			l1.15,3.15l1.75-1.35l1.35-0.9l-0.3-0.75l-0.85-2.95C39.017,39.646,39.983,38.913,41.05,38.146z M52.75,53.046l-1.8-2.95l3.4-2
			l1.15,2.05l-2.75,2.85l0.05,0.1L52.75,53.046z M35,56.646l1.15-0.8l-1.6-4.2c0.9-0.9,1.85-1.75,2.85-2.55
			c0.767,1.633,1.5,3.066,2.2,4.3l-3.35,2.35l-0.1,0.05l0.4,0.9l-0.4-0.85l-2.65,1.95c-0.767,0.567-1.417,1.083-1.95,1.55l-2.3,2.2
			l-0.75,0.95c-0.1-0.333-0.2-0.667-0.3-1c-0.008-0.023-0.016-0.048-0.025-0.075c-0.008-0.055-0.016-0.114-0.025-0.175
			c-0.133-0.517-0.25-1.033-0.35-1.55c-0.1-0.517-0.183-1.034-0.25-1.55c-0.027-0.215-0.044-0.432-0.05-0.65l0.3,2.2l0.3-0.45
			l1.15,2.3l1.3-1.3l1-0.9l-0.15-0.25l-1.05-2.55l1.65-2.05c0.267,0.667,0.767,1.767,1.5,3.3L35,56.646z M51.05,41.046
			c0.167,0.434,0.75,1.767,1.75,4l-3.55,2.05c-0.5-0.867-1.167-2.217-2-4.05L51.05,41.046z M52.95,36.696l-1.4,0.7l0.6-0.35
			L52.95,36.696z M30.25,54.146l-0.55,0.6v-0.05L30.25,54.146z M34.05,50.146l0.25,0.8l-0.25-0.75L34,50.046L34.05,50.146z
			 M43.45,53.146l0.5,0.9l-0.55-0.9l-0.95-1.7l-1.95-4.25l-0.15-0.25L40,46.096l0.35,0.8l3.45-2.1l2.25,4.25l-3.55,2.35
			L43.45,53.146z M35.85,37.796l0.75-0.6l-1.45,1.25L35.85,37.796z M30.6,41.246c-0.467,1-0.917,2.083-1.35,3.25l1.55-1.8l1.35-1.45
			l-0.25-2.4C31.567,39.379,31.133,40.179,30.6,41.246z M47,58.496l-0.1-0.1l-0.25-0.3l-2.55-3.85l3.7-2.25
			c0.767,1.3,1.567,2.483,2.4,3.55C48.767,56.913,47.7,57.896,47,58.496z M41.75,51.946l-0.85,0.55l0.4-0.3L41.75,51.946z
			 M36.3,68.746l-1.05,0.55l-0.4,0.15c0.9,1.066,1.883,2.05,2.95,2.95c-0.8,0.367-1.65,0.667-2.55,0.9l0.7,0.5l0.65,0.5l2.55-0.85
			c0.967,0.733,2.067,1.45,3.3,2.15c0.497-0.055,0.963-0.147,1.4-0.275c-1.976,0.619-3.826,0.577-5.55-0.125
			c-2.066-0.833-3.95-2.4-5.65-4.7l2.15-1.05l0.45-0.15l6.55-3.8l-0.65,0.4l-1.55,0.95c1,1.133,2.017,2.133,3.05,3l-2.45,1.4
			l-2.85-2.85l-0.1-0.15L36.3,68.746z M52.05,53.746l-0.5,0.45l0.2-0.2L52.05,53.746z M31.55,68.896c-0.367-0.533-0.7-1.083-1-1.65
			c-0.233-0.433-0.466-0.867-0.7-1.3c0.2-0.5,0.533-1.067,1-1.7c0.8,1.3,1.683,2.533,2.65,3.7L31.55,68.896z M34.85,60.296
			c0.9,1.6,2.017,3.25,3.35,4.95l-2.25,1.4l-0.3-0.35l-2.15-3.2l-0.6-1.1C33.433,61.463,34.083,60.896,34.85,60.296z M40.45,65.096
			l0.55,0.6l-0.6-0.6H40.45z M53.5,67.046l0.5-0.9l-0.95-0.9l-0.9,0.65l-1.6,1.1l1.95,1.65L53.5,67.046z M40.7,72.746l-1.55,0.7
			l6.5-3.35l-1.55,0.95c1.233,0.967,2.4,1.784,3.5,2.45c-0.8,0.5-1.567,0.933-2.3,1.3l-0.3-0.2l-0.45-0.2l-3-2.05L40.7,72.746z"/>
		<path style="fill-rule:evenodd;clip-rule:evenodd;fill:#5C5B56;" d="M45.3,74.796c0.733-0.367,1.5-0.8,2.3-1.3h0.05l1.45-1.1
			l0.55-0.5c2.4-2.133,4.25-4.9,5.55-8.3c0.267-0.667,0.5-1.35,0.7-2.05c2.434-8,2.934-14.767,1.5-20.3
			c-0.2-0.8-0.45-1.55-0.75-2.25c-0.167-0.4-0.333-0.783-0.5-1.15c-0.133-0.3-0.283-0.6-0.45-0.9c-0.067-0.1-0.133-0.2-0.2-0.3
			c-0.4-0.633-0.817-1.233-1.25-1.8c-0.667-0.767-1.4-1.45-2.2-2.05c-2.3-1.767-5.267-2.867-8.9-3.3H43.1
			c-2.1-0.233-4.4,0.967-6.9,3.6c-0.333,0.3-0.65,0.633-0.95,1c0.333-0.434,0.667-0.833,1-1.2c3.6-4.3,6.8-6.283,9.6-5.95
			c2.767,0.3,5.217,0.95,7.35,1.95c0.966,0.434,1.883,0.967,2.75,1.6c3.233,2.267,5.383,5.617,6.45,10.05
			c0.533,2.233,0.8,4.633,0.8,7.2c-0.067,4.733-1.067,10.05-3,15.95c-1.9,5.767-5.034,10.066-9.4,12.9
			c-3.966,2.6-7.55,3.25-10.75,1.95c-0.833-0.333-1.633-0.767-2.4-1.3c-2.333-1.6-4.45-4.1-6.35-7.5c-1.4-2.5-2.4-5.1-3-7.8
			c-0.033-0.167-0.066-0.317-0.1-0.45c0.1,0.333,0.2,0.667,0.3,1c0.167,0.5,0.35,1,0.55,1.5c0,0.067,0.017,0.133,0.05,0.2
			c0.2,0.633,0.45,1.216,0.75,1.75c0.233,0.433,0.467,0.867,0.7,1.3c0.3,0.567,0.633,1.117,1,1.65H31.5l0.6,0.9l0.5,0.7h0.05
			c1.7,2.3,3.583,3.867,5.65,4.7c1.724,0.702,3.574,0.744,5.55,0.125l0.25-0.075c0.133-0.033,0.267-0.083,0.4-0.15L45.3,74.796z"/>
		<path style="fill-rule:evenodd;clip-rule:evenodd;fill:#707360;" d="M41.35,29.746c0.2,1.267,0.45,2.467,0.75,3.6l-2.1,1.35
			c-0.367-1.367-0.65-2.65-0.85-3.85C39.85,30.346,40.583,29.979,41.35,29.746z M37.3,36.596c0.967-0.733,1.867-1.367,2.7-1.9
			l3.65-2.25c1.367-0.7,2.65-1.3,3.85-1.8v-0.1l0.15,0.05c0.9,0.3,1.817,0.733,2.75,1.3l0.55,0.35l-0.4,0.1
			c-1.233,0.367-2.033,0.633-2.4,0.8c-1.467,0.533-2.767,1.1-3.9,1.7l-3.65,2.05c-1.033,0.667-1.967,1.317-2.8,1.95l-5.3,4.7
			l-1.3,1.4v0.05l-3.15,3.55c0.333-1.367,0.684-2.583,1.05-3.65l0.15-0.4l2.9-3.25l1.85-1.8l-0.65-2.85
			c0.533-0.767,1.15-1.55,1.85-2.35l0.65,3.55l-0.7,0.65l1.45-1.25L37.3,36.596z M52.95,36.696l0.8-0.4l0.95-0.4l1.15,1.85
			l-3.05,1.15c-1.333,0.6-2.066,0.95-2.2,1.05c-0.7,0.3-2,0.966-3.9,2l-3.5,1.9c-1.133,0.6-2.233,1.25-3.3,1.95l-3.05,2.1
			c-0.4,0.3-1.333,1.05-2.8,2.25l-0.05-0.1l0.05,0.15l-3.8,3.95l-0.55,0.55v0.05h-0.05l0.05,0.05l-2.2,2.7
			c-0.049-0.355-0.083-0.714-0.1-1.075c-0.033-0.403-0.05-0.811-0.05-1.225c-0.005-0.612,0.012-1.229,0.05-1.85l0.05-0.85
			c0-0.033,0-0.083,0-0.15v-0.05l0.6,2l-0.7,0.9l1.8-2.15l1.65-1.8l2.8-2.75c1.133-1,2-1.733,2.6-2.2l3.1-2.25
			c0.967-0.633,2.05-1.283,3.25-1.95c-0.5-1.133-1-2.45-1.5-3.95l2-1.25c0.333,1.1,0.85,2.483,1.55,4.15l1.45-0.75l3.85-2.1
			l-1.45-4.15l2.35-0.85c0.4,1.333,0.85,2.617,1.35,3.85l-0.6,0.35L52.95,36.696z M49.25,47.096l3.55-2.05
			c-1-2.233-1.583-3.566-1.75-4l2.2-1.1l1.65,4l1.5-0.75l1.1-0.55c0.2,0.934,0.317,1.633,0.35,2.1l-14.4,8.4l-0.95-1.75l3.55-2.35
			l-2.25-4.25l2-1.05c0.534,1.133,1.25,2.517,2.15,4.15L49.25,47.096z M58.05,47.996v1.4l-4.55,4.65l-0.2-0.2l0.2,0.25l-8.25,7.4
			c-1.733,1.333-3.033,2.3-3.9,2.9l-0.7-0.85c1.167-0.8,2.467-1.783,3.9-2.95c-0.9-1.1-2-2.617-3.3-4.55l1.7-1.05
			c0.966,1.533,2,2.983,3.1,4.35l0.95-0.85c0.7-0.6,1.767-1.583,3.2-2.95c-0.833-1.066-1.633-2.25-2.4-3.55l1.65-1.05l0.25-0.1
			c0.566,0.933,1.25,1.983,2.05,3.15l-0.2,0.2l0.5-0.45l0.7-0.7l0.05,0.05l-0.05-0.1l2.75-2.85l-1.15-2.05l2.05-1.2l0.8,1.5
			C57.333,48.263,57.617,48.129,58.05,47.996z M30,48.646l1.6-1.8l0.75,2.8l-1.55,1.6L30,48.646z M35,56.646l-1.5,1.15
			c-0.733-1.533-1.233-2.633-1.5-3.3l1.4-1.7L35,56.646z M37.95,44.946l-1.75,1.35l-1.15-3.15c0.167-0.2,0.75-0.75,1.75-1.65
			C37.1,42.463,37.483,43.613,37.95,44.946z M41.75,51.946l0.7-0.5l0.95,1.7l-2.9,1.75c-1.267,0.8-2.433,1.583-3.5,2.35l-0.15,0.1
			l-5.55,4.35l-1.25,1.25l-0.95,1.25c-0.033-0.067-0.05-0.133-0.05-0.2c-0.2-0.5-0.383-1-0.55-1.5l0.75-0.95l2.3-2.2
			c0.534-0.467,1.184-0.983,1.95-1.55l2.65-1.95l0.4,0.85l-0.4-0.9l0.1-0.05l3.35-2.35c-0.7-1.233-1.434-2.667-2.2-4.3l1.75-1.25
			c0.533,1.367,1.25,2.816,2.15,4.35l-0.4,0.3L41.75,51.946z M30.6,41.246l0.2,1.45l-1.55,1.8
			C29.683,43.33,30.133,42.246,30.6,41.246z M47.6,61.246c0.967,1.1,1.967,2.15,3,3.15l0.85-0.7l0.65,0.7l-6.45,4.5l-0.65-0.6
			l4-2.75c-1.133-1.133-2.1-2.167-2.9-3.1L47.6,61.246z M40.65,63.596l0.7,0.85l-0.95,0.6l-8.3,4.75l-0.6-0.9h0.05l1.95-0.95
			c-0.967-1.167-1.85-2.4-2.65-3.7c0.3-0.433,0.683-0.883,1.15-1.35c0.9,1.467,1.883,2.9,2.95,4.3l1-0.55l2.25-1.4
			c-1.333-1.7-2.45-3.35-3.35-4.95l1.5-1.1c0.967,1.767,2.083,3.45,3.35,5.05L40.65,63.596z M28.1,59.246l1.25-1.5l1.2,2.5l-1.3,1.3
			L28.1,59.246z M40.4,65.096v-0.05l0.05,0.05H40.4z M40.2,71.246l2.45-1.4c-1.033-0.867-2.05-1.867-3.05-3l1.55-0.95
			c0.9,1.067,1.883,2.067,2.95,3l0.85-0.6l0.65,0.6l-7.2,3.95c-0.967,0.433-1.783,0.75-2.45,0.95l-0.7-0.5
			c0.9-0.233,1.75-0.533,2.55-0.9c-1.066-0.9-2.05-1.883-2.95-2.95l0.4-0.15l1.05-0.55c1.067,1.167,2.083,2.15,3.05,2.95
			L40.2,71.246z M39.15,73.446l1.55-0.7c1.2,0.9,2.466,1.683,3.8,2.35c-0.133,0.066-0.267,0.117-0.4,0.15l-0.25,0.075
			c-0.437,0.128-0.903,0.22-1.4,0.275C41.217,74.896,40.117,74.179,39.15,73.446z M57.65,52.096l0.25-0.25l-0.2,1.7l-0.65-0.9
			l0.55-0.55H57.65z M53.5,56.096c0.7,0.8,1.5,1.55,2.4,2.25l0.55-0.95l0.8-1.25l-0.95,4l-0.55,0.75
			c-0.833,1.033-1.583,1.833-2.25,2.4l-1.4,1.05l-0.65-0.65c1.367-1.133,2.45-2.3,3.25-3.5c-1.067-0.867-2.017-1.733-2.85-2.6
			L53.5,56.096z M47.6,73.496c-1.1-0.667-2.267-1.483-3.5-2.45l1.55-0.95c1.167,0.9,2.317,1.667,3.45,2.3l-1.45,1.1H47.6z
			 M53.5,67.046l-1,1.6l-1.95-1.65l1.6-1.1L53.5,67.046z"/>
		<path style="fill-rule:evenodd;clip-rule:evenodd;fill:#333230;" d="M41.15,79.146c-0.133-0.066-0.25-0.117-0.35-0.15
			c-1.1-0.433-2.15-1.017-3.15-1.75c0.767,0.533,1.567,0.967,2.4,1.3c3.2,1.3,6.784,0.65,10.75-1.95c4.367-2.833,7.5-7.133,9.4-12.9
			c1.933-5.9,2.933-11.217,3-15.95c0.1-3.033-0.167-5.833-0.8-8.4c-0.633-2.633-1.65-4.9-3.05-6.8c2.3,2.2,3.9,5.05,4.8,8.55
			c1.633,6.4,0.883,14.15-2.25,23.25c-2,5.767-5.283,10.033-9.85,12.8C48.017,79.58,44.383,80.246,41.15,79.146z"/>
		<path style="fill-rule:evenodd;clip-rule:evenodd;fill:#595954;" d="M75.8,155.246c-0.533,1-0.783,2.333-0.75,4
			c0,0.733,0.017,1.4,0.05,2l-2.35,11.95c-1.7,2.934-2.833,6.434-3.4,10.5c-1.367,0.533-2.733,0.267-4.1-0.8v1.649
			c-0.3-0.6-0.45-1.55-0.45-2.85c0.034-1.867,0.25-4.184,0.65-6.95c0.566-4,0.883-6.3,0.95-6.9c0.2-1.833,0.617-4.1,1.25-6.8
			c0.934-3.899,1.45-6.133,1.55-6.7c0.733-3.833,1.1-9.183,1.1-16.05c0-1.866,0.1-4.083,0.3-6.649c0.1-1.434,0.267-3.601,0.5-6.5
			c0.8-2.067,1.2-3.884,1.2-5.45v-1.05c0.8-2.134,1.267-3.483,1.4-4.051c0.633-2.633,1.166-5.1,1.6-7.399
			c0.233-1.3,0.584-4.05,1.05-8.25c0.4-3.5,0.851-6.3,1.351-8.4c0.733-3.033,1.1-7.05,1.1-12.05c0.634-2.433,0.967-3.95,1-4.55h0.05
			c0.2,1.733,0.351,3.033,0.45,3.9c0.134,1.533,0.134,2.833,0,3.9c-0.066,0.4-0.2,0.9-0.399,1.5c-0.267,0.733-0.434,1.233-0.5,1.5
			c-0.167,0.767-0.233,1.767-0.2,3c0.066,1.367,0.1,2.367,0.1,3c0.066,2.333,0.084,4.083,0.05,5.25
			c-0.033,2.067-0.267,3.783-0.699,5.15c-0.5,1.633-0.851,3.05-1.051,4.25c-0.199,1.233-0.3,2.699-0.3,4.399
			c0.066,2.267,0.101,3.95,0.101,5.05c-0.034,1.967-0.2,3.617-0.5,4.95c-0.267,1.3-0.767,3.233-1.5,5.8
			c-0.7,2.567-1.2,4.517-1.5,5.851c-0.4,1.899-0.601,4.217-0.601,6.95c0.033,3.133,0.033,5.483,0,7.05
			c-0.033,2.033-0.267,4.416-0.7,7.149c-0.567,3.167-0.983,5.534-1.25,7.101c0.767-0.134,1.633-1.066,2.6-2.8
			C74.45,156.063,75.066,155.513,75.8,155.246z"/>
		<path style="fill-rule:evenodd;clip-rule:evenodd;fill:#61615A;" d="M20.15,167.146c-0.6,0.033-1.05,0.05-1.35,0.05h-4.25
			c-1.3,0.066-2.283,0.1-2.95,0.1c-1.2,0.033-2.15-0.017-2.85-0.149c0.333-0.567,0.55-1.267,0.65-2.101
			c0.1-0.833,0.05-1.566-0.15-2.2c-0.167-0.466-0.567-0.933-1.2-1.399c-0.767-0.533-1.25-0.934-1.45-1.2
			c-0.233-0.3-0.45-0.866-0.65-1.7c-0.267-1.133-1.15-2.583-2.65-4.35c-0.2-0.267-0.816-0.65-1.85-1.15
			c-0.867-0.434-1.35-0.916-1.45-1.45c0.3-0.233,0.733-0.366,1.3-0.399c0.3-0.033,0.767-0.066,1.4-0.101
			c0.433-0.066,1.017-0.199,1.75-0.399L20.15,167.146z M43.3,191.196h12.75c4.633,4.434,8.35,8.1,11.15,11H70
			c-1.033,0.033-2.3,0.083-3.8,0.149c-2.267,0.134-3.883,0.2-4.85,0.2c-1.233,0-2.05-0.017-2.45-0.05
			c-1.167-0.134-1.8-0.45-1.9-0.95c0-0.1,0.1-0.366,0.3-0.8c0.233-0.434,0.35-0.733,0.35-0.9c0-0.633-0.133-1.183-0.4-1.649
			c-0.233-0.4-0.533-0.65-0.9-0.75c-0.434-0.033-0.783-0.117-1.05-0.25c-0.7-0.334-1.233-0.667-1.6-1
			c-1.367-1.334-3.133-2.217-5.3-2.65c-1.033-0.233-2.267-0.3-3.7-0.2c-2.4,0.134-3.65,0.2-3.75,0.2c-1.6,0.066-2.8,0.101-3.6,0.101
			c-1.4,0-2.517-0.25-3.35-0.75s-1.717-1.301-2.65-2.4c-0.833-1.033-1.517-2.033-2.05-3c-0.233-0.467-0.483-1.267-0.75-2.4
			c-0.233-1.033-0.533-1.8-0.9-2.3c-0.933-1.2-2.267-2.267-4-3.2c-1.5-1-2.617-1.6-3.35-1.8c0.1-0.566,0.45-1,1.05-1.3
			c0.333-0.167,0.867-0.4,1.6-0.7c0.767-0.399,1.65-1.066,2.65-2c-0.167-0.633-1.533-0.916-4.1-0.85c-2.833,0.2-4.55,0.267-5.15,0.2
			c-0.267-0.667,0.25-1.233,1.55-1.7c0.5-0.167,1.434-0.384,2.8-0.65c0.867-0.166,1.633-0.383,2.3-0.649l20.05,21.05H43.3z"/>
		<path style="fill-rule:evenodd;clip-rule:evenodd;fill:#5C5C56;" d="M72.75,173.196l2.35-11.95c0,2.267,0,3.434,0,3.5
			C74.467,168.813,73.684,171.63,72.75,173.196z M71.65,181.796c1.466-2.866,2.4-4.85,2.8-5.95c1.3-3.633,2.116-7.716,2.45-12.25
			c0.433,0.934,1.1,1.45,2,1.551c0.6,0.066,1.683,0.1,3.25,0.1c0.033,1.566,0.649,2.333,1.85,2.3c0.667,0,1.767-0.133,3.3-0.399
			c1.267,0.133,2.5,1.233,3.7,3.3c1.434,2.566,2.35,4.017,2.75,4.35c1.267,1.066,3.434,1.45,6.5,1.15l-0.95,0.649
			c1.334,0.301,2.667,0.2,4-0.3c0.7-0.3,1.867-0.967,3.5-2c1.233-0.733,1.983-1.583,2.25-2.55c0.167-0.5,0.25-1.684,0.25-3.55
			l-2.399-2.9c0.233,0.334,0.399,0.767,0.5,1.3c-0.233-0.233-0.684-0.55-1.351-0.949c-0.7-0.4-1.166-0.717-1.399-0.95
			c-0.834-0.834-1.2-1.334-1.101-1.5c0.101-0.167,0.517-0.634,1.25-1.4c0.834-1.2,0.717-2.083-0.35-2.649
			c-1.634-0.567-2.867-1.051-3.7-1.45c-1.066-0.533-1.684-1.184-1.85-1.95c-0.134-0.5-0.184-1.467-0.15-2.9
			c0.733,1.667,2.35,2.617,4.85,2.851l-0.8,0.1c0.733,0.967,2.634,1.4,5.7,1.3c1.366-0.033,4.083-0.466,8.15-1.3
			c0.899-0.066,1.683-0.233,2.35-0.5c-0.833,1-2.083,1.917-3.75,2.75c-1.934,0.867-3.35,1.517-4.25,1.95
			c-0.6,0.267-1.033,0.467-1.3,0.6c-0.5,0.301-0.816,0.65-0.95,1.051c-0.2,0.699,0.066,1.733,0.8,3.1
			c1.033,1.866,1.566,2.85,1.601,2.95c0.5,1.434,0.566,2.517,0.199,3.25c-0.3,0.633-1.149,1.366-2.55,2.2
			c-0.566,0.366-1.217,1.233-1.95,2.6c-0.533,1.033-1.383,1.533-2.55,1.5c0.334,2.1,3.667,3.233,10,3.4
			c0.867,0.533,2.5,1.05,4.9,1.55c0.399,0.066,1.2,0.166,2.399,0.3c1.067,0.167,1.767,0.434,2.101,0.8
			c0.133,0.167,0.233,0.533,0.3,1.101c0.066,0.566,0.2,0.966,0.4,1.199c0.233,0.267,0.533,0.467,0.899,0.601
			c0.2,0.1,0.533,0.217,1,0.35c0.566,0.233,1.217,0.4,1.95,0.5c0.4,0.066,1.05,0.134,1.95,0.2c0.166,1.333,0.217,2.3,0.149,2.9
			c-0.1,1.033-0.5,1.833-1.199,2.399c-1.134,0.9-2.784,1.45-4.95,1.65c-9.167,0.934-13.834-0.217-14-3.45
			c-2.101,0.066-3.834,0.1-5.2,0.1c-2.634,0.067-4.033-0.25-4.2-0.949c-0.7,0.433-1.833,0.533-3.399,0.3
			c-1.7-0.367-2.884-0.566-3.551-0.601c-0.199-0.6-0.216-1.216-0.05-1.85c0.101-0.033,0.884-0.05,2.351-0.05
			c0.866-0.033,1.583-0.233,2.149-0.601c0.467-0.3,0.95-0.85,1.45-1.649c0.267-0.434,0.65-1.066,1.15-1.9
			c0.1-0.1,0.383-0.383,0.85-0.85c0.333-0.3,0.533-0.634,0.6-1c0.067-0.2-0.033-0.45-0.3-0.75c-0.233-0.334-0.35-0.584-0.35-0.75
			c0.033-0.3,0.283-0.717,0.75-1.25c0.366-0.467,0.5-0.983,0.399-1.55c-0.433,0.333-1.233,0.483-2.399,0.449
			c-1.5-0.066-2.367-0.083-2.601-0.05c0.634,0.334,1.084,0.483,1.351,0.45c0.333,0.967,0.25,1.733-0.25,2.3
			c-0.467,0.5-1.184,0.717-2.15,0.65c-0.399-0.033-1.05-0.267-1.95-0.7c-0.733-0.366-1.416-0.483-2.05-0.35
			c-1.1,0.267-1.666,0.816-1.7,1.649c-0.066,1.4-0.166,2.2-0.3,2.4c-0.333,0.633-0.816,0.883-1.45,0.75
			c-0.8-0.233-1.449-0.351-1.949-0.351c-0.2-1.033-0.784-1.767-1.75-2.199c-0.434-0.2-1.367-0.434-2.801-0.7
			c-2.1-0.4-3.399-0.7-3.899-0.9c-0.9-0.434-1.75-1.3-2.55-2.6c-0.167,1.1-0.551,2.1-1.15,3c-0.733,1.133-1.55,1.616-2.45,1.45
			C72.367,182.546,71.983,182.263,71.65,181.796z M134.2,178.296l-0.65,0.65c-0.069,0.046-0.128,0.096-0.175,0.149
			c-0.029,0.014-0.055,0.03-0.075,0.051c-0.05,0.033-0.1,0.066-0.149,0.1c-0.169,0.108-0.335,0.208-0.5,0.3
			c-0.801,0.533-1.817,0.884-3.051,1.05c-0.633,0.067-1.75,0.101-3.35,0.101h-1.85l1.35-0.55c0.7-0.233,2.116-0.417,4.25-0.551
			c1.866-0.267,2.983-0.899,3.35-1.899c0.2-0.566,0.184-1.733-0.05-3.5c-0.166-1.634-0.7-2.8-1.6-3.5
			c-0.367-0.267-1.134-0.467-2.3-0.601c-1.067-0.133-1.784-0.433-2.15-0.899c-0.066-0.101-0.134-0.384-0.2-0.851
			c-0.033-0.533-0.1-0.883-0.2-1.05c1.233-0.533,2.233-1.366,3-2.5c0.634-0.934,1.167-2.184,1.601-3.75
			c-0.5-0.399-1.884-0.5-4.15-0.3c-1.934,0.167-3.116-0.316-3.55-1.45c1.634,0.033,3.283-0.649,4.95-2.05
			c0.967-0.833,2.3-2.134,4-3.9c0.233,1.5,0.45,2.7,0.649,3.601c0.301,1.566,0.717,2.8,1.25,3.7c-1.466-0.767-2.25-1.534-2.35-2.301
			c-0.134,0.801,0.366,1.634,1.5,2.5c0.6,0.467,1.45,1.117,2.55,1.95c0.2,0.267,0.533,0.566,1,0.9c0.233,0.333,0.117,0.8-0.35,1.399
			c-0.5,0.634-1.2,0.851-2.101,0.65c-0.3,1.533,0.467,2.667,2.301,3.4c1.033,0.399,2.55,0.783,4.55,1.149c0.399,2.4,0.6,5.2,0.6,8.4
			c0,2.267-0.133,3.75-0.399,4.45c-0.534,1.433-1.717,1.916-3.551,1.449c-0.066-0.699-0.066-1.767,0-3.199
			c-0.566,0.399-1.199,0.466-1.899,0.199c1.267-2.066,1.649-4.267,1.149-6.6c-0.533-2.6-2.083-3.884-4.649-3.85
			c1.133,1.5,1.833,2.699,2.1,3.6C135.417,176.046,135.134,177.229,134.2,178.296z M113.55,112.296
			c-0.166-0.5-0.25-0.967-0.25-1.399c0.033,0.267,0.15,0.6,0.351,1c0.566,1,1.55,1.816,2.949,2.449
			c1.267,0.567,2.534,0.851,3.801,0.851h0.399c0.834,0,1.517-0.084,2.05-0.25c2.267-0.566,3.917-1.8,4.95-3.7l1,2.5
			c-1.166,2.866-3.767,4.1-7.8,3.7C116.967,117.013,114.483,115.296,113.55,112.296z M129.65,137.196l-0.301-0.05
			c-0.366-2.967-0.216-4.95,0.45-5.95l0.45-0.9l0.05-0.1c0.867,2.566,1.167,4.899,0.9,7
			C130.733,137.296,130.217,137.296,129.65,137.196z M137.8,119.796v1.4c0.033,1.533,0.066,2.7,0.101,3.5
			c0,1.399-0.067,2.566-0.2,3.5c-0.5-0.233-0.75-0.617-0.75-1.15c0-0.7-0.066-1.149-0.2-1.35c-0.2-0.3-0.6-0.634-1.2-1
			c-0.6-0.334-1-0.667-1.2-1c-0.233-0.367-0.449-0.983-0.649-1.851c-0.101-0.466-0.25-1.133-0.45-2c0.6,0.567,1.434,0.884,2.5,0.95
			C136.884,120.862,137.566,120.529,137.8,119.796z"/>
	</g>
</g>
</svg>
