<?xml version="1.0" encoding="iso-8859-1"?>
<!-- Generator: Adobe Illustrator 16.0.0, SVG Export Plug-In . SVG Version: 6.00 Build 0)  -->
<!DOCTYPE svg PUBLIC "-//W3C//DTD SVG 1.1//EN" "http://www.w3.org/Graphics/SVG/1.1/DTD/svg11.dtd">
<svg version="1.1" id="FlashAICB" xmlns="http://www.w3.org/2000/svg" xmlns:xlink="http://www.w3.org/1999/xlink" x="0px" y="0px"
	 width="168.906px" height="77.684px" viewBox="0 0 168.906 77.684" style="enable-background:new 0 0 168.906 77.684;"
	 xml:space="preserve">
<g>
	<g>
		<path style="fill-rule:evenodd;clip-rule:evenodd;fill:#11120E;" d="M116.4,70H4.15H4c-0.6,0-1.15-0.116-1.65-0.35
			c-0.434-0.2-0.817-0.483-1.15-0.851C0.4,68,0,67.05,0,65.95V4.75C0.033,3.683,0.433,2.767,1.2,2C1.967,1.2,2.9,0.8,4,0.8h0.4
			C3.3,0.833,2.383,1.233,1.65,2C0.883,2.767,0.5,3.7,0.5,4.8v42.95V65.1c0,1.101,0.383,2.051,1.15,2.851
			c0.333,0.333,0.7,0.6,1.1,0.8c0.5,0.233,1.083,0.35,1.75,0.35h152.65c1.1,0,2.05-0.383,2.85-1.149c0.767-0.8,1.15-1.75,1.15-2.851
			V37.35V4.8c0-0.9-0.25-1.683-0.75-2.35c-0.134-0.167-0.267-0.317-0.4-0.45c-0.767-0.767-1.684-1.167-2.75-1.2h0.7
			c1.1,0,2.05,0.4,2.85,1.2c0.533,0.533,0.884,1.117,1.05,1.75c0.093,0.306,0.143,0.615,0.15,0.925v2.95V65.95
			c0,1.1-0.4,2.05-1.2,2.85s-1.75,1.2-2.85,1.2H119.2H116.4z M145.35,33.8l0.45,0.5h-10.85c-0.5,0-0.934,0.2-1.3,0.6
			c-0.367,0.367-0.551,0.817-0.551,1.35v2.95c0,0.3,0.067,0.583,0.2,0.85c-0.366-0.367-0.55-0.816-0.55-1.35v-2.95
			c0-0.533,0.184-0.983,0.55-1.35c0.334-0.4,0.75-0.6,1.25-0.6H145.35z M127.95,30.6c-0.367-0.5-0.783-0.983-1.25-1.45
			c-2.334-2.367-5.167-3.55-8.5-3.55c-3.334,0-6.167,1.183-8.5,3.55c-2.334,2.333-3.5,5.15-3.5,8.45c0,2.466,0.633,4.65,1.899,6.55
			c-1.5-2.034-2.25-4.384-2.25-7.05c0-3.3,1.167-6.117,3.5-8.45c2.334-2.367,5.167-3.55,8.5-3.55c3.301,0,6.134,1.183,8.5,3.55
			C126.983,29.283,127.517,29.933,127.95,30.6z M144.95,41.15h0.85l-3.05,3.3c-0.333,0.366-0.5,0.833-0.5,1.399
			c0,0.367,0.083,0.717,0.25,1.051l-0.15-0.2c-0.333-0.367-0.5-0.816-0.5-1.351c0-0.566,0.167-1.033,0.5-1.399L144.95,41.15z
			 M142.5,30.7l-0.15-0.2c-0.333-0.367-0.5-0.817-0.5-1.35c0-0.566,0.167-1.033,0.5-1.4l1.95-2.1c0.367-0.367,0.8-0.55,1.3-0.55
			s0.917,0.183,1.25,0.55L156.2,35.8c0.133,0.133,0.233,0.284,0.3,0.45l-9.3-10.1c-0.334-0.367-0.75-0.55-1.25-0.55
			s-0.934,0.183-1.3,0.55l-1.9,2.1c-0.333,0.367-0.5,0.833-0.5,1.4C142.25,30.05,142.333,30.4,142.5,30.7z M81.05,44.55
			c-1.7-2.133-2.55-4.617-2.55-7.45c0-3.3,1.167-6.117,3.5-8.45c2.333-2.367,5.167-3.55,8.5-3.55c3.3,0,6.134,1.183,8.5,3.55
			c0.634,0.633,1.167,1.283,1.6,1.95c-0.366-0.5-0.783-0.983-1.25-1.45c-2.333-2.367-5.166-3.55-8.5-3.55
			c-3.3,0-6.116,1.183-8.45,3.55c-2.367,2.333-3.55,5.15-3.55,8.45C78.85,40.233,79.583,42.55,81.05,44.55z"/>
		<path style="fill-rule:evenodd;clip-rule:evenodd;fill:#515046;" d="M163.05,20.85c0-0.2,0-0.417,0-0.65
			c0-0.934-0.116-2.333-0.35-4.2c-0.267-1.833-0.4-3.233-0.4-4.2c0.033-0.867-0.05-2.117-0.25-3.75
			c-0.029-0.146-0.046-0.287-0.05-0.425v-2.95V4.1c0.3,0.8,0.55,2.183,0.75,4.15c0.066,0.533,0.35,2.067,0.85,4.6
			c0.367,1.833,0.517,3.35,0.45,4.55c-0.033,0.7-0.316,1.717-0.85,3.05C163.134,20.583,163.083,20.717,163.05,20.85z M2.35,69.65
			C2.85,69.884,3.4,70,4,70h0.15c0.233,0.2,0.633,0.35,1.2,0.45c1.1,0.1,1.767,0.166,2,0.2c2.3,0.6,4.05,0.933,5.25,1
			c2.533,0.366,4.467,0.55,5.8,0.55c2.167-0.101,3.467-0.117,3.9-0.05c2.034,0.333,3.684,0.716,4.95,1.149
			c1,0.334,2.2,0.384,3.6,0.15c0.533-0.101,1.717-0.434,3.55-1c3.067-1,7.45-1.5,13.15-1.5c12.133-0.167,21.233-0.25,27.3-0.25
			c5.967-0.167,10.433-0.25,13.4-0.25c1.634,0,4.083,0.133,7.35,0.399c3.233,0.233,5.667,0.351,7.301,0.351
			c3.1-0.066,5.1-0.184,6-0.351c2.866-0.466,5.366-0.75,7.5-0.85h2.8c0.399,0.066,0.833,0.184,1.3,0.35
			c0.333,0.134,0.684,0.217,1.05,0.25c0.434,0.034,0.783,0.051,1.05,0.051c1.267,0.166,2.417,0.166,3.45,0
			c2.967-0.434,5.867-0.017,8.7,1.25c0.9,0.466,1.566,0.783,2,0.949c0.733,0.267,1.467,0.384,2.2,0.351
			c0.7-0.033,1.616-0.267,2.75-0.7c1.2-0.434,2.1-0.684,2.7-0.75c3.866-0.5,5.833-0.75,5.899-0.75c1.867-0.167,3.967-0.2,6.3-0.1
			c1.067,0.066,2.067,0.216,3,0.449c0.367,0.134,0.65,0.217,0.851,0.25c0.3,0.101,0.566,0.117,0.8,0.051
			c0.033-0.134,0.05-0.284,0.05-0.45c0.733-0.101,1.15-0.184,1.25-0.25c0.167-0.134,0.25-0.55,0.25-1.25c0-1.233,0.134-2.3,0.4-3.2
			c0.166-0.566,0.533-1.583,1.1-3.05c0.167-0.434,0.101-1.417-0.2-2.95c-0.267-1.467-0.283-2.4-0.05-2.8
			c0.2-0.334,0.184-0.9-0.05-1.7c-0.3-1-0.45-1.583-0.45-1.75c0-0.233,0.101-0.983,0.3-2.25c0.167-1,0.184-1.7,0.051-2.1
			c-0.301-0.767-0.417-1.801-0.351-3.101c0.066-1.733,0.084-2.783,0.05-3.149c-0.333-2.934-0.517-6.4-0.55-10.4
			c0.134,0.733,0.316,1.45,0.55,2.15c0.301,0.934,0.45,1.95,0.45,3.05c-0.033,0.433-0.05,0.767-0.05,1c0,0.433,0.033,0.767,0.1,1
			c0.101,0.366,0.351,0.666,0.75,0.899c0.467,0.301,0.75,0.517,0.851,0.65c0.233,0.333,0.416,0.767,0.55,1.3
			c0.2,1.601,0.384,2.8,0.55,3.601c0.101,0.466,0.233,1.75,0.4,3.85c0.133,1.634,0.416,2.866,0.85,3.7
			c0.434,0.3,0.684,0.767,0.75,1.399c0.2,1.233,0.117,2.351-0.25,3.351c-0.166,0.467-0.616,1.1-1.35,1.899
			c-0.733,0.733-1.184,1.351-1.351,1.851c-0.033,0.133-0.05,0.733-0.05,1.8c0,2.934,0.066,4.816,0.2,5.65
			c0.366,2.866,0.45,4.949,0.25,6.25c-1.134,0.066-2.033-0.034-2.7-0.301c-0.8-0.3-2.217-0.616-4.25-0.949
			c-0.166-0.034-0.833-0.184-2-0.45c-0.767-0.2-1.45-0.3-2.05-0.3c-0.467-0.034-1.05-0.134-1.75-0.301
			c-0.833-0.233-1.434-0.366-1.8-0.399c-0.867-0.101-1.9-0.017-3.101,0.25c-0.399,0.1-1.116,0.2-2.149,0.3
			c-0.9,0.1-1.617,0.25-2.15,0.45c-0.566,0.2-1.149,0.566-1.75,1.1c-0.8,0.7-1.316,1.134-1.55,1.3
			c-0.533,0.334-1.233,0.417-2.1,0.25c-0.301-0.066-0.983-0.3-2.051-0.699c-1.166-0.4-2.366-1.134-3.6-2.2
			c-0.6-0.533-0.983-0.851-1.15-0.95c-0.399-0.233-0.883-0.366-1.449-0.4c-0.867,0-2.117,0.134-3.75,0.4
			c-1.667,0.267-2.9,0.4-3.7,0.4c-0.733,0.033-1.467-0.233-2.2-0.801c-0.9-0.666-1.583-1.066-2.05-1.199
			c-0.101-0.034-0.684-0.051-1.75-0.051c-4.033,0.101-6.533,0.2-7.5,0.301c-1.967,0.267-3.066,0.416-3.3,0.449
			c-3.567,0.667-6.017,1.351-7.351,2.051c-0.333,0.199-0.8,0.466-1.399,0.8c-0.534,0.233-1.051,0.283-1.551,0.149
			c-0.5-0.1-1.233-0.333-2.199-0.699c-0.934-0.167-2.167-0.584-3.7-1.25c-1.7-0.767-2.9-1.25-3.601-1.45
			c-0.833-0.233-2.05-0.351-3.649-0.351c-1.833,0-4.567-0.149-8.2-0.449c-3.833-0.233-8.833-0.267-15-0.101
			c-8.133,0.2-13.133,0.3-15,0.3c-3.433,0-5.867,0.267-7.3,0.801c-0.6,0.233-1.667,1.033-3.2,2.399
			c-1.233,1.101-2.433,1.634-3.6,1.601c-1-0.034-2.2-0.317-3.6-0.851c-0.533-0.233-1.683-0.767-3.45-1.6
			c-1.1-0.566-2.583-0.9-4.45-1c-1.033-0.033-2.566-0.084-4.6-0.15c-0.7-0.066-3.033-0.233-7-0.5
			C4.417,72.017,2.683,71.05,2.35,69.65z"/>
		<path style="fill-rule:evenodd;clip-rule:evenodd;fill:#3A3932;" d="M119.2,70h38.75c1.1,0,2.05-0.4,2.85-1.2s1.2-1.75,1.2-2.85
			V7.625c0.004,0.138,0.021,0.279,0.05,0.425c0.2,1.633,0.283,2.883,0.25,3.75c0,0.967,0.134,2.367,0.4,4.2
			c0.233,1.867,0.35,3.267,0.35,4.2c0,0.233,0,0.45,0,0.65c-0.033,4.9-0.05,8.6-0.05,11.1c0,0.433,0.017,0.867,0.05,1.3
			c0.033,4,0.217,7.467,0.55,10.4c0.034,0.366,0.017,1.416-0.05,3.149c-0.066,1.3,0.05,2.334,0.351,3.101
			c0.133,0.399,0.116,1.1-0.051,2.1c-0.199,1.267-0.3,2.017-0.3,2.25c0,0.167,0.15,0.75,0.45,1.75c0.233,0.8,0.25,1.366,0.05,1.7
			c-0.233,0.399-0.217,1.333,0.05,2.8c0.301,1.533,0.367,2.517,0.2,2.95c-0.566,1.467-0.934,2.483-1.1,3.05
			c-0.267,0.9-0.4,1.967-0.4,3.2c0,0.7-0.083,1.116-0.25,1.25c-0.1,0.066-0.517,0.149-1.25,0.25c0,0.166-0.017,0.316-0.05,0.45
			c-0.233,0.066-0.5,0.05-0.8-0.051c-0.2-0.033-0.483-0.116-0.851-0.25c-0.933-0.233-1.933-0.383-3-0.449
			c-2.333-0.101-4.433-0.067-6.3,0.1c-0.066,0-2.033,0.25-5.899,0.75c-0.601,0.066-1.5,0.316-2.7,0.75
			c-1.134,0.434-2.05,0.667-2.75,0.7c-0.733,0.033-1.467-0.084-2.2-0.351c-0.434-0.166-1.1-0.483-2-0.949
			c-2.833-1.267-5.733-1.684-8.7-1.25c-1.033,0.166-2.184,0.166-3.45,0c-0.267,0-0.616-0.017-1.05-0.051
			c-0.366-0.033-0.717-0.116-1.05-0.25C120.033,70.184,119.6,70.066,119.2,70z M4.15,70H116.4c-2.134,0.1-4.634,0.384-7.5,0.85
			c-0.9,0.167-2.9,0.284-6,0.351c-1.634,0-4.067-0.117-7.301-0.351c-3.267-0.267-5.716-0.399-7.35-0.399
			c-2.967,0-7.433,0.083-13.4,0.25c-6.067,0-15.167,0.083-27.3,0.25c-5.7,0-10.083,0.5-13.15,1.5c-1.833,0.566-3.017,0.899-3.55,1
			c-1.4,0.233-2.6,0.184-3.6-0.15c-1.267-0.434-2.917-0.816-4.95-1.149c-0.433-0.067-1.733-0.051-3.9,0.05
			c-1.333,0-3.267-0.184-5.8-0.55c-1.2-0.067-2.95-0.4-5.25-1c-0.233-0.034-0.9-0.101-2-0.2C4.783,70.35,4.383,70.2,4.15,70z"/>
		<path style="fill-rule:evenodd;clip-rule:evenodd;fill:#8A8E71;" d="M157.25,0.8H4.4H4C2.9,0.8,1.967,1.2,1.2,2
			C0.433,2.767,0.033,3.683,0,4.75V4.1C0,2.967,0.4,2,1.2,1.2C1.967,0.4,2.9,0,4,0h153.95c1.1,0,2.05,0.4,2.85,1.2
			c0.8,0.8,1.2,1.767,1.2,2.9v0.575c-0.008-0.31-0.058-0.619-0.15-0.925c-0.166-0.633-0.517-1.217-1.05-1.75
			c-0.8-0.8-1.75-1.2-2.85-1.2H157.25z"/>
		
			<radialGradient id="SVGID_1_" cx="80.8252" cy="-2.3501" r="85.3222" gradientTransform="matrix(1 0 0 -1 0 -4.7002)" gradientUnits="userSpaceOnUse">
			<stop  offset="0" style="stop-color:#3E4234"/>
			<stop  offset="1" style="stop-color:#1B1C16"/>
		</radialGradient>
		<path style="fill-rule:evenodd;clip-rule:evenodd;fill:url(#SVGID_1_);" d="M4.4,0.8h152.85c1.066,0.034,1.983,0.434,2.75,1.2
			c0.134,0.133,0.267,0.283,0.4,0.45c0.5,0.667,0.75,1.45,0.75,2.35v32.55c-1.067,2.667-2.434,4.983-4.101,6.95
			c-0.366,0.4-1.35,1.367-2.95,2.9c-0.5,0.533-1.183,1.283-2.05,2.25c-0.8,0.8-1.6,1.416-2.399,1.85
			c-0.834,0.467-1.417,0.7-1.75,0.7c-0.2,0-0.45-0.05-0.75-0.15c-0.267-0.1-0.534-0.116-0.801-0.05
			c-0.199,0.033-0.449,0.15-0.75,0.351c-0.333,0.199-0.583,0.316-0.75,0.35c-0.5,0.134-1.35,0.134-2.55,0c-0.6,0-1.434-0.1-2.5-0.3
			c-0.1,0-0.3,0.033-0.6,0.1c-0.267,0-0.467-0.033-0.601-0.1c-0.199-0.101-0.316-0.283-0.35-0.55c-0.066-0.367-0.134-0.584-0.2-0.65
			c-0.333-0.4-0.833-0.75-1.5-1.05c-0.3-0.233-0.55-0.617-0.75-1.15c-0.166-0.533-0.383-0.883-0.649-1.05
			c-0.2-0.134-0.667-0.184-1.4-0.15c-0.366,0.034-0.85,0.067-1.45,0.101c-0.633,0.066-1.3,0.3-2,0.7l-3.95,2.5
			c-1.399,0.833-2.983,1.316-4.75,1.449c-0.366,0.034-2.05,0-5.05-0.1c-2.133-0.066-3.55-0.217-4.25-0.45
			c-0.733-0.233-1.8-0.583-3.2-1.05c-1.233-0.366-2.483-0.866-3.75-1.5c-0.033-0.033-0.283-0.233-0.75-0.6
			c-0.366-0.334-0.616-0.483-0.75-0.45c-0.199,0-0.583,0.483-1.149,1.45c-0.367,0.466-0.95,0.883-1.75,1.25
			c-0.467,0.199-1.167,0.483-2.101,0.85c-0.866,0.366-2.583,0.767-5.149,1.2c-0.7,0.133-1.617,0.133-2.75,0
			c-1.5-0.134-2.434-0.2-2.8-0.2c-0.4,0-1.051-0.017-1.95-0.05c-0.733-0.033-1.351-0.184-1.851-0.45L84.1,52
			c-0.333,0.066-0.667-0.017-1-0.25c-0.1,0.2-0.267,0.316-0.5,0.35c-0.267,0.034-0.434,0.084-0.5,0.15
			c-0.1,0.066-0.217,0.217-0.35,0.45c-0.133,0.166-0.25,0.283-0.35,0.35c-0.3,0.167-0.8,0.283-1.5,0.351
			c-0.667,0.033-1.15,0.149-1.45,0.35c1.633-0.066,3.9,0,6.8,0.2c3.233,0.2,5.517,0.3,6.85,0.3c4.233-0.167,7.417-0.25,9.551-0.25
			h22.5c5.033,0.167,8.783,0.25,11.25,0.25c0.3,0,2.666,0.033,7.1,0.1c2.9,0.034,5.267-0.033,7.1-0.199
			c1.067-0.167,1.884-0.233,2.45-0.2c0.334,0.033,1.367,0.717,3.101,2.05c2.133,1.6,3.517,2.583,4.149,2.95l-0.25,1.2
			c-0.267,0.1-0.533,0.1-0.8,0c-0.2-0.101-0.316-0.25-0.35-0.45c0.033,0.666,0.066,1.233,0.1,1.7c0.033,0.933-0.066,1.517-0.3,1.75
			s-0.5,0.233-0.8,0c-0.367-0.233-0.7-0.301-1-0.2c-0.101,1.434-0.384,2.434-0.851,3c-0.333,0.399-0.983,0.583-1.95,0.55
			c-0.533-0.033-1.283-0.083-2.25-0.15c-0.633,0.067-1.517,0.25-2.649,0.551c-1.2,0.3-2.084,0.483-2.65,0.55
			c-0.934,0.133-2.166,0.166-3.7,0.1c-2.066-0.066-3.316-0.1-3.75-0.1c-0.899,0-2.6-0.184-5.1-0.55c-0.366-0.034-0.616-0.034-0.75,0
			c-0.333,0.133-0.55,0.216-0.65,0.25c-0.566,0.1-1.233,0.116-2,0.05c-0.366-0.033-0.716-0.134-1.05-0.3
			c-0.2-0.101-0.5-0.267-0.899-0.5c-1.034-0.4-2.7-0.45-5-0.15c-0.367,0.033-1.95,0.1-4.75,0.2c-0.867,0-1.4-0.084-1.601-0.25
			c-0.1-0.066-0.2-0.283-0.3-0.65c-0.1-0.366-0.233-0.583-0.4-0.649c-0.133-0.067-0.267,0-0.399,0.199
			c-0.134,0.2-0.233,0.301-0.3,0.301c-0.101,0-0.334-0.051-0.7-0.15c-0.3-0.1-0.517-0.134-0.65-0.1c-0.1,0.033-0.2,0.116-0.3,0.25
			c-0.066,0.133-0.134,0.199-0.2,0.199c-0.633,0.233-1.767,0.351-3.399,0.351H93.35c-0.333,0-0.916,0.033-1.75,0.1
			c-0.733,0.033-1.3,0-1.699-0.1c-0.134-0.033-0.351-0.15-0.65-0.351c-0.3-0.199-0.517-0.316-0.65-0.35
			c-0.233-0.033-0.383,0-0.449,0.1C88.083,65.45,88,65.5,87.9,65.5c-0.167,0-0.967-0.017-2.4-0.05c-1.033,0-1.817,0.083-2.35,0.25
			c-0.467,0.166-1.033,0.399-1.7,0.7c-0.6,0.233-1.217,0.333-1.85,0.3c-0.4-0.033-1.2-0.066-2.4-0.101
			c-1.034,0-1.833-0.05-2.4-0.149c-0.367-0.066-0.85-0.217-1.45-0.45c-0.6-0.167-1.533-0.184-2.8-0.05
			c-0.533-0.033-1.233-0.184-2.1-0.45c-1-0.333-1.684-0.533-2.05-0.6c-1.733-0.267-4.517-0.25-8.35,0.05
			c-0.6,0-1.633,0.05-3.1,0.149c-1.333,0.067-2.35-0.017-3.05-0.25c0.033-0.433,0.1-0.733,0.2-0.899c-1-0.101-1.983-0.101-2.95,0
			c-0.066,0.2-0.017,0.517,0.15,0.95c0.1,0.333-0.033,0.6-0.4,0.8c-0.4,0.233-1.066,0.25-2,0.05c-0.533-0.1-1.217-0.233-2.05-0.4
			c-0.567-0.033-1.467,0-2.7,0.101c-0.533-0.033-1.233-0.15-2.1-0.351c-0.466-0.033-1.2,0-2.2,0.101c-0.067,0-0.517-0.066-1.35-0.2
			c-0.567-0.066-1.033-0.066-1.4,0c-0.233,0.033-0.684,0.184-1.35,0.45c-0.533,0.166-1.017,0.25-1.45,0.25h-6.25
			c-0.833-0.066-1.45-0.2-1.85-0.4c-0.034,0-0.25-0.149-0.65-0.45c-0.233-0.133-0.466-0.183-0.7-0.149
			c-0.167,0.033-0.583,0.35-1.25,0.95c-0.4,0.133-0.9,0.233-1.5,0.3c-0.567,0.033-1.217,0-1.95-0.101
			c-0.4-0.066-1.017-0.183-1.85-0.35c-0.7-0.134-2.183-0.134-4.45,0c-1.867,0.1-3.267-0.1-4.2-0.6c-0.633-0.301-1-0.467-1.1-0.5
			c-0.167,0-0.417,0.017-0.75,0.05c-0.3,0-0.517-0.084-0.65-0.25c-0.133-0.134-0.167-0.483-0.1-1.05
			c-0.167-0.667-0.466-1.134-0.9-1.4c-0.2,1.134-0.767,1.85-1.7,2.15c-0.133-0.467-0.217-1.134-0.25-2
			c-0.034-0.967-0.083-1.634-0.15-2c-0.066,0.166-0.167,0.283-0.3,0.35c-0.067,0.033-0.183,0.083-0.35,0.15
			C1.333,59.9,1.35,59.1,1.45,58c0.1-1,0.083-1.783-0.05-2.35c-0.2-1.034-0.3-2.067-0.3-3.101c0-0.5-0.05-1.434-0.15-2.8
			c-0.1-1.167-0.133-2.083-0.1-2.75L0.5,47.75V4.8c0-1.1,0.383-2.033,1.15-2.8C2.383,1.233,3.3,0.833,4.4,0.8z M142.5,30.7
			c0.066,0.1,0.15,0.2,0.25,0.3l2.6,2.8h-10.8c-0.5,0-0.916,0.2-1.25,0.6c-0.366,0.367-0.55,0.817-0.55,1.35v2.95
			c0,0.533,0.184,0.983,0.55,1.35c0.066,0.167,0.184,0.334,0.351,0.5c0.366,0.4,0.8,0.601,1.3,0.601h10l-2.601,2.8
			c-0.333,0.366-0.5,0.833-0.5,1.399c0,0.534,0.167,0.983,0.5,1.351l0.15,0.2c0.066,0.1,0.15,0.199,0.25,0.3l1.9,2.1
			c0.366,0.367,0.8,0.55,1.3,0.55s0.916-0.183,1.25-0.55l9.35-10.15c0.367-0.433,0.55-0.9,0.55-1.4c0-0.533-0.183-1.017-0.55-1.45
			l-0.05-0.05c-0.066-0.167-0.167-0.317-0.3-0.45l-9.351-10.15c-0.333-0.367-0.75-0.55-1.25-0.55s-0.933,0.183-1.3,0.55l-1.95,2.1
			c-0.333,0.367-0.5,0.833-0.5,1.4c0,0.533,0.167,0.983,0.5,1.35L142.5,30.7z M108.1,44.15c0.467,0.699,1,1.35,1.601,1.949
			c2.333,2.334,5.166,3.5,8.5,3.5c3.333,0,6.166-1.166,8.5-3.5c2.333-2.333,3.5-5.166,3.5-8.5c0-2.633-0.75-4.967-2.25-7
			c-0.434-0.667-0.967-1.317-1.601-1.95c-2.366-2.367-5.199-3.55-8.5-3.55c-3.333,0-6.166,1.183-8.5,3.55
			c-2.333,2.333-3.5,5.15-3.5,8.45C105.85,39.767,106.6,42.116,108.1,44.15z M81.75,12.3l0.4-1.55c-0.533-0.3-1.217-0.45-2.05-0.45
			c-0.9,0-1.617,0.233-2.15,0.7c-0.567,0.433-0.85,1-0.85,1.7c0,1,0.7,1.733,2.1,2.2c0.733,0.267,1.1,0.55,1.1,0.85
			c0,0.4-0.333,0.6-1,0.6c-0.767,0-1.417-0.167-1.95-0.5l-0.4,1.6C77.617,17.817,78.4,18,79.3,18c1,0,1.784-0.233,2.35-0.7
			c0.533-0.433,0.8-1,0.8-1.7c0-1.067-0.65-1.817-1.95-2.25c-0.8-0.3-1.2-0.6-1.2-0.9c0-0.367,0.284-0.55,0.85-0.55
			C80.683,11.9,81.217,12.033,81.75,12.3z M83.2,12.15h1v3c0,1.033,0.2,1.767,0.6,2.2c0.467,0.4,1.05,0.6,1.75,0.6
			c0.566,0,1.05-0.067,1.45-0.2v-1.7l-0.7,0.05c-0.6,0-0.899-0.434-0.899-1.3v-2.65h1.649V10.5H86.4v-2l-2.2,0.6v1.4h-1V12.15z
			 M81.05,44.55c0.4,0.533,0.85,1.05,1.35,1.55c2.333,2.334,5.15,3.5,8.45,3.5c3.334,0,6.167-1.166,8.5-3.5
			c2.334-2.333,3.5-5.166,3.5-8.5c0-2.633-0.75-4.967-2.25-7c-0.433-0.667-0.966-1.317-1.6-1.95c-2.366-2.367-5.2-3.55-8.5-3.55
			c-3.333,0-6.167,1.183-8.5,3.55c-2.333,2.333-3.5,5.15-3.5,8.45C78.5,39.933,79.35,42.417,81.05,44.55z M125.95,58.15H124.1
			l1.75,2.6l-1.75,2.7h1.801l0.85-1.75h0.05l0.95,1.75h1.85l-1.75-2.8l1.75-2.5h-1.8l-0.85,1.699h-0.05L125.95,58.15z M140,58.05
			h-0.35c-0.7,0-1.167,0.367-1.4,1.101h-0.05l-0.101-1H136.7l0.05,5.3h1.65v-2.7l0.05-0.35c0.1-0.567,0.467-0.851,1.1-0.851
			L140,59.6V58.05z M131.8,58.9h-0.05l-0.05-0.75h-1.45l0.05,7.399h1.65v-2.6c0.3,0.399,0.767,0.6,1.399,0.6
			c0.634,0,1.184-0.233,1.65-0.7c0.5-0.5,0.75-1.199,0.75-2.1c0-0.8-0.217-1.467-0.65-2c-0.433-0.467-0.949-0.7-1.55-0.7
			C132.75,58.05,132.167,58.333,131.8,58.9z M131.95,61.15v-0.7l0.05-0.3c0.1-0.534,0.417-0.801,0.95-0.801
			c0.733,0,1.1,0.483,1.1,1.45c0,1-0.366,1.5-1.1,1.5c-0.5,0-0.816-0.267-0.95-0.8L131.95,61.15z M148.45,58.05
			c-0.634,0-1.15,0.167-1.55,0.5c-0.4,0.334-0.601,0.733-0.601,1.2c0,0.733,0.5,1.267,1.5,1.6c0.533,0.167,0.8,0.367,0.8,0.601
			c0,0.3-0.233,0.45-0.699,0.45c-0.567,0-1.051-0.134-1.45-0.4l-0.25,1.2c0.399,0.233,0.967,0.35,1.7,0.35
			c1.5,0,2.25-0.566,2.25-1.7c0-0.767-0.467-1.316-1.4-1.649c-0.566-0.167-0.85-0.367-0.85-0.601c0-0.3,0.199-0.449,0.6-0.449
			c0.366,0,0.75,0.116,1.15,0.35l0.3-1.15C149.483,58.15,148.983,58.05,148.45,58.05z M143.05,59.15c0.601,0,0.9,0.35,0.9,1.05h-1.9
			C142.05,59.5,142.384,59.15,143.05,59.15z M144.95,58.85c-0.4-0.533-1-0.8-1.8-0.8c-0.867,0-1.551,0.3-2.051,0.9
			c-0.433,0.533-0.649,1.166-0.649,1.899c0,0.834,0.25,1.483,0.75,1.95c0.5,0.5,1.2,0.75,2.1,0.75c0.767,0,1.4-0.116,1.9-0.35
			L145,62.1c-0.4,0.134-0.884,0.2-1.45,0.2c-0.967,0-1.467-0.333-1.5-1h3.4l0.05-0.649C145.5,59.917,145.316,59.316,144.95,58.85z
			 M153.4,60.2c-0.567-0.167-0.851-0.367-0.851-0.601c0-0.3,0.217-0.449,0.65-0.449c0.366,0,0.75,0.116,1.149,0.35l0.25-1.15
			c-0.399-0.199-0.883-0.3-1.449-0.3c-0.634,0-1.15,0.167-1.551,0.5c-0.399,0.334-0.6,0.733-0.6,1.2c0,0.733,0.5,1.267,1.5,1.6
			c0.5,0.167,0.75,0.367,0.75,0.601c0,0.3-0.233,0.45-0.7,0.45c-0.533,0-1-0.134-1.399-0.4l-0.301,1.2
			c0.467,0.233,1.034,0.35,1.7,0.35c1.533,0,2.3-0.566,2.3-1.7C154.85,61.083,154.366,60.533,153.4,60.2z M82.8,61.8
			c0-0.566,0.5-0.85,1.5-0.85v0.85c-0.1,0.4-0.383,0.601-0.85,0.601C83.017,62.4,82.8,62.2,82.8,61.8z M83.6,58.05
			c-0.833,0-1.517,0.15-2.05,0.45l0.3,1.05c0.467-0.267,0.95-0.399,1.45-0.399c0.633,0,0.95,0.233,0.95,0.699V59.9
			c-2.067,0-3.1,0.683-3.1,2.05c0,0.434,0.15,0.8,0.45,1.1c0.333,0.334,0.75,0.5,1.25,0.5c0.7,0,1.216-0.217,1.55-0.649l0.1,0.55H86
			c-0.066-0.2-0.1-0.634-0.1-1.3V60.3C85.9,58.8,85.134,58.05,83.6,58.05z M100.3,56.7c-0.066-0.533-0.366-0.8-0.899-0.8
			c-0.233,0-0.434,0.083-0.601,0.25c-0.166,0.166-0.25,0.35-0.25,0.55c0,0.533,0.283,0.8,0.851,0.8
			C100,57.5,100.3,57.233,100.3,56.7z M100.25,58.15H98.6v5.3h1.65V58.15z M95.5,57.65h0.05l0.15,5.8h1.6L96.9,56.2h-2.15l-1.45,5
			h-0.05c-0.167-0.934-0.366-1.8-0.6-2.601l-0.7-2.399h-2.2l-0.45,7.25h1.5l0.25-5.8h0.05c0.134,0.933,0.351,1.883,0.65,2.85
			l0.75,2.8h1.3L95.5,57.65z M106.05,58.85c-0.533,0.534-0.8,1.2-0.8,2c0,0.834,0.25,1.483,0.75,1.95c0.5,0.5,1.184,0.75,2.05,0.75
			c0.7,0,1.184-0.083,1.45-0.25l-0.15-1.2c-0.233,0.101-0.55,0.15-0.949,0.15c-0.967,0-1.45-0.483-1.45-1.45
			c0-1,0.467-1.5,1.399-1.5c0.301,0,0.601,0.05,0.9,0.15l0.3-1.2c-0.3-0.134-0.717-0.2-1.25-0.2
			C107.333,58.05,106.583,58.316,106.05,58.85z M104.8,58.05h-0.35c-0.7,0-1.184,0.367-1.45,1.101h-0.05l-0.05-1h-1.4l0.05,5.3h1.65
			V60.4c0.166-0.567,0.55-0.851,1.149-0.851l0.45,0.05V58.05z M120.65,59v-1.5h2.85v-1.3H119v7.25h4.65V62.1h-3v-1.75h2.649V59
			H120.65z M112.05,58.8v-2.95h-1.6v7.601h1.6V60.3l0.05-0.35c0.2-0.4,0.483-0.601,0.851-0.601c0.566,0,0.85,0.4,0.85,1.2v2.9h1.65
			V60.35c0-1.533-0.617-2.3-1.851-2.3c-0.333,0-0.616,0.066-0.85,0.2c-0.333,0.2-0.55,0.384-0.65,0.55H112.05z M13.45,9.6h2.8V7.7
			h-7.8v1.9h2.75v8.2h2.25V9.6z M28.4,7.15V17.8h2.3V7.15H28.4z M22.5,16.05V13.5c0-2.133-1.083-3.2-3.25-3.2
			c-1.1,0-2.05,0.217-2.85,0.65l0.45,1.5c0.6-0.4,1.267-0.6,2-0.6c0.9,0,1.35,0.333,1.35,1v0.05c-2.867,0-4.3,0.95-4.3,2.85
			c0,0.6,0.217,1.117,0.65,1.55c0.434,0.467,1,0.7,1.7,0.7c0.9,0,1.6-0.3,2.1-0.9h0.05l0.15,0.7h2.05
			C22.533,17.533,22.5,16.95,22.5,16.05z M20.3,15.15l-0.05,0.4c-0.167,0.534-0.567,0.8-1.2,0.8c-0.6,0-0.9-0.283-0.9-0.85
			c0-0.767,0.717-1.15,2.15-1.15V15.15z M26.6,7.15h-2.3V17.8h2.3V7.15z M34.85,10.5h-2.3v7.3h2.3V10.5z M34.6,9.25
			c0.2-0.2,0.3-0.467,0.3-0.8c0-0.767-0.4-1.15-1.2-1.15c-0.8,0-1.2,0.383-1.2,1.15c0,0.3,0.1,0.566,0.3,0.8
			c0.233,0.233,0.517,0.35,0.85,0.35C34.05,9.6,34.367,9.483,34.6,9.25z M41.05,12.3l0.4-1.55c-0.534-0.3-1.217-0.45-2.05-0.45
			c-0.9,0-1.617,0.233-2.15,0.7c-0.567,0.433-0.85,1-0.85,1.7c0,1,0.7,1.733,2.1,2.2c0.733,0.267,1.1,0.55,1.1,0.85
			c0,0.4-0.333,0.6-1,0.6c-0.767,0-1.417-0.167-1.95-0.5l-0.4,1.6C36.917,17.817,37.7,18,38.6,18c1,0,1.783-0.233,2.35-0.7
			c0.533-0.433,0.8-1,0.8-1.7c0-1.067-0.65-1.817-1.95-2.25c-0.8-0.3-1.2-0.6-1.2-0.9c0-0.367,0.3-0.55,0.9-0.55
			C40,11.9,40.517,12.033,41.05,12.3z M47.55,10.3c-0.466,0-0.85,0.1-1.15,0.3c-0.4,0.2-0.7,0.45-0.9,0.75h-0.05v-4.2h-2.3V17.8h2.3
			v-4.35l0.05-0.5c0.267-0.534,0.65-0.8,1.15-0.8c0.8,0,1.2,0.55,1.2,1.65v4h2.3v-4.25c0-1.066-0.25-1.883-0.75-2.45
			C48.933,10.567,48.317,10.3,47.55,10.3z M73.85,13.3h-2.7c0.167-0.966,0.65-1.45,1.45-1.45C73.433,11.85,73.85,12.333,73.85,13.3z
			 M62.15,9.8L62.6,8c-0.6-0.3-1.434-0.45-2.5-0.45c-1.6,0-2.9,0.467-3.9,1.4c-1.067,0.966-1.6,2.283-1.6,3.95
			c0,1.5,0.45,2.717,1.35,3.65C56.883,17.517,58.2,18,59.9,18c1.1,0,1.95-0.15,2.55-0.45l-0.3-1.8c-0.433,0.2-1.083,0.3-1.95,0.3
			c-1,0-1.784-0.3-2.35-0.9c-0.567-0.566-0.85-1.367-0.85-2.4c0-1.067,0.317-1.9,0.95-2.5c0.566-0.533,1.316-0.8,2.25-0.8
			C60.967,9.45,61.617,9.567,62.15,9.8z M65.75,10.5H63.8l0.05,7.3h2.3v-3.7l0.05-0.5c0.167-0.767,0.683-1.15,1.55-1.15l0.6,0.05
			v-2.15l-0.5-0.05c-0.967,0-1.617,0.517-1.95,1.55h-0.05L65.75,10.5z M75.25,11.45c-0.6-0.767-1.45-1.15-2.55-1.15
			c-1.2,0-2.133,0.417-2.8,1.25c-0.6,0.733-0.9,1.633-0.9,2.7c0,1.133,0.35,2.033,1.05,2.7c0.7,0.667,1.667,1,2.9,1
			c1.033,0,1.917-0.15,2.65-0.45l-0.3-1.55c-0.633,0.2-1.316,0.3-2.05,0.3c-1.3,0-1.983-0.467-2.05-1.4h4.7l0.1-0.9
			C76,12.95,75.75,12.117,75.25,11.45z M45.35,60.65c0-0.733-0.184-1.334-0.55-1.801c-0.4-0.533-1-0.8-1.8-0.8
			c-0.833,0-1.5,0.3-2,0.9c-0.433,0.533-0.65,1.166-0.65,1.899c0,0.834,0.25,1.483,0.75,1.95c0.467,0.5,1.15,0.75,2.05,0.75
			c0.8,0,1.434-0.116,1.9-0.35l-0.2-1.101c-0.4,0.134-0.883,0.2-1.45,0.2c-0.967,0-1.467-0.333-1.5-1h3.4L45.35,60.65z M43.85,60.2
			H41.9c0.067-0.7,0.4-1.05,1-1.05C43.533,59.15,43.85,59.5,43.85,60.2z M54.8,56.7c-0.5,0.399-0.75,0.916-0.75,1.55
			c0,0.934,0.667,1.65,2,2.15c0.8,0.267,1.2,0.6,1.2,1c0,0.533-0.383,0.8-1.15,0.8c-0.533,0-1.133-0.15-1.8-0.45l-0.35,1.35
			c0.6,0.301,1.283,0.45,2.05,0.45c0.967,0,1.717-0.217,2.25-0.649c0.467-0.434,0.7-0.967,0.7-1.601c0-0.967-0.633-1.7-1.9-2.2
			c-0.9-0.333-1.35-0.666-1.35-1c0-0.466,0.367-0.699,1.1-0.699c0.534,0,1.034,0.116,1.5,0.35l0.35-1.3
			C58.117,56.217,57.5,56.1,56.8,56.1C55.967,56.1,55.3,56.3,54.8,56.7z M51,61.15V60.05h-2.8v1.101H51z M67.1,57.5
			c0.6,0,0.9-0.267,0.9-0.8c0-0.2-0.083-0.384-0.25-0.55c-0.167-0.167-0.367-0.25-0.6-0.25c-0.6,0-0.9,0.267-0.9,0.8
			S66.533,57.5,67.1,57.5z M67.95,58.15H66.3v5.3h1.65V58.15z M61.6,58.8v-2.95h-1.65v7.601h1.65V60.3l0.05-0.35
			c0.2-0.4,0.483-0.601,0.85-0.601c0.567,0,0.85,0.4,0.85,1.2v2.9H65V60.35c0-1.533-0.617-2.3-1.85-2.3
			c-0.333,0-0.617,0.066-0.85,0.2c-0.3,0.167-0.517,0.35-0.65,0.55H61.6z M80.2,55.85h-1.65v7.601h1.65V55.85z M73.75,58.95
			c-0.267-0.601-0.75-0.9-1.45-0.9c-0.633,0-1.167,0.267-1.6,0.8h-0.05L70.6,58.15h-1.4l0.05,5.3h1.6V60.35l0.05-0.399
			c0.167-0.4,0.434-0.601,0.8-0.601c0.5,0,0.75,0.367,0.75,1.101v3h1.6V60.35l0.05-0.399c0.1-0.4,0.35-0.601,0.75-0.601
			c0.533,0,0.8,0.4,0.8,1.2v2.9h1.6V60.35c0-1.533-0.6-2.3-1.8-2.3c-0.333,0-0.667,0.084-1,0.25
			C74.15,58.467,73.917,58.684,73.75,58.95z M16.2,60.4c0.1-0.567,0.483-0.851,1.15-0.851l0.4,0.05v-1.55h-0.3
			c-0.733,0-1.217,0.367-1.45,1.101h-0.05l-0.05-1h-1.4l0.05,5.3h1.65V60.4z M11,57.45c0.6,0,1.167,0.1,1.7,0.3l0.35-1.25
			c-0.4-0.233-1.083-0.35-2.05-0.35c-1.233,0-2.217,0.316-2.95,0.949c-0.8,0.667-1.2,1.601-1.2,2.801c0,1.066,0.35,1.949,1.05,2.649
			c0.633,0.634,1.617,0.95,2.95,0.95c0.933,0,1.733-0.134,2.4-0.4v-3.85h-2.7v1.3h1.15v1.55c-0.2,0.067-0.467,0.101-0.8,0.101
			c-0.7,0-1.25-0.217-1.65-0.65C8.817,61.116,8.6,60.533,8.6,59.8c0-0.767,0.233-1.35,0.7-1.75C9.733,57.65,10.3,57.45,11,57.45z
			 M26.15,60.8c0-1,0.383-1.5,1.15-1.5c0.5,0,0.817,0.267,0.95,0.8L28.3,60.4V61.1l-0.05,0.351c-0.1,0.533-0.417,0.8-0.95,0.8
			C26.533,62.25,26.15,61.767,26.15,60.8z M23.75,60.75c0-0.8-0.233-1.45-0.7-1.95c-0.5-0.5-1.15-0.75-1.95-0.75
			c-0.867,0-1.567,0.25-2.1,0.75c-0.5,0.5-0.75,1.184-0.75,2.05c0,0.834,0.267,1.5,0.8,2c0.5,0.467,1.15,0.7,1.95,0.7
			c0.767,0,1.4-0.233,1.9-0.7C23.467,62.35,23.75,61.65,23.75,60.75z M21,59.2c0.7,0,1.05,0.533,1.05,1.6S21.7,62.4,21,62.4
			s-1.05-0.534-1.05-1.601S20.3,59.2,21,59.2z M25.2,58.8c-0.467,0.5-0.7,1.184-0.7,2.05c0,0.801,0.217,1.45,0.65,1.95
			c0.434,0.5,0.967,0.75,1.6,0.75c0.8,0,1.35-0.3,1.65-0.899h0.05l0.05,0.8h1.45V55.85H28.3v2.75h-0.05
			c-0.2-0.366-0.667-0.55-1.4-0.55C26.183,58.05,25.633,58.3,25.2,58.8z M39.3,55.85h-1.6v7.601h1.6V55.85z M31.65,58.8
			c-0.467,0.5-0.7,1.184-0.7,2.05c0,0.801,0.216,1.45,0.65,1.95c0.433,0.5,0.967,0.75,1.6,0.75c0.8,0,1.35-0.3,1.65-0.899h0.05
			l0.05,0.8h1.45l-0.05-7.601H34.7v2.75c-0.267-0.366-0.733-0.55-1.4-0.55C32.633,58.05,32.083,58.3,31.65,58.8z M34.7,60.1v1.351
			c-0.1,0.533-0.417,0.8-0.95,0.8c-0.767,0-1.15-0.483-1.15-1.45c0-1,0.383-1.5,1.15-1.5C34.25,59.3,34.567,59.566,34.7,60.1z"/>
		<path style="fill-rule:evenodd;clip-rule:evenodd;fill:#F1EFCD;" d="M145.35,33.8l-2.6-2.8c-0.1-0.1-0.184-0.2-0.25-0.3
			c-0.167-0.3-0.25-0.65-0.25-1.05c0-0.566,0.167-1.033,0.5-1.4l1.9-2.1c0.366-0.367,0.8-0.55,1.3-0.55s0.916,0.183,1.25,0.55
			l9.3,10.1l0.05,0.05c0.367,0.434,0.55,0.917,0.55,1.45c0,0.5-0.183,0.967-0.55,1.4L147.2,49.3c-0.334,0.367-0.75,0.55-1.25,0.55
			s-0.934-0.183-1.3-0.55l-1.9-2.1c-0.1-0.101-0.184-0.2-0.25-0.3c-0.167-0.334-0.25-0.684-0.25-1.051
			c0-0.566,0.167-1.033,0.5-1.399l3.05-3.3h-0.85h-10c-0.5,0-0.934-0.2-1.3-0.601c-0.167-0.166-0.284-0.333-0.351-0.5
			c-0.133-0.267-0.2-0.55-0.2-0.85v-2.95c0-0.533,0.184-0.983,0.551-1.35c0.366-0.4,0.8-0.6,1.3-0.6h10.85L145.35,33.8z M126,33.55
			h-5.25v12.5h-4.4v-12.5h-5.199v-2.9H126V33.55z M87.75,42c0.134,0.134,0.2,0.25,0.2,0.35h5.899c0-0.1,0.051-0.216,0.15-0.35
			c0.233-0.233,0.467-0.233,0.7,0l3.399,3.05c0.233,0.233,0.233,0.467,0,0.7S97.634,46,97.4,45.8l-0.7-0.649
			c-0.066,0-0.117,0-0.15,0H85.1L84.35,45.8c-0.267,0.2-0.516,0.184-0.75-0.05c-0.2-0.233-0.184-0.467,0.05-0.7l3.4-3.05
			C87.25,41.8,87.483,41.8,87.75,42z M87.65,36.15c-0.233,0-0.45,0.1-0.65,0.3c-0.2,0.2-0.3,0.417-0.3,0.65s0.1,0.45,0.3,0.65
			c0.167,0.167,0.384,0.25,0.65,0.25s0.5-0.083,0.699-0.25c0.2-0.167,0.301-0.383,0.301-0.65s-0.101-0.483-0.301-0.65
			C88.15,36.25,87.917,36.15,87.65,36.15z M90.5,30.55h-3.3c-0.5,0-0.75,0.233-0.75,0.7v2.6c0,0.2,0.083,0.383,0.25,0.55
			c0.133,0.133,0.3,0.2,0.5,0.2h3.3V30.55z M95.05,37.1c0-0.267-0.1-0.483-0.3-0.65c-0.2-0.2-0.434-0.3-0.7-0.3s-0.5,0.1-0.7,0.3
			c-0.166,0.167-0.25,0.383-0.25,0.65c0,0.6,0.317,0.9,0.95,0.9c0.267,0,0.5-0.083,0.7-0.25S95.05,37.367,95.05,37.1z M94.55,30.55
			h-3.3v4.05h3.3c0.467,0,0.7-0.25,0.7-0.75v-2.6C95.25,30.783,95.017,30.55,94.55,30.55z M95,29.35c0.366,0,0.684,0.117,0.95,0.35
			c0.267,0.267,0.399,0.566,0.399,0.9V40c0,0.366-0.133,0.684-0.399,0.95c-0.267,0.233-0.584,0.35-0.95,0.35h-8.3
			c-0.367,0-0.684-0.116-0.95-0.35c-0.267-0.267-0.4-0.584-0.4-0.95v-9.4c0-0.333,0.134-0.633,0.4-0.9
			c0.267-0.233,0.583-0.35,0.95-0.35H95z M86.95,43.45l-0.65,0.6h9.2l-0.65-0.6H86.95z M112.05,58.8h0.05
			c0.101-0.166,0.317-0.35,0.65-0.55c0.233-0.134,0.517-0.2,0.85-0.2c1.233,0,1.851,0.767,1.851,2.3v3.101h-1.65v-2.9
			c0-0.8-0.283-1.2-0.85-1.2c-0.367,0-0.65,0.2-0.851,0.601l-0.05,0.35v3.15h-1.6V55.85h1.6V58.8z M120.65,59h2.649v1.35h-2.649
			v1.75h3v1.351H119V56.2h4.5v1.3h-2.85V59z M104.8,58.05v1.55l-0.45-0.05c-0.6,0-0.983,0.283-1.149,0.851v3.05h-1.65l-0.05-5.3h1.4
			l0.05,1H103c0.267-0.733,0.75-1.101,1.45-1.101H104.8z M106.05,58.85c0.533-0.533,1.283-0.8,2.25-0.8c0.533,0,0.95,0.066,1.25,0.2
			l-0.3,1.2c-0.3-0.101-0.6-0.15-0.9-0.15c-0.933,0-1.399,0.5-1.399,1.5c0,0.967,0.483,1.45,1.45,1.45
			c0.399,0,0.716-0.05,0.949-0.15l0.15,1.2c-0.267,0.167-0.75,0.25-1.45,0.25c-0.866,0-1.55-0.25-2.05-0.75
			c-0.5-0.467-0.75-1.116-0.75-1.95C105.25,60.05,105.517,59.384,106.05,58.85z M95.5,57.65L93.8,63.3h-1.3l-0.75-2.8
			c-0.3-0.967-0.517-1.917-0.65-2.85h-0.05l-0.25,5.8h-1.5l0.45-7.25h2.2l0.7,2.399c0.233,0.801,0.433,1.667,0.6,2.601h0.05l1.45-5
			h2.15l0.399,7.25h-1.6l-0.15-5.8H95.5z M100.25,58.15v5.3H98.6v-5.3H100.25z M100.3,56.7c0,0.533-0.3,0.8-0.899,0.8
			c-0.567,0-0.851-0.267-0.851-0.8c0-0.2,0.084-0.384,0.25-0.55c0.167-0.167,0.367-0.25,0.601-0.25
			C99.934,55.9,100.233,56.167,100.3,56.7z M83.6,58.05c1.534,0,2.3,0.75,2.3,2.25v1.851c0,0.666,0.033,1.1,0.1,1.3h-1.5l-0.1-0.55
			c-0.334,0.433-0.851,0.649-1.55,0.649c-0.5,0-0.917-0.166-1.25-0.5c-0.3-0.3-0.45-0.666-0.45-1.1c0-1.367,1.033-2.05,3.1-2.05
			V59.85c0-0.466-0.317-0.699-0.95-0.699c-0.5,0-0.983,0.133-1.45,0.399l-0.3-1.05C82.083,58.2,82.767,58.05,83.6,58.05z M82.8,61.8
			c0,0.4,0.217,0.601,0.65,0.601c0.466,0,0.75-0.2,0.85-0.601v-0.85C83.3,60.95,82.8,61.233,82.8,61.8z M153.4,60.2
			c0.966,0.333,1.449,0.883,1.449,1.649c0,1.134-0.767,1.7-2.3,1.7c-0.666,0-1.233-0.116-1.7-0.35l0.301-1.2
			c0.399,0.267,0.866,0.4,1.399,0.4c0.467,0,0.7-0.15,0.7-0.45c0-0.233-0.25-0.434-0.75-0.601c-1-0.333-1.5-0.866-1.5-1.6
			c0-0.467,0.2-0.866,0.6-1.2c0.4-0.333,0.917-0.5,1.551-0.5c0.566,0,1.05,0.101,1.449,0.3l-0.25,1.15
			c-0.399-0.233-0.783-0.35-1.149-0.35c-0.434,0-0.65,0.149-0.65,0.449C152.55,59.833,152.833,60.033,153.4,60.2z M144.95,58.85
			c0.366,0.467,0.55,1.067,0.55,1.801l-0.05,0.649h-3.4c0.033,0.667,0.533,1,1.5,1c0.566,0,1.05-0.066,1.45-0.2l0.2,1.101
			c-0.5,0.233-1.134,0.35-1.9,0.35c-0.899,0-1.6-0.25-2.1-0.75c-0.5-0.467-0.75-1.116-0.75-1.95c0-0.733,0.217-1.366,0.649-1.899
			c0.5-0.601,1.184-0.9,2.051-0.9C143.95,58.05,144.55,58.316,144.95,58.85z M143.05,59.15c-0.666,0-1,0.35-1,1.05h1.9
			C143.95,59.5,143.65,59.15,143.05,59.15z M148.45,58.05c0.533,0,1.033,0.101,1.5,0.3l-0.3,1.15c-0.4-0.233-0.784-0.35-1.15-0.35
			c-0.4,0-0.6,0.149-0.6,0.449c0,0.233,0.283,0.434,0.85,0.601c0.934,0.333,1.4,0.883,1.4,1.649c0,1.134-0.75,1.7-2.25,1.7
			c-0.733,0-1.301-0.116-1.7-0.35l0.25-1.2c0.399,0.267,0.883,0.4,1.45,0.4c0.466,0,0.699-0.15,0.699-0.45
			c0-0.233-0.267-0.434-0.8-0.601c-1-0.333-1.5-0.866-1.5-1.6c0-0.467,0.2-0.866,0.601-1.2C147.3,58.217,147.816,58.05,148.45,58.05
			z M131.95,61.15L132,61.5c0.134,0.533,0.45,0.8,0.95,0.8c0.733,0,1.1-0.5,1.1-1.5c0-0.967-0.366-1.45-1.1-1.45
			c-0.533,0-0.851,0.267-0.95,0.801l-0.05,0.3V61.15z M131.8,58.9c0.367-0.567,0.95-0.851,1.75-0.851c0.601,0,1.117,0.233,1.55,0.7
			c0.434,0.533,0.65,1.2,0.65,2c0,0.9-0.25,1.6-0.75,2.1c-0.467,0.467-1.017,0.7-1.65,0.7c-0.633,0-1.1-0.2-1.399-0.6v2.6h-1.65
			l-0.05-7.399h1.45l0.05,0.75H131.8z M140,58.05v1.55l-0.45-0.05c-0.633,0-1,0.283-1.1,0.851l-0.05,0.35v2.7h-1.65l-0.05-5.3h1.399
			l0.101,1h0.05c0.233-0.733,0.7-1.101,1.4-1.101H140z M125.95,58.15l0.95,1.699h0.05l0.85-1.699h1.8l-1.75,2.5l1.75,2.8h-1.85
			l-0.95-1.75h-0.05l-0.85,1.75H124.1l1.75-2.7l-1.75-2.6H125.95z M34.7,60.1c-0.133-0.533-0.45-0.8-0.95-0.8
			c-0.767,0-1.15,0.5-1.15,1.5c0,0.967,0.383,1.45,1.15,1.45c0.533,0,0.85-0.267,0.95-0.8V60.1z M31.65,58.8
			c0.434-0.5,0.983-0.75,1.65-0.75c0.667,0,1.133,0.184,1.4,0.55v-2.75h1.65l0.05,7.601h-1.45l-0.05-0.8h-0.05
			c-0.3,0.6-0.85,0.899-1.65,0.899c-0.633,0-1.167-0.25-1.6-0.75c-0.434-0.5-0.65-1.149-0.65-1.95
			C30.95,59.983,31.183,59.3,31.65,58.8z M39.3,55.85v7.601h-1.6V55.85H39.3z M25.2,58.8c0.433-0.5,0.983-0.75,1.65-0.75
			c0.733,0,1.2,0.184,1.4,0.55h0.05v-2.75h1.65v7.601H28.5l-0.05-0.8H28.4c-0.3,0.6-0.85,0.899-1.65,0.899
			c-0.633,0-1.167-0.25-1.6-0.75c-0.433-0.5-0.65-1.149-0.65-1.95C24.5,59.983,24.733,59.3,25.2,58.8z M21,59.2
			c-0.7,0-1.05,0.533-1.05,1.6S20.3,62.4,21,62.4s1.05-0.534,1.05-1.601S21.7,59.2,21,59.2z M23.75,60.75c0,0.9-0.283,1.6-0.85,2.1
			c-0.5,0.467-1.133,0.7-1.9,0.7c-0.8,0-1.45-0.233-1.95-0.7c-0.533-0.5-0.8-1.166-0.8-2c0-0.866,0.25-1.55,0.75-2.05
			c0.533-0.5,1.233-0.75,2.1-0.75c0.8,0,1.45,0.25,1.95,0.75C23.517,59.3,23.75,59.95,23.75,60.75z M26.15,60.8
			c0,0.967,0.383,1.45,1.15,1.45c0.534,0,0.85-0.267,0.95-0.8L28.3,61.1V60.4L28.25,60.1c-0.133-0.533-0.45-0.8-0.95-0.8
			C26.533,59.3,26.15,59.8,26.15,60.8z M11,57.45c-0.7,0-1.267,0.2-1.7,0.6c-0.466,0.4-0.7,0.983-0.7,1.75
			c0,0.733,0.217,1.316,0.65,1.75c0.4,0.434,0.95,0.65,1.65,0.65c0.333,0,0.6-0.033,0.8-0.101v-1.55h-1.15v-1.3h2.7v3.85
			c-0.667,0.267-1.467,0.4-2.4,0.4c-1.333,0-2.317-0.316-2.95-0.95c-0.7-0.7-1.05-1.583-1.05-2.649c0-1.2,0.4-2.134,1.2-2.801
			C8.783,56.467,9.767,56.15,11,56.15c0.967,0,1.65,0.116,2.05,0.35l-0.35,1.25C12.167,57.55,11.6,57.45,11,57.45z M16.2,60.4v3.05
			h-1.65l-0.05-5.3h1.4l0.05,1H16c0.233-0.733,0.717-1.101,1.45-1.101h0.3v1.55l-0.4-0.05C16.683,59.55,16.3,59.833,16.2,60.4z
			 M73.75,58.95c0.167-0.267,0.4-0.483,0.7-0.65c0.333-0.166,0.667-0.25,1-0.25c1.2,0,1.8,0.767,1.8,2.3v3.101h-1.6v-2.9
			c0-0.8-0.267-1.2-0.8-1.2c-0.4,0-0.65,0.2-0.75,0.601l-0.05,0.399v3.101h-1.6v-3c0-0.733-0.25-1.101-0.75-1.101
			c-0.367,0-0.633,0.2-0.8,0.601l-0.05,0.399v3.101h-1.6l-0.05-5.3h1.4l0.05,0.699h0.05c0.433-0.533,0.966-0.8,1.6-0.8
			C73,58.05,73.483,58.35,73.75,58.95z M80.2,55.85v7.601h-1.65V55.85H80.2z M61.6,58.8h0.05c0.133-0.2,0.35-0.383,0.65-0.55
			c0.233-0.134,0.517-0.2,0.85-0.2c1.233,0,1.85,0.767,1.85,2.3v3.101h-1.65v-2.9c0-0.8-0.283-1.2-0.85-1.2
			c-0.367,0-0.65,0.2-0.85,0.601L61.6,60.3v3.15h-1.65V55.85h1.65V58.8z M67.95,58.15v5.3H66.3v-5.3H67.95z M67.1,57.5
			c-0.567,0-0.85-0.267-0.85-0.8s0.3-0.8,0.9-0.8c0.233,0,0.434,0.083,0.6,0.25C67.917,56.316,68,56.5,68,56.7
			C68,57.233,67.7,57.5,67.1,57.5z M51,61.15h-2.8V60.05H51V61.15z M54.8,56.7c0.5-0.4,1.167-0.601,2-0.601
			c0.7,0,1.317,0.117,1.85,0.351l-0.35,1.3c-0.466-0.233-0.966-0.35-1.5-0.35c-0.733,0-1.1,0.233-1.1,0.699
			c0,0.334,0.45,0.667,1.35,1c1.267,0.5,1.9,1.233,1.9,2.2c0,0.634-0.233,1.167-0.7,1.601c-0.533,0.433-1.283,0.649-2.25,0.649
			c-0.767,0-1.45-0.149-2.05-0.45l0.35-1.35c0.667,0.3,1.267,0.45,1.8,0.45c0.767,0,1.15-0.267,1.15-0.8c0-0.4-0.4-0.733-1.2-1
			c-1.333-0.5-2-1.217-2-2.15C54.05,57.616,54.3,57.1,54.8,56.7z M43.85,60.2c0-0.7-0.317-1.05-0.95-1.05c-0.6,0-0.933,0.35-1,1.05
			H43.85z M45.35,60.65L45.3,61.3h-3.4c0.033,0.667,0.533,1,1.5,1c0.567,0,1.05-0.066,1.45-0.2l0.2,1.101
			c-0.466,0.233-1.1,0.35-1.9,0.35c-0.9,0-1.583-0.25-2.05-0.75c-0.5-0.467-0.75-1.116-0.75-1.95c0-0.733,0.217-1.366,0.65-1.899
			c0.5-0.601,1.167-0.9,2-0.9c0.8,0,1.4,0.267,1.8,0.8C45.167,59.316,45.35,59.917,45.35,60.65z"/>
		<path style="fill-rule:evenodd;clip-rule:evenodd;fill:#58763E;" d="M126,33.55v-2.9h-14.85v2.9h5.199v12.5h4.4v-12.5H126z
			 M127.95,30.6c1.5,2.033,2.25,4.367,2.25,7c0,3.333-1.167,6.167-3.5,8.5c-2.334,2.334-5.167,3.5-8.5,3.5
			c-3.334,0-6.167-1.166-8.5-3.5c-0.601-0.6-1.134-1.25-1.601-1.949c-1.267-1.9-1.899-4.084-1.899-6.55c0-3.3,1.166-6.117,3.5-8.45
			c2.333-2.367,5.166-3.55,8.5-3.55c3.333,0,6.166,1.183,8.5,3.55C127.167,29.617,127.583,30.1,127.95,30.6z"/>
		<path style="fill-rule:evenodd;clip-rule:evenodd;fill:#131410;" d="M0.5,47.75L0.85,47c-0.033,0.667,0,1.583,0.1,2.75
			c0.1,1.366,0.15,2.3,0.15,2.8c0,1.033,0.1,2.066,0.3,3.101C1.533,56.217,1.55,57,1.45,58c-0.1,1.1-0.117,1.9-0.05,2.4
			c0.167-0.067,0.283-0.117,0.35-0.15c0.133-0.066,0.233-0.184,0.3-0.35c0.067,0.366,0.117,1.033,0.15,2
			c0.033,0.866,0.117,1.533,0.25,2c0.933-0.301,1.5-1.017,1.7-2.15c0.434,0.267,0.733,0.733,0.9,1.4
			c-0.066,0.566-0.033,0.916,0.1,1.05c0.133,0.166,0.35,0.25,0.65,0.25c0.333-0.033,0.583-0.05,0.75-0.05
			c0.1,0.033,0.467,0.199,1.1,0.5c0.934,0.5,2.333,0.699,4.2,0.6c2.267-0.134,3.75-0.134,4.45,0c0.833,0.167,1.45,0.283,1.85,0.35
			c0.733,0.101,1.383,0.134,1.95,0.101c0.6-0.066,1.1-0.167,1.5-0.3c0.667-0.601,1.083-0.917,1.25-0.95
			c0.233-0.033,0.467,0.017,0.7,0.149c0.4,0.301,0.617,0.45,0.65,0.45c0.4,0.2,1.017,0.334,1.85,0.4h6.25
			c0.434,0,0.917-0.084,1.45-0.25c0.667-0.267,1.117-0.417,1.35-0.45c0.367-0.066,0.833-0.066,1.4,0c0.833,0.134,1.283,0.2,1.35,0.2
			c1-0.101,1.733-0.134,2.2-0.101c0.867,0.2,1.567,0.317,2.1,0.351c1.233-0.101,2.133-0.134,2.7-0.101
			c0.833,0.167,1.517,0.301,2.05,0.4c0.934,0.2,1.6,0.184,2-0.05c0.367-0.2,0.5-0.467,0.4-0.8c-0.167-0.434-0.216-0.75-0.15-0.95
			c0.967-0.101,1.95-0.101,2.95,0c-0.1,0.166-0.167,0.467-0.2,0.899c0.7,0.233,1.717,0.317,3.05,0.25c1.466-0.1,2.5-0.149,3.1-0.149
			c3.833-0.3,6.617-0.316,8.35-0.05c0.367,0.066,1.05,0.267,2.05,0.6c0.867,0.267,1.566,0.417,2.1,0.45
			c1.267-0.134,2.2-0.117,2.8,0.05c0.6,0.233,1.083,0.384,1.45,0.45c0.567,0.1,1.367,0.149,2.4,0.149c1.2,0.034,2,0.067,2.4,0.101
			c0.633,0.033,1.25-0.066,1.85-0.3c0.667-0.301,1.233-0.534,1.7-0.7c0.533-0.167,1.317-0.25,2.35-0.25
			c1.434,0.033,2.233,0.05,2.4,0.05c0.1,0,0.183-0.05,0.25-0.15c0.066-0.1,0.216-0.133,0.449-0.1c0.134,0.033,0.351,0.15,0.65,0.35
			c0.3,0.2,0.517,0.317,0.65,0.351c0.399,0.1,0.966,0.133,1.699,0.1c0.834-0.066,1.417-0.1,1.75-0.1h16.301
			c1.633,0,2.767-0.117,3.399-0.351c0.066,0,0.134-0.066,0.2-0.199c0.1-0.134,0.2-0.217,0.3-0.25c0.134-0.034,0.351,0,0.65,0.1
			c0.366,0.1,0.6,0.15,0.7,0.15c0.066,0,0.166-0.101,0.3-0.301c0.133-0.199,0.267-0.267,0.399-0.199
			c0.167,0.066,0.301,0.283,0.4,0.649c0.1,0.367,0.2,0.584,0.3,0.65c0.2,0.166,0.733,0.25,1.601,0.25
			c2.8-0.101,4.383-0.167,4.75-0.2c2.3-0.3,3.966-0.25,5,0.15c0.399,0.233,0.699,0.399,0.899,0.5c0.334,0.166,0.684,0.267,1.05,0.3
			c0.767,0.066,1.434,0.05,2-0.05c0.101-0.034,0.317-0.117,0.65-0.25c0.134-0.034,0.384-0.034,0.75,0c2.5,0.366,4.2,0.55,5.1,0.55
			c0.434,0,1.684,0.033,3.75,0.1c1.534,0.066,2.767,0.033,3.7-0.1c0.566-0.066,1.45-0.25,2.65-0.55
			c1.133-0.301,2.017-0.483,2.649-0.551c0.967,0.067,1.717,0.117,2.25,0.15c0.967,0.033,1.617-0.15,1.95-0.55
			c0.467-0.566,0.75-1.566,0.851-3c0.3-0.101,0.633-0.033,1,0.2c0.3,0.233,0.566,0.233,0.8,0s0.333-0.817,0.3-1.75
			c-0.033-0.467-0.066-1.034-0.1-1.7c0.033,0.2,0.149,0.35,0.35,0.45c0.267,0.1,0.533,0.1,0.8,0l0.25-1.2
			c-0.633-0.367-2.017-1.351-4.149-2.95c-1.733-1.333-2.767-2.017-3.101-2.05c-0.566-0.033-1.383,0.033-2.45,0.2
			c-1.833,0.166-4.199,0.233-7.1,0.199c-4.434-0.066-6.8-0.1-7.1-0.1c-2.467,0-6.217-0.083-11.25-0.25h-22.5
			c-2.134,0-5.317,0.083-9.551,0.25c-1.333,0-3.616-0.1-6.85-0.3c-2.9-0.2-5.167-0.267-6.8-0.2c0.3-0.2,0.783-0.316,1.45-0.35
			c0.7-0.067,1.2-0.184,1.5-0.351c0.1-0.066,0.217-0.184,0.35-0.35c0.133-0.233,0.25-0.384,0.35-0.45
			c0.066-0.066,0.233-0.116,0.5-0.15c0.233-0.033,0.4-0.149,0.5-0.35c0.333,0.233,0.667,0.316,1,0.25l0.25,0.25
			c0.5,0.267,1.117,0.417,1.851,0.45c0.899,0.033,1.55,0.05,1.95,0.05c0.366,0,1.3,0.066,2.8,0.2c1.133,0.133,2.05,0.133,2.75,0
			c2.566-0.434,4.283-0.834,5.149-1.2c0.934-0.366,1.634-0.65,2.101-0.85c0.8-0.367,1.383-0.784,1.75-1.25
			c0.566-0.967,0.95-1.45,1.149-1.45c0.134-0.033,0.384,0.116,0.75,0.45c0.467,0.366,0.717,0.566,0.75,0.6
			c1.267,0.634,2.517,1.134,3.75,1.5c1.4,0.467,2.467,0.816,3.2,1.05c0.7,0.233,2.117,0.384,4.25,0.45c3,0.1,4.684,0.134,5.05,0.1
			c1.767-0.133,3.351-0.616,4.75-1.449l3.95-2.5c0.7-0.4,1.367-0.634,2-0.7c0.601-0.033,1.084-0.066,1.45-0.101
			c0.733-0.033,1.2,0.017,1.4,0.15c0.267,0.167,0.483,0.517,0.649,1.05c0.2,0.533,0.45,0.917,0.75,1.15
			c0.667,0.3,1.167,0.649,1.5,1.05c0.066,0.066,0.134,0.283,0.2,0.65c0.033,0.267,0.15,0.449,0.35,0.55
			c0.134,0.066,0.334,0.1,0.601,0.1c0.3-0.066,0.5-0.1,0.6-0.1c1.066,0.2,1.9,0.3,2.5,0.3c1.2,0.134,2.05,0.134,2.55,0
			c0.167-0.033,0.417-0.15,0.75-0.35c0.301-0.2,0.551-0.317,0.75-0.351c0.267-0.066,0.534-0.05,0.801,0.05
			c0.3,0.101,0.55,0.15,0.75,0.15c0.333,0,0.916-0.233,1.75-0.7c0.8-0.434,1.6-1.05,2.399-1.85c0.867-0.967,1.55-1.717,2.05-2.25
			c1.601-1.533,2.584-2.5,2.95-2.9c1.667-1.967,3.033-4.283,4.101-6.95V65.1c0,1.101-0.384,2.051-1.15,2.851
			c-0.8,0.767-1.75,1.149-2.85,1.149H4.5c-0.667,0-1.25-0.116-1.75-0.35c-0.4-0.2-0.767-0.467-1.1-0.8
			C0.883,67.15,0.5,66.2,0.5,65.1V47.75z"/>
		<path style="fill-rule:evenodd;clip-rule:evenodd;fill:#FFFFFF;" d="M83.2,12.15V10.5h1V9.1l2.2-0.6v2h1.649v1.65H86.4v2.65
			c0,0.867,0.3,1.3,0.899,1.3l0.7-0.05v1.7c-0.4,0.133-0.884,0.2-1.45,0.2c-0.7,0-1.283-0.2-1.75-0.6
			c-0.399-0.434-0.6-1.167-0.6-2.2v-3H83.2z M81.75,12.3c-0.533-0.267-1.067-0.4-1.6-0.4c-0.566,0-0.85,0.184-0.85,0.55
			c0,0.3,0.4,0.6,1.2,0.9c1.3,0.433,1.95,1.183,1.95,2.25c0,0.7-0.267,1.267-0.8,1.7C81.083,17.767,80.3,18,79.3,18
			c-0.9,0-1.683-0.183-2.35-0.55l0.4-1.6c0.533,0.333,1.183,0.5,1.95,0.5c0.667,0,1-0.2,1-0.6c0-0.3-0.367-0.583-1.1-0.85
			c-1.4-0.467-2.1-1.2-2.1-2.2c0-0.7,0.283-1.267,0.85-1.7c0.533-0.467,1.25-0.7,2.15-0.7c0.833,0,1.517,0.15,2.05,0.45L81.75,12.3z
			 M75.25,11.45c0.5,0.667,0.75,1.5,0.75,2.5l-0.1,0.9h-4.7c0.066,0.933,0.75,1.4,2.05,1.4c0.733,0,1.417-0.1,2.05-0.3l0.3,1.55
			c-0.733,0.3-1.617,0.45-2.65,0.45c-1.233,0-2.2-0.333-2.9-1c-0.7-0.667-1.05-1.567-1.05-2.7c0-1.067,0.3-1.967,0.9-2.7
			c0.667-0.833,1.6-1.25,2.8-1.25C73.8,10.3,74.65,10.683,75.25,11.45z M65.75,10.5l0.1,1.35h0.05c0.333-1.033,0.983-1.55,1.95-1.55
			l0.5,0.05v2.15l-0.6-0.05c-0.867,0-1.383,0.383-1.55,1.15l-0.05,0.5v3.7h-2.3l-0.05-7.3H65.75z M62.15,9.8
			c-0.533-0.233-1.183-0.35-1.95-0.35c-0.934,0-1.684,0.267-2.25,0.8c-0.633,0.6-0.95,1.433-0.95,2.5c0,1.033,0.283,1.833,0.85,2.4
			c0.566,0.6,1.35,0.9,2.35,0.9c0.867,0,1.517-0.1,1.95-0.3l0.3,1.8C61.85,17.85,61,18,59.9,18c-1.7,0-3.017-0.483-3.95-1.45
			c-0.9-0.933-1.35-2.15-1.35-3.65c0-1.667,0.533-2.983,1.6-3.95c1-0.934,2.3-1.4,3.9-1.4c1.066,0,1.9,0.15,2.5,0.45L62.15,9.8z
			 M73.85,13.3c0-0.966-0.417-1.45-1.25-1.45c-0.8,0-1.283,0.483-1.45,1.45H73.85z M47.55,10.3c0.767,0,1.383,0.267,1.85,0.8
			c0.5,0.566,0.75,1.383,0.75,2.45v4.25h-2.3v-4c0-1.1-0.4-1.65-1.2-1.65c-0.5,0-0.883,0.267-1.15,0.8l-0.05,0.5v4.35h-2.3V7.15h2.3
			v4.2h0.05c0.2-0.3,0.5-0.55,0.9-0.75C46.7,10.4,47.083,10.3,47.55,10.3z M41.05,12.3c-0.533-0.267-1.05-0.4-1.55-0.4
			c-0.6,0-0.9,0.184-0.9,0.55c0,0.3,0.4,0.6,1.2,0.9c1.3,0.433,1.95,1.183,1.95,2.25c0,0.7-0.267,1.267-0.8,1.7
			C40.383,17.767,39.6,18,38.6,18c-0.9,0-1.684-0.183-2.35-0.55l0.4-1.6c0.533,0.333,1.184,0.5,1.95,0.5c0.667,0,1-0.2,1-0.6
			c0-0.3-0.367-0.583-1.1-0.85c-1.4-0.467-2.1-1.2-2.1-2.2c0-0.7,0.283-1.267,0.85-1.7c0.533-0.467,1.25-0.7,2.15-0.7
			c0.833,0,1.517,0.15,2.05,0.45L41.05,12.3z M34.6,9.25c-0.233,0.233-0.55,0.35-0.95,0.35c-0.333,0-0.617-0.117-0.85-0.35
			c-0.2-0.233-0.3-0.5-0.3-0.8c0-0.767,0.4-1.15,1.2-1.15c0.8,0,1.2,0.383,1.2,1.15C34.9,8.783,34.8,9.05,34.6,9.25z M34.85,10.5
			v7.3h-2.3v-7.3H34.85z M26.6,7.15V17.8h-2.3V7.15H26.6z M20.3,15.15v-0.8c-1.433,0-2.15,0.383-2.15,1.15
			c0,0.567,0.3,0.85,0.9,0.85c0.633,0,1.034-0.267,1.2-0.8L20.3,15.15z M22.5,16.05c0,0.9,0.033,1.483,0.1,1.75h-2.05l-0.15-0.7
			h-0.05c-0.5,0.6-1.2,0.9-2.1,0.9c-0.7,0-1.267-0.233-1.7-0.7c-0.433-0.433-0.65-0.95-0.65-1.55c0-1.9,1.434-2.85,4.3-2.85v-0.05
			c0-0.667-0.45-1-1.35-1c-0.733,0-1.4,0.2-2,0.6l-0.45-1.5c0.8-0.434,1.75-0.65,2.85-0.65c2.167,0,3.25,1.067,3.25,3.2V16.05z
			 M28.4,7.15h2.3V17.8h-2.3V7.15z M13.45,9.6v8.2H11.2V9.6H8.45V7.7h7.8v1.9H13.45z"/>
		<path style="fill-rule:evenodd;clip-rule:evenodd;fill:#69382B;" d="M100.6,30.6c1.5,2.033,2.25,4.367,2.25,7
			c0,3.333-1.166,6.167-3.5,8.5c-2.333,2.334-5.166,3.5-8.5,3.5c-3.3,0-6.116-1.166-8.45-3.5c-0.5-0.5-0.95-1.017-1.35-1.55
			c-1.466-2-2.2-4.316-2.2-6.95c0-3.3,1.183-6.117,3.55-8.45c2.333-2.367,5.15-3.55,8.45-3.55c3.334,0,6.167,1.183,8.5,3.55
			C99.816,29.617,100.233,30.1,100.6,30.6z M95,29.35h-8.3c-0.367,0-0.684,0.117-0.95,0.35c-0.267,0.267-0.4,0.566-0.4,0.9V40
			c0,0.366,0.134,0.684,0.4,0.95c0.267,0.233,0.583,0.35,0.95,0.35H95c0.366,0,0.684-0.116,0.95-0.35
			c0.267-0.267,0.399-0.584,0.399-0.95v-9.4c0-0.333-0.133-0.633-0.399-0.9C95.684,29.467,95.366,29.35,95,29.35z M94.55,30.55
			c0.467,0,0.7,0.233,0.7,0.7v2.6c0,0.5-0.233,0.75-0.7,0.75h-3.3v-4.05H94.55z M95.05,37.1c0,0.267-0.1,0.483-0.3,0.65
			S94.316,38,94.05,38c-0.633,0-0.95-0.3-0.95-0.9c0-0.267,0.084-0.483,0.25-0.65c0.2-0.2,0.434-0.3,0.7-0.3s0.5,0.1,0.7,0.3
			C94.95,36.617,95.05,36.833,95.05,37.1z M90.5,30.55v4.05h-3.3c-0.2,0-0.367-0.067-0.5-0.2c-0.167-0.167-0.25-0.35-0.25-0.55v-2.6
			c0-0.467,0.25-0.7,0.75-0.7H90.5z M87.65,36.15c0.267,0,0.5,0.1,0.699,0.3c0.2,0.167,0.301,0.383,0.301,0.65
			s-0.101,0.483-0.301,0.65C88.15,37.917,87.917,38,87.65,38s-0.483-0.083-0.65-0.25c-0.2-0.2-0.3-0.417-0.3-0.65s0.1-0.45,0.3-0.65
			C87.2,36.25,87.417,36.15,87.65,36.15z M87.75,42c-0.267-0.2-0.5-0.2-0.7,0l-3.4,3.05c-0.233,0.233-0.25,0.467-0.05,0.7
			c0.233,0.233,0.483,0.25,0.75,0.05l0.75-0.649h11.45c0.033,0,0.084,0,0.15,0l0.7,0.649c0.233,0.2,0.466,0.184,0.699-0.05
			s0.233-0.467,0-0.7L94.7,42c-0.233-0.233-0.467-0.233-0.7,0c-0.1,0.134-0.15,0.25-0.15,0.35H87.95
			C87.95,42.25,87.884,42.134,87.75,42z M86.95,43.45h7.899l0.65,0.6h-9.2L86.95,43.45z"/>
	</g>
</g>
</svg>
