<?xml version="1.0" encoding="iso-8859-1"?>
<!-- Generator: Adobe Illustrator 16.0.0, SVG Export Plug-In . SVG Version: 6.00 Build 0)  -->
<!DOCTYPE svg PUBLIC "-//W3C//DTD SVG 1.1//EN" "http://www.w3.org/Graphics/SVG/1.1/DTD/svg11.dtd">
<svg version="1.1" id="Layer_1" xmlns="http://www.w3.org/2000/svg" xmlns:xlink="http://www.w3.org/1999/xlink" x="0px" y="0px"
	 width="290.335px" height="80.75px" viewBox="0 0 290.335 80.75" style="enable-background:new 0 0 290.335 80.75;"
	 xml:space="preserve">
<g>
	<g>
		<g>
			<path style="fill-rule:evenodd;clip-rule:evenodd;fill:#333328;" d="M281.46,78.95c0.2-0.167,0.416-0.334,0.649-0.5
				c2-1.533,3.167-3.417,3.5-5.65c3.301-21.233,3.301-42.483,0-63.75c-0.333-2.233-1.5-4.117-3.5-5.65
				c-1.966-1.533-4.216-2.3-6.75-2.3H8.46c-1.1,0-2.1,0.15-3,0.45C6.86,0.517,8.61,0,10.71,0h266.899c2.534,0,4.784,0.767,6.75,2.3
				c2,1.5,3.167,3.367,3.5,5.6c3.301,21.3,3.301,42.567,0,63.8c-0.333,2.233-1.5,4.1-3.5,5.6C283.46,78,282.493,78.55,281.46,78.95z
				"/>
			<path style="fill-rule:evenodd;clip-rule:evenodd;fill:#494939;" d="M5.46,1.55c0.9-0.3,1.9-0.45,3-0.45h266.899
				c2.534,0,4.784,0.767,6.75,2.3c2,1.533,3.167,3.417,3.5,5.65c3.301,21.267,3.301,42.517,0,63.75c-0.333,2.233-1.5,4.117-3.5,5.65
				c-0.233,0.166-0.449,0.333-0.649,0.5c-1.834,1.2-3.867,1.8-6.101,1.8H8.46c-2.8,0-5.034-0.967-6.7-2.9
				c-1.433-1.633-1.983-3.6-1.65-5.899c3.267-20.667,3.267-41.35,0-62.05C-0.257,7.633,0.293,5.667,1.76,4
				C2.76,2.833,3.993,2.017,5.46,1.55z M282.26,5.55c-1.467-1.1-3.1-1.65-4.9-1.65H10.51c-1.833,0-3.283,0.55-4.35,1.65
				C5.093,6.617,4.676,7.933,4.91,9.5c3.267,20.967,3.267,41.917,0,62.85c-0.233,1.567,0.184,2.884,1.25,3.95
				c1.067,1.101,2.517,1.65,4.35,1.65h266.85c1.801,0,3.434-0.55,4.9-1.65c1.5-1.1,2.366-2.416,2.6-3.95
				c3.267-20.933,3.267-41.883,0-62.85C284.626,7.967,283.76,6.65,282.26,5.55z"/>
			<path style="fill-rule:evenodd;clip-rule:evenodd;fill:#D6CFB7;" d="M249.71,48.45l-1.25-0.95
				c-1.434-0.733-3.634-1.417-6.601-2.05c-4.733-1-7.866-1.467-9.399-1.4l-5.65-7.25c2.667-1.466,5.7-2.2,9.101-2.2
				c5.366,0,9.616,1.65,12.75,4.95c3.166,3.367,4.75,7.851,4.75,13.45c0,5-1.417,9.167-4.25,12.5l-5.75-7.4
				c1.199-1.466,2.133-2.566,2.8-3.3c1.467-1.533,2.533-2.983,3.2-4.35c0.166-0.334,0.383-0.717,0.649-1.15
				C250.16,49,250.043,48.717,249.71,48.45z M282.26,5.55c1.5,1.1,2.366,2.417,2.6,3.95c3.267,20.967,3.267,41.917,0,62.85
				c-0.233,1.534-1.1,2.851-2.6,3.95c-1.467,1.101-3.1,1.65-4.9,1.65H10.51c-1.833,0-3.283-0.55-4.35-1.65
				c-1.066-1.066-1.483-2.383-1.25-3.95c3.267-20.933,3.267-41.883,0-62.85C4.676,7.933,5.093,6.617,6.16,5.55
				c1.067-1.1,2.517-1.65,4.35-1.65h266.85C279.16,3.9,280.793,4.45,282.26,5.55z M256.56,53.35c0-6.6-1.899-11.85-5.7-15.75
				c-3.8-3.9-8.916-5.85-15.35-5.85c-5.233,0-9.783,1.433-13.65,4.3c-5.166,3.9-7.75,9.517-7.75,16.851
				c0,7.666,2.483,13.399,7.45,17.199c3.934,3.034,8.634,4.551,14.101,4.551c6.199,0,11.233-1.967,15.1-5.9
				C254.626,64.783,256.56,59.65,256.56,53.35z M203.41,38.7v7.1c0,1.134,0.083,2.783,0.25,4.95c0.366,3.767,0.616,6.134,0.75,7.1
				L197.46,38.7h-8.2v31.75h8.25V62.35c0-1.433-0.066-2.883-0.2-4.35l-0.8-5.85l1.05,3.1c0.267,0.8,0.7,1.967,1.3,3.5l4.551,11.7
				h8.3V38.7H203.41z M222.859,55.15h-0.05v0.199c-0.066,0.267-0.116,0.517-0.149,0.75v0.2c0.033,0.5,0.699,1.184,2,2.05
				c1.066,0.7,2.183,1.301,3.35,1.801c2.434,1.033,5.033,1.733,7.8,2.1c1.3,0.267,2.117,0.417,2.45,0.45
				c0.3,0.033,0.65-0.033,1.05-0.2l5.25,6.75c-2.467,1.3-5.3,1.95-8.5,1.95c-4.566,0-8.483-1.3-11.75-3.9
				c-4.1-3.233-6.149-8.133-6.149-14.7c0-4.899,1.333-8.916,4-12.05l4.649,5.95c-0.1,0.033-0.2,0.083-0.3,0.15
				c-0.9,0.566-1.9,1.267-3,2.1c-0.1,0.066-0.184,0.134-0.25,0.2c-0.267,0.333-0.366,0.75-0.3,1.25c0.1,0.5,0.333,0.899,0.7,1.2
				l0.6,0.55c-0.434,0.533-0.783,1.217-1.05,2.05C223.043,54.434,222.927,54.816,222.859,55.15z M172.41,35.3V13.55h4.399V6.7
				H160.41v6.85h4.3V35.3H172.41z M165.46,60.7c-0.533,1.434-1.316,2.149-2.351,2.149c-1,0-1.767-0.716-2.3-2.149
				c-0.566-1.5-0.85-3.55-0.85-6.15c0-2.633,0.3-4.649,0.899-6.05c0.601-1.467,1.417-2.2,2.45-2.2c2.033,0,3.05,2.816,3.05,8.45
				C166.359,57.316,166.06,59.3,165.46,60.7z M187.01,62.2v-6.15h-10.3v6.15H187.01z M172.01,43c-2.2-2.867-5.116-4.3-8.75-4.3
				c-3.033,0-5.616,1.066-7.75,3.2c-2.967,2.867-4.45,7.017-4.45,12.45c0,5.634,1.417,9.884,4.25,12.75
				c2.233,2.233,4.917,3.351,8.05,3.351c3.567,0,6.417-1.45,8.551-4.351c2.233-2.933,3.35-6.733,3.35-11.399
				C175.26,49.833,174.177,45.934,172.01,43z M140.76,6.7h-7.75v18.35c0,1.233-0.133,2.117-0.4,2.65c-0.3,0.5-0.817,0.75-1.55,0.75
				c-0.667,0-1.167-0.267-1.5-0.8c-0.333-0.467-0.5-1.333-0.5-2.6V6.7h-7.7v18.8c0,3.567,1.133,6.183,3.4,7.85
				c1.8,1.3,4.017,1.95,6.65,1.95c2.3,0,4.283-0.583,5.95-1.75c1.2-0.9,2.066-1.883,2.6-2.95c0.533-1.133,0.8-2.483,0.8-4.05V6.7z
				 M158.26,8.1c-1.934-0.934-3.783-1.4-5.55-1.4c-2.066,0-3.834,0.6-5.3,1.8c-0.534,0.433-1,0.917-1.4,1.45
				c-0.366,0.466-0.717,1.05-1.05,1.75c-0.633,1.4-0.95,2.75-0.95,4.05c0,0.667,0.083,1.383,0.25,2.15
				c0.233,0.8,0.517,1.45,0.85,1.95c0.334,0.6,0.801,1.233,1.4,1.9c0.5,0.5,1.217,1.1,2.15,1.8l1.3,0.95
				c0.899,0.7,1.35,1.417,1.35,2.15c0,0.533-0.217,0.95-0.649,1.25c-0.434,0.367-0.967,0.55-1.601,0.55
				c-1.733,0-3.383-1.05-4.95-3.15v8.8c2.1,0.8,4.05,1.2,5.85,1.2c2.633,0,4.8-0.883,6.5-2.65c1.733-1.733,2.6-3.967,2.6-6.7
				c0-1.633-0.366-3.034-1.1-4.2c-0.7-1.233-1.867-2.383-3.5-3.45l-1.2-0.9c-1.066-0.7-1.6-1.433-1.6-2.2
				c0-0.467,0.199-0.85,0.6-1.15c0.366-0.333,0.85-0.5,1.45-0.5c0.767,0,1.566,0.284,2.399,0.85c0.801,0.533,1.517,1.3,2.15,2.3V8.1
				z M138.91,38.7v7.1c0,1.134,0.083,2.783,0.25,4.95l0.7,7.1L132.91,38.7h-8.2v31.75h8.3V62.35c0-1.066-0.083-2.517-0.25-4.35
				c-0.133-1.634-0.383-3.583-0.75-5.85l6.9,18.3h8.3V38.7H138.91z M75.16,59.75h-3.6l2-13.35L75.16,59.75z M78.96,38.7h-10.5
				l-7.65,31.75h8.9l0.7-4h5.8l0.6,4h8.9L78.96,38.7z M52.66,38.7c-2.267,0-4.233,0.65-5.9,1.95c-0.633,0.533-1.15,1.067-1.55,1.6
				c-0.4,0.533-0.8,1.2-1.2,2c-0.667,1.467-1,2.967-1,4.5c0,0.967,0.083,1.767,0.25,2.4c0.167,0.699,0.467,1.433,0.9,2.199
				c0.467,0.733,1.017,1.417,1.65,2.051c0.733,0.733,1.517,1.399,2.35,2l1.4,1.05c1.034,0.8,1.55,1.6,1.55,2.399
				c0,0.567-0.233,1.051-0.7,1.45c-0.533,0.367-1.133,0.55-1.8,0.55c-1.967,0-3.8-1.149-5.5-3.449v9.75c2.2,0.866,4.367,1.3,6.5,1.3
				c2.9,0,5.316-0.967,7.25-2.9c1.9-2,2.85-4.5,2.85-7.5c0-1.767-0.4-3.3-1.2-4.6c-0.8-1.334-2.1-2.634-3.9-3.9l-1.35-0.95
				c-1.167-0.8-1.75-1.616-1.75-2.449c0-0.534,0.217-0.967,0.65-1.301c0.467-0.366,1.017-0.55,1.65-0.55c0.9,0,1.767,0.316,2.6,0.95
				c0.9,0.6,1.7,1.45,2.4,2.55v-9.55C56.81,39.217,54.76,38.7,52.66,38.7z M94.91,38.7h-8.95l7.9,18.3v13.45h8.6V57l7.35-18.3h-8.9
				l-3,9.8c-0.066-0.434-0.283-1.25-0.65-2.45c-0.133-0.566-0.4-1.45-0.8-2.649L94.91,38.7z M117.36,6.7h-7.7v18.2
				c0,2.367-0.8,3.55-2.4,3.55c-1.167,0-2.183-0.567-3.05-1.7v7.65c1.9,0.6,3.566,0.9,5,0.9c2.733,0,4.8-0.8,6.2-2.4
				c0.767-0.833,1.267-1.733,1.5-2.7c0.3-1,0.45-2.333,0.45-4V6.7z"/>
			<linearGradient id="SVGID_1_" gradientUnits="userSpaceOnUse" x1="223.2598" y1="48.7471" x2="249.71" y2="48.7471">
				<stop  offset="0" style="stop-color:#FDF9E4"/>
				<stop  offset="0.4824" style="stop-color:#F2ECD4"/>
				<stop  offset="1" style="stop-color:#E2D9BE"/>
			</linearGradient>
			<path style="fill-rule:evenodd;clip-rule:evenodd;fill:url(#SVGID_1_);" d="M239.31,52.85l-6.85-8.8
				c1.533-0.066,4.666,0.4,9.399,1.4c2.967,0.633,5.167,1.316,6.601,2.05l1.25,0.95h-1.15c-1.033,0.133-2.149,0.633-3.35,1.5
				c-2.3,1.566-3.816,2.733-4.55,3.5L239.31,52.85z M226.81,46.5l2.351,3c-1.967-0.434-3.5-0.667-4.601-0.7
				c-0.7,0-1.133,0.05-1.3,0.15c0.066-0.066,0.15-0.134,0.25-0.2c1.1-0.833,2.1-1.533,3-2.1
				C226.609,46.583,226.71,46.533,226.81,46.5z"/>
			<path style="fill-rule:evenodd;clip-rule:evenodd;fill:#A8A086;" d="M243.41,58.1l-0.65-0.8c1-1.366,1.917-2.434,2.75-3.2
				c1.6-1.466,2.717-2.699,3.35-3.699V50.35c0.301-0.533,0.284-0.8-0.05-0.8c-0.333,0-0.916,0.3-1.75,0.9
				c-0.767,0.566-2.583,2.083-5.45,4.55c-0.133,0.1-0.25,0.217-0.35,0.35l-1.95-2.5l1.351,0.601c0.733-0.767,2.25-1.934,4.55-3.5
				c1.2-0.867,2.316-1.367,3.35-1.5h1.15c0.333,0.267,0.45,0.55,0.35,0.85c-0.267,0.434-0.483,0.816-0.649,1.15
				c-0.667,1.366-1.733,2.816-3.2,4.35C245.543,55.533,244.609,56.634,243.41,58.1z M224.26,51.95l-0.6-0.55
				c-0.367-0.301-0.601-0.7-0.7-1.2c-0.066-0.5,0.033-0.917,0.3-1.25c0.167-0.101,0.6-0.15,1.3-0.15
				c1.101,0.033,2.634,0.267,4.601,0.7l0.649,0.8c-0.2-0.066-0.399-0.116-0.6-0.149c-3.066-0.767-4.934-0.851-5.601-0.25
				c-0.3,0.267,0.051,0.783,1.051,1.55L224.26,51.95z"/>
			<path style="fill-rule:evenodd;clip-rule:evenodd;fill:#8E8872;" d="M248.859,50.4l-0.6,0.25c-0.366,0.267-1.65,1.333-3.85,3.199
				c-0.567,0.467-1.301,1.233-2.2,2.301c-0.066,0.066-0.117,0.133-0.15,0.199l-0.8-1c0.1-0.133,0.217-0.25,0.35-0.35
				c2.867-2.467,4.684-3.983,5.45-4.55c0.834-0.601,1.417-0.9,1.75-0.9c0.334,0,0.351,0.267,0.05,0.8V50.4z"/>
			<linearGradient id="SVGID_2_" gradientUnits="userSpaceOnUse" x1="222.7725" y1="53.8496" x2="249.2475" y2="53.8496">
				<stop  offset="0" style="stop-color:#FDF9E4"/>
				<stop  offset="0.302" style="stop-color:#F2ECD4"/>
				<stop  offset="0.8902" style="stop-color:#D6CCAB"/>
				<stop  offset="1" style="stop-color:#D0C5A2"/>
			</linearGradient>
			<path style="fill-rule:evenodd;clip-rule:evenodd;fill:url(#SVGID_2_);" d="M242.76,57.3l-0.7-0.95
				c0.033-0.066,0.084-0.133,0.15-0.199c0.899-1.067,1.633-1.834,2.2-2.301c2.199-1.866,3.483-2.933,3.85-3.199l0.6-0.25
				c-0.633,1-1.75,2.233-3.35,3.699C244.677,54.866,243.76,55.934,242.76,57.3z"/>
			<path style="fill-rule:evenodd;clip-rule:evenodd;fill:#A12B12;" d="M242.76,57.3l0.65,0.8l5.75,7.4
				c2.833-3.333,4.25-7.5,4.25-12.5c0-5.6-1.584-10.083-4.75-13.45c-3.134-3.3-7.384-4.95-12.75-4.95c-3.4,0-6.434,0.733-9.101,2.2
				l5.65,7.25l6.85,8.8l1.95,2.5l0.8,1L242.76,57.3z M256.56,53.35c0,6.301-1.934,11.434-5.8,15.4c-3.866,3.934-8.9,5.9-15.1,5.9
				c-5.467,0-10.167-1.517-14.101-4.551c-4.967-3.8-7.45-9.533-7.45-17.199c0-7.334,2.584-12.95,7.75-16.851
				c3.867-2.867,8.417-4.3,13.65-4.3c6.434,0,11.55,1.95,15.35,5.85C254.66,41.5,256.56,46.75,256.56,53.35z M203.41,38.7h8.3v31.75
				h-8.3l-4.551-11.7c-0.6-1.533-1.033-2.7-1.3-3.5l-1.05-3.1l0.8,5.85c0.134,1.467,0.2,2.917,0.2,4.35v8.101h-8.25V38.7h8.2
				l6.95,19.149c-0.134-0.966-0.384-3.333-0.75-7.1c-0.167-2.167-0.25-3.816-0.25-4.95V38.7z M230.26,50.9l-0.45-0.601l-0.649-0.8
				l-2.351-3l-4.649-5.95c-2.667,3.134-4,7.15-4,12.05c0,6.567,2.05,11.467,6.149,14.7c3.267,2.601,7.184,3.9,11.75,3.9
				c3.2,0,6.033-0.65,8.5-1.95l-5.25-6.75l-0.55-0.65l-1.3-1.699L230.26,50.9z M172.01,43c2.167,2.934,3.25,6.833,3.25,11.7
				c0,4.666-1.116,8.467-3.35,11.399c-2.134,2.9-4.983,4.351-8.551,4.351c-3.133,0-5.816-1.117-8.05-3.351
				c-2.833-2.866-4.25-7.116-4.25-12.75c0-5.433,1.483-9.583,4.45-12.45c2.134-2.133,4.717-3.2,7.75-3.2
				C166.894,38.7,169.81,40.133,172.01,43z M187.01,62.2h-10.3v-6.15h10.3V62.2z M165.46,60.7c0.6-1.4,0.899-3.384,0.899-5.95
				c0-5.634-1.017-8.45-3.05-8.45c-1.033,0-1.85,0.733-2.45,2.2c-0.6,1.4-0.899,3.417-0.899,6.05c0,2.601,0.283,4.65,0.85,6.15
				c0.533,1.434,1.3,2.149,2.3,2.149C164.144,62.85,164.927,62.134,165.46,60.7z M138.91,38.7h8.3v31.75h-8.3l-6.9-18.3
				c0.367,2.267,0.617,4.216,0.75,5.85c0.167,1.833,0.25,3.283,0.25,4.35v8.101h-8.3V38.7h8.2l6.95,19.149l-0.7-7.1
				c-0.167-2.167-0.25-3.816-0.25-4.95V38.7z"/>
			<path style="fill-rule:evenodd;clip-rule:evenodd;" d="M172.41,35.3h-7.7V13.55h-4.3V6.7h16.399v6.85h-4.399V35.3z M158.26,8.1
				v8.6c-0.634-1-1.35-1.767-2.15-2.3c-0.833-0.566-1.633-0.85-2.399-0.85c-0.601,0-1.084,0.167-1.45,0.5
				c-0.4,0.3-0.6,0.684-0.6,1.15c0,0.767,0.533,1.5,1.6,2.2l1.2,0.9c1.633,1.067,2.8,2.217,3.5,3.45c0.733,1.167,1.1,2.567,1.1,4.2
				c0,2.733-0.866,4.966-2.6,6.7c-1.7,1.767-3.867,2.65-6.5,2.65c-1.8,0-3.75-0.4-5.85-1.2v-8.8c1.567,2.1,3.216,3.15,4.95,3.15
				c0.634,0,1.167-0.184,1.601-0.55c0.433-0.3,0.649-0.717,0.649-1.25c0-0.733-0.45-1.45-1.35-2.15l-1.3-0.95
				c-0.934-0.7-1.65-1.3-2.15-1.8c-0.6-0.667-1.066-1.3-1.4-1.9c-0.333-0.5-0.616-1.15-0.85-1.95c-0.167-0.767-0.25-1.483-0.25-2.15
				c0-1.3,0.317-2.65,0.95-4.05c0.333-0.7,0.684-1.284,1.05-1.75c0.4-0.534,0.866-1.017,1.4-1.45c1.466-1.2,3.233-1.8,5.3-1.8
				C154.477,6.7,156.326,7.167,158.26,8.1z M140.76,6.7v19.85c0,1.567-0.267,2.917-0.8,4.05c-0.534,1.066-1.4,2.05-2.6,2.95
				c-1.667,1.167-3.65,1.75-5.95,1.75c-2.633,0-4.85-0.65-6.65-1.95c-2.267-1.667-3.4-4.283-3.4-7.85V6.7h7.7v18.35
				c0,1.267,0.167,2.133,0.5,2.6c0.333,0.533,0.833,0.8,1.5,0.8c0.733,0,1.25-0.25,1.55-0.75c0.267-0.534,0.4-1.417,0.4-2.65V6.7
				H140.76z M117.36,6.7v19.5c0,1.667-0.15,3-0.45,4c-0.233,0.966-0.733,1.867-1.5,2.7c-1.4,1.6-3.467,2.4-6.2,2.4
				c-1.434,0-3.1-0.3-5-0.9v-7.65c0.867,1.133,1.883,1.7,3.05,1.7c1.6,0,2.4-1.184,2.4-3.55V6.7H117.36z M94.91,38.7l1.55,4.7
				c0.4,1.199,0.667,2.083,0.8,2.649c0.367,1.2,0.583,2.017,0.65,2.45l3-9.8h8.9L102.46,57v13.45h-8.6V57l-7.9-18.3H94.91z
				 M52.66,38.7c2.1,0,4.15,0.517,6.15,1.55v9.55c-0.7-1.1-1.5-1.95-2.4-2.55c-0.833-0.634-1.7-0.95-2.6-0.95
				c-0.633,0-1.183,0.184-1.65,0.55c-0.433,0.334-0.65,0.767-0.65,1.301c0,0.833,0.583,1.649,1.75,2.449l1.35,0.95
				c1.8,1.267,3.1,2.566,3.9,3.9c0.8,1.3,1.2,2.833,1.2,4.6c0,3-0.95,5.5-2.85,7.5c-1.934,1.934-4.35,2.9-7.25,2.9
				c-2.133,0-4.3-0.434-6.5-1.3V59.4c1.7,2.3,3.533,3.449,5.5,3.449c0.667,0,1.267-0.183,1.8-0.55c0.467-0.399,0.7-0.883,0.7-1.45
				c0-0.8-0.517-1.6-1.55-2.399l-1.4-1.05c-0.833-0.601-1.617-1.267-2.35-2c-0.633-0.634-1.183-1.317-1.65-2.051
				c-0.433-0.767-0.733-1.5-0.9-2.199c-0.167-0.634-0.25-1.434-0.25-2.4c0-1.533,0.333-3.033,1-4.5c0.4-0.8,0.8-1.467,1.2-2
				c0.4-0.533,0.917-1.067,1.55-1.6C48.426,39.35,50.393,38.7,52.66,38.7z M78.96,38.7l6.75,31.75h-8.9l-0.6-4h-5.8l-0.7,4h-8.9
				l7.65-31.75H78.96z M75.16,59.75l-1.6-13.35l-2,13.35H75.16z"/>
			
				<linearGradient id="SVGID_3_" gradientUnits="userSpaceOnUse" x1="-18.1675" y1="-236.8672" x2="-11.3594" y2="-236.8672" gradientTransform="matrix(-0.2974 0.9547 -0.9547 -0.2974 0.0123 -0.0095)">
				<stop  offset="0" style="stop-color:#FDF9E4"/>
				<stop  offset="0.4824" style="stop-color:#F2ECD4"/>
				<stop  offset="1" style="stop-color:#E2D9BE"/>
			</linearGradient>
			<path style="fill-rule:evenodd;clip-rule:evenodd;fill:url(#SVGID_3_);" d="M222.859,55.15c0.067-0.334,0.184-0.717,0.351-1.15
				c0.267-0.833,0.616-1.517,1.05-2.05l0.4-0.5c0.366-0.4,0.983-0.816,1.85-1.25c0.866,0.033,2.116,0.267,3.75,0.7l7.2,9.25
				c-0.233,0.033-0.4,0.033-0.5,0c-0.267-0.034-1.117-0.134-2.55-0.301c-1.7-0.267-3.467-0.683-5.301-1.25
				c-1.3-0.399-2.433-0.949-3.399-1.649c-1.4-0.967-2.15-1.483-2.25-1.55C223.193,55.233,222.993,55.15,222.859,55.15z"/>
			<path style="fill-rule:evenodd;clip-rule:evenodd;fill:#B6AE92;" d="M222.66,56.1c0.033-0.233,0.083-0.483,0.149-0.75V55.15h0.05
				c0.134,0,0.334,0.083,0.601,0.25c0.1,0.066,0.85,0.583,2.25,1.55c0.967,0.7,2.1,1.25,3.399,1.649
				c1.834,0.567,3.601,0.983,5.301,1.25c1.433,0.167,2.283,0.267,2.55,0.301c0.1,0.033,0.267,0.033,0.5,0l1.3,1.699
				c-0.066,0-0.134,0-0.2,0c-1.5,0-3.934-0.449-7.3-1.35c-1.566-0.4-3.066-0.967-4.5-1.7c-1.2-0.6-2.116-1.166-2.75-1.7
				C223.177,56.366,222.727,56.033,222.66,56.1z"/>
			<path style="fill-rule:evenodd;clip-rule:evenodd;fill:#99927A;" d="M238.76,61.85l0.55,0.65c-0.399,0.167-0.75,0.233-1.05,0.2
				c-0.333-0.033-1.15-0.184-2.45-0.45c-2.767-0.366-5.366-1.066-7.8-2.1c-1.167-0.5-2.283-1.101-3.35-1.801
				c-1.301-0.866-1.967-1.55-2-2.05v-0.2c0.066-0.066,0.517,0.267,1.35,1c0.634,0.534,1.55,1.101,2.75,1.7
				c1.434,0.733,2.934,1.3,4.5,1.7c3.366,0.9,5.8,1.35,7.3,1.35C238.626,61.85,238.693,61.85,238.76,61.85z"/>
			<path style="fill-rule:evenodd;clip-rule:evenodd;fill:#89836E;" d="M229.81,50.3l0.45,0.601c-1.634-0.434-2.884-0.667-3.75-0.7
				c-0.866,0.434-1.483,0.85-1.85,1.25c-1-0.767-1.351-1.283-1.051-1.55c0.667-0.601,2.534-0.517,5.601,0.25
				C229.41,50.184,229.609,50.233,229.81,50.3z"/>
		</g>
	</g>
	
		<linearGradient id="SVGID_4_" gradientUnits="userSpaceOnUse" x1="3.1641" y1="-145.9556" x2="72.8641" y2="-145.9556" gradientTransform="matrix(1.434720e-005 1 -1 -0.001 0.01 -0.0099)">
		<stop  offset="0" style="stop-color:#000000;stop-opacity:0.6941"/>
		<stop  offset="0.0078" style="stop-color:#020202;stop-opacity:0.6941"/>
		<stop  offset="0.1804" style="stop-color:#2F2C22;stop-opacity:0.6157"/>
		<stop  offset="0.3529" style="stop-color:#554F3D;stop-opacity:0.549"/>
		<stop  offset="0.5216" style="stop-color:#726A51;stop-opacity:0.498"/>
		<stop  offset="0.6863" style="stop-color:#877E60;stop-opacity:0.4667"/>
		<stop  offset="0.851" style="stop-color:#938969;stop-opacity:0.4471"/>
		<stop  offset="1" style="stop-color:#988D6C;stop-opacity:0.4392"/>
	</linearGradient>
	<path style="fill-rule:evenodd;clip-rule:evenodd;fill:url(#SVGID_4_);" d="M6.06,5.5c1.067-1.067,2.5-1.6,4.3-1.6h266.9
		c1.8,0,3.434,0.533,4.9,1.6c1.466,1.1,2.316,2.417,2.55,3.95c3.3,20.933,3.3,41.899,0,62.899c-0.233,1.534-1.084,2.834-2.55,3.9
		c-1.467,1.1-3.101,1.65-4.9,1.65H10.36c-1.8,0-3.233-0.551-4.3-1.65c-1.066-1.066-1.483-2.366-1.25-3.9
		c3.267-21,3.267-41.966,0-62.899C4.577,7.917,4.993,6.6,6.06,5.5z"/>
</g>
</svg>
