<?xml version="1.0" encoding="iso-8859-1"?>
<!-- Generator: Adobe Illustrator 16.0.0, SVG Export Plug-In . SVG Version: 6.00 Build 0)  -->
<!DOCTYPE svg PUBLIC "-//W3C//DTD SVG 1.1//EN" "http://www.w3.org/Graphics/SVG/1.1/DTD/svg11.dtd">
<svg version="1.1" id="FlashAICB" xmlns="http://www.w3.org/2000/svg" xmlns:xlink="http://www.w3.org/1999/xlink" x="0px" y="0px"
	 width="168.956px" height="77.783px" viewBox="0 0 168.956 77.783" style="enable-background:new 0 0 168.956 77.783;"
	 xml:space="preserve">
<g>
	<path style="fill-rule:evenodd;clip-rule:evenodd;fill:#515046;" d="M163.1,20.9c0-0.2,0-0.417,0-0.65
		c0-0.933-0.116-2.333-0.35-4.2c-0.267-1.833-0.4-3.233-0.4-4.2c0-0.833-0.083-2.1-0.25-3.8c-0.033-0.367-0.066-0.716-0.1-1.05V4.8
		V4.15c0-0.066,0-0.117,0-0.15c0.2,0.467,0.366,1.117,0.5,1.95c0.134,1.133,0.233,1.917,0.3,2.35c0.066,0.534,0.351,2.067,0.851,4.6
		c0.366,1.833,0.517,3.35,0.449,4.55c-0.033,0.7-0.316,1.716-0.85,3.05C163.184,20.633,163.134,20.767,163.1,20.9z M2.4,69.75
		c0.5,0.233,1.05,0.35,1.65,0.35H4.2c0.267,0.2,0.667,0.351,1.2,0.45c1.067,0.101,1.733,0.167,2,0.2c2.3,0.6,4.05,0.934,5.25,1
		c2.533,0.366,4.467,0.533,5.8,0.5c0.867-0.033,1.517-0.05,1.95-0.05c0.8-0.033,1.45-0.017,1.95,0.05
		c2.033,0.333,3.683,0.717,4.95,1.15c1,0.333,2.184,0.383,3.55,0.149c0.6-0.133,1.783-0.467,3.55-1C37.6,71.517,42,71,47.6,71
		c12.133-0.167,21.233-0.25,27.3-0.25c5.967-0.167,10.433-0.25,13.4-0.25c1.566,0,4.017,0.134,7.351,0.4
		c3.199,0.267,5.633,0.383,7.3,0.35c2.833,0,4.833-0.1,6-0.3c2.6-0.434,4.934-0.717,7-0.851h3.35c0.4,0.067,0.816,0.184,1.25,0.351
		c0.334,0.133,0.684,0.217,1.05,0.25c0.4,0,0.733,0.017,1,0.05c1.301,0.167,2.467,0.167,3.5,0c2.934-0.434,5.834-0.017,8.7,1.25
		c0.9,0.434,1.566,0.733,2,0.9c0.733,0.3,1.467,0.433,2.2,0.399c0.7-0.033,1.616-0.267,2.75-0.7c1.167-0.433,2.05-0.683,2.65-0.75
		c2.633-0.399,4.616-0.666,5.949-0.8c1.967-0.133,4.067-0.149,6.301-0.05c1.066,0.066,2.066,0.217,3,0.45
		c0.366,0.133,0.649,0.217,0.85,0.25c0.3,0.1,0.566,0.116,0.8,0.05c0.033-0.167,0.066-0.333,0.101-0.5
		c0.699-0.066,1.1-0.15,1.199-0.25c0.167-0.1,0.25-0.517,0.25-1.25c0-1.2,0.134-2.25,0.4-3.15c0.167-0.566,0.533-1.6,1.1-3.1
		c0.167-0.4,0.101-1.366-0.199-2.9c-0.267-1.466-0.284-2.416-0.051-2.85c0.2-0.333,0.184-0.9-0.05-1.7c-0.3-1-0.45-1.6-0.45-1.8
		c0-0.167,0.101-0.9,0.301-2.2c0.166-1,0.166-1.7,0-2.1c-0.267-0.767-0.367-1.8-0.301-3.101c0.067-1.633,0.067-2.683,0-3.149
		c-0.3-2.934-0.466-6.4-0.5-10.4c0.134,0.7,0.317,1.417,0.551,2.15c0.3,0.933,0.449,1.95,0.449,3.05c-0.033,0.433-0.05,0.767-0.05,1
		c-0.033,0.433-0.017,0.767,0.05,1c0.134,0.333,0.4,0.634,0.801,0.9c0.466,0.3,0.75,0.517,0.85,0.649
		c0.233,0.334,0.417,0.767,0.55,1.3c0.2,1.601,0.384,2.801,0.55,3.601c0.067,0.366,0.2,1.649,0.4,3.85
		c0.134,1.634,0.417,2.867,0.85,3.7c0.4,0.267,0.65,0.733,0.75,1.4c0.2,1.3,0.117,2.416-0.25,3.35c-0.166,0.5-0.616,1.134-1.35,1.9
		c-0.733,0.8-1.184,1.433-1.35,1.899c-0.034,0.134-0.051,0.733-0.051,1.8c0,2.934,0.067,4.817,0.2,5.65
		c0.367,2.866,0.45,4.95,0.25,6.25c-1.133,0.066-2.05-0.033-2.75-0.3c-0.767-0.3-2.166-0.617-4.2-0.95
		c-0.233-0.033-0.899-0.184-2-0.45c-0.767-0.2-1.449-0.3-2.05-0.3c-0.434,0-1.017-0.116-1.75-0.35c-0.8-0.2-1.399-0.317-1.8-0.351
		c-0.866-0.1-1.9-0.017-3.1,0.25c-0.4,0.101-1.117,0.2-2.15,0.3c-0.934,0.101-1.667,0.25-2.2,0.45c-0.566,0.2-1.133,0.566-1.7,1.101
		c-0.767,0.699-1.283,1.133-1.55,1.3c-0.566,0.333-1.267,0.416-2.1,0.25c-0.267-0.066-0.967-0.3-2.101-0.7
		c-1.166-0.4-2.35-1.134-3.55-2.2c-0.6-0.533-1-0.85-1.2-0.95c-0.366-0.233-0.833-0.366-1.399-0.399
		c-0.934-0.033-2.184,0.083-3.75,0.35c-1.733,0.267-2.967,0.417-3.7,0.45c-0.7,0-1.434-0.283-2.2-0.85
		c-0.899-0.634-1.583-1.017-2.05-1.15c-0.1-0.033-0.684-0.05-1.75-0.05c-4.066,0.1-6.566,0.2-7.5,0.3l-3.3,0.45
		c-3.566,0.666-6.017,1.35-7.351,2.05c-0.333,0.2-0.8,0.467-1.399,0.8c-0.533,0.233-1.05,0.283-1.55,0.15
		c-0.5-0.134-1.25-0.367-2.25-0.7c-0.934-0.167-2.15-0.6-3.65-1.3c-1.733-0.767-2.95-1.25-3.65-1.45c-0.8-0.2-2-0.3-3.6-0.3
		c-1.833,0-4.567-0.15-8.2-0.45c-3.833-0.233-8.833-0.267-15-0.1c-8.133,0.199-13.133,0.3-15,0.3c-3.433,0-5.867,0.267-7.3,0.8
		c-0.6,0.233-1.667,1.033-3.2,2.4c-1.233,1.1-2.433,1.633-3.6,1.6c-1.034-0.033-2.25-0.316-3.65-0.85
		c-0.6-0.267-1.733-0.801-3.4-1.601c-1.1-0.566-2.583-0.899-4.45-1c-1.034-0.033-2.567-0.083-4.6-0.149
		c-0.7-0.067-3.033-0.233-7-0.5C4.467,72.116,2.733,71.15,2.4,69.75z"/>
	<path style="fill-rule:evenodd;clip-rule:evenodd;fill:#3A3932;" d="M119.3,70.1H158c1.1,0,2.05-0.399,2.85-1.199
		c0.767-0.801,1.15-1.75,1.15-2.851V7c0.033,0.333,0.066,0.683,0.1,1.05c0.167,1.7,0.25,2.967,0.25,3.8c0,0.967,0.134,2.367,0.4,4.2
		c0.233,1.867,0.35,3.267,0.35,4.2c0,0.233,0,0.45,0,0.65c-0.033,4.9-0.05,8.6-0.05,11.1c0,0.433,0.017,0.867,0.05,1.3
		c0.034,4,0.2,7.467,0.5,10.4c0.067,0.467,0.067,1.517,0,3.149c-0.066,1.301,0.034,2.334,0.301,3.101c0.166,0.399,0.166,1.1,0,2.1
		c-0.2,1.3-0.301,2.033-0.301,2.2c0,0.2,0.15,0.8,0.45,1.8c0.233,0.8,0.25,1.367,0.05,1.7c-0.233,0.434-0.216,1.384,0.051,2.85
		c0.3,1.534,0.366,2.5,0.199,2.9c-0.566,1.5-0.933,2.533-1.1,3.1c-0.267,0.9-0.4,1.95-0.4,3.15c0,0.733-0.083,1.15-0.25,1.25
		c-0.1,0.1-0.5,0.184-1.199,0.25c-0.034,0.167-0.067,0.333-0.101,0.5c-0.233,0.066-0.5,0.05-0.8-0.05
		c-0.2-0.033-0.483-0.117-0.85-0.25c-0.934-0.233-1.934-0.384-3-0.45c-2.233-0.1-4.334-0.083-6.301,0.05
		c-1.333,0.134-3.316,0.4-5.949,0.8c-0.601,0.067-1.483,0.317-2.65,0.75c-1.134,0.434-2.05,0.667-2.75,0.7
		c-0.733,0.033-1.467-0.1-2.2-0.399c-0.434-0.167-1.1-0.467-2-0.9c-2.866-1.267-5.767-1.684-8.7-1.25
		c-1.033,0.167-2.199,0.167-3.5,0c-0.267-0.033-0.6-0.05-1-0.05c-0.366-0.033-0.716-0.117-1.05-0.25
		C120.116,70.283,119.7,70.167,119.3,70.1z M4.2,70.1h111.75c-2.066,0.134-4.4,0.417-7,0.851c-1.167,0.2-3.167,0.3-6,0.3
		c-1.667,0.033-4.101-0.083-7.3-0.35c-3.334-0.267-5.784-0.4-7.351-0.4c-2.967,0-7.433,0.083-13.4,0.25
		c-6.066,0-15.167,0.083-27.3,0.25c-5.6,0-10,0.517-13.2,1.55c-1.767,0.533-2.95,0.867-3.55,1c-1.367,0.233-2.55,0.184-3.55-0.149
		c-1.267-0.434-2.917-0.817-4.95-1.15c-0.5-0.066-1.15-0.083-1.95-0.05c-0.433,0-1.083,0.017-1.95,0.05
		c-1.333,0.033-3.267-0.134-5.8-0.5c-1.2-0.066-2.95-0.4-5.25-1c-0.267-0.033-0.933-0.1-2-0.2C4.867,70.45,4.467,70.3,4.2,70.1z"/>
	<path style="fill-rule:evenodd;clip-rule:evenodd;fill:#8A8E71;" d="M157.3,0.85H4.4H4.05c-1.1,0-2.05,0.4-2.85,1.2
		C0.433,2.783,0.033,3.7,0,4.8V4.15C0,3.017,0.4,2.033,1.2,1.2C2,0.4,2.95,0,4.05,0H158c1.1,0,2.05,0.4,2.85,1.2
		C161.583,2,161.967,2.933,162,4c0,0.033,0,0.083,0,0.15V4.8c-0.033-1.1-0.417-2.017-1.15-2.75c-0.8-0.8-1.75-1.2-2.85-1.2H157.3z"
		/>
	<path style="fill-rule:evenodd;clip-rule:evenodd;fill:#11120E;" d="M115.95,70.1H4.2H4.05c-0.6,0-1.15-0.116-1.65-0.35
		c-0.433-0.2-0.833-0.483-1.2-0.85C0.4,68.1,0,67.15,0,66.05V4.8c0.033-1.1,0.433-2.017,1.2-2.75c0.8-0.8,1.75-1.2,2.85-1.2H4.4
		c-1.066,0.033-1.967,0.433-2.7,1.2c-0.8,0.767-1.2,1.7-1.2,2.8V47.8v17.4c0,1.1,0.4,2.05,1.2,2.85c0.767,0.767,1.7,1.15,2.8,1.15
		h152.7c1.1,0,2.05-0.384,2.85-1.15c0.767-0.8,1.15-1.75,1.15-2.85V37.4V4.85c0-1.1-0.384-2.033-1.15-2.8
		c-0.767-0.767-1.684-1.167-2.75-1.2h0.7c1.1,0,2.05,0.4,2.85,1.2c0.733,0.733,1.117,1.65,1.15,2.75V7v59.05
		c0,1.101-0.384,2.05-1.15,2.851c-0.8,0.8-1.75,1.199-2.85,1.199h-38.7H115.95z M133.35,40.1c-0.366-0.366-0.55-0.816-0.55-1.35
		V35.8c0-0.533,0.184-0.983,0.55-1.35c0.334-0.4,0.75-0.6,1.25-0.6H145.4l0.449,0.5H134.95c-0.5,0-0.917,0.2-1.25,0.6
		c-0.367,0.367-0.55,0.816-0.55,1.35v2.95C133.15,39.55,133.217,39.833,133.35,40.1z M145,41.2h0.85l-3.05,3.3
		c-0.333,0.366-0.5,0.833-0.5,1.4c0,0.399,0.084,0.75,0.25,1.05l-0.149-0.2c-0.334-0.366-0.5-0.816-0.5-1.35
		c0-0.567,0.166-1.034,0.5-1.4L145,41.2z M142.55,30.75l-0.149-0.2c-0.334-0.367-0.5-0.816-0.5-1.35c0-0.567,0.166-1.034,0.5-1.4
		l1.899-2.1c0.367-0.367,0.8-0.55,1.3-0.55s0.917,0.184,1.25,0.55l9.351,10.15c0.133,0.133,0.233,0.267,0.3,0.4l-9.25-10.05
		c-0.333-0.367-0.75-0.55-1.25-0.55s-0.934,0.184-1.3,0.55l-1.9,2.1c-0.333,0.367-0.5,0.833-0.5,1.4
		C142.3,30.1,142.384,30.45,142.55,30.75z M127.55,30.05c-0.267-0.3-0.533-0.583-0.8-0.85c-2.366-2.367-5.2-3.55-8.5-3.55
		c-3.333,0-6.167,1.184-8.5,3.55c-2.333,2.333-3.5,5.15-3.5,8.45c0,2.534,0.684,4.784,2.05,6.75c-1.633-2.067-2.45-4.484-2.45-7.25
		c0-3.3,1.184-6.117,3.551-8.45c2.333-2.367,5.149-3.55,8.449-3.55c3.334,0,6.167,1.184,8.5,3.55
		C126.783,29.133,127.184,29.583,127.55,30.05z M100.65,30.65c-0.367-0.5-0.784-0.983-1.25-1.45c-2.334-2.367-5.167-3.55-8.5-3.55
		c-3.301,0-6.117,1.184-8.45,3.55c-2.367,2.333-3.55,5.15-3.55,8.45c0,2.633,0.733,4.95,2.2,6.95c-1.7-2.133-2.55-4.616-2.55-7.45
		c0-3.3,1.167-6.117,3.5-8.45c2.334-2.367,5.167-3.55,8.5-3.55c3.3,0,6.134,1.184,8.5,3.55
		C99.684,29.333,100.217,29.983,100.65,30.65z"/>
	<path style="fill-rule:evenodd;clip-rule:evenodd;fill:#131410;" d="M0.5,47.8L0.9,47c-0.033,0.667,0,1.6,0.1,2.8
		c0.1,1.367,0.15,2.3,0.15,2.8c0,1.034,0.1,2.067,0.3,3.101C1.583,56.267,1.6,57.066,1.5,58.1C1.4,59.2,1.383,60,1.45,60.5
		c0.3-0.066,0.517-0.233,0.65-0.5c0.066,0.366,0.117,1.033,0.15,2c0.033,0.866,0.117,1.533,0.25,2c0.933-0.3,1.5-1.017,1.7-2.15
		c0.433,0.267,0.733,0.733,0.9,1.4c-0.067,0.566-0.033,0.917,0.1,1.05c0.133,0.167,0.35,0.25,0.65,0.25
		c0.333-0.033,0.583-0.05,0.75-0.05c0.233,0.033,0.433,0.1,0.6,0.2c0.267,0.166,0.433,0.267,0.5,0.3c0.933,0.5,2.333,0.7,4.2,0.6
		c2.3-0.133,3.783-0.149,4.45-0.05c1.9,0.367,3.167,0.533,3.8,0.5c0.633-0.066,1.133-0.184,1.5-0.35
		c0.133-0.033,0.35-0.184,0.65-0.45c0.333-0.267,0.534-0.417,0.6-0.45c0.233-0.033,0.45,0.017,0.65,0.15
		c0.267,0.233,0.483,0.383,0.65,0.45c0.466,0.233,1.1,0.35,1.9,0.35h6.25c0.433,0.033,0.9-0.05,1.4-0.25
		c0.733-0.233,1.2-0.366,1.4-0.4c0.333-0.066,0.8-0.066,1.4,0c0.733,0.101,1.184,0.15,1.35,0.15c1-0.066,1.733-0.083,2.2-0.05
		c0.867,0.2,1.566,0.3,2.1,0.3c1.2-0.066,2.1-0.083,2.7-0.05l2,0.399c0.934,0.2,1.6,0.184,2-0.05c0.4-0.2,0.55-0.467,0.45-0.8
		c-0.167-0.467-0.233-0.783-0.2-0.95c1-0.1,2-0.1,3,0c-0.1,0.134-0.167,0.434-0.2,0.9c0.7,0.233,1.716,0.316,3.05,0.25
		c1.467-0.134,2.5-0.2,3.1-0.2c1.833-0.066,3.233-0.116,4.2-0.15c1.733-0.066,3.117-0.017,4.15,0.15
		c0.367,0.066,1.05,0.267,2.05,0.6c0.867,0.267,1.567,0.417,2.1,0.45c1.267-0.133,2.2-0.116,2.8,0.05
		c0.6,0.233,1.083,0.384,1.45,0.45c0.566,0.101,1.367,0.15,2.4,0.15c1.2,0.033,2,0.066,2.4,0.1c0.633,0.033,1.25-0.066,1.85-0.3
		c0.667-0.3,1.233-0.533,1.7-0.7c0.533-0.166,1.316-0.25,2.35-0.25c1.434,0.033,2.233,0.05,2.4,0.05c0.1,0,0.184-0.05,0.25-0.149
		c0.066-0.101,0.2-0.134,0.399-0.101c0.167,0.034,0.4,0.15,0.7,0.351s0.517,0.316,0.65,0.35c0.399,0.066,0.967,0.084,1.7,0.05
		C92.717,66.033,93.3,66,93.4,66h16.3c1.7,0,2.833-0.1,3.399-0.3c0.067,0,0.134-0.066,0.2-0.2c0.101-0.134,0.2-0.217,0.3-0.25
		c0.134-0.033,0.351-0.017,0.65,0.05c0.4,0.134,0.616,0.2,0.65,0.2c0.1,0,0.216-0.1,0.35-0.3s0.267-0.267,0.4-0.2
		c0.166,0.066,0.3,0.283,0.399,0.65c0.101,0.366,0.2,0.583,0.3,0.649c0.167,0.134,0.417,0.217,0.75,0.25
		c0.4-0.033,0.684-0.05,0.851-0.05c2.133,0,3.717-0.05,4.75-0.15c2.3-0.3,3.967-0.25,5,0.15c0.399,0.233,0.7,0.4,0.899,0.5
		c0.334,0.167,0.684,0.267,1.051,0.3c1.066,0,1.733-0.033,2-0.1c0.133-0.033,0.35-0.101,0.649-0.2c0.134-0.033,0.384-0.033,0.75,0
		c2.467,0.366,4.167,0.533,5.101,0.5c3.366,0.233,5.833,0.25,7.399,0.05c0.601-0.066,1.5-0.25,2.7-0.55
		c1.134-0.3,2.017-0.483,2.65-0.55c0.933,0.066,1.666,0.116,2.199,0.149c1,0.034,1.667-0.149,2-0.55c0.5-0.6,0.784-1.6,0.851-3
		c0.267-0.1,0.583-0.033,0.95,0.2c0.3,0.233,0.566,0.233,0.8,0s0.35-0.816,0.35-1.75c-0.033-0.467-0.066-1.033-0.1-1.7
		c0.033,0.2,0.149,0.351,0.35,0.45c0.233,0.1,0.5,0.1,0.8,0l0.25-1.25c-0.666-0.4-2.05-1.384-4.149-2.95
		c-1.733-1.333-2.767-2.017-3.101-2.05c-0.566-0.033-1.383,0.033-2.449,0.2c-1.867,0.166-4.233,0.233-7.101,0.2
		c-1.566-0.034-3.934-0.084-7.1-0.15c-2.467,0.033-6.217-0.05-11.25-0.25h-22.5c-2.134,0-5.316,0.083-9.55,0.25
		c-1.367,0-3.65-0.1-6.851-0.3c-2.9-0.167-5.183-0.217-6.85-0.15c0.3-0.2,0.8-0.316,1.5-0.35c0.7-0.066,1.183-0.184,1.45-0.351
		c0.133-0.066,0.267-0.199,0.4-0.399c0.167-0.2,0.284-0.334,0.35-0.4c0.067-0.066,0.233-0.116,0.5-0.149
		c0.233-0.034,0.4-0.15,0.5-0.351c0.333,0.233,0.667,0.3,1,0.2l0.25,0.25c0.5,0.267,1.116,0.434,1.85,0.5c0.066,0,0.717,0,1.95,0
		c2.467,0.366,4.316,0.45,5.55,0.25c2.533-0.434,4.25-0.85,5.15-1.25c0.933-0.333,1.633-0.6,2.1-0.8
		c0.8-0.367,1.384-0.783,1.75-1.25c0.566-0.967,0.95-1.45,1.15-1.45c0.133-0.033,0.383,0.116,0.75,0.45
		c0.466,0.366,0.716,0.566,0.75,0.6c1.267,0.634,2.517,1.134,3.75,1.5c1.399,0.467,2.466,0.816,3.199,1.05
		c0.834,0.267,2.25,0.4,4.25,0.4c2.867,0.134,4.551,0.184,5.051,0.15c1.767-0.134,3.35-0.617,4.75-1.45l3.949-2.5
		c0.7-0.4,1.367-0.634,2-0.7c0.601-0.033,1.084-0.066,1.45-0.1c0.733-0.034,1.2,0.017,1.4,0.149c0.267,0.167,0.483,0.517,0.649,1.05
		c0.2,0.534,0.45,0.917,0.75,1.15c0.667,0.3,1.167,0.65,1.5,1.05c0.067,0.101,0.134,0.3,0.2,0.601c0.033,0.3,0.134,0.5,0.3,0.6
		c0.134,0.066,0.334,0.1,0.601,0.1c0.333-0.066,0.55-0.1,0.649-0.1c0.567,0.1,0.983,0.167,1.25,0.2
		c0.467,0.066,0.884,0.083,1.25,0.05c1.2,0.167,2.051,0.184,2.551,0.05c0.166-0.033,0.416-0.149,0.75-0.35
		c0.3-0.2,0.55-0.316,0.75-0.351c0.267-0.066,0.533-0.05,0.8,0.051c0.3,0.1,0.55,0.149,0.75,0.149c0.333,0,0.916-0.233,1.75-0.7
		c0.8-0.433,1.6-1.05,2.399-1.85c0.867-0.967,1.551-1.717,2.051-2.25c1.6-1.533,2.583-2.5,2.949-2.9
		c1.667-1.966,3.034-4.283,4.101-6.95v27.8c0,1.1-0.384,2.05-1.15,2.85c-0.8,0.767-1.75,1.15-2.85,1.15H4.5
		c-1.1,0-2.033-0.384-2.8-1.15c-0.8-0.8-1.2-1.75-1.2-2.85V47.8z"/>
	<path style="fill-rule:evenodd;clip-rule:evenodd;fill:#69382B;" d="M100.65,30.65c1.5,2.033,2.25,4.367,2.25,7
		c0,3.333-1.167,6.167-3.5,8.5c-2.334,2.333-5.167,3.5-8.5,3.5c-3.301,0-6.117-1.167-8.45-3.5c-0.5-0.5-0.95-1.017-1.35-1.551
		c-1.467-2-2.2-4.316-2.2-6.95c0-3.3,1.184-6.117,3.55-8.45c2.333-2.367,5.149-3.55,8.45-3.55c3.333,0,6.166,1.184,8.5,3.55
		C99.866,29.667,100.283,30.15,100.65,30.65z M95.05,29.35h-8.3c-0.366,0-0.684,0.133-0.95,0.4c-0.267,0.233-0.399,0.533-0.399,0.9
		v9.4c0,0.367,0.133,0.667,0.399,0.9c0.267,0.267,0.584,0.399,0.95,0.399h8.3c0.367,0,0.684-0.133,0.95-0.399
		c0.267-0.233,0.4-0.533,0.4-0.9v-9.4c0-0.367-0.134-0.667-0.4-0.9C95.733,29.483,95.417,29.35,95.05,29.35z M94.55,30.6
		c0.5,0,0.75,0.233,0.75,0.7v2.6c0,0.5-0.25,0.75-0.75,0.75H91.3V30.6H94.55z M94.8,36.5c0.167,0.167,0.25,0.383,0.25,0.65
		c0,0.6-0.316,0.9-0.95,0.9c-0.633,0-0.949-0.3-0.949-0.9c0-0.267,0.083-0.483,0.25-0.65c0.199-0.2,0.433-0.3,0.699-0.3
		S94.6,36.3,94.8,36.5z M90.5,30.6v4.05h-3.25c-0.2,0-0.366-0.066-0.5-0.2c-0.167-0.167-0.25-0.35-0.25-0.55v-2.6
		c0-0.466,0.25-0.7,0.75-0.7H90.5z M87.7,36.2c0.267,0,0.5,0.1,0.7,0.3c0.199,0.167,0.3,0.383,0.3,0.65s-0.101,0.483-0.3,0.65
		c-0.2,0.167-0.434,0.25-0.7,0.25s-0.483-0.083-0.65-0.25c-0.2-0.2-0.3-0.417-0.3-0.65s0.1-0.45,0.3-0.65S87.467,36.2,87.7,36.2z
		 M88,42.4c0-0.101-0.066-0.217-0.2-0.351c-0.233-0.233-0.467-0.233-0.7,0L83.7,45.1c-0.233,0.267-0.25,0.5-0.05,0.7
		c0.233,0.233,0.484,0.233,0.75,0l0.699-0.6c0.034,0,0.067,0,0.101,0H96.6c0.067,0,0.134,0,0.2,0l0.65,0.6
		c0.233,0.233,0.467,0.233,0.7,0s0.233-0.467,0-0.7l-3.4-3.05c-0.233-0.233-0.483-0.233-0.75,0c-0.1,0.134-0.134,0.25-0.1,0.351H88z
		 M86.3,44.1l0.7-0.6h7.9l0.649,0.6H86.3z"/>
	<path style="fill-rule:evenodd;clip-rule:evenodd;fill:#F1EFCD;" d="M145.4,33.85l-2.601-2.8c-0.1-0.1-0.184-0.2-0.25-0.3
		c-0.166-0.3-0.25-0.65-0.25-1.05c0-0.567,0.167-1.034,0.5-1.4l1.9-2.1c0.366-0.367,0.8-0.55,1.3-0.55s0.917,0.184,1.25,0.55
		l9.25,10.05l0.1,0.1c0.4,0.433,0.567,0.9,0.5,1.4c0.034,0.533-0.133,1.017-0.5,1.45l-9.35,10.1c-0.333,0.4-0.75,0.601-1.25,0.601
		s-0.934-0.2-1.3-0.601l-1.9-2.05c-0.1-0.1-0.184-0.2-0.25-0.3c-0.166-0.3-0.25-0.65-0.25-1.05c0-0.567,0.167-1.034,0.5-1.4
		l3.05-3.3H145h-10.05c-0.5,0-0.917-0.2-1.25-0.601c-0.167-0.166-0.283-0.333-0.351-0.5c-0.133-0.266-0.199-0.55-0.199-0.85V36.3
		c0-0.533,0.183-0.983,0.55-1.35c0.333-0.4,0.75-0.6,1.25-0.6h10.899L145.4,33.85z M126.05,33.6h-5.25v12.5H116.4V33.6h-5.2v-2.9
		h14.85V33.6z M87.7,36.2c-0.233,0-0.45,0.1-0.65,0.3s-0.3,0.417-0.3,0.65s0.1,0.45,0.3,0.65c0.167,0.167,0.384,0.25,0.65,0.25
		s0.5-0.083,0.7-0.25c0.199-0.167,0.3-0.383,0.3-0.65s-0.101-0.483-0.3-0.65C88.2,36.3,87.967,36.2,87.7,36.2z M90.5,30.6h-3.25
		c-0.5,0-0.75,0.233-0.75,0.7v2.6c0,0.2,0.083,0.383,0.25,0.55c0.134,0.133,0.3,0.2,0.5,0.2h3.25V30.6z M94.8,36.5
		c-0.2-0.2-0.434-0.3-0.7-0.3s-0.5,0.1-0.699,0.3c-0.167,0.167-0.25,0.383-0.25,0.65c0,0.6,0.316,0.9,0.949,0.9
		c0.634,0,0.95-0.3,0.95-0.9C95.05,36.883,94.967,36.667,94.8,36.5z M94.55,30.6H91.3v4.05h3.25c0.5,0,0.75-0.25,0.75-0.75v-2.6
		C95.3,30.833,95.05,30.6,94.55,30.6z M95.05,29.35c0.367,0,0.684,0.133,0.95,0.4c0.267,0.233,0.4,0.533,0.4,0.9v9.4
		c0,0.367-0.134,0.667-0.4,0.9c-0.267,0.267-0.583,0.399-0.95,0.399h-8.3c-0.366,0-0.684-0.133-0.95-0.399
		c-0.267-0.233-0.399-0.533-0.399-0.9v-9.4c0-0.367,0.133-0.667,0.399-0.9c0.267-0.267,0.584-0.4,0.95-0.4H95.05z M88,42.4h5.9
		c-0.034-0.101,0-0.217,0.1-0.351c0.267-0.233,0.517-0.233,0.75,0l3.4,3.05c0.233,0.233,0.233,0.467,0,0.7s-0.467,0.233-0.7,0
		l-0.65-0.6c-0.066,0-0.133,0-0.2,0H85.2c-0.033,0-0.066,0-0.101,0L84.4,45.8c-0.267,0.233-0.517,0.233-0.75,0
		c-0.2-0.2-0.183-0.434,0.05-0.7l3.399-3.05c0.233-0.233,0.467-0.233,0.7,0C87.934,42.184,88,42.3,88,42.4z M86.3,44.1h9.25
		L94.9,43.5H87L86.3,44.1z M112.15,58.9c0.166-0.267,0.383-0.45,0.649-0.551c0.233-0.133,0.517-0.199,0.851-0.199
		c1.233,0,1.85,0.767,1.85,2.3v3.1h-1.65V60.65c0-0.801-0.283-1.2-0.85-1.2c-0.366,0-0.65,0.2-0.85,0.6L112.1,60.4v3.149h-1.649
		v-7.7h1.649V58.9H112.15z M120.7,59.1h2.649v1.351H120.7v1.75h2.95v1.35h-4.601v-7.3h4.45v1.35h-2.8V59.1z M104.85,58.15v1.55
		l-0.449-0.05c-0.667,0-1.051,0.283-1.15,0.85v3.05h-1.65l-0.05-5.3h1.4l0.05,1h0.05c0.267-0.733,0.75-1.1,1.45-1.1H104.85z
		 M106.05,58.95c0.566-0.533,1.316-0.8,2.25-0.8c0.566,0,1,0.066,1.3,0.199l-0.3,1.2c-0.399-0.1-0.7-0.149-0.899-0.149
		c-0.934,0-1.4,0.5-1.4,1.5c0,0.466,0.15,0.833,0.45,1.1c0.233,0.233,0.566,0.35,1,0.35c0.366,0,0.666-0.05,0.899-0.149l0.2,1.2
		c-0.333,0.166-0.816,0.25-1.45,0.25c-0.866,0-1.55-0.25-2.05-0.75c-0.5-0.467-0.75-1.117-0.75-1.95
		C105.3,60.15,105.55,59.483,106.05,58.95z M92.7,58.7c0.233,0.8,0.434,1.666,0.6,2.6h0.05l1.45-5.05h2.15l0.399,7.3h-1.6l-0.2-5.8
		l-1.7,5.65h-1.3L91.8,60.6c-0.3-0.966-0.517-1.916-0.649-2.85H91.1l-0.25,5.8h-1.5l0.45-7.3H92L92.7,58.7z M100.25,58.25v5.3h-1.6
		v-5.3H100.25z M98.6,56.8c0-0.566,0.284-0.85,0.851-0.85c0.533,0,0.833,0.283,0.899,0.85c0,0.533-0.3,0.8-0.899,0.8
		C98.884,57.6,98.6,57.333,98.6,56.8z M82.85,61.85c0,0.434,0.2,0.65,0.6,0.65c0.433,0,0.733-0.2,0.899-0.6V61.05
		C83.35,61.05,82.85,61.316,82.85,61.85z M85.95,60.4v1.85c0,0.667,0.033,1.1,0.1,1.3h-1.5L84.45,63H84.4
		c-0.334,0.434-0.833,0.65-1.5,0.65c-0.5,0-0.917-0.167-1.25-0.5c-0.3-0.301-0.45-0.667-0.45-1.101c0-1.366,1.033-2.05,3.1-2.05
		v-0.05c0-0.467-0.316-0.7-0.95-0.7c-0.5,0-0.983,0.134-1.45,0.4L81.6,58.6c0.533-0.3,1.217-0.449,2.05-0.449
		C85.184,58.15,85.95,58.9,85.95,60.4z M153.25,59.25c-0.434,0-0.65,0.15-0.65,0.45c0,0.233,0.284,0.434,0.851,0.6
		c0.934,0.334,1.416,0.884,1.45,1.65c0,0.5-0.2,0.916-0.601,1.25c-0.399,0.3-0.967,0.45-1.7,0.45c-0.699,0-1.267-0.134-1.699-0.4
		l0.3-1.15c0.399,0.267,0.866,0.4,1.399,0.4c0.467,0,0.7-0.15,0.7-0.45c0-0.233-0.25-0.434-0.75-0.6
		c-1.066-0.334-1.566-0.867-1.5-1.601c0-0.5,0.184-0.899,0.55-1.199c0.4-0.334,0.934-0.5,1.601-0.5c0.566,0,1.05,0.1,1.45,0.3
		l-0.25,1.1C153.9,59.35,153.517,59.25,153.25,59.25z M143.1,59.25c-0.633,0-0.983,0.35-1.05,1.05H144
		C144,59.6,143.7,59.25,143.1,59.25z M145.5,61.4h-3.4c0.034,0.666,0.517,1,1.45,1c0.601,0,1.101-0.067,1.5-0.2l0.2,1.1
		c-0.5,0.233-1.134,0.351-1.9,0.351c-0.899,0-1.6-0.25-2.1-0.75c-0.5-0.467-0.75-1.117-0.75-1.95c0-0.733,0.217-1.367,0.65-1.9
		c0.5-0.6,1.183-0.899,2.05-0.899c0.8,0,1.399,0.267,1.8,0.8c0.366,0.467,0.55,1.066,0.55,1.8L145.5,61.4z M149.95,58.45l-0.25,1.1
		c-0.5-0.2-0.884-0.3-1.15-0.3c-0.434,0-0.649,0.15-0.649,0.45c0,0.2,0.283,0.399,0.85,0.6c0.967,0.334,1.45,0.884,1.45,1.65
		c0,1.133-0.767,1.7-2.3,1.7c-0.7,0-1.267-0.134-1.7-0.4l0.3-1.15c0.4,0.267,0.866,0.4,1.4,0.4c0.466,0,0.699-0.15,0.699-0.45
		c0-0.233-0.25-0.434-0.75-0.6c-1-0.334-1.5-0.867-1.5-1.601c0-0.5,0.2-0.899,0.601-1.199c0.399-0.334,0.916-0.5,1.55-0.5
		C149.066,58.15,149.55,58.25,149.95,58.45z M132,60.25v1.35c0.167,0.534,0.5,0.801,1,0.801c0.733,0,1.1-0.5,1.1-1.5
		s-0.366-1.5-1.1-1.5C132.5,59.4,132.167,59.684,132,60.25z M135.75,60.85c0,0.9-0.25,1.601-0.75,2.101
		c-0.434,0.467-0.967,0.7-1.6,0.7c-0.634,0-1.101-0.2-1.4-0.601v2.601h-1.65l-0.05-7.4h1.45L131.8,59h0.05
		c0.367-0.566,0.95-0.85,1.75-0.85c0.601,0,1.101,0.233,1.5,0.699C135.533,59.35,135.75,60.017,135.75,60.85z M140.05,58.15v1.55
		l-0.45-0.05c-0.633,0-1,0.283-1.1,0.85l-0.05,0.35v2.7h-1.65l-0.05-5.3h1.4l0.1,1c0.267-0.733,0.75-1.1,1.45-1.1H140.05z
		 M126,58.25l0.95,1.7l0.899-1.7h1.75l-1.699,2.5l1.75,2.8H127.8l-0.95-1.75h-0.05l-0.899,1.75H124.1l1.801-2.7l-1.75-2.6H126z
		 M31.7,58.9c0.433-0.5,0.983-0.75,1.65-0.75c0.667,0,1.133,0.183,1.4,0.55V55.85h1.65l0.05,7.7H35l-0.05-0.8H34.9
		c-0.333,0.6-0.883,0.9-1.65,0.9c-0.633,0-1.167-0.25-1.6-0.75C31.217,62.4,31,61.75,31,60.95C31,60.083,31.233,59.4,31.7,58.9z
		 M32.65,60.9c0,0.966,0.367,1.449,1.1,1.449c0.533,0,0.867-0.267,1-0.8V60.2c-0.133-0.533-0.45-0.8-0.95-0.8
		C33.033,59.4,32.65,59.9,32.65,60.9z M39.35,55.85v7.7H37.7v-7.7H39.35z M23.05,58.9c0.5,0.5,0.75,1.149,0.75,1.949
		c0,0.9-0.283,1.601-0.85,2.101c-0.534,0.467-1.184,0.7-1.95,0.7s-1.4-0.233-1.9-0.7c-0.533-0.5-0.8-1.167-0.8-2
		c0-0.867,0.25-1.55,0.75-2.05s1.184-0.75,2.05-0.75C21.933,58.15,22.583,58.4,23.05,58.9z M21.05,59.3
		c-0.7,0-1.05,0.533-1.05,1.601c0,1.066,0.35,1.6,1.05,1.6c0.7,0,1.05-0.533,1.05-1.6C22.1,59.833,21.75,59.3,21.05,59.3z
		 M25.25,58.9c0.433-0.5,0.983-0.75,1.65-0.75c0.667,0,1.133,0.183,1.4,0.55h0.05V55.85h1.6l0.05,7.7h-1.45l-0.05-0.8h-0.05
		c-0.3,0.6-0.85,0.9-1.65,0.9c-0.633,0-1.167-0.25-1.6-0.75c-0.434-0.5-0.65-1.15-0.65-1.95C24.55,60.083,24.783,59.4,25.25,58.9z
		 M26.2,60.9c0,0.966,0.383,1.449,1.15,1.449c0.5,0,0.816-0.267,0.95-0.8l0.05-0.35v-0.7l-0.05-0.3c-0.133-0.533-0.45-0.8-0.95-0.8
		C26.583,59.4,26.2,59.9,26.2,60.9z M12.75,57.85c-0.4-0.199-0.967-0.3-1.7-0.3c-0.7,0-1.267,0.2-1.7,0.601
		c-0.467,0.399-0.7,0.983-0.7,1.75c0,0.733,0.217,1.316,0.65,1.75c0.4,0.433,0.95,0.649,1.65,0.649c0.333,0,0.6-0.033,0.8-0.1v-1.55
		H10.6V59.35h2.7V63.2c-0.9,0.267-1.7,0.399-2.4,0.399c-1.267,0-2.25-0.316-2.95-0.949C7.25,62.017,6.9,61.134,6.9,60
		c0-1.2,0.4-2.134,1.2-2.8c0.733-0.667,1.717-1,2.95-1c0.9,0,1.583,0.116,2.05,0.35L12.75,57.85z M16.05,59.25
		c0.233-0.733,0.7-1.1,1.4-1.1h0.35v1.55l-0.45-0.05c-0.633,0-1,0.283-1.1,0.85l-0.05,0.35v2.7h-1.6l-0.05-5.3h1.4l0.05,1H16.05z
		 M75.5,58.15c1.2,0,1.8,0.767,1.8,2.3v3.1h-1.6V60.65c0-0.801-0.267-1.2-0.8-1.2c-0.4,0-0.65,0.2-0.75,0.6l-0.05,0.4v3.1h-1.6v-3
		c0-0.733-0.25-1.1-0.75-1.1c-0.367,0-0.633,0.2-0.8,0.6l-0.05,0.4v3.1h-1.6l-0.05-5.3h1.4l0.05,0.7h0.05
		c0.3-0.533,0.833-0.8,1.6-0.8c0.7,0,1.183,0.3,1.45,0.899c0.167-0.267,0.4-0.483,0.7-0.649C74.767,58.233,75.1,58.15,75.5,58.15z
		 M80.2,55.85v7.7h-1.6v-7.7H80.2z M61.65,60.4v3.149H60v-7.7h1.65V58.9h0.05c0.167-0.267,0.383-0.45,0.65-0.551
		c0.167-0.133,0.45-0.199,0.85-0.199c1.2,0,1.8,0.767,1.8,2.3v3.1h-1.6V60.65c0-0.801-0.283-1.2-0.85-1.2
		c-0.367,0-0.65,0.2-0.85,0.6L61.65,60.4z M67.15,57.6c-0.566,0-0.85-0.267-0.85-0.8c0-0.566,0.284-0.85,0.85-0.85
		c0.533,0,0.833,0.283,0.9,0.85C68.05,57.333,67.75,57.6,67.15,57.6z M68,58.25v5.3h-1.65v-5.3H68z M54.85,56.8
		c0.5-0.434,1.167-0.649,2-0.649c0.7,0,1.316,0.116,1.85,0.35l-0.35,1.35c-0.467-0.233-0.983-0.35-1.55-0.35
		c-0.7,0-1.05,0.233-1.05,0.7c0,0.333,0.45,0.666,1.35,1c1.267,0.5,1.9,1.233,1.9,2.2c0,0.633-0.233,1.166-0.7,1.6
		c-0.533,0.434-1.283,0.65-2.25,0.65c-0.767,0-1.45-0.15-2.05-0.45l0.35-1.351c0.6,0.301,1.2,0.45,1.8,0.45
		c0.767,0,1.15-0.267,1.15-0.8c0-0.366-0.4-0.7-1.2-1c-1.333-0.5-2-1.217-2-2.15C54.1,57.717,54.35,57.2,54.85,56.8z M51.05,61.25
		h-2.8v-1.1h2.8V61.25z M43.05,58.15c0.8,0,1.4,0.267,1.8,0.8c0.367,0.467,0.55,1.066,0.55,1.8l-0.05,0.65h-3.4
		c0.033,0.666,0.533,1,1.5,1c0.566,0,1.05-0.067,1.45-0.2l0.2,1.1c-0.467,0.233-1.1,0.351-1.9,0.351c-0.9,0-1.583-0.25-2.05-0.75
		c-0.5-0.467-0.75-1.117-0.75-1.95c0-0.767,0.217-1.4,0.65-1.9C41.517,58.45,42.183,58.15,43.05,58.15z M42.95,59.25
		c-0.6,0-0.934,0.35-1,1.05h1.95C43.9,59.6,43.583,59.25,42.95,59.25z"/>
	<path style="fill-rule:evenodd;clip-rule:evenodd;fill:#58763E;" d="M126.05,33.6v-2.9H111.2v2.9h5.2v12.5h4.399V33.6H126.05z
		 M127.55,30.05c1.8,2.167,2.7,4.7,2.7,7.6c0,3.333-1.167,6.167-3.5,8.5c-2.366,2.333-5.2,3.5-8.5,3.5c-3.333,0-6.167-1.167-8.5-3.5
		c-0.566-0.567-1.05-1.15-1.45-1.75c-1.366-1.967-2.05-4.217-2.05-6.75c0-3.3,1.167-6.117,3.5-8.45c2.333-2.367,5.167-3.55,8.5-3.55
		c3.3,0,6.134,1.184,8.5,3.55C127.017,29.467,127.283,29.75,127.55,30.05z"/>
	<path style="fill-rule:evenodd;clip-rule:evenodd;fill:#FFFFFF;" d="M125.4,10.4c-0.434,0-0.784,0.167-1.051,0.5
		c-0.199,0.267-0.316,0.567-0.35,0.9h2.65C126.65,10.867,126.233,10.4,125.4,10.4z M127.95,10c0.5,0.667,0.75,1.483,0.75,2.45
		l-0.101,0.9H124c0.1,0.9,0.783,1.35,2.05,1.35c0.733,0,1.384-0.117,1.95-0.35l0.3,1.5c-0.733,0.3-1.6,0.45-2.6,0.45
		c-1.2,0-2.134-0.316-2.8-0.95c-0.667-0.667-1-1.55-1-2.65c0-1,0.3-1.85,0.899-2.55c0.667-0.833,1.566-1.25,2.7-1.25
		C126.566,8.9,127.384,9.267,127.95,10z M116.1,11.1c-0.3,0.367-0.449,0.867-0.449,1.5c0,0.566,0.116,1.017,0.35,1.35
		c0.267,0.367,0.634,0.55,1.1,0.55c0.601,0,0.983-0.3,1.15-0.9l0.1-0.6v-1.05l-0.05-0.4c-0.166-0.633-0.566-0.95-1.2-0.95
		C116.7,10.6,116.366,10.767,116.1,11.1z M118.7,9.05h1.899l-0.05,6.1c0,1.5-0.366,2.567-1.1,3.2
		c-0.667,0.566-1.617,0.85-2.851,0.85c-1.066,0-1.933-0.184-2.6-0.55l0.45-1.65c0.6,0.333,1.283,0.5,2.05,0.5
		c1.233,0,1.85-0.617,1.85-1.85V15.2c-0.433,0.6-1.083,0.9-1.949,0.9c-0.867,0-1.584-0.317-2.15-0.95s-0.85-1.467-0.85-2.5
		c0-1.133,0.316-2.05,0.949-2.75c0.634-0.667,1.4-1,2.301-1c0.8,0,1.449,0.333,1.949,1L118.7,9.05z M101.35,11.35
		c0-0.633-0.433-0.95-1.3-0.95c-0.733,0-1.399,0.184-2,0.55l-0.399-1.4C98.384,9.117,99.3,8.9,100.4,8.9
		c2.1,0,3.149,1.017,3.149,3.05v2.5c0,0.9,0.033,1.466,0.101,1.7h-2l-0.101-0.7h-0.05c-0.5,0.6-1.184,0.9-2.05,0.9
		c-0.7,0-1.267-0.217-1.7-0.65c-0.4-0.434-0.6-0.95-0.6-1.55c0-1.8,1.399-2.7,4.199-2.7V11.35z M108.7,10.7
		c-0.533,0-0.9,0.267-1.101,0.8c-0.066,0.1-0.1,0.3-0.1,0.6v4.05h-2.2l-0.05-7.1h1.9l0.1,1h0.05c0.5-0.767,1.233-1.15,2.2-1.15
		c0.767,0,1.366,0.25,1.8,0.75c0.5,0.533,0.75,1.3,0.75,2.3v4.2h-2.2v-3.9C109.85,11.217,109.467,10.7,108.7,10.7z M101.4,13.6v-0.8
		c-1.367,0-2.051,0.383-2.051,1.15c0,0.566,0.284,0.85,0.851,0.85s0.95-0.283,1.149-0.85L101.4,13.6z M94.5,12.1l-0.05,0.45v3.6
		h-2.2l-0.05-7.1H94.1l0.051,1.35h0.1c0.333-1,0.967-1.5,1.9-1.5L96.6,8.95V11L96,10.95C95.167,10.95,94.667,11.333,94.5,12.1z
		 M84.25,11.3c0,1,0.283,1.784,0.85,2.35c0.567,0.567,1.317,0.85,2.25,0.85c0.567,0,0.917-0.05,1.051-0.15V12.3h-1.5v-1.75h3.649
		v5.15c-1.133,0.4-2.217,0.6-3.25,0.6c-1.7,0-3.033-0.45-4-1.35c-0.933-0.867-1.4-2.05-1.4-3.55c0.033-1.6,0.567-2.85,1.6-3.75
		s2.366-1.35,4-1.35c1.233,0,2.15,0.15,2.75,0.45l-0.5,1.8c-0.6-0.3-1.35-0.45-2.25-0.45c-0.967,0-1.733,0.267-2.3,0.8
		C84.566,9.467,84.25,10.267,84.25,11.3z M76.1,11.85C77.367,12.283,78,13,78,14c0,0.7-0.25,1.267-0.75,1.7
		c-0.567,0.433-1.333,0.65-2.3,0.65c-0.867,0-1.633-0.184-2.3-0.55l0.4-1.55c0.6,0.367,1.233,0.55,1.9,0.55
		c0.633,0,0.95-0.2,0.95-0.6c0-0.3-0.35-0.583-1.05-0.85c-1.367-0.467-2.05-1.167-2.05-2.1c0-0.667,0.267-1.233,0.8-1.7
		c0.533-0.433,1.233-0.65,2.1-0.65c0.733,0,1.4,0.133,2,0.4l-0.4,1.55c-0.4-0.267-0.9-0.4-1.5-0.4c-0.566,0-0.85,0.183-0.85,0.55
		C74.95,11.267,75.333,11.55,76.1,11.85z M66.75,9.05v3.85c0,1.1,0.367,1.65,1.1,1.65c0.566,0,0.933-0.25,1.1-0.75
		c0.066-0.1,0.1-0.267,0.1-0.5V9.05h2.2l0.1,7.1H69.4l-0.1-1h-0.05c-0.433,0.8-1.167,1.2-2.2,1.2c-1.667,0-2.5-1.033-2.5-3.1v-4.2
		H66.75z M62.05,15.45c-0.7,0.6-1.566,0.9-2.6,0.9c-1.067,0-1.95-0.333-2.65-1c-0.7-0.667-1.05-1.567-1.05-2.7S56.1,10.6,56.8,9.9
		c0.7-0.667,1.633-1,2.8-1c1.066,0,1.933,0.333,2.6,1c0.667,0.7,1,1.583,1,2.65C63.2,13.783,62.817,14.75,62.05,15.45z M54.4,9.05
		v7.1h-2.2v-7.1H54.4z M51.05,11l-0.6-0.05c-0.867,0-1.383,0.383-1.55,1.15v4.05h-2.25l-0.05-7.1h1.9l0.1,1.35h0.05
		c0.333-1,0.967-1.5,1.9-1.5l0.5,0.05V11z M52.15,7.1c0-0.733,0.383-1.1,1.15-1.1c0.733,0,1.133,0.367,1.2,1.1
		c0,0.733-0.4,1.1-1.2,1.1c-0.333,0-0.617-0.1-0.85-0.3C52.25,7.667,52.15,7.4,52.15,7.1z M42.7,11.35c0-0.633-0.434-0.95-1.3-0.95
		c-0.733,0-1.383,0.184-1.95,0.55l-0.4-1.4C39.783,9.117,40.7,8.9,41.8,8.9c2.067,0,3.1,1.017,3.1,3.05l0.1,4.2h-1.95l-0.15-0.7
		h-0.05c-0.434,0.6-1.117,0.9-2.05,0.9c-0.667,0-1.216-0.217-1.65-0.65c-0.4-0.434-0.6-0.95-0.6-1.55c0-1.8,1.383-2.7,4.15-2.7
		V11.35z M41.6,14.8c0.566,0,0.95-0.283,1.15-0.85V12.8c-1.367,0-2.05,0.383-2.05,1.15C40.7,14.517,41,14.8,41.6,14.8z M59.5,14.75
		c0.933,0,1.4-0.717,1.4-2.15c0-1.4-0.467-2.1-1.4-2.1c-0.967,0-1.45,0.7-1.45,2.1C58.05,14.033,58.533,14.75,59.5,14.75z
		 M34.95,11.55c-0.167-0.633-0.567-0.95-1.2-0.95c-0.4,0-0.733,0.167-1,0.5c-0.3,0.367-0.45,0.867-0.45,1.5
		c0,0.533,0.133,0.983,0.4,1.35c0.267,0.367,0.617,0.55,1.05,0.55c0.633,0,1.033-0.3,1.2-0.9L35,11.95L34.95,11.55z M35.3,9.9
		l0.05-0.85h1.9l-0.05,6.1c0,1.533-0.367,2.6-1.1,3.2c-0.667,0.566-1.617,0.85-2.85,0.85c-1.033,0-1.883-0.184-2.55-0.55L31.15,17
		c0.6,0.333,1.283,0.5,2.05,0.5c1.233,0,1.85-0.617,1.85-1.85V15.2H35c-0.4,0.6-1.033,0.9-1.9,0.9s-1.583-0.317-2.15-0.95
		c-0.567-0.633-0.85-1.467-0.85-2.5c0-1.133,0.316-2.05,0.95-2.75c0.6-0.667,1.35-1,2.25-1c0.867,0,1.517,0.333,1.95,1H35.3z
		 M21.15,10.95c-0.833,0-1.333,0.383-1.5,1.15l-0.05,0.45v3.6h-2.2l-0.05-7.1h1.9l0.05,1.35h0.1c0.333-1,0.967-1.5,1.9-1.5
		l0.45,0.05V11L21.15,10.95z M24.5,11.8h2.6c0-0.933-0.417-1.4-1.25-1.4c-0.4,0-0.733,0.167-1,0.5
		C24.65,11.167,24.533,11.467,24.5,11.8z M28.45,10c0.466,0.633,0.7,1.45,0.7,2.45l-0.05,0.9h-4.6c0.033,0.433,0.25,0.767,0.65,1
		c0.367,0.233,0.817,0.35,1.35,0.35c0.767,0,1.433-0.117,2-0.35l0.25,1.5c-0.7,0.3-1.55,0.45-2.55,0.45c-1.2,0-2.133-0.316-2.8-0.95
		c-0.667-0.667-1-1.55-1-2.65c0-1,0.283-1.85,0.85-2.55C23.917,9.317,24.833,8.9,26,8.9C27.067,8.9,27.883,9.267,28.45,10z
		 M12.65,8.1c-0.967,0-1.733,0.267-2.3,0.8C9.717,9.467,9.4,10.267,9.4,11.3c0,1,0.283,1.784,0.85,2.35
		c0.567,0.567,1.317,0.85,2.25,0.85c0.567,0,0.917-0.05,1.05-0.15V12.3h-1.5v-1.75h3.65v5.15c-1.133,0.4-2.233,0.6-3.3,0.6
		c-1.667,0-2.983-0.45-3.95-1.35c-0.934-0.867-1.4-2.05-1.4-3.55c0.034-1.6,0.567-2.85,1.6-3.75s2.367-1.35,4-1.35
		c1.267,0,2.167,0.15,2.7,0.45l-0.45,1.8C14.233,8.25,13.483,8.1,12.65,8.1z"/>
	
		<radialGradient id="SVGID_1_" cx="80.8501" cy="-2.2998" r="85.3375" gradientTransform="matrix(1 0 0 -1 0 -4.5996)" gradientUnits="userSpaceOnUse">
		<stop  offset="0" style="stop-color:#3E4234"/>
		<stop  offset="1" style="stop-color:#1B1C16"/>
	</radialGradient>
	<path style="fill-rule:evenodd;clip-rule:evenodd;fill:url(#SVGID_1_);" d="M4.4,0.85h152.9c1.066,0.033,1.983,0.433,2.75,1.2
		c0.767,0.767,1.15,1.7,1.15,2.8V37.4c-1.066,2.667-2.434,4.984-4.101,6.95c-0.366,0.4-1.35,1.367-2.949,2.9
		c-0.5,0.533-1.184,1.283-2.051,2.25c-0.8,0.8-1.6,1.417-2.399,1.85c-0.834,0.467-1.417,0.7-1.75,0.7c-0.2,0-0.45-0.05-0.75-0.149
		c-0.267-0.101-0.533-0.117-0.8-0.051c-0.2,0.034-0.45,0.15-0.75,0.351c-0.334,0.2-0.584,0.316-0.75,0.35
		c-0.5,0.134-1.351,0.117-2.551-0.05c-0.366,0.033-0.783,0.017-1.25-0.05c-0.267-0.033-0.683-0.101-1.25-0.2
		c-0.1,0-0.316,0.033-0.649,0.1c-0.267,0-0.467-0.033-0.601-0.1c-0.166-0.1-0.267-0.3-0.3-0.6c-0.066-0.301-0.133-0.5-0.2-0.601
		c-0.333-0.399-0.833-0.75-1.5-1.05c-0.3-0.233-0.55-0.616-0.75-1.15c-0.166-0.533-0.383-0.883-0.649-1.05
		c-0.2-0.133-0.667-0.184-1.4-0.149c-0.366,0.033-0.85,0.066-1.45,0.1c-0.633,0.066-1.3,0.3-2,0.7l-3.949,2.5
		c-1.4,0.833-2.983,1.316-4.75,1.45c-0.5,0.033-2.184-0.017-5.051-0.15c-2,0-3.416-0.134-4.25-0.4
		c-0.733-0.233-1.8-0.583-3.199-1.05c-1.233-0.366-2.483-0.866-3.75-1.5c-0.034-0.033-0.284-0.233-0.75-0.6
		c-0.367-0.334-0.617-0.483-0.75-0.45c-0.2,0-0.584,0.483-1.15,1.45c-0.366,0.467-0.95,0.883-1.75,1.25
		c-0.467,0.2-1.167,0.467-2.1,0.8c-0.9,0.4-2.617,0.816-5.15,1.25c-1.233,0.2-3.083,0.116-5.55-0.25c-1.233,0-1.884,0-1.95,0
		c-0.733-0.066-1.35-0.233-1.85-0.5L84.15,52c-0.333,0.1-0.667,0.033-1-0.2c-0.1,0.2-0.267,0.316-0.5,0.351
		c-0.267,0.033-0.433,0.083-0.5,0.149c-0.066,0.066-0.183,0.2-0.35,0.4c-0.133,0.2-0.267,0.333-0.4,0.399
		c-0.267,0.167-0.75,0.284-1.45,0.351c-0.7,0.033-1.2,0.149-1.5,0.35c1.667-0.066,3.95-0.017,6.85,0.15c3.2,0.2,5.483,0.3,6.851,0.3
		c4.233-0.167,7.416-0.25,9.55-0.25h22.5c5.033,0.2,8.783,0.283,11.25,0.25c3.166,0.066,5.533,0.116,7.1,0.15
		c2.867,0.033,5.233-0.034,7.101-0.2c1.066-0.167,1.883-0.233,2.449-0.2c0.334,0.033,1.367,0.717,3.101,2.05
		c2.1,1.566,3.483,2.55,4.149,2.95l-0.25,1.25c-0.3,0.1-0.566,0.1-0.8,0c-0.2-0.1-0.316-0.25-0.35-0.45
		c0.033,0.667,0.066,1.233,0.1,1.7c0,0.934-0.116,1.517-0.35,1.75s-0.5,0.233-0.8,0c-0.367-0.233-0.684-0.3-0.95-0.2
		c-0.066,1.4-0.351,2.4-0.851,3c-0.333,0.4-1,0.584-2,0.55c-0.533-0.033-1.267-0.083-2.199-0.149c-0.634,0.066-1.517,0.25-2.65,0.55
		c-1.2,0.3-2.1,0.483-2.7,0.55c-1.566,0.2-4.033,0.184-7.399-0.05c-0.934,0.033-2.634-0.134-5.101-0.5
		c-0.366-0.033-0.616-0.033-0.75,0c-0.3,0.1-0.517,0.167-0.649,0.2c-0.267,0.066-0.934,0.1-2,0.1
		c-0.367-0.033-0.717-0.133-1.051-0.3c-0.199-0.1-0.5-0.267-0.899-0.5c-1.033-0.4-2.7-0.45-5-0.15
		c-1.033,0.101-2.617,0.15-4.75,0.15c-0.167,0-0.45,0.017-0.851,0.05c-0.333-0.033-0.583-0.116-0.75-0.25
		c-0.1-0.066-0.199-0.283-0.3-0.649c-0.1-0.367-0.233-0.584-0.399-0.65c-0.134-0.066-0.267,0-0.4,0.2s-0.25,0.3-0.35,0.3
		c-0.034,0-0.25-0.066-0.65-0.2c-0.3-0.066-0.517-0.083-0.65-0.05c-0.1,0.033-0.199,0.116-0.3,0.25c-0.066,0.134-0.133,0.2-0.2,0.2
		c-0.566,0.2-1.699,0.3-3.399,0.3H93.4c-0.101,0-0.684,0.033-1.75,0.1c-0.733,0.034-1.301,0.017-1.7-0.05
		C89.816,66.017,89.6,65.9,89.3,65.7s-0.533-0.316-0.7-0.351c-0.199-0.033-0.333,0-0.399,0.101c-0.066,0.1-0.15,0.149-0.25,0.149
		c-0.167,0-0.967-0.017-2.4-0.05c-1.033,0-1.816,0.084-2.35,0.25c-0.467,0.167-1.034,0.4-1.7,0.7c-0.6,0.233-1.217,0.333-1.85,0.3
		c-0.4-0.033-1.2-0.066-2.4-0.1c-1.033,0-1.833-0.05-2.4-0.15c-0.367-0.066-0.85-0.217-1.45-0.45c-0.6-0.166-1.533-0.183-2.8-0.05
		c-0.533-0.033-1.233-0.184-2.1-0.45c-1-0.333-1.683-0.533-2.05-0.6c-1.034-0.167-2.417-0.217-4.15-0.15
		c-0.966,0.034-2.367,0.084-4.2,0.15c-0.6,0-1.633,0.066-3.1,0.2c-1.333,0.066-2.35-0.017-3.05-0.25c0.033-0.467,0.1-0.767,0.2-0.9
		c-1-0.1-2-0.1-3,0c-0.033,0.167,0.033,0.483,0.2,0.95c0.1,0.333-0.05,0.6-0.45,0.8c-0.4,0.233-1.066,0.25-2,0.05l-2-0.399
		c-0.6-0.033-1.5-0.017-2.7,0.05c-0.534,0-1.233-0.1-2.1-0.3c-0.467-0.033-1.2-0.017-2.2,0.05c-0.167,0-0.617-0.05-1.35-0.15
		c-0.6-0.066-1.066-0.066-1.4,0c-0.2,0.034-0.667,0.167-1.4,0.4c-0.5,0.2-0.967,0.283-1.4,0.25H26.1c-0.8,0-1.434-0.116-1.9-0.35
		c-0.167-0.067-0.383-0.217-0.65-0.45c-0.2-0.134-0.417-0.184-0.65-0.15c-0.066,0.033-0.267,0.184-0.6,0.45
		c-0.3,0.267-0.517,0.417-0.65,0.45c-0.367,0.166-0.867,0.283-1.5,0.35c-0.633,0.033-1.9-0.133-3.8-0.5
		c-0.667-0.1-2.15-0.083-4.45,0.05C10.033,65.7,8.633,65.5,7.7,65c-0.067-0.033-0.233-0.134-0.5-0.3
		c-0.167-0.101-0.367-0.167-0.6-0.2c-0.167,0-0.417,0.017-0.75,0.05c-0.3,0-0.517-0.083-0.65-0.25
		c-0.133-0.133-0.167-0.483-0.1-1.05c-0.167-0.667-0.467-1.134-0.9-1.4C4,62.983,3.433,63.7,2.5,64c-0.133-0.467-0.217-1.134-0.25-2
		c-0.033-0.967-0.083-1.634-0.15-2c-0.133,0.267-0.35,0.434-0.65,0.5C1.383,60,1.4,59.2,1.5,58.1c0.1-1.033,0.083-1.833-0.05-2.399
		c-0.2-1.033-0.3-2.066-0.3-3.101c0-0.5-0.05-1.433-0.15-2.8c-0.1-1.2-0.133-2.133-0.1-2.8l-0.4,0.8V4.85c0-1.1,0.4-2.033,1.2-2.8
		C2.433,1.283,3.333,0.883,4.4,0.85z M127.95,10c-0.566-0.733-1.384-1.1-2.45-1.1c-1.134,0-2.033,0.417-2.7,1.25
		c-0.6,0.7-0.899,1.55-0.899,2.55c0,1.1,0.333,1.983,1,2.65c0.666,0.633,1.6,0.95,2.8,0.95c1,0,1.866-0.15,2.6-0.45l-0.3-1.5
		c-0.566,0.233-1.217,0.35-1.95,0.35c-1.267,0-1.95-0.45-2.05-1.35h4.6l0.101-0.9C128.7,11.483,128.45,10.667,127.95,10z
		 M125.4,10.4c0.833,0,1.25,0.467,1.25,1.4H124c0.033-0.333,0.15-0.633,0.35-0.9C124.616,10.567,124.967,10.4,125.4,10.4z
		 M142.55,30.75c0.066,0.1,0.15,0.2,0.25,0.3l2.601,2.8H134.6c-0.5,0-0.916,0.2-1.25,0.6c-0.366,0.367-0.55,0.816-0.55,1.35v2.95
		c0,0.533,0.184,0.983,0.55,1.35c0.067,0.167,0.184,0.334,0.351,0.5c0.333,0.4,0.75,0.601,1.25,0.601H145l-2.6,2.8
		c-0.334,0.366-0.5,0.833-0.5,1.4c0,0.533,0.166,0.983,0.5,1.35l0.149,0.2c0.066,0.1,0.15,0.2,0.25,0.3l1.9,2.05
		c0.366,0.4,0.8,0.601,1.3,0.601s0.917-0.2,1.25-0.601l9.35-10.1c0.367-0.434,0.534-0.917,0.5-1.45c0.067-0.5-0.1-0.967-0.5-1.4
		l-0.1-0.1c-0.066-0.133-0.167-0.267-0.3-0.4L146.85,25.7c-0.333-0.367-0.75-0.55-1.25-0.55s-0.933,0.184-1.3,0.55l-1.899,2.1
		c-0.334,0.367-0.5,0.833-0.5,1.4c0,0.533,0.166,0.983,0.5,1.35L142.55,30.75z M108.3,44.4c0.4,0.6,0.884,1.183,1.45,1.75
		c2.333,2.333,5.167,3.5,8.5,3.5c3.3,0,6.134-1.167,8.5-3.5c2.333-2.334,3.5-5.167,3.5-8.5c0-2.9-0.9-5.433-2.7-7.6
		c-0.366-0.466-0.767-0.917-1.2-1.35c-2.333-2.367-5.166-3.55-8.5-3.55c-3.3,0-6.116,1.184-8.449,3.55
		c-2.367,2.333-3.551,5.15-3.551,8.45C105.85,39.917,106.667,42.333,108.3,44.4z M84.25,11.3c0-1.033,0.316-1.833,0.95-2.4
		c0.566-0.533,1.333-0.8,2.3-0.8c0.9,0,1.65,0.15,2.25,0.45l0.5-1.8c-0.6-0.3-1.517-0.45-2.75-0.45c-1.634,0-2.967,0.45-4,1.35
		s-1.567,2.15-1.6,3.75c0,1.5,0.467,2.684,1.4,3.55c0.967,0.9,2.3,1.35,4,1.35c1.033,0,2.117-0.2,3.25-0.6v-5.15H86.9v1.75h1.5v2.05
		c-0.134,0.1-0.483,0.15-1.051,0.15c-0.933,0-1.683-0.283-2.25-0.85C84.533,13.083,84.25,12.3,84.25,11.3z M94.5,12.1
		c0.167-0.767,0.667-1.15,1.5-1.15L96.6,11V8.95L96.15,8.9c-0.934,0-1.567,0.5-1.9,1.5h-0.1L94.1,9.05H92.2l0.05,7.1h2.2v-3.6
		L94.5,12.1z M101.4,13.6l-0.051,0.35c-0.199,0.566-0.583,0.85-1.149,0.85s-0.851-0.283-0.851-0.85c0-0.767,0.684-1.15,2.051-1.15
		V13.6z M108.7,10.7c0.767,0,1.149,0.517,1.149,1.55v3.9h2.2v-4.2c0-1-0.25-1.767-0.75-2.3c-0.434-0.5-1.033-0.75-1.8-0.75
		c-0.967,0-1.7,0.383-2.2,1.15h-0.05l-0.1-1h-1.9l0.05,7.1h2.2V12.1c0-0.3,0.033-0.5,0.1-0.6C107.8,10.967,108.167,10.7,108.7,10.7z
		 M101.35,11.35v0.1c-2.8,0-4.199,0.9-4.199,2.7c0,0.6,0.199,1.117,0.6,1.55c0.434,0.433,1,0.65,1.7,0.65c0.866,0,1.55-0.3,2.05-0.9
		h0.05l0.101,0.7h2c-0.067-0.233-0.101-0.8-0.101-1.7v-2.5c0-2.034-1.05-3.05-3.149-3.05c-1.101,0-2.017,0.217-2.75,0.65l0.399,1.4
		c0.601-0.367,1.267-0.55,2-0.55C100.917,10.4,101.35,10.717,101.35,11.35z M118.7,9.05L118.6,9.9c-0.5-0.667-1.149-1-1.949-1
		c-0.9,0-1.667,0.333-2.301,1c-0.633,0.7-0.949,1.617-0.949,2.75c0,1.033,0.283,1.867,0.85,2.5s1.283,0.95,2.15,0.95
		c0.866,0,1.517-0.3,1.949-0.9v0.45c0,1.233-0.616,1.85-1.85,1.85c-0.767,0-1.45-0.167-2.05-0.5L114,18.65
		c0.667,0.367,1.533,0.55,2.6,0.55c1.233,0,2.184-0.284,2.851-0.85c0.733-0.633,1.1-1.7,1.1-3.2l0.05-6.1H118.7z M116.1,11.1
		c0.267-0.333,0.601-0.5,1-0.5c0.634,0,1.034,0.316,1.2,0.95l0.05,0.4V13l-0.1,0.6c-0.167,0.6-0.55,0.9-1.15,0.9
		c-0.466,0-0.833-0.183-1.1-0.55c-0.233-0.333-0.35-0.784-0.35-1.35C115.65,11.967,115.8,11.467,116.1,11.1z M81.1,44.6
		c0.4,0.534,0.85,1.051,1.35,1.551c2.333,2.333,5.149,3.5,8.45,3.5c3.333,0,6.166-1.167,8.5-3.5c2.333-2.334,3.5-5.167,3.5-8.5
		c0-2.633-0.75-4.967-2.25-7c-0.434-0.667-0.967-1.316-1.601-1.95c-2.366-2.367-5.2-3.55-8.5-3.55c-3.333,0-6.166,1.184-8.5,3.55
		c-2.333,2.333-3.5,5.15-3.5,8.45C78.55,39.983,79.4,42.467,81.1,44.6z M126,58.25h-1.85l1.75,2.6l-1.801,2.7h1.801l0.899-1.75h0.05
		l0.95,1.75h1.851l-1.75-2.8l1.699-2.5h-1.75l-0.899,1.7L126,58.25z M140.05,58.15h-0.35c-0.7,0-1.184,0.366-1.45,1.1l-0.1-1h-1.4
		l0.05,5.3h1.65v-2.7l0.05-0.35c0.1-0.566,0.467-0.85,1.1-0.85l0.45,0.05V58.15z M135.75,60.85c0-0.833-0.217-1.5-0.65-2
		c-0.399-0.466-0.899-0.699-1.5-0.699c-0.8,0-1.383,0.283-1.75,0.85h-0.05l-0.05-0.75h-1.45l0.05,7.4H132V63.05
		c0.3,0.4,0.767,0.601,1.4,0.601c0.633,0,1.166-0.233,1.6-0.7C135.5,62.45,135.75,61.75,135.75,60.85z M132,60.25
		c0.167-0.566,0.5-0.85,1-0.85c0.733,0,1.1,0.5,1.1,1.5s-0.366,1.5-1.1,1.5c-0.5,0-0.833-0.267-1-0.801V60.25z M149.95,58.45
		c-0.4-0.2-0.884-0.3-1.45-0.3c-0.634,0-1.15,0.166-1.55,0.5c-0.4,0.3-0.601,0.699-0.601,1.199c0,0.733,0.5,1.267,1.5,1.601
		c0.5,0.166,0.75,0.366,0.75,0.6c0,0.3-0.233,0.45-0.699,0.45c-0.534,0-1-0.134-1.4-0.4l-0.3,1.15c0.434,0.267,1,0.4,1.7,0.4
		c1.533,0,2.3-0.567,2.3-1.7c0-0.767-0.483-1.316-1.45-1.65c-0.566-0.2-0.85-0.399-0.85-0.6c0-0.3,0.216-0.45,0.649-0.45
		c0.267,0,0.65,0.1,1.15,0.3L149.95,58.45z M145.5,61.4l0.05-0.65c0-0.733-0.184-1.333-0.55-1.8c-0.4-0.533-1-0.8-1.8-0.8
		c-0.867,0-1.55,0.3-2.05,0.899c-0.434,0.533-0.65,1.167-0.65,1.9c0,0.833,0.25,1.483,0.75,1.95c0.5,0.5,1.2,0.75,2.1,0.75
		c0.767,0,1.4-0.117,1.9-0.351l-0.2-1.1c-0.399,0.133-0.899,0.2-1.5,0.2c-0.934,0-1.416-0.334-1.45-1H145.5z M143.1,59.25
		c0.601,0,0.9,0.35,0.9,1.05h-1.95C142.116,59.6,142.467,59.25,143.1,59.25z M153.25,59.25c0.267,0,0.65,0.1,1.15,0.3l0.25-1.1
		c-0.4-0.2-0.884-0.3-1.45-0.3c-0.667,0-1.2,0.166-1.601,0.5c-0.366,0.3-0.55,0.699-0.55,1.199c-0.066,0.733,0.434,1.267,1.5,1.601
		c0.5,0.166,0.75,0.366,0.75,0.6c0,0.3-0.233,0.45-0.7,0.45c-0.533,0-1-0.134-1.399-0.4l-0.3,1.15c0.433,0.267,1,0.4,1.699,0.4
		c0.733,0,1.301-0.15,1.7-0.45c0.4-0.334,0.601-0.75,0.601-1.25c-0.034-0.767-0.517-1.316-1.45-1.65
		c-0.566-0.166-0.851-0.366-0.851-0.6C152.6,59.4,152.816,59.25,153.25,59.25z M85.95,60.4c0-1.5-0.767-2.25-2.3-2.25
		c-0.833,0-1.517,0.149-2.05,0.449l0.3,1.051c0.467-0.267,0.95-0.4,1.45-0.4c0.633,0,0.95,0.233,0.95,0.7V60
		c-2.066,0-3.1,0.684-3.1,2.05c0,0.434,0.15,0.8,0.45,1.101c0.333,0.333,0.75,0.5,1.25,0.5c0.667,0,1.167-0.217,1.5-0.65h0.05
		l0.1,0.55h1.5c-0.066-0.2-0.1-0.633-0.1-1.3V60.4z M82.85,61.85c0-0.533,0.5-0.8,1.5-0.8V61.9c-0.166,0.399-0.466,0.6-0.899,0.6
		C83.05,62.5,82.85,62.283,82.85,61.85z M98.6,56.8c0,0.533,0.284,0.8,0.851,0.8c0.6,0,0.899-0.267,0.899-0.8
		c-0.066-0.566-0.366-0.85-0.899-0.85C98.884,55.95,98.6,56.233,98.6,56.8z M100.25,58.25h-1.6v5.3h1.6V58.25z M92.7,58.7L92,56.25
		h-2.2l-0.45,7.3h1.5l0.25-5.8h0.051c0.133,0.934,0.35,1.884,0.649,2.85l0.75,2.801h1.3l1.7-5.65l0.2,5.8h1.6l-0.399-7.3H94.8
		l-1.45,5.05H93.3C93.134,60.366,92.934,59.5,92.7,58.7z M106.05,58.95c-0.5,0.533-0.75,1.2-0.75,2c0,0.833,0.25,1.483,0.75,1.95
		c0.5,0.5,1.184,0.75,2.05,0.75c0.634,0,1.117-0.084,1.45-0.25l-0.2-1.2c-0.233,0.1-0.533,0.149-0.899,0.149
		c-0.434,0-0.767-0.116-1-0.35c-0.3-0.267-0.45-0.634-0.45-1.1c0-1,0.467-1.5,1.4-1.5c0.199,0,0.5,0.05,0.899,0.149l0.3-1.2
		c-0.3-0.133-0.733-0.199-1.3-0.199C107.366,58.15,106.616,58.417,106.05,58.95z M104.85,58.15h-0.35c-0.7,0-1.184,0.366-1.45,1.1
		H103l-0.05-1h-1.4l0.05,5.3h1.65V60.5c0.1-0.566,0.483-0.85,1.15-0.85l0.449,0.05V58.15z M120.7,59.1v-1.5h2.8v-1.35h-4.45v7.3
		h4.601V62.2h-2.95v-1.75h2.649V59.1H120.7z M112.15,58.9H112.1V55.85h-1.649v7.7h1.649V60.4l0.051-0.351
		c0.199-0.399,0.483-0.6,0.85-0.6c0.566,0,0.85,0.399,0.85,1.2v2.899h1.65v-3.1c0-1.533-0.616-2.3-1.85-2.3
		c-0.334,0-0.617,0.066-0.851,0.199C112.533,58.45,112.316,58.634,112.15,58.9z M12.65,8.1c0.833,0,1.583,0.15,2.25,0.45l0.45-1.8
		c-0.533-0.3-1.434-0.45-2.7-0.45c-1.633,0-2.967,0.45-4,1.35S7.083,9.8,7.05,11.4c0,1.5,0.467,2.684,1.4,3.55
		c0.966,0.9,2.283,1.35,3.95,1.35c1.067,0,2.167-0.2,3.3-0.6v-5.15h-3.65v1.75h1.5v2.05c-0.133,0.1-0.483,0.15-1.05,0.15
		c-0.933,0-1.683-0.283-2.25-0.85C9.683,13.083,9.4,12.3,9.4,11.3c0-1.033,0.317-1.833,0.95-2.4C10.917,8.367,11.683,8.1,12.65,8.1z
		 M28.45,10C27.883,9.267,27.067,8.9,26,8.9c-1.167,0-2.083,0.417-2.75,1.25c-0.567,0.7-0.85,1.55-0.85,2.55
		c0,1.1,0.333,1.983,1,2.65c0.667,0.633,1.6,0.95,2.8,0.95c1,0,1.85-0.15,2.55-0.45l-0.25-1.5c-0.567,0.233-1.233,0.35-2,0.35
		c-0.533,0-0.983-0.117-1.35-0.35c-0.4-0.233-0.617-0.567-0.65-1h4.6l0.05-0.9C29.15,11.45,28.917,10.633,28.45,10z M24.5,11.8
		c0.033-0.333,0.15-0.633,0.35-0.9c0.267-0.333,0.6-0.5,1-0.5c0.833,0,1.25,0.467,1.25,1.4H24.5z M21.15,10.95l0.6,0.05V8.95
		L21.3,8.9c-0.933,0-1.566,0.5-1.9,1.5h-0.1l-0.05-1.35h-1.9l0.05,7.1h2.2v-3.6l0.05-0.45C19.817,11.333,20.317,10.95,21.15,10.95z
		 M35.3,9.9h-0.05c-0.433-0.667-1.083-1-1.95-1c-0.9,0-1.65,0.333-2.25,1c-0.633,0.7-0.95,1.617-0.95,2.75
		c0,1.033,0.283,1.867,0.85,2.5c0.566,0.633,1.283,0.95,2.15,0.95s1.5-0.3,1.9-0.9h0.05v0.45c0,1.233-0.617,1.85-1.85,1.85
		c-0.767,0-1.45-0.167-2.05-0.5l-0.45,1.65c0.667,0.367,1.517,0.55,2.55,0.55c1.233,0,2.183-0.284,2.85-0.85
		c0.733-0.6,1.1-1.667,1.1-3.2l0.05-6.1h-1.9L35.3,9.9z M34.95,11.55l0.05,0.4l-0.05,1.65c-0.167,0.6-0.567,0.9-1.2,0.9
		c-0.433,0-0.783-0.183-1.05-0.55c-0.267-0.367-0.4-0.817-0.4-1.35c0-0.633,0.15-1.133,0.45-1.5c0.267-0.333,0.6-0.5,1-0.5
		C34.383,10.6,34.783,10.917,34.95,11.55z M59.5,14.75c-0.967,0-1.45-0.717-1.45-2.15c0-1.4,0.483-2.1,1.45-2.1
		c0.933,0,1.4,0.7,1.4,2.1C60.9,14.033,60.433,14.75,59.5,14.75z M41.6,14.8c-0.6,0-0.9-0.283-0.9-0.85
		c0-0.767,0.683-1.15,2.05-1.15v1.15C42.55,14.517,42.167,14.8,41.6,14.8z M42.7,11.35v0.1c-2.767,0-4.15,0.9-4.15,2.7
		c0,0.6,0.2,1.117,0.6,1.55c0.434,0.433,0.983,0.65,1.65,0.65c0.934,0,1.617-0.3,2.05-0.9h0.05l0.15,0.7H45l-0.1-4.2
		c0-2.034-1.033-3.05-3.1-3.05c-1.1,0-2.017,0.217-2.75,0.65l0.4,1.4c0.566-0.367,1.216-0.55,1.95-0.55
		C42.267,10.4,42.7,10.717,42.7,11.35z M52.15,7.1c0,0.3,0.1,0.566,0.3,0.8c0.233,0.2,0.517,0.3,0.85,0.3c0.8,0,1.2-0.367,1.2-1.1
		C54.433,6.367,54.033,6,53.3,6C52.533,6,52.15,6.367,52.15,7.1z M51.05,11V8.95l-0.5-0.05c-0.933,0-1.566,0.5-1.9,1.5H48.6
		l-0.1-1.35h-1.9l0.05,7.1h2.25V12.1c0.167-0.767,0.684-1.15,1.55-1.15L51.05,11z M54.4,9.05h-2.2v7.1h2.2V9.05z M62.05,15.45
		c0.767-0.7,1.15-1.667,1.15-2.9c0-1.066-0.333-1.95-1-2.65c-0.667-0.667-1.534-1-2.6-1c-1.167,0-2.1,0.333-2.8,1
		c-0.7,0.7-1.05,1.617-1.05,2.75s0.35,2.033,1.05,2.7c0.7,0.667,1.583,1,2.65,1C60.483,16.35,61.35,16.05,62.05,15.45z M66.75,9.05
		h-2.2v4.2c0,2.067,0.833,3.1,2.5,3.1c1.034,0,1.767-0.4,2.2-1.2h0.05l0.1,1h1.95l-0.1-7.1h-2.2v4.25c0,0.233-0.033,0.4-0.1,0.5
		c-0.167,0.5-0.534,0.75-1.1,0.75c-0.733,0-1.1-0.55-1.1-1.65V9.05z M76.1,11.85c-0.767-0.3-1.15-0.583-1.15-0.85
		c0-0.367,0.283-0.55,0.85-0.55c0.6,0,1.1,0.133,1.5,0.4l0.4-1.55c-0.6-0.267-1.267-0.4-2-0.4c-0.867,0-1.567,0.217-2.1,0.65
		c-0.533,0.467-0.8,1.034-0.8,1.7c0,0.933,0.684,1.633,2.05,2.1c0.7,0.267,1.05,0.55,1.05,0.85c0,0.4-0.316,0.6-0.95,0.6
		c-0.667,0-1.3-0.183-1.9-0.55l-0.4,1.55c0.667,0.367,1.434,0.55,2.3,0.55c0.966,0,1.733-0.217,2.3-0.65c0.5-0.434,0.75-1,0.75-1.7
		C78,13,77.367,12.283,76.1,11.85z M42.95,59.25c0.633,0,0.95,0.35,0.95,1.05h-1.95C42.017,59.6,42.35,59.25,42.95,59.25z
		 M43.05,58.15c-0.867,0-1.533,0.3-2,0.899c-0.433,0.5-0.65,1.134-0.65,1.9c0,0.833,0.25,1.483,0.75,1.95
		c0.467,0.5,1.15,0.75,2.05,0.75c0.8,0,1.433-0.117,1.9-0.351l-0.2-1.1c-0.4,0.133-0.883,0.2-1.45,0.2c-0.967,0-1.467-0.334-1.5-1
		h3.4l0.05-0.65c0-0.733-0.183-1.333-0.55-1.8C44.45,58.417,43.85,58.15,43.05,58.15z M51.05,61.25v-1.1h-2.8v1.1H51.05z
		 M54.85,56.8c-0.5,0.4-0.75,0.917-0.75,1.55c0,0.934,0.667,1.65,2,2.15c0.8,0.3,1.2,0.634,1.2,1c0,0.533-0.383,0.8-1.15,0.8
		c-0.6,0-1.2-0.149-1.8-0.45L54,63.2c0.6,0.3,1.283,0.45,2.05,0.45c0.967,0,1.717-0.217,2.25-0.65c0.467-0.434,0.7-0.967,0.7-1.6
		c0-0.967-0.633-1.7-1.9-2.2c-0.9-0.334-1.35-0.667-1.35-1c0-0.467,0.35-0.7,1.05-0.7c0.567,0,1.083,0.116,1.55,0.35l0.35-1.35
		c-0.534-0.233-1.15-0.35-1.85-0.35C56.017,56.15,55.35,56.366,54.85,56.8z M68,58.25h-1.65v5.3H68V58.25z M67.15,57.6
		c0.6,0,0.9-0.267,0.9-0.8c-0.066-0.566-0.367-0.85-0.9-0.85c-0.566,0-0.85,0.283-0.85,0.85C66.3,57.333,66.583,57.6,67.15,57.6z
		 M61.65,60.4l0.05-0.351c0.2-0.399,0.483-0.6,0.85-0.6c0.567,0,0.85,0.399,0.85,1.2v2.899H65v-3.1c0-1.533-0.6-2.3-1.8-2.3
		c-0.4,0-0.684,0.066-0.85,0.199c-0.267,0.101-0.483,0.284-0.65,0.551h-0.05V55.85H60v7.7h1.65V60.4z M80.2,55.85h-1.6v7.7h1.6
		V55.85z M75.5,58.15c-0.4,0-0.733,0.083-1,0.25c-0.3,0.166-0.533,0.383-0.7,0.649c-0.267-0.6-0.75-0.899-1.45-0.899
		c-0.767,0-1.3,0.267-1.6,0.8H70.7l-0.05-0.7h-1.4l0.05,5.3h1.6v-3.1l0.05-0.4c0.167-0.399,0.433-0.6,0.8-0.6
		c0.5,0,0.75,0.366,0.75,1.1v3h1.6v-3.1l0.05-0.4c0.1-0.399,0.35-0.6,0.75-0.6c0.533,0,0.8,0.399,0.8,1.2v2.899h1.6v-3.1
		C77.3,58.917,76.7,58.15,75.5,58.15z M16.05,59.25H16l-0.05-1h-1.4l0.05,5.3h1.6v-2.7l0.05-0.35c0.1-0.566,0.467-0.85,1.1-0.85
		l0.45,0.05v-1.55h-0.35C16.75,58.15,16.283,58.517,16.05,59.25z M12.75,57.85l0.35-1.3c-0.467-0.233-1.15-0.35-2.05-0.35
		c-1.233,0-2.216,0.333-2.95,1c-0.8,0.666-1.2,1.6-1.2,2.8c0,1.134,0.35,2.017,1.05,2.65c0.7,0.633,1.683,0.949,2.95,0.949
		c0.7,0,1.5-0.133,2.4-0.399V59.35h-2.7v1.301h1.15v1.55c-0.2,0.066-0.467,0.1-0.8,0.1c-0.7,0-1.25-0.217-1.65-0.649
		c-0.433-0.434-0.65-1.017-0.65-1.75c0-0.767,0.233-1.351,0.7-1.75c0.433-0.4,1-0.601,1.7-0.601
		C11.783,57.55,12.35,57.65,12.75,57.85z M26.2,60.9c0-1,0.383-1.5,1.15-1.5c0.5,0,0.816,0.267,0.95,0.8l0.05,0.3v0.7l-0.05,0.35
		c-0.133,0.533-0.45,0.8-0.95,0.8C26.583,62.35,26.2,61.866,26.2,60.9z M25.25,58.9c-0.467,0.5-0.7,1.183-0.7,2.05
		c0,0.8,0.217,1.45,0.65,1.95c0.433,0.5,0.966,0.75,1.6,0.75c0.8,0,1.35-0.301,1.65-0.9h0.05l0.05,0.8H30l-0.05-7.7h-1.6V58.7H28.3
		c-0.267-0.367-0.733-0.55-1.4-0.55C26.233,58.15,25.683,58.4,25.25,58.9z M21.05,59.3c0.7,0,1.05,0.533,1.05,1.601
		c0,1.066-0.35,1.6-1.05,1.6c-0.7,0-1.05-0.533-1.05-1.6C20,59.833,20.35,59.3,21.05,59.3z M23.05,58.9
		c-0.466-0.5-1.117-0.75-1.95-0.75c-0.867,0-1.55,0.25-2.05,0.75s-0.75,1.183-0.75,2.05c0,0.833,0.267,1.5,0.8,2
		c0.5,0.467,1.133,0.7,1.9,0.7s1.417-0.233,1.95-0.7c0.566-0.5,0.85-1.2,0.85-2.101C23.8,60.05,23.55,59.4,23.05,58.9z M39.35,55.85
		H37.7v7.7h1.65V55.85z M32.65,60.9c0-1,0.383-1.5,1.15-1.5c0.5,0,0.817,0.267,0.95,0.8v1.35c-0.133,0.533-0.467,0.8-1,0.8
		C33.017,62.35,32.65,61.866,32.65,60.9z M31.7,58.9c-0.467,0.5-0.7,1.183-0.7,2.05c0,0.8,0.217,1.45,0.65,1.95
		c0.434,0.5,0.967,0.75,1.6,0.75c0.767,0,1.317-0.301,1.65-0.9h0.05l0.05,0.8h1.45l-0.05-7.7h-1.65V58.7
		c-0.267-0.367-0.733-0.55-1.4-0.55C32.683,58.15,32.133,58.4,31.7,58.9z"/>
</g>
</svg>
