<?xml version="1.0" encoding="iso-8859-1"?>
<!-- Generator: Adobe Illustrator 16.0.0, SVG Export Plug-In . SVG Version: 6.00 Build 0)  -->
<!DOCTYPE svg PUBLIC "-//W3C//DTD SVG 1.1//EN" "http://www.w3.org/Graphics/SVG/1.1/DTD/svg11.dtd">
<svg version="1.1" id="Layer_1" xmlns="http://www.w3.org/2000/svg" xmlns:xlink="http://www.w3.org/1999/xlink" x="0px" y="0px"
	 width="168.934px" height="77.733px" viewBox="0 0 168.934 77.733" style="enable-background:new 0 0 168.934 77.733;"
	 xml:space="preserve">
<g>
	<path style="fill-rule:evenodd;clip-rule:evenodd;fill:#11120E;" d="M115.75,70.05H4.25h-0.2c-0.6,0-1.15-0.116-1.65-0.35
		c-0.433-0.2-0.833-0.483-1.2-0.851L1.15,68.8c-0.033-0.033-0.066-0.066-0.1-0.1C0.35,67.934,0,67.033,0,66V4.8
		c0.033-1.1,0.433-2.017,1.2-2.75c0.8-0.8,1.75-1.2,2.85-1.2H4.4C3.333,0.883,2.433,1.267,1.7,2C0.9,2.767,0.5,3.717,0.5,4.85V47.7
		V65.1c0,1.101,0.4,2.051,1.2,2.851c0.033,0.033,0.083,0.083,0.15,0.149L2.3,68.45c0.267,0.2,0.567,0.35,0.9,0.45L4.25,69.1H4.3
		c0.067,0,0.133,0,0.2,0h152.7c1.1,0,2.05-0.383,2.85-1.149c0.767-0.8,1.15-1.75,1.15-2.851V37.4V4.85c0-0.934-0.267-1.75-0.8-2.45
		c-0.101-0.133-0.217-0.267-0.351-0.4c-0.767-0.733-1.684-1.117-2.75-1.15h0.7c1.1,0,2.05,0.4,2.85,1.2c0.467,0.467,0.801,1,1,1.6
		c0.093,0.34,0.144,0.698,0.15,1.075V7v59c0,1.1-0.384,2.05-1.15,2.85c-0.8,0.801-1.75,1.2-2.85,1.2h-38.6H115.75z M127.5,30
		c-0.233-0.3-0.483-0.583-0.75-0.85c-2.366-2.333-5.2-3.5-8.5-3.5c-3.333,0-6.167,1.167-8.5,3.5c-2.333,2.333-3.5,5.167-3.5,8.5
		c0,2.466,0.65,4.667,1.95,6.6c-1.566-2.066-2.351-4.433-2.351-7.1c0-3.333,1.184-6.167,3.551-8.5c2.333-2.333,5.149-3.5,8.449-3.5
		c3.334,0,6.167,1.167,8.5,3.5C126.783,29.083,127.167,29.533,127.5,30z M133.35,40.1c-0.366-0.399-0.55-0.866-0.55-1.399v-2.95
		c0-0.533,0.184-0.983,0.55-1.35c0.334-0.4,0.75-0.6,1.25-0.6H145.4l0.449,0.5H134.95c-0.5,0-0.917,0.2-1.25,0.6
		c-0.367,0.367-0.55,0.817-0.55,1.35v2.95C133.15,39.533,133.217,39.833,133.35,40.1z M145,41.15h0.85l-3.05,3.25
		c-0.333,0.366-0.5,0.833-0.5,1.399c0,0.4,0.101,0.75,0.3,1.05L142.4,46.65c-0.334-0.367-0.5-0.817-0.5-1.351
		c0-0.566,0.166-1.033,0.5-1.399L145,41.15z M142.55,30.7l-0.149-0.2c-0.334-0.367-0.5-0.817-0.5-1.35c0-0.566,0.166-1.033,0.5-1.4
		l1.899-2.05c0.367-0.4,0.8-0.6,1.3-0.6s0.917,0.2,1.25,0.6l9.351,10.1c0.133,0.133,0.233,0.267,0.3,0.4l-9.25-10
		c-0.333-0.4-0.75-0.6-1.25-0.6s-0.934,0.2-1.3,0.6l-1.9,2.05c-0.333,0.367-0.5,0.833-0.5,1.4C142.3,30.05,142.384,30.4,142.55,30.7
		z M100.65,30.6c-0.367-0.5-0.784-0.983-1.25-1.45c-2.334-2.333-5.167-3.5-8.5-3.5c-3.301,0-6.117,1.167-8.45,3.5
		c-2.367,2.333-3.55,5.167-3.55,8.5c0,2.633,0.783,4.984,2.35,7.05c-1.8-2.134-2.7-4.65-2.7-7.55c0-3.333,1.167-6.167,3.5-8.5
		c2.334-2.333,5.167-3.5,8.5-3.5c3.3,0,6.134,1.167,8.5,3.5C99.65,29.25,100.184,29.9,100.65,30.6z"/>
	<path style="fill-rule:evenodd;clip-rule:evenodd;fill:#515046;" d="M162,4.725V4.1c0-0.033,0-0.067,0-0.1
		c0.2,0.467,0.366,1.117,0.5,1.95c0.134,1.133,0.233,1.917,0.3,2.35c0.066,0.5,0.351,2.017,0.851,4.55
		c0.366,1.833,0.517,3.35,0.449,4.55c-0.033,0.7-0.316,1.717-0.85,3.05c-0.066,0.133-0.116,0.267-0.15,0.4c0-0.2,0-0.4,0-0.6
		c0-0.933-0.116-2.333-0.35-4.2c-0.267-1.867-0.4-3.283-0.4-4.25c0-0.833-0.083-2.083-0.25-3.75c-0.033-0.367-0.066-0.716-0.1-1.05
		V4.725z M2.4,69.7c0.5,0.233,1.05,0.35,1.65,0.35h0.2c0.267,0.167,0.65,0.3,1.15,0.4c1.067,0.133,1.733,0.217,2,0.25
		c2.3,0.566,4.05,0.899,5.25,1c2.533,0.333,4.467,0.5,5.8,0.5c0.867-0.033,1.517-0.05,1.95-0.05c0.8-0.034,1.45-0.017,1.95,0.05
		c1.667,0.2,3.316,0.566,4.95,1.1c1,0.367,2.184,0.417,3.55,0.15c0.533-0.101,1.717-0.434,3.55-1c3.233-1,7.633-1.5,13.2-1.5
		c12.133-0.167,21.233-0.25,27.3-0.25c5.967-0.167,10.433-0.25,13.4-0.25c1.634,0,4.084,0.133,7.351,0.399
		c3.233,0.233,5.666,0.351,7.3,0.351c2.633,0,4.633-0.101,6-0.3c2.333-0.434,4.6-0.717,6.8-0.851h3.65
		c0.366,0.066,0.75,0.184,1.149,0.351c0.334,0.133,0.684,0.216,1.05,0.25c0.4,0,0.733,0.017,1,0.05c1.534,0.133,2.7,0.133,3.5,0
		c2.9-0.467,5.801-0.066,8.7,1.2c0.9,0.466,1.566,0.783,2,0.949c0.733,0.267,1.467,0.384,2.2,0.351c0.7-0.033,1.616-0.267,2.75-0.7
		c1.167-0.434,2.05-0.684,2.65-0.75c2.633-0.366,4.616-0.616,5.949-0.75c1.634-0.167,3.733-0.184,6.301-0.05
		c1.233,0.066,2.233,0.2,3,0.399c0.8,0.267,1.35,0.367,1.649,0.301c0.033-0.134,0.066-0.284,0.101-0.45
		c0.699-0.066,1.1-0.15,1.199-0.25c0.167-0.101,0.25-0.517,0.25-1.25c0-1.233,0.134-2.3,0.4-3.2c0.167-0.566,0.533-1.583,1.1-3.05
		c0.167-0.434,0.101-1.417-0.199-2.95c-0.267-1.434-0.284-2.366-0.051-2.8c0.2-0.334,0.184-0.9-0.05-1.7
		c-0.3-1.033-0.45-1.634-0.45-1.8c0-0.2,0.101-0.95,0.301-2.25c0.166-1,0.166-1.7,0-2.101c-0.267-0.767-0.367-1.8-0.301-3.1
		c0.067-1.6,0.067-2.634,0-3.1c-0.3-2.934-0.466-6.4-0.5-10.4c0.134,0.7,0.317,1.417,0.551,2.15c0.3,0.934,0.449,1.95,0.449,3.05
		c-0.033,0.433-0.05,0.783-0.05,1.05c-0.033,0.433-0.017,0.767,0.05,1c0.134,0.333,0.4,0.616,0.801,0.85
		c0.466,0.301,0.75,0.517,0.85,0.65c0.233,0.333,0.417,0.75,0.55,1.25c0.2,1.6,0.384,2.816,0.55,3.65
		c0.067,0.366,0.2,1.649,0.4,3.85c0.134,1.6,0.417,2.816,0.85,3.65c0.067,0.133,0.217,0.35,0.45,0.649
		c0.134,0.134,0.233,0.4,0.3,0.8c0.167,1.233,0.084,2.351-0.25,3.351c-0.199,0.5-0.649,1.133-1.35,1.899
		c-0.733,0.767-1.184,1.384-1.35,1.851c-0.034,0.133-0.051,0.75-0.051,1.85c0,2.9,0.067,4.767,0.2,5.601
		c0.367,2.866,0.45,4.949,0.25,6.25c-1,0.1-1.916,0-2.75-0.301c-0.633-0.233-2.033-0.533-4.2-0.899c-0.3-0.033-0.966-0.2-2-0.5
		c-0.8-0.2-1.483-0.3-2.05-0.3c-0.467,0-1.05-0.101-1.75-0.301c-0.866-0.233-1.467-0.366-1.8-0.399c-0.866-0.101-1.9-0.017-3.1,0.25
		c-0.4,0.1-1.117,0.2-2.15,0.3c-0.934,0.1-1.667,0.25-2.2,0.45c-0.566,0.2-1.133,0.566-1.7,1.1c-0.8,0.733-1.316,1.184-1.55,1.351
		c-0.566,0.333-1.267,0.416-2.1,0.25c-0.5-0.134-1.2-0.367-2.101-0.7c-1.267-0.5-2.449-1.25-3.55-2.25
		c-0.666-0.533-1.066-0.851-1.2-0.95c-0.366-0.233-0.833-0.35-1.399-0.35c-0.9,0-2.15,0.116-3.75,0.35c-1.7,0.267-2.934,0.4-3.7,0.4
		c-0.733,0.033-1.467-0.233-2.2-0.801c-0.899-0.666-1.583-1.066-2.05-1.199c-0.1-0.034-0.684-0.051-1.75-0.051
		c-3.733,0.067-6.233,0.184-7.5,0.351c-1.467,0.133-2.566,0.267-3.3,0.399c-3.566,0.667-6.017,1.351-7.351,2.051
		c-0.333,0.199-0.8,0.466-1.399,0.8c-0.533,0.233-1.05,0.283-1.55,0.149c-0.5-0.1-1.25-0.333-2.25-0.699
		c-0.934-0.167-2.15-0.584-3.65-1.25c-1.7-0.767-2.917-1.25-3.65-1.45c-0.8-0.233-2-0.351-3.6-0.351
		c-1.833,0.034-4.567-0.116-8.2-0.449c-3.767-0.2-8.767-0.217-15-0.051c-7.7,0.2-12.7,0.284-15,0.25c-3.433,0-5.867,0.284-7.3,0.851
		c-0.6,0.233-1.667,1.033-3.2,2.399c-1.233,1.101-2.433,1.634-3.6,1.601c-1.567-0.066-3.917-0.9-7.05-2.5
		c-1.1-0.533-2.583-0.851-4.45-0.95c-1.034-0.066-2.567-0.134-4.6-0.2c-0.7-0.066-3.033-0.233-7-0.5
		C4.467,72.05,2.733,71.1,2.4,69.7z"/>
	<path style="fill-rule:evenodd;clip-rule:evenodd;fill:#8A8E71;" d="M157.3,0.85H4.4H4.05c-1.1,0-2.05,0.4-2.85,1.2
		C0.433,2.783,0.033,3.7,0,4.8V4.1C0,2.967,0.4,2,1.2,1.2C2,0.4,2.95,0,4.05,0H158c1.1,0,2.05,0.4,2.85,1.2
		c0.733,0.767,1.117,1.7,1.15,2.8c0,0.033,0,0.067,0,0.1v0.625c-0.007-0.377-0.058-0.735-0.15-1.075c-0.199-0.6-0.533-1.133-1-1.6
		c-0.8-0.8-1.75-1.2-2.85-1.2H157.3z"/>
	<path style="fill-rule:evenodd;clip-rule:evenodd;fill:#3A3932;" d="M119.4,70.05H158c1.1,0,2.05-0.399,2.85-1.2
		c0.767-0.8,1.15-1.75,1.15-2.85V7c0.033,0.333,0.066,0.683,0.1,1.05c0.167,1.667,0.25,2.917,0.25,3.75
		c0,0.967,0.134,2.383,0.4,4.25c0.233,1.867,0.35,3.267,0.35,4.2c0,0.2,0,0.4,0,0.6c-0.033,4.933-0.05,8.65-0.05,11.15
		c0,0.433,0.017,0.85,0.05,1.25c0.034,4,0.2,7.467,0.5,10.4c0.067,0.466,0.067,1.5,0,3.1c-0.066,1.3,0.034,2.333,0.301,3.1
		c0.166,0.4,0.166,1.101,0,2.101c-0.2,1.3-0.301,2.05-0.301,2.25c0,0.166,0.15,0.767,0.45,1.8c0.233,0.8,0.25,1.366,0.05,1.7
		c-0.233,0.434-0.216,1.366,0.051,2.8c0.3,1.533,0.366,2.517,0.199,2.95c-0.566,1.467-0.933,2.483-1.1,3.05
		c-0.267,0.9-0.4,1.967-0.4,3.2c0,0.733-0.083,1.149-0.25,1.25c-0.1,0.1-0.5,0.184-1.199,0.25c-0.034,0.166-0.067,0.316-0.101,0.45
		c-0.3,0.066-0.85-0.034-1.649-0.301c-0.767-0.199-1.767-0.333-3-0.399c-2.567-0.134-4.667-0.117-6.301,0.05
		c-1.333,0.134-3.316,0.384-5.949,0.75c-0.601,0.066-1.483,0.316-2.65,0.75c-1.134,0.434-2.05,0.667-2.75,0.7
		c-0.733,0.033-1.467-0.084-2.2-0.351c-0.434-0.166-1.1-0.483-2-0.949c-2.899-1.267-5.8-1.667-8.7-1.2c-0.8,0.133-1.966,0.133-3.5,0
		c-0.267-0.033-0.6-0.05-1-0.05c-0.366-0.034-0.716-0.117-1.05-0.25C120.15,70.233,119.767,70.116,119.4,70.05z M4.25,70.05h111.5
		c-2.2,0.134-4.467,0.417-6.8,0.851c-1.367,0.199-3.367,0.3-6,0.3c-1.634,0-4.066-0.117-7.3-0.351
		c-3.267-0.267-5.717-0.399-7.351-0.399c-2.967,0-7.433,0.083-13.4,0.25c-6.066,0-15.167,0.083-27.3,0.25
		c-5.567,0-9.967,0.5-13.2,1.5c-1.833,0.566-3.017,0.899-3.55,1c-1.367,0.267-2.55,0.217-3.55-0.15
		c-1.633-0.533-3.283-0.899-4.95-1.1c-0.5-0.066-1.15-0.084-1.95-0.05c-0.433,0-1.083,0.017-1.95,0.05c-1.333,0-3.267-0.167-5.8-0.5
		c-1.2-0.101-2.95-0.434-5.25-1c-0.267-0.033-0.933-0.117-2-0.25C4.9,70.35,4.517,70.217,4.25,70.05z"/>
	
		<radialGradient id="SVGID_1_" cx="80.8501" cy="-2.3501" r="85.3375" gradientTransform="matrix(1 0 0 -1 0 -4.7002)" gradientUnits="userSpaceOnUse">
		<stop  offset="0" style="stop-color:#3E4234"/>
		<stop  offset="1" style="stop-color:#1B1C16"/>
	</radialGradient>
	<path style="fill-rule:evenodd;clip-rule:evenodd;fill:url(#SVGID_1_);" d="M4.4,0.85h152.9c1.066,0.033,1.983,0.417,2.75,1.15
		c0.134,0.133,0.25,0.267,0.351,0.4c0.533,0.7,0.8,1.517,0.8,2.45V37.4c-1.066,2.6-2.434,4.883-4.101,6.85
		c-0.033,0.033-1.017,1.017-2.949,2.95c-0.5,0.5-1.184,1.233-2.051,2.2c-0.8,0.8-1.6,1.416-2.399,1.85
		c-0.834,0.467-1.417,0.7-1.75,0.7c-0.2,0-0.45-0.05-0.75-0.15c-0.267-0.1-0.533-0.116-0.8-0.05c-0.2,0.033-0.45,0.15-0.75,0.35
		c-0.334,0.2-0.584,0.317-0.75,0.351c-0.301,0.066-0.717,0.1-1.25,0.1c-0.301-0.033-0.733-0.066-1.301-0.1
		c-0.233,0-1.066-0.084-2.5-0.25c-0.066,0-0.283,0.017-0.649,0.05c-0.267,0-0.467-0.033-0.601-0.1
		c-0.166-0.101-0.267-0.284-0.3-0.551c-0.066-0.3-0.133-0.5-0.2-0.6c-0.199-0.267-0.416-0.467-0.649-0.6
		c-0.5-0.301-0.783-0.467-0.851-0.5c-0.3-0.233-0.55-0.617-0.75-1.15c-0.166-0.533-0.383-0.884-0.649-1.05
		c-0.233-0.134-1.184-0.134-2.851,0c-0.633,0.033-1.3,0.25-2,0.649c-0.899,0.534-2.216,1.367-3.949,2.5
		c-1.4,0.834-2.983,1.317-4.75,1.45c-0.367,0.033-2.051,0-5.051-0.1c-2.199-0.066-3.616-0.217-4.25-0.45
		c-0.733-0.233-1.8-0.583-3.199-1.05c-1.434-0.434-2.684-0.934-3.75-1.5c-0.067-0.033-0.317-0.233-0.75-0.601
		c-0.367-0.3-0.617-0.449-0.75-0.449c-0.2,0-0.584,0.5-1.15,1.5c-0.366,0.433-0.95,0.833-1.75,1.199
		c-0.467,0.2-1.167,0.483-2.1,0.851c-0.867,0.366-2.584,0.767-5.15,1.2c-0.733,0.133-1.65,0.149-2.75,0.05
		c-1.733-0.167-2.667-0.25-2.8-0.25c-0.4,0-1.05-0.017-1.95-0.05c-0.733-0.034-1.35-0.184-1.85-0.45l-0.25-0.25
		c-0.4,0.066-0.734-0.017-1-0.25c-0.1,0.2-0.267,0.316-0.5,0.35c-0.233,0.066-0.4,0.134-0.5,0.2s-0.217,0.2-0.35,0.4
		c-0.133,0.166-0.267,0.283-0.4,0.35c-0.267,0.167-0.75,0.283-1.45,0.35c-0.7,0.067-1.2,0.184-1.5,0.351
		c1.667-0.066,3.95,0,6.85,0.2c3.233,0.199,5.517,0.3,6.851,0.3c4.233-0.167,7.416-0.25,9.55-0.25h22.5
		c5.033,0.166,8.783,0.25,11.25,0.25c3.166,0.066,5.533,0.116,7.1,0.149c2.867,0.034,5.233-0.033,7.101-0.199
		c1.399-0.167,2.216-0.233,2.449-0.2c0.334,0.033,1.367,0.717,3.101,2.05c2.133,1.6,3.517,2.583,4.149,2.95l-0.25,1.2
		c-0.3,0.1-0.566,0.1-0.8,0c-0.2-0.101-0.316-0.25-0.35-0.45c0.033,0.666,0.066,1.233,0.1,1.7c0,0.933-0.116,1.517-0.35,1.75
		s-0.5,0.25-0.8,0.05c-0.367-0.233-0.684-0.3-0.95-0.2c-0.066,1.333-0.351,2.316-0.851,2.95c-0.333,0.399-1,0.583-2,0.55
		c-0.533-0.033-1.267-0.066-2.199-0.1c-0.634,0.066-1.517,0.233-2.65,0.5c-1.2,0.3-2.1,0.483-2.7,0.55
		c-0.934,0.133-2.166,0.166-3.7,0.1c-0.833,0-2.066-0.033-3.699-0.1c-0.567,0-2.267-0.167-5.101-0.5
		c-0.366-0.066-0.616-0.084-0.75-0.05l-0.649,0.25c-0.567,0.1-1.233,0.116-2,0.05c-0.634-0.033-1.284-0.283-1.95-0.75
		c-1.101-0.434-2.767-0.5-5-0.2c-1.033,0.134-2.617,0.2-4.75,0.2c-0.167,0-0.45,0.017-0.851,0.05
		c-0.333-0.033-0.583-0.116-0.75-0.25c-0.1-0.1-0.199-0.333-0.3-0.7c-0.1-0.333-0.233-0.533-0.399-0.6
		c-0.134-0.066-0.267-0.017-0.4,0.149c-0.134,0.2-0.25,0.301-0.35,0.301c-0.233,0-0.667-0.084-1.301-0.25
		c-0.199,0.066-0.366,0.233-0.5,0.5c-0.666,0.199-1.8,0.3-3.399,0.3H93.4c-0.334,0-0.917,0.033-1.75,0.1
		c-0.733,0.033-1.301,0-1.7-0.1C89.816,65.917,89.6,65.8,89.3,65.6c-0.3-0.199-0.533-0.3-0.7-0.3
		c-0.199-0.033-0.333-0.017-0.399,0.05c-0.066,0.101-0.15,0.15-0.25,0.15c-0.167,0-0.967-0.017-2.4-0.05
		c-1.033,0-1.816,0.083-2.35,0.25c-0.467,0.166-1.034,0.399-1.7,0.7c-0.6,0.233-1.217,0.333-1.85,0.3c-0.2,0-1-0.017-2.4-0.05
		c-1-0.034-1.8-0.101-2.4-0.2C74.483,66.384,74,66.233,73.4,66c-0.6-0.134-1.533-0.15-2.8-0.05c-0.533-0.033-1.233-0.184-2.1-0.45
		c-1-0.333-1.683-0.533-2.05-0.6c-1.733-0.267-4.517-0.25-8.35,0.05c-0.6,0-1.633,0.05-3.1,0.149c-1.333,0.067-2.35-0.017-3.05-0.25
		c0.033-0.433,0.1-0.733,0.2-0.899c-1.066-0.101-2.066-0.084-3,0.05c-0.033,0.167,0.033,0.483,0.2,0.95c0.1,0.3-0.05,0.55-0.45,0.75
		c-0.4,0.233-1.066,0.25-2,0.05l-2-0.4l-2.7,0.101c-0.534-0.033-1.233-0.134-2.1-0.3c-0.467-0.067-1.2-0.051-2.2,0.05
		c-0.066,0-0.517-0.066-1.35-0.2c-0.566-0.066-1.033-0.066-1.4,0c-0.233,0.033-0.7,0.184-1.4,0.45c-0.5,0.166-0.967,0.25-1.4,0.25
		H26.1c-0.8,0-1.434-0.117-1.9-0.351c-0.167-0.1-0.383-0.25-0.65-0.449c-0.2-0.134-0.417-0.184-0.65-0.15
		c-0.167,0.033-0.583,0.333-1.25,0.9c-0.4,0.133-0.9,0.233-1.5,0.3c-0.667,0.066-1.933-0.084-3.8-0.45
		c-0.7-0.134-2.184-0.134-4.45,0c-1.867,0.1-3.267-0.083-4.2-0.55c-0.534-0.3-0.9-0.467-1.1-0.5c-0.033,0-0.283,0-0.75,0
		c-0.3,0-0.517-0.084-0.65-0.25c-0.133-0.134-0.167-0.483-0.1-1.05c-0.167-0.601-0.467-1.067-0.9-1.4c-0.2,1.2-0.767,1.917-1.7,2.15
		c-0.133-0.467-0.217-1.134-0.25-2c-0.033-0.967-0.083-1.634-0.15-2c-0.133,0.3-0.35,0.466-0.65,0.5
		C1.383,59.934,1.4,59.15,1.5,58.05c0.1-1.033,0.083-1.833-0.05-2.399c-0.2-1.101-0.3-2.15-0.3-3.15c0-0.5-0.05-1.434-0.15-2.8
		c-0.1-1.167-0.133-2.084-0.1-2.75L0.5,47.7V4.85C0.5,3.717,0.9,2.767,1.7,2C2.433,1.267,3.333,0.883,4.4,0.85z M133.35,40.1
		c0.101,0.167,0.217,0.334,0.351,0.5c0.333,0.367,0.75,0.551,1.25,0.551H145l-2.6,2.75c-0.334,0.366-0.5,0.833-0.5,1.399
		c0,0.533,0.166,0.983,0.5,1.351l0.199,0.199c0.034,0.101,0.101,0.2,0.2,0.301l1.9,2.1c0.366,0.366,0.8,0.55,1.3,0.55
		s0.917-0.184,1.25-0.55l9.35-10.1c0.4-0.433,0.567-0.9,0.5-1.4c0.067-0.533-0.1-1.017-0.5-1.45l-0.1-0.1
		c-0.066-0.133-0.167-0.267-0.3-0.4l-9.351-10.1c-0.333-0.4-0.75-0.6-1.25-0.6s-0.933,0.2-1.3,0.6l-1.899,2.05
		c-0.334,0.367-0.5,0.833-0.5,1.4c0,0.533,0.166,0.983,0.5,1.35l0.149,0.2c0.066,0.1,0.15,0.2,0.25,0.3l2.601,2.8H134.6
		c-0.5,0-0.916,0.2-1.25,0.6c-0.366,0.367-0.55,0.817-0.55,1.35v2.95C132.8,39.233,132.983,39.7,133.35,40.1z M127.5,30
		c-0.333-0.467-0.717-0.917-1.15-1.35c-2.333-2.333-5.166-3.5-8.5-3.5c-3.3,0-6.116,1.167-8.449,3.5
		c-2.367,2.333-3.551,5.167-3.551,8.5c0,2.667,0.784,5.034,2.351,7.1c0.434,0.634,0.95,1.25,1.55,1.85c2.366,2.334,5.2,3.5,8.5,3.5
		s6.134-1.166,8.5-3.5c2.333-2.366,3.5-5.183,3.5-8.45C130.25,34.717,129.333,32.167,127.5,30z M82.1,17.15L82.05,6.5h-2.3v3.95
		c-0.367-0.534-1.017-0.8-1.95-0.8c-0.9,0-1.667,0.35-2.3,1.05c-0.667,0.733-0.983,1.683-0.95,2.85c0,1.133,0.3,2.05,0.9,2.75
		c0.566,0.667,1.3,1,2.2,1c1.1,0,1.867-0.4,2.3-1.2H80l0.1,1.05H82.1z M87.75,14.9c-0.167,0.533-0.566,0.8-1.2,0.8
		c-0.6,0-0.899-0.284-0.899-0.85c0-0.767,0.716-1.15,2.149-1.15v0.8L87.75,14.9z M86.8,9.65c-1.166,0-2.116,0.217-2.85,0.65
		l0.399,1.45c0.601-0.367,1.284-0.55,2.051-0.55c0.866,0,1.3,0.316,1.3,0.95v0.1c-2.867,0-4.3,0.933-4.3,2.8
		c0,0.633,0.217,1.167,0.65,1.6c0.434,0.434,1,0.65,1.7,0.65c0.934,0,1.65-0.3,2.15-0.9l0.149,0.75h2.05
		C90.033,16.883,90,16.3,90,15.4v-2.6C90,10.7,88.934,9.65,86.8,9.65z M81.25,44.7c0.333,0.467,0.733,0.934,1.2,1.399
		c2.333,2.334,5.149,3.5,8.45,3.5c3.333,0,6.166-1.166,8.5-3.5c2.333-2.333,3.5-5.149,3.5-8.45c0-2.667-0.75-5.017-2.25-7.05
		c-0.467-0.7-1-1.35-1.601-1.95c-2.366-2.333-5.2-3.5-8.5-3.5c-3.333,0-6.166,1.167-8.5,3.5c-2.333,2.333-3.5,5.167-3.5,8.5
		C78.55,40.05,79.45,42.566,81.25,44.7z M124.15,58.2l1.75,2.55l-1.801,2.7h1.801l0.899-1.75h0.05l0.95,1.75h1.851l-1.75-2.75
		l1.699-2.5h-1.75l-0.899,1.649L126,58.2H124.15z M140.05,58.1l-0.35-0.05c-0.7,0-1.184,0.367-1.45,1.101l-0.1-0.95h-1.4l0.05,5.25
		h1.65V60.8l0.05-0.399c0.1-0.534,0.467-0.801,1.1-0.801h0.45V58.1z M132,61.55V60.15c0.167-0.534,0.5-0.801,1-0.801
		c0.733,0,1.1,0.483,1.1,1.45c0,1-0.366,1.5-1.1,1.5C132.533,62.3,132.2,62.05,132,61.55z M133.6,58.05
		c-0.8,0-1.383,0.283-1.75,0.851h-0.05l-0.05-0.7h-1.45l0.05,7.399H132V62.95c0.3,0.399,0.767,0.6,1.4,0.6
		c0.633,0,1.166-0.233,1.6-0.7c0.5-0.5,0.75-1.199,0.75-2.1c0-0.833-0.217-1.5-0.65-2C134.7,58.283,134.2,58.05,133.6,58.05z
		 M148.5,58.05c-0.634,0-1.15,0.167-1.55,0.5c-0.4,0.334-0.601,0.75-0.601,1.25c0,0.7,0.5,1.217,1.5,1.55
		c0.5,0.167,0.75,0.384,0.75,0.65s-0.233,0.4-0.699,0.4c-0.467,0-0.934-0.117-1.4-0.351l-0.3,1.15c0.467,0.233,1.033,0.35,1.7,0.35
		c1.533,0,2.3-0.566,2.3-1.7c0-0.8-0.483-1.333-1.45-1.6c-0.566-0.233-0.85-0.45-0.85-0.65c0-0.267,0.216-0.399,0.649-0.399
		s0.816,0.1,1.15,0.3l0.25-1.15C149.55,58.15,149.066,58.05,148.5,58.05z M142.05,60.2c0.101-0.7,0.45-1.05,1.05-1.05
		c0.601,0,0.9,0.35,0.9,1.05H142.05z M145,58.9c-0.4-0.567-1-0.851-1.8-0.851c-0.867,0-1.55,0.3-2.05,0.9
		c-0.434,0.533-0.65,1.166-0.65,1.899c0,0.834,0.25,1.483,0.75,1.95c0.5,0.5,1.2,0.75,2.1,0.75c0.733,0,1.367-0.1,1.9-0.3l-0.2-1.15
		c-0.5,0.167-1,0.25-1.5,0.25c-0.899,0-1.383-0.333-1.45-1h3.4l0.05-0.649C145.55,59.967,145.366,59.366,145,58.9z M154.9,61.85
		c-0.067-0.8-0.551-1.333-1.45-1.6c-0.566-0.233-0.851-0.45-0.851-0.65c0-0.267,0.217-0.399,0.65-0.399s0.816,0.1,1.15,0.3
		l0.25-1.15c-0.4-0.199-0.884-0.3-1.45-0.3c-0.667,0-1.2,0.167-1.601,0.5c-0.366,0.334-0.55,0.75-0.55,1.25
		c-0.066,0.7,0.434,1.217,1.5,1.55c0.5,0.167,0.75,0.384,0.75,0.65s-0.233,0.4-0.7,0.4c-0.466,0-0.933-0.117-1.399-0.351l-0.3,1.15
		c0.466,0.233,1.033,0.35,1.699,0.35c0.733,0,1.301-0.149,1.7-0.45C154.7,62.767,154.9,62.35,154.9,61.85z M84.3,59.85v0.101
		c-2.066,0-3.1,0.666-3.1,2c0,0.434,0.15,0.8,0.45,1.1c0.333,0.334,0.75,0.5,1.25,0.5c0.7,0,1.2-0.217,1.5-0.649h0.05l0.1,0.55h1.5
		c-0.066-0.2-0.1-0.617-0.1-1.25V60.35c0-1.533-0.767-2.3-2.3-2.3c-0.833,0-1.517,0.15-2.05,0.45l0.3,1.1
		c0.367-0.267,0.85-0.399,1.45-0.399C83.983,59.2,84.3,59.417,84.3,59.85z M82.85,61.8c0-0.566,0.5-0.85,1.5-0.85v0.85
		c-0.166,0.4-0.466,0.601-0.899,0.601C83.05,62.4,82.85,62.2,82.85,61.8z M100.25,58.2h-1.6v5.25h1.6V58.2z M99.45,57.55
		c0.6,0,0.899-0.283,0.899-0.85c-0.066-0.533-0.366-0.8-0.899-0.8c-0.566,0-0.851,0.267-0.851,0.8
		C98.6,57.267,98.884,57.55,99.45,57.55z M94.8,56.2l-1.45,5H93.3c-0.166-0.934-0.366-1.8-0.6-2.601L92,56.2h-2.2l-0.45,7.25h1.5
		l0.25-5.75h0.051c0.133,0.8,0.35,1.75,0.649,2.85l0.75,2.8h1.3l1.7-5.649l0.2,5.75h1.6L96.95,56.2H94.8z M106.05,58.85
		c-0.5,0.534-0.75,1.2-0.75,2c0,0.834,0.25,1.483,0.75,1.95c0.5,0.5,1.184,0.75,2.05,0.75c0.634,0,1.117-0.083,1.45-0.25l-0.2-1.2
		c-0.333,0.134-0.633,0.2-0.899,0.2c-0.4,0-0.733-0.133-1-0.399c-0.3-0.267-0.45-0.634-0.45-1.101c0-0.434,0.134-0.783,0.4-1.05
		c0.233-0.3,0.566-0.45,1-0.45c0.333,0,0.633,0.066,0.899,0.2l0.3-1.25c-0.466-0.134-0.899-0.2-1.3-0.2
		C107.366,58.05,106.616,58.316,106.05,58.85z M104.85,58.1l-0.35-0.05c-0.7,0-1.184,0.367-1.45,1.101H103l-0.05-0.95h-1.4
		l0.05,5.25h1.65V60.4c0.1-0.534,0.483-0.801,1.15-0.801h0.449V58.1z M120.7,59.05v-1.5h2.8V56.2h-4.45v7.25h4.601V62.1h-2.95V60.4
		h2.649V59.05H120.7z M113,59.4c0.566,0,0.85,0.383,0.85,1.149v2.9h1.65V60.4c0-1.567-0.616-2.351-1.85-2.351
		c-0.233,0-0.517,0.066-0.851,0.2c-0.3,0.167-0.517,0.35-0.649,0.55H112.1v-3h-1.649v7.65h1.649V60.3l0.051-0.35
		C112.35,59.583,112.634,59.4,113,59.4z M17.85,12c0-1.467-0.417-2.667-1.25-3.6c-0.867-1.033-2.05-1.55-3.55-1.55
		c-1.466,0-2.667,0.517-3.6,1.55c-0.9,0.967-1.35,2.217-1.35,3.75c0,1.5,0.417,2.717,1.25,3.65c0.9,1,2.066,1.5,3.5,1.5
		c1.5,0,2.717-0.466,3.65-1.4C17.4,14.933,17.85,13.633,17.85,12z M14.8,9.7c0.4,0.633,0.6,1.417,0.6,2.35
		c0,1.034-0.2,1.867-0.6,2.5c-0.433,0.633-1.033,0.95-1.8,0.95s-1.383-0.317-1.85-0.95c-0.433-0.633-0.65-1.45-0.65-2.45
		s0.217-1.817,0.65-2.45C11.617,9.017,12.233,8.7,13,8.7C13.733,8.7,14.333,9.033,14.8,9.7z M21.35,10.85l-0.1-1.05h-2l0.05,7.35
		h2.3V12.9l0.05-0.55c0.3-0.567,0.7-0.85,1.2-0.85c0.767,0,1.15,0.533,1.15,1.6v4.05h2.25V12.8c0-1.033-0.25-1.833-0.75-2.4
		c-0.433-0.5-1.05-0.75-1.85-0.75c-1.033,0-1.783,0.4-2.25,1.2H21.35z M36.95,9.65c-1.2,0-2.15,0.35-2.85,1.05
		c-0.733,0.7-1.1,1.65-1.1,2.85c0,1.133,0.367,2.05,1.1,2.75c0.7,0.667,1.6,1,2.7,1c1.1,0,2-0.316,2.7-0.95
		c0.8-0.7,1.2-1.684,1.2-2.95c0-1.1-0.35-2-1.05-2.7C38.983,10,38.083,9.65,36.95,9.65z M32.2,11.5V9.8h-1.65V7.85l-2.2,0.6V9.8h-1
		v1.7h1v3c0,1.033,0.2,1.75,0.6,2.15c0.433,0.434,1.017,0.65,1.75,0.65c0.566,0,1.05-0.066,1.45-0.2v-1.7l-0.7,0.05
		c-0.6,0-0.9-0.434-0.9-1.3V11.5H32.2z M36.9,11.3c0.467,0,0.833,0.233,1.1,0.7c0.233,0.4,0.35,0.883,0.35,1.45
		c0,0.667-0.133,1.216-0.4,1.65c-0.267,0.4-0.617,0.6-1.05,0.6c-1,0-1.5-0.733-1.5-2.2S35.9,11.3,36.9,11.3z M57.45,14.9
		c-0.167,0.533-0.567,0.8-1.2,0.8c-0.6,0-0.9-0.284-0.9-0.85c0-0.767,0.7-1.15,2.1-1.15V14.9z M48.4,8.7c1.2,0,1.8,0.5,1.8,1.5
		c0,0.5-0.167,0.9-0.5,1.2c-0.367,0.3-0.85,0.45-1.45,0.45c-0.267,0-0.533-0.033-0.8-0.1V8.8C47.717,8.733,48.033,8.7,48.4,8.7z
		 M56.05,11.2c0.9,0,1.35,0.316,1.35,0.95v0.1c-2.867,0-4.3,0.933-4.3,2.8c0,0.633,0.217,1.167,0.65,1.6
		c0.433,0.434,1,0.65,1.7,0.65c0.966,0,1.667-0.3,2.1-0.9h0.05l0.15,0.75h2.05c-0.066-0.267-0.1-0.85-0.1-1.75v-2.6
		c0-2.1-1.083-3.15-3.25-3.15c-1.1,0-2.05,0.217-2.85,0.65l0.45,1.45C54.617,11.383,55.283,11.2,56.05,11.2z M52.45,10.1
		c0-1-0.35-1.767-1.05-2.3c-0.733-0.566-1.767-0.85-3.1-0.85c-1.3,0-2.333,0.083-3.1,0.25v9.95h2.25v-3.6l0.8,0.05
		c1.433,0,2.533-0.367,3.3-1.1C52.15,11.967,52.45,11.167,52.45,10.1z M69.7,15.7c-0.6,0-0.9-0.284-0.9-0.85
		c0-0.767,0.717-1.15,2.15-1.15v0.8l-0.05,0.4C70.733,15.433,70.333,15.7,69.7,15.7z M67.05,10.3l0.45,1.45
		c0.567-0.367,1.233-0.55,2-0.55c0.9,0,1.35,0.316,1.35,0.95v0.1c-2.867,0-4.3,0.933-4.3,2.8c0,0.633,0.217,1.167,0.65,1.6
		c0.433,0.434,1,0.65,1.7,0.65c0.967,0,1.667-0.3,2.1-0.9h0.05l0.15,0.75h2.05c-0.067-0.267-0.1-0.85-0.1-1.75v-2.6
		c0-2.1-1.083-3.15-3.25-3.15C68.8,9.65,67.85,9.867,67.05,10.3z M63.4,9.8h-1.95l0.05,7.35h2.25v-3.7l0.05-0.55
		c0.167-0.767,0.7-1.15,1.6-1.15l0.6,0.1V9.7l-0.5-0.05c-0.967,0-1.617,0.5-1.95,1.5h-0.1L63.4,9.8z M77.25,12
		c0.267-0.4,0.65-0.6,1.15-0.6c0.733,0,1.184,0.367,1.35,1.1v1.9c-0.167,0.733-0.617,1.1-1.35,1.1c-1.033,0-1.55-0.667-1.55-2
		C76.85,12.9,76.983,12.4,77.25,12z M41.95,60.2c0.1-0.7,0.433-1.05,1-1.05c0.633,0,0.95,0.35,0.95,1.05H41.95z M43.05,58.05
		c-0.867,0-1.533,0.3-2,0.9c-0.433,0.533-0.65,1.166-0.65,1.899c0,0.834,0.25,1.483,0.75,1.95c0.467,0.5,1.15,0.75,2.05,0.75
		c0.767,0,1.4-0.1,1.9-0.3l-0.2-1.15c-0.5,0.167-0.983,0.25-1.45,0.25c-0.934,0-1.434-0.333-1.5-1h3.4L45.4,60.7
		c0-0.733-0.183-1.334-0.55-1.8C44.45,58.333,43.85,58.05,43.05,58.05z M54.85,56.7c-0.5,0.399-0.75,0.916-0.75,1.55
		c0,1,0.667,1.717,2,2.15c0.8,0.3,1.2,0.633,1.2,1c0,0.533-0.383,0.8-1.15,0.8c-0.733,0-1.333-0.15-1.8-0.45L54,63.1
		c0.467,0.301,1.15,0.45,2.05,0.45c0.967,0,1.717-0.217,2.25-0.649c0.467-0.434,0.7-0.967,0.7-1.601c0-1-0.633-1.717-1.9-2.149
		c-0.9-0.334-1.35-0.684-1.35-1.051c0-0.466,0.35-0.699,1.05-0.699c0.567,0,1.083,0.116,1.55,0.35l0.35-1.3
		c-0.6-0.267-1.217-0.4-1.85-0.4C56.017,56.05,55.35,56.267,54.85,56.7z M51.05,61.15V60.05h-2.8v1.101H51.05z M67.15,57.55
		c0.6,0,0.9-0.283,0.9-0.85c-0.066-0.533-0.367-0.8-0.9-0.8c-0.566,0-0.85,0.267-0.85,0.8C66.3,57.267,66.583,57.55,67.15,57.55z
		 M68,58.2h-1.65v5.25H68V58.2z M63.2,58.05c-0.3,0-0.583,0.066-0.85,0.2c-0.3,0.167-0.517,0.35-0.65,0.55h-0.05v-3H60v7.65h1.65
		V60.3l0.05-0.35c0.2-0.367,0.483-0.55,0.85-0.55c0.567,0,0.85,0.383,0.85,1.149v2.9H65V60.4c0-0.767-0.167-1.351-0.5-1.75
		C64.167,58.25,63.733,58.05,63.2,58.05z M80.2,55.8h-1.6v7.65h1.6V55.8z M75.5,58.05c-0.333,0-0.667,0.084-1,0.25
		c-0.3,0.167-0.533,0.384-0.7,0.65c-0.267-0.601-0.75-0.9-1.45-0.9c-0.733,0-1.267,0.283-1.6,0.851H70.7l-0.05-0.7h-1.4l0.05,5.25
		h1.6V60.4l0.05-0.45c0.167-0.4,0.433-0.601,0.8-0.601c0.5,0,0.75,0.384,0.75,1.15v2.95h1.6V60.35l0.05-0.399
		c0.133-0.4,0.383-0.601,0.75-0.601c0.533,0,0.8,0.417,0.8,1.25v2.851h1.6V60.35C77.3,58.816,76.7,58.05,75.5,58.05z M16.05,59.15
		H16l-0.05-0.95h-1.4l0.05,5.25h1.6V60.8l0.05-0.399c0.1-0.534,0.467-0.801,1.1-0.801h0.45v-1.5l-0.35-0.05
		C16.75,58.05,16.283,58.417,16.05,59.15z M10.6,60.55h1.15v1.55c-0.2,0.067-0.467,0.101-0.8,0.101c-0.7,0-1.25-0.2-1.65-0.601
		c-0.433-0.433-0.65-1.033-0.65-1.8c0-0.733,0.233-1.316,0.7-1.75c0.433-0.399,1-0.6,1.7-0.6c0.667,0,1.233,0.116,1.7,0.35
		l0.35-1.35c-0.633-0.233-1.317-0.351-2.05-0.351c-1.233,0-2.216,0.334-2.95,1c-0.8,0.7-1.2,1.634-1.2,2.801
		c0,1.133,0.35,2.017,1.05,2.649c0.667,0.667,1.65,1,2.95,1c0.867,0,1.667-0.149,2.4-0.45v-3.8h-2.7V60.55z M26.2,60.8
		c0-1,0.383-1.5,1.15-1.5c0.5,0,0.816,0.267,0.95,0.8l0.05,0.301V61.1l-0.05,0.4c-0.1,0.5-0.417,0.75-0.95,0.75
		C26.583,62.25,26.2,61.767,26.2,60.8z M21.05,59.2c0.7,0,1.05,0.533,1.05,1.6S21.75,62.4,21.05,62.4c-0.7,0-1.05-0.534-1.05-1.601
		S20.35,59.2,21.05,59.2z M23.05,58.8c-0.466-0.5-1.117-0.75-1.95-0.75c-0.833,0-1.517,0.25-2.05,0.75
		c-0.5,0.533-0.75,1.217-0.75,2.05c0,0.834,0.267,1.5,0.8,2c0.5,0.467,1.133,0.7,1.9,0.7c0.8,0,1.45-0.217,1.95-0.649
		c0.566-0.5,0.85-1.217,0.85-2.15C23.8,59.95,23.55,59.3,23.05,58.8z M25.25,58.8c-0.467,0.533-0.7,1.217-0.7,2.05
		c0,0.801,0.217,1.45,0.65,1.95c0.433,0.5,0.966,0.75,1.6,0.75c0.8,0,1.35-0.283,1.65-0.85h0.05l0.05,0.75H30l-0.05-7.65h-1.6v2.851
		H28.3c-0.3-0.4-0.767-0.601-1.4-0.601C26.233,58.05,25.683,58.3,25.25,58.8z M39.35,55.8H37.7v7.65h1.65V55.8z M34.75,55.8v2.851
		c-0.3-0.4-0.767-0.601-1.4-0.601c-0.667,0-1.217,0.25-1.65,0.75c-0.467,0.533-0.7,1.217-0.7,2.05c0,0.801,0.217,1.45,0.65,1.95
		c0.434,0.5,0.967,0.75,1.6,0.75c0.733,0,1.283-0.283,1.65-0.85h0.05L35,63.45h1.45L36.4,55.8H34.75z M32.65,60.8
		c0-1,0.383-1.5,1.15-1.5c0.5,0,0.817,0.267,0.95,0.8v1.4c-0.1,0.5-0.433,0.75-1,0.75C33.017,62.25,32.65,61.767,32.65,60.8z"/>
	<path style="fill-rule:evenodd;clip-rule:evenodd;fill:#F1EFCD;" d="M145.4,33.8L142.8,31c-0.1-0.1-0.184-0.2-0.25-0.3
		c-0.166-0.3-0.25-0.65-0.25-1.05c0-0.566,0.167-1.033,0.5-1.4l1.9-2.05c0.366-0.4,0.8-0.6,1.3-0.6s0.917,0.2,1.25,0.6l9.25,10
		l0.1,0.1c0.4,0.434,0.567,0.917,0.5,1.45c0.067,0.5-0.1,0.967-0.5,1.4l-9.35,10.1c-0.333,0.366-0.75,0.55-1.25,0.55
		s-0.934-0.184-1.3-0.55l-1.9-2.1c-0.1-0.101-0.166-0.2-0.2-0.301c-0.199-0.3-0.3-0.649-0.3-1.05c0-0.566,0.167-1.033,0.5-1.399
		l3.05-3.25H145h-10.05c-0.5,0-0.917-0.184-1.25-0.551c-0.134-0.166-0.25-0.333-0.351-0.5c-0.133-0.266-0.199-0.566-0.199-0.899
		v-2.95c0-0.533,0.183-0.983,0.55-1.35c0.333-0.4,0.75-0.6,1.25-0.6h10.899L145.4,33.8z M126.05,33.6h-5.25v12.45H116.4V33.6h-5.2
		v-2.95h14.85V33.6z M87.1,42c0.233-0.2,0.467-0.184,0.7,0.05C87.934,42.184,88,42.3,88,42.4h5.9c-0.034-0.101,0-0.217,0.1-0.351
		c0.233-0.233,0.483-0.25,0.75-0.05l3.4,3.05c0.1,0.066,0.149,0.184,0.149,0.351c0,0.133-0.05,0.233-0.149,0.3
		c-0.233,0.233-0.467,0.25-0.7,0.05l-0.7-0.65c-0.066,0-0.116,0-0.15,0H85.15l-0.75,0.65c-0.301,0.167-0.55,0.15-0.75-0.05
		c-0.1-0.066-0.133-0.167-0.1-0.3c0-0.167,0.05-0.284,0.15-0.351L87.1,42z M88.4,36.45c-0.2-0.167-0.434-0.25-0.7-0.25
		s-0.483,0.083-0.65,0.25c-0.2,0.2-0.3,0.417-0.3,0.65c0,0.267,0.1,0.483,0.3,0.65c0.2,0.2,0.417,0.3,0.65,0.3
		c0.267,0,0.5-0.1,0.7-0.3c0.199-0.167,0.3-0.383,0.3-0.65C88.7,36.867,88.6,36.65,88.4,36.45z M90.5,30.55h-3.25
		c-0.2,0-0.366,0.083-0.5,0.25c-0.167,0.133-0.25,0.3-0.25,0.5v2.55c0,0.5,0.25,0.75,0.75,0.75h3.25V30.55z M94.1,36.2
		c-0.633,0-0.949,0.3-0.949,0.9c0,0.267,0.083,0.483,0.25,0.65c0.199,0.2,0.433,0.3,0.699,0.3s0.5-0.1,0.7-0.3
		c0.167-0.167,0.25-0.383,0.25-0.65C95.05,36.5,94.733,36.2,94.1,36.2z M95.05,29.35c0.367,0,0.684,0.117,0.95,0.35
		c0.267,0.267,0.4,0.583,0.4,0.95v9.4c0,0.367-0.134,0.667-0.4,0.9s-0.583,0.35-0.95,0.35h-8.3c-0.366,0-0.684-0.116-0.95-0.35
		s-0.399-0.533-0.399-0.9v-9.4c0-0.367,0.133-0.683,0.399-0.95c0.267-0.233,0.584-0.35,0.95-0.35H95.05z M94.55,30.55H91.3v4.05
		h3.25c0.5,0,0.75-0.25,0.75-0.75V31.3C95.3,30.8,95.05,30.55,94.55,30.55z M86.95,43.45L86.35,44h9.2l-0.6-0.55H86.95z M113,59.4
		c-0.366,0-0.65,0.183-0.85,0.55L112.1,60.3v3.15h-1.649V55.8h1.649v3h0.051c0.133-0.2,0.35-0.383,0.649-0.55
		c0.334-0.134,0.617-0.2,0.851-0.2c1.233,0,1.85,0.783,1.85,2.351v3.05h-1.65v-2.9C113.85,59.783,113.566,59.4,113,59.4z
		 M120.7,59.05h2.649V60.4H120.7V62.1h2.95v1.351h-4.601V56.2h4.45v1.35h-2.8V59.05z M104.85,58.1v1.5H104.4
		c-0.667,0-1.051,0.267-1.15,0.801v3.05h-1.65l-0.05-5.25h1.4l0.05,0.95h0.05c0.267-0.733,0.75-1.101,1.45-1.101L104.85,58.1z
		 M106.05,58.85c0.566-0.533,1.316-0.8,2.25-0.8c0.4,0,0.834,0.066,1.3,0.2l-0.3,1.25c-0.267-0.134-0.566-0.2-0.899-0.2
		c-0.434,0-0.767,0.15-1,0.45c-0.267,0.267-0.4,0.616-0.4,1.05c0,0.467,0.15,0.834,0.45,1.101c0.267,0.267,0.6,0.399,1,0.399
		c0.267,0,0.566-0.066,0.899-0.2l0.2,1.2c-0.333,0.167-0.816,0.25-1.45,0.25c-0.866,0-1.55-0.25-2.05-0.75
		c-0.5-0.467-0.75-1.116-0.75-1.95C105.3,60.05,105.55,59.384,106.05,58.85z M94.8,56.2h2.15l0.399,7.25h-1.6l-0.2-5.75l-1.7,5.649
		h-1.3l-0.75-2.8c-0.3-1.1-0.517-2.05-0.649-2.85H91.1l-0.25,5.75h-1.5l0.45-7.25H92l0.7,2.399c0.233,0.801,0.434,1.667,0.6,2.601
		h0.05L94.8,56.2z M99.45,57.55c-0.566,0-0.851-0.283-0.851-0.85c0-0.533,0.284-0.8,0.851-0.8c0.533,0,0.833,0.267,0.899,0.8
		C100.35,57.267,100.05,57.55,99.45,57.55z M100.25,58.2v5.25h-1.6V58.2H100.25z M82.85,61.8c0,0.4,0.2,0.601,0.6,0.601
		c0.433,0,0.733-0.2,0.899-0.601v-0.85C83.35,60.95,82.85,61.233,82.85,61.8z M84.3,59.85c0-0.433-0.316-0.649-0.95-0.649
		c-0.6,0-1.083,0.133-1.45,0.399l-0.3-1.1c0.533-0.3,1.217-0.45,2.05-0.45c1.534,0,2.3,0.767,2.3,2.3V62.2
		c0,0.633,0.033,1.05,0.1,1.25h-1.5l-0.1-0.55H84.4c-0.301,0.433-0.8,0.649-1.5,0.649c-0.5,0-0.917-0.166-1.25-0.5
		c-0.3-0.3-0.45-0.666-0.45-1.1c0-1.334,1.033-2,3.1-2V59.85z M154.9,61.85c0,0.5-0.2,0.917-0.601,1.25
		c-0.399,0.301-0.967,0.45-1.7,0.45c-0.666,0-1.233-0.116-1.699-0.35l0.3-1.15c0.467,0.233,0.934,0.351,1.399,0.351
		c0.467,0,0.7-0.134,0.7-0.4s-0.25-0.483-0.75-0.65c-1.066-0.333-1.566-0.85-1.5-1.55c0-0.5,0.184-0.916,0.55-1.25
		c0.4-0.333,0.934-0.5,1.601-0.5c0.566,0,1.05,0.101,1.45,0.3l-0.25,1.15c-0.334-0.2-0.717-0.3-1.15-0.3s-0.65,0.133-0.65,0.399
		c0,0.2,0.284,0.417,0.851,0.65C154.35,60.517,154.833,61.05,154.9,61.85z M145,58.9c0.366,0.466,0.55,1.066,0.55,1.8l-0.05,0.649
		h-3.4c0.067,0.667,0.551,1,1.45,1c0.5,0,1-0.083,1.5-0.25l0.2,1.15c-0.533,0.2-1.167,0.3-1.9,0.3c-0.899,0-1.6-0.25-2.1-0.75
		c-0.5-0.467-0.75-1.116-0.75-1.95c0-0.733,0.217-1.366,0.65-1.899c0.5-0.601,1.183-0.9,2.05-0.9C144,58.05,144.6,58.333,145,58.9z
		 M142.05,60.2H144c0-0.7-0.3-1.05-0.9-1.05C142.5,59.15,142.15,59.5,142.05,60.2z M148.5,58.05c0.566,0,1.05,0.101,1.45,0.3
		l-0.25,1.15c-0.334-0.2-0.717-0.3-1.15-0.3S147.9,59.333,147.9,59.6c0,0.2,0.283,0.417,0.85,0.65c0.967,0.267,1.45,0.8,1.45,1.6
		c0,1.134-0.767,1.7-2.3,1.7c-0.667,0-1.233-0.116-1.7-0.35l0.3-1.15c0.467,0.233,0.934,0.351,1.4,0.351
		c0.466,0,0.699-0.134,0.699-0.4s-0.25-0.483-0.75-0.65c-1-0.333-1.5-0.85-1.5-1.55c0-0.5,0.2-0.916,0.601-1.25
		C147.35,58.217,147.866,58.05,148.5,58.05z M133.6,58.05c0.601,0,1.101,0.233,1.5,0.7c0.434,0.5,0.65,1.167,0.65,2
		c0,0.9-0.25,1.6-0.75,2.1c-0.434,0.467-0.967,0.7-1.6,0.7c-0.634,0-1.101-0.2-1.4-0.6V65.6h-1.65L130.3,58.2h1.45l0.05,0.7h0.05
		C132.217,58.333,132.8,58.05,133.6,58.05z M132,61.55c0.2,0.5,0.533,0.75,1,0.75c0.733,0,1.1-0.5,1.1-1.5
		c0-0.967-0.366-1.45-1.1-1.45c-0.5,0-0.833,0.267-1,0.801V61.55z M140.05,58.1v1.5h-0.45c-0.633,0-1,0.267-1.1,0.801l-0.05,0.399
		v2.65h-1.65l-0.05-5.25h1.4l0.1,0.95c0.267-0.733,0.75-1.101,1.45-1.101L140.05,58.1z M124.15,58.2H126l0.95,1.649l0.899-1.649
		h1.75l-1.699,2.5l1.75,2.75H127.8l-0.95-1.75h-0.05l-0.899,1.75H124.1l1.801-2.7L124.15,58.2z M32.65,60.8
		c0,0.967,0.367,1.45,1.1,1.45c0.567,0,0.9-0.25,1-0.75v-1.4c-0.133-0.533-0.45-0.8-0.95-0.8C33.033,59.3,32.65,59.8,32.65,60.8z
		 M34.75,55.8h1.65l0.05,7.65H35l-0.05-0.75H34.9c-0.367,0.566-0.917,0.85-1.65,0.85c-0.633,0-1.167-0.25-1.6-0.75
		C31.217,62.3,31,61.65,31,60.85c0-0.833,0.233-1.517,0.7-2.05c0.433-0.5,0.983-0.75,1.65-0.75c0.633,0,1.1,0.2,1.4,0.601V55.8z
		 M39.35,55.8v7.65H37.7V55.8H39.35z M25.25,58.8c0.433-0.5,0.983-0.75,1.65-0.75c0.633,0,1.1,0.2,1.4,0.601h0.05V55.8h1.6L30,63.45
		h-1.45L28.5,62.7h-0.05c-0.3,0.566-0.85,0.85-1.65,0.85c-0.633,0-1.167-0.25-1.6-0.75c-0.434-0.5-0.65-1.149-0.65-1.95
		C24.55,60.017,24.783,59.333,25.25,58.8z M23.05,58.8c0.5,0.5,0.75,1.15,0.75,1.95c0,0.934-0.283,1.65-0.85,2.15
		c-0.5,0.433-1.15,0.649-1.95,0.649c-0.767,0-1.4-0.233-1.9-0.7c-0.533-0.5-0.8-1.166-0.8-2c0-0.833,0.25-1.517,0.75-2.05
		c0.534-0.5,1.217-0.75,2.05-0.75C21.933,58.05,22.583,58.3,23.05,58.8z M21.05,59.2c-0.7,0-1.05,0.533-1.05,1.6
		s0.35,1.601,1.05,1.601c0.7,0,1.05-0.534,1.05-1.601S21.75,59.2,21.05,59.2z M26.2,60.8c0,0.967,0.383,1.45,1.15,1.45
		c0.533,0,0.85-0.25,0.95-0.75l0.05-0.4V60.4L28.3,60.1c-0.133-0.533-0.45-0.8-0.95-0.8C26.583,59.3,26.2,59.8,26.2,60.8z
		 M10.6,60.55V59.3h2.7v3.8c-0.733,0.301-1.533,0.45-2.4,0.45c-1.3,0-2.283-0.333-2.95-1C7.25,61.917,6.9,61.033,6.9,59.9
		c0-1.167,0.4-2.101,1.2-2.801c0.733-0.666,1.717-1,2.95-1c0.733,0,1.417,0.117,2.05,0.351l-0.35,1.35
		c-0.467-0.233-1.033-0.35-1.7-0.35c-0.7,0-1.267,0.2-1.7,0.6c-0.467,0.434-0.7,1.017-0.7,1.75c0,0.767,0.217,1.367,0.65,1.8
		C9.7,62,10.25,62.2,10.95,62.2c0.333,0,0.6-0.033,0.8-0.101v-1.55H10.6z M16.05,59.15c0.233-0.733,0.7-1.101,1.4-1.101l0.35,0.05
		v1.5h-0.45c-0.633,0-1,0.267-1.1,0.801L16.2,60.8v2.65h-1.6l-0.05-5.25h1.4L16,59.15H16.05z M75.5,58.05c1.2,0,1.8,0.767,1.8,2.3
		v3.101h-1.6V60.6c0-0.833-0.267-1.25-0.8-1.25c-0.367,0-0.617,0.2-0.75,0.601L74.1,60.35v3.101h-1.6V60.5
		c0-0.767-0.25-1.15-0.75-1.15c-0.367,0-0.633,0.2-0.8,0.601L70.9,60.4v3.05h-1.6l-0.05-5.25h1.4l0.05,0.7h0.05
		c0.333-0.567,0.867-0.851,1.6-0.851c0.7,0,1.183,0.3,1.45,0.9c0.167-0.267,0.4-0.483,0.7-0.65
		C74.833,58.134,75.167,58.05,75.5,58.05z M80.2,55.8v7.65h-1.6V55.8H80.2z M63.2,58.05c0.533,0,0.966,0.2,1.3,0.601
		c0.333,0.399,0.5,0.983,0.5,1.75v3.05h-1.6v-2.9c0-0.767-0.283-1.149-0.85-1.149c-0.367,0-0.65,0.183-0.85,0.55l-0.05,0.35v3.15H60
		V55.8h1.65v3h0.05c0.133-0.2,0.35-0.383,0.65-0.55C62.617,58.116,62.9,58.05,63.2,58.05z M68,58.2v5.25h-1.65V58.2H68z
		 M67.15,57.55c-0.566,0-0.85-0.283-0.85-0.85c0-0.533,0.284-0.8,0.85-0.8c0.533,0,0.833,0.267,0.9,0.8
		C68.05,57.267,67.75,57.55,67.15,57.55z M51.05,61.15h-2.8V60.05h2.8V61.15z M54.85,56.7c0.5-0.434,1.167-0.65,2-0.65
		c0.633,0,1.25,0.134,1.85,0.4l-0.35,1.3c-0.467-0.233-0.983-0.35-1.55-0.35c-0.7,0-1.05,0.233-1.05,0.699
		c0,0.367,0.45,0.717,1.35,1.051C58.367,59.583,59,60.3,59,61.3c0,0.634-0.233,1.167-0.7,1.601c-0.533,0.433-1.283,0.649-2.25,0.649
		c-0.9,0-1.583-0.149-2.05-0.45l0.35-1.35c0.467,0.3,1.066,0.45,1.8,0.45c0.767,0,1.15-0.267,1.15-0.8c0-0.367-0.4-0.7-1.2-1
		c-1.333-0.434-2-1.15-2-2.15C54.1,57.616,54.35,57.1,54.85,56.7z M43.05,58.05c0.8,0,1.4,0.283,1.8,0.851
		c0.367,0.466,0.55,1.066,0.55,1.8l-0.05,0.649h-3.4c0.066,0.667,0.566,1,1.5,1c0.466,0,0.95-0.083,1.45-0.25l0.2,1.15
		c-0.5,0.2-1.133,0.3-1.9,0.3c-0.9,0-1.583-0.25-2.05-0.75c-0.5-0.467-0.75-1.116-0.75-1.95c0-0.733,0.217-1.366,0.65-1.899
		C41.517,58.35,42.183,58.05,43.05,58.05z M41.95,60.2h1.95c0-0.7-0.316-1.05-0.95-1.05C42.383,59.15,42.05,59.5,41.95,60.2z"/>
	<path style="fill-rule:evenodd;clip-rule:evenodd;fill:#58763E;" d="M127.5,30c1.833,2.167,2.75,4.717,2.75,7.65
		c0,3.267-1.167,6.083-3.5,8.45c-2.366,2.334-5.2,3.5-8.5,3.5s-6.134-1.166-8.5-3.5c-0.6-0.6-1.116-1.216-1.55-1.85
		c-1.3-1.934-1.95-4.134-1.95-6.6c0-3.333,1.167-6.167,3.5-8.5c2.333-2.333,5.167-3.5,8.5-3.5c3.3,0,6.134,1.167,8.5,3.5
		C127.017,29.417,127.267,29.7,127.5,30z M126.05,33.6v-2.95H111.2v2.95h5.2v12.45h4.399V33.6H126.05z"/>
	<path style="fill-rule:evenodd;clip-rule:evenodd;fill:#131410;" d="M0.5,47.7l0.4-0.75c-0.033,0.666,0,1.583,0.1,2.75
		c0.1,1.366,0.15,2.3,0.15,2.8c0,1,0.1,2.05,0.3,3.15c0.133,0.566,0.15,1.366,0.05,2.399C1.4,59.15,1.383,59.934,1.45,60.4
		c0.3-0.034,0.517-0.2,0.65-0.5c0.066,0.366,0.117,1.033,0.15,2c0.033,0.866,0.117,1.533,0.25,2c0.933-0.233,1.5-0.95,1.7-2.15
		c0.433,0.333,0.733,0.8,0.9,1.4c-0.067,0.566-0.033,0.916,0.1,1.05c0.133,0.166,0.35,0.25,0.65,0.25c0.467,0,0.717,0,0.75,0
		c0.2,0.033,0.566,0.2,1.1,0.5c0.933,0.467,2.333,0.649,4.2,0.55c2.267-0.134,3.75-0.134,4.45,0c1.867,0.366,3.133,0.517,3.8,0.45
		c0.6-0.066,1.1-0.167,1.5-0.3c0.667-0.567,1.083-0.867,1.25-0.9c0.233-0.033,0.45,0.017,0.65,0.15
		c0.267,0.199,0.483,0.35,0.65,0.449c0.466,0.233,1.1,0.351,1.9,0.351h6.25c0.433,0,0.9-0.084,1.4-0.25
		c0.7-0.267,1.167-0.417,1.4-0.45c0.367-0.066,0.833-0.066,1.4,0c0.833,0.134,1.284,0.2,1.35,0.2c1-0.101,1.733-0.117,2.2-0.05
		c0.867,0.166,1.566,0.267,2.1,0.3l2.7-0.101l2,0.4c0.934,0.2,1.6,0.184,2-0.05c0.4-0.2,0.55-0.45,0.45-0.75
		c-0.167-0.467-0.233-0.783-0.2-0.95c0.934-0.134,1.934-0.15,3-0.05c-0.1,0.166-0.167,0.467-0.2,0.899
		c0.7,0.233,1.716,0.317,3.05,0.25c1.467-0.1,2.5-0.149,3.1-0.149c3.833-0.3,6.617-0.316,8.35-0.05c0.367,0.066,1.05,0.267,2.05,0.6
		c0.867,0.267,1.567,0.417,2.1,0.45c1.267-0.101,2.2-0.084,2.8,0.05c0.6,0.233,1.083,0.384,1.45,0.45c0.6,0.1,1.4,0.166,2.4,0.2
		c1.4,0.033,2.2,0.05,2.4,0.05c0.633,0.033,1.25-0.066,1.85-0.3c0.667-0.301,1.233-0.534,1.7-0.7c0.533-0.167,1.316-0.25,2.35-0.25
		c1.434,0.033,2.233,0.05,2.4,0.05c0.1,0,0.184-0.05,0.25-0.15c0.066-0.066,0.2-0.083,0.399-0.05c0.167,0,0.4,0.101,0.7,0.3
		c0.3,0.2,0.517,0.317,0.65,0.351c0.399,0.1,0.967,0.133,1.7,0.1c0.833-0.066,1.416-0.1,1.75-0.1h16.3c1.6,0,2.733-0.101,3.399-0.3
		c0.134-0.267,0.301-0.434,0.5-0.5c0.634,0.166,1.067,0.25,1.301,0.25c0.1,0,0.216-0.101,0.35-0.301
		c0.134-0.166,0.267-0.216,0.4-0.149c0.166,0.066,0.3,0.267,0.399,0.6c0.101,0.367,0.2,0.601,0.3,0.7
		c0.167,0.134,0.417,0.217,0.75,0.25c0.4-0.033,0.684-0.05,0.851-0.05c2.133,0,3.717-0.066,4.75-0.2c2.233-0.3,3.899-0.233,5,0.2
		c0.666,0.467,1.316,0.717,1.95,0.75c0.767,0.066,1.433,0.05,2-0.05l0.649-0.25c0.134-0.034,0.384-0.017,0.75,0.05
		c2.834,0.333,4.533,0.5,5.101,0.5c1.633,0.066,2.866,0.1,3.699,0.1c1.534,0.066,2.767,0.033,3.7-0.1c0.601-0.066,1.5-0.25,2.7-0.55
		c1.134-0.267,2.017-0.434,2.65-0.5c0.933,0.033,1.666,0.066,2.199,0.1c1,0.033,1.667-0.15,2-0.55c0.5-0.634,0.784-1.617,0.851-2.95
		c0.267-0.1,0.583-0.033,0.95,0.2c0.3,0.2,0.566,0.184,0.8-0.05s0.35-0.817,0.35-1.75c-0.033-0.467-0.066-1.034-0.1-1.7
		c0.033,0.2,0.149,0.35,0.35,0.45c0.233,0.1,0.5,0.1,0.8,0l0.25-1.2c-0.633-0.367-2.017-1.351-4.149-2.95
		c-1.733-1.333-2.767-2.017-3.101-2.05c-0.233-0.033-1.05,0.033-2.449,0.2c-1.867,0.166-4.233,0.233-7.101,0.199
		c-1.566-0.033-3.934-0.083-7.1-0.149c-2.467,0-6.217-0.084-11.25-0.25h-22.5c-2.134,0-5.316,0.083-9.55,0.25
		c-1.334,0-3.617-0.101-6.851-0.3c-2.9-0.2-5.183-0.267-6.85-0.2c0.3-0.167,0.8-0.283,1.5-0.351c0.7-0.066,1.183-0.183,1.45-0.35
		c0.133-0.066,0.267-0.184,0.4-0.35c0.133-0.2,0.25-0.334,0.35-0.4s0.267-0.134,0.5-0.2c0.233-0.033,0.4-0.149,0.5-0.35
		c0.267,0.233,0.6,0.316,1,0.25l0.25,0.25c0.5,0.267,1.116,0.416,1.85,0.45c0.9,0.033,1.55,0.05,1.95,0.05
		c0.133,0,1.066,0.083,2.8,0.25c1.1,0.1,2.017,0.083,2.75-0.05c2.566-0.434,4.283-0.834,5.15-1.2c0.933-0.367,1.633-0.65,2.1-0.851
		c0.8-0.366,1.384-0.767,1.75-1.199c0.566-1,0.95-1.5,1.15-1.5c0.133,0,0.383,0.149,0.75,0.449c0.433,0.367,0.683,0.567,0.75,0.601
		c1.066,0.566,2.316,1.066,3.75,1.5c1.399,0.467,2.466,0.816,3.199,1.05c0.634,0.233,2.051,0.384,4.25,0.45
		c3,0.1,4.684,0.133,5.051,0.1c1.767-0.133,3.35-0.616,4.75-1.45c1.733-1.133,3.05-1.966,3.949-2.5c0.7-0.399,1.367-0.616,2-0.649
		c1.667-0.134,2.617-0.134,2.851,0c0.267,0.166,0.483,0.517,0.649,1.05c0.2,0.533,0.45,0.917,0.75,1.15
		c0.067,0.033,0.351,0.199,0.851,0.5c0.233,0.133,0.45,0.333,0.649,0.6c0.067,0.1,0.134,0.3,0.2,0.6
		c0.033,0.267,0.134,0.45,0.3,0.551c0.134,0.066,0.334,0.1,0.601,0.1c0.366-0.033,0.583-0.05,0.649-0.05
		c1.434,0.166,2.267,0.25,2.5,0.25c0.567,0.033,1,0.066,1.301,0.1c0.533,0,0.949-0.033,1.25-0.1c0.166-0.033,0.416-0.15,0.75-0.351
		c0.3-0.199,0.55-0.316,0.75-0.35c0.267-0.066,0.533-0.05,0.8,0.05c0.3,0.101,0.55,0.15,0.75,0.15c0.333,0,0.916-0.233,1.75-0.7
		c0.8-0.434,1.6-1.05,2.399-1.85c0.867-0.967,1.551-1.7,2.051-2.2c1.933-1.934,2.916-2.917,2.949-2.95
		c1.667-1.967,3.034-4.25,4.101-6.85v27.7c0,1.101-0.384,2.051-1.15,2.851c-0.8,0.767-1.75,1.149-2.85,1.149H4.5
		c-0.067,0-0.133,0-0.2,0H4.25L3.2,68.9c-0.333-0.101-0.633-0.25-0.9-0.45L1.85,68.1c-0.067-0.066-0.117-0.116-0.15-0.149
		c-0.8-0.8-1.2-1.75-1.2-2.851V47.7z"/>
	<path style="fill-rule:evenodd;clip-rule:evenodd;fill:#FFFFFF;" d="M86.8,9.65c2.134,0,3.2,1.05,3.2,3.15v2.6
		c0,0.9,0.033,1.483,0.1,1.75h-2.05L87.9,16.4c-0.5,0.6-1.217,0.9-2.15,0.9c-0.7,0-1.267-0.216-1.7-0.65
		c-0.433-0.433-0.65-0.967-0.65-1.6c0-1.867,1.433-2.8,4.3-2.8v-0.1c0-0.633-0.434-0.95-1.3-0.95c-0.767,0-1.45,0.183-2.051,0.55
		L83.95,10.3C84.684,9.867,85.634,9.65,86.8,9.65z M87.75,14.9l0.05-0.4v-0.8c-1.434,0-2.149,0.383-2.149,1.15
		c0,0.566,0.3,0.85,0.899,0.85C87.184,15.7,87.583,15.433,87.75,14.9z M82.1,17.15h-2L80,16.1h-0.05c-0.434,0.8-1.2,1.2-2.3,1.2
		c-0.9,0-1.633-0.333-2.2-1c-0.6-0.7-0.9-1.617-0.9-2.75c-0.033-1.167,0.284-2.117,0.95-2.85c0.633-0.7,1.4-1.05,2.3-1.05
		c0.934,0,1.583,0.267,1.95,0.8V6.5h2.3L82.1,17.15z M77.25,12c-0.267,0.4-0.4,0.9-0.4,1.5c0,1.333,0.517,2,1.55,2
		c0.733,0,1.184-0.367,1.35-1.1v-1.9c-0.167-0.733-0.617-1.1-1.35-1.1C77.9,11.4,77.517,11.6,77.25,12z M63.4,9.8l0.05,1.35h0.1
		c0.333-1,0.983-1.5,1.95-1.5L66,9.7v2.15l-0.6-0.1c-0.9,0-1.433,0.383-1.6,1.15l-0.05,0.55v3.7H61.5L61.45,9.8H63.4z M67.05,10.3
		c0.8-0.433,1.75-0.65,2.85-0.65c2.167,0,3.25,1.05,3.25,3.15v2.6c0,0.9,0.033,1.483,0.1,1.75H71.2l-0.15-0.75H71
		c-0.433,0.6-1.133,0.9-2.1,0.9c-0.7,0-1.267-0.216-1.7-0.65c-0.434-0.433-0.65-0.967-0.65-1.6c0-1.867,1.434-2.8,4.3-2.8v-0.1
		c0-0.633-0.45-0.95-1.35-0.95c-0.767,0-1.433,0.183-2,0.55L67.05,10.3z M69.7,15.7c0.633,0,1.033-0.267,1.2-0.8l0.05-0.4v-0.8
		c-1.434,0-2.15,0.383-2.15,1.15C68.8,15.417,69.1,15.7,69.7,15.7z M52.45,10.1c0,1.066-0.3,1.867-0.9,2.4
		c-0.767,0.733-1.867,1.1-3.3,1.1l-0.8-0.05v3.6H45.2V7.2c0.767-0.167,1.8-0.25,3.1-0.25c1.333,0,2.367,0.283,3.1,0.85
		C52.1,8.333,52.45,9.1,52.45,10.1z M56.05,11.2c-0.767,0-1.433,0.183-2,0.55L53.6,10.3c0.8-0.433,1.75-0.65,2.85-0.65
		c2.167,0,3.25,1.05,3.25,3.15v2.6c0,0.9,0.033,1.483,0.1,1.75h-2.05L57.6,16.4h-0.05c-0.433,0.6-1.133,0.9-2.1,0.9
		c-0.7,0-1.267-0.216-1.7-0.65c-0.433-0.433-0.65-0.967-0.65-1.6c0-1.867,1.433-2.8,4.3-2.8v-0.1C57.4,11.517,56.95,11.2,56.05,11.2
		z M48.4,8.7c-0.367,0-0.683,0.033-0.95,0.1v2.95c0.267,0.067,0.533,0.1,0.8,0.1c0.6,0,1.083-0.15,1.45-0.45
		c0.333-0.3,0.5-0.7,0.5-1.2C50.2,9.2,49.6,8.7,48.4,8.7z M57.45,14.9v-1.2c-1.4,0-2.1,0.383-2.1,1.15c0,0.566,0.3,0.85,0.9,0.85
		C56.883,15.7,57.283,15.433,57.45,14.9z M36.9,11.3c-1,0-1.5,0.733-1.5,2.2s0.5,2.2,1.5,2.2c0.434,0,0.783-0.2,1.05-0.6
		c0.267-0.434,0.4-0.983,0.4-1.65c0-0.567-0.117-1.05-0.35-1.45C37.733,11.533,37.367,11.3,36.9,11.3z M32.2,11.5h-1.65v2.65
		c0,0.867,0.3,1.3,0.9,1.3l0.7-0.05v1.7c-0.4,0.133-0.883,0.2-1.45,0.2c-0.733,0-1.317-0.216-1.75-0.65c-0.4-0.4-0.6-1.117-0.6-2.15
		v-3h-1V9.8h1V8.45l2.2-0.6V9.8h1.65V11.5z M36.95,9.65c1.133,0,2.033,0.35,2.7,1.05c0.7,0.7,1.05,1.6,1.05,2.7
		c0,1.267-0.4,2.25-1.2,2.95c-0.7,0.633-1.6,0.95-2.7,0.95c-1.1,0-2-0.333-2.7-1c-0.733-0.7-1.1-1.617-1.1-2.75
		c0-1.2,0.367-2.15,1.1-2.85C34.8,10,35.75,9.65,36.95,9.65z M21.35,10.85h0.05c0.467-0.8,1.217-1.2,2.25-1.2
		c0.8,0,1.417,0.25,1.85,0.75c0.5,0.567,0.75,1.367,0.75,2.4v4.35H24V13.1c0-1.067-0.383-1.6-1.15-1.6c-0.5,0-0.9,0.283-1.2,0.85
		L21.6,12.9v4.25h-2.3L19.25,9.8h2L21.35,10.85z M14.8,9.7c-0.466-0.667-1.066-1-1.8-1c-0.767,0-1.383,0.316-1.85,0.95
		c-0.433,0.633-0.65,1.45-0.65,2.45s0.217,1.816,0.65,2.45c0.467,0.633,1.083,0.95,1.85,0.95s1.367-0.317,1.8-0.95
		c0.4-0.633,0.6-1.466,0.6-2.5C15.4,11.117,15.2,10.333,14.8,9.7z M17.85,12c0,1.633-0.45,2.933-1.35,3.9
		c-0.933,0.934-2.15,1.4-3.65,1.4c-1.434,0-2.6-0.5-3.5-1.5c-0.833-0.933-1.25-2.15-1.25-3.65c0-1.533,0.45-2.783,1.35-3.75
		c0.933-1.033,2.133-1.55,3.6-1.55c1.5,0,2.684,0.517,3.55,1.55C17.433,9.333,17.85,10.533,17.85,12z"/>
	<path style="fill-rule:evenodd;clip-rule:evenodd;fill:#69382B;" d="M100.65,30.6c1.5,2.033,2.25,4.383,2.25,7.05
		c0,3.3-1.167,6.117-3.5,8.45c-2.334,2.334-5.167,3.5-8.5,3.5c-3.301,0-6.117-1.166-8.45-3.5c-0.467-0.466-0.867-0.933-1.2-1.399
		c-1.567-2.066-2.35-4.417-2.35-7.05c0-3.333,1.184-6.167,3.55-8.5c2.333-2.333,5.149-3.5,8.45-3.5c3.333,0,6.166,1.167,8.5,3.5
		C99.866,29.617,100.283,30.1,100.65,30.6z M94.55,30.55c0.5,0,0.75,0.25,0.75,0.75v2.55c0,0.5-0.25,0.75-0.75,0.75H91.3v-4.05
		H94.55z M95.05,29.35h-8.3c-0.366,0-0.684,0.117-0.95,0.35c-0.267,0.267-0.399,0.583-0.399,0.95v9.4c0,0.367,0.133,0.667,0.399,0.9
		s0.584,0.35,0.95,0.35h8.3c0.367,0,0.684-0.116,0.95-0.35s0.4-0.533,0.4-0.9v-9.4c0-0.367-0.134-0.683-0.4-0.95
		C95.733,29.467,95.417,29.35,95.05,29.35z M94.1,36.2c0.634,0,0.95,0.3,0.95,0.9c0,0.267-0.083,0.483-0.25,0.65
		c-0.2,0.2-0.434,0.3-0.7,0.3s-0.5-0.1-0.699-0.3c-0.167-0.167-0.25-0.383-0.25-0.65C93.15,36.5,93.467,36.2,94.1,36.2z M90.5,30.55
		v4.05h-3.25c-0.5,0-0.75-0.25-0.75-0.75V31.3c0-0.2,0.083-0.367,0.25-0.5c0.134-0.167,0.3-0.25,0.5-0.25H90.5z M88.4,36.45
		c0.199,0.2,0.3,0.417,0.3,0.65c0,0.267-0.101,0.483-0.3,0.65c-0.2,0.2-0.434,0.3-0.7,0.3c-0.233,0-0.45-0.1-0.65-0.3
		c-0.2-0.167-0.3-0.383-0.3-0.65c0-0.233,0.1-0.45,0.3-0.65c0.167-0.167,0.384-0.25,0.65-0.25S88.2,36.283,88.4,36.45z M87.1,42
		L83.7,45.05c-0.1,0.066-0.15,0.184-0.15,0.351c-0.033,0.133,0,0.233,0.1,0.3c0.2,0.2,0.45,0.217,0.75,0.05l0.75-0.65H96.6
		c0.034,0,0.084,0,0.15,0l0.7,0.65c0.233,0.2,0.467,0.184,0.7-0.05c0.1-0.066,0.149-0.167,0.149-0.3c0-0.167-0.05-0.284-0.149-0.351
		L94.75,42c-0.267-0.2-0.517-0.184-0.75,0.05c-0.1,0.134-0.134,0.25-0.1,0.351H88c0-0.101-0.066-0.217-0.2-0.351
		C87.566,41.816,87.333,41.8,87.1,42z M86.95,43.45h8l0.6,0.55h-9.2L86.95,43.45z"/>
</g>
</svg>
