<?xml version="1.0" encoding="iso-8859-1"?>
<!-- Generator: Adobe Illustrator 16.0.0, SVG Export Plug-In . SVG Version: 6.00 Build 0)  -->
<!DOCTYPE svg PUBLIC "-//W3C//DTD SVG 1.1//EN" "http://www.w3.org/Graphics/SVG/1.1/DTD/svg11.dtd">
<svg version="1.1" id="FlashAICB" xmlns="http://www.w3.org/2000/svg" xmlns:xlink="http://www.w3.org/1999/xlink" x="0px" y="0px"
	 width="25.253px" height="549.717px" viewBox="0 0 25.253 549.717" style="enable-background:new 0 0 25.253 549.717;"
	 xml:space="preserve">
<g>
	<path style="fill-rule:evenodd;clip-rule:evenodd;fill:#24241F;" d="M5.672,543.354v2.051c-0.1,0.199-0.15,0.383-0.15,0.55v0.05
		c0,0.333,0.15,0.634,0.45,0.9c0.367,0.366,0.966,0.666,1.8,0.899c0.233,0.066,0.483,0.134,0.75,0.2
		c0.279,0.064,0.554,0.114,0.825,0.15c0.141,0.021,0.282,0.038,0.425,0.05l1.15,0.05c1.5,0,2.784-0.233,3.85-0.7
		c1.066-0.434,1.6-0.967,1.6-1.6c0-0.101-0.066-0.283-0.199-0.55v-3.101c3.6,0.367,6.199,1.167,7.8,2.4
		c1.833,1.467,1.7,2.649-0.4,3.55c-2.033,0.866-4.967,1.35-8.8,1.45c-4.333,0.1-8.4-0.384-12.2-1.45
		c-3.633-1.033-3.417-2.366,0.65-4C4.055,543.921,4.872,543.621,5.672,543.354z"/>
	<path style="fill-rule:evenodd;clip-rule:evenodd;fill:#2F2E27;" d="M16.172,7.654v-2.05c0.133-0.2,0.199-0.383,0.199-0.55
		c0-0.633-0.533-1.167-1.6-1.6c-1.066-0.467-2.35-0.7-3.85-0.7c-1.5,0-2.767,0.233-3.8,0.7c-1.067,0.433-1.6,0.966-1.6,1.6
		c0,0.233,0.05,0.417,0.15,0.55v1.4c-1.066-0.2-2.1-0.45-3.1-0.75c-3.633-1.033-3.417-2.383,0.65-4.05
		c3.767-1.534,7.05-2.267,9.85-2.2c5.233,0.2,8.867,1.1,10.9,2.7c1.833,1.466,1.7,2.65-0.4,3.55
		C21.805,7.021,19.338,7.488,16.172,7.654z"/>
	<path style="fill-rule:evenodd;clip-rule:evenodd;fill:#8E8D7A;" d="M5.672,543.354V11.004c1.167,0.1,1.983,0.383,2.45,0.85
		c0.933,0.967,1.683,2.816,2.25,5.55l0.55,3.75v518l-1.25,2.85c-1.167,2-2.55,3.333-4.15,4v-0.05c0-0.167,0.05-0.351,0.15-0.55
		V543.354z M8.122,32.254c-0.3,0-0.55,24.117-0.75,72.35c-0.233,48.433-0.35,106.667-0.35,174.7s0.117,126.267,0.35,174.7
		c0.2,48.233,0.45,72.35,0.75,72.35c0.333,0,0.6-24.116,0.8-72.35c0.233-47.866,0.35-106.1,0.35-174.7
		c0-68.6-0.117-126.833-0.35-174.7C8.722,56.371,8.455,32.254,8.122,32.254z"/>
	<path style="fill-rule:evenodd;clip-rule:evenodd;fill:#5F5E52;" d="M5.672,7.504c3.467,0,5.783,0.483,6.95,1.45
		c1.167,0.966,1.801,2.517,1.9,4.65l-0.2,2.9v525.55l-1.55,2.101c-1.3,1.6-2.717,2.883-4.25,3.85c-0.267-0.066-0.517-0.134-0.75-0.2
		c-0.833-0.233-1.433-0.533-1.8-0.899c-0.3-0.267-0.45-0.567-0.45-0.9c1.6-0.667,2.983-2,4.15-4l1.25-2.85v-518l-0.55-3.75
		c-0.567-2.733-1.317-4.583-2.25-5.55c-0.467-0.467-1.283-0.75-2.45-0.85V7.504z"/>
	<path style="fill-rule:evenodd;clip-rule:evenodd;fill:#3B3A30;" d="M16.172,7.654v534.65v3.101
		c0.133,0.267,0.199,0.449,0.199,0.55c0,0.633-0.533,1.166-1.6,1.6c-1.066,0.467-2.35,0.7-3.85,0.7l-1.15-0.05
		c-0.143-0.012-0.284-0.028-0.425-0.05c-0.271-0.036-0.546-0.086-0.825-0.15c1.533-0.967,2.95-2.25,4.25-3.85l1.55-2.101V16.504
		l0.2-2.9c-0.1-2.133-0.733-3.684-1.9-4.65c-1.167-0.967-3.483-1.45-6.95-1.45v-0.5v-1.4c-0.1-0.133-0.15-0.317-0.15-0.55
		c0-0.633,0.533-1.167,1.6-1.6c1.033-0.467,2.3-0.7,3.8-0.7c1.5,0,2.784,0.233,3.85,0.7c1.066,0.433,1.6,0.966,1.6,1.6
		c0,0.167-0.066,0.35-0.199,0.55V7.654z"/>
	<path style="fill-rule:evenodd;clip-rule:evenodd;fill:#C7C7B1;" d="M8.122,32.254c0.333,0,0.6,24.117,0.8,72.35
		c0.233,47.867,0.35,106.1,0.35,174.7c0,68.601-0.117,126.834-0.35,174.7c-0.2,48.233-0.467,72.35-0.8,72.35
		c-0.3,0-0.55-24.116-0.75-72.35c-0.233-48.434-0.35-106.667-0.35-174.7s0.117-126.267,0.35-174.7
		C7.572,56.371,7.822,32.254,8.122,32.254z"/>
</g>
</svg>
