<?xml version="1.0" encoding="iso-8859-1"?>
<!-- Generator: Adobe Illustrator 16.0.0, SVG Export Plug-In . SVG Version: 6.00 Build 0)  -->
<!DOCTYPE svg PUBLIC "-//W3C//DTD SVG 1.1//EN" "http://www.w3.org/Graphics/SVG/1.1/DTD/svg11.dtd">
<svg version="1.1" id="FlashAICB" xmlns="http://www.w3.org/2000/svg" xmlns:xlink="http://www.w3.org/1999/xlink" x="0px" y="0px"
	 width="24.05px" height="22.4px" viewBox="0 0 24.05 22.4" style="enable-background:new 0 0 24.05 22.4;" xml:space="preserve">
<g>
	<g>
		<path style="fill-rule:evenodd;clip-rule:evenodd;fill:#E4E4E4;" d="M24.05,11.2c0,3.1-1.184,5.75-3.55,7.95
			c-2.333,2.166-5.167,3.25-8.5,3.25c-3.3,0-6.117-1.084-8.45-3.25C1.183,16.95,0,14.3,0,11.2c0-3.067,1.183-5.7,3.55-7.9
			C5.883,1.1,8.7,0,12,0c3.333,0,6.167,1.1,8.5,3.3C22.866,5.5,24.05,8.133,24.05,11.2z M14.6,9c-0.699-0.633-1.533-0.95-2.5-0.95
			c-0.966,0-1.783,0.317-2.45,0.95c-0.667,0.633-1,1.4-1,2.3c0,0.867,0.333,1.617,1,2.25c0.7,0.634,1.517,0.95,2.45,0.95
			c0.967,0,1.801-0.316,2.5-0.95c0.667-0.633,1-1.383,1-2.25C15.6,10.4,15.267,9.633,14.6,9z M17.2,11.3c0,1.3-0.5,2.417-1.5,3.351
			C14.7,15.55,13.5,16,12.1,16c-1.399,0-2.6-0.45-3.6-1.35C7.5,13.717,7,12.6,7,11.3c0-1.333,0.5-2.45,1.5-3.35
			c1-0.934,2.2-1.4,3.6-1.4c1.4,0,2.601,0.467,3.601,1.4C16.7,8.85,17.2,9.967,17.2,11.3z M16.7,6.9c-1.3-1.2-2.867-1.8-4.7-1.8
			c-1.833,0-3.383,0.6-4.65,1.8C6.05,8.1,5.4,9.533,5.4,11.2c0,1.7,0.65,3.149,1.95,4.35c1.267,1.167,2.816,1.75,4.65,1.75
			c1.866,0,3.434-0.583,4.7-1.75c1.3-1.2,1.95-2.65,1.95-4.35C18.65,9.533,18,8.1,16.7,6.9z M19.65,11.2
			c0,1.967-0.75,3.649-2.25,5.05c-1.467,1.366-3.267,2.05-5.4,2.05c-2.1,0-3.883-0.684-5.35-2.05c-1.5-1.4-2.25-3.083-2.25-5.05
			s0.75-3.633,2.25-5C8.117,4.8,9.9,4.1,12,4.1c2.134,0,3.934,0.7,5.4,2.1C18.9,7.567,19.65,9.233,19.65,11.2z M12,2
			C9.267,2,6.917,2.9,4.95,4.7C2.983,6.5,2,8.667,2,11.2c0,2.533,0.983,4.7,2.95,6.5c1.933,1.8,4.283,2.7,7.05,2.7
			s5.134-0.9,7.1-2.7c1.967-1.8,2.95-3.967,2.95-6.5c0-2.534-0.983-4.7-2.95-6.5C17.134,2.9,14.767,2,12,2z"/>
		<path style="fill-rule:evenodd;clip-rule:evenodd;fill:#75BDEA;" d="M14.6,9c0.667,0.633,1,1.4,1,2.3c0,0.867-0.333,1.617-1,2.25
			c-0.699,0.634-1.533,0.95-2.5,0.95c-0.933,0-1.75-0.316-2.45-0.95c-0.667-0.633-1-1.383-1-2.25c0-0.9,0.333-1.667,1-2.3
			c0.667-0.633,1.483-0.95,2.45-0.95C13.066,8.05,13.9,8.367,14.6,9z"/>
		<path style="fill-rule:evenodd;clip-rule:evenodd;fill:#97AF63;" d="M12,2c2.767,0,5.134,0.9,7.1,2.7
			c1.967,1.8,2.95,3.966,2.95,6.5c0,2.533-0.983,4.7-2.95,6.5c-1.966,1.8-4.333,2.7-7.1,2.7s-5.117-0.9-7.05-2.7
			C2.983,15.9,2,13.733,2,11.2c0-2.534,0.983-4.7,2.95-6.5C6.917,2.9,9.267,2,12,2z M19.65,11.2c0-1.967-0.75-3.633-2.25-5
			c-1.467-1.4-3.267-2.1-5.4-2.1c-2.1,0-3.883,0.7-5.35,2.1c-1.5,1.367-2.25,3.033-2.25,5s0.75,3.649,2.25,5.05
			C8.117,17.616,9.9,18.3,12,18.3c2.134,0,3.934-0.684,5.4-2.05C18.9,14.85,19.65,13.167,19.65,11.2z M16.7,6.9
			c1.3,1.2,1.95,2.633,1.95,4.3c0,1.7-0.65,3.149-1.95,4.35c-1.267,1.167-2.834,1.75-4.7,1.75c-1.833,0-3.383-0.583-4.65-1.75
			c-1.3-1.2-1.95-2.65-1.95-4.35c0-1.667,0.65-3.1,1.95-4.3C8.617,5.7,10.167,5.1,12,5.1C13.833,5.1,15.4,5.7,16.7,6.9z M17.2,11.3
			c0-1.333-0.5-2.45-1.5-3.35c-1-0.934-2.2-1.4-3.601-1.4c-1.399,0-2.6,0.467-3.6,1.4C7.5,8.85,7,9.967,7,11.3
			c0,1.3,0.5,2.417,1.5,3.351c1,0.899,2.2,1.35,3.6,1.35c1.4,0,2.601-0.45,3.601-1.35C16.7,13.717,17.2,12.6,17.2,11.3z"/>
	</g>
</g>
</svg>
