<?xml version="1.0" encoding="iso-8859-1"?>
<!-- Generator: Adobe Illustrator 16.0.0, SVG Export Plug-In . SVG Version: 6.00 Build 0)  -->
<!DOCTYPE svg PUBLIC "-//W3C//DTD SVG 1.1//EN" "http://www.w3.org/Graphics/SVG/1.1/DTD/svg11.dtd">
<svg version="1.1" id="FlashAICB" xmlns="http://www.w3.org/2000/svg" xmlns:xlink="http://www.w3.org/1999/xlink" x="0px" y="0px"
	 width="158.35px" height="152.65px" viewBox="0 0 158.35 152.65" style="enable-background:new 0 0 158.35 152.65;"
	 xml:space="preserve">
<g>
	<path style="fill-rule:evenodd;clip-rule:evenodd;fill:#61615A;" d="M7,98.55l-0.35,0.8L17.4,109.65
		c0.267,0.267,0.55,0.533,0.85,0.8l10.625,10.375c0.225,0.233,0.45,0.475,0.675,0.725c-2.667-0.2-4.633-0.383-5.9-0.55
		c-0.767-0.1-1.217-0.217-1.35-0.35c-0.3-0.334-1.066-0.784-2.3-1.351c-1.533-0.666-3.617-2.767-6.25-6.3
		c-2.5-3.634-3.983-5.733-4.45-6.3c-0.867-1.101-3.966-4.101-9.3-9C3.967,97.7,6.3,97.983,7,98.55z M60.2,152.2
		c-0.233,0.033-0.467,0.066-0.7,0.1l-2.85,0.351c-1.333-0.233-2.45-0.784-3.35-1.65c-8.867-9.566-14.083-15.134-15.65-16.7
		c-0.967-0.967-2.983-3.083-6.05-6.35l-4.3-4.65l4-0.05c0.064,0.064,0.131,0.131,0.2,0.2l4.35,4.45
		C36.75,128.833,44.867,136.934,60.2,152.2z"/>
	<path style="fill-rule:evenodd;clip-rule:evenodd;fill:#777670;" d="M100.4,100.35c0,0.267,0,0.434,0,0.5
		c0.066,0.667,0.216,1.233,0.449,1.7c0.2,0.367,0.634,0.917,1.301,1.65c0.6,0.666,1,1.233,1.199,1.7
		c0.667,1.233,1.15,2.183,1.45,2.85c0.5,1.1,0.7,2.134,0.601,3.1c-0.067,1.067-0.65,1.65-1.75,1.75
		c-0.767-0.066-1.417-0.083-1.95-0.05c-0.101-0.5,0.55-0.95,1.95-1.35c1.399-0.4,1.916-0.867,1.55-1.4c-0.834,0.3-2,0.434-3.5,0.4
		c-1.634-0.101-2.8-0.167-3.5-0.2c-1.834-0.066-3.5-0.366-5-0.9c-2.066-0.699-3.384-1.699-3.95-3c-0.267-0.666-0.384-1.35-0.35-2.05
		c0-0.866,0.267-1.434,0.8-1.7c0.233-0.133,0.75-0.183,1.55-0.149c0.9,0.033,1.45,0.017,1.65-0.05c0.6-0.167,1.383-0.467,2.35-0.9
		c-1.533-0.4-2.467-1.533-2.8-3.4c-0.101-0.5-0.15-2.1-0.15-4.8c0-1.666,0.066-2.767,0.2-3.3c0.233-0.967,0.85-1.884,1.85-2.75
		c0.267-0.233,0.634-0.55,1.101-0.95c0.3-0.366,0.316-0.816,0.05-1.35c-0.134-0.267-0.517-0.65-1.15-1.15
		c-0.399-0.3-0.55-0.8-0.449-1.5c0.133-0.8,0.517-1.633,1.149-2.5c0.367-0.5,0.917-1.25,1.65-2.25c0.2-0.333,0.467-0.816,0.8-1.45
		c0.3-0.533,0.684-0.917,1.15-1.15c0.1-0.067,0.399-0.15,0.899-0.25c0.4-0.1,0.65-0.233,0.75-0.4c0.2-0.267,0.2-0.667,0-1.2
		c-0.133-0.267-0.316-0.65-0.55-1.15c-0.267-0.7-0.366-1.233-0.3-1.6c0.033-0.267,0.217-0.75,0.55-1.45c0.2-0.433,0.384-1.1,0.55-2
		c0.167-0.9,0.334-1.55,0.5-1.95c0.066-0.167,0.617-1.05,1.65-2.65c0.366-0.566,1.066-1.117,2.1-1.65
		c1.101-0.566,1.834-1.066,2.2-1.5c0.167-0.2,0.366-0.583,0.6-1.15c0.233-0.533,0.467-0.917,0.7-1.15
		c0.233-0.2,0.684-0.434,1.351-0.7c0.6-0.267,1.033-0.55,1.3-0.85c0.166-0.2,0.416-0.683,0.75-1.45c0.3-0.667,0.616-1.1,0.95-1.3
		c0.833-0.5,2.216-0.716,4.149-0.65c0.934,0.067,1.717,0.167,2.351,0.3c2.166,0.633,4.649,1.133,7.449,1.5
		c0.067,1.2-0.633,2.25-2.1,3.15c-1.2,0.733-2.483,1.183-3.85,1.35c0.767,1.167,2.517,1.566,5.25,1.2c2.3-0.3,3.566,0.6,3.8,2.7
		c0.166,1.566,0.149,4.267-0.05,8.1c-0.067,1.3,0.083,2.733,0.449,4.3c0.534,1.8,0.917,3.167,1.15,4.1
		c0.333,1.233,0.517,2.467,0.55,3.7l0.65-0.7l-1.3,1.5c-0.034,0.5-0.134,0.95-0.301,1.351l0.301-0.351l-0.5,0.9l0.199-0.55
		c-0.733,0.8-1.633,1.434-2.699,1.899c-0.967-0.767-1.967-1.566-3-2.399l-6.2-5.05l-8.3-6.8l-6.351,0.5v0.15
		c-0.5,0.6-0.733,1.433-0.7,2.5c0,0.433,0.017,0.833,0.051,1.2L103.05,80.6c-0.1,0.2-0.2,0.417-0.3,0.65
		c-0.467,1.134-0.767,1.934-0.9,2.4c-0.699,2.433-1.1,4.25-1.199,5.449l-0.5,4.75c-0.167,1.101-0.301,1.934-0.4,2.5
		c-0.2,1.067-0.233,1.9-0.1,2.5C99.75,99.417,100,99.917,100.4,100.35z M132.65,62.5l0.05,1.2l-0.05-0.55V62.5z M115.8,50.35
		l0.2,0.2l-0.35-0.05c-1.434,0.033-2.567,0.05-3.4,0.05l-0.8-0.05L115.8,50.35z M76.65,115.85l0.05-1.1l0.3-0.5L76.65,115.85z"/>
	<path style="fill-rule:evenodd;clip-rule:evenodd;fill:#6B6B64;" d="M101.7,113.55c-0.434,0-0.783,0.017-1.05,0.05
		c-0.167,0.934,0.783,1.434,2.85,1.5c2.566,0.101,3.866,0.167,3.9,0.2c0.5,0.3,0.649,0.9,0.449,1.8c-0.199,0.9-0.05,1.467,0.45,1.7
		c0.4,0.167,1.033,0.2,1.9,0.101c0.934-0.167,1.566-0.2,1.899-0.101c0.467,0.134,1,0.517,1.601,1.15
		c0.333,0.366,0.783,0.866,1.35,1.5c0.601,0.5,1.184,0.767,1.75,0.8c0.4,0.934,0.634,1.616,0.7,2.05
		c-0.667,1.667-1.434,2.684-2.3,3.05c-0.767,0.301-1.783,0.334-3.05,0.101l-0.051-1.55c-0.8,0.1-1.5-0.267-2.1-1.101
		c-0.634-0.899-1.384-1.366-2.25-1.399c-1.467,0.267-2.616,0.449-3.45,0.55c-1.6,0.166-2.616-0.167-3.05-1
		c0.566-0.4,1.017-0.884,1.35-1.45c-1.199,1.2-2.616,1.934-4.25,2.2c-1.133,0.166-2.783,0.149-4.949-0.05
		c0.333,0.566,1.066,1.166,2.199,1.8c0.2,0.1,1.084,0.517,2.65,1.25c0.134,0.066,0.866,0.283,2.2,0.649
		c1.066,0.301,1.684,0.584,1.85,0.851c0.367,0.533,0.25,1.25-0.35,2.149l-0.2-0.35l-0.55,1.2c-0.4,0.366-0.75,0.583-1.05,0.649
		c-0.9,0.334-2.101,0.167-3.601-0.5c-1.767-0.8-2.899-1.199-3.399-1.199c-0.434,0-1.767,0.133-4,0.399
		c-1.601,0.233-2.983,0.167-4.15-0.2c-0.767-0.233-1.533-0.733-2.3-1.5c-0.834-0.833-1.517-1.35-2.05-1.55
		c-0.367-0.133-1.067-0.116-2.101,0.05c-1,0.2-1.683,0.2-2.05,0c-0.9-0.433-1.1-0.966-0.6-1.6c0.767-1,1.15-1.65,1.15-1.95
		c0.034-0.566-0.117-0.934-0.45-1.1c-0.467-0.233-0.75-0.517-0.85-0.851c-0.167-0.399-0.183-0.833-0.05-1.3
		c0.066-0.267,0.183-0.684,0.35-1.25c0.133-1.1,0.333-2.2,0.6-3.3v-0.15l0.35-1.6l0.25-0.4c0.367-0.6,0.883-1.466,1.55-2.6
		c0.601-0.7,1.351-0.667,2.25,0.1l0.45,0.45c0.434,0.467,0.833,1.101,1.2,1.9c0.399,0.533,1.184,0.75,2.35,0.649
		c-0.767-0.1-1.416-0.583-1.95-1.449c-0.566-0.9-0.949-2.134-1.149-3.7c-0.3-2.934,0.083-6.384,1.149-10.351l0.551-2
		c0.466-1.433,1.433-3.75,2.899-6.949c1.267-2.801,2.117-5.134,2.55-7c0.267-1.101,0.817-2.634,1.65-4.601
		c1.134-2.566,1.767-4.05,1.9-4.45c0.433-1.133,0.966-2.567,1.6-4.3c0.533-1.4,1.167-2.8,1.9-4.2c0.966-1.867,1.649-4.367,2.05-7.5
		c0.366-3.233,3.2-5.6,8.5-7.1c1.133-0.033,2.717-0.117,4.75-0.25l0.8,0.05c0.833,0,1.967-0.017,3.4-0.05l0.35,0.05
		c6.066,0.7,10.384,1.317,12.95,1.85c-0.233,0.333-0.584,0.7-1.05,1.1c-0.5,0.433-0.851,0.733-1.051,0.9
		c0.567,0.133,1.25-0.033,2.051-0.5c-0.9,1.767-3.284,3.733-7.15,5.9c1.167,0.434,2.8-0.466,4.9-2.7
		c1.966-2.067,3.517-2.617,4.649-1.65c0.667,0.566,1.066,1.767,1.2,3.6c0.033,2.067,0.083,3.434,0.15,4.1l0.05,0.55l0.149,18.149
		l-0.399,0.5l-0.65,0.7c-0.033-1.233-0.217-2.467-0.55-3.7c-0.233-0.933-0.616-2.3-1.15-4.1c-0.366-1.567-0.517-3-0.449-4.3
		c0.199-3.833,0.216-6.534,0.05-8.1c-0.233-2.1-1.5-3-3.8-2.7c-2.733,0.367-4.483-0.033-5.25-1.2c1.366-0.167,2.649-0.617,3.85-1.35
		c1.467-0.9,2.167-1.95,2.1-3.15c-2.8-0.367-5.283-0.867-7.449-1.5c-0.634-0.133-1.417-0.233-2.351-0.3
		c-1.934-0.066-3.316,0.15-4.149,0.65c-0.334,0.2-0.65,0.633-0.95,1.3c-0.334,0.767-0.584,1.25-0.75,1.45
		c-0.267,0.3-0.7,0.583-1.3,0.85c-0.667,0.267-1.117,0.5-1.351,0.7c-0.233,0.233-0.467,0.617-0.7,1.15
		c-0.233,0.567-0.433,0.95-0.6,1.15c-0.366,0.434-1.1,0.934-2.2,1.5c-1.033,0.533-1.733,1.083-2.1,1.65
		c-1.033,1.6-1.584,2.483-1.65,2.65c-0.166,0.4-0.333,1.05-0.5,1.95c-0.166,0.9-0.35,1.567-0.55,2c-0.333,0.7-0.517,1.184-0.55,1.45
		c-0.066,0.367,0.033,0.9,0.3,1.6c0.233,0.5,0.417,0.883,0.55,1.15c0.2,0.533,0.2,0.933,0,1.2c-0.1,0.167-0.35,0.3-0.75,0.4
		c-0.5,0.1-0.8,0.183-0.899,0.25c-0.467,0.233-0.851,0.617-1.15,1.15c-0.333,0.633-0.6,1.117-0.8,1.45
		c-0.733,1-1.283,1.75-1.65,2.25c-0.633,0.867-1.017,1.7-1.149,2.5c-0.101,0.7,0.05,1.2,0.449,1.5c0.634,0.5,1.017,0.884,1.15,1.15
		c0.267,0.533,0.25,0.983-0.05,1.35c-0.467,0.4-0.834,0.717-1.101,0.95c-1,0.866-1.616,1.783-1.85,2.75
		c-0.134,0.533-0.2,1.634-0.2,3.3c0,2.7,0.05,4.3,0.15,4.8c0.333,1.867,1.267,3,2.8,3.4c-0.967,0.434-1.75,0.733-2.35,0.9
		c-0.2,0.066-0.75,0.083-1.65,0.05c-0.8-0.033-1.316,0.017-1.55,0.149c-0.533,0.267-0.8,0.834-0.8,1.7
		c-0.034,0.7,0.083,1.384,0.35,2.05c0.566,1.301,1.884,2.301,3.95,3c1.5,0.534,3.166,0.834,5,0.9c0.7,0.033,1.866,0.1,3.5,0.2
		c1.5,0.033,2.666-0.101,3.5-0.4c0.366,0.533-0.15,1-1.55,1.4C102.25,112.6,101.6,113.05,101.7,113.55z"/>
	<path style="fill-rule:evenodd;clip-rule:evenodd;fill:#5C5C56;" d="M128.9,53.9c0.566-0.333,1.5-1.1,2.8-2.3
		c0.166,0.433,0.45,0.683,0.85,0.75l0.101,10.15v0.65c-0.067-0.667-0.117-2.033-0.15-4.1c-0.134-1.833-0.533-3.033-1.2-3.6
		c-1.133-0.967-2.684-0.417-4.649,1.65c-2.101,2.233-3.733,3.133-4.9,2.7C125.616,57.633,128,55.667,128.9,53.9z M116,50.55
		l-0.2-0.2c1.533,0,3.851,0,6.95,0c2.667,0.033,4.95,0.233,6.85,0.6c0,0.466-0.216,0.95-0.649,1.45
		C126.384,51.867,122.066,51.25,116,50.55z M101.2,131.2c-0.334,0.633-0.7,1.083-1.101,1.35c-0.5,0.3-1.149,0.384-1.949,0.25
		c-0.567-0.066-1.167-0.283-1.801-0.649c-0.733-0.467-1.3-0.75-1.699-0.851c-0.534-0.133-1.217-0.116-2.051,0.05
		c-0.866,0.267-1.517,0.417-1.949,0.45c-0.467,0.101-1.2,0.134-2.2,0.101c-1-0.034-1.75-0.017-2.25,0.05
		c0.3,0.333,0.899,0.467,1.8,0.399c1.267-0.066,1.983-0.083,2.15-0.05c1.3,0.233,2.35,0.7,3.149,1.4
		c0.834,0.733,1.417,1.633,1.75,2.7c0.334,1.3,0,2.233-1,2.8c-1,0.6-2.566,0.717-4.7,0.35c-2.566-0.566-4.483-0.983-5.75-1.25
		c-4.6-1-6.933,0.15-7,3.45c-2.4,0.366-5.017,0.366-7.85,0c0-1.267-0.1-2.05-0.3-2.35c-0.1-0.167-0.3-0.284-0.6-0.351
		c-0.467-0.133-0.733-0.217-0.8-0.25l1.6-2.7c0.333-0.533,0.95-1.466,1.85-2.8c0.8-1.233,1.317-2.233,1.55-3
		c0.233-0.7,0.383-1.684,0.45-2.95c0.067-0.699,0.117-1.716,0.15-3.05c0.033-0.633,0.333-1.467,0.9-2.5c0.633-1.133,1-1.967,1.1-2.5
		c0.3-1.366,0.983-2.883,2.05-4.55l-0.05,1.1V116c-0.267,1.1-0.467,2.2-0.6,3.3c-0.167,0.566-0.283,0.983-0.35,1.25
		c-0.133,0.467-0.117,0.9,0.05,1.3c0.1,0.334,0.383,0.617,0.85,0.851c0.333,0.166,0.483,0.533,0.45,1.1c0,0.3-0.383,0.95-1.15,1.95
		c-0.5,0.634-0.3,1.167,0.6,1.6c0.367,0.2,1.05,0.2,2.05,0c1.033-0.166,1.733-0.183,2.101-0.05c0.533,0.2,1.216,0.717,2.05,1.55
		c0.767,0.767,1.533,1.267,2.3,1.5c1.167,0.367,2.55,0.434,4.15,0.2c2.233-0.267,3.566-0.399,4-0.399c0.5,0,1.633,0.399,3.399,1.199
		c1.5,0.667,2.7,0.834,3.601,0.5C100.45,131.783,100.8,131.566,101.2,131.2z M112.15,127.45c-0.967-0.134-1.601-0.4-1.9-0.8
		c0.366,0.633,0.75,1.449,1.15,2.449c0.466,0.867,1.183,1.483,2.149,1.851c0.2,0.066,1.084,0.2,2.65,0.399
		c1.2,0.167,2,0.517,2.399,1.051c0.934,1.333,0.733,2.949-0.6,4.85c-1.1,1.634-2.417,2.783-3.95,3.45c-0.3,0.166-0.8,0.233-1.5,0.2
		c-0.767-0.034-1.283-0.067-1.55-0.101h-8.75c-1.3,0.033-2.116-0.017-2.45-0.149c-0.533-0.233-0.916-0.851-1.149-1.851
		c-0.267-1.267-0.051-2.184,0.649-2.75c0.434-0.333,1.184-0.899,2.25-1.7c0.367-0.5,0.584-1.149,0.65-1.949
		c0.1-0.767,0.017-1.45-0.25-2.051c0.6-0.899,0.717-1.616,0.35-2.149c-0.166-0.267-0.783-0.55-1.85-0.851
		c-1.334-0.366-2.066-0.583-2.2-0.649c-1.566-0.733-2.45-1.15-2.65-1.25c-1.133-0.634-1.866-1.233-2.199-1.8
		c2.166,0.199,3.816,0.216,4.949,0.05c1.634-0.267,3.051-1,4.25-2.2c-0.333,0.566-0.783,1.05-1.35,1.45
		c0.434,0.833,1.45,1.166,3.05,1c0.834-0.101,1.983-0.283,3.45-0.55c0.866,0.033,1.616,0.5,2.25,1.399c0.6,0.834,1.3,1.2,2.1,1.101
		L112.15,127.45z M116.8,122.25c0.467-0.033,0.9-0.25,1.3-0.65c0.134-0.133,0.267-0.35,0.4-0.649c0.2-0.233,0.483-0.283,0.85-0.15
		c0.2,0.066,0.351,0.233,0.45,0.5c0.134,0.267,0.267,0.417,0.4,0.45c0.333,0.134,0.583,0.033,0.75-0.3
		c0.366,0.233,0.783,0.467,1.25,0.7c1.333,0.633,2.2,1.267,2.6,1.899c0.233,0.367,0.467,0.983,0.7,1.851
		c0.267,0.966,0.467,1.6,0.6,1.899c0,0.033,0.25,0.417,0.75,1.15c0.233,0.333,0.334,0.783,0.301,1.35
		c-0.034,1.066-0.334,1.967-0.9,2.7c-0.634,0.833-1.434,1.083-2.4,0.75c0.834-1.967,0.601-3.233-0.699-3.8
		c-0.334-0.167-1.801-0.4-4.4-0.7c-0.3-2.134-0.533-4.233-0.7-6.3l-0.55,1.35C117.434,123.866,117.2,123.184,116.8,122.25z
		 M132.9,90.85c-0.733-0.566-1.483-1.149-2.25-1.75c0.3-0.233,0.583-0.5,0.85-0.8c0.467-0.467,0.917-1.05,1.35-1.75L132.9,90.85z"/>
	<path style="fill-rule:evenodd;clip-rule:evenodd;fill:#4D4D49;" d="M132.85,86.55c-0.433,0.7-0.883,1.283-1.35,1.75
		c-0.267,0.3-0.55,0.566-0.85,0.8c-0.434-0.333-0.867-0.683-1.301-1.05l0.551-1c0.3-0.333,0.55-0.767,0.75-1.3l0.5-0.9L130.85,85.2
		c0.167-0.4,0.267-0.851,0.301-1.351l1.3-1.5l0.399-0.5V86.55z M101.95,130.35c0.267,0.601,0.35,1.284,0.25,2.051
		c-0.066,0.8-0.283,1.449-0.65,1.949c-1.066,0.801-1.816,1.367-2.25,1.7c-0.7,0.566-0.916,1.483-0.649,2.75
		c0.233,1,0.616,1.617,1.149,1.851c0.334,0.133,1.15,0.183,2.45,0.149H111c0.267,0.033,0.783,0.066,1.55,0.101
		c0.7,0.033,1.2-0.034,1.5-0.2c1.533-0.667,2.851-1.816,3.95-3.45c1.333-1.9,1.533-3.517,0.6-4.85
		c-0.399-0.534-1.199-0.884-2.399-1.051c-1.566-0.199-2.45-0.333-2.65-0.399c-0.967-0.367-1.684-0.983-2.149-1.851
		c-0.4-1-0.784-1.816-1.15-2.449c0.3,0.399,0.934,0.666,1.9,0.8c1.267,0.233,2.283,0.2,3.05-0.101c0.866-0.366,1.633-1.383,2.3-3.05
		l0.55-1.35c0.167,2.066,0.4,4.166,0.7,6.3c2.6,0.3,4.066,0.533,4.4,0.7c1.3,0.566,1.533,1.833,0.699,3.8
		c0.967,0.333,1.767,0.083,2.4-0.75c0.566-0.733,0.866-1.634,0.9-2.7c0.033-0.566-0.067-1.017-0.301-1.35
		c-0.5-0.733-0.75-1.117-0.75-1.15c-0.133-0.3-0.333-0.934-0.6-1.899c-0.233-0.867-0.467-1.483-0.7-1.851
		c-0.399-0.633-1.267-1.267-2.6-1.899c-0.467-0.233-0.884-0.467-1.25-0.7c-0.167,0.333-0.417,0.434-0.75,0.3
		c-0.134-0.033-0.267-0.184-0.4-0.45c-0.1-0.267-0.25-0.434-0.45-0.5c-0.366-0.133-0.649-0.083-0.85,0.15
		c-0.134,0.3-0.267,0.517-0.4,0.649c-0.399,0.4-0.833,0.617-1.3,0.65c-0.566-0.033-1.149-0.3-1.75-0.8
		c-0.566-0.634-1.017-1.134-1.35-1.5c-0.601-0.634-1.134-1.017-1.601-1.15c-0.333-0.1-0.966-0.066-1.899,0.101
		c-0.867,0.1-1.5,0.066-1.9-0.101c-0.5-0.233-0.649-0.8-0.45-1.7c0.2-0.899,0.051-1.5-0.449-1.8c-0.034-0.033-1.334-0.1-3.9-0.2
		c-2.066-0.066-3.017-0.566-2.85-1.5c0.267-0.033,0.616-0.05,1.05-0.05c0.533-0.033,1.184-0.017,1.95,0.05
		c1.1-0.1,1.683-0.683,1.75-1.75c0.1-0.966-0.101-2-0.601-3.1c-0.3-0.667-0.783-1.616-1.45-2.85c-0.199-0.467-0.6-1.034-1.199-1.7
		c-0.667-0.733-1.101-1.283-1.301-1.65c-0.233-0.467-0.383-1.033-0.449-1.7c0-0.066,0-0.233,0-0.5c0.166,0.167,0.366,0.334,0.6,0.5
		c0.1,0.067,0.2,0.134,0.3,0.2c0.934,0.667,1.483,1.084,1.65,1.25c0.633,0.7,1.017,1.3,1.149,1.8c0,0.034,0,0.067,0,0.101
		c0.067,0.566,0.117,0.916,0.15,1.05c0.066,0.233,0.384,0.417,0.95,0.55c0.033,0,0.083,0.017,0.149,0.05c0.134,0,0.301,0,0.5,0
		h0.051c0.233,0,0.416,0.084,0.55,0.25c0.033,0.067,0.083,0.184,0.149,0.351c0.101,0.467,0.134,1.366,0.101,2.7
		c0,0.033,0,0.083,0,0.149c0.1,0.601,0.217,1.033,0.35,1.3c0.066,0.101,0.134,0.217,0.2,0.351c0.167,0.233,0.384,0.45,0.65,0.649
		c0.267-0.133,0.783-0.633,1.55-1.5c0.1-0.066,0.416-0.333,0.95-0.8c0.366-0.066,0.899,0.25,1.6,0.95c0.333,0.333,0.7,0.35,1.1,0.05
		c0.167-0.133,0.334-0.316,0.5-0.55c0.101-0.134,0.184-0.25,0.25-0.35c0.034-0.067,0.067-0.117,0.101-0.15l0.8,0.8l8.9,8.601
		c-0.067,1.066,0.233,2.216,0.899,3.449c0.5,0.867,1.316,2.101,2.45,3.7c0.066,0.101,0.25,0.467,0.55,1.101
		c0.233,0.466,0.434,0.783,0.601,0.949c0.1,0.101,0.366,0.284,0.8,0.551s0.684,0.449,0.75,0.55c0.366,0.533,0.533,1.149,0.5,1.85
		c-0.033,0.334-0.184,1-0.45,2c-0.6,2.467-1.75,4.717-3.45,6.75c-2,2.434-4.033,3.483-6.1,3.15c0.6-1.033,0.983-1.934,1.149-2.7
		c0.167-0.7,0.284-1.717,0.351-3.05c-0.566,3.133-2.851,4.883-6.851,5.25c-4.767-0.134-8.017-0.066-9.75,0.2
		c0.5,0.767,1.45,1.333,2.851,1.699c1.2,0.267,2.383,0.334,3.55,0.2c-0.333,0.2-0.884,0.65-1.65,1.351
		c-0.666,0.666-1.216,1.066-1.649,1.199c-0.434,0.167-1.167,0.217-2.2,0.15l-2.35-0.2h-8.2c-1.601,0.066-2.417,0.101-2.45,0.101
		c-0.967-0.067-1.733-0.301-2.3-0.7c0.1-0.867,0.75-1.517,1.95-1.95c1.399-0.467,2.233-0.934,2.5-1.4
		c0.199-0.333,0.267-1.033,0.199-2.1c-0.033-0.5-0.083-1.15-0.149-1.95c-0.033,0.5-0.283,1.134-0.75,1.9
		c-0.566,0.866-1.117,1.45-1.65,1.75c-1.133,0.633-3.133,0.399-6-0.7c1.134,1.167,1.017,1.95-0.35,2.35
		c-1.9,0.301-3.134,0.584-3.7,0.851c-0.267,0.133-0.75,0.483-1.45,1.05c-0.566,0.434-1.116,0.717-1.649,0.85
		c-0.467,0.101-1.134,0.117-2,0.051c-1.267-0.067-1.933-0.101-2-0.101c-4.4,0-6.717-0.017-6.95-0.05c-2.7-0.3-4.4-1.25-5.1-2.85
		c0-0.067,0.017-0.134,0.05-0.2c1.067-1.066,2.2-2.7,3.4-4.9c0.067,0.033,0.333,0.117,0.8,0.25c0.3,0.066,0.5,0.184,0.6,0.351
		c0.2,0.3,0.3,1.083,0.3,2.35c2.833,0.366,5.45,0.366,7.85,0c0.066-3.3,2.4-4.45,7-3.45c1.267,0.267,3.184,0.684,5.75,1.25
		c2.134,0.367,3.7,0.25,4.7-0.35c1-0.566,1.334-1.5,1-2.8c-0.333-1.067-0.916-1.967-1.75-2.7c-0.8-0.7-1.85-1.167-3.149-1.4
		c-0.167-0.033-0.884-0.017-2.15,0.05c-0.9,0.067-1.5-0.066-1.8-0.399c0.5-0.066,1.25-0.084,2.25-0.05c1,0.033,1.733,0,2.2-0.101
		c0.433-0.033,1.083-0.184,1.949-0.45c0.834-0.166,1.517-0.183,2.051-0.05c0.399,0.101,0.966,0.384,1.699,0.851
		c0.634,0.366,1.233,0.583,1.801,0.649c0.8,0.134,1.449,0.05,1.949-0.25c0.4-0.267,0.767-0.717,1.101-1.35l0.55-1.2L101.95,130.35z
		 M49,101.9v0.149c-2.567,0.867-5.517,0.634-8.85-0.7c-1.033-0.366-2.083-1.05-3.15-2.05c-1.267-1.2-1.817-2.267-1.65-3.2h0.35
		c0.333,0.067,0.733,0.284,1.2,0.65c0.267,0.2,0.633,0.483,1.1,0.85c1.433,1.101,2.65,1.884,3.65,2.351
		c0.767,0.366,2.033,0.583,3.8,0.649c1.966,0.034,3.15-0.267,3.55-0.899V101.9z M63.425,104.125l0.275-0.075l1.25-0.3
		c-0.1,0.833-0.65,1.384-1.65,1.65c-1.267,0.166-2.133,0.283-2.6,0.35c-0.034,0.3-0.034,1.15,0,2.55
		c0.066,1.066-0.034,1.884-0.3,2.45c-0.333,0.767-0.833,1.366-1.5,1.8c-0.533,0.334-1.267,0.617-2.2,0.851
		c-0.167,1.066-0.75,1.816-1.75,2.25c-0.8,0.366-1.784,0.483-2.95,0.35c-0.4-0.033-0.983-0.184-1.75-0.45
		c-0.867-0.366-1.45-0.733-1.75-1.1c-0.3-0.334-0.283-0.667,0.05-1c0.333,1.166,1.367,1.684,3.1,1.55c1.067-0.1,1.767-0.25,2.1-0.45
		c0.5-0.333,0.667-0.95,0.5-1.85c-1.233-0.066-2.117-0.167-2.65-0.3c-0.9-0.267-1.55-0.834-1.95-1.7c0.3,0.033,0.6,0.166,0.9,0.399
		c0.4,0.267,0.684,0.434,0.85,0.5c0.1,0.034,0.633,0.051,1.6,0.051c1.167,0.066,2.167-0.051,3-0.351c1.433-0.434,2.3-1.283,2.6-2.55
		c0.267-1.3,0.167-2.1-0.3-2.4l0.7-0.3c-0.933,0.066-1.8-0.283-2.6-1.05c-0.767-0.733-1.133-1.583-1.1-2.55
		c0.333,0.833,1.367,1.399,3.1,1.7c1.467,0.233,3.017,0.25,4.65,0.05h0.15C63.273,104.179,63.349,104.154,63.425,104.125z
		 M131.7,51.6l0.1-0.1c0.334-0.267,0.584-0.55,0.75-0.85v1.7C132.15,52.283,131.866,52.033,131.7,51.6z M8.3,95.35l0.35,0.25
		c0.067,0.167,0.2,0.534,0.4,1.101c0.333,0.467,0.767,0.95,1.3,1.45l1.9,1.449c-0.033-0.199,0-0.6,0.1-1.199
		c0.3-0.101,0.75,0.133,1.35,0.699c0.7,0.7,1.133,1.084,1.3,1.15V98.5c0.1,0.9,0.467,1.7,1.1,2.4c0.8,0.866,1.867,1.383,3.2,1.55
		c-0.066,0.399-0.033,0.75,0.1,1.05c0.067,0.2,0.267,0.5,0.6,0.9l0.9,1c-1.1-0.134-1.816-0.467-2.15-1
		c0.067,0.199,0.133,0.5,0.2,0.899c-1.167,0.134-2.15-0.2-2.95-1c-0.833-1.166-1.517-2.083-2.05-2.75c0.4,0.667,0.667,1.167,0.8,1.5
		c0.267,0.5,0.333,1.033,0.2,1.601c-0.333,0.1-0.733-0.184-1.2-0.851c-0.6-0.866-0.967-1.35-1.1-1.45
		c-0.9-0.399-1.566-0.716-2-0.949c-0.267-0.167-0.767-0.584-1.5-1.25C8.25,99.316,7.533,98.783,7,98.55L8.3,95.35z M54.9,133.7
		c-0.4,0.033-0.816,0-1.25-0.101c-0.2-0.066-0.433-0.216-0.7-0.449c-0.267-0.233-0.483-0.384-0.65-0.45
		c-0.1-0.033-0.267-0.05-0.5-0.05c-0.233,0.033-0.417,0.017-0.55-0.051c-1.233-0.6-2.167-1.017-2.8-1.25
		c0.533,0.934,0.683,1.7,0.45,2.301c-1.167,0.1-2.55-0.301-4.15-1.2c-0.3-0.167-1.533-0.983-3.7-2.45
		c-1.233-0.733-2.117-1.316-2.65-1.75c-0.9-0.733-1.367-1.6-1.4-2.6c-0.033-0.601,0.1-1,0.4-1.2c0.467-0.334,0.767-0.601,0.9-0.8
		c0.3-0.534,0.2-1.317-0.3-2.351c-0.367-0.666-1-1.35-1.9-2.05c-0.967-0.8-1.767-1.217-2.4-1.25c-0.067,0.8-0.167,1.316-0.3,1.55
		c-0.667-0.366-1.383-0.916-2.15-1.649c-0.833-0.834-1.467-1.467-1.9-1.9c-1.133-0.833-1.9-1.5-2.3-2c-0.133-0.167-0.3-0.5-0.5-1
		c-0.233-0.5-0.417-0.833-0.55-1c-0.233-0.3-1.067-0.9-2.5-1.8c-1.133-0.7-1.733-1.417-1.8-2.15c-0.034-0.566,0.15-0.899,0.55-1
		c0.267-0.066,0.767-0.149,1.5-0.25c0.633-0.166,1.083-0.333,1.35-0.5c0.333-0.233,0.683-0.616,1.05-1.149l-0.55,0.199
		c0.333-0.3,0.55-0.533,0.65-0.699c0.367-0.667,0.317-1.267-0.15-1.801c-0.633-0.533-1.083-0.966-1.35-1.3
		c-0.533-0.666-0.917-1.416-1.15-2.25c-0.133-0.566-0.233-1.399-0.3-2.5c0.567,0.867,0.95,1.4,1.15,1.601
		c0.4,0.433,0.917,0.75,1.55,0.949c0.033,0,0.667,0.084,1.9,0.25c0.833,0.134,1.3,0.367,1.4,0.7c-0.5,0.267-0.883,0.7-1.15,1.3
		c-0.267,0.634-0.333,1.217-0.2,1.75c0.167,0.534,0.683,1.051,1.55,1.551c0.867,0.466,1.367,0.866,1.5,1.199
		c0.233,0.534,0.083,1.017-0.45,1.45c-0.867,0.7-1.316,1.084-1.35,1.15c-0.267,0.366-0.467,0.95-0.6,1.75
		c-0.133,0.866-0.1,1.5,0.1,1.899c0.1,0.167,0.433,0.483,1,0.95c0.267,0.3,0.683,0.867,1.25,1.7c0.5,0.733,0.95,1.283,1.35,1.65
		c0.567,0.566,1.317,1.033,2.25,1.399c1.4,0.566,2.2,0.917,2.4,1.05c0.5,0.267,0.933,0.65,1.3,1.15
		c0.367,0.533,0.817,1.384,1.35,2.55c0.5,1.033,1.133,1.733,1.9,2.101c0.267,0.133,0.733,0.267,1.4,0.399
		c0.667,0.134,1.133,0.267,1.4,0.4c0.1,0.033,1.317,0.767,3.65,2.2c0.066-0.7-0.1-1.351-0.5-1.95c0.633,0.533,1.466,0.85,2.5,0.95
		c0.566,0.033,1.45,0.083,2.65,0.149c0.066,0.4,0.066,1.101,0,2.101c-0.067,0.933-0.05,1.633,0.05,2.1
		C52.85,132.35,53.6,133.167,54.9,133.7z M66.4,136.6l-2.45,6.25c-0.167,0.167-0.5,0.351-1,0.551c-0.467,0.199-0.8,0.383-1,0.55
		c-0.3,0.533-0.5,0.899-0.6,1.1c-0.233,0.334-0.6,0.417-1.1,0.25c-0.3-0.1-0.583-0.467-0.85-1.1c-0.3-0.767-0.517-1.217-0.65-1.351
		l-0.35,0.7c-0.633-0.133-1.3-0.366-2-0.7c-0.833-0.399-1.417-0.8-1.75-1.199c-0.2-0.2-0.4-0.551-0.6-1.051
		c-0.2-0.5-0.383-0.85-0.55-1.05c-0.067-0.1-0.4-0.383-1-0.85c-0.333-0.3-0.517-0.65-0.55-1.05c-0.034-0.567,0.183-1.084,0.65-1.551
		c0.4-0.433,0.867-0.699,1.4-0.8c0.567-0.1,1.283-0.2,2.15-0.3c0.667-0.134,1.233-0.366,1.7-0.7c0.7-0.033,1.417-0.333,2.15-0.899
		c0.767-0.667,1.083-1.334,0.95-2c-0.034-0.233-0.35-0.601-0.95-1.101c-0.633-0.533-1-0.967-1.1-1.3c-0.133-0.366-0.2-0.8-0.2-1.3
		c-0.034-0.267-0.067-0.7-0.1-1.3c0.367,1.466,1.367,2.35,3,2.649c1.533,0.267,2.9-0.05,4.1-0.95c-0.133,0.601-0.517,1.4-1.15,2.4
		s-1.017,1.767-1.15,2.3c-0.167,1.167-0.333,1.934-0.5,2.3c-0.267,0.601-0.9,1.101-1.9,1.5c-0.233,0.101-1.117,0.184-2.65,0.25
		c-1.133,0.034-1.817,0.301-2.05,0.801c-0.267,0.6-0.083,1.5,0.55,2.699c0.633,1.134,1.217,1.784,1.75,1.95
		c0.3-0.733,0.633-1.25,1-1.55c0,0.533,0.183,1.033,0.55,1.5c0.434,0.5,0.917,0.634,1.45,0.4c0.267-0.134,0.883-0.834,1.85-2.101
		c0.367-0.333,0.85-0.967,1.45-1.899C65.567,137.65,66.067,136.967,66.4,136.6z"/>
	<path style="fill-rule:evenodd;clip-rule:evenodd;fill:#3B3B37;" d="M132.55,49.25v1.4c-0.166,0.3-0.416,0.583-0.75,0.85l-0.1,0.1
		c-1.3,1.2-2.233,1.967-2.8,2.3c-0.801,0.467-1.483,0.633-2.051,0.5c0.2-0.167,0.551-0.467,1.051-0.9
		c0.466-0.4,0.816-0.767,1.05-1.1c0.434-0.5,0.649-0.983,0.649-1.45c-1.899-0.367-4.183-0.567-6.85-0.6c-3.1,0-5.417,0-6.95,0
		l-4.35,0.15c-2.033,0.133-3.617,0.217-4.75,0.25c0.899-0.267,1.983-0.533,3.25-0.8L111,49.8c1-0.033,2.35-0.066,4.05-0.1
		l0.101,0.05L132.55,49.25z M103.25,98.9l0.35,0.35l5.9,5.7l4.45,4.3c-0.033,0.033-0.066,0.083-0.101,0.15
		c-0.066,0.1-0.149,0.216-0.25,0.35c-0.166,0.233-0.333,0.417-0.5,0.55c-0.399,0.3-0.767,0.283-1.1-0.05
		c-0.7-0.7-1.233-1.017-1.6-0.95c-0.534,0.467-0.851,0.733-0.95,0.8c-0.767,0.867-1.283,1.367-1.55,1.5
		c-0.267-0.199-0.483-0.416-0.65-0.649c-0.066-0.134-0.134-0.25-0.2-0.351c-0.133-0.267-0.25-0.699-0.35-1.3
		c0-0.066,0-0.116,0-0.149c0.033-1.334,0-2.233-0.101-2.7c-0.066-0.167-0.116-0.283-0.149-0.351c-0.134-0.166-0.316-0.25-0.55-0.25
		h-0.051c-0.199,0-0.366,0-0.5,0c-0.066-0.033-0.116-0.05-0.149-0.05c-0.566-0.133-0.884-0.316-0.95-0.55
		c-0.033-0.134-0.083-0.483-0.15-1.05c0-0.033,0-0.066,0-0.101c-0.133-0.5-0.517-1.1-1.149-1.8c-0.167-0.166-0.717-0.583-1.65-1.25
		c-0.1-0.066-0.2-0.133-0.3-0.2c-0.233-0.166-0.434-0.333-0.6-0.5c-0.4-0.433-0.65-0.933-0.75-1.5c-0.134-0.6-0.101-1.433,0.1-2.5
		c0.1-0.566,0.233-1.399,0.4-2.5l0.5-4.75c0.1-1.199,0.5-3.017,1.199-5.449c0.134-0.467,0.434-1.267,0.9-2.4
		c0.1-0.233,0.2-0.45,0.3-0.65L102.8,81.9v0.05l-0.149,0.85L100.3,96.05L103.25,98.9z M130.65,85.75c-0.2,0.533-0.45,0.967-0.75,1.3
		l-0.551,1c-0.399-0.3-0.8-0.616-1.199-0.95c1.066-0.466,1.966-1.1,2.699-1.899L130.65,85.75z M123.65,118.65l5.725,5.524
		l3.875,3.775v0.024c0.067,2.959,0.2,6.867,0.4,11.726l0.5,11.1l-73.9,1.45l-0.05-0.05c-15.333-15.267-23.45-23.367-24.35-24.3
		l-4.35-4.45c-0.069-0.069-0.136-0.136-0.2-0.2l-0.425-0.425c-0.629-0.646-1.295-1.312-2-2L18.25,110.45
		c-0.3-0.267-0.583-0.533-0.85-0.8L6.65,99.35L7,98.55c0.533,0.233,1.25,0.767,2.15,1.601c0.733,0.666,1.233,1.083,1.5,1.25
		c0.434,0.233,1.1,0.55,2,0.949c0.133,0.101,0.5,0.584,1.1,1.45c0.467,0.667,0.867,0.95,1.2,0.851
		c0.133-0.567,0.066-1.101-0.2-1.601c-0.133-0.333-0.4-0.833-0.8-1.5c0.533,0.667,1.216,1.584,2.05,2.75c0.8,0.8,1.783,1.134,2.95,1
		c-0.067-0.399-0.133-0.7-0.2-0.899c0.333,0.533,1.05,0.866,2.15,1l1.1,0.05c1.633,0.166,2.833,0.133,3.6-0.101l0.55-0.199
		c-0.367,0.533-0.717,0.916-1.05,1.149c-0.267,0.167-0.717,0.334-1.35,0.5c-0.733,0.101-1.233,0.184-1.5,0.25
		c-0.4,0.101-0.583,0.434-0.55,1c0.066,0.733,0.667,1.45,1.8,2.15c1.433,0.899,2.267,1.5,2.5,1.8c0.133,0.167,0.317,0.5,0.55,1
		c0.2,0.5,0.367,0.833,0.5,1c0.4,0.5,1.167,1.167,2.3,2c0.433,0.434,1.066,1.066,1.9,1.9c0.767,0.733,1.483,1.283,2.15,1.649
		c0.133-0.233,0.233-0.75,0.3-1.55c0.633,0.033,1.433,0.45,2.4,1.25c0.9,0.7,1.533,1.384,1.9,2.05c0.5,1.033,0.6,1.816,0.3,2.351
		c-0.133,0.199-0.433,0.466-0.9,0.8c-0.3,0.2-0.433,0.6-0.4,1.2c0.033,1,0.5,1.866,1.4,2.6c0.533,0.434,1.417,1.017,2.65,1.75
		c2.167,1.467,3.4,2.283,3.7,2.45c1.6,0.899,2.983,1.3,4.15,1.2c0.233-0.601,0.083-1.367-0.45-2.301
		c0.633,0.233,1.566,0.65,2.8,1.25c0.133,0.067,0.317,0.084,0.55,0.051c0.233,0,0.4,0.017,0.5,0.05
		c0.167,0.066,0.383,0.217,0.65,0.45c0.267,0.233,0.5,0.383,0.7,0.449c0.434,0.101,0.85,0.134,1.25,0.101c0.1,0,0.8-0.117,2.1-0.351
		c0.8-0.133,1.433-0.133,1.9,0c-0.433,0.467-0.783,0.784-1.05,0.95c-0.467,0.334-1.033,0.566-1.7,0.7c-0.867,0.1-1.583,0.2-2.15,0.3
		c-0.533,0.101-1,0.367-1.4,0.8c-0.467,0.467-0.684,0.983-0.65,1.551c0.033,0.399,0.216,0.75,0.55,1.05c0.6,0.467,0.933,0.75,1,0.85
		c0.167,0.2,0.35,0.55,0.55,1.05c0.2,0.5,0.4,0.851,0.6,1.051c0.333,0.399,0.917,0.8,1.75,1.199c0.7,0.334,1.367,0.567,2,0.7
		l0.35-0.7c0.133,0.134,0.35,0.584,0.65,1.351c0.267,0.633,0.55,1,0.85,1.1c0.5,0.167,0.867,0.084,1.1-0.25
		c0.1-0.2,0.3-0.566,0.6-1.1c0.2-0.167,0.533-0.351,1-0.55c0.5-0.2,0.833-0.384,1-0.551l-1.25,3.2c0.3-0.7,0.6-1.416,0.9-2.149
		c0.7,1.6,2.4,2.55,5.1,2.85c0.233,0.033,2.55,0.05,6.95,0.05c0.067,0,0.733,0.033,2,0.101c0.867,0.066,1.534,0.05,2-0.051
		c0.533-0.133,1.083-0.416,1.649-0.85c0.7-0.566,1.184-0.917,1.45-1.05c0.566-0.267,1.8-0.55,3.7-0.851
		c1.366-0.399,1.483-1.183,0.35-2.35c2.867,1.1,4.867,1.333,6,0.7c0.533-0.3,1.084-0.884,1.65-1.75c0.467-0.767,0.717-1.4,0.75-1.9
		c0.066,0.8,0.116,1.45,0.149,1.95c0.067,1.066,0,1.767-0.199,2.1c-0.267,0.467-1.101,0.934-2.5,1.4
		c-1.2,0.434-1.851,1.083-1.95,1.95c0.566,0.399,1.333,0.633,2.3,0.7c0.033,0,0.85-0.034,2.45-0.101h8.2L106,147
		c1.033,0.066,1.767,0.017,2.2-0.15c0.434-0.133,0.983-0.533,1.649-1.199c0.767-0.7,1.317-1.15,1.65-1.351
		c-1.167,0.134-2.35,0.066-3.55-0.2c-1.4-0.366-2.351-0.933-2.851-1.699c1.733-0.267,4.983-0.334,9.75-0.2
		c4-0.367,6.284-2.117,6.851-5.25c-0.066,1.333-0.184,2.35-0.351,3.05c-0.166,0.767-0.55,1.667-1.149,2.7
		c2.066,0.333,4.1-0.717,6.1-3.15c1.7-2.033,2.851-4.283,3.45-6.75c0.267-1,0.417-1.666,0.45-2c0.033-0.7-0.134-1.316-0.5-1.85
		c-0.066-0.101-0.316-0.283-0.75-0.55s-0.7-0.45-0.8-0.551c-0.167-0.166-0.367-0.483-0.601-0.949c-0.3-0.634-0.483-1-0.55-1.101
		c-1.134-1.6-1.95-2.833-2.45-3.7C123.884,120.866,123.583,119.717,123.65,118.65z"/>
	<path style="fill-rule:evenodd;clip-rule:evenodd;fill:#6B6A65;" d="M89,41.5c0.134,3.2,0.316,6.55,0.55,10.05
		c0.4,0.633,0.717,1.284,0.95,1.95h-0.05c-1.733,1.467-2.967,2.5-3.7,3.1c-1.467,1.367-2.934,2.083-4.4,2.15
		c-0.033,0.133-0.033,0.283,0,0.45c-0.033-0.067-0.066-0.133-0.1-0.2l-0.15-0.1l-0.35-0.85l-0.15,0.6c-0.133,0.567-0.5,0.8-1.1,0.7
		s-0.884-0.434-0.85-1l0.149-1l-0.35-0.1L79,57.35c-0.4,0-0.683-0.167-0.85-0.5c-0.167-0.3-0.167-0.6,0-0.9l0.7,0.45
		c1.167,0.667,1.683,0.35,1.55-0.95c0.233,0.5,0.55,0.8,0.949,0.9c0.067-0.733-0.066-1.383-0.399-1.95c0.2,0,0.366,0.05,0.5,0.15
		c-0.033-1.433,0.033-3.5,0.2-6.2c0-0.434,0.199-0.717,0.6-0.85c0.366-0.133,0.717-0.1,1.05,0.1l-0.1-1.85
		c-0.167,0.333-0.4,0.55-0.7,0.65c-0.366,0.1-0.667,0-0.9-0.3c0.101,0.167,0.101,0.35,0,0.55c-0.233,0.533-0.433,0.867-0.6,1
		c0.2-0.767,0.233-1.517,0.1-2.25c-0.333,0.067-0.55,0.133-0.649,0.2c-0.134-0.667-0.184-1.533-0.15-2.6
		c0-0.567,0.033-1.433,0.101-2.6c-0.101,0.5-0.167,0.867-0.2,1.1c-0.101,0.433-0.267,0.717-0.5,0.85c0.033-0.133,0-0.367-0.101-0.7
		l-0.3-0.15c-0.267-1.167-0.383-2.283-0.35-3.35l0.399-0.05l0.051-1.45c0.366-0.233,0.699-0.3,1-0.2c0.1-0.567,0.3-1.2,0.6-1.9
		c0.165,0.152,0.332,0.302,0.5,0.45L89,41.5z M91.9,44.05l4.399,3.8c0.3,0.3,0.634,0.6,1,0.9c-0.6,1.233-0.934,2.217-1,2.95
		c-0.033,0.433-0.233,0.75-0.6,0.95c-0.434,0.167-0.8,0.083-1.101-0.25l-0.149-0.2c0.267-0.267,0.316-0.65,0.149-1.15
		c-0.033-0.133-0.3-0.55-0.8-1.25c-0.3-0.633-0.017-0.883,0.851-0.75c-0.134-0.233-0.7-0.583-1.7-1.05v-0.3
		c-0.334-0.5-0.533-1.184-0.601-2.05c-0.333-0.133-0.55-0.367-0.649-0.7C91.6,44.65,91.667,44.35,91.9,44.05z M90.15,59.85l0.05,0.7
		c0.3-0.233,0.616-0.25,0.95-0.05c0.933,0.5,1.433,1.45,1.5,2.85c0.033,0.667-0.284,1-0.95,1c-0.667,0-1.017-0.333-1.05-1
		c0-0.4-0.117-0.717-0.351-0.95l0.75,9.6c-11.267,30.033-20.4,53.934-27.4,71.7c-0.033,0.066-0.05,0.133-0.05,0.2
		c-0.3,0.733-0.6,1.449-0.9,2.149l1.25-3.2l2.45-6.25l1.4-3.55l5.9-15.3c-0.867,0.733-1.534,1.267-2,1.6
		c-0.767,0.601-1.434,0.817-2,0.65c-0.1-1.134-0.333-2.8-0.7-5c-0.033,0.066-0.6,0.816-1.7,2.25c0.567-1.2,1.45-2.967,2.65-5.3
		c0.2-0.4,0.767-1.367,1.7-2.9c0.733-1.434,0.85-2.416,0.35-2.95c-1.7,1.167-2.683,1.9-2.95,2.2c-0.433-2.333,0.4-5.033,2.5-8.1
		c0.7-1.066,1.7-2.767,3-5.101c1.267-2.3,2.284-4.017,3.05-5.149c0.267-0.367,1.083-1.717,2.45-4.05
		c1.033-1.767,1.934-3.084,2.7-3.95c0.2-0.233,0.667-0.617,1.4-1.15c0.533-0.366,0.899-0.833,1.1-1.399
		c0.167-0.5,0.384-1.384,0.65-2.65c0.233-1.167,0.483-2.067,0.75-2.7c0.033-0.066,0.633-1.1,1.8-3.1c0.7-1.2,1-2.317,0.899-3.35
		c-0.233-1.7-0.267-3.017-0.1-3.95C89.35,63.017,89.65,61.75,90.15,59.85z M84.55,65.25c0.033,0.167,0.066,0.317,0.101,0.45
		c0.066,0.533,0.1,1.25,0.1,2.15v0.25L84.55,65.25z M74.95,40.95c0,0.233,0.033,0.45,0.1,0.65c-0.267,0.066-0.466,0.083-0.6,0.05
		v0.15l0.05,0.05l0.3,0.7l-0.15,0.3c0,1.4,0.017,2.25,0.05,2.55c0,0.633,0.017,1.133,0.05,1.5c0,0.7,0.067,1.2,0.2,1.5
		c0.066,0.167,0.35,0.533,0.85,1.1c0.333,0.367,0.434,0.817,0.3,1.35l-0.4,0.05l-0.1,1.05c-0.133,0-0.233-0.067-0.3-0.2l-0.4-0.5
		l0.5,6.65c1.3,0.934,2.083,2,2.35,3.2c0.233,1.433-0.367,2.55-1.8,3.35l0.1,0.8l0.35,0.3c-0.066-0.3-0.017-0.566,0.15-0.8
		c0.167-0.267,0.417-0.4,0.75-0.4h0.35c0.667,0,1,0.333,1,1c0,0.667-0.333,1-1,1h-0.4l7.4,6.75c-0.134,0.6-0.351,1.117-0.65,1.55
		c-0.267,0.333-0.55,0.583-0.85,0.75c-0.134,0.067-0.483,0.133-1.051,0.2c-0.333,0-0.6,0.033-0.8,0.1c-0.8,0.233-1.399,0.4-1.8,0.5
		c-0.633,0.167-1.283,0.233-1.95,0.2l-1.1-0.05l-0.1-0.05c-0.2-0.066-0.5-0.25-0.9-0.55c-0.434-0.367-0.733-0.583-0.9-0.65
		c-0.8-0.2-1.417-0.45-1.85-0.75l-2.25-1.7c-0.567-0.9-0.917-1.5-1.05-1.8L69.55,72l-0.25-0.2c0,0.333,0.1,0.667,0.3,1l0.1,1.65
		c0,0.933-0.133,1.583-0.4,1.95c-0.233,0.3-0.783,0.65-1.65,1.05c-1.633,0.733-2.8,1.35-3.5,1.85
		c-1.066,0.767-1.883,1.717-2.45,2.851L61,81.35c0.1,1.267-0.5,2.167-1.8,2.7c-0.7,0.267-1.9,0.483-3.6,0.65
		c-2,0.166-3.434,0.116-4.3-0.15c-0.7-0.166-1.5-0.434-2.4-0.8c-0.767-0.733-0.867-1.384-0.3-1.95c0.333-0.333,1.133-0.75,2.4-1.25
		c2.167,0.233,4.05,0.066,5.65-0.5l0.35-1c-0.533-0.1-1.25-0.1-2.15,0c-1,0.167-1.75,0.267-2.25,0.3h-0.55
		c-2.233,0-3.566-0.033-4-0.1l-0.8-0.1c-1.533-0.367-2.85-0.767-3.95-1.2c-0.2-0.067-0.8-0.233-1.8-0.5
		c-0.4-0.3-0.667-0.567-0.8-0.8c-0.2-0.533-0.267-1.383-0.2-2.55l-0.15,0.15l0.15-0.3l0.1-0.6c0.033-0.067,0.2-0.25,0.5-0.55
		l-0.6,1.15v0.15c0.433-0.467,0.967-0.783,1.6-0.95c0.4-0.1,1.033-0.25,1.9-0.45c0.433-0.1,1.117-0.333,2.05-0.7
		c0.867-0.333,1.55-0.55,2.05-0.65c0.767-0.133,2.083-0.35,3.95-0.65c1.7-0.233,3.017-0.45,3.95-0.65l3.65-1
		c-3.133,0-5.283,0.05-6.45,0.15c-2.333,0.167-4.417,0.583-6.25,1.25c-1.267,0.566-2.233,0.933-2.9,1.1
		c0.4-0.133,0.667-0.25,0.8-0.35l-0.05-0.15H45l-0.35-0.7c-0.2,0-0.4-0.05-0.6-0.15c-0.267-0.1-0.517-0.267-0.75-0.5
		c-0.733-0.733-1.283-1.767-1.65-3.1l-0.6-1.75L41,64.7c-0.633-1.633-1.333-2.967-2.1-4c-0.8-1.133-1.316-1.917-1.55-2.35
		c-0.5-0.867-0.85-1.75-1.05-2.65c0.067,1.333,0.1,2.333,0.1,3c0.033,1.2,0,2.2-0.1,3c-0.6-0.233-1.05-0.717-1.35-1.45
		c-0.167-0.433-0.383-1.117-0.65-2.05c0.067,6.8-0.167,12.517-0.7,17.15c-0.6,0-1.033,0-1.3,0c-0.533,0.033-0.933,0.217-1.2,0.55
		c-0.267,0.333-0.367,1.2-0.3,2.6c0,1.267-0.267,2.083-0.8,2.45c-0.233,0.166-0.7,0.2-1.4,0.1c-0.833-0.133-1.367-0.166-1.6-0.1
		c-0.7,0.267-1.25,0.416-1.65,0.45c-1.333,0.133-2.167-0.351-2.5-1.45c-0.167-0.5-0.233-1.601-0.2-3.3c0-0.6,0.05-1.233,0.15-1.9
		c0.333-0.433,0.617-1.2,0.85-2.3c0.333-0.833,1-1.2,2-1.1c0.9,0.133,1.633,0.6,2.2,1.4c-0.3-1-0.567-1.6-0.8-1.8
		c-0.5-0.5-1.3-0.7-2.4-0.6c-0.633,0.1-1.066,0.233-1.3,0.4c0.267-2.067,0.367-3.617,0.3-4.65c-0.066,0.633-0.25,1.417-0.55,2.35
		c-0.434,1.466-0.667,2.25-0.7,2.35c-0.6,2.434-1.066,4.067-1.4,4.9c-0.967,2.467-1.667,4.333-2.1,5.6
		c-0.4,1.267-0.717,2.217-0.95,2.851c-0.4,1.133-0.8,2.05-1.2,2.75c-0.2,0.366-0.75,1.216-1.65,2.55
		c-0.7,1.033-1.217,1.916-1.55,2.649l-0.25,0.25c-0.533,0.7-0.95,1.184-1.25,1.45c-0.566,0.5-1.15,0.5-1.75,0
		c-0.433-0.3-0.55-1.083-0.35-2.35l2.7-6.55c0.667-1.067,1.533-2.717,2.6-4.95c1.4-2.5,2.867-5.583,4.4-9.25l2.65-6.1
		c0.567-1.267,1.267-3.233,2.1-5.9c0.133-0.367,0.383-0.784,0.75-1.25c0.167-0.233,0.45-0.6,0.85-1.1l0.6-1.05
		c0.733-0.367,1.533-0.433,2.4-0.2c0.667,0.233,1.317,0.767,1.95,1.6c0.6,0.833,0.95,1.617,1.05,2.35l0.3,0.3
		c-0.367-0.467-0.533-1.4-0.5-2.8c0.034-1.233-0.35-2.15-1.15-2.75c-1.033-0.767-2.017-1.05-2.95-0.85l0.7-1.85
		c0.567-1.6,1.117-3.533,1.65-5.8c0.333-1.3,0.784-3.267,1.35-5.9c0.333-1.367,0.55-3.316,0.65-5.85c0.267-2.3,1.034-5.417,2.3-9.35
		c-0.067,0.4-0.033,0.716,0.1,0.95l0.15,0.15c-0.133,0.267-0.317,0.517-0.55,0.75l3.8,3.45l0.2-5.75H38
		c-0.3,0.333-0.683,0.383-1.15,0.15c-0.033-0.467-0.1-1.2-0.2-2.2c-0.2,0.033-0.35,0.083-0.45,0.15c-0.1-0.4-0.1-0.8,0-1.2l0.4-0.05
		c0-0.2,0.066-0.5,0.2-0.9l0.35,0.1l0.25-0.9l-0.35-0.3l0.1-0.5c0-0.8,0-1.417,0-1.85c0.133-0.467,0.283-0.867,0.45-1.2
		c0.233-0.033,0.433,0.034,0.6,0.2l0.05-1.5c0.267-0.5,0.65-1.15,1.15-1.95c0.467-0.833,0.8-1.65,1-2.45
		c0.167-0.6,0.367-1.45,0.6-2.55c0.1-0.333,0.183-1.066,0.25-2.2c0.133-1.033,0.35-1.684,0.65-1.95c0.4-0.367,1.017-0.4,1.85-0.1
		h0.05c0.1,0.1,0.217,0.217,0.35,0.35l0.05,1.2c0.7-0.067,1.066,0.25,1.1,0.95C45.367,5.883,45.383,7,45.35,8.4
		c-0.067,1.7-0.1,2.817-0.1,3.35c0.167-0.033,0.35,0,0.55,0.1c0.3,0.566,0.483,0.983,0.55,1.25l0.05,0.15
		c0.067,0.233,0.05,0.433-0.05,0.6c-0.3,0.066-0.517,0.083-0.65,0.05c0,0.367-0.083,0.65-0.25,0.85
		c-0.333,0.367-0.517,0.567-0.55,0.6c-0.167,0.267-0.25,0.8-0.25,1.6L44.2,16.6c-0.1,5.033-0.284,10.65-0.55,16.85l0.65,0.25
		l0.5-0.85c0.267,0.033,0.467,0.167,0.6,0.4c0.067,0.133,0.15,0.433,0.25,0.9c0.133,0.333,0.2,0.567,0.2,0.7
		c0.033,0.229-0.084,0.413-0.35,0.55c0.273-0.134,0.624-0.234,1.05-0.3c0.5-0.067,0.85-0.133,1.05-0.2l1.25-0.7h0.1l0.1-0.05
		c0.2,0.267,0.317,0.434,0.35,0.5c0.5-0.5,0.983-0.833,1.45-1c0.033,0.233,0.05,0.883,0.05,1.95l-0.1-0.05l-0.25-0.2
		c-0.6,1.233-1.167,2.066-1.7,2.5l0.35,0.7c0.167,0.434,0.1,0.817-0.2,1.15l3.75,3.45l-0.15-9.6l-0.1,0.35
		c-0.067,0.6-0.167,1.033-0.3,1.3c-0.067,0.167-0.267,0.316-0.6,0.45c0.033-0.2,0.1-0.517,0.2-0.95c0.067-0.4,0.083-0.75,0.05-1.05
		c-0.333-0.066-0.55-0.083-0.65-0.05c-0.034-0.133-0.05-0.5-0.05-1.1c0.267-0.167,0.567-0.167,0.9,0
		c0.3,0.167,0.483,0.417,0.55,0.75V32.8c-0.167-0.367-0.317-0.85-0.45-1.45c-0.667-0.667-1-1.434-1-2.3c0-0.2,0.067-0.333,0.2-0.4
		c0.066-0.033,0.133-0.05,0.2-0.05c0.534,1.333,0.9,2.283,1.1,2.85c0.3,0.833,0.567,1.4,0.8,1.7c0.4,0.533,0.933,0.833,1.6,0.9
		c1.434,0.133,2.833-1.083,4.2-3.65c0.2-0.367,0.4-0.717,0.6-1.05c0.066,0.8,0.117,1.45,0.15,1.95c0.1,1.067,0.117,1.967,0.05,2.7
		c0.067,0.167,0.217,0.367,0.45,0.6c0.1,0.233,0.367,0.7,0.8,1.4c0.333,0.567,0.534,1.017,0.6,1.35c0.067,0.367,0.033,0.75-0.1,1.15
		c-0.233,0.633-0.35,0.967-0.35,1c-0.034,0.2-0.05,0.633-0.05,1.3c0.033,0.534-0.05,0.95-0.25,1.25c0.067-1.367-0.233-2.633-0.9-3.8
		l0.05-1.45l-0.85-0.5c-0.233,0.467-0.5,0.85-0.8,1.15l0.2,11.4l4,3.8l0.25-0.8c0.1-0.2,0.267-0.333,0.5-0.4
		c0.267,0.233,0.533,0.25,0.8,0.05c0.233,0.1,0.383,0.217,0.45,0.35l0.1-0.1l-0.3-0.45l0.25-0.15c0.167-0.033,0.4-0.083,0.7-0.15
		c0.267-0.067,0.433-0.167,0.5-0.3c-0.067,1.033,0.033,1.583,0.3,1.65c0.333,0.167,0.633-0.1,0.9-0.8
		c0.167-0.5,0.284-0.983,0.35-1.45v-0.25c0.067,0.5,0.05,0.917-0.05,1.25c-0.233,0.833-0.767,1.617-1.6,2.35
		c0.433,0.2,0.65,0.5,0.65,0.9v2l2.85,2.75c-0.333-3.667-0.567-6.983-0.7-9.95c-0.133-3.4-0.267-6.383-0.4-8.95
		c0.867,0.233,1.85,0.4,2.95,0.5C72.617,40.8,73.817,40.883,74.95,40.95z M36,39.7c-0.6-0.034-1.067-0.05-1.4-0.05
		c-0.6,0.033-0.983,0.25-1.15,0.65c-0.133,0.333,0,0.684,0.4,1.05c0.233,0.233,0.583,0.55,1.05,0.95c0.167,0.233,0.4,0.6,0.7,1.1
		c0.3,0.367,0.683,0.483,1.15,0.35c0.833-0.233,0.917-1.133,0.25-2.7L36,39.7z M32.1,45.6c0.2,0.2,0.483,0.217,0.85,0.05
		c0.066-0.267,0.083-0.467,0.05-0.6l-1-0.35C31.9,45.1,31.933,45.4,32.1,45.6z M27.7,67.05c0.3,0.067,0.533,0.167,0.7,0.3
		c0.267,0.233,0.567,0.8,0.9,1.7L30,68.7c-0.1-0.733-0.45-1.383-1.05-1.95c-0.7-0.633-1.35-0.617-1.95,0.05
		C27.133,66.9,27.367,66.983,27.7,67.05z M63.7,104.05l-0.275,0.075c0.62-0.188,1.229-0.447,1.825-0.775
		C64.75,103.65,64.233,103.884,63.7,104.05z M60.5,16.85c1.5,1.267,3.083,2.633,4.75,4.1l0.05,0.15
		c0.167,0.633-0.083,1.033-0.75,1.2c-0.633,0.2-1.033-0.017-1.2-0.65L63.1,20.6l-0.25-0.05c-0.2,0.4-0.55,0.55-1.05,0.45
		c-0.5-0.133-0.767-0.45-0.8-0.95c-0.033-0.1-0.05-0.167-0.05-0.2l-0.05-0.5L61,18.9C60.7,18.3,60.533,17.617,60.5,16.85z
		 M50.95,8.65H50.9L49.85,8.9L49.8,9.4c-0.4-0.333-0.733-0.566-1-0.7c0.267,0.8,0.15,1.5-0.35,2.1c-0.4,0.567-0.684,0.717-0.85,0.45
		c-0.1-0.167-0.184-0.617-0.25-1.35c-0.333-0.033-0.567-0.316-0.7-0.85l0.1-0.25c-0.1-0.233-0.117-0.466-0.05-0.7
		c0.267-1.033,0.483-1.867,0.65-2.5C48.417,6.5,49.617,7.517,50.95,8.65z M52.35,9.85c1.8,1.533,3.816,3.25,6.05,5.15
		c0,3.867,0.017,7,0.05,9.4l0.5-0.75c0.267-0.3,0.6-0.367,1-0.2l0.15,0.9c0,0.066-0.017,0.25-0.05,0.55l-0.75-0.2
		c0.067,0.6,0.067,1.25,0,1.95c-0.1,0.934-0.316,1.5-0.65,1.7c-0.267,0.167-0.816,0.2-1.65,0.1c-0.633-0.1-1.183-0.233-1.65-0.4
		c-0.567-0.2-1.3-0.767-2.2-1.7c-0.867-0.934-1.566-1.467-2.1-1.6c-0.066,0.3-0.1,0.65-0.1,1.05c-0.167-0.233-0.317-0.433-0.45-0.6
		c0.1,0.1,0.217,0.15,0.35,0.15c-0.133-0.567-0.45-1.167-0.95-1.8c-0.066-0.1-0.167-0.2-0.3-0.3c-0.067-0.033-0.133-0.167-0.2-0.4
		c-0.066-0.167-0.05-0.65,0.05-1.45c0.466-0.066,1.183-0.083,2.15-0.05l0.05-0.5l0.75-0.15v-4.2c-0.367-0.133-0.7-0.4-1-0.8
		c0.133-0.667,0.117-1.684-0.05-3.05c-0.2,0.033-0.4,0.017-0.6-0.05c-0.233-0.1-0.367-0.25-0.4-0.45
		c-0.033-0.3,0.133-0.483,0.5-0.55c0.167-0.033,0.433-0.05,0.8-0.05l-0.4-0.5c0.4-0.066,0.7,0.083,0.9,0.45l0.2-0.05V9.85z
		 M75.1,39.1c-0.6,0.167-1.55,0.233-2.85,0.2c-2.133-0.167-3.433-0.25-3.9-0.25c-0.1-1.8-0.184-3.367-0.25-4.7
		c-0.3-0.067-0.517-0.217-0.65-0.45c-0.167-0.333-0.35-0.833-0.55-1.5l-0.85-1.65c-0.267,0.7-0.433,1.833-0.5,3.4
		c0.9,0.533,1.383,1.6,1.45,3.2c0,0.233-0.05,0.4-0.15,0.5V37.6l-0.15-1c-0.233-0.3-0.4-0.383-0.5-0.25
		c-0.3,0.333-0.483,0.517-0.55,0.55c-0.5,0.3-0.85,0.3-1.05,0c-0.133-0.167-0.217-0.566-0.25-1.2c-0.434,0.1-0.684,0.167-0.75,0.2
		c0.5-1.233,0.767-2,0.8-2.3c0.067-0.467,0.067-1.217,0-2.25c0-0.167,0.067-0.55,0.2-1.15c0.133-0.534,0.183-0.95,0.15-1.25
		l0.05-0.1c0.2-0.3,0.467-0.45,0.8-0.45c0.3,0,0.566,0.117,0.8,0.35c0-0.467,0.184-2.583,0.55-6.35c1.3,1.133,2.65,2.3,4.05,3.5
		c0.867,0.767,1.733,1.517,2.6,2.25c0.267,2.934,0.483,6.117,0.65,9.55l0.05-0.65c0.034-0.533,0.317-0.85,0.85-0.95
		c-0.1,0.233-0.133,0.683-0.1,1.35c0.067,0.767,0.083,1.233,0.05,1.4C75.1,38.917,75.1,39,75.1,39.1z M64.3,44.7
		c-0.533,0-0.833-0.267-0.9-0.8c0.133-0.5,0.434-0.9,0.9-1.2c0.667,0,1,0.333,1,1C65.3,44.367,64.967,44.7,64.3,44.7z
		 M28.875,120.825c0.705,0.688,1.371,1.354,2,2c-0.433-0.425-0.875-0.851-1.325-1.275C29.325,121.3,29.1,121.059,28.875,120.825z
		 M39.3,92.05c0.733,0,2.017,0.084,3.85,0.25c1.633,0.066,2.8-0.133,3.5-0.6l2.65,0.35c0.967-0.133,1.383,0.434,1.25,1.7
		c-0.133,1-0.433,1.85-0.9,2.55c-0.633,1-1.517,1.566-2.65,1.7c-0.667,0.066-1.8-0.033-3.4-0.3c-3.3-0.566-5.083-0.9-5.35-1
		c-2.2-0.8-3.05-2.117-2.55-3.95c0.066,0,0.667-0.15,1.8-0.45C38.167,92.134,38.767,92.05,39.3,92.05z M69.4,70.85
		c-0.233-1.833-0.583-2.883-1.05-3.15C68.45,68.6,68.8,69.65,69.4,70.85z M75.25,73.8l1.7,0.3c0.767,0.1,1.25,0.117,1.45,0.05
		c0.133-0.033,0.55-0.3,1.25-0.8L80,71.7c-0.667,0-2.167-0.083-4.5-0.25c-1.867-0.133-3.367-0.15-4.5-0.05
		c0.1,0.833,0.667,1.45,1.7,1.85C73.167,73.45,74.017,73.633,75.25,73.8z M44.9,61.35c0.4,0.1,0.8,0.3,1.2,0.6
		c0.667,0.3,1.383,0.433,2.15,0.4c0.1-0.8,0.067-1.417-0.1-1.85c-0.167-0.367-0.55-0.85-1.15-1.45l-0.7-0.35
		c-0.733-0.067-1.3-0.083-1.7-0.05c-0.667,0.033-1.133,0.267-1.4,0.7c-0.267,0.4-0.35,0.8-0.25,1.2c0.1,0.367,0.333,0.65,0.7,0.85
		C43.817,61.5,44.233,61.483,44.9,61.35z M49,58.7v1c0.033,0.4,0.167,0.683,0.4,0.85c0.233,0.2,0.517,0.233,0.85,0.1
		C50.517,59.983,50.1,59.333,49,58.7z M58.55,95.45c0.9,0.033,2.05,0.116,3.45,0.25l-0.35,3.649c-0.566,0.534-0.983,0.9-1.25,1.101
		c-0.467,0.366-0.933,0.566-1.4,0.6c-0.467,0-0.967-0.149-1.5-0.45c-0.5-0.267-0.9-0.566-1.2-0.899
		c-0.267-0.334-0.483-0.851-0.65-1.55c-0.2-0.801-0.2-1.4,0-1.801C55.95,95.717,56.917,95.417,58.55,95.45z M74.65,96.35
		c-0.1,0.2-0.383,0.667-0.85,1.4c-0.4,0.6-0.633,1.1-0.7,1.5c0.433,0.233,0.883,0.15,1.35-0.25c0.333-0.333,0.617-0.767,0.85-1.3
		L74.65,96.35z M54.3,104.7l1,2.35c0,0.9-0.017,1.434-0.05,1.601c-1.567,0.199-2.717,0.267-3.45,0.199
		c-1.333-0.166-2.05-0.767-2.15-1.8c-0.033-0.5,0-1.033,0.1-1.6c0.133-0.7,0.35-1.15,0.65-1.351c0.4-0.267,1.083-0.316,2.05-0.149
		C53.317,104.15,53.933,104.4,54.3,104.7z M48.75,110.6c0.433,1.067,0.85,1.634,1.25,1.7l1.3,0.7c-2.933-0.066-4.233-1.283-3.9-3.65
		C47.9,109.25,48.35,109.667,48.75,110.6z"/>
	<path style="fill-rule:evenodd;clip-rule:evenodd;fill:#85847E;" d="M67.05,138.8c-1.2,2.2-2.333,3.834-3.4,4.9
		c7-17.767,16.133-41.667,27.4-71.7l8.101-21.65c-1.9-2.667-4.067-5.067-6.5-7.2c-5.334-4.667-10.2-8.933-14.601-12.8
		c-4.2-3.7-7.733-6.833-10.6-9.4c4.933,3.233,10.533,7.483,16.8,12.75c1.1,0.933,2.717,2.3,4.85,4.1c1.834,1.6,3.384,3.05,4.65,4.35
		c1.267,1.267,2.717,2.333,4.35,3.2c1.767,0.9,3.467,1.417,5.101,1.55c8.333,0.567,15.283,0.533,20.85-0.1
		c-0.366-0.433-0.983-0.933-1.85-1.5c-0.967-0.633-1.617-1.117-1.95-1.45c-0.366-0.3-0.717-0.8-1.05-1.5
		c-0.4-0.833-0.7-1.367-0.9-1.6c-0.7-0.867-1.95-1.5-3.75-1.9c-0.533-0.1-1.6-0.233-3.2-0.4l1.301-1.1
		c-0.534-0.434-1.684-0.7-3.45-0.8c-0.834-0.367-2.101-0.55-3.8-0.55c-0.4,0.033-0.784,0.067-1.15,0.1l-1.6-0.25
		c-0.967-0.067-1.65,0.083-2.051,0.45c-1.133,0.067-1.866,0.1-2.199,0.1c-1.334,0-2.134-0.05-2.4-0.15c-0.533-0.2-1-0.783-1.4-1.75
		c-0.5-1.2-0.699-2.283-0.6-3.25c0.066-0.5,0.217-0.917,0.45-1.25c0.333-0.467,0.55-0.833,0.649-1.1c0.134-0.533,0.134-1.183,0-1.95
		c-0.066-0.467-0.216-1.117-0.449-1.95c-0.101-0.5-0.184-1.3-0.25-2.4c0.833,0.9,1.583,1.617,2.25,2.15
		c1.466,1.267,3.267,2.583,5.399,3.95c0.566,0.367,2.45,1.533,5.65,3.5c1.233,0.8,3.166,2,5.8,3.6c2.366,1.5,4.267,2.817,5.7,3.95
		c0.566,0.467,1.366,1.267,2.399,2.4c1.034,1.067,1.851,1.85,2.45,2.35c0.467,0.367,1.25,0.867,2.351,1.5
		c0.933,0.633,1.466,1.35,1.6,2.15c-0.8,0.3-1.983,0.417-3.55,0.35c-2.066-0.133-3.3-0.183-3.7-0.15c-0.5,0.066-1.5,0.3-3,0.7
		c-1.3,0.333-2.316,0.483-3.05,0.45l0.35,0.2c-1.7,0.033-3.05,0.066-4.05,0.1l-1.05,0.15c-1.267,0.267-2.351,0.533-3.25,0.8
		c-5.3,1.5-8.134,3.867-8.5,7.1c-0.4,3.133-1.084,5.633-2.05,7.5c-0.733,1.4-1.367,2.8-1.9,4.2c-0.634,1.733-1.167,3.167-1.6,4.3
		c-0.134,0.4-0.767,1.883-1.9,4.45c-0.833,1.967-1.384,3.5-1.65,4.601c-0.433,1.866-1.283,4.199-2.55,7
		c-1.467,3.199-2.434,5.517-2.899,6.949l-0.551,2c-1.066,3.967-1.449,7.417-1.149,10.351c0.2,1.566,0.583,2.8,1.149,3.7
		c0.534,0.866,1.184,1.35,1.95,1.449c-1.166,0.101-1.95-0.116-2.35-0.649c-0.367-0.8-0.767-1.434-1.2-1.9l-0.45-0.45
		c-0.899-0.767-1.649-0.8-2.25-0.1c-0.667,1.134-1.183,2-1.55,2.6l-0.25,0.4l-0.3,0.5c-1.067,1.667-1.75,3.184-2.05,4.55
		c-0.1,0.533-0.467,1.367-1.1,2.5c-0.566,1.033-0.867,1.867-0.9,2.5c-0.033,1.334-0.083,2.351-0.15,3.05
		c-0.067,1.267-0.217,2.25-0.45,2.95c-0.233,0.767-0.75,1.767-1.55,3c-0.9,1.334-1.517,2.267-1.85,2.8L67.05,138.8z M65.25,20.95
		c-1.667-1.467-3.25-2.833-4.75-4.1c-0.733-0.633-1.433-1.25-2.1-1.85c-2.233-1.9-4.25-3.617-6.05-5.15
		c-0.5-0.434-0.967-0.833-1.4-1.2c-1.333-1.133-2.534-2.15-3.6-3.05c-1.233-1.067-2.3-1.967-3.2-2.7
		c-0.133-0.133-0.25-0.25-0.35-0.35c-1.6-1.333-2.617-2.15-3.05-2.45l0.3,0.2l3.4-0.3h9.35c2.5,0.533,4.117,0.817,4.85,0.85
		c0.467,0.033,1.467,0.017,3-0.05c1.3-0.066,2.3-0.05,3,0.05c1.434,0.267,3.217,1.3,5.35,3.1c1.167,1,2.75,2.466,4.75,4.4
		c1.4,1.2,3.35,2.467,5.85,3.8c3.467,1.867,5.483,2.983,6.051,3.35c1.566,1,3.25,2.433,5.05,4.3l-0.55,0.7
		c-0.434,0.733-0.767,1.25-1,1.55v-1.2c-0.434,0.1-1,0.433-1.7,1c-0.2,0.167-0.4,0.316-0.601,0.45
		c-0.233-0.066-0.483-0.15-0.75-0.25c-0.133,0.067-0.283,0.133-0.449,0.2c-0.7,0.3-1.767,0.3-3.2,0C82.116,21.917,81.2,21.5,80.7,21
		c0.267-0.033,0.967-0.067,2.1-0.1c0.7,0,1.283-0.083,1.75-0.25c-1.3-0.767-2.033-1.2-2.2-1.3c-2.066-0.934-5.216-2.417-9.45-4.45
		c-2.433-1.333-4.566-2.433-6.4-3.3c1.267-0.167,2.317-0.583,3.15-1.25c1.367,0.033,2.367,0.017,3-0.05
		c0.133-1.333-0.117-2.533-0.75-3.6c-0.633-1.067-1.55-1.85-2.75-2.35C68.917,4.25,67.867,3.633,66,2.5
		c-1.333-0.8-2.45-1.183-3.35-1.15h-11c-1-0.033-1.75-0.05-2.25-0.05c-0.9,0-1.6,0.15-2.1,0.45c0.534,0.1,1,0.3,1.4,0.6
		c0.3,0.2,0.683,0.55,1.15,1.05c0.9,0.9,2,2.217,3.3,3.95c0.767,1,1.417,1.85,1.95,2.55c-1.867-1.533-3.917-3.117-6.15-4.75
		l-6.3-4.45c1.4,1.4,11.233,10.1,29.5,26.1c1.632,1.424,3.257,2.849,4.875,4.275c-1.146-0.967-2.288-1.942-3.425-2.925
		c-0.867-0.733-1.733-1.483-2.6-2.25c-1.4-1.2-2.75-2.367-4.05-3.5C66.383,21.9,65.817,21.417,65.25,20.95z M99.7,34.3
		c2.7,0.333,4.649,0.3,5.85-0.1l0.101-0.85l-2-0.5c-1.767-0.067-3.084-0.033-3.95,0.1C99.566,33.417,99.566,33.867,99.7,34.3z
		 M102.6,50.1l-0.3,0.05c1.967-0.133,3.634-0.217,5-0.25C106.033,49.9,104.467,49.967,102.6,50.1z"/>
	<path style="fill-rule:evenodd;clip-rule:evenodd;fill:#63635D;" d="M84.55,65.25L84.2,61c-0.4,0.133-0.7,0.05-0.9-0.25
		c-0.399-0.467-0.717-0.983-0.95-1.55c-0.033-0.167-0.033-0.317,0-0.45c1.467-0.067,2.934-0.783,4.4-2.15
		c0.733-0.6,1.967-1.633,3.7-3.1h0.05c0.6,1.8,0.5,3.6-0.3,5.4l-0.15,0.15l0.101,0.8c-0.5,1.9-0.801,3.167-0.9,3.8
		c-0.167,0.934-0.134,2.25,0.1,3.95c0.101,1.033-0.199,2.15-0.899,3.35c-1.167,2-1.767,3.033-1.8,3.1
		c-0.267,0.633-0.517,1.534-0.75,2.7c-0.267,1.267-0.483,2.15-0.65,2.65c-0.2,0.566-0.566,1.033-1.1,1.399
		c-0.733,0.533-1.2,0.917-1.4,1.15c-0.767,0.866-1.667,2.184-2.7,3.95c-1.367,2.333-2.183,3.683-2.45,4.05
		c-0.767,1.133-1.783,2.85-3.05,5.149c-1.3,2.334-2.3,4.034-3,5.101c-2.1,3.066-2.933,5.767-2.5,8.1c0.267-0.3,1.25-1.033,2.95-2.2
		c0.5,0.534,0.383,1.517-0.35,2.95c-0.933,1.533-1.5,2.5-1.7,2.9c-1.2,2.333-2.083,4.1-2.65,5.3c1.1-1.434,1.667-2.184,1.7-2.25
		c0.367,2.2,0.6,3.866,0.7,5c0.566,0.167,1.233-0.05,2-0.65c0.466-0.333,1.133-0.866,2-1.6l-5.9,15.3
		c-0.533,0.066-0.917-0.083-1.15-0.45c-0.133-0.233-0.133-0.55,0-0.949c0.033-0.233,0.117-0.567,0.25-1
		c0-0.067,0.233-0.834,0.7-2.301c0.333-1.033,0.45-1.783,0.35-2.25c-0.434,0.067-0.767,0.067-1,0c0.1,0.601-0.3,1.084-1.2,1.45
		c-0.633,0.267-1.317,0.417-2.05,0.45c-1.2,0.066-2.117-0.15-2.75-0.65S59.9,126,59.7,124.8c-0.233-1.533,0-3.05,0.7-4.55
		c0.4-0.9,1.133-2.3,2.2-4.2c0.833-1.866,1.083-3.116,0.75-3.75c-0.133-0.233-0.383-0.483-0.75-0.75c-0.3-0.233-0.5-0.533-0.6-0.899
		c-0.6-1.767,0.1-3.551,2.1-5.351c2.566-2.3,3.967-3.783,4.2-4.45l-3.05,2.5c-0.597,0.328-1.205,0.587-1.825,0.775
		c-0.076,0.029-0.151,0.054-0.225,0.075h-0.15c-1.633,0.2-3.183,0.184-4.65-0.05c-1.733-0.301-2.767-0.867-3.1-1.7
		c-0.033,0.967,0.333,1.816,1.1,2.55c0.8,0.767,1.667,1.116,2.6,1.05l-0.7,0.3c0.467,0.301,0.567,1.101,0.3,2.4
		c-0.3,1.267-1.167,2.116-2.6,2.55c-0.833,0.3-1.833,0.417-3,0.351c-0.967,0-1.5-0.017-1.6-0.051c-0.167-0.066-0.45-0.233-0.85-0.5
		c-0.3-0.233-0.6-0.366-0.9-0.399c0.4,0.866,1.05,1.434,1.95,1.7c0.533,0.133,1.417,0.233,2.65,0.3c0.167,0.899,0,1.517-0.5,1.85
		c-0.333,0.2-1.033,0.351-2.1,0.45c-1.733,0.134-2.767-0.384-3.1-1.55c-0.333,0.333-0.35,0.666-0.05,1
		c-0.967-0.7-1.55-1.851-1.75-3.45c-0.067-0.4-0.1-1.8-0.1-4.2c0-0.3,0-0.717,0-1.25c0.033-0.434,0.167-0.8,0.4-1.1
		c0.133-0.167,0.383-0.316,0.75-0.45s0.6-0.25,0.7-0.35c0.567-0.601,0.733-1.184,0.5-1.75v-2.2c-0.4,0.633-1.583,0.934-3.55,0.899
		c-1.767-0.066-3.034-0.283-3.8-0.649c-1-0.467-2.217-1.25-3.65-2.351c-0.467-0.366-0.833-0.649-1.1-0.85
		c-0.467-0.366-0.867-0.583-1.2-0.65c-0.434-0.5-0.784-0.966-1.05-1.399c-0.3-0.434-0.483-0.9-0.55-1.4
		c-0.033-0.3-0.083-0.8-0.15-1.5c-1.333,1.733-2.133,3.15-2.4,4.25c-0.066,0.601-0.15,1.084-0.25,1.45
		c-0.1,0.634-0.283,1.066-0.55,1.3c-1.1,1.101-2.65,1-4.65-0.3c-1.867-1.167-3-2.45-3.4-3.85c-0.233-0.801-0.05-1.267,0.55-1.4
		c1.133-0.267,1.717-0.417,1.75-0.45c0.4-0.3,0.633-0.7,0.7-1.2c0.033-0.3,0.017-0.816-0.05-1.55c0-0.267-0.083-0.899-0.25-1.899
		c-0.167-0.834-0.2-1.434-0.1-1.801c0.1-0.5,0.733-1.1,1.9-1.8c1.033-0.666,1.5-1.283,1.4-1.85c-0.434,0-1.033,0.116-1.8,0.35
		c-0.767,0.233-1.367,0.334-1.8,0.3c-0.233,0-0.667-0.066-1.3-0.199c-0.534-0.134-0.983-0.15-1.35-0.051
		c-0.1,0.4,0.117,0.884,0.65,1.45s0.733,1.033,0.6,1.4c0-0.033-0.45,0.416-1.35,1.35c-0.667,0.4-1.583,0.533-2.75,0.4
		c-1.5-0.2-2.433-0.283-2.8-0.25c-0.233,1.233-1.284,2.783-3.15,4.649c0.333-0.733,0.85-1.616,1.55-2.649
		c0.9-1.334,1.45-2.184,1.65-2.55c0.4-0.7,0.8-1.617,1.2-2.75c0.233-0.634,0.55-1.584,0.95-2.851c0.434-1.267,1.133-3.133,2.1-5.6
		c0.333-0.833,0.8-2.467,1.4-4.9c0.033-0.1,0.267-0.883,0.7-2.35c0.3-0.934,0.483-1.717,0.55-2.35c0.067,1.033-0.033,2.583-0.3,4.65
		c-0.267,0.167-0.533,0.55-0.8,1.15c-0.2,0.533-0.3,1.067-0.3,1.6c-0.033,0.667,0.1,1.15,0.4,1.45l0.15-0.2
		c-0.1,0.667-0.15,1.3-0.15,1.9c-0.033,1.7,0.033,2.8,0.2,3.3c0.333,1.1,1.167,1.583,2.5,1.45c0.4-0.034,0.95-0.184,1.65-0.45
		c0.233-0.066,0.767-0.033,1.6,0.1c0.7,0.101,1.167,0.066,1.4-0.1c0.533-0.367,0.8-1.184,0.8-2.45c-0.066-1.4,0.034-2.267,0.3-2.6
		c0.267-0.333,0.667-0.517,1.2-0.55c0.267,0,0.7,0,1.3,0c0.533-4.633,0.767-10.35,0.7-17.15c0.267,0.933,0.483,1.617,0.65,2.05
		c0.3,0.733,0.75,1.217,1.35,1.45c0.1-0.8,0.133-1.8,0.1-3c0-0.667-0.033-1.667-0.1-3c0.2,0.9,0.55,1.783,1.05,2.65
		c0.233,0.433,0.75,1.217,1.55,2.35c0.767,1.033,1.467,2.367,2.1,4c-0.033,1-0.033,1.733,0,2.2c0.033,0.833,0.15,1.567,0.35,2.2
		c0.066,0.433,0.117,0.717,0.15,0.85c0.067,0.233,0.25,0.466,0.55,0.7c0.2,0.133,0.633,0.25,1.3,0.35
		c0.566,0.067,1.05,0.083,1.45,0.05l0.05,0.15c-0.133,0.1-0.4,0.216-0.8,0.35L43.3,71.7c-1.133,0.167-1.867,0.533-2.2,1.1
		c-0.3,0.3-0.467,0.483-0.5,0.55l-0.1,0.6l-0.15,0.3l0.15-0.15c-0.067,1.167,0,2.017,0.2,2.55c0.133,0.233,0.4,0.5,0.8,0.8
		c-0.8-0.2-1.4-0.417-1.8-0.65c-0.067,0.934,2.133,1.9,6.6,2.9c2.567,0.5,4.133,0.783,4.7,0.85c-1.267,0.5-2.067,0.917-2.4,1.25
		c-0.567,0.566-0.467,1.217,0.3,1.95c-0.8-0.4-1.333-0.7-1.6-0.9c0.034,0.4,0.95,1.084,2.75,2.051c2,1,3.517,1.583,4.55,1.75
		c3.433,0.466,6.117-0.634,8.05-3.301L61.7,82.15c0.566-1.134,1.383-2.084,2.45-2.851c0.7-0.5,1.867-1.116,3.5-1.85
		c0.867-0.4,1.417-0.75,1.65-1.05c0.267-0.367,0.4-1.017,0.4-1.95l-0.1-1.65c0.367,0.733,1.017,1.6,1.95,2.6
		c0.767,0.8,1.467,1.434,2.1,1.9c1.467,1.066,2.684,1.65,3.65,1.75c0.833,0.101,1.783,0.033,2.851-0.2
		c1.166-0.267,2-0.649,2.5-1.149l1.649-2.35L83.15,75.4c0.3-0.167,0.583-0.417,0.85-0.75c0.3-0.433,0.517-0.95,0.65-1.55l0.5,0.45
		l-0.4-5.45v-0.25c0-0.9-0.033-1.617-0.1-2.15C84.616,65.567,84.583,65.417,84.55,65.25z M82.1,75.6
		c-1.233,0.367-2.149,0.617-2.75,0.75c-0.933,0.2-1.766,0.233-2.5,0.1c-0.1-0.034-0.184-0.05-0.25-0.05l-0.15-0.05l1.1,0.05
		c0.667,0.033,1.317-0.033,1.95-0.2c0.4-0.1,1-0.267,1.8-0.5C81.5,75.633,81.767,75.6,82.1,75.6z M39.3,92.05
		c-0.533,0-1.133,0.084-1.8,0.25c-1.133,0.3-1.733,0.45-1.8,0.45c-0.5,1.833,0.35,3.15,2.55,3.95c0.267,0.1,2.05,0.434,5.35,1
		c1.6,0.267,2.733,0.366,3.4,0.3c1.133-0.134,2.017-0.7,2.65-1.7c0.467-0.7,0.767-1.55,0.9-2.55c0.133-1.267-0.283-1.833-1.25-1.7
		l-2.65-0.35c-0.7,0.467-1.867,0.666-3.5,0.6C41.317,92.134,40.033,92.05,39.3,92.05z M69.4,70.85c-0.6-1.2-0.95-2.25-1.05-3.15
		C68.817,67.967,69.167,69.017,69.4,70.85z M69.55,72l-0.15-1.15c0.133,0.3,0.483,0.9,1.05,1.8L69.55,72z M41.05,64.85l0.6,1.75
		c0.367,1.333,0.917,2.367,1.65,3.1c0.233,0.233,0.483,0.4,0.75,0.5c-0.933-0.3-1.65-1.017-2.15-2.15
		C41.633,67.417,41.35,66.35,41.05,64.85z M58.55,95.45c-1.633-0.033-2.6,0.267-2.9,0.899c-0.2,0.4-0.2,1,0,1.801
		c0.167,0.699,0.383,1.216,0.65,1.55c0.3,0.333,0.7,0.633,1.2,0.899c0.533,0.301,1.033,0.45,1.5,0.45
		c0.467-0.033,0.933-0.233,1.4-0.6c0.267-0.2,0.684-0.566,1.25-1.101L62,95.7C60.6,95.566,59.45,95.483,58.55,95.45z M48.75,110.6
		c-0.4-0.933-0.85-1.35-1.35-1.25c-0.333,2.367,0.967,3.584,3.9,3.65l-1.3-0.7C49.6,112.233,49.183,111.667,48.75,110.6z
		 M54.3,104.7c-0.367-0.3-0.983-0.55-1.85-0.75c-0.967-0.167-1.65-0.117-2.05,0.149c-0.3,0.2-0.517,0.65-0.65,1.351
		c-0.1,0.566-0.133,1.1-0.1,1.6c0.1,1.033,0.817,1.634,2.15,1.8c0.733,0.067,1.883,0,3.45-0.199c0.033-0.167,0.05-0.7,0.05-1.601
		L54.3,104.7z"/>
	<path style="fill-rule:evenodd;clip-rule:evenodd;fill:#595954;" d="M70.45,72.65l2.25,1.7c0.433,0.3,1.05,0.55,1.85,0.75
		c0.167,0.066,0.467,0.283,0.9,0.65c0.4,0.3,0.7,0.483,0.9,0.55l0.1,0.05l0.15,0.05c0.066,0,0.15,0.017,0.25,0.05
		c0.733,0.133,1.566,0.1,2.5-0.1c0.601-0.133,1.517-0.383,2.75-0.75c0.567-0.067,0.917-0.133,1.051-0.2l1.149-0.05L82.65,77.7
		c-0.5,0.5-1.334,0.883-2.5,1.149c-1.067,0.233-2.017,0.301-2.851,0.2c-0.966-0.1-2.183-0.684-3.65-1.75
		c-0.633-0.466-1.333-1.1-2.1-1.9c-0.933-1-1.583-1.867-1.95-2.6c-0.2-0.333-0.3-0.667-0.3-1l0.25,0.2L70.45,72.65z M51,80.55
		c-0.567-0.066-2.133-0.35-4.7-0.85c-4.466-1-6.667-1.967-6.6-2.9c0.4,0.233,1,0.45,1.8,0.65c1,0.267,1.6,0.433,1.8,0.5
		c1.1,0.434,2.417,0.833,3.95,1.2l0.8,0.1c0.434,0.066,1.767,0.1,4,0.1h0.55c0.5-0.033,1.25-0.133,2.25-0.3
		c0.9-0.1,1.617-0.1,2.15,0l-0.35,1C55.05,80.616,53.167,80.783,51,80.55z M48.9,83.75c0.9,0.366,1.7,0.634,2.4,0.8
		c0.867,0.267,2.3,0.316,4.3,0.15c1.7-0.167,2.9-0.384,3.6-0.65c1.3-0.533,1.9-1.434,1.8-2.7l0.7,0.801l0.95,1.199
		c-1.933,2.667-4.617,3.767-8.05,3.301c-1.033-0.167-2.55-0.75-4.55-1.75c-1.8-0.967-2.716-1.65-2.75-2.051
		C47.567,83.05,48.1,83.35,48.9,83.75z M44.8,71.05c-0.4,0.034-0.883,0.017-1.45-0.05c-0.667-0.1-1.1-0.217-1.3-0.35
		c-0.3-0.233-0.483-0.467-0.55-0.7c-0.033-0.133-0.083-0.417-0.15-0.85c-0.2-0.633-0.317-1.367-0.35-2.2
		c-0.033-0.467-0.033-1.2,0-2.2l0.05,0.15c0.3,1.5,0.583,2.566,0.85,3.2c0.5,1.133,1.217,1.85,2.15,2.15c0.2,0.1,0.4,0.15,0.6,0.15
		l0.35,0.7H44.8z M25.6,105.35c-0.767,0.233-1.967,0.267-3.6,0.101l-1.1-0.05l-0.9-1c-0.333-0.4-0.533-0.7-0.6-0.9
		c-0.133-0.3-0.167-0.65-0.1-1.05c-1.333-0.167-2.4-0.684-3.2-1.55c-0.633-0.7-1-1.5-1.1-2.4v1.75c-0.167-0.066-0.6-0.45-1.3-1.15
		c-0.6-0.566-1.05-0.8-1.35-0.699c-0.1,0.6-0.133,1-0.1,1.199l-1.9-1.449c-0.533-0.5-0.967-0.983-1.3-1.45
		c-0.2-0.566-0.333-0.934-0.4-1.101L8.3,95.35l1.65-3.899c-0.2,1.267-0.083,2.05,0.35,2.35c0.6,0.5,1.184,0.5,1.75,0
		c0.3-0.267,0.717-0.75,1.25-1.45l0.25-0.25c1.867-1.866,2.917-3.416,3.15-4.649c0.367-0.033,1.3,0.05,2.8,0.25
		c1.167,0.133,2.083,0,2.75-0.4c0.9-0.934,1.35-1.383,1.35-1.35c0.133-0.367-0.067-0.834-0.6-1.4s-0.75-1.05-0.65-1.45
		c0.367-0.1,0.816-0.083,1.35,0.051c0.633,0.133,1.066,0.199,1.3,0.199c0.433,0.034,1.033-0.066,1.8-0.3
		c0.767-0.233,1.367-0.35,1.8-0.35c0.1,0.566-0.367,1.184-1.4,1.85c-1.167,0.7-1.8,1.3-1.9,1.8c-0.1,0.367-0.066,0.967,0.1,1.801
		c0.167,1,0.25,1.633,0.25,1.899c0.067,0.733,0.083,1.25,0.05,1.55c-0.067,0.5-0.3,0.9-0.7,1.2c-0.033,0.033-0.617,0.184-1.75,0.45
		c-0.6,0.134-0.783,0.6-0.55,1.4c0.4,1.399,1.533,2.683,3.4,3.85c2,1.3,3.55,1.4,4.65,0.3c0.267-0.233,0.45-0.666,0.55-1.3
		c0.1-0.366,0.184-0.85,0.25-1.45c0.267-1.1,1.067-2.517,2.4-4.25c0.066,0.7,0.117,1.2,0.15,1.5c0.066,0.5,0.25,0.967,0.55,1.4
		c0.267,0.434,0.617,0.899,1.05,1.399h-0.35c-0.167,0.934,0.383,2,1.65,3.2c1.067,1,2.117,1.684,3.15,2.05
		c3.333,1.334,6.283,1.567,8.85,0.7V101.9c0.233,0.566,0.067,1.149-0.5,1.75c-0.1,0.1-0.333,0.216-0.7,0.35s-0.617,0.283-0.75,0.45
		c-0.233,0.3-0.367,0.666-0.4,1.1c0,0.533,0,0.95,0,1.25c0,2.4,0.033,3.8,0.1,4.2c0.2,1.6,0.783,2.75,1.75,3.45
		c0.3,0.366,0.883,0.733,1.75,1.1c0.767,0.267,1.35,0.417,1.75,0.45c1.167,0.134,2.15,0.017,2.95-0.35
		c1-0.434,1.583-1.184,1.75-2.25c0.933-0.233,1.667-0.517,2.2-0.851c0.667-0.434,1.167-1.033,1.5-1.8
		c0.267-0.566,0.367-1.384,0.3-2.45c-0.034-1.399-0.034-2.25,0-2.55c0.466-0.066,1.333-0.184,2.6-0.35c1-0.267,1.55-0.817,1.65-1.65
		l-1.25,0.3c0.533-0.166,1.05-0.399,1.55-0.7l3.05-2.5c-0.233,0.667-1.633,2.15-4.2,4.45c-2,1.8-2.7,3.584-2.1,5.351
		c0.1,0.366,0.3,0.666,0.6,0.899c0.367,0.267,0.617,0.517,0.75,0.75c0.333,0.634,0.083,1.884-0.75,3.75c-1.067,1.9-1.8,3.3-2.2,4.2
		c-0.7,1.5-0.933,3.017-0.7,4.55c0.2,1.2,0.617,2.05,1.25,2.55s1.55,0.717,2.75,0.65c0.733-0.033,1.417-0.184,2.05-0.45
		c0.9-0.366,1.3-0.85,1.2-1.45c0.233,0.067,0.566,0.067,1,0c0.1,0.467-0.017,1.217-0.35,2.25c-0.467,1.467-0.7,2.233-0.7,2.301
		c-0.133,0.433-0.217,0.767-0.25,1c-0.133,0.399-0.133,0.716,0,0.949c0.233,0.367,0.617,0.517,1.15,0.45l-1.4,3.55
		c-0.333,0.367-0.833,1.051-1.5,2.051c-0.6,0.933-1.083,1.566-1.45,1.899c-0.967,1.267-1.583,1.967-1.85,2.101
		c-0.533,0.233-1.017,0.1-1.45-0.4c-0.367-0.467-0.55-0.967-0.55-1.5c-0.367,0.3-0.7,0.816-1,1.55
		c-0.533-0.166-1.117-0.816-1.75-1.95c-0.633-1.199-0.817-2.1-0.55-2.699c0.233-0.5,0.917-0.767,2.05-0.801
		c1.533-0.066,2.417-0.149,2.65-0.25c1-0.399,1.633-0.899,1.9-1.5c0.167-0.366,0.333-1.133,0.5-2.3c0.133-0.533,0.517-1.3,1.15-2.3
		s1.017-1.8,1.15-2.4c-1.2,0.9-2.567,1.217-4.1,0.95c-1.633-0.3-2.633-1.184-3-2.649c0.033,0.6,0.066,1.033,0.1,1.3
		c0,0.5,0.066,0.934,0.2,1.3c0.1,0.333,0.467,0.767,1.1,1.3c0.6,0.5,0.917,0.867,0.95,1.101c0.133,0.666-0.184,1.333-0.95,2
		c-0.733,0.566-1.45,0.866-2.15,0.899c0.267-0.166,0.617-0.483,1.05-0.95c-0.467-0.133-1.1-0.133-1.9,0
		c-1.3,0.233-2,0.351-2.1,0.351c-1.3-0.533-2.05-1.351-2.25-2.45c-0.1-0.467-0.117-1.167-0.05-2.1c0.066-1,0.066-1.7,0-2.101
		c-1.2-0.066-2.083-0.116-2.65-0.149c-1.034-0.101-1.867-0.417-2.5-0.95c0.4,0.6,0.566,1.25,0.5,1.95
		c-2.333-1.434-3.55-2.167-3.65-2.2c-0.267-0.134-0.733-0.267-1.4-0.4c-0.667-0.133-1.133-0.267-1.4-0.399
		c-0.767-0.367-1.4-1.067-1.9-2.101c-0.533-1.166-0.983-2.017-1.35-2.55c-0.367-0.5-0.8-0.884-1.3-1.15c-0.2-0.133-1-0.483-2.4-1.05
		c-0.933-0.366-1.683-0.833-2.25-1.399c-0.4-0.367-0.85-0.917-1.35-1.65c-0.567-0.833-0.983-1.4-1.25-1.7
		c-0.567-0.467-0.9-0.783-1-0.95c-0.2-0.399-0.233-1.033-0.1-1.899c0.133-0.8,0.333-1.384,0.6-1.75
		c0.033-0.066,0.483-0.45,1.35-1.15c0.534-0.434,0.684-0.916,0.45-1.45c-0.133-0.333-0.633-0.733-1.5-1.199
		c-0.867-0.5-1.383-1.017-1.55-1.551c-0.133-0.533-0.067-1.116,0.2-1.75c0.267-0.6,0.65-1.033,1.15-1.3
		c-0.1-0.333-0.566-0.566-1.4-0.7c-1.233-0.166-1.867-0.25-1.9-0.25c-0.633-0.199-1.15-0.517-1.55-0.949
		c-0.2-0.2-0.583-0.733-1.15-1.601c0.067,1.101,0.167,1.934,0.3,2.5c0.233,0.834,0.617,1.584,1.15,2.25
		c0.267,0.334,0.717,0.767,1.35,1.3c0.467,0.534,0.517,1.134,0.15,1.801C26.15,104.816,25.933,105.05,25.6,105.35z M59.85,29.35
		c-0.2,0.333-0.4,0.683-0.6,1.05c-1.367,2.567-2.767,3.783-4.2,3.65c-0.667-0.066-1.2-0.367-1.6-0.9c-0.233-0.3-0.5-0.867-0.8-1.7
		c-0.2-0.567-0.566-1.517-1.1-2.85c0.067-0.033,0.133-0.033,0.2,0l-0.1-0.55l0.25,0.05c0.133-0.5,0.033-1.017-0.3-1.55
		c-0.233-0.3-0.45-0.55-0.65-0.75c0-0.4,0.033-0.75,0.1-1.05c0.534,0.133,1.233,0.667,2.1,1.6c0.9,0.933,1.633,1.5,2.2,1.7
		c0.467,0.167,1.017,0.3,1.65,0.4c0.833,0.1,1.383,0.066,1.65-0.1c0.333-0.2,0.55-0.767,0.65-1.7c0.067-0.7,0.067-1.35,0-1.95
		l0.75,0.2c-0.033,0.333-0.1,0.817-0.2,1.45c-0.133,1-0.117,1.717,0.05,2.15l-0.15,0.1C59.783,28.867,59.817,29.117,59.85,29.35z
		 M68.35,39.05c0.467,0,1.767,0.083,3.9,0.25c1.3,0.034,2.25-0.033,2.85-0.2c-0.1,0.5-0.15,0.883-0.15,1.15
		c-0.034,0.233-0.034,0.467,0,0.7c-1.133-0.067-2.333-0.15-3.6-0.25c-1.1-0.1-2.083-0.267-2.95-0.5
		C68.367,39.8,68.35,39.417,68.35,39.05z"/>
	<path style="fill-rule:evenodd;clip-rule:evenodd;fill:#7D7C76;" d="M44.05,71.55c0.667-0.167,1.633-0.533,2.9-1.1
		c1.833-0.667,3.917-1.083,6.25-1.25c1.167-0.1,3.316-0.15,6.45-0.15l-3.65,1c-0.933,0.2-2.25,0.417-3.95,0.65
		c-1.867,0.3-3.183,0.517-3.95,0.65c-0.5,0.1-1.184,0.316-2.05,0.65c-0.933,0.367-1.617,0.6-2.05,0.7c-0.867,0.2-1.5,0.35-1.9,0.45
		c-0.633,0.167-1.167,0.483-1.6,0.95v-0.15l0.6-1.15c0.333-0.566,1.066-0.933,2.2-1.1L44.05,71.55z M22.8,74.75l-0.15,0.2
		c-0.3-0.3-0.433-0.784-0.4-1.45c0-0.533,0.1-1.067,0.3-1.6c0.267-0.6,0.534-0.983,0.8-1.15c0.233-0.167,0.667-0.3,1.3-0.4
		c1.1-0.1,1.9,0.1,2.4,0.6c0.233,0.2,0.5,0.8,0.8,1.8c-0.567-0.8-1.3-1.267-2.2-1.4c-1-0.1-1.667,0.267-2,1.1
		C23.417,73.55,23.133,74.317,22.8,74.75z M27.7,67.05c-0.333-0.066-0.567-0.15-0.7-0.25c0.6-0.667,1.25-0.683,1.95-0.05
		c0.6,0.567,0.95,1.217,1.05,1.95l-0.7,0.35c-0.333-0.9-0.633-1.466-0.9-1.7C28.233,67.217,28,67.117,27.7,67.05z M34.35,24.2
		c-1.267,3.933-2.033,7.05-2.3,9.35c-0.1,2.534-0.316,4.483-0.65,5.85c-0.566,2.633-1.017,4.6-1.35,5.9
		c-0.533,2.267-1.083,4.2-1.65,5.8l-0.7,1.85c0.933-0.2,1.917,0.083,2.95,0.85c0.8,0.6,1.184,1.517,1.15,2.75
		c-0.033,1.4,0.133,2.333,0.5,2.8l-0.3-0.3c-0.1-0.733-0.45-1.517-1.05-2.35c-0.633-0.833-1.284-1.367-1.95-1.6
		c-0.867-0.233-1.667-0.167-2.4,0.2L26,56.35c-0.4,0.5-0.683,0.867-0.85,1.1c-0.367,0.466-0.617,0.883-0.75,1.25
		c-0.833,2.667-1.533,4.633-2.1,5.9l-2.65,6.1c-1.533,3.667-3,6.75-4.4,9.25c-1.067,2.233-1.933,3.883-2.6,4.95l5.65-13.7
		c2.4-5.833,7.65-22.184,15.75-49.05c0.233-0.1,0.483-0.1,0.75,0l-0.4,1.6C34.367,23.883,34.35,24.033,34.35,24.2z M32.1,45.6
		c-0.167-0.2-0.2-0.5-0.1-0.9l1,0.35c0.033,0.133,0.017,0.333-0.05,0.6C32.583,45.817,32.3,45.8,32.1,45.6z M36,39.7l1,1.35
		c0.667,1.567,0.583,2.467-0.25,2.7c-0.467,0.133-0.85,0.017-1.15-0.35c-0.3-0.5-0.533-0.867-0.7-1.1
		c-0.467-0.4-0.816-0.716-1.05-0.95c-0.4-0.367-0.533-0.717-0.4-1.05c0.167-0.4,0.55-0.617,1.15-0.65
		C34.933,39.65,35.4,39.667,36,39.7z M38.25,13.75V12.3c-0.567,0.133-0.95-0.033-1.15-0.5c1.133-3.767,2.3-7.7,3.5-11.8l0.05,0.05
		l0.1,0.05c0.433,0.3,1.45,1.117,3.05,2.45h-0.05c-0.833-0.3-1.45-0.267-1.85,0.1c-0.3,0.267-0.517,0.917-0.65,1.95
		C41.183,5.733,41.1,6.467,41,6.8c-0.233,1.1-0.433,1.95-0.6,2.55c-0.2,0.8-0.533,1.617-1,2.45C38.9,12.6,38.517,13.25,38.25,13.75z
		 M37.6,15.05c-0.167,0.333-0.317,0.733-0.45,1.2c-0.033-0.467-0.05-0.75-0.05-0.85c-0.267,0.133-0.517,0.533-0.75,1.2
		c0.1-0.4,0.25-0.75,0.45-1.05c0.167-0.267,0.4-0.433,0.7-0.5C37.533,15.05,37.567,15.05,37.6,15.05z M34.1,21.95
		c0.233-0.8,0.467-1.6,0.7-2.4c0.167,0.067,0.3,0.2,0.4,0.4l-0.35,1.9C34.583,22.017,34.333,22.05,34.1,21.95z M49,58.7
		c1.1,0.633,1.517,1.283,1.25,1.95c-0.333,0.133-0.617,0.1-0.85-0.1c-0.233-0.167-0.367-0.45-0.4-0.85V58.7z M44.9,61.35
		c-0.667,0.133-1.083,0.15-1.25,0.05c-0.367-0.2-0.6-0.483-0.7-0.85c-0.1-0.4-0.017-0.8,0.25-1.2c0.267-0.434,0.733-0.667,1.4-0.7
		c0.4-0.033,0.967-0.017,1.7,0.05l0.7,0.35c0.6,0.6,0.983,1.083,1.15,1.45c0.167,0.433,0.2,1.05,0.1,1.85
		c-0.767,0.033-1.483-0.1-2.15-0.4C45.7,61.65,45.3,61.45,44.9,61.35z M75.25,73.8c-1.233-0.167-2.083-0.35-2.55-0.55
		c-1.034-0.4-1.6-1.017-1.7-1.85c1.133-0.1,2.633-0.083,4.5,0.05c2.333,0.167,3.833,0.25,4.5,0.25l-0.35,1.65
		c-0.7,0.5-1.117,0.767-1.25,0.8c-0.2,0.067-0.683,0.05-1.45-0.05L75.25,73.8z M74.65,96.35L75.3,97.7
		c-0.233,0.533-0.517,0.967-0.85,1.3c-0.467,0.4-0.917,0.483-1.35,0.25c0.066-0.4,0.3-0.9,0.7-1.5
		C74.267,97.017,74.55,96.55,74.65,96.35z"/>
	<path style="fill-rule:evenodd;clip-rule:evenodd;fill:#8E7941;" d="M77.025,31.075l3.4,2.975c0.19,0.167,0.382,0.333,0.575,0.5
		c-0.3,0.7-0.5,1.333-0.6,1.9c-0.301-0.1-0.634-0.034-1,0.2L79.35,38.1l-0.399,0.05c-0.034,1.067,0.083,2.184,0.35,3.35l0.3,0.15
		c0.101,0.333,0.134,0.567,0.101,0.7c0.233-0.133,0.399-0.417,0.5-0.85c0.033-0.233,0.1-0.6,0.2-1.1
		C80.333,41.567,80.3,42.433,80.3,43c-0.033,1.067,0.017,1.933,0.15,2.6c0.1-0.067,0.316-0.133,0.649-0.2
		c0.134,0.733,0.101,1.483-0.1,2.25c0.167-0.133,0.366-0.467,0.6-1c0.101-0.2,0.101-0.383,0-0.55c0.233,0.3,0.534,0.4,0.9,0.3
		c0.3-0.1,0.533-0.316,0.7-0.65l0.1,1.85c-0.333-0.2-0.684-0.233-1.05-0.1c-0.4,0.133-0.6,0.417-0.6,0.85
		c-0.167,2.7-0.233,4.767-0.2,6.2c-0.134-0.1-0.3-0.15-0.5-0.15c0.333,0.567,0.467,1.217,0.399,1.95c-0.399-0.1-0.716-0.4-0.949-0.9
		c0.133,1.3-0.384,1.617-1.55,0.95l-0.7-0.45c-0.167,0.3-0.167,0.6,0,0.9c0.167,0.333,0.45,0.5,0.85,0.5l0.45-0.1l0.35,0.1l-0.149,1
		c-0.034,0.566,0.25,0.9,0.85,1s0.967-0.133,1.1-0.7l0.15-0.6l0.35,0.85l0.15,0.1c0.033,0.067,0.066,0.133,0.1,0.2
		c0.233,0.566,0.551,1.083,0.95,1.55c0.2,0.3,0.5,0.383,0.9,0.25l0.35,4.25l0.2,2.85l0.4,5.45l-0.5-0.45l-7.4-6.75h0.4
		c0.667,0,1-0.333,1-1c0-0.667-0.333-1-1-1H77.3c-0.333,0-0.583,0.133-0.75,0.4c-0.167,0.233-0.216,0.5-0.15,0.8l-0.35-0.3l-0.1-0.8
		c1.433-0.8,2.033-1.917,1.8-3.35c-0.267-1.2-1.05-2.267-2.35-3.2l-0.5-6.65l0.4,0.5c0.067,0.133,0.167,0.2,0.3,0.2l0.1-1.05
		l0.4-0.05c0.133-0.533,0.033-0.983-0.3-1.35c-0.5-0.567-0.783-0.933-0.85-1.1c-0.133-0.3-0.2-0.8-0.2-1.5
		c-0.033-0.367-0.05-0.867-0.05-1.5c-0.034-0.3-0.05-1.15-0.05-2.55l0.15-0.3l-0.3-0.7l-0.05-0.05v-0.15
		c0.133,0.033,0.333,0.017,0.6-0.05c-0.066-0.2-0.1-0.417-0.1-0.65c-0.034-0.233-0.034-0.467,0-0.7c0-0.267,0.05-0.65,0.15-1.15
		c0-0.1,0-0.184,0-0.25c0.033-0.167,0.017-0.633-0.05-1.4c-0.033-0.667,0-1.117,0.1-1.35c-0.533,0.1-0.816,0.417-0.85,0.95
		l-0.05,0.65c-0.167-3.434-0.383-6.617-0.65-9.55C74.737,29.133,75.878,30.108,77.025,31.075z M90.15,59.85l-0.101-0.8l0.15-0.15
		c0.8-1.8,0.899-3.6,0.3-5.4c-0.233-0.667-0.55-1.317-0.95-1.95c-0.233-3.5-0.416-6.85-0.55-10.05c0.967,0.833,1.934,1.683,2.9,2.55
		c-0.233,0.3-0.301,0.6-0.2,0.9c0.1,0.333,0.316,0.566,0.649,0.7c0.067,0.867,0.267,1.55,0.601,2.05V48
		c1,0.467,1.566,0.817,1.7,1.05c-0.867-0.133-1.15,0.117-0.851,0.75c0.5,0.7,0.767,1.117,0.8,1.25c0.167,0.5,0.117,0.883-0.149,1.15
		l0.149,0.2c0.301,0.333,0.667,0.417,1.101,0.25c0.366-0.2,0.566-0.517,0.6-0.95c0.066-0.733,0.4-1.717,1-2.95
		c0.233,0.2,0.467,0.4,0.7,0.6l1.15,1L91.05,72l-0.75-9.6c0.233,0.233,0.351,0.55,0.351,0.95c0.033,0.667,0.383,1,1.05,1
		c0.666,0,0.983-0.333,0.95-1c-0.067-1.4-0.567-2.35-1.5-2.85c-0.334-0.2-0.65-0.183-0.95,0.05L90.15,59.85z M102.6,50.1
		c1.867-0.133,3.434-0.2,4.7-0.2c-1.366,0.033-3.033,0.117-5,0.25L102.6,50.1z M65.25,20.95c0.567,0.466,1.133,0.95,1.7,1.45
		c-0.367,3.767-0.55,5.883-0.55,6.35c-0.233-0.233-0.5-0.35-0.8-0.35c-0.333,0-0.6,0.15-0.8,0.45l-0.05,0.1
		c0.033,0.3-0.017,0.716-0.15,1.25c-0.133,0.6-0.2,0.983-0.2,1.15c0.067,1.033,0.067,1.783,0,2.25c-0.033,0.3-0.3,1.066-0.8,2.3
		c0.066-0.033,0.316-0.1,0.75-0.2c0.033,0.633,0.117,1.033,0.25,1.2c0.2,0.3,0.55,0.3,1.05,0c0.067-0.033,0.25-0.217,0.55-0.55
		c0.1-0.133,0.267-0.05,0.5,0.25l0.15,1v0.25c0.1-0.1,0.15-0.267,0.15-0.5c-0.067-1.6-0.55-2.667-1.45-3.2
		c0.067-1.566,0.233-2.7,0.5-3.4l0.85,1.65c0.2,0.667,0.383,1.167,0.55,1.5c0.133,0.233,0.35,0.383,0.65,0.45
		c0.066,1.333,0.15,2.9,0.25,4.7c0,0.367,0.017,0.75,0.05,1.15c0.133,2.566,0.267,5.55,0.4,8.95c0.133,2.967,0.367,6.283,0.7,9.95
		l-2.85-2.75v-2c0-0.4-0.217-0.7-0.65-0.9c0.833-0.733,1.367-1.517,1.6-2.35c0.1-0.333,0.117-0.75,0.05-1.25v0.25
		c-0.066,0.467-0.183,0.95-0.35,1.45c-0.267,0.7-0.566,0.967-0.9,0.8c-0.267-0.067-0.367-0.617-0.3-1.65
		c-0.067,0.133-0.233,0.233-0.5,0.3c-0.3,0.067-0.533,0.117-0.7,0.15l-0.25,0.15l0.3,0.45l-0.1,0.1
		c-0.067-0.133-0.217-0.25-0.45-0.35c-0.267,0.2-0.533,0.183-0.8-0.05c-0.233,0.066-0.4,0.2-0.5,0.4l-0.25,0.8l-4-3.8l-0.2-11.4
		c0.3-0.3,0.567-0.684,0.8-1.15l0.85,0.5l-0.05,1.45c0.667,1.167,0.967,2.433,0.9,3.8c0.2-0.3,0.283-0.716,0.25-1.25
		c0-0.667,0.017-1.1,0.05-1.3c0-0.033,0.117-0.367,0.35-1c0.133-0.4,0.167-0.783,0.1-1.15c-0.066-0.333-0.267-0.783-0.6-1.35
		c-0.433-0.7-0.7-1.167-0.8-1.4c-0.233-0.233-0.383-0.434-0.45-0.6c0.067-0.733,0.05-1.633-0.05-2.7
		c-0.033-0.5-0.083-1.15-0.15-1.95c-0.033-0.233-0.067-0.483-0.1-0.75l0.15-0.1c-0.167-0.433-0.183-1.15-0.05-2.15
		c0.1-0.633,0.167-1.117,0.2-1.45c0.034-0.3,0.05-0.483,0.05-0.55l-0.15-0.9c-0.4-0.167-0.733-0.1-1,0.2l-0.5,0.75
		C58.417,22,58.4,18.867,58.4,15c0.667,0.6,1.367,1.217,2.1,1.85c0.033,0.767,0.2,1.45,0.5,2.05l-0.1,0.45l0.05,0.5
		c0,0.033,0.017,0.1,0.05,0.2c0.033,0.5,0.3,0.817,0.8,0.95c0.5,0.1,0.85-0.05,1.05-0.45l0.25,0.05l0.25,1.05
		c0.167,0.633,0.566,0.85,1.2,0.65c0.667-0.167,0.917-0.566,0.75-1.2L65.25,20.95z M50.95,8.65c0.433,0.367,0.9,0.767,1.4,1.2v1.6
		l-0.2,0.05c-0.2-0.367-0.5-0.517-0.9-0.45l0.4,0.5c-0.367,0-0.633,0.017-0.8,0.05c-0.367,0.066-0.533,0.25-0.5,0.55
		c0.033,0.2,0.167,0.35,0.4,0.45c0.2,0.066,0.4,0.083,0.6,0.05c0.167,1.367,0.183,2.383,0.05,3.05c0.3,0.4,0.633,0.667,1,0.8v4.2
		l-0.75,0.15l-0.05,0.5c-0.967-0.033-1.684-0.017-2.15,0.05c-0.1,0.8-0.117,1.283-0.05,1.45c0.067,0.233,0.133,0.367,0.2,0.4
		c0.133,0.1,0.233,0.2,0.3,0.3c0.5,0.633,0.817,1.233,0.95,1.8c-0.133,0-0.25-0.05-0.35-0.15c0.133,0.167,0.283,0.367,0.45,0.6
		c0.2,0.2,0.417,0.45,0.65,0.75c0.333,0.534,0.433,1.05,0.3,1.55l-0.25-0.05l0.1,0.55c-0.067-0.033-0.133-0.033-0.2,0
		c-0.066,0-0.133,0.017-0.2,0.05c-0.133,0.067-0.2,0.2-0.2,0.4c0,0.867,0.333,1.633,1,2.3c0.133,0.6,0.283,1.083,0.45,1.45v0.45
		c-0.067-0.333-0.25-0.583-0.55-0.75c-0.333-0.167-0.633-0.167-0.9,0c0,0.6,0.017,0.967,0.05,1.1c0.1-0.033,0.316-0.017,0.65,0.05
		c0.033,0.3,0.017,0.65-0.05,1.05c-0.1,0.433-0.167,0.75-0.2,0.95c0.333-0.133,0.533-0.283,0.6-0.45c0.133-0.267,0.233-0.7,0.3-1.3
		l0.1-0.35l0.15,9.6L49,39.7c0.3-0.333,0.367-0.717,0.2-1.15l-0.35-0.7c0.533-0.434,1.1-1.267,1.7-2.5l0.25,0.2l0.1,0.05
		c0-1.067-0.017-1.717-0.05-1.95c-0.467,0.167-0.95,0.5-1.45,1c-0.033-0.066-0.15-0.233-0.35-0.5l-0.1,0.05h-0.1l-1.25,0.7
		c-0.2,0.067-0.55,0.133-1.05,0.2c-0.426,0.065-0.776,0.166-1.05,0.3c0.266-0.137,0.383-0.32,0.35-0.55c0-0.133-0.067-0.367-0.2-0.7
		c-0.1-0.467-0.183-0.767-0.25-0.9c-0.133-0.233-0.333-0.367-0.6-0.4l-0.5,0.85l-0.65-0.25c0.267-6.2,0.45-11.817,0.55-16.85
		l0.45,0.35c0-0.8,0.083-1.333,0.25-1.6c0.033-0.033,0.217-0.233,0.55-0.6c0.167-0.2,0.25-0.483,0.25-0.85
		c0.133,0.033,0.35,0.017,0.65-0.05c0.1-0.167,0.117-0.367,0.05-0.6l-0.05-0.15c-0.067-0.267-0.25-0.684-0.55-1.25
		c-0.2-0.1-0.383-0.133-0.55-0.1c0-0.533,0.033-1.65,0.1-3.35c0.033-1.4,0.017-2.517-0.05-3.35c-0.033-0.7-0.4-1.017-1.1-0.95
		l-0.05-1.2c0.9,0.733,1.967,1.633,3.2,2.7c-0.167,0.633-0.383,1.467-0.65,2.5c-0.067,0.233-0.05,0.467,0.05,0.7l-0.1,0.25
		c0.133,0.534,0.367,0.817,0.7,0.85c0.066,0.733,0.15,1.184,0.25,1.35c0.167,0.267,0.45,0.117,0.85-0.45c0.5-0.6,0.617-1.3,0.35-2.1
		c0.267,0.133,0.6,0.367,1,0.7l0.05-0.5l1.05-0.25H50.95z M34.35,24.2c0-0.167,0.017-0.317,0.05-0.45l0.4-1.6
		c-0.267-0.1-0.517-0.1-0.75,0H34l0.05-0.2h0.05c0.233,0.1,0.483,0.066,0.75-0.1l0.35-1.9c-0.1-0.2-0.233-0.333-0.4-0.4l-0.05-0.05
		l2.35-7.7c0.2,0.467,0.583,0.633,1.15,0.5v1.45l-0.05,1.5c-0.167-0.167-0.367-0.233-0.6-0.2c-0.033,0-0.067,0-0.1,0
		c-0.3,0.067-0.533,0.233-0.7,0.5c-0.2,0.3-0.35,0.65-0.45,1.05c0.233-0.667,0.483-1.067,0.75-1.2c0,0.1,0.017,0.383,0.05,0.85
		c0,0.433,0,1.05,0,1.85l-0.1,0.5l0.35,0.3l-0.25,0.9l-0.35-0.1c-0.133,0.4-0.2,0.7-0.2,0.9l-0.4,0.05c-0.1,0.4-0.1,0.8,0,1.2
		c0.1-0.067,0.25-0.117,0.45-0.15c0.1,1,0.167,1.733,0.2,2.2c0.467,0.233,0.85,0.184,1.15-0.15h0.05l-0.2,5.75l-3.8-3.45
		c0.233-0.233,0.417-0.483,0.55-0.75l-0.15-0.15C34.317,24.917,34.283,24.6,34.35,24.2z M64.3,44.7c0.667,0,1-0.333,1-1
		c0-0.667-0.333-1-1-1c-0.466,0.3-0.767,0.7-0.9,1.2C63.467,44.433,63.767,44.7,64.3,44.7z"/>
	<path style="fill-rule:evenodd;clip-rule:evenodd;fill:#7C7B75;" d="M67.45,20.95c-2.934-2.667-5.184-4.733-6.75-6.2
		c-1.633-1.533-3.5-3.15-5.6-4.85c-0.533-0.7-1.184-1.55-1.95-2.55c-1.3-1.733-2.4-3.05-3.3-3.95C49.383,2.9,49,2.55,48.7,2.35
		c-0.4-0.3-0.867-0.5-1.4-0.6c0.5-0.3,1.2-0.45,2.1-0.45c0.5,0,1.25,0.017,2.25,0.05h11C63.55,1.317,64.667,1.7,66,2.5
		c1.867,1.133,2.917,1.75,3.15,1.85c1.2,0.5,2.117,1.283,2.75,2.35c0.633,1.066,0.883,2.267,0.75,3.6
		c-0.633,0.067-1.633,0.083-3,0.05c0.167-0.167,0.333-0.333,0.5-0.5l-3-3.5c-1.9-0.033-3.316-0.05-4.25-0.05
		c-1.7,0-3.117,0.05-4.25,0.15c-0.433,2.733,1.05,4.4,4.45,5c1.267,0.2,2.4,0.25,3.4,0.15c1.833,0.867,3.967,1.967,6.4,3.3
		c4.233,2.033,7.383,3.517,9.45,4.45c0.167,0.1,0.9,0.533,2.2,1.3c-0.467,0.167-1.05,0.25-1.75,0.25
		c-1.133,0.033-1.833,0.067-2.1,0.1c0.5,0.5,1.416,0.917,2.75,1.25c1.434,0.3,2.5,0.3,3.2,0c0.166-0.067,0.316-0.133,0.449-0.2
		c0.267,0.1,0.517,0.184,0.75,0.25c-0.313,0.219-0.596,0.377-0.85,0.475L86.95,22.8c-0.101,0.034-0.2,0.067-0.3,0.1
		c-1.301,0.333-2.801,0.283-4.5-0.15c-0.534-0.1-1.284-0.35-2.25-0.75c-1.034-0.4-1.784-0.65-2.25-0.75
		c-0.333-0.067-1.2-0.133-2.6-0.2c-0.667-0.033-1.216-0.083-1.65-0.15c0.967,0.4,2.2,1.117,3.7,2.15
		c1.833,1.267,3.35,2.034,4.55,2.3c0.433,0.1,1.166,0.283,2.199,0.55c0.934,0.167,1.7,0.167,2.301,0c0.399-0.1,1.017-0.467,1.85-1.1
		c0.767-0.566,1.483-0.883,2.15-0.95v-1.8c0.233-0.3,0.566-0.816,1-1.55l0.55-0.7c1.5,1.567,2.399,2.5,2.7,2.8
		c0.066,1.1,0.149,1.9,0.25,2.4c0.233,0.833,0.383,1.483,0.449,1.95c0.134,0.767,0.134,1.417,0,1.95
		c-0.1,0.267-0.316,0.633-0.649,1.1c-0.233,0.333-0.384,0.75-0.45,1.25c-0.1,0.967,0.1,2.05,0.6,3.25c0.4,0.967,0.867,1.55,1.4,1.75
		c0.267,0.1,1.066,0.15,2.4,0.15c0.333,0,1.066-0.033,2.199-0.1c-0.1,0.067-0.183,0.15-0.25,0.25c-0.1,0.167-0.133,0.333-0.1,0.5
		c-2.6,0.3-3.983,0.667-4.15,1.1c6.367,2.167,11.051,2.567,14.051,1.2l1.199-0.9c1.601,0.167,2.667,0.3,3.2,0.4
		c1.8,0.4,3.05,1.033,3.75,1.9c0.2,0.233,0.5,0.767,0.9,1.6c0.333,0.7,0.684,1.2,1.05,1.5c0.333,0.333,0.983,0.816,1.95,1.45
		c0.866,0.567,1.483,1.067,1.85,1.5c-5.566,0.633-12.517,0.667-20.85,0.1c-1.634-0.133-3.334-0.65-5.101-1.55
		c-1.633-0.867-3.083-1.934-4.35-3.2c-1.267-1.3-2.816-2.75-4.65-4.35c-2.133-1.8-3.75-3.167-4.85-4.1
		C77.983,28.433,72.383,24.183,67.45,20.95z M91.65,25.35c-2.367,0.1-3.233,0.85-2.601,2.25c0.233,0.533,0.634,0.85,1.2,0.95
		c0.634,0.1,1.267-0.133,1.9-0.7L91.65,25.35z M109.2,36.55c-0.634-0.033-1.334-0.033-2.101,0c-0.033-0.033-0.05-0.066-0.05-0.1
		c-0.2-0.133-0.5-0.167-0.899-0.1l-1.9-0.25c0.366-0.033,0.75-0.067,1.15-0.1C107.1,36,108.366,36.183,109.2,36.55z M113.65,41.4
		v-0.05c-0.733-0.067-1.601,0-2.601,0.2c-0.866,0.1-1.684,0.233-2.45,0.4c-3.233,0.667-4.366,1.816-3.399,3.45
		c0.434,0.767,2.583,1.067,6.45,0.9c3.8-0.167,6.133-0.65,7-1.45l-3.5-3.5C114.616,41.35,114.116,41.367,113.65,41.4z M60.7,3.25
		c0-0.133-0.017-0.267-0.05-0.4l-1,0.5c-0.267,0.133-0.433,0.25-0.5,0.35c-0.1,0.1-0.083,0.3,0.05,0.6
		c0.233,0.067,0.466,0.1,0.7,0.1c0.067,0.167,0.167,0.35,0.3,0.55c1.066,1.4,2.05,1.367,2.95-0.1l-2-1.5
		C60.983,3.317,60.833,3.283,60.7,3.25z"/>
	<path style="fill-rule:evenodd;clip-rule:evenodd;fill:#A2A199;" d="M91.7,19.8c-1.8-1.867-3.483-3.3-5.05-4.3
		c-0.567-0.367-2.584-1.483-6.051-3.35c-2.5-1.333-4.45-2.6-5.85-3.8c-2-1.934-3.583-3.4-4.75-4.4c-2.133-1.8-3.917-2.833-5.35-3.1
		c-0.7-0.1-1.7-0.117-3-0.05c-1.533,0.067-2.533,0.083-3,0.05C57.917,0.817,56.3,0.533,53.8,0h13.8l50.75,38.8
		c2.101,1.633,6.834,5.117,14.2,10.45l-17.399,0.5l-0.101-0.05l-0.35-0.2c0.733,0.033,1.75-0.117,3.05-0.45c1.5-0.4,2.5-0.633,3-0.7
		c0.4-0.033,1.634,0.017,3.7,0.15c1.566,0.067,2.75-0.05,3.55-0.35c-0.134-0.8-0.667-1.517-1.6-2.15
		c-1.101-0.633-1.884-1.133-2.351-1.5c-0.6-0.5-1.416-1.283-2.45-2.35c-1.033-1.133-1.833-1.933-2.399-2.4
		c-1.434-1.133-3.334-2.45-5.7-3.95c-2.634-1.6-4.566-2.8-5.8-3.6c-3.2-1.967-5.084-3.133-5.65-3.5
		c-2.133-1.367-3.934-2.684-5.399-3.95c-0.667-0.533-1.417-1.25-2.25-2.15C94.1,22.3,93.2,21.367,91.7,19.8z M81,34.55
		c-0.193-0.167-0.385-0.333-0.575-0.5l-3.4-2.975c-1.618-1.426-3.243-2.851-4.875-4.275c-18.267-16-28.1-24.7-29.5-26.1l6.3,4.45
		c2.233,1.633,4.283,3.217,6.15,4.75c2.1,1.7,3.967,3.317,5.6,4.85c1.566,1.467,3.816,3.533,6.75,6.2c2.867,2.566,6.4,5.7,10.6,9.4
		c4.4,3.867,9.267,8.133,14.601,12.8c2.433,2.133,4.6,4.533,6.5,7.2l-1.15-1c-0.233-0.2-0.467-0.4-0.7-0.6c-0.366-0.3-0.7-0.6-1-0.9
		l-4.399-3.8c-0.967-0.867-1.934-1.716-2.9-2.55L81.5,35C81.332,34.852,81.165,34.702,81,34.55z M99.7,34.3
		c-0.134-0.433-0.134-0.883,0-1.35c0.866-0.133,2.184-0.167,3.95-0.1l2,0.5l-0.101,0.85C104.35,34.6,102.4,34.633,99.7,34.3z
		 M40.6,0h3.85l-3.4,0.3l-0.3-0.2l-0.1-0.05L40.6,0z"/>
	<path style="fill-rule:evenodd;clip-rule:evenodd;fill:#74736E;" d="M113.65,41.4c0.466-0.033,0.966-0.05,1.5-0.05l3.5,3.5
		c-0.867,0.8-3.2,1.283-7,1.45c-3.867,0.167-6.017-0.133-6.45-0.9c-0.967-1.633,0.166-2.783,3.399-3.45
		c0.767-0.167,1.584-0.3,2.45-0.4c-0.467,0.1-0.967,0.233-1.5,0.4c-1.934,0.633-2.7,1.417-2.3,2.35c1.767,0.2,3.55,0.2,5.35,0
		c0.134-0.533,0.15-1.017,0.051-1.45L113.65,41.4z M100.25,37.05c0.1,0.3,0.6,0.583,1.5,0.85c0.833,0.233,2.6,0.2,5.3-0.1
		c0.2-0.4,0.217-0.816,0.05-1.25c0.767-0.033,1.467-0.033,2.101,0c1.767,0.1,2.916,0.367,3.45,0.8l-1.301,1.1l-1.199,0.9
		c-3,1.367-7.684,0.967-14.051-1.2C96.267,37.717,97.65,37.35,100.25,37.05z M87.85,22.3c0.2-0.133,0.4-0.283,0.601-0.45
		c0.7-0.567,1.267-0.9,1.7-1v1.2v1.8c-0.667,0.066-1.384,0.383-2.15,0.95c-0.833,0.633-1.45,1-1.85,1.1
		c-0.601,0.167-1.367,0.167-2.301,0c-1.033-0.267-1.767-0.45-2.199-0.55c-1.2-0.267-2.717-1.033-4.55-2.3
		c-1.5-1.033-2.733-1.75-3.7-2.15c0.434,0.067,0.983,0.117,1.65,0.15c1.4,0.067,2.267,0.133,2.6,0.2c0.467,0.1,1.217,0.35,2.25,0.75
		c0.966,0.4,1.716,0.65,2.25,0.75c1.699,0.433,3.199,0.483,4.5,0.15c-1.2,0.434-2.051,0.717-2.551,0.85
		c-1.1,0.267-2,0.367-2.699,0.3c0.933,0.267,1.949,0.45,3.05,0.55c2.033,0.133,3.267-0.283,3.7-1.25v-1
		c-0.414,0.159-0.797,0.301-1.15,0.425C87.254,22.677,87.537,22.519,87.85,22.3z M69.65,10.35c-0.833,0.667-1.883,1.083-3.15,1.25
		c-1,0.1-2.133,0.05-3.4-0.15c-3.4-0.6-4.883-2.267-4.45-5c1.133-0.1,2.55-0.15,4.25-0.15c0.934,0,2.35,0.017,4.25,0.05l3,3.5
		C69.983,10.017,69.817,10.183,69.65,10.35z M91.65,25.35l0.5,2.5c-0.634,0.566-1.267,0.8-1.9,0.7c-0.566-0.1-0.967-0.417-1.2-0.95
		C88.417,26.2,89.283,25.45,91.65,25.35z M59.9,4.4c0.233,0,0.467-0.033,0.7-0.1c0.1-0.367,0.133-0.716,0.1-1.05
		c0.133,0.033,0.283,0.067,0.45,0.1l2,1.5c-0.9,1.467-1.883,1.5-2.95,0.1C60.067,4.75,59.967,4.567,59.9,4.4z M62.75,8.85
		c-0.533,0.6-0.717,1.25-0.55,1.95c1.133,0.2,2.05,0.233,2.75,0.1c0.533-0.1,0.933-0.283,1.2-0.55l-1.5-2.5
		C63.883,7.983,63.25,8.317,62.75,8.85z"/>
	<path style="fill-rule:evenodd;clip-rule:evenodd;fill:#605F5B;" d="M100.25,37.05c-0.033-0.167,0-0.333,0.1-0.5
		c0.067-0.1,0.15-0.183,0.25-0.25c0.4-0.367,1.084-0.517,2.051-0.45l1.6,0.25l1.9,0.25c0.399-0.067,0.699-0.033,0.899,0.1
		c0,0.033,0.017,0.066,0.05,0.1c0.167,0.434,0.15,0.85-0.05,1.25c-2.7,0.3-4.467,0.333-5.3,0.1
		C100.85,37.633,100.35,37.35,100.25,37.05z M113.65,41.4l-1,1.45c0.1,0.433,0.083,0.917-0.051,1.45c-1.8,0.2-3.583,0.2-5.35,0
		c-0.4-0.933,0.366-1.716,2.3-2.35c0.533-0.167,1.033-0.3,1.5-0.4c1-0.2,1.867-0.267,2.601-0.2V41.4z M87,22.775
		c0.354-0.124,0.736-0.266,1.15-0.425v1c-0.434,0.967-1.667,1.383-3.7,1.25c-1.101-0.1-2.117-0.283-3.05-0.55
		c0.699,0.067,1.6-0.033,2.699-0.3c0.5-0.133,1.351-0.417,2.551-0.85c0.1-0.033,0.199-0.066,0.3-0.1L87,22.775z M59.9,4.4
		c-0.233,0-0.467-0.033-0.7-0.1c-0.133-0.3-0.15-0.5-0.05-0.6c0.067-0.1,0.233-0.217,0.5-0.35l1-0.5
		c0.033,0.133,0.05,0.267,0.05,0.4c0.033,0.333,0,0.683-0.1,1.05C60.367,4.367,60.133,4.4,59.9,4.4z M62.75,8.85
		c0.5-0.533,1.133-0.867,1.9-1l1.5,2.5c-0.267,0.267-0.667,0.45-1.2,0.55c-0.7,0.133-1.617,0.1-2.75-0.1
		C62.033,10.1,62.217,9.45,62.75,8.85z"/>
	<path style="fill-rule:evenodd;clip-rule:evenodd;fill:#89783E;" d="M103.15,86.7L102.6,89.1c-0.5,1.7-0.767,2.601-0.8,2.7
		c-0.166,0.9-0.05,1.834,0.351,2.8c0.933,2.067,1.3,3.5,1.1,4.301l-2.95-2.851l2.351-13.25l0.1-0.5l0.1,0.25L103.15,86.7z
		 M109.45,104.45L115,108.6l0.1,1.75l-0.35-0.3l-0.8-0.8l-4.45-4.3L109.45,104.45z M114.2,81.85l-0.05-0.05
		c-0.5-0.434-1.184-0.934-2.051-1.5c-0.966-0.6-1.683-1.066-2.149-1.399c-1.367-0.934-2.367-1.884-3-2.851l-0.15-0.65v-0.05l1.5,1.2
		l0.75,0.6l0.65,0.55l4.45,3.55v0.05L114.2,81.85z M119.95,85.95l1.45,1.2c0.3,0.267,0.6,0.517,0.899,0.75
		c0.066,0.066,0.134,0.133,0.2,0.199c0.4,0.301,0.8,0.617,1.2,0.95c0.899,0.767,1.8,1.517,2.7,2.25l0.649,0.55l0.4,0.351l0.05,2.05
		L127.3,94c-0.267-0.366-0.416-0.65-0.45-0.85c-0.833-0.434-1.55-0.551-2.149-0.351c-0.033,0.134-0.05,0.717-0.05,1.75
		c-0.4-0.333-0.95-0.75-1.65-1.25c-0.934-0.666-1.5-1.083-1.7-1.25L120.4,91.5l-0.301-2.1h0.2l-0.2-0.25
		c-0.1-1.034-0.149-2.084-0.149-3.15V85.95z M114.45,95.4c0.133,2,0.2,3.533,0.2,4.6v0.4c-0.334-0.667-1.084-1.733-2.25-3.2
		c-1.067-1.334-1.767-2.434-2.101-3.3c-0.333-0.934-0.116-1.217,0.65-0.851c0.434,0.233,1.05,0.65,1.85,1.25L114.45,95.4z
		 M128.25,104.9c-0.233,0.066-0.55,0.3-0.95,0.699c-0.399,0.4-0.783,0.584-1.149,0.551c-0.267-0.034-0.617-0.217-1.051-0.551
		c-0.566-0.433-0.899-0.683-1-0.75l-2.149-1.05l-0.65-5.3l0.55,0.65c1.367,1.633,2.233,2.633,2.601,3c1.3,1.199,2.467,1.633,3.5,1.3
		c-0.066-0.467-0.316-1-0.75-1.601c-0.5-0.633-0.851-1.116-1.05-1.449l1.899,1.25L128.25,104.9z M134.15,97.95l1.25,1.1l-0.25-0.2
		c-0.2,1,0.366,2.117,1.699,3.351c1.634,1.533,2.551,2.533,2.75,3c-0.133,0.2-0.5,0.3-1.1,0.3c-0.6-0.033-1,0.066-1.2,0.3
		c-0.166,0.233-0.217,0.55-0.149,0.95c0.133,0.434,0.199,0.75,0.199,0.95c0.067,0.666-0.017,1.166-0.25,1.5
		c-0.233,0.3-0.699,0.517-1.399,0.649l-1.15,0.051L134.15,97.95z M140.8,135.25l-0.649-0.65c1,0.067,1.75,0.084,2.25,0.051
		l5.25-1.301c0.267-0.1,0.533-0.216,0.8-0.35c-0.167,0.434-0.334,0.884-0.5,1.35l-1.101,2.351c-0.166,0.366-0.35,0.733-0.55,1.1
		l-1,1.851L140.8,135.25z M122.75,115.35l-0.1-1.3c0-2.066-0.233-5.1-0.7-9.1c0.566,0.633,1.25,1.283,2.05,1.95
		c0.066,0.066,0.366,0.25,0.9,0.55c0.399,0.233,0.666,0.45,0.8,0.649c0.166,0.267,0.267,0.667,0.3,1.2c0.1,0.8,0.15,1.217,0.15,1.25
		c0.3,1.134,0.449,1.967,0.449,2.5c0,1.334-0.066,2.134-0.199,2.4c-0.2,0.467-0.567,0.649-1.101,0.55c-0.7-0.233-1.233-0.4-1.6-0.5
		L122.75,115.35z M114.7,103.1v0.851C114.366,103.483,114.366,103.2,114.7,103.1z"/>
	<path style="fill-rule:evenodd;clip-rule:evenodd;fill:#A08D48;" d="M102.65,82.8l0.149-0.85l0.05,0.6l-0.1-0.25L102.65,82.8z
		 M103.6,99.25l-0.35-0.35c0.2-0.801-0.167-2.233-1.1-4.301c-0.4-0.966-0.517-1.899-0.351-2.8c0.033-0.1,0.3-1,0.8-2.7l0.551-2.399
		c0.333,4.2,0.5,7.366,0.5,9.5L103.6,99.25z M114.45,95.4L112.8,94.3c-0.8-0.6-1.416-1.017-1.85-1.25
		c-0.767-0.366-0.983-0.083-0.65,0.851c0.334,0.866,1.033,1.966,2.101,3.3c1.166,1.467,1.916,2.533,2.25,3.2l0.05,2.699
		c-0.334,0.101-0.334,0.384,0,0.851c0.066,1.666,0.149,2.899,0.25,3.7L115,108.6l-5.55-4.149c-0.2-2.733-0.3-4.767-0.3-6.101
		c0-2.233-0.25-5.5-0.75-9.8c-0.067-0.8-0.25-2.217-0.551-4.25c-0.233-1.8-0.383-3.217-0.449-4.25V79.4l-0.45-3.351
		c0.633,0.967,1.633,1.917,3,2.851c0.467,0.333,1.184,0.8,2.149,1.399c0.867,0.566,1.551,1.066,2.051,1.5l0.05,0.05
		c-0.033,3.134-0.05,5.483-0.05,7.051C114.15,90.3,114.25,92.467,114.45,95.4z M121.3,98.5l-0.899-7l0.899,0.55
		c0.2,0.167,0.767,0.584,1.7,1.25c0.7,0.5,1.25,0.917,1.65,1.25c0-1.033,0.017-1.616,0.05-1.75c0.6-0.2,1.316-0.083,2.149,0.351
		c0.034,0.199,0.184,0.483,0.45,0.85l0.2,0.25l-0.05-2.05l-0.4-0.351c2.033,1.7,3.934,3.317,5.7,4.851
		c0.066,0.033,0.134,0.083,0.2,0.149c1.5,1.301,2.916,2.551,4.25,3.75c-0.601-0.5-1.2-1.017-1.8-1.55l-1.25-1.1l-6.7-5.75l0.6,9.45
		l-1.899-1.25c0.199,0.333,0.55,0.816,1.05,1.449c0.434,0.601,0.684,1.134,0.75,1.601c-1.033,0.333-2.2-0.101-3.5-1.3
		c-0.367-0.367-1.233-1.367-2.601-3L121.3,98.5z M120.1,89.4v-0.25l0.2,0.25H120.1z M129.1,123.9l0.275,0.274l-5.725-5.524
		l-8.9-8.601l0.35,0.3l8.15,7.9L129.1,123.9z M139.15,133.7l1,0.899l0.649,0.65L139.15,133.7z M150.725,119.3
		c0.107,1.071,0.132,2.188,0.075,3.351c0-0.467,0-0.917,0-1.351C150.8,120.616,150.775,119.949,150.725,119.3z"/>
	<path style="fill-rule:evenodd;clip-rule:evenodd;fill:#B59F52;" d="M132.9,90.85c5.666,4.5,9.35,7.267,11.05,8.301
		c1.399,0.833,2.934,1.916,4.6,3.25c-1.033-0.767-2.017-1.483-2.95-2.15c-0.066,0.5-0.316,0.9-0.75,1.2
		c-0.466,0.267-0.949,0.25-1.449-0.05l-0.95-0.551c-0.533,0.534-1.134,0.634-1.8,0.301c-2.367-1.167-4.934-2.801-7.7-4.9
		c-0.101-0.066-0.167-0.116-0.2-0.15c-0.667-0.5-1.35-1.033-2.05-1.6c-0.634-0.533-1.233-1.05-1.8-1.55
		c-0.7-0.566-1.351-1.101-1.95-1.601c-0.867-0.699-1.667-1.35-2.4-1.949l-0.05-0.051c-0.066-0.066-0.116-0.116-0.15-0.149
		c-0.566-0.434-1.083-0.851-1.55-1.25c-0.1-0.066-0.184-0.117-0.25-0.15c-0.399-0.333-0.783-0.633-1.149-0.899
		c-0.567-0.434-2-1.801-4.301-4.101c-0.666-0.566-1.3-1.083-1.899-1.55c-2.033-1.566-3.867-2.75-5.5-3.55l-0.65-0.55
		c-0.066-0.133-0.116-0.3-0.149-0.5c-0.2-0.033-0.4-0.066-0.601-0.1l-1.5-1.2L105,73.9c0.033-0.033,0.066-0.05,0.1-0.05
		c0.101-0.1,0.233-0.15,0.4-0.15c2.066-0.467,4.217-0.067,6.45,1.2c1.566,0.867,3.416,2.333,5.55,4.4
		c0.866,0.7,2.283,1.934,4.25,3.7c1.8,1.6,3.233,2.816,4.3,3.65c0.367,0.267,0.733,0.55,1.101,0.85c0.566,0.434,1.166,0.866,1.8,1.3
		c0.333,0.233,0.684,0.483,1.05,0.75c0.9,0.667,1.866,1.334,2.9,2c1.333,0.867,2.75,1.767,4.25,2.7c-1.301-1-2.717-2.116-4.25-3.35
		c-0.733-0.567-1.483-1.15-2.25-1.75c-0.467-0.367-0.917-0.717-1.351-1.051c-0.399-0.333-0.8-0.649-1.2-0.949
		c-2.433-1.967-5.1-4.134-8-6.5l-1.149-1l6.2,5.05c1.033,0.833,2.033,1.633,3,2.399c0.399,0.334,0.8,0.65,1.199,0.95
		c0.434,0.367,0.867,0.717,1.301,1.05C131.417,89.7,132.167,90.283,132.9,90.85z"/>
	<path style="fill-rule:evenodd;clip-rule:evenodd;fill:#DEC464;" d="M105,73.9l-0.7-0.55l6.351-0.5l8.3,6.8l1.149,1
		c2.9,2.366,5.567,4.533,8,6.5c0.4,0.3,0.801,0.616,1.2,0.949c0.434,0.334,0.884,0.684,1.351,1.051c0.767,0.6,1.517,1.183,2.25,1.75
		c1.533,1.233,2.949,2.35,4.25,3.35c-1.5-0.934-2.917-1.833-4.25-2.7c-1.034-0.666-2-1.333-2.9-2
		c-0.366-0.267-0.717-0.517-1.05-0.75c-0.634-0.434-1.233-0.866-1.8-1.3c-0.367-0.3-0.733-0.583-1.101-0.85
		c-1.066-0.834-2.5-2.051-4.3-3.65c-1.967-1.767-3.384-3-4.25-3.7c-2.134-2.066-3.983-3.533-5.55-4.4
		c-2.233-1.267-4.384-1.667-6.45-1.2c-0.167,0-0.3,0.05-0.4,0.15C105.066,73.85,105.033,73.867,105,73.9z M109.05,77.15l-0.75-0.6
		c0.2,0.034,0.4,0.067,0.601,0.1C108.934,76.85,108.983,77.017,109.05,77.15z M109.7,77.7c1.633,0.8,3.467,1.983,5.5,3.55
		c0.6,0.467,1.233,0.983,1.899,1.55c2.301,2.3,3.733,3.667,4.301,4.101c0.366,0.267,0.75,0.566,1.149,0.899
		c0.066,0.033,0.15,0.084,0.25,0.15c0.467,0.399,0.983,0.816,1.55,1.25c0.034,0.033,0.084,0.083,0.15,0.149l0.05,0.051
		c0.733,0.6,1.533,1.25,2.4,1.949c0.6,0.5,1.25,1.034,1.95,1.601c0.566,0.5,1.166,1.017,1.8,1.55c0.7,0.566,1.383,1.1,2.05,1.6
		c0.033,0.034,0.1,0.084,0.2,0.15c2.767,2.1,5.333,3.733,7.7,4.9c0.666,0.333,1.267,0.233,1.8-0.301l0.95,0.551
		c0.5,0.3,0.983,0.316,1.449,0.05c0.434-0.3,0.684-0.7,0.75-1.2c0.934,0.667,1.917,1.384,2.95,2.15l9.8,8.6l-8.425,4.2H149.9
		c-0.03-0.121-0.063-0.229-0.101-0.325v-0.025l-2.7-4.75c-0.066-0.066-0.116-0.116-0.149-0.149c-0.167-0.233-0.351-0.45-0.55-0.65
		l-9.2-8.7c-1.334-1.199-2.75-2.449-4.25-3.75c-0.066-0.066-0.134-0.116-0.2-0.149c-1.767-1.533-3.667-3.15-5.7-4.851L126.4,91.3
		c-0.9-0.733-1.801-1.483-2.7-2.25c-0.4-0.333-0.8-0.649-1.2-0.95c-0.066-0.066-0.134-0.133-0.2-0.199
		c-0.3-0.233-0.6-0.483-0.899-0.75l-1.45-1.2l-5.8-4.7L109.7,77.7z"/>
	<path style="fill-rule:evenodd;clip-rule:evenodd;fill:#695C2F;" d="M139.15,133.7l-3.101-3c-0.6-5.9-1.1-12.834-1.5-20.8
		l1.15-0.051c0.7-0.133,1.166-0.35,1.399-0.649c0.233-0.334,0.317-0.834,0.25-1.5c0-0.2-0.066-0.517-0.199-0.95
		c-0.067-0.4-0.017-0.717,0.149-0.95c0.2-0.233,0.601-0.333,1.2-0.3c0.6,0,0.967-0.1,1.1-0.3c-0.199-0.467-1.116-1.467-2.75-3
		c-1.333-1.233-1.899-2.351-1.699-3.351l0.25,0.2c0.6,0.533,1.199,1.05,1.8,1.55l9.2,8.7c0.199,0.2,0.383,0.417,0.55,0.65
		c0.033,0.033,0.083,0.083,0.149,0.149l2.7,4.75v0.025c0.037,0.096,0.07,0.204,0.101,0.325c0.116,0.356,0.225,0.723,0.324,1.1l0.5,3
		c0.051,0.649,0.075,1.316,0.075,2c0,0.434,0,0.884,0,1.351l-0.55,4.199c-0.134,0.601-0.283,1.217-0.45,1.851l-0.95,3.25
		c-0.133,0.333-0.267,0.684-0.399,1.05c-0.267,0.134-0.533,0.25-0.8,0.35l-5.25,1.301c-0.5,0.033-1.25,0.017-2.25-0.051
		L139.15,133.7z M129.1,123.9l-5.85-5.65c-0.267-1.366-0.434-2.333-0.5-2.9l0.95,0.15c0.366,0.1,0.899,0.267,1.6,0.5
		c0.533,0.1,0.9-0.083,1.101-0.55c0.133-0.267,0.199-1.066,0.199-2.4c0-0.533-0.149-1.366-0.449-2.5c0-0.033-0.051-0.45-0.15-1.25
		c-0.033-0.533-0.134-0.934-0.3-1.2c-0.134-0.199-0.4-0.416-0.8-0.649c-0.534-0.3-0.834-0.483-0.9-0.55
		c-0.8-0.667-1.483-1.317-2.05-1.95v-1.15l2.149,1.05c0.101,0.067,0.434,0.317,1,0.75c0.434,0.334,0.784,0.517,1.051,0.551
		c0.366,0.033,0.75-0.15,1.149-0.551c0.4-0.399,0.717-0.633,0.95-0.699l0.15,2.55C128.467,114.783,128.7,120.267,129.1,123.9z"/>
	<path style="fill-rule:evenodd;clip-rule:evenodd;fill:#403A2C;" d="M105,73.9l1.8,1.45v0.05l0.15,0.65l0.45,3.351v0.649
		c0.066,1.033,0.216,2.45,0.449,4.25c0.301,2.033,0.483,3.45,0.551,4.25c0.5,4.3,0.75,7.566,0.75,9.8c0,1.334,0.1,3.367,0.3,6.101
		l0.05,0.5l-5.9-5.7l0.051-3.05c0-2.134-0.167-5.3-0.5-9.5l-0.301-4.15l-0.05-0.6V81.9l0.25-1.301l0.601-3.399l0.649-3.7v-0.15
		L105,73.9z M120.1,89.15v0.25l0.301,2.1l0.899,7l0.65,5.3v1.15c0.467,4,0.7,7.033,0.7,9.1l0.1,1.3c0.066,0.567,0.233,1.534,0.5,2.9
		l-8.15-7.9l-0.1-1.75l-0.05-0.949c-0.101-0.801-0.184-2.034-0.25-3.7V103.1l-0.05-2.699V100c0-1.066-0.067-2.6-0.2-4.6
		c-0.2-2.934-0.3-5.101-0.3-6.5c0-1.567,0.017-3.917,0.05-7.051l-0.05-0.55v-0.05l5.8,4.7V86C119.95,87.066,120,88.116,120.1,89.15z
		 M134.15,97.95l0.399,11.95c0.4,7.966,0.9,14.899,1.5,20.8l-2.8-2.75l-3.875-3.775L129.1,123.9
		c-0.399-3.634-0.633-9.117-0.699-16.45l-0.15-2.55l-0.2-3.25l-0.6-9.45L134.15,97.95z"/>
</g>
</svg>
