<?xml version="1.0" encoding="iso-8859-1"?>
<!-- Generator: Adobe Illustrator 16.0.0, SVG Export Plug-In . SVG Version: 6.00 Build 0)  -->
<!DOCTYPE svg PUBLIC "-//W3C//DTD SVG 1.1//EN" "http://www.w3.org/Graphics/SVG/1.1/DTD/svg11.dtd">
<svg version="1.1" id="FlashAICB" xmlns="http://www.w3.org/2000/svg" xmlns:xlink="http://www.w3.org/1999/xlink" x="0px" y="0px"
	 width="598px" height="282px" viewBox="0 0 598 282" style="enable-background:new 0 0 598 282;" xml:space="preserve">
<g>
	<path style="fill-rule:evenodd;clip-rule:evenodd;fill:#F5F5EB;" d="M598,3H246c-5.167,0-8.95,0.367-11.35,1.1
		c-2.833,0.833-5.2,2.5-7.1,5c-6.533,1.967-12.667,6.583-18.4,13.85c-3,3.833-7.383,10.85-13.15,21.05
		c-2.1,3.767-8.433,18.033-19,42.8c-11.867,27.867-20.933,48.284-27.2,61.25c-3.767,5.101-7.383,9.9-10.85,14.4
		c8.533-14.101,17.617-31.784,27.25-53.05c8.2-18.033,15.133-34.833,20.8-50.4c6.267-17.067,12.317-30.35,18.15-39.85
		c2.9-4.767,5.184-7.816,6.85-9.15c-2.5-0.5-6.583-0.833-12.25-1c-11.333-0.333-24.917,0.333-40.75,2s-27.25,4.833-34.25,9.5
		c-2.2,1.467-3.817,2.983-4.85,4.55L119,27l3.4-0.25c3.167-0.333,7.033-0.917,11.6-1.75c7.233-1.3,13.033-2.05,17.4-2.25
		c6.6-0.267,12.133,0.483,16.6,2.25c3.8,1.5,6.133,3.95,7,7.35c3.233,3.133,3.317,8.833,0.25,17.1
		C174.05,52.617,169.633,61.8,162,77c-10.667,22-19.45,39.717-26.35,53.15C122.883,154.884,113.333,170.833,107,178
		c-7.2,8.167-13.617,12.967-19.25,14.4C83.017,193.566,74.1,193.1,61,191c-2.167-0.333-4.2-0.783-6.1-1.35
		c9.567,1.833,18,2.199,25.3,1.1l8.2-3.95c4.533-0.934,8.067-2.533,10.6-4.8c0.333-0.267,0.65-0.533,0.95-0.8l0.15-0.101
		c0.2-0.199,0.4-0.416,0.6-0.649c0.072-0.085,0.138-0.168,0.2-0.25c4.233-4.267,9.117-10.884,14.65-19.851
		c0.217-0.35,0.442-0.716,0.675-1.1L133,130c4.067-7.233,8.083-14.633,12.05-22.2c4.667-9.033,9.284-18.3,13.85-27.8
		c0.4-0.867,0.8-1.7,1.2-2.5c1.867-3.933,3.55-7.567,5.05-10.9c2.467-5.5,4.483-10.267,6.05-14.3c0.033-0.1,0.066-0.2,0.1-0.3
		c0.067-0.133,0.117-0.267,0.15-0.4c1.367-3.633,2.35-6.633,2.95-9c0.033-0.133,0.067-0.283,0.1-0.45c0-0.066,0.017-0.117,0.05-0.15
		c0.034-0.233,0.083-0.467,0.15-0.7c0.033-0.2,0.066-0.4,0.1-0.6c0-0.167,0.017-0.317,0.05-0.45c0.033-0.1,0.05-0.183,0.05-0.25
		c0-0.1,0.017-0.2,0.05-0.3c0-0.034,0-0.067,0-0.1c0-0.067,0.017-0.117,0.05-0.15c0-0.034,0-0.067,0-0.1s0-0.067,0-0.1
		c0-0.067,0-0.117,0-0.15s0-0.067,0-0.1c0.267-3.233-0.967-5.733-3.7-7.5l-0.05-0.05l-1.85-1c-0.233-0.1-0.467-0.2-0.7-0.3
		c-2.133-0.867-4.817-1.45-8.05-1.75l-8.4-0.25c-0.333,0-0.667,0.017-1,0.05L131,30c-6.267,0.867-11.8,2.183-16.6,3.95l-2.65,1.075
		c-0.2,0.075-0.4,0.15-0.6,0.225c-0.167,0.067-0.316,0.15-0.45,0.25c-0.167,0.033-0.317,0.1-0.45,0.2c-0.7,0.3-1.367,0.617-2,0.95
		c-0.7,0.367-1.35,0.733-1.95,1.1c-3.033,3.2-6.3,6.9-9.8,11.1C83.8,64.017,73.3,79.733,65,96l-12.1,25.85
		c-0.133,0.333-0.283,0.683-0.45,1.05c-1.785,4.108-3.569,8.358-5.35,12.75L40,154l-1.35,2.975c-0.707,1.594-1.34,3.202-1.9,4.825
		c-1.533,3.467-2.983,6.851-4.35,10.15c-1,2.366-1.95,4.7-2.85,7c-0.2,0.533-0.4,1.066-0.6,1.6c-0.633,1.566-1.25,3.117-1.85,4.65
		c-1.2,3.133-2.15,6.083-2.85,8.85c-0.033,0.101-0.067,0.2-0.1,0.3c-0.111,0.456-0.211,0.906-0.3,1.351l-0.975,5.524
		c-0.05,0.443-0.091,0.886-0.125,1.325v0.25c-0.033,0.667-0.05,1.3-0.05,1.9l0.2,2c-0.4-0.2-0.783-0.316-1.15-0.351L20.5,206.4
		c-0.533,0.1-1.083,0.3-1.65,0.6l0.35-0.15c0.767,1.434,1.917,2.517,3.45,3.25c0.5,0.233,1.067,0.434,1.7,0.601
		c2.867,0.7,14.35,2.883,34.45,6.55c20.4,3.767,32.034,5.8,34.9,6.1c3.3,0.367,6.767,0.017,10.4-1.05c4.066-1.2,7.033-2.967,8.9-5.3
		l-0.75,3.1l-0.05,0.051c-2.067,1.633-4.65,3-7.75,4.1l-4.1,1.1c-1.2,0.134-1.733,0.75-1.6,1.851c0.367,1.399,0.517,2.467,0.45,3.2
		c-2.434-3.167-5-4.967-7.7-5.4c-3.367-0.533-12.883-2.3-28.55-5.3c-16.434-3.101-28.417-5.434-35.95-7
		c-1.8-0.367-3.35-0.733-4.65-1.101c-3.1-0.899-4.867-1.783-5.3-2.649c0.267-0.467,0.55-0.867,0.85-1.2
		c-1.267,1.333-2.25,3.866-2.95,7.6l-0.05,0.601c-0.2,1.1-0.367,2.316-0.5,3.649l-0.2,2.4l3.7,1.35l-0.2,0.301L11.2,222l-0.95,0.5
		c-0.467,0.267-0.967,0.684-1.5,1.25c-1.367,1.5-2.417,3.583-3.15,6.25c-0.867,3.333-1.7,7.066-2.5,11.2l0.6-7.95
		c0.466-5.566,0.9-8.983,1.3-10.25c0.433-1.233,1.733-2.934,3.9-5.1c1.067-1.101,2.1-2.067,3.1-2.9l3-4.1c2-3.5,3-7.134,3-10.9
		c0-4.3,2.267-10.833,6.8-19.6c3.2-6.101,6.133-10.767,8.8-14c0.4-2.834,0.95-5.817,1.65-8.95c4.067-18,12.367-39.05,24.9-63.15
		c8.6-16.566,19.467-32.55,32.6-47.95c6.6-7.7,12.317-13.75,17.15-18.15l0.35-0.15c0.3-0.333,0.633-0.667,1-1l3.2-3.25
		c0.2-0.2,0.383-0.383,0.55-0.55c6.567-6.267,12.233-10.35,17-12.25c4.167-1.667,18.95-4,44.35-7c12.7-1.5,24.983-2.833,36.85-4H598
		V3z M102.85,40.25l0.35-0.9c-0.167,0.367-0.3,0.683-0.4,0.95L102.85,40.25z M111.5,196.1c-2.467,0.767-5.267,1.25-8.4,1.45
		c-2.367,0.134-5.55,0.117-9.55-0.05c7.367-0.733,13.784-2.233,19.25-4.5c0.767-0.333,1.667-0.816,2.7-1.45L111.5,196.1z
		 M115.5,191.55c7.133-8.333,14.95-18.033,23.45-29.1C129.717,177.717,121.9,187.417,115.5,191.55z"/>
	<path style="fill-rule:evenodd;clip-rule:evenodd;fill:#6F736A;" d="M37.55,160c0.35-1.075,0.717-2.083,1.1-3.025L40,154l0.05-0.05
		l0.225-0.125L40.3,153.8c-0.042,0.075-0.084,0.15-0.125,0.226c-0.082,0.18-0.157,0.371-0.225,0.574L37.55,160z M40.55,155.6
		l0.45-1.85c0.067-0.2,0.117-0.4,0.15-0.6L42,152.5L40.55,155.6z"/>
	<path style="fill-rule:evenodd;clip-rule:evenodd;fill:#676B63;" d="M116.225,159.25c-0.642,1.011-1.217,1.927-1.725,2.75
		c-5.833,9.3-11,15.967-15.5,20c-2.533,2.267-6.067,3.866-10.6,4.8c-3.433,0.667-7.417,0.967-11.95,0.9
		c-7.567-0.101-15.35-1.117-23.35-3.05l-4.45-1.15c-2.733-0.833-4.833-1.667-6.3-2.5c-0.733-0.467-1.35-0.95-1.85-1.45
		c-2-1.899-2.833-4.934-2.5-9.1V170c0.433-4.167,1.233-8.75,2.4-13.75c0.067-0.233,0.117-0.45,0.15-0.65l1.45-3.1
		c0.633-0.833,2.4-2,5.3-3.5c1.467-0.733,2.867-1.4,4.2-2l2.4,0.45c1.833,0.066,3.367-0.417,4.6-1.45c1.7-1.4,4.183-4.3,7.45-8.7
		c3.533-4.733,5.883-8.5,7.05-11.3c1.667-4,4.833-10.667,9.5-20l7.05-1.3c6.167-0.833,12.817-1.067,19.95-0.7
		c10.567,0.533,19.45,1.283,26.65,2.25c3.533,0.467,6.5,0.983,8.9,1.55c-3.966,7.567-7.983,14.967-12.05,22.2L116.225,159.25z
		 M584.15,39.75c2.566,3.833,2.916,8.467,1.05,13.9L544.85,169.4c-1.866,5.433-5.433,10.05-10.699,13.85
		c-5.233,3.833-10.617,5.75-16.15,5.75H411c-5.5,0-9.533-1.917-12.1-5.75c-2.567-3.8-2.917-8.417-1.051-13.85L438.2,53.65
		c1.866-5.433,5.434-10.066,10.7-13.9C454.134,35.917,459.5,34,465,34h107C577.533,34,581.583,35.917,584.15,39.75z M567.35,40
		H468.8c-5.066,0-10.017,1.817-14.85,5.45c-4.8,3.6-8.084,7.95-9.851,13.05l-26.649,78.3c12.633-13.767,27.333-24.883,44.1-33.35
		c21.134-10.667,44.967-16.817,71.5-18.45c13.7-0.8,26.25-1.05,37.65-0.75l8.75-25.75c1.767-5.1,1.45-9.45-0.95-13.05
		C576.134,41.817,572.417,40,567.35,40z M410.2,53.65L369.85,169.4c-1.866,5.433-5.433,10.05-10.699,13.85
		c-5.233,3.833-10.617,5.75-16.15,5.75H236c-5.5,0-9.533-1.917-12.1-5.75c-2.566-3.8-2.917-8.417-1.05-13.85L263.2,53.65
		c1.867-5.433,5.433-10.066,10.7-13.9C279.133,35.917,284.5,34,290,34h107c5.533,0,9.583,1.917,12.15,5.75
		C411.717,43.583,412.066,48.217,410.2,53.65z M391.35,40H292.8c-5.066,0-10.017,1.817-14.85,5.45c-4.8,3.6-8.083,7.95-9.85,13.05
		l-26.65,78.3c12.633-13.767,27.333-24.883,44.1-33.35c21.134-10.667,44.967-16.817,71.5-18.45c13.7-0.8,26.25-1.05,37.65-0.75
		l8.75-25.75c1.767-5.1,1.45-9.45-0.95-13.05C400.134,41.817,396.417,40,391.35,40z"/>
	<path style="fill-rule:evenodd;clip-rule:evenodd;fill:#E0E0D7;" d="M101.15,234l0.05,0.2l-0.1-0.15L101.15,234z M99.2,230.4
		l-0.2,0.8c-0.567-0.634-1.183-1.233-1.85-1.8l-0.8-0.7c-5.767,0.866-12.217,1.083-19.35,0.649c-5-0.3-14.767-1.899-29.3-4.8
		c-13.967-2.8-22.417-4.75-25.35-5.85c-2.733-1.033-4.917-3.283-6.55-6.75c-0.367,1.166-0.667,2.5-0.9,4l0.05-0.601
		c0.7-3.733,1.683-6.267,2.95-7.6c-0.3,0.333-0.583,0.733-0.85,1.2c0.434,0.866,2.2,1.75,5.3,2.649c1.3,0.367,2.85,0.733,4.65,1.101
		c7.533,1.566,19.517,3.899,35.95,7c15.667,3,25.183,4.767,28.55,5.3C94.2,225.434,96.767,227.233,99.2,230.4z M112.2,220.15
		l-0.75,2.949c-4.7,1.134-8.4,1.884-11.1,2.25l4.1-1.1C107.55,223.15,110.133,221.783,112.2,220.15z M20.5,206.4
		c-0.433,0.1-0.867,0.25-1.3,0.449L18.85,207C19.417,206.7,19.967,206.5,20.5,206.4z M22.875,201.225
		c-0.049,0.535-0.091,1.061-0.125,1.575v-0.25C22.784,202.11,22.825,201.668,22.875,201.225z M42.35,181
		c1.467,0.833,3.566,1.667,6.3,2.5c-1.267-0.333-2.333-0.667-3.2-1C44.25,182.033,43.217,181.533,42.35,181z M32.4,171.95
		c0.967,8.1,4.883,13.133,11.75,15.1c3.667,1.033,7.25,1.9,10.75,2.601c1.9,0.566,3.934,1.017,6.1,1.35
		c13.1,2.1,22.017,2.566,26.75,1.4c5.633-1.434,12.05-6.233,19.25-14.4c6.333-7.167,15.883-23.116,28.65-47.85
		C142.55,116.717,151.333,99,162,77c7.633-15.2,12.05-24.383,13.25-27.55c3.067-8.267,2.983-13.967-0.25-17.1
		c-0.867-3.4-3.2-5.85-7-7.35c-4.467-1.767-10-2.517-16.6-2.25c-4.367,0.2-10.167,0.95-17.4,2.25
		c-4.567,0.833-8.433,1.417-11.6,1.75L119,27l0.9-1.95c1.033-1.566,2.65-3.083,4.85-4.55c7-4.667,18.417-7.833,34.25-9.5
		s29.417-2.333,40.75-2c5.667,0.167,9.75,0.5,12.25,1c-1.667,1.333-3.95,4.383-6.85,9.15C199.317,28.65,193.267,41.933,187,59
		c-5.667,15.567-12.6,32.367-20.8,50.4c-9.633,21.267-18.717,38.95-27.25,53.05c3.466-4.5,7.083-9.3,10.85-14.4
		C143.833,160.417,138.9,169.4,135,175c-4.367,6.3-8.45,11.134-12.25,14.5c-3.6,3.167-7.35,5.366-11.25,6.6l4-4.55
		c-1.033,0.634-1.933,1.117-2.7,1.45c-5.466,2.267-11.883,3.767-19.25,4.5c-4.066-0.233-7.25-0.4-9.55-0.5
		c-13.533-0.6-24.15-1.467-31.85-2.6c-10.033-1.534-16.417-3.667-19.15-6.4c-1.833-1.833-2.983-4.85-3.45-9.05
		C30.45,176.65,31.4,174.316,32.4,171.95z M111.75,35.025c-0.361,0.147-0.711,0.306-1.05,0.475c0.133-0.1,0.283-0.183,0.45-0.25
		C111.35,35.175,111.55,35.1,111.75,35.025z M100.7,180.45c-0.049,0.049-0.099,0.099-0.15,0.149c-0.2,0.2-0.4,0.4-0.6,0.601
		c-0.3,0.267-0.617,0.533-0.95,0.8c4.5-4.033,9.667-10.7,15.5-20c0.508-0.823,1.083-1.739,1.725-2.75
		c-0.233,0.384-0.458,0.75-0.675,1.1c-5.533,8.967-10.417,15.584-14.65,19.851C100.838,180.282,100.772,180.365,100.7,180.45z
		 M598,8.3c-0.3-0.2-0.634-0.3-1-0.3c-63.333-0.167-123.7-0.283-181.1-0.35C302.5,7.483,241.867,7.6,234,8
		c-2.333,0.167-4.483,0.533-6.45,1.1c1.9-2.5,4.267-4.167,7.1-5C237.05,3.367,240.833,3,246,3h352V8.3z M102.85,40.25l-0.05,0.05
		c0.1-0.267,0.233-0.583,0.4-0.95L102.85,40.25z M41,153.75c0.1-0.467,0.217-0.9,0.35-1.3c-0.067,0.233-0.133,0.467-0.2,0.7
		C41.117,153.35,41.067,153.55,41,153.75z M115.5,191.55c6.4-4.133,14.217-13.833,23.45-29.1
		C130.45,173.517,122.633,183.217,115.5,191.55z"/>
	<path style="fill-rule:evenodd;clip-rule:evenodd;fill:#C7C7BF;" d="M14.9,215.95c0.233-1.5,0.533-2.834,0.9-4
		c1.633,3.467,3.817,5.717,6.55,6.75c2.933,1.1,11.383,3.05,25.35,5.85c14.533,2.9,24.3,4.5,29.3,4.8
		c7.133,0.434,13.583,0.217,19.35-0.649l0.8,0.7c0.667,0.566,1.283,1.166,1.85,1.8c-0.7,1.666-3.367,2.6-8,2.8
		c-6.467,0.3-15.35-0.384-26.65-2.05c-8.067-1.233-16.283-2.767-24.65-4.601c-7.333-1.6-15.733-4.166-25.2-7.699
		c-0.033-0.034-0.067-0.051-0.1-0.051C14.533,218.267,14.7,217.05,14.9,215.95z M111.5,196.1c3.9-1.233,7.65-3.433,11.25-6.6
		c3.8-3.366,7.883-8.2,12.25-14.5c3.9-5.6,8.833-14.583,14.8-26.95c6.267-12.966,15.333-33.383,27.2-61.25
		c10.567-24.767,16.9-39.033,19-42.8c5.767-10.2,10.15-17.217,13.15-21.05c5.733-7.267,11.867-11.883,18.4-13.85
		c1.967-0.567,4.117-0.934,6.45-1.1c7.867-0.4,68.5-0.517,181.9-0.35C473.3,7.717,533.667,7.833,597,8c0.366,0,0.7,0.1,1,0.3v91.75
		L573.85,169.4c-1.866,5.433-1.517,10.05,1.051,13.85c2.566,3.833,6.6,5.75,12.1,5.75h11v33.15
		c-184.634,0.433-300.633,0.383-348-0.15c-42.967-0.467-71.333-1.833-85.1-4.1c-6.7-1.134-11.566-2.634-14.6-4.5
		c-2.4-1.467-4.167-3.601-5.3-6.4c-1.167-2.967,1.45-14.616,7.85-34.95c4.533-14.366,10.767-32.517,18.7-54.45
		c3.967-10.9,7.467-20.35,10.5-28.35c-4.833,10-10.2,22.15-16.1,36.45c-3.4,8.2-6.717,16.633-9.95,25.3
		c-5.233,14.167-10.8,25.75-16.7,34.75c-1.833,2.8-3.6,5.184-5.3,7.15l-2,2.1c-8,6-14.333,10.333-19,13
		c-2.667,1.566-8.517,2.583-17.55,3.05l-1.4-0.05c-7.267,0-12.55-0.083-15.85-0.25c-5.833-0.267-11.017-0.85-15.55-1.75
		c-6.133-0.967-10.65-1.717-13.55-2.25c-5.1-0.9-9.467-2.15-13.1-3.75c-5.819-2.561-9.761-5.436-11.825-8.625l-0.025-0.025
		c0.033-0.1,0.067-0.199,0.1-0.3c0.7-2.767,1.65-5.717,2.85-8.85c0.6-1.533,1.217-3.084,1.85-4.65c0.2-0.533,0.4-1.066,0.6-1.6
		c0.467,4.2,1.617,7.217,3.45,9.05c2.733,2.733,9.117,4.866,19.15,6.4c7.7,1.133,18.317,2,31.85,2.6c2.3,0.1,5.483,0.267,9.55,0.5
		c4,0.167,7.184,0.184,9.55,0.05C106.233,197.35,109.033,196.866,111.5,196.1z M584.15,39.75C581.583,35.917,577.533,34,572,34H465
		c-5.5,0-10.866,1.917-16.1,5.75c-5.267,3.833-8.834,8.467-10.7,13.9L397.85,169.4c-1.866,5.433-1.517,10.05,1.051,13.85
		c2.566,3.833,6.6,5.75,12.1,5.75h107c5.533,0,10.917-1.917,16.15-5.75c5.267-3.8,8.833-8.417,10.699-13.85L585.2,53.65
		C587.066,48.217,586.717,43.583,584.15,39.75z M410.2,53.65c1.866-5.433,1.517-10.066-1.05-13.9C406.583,35.917,402.533,34,397,34
		H290c-5.5,0-10.867,1.917-16.1,5.75c-5.267,3.833-8.833,8.467-10.7,13.9L222.85,169.4c-1.867,5.433-1.517,10.05,1.05,13.85
		c2.567,3.833,6.6,5.75,12.1,5.75h107c5.533,0,10.917-1.917,16.15-5.75c5.267-3.8,8.833-8.417,10.699-13.85L410.2,53.65z
		 M598,253.65V280c-93,0.167-186.283,0.3-279.85,0.4c-92.267,0.066-162.15,0.083-209.65,0.05l0.15-1.45H597v-25.35H598z
		 M20.2,224.15l1.15,0.449l-1.2-0.3C20.15,224.233,20.167,224.184,20.2,224.15z"/>
	<path style="fill-rule:evenodd;clip-rule:evenodd;fill:#5F646B;" d="M598,100.05V189h-11c-5.5,0-9.533-1.917-12.1-5.75
		c-2.567-3.8-2.917-8.417-1.051-13.85L598,100.05z"/>
	<path style="fill-rule:evenodd;clip-rule:evenodd;fill:#A3A39D;" d="M19.2,206.85c0.433-0.199,0.867-0.35,1.3-0.449l1.25-0.051
		c0.367,0.034,0.75,0.15,1.15,0.351l-0.2-2c0-0.601,0.017-1.233,0.05-1.9c0.034-0.515,0.076-1.04,0.125-1.575l0.975-5.524
		c0.088-0.444,0.188-0.895,0.3-1.351l0.025,0.025c2.064,3.189,6.006,6.064,11.825,8.625c3.633,1.6,8,2.85,13.1,3.75
		c2.9,0.533,7.417,1.283,13.55,2.25c4.533,0.9,9.717,1.483,15.55,1.75c3.3,0.167,8.583,0.25,15.85,0.25l1.4,0.05
		c9.033-0.467,14.883-1.483,17.55-3.05c4.667-2.667,11-7,19-13l2-2.1c1.7-1.967,3.467-4.351,5.3-7.15
		c5.9-9,11.467-20.583,16.7-34.75c3.233-8.667,6.55-17.1,9.95-25.3c5.9-14.3,11.267-26.45,16.1-36.45
		c-3.033,8-6.533,17.45-10.5,28.35c-7.933,21.933-14.167,40.083-18.7,54.45c-6.4,20.334-9.017,31.983-7.85,34.95
		c1.133,2.8,2.9,4.934,5.3,6.4c3.034,1.866,7.9,3.366,14.6,4.5c13.767,2.267,42.133,3.633,85.1,4.1
		c47.367,0.533,163.366,0.583,348,0.15v8.899c-189.634,0.634-311.633,0.617-366-0.05c-39.467-0.467-65.833-1.5-79.1-3.1
		c-6.267-0.767-10.7-1.75-13.3-2.95c-2.133-0.967-3.333-2.283-3.6-3.95c-0.4-2.5-0.017-7.417,1.15-14.75
		c0.567-3.667,1.184-7.083,1.85-10.25c-1.7,2.134-3.933,4.55-6.7,7.25c-5.533,5.4-10.933,9.5-16.2,12.3L113,217
		c-1.867,2.333-4.833,4.1-8.9,5.3c-3.633,1.066-7.1,1.417-10.4,1.05c-2.867-0.3-14.5-2.333-34.9-6.1
		c-20.1-3.667-31.583-5.85-34.45-6.55c-0.633-0.167-1.2-0.367-1.7-0.601C21.117,209.366,19.967,208.283,19.2,206.85z M102.95,217.3
		c0.066,0,0.15-0.017,0.25-0.05c-1.733,0.033-3.434,0.066-5.1,0.1l-14.3-0.25c-0.5-0.033-1.017-0.066-1.55-0.1l-35.65-4.6
		c-0.767-0.134-1.533-0.267-2.3-0.4l-9.3-1.775c-0.136-0.023-0.27-0.049-0.4-0.074l1.75,0.55c6.8,1.967,16.083,3.767,27.85,5.399
		c13.7,1.867,24.633,2.5,32.8,1.9C99.133,217.866,101.117,217.634,102.95,217.3z"/>
	<path style="fill-rule:evenodd;clip-rule:evenodd;fill:#70706C;" d="M99.2,230.4c0.066-0.733-0.083-1.801-0.45-3.2
		c-0.133-1.101,0.4-1.717,1.6-1.851c2.7-0.366,6.4-1.116,11.1-2.25l0.75-2.949l0.05-0.051L113,217l3.1-1.45
		c5.267-2.8,10.667-6.899,16.2-12.3c2.767-2.7,5-5.116,6.7-7.25c-0.667,3.167-1.283,6.583-1.85,10.25
		c-1.167,7.333-1.55,12.25-1.15,14.75c0.267,1.667,1.467,2.983,3.6,3.95c2.6,1.2,7.033,2.184,13.3,2.95
		c13.267,1.6,39.633,2.633,79.1,3.1c54.367,0.667,176.366,0.684,366,0.05v22.601h-1V235H113v-0.3c-0.667,0.1-1.3,0.2-1.9,0.3h-5.75
		H101v0.3c-0.133,0-0.267,0.017-0.4,0.05c-2,0.101-4.133,0.184-6.4,0.25l-2.5,0.051c-1.767,0-3.55,0-5.35,0c-0.6,0-1.184,0-1.75,0
		L61.55,234c-4.633-0.7-14.417-2.917-29.35-6.65l-10.8-2.75h-0.05l-1.15-0.449l-2.3-0.801L14.2,222l0.2-2.4
		c0.033,0,0.067,0.017,0.1,0.051c9.467,3.533,17.867,6.1,25.2,7.699c8.367,1.834,16.583,3.367,24.65,4.601
		c11.3,1.666,20.183,2.35,26.65,2.05c4.633-0.2,7.3-1.134,8-2.8L99.2,230.4z M101.15,234l-0.05,0.05l0.1,0.15L101.15,234z
		 M102.95,217.3c-1.833,0.334-3.817,0.566-5.95,0.7c-8.167,0.6-19.1-0.033-32.8-1.9c-11.767-1.633-21.05-3.433-27.85-5.399
		l-1.75-0.55c0.13,0.025,0.264,0.051,0.4,0.074L44.3,212c0.767,0.134,1.534,0.267,2.3,0.4l35.65,4.6
		c0.533,0.033,1.05,0.066,1.55,0.1l14.3,0.25c1.667-0.033,3.367-0.066,5.1-0.1C103.1,217.283,103.017,217.3,102.95,217.3z"/>
	<path style="fill-rule:evenodd;clip-rule:evenodd;fill:#B8B8B1;" d="M32.4,171.95c1.367-3.3,2.817-6.684,4.35-10.15l0.7-1.649
		c0.033-0.067,0.066-0.117,0.1-0.15l2.4-5.4c0.068-0.203,0.143-0.395,0.225-0.574c0.041-0.075,0.083-0.15,0.125-0.226
		c0.067-0.166,0.133-0.333,0.2-0.5L42,150c-0.033,0.167-0.083,0.333-0.15,0.5l-0.5,1.95c-0.133,0.399-0.25,0.833-0.35,1.3
		l-0.45,1.85c-0.033,0.2-0.083,0.417-0.15,0.65c-1.167,5-1.967,9.583-2.4,13.75v0.45c-0.333,4.166,0.5,7.2,2.5,9.1
		c0.5,0.5,1.117,0.983,1.85,1.45c0.867,0.533,1.9,1.033,3.1,1.5c0.867,0.333,1.933,0.667,3.2,1l4.45,1.15
		c8,1.933,15.783,2.949,23.35,3.05c4.533,0.066,8.517-0.233,11.95-0.9l-8.2,3.95c-7.3,1.1-15.733,0.733-25.3-1.1
		c-3.5-0.7-7.083-1.567-10.75-2.601C37.283,185.083,33.367,180.05,32.4,171.95z M99.95,181.2c0.2-0.2,0.4-0.4,0.6-0.601
		c0.051-0.051,0.102-0.101,0.15-0.149c-0.2,0.233-0.4,0.45-0.6,0.649L99.95,181.2z"/>
	<path style="fill-rule:evenodd;clip-rule:evenodd;fill:#495759;" d="M77.3,280.75l-30.25-3.15c-7.767-1.066-15-2.566-21.7-4.5
		c-4.9-1.399-9.533-3.05-13.9-4.949c-3.233-1.4-6.117-2.851-8.65-4.351L0,262l0.5-4.05c0.033-0.2,0.067-0.384,0.1-0.55l0.7-5.375
		c0.209-1.37,0.426-2.729,0.65-4.075c1.6,2.566,3.733,4.583,6.4,6.05c1.867,1,5.133,1.783,9.8,2.35
		c3.167,0.4,6.983,0.684,11.45,0.851c3.2,0.1,12.117,0.149,26.75,0.149c13.367,0,22.117-0.133,26.25-0.399
		c7.7-0.533,12.583-1.601,14.65-3.2c0.667-0.533,1.033-1.116,1.1-1.75c0.066-0.6,0.35-2.083,0.85-4.45
		c0.233-1.133,0.5-2.434,0.8-3.899c0.6-2.601,0.5-4.034-0.3-4.301L95,238l1.35-0.2c1.1-0.2,2.183-0.483,3.25-0.85l5.75-1.95
		l-3.55,1.05l1.65-0.899c-0.8,0.066-1.617,0.116-2.45,0.149V235h4.35h5.75c0.6-0.1,1.233-0.2,1.9-0.3v0.3h484v18.65V279H108.65
		l-0.15,1.45l-0.15,1.55c-1.5,0-3.117-0.017-4.85-0.05c-3.933-0.066-8.5-0.233-13.7-0.5C85.567,281.25,81.4,281.017,77.3,280.75z
		 M105.35,235.65l-4.775,1.125c1.05-0.222,2.642-0.497,4.775-0.825V235.65z"/>
	<path style="fill-rule:evenodd;clip-rule:evenodd;fill:#8BA5A8;" d="M95,238c-7.6,1.767-16.333,2.267-26.2,1.5
		c-4.466-1-9.133-2.1-14-3.3c-2.033-0.533-4.1-1.066-6.2-1.601c-12.2-3.133-21.767-6.033-28.7-8.699c-1-0.367-1.933-0.733-2.8-1.101
		c-2.333-0.967-4.3-1.899-5.9-2.8l-2.45,1.75l19.95,6.75c4.119,1.313,7.919,2.48,11.4,3.5c-2.863-0.759-5.913-1.575-9.15-2.45
		L18.35,228l1,0.55c-1.3-0.467-2.483-0.899-3.55-1.3c-3.333-1.333-5.683-2.5-7.05-3.5c0.533-0.566,1.033-0.983,1.5-1.25l0.95-0.5
		l6.5,1.65l2.45,0.649l1.2,0.3h0.05l10.8,2.75c14.933,3.733,24.716,5.95,29.35,6.65l23.05,1.65c0.566,0,1.15,0,1.75,0
		c1.8,0,3.583,0,5.35,0l2.5-0.051c2.267-0.066,4.4-0.149,6.4-0.25c0.133-0.033,0.267-0.05,0.4-0.05
		c0.833-0.033,1.65-0.083,2.45-0.149l-1.65,0.899L95,238z"/>
	<path style="fill-rule:evenodd;clip-rule:evenodd;fill:#57696B;" d="M1.95,247.95l0.125-0.8L3.1,241.2v0.05
		c0.7,6.233,5.433,10,14.2,11.3c0.333,0.066,0.684,0.117,1.05,0.15c14.033,1.733,23.983,2.7,29.85,2.899
		c6.833,0.233,13.767-0.3,20.8-1.6c3.967-0.7,7.1-1.934,9.4-3.7c1.7-1.333,2.117-2.333,1.25-3c-0.3-0.233-0.733-0.434-1.3-0.6
		c-7.833-1.767-15.5-3.634-23-5.601c-0.467-0.1-0.917-0.216-1.35-0.35c-15.467-4.1-27-8.15-34.6-12.15l-0.05-0.05l-1-0.55l12.6,3.55
		c3.237,0.875,6.287,1.691,9.15,2.45l1.2,0.35c5.434,1.567,10,2.75,13.7,3.551c0.933,0.166,1.817,0.333,2.65,0.5
		c3.867,0.833,6.767,1.366,8.7,1.6c1.933,0.233,3.95,0.384,6.05,0.45l1.95,0.25c-0.4-0.101-0.8-0.184-1.2-0.25
		c3.167,0.033,6.517-0.117,10.05-0.45c4.867-0.467,8.8-1.134,11.8-2l4.7,1.35c0.8,0.267,0.9,1.7,0.3,4.301
		c-0.3,1.466-0.567,2.767-0.8,3.899c-0.5,2.367-0.784,3.851-0.85,4.45c-0.067,0.634-0.434,1.217-1.1,1.75
		c-2.067,1.6-6.95,2.667-14.65,3.2c-4.133,0.267-12.883,0.399-26.25,0.399c-14.633,0-23.55-0.05-26.75-0.149
		c-4.467-0.167-8.283-0.45-11.45-0.851c-4.667-0.566-7.933-1.35-9.8-2.35C5.683,252.533,3.55,250.517,1.95,247.95z M95,238l6.8-1.95
		l-2.2,0.9c-1.067,0.366-2.15,0.649-3.25,0.85L95,238z"/>
	<path style="fill-rule:evenodd;clip-rule:evenodd;fill:#708688;" d="M8.75,223.75c1.367,1,3.717,2.167,7.05,3.5
		c1.067,0.4,2.25,0.833,3.55,1.3l0.05,0.05c7.6,4,19.133,8.051,34.6,12.15c0.433,0.134,0.883,0.25,1.35,0.35
		c7.5,1.967,15.167,3.834,23,5.601c0.566,0.166,1,0.366,1.3,0.6c0.867,0.667,0.45,1.667-1.25,3c-2.3,1.767-5.433,3-9.4,3.7
		c-7.033,1.3-13.967,1.833-20.8,1.6c-5.867-0.199-15.817-1.166-29.85-2.899c-0.367-0.033-0.717-0.084-1.05-0.15
		c-8.767-1.3-13.5-5.066-14.2-11.3v-0.05c0.8-4.134,1.633-7.867,2.5-11.2C6.333,227.333,7.383,225.25,8.75,223.75z M72.4,240.45
		c-2.1-0.066-4.117-0.217-6.05-0.45c-1.934-0.233-4.833-0.767-8.7-1.6c0.733,0.1,1.417,0.199,2.05,0.3L72.4,240.45z M73.15,240.45
		c-1.433-0.3-2.883-0.617-4.35-0.95c9.867,0.767,18.6,0.267,26.2-1.5c-3,0.866-6.933,1.533-11.8,2
		C79.667,240.333,76.317,240.483,73.15,240.45z M1.3,252.025l0.1-0.775c0.218-1.401,0.443-2.769,0.675-4.1l-0.125,0.8
		C1.726,249.297,1.509,250.655,1.3,252.025z M105.35,235l-5.75,1.95l2.2-0.9L105.35,235z M105.35,235.65v0.3
		c-2.133,0.328-3.725,0.604-4.775,0.825L105.35,235.65z M77.3,280.75c4.1,0.267,8.267,0.5,12.5,0.7c5.2,0.267,9.767,0.434,13.7,0.5
		V282c-4.033,0-9.417-0.184-16.15-0.55C83.983,281.283,80.633,281.05,77.3,280.75z"/>
	<path style="fill-rule:evenodd;clip-rule:evenodd;fill:#A8CACF;" d="M73.15,240.45c0.4,0.066,0.8,0.149,1.2,0.25l-1.95-0.25
		l-12.7-1.75c-0.633-0.101-1.317-0.2-2.05-0.3c-0.833-0.167-1.717-0.334-2.65-0.5c-3.7-0.801-8.267-1.983-13.7-3.551L40.1,234
		c-3.481-1.02-7.281-2.187-11.4-3.5l-19.95-6.75L11.2,222c1.6,0.9,3.566,1.833,5.9,2.8c0.867,0.367,1.8,0.733,2.8,1.101
		c6.934,2.666,16.5,5.566,28.7,8.699c2.1,0.534,4.167,1.067,6.2,1.601c4.867,1.2,9.534,2.3,14,3.3
		C70.267,239.833,71.717,240.15,73.15,240.45z"/>
	
		<radialGradient id="SVGID_1_" cx="502.4004" cy="130.8501" r="129.1" gradientTransform="matrix(1 0 0 -1.0172 0 263.9553)" gradientUnits="userSpaceOnUse">
		<stop  offset="0.0118" style="stop-color:#696F67"/>
		<stop  offset="0.5686" style="stop-color:#8C9387"/>
		<stop  offset="1" style="stop-color:#A2AA9B"/>
	</radialGradient>
	<path style="fill-rule:evenodd;clip-rule:evenodd;fill:url(#SVGID_1_);" d="M567.35,40c5.067,0,8.784,1.817,11.15,5.45
		c2.4,3.6,2.717,7.95,0.95,13.05l-8.75,25.75c-11.4-0.3-23.95-0.05-37.65,0.75c-26.533,1.633-50.366,7.783-71.5,18.45
		c-16.767,8.466-31.467,19.583-44.1,33.35L444.1,58.5c1.767-5.1,5.051-9.45,9.851-13.05c4.833-3.633,9.783-5.45,14.85-5.45H567.35z"
		/>
	
		<radialGradient id="SVGID_2_" cx="326.4004" cy="130.8501" r="129.1" gradientTransform="matrix(1 0 0 -1.0172 0 263.9553)" gradientUnits="userSpaceOnUse">
		<stop  offset="0.0118" style="stop-color:#696F67"/>
		<stop  offset="0.5686" style="stop-color:#8C9387"/>
		<stop  offset="1" style="stop-color:#A2AA9B"/>
	</radialGradient>
	<path style="fill-rule:evenodd;clip-rule:evenodd;fill:url(#SVGID_2_);" d="M391.35,40c5.067,0,8.784,1.817,11.15,5.45
		c2.4,3.6,2.717,7.95,0.95,13.05l-8.75,25.75c-11.4-0.3-23.95-0.05-37.65,0.75c-26.533,1.633-50.366,7.783-71.5,18.45
		c-16.767,8.466-31.466,19.583-44.1,33.35l26.65-78.3c1.767-5.1,5.05-9.45,9.85-13.05c4.833-3.633,9.783-5.45,14.85-5.45H391.35z"/>
	
		<radialGradient id="SVGID_3_" cx="-21.1587" cy="188.459" r="160.7933" gradientTransform="matrix(0.6701 -0.7422 -0.5713 -0.5158 247.5378 223.4981)" gradientUnits="userSpaceOnUse">
		<stop  offset="0.0118" style="stop-color:#8D958A"/>
		<stop  offset="0.5882" style="stop-color:#B3BCAC"/>
		<stop  offset="1" style="stop-color:#CAD3C0"/>
	</radialGradient>
	<path style="fill-rule:evenodd;clip-rule:evenodd;fill:url(#SVGID_3_);" d="M165.15,66.6c-4.6-0.8-9.45-1.217-14.55-1.25
		c-11.5-0.067-19.833,0.4-25,1.4C116.133,68.617,104.933,73.033,92,80c-11.1,6-20.433,14.217-28,24.65
		c-2.233,3.033-4.617,6.717-7.15,11.05c-2.3,4.033-3.767,6.433-4.4,7.2c0.167-0.367,0.316-0.717,0.45-1.05L65,96
		c8.3-16.267,18.8-31.983,31.5-47.15c3.5-4.2,6.767-7.9,9.8-11.1c0.6-0.367,1.25-0.733,1.95-1.1c0.633-0.333,1.3-0.65,2-0.95
		c0.133-0.1,0.283-0.167,0.45-0.2c0.338-0.169,0.688-0.328,1.05-0.475l2.65-1.075c4.8-1.767,10.333-3.083,16.6-3.95l20.25-1.8
		c0.333-0.034,0.667-0.05,1-0.05l8.4,0.25c3.233,0.3,5.917,0.883,8.05,1.75c0.233,0.1,0.466,0.2,0.7,0.3l1.85,1l0.05,0.05
		c2.733,1.767,3.967,4.267,3.7,7.5c0,0.033,0,0.067,0,0.1s0,0.083,0,0.15c0,0.033,0,0.067,0,0.1s0,0.066,0,0.1
		c-0.033,0.033-0.05,0.083-0.05,0.15c0,0.033,0,0.066,0,0.1c-0.034,0.1-0.05,0.2-0.05,0.3c0,0.067-0.017,0.15-0.05,0.25
		c-0.033,0.133-0.05,0.283-0.05,0.45c-0.033,0.2-0.066,0.4-0.1,0.6c-0.067,0.233-0.117,0.467-0.15,0.7
		c-0.033,0.033-0.05,0.083-0.05,0.15c-0.033,0.167-0.067,0.317-0.1,0.45c-0.6,2.367-1.583,5.367-2.95,9
		c-0.034,0.133-0.083,0.267-0.15,0.4c-0.033,0.1-0.066,0.2-0.1,0.3C169.633,56.333,167.617,61.1,165.15,66.6z"/>
	
		<radialGradient id="SVGID_4_" cx="-21.1587" cy="188.459" r="160.7933" gradientTransform="matrix(0.6701 -0.7422 -0.5713 -0.5158 247.5378 223.4981)" gradientUnits="userSpaceOnUse">
		<stop  offset="0.0118" style="stop-color:#A1AA9D"/>
		<stop  offset="0.5804" style="stop-color:#7E857A"/>
		<stop  offset="1" style="stop-color:#696E64"/>
	</radialGradient>
	<path style="fill-rule:evenodd;clip-rule:evenodd;fill:url(#SVGID_4_);" d="M38.65,156.975c-0.383,0.942-0.75,1.95-1.1,3.025
		c-0.033,0.033-0.066,0.083-0.1,0.15l-0.7,1.649C37.31,160.177,37.943,158.568,38.65,156.975z M42,152.5l-0.85,0.65
		c0.067-0.233,0.133-0.467,0.2-0.7l0.5-1.95c0.066-0.167,0.117-0.333,0.15-0.5l-1.5,3.3c-0.067,0.167-0.133,0.334-0.2,0.5
		l-0.025,0.025l-0.225,0.125L40,154l7.1-18.35c1.781-4.392,3.565-8.642,5.35-12.75c0.633-0.767,2.1-3.167,4.4-7.2
		c2.533-4.333,4.917-8.017,7.15-11.05C71.567,94.217,80.9,86,92,80c12.933-6.967,24.133-11.383,33.6-13.25
		c5.167-1,13.5-1.467,25-1.4c5.1,0.033,9.95,0.45,14.55,1.25c-1.5,3.333-3.183,6.967-5.05,10.9c-0.4,0.8-0.8,1.633-1.2,2.5
		c-4.566,9.5-9.183,18.767-13.85,27.8c-2.4-0.566-5.367-1.083-8.9-1.55c-7.2-0.967-16.083-1.717-26.65-2.25
		c-7.133-0.367-13.783-0.133-19.95,0.7L82.5,106c-4.667,9.333-7.833,16-9.5,20c-1.167,2.8-3.517,6.567-7.05,11.3
		c-3.267,4.4-5.75,7.3-7.45,8.7c-1.233,1.033-2.767,1.517-4.6,1.45L51.5,147c-1.333,0.6-2.733,1.267-4.2,2
		C44.4,150.5,42.633,151.667,42,152.5z"/>
</g>
</svg>
