<?xml version="1.0" encoding="iso-8859-1"?>
<!-- Generator: Adobe Illustrator 16.0.0, SVG Export Plug-In . SVG Version: 6.00 Build 0)  -->
<!DOCTYPE svg PUBLIC "-//W3C//DTD SVG 1.1//EN" "http://www.w3.org/Graphics/SVG/1.1/DTD/svg11.dtd">
<svg version="1.1" id="FlashAICB" xmlns="http://www.w3.org/2000/svg" xmlns:xlink="http://www.w3.org/1999/xlink" x="0px" y="0px"
	 width="75.002px" height="151.899px" viewBox="0 0 75.002 151.899" style="enable-background:new 0 0 75.002 151.899;"
	 xml:space="preserve">
<g>
	<path style="fill-rule:evenodd;clip-rule:evenodd;fill:#77786D;" d="M24.152,46.798c-0.2,0.267-0.3,0.567-0.3,0.9
		c0.367,0.1,0.717,0.117,1.05,0.05c-1,0.767-1.633,1.383-1.9,1.85l-0.4,0.85l-0.1-0.05v0.25l-0.1,0.3
		c-0.533-0.367-1.017-0.567-1.45-0.6c0.033-0.067,0.083-0.117,0.15-0.15c0.3-0.567,0.45-1.233,0.45-2c0-2.3-0.283-14.3-0.85-36
		c0-0.067,0-0.133,0-0.2l0.8-0.55c0.733-0.467,1.55-0.917,2.45-1.35c-0.034,0.066-0.067,0.133-0.1,0.2c-0.533,1.034-0.7,2-0.5,2.9
		c1.5,0.066,2.533,0.283,3.1,0.65c-1.833,0.433-2.983,1.1-3.45,2l1.55-0.55c-0.633,0.667-1.183,1.55-1.65,2.65
		c-0.433,0.966-0.7,1.85-0.8,2.65c-0.333,2.233-0.233,3.566,0.3,4c0.5,0.433,1.65,0.683,3.45,0.75c-1.133,0.4-1.684,0.917-1.65,1.55
		c0.466-0.066,0.966-0.25,1.5-0.55l1.35-0.8c-1.566,1.934-2.566,3.733-3,5.4c-0.167,0.633-0.3,1.133-0.4,1.5
		c-0.133,0.733-0.083,1.25,0.15,1.55c0.233,0.333,0.784,0.517,1.65,0.55c0.5,0,1.233-0.033,2.2-0.1
		c-1.133,0.333-2.433,0.95-3.9,1.85c0.867-0.233,1.783-0.433,2.75-0.6c-1.5,1.333-2.733,3-3.7,5c-0.966,2.1-1.35,4-1.15,5.7
		C22.252,46.532,23.085,46.665,24.152,46.798z M39.802,14.148l-0.1-0.45l-0.75-0.05c1.333-0.167,2.333-0.383,3-0.65
		c0.967-0.4,1.533-1,1.7-1.8c0.565-2.528-2.335-3.978-8.7-4.35h-0.05c0.4-0.067,0.817-0.117,1.25-0.15l3.95-0.3
		c2.067-0.066,4.267,0.2,6.601,0.8l1.25,0.3c0.399,0.133,0.8,0.267,1.2,0.4c1.199,0.767,2.133,1.617,2.8,2.55
		c0.8,1.1,1.033,2.05,0.7,2.85c-0.334,0.7-1.567,1.05-3.7,1.05c-2.334-0.133-3.8-0.2-4.4-0.2c2.733,0.8,4.834,1.65,6.3,2.55
		c1.101,0.667,1.867,1.733,2.301,3.2c0.366,1.267,0.449,2.633,0.25,4.1c-0.4,0.033-1.034,0.05-1.9,0.05c-0.8,0-1.417,0.034-1.85,0.1
		c0.166,0.333,0.616,0.65,1.35,0.95c0.866,0.367,1.4,0.617,1.6,0.75c1,0.8,1.584,1.933,1.75,3.4c0.101,1.367-0.017,2.65-0.35,3.85
		c-0.233,0.867-0.533,1.383-0.9,1.55c-0.6,0.067-1.199,0.15-1.8,0.25c0.134,0.434,0.533,0.917,1.2,1.45
		c0.733,0.566,1.167,1.066,1.3,1.5c0.134,0.4,0.2,0.983,0.2,1.75c-0.066,0.8-0.1,1.367-0.1,1.7c0.066,0.8,0.1,1.4,0.1,1.8
		c-0.033,0.733-0.2,1.267-0.5,1.6c-0.267,0.267-0.733,0.433-1.4,0.5c-0.8,0.033-1.333,0.05-1.6,0.05
		c-0.134,0.433-0.017,0.8,0.35,1.1c0.534,0.467,0.834,0.783,0.9,0.95c0.233,0.567,0.233,2.017,0,4.35
		c-0.033,0.567,0.35,1.95,1.15,4.15c0.733,2.034,0.966,3.383,0.699,4.05c-0.1,0.267-0.8,0.367-2.1,0.3
		c-1.267-0.066-1.95,0.05-2.05,0.35c-0.066,0.167,0.5,1.017,1.7,2.55c1.267,1.667,1.899,3.284,1.899,4.85
		c0,0.934-0.883,1.167-2.649,0.7c-2.267-0.567-3.667-0.733-4.2-0.5c-0.033,0.933-0.066,1.566-0.101,1.9
		c-0.1,0.5-0.5,0.85-1.199,1.05c-0.601,0.2-1.534,0.25-2.801,0.15c-1.433-0.133-2.366-0.167-2.8-0.1
		c-0.233,0.7,0.017,1.517,0.75,2.45c-1.066,0.267-2.316,0.434-3.75,0.5c-0.1,0-1.383,0-3.85,0c-1.467,0.034-2.55-0.117-3.25-0.45
		c-0.833-0.433-1.516-1.233-2.05-2.4c0.035,0.337,0.569,1.487,1.6,3.45c0.933,1.667,1.167,2.667,0.7,3
		c-0.434,0.366-1.317,0.483-2.65,0.35c-1.4-0.233-2.333-0.35-2.8-0.35c-0.933,0-2.1-0.417-3.5-1.25
		c-1.233-0.767-2.283-1.583-3.15-2.45c-1.067-1.133-1.783-2.2-2.15-3.2c-0.1,0.567,0.367,1.883,1.4,3.95
		c1.133,2.133,1.783,3.399,1.95,3.8c-2.767,0.566-5.683-0.066-8.75-1.9c-3.6-2.133-5.417-5.133-5.45-9
		c-0.033-1.7-0.033-3.417,0-5.15c0-0.633,0.167-1.467,0.5-2.5c0.2-0.567,0.517-1.434,0.95-2.6c1.367-1.633,2.983-2.934,4.85-3.9
		c-0.167,0.3-0.483,0.65-0.95,1.05c-0.534,0.467-0.9,0.817-1.1,1.05c-0.6,0.667-1.2,1.767-1.8,3.3c-0.333,1-0.5,2.25-0.5,3.75
		c0,1.6,0.233,2.833,0.7,3.7c0.733,1.267,1.567,1.983,2.5,2.15c0.933,0.167,1.517,0.05,1.75-0.35c0.1-0.133,0.233-0.733,0.4-1.8
		c0.133-0.633,0.317-1.9,0.55-3.8c0.3-1.667,0.833-2.767,1.6-3.3c-0.333,1.4-0.383,3.033-0.15,4.9c0.2,1.6,0.533,3.05,1,4.35
		l0.45-1.3v-0.1c0.767,1.133,1.917,1.917,3.45,2.35c1.567,0.434,2.967,0.317,4.2-0.35c-0.7-0.867-0.983-2.316-0.85-4.35l0.5,1.15
		l0.05,0.45l0.4,0.3c1,1.667,2.017,2.433,3.05,2.3l-3.05-2.3l-0.45-0.75c-0.033-0.4-0.183-1-0.45-1.8c0-0.066,0.05-0.45,0.15-1.15
		c0.3,0.167,0.733,0.633,1.3,1.4c0.5,0.633,1.033,1.017,1.6,1.15c0.767,0.2,2.3,0.167,4.6-0.1c2.233-0.167,3.533-0.55,3.9-1.15
		c0.333-0.5,0.367-0.85,0.1-1.05c-0.434-0.167-0.767-0.316-1-0.45c0.867,0.2,1.783,0.25,2.75,0.15l-2.25-2.25
		c1.133,0.267,3.017,0.283,5.65,0.05c0.134-0.433,0.134-0.783,0-1.05c1.3-0.033,3.184-0.1,5.65-0.2l-5.4-2.05
		c1.233-0.1,3.316-0.133,6.25-0.1c2.167-0.433,2.75-1.983,1.75-4.65c-0.267-0.767-0.566-1.95-0.9-3.55
		c-0.399-1.3-1.133-2.15-2.199-2.55c-0.967-0.433-2.417-0.65-4.351-0.65c-1.033-0.434-1.899-0.75-2.6-0.95l1.1-0.45l0.601-0.1
		c0.3,0.033,0.616,0,0.949-0.1l0.051-0.1c2.433-0.533,4.166-1.467,5.199-2.8c0.634-0.8,0.817-1.817,0.551-3.05
		c-0.233-1.133-0.7-2-1.4-2.6c-0.533-0.5-1.316-0.784-2.35-0.85h1.899l-1.7-0.45c-0.333-0.2-0.616-0.333-0.85-0.4
		c1.066-0.3,2.1-0.85,3.1-1.65c1.667-1.367,2.184-3.55,1.551-6.55l-2.4-0.6l0.75-1.15l-3.95-0.1c1.667-0.434,2.867-0.9,3.601-1.4
		c1.033-0.733,1.433-1.667,1.199-2.8c-0.6-2.733-1.75-4.467-3.449-5.2C40.868,14.315,40.335,14.182,39.802,14.148z M39.502,24.099
		c1.066,0.1,2.066,0.4,3,0.9l-0.65-0.1c-0.633-0.066-2.483-0.05-5.55,0.05C36.635,24.815,37.702,24.532,39.502,24.099z
		 M38.102,14.048l-3.45,0.1c0.467-0.133,1.367-0.267,2.7-0.4L38.102,14.048z M29.752,59.648c-0.067-0.167-0.067-0.35,0-0.55
		c0.3,0.167,0.617,0.267,0.95,0.3c0.4,0.3,0.85,0.567,1.35,0.8C31.252,60.165,30.485,59.982,29.752,59.648z"/>
	<path style="fill-rule:evenodd;clip-rule:evenodd;fill:#4E4D42;" d="M31.002,82.048c0.467-0.066,0.95-0.133,1.45-0.2l1.45-0.3
		c0.133-0.033,0.283-0.066,0.45-0.1c0.1,0,0.183-0.017,0.25-0.05c-0.033,0.5-0.05,0.949-0.05,1.35c-0.033,2.5,0.083,4.634,0.35,6.4
		c0.3,1.966,0.467,3.083,0.5,3.35c0.133,1.233,0.117,2.35-0.05,3.35c-0.667,0.233-1.367,0.217-2.1-0.05
		c0-1.1-0.217-1.983-0.65-2.649c0.066,0.433,0,1.05-0.2,1.85c-0.267,1.1-0.417,1.767-0.45,2c-0.067,0.6-0.1,2.417-0.1,5.45v6.45
		c-0.033,2.633-0.184,4.783-0.45,6.449c-0.633-0.166-1.35-1.283-2.15-3.35c-0.667-1.767-1.05-3.15-1.15-4.15
		c-0.367,0.434-0.667,0.75-0.9,0.95c-0.367,0.367-0.75,0.584-1.15,0.65c-0.267-0.967-0.85-1.533-1.75-1.7
		c-0.267,1.634-0.35,4.116-0.25,7.45c0.067,3.333-0.017,5.8-0.25,7.399c-1.1,0.034-2.033-1.133-2.8-3.5c-0.6-1.8-0.917-3.466-0.95-5
		c-0.033-1.166,0.083-3.116,0.35-5.85c0.133-2.434-0.133-4.283-0.8-5.55c-0.434,0.366-0.817,1.017-1.15,1.95
		c-0.333,1.066-0.667,1.783-1,2.149c-0.1-0.666,0.05-3,0.45-7c0.3-3.2-0.017-5.399-0.95-6.6c-0.2,0.267-0.5,0.983-0.9,2.149
		c-0.333,0.967-0.75,1.567-1.25,1.801c-0.2-1.2-0.367-3.134-0.5-5.801c0-0.1,0.034-0.583,0.1-1.449
		c0.033-0.601-0.017-1.084-0.15-1.45c-0.1-0.267-0.433-0.566-1-0.9c-0.467-0.267-0.683-0.7-0.65-1.3
		c-0.567-0.2-1.083-0.217-1.55-0.05c-0.133,0.833-0.183,2.066-0.15,3.7c0,1.666-0.05,2.899-0.15,3.699
		c-0.2,1.267-0.333,2.2-0.4,2.801c-0.167,1.1-0.267,2.066-0.3,2.899c0,1.3-0.133,3.117-0.4,5.45c-0.267,2.434-0.417,4.267-0.45,5.5
		c-0.1,3.934,0.033,7.95,0.4,12.05c0.333,2.267,0.566,3.967,0.7,5.101c0.233,1.966,0.233,3.699,0,5.199
		c-0.9,0.134-1.8,0.101-2.7-0.1c-0.2-1.134-0.117-2.833,0.25-5.1c0.433-2.467,0.6-4.233,0.5-5.301
		c-0.133-1.733-0.233-5.316-0.3-10.75c-0.066-2.699-0.066-6.833,0-12.399c0-4.967-0.216-9.05-0.65-12.25
		c-1.533-0.667-2.517-0.967-2.95-0.9c-0.767,0.066-1.3,0.867-1.6,2.4c-0.167,0.866-0.233,2.017-0.2,3.45
		c0.067,1.566,0.083,2.716,0.05,3.449c-0.034,1.2,0.167,3.317,0.6,6.351c0.333,2.566,0.383,4.649,0.15,6.25
		c-1.367,0.533-2.117-0.15-2.25-2.05c-0.067-1,0-2.417,0.2-4.25l0.2-8.601c0.066-2-0.133-4.8-0.6-8.399
		c-0.467-3.767-0.7-6.534-0.7-8.3c0-1.467-0.1-4.233-0.3-8.3c-0.033-3.633,0.383-6.25,1.25-7.85c0.433-0.833,1.217-1.7,2.35-2.6
		c1-0.833,1.983-1.483,2.95-1.95c1.2-0.566,2.167-1.017,2.9-1.35c-0.833,0.567-1.667,1.233-2.5,2c-0.633,0.6-1.2,1.217-1.7,1.85
		l-1.35-0.35c0.033,0.6-0.183,1.284-0.65,2.05c-0.567,0.967-0.9,1.617-1,1.95c-0.267,1.967-0.533,3.467-0.8,4.5
		c-0.5,2.067-0.8,3.367-0.9,3.9c-0.267,1.566-0.3,2.95-0.1,4.15c0.167,1.2,0.716,2.3,1.65,3.3c0.5,0.533,1.483,1.383,2.95,2.55
		c0.167,0.133,1.083,1.05,2.75,2.75c0.967,1.033,1.967,1.649,3,1.85c0.034,0,0.733,0.017,2.1,0.05c0.767,0,1.417,0.217,1.95,0.65
		c0.333,0.267,0.683,0.866,1.05,1.8c0.333,0.9,0.733,1.467,1.2,1.7c0.667,0.366,1.367,0.3,2.1-0.2c0.667-0.467,1.283-0.467,1.85,0
		c0.434,0.334,0.684,0.967,0.75,1.9c0,1.066,0.017,1.783,0.05,2.149c0.167,1.601,0.55,2.767,1.15,3.5
		c0.7,0.834,1.417,0.434,2.15-1.199c0.434-0.967,0.65-2.267,0.65-3.9c-0.033-2.366-0.033-3.717,0-4.05
		c0.5-0.066,1.25-0.101,2.25-0.101s1.733-0.033,2.2-0.1C30.585,85.182,30.835,83.615,31.002,82.048z M31.952,147.499
		c0-0.967,0.033-2.4,0.1-4.3l1.15-5.75c-0.1,1.233-0.034,2.866,0.2,4.899c0.267,2.434,0.4,4.051,0.4,4.851
		c0,0.566-0.117,1.333-0.35,2.3c-0.233,0.967-0.35,1.717-0.35,2.25c-0.3,0.2-0.617,0.2-0.95,0
		C31.985,150.649,31.918,149.232,31.952,147.499z M22.852,131.699l0.6,0.55c0.6,1.7,0.983,3.366,1.15,5
		c0.267,2.566-0.283,3.75-1.65,3.55c-0.167-1.166-0.233-2.684-0.2-4.55C22.785,135.249,22.819,133.732,22.852,131.699z
		 M0.552,122.399c-0.267-0.767-0.216-1.867,0.15-3.301c0.367-1.433,0.85-2.416,1.45-2.949l1.15,0.6c0,0.434,0.15,1.384,0.45,2.85
		c0.2,1.134,0.217,2.067,0.05,2.801C2.735,122.499,1.652,122.499,0.552,122.399z M30.352,120.749v2.3
		c0.066,0.867,0.083,1.5,0.05,1.9c-0.033,0.733-0.2,1.233-0.5,1.5C29.602,124.649,29.752,122.749,30.352,120.749z M35.502,104.649
		l0.6-1.15c0,2.866-0.033,4.566-0.1,5.1c-0.333,0.233-0.65,0.233-0.95,0C34.752,107.232,34.902,105.916,35.502,104.649z"/>
	<path style="fill-rule:evenodd;clip-rule:evenodd;fill:#33322B;" d="M34.952,6.849c-3.375,0.475-6.509,1.308-9.4,2.5l-1.7,0.95
		c0.033-0.066,0.066-0.133,0.1-0.2c-0.9,0.433-1.717,0.883-2.45,1.35l-0.8,0.55c0,0.067,0,0.133,0,0.2
		c-0.133,0.033-0.284,0.05-0.45,0.05c-0.367,0-1.017-0.083-1.95-0.25c0.567-0.3,0.883-0.45,0.95-0.45
		c-0.967,0.034-2.383-0.083-4.25-0.35c-1.867-0.233-3.25-0.35-4.15-0.35c0.3-0.7,0.95-1.184,1.95-1.45c-1.2-0.267-3.133-0.3-5.8-0.1
		c-2.633,0.2-4.583,0.15-5.85-0.15c0.067-0.9,1.7-1.35,4.9-1.35c4.1-0.033,6.233-0.066,6.4-0.1c0.1-0.034,1.816-0.317,5.15-0.85
		c0.1-0.3,0.15-0.617,0.15-0.95c0.933-0.167,2.35-0.183,4.25-0.05c1.967,0.133,3.4,0.133,4.3,0c0.434-0.067,1.083-0.233,1.95-0.5
		c0.8-0.2,1.467-0.267,2-0.2c0.033-1.433,0.8-2.2,2.3-2.3c0.833-0.067,2.15-0.067,3.95,0c-0.033-0.967-0.733-1.533-2.1-1.7
		c-1.933-0.267-3.05-0.483-3.35-0.65c0.967-0.567,2.35-0.65,4.15-0.25c1,0.233,2.416,0.567,4.25,1c1.767,0.167,2.916,0.35,3.45,0.55
		c1.1,0.5,1.533,1.434,1.3,2.8c1.166,0.167,2.85,0.2,5.05,0.1c2.333-0.133,4.017-0.15,5.05-0.05c0.3,0.033,0.617,0.133,0.95,0.3
		c0.3,0.2,0.616,0.3,0.95,0.3c0.1,0,0.983-0.017,2.649-0.05c1.034-0.034,1.851,0.066,2.45,0.3c-0.566,0.733-1.3,1.067-2.2,1
		c0.134,1.4,5.434,2.517,15.9,3.35h-9.5c-1.7-0.133-3.05-0.2-4.05-0.2c-1.867-0.066-3.033,0.15-3.5,0.65
		c0.333-0.033,0.7,0.034,1.1,0.2c0.233,0.067,0.566,0.183,1,0.35c-1.467,0.533-2.517,1-3.149,1.4
		c-0.233,0.133-0.517,0.433-0.851,0.9c-0.033-0.233-0.066-0.45-0.1-0.65l-0.3-1.8l-4.325-2.025c-0.175-0.075-0.351-0.15-0.525-0.225
		c-0.967-0.367-1.916-0.684-2.85-0.95l-1.25-0.3c-2.334-0.6-4.533-0.867-6.601-0.8l-3.95,0.3c-0.433,0.033-0.85,0.083-1.25,0.15
		H34.952z"/>
	<path style="fill-rule:evenodd;clip-rule:evenodd;fill:#3D3C33;" d="M5.252,57.898c-0.933,1.2-1.667,2.517-2.2,3.95l-1.3,7.9
		c0.067,2.5,0.617,4.5,1.65,6c1.8,2.634,5.133,4.517,10,5.65c0.1,0.033,0.184,0.05,0.25,0.05c0.1,0.033,0.184,0.05,0.25,0.05
		c0.1,0.033,0.184,0.05,0.25,0.05c0.1,0.033,0.184,0.05,0.25,0.05c0.067,0.034,0.15,0.051,0.25,0.051
		c0.067,0.033,0.15,0.05,0.25,0.05c0.067,0,0.15,0.017,0.25,0.05c0.067,0,0.15,0.017,0.25,0.05l13.55,0.5
		c0.667-0.066,1.35-0.149,2.05-0.25c-0.167,1.566-0.417,3.134-0.75,4.7c-0.467,0.066-1.2,0.1-2.2,0.1s-1.75,0.034-2.25,0.101
		c-0.033,0.333-0.033,1.684,0,4.05c0,1.634-0.216,2.934-0.65,3.9c-0.733,1.633-1.45,2.033-2.15,1.199
		c-0.6-0.733-0.983-1.899-1.15-3.5c-0.033-0.366-0.05-1.083-0.05-2.149c-0.066-0.934-0.316-1.566-0.75-1.9
		c-0.566-0.467-1.183-0.467-1.85,0c-0.733,0.5-1.434,0.566-2.1,0.2c-0.467-0.233-0.867-0.8-1.2-1.7
		c-0.367-0.934-0.717-1.533-1.05-1.8c-0.533-0.434-1.184-0.65-1.95-0.65c-1.367-0.033-2.066-0.05-2.1-0.05
		c-1.033-0.2-2.033-0.816-3-1.85c-1.667-1.7-2.583-2.617-2.75-2.75c-1.466-1.167-2.45-2.017-2.95-2.55
		c-0.934-1-1.483-2.101-1.65-3.3c-0.2-1.2-0.167-2.583,0.1-4.15c0.1-0.534,0.4-1.833,0.9-3.9c0.267-1.033,0.533-2.533,0.8-4.5
		c0.1-0.333,0.433-0.983,1-1.95c0.467-0.767,0.683-1.45,0.65-2.05L5.252,57.898z"/>
	<path style="fill-rule:evenodd;clip-rule:evenodd;fill:#848579;" d="M56.152,14.199c-0.067-0.6-0.134-1.167-0.2-1.7
		c0.033,0.2,0.066,0.417,0.1,0.65C56.085,13.482,56.118,13.832,56.152,14.199z M19.902,51.298c0.434-0.267,0.783-0.583,1.05-0.95
		c-0.1,0.2-0.317,0.433-0.65,0.7l-0.05,0.4l0.05,0.95l0.05,0.1h-0.05l0.15,0.4h-0.1l-0.05-0.4v-0.1l-0.15-0.2
		C20.052,51.999,19.969,51.699,19.902,51.298z M21.952,64.048c-0.2-0.566-0.317-0.933-0.35-1.1c-0.3-1.133-0.45-2.6-0.45-4.4
		l-0.05-1.1c-0.233,2.133-0.217,3.8,0.05,5c0.133,0.667,0.383,1.417,0.75,2.25c-0.133,2.033,0.15,3.483,0.85,4.35
		c-1.233,0.667-2.633,0.784-4.2,0.35c-1.533-0.433-2.683-1.217-3.45-2.35v-5.05c0-0.267-0.017-0.683-0.05-1.25
		c-0.033-0.533-0.017-0.967,0.05-1.3c0.033-0.2,0.233-0.833,0.6-1.9c0.267-0.767,0.333-1.4,0.2-1.9
		c-1.033,0.733-1.733,1.917-2.1,3.55c-0.767,0.533-1.3,1.633-1.6,3.3c-0.233,1.9-0.417,3.167-0.55,3.8
		c-0.167,1.067-0.3,1.667-0.4,1.8c-0.233,0.4-0.817,0.517-1.75,0.35c-0.933-0.167-1.767-0.883-2.5-2.15
		c-0.467-0.867-0.7-2.1-0.7-3.7c0-1.5,0.167-2.75,0.5-3.75c0.6-1.533,1.2-2.633,1.8-3.3c0.2-0.233,0.566-0.583,1.1-1.05
		c0.466-0.4,0.783-0.75,0.95-1.05c-1.867,0.966-3.483,2.267-4.85,3.9c-1.167,1.367-2.083,2.867-2.75,4.5
		c0.534-1.434,1.267-2.75,2.2-3.95c0.5-0.633,1.067-1.25,1.7-1.85c0.833-0.767,1.667-1.433,2.5-2c1.9-1.3,3.783-1.95,5.65-1.95
		c0.7,0,1.333-0.017,1.9-0.05l-1.05,0.55c0.3-0.067,0.733-0.1,1.3-0.1l0.75-0.6c0.5-0.066,0.933-0.167,1.3-0.3
		c0.067,0.333,0.167,0.65,0.3,0.95l-0.15,0.05c-0.034,0.367,0.017,0.767,0.15,1.2l0.25,0.45l-0.05,0.15
		c0.3,0.667,0.7,1.317,1.2,1.95l0.2,0.2c0.867,1.1,1.85,2.067,2.95,2.9c1.1,0.833,1.967,1.25,2.6,1.25l1.15-0.4l-0.1-0.05
		c-1.4-0.1-2.45-0.65-3.15-1.65c-0.667-1.434-1.233-2.583-1.7-3.45l-0.05-0.05l0.7-0.1l-0.1-0.05l0.35,0.15l1.15,1.8
		c0.767,1.3,1.7,2.417,2.8,3.35h0.25l-0.15,0.05c1.5,1.267,3.067,2.067,4.7,2.4c0.233,0.133,0.566,0.283,1,0.45
		c0.267,0.2,0.233,0.55-0.1,1.05c-0.367,0.6-1.667,0.983-3.9,1.15c-2.3,0.267-3.833,0.3-4.6,0.1c-0.567-0.133-1.1-0.517-1.6-1.15
		c-0.566-0.767-1-1.233-1.3-1.4C22.002,63.599,21.952,63.982,21.952,64.048z M51.327,8.673c-0.684-0.271-1.408-0.529-2.175-0.775
		c-0.4-0.133-0.801-0.267-1.2-0.4c0.934,0.267,1.883,0.583,2.85,0.95C50.977,8.523,51.152,8.599,51.327,8.673z M27.052,25.548
		l0.55-0.2c0.467-0.167,1.267-0.383,2.4-0.65c-1.7,0.133-3.083,0.35-4.15,0.65c-1.8-0.067-2.95-0.317-3.45-0.75
		c-0.533-0.434-0.633-1.767-0.3-4c0.1-0.8,0.367-1.684,0.8-2.65c0.467-1.1,1.017-1.983,1.65-2.65c0.733-0.267,1.8-0.667,3.2-1.2
		c1.233-0.434,2.333-0.7,3.3-0.8c1.167-0.133,2.617-0.133,4.35,0c0.7,0.1,1.35,0.25,1.95,0.45c-1.333,0.133-2.233,0.267-2.7,0.4
		l3.45-0.1c0.767,0.3,1.434,0.767,2,1.4l-0.3-1.3c0.533,0.033,1.066,0.167,1.601,0.4c1.699,0.733,2.85,2.467,3.449,5.2
		c0.233,1.133-0.166,2.067-1.199,2.8c-0.733,0.5-1.934,0.967-3.601,1.4c-2.666-0.133-4.783-0.1-6.35,0.1
		c-1,0.1-2.233,0.317-3.7,0.65c1.233-0.067,2.017-0.133,2.35-0.2c3.467-0.467,5.85-0.6,7.15-0.4c-1.8,0.433-2.867,0.717-3.2,0.85
		c3.066-0.1,4.917-0.117,5.55-0.05l0.65,0.1l0.75,0.2l2.4,0.6c0.633,3,0.116,5.184-1.551,6.55c-1,0.8-2.033,1.35-3.1,1.65
		c-1.033-0.333-2.75-0.433-5.15-0.3c-2.5,0.2-4.1,0.3-4.8,0.3c-1-0.033-2.133,0.117-3.4,0.45c-0.967,0.066-1.7,0.1-2.2,0.1
		c-0.867-0.033-1.417-0.216-1.65-0.55c-0.233-0.3-0.283-0.817-0.15-1.55c0.1-0.367,0.233-0.867,0.4-1.5
		C24.485,29.282,25.485,27.482,27.052,25.548z M41.652,34.849c1.033,0.066,1.816,0.35,2.35,0.85c0.7,0.6,1.167,1.466,1.4,2.6
		c0.267,1.233,0.083,2.25-0.551,3.05c-1.033,1.333-2.767,2.267-5.199,2.8l-0.051,0.1c-0.333,0.1-0.649,0.133-0.949,0.1l-0.601,0.1
		l0.351-0.15l0.25,0.05l1-0.2c0.399-1-0.45-1.733-2.551-2.2c-2.366-0.367-3.766-0.617-4.2-0.75c-1.566-0.434-2.017-1.117-1.35-2.05
		c0.3-0.4,0.917-0.65,1.85-0.75c1-0.1,1.65-0.283,1.95-0.55c-0.2-0.367-0.767-0.55-1.7-0.55c-1.033,0.1-1.733,0.117-2.1,0.05
		c-0.033-0.533,0.233-0.917,0.8-1.15c0.333-0.133,0.867-0.3,1.6-0.5c-1.367-0.067-2.4-0.117-3.1-0.15
		c-1.233-0.033-2.167,0.15-2.8,0.55c-0.4,0.233-0.966,0.683-1.7,1.35c-0.833,0.8-1.283,1.35-1.35,1.65
		c-0.133,0.566,0.1,1.15,0.7,1.75c0.5,0.5,0.566,0.983,0.2,1.45c-0.066,0.067-0.683,0.367-1.85,0.9c-0.767,0.367-1,1.017-0.7,1.95
		c0.867,0.1,1.883-0.05,3.05-0.45c1.4-0.467,2.367-0.733,2.9-0.8c0.934-0.066,2.083-0.017,3.45,0.15c1.833,0.2,2.967,0.317,3.4,0.35
		l0.1,0.3v0.1l-0.5-0.05h-0.1c-0.833-0.067-2.517-0.067-5.05,0c-1.2,0.033-2.333,0.183-3.4,0.45c-1.567,0.367-2.583,0.9-3.05,1.6
		c-1.066-0.133-1.9-0.267-2.5-0.4c-0.2-1.7,0.184-3.6,1.15-5.7c0.967-2,2.2-3.667,3.7-5c2.867-0.5,6.65-0.784,11.35-0.85h2.301
		C40.652,34.815,41.152,34.815,41.652,34.849z M39.552,45.849c1.934,0,3.384,0.217,4.351,0.65c1.066,0.4,1.8,1.25,2.199,2.55
		c0.334,1.6,0.634,2.784,0.9,3.55c1,2.667,0.417,4.217-1.75,4.65c-2.934-0.033-5.017,0-6.25,0.1h-0.35
		c-0.267,0.233-0.667,0.35-1.2,0.35c-0.5,0-1.167-0.133-2-0.4c-0.9-0.3-1.517-0.5-1.85-0.6c-0.9-0.233-1.85-0.617-2.85-1.15
		c-1.133-0.633-2.05-1.117-2.75-1.45c-1.7-0.767-2.95-1.383-3.75-1.85c-0.367-0.733-0.917-1.333-1.65-1.8l-0.1,0.2v0.35l-0.1-0.05
		l0.1-0.3v-0.25l0.1,0.05l0.4-0.85c0.267-0.467,0.9-1.083,1.9-1.85c0.434-0.033,0.967-0.2,1.6-0.5c0.867-0.433,1.417-0.7,1.65-0.8
		c0.6-0.2,1.333-0.317,2.2-0.35c0.4-0.033,1.183-0.05,2.35-0.05h7.3L39.552,45.849z M38.752,59.599c0.134,0.267,0.134,0.617,0,1.05
		c-2.633,0.233-4.517,0.217-5.65-0.05l-0.3-0.35l-0.75-0.05c-0.5-0.233-0.95-0.5-1.35-0.8c0.167,0.033,0.5,0.05,1,0.05
		c-0.7-0.4-1.45-0.967-2.25-1.7l3.35,1.1C34.302,59.415,36.285,59.665,38.752,59.599z M38.952,13.648l-3.55-0.35
		c-1.433-0.2-3.167-0.2-5.2,0c-1.367,0.067-2.617,0.25-3.75,0.55c-0.567-0.367-1.6-0.583-3.1-0.65c-0.2-0.9-0.033-1.867,0.5-2.9
		l1.7-0.95c2.891-1.192,6.025-2.025,9.4-2.5c6.365,0.372,9.266,1.822,8.7,4.35c-0.167,0.8-0.733,1.4-1.7,1.8
		C41.285,13.265,40.285,13.482,38.952,13.648z M41.402,46.048h-1.4l2.25,0.85L41.402,46.048z M32.252,8.849
		c-0.967,0.033-1.65,0.217-2.05,0.55l-0.45-0.85c-0.233,0.534-0.7,0.917-1.4,1.15l-1.7,0.6c0.3-0.1,0.75-0.083,1.35,0.05
		c0.033,0.533-0.333,1.017-1.1,1.45c-0.833,0.467-1.3,0.934-1.4,1.4c0.967,0.167,2.183,0.167,3.65,0
		c2.033-0.233,3.233-0.35,3.6-0.35c0.167,0,1.25,0.017,3.25,0.05c1.333,0.033,2.4-0.017,3.2-0.15c-0.5-0.633-1.834-0.967-4-1
		c-1.967-0.033-3.05-0.483-3.25-1.35c0.5-0.333,1.283-0.7,2.35-1.1C33.902,8.965,33.219,8.815,32.252,8.849z M26.652,18.499
		c0.267,0.6-0.066,1.4-1,2.4c-1.167,1.167-1.8,1.917-1.9,2.25c1,0.133,1.967,0.05,2.9-0.25c0.567-0.167,1.45-0.467,2.65-0.9
		c0.4-0.1,0.983-0.133,1.75-0.1c0.833,0.067,1.417,0.067,1.75,0c0.233-0.033,0.717-0.133,1.45-0.3c0.6-0.167,1.1-0.233,1.5-0.2
		c0.133-0.7-0.467-1.1-1.8-1.2c-1.534,0.033-2.5,0-2.9-0.1c0.133-0.633,0.684-0.917,1.65-0.85c0.066-0.433-0.083-0.767-0.45-1
		c-0.3-0.2-0.7-0.267-1.2-0.2l0.45-1.3c-2.067,0-3.9,0.583-5.5,1.75C26.235,18.398,26.452,18.398,26.652,18.499z M39.202,29.599
		c0.267-0.867,0-1.283-0.8-1.25l-0.45-0.85c-0.533,0.267-2.5,0.283-5.9,0.05c-2.833-0.233-4.55,0.367-5.15,1.8
		c0.333,0.233,0.8,0.25,1.4,0.05c0.567-0.2,1.017-0.15,1.35,0.15c-1.233,0-1.917,0.467-2.05,1.4c0.3-0.067,1.433-0.3,3.4-0.7
		c1.367-0.333,2.517-0.533,3.45-0.6c0.5-0.033,1.3-0.033,2.4,0C37.886,29.682,38.669,29.665,39.202,29.599z M30.752,32.398
		c-2.2,0.233-3.4,0.583-3.6,1.05c1.567,0.267,3.583,0.3,6.05,0.1c3.6-0.3,5.616-0.45,6.05-0.45l-4.3-0.85
		C33.918,32.182,32.519,32.232,30.752,32.398z M25.802,55.999l0.2,0.25c0.5,0.433,1.317,1.05,2.45,1.85c0.466,0.4,0.9,0.733,1.3,1
		c-0.067,0.2-0.067,0.383,0,0.55c-1.533-0.6-2.817-1.767-3.85-3.5L25.802,55.999z M34.052,47.349c-0.4-0.833-1.917-0.983-4.55-0.45
		s-3.633,1.417-3,2.65c-1.033-0.066-1.8-0.066-2.3,0c-0.267,1.2,1.367,2.2,4.9,3c3.033,0.7,5.217,0.967,6.55,0.8
		c-1.467-0.667-2.5-1.167-3.1-1.5c-1.167-0.633-2.083-1.317-2.75-2.05c0.3-0.233,0.817-0.35,1.55-0.35c0.433,0,1.033,0,1.8,0
		c0.067-0.4,0.233-0.967,0.5-1.7L34.052,47.349z M25.752,55.949c-0.133-0.133-0.217-0.25-0.25-0.35h0.05L25.752,55.949z
		 M31.902,59.398l-0.2,0.05c0.7,0.367,1.35,0.5,1.95,0.4L31.902,59.398z M36.052,55.898c2,0.333,3.934,0.5,5.8,0.5l1.25-0.85
		c-3.6,0-6.95-0.533-10.05-1.6C32.119,54.782,33.119,55.432,36.052,55.898z M19.602,53.798l-1.05-1.7
		c-1.267-0.167-2.017,1.066-2.25,3.7c-0.167,1.667-0.117,3.434,0.15,5.3c0.767-0.133,1.183-0.8,1.25-2c0,1.8,0,2.717,0,2.75
		c0.133,1.033,0.6,1.75,1.4,2.15c0.5-0.733,0.733-2.267,0.7-4.6c-0.033-3-0.033-4.667,0-5L19.602,53.798z M10.552,55.199
		c-1.333,0.833-1.95,1.617-1.85,2.35c0.167-0.333,0.333-0.517,0.5-0.55c0.133-0.033,0.35-0.067,0.65-0.1
		c0.033,0.267,0.05,1.067,0.05,2.4c1.067-2.7,2.417-4.633,4.05-5.8C12.352,54.199,11.219,54.765,10.552,55.199z"/>
	<path style="fill-rule:evenodd;clip-rule:evenodd;fill:#52524B;" d="M34.602,81.399c-0.067,0.033-0.15,0.05-0.25,0.05
		c-0.167,0.033-0.317,0.066-0.45,0.1l-1.45,0.3c-0.5,0.067-0.983,0.134-1.45,0.2c-0.7,0.101-1.383,0.184-2.05,0.25l-13.55-0.5
		c-0.1-0.033-0.183-0.05-0.25-0.05c-0.1-0.033-0.183-0.05-0.25-0.05c-0.1,0-0.183-0.017-0.25-0.05c-0.1,0-0.183-0.017-0.25-0.051
		c-0.066,0-0.15-0.017-0.25-0.05c-0.066,0-0.15-0.017-0.25-0.05c-0.066,0-0.15-0.017-0.25-0.05c-0.066,0-0.15-0.017-0.25-0.05
		c-4.867-1.134-8.2-3.017-10-5.65c-1.033-1.5-1.583-3.5-1.65-6l1.3-7.9c0.667-1.633,1.583-3.133,2.75-4.5
		c-0.433,1.167-0.75,2.033-0.95,2.6c-0.333,1.033-0.5,1.867-0.5,2.5c-0.033,1.733-0.033,3.45,0,5.15c0.033,3.867,1.85,6.867,5.45,9
		c3.067,1.833,5.983,2.466,8.75,1.9c-0.167-0.4-0.816-1.667-1.95-3.8c-1.033-2.067-1.5-3.383-1.4-3.95c0.367,1,1.083,2.067,2.15,3.2
		c0.867,0.867,1.917,1.683,3.15,2.45c1.4,0.833,2.567,1.25,3.5,1.25c0.467,0,1.4,0.116,2.8,0.35c1.333,0.134,2.217,0.017,2.65-0.35
		c0.466-0.334,0.233-1.333-0.7-3c-1.031-1.963-1.565-3.113-1.6-3.45c0.534,1.167,1.217,1.967,2.05,2.4
		c0.7,0.333,1.783,0.483,3.25,0.45c2.466,0,3.75,0,3.85,0c1.434-0.066,2.684-0.233,3.75-0.5c-0.733-0.933-0.983-1.75-0.75-2.45
		c0.434-0.067,1.367-0.033,2.8,0.1c1.267,0.1,2.2,0.05,2.801-0.15c0.699-0.2,1.1-0.55,1.199-1.05c0.034-0.333,0.067-0.967,0.101-1.9
		c0.533-0.233,1.934-0.067,4.2,0.5c1.767,0.467,2.649,0.233,2.649-0.7c0-1.566-0.633-3.183-1.899-4.85
		c-1.2-1.533-1.767-2.383-1.7-2.55c0.1-0.3,0.783-0.417,2.05-0.35c1.3,0.067,2-0.033,2.1-0.3c0.267-0.667,0.034-2.017-0.699-4.05
		c-0.801-2.2-1.184-3.583-1.15-4.15c0.233-2.333,0.233-3.783,0-4.35c-0.066-0.167-0.366-0.483-0.9-0.95
		c-0.366-0.3-0.483-0.667-0.35-1.1c0.267,0,0.8-0.017,1.6-0.05c0.667-0.067,1.134-0.233,1.4-0.5c0.3-0.333,0.467-0.867,0.5-1.6
		c0-0.4-0.033-1-0.1-1.8c0-0.333,0.033-0.9,0.1-1.7c0-0.767-0.066-1.35-0.2-1.75c-0.133-0.434-0.566-0.934-1.3-1.5
		c-0.667-0.533-1.066-1.017-1.2-1.45c0.601-0.1,1.2-0.183,1.8-0.25c0.367-0.167,0.667-0.683,0.9-1.55
		c0.333-1.2,0.45-2.483,0.35-3.85c-0.166-1.467-0.75-2.6-1.75-3.4c-0.199-0.133-0.733-0.383-1.6-0.75
		c-0.733-0.3-1.184-0.617-1.35-0.95c0.433-0.066,1.05-0.1,1.85-0.1c0.866,0,1.5-0.017,1.9-0.05c0.199-1.467,0.116-2.833-0.25-4.1
		c-0.434-1.467-1.2-2.533-2.301-3.2c-1.466-0.9-3.566-1.75-6.3-2.55c0.601,0,2.066,0.067,4.4,0.2c2.133,0,3.366-0.35,3.7-1.05
		c0.333-0.8,0.1-1.75-0.7-2.85c-0.667-0.934-1.601-1.784-2.8-2.55c0.767,0.246,1.491,0.504,2.175,0.775l4.325,2.025l0.3,1.8
		c0.066,0.533,0.133,1.1,0.2,1.7l0.25,1.85c0.1,0.867,0.199,1.8,0.3,2.8c0,0.1,0,0.217,0,0.35c0.033,0.367,0.066,0.767,0.1,1.2
		c0.733,7.767,0.917,14.883,0.55,21.35c-0.267,9.2-0.517,15.417-0.75,18.65c-0.333,5.133-1.233,8.967-2.699,11.5
		c-1.934,3.367-7,6.2-15.2,8.5C37.335,80.798,35.969,81.132,34.602,81.399z M21.952,64.048c0.267,0.8,0.417,1.4,0.45,1.8l0.45,0.75
		l3.05,2.3c-1.033,0.133-2.05-0.633-3.05-2.3l-0.4-0.3l-0.05-0.45l-0.5-1.15c-0.367-0.833-0.617-1.583-0.75-2.25
		c-0.267-1.2-0.283-2.867-0.05-5l0.05,1.1c0,1.8,0.15,3.267,0.45,4.4C21.635,63.115,21.752,63.482,21.952,64.048z M19.902,51.298
		c0.067,0.4,0.15,0.7,0.25,0.9l0.15,0.2v0.1c-0.233-0.067-0.466-0.05-0.7,0.05c-0.133-0.3-0.233-0.617-0.3-0.95v-0.05L19.902,51.298
		z M38.102,14.048l-0.75-0.3c-0.6-0.2-1.25-0.35-1.95-0.45c-1.733-0.133-3.183-0.133-4.35,0c-0.966,0.1-2.066,0.367-3.3,0.8
		c-1.4,0.533-2.467,0.933-3.2,1.2l-1.55,0.55c0.467-0.9,1.617-1.567,3.45-2c1.133-0.3,2.383-0.483,3.75-0.55
		c2.033-0.2,3.767-0.2,5.2,0l3.55,0.35l0.75,0.05l0.1,0.45l0.3,1.3C39.535,14.815,38.868,14.349,38.102,14.048z M39.502,24.099
		c-1.3-0.2-3.683-0.067-7.15,0.4c-0.333,0.067-1.117,0.133-2.35,0.2c1.467-0.333,2.7-0.55,3.7-0.65c1.566-0.2,3.684-0.233,6.35-0.1
		l3.95,0.1l-0.75,1.15l-0.75-0.2C41.568,24.499,40.568,24.199,39.502,24.099z M41.002,33.999c0.233,0.067,0.517,0.2,0.85,0.4
		l1.7,0.45h-1.899c-0.5-0.033-1-0.033-1.5,0h-2.301c-4.7,0.066-8.483,0.35-11.35,0.85c-0.967,0.167-1.883,0.367-2.75,0.6
		c1.467-0.9,2.767-1.517,3.9-1.85c1.267-0.333,2.4-0.483,3.4-0.45c0.7,0,2.3-0.1,4.8-0.3C38.252,33.565,39.969,33.665,41.002,33.999
		z M36.252,44.798v0.4l0.7-0.3c0.7,0.2,1.566,0.517,2.6,0.95l0.45,0.2h-7.3c-1.167,0-1.95,0.017-2.35,0.05
		c-0.867,0.033-1.6,0.15-2.2,0.35c-0.233,0.1-0.783,0.367-1.65,0.8c-0.633,0.3-1.167,0.467-1.6,0.5
		c-0.333,0.067-0.683,0.05-1.05-0.05c0-0.333,0.1-0.633,0.3-0.9c0.467-0.7,1.483-1.233,3.05-1.6c1.066-0.267,2.2-0.417,3.4-0.45
		c2.533-0.067,4.217-0.067,5.05,0h0.1L36.252,44.798z M39.002,57.349l5.4,2.05c-2.467,0.1-4.351,0.167-5.65,0.2
		c-2.467,0.066-4.45-0.184-5.95-0.75l-3.35-1.1c-0.934-0.867-1.6-1.433-2-1.7c-0.733-0.466-1.367-0.617-1.9-0.45h-0.05
		c0.033,0.1,0.117,0.217,0.25,0.35l0.05,0.05l0.1,0.15c1.033,1.733,2.317,2.9,3.85,3.5c0.733,0.333,1.5,0.517,2.3,0.55l0.75,0.05
		l0.3,0.35l2.25,2.25c-0.967,0.1-1.883,0.05-2.75-0.15c-1.633-0.333-3.2-1.133-4.7-2.4l0.15-0.05h-0.25
		c-1.1-0.933-2.033-2.05-2.8-3.35l-1.15-1.8l-0.35-0.15l0.1,0.05l-0.7,0.1l-0.65-1.15c-0.1-0.167-0.283-0.383-0.55-0.65l-0.25-0.3
		l-0.4-0.25c-0.233-0.167-0.466-0.25-0.7-0.25l-0.05-0.1l-0.05-0.95l0.05-0.4c0.333-0.267,0.55-0.5,0.65-0.7
		c0.433,0.033,0.917,0.233,1.45,0.6l0.1,0.05v-0.35l0.1-0.2c0.733,0.466,1.283,1.066,1.65,1.8c0.8,0.467,2.05,1.083,3.75,1.85
		c0.7,0.333,1.617,0.816,2.75,1.45c1,0.534,1.95,0.917,2.85,1.15c0.333,0.1,0.95,0.3,1.85,0.6c0.833,0.267,1.5,0.4,2,0.4
		c0.533,0,0.934-0.117,1.2-0.35H39.002z M13.802,59.199c0.367-1.633,1.067-2.817,2.1-3.55c0.133,0.5,0.067,1.133-0.2,1.9
		c-0.367,1.067-0.567,1.7-0.6,1.9c-0.067,0.333-0.083,0.767-0.05,1.3c0.034,0.567,0.05,0.983,0.05,1.25v5.05v0.1l-0.45,1.3
		c-0.467-1.3-0.8-2.75-1-4.35C13.418,62.232,13.469,60.599,13.802,59.199z M41.402,46.048l0.85,0.85l-2.25-0.85H41.402z
		 M27.052,25.548l-1.35,0.8c-0.534,0.3-1.034,0.483-1.5,0.55c-0.034-0.633,0.517-1.15,1.65-1.55c1.066-0.3,2.45-0.517,4.15-0.65
		c-1.133,0.267-1.933,0.483-2.4,0.65L27.052,25.548z"/>
	<path style="fill-rule:evenodd;clip-rule:evenodd;fill:#ACAD9E;" d="M17.002,52.048l0.05-0.05l0.95-0.1l-0.75,0.6
		c-0.567,0-1,0.033-1.3,0.1L17.002,52.048z M38.052,44.449l-1.1,0.45l-0.7,0.3v-0.4v-0.1l-0.1-0.3c-0.433-0.033-1.566-0.15-3.4-0.35
		c-1.367-0.167-2.517-0.216-3.45-0.15c-0.533,0.067-1.5,0.333-2.9,0.8c-1.167,0.4-2.183,0.55-3.05,0.45
		c-0.3-0.933-0.067-1.583,0.7-1.95c1.167-0.534,1.784-0.833,1.85-0.9c0.367-0.466,0.3-0.95-0.2-1.45c-0.6-0.6-0.833-1.184-0.7-1.75
		c0.067-0.3,0.517-0.85,1.35-1.65c0.733-0.667,1.3-1.117,1.7-1.35c0.633-0.4,1.567-0.583,2.8-0.55c0.7,0.034,1.733,0.083,3.1,0.15
		c-0.733,0.2-1.267,0.367-1.6,0.5c-0.567,0.233-0.833,0.617-0.8,1.15c0.367,0.066,1.067,0.05,2.1-0.05c0.934,0,1.5,0.184,1.7,0.55
		c-0.3,0.267-0.95,0.45-1.95,0.55c-0.933,0.1-1.55,0.35-1.85,0.75c-0.667,0.934-0.216,1.617,1.35,2.05
		c0.434,0.133,1.833,0.383,4.2,0.75c2.101,0.466,2.95,1.2,2.551,2.2l-1,0.2l-0.25-0.05L38.052,44.449z M30.752,32.398
		c1.767-0.167,3.167-0.217,4.2-0.15l4.3,0.85c-0.434,0-2.45,0.15-6.05,0.45c-2.467,0.2-4.483,0.167-6.05-0.1
		C27.352,32.982,28.552,32.632,30.752,32.398z M39.202,29.599c-0.533,0.066-1.316,0.083-2.35,0.05c-1.1-0.033-1.9-0.033-2.4,0
		c-0.934,0.067-2.083,0.267-3.45,0.6c-1.967,0.4-3.1,0.633-3.4,0.7c0.133-0.934,0.816-1.4,2.05-1.4c-0.333-0.3-0.783-0.35-1.35-0.15
		c-0.6,0.2-1.066,0.184-1.4-0.05c0.6-1.434,2.317-2.033,5.15-1.8c3.4,0.233,5.367,0.217,5.9-0.05l0.45,0.85
		C39.202,28.315,39.469,28.732,39.202,29.599z M32.252,8.849c0.967-0.033,1.65,0.117,2.05,0.45c-1.066,0.4-1.85,0.767-2.35,1.1
		c0.2,0.867,1.283,1.317,3.25,1.35c2.166,0.033,3.5,0.367,4,1c-0.8,0.133-1.867,0.183-3.2,0.15c-2-0.033-3.083-0.05-3.25-0.05
		c-0.367,0-1.567,0.117-3.6,0.35c-1.467,0.167-2.683,0.167-3.65,0c0.1-0.467,0.567-0.934,1.4-1.4c0.767-0.433,1.133-0.917,1.1-1.45
		c-0.6-0.133-1.05-0.15-1.35-0.05l1.7-0.6c0.7-0.233,1.167-0.617,1.4-1.15l0.45,0.85C30.602,9.065,31.285,8.882,32.252,8.849z
		 M26.652,18.499c-0.2-0.1-0.417-0.1-0.65,0c1.6-1.167,3.433-1.75,5.5-1.75l-0.45,1.3c0.5-0.066,0.9,0,1.2,0.2
		c0.367,0.233,0.517,0.567,0.45,1c-0.967-0.067-1.517,0.217-1.65,0.85c0.4,0.1,1.367,0.133,2.9,0.1c1.333,0.1,1.933,0.5,1.8,1.2
		c-0.4-0.033-0.9,0.033-1.5,0.2c-0.733,0.167-1.217,0.267-1.45,0.3c-0.333,0.067-0.917,0.067-1.75,0c-0.767-0.033-1.35,0-1.75,0.1
		c-1.2,0.433-2.083,0.733-2.65,0.9c-0.933,0.3-1.9,0.383-2.9,0.25c0.1-0.333,0.733-1.083,1.9-2.25
		C26.585,19.898,26.918,19.099,26.652,18.499z M30.702,59.398c-0.333-0.033-0.65-0.133-0.95-0.3c-0.4-0.267-0.833-0.6-1.3-1
		c-1.133-0.8-1.95-1.417-2.45-1.85l-0.2-0.25l-0.05-0.05l-0.2-0.35c0.534-0.167,1.167-0.017,1.9,0.45c0.4,0.267,1.066,0.833,2,1.7
		c0.8,0.733,1.55,1.3,2.25,1.7C31.202,59.449,30.869,59.432,30.702,59.398z M34.052,47.349l-0.4,0.4c-0.267,0.733-0.433,1.3-0.5,1.7
		c-0.767,0-1.367,0-1.8,0c-0.733,0-1.25,0.117-1.55,0.35c0.667,0.733,1.583,1.417,2.75,2.05c0.6,0.333,1.633,0.833,3.1,1.5
		c-1.333,0.167-3.517-0.1-6.55-0.8c-3.533-0.8-5.167-1.8-4.9-3c0.5-0.066,1.267-0.066,2.3,0c-0.633-1.233,0.367-2.117,3-2.65
		S33.652,46.515,34.052,47.349z M31.902,59.398l1.75,0.45c-0.6,0.1-1.25-0.033-1.95-0.4L31.902,59.398z M22.902,55.099l0.05,0.05
		c0.466,0.867,1.033,2.017,1.7,3.45c0.7,1,1.75,1.55,3.15,1.65l0.1,0.05l-1.15,0.4c-0.633,0-1.5-0.417-2.6-1.25
		c-1.1-0.833-2.083-1.8-2.95-2.9l-0.2-0.2c-0.5-0.633-0.9-1.283-1.2-1.95l0.05-0.15l-0.25-0.45c-0.133-0.433-0.184-0.833-0.15-1.2
		l0.15-0.05c0.233-0.1,0.467-0.117,0.7-0.05l0.05,0.4h0.1l-0.15-0.4h0.05c0.233,0,0.467,0.083,0.7,0.25l0.4,0.25l0.25,0.3
		c0.267,0.267,0.45,0.483,0.55,0.65L22.902,55.099z M36.052,55.898c-2.933-0.467-3.933-1.117-3-1.95c3.1,1.066,6.45,1.6,10.05,1.6
		l-1.25,0.85C39.985,56.398,38.052,56.232,36.052,55.898z M10.552,55.199c0.667-0.434,1.8-1,3.4-1.7
		c-1.633,1.167-2.983,3.1-4.05,5.8c0-1.333-0.017-2.133-0.05-2.4c-0.3,0.033-0.517,0.067-0.65,0.1
		c-0.167,0.033-0.333,0.217-0.5,0.55C8.602,56.815,9.219,56.032,10.552,55.199z M19.602,53.798l0.2,0.6c-0.033,0.333-0.033,2,0,5
		c0.034,2.333-0.2,3.867-0.7,4.6c-0.8-0.4-1.267-1.117-1.4-2.15c0-0.033,0-0.95,0-2.75c-0.067,1.2-0.483,1.867-1.25,2
		c-0.267-1.867-0.317-3.633-0.15-5.3c0.233-2.633,0.983-3.867,2.25-3.7L19.602,53.798z"/>
</g>
</svg>
