<?xml version="1.0" encoding="iso-8859-1"?>
<!-- Generator: Adobe Illustrator 16.0.0, SVG Export Plug-In . SVG Version: 6.00 Build 0)  -->
<!DOCTYPE svg PUBLIC "-//W3C//DTD SVG 1.1//EN" "http://www.w3.org/Graphics/SVG/1.1/DTD/svg11.dtd">
<svg version="1.1" id="FlashAICB" xmlns="http://www.w3.org/2000/svg" xmlns:xlink="http://www.w3.org/1999/xlink" x="0px" y="0px"
	 width="205.767px" height="102px" viewBox="0 0 205.767 102" style="enable-background:new 0 0 205.767 102;" xml:space="preserve"
	>
<g>
	<g>
		<path style="fill-rule:evenodd;clip-rule:evenodd;fill:#515046;" d="M172.267,35.2c-0.7,0.566-1.017,1.083-0.95,1.55
			c0.101,0.833,1.767,1.4,5,1.7c1.667,0.133,3.566,0.216,5.7,0.25c-0.566,1.133-2.366,1.683-5.4,1.65
			c-3.366-0.267-5.5-0.4-6.399-0.4c-2.5,0-4.117,0.033-4.851,0.1c-2.033,0.167-3.55,0.6-4.55,1.3v-1.4
			c-0.033-0.233-0.217-0.85-0.55-1.85c-0.267-0.8-0.417-1.434-0.45-1.9c0-0.567,0.101-1.45,0.3-2.65c0.167-1.2,0.25-2.1,0.25-2.7
			c0-0.467-0.116-1.567-0.35-3.3c-0.2-1.367-0.217-2.417-0.05-3.15c0.833-0.3,1.467,0,1.899,0.9c0.267,0.5,0.551,1.25,0.851,2.25
			c0.267,0.534,0.649,1.034,1.149,1.5c0.301,0.267,0.767,0.667,1.4,1.2c0.934,0.9,2.217,1.567,3.85,2
			c2.134,0.567,3.517,1.017,4.15,1.35C173.333,34.1,173,34.633,172.267,35.2z M185.217,67.85c-0.167,0.034-1.267,0.117-3.3,0.25
			c-2.034,0.167-3.584,0.284-4.65,0.351c-1.8,0.1-3.35,0.066-4.65-0.101c-0.333-0.033-1.3-0.216-2.899-0.55
			c-0.667-0.133-1.267-0.217-1.8-0.25h0.25c4.666,0,8.133-0.116,10.399-0.35c0.634-0.066,1.584-0.15,2.851-0.25
			c1.133-0.101,2.066-0.217,2.8-0.351c0.366-0.033,0.983-0.149,1.85-0.35c0.8-0.134,1.4-0.134,1.8,0
			C187.366,67.083,186.483,67.616,185.217,67.85z M166.816,94.2c-1.366,0.033-4.583-0.033-9.649-0.2c-4.034-0.1-7.267-0.033-9.7,0.2
			c-3.367,0.3-6.2,0.45-8.5,0.45c-1.533-0.101-2.717-0.167-3.55-0.2c-1.534-0.066-2.7,0.033-3.5,0.3
			c-0.434,0.134-0.9,0.417-1.4,0.85c-0.7,0.567-1.134,0.9-1.3,1c-1.667,0.934-3.084,0.483-4.25-1.35l2.75-1.55l0.95,0.5
			c1.1,0.033,2.566-0.233,4.399-0.8c1.033-0.301,2.467-0.767,4.3-1.4c3.167-0.833,5.601-1.333,7.301-1.5
			c1.866-0.167,5.566-0.066,11.1,0.3c4.6,0.267,8.283,0.05,11.05-0.649c0.601-0.167,1.75-0.384,3.45-0.65
			c1.434-0.233,2.566-0.5,3.4-0.8c0.933-0.334,2.3-0.884,4.1-1.65c1.566-0.6,2.95-0.983,4.15-1.149c1.3-0.167,3.233-0.25,5.8-0.25
			c2.666,0,4.566-0.067,5.7-0.2c0.399-0.033,1.166-0.066,2.3-0.101c0.967-0.033,1.733-0.116,2.3-0.25
			c1.7-0.366,4.283-0.983,7.75-1.85c-0.767,0.3-1.75,0.8-2.95,1.5c-1.733,0.967-2.733,1.517-3,1.65c-1.967,1-4.416,1.6-7.35,1.8
			c-0.667,0.033-3.267,0.033-7.8,0c-2.9,0-5.434,0.517-7.601,1.55c-3.366,1.8-5.899,3.1-7.6,3.9
			C168.733,93.983,167.85,94.167,166.816,94.2z M123.116,32.15c-0.633,0.533-1.75,0.767-3.35,0.7c-1.8-0.167-3-0.25-3.6-0.25
			c-1.301,0.167-2.2,0.183-2.7,0.05c-1.066-0.333-1.634-0.967-1.7-1.9c-0.033-0.567,0.083-1.5,0.35-2.8
			c0.067-0.534,0.117-1.184,0.15-1.95c0.2-0.533,0.767-0.783,1.7-0.75c0.533,0,1.233,0.183,2.1,0.55c0.467,0.233,1.134,0.55,2,0.95
			c0.5,0.2,1,0.5,1.5,0.9c0.3,0.233,0.75,0.617,1.351,1.15c0.833,0.7,1.583,1.15,2.25,1.35c0.533,0.133,1.433,0.184,2.699,0.15
			L123.116,32.15z M101.417,18.55c-0.7-0.033-1.117-0.083-1.25-0.15c-0.533-0.2-0.933-0.417-1.2-0.65c-0.233-0.2-0.567-0.567-1-1.1
			c-0.667-0.833-1.1-1.633-1.3-2.4c-0.2-0.733-0.233-1.65-0.1-2.75c0.4,0.133,0.767,0.367,1.1,0.7c0.2,0.167,0.517,0.483,0.95,0.95
			c1.6,1.567,3.65,2.95,6.15,4.15c1.134,0.567,3.434,1.534,6.9,2.9l-9.2-0.9C102.167,18.833,101.816,18.583,101.417,18.55z
			 M104.316,98.3v0.5c-1.1,0.9-2.95,1.384-5.55,1.45c-3.033,0.1-5.017,0.333-5.95,0.7c-1.733,0.7-3.566,1.05-5.5,1.05
			c-0.533,0-1.583-0.15-3.15-0.45c0.2-0.066,0.4-0.133,0.6-0.2c1.167-0.366,2.617-1.066,4.35-2.1c1.6-0.967,4.083-1.417,7.45-1.35
			C98.433,97.934,101.017,98.066,104.316,98.3z M25.066,64.25c2.8,1.9,4.4,2.384,4.8,1.45l1.85,1.85
			c-3.333,1.7-7.2,1.233-11.6-1.399c-3.133-1.934-4.917-3-5.35-3.2c-1.867-0.9-3.617-1.367-5.25-1.4
			c1.6-0.066,3.333-0.366,5.2-0.899c2.2-0.601,3.883-0.65,5.05-0.15C20.333,60.767,22.1,62.017,25.066,64.25z M58.316,77.15
			c-1.267,0.033-2.5,0.199-3.7,0.5c-1,0.267-2.367,0.767-4.1,1.5c-2,0.8-3.383,1.333-4.15,1.6c-1.3,0.4-2.684,0.684-4.15,0.85
			c-0.833,0.067-2.284,0.134-4.35,0.2c0.967-0.8,3.05-1.416,6.25-1.85c0.9-0.134,1.617-0.3,2.15-0.5c0.3-0.134,0.95-0.467,1.95-1
			c1.267-0.7,2.65-1.584,4.15-2.65c0.933-0.666,2.333-1.017,4.2-1.05c1.034,0,2.567,0.05,4.6,0.15c0.467,0,1.417-0.067,2.85-0.2
			c1.3-0.066,2.2,0.05,2.7,0.35c0.7,0.367,1.216,1.2,1.55,2.5c0.367,1.334,0.283,2.283-0.25,2.851l-1.85-0.9
			c-0.8,0.167-1.566-0.017-2.3-0.55c-0.767-0.667-1.383-1.101-1.85-1.3C61.15,77.25,59.917,77.083,58.316,77.15z M84.167,101.55
			c-1.7,0.434-3.066,0.316-4.1-0.35c0.767-0.2,1.934-0.134,3.5,0.2C83.767,101.434,83.967,101.483,84.167,101.55z"/>
		<path style="fill-rule:evenodd;clip-rule:evenodd;fill:#3B3526;" d="M164.116,61.55c0.167,1.033,0.184,2.15,0.051,3.351
			c0.066-0.867,0.083-1.634,0.05-2.301c-0.033-0.233-0.05-0.449-0.05-0.649L164.116,61.55z M162.816,57.5v-0.1
			c0.066,0.199,0.134,0.366,0.2,0.5c0.467,1.166,0.8,2.233,1,3.199C163.783,60.2,163.383,59,162.816,57.5z M161.017,51.8
			c0.033,0.367,0.083,0.717,0.15,1.05c-0.067-0.3-0.117-0.6-0.15-0.899C161.017,51.917,161.017,51.867,161.017,51.8z M164.767,71.85
			c-0.566,0.167-1.217,0.301-1.95,0.4l1.851-0.45C164.7,71.8,164.733,71.816,164.767,71.85z M176.066,78
			c-0.333-0.3-0.649-0.583-0.95-0.85c0.233,0.199,0.483,0.416,0.75,0.649C175.934,77.866,176,77.934,176.066,78z M154.066,87.75
			c0.334,0.033,0.684,0.066,1.05,0.1c0.334,0.034,0.65,0.067,0.95,0.101c-0.366-0.033-0.75-0.066-1.149-0.101
			C154.616,87.816,154.333,87.783,154.066,87.75z M71.667,73.425c-0.015-0.031-0.032-0.056-0.05-0.075l0.05,0.051V73.425z
			 M65.667,72.25c-0.433,0.033-0.9,0.066-1.4,0.1c-0.583,0.054-1.116,0.095-1.6,0.125c0.375-0.033,0.775-0.074,1.2-0.125l0.35-0.149
			l0.95,0.05C65.333,72.25,65.5,72.25,65.667,72.25z M47.066,56.95c0.2-0.033,0.417-0.066,0.65-0.101
			c2.767-0.399,6.083-0.8,9.95-1.199c2.2-0.2,5.517-0.5,9.95-0.9c1.8-0.167,4.1-0.233,6.9-0.2c4.3,0.066,6.617,0.101,6.95,0.101
			c3.533-0.034,7.966,0.017,13.3,0.149c2.967,0.066,7.4,0.167,13.3,0.3c3.566,0.067,7.983,0.25,13.25,0.551
			c2.934,0.166,7.351,0.416,13.25,0.75c2.267,0.133,5.084,0.183,8.45,0.149c0.833,0,1.85-0.017,3.05-0.05
			c-1.1,0.1-2.45,0.217-4.05,0.35l-1.45,0.101H47.066z M46.967,76.1c0.667-0.399,1.55-0.983,2.65-1.75
			c0.4-0.267,0.783-0.5,1.15-0.699c-1.6,1.066-2.917,1.916-3.95,2.55L46.967,76.1z M29.017,84.35c-0.167,0.101-0.317,0.2-0.45,0.301
			c0.333-0.4,0.7-0.817,1.1-1.25c1.9-2.167,3.333-3.634,4.3-4.4c-0.434,0.366-1.034,0.934-1.8,1.7c-0.533,0.533-1.7,1.816-3.5,3.85
			L29.017,84.35z M35.066,80.55c0.1-0.066,0.217-0.149,0.35-0.25c0.4-0.233,0.783-0.434,1.15-0.6
			C36.1,79.934,35.6,80.217,35.066,80.55z M3.267,55.75c0.001,0.034,0.018,0.067,0.05,0.1c0,0.101,0,0.25,0,0.45
			C3.284,56.036,3.267,55.853,3.267,55.75z M127.566,86.35l0.15-0.5v0.45L127.566,86.35z M156.917,81.6V80.95
			c-0.067-0.2-0.317-0.4-0.75-0.601c-0.467-0.199-1.184-0.233-2.15-0.1c-1.1,0.167-1.866,0.2-2.3,0.1l0.7,0.4l-2.551,0.1
			c-1.767,0.067-3.1,0.117-4,0.15c-1.166,0.033-2.183,0.116-3.05,0.25l-0.85-0.85c-0.066,0.066-1.233,0.3-3.5,0.699
			c-1.733,0.267-2.384,0.934-1.95,2c1.733,0.233,3.033,0.317,3.9,0.25c1.5-0.1,2.449-0.533,2.85-1.3c0.2,0.066,0.434,0.15,0.7,0.25
			c0.866,0.267,1.467,0.717,1.8,1.351c-1.267,1.166-3.217,1.716-5.85,1.649c-1.267-0.033-3.467-0.333-6.601-0.899
			c-1.1-0.733-1.366-2.034-0.8-3.9c0.467-1.533,1.333-3.066,2.6-4.6c2.667-0.301,4.65-0.45,5.95-0.45c2.167,0,4.101,0.3,5.8,0.899
			c4.167,1.534,8.084,1.834,11.75,0.9c0.2-0.066,0.434-0.134,0.7-0.2c-1.434,0.733-2,1.517-1.7,2.351
			c4.034,0.533,5.867-0.367,5.5-2.7l-0.449-0.45c-0.267-0.033-0.567-0.033-0.9,0c0.533-0.2,1.116-0.417,1.75-0.65
			c0.866,0.5,1.35,1.184,1.45,2.051c0.1,1.133-0.384,2.083-1.45,2.85c-0.866,0.634-1.917,1.033-3.15,1.2
			C159.333,81.8,158.184,81.767,156.917,81.6z M151.717,42.9c-1.134,0.033-2.384,0.067-3.75,0.1
			c-4.667,0.167-8.316,0.083-10.95-0.25c-1-0.133-2.066-0.233-3.2-0.3c1-0.633,2.267-1.434,3.8-2.4c0.967-0.5,2.301-1.333,4-2.5
			c1.5-0.833,2.967-1.066,4.4-0.7c1.033,0.267,1.75,0.8,2.15,1.6c0.433,0.933,0.133,1.716-0.9,2.35c0.566,0.1,1.3,0.117,2.2,0.05
			c0.733,0.066,1.3,0.367,1.7,0.9C151.434,42.15,151.616,42.533,151.717,42.9z M110.167,30.7c-0.034-0.3-0.034-0.633,0-1
			c0-0.067,0.017-0.15,0.05-0.25C110.15,29.917,110.133,30.333,110.167,30.7z M69.566,33.95l-0.2,0.95
			c-0.333,1.3-1.6,1.983-3.8,2.05l0.55-0.2C68.017,36.15,69.167,35.217,69.566,33.95z M68.767,30c-0.467,1.767-1.3,3.3-2.5,4.6
			c-0.9,0.967-2.033,1.517-3.4,1.65c-1.7-0.033-3.033,0-4,0.1c0,1.333,1.316,1.767,3.95,1.3c0.8,0.367,1.934,0.583,3.4,0.65
			c1.2,0.067,2.216,0.017,3.05-0.15c1-0.167,1.95-0.667,2.85-1.5c0.9-0.833,1.483-1.75,1.75-2.75c0.133-0.367,0.15-0.967,0.05-1.8
			c-0.066-0.833-0.05-1.434,0.05-1.8c0.2-0.566,0.733-1.033,1.6-1.4c1-0.433,1.633-0.867,1.9-1.3c0.433-0.767,0.517-2.15,0.25-4.15
			c-0.3-2.034-0.267-3.417,0.1-4.15c0.367-0.7,1.2-1.316,2.5-1.85c0.934-0.367,2.4-0.5,4.4-0.4c2.167,0.1,3.5,0.5,4,1.2
			c0.233,0.267,0.466,0.833,0.7,1.7c0.167,0.667,0.533,1.183,1.1,1.55c0.367,0.233,1.267,0.6,2.7,1.1c0.2,0.066,0.583,0.2,1.15,0.4
			c-1.067,0.167-1.733,0.467-2,0.9v-0.95c-0.133,1.566,0.083,2.533,0.65,2.9c0.433,0.267,1.383,0.267,2.85,0
			c0.9-0.167,2.25-0.367,4.05-0.6c0.067,0,0.15,0,0.25,0c0.733,0.467,1.05,0.933,0.95,1.4c-0.067,0.4-0.533,0.733-1.4,1
			c-0.934,0.233-1.534,0.383-1.8,0.45l-0.95,0.35l-0.15,0.1c-1.8,0.767-2.833,1.2-3.1,1.3c-1.2,0.4-2.25,0.55-3.15,0.45
			c1.667,0.7,3.983,0.867,6.95,0.5c3.6-0.433,5.917-0.6,6.95-0.5c2.267,0.267,2.983,1.967,2.149,5.1c-0.133,0.5-1,1.35-2.6,2.55
			c-0.866,0.633-0.417,1.417,1.35,2.35c0.867,0.467,1.967,0.934,3.301,1.4c0.3,0.1,0.666,0.216,1.1,0.35
			c-4.467-0.167-7.85-0.25-10.15-0.25h-9c-3.767-0.367-7.217-0.683-10.35-0.95c-13.167-1.1-25.167-1.7-36-1.8
			c0.5-2.667,1.017-4.633,1.55-5.9c0.9-2.133,2.167-3.533,3.8-4.2c0.933-0.367,1.6-0.667,2-0.9c0.533-0.367,1.083-0.867,1.65-1.5
			c0.933-1.066,1.533-1.7,1.8-1.9c0.733-0.633,1.517-0.867,2.35-0.7c0.2,0.033,0.5,0.216,0.9,0.55c0.4,0.367,0.7,0.583,0.9,0.65
			c0.233,0.067,0.5,0.117,0.8,0.15c-1.967,0.867-2.65,3.284-2.05,7.25c0.3,0.233,0.7,0.4,1.2,0.5c0.1-0.633,0.15-1.517,0.15-2.65
			c0.034-1,0.284-1.833,0.75-2.5c0.7-1.033,1.667-1.683,2.9-1.95c0.5-0.133,1.25-0.2,2.25-0.2c-0.5-0.167-0.95-0.317-1.35-0.45
			c0.533,0.067,0.95,0.15,1.25,0.25c0.133,0.067,0.25,0.133,0.35,0.2c-0.067,0-0.15,0-0.25,0c0.167,0.067,0.35,0.133,0.55,0.2
			c0.433,0.3,0.867,0.716,1.3,1.25C67.733,28,68.3,28.933,68.767,30z M53.767,28c-0.167,0.533-0.65,0.867-1.45,1
			c-1.2,0.233-1.833,0.367-1.9,0.4c-0.933,0.434-1.717,1.033-2.35,1.8c-0.767,0.933-1,1.85-0.7,2.75
			c0.566,0.167,1.05-0.05,1.45-0.65c0.2-0.367,0.5-0.9,0.9-1.6c1.1-1.233,2.3-1.85,3.6-1.85L53.767,28z M96.217,31.7
			c-1.333,0.3-2.383,0.583-3.15,0.85c-1.4,0.467-2.233,1.1-2.5,1.9c-0.433,1.333,0.117,2.183,1.65,2.55c0.6,0.133,1.833,0.2,3.7,0.2
			c2.2,0,3.75-0.067,4.65-0.2c1.867-0.267,3.267-0.85,4.2-1.75c0.634-0.567,1.083-1.383,1.35-2.45
			c0.301-1.267-0.149-1.783-1.35-1.55l-1.4-0.95c-1.167,0-2.366,0.133-3.6,0.4C99.2,30.833,98.017,31.167,96.217,31.7z M84.517,31.7
			c-1.133-0.1-2.05-0.133-2.75-0.1c-1.333,0.033-2,0.4-2,1.1c0,0.566,0.483,0.966,1.45,1.2c0.833,0.233,1.5,0.267,2,0.1
			c0.433-0.1,0.767-0.25,1-0.45c0.167-0.167,0.433-0.483,0.8-0.95L84.517,31.7z M84.917,85.35c0.033,0.034,0.083,0.084,0.15,0.15
			c0.5,0.467,1.117,0.75,1.85,0.85c0.733,0.134,1.783,0.233,3.15,0.301c1.467,0.066,2.517,0.149,3.15,0.25
			c0.2,1.199,0.017,2.033-0.55,2.5c-0.433,0.366-1.316,0.583-2.65,0.649c-2.233,0.233-3.9,0.384-5,0.45
			c-1.933,0.134-3.4-0.616-4.4-2.25c-1-1.566-1.184-3.25-0.55-5.05c0.867-0.134,2.117-0.316,3.75-0.55
			c1.233-0.367,2.034-1.25,2.4-2.65c-0.567,0.3-1.317,0.45-2.25,0.45c-1.1-0.033-1.9-0.05-2.4-0.05
			c-1.566,0.166-2.683,0.233-3.35,0.199c-1.1-0.066-1.75-0.6-1.95-1.6c-0.133-0.566-0.133-1.517,0-2.85
			c0.133-1.334,0.15-2.267,0.05-2.801l1.2,0.051c1.3,0.1,2.767,0.149,4.4,0.149c-1.1,0.101-1.917,0.434-2.45,1
			c-0.733,0.8-1.017,2.117-0.85,3.95c1.033,0.434,1.683,0.15,1.95-0.85c0.434-1.601,0.667-2.417,0.7-2.45
			c0.333-0.367,1.167-0.634,2.5-0.8c0.733-0.067,1.667-0.167,2.8-0.301c1.5-0.366,2.883-0.566,4.15-0.6h-7.1
			c1.8-0.033,3.767-0.116,5.9-0.25c6.333-0.4,10.333-0.616,12-0.65l-1.8,0.9c1.566,0,2.983,0.033,4.25,0.1l-0.601,0.851
			c-1.466-0.101-2.933,0.116-4.399,0.649c-1.9,0.667-2.9,1.684-3,3.051c-0.067,1.033,0.45,1.633,1.55,1.8
			c0.633,0.1,1.617,0.1,2.95,0c0.767,0,1.917,0,3.45,0c1.267-0.101,2.3-0.434,3.1-1c0.566-0.4,0.934-0.783,1.1-1.15
			c0.167-0.333,0.267-0.833,0.301-1.5c0.033-1.233-0.317-2.05-1.051-2.45c-0.033,0-0.133-0.017-0.3-0.05
			c0.834,0.066,1.584,0.15,2.25,0.25c0,0.101,0.283,0.934,0.851,2.5c0.3,0.9,0.116,1.717-0.551,2.45
			c-0.366,0.4-1.5,1.217-3.399,2.45c-1.334,0.833-2.134,1.899-2.4,3.2c-1.1,0.267-2.683,0.216-4.75-0.15
			c-2.233-0.366-3.867-0.483-4.9-0.35v0.3l-0.45,0.05c-0.133,0-0.5,0.2-1.1,0.6c-0.6,0.4-1.017,0.634-1.25,0.7
			c-2.367,0.533-4.083,0.267-5.15-0.8c1.2,0.1,2.083,0.083,2.65-0.05c0.967-0.233,1.667-0.834,2.1-1.8l0.45-2.75
			c-1.6,0.633-2.833,1.133-3.7,1.5c-1.467,0.633-2.083,1.517-1.85,2.649c-0.167-0.233-0.3-0.467-0.4-0.7
			c-0.567,0.334-0.817,0.684-0.75,1.051l-1.1-0.351c-0.633,0.066-1.083,0.417-1.35,1.05c-0.233,0.634-0.1,1.15,0.4,1.551
			c0.533-0.134,1.033-0.384,1.5-0.75C84.533,86.1,84.783,85.75,84.917,85.35z M138.517,76.35c-2.2,1.367-3.333,2.551-3.4,3.551
			c0.667-0.067,1.417-0.4,2.25-1c1.034-0.767,1.767-1.233,2.2-1.4c0.667-0.233,1.584-0.35,2.75-0.35c0.634,0,1.584,0.017,2.851,0.05
			l-2.301-1.4c-1-0.033-1.75-0.033-2.25,0C139.783,75.833,139.083,76.017,138.517,76.35z"/>
		<path style="fill-rule:evenodd;clip-rule:evenodd;fill:#252117;" d="M161.467,55.8c-2.8,0.134-4.617,0.217-5.45,0.25
			c-0.1,0-0.184,0-0.25,0s-0.116,0-0.15,0c-1.133,0-2.25,0.017-3.35,0.05c0.1-0.033,0.217-0.083,0.35-0.149
			c0.434-0.233,0.75-0.517,0.95-0.851c-0.533-0.399-1.017-0.566-1.45-0.5c0.167-0.233,0.467-0.616,0.9-1.149
			c0.366-0.5,0.5-0.983,0.4-1.45c-1.634-0.267-3.733-0.367-6.301-0.3c-2.899,0.133-5.033,0.2-6.399,0.2h-13.2
			c-1.533,0-3.8-0.066-6.8-0.2c-3-0.167-5.267-0.25-6.8-0.25h-25.9c-2.8,0-6.267,0.05-10.4,0.15c-4.6,0.167-8.05,0.267-10.35,0.3
			c-3.133-0.066-5.45-0.083-6.95-0.05c-2.667,0.033-4.883,0.5-6.65,1.4c-1.566,0.8-2.733,1.35-3.5,1.65
			c-1.333,0.533-2.583,0.883-3.75,1.05c-0.267,0.033-1.183,0.083-2.75,0.149c-1.066,0.034-1.967,0.217-2.7,0.551
			c-0.167,0.066-0.35,0.166-0.55,0.3h-5.15h-4.3l-1.8-0.101l-11.2-0.649l-14.85-0.95V55.2c-0.167-0.3-0.4-0.617-0.7-0.95
			c-0.066-0.1-0.133-0.184-0.2-0.25c-0.2-0.233-0.367-0.434-0.5-0.6c-0.833-1.034-1.35-2.134-1.55-3.3
			C6.3,50.533,14.5,50.5,24.767,50c12.567-0.6,20.767-0.883,24.6-0.85c18.267,0.1,39.45,0.684,63.55,1.75
			c9.066,0.367,18.949,0.55,29.649,0.55c0.601,0,3.667,0.066,9.2,0.2c3.767,0.1,6.85,0.067,9.25-0.1c0,0.1,0,0.184,0,0.25
			c0,0.067,0,0.117,0,0.15c0.033,0.3,0.083,0.6,0.15,0.899l0.1,0.301c0.1,0.566,0.25,1.1,0.45,1.6c0.467,1.1,0.833,1.983,1.1,2.65
			v0.1c-0.2-0.533-0.434-1.116-0.7-1.75L161.467,55.8z M62.842,66.9h0.225c0.133,0,0.284,0,0.45,0
			c0.633-0.034,1.25-0.051,1.85-0.051l6.15-0.149c2.167-0.066,3.883-0.101,5.15-0.101h62h25.3c-0.066,0.567-0.134,1.051-0.2,1.45
			l-0.1,0.75c-0.101,0.8-0.034,1.467,0.199,2c0.167,0.434,0.467,0.75,0.9,0.95l-0.1,0.05l-1.851,0.45
			c0.733-0.1,1.384-0.233,1.95-0.4l0.05-0.05c0.334,0.167,0.917,0.351,1.75,0.55c0.934,0.2,1.65,0.417,2.15,0.65
			c0.899,0.366,1.816,0.85,2.75,1.45c0.467,0.3,0.95,0.616,1.45,0.95l2.199,1.75c0.301,0.267,0.617,0.55,0.95,0.85l0.75,0.65
			c0.066,0.066,0.134,0.133,0.2,0.199c1.333,1.233,3.083,2.834,5.25,4.801c-0.366,0.399-1.6,0.767-3.7,1.1
			c-2.166,0.3-3.383,0.483-3.649,0.55c-2.834,0.867-4.934,1.483-6.301,1.851c-2.466,0.699-4.633,1.066-6.5,1.1
			c-0.166,0-0.333,0-0.5,0h-0.05l-5.5-0.3c-0.3-0.033-0.616-0.066-0.95-0.101c-0.366-0.033-0.716-0.066-1.05-0.1l-0.8-0.05
			c-2.2-0.233-3.9-0.367-5.1-0.4l0.6-0.45c0.2-0.166,0.384-0.449,0.55-0.85c0.066-0.2,0.384-0.384,0.95-0.55
			c0.233-0.066,0.783-0.033,1.65,0.1c0.733,0.101,1.25,0.05,1.55-0.149c0.967-0.667,1.267-1.483,0.899-2.45
			c-0.3-0.8-0.949-1.533-1.949-2.2l-0.7-0.4c0.434,0.101,1.2,0.067,2.3-0.1c0.967-0.134,1.684-0.1,2.15,0.1
			c0.433,0.2,0.683,0.4,0.75,0.601V81.6c0,0.233,0.083,0.45,0.25,0.65c0.5,0.667,1.5,1.1,3,1.3c0.166,0,1.3,0.033,3.399,0.101
			c4.4,0.066,7.434,0.033,9.101-0.101c0.366-2.2,0.25-3.684-0.351-4.45c-0.333-0.466-1-0.75-2-0.85
			c-1.066-0.134-1.75-0.316-2.05-0.55c-0.333-0.267-0.616-0.733-0.85-1.4c-0.301-0.866-0.5-1.383-0.601-1.55
			c-0.2-0.333-0.383-0.566-0.55-0.7c-1.134-0.866-3.25-1.233-6.35-1.1c-2,0.066-3.184,0.083-3.551,0.05l0.25-0.75l-0.449-0.1
			c-3.301-0.767-5.801-1.2-7.5-1.301l-2.801-0.1c-1.566,0.8-2.883,1.3-3.949,1.5c-1.101,0.2-2,0.434-2.7,0.7
			c-0.7,0.3-1.5,0.75-2.4,1.35c-0.533,0.4-1.1,0.934-1.7,1.601c-1.267,1.533-2.133,3.066-2.6,4.6c-0.566,1.866-0.3,3.167,0.8,3.9
			l0.4,0.25c1.1,0.5,2.883,0.85,5.35,1.05c2.4,0.166,4.134,0.5,5.2,1l1.25,0.649l-0.95,0.101c-1.5,0.133-3.7,0.434-6.6,0.899
			l-2.601,0.351c-0.267,0.033-0.449,0.05-0.55,0.05l-3,0.35c-0.333,0.034-0.633,0.067-0.899,0.101c-1.467,0.2-2.717,0.467-3.75,0.8
			l-0.551,0.15c-1.3,0.6-2.267,1.017-2.899,1.25c-2.834,0.933-4.934,1.6-6.3,2c-2.467,0.699-4.617,1.133-6.45,1.3
			c-0.601,0.066-4.684,0.1-12.25,0.1c-4.867,0-8.9,0.566-12.1,1.7c-2.233,0.8-3.467,1.233-3.7,1.3c-1.7,0.467-3.033,0.5-4,0.101
			c-0.3-0.134-0.85-0.65-1.65-1.551c-0.8-0.899-1.267-1.5-1.4-1.8l-0.35-1.5c-0.067-0.566-0.083-1.217-0.05-1.95
			c0.033-0.8,0.15-2.05,0.35-3.75c0.4,0.067,0.65,0.134,0.75,0.2c0.267,0.101,0.483,0.316,0.65,0.65c0.167,0.3,0.2,0.85,0.1,1.649
			c-0.066,0.667,0.067,1.2,0.4,1.601c0.667,0.833,2.1,1.2,4.3,1.1c1.167-0.066,2.75-0.149,4.75-0.25
			c0.333,0.066,0.867,0.233,1.6,0.5c0.667,0.267,1.2,0.434,1.6,0.5c1.1,0.134,2.033,0.066,2.8-0.2c0.567-0.199,1.3-0.649,2.2-1.35
			c0.466-0.333,1.367-0.75,2.7-1.25c1.033-0.566,1.383-1.3,1.05-2.2c-0.967-0.1-1.934-0.517-2.9-1.25
			c-1.066-0.8-1.617-1.666-1.65-2.6v-0.3c1.033-0.134,2.667-0.017,4.9,0.35c2.067,0.366,3.65,0.417,4.75,0.15
			c0.434-0.101,0.934-0.284,1.5-0.551c0.8-0.433,1.467-0.716,2-0.85c0.634-0.134,1.45-0.167,2.45-0.1
			c3.8,0.267,5.95,0.449,6.45,0.55c-0.2,0.5-0.9,1.133-2.101,1.899c-1.1,0.7-1.616,1.233-1.55,1.601
			c3.566,0.434,8.566,0.149,15-0.851l0.15-0.05v-0.45c0-0.066,0.217-1.3,0.649-3.699c0.267-1.634,0.217-2.834-0.149-3.601
			c-0.267-0.566-0.717-0.883-1.351-0.95c-0.8,0.034-1.433,0.051-1.899,0.051c-2.9,0.033-4.934-0.034-6.101-0.2
			c-2.399-0.367-4.199-1.217-5.399-2.55c0.467-0.4,1.666-0.483,3.6-0.25c1.134,0.133,3.033,0.383,5.7,0.75
			c5.134,0.6,7.684-0.301,7.65-2.7l-0.75-0.25c-0.7-0.2-3.051-0.767-7.051-1.7c-1.6-0.4-2.783-0.717-3.55-0.95
			c1.533,0.033,3.45-0.1,5.75-0.399c-10.333,0.333-18.066,0.483-23.2,0.449c-5.867-0.033-9.184-0.05-9.95-0.05
			c-3.833,0.033-7.15,0.2-9.95,0.5c-0.8,0.066-1.517,0.351-2.15,0.851c-1.033,0.767-1.683,1.216-1.95,1.35
			c-0.5,0.233-0.967,0.4-1.4,0.5l-1.15,0.25c-0.7,0.1-1.833,0.15-3.4,0.15l-0.05-0.051c-0.267-0.333-0.55-0.6-0.85-0.8
			c-0.4-0.233-0.683-0.35-0.85-0.35c-0.3,0.033-0.667,0.033-1.1,0c-0.667-0.033-1.483-0.033-2.45,0l-0.7,0.05
			c-0.167,0-0.333,0-0.5,0l-0.95-0.05l-0.35,0.149c-0.425,0.051-0.825,0.092-1.2,0.125l-7.65,0.125c-1-0.033-1.967,0.117-2.9,0.45
			c-2.3,0-3.767,0.267-4.4,0.8c-0.6,0.534-0.85,1.284-0.75,2.25l-0.15,0.101c-1.367,0.934-2.5,1.649-3.4,2.149
			c-1.7,0.967-2.967,1.317-3.8,1.051c0-0.301-0.067-0.534-0.2-0.7l-2.85,1c-0.367,0.166-0.75,0.366-1.15,0.6
			c-0.133,0.101-0.25,0.184-0.35,0.25c-2.4,1.634-4.183,2.767-5.35,3.4h-0.05c-0.233,0.133-0.45,0.267-0.65,0.399l-0.35,0.2
			c1.8-2.033,2.967-3.316,3.5-3.85c0.767-0.767,1.367-1.334,1.8-1.7c1.4-1.066,2.216-1.767,2.45-2.1
			c0.434-0.667,0.533-1.767,0.3-3.301c-0.167-1.166-0.483-2.449-0.95-3.85c-0.3-0.866-0.6-1.616-0.9-2.25
			c1.833,0.066,3.2,0.083,4.1,0.05c0.633-0.033,2.816-0.133,6.55-0.3c2.6-0.134,4.767-0.2,6.5-0.2l10.15-0.1
			C62.383,66.923,62.608,66.906,62.842,66.9z M3.267,55.7l0.05,0.149c-0.032-0.032-0.049-0.065-0.05-0.1V55.7z M3.566,58.65
			c0.03,0.06,0.072,0.118,0.125,0.175L3.566,58.7V58.65z M3.267,57.4v0.25c0,0.199,0.017,0.383,0.05,0.55l-0.05-0.15
			C3.233,57.95,3.233,57.733,3.267,57.4z M128.116,42.25c-1.233,0-3.699,0.017-7.399,0.05c-2.101,0-5.15-0.066-9.15-0.2
			c-0.066-0.067-0.133-0.133-0.2-0.2c-0.466-0.566-0.083-1.066,1.15-1.5c0.167-0.066,2.15,0.017,5.95,0.25
			c2.833,0.133,4.25-0.55,4.25-2.05c0-1.2-1.584-1.95-4.75-2.25c-3.434-0.333-5.434-1.117-6-2.35l-0.2-0.8
			c0.066,0.033,0.134,0.083,0.2,0.15l1.3,0.65c0.833,0.333,1.866,0.683,3.1,1.05l1.851,0.45c0.533,0.1,1.116,0.217,1.75,0.35
			c3.399,0.7,6.767,0.45,10.1-0.75c2.566-0.9,5.601-2.617,9.101-5.15c0.633-0.467,1.649-1.05,3.05-1.75
			c1.399-0.733,2.416-1.317,3.05-1.75c1.3-0.867,2.35-1.383,3.15-1.55c1.267-0.233,2.633-0.383,4.1-0.45
			c1.967-0.1,3.217,0.05,3.75,0.45c0.6,0.434,1,1.184,1.2,2.25c0.066,0.4,0.116,1.283,0.149,2.65c0,0.434-0.066,2-0.199,4.7
			c-0.101,1.933-0.051,3.483,0.149,4.65c0.167,0.867,0.634,2.117,1.4,3.75l0.05,0.05c-0.967-0.067-2.267-0.1-3.9-0.1h-0.25h-0.05
			c-0.066,0-0.133,0-0.2,0c-0.366-0.667-0.883-1.05-1.55-1.15c0.134-0.333,0.667-0.817,1.601-1.45c0.666-0.467,0.85-1.15,0.55-2.05
			c-0.533,0.033-1.267-0.034-2.2-0.2c-1.033-0.2-1.783-0.333-2.25-0.4c0.267-4.167-2.066-6.083-7-5.75
			c-4.6,0.267-7.967,1.733-10.1,4.4c-0.534,0.667-0.934,1.133-1.2,1.4c-0.167,0.133-0.684,0.483-1.55,1.05
			c-0.801,0.533-1.4,1.017-1.801,1.45C128.95,40.35,128.616,41.05,128.116,42.25z M160.967,50.75c-0.066-0.633-0.134-1.433-0.2-2.4
			h0.05l0.05,0.9C160.9,49.85,160.934,50.35,160.967,50.75z M38.217,41.65c-1.2-0.066-2.45-0.133-3.75-0.2
			c-0.733,0.033-1.417,0.066-2.05,0.1V41.5l-2.15,0.05c0.033-0.066,0.083-0.133,0.15-0.2c0.333-0.633,0.75-1.483,1.25-2.55
			c0.667-1.5,1.3-2.65,1.9-3.45c0.367-0.467,0.95-1.017,1.75-1.65c1-0.733,1.633-1.233,1.9-1.5c0.933-0.867,2.533-2.667,4.8-5.4
			c0.967-1.1,2.383-2.867,4.25-5.3c1.733-1.967,3.517-3.2,5.35-3.7c2.367-0.633,3.683-1.017,3.95-1.15c1.233-0.5,2.3-1.3,3.2-2.4
			c1.8-2.1,3.067-3.667,3.8-4.7c1.267-1.867,2.184-3.667,2.75-5.4c1,0,2.983-0.117,5.95-0.35c2.467-0.2,4.45-0.25,5.95-0.15
			c3.8,0.3,8.383,1.4,13.75,3.3c0,1.733,0.216,3.566,0.65,5.5c0.533,2.267,1.217,3.933,2.05,5c0.833,1.033,2.35,1.983,4.55,2.85
			c1.233,0.467,2.95,1.067,5.149,1.8c0.667,0.267,1.867,0.7,3.601,1.3c1.533,0.667,2.517,1.45,2.95,2.35l0.05,0.1
			c0.233,0.467,0.35,1.066,0.35,1.8c-0.033,0.333-0.05,0.65-0.05,0.95c-0.033,0.133-0.05,0.283-0.05,0.45c0,0.133,0,0.267,0,0.4
			c-0.033,0.1-0.05,0.183-0.05,0.25c-0.767-0.467-1.584-0.917-2.45-1.35c-1.033-0.5-1.717-0.733-2.05-0.7c-0.367,0-0.7,0.184-1,0.55
			c-0.367,0.4-0.634,0.617-0.801,0.65c-0.333,0.133-0.8,0.183-1.399,0.15c-0.633-0.033-1.1-0.05-1.4-0.05
			c-0.966,0.066-1.7,0.083-2.2,0.05c-0.867,0-1.55-0.15-2.05-0.45l0.15-0.1c1.367,0.066,2.3,0.083,2.8,0.05
			c1.133-0.1,1.967-0.417,2.5-0.95c0.8-0.833,1.033-1.65,0.7-2.45c-0.3-0.667-0.934-1.267-1.9-1.8c-0.7-0.367-1.883-0.783-3.55-1.25
			c-1.567-0.4-2.717-0.833-3.45-1.3c-0.667-0.4-1.117-0.95-1.35-1.65c-0.367-1-0.667-1.667-0.9-2
			c-0.333-0.434-0.783-0.684-1.35-0.75c-0.8-0.133-1.284-0.25-1.45-0.35c-0.533-0.3-0.967-0.7-1.3-1.2c-0.367-0.633-0.7-1.133-1-1.5
			c-1.067-1.4-3.034-2.167-5.9-2.3c-3.566-0.067-5.8,0-6.7,0.2c-2.333,0.533-3.617,1.966-3.85,4.3c0.1,1.4,0.167,2.45,0.2,3.15
			c0.033,1.3-0.317,2.133-1.05,2.5c-0.767,0.4-1.55,0.333-2.35-0.2c-0.8-0.667-1.4-1.083-1.8-1.25
			c-0.467-0.167-1.033-0.117-1.7,0.15c-0.667,0.367-1.183,0.6-1.55,0.7c-0.533,0.167-1.383,0.333-2.55,0.5
			c-1.133,0.167-1.983,0.35-2.55,0.55c-0.467,0.167-1.583,0.667-3.35,1.5c-1.4,0.667-2.583,1.083-3.55,1.25
			c-1.367,0.233-2.517,0.816-3.45,1.75c-0.066,0.066-0.983,1.183-2.75,3.35c-0.466,0.566-0.933,1.316-1.4,2.25
			c-0.733,1.466-1.117,2.233-1.15,2.3c-0.6,1.333-1.067,2.25-1.4,2.75c-0.133,0.233-0.434,0.533-0.9,0.9
			c-0.467,0.367-0.75,0.633-0.85,0.8L37.867,39c-0.2,0.7-0.15,1.433,0.15,2.2C38.083,41.367,38.15,41.517,38.217,41.65z M68.767,30
			c0.4-1.333,0.6-2.767,0.6-4.3l0.45,3.25c0.034,1.3,0.05,2.233,0.05,2.8c0,0.933-0.1,1.667-0.3,2.2c-0.4,1.267-1.55,2.2-3.45,2.8
			l-0.55,0.2c-1.233,0.367-2.15,0.6-2.75,0.7c-2.633,0.467-3.95,0.033-3.95-1.3c0.967-0.1,2.3-0.133,4-0.1
			c1.367-0.133,2.5-0.683,3.4-1.65C67.467,33.3,68.3,31.767,68.767,30z M26.816,44.1l1.05-0.4c-0.3,0.133-0.6,0.25-0.9,0.35
			C26.933,44.083,26.883,44.1,26.816,44.1z M24.767,45.1c0.133-0.1,0.3-0.184,0.5-0.25c-0.133,0.066-0.267,0.133-0.4,0.2l-0.05,0.05
			H24.767z M14.767,48.35l2-0.2l-1.6,0.2C15.033,48.35,14.9,48.35,14.767,48.35z"/>
		<path style="fill-rule:evenodd;clip-rule:evenodd;fill:#33332F;" d="M162.816,57.5c0.566,1.5,0.967,2.7,1.2,3.6l0.1,0.45
			l0.051,0.4c0,0.2,0.017,0.416,0.05,0.649c0.033,0.667,0.017,1.434-0.05,2.301c-0.034,0-0.034,0.017,0,0.05
			c-0.034,0.1-0.051,0.217-0.051,0.35c-0.033,0.4-0.083,0.834-0.149,1.3h-25.3c2.033-0.066,4.8-0.3,8.3-0.699
			c4-0.434,7.083-0.65,9.25-0.65c1.5,0,2.483-0.05,2.95-0.15c0.933-0.233,1.683-0.8,2.25-1.699c0.566-0.9,0.85-1.967,0.85-3.2
			c-0.033-1.101-0.283-2.134-0.75-3.101l-0.75-1.25l0.7-0.05l0.649-0.05C162.383,56.384,162.616,56.967,162.816,57.5z M3.267,55.7
			c-0.033-0.134-0.067-0.25-0.1-0.351c-0.033-0.033-0.05-0.066-0.05-0.1l14.85,0.95l5.8,0.45c0.4,0.466,0.7,0.767,0.9,0.899
			c0.434,0.267,1.133,0.483,2.1,0.65c0.833,0.3,1.833,0.833,3,1.6c0.667,0.434,1.617,1.05,2.85,1.851
			c0.367,0.233,1.017,0.8,1.95,1.699c0.8,0.733,1.5,1.217,2.1,1.45c0.733,0.267,1.717,0.417,2.95,0.45h3
			c0.7,0.033,1.633,0.184,2.8,0.45c1.3,0.267,2.233,0.434,2.8,0.5c0.566,0.033,1.167,0.083,1.8,0.149c0.1,0,0.233,0,0.4,0
			l11.75,0.551c0.217,0,0.442,0,0.675,0c-0.233,0.006-0.458,0.022-0.675,0.05l-10.15,0.1c-1.733,0-3.9,0.066-6.5,0.2
			c-3.733,0.167-5.917,0.267-6.55,0.3c-0.9,0.033-2.267,0.017-4.1-0.05l-0.8-1.35c-0.2-0.267-0.583-0.551-1.15-0.851
			c-0.066-0.033-0.133-0.066-0.2-0.1c-0.2-0.066-0.367-0.134-0.5-0.2l-0.1-0.05c-0.367-0.167-0.617-0.3-0.75-0.4
			c-2.167-1.166-4.25-2.35-6.25-3.55l-2.25-1.4c-0.333-0.199-0.934-0.666-1.8-1.399c-0.733-0.634-1.316-1.05-1.75-1.25
			c-0.733-0.367-1.867-0.4-3.4-0.101c-1.233,0.233-2.333,0.567-3.3,1l-2.35,1.051c-1.7,0.6-3.133,0.866-4.3,0.8l-1.6-0.4
			c-0.033-0.033-0.083-0.066-0.15-0.1c-0.1-0.066-0.2-0.134-0.3-0.2c-0.066-0.066-0.133-0.116-0.2-0.15l-0.025-0.024
			c-0.053-0.057-0.095-0.115-0.125-0.175c-0.033-0.067-0.066-0.101-0.1-0.101V58.5c-0.034-0.066-0.067-0.116-0.1-0.15V58.3
			l-0.05-0.1c-0.033-0.167-0.05-0.351-0.05-0.55V57.4l0.05-1.101c0-0.2,0-0.35,0-0.45L3.267,55.7z"/>
		<path style="fill-rule:evenodd;clip-rule:evenodd;fill:#312C1F;" d="M47.066,56.95h-6.65c0.2-0.134,0.383-0.233,0.55-0.3
			c0.733-0.334,1.633-0.517,2.7-0.551c1.567-0.066,2.483-0.116,2.75-0.149c1.167-0.167,2.417-0.517,3.75-1.05
			c0.767-0.301,1.934-0.851,3.5-1.65c1.767-0.9,3.983-1.367,6.65-1.4c1.5-0.033,3.817-0.017,6.95,0.05
			c2.3-0.033,5.75-0.133,10.35-0.3c4.133-0.1,7.6-0.15,10.4-0.15h25.9c1.533,0,3.8,0.083,6.8,0.25c3,0.133,5.267,0.2,6.8,0.2h13.2
			c1.366,0,3.5-0.066,6.399-0.2c2.567-0.067,4.667,0.033,6.301,0.3c0.1,0.467-0.034,0.95-0.4,1.45
			c-0.434,0.533-0.733,0.916-0.9,1.149c0.434-0.066,0.917,0.101,1.45,0.5c-0.2,0.334-0.517,0.617-0.95,0.851
			c-0.133,0.066-0.25,0.116-0.35,0.149c-0.667,0.034-1.333,0.067-2,0.101c-0.467,0.033-0.95,0.066-1.45,0.1
			c-0.6,0.033-1.517,0.101-2.75,0.2c-1.2,0.033-2.217,0.05-3.05,0.05c-3.366,0.033-6.184-0.017-8.45-0.149
			c-5.899-0.334-10.316-0.584-13.25-0.75c-5.267-0.301-9.684-0.483-13.25-0.551c-5.9-0.133-10.333-0.233-13.3-0.3
			c-5.333-0.133-9.767-0.184-13.3-0.149c-0.333,0-2.65-0.034-6.95-0.101c-2.8-0.033-5.1,0.033-6.9,0.2c-4.434,0.4-7.75,0.7-9.95,0.9
			c-3.867,0.399-7.183,0.8-9.95,1.199C47.483,56.884,47.267,56.917,47.066,56.95z M71.667,73.425V73.4c1.567,0,2.7-0.051,3.4-0.15
			l1.15-0.25c0.433-0.1,0.9-0.267,1.4-0.5c0.267-0.134,0.917-0.583,1.95-1.35c0.633-0.5,1.35-0.784,2.15-0.851
			c2.8-0.3,6.117-0.467,9.95-0.5c0.767,0,4.083,0.017,9.95,0.05c5.133,0.034,12.867-0.116,23.2-0.449
			c-2.3,0.3-4.217,0.433-5.75,0.399c0.767,0.233,1.95,0.55,3.55,0.95c4,0.934,6.351,1.5,7.051,1.7l0.75,0.25
			c0.033,2.399-2.517,3.3-7.65,2.7c-2.667-0.367-4.566-0.617-5.7-0.75c-1.934-0.233-3.133-0.15-3.6,0.25
			c1.2,1.333,3,2.183,5.399,2.55c1.167,0.166,3.2,0.233,6.101,0.2c0.467,0,1.1-0.017,1.899-0.051
			c0.634,0.067,1.084,0.384,1.351,0.95c0.366,0.767,0.416,1.967,0.149,3.601c-0.433,2.399-0.649,3.633-0.649,3.699l-0.15,0.5
			c-6.434,1-11.434,1.284-15,0.851c-0.066-0.367,0.45-0.9,1.55-1.601c1.2-0.767,1.9-1.399,2.101-1.899
			c-0.5-0.101-2.65-0.283-6.45-0.55c-1-0.067-1.816-0.034-2.45,0.1c-0.533,0.134-1.2,0.417-2,0.85
			c-0.566,0.267-1.066,0.45-1.5,0.551c0.267-1.301,1.066-2.367,2.4-3.2c1.899-1.233,3.033-2.05,3.399-2.45
			c0.667-0.733,0.851-1.55,0.551-2.45c-0.567-1.566-0.851-2.399-0.851-2.5c-0.666-0.1-1.416-0.184-2.25-0.25
			c-0.434-0.133-1.35-0.383-2.75-0.75l-0.35,0.55c-1.267-0.066-2.684-0.1-4.25-0.1l1.8-0.9c-1.667,0.034-5.667,0.25-12,0.65
			c-2.133,0.134-4.1,0.217-5.9,0.25c-0.6,0-1.167,0.017-1.7,0.05c-1.633,0-3.1-0.05-4.4-0.149l-1.2-0.051
			c0.1,0.534,0.083,1.467-0.05,2.801c-0.133,1.333-0.133,2.283,0,2.85c0.2,1,0.85,1.533,1.95,1.6
			c0.667,0.034,1.783-0.033,3.35-0.199c0.5,0,1.3,0.017,2.4,0.05c0.933,0,1.683-0.15,2.25-0.45c-0.367,1.4-1.167,2.283-2.4,2.65
			c-1.633,0.233-2.883,0.416-3.75,0.55c-0.633,1.8-0.45,3.483,0.55,5.05c1,1.634,2.467,2.384,4.4,2.25c1.1-0.066,2.767-0.217,5-0.45
			c1.333-0.066,2.217-0.283,2.65-0.649c0.567-0.467,0.75-1.301,0.55-2.5c-0.633-0.101-1.684-0.184-3.15-0.25
			c-1.367-0.067-2.417-0.167-3.15-0.301c-0.733-0.1-1.35-0.383-1.85-0.85c-0.066-0.066-0.117-0.116-0.15-0.15
			c0.033-0.1,0.067-0.216,0.1-0.35l-0.3-0.1c-0.067-0.367,0.183-0.717,0.75-1.051c0.1,0.233,0.233,0.467,0.4,0.7
			c0.033,0.134,0.066,0.267,0.1,0.4c0.1,0,0.183,0.017,0.25,0.05c1.066,1.066,2.783,1.333,5.15,0.8c0.233-0.066,0.65-0.3,1.25-0.7
			c0.6-0.399,0.967-0.6,1.1-0.6l0.45-0.05c0.033,0.934,0.583,1.8,1.65,2.6c0.967,0.733,1.934,1.15,2.9,1.25
			c0.333,0.9-0.017,1.634-1.05,2.2c-1.333,0.5-2.233,0.917-2.7,1.25c-0.9,0.7-1.633,1.15-2.2,1.35c-0.767,0.267-1.7,0.334-2.8,0.2
			c-0.4-0.066-0.934-0.233-1.6-0.5c-0.733-0.267-1.267-0.434-1.6-0.5c-2,0.101-3.583,0.184-4.75,0.25
			c-2.2,0.101-3.633-0.267-4.3-1.1c-0.333-0.4-0.467-0.934-0.4-1.601c0.1-0.8,0.067-1.35-0.1-1.649
			c-0.167-0.334-0.383-0.55-0.65-0.65c-0.1-0.066-0.35-0.133-0.75-0.2c0-0.066,0.017-0.133,0.05-0.199c0.033-0.7,0.033-1.284,0-1.75
			c0-0.267-0.017-0.483-0.05-0.65c-0.1-0.634-0.283-1.167-0.55-1.6c-0.367-0.467-0.683-0.9-0.95-1.301l-0.05-0.05
			c-0.4-0.7-0.8-2.083-1.2-4.149c-0.3-1.634-0.65-2.867-1.05-3.7c-0.1-0.167-0.2-0.316-0.3-0.45
			C71.7,73.468,71.684,73.442,71.667,73.425z M142.816,81.25c0.867-0.134,1.884-0.217,3.05-0.25c0.9-0.033,2.233-0.083,4-0.15
			l2.551-0.1c1,0.667,1.649,1.4,1.949,2.2c0.367,0.967,0.067,1.783-0.899,2.45c-0.3,0.199-0.816,0.25-1.55,0.149
			c-0.867-0.133-1.417-0.166-1.65-0.1c-0.566,0.166-0.884,0.35-0.95,0.55c-0.166,0.4-0.35,0.684-0.55,0.85l-0.6,0.45h-0.4
			c-0.667,0-1.417,0.017-2.25,0.05l-1.25-0.649c-1.066-0.5-2.8-0.834-5.2-1c-2.467-0.2-4.25-0.55-5.35-1.05l-0.4-0.25
			c3.134,0.566,5.334,0.866,6.601,0.899c2.633,0.066,4.583-0.483,5.85-1.649c-0.333-0.634-0.934-1.084-1.8-1.351
			c-0.267-0.1-0.5-0.184-0.7-0.25c0.033-0.066,0.066-0.149,0.1-0.25L142.816,81.25z M50.767,73.65
			c-0.367,0.199-0.75,0.433-1.15,0.699c-1.1,0.767-1.983,1.351-2.65,1.75c-0.1-0.966,0.15-1.716,0.75-2.25
			c0.633-0.533,2.1-0.8,4.4-0.8C51.65,73.217,51.2,73.417,50.767,73.65z M156.917,81.6c1.267,0.167,2.416,0.2,3.449,0.101
			c1.233-0.167,2.284-0.566,3.15-1.2c1.066-0.767,1.55-1.717,1.45-2.85c-0.101-0.867-0.584-1.551-1.45-2.051
			c-0.634,0.233-1.217,0.45-1.75,0.65c-0.967,0.333-1.783,0.6-2.45,0.8c-0.267,0.066-0.5,0.134-0.7,0.2
			c-3.666,0.934-7.583,0.634-11.75-0.9c-1.699-0.6-3.633-0.899-5.8-0.899c-1.3,0-3.283,0.149-5.95,0.45
			c0.601-0.667,1.167-1.2,1.7-1.601c0.9-0.6,1.7-1.05,2.4-1.35c0.7-0.267,1.6-0.5,2.7-0.7c1.066-0.2,2.383-0.7,3.949-1.5l2.801,0.1
			c1.699,0.101,4.199,0.534,7.5,1.301l0.449,0.1l-0.25,0.75c0.367,0.033,1.551,0.017,3.551-0.05c3.1-0.134,5.216,0.233,6.35,1.1
			c0.167,0.134,0.35,0.367,0.55,0.7c0.101,0.167,0.3,0.684,0.601,1.55c0.233,0.667,0.517,1.134,0.85,1.4
			c0.3,0.233,0.983,0.416,2.05,0.55c1,0.1,1.667,0.384,2,0.85c0.601,0.767,0.717,2.25,0.351,4.45
			c-1.667,0.134-4.7,0.167-9.101,0.101c-2.1-0.067-3.233-0.101-3.399-0.101c-1.5-0.2-2.5-0.633-3-1.3
			C157,82.05,156.917,81.833,156.917,81.6z M128.116,42.25c0.5-1.2,0.834-1.9,1-2.1c0.4-0.433,1-0.917,1.801-1.45
			c0.866-0.567,1.383-0.917,1.55-1.05c0.267-0.267,0.666-0.733,1.2-1.4c2.133-2.667,5.5-4.133,10.1-4.4
			c4.934-0.333,7.267,1.583,7,5.75c0.467,0.066,1.217,0.2,2.25,0.4c0.934,0.167,1.667,0.233,2.2,0.2c0.3,0.9,0.116,1.583-0.55,2.05
			c-0.934,0.633-1.467,1.117-1.601,1.45c0.667,0.1,1.184,0.483,1.55,1.15c-0.866,0-1.833,0.017-2.899,0.05
			c-0.101-0.367-0.283-0.75-0.55-1.15c-0.4-0.533-0.967-0.833-1.7-0.9c-0.9,0.066-1.634,0.05-2.2-0.05
			c1.033-0.633,1.333-1.417,0.9-2.35c-0.4-0.8-1.117-1.333-2.15-1.6c-1.434-0.367-2.9-0.133-4.4,0.7c-1.699,1.167-3.033,2-4,2.5
			c-1.533,0.967-2.8,1.767-3.8,2.4c-1.5-0.1-3.133-0.167-4.899-0.2C128.783,42.25,128.517,42.25,128.116,42.25z M160.816,48.35
			h-0.05c0-0.167,0-0.35,0-0.55L160.816,48.35z M110.167,29.7c-0.034,0.367-0.034,0.7,0,1l0.05,0.3l0.35,1
			c0.033,0.067,0.066,0.133,0.101,0.2c0.033,0.033,0.066,0.083,0.1,0.15c0.033,0.033,0.066,0.066,0.1,0.1
			c0.167,0.167,0.384,0.35,0.65,0.55c0.066,0.067,0.15,0.133,0.25,0.2l0.2,0.8c0.566,1.233,2.566,2.017,6,2.35
			c3.166,0.3,4.75,1.05,4.75,2.25c0,1.5-1.417,2.183-4.25,2.05c-3.8-0.233-5.783-0.316-5.95-0.25c-1.233,0.434-1.616,0.934-1.15,1.5
			c0.067,0.067,0.134,0.133,0.2,0.2c-0.467,0-0.934-0.017-1.399-0.05c-0.134,0-0.267,0-0.4,0c-0.434-0.133-0.8-0.25-1.1-0.35
			c-1.334-0.467-2.434-0.934-3.301-1.4c-1.767-0.933-2.216-1.716-1.35-2.35c1.6-1.2,2.467-2.05,2.6-2.55
			c0.834-3.133,0.117-4.833-2.149-5.1c-1.033-0.1-3.35,0.067-6.95,0.5c-2.967,0.367-5.283,0.2-6.95-0.5c0.9,0.1,1.95-0.05,3.15-0.45
			c0.267-0.1,1.3-0.533,3.1-1.3c0.5,0.3,1.184,0.45,2.05,0.45c0.5,0.033,1.233,0.017,2.2-0.05c0.3,0,0.767,0.017,1.4,0.05
			c0.6,0.033,1.066-0.017,1.399-0.15c0.167-0.033,0.434-0.25,0.801-0.65c0.3-0.367,0.633-0.55,1-0.55
			c0.333-0.033,1.017,0.2,2.05,0.7C108.583,28.783,109.4,29.233,110.167,29.7z M96.967,28.45l0.95-0.35
			c0.267-0.067,0.867-0.217,1.8-0.45c0.867-0.267,1.333-0.6,1.4-1c0.1-0.467-0.217-0.933-0.95-1.4c0.333-0.067,0.75-0.1,1.25-0.1
			c0.367-0.066,0.45-0.383,0.25-0.95c-0.333-1-1.883-1.467-4.65-1.4c-1.067,0-1.95,0.067-2.65,0.2c-0.567-0.2-0.95-0.333-1.15-0.4
			c-1.434-0.5-2.333-0.867-2.7-1.1c-0.567-0.367-0.933-0.883-1.1-1.55c-0.233-0.867-0.467-1.434-0.7-1.7c-0.5-0.7-1.833-1.1-4-1.2
			c-2-0.1-3.467,0.034-4.4,0.4c-1.3,0.533-2.133,1.15-2.5,1.85c-0.367,0.733-0.4,2.117-0.1,4.15c0.267,2,0.183,3.383-0.25,4.15
			c-0.267,0.433-0.9,0.867-1.9,1.3c-0.867,0.367-1.4,0.833-1.6,1.4c-0.1,0.367-0.117,0.967-0.05,1.8c0.1,0.833,0.083,1.433-0.05,1.8
			c-0.267,1-0.85,1.917-1.75,2.75c-0.9,0.833-1.85,1.333-2.85,1.5c-0.833,0.167-1.85,0.217-3.05,0.15
			c-1.467-0.066-2.6-0.283-3.4-0.65c0.6-0.1,1.517-0.333,2.75-0.7c2.2-0.067,3.467-0.75,3.8-2.05l0.2-0.95
			c0.2-0.534,0.3-1.267,0.3-2.2c0-0.567-0.017-1.5-0.05-2.8l-0.45-3.25c0,1.533-0.2,2.966-0.6,4.3c-0.467-1.067-1.033-2-1.7-2.8
			c-0.433-0.534-0.867-0.95-1.3-1.25c0.267,0.066,0.55,0.15,0.85,0.25v-0.5c-0.4,0-0.783,0.017-1.15,0.05
			c-0.1-0.067-0.217-0.133-0.35-0.2c-0.3-0.1-0.717-0.183-1.25-0.25c-0.133-0.033-0.25-0.066-0.35-0.1
			c-1.333-0.3-2.45-0.284-3.35,0.05c-0.033,0.033-0.083,0.05-0.15,0.05c-0.3-0.033-0.567-0.083-0.8-0.15
			c-0.2-0.066-0.5-0.283-0.9-0.65c-0.4-0.333-0.7-0.517-0.9-0.55c-0.833-0.167-1.617,0.066-2.35,0.7c-0.267,0.2-0.867,0.833-1.8,1.9
			c-0.567,0.633-1.117,1.133-1.65,1.5c-0.4,0.233-1.067,0.534-2,0.9c-1.633,0.667-2.9,2.066-3.8,4.2
			c-0.533,1.267-1.05,3.233-1.55,5.9c10.833,0.1,22.833,0.7,36,1.8c3.133,0.267,6.583,0.583,10.35,0.95h-45
			c-2.133,0-4.6-0.05-7.4-0.15c-0.067-0.133-0.133-0.283-0.2-0.45c-0.3-0.767-0.35-1.5-0.15-2.2l0.25-0.55
			c0.1-0.167,0.383-0.434,0.85-0.8c0.466-0.367,0.767-0.667,0.9-0.9c0.333-0.5,0.8-1.417,1.4-2.75c0.033-0.067,0.417-0.833,1.15-2.3
			c0.467-0.934,0.934-1.684,1.4-2.25c1.767-2.167,2.684-3.284,2.75-3.35c0.934-0.934,2.083-1.517,3.45-1.75
			c0.967-0.167,2.15-0.583,3.55-1.25c1.767-0.833,2.883-1.333,3.35-1.5c0.567-0.2,1.417-0.383,2.55-0.55
			c1.167-0.167,2.017-0.333,2.55-0.5c0.367-0.1,0.883-0.333,1.55-0.7c0.667-0.267,1.233-0.317,1.7-0.15c0.4,0.167,1,0.583,1.8,1.25
			c0.8,0.533,1.583,0.6,2.35,0.2c0.733-0.367,1.083-1.2,1.05-2.5c-0.034-0.7-0.1-1.75-0.2-3.15c0.233-2.333,1.517-3.767,3.85-4.3
			c0.9-0.2,3.133-0.267,6.7-0.2c2.867,0.133,4.833,0.9,5.9,2.3c0.3,0.367,0.633,0.867,1,1.5c0.333,0.5,0.767,0.9,1.3,1.2
			c0.167,0.1,0.65,0.217,1.45,0.35c0.566,0.066,1.017,0.316,1.35,0.75c0.233,0.333,0.534,1,0.9,2c0.233,0.7,0.683,1.25,1.35,1.65
			c0.733,0.467,1.883,0.9,3.45,1.3c1.667,0.467,2.85,0.883,3.55,1.25c0.967,0.534,1.6,1.133,1.9,1.8c0.333,0.8,0.1,1.617-0.7,2.45
			c-0.533,0.534-1.367,0.85-2.5,0.95C99.267,28.533,98.333,28.517,96.967,28.45z M24.767,45.15c-0.08,0.04-0.171,0.098-0.275,0.175
			l0.275-0.225V45.15z"/>
		<path style="fill-rule:evenodd;clip-rule:evenodd;fill:#4C4531;" d="M161.767,76.25c0.333-0.033,0.634-0.033,0.9,0l0.449,0.45
			c0.367,2.333-1.466,3.233-5.5,2.7c-0.3-0.834,0.267-1.617,1.7-2.351C159.983,76.85,160.8,76.583,161.767,76.25z M53.767,28
			l-0.45,1.85c-1.3,0-2.5,0.617-3.6,1.85c-0.4,0.7-0.7,1.233-0.9,1.6c-0.4,0.6-0.883,0.817-1.45,0.65c-0.3-0.9-0.067-1.817,0.7-2.75
			c0.633-0.767,1.417-1.367,2.35-1.8c0.067-0.033,0.7-0.167,1.9-0.4C53.117,28.867,53.6,28.533,53.767,28z M63.867,25.3
			c0.4,0.133,0.85,0.284,1.35,0.45c-1,0-1.75,0.067-2.25,0.2c-1.233,0.267-2.2,0.917-2.9,1.95c-0.466,0.667-0.716,1.5-0.75,2.5
			c0,1.133-0.05,2.017-0.15,2.65c-0.5-0.1-0.9-0.267-1.2-0.5c-0.6-3.966,0.083-6.383,2.05-7.25c0.067,0,0.117-0.017,0.15-0.05
			c0.9-0.333,2.017-0.35,3.35-0.05C63.617,25.233,63.733,25.267,63.867,25.3z M65.767,25.95c-0.2-0.067-0.383-0.133-0.55-0.2
			c0.1,0,0.183,0,0.25,0c0.367-0.033,0.75-0.05,1.15-0.05v0.5C66.316,26.1,66.033,26.017,65.767,25.95z M100.167,25.25
			c-0.1,0-0.183,0-0.25,0c-1.8,0.233-3.15,0.433-4.05,0.6c-1.467,0.267-2.417,0.267-2.85,0c-0.567-0.367-0.783-1.333-0.65-2.9v0.95
			c0.267-0.433,0.933-0.733,2-0.9c0.7-0.133,1.583-0.2,2.65-0.2c2.767-0.066,4.317,0.4,4.65,1.4c0.2,0.566,0.117,0.883-0.25,0.95
			C100.917,25.15,100.5,25.183,100.167,25.25z M96.217,31.7c1.8-0.534,2.983-0.867,3.55-1c1.233-0.267,2.433-0.4,3.6-0.4l1.4,0.95
			c1.2-0.233,1.65,0.283,1.35,1.55c-0.267,1.067-0.716,1.883-1.35,2.45c-0.934,0.9-2.333,1.483-4.2,1.75
			c-0.9,0.133-2.45,0.2-4.65,0.2c-1.867,0-3.1-0.067-3.7-0.2c-1.534-0.367-2.083-1.217-1.65-2.55c0.267-0.8,1.1-1.434,2.5-1.9
			C93.833,32.283,94.883,32,96.217,31.7z M84.517,31.7l0.5,0.9c-0.367,0.467-0.633,0.783-0.8,0.95c-0.233,0.2-0.567,0.35-1,0.45
			c-0.5,0.167-1.167,0.133-2-0.1c-0.967-0.233-1.45-0.633-1.45-1.2c0-0.7,0.667-1.067,2-1.1C82.467,31.567,83.383,31.6,84.517,31.7z
			 M107.066,73.8c0.167,0.033,0.267,0.05,0.3,0.05c0.733,0.4,1.084,1.217,1.051,2.45c-0.034,0.667-0.134,1.167-0.301,1.5
			c-0.166,0.367-0.533,0.75-1.1,1.15c-0.8,0.566-1.833,0.899-3.1,1c-1.534,0-2.684,0-3.45,0c-1.333,0.1-2.317,0.1-2.95,0
			c-1.1-0.167-1.617-0.767-1.55-1.8c0.1-1.367,1.1-2.384,3-3.051c1.466-0.533,2.933-0.75,4.399-0.649l0.601-0.851l0.35-0.55
			C105.717,73.417,106.633,73.667,107.066,73.8z M81.917,73.55c0.533-0.033,1.1-0.05,1.7-0.05h7.1c-1.267,0.033-2.65,0.233-4.15,0.6
			c-1.133,0.134-2.066,0.233-2.8,0.301c-1.333,0.166-2.167,0.433-2.5,0.8c-0.033,0.033-0.267,0.85-0.7,2.45
			c-0.267,1-0.917,1.283-1.95,0.85c-0.167-1.833,0.117-3.15,0.85-3.95C80,73.983,80.816,73.65,81.917,73.55z M86.217,85
			c-0.067-0.033-0.15-0.05-0.25-0.05c-0.034-0.134-0.067-0.267-0.1-0.4c-0.233-1.133,0.383-2.017,1.85-2.649
			c0.867-0.367,2.1-0.867,3.7-1.5l-0.45,2.75c-0.434,0.966-1.133,1.566-2.1,1.8C88.3,85.083,87.417,85.1,86.217,85z M84.917,85.35
			c-0.133,0.4-0.383,0.75-0.75,1.051c-0.467,0.366-0.967,0.616-1.5,0.75c-0.5-0.4-0.633-0.917-0.4-1.551
			c0.267-0.633,0.717-0.983,1.35-1.05l1.1,0.351l0.3,0.1C84.983,85.134,84.95,85.25,84.917,85.35z M138.517,76.35
			c0.566-0.333,1.267-0.517,2.1-0.55c0.5-0.033,1.25-0.033,2.25,0l2.301,1.4c-1.267-0.033-2.217-0.05-2.851-0.05
			c-1.166,0-2.083,0.116-2.75,0.35c-0.434,0.167-1.166,0.634-2.2,1.4c-0.833,0.6-1.583,0.933-2.25,1
			C135.184,78.9,136.316,77.717,138.517,76.35z M142.816,81.25l0.55,0.55c-0.033,0.101-0.066,0.184-0.1,0.25
			c-0.4,0.767-1.35,1.2-2.85,1.3c-0.867,0.067-2.167-0.017-3.9-0.25c-0.434-1.066,0.217-1.733,1.95-2
			c2.267-0.399,3.434-0.633,3.5-0.699L142.816,81.25z"/>
		<path style="fill-rule:evenodd;clip-rule:evenodd;fill:#595951;" d="M146.267,63.4c-2.267,0.3-4.184,0.449-5.75,0.449
			c-2.9,0-7.267,0.084-13.1,0.25c-5.801,0.134-10.167,0.2-13.101,0.2c-13,0.134-22.767,0.217-29.3,0.25
			c-11.5,0.033-21.25-0.2-29.25-0.7c-4.967-0.3-8.15-0.55-9.55-0.75c-3.3-0.433-6.133-1.199-8.5-2.3
			c-0.167-0.1-0.333-0.184-0.5-0.25c-0.067-0.033-0.15-0.066-0.25-0.1c-0.067-0.033-0.133-0.05-0.2-0.05
			c-0.2-0.101-0.4-0.2-0.6-0.301c-0.033,0-0.066,0-0.1,0C36,60.033,35.933,60,35.867,60l-0.7-0.3
			c-0.066-0.066-0.133-0.101-0.2-0.101c-0.133-0.066-0.25-0.133-0.35-0.199l-0.5-0.25c-1.467-0.733-2.517-1.467-3.15-2.2h4.3
			c0.2,0.267,0.383,0.467,0.55,0.6c0.534,0.434,1.417,0.733,2.65,0.9c0.2,0,0.417,0.017,0.65,0.05c2.066,0.134,3.233,0.233,3.5,0.3
			c0.6,0.167,1.267,0.434,2,0.8c0.4,0.2,1.017,0.5,1.85,0.9c0.066,0.033,0.15,0.066,0.25,0.1c2.4,1.134,5.2,1.917,8.4,2.351
			c1.7,0.2,4.7,0.35,9,0.45c1.533,0.066,3.45,0.083,5.75,0.05l5.75-0.05c1.5,0,3.833,0.083,7,0.25c3.033,0.166,5.367,0.233,7,0.199
			c2.3,0,5.75,0.051,10.35,0.15c4.133,0.066,7.566,0.017,10.3-0.15c5-0.267,10.884-0.416,17.65-0.449H146.267z M156.017,56.05
			c0.066,0.033,0.134,0.084,0.2,0.15l1.75,1.1c0.233,0.2,0.45,0.384,0.649,0.55l0.25,0.25c0.867,0.934,1.067,1.934,0.601,3
			c0,0.034-0.017,0.067-0.05,0.101c-0.4,0.767-1.517,1.267-3.351,1.5c-0.6,0.066-2.133,0.133-4.6,0.2c0.434-0.4,0.767-1,1-1.801
			c0.066-0.267,0.116-0.566,0.149-0.899c0.167-1.134,0.25-1.767,0.25-1.9c-0.033-0.3-0.183-0.583-0.449-0.85
			c-0.2-0.233-0.467-0.45-0.801-0.65c-0.133-0.066-0.25-0.133-0.35-0.2c-0.134-0.066-0.233-0.116-0.3-0.149
			c-0.233-0.101-0.467-0.184-0.7-0.25c0.667-0.033,1.333-0.066,2-0.101c1.1-0.033,2.217-0.05,3.35-0.05c0.034,0,0.084,0,0.15,0
			S155.917,56.05,156.017,56.05z M155.217,43.2c0.333,0.333,0.816,0.8,1.45,1.4c0.533,0.533,0.85,0.983,0.949,1.35
			c0.101,0.367,0.167,0.716,0.2,1.05c0,0.2,0,0.383,0,0.55l-0.05,0.4c-0.066,0.167-0.15,0.333-0.25,0.5
			c-0.134,0.233-0.283,0.45-0.45,0.65c-0.1,0.033-0.184,0.083-0.25,0.15l-1.1,0.5c-0.134,0.033-0.25,0.067-0.351,0.1
			c-0.033,0-0.066,0.017-0.1,0.05c-0.1,0-0.217,0.017-0.35,0.05c-0.367,0.066-2.417,0.1-6.15,0.1h-17.8
			c-4.634,0.067-8.101,0.1-10.4,0.1c-4.033-0.033-7.467-0.25-10.3-0.65s-6.167-0.7-10-0.9l-7.4-0.25
			c-0.219-0.031-0.436-0.048-0.65-0.05l3.4-0.05c3.033,0,7.567,0.05,13.6,0.15c2.3,0,4.45-0.033,6.45-0.1
			c2.6-0.1,4.949-0.283,7.05-0.55c1.399-0.167,3.483-0.233,6.25-0.2c2.866,0.034,4.934-0.017,6.2-0.15s2.85-0.183,4.75-0.15
			c1.033,0,2.6,0.017,4.699,0.05c0.601,0,1.384,0.017,2.351,0.05c0.8,0.033,1.717,0.066,2.75,0.1c2.066,0.033,3.75-0.034,5.05-0.2
			c0.1-0.433,0.25-1.1,0.45-2c0-0.033,0-0.067,0-0.1C155.316,44.417,155.316,43.767,155.217,43.2z M29.167,45.45
			c1.067,0.167,2.55,0.283,4.45,0.35c2.267,0.034,3.75,0.083,4.45,0.15c0.934,0.1,2.35,0.183,4.25,0.25
			c1.867,0.033,3.267,0.1,4.2,0.2c0.933,0.133,2.15,0.167,3.65,0.1c0.8,0,2-0.033,3.6-0.1c1.133,0,2.8,0.083,5,0.25
			c2.2,0.133,3.85,0.2,4.95,0.2c4.5,0.066,8.75,0.3,12.75,0.7c0.867,0.067,1.716,0.15,2.55,0.25c2.067,0.233,4.683,0.383,7.85,0.45
			h-1c-13.533-0.1-23.684-0.183-30.45-0.25c-12.233-0.1-22.4-0.017-30.5,0.25c0.633-0.267,1.25-0.583,1.85-0.95
			c0.1-0.066,0.2-0.133,0.3-0.2L29.167,45.45z"/>
		<path style="fill-rule:evenodd;clip-rule:evenodd;fill:#77786D;" d="M160.767,55.85c-2.6,0.134-4.184,0.2-4.75,0.2
			c0.833-0.033,2.65-0.116,5.45-0.25L160.767,55.85z M23.767,56.65l-5.8-0.45l11.2,0.649L23.767,56.65z M151.467,62.9h-0.7l-4.5,0.5
			h-18.35c-6.767,0.033-12.65,0.183-17.65,0.449c-2.733,0.167-6.167,0.217-10.3,0.15c-4.6-0.1-8.05-0.15-10.35-0.15
			c-1.633,0.034-3.967-0.033-7-0.199c-3.167-0.167-5.5-0.25-7-0.25l-5.75,0.05c-2.3,0.033-4.217,0.017-5.75-0.05
			c-4.3-0.101-7.3-0.25-9-0.45c-3.2-0.434-6-1.217-8.4-2.351c-0.1-0.033-0.184-0.066-0.25-0.1c-0.833-0.4-1.45-0.7-1.85-0.9
			c-0.733-0.366-1.4-0.633-2-0.8c-0.267-0.066-1.434-0.166-3.5-0.3c-0.233-0.033-0.45-0.05-0.65-0.05
			c-1.233-0.167-2.117-0.467-2.65-0.9c-0.167-0.133-0.35-0.333-0.55-0.6h5.15h6.65h93.5l1.45-0.101c1.6-0.133,2.95-0.25,4.05-0.35
			c1.233-0.1,2.15-0.167,2.75-0.2c0.5-0.033,0.983-0.066,1.45-0.1c0.233,0.066,0.467,0.149,0.7,0.25
			c0.066,0.033,0.166,0.083,0.3,0.149c0.1,0.067,0.217,0.134,0.35,0.2c0.334,0.2,0.601,0.417,0.801,0.65
			c0.267,0.267,0.416,0.55,0.449,0.85c0,0.134-0.083,0.767-0.25,1.9c-0.033,0.333-0.083,0.633-0.149,0.899
			C152.233,61.9,151.9,62.5,151.467,62.9z M32.417,41.55c0.633-0.033,1.317-0.066,2.05-0.1c1.3,0.066,2.55,0.133,3.75,0.2
			c2.8,0.1,5.267,0.15,7.4,0.15h45h9c2.3,0,5.683,0.083,10.15,0.25c0.134,0,0.267,0,0.4,0c0.466,0.034,0.933,0.05,1.399,0.05
			c4,0.133,7.05,0.2,9.15,0.2c3.7-0.033,6.166-0.05,7.399-0.05c0.4,0,0.667,0,0.801,0c1.767,0.033,3.399,0.1,4.899,0.2
			c1.134,0.066,2.2,0.167,3.2,0.3c2.634,0.333,6.283,0.417,10.95,0.25c1.366-0.033,2.616-0.067,3.75-0.1
			c1.066-0.033,2.033-0.05,2.899-0.05c0.067,0,0.134,0,0.2,0h0.05l0.351,0.35c0.1,0.566,0.1,1.216,0,1.95c0,0.033,0,0.067,0,0.1
			c-0.2,0.9-0.351,1.567-0.45,2c-1.3,0.167-2.983,0.233-5.05,0.2c-1.033-0.034-1.95-0.067-2.75-0.1
			c-0.967-0.033-1.75-0.05-2.351-0.05c-2.1-0.033-3.666-0.05-4.699-0.05c-1.9-0.033-3.483,0.017-4.75,0.15s-3.334,0.184-6.2,0.15
			c-2.767-0.033-4.851,0.034-6.25,0.2c-2.101,0.267-4.45,0.45-7.05,0.55c-2,0.067-4.15,0.1-6.45,0.1
			c-6.033-0.1-10.567-0.15-13.6-0.15l-3.4,0.05h-0.15c-0.733-0.033-1.466-0.05-2.2-0.05h-3c-3.167-0.067-5.783-0.217-7.85-0.45
			c-0.833-0.1-1.683-0.183-2.55-0.25c-4-0.4-8.25-0.633-12.75-0.7c-1.1,0-2.75-0.067-4.95-0.2c-2.2-0.167-3.867-0.25-5-0.25
			c-1.6,0.067-2.8,0.1-3.6,0.1c-1.5,0.067-2.717,0.033-3.65-0.1c-0.933-0.1-2.333-0.167-4.2-0.2c-1.9-0.067-3.316-0.15-4.25-0.25
			c-0.7-0.067-2.183-0.117-4.45-0.15c-1.9-0.066-3.383-0.183-4.45-0.35l0.8-0.75c0.133-0.133,0.3-0.3,0.5-0.5
			C30.933,43.6,31.583,42.717,32.417,41.55z M157.767,47.95c-0.134,0.433-0.366,0.816-0.7,1.15c0.167-0.2,0.316-0.417,0.45-0.65
			C157.616,48.283,157.7,48.117,157.767,47.95z M128.217,44.05c-8.7-0.633-18.417-0.95-29.15-0.95c-2.066,0-4.517,0.1-7.35,0.3
			c-3.2,0.267-5.6,0.45-7.2,0.55c-1.5,0.133-3.383,0.183-5.65,0.15c-2.533-0.033-4.434-0.05-5.7-0.05c-3.833,0-9.6-0.05-17.3-0.15
			c-7.667-0.133-13.434-0.2-17.3-0.2v0.35c8.667,0.833,20.317,1.25,34.95,1.25c3.4,0,8.233-0.1,14.5-0.3
			c6.533-0.2,11.35-0.317,14.45-0.35c1.8,0,4.533,0.117,8.2,0.35c3.633,0.2,6.366,0.3,8.199,0.3h25.4c0.267,0,1.634,0.117,4.1,0.35
			c1.733,0.133,3.051,0.083,3.95-0.15c-0.267-0.667-2.133-1.05-5.6-1.15c-3.733,0-5.934,0-6.601,0
			C134.783,44.35,130.816,44.25,128.217,44.05z M24.492,45.325c0.104-0.077,0.195-0.135,0.275-0.175
			c-0.094,0.057-0.227,0.148-0.4,0.275L24.492,45.325z M20.917,47.4c0-0.033,0.017-0.05,0.05-0.05h0.05
			c0.233-0.1,0.467-0.184,0.7-0.25C21.45,47.2,21.183,47.3,20.917,47.4z M2.142,48.25c0.025,0,0.067,0,0.125,0l0.2,0.05
			C2.33,48.268,2.221,48.251,2.142,48.25z M120.167,60.2c2.366,0,5.866-0.15,10.5-0.45c4.666-0.333,8.166-0.5,10.5-0.5
			c0.8,0,2.55,0.134,5.25,0.4c2.433,0.1,4.017-0.184,4.75-0.851l-3.7-0.899c-6.367,0-15.934,0.233-28.7,0.699
			c-12.733,0.434-22.3,0.65-28.7,0.65c-6.133,0-13.383-0.1-21.75-0.3c-9.633-0.3-16.867-0.517-21.7-0.65
			c0.833,0.634,2.2,0.95,4.1,0.95c1.033,0,2.5,0,4.4,0c2.467,0.3,5.833,0.45,10.1,0.45c2.9,0,7.2,0.083,12.9,0.25
			c5.733,0.166,10.017,0.25,12.85,0.25H120.167z"/>
		<path style="fill-rule:evenodd;clip-rule:evenodd;fill:#AFB0A0;" d="M128.217,44.05c2.6,0.2,6.566,0.3,11.899,0.3
			c0.667,0,2.867,0,6.601,0c3.467,0.1,5.333,0.483,5.6,1.15c-0.899,0.233-2.217,0.283-3.95,0.15c-2.466-0.233-3.833-0.35-4.1-0.35
			h-25.4c-1.833,0-4.566-0.1-8.199-0.3c-3.667-0.233-6.4-0.35-8.2-0.35c-3.1,0.033-7.917,0.15-14.45,0.35
			c-6.267,0.2-11.1,0.3-14.5,0.3c-14.633,0-26.283-0.417-34.95-1.25V43.7c3.867,0,9.633,0.066,17.3,0.2
			c7.7,0.1,13.467,0.15,17.3,0.15c1.267,0,3.167,0.017,5.7,0.05c2.267,0.033,4.15-0.017,5.65-0.15c1.6-0.1,4-0.284,7.2-0.55
			c2.833-0.2,5.283-0.3,7.35-0.3C109.8,43.1,119.517,43.417,128.217,44.05z M120.167,60.2h-29.2c-2.833,0-7.117-0.084-12.85-0.25
			c-5.7-0.167-10-0.25-12.9-0.25c-4.267,0-7.633-0.15-10.1-0.45c-1.9,0-3.367,0-4.4,0c-1.9,0-3.267-0.316-4.1-0.95
			c4.833,0.134,12.066,0.351,21.7,0.65c8.367,0.2,15.617,0.3,21.75,0.3c6.4,0,15.967-0.217,28.7-0.65
			c12.767-0.466,22.333-0.699,28.7-0.699l3.7,0.899c-0.733,0.667-2.317,0.95-4.75,0.851c-2.7-0.267-4.45-0.4-5.25-0.4
			c-2.334,0-5.834,0.167-10.5,0.5C126.033,60.05,122.533,60.2,120.167,60.2z"/>
		<path style="fill-rule:evenodd;clip-rule:evenodd;fill:#4A4A44;" d="M160.767,48.35c0.066,0.967,0.134,1.767,0.2,2.4
			c0,0.2,0.017,0.4,0.05,0.6v0.2c-2.4,0.167-5.483,0.2-9.25,0.1c-5.533-0.133-8.6-0.2-9.2-0.2c-10.7,0-20.583-0.184-29.649-0.55
			c-24.101-1.066-45.284-1.65-63.55-1.75c-3.833-0.033-12.033,0.25-24.6,0.85C14.5,50.5,6.3,50.533,0.167,50.1h-0.05V50
			c0-0.067,0-0.117,0-0.15c-0.033-0.133-0.05-0.25-0.05-0.35C0,49.067-0.017,48.65,0.017,48.25h2.125
			c0.08,0.001,0.188,0.018,0.325,0.05h1.2c0.333,0,0.684,0,1.05,0h0.2c0.267,0,0.55,0.017,0.85,0.05l1.7,0.05
			c0.333,0,0.7,0.017,1.1,0.05c0.034-0.034,0.067-0.034,0.1,0h0.55c0.033-0.034,0.083-0.034,0.15,0c0.167,0,0.35,0,0.55,0
			c0.1,0,0.217,0,0.35,0h3.05c0.367-0.034,0.717-0.05,1.05-0.05h0.25l0.15-0.05c0.133,0,0.267,0,0.4,0l1.6-0.2l1.3-0.2
			c0.034,0,0.083,0,0.15,0l0.15-0.05c1.233-0.233,2.05-0.4,2.45-0.5c0.034,0,0.067,0,0.1,0c0.267-0.1,0.533-0.2,0.8-0.3l0.95-0.45
			l0.35-0.25c0.267-0.2,0.5-0.367,0.7-0.5c0.066-0.066,0.133-0.117,0.2-0.15l0.1-0.05l0.05-0.05l0.2-0.15
			c0.034-0.028,0.067-0.053,0.1-0.075c0.173-0.127,0.306-0.218,0.4-0.275V45.1h0.05l0.05-0.05c0.133-0.066,0.267-0.133,0.4-0.2
			l0.15-0.1c0.133-0.067,0.267-0.133,0.4-0.2l1-0.45c0.067,0,0.117-0.017,0.15-0.05c0.3-0.1,0.6-0.216,0.9-0.35l0.55-0.35
			c0.467-0.333,0.9-0.7,1.3-1.1c0.1-0.1,0.183-0.2,0.25-0.3l0.05-0.05c0.067-0.1,0.133-0.2,0.2-0.3v-0.05h0.05l2.15-0.05v0.05
			c-0.833,1.167-1.483,2.05-1.95,2.65c-0.2,0.2-0.367,0.367-0.5,0.5l-0.8,0.75l-2.1,1.65c-0.1,0.066-0.2,0.133-0.3,0.2
			c-0.6,0.367-1.217,0.684-1.85,0.95c8.1-0.267,18.267-0.35,30.5-0.25c6.767,0.067,16.917,0.15,30.45,0.25h1h3
			c0.733,0,1.467,0.017,2.2,0.05h0.15c0.214,0.002,0.431,0.019,0.65,0.05l7.4,0.25c3.833,0.2,7.167,0.5,10,0.9
			s6.267,0.617,10.3,0.65c2.3,0,5.767-0.033,10.4-0.1h17.8c3.733,0,5.783-0.033,6.15-0.1c0.133-0.034,0.25-0.05,0.35-0.05
			c0.033-0.033,0.066-0.05,0.1-0.05c0.101-0.033,0.217-0.067,0.351-0.1l1.1-0.5c0.066-0.067,0.15-0.117,0.25-0.15
			c0.334-0.333,0.566-0.717,0.7-1.15l0.05-0.4c0-0.167,0-0.35,0-0.55c-0.033-0.333-0.1-0.683-0.2-1.05
			c-0.1-0.367-0.416-0.817-0.949-1.35c-0.634-0.6-1.117-1.067-1.45-1.4l-0.351-0.35h0.25c1.634,0,2.934,0.033,3.9,0.1l0.4,0.8
			c0.533,1.133,0.899,2.117,1.1,2.95v0.05c0.033,0.1,0.066,0.2,0.1,0.3l0.101,0.65l0.05,0.1
			C160.767,48,160.767,48.183,160.767,48.35z"/>
		<path style="fill-rule:evenodd;clip-rule:evenodd;fill:#474742;" d="M23.767,56.65l5.4,0.199l1.8,0.101
			c0.633,0.733,1.683,1.467,3.15,2.2l0.5,0.25c0.1,0.066,0.217,0.133,0.35,0.199c0.066,0,0.133,0.034,0.2,0.101l0.7,0.3
			c0.066,0,0.133,0.033,0.2,0.1c0.034,0,0.067,0,0.1,0c0.2,0.101,0.4,0.2,0.6,0.301c0.067,0,0.133,0.017,0.2,0.05
			c0.1,0.033,0.183,0.066,0.25,0.1c0.167,0.066,0.333,0.15,0.5,0.25c2.367,1.101,5.2,1.867,8.5,2.3c1.4,0.2,4.583,0.45,9.55,0.75
			c8,0.5,17.75,0.733,29.25,0.7c6.533-0.033,16.3-0.116,29.3-0.25c2.934,0,7.3-0.066,13.101-0.2c5.833-0.166,10.199-0.25,13.1-0.25
			c1.566,0,3.483-0.149,5.75-0.449l4.5-0.5h0.7c2.467-0.067,4-0.134,4.6-0.2c1.834-0.233,2.95-0.733,3.351-1.5
			c0.033-0.033,0.05-0.066,0.05-0.101c0.467-1.066,0.267-2.066-0.601-3l-0.25-0.25c-0.199-0.166-0.416-0.35-0.649-0.55l-1.75-1.1
			c-0.066-0.066-0.134-0.117-0.2-0.15c0.566,0,2.15-0.066,4.75-0.2l0.75,1.25c0.467,0.967,0.717,2,0.75,3.101
			c0,1.233-0.283,2.3-0.85,3.2c-0.567,0.899-1.317,1.466-2.25,1.699c-0.467,0.101-1.45,0.15-2.95,0.15
			c-2.167,0-5.25,0.217-9.25,0.65c-3.5,0.399-6.267,0.633-8.3,0.699h-62c-1.267,0-2.983,0.034-5.15,0.101l-6.15,0.149
			c-0.6,0-1.217,0.017-1.85,0.051c-0.167,0-0.317,0-0.45,0h-0.225c-0.233,0-0.458,0-0.675,0l-11.75-0.551c-0.167,0-0.3,0-0.4,0
			c-0.633-0.066-1.233-0.116-1.8-0.149c-0.567-0.066-1.5-0.233-2.8-0.5c-1.167-0.267-2.1-0.417-2.8-0.45h-3
			c-1.233-0.033-2.217-0.184-2.95-0.45c-0.6-0.233-1.3-0.717-2.1-1.45c-0.933-0.899-1.583-1.466-1.95-1.699
			c-1.233-0.801-2.184-1.417-2.85-1.851c-1.167-0.767-2.167-1.3-3-1.6c-0.967-0.167-1.667-0.384-2.1-0.65
			C24.467,57.417,24.167,57.116,23.767,56.65z"/>
		<path style="fill-rule:evenodd;clip-rule:evenodd;fill:#737365;" d="M76.517,0.1c2.333,0.267,3.533,0.4,3.6,0.4
			c1.633,0.233,2.783,0.533,3.45,0.9c-2.167-0.7-4.85-0.9-8.05-0.6c-3.667,0.534-6.367,0.883-8.1,1.05c-1.533,0.1-2.7,0.2-3.5,0.3
			c-0.967,0.133-1.767,0.367-2.4,0.7c0.267-0.2,0.55-0.383,0.85-0.55c1.7-0.933,3.35-1.566,4.95-1.9C68.65,0.133,70.4,0,72.566,0
			C74.633,0,75.95,0.033,76.517,0.1z M61.517,2.85c-1.067,0.733-2.2,1.816-3.4,3.25c-1.934,2.367-3.2,3.8-3.8,4.3
			c-0.333,0.3-0.767,0.617-1.3,0.95c-0.667,0.7-1.25,1.283-1.75,1.75c-1.7,1.6-3.317,2.45-4.85,2.55
			c-1.767,0.7-2.733,1.117-2.9,1.25c-0.5,0.333-1.233,0.967-2.2,1.9c-0.9,0.867-1.65,1.483-2.25,1.85l0.45-1.35
			c-0.167-1.333,1.033-2.633,3.6-3.9c1.9-0.933,3.483-1.45,4.75-1.55c0.433-0.167,0.933-0.367,1.5-0.6c1.5-0.7,2.717-1.333,3.65-1.9
			c0.867-0.967,1.883-2.15,3.05-3.55l0.9-0.9c0.4-0.367,1.017-0.983,1.85-1.85c0.733-0.733,1.367-1.3,1.9-1.7
			C60.95,3.15,61.217,2.983,61.517,2.85z M15.167,42.7l0.9-0.45c2.034,0.267,3.55-0.483,4.55-2.25c0.433-0.767,0.967-1.333,1.6-1.7
			c0.367-0.233,1.033-0.633,2-1.2c0.133-0.1,1.233-1.383,3.3-3.85c1.533-1.833,2.867-2.667,4-2.5c-0.833,0.567-1.65,1.483-2.45,2.75
			c-0.833,1.1-1.35,1.867-1.55,2.3c-0.067,0.167-0.1,0.467-0.1,0.9c0,0.433-0.05,0.75-0.15,0.95c-0.833,1.7-2.633,3.017-5.4,3.95
			C19.633,42.367,17.4,42.733,15.167,42.7z"/>
	</g>
</g>
</svg>
