<?xml version="1.0" encoding="iso-8859-1"?>
<!-- Generator: Adobe Illustrator 16.0.0, SVG Export Plug-In . SVG Version: 6.00 Build 0)  -->
<!DOCTYPE svg PUBLIC "-//W3C//DTD SVG 1.1//EN" "http://www.w3.org/Graphics/SVG/1.1/DTD/svg11.dtd">
<svg version="1.1" id="FlashAICB" xmlns="http://www.w3.org/2000/svg" xmlns:xlink="http://www.w3.org/1999/xlink" x="0px" y="0px"
	 width="74.064px" height="148.156px" viewBox="0 0 74.064 148.156" style="enable-background:new 0 0 74.064 148.156;"
	 xml:space="preserve">
<g>
	<g>
		<path style="fill-rule:evenodd;clip-rule:evenodd;fill:#515046;" d="M63.5,22.25c0.066,1.633,0.083,3.667,0.05,6.1L63.5,34.4
			c0.167,2.267,0.283,4.033,0.35,5.3c0.134,2.3,0.034,4.017-0.3,5.15c-0.3,1-1.316,2.5-3.05,4.5c-1.366,1.566-1.983,3.267-1.85,5.1
			l-0.801-4.8c1.667-1.433,2.65-4.75,2.95-9.95c0.167-2.8,0.267-6.467,0.3-11c0.334-3.967,0.334-7.184,0-9.65
			c-0.033-0.2-0.416-1.483-1.149-3.85c-0.533-1.633-0.634-2.95-0.3-3.95c1.399,2.4,2.316,4.15,2.75,5.25
			C63.066,18.2,63.434,20.117,63.5,22.25z M38.6,58.35c-0.033,2.967-0.233,5.3-0.6,7c-0.7,3.133-2.1,5.35-4.2,6.65
			c-1.433,0.867-3.167,2.067-5.2,3.6c-2.5,1.867-4.25,3.133-5.25,3.8l-5.65,4c-0.133-1.134,0.45-2.284,1.75-3.45
			c0.733-0.634,1.833-1.55,3.3-2.75c0.5-0.566,1.583-1.967,3.25-4.2c1.267-1.7,2.45-3,3.55-3.9c0.6-0.467,1.417-1.117,2.45-1.95
			c0.9-0.733,1.7-1.55,2.4-2.45c0.567-0.667,1.533-1.817,2.9-3.45C38.033,60.217,38.467,59.25,38.6,58.35z M45.65,39.4
			c-1.367,2.633-2.117,4.167-2.25,4.6v-3.2c-0.301-4.466,0.716-6.583,3.05-6.35C46.816,36.017,46.55,37.667,45.65,39.4z M52.3,86
			c0-1.3-0.017-2.833-0.05-4.6c0-0.2,0-0.384,0-0.551c0.2,0.733,0.467,1.317,0.8,1.75L52.3,86z M51.35,93.5c0,0.267,0,0.517,0,0.75
			c-0.033,1.8,0.051,3.267,0.25,4.4c0.5-0.601,0.851-1.7,1.051-3.301c0.1-0.899,0.233-2.199,0.399-3.899
			c0.3-1.667,0.9-4.066,1.8-7.2c0.5-2.033,0.483-4.167-0.05-6.4c-0.3-1.333-0.934-3.35-1.899-6.05c0,1.4-0.217,2.717-0.65,3.95
			c0-0.767,0-1.433,0-2c0.033-1.533,0.316-2.85,0.85-3.95c0.167-0.333,0.884-1.483,2.15-3.45c0.533-0.867,1.033-2.017,1.5-3.45
			c0.566-1.767,0.983-2.933,1.25-3.5c0.167,0.067,1.533,0.233,4.1,0.5c1.834,0.2,2.834,0.733,3,1.6
			c-1.733,0.433-3.017,1.65-3.85,3.65c-0.667,2.533-1.184,4.35-1.55,5.45c-0.101,0.333-0.384,0.9-0.851,1.7
			c-0.433,0.767-0.699,1.383-0.8,1.85c-0.2,0.833-0.166,1.883,0.101,3.15c0.3,1.467,0.433,2.434,0.399,2.9
			c-0.066,0.767-0.416,1.7-1.05,2.8c-0.7,1.233-1.134,2.184-1.3,2.85c-0.134,0.667-0.167,1.601-0.101,2.801
			c0.101,1.8,0.15,2.733,0.15,2.8c-0.066,1.2-0.116,2.133-0.15,2.8c-0.066,1.233,0.034,2.116,0.301,2.65
			c0.366,0.733,1.449,1.699,3.25,2.899c1,0.634,2.283,1.467,3.85,2.5c-0.3,1.601-1.616,2.334-3.95,2.2
			c-0.2,0.467-0.35,1.116-0.45,1.95c-0.133,0.899-0.267,1.55-0.399,1.95c-0.134,0.433-0.533,1.216-1.2,2.35
			c-0.6,1.033-0.967,1.85-1.1,2.45c-0.534,2.533,0.399,4.366,2.8,5.5c1.366,0.666,3.55,1.45,6.55,2.35
			c-2.167,0.467-4.366,0.617-6.6,0.45c-2.167-0.167-3.967-0.65-5.4-1.45c0-0.566-0.217-1.333-0.65-2.3
			c-0.6-1.467-0.949-2.384-1.05-2.75c-0.333-1.366-0.517-2.884-0.55-4.55c0.6-2.4,0.85-4.434,0.75-6.101
			c-0.033-0.866-0.35-2.066-0.95-3.6c-0.533-1.4-0.767-2.616-0.7-3.65C50.667,96.366,50.917,95.167,51.35,93.5z M49.95,118.85
			l-0.15-0.05c0-0.166,0.017-0.35,0.05-0.55C49.85,118.45,49.884,118.65,49.95,118.85z M10.9,103.7c0.567,1.2,0.684,2.883,0.35,5.05
			c-0.533,3.4-0.8,5.15-0.8,5.25c-0.067,2.934-0.333,5.333-0.8,7.2c-0.367,1.399-0.833,2.517-1.4,3.35
			c-0.567,0.834-1.433,1.667-2.6,2.5c-0.167,0.134-1.217,0.717-3.15,1.75c-1.367,0.733-2.2,1.434-2.5,2.101
			c0.367-1.101,0.933-2.217,1.7-3.351c0.3-0.467,1.066-1.434,2.3-2.899c1.3-1.601,2.383-3.801,3.25-6.601
			c0.333-1.033,0.65-3.616,0.95-7.75C8.7,106.533,9.6,104.333,10.9,103.7z"/>
		<path style="fill-rule:evenodd;clip-rule:evenodd;fill:#252117;" d="M53.8,8.45c0.066-2.4,0.084-4.417,0.05-6.05
			c0.667,2.3,1.2,5.2,1.601,8.7c0.366,3.967,0.649,6.883,0.85,8.75c0.334,2.667,0.434,6.15,0.3,10.45
			c-0.233,6.833-0.35,10.333-0.35,10.5c0,2.967-0.267,6.184-0.8,9.65c-0.167,1.167-0.634,2.533-1.4,4.1
			c-1.066,2.167-1.684,3.467-1.85,3.9C51.3,60.917,50.6,64.2,50.1,68.3c-0.466,4.7-0.833,8.134-1.1,10.3L48.75,83.4
			c-0.1,2.066-0.333,3.616-0.7,4.649v0.05L48,88.2c-0.267,0.7-0.634,1.483-1.1,2.35c-0.567,1-0.934,1.684-1.101,2.05
			c0-1.166-0.05-2.866-0.149-5.1c-0.067-2-0.034-3.7,0.1-5.1c0.333-3.367,0.634-8.583,0.9-15.65c-0.4,1.2-1.15,2.7-2.25,4.5
			c-1.267,2.1-2.067,3.533-2.4,4.3c-0.033,0.067-0.566,1.767-1.6,5.101c-0.7,2.133-1.483,3.683-2.351,4.649
			c-0.767,0.867-2.25,1.55-4.45,2.05c-2.2,0.5-3.684,1.134-4.45,1.9c-0.4,0.4-0.833,1.066-1.3,2c-0.5,0.934-0.934,1.616-1.3,2.05
			c-0.233,0.267-0.733,0.634-1.5,1.101c-0.733,0.433-1.25,0.85-1.55,1.25c-0.7,1.066-1.15,2.767-1.35,5.1
			c-0.233,3-0.433,4.8-0.6,5.4c-0.7,2.333-1.2,4.017-1.5,5.05c-0.5,1.8-0.75,3.533-0.75,5.2c0,2.966-0.283,5.533-0.85,7.699
			c-0.8,3.167-2.133,5.25-4,6.25c0.667-1.066,1.45-2.216,2.35-3.449c0.6-1,0.9-2.351,0.9-4.051c-0.034-2.833,0.167-6.216,0.6-10.149
			c0.667-6.267,1.017-9.617,1.05-10.05c0.033-0.467-0.05-1.817-0.25-4.051c-0.167-1.733-0.1-3.05,0.2-3.949
			c0.333-0.967,1.167-1.817,2.5-2.551c1.767-1,2.883-1.733,3.35-2.199l2.35-2.95c0.633-0.834,1.667-1.483,3.1-1.95
			c0.8-0.267,1.967-0.616,3.5-1.05c1.267-0.467,2.233-1.167,2.9-2.101c0.634-0.866,1.316-2.316,2.05-4.35
			c0.8-2.267,1.434-3.783,1.9-4.55c0.934-1.467,1.6-2.617,2-3.45c0.533-1.133,0.95-2.383,1.25-3.75
			c0.066-0.333,0.517-3.167,1.35-8.5c0.5-3.267,1.3-6.05,2.4-8.35c0.566-1.133,1.383-2.583,2.45-4.35
			c0.833-1.533,1.383-3.033,1.649-4.5c0.667-3.733,1-7.783,1-12.15c0-2.7,0.15-6.95,0.45-12.75
			C53.634,12.65,53.733,10.417,53.8,8.45z M48,124.05c-1.467-2.066-2.566-3.616-3.3-4.649c-1.3-1.767-3.066-2.767-5.3-3
			c-1.934-0.067-3.434-0.134-4.5-0.2c-1.967-0.066-3.533-0.3-4.7-0.7c-2.434-0.8-3.883-2.35-4.35-4.65
			c0.7,0.467,1.65,1.25,2.85,2.351c1.133,0.899,2.267,1.434,3.4,1.6l2.25,0.2c2.267,0,4.216-0.333,5.85-1
			c1.934-0.767,3.116-2.616,3.55-5.55c0.267-1.634,0.616-4.15,1.05-7.55l0.101-0.351l0.05,0.8c-0.002,0.03-0.002,0.063,0,0.101
			L45,101.7c0,0.066,0,0.133,0,0.2c0,0.066,0.017,0.133,0.05,0.199v0.051c0.033,0.233,0.084,0.466,0.15,0.699
			c0.133,0.467,0.35,0.884,0.649,1.25c0.034,0.034,0.067,0.067,0.101,0.101l0.05,0.1c0.7,0.834,1.134,1.45,1.3,1.851
			c0.533,1.333,0.483,2.85-0.149,4.55c-0.9,2.333-1.367,3.7-1.4,4.1c-0.066,0.934,0.283,2.517,1.05,4.75
			c0.033,0.101,0.066,0.2,0.101,0.3l0.05,0.101l0.55,1.399c0.033,0.101,0.083,0.217,0.15,0.351c0.466,1.066,0.916,1.8,1.35,2.2
			c0.7,0.633,2.184,1.25,4.45,1.85c1.566,0.4,2.767,0.9,3.6,1.5c0.101,0.066,0.2,0.134,0.3,0.2l0.4,0.399
			c0.233,0.267,0.483,0.934,0.75,2c0.033,0.233,0.083,0.434,0.15,0.601c0.199,0.767,0.466,1.316,0.8,1.649
			c0.6,0.667,1.366,1.25,2.3,1.75c0.233,0.101,1.1,0.467,2.6,1.101c1.134,0.467,2.733,1.283,4.801,2.45
			c0.5,0.3,0.966,0.566,1.399,0.8c0.634,0.366,1.217,0.684,1.75,0.95c0.367,0.199,0.717,0.383,1.05,0.55
			c0.2,0.066,0.384,0.149,0.551,0.25h0.05c-0.867,0.6-2.167,0.816-3.9,0.649c-2.2-0.199-3.6-0.233-4.2-0.1
			c-0.8,0.167-1.767,0.634-2.899,1.4c-1.434,0.966-2.316,1.533-2.65,1.699c-1.733,0.801-4.399,1.167-8,1.101
			c-3.767-0.066-6.467,0.217-8.1,0.85c-6.033,2.334-12.083,3.101-18.15,2.3l-2.8-1.149c-0.967-0.3-2.067-0.717-3.3-1.25
			c-0.534-0.3-1.034-0.566-1.5-0.8c-1-0.567-1.917-1.051-2.75-1.45c-0.567-0.267-0.967-0.45-1.2-0.55c-0.567-0.467-0.9-0.884-1-1.25
			c1.867-0.167,5.517-0.634,10.95-1.4c4.633-0.667,8.233-1.05,10.8-1.15c-0.1-2.699,1.45-3.699,4.65-3
			c-0.167,0.267-0.25,0.65-0.25,1.15c-0.034,0.533-0.084,0.866-0.15,1c3.2,0.467,6.333,0.65,9.4,0.55
			c4.833-0.133,7.566-1.066,8.199-2.8c0.167-0.4,0.117-1.45-0.149-3.15c-0.167-0.899-0.384-2-0.65-3.3
			c-0.366-1.866-1.217-2.95-2.55-3.25c-1.733-0.1-3.116-0.399-4.15-0.899l-0.35-0.25c-0.134-0.134-0.25-0.217-0.35-0.25L48,124.05z"
			/>
		<path style="fill-rule:evenodd;clip-rule:evenodd;fill:#3D3C34;" d="M14.45,130.35l-0.25,0.4c-0.6,1.033-0.983,2.134-1.15,3.3
			c-0.133,0.767-0.2,1.917-0.2,3.45v1.35v0.101l-0.4,1.2c-1.067-0.4-1.983-0.601-2.75-0.601c-0.1-0.5,0.15-0.7,0.75-0.6l0.8-2.45
			c0-2.267,0.033-3.684,0.1-4.25c0.167-1.4,0.583-2.7,1.25-3.9c0.7-1.199,1.533-2.433,2.5-3.699c0.667-1.067,1-2.467,1-4.2
			c-0.033-2.8,0.167-6.2,0.6-10.2c0.6-5.866,0.933-9.2,1-10c0.033-0.533-0.034-1.884-0.2-4.05c-0.167-1.767-0.1-3.084,0.2-3.95
			c0.3-1,1.117-1.866,2.45-2.6c1.8-1,2.934-1.733,3.4-2.2c0.067-0.066,0.85-1.05,2.35-2.95c0.667-0.8,1.7-1.434,3.1-1.9
			c0.8-0.267,1.967-0.616,3.5-1.05c1.267-0.467,2.233-1.166,2.9-2.1c0.6-0.867,1.283-2.316,2.05-4.35c0.8-2.233,1.45-3.767,1.95-4.6
			c1-1.667,1.633-2.817,1.899-3.45c0.566-1.167,1-2.417,1.3-3.75c0.067-0.333,0.517-3.167,1.351-8.5c0.5-3.267,1.3-6.05,2.399-8.35
			c0.534-1.1,1.334-2.534,2.4-4.3c0.866-1.566,1.434-3.066,1.7-4.5c0.666-3.733,1-7.783,1-12.15c0-2.6,0.149-6.85,0.45-12.75
			C52.167,7.283,52.267,3.033,52.2,0c0.633,2.2,1.166,5.017,1.6,8.45c-0.066,1.966-0.166,4.2-0.3,6.7
			c-0.3,5.8-0.45,10.05-0.45,12.75c0,4.367-0.333,8.417-1,12.15c-0.267,1.467-0.816,2.967-1.649,4.5
			c-1.067,1.767-1.884,3.217-2.45,4.35c-1.101,2.3-1.9,5.083-2.4,8.35c-0.833,5.333-1.283,8.167-1.35,8.5
			c-0.3,1.367-0.717,2.617-1.25,3.75c-0.4,0.833-1.066,1.983-2,3.45c-0.467,0.767-1.101,2.283-1.9,4.55
			c-0.733,2.033-1.416,3.483-2.05,4.35c-0.667,0.934-1.633,1.634-2.9,2.101c-1.533,0.434-2.7,0.783-3.5,1.05
			c-1.434,0.467-2.467,1.116-3.1,1.95l-2.35,2.95c-0.467,0.466-1.583,1.199-3.35,2.199c-1.333,0.733-2.167,1.584-2.5,2.551
			c-0.3,0.899-0.367,2.216-0.2,3.949c0.2,2.233,0.283,3.584,0.25,4.051c-0.033,0.433-0.383,3.783-1.05,10.05
			c-0.433,3.934-0.633,7.316-0.6,10.149c0,1.7-0.3,3.051-0.9,4.051C15.9,128.134,15.117,129.283,14.45,130.35z M47.65,121.7
			c0.8,0.566,2.199,1.116,4.199,1.649c2.167,0.567,3.601,1.25,4.301,2.051c0.199,0.233,0.433,0.8,0.699,1.699
			c0.067,0.034,0.134,0.084,0.2,0.15c-0.833-0.6-2.033-1.1-3.6-1.5c-2.267-0.6-3.75-1.217-4.45-1.85
			C48.566,123.5,48.116,122.767,47.65,121.7z M48,124.05l0.9,0.601c0.1,0.033,0.216,0.116,0.35,0.25
			C48.85,124.7,48.434,124.417,48,124.05z M21.1,146.1c-0.833-0.433-1.717-0.916-2.65-1.449c0.466,0.233,0.966,0.5,1.5,0.8
			C20.35,145.684,20.733,145.9,21.1,146.1z M44.9,100.55c-0.034-0.399-0.017-1.3,0.05-2.7c-0.032,1.585-0.032,2.751,0,3.5
			L44.9,100.55z M45.85,104.1c-0.3-0.366-0.517-0.783-0.649-1.25c0.233,0.334,0.399,0.617,0.5,0.851
			C45.767,103.833,45.816,103.967,45.85,104.1z M70.55,138.2c-0.434-0.233-0.899-0.5-1.399-0.8c-2.067-1.167-3.667-1.983-4.801-2.45
			c-1.5-0.634-2.366-1-2.6-1.101c-0.934-0.5-1.7-1.083-2.3-1.75c-0.334-0.333-0.601-0.883-0.8-1.649
			c0.433,0.366,0.916,0.684,1.449,0.95c0.467,0.233,1.334,0.6,2.601,1.1c1.166,0.467,2.767,1.283,4.8,2.45
			c2.2,1.267,3.816,2.133,4.85,2.6C71.884,137.884,71.283,138.1,70.55,138.2z M11.3,141.95c0.9,0,1.967,0.233,3.2,0.7
			c0.233,0.1,0.633,0.283,1.2,0.55C13.9,142.4,12.433,141.983,11.3,141.95z"/>
		<path style="fill-rule:evenodd;clip-rule:evenodd;fill:#312C1F;" d="M12.85,138.85c0.7-0.033,1.717-0.066,3.05-0.1
			c3.167-0.366,6.184-0.566,9.05-0.6c1.6-0.067,3-0.45,4.2-1.15c1.533-0.866,1.267-1.783-0.8-2.75c0.333-0.066,3.05-0.184,8.15-0.35
			c3.4-0.134,5.934-0.784,7.6-1.95c-0.133,0.666-0.633,1.3-1.5,1.899c-0.866,0.601-1.383,1.167-1.55,1.7
			c1.167,0.566,2.233,0.834,3.2,0.8c0.634-0.033,1.684-0.25,3.15-0.649c2.066-0.533,3.3-0.884,3.699-1.05
			c1.5-0.567,2.5-1.284,3-2.15c0.767-1.3,0.867-2.217,0.301-2.75c-0.934-0.434-1.65-0.85-2.15-1.25
			c-0.434-0.333-0.967-0.917-1.6-1.75c-0.767-1.033-1.233-1.65-1.4-1.85l0.35,0.25c1.034,0.5,2.417,0.8,4.15,0.899
			c1.333,0.3,2.184,1.384,2.55,3.25c0.267,1.3,0.483,2.4,0.65,3.3c0.267,1.7,0.316,2.75,0.149,3.15
			c-0.633,1.733-3.366,2.667-8.199,2.8c-3.067,0.101-6.2-0.083-9.4-0.55c0.066-0.134,0.116-0.467,0.15-1
			c0-0.5,0.083-0.884,0.25-1.15c-3.2-0.699-4.75,0.301-4.65,3c-2.567,0.101-6.167,0.483-10.8,1.15
			c-5.434,0.767-9.083,1.233-10.95,1.4c0.1,0.366,0.433,0.783,1,1.25c-1.233-0.467-2.3-0.7-3.2-0.7c-0.1-0.5,0.15-0.7,0.75-0.601
			l0.4-1.199l0.4-1.2V138.85z M12.85,137.5c0-1.533,0.066-2.684,0.2-3.45c0.167-1.166,0.55-2.267,1.15-3.3l0.25-0.4
			c1.867-1,3.2-3.083,4-6.25c0.566-2.166,0.85-4.733,0.85-7.699c0-1.667,0.25-3.4,0.75-5.2c0.3-1.033,0.8-2.717,1.5-5.05
			c0.167-0.601,0.367-2.4,0.6-5.4c0.2-2.333,0.65-4.033,1.35-5.1c0.3-0.4,0.817-0.817,1.55-1.25c0.767-0.467,1.267-0.834,1.5-1.101
			c0.367-0.434,0.8-1.116,1.3-2.05c0.467-0.934,0.9-1.6,1.3-2c0.767-0.767,2.25-1.4,4.45-1.9c2.2-0.5,3.683-1.183,4.45-2.05
			c0.867-0.967,1.65-2.517,2.351-4.649c1.033-3.334,1.566-5.034,1.6-5.101c0.333-0.767,1.134-2.2,2.4-4.3c1.1-1.8,1.85-3.3,2.25-4.5
			c-0.267,7.067-0.567,12.283-0.9,15.65c-0.134,1.399-0.167,3.1-0.1,5.1c0.1,2.233,0.149,3.934,0.149,5.1
			c-0.066,0.101-0.116,0.217-0.149,0.351L45.6,93.1c-0.333,0.867-0.517,1.817-0.55,2.851C45.017,96.05,45,96.167,45,96.3l-0.05,1.55
			c-0.066,1.4-0.084,2.301-0.05,2.7L44.8,100.9c-0.434,3.399-0.783,5.916-1.05,7.55c-0.434,2.934-1.616,4.783-3.55,5.55
			c-1.634,0.667-3.583,1-5.85,1c2.066-0.366,3.817-0.917,5.25-1.65c2.101-1.033,3.034-2.267,2.801-3.699
			c-0.134-0.934-0.601-2.7-1.4-5.301c-0.233-1.733,0.017-3.55,0.75-5.449c0.434-1.101,1.167-2.767,2.2-5
			c0.6-1.367,0.95-2.983,1.05-4.851c0.033-0.666,0.033-2.35,0-5.05l-0.1,0.9c-1.801,0-2.9,0.05-3.301,0.149
			c-0.433,0.066-1.149,0.867-2.149,2.4c-1.467,2.166-2.417,3.467-2.85,3.899c-1.4,1.334-2.333,0.917-2.8-1.25
			c-0.3,0.667-1.033,1.184-2.2,1.551c-1.467,0.466-2.4,0.866-2.8,1.199c-1,0.834-1.733,1.75-2.2,2.75
			c-0.367,0.801-0.65,1.9-0.85,3.301c-0.267,1.966-0.55,3.399-0.85,4.3c-0.267,0.899-0.867,2.233-1.8,4
			c-0.5,0.967-0.85,1.934-1.05,2.899c-0.167,0.767-0.283,1.801-0.35,3.101v8.8c0.033,1.934-0.067,3.3-0.3,4.1
			c-0.233,0.733-0.867,1.867-1.9,3.4c-1.567,2.3-2.467,3.616-2.7,3.95C15.3,135.417,13.983,136.767,12.85,137.5z M21.1,146.1
			c-0.367-0.199-0.75-0.416-1.15-0.649c1.233,0.533,2.333,0.95,3.3,1.25l2.8,1.149c-0.1-0.033-0.216-0.05-0.35-0.05
			C24.633,147.667,23.1,147.1,21.1,146.1z M30.2,115.5c1.167,0.4,2.733,0.634,4.7,0.7c1.067,0.066,2.567,0.133,4.5,0.2
			c2.233,0.233,4,1.233,5.3,3c0.733,1.033,1.833,2.583,3.3,4.649l-2.45-1.1c-0.899-0.4-1.684-0.967-2.35-1.7
			c-0.066-0.066-0.617-0.85-1.65-2.35c-0.666-0.9-1.366-1.483-2.1-1.75c-0.767-0.233-2.767-0.284-6-0.15
			c-2.7,0.134-4.45-0.267-5.25-1.2L30.2,115.5z"/>
		<path style="fill-rule:evenodd;clip-rule:evenodd;fill:#3B3526;" d="M34.35,115l-2.25-0.2c-1.133-0.166-2.267-0.7-3.4-1.6
			c-1.2-1.101-2.15-1.884-2.85-2.351c0.467,2.301,1.917,3.851,4.35,4.65l-2,0.3c0.8,0.934,2.55,1.334,5.25,1.2
			c3.233-0.134,5.233-0.083,6,0.15c0.733,0.267,1.434,0.85,2.1,1.75c1.033,1.5,1.584,2.283,1.65,2.35c0.666,0.733,1.45,1.3,2.35,1.7
			l2.45,1.1c0.434,0.367,0.85,0.65,1.25,0.851c0.167,0.199,0.634,0.816,1.4,1.85c0.633,0.833,1.166,1.417,1.6,1.75
			c0.5,0.4,1.217,0.816,2.15,1.25c0.566,0.533,0.466,1.45-0.301,2.75c-0.5,0.866-1.5,1.583-3,2.15
			c-0.399,0.166-1.633,0.517-3.699,1.05c-1.467,0.399-2.517,0.616-3.15,0.649c-0.967,0.034-2.033-0.233-3.2-0.8
			c0.167-0.533,0.684-1.1,1.55-1.7c0.867-0.6,1.367-1.233,1.5-1.899c-1.666,1.166-4.199,1.816-7.6,1.95
			c-5.1,0.166-7.817,0.283-8.15,0.35c2.066,0.967,2.333,1.884,0.8,2.75c-1.2,0.7-2.6,1.083-4.2,1.15
			c-2.867,0.033-5.883,0.233-9.05,0.6c-1.333,0.033-2.35,0.066-3.05,0.1v-1.35c1.133-0.733,2.45-2.083,3.95-4.05
			c0.233-0.334,1.133-1.65,2.7-3.95c1.033-1.533,1.667-2.667,1.9-3.4c0.233-0.8,0.333-2.166,0.3-4.1v-8.8
			c0.066-1.3,0.183-2.334,0.35-3.101c0.2-0.966,0.55-1.933,1.05-2.899c0.933-1.767,1.533-3.101,1.8-4c0.3-0.9,0.583-2.334,0.85-4.3
			c0.2-1.4,0.483-2.5,0.85-3.301c0.467-1,1.2-1.916,2.2-2.75c0.4-0.333,1.333-0.733,2.8-1.199c1.167-0.367,1.9-0.884,2.2-1.551
			c0.467,2.167,1.4,2.584,2.8,1.25c0.433-0.433,1.383-1.733,2.85-3.899c1-1.533,1.717-2.334,2.149-2.4C42,84.95,43.1,84.9,44.9,84.9
			L45,84c0.033,2.7,0.033,4.384,0,5.05c-0.1,1.867-0.45,3.483-1.05,4.851c-1.033,2.233-1.767,3.899-2.2,5
			c-0.733,1.899-0.983,3.716-0.75,5.449c0.8,2.601,1.267,4.367,1.4,5.301c0.233,1.433-0.7,2.666-2.801,3.699
			C38.167,114.083,36.417,114.634,34.35,115z M48.2,129.3L46.6,127.65c0.267,1.767-0.433,3.399-2.1,4.899
			c1.134,0.3,2.05,0.117,2.75-0.55S48.267,130.434,48.2,129.3z M28.15,120.1c-0.867,1-1.1,2.134-0.7,3.4
			c0.667,0.333,1.4,0.333,2.2,0c0.267-1.2,0.85-2.083,1.75-2.65c0.9-0.533,1.967-0.666,3.2-0.399l-3.25-1.65
			C30.05,118.667,28.983,119.1,28.15,120.1z M36.1,101.65c1.167-0.334,2.266-0.517,3.3-0.551L37,98.7
			c-0.5,0.533-1.617,0.967-3.35,1.3c-1.833,0.366-3.066,0.8-3.7,1.3c-0.9,0.7-1.434,1.7-1.6,3c-0.2,1.5-0.5,2.533-0.9,3.101
			c0.933,0.1,1.917-0.467,2.95-1.7c1.367-1.634,2.25-2.566,2.65-2.8C33.85,102.4,34.867,101.983,36.1,101.65z M23.4,131.05
			c-0.5,0.334-0.667,0.816-0.5,1.45c0.467,1.7,1.917,2.15,4.35,1.35c0.2-1,0.233-1.983,0.1-2.949h-1.6
			C24.717,130.6,23.933,130.65,23.4,131.05z"/>
		<path style="fill-rule:evenodd;clip-rule:evenodd;fill:#383730;" d="M53.75,120.05c0,0.101,0,0.184,0,0.25
			c-2.1,0.767-3.366,0.283-3.8-1.45c-0.066-0.199-0.101-0.399-0.101-0.6c-0.066-0.366-0.1-0.783-0.1-1.25
			c0.033-1.7,0.333-4.05,0.9-7.05l0.8-0.8c0,0.433,0.017,0.866,0.05,1.3c0.033,1.666,0.217,3.184,0.55,4.55
			c0.101,0.366,0.45,1.283,1.05,2.75C53.533,118.717,53.75,119.483,53.75,120.05z M51.35,93.5c0-0.934,0.034-2.15,0.101-3.65
			L52.3,86l0.75-3.4c-0.333-0.433-0.6-1.017-0.8-1.75c-0.3-1.066-0.45-2.449-0.45-4.149c0.167-0.334,0.316-0.65,0.45-0.95
			c0.434-1.233,0.65-2.55,0.65-3.95c0.966,2.7,1.6,4.717,1.899,6.05c0.533,2.233,0.55,4.367,0.05,6.4
			c-0.899,3.134-1.5,5.533-1.8,7.2c-0.166,1.7-0.3,3-0.399,3.899c-0.2,1.601-0.551,2.7-1.051,3.301
			c-0.199-1.134-0.283-2.601-0.25-4.4C51.35,94.017,51.35,93.767,51.35,93.5z M73,130.15c1.8,1.666,1.316,2.733-1.45,3.199
			c-1.2,0.2-2.899-0.216-5.1-1.25c-1.9-0.899-3.417-1.833-4.55-2.8l5.6-1.649C69.434,127.717,71.267,128.55,73,130.15z"/>
		<path style="fill-rule:evenodd;clip-rule:evenodd;fill:#4C4531;" d="M48.2,129.3c0.066,1.134-0.25,2.033-0.95,2.7
			s-1.616,0.85-2.75,0.55c1.667-1.5,2.366-3.133,2.1-4.899L48.2,129.3z M36.1,101.65c-1.233,0.333-2.25,0.75-3.05,1.25
			c-0.4,0.233-1.283,1.166-2.65,2.8c-1.033,1.233-2.017,1.8-2.95,1.7c0.4-0.567,0.7-1.601,0.9-3.101c0.167-1.3,0.7-2.3,1.6-3
			c0.633-0.5,1.867-0.934,3.7-1.3c1.733-0.333,2.85-0.767,3.35-1.3l2.4,2.399C38.366,101.134,37.267,101.316,36.1,101.65z
			 M28.15,120.1c0.833-1,1.9-1.433,3.2-1.3l3.25,1.65c-1.233-0.267-2.3-0.134-3.2,0.399c-0.9,0.567-1.483,1.45-1.75,2.65
			c-0.8,0.333-1.533,0.333-2.2,0C27.05,122.233,27.283,121.1,28.15,120.1z M23.4,131.05c0.533-0.399,1.317-0.45,2.35-0.149h1.6
			c0.133,0.966,0.1,1.949-0.1,2.949c-2.433,0.801-3.883,0.351-4.35-1.35C22.733,131.866,22.9,131.384,23.4,131.05z"/>
	</g>
</g>
</svg>
