<?xml version="1.0" encoding="iso-8859-1"?>
<!-- Generator: Adobe Illustrator 16.0.0, SVG Export Plug-In . SVG Version: 6.00 Build 0)  -->
<!DOCTYPE svg PUBLIC "-//W3C//DTD SVG 1.1//EN" "http://www.w3.org/Graphics/SVG/1.1/DTD/svg11.dtd">
<svg version="1.1" id="FlashAICB" xmlns="http://www.w3.org/2000/svg" xmlns:xlink="http://www.w3.org/1999/xlink" x="0px" y="0px"
	 width="194.45px" height="239.8px" viewBox="0 0 194.45 239.8" style="enable-background:new 0 0 194.45 239.8;"
	 xml:space="preserve">
<g>
	<path style="fill-rule:evenodd;clip-rule:evenodd;fill:#594C39;" d="M179.7,132.8c-1.334,0.134-2.3,0.15-2.9,0.05
		c-0.3-0.033-0.733-0.166-1.3-0.399c-0.533-0.233-0.884-0.351-1.05-0.351c-0.4-0.066-1-0.066-1.8,0
		c-0.834,0.067-1.45,0.084-1.851,0.051c-0.3-0.034-0.767-0.2-1.399-0.5c-0.601-0.301-1.051-0.467-1.351-0.5
		c-1.733-0.134-3.983,0.017-6.75,0.449c-2.566,0.4-4.816,0.934-6.75,1.601c-0.8,0.267-1.55,0.883-2.25,1.85
		c-0.733,0.967-1.55,1.601-2.45,1.9c-0.5,0.166-1.366,0.184-2.6,0.05c-1.134-0.1-1.967-0.033-2.5,0.2
		c-0.566,0.233-1.15,0.934-1.75,2.1c-0.634,1.167-1.2,1.851-1.7,2.05c-0.733,0.334-2,0.301-3.8-0.1c-1.9-0.467-3.25-0.6-4.05-0.4
		c-0.4,0.101-1.017,0.384-1.851,0.851c-0.8,0.434-1.433,0.7-1.899,0.8c-0.967,0.2-2.316,0.2-4.05,0
		c-2.334-0.267-3.684-0.4-4.051-0.4c-2.066,0-3.316-0.05-3.75-0.149c-0.933-0.2-2.017-0.8-3.25-1.8
		c-1.566-1.334-2.383-2.034-2.449-2.101c-1.101-0.733-2.134-0.95-3.101-0.649c-0.399,0.133-0.833,0.533-1.3,1.199
		c-0.467,0.667-0.833,1.051-1.1,1.15c-1.5,0.634-3.667-0.083-6.5-2.15c-3.333-2.466-5.5-3.783-6.5-3.949c-2.333-0.4-4,0.399-5,2.399
		c-0.867,2.733-1.667,4.7-2.4,5.9c-1.833,3.1-3.85,5.899-6.05,8.399c-2.767,3.2-5.4,5.334-7.9,6.4c-1.1,0.4-1.9,0.684-2.4,0.85
		c-0.9,0.334-1.633,0.801-2.2,1.4c-0.2,0.233-0.5,0.7-0.9,1.4c-0.3,0.5-0.65,0.85-1.05,1.05c-1.167,0.6-2.95,0.783-5.35,0.55
		c-2.566-0.233-4.25-0.884-5.05-1.95c-0.533,0.334-1.35,1.316-2.45,2.95c-1.033,1.5-1.867,2.366-2.5,2.6
		c-1.9,0.667-3.217,0.167-3.95-1.5c-0.534-2.1-1.1-3.449-1.7-4.05c-0.533-0.533-1.383-0.783-2.55-0.75c-1.133,0-1.967,0.267-2.5,0.8
		c-0.367,0.367-0.517,1.2-0.45,2.5c0.067,1.467,0,2.4-0.2,2.801c-0.2,0.433-0.683,0.966-1.45,1.6c-0.8,0.7-1.317,1.217-1.55,1.55
		c-0.3,0.467-0.816,1.417-1.55,2.851c-0.533,1.1-1.1,2-1.7,2.699c-1.4,1.7-2.15,3.567-2.25,5.601c-0.066,1.233-0.017,3.25,0.15,6.05
		c-0.067,2.3-0.767,4.417-2.1,6.35c-1.467,2.101-3.233,3.317-5.3,3.65c-0.733,4.267-0.617,8.75,0.35,13.45
		c0.167,0.7,0.467,1.8,0.9,3.3c0.333,1.333,0.483,2.434,0.45,3.3c-1.333,0-2.167,0.017-2.5,0.05
		c-0.833,0.067-1.583,0.267-2.25,0.601c-0.5,0.267-1.15,0.783-1.95,1.55c-0.8,0.8-1.45,1.316-1.95,1.55
		c-0.667,0.334-1.567,0.467-2.7,0.4c-1.233-0.066-2.117-0.017-2.65,0.149l-0.3,0.15V163.2c2.4-1.5,3.75-2.634,4.05-3.4
		c0.2-0.533,0.317-1.517,0.35-2.95c0-1.333,0.183-2.366,0.55-3.1c0.167-0.333,0.533-0.783,1.1-1.35c0.5-0.534,0.867-1.117,1.1-1.75
		c0.3-0.801,0.633-2.367,1-4.7c0.3-1.967,0.767-3.5,1.4-4.601c1.133-1.866,1.733-2.883,1.8-3.05c0.467-1,0.684-2.149,0.65-3.45
		c0.533,0.034,0.917-0.033,1.15-0.199c0.133-0.067,0.4-0.334,0.8-0.801c0.3-0.3,1.15-1.683,2.55-4.149
		c0.867-1.5,2.167-2.55,3.9-3.15c2.6-0.899,6.917-2,12.95-3.3c5.2-1.566,8.784-4.067,10.75-7.5c1.034,1.067,1.883,1.433,2.55,1.1
		c0.4-0.2,1.283-0.667,2.65-1.4c1.867-0.467,3.483,0.267,4.85,2.2c0.767,1.067,1.8,2.784,3.1,5.15c1.3-0.934,2.017-2.833,2.15-5.7
		c0.167-3,0.683-4.917,1.55-5.75c0.8,0.433,1.767,1.533,2.9,3.3c0.6,0.967,1.367,2.25,2.3,3.85c0.433,0.633,1.217,1.7,2.35,3.2
		c1.033,1.399,1.667,2.566,1.9,3.5c0.133,0.467,0.25,1.566,0.35,3.3c0.267,1.3,0.883,1.4,1.85,0.3c0.633-0.733,1.083-2.566,1.35-5.5
		c0.167-3.166,0.267-5.133,0.3-5.9c0.333-4.467,0.55-7.2,0.65-8.2c0.3-2.067,0.5-3.567,0.6-4.5c0.267-0.067,0.667-0.25,1.2-0.55
		c-0.133-0.9-0.033-1.8,0.3-2.7c0.333-0.9,0.85-1.633,1.55-2.2c0.167-0.133,0.467-0.2,0.9-0.2c0.434,0,0.75-0.05,0.95-0.15
		c0.5-0.333,1.4-1.1,2.7-2.3c1.067-1,2.017-1.7,2.85-2.1c0.667-0.3,1.667-0.5,3-0.6c1.333-0.066,2.283-0.217,2.85-0.45
		c0.634-0.267,1.7-0.983,3.2-2.15c1.1-0.9,2.316-1.4,3.649-1.5c0.4-0.033,1.051-0.033,1.95,0c0.867,0.067,1.517,0.05,1.95-0.05
		c0.033,0,0.667-0.25,1.9-0.75c0.8-0.333,1.533-0.4,2.199-0.2c0.733,0.2,1.217,0.534,1.45,1c0.3,0.567,0.75,1,1.351,1.3
		c0.767,0.367,2.1,0.517,4,0.45c2.433-0.1,3.833-0.133,4.199-0.1c1.967,0.233,2.967,0.883,3,1.95c0.134,2.533,0.233,3.9,0.301,4.1
		c0.333,0.9,0.55,1.35,0.649,1.35c0.101,0,0.55-0.017,1.351-0.05c0.899,0.167,2.25,0.567,4.05,1.2c1.767,0.633,3.083,1.033,3.95,1.2
		c0.3,0.066,0.899,0.033,1.8-0.1c0.8-0.1,1.399-0.067,1.8,0.1c0.733,0.267,1.35,0.833,1.85,1.7c0.267,0.467,0.667,1.217,1.2,2.25
		c0.733,1.067,1.367,2.4,1.9,4c0.833,2.533,1.3,3.917,1.399,4.15c0.7-0.767,2.051-2.333,4.051-4.7c1.866-2.033,3.416-3.2,4.649-3.5
		c1.267-0.3,2.334-0.1,3.2,0.6c1.5,1.133,2.316,1.733,2.45,1.8c0.399,0.167,1.616,0.2,3.649,0.1c1.4-0.067,2.334,0.533,2.801,1.8
		c0.233,0,0.916-0.117,2.05-0.35c0.533-0.1,1.217-0.05,2.05,0.15c0.566,0.133,1.634,0.433,3.2,0.9V132.8z M72.35,146.1
		c-1.567-0.1-3.1,0.233-4.6,1c-1.367,0.733-2.35,1.601-2.95,2.601c-0.633,1.066-0.617,1.899,0.05,2.5
		c0.767,0.666,2.267,0.866,4.5,0.6c2.3-0.3,3.85-1.033,4.65-2.2c0.733-1.1,1.067-2.933,1-5.5L72.35,146.1z M143.55,118.3
		c-0.3-0.933-0.934-2.066-1.899-3.4c-0.4-0.566-1.067-1.3-2-2.2c-1.2-1.167-1.967-1.934-2.301-2.3c0.067,1.7,0.233,4.633,0.5,8.8
		c0,3.633-0.783,6.25-2.35,7.85c-0.9,0.934-2.116,1.434-3.65,1.5c-1.866-0.066-3.283-0.083-4.25-0.05
		c1.801,0.967,3.567,1.583,5.301,1.85c1.366,0.233,3.183,0.301,5.449,0.2c1.5-0.1,2.367-0.2,2.601-0.3
		c0.233-0.134,0.717-0.75,1.45-1.85c0.733-1.067,1.199-2.084,1.399-3.051c0.134-0.666,0.2-1.783,0.2-3.35S143.85,119.2,143.55,118.3
		z M137.35,109.8l-2-3.7c0,1.367,0.667,2.8,2,4.3V109.8z M114.65,135.8c-0.301,0.467-0.2,0.9,0.3,1.3
		c0.434,0.367,1.017,0.567,1.75,0.601c1.934,0.066,2.7-0.884,2.3-2.851c-1.2-0.133-2.083-0.149-2.65-0.05L114.65,135.8z
		 M105.4,131.55c-1.567-1.2-2.834-1.783-3.801-1.75c-2.267,0.033-3.033,0.95-2.3,2.75c0.566,1.5,1.584,2.8,3.05,3.9l3.301,1.35
		c0.366-0.399,0.916-0.833,1.649-1.3c0.533-0.434,0.75-1,0.65-1.7C107.816,133.866,106.967,132.783,105.4,131.55z"/>
	<path style="fill-rule:evenodd;clip-rule:evenodd;fill:#627624;" d="M179.7,45.55c-0.033,0-0.066,0-0.101,0V45.5
		c-0.233-0.1-0.483-0.167-0.75-0.2c-0.633-0.233-1.267-0.4-1.899-0.5c-1.7-0.333-3.434-0.183-5.2,0.45c-1.967,0.9-3.55,1.5-4.75,1.8
		c-3.2,0.1-5.7,0.25-7.5,0.45c-2.467,0.333-4.05,1.217-4.75,2.65c-0.333,0.434-0.583,0.95-0.75,1.55c-0.5-0.133-1.167-0.367-2-0.7
		c-1.066-0.433-1.85-0.717-2.35-0.85c-1.034-0.233-2.317-0.35-3.851-0.35c-1.7,0.034-2.983,0.034-3.85,0
		c-0.767-0.033-1.384-0.083-1.851-0.15c-0.033-0.066-0.066-0.133-0.1-0.2v0.2c-0.167-0.033-0.3-0.066-0.4-0.1
		c-0.1-0.033-0.199-0.066-0.3-0.1c-0.666-0.567-1.467-0.967-2.399-1.2h-0.051c-1.833-0.867-3.466-1.433-4.899-1.7
		c-1.934-0.367-3.95-0.333-6.05,0.1c-0.834,0.167-1.551,0.45-2.15,0.85l-0.1-0.05c-0.067,0.066-0.134,0.133-0.2,0.2
		c-0.867,0.567-1.533,1.35-2,2.35c-0.033,0.1-0.066,0.2-0.101,0.3c-0.3,0.467-0.583,0.95-0.85,1.45
		c-0.767,1.4-1.184,2.617-1.25,3.65c-0.033,0-0.05,0.017-0.05,0.05c-1.767-2.4-4.816-3.617-9.15-3.65
		c-1.267,0-2.517,0.083-3.75,0.25c-1.366-0.033-2.35,0-2.95,0.1c-0.866,0.1-2,0.5-3.399,1.2c-0.733,0.367-1.367,0.683-1.9,0.95
		c-1,0.1-2-0.033-3-0.4c-2.066-1.033-3.883-1.8-5.45-2.3c-0.7-0.233-1.4-0.45-2.1-0.65c-0.167-0.067-0.333-0.117-0.5-0.15l0.05,0.05
		c-2.5-0.667-5.216-1.117-8.15-1.35c-3.5-0.3-6.717-0.25-9.65,0.15c-2.1,0.167-4.033,0.75-5.8,1.75c-0.133,0-0.233,0-0.3,0
		c-0.233-0.033-0.533-0.283-0.9-0.75c-0.367-0.533-0.667-0.833-0.9-0.9c-0.833-0.333-2.217-0.383-4.15-0.15
		c-0.534,0.066-1.067,0.133-1.6,0.2c-1.767,0-3.133,0.15-4.1,0.45c-1.367,0.433-2.45,1.25-3.25,2.45
		c-0.633,0.933-1.233,2.233-1.8,3.9c-0.3,0.867-0.5,1.6-0.6,2.2l-0.05,0.05c-0.533,0.566-0.95,0.883-1.25,0.95c-0.6,0-1.267,0-2,0
		c-2.2,0.034-3.966-0.033-5.3-0.2c-1.033-0.133-2.733-0.483-5.1-1.05c-1.667-0.4-3.133-0.6-4.4-0.6
		c-1.333-0.034-2.767,0.167-4.3,0.6c-0.3,0.067-0.617,0.267-0.95,0.6c-0.333,0.3-0.667,0.45-1,0.45c-0.7,0.033-1.8-0.3-3.3-1
		c-1.6-0.733-2.784-1.133-3.55-1.2c-0.333,0-0.617,0-0.85,0c-1-0.467-2.033-0.65-3.1-0.55v-47l0.6,0.6c0.233-0.7,0.567-1,1-0.9
		c0.434,0.067,0.817,0.45,1.15,1.15c0.033-0.2,0.133-0.483,0.3-0.85c0.2-0.4,0.3-0.633,0.3-0.7c0.833,0.133,1.583,0.767,2.25,1.9
		l0.75-3.25c0.7,0.467,1.4,1.233,2.1,2.3c0.3,0.433,0.85,1.35,1.65,2.75c0.534-0.6,1.217-1.483,2.05-2.65c0,0.2,0.1,0.566,0.3,1.1
		c0.2,0.534,0.3,0.917,0.3,1.15c0.733-0.067,2.066-0.483,4-1.25c1.667-0.633,3.033-0.883,4.1-0.75c0,0.1,0.017,0.35,0.05,0.75
		c0.033,0.367,0.033,0.65,0,0.85c0.8-0.267,2.017-0.767,3.65-1.5c1.433-0.6,2.683-0.833,3.75-0.7c-0.067,0.133-0.167,0.483-0.3,1.05
		c-0.133,0.467-0.317,0.833-0.55,1.1c0.367-0.067,1.217-0.133,2.55-0.2c-0.133,0.167-0.3,0.5-0.5,1
		c-0.2,0.467-0.383,0.784-0.55,0.95c0.5,0,1.517-0.117,3.05-0.35c1.333-0.133,2.066,0.1,2.2,0.7c0.767-1,3.017-1.3,6.75-0.9
		c-0.033,0.167-0.017,0.466,0.05,0.9c0.433,0.033,1.066,0.033,1.9,0c0.733,0,1.316,0.117,1.75,0.35l-0.6,1
		c2.333-0.767,5.633-0.684,9.9,0.25c6.5,1.4,9.8,2.1,9.9,2.1c1,0.133,2.117-0.033,3.35-0.5c1.7-0.667,2.767-1.033,3.2-1.1
		c0.7-0.133,1.85-0.267,3.45-0.4c1.5-0.1,2.65-0.233,3.45-0.4l-0.65-0.6c0.667-0.8,1.967-1.267,3.9-1.4
		c2.667-0.133,4.15-0.25,4.45-0.35l-0.6-0.9c1.5,0,2.5-0.117,3-0.35L98,10.85c0.733-0.033,1.833-0.067,3.3-0.1
		c0.3-0.2,0.367-0.483,0.2-0.85c0.1,0,0.384-0.033,0.85-0.1c0.434-0.066,0.733-0.083,0.9-0.05L103,9.1
		c3.134,0.066,5.467,0.05,7-0.05c-0.066-0.133-0.116-0.433-0.15-0.9c-0.066-0.5-0.116-0.816-0.149-0.95
		c1.566-0.1,3.934-0.133,7.1-0.1c-0.267-0.333-0.483-0.583-0.649-0.75c-0.267-0.267-0.634-0.467-1.101-0.6
		c1.667,0.033,3.217,0.233,4.65,0.6c0.733,0.2,2.166,0.683,4.3,1.45l0.1-0.95c0.834,0.6,1.684,1.017,2.551,1.25
		c-0.034-0.233,0.017-0.533,0.149-0.9c0.101-0.367,0.15-0.617,0.15-0.75c1.1,0.733,1.866,1.1,2.3,1.1c0.333,0.034,1.134-0.1,2.4-0.4
		c-0.034,0.267-0.017,0.684,0.05,1.25c0.5,0.067,1.116,0.033,1.85-0.1c0.4-0.066,1-0.2,1.8-0.4c-0.033,0.133-0.066,0.383-0.1,0.75
		c0,0.333-0.05,0.6-0.15,0.8c0.434-0.167,1.067-0.434,1.9-0.8c0.767-0.3,1.45-0.467,2.05-0.5c-0.1,0.233-0.184,0.583-0.25,1.05
		c0.8,0.367,1.75,0.383,2.851,0.05c0.433,0.8,1.183,0.7,2.25-0.3c0.033,0.066,0.166,0.2,0.399,0.4
		c0.167,0.167,0.283,0.316,0.351,0.45c0.5-0.833,1.066-1.367,1.699-1.6c0.767-0.333,1.351-0.034,1.75,0.9
		c1.9-2.2,3.084-2.333,3.551-0.4c0.533-0.434,0.866-0.817,1-1.15c0.166,0.1,0.699,0.267,1.6,0.5c0.066-0.533,0.434-1.267,1.1-2.2
		c0.233,0.167,0.367,0.367,0.4,0.6c0.233-0.2,0.634-0.667,1.2-1.4c0.5-0.6,0.95-1,1.35-1.2c-0.033,0.233-0.033,0.633,0,1.2
		c0.066-0.233,0.233-0.517,0.5-0.85c0.3-0.333,0.483-0.583,0.55-0.75c0.567,0.267,1.351,0.183,2.351-0.25
		c0.233-0.1,1.017-0.55,2.35-1.35v0.9h2.9c0.5,0.3,1.017,0.5,1.55,0.6c0.134-0.033,0.25-0.184,0.35-0.45
		c0.067-0.267,0.134-0.4,0.2-0.4c0.533-0.067,1.05-0.417,1.55-1.05c0.067,0.267,0.233,0.683,0.5,1.25c0.134-0.133,0.467-0.367,1-0.7
		c0.434-0.3,0.75-0.567,0.95-0.8c0.066,0.2,0.2,0.5,0.4,0.9c0.8-0.233,1.916-0.55,3.35-0.95c1.167-0.333,2.134-0.717,2.9-1.15V45.55
		z M178.55,36.7c0-0.567-0.684-1.05-2.05-1.45c-1.4-0.4-3.083-0.6-5.05-0.6s-3.634,0.2-5,0.6c-1.367,0.4-2.05,0.883-2.05,1.45
		c0,0.566,0.683,1.066,2.05,1.5c1.399,0.4,3.066,0.6,5,0.6c1.967,0,3.649-0.2,5.05-0.6C177.866,37.767,178.55,37.267,178.55,36.7z
		 M166.05,23.1c0-0.567-0.684-1.05-2.05-1.45s-3.033-0.6-5-0.6s-3.65,0.2-5.05,0.6c-1.367,0.4-2.05,0.883-2.05,1.45
		c0,0.566,0.683,1.066,2.05,1.5c1.399,0.4,3.083,0.6,5.05,0.6c1.934,0,3.6-0.2,5-0.6C165.366,24.167,166.05,23.667,166.05,23.1z
		 M137.8,36.15c-1.399-0.4-3.066-0.6-5-0.6c-1.967,0-3.649,0.2-5.05,0.6c-1.366,0.434-2.05,0.934-2.05,1.5
		c0,0.567,0.684,1.05,2.05,1.45c1.4,0.4,3.083,0.6,5.05,0.6s3.634-0.2,5-0.6c1.367-0.4,2.05-0.883,2.05-1.45
		C139.85,37.083,139.167,36.583,137.8,36.15z M125.15,21.3c1.966,0,3.649-0.2,5.05-0.6c1.366-0.434,2.05-0.934,2.05-1.5
		c0-0.567-0.684-1.05-2.05-1.45c-1.4-0.4-3.084-0.6-5.05-0.6c-1.967,0-3.634,0.2-5,0.6c-1.367,0.4-2.051,0.883-2.051,1.45
		c0,0.566,0.684,1.066,2.051,1.5C121.55,21.1,123.217,21.3,125.15,21.3z M90.8,41.55c-1.966,0-3.65,0.2-5.05,0.6
		c-1.367,0.434-2.05,0.934-2.05,1.5c0,0.567,0.683,1.05,2.05,1.45c1.4,0.4,3.083,0.6,5.05,0.6c1.967,0,3.633-0.2,5-0.6
		c1.367-0.4,2.05-0.883,2.05-1.45c0-0.566-0.683-1.066-2.05-1.5C94.4,41.75,92.733,41.55,90.8,41.55z M98.85,29
		c-1.366,0.4-2.05,0.883-2.05,1.45c0,0.566,0.684,1.066,2.05,1.5c1.4,0.4,3.067,0.6,5,0.6c1.934,0,3.601-0.2,5-0.6
		c1.4-0.434,2.101-0.934,2.101-1.5c0-0.567-0.7-1.05-2.101-1.45c-1.366-0.4-3.033-0.6-5-0.6C101.884,28.4,100.217,28.6,98.85,29z
		 M32.75,32.8c0-0.566-0.683-1.05-2.05-1.45c-1.4-0.4-3.083-0.6-5.05-0.6s-3.633,0.2-5,0.6s-2.05,0.883-2.05,1.45
		c0,0.567,0.683,1.05,2.05,1.45s3.033,0.6,5,0.6s3.65-0.2,5.05-0.6C32.067,33.85,32.75,33.367,32.75,32.8z M76.7,31.15
		c1.367-0.4,2.05-0.883,2.05-1.45c0-0.567-0.683-1.067-2.05-1.5c-1.4-0.4-3.067-0.6-5-0.6c-1.967,0-3.65,0.2-5.05,0.6
		c-1.367,0.433-2.05,0.933-2.05,1.5c0,0.566,0.683,1.05,2.05,1.45c1.4,0.4,3.083,0.6,5.05,0.6C73.667,31.75,75.333,31.55,76.7,31.15
		z M49.3,45.2c1.367-0.4,2.05-0.883,2.05-1.45s-0.684-1.067-2.05-1.5c-1.4-0.4-3.083-0.6-5.05-0.6c-1.933,0-3.6,0.2-5,0.6
		c-1.367,0.433-2.05,0.933-2.05,1.5s0.683,1.05,2.05,1.45c1.367,0.4,3.033,0.6,5,0.6S47.9,45.6,49.3,45.2z M48.5,18.55
		c-1.367-0.4-3.033-0.6-5-0.6s-3.633,0.2-5,0.6c-1.4,0.4-2.1,0.883-2.1,1.45s0.7,1.05,2.1,1.45c1.367,0.4,3.033,0.6,5,0.6
		s3.633-0.2,5-0.6c1.4-0.4,2.1-0.883,2.1-1.45S49.9,18.95,48.5,18.55z"/>
	<path style="fill-rule:evenodd;clip-rule:evenodd;fill:#6C5C47;" d="M179.8,73.95c-0.033,0.033-0.066,0.066-0.1,0.1
		c-0.7,0.534-1.617,0.934-2.75,1.2c-3.033,0.433-5.233,0.967-6.601,1.6c-1.5,0.7-2.866,1.15-4.1,1.35
		c-0.934,0.167-2.45,0.25-4.55,0.25c-3.634-0.067-6.351-0.117-8.15-0.15c-3.3-0.066-6.033-0.017-8.2,0.15
		c-1.033,0.066-3.1,0.55-6.199,1.45c-2.634,0.733-4.65,1.033-6.051,0.9c-0.8-0.066-1.85-0.517-3.149-1.35
		c-1.367-0.9-2.367-1.417-3-1.55c-0.533-0.133-1.283-0.167-2.25-0.1c-1.134,0.034-1.9,0.034-2.3,0
		c-2.567-0.267-6.467-0.466-11.7-0.6c-2.2-0.034-4.634-0.067-7.3-0.1c-2.233,0-3.601,0.05-4.101,0.15
		c-1.033,0.167-2.166,0.7-3.4,1.6c-1.133,0.767-2.717,2.183-4.75,4.25c-2,2.033-3.6,3.45-4.8,4.25c-0.667,0.433-1.317,0.767-1.95,1
		c-0.4,0.1-1.066,0.25-2,0.45c-1.6,0.3-2.917,0.684-3.95,1.15c-1.133,0.533-2.333,1.316-3.6,2.35c-2.767,2.733-4.817,4.667-6.15,5.8
		c-2.3,1.967-4.867,3.1-7.7,3.4c-0.733,0.067-1.95,0.05-3.65-0.05c-1.567-0.1-2.767-0.083-3.6,0.05
		c-0.867,0.133-1.933,0.45-3.2,0.95c-0.4,0.167-0.767,0.316-1.1,0.45c-1.167,0.467-1.817,0.733-1.95,0.8
		c-0.367,0.133-1.1,0.35-2.2,0.65c-0.767,0.2-1.683,0.433-2.75,0.7c-2.1,0.534-3.716,1.1-4.85,1.7c-5.2,2.7-11.233,4.267-18.1,4.7
		c-1.867,0.233-3.317,0.417-4.35,0.55c-0.633,0.067-1.217,0.1-1.75,0.1c-1.067,0.033-1.917-0.067-2.55-0.3
		c-0.1-0.033-0.184-0.05-0.25-0.05c-1.167-0.467-1.867-1.533-2.1-3.2c-0.1-0.633-0.083-2.216,0.05-4.75c0.2-1.8,0.35-3.167,0.45-4.1
		C9.233,98,9.2,96.583,9,95.45c-0.2-1.067-0.983-2.083-2.35-3.05c-1.4-1-2.167-1.983-2.3-2.95c0.267-0.167,0.983-0.483,2.15-0.95
		c0.467-0.2,0.85-0.767,1.15-1.7c0.233-0.633,0.333-1.483,0.3-2.55C7.917,83.017,7.933,82.167,8,81.7c0.1-0.5,0.333-1.217,0.7-2.15
		c0.367-0.9,0.583-1.617,0.65-2.15c0.033-0.133,0.05-0.25,0.05-0.35c0.333-0.233,0.684-0.466,1.05-0.7
		c0.667-0.467,1.617-1.117,2.85-1.95c1.3-0.833,2.333-1.783,3.1-2.85c1.067-1.433,1.2-2.683,0.4-3.75
		c-0.7-0.933-2.183-1.433-4.45-1.5c-1.1,0.034-2.033,0.067-2.8,0.1c0.133-0.2,0.25-0.383,0.35-0.55c0.7,0,1.583,0.017,2.65,0.05
		c1.833-0.066,3.1-0.517,3.8-1.35c0.7-0.867,0.967-1.9,0.8-3.1c-0.167-1.133-0.633-2.05-1.4-2.75c-0.633-0.567-1.283-1-1.95-1.3
		c0.233,0,0.517,0,0.85,0c0.767,0.067,1.95,0.467,3.55,1.2c1.5,0.7,2.6,1.033,3.3,1c0.333,0,0.667-0.15,1-0.45
		c0.333-0.333,0.65-0.533,0.95-0.6c1.533-0.433,2.966-0.633,4.3-0.6c1.267,0,2.733,0.2,4.4,0.6c2.367,0.567,4.067,0.917,5.1,1.05
		c1.333,0.167,3.1,0.233,5.3,0.2c0.733,0,1.4,0,2,0c0.3-0.066,0.717-0.383,1.25-0.95l0.05-0.05c-0.1,0.767-0.033,1.317,0.2,1.65
		c0.733,0.933,1.917,1.183,3.55,0.75c1.5-0.4,2.967-1.267,4.4-2.6c1.467-1.367,2.383-2.783,2.75-4.25
		c0.4-1.667-0.067-3.083-1.4-4.25l0.3-0.3H55.6c0.533-0.066,1.066-0.133,1.6-0.2c1.933-0.233,3.316-0.184,4.15,0.15
		c0.233,0.067,0.533,0.367,0.9,0.9c0.367,0.467,0.667,0.717,0.9,0.75c0.067,0,0.167,0,0.3,0c-0.034,0.033-0.067,0.05-0.1,0.05
		l-0.7,0.65c0.333,0.4,0.684,1.267,1.05,2.6c0.333,1.267,0.767,2.167,1.3,2.7c0.7,0.7,1.9,1.184,3.6,1.45
		c0.4,0.066,1.8,0.167,4.2,0.3c3.067,0.167,5.45-0.017,7.15-0.55c2.633-0.867,4.066-2.583,4.3-5.15c0.2-1.9-0.8-3.05-3-3.45
		c-2.733-0.067-4.617-0.133-5.65-0.2c-3.167-0.167-5.283-0.216-6.35-0.15c2.933-0.4,6.15-0.45,9.65-0.15
		c2.934,0.233,5.65,0.683,8.15,1.35L88,51.8c-0.2,0.5-0.317,1.284-0.35,2.35c-0.033,1.033-0.167,1.8-0.4,2.3
		c-0.533,1.233-1.717,2.25-3.55,3.05c-0.833,0.367-3.2,0.933-7.1,1.7c-2.633,0.5-4.717,1.617-6.25,3.35c1,0.267,2.5,0.35,4.5,0.25
		c1.967-0.1,3.45,0,4.45,0.3c0.434,0.133,0.9,0.267,1.4,0.4c-0.467,0.2-0.883,0.367-1.25,0.5c-1.2,0.533-1.917,1.133-2.15,1.8
		c-0.433,1.267-0.033,2.15,1.2,2.65c0.933,0.367,2.083,0.483,3.45,0.35c2.066-0.233,3.083-1.15,3.05-2.75
		c-0.033-1.066-0.567-1.75-1.6-2.05c0.3,0.033,0.617,0.067,0.95,0.1c0.7,0.1,1.85,0.217,3.45,0.35c0.1,0,0.217,0.017,0.35,0.05
		c0.133,0.4,0.35,0.967,0.65,1.7c0.3,0.9,0.35,1.633,0.15,2.2c-0.167,0.467-0.733,0.983-1.7,1.55c-1.1,0.667-1.767,1.183-2,1.55
		c1.6,0.733,3.283,0.883,5.05,0.45c1.934-0.5,3.05-1.55,3.35-3.15c0.233-1.1,0.133-2.017-0.3-2.75c0.8,0.4,1.55,0.517,2.25,0.35
		c0.1-0.467,0.55-1.35,1.35-2.65c0.533-0.9,0.7-1.883,0.5-2.95c-0.134-0.533-0.434-1.35-0.9-2.45c-0.466-1.033-0.75-1.883-0.85-2.55
		c-0.233-1.4-0.483-2.267-0.75-2.6c-0.267-0.333-1-0.833-2.2-1.5c-1.267-0.733-2.2-1.267-2.8-1.6c-0.867-0.467-1.684-0.85-2.45-1.15
		c0.7,0.2,1.4,0.417,2.1,0.65c1.566,0.5,3.383,1.267,5.45,2.3c1,0.367,2,0.5,3,0.4c-0.6,0.233-1.066,0.4-1.4,0.5v0.65
		c-0.9,1.8-0.25,2.917,1.95,3.35c1.434,0.3,3.233,0.3,5.4,0c4.1-0.6,5.967-2.816,5.6-6.65c-1.267-0.066-2.366-0.1-3.3-0.1
		c1.233-0.167,2.483-0.25,3.75-0.25c4.334,0.034,7.384,1.25,9.15,3.65c0-0.034,0.017-0.05,0.05-0.05c-0.066,0.5-0.033,0.967,0.1,1.4
		c0.301,1.167,1.817,2.25,4.551,3.25c2.767,1.034,4.783,1.2,6.05,0.5c1.434-0.767,2.166-2.133,2.2-4.1c0.033-1.7-0.434-3.5-1.4-5.4
		c-0.934-1.833-2-3.117-3.2-3.85c-1.333-0.767-2.399-0.567-3.2,0.6l-0.6-0.3c0.6-0.4,1.316-0.683,2.15-0.85
		c2.1-0.433,4.116-0.467,6.05-0.1c1.434,0.267,3.066,0.833,4.899,1.7c-1.466-0.267-2.633-0.517-3.5-0.75
		c0.233,0.533,1.117,1.717,2.65,3.55c1,1.233,1.45,2.583,1.35,4.05c-0.066,1.2-0.433,2.233-1.1,3.1c-0.9,1-1.634,1.833-2.2,2.5
		c1.7,1.4,4.517,1.9,8.45,1.5c4.134-0.434,6.3-1.784,6.5-4.05c0.134-1.867-1.083-3.383-3.65-4.55c-2.866-1.333-4.616-2.65-5.25-3.95
		c0.467,0.067,1.084,0.117,1.851,0.15c0.866,0.034,2.149,0.034,3.85,0c1.533,0,2.816,0.117,3.851,0.35
		c0.5,0.133,1.283,0.417,2.35,0.85c0.833,0.333,1.5,0.567,2,0.7c-0.033,0.1-0.066,0.2-0.1,0.3c-0.534,2.033,0.5,2.85,3.1,2.45
		c1.5-0.233,2.483-1.217,2.95-2.95c0.5-1.767,0.066-3-1.3-3.7l-1,0.3c-1.267,0.4-2.233,1.083-2.9,2.05
		c0.7-1.433,2.283-2.316,4.75-2.65c1.8-0.2,4.3-0.35,7.5-0.45c1.2-0.3,2.783-0.9,4.75-1.8c1.767-0.633,3.5-0.783,5.2-0.45
		c0.633,0.1,1.267,0.267,1.899,0.5c-0.366-0.066-0.75-0.117-1.149-0.15c-0.601,0-1.084,0-1.45,0c-0.056-0.028-0.105-0.044-0.15-0.05
		c0.04,0.006,0.073,0.022,0.101,0.05c-0.233-0.033-0.417-0.05-0.55-0.05L175,44.8c-1.4,0.167-2.934,0.75-4.6,1.75
		c-1.967,1.167-2.867,2.333-2.7,3.5c2.366,0.633,4.866,0.684,7.5,0.15c1.733-0.333,2.967-0.917,3.7-1.75
		c0,0.5-0.184,0.983-0.551,1.45c-0.233,0.267-0.633,0.5-1.199,0.7c-0.601,0.167-1,0.333-1.2,0.5c-0.334,0.267-0.733,0.75-1.2,1.45
		c-0.467,0.7-0.85,1.15-1.15,1.35c-1,0.733-2.449,1.05-4.35,0.95c-2.733-0.133-4.283-0.184-4.65-0.15
		c-1.767,0.267-3.5,0.65-5.199,1.15c-2.167,0.667-3.7,1.4-4.601,2.2c1.101,0.1,2.684,0.117,4.75,0.05c2.167-0.067,3.75-0.067,4.75,0
		c0.334,0.033,1.15,0.05,2.45,0.05c1.2,0.033,1.95,0.133,2.25,0.3c0.6,0.333,0.95,0.95,1.05,1.85c0.134,1.1,0.334,1.833,0.601,2.2
		s1.55,1.233,3.85,2.6c1.767,1.033,2.616,2.233,2.55,3.6c-0.1,1.566-0.866,2.4-2.3,2.5c0.434,0.3,1.05,0.8,1.85,1.5
		c0.767,0.6,1.5,0.966,2.2,1.1C179.1,73.867,179.434,73.917,179.8,73.95z M82.05,65.8c-0.233,0-0.466,0-0.7,0l0.05-0.1
		C81.6,65.733,81.817,65.767,82.05,65.8z M167.3,66.85c-1.7-1.5-3.583-2.184-5.649-2.05l-0.4-0.45c0.167,0.467,0.233,0.983,0.2,1.55
		c-0.066,1.533-0.667,2.684-1.8,3.45c-0.867,0.633-2.717,1.066-5.551,1.3c-0.399,0.033-2.416,0.117-6.05,0.25
		c1.967,1.533,5.25,2.517,9.851,2.95c4.933,0.467,8.216-0.2,9.85-2C169.35,70.15,169.2,68.483,167.3,66.85z M123.45,47.65
		c-0.767,0.8-1.467,1.684-2.101,2.65c0.034-0.1,0.067-0.2,0.101-0.3C121.917,49,122.583,48.217,123.45,47.65z M140,49.65v0.45
		c-0.233-0.233-0.467-0.45-0.7-0.65c0.101,0.033,0.2,0.066,0.3,0.1C139.7,49.583,139.833,49.617,140,49.65z M153.65,52.5
		c-0.434-0.133-1.184-0.55-2.25-1.25c-0.834-0.567-1.634-0.833-2.4-0.8h-1.35c0.133,1.566,0.816,2.933,2.05,4.1
		c1.366,1.267,2.783,1.55,4.25,0.85C153.983,55,153.884,54.033,153.65,52.5z M136.65,65.55c0.699,1.2,0.783,2.4,0.25,3.6
		c-0.601,1.3-1.65,2.15-3.15,2.55c-0.5,0.133-2.167,0.183-5,0.15c-2.3-0.033-3.783,0.283-4.45,0.95c2.3,1.867,5.617,2.9,9.95,3.1
		c4.1,0.2,7.467-0.383,10.1-1.75c1.4-0.733,2.184-1.4,2.351-2c0.166-0.6-0.134-1.633-0.9-3.1c-0.566-1.133-0.899-1.783-1-1.95
		c-0.399-0.567-0.967-1.033-1.7-1.4c-0.533-0.267-1.333-0.417-2.399-0.45c-1.066-0.067-1.851-0.217-2.351-0.45l-1.75,0.25
		c-2-1.767-4.733-2.9-8.199-3.4c-2.967-0.433-6.101-0.383-9.4,0.15c-0.066,0-0.134,0.017-0.2,0.05c0.167-0.133,0.351-0.267,0.55-0.4
		c1.301-1,1.717-1.684,1.25-2.05c-1.133-0.8-1.783-1.667-1.949-2.6l-0.65-2c-1.866-1.3-3.283-1.4-4.25-0.3
		c-0.967,1.8-1.866,3.1-2.7,3.9c-1.467,1.4-3.7,2.133-6.7,2.2c-3.399-0.167-5.85-0.2-7.35-0.1c1.167,1.567,3.417,2.467,6.75,2.7
		c1.866,0.133,4.434,0.1,7.7-0.1c1.1,0,2,0,2.7,0c-0.334,0.1-0.667,0.217-1,0.35c-2.367,0.9-4.134,1.917-5.301,3.05
		c-1,0.933-1.5,1.55-1.5,1.85c0.034,0.3,0.601,0.7,1.7,1.2c0.867,0.4,2.316,0.583,4.351,0.55c2.633,0,4.149,0.017,4.55,0.05
		c4.467,0.434,8.017,0.65,10.649,0.65c2.101,0,3.784-0.3,5.051-0.9c1-0.467,2.333-1.5,4-3.1V65.55z M149.7,66.8
		c0.366,1.167,2.55,1.6,6.55,1.3c1.467-0.033,2.217-0.067,2.25-0.1c0.634-0.167,1.033-0.7,1.2-1.6c0.233-1.7-0.884-2.683-3.351-2.95
		l-2-0.35c-1.333,0.6-2.366,1.066-3.1,1.4C149.95,65.133,149.434,65.9,149.7,66.8z M22.35,62.1l-2.35-2c0,0.633-0.833,1.933-2.5,3.9
		c-1.267,1.467-1.3,2.517-0.1,3.15c1.6,0.867,2.883,0.583,3.85-0.85C22.017,65.133,22.383,63.733,22.35,62.1z M22.4,67.8
		c0.033,0,1.733,0.2,5.1,0.6c2.133,0.267,3.6,0.934,4.4,2c0.133,0.167,0.15,0.533,0.05,1.1c-0.1,0.533-0.1,0.85,0,0.95
		c0.3,0.333,0.767,0.5,1.4,0.5c0.667-0.034,1.117,0.033,1.35,0.2c1.466,1,2.117,2.434,1.95,4.3c-0.066,1-0.467,1.8-1.2,2.4
		c-1.067,0.833-1.717,1.433-1.95,1.8c1.633,0.267,3.167,0.383,4.6,0.35c2.267-0.067,3.65-0.583,4.15-1.55
		c0.4-0.7,0.367-1.434-0.1-2.2c-0.733-1.3-1.117-2.017-1.15-2.15c-0.367-1.434,0.017-2.95,1.15-4.55c1.567-2.233,2.434-3.6,2.6-4.1
		c0.233-0.633,0.383-1.467,0.45-2.5c0.033-1.034-0.034-1.867-0.2-2.5c-0.3-1.067-0.5-1.633-0.6-1.7l-2.05-0.3
		c-4.733-0.867-8.3-1.317-10.7-1.35l-1.3-0.3c1.633,1.034,2.633,1.767,3,2.2c0.967,1.033,1.066,2.167,0.3,3.4
		c-0.667,1.067-2.4,1.95-5.2,2.65C26.083,67.65,24.067,67.9,22.4,67.8z M10.4,86.05c4.434,0.167,6.983,0.167,7.65,0
		c2.267-0.6,3.784-2.466,4.55-5.6c0.5-1.967,0.6-3.784,0.3-5.45c-0.333-1.9-1.183-3.417-2.55-4.55l-1,0.35
		c0.233,3.667-1.1,6.917-4,9.75c-1.333,1.067-2.333,1.9-3,2.5C11.183,84.117,10.533,85.117,10.4,86.05z M17.55,95.2l0.05,2.65
		c-0.167,0.9-0.45,1.467-0.85,1.7c-1,0.633-1.6,1.05-1.8,1.25c-0.633,0.633-0.983,1-1.05,1.1c-0.233,0.4-0.3,0.9-0.2,1.5
		c0.6,0.067,1.917,0.2,3.95,0.4c1.833,0.1,3.067-0.033,3.7-0.4c1.2-0.667,1.767-2.383,1.7-5.15c-0.267-3.033-0.4-4.967-0.4-5.8
		l0.7-2.65c-0.4,0.333-1.184,0.833-2.35,1.5c-1.133,0.633-1.917,1.15-2.35,1.55C17.917,93.517,17.55,94.3,17.55,95.2z M32,82.45
		c2.533-1.967,2.333-4.284-0.6-6.95c-0.566-0.5-1.383-0.883-2.45-1.15c-1.2-0.3-2.083-0.267-2.65,0.1c-0.466,0.3-0.816,1-1.05,2.1
		c-0.233,1.1-0.217,1.934,0.05,2.5c0.3,0.6,1.167,1.15,2.6,1.65c1.3,0.433,2,1.017,2.1,1.75H32z M27.7,97.1
		c-0.034,1.533,0.167,2.483,0.6,2.85c0.4,0.4,1.534,0.683,3.4,0.85c2.367,0.233,4.933,0.034,7.7-0.6c2.467-0.6,4.533-1.434,6.2-2.5
		c2.267-1.467,3.4-3.217,3.4-5.25c0.033-2.367-1.633-3.583-5-3.65l-3.35-1.35c-1.7-0.067-4,0.55-6.9,1.85
		c-3.133,1.367-5.033,2.784-5.7,4.25c-0.233,0.5-0.367,1.083-0.4,1.75C27.65,95.7,27.667,96.3,27.7,97.1z M66.35,69.45
		c1.233,1.533,1.717,3.25,1.45,5.15c-0.233,1.9-1.1,3.4-2.6,4.5c-1.1,0.8-3.217,1.367-6.35,1.7c-2.9,0.333-4.8,0.95-5.7,1.85
		c2.167,0.5,3.317,0.767,3.45,0.8c1.2,0.5,1.8,1.367,1.8,2.6c3.133,1.1,6.567,1.167,10.3,0.2c4.033-1.033,6.7-2.967,8-5.8
		c1.3-2.833,0.9-5.417-1.2-7.75c-2-2.167-4.617-3.25-7.85-3.25H66.35z M61.65,66.45l-2.3-1.35c-2.3-0.067-4.25-0.1-5.85-0.1
		c-3,0.033-4.967,0.367-5.9,1c-0.5,0.367-1,0.917-1.5,1.65c-0.6,0.934-1.033,1.533-1.3,1.8c-1.133,0.9-1.917,1.566-2.35,2
		c-0.733,0.767-0.983,1.733-0.75,2.9c6.6,0.4,11.483,0.383,14.65-0.05c7.033-0.966,10.117-3.566,9.25-7.8
		C65.2,66.467,63.883,66.45,61.65,66.45z M49,89.1c0.333,0.433,0.85,0.967,1.55,1.6c0.534,0.633,0.8,1.35,0.8,2.15
		c0,0.533-0.283,1.367-0.85,2.5c-0.2,0.4,0.3,0.767,1.5,1.1c2.033,0.566,4.017,0.667,5.95,0.3c2.367-0.467,3.617-1.617,3.75-3.45
		c0.133-2.2-1.434-3.583-4.7-4.15c-0.2-0.033-2.75-0.15-7.65-0.35L49,89.1z"/>
	<path style="fill-rule:evenodd;clip-rule:evenodd;fill:#5E5140;" d="M87.05,50.85L87,50.8c0.167,0.034,0.333,0.083,0.5,0.15
		c0.767,0.3,1.583,0.683,2.45,1.15c0.6,0.333,1.533,0.867,2.8,1.6c1.2,0.667,1.933,1.167,2.2,1.5c0.267,0.333,0.517,1.2,0.75,2.6
		c0.1,0.667,0.383,1.517,0.85,2.55c0.467,1.1,0.767,1.917,0.9,2.45c0.2,1.067,0.033,2.05-0.5,2.95c-0.8,1.3-1.25,2.183-1.35,2.65
		c-0.7,0.167-1.45,0.05-2.25-0.35c0.433,0.733,0.533,1.65,0.3,2.75c-0.3,1.6-1.417,2.65-3.35,3.15
		c-1.767,0.433-3.45,0.283-5.05-0.45c0.233-0.367,0.9-0.883,2-1.55c0.967-0.567,1.533-1.083,1.7-1.55c0.2-0.566,0.15-1.3-0.15-2.2
		c-0.3-0.733-0.517-1.3-0.65-1.7c-0.133-0.033-0.25-0.05-0.35-0.05c-1.6-0.133-2.75-0.25-3.45-0.35
		c-0.333-0.033-0.65-0.067-0.95-0.1c-0.4-0.133-0.85-0.2-1.35-0.2c-0.233-0.033-0.45-0.066-0.65-0.1
		c-0.233-0.067-0.467-0.133-0.7-0.2c-0.5-0.133-0.967-0.267-1.4-0.4c-1-0.3-2.483-0.4-4.45-0.3c-2,0.1-3.5,0.017-4.5-0.25
		c1.533-1.733,3.617-2.85,6.25-3.35c3.9-0.767,6.267-1.333,7.1-1.7c1.833-0.8,3.017-1.817,3.55-3.05c0.233-0.5,0.367-1.267,0.4-2.3
		c0.033-1.066,0.15-1.85,0.35-2.35L87.05,50.85z M139.3,49.45c0.233,0.2,0.467,0.417,0.7,0.65v-0.45v-0.2
		c0.033,0.066,0.066,0.133,0.1,0.2c0.634,1.3,2.384,2.617,5.25,3.95c2.567,1.167,3.784,2.683,3.65,4.55
		c-0.2,2.267-2.366,3.617-6.5,4.05c-3.934,0.4-6.75-0.1-8.45-1.5c0.566-0.667,1.3-1.5,2.2-2.5c0.667-0.867,1.033-1.9,1.1-3.1
		c0.101-1.467-0.35-2.817-1.35-4.05c-1.533-1.833-2.417-3.017-2.65-3.55c0.867,0.233,2.034,0.483,3.5,0.75h0.051
		C137.833,48.483,138.634,48.883,139.3,49.45z M167.3,66.85c1.9,1.633,2.05,3.3,0.45,5c-1.634,1.8-4.917,2.467-9.85,2
		c-4.601-0.434-7.884-1.417-9.851-2.95c3.634-0.133,5.65-0.217,6.05-0.25c2.834-0.233,4.684-0.667,5.551-1.3
		c1.133-0.767,1.733-1.917,1.8-3.45c0.033-0.566-0.033-1.083-0.2-1.55l0.4,0.45C163.717,64.667,165.6,65.35,167.3,66.85z
		 M179.8,73.95c-0.366-0.034-0.7-0.083-1-0.15c-0.7-0.133-1.434-0.5-2.2-1.1c-0.8-0.7-1.416-1.2-1.85-1.5
		c1.434-0.1,2.2-0.934,2.3-2.5c0.066-1.367-0.783-2.567-2.55-3.6c-2.3-1.367-3.583-2.233-3.85-2.6s-0.467-1.1-0.601-2.2
		c-0.1-0.9-0.45-1.517-1.05-1.85c-0.3-0.167-1.05-0.267-2.25-0.3c-1.3,0-2.116-0.017-2.45-0.05c-1-0.067-2.583-0.067-4.75,0
		c-2.066,0.066-3.649,0.05-4.75-0.05c0.9-0.8,2.434-1.533,4.601-2.2c1.699-0.5,3.433-0.883,5.199-1.15
		c0.367-0.034,1.917,0.017,4.65,0.15c1.9,0.1,3.35-0.217,4.35-0.95c0.301-0.2,0.684-0.65,1.15-1.35c0.467-0.7,0.866-1.183,1.2-1.45
		c0.2-0.167,0.6-0.333,1.2-0.5c0.566-0.2,0.966-0.434,1.199-0.7c0.367-0.467,0.551-0.95,0.551-1.45c0-0.434-0.117-0.883-0.351-1.35
		c-0.5-0.9-1.283-1.55-2.35-1.95c-0.027-0.027-0.061-0.044-0.101-0.05c0.045,0.005,0.095,0.022,0.15,0.05
		c0.366,0.067,1.066,0.15,2.1,0.25c0.301,0,0.584,0.017,0.851,0.05c0.133,0.033,0.267,0.066,0.399,0.1c0.034,0,0.067,0,0.101,0
		c0.267,0.067,0.483,0.15,0.649,0.25l2.301,0.65c1.566,1.167,2.816,2.633,3.75,4.4c1.166,2.133,1.383,4,0.649,5.6
		c0,0.033-0.684,0.85-2.05,2.45c-0.667,0.8-0.566,1.684,0.3,2.65c0.601,0.633,1.65,1.1,3.15,1.4c1.666,0.333,2.75,0.683,3.25,1.05
		c0.833,0.633,1.533,1.65,2.1,3.05c0.601,1.467,0.783,2.684,0.55,3.65c-0.267,1.167-1.017,1.983-2.25,2.45
		c-0.733,0.3-1.899,0.517-3.5,0.65C184.6,74.067,181.667,74.117,179.8,73.95z M114.15,63.1c-0.7,0-1.601,0-2.7,0
		c-3.267,0.2-5.834,0.233-7.7,0.1c-3.333-0.233-5.583-1.133-6.75-2.7c1.5-0.1,3.95-0.067,7.35,0.1c3-0.067,5.233-0.8,6.7-2.2
		c0.834-0.8,1.733-2.1,2.7-3.9c0.967-1.1,2.384-1,4.25,0.3l0.65,2c0.166,0.934,0.816,1.8,1.949,2.6
		c0.467,0.367,0.051,1.05-1.25,2.05c-0.199,0.133-0.383,0.267-0.55,0.4c-1,0.633-2.05,1.033-3.149,1.2
		C115.45,63.083,114.95,63.1,114.15,63.1z M136.65,65.55c-0.101-0.133-0.2-0.283-0.301-0.45l0.25-0.05l1.75-0.25
		c0.5,0.233,1.284,0.383,2.351,0.45c1.066,0.033,1.866,0.183,2.399,0.45c0.733,0.367,1.301,0.833,1.7,1.4
		c0.101,0.167,0.434,0.816,1,1.95c0.767,1.467,1.066,2.5,0.9,3.1c-0.167,0.6-0.95,1.267-2.351,2c-2.633,1.367-6,1.95-10.1,1.75
		c-4.333-0.2-7.65-1.233-9.95-3.1c0.667-0.667,2.15-0.983,4.45-0.95c2.833,0.033,4.5-0.017,5-0.15c1.5-0.4,2.55-1.25,3.15-2.55
		C137.434,67.95,137.35,66.75,136.65,65.55z M153.65,52.5c0.233,1.533,0.333,2.5,0.3,2.9c-1.467,0.7-2.884,0.417-4.25-0.85
		c-1.233-1.167-1.917-2.533-2.05-4.1H149c0.767-0.034,1.566,0.233,2.4,0.8C152.467,51.95,153.217,52.367,153.65,52.5z M22.4,67.8
		c1.667,0.1,3.684-0.15,6.05-0.75c2.8-0.7,4.533-1.583,5.2-2.65c0.767-1.233,0.667-2.367-0.3-3.4c-0.367-0.433-1.367-1.167-3-2.2
		l1.3,0.3c2.4,0.033,5.967,0.483,10.7,1.35l2.05,0.3c0.1,0.067,0.3,0.633,0.6,1.7c0.167,0.633,0.233,1.466,0.2,2.5
		c-0.067,1.033-0.217,1.867-0.45,2.5c-0.167,0.5-1.033,1.867-2.6,4.1c-1.133,1.6-1.517,3.117-1.15,4.55
		c0.033,0.133,0.417,0.85,1.15,2.15c0.467,0.767,0.5,1.5,0.1,2.2c-0.5,0.966-1.883,1.483-4.15,1.55
		c-1.434,0.033-2.967-0.083-4.6-0.35c0.233-0.367,0.883-0.967,1.95-1.8c0.733-0.6,1.133-1.4,1.2-2.4c0.167-1.867-0.483-3.3-1.95-4.3
		c-0.233-0.167-0.684-0.233-1.35-0.2c-0.633,0-1.1-0.167-1.4-0.5c-0.1-0.1-0.1-0.417,0-0.95c0.1-0.567,0.083-0.933-0.05-1.1
		c-0.8-1.066-2.267-1.733-4.4-2C24.133,68,22.433,67.8,22.4,67.8z M22.35,62.1c0.033,1.633-0.333,3.033-1.1,4.2
		c-0.967,1.434-2.25,1.717-3.85,0.85c-1.2-0.633-1.167-1.683,0.1-3.15c1.667-1.967,2.5-3.267,2.5-3.9L22.35,62.1z M17.55,95.2
		c0-0.9,0.367-1.684,1.1-2.35c0.434-0.4,1.217-0.917,2.35-1.55c1.167-0.667,1.95-1.167,2.35-1.5l-0.7,2.65
		c0,0.833,0.133,2.767,0.4,5.8c0.067,2.767-0.5,4.483-1.7,5.15c-0.633,0.367-1.867,0.5-3.7,0.4c-2.033-0.2-3.35-0.333-3.95-0.4
		c-0.1-0.6-0.034-1.1,0.2-1.5c0.067-0.1,0.417-0.467,1.05-1.1c0.2-0.2,0.8-0.617,1.8-1.25c0.4-0.233,0.683-0.8,0.85-1.7L17.55,95.2z
		 M10.4,86.05c0.133-0.933,0.783-1.933,1.95-3c0.667-0.6,1.667-1.433,3-2.5c2.9-2.833,4.233-6.083,4-9.75l1-0.35
		c1.367,1.133,2.217,2.65,2.55,4.55c0.3,1.667,0.2,3.483-0.3,5.45c-0.767,3.133-2.283,5-4.55,5.6
		C17.383,86.217,14.833,86.217,10.4,86.05z M66.35,69.45h1.3c3.233,0,5.85,1.083,7.85,3.25c2.1,2.333,2.5,4.917,1.2,7.75
		c-1.3,2.833-3.967,4.767-8,5.8c-3.733,0.967-7.167,0.9-10.3-0.2c0-1.233-0.6-2.1-1.8-2.6c-0.133-0.034-1.283-0.3-3.45-0.8
		c0.9-0.9,2.8-1.517,5.7-1.85c3.133-0.333,5.25-0.9,6.35-1.7c1.5-1.1,2.367-2.6,2.6-4.5C68.067,72.7,67.583,70.983,66.35,69.45z
		 M49,89.1l0.35-0.3c4.9,0.2,7.45,0.317,7.65,0.35c3.267,0.567,4.833,1.95,4.7,4.15c-0.133,1.833-1.383,2.983-3.75,3.45
		c-1.934,0.367-3.917,0.267-5.95-0.3c-1.2-0.333-1.7-0.7-1.5-1.1c0.567-1.133,0.85-1.967,0.85-2.5c0-0.8-0.267-1.517-0.8-2.15
		C49.85,90.067,49.333,89.533,49,89.1z"/>
	<path style="fill-rule:evenodd;clip-rule:evenodd;fill:#79674F;" d="M13.8,57.4c0.667,0.3,1.317,0.733,1.95,1.3
		c0.767,0.7,1.233,1.617,1.4,2.75c0.167,1.2-0.1,2.233-0.8,3.1c-0.7,0.833-1.967,1.284-3.8,1.35c-1.066-0.033-1.95-0.05-2.65-0.05
		c-0.667-0.033-1.183-0.05-1.55-0.05l-3.7-2.35c-0.133-2.867,1.133-4.867,3.8-6c0.767-0.333,1.517-0.534,2.25-0.6
		C11.767,56.75,12.8,56.933,13.8,57.4z M55.6,49.8h0.05l-0.3,0.3c1.333,1.167,1.8,2.583,1.4,4.25
		c-0.367,1.467-1.283,2.883-2.75,4.25c-1.433,1.333-2.9,2.2-4.4,2.6c-1.633,0.433-2.817,0.183-3.55-0.75
		c-0.233-0.333-0.3-0.883-0.2-1.65c0.1-0.6,0.3-1.333,0.6-2.2c0.566-1.667,1.167-2.967,1.8-3.9c0.8-1.2,1.883-2.017,3.25-2.45
		C52.467,49.95,53.833,49.8,55.6,49.8z M80.7,65.5c0.233,0.067,0.466,0.133,0.7,0.2l-0.05,0.1c0.233,0,0.467,0,0.7,0
		c0.5,0,0.95,0.067,1.35,0.2c1.033,0.3,1.567,0.983,1.6,2.05c0.033,1.6-0.983,2.517-3.05,2.75c-1.367,0.133-2.517,0.017-3.45-0.35
		c-1.233-0.5-1.633-1.383-1.2-2.65c0.233-0.667,0.95-1.267,2.15-1.8C79.817,65.867,80.233,65.7,80.7,65.5z M69.25,49.65
		c1.067-0.066,3.183-0.017,6.35,0.15c1.033,0.067,2.917,0.133,5.65,0.2c2.2,0.4,3.2,1.55,3,3.45c-0.233,2.566-1.667,4.283-4.3,5.15
		c-1.7,0.533-4.083,0.717-7.15,0.55c-2.4-0.133-3.8-0.233-4.2-0.3c-1.7-0.267-2.9-0.75-3.6-1.45c-0.533-0.533-0.967-1.433-1.3-2.7
		c-0.367-1.333-0.717-2.2-1.05-2.6l0.7-0.65c0.033,0,0.066-0.017,0.1-0.05C65.217,50.4,67.15,49.817,69.25,49.65z M106.3,52.05
		c0.934,0,2.033,0.034,3.3,0.1c0.367,3.833-1.5,6.05-5.6,6.65c-2.167,0.3-3.967,0.3-5.4,0c-2.2-0.433-2.85-1.55-1.95-3.35V54.8
		c0.333-0.1,0.8-0.267,1.4-0.5c0.533-0.267,1.167-0.583,1.9-0.95c1.399-0.7,2.533-1.1,3.399-1.2
		C103.95,52.05,104.934,52.017,106.3,52.05z M121.35,50.3c0.634-0.966,1.334-1.85,2.101-2.65c0.066-0.066,0.133-0.133,0.2-0.2
		l0.1,0.05l0.6,0.3c0.801-1.167,1.867-1.367,3.2-0.6c1.2,0.733,2.267,2.017,3.2,3.85c0.967,1.9,1.434,3.7,1.4,5.4
		c-0.034,1.966-0.767,3.333-2.2,4.1c-1.267,0.7-3.283,0.534-6.05-0.5c-2.733-1-4.25-2.083-4.551-3.25
		c-0.133-0.433-0.166-0.9-0.1-1.4c0.066-1.033,0.483-2.25,1.25-3.65C120.767,51.25,121.05,50.767,121.35,50.3z M154.75,50.15
		c0.667-0.967,1.634-1.65,2.9-2.05l1-0.3c1.366,0.7,1.8,1.934,1.3,3.7c-0.467,1.733-1.45,2.717-2.95,2.95
		c-2.6,0.4-3.634-0.417-3.1-2.45c0.033-0.1,0.066-0.2,0.1-0.3C154.167,51.1,154.417,50.583,154.75,50.15z M179.6,45.55
		c-0.133-0.033-0.267-0.066-0.399-0.1c-0.267-0.034-0.55-0.05-0.851-0.05c-1.033-0.1-1.733-0.183-2.1-0.25c0.366,0,0.85,0,1.45,0
		c0.399,0.033,0.783,0.083,1.149,0.15c0.267,0.034,0.517,0.1,0.75,0.2V45.55z M176.2,45.15c1.066,0.4,1.85,1.05,2.35,1.95
		c0.233,0.467,0.351,0.917,0.351,1.35c-0.733,0.833-1.967,1.417-3.7,1.75c-2.634,0.533-5.134,0.483-7.5-0.15
		c-0.167-1.167,0.733-2.333,2.7-3.5c1.666-1,3.199-1.583,4.6-1.75l0.65,0.3C175.783,45.1,175.967,45.117,176.2,45.15z M9.55,66.4
		c0.767-0.033,1.7-0.066,2.8-0.1c2.267,0.067,3.75,0.567,4.45,1.5c0.8,1.067,0.667,2.317-0.4,3.75c-0.767,1.067-1.8,2.017-3.1,2.85
		c-1.233,0.833-2.183,1.483-2.85,1.95c-0.367,0.233-0.717,0.467-1.05,0.7c-0.733,0.434-1.383,0.767-1.95,1
		c-0.633,0.267-1.467,0.45-2.5,0.55c-1.133,0.1-2.034,0.05-2.7-0.15c-0.167-0.034-0.467-0.034-0.9,0c-0.3,0-0.55-0.1-0.75-0.3
		c-0.767-0.733-0.767-2.333,0-4.8c1-2.567,1.583-4.083,1.75-4.55l5-2.35C7.817,66.45,8.55,66.433,9.55,66.4z M136.6,65.05
		l-0.25,0.05c0.101,0.167,0.2,0.316,0.301,0.45v1.25c-1.667,1.6-3,2.633-4,3.1c-1.267,0.6-2.95,0.9-5.051,0.9
		c-2.633,0-6.183-0.216-10.649-0.65c-0.4-0.033-1.917-0.05-4.55-0.05c-2.034,0.033-3.483-0.15-4.351-0.55
		c-1.1-0.5-1.666-0.9-1.7-1.2c0-0.3,0.5-0.917,1.5-1.85c1.167-1.133,2.934-2.15,5.301-3.05c0.333-0.133,0.666-0.25,1-0.35
		c0.8,0,1.3-0.017,1.5-0.05c1.1-0.167,2.149-0.566,3.149-1.2c0.066-0.033,0.134-0.05,0.2-0.05c3.3-0.533,6.434-0.583,9.4-0.15
		C131.866,62.15,134.6,63.283,136.6,65.05z M149.7,66.8c-0.267-0.9,0.25-1.667,1.55-2.3c0.733-0.333,1.767-0.8,3.1-1.4l2,0.35
		c2.467,0.267,3.584,1.25,3.351,2.95c-0.167,0.9-0.566,1.434-1.2,1.6c-0.033,0.033-0.783,0.067-2.25,0.1
		C152.25,68.4,150.066,67.967,149.7,66.8z M32,82.45h-2c-0.1-0.733-0.8-1.317-2.1-1.75c-1.433-0.5-2.3-1.05-2.6-1.65
		c-0.267-0.566-0.283-1.4-0.05-2.5c0.233-1.1,0.583-1.8,1.05-2.1c0.567-0.367,1.45-0.4,2.65-0.1c1.066,0.267,1.883,0.65,2.45,1.15
		C34.333,78.167,34.533,80.483,32,82.45z M27.7,97.1c-0.034-0.8-0.05-1.4-0.05-1.8c0.033-0.667,0.167-1.25,0.4-1.75
		c0.667-1.466,2.567-2.883,5.7-4.25c2.9-1.3,5.2-1.917,6.9-1.85L44,88.8c3.367,0.067,5.033,1.284,5,3.65
		c0,2.033-1.133,3.783-3.4,5.25c-1.667,1.066-3.733,1.9-6.2,2.5c-2.767,0.633-5.333,0.833-7.7,0.6c-1.867-0.167-3-0.45-3.4-0.85
		C27.867,99.583,27.667,98.633,27.7,97.1z M61.65,66.45c2.233,0,3.55,0.017,3.95,0.05c0.867,4.233-2.217,6.833-9.25,7.8
		c-3.167,0.434-8.05,0.45-14.65,0.05c-0.233-1.167,0.017-2.133,0.75-2.9c0.433-0.434,1.216-1.1,2.35-2
		c0.267-0.267,0.7-0.867,1.3-1.8c0.5-0.733,1-1.283,1.5-1.65c0.933-0.633,2.9-0.967,5.9-1c1.6,0,3.55,0.033,5.85,0.1L61.65,66.45z"
		/>
	<path style="fill-rule:evenodd;clip-rule:evenodd;fill:#576F19;" d="M166.05,23.1c0,0.566-0.684,1.066-2.05,1.5
		c-1.4,0.4-3.066,0.6-5,0.6c-1.967,0-3.65-0.2-5.05-0.6c-1.367-0.434-2.05-0.934-2.05-1.5c0-0.567,0.683-1.05,2.05-1.45
		c1.399-0.4,3.083-0.6,5.05-0.6s3.634,0.2,5,0.6S166.05,22.533,166.05,23.1z M178.55,36.7c0,0.566-0.684,1.066-2.05,1.5
		c-1.4,0.4-3.083,0.6-5.05,0.6c-1.934,0-3.601-0.2-5-0.6c-1.367-0.434-2.05-0.934-2.05-1.5c0-0.567,0.683-1.05,2.05-1.45
		c1.366-0.4,3.033-0.6,5-0.6s3.649,0.2,5.05,0.6C177.866,35.65,178.55,36.133,178.55,36.7z M125.15,21.3c-1.934,0-3.601-0.2-5-0.6
		c-1.367-0.434-2.051-0.934-2.051-1.5c0-0.567,0.684-1.05,2.051-1.45c1.366-0.4,3.033-0.6,5-0.6c1.966,0,3.649,0.2,5.05,0.6
		c1.366,0.4,2.05,0.883,2.05,1.45c0,0.566-0.684,1.066-2.05,1.5C128.8,21.1,127.116,21.3,125.15,21.3z M137.8,36.15
		c1.367,0.434,2.05,0.934,2.05,1.5c0,0.567-0.683,1.05-2.05,1.45c-1.366,0.4-3.033,0.6-5,0.6s-3.649-0.2-5.05-0.6
		c-1.366-0.4-2.05-0.883-2.05-1.45c0-0.566,0.684-1.066,2.05-1.5c1.4-0.4,3.083-0.6,5.05-0.6C134.733,35.55,136.4,35.75,137.8,36.15
		z M98.85,29c1.367-0.4,3.034-0.6,5-0.6c1.967,0,3.634,0.2,5,0.6c1.4,0.4,2.101,0.883,2.101,1.45c0,0.566-0.7,1.066-2.101,1.5
		c-1.399,0.4-3.066,0.6-5,0.6c-1.933,0-3.6-0.2-5-0.6c-1.366-0.434-2.05-0.934-2.05-1.5C96.8,29.883,97.483,29.4,98.85,29z
		 M90.8,41.55c1.934,0,3.6,0.2,5,0.6c1.367,0.434,2.05,0.934,2.05,1.5c0,0.567-0.683,1.05-2.05,1.45c-1.367,0.4-3.033,0.6-5,0.6
		c-1.966,0-3.65-0.2-5.05-0.6c-1.367-0.4-2.05-0.883-2.05-1.45c0-0.566,0.683-1.066,2.05-1.5C87.15,41.75,88.833,41.55,90.8,41.55z
		 M48.5,18.55c1.4,0.4,2.1,0.883,2.1,1.45s-0.7,1.05-2.1,1.45c-1.367,0.4-3.033,0.6-5,0.6s-3.633-0.2-5-0.6
		c-1.4-0.4-2.1-0.883-2.1-1.45s0.7-1.05,2.1-1.45c1.367-0.4,3.033-0.6,5-0.6S47.133,18.15,48.5,18.55z M49.3,45.2
		c-1.4,0.4-3.083,0.6-5.05,0.6s-3.633-0.2-5-0.6c-1.367-0.4-2.05-0.883-2.05-1.45s0.683-1.067,2.05-1.5c1.4-0.4,3.067-0.6,5-0.6
		c1.967,0,3.65,0.2,5.05,0.6c1.367,0.433,2.05,0.933,2.05,1.5S50.667,44.8,49.3,45.2z M76.7,31.15c-1.367,0.4-3.034,0.6-5,0.6
		c-1.967,0-3.65-0.2-5.05-0.6c-1.367-0.4-2.05-0.883-2.05-1.45c0-0.567,0.683-1.067,2.05-1.5c1.4-0.4,3.083-0.6,5.05-0.6
		c1.933,0,3.6,0.2,5,0.6c1.367,0.433,2.05,0.933,2.05,1.5C78.75,30.267,78.067,30.75,76.7,31.15z M32.75,32.8
		c0,0.567-0.683,1.05-2.05,1.45c-1.4,0.4-3.083,0.6-5.05,0.6s-3.633-0.2-5-0.6s-2.05-0.883-2.05-1.45c0-0.566,0.683-1.05,2.05-1.45
		s3.033-0.6,5-0.6s3.65,0.2,5.05,0.6C32.067,31.75,32.75,32.233,32.75,32.8z"/>
	<path style="fill-rule:evenodd;clip-rule:evenodd;fill:#4D4232;" d="M10.7,220.25l0.3-0.15c0.533-0.166,1.417-0.216,2.65-0.149
		c1.133,0.066,2.033-0.066,2.7-0.4c0.5-0.233,1.15-0.75,1.95-1.55c0.8-0.767,1.45-1.283,1.95-1.55
		c0.667-0.334,1.417-0.533,2.25-0.601c0.333-0.033,1.167-0.05,2.5-0.05c0.033-0.866-0.117-1.967-0.45-3.3
		c-0.433-1.5-0.733-2.6-0.9-3.3c-0.967-4.7-1.083-9.184-0.35-13.45c2.067-0.333,3.833-1.55,5.3-3.65
		c1.333-1.933,2.033-4.05,2.1-6.35c-0.167-2.8-0.217-4.816-0.15-6.05c0.1-2.033,0.85-3.9,2.25-5.601c0.6-0.699,1.167-1.6,1.7-2.699
		c0.733-1.434,1.25-2.384,1.55-2.851c0.233-0.333,0.75-0.85,1.55-1.55c0.767-0.634,1.25-1.167,1.45-1.6
		c0.2-0.4,0.267-1.334,0.2-2.801c-0.067-1.3,0.083-2.133,0.45-2.5c0.533-0.533,1.367-0.8,2.5-0.8c1.167-0.033,2.017,0.217,2.55,0.75
		c0.6,0.601,1.167,1.95,1.7,4.05c0.733,1.667,2.05,2.167,3.95,1.5c0.633-0.233,1.467-1.1,2.5-2.6c1.1-1.634,1.917-2.616,2.45-2.95
		c0.8,1.066,2.483,1.717,5.05,1.95c2.4,0.233,4.184,0.05,5.35-0.55c0.4-0.2,0.75-0.55,1.05-1.05c0.4-0.7,0.7-1.167,0.9-1.4
		c0.566-0.6,1.3-1.066,2.2-1.4c0.5-0.166,1.3-0.449,2.4-0.85c2.5-1.066,5.133-3.2,7.9-6.4c2.2-2.5,4.216-5.3,6.05-8.399
		c0.733-1.2,1.533-3.167,2.4-5.9c1-2,2.667-2.8,5-2.399c1,0.166,3.167,1.483,6.5,3.949c2.833,2.067,5,2.784,6.5,2.15
		c0.267-0.1,0.633-0.483,1.1-1.15c0.467-0.666,0.9-1.066,1.3-1.199c0.967-0.301,2-0.084,3.101,0.649
		c0.066,0.066,0.883,0.767,2.449,2.101c1.233,1,2.317,1.6,3.25,1.8c0.434,0.1,1.684,0.149,3.75,0.149c0.367,0,1.717,0.134,4.051,0.4
		c1.733,0.2,3.083,0.2,4.05,0c0.467-0.1,1.1-0.366,1.899-0.8c0.834-0.467,1.45-0.75,1.851-0.851c0.8-0.199,2.149-0.066,4.05,0.4
		c1.8,0.4,3.066,0.434,3.8,0.1c0.5-0.199,1.066-0.883,1.7-2.05c0.6-1.166,1.184-1.866,1.75-2.1c0.533-0.233,1.366-0.3,2.5-0.2
		c1.233,0.134,2.1,0.116,2.6-0.05c0.9-0.3,1.717-0.934,2.45-1.9c0.7-0.967,1.45-1.583,2.25-1.85c1.934-0.667,4.184-1.2,6.75-1.601
		c2.767-0.433,5.017-0.583,6.75-0.449c0.3,0.033,0.75,0.199,1.351,0.5c0.633,0.3,1.1,0.466,1.399,0.5
		c0.4,0.033,1.017,0.017,1.851-0.051c0.8-0.066,1.399-0.066,1.8,0c0.166,0,0.517,0.117,1.05,0.351c0.566,0.233,1,0.366,1.3,0.399
		c0.601,0.101,1.566,0.084,2.9-0.05v13.7c-1.7,0.733-2.967,1.267-3.8,1.6c-1.534,0.634-2.834,1.084-3.9,1.351
		c-0.066,0.033-0.533,0.1-1.4,0.2c-0.466,0.066-0.916,0.25-1.35,0.55c-0.267,0.2-0.634,0.633-1.1,1.3
		c-0.4,0.667-0.784,1.083-1.15,1.25c-0.667,0.333-1.65,0.533-2.95,0.6c-1.467,0.034-2.5,0.067-3.1,0.101c-1.934,0-3.384,0-4.351,0
		c-1.666,0.033-3.083,0.233-4.25,0.6c-1.699,0.5-3,0.851-3.899,1.05c-1.267,0.233-2.667,0.351-4.2,0.351h-13.6
		c-4.7,0-8.101,0.1-10.2,0.3c-3.634,0.366-6.9,1.15-9.8,2.35c-2.434,1.034-5.117,3.15-8.051,6.351c-1.033,1.166-2.399,2.2-4.1,3.1
		c-1.233,0.634-2.85,1.3-4.85,2c-0.933,0.334-2.5,0.617-4.7,0.851c-2.067,0.233-3.633,0.583-4.7,1.05
		c-1,0.434-2.583,1.217-4.75,2.35c-2.033,1.066-3.633,1.834-4.8,2.3c-2,0.801-4.917,2.2-8.75,4.2c-3.867,2.033-6.817,3.45-8.85,4.25
		c-2.934,1.167-5.567,3.117-7.9,5.851c-2.534,3.466-4.517,6.133-5.95,8c-0.2,0.267-0.667,0.783-1.4,1.55
		c-0.567,0.533-0.983,1.083-1.25,1.649c-0.4,0.834-0.684,1.817-0.85,2.95c-0.1,0.634-0.233,1.617-0.4,2.95
		c-0.2,1.267-1.033,3.517-2.5,6.75c-0.8,1.8-2.083,4.533-3.85,8.2c-2.833,3.366-5.567,5.866-8.2,7.5c-5.4,3.3-8.55,5.283-9.45,5.95
		c-1.934,1.433-3.483,2.733-4.65,3.899V220.25z M105.4,131.55c1.566,1.233,2.416,2.316,2.55,3.25c0.1,0.7-0.117,1.267-0.65,1.7
		c-0.733,0.467-1.283,0.9-1.649,1.3l-3.301-1.35c-1.466-1.101-2.483-2.4-3.05-3.9c-0.733-1.8,0.033-2.717,2.3-2.75
		C102.566,129.767,103.833,130.35,105.4,131.55z M114.65,135.8l1.699-1c0.567-0.1,1.45-0.083,2.65,0.05
		c0.4,1.967-0.366,2.917-2.3,2.851c-0.733-0.033-1.316-0.233-1.75-0.601C114.45,136.7,114.35,136.267,114.65,135.8z M137.35,109.8
		v0.6c-1.333-1.5-2-2.933-2-4.3L137.35,109.8z M143.55,118.3c0.3,0.9,0.45,2.134,0.45,3.7s-0.066,2.684-0.2,3.35
		c-0.2,0.967-0.666,1.983-1.399,3.051c-0.733,1.1-1.217,1.716-1.45,1.85c-0.233,0.1-1.101,0.2-2.601,0.3
		c-2.267,0.101-4.083,0.033-5.449-0.2c-1.733-0.267-3.5-0.883-5.301-1.85c0.967-0.033,2.384-0.017,4.25,0.05
		c1.534-0.066,2.75-0.566,3.65-1.5c1.566-1.6,2.35-4.217,2.35-7.85c-0.267-4.167-0.433-7.1-0.5-8.8
		c0.334,0.367,1.101,1.133,2.301,2.3c0.933,0.9,1.6,1.633,2,2.2C142.616,116.233,143.25,117.367,143.55,118.3z M72.35,146.1l2.65-1
		c0.067,2.567-0.267,4.4-1,5.5c-0.8,1.167-2.35,1.9-4.65,2.2c-2.233,0.267-3.733,0.066-4.5-0.6c-0.667-0.601-0.684-1.434-0.05-2.5
		c0.6-1,1.583-1.867,2.95-2.601C69.25,146.333,70.783,146,72.35,146.1z"/>
	<path style="fill-rule:evenodd;clip-rule:evenodd;fill:#544837;" d="M10.7,111.75c0.066,0,0.15,0.017,0.25,0.05
		c0.633,0.233,1.483,0.333,2.55,0.3c0.333,0.1,0.717,0.183,1.15,0.25c1.667,0.333,2.567,0.6,2.7,0.8c0.2,0.3,0.217,0.8,0.05,1.5
		c-0.233,0.833-0.333,1.317-0.3,1.45c0.033,0.367,0.133,0.816,0.3,1.35c0.2,0.566,0.317,0.983,0.35,1.25
		c0.233,1.6-0.4,3.166-1.9,4.7c-1.567,1.566-2.3,3.033-2.2,4.399c0.033,0.667,0.3,1.601,0.8,2.8c0.066,0.167,0.133,0.334,0.2,0.5
		c0.4,1,0.633,1.767,0.7,2.301c0.1,0.6,0.117,1.267,0.05,2l1.45-4.4c0.2-0.434,0.417-0.816,0.65-1.15c0.2-0.3,0.4-0.566,0.6-0.8
		l0.65-0.7c0.7-0.633,1.383-1.216,2.05-1.75c0.333-0.399,0.617-1.25,0.85-2.55c0.2-1,0.633-1.95,1.3-2.85
		c0.867-1.2,1.433-2.117,1.7-2.75c0.233-0.567,0.383-1.733,0.45-3.5c0.066-1.333,0.533-2.4,1.4-3.2
		c1.033-0.967,2.333-1.483,3.9-1.55c1.667-0.1,2.767,0.433,3.3,1.6c0.3,0.7,0.35,1.75,0.15,3.15c-0.233,1.466-0.6,2.4-1.1,2.8
		c2.9-0.867,5.2-1.75,6.9-2.65c0.8-0.4,1.3-0.667,1.5-0.8c0.067-0.066,0.233-0.45,0.5-1.15c0.434-0.733,0.817-1.65,1.15-2.75
		c0.4-0.767,1.233-1.3,2.5-1.6l0.35,0.65c1.267-1.733,1.317-3.267,0.15-4.6c-0.133-0.167-0.3-0.333-0.5-0.5
		c1.1-0.3,1.833-0.517,2.2-0.65c0.133-0.067,0.783-0.333,1.95-0.8c0.8,0.1,1.466,0.217,2,0.35c0.367,0.1,0.716,0.2,1.05,0.3
		c0.067,0,0.133,0.017,0.2,0.05l3.65,2c0.367,0.367,0.683,0.767,0.95,1.2l0.45,0.9c0.033,0.033,0.05,0.066,0.05,0.1
		c0.367-0.5,0.883-1.25,1.55-2.25c0-0.066,0.017-0.117,0.05-0.15c0.667-0.833,1.45-1.383,2.35-1.65h0.7c0.233,0,0.5,0.033,0.8,0.1
		c0.033,0,0.083,0,0.15,0c0.067,0.033,0.15,0.066,0.25,0.1h0.05c0.033,0,0.066,0,0.1,0h0.05l0.45-0.2
		c0.2-0.167,0.333-0.483,0.4-0.95v-0.2c0-0.033,0-0.067,0-0.1c0.433-0.033,1.167-0.1,2.2-0.2c0.333-0.033,0.7-0.066,1.1-0.1
		c0.033-0.034,0.083-0.05,0.15-0.05c1.567-0.167,2.65-0.183,3.25-0.05c1.267,0.267,2.667,1.483,4.2,3.65
		c1.533,2.2,2.883,3.433,4.05,3.7c0.033-0.434,0-1.5-0.1-3.2c-0.1-1.333-0.066-2.367,0.1-3.1c0.167-0.733,0.617-1.85,1.35-3.35
		c0.6-1.267,0.933-2.433,1-3.5c0-0.05,0.008-0.1,0.025-0.15v-0.025c0.004-0.026,0.013-0.051,0.025-0.075c0-0.127,0-0.252,0-0.375
		c0.016-0.127,0.033-0.252,0.05-0.375l0.65-4c0.067-0.233,0.133-0.433,0.2-0.6c0.233-0.567,0.716-1.35,1.45-2.35
		c0.633-0.233,1.283-0.567,1.95-1c1.2-0.8,2.8-2.217,4.8-4.25c2.033-2.067,3.617-3.483,4.75-4.25c1.234-0.9,2.367-1.434,3.4-1.6
		c0.5-0.1,1.867-0.15,4.101-0.15c2.666,0.033,5.1,0.066,7.3,0.1c0.6,0.3,1.033,0.65,1.3,1.05c0,0.033,0.4,0.967,1.2,2.8
		c0.767-0.233,1.783-0.316,3.05-0.25c1.566,0.067,2.6,0.067,3.1,0c0.767-0.1,1.801-0.316,3.101-0.65
		c1.166-0.233,2.233-0.217,3.2,0.05c0.3,0.1,1.05,0.283,2.25,0.55c1.133,0.3,1.866,0.533,2.199,0.7c0.5,0.3,0.817,0.716,0.95,1.25
		c0.167,0.633,0.4,1.083,0.7,1.35c0.667,0.6,1.384,0.883,2.15,0.85c0.267,0,1.083-0.15,2.449-0.45
		c0.167-0.034,0.601-0.15,1.301-0.35c0.5-0.133,0.949-0.217,1.35-0.25c0.167,0,0.434,0.167,0.8,0.5
		c0.334,0.333,0.617,0.483,0.851,0.45c0.267-0.033,0.666-0.283,1.199-0.75c0.634-0.533,1-0.833,1.101-0.9
		c0.434-0.2,0.967-0.333,1.6-0.4c0.667-0.033,1.15-0.117,1.45-0.25c0.2-0.067,0.5-0.333,0.9-0.8c0.366-0.4,0.633-0.6,0.8-0.6
		c2.1,0.066,3.483,2.3,4.149,6.7c0,0.1,0.017,0.2,0.051,0.3c0.366,2.3,0.75,5.183,1.149,8.65c0.5-0.6,0.834-1.333,1-2.2
		c0.101-1,0.2-1.783,0.3-2.35c0.167-0.867,0.317-1.417,0.45-1.65c0.134-0.2,0.483-0.65,1.05-1.35c0.2-0.3,0.4-0.55,0.601-0.75
		c0.166-0.2,0.316-0.367,0.45-0.5c0.1-0.167,0.25-0.65,0.449-1.45c0.034-0.133,0-0.667-0.1-1.6c-0.1-0.833-0.05-1.333,0.15-1.5
		c0.267-0.233,0.966-0.35,2.1-0.35c1.333,0,2.184-0.066,2.55-0.2c1.667-0.6,2.867-0.934,3.601-1c0.899-0.1,2.166,0.083,3.8,0.55
		c0.233,0.067,0.55,0.117,0.95,0.15c0.3,0.034,0.616,0.117,0.949,0.25c0.167,0.1,1.384,0.983,3.65,2.65
		c0.267,0.466,0.483,1.267,0.65,2.4c0.166,1.133,0.416,2,0.75,2.6l0.3,0.4c0.133,0.167,0.316,0.383,0.55,0.65
		c0.066,0.067,0.134,0.133,0.2,0.2l0.2,0.25c0.566,0.6,0.916,1.117,1.05,1.55c0.166,0.5,0.2,1.267,0.1,2.3
		c-0.133,1.167-0.166,1.967-0.1,2.4c0.066,0.5,0.217,1.1,0.45,1.8c0.1,0.4,0.283,0.983,0.55,1.75v8.35
		c-1.566-0.467-2.634-0.767-3.2-0.9c-0.833-0.2-1.517-0.25-2.05-0.15c-1.134,0.233-1.816,0.35-2.05,0.35
		c-0.467-1.267-1.4-1.867-2.801-1.8c-2.033,0.1-3.25,0.066-3.649-0.1c-0.134-0.067-0.95-0.667-2.45-1.8
		c-0.866-0.7-1.934-0.9-3.2-0.6c-1.233,0.3-2.783,1.467-4.649,3.5c-2,2.367-3.351,3.933-4.051,4.7
		c-0.1-0.233-0.566-1.617-1.399-4.15c-0.533-1.6-1.167-2.933-1.9-4c-0.533-1.033-0.934-1.783-1.2-2.25
		c-0.5-0.867-1.116-1.433-1.85-1.7c-0.4-0.167-1-0.2-1.8-0.1c-0.9,0.133-1.5,0.167-1.8,0.1c-0.867-0.167-2.184-0.567-3.95-1.2
		c-1.8-0.633-3.15-1.033-4.05-1.2c-0.801,0.034-1.25,0.05-1.351,0.05c-0.1,0-0.316-0.45-0.649-1.35
		c-0.067-0.2-0.167-1.567-0.301-4.1c-0.033-1.066-1.033-1.717-3-1.95c-0.366-0.034-1.767,0-4.199,0.1c-1.9,0.067-3.233-0.083-4-0.45
		c-0.601-0.3-1.051-0.733-1.351-1.3c-0.233-0.466-0.717-0.8-1.45-1c-0.666-0.2-1.399-0.133-2.199,0.2
		c-1.233,0.5-1.867,0.75-1.9,0.75c-0.434,0.1-1.083,0.117-1.95,0.05c-0.899-0.033-1.55-0.033-1.95,0c-1.333,0.1-2.55,0.6-3.649,1.5
		c-1.5,1.167-2.566,1.883-3.2,2.15c-0.566,0.233-1.517,0.383-2.85,0.45c-1.334,0.1-2.334,0.3-3,0.6c-0.833,0.4-1.783,1.1-2.85,2.1
		c-1.3,1.2-2.2,1.967-2.7,2.3c-0.2,0.1-0.517,0.15-0.95,0.15c-0.433,0-0.733,0.067-0.9,0.2c-0.7,0.567-1.217,1.3-1.55,2.2
		c-0.333,0.9-0.434,1.8-0.3,2.7c-0.533,0.3-0.933,0.483-1.2,0.55c-0.1,0.933-0.3,2.433-0.6,4.5c-0.1,1-0.317,3.733-0.65,8.2
		c-0.034,0.767-0.133,2.734-0.3,5.9c-0.267,2.934-0.717,4.767-1.35,5.5c-0.966,1.101-1.583,1-1.85-0.3
		c-0.1-1.733-0.217-2.833-0.35-3.3c-0.233-0.934-0.867-2.101-1.9-3.5c-1.133-1.5-1.917-2.567-2.35-3.2
		c-0.934-1.6-1.7-2.883-2.3-3.85c-1.133-1.767-2.1-2.867-2.9-3.3c-0.867,0.833-1.383,2.75-1.55,5.75
		c-0.133,2.867-0.85,4.766-2.15,5.7c-1.3-2.366-2.333-4.083-3.1-5.15c-1.367-1.933-2.983-2.667-4.85-2.2
		c-1.367,0.733-2.25,1.2-2.65,1.4c-0.667,0.333-1.517-0.033-2.55-1.1c-1.966,3.433-5.55,5.934-10.75,7.5
		c-6.033,1.3-10.35,2.4-12.95,3.3c-1.733,0.601-3.033,1.65-3.9,3.15c-1.4,2.467-2.25,3.85-2.55,4.149
		c-0.4,0.467-0.667,0.733-0.8,0.801c-0.233,0.166-0.617,0.233-1.15,0.199c0.033,1.301-0.184,2.45-0.65,3.45
		c-0.066,0.167-0.667,1.184-1.8,3.05c-0.633,1.101-1.1,2.634-1.4,4.601c-0.367,2.333-0.7,3.899-1,4.7
		c-0.233,0.633-0.6,1.216-1.1,1.75c-0.567,0.566-0.933,1.017-1.1,1.35c-0.367,0.733-0.55,1.767-0.55,3.1
		c-0.033,1.434-0.15,2.417-0.35,2.95c-0.3,0.767-1.65,1.9-4.05,3.4V111.75z"/>
	<path style="fill-rule:evenodd;clip-rule:evenodd;fill:#4B4133;" d="M179.7,101.75c-0.267-0.767-0.45-1.35-0.55-1.75
		c-0.233-0.7-0.384-1.3-0.45-1.8c-0.066-0.434-0.033-1.233,0.1-2.4c0.101-1.033,0.066-1.8-0.1-2.3
		c-0.134-0.433-0.483-0.95-1.05-1.55l-0.2-0.25c-0.066-0.067-0.134-0.133-0.2-0.2c-0.233-0.267-0.417-0.483-0.55-0.65l-0.3-0.4
		c-0.334-0.6-0.584-1.467-0.75-2.6c-0.167-1.133-0.384-1.934-0.65-2.4c-2.267-1.667-3.483-2.55-3.65-2.65
		c-0.333-0.133-0.649-0.216-0.949-0.25c-0.4-0.033-0.717-0.083-0.95-0.15c-1.634-0.467-2.9-0.65-3.8-0.55
		c-0.733,0.066-1.934,0.4-3.601,1c-0.366,0.133-1.217,0.2-2.55,0.2c-1.134,0-1.833,0.117-2.1,0.35c-0.2,0.167-0.25,0.667-0.15,1.5
		c0.1,0.934,0.134,1.467,0.1,1.6c-0.199,0.8-0.35,1.283-0.449,1.45c-0.134,0.133-0.284,0.3-0.45,0.5c-0.2,0.2-0.4,0.45-0.601,0.75
		c-0.566,0.7-0.916,1.15-1.05,1.35c-0.133,0.233-0.283,0.784-0.45,1.65c-0.1,0.566-0.199,1.35-0.3,2.35c-0.166,0.867-0.5,1.6-1,2.2
		c-0.399-3.467-0.783-6.35-1.149-8.65c-0.034-0.1-0.051-0.2-0.051-0.3c-0.666-4.4-2.05-6.633-4.149-6.7c-0.167,0-0.434,0.2-0.8,0.6
		c-0.4,0.466-0.7,0.733-0.9,0.8c-0.3,0.133-0.783,0.217-1.45,0.25c-0.633,0.067-1.166,0.2-1.6,0.4
		c-0.101,0.067-0.467,0.367-1.101,0.9c-0.533,0.467-0.933,0.717-1.199,0.75c-0.233,0.034-0.517-0.117-0.851-0.45
		c-0.366-0.333-0.633-0.5-0.8-0.5c-0.4,0.033-0.85,0.117-1.35,0.25c-0.7,0.2-1.134,0.316-1.301,0.35
		c-1.366,0.3-2.183,0.45-2.449,0.45c-0.767,0.033-1.483-0.25-2.15-0.85c-0.3-0.267-0.533-0.716-0.7-1.35
		c-0.133-0.534-0.45-0.95-0.95-1.25c-0.333-0.167-1.066-0.4-2.199-0.7c-1.2-0.267-1.95-0.45-2.25-0.55
		c-0.967-0.267-2.034-0.284-3.2-0.05c-1.3,0.333-2.334,0.55-3.101,0.65c-0.5,0.067-1.533,0.067-3.1,0
		c-1.267-0.066-2.283,0.017-3.05,0.25c-0.8-1.833-1.2-2.767-1.2-2.8c-0.267-0.4-0.7-0.75-1.3-1.05c5.233,0.133,9.133,0.333,11.7,0.6
		c0.399,0.034,1.166,0.034,2.3,0c0.967-0.066,1.717-0.033,2.25,0.1c0.633,0.133,1.633,0.65,3,1.55c1.3,0.833,2.35,1.283,3.149,1.35
		c1.4,0.133,3.417-0.167,6.051-0.9c3.1-0.9,5.166-1.383,6.199-1.45c2.167-0.167,4.9-0.217,8.2-0.15c1.8,0.034,4.517,0.083,8.15,0.15
		c2.1,0,3.616-0.083,4.55-0.25c1.233-0.2,2.6-0.65,4.1-1.35c1.367-0.633,3.567-1.167,6.601-1.6c1.133-0.267,2.05-0.667,2.75-1.2
		V101.75z M82.05,95.675c-0.005,0.146-0.014,0.296-0.025,0.45v0.025C82.008,96.2,82,96.25,82,96.3c-0.067,1.067-0.4,2.233-1,3.5
		c-0.733,1.5-1.183,2.617-1.35,3.35c-0.167,0.733-0.2,1.767-0.1,3.1c0.1,1.7,0.133,2.767,0.1,3.2c-1.167-0.267-2.517-1.5-4.05-3.7
		c-1.533-2.167-2.934-3.383-4.2-3.65c-0.6-0.133-1.683-0.117-3.25,0.05c-0.066,0-0.117,0.017-0.15,0.05
		c-0.4,0.033-0.767,0.066-1.1,0.1c-1.033,0.1-1.767,0.167-2.2,0.2c0,0.033,0,0.067,0,0.1v0.2c-0.067,0.467-0.2,0.784-0.4,0.95
		l-0.45,0.2H63.8c-0.033,0-0.066,0-0.1,0h-0.05c-0.1-0.034-0.183-0.067-0.25-0.1c-0.066,0-0.117,0-0.15,0
		c-0.3-0.067-0.567-0.1-0.8-0.1h-0.7c-0.9,0.267-1.683,0.817-2.35,1.65c-0.033,0.033-0.05,0.083-0.05,0.15
		c-0.667,1-1.184,1.75-1.55,2.25c0-0.033-0.017-0.066-0.05-0.1l-0.45-0.9c-0.267-0.433-0.583-0.833-0.95-1.2l-3.65-2
		c-0.067-0.033-0.133-0.05-0.2-0.05c-0.333-0.1-0.683-0.2-1.05-0.3c-0.534-0.133-1.2-0.25-2-0.35c0.333-0.133,0.7-0.283,1.1-0.45
		c1.267-0.5,2.333-0.817,3.2-0.95c0.833-0.133,2.033-0.15,3.6-0.05c1.7,0.1,2.917,0.117,3.65,0.05c2.833-0.3,5.4-1.433,7.7-3.4
		c1.333-1.133,3.383-3.067,6.15-5.8c1.267-1.033,2.467-1.816,3.6-2.35c1.033-0.467,2.35-0.85,3.95-1.15c0.934-0.2,1.6-0.35,2-0.45
		c-0.733,1-1.217,1.783-1.45,2.35c-0.067,0.167-0.133,0.367-0.2,0.6l-0.65,4C82.083,95.422,82.066,95.547,82.05,95.675z M13.5,112.1
		c0.533,0,1.117-0.033,1.75-0.1c1.033-0.133,2.483-0.317,4.35-0.55c6.867-0.434,12.9-2,18.1-4.7c1.133-0.6,2.75-1.167,4.85-1.7
		c1.067-0.267,1.983-0.5,2.75-0.7c0.2,0.167,0.367,0.333,0.5,0.5c1.167,1.333,1.117,2.867-0.15,4.6l-0.35-0.65
		c-1.267,0.3-2.1,0.833-2.5,1.6c-0.333,1.1-0.716,2.017-1.15,2.75c-0.267,0.7-0.433,1.083-0.5,1.15c-0.2,0.133-0.7,0.4-1.5,0.8
		c-1.7,0.9-4,1.783-6.9,2.65c0.5-0.4,0.867-1.333,1.1-2.8c0.2-1.4,0.15-2.45-0.15-3.15c-0.534-1.167-1.633-1.7-3.3-1.6
		c-1.566,0.066-2.867,0.583-3.9,1.55c-0.867,0.8-1.333,1.867-1.4,3.2c-0.067,1.767-0.217,2.933-0.45,3.5
		c-0.267,0.633-0.833,1.55-1.7,2.75c-0.667,0.899-1.1,1.85-1.3,2.85c-0.233,1.3-0.517,2.15-0.85,2.55
		c-0.667,0.534-1.35,1.117-2.05,1.75l-0.65,0.7c-0.2,0.233-0.4,0.5-0.6,0.8c-0.233,0.334-0.45,0.717-0.65,1.15l-1.45,4.4
		c0.067-0.733,0.05-1.4-0.05-2c-0.067-0.534-0.3-1.301-0.7-2.301c-0.066-0.166-0.133-0.333-0.2-0.5c-0.5-1.199-0.767-2.133-0.8-2.8
		c-0.1-1.366,0.633-2.833,2.2-4.399c1.5-1.534,2.133-3.101,1.9-4.7c-0.033-0.267-0.15-0.684-0.35-1.25
		c-0.167-0.534-0.267-0.983-0.3-1.35c-0.033-0.133,0.066-0.617,0.3-1.45c0.167-0.7,0.15-1.2-0.05-1.5
		c-0.133-0.2-1.033-0.467-2.7-0.8C14.217,112.283,13.833,112.2,13.5,112.1z"/>
</g>
</svg>
